<svg width="20" height="20" viewBox="0 0 20 20" fill="none" xmlns="http://www.w3.org/2000/svg">
<path d="M17.8536 2.85355C18.0488 2.65829 18.0488 2.34171 17.8536 2.14645C17.6583 1.95118 17.3417 1.95118 17.1464 2.14645L15.7383 3.55463C15.2479 3.2054 14.6479 3 14 3C12.3431 3 11 4.34315 11 6C11 6.64792 11.2054 7.24786 11.5546 7.73827L7.73827 11.5546C7.24786 11.2054 6.64792 11 6 11C4.34315 11 3 12.3431 3 14C3 14.6479 3.2054 15.2479 3.55463 15.7383L2.14645 17.1464C1.95118 17.3417 1.95118 17.6583 2.14645 17.8536C2.34171 18.0488 2.65829 18.0488 2.85355 17.8536L4.26173 16.4454C4.75214 16.7946 5.35208 17 6 17C7.65685 17 9 15.6569 9 14C9 13.3521 8.7946 12.7521 8.44537 12.2617L12.2617 8.44537C12.7521 8.7946 13.3521 9 14 9C15.6569 9 17 7.65685 17 6C17 5.35208 16.7946 4.75214 16.4454 4.26173L17.8536 2.85355Z" fill="#212121"/>
</svg>
