<svg width="20" height="20" viewBox="0 0 20 20" fill="none" xmlns="http://www.w3.org/2000/svg">
<path d="M5.93413 14.0659C6.22703 14.3588 6.22703 14.8336 5.93413 15.1265C5.64124 15.4194 5.16637 15.4194 4.87347 15.1265C2.04217 12.2952 2.04217 7.70478 4.87347 4.87348C6.71833 3.02862 9.30991 2.38674 11.6723 2.94459C12.0755 3.03978 12.3251 3.44375 12.2299 3.84687C12.1347 4.25 11.7308 4.49963 11.3276 4.40444C9.44997 3.96106 7.39622 4.47205 5.93413 5.93414C3.68862 8.17965 3.68862 11.8203 5.93413 14.0659ZM15.8879 7.1415C16.2789 7.00477 16.7067 7.21089 16.8435 7.60189C17.7333 10.1463 17.1624 13.0907 15.1265 15.1265C14.8336 15.4194 14.3588 15.4194 14.0659 15.1265C13.773 14.8336 13.773 14.3588 14.0659 14.0659C15.6791 12.4526 16.1344 10.1183 15.4276 8.09704C15.2908 7.70604 15.4969 7.27824 15.8879 7.1415ZM13.8791 4.66732C14.1062 4.47297 14.439 4.46653 14.6734 4.65195C14.9078 4.83738 14.9781 5.16278 14.8412 5.42842L14.7119 5.67862C14.6295 5.83801 14.5113 6.06624 14.3681 6.34179C14.0818 6.89278 13.6954 7.63339 13.2955 8.39123C12.8959 9.14854 12.4815 9.92535 12.1395 10.5479C11.9686 10.8589 11.8142 11.1344 11.6879 11.3509C11.5703 11.5524 11.4548 11.7421 11.3688 11.8508C10.7263 12.6629 9.54711 12.8004 8.735 12.1579C7.92288 11.5154 7.78538 10.3362 8.42788 9.52412C8.51387 9.41543 8.67195 9.25932 8.84093 9.09862C9.02262 8.92581 9.25522 8.71214 9.51854 8.47435C10.0457 7.9983 10.7063 7.41631 11.3514 6.85315C11.9969 6.28961 12.6288 5.74321 13.0991 5.33783C13.3343 5.1351 13.5292 4.96755 13.6654 4.85065L13.8791 4.66732ZM20 10C20 15.5228 15.5228 20 10 20C4.47715 20 0 15.5228 0 10C0 4.47715 4.47715 0 10 0C15.5228 0 20 4.47715 20 10ZM1.5 10C1.5 14.6944 5.30558 18.5 10 18.5C14.6944 18.5 18.5 14.6944 18.5 10C18.5 5.30558 14.6944 1.5 10 1.5C5.30558 1.5 1.5 5.30558 1.5 10Z" fill="#212121"/>
</svg>
