<svg width="20" height="20" viewBox="0 0 20 20" fill="none" xmlns="http://www.w3.org/2000/svg">
<path d="M3.67348 7H16.3265C15.2028 4.63454 12.7918 3 10 3C7.20825 3 4.79718 4.63454 3.67348 7ZM16.7103 8H3.28974C3.10132 8.6332 3 9.30438 3 10C3 10.6956 3.10132 11.3668 3.28974 12H16.7103C16.8987 11.3668 17 10.6956 17 10C17 9.30438 16.8987 8.6332 16.7103 8ZM16.3265 13H3.67348C4.79718 15.3655 7.20825 17 10 17C12.7918 17 15.2028 15.3655 16.3265 13ZM2.45534 7.33338C3.55334 4.22687 6.51597 2 10 2C13.484 2 16.4467 4.22687 17.5447 7.33338C17.8397 8.1681 18 9.06587 18 10C18 10.9341 17.8397 11.8319 17.5447 12.6666C16.4467 15.7731 13.484 18 10 18C6.51597 18 3.55334 15.7731 2.45534 12.6666C2.16031 11.8319 2 10.9341 2 10C2 9.06587 2.16031 8.1681 2.45534 7.33338Z" fill="#212121"/>
</svg>
