<svg width="24" height="24" viewBox="0 0 24 24" fill="none" xmlns="http://www.w3.org/2000/svg">
<path d="M3.5 12C3.5 10.9424 3.69281 9.93133 4.04473 8.99896H19.9553C20.3072 9.93133 20.5 10.9424 20.5 12C20.5 13.0576 20.3072 14.0687 19.9553 15.001H4.04473C3.69281 14.0687 3.5 13.0576 3.5 12ZM12 2C7.91959 2 4.4116 4.44381 2.85673 7.94452C2.30577 9.18499 2 10.5578 2 12C2 13.4422 2.30577 14.815 2.85673 16.0555C4.41161 19.5562 7.91959 22 12 22C16.0804 22 19.5884 19.5562 21.1433 16.0555C21.6942 14.815 22 13.4422 22 12C22 10.5578 21.6942 9.18499 21.1433 7.94452C19.5884 4.44381 16.0804 2 12 2Z" fill="#212121"/>
</svg>
