<svg width="20" height="20" viewBox="0 0 20 20" fill="none" xmlns="http://www.w3.org/2000/svg">
<path d="M1.9105 7.38266C2.27979 6.24053 2.88814 5.19213 3.69084 4.30364C3.82658 4.15339 4.03954 4.09984 4.2302 4.16802L6.14848 4.85392C6.66856 5.03977 7.24082 4.76883 7.42668 4.24875C7.44495 4.19762 7.45903 4.14507 7.46876 4.09173L7.83422 2.08573C7.87055 1.88627 8.02373 1.7285 8.22203 1.6863C8.80222 1.5628 9.39709 1.5 9.99977 1.5C10.6021 1.5 11.1966 1.56273 11.7765 1.68607C11.9747 1.72824 12.1279 1.88591 12.1643 2.08529L12.5308 4.09165C12.6298 4.63497 13.1506 4.9951 13.6939 4.89601C13.7474 4.88627 13.7999 4.87219 13.851 4.85395L15.7693 4.16802C15.96 4.09984 16.173 4.15339 16.3087 4.30364C17.1114 5.19213 17.7197 6.24053 18.089 7.38266C18.1513 7.57534 18.0913 7.78658 17.9369 7.91764L16.3821 9.23773C16.3568 9.25918 16.3329 9.28161 16.3103 9.30492C15.7433 9.10737 15.1341 9 14.4998 9C13.585 9 12.7224 9.22335 11.9634 9.6185C11.7853 8.6964 10.9739 8 9.99977 8C8.8952 8 7.99977 8.89543 7.99977 10C7.99977 10.9741 8.69619 11.7856 9.6183 11.9637C9.22317 12.7226 8.99984 13.5852 8.99984 14.5C8.99984 15.3091 9.17516 16.0794 9.49033 16.7731L9.06212 18.1794C9.03518 18.2679 9.01724 18.3558 9.00759 18.4427C8.74321 18.4119 8.48115 18.3689 8.22203 18.3137C8.02373 18.2715 7.87055 18.1137 7.83422 17.9143L7.46877 15.9084C7.36969 15.365 6.84891 15.0049 6.30559 15.104C6.25216 15.1137 6.19962 15.1278 6.14857 15.1461L4.2302 15.832C4.03954 15.9002 3.82658 15.8466 3.69084 15.6964C2.88814 14.8079 2.27979 13.7595 1.9105 12.6173C1.8482 12.4247 1.90828 12.2134 2.06265 12.0824L3.61749 10.7623C4.03848 10.4048 4.08997 9.77373 3.7325 9.35274C3.69735 9.31135 3.65888 9.27288 3.61751 9.23775L2.06265 7.91764C1.90828 7.78658 1.8482 7.57534 1.9105 7.38266Z" fill="#212121"/>
<path d="M14.5 19C16.9853 19 19 16.9853 19 14.5C19 12.0147 16.9853 10 14.5 10C12.0147 10 10 12.0147 10 14.5C10 16.9853 12.0147 19 14.5 19ZM16.8536 13.3536L13.8536 16.3536C13.6583 16.5488 13.3417 16.5488 13.1464 16.3536L12.1464 15.3536C11.9512 15.1583 11.9512 14.8417 12.1464 14.6464C12.3417 14.4512 12.6583 14.4512 12.8536 14.6464L13.5 15.2929L16.1464 12.6464C16.3417 12.4512 16.6583 12.4512 16.8536 12.6464C17.0488 12.8417 17.0488 13.1583 16.8536 13.3536Z" fill="#212121"/>
</svg>
