<svg width="48" height="48" viewBox="0 0 48 48" fill="none" xmlns="http://www.w3.org/2000/svg">
<path d="M24 32.25C26.2091 32.25 28 34.0409 28 36.25C28 38.4591 26.2091 40.25 24 40.25C21.7909 40.25 20 38.4591 20 36.25C20 34.0409 21.7909 32.25 24 32.25Z" fill="#242424"/>
<path d="M34.6973 10.5L25.25 10.5L25.25 25.0342L34.6973 10.5ZM22.75 9.34961C22.7502 8.60433 23.3543 8.00021 24.0996 8L36.8154 8C37.8866 8 38.531 9.18784 37.9473 10.0859L25.2314 29.6484L25.1602 29.749C24.3918 30.7417 22.7504 30.2146 22.75 28.9131L22.75 9.34961Z" fill="#242424"/>
</svg>
