<svg xmlns="http://www.w3.org/2000/svg" width="160" height="161" fill="none" viewBox="0 0 160 161">
  <path fill="#E8DFD3" d="M30.4019 51.4945c2.0212 0 3.6597-1.6394 3.6597-3.6618 0-2.0223-1.6385-3.6618-3.6597-3.6618s-3.6597 1.6395-3.6597 3.6618c0 2.0224 1.6385 3.6618 3.6597 3.6618Z"/>
  <path fill="#EAEEF9" d="M130.562 62.6728c2.021 0 3.66-1.6395 3.66-3.6619 0-2.0223-1.639-3.6618-3.66-3.6618s-3.66 1.6395-3.66 3.6618c0 2.0224 1.639 3.6619 3.66 3.6619Z"/>
  <path fill="#E8DFD3" d="M37.8177 39.0636c.7978 0 1.4446-.6471 1.4446-1.4454s-.6468-1.4455-1.4446-1.4455c-.7979 0-1.4447.6472-1.4447 1.4455s.6468 1.4454 1.4447 1.4454ZM126.325 47.1582c.851 0 1.541-.6903 1.541-1.5418s-.69-1.5418-1.541-1.5418-1.541.6903-1.541 1.5418.69 1.5418 1.541 1.5418Z"/>
  <path fill="#F0F0F0" d="M79.7115 133.5c29.2545 0 52.9695-23.729 52.9695-53 0-29.2711-23.715-53-52.9695-53-29.2541 0-52.9693 23.7289-52.9693 53 0 29.271 23.7152 53 52.9693 53Z"/>
  <g filter="url(#filter0_d_3533_6761)">
    <path fill="url(#paint0_linear_3533_6761)" d="m94.5431 110.855-46.0352 18.598c-.7705.289-1.6372-.097-1.9262-.771L20.0971 62.8655c-.289-.7709.0963-1.6382.7704-1.9273L66.9027 42.34c.7705-.2891 1.6372.0964 1.9261.7709l26.4847 65.7201c.3852.867 0 1.734-.7704 2.024Z"/>
  </g>
  <path fill="#EBE3D8" d="M74.222 71.9237 35.6988 87.4382c-.3852.1927-.7705 0-.9631-.3855-.1926-.3854 0-.7709.3853-.9636l38.4268-15.5145c.3852-.1928.7705 0 .9631.3854.1926.3855 0 .7709-.2889.9637ZM75.6667 75.6818 37.2398 91.1964c-.3852.1927-.7704 0-.9631-.3855-.1926-.3854 0-.7709.3853-.9636l38.4268-15.5146c.3852-.1927.7705.0001.9631.3855.1926.3855 0 .7709-.3852.9636ZM77.2077 79.3437 38.7808 94.9546c-.3852.1927-.7704 0-.963-.3855-.1927-.3854 0-.7709.3852-.9636l38.4268-15.5146c.3853-.1927.7705 0 .9631.3855.1926.2891 0 .7709-.3852.8673ZM54.768 92.8345l-14.4462 5.8782c-.3852.1928-.7704 0-.963-.3854-.1926-.3855 0-.7709.3852-.9637l14.4462-5.8781c.3852-.1928.7704 0 .9631.3854.0963.3855 0 .7709-.3853.9636Z"/>
  <path fill="#EDE5DA" d="m82.2154 88.8837 1.252 3.18c.1926.5781 0 1.2527-.5778 1.4454L44.848 108.927c-.5779.193-1.252 0-1.4447-.578l-1.252-3.276c-.1926-.578 0-1.253.5779-1.446l38.0416-15.3215c.5778-.1927 1.1557.0964 1.4446.5782ZM85.2014 96.2073l1.252 3.18c.1926.5782 0 1.2527-.5779 1.4457l-38.0416 15.418c-.5778.193-1.252 0-1.4446-.578l-1.3483-3.277c-.1926-.578 0-1.252.5778-1.445l38.0416-15.3219c.5779-.1927 1.252.0964 1.541.5782ZM88.0904 103.531l1.252 3.18c.1926.578 0 1.253-.5778 1.445L50.723 123.575c-.5779.192-1.252 0-1.4447-.579l-1.252-3.18c-.1926-.578 0-1.252.5779-1.445l38.0416-15.322c.5778-.289 1.252 0 1.4446.482Z"/>
  <path fill="#BCB9B3" d="m46.6778 102.085 2.1188 5.3-3.9486 1.542c-.5779.193-1.252 0-1.4447-.578l-1.252-3.276c-.1926-.578 0-1.253.5779-1.446l3.9486-1.542Z"/>
  <path fill="#E4E0DA" d="m45.715 110.951 11.557-4.722 2.1187 5.3-11.5569 4.722c-.5778.193-1.252 0-1.4446-.578l-1.3483-3.277c-.1926-.481.0963-1.156.6741-1.445ZM48.6042 118.275l1.6372-.675 2.1188 5.3-1.6372.675c-.5779.192-1.252 0-1.4447-.579l-1.252-3.18c-.1926-.578 0-1.252.5779-1.541Z"/>
  <path fill="#EDE5DA" d="M49.182 68.6473c-.0963-5.3-4.4302-9.6364-9.8234-9.6364h-.0963c-5.3933 0-9.7271 4.4328-9.7271 9.8291.0963 5.3964 4.5264 9.7327 9.9197 9.7327 2.9855 0 5.5858-1.349 7.4157-3.3727 1.5409-1.7345 2.4077-3.9509 2.4077-6.4563-.0963 0-.0963 0-.0963-.0964Zm-9.7271 6.8418c-3.6597 0-6.6453-2.9873-6.6453-6.6491s2.9856-6.6491 6.6453-6.6491h.0963c3.6597 0 6.5489 2.8909 6.6452 6.4564v.1927c0 1.6382-.5778 3.18-1.6372 4.3364-1.3483 1.4454-3.0819 2.3127-5.1043 2.3127Z"/>
  <path fill="#BCB9B3" d="M49.1818 68.6473h-3.1782c0-3.5655-2.9855-6.4564-6.5489-6.4564h-.0963v-3.18h.0963c5.2969 0 9.6308 4.3364 9.7271 9.6364Z"/>
  <g filter="url(#filter1_d_3533_6761)">
    <path fill="url(#paint1_linear_3533_6761)" d="m113.323 125.791-46.5166-17.346c-.7704-.289-1.1556-1.156-.8667-1.927l24.6548-66.3943c.2889-.771 1.1557-1.1564 1.9262-.8673l46.5163 17.2491c.771.2891 1.156 1.1563.867 1.9272l-24.655 66.4913c-.289.771-1.155 1.156-1.926.867Z"/>
  </g>
  <path fill="#EBE3D8" d="m107.159 69.1291-3.756-1.4454 3.082-8.5764 3.756 1.3491-3.082 8.6727Z" opacity=".4"/>
  <path fill="#BCB9B3" d="m112.264 70.96-3.852-1.4455 4.719-13.1054 3.756 1.4454-4.623 13.1055ZM122.376 74.5254l-3.756-1.3491 6.164-17.2491 3.852 1.3491-6.26 17.2491Z"/>
  <path fill="#EBE3D8" d="m127.192 76.26-3.756-1.3491 1.637-4.7218 3.852 1.4454-1.733 4.6255Z" opacity=".4"/>
  <path fill="#EBE3D8" d="M124.495 83.2946 85.5866 68.84c-.3852-.0964-.5778-.5782-.4815-.9636.0963-.3855.5779-.5782.9631-.4818l38.9088 14.4545c.385.0964.577.5782.481.9636-.192.3855-.578.5782-.963.4819ZM123.05 87.0527 84.1418 72.5982c-.3852-.0964-.5778-.5782-.4815-.9637.0963-.3854.5778-.5781.9631-.4818l38.9086 14.4546c.385.0963.578.5782.481.9636-.096.3855-.578.6746-.963.4818ZM121.702 90.8109 82.7937 76.3564c-.3853-.0964-.5779-.5782-.4816-.9637.0963-.3854.5779-.5782.9631-.4818l38.9088 14.4546c.385.0963.577.5781.481.9636-.192.4818-.578.6745-.963.4818Z"/>
  <path fill="#DDD" d="m96.0843 85.6073-14.6388-5.3964c-.3852-.0963-.5778-.5782-.4815-.9636.0963-.3855.5778-.5782.9631-.4818l14.6388 5.3963c.3852.0964.5778.5782.4815.9637-.1926.3854-.5778.5781-.9631.4818Z"/>
  <path fill="#EDE5DA" d="m119.005 101.218-1.155 3.277c-.193.578-.867.867-1.445.674l-8.282-3.084-30.241-11.2741c-.5778-.1927-.8668-.8672-.6741-1.4454l1.1557-3.2764c.1926-.5782.8667-.8673 1.4446-.6745l30.0478 11.1781 8.379 3.0837c.674.3856.963.9636.77 1.5416ZM116.212 108.638l-1.155 3.277c-.193.578-.867.867-1.445.674l-2.793-1.06-35.6338-13.2017c-.5778-.1927-.8667-.8673-.6741-1.4455l1.1557-3.2763c.1926-.5782.8668-.8673 1.4446-.6746l35.7306 13.2981 2.696 1.06c.578.193.867.771.674 1.349ZM113.516 116.058l-1.156 3.277c-.193.578-.867.867-1.445.674l-14.2533-5.3-24.1732-8.962c-.5779-.192-.8668-.867-.6742-1.445l1.1557-3.277c.1926-.578.8668-.867 1.4446-.674l24.7512 9.154 13.6752 5.108c.578.192.867.867.675 1.445Z"/>
  <path fill="#BCB9B3" d="m74.4146 100.351 24.7511 9.154-2.504 5.108-24.1732-8.962c-.5779-.193-.8668-.867-.6742-1.446l1.1557-3.276c.1926-.482.8668-.771 1.4446-.578ZM77.2079 89.4618l1.1557-3.2763c.1926-.5782.8667-.8673 1.4446-.6746l30.0478 11.1782-1.926 5.2999-30.048-11.1781c-.5778-.1927-.8668-.7709-.6741-1.3491ZM112.842 106.229l-2.023 5.3-35.6338-13.2017c-.5778-.1927-.8667-.8673-.6741-1.4455l1.1557-3.2763c.1926-.5782.8668-.8673 1.4446-.6746l35.7306 13.2981Z"/>
  <path fill="#DDD" d="m87.0313 88.2091-1.9262 5.3-7.2231-2.6982c-.5778-.1927-.8668-.8672-.6741-1.4454l1.1557-3.2764c.1926-.5782.8667-.8673 1.4446-.6745l7.2231 2.7945ZM77.1114 92.9309l7.2231 2.6982-1.9262 5.2999-7.2231-2.6981c-.5778-.1927-.8667-.8673-.6741-1.4454l1.1557-3.2764c.2889-.4818.8668-.7709 1.4446-.5782ZM74.4146 100.351l7.2231 2.698-1.9261 5.3-7.2231-2.698c-.5779-.193-.8668-.867-.6742-1.446l1.1557-3.276c.1926-.482.8668-.771 1.4446-.578Z"/>
  <g filter="url(#filter2_d_3533_6761)">
    <path fill="url(#paint2_linear_3533_6761)" d="M105.041 109.698H55.4422c-.7705 0-1.4446-.674-1.4446-1.445V37.3291c0-.7709.6741-1.4454 1.4446-1.4454h49.5988c.77 0 1.444.6745 1.444 1.4454v70.8269c.097.868-.577 1.542-1.444 1.542Z"/>
  </g>
  <path fill="#EBE3D8" d="M100.707 63.1537H59.2944c-.3852 0-.7705-.289-.7705-.7705 0-.3852.2889-.7705.7705-.7705h41.4126c.385 0 .77.289.77.7705 0 .3852-.385.7705-.77.7705ZM100.707 67.1046H59.2944c-.3852 0-.7705-.2889-.7705-.7705 0-.3852.2889-.7704.7705-.7704h41.4126c.385 0 .77.2889.77.7704 0 .4816-.385.7705-.77.7705ZM100.707 71.1518H59.2944c-.3852 0-.7705-.2889-.7705-.7704 0-.3853.2889-.7705.7705-.7705h41.4126c.385 0 .77.2889.77.7705 0 .4815-.385.7704-.77.7704ZM100.611 86.2809H86.6459c-.3852 0-.7704-.2889-.7704-.7704 0-.3853.2889-.7705.7704-.7705h13.9651c.385 0 .77.2889.77.7705-.096.3852-.385.7704-.77.7704Z"/>
  <path fill="#EDE5DA" d="M78.0745 90.4255c-.0963-5.3-4.4301-9.6364-9.8234-9.6364h-.0963c-5.3932 0-9.7271 4.4328-9.7271 9.8291 0 5.3964 4.4302 9.8288 9.8234 9.8288 2.9856 0 5.5859-1.3488 7.4157-3.3724 1.541-1.7346 2.4077-3.9509 2.4077-6.4564v-.1927Zm-9.8234 6.7454c-3.6597 0-6.6452-2.9872-6.6452-6.649 0-3.6619 2.9855-6.6491 6.6452-6.6491h.0963c3.6597 0 6.549 2.8909 6.6453 6.4563v.1928c0 1.6381-.5779 3.18-1.6372 4.3363-1.3484 1.4455-3.0819 2.3127-5.1044 2.3127Z"/>
  <path fill="#BCB9B3" d="M78.0745 90.4255h-3.1782c-.0963-3.5655-2.9855-6.4564-6.6452-6.4564h-.0963v-3.18h.0963c5.3932 0 9.7271 4.24 9.8234 9.6364Z"/>
  <path fill="#E4E0DA" d="M78.0747 90.5218c0 2.5055-.8668 4.7219-2.4077 6.4564l-2.4077-2.0236c1.0594-1.1564 1.6372-2.6982 1.6372-4.3364v-.1927h3.1782v.0963Z"/>
  <path fill="#EBE3D8" d="M83.2752 86.5709c.5851 0 1.0594-.4745 1.0594-1.06 0-.5854-.4743-1.06-1.0594-1.06s-1.0594.4746-1.0594 1.06c0 .5855.4743 1.06 1.0594 1.06ZM100.611 90.7137H86.6459c-.3852 0-.7704-.289-.7704-.7705 0-.3852.2889-.7705.7704-.7705h13.9651c.385 0 .77.289.77.7705-.096.3852-.385.7705-.77.7705Z"/>
  <path fill="#BAB6AF" d="M83.2752 91.0037c.5851 0 1.0594-.4746 1.0594-1.06 0-.5855-.4743-1.06-1.0594-1.06s-1.0594.4745-1.0594 1.06c0 .5854.4743 1.06 1.0594 1.06Z"/>
  <path fill="#EBE3D8" d="M100.611 95.1464H86.6459c-.3852 0-.7704-.2889-.7704-.7705 0-.3852.2889-.7704.7704-.7704h13.9651c.385 0 .77.2889.77.7704-.096.3853-.385.7705-.77.7705Z"/>
  <path fill="#BCB9B3" d="M83.2752 95.4363c.5851 0 1.0594-.4745 1.0594-1.06 0-.5854-.4743-1.06-1.0594-1.06s-1.0594.4746-1.0594 1.06c0 .5855.4743 1.06 1.0594 1.06ZM58.8125 57.8545h42.5685V40.6054l-6.742 3.3727-3.5634 2.5055-6.3563-.0964-5.5858 2.8909-4.8154.6746-1.7336 1.9273-5.008 3.18-4.9117.8672-3.8523 1.9273Z"/>
  <path fill="#EDE5DA" d="M58.8125 57.8546h42.5685V44.7491l-6.742 2.5055-3.5634 1.9273-6.3563-.0964-5.5858 2.2164-4.8154.5782-1.7336 1.349-5.008 2.5055-4.9117.6745-3.8523 1.4455Z"/>
  <path fill="#D9D2C7" d="M58.8125 57.8545h42.5685v-7.42L94.639 51.88l-3.5634 1.06h-6.3563l-5.5858 1.1564-4.8154.3854-1.7336.7709-5.008 1.3491-4.9117.3855-3.8523.8672Z"/>
  <defs>
    <linearGradient id="paint0_linear_3533_6761" x1="57.7077" x2="57.7077" y1="40.2234" y2="130.491" gradientUnits="userSpaceOnUse">
      <stop stop-color="#FDFEFF"/>
      <stop offset=".9964" stop-color="#F5F2EC"/>
    </linearGradient>
    <linearGradient id="paint1_linear_3533_6761" x1="102.898" x2="102.898" y1="37.1543" y2="126.822" gradientUnits="userSpaceOnUse">
      <stop stop-color="#FDFEFF"/>
      <stop offset=".9964" stop-color="#F5F2EC"/>
    </linearGradient>
    <linearGradient id="paint2_linear_3533_6761" x1="80.2289" x2="80.2289" y1="34.1763" y2="110.494" gradientUnits="userSpaceOnUse">
      <stop stop-color="#FDFEFF"/>
      <stop offset=".9964" stop-color="#F5F2EC"/>
    </linearGradient>
    <filter id="filter0_d_3533_6761" width="107.465" height="119.307" x="4" y="33.2429" color-interpolation-filters="sRGB" filterUnits="userSpaceOnUse">
      <feFlood flood-opacity="0" result="BackgroundImageFix"/>
      <feColorMatrix in="SourceAlpha" result="hardAlpha" values="0 0 0 0 0 0 0 0 0 0 0 0 0 0 0 0 0 0 127 0"/>
      <feOffset dy="7"/>
      <feGaussianBlur stdDeviation="8"/>
      <feColorMatrix values="0 0 0 0 0.576471 0 0 0 0 0.501961 0 0 0 0 0.396078 0 0 0 0.37 0"/>
      <feBlend in2="BackgroundImageFix" result="effect1_dropShadow_3533_6761"/>
      <feBlend in="SourceGraphic" in2="effect1_dropShadow_3533_6761" result="shape"/>
    </filter>
    <filter id="filter1_d_3533_6761" width="106.156" height="118.727" x="49.8438" y="30.1604" color-interpolation-filters="sRGB" filterUnits="userSpaceOnUse">
      <feFlood flood-opacity="0" result="BackgroundImageFix"/>
      <feColorMatrix in="SourceAlpha" result="hardAlpha" values="0 0 0 0 0 0 0 0 0 0 0 0 0 0 0 0 0 0 127 0"/>
      <feOffset dy="7"/>
      <feGaussianBlur stdDeviation="8"/>
      <feColorMatrix values="0 0 0 0 0.576471 0 0 0 0 0.501961 0 0 0 0 0.396078 0 0 0 0.37 0"/>
      <feBlend in2="BackgroundImageFix" result="effect1_dropShadow_3533_6761"/>
      <feBlend in="SourceGraphic" in2="effect1_dropShadow_3533_6761" result="shape"/>
    </filter>
    <filter id="filter2_d_3533_6761" width="96.4971" height="117.815" x="31.9976" y="20.8837" color-interpolation-filters="sRGB" filterUnits="userSpaceOnUse">
      <feFlood flood-opacity="0" result="BackgroundImageFix"/>
      <feColorMatrix in="SourceAlpha" result="hardAlpha" values="0 0 0 0 0 0 0 0 0 0 0 0 0 0 0 0 0 0 127 0"/>
      <feOffset dy="7"/>
      <feGaussianBlur stdDeviation="11"/>
      <feColorMatrix values="0 0 0 0 0.576471 0 0 0 0 0.501961 0 0 0 0 0.396078 0 0 0 0.37 0"/>
      <feBlend in2="BackgroundImageFix" result="effect1_dropShadow_3533_6761"/>
      <feBlend in="SourceGraphic" in2="effect1_dropShadow_3533_6761" result="shape"/>
    </filter>
  </defs>
</svg>