<svg width="230" height="160" viewBox="0 0 230 160" fill="none" xmlns="http://www.w3.org/2000/svg">
<path d="M65.4019 50.9945C67.4231 50.9945 69.0616 49.3551 69.0616 47.3327C69.0616 45.3104 67.4231 43.6709 65.4019 43.6709C63.3807 43.6709 61.7422 45.3104 61.7422 47.3327C61.7422 49.3551 63.3807 50.9945 65.4019 50.9945Z" fill="#5C5C5C"/>
<path d="M165.562 62.1728C167.583 62.1728 169.222 60.5333 169.222 58.5109C169.222 56.4886 167.583 54.8491 165.562 54.8491C163.541 54.8491 161.902 56.4886 161.902 58.5109C161.902 60.5333 163.541 62.1728 165.562 62.1728Z" fill="#2A2E37"/>
<path d="M72.8177 38.5636C73.6155 38.5636 74.2623 37.9165 74.2623 37.1182C74.2623 36.3199 73.6155 35.6727 72.8177 35.6727C72.0198 35.6727 71.373 36.3199 71.373 37.1182C71.373 37.9165 72.0198 38.5636 72.8177 38.5636Z" fill="#5C5C5C"/>
<path d="M161.324 46.6582C162.175 46.6582 162.865 45.9679 162.865 45.1164C162.865 44.2649 162.175 43.5746 161.324 43.5746C160.473 43.5746 159.783 44.2649 159.783 45.1164C159.783 45.9679 160.473 46.6582 161.324 46.6582Z" fill="#5C5C5C"/>
<path d="M114.712 133C143.966 133 167.681 109.271 167.681 80C167.681 50.7289 143.966 27 114.712 27C85.4574 27 61.7422 50.7289 61.7422 80C61.7422 109.271 85.4574 133 114.712 133Z" fill="#242424"/>
<g filter="url(#filter0_d_3533_6763)">
<path d="M129.543 110.355L83.5079 128.953C82.7374 129.242 81.8707 128.856 81.5817 128.182L55.0971 62.3655C54.8081 61.5946 55.1934 60.7273 55.8675 60.4382L101.903 41.84C102.673 41.5509 103.54 41.9364 103.829 42.6109L130.314 108.331C130.699 109.198 130.314 110.065 129.543 110.355Z" fill="#353535"/>
</g>
<path d="M109.222 71.4237L70.6988 86.9383C70.3136 87.131 69.9283 86.9383 69.7357 86.5528C69.5431 86.1674 69.7357 85.7819 70.121 85.5892L108.548 70.0746C108.933 69.8819 109.318 70.0746 109.511 70.4601C109.703 70.8455 109.511 71.231 109.222 71.4237Z" fill="#777777"/>
<path d="M110.667 75.1818L72.2398 90.6963C71.8546 90.8891 71.4694 90.6963 71.2767 90.3109C71.0841 89.9254 71.2767 89.54 71.662 89.3472L110.089 73.8327C110.474 73.64 110.859 73.8327 111.052 74.2181C111.245 74.6036 111.052 74.9891 110.667 75.1818Z" fill="#777777"/>
<path d="M112.208 78.8437L73.7808 94.4546C73.3956 94.6474 73.0104 94.4546 72.8178 94.0692C72.6251 93.6837 72.8178 93.2983 73.203 93.1055L111.63 77.591C112.015 77.3983 112.4 77.591 112.593 77.9764C112.786 78.2655 112.593 78.7474 112.208 78.8437Z" fill="#777777"/>
<path d="M89.768 92.3346L75.3218 98.2128C74.9366 98.4055 74.5514 98.2128 74.3588 97.8273C74.1662 97.4419 74.3588 97.0564 74.744 96.8637L89.1902 90.9855C89.5754 90.7928 89.9606 90.9855 90.1533 91.371C90.2496 91.7564 90.1533 92.1419 89.768 92.3346Z" fill="#777777"/>
<path d="M117.215 88.3837L118.467 91.5637C118.66 92.1418 118.467 92.8164 117.89 93.0091L79.848 108.427C79.2701 108.62 78.596 108.427 78.4033 107.849L77.1513 104.573C76.9587 103.995 77.1513 103.32 77.7292 103.127L115.771 87.8055C116.349 87.6128 116.926 87.9019 117.215 88.3837Z" fill="#5C5C5C"/>
<path d="M120.201 95.7073L121.453 98.8873C121.646 99.4655 121.453 100.14 120.876 100.333L82.8339 115.751C82.2561 115.944 81.5819 115.751 81.3893 115.173L80.041 111.896C79.8484 111.318 80.041 110.644 80.6188 110.451L118.66 95.1291C119.238 94.9364 119.912 95.2255 120.201 95.7073Z" fill="#777777"/>
<path d="M123.09 103.031L124.342 106.211C124.535 106.789 124.342 107.464 123.765 107.656L85.723 123.075C85.1451 123.267 84.471 123.075 84.2783 122.496L83.0263 119.316C82.8337 118.738 83.0263 118.064 83.6042 117.871L121.646 102.549C122.224 102.26 122.898 102.549 123.09 103.031Z" fill="#5C5C5C"/>
<path d="M81.6778 101.585L83.7966 106.885L79.848 108.427C79.2701 108.62 78.596 108.427 78.4033 107.849L77.1513 104.573C76.9587 103.995 77.1513 103.32 77.7292 103.127L81.6778 101.585Z" fill="#F5F2EC"/>
<path d="M80.715 110.451L92.272 105.729L94.3907 111.029L82.8338 115.751C82.256 115.944 81.5818 115.751 81.3892 115.173L80.0409 111.896C79.8483 111.415 80.1372 110.74 80.715 110.451Z" fill="#5C5C5C"/>
<path d="M83.6042 117.775L85.2414 117.1L87.3602 122.4L85.723 123.075C85.1451 123.267 84.471 123.075 84.2783 122.496L83.0263 119.316C82.8337 118.738 83.0263 118.064 83.6042 117.775Z" fill="#5C5C5C"/>
<path d="M84.182 68.1473C84.0857 62.8473 79.7518 58.511 74.3586 58.511H74.2623C68.869 58.511 64.5352 62.9437 64.5352 68.3401C64.6315 73.7364 69.0616 78.0728 74.4549 78.0728C77.4404 78.0728 80.0407 76.7237 81.8706 74.7001C83.4115 72.9655 84.2783 70.7492 84.2783 68.2437C84.182 68.2437 84.182 68.2437 84.182 68.1473ZM74.4549 74.9892C70.7952 74.9892 67.8096 72.0019 67.8096 68.3401C67.8096 64.6783 70.7952 61.691 74.4549 61.691H74.5512C78.2109 61.691 81.1001 64.5819 81.1964 68.1473C81.1964 68.2437 81.1964 68.2437 81.1964 68.3401C81.1964 69.9783 80.6186 71.5201 79.5592 72.6764C78.2109 74.1219 76.4773 74.9892 74.4549 74.9892Z" fill="#777777"/>
<path d="M84.1818 68.1473H81.0036C81.0036 64.5819 78.0181 61.691 74.4547 61.691H74.3584V58.511H74.4547C79.7516 58.511 84.0855 62.8473 84.1818 68.1473Z" fill="#F5F2EC"/>
<g filter="url(#filter1_d_3533_6763)">
<path d="M148.323 125.291L101.806 107.945C101.036 107.656 100.651 106.789 100.94 106.018L125.594 39.6237C125.883 38.8527 126.75 38.4673 127.521 38.7564L174.037 56.0055C174.808 56.2946 175.193 57.1618 174.904 57.9327L150.249 124.424C149.96 125.195 149.094 125.58 148.323 125.291Z" fill="#353535"/>
</g>
<path opacity="0.4" d="M142.159 68.6291L138.403 67.1837L141.485 58.6073L145.241 59.9564L142.159 68.6291Z" fill="#5C5C5C"/>
<path d="M147.263 70.46L143.411 69.0145L148.13 55.9091L151.886 57.3545L147.263 70.46Z" fill="#777777"/>
<path d="M157.376 74.0254L153.62 72.6763L159.784 55.4272L163.636 56.7763L157.376 74.0254Z" fill="#777777"/>
<path opacity="0.4" d="M162.192 75.76L158.436 74.4109L160.073 69.6891L163.925 71.1345L162.192 75.76Z" fill="#5C5C5C"/>
<path d="M159.495 82.7946L120.586 68.34C120.201 68.2436 120.008 67.7618 120.105 67.3764C120.201 66.9909 120.682 66.7982 121.068 66.8946L159.976 81.3491C160.361 81.4455 160.554 81.9273 160.458 82.3127C160.265 82.6982 159.88 82.8909 159.495 82.7946Z" fill="#777777"/>
<path d="M158.05 86.5527L119.142 72.0982C118.757 72.0018 118.564 71.52 118.66 71.1345C118.757 70.7491 119.238 70.5564 119.623 70.6527L158.532 85.1073C158.917 85.2036 159.11 85.6855 159.013 86.0709C158.917 86.4564 158.435 86.7455 158.05 86.5527Z" fill="#777777"/>
<path d="M156.702 90.3109L117.793 75.8564C117.408 75.76 117.215 75.2782 117.312 74.8927C117.408 74.5073 117.889 74.3145 118.275 74.4109L157.183 88.8655C157.568 88.9618 157.761 89.4436 157.665 89.8291C157.472 90.3109 157.087 90.5036 156.702 90.3109Z" fill="#777777"/>
<path d="M131.084 85.1073L116.446 79.711C116.06 79.6146 115.868 79.1328 115.964 78.7473C116.06 78.3619 116.542 78.1692 116.927 78.2655L131.566 83.6619C131.951 83.7582 132.144 84.2401 132.047 84.6255C131.855 85.011 131.47 85.2037 131.084 85.1073Z" fill="black"/>
<path d="M154.005 100.718L152.85 103.995C152.657 104.573 151.983 104.862 151.405 104.669L143.123 101.585L112.882 90.3109C112.304 90.1182 112.015 89.4437 112.208 88.8655L113.364 85.5891C113.556 85.0109 114.23 84.7218 114.808 84.9146L144.856 96.0927L153.235 99.1764C153.909 99.5618 154.198 100.14 154.005 100.718Z" fill="#777777"/>
<path d="M151.213 108.138L150.057 111.415C149.865 111.993 149.19 112.282 148.613 112.089L145.82 111.029L110.186 97.8273C109.608 97.6346 109.319 96.96 109.512 96.3818L110.667 93.1055C110.86 92.5273 111.534 92.2382 112.112 92.4309L147.842 105.729L150.539 106.789C151.117 106.982 151.406 107.56 151.213 108.138Z" fill="#777777"/>
<path d="M148.516 115.558L147.36 118.835C147.167 119.413 146.493 119.702 145.915 119.509L131.662 114.209L107.488 105.247C106.911 105.055 106.622 104.38 106.814 103.802L107.97 100.526C108.163 99.9473 108.837 99.6582 109.415 99.851L134.166 109.006L147.841 114.113C148.419 114.306 148.708 114.98 148.516 115.558Z" fill="#777777"/>
<path d="M109.415 99.8509L134.166 109.005L131.662 114.113L107.488 105.151C106.911 104.958 106.622 104.284 106.814 103.705L107.97 100.429C108.163 99.9473 108.837 99.6582 109.415 99.8509Z" fill="#5C5C5C"/>
<path d="M112.208 88.9618L113.364 85.6854C113.556 85.1072 114.23 84.8181 114.808 85.0109L144.856 96.1891L142.93 101.489L112.882 90.3109C112.304 90.1181 112.015 89.54 112.208 88.9618Z" fill="#5C5C5C"/>
<path d="M147.842 105.729L145.82 111.029L110.186 97.8273C109.608 97.6346 109.319 96.96 109.512 96.3818L110.667 93.1055C110.86 92.5273 111.534 92.2382 112.112 92.4309L147.842 105.729Z" fill="#5C5C5C"/>
<path d="M122.031 87.7091L120.105 93.0091L112.882 90.3109C112.304 90.1182 112.015 89.4437 112.208 88.8655L113.364 85.5891C113.556 85.0109 114.23 84.7218 114.808 84.9146L122.031 87.7091Z" fill="black"/>
<path d="M112.112 92.431L119.335 95.1292L117.409 100.429L110.186 97.731C109.608 97.5382 109.319 96.8637 109.512 96.2855L110.667 93.0092C110.956 92.5273 111.534 92.2382 112.112 92.431Z" fill="black"/>
<path d="M109.415 99.8509L116.638 102.549L114.712 107.849L107.488 105.151C106.911 104.958 106.622 104.284 106.814 103.705L107.97 100.429C108.163 99.9473 108.837 99.6582 109.415 99.8509Z" fill="black"/>
<path d="M140.041 109.198H90.4422C89.6717 109.198 88.9976 108.524 88.9976 107.753V36.8291C88.9976 36.0582 89.6717 35.3837 90.4422 35.3837H140.041C140.811 35.3837 141.485 36.0582 141.485 36.8291V107.656C141.582 108.524 140.908 109.198 140.041 109.198Z" fill="#414141"/>
<path d="M135.707 62.6537H94.2944C93.9092 62.6537 93.5239 62.3648 93.5239 61.8833C93.5239 61.498 93.8128 61.1128 94.2944 61.1128H135.707C136.092 61.1128 136.477 61.4017 136.477 61.8833C136.477 62.2685 136.092 62.6537 135.707 62.6537Z" fill="#777777"/>
<path d="M135.707 66.6046H94.2944C93.9092 66.6046 93.5239 66.3157 93.5239 65.8342C93.5239 65.449 93.8128 65.0637 94.2944 65.0637H135.707C136.092 65.0637 136.477 65.3526 136.477 65.8342C136.477 66.3157 136.092 66.6046 135.707 66.6046Z" fill="#777777"/>
<path d="M135.707 70.6518H94.2944C93.9092 70.6518 93.5239 70.3628 93.5239 69.8813C93.5239 69.4961 93.8128 69.1108 94.2944 69.1108H135.707C136.092 69.1108 136.477 69.3998 136.477 69.8813C136.477 70.3628 136.092 70.6518 135.707 70.6518Z" fill="#777777"/>
<path d="M135.61 85.7809H121.645C121.26 85.7809 120.875 85.492 120.875 85.0105C120.875 84.6252 121.164 84.24 121.645 84.24H135.61C135.995 84.24 136.381 84.5289 136.381 85.0105C136.284 85.3957 135.995 85.7809 135.61 85.7809Z" fill="#777777"/>
<path d="M113.075 89.9254C112.978 84.6254 108.644 80.2891 103.251 80.2891H103.155C97.7616 80.2891 93.4277 84.7218 93.4277 90.1182C93.4277 95.5145 97.8579 99.9472 103.251 99.9472C106.237 99.9472 108.837 98.5982 110.667 96.5745C112.208 94.84 113.075 92.6236 113.075 90.1182C113.075 90.0218 113.075 89.9254 113.075 89.9254ZM103.251 96.6709C99.5914 96.6709 96.6059 93.6836 96.6059 90.0218C96.6059 86.36 99.5914 83.3727 103.251 83.3727H103.347C107.007 83.3727 109.896 86.2636 109.993 89.8291C109.993 89.9254 109.993 89.9254 109.993 90.0218C109.993 91.66 109.415 93.2018 108.355 94.3582C107.007 95.8036 105.274 96.6709 103.251 96.6709Z" fill="#777777"/>
<path d="M113.075 89.9254H109.897C109.801 86.36 106.911 83.4691 103.252 83.4691H103.155V80.2891H103.252C108.645 80.2891 112.979 84.5291 113.075 89.9254Z" fill="#F5F2EC"/>
<path d="M113.074 90.0219C113.074 92.5274 112.207 94.7437 110.666 96.4783L108.259 94.4546C109.318 93.2983 109.896 91.7564 109.896 90.1183C109.896 90.0219 109.896 90.0219 109.896 89.9255H113.074V90.0219Z" fill="#5C5C5C"/>
<path d="M118.275 86.0709C118.86 86.0709 119.335 85.5964 119.335 85.0109C119.335 84.4255 118.86 83.9509 118.275 83.9509C117.69 83.9509 117.216 84.4255 117.216 85.0109C117.216 85.5964 117.69 86.0709 118.275 86.0709Z" fill="#777777"/>
<path d="M135.61 90.2137H121.645C121.26 90.2137 120.875 89.9247 120.875 89.4432C120.875 89.058 121.164 88.6727 121.645 88.6727H135.61C135.995 88.6727 136.381 88.9617 136.381 89.4432C136.284 89.8284 135.995 90.2137 135.61 90.2137Z" fill="#777777"/>
<path d="M118.275 90.5037C118.86 90.5037 119.335 90.0291 119.335 89.4437C119.335 88.8582 118.86 88.3837 118.275 88.3837C117.69 88.3837 117.216 88.8582 117.216 89.4437C117.216 90.0291 117.69 90.5037 118.275 90.5037Z" fill="#5C5C5C"/>
<path d="M135.61 94.6464H121.645C121.26 94.6464 120.875 94.3575 120.875 93.8759C120.875 93.4907 121.164 93.1055 121.645 93.1055H135.61C135.995 93.1055 136.381 93.3944 136.381 93.8759C136.284 94.2612 135.995 94.6464 135.61 94.6464Z" fill="#777777"/>
<path d="M118.275 94.9364C118.86 94.9364 119.335 94.4618 119.335 93.8764C119.335 93.291 118.86 92.8164 118.275 92.8164C117.69 92.8164 117.216 93.291 117.216 93.8764C117.216 94.4618 117.69 94.9364 118.275 94.9364Z" fill="#F5F2EC"/>
<path d="M93.8125 57.3545H136.381V40.1054L129.639 43.4782L126.076 45.9836L119.719 45.8873L114.133 48.7782L109.318 49.4527L107.585 51.38L102.577 54.56L97.6648 55.4273L93.8125 57.3545Z" fill="#F5F2EC"/>
<path d="M93.8125 57.3546H136.381V44.2491L129.639 46.7546L126.076 48.6818L119.719 48.5855L114.133 50.8018L109.318 51.38L107.585 52.7291L102.577 55.2346L97.6648 55.9091L93.8125 57.3546Z" fill="#5C5C5C"/>
<path d="M93.8125 57.3545H136.381V49.9345L129.639 51.38L126.076 52.44H119.719L114.133 53.5964L109.318 53.9818L107.585 54.7527L102.577 56.1018L97.6648 56.4873L93.8125 57.3545Z" fill="#777777"/>
<defs>
<filter id="filter0_d_3533_6763" x="39" y="36.7429" width="107.465" height="119.307" filterUnits="userSpaceOnUse" color-interpolation-filters="sRGB">
<feFlood flood-opacity="0" result="BackgroundImageFix"/>
<feColorMatrix in="SourceAlpha" type="matrix" values="0 0 0 0 0 0 0 0 0 0 0 0 0 0 0 0 0 0 127 0" result="hardAlpha"/>
<feOffset dy="11"/>
<feGaussianBlur stdDeviation="8"/>
<feColorMatrix type="matrix" values="0 0 0 0 0 0 0 0 0 0 0 0 0 0 0 0 0 0 0.27 0"/>
<feBlend mode="normal" in2="BackgroundImageFix" result="effect1_dropShadow_3533_6763"/>
<feBlend mode="normal" in="SourceGraphic" in2="effect1_dropShadow_3533_6763" result="shape"/>
</filter>
<filter id="filter1_d_3533_6763" x="84.8438" y="33.6604" width="106.156" height="118.727" filterUnits="userSpaceOnUse" color-interpolation-filters="sRGB">
<feFlood flood-opacity="0" result="BackgroundImageFix"/>
<feColorMatrix in="SourceAlpha" type="matrix" values="0 0 0 0 0 0 0 0 0 0 0 0 0 0 0 0 0 0 127 0" result="hardAlpha"/>
<feOffset dy="11"/>
<feGaussianBlur stdDeviation="8"/>
<feColorMatrix type="matrix" values="0 0 0 0 0 0 0 0 0 0 0 0 0 0 0 0 0 0 0.27 0"/>
<feBlend mode="normal" in2="BackgroundImageFix" result="effect1_dropShadow_3533_6763"/>
<feBlend mode="normal" in="SourceGraphic" in2="effect1_dropShadow_3533_6763" result="shape"/>
</filter>
</defs>
</svg>
