<svg width="160" height="161" viewBox="0 0 160 161" fill="none" xmlns="http://www.w3.org/2000/svg">
<path d="M30.4019 51.4945C32.4231 51.4945 34.0616 49.8551 34.0616 47.8327C34.0616 45.8104 32.4231 44.1709 30.4019 44.1709C28.3807 44.1709 26.7422 45.8104 26.7422 47.8327C26.7422 49.8551 28.3807 51.4945 30.4019 51.4945Z" fill="#5C5C5C"/>
<path d="M130.562 62.6728C132.583 62.6728 134.222 61.0333 134.222 59.0109C134.222 56.9886 132.583 55.3491 130.562 55.3491C128.541 55.3491 126.902 56.9886 126.902 59.0109C126.902 61.0333 128.541 62.6728 130.562 62.6728Z" fill="#2A2E37"/>
<path d="M37.8177 39.0636C38.6155 39.0636 39.2623 38.4165 39.2623 37.6182C39.2623 36.8199 38.6155 36.1727 37.8177 36.1727C37.0198 36.1727 36.373 36.8199 36.373 37.6182C36.373 38.4165 37.0198 39.0636 37.8177 39.0636Z" fill="#5C5C5C"/>
<path d="M126.325 47.1582C127.176 47.1582 127.866 46.4679 127.866 45.6164C127.866 44.7649 127.176 44.0746 126.325 44.0746C125.474 44.0746 124.784 44.7649 124.784 45.6164C124.784 46.4679 125.474 47.1582 126.325 47.1582Z" fill="#5C5C5C"/>
<path d="M79.7115 133.5C108.966 133.5 132.681 109.771 132.681 80.5C132.681 51.2289 108.966 27.5 79.7115 27.5C50.4574 27.5 26.7422 51.2289 26.7422 80.5C26.7422 109.771 50.4574 133.5 79.7115 133.5Z" fill="#242424"/>
<g filter="url(#filter0_d_3533_6763)">
<path d="M94.5431 110.855L48.5079 129.453C47.7374 129.742 46.8707 129.356 46.5817 128.682L20.0971 62.8655C19.8081 62.0946 20.1934 61.2273 20.8675 60.9382L66.9027 42.34C67.6732 42.0509 68.5399 42.4364 68.8288 43.1109L95.3135 108.831C95.6987 109.698 95.3135 110.565 94.5431 110.855Z" fill="#353535"/>
</g>
<path d="M74.222 71.9237L35.6988 87.4383C35.3136 87.631 34.9283 87.4383 34.7357 87.0528C34.5431 86.6674 34.7357 86.2819 35.121 86.0892L73.5478 70.5746C73.933 70.3819 74.3183 70.5746 74.5109 70.9601C74.7035 71.3455 74.5109 71.731 74.222 71.9237Z" fill="#777777"/>
<path d="M75.6667 75.6818L37.2398 91.1963C36.8546 91.3891 36.4694 91.1963 36.2767 90.8109C36.0841 90.4254 36.2767 90.04 36.662 89.8472L75.0888 74.3327C75.474 74.14 75.8593 74.3327 76.0519 74.7181C76.2445 75.1036 76.0519 75.4891 75.6667 75.6818Z" fill="#777777"/>
<path d="M77.2077 79.3437L38.7808 94.9546C38.3956 95.1474 38.0104 94.9546 37.8178 94.5692C37.6251 94.1837 37.8178 93.7983 38.203 93.6055L76.6298 78.091C77.0151 77.8983 77.4003 78.091 77.5929 78.4764C77.7855 78.7655 77.5929 79.2474 77.2077 79.3437Z" fill="#777777"/>
<path d="M54.768 92.8346L40.3218 98.7128C39.9366 98.9055 39.5514 98.7128 39.3588 98.3273C39.1662 97.9419 39.3588 97.5564 39.744 97.3637L54.1902 91.4855C54.5754 91.2928 54.9606 91.4855 55.1533 91.871C55.2496 92.2564 55.1533 92.6419 54.768 92.8346Z" fill="#777777"/>
<path d="M82.2154 88.8837L83.4674 92.0637C83.66 92.6418 83.4674 93.3164 82.8896 93.5091L44.848 108.927C44.2701 109.12 43.596 108.927 43.4033 108.349L42.1513 105.073C41.9587 104.495 42.1513 103.82 42.7292 103.627L80.7708 88.3055C81.3486 88.1128 81.9265 88.4019 82.2154 88.8837Z" fill="#5C5C5C"/>
<path d="M85.2014 96.2073L86.4534 99.3873C86.646 99.9655 86.4534 100.64 85.8755 100.833L47.8339 116.251C47.2561 116.444 46.5819 116.251 46.3893 115.673L45.041 112.396C44.8484 111.818 45.041 111.144 45.6188 110.951L83.6604 95.6291C84.2383 95.4364 84.9124 95.7255 85.2014 96.2073Z" fill="#777777"/>
<path d="M88.0904 103.531L89.3424 106.711C89.535 107.289 89.3424 107.964 88.7646 108.156L50.723 123.575C50.1451 123.767 49.471 123.575 49.2783 122.996L48.0263 119.816C47.8337 119.238 48.0263 118.564 48.6042 118.371L86.6458 103.049C87.2236 102.76 87.8978 103.049 88.0904 103.531Z" fill="#5C5C5C"/>
<path d="M46.6778 102.085L48.7966 107.385L44.848 108.927C44.2701 109.12 43.596 108.927 43.4033 108.349L42.1513 105.073C41.9587 104.495 42.1513 103.82 42.7292 103.627L46.6778 102.085Z" fill="#F5F2EC"/>
<path d="M45.715 110.951L57.272 106.229L59.3907 111.529L47.8338 116.251C47.256 116.444 46.5818 116.251 46.3892 115.673L45.0409 112.396C44.8483 111.915 45.1372 111.24 45.715 110.951Z" fill="#5C5C5C"/>
<path d="M48.6042 118.275L50.2414 117.6L52.3602 122.9L50.723 123.575C50.1451 123.767 49.471 123.575 49.2783 122.996L48.0263 119.816C47.8337 119.238 48.0263 118.564 48.6042 118.275Z" fill="#5C5C5C"/>
<path d="M49.182 68.6473C49.0857 63.3473 44.7518 59.011 39.3586 59.011H39.2623C33.869 59.011 29.5352 63.4437 29.5352 68.8401C29.6315 74.2364 34.0616 78.5728 39.4549 78.5728C42.4404 78.5728 45.0407 77.2237 46.8706 75.2001C48.4115 73.4655 49.2783 71.2492 49.2783 68.7437C49.182 68.7437 49.182 68.7437 49.182 68.6473ZM39.4549 75.4892C35.7952 75.4892 32.8096 72.5019 32.8096 68.8401C32.8096 65.1783 35.7952 62.191 39.4549 62.191H39.5512C43.2109 62.191 46.1001 65.0819 46.1964 68.6473C46.1964 68.7437 46.1964 68.7437 46.1964 68.8401C46.1964 70.4783 45.6186 72.0201 44.5592 73.1764C43.2109 74.6219 41.4773 75.4892 39.4549 75.4892Z" fill="#777777"/>
<path d="M49.1818 68.6473H46.0036C46.0036 65.0819 43.0181 62.191 39.4547 62.191H39.3584V59.011H39.4547C44.7516 59.011 49.0855 63.3473 49.1818 68.6473Z" fill="#F5F2EC"/>
<g filter="url(#filter1_d_3533_6763)">
<path d="M113.323 125.791L66.8064 108.445C66.036 108.156 65.6508 107.289 65.9397 106.518L90.5945 40.1237C90.8834 39.3527 91.7502 38.9673 92.5207 39.2564L139.037 56.5055C139.808 56.7946 140.193 57.6618 139.904 58.4327L115.249 124.924C114.96 125.695 114.094 126.08 113.323 125.791Z" fill="#353535"/>
</g>
<path opacity="0.4" d="M107.159 69.1291L103.403 67.6837L106.485 59.1073L110.241 60.4564L107.159 69.1291Z" fill="#5C5C5C"/>
<path d="M112.264 70.96L108.412 69.5145L113.131 56.4091L116.887 57.8545L112.264 70.96Z" fill="#777777"/>
<path d="M122.376 74.5254L118.62 73.1763L124.784 55.9272L128.636 57.2763L122.376 74.5254Z" fill="#777777"/>
<path opacity="0.4" d="M127.192 76.26L123.436 74.9109L125.073 70.1891L128.925 71.6345L127.192 76.26Z" fill="#5C5C5C"/>
<path d="M124.495 83.2946L85.5866 68.84C85.2014 68.7436 85.0088 68.2618 85.1051 67.8764C85.2014 67.4909 85.683 67.2982 86.0682 67.3946L124.977 81.8491C125.362 81.9455 125.554 82.4273 125.458 82.8127C125.266 83.1982 124.88 83.3909 124.495 83.2946Z" fill="#777777"/>
<path d="M123.05 87.0527L84.1418 72.5982C83.7566 72.5018 83.564 72.02 83.6603 71.6345C83.7566 71.2491 84.2381 71.0564 84.6234 71.1527L123.532 85.6073C123.917 85.7036 124.11 86.1855 124.013 86.5709C123.917 86.9564 123.435 87.2455 123.05 87.0527Z" fill="#777777"/>
<path d="M121.702 90.8109L82.7937 76.3564C82.4084 76.26 82.2158 75.7782 82.3121 75.3927C82.4084 75.0073 82.89 74.8145 83.2752 74.9109L122.184 89.3655C122.569 89.4618 122.761 89.9436 122.665 90.3291C122.473 90.8109 122.087 91.0036 121.702 90.8109Z" fill="#777777"/>
<path d="M96.0843 85.6073L81.4455 80.211C81.0603 80.1146 80.8677 79.6328 80.964 79.2473C81.0603 78.8619 81.5418 78.6692 81.9271 78.7655L96.5659 84.1619C96.9511 84.2582 97.1437 84.7401 97.0474 85.1255C96.8548 85.511 96.4696 85.7037 96.0843 85.6073Z" fill="black"/>
<path d="M119.005 101.218L117.85 104.495C117.657 105.073 116.983 105.362 116.405 105.169L108.123 102.085L77.882 90.8109C77.3042 90.6182 77.0152 89.9437 77.2079 89.3655L78.3636 86.0891C78.5562 85.5109 79.2303 85.2218 79.8082 85.4146L109.856 96.5927L118.235 99.6764C118.909 100.062 119.198 100.64 119.005 101.218Z" fill="#777777"/>
<path d="M116.212 108.638L115.057 111.915C114.864 112.493 114.19 112.782 113.612 112.589L110.819 111.529L75.1852 98.3273C74.6074 98.1346 74.3185 97.46 74.5111 96.8818L75.6668 93.6055C75.8594 93.0273 76.5336 92.7382 77.1114 92.9309L112.842 106.229L115.538 107.289C116.116 107.482 116.405 108.06 116.212 108.638Z" fill="#777777"/>
<path d="M113.516 116.058L112.36 119.335C112.167 119.913 111.493 120.202 110.915 120.009L96.6617 114.709L72.4885 105.747C71.9106 105.555 71.6217 104.88 71.8143 104.302L72.97 101.026C73.1626 100.447 73.8368 100.158 74.4146 100.351L99.1658 109.506L112.841 114.613C113.419 114.806 113.708 115.48 113.516 116.058Z" fill="#777777"/>
<path d="M74.4146 100.351L99.1657 109.505L96.6617 114.613L72.4885 105.651C71.9106 105.458 71.6217 104.784 71.8143 104.205L72.97 100.929C73.1626 100.447 73.8368 100.158 74.4146 100.351Z" fill="#5C5C5C"/>
<path d="M77.2079 89.4618L78.3636 86.1854C78.5562 85.6072 79.2303 85.3181 79.8082 85.5109L109.856 96.6891L107.93 101.989L77.882 90.8109C77.3042 90.6181 77.0152 90.04 77.2079 89.4618Z" fill="#5C5C5C"/>
<path d="M112.842 106.229L110.819 111.529L75.1852 98.3273C74.6074 98.1346 74.3185 97.46 74.5111 96.8818L75.6668 93.6055C75.8594 93.0273 76.5336 92.7382 77.1114 92.9309L112.842 106.229Z" fill="#5C5C5C"/>
<path d="M87.0313 88.2091L85.1051 93.5091L77.882 90.8109C77.3042 90.6182 77.0152 89.9437 77.2079 89.3655L78.3636 86.0891C78.5562 85.5109 79.2303 85.2218 79.8082 85.4146L87.0313 88.2091Z" fill="black"/>
<path d="M77.1114 92.931L84.3345 95.6292L82.4083 100.929L75.1852 98.231C74.6074 98.0382 74.3185 97.3637 74.5111 96.7855L75.6668 93.5092C75.9557 93.0273 76.5336 92.7382 77.1114 92.931Z" fill="black"/>
<path d="M74.4146 100.351L81.6377 103.049L79.7116 108.349L72.4885 105.651C71.9106 105.458 71.6217 104.784 71.8143 104.205L72.97 100.929C73.1626 100.447 73.8368 100.158 74.4146 100.351Z" fill="black"/>
<path d="M105.041 109.698H55.4422C54.6717 109.698 53.9976 109.024 53.9976 108.253V37.3291C53.9976 36.5582 54.6717 35.8837 55.4422 35.8837H105.041C105.811 35.8837 106.485 36.5582 106.485 37.3291V108.156C106.582 109.024 105.908 109.698 105.041 109.698Z" fill="#414141"/>
<path d="M100.707 63.1537H59.2944C58.9092 63.1537 58.5239 62.8648 58.5239 62.3833C58.5239 61.998 58.8128 61.6128 59.2944 61.6128H100.707C101.092 61.6128 101.477 61.9017 101.477 62.3833C101.477 62.7685 101.092 63.1537 100.707 63.1537Z" fill="#777777"/>
<path d="M100.707 67.1046H59.2944C58.9092 67.1046 58.5239 66.8157 58.5239 66.3342C58.5239 65.949 58.8128 65.5637 59.2944 65.5637H100.707C101.092 65.5637 101.477 65.8526 101.477 66.3342C101.477 66.8157 101.092 67.1046 100.707 67.1046Z" fill="#777777"/>
<path d="M100.707 71.1518H59.2944C58.9092 71.1518 58.5239 70.8628 58.5239 70.3813C58.5239 69.9961 58.8128 69.6108 59.2944 69.6108H100.707C101.092 69.6108 101.477 69.8998 101.477 70.3813C101.477 70.8628 101.092 71.1518 100.707 71.1518Z" fill="#777777"/>
<path d="M100.611 86.2809H86.6459C86.2607 86.2809 85.8755 85.992 85.8755 85.5105C85.8755 85.1252 86.1644 84.74 86.6459 84.74H100.611C100.996 84.74 101.381 85.0289 101.381 85.5105C101.285 85.8957 100.996 86.2809 100.611 86.2809Z" fill="#777777"/>
<path d="M78.0745 90.4254C77.9782 85.1254 73.6444 80.7891 68.2511 80.7891H68.1548C62.7616 80.7891 58.4277 85.2218 58.4277 90.6182C58.4277 96.0145 62.8579 100.447 68.2511 100.447C71.2367 100.447 73.837 99.0982 75.6668 97.0745C77.2078 95.34 78.0745 93.1236 78.0745 90.6182C78.0745 90.5218 78.0745 90.4254 78.0745 90.4254ZM68.2511 97.1709C64.5914 97.1709 61.6059 94.1836 61.6059 90.5218C61.6059 86.86 64.5914 83.8727 68.2511 83.8727H68.3474C72.0071 83.8727 74.8964 86.7636 74.9927 90.3291C74.9927 90.4254 74.9927 90.4254 74.9927 90.5218C74.9927 92.16 74.4148 93.7018 73.3555 94.8582C72.0071 96.3036 70.2736 97.1709 68.2511 97.1709Z" fill="#777777"/>
<path d="M78.0745 90.4254H74.8963C74.8 86.86 71.9108 83.9691 68.2511 83.9691H68.1548V80.7891H68.2511C73.6443 80.7891 77.9782 85.0291 78.0745 90.4254Z" fill="#F5F2EC"/>
<path d="M78.0747 90.5219C78.0747 93.0274 77.2079 95.2437 75.667 96.9783L73.2593 94.9546C74.3187 93.7983 74.8965 92.2564 74.8965 90.6183C74.8965 90.5219 74.8965 90.5219 74.8965 90.4255H78.0747V90.5219Z" fill="#5C5C5C"/>
<path d="M83.2752 86.5709C83.8603 86.5709 84.3346 86.0964 84.3346 85.5109C84.3346 84.9255 83.8603 84.4509 83.2752 84.4509C82.6901 84.4509 82.2158 84.9255 82.2158 85.5109C82.2158 86.0964 82.6901 86.5709 83.2752 86.5709Z" fill="#777777"/>
<path d="M100.611 90.7137H86.6459C86.2607 90.7137 85.8755 90.4247 85.8755 89.9432C85.8755 89.558 86.1644 89.1727 86.6459 89.1727H100.611C100.996 89.1727 101.381 89.4617 101.381 89.9432C101.285 90.3284 100.996 90.7137 100.611 90.7137Z" fill="#777777"/>
<path d="M83.2752 91.0037C83.8603 91.0037 84.3346 90.5291 84.3346 89.9437C84.3346 89.3582 83.8603 88.8837 83.2752 88.8837C82.6901 88.8837 82.2158 89.3582 82.2158 89.9437C82.2158 90.5291 82.6901 91.0037 83.2752 91.0037Z" fill="#5C5C5C"/>
<path d="M100.611 95.1464H86.6459C86.2607 95.1464 85.8755 94.8575 85.8755 94.3759C85.8755 93.9907 86.1644 93.6055 86.6459 93.6055H100.611C100.996 93.6055 101.381 93.8944 101.381 94.3759C101.285 94.7612 100.996 95.1464 100.611 95.1464Z" fill="#777777"/>
<path d="M83.2752 95.4364C83.8603 95.4364 84.3346 94.9618 84.3346 94.3764C84.3346 93.791 83.8603 93.3164 83.2752 93.3164C82.6901 93.3164 82.2158 93.791 82.2158 94.3764C82.2158 94.9618 82.6901 95.4364 83.2752 95.4364Z" fill="#F5F2EC"/>
<path d="M58.8125 57.8545H101.381V40.6054L94.639 43.9782L91.0756 46.4836L84.7193 46.3873L79.1335 49.2782L74.3181 49.9527L72.5845 51.88L67.5765 55.06L62.6648 55.9273L58.8125 57.8545Z" fill="#F5F2EC"/>
<path d="M58.8125 57.8546H101.381V44.7491L94.639 47.2546L91.0756 49.1818L84.7193 49.0855L79.1335 51.3018L74.3181 51.88L72.5845 53.2291L67.5765 55.7346L62.6648 56.4091L58.8125 57.8546Z" fill="#5C5C5C"/>
<path d="M58.8125 57.8545H101.381V50.4345L94.639 51.88L91.0756 52.94H84.7193L79.1335 54.0964L74.3181 54.4818L72.5845 55.2527L67.5765 56.6018L62.6648 56.9873L58.8125 57.8545Z" fill="#777777"/>
<defs>
<filter id="filter0_d_3533_6763" x="4" y="37.2429" width="107.465" height="119.307" filterUnits="userSpaceOnUse" color-interpolation-filters="sRGB">
<feFlood flood-opacity="0" result="BackgroundImageFix"/>
<feColorMatrix in="SourceAlpha" type="matrix" values="0 0 0 0 0 0 0 0 0 0 0 0 0 0 0 0 0 0 127 0" result="hardAlpha"/>
<feOffset dy="11"/>
<feGaussianBlur stdDeviation="8"/>
<feColorMatrix type="matrix" values="0 0 0 0 0 0 0 0 0 0 0 0 0 0 0 0 0 0 0.27 0"/>
<feBlend mode="normal" in2="BackgroundImageFix" result="effect1_dropShadow_3533_6763"/>
<feBlend mode="normal" in="SourceGraphic" in2="effect1_dropShadow_3533_6763" result="shape"/>
</filter>
<filter id="filter1_d_3533_6763" x="49.8438" y="34.1604" width="106.156" height="118.727" filterUnits="userSpaceOnUse" color-interpolation-filters="sRGB">
<feFlood flood-opacity="0" result="BackgroundImageFix"/>
<feColorMatrix in="SourceAlpha" type="matrix" values="0 0 0 0 0 0 0 0 0 0 0 0 0 0 0 0 0 0 127 0" result="hardAlpha"/>
<feOffset dy="11"/>
<feGaussianBlur stdDeviation="8"/>
<feColorMatrix type="matrix" values="0 0 0 0 0 0 0 0 0 0 0 0 0 0 0 0 0 0 0.27 0"/>
<feBlend mode="normal" in2="BackgroundImageFix" result="effect1_dropShadow_3533_6763"/>
<feBlend mode="normal" in="SourceGraphic" in2="effect1_dropShadow_3533_6763" result="shape"/>
</filter>
</defs>
</svg>
