<svg width="20" height="20" viewBox="0 0 20 20" fill="none" xmlns="http://www.w3.org/2000/svg">
<path d="M3 5.25C3 4.00736 4.00736 3 5.25 3H7.11538C7.5296 3 7.86538 3.33579 7.86538 3.75C7.86538 4.16421 7.5296 4.5 7.11538 4.5H5.25C4.83579 4.5 4.5 4.83579 4.5 5.25V7.11538C4.5 7.5296 4.16421 7.86538 3.75 7.86538C3.33579 7.86538 3 7.5296 3 7.11538V5.25ZM12.1346 3.75C12.1346 3.33579 12.4704 3 12.8846 3H14.75C15.9926 3 17 4.00736 17 5.25V7.11538C17 7.5296 16.6642 7.86538 16.25 7.86538C15.8358 7.86538 15.5 7.5296 15.5 7.11538V5.25C15.5 4.83579 15.1642 4.5 14.75 4.5H12.8846C12.4704 4.5 12.1346 4.16421 12.1346 3.75ZM3.75 12.1346C4.16421 12.1346 4.5 12.4704 4.5 12.8846V14.75C4.5 15.1642 4.83579 15.5 5.25 15.5H7.11538C7.5296 15.5 7.86538 15.8358 7.86538 16.25C7.86538 16.6642 7.5296 17 7.11538 17H5.25C4.00736 17 3 15.9926 3 14.75V12.8846C3 12.4704 3.33579 12.1346 3.75 12.1346ZM16.25 12.1346C16.6642 12.1346 17 12.4704 17 12.8846V14.75C17 15.9926 15.9926 17 14.75 17H12.8846C12.4704 17 12.1346 16.6642 12.1346 16.25C12.1346 15.8358 12.4704 15.5 12.8846 15.5H14.75C15.1642 15.5 15.5 15.1642 15.5 14.75V12.8846C15.5 12.4704 15.8358 12.1346 16.25 12.1346Z" fill="#242424"/>
<path d="M8 10C9.10457 10 10 9.10457 10 8C10 6.89543 9.10457 6 8 6C6.89543 6 6 6.89543 6 8C6 9.10457 6.89543 10 8 10ZM12.5 10C13.3284 10 14 9.32843 14 8.5C14 7.67157 13.3284 7 12.5 7C11.6716 7 11 7.67157 11 8.5C11 9.32843 11.6716 10 12.5 10ZM6.25 11C5.55964 11 5 11.5596 5 12.25C5 12.25 5 14.5 8 14.5C10.378 14.5 10.871 13.0863 10.9733 12.5C11 12.3467 11 12.25 11 12.25C11 11.5596 10.4404 11 9.75 11H6.25ZM11.9961 12.6001C11.9939 12.6405 11.99 12.688 11.9836 12.7418C11.9709 12.8488 11.9476 12.9832 11.9052 13.1358C11.8433 13.3588 11.7389 13.6257 11.5645 13.901C11.8288 13.9635 12.1378 14 12.499 14C14.999 14 14.999 12.25 14.999 12.25C14.999 11.5596 14.4394 11 13.749 11H11.6201C11.8595 11.3575 11.999 11.7875 11.999 12.25V12.5L11.9961 12.6001Z" fill="#242424"/>
</svg>
