<svg width="48" height="48" viewBox="0 0 48 48" fill="none" xmlns="http://www.w3.org/2000/svg">
<path d="M34.0806 13.3C34.0806 10.9858 31.9372 8.90017 29.0183 8.9H18.9817C16.0628 8.90017 13.9194 10.9858 13.9194 13.3V35.7C13.9194 38.0142 16.0628 40.0998 18.9817 40.1H29.0183C31.9372 40.0998 34.0806 38.0142 34.0806 35.7V13.3ZM36.5 35.7C36.5 39.5712 33.0273 42.4998 29.0183 42.5H18.9817C14.9727 42.4998 11.5 39.5712 11.5 35.7V13.3C11.5 9.42878 14.9727 6.50017 18.9817 6.5H29.0183C33.0273 6.50017 36.5 9.42878 36.5 13.3V35.7Z" fill="#212121"/>
<path d="M17.5484 18.1C17.5484 14.5654 20.4369 11.7 24 11.7C27.5631 11.7 30.4516 14.5654 30.4516 18.1C30.4516 21.6346 27.5631 24.5 24 24.5C20.4369 24.5 17.5484 21.6346 17.5484 18.1ZM24 14.26C21.8621 14.26 20.129 15.9792 20.129 18.1C20.129 20.2208 21.8621 21.94 24 21.94C26.1379 21.94 27.871 20.2208 27.871 18.1C27.871 15.9792 26.1379 14.26 24 14.26Z" fill="#212121"/>
<path d="M17.5484 18.1C17.5484 14.5654 20.4369 11.7 24 11.7C27.5631 11.7 30.4516 14.5654 30.4516 18.1C30.4516 21.6346 27.5631 24.5 24 24.5C20.4369 24.5 17.5484 21.6346 17.5484 18.1ZM24 14.26C21.8621 14.26 20.129 15.9792 20.129 18.1C20.129 20.2208 21.8621 21.94 24 21.94C26.1379 21.94 27.871 20.2208 27.871 18.1C27.871 15.9792 26.1379 14.26 24 14.26Z" fill="#212121"/>
<path d="M16.7419 30.9C16.7419 30.0163 17.4641 29.3 18.3548 29.3C19.2456 29.3 19.9677 30.0163 19.9677 30.9C19.9677 31.7837 19.2456 32.5 18.3548 32.5C17.4641 32.5 16.7419 31.7837 16.7419 30.9Z" fill="#212121"/>
<path d="M22.3871 30.9C22.3871 30.0163 23.1092 29.3 24 29.3C24.8908 29.3 25.6129 30.0163 25.6129 30.9C25.6129 31.7837 24.8908 32.5 24 32.5C23.1092 32.5 22.3871 31.7837 22.3871 30.9Z" fill="#212121"/>
<path d="M28.0323 30.9C28.0323 30.0163 28.7544 29.3 29.6452 29.3C30.5359 29.3 31.2581 30.0163 31.2581 30.9C31.2581 31.7837 30.5359 32.5 29.6452 32.5C28.7544 32.5 28.0323 31.7837 28.0323 30.9Z" fill="#212121"/>
</svg>
