<svg width="230" height="160" viewBox="0 0 230 160" fill="none" xmlns="http://www.w3.org/2000/svg">
<path d="M110.826 136.96C138.825 136.96 161.524 114.259 161.524 86.1579C161.524 58.0568 138.825 35.3558 110.826 35.3558C82.8266 35.3558 60.1273 58.0568 60.1273 86.1579C60.1273 114.259 82.8266 136.96 110.826 136.96Z" fill="#EBEBEB"/>
<g filter="url(#filter0_d_4532_353927)">
<path d="M121.113 66.5454C121.113 73.9851 115.097 80.0015 107.593 80.0015C107.464 80.0015 106.364 80.0015 98.2781 80.0015C92.6503 80.0015 83.6586 80.0015 69.2979 80.0015H62.4409C53.4493 80.1956 46.2689 73.0147 46.2689 64.3459C46.2689 55.6124 53.514 48.3668 62.635 48.8196C70.4623 24.3658 106.299 27.7945 109.34 53.0893C116.067 53.9303 121.113 59.6233 121.113 66.5454Z" fill="url(#paint0_linear_4532_353927)"/>
</g>
<path d="M107.593 80.0015C115.032 80.0015 121.113 73.9851 121.113 66.5454C121.113 59.1058 115.032 53.0894 107.593 53.0894C100.154 53.0894 94.0734 59.1058 94.0734 66.5454C94.0734 73.9851 100.154 80.0015 107.593 80.0015Z" fill="url(#paint1_linear_4532_353927)"/>
<path d="M85.5346 80.1308C98.7956 80.1308 109.599 69.3918 109.599 56.1298C109.599 42.8678 98.7956 32.1288 85.5346 32.1288C72.2735 32.1288 61.4706 42.8678 61.4706 56.1298C61.4706 69.3918 72.2088 80.1308 85.5346 80.1308Z" fill="url(#paint2_linear_4532_353927)"/>
<g filter="url(#filter1_d_4532_353927)">
<path d="M192.67 101.683C192.67 109.853 186.063 116.461 177.821 116.461C177.679 116.461 176.472 116.461 167.591 116.461C161.41 116.461 151.535 116.461 135.763 116.461H128.232C118.357 116.674 110.47 108.788 110.47 99.2669C110.47 89.6751 118.428 81.7175 128.445 82.2148C137.041 55.3577 176.401 59.1234 179.74 86.9041C187.128 87.8278 192.67 94.0802 192.67 101.683Z" fill="url(#paint3_linear_4532_353927)"/>
</g>
<path d="M177.822 116.462C185.992 116.462 192.67 109.854 192.67 101.683C192.67 93.5122 185.992 86.9045 177.822 86.9045C169.651 86.9045 162.973 93.5122 162.973 101.683C162.973 109.854 169.651 116.462 177.822 116.462Z" fill="url(#paint4_linear_4532_353927)"/>
<path d="M153.595 116.604C168.159 116.604 180.024 104.809 180.024 90.2438C180.024 75.6784 168.159 63.884 153.595 63.884C139.031 63.884 127.166 75.6784 127.166 90.2438C127.166 104.809 138.96 116.604 153.595 116.604Z" fill="url(#paint5_linear_4532_353927)"/>
<g filter="url(#filter2_d_4532_353927)">
<path d="M109.599 118.337C109.599 122.987 105.839 126.747 101.149 126.747C101.068 126.747 100.38 126.747 95.3267 126.747C91.8093 126.747 86.1895 126.747 77.2141 126.747H72.9285C67.3087 126.868 62.821 122.38 62.821 116.962C62.821 111.504 67.3491 106.975 73.0498 107.258C77.9418 91.9747 100.34 94.1176 102.24 109.927C106.445 110.453 109.599 114.011 109.599 118.337Z" fill="url(#paint6_linear_4532_353927)"/>
</g>
<path d="M101.149 126.747C105.798 126.747 109.599 122.987 109.599 118.337C109.599 113.687 105.798 109.927 101.149 109.927C96.4992 109.927 92.6988 113.687 92.6988 118.337C92.6988 122.987 96.4992 126.747 101.149 126.747Z" fill="url(#paint7_linear_4532_353927)"/>
<path d="M87.362 126.828C95.6502 126.828 102.402 120.116 102.402 111.827C102.402 103.538 95.6502 96.8264 87.362 96.8264C79.0738 96.8264 72.322 103.538 72.322 111.827C72.322 120.116 79.0334 126.828 87.362 126.828Z" fill="url(#paint8_linear_4532_353927)"/>
<path d="M107.184 67.0962L100.589 72.4121C99.3591 73.3294 97.7534 72.6757 97.3774 71.1047L95.176 55.8528" fill="#D0C6B8"/>
<path d="M170.209 28.5476L165.972 32.4685L121.626 73.8118C119.606 75.7489 116.481 75.6666 114.397 73.8815L98.4654 59.2175L95.2697 56.2454L86.458 47.974C84.5703 46.1421 85.4317 42.8216 88.0243 42.4086L160.912 30.3579L170.209 28.5476Z" fill="url(#paint9_linear_4532_353927)"/>
<path d="M170.21 28.5478L165.972 32.4688L98.6144 58.9745L95.2228 56.0493L161.061 30.115L170.21 28.5478Z" fill="#D0C6B8"/>
<path d="M47.4209 111.811L44.5966 114.216C44.0691 114.632 43.3585 114.364 43.1755 113.681L42.0327 107.031" fill="#D0C6B8"/>
<path d="M74.5551 94.1979L72.7465 95.9639L53.8218 114.581C52.9601 115.453 51.5912 115.454 50.6582 114.697L43.5122 108.465L42.0784 107.202L38.1241 103.685C37.2763 102.905 37.6143 101.442 38.7443 101.231L70.5069 95.0995L74.5551 94.1979Z" fill="url(#paint10_linear_4532_353927)"/>
<path d="M74.5553 94.1979L72.7468 95.964L43.5747 108.357L42.0558 107.117L70.5694 94.9914L74.5553 94.1979Z" fill="#D0C6B8"/>
<path d="M102.443 122.315L97.2714 126.717C96.3055 127.479 95.0045 126.99 94.6693 125.739L92.5768 113.562" fill="#D0C6B8"/>
<path d="M152.126 90.0632L148.814 93.2969L114.162 127.386C112.584 128.982 110.078 128.984 108.37 127.598L95.2856 116.188L92.6604 113.875L85.4201 107.435C83.8678 106.008 84.4867 103.328 86.5556 102.941L144.713 91.7143L152.126 90.0632Z" fill="url(#paint11_linear_4532_353927)"/>
<path d="M152.126 90.0633L148.814 93.297L95.3997 115.99L92.6186 113.719L144.827 91.5162L152.126 90.0633Z" fill="#D0C6B8"/>
<defs>
<filter id="filter0_d_4532_353927" x="27.4589" y="22.7824" width="112.464" height="85.438" filterUnits="userSpaceOnUse" color-interpolation-filters="sRGB">
<feFlood flood-opacity="0" result="BackgroundImageFix"/>
<feColorMatrix in="SourceAlpha" type="matrix" values="0 0 0 0 0 0 0 0 0 0 0 0 0 0 0 0 0 0 127 0" result="hardAlpha"/>
<feOffset dy="9.405"/>
<feGaussianBlur stdDeviation="9.405"/>
<feColorMatrix type="matrix" values="0 0 0 0 0.576471 0 0 0 0 0.501961 0 0 0 0 0.396078 0 0 0 0.22 0"/>
<feBlend mode="normal" in2="BackgroundImageFix" result="effect1_dropShadow_4532_353927"/>
<feBlend mode="normal" in="SourceGraphic" in2="effect1_dropShadow_4532_353927" result="shape"/>
</filter>
<filter id="filter1_d_4532_353927" x="91.6605" y="54.543" width="119.819" height="90.1373" filterUnits="userSpaceOnUse" color-interpolation-filters="sRGB">
<feFlood flood-opacity="0" result="BackgroundImageFix"/>
<feColorMatrix in="SourceAlpha" type="matrix" values="0 0 0 0 0 0 0 0 0 0 0 0 0 0 0 0 0 0 127 0" result="hardAlpha"/>
<feOffset dy="9.405"/>
<feGaussianBlur stdDeviation="9.405"/>
<feColorMatrix type="matrix" values="0 0 0 0 0.576471 0 0 0 0 0.501961 0 0 0 0 0.396078 0 0 0 0.22 0"/>
<feBlend mode="normal" in2="BackgroundImageFix" result="effect1_dropShadow_4532_353927"/>
<feBlend mode="normal" in="SourceGraphic" in2="effect1_dropShadow_4532_353927" result="shape"/>
</filter>
<filter id="filter2_d_4532_353927" x="52.561" y="93.4432" width="67.2975" height="50.4062" filterUnits="userSpaceOnUse" color-interpolation-filters="sRGB">
<feFlood flood-opacity="0" result="BackgroundImageFix"/>
<feColorMatrix in="SourceAlpha" type="matrix" values="0 0 0 0 0 0 0 0 0 0 0 0 0 0 0 0 0 0 127 0" result="hardAlpha"/>
<feOffset dy="6.84"/>
<feGaussianBlur stdDeviation="5.13"/>
<feColorMatrix type="matrix" values="0 0 0 0 0.576471 0 0 0 0 0.501961 0 0 0 0 0.396078 0 0 0 0.27 0"/>
<feBlend mode="normal" in2="BackgroundImageFix" result="effect1_dropShadow_4532_353927"/>
<feBlend mode="normal" in="SourceGraphic" in2="effect1_dropShadow_4532_353927" result="shape"/>
</filter>
<linearGradient id="paint0_linear_4532_353927" x1="83.691" y1="51.9476" x2="83.6666" y2="80.5209" gradientUnits="userSpaceOnUse">
<stop stop-color="white"/>
<stop offset="0.9964" stop-color="#EFEBE3"/>
</linearGradient>
<linearGradient id="paint1_linear_4532_353927" x1="92.6347" y1="50.1923" x2="104.621" y2="63.3006" gradientUnits="userSpaceOnUse">
<stop stop-color="#E0D6C0"/>
<stop offset="0.9942" stop-color="white" stop-opacity="0"/>
</linearGradient>
<linearGradient id="paint2_linear_4532_353927" x1="59.2173" y1="45.1164" x2="78.1073" y2="52.5081" gradientUnits="userSpaceOnUse">
<stop stop-color="#F0EBE1"/>
<stop offset="0.9942" stop-color="white" stop-opacity="0"/>
</linearGradient>
<linearGradient id="paint3_linear_4532_353927" x1="151.57" y1="85.6502" x2="151.543" y2="117.032" gradientUnits="userSpaceOnUse">
<stop stop-color="white"/>
<stop offset="0.9964" stop-color="#EFEBE3"/>
</linearGradient>
<linearGradient id="paint4_linear_4532_353927" x1="161.393" y1="83.7228" x2="174.557" y2="98.1193" gradientUnits="userSpaceOnUse">
<stop stop-color="#E0D6C0"/>
<stop offset="0.9942" stop-color="white" stop-opacity="0"/>
</linearGradient>
<linearGradient id="paint5_linear_4532_353927" x1="124.691" y1="78.148" x2="145.438" y2="86.2662" gradientUnits="userSpaceOnUse">
<stop stop-color="#F0EBE1"/>
<stop offset="0.9942" stop-color="white" stop-opacity="0"/>
</linearGradient>
<linearGradient id="paint6_linear_4532_353927" x1="86.2097" y1="109.213" x2="86.1945" y2="127.072" gradientUnits="userSpaceOnUse">
<stop stop-color="white"/>
<stop offset="0.9964" stop-color="#EFEBE3"/>
</linearGradient>
<linearGradient id="paint7_linear_4532_353927" x1="91.7996" y1="108.116" x2="99.2909" y2="116.309" gradientUnits="userSpaceOnUse">
<stop stop-color="#E0D6C0"/>
<stop offset="0.9942" stop-color="white" stop-opacity="0"/>
</linearGradient>
<linearGradient id="paint8_linear_4532_353927" x1="70.9137" y1="104.944" x2="82.72" y2="109.563" gradientUnits="userSpaceOnUse">
<stop stop-color="#F0EBE1"/>
<stop offset="0.9942" stop-color="white" stop-opacity="0"/>
</linearGradient>
<linearGradient id="paint9_linear_4532_353927" x1="126.594" y1="32.2361" x2="136" y2="71.5271" gradientUnits="userSpaceOnUse">
<stop stop-color="#F5EFE7"/>
<stop offset="0.9964" stop-color="#F0E4D4"/>
</linearGradient>
<linearGradient id="paint10_linear_4532_353927" x1="55.5073" y1="96.3248" x2="60.0859" y2="113.412" gradientUnits="userSpaceOnUse">
<stop stop-color="#F5EFE7"/>
<stop offset="0.9964" stop-color="#F0E4D4"/>
</linearGradient>
<linearGradient id="paint11_linear_4532_353927" x1="117.249" y1="93.9582" x2="125.633" y2="125.246" gradientUnits="userSpaceOnUse">
<stop stop-color="#F5EFE7"/>
<stop offset="0.9964" stop-color="#F0E4D4"/>
</linearGradient>
</defs>
</svg>
