<svg xmlns="http://www.w3.org/2000/svg" width="231" height="160" fill="none" viewBox="0 0 231 160">
  <path fill="#F0F0F0" d="M110.767 141.56c31.943 0 57.841-25.897 57.841-57.9551 0-32.0579-25.898-57.9551-57.841-57.9551-31.944 0-57.8412 25.8972-57.8412 57.9551 0 32.0581 25.8972 57.9551 57.8412 57.9551Z"/>
  <g filter="url(#filter0_d_3831_4883)">
    <path fill="url(#paint0_linear_3831_4883)" d="M122.503 61.231c0 8.4871-6.863 15.3507-15.424 15.3507H55.5654c-10.2584.2214-18.4504-7.9706-18.4504-17.86 0-9.9632 8.2658-18.229 18.6718-17.7124 8.93-27.8969 49.8162-23.9854 53.2842 4.8709 7.676.9595 13.432 7.454 13.432 15.3508Z"/>
  </g>
  <path fill="url(#paint1_linear_3831_4883)" d="M107.079 76.5817c8.487 0 15.424-6.8636 15.424-15.3507 0-8.4872-6.937-15.3508-15.424-15.3508-8.4873 0-15.4247 6.8636-15.4247 15.3508 0 8.4871 6.9374 15.3507 15.4247 15.3507Z"/>
  <path fill="url(#paint2_linear_3831_4883)" d="M81.9125 76.7291c15.1293 0 27.4545-12.2511 27.4545-27.3804 0-15.1293-12.3252-27.3803-27.4545-27.3803-15.1293 0-27.4541 12.251-27.4541 27.3803 0 15.1293 12.251 27.3804 27.4541 27.3804Z"/>
  <g filter="url(#filter1_d_3831_4883)">
    <path fill="url(#paint3_linear_3831_4883)" d="M204.141 101.316c0 9.321-7.538 16.859-16.94 16.859H130.625c-11.266.243-20.264-8.754-20.264-19.6153 0-10.9424 9.079-20.0205 20.507-19.4531 9.808-30.6386 54.712-26.3427 58.522 5.3496 8.429 1.0537 14.751 8.1865 14.751 16.8598Z"/>
  </g>
  <path fill="url(#paint4_linear_3831_4883)" d="M187.201 118.175c9.321 0 16.941-7.538 16.941-16.859 0-9.3213-7.62-16.8593-16.941-16.8593-9.321 0-16.94 7.538-16.94 16.8593 0 9.321 7.619 16.859 16.94 16.859Z"/>
  <path fill="url(#paint5_linear_3831_4883)" d="M159.562 118.337c16.616 0 30.152-13.455 30.152-30.071 0-16.6161-13.536-30.0712-30.152-30.0712-16.617 0-30.153 13.4551-30.153 30.0712 0 16.616 13.455 30.071 30.153 30.071Z"/>
  <g filter="url(#filter2_d_3831_4883)">
    <path fill="url(#paint6_linear_3831_4883)" d="M109.367 120.315c0 5.304-4.29 9.594-9.6406 9.594H67.5305c-6.4115.138-11.5315-4.982-11.5315-11.163 0-6.227 5.1661-11.393 11.6698-11.07 5.5813-17.4354 31.135-14.9908 33.3032 3.044 4.797.6 8.395 4.659 8.395 9.595Z"/>
  </g>
  <path fill="url(#paint7_linear_3831_4883)" d="M99.7263 129.909c5.3047 0 9.6407-4.29 9.6407-9.594 0-5.305-4.336-9.595-9.6407-9.595-5.3044 0-9.6403 4.29-9.6403 9.595 0 5.304 4.3359 9.594 9.6403 9.594Z"/>
  <path fill="url(#paint8_linear_3831_4883)" d="M83.9974 130.001c9.4558 0 17.1586-7.657 17.1586-17.113s-7.7028-17.1125-17.1586-17.1125-17.1588 7.6565-17.1588 17.1125 7.6569 17.113 17.1588 17.113Z"/>
  <path fill="#D0C6B8" d="m106.611 61.8594-7.5235 6.0643c-1.4029 1.0463-3.2348.3006-3.6637-1.4915l-2.5116-17.3994"/>
  <path fill="url(#paint9_linear_3831_4883)" d="m178.517 17.883-4.835 4.473-50.593 47.1645c-2.305 2.2098-5.871 2.1158-8.248.0795L96.6651 52.8712l-3.6459-3.3905-10.0532-9.4361c-2.1536-2.0898-1.1708-5.8778 1.787-6.349l83.157-13.7474 10.607-2.0652Z"/>
  <path fill="#D0C6B8" d="m178.517 17.8833-4.834 4.473L96.835 52.594l-3.8693-3.337L168.08 19.6711l10.437-1.7878ZM38.429 112.87l-3.222 2.743c-.6018.475-1.4124.17-1.6212-.61l-1.3039-7.586"/>
  <path fill="url(#paint10_linear_3831_4883)" d="m69.386 92.7761-2.0634 2.0148-21.591 21.2391c-.9831.994-2.5449.995-3.6093.132l-8.1525-7.109-1.6358-1.441-4.5113-4.012c-.9672-.89-.5816-2.559.7075-2.8l36.2373-6.9952 4.6185-1.0287Z"/>
  <path fill="#D0C6B8" d="m69.386 92.7763-2.0634 2.0148L34.0408 108.93l-1.7329-1.415 32.5307-13.8335 4.5474-.9052ZM101.202 124.853l-5.8993 5.022c-1.1019.869-2.5861.311-2.9685-1.116l-2.3874-13.891"/>
  <path fill="url(#paint11_linear_3831_4883)" d="m157.885 88.06-3.778 3.6891-39.534 38.8889c-1.8 1.821-4.659 1.823-6.608.242l-14.9277-13.017-2.9951-2.639-8.2603-7.346c-1.771-1.628-1.0648-4.685 1.2956-5.127l66.3515-12.8074 8.456-1.8836Z"/>
  <path fill="#D0C6B8" d="m157.885 88.0602-3.778 3.689-60.9395 25.8888-3.173-2.592 59.5645-25.3283 8.326-1.6575Z"/>
  <defs>
    <linearGradient id="paint0_linear_3831_4883" x1="79.8092" x2="79.7813" y1="44.5778" y2="77.1741" gradientUnits="userSpaceOnUse">
      <stop stop-color="#fff"/>
      <stop offset=".9964" stop-color="#EFEBE3"/>
    </linearGradient>
    <linearGradient id="paint1_linear_3831_4883" x1="90.0129" x2="103.687" y1="42.5753" y2="57.5302" gradientUnits="userSpaceOnUse">
      <stop stop-color="#E0D6C0"/>
      <stop offset=".9942" stop-color="#fff" stop-opacity="0"/>
    </linearGradient>
    <linearGradient id="paint2_linear_3831_4883" x1="51.8876" x2="73.4385" y1="36.7846" y2="45.2182" gradientUnits="userSpaceOnUse">
      <stop stop-color="#F0EBE1"/>
      <stop offset=".9942" stop-color="#fff" stop-opacity="0"/>
    </linearGradient>
    <linearGradient id="paint3_linear_3831_4883" x1="157.251" x2="157.221" y1="83.0257" y2="118.826" gradientUnits="userSpaceOnUse">
      <stop stop-color="#fff"/>
      <stop offset=".9964" stop-color="#EFEBE3"/>
    </linearGradient>
    <linearGradient id="paint4_linear_3831_4883" x1="168.458" x2="183.476" y1="80.8269" y2="97.2515" gradientUnits="userSpaceOnUse">
      <stop stop-color="#E0D6C0"/>
      <stop offset=".9942" stop-color="#fff" stop-opacity="0"/>
    </linearGradient>
    <linearGradient id="paint5_linear_3831_4883" x1="126.586" x2="150.255" y1="74.4672" y2="83.7295" gradientUnits="userSpaceOnUse">
      <stop stop-color="#F0EBE1"/>
      <stop offset=".9942" stop-color="#fff" stop-opacity="0"/>
    </linearGradient>
    <linearGradient id="paint6_linear_3831_4883" x1="82.6828" x2="82.6654" y1="109.906" y2="130.279" gradientUnits="userSpaceOnUse">
      <stop stop-color="#fff"/>
      <stop offset=".9964" stop-color="#EFEBE3"/>
    </linearGradient>
    <linearGradient id="paint7_linear_3831_4883" x1="89.0601" x2="97.6062" y1="108.655" y2="118.002" gradientUnits="userSpaceOnUse">
      <stop stop-color="#E0D6C0"/>
      <stop offset=".9942" stop-color="#fff" stop-opacity="0"/>
    </linearGradient>
    <linearGradient id="paint8_linear_3831_4883" x1="65.2318" x2="78.7012" y1="105.036" y2="110.307" gradientUnits="userSpaceOnUse">
      <stop stop-color="#F0EBE1"/>
      <stop offset=".9942" stop-color="#fff" stop-opacity="0"/>
    </linearGradient>
    <linearGradient id="paint9_linear_3831_4883" x1="128.757" x2="139.486" y1="22.0908" y2="66.9144" gradientUnits="userSpaceOnUse">
      <stop stop-color="#F5EFE7"/>
      <stop offset=".9964" stop-color="#F0E4D4"/>
    </linearGradient>
    <linearGradient id="paint10_linear_3831_4883" x1="47.6548" x2="52.8782" y1="95.2029" y2="114.697" gradientUnits="userSpaceOnUse">
      <stop stop-color="#F5EFE7"/>
      <stop offset=".9964" stop-color="#F0E4D4"/>
    </linearGradient>
    <linearGradient id="paint11_linear_3831_4883" x1="118.095" x2="127.659" y1="92.5034" y2="128.197" gradientUnits="userSpaceOnUse">
      <stop stop-color="#F5EFE7"/>
      <stop offset=".9964" stop-color="#F0E4D4"/>
    </linearGradient>
    <filter id="filter0_d_3831_4883" width="123.008" height="92.1708" x="18.305" y="12.6303" color-interpolation-filters="sRGB" filterUnits="userSpaceOnUse">
      <feFlood flood-opacity="0" result="BackgroundImageFix"/>
      <feColorMatrix in="SourceAlpha" result="hardAlpha" values="0 0 0 0 0 0 0 0 0 0 0 0 0 0 0 0 0 0 127 0"/>
      <feOffset dy="9.405"/>
      <feGaussianBlur stdDeviation="9.405"/>
      <feColorMatrix values="0 0 0 0 0.576471 0 0 0 0 0.501961 0 0 0 0 0.396078 0 0 0 0.22 0"/>
      <feBlend in2="BackgroundImageFix" result="effect1_dropShadow_3831_4883"/>
      <feBlend in="SourceGraphic" in2="effect1_dropShadow_3831_4883" result="shape"/>
    </filter>
    <filter id="filter1_d_3831_4883" width="131.4" height="97.5319" x="91.5515" y="48.8628" color-interpolation-filters="sRGB" filterUnits="userSpaceOnUse">
      <feFlood flood-opacity="0" result="BackgroundImageFix"/>
      <feColorMatrix in="SourceAlpha" result="hardAlpha" values="0 0 0 0 0 0 0 0 0 0 0 0 0 0 0 0 0 0 127 0"/>
      <feOffset dy="9.405"/>
      <feGaussianBlur stdDeviation="9.405"/>
      <feColorMatrix values="0 0 0 0 0.576471 0 0 0 0 0.501961 0 0 0 0 0.396078 0 0 0 0.22 0"/>
      <feBlend in2="BackgroundImageFix" result="effect1_dropShadow_3831_4883"/>
      <feBlend in="SourceGraphic" in2="effect1_dropShadow_3831_4883" result="shape"/>
    </filter>
    <filter id="filter2_d_3831_4883" width="73.8877" height="54.6142" x="45.739" y="92.3974" color-interpolation-filters="sRGB" filterUnits="userSpaceOnUse">
      <feFlood flood-opacity="0" result="BackgroundImageFix"/>
      <feColorMatrix in="SourceAlpha" result="hardAlpha" values="0 0 0 0 0 0 0 0 0 0 0 0 0 0 0 0 0 0 127 0"/>
      <feOffset dy="6.84"/>
      <feGaussianBlur stdDeviation="5.13"/>
      <feColorMatrix values="0 0 0 0 0.576471 0 0 0 0 0.501961 0 0 0 0 0.396078 0 0 0 0.27 0"/>
      <feBlend in2="BackgroundImageFix" result="effect1_dropShadow_3831_4883"/>
      <feBlend in="SourceGraphic" in2="effect1_dropShadow_3831_4883" result="shape"/>
    </filter>
  </defs>
</svg>
