<svg xmlns="http://www.w3.org/2000/svg" width="231" height="160" fill="none" viewBox="0 0 231 160">
  <path fill="#242424" d="M112.258 141.56c31.046 0 56.215-25.169 56.215-56.3256 0-31.1565-25.169-56.3256-56.215-56.3256-31.0452 0-56.2143 25.1691-56.2143 56.3256 0 31.1566 25.1691 56.3256 56.2143 56.3256Z"/>
  <g filter="url(#filter0_d_3831_4921)">
    <path fill="#424242" d="M123.665 63.4896c0 8.2486-6.671 14.9191-14.991 14.9191H58.6091c-9.97.2152-17.9316-7.7464-17.9316-17.3578 0-9.683 8.0334-17.7164 18.1468-17.2143 8.6789-27.1126 48.4157-23.3111 51.7867 4.7339 7.459.9325 13.054 7.2444 13.054 14.9191Z"/>
  </g>
  <path fill="url(#paint0_linear_3831_4921)" d="M84.2155 78.552c14.7039 0 26.6825-11.9066 26.6825-26.6106 0-14.7039-11.9786-26.6105-26.6825-26.6105-14.704 0-26.6823 11.9066-26.6823 26.6105 0 14.704 11.9066 26.6106 26.6823 26.6106Z"/>
  <path fill="url(#paint1_linear_3831_4921)" d="M108.674 78.4088c8.249 0 14.991-6.6706 14.991-14.9191 0-8.2486-6.742-14.9191-14.991-14.9191-8.248 0-14.9906 6.6705-14.9906 14.9191 0 8.2485 6.7426 14.9191 14.9906 14.9191Z"/>
  <g filter="url(#filter1_d_3831_4921)">
    <path fill="#424242" d="M203.008 102.447c0 9.059-7.326 16.385-16.464 16.385h-54.986c-10.949.237-19.693-8.507-19.693-19.0633 0-10.6347 8.822-19.4575 19.93-18.9061 9.532-29.7771 53.173-25.602 56.876 5.1992 8.192 1.0241 14.337 7.9563 14.337 16.3852Z"/>
  </g>
  <path fill="url(#paint2_linear_3831_4921)" d="M159.681 118.99c16.149 0 29.305-13.076 29.305-29.2255 0-16.1489-13.156-29.2257-29.305-29.2257s-29.304 13.0768-29.304 29.2257c0 16.1495 13.076 29.2255 29.304 29.2255Z"/>
  <path fill="url(#paint3_linear_3831_4921)" d="M186.544 118.833c9.059 0 16.464-7.326 16.464-16.386 0-9.0587-7.405-16.3849-16.464-16.3849-9.059 0-16.464 7.3262-16.464 16.3849 0 9.06 7.405 16.386 16.464 16.386Z"/>
  <g filter="url(#filter2_d_3831_4921)">
    <path fill="#424242" d="M110.898 120.912c0 5.155-4.169 9.325-9.37 9.325H70.2378c-6.2313.134-11.2073-4.842-11.2073-10.849 0-6.052 5.0209-11.073 11.3417-10.759 5.4244-16.9454 30.2598-14.5694 32.3668 2.959 4.662.582 8.159 4.527 8.159 9.324Z"/>
  </g>
  <path fill="url(#paint4_linear_3831_4921)" d="M101.528 130.237c5.156 0 9.37-4.169 9.37-9.325 0-5.155-4.214-9.324-9.37-9.324-5.1549 0-9.3688 4.169-9.3688 9.324 0 5.156 4.2139 9.325 9.3688 9.325Z"/>
  <path fill="url(#paint5_linear_3831_4921)" d="M86.2417 130.326c9.19 0 16.6763-7.441 16.6763-16.631 0-9.19-7.4863-16.632-16.6763-16.632-9.1899 0-16.6764 7.442-16.6764 16.632 0 9.19 7.4417 16.631 16.6764 16.631Z"/>
  <path fill="#BAB7B1" d="m107.937 64.7024-6.092 5.4909c-1.143.9399-2.8235.0672-3.3602-1.7453l-3.7541-17.4797"/>
  <path fill="url(#paint6_linear_3831_4921)" d="m174.713 22.102-4.181 4.4197-43.72 46.631c-1.987 2.1898-5.395 1.814-7.857-.5513L100.02 53.2747l-3.8011-3.9142-10.4904-10.8861c-2.2538-2.4053-1.6798-6.3882 1.0953-6.6648l77.9732-8.3132 9.916-1.3944Z"/>
  <path fill="#BAB7B1" d="m176.671 21.5065-4.29 4.8215-72.213 28.8749-4.1135-4.2263 70.5805-28.259 10.036-1.2111ZM41.8337 113.947l-2.6102 2.485c-.4909.427-1.2359.064-1.49-.725l-1.8281-7.628"/>
  <path fill="url(#paint7_linear_3831_4921)" d="m70.5643 94.4714-1.7799 1.9897-18.6099 20.9879c-.8448.985-2.338.862-3.4384-.146l-8.4764-8.248-1.7022-1.67-4.698-4.648c-1.0101-1.028-.8013-2.7819.4083-2.937l33.979-4.5962 4.3175-.7324Z"/>
  <path fill="#BAB7B1" d="m71.4129 94.2096-1.8262 2.1583-31.261 13.5251-1.8392-1.791 30.5542-13.2349 4.3722-.6575ZM102.742 125.816l-4.7797 4.551c-.8988.781-2.2629.117-2.7282-1.328l-3.3472-13.967"/>
  <path fill="url(#paint8_linear_3831_4921)" d="m155.348 90.1565-3.259 3.6432-34.075 38.4293c-1.547 1.803-4.281 1.577-6.296-.268L96.1975 116.86l-3.1166-3.059-8.6022-8.51c-1.8494-1.882-1.4671-5.094.7475-5.3778l62.2158-8.4156 7.906-1.3411Z"/>
  <path fill="#BAB7B1" d="m156.902 89.6774-3.344 3.9519-57.2395 24.7637-3.3676-3.278 55.9451-24.2338 8.006-1.2038Z"/>
  <defs>
    <linearGradient id="paint0_linear_3831_4921" x1="64.0361" x2="72.9712" y1="36.3852" y2="43.2913" gradientUnits="userSpaceOnUse">
      <stop stop-color="#686868"/>
      <stop offset=".9942" stop-color="#424242"/>
    </linearGradient>
    <linearGradient id="paint1_linear_3831_4921" x1="97.3369" x2="102.349" y1="54.7681" y2="58.6502" gradientUnits="userSpaceOnUse">
      <stop stop-color="#686868"/>
      <stop offset=".9942" stop-color="#424242"/>
    </linearGradient>
    <linearGradient id="paint2_linear_3831_4921" x1="137.519" x2="147.332" y1="72.6795" y2="80.2642" gradientUnits="userSpaceOnUse">
      <stop stop-color="#686868"/>
      <stop offset=".9942" stop-color="#424242"/>
    </linearGradient>
    <linearGradient id="paint3_linear_3831_4921" x1="174.092" x2="179.597" y1="92.8688" y2="97.1323" gradientUnits="userSpaceOnUse">
      <stop stop-color="#686868"/>
      <stop offset=".9942" stop-color="#424242"/>
    </linearGradient>
    <linearGradient id="paint4_linear_3831_4921" x1="94.4426" x2="97.5752" y1="115.461" y2="117.888" gradientUnits="userSpaceOnUse">
      <stop stop-color="#686868"/>
      <stop offset=".9942" stop-color="#424242"/>
    </linearGradient>
    <linearGradient id="paint5_linear_3831_4921" x1="73.6297" x2="79.2141" y1="103.972" y2="108.288" gradientUnits="userSpaceOnUse">
      <stop stop-color="#686868"/>
      <stop offset=".9942" stop-color="#424242"/>
    </linearGradient>
    <linearGradient id="paint6_linear_3831_4921" x1="128.024" x2="137.306" y1="23.8583" y2="72.0295" gradientUnits="userSpaceOnUse">
      <stop stop-color="#FAFAFA"/>
      <stop offset=".8281" stop-color="#D2CEC6"/>
    </linearGradient>
    <linearGradient id="paint7_linear_3831_4921" x1="50.1842" x2="54.853" y1="95.8104" y2="116.805" gradientUnits="userSpaceOnUse">
      <stop stop-color="#FAFAFA"/>
      <stop offset=".8281" stop-color="#F5F2EC"/>
    </linearGradient>
    <linearGradient id="paint8_linear_3831_4921" x1="118.031" x2="126.58" y1="92.6081" y2="131.05" gradientUnits="userSpaceOnUse">
      <stop stop-color="#FAFAFA"/>
      <stop offset=".8281" stop-color="#F5F2EC"/>
    </linearGradient>
    <filter id="filter0_d_3831_4921" width="105.218" height="75.247" x="29.5625" y="23.686" color-interpolation-filters="sRGB" filterUnits="userSpaceOnUse">
      <feFlood flood-opacity="0" result="BackgroundImageFix"/>
      <feColorMatrix in="SourceAlpha" result="hardAlpha" values="0 0 0 0 0 0 0 0 0 0 0 0 0 0 0 0 0 0 127 0"/>
      <feOffset dy="9.405"/>
      <feGaussianBlur stdDeviation="5.5575"/>
      <feColorMatrix values="0 0 0 0 0 0 0 0 0 0 0 0 0 0 0 0 0 0 0.22 0"/>
      <feBlend in2="BackgroundImageFix" result="effect1_dropShadow_3831_4921"/>
      <feBlend in="SourceGraphic" in2="effect1_dropShadow_3831_4921" result="shape"/>
    </filter>
    <filter id="filter1_d_3831_4921" width="113.373" height="80.4574" x="100.75" y="58.8997" color-interpolation-filters="sRGB" filterUnits="userSpaceOnUse">
      <feFlood flood-opacity="0" result="BackgroundImageFix"/>
      <feColorMatrix in="SourceAlpha" result="hardAlpha" values="0 0 0 0 0 0 0 0 0 0 0 0 0 0 0 0 0 0 127 0"/>
      <feOffset dy="9.405"/>
      <feGaussianBlur stdDeviation="5.5575"/>
      <feColorMatrix values="0 0 0 0 0 0 0 0 0 0 0 0 0 0 0 0 0 0 0.22 0"/>
      <feBlend in2="BackgroundImageFix" result="effect1_dropShadow_3831_4921"/>
      <feBlend in="SourceGraphic" in2="effect1_dropShadow_3831_4921" result="shape"/>
    </filter>
    <filter id="filter2_d_3831_4921" width="74.0972" height="55.3656" x="47.9155" y="95.3936" color-interpolation-filters="sRGB" filterUnits="userSpaceOnUse">
      <feFlood flood-opacity="0" result="BackgroundImageFix"/>
      <feColorMatrix in="SourceAlpha" result="hardAlpha" values="0 0 0 0 0 0 0 0 0 0 0 0 0 0 0 0 0 0 127 0"/>
      <feOffset dy="9.405"/>
      <feGaussianBlur stdDeviation="5.5575"/>
      <feColorMatrix values="0 0 0 0 0 0 0 0 0 0 0 0 0 0 0 0 0 0 0.22 0"/>
      <feBlend in2="BackgroundImageFix" result="effect1_dropShadow_3831_4921"/>
      <feBlend in="SourceGraphic" in2="effect1_dropShadow_3831_4921" result="shape"/>
    </filter>
  </defs>
</svg>
