<svg width="24" height="24" viewBox="0 0 24 24" fill="none" xmlns="http://www.w3.org/2000/svg">
<path d="M20.25 5C17.5866 5 14.992 4.05652 12.45 2.15C12.1833 1.95 11.8167 1.95 11.55 2.15C9.00797 4.05652 6.41341 5 3.75 5C3.33579 5 3 5.33579 3 5.75V11C3 16.0012 5.95756 19.6757 11.7251 21.9478C11.9018 22.0174 12.0982 22.0174 12.2749 21.9478C18.0424 19.6757 21 16.0012 21 11V5.75C21 5.33579 20.6642 5 20.25 5ZM4.5 6.47793C7.07735 6.32585 9.58084 5.38829 12 3.67782C14.4192 5.38829 16.9227 6.32585 19.5 6.47793V11C19.5 15.2556 17.0466 18.3789 12 20.4419C6.95337 18.3789 4.5 15.2556 4.5 11V6.47793Z" fill="#212121"/>
<path d="M7.5 15H10C10 16.1046 10.8954 17 12 17C13.1046 17 14 16.1046 14 15H16.5C16.6733 15 16.8342 14.9103 16.9253 14.7629C17.0164 14.6155 17.0247 14.4314 16.9472 14.2764L16 12.382V11C16 8.79086 14.2091 7 12 7C9.79086 7 8 8.79086 8 11V12.382L7.05279 14.2764C6.97529 14.4314 6.98357 14.6155 7.07468 14.7629C7.16578 14.9103 7.32671 15 7.5 15ZM9 11C9 9.34315 10.3431 8 12 8C13.6569 8 15 9.34315 15 11V12.5C15 12.5776 15.0181 12.6542 15.0528 12.7236L15.691 14H8.30902L8.94721 12.7236C8.98193 12.6542 9 12.5776 9 12.5V11ZM13 15C13 15.5523 12.5523 16 12 16C11.4477 16 11 15.5523 11 15H13Z" fill="#212121"/>
</svg>
