<svg width="32" height="32" viewBox="0 0 32 32" fill="none" xmlns="http://www.w3.org/2000/svg">
<path d="M15.4441 2.16819C15.78 1.94426 16.2176 1.94426 16.5535 2.16819C19.4695 4.11219 23.3137 6.02675 28.0983 6.50521C28.6095 6.55633 28.9988 6.98649 28.9988 7.50024V16.0002C28.9988 19.8799 26.8749 23.1693 24.2977 25.5464C21.7262 27.9182 18.5611 29.5172 16.1831 29.9631L15.9988 29.9977L15.8145 29.9631C13.4365 29.5172 10.2714 27.9182 7.69996 25.5464C5.1227 23.1693 2.99881 19.8799 2.99881 16.0002V7.50024C2.99881 6.98649 3.3881 6.55633 3.89931 6.50521C8.6839 6.02675 12.5281 4.11219 15.4441 2.16819ZM19.2067 21.7526L22.2072 21.74L22.386 21.698C23.0428 21.5107 23.4981 20.9364 23.4983 20.2546C23.4983 20.0583 23.4584 19.8585 23.383 19.6775L22.4953 17.5466L22.4768 13.5652C22.2143 10.2716 19.3903 7.74983 15.9944 7.74976C12.5155 7.74976 9.63498 10.407 9.50119 13.8083L9.49533 17.5525L8.54318 19.8777L8.51193 20.071C8.43869 20.7447 8.7941 21.3792 9.41915 21.6394C9.60311 21.713 9.79595 21.7546 9.99533 21.7546L12.7851 21.7537L12.7922 21.7957C13.0521 23.3308 14.3874 24.4996 15.9963 24.4998C17.6054 24.4998 18.9394 23.3307 19.1994 21.7957L19.2067 21.7526ZM17.3137 21.74L17.3117 21.7517C17.3069 21.7794 17.2987 21.8212 17.2844 21.8718C17.2556 21.9738 17.205 22.1082 17.1174 22.241C16.9495 22.4952 16.6325 22.7683 15.9963 22.7683C15.3593 22.7683 15.0248 22.4945 14.841 22.2351C14.7457 22.1005 14.6874 21.9638 14.6535 21.8611C14.6368 21.8103 14.6263 21.7677 14.6201 21.74H17.3137ZM15.9944 9.74976C13.6147 9.74976 11.6985 11.4914 11.5119 13.6775L11.4963 17.7996L11.4387 18.0886L10.7443 19.7546L21.2492 19.7556L20.5539 18.0886L20.4963 17.7996L20.4924 13.8679C20.3928 11.5856 18.4371 9.74983 15.9944 9.74976Z" fill="#212121"/>
</svg>
