<svg width="28" height="28" viewBox="0 0 28 28" fill="none" xmlns="http://www.w3.org/2000/svg">
<path d="M13.5294 2.14299C13.8137 1.95103 14.1839 1.95103 14.4682 2.14299C16.9356 3.80943 20.1883 5.45063 24.2369 5.86078C24.6694 5.9046 24.9988 6.27334 24.9988 6.71374V14.0001C24.9988 17.3258 23.2017 20.1456 21.0209 22.1833C18.8451 24.2164 16.1669 25.5872 14.1547 25.9694L13.9988 25.999L13.8429 25.9694C11.8307 25.5872 9.15254 24.2164 6.9767 22.1833C4.79595 20.1456 2.99881 17.3258 2.99881 14.0001V6.71374C2.99881 6.27334 3.32821 5.9046 3.76077 5.86078C7.80927 5.45063 11.0621 3.80943 13.5294 2.14299ZM13.9988 7.99902C11.5135 7.99902 9.49882 10.0137 9.49882 12.499V14.9004L8.53451 17.3135C8.47296 17.4675 8.4918 17.6421 8.58482 17.7794C8.67785 17.9168 8.83293 17.999 8.99881 17.999H11.9988C11.9988 19.1074 12.8905 19.999 13.9988 19.999C15.1072 19.999 15.9988 19.1074 15.9988 17.999H18.9988C19.1647 17.999 19.3198 17.9168 19.4128 17.7794C19.5058 17.6421 19.5247 17.4675 19.4631 17.3135L18.4988 14.9004V12.499C18.4988 10.0137 16.4841 7.99902 13.9988 7.99902ZM13.9988 18.999C14.5549 18.999 14.9988 18.5551 14.9988 17.999H12.9988C12.9988 18.5551 13.4427 18.999 13.9988 18.999ZM13.9988 8.99902C12.0658 8.99902 10.4988 10.566 10.4988 12.499V14.9966C10.4988 15.0602 10.4867 15.1232 10.4631 15.1822L9.73707 16.999H18.2606L17.5345 15.1822C17.5109 15.1232 17.4988 15.0602 17.4988 14.9966V12.499C17.4988 10.566 15.9318 8.99902 13.9988 8.99902Z" fill="#212121"/>
</svg>
