<svg width="20" height="20" viewBox="0 0 20 20" fill="none" xmlns="http://www.w3.org/2000/svg">
<path d="M10.2774 2.08397C10.1094 1.97201 9.8906 1.97201 9.72265 2.08397C7.78446 3.3761 5.68833 4.18231 3.42929 4.50503C3.18296 4.54021 3 4.75118 3 5V9.5C3 13.3913 5.30699 16.2307 9.82051 17.9667C9.93605 18.0111 10.064 18.0111 10.1795 17.9667C14.693 16.2307 17 13.3913 17 9.5V5C17 4.75118 16.817 4.54021 16.5707 4.50503C14.3117 4.18231 12.2155 3.3761 10.2774 2.08397ZM4 5.42787C5.98541 5.09055 7.85275 4.39606 9.59914 3.34583L10 3.09715L10.4009 3.34583C12.1473 4.39606 14.0146 5.09055 16 5.42787V9.5C16 12.8921 14.0321 15.3634 10 16.9632C5.96795 15.3634 4 12.8921 4 9.5V5.42787Z" fill="#212121"/>
<path d="M5.5 13H8C8 14.1046 8.89543 15 10 15C11.1046 15 12 14.1046 12 13H14.5C14.6733 13 14.8342 12.9103 14.9253 12.7629C15.0164 12.6155 15.0247 12.4314 14.9472 12.2764L14 10.382V9C14 6.79086 12.2091 5 10 5C7.79086 5 6 6.79086 6 9V10.382L5.05279 12.2764C4.97529 12.4314 4.98357 12.6155 5.07468 12.7629C5.16578 12.9103 5.32671 13 5.5 13ZM7 10.5V9C7 7.34315 8.34315 6 10 6C11.6569 6 13 7.34315 13 9V10.5C13 10.5776 13.0181 10.6542 13.0528 10.7236L13.691 12H6.30902L6.94721 10.7236C6.98193 10.6542 7 10.5776 7 10.5ZM11 13C11 13.5523 10.5523 14 10 14C9.44772 14 9 13.5523 9 13H11Z" fill="#212121"/>
</svg>
