<svg width="48" height="48" viewBox="0 0 48 48" fill="none" xmlns="http://www.w3.org/2000/svg">
<path d="M24.8646 4.34751C24.3811 3.88416 23.6184 3.88416 23.1349 4.34751C20.3762 6.99127 16.4502 8.42541 13.0979 9.18734C11.4389 9.56438 9.95899 9.76829 8.89553 9.87765C8.36453 9.93226 7.93932 9.9631 7.64987 9.98021C7.50519 9.98876 7.39459 9.99387 7.32181 9.9968C7.28543 9.99827 7.25851 9.99919 7.24154 9.99973L7.2236 10.0003C6.54509 10.0164 5.99999 10.5713 6 11.2501V20.75C6 25.587 7.24269 30.4082 10.0977 34.5249C12.9592 38.6508 17.3886 41.9936 23.6269 43.9431C23.8697 44.019 24.1298 44.019 24.3726 43.9431C36.9406 40.0156 42 30.4968 42 21V11.25C42 10.5711 41.4577 10.0164 40.7791 10.0003L40.7585 9.99973C40.7415 9.99919 40.7146 9.99827 40.6782 9.9968C40.6054 9.99387 40.4948 9.98876 40.3501 9.98021C40.0606 9.9631 39.6354 9.93226 39.1044 9.87765C38.0409 9.76829 36.5609 9.56438 34.9019 9.18733C31.5494 8.42541 27.6233 6.99126 24.8646 4.34751ZM8.5 20.75L8.50002 12.4253C8.6969 12.4089 8.91472 12.3889 9.15128 12.3645C10.2909 12.2473 11.8734 12.0294 13.6519 11.6252C16.8704 10.8937 20.8623 9.52333 23.9998 6.92285C27.1373 9.52333 31.1293 10.8937 34.3479 11.6252C36.1264 12.0294 37.709 12.2473 38.8487 12.3645C39.0853 12.3889 39.3031 12.4089 39.5 12.4253V21C39.5 29.4102 35.1556 37.7988 23.9998 41.4378C18.4402 39.6244 14.6108 36.6454 12.152 33.1001C9.6322 29.4668 8.50001 25.1629 8.5 20.75Z" fill="#212121"/>
<path d="M16.2702 31.5384L19.8708 31.5382C19.8708 31.5587 19.8734 31.5794 19.8786 31.5996C20.3497 33.4343 22.0141 34.7891 23.9958 34.7891C25.9769 34.789 27.6407 33.4343 28.112 31.6006C28.1173 31.5798 28.1199 31.5587 28.1197 31.5377L31.7301 31.5374C32.9727 31.5374 33.9801 30.531 33.9801 29.2884C33.9801 28.9782 33.9159 28.6713 33.7916 28.3871C33.7916 28.3871 32.4909 25.7514 32.4958 25.4222C32.5006 25.0931 32.4958 21.5179 32.4958 21.5179L32.4909 21.2669V21.2494L32.4655 20.8216C32.098 16.434 28.4416 13.0346 23.9958 13.0345C19.296 13.0345 15.4964 16.8271 15.4958 21.5345C15.4958 21.5345 15.4958 25.043 15.4958 25.4242C15.4958 25.8053 14.2067 28.3919 14.2067 28.3919C13.7117 29.5316 14.2342 30.8567 15.3737 31.3519C15.6565 31.4747 15.9619 31.5384 16.2702 31.5384ZM22.2448 31.5371L25.748 31.5378C25.7291 31.8297 25.5128 32.1376 25.1579 32.3867C24.8022 32.6362 24.3593 32.7871 23.9958 32.7871C23.6398 32.7871 23.1879 32.6394 22.8258 32.3916C22.458 32.1399 22.2452 31.83 22.2448 31.5371ZM23.9956 15.5345C24.0969 15.5345 24.1975 15.5374 24.2975 15.5423C24.6156 15.558 24.9271 15.5983 25.2303 15.6613C27.2009 16.0711 28.8171 17.4432 29.5583 19.2736C29.5699 19.3025 29.5814 19.3315 29.5927 19.3606C29.6363 19.4734 29.6766 19.5878 29.7135 19.7039C29.7595 19.8486 29.8002 19.9958 29.8354 20.1451C29.9246 20.5244 29.9781 20.918 29.992 21.3222L29.9957 21.5474L29.9956 25.9451C30.3008 27.2277 31.3482 29.0383 31.3482 29.0383H16.6516C16.6516 29.0383 17.692 27.2261 17.9956 25.9441V21.5345C17.9961 18.2088 20.6755 15.5345 23.9956 15.5345Z" fill="#212121"/>
</svg>
