<svg width="20" height="20" viewBox="0 0 20 20" fill="none" xmlns="http://www.w3.org/2000/svg">
<path d="M9.70132 2.09598C9.88218 1.96801 10.1178 1.96801 10.2987 2.09598C11.8688 3.20694 13.9388 4.30107 16.5151 4.5745C16.7904 4.60372 17 4.84955 17 5.14315V10.0007C17 12.2179 15.8564 14.0977 14.4686 15.4562C13.084 16.8116 11.3797 17.7254 10.0992 17.9803L10 18L9.90077 17.9803C8.62031 17.7254 6.91601 16.8116 5.53139 15.4562C4.14363 14.0977 3 12.2179 3 10.0007V5.14315C3 4.84955 3.20962 4.60372 3.48488 4.5745C6.0612 4.30107 8.13116 3.20694 9.70132 2.09598ZM8 13C8 14.1046 8.89543 15 10 15C11.1046 15 12 14.1046 12 13H14.5C14.6733 13 14.8342 12.9103 14.9253 12.7629C15.0164 12.6155 15.0247 12.4314 14.9472 12.2764L14 10.382V9C14 6.79086 12.2091 5 10 5C7.79086 5 6 6.79086 6 9V10.382L5.05279 12.2764C4.97529 12.4314 4.98357 12.6155 5.07468 12.7629C5.16578 12.9103 5.32671 13 5.5 13H8ZM7 10.5C7 10.5776 6.98193 10.6542 6.94721 10.7236L6.30902 12H13.691L13.0528 10.7236C13.0181 10.6542 13 10.5776 13 10.5V9C13 7.34315 11.6569 6 10 6C8.34315 6 7 7.34315 7 9V10.5ZM11 13H9C9 13.5523 9.44772 14 10 14C10.5523 14 11 13.5523 11 13Z" fill="#212121"/>
</svg>
