<svg width="32" height="32" viewBox="0 0 32 32" fill="none" xmlns="http://www.w3.org/2000/svg">
<path d="M15.4441 2.16819C15.78 1.94426 16.2176 1.94426 16.5535 2.16819C19.4695 4.11219 23.3138 6.02665 28.0984 6.50511C28.6096 6.55627 28.9988 6.98651 28.9988 7.50023V16.0002C28.9988 19.8798 26.8748 23.169 24.2976 25.5461C21.7263 27.9178 18.5613 29.5172 16.1834 29.9631L15.9988 29.9973L15.8142 29.9631C13.4363 29.5172 10.2713 27.9178 7.69998 25.5461C5.12278 23.169 2.99881 19.8798 2.99881 16.0002V7.50023C2.99881 6.98651 3.38805 6.55627 3.8992 6.50511C8.6838 6.02665 12.5281 4.11219 15.4441 2.16819ZM15.9988 4.19358C13.1644 6.00733 9.49513 7.77028 4.99881 8.38694V16.0002C4.99881 19.1199 6.71267 21.9155 9.05545 24.0764C11.3301 26.1744 14.0627 27.5422 15.9988 27.9573C17.9349 27.5422 20.6675 26.1744 22.9422 24.0764C25.2849 21.9155 26.9988 19.1199 26.9988 16.0002V8.38694C22.5025 7.77028 18.8332 6.00733 15.9988 4.19358Z" fill="#212121"/>
<path d="M19.2067 21.7525L22.2072 21.7399L22.386 21.6979C23.0428 21.5106 23.4981 20.9363 23.4983 20.2546C23.4983 20.0583 23.4584 19.8584 23.383 19.6774L22.4953 17.5466L22.4768 13.5651C22.2143 10.2715 19.3903 7.74976 15.9944 7.74969C12.5155 7.74969 9.63499 10.407 9.50119 13.8083L9.49533 17.5524L8.54318 19.8776L8.51193 20.071C8.4387 20.7446 8.7941 21.3791 9.41916 21.6393C9.60311 21.7129 9.79595 21.7546 9.99533 21.7546L12.7851 21.7537L12.7922 21.7956C13.0521 23.3308 14.3874 24.4996 15.9963 24.4997C17.6054 24.4997 18.9394 23.3306 19.1994 21.7956L19.2067 21.7525ZM17.3117 21.7516C17.3069 21.7793 17.2987 21.8211 17.2844 21.8718C17.2556 21.9737 17.205 22.1081 17.1174 22.2409C16.9495 22.4951 16.6325 22.7682 15.9963 22.7682C15.3593 22.7682 15.0248 22.4945 14.841 22.235C14.7457 22.1004 14.6874 21.9637 14.6535 21.861C14.6368 21.8103 14.6263 21.7677 14.6201 21.7399H17.3137L17.3117 21.7516ZM11.5119 13.6774C11.6985 11.4913 13.6147 9.74969 15.9944 9.74969C18.4371 9.74976 20.3928 11.5856 20.4924 13.8679L20.4963 17.7995L20.5539 18.0886L21.2492 19.7555L10.7444 19.7546L11.4387 18.0886L11.4963 17.7995L11.5119 13.6774Z" fill="#212121"/>
</svg>
