<svg width="24" height="24" viewBox="0 0 24 24" fill="none" xmlns="http://www.w3.org/2000/svg">
<path d="M11.616 2.11998C11.8485 1.96001 12.1515 1.96001 12.384 2.11998C14.4028 3.50867 17.0642 4.87634 20.3766 5.21813C20.7305 5.25464 21 5.56193 21 5.92893V12.0009C21 14.7723 19.5296 17.1221 17.7454 18.8202C15.9651 20.5145 13.7739 21.6568 12.1276 21.9753L12 22L11.8724 21.9753C10.2261 21.6568 8.03487 20.5145 6.25464 18.8202C4.47039 17.1221 3 14.7723 3 12.0009V5.92893C3 5.56193 3.26951 5.25464 3.62342 5.21813C6.93583 4.87634 9.59721 3.50867 11.616 2.11998ZM10 15C10 16.1046 10.8954 17 12 17C13.1046 17 14 16.1046 14 15H16.5C16.6733 15 16.8342 14.9103 16.9253 14.7629C17.0164 14.6155 17.0247 14.4314 16.9472 14.2764L16 12.382V11C16 8.79086 14.2091 7 12 7C9.79086 7 8 8.79086 8 11V12.382L7.05279 14.2764C6.97529 14.4314 6.98357 14.6155 7.07468 14.7629C7.16578 14.9103 7.32671 15 7.5 15H10ZM9 12.5C9 12.5776 8.98193 12.6542 8.94721 12.7236L8.30902 14H15.691L15.0528 12.7236C15.0181 12.6542 15 12.5776 15 12.5V11C15 9.34315 13.6569 8 12 8C10.3431 8 9 9.34315 9 11V12.5ZM13 15C13 15.5523 12.5523 16 12 16C11.4477 16 11 15.5523 11 15H13Z" fill="#212121"/>
</svg>
