<svg width="16" height="16" viewBox="0 0 16 16" fill="none" xmlns="http://www.w3.org/2000/svg">
<path d="M8.21335 2.07199C8.08415 1.976 7.91585 1.976 7.78665 2.07199C6.66512 2.9052 5.18657 3.7258 3.34634 3.93088C3.14973 3.95279 3 4.13716 3 4.35736V8.00055C3 9.6634 3.81688 11.0733 4.80813 12.0921C5.79715 13.1087 7.01451 13.7941 7.92912 13.9852L8 14L8.07088 13.9852C8.98549 13.7941 10.2028 13.1087 11.1919 12.0921C12.1831 11.0733 13 9.6634 13 8.00055V4.35736C13 4.13716 12.8503 3.95279 12.6537 3.93088C10.8134 3.7258 9.33488 2.9052 8.21335 2.07199Z" fill="#212121"/>
</svg>
