<svg width="28" height="28" viewBox="0 0 28 28" fill="none" xmlns="http://www.w3.org/2000/svg">
<path d="M14.4381 2.14208C14.1759 1.95264 13.8218 1.95264 13.5596 2.14208C12.9169 2.60645 11.4721 3.45359 9.6635 4.18313C7.85341 4.91328 5.74138 5.5 3.75 5.5C3.33579 5.5 3 5.83579 3 6.25V14.002C3 17.0293 4.70264 19.8431 6.83716 21.9516C8.97042 24.0589 11.6645 25.5914 13.8701 25.9756L13.9988 25.998L14.1275 25.9756C16.3331 25.5914 19.0272 24.0589 21.1605 21.9516C23.295 19.8431 24.9976 17.0293 24.9976 14.002V6.25C24.9976 5.83579 24.6618 5.5 24.2476 5.5C22.2575 5.5 20.1454 4.9133 18.335 4.18311C16.526 3.45355 15.0807 2.60639 14.4381 2.14208ZM4.5 14.002V6.97663C6.51483 6.85319 8.53239 6.25683 10.2246 5.57422C11.813 4.9335 13.1582 4.19894 13.9988 3.65635C14.8396 4.19897 16.1853 4.93353 17.7739 5.57423C19.4663 6.25678 21.4837 6.85312 23.4976 6.97661V14.002C23.4976 16.4727 22.0894 18.9255 20.1063 20.8845C18.1683 22.7989 15.805 24.1178 13.9988 24.4739C12.1926 24.1178 9.82929 22.7989 7.8913 20.8845C5.9082 18.9255 4.5 16.4727 4.5 14.002Z" fill="#212121"/>
<path d="M19.6953 16.4893L18.749 14.1201V11.7676C18.749 9.14429 16.6223 7.01769 13.999 7.01758C11.3757 7.01758 9.24902 9.14423 9.24902 11.7676V14.1201L8.30273 16.4893C8.21054 16.7202 8.2385 16.9816 8.37793 17.1875C8.51746 17.3935 8.7502 17.5176 8.99902 17.5176H11.7637C11.8876 18.6452 12.8373 19.5176 13.999 19.5176C15.1606 19.5175 16.1105 18.6452 16.2344 17.5176H18.999C19.2478 17.5175 19.4806 17.3935 19.6201 17.1875C19.7594 16.9816 19.7874 16.7201 19.6953 16.4893ZM17.249 11.7676V14.2646C17.249 14.36 17.2674 14.4544 17.3027 14.543L17.8916 16.0176H10.1055L10.6953 14.543C10.7307 14.4545 10.749 14.36 10.749 14.2646V11.7676C10.749 9.97265 12.2041 8.51758 13.999 8.51758C15.7939 8.51769 17.249 9.97272 17.249 11.7676ZM14.7031 17.5176C14.601 17.8096 14.3284 18.0175 13.999 18.0176C13.6695 18.0176 13.396 17.8097 13.2939 17.5176H14.7031Z" fill="#212121"/>
</svg>
