<svg width="48" height="48" viewBox="0 0 48 48" fill="none" xmlns="http://www.w3.org/2000/svg">
<path d="M23.1349 4.34751C23.6184 3.88416 24.3811 3.88416 24.8646 4.34751C27.6233 6.99126 31.5494 8.42541 34.9019 9.18733C36.5609 9.56438 38.0409 9.76829 39.1044 9.87765C39.6354 9.93226 40.0606 9.9631 40.3501 9.98021C40.4948 9.98876 40.6054 9.99387 40.6782 9.9968C40.7146 9.99827 40.7415 9.99919 40.7585 9.99973L40.7764 10.0003C41.455 10.0163 42 10.5711 42 11.25V21C42 30.4968 36.9406 40.0156 24.3726 43.9431C24.1298 44.019 23.8697 44.019 23.6269 43.9431C17.3886 41.9936 12.9592 38.6508 10.0977 34.5249C7.24269 30.4082 6 25.587 6 20.75V11.2501C5.99999 10.5713 6.54169 10.0165 7.2202 10.0004L7.24154 9.99973C7.25851 9.99919 7.28543 9.99827 7.32181 9.9968C7.39459 9.99387 7.50519 9.98876 7.64987 9.98021C7.93932 9.9631 8.36453 9.93226 8.89553 9.87765C9.95899 9.76829 11.4389 9.56438 13.0979 9.18734C16.4502 8.42541 20.3762 6.99127 23.1349 4.34751ZM16.2702 31.5383L19.8708 31.5381C19.8708 31.5586 19.8734 31.5793 19.8786 31.5995C20.3496 33.4342 22.0141 34.789 23.9958 34.789C25.9768 34.7889 27.6407 33.4342 28.112 31.6005C28.1173 31.5797 28.1198 31.5586 28.1197 31.5376L31.7301 31.5374C32.9727 31.5374 33.98 30.5309 33.9801 29.2883C33.9801 28.9781 33.9159 28.6712 33.7916 28.387L32.4957 25.4221V21.5178L32.4909 21.2668V21.2493L32.4655 20.8215C32.098 16.4339 28.4416 13.0345 23.9957 13.0344C19.296 13.0344 15.4964 16.827 15.4957 21.5344V25.4241L14.2067 28.3918C13.7117 29.5315 14.2342 30.8566 15.3737 31.3518C15.6565 31.4746 15.9619 31.5383 16.2702 31.5383ZM25.748 31.5377L22.2448 31.537C22.2452 31.8299 22.458 32.1398 22.8258 32.3915C23.1879 32.6393 23.6398 32.787 23.9958 32.787C24.3593 32.787 24.8022 32.6361 25.1579 32.3866C25.5128 32.1376 25.7291 31.8296 25.748 31.5377ZM17.9956 21.5344C17.9961 18.2087 20.6754 15.5344 23.9956 15.5344C24.0969 15.5344 24.1975 15.5373 24.2975 15.5422C24.6156 15.5579 24.9271 15.5982 25.2303 15.6612C27.2009 16.0711 28.8171 17.4431 29.5582 19.2735C29.5699 19.3024 29.5814 19.3314 29.5927 19.3605C29.6363 19.4733 29.6766 19.5878 29.7135 19.7038C29.7595 19.8485 29.8002 19.9957 29.8354 20.145C29.9246 20.5243 29.9781 20.9179 29.992 21.3221L29.9957 21.5473L29.9956 25.945C30.3008 27.2276 31.3481 29.0382 31.3481 29.0382H16.6516C16.6516 29.0382 17.692 27.226 17.9956 25.9441V21.5344Z" fill="#212121"/>
</svg>
