<svg xmlns="http://www.w3.org/2000/svg" width="230" height="160" fill="none"><path fill="#000" fill-opacity=".08" d="M115 134.5c30.376 0 55-24.624 55-55s-24.624-55-55-55-55 24.624-55 55 24.624 55 55 55"/><g filter="url(#a)"><path fill="url(#b)" d="M164.795 46.355v63.65c0 2.334-1.943 4.255-4.302 4.255H68.706c-2.36 0-4.303-1.921-4.303-4.255v-63.65c0-2.333 1.943-4.255 4.303-4.255h91.787c2.359 0 4.302 1.922 4.302 4.255"/><path stroke="url(#c)" d="M68.706 42.6h91.787c2.089 0 3.803 1.703 3.803 3.755v63.65c0 2.052-1.714 3.755-3.803 3.755H68.706c-2.088 0-3.803-1.703-3.803-3.755v-63.65c0-2.052 1.715-3.755 3.803-3.755Z"/></g><g filter="url(#d)"><path fill="#e4e0da" d="M95.226 57.06c0-.972.788-1.76 1.76-1.76h60.765a1.76 1.76 0 0 1 1.761 1.76V81.7a1.76 1.76 0 0 1-1.761 1.76H96.987a1.76 1.76 0 0 1-1.761-1.76z"/><path stroke="url(#e)" stroke-opacity=".58" d="M96.987 55.8h60.764a1.26 1.26 0 0 1 1.261 1.26V81.7a1.26 1.26 0 0 1-1.261 1.26H96.987a1.26 1.26 0 0 1-1.261-1.26V57.06c0-.695.564-1.26 1.261-1.26Z"/></g><g filter="url(#f)"><path fill="#e4e0da" d="M95.226 90.5c0-.972.788-1.76 1.76-1.76h15.852c.973 0 1.762.788 1.762 1.76v16.72c0 .972-.789 1.76-1.762 1.76H96.987a1.76 1.76 0 0 1-1.761-1.76z"/><path stroke="url(#g)" stroke-opacity=".58" d="M96.987 89.24h15.851c.697 0 1.261.565 1.262 1.26v16.721a1.26 1.26 0 0 1-1.262 1.259h-15.85a1.26 1.26 0 0 1-1.262-1.259V90.5a1.26 1.26 0 0 1 1.131-1.253z"/></g><g filter="url(#h)"><path fill="#e4e0da" d="M119.004 90.5c0-.972.788-1.76 1.761-1.76h14.09c.973 0 1.762.788 1.762 1.76v16.72c0 .972-.789 1.76-1.762 1.76h-14.09a1.76 1.76 0 0 1-1.761-1.76z"/><path stroke="url(#i)" stroke-opacity=".58" d="M120.766 89.24h14.089a1.26 1.26 0 0 1 1.261 1.26v16.721a1.26 1.26 0 0 1-1.261 1.259h-14.089a1.26 1.26 0 0 1-1.262-1.259V90.5c0-.695.565-1.26 1.262-1.26Z"/></g><g filter="url(#j)"><g filter="url(#k)"><path fill="#e4e0da" d="M140.139 90.5c0-.972.788-1.76 1.761-1.76h15.851c.973 0 1.762.788 1.762 1.76v16.72c0 .972-.789 1.76-1.762 1.76H141.9a1.76 1.76 0 0 1-1.761-1.76z"/><path stroke="url(#l)" stroke-opacity=".58" d="M141.9 89.24h15.851c.697 0 1.262.565 1.262 1.26v16.721a1.26 1.26 0 0 1-1.262 1.259H141.9a1.26 1.26 0 0 1-1.261-1.259V90.5a1.26 1.26 0 0 1 1.132-1.253z"/></g><path fill="#939191" fill-rule="evenodd" d="M155.99 95.78a.88.88 0 0 1-.88.88h-11.45a.88.88 0 0 1 0-1.76h11.45a.88.88 0 0 1 .88.88M153.348 100.18a.88.88 0 0 1-.88.88h-8.808a.88.88 0 0 1 0-1.76h8.808a.88.88 0 0 1 .88.88" clip-rule="evenodd"/></g><path fill="#868582" fill-rule="evenodd" d="M83.874 57.866a.88.88 0 0 1-.88.88h-11.9a.88.88 0 1 1 0-1.76h11.9a.88.88 0 0 1 .88.88M81.313 64.656a.88.88 0 0 1-.88.88h-9.34a.88.88 0 0 1 0-1.76h9.34a.88.88 0 0 1 .88.88M84.728 71.446a.88.88 0 0 1-.88.88H71.094a.88.88 0 0 1 0-1.76h12.754a.88.88 0 0 1 .88.88M76.19 78.236a.88.88 0 0 1-.88.88h-4.216a.88.88 0 0 1 0-1.76h4.216a.88.88 0 0 1 .88.88M82.167 85.026a.88.88 0 0 1-.88.88H71.094a.88.88 0 0 1 0-1.76h10.193a.88.88 0 0 1 .88.88M77.898 91.816a.88.88 0 0 1-.88.88h-5.924a.88.88 0 0 1 0-1.76h5.924a.88.88 0 0 1 .88.88" clip-rule="evenodd"/><path fill="#e1dddd" d="M164.795 46.18v2.96H64.403v-2.96c0-2.238 1.943-4.08 4.303-4.08h91.787c2.359 0 4.302 1.842 4.302 4.08"/><path fill="#ccc" d="M68.914 47.14c.728 0 1.319-.587 1.319-1.312 0-.724-.59-1.311-1.319-1.311-.728 0-1.318.587-1.318 1.311 0 .725.59 1.312 1.318 1.312"/><path fill="#5f5f5f" d="M73.009 47.14c.728 0 1.318-.587 1.318-1.312 0-.724-.59-1.311-1.318-1.311s-1.319.587-1.319 1.311c0 .725.59 1.312 1.319 1.312" opacity=".6"/><path fill="#5c5c5c" d="M77.172 47.14c.728 0 1.319-.587 1.319-1.312 0-.724-.59-1.311-1.319-1.311-.728 0-1.319.587-1.319 1.311 0 .725.59 1.312 1.319 1.312" opacity=".4"/><path fill="#d9d2c7" d="m111.472 64.588-.047-4.088c4.737.316 8.47 4.1 8.574 8.62.048 2.896-1.526 5.457-3.929 6.912l-2.182-3.712c1.065-.74 1.709-1.95 1.731-3.394-.017-2.129-1.883-4.021-4.147-4.338"/><path fill="#d5cab9" d="m110.495 60.604.046 4.054c-1.368.112-2.602.83-3.323 1.936l-3.625-2.313c1.435-2.13 3.903-3.564 6.902-3.677"/><path fill="#bcb9b3" d="m102.819 65.355 3.71 2.318c-.122.409-.245.817-.194 1.328-.003 2.358 2.104 4.343 4.72 4.443q1.087-.014 1.924-.308l2.163 3.591a8.9 8.9 0 0 1-4.041.764c-4.97-.09-9.011-3.958-9.101-8.599.008-1.262.286-2.497.819-3.537"/><path fill="#939191" fill-rule="evenodd" d="M155 66.55a1 1 0 0 1-1 1h-25a1 1 0 0 1-1-1v-.05a1 1 0 0 1 1-1h25a1 1 0 0 1 1 1zM142.478 73.5a1 1 0 0 1-1 1H129a1 1 0 0 1-1-1v-.05a1 1 0 0 1 1-1h12.478a1 1 0 0 1 1 1z" clip-rule="evenodd"/><g filter="url(#m)"><path fill="url(#n)" d="M169.485 120.95c-.346 1.47-.865 3.027-1.47 4.325-1.644 3.2-4.238 5.708-7.439 7.352-3.287 1.643-7.179 2.335-11.071 1.47-9.169-1.903-15.05-10.898-13.147-20.067 1.902-9.168 10.811-15.136 19.98-13.147 3.287.692 6.141 2.335 8.563 4.584 4.065 4.065 5.795 9.947 4.584 15.483"/><path fill="url(#o)" fill-opacity=".7" d="M169.485 120.95c-.346 1.47-.865 3.027-1.47 4.325-1.644 3.2-4.238 5.708-7.439 7.352-3.287 1.643-7.179 2.335-11.071 1.47-9.169-1.903-15.05-10.898-13.147-20.067 1.902-9.168 10.811-15.136 19.98-13.147 3.287.692 6.141 2.335 8.563 4.584 4.065 4.065 5.795 9.947 4.584 15.483"/><path stroke="url(#p)" d="M136.847 114.132c1.848-8.904 10.495-14.69 19.384-12.761l.004.001c3.184.67 5.959 2.264 8.326 4.461 3.935 3.944 5.607 9.642 4.437 15.002-.339 1.44-.846 2.96-1.434 4.221-1.593 3.097-4.107 5.529-7.216 7.126-3.197 1.597-6.971 2.264-10.735 1.427l-.096.433.096-.434-.007-.001-.415-.091c-8.658-2.028-14.162-10.624-12.344-19.384Z"/></g><g filter="url(#q)"><path fill="url(#r)" d="M158.327 116.019h-3.893v-3.892c0-.778-.605-1.47-1.47-1.47-.778 0-1.47.605-1.47 1.47v3.892h-3.893c-.778 0-1.47.606-1.47 1.471s.605 1.47 1.47 1.47h3.893v3.893c0 .778.605 1.47 1.47 1.47.778 0 1.47-.605 1.47-1.47v-3.893h3.893c.778 0 1.47-.605 1.47-1.47s-.692-1.471-1.47-1.471"/><path stroke="#fde290" stroke-width=".2" d="M152.964 110.756c.806 0 1.37.644 1.37 1.371v3.993h3.993c.727 0 1.37.564 1.37 1.37 0 .805-.643 1.37-1.37 1.37h-3.993v3.993c0 .806-.643 1.37-1.37 1.37-.806 0-1.37-.643-1.37-1.37v-3.993h-3.992c-.409 0-.751-.142-.99-.381s-.382-.581-.382-.989a1.36 1.36 0 0 1 1.372-1.37h3.992v-3.993c0-.805.643-1.371 1.37-1.371Z"/></g><path fill="#ebe2d7" d="m191.049 74.214 1.561-.694a.542.542 0 0 0 0-1.04l-1.561-.694a8.8 8.8 0 0 1-4.335-4.335l-.694-1.56a.542.542 0 0 0-1.04 0l-.694 1.56a8.8 8.8 0 0 1-4.335 4.335l-1.561.694a.542.542 0 0 0 0 1.04l1.561.694a8.8 8.8 0 0 1 4.335 4.335l.694 1.56c.173.521.867.521 1.04 0l.694-1.56c.694-1.907 2.254-3.468 4.335-4.335M49.712 43.276l1.03-.517c.344-.173.344-.518 0-.69l-1.03-.345a4.92 4.92 0 0 1-2.918-2.93l-.515-1.035c-.172-.345-.515-.345-.687 0l-.343 1.034c-.687 1.38-1.717 2.414-2.919 2.931l-1.201.517c-.172 0-.172.518 0 .518l1.03.517c1.373.517 2.403 1.552 3.09 2.93l.515 1.035c.172.345.515.345.687 0l.343-1.034a4.92 4.92 0 0 1 2.918-2.931M62.936 28.55l.925-.314q.278-.236 0-.472l-.925-.315c-1.11-.314-1.85-1.1-2.404-2.045l-.37-.786q-.277-.235-.555 0l-.37.787c-.37.943-1.295 1.572-2.405 2.044l-.554.315c-.37.157-.37.472 0 .472l.924.315c1.11.314 1.85 1.1 2.405 2.045l.37.786q.277.235.555 0l.37-.787c.185-.943 1.11-1.73 2.034-2.044M53.659 127.957l1.873-.833a.65.65 0 0 0 0-1.248l-1.873-.833a10.55 10.55 0 0 1-5.202-5.202l-.833-1.873a.65.65 0 0 0-1.248 0l-.833 1.873a10.55 10.55 0 0 1-5.202 5.202l-1.873.833a.65.65 0 0 0 0 1.248l1.873.833a10.55 10.55 0 0 1 5.202 5.202l.833 1.873a.65.65 0 0 0 1.248 0l.833-1.873c.832-2.289 2.705-4.162 5.202-5.202M181.712 100.698l1.03-.465c.344-.155.344-.466 0-.62l-1.03-.311c-1.373-.466-2.403-1.397-2.918-2.638l-.515-.931c-.172-.31-.515-.31-.687 0l-.343.93c-.687 1.242-1.717 2.173-2.919 2.639l-1.201.465c-.172 0-.172.466 0 .466l1.03.465c1.373.466 2.403 1.397 3.09 2.638l.515.931c.172.311.515.311.687 0l.343-.931c.515-1.241 1.545-2.172 2.918-2.638"/><defs><linearGradient id="b" x1="114.567" x2="114.567" y1="40.431" y2="115.038" gradientUnits="userSpaceOnUse"><stop stop-color="#f6f6f6"/><stop offset=".996" stop-color="#eaeaea"/></linearGradient><linearGradient id="c" x1="114.599" x2="114.599" y1="42.1" y2="114.26" gradientUnits="userSpaceOnUse"><stop stop-color="#fff"/><stop offset=".048" stop-color="#d6d6d6" stop-opacity="0"/></linearGradient><linearGradient id="e" x1="95.226" x2="96.298" y1="76.935" y2="87.918" gradientUnits="userSpaceOnUse"><stop stop-color="#c6c6c6" stop-opacity="0"/><stop offset="1" stop-color="#fff2cb"/></linearGradient><linearGradient id="g" x1="95.226" x2="96.987" y1="104.29" y2="111.849" gradientUnits="userSpaceOnUse"><stop stop-color="#c6c6c6" stop-opacity="0"/><stop offset="1" stop-color="#fff2cb"/></linearGradient><linearGradient id="i" x1="119.004" x2="120.92" y1="104.29" y2="111.768" gradientUnits="userSpaceOnUse"><stop stop-color="#c6c6c6" stop-opacity="0"/><stop offset="1" stop-color="#fff2cb"/></linearGradient><linearGradient id="l" x1="140.139" x2="141.9" y1="104.29" y2="111.849" gradientUnits="userSpaceOnUse"><stop stop-color="#c6c6c6" stop-opacity="0"/><stop offset="1" stop-color="#fff2cb"/></linearGradient><linearGradient id="n" x1="152.921" x2="152.921" y1="99.714" y2="134.838" gradientUnits="userSpaceOnUse"><stop stop-color="#d5d4d4"/><stop offset=".996" stop-color="#828282"/></linearGradient><linearGradient id="p" x1="152.932" x2="152.932" y1="100.5" y2="134.472" gradientUnits="userSpaceOnUse"><stop offset=".024" stop-color="#fff2cb"/><stop offset=".13" stop-color="#ededed"/><stop offset=".496" stop-color="#b6b6b6" stop-opacity="0"/></linearGradient><linearGradient id="r" x1="152.964" x2="152.964" y1="110.657" y2="124.323" gradientUnits="userSpaceOnUse"><stop stop-color="#ffe8a4"/><stop offset="1" stop-color="#ffd24a"/></linearGradient><filter id="a" width="132.392" height="104.16" x="48.403" y="30.1" color-interpolation-filters="sRGB" filterUnits="userSpaceOnUse"><feFlood flood-opacity="0" result="BackgroundImageFix"/><feColorMatrix in="SourceAlpha" result="hardAlpha" values="0 0 0 0 0 0 0 0 0 0 0 0 0 0 0 0 0 0 127 0"/><feOffset dy="4"/><feGaussianBlur stdDeviation="8"/><feComposite in2="hardAlpha" operator="out"/><feColorMatrix values="0 0 0 0 0 0 0 0 0 0 0 0 0 0 0 0 0 0 0.14 0"/><feBlend in2="BackgroundImageFix" result="effect1_dropShadow_7169_1676"/><feColorMatrix in="SourceAlpha" result="hardAlpha" values="0 0 0 0 0 0 0 0 0 0 0 0 0 0 0 0 0 0 127 0"/><feOffset dy="1"/><feGaussianBlur stdDeviation=".5"/><feComposite in2="hardAlpha" operator="out"/><feColorMatrix values="0 0 0 0 0 0 0 0 0 0 0 0 0 0 0 0 0 0 0.08 0"/><feBlend in2="effect1_dropShadow_7169_1676" result="effect2_dropShadow_7169_1676"/><feBlend in="SourceGraphic" in2="effect2_dropShadow_7169_1676" result="shape"/></filter><filter id="d" width="66.286" height="30.16" x="94.226" y="55.3" color-interpolation-filters="sRGB" filterUnits="userSpaceOnUse"><feFlood flood-opacity="0" result="BackgroundImageFix"/><feColorMatrix in="SourceAlpha" result="hardAlpha" values="0 0 0 0 0 0 0 0 0 0 0 0 0 0 0 0 0 0 127 0"/><feOffset dy="1"/><feGaussianBlur stdDeviation=".5"/><feComposite in2="hardAlpha" operator="out"/><feColorMatrix values="0 0 0 0 0 0 0 0 0 0 0 0 0 0 0 0 0 0 0.08 0"/><feBlend in2="BackgroundImageFix" result="effect1_dropShadow_7169_1676"/><feBlend in="SourceGraphic" in2="effect1_dropShadow_7169_1676" result="shape"/></filter><filter id="f" width="21.374" height="22.24" x="94.226" y="88.74" color-interpolation-filters="sRGB" filterUnits="userSpaceOnUse"><feFlood flood-opacity="0" result="BackgroundImageFix"/><feColorMatrix in="SourceAlpha" result="hardAlpha" values="0 0 0 0 0 0 0 0 0 0 0 0 0 0 0 0 0 0 127 0"/><feOffset dy="1"/><feGaussianBlur stdDeviation=".5"/><feComposite in2="hardAlpha" operator="out"/><feColorMatrix values="0 0 0 0 0 0 0 0 0 0 0 0 0 0 0 0 0 0 0.08 0"/><feBlend in2="BackgroundImageFix" result="effect1_dropShadow_7169_1676"/><feBlend in="SourceGraphic" in2="effect1_dropShadow_7169_1676" result="shape"/></filter><filter id="h" width="19.613" height="22.24" x="118.004" y="88.74" color-interpolation-filters="sRGB" filterUnits="userSpaceOnUse"><feFlood flood-opacity="0" result="BackgroundImageFix"/><feColorMatrix in="SourceAlpha" result="hardAlpha" values="0 0 0 0 0 0 0 0 0 0 0 0 0 0 0 0 0 0 127 0"/><feOffset dy="1"/><feGaussianBlur stdDeviation=".5"/><feComposite in2="hardAlpha" operator="out"/><feColorMatrix values="0 0 0 0 0 0 0 0 0 0 0 0 0 0 0 0 0 0 0.08 0"/><feBlend in2="BackgroundImageFix" result="effect1_dropShadow_7169_1676"/><feBlend in="SourceGraphic" in2="effect1_dropShadow_7169_1676" result="shape"/></filter><filter id="j" width="51.374" height="52.24" x="124.139" y="76.74" color-interpolation-filters="sRGB" filterUnits="userSpaceOnUse"><feFlood flood-opacity="0" result="BackgroundImageFix"/><feColorMatrix in="SourceAlpha" result="hardAlpha" values="0 0 0 0 0 0 0 0 0 0 0 0 0 0 0 0 0 0 127 0"/><feOffset dy="4"/><feGaussianBlur stdDeviation="8"/><feComposite in2="hardAlpha" operator="out"/><feColorMatrix values="0 0 0 0 0 0 0 0 0 0 0 0 0 0 0 0 0 0 0.14 0"/><feBlend in2="BackgroundImageFix" result="effect1_dropShadow_7169_1676"/><feColorMatrix in="SourceAlpha" result="hardAlpha" values="0 0 0 0 0 0 0 0 0 0 0 0 0 0 0 0 0 0 127 0"/><feOffset dy="1"/><feGaussianBlur stdDeviation=".5"/><feComposite in2="hardAlpha" operator="out"/><feColorMatrix values="0 0 0 0 0 0 0 0 0 0 0 0 0 0 0 0 0 0 0.08 0"/><feBlend in2="effect1_dropShadow_7169_1676" result="effect2_dropShadow_7169_1676"/><feBlend in="SourceGraphic" in2="effect2_dropShadow_7169_1676" result="shape"/></filter><filter id="k" width="21.374" height="22.24" x="139.139" y="88.74" color-interpolation-filters="sRGB" filterUnits="userSpaceOnUse"><feFlood flood-opacity="0" result="BackgroundImageFix"/><feColorMatrix in="SourceAlpha" result="hardAlpha" values="0 0 0 0 0 0 0 0 0 0 0 0 0 0 0 0 0 0 127 0"/><feOffset dy="1"/><feGaussianBlur stdDeviation=".5"/><feComposite in2="hardAlpha" operator="out"/><feColorMatrix values="0 0 0 0 0 0 0 0 0 0 0 0 0 0 0 0 0 0 0.08 0"/><feBlend in2="BackgroundImageFix" result="effect1_dropShadow_7169_1676"/><feBlend in="SourceGraphic" in2="effect1_dropShadow_7169_1676" result="shape"/></filter><filter id="m" width="65.865" height="65.972" x="122" y="90.5" color-interpolation-filters="sRGB" filterUnits="userSpaceOnUse"><feFlood flood-opacity="0" result="BackgroundImageFix"/><feColorMatrix in="SourceAlpha" result="hardAlpha" values="0 0 0 0 0 0 0 0 0 0 0 0 0 0 0 0 0 0 127 0"/><feOffset dx="2" dy="6"/><feGaussianBlur stdDeviation="8"/><feComposite in2="hardAlpha" operator="out"/><feColorMatrix values="0 0 0 0 0 0 0 0 0 0 0 0 0 0 0 0 0 0 0.24 0"/><feBlend in2="BackgroundImageFix" result="effect1_dropShadow_7169_1676"/><feColorMatrix in="SourceAlpha" result="hardAlpha" values="0 0 0 0 0 0 0 0 0 0 0 0 0 0 0 0 0 0 127 0"/><feOffset dy="1"/><feGaussianBlur stdDeviation="1"/><feComposite in2="hardAlpha" operator="out"/><feColorMatrix values="0 0 0 0 0 0 0 0 0 0 0 0 0 0 0 0 0 0 0.24 0"/><feBlend in2="effect1_dropShadow_7169_1676" result="effect2_dropShadow_7169_1676"/><feBlend in="SourceGraphic" in2="effect2_dropShadow_7169_1676" result="shape"/></filter><filter id="q" width="45.666" height="45.666" x="130.131" y="94.657" color-interpolation-filters="sRGB" filterUnits="userSpaceOnUse"><feFlood flood-opacity="0" result="BackgroundImageFix"/><feColorMatrix in="SourceAlpha" result="hardAlpha" values="0 0 0 0 0 0 0 0 0 0 0 0 0 0 0 0 0 0 127 0"/><feOffset dy="2"/><feGaussianBlur stdDeviation="2"/><feComposite in2="hardAlpha" operator="out"/><feColorMatrix values="0 0 0 0 0 0 0 0 0 0 0 0 0 0 0 0 0 0 0.23 0"/><feBlend in2="BackgroundImageFix" result="effect1_dropShadow_7169_1676"/><feColorMatrix in="SourceAlpha" result="hardAlpha" values="0 0 0 0 0 0 0 0 0 0 0 0 0 0 0 0 0 0 127 0"/><feOffset/><feGaussianBlur stdDeviation="8"/><feComposite in2="hardAlpha" operator="out"/><feColorMatrix values="0 0 0 0 1 0 0 0 0 0.905273 0 0 0 0 0.621094 0 0 0 1 0"/><feBlend in2="effect1_dropShadow_7169_1676" result="effect2_dropShadow_7169_1676"/><feBlend in="SourceGraphic" in2="effect2_dropShadow_7169_1676" result="shape"/></filter><radialGradient id="o" cx="0" cy="0" r="1" gradientTransform="matrix(0 16.9858 -16.9323 0 152.932 117.486)" gradientUnits="userSpaceOnUse"><stop offset=".178" stop-color="#faedc4"/><stop offset="1" stop-color="#b9b9b9" stop-opacity="0"/></radialGradient></defs></svg>