<svg width="32" height="32" viewBox="0 0 32 32" fill="none" xmlns="http://www.w3.org/2000/svg">
<path d="M11.5 29C10.1193 29 9 27.8807 9 26.5V26H8C6.89543 26 6 25.1046 6 24V22H5C3.34315 22 2 20.6569 2 19V7C2 5.34315 3.34315 4 5 4H27C28.6569 4 30 5.34315 30 7V19C30 20.6569 28.6569 22 27 22H26V23C26 24.1046 25.1046 25 24 25H23V26.5C23 27.8807 21.8807 29 20.5 29H11.5ZM11 26.5C11 26.7761 11.2239 27 11.5 27H20.5C20.7761 27 21 26.7761 21 26.5V24.01C21 23.4522 21.4522 23 22.01 23H24V21.01C24 20.4522 24.4522 20 25.01 20H27C27.5523 20 28 19.5523 28 19V7C28 6.44772 27.5523 6 27 6H5C4.44772 6 4 6.44772 4 7V19C4 19.5523 4.44772 20 5 20H6.99C7.54781 20 8 20.4522 8 21.01V24H9.99C10.5478 24 11 24.4522 11 25.01V26.5ZM11 10C11 9.44772 10.5523 9 10 9C9.44772 9 9 9.44772 9 10V15C9 15.5523 9.44772 16 10 16C10.5523 16 11 15.5523 11 15V10ZM15 10C15 9.44772 14.5523 9 14 9C13.4477 9 13 9.44772 13 10V15C13 15.5523 13.4477 16 14 16C14.5523 16 15 15.5523 15 15V10ZM19 10C19 9.44772 18.5523 9 18 9C17.4477 9 17 9.44772 17 10V15C17 15.5523 17.4477 16 18 16C18.5523 16 19 15.5523 19 15V10ZM23 10C23 9.44772 22.5523 9 22 9C21.4477 9 21 9.44772 21 10V15C21 15.5523 21.4477 16 22 16C22.5523 16 23 15.5523 23 15V10Z" fill="#212121"/>
</svg>
