<svg width="20" height="20" viewBox="0 0 20 20" fill="none" xmlns="http://www.w3.org/2000/svg">
<path d="M8.5 17C7.67157 17 7 16.3284 7 15.5V15H6C5.44772 15 5 14.5523 5 14V13H4C2.89543 13 2 12.1046 2 11V4C2 2.89543 2.89543 2 4 2H16C17.1046 2 18 2.89543 18 4V11C18 12.1046 17.1046 13 16 13H15V14C15 14.5523 14.5523 15 14 15H13V15.5C13 16.3284 12.3284 17 11.5 17H8.5ZM6 5.5C6 5.22386 5.77614 5 5.5 5C5.22386 5 5 5.22386 5 5.5V8.5C5 8.77614 5.22386 9 5.5 9C5.77614 9 6 8.77614 6 8.5V5.5ZM9 5.5C9 5.22386 8.77614 5 8.5 5C8.22386 5 8 5.22386 8 5.5V8.5C8 8.77614 8.22386 9 8.5 9C8.77614 9 9 8.77614 9 8.5V5.5ZM12 5.5C12 5.22386 11.7761 5 11.5 5C11.2239 5 11 5.22386 11 5.5V8.5C11 8.77614 11.2239 9 11.5 9C11.7761 9 12 8.77614 12 8.5V5.5ZM15 5.5C15 5.22386 14.7761 5 14.5 5C14.2239 5 14 5.22386 14 5.5V8.5C14 8.77614 14.2239 9 14.5 9C14.7761 9 15 8.77614 15 8.5V5.5Z" fill="#212121"/>
</svg>
