<svg width="20" height="20" viewBox="0 0 20 20" fill="none" xmlns="http://www.w3.org/2000/svg">
<path d="M8.5 17C7.67157 17 7 16.3284 7 15.5V15H6.5C5.67157 15 5 14.3284 5 13.5V13H4C2.89543 13 2 12.1046 2 11V4C2 2.89543 2.89543 2 4 2H16C17.1046 2 18 2.89543 18 4V11C18 12.1046 17.1046 13 16 13H15V13.5C15 14.3284 14.3284 15 13.5 15H13V15.5C13 16.3284 12.3284 17 11.5 17H8.5ZM8 15.5C8 15.7761 8.22386 16 8.5 16H11.5C11.7761 16 12 15.7761 12 15.5V14.51C12 14.2283 12.2283 14 12.51 14H13.5C13.7761 14 14 13.7761 14 13.5V12.51C14 12.2283 14.2283 12 14.51 12H16C16.5523 12 17 11.5523 17 11V4C17 3.44772 16.5523 3 16 3H4C3.44772 3 3 3.44771 3 4V11C3 11.5523 3.44772 12 4 12H5.49C5.77166 12 6 12.2283 6 12.51V13.5C6 13.7761 6.22386 14 6.5 14H7.49C7.77166 14 8 14.2283 8 14.51V15.5ZM6 5.5C6 5.22386 5.77614 5 5.5 5C5.22386 5 5 5.22386 5 5.5V8.5C5 8.77614 5.22386 9 5.5 9C5.77614 9 6 8.77614 6 8.5V5.5ZM9 5.5C9 5.22386 8.77614 5 8.5 5C8.22386 5 8 5.22386 8 5.5V8.5C8 8.77614 8.22386 9 8.5 9C8.77614 9 9 8.77614 9 8.5V5.5ZM12 5.5C12 5.22386 11.7761 5 11.5 5C11.2239 5 11 5.22386 11 5.5V8.5C11 8.77614 11.2239 9 11.5 9C11.7761 9 12 8.77614 12 8.5V5.5ZM15 5.5C15 5.22386 14.7761 5 14.5 5C14.2239 5 14 5.22386 14 5.5V8.5C14 8.77614 14.2239 9 14.5 9C14.7761 9 15 8.77614 15 8.5V5.5Z" fill="#212121"/>
</svg>
