<svg width="20" height="20" viewBox="0 0 20 20" fill="none" xmlns="http://www.w3.org/2000/svg">
<path d="M8 2C11.3137 2 14 4.59693 14 7.80041C14 8.56283 13.8459 9.29675 13.5408 9.99997H13.0001C12.7014 9.99997 12.4333 10.1309 12.25 10.3386L12.2381 10.3253C12.7493 9.52012 13 8.67975 13 7.80041C13 5.15693 10.7689 3 8 3C5.36782 3 3.21188 4.95301 3.0151 7.41357L3.00307 7.62569L2.99977 7.77916L3.00416 7.99642C3.05977 9.30026 3.67758 10.5208 4.89167 11.6671C5.07995 11.8449 5.22191 12.0647 5.30572 12.3078L5.34894 12.4564L5.716 14H9V15H5.955L6.27386 16.3344L6.30004 16.4305C6.39695 16.7298 6.67583 16.9517 7.0116 16.993L7.12546 17L8.83787 17.0007L8.94423 16.9974C8.96299 16.996 8.98159 16.9941 9 16.9916V17.3819C8.81423 17.5482 8.67014 17.7601 8.58535 18H7.12546C6.30655 18 5.59 17.4839 5.34866 16.7385L5.31108 16.6047L4.37626 12.6886C4.34955 12.5766 4.29016 12.4745 4.20516 12.3942C2.8153 11.0819 2.07265 9.62354 2.00507 8.03903L2 7.80041L2.00321 7.60894C2.1077 4.49409 4.75257 2 8 2ZM10 11C9.72386 11 9.5 11.2239 9.5 11.5C9.5 11.7761 9.72386 12 10 12V18C9.72386 18 9.5 18.2239 9.5 18.5C9.5 18.7761 9.72386 19 10 19H10.5H11C11.2761 19 11.5 18.7761 11.5 18.5C11.5 18.2239 11.2761 18 11 18V12C11.2761 12 11.5 11.7761 11.5 11.5C11.5 11.2239 11.2761 11 11 11H10.5H10ZM13 11.6C13 11.2686 13.2686 11 13.6 11H15.5C16.2491 11 16.853 11.266 17.2683 11.702C17.6774 12.1316 17.875 12.6962 17.875 13.25C17.875 13.8038 17.6774 14.3684 17.2683 14.798C17.0127 15.0663 16.6857 15.2703 16.2973 15.3875L17.9341 18.2519C18.0711 18.4917 17.9878 18.7971 17.7481 18.9341C17.5083 19.0711 17.2029 18.9878 17.0659 18.7481L15.2098 15.5H14V18.5C14 18.7761 13.7761 19 13.5 19C13.2239 19 13 18.7761 13 18.5V15V11.6ZM15.508 14.5C16.0044 14.4982 16.3356 14.3273 16.5442 14.1083C16.7601 13.8816 16.875 13.5712 16.875 13.25C16.875 12.9288 16.7601 12.6184 16.5442 12.3917C16.3345 12.1715 16.0009 12 15.5 12H14V14.5H15.4903C15.4962 14.4999 15.5021 14.4999 15.508 14.5Z" fill="#242424"/>
</svg>
