<svg width="20" height="20" viewBox="0 0 20 20" fill="none" xmlns="http://www.w3.org/2000/svg">
<path d="M8.50004 17.3819V15H4.928L5.31108 16.6047L5.34866 16.7385C5.59 17.4839 6.30655 18 7.12546 18H8.08534C8.17014 17.7601 8.31425 17.5482 8.50004 17.3819ZM13.0001 9.50001H13.7306C13.9097 8.95083 14 8.38397 14 7.80041C14 4.59693 11.3137 2 8 2C4.75257 2 2.1077 4.49409 2.00321 7.60894L2 7.80041L2.00507 8.03903C2.07265 9.62354 2.8153 11.0819 4.20516 12.3942C4.29016 12.4745 4.34955 12.5766 4.37626 12.6886L4.689 14H8.50004V12.8229C8.18886 12.4704 8.00004 12.0072 8.00004 11.5C8.00004 10.3954 8.89547 9.50001 10 9.50001H11C11.3975 9.50001 11.7679 9.61596 12.0792 9.81588C12.3334 9.61792 12.653 9.50001 13.0001 9.50001ZM10 11C9.72386 11 9.5 11.2239 9.5 11.5C9.5 11.7761 9.72386 12 10 12V18C9.72386 18 9.5 18.2239 9.5 18.5C9.5 18.7761 9.72386 19 10 19H10.5H11C11.2761 19 11.5 18.7761 11.5 18.5C11.5 18.2239 11.2761 18 11 18V12C11.2761 12 11.5 11.7761 11.5 11.5C11.5 11.2239 11.2761 11 11 11H10.5H10ZM13.6 11C13.2686 11 13 11.2686 13 11.6V15V18.5C13 18.7761 13.2239 19 13.5 19C13.7761 19 14 18.7761 14 18.5V15.5H15.2098L17.0659 18.7481C17.2029 18.9878 17.5083 19.0711 17.7481 18.9341C17.9878 18.7971 18.0711 18.4917 17.9341 18.2519L16.2973 15.3875C16.6857 15.2703 17.0127 15.0663 17.2683 14.798C17.6774 14.3684 17.875 13.8038 17.875 13.25C17.875 12.6962 17.6774 12.1316 17.2683 11.702C16.853 11.266 16.2491 11 15.5 11H13.6ZM15.4903 14.5H14V12H15.5C16.0009 12 16.3345 12.1715 16.5442 12.3917C16.7601 12.6184 16.875 12.9288 16.875 13.25C16.875 13.5712 16.7601 13.8816 16.5442 14.1083C16.3356 14.3273 16.0044 14.4982 15.508 14.5C15.5021 14.4999 15.4962 14.4999 15.4903 14.5Z" fill="#242424"/>
</svg>
