<svg width="12" height="12" viewBox="0 0 12 12" fill="none" xmlns="http://www.w3.org/2000/svg">
<path d="M8.53799 4.22V7.13H9.32341V3.835C9.32341 3.79 9.31315 3.74 9.29261 3.695C9.27208 3.65 9.24641 3.605 9.21048 3.57L6.74641 1.115C6.71048 1.08 6.66427 1.05 6.61807 1.03C6.57187 1.01 6.52054 1 6.46407 1H2.19302C1.81314 1 1.5 1.305 1.5 1.675V9.54501C1.5 9.91501 1.81314 10.22 2.19302 10.22H3.25565V9.49001H2.28542L2.24949 1.765H6.06879V3.545C6.06879 3.915 6.38193 4.22 6.76181 4.22H8.53799ZM6.85935 2.325L8.00924 3.47L6.85935 3.49V2.325Z" fill="#212121"/>
<path d="M5.29854 8.31033C5.41148 8.33533 5.55522 8.38533 5.72462 8.45533L5.78109 8.47533L6.05316 7.84033L6.00183 7.82033C5.83242 7.75033 5.66302 7.69033 5.50388 7.65033C5.34474 7.61033 5.17534 7.59033 5.0008 7.59033C4.64146 7.59033 4.35398 7.67533 4.14351 7.84533C3.93304 8.02033 3.82523 8.26033 3.82523 8.56033C3.82523 8.72033 3.85604 8.86033 3.92277 8.98033C3.98951 9.10033 4.07164 9.20533 4.17944 9.29533C4.28725 9.38533 4.43612 9.47533 4.64659 9.57033C4.85706 9.66533 4.99567 9.74033 5.06754 9.78533C5.12914 9.82533 5.18047 9.87033 5.21127 9.91033C5.24207 9.95033 5.25234 9.99533 5.25234 10.0453C5.25234 10.1403 5.22154 10.2053 5.1548 10.2553C5.02133 10.3503 4.74413 10.3553 4.43098 10.2703C4.28211 10.2303 4.09218 10.1653 3.87657 10.0703L3.79443 10.0353V10.7903L3.82523 10.8053C4.10244 10.9353 4.42585 11.0053 4.78519 11.0053C5.18047 11.0053 5.49361 10.9153 5.71435 10.7403C5.94023 10.5653 6.0583 10.3153 6.0583 10.0103C6.0583 9.79033 5.99669 9.60033 5.87349 9.44533C5.75542 9.29533 5.53468 9.14533 5.22154 8.99533C4.99053 8.89033 4.8468 8.81533 4.78519 8.77533C4.72873 8.74033 4.68766 8.70033 4.66712 8.66533C4.64659 8.63033 4.63119 8.58533 4.63119 8.54033C4.63119 8.46033 4.65686 8.39533 4.71846 8.35033C4.8314 8.25533 5.0778 8.26033 5.30881 8.31533L5.29854 8.31033Z" fill="#212121"/>
<path d="M6.15625 8.31525H7.05461V10.9553H7.87083V8.31525H8.76405V7.63525H6.15625V8.31525Z" fill="#212121"/>
<path d="M11.1664 7.90025C10.9508 7.72525 10.6274 7.63525 10.2167 7.63525H9.10791V10.9553H9.92413V9.81525H10.1654C10.5864 9.81525 10.9149 9.72025 11.1459 9.52525C11.382 9.33025 11.5001 9.05025 11.5001 8.69025C11.5001 8.33025 11.3872 8.07525 11.1664 7.89525V7.90025ZM10.6788 8.72025C10.6788 8.86025 10.6326 8.96525 10.5401 9.03525C10.4426 9.11025 10.2937 9.14526 10.0935 9.14526H9.92413V8.31025H10.1808C10.3553 8.31025 10.4837 8.34525 10.5607 8.41025C10.6377 8.47525 10.6736 8.58025 10.6736 8.72025H10.6788Z" fill="#212121"/>
</svg>
