<svg width="28" height="28" viewBox="0 0 28 28" fill="none" xmlns="http://www.w3.org/2000/svg">
<path d="M12.3637 19.3902C12.6272 19.4485 12.9626 19.5652 13.3579 19.7285L13.4896 19.7752L14.1245 18.2935L14.0047 18.2469C13.6094 18.0835 13.2141 17.9435 12.8428 17.8502C12.4715 17.7569 12.0762 17.7102 11.669 17.7102C10.8305 17.7102 10.1597 17.9085 9.66863 18.3052C9.17753 18.7135 8.92599 19.2735 8.92599 19.9735C8.92599 20.3469 8.99785 20.6735 9.15357 20.9535C9.30928 21.2335 9.50093 21.4785 9.75247 21.6885C10.004 21.8985 10.3514 22.1085 10.8425 22.3302C11.3336 22.5519 11.657 22.7269 11.8247 22.8319C11.9684 22.9252 12.0882 23.0302 12.1601 23.1235C12.2319 23.2169 12.2559 23.3219 12.2559 23.4385C12.2559 23.6602 12.184 23.8119 12.0283 23.9285C11.7169 24.1502 11.0701 24.1619 10.3394 23.9635C9.99204 23.8702 9.54885 23.7185 9.04577 23.4969L8.85412 23.4152V25.1769L8.92599 25.2119C9.5728 25.5152 10.3274 25.6785 11.1659 25.6785C12.0882 25.6785 12.8189 25.4685 13.3339 25.0602C13.861 24.6519 14.1365 24.0685 14.1365 23.3569C14.1365 22.8435 13.9927 22.4002 13.7052 22.0385C13.4298 21.6885 12.9147 21.3385 12.184 20.9885C11.645 20.7435 11.3096 20.5685 11.1659 20.4752C11.0341 20.3935 10.9383 20.3002 10.8904 20.2185C10.8425 20.1369 10.8065 20.0319 10.8065 19.9269C10.8065 19.7402 10.8664 19.5885 11.0102 19.4835C11.2737 19.2619 11.8486 19.2735 12.3877 19.4019L12.3637 19.3902Z" fill="#212121"/>
<path d="M14.3644 19.4015H16.4606V25.5615H18.3651V19.4015H20.4493V17.8148H14.3644V19.4015Z" fill="#212121"/>
<path d="M26.0546 18.4332C25.5515 18.0248 24.7969 17.8148 23.8386 17.8148H21.2514V25.5615H23.1559V22.9015H23.7188C24.701 22.9015 25.4676 22.6798 26.0067 22.2248C26.5577 21.7698 26.8331 21.1165 26.8331 20.2765C26.8331 19.4365 26.5696 18.8415 26.0546 18.4215V18.4332ZM24.9167 20.3465C24.9167 20.6732 24.8089 20.9182 24.5932 21.0815C24.3657 21.2565 24.0183 21.3382 23.5511 21.3382H23.1559V19.3898H23.7548C24.162 19.3898 24.4615 19.4715 24.6412 19.6232C24.8208 19.7748 24.9047 20.0198 24.9047 20.3465H24.9167Z" fill="#212121"/>
<path d="M14.2582 2.33301L14.2582 8.16652C14.2582 8.99094 14.9266 9.6583 15.7502 9.6583H21.7546V16.415H11.0778C9.06245 16.415 7.43187 18.0548 7.44324 20.0702L7.46455 23.8464H5.11704C4.23066 23.8464 3.5 23.1347 3.5 22.2714V3.90801C3.5 3.04468 4.23066 2.33301 5.11704 2.33301H14.2582Z" fill="#212121"/>
<path d="M16.0755 2.93401L16.0755 7.841H21.0006L16.0755 2.93401Z" fill="#212121"/>
</svg>
