<svg width="32" height="32" viewBox="0 0 32 32" fill="none" xmlns="http://www.w3.org/2000/svg">
<path d="M14.1301 22.1601C14.4313 22.2267 14.8146 22.3601 15.2663 22.5467L15.4169 22.6001L16.1424 20.9067L16.0055 20.8534C15.5538 20.6667 15.102 20.5067 14.6777 20.4001C14.2533 20.2934 13.8016 20.2401 13.3361 20.2401C12.3779 20.2401 11.6113 20.4667 11.05 20.9201C10.4888 21.3867 10.2013 22.0267 10.2013 22.8267C10.2013 23.2534 10.2834 23.6267 10.4614 23.9467C10.6393 24.2667 10.8584 24.5467 11.1458 24.7867C11.4333 25.0267 11.8303 25.2667 12.3916 25.5201C12.9528 25.7734 13.3224 25.9734 13.5141 26.0934C13.6783 26.2001 13.8152 26.3201 13.8974 26.4267C13.9795 26.5334 14.0069 26.6534 14.0069 26.7867C14.0069 27.0401 13.9248 27.2134 13.7468 27.3467C13.3909 27.6001 12.6517 27.6134 11.8166 27.3867C11.4196 27.2801 10.9131 27.1067 10.3382 26.8534L10.1191 26.7601V28.7734L10.2013 28.8134C10.9405 29.1601 11.8029 29.3467 12.7612 29.3467C13.8152 29.3467 14.6503 29.1067 15.2389 28.6401C15.8413 28.1734 16.1561 27.5067 16.1561 26.6934C16.1561 26.1067 15.9918 25.6001 15.6633 25.1867C15.3484 24.7867 14.7598 24.3867 13.9248 23.9867C13.3087 23.7067 12.9254 23.5067 12.7612 23.4001C12.6106 23.3067 12.5011 23.2001 12.4463 23.1067C12.3916 23.0134 12.3505 22.8934 12.3505 22.7734C12.3505 22.5601 12.4189 22.3867 12.5832 22.2667C12.8844 22.0134 13.5415 22.0267 14.1575 22.1734L14.1301 22.1601Z" fill="#212121"/>
<path d="M16.4167 22.1732H18.8123V29.2132H20.9889V22.1732H23.3708V20.3599H16.4167V22.1732Z" fill="#212121"/>
<path d="M29.7765 21.0665C29.2016 20.5999 28.3391 20.3599 27.244 20.3599H24.2871V29.2132H26.4637V26.1732H27.1071C28.2296 26.1732 29.1057 25.9199 29.7217 25.3999C30.3515 24.8799 30.6663 24.1332 30.6663 23.1732C30.6663 22.2132 30.3651 21.5332 29.7765 21.0532V21.0665ZM28.476 23.2532C28.476 23.6265 28.3528 23.9065 28.1064 24.0932C27.8463 24.2932 27.4493 24.3865 26.9154 24.3865H26.4637V22.1599H27.1482C27.6136 22.1599 27.9558 22.2532 28.1612 22.4265C28.3665 22.5999 28.4623 22.8799 28.4623 23.2532H28.476Z" fill="#212121"/>
<path d="M16.3334 2.6665L16.3333 9.33356C16.3333 10.2545 17.08 11 18 11H24.8624V18.7603H12.5056C10.2877 18.7603 8.49318 20.5649 8.50569 22.7828L8.53091 27.2532H5.84805C4.83504 27.2532 4 26.4399 4 25.4532V4.46651C4 3.47984 4.83504 2.6665 5.84805 2.6665H16.3334Z" fill="#212121"/>
<path d="M18.3334 3.31485L18.3333 9H24.0395L18.3334 3.31485Z" fill="#212121"/>
</svg>
