<svg width="28" height="28" viewBox="0 0 28 28" fill="none" xmlns="http://www.w3.org/2000/svg">
<path d="M19.922 9.84635V16.6364H21.7546V8.94801C21.7546 8.84301 21.7307 8.72635 21.6828 8.62135C21.6348 8.51635 21.575 8.41135 21.4911 8.32968L15.7416 2.60134C15.6578 2.51967 15.55 2.44967 15.4422 2.40301C15.3344 2.35634 15.2146 2.33301 15.0828 2.33301H5.11704C4.23066 2.33301 3.5 3.04468 3.5 3.90801V22.2714C3.5 23.1347 4.23066 23.8464 5.11704 23.8464H7.59651V22.143H5.33265L5.2488 4.11801H14.1605V8.27135C14.1605 9.13468 14.8912 9.84635 15.7776 9.84635H19.922ZM16.0051 5.42468L18.6882 8.09635L16.0051 8.14301V5.42468Z" fill="#212121"/>
<path d="M12.3636 19.3904C12.6271 19.4488 12.9625 19.5654 13.3578 19.7288L13.4895 19.7754L14.1244 18.2938L14.0046 18.2471C13.6093 18.0838 13.214 17.9438 12.8427 17.8504C12.4714 17.7571 12.0761 17.7104 11.6689 17.7104C10.8304 17.7104 10.1596 17.9088 9.66852 18.3054C9.17741 18.7138 8.92587 19.2738 8.92587 19.9738C8.92587 20.3471 8.99774 20.6738 9.15346 20.9538C9.30917 21.2338 9.50082 21.4788 9.75236 21.6888C10.0039 21.8988 10.3513 22.1088 10.8424 22.3305C11.3335 22.5521 11.6569 22.7271 11.8246 22.8321C11.9683 22.9255 12.0881 23.0305 12.16 23.1238C12.2318 23.2171 12.2558 23.3221 12.2558 23.4388C12.2558 23.6605 12.1839 23.8121 12.0282 23.9288C11.7168 24.1505 11.07 24.1621 10.3393 23.9638C9.99192 23.8705 9.54873 23.7188 9.04565 23.4971L8.854 23.4155V25.1771L8.92587 25.2121C9.57269 25.5155 10.3273 25.6788 11.1658 25.6788C12.0881 25.6788 12.8188 25.4688 13.3338 25.0605C13.8609 24.6521 14.1363 24.0688 14.1363 23.3571C14.1363 22.8438 13.9926 22.4005 13.7051 22.0388C13.4296 21.6888 12.9146 21.3388 12.1839 20.9888C11.6449 20.7438 11.3095 20.5688 11.1658 20.4755C11.034 20.3938 10.9382 20.3005 10.8903 20.2188C10.8424 20.1371 10.8064 20.0321 10.8064 19.9271C10.8064 19.7404 10.8663 19.5888 11.0101 19.4838C11.2736 19.2621 11.8485 19.2738 12.3875 19.4021L12.3636 19.3904Z" fill="#212121"/>
<path d="M14.3643 19.4016H16.4604V25.5616H18.3649V19.4016H20.4491V17.8149H14.3643V19.4016Z" fill="#212121"/>
<path d="M26.0547 18.4333C25.5516 18.0249 24.797 17.8149 23.8387 17.8149H21.2515V25.5616H23.156V22.9016H23.719C24.7012 22.9016 25.4678 22.6799 26.0068 22.2249C26.5578 21.7699 26.8333 21.1166 26.8333 20.2766C26.8333 19.4366 26.5697 18.8416 26.0547 18.4216V18.4333ZM24.9168 20.3466C24.9168 20.6733 24.809 20.9183 24.5934 21.0816C24.3658 21.2566 24.0184 21.3383 23.5513 21.3383H23.156V19.3899H23.7549C24.1621 19.3899 24.4616 19.4716 24.6413 19.6233C24.8209 19.7749 24.9048 20.0199 24.9048 20.3466H24.9168Z" fill="#212121"/>
</svg>
