<svg width="48" height="48" viewBox="0 0 48 48" fill="none" xmlns="http://www.w3.org/2000/svg">
<path d="M21.1951 33.2404C21.6469 33.3404 22.2218 33.5404 22.8995 33.8204L23.1253 33.9004L24.2136 31.3604L24.0083 31.2804C23.3307 31.0004 22.653 30.7604 22.0165 30.6004C21.3799 30.4404 20.7023 30.3604 20.0042 30.3604C18.5668 30.3604 17.4169 30.7003 16.575 31.3804C15.7331 32.0804 15.3019 33.0404 15.3019 34.2404C15.3019 34.8804 15.4251 35.4404 15.6921 35.9204C15.959 36.4004 16.2875 36.8204 16.7188 37.1804C17.15 37.5404 17.7454 37.9004 18.5873 38.2804C19.4292 38.6604 19.9836 38.9604 20.2711 39.1404C20.5175 39.3004 20.7229 39.4804 20.8461 39.6404C20.9693 39.8004 21.0103 39.9804 21.0103 40.1804C21.0103 40.5604 20.8871 40.8204 20.6202 41.0204C20.0863 41.4004 18.9775 41.4204 17.7249 41.0804C17.1294 40.9204 16.3697 40.6604 15.5073 40.2804L15.1787 40.1404V43.1604L15.3019 43.2204C16.4107 43.7404 17.7044 44.0204 19.1418 44.0204C20.7229 44.0204 21.9754 43.6604 22.8584 42.9604C23.7619 42.2604 24.2342 41.2604 24.2342 40.0404C24.2342 39.1604 23.9878 38.4004 23.4949 37.7804C23.0227 37.1804 22.1397 36.5804 20.8871 35.9804C19.9631 35.5604 19.3882 35.2604 19.1418 35.1004C18.9159 34.9604 18.7516 34.8004 18.6695 34.6604C18.5873 34.5204 18.5257 34.3404 18.5257 34.1604C18.5257 33.8404 18.6284 33.5804 18.8748 33.4004C19.3266 33.0204 20.3122 33.0404 21.2362 33.2604L21.1951 33.2404Z" fill="#212121"/>
<path d="M24.625 33.26H28.2184V43.82H31.4833V33.26H35.0562V30.54H24.625V33.26Z" fill="#212121"/>
<path d="M44.6648 31.6C43.8023 30.9 42.5087 30.54 40.866 30.54H36.4307V43.82H39.6956V39.26H40.6606C42.3444 39.26 43.6586 38.88 44.5826 38.1C45.5272 37.32 45.9995 36.2 45.9995 34.76C45.9995 33.32 45.5477 32.3 44.6648 31.58V31.6ZM42.714 34.88C42.714 35.44 42.5292 35.86 42.1596 36.14C41.7695 36.44 41.174 36.58 40.3732 36.58H39.6956V33.24H40.7222C41.4204 33.24 41.9337 33.38 42.2418 33.64C42.5498 33.9 42.6935 34.32 42.6935 34.88H42.714Z" fill="#212121"/>
<path d="M24.5001 3.99951L24.5 14.0003C24.5 15.3818 25.62 16.5 27 16.5H37.2937V28.1401H18.7584C15.4315 28.1401 12.7398 30.8471 12.7585 34.174L12.7964 40.8795H8.77208C7.25257 40.8795 6 39.6595 6 38.1795V6.69951C6 5.21951 7.25257 3.99951 8.77208 3.99951H24.5001Z" fill="#212121"/>
<path d="M27.5 4.97202L27.5 13.5H36.0595L27.5 4.97202Z" fill="#212121"/>
</svg>
