<svg width="12" height="12" viewBox="0 0 12 12" fill="none" xmlns="http://www.w3.org/2000/svg">
<path d="M5.29903 8.30984C5.41197 8.33484 5.5557 8.38484 5.72511 8.45484L5.78158 8.47484L6.05365 7.83984L6.00232 7.81984C5.83291 7.74984 5.66351 7.68984 5.50437 7.64984C5.34523 7.60984 5.17583 7.58984 5.00129 7.58984C4.64195 7.58984 4.35447 7.67484 4.144 7.84484C3.93353 8.01984 3.82572 8.25984 3.82572 8.55984C3.82572 8.71984 3.85652 8.85984 3.92326 8.97984C3.98999 9.09984 4.07213 9.20484 4.17993 9.29484C4.28774 9.38484 4.43661 9.47484 4.64708 9.56984C4.85755 9.66484 4.99615 9.73984 5.06802 9.78484C5.12963 9.82484 5.18096 9.86985 5.21176 9.90985C5.24256 9.94985 5.25283 9.99485 5.25283 10.0448C5.25283 10.1398 5.22203 10.2048 5.15529 10.2548C5.02182 10.3498 4.74461 10.3548 4.43147 10.2698C4.2826 10.2298 4.09266 10.1648 3.87706 10.0698L3.79492 10.0348V10.7898L3.82572 10.8048C4.10293 10.9348 4.42634 11.0048 4.78568 11.0048C5.18096 11.0048 5.4941 10.9148 5.71484 10.7398C5.94071 10.5648 6.05878 10.3148 6.05878 10.0098C6.05878 9.78985 5.99718 9.59984 5.87398 9.44484C5.75591 9.29484 5.53517 9.14484 5.22203 8.99484C4.99102 8.88984 4.84728 8.81484 4.78568 8.77484C4.72921 8.73984 4.68815 8.69984 4.66761 8.66484C4.64708 8.62984 4.63168 8.58484 4.63168 8.53984C4.63168 8.45984 4.65735 8.39484 4.71895 8.34984C4.83188 8.25484 5.07829 8.25984 5.3093 8.31484L5.29903 8.30984Z" fill="#212121"/>
<path d="M6.15625 8.31525H7.05461V10.9553H7.87083V8.31525H8.76406V7.63525H6.15625V8.31525Z" fill="#212121"/>
<path d="M11.1659 7.90025C10.9503 7.72525 10.6269 7.63525 10.2163 7.63525H9.10742V10.9553H9.92364V9.81525H10.1649C10.5859 9.81525 10.9144 9.72025 11.1454 9.52525C11.3816 9.33025 11.4996 9.05025 11.4996 8.69025C11.4996 8.33025 11.3867 8.07525 11.1659 7.89525V7.90025ZM10.6783 8.72025C10.6783 8.86025 10.6321 8.96525 10.5397 9.03525C10.4421 9.11025 10.2933 9.14526 10.093 9.14526H9.92364V8.31025H10.1803C10.3549 8.31025 10.4832 8.34525 10.5602 8.41025C10.6372 8.47525 10.6731 8.58025 10.6731 8.72025H10.6783Z" fill="#212121"/>
<path d="M6.12501 0.999512L6.125 3.50009C6.125 3.84544 6.405 4.125 6.75 4.125H9.32341V7.03467H4.68961C3.85788 7.03467 3.18494 7.71141 3.18963 8.54313L3.19909 10.2195H2.19302C1.81314 10.2195 1.5 9.91452 1.5 9.54452V1.67451C1.5 1.30451 1.81314 0.999512 2.19302 0.999512H6.12501Z" fill="#212121"/>
<path d="M6.87501 1.24264L6.875 3.375H9.01525L6.87501 1.24264Z" fill="#212121"/>
</svg>
