<svg width="32" height="32" viewBox="0 0 32 32" fill="none" xmlns="http://www.w3.org/2000/svg">
<path d="M22.768 11.2537V19.0137H24.8624V10.227C24.8624 10.107 24.8351 9.97366 24.7803 9.85366C24.7255 9.73366 24.6571 9.61366 24.5613 9.52033L17.9904 2.97366C17.8946 2.88033 17.7714 2.80033 17.6482 2.74699C17.525 2.69366 17.3881 2.66699 17.2375 2.66699H5.84805C4.83504 2.66699 4 3.48033 4 4.46699V25.4537C4 26.4403 4.83504 27.2537 5.84805 27.2537H8.68173V25.307H6.09446L5.99863 4.70699H16.1834V9.45366C16.1834 10.4403 17.0185 11.2537 18.0315 11.2537H22.768ZM18.2916 6.20033L21.358 9.25366L18.2916 9.307V6.20033Z" fill="#212121"/>
<path d="M14.1306 22.1597C14.4317 22.2264 14.815 22.3597 15.2668 22.5464L15.4174 22.5997L16.1429 20.9064L16.006 20.8531C15.5543 20.6664 15.1025 20.5064 14.6782 20.3997C14.2538 20.2931 13.802 20.2397 13.3366 20.2397C12.3784 20.2397 11.6118 20.4664 11.0505 20.9197C10.4892 21.3864 10.2018 22.0264 10.2018 22.8264C10.2018 23.2531 10.2839 23.6264 10.4619 23.9464C10.6398 24.2664 10.8588 24.5464 11.1463 24.7864C11.4338 25.0264 11.8308 25.2664 12.392 25.5197C12.9533 25.7731 13.3229 25.9731 13.5146 26.0931C13.6788 26.1997 13.8157 26.3197 13.8979 26.4264C13.98 26.5331 14.0074 26.6531 14.0074 26.7864C14.0074 27.0397 13.9252 27.2131 13.7473 27.3464C13.3914 27.5998 12.6521 27.6131 11.8171 27.3864C11.4201 27.2798 10.9136 27.1064 10.3387 26.8531L10.1196 26.7597V28.7731L10.2018 28.8131C10.941 29.1598 11.8034 29.3464 12.7617 29.3464C13.8157 29.3464 14.6508 29.1064 15.2394 28.6397C15.8417 28.1731 16.1566 27.5064 16.1566 26.6931C16.1566 26.1064 15.9923 25.5997 15.6638 25.1864C15.3489 24.7864 14.7603 24.3864 13.9252 23.9864C13.3092 23.7064 12.9259 23.5064 12.7617 23.3997C12.6111 23.3064 12.5016 23.1997 12.4468 23.1064C12.392 23.0131 12.351 22.8931 12.351 22.7731C12.351 22.5597 12.4194 22.3864 12.5837 22.2664C12.8849 22.0131 13.5419 22.0264 14.158 22.1731L14.1306 22.1597Z" fill="#212121"/>
<path d="M16.417 22.1732H18.8126V29.2132H20.9892V22.1732H23.3711V20.3599H16.417V22.1732Z" fill="#212121"/>
<path d="M29.776 21.0665C29.2011 20.5999 28.3386 20.3599 27.2435 20.3599H24.2866V29.2132H26.4632V26.1732H27.1066C28.2291 26.1732 29.1052 25.9199 29.7213 25.3999C30.351 24.8799 30.6658 24.1332 30.6658 23.1732C30.6658 22.2132 30.3647 21.5332 29.776 21.0532V21.0665ZM28.4755 23.2532C28.4755 23.6265 28.3523 23.9065 28.1059 24.0932C27.8458 24.2932 27.4488 24.3865 26.915 24.3865H26.4632V22.1599H27.1477C27.6131 22.1599 27.9553 22.2532 28.1607 22.4265C28.366 22.5999 28.4618 22.8799 28.4618 23.2532H28.4755Z" fill="#212121"/>
</svg>
