<svg width="16" height="16" viewBox="0 0 16 16" fill="none" xmlns="http://www.w3.org/2000/svg">
<path d="M7.06505 11.0801C7.21563 11.1135 7.40728 11.1801 7.63315 11.2735L7.70844 11.3001L8.07121 10.4535L8.00276 10.4268C7.77689 10.3335 7.55102 10.2535 7.33883 10.2001C7.12665 10.1468 6.90078 10.1201 6.66806 10.1201C6.18893 10.1201 5.80564 10.2335 5.52501 10.4601C5.24438 10.6935 5.10064 11.0135 5.10064 11.4135C5.10064 11.6268 5.14171 11.8135 5.23069 11.9735C5.31967 12.1335 5.42918 12.2735 5.57292 12.3935C5.71665 12.5135 5.91515 12.6335 6.19578 12.7601C6.47641 12.8868 6.66121 12.9868 6.75704 13.0468C6.83917 13.1001 6.90762 13.1601 6.94869 13.2135C6.98976 13.2668 7.00345 13.3268 7.00345 13.3935C7.00345 13.5201 6.96238 13.6068 6.8734 13.6735C6.69544 13.8001 6.32583 13.8068 5.9083 13.6935C5.70981 13.6401 5.45656 13.5535 5.16908 13.4268L5.05957 13.3801V14.3868L5.10064 14.4068C5.47025 14.5801 5.90146 14.6735 6.38058 14.6735C6.90762 14.6735 7.32514 14.5535 7.61946 14.3201C7.92063 14.0868 8.07805 13.7535 8.07805 13.3468C8.07805 13.0535 7.99592 12.8001 7.83165 12.5935C7.67422 12.3935 7.3799 12.1935 6.96238 11.9935C6.65437 11.8535 6.46272 11.7535 6.38058 11.7001C6.30529 11.6535 6.25054 11.6001 6.22316 11.5535C6.19578 11.5068 6.17525 11.4468 6.17525 11.3868C6.17525 11.2801 6.20947 11.1935 6.2916 11.1335C6.44219 11.0068 6.77073 11.0135 7.07874 11.0868L7.06505 11.0801Z" fill="#212121"/>
<path d="M8.20801 11.0868H9.40582V14.6068H10.4941V11.0868H11.6851V10.1802H8.20801V11.0868Z" fill="#212121"/>
<path d="M14.8883 10.5335C14.6008 10.3002 14.1696 10.1802 13.622 10.1802H12.1436V14.6068H13.2319V13.0868H13.5535C14.1148 13.0868 14.5529 12.9602 14.8609 12.7002C15.1757 12.4402 15.3332 12.0668 15.3332 11.5868C15.3332 11.1068 15.1826 10.7668 14.8883 10.5268V10.5335ZM14.238 11.6268C14.238 11.8135 14.1764 11.9535 14.0532 12.0468C13.9232 12.1468 13.7247 12.1935 13.4577 12.1935H13.2319V11.0802H13.5741C13.8068 11.0802 13.9779 11.1268 14.0806 11.2135C14.1833 11.3002 14.2312 11.4402 14.2312 11.6268H14.238Z" fill="#212121"/>
<path d="M8.16701 1.33301L8.16699 4.66711C8.16699 5.12758 8.54032 5.50033 9.00033 5.50033H12.4312V9.37988H6.25281C5.14384 9.37988 4.24659 10.2822 4.25285 11.3912L4.26546 13.6264H2.92403C2.41752 13.6264 2 13.2197 2 12.7263V2.23301C2 1.73967 2.41752 1.33301 2.92403 1.33301H8.16701Z" fill="#212121"/>
<path d="M9.16701 1.6575L9.16699 4.50033H12.0203L9.16701 1.6575Z" fill="#212121"/>
</svg>
