<svg width="48" height="48" viewBox="0 0 48 48" fill="none" xmlns="http://www.w3.org/2000/svg">
<path d="M34.152 16.8805V28.5205H37.2937V15.3405C37.2937 15.1605 37.2526 14.9605 37.1705 14.7805C37.0883 14.6005 36.9856 14.4205 36.8419 14.2805L26.9856 4.46049C26.8419 4.32049 26.6571 4.20049 26.4723 4.12049C26.2875 4.04049 26.0821 4.00049 25.8563 4.00049H8.77208C7.25257 4.00049 6 5.22049 6 6.70049V38.1805C6 39.6605 7.25257 40.8805 8.77208 40.8805H13.0226V37.9605H9.14169L8.99795 7.06049H24.2752V14.1805C24.2752 15.6605 25.5277 16.8805 27.0472 16.8805H34.152ZM27.4374 9.30049L32.037 13.8805L27.4374 13.9605V9.30049Z" fill="#212121"/>
<path d="M21.1961 33.2394C21.6479 33.3394 22.2228 33.5394 22.9004 33.8194L23.1263 33.8994L24.2146 31.3594L24.0093 31.2794C23.3316 30.9994 22.654 30.7594 22.0175 30.5994C21.3809 30.4394 20.7033 30.3594 20.0052 30.3594C18.5678 30.3594 17.4179 30.6994 16.576 31.3794C15.7341 32.0794 15.3029 33.0394 15.3029 34.2394C15.3029 34.8794 15.4261 35.4394 15.693 35.9194C15.96 36.3994 16.2885 36.8194 16.7197 37.1794C17.1509 37.5394 17.7464 37.8994 18.5883 38.2794C19.4302 38.6594 19.9846 38.9594 20.2721 39.1394C20.5185 39.2994 20.7238 39.4794 20.847 39.6394C20.9702 39.7994 21.0113 39.9794 21.0113 40.1794C21.0113 40.5594 20.8881 40.8194 20.6212 41.0194C20.0873 41.3994 18.9785 41.4194 17.7259 41.0794C17.1304 40.9194 16.3707 40.6594 15.5082 40.2794L15.1797 40.1394V43.1594L15.3029 43.2194C16.4117 43.7394 17.7054 44.0194 19.1427 44.0194C20.7238 44.0194 21.9764 43.6594 22.8594 42.9594C23.7629 42.2594 24.2351 41.2594 24.2351 40.0394C24.2351 39.1594 23.9887 38.3994 23.4959 37.7794C23.0236 37.1794 22.1407 36.5794 20.8881 35.9794C19.9641 35.5594 19.3891 35.2594 19.1427 35.0994C18.9169 34.9594 18.7526 34.7994 18.6705 34.6594C18.5883 34.5194 18.5267 34.3394 18.5267 34.1594C18.5267 33.8394 18.6294 33.5794 18.8758 33.3994C19.3275 33.0194 20.3132 33.0394 21.2372 33.2594L21.1961 33.2394Z" fill="#212121"/>
<path d="M24.6255 33.26H28.2189V43.82H31.4838V33.26H35.0567V30.54H24.6255V33.26Z" fill="#212121"/>
<path d="M44.6638 31.6C43.8014 30.9 42.5077 30.54 40.865 30.54H36.4297V43.82H39.6946V39.26H40.6597C42.3434 39.26 43.6576 38.88 44.5816 38.1C45.5262 37.32 45.9985 36.2 45.9985 34.76C45.9985 33.32 45.5467 32.3 44.6638 31.58V31.6ZM42.7131 34.88C42.7131 35.44 42.5283 35.86 42.1586 36.14C41.7685 36.44 41.173 36.58 40.3722 36.58H39.6946V33.24H40.7213C41.4194 33.24 41.9328 33.38 42.2408 33.64C42.5488 33.9 42.6925 34.32 42.6925 34.88H42.7131Z" fill="#212121"/>
</svg>
