<svg width="20" height="20" viewBox="0 0 20 20" fill="none" xmlns="http://www.w3.org/2000/svg">
<path d="M8.83107 13.8504C9.01929 13.8921 9.25885 13.9754 9.5412 14.0921L9.63531 14.1254L10.0888 13.0671L10.0032 13.0337C9.72087 12.9171 9.43853 12.8171 9.1733 12.7504C8.90807 12.6837 8.62573 12.6504 8.33483 12.6504C7.73592 12.6504 7.2568 12.7921 6.90601 13.0754C6.55523 13.3671 6.37555 13.7671 6.37555 14.2671C6.37555 14.5337 6.42689 14.7671 6.53811 14.9671C6.64934 15.1671 6.78623 15.3421 6.9659 15.4921C7.14557 15.6421 7.39369 15.7921 7.74448 15.9504C8.09527 16.1087 8.32627 16.2337 8.44605 16.3087C8.54872 16.3754 8.63428 16.4504 8.68562 16.5171C8.73695 16.5837 8.75406 16.6587 8.75406 16.7421C8.75406 16.9004 8.70273 17.0087 8.5915 17.0921C8.36905 17.2504 7.90704 17.2587 7.38514 17.1171C7.13702 17.0504 6.82045 16.9421 6.46111 16.7837L6.32422 16.7254V17.9837L6.37555 18.0087C6.83757 18.2254 7.37658 18.3421 7.97549 18.3421C8.63428 18.3421 9.15619 18.1921 9.52408 17.9004C9.90054 17.6087 10.0973 17.1921 10.0973 16.6837C10.0973 16.3171 9.99465 16.0004 9.78931 15.7421C9.59253 15.4921 9.22463 15.2421 8.70273 14.9921C8.31772 14.8171 8.07816 14.6921 7.97549 14.6254C7.88137 14.5671 7.81293 14.5004 7.7787 14.4421C7.74448 14.3837 7.71881 14.3087 7.71881 14.2337C7.71881 14.1004 7.76159 13.9921 7.86426 13.9171C8.05249 13.7587 8.46317 13.7671 8.84818 13.8587L8.83107 13.8504Z" fill="#212121"/>
<path d="M10.2603 13.8584H11.7575V18.2584H13.1179V13.8584H14.6066V12.7251H10.2603V13.8584Z" fill="#212121"/>
<path d="M18.6106 13.1668C18.2512 12.8751 17.7122 12.7251 17.0277 12.7251H15.1797V18.2584H16.5401V16.3584H16.9422C17.6438 16.3584 18.1913 16.2001 18.5763 15.8751C18.9699 15.5501 19.1667 15.0834 19.1667 14.4834C19.1667 13.8834 18.9785 13.4584 18.6106 13.1584V13.1668ZM17.7978 14.5334C17.7978 14.7668 17.7208 14.9418 17.5668 15.0584C17.4042 15.1834 17.1561 15.2418 16.8224 15.2418H16.5401V13.8501H16.9678C17.2587 13.8501 17.4726 13.9084 17.601 14.0168C17.7293 14.1251 17.7892 14.3001 17.7892 14.5334H17.7978Z" fill="#212121"/>
<path d="M10.2085 1.6665L10.2085 5.83364C10.2085 6.40923 10.6752 6.87516 11.2502 6.87516H15.539V11.7251H7.81602C6.42979 11.7251 5.30824 12.853 5.31606 14.2392L5.33182 17.0332H3.65503C3.0219 17.0332 2.5 16.5248 2.5 15.9082V2.7915C2.5 2.17484 3.0219 1.6665 3.65503 1.6665H10.2085Z" fill="#212121"/>
<path d="M11.4585 2.07188L11.4585 5.62516H15.0249L11.4585 2.07188Z" fill="#212121"/>
</svg>
