<svg width="24" height="24" viewBox="0 0 24 24" fill="none" xmlns="http://www.w3.org/2000/svg">
<path d="M10.5976 16.6202C10.8234 16.6702 11.1109 16.7702 11.4497 16.9102L11.5627 16.9502L12.1068 15.6802L12.0041 15.6402C11.6653 15.5002 11.3265 15.3802 11.0082 15.3002C10.69 15.2202 10.3512 15.1802 10.0021 15.1802C9.2834 15.1802 8.70845 15.3502 8.28751 15.6902C7.86656 16.0402 7.65096 16.5202 7.65096 17.1202C7.65096 17.4402 7.71256 17.7202 7.84603 17.9602C7.9795 18.2002 8.14377 18.4102 8.35938 18.5902C8.57498 18.7702 8.87272 18.9502 9.29367 19.1402C9.71461 19.3302 9.99182 19.4802 10.1356 19.5702C10.2588 19.6502 10.3614 19.7402 10.423 19.8202C10.4846 19.9002 10.5052 19.9902 10.5052 20.0902C10.5052 20.2802 10.4436 20.4102 10.3101 20.5102C10.0432 20.7002 9.48874 20.7102 8.86246 20.5402C8.56472 20.4602 8.18484 20.3302 7.75363 20.1402L7.58936 20.0702V21.5802L7.65096 21.6102C8.20537 21.8702 8.85219 22.0102 9.57088 22.0102C10.3614 22.0102 10.9877 21.8302 11.4292 21.4802C11.8809 21.1302 12.1171 20.6302 12.1171 20.0202C12.1171 19.5802 11.9939 19.2002 11.7475 18.8902C11.5113 18.5902 11.0699 18.2902 10.4436 17.9902C9.98155 17.7802 9.69408 17.6302 9.57088 17.5502C9.45794 17.4802 9.3758 17.4002 9.33474 17.3302C9.29367 17.2602 9.26287 17.1702 9.26287 17.0802C9.26287 16.9202 9.3142 16.7902 9.43741 16.7002C9.66328 16.5102 10.1561 16.5202 10.6181 16.6302L10.5976 16.6202Z" fill="#212121"/>
<path d="M12.3125 16.63H14.1092V21.91H15.7417V16.63H17.5281V15.27H12.3125V16.63Z" fill="#212121"/>
<path d="M22.3324 15.8C21.9012 15.45 21.2543 15.27 20.433 15.27H18.2153V21.91H19.8478V19.63H20.3303C21.1722 19.63 21.8293 19.44 22.2913 19.05C22.7636 18.66 22.9997 18.1 22.9997 17.38C22.9997 16.66 22.7739 16.15 22.3324 15.79V15.8ZM21.357 17.44C21.357 17.72 21.2646 17.93 21.0798 18.07C20.8847 18.22 20.587 18.29 20.1866 18.29H19.8478V16.62H20.3611C20.7102 16.62 20.9669 16.69 21.1209 16.82C21.2749 16.95 21.3468 17.16 21.3468 17.44H21.357Z" fill="#212121"/>
<path d="M12.25 2L12.25 7.00017C12.25 7.69088 12.81 8.25 13.5 8.25H18.6468V14.0703H9.37922C7.71575 14.0703 6.36988 15.4238 6.37927 17.0872L6.39818 20.44H4.38604C3.62628 20.44 3 19.83 3 19.09V3.35C3 2.61 3.62628 2 4.38604 2H12.25Z" fill="#212121"/>
<path d="M13.75 2.48626L13.75 6.75H18.0295L13.75 2.48626Z" fill="#212121"/>
</svg>
