<svg width="16" height="16" viewBox="0 0 16 16" fill="none" xmlns="http://www.w3.org/2000/svg">
<path d="M11.384 5.62634V9.50635H12.4312V5.11301C12.4312 5.05301 12.4175 4.98634 12.3902 4.92634C12.3628 4.86634 12.3285 4.80634 12.2806 4.75968L8.99521 1.48634C8.9473 1.43967 8.8857 1.39967 8.8241 1.37301C8.7625 1.34634 8.69405 1.33301 8.61876 1.33301H2.92403C2.41752 1.33301 2 1.73967 2 2.23301V12.7263C2 13.2197 2.41752 13.6264 2.92403 13.6264H4.34086V12.653H3.04723L2.99932 2.35301H8.09172V4.72634C8.09172 5.21968 8.50924 5.62634 9.01575 5.62634H11.384ZM9.14579 3.09968L10.679 4.62634L9.14579 4.65301V3.09968Z" fill="#212121"/>
<path d="M7.06456 11.0806C7.21514 11.1139 7.40679 11.1806 7.63266 11.2739L7.70795 11.3006L8.07072 10.4539L8.00227 10.4273C7.7764 10.3339 7.55053 10.2539 7.33834 10.2006C7.12616 10.1473 6.90029 10.1206 6.66757 10.1206C6.18845 10.1206 5.80515 10.2339 5.52452 10.4606C5.24389 10.6939 5.10015 11.0139 5.10015 11.4139C5.10015 11.6273 5.14122 11.8139 5.2302 11.9739C5.31918 12.1339 5.42869 12.2739 5.57243 12.3939C5.71617 12.5139 5.91466 12.6339 6.19529 12.7606C6.47592 12.8873 6.66073 12.9873 6.75655 13.0473C6.83869 13.1006 6.90713 13.1606 6.9482 13.2139C6.98927 13.2673 7.00296 13.3273 7.00296 13.3939C7.00296 13.5206 6.96189 13.6073 6.87291 13.6739C6.69495 13.8006 6.32534 13.8073 5.90782 13.6939C5.70932 13.6406 5.45607 13.5539 5.1686 13.4273L5.05908 13.3806V14.3873L5.10015 14.4073C5.46976 14.5806 5.90097 14.6739 6.3801 14.6739C6.90713 14.6739 7.32466 14.5539 7.61897 14.3206C7.92014 14.0873 8.07757 13.7539 8.07757 13.3473C8.07757 13.0539 7.99543 12.8006 7.83116 12.5939C7.67373 12.3939 7.37941 12.1939 6.96189 11.9939C6.65388 11.8539 6.46223 11.7539 6.3801 11.7006C6.30481 11.6539 6.25005 11.6006 6.22267 11.5539C6.19529 11.5073 6.17476 11.4473 6.17476 11.3873C6.17476 11.2806 6.20898 11.1939 6.29112 11.1339C6.4417 11.0073 6.77024 11.0139 7.07825 11.0873L7.06456 11.0806Z" fill="#212121"/>
<path d="M8.20801 11.0868H9.40582V14.6068H10.4941V11.0868H11.6851V10.1802H8.20801V11.0868Z" fill="#212121"/>
<path d="M14.8887 10.5335C14.6013 10.3002 14.1701 10.1802 13.6225 10.1802H12.144V14.6068H13.2323V13.0868H13.554C14.1153 13.0868 14.5534 12.9602 14.8614 12.7002C15.1762 12.4402 15.3336 12.0668 15.3336 11.5868C15.3336 11.1068 15.1831 10.7668 14.8887 10.5268V10.5335ZM14.2385 11.6268C14.2385 11.8135 14.1769 11.9535 14.0537 12.0468C13.9236 12.1468 13.7252 12.1935 13.4582 12.1935H13.2323V11.0802H13.5746C13.8073 11.0802 13.9784 11.1268 14.0811 11.2135C14.1837 11.3002 14.2317 11.4402 14.2317 11.6268H14.2385Z" fill="#212121"/>
</svg>
