<svg width="48" height="48" viewBox="0 0 48 48" fill="none" xmlns="http://www.w3.org/2000/svg">
<path d="M24.6984 31.25C26.9075 31.25 28.6984 33.0409 28.6984 35.25C28.6984 37.4591 26.9075 39.25 24.6984 39.25C22.4892 39.25 20.6984 37.4591 20.6984 35.25C20.6984 33.0409 22.4892 31.25 24.6984 31.25Z" fill="#242424"/>
<path d="M25.6984 26.9199C25.6985 28.2555 27.4311 28.7801 28.172 27.6689L39.8849 10.0986C40.4827 9.2016 39.8398 8.00024 38.7618 8H27.048C26.3027 8.00021 25.6986 8.60435 25.6984 9.34961V26.9199Z" fill="#242424"/>
<path d="M23.4484 26.7783C23.4484 28.2365 21.4565 28.6595 20.8644 27.3271L13.1183 9.89844C12.7215 9.0057 13.3757 8 14.3527 8H22.0988C22.844 8.00021 23.4482 8.60434 23.4484 9.34961V26.7783Z" fill="#242424"/>
</svg>
