<svg width="32" height="32" viewBox="0 0 32 32" fill="none" xmlns="http://www.w3.org/2000/svg">
<path d="M15.9492 22C17.6061 22 18.9492 23.3431 18.9492 25C18.9492 26.6569 17.6061 28 15.9492 28C14.2924 28 12.9492 26.6569 12.9492 25C12.9492 23.3431 14.2924 22 15.9492 22Z" fill="#242424"/>
<path d="M18.9492 15.5947V6H25.1172L18.9492 15.5947ZM16.9492 18.6592C16.9492 19.757 18.3809 20.1774 18.9746 19.2539L27.6914 5.69531C28.162 4.96325 27.6359 4 26.7656 4H18.0488C17.4416 4.00021 16.9494 4.49241 16.9492 5.09961V18.6592Z" fill="#242424"/>
<path d="M12.9492 14.127V6H9.46583L12.9492 14.127ZM14.9492 18.5127C14.9492 19.7089 13.3091 20.0457 12.8379 18.9463L7.08985 5.5332C6.77888 4.80746 7.31108 4.0002 8.1006 4H13.8496C14.4568 4.00021 14.949 4.49241 14.9492 5.09961V18.5127Z" fill="#242424"/>
</svg>
