<svg width="20" height="20" viewBox="0 0 20 20" fill="none" xmlns="http://www.w3.org/2000/svg">
<path d="M10.4883 4C12.7746 5.31983 14.6802 7.22547 16 9.51181V5.5C16 4.67157 15.3284 4 14.5 4H10.4883ZM5.99991 3H8.39632H14.5C15.8807 3 17 4.11929 17 5.5V14.5C17 15.8807 15.8807 17 14.5 17H13.9506H12.9451H9.91704H8.89998H5.5C4.11929 17 3 15.8807 3 14.5V11.1V10.083V7.05493V6.04938V5.5C3 4.11929 4.11929 3 5.5 3H5.99991ZM4 6C9.52285 6 14 10.4772 14 16H14.5C15.3284 16 16 15.3284 16 14.5V11.7941C14.5792 8.24939 11.7507 5.42083 8.20608 4H5.5C4.67157 4 4 4.67157 4 5.5V6ZM4 7V10C7.31371 10 10 12.6863 10 16H13C13 11.0294 8.97056 7 4 7ZM9 16C9 13.2386 6.76142 11 4 11V14.5C4 15.3284 4.67157 16 5.5 16H9Z" fill="#242424"/>
</svg>
