<svg width="24" height="24" viewBox="0 0 24 24" fill="none" xmlns="http://www.w3.org/2000/svg">
<path d="M14.9443 4.5C16.7623 5.68333 18.3167 7.23769 19.5 9.0557V6C19.5 5.17157 18.8284 4.5 18 4.5H14.9443ZM4.09172 3.68505C4.6103 3.25709 5.27513 3 6 3H11.9891H18C19.6569 3 21 4.34315 21 6V12.0109V18C21 18.7399 20.7321 19.4173 20.288 19.9404C19.7377 20.5886 18.9169 21 18 21H16.7275H15.185H11.7101H10.1251H6C4.34315 21 3 19.6569 3 18V13.8749V12.2903V8.81504V7.2725V6C3 5.06802 3.42498 4.2353 4.09172 3.68505ZM4.5 7.04288C4.82956 7.01449 5.16309 7 5.5 7C11.8513 7 17 12.1487 17 18.5C17 18.8369 16.9855 19.1704 16.9571 19.5H18C18.8284 19.5 19.5 18.8284 19.5 18V12.2938C18.0792 8.74927 15.2507 5.9208 11.7062 4.5H6C5.17157 4.5 4.5 5.17157 4.5 6V7.04288ZM4.5 8.54938V12.0176C4.62248 12.0089 4.74583 12.0034 4.86997 12.0012C4.91322 12.0004 4.95656 12 5 12C8.86599 12 12 15.134 12 19C12 19.1681 11.9941 19.3348 11.9824 19.5H15.4506C15.4833 19.1711 15.5 18.8375 15.5 18.5C15.5 12.9772 11.0228 8.5 5.5 8.5C5.1625 8.5 4.82891 8.51672 4.5 8.54938ZM10.4776 19.5L10.4784 19.4907C10.4927 19.329 10.5 19.1654 10.5 19C10.5 15.9624 8.03757 13.5 5 13.5C4.83146 13.5 4.66468 13.5076 4.5 13.5224V18C4.5 18.8284 5.17157 19.5 6 19.5H10.4776Z" fill="#242424"/>
</svg>
