<svg xmlns="http://www.w3.org/2000/svg" width="231" height="160" fill="none" viewBox="0 0 231 160">
  <path fill="#E5DACB" d="M156.04 36.4543c0 14.0061-11.139 25.588-24.995 26.3961h-1.63c-4.618 0-9.237-1.3468-13.04-3.5015-8.15-4.579-13.584-13.1981-13.584-23.164 0-6.7337 2.445-12.9287 6.792-17.5076 4.89-5.387 11.954-8.8885 19.832-8.8885 10.324 0 19.29 5.9257 23.636 14.5448 1.902 3.7709 2.989 7.8111 2.989 12.1207Z"/>
  <path fill="#272219" d="M155.806 36.4608c0 14.0061-11.139 25.5881-24.994 26.3961-5.162-.808-10.052-2.1548-14.671-3.2321-8.15-4.579-13.584-13.1981-13.584-23.164 0-6.7337 2.445-12.9287 6.792-17.5076 8.965-.2693 19.289.5387 29.885 2.4241 4.89.8081 9.508 1.8855 13.855 2.9629 1.63 3.7708 2.717 7.8111 2.717 12.1206Z" opacity=".1"/>
  <path fill="url(#paint0_linear_3831_4629)" d="M188.291 54.283c2.051-11.4232-23.231-25.4372-56.467-31.3012-33.2365-5.864-61.8422-1.3574-63.8926 10.0658-2.0504 11.4232 23.2308 25.4372 56.4676 31.3012 33.236 5.864 61.842 1.3574 63.892-10.0658Z"/>
  <path fill="#fff" d="M123.35 29.5036c.151-1.928-2.88-3.734-6.769-4.0338-3.889-.2999-7.165 1.0201-7.316 2.9481-.151 1.9281 2.879 3.7341 6.769 4.0339 3.889.2998 7.165-1.0201 7.316-2.9482ZM89.165 34.4597c3.7397-1.1008 6.3212-3.4959 5.7661-5.3497-.5552-1.8537-4.0367-2.4642-7.7764-1.3634-3.7396 1.1007-6.3211 3.4958-5.766 5.3496.5551 1.8538 4.0367 2.4642 7.7763 1.3635ZM150.828 36.5945c.342-1.9039-2.495-3.9966-6.335-4.6742-3.841-.6776-7.231.3165-7.573 2.2203-.342 1.9039 2.495 3.9966 6.335 4.6742 3.841.6776 7.231-.3164 7.573-2.2203ZM171.458 50.6785c.894-1.7188-1.192-4.549-4.659-6.3216-3.467-1.7726-7.003-1.8161-7.897-.0973-.894 1.7187 1.192 4.549 4.66 6.3216 3.467 1.7726 7.003 1.8161 7.896.0973Z"/>
  <path fill="url(#paint1_linear_3831_4629)" d="m124.722 46.0989-25.5381-.2693-36.369 67.6454L164.894 124.21l-11.375-68.9532-28.797-9.1579Z"/>
  <path fill="url(#paint2_linear_3831_4629)" d="M178.242 142.211H47.5646c3.5318-3.165 8.6937-6.33 14.6706-8.704 3.2601-1.187 7.0636-2.77 10.8671-3.561 11.4104-3.165 25.266-5.144 39.9367-5.144 17.659 0 33.96 2.77 46.457 7.122 4.347 1.583 8.15 3.165 11.41 5.144 2.989 1.582 5.434 3.165 7.336 5.143Z" opacity=".5"/>
  <path fill="#B9B2A7" d="M74.9171 131.864c.1711 1.607-2.6293 3.53-5.8711 3.875-3.2418.346-6.086-.706-6.5273-2.284 3.1562-1.149 6.8242-2.623 10.5492-3.561 1.1377.42 1.7636 1.166 1.8492 1.97ZM97.8227 130.732c4.3513 0 7.8783-.844 7.8783-1.886 0-1.041-3.527-1.885-7.8783-1.885-4.3512 0-7.8786.844-7.8786 1.885 0 1.042 3.5274 1.886 7.8786 1.886Z" opacity=".3"/>
  <path fill="#BEB8AF" d="M140.296 130.574c.089-1.336-3.358-2.651-7.7-2.936-4.341-.285-7.934.567-8.023 1.902-.089 1.336 3.358 2.65 7.7 2.936 4.341.285 7.934-.567 8.023-1.902Z" opacity=".3"/>
  <path fill="#B4AC9F" d="M170.205 136.643c-1.08-.124-2.376-.082-3.964-.537-4.288-.765-7.642-2.508-7.488-3.846.031-.267.031-.267.332-.504 4.195 1.569 8.007 3.085 11.12 4.887Z" opacity=".3"/>
  <path fill="url(#paint3_linear_3831_4629)" d="M153.362 55.9593c.92-5.1258-10.548-11.4361-25.615-14.0944-15.067-2.6584-28.0277-.6581-28.9478 4.4677-.92 5.1258 10.5488 11.4361 25.6158 14.0944 15.067 2.6583 28.027.6581 28.947-4.4677Z"/>
  <path fill="#D9D2C7" d="M55.8013 80.7855s-9.3846 2.3827-6.5408 4.2888c2.8438 1.8109 9.5742 4.956 15.9254 2.8592 6.3511-2.0967 0-5.0512.0948-5.0512s-9.4794-2.0968-9.4794-2.0968Z"/>
  <path fill="#EDE5DA" d="M44.3318 80.0196c3.4126 1.0484 13.9346-.6671 20.665-5.0512 5.3084 6.5762 7.2991 8.2917 9.195 8.4823-2.9386 2.9545-12.7024 7.7199-18.2004 1.5249-6.446 4.0982-11.6596-4.956-11.6596-4.956ZM157.05 88.6016c3.602.1906 13.365-4.1935 18.674-10.1026 6.825 5.0513 9.1 6.195 11.091 5.909-2.18 3.6217-8.816 11.5322-18.201 12.104-6.825-4.0029-11.564-7.9104-11.564-7.9104Z"/>
  <path fill="#fff" d="M125.837 88.712c-.713-3.536-7.391-11.8998-14.436-15.5689 3.192-7.8682 3.733-10.3564 2.96-12.213 4.051 1.2093 13.365 5.6652 16.256 14.6113-2.176 7.607-4.78 13.1706-4.78 13.1706Z"/>
  <path stroke="#DFD8D1" stroke-linecap="round" stroke-linejoin="round" stroke-miterlimit="10" stroke-width="1.7424" d="M210.517 142.211H20.5948"/>
  <path fill="url(#paint4_linear_3831_4629)" d="M94.299 120.571v5.387h-3.2601v5.118h-6.2486v-5.118H71.2064v-6.195l12.4972-17.238h7.3353v18.046h3.2601Zm-9.237-11.043-7.8787 11.043h7.8787v-11.043Z"/>
  <path fill="url(#paint5_linear_3831_4629)" d="M113.858 131.61c-6.52 0-12.226-5.656-12.226-14.814 0-9.158 5.706-14.814 12.226-14.814 6.52 0 12.225 5.656 12.225 14.814.272 8.889-5.433 14.814-12.225 14.814Zm0-5.656c2.988 0 6.248-2.963 6.248-9.427 0-6.195-2.988-9.427-6.248-9.427-2.989 0-6.249 2.962-6.249 9.427.272 6.464 3.26 9.427 6.249 9.427Z"/>
  <path fill="url(#paint6_linear_3831_4629)" d="M157.055 120.571v5.387h-3.261v5.118h-6.248v-5.118h-13.584v-6.195l12.497-17.238h7.064v18.046h3.532Zm-9.509-11.043-7.879 11.043h7.879v-11.043Z"/>
  <path fill="url(#paint7_linear_3831_4629)" d="M91.8492 120.571v5.387h-3.2601v5.118h-6.2486v-5.118H68.7566v-6.195l12.4972-17.238h7.0636v18.046h3.5318Zm-9.2371-11.043-7.8786 11.043h7.8786v-11.043Z"/>
  <path fill="url(#paint8_linear_3831_4629)" d="M111.408 131.61c-6.52 0-12.2254-5.656-12.2254-14.814 0-9.158 5.7054-14.814 12.2254-14.814 6.52 0 12.226 5.656 12.226 14.814.271 8.889-5.434 14.814-12.226 14.814Zm0-5.656c2.989 0 6.249-2.963 6.249-9.427 0-6.195-2.989-9.427-6.249-9.427-2.988 0-6.248 2.962-6.248 9.427.271 6.464 3.26 9.427 6.248 9.427Z"/>
  <path fill="url(#paint9_linear_3831_4629)" d="M154.605 120.571v5.387h-3.26v5.118h-6.249v-5.118h-13.584v-6.195l12.497-17.238h7.064v18.046h3.532Zm-9.509-11.043-7.879 11.043h7.879v-11.043Z"/>
  <defs>
    <linearGradient id="paint0_linear_3831_4629" x1="72.1131" x2="139.634" y1="33.782" y2="45.9018" gradientUnits="userSpaceOnUse">
      <stop stop-color="#F7F2EB"/>
      <stop offset="1" stop-color="#EAE1D5"/>
    </linearGradient>
    <linearGradient id="paint1_linear_3831_4629" x1="113.861" x2="113.861" y1="48.5524" y2="92.5465" gradientUnits="userSpaceOnUse">
      <stop stop-color="#E7DAC9"/>
      <stop offset="1" stop-color="#E9DFD0" stop-opacity=".1"/>
    </linearGradient>
    <linearGradient id="paint2_linear_3831_4629" x1="112.903" x2="112.903" y1="124.802" y2="142.211" gradientUnits="userSpaceOnUse">
      <stop stop-color="#CBBFAB"/>
      <stop offset="1" stop-color="#EFE7DC" stop-opacity="0"/>
    </linearGradient>
    <linearGradient id="paint3_linear_3831_4629" x1="126.081" x2="130.102" y1="58.3089" y2="44.4295" gradientUnits="userSpaceOnUse">
      <stop stop-color="#E9E0D4"/>
      <stop offset="1" stop-color="#C1B6A7"/>
    </linearGradient>
    <linearGradient id="paint4_linear_3831_4629" x1="82.7545" x2="82.7545" y1="103.516" y2="119.542" gradientUnits="userSpaceOnUse">
      <stop stop-color="#EDE5DA"/>
      <stop offset="1" stop-color="#C7BDB4"/>
    </linearGradient>
    <linearGradient id="paint5_linear_3831_4629" x1="113.864" x2="113.864" y1="103.011" y2="119.641" gradientUnits="userSpaceOnUse">
      <stop stop-color="#EDE5DA"/>
      <stop offset="1" stop-color="#C7BDB4"/>
    </linearGradient>
    <linearGradient id="paint6_linear_3831_4629" x1="145.51" x2="145.51" y1="103.516" y2="119.542" gradientUnits="userSpaceOnUse">
      <stop stop-color="#EDE5DA"/>
      <stop offset="1" stop-color="#C7BDB4"/>
    </linearGradient>
    <linearGradient id="paint7_linear_3831_4629" x1="80.3047" x2="80.3047" y1="103.516" y2="119.542" gradientUnits="userSpaceOnUse">
      <stop stop-color="#F7F3EE"/>
      <stop offset="1" stop-color="#E6E0D8"/>
    </linearGradient>
    <linearGradient id="paint8_linear_3831_4629" x1="111.415" x2="111.415" y1="103.011" y2="119.641" gradientUnits="userSpaceOnUse">
      <stop stop-color="#F7F3EE"/>
      <stop offset="1" stop-color="#E6E0D8"/>
    </linearGradient>
    <linearGradient id="paint9_linear_3831_4629" x1="143.06" x2="143.06" y1="103.516" y2="119.542" gradientUnits="userSpaceOnUse">
      <stop stop-color="#F7F3EE"/>
      <stop offset="1" stop-color="#E6E0D8"/>
    </linearGradient>
  </defs>
</svg>
