<svg width="231" height="160" viewBox="0 0 231 160" fill="none" xmlns="http://www.w3.org/2000/svg">
<path d="M156.04 36.4543C156.04 50.4604 144.901 62.0424 131.045 62.8505C130.502 62.8505 129.959 62.8505 129.415 62.8505C124.797 62.8505 120.178 61.5037 116.375 59.3489C108.225 54.77 102.791 46.1509 102.791 36.185C102.791 29.4513 105.236 23.2562 109.583 18.6773C114.473 13.2903 121.537 9.78882 129.415 9.78882C139.739 9.78882 148.705 15.7145 153.051 24.3336C154.953 28.1045 156.04 32.1447 156.04 36.4543Z" fill="#605F5F"/>
<path opacity="0.1" d="M155.806 36.4502C155.806 50.4564 144.667 62.0384 130.812 62.8464C125.65 62.0384 120.76 60.6916 116.141 59.6142C107.991 55.0353 102.557 46.4161 102.557 36.4502C102.557 29.7165 105.002 23.5215 109.349 18.9426C118.314 18.6732 128.638 19.4813 139.234 21.3667C144.124 22.1748 148.742 23.2522 153.089 24.3296C154.719 28.1004 155.806 32.1407 155.806 36.4502Z" fill="black"/>
<path d="M188.291 54.2831C190.342 42.8599 165.06 28.8458 131.824 22.9818C98.5875 17.1178 69.9818 21.6245 67.9314 33.0477C65.881 44.4709 91.1622 58.4849 124.399 64.3489C157.635 70.2129 186.241 65.7063 188.291 54.2831Z" fill="#605F5F"/>
<path d="M123.35 29.5034C123.501 27.5753 120.47 25.7693 116.581 25.4695C112.692 25.1697 109.416 26.4896 109.265 28.4177C109.114 30.3457 112.144 32.1517 116.034 32.4516C119.923 32.7514 123.199 31.4314 123.35 29.5034Z" fill="#C5C5C5"/>
<path d="M89.165 34.4488C92.9047 33.3481 95.4862 30.953 94.9311 29.0992C94.3759 27.2454 90.8944 26.6349 87.1547 27.7357C83.4151 28.8364 80.8336 31.2315 81.3887 33.0853C81.9438 34.9391 85.4254 35.5496 89.165 34.4488Z" fill="#C5C5C5"/>
<path d="M150.828 36.584C151.17 34.6801 148.333 32.5874 144.493 31.9098C140.652 31.2322 137.262 32.2263 136.92 34.1301C136.578 36.034 139.415 38.1267 143.255 38.8043C147.096 39.4819 150.486 38.4879 150.828 36.584Z" fill="#C5C5C5"/>
<path d="M171.458 50.6677C172.352 48.9489 170.266 46.1186 166.799 44.346C163.332 42.5735 159.796 42.5299 158.902 44.2487C158.008 45.9675 160.094 48.7978 163.562 50.5703C167.029 52.3429 170.565 52.3865 171.458 50.6677Z" fill="#C5C5C5"/>
<path d="M124.722 46.0992L99.1839 45.8298L62.8149 113.475L164.894 124.21L153.519 55.257L124.722 46.0992Z" fill="url(#paint0_linear_3831_4661)"/>
<path opacity="0.5" d="M178.242 142.211H47.5646C51.0964 139.046 56.2583 135.881 62.2352 133.507C65.4953 132.32 69.2988 130.737 73.1023 129.946C84.5127 126.781 98.3683 124.802 113.039 124.802C130.698 124.802 146.999 127.572 159.496 131.924C163.843 133.507 167.646 135.089 170.906 137.067C173.895 138.65 176.34 140.233 178.242 142.211Z" fill="url(#paint1_linear_3831_4661)"/>
<path opacity="0.3" d="M74.9171 131.853C75.0882 133.46 72.2878 135.384 69.046 135.729C65.8042 136.074 62.96 135.023 62.5187 133.445C65.6749 132.296 69.3429 130.822 73.0679 129.883C74.2056 130.304 74.8315 131.05 74.9171 131.853Z" fill="url(#paint2_linear_3831_4661)"/>
<path opacity="0.3" d="M97.8227 130.722C102.174 130.722 105.701 129.877 105.701 128.836C105.701 127.795 102.174 126.951 97.8227 126.951C93.4715 126.951 89.9441 127.795 89.9441 128.836C89.9441 129.877 93.4715 130.722 97.8227 130.722Z" fill="url(#paint3_linear_3831_4661)"/>
<path opacity="0.3" d="M140.296 130.574C140.385 129.238 136.938 127.924 132.596 127.638C128.255 127.353 124.662 128.205 124.573 129.541C124.484 130.877 127.931 132.191 132.273 132.476C136.614 132.761 140.207 131.91 140.296 130.574Z" fill="url(#paint4_linear_3831_4661)"/>
<path opacity="0.3" d="M170.205 136.644C169.125 136.519 167.829 136.561 166.241 136.107C161.953 135.341 158.599 133.599 158.753 132.261C158.784 131.993 158.784 131.993 159.085 131.757C163.28 133.325 167.092 134.842 170.205 136.644Z" fill="url(#paint5_linear_3831_4661)"/>
<path d="M153.362 55.9484C154.282 50.8226 142.814 44.5123 127.747 41.854C112.68 39.1956 99.7193 41.1959 98.7992 46.3217C97.8792 51.4475 109.348 57.7578 124.415 60.4161C139.482 63.0745 152.442 61.0742 153.362 55.9484Z" fill="url(#paint6_linear_3831_4661)"/>
<path d="M55.8013 80.7751C55.8013 80.7751 46.4167 83.1578 49.2605 85.064C52.1043 86.8748 58.8347 90.0199 65.1859 87.9232C71.537 85.8264 65.1859 82.8719 65.2807 82.8719C65.3755 82.8719 55.8013 80.7751 55.8013 80.7751Z" fill="#5C5C5C"/>
<path d="M44.3318 80.009C47.7444 81.0574 58.2664 79.3419 64.9968 74.9578C70.3052 81.534 72.2959 83.2495 74.1918 83.4401C71.2532 86.3946 61.4894 91.16 55.9914 84.965C49.5454 89.0632 44.3318 80.009 44.3318 80.009Z" fill="#D1D1D1"/>
<path d="M157.05 88.5913C160.652 88.7819 170.415 84.3978 175.724 78.4888C182.549 83.54 184.824 84.6837 186.815 84.3978C184.635 88.0195 177.999 95.93 168.614 96.5018C161.789 92.4989 157.05 88.5913 157.05 88.5913Z" fill="#D1D1D1"/>
<path d="M125.837 88.7125C125.124 85.1765 118.446 76.8127 111.401 73.1435C114.593 65.2754 115.134 62.7872 114.361 60.9305C118.412 62.1399 127.726 66.5957 130.617 75.5419C128.441 83.1489 125.837 88.7125 125.837 88.7125Z" fill="#D1D1D1"/>
<path d="M210.517 142.211H202.268H31.2522H20.5948" stroke="#3A3A3A" stroke-width="1.74239" stroke-miterlimit="10" stroke-linecap="round" stroke-linejoin="round"/>
<g filter="url(#filter0_d_3831_4661)">
<path d="M94.299 120.567V125.954H91.0389V131.072H84.7903V125.954H71.2064V119.759L83.7036 102.521H91.0389V120.567H94.299ZM85.062 109.524L77.1833 120.567H85.062V109.524Z" fill="url(#paint7_linear_3831_4661)"/>
</g>
<g filter="url(#filter1_d_3831_4661)">
<path d="M113.858 131.607C107.338 131.607 101.632 125.951 101.632 116.793C101.632 107.635 107.338 101.979 113.858 101.979C120.378 101.979 126.083 107.635 126.083 116.793C126.355 125.681 120.65 131.607 113.858 131.607ZM113.858 125.951C116.846 125.951 120.106 122.988 120.106 116.524C120.106 110.329 117.118 107.096 113.858 107.096C110.869 107.096 107.609 110.059 107.609 116.524C107.881 122.988 110.869 125.951 113.858 125.951Z" fill="url(#paint8_linear_3831_4661)"/>
</g>
<g filter="url(#filter2_d_3831_4661)">
<path d="M157.055 120.567V125.954H153.794V131.072H147.546V125.954H133.962V119.759L146.459 102.521H153.523V120.567H157.055ZM147.546 109.524L139.667 120.567H147.546V109.524Z" fill="url(#paint9_linear_3831_4661)"/>
</g>
<g filter="url(#filter3_d_3831_4661)">
<path d="M91.8492 120.567V125.954H88.5891V131.072H82.3405V125.954H68.7566V119.759L81.2538 102.521H88.3174V120.567H91.8492ZM82.6122 109.524L74.7335 120.567H82.6122V109.524Z" fill="url(#paint10_linear_3831_4661)"/>
</g>
<g filter="url(#filter4_d_3831_4661)">
<path d="M111.408 131.607C104.888 131.607 99.1826 125.951 99.1826 116.793C99.1826 107.635 104.888 101.979 111.408 101.979C117.928 101.979 123.634 107.635 123.634 116.793C123.905 125.681 118.2 131.607 111.408 131.607ZM111.408 125.951C114.397 125.951 117.657 122.988 117.657 116.523C117.657 110.328 114.668 107.096 111.408 107.096C108.42 107.096 105.16 110.059 105.16 116.523C105.431 122.988 108.42 125.951 111.408 125.951Z" fill="url(#paint11_linear_3831_4661)"/>
</g>
<g filter="url(#filter5_d_3831_4661)">
<path d="M154.605 120.567V125.954H151.345V131.072H145.096V125.954H131.512V119.759L144.009 102.521H151.073V120.567H154.605ZM145.096 109.524L137.217 120.567H145.096V109.524Z" fill="url(#paint12_linear_3831_4661)"/>
</g>
<defs>
<filter id="filter0_d_3831_4661" x="67.7216" y="102.521" width="30.0622" height="35.5206" filterUnits="userSpaceOnUse" color-interpolation-filters="sRGB">
<feFlood flood-opacity="0" result="BackgroundImageFix"/>
<feColorMatrix in="SourceAlpha" type="matrix" values="0 0 0 0 0 0 0 0 0 0 0 0 0 0 0 0 0 0 127 0" result="hardAlpha"/>
<feOffset dy="3.48478"/>
<feGaussianBlur stdDeviation="1.74239"/>
<feComposite in2="hardAlpha" operator="out"/>
<feColorMatrix type="matrix" values="0 0 0 0 0 0 0 0 0 0 0 0 0 0 0 0 0 0 0.25 0"/>
<feBlend mode="normal" in2="BackgroundImageFix" result="effect1_dropShadow_3831_4661"/>
<feBlend mode="normal" in="SourceGraphic" in2="effect1_dropShadow_3831_4661" result="shape"/>
</filter>
<filter id="filter1_d_3831_4661" x="98.1475" y="101.979" width="31.4299" height="36.598" filterUnits="userSpaceOnUse" color-interpolation-filters="sRGB">
<feFlood flood-opacity="0" result="BackgroundImageFix"/>
<feColorMatrix in="SourceAlpha" type="matrix" values="0 0 0 0 0 0 0 0 0 0 0 0 0 0 0 0 0 0 127 0" result="hardAlpha"/>
<feOffset dy="3.48478"/>
<feGaussianBlur stdDeviation="1.74239"/>
<feComposite in2="hardAlpha" operator="out"/>
<feColorMatrix type="matrix" values="0 0 0 0 0 0 0 0 0 0 0 0 0 0 0 0 0 0 0.25 0"/>
<feBlend mode="normal" in2="BackgroundImageFix" result="effect1_dropShadow_3831_4661"/>
<feBlend mode="normal" in="SourceGraphic" in2="effect1_dropShadow_3831_4661" result="shape"/>
</filter>
<filter id="filter2_d_3831_4661" x="130.477" y="102.521" width="30.0622" height="35.5206" filterUnits="userSpaceOnUse" color-interpolation-filters="sRGB">
<feFlood flood-opacity="0" result="BackgroundImageFix"/>
<feColorMatrix in="SourceAlpha" type="matrix" values="0 0 0 0 0 0 0 0 0 0 0 0 0 0 0 0 0 0 127 0" result="hardAlpha"/>
<feOffset dy="3.48478"/>
<feGaussianBlur stdDeviation="1.74239"/>
<feComposite in2="hardAlpha" operator="out"/>
<feColorMatrix type="matrix" values="0 0 0 0 0 0 0 0 0 0 0 0 0 0 0 0 0 0 0.25 0"/>
<feBlend mode="normal" in2="BackgroundImageFix" result="effect1_dropShadow_3831_4661"/>
<feBlend mode="normal" in="SourceGraphic" in2="effect1_dropShadow_3831_4661" result="shape"/>
</filter>
<filter id="filter3_d_3831_4661" x="65.2718" y="102.521" width="30.0622" height="35.5206" filterUnits="userSpaceOnUse" color-interpolation-filters="sRGB">
<feFlood flood-opacity="0" result="BackgroundImageFix"/>
<feColorMatrix in="SourceAlpha" type="matrix" values="0 0 0 0 0 0 0 0 0 0 0 0 0 0 0 0 0 0 127 0" result="hardAlpha"/>
<feOffset dy="3.48478"/>
<feGaussianBlur stdDeviation="1.74239"/>
<feComposite in2="hardAlpha" operator="out"/>
<feColorMatrix type="matrix" values="0 0 0 0 0 0 0 0 0 0 0 0 0 0 0 0 0 0 0.25 0"/>
<feBlend mode="normal" in2="BackgroundImageFix" result="effect1_dropShadow_3831_4661"/>
<feBlend mode="normal" in="SourceGraphic" in2="effect1_dropShadow_3831_4661" result="shape"/>
</filter>
<filter id="filter4_d_3831_4661" x="95.6978" y="101.979" width="31.4299" height="36.598" filterUnits="userSpaceOnUse" color-interpolation-filters="sRGB">
<feFlood flood-opacity="0" result="BackgroundImageFix"/>
<feColorMatrix in="SourceAlpha" type="matrix" values="0 0 0 0 0 0 0 0 0 0 0 0 0 0 0 0 0 0 127 0" result="hardAlpha"/>
<feOffset dy="3.48478"/>
<feGaussianBlur stdDeviation="1.74239"/>
<feComposite in2="hardAlpha" operator="out"/>
<feColorMatrix type="matrix" values="0 0 0 0 0 0 0 0 0 0 0 0 0 0 0 0 0 0 0.25 0"/>
<feBlend mode="normal" in2="BackgroundImageFix" result="effect1_dropShadow_3831_4661"/>
<feBlend mode="normal" in="SourceGraphic" in2="effect1_dropShadow_3831_4661" result="shape"/>
</filter>
<filter id="filter5_d_3831_4661" x="128.027" y="102.521" width="30.0622" height="35.5206" filterUnits="userSpaceOnUse" color-interpolation-filters="sRGB">
<feFlood flood-opacity="0" result="BackgroundImageFix"/>
<feColorMatrix in="SourceAlpha" type="matrix" values="0 0 0 0 0 0 0 0 0 0 0 0 0 0 0 0 0 0 127 0" result="hardAlpha"/>
<feOffset dy="3.48478"/>
<feGaussianBlur stdDeviation="1.74239"/>
<feComposite in2="hardAlpha" operator="out"/>
<feColorMatrix type="matrix" values="0 0 0 0 0 0 0 0 0 0 0 0 0 0 0 0 0 0 0.25 0"/>
<feBlend mode="normal" in2="BackgroundImageFix" result="effect1_dropShadow_3831_4661"/>
<feBlend mode="normal" in="SourceGraphic" in2="effect1_dropShadow_3831_4661" result="shape"/>
</filter>
<linearGradient id="paint0_linear_3831_4661" x1="113.861" y1="48.5527" x2="113.861" y2="92.5468" gradientUnits="userSpaceOnUse">
<stop stop-color="#E7E7E7" stop-opacity="0.53"/>
<stop offset="1" stop-color="#BABABA" stop-opacity="0"/>
</linearGradient>
<linearGradient id="paint1_linear_3831_4661" x1="112.903" y1="124.802" x2="112.903" y2="142.211" gradientUnits="userSpaceOnUse">
<stop stop-color="#DBDBDB"/>
<stop offset="1" stop-color="#ABABAB" stop-opacity="0"/>
</linearGradient>
<linearGradient id="paint2_linear_3831_4661" x1="68.4962" y1="130.558" x2="68.8165" y2="133.565" gradientUnits="userSpaceOnUse">
<stop stop-color="#D5CFCF"/>
<stop offset="1" stop-color="#878787"/>
</linearGradient>
<linearGradient id="paint3_linear_3831_4661" x1="97.824" y1="127.082" x2="97.824" y2="129.198" gradientUnits="userSpaceOnUse">
<stop stop-color="#B3B3B3"/>
<stop offset="1" stop-color="#B0B0B0"/>
</linearGradient>
<linearGradient id="paint4_linear_3831_4661" x1="125.119" y1="129.576" x2="133.944" y2="130.166" gradientUnits="userSpaceOnUse">
<stop stop-color="#A8A8A8"/>
<stop offset="1" stop-color="#909090"/>
</linearGradient>
<linearGradient id="paint5_linear_3831_4661" x1="164.739" y1="132.535" x2="164.506" y2="134.555" gradientUnits="userSpaceOnUse">
<stop stop-color="#B7B7B7"/>
<stop offset="1" stop-color="#B9B9B9"/>
</linearGradient>
<linearGradient id="paint6_linear_3831_4661" x1="126.081" y1="58.298" x2="130.102" y2="44.4187" gradientUnits="userSpaceOnUse">
<stop stop-color="#4E4E4E"/>
<stop offset="1" stop-color="#252525"/>
</linearGradient>
<linearGradient id="paint7_linear_3831_4661" x1="76.5035" y1="110.016" x2="89.8626" y2="128.308" gradientUnits="userSpaceOnUse">
<stop stop-color="#E3EAF7"/>
<stop offset="0.0001" stop-color="#C6C6C6"/>
<stop offset="1" stop-color="#767676"/>
</linearGradient>
<linearGradient id="paint8_linear_3831_4661" x1="107.243" y1="109.756" x2="121.018" y2="129.008" gradientUnits="userSpaceOnUse">
<stop stop-color="#E3EAF7"/>
<stop offset="0.0001" stop-color="#C6C6C6"/>
<stop offset="1" stop-color="#767676"/>
</linearGradient>
<linearGradient id="paint9_linear_3831_4661" x1="139.259" y1="110.016" x2="152.618" y2="128.308" gradientUnits="userSpaceOnUse">
<stop stop-color="#E3EAF7"/>
<stop offset="0.0001" stop-color="#C6C6C6"/>
<stop offset="1" stop-color="#767676"/>
</linearGradient>
<linearGradient id="paint10_linear_3831_4661" x1="74.0537" y1="110.016" x2="87.4128" y2="128.308" gradientUnits="userSpaceOnUse">
<stop stop-color="#F5F2EC"/>
<stop offset="1" stop-color="#E6E1D8"/>
</linearGradient>
<linearGradient id="paint11_linear_3831_4661" x1="104.793" y1="109.756" x2="118.568" y2="129.008" gradientUnits="userSpaceOnUse">
<stop stop-color="#F5F2EC"/>
<stop offset="1" stop-color="#E6E1D8"/>
</linearGradient>
<linearGradient id="paint12_linear_3831_4661" x1="136.809" y1="110.016" x2="150.168" y2="128.308" gradientUnits="userSpaceOnUse">
<stop stop-color="#F5F2EC"/>
<stop offset="1" stop-color="#E6E1D8"/>
</linearGradient>
</defs>
</svg>
