<svg width="230" height="160" viewBox="0 0 230 160" fill="none" xmlns="http://www.w3.org/2000/svg">
<g filter="url(#filter0_dd_7647_1744)">
<path d="M181.673 113.948L181.013 115.836L62.8411 74.608L63.5004 72.7197L181.673 113.948Z" fill="url(#paint0_linear_7647_1744)"/>
</g>
<path d="M183.657 109.335C185.149 108.614 186.943 109.24 187.663 110.732L190.066 115.711C190.787 117.203 190.161 118.996 188.669 119.717L183.69 122.12C182.198 122.84 180.405 122.214 179.684 120.722L177.281 115.744C176.561 114.252 177.187 112.458 178.679 111.738L183.657 109.335ZM63.9167 68.3083C65.4088 67.588 67.2023 68.2137 67.9225 69.7058L70.3257 74.6845C71.046 76.1766 70.4203 77.97 68.9282 78.6903L63.9495 81.0935C62.4575 81.8137 60.6639 81.188 59.9437 79.696L57.5405 74.7173C56.8203 73.2253 57.4461 71.4318 58.938 70.7115L63.9167 68.3083Z" fill="url(#paint1_linear_7647_1744)"/>
<path d="M187.213 110.95C186.613 109.706 185.118 109.185 183.875 109.785L178.896 112.188C177.653 112.788 177.131 114.283 177.732 115.526L180.135 120.505C180.735 121.748 182.23 122.27 183.473 121.67L188.452 119.266C189.695 118.666 190.217 117.172 189.616 115.928L187.213 110.95ZM67.4724 69.9232C66.8722 68.6798 65.3776 68.1583 64.1342 68.7586L59.1556 71.1618C57.9122 71.7621 57.3908 73.2567 57.9909 74.5L60.3941 79.4786C60.9943 80.722 62.4889 81.2434 63.7324 80.6433L68.711 78.24C69.9544 77.6398 70.4758 76.1453 69.8756 74.9018L67.4724 69.9232ZM190.517 115.494C191.357 117.234 190.627 119.327 188.886 120.167L183.908 122.57C182.167 123.41 180.075 122.681 179.234 120.94L176.831 115.961C175.991 114.22 176.721 112.128 178.462 111.288L183.44 108.884C185.181 108.044 187.273 108.774 188.114 110.515L190.517 115.494ZM70.7762 74.4671C71.6165 76.2079 70.8865 78.3003 69.1457 79.1406L64.1671 81.5438C62.4263 82.384 60.3339 81.6541 59.4936 79.9133L57.0903 74.9347C56.2501 73.1939 56.9802 71.1016 58.7208 70.2612L63.6995 67.858C65.4403 67.0177 67.5327 67.7477 68.373 69.4885L70.7762 74.4671Z" fill="url(#paint2_linear_7647_1744)"/>
<g filter="url(#filter1_dd_7647_1744)">
<path fill-rule="evenodd" clip-rule="evenodd" d="M113.973 20C115.996 20 118.101 20.0003 119.711 21.1406C121.115 22.1589 122.395 23.544 122.519 25.499C122.766 28.8793 121.982 32.0968 120.785 35.2734C120.62 35.7215 120.372 36.0066 120 36.251C119.807 36.3703 119.66 36.5185 119.545 36.6836C119.53 36.7045 119.517 36.7256 119.503 36.7471C119.259 37.1343 119.175 37.6074 119.092 38.0439C119.051 38.4512 119.134 39.0208 119.918 39.0615C121.569 39.2244 123.221 39.469 124.748 40.2021C125.698 40.6502 126.399 41.2614 126.854 42.1982C128.588 45.8639 130.115 49.6111 130.859 53.6025C131.065 54.6614 131.56 55.6388 132.056 56.6162C133.872 60.0375 135.688 63.4592 137.381 66.9619C138.248 68.7948 139.074 70.6681 139.983 72.501C140.189 72.949 140.354 73.3972 140.85 73.6416C141.138 73.7639 141.221 74.0895 141.221 74.415C141.221 75.026 141.221 75.6781 141.18 76.2891C141.18 76.9 140.931 77.4293 140.395 77.7959C139.941 78.1217 139.693 78.6514 139.321 79.0586C139.278 79.1078 139.231 79.1555 139.182 79.2012C139.152 79.2286 139.122 79.2551 139.091 79.2803C139.075 79.2935 139.057 79.3049 139.04 79.3174C139.014 79.3367 138.988 79.3559 138.961 79.373C138.943 79.3842 138.925 79.3932 138.906 79.4033C138.878 79.419 138.85 79.4345 138.821 79.4473C138.783 79.464 138.745 79.4783 138.705 79.4893C138.702 79.4901 138.699 79.4904 138.696 79.4912C138.653 79.5025 138.61 79.5113 138.566 79.5146C138.464 79.5225 138.358 79.5092 138.25 79.4658L138.166 79.4258C138.143 79.4119 138.122 79.3965 138.104 79.3818C138.094 79.3741 138.086 79.3654 138.077 79.3574C138.069 79.35 138.061 79.3435 138.055 79.3359C138.047 79.3267 138.04 79.3171 138.033 79.3076C138.029 79.3011 138.024 79.2947 138.021 79.2881C138.016 79.2793 138.011 79.2707 138.007 79.2617C138.002 79.2514 137.999 79.241 137.996 79.2305C137.994 79.224 137.993 79.2175 137.991 79.2109C137.989 79.1977 137.987 79.1844 137.986 79.1709C137.986 79.1696 137.986 79.1683 137.985 79.167V79.1523C137.986 79.1497 137.986 79.1472 137.986 79.1445C137.987 79.1222 137.992 79.1 137.997 79.0771C138.002 79.0559 138.007 79.0342 138.015 79.0127C138.02 78.9987 138.025 78.9848 138.031 78.9707C138.079 78.8595 138.153 78.7459 138.204 78.6396L138.248 78.5293C138.661 77.1037 138.578 76.9405 137.216 76.248C137.116 76.1988 137.015 76.1451 136.915 76.0879C136.901 76.0797 136.886 76.0718 136.872 76.0635C136.846 76.0477 136.819 76.0311 136.793 76.0146C136.761 75.9943 136.728 75.9737 136.696 75.9521C136.673 75.9362 136.65 75.9199 136.627 75.9033C136.595 75.8803 136.565 75.8564 136.534 75.832C136.51 75.8126 136.486 75.7929 136.463 75.7725C136.433 75.7459 136.404 75.7178 136.376 75.6895C136.36 75.673 136.343 75.6568 136.327 75.6396C136.292 75.6009 136.259 75.5597 136.228 75.5176C136.219 75.5055 136.208 75.4948 136.199 75.4824C136.192 75.4712 136.184 75.4597 136.177 75.4482C136.11 75.3453 136.055 75.2329 136.019 75.1084C135.771 74.1716 135.152 73.4788 134.532 72.8271C132.551 70.7093 130.611 68.5096 128.753 66.2695C128.629 66.1067 128.546 65.9031 128.464 65.7402C128.381 65.8217 128.298 65.8619 128.216 65.9434L128.34 65.9844C128.918 68.5096 129.372 71.0353 129.826 73.5605C130.239 75.9224 130.28 75.9223 128.01 76.6553C127.267 76.8997 127.018 77.2261 126.895 78C126.564 80.8102 126.317 83.7019 125.532 86.4307C124.805 88.8398 124.453 91.3135 124.035 93.7705C123.998 93.9879 123.958 94.2048 123.92 94.4219C123.827 94.9488 123.732 95.4751 123.625 95.999C123.613 96.059 123.6 96.1188 123.587 96.1787C123.551 96.3511 123.514 96.5233 123.476 96.6953C123.452 96.8038 123.427 96.9122 123.401 97.0205C123.385 97.0895 123.37 97.1586 123.354 97.2275C123.307 97.4227 123.258 97.6171 123.207 97.8115C123.184 97.9009 123.162 97.9909 123.138 98.0801C122.89 98.9353 122.684 99.791 122.354 100.605C121.371 102.915 121.382 105.285 121.476 107.658C121.502 108.319 121.531 108.98 121.551 109.641C121.555 109.785 121.56 109.928 121.563 110.072V110.092C121.567 110.297 121.569 110.501 121.569 110.706C121.569 110.757 121.566 110.807 121.562 110.855C121.557 110.901 121.551 110.945 121.543 110.988C121.542 110.997 121.54 111.005 121.538 111.014C121.526 111.077 121.51 111.138 121.493 111.199C121.439 111.403 121.368 111.598 121.321 111.806C121.235 112.168 121.159 112.531 121.095 112.893C121.078 112.989 121.061 113.085 121.046 113.181C120.765 114.961 120.814 116.736 121.569 118.485C121.776 118.974 121.734 119.463 121.775 119.952C121.817 120.359 121.776 120.725 122.354 120.848C122.643 120.929 122.849 121.214 122.808 121.54C122.783 121.756 122.799 121.937 122.851 122.086C122.866 122.13 122.883 122.171 122.904 122.21C122.907 122.215 122.91 122.219 122.913 122.224C122.93 122.253 122.949 122.28 122.97 122.307C123.137 122.52 123.419 122.637 123.799 122.681H123.881C125.202 123.169 126.234 126.265 125.491 127.405L125.306 127.676C125.275 127.719 125.244 127.758 125.213 127.789C125.182 127.82 125.15 127.843 125.119 127.854C124.163 128.019 123.4 128.633 122.574 129.091C122.541 129.11 122.507 129.128 122.473 129.146C122.43 129.169 122.386 129.192 122.343 129.214C122.286 129.242 122.229 129.269 122.172 129.295C122.136 129.311 122.101 129.327 122.065 129.343C122.018 129.363 121.97 129.381 121.923 129.399C121.878 129.417 121.832 129.435 121.786 129.45C121.732 129.469 121.677 129.484 121.622 129.5C121.581 129.512 121.539 129.525 121.497 129.535C121.479 129.54 121.461 129.543 121.442 129.547C121.366 129.564 121.288 129.579 121.208 129.59C121.179 129.594 121.15 129.597 121.121 129.6C121.097 129.602 121.073 129.606 121.048 129.607C121.033 129.609 121.019 129.608 121.004 129.609C120.866 129.618 120.725 129.618 120.578 129.604C119.505 129.523 118.39 129.565 117.275 129.442C116.285 129.361 116.037 128.749 116.078 127.976C116.078 127.609 116.243 127.283 116.367 126.957C117.275 124.921 117.028 122.843 116.656 120.726C116.45 119.667 116.243 118.608 115.913 117.59C115.831 117.305 115.707 117.019 115.542 116.815C115.129 116.367 114.757 116.082 114.303 116.938C113.395 118.73 112.115 120.359 111.454 122.232C110.959 123.658 109.886 125.043 110.299 126.754C110.547 127.691 111.248 129.808 111.908 130.623C112.197 131.03 112.486 131.438 112.651 131.886C112.858 132.497 112.817 133.026 112.032 133.434C111.921 133.49 111.811 133.541 111.699 133.588C111.591 133.633 111.481 133.673 111.372 133.71C111.345 133.719 111.318 133.726 111.291 133.734C111.209 133.761 111.127 133.787 111.045 133.809C111.015 133.817 110.984 133.823 110.954 133.83C110.872 133.85 110.79 133.869 110.707 133.886C110.687 133.89 110.667 133.893 110.648 133.896C110.557 133.913 110.467 133.928 110.377 133.94C110.349 133.944 110.32 133.948 110.292 133.951C110.216 133.96 110.139 133.968 110.063 133.975C110.025 133.978 109.988 133.98 109.951 133.982C109.875 133.987 109.8 133.992 109.724 133.994C109.686 133.995 109.649 133.996 109.611 133.997C109.548 133.998 109.484 133.999 109.421 133.998C109.366 133.998 109.311 133.997 109.256 133.995C109.198 133.993 109.141 133.991 109.083 133.988C109.041 133.986 108.999 133.984 108.957 133.981C108.881 133.977 108.805 133.972 108.73 133.966C108.695 133.963 108.661 133.959 108.626 133.956C108.579 133.952 108.531 133.947 108.484 133.942C108.315 133.925 108.146 133.905 107.978 133.882C107.89 133.87 107.803 133.856 107.716 133.843C107.365 133.791 107.014 133.734 106.665 133.678C106.526 133.658 106.388 133.635 106.249 133.61C106.216 133.604 106.182 133.598 106.149 133.592C106.042 133.572 105.936 133.552 105.829 133.53C105.726 133.509 105.622 133.486 105.519 133.464C105.281 133.413 105.042 133.363 104.803 133.312C104.26 133.194 103.713 133.083 103.156 133.026C102.542 132.955 102.244 132.634 102.179 132.146L102.165 131.927C102.165 131.656 102.166 131.38 102.189 131.106C102.191 131.083 102.193 131.06 102.195 131.037C102.201 130.976 102.208 130.914 102.217 130.854C102.224 130.803 102.235 130.753 102.244 130.702C102.252 130.663 102.259 130.624 102.268 130.585C102.276 130.547 102.287 130.51 102.297 130.473C102.31 130.424 102.325 130.377 102.341 130.329C102.363 130.265 102.386 130.201 102.413 130.138C102.45 130.054 102.491 129.971 102.539 129.891C102.564 129.849 102.591 129.808 102.619 129.768C102.655 129.715 102.685 129.661 102.714 129.606C103.018 129.024 102.96 128.32 103.073 127.649C103.099 127.536 103.128 127.425 103.159 127.316C103.162 127.306 103.165 127.296 103.168 127.286C103.199 127.184 103.232 127.083 103.269 126.984C103.276 126.965 103.284 126.947 103.291 126.928C103.327 126.833 103.365 126.74 103.406 126.648C103.415 126.63 103.424 126.613 103.433 126.595C103.522 126.406 103.623 126.224 103.737 126.051C103.745 126.04 103.752 126.029 103.76 126.018C103.818 125.932 103.879 125.848 103.943 125.767C103.955 125.752 103.966 125.739 103.978 125.725C104.04 125.647 104.105 125.571 104.174 125.497C104.187 125.483 104.201 125.47 104.214 125.456C104.38 125.281 104.564 125.116 104.767 124.962C104.891 124.88 105.056 124.758 105.097 124.595C105.675 121.785 107.449 119.3 107.573 116.327C107.656 113.965 107.946 111.561 108.813 109.402C110.133 106.063 109.473 102.845 108.648 99.5869C106.914 93.0294 105.056 86.4716 103.28 79.9141C103.256 79.821 103.235 79.7269 103.217 79.6328C103.096 79.0059 103.06 78.3876 102.258 78.1738C102.242 78.1695 102.226 78.1641 102.209 78.1602L102 78.1221C101.975 78.1185 101.948 78.1084 101.919 78.0947C101.915 78.0926 101.91 78.0903 101.905 78.0879C101.851 78.0597 101.791 78.016 101.728 77.96C101.64 77.8819 101.545 77.781 101.451 77.668C101.438 77.6523 101.425 77.6362 101.412 77.6201C101.386 77.5881 101.361 77.5549 101.335 77.5215C101.167 77.3028 101.005 77.0607 100.886 76.8594C100.597 76.3707 100.721 75.7599 100.886 75.2305C101.423 73.5605 101.546 71.8492 101.257 69.9756C100.72 70.5458 100.431 71.1163 100.349 71.8086C100.142 73.6006 99.7292 75.3519 99.0274 77.0625C98.7385 77.7956 98.326 78.6103 99.5646 79.0176C99.8947 79.1397 99.9356 79.5473 99.9357 79.873C99.8531 81.4207 100.143 82.9687 99.8126 84.4756C99.7632 84.6999 99.7376 84.9269 99.7316 85.1543C99.7272 85.3183 99.7345 85.4824 99.7491 85.6465C99.799 86.2046 99.9486 86.7595 100.143 87.2861C100.473 88.1822 100.638 89.0378 100.638 89.9746C100.638 92.1644 101.031 94.2922 101.391 96.4248C101.43 96.659 101.468 96.8935 101.506 97.1279C101.545 97.3681 101.585 97.6081 101.621 97.8486C101.637 97.9508 101.651 98.053 101.666 98.1553C101.682 98.2678 101.698 98.3805 101.713 98.4932C101.72 98.5433 101.727 98.5934 101.734 98.6436C101.755 98.8045 101.775 98.9656 101.794 99.127C101.844 99.5503 101.888 99.9749 101.918 100.401C102.001 101.338 102.041 102.234 101.752 103.212C101.422 104.189 102 105.207 102.083 106.226C102.207 107.447 101.917 107.774 100.679 107.937L100.312 107.962C100.072 107.97 99.8376 107.959 99.6075 107.937C99.585 107.934 99.5626 107.931 99.5401 107.929C99.4539 107.919 99.3684 107.908 99.2833 107.895C99.2454 107.889 99.2077 107.882 99.17 107.875C99.0886 107.861 99.0074 107.846 98.9269 107.829C98.9119 107.826 98.8969 107.823 98.8819 107.819C98.7899 107.799 98.6985 107.777 98.6075 107.753C98.5782 107.745 98.5489 107.738 98.5196 107.729C98.4372 107.707 98.3552 107.683 98.2735 107.658C98.2517 107.652 98.2299 107.645 98.2081 107.638C98.1224 107.611 98.0373 107.582 97.9523 107.553C97.9318 107.546 97.9111 107.539 97.8907 107.532C97.8176 107.507 97.7447 107.48 97.672 107.453C97.5274 107.4 97.3838 107.343 97.2403 107.285C96.816 107.114 96.3945 106.932 95.9698 106.756C95.7656 106.671 95.5606 106.589 95.3536 106.511C94.239 106.103 93.1655 105.533 92.0509 105.126C91.4729 104.922 91.2659 104.596 91.3898 103.985C91.5136 103.334 91.5555 102.682 91.5968 102.03C91.5969 101.534 91.778 100.966 91.1544 100.695L91.0187 100.646C91.0036 100.646 90.9896 100.64 90.9757 100.631C90.973 100.629 90.9706 100.627 90.9679 100.625C90.9581 100.618 90.9487 100.609 90.9396 100.598C90.936 100.593 90.9323 100.589 90.9288 100.584C90.9178 100.569 90.9066 100.552 90.8966 100.532C90.8827 100.505 90.8706 100.474 90.8585 100.441C90.8402 100.392 90.8227 100.339 90.8087 100.285L90.7706 100.116C90.7187 99.8085 90.6945 99.5009 90.6456 99.2021C90.6035 98.944 90.5422 98.6929 90.4259 98.4541C90.3958 98.3923 90.3634 98.3306 90.3253 98.2705C90.2753 98.1916 90.2177 98.1145 90.1515 98.0391C89.9038 97.754 90.1516 97.3871 90.2755 97.0205C90.5232 96.2467 90.8534 95.3504 89.8214 94.7803C89.7804 94.756 89.7426 94.7289 89.7071 94.7002C89.701 94.6952 89.6946 94.6906 89.6886 94.6855C89.6754 94.6743 89.6639 94.6612 89.6515 94.6494C89.6246 94.6239 89.5987 94.5982 89.5753 94.5703C89.5624 94.5549 89.5511 94.5385 89.5392 94.5225C89.5202 94.4969 89.502 94.4712 89.4855 94.4443C89.4725 94.4233 89.4609 94.4016 89.4493 94.3799C89.4382 94.3588 89.427 94.338 89.4171 94.3164C89.406 94.2922 89.3954 94.2679 89.3858 94.2432C89.3741 94.2125 89.3641 94.1815 89.3546 94.1504C89.3503 94.1364 89.3457 94.1225 89.3419 94.1084C89.3156 94.0122 89.2981 93.9158 89.2901 93.8232L89.2843 93.6807C89.2843 91.4 89.0781 89.0785 89.4083 86.7979C89.5244 85.9196 89.9309 85.22 90.7296 84.834L90.8946 84.7607C91.2661 84.6386 91.4727 84.3538 91.6378 83.9873C91.8441 83.5802 92.0092 83.1321 92.298 82.7656C93.6604 81.2179 93.6194 79.4253 93.2892 77.5518C93.2892 77.3888 93.1656 77.1847 93.2482 77.0625C93.6725 76.3445 93.7796 75.5581 93.8566 74.7607C93.8729 74.5917 93.8891 74.4224 93.9054 74.2529C93.9216 74.0841 93.9385 73.9153 93.9601 73.7471C93.9807 73.5865 94.0059 73.4266 94.0362 73.2676C94.0424 73.2354 94.0472 73.203 94.0538 73.1709C94.0943 72.9752 94.1454 72.7813 94.2101 72.5898L94.3214 72.2979C94.9406 70.9539 94.8995 69.3653 95.0646 67.8584C95.0794 67.7068 95.0972 67.5555 95.1183 67.4053C95.1513 67.1696 95.1932 66.9359 95.2394 66.7031C95.2534 66.6325 95.2663 66.5616 95.2814 66.4912C95.3002 66.403 95.3215 66.3154 95.3419 66.2275C95.3536 66.1772 95.3639 66.1264 95.3761 66.0762C95.4033 65.9639 95.4328 65.8521 95.462 65.7402C95.4732 65.6976 95.4838 65.6549 95.4952 65.6123C95.5112 65.5527 95.5276 65.4931 95.5441 65.4336C95.5695 65.3417 95.5957 65.2499 95.6222 65.1582C95.6552 65.044 95.6904 64.9303 95.7247 64.8164C95.7834 64.6216 95.8421 64.4267 95.9034 64.2324C96.1783 63.3616 96.4696 62.4934 96.7062 61.6113C96.7615 61.405 96.8151 61.1983 96.8634 60.9902L96.964 60.5264C97.2319 59.2174 97.5064 57.9158 97.7804 56.6162C98.3929 53.7108 98.9966 50.8143 99.4816 47.8594C99.7293 46.3524 100.142 44.8454 100.803 43.4199C101.587 41.75 102.784 40.609 104.56 39.998C105.633 39.6315 106.748 39.4686 107.656 38.6133C108.111 38.1656 109.102 38.3289 109.845 38.166C110.431 38.0402 110.559 37.6346 110.641 37.209C110.652 37.1483 110.663 37.0872 110.674 37.0264C110.682 36.9801 110.692 36.9343 110.701 36.8887C110.723 36.7765 110.749 36.6673 110.786 36.5664L110.835 36.4551C111.165 35.8441 110.505 35.9259 110.257 35.8037C108.688 34.9484 108.069 33.6853 108.151 31.9746C108.151 31.4046 108.152 30.753 107.904 30.2236C107.881 30.1757 107.86 30.1269 107.839 30.0791C107.829 30.0568 107.819 30.0349 107.81 30.0127C107.8 29.9884 107.791 29.9637 107.781 29.9395C107.764 29.894 107.746 29.8491 107.731 29.8037C107.721 29.7771 107.714 29.7502 107.705 29.7236C107.692 29.6828 107.68 29.6422 107.669 29.6016C107.661 29.5726 107.655 29.5435 107.648 29.5146C107.637 29.4713 107.627 29.428 107.618 29.3848C107.613 29.361 107.609 29.3372 107.605 29.3135C107.597 29.2711 107.59 29.2288 107.584 29.1865C107.58 29.1568 107.576 29.1273 107.572 29.0977C107.542 28.8275 107.545 28.5596 107.574 28.2939C107.577 28.2718 107.58 28.2497 107.583 28.2275C107.597 28.1184 107.615 28.0097 107.638 27.9014C107.658 27.8045 107.68 27.7076 107.706 27.6113C107.715 27.5796 107.724 27.5482 107.734 27.5166C107.756 27.4376 107.781 27.3589 107.808 27.2803C107.815 27.259 107.821 27.2371 107.828 27.2158L107.986 26.8018C108.441 25.7021 108.524 24.5206 108.978 23.4209C109.803 21.2625 111.496 20.0407 113.973 20Z" fill="#5C5C5C"/>
</g>
<g filter="url(#filter2_dd_7647_1744)">
<path d="M191.221 119.569C189.012 119.569 187.221 117.779 187.221 115.569L187.221 103C187.221 100.791 189.012 99 191.221 99L191.283 99C195.042 99 198.089 102.146 198.089 105.902L198.089 112.668C198.089 116.524 194.94 119.569 191.283 119.569L191.221 119.569Z" fill="#919191"/>
</g>
<rect x="142.221" y="84" width="50" height="50" rx="12" fill="url(#paint3_linear_7647_1744)"/>
<rect x="142.721" y="84.5" width="49" height="49" rx="11.5" stroke="url(#paint4_linear_7647_1744)" stroke-opacity="0.4"/>
<path d="M147.221 96C147.221 92.134 150.355 89 154.221 89H167.221V129H154.221C150.355 129 147.221 125.866 147.221 122V96Z" fill="#7D7D7D"/>
<path d="M167.221 89H180.221C184.087 89 187.221 92.134 187.221 96V122C187.221 125.866 184.087 129 180.221 129H167.221V89Z" fill="#A6A6A6"/>
<path opacity="0.2" d="M147.221 109H167.221V129H154.221C150.355 129 147.221 125.866 147.221 122V109Z" fill="white"/>
<path opacity="0.5" d="M167.221 109H187.221V122C187.221 125.866 184.087 129 180.221 129H167.221V109Z" fill="#3C3C3C"/>
<path d="M154.221 89.5H180.221C183.811 89.5 186.721 92.4101 186.721 96V122C186.721 125.59 183.811 128.5 180.221 128.5H154.221C150.631 128.5 147.721 125.59 147.721 122V96C147.721 92.4101 150.631 89.5 154.221 89.5Z" stroke="#827F7F"/>
<path d="M156.776 121.178C154.314 121.178 152.439 120.233 151.152 118.343C149.864 116.442 149.221 113.357 149.221 109.089C149.221 104.82 149.859 101.741 151.135 99.851C152.422 97.9503 154.303 97 156.776 97C159.25 97 161.124 97.9503 162.401 99.851C163.688 101.741 164.332 104.82 164.332 109.089C164.332 113.357 163.688 116.442 162.401 118.343C161.113 120.233 159.238 121.178 156.776 121.178ZM156.776 119.028C157.849 119.028 158.741 118.725 159.453 118.12C160.176 117.504 160.729 116.469 161.113 115.014C161.508 113.559 161.706 111.6 161.706 109.137C161.706 106.641 161.508 104.661 161.113 103.196C160.729 101.73 160.176 100.69 159.453 100.074C158.741 99.4581 157.849 99.1502 156.776 99.1502C155.715 99.1502 154.822 99.4581 154.1 100.074C153.377 100.679 152.818 101.709 152.422 103.164C152.039 104.619 151.847 106.578 151.847 109.041C151.847 111.536 152.039 113.517 152.422 114.982C152.818 116.447 153.377 117.488 154.1 118.104C154.822 118.72 155.715 119.028 156.776 119.028Z" fill="#D1D1D1"/>
<mask id="mask0_7647_1744" style="mask-type:alpha" maskUnits="userSpaceOnUse" x="167" y="90" width="20" height="38">
<path d="M167.221 90H180.221C183.534 90 186.221 92.6863 186.221 96V123C186.221 125.761 183.982 128 181.221 128H167.221V90Z" fill="#9E9E9E"/>
</mask>
<g mask="url(#mask0_7647_1744)">
<path d="M177.018 101.648C174.537 101.648 172.647 100.685 171.35 98.7581C170.052 96.8204 169.404 93.6758 169.404 89.3242C169.404 84.9725 170.047 81.8333 171.333 79.9065C172.63 77.9688 174.525 77 177.018 77C179.51 77 181.399 77.9688 182.686 79.9065C183.983 81.8333 184.632 84.9725 184.632 89.3242C184.632 93.6758 183.983 96.8204 182.686 98.7581C181.388 100.685 179.499 101.648 177.018 101.648ZM177.018 99.4563C178.099 99.4563 178.998 99.1478 179.715 98.5307C180.443 97.9029 181.001 96.8475 181.388 95.3645C181.786 93.8814 181.986 91.8842 181.986 89.3729C181.986 86.829 181.786 84.8102 181.388 83.3163C181.001 81.8225 180.443 80.7617 179.715 80.1338C178.998 79.506 178.099 79.192 177.018 79.192C175.948 79.192 175.049 79.506 174.32 80.1338C173.592 80.7508 173.029 81.8008 172.63 83.2839C172.243 84.7669 172.05 86.7641 172.05 89.2754C172.05 91.8193 172.243 93.8381 172.63 95.332C173.029 96.8258 173.592 97.8867 174.32 98.5145C175.049 99.1423 175.948 99.4563 177.018 99.4563Z" fill="#D1D1D1"/>
</g>
<rect x="146.721" y="88.5" width="41" height="41" rx="7.5" stroke="url(#paint5_linear_7647_1744)"/>
<g filter="url(#filter3_dd_7647_1744)">
<path d="M169.221 105.065C169.221 104.477 169.697 104 170.285 104H183.087C183.713 104 184.221 104.508 184.221 105.134C184.221 105.288 184.189 105.441 184.128 105.582L175.294 126.13C175.067 126.658 174.548 127 173.973 127C172.936 127 172.24 125.935 172.656 124.985L180.302 107.53C180.592 106.87 180.108 106.129 179.386 106.129H170.285C169.697 106.129 169.221 105.652 169.221 105.065Z" fill="url(#paint6_linear_7647_1744)"/>
<path d="M179.386 105.629C180.468 105.629 181.194 106.739 180.76 107.73L173.114 125.186C172.843 125.805 173.296 126.5 173.973 126.5L173.973 127C173.001 127 172.328 126.064 172.591 125.164L172.656 124.985L180.302 107.53C180.592 106.87 180.108 106.129 179.386 106.129L179.386 105.629ZM179.386 105.629L179.386 106.129H170.285L170.285 105.629H179.386ZM169.221 105.065C169.221 104.477 169.697 104 170.285 104H183.087L183.202 104.006C183.774 104.064 184.221 104.547 184.221 105.134C184.221 105.288 184.189 105.441 184.128 105.582L175.294 126.13L175.248 126.227C175.002 126.699 174.512 127 173.973 127L173.973 126.5C174.347 126.5 174.687 126.277 174.835 125.933L183.669 105.385C183.703 105.306 183.721 105.22 183.721 105.134C183.721 104.784 183.437 104.5 183.087 104.5H170.285C169.973 104.5 169.721 104.753 169.721 105.064C169.721 105.376 169.973 105.629 170.285 105.629L170.285 106.129C169.697 106.129 169.221 105.652 169.221 105.065Z" fill="url(#paint7_linear_7647_1744)"/>
</g>
<defs>
<filter id="filter0_dd_7647_1744" x="48.8411" y="60.7197" width="146.832" height="71.1162" filterUnits="userSpaceOnUse" color-interpolation-filters="sRGB">
<feFlood flood-opacity="0" result="BackgroundImageFix"/>
<feColorMatrix in="SourceAlpha" type="matrix" values="0 0 0 0 0 0 0 0 0 0 0 0 0 0 0 0 0 0 127 0" result="hardAlpha"/>
<feOffset dy="2"/>
<feGaussianBlur stdDeviation="7"/>
<feComposite in2="hardAlpha" operator="out"/>
<feColorMatrix type="matrix" values="0 0 0 0 1 0 0 0 0 0.8 0 0 0 0 0.2 0 0 0 1 0"/>
<feBlend mode="normal" in2="BackgroundImageFix" result="effect1_dropShadow_7647_1744"/>
<feColorMatrix in="SourceAlpha" type="matrix" values="0 0 0 0 0 0 0 0 0 0 0 0 0 0 0 0 0 0 127 0" result="hardAlpha"/>
<feOffset dy="2"/>
<feGaussianBlur stdDeviation="4"/>
<feComposite in2="hardAlpha" operator="out"/>
<feColorMatrix type="matrix" values="0 0 0 0 0 0 0 0 0 0 0 0 0 0 0 0 0 0 0.5 0"/>
<feBlend mode="normal" in2="effect1_dropShadow_7647_1744" result="effect2_dropShadow_7647_1744"/>
<feBlend mode="normal" in="SourceGraphic" in2="effect2_dropShadow_7647_1744" result="shape"/>
</filter>
<filter id="filter1_dd_7647_1744" x="73.2207" y="8" width="84" height="145.998" filterUnits="userSpaceOnUse" color-interpolation-filters="sRGB">
<feFlood flood-opacity="0" result="BackgroundImageFix"/>
<feColorMatrix in="SourceAlpha" type="matrix" values="0 0 0 0 0 0 0 0 0 0 0 0 0 0 0 0 0 0 127 0" result="hardAlpha"/>
<feOffset dy="4"/>
<feGaussianBlur stdDeviation="8"/>
<feComposite in2="hardAlpha" operator="out"/>
<feColorMatrix type="matrix" values="0 0 0 0 0 0 0 0 0 0 0 0 0 0 0 0 0 0 0.14 0"/>
<feBlend mode="normal" in2="BackgroundImageFix" result="effect1_dropShadow_7647_1744"/>
<feColorMatrix in="SourceAlpha" type="matrix" values="0 0 0 0 0 0 0 0 0 0 0 0 0 0 0 0 0 0 127 0" result="hardAlpha"/>
<feOffset dy="1"/>
<feGaussianBlur stdDeviation="0.5"/>
<feComposite in2="hardAlpha" operator="out"/>
<feColorMatrix type="matrix" values="0 0 0 0 0 0 0 0 0 0 0 0 0 0 0 0 0 0 0.08 0"/>
<feBlend mode="normal" in2="effect1_dropShadow_7647_1744" result="effect2_dropShadow_7647_1744"/>
<feBlend mode="normal" in="SourceGraphic" in2="effect2_dropShadow_7647_1744" result="shape"/>
</filter>
<filter id="filter2_dd_7647_1744" x="171.221" y="87" width="42.8679" height="52.5693" filterUnits="userSpaceOnUse" color-interpolation-filters="sRGB">
<feFlood flood-opacity="0" result="BackgroundImageFix"/>
<feColorMatrix in="SourceAlpha" type="matrix" values="0 0 0 0 0 0 0 0 0 0 0 0 0 0 0 0 0 0 127 0" result="hardAlpha"/>
<feOffset dy="4"/>
<feGaussianBlur stdDeviation="8"/>
<feComposite in2="hardAlpha" operator="out"/>
<feColorMatrix type="matrix" values="0 0 0 0 0 0 0 0 0 0 0 0 0 0 0 0 0 0 0.14 0"/>
<feBlend mode="normal" in2="BackgroundImageFix" result="effect1_dropShadow_7647_1744"/>
<feColorMatrix in="SourceAlpha" type="matrix" values="0 0 0 0 0 0 0 0 0 0 0 0 0 0 0 0 0 0 127 0" result="hardAlpha"/>
<feOffset dy="1"/>
<feGaussianBlur stdDeviation="0.5"/>
<feComposite in2="hardAlpha" operator="out"/>
<feColorMatrix type="matrix" values="0 0 0 0 0 0 0 0 0 0 0 0 0 0 0 0 0 0 0.08 0"/>
<feBlend mode="normal" in2="effect1_dropShadow_7647_1744" result="effect2_dropShadow_7647_1744"/>
<feBlend mode="normal" in="SourceGraphic" in2="effect2_dropShadow_7647_1744" result="shape"/>
</filter>
<filter id="filter3_dd_7647_1744" x="161.221" y="96" width="31" height="39" filterUnits="userSpaceOnUse" color-interpolation-filters="sRGB">
<feFlood flood-opacity="0" result="BackgroundImageFix"/>
<feColorMatrix in="SourceAlpha" type="matrix" values="0 0 0 0 0 0 0 0 0 0 0 0 0 0 0 0 0 0 127 0" result="hardAlpha"/>
<feOffset/>
<feGaussianBlur stdDeviation="4"/>
<feComposite in2="hardAlpha" operator="out"/>
<feColorMatrix type="matrix" values="0 0 0 0 0.98415 0 0 0 0 0.859671 0 0 0 0 0.486234 0 0 0 1 0"/>
<feBlend mode="normal" in2="BackgroundImageFix" result="effect1_dropShadow_7647_1744"/>
<feColorMatrix in="SourceAlpha" type="matrix" values="0 0 0 0 0 0 0 0 0 0 0 0 0 0 0 0 0 0 127 0" result="hardAlpha"/>
<feOffset/>
<feGaussianBlur stdDeviation="1"/>
<feComposite in2="hardAlpha" operator="out"/>
<feColorMatrix type="matrix" values="0 0 0 0 0 0 0 0 0 0 0 0 0 0 0 0 0 0 0.08 0"/>
<feBlend mode="normal" in2="effect1_dropShadow_7647_1744" result="effect2_dropShadow_7647_1744"/>
<feBlend mode="normal" in="SourceGraphic" in2="effect2_dropShadow_7647_1744" result="shape"/>
</filter>
<linearGradient id="paint0_linear_7647_1744" x1="108.033" y1="56.1204" x2="136.482" y2="132.437" gradientUnits="userSpaceOnUse">
<stop stop-color="#FFCC33"/>
<stop offset="1" stop-color="#FFEAAA"/>
</linearGradient>
<linearGradient id="paint1_linear_7647_1744" x1="101.953" y1="49.9478" x2="145.654" y2="140.48" gradientUnits="userSpaceOnUse">
<stop stop-color="#717171"/>
<stop offset="0.828125" stop-color="#8C8C8C"/>
</linearGradient>
<linearGradient id="paint2_linear_7647_1744" x1="101.953" y1="49.9478" x2="145.654" y2="140.48" gradientUnits="userSpaceOnUse">
<stop stop-color="#696969"/>
<stop offset="0.283654" stop-color="#333333" stop-opacity="0"/>
</linearGradient>
<linearGradient id="paint3_linear_7647_1744" x1="161.721" y1="93.5" x2="190.221" y2="139" gradientUnits="userSpaceOnUse">
<stop offset="0.0036" stop-color="#8B8989"/>
<stop offset="1" stop-color="#FFFAED"/>
</linearGradient>
<linearGradient id="paint4_linear_7647_1744" x1="161.721" y1="93.5" x2="198.514" y2="119.348" gradientUnits="userSpaceOnUse">
<stop stop-color="#EBE1C2"/>
<stop offset="1" stop-color="#ADAEB6"/>
</linearGradient>
<linearGradient id="paint5_linear_7647_1744" x1="152.721" y1="90" x2="186.221" y2="129" gradientUnits="userSpaceOnUse">
<stop offset="0.298077" stop-color="#B6B1A0"/>
<stop offset="1" stop-color="#FFF4D1"/>
</linearGradient>
<linearGradient id="paint6_linear_7647_1744" x1="179.071" y1="100.629" x2="183.783" y2="122.115" gradientUnits="userSpaceOnUse">
<stop stop-color="#FFE79E"/>
<stop offset="1" stop-color="#FFD452"/>
</linearGradient>
<linearGradient id="paint7_linear_7647_1744" x1="169.221" y1="115.5" x2="184.221" y2="115.5" gradientUnits="userSpaceOnUse">
<stop stop-color="#FFEAAA"/>
<stop offset="1" stop-color="#FFE7A1"/>
</linearGradient>
</defs>
</svg>
