<svg width="24" height="24" viewBox="0 0 24 24" fill="none" xmlns="http://www.w3.org/2000/svg">
<path d="M3.24991 10.9999H2.04936C2.51843 6.27551 6.27557 2.51837 11 2.0493V3.24992C11 3.66414 11.3358 3.99992 11.75 3.99992C12.1642 3.99992 12.5 3.66414 12.5 3.24992V2.01221C17.4571 2.2563 21.4651 6.11 21.9506 10.9999H20.75C20.3358 10.9999 20 11.3357 20 11.7499C20 12.1641 20.3358 12.4999 20.75 12.4999H21.9877C21.7353 17.6248 17.6249 21.7353 12.5 21.9876V20.7499C12.5 20.3357 12.1642 19.9999 11.75 19.9999C11.3358 19.9999 11 20.3357 11 20.7499V21.9505C6.11006 21.465 2.25637 17.4571 2.01227 12.4999H3.24991C3.66412 12.4999 3.99991 12.1641 3.99991 11.7499C3.99991 11.3357 3.66412 10.9999 3.24991 10.9999ZM14.6538 11.5257C14.2352 10.5489 13.4451 9.7789 12.4579 9.38552L8.42977 7.78036C8.02198 7.61786 7.6177 8.02214 7.78021 8.42993L9.38544 12.458C9.77883 13.4452 10.5489 14.2352 11.5256 14.6538L15.851 16.5076C16.2659 16.6854 16.6853 16.2659 16.5075 15.851L14.6538 11.5257Z" fill="#212121"/>
</svg>
