<svg width="24" height="24" viewBox="0 0 24 24" fill="none" xmlns="http://www.w3.org/2000/svg">
<path d="M3.5 12C3.5 7.30558 7.30558 3.5 12 3.5C16.6944 3.5 20.5 7.30558 20.5 12C20.5 16.6944 16.6944 20.5 12 20.5C7.30558 20.5 3.5 16.6944 3.5 12ZM12 2C6.47715 2 2 6.47715 2 12C2 17.5228 6.47715 22 12 22C17.5228 22 22 17.5228 22 12C22 6.47715 17.5228 2 12 2ZM10.5002 7.75573C10.8908 7.61773 11.0955 7.18925 10.9575 6.7987C10.8195 6.40815 10.391 6.20343 10.0005 6.34144C7.67089 7.16464 6 9.38621 6 12C6 12.8079 6.1601 13.5804 6.45102 14.2859C6.60892 14.6688 7.04736 14.8512 7.43029 14.6933C7.81323 14.5354 7.99566 14.097 7.83776 13.7141C7.62032 13.1867 7.5 12.6084 7.5 12C7.5 10.0417 8.75128 8.37376 10.5002 7.75573ZM13.9995 6.34144C13.609 6.20343 13.1805 6.40815 13.0425 6.7987C12.9045 7.18925 13.1092 7.61773 13.4998 7.75573C15.2487 8.37376 16.5 10.0417 16.5 12C16.5 12.6084 16.3797 13.1867 16.1622 13.7141C16.0043 14.097 16.1868 14.5354 16.5697 14.6933C16.9526 14.8512 17.3911 14.6688 17.549 14.2859C17.8399 13.5804 18 12.8079 18 12C18 9.38621 16.3291 7.16464 13.9995 6.34144Z" fill="#212121"/>
</svg>
