<svg width="24" height="24" viewBox="0 0 24 24" fill="none" xmlns="http://www.w3.org/2000/svg">
<path d="M5.99976 4C6.55204 4 6.99976 4.44772 6.99976 5C6.99976 5.55228 6.55204 6 5.99976 6H5.29976C4.58179 6 3.99976 6.58203 3.99976 7.3V9C3.99976 9.55228 3.55204 10 2.99976 10C2.44747 10 1.99976 9.55228 1.99976 9V7.3C1.99976 5.47746 3.47722 4 5.29976 4H5.99976ZM18 4C17.4477 4 17 4.44772 17 5C17 5.55228 17.4477 6 18 6H18.7C19.418 6 20 6.58203 20 7.3V9C20 9.55228 20.4477 10 21 10C21.5523 10 22 9.55228 22 9V7.3C22 5.47746 20.5225 4 18.7 4H18ZM7 19C7 19.5523 6.55228 20 6 20H5.29986C3.4774 20 1.99997 18.5227 1.99986 16.7002L1.99976 15.0001C1.99972 14.4478 2.44741 14 2.99969 14C3.55198 14 3.99972 14.4477 3.99976 14.9999L3.99986 16.7001C3.9999 17.418 4.58192 18 5.29986 18H6C6.55228 18 7 18.4477 7 19ZM11 4C10.4477 4 10 4.44772 10 5C10 5.55228 10.4477 6 11 6H13C13.5523 6 14 5.55228 14 5C14 4.44772 13.5523 4 13 4H11ZM9 19C9 18.4477 9.44772 18 10 18H11.4998C12.052 18 12.4998 18.4477 12.4998 19C12.4998 19.5523 12.052 20 11.4998 20H10C9.44772 20 9 19.5523 9 19ZM13.5 20L18.7498 20C20.5447 20 21.9998 18.545 21.9998 16.75V11.5L13.5 20Z" fill="#212121"/>
</svg>
