<svg width="20" height="20" viewBox="0 0 20 20" fill="none" xmlns="http://www.w3.org/2000/svg">
<path d="M4.25 4C3.00736 4 2 5.00736 2 6.25V7.75C2 8.16421 2.33579 8.5 2.75 8.5C3.16421 8.5 3.5 8.16421 3.5 7.75V6.25C3.5 5.83579 3.83579 5.5 4.25 5.5H5.25C5.66421 5.5 6 5.16421 6 4.75C6 4.33579 5.66421 4 5.25 4H4.25ZM8.75 4C8.33579 4 8 4.33579 8 4.75C8 5.16421 8.33579 5.5 8.75 5.5H11.25C11.6642 5.5 12 5.16421 12 4.75C12 4.33579 11.6642 4 11.25 4H8.75ZM14.75 4C14.3358 4 14 4.33579 14 4.75C14 5.16421 14.3358 5.5 14.75 5.5H15.75C16.1642 5.5 16.5 5.83579 16.5 6.25V7.25C16.5 7.66421 16.8358 8 17.25 8C17.6642 8 18 7.66421 18 7.25V6.25C18 5.00736 16.9926 4 15.75 4H14.75ZM3.5 12.25C3.5 11.8358 3.16421 11.5 2.75 11.5C2.33579 11.5 2 11.8358 2 12.25V13.75C2 14.9926 3.00736 16 4.25 16H5.25C5.66421 16 6 15.6642 6 15.25C6 14.8358 5.66421 14.5 5.25 14.5H4.25C3.83579 14.5 3.5 14.1642 3.5 13.75V12.25ZM8.75 14.5C8.33579 14.5 8 14.8358 8 15.25C8 15.6642 8.33579 16 8.75 16H10C10.4142 16 10.75 15.6642 10.75 15.25C10.75 14.8358 10.4142 14.5 10 14.5H8.75ZM11.5 16H15C16.6569 16 18 14.6569 18 13V9.5L11.5 16Z" fill="#212121"/>
</svg>
