<svg width="231" height="160" viewBox="0 0 231 160" fill="none" xmlns="http://www.w3.org/2000/svg">
<path d="M114.977 135C145.283 135 169.977 110.34 169.977 80.0512C169.875 49.6605 145.283 25 114.977 25C84.5684 25 59.9766 49.6605 59.9766 79.9488C59.9766 110.34 84.5684 135 114.977 135Z" fill="#242424"/>
<g filter="url(#filter0_d_4963_604)">
<path d="M173.383 86.6917C173.383 98.3988 163.915 107.866 152.106 107.866C151.902 107.866 150.172 107.866 137.447 107.866C128.59 107.866 114.44 107.866 91.8398 107.866H81.0489C66.8986 108.172 55.5986 96.8718 55.5986 83.2304C55.5986 69.4873 67.0004 58.0855 81.3543 58.7982C93.6723 20.3173 150.07 25.7128 154.855 65.517C165.442 66.8404 173.383 75.7989 173.383 86.6917Z" fill="#424242"/>
</g>
<path d="M117.392 108.07C138.262 108.07 155.262 91.1706 155.262 70.3014C155.262 49.4322 138.262 32.5332 117.392 32.5332C96.5232 32.5332 79.5225 49.4322 79.5225 70.3014C79.5225 91.1706 96.4214 108.07 117.392 108.07Z" fill="url(#paint0_linear_4963_604)"/>
<path d="M101.209 84.8589C105.18 82.3139 109.863 80.8887 114.851 80.8887C128.492 80.8887 139.588 91.8832 139.588 105.525C139.588 119.166 128.492 130.16 114.851 130.16C101.209 130.16 90.1131 119.166 90.1131 105.525C89.9095 96.8714 94.3888 89.3382 101.209 84.8589Z" fill="url(#paint1_linear_4963_604)"/>
<path d="M152.107 107.866C163.814 107.866 173.383 98.3986 173.383 86.6915C173.383 74.9843 163.814 65.5168 152.107 65.5168C140.399 65.5168 130.83 74.9843 130.83 86.6915C130.83 98.3986 140.399 107.866 152.107 107.866Z" fill="url(#paint2_linear_4963_604)"/>
<path d="M107.942 104.016C108.494 103.465 108.494 102.584 107.942 102.033C107.39 101.482 106.727 101.592 105.843 101.592C108.384 95.2022 116.669 93.7699 120.977 98.9481C122.634 100.711 125.285 98.3972 123.739 96.6344C119.21 91.3461 111.145 90.6851 105.843 95.2022C103.855 96.8548 102.529 99.0582 101.866 101.592C100.099 101.592 99.7673 101.592 99.3254 102.033C98.773 102.584 98.773 103.465 99.3254 104.016C104.407 108.974 103.081 108.974 107.942 104.016Z" fill="#242424"/>
<path d="M129.594 107.211L126.501 104.016C125.948 103.466 125.065 103.466 124.512 104.016L121.309 107.211C120.756 107.762 120.756 108.644 121.309 109.195C121.861 109.745 122.524 109.635 123.408 109.635C120.867 116.135 112.361 117.458 108.053 111.949C107.39 111.067 106.285 110.957 105.401 111.618C102.64 113.932 109.157 119 114.902 119C120.536 119 125.728 115.144 127.053 109.525C128.821 109.525 129.152 109.525 129.594 109.084C130.146 108.754 130.146 107.872 129.594 107.211Z" fill="#242424"/>
<path d="M171.041 60.6304C173.346 60.6304 175.215 58.7617 175.215 56.4566C175.215 54.1514 173.346 52.2827 171.041 52.2827C168.736 52.2827 166.867 54.1514 166.867 56.4566C166.867 58.7617 168.736 60.6304 171.041 60.6304Z" fill="#5C5C5C"/>
<path d="M177.149 44.3422C178.724 44.3422 180 43.066 180 41.4918C180 39.9175 178.724 38.6414 177.149 38.6414C175.575 38.6414 174.299 39.9175 174.299 41.4918C174.299 43.066 175.575 44.3422 177.149 44.3422Z" fill="#5C5C5C"/>
<path d="M61.7069 53.7079C63.2811 53.7079 64.5573 52.4318 64.5573 50.8575C64.5573 49.2833 63.2811 48.0071 61.7069 48.0071C60.1326 48.0071 58.8564 49.2833 58.8564 50.8575C58.8564 52.4318 60.1326 53.7079 61.7069 53.7079Z" fill="#5C5C5C"/>
<path d="M55.2937 116.417C58.2173 116.417 60.5873 114.047 60.5873 111.124C60.5873 108.2 58.2173 105.83 55.2937 105.83C52.3701 105.83 50 108.2 50 111.124C50 114.047 52.3701 116.417 55.2937 116.417Z" fill="#5C5C5C"/>
<defs>
<filter id="filter0_d_4963_604" x="44.4836" y="30.9155" width="140.014" height="97.4768" filterUnits="userSpaceOnUse" color-interpolation-filters="sRGB">
<feFlood flood-opacity="0" result="BackgroundImageFix"/>
<feColorMatrix in="SourceAlpha" type="matrix" values="0 0 0 0 0 0 0 0 0 0 0 0 0 0 0 0 0 0 127 0" result="hardAlpha"/>
<feOffset dy="9.405"/>
<feGaussianBlur stdDeviation="5.5575"/>
<feColorMatrix type="matrix" values="0 0 0 0 0 0 0 0 0 0 0 0 0 0 0 0 0 0 0.22 0"/>
<feBlend mode="normal" in2="BackgroundImageFix" result="effect1_dropShadow_4963_604"/>
<feBlend mode="normal" in="SourceGraphic" in2="effect1_dropShadow_4963_604" result="shape"/>
</filter>
<linearGradient id="paint0_linear_4963_604" x1="88.752" y1="48.2225" x2="101.434" y2="58.0242" gradientUnits="userSpaceOnUse">
<stop stop-color="#686868"/>
<stop offset="0.9942" stop-color="#424242"/>
</linearGradient>
<linearGradient id="paint1_linear_4963_604" x1="95.9042" y1="142.301" x2="140.078" y2="104.939" gradientUnits="userSpaceOnUse">
<stop stop-color="#FAFAFA"/>
<stop offset="0.828125" stop-color="#F5F2EC"/>
</linearGradient>
<linearGradient id="paint2_linear_4963_604" x1="128.566" y1="60.958" x2="147.427" y2="81.5867" gradientUnits="userSpaceOnUse">
<stop stop-color="#E0D6C0"/>
<stop offset="0.9942" stop-color="white" stop-opacity="0"/>
</linearGradient>
</defs>
</svg>
