<svg width="231" height="160" viewBox="0 0 231 160" fill="none" xmlns="http://www.w3.org/2000/svg">
<path d="M115.977 135C146.283 135 170.977 110.34 170.977 80.0512C170.875 49.6605 146.283 25 115.977 25C85.5684 25 60.9766 49.6605 60.9766 79.9488C60.9766 110.34 85.5684 135 115.977 135Z" fill="#EBEBEB"/>
<g filter="url(#filter0_d_4963_551)">
<path d="M174.383 86.6915C174.383 98.3987 164.915 107.866 153.106 107.866C152.902 107.866 151.172 107.866 138.447 107.866C129.59 107.866 115.44 107.866 92.8398 107.866H82.0489C67.8986 108.172 56.5986 96.8717 56.5986 83.2303C56.5986 69.4871 68.0004 58.0854 82.3543 58.798C94.6723 20.3172 151.07 25.7127 155.855 65.5169C166.442 66.8403 174.383 75.7988 174.383 86.6915Z" fill="url(#paint0_linear_4963_551)"/>
</g>
<path d="M153.107 107.866C164.814 107.866 174.383 98.3986 174.383 86.6915C174.383 74.9843 164.814 65.5168 153.107 65.5168C141.399 65.5168 131.83 74.9843 131.83 86.6915C131.83 98.3986 141.399 107.866 153.107 107.866Z" fill="url(#paint1_linear_4963_551)"/>
<path d="M118.392 108.07C139.262 108.07 156.262 91.1706 156.262 70.3014C156.262 49.4322 139.262 32.5332 118.392 32.5332C97.5232 32.5332 80.5225 49.4322 80.5225 70.3014C80.5225 91.1706 97.4214 108.07 118.392 108.07Z" fill="url(#paint2_linear_4963_551)"/>
<g filter="url(#filter1_d_4963_551)">
<path d="M102.209 84.8589C106.18 82.3139 110.863 80.8887 115.851 80.8887C129.492 80.8887 140.588 91.8832 140.588 105.525C140.588 119.166 129.492 130.16 115.851 130.16C102.209 130.16 91.1131 119.166 91.1131 105.525C90.9095 96.8714 95.3888 89.3382 102.209 84.8589Z" fill="url(#paint3_linear_4963_551)"/>
</g>
<path d="M108.942 104.016C109.494 103.465 109.494 102.584 108.942 102.033C108.39 101.482 107.727 101.592 106.843 101.592C109.384 95.2022 117.669 93.7699 121.977 98.9481C123.634 100.711 126.285 98.3972 124.739 96.6344C120.21 91.3461 112.145 90.6851 106.843 95.2022C104.855 96.8548 103.529 99.0582 102.866 101.592C101.099 101.592 100.767 101.592 100.325 102.033C99.773 102.584 99.773 103.465 100.325 104.016C105.407 108.974 104.081 108.974 108.942 104.016Z" fill="white"/>
<path d="M130.594 107.211L127.501 104.016C126.948 103.466 126.065 103.466 125.512 104.016L122.309 107.211C121.756 107.762 121.756 108.644 122.309 109.195C122.861 109.745 123.524 109.635 124.408 109.635C121.867 116.135 113.361 117.458 109.053 111.949C108.39 111.067 107.285 110.957 106.401 111.618C103.64 113.932 110.157 119 115.902 119C121.536 119 126.728 115.144 128.053 109.525C129.821 109.525 130.152 109.525 130.594 109.084C131.146 108.754 131.146 107.872 130.594 107.211Z" fill="white"/>
<path d="M172.041 60.6304C174.346 60.6304 176.215 58.7617 176.215 56.4566C176.215 54.1514 174.346 52.2827 172.041 52.2827C169.736 52.2827 167.867 54.1514 167.867 56.4566C167.867 58.7617 169.736 60.6304 172.041 60.6304Z" fill="#EDE5DA"/>
<path d="M178.149 44.3421C179.724 44.3421 181 43.0659 181 41.4917C181 39.9174 179.724 38.6412 178.149 38.6412C176.575 38.6412 175.299 39.9174 175.299 41.4917C175.299 43.0659 176.575 44.3421 178.149 44.3421Z" fill="#EDE5DA"/>
<path d="M62.7069 53.7081C64.2811 53.7081 65.5573 52.4319 65.5573 50.8576C65.5573 49.2834 64.2811 48.0072 62.7069 48.0072C61.1326 48.0072 59.8564 49.2834 59.8564 50.8576C59.8564 52.4319 61.1326 53.7081 62.7069 53.7081Z" fill="#EDE5DA"/>
<path d="M56.2937 116.417C59.2173 116.417 61.5873 114.047 61.5873 111.124C61.5873 108.2 59.2173 105.83 56.2937 105.83C53.3701 105.83 51 108.2 51 111.124C51 114.047 53.3701 116.417 56.2937 116.417Z" fill="#EDE5DA"/>
<defs>
<filter id="filter0_d_4963_551" x="37.7886" y="23.2204" width="155.404" height="112.867" filterUnits="userSpaceOnUse" color-interpolation-filters="sRGB">
<feFlood flood-opacity="0" result="BackgroundImageFix"/>
<feColorMatrix in="SourceAlpha" type="matrix" values="0 0 0 0 0 0 0 0 0 0 0 0 0 0 0 0 0 0 127 0" result="hardAlpha"/>
<feOffset dy="9.405"/>
<feGaussianBlur stdDeviation="9.405"/>
<feColorMatrix type="matrix" values="0 0 0 0 0.576471 0 0 0 0 0.501961 0 0 0 0 0.396078 0 0 0 0.22 0"/>
<feBlend mode="normal" in2="BackgroundImageFix" result="effect1_dropShadow_4963_551"/>
<feBlend mode="normal" in="SourceGraphic" in2="effect1_dropShadow_4963_551" result="shape"/>
</filter>
<filter id="filter1_d_4963_551" x="71.3064" y="70.9887" width="89.0824" height="88.8717" filterUnits="userSpaceOnUse" color-interpolation-filters="sRGB">
<feFlood flood-opacity="0" result="BackgroundImageFix"/>
<feColorMatrix in="SourceAlpha" type="matrix" values="0 0 0 0 0 0 0 0 0 0 0 0 0 0 0 0 0 0 127 0" result="hardAlpha"/>
<feOffset dy="9.9"/>
<feGaussianBlur stdDeviation="9.9"/>
<feColorMatrix type="matrix" values="0 0 0 0 0.482733 0 0 0 0 0.482733 0 0 0 0 0.482733 0 0 0 0.27 0"/>
<feBlend mode="normal" in2="BackgroundImageFix" result="effect1_dropShadow_4963_551"/>
<feBlend mode="normal" in="SourceGraphic" in2="effect1_dropShadow_4963_551" result="shape"/>
</filter>
<linearGradient id="paint0_linear_4963_551" x1="115.491" y1="63.7203" x2="115.452" y2="108.683" gradientUnits="userSpaceOnUse">
<stop stop-color="white"/>
<stop offset="0.9964" stop-color="#EFEBE3"/>
</linearGradient>
<linearGradient id="paint1_linear_4963_551" x1="129.566" y1="60.958" x2="148.427" y2="81.5867" gradientUnits="userSpaceOnUse">
<stop stop-color="#E0D6C0"/>
<stop offset="0.9942" stop-color="white" stop-opacity="0"/>
</linearGradient>
<linearGradient id="paint2_linear_4963_551" x1="76.9763" y1="52.9706" x2="106.704" y2="64.6038" gradientUnits="userSpaceOnUse">
<stop stop-color="#F0EBE1"/>
<stop offset="0.9942" stop-color="white" stop-opacity="0"/>
</linearGradient>
<linearGradient id="paint3_linear_4963_551" x1="138.626" y1="80.8888" x2="92.6153" y2="81.0496" gradientUnits="userSpaceOnUse">
<stop stop-color="#606060"/>
<stop offset="1" stop-color="#7B7B7B"/>
</linearGradient>
</defs>
</svg>
