<svg width="160" height="161" viewBox="0 0 160 161" fill="none" xmlns="http://www.w3.org/2000/svg">
<path d="M84.3001 140.121C112.3 140.121 135 117.421 135 89.3208C135 61.2208 112.2 38.5208 84.3001 38.5208C56.3001 38.5208 33.6001 61.2208 33.6001 89.3208C33.6001 117.421 56.3001 140.121 84.3001 140.121Z" fill="#242424"/>
<path d="M138.15 122.098C140.414 122.098 142.25 120.262 142.25 117.998C142.25 115.733 140.414 113.898 138.15 113.898C135.885 113.898 134.05 115.733 134.05 117.998C134.05 120.262 135.885 122.098 138.15 122.098Z" fill="#5C5C5C"/>
<path d="M144.15 106.098C145.696 106.098 146.95 104.844 146.95 103.298C146.95 101.751 145.696 100.498 144.15 100.498C142.604 100.498 141.35 101.751 141.35 103.298C141.35 104.844 142.604 106.098 144.15 106.098Z" fill="#5C5C5C"/>
<path d="M36.3 55.9209C37.8464 55.9209 39.1 54.6673 39.1 53.1209C39.1 51.5745 37.8464 50.3209 36.3 50.3209C34.7536 50.3209 33.5 51.5745 33.5 53.1209C33.5 54.6673 34.7536 55.9209 36.3 55.9209Z" fill="#5C5C5C"/>
<path d="M19.2 109.921C22.0719 109.921 24.4 107.593 24.4 104.721C24.4 101.849 22.0719 99.5208 19.2 99.5208C16.3281 99.5208 14 101.849 14 104.721C14 107.593 16.3281 109.921 19.2 109.921Z" fill="#5C5C5C"/>
<path opacity="0.5" d="M90.6613 107.739H79.3941C76.7834 107.739 74.585 110.147 74.585 113.007V119.178C74.585 125.5 79.2567 130.618 85.0277 130.618C90.7987 130.618 95.4705 125.5 95.4705 119.178V113.007C95.4705 109.997 93.272 107.739 90.6613 107.739Z" fill="#5C5C5C" fill-opacity="0.5"/>
<path fill-rule="evenodd" clip-rule="evenodd" d="M89.6614 47.5526C89.6614 48.1685 90.0875 48.6993 90.6811 48.8636C101.189 51.7705 108.898 61.395 108.898 72.8274V75.9867C108.898 90.4845 114.836 102.258 120.25 109.981C122.905 113.767 120.214 120.08 115.59 120.08H52.3978C47.765 120.08 45.0747 113.742 47.7449 109.956C53.192 102.233 59.1576 90.4691 59.1576 75.9867V72.8274C59.1576 61.395 66.867 51.7705 77.3745 48.8636C77.9681 48.6993 78.3942 48.1685 78.3942 47.5526C78.3942 44.3933 80.8675 41.9208 84.0278 41.9208C87.1881 41.9208 89.6614 44.3933 89.6614 47.5526Z" fill="url(#paint0_linear_3819_1017)"/>
<path d="M73.585 86.8384C70.1499 86.8384 67.2644 84.6406 66.1652 81.4812C65.8904 80.7944 66.3026 80.1076 66.9896 79.8329C67.6766 79.5582 68.3637 79.9702 68.6385 80.6571C69.3255 82.7175 71.3866 84.2285 73.585 84.2285C75.7835 84.2285 77.8446 82.8549 78.5316 80.6571C78.8064 79.9702 79.4934 79.5582 80.1804 79.8329C80.8675 80.1076 81.2797 80.7944 81.0049 81.4812C79.9056 84.7779 77.0201 86.8384 73.585 86.8384Z" fill="#C5C5C5"/>
<path d="M94.3331 86.8384C90.898 86.8384 88.0125 84.6406 86.9132 81.4812C86.6384 80.7944 87.0506 80.1076 87.7377 79.8329C88.4247 79.5582 89.1117 79.9702 89.3865 80.6571C90.0735 82.7175 92.1346 84.2285 94.3331 84.2285C96.5315 84.2285 98.5926 82.8549 99.2796 80.6571C99.5545 79.9702 100.241 79.5582 100.928 79.8329C101.616 80.1076 102.028 80.7944 101.753 81.4812C100.654 84.7779 97.7682 86.8384 94.3331 86.8384Z" fill="#C5C5C5"/>
<path d="M84.028 103.657C85.7734 103.657 87.1883 102.243 87.1883 100.498C87.1883 98.7528 85.7734 97.3383 84.028 97.3383C82.2826 97.3383 80.8677 98.7528 80.8677 100.498C80.8677 102.243 82.2826 103.657 84.028 103.657Z" fill="#C5C5C5"/>
<path d="M100.962 26.1497V21.5H118.932V26.1497L106.67 40.9441H119.143V45.5937H100.328V40.9441L112.59 26.1497H100.962Z" fill="#777777"/>
<path d="M115.761 61.0221V58.0632H127.388V61.0221L119.566 70.5328H127.6V73.4917H115.338V70.5328L123.16 61.0221H115.761Z" fill="#777777"/>
<defs>
<linearGradient id="paint0_linear_3819_1017" x1="83.9686" y1="40.1129" x2="83.9686" y2="120.923" gradientUnits="userSpaceOnUse">
<stop stop-color="#717171"/>
<stop offset="0.9964" stop-color="#484848"/>
</linearGradient>
</defs>
</svg>
