<svg width="230" height="164" viewBox="0 0 230 164" fill="none" xmlns="http://www.w3.org/2000/svg">
<path d="M119.025 144.25C149.4 144.25 174.025 119.673 174.025 89.2502C174.025 58.827 149.292 34.2502 119.025 34.2502C88.6506 34.2502 64.0254 58.827 64.0254 89.2502C64.0254 119.673 88.6506 144.25 119.025 144.25Z" fill="#EBEBEB"/>
<path d="M177.722 125.14C180.185 125.14 182.181 123.144 182.181 120.681C182.181 118.219 180.185 116.222 177.722 116.222C175.26 116.222 173.264 118.219 173.264 120.681C173.264 123.144 175.26 125.14 177.722 125.14Z" fill="#EDE5DA"/>
<path d="M184.248 107.74C185.929 107.74 187.293 106.376 187.293 104.695C187.293 103.013 185.929 101.65 184.248 101.65C182.566 101.65 181.203 103.013 181.203 104.695C181.203 106.376 182.566 107.74 184.248 107.74Z" fill="#EDE5DA"/>
<path d="M66.961 53.1728C68.6427 53.1728 70.006 51.8095 70.006 50.1278C70.006 48.4461 68.6427 47.0828 66.961 47.0828C65.2793 47.0828 63.916 48.4461 63.916 50.1278C63.916 51.8095 65.2793 53.1728 66.961 53.1728Z" fill="#EDE5DA"/>
<path d="M48.365 111.898C51.4881 111.898 54.0199 109.366 54.0199 106.243C54.0199 103.119 51.4881 100.588 48.365 100.588C45.2418 100.588 42.71 103.119 42.71 106.243C42.71 109.366 45.2418 111.898 48.365 111.898Z" fill="#EDE5DA"/>
<g filter="url(#filter0_d_4731_999)">
<path d="M126.079 109.525H113.826C110.987 109.525 108.596 112.144 108.596 115.254V121.965C108.596 128.84 113.677 134.406 119.953 134.406C126.229 134.406 131.309 128.84 131.309 121.965V115.254C131.309 111.98 128.918 109.525 126.079 109.525Z" fill="url(#paint0_linear_4731_999)"/>
</g>
<g filter="url(#filter1_d_4731_999)">
<path fill-rule="evenodd" clip-rule="evenodd" d="M111.629 45.4976C112.274 45.319 112.738 44.7418 112.738 44.072C112.738 40.6363 115.428 37.9474 118.864 37.9474C122.301 37.9474 124.991 40.6363 124.991 44.072C124.991 44.7419 125.454 45.3191 126.1 45.4978C137.527 48.6591 145.91 59.1257 145.91 71.5583V74.9941C145.91 91.3655 152.873 104.543 158.931 112.91C161.643 116.656 158.982 122.946 154.357 122.946H83.2907C78.6579 122.946 75.9979 116.631 78.7255 112.886C84.8213 104.517 91.8178 91.3497 91.8178 74.9941V71.5583C91.8178 59.1256 100.202 48.6588 111.629 45.4976Z" fill="url(#paint1_linear_4731_999)"/>
</g>
<path d="M107.508 86.7953C103.773 86.7953 100.635 84.4052 99.4393 80.9694C99.1405 80.2225 99.5887 79.4756 100.336 79.1768C101.083 78.8781 101.83 79.3262 102.129 80.0731C102.876 82.3138 105.118 83.957 107.508 83.957C109.899 83.957 112.141 82.4632 112.888 80.0731C113.187 79.3262 113.934 78.8781 114.681 79.1768C115.428 79.4756 115.876 80.2225 115.577 80.9694C114.382 84.5546 111.244 86.7953 107.508 86.7953Z" fill="#D9D2C7"/>
<path d="M130.072 86.7953C126.336 86.7953 123.198 84.4052 122.003 80.9694C121.704 80.2225 122.152 79.4756 122.899 79.1768C123.646 78.8781 124.394 79.3262 124.692 80.0731C125.44 82.3138 127.681 83.957 130.072 83.957C132.463 83.957 134.704 82.4632 135.451 80.0731C135.75 79.3262 136.497 78.8781 137.244 79.1768C137.992 79.4756 138.44 80.2225 138.141 80.9694C136.946 84.5546 133.808 86.7953 130.072 86.7953Z" fill="#D9D2C7"/>
<path d="M118.865 105.086C120.763 105.086 122.302 103.547 122.302 101.65C122.302 99.7524 120.763 98.2141 118.865 98.2141C116.967 98.2141 115.428 99.7524 115.428 101.65C115.428 103.547 116.967 105.086 118.865 105.086Z" fill="#D9D2C7"/>
<path d="M137.281 20.7965V15.74H156.823V20.7965L143.488 36.8854H157.053V41.9419H136.591V36.8854L149.926 20.7965H137.281Z" fill="url(#paint2_linear_4731_999)"/>
<path d="M153.374 58.7203V55.5026H166.02V58.7203L157.513 69.0632H166.249V72.281H152.915V69.0632L161.421 58.7203H153.374Z" fill="url(#paint3_linear_4731_999)"/>
<defs>
<filter id="filter0_d_4731_999" x="86.5962" y="94.5247" width="66.7129" height="68.881" filterUnits="userSpaceOnUse" color-interpolation-filters="sRGB">
<feFlood flood-opacity="0" result="BackgroundImageFix"/>
<feColorMatrix in="SourceAlpha" type="matrix" values="0 0 0 0 0 0 0 0 0 0 0 0 0 0 0 0 0 0 127 0" result="hardAlpha"/>
<feOffset dy="7"/>
<feGaussianBlur stdDeviation="11"/>
<feColorMatrix type="matrix" values="0 0 0 0 0.576471 0 0 0 0 0.501961 0 0 0 0 0.396078 0 0 0 0.37 0"/>
<feBlend mode="normal" in2="BackgroundImageFix" result="effect1_dropShadow_4731_999"/>
<feBlend mode="normal" in="SourceGraphic" in2="effect1_dropShadow_4731_999" result="shape"/>
</filter>
<filter id="filter1_d_4731_999" x="55.6265" y="22.9474" width="126.394" height="128.998" filterUnits="userSpaceOnUse" color-interpolation-filters="sRGB">
<feFlood flood-opacity="0" result="BackgroundImageFix"/>
<feColorMatrix in="SourceAlpha" type="matrix" values="0 0 0 0 0 0 0 0 0 0 0 0 0 0 0 0 0 0 127 0" result="hardAlpha"/>
<feOffset dy="7"/>
<feGaussianBlur stdDeviation="11"/>
<feColorMatrix type="matrix" values="0 0 0 0 0.576471 0 0 0 0 0.501961 0 0 0 0 0.396078 0 0 0 0.37 0"/>
<feBlend mode="normal" in2="BackgroundImageFix" result="effect1_dropShadow_4731_999"/>
<feBlend mode="normal" in="SourceGraphic" in2="effect1_dropShadow_4731_999" result="shape"/>
</filter>
<linearGradient id="paint0_linear_4731_999" x1="119.945" y1="108.949" x2="119.945" y2="134.674" gradientUnits="userSpaceOnUse">
<stop stop-color="#FDFEFF"/>
<stop offset="0.9964" stop-color="#F5F2EC"/>
</linearGradient>
<linearGradient id="paint1_linear_4731_999" x1="118.797" y1="35.9813" x2="118.797" y2="123.862" gradientUnits="userSpaceOnUse">
<stop stop-color="#FDFEFF"/>
<stop offset="0.9964" stop-color="#F5F2EC"/>
</linearGradient>
<linearGradient id="paint2_linear_4731_999" x1="146.823" y1="16.6502" x2="146.823" y2="31.3571" gradientUnits="userSpaceOnUse">
<stop stop-color="#D5D1CA"/>
<stop offset="1" stop-color="#BCB9B3"/>
</linearGradient>
<linearGradient id="paint3_linear_4731_999" x1="159.583" y1="56.0854" x2="159.583" y2="65.503" gradientUnits="userSpaceOnUse">
<stop stop-color="#D5D1CA"/>
<stop offset="1" stop-color="#BCB9B3"/>
</linearGradient>
</defs>
</svg>
