<svg width="230" height="160" viewBox="0 0 230 160" fill="none" xmlns="http://www.w3.org/2000/svg">
<path d="M119.025 144.25C149.4 144.25 174.025 119.673 174.025 89.2501C174.025 58.8269 149.292 34.2501 119.025 34.2501C88.6506 34.2501 64.0254 58.8269 64.0254 89.2501C64.0254 119.673 88.6506 144.25 119.025 144.25Z" fill="#242424"/>
<path d="M177.722 125.14C180.185 125.14 182.181 123.144 182.181 120.681C182.181 118.219 180.185 116.222 177.722 116.222C175.26 116.222 173.264 118.219 173.264 120.681C173.264 123.144 175.26 125.14 177.722 125.14Z" fill="#5C5C5C"/>
<path d="M184.248 107.74C185.929 107.74 187.293 106.376 187.293 104.695C187.293 103.013 185.929 101.65 184.248 101.65C182.566 101.65 181.203 103.013 181.203 104.695C181.203 106.376 182.566 107.74 184.248 107.74Z" fill="#5C5C5C"/>
<path d="M66.961 53.1726C68.6427 53.1726 70.006 51.8093 70.006 50.1276C70.006 48.4459 68.6427 47.0826 66.961 47.0826C65.2793 47.0826 63.916 48.4459 63.916 50.1276C63.916 51.8093 65.2793 53.1726 66.961 53.1726Z" fill="#5C5C5C"/>
<path d="M48.365 111.898C51.4881 111.898 54.0199 109.366 54.0199 106.243C54.0199 103.119 51.4881 100.588 48.365 100.588C45.2418 100.588 42.71 103.119 42.71 106.243C42.71 109.366 45.2418 111.898 48.365 111.898Z" fill="#5C5C5C"/>
<path opacity="0.5" d="M126.079 109.525H113.826C110.987 109.525 108.596 112.144 108.596 115.254V121.965C108.596 128.84 113.677 134.406 119.953 134.406C126.229 134.406 131.309 128.84 131.309 121.965V115.254C131.309 111.98 128.918 109.525 126.079 109.525Z" fill="#5C5C5C" fill-opacity="0.5"/>
<path fill-rule="evenodd" clip-rule="evenodd" d="M111.629 45.4977C112.274 45.3191 112.738 44.7419 112.738 44.0721C112.738 40.6363 115.428 37.9474 118.864 37.9474C122.301 37.9474 124.991 40.6363 124.991 44.0721C124.991 44.7419 125.454 45.3192 126.1 45.4978C137.527 48.6592 145.911 59.1258 145.911 71.5584V74.9941C145.911 91.3655 152.873 104.543 158.931 112.91C161.643 116.656 158.982 122.946 154.357 122.946H83.2907C78.6579 122.946 75.9979 116.631 78.7255 112.886C84.8213 104.517 91.8178 91.3498 91.8178 74.9941V71.5584C91.8178 59.1256 100.202 48.6589 111.629 45.4977Z" fill="url(#paint0_linear_4731_1022)"/>
<path d="M107.508 86.7954C103.773 86.7954 100.635 84.4053 99.4393 80.9695C99.1405 80.2226 99.5887 79.4757 100.336 79.1769C101.083 78.8781 101.83 79.3263 102.129 80.0732C102.876 82.3139 105.118 83.9571 107.508 83.9571C109.899 83.9571 112.141 82.4633 112.888 80.0732C113.187 79.3263 113.934 78.8781 114.681 79.1769C115.428 79.4757 115.876 80.2226 115.577 80.9695C114.382 84.5546 111.244 86.7954 107.508 86.7954Z" fill="#C5C5C5"/>
<path d="M130.072 86.7954C126.336 86.7954 123.198 84.4053 122.003 80.9695C121.704 80.2226 122.152 79.4757 122.899 79.177C123.646 78.8782 124.394 79.3263 124.692 80.0732C125.44 82.314 127.681 83.9572 130.072 83.9572C132.463 83.9572 134.704 82.4633 135.451 80.0732C135.75 79.3263 136.497 78.8782 137.244 79.177C137.992 79.4757 138.44 80.2226 138.141 80.9695C136.946 84.5547 133.808 86.7954 130.072 86.7954Z" fill="#C5C5C5"/>
<path d="M118.865 105.086C120.763 105.086 122.302 103.547 122.302 101.65C122.302 99.7523 120.763 98.2141 118.865 98.2141C116.967 98.2141 115.428 99.7523 115.428 101.65C115.428 103.547 116.967 105.086 118.865 105.086Z" fill="#C5C5C5"/>
<path d="M137.281 20.7965V15.74H156.823V20.7965L143.488 36.8854H157.053V41.9419H136.591V36.8854L149.926 20.7965H137.281Z" fill="#777777"/>
<path d="M153.374 58.7203V55.5026H166.02V58.7203L157.513 69.0632H166.249V72.281H152.915V69.0632L161.421 58.7203H153.374Z" fill="#777777"/>
<defs>
<linearGradient id="paint0_linear_4731_1022" x1="118.797" y1="35.9814" x2="118.797" y2="123.862" gradientUnits="userSpaceOnUse">
<stop stop-color="#717171"/>
<stop offset="0.9964" stop-color="#484848"/>
</linearGradient>
</defs>
</svg>
