<svg width="160" height="161" viewBox="0 0 160 161" fill="none" xmlns="http://www.w3.org/2000/svg">
<path d="M83.8255 139.81C111.825 139.81 134.525 117.11 134.525 89.0105C134.525 60.9105 111.725 38.2104 83.8255 38.2104C55.8255 38.2104 33.1255 60.9105 33.1255 89.0105C33.1255 117.11 55.8255 139.81 83.8255 139.81Z" fill="#F0F0F0"/>
<path d="M137.675 121.787C139.94 121.787 141.775 119.952 141.775 117.687C141.775 115.423 139.94 113.587 137.675 113.587C135.411 113.587 133.575 115.423 133.575 117.687C133.575 119.952 135.411 121.787 137.675 121.787Z" fill="#EDE5DA"/>
<path d="M143.675 105.787C145.222 105.787 146.475 104.534 146.475 102.987C146.475 101.441 145.222 100.187 143.675 100.187C142.129 100.187 140.875 101.441 140.875 102.987C140.875 104.534 142.129 105.787 143.675 105.787Z" fill="#EDE5DA"/>
<path d="M35.8254 55.6105C37.3718 55.6105 38.6254 54.3569 38.6254 52.8105C38.6254 51.2641 37.3718 50.0105 35.8254 50.0105C34.279 50.0105 33.0254 51.2641 33.0254 52.8105C33.0254 54.3569 34.279 55.6105 35.8254 55.6105Z" fill="#EDE5DA"/>
<path d="M18.7254 109.61C21.5973 109.61 23.9254 107.282 23.9254 104.41C23.9254 101.539 21.5973 99.2104 18.7254 99.2104C15.8535 99.2104 13.5254 101.539 13.5254 104.41C13.5254 107.282 15.8535 109.61 18.7254 109.61Z" fill="#EDE5DA"/>
<g filter="url(#filter0_d_3819_982)">
<path d="M90.1867 107.429H78.9195C76.3088 107.429 74.1104 109.837 74.1104 112.697V118.868C74.1104 125.19 78.7821 130.308 84.5531 130.308C90.3241 130.308 94.9958 125.19 94.9958 118.868V112.697C94.9958 109.686 92.7974 107.429 90.1867 107.429Z" fill="url(#paint0_linear_3819_982)"/>
</g>
<g filter="url(#filter1_d_3819_982)">
<path fill-rule="evenodd" clip-rule="evenodd" d="M89.1868 47.2422C89.1868 47.8581 89.6129 48.3889 90.2065 48.5532C100.714 51.4601 108.423 61.0846 108.423 72.517V75.6763C108.423 90.174 114.361 101.948 119.776 109.67C122.431 113.457 119.739 119.77 115.115 119.77H51.9231C47.2904 119.77 44.6001 113.432 47.2703 109.646C52.7174 101.923 58.683 90.1587 58.683 75.6763V72.517C58.683 61.0846 66.3924 51.4601 76.8999 48.5532C77.4935 48.3889 77.9196 47.8581 77.9196 47.2422C77.9196 44.0829 80.3929 41.6104 83.5532 41.6104C86.7135 41.6104 89.1868 44.0829 89.1868 47.2422Z" fill="url(#paint1_linear_3819_982)"/>
</g>
<path d="M73.1104 86.5279C69.6753 86.5279 66.7898 84.3301 65.6906 81.1708C65.4158 80.484 65.828 79.7971 66.515 79.5224C67.202 79.2477 67.889 79.6598 68.1639 80.3466C68.8509 82.407 70.9119 83.918 73.1104 83.918C75.3089 83.918 77.37 82.5444 78.057 80.3466C78.3318 79.6598 79.0188 79.2477 79.7058 79.5224C80.3929 79.7971 80.8051 80.484 80.5303 81.1708C79.431 84.4675 76.5455 86.5279 73.1104 86.5279Z" fill="#D9D2C7"/>
<path d="M93.8585 86.5279C90.4233 86.5279 87.5379 84.3301 86.4386 81.1708C86.1638 80.484 86.576 79.7971 87.263 79.5224C87.9501 79.2477 88.6371 79.6598 88.9119 80.3466C89.5989 82.407 91.66 83.918 93.8585 83.918C96.0569 83.918 98.118 82.5444 98.805 80.3466C99.0798 79.6598 99.7669 79.2477 100.454 79.5224C101.141 79.7971 101.553 80.484 101.278 81.1708C100.179 84.4675 97.2936 86.5279 93.8585 86.5279Z" fill="#D9D2C7"/>
<path d="M83.5534 103.347C85.2988 103.347 86.7137 101.932 86.7137 100.187C86.7137 98.4424 85.2988 97.0279 83.5534 97.0279C81.808 97.0279 80.3931 98.4424 80.3931 100.187C80.3931 101.932 81.808 103.347 83.5534 103.347Z" fill="#D9D2C7"/>
<path d="M100.487 25.8392V21.1896H118.457V25.8392L106.195 40.6337H118.669V45.2833H99.853V40.6337L112.115 25.8392H100.487Z" fill="url(#paint2_linear_3819_982)"/>
<path d="M115.286 60.7118V57.7529H126.914V60.7118L119.092 70.2224H127.125V73.1813H114.863V70.2224L122.686 60.7118H115.286Z" fill="url(#paint3_linear_3819_982)"/>
<defs>
<filter id="filter0_d_3819_982" x="52.1104" y="92.4285" width="64.8857" height="66.8791" filterUnits="userSpaceOnUse" color-interpolation-filters="sRGB">
<feFlood flood-opacity="0" result="BackgroundImageFix"/>
<feColorMatrix in="SourceAlpha" type="matrix" values="0 0 0 0 0 0 0 0 0 0 0 0 0 0 0 0 0 0 127 0" result="hardAlpha"/>
<feOffset dy="7"/>
<feGaussianBlur stdDeviation="11"/>
<feColorMatrix type="matrix" values="0 0 0 0 0.576471 0 0 0 0 0.501961 0 0 0 0 0.396078 0 0 0 0.37 0"/>
<feBlend mode="normal" in2="BackgroundImageFix" result="effect1_dropShadow_3819_982"/>
<feBlend mode="normal" in="SourceGraphic" in2="effect1_dropShadow_3819_982" result="shape"/>
</filter>
<filter id="filter1_d_3819_982" x="24.2124" y="26.6104" width="118.612" height="122.159" filterUnits="userSpaceOnUse" color-interpolation-filters="sRGB">
<feFlood flood-opacity="0" result="BackgroundImageFix"/>
<feColorMatrix in="SourceAlpha" type="matrix" values="0 0 0 0 0 0 0 0 0 0 0 0 0 0 0 0 0 0 127 0" result="hardAlpha"/>
<feOffset dy="7"/>
<feGaussianBlur stdDeviation="11"/>
<feColorMatrix type="matrix" values="0 0 0 0 0.576471 0 0 0 0 0.501961 0 0 0 0 0.396078 0 0 0 0.37 0"/>
<feBlend mode="normal" in2="BackgroundImageFix" result="effect1_dropShadow_3819_982"/>
<feBlend mode="normal" in="SourceGraphic" in2="effect1_dropShadow_3819_982" result="shape"/>
</filter>
<linearGradient id="paint0_linear_3819_982" x1="84.5463" y1="106.899" x2="84.5463" y2="130.554" gradientUnits="userSpaceOnUse">
<stop stop-color="#FDFEFF"/>
<stop offset="0.9964" stop-color="#F5F2EC"/>
</linearGradient>
<linearGradient id="paint1_linear_3819_982" x1="83.494" y1="39.8025" x2="83.494" y2="120.612" gradientUnits="userSpaceOnUse">
<stop stop-color="#FDFEFF"/>
<stop offset="0.9964" stop-color="#F5F2EC"/>
</linearGradient>
<linearGradient id="paint2_linear_3819_982" x1="109.262" y1="22.0266" x2="109.262" y2="35.5501" gradientUnits="userSpaceOnUse">
<stop stop-color="#D5D1CA"/>
<stop offset="1" stop-color="#BCB9B3"/>
</linearGradient>
<linearGradient id="paint3_linear_3819_982" x1="120.995" y1="58.2888" x2="120.995" y2="66.9487" gradientUnits="userSpaceOnUse">
<stop stop-color="#D5D1CA"/>
<stop offset="1" stop-color="#BCB9B3"/>
</linearGradient>
</defs>
</svg>
