<svg width="20" height="20" viewBox="0 0 20 20" fill="none" xmlns="http://www.w3.org/2000/svg">
<path d="M3.39818 7.66662C3.14046 8.3958 3 9.18096 3 10C3 10.1682 3.00592 10.3349 3.01756 10.5H11.5C12.0523 10.5 12.5 10.0523 12.5 9.5V6.5C12.5 5.94772 12.0523 5.5 11.5 5.5H4.63775C4.10365 6.13573 3.6805 6.86787 3.39818 7.66662ZM2.01539 10.5C2.00518 10.3346 2 10.1679 2 10C2 9.06587 2.16031 8.1681 2.45534 7.33338C2.68662 6.67903 3.00064 6.0637 3.38483 5.5C4.06164 4.50695 4.95624 3.67409 6 3.07027C6.82497 2.59303 7.74311 2.25886 8.72055 2.10175C9.13714 2.03479 9.5645 2 10 2C13.484 2 16.4467 4.22687 17.5446 7.33338C17.8397 8.1681 18 9.06587 18 10C18 10.9341 17.8397 11.8319 17.5446 12.6666C17.4812 12.8461 17.4116 13.0226 17.3359 13.196C17.3353 13.1974 17.3347 13.1988 17.3341 13.2002C16.1467 15.9179 13.492 17.8495 10.3698 17.9916C10.2472 17.9972 10.124 18 10 18C9.9097 18 9.81973 17.9985 9.73012 17.9955C6.36361 17.884 3.52487 15.6926 2.45534 12.6666C2.38159 12.4579 2.31625 12.2453 2.25973 12.0292C2.13081 11.5361 2.04778 11.0248 2.01539 10.5ZM9.49999 16.9824C9.66508 16.9941 9.83181 17 10 17C12.5903 17 14.8529 15.593 16.0636 13.5H10.5C9.94771 13.5 9.49999 13.9477 9.49999 14.5V16.9824Z" fill="#212121"/>
</svg>
