<svg width="24" height="24" viewBox="0 0 24 24" fill="none" xmlns="http://www.w3.org/2000/svg">
<path d="M12 2C6.47715 2 2 6.47715 2 12C2 12.6849 2.06886 13.3538 2.20004 14C2.46052 15.2827 2.96681 16.4768 3.66722 17.5302C5.105 19.6926 7.36406 21.2647 10 21.7999C10.4847 21.8983 10.9821 21.9617 11.4894 21.9872C11.6585 21.9957 11.8288 22 12 22C12.0863 22 12.1724 21.9989 12.2581 21.9967C12.6604 21.9865 13.0567 21.9526 13.4458 21.8962C17.7687 21.2702 21.1963 17.8789 21.8769 13.5739C21.958 13.0611 22.0001 12.5354 22.0001 12C22.0001 11.4632 21.9577 10.9361 21.8762 10.422C21.6512 9.00365 21.128 7.68385 20.3727 6.52995C20.3595 6.50985 20.3463 6.4898 20.333 6.46981C19.96 5.90885 19.5318 5.38761 19.056 4.91391C17.3875 3.25262 15.1348 2.17583 12.6323 2.01967C12.4232 2.00662 12.2123 2 12 2ZM19.05 16.75C17.5227 19.0124 14.9351 20.5 12 20.5C11.9164 20.5 11.8331 20.4988 11.7501 20.4964V17.75C11.7501 17.1977 12.1978 16.75 12.7501 16.75H19.05ZM3.53263 12.75C3.51103 12.5029 3.5 12.2527 3.5 12C3.5 10.0185 4.178 8.19542 5.31467 6.75H14.7501C15.3024 6.75 15.7501 7.19772 15.7501 7.75V11.75C15.7501 12.3023 15.3024 12.75 14.7501 12.75H3.53263Z" fill="#212121"/>
</svg>
