<svg width="20" height="20" viewBox="0 0 20 20" fill="none" xmlns="http://www.w3.org/2000/svg">
<path d="M10 3C13.0471 3 15.6406 4.94717 16.6018 7.66662C16.8595 8.3958 17 9.18096 17 10C17 10.819 16.8595 11.6042 16.6018 12.3334C16.5213 12.5612 16.4293 12.7837 16.3265 13H10.5C9.67157 13 9 13.6716 9 14.5V16.9291C6.39525 16.5565 4.25228 14.7498 3.39818 12.3334C3.24735 11.9066 3.13668 11.4607 3.07082 11H11.5C12.3284 11 13 10.3284 13 9.5V6.5C13 5.67157 12.3284 5 11.5 5H5.10091C6.36366 3.76267 8.09302 3 10 3ZM15.7455 14C14.4803 15.8138 12.3783 17 10 17V14.5C10 14.2239 10.2239 14 10.5 14H15.7455ZM3.39818 7.66662C3.60915 7.06974 3.89876 6.51005 4.25454 6H11.5C11.7761 6 12 6.22386 12 6.5V9.5C12 9.77614 11.7761 10 11.5 10H3C3 9.18096 3.14046 8.3958 3.39818 7.66662ZM2 10C2 10.1343 2.00332 10.2679 2.00987 10.4007C2.0034 10.4328 2 10.466 2 10.5C2 10.557 2.00953 10.6117 2.02709 10.6628C2.08427 11.3594 2.23078 12.0313 2.45534 12.6666C3.55334 15.7731 6.51597 18 10 18C13.484 18 16.4467 15.7731 17.5447 12.6666C17.8397 11.8319 18 10.9341 18 10C18 9.06587 17.8397 8.1681 17.5447 7.33338C16.4467 4.22687 13.484 2 10 2C6.51597 2 3.55334 4.22687 2.45534 7.33338C2.16031 8.1681 2 9.06587 2 10Z" fill="#212121"/>
</svg>
