<svg width="230" height="160" viewBox="0 0 230 160" fill="none" xmlns="http://www.w3.org/2000/svg">
<path d="M120.326 144.96C156.45 144.96 185.746 115.884 185.746 79.98C185.746 44.0758 156.45 15 120.326 15C84.2013 15 54.9053 44.0758 54.9053 79.98C54.9053 115.884 84.2013 144.96 120.326 144.96Z" fill="#242424"/>
<path d="M184.075 48.9217C186.569 48.9217 188.591 46.9001 188.591 44.4062C188.591 41.9123 186.569 39.8906 184.075 39.8906C181.581 39.8906 179.56 41.9123 179.56 44.4062C179.56 46.9001 181.581 48.9217 184.075 48.9217Z" fill="#5C5C5C"/>
<path d="M179.559 34.2736C181.263 34.2736 182.643 32.8929 182.643 31.1898C182.643 29.4866 181.263 28.106 179.559 28.106C177.856 28.106 176.476 29.4866 176.476 31.1898C176.476 32.8929 177.856 34.2736 179.559 34.2736Z" fill="#5C5C5C"/>
<path d="M54.6658 44.4064C56.369 44.4064 57.7496 43.0257 57.7496 41.3226C57.7496 39.6194 56.369 38.2388 54.6658 38.2388C52.9627 38.2388 51.582 39.6194 51.582 41.3226C51.582 43.0257 52.9627 44.4064 54.6658 44.4064Z" fill="#5C5C5C"/>
<path d="M47.727 112.25C50.89 112.25 53.4541 109.685 53.4541 106.522C53.4541 103.359 50.89 100.795 47.727 100.795C44.5641 100.795 42 103.359 42 106.522C42 109.685 44.5641 112.25 47.727 112.25Z" fill="#5C5C5C"/>
<path d="M180.598 63.8926V123.521C180.598 123.767 180.598 123.89 180.598 124.135C180.475 127.578 178.877 130.529 176.418 132.619C174.328 134.463 171.5 135.692 168.426 135.692H72.161C70.0709 135.692 68.1038 135.2 66.3826 134.217C65.6449 133.848 64.9072 133.356 64.2925 132.742C62.9401 131.635 61.7107 130.037 61.096 128.316C60.6042 127.086 60.2354 125.734 60.2354 124.381V63.8926C60.2354 63.8926 65.2761 59.5895 72.5298 53.6882C80.0294 47.418 89.8649 39.3037 98.4711 32.1729C103.389 27.9928 102.897 28.4845 110.52 22.0914C116.298 17.1736 124.781 17.1736 130.56 22.0914C132.035 23.3209 133.633 24.7962 135.108 26.0256C138.305 28.6075 141.747 31.5581 145.436 34.6318C153.181 41.0249 161.664 48.1557 168.303 53.6882C175.065 59.2207 179.983 63.4008 180.598 63.8926Z" fill="url(#paint0_linear_6030_1220)"/>
<path opacity="0.2" d="M168.304 53.565V74.9573L147.28 87.6206L141.01 91.4319L127.732 99.4233L121.462 103.235L118.757 104.833L116.175 103.235L110.274 99.4233L97.6107 91.4319L91.7094 87.6206L72.2842 75.4491V53.6879C79.7838 47.4177 89.6193 39.3034 98.2254 32.1726L145.313 34.5086C153.182 41.0246 161.665 48.0325 168.304 53.565Z" fill="#0C0C0C"/>
<path d="M164.123 36.5987V74.2197L144.944 85.6536L139.289 89.096L127.117 96.2268L121.462 99.6693L119.003 101.022L116.667 99.6693L111.257 96.2268L99.7005 89.096L94.2909 85.6536L76.5869 74.5886V36.5987C76.5869 32.6645 79.7835 29.4679 83.8406 29.4679H156.87C160.804 29.345 164.123 32.6645 164.123 36.5987Z" fill="url(#paint1_linear_6030_1220)"/>
<path opacity="0.5" d="M60.7275 63.6467L118.511 67.458L179.738 63.6467L177.402 74.5888C177.402 74.5888 119.864 104.587 120.233 104.587C120.601 104.587 60.8505 69.0563 60.8505 69.0563L60.7275 63.6467Z" fill="url(#paint2_linear_6030_1220)"/>
<path d="M180.598 63.8926V124.135C180.475 127.578 178.877 130.529 176.418 132.619C174.328 134.463 171.5 135.692 168.426 135.692H72.161C70.0709 135.692 68.1038 135.2 66.3826 134.217C65.6449 133.848 64.9072 133.356 64.2925 132.742C62.9401 131.635 61.7107 130.037 61.096 128.316C60.6042 127.086 60.2354 125.734 60.2354 124.381V124.258V63.8926L114.085 97.5794L118.757 100.53L120.355 99.5465L121.83 98.6859L180.598 63.8926Z" fill="#738DFF"/>
<path d="M176.541 132.619C174.451 134.463 171.623 135.692 168.549 135.692H72.161C70.0709 135.692 68.1038 135.2 66.3826 134.217C65.6449 133.848 64.9072 133.356 64.2925 132.742C62.9401 131.635 61.7107 130.037 61.096 128.316C60.6042 127.086 60.2354 125.734 60.2354 124.381V124.258V63.8926L66.5055 67.7039L120.355 99.5465L121.83 100.407L121.953 100.53L170.271 129.053L176.541 132.619Z" fill="url(#paint3_linear_6030_1220)"/>
<path opacity="0.4" d="M121.83 98.5631V102.743L66.3823 134.217C65.6446 133.848 64.907 133.356 64.2923 132.742C62.9399 131.635 61.7104 130.037 61.0957 128.316L115.068 96.3501L119.74 99.3008L120.355 99.5467L121.83 98.5631Z" fill="url(#paint4_linear_6030_1220)"/>
<path d="M60.2354 63.8926L120.355 99.5465" stroke="#777777" stroke-width="0.854999" stroke-miterlimit="10"/>
<path d="M180.597 63.8926V124.135C180.474 127.578 178.876 130.529 176.417 132.619C174.327 134.463 171.499 135.692 168.426 135.692H72.1604C70.0704 135.692 68.1033 135.2 66.382 134.217C65.6444 133.848 64.9067 133.356 64.292 132.742L70.4392 129.053L118.756 100.53L120.355 99.5465L121.83 98.6859L174.204 67.5809L180.597 63.8926Z" fill="url(#paint5_linear_6030_1220)"/>
<path d="M180.597 63.8926L121.83 98.5629L120.355 99.5465L118.756 100.53L64.292 132.619" stroke="#777777" stroke-width="0.854999" stroke-miterlimit="10"/>
<path d="M166.09 106.062H134.125C133.387 106.062 132.772 105.448 132.772 104.71C132.772 103.972 133.387 103.358 134.125 103.358H166.09C166.828 103.358 167.443 103.972 167.443 104.71C167.566 105.448 166.951 106.062 166.09 106.062Z" fill="#707070"/>
<path d="M166.09 115.283H134.125C133.387 115.283 132.772 114.669 132.772 113.931C132.772 113.193 133.387 112.579 134.125 112.579H166.09C166.828 112.579 167.443 113.193 167.443 113.931C167.566 114.669 166.951 115.283 166.09 115.283Z" fill="#707070"/>
<path d="M92.2589 47.927C92.5583 47.0057 93.8617 47.0057 94.161 47.9271L95.7268 52.7459C95.8606 53.1579 96.2446 53.4369 96.6778 53.4369H101.745C102.713 53.4369 103.116 54.6765 102.332 55.2459L98.2333 58.2241C97.8828 58.4787 97.7361 58.9301 97.87 59.3421L99.4357 64.161C99.7351 65.0823 98.6806 65.8484 97.8969 65.279L93.7977 62.3008C93.4473 62.0462 92.9727 62.0462 92.6222 62.3008L88.523 65.279C87.7393 65.8484 86.6848 65.0823 86.9842 64.161L88.5499 59.3421C88.6838 58.9301 88.5371 58.4787 88.1866 58.2241L84.0875 55.2459C83.3038 54.6765 83.7066 53.4369 84.6753 53.4369H89.7421C90.1753 53.4369 90.5593 53.1579 90.6932 52.7459L92.2589 47.927Z" fill="#656565"/>
<path d="M119.121 47.927C119.421 47.0057 120.724 47.0057 121.023 47.9271L122.589 52.7459C122.723 53.1579 123.107 53.4369 123.54 53.4369H128.607C129.576 53.4369 129.978 54.6765 129.195 55.2459L125.096 58.2241C124.745 58.4787 124.598 58.9301 124.732 59.3421L126.298 64.161C126.597 65.0823 125.543 65.8484 124.759 65.279L120.66 62.3008C120.31 62.0462 119.835 62.0462 119.484 62.3008L115.385 65.279C114.602 65.8484 113.547 65.0823 113.846 64.161L115.412 59.3421C115.546 58.9301 115.399 58.4787 115.049 58.2241L110.95 55.2459C110.166 54.6765 110.569 53.4369 111.538 53.4369H116.604C117.038 53.4369 117.422 53.1579 117.555 52.7459L119.121 47.927Z" fill="#656565"/>
<path d="M145.983 47.927C146.282 47.0057 147.585 47.0057 147.885 47.9271L149.45 52.7459C149.584 53.1579 149.968 53.4369 150.401 53.4369H155.468C156.437 53.4369 156.84 54.6765 156.056 55.2459L151.957 58.2241C151.606 58.4787 151.46 58.9301 151.594 59.3421L153.159 64.161C153.459 65.0823 152.404 65.8484 151.621 65.279L147.521 62.3008C147.171 62.0462 146.696 62.0462 146.346 62.3008L142.247 65.279C141.463 65.8484 140.408 65.0823 140.708 64.161L142.274 59.3421C142.407 58.9301 142.261 58.4787 141.91 58.2241L137.811 55.2459C137.027 54.6765 137.43 53.4369 138.399 53.4369H143.466C143.899 53.4369 144.283 53.1579 144.417 52.7459L145.983 47.927Z" fill="#656565"/>
<defs>
<linearGradient id="paint0_linear_6030_1220" x1="120.417" y1="18.4031" x2="120.417" y2="135.692" gradientUnits="userSpaceOnUse">
<stop stop-color="#434343"/>
<stop offset="1" stop-color="#333333"/>
</linearGradient>
<linearGradient id="paint1_linear_6030_1220" x1="120.355" y1="29.4646" x2="120.355" y2="101.022" gradientUnits="userSpaceOnUse">
<stop stop-color="#FAFAFA"/>
<stop offset="0.828125" stop-color="#F5F2EC"/>
</linearGradient>
<linearGradient id="paint2_linear_6030_1220" x1="120.18" y1="117.567" x2="120.18" y2="66.4056" gradientUnits="userSpaceOnUse">
<stop stop-color="#3B3B3B"/>
<stop offset="1" stop-color="#3A3A3A" stop-opacity="0"/>
</linearGradient>
<linearGradient id="paint3_linear_6030_1220" x1="118.35" y1="62.2318" x2="118.35" y2="136.466" gradientUnits="userSpaceOnUse">
<stop stop-color="#5C5C5C"/>
<stop offset="0.9964" stop-color="#4D4D4D"/>
</linearGradient>
<linearGradient id="paint4_linear_6030_1220" x1="94.9311" y1="118.751" x2="90.2168" y2="111.851" gradientUnits="userSpaceOnUse">
<stop stop-color="#2A2E37"/>
<stop offset="1" stop-color="#2A2E37" stop-opacity="0"/>
</linearGradient>
<linearGradient id="paint5_linear_6030_1220" x1="122.407" y1="62.2318" x2="122.407" y2="136.466" gradientUnits="userSpaceOnUse">
<stop stop-color="#5C5C5C"/>
<stop offset="0.9964" stop-color="#4D4D4D"/>
</linearGradient>
</defs>
</svg>
