<svg width="20" height="20" viewBox="0 0 20 20" fill="none" xmlns="http://www.w3.org/2000/svg">
<path d="M7.51331 4.02216C7.03219 4.67079 7.15878 5.45871 7.52011 6.20566C7.69488 6.56697 7.90919 6.88294 8.0821 7.11036C8.15772 7.20982 8.22433 7.29091 8.27459 7.34988C8.76261 7.00619 9.35773 6.80436 9.99999 6.80436C10.0845 6.80436 10.1681 6.80786 10.2508 6.8147C10.9085 6.03968 11.8469 5.96785 12.5385 5.92925L12.6948 5.92081C13.0318 5.90293 13.3066 5.88835 13.5522 5.83178C13.814 5.77147 13.9801 5.67562 14.0974 5.51743C14.278 5.27397 14.326 5.07215 14.3151 4.90584C14.3038 4.7329 14.2247 4.54023 14.0494 4.33365C13.689 3.90903 12.9954 3.51586 12.1234 3.26453C11.262 3.01623 10.2929 2.92611 9.43797 3.04929C8.57682 3.17336 7.89952 3.50148 7.51331 4.02216ZM7.55395 8.06703L7.52221 8.03063C7.45914 7.95763 7.37209 7.85285 7.27255 7.72193C7.07463 7.46161 6.8217 7.09057 6.61089 6.65477C6.20105 5.80753 5.88307 4.56094 6.70837 3.4483C7.32124 2.62204 8.30763 2.21107 9.31991 2.06523C10.3383 1.9185 11.4525 2.02765 12.429 2.3091C13.395 2.58753 14.2943 3.05462 14.8268 3.68207C15.0979 4.00153 15.2902 4.38285 15.3184 4.81453C15.3471 5.25282 15.2028 5.68623 14.9023 6.09129C14.5905 6.51163 14.1671 6.70504 13.7546 6.80007C13.4142 6.8785 13.039 6.89777 12.7119 6.91457C12.6626 6.9171 12.6144 6.91957 12.5676 6.92219C12.0831 6.94923 11.6972 6.99403 11.3923 7.14631C11.9803 7.45495 12.4533 7.95301 12.7303 8.55941C12.748 8.55579 12.768 8.55182 12.7901 8.54759C12.8849 8.52948 13.0192 8.50648 13.1823 8.48573C13.5067 8.44448 13.9545 8.41096 14.4373 8.44629C15.376 8.51498 16.6145 8.86291 17.1655 10.134C17.5746 11.0778 17.4373 12.1376 17.0575 13.0871C16.6753 14.0425 16.0237 14.9528 15.2917 15.6578C14.5676 16.3551 13.7134 16.9004 12.9038 17.0478C12.4916 17.1229 12.0652 17.0988 11.6772 16.9074C11.2833 16.7131 10.9802 16.3714 10.7796 15.9086C10.5715 15.4284 10.6157 14.965 10.7396 14.5603C10.8419 14.2263 11.0128 13.8917 11.1618 13.6001C11.1843 13.5561 11.2062 13.5131 11.2274 13.4712C11.4489 13.0328 11.6041 12.6728 11.6217 12.3287C11.1541 12.6297 10.5974 12.8044 9.99999 12.8044C9.90268 12.8044 9.80644 12.7997 9.7115 12.7907C9.70581 12.8077 9.69931 12.8268 9.69199 12.8479C9.6603 12.939 9.61308 13.0668 9.54948 13.2184C9.423 13.52 9.22812 13.9246 8.95612 14.325C8.42731 15.1036 7.50671 16.0022 6.13049 15.8438C5.1085 15.7262 4.25939 15.0774 3.62695 14.2737C2.99066 13.4651 2.52811 12.4456 2.2836 11.4592C2.04173 10.4834 1.9966 9.47107 2.27374 8.69621C2.41485 8.30169 2.64892 7.94448 3.00865 7.70418C3.37388 7.4602 3.8214 7.36849 4.32241 7.42616C4.84233 7.48601 5.22156 7.75604 5.51009 8.06572C5.74823 8.32133 5.95248 8.63657 6.13059 8.91147C6.15743 8.9529 6.18369 8.99342 6.20937 9.03268C6.4788 9.4445 6.71334 9.75934 7.0033 9.94642C7.0011 9.89934 6.99999 9.85198 6.99999 9.80436C6.99999 9.15686 7.20513 8.55727 7.55395 8.06703ZM7.29139 11.0957C6.28055 10.9194 5.74534 10.1372 5.36402 9.55436L5.27853 9.42319C5.09452 9.14023 4.9445 8.90954 4.77273 8.72517C4.58962 8.52863 4.42357 8.43271 4.2279 8.41019C3.92677 8.37553 3.728 8.43488 3.5894 8.52746C3.44529 8.62372 3.31798 8.78855 3.22673 9.04367C3.03917 9.56806 3.04547 10.3653 3.2638 11.2461C3.47951 12.1163 3.88598 13.0006 4.42014 13.6794C4.95816 14.3632 5.58097 14.7857 6.225 14.8598C7.02729 14.9522 7.64635 14.4486 8.11257 13.7622C8.33808 13.4302 8.50457 13.0866 8.61506 12.8231C8.66635 12.7008 8.7048 12.5977 8.7309 12.5235C8.10128 12.2291 7.59076 11.7225 7.29139 11.0957ZM13 9.80436C13 10.4349 12.8055 11.02 12.4732 11.5029C12.8257 12.4664 12.4159 13.3209 12.1019 13.9425L12.031 14.0821C11.878 14.3829 11.7532 14.6282 11.6794 14.8691C11.6007 15.126 11.6007 15.3178 11.679 15.4985C11.7996 15.7766 11.9504 15.9191 12.0998 15.9928C12.2553 16.0695 12.4617 16.0973 12.7282 16.0488C13.2761 15.949 13.9634 15.5449 14.6171 14.9154C15.2629 14.2935 15.8254 13.4994 16.1462 12.6974C16.4693 11.8895 16.5238 11.1389 16.266 10.5441C15.9448 9.80314 15.1992 9.51881 14.3716 9.45826C13.9714 9.42897 13.5906 9.45657 13.3072 9.49261C13.175 9.50941 13.0661 9.52778 12.9887 9.5423C12.9962 9.62866 13 9.71607 13 9.80436ZM12 9.80436C12 8.69979 11.1046 7.80436 9.99999 7.80436C8.89542 7.80436 7.99999 8.69979 7.99999 9.80436C7.99999 10.9089 8.89542 11.8044 9.99999 11.8044C11.1046 11.8044 12 10.9089 12 9.80436Z" fill="#242424"/>
</svg>
