<svg width="20" height="20" viewBox="0 0 20 20" fill="none" xmlns="http://www.w3.org/2000/svg">
<path d="M7.55395 8.26283L7.52221 8.22643C7.45914 8.15343 7.37209 8.04865 7.27255 7.91773C7.07463 7.65741 6.8217 7.28637 6.61089 6.85058C6.20105 6.00333 5.88307 4.75674 6.70837 3.6441C7.32124 2.81784 8.30763 2.40687 9.31991 2.26103C10.3383 2.1143 11.4525 2.22345 12.429 2.5049C13.395 2.78333 14.2943 3.25042 14.8268 3.87787C15.0979 4.19733 15.2902 4.57865 15.3184 5.01033C15.3471 5.44862 15.2028 5.88204 14.9023 6.28709C14.5905 6.70743 14.1671 6.90084 13.7546 6.99587C13.4142 7.0743 13.039 7.09357 12.7119 7.11037C12.6626 7.1129 12.6144 7.11538 12.5676 7.11799C12.0831 7.14503 11.6972 7.18983 11.3923 7.34211C11.9803 7.65075 12.4533 8.14881 12.7303 8.75521C12.748 8.75159 12.768 8.74762 12.7901 8.74339C12.8849 8.72528 13.0192 8.70228 13.1823 8.68153C13.5067 8.64028 13.9545 8.60676 14.4373 8.64209C15.376 8.71078 16.6145 9.05871 17.1655 10.3298C17.5746 11.2736 17.4373 12.3334 17.0575 13.2829C16.6753 14.2383 16.0237 15.1486 15.2917 15.8536C14.5676 16.5509 13.7134 17.0962 12.9038 17.2436C12.4916 17.3187 12.0652 17.2946 11.6772 17.1032C11.2833 16.9089 10.9802 16.5672 10.7796 16.1044C10.5715 15.6242 10.6157 15.1608 10.7396 14.7561C10.8419 14.4221 11.0128 14.0875 11.1618 13.7959C11.1843 13.7519 11.2062 13.7089 11.2274 13.667C11.4489 13.2286 11.6041 12.8686 11.6217 12.5245C11.1541 12.8255 10.5974 13.0002 9.99999 13.0002C9.90268 13.0002 9.80644 12.9955 9.7115 12.9865C9.70581 13.0035 9.69931 13.0226 9.69199 13.0437C9.6603 13.1348 9.61308 13.2626 9.54948 13.4142C9.423 13.7158 9.22812 14.1204 8.95612 14.5208C8.42731 15.2994 7.50671 16.198 6.13049 16.0396C5.1085 15.922 4.25939 15.2732 3.62695 14.4695C2.99066 13.6609 2.52811 12.6414 2.2836 11.655C2.04173 10.6792 1.9966 9.66687 2.27374 8.89201C2.41485 8.49749 2.64892 8.14028 3.00865 7.89998C3.37388 7.65601 3.8214 7.56429 4.32241 7.62196C4.84233 7.68181 5.22156 7.95184 5.51009 8.26152C5.74823 8.51713 5.95248 8.83238 6.13059 9.10727C6.15743 9.1487 6.18369 9.18922 6.20937 9.22848C6.4788 9.64031 6.71334 9.95514 7.0033 10.1422C7.0011 10.0951 6.99999 10.0478 6.99999 10.0002C6.99999 9.35266 7.20513 8.75307 7.55395 8.26283ZM12 10.0002C12 8.8956 11.1046 8.00016 9.99999 8.00016C8.89542 8.00016 7.99999 8.8956 7.99999 10.0002C7.99999 11.1047 8.89542 12.0002 9.99999 12.0002C11.1046 12.0002 12 11.1047 12 10.0002Z" fill="#242424"/>
</svg>
