<svg xmlns="http://www.w3.org/2000/svg" width="230" height="160" fill="none" viewBox="0 0 230 160">
  <path fill="#242424" d="M117.657 152c33.528 0 60.709-27.182 60.709-60.8289 0-33.6473-27.301-60.8286-60.709-60.8286-33.5275 0-60.7088 27.1813-60.7088 60.8286C56.9482 124.818 84.1295 152 117.657 152Z"/>
  <path fill="#D6DCE8" d="m154.367 84.9172 3.058.9863c.22.0735.404-.1926.258-.3725l-2.004-2.5117a.2202.2202 0 0 1-.04-.22l.982-3.0519c.074-.22-.192-.4039-.372-.2574l-2.508 1.9975a.2205.2205 0 0 1-.22.0402l-3.052-.9822c-.22-.0735-.404.1926-.257.3725l2.003 2.5117a.218.218 0 0 1 .04.22l-.986 3.0578c-.073.22.193.4039.373.2574l2.511-2.0034c.057-.0569.137-.0715.214-.0443ZM165.873 95.347l2.803.9042c.201.0673.37-.1766.236-.3415l-1.837-2.3024a.2028.2028 0 0 1-.037-.2017l.901-2.7975c.067-.2018-.177-.3703-.342-.236l-2.299 1.831a.2005.2005 0 0 1-.201.0369l-2.798-.9004c-.201-.0674-.37.1765-.236.3414l1.837 2.3025a.2028.2028 0 0 1 .037.2017l-.905 2.8029c-.067.2017.177.3703.342.236l2.302-1.8365c.052-.0521.126-.0655.197-.0406ZM117.31 41.0574l1.507 1.6628c.107.1212.311.0243.286-.1357l-.337-2.2184a.1547.1547 0 0 1 .052-.1471l1.658-1.5045c.121-.1076.025-.3116-.135-.2857l-2.214.3347a.1526.1526 0 0 1-.147-.0524l-1.505-1.6582c-.108-.1212-.312-.0243-.286.1357l.337 2.2184a.1547.1547 0 0 1-.052.1471l-1.663 1.5067c-.121.1076-.024.3116.136.2857l2.218-.3369c.054-.0146.108.0044.145.0478Z"/>
  <path fill="#EDE5DA" d="m68.5508 91.3931 2.9603-.2184c.2139-.0135.292-.3273.1094-.4394l-2.5123-1.581c-.0651-.0384-.1024-.107-.1025-.1884l-.0833-3.1835c-.0037-.2305-.2914-.3021-.4027-.1003l-1.5662 2.7728c-.0383.072-.1033.115-.1789.1184l-2.9539.2201c-.2138.0134-.292.3273-.1094.4394l2.5123 1.581c.0652.0384.1024.1069.1025.1884l.0816 3.1904c.0037.2306.2914.3022.4027.1003l1.5679-2.7798a.194.194 0 0 1 .1725-.12Z"/>
  <path fill="#5C5C5C" d="m123.98 87.2733 2.038.6576c.147.0489.27-.1284.172-.2484l-1.336-1.6745a.145.145 0 0 1-.026-.1466l.654-2.0346c.049-.1467-.128-.2693-.248-.1716l-1.672 1.3317a.1456.1456 0 0 1-.146.0268l-2.035-.6549c-.147-.0489-.269.1284-.172.2484l1.336 1.6745a.1476.1476 0 0 1 .027.1466l-.658 2.0385c-.049.1467.129.2693.249.1717l1.674-1.3357c.038-.0379.091-.0476.143-.0295Z"/>
  <path fill="#3B3B3B" d="M186.073 71.8984c2.711 0 4.909-2.198 4.909-4.9094s-2.198-4.9094-4.909-4.9094c-2.712 0-4.91 2.198-4.91 4.9094s2.198 4.9094 4.91 4.9094ZM193.257 52.7399c1.852 0 3.353-1.501 3.353-3.3527 0-1.8517-1.501-3.3528-3.353-3.3528-1.851 0-3.352 1.5011-3.352 3.3528 0 1.8517 1.501 3.3527 3.352 3.3527ZM59.7024 51.2973c1.8516 0 3.3527-1.5011 3.3527-3.3527 0-1.8517-1.5011-3.3528-3.3527-3.3528-1.8517 0-3.3528 1.5011-3.3528 3.3528 0 1.8516 1.5011 3.3527 3.3528 3.3527ZM39.2265 115.958c3.4389 0 6.2266-2.788 6.2266-6.227 0-3.439-2.7877-6.226-6.2266-6.226-3.4388 0-6.2265 2.787-6.2265 6.226s2.7877 6.227 6.2265 6.227Z"/>
  <path fill="#777" d="M168.809 24.906c-1.015 1.0239-2.672.6698-3.668-.9081-1.175-1.5332-1.937-2.6888-1.099-3.668.955-.9127 2.432-.2248 4.145.5963 2.127.9096 1.52 2.8893.622 3.9798ZM156.859 19.737c.05 1.3348 1.342 2.9354 3.065 2.6 1.9-.3801 3.384-.5596 3.395-2.0057-.049-1.3349-1.174-1.534-3.303-2.4441-1.834-.5988-3.264.337-3.157 1.8498Z"/>
  <path fill="#5C5C5C" d="M164.247 18.4242c.897.3588 1.489 1.2798 1.363 2.0891-.002.2922-.065.6969-.187.9218-.612 1.7089-1.937 2.7217-2.953 2.2957-1.196-.381-1.662-2.1113-.991-3.6404.243-.4498.364-.6747.546-1.0121.545-.7198 1.326-1.0128 2.222-.6541.12.0674 0 0 0 0Z"/>
  <path stroke="#5C5C5C" stroke-dasharray="4 4" stroke-miterlimit="10" stroke-width="2" d="M161.198 26.1705c-13.275 26.1707-32.76 36.582-50.62 42.7993-4.145 1.4629-8.655 2.7429-12.922 1.6457-4.2668-1.0971-7.9849-5.4249-6.8268-9.6916 1.0362-3.962 6.1563-5.9125 9.8748-4.3277 3.779 1.5848 5.851 5.9734 5.486 10.0573-.366 4.0839-2.865 7.6802-6.035 10.1793-3.2304 2.4991-7.0705 4.023-10.9716 5.1811-8.5945 2.56-17.5547 3.7791-25.9053 7.0097-8.4117 3.2305-16.3966 9.0211-19.2614 17.4934-2.0725 6.035-1.2191 12.862 1.4629 18.591 2.6819 5.73 7.2535 10.545 12.3736 14.385 7.863 5.852 17.5547 9.509 27.3073 9.265 9.7526-.244 19.6275-4.51 25.6615-12.19 6.034-7.681 7.802-18.835 3.535-27.673-2.925-6.096-9.569-11.0941-16.2134-9.6312-5.242 1.2192-9.0821 6.3392-9.6307 11.7642-.5485 5.425 1.8286 10.789 5.364 14.812 3.5353 4.084 8.2291 6.948 13.1051 9.448 7.132 3.596 15.543 6.339 22.919 3.291 7.009-2.865 11.093-10.118 13.775-17.128 2.682-7.01 4.694-14.629 9.57-20.42 5.851-6.9483 15.726-10.1788 24.564-8.1064 8.839 2.0724 16.275 9.3874 18.469 18.1644 1.707 6.827-.365 15.36-6.766 18.347-4.998 2.377-11.154.67-15.482-2.743-4.328-3.413-7.253-8.29-10.057-13.044"/>
  <path fill="url(#paint0_linear_3831_4516)" d="m111.591 51.5448-.379-.6231c-1.683-2.7693-4.518-4.626-7.773-5.3587-3.9444-.875-7.6053-3.2656-9.8352-6.9348-4.7122-7.754-1.7074-18.3342 6.8742-23.0405 7.668-4.2291 17.205-2.0782 21.684 4.9616 2.429 3.8314 2.903 8.4095 1.727 12.5866-.899 3.1442-.318 6.4125 1.323 9.1125l.378.6231"/>
  <path fill="url(#paint1_linear_3831_4516)" d="m112.135 52.0062.334.5492c1.67 2.7459 4.934 4.0198 8.043 3.4006.926 1.0315 2.55 1.2467 3.849.434 1.298-.8127 1.837-2.3823 1.344-3.6848 1.94-2.5412 2.282-6.0726.613-8.8185l-.334-.5492"/>
  <path fill="#777" fill-rule="evenodd" d="M106.441 28.9347c.302-.6058.928-.9984 1.597-1.0006l4.019-.0129 2.838-3.7824c.416-.5544 1.115-.8265 1.772-.6901.658.1365 1.145.6548 1.236 1.3143l2.822 20.4841c.124.9028-.524 1.7762-1.448 1.9507a1.6923 1.6923 0 0 1-.692-.0106 1.7369 1.7369 0 0 1-.305.6379c-.57.758-1.63.9504-2.367.4297L99.2188 36.4601c-.5374-.3797-.7727-1.054-.5969-1.7106.1759-.6567.7285-1.1675 1.4021-1.296l4.603-.8782 1.814-3.6406Zm10.818 16.0661-2.161-15.6904-.911 1.2132c-.339.452-.872.723-1.427.7248l-3.803.0122-1.717 3.4456c-.25.5022-.728.8648-1.278.9697l-1.497.2856 12.794 9.0393Z" clip-rule="evenodd"/>
  <path fill="#8E8E8E" d="M97.9807 9.9151c-.6341.3263-1.4268 0-1.7439-.6524l-2.8536-7.3404c-.3171-.6525 0-1.468.6341-1.7943.6342-.3263 1.4268 0 1.7439.6525l2.8536 7.3403c.4756.9787.1586 1.6312-.6341 1.7943ZM92.9221 16.3266c-.3123.3444-.6247.5165-1.2493.3444l-7.3398-1.5496c-.6247-.1722-1.2493-.8609-1.0932-1.7218.1562-.6887.7809-1.3775 1.5617-1.0331l7.3398 1.5496c.6246.1722 1.2493.8609 1.0931 1.7218-.1561.1722-.1561.5165-.3123.6887ZM107.649 8.9272c-.146 0-.293-.1659-.587-.1659-.44-.4977-.587-1.3272-.147-1.9908l4.256-6.304c.441-.4978 1.174-.6637 1.761-.166.441.4977.588 1.3272.147 1.9908l-4.256 6.3041c-.44.166-.88.3318-1.174.3318Z"/>
  <path fill="#fff" d="M161.92 74.7003c1.729.5853 3.605-.3418 4.19-2.0707.586-1.7289-.342-3.6049-2.07-4.1901-1.729-.5853-3.605.3418-4.191 2.0707-.585 1.7288.342 3.6048 2.071 4.1901Z"/>
  <path fill="#989FB0" fill-rule="evenodd" d="M163.682 69.4965c-1.145-.3877-2.388.2264-2.775 1.3715-.388 1.1451.226 2.3877 1.371 2.7753 1.145.3877 2.388-.2264 2.775-1.3715.388-1.1451-.226-2.3877-1.371-2.7753Zm-4.889.6559c.783-2.3127 3.292-3.5528 5.605-2.7699 2.312.7829 3.552 3.2923 2.769 5.6049-.782 2.3126-3.292 3.5527-5.604 2.7699-2.313-.7829-3.553-3.2923-2.77-5.6049Z" clip-rule="evenodd"/>
  <path fill="#989FB0" fill-rule="evenodd" d="M168.631 54.8589c.584.1945.901.8262.706 1.411l-4.08 12.2693c-.195.5848-.827.9012-1.412.7067-.584-.1945-.901-.8263-.706-1.4111l4.081-12.2693c.194-.5848.826-.9012 1.411-.7066ZM175.589 72.0255c-.03.6156-.553 1.0906-1.168 1.0609l-8.011-.3857c-.616-.0296-1.091-.5527-1.061-1.1683.03-.6156.553-1.0906 1.168-1.0609l8.011.3857c.616.0296 1.091.5527 1.061 1.1683Z" clip-rule="evenodd"/>
  <path fill="#fff" d="M170.352 53.067c.508-.2425.7-.8758.427-1.4145-.272-.5388-.906-.779-1.414-.5365-.509.2425-.7.8758-.428 1.4146.273.5387.906.7789 1.415.5364Z"/>
  <path fill="#989FB0" fill-rule="evenodd" d="M169.886 52.1469c.029-.0137.04-.0497.024-.0802-.015-.0306-.051-.0442-.08-.0305-.029.0138-.04.0497-.024.0803.015.0306.051.0442.08.0304Zm-1.922.8477c-.561-1.1081-.167-2.4106.879-2.9093 1.046-.4987 2.349-.0047 2.909 1.1033.561 1.108.167 2.4106-.879 2.9093-1.046.4987-2.349.0047-2.909-1.1033Z" clip-rule="evenodd"/>
  <path fill="#fff" d="M157.156 91.9905c.509-.2424.7-.8757.428-1.4145-.273-.5387-.906-.7789-1.415-.5364-.508.2425-.7.8758-.427 1.4145.272.5387.906.7789 1.414.5364Z"/>
  <path fill="#989FB0" fill-rule="evenodd" d="M156.691 91.0704c.029-.0137.04-.0497.024-.0802-.015-.0306-.051-.0442-.08-.0305-.029.0138-.04.0497-.024.0803.015.0306.051.0442.08.0304Zm-1.922.8477c-.561-1.1081-.167-2.4106.879-2.9094 1.046-.4987 2.349-.0047 2.909 1.1034.561 1.108.167 2.4106-.879 2.9093-1.046.4987-2.349.0048-2.909-1.1033Z" clip-rule="evenodd"/>
  <path fill="#fff" d="M144.277 65.9786c.508-.2425.7-.8758.427-1.4145-.272-.5388-.906-.7789-1.414-.5365-.509.2425-.7.8758-.428 1.4145.273.5388.906.7789 1.415.5365Z"/>
  <path fill="#989FB0" fill-rule="evenodd" d="M143.811 65.0585c.029-.0138.04-.0497.024-.0803-.015-.0306-.051-.0442-.08-.0304-.029.0137-.04.0497-.024.0802.015.0306.051.0442.08.0305Zm-1.922.8476c-.561-1.108-.167-2.4106.879-2.9093 1.046-.4987 2.349-.0048 2.909 1.1033.561 1.1081.167 2.4107-.879 2.9094-1.046.4987-2.349.0047-2.909-1.1034Z" clip-rule="evenodd"/>
  <path fill="#fff" d="M183.2 79.1738c.509-.2425.7-.8758.428-1.4145-.273-.5388-.906-.779-1.415-.5365-.508.2425-.7.8758-.427 1.4146.272.5387.906.7789 1.414.5364Z"/>
  <path fill="#989FB0" fill-rule="evenodd" d="M182.735 78.2536c.029-.0137.04-.0497.024-.0802-.015-.0306-.051-.0442-.08-.0305-.029.0138-.04.0497-.024.0803.015.0306.051.0442.08.0304Zm-1.922.8477c-.561-1.1081-.167-2.4106.879-2.9093 1.046-.4987 2.349-.0048 2.909 1.1033.561 1.108.167 2.4106-.879 2.9093-1.046.4987-2.349.0047-2.909-1.1033Z" clip-rule="evenodd"/>
  <path fill="url(#paint2_linear_3831_4516)" d="M155.199 95.1807c13.254 4.487 27.637-2.6206 32.124-15.8753 4.487-13.2548-2.621-27.6373-15.875-32.1243-13.255-4.487-27.638 2.6206-32.125 15.8753-4.487 13.2547 2.621 27.6373 15.876 32.1243Z"/>
  <path stroke="#383838" stroke-opacity=".4" d="M184.263 71.4178c0 12.0498-9.768 21.818-21.818 21.818s-21.818-9.7682-21.818-21.818c0-12.0498 9.768-21.8181 21.818-21.8181s21.818 9.7683 21.818 21.8181Z"/>
  <path stroke="#383838" stroke-opacity=".6" d="M177.567 71.4178c0 8.352-6.77 15.1226-15.122 15.1226s-15.123-6.7706-15.123-15.1226 6.771-15.1226 15.123-15.1226 15.122 6.7706 15.122 15.1226Z"/>
  <circle cx="162.445" cy="71.4178" r="8.4272" stroke="#383838" stroke-opacity=".8"/>
  <circle cx="162.445" cy="71.4178" r="2.8477" stroke="#383838"/>
  <path fill="url(#paint3_linear_3831_4516)" d="M162.445 93.7358c4.32 0 8.547-1.2537 12.168-3.6091a22.3239 22.3239 0 0 0 8.233-9.6601l-20.401-9.0488v22.318Z"/>
  <rect width="33.4771" height="44.6361" x="127.852" y="95.9678" fill="url(#paint4_linear_3831_4516)" rx="5" transform="rotate(30 127.852 95.9678)"/>
  <circle cx="138.442" cy="111.102" r="3.9636" stroke="#D1D1D1" transform="rotate(30 138.442 111.102)"/>
  <circle cx="127.841" cy="129.463" r="11.159" fill="url(#paint5_linear_3831_4516)" transform="rotate(30 127.841 129.463)"/>
  <circle cx="127.841" cy="129.463" r="4.4636" fill="#D1D1D1" transform="rotate(30 127.841 129.463)"/>
  <circle cx="111.631" cy="132.99" r="1.1159" fill="#D1D1D1" transform="rotate(30 111.631 132.99)"/>
  <circle cx="132.892" cy="145.265" r="1.1159" fill="#D1D1D1" transform="rotate(30 132.892 145.265)"/>
  <path fill="url(#paint6_linear_3831_4516)" d="M43.5837 77.1873c-.2584-.4563-.0994-1.0396.3547-1.3018l37.847-21.851a.9409.9409 0 0 1 1.2908.3518l4.3941 7.7619c.6745 1.1683.6813 2.7002.1785 4.1094l-2.2201 5.275s-3.4777 3.0229-13.6471 8.8941c-10.1857 5.8808-14.9155 7.377-14.9155 7.377l-5.4188-.6452c-1.3768-.1046-2.7-.8764-3.4696-2.2093l-4.394-7.7619Z"/>
  <path fill="url(#paint7_linear_3831_4516)" fill-rule="evenodd" d="M57.7683 88.5173c5.2105 7.9634 13.4969 11.9317 23.13 6.3699 9.6118-5.5494 9.6316-14.3027 5.3532-22.6099-1.5117 1.1564-5.5828 4.0852-13.6461 8.7405-8.2231 4.7476-13.0452 6.8026-14.8371 7.4995Z" clip-rule="evenodd"/>
  <mask id="mask0_3831_4516" width="32" height="26" x="57" y="72" maskUnits="userSpaceOnUse" style="mask-type:alpha">
    <path fill="url(#paint8_linear_3831_4516)" fill-rule="evenodd" d="M57.7686 88.517c5.2105 7.9634 13.4968 11.931 23.1299 6.3698 9.6118-5.5494 9.6316-14.3027 5.3532-22.6099-1.5117 1.1564-5.5828 4.0852-13.6461 8.7405-8.2231 4.7477-13.0452 6.8026-14.837 7.4996Z" clip-rule="evenodd"/>
  </mask>
  <g mask="url(#mask0_3831_4516)">
    <path fill="url(#paint9_linear_3831_4516)" d="M82.853 85.1338c.4316.7477 4.0859 7.0395 4.0859 7.0395l-11.5454 6.7846-4.1211-7.138c-1.7305-2.9974-.5392-6.9223 2.6592-8.7689 3.1984-1.8466 7.1908-.9145 8.9214 2.0828Z"/>
  </g>
  <circle cx="77.2864" cy="88.8453" r="4.4636" fill="#D1D1D1" transform="rotate(-30 77.2864 88.8453)"/>
  <defs>
    <linearGradient id="paint0_linear_3831_4516" x1="99.2163" x2="119.239" y1="15.3463" y2="47.3136" gradientUnits="userSpaceOnUse">
      <stop stop-color="#5C5C5C"/>
      <stop offset=".9964" stop-color="#4D4D4D"/>
    </linearGradient>
    <linearGradient id="paint1_linear_3831_4516" x1="118.932" x2="124.529" y1="47.4731" y2="56.4145" gradientUnits="userSpaceOnUse">
      <stop stop-color="#5C5C5C"/>
      <stop offset=".9964" stop-color="#4D4D4D"/>
    </linearGradient>
    <linearGradient id="paint2_linear_3831_4516" x1="171.808" x2="155.008" y1="46.0655" y2="95.6929" gradientUnits="userSpaceOnUse">
      <stop stop-color="#5C5C5C"/>
      <stop offset=".9964" stop-color="#4D4D4D"/>
    </linearGradient>
    <linearGradient id="paint3_linear_3831_4516" x1="180.299" x2="156.307" y1="71.4178" y2="80.903" gradientUnits="userSpaceOnUse">
      <stop stop-color="#9B9B9B" stop-opacity="0"/>
      <stop offset="1" stop-color="#DDD" stop-opacity=".53"/>
    </linearGradient>
    <linearGradient id="paint4_linear_3831_4516" x1="144.579" x2="144.579" y1="94.9353" y2="141.085" gradientUnits="userSpaceOnUse">
      <stop stop-color="#5C5C5C"/>
      <stop offset=".9964" stop-color="#4D4D4D"/>
    </linearGradient>
    <linearGradient id="paint5_linear_3831_4516" x1="127.841" x2="127.841" y1="118.304" y2="140.623" gradientUnits="userSpaceOnUse">
      <stop stop-color="#474747"/>
      <stop offset="1" stop-color="#343434"/>
    </linearGradient>
    <linearGradient id="paint6_linear_3831_4516" x1="62.6028" x2="71.8328" y1="64.6327" y2="80.6195" gradientUnits="userSpaceOnUse">
      <stop stop-color="#5C5C5C"/>
      <stop offset=".9964" stop-color="#4D4D4D"/>
    </linearGradient>
    <linearGradient id="paint7_linear_3831_4516" x1="71.7588" x2="80.5891" y1="79.9837" y2="95.2783" gradientUnits="userSpaceOnUse">
      <stop stop-color="#5C5C5C"/>
      <stop offset=".9964" stop-color="#4D4D4D"/>
    </linearGradient>
    <linearGradient id="paint8_linear_3831_4516" x1="62.4356" x2="80.7977" y1="63.5832" y2="95.3874" gradientUnits="userSpaceOnUse">
      <stop stop-color="#FDFEFF"/>
      <stop offset=".9964" stop-color="#F5F2EC"/>
    </linearGradient>
    <linearGradient id="paint9_linear_3831_4516" x1="73.9385" x2="81.1919" y1="83.0469" y2="95.6101" gradientUnits="userSpaceOnUse">
      <stop stop-color="#474747"/>
      <stop offset="1" stop-color="#343434"/>
    </linearGradient>
  </defs>
</svg>
