<svg width="230" height="164" viewBox="0 0 230 164" fill="none" xmlns="http://www.w3.org/2000/svg">
<path d="M114.34 144C144.715 144 169.34 119.423 169.34 89C169.34 58.5768 144.606 34 114.34 34C83.9653 34 59.3401 58.5768 59.3401 89C59.3401 119.423 83.9653 144 114.34 144Z" fill="#EBEBEB"/>
<path d="M154.059 89.2751L157.126 90.2656C157.346 90.3394 157.531 90.0722 157.384 89.8915L155.375 87.3692C155.322 87.3062 155.307 87.2259 155.334 87.1483L156.319 84.0836C156.393 83.8626 156.126 83.6779 155.946 83.825L153.431 85.831C153.368 85.884 153.288 85.8986 153.21 85.8713L150.15 84.885C149.929 84.8112 149.744 85.0784 149.891 85.259L151.901 87.7814C151.954 87.8443 151.968 87.9246 151.941 88.0023L150.952 91.0729C150.878 91.2939 151.145 91.4786 151.325 91.3314L153.844 89.3196C153.901 89.2625 153.981 89.2478 154.059 89.2751Z" fill="#D6DCE8"/>
<path d="M165.597 99.7489L168.409 100.657C168.611 100.724 168.78 100.48 168.645 100.314L166.803 98.0018C166.755 97.9441 166.741 97.8704 166.767 97.7993L167.669 94.9899C167.737 94.7874 167.492 94.6181 167.327 94.7529L165.022 96.5917C164.964 96.6403 164.891 96.6538 164.819 96.6287L162.014 95.7245C161.812 95.6569 161.642 95.9018 161.777 96.0674L163.619 98.3796C163.667 98.4373 163.681 98.5109 163.656 98.5821L162.749 101.397C162.682 101.599 162.926 101.769 163.092 101.634L165.401 99.7896C165.453 99.7373 165.526 99.7238 165.597 99.7489Z" fill="#EBE3D8"/>
<path d="M116.894 45.2305L118.405 46.9003C118.513 47.022 118.718 46.9246 118.692 46.764L118.354 44.5362C118.344 44.4797 118.363 44.4259 118.407 44.3885L120.07 42.8776C120.191 42.7696 120.094 42.5647 119.934 42.5908L117.713 42.9269C117.657 42.937 117.603 42.9179 117.566 42.8743L116.057 41.2091C115.949 41.0874 115.744 41.1847 115.77 41.3453L116.108 43.5731C116.118 43.6297 116.099 43.6834 116.056 43.7208L114.388 45.2339C114.267 45.3419 114.364 45.5468 114.524 45.5207L116.749 45.1824C116.803 45.1678 116.857 45.1869 116.894 45.2305Z" fill="#D6DCE8"/>
<path d="M67.9938 95.7782L70.9627 95.5588C71.1771 95.5454 71.2555 95.2302 71.0724 95.1176L68.5528 93.53C68.4875 93.4914 68.4501 93.4226 68.45 93.3407L68.3665 90.1439C68.3628 89.9124 68.0742 89.8404 67.9626 90.0432L66.3919 92.8277C66.3535 92.8999 66.2882 92.9431 66.2125 92.9466L63.25 93.1676C63.0356 93.1811 62.9572 93.4962 63.1403 93.6088L65.6599 95.1964C65.7252 95.235 65.7626 95.3038 65.7626 95.3857L65.8444 98.5895C65.8482 98.821 66.1367 98.893 66.2484 98.6902L67.8208 95.8988C67.8528 95.8249 67.918 95.7817 67.9938 95.7782Z" fill="#EDE5DA"/>
<path d="M123.584 91.6411L125.628 92.3014C125.775 92.3506 125.898 92.1725 125.8 92.052L124.461 90.3705C124.425 90.3285 124.416 90.2749 124.434 90.2232L125.09 88.1801C125.14 88.0327 124.962 87.9096 124.841 88.0077L123.165 89.345C123.123 89.3803 123.069 89.3901 123.018 89.3719L120.977 88.7143C120.83 88.6651 120.707 88.8433 120.805 88.9637L122.145 90.6452C122.18 90.6872 122.19 90.7408 122.171 90.7925L121.512 92.8396C121.463 92.9869 121.641 93.1101 121.761 93.012L123.44 91.6707C123.478 91.6326 123.532 91.6229 123.584 91.6411Z" fill="#EDE5DA"/>
<path d="M185.856 76.2014C188.575 76.2014 190.779 73.9941 190.779 71.2713C190.779 68.5485 188.575 66.3412 185.856 66.3412C183.136 66.3412 180.932 68.5485 180.932 71.2713C180.932 73.9941 183.136 76.2014 185.856 76.2014Z" fill="#EDE5DA"/>
<path d="M193.061 56.9622C194.918 56.9622 196.424 55.4548 196.424 53.5953C196.424 51.7358 194.918 50.2284 193.061 50.2284C191.204 50.2284 189.699 51.7358 189.699 53.5953C189.699 55.4548 191.204 56.9622 193.061 56.9622Z" fill="#EDE5DA"/>
<path d="M59.1198 55.5136C60.9768 55.5136 62.4822 54.0062 62.4822 52.1467C62.4822 50.2872 60.9768 48.7798 59.1198 48.7798C57.2627 48.7798 55.7573 50.2872 55.7573 52.1467C55.7573 54.0062 57.2627 55.5136 59.1198 55.5136Z" fill="#EDE5DA"/>
<path d="M38.5847 120.447C42.0334 120.447 44.8292 117.647 44.8292 114.194C44.8292 110.741 42.0334 107.941 38.5847 107.941C35.1359 107.941 32.3401 110.741 32.3401 114.194C32.3401 117.647 35.1359 120.447 38.5847 120.447Z" fill="#EDE5DA"/>
<path d="M168.542 29.0109C167.524 30.0391 165.862 29.6835 164.863 28.099C163.686 26.5593 162.921 25.3989 163.761 24.4155C164.719 23.499 166.2 24.1898 167.918 25.0143C170.052 25.9277 169.442 27.9158 168.542 29.0109Z" fill="#B7B4AF"/>
<path d="M156.558 23.8201C156.607 25.1606 157.904 26.7679 159.631 26.431C161.537 26.0493 163.026 25.8691 163.036 24.4168C162.987 23.0764 161.858 22.8764 159.724 21.9625C157.885 21.3611 156.45 22.3009 156.558 23.8201Z" fill="#B7B4AF"/>
<path d="M163.967 22.5019C164.866 22.8622 165.46 23.7871 165.334 24.5998C165.332 24.8933 165.269 25.2996 165.147 25.5255C164.533 27.2416 163.203 28.2587 162.185 27.8308C160.986 27.4483 160.518 25.7107 161.191 24.1751C161.434 23.7234 161.556 23.4975 161.739 23.1588C162.285 22.4359 163.069 22.1417 163.967 22.5019C164.087 22.5695 163.967 22.5019 163.967 22.5019Z" fill="#777777"/>
<path fill-rule="evenodd" clip-rule="evenodd" d="M159.149 31.5046C159.441 30.9534 159.731 30.3949 160.017 29.8289L161.802 30.7327C161.509 31.3099 161.214 31.8796 160.915 32.4419L159.149 31.5046ZM155.366 37.9994C156.03 36.9598 156.683 35.8897 157.324 34.7878L159.053 35.7936C158.398 36.9191 157.731 38.0128 157.052 39.0758L155.366 37.9994ZM151.054 44.1432C151.807 43.1668 152.549 42.1585 153.28 41.1169L154.917 42.2653C154.17 43.3315 153.41 44.3641 152.638 45.3645L151.054 44.1432ZM146.203 49.8582C147.044 48.9585 147.875 48.0262 148.695 47.0596L150.22 48.3537C149.379 49.3448 148.527 50.301 147.664 51.2241L146.203 49.8582ZM140.818 55.0785C141.746 54.2641 142.665 53.4172 143.574 52.5359L144.966 53.9718C144.033 54.8763 143.09 55.7455 142.138 56.5814L140.818 55.0785ZM134.95 59.7406C135.955 59.0195 136.952 58.2671 137.942 57.4813L139.185 59.0473C138.17 59.8538 137.147 60.6257 136.117 61.3653L134.95 59.7406ZM99.8472 61.7543C99.4541 61.5865 99.0387 61.4639 98.6095 61.3855L98.9688 59.418C99.5354 59.5215 100.093 59.6851 100.63 59.9138C101.167 60.1395 101.672 60.4148 102.145 60.7322L101.029 62.3922C100.66 62.1443 100.268 61.9309 99.8526 61.7566L99.8472 61.7543ZM95.9794 61.4331C95.1011 61.6168 94.2633 61.9618 93.5408 62.441L92.4353 60.7743C93.379 60.1483 94.4551 59.7087 95.5698 59.4755L95.9794 61.4331ZM128.656 63.8259C129.726 63.1991 130.791 62.5432 131.851 61.8558L132.94 63.5337C131.853 64.2382 130.762 64.9099 129.667 65.5516L128.656 63.8259ZM104.232 66.7297C103.927 65.844 103.499 65.0125 102.965 64.2784L104.582 63.1013C105.239 64.0049 105.756 65.0148 106.123 66.0768L104.232 66.7297ZM91.7777 64.2793C91.5719 64.6375 91.4115 65.0227 91.3042 65.4333L91.3019 65.4422L91.3018 65.4422C91.1785 65.8971 91.1211 66.3521 91.1219 66.803L89.1219 66.8067C89.1208 66.1832 89.2002 65.5523 89.3703 64.9234C89.5239 64.3371 89.7529 63.7888 90.0434 63.283L91.7777 64.2793ZM122.017 67.3443C123.138 66.8075 124.258 66.2448 125.374 65.6536L126.31 67.4211C125.169 68.0255 124.025 68.6002 122.881 69.148L122.017 67.3443ZM115.116 70.3485C116.273 69.8904 117.434 69.4105 118.595 68.906L119.392 70.7402C118.209 71.2542 117.029 71.7424 115.852 72.2081L115.116 70.3485ZM104.745 70.8453C104.786 70.3865 104.794 69.9222 104.768 69.4577L106.765 69.3476C106.796 69.9058 106.787 70.4665 106.738 71.0235C106.688 71.5775 106.603 72.1226 106.484 72.6572L104.531 72.2259C104.632 71.7725 104.704 71.312 104.745 70.8453ZM91.81 69.5079C92.238 70.3483 92.8485 71.1363 93.5888 71.8193L92.2325 73.2892C91.3353 72.4613 90.5735 71.487 90.0278 70.4155L91.81 69.5079ZM109.814 72.3161C110.405 72.1101 110.997 71.8996 111.591 71.6841L112.273 73.5641C111.672 73.7824 111.072 73.9956 110.474 74.204C109.952 74.3885 109.422 74.5709 108.886 74.7466L108.263 72.8461C108.781 72.6761 109.297 72.4986 109.81 72.3175L109.814 72.3161ZM96.0497 73.4544C96.5012 73.6592 96.9647 73.8242 97.4326 73.9446C97.928 74.0722 98.4286 74.1654 98.9339 74.2278L98.6886 76.2127C98.1024 76.1403 97.5169 76.0316 96.9339 75.8815C96.3485 75.7308 95.7755 75.5262 95.2233 75.2757L96.0497 73.4544ZM102.031 74.261C103.065 74.1686 104.11 73.9839 105.157 73.736L105.618 75.6822C105.537 75.7014 105.456 75.7203 105.374 75.7388L105.4 75.7516C104.927 76.7284 104.35 77.6521 103.695 78.5134L102.103 77.3029C102.379 76.9395 102.638 76.5656 102.879 76.1821C102.656 76.2094 102.433 76.2331 102.209 76.2531L102.031 74.261ZM99.0735 80.3688C99.4493 80.072 99.815 79.7591 100.168 79.4314L101.529 80.8965C101.135 81.2624 100.728 81.6111 100.309 81.9414L100.302 81.9471L100.302 81.9471C99.8791 82.2747 99.4469 82.5858 99.0067 82.8817L97.8909 81.2218C98.2942 80.9508 98.6887 80.6668 99.0735 80.3688ZM92.6527 83.9388C93.5763 83.5675 94.4793 83.1614 95.3544 82.7118L96.2684 84.4907C95.3314 84.9721 94.3716 85.4033 93.3989 85.7944L92.6527 83.9388ZM88.4012 85.4009C88.8825 85.2578 89.3618 85.1094 89.8383 84.9545L90.4567 86.8565C89.9624 87.0172 89.4667 87.1707 88.9711 87.318L88.6862 86.3594L88.972 87.3177C88.9717 87.3178 88.9714 87.3179 88.9711 87.318C88.246 87.5343 87.5192 87.7409 86.7912 87.9398L86.2641 86.0105C86.9792 85.8151 87.6914 85.6126 88.4003 85.4012L88.4012 85.4009ZM78.0443 88.0299C79.3479 87.7274 80.6472 87.4259 81.9436 87.1132L82.4125 89.0574C81.1071 89.3723 79.7992 89.6758 78.4966 89.9781C78.3423 90.0139 78.188 90.0497 78.0338 90.0856L77.5814 88.1374C77.7358 88.1015 77.8901 88.0657 78.0443 88.0299ZM68.8252 90.3263C70.2782 89.9144 71.7388 89.5364 73.2006 89.1766L73.6785 91.1187C72.2316 91.4748 70.7948 91.8468 69.3707 92.2505L68.8252 90.3263ZM62.3457 92.4658C63.056 92.1906 63.7699 91.9301 64.4866 91.6821L65.1406 93.5721C64.4448 93.8129 63.7534 94.0653 63.067 94.3312L63.0648 94.332C62.3832 94.5941 61.7048 94.8733 61.0321 95.1695L60.2261 93.3391C60.9282 93.0299 61.6356 92.7389 62.3457 92.4658ZM62.3457 92.4658C62.3461 92.4656 62.3465 92.4655 62.3469 92.4653L62.7056 93.3982L62.3446 92.4662C62.345 92.466 62.3454 92.4659 62.3457 92.4658ZM52.253 97.9063C53.4862 96.9963 54.7826 96.1611 56.1203 95.3997L57.1097 97.1378C55.8353 97.8633 54.6055 98.6559 53.4405 99.5156L52.253 97.9063ZM170.857 97.7276C169.406 97.8049 167.96 98.0137 166.542 98.3472L166.084 96.4003C167.616 96.0401 169.179 95.8141 170.751 95.7305L170.857 97.7276ZM177.341 98.2897C176.635 98.1239 175.922 97.9934 175.204 97.8973L175.469 95.9149C176.25 96.0196 177.028 96.1618 177.798 96.3426C178.569 96.5237 179.329 96.7428 180.077 96.9975L179.431 98.8905C178.745 98.6565 178.047 98.4555 177.341 98.2897ZM162.399 99.713C161.061 100.288 159.775 100.981 158.564 101.783L157.46 100.115C158.773 99.2461 160.164 98.4972 161.61 97.8756L162.399 99.713ZM186.999 103.154C185.874 102.224 184.67 101.392 183.404 100.677L184.388 98.9356C185.759 99.7103 187.06 100.609 188.273 101.612L186.999 103.154ZM45.6785 104.424C46.5877 103.168 47.6111 101.995 48.7235 100.903L50.1245 102.33C49.0855 103.35 48.1369 104.439 47.2987 105.597L45.6785 104.424ZM97.457 102.706C98.0677 102.571 98.6785 102.486 99.2867 102.448L99.412 104.444C98.9071 104.476 98.4004 104.546 97.8936 104.657C97.2943 104.797 96.7139 104.994 96.1555 105.241L95.346 103.412C96.017 103.115 96.7183 102.877 97.4455 102.708L97.457 102.705L97.457 102.706ZM102.94 102.762C104.117 103.036 105.257 103.467 106.34 104.023L105.427 105.802C104.476 105.314 103.491 104.943 102.487 104.71L102.94 102.762ZM155.178 104.51C154.66 105.015 154.166 105.546 153.699 106.101C153.307 106.568 152.933 107.048 152.575 107.54L150.957 106.364C151.341 105.836 151.744 105.318 152.169 104.814C152.678 104.207 153.217 103.629 153.781 103.078L155.178 104.51ZM192.646 109.774C191.911 108.52 191.061 107.329 190.113 106.218L191.634 104.92C192.657 106.118 193.576 107.405 194.371 108.763L192.646 109.774ZM89.023 109.249C89.7526 107.989 90.6576 106.834 91.7094 105.846L93.0789 107.303C92.1755 108.152 91.3903 109.152 90.7538 110.251L89.023 109.249ZM109.343 105.985C110.266 106.728 111.125 107.563 111.904 108.464L110.391 109.772C109.688 108.959 108.915 108.208 108.088 107.542L109.343 105.985ZM42.442 110.644C42.6945 109.896 42.9849 109.169 43.3098 108.462L45.1271 109.297C44.8305 109.942 44.566 110.605 44.3361 111.286L44.3346 111.291C44.0873 112.011 43.8834 112.745 43.7211 113.488L41.7672 113.061C41.9453 112.246 42.1694 111.439 42.442 110.644ZM150.607 110.64C150.01 111.711 149.464 112.82 148.954 113.957L147.129 113.138C147.659 111.959 148.23 110.797 148.86 109.666L150.607 110.64ZM114.834 112.919C114.578 112.386 114.296 111.861 113.99 111.349L114.834 112.919ZM195.122 115.799C194.946 115.096 194.735 114.401 194.491 113.718L196.375 113.045C196.64 113.789 196.87 114.546 197.062 115.315C197.211 115.912 197.333 116.52 197.427 117.136L195.45 117.438C195.365 116.882 195.255 116.335 195.122 115.799ZM87.0188 115.395C87.0917 114.673 87.2186 113.957 87.3951 113.255L89.3348 113.742C89.1813 114.353 89.0716 114.973 89.0087 115.596C88.9446 116.231 88.923 116.865 88.9409 117.498L86.9417 117.554C86.9214 116.838 86.9458 116.118 87.0188 115.395ZM147.526 117.413C147.076 118.581 146.648 119.763 146.222 120.951L144.339 120.277C144.766 119.085 145.201 117.885 145.659 116.695L147.526 117.413ZM164.555 117.62C164.905 118.215 165.256 118.81 165.611 119.403L163.895 120.43C163.536 119.831 163.182 119.231 162.831 118.635L164.555 117.62ZM41.6792 122.985C41.3788 121.352 41.2228 119.69 41.2302 118.03L43.2302 118.039C43.2234 119.568 43.3671 121.106 43.6462 122.623L41.6792 122.985ZM116.694 118.356C116.964 119.603 117.14 120.87 117.226 122.143L115.23 122.278C115.151 121.099 114.988 119.929 114.739 118.779L116.694 118.356ZM195.278 124.104C195.505 123.02 195.631 121.903 195.66 120.781L197.659 120.831C197.628 122.069 197.488 123.307 197.236 124.513L195.278 124.104ZM89.0952 125.775C88.4615 124.504 87.9445 123.171 87.5753 121.797L89.5068 121.278C89.8388 122.514 90.3064 123.722 90.8852 124.883L89.0952 125.775ZM167.792 122.888C168.549 124.029 169.338 125.133 170.178 126.179L168.619 127.432C167.732 126.327 166.907 125.171 166.125 123.994L167.792 122.888ZM144.939 124.528C144.72 125.128 144.498 125.725 144.271 126.32C144.044 126.913 143.807 127.508 143.56 128.103L141.713 127.335C141.953 126.759 142.182 126.182 142.402 125.606C142.625 125.023 142.844 124.435 143.06 123.842L144.939 124.528ZM117.217 125.96C117.128 127.227 116.954 128.489 116.698 129.736L114.739 129.334C114.977 128.172 115.139 126.997 115.222 125.819L117.217 125.96ZM43.9499 130.059C43.6008 129.312 43.2816 128.547 42.9945 127.769L44.871 127.077C45.1387 127.803 45.4363 128.516 45.7617 129.212C46.0893 129.913 46.4464 130.6 46.8306 131.274L45.0929 132.265C44.6831 131.545 44.3011 130.81 43.9499 130.059ZM192.612 130.079C193.274 129.237 193.83 128.29 194.278 127.267L196.11 128.07C195.6 129.232 194.96 130.328 194.184 131.315L192.612 130.079ZM92.6389 131.026C92.177 130.5 91.7339 129.951 91.3133 129.383L92.9207 128.193C93.3088 128.717 93.718 129.224 94.1448 129.71L94.1497 129.716C94.5785 130.212 95.0256 130.69 95.4894 131.152L94.0781 132.569C93.5815 132.074 93.101 131.561 92.6389 131.026ZM172.892 129.14C173.376 129.595 173.878 130.03 174.399 130.442C174.909 130.844 175.445 131.222 176.004 131.571L174.944 133.267C174.324 132.88 173.727 132.46 173.16 132.012C172.59 131.562 172.045 131.089 171.521 130.596L172.892 129.14ZM141.954 131.608C141.371 132.761 140.736 133.894 140.043 134.983L138.355 133.91C139.009 132.883 139.611 131.808 140.169 130.705L141.954 131.608ZM188.883 133.075C189.375 132.846 189.839 132.58 190.275 132.282L191.403 133.933C190.88 134.291 190.323 134.61 189.734 134.886C189.045 135.213 188.338 135.469 187.618 135.66L187.107 133.726C187.711 133.566 188.303 133.352 188.877 133.079L188.883 133.075ZM115.693 133.41C115.279 134.611 114.788 135.787 114.222 136.924L112.432 136.033C112.958 134.974 113.416 133.879 113.802 132.759L115.693 133.41ZM179.532 133.264C180.776 133.695 182.054 133.97 183.321 134.059L183.181 136.055C181.722 135.952 180.271 135.637 178.877 135.154L179.532 133.264ZM100.674 137.708C99.4951 136.967 98.3464 136.18 97.2449 135.331L98.4652 133.747C99.5085 134.55 100.604 135.302 101.738 136.014L100.674 137.708ZM51.1094 140.065C49.9517 138.897 48.8584 137.666 47.8516 136.371L49.4303 135.143C50.3839 136.369 51.4236 137.541 52.5299 138.657L51.1094 140.065ZM137.745 138.146C136.899 139.159 135.979 140.105 134.979 140.959L133.681 139.438C134.586 138.665 135.427 137.8 136.21 136.863L137.745 138.146ZM106.08 140.747C105.469 140.434 104.861 140.115 104.256 139.787L105.208 138.028C105.797 138.347 106.391 138.659 106.99 138.966C107.571 139.26 108.159 139.547 108.755 139.825L107.907 141.637C107.291 141.349 106.684 141.052 106.085 140.75L106.08 140.747ZM112.3 140.217C111.943 140.745 111.567 141.259 111.174 141.76C110.782 142.261 110.374 142.747 109.951 143.218L108.461 141.884C108.855 141.444 109.235 140.991 109.601 140.526C109.965 140.062 110.313 139.584 110.645 139.095L112.3 140.217ZM115.546 144.487C114.231 144.137 112.929 143.709 111.652 143.226L112.36 141.355C113.583 141.818 114.819 142.224 116.06 142.555L115.546 144.487ZM129.902 144.088C130.526 143.832 131.127 143.544 131.708 143.227L129.902 144.088ZM56.6647 144.881C56.0139 144.392 55.3713 143.887 54.7396 143.367L56.0111 141.823C56.6184 142.324 57.237 142.809 57.8643 143.28C58.3457 143.639 58.8341 143.989 59.3291 144.331L58.1931 145.977C57.6777 145.621 57.1691 145.257 56.6677 144.883L56.6647 144.881ZM123.755 145.45C122.37 145.525 120.978 145.462 119.593 145.288L119.841 143.304C121.123 143.464 122.395 143.521 123.648 143.453L123.755 145.45ZM107.244 145.884C106.289 146.714 105.285 147.486 104.239 148.198L103.113 146.545C104.096 145.876 105.038 145.152 105.931 144.375L107.244 145.884ZM64.6677 149.774C63.5431 149.223 62.4392 148.629 61.3593 147.995L62.3715 146.27C63.4088 146.879 64.4687 147.449 65.5476 147.978L64.6677 149.774ZM100.995 150.15C99.8815 150.739 98.7349 151.269 97.5631 151.738L96.8203 149.881C97.9277 149.438 99.01 148.938 100.06 148.382L100.995 150.15ZM71.6547 152.541C70.4561 152.175 69.2716 151.759 68.1046 151.296L68.8423 149.437C69.96 149.88 71.0934 150.279 72.2389 150.629L71.6547 152.541ZM93.9882 152.959C92.777 153.304 91.5482 153.589 90.3096 153.811L89.9567 151.842C91.1295 151.632 92.2928 151.363 93.4391 151.035L93.9882 152.959ZM79.02 154.11C77.7717 153.96 76.5307 153.751 75.3005 153.488L75.7188 151.532C76.8916 151.783 78.0731 151.981 79.2598 152.125L79.02 154.11ZM86.5637 154.289C85.9349 154.337 85.3056 154.369 84.6766 154.385C84.0459 154.401 83.4156 154.401 82.7861 154.385L82.8353 152.386C83.4321 152.4 84.0293 152.4 84.6265 152.385C85.2212 152.371 85.8164 152.34 86.4112 152.295L86.5637 154.289Z" fill="#B7B4AF"/>
<g filter="url(#filter0_d_3831_4442)">
<path d="M111.159 55.7611L110.779 55.1354C109.091 52.3545 106.248 50.4901 102.983 49.7544C99.0276 48.8759 95.356 46.4754 93.1196 42.7907C88.3935 35.0043 91.4067 24.3794 100.013 19.6529C107.703 15.4057 117.268 17.5653 121.76 24.6346C124.196 28.4821 124.671 33.0794 123.493 37.2742C122.591 40.4316 123.173 43.7137 124.819 46.425L125.199 47.0507" fill="url(#paint0_linear_3831_4442)"/>
</g>
<g filter="url(#filter1_d_3831_4442)">
<path d="M111.704 56.2255L112.039 56.777C113.713 59.5344 116.987 60.8137 120.105 60.1919C121.034 61.2278 122.663 61.4438 123.965 60.6277C125.267 59.8116 125.808 58.2353 125.313 56.9274C127.259 54.3754 127.602 50.8292 125.928 48.0717L125.593 47.5202" fill="url(#paint1_linear_3831_4442)"/>
</g>
<path fill-rule="evenodd" clip-rule="evenodd" d="M105.993 33.0567C106.296 32.4484 106.925 32.0541 107.595 32.052L111.626 32.039L114.472 28.2406C114.889 27.6839 115.59 27.4106 116.25 27.5476C116.909 27.6846 117.398 28.2051 117.489 28.8674L120.319 49.4379C120.443 50.3445 119.794 51.2216 118.867 51.3968C118.627 51.4423 118.392 51.4361 118.173 51.3862C118.118 51.6093 118.017 51.8276 117.867 52.0268C117.295 52.7879 116.232 52.9811 115.493 52.4583L98.7504 40.6138C98.2114 40.2325 97.9755 39.5554 98.1519 38.896C98.3282 38.2366 98.8824 37.7236 99.5578 37.5946L104.174 36.7126L105.993 33.0567ZM116.843 49.1906L114.675 33.4341L113.762 34.6523C113.422 35.1062 112.887 35.3784 112.331 35.3801L108.517 35.3924L106.795 38.8526C106.544 39.3569 106.065 39.721 105.513 39.8264L104.012 40.1132L116.843 49.1906Z" fill="#E6E0D7"/>
<path d="M97.5088 13.9569C96.8728 14.2845 96.0778 13.9569 95.7598 13.3017L92.8979 5.9304C92.58 5.27517 92.8979 4.45614 93.5339 4.12852C94.1699 3.80091 94.9649 4.12852 95.2829 4.78375L98.1447 12.155C98.6217 13.1379 98.3037 13.7931 97.5088 13.9569Z" fill="#E8E1D8"/>
<path d="M92.4355 20.3954C92.1223 20.7413 91.8091 20.9142 91.1826 20.7412L83.8216 19.1851C83.1951 19.0122 82.5687 18.3206 82.7253 17.4561C82.8819 16.7644 83.5084 16.0728 84.2914 16.4186L91.6525 17.9748C92.2789 18.1477 92.9054 18.8393 92.7488 19.7038C92.5922 19.8767 92.5922 20.2225 92.4355 20.3954Z" fill="#E8E1D8"/>
<path d="M107.205 12.9648C107.058 12.9648 106.911 12.7982 106.617 12.7982C106.175 12.2985 106.028 11.4655 106.469 10.7991L110.738 4.46837C111.179 3.96858 111.915 3.80198 112.504 4.30177C112.945 4.80157 113.093 5.63455 112.651 6.30094L108.383 12.6316C107.941 12.7982 107.5 12.9648 107.205 12.9648Z" fill="#E8E1D8"/>
<ellipse cx="153.921" cy="82.0918" rx="25.6107" ry="25.6444" fill="url(#paint2_radial_3831_4442)"/>
<path d="M161.634 79.0151C163.367 79.6028 165.249 78.6718 165.836 76.9357C166.423 75.1995 165.493 73.3156 163.759 72.7279C162.025 72.1401 160.144 73.0711 159.557 74.8073C158.97 76.5435 159.9 78.4273 161.634 79.0151Z" fill="white"/>
<path fill-rule="evenodd" clip-rule="evenodd" d="M163.4 73.7894C162.251 73.4001 161.005 74.0168 160.616 75.1667C160.228 76.3167 160.843 77.5645 161.992 77.9537C163.14 78.343 164.387 77.7264 164.775 76.5764C165.164 75.4265 164.548 74.1787 163.4 73.7894ZM158.496 74.4481C159.281 72.1257 161.798 70.8804 164.117 71.6665C166.437 72.4527 167.681 74.9727 166.895 77.2951C166.11 79.6174 163.594 80.8628 161.274 80.0766C158.955 79.2904 157.711 76.7705 158.496 74.4481Z" fill="#989FB0"/>
<path fill-rule="evenodd" clip-rule="evenodd" d="M168.363 59.0903C168.949 59.2857 169.267 59.9201 169.071 60.5073L164.979 72.8283C164.784 73.4156 164.15 73.7333 163.564 73.538C162.977 73.3427 162.66 72.7082 162.855 72.121L166.948 59.8C167.143 59.2127 167.776 58.895 168.363 59.0903Z" fill="#989FB0"/>
<path fill-rule="evenodd" clip-rule="evenodd" d="M175.342 76.3291C175.312 76.9472 174.788 77.4243 174.17 77.3945L166.136 77.0071C165.519 76.9774 165.043 76.4521 165.072 75.8339C165.102 75.2158 165.627 74.7388 166.244 74.7685L174.278 75.1559C174.895 75.1856 175.372 75.7109 175.342 76.3291Z" fill="#989FB0"/>
<path d="M170.089 57.2909C170.599 57.0474 170.791 56.4114 170.518 55.8704C170.244 55.3294 169.609 55.0882 169.099 55.3317C168.589 55.5752 168.397 56.2112 168.671 56.7522C168.944 57.2932 169.579 57.5344 170.089 57.2909Z" fill="white"/>
<path fill-rule="evenodd" clip-rule="evenodd" d="M169.622 56.3669C169.651 56.3531 169.662 56.317 169.646 56.2863C169.631 56.2556 169.595 56.2419 169.566 56.2558C169.537 56.2696 169.526 56.3056 169.542 56.3363C169.557 56.367 169.593 56.3807 169.622 56.3669ZM167.694 57.2181C167.132 56.1054 167.527 54.7974 168.576 54.2966C169.625 53.7958 170.931 54.2918 171.494 55.4045C172.056 56.5172 171.661 57.8253 170.612 58.3261C169.563 58.8269 168.257 58.3308 167.694 57.2181Z" fill="#989FB0"/>
<path d="M156.856 96.3784C157.366 96.1349 157.558 95.4989 157.284 94.9579C157.011 94.4169 156.376 94.1757 155.866 94.4192C155.356 94.6627 155.164 95.2987 155.437 95.8397C155.71 96.3807 156.346 96.6219 156.856 96.3784Z" fill="white"/>
<path fill-rule="evenodd" clip-rule="evenodd" d="M156.389 95.4543C156.418 95.4405 156.429 95.4044 156.413 95.3737C156.398 95.343 156.362 95.3294 156.333 95.3432C156.304 95.357 156.293 95.3931 156.308 95.4238C156.324 95.4545 156.36 95.4681 156.389 95.4543ZM154.461 96.3056C153.899 95.1928 154.294 93.8848 155.343 93.384C156.392 92.8831 157.698 93.3792 158.261 94.4919C158.823 95.6047 158.428 96.9127 157.379 97.4136C156.33 97.9144 155.023 97.4183 154.461 96.3056Z" fill="#989FB0"/>
<path d="M143.938 70.2567C144.449 70.0132 144.641 69.3772 144.367 68.8362C144.094 68.2952 143.459 68.054 142.949 68.2975C142.438 68.541 142.247 69.177 142.52 69.718C142.793 70.259 143.428 70.5002 143.938 70.2567Z" fill="white"/>
<path fill-rule="evenodd" clip-rule="evenodd" d="M143.472 69.3328C143.501 69.3189 143.512 69.2829 143.496 69.2522C143.481 69.2215 143.444 69.2078 143.416 69.2216C143.387 69.2354 143.376 69.2715 143.391 69.3022C143.407 69.3329 143.443 69.3466 143.472 69.3328ZM141.544 70.184C140.982 69.0712 141.376 67.7632 142.426 67.2624C143.475 66.7616 144.781 67.2576 145.343 68.3704C145.906 69.4831 145.511 70.7912 144.462 71.292C143.412 71.7928 142.106 71.2967 141.544 70.184Z" fill="#989FB0"/>
<path d="M182.975 83.5076C183.485 83.2641 183.677 82.6281 183.404 82.0871C183.13 81.546 182.495 81.3049 181.985 81.5484C181.475 81.7919 181.283 82.4278 181.556 82.9689C181.83 83.5099 182.465 83.7511 182.975 83.5076Z" fill="white"/>
<path fill-rule="evenodd" clip-rule="evenodd" d="M182.508 82.5835C182.537 82.5696 182.548 82.5336 182.532 82.5029C182.517 82.4722 182.481 82.4585 182.452 82.4723C182.423 82.4861 182.412 82.5222 182.428 82.5529C182.443 82.5836 182.479 82.5973 182.508 82.5835ZM180.58 83.4347C180.018 82.322 180.413 81.0139 181.462 80.5131C182.511 80.0123 183.817 80.5084 184.38 81.6211C184.942 82.7338 184.547 84.0418 183.498 84.5426C182.449 85.0434 181.143 84.5474 180.58 83.4347Z" fill="#989FB0"/>
<g filter="url(#filter2_d_3831_4442)">
<path d="M154.892 99.582C168.186 104.088 182.61 96.9503 187.11 83.6398C191.61 70.3292 184.481 55.8861 171.188 51.3801C157.895 46.8742 143.471 54.0118 138.971 67.3224C134.471 80.6329 141.599 95.0761 154.892 99.582Z" fill="url(#paint3_linear_3831_4442)"/>
</g>
<path d="M184.042 75.7187C184.042 87.8211 174.244 97.6308 162.159 97.6308C150.074 97.6308 140.277 87.8211 140.277 75.7187C140.277 63.6164 150.074 53.8066 162.159 53.8066C174.244 53.8066 184.042 63.6164 184.042 75.7187Z" stroke="#E4E0DA" stroke-opacity="0.3"/>
<path d="M177.327 75.7186C177.327 84.1076 170.536 90.9071 162.159 90.9071C153.783 90.9071 146.991 84.1076 146.991 75.7186C146.991 67.3296 153.783 60.5302 162.159 60.5302C170.536 60.5302 177.327 67.3296 177.327 75.7186Z" stroke="#E4E0DA" stroke-opacity="0.6"/>
<path d="M170.613 75.7189C170.613 80.3945 166.827 84.1837 162.16 84.1837C157.492 84.1837 153.707 80.3945 153.707 75.7189C153.707 71.0432 157.492 67.254 162.16 67.254C166.827 67.254 170.613 71.0432 170.613 75.7189Z" stroke="#E4E0DA" stroke-opacity="0.8"/>
<path d="M165.017 75.7187C165.017 77.2999 163.737 78.5806 162.159 78.5806C160.582 78.5806 159.302 77.2999 159.302 75.7187C159.302 74.1376 160.582 72.8569 162.159 72.8569C163.737 72.8569 165.017 74.1376 165.017 75.7187Z" stroke="#E4E0DA"/>
<path d="M162.16 98.1308C166.492 98.1308 170.731 96.8718 174.363 94.5065C177.995 92.1412 180.863 88.7713 182.62 84.8057L162.16 75.7187L162.16 98.1308Z" fill="url(#paint4_linear_3831_4442)"/>
<g filter="url(#filter3_d_3831_4442)">
<rect width="33.585" height="44.8095" rx="5" transform="matrix(0.86574 0.500493 -0.499507 0.86631 127.467 100.372)" fill="url(#paint5_linear_3831_4442)"/>
</g>
<path d="M141.531 117.561C140.433 119.466 138.001 120.118 136.099 119.019C134.197 117.919 133.545 115.484 134.644 113.579C135.742 111.674 138.174 111.022 140.076 112.121C141.978 113.221 142.63 115.656 141.531 117.561Z" stroke="#D7D6D5"/>
<ellipse cx="11.195" cy="11.2024" rx="11.195" ry="11.2024" transform="matrix(0.86574 0.500493 -0.499507 0.86631 123.359 118.701)" fill="#E4E0DA"/>
<ellipse cx="4.478" cy="4.48095" rx="4.478" ry="4.48095" transform="matrix(0.86574 0.500493 -0.499507 0.86631 125.817 127.886)" fill="url(#paint6_radial_3831_4442)"/>
<ellipse cx="1.1195" cy="1.12024" rx="1.1195" ry="1.12024" transform="matrix(0.86574 0.500493 -0.499507 0.86631 110.789 136.02)" fill="#E6E0D7"/>
<ellipse cx="1.1195" cy="1.12024" rx="1.1195" ry="1.12024" transform="matrix(0.86574 0.500493 -0.499507 0.86631 132.111 148.346)" fill="#E6E0D7"/>
<g filter="url(#filter4_d_3831_4442)">
<path d="M42.9544 81.5125C42.6953 81.0543 42.8547 80.4685 43.3101 80.2052L81.2667 58.2622C81.7221 57.9989 82.3021 58.1572 82.5612 58.6154L86.968 66.41C87.6445 67.5832 87.6513 69.1216 87.1471 70.5368L84.9205 75.8339C84.9205 75.8339 81.4327 78.8696 71.234 84.7656C61.0187 90.6711 56.2753 92.1737 56.2753 92.1737L50.8408 91.5258C49.46 91.4207 48.1329 90.6456 47.3612 89.3071L42.9544 81.5125Z" fill="url(#paint7_linear_3831_4442)"/>
</g>
<g filter="url(#filter5_d_3831_4442)">
<path fill-rule="evenodd" clip-rule="evenodd" d="M57.1804 92.8901C62.406 100.887 70.7163 104.872 80.3772 99.2866C90.0168 93.7139 90.0367 84.9238 85.746 76.5817C84.2299 77.743 80.147 80.6841 72.0604 85.359C63.8135 90.1266 58.9775 92.1902 57.1804 92.8901Z" fill="url(#paint8_linear_3831_4442)"/>
</g>
<mask id="mask0_3831_4442" style="mask-type:alpha" maskUnits="userSpaceOnUse" x="57" y="76" width="32" height="26">
<path fill-rule="evenodd" clip-rule="evenodd" d="M57.1807 92.8898C62.4063 100.887 70.7166 104.871 80.3774 99.2863C90.017 93.7135 90.037 84.9234 85.7463 76.5813C84.2302 77.7426 80.1473 80.6837 72.0607 85.3586C63.8137 90.1263 58.9777 92.1899 57.1807 92.8898Z" fill="url(#paint9_linear_3831_4442)"/>
</mask>
<g mask="url(#mask0_3831_4442)">
<path d="M82.3372 89.4924C82.7701 90.2433 86.4349 96.5616 86.4349 96.5616L74.8561 103.375C74.8561 103.375 71.7677 98.0183 70.7231 96.2066C68.9876 93.1966 70.1823 89.2551 73.39 87.4008C76.5976 85.5464 80.6017 86.4824 82.3372 89.4924Z" fill="url(#paint10_linear_3831_4442)"/>
</g>
<ellipse cx="4.478" cy="4.48095" rx="4.478" ry="4.48095" transform="matrix(0.86574 -0.500493 0.499507 0.86631 70.6396 91.5789)" fill="white"/>
<defs>
<filter id="filter0_d_3831_4442" x="78.8896" y="9.48328" width="58.3093" height="62.2778" filterUnits="userSpaceOnUse" color-interpolation-filters="sRGB">
<feFlood flood-opacity="0" result="BackgroundImageFix"/>
<feColorMatrix in="SourceAlpha" type="matrix" values="0 0 0 0 0 0 0 0 0 0 0 0 0 0 0 0 0 0 127 0" result="hardAlpha"/>
<feOffset dy="4"/>
<feGaussianBlur stdDeviation="6"/>
<feColorMatrix type="matrix" values="0 0 0 0 0.576471 0 0 0 0 0.501961 0 0 0 0 0.396078 0 0 0 0.37 0"/>
<feBlend mode="normal" in2="BackgroundImageFix" result="effect1_dropShadow_3831_4442"/>
<feBlend mode="normal" in="SourceGraphic" in2="effect1_dropShadow_3831_4442" result="shape"/>
</filter>
<filter id="filter1_d_3831_4442" x="89.7039" y="32.5203" width="59.2979" height="57.6053" filterUnits="userSpaceOnUse" color-interpolation-filters="sRGB">
<feFlood flood-opacity="0" result="BackgroundImageFix"/>
<feColorMatrix in="SourceAlpha" type="matrix" values="0 0 0 0 0 0 0 0 0 0 0 0 0 0 0 0 0 0 127 0" result="hardAlpha"/>
<feOffset dy="7"/>
<feGaussianBlur stdDeviation="11"/>
<feColorMatrix type="matrix" values="0 0 0 0 0.576471 0 0 0 0 0.501961 0 0 0 0 0.396078 0 0 0 0.37 0"/>
<feBlend mode="normal" in2="BackgroundImageFix" result="effect1_dropShadow_3831_4442"/>
<feBlend mode="normal" in="SourceGraphic" in2="effect1_dropShadow_3831_4442" result="shape"/>
</filter>
<filter id="filter2_d_3831_4442" x="115.623" y="35.0297" width="94.8357" height="94.9027" filterUnits="userSpaceOnUse" color-interpolation-filters="sRGB">
<feFlood flood-opacity="0" result="BackgroundImageFix"/>
<feColorMatrix in="SourceAlpha" type="matrix" values="0 0 0 0 0 0 0 0 0 0 0 0 0 0 0 0 0 0 127 0" result="hardAlpha"/>
<feOffset dy="7"/>
<feGaussianBlur stdDeviation="11"/>
<feColorMatrix type="matrix" values="0 0 0 0 0.576471 0 0 0 0 0.501961 0 0 0 0 0.396078 0 0 0 0.37 0"/>
<feBlend mode="normal" in2="BackgroundImageFix" result="effect1_dropShadow_3831_4442"/>
<feBlend mode="normal" in="SourceGraphic" in2="effect1_dropShadow_3831_4442" result="shape"/>
</filter>
<filter id="filter3_d_3831_4442" x="98.9119" y="95.2028" width="63.8027" height="67.9666" filterUnits="userSpaceOnUse" color-interpolation-filters="sRGB">
<feFlood flood-opacity="0" result="BackgroundImageFix"/>
<feColorMatrix in="SourceAlpha" type="matrix" values="0 0 0 0 0 0 0 0 0 0 0 0 0 0 0 0 0 0 127 0" result="hardAlpha"/>
<feOffset dy="1"/>
<feGaussianBlur stdDeviation="4"/>
<feColorMatrix type="matrix" values="0 0 0 0 0.576471 0 0 0 0 0.501961 0 0 0 0 0.396078 0 0 0 0.37 0"/>
<feBlend mode="normal" in2="BackgroundImageFix" result="effect1_dropShadow_3831_4442"/>
<feBlend mode="normal" in="SourceGraphic" in2="effect1_dropShadow_3831_4442" result="shape"/>
</filter>
<filter id="filter4_d_3831_4442" x="30.8301" y="51.1349" width="68.6731" height="58.0388" filterUnits="userSpaceOnUse" color-interpolation-filters="sRGB">
<feFlood flood-opacity="0" result="BackgroundImageFix"/>
<feColorMatrix in="SourceAlpha" type="matrix" values="0 0 0 0 0 0 0 0 0 0 0 0 0 0 0 0 0 0 127 0" result="hardAlpha"/>
<feOffset dy="5"/>
<feGaussianBlur stdDeviation="6"/>
<feColorMatrix type="matrix" values="0 0 0 0 0.576471 0 0 0 0 0.501961 0 0 0 0 0.396078 0 0 0 0.37 0"/>
<feBlend mode="normal" in2="BackgroundImageFix" result="effect1_dropShadow_3831_4442"/>
<feBlend mode="normal" in="SourceGraphic" in2="effect1_dropShadow_3831_4442" result="shape"/>
</filter>
<filter id="filter5_d_3831_4442" x="45.1804" y="69.5817" width="55.3057" height="49.309" filterUnits="userSpaceOnUse" color-interpolation-filters="sRGB">
<feFlood flood-opacity="0" result="BackgroundImageFix"/>
<feColorMatrix in="SourceAlpha" type="matrix" values="0 0 0 0 0 0 0 0 0 0 0 0 0 0 0 0 0 0 127 0" result="hardAlpha"/>
<feOffset dy="5"/>
<feGaussianBlur stdDeviation="6"/>
<feColorMatrix type="matrix" values="0 0 0 0 0.576471 0 0 0 0 0.501961 0 0 0 0 0.396078 0 0 0 0.37 0"/>
<feBlend mode="normal" in2="BackgroundImageFix" result="effect1_dropShadow_3831_4442"/>
<feBlend mode="normal" in="SourceGraphic" in2="effect1_dropShadow_3831_4442" result="shape"/>
</filter>
<linearGradient id="paint0_linear_3831_4442" x1="98.7476" y1="19.4105" x2="118.868" y2="51.488" gradientUnits="userSpaceOnUse">
<stop stop-color="#FDFEFF"/>
<stop offset="0.9964" stop-color="#F5F2EC"/>
</linearGradient>
<linearGradient id="paint1_linear_3831_4442" x1="118.521" y1="51.6732" x2="124.145" y2="60.6456" gradientUnits="userSpaceOnUse">
<stop stop-color="#FDFEFF"/>
<stop offset="0.9964" stop-color="#F5F2EC"/>
</linearGradient>
<radialGradient id="paint2_radial_3831_4442" cx="0" cy="0" r="1" gradientUnits="userSpaceOnUse" gradientTransform="translate(153.921 82.0918) rotate(90) scale(25.6444 25.6107)">
<stop stop-color="#938065" stop-opacity="0.57"/>
<stop offset="0.92" stop-color="#938065" stop-opacity="0"/>
</radialGradient>
<linearGradient id="paint3_linear_3831_4442" x1="171.55" y1="50.2599" x2="154.661" y2="100.083" gradientUnits="userSpaceOnUse">
<stop stop-color="#FDFEFF"/>
<stop offset="0.9964" stop-color="#F5F2EC"/>
</linearGradient>
<linearGradient id="paint4_linear_3831_4442" x1="177.268" y1="78.5203" x2="156.547" y2="92.5025" gradientUnits="userSpaceOnUse">
<stop stop-color="#F9F5EF" stop-opacity="0.53"/>
<stop offset="1" stop-color="#C9AF8B"/>
</linearGradient>
<linearGradient id="paint5_linear_3831_4442" x1="16.7816" y1="-1.03649" x2="16.7816" y2="45.2926" gradientUnits="userSpaceOnUse">
<stop stop-color="#FDFEFF"/>
<stop offset="0.9964" stop-color="#F5F2EC"/>
</linearGradient>
<radialGradient id="paint6_radial_3831_4442" cx="0" cy="0" r="1" gradientUnits="userSpaceOnUse" gradientTransform="translate(4.478 4.48095) rotate(90) scale(4.48095 4.478)">
<stop stop-color="#B9AEA1"/>
<stop offset="1" stop-color="#C6BDB2"/>
</radialGradient>
<linearGradient id="paint7_linear_3831_4442" x1="61.8238" y1="68.5496" x2="80.2756" y2="100.467" gradientUnits="userSpaceOnUse">
<stop stop-color="#FDFEFF"/>
<stop offset="0.9964" stop-color="#F5F2EC"/>
</linearGradient>
<linearGradient id="paint8_linear_3831_4442" x1="61.8609" y1="67.8513" x2="80.3126" y2="99.7685" gradientUnits="userSpaceOnUse">
<stop stop-color="#FDFEFF"/>
<stop offset="0.9964" stop-color="#F5F2EC"/>
</linearGradient>
<linearGradient id="paint9_linear_3831_4442" x1="61.8612" y1="67.851" x2="80.3128" y2="99.7682" gradientUnits="userSpaceOnUse">
<stop stop-color="#FDFEFF"/>
<stop offset="0.9964" stop-color="#F5F2EC"/>
</linearGradient>
<linearGradient id="paint10_linear_3831_4442" x1="72.1849" y1="85.5439" x2="77.8575" y2="94.8402" gradientUnits="userSpaceOnUse">
<stop stop-color="#E1DAD0"/>
<stop offset="1" stop-color="#CCC1B1"/>
</linearGradient>
</defs>
</svg>
