<svg xmlns="http://www.w3.org/2000/svg" width="160" height="160" fill="none" viewBox="0 0 160 160">
  <path fill="#242424" d="M79.885 150c33.074 0 59.886-26.913 59.886-60.112 0-33.2-26.812-60.112-59.885-60.112C46.811 29.776 20 56.689 20 89.888S46.812 150 79.885 150Z"/>
  <path fill="#5C5C5C" d="M41.12 134.512a1.645 1.645 0 0 1-1.613-1.444c-.09-.902.537-1.715 1.433-1.805l2.688-.271a1.62 1.62 0 0 1 1.792 1.444c.09.903-.538 1.715-1.434 1.805-.896.09-1.881.181-2.777.271h-.09Zm12.632-1.625c-.806 0-1.523-.541-1.613-1.353-.179-.903.448-1.715 1.344-1.895 1.792-.271 3.495-.632 5.287-.993.895-.181 1.702.361 1.881 1.263.18.903-.358 1.715-1.254 1.895-1.792.361-3.584.722-5.466.993-.09.09-.09.09-.179.09Zm40.767-2.797h-.09a60.876 60.876 0 0 1-5.645-.812c-.896-.181-1.433-1.083-1.254-1.986.18-.902 1.075-1.444 1.971-1.263 1.703.361 3.405.632 5.107.812.896.09 1.613.812 1.523 1.715 0 .902-.716 1.534-1.612 1.534Zm-25.804-.632c-.717 0-1.344-.451-1.523-1.173-.27-.902.179-1.805 1.075-2.076a47.745 47.745 0 0 0 5.017-1.895c.807-.361 1.792 0 2.15.903.359.812 0 1.805-.895 2.166-1.613.721-3.405 1.353-5.287 1.985-.268.09-.448.09-.537.09Zm35.659 0c-.716 0-1.433-.541-1.612-1.263-.18-.903.358-1.805 1.254-1.986 1.702-.361 3.315-.902 4.928-1.534.806-.361 1.792.091 2.15.903.359.812-.089 1.805-.896 2.165-1.792.722-3.584 1.264-5.465 1.715h-.359Zm-24.55-3.519a1.68 1.68 0 0 1-.716-.181c-1.702-.812-3.315-1.805-4.838-2.888-.717-.541-.896-1.534-.448-2.256.537-.722 1.523-.902 2.24-.451a45.415 45.415 0 0 0 4.48 2.707c.806.452 1.164 1.354.716 2.166-.179.632-.806.903-1.433.903Zm38.348-3.069c-.448 0-.985-.18-1.254-.631-.538-.722-.448-1.715.269-2.347 1.344-1.082 2.688-2.256 3.852-3.519.628-.632 1.613-.722 2.33-.09.627.631.717 1.624.09 2.346-1.255 1.354-2.688 2.707-4.211 3.88a1.714 1.714 0 0 1-1.076.361Zm-35.66-.09c-.537 0-.985-.271-1.343-.722-.538-.722-.359-1.805.358-2.256 1.434-1.083 2.778-2.166 3.942-3.339.628-.631 1.703-.631 2.33 0 .627.632.627 1.715 0 2.347-1.344 1.263-2.778 2.526-4.39 3.699a1.716 1.716 0 0 1-.896.271Zm-14.783-6.136c-.448 0-.896-.181-1.254-.542a55.224 55.224 0 0 1-3.494-4.512c-.538-.722-.27-1.805.447-2.256.717-.451 1.793-.271 2.24.451.986 1.444 2.061 2.798 3.226 4.152.627.631.537 1.714-.09 2.346-.268.18-.716.361-1.075.361Zm24.729-5.415c-.269 0-.448-.09-.717-.18a1.552 1.552 0 0 1-.717-2.166 39.177 39.177 0 0 0 1.882-4.873c.269-.903 1.165-1.354 2.06-1.083.897.271 1.345 1.173 1.076 2.076-.538 1.895-1.255 3.699-2.06 5.414a1.76 1.76 0 0 1-1.524.812Zm35.48-.18c-.268 0-.537-.09-.716-.181-.807-.451-1.076-1.444-.717-2.256.806-1.534 1.523-3.158 2.061-4.783.268-.812 1.254-1.263 2.06-.992.807.27 1.255 1.263.986 2.075-.627 1.805-1.434 3.61-2.24 5.234-.269.632-.806.903-1.434.903Zm-67.735-7.761c-.717 0-1.344-.451-1.523-1.173a31.752 31.752 0 0 1-1.075-5.685c-.09-.903.537-1.715 1.433-1.805a1.62 1.62 0 0 1 1.792 1.444c.18 1.714.538 3.429.986 5.053.269.903-.269 1.805-1.075 2.076-.27.09-.359.09-.538.09Zm72.126-6.949h-.18c-.895-.09-1.523-.902-1.433-1.805a51.25 51.25 0 0 0 .269-5.234 1.612 1.612 0 1 1 3.225 0c0 1.896-.089 3.79-.269 5.686-.089.722-.806 1.353-1.612 1.353Zm-36.466-.18c-.896 0-1.613-.632-1.613-1.534v-.271c0-1.715-.18-3.339-.448-4.873-.18-.902.358-1.715 1.254-1.895.896-.18 1.703.36 1.882 1.263.358 1.715.537 3.61.537 5.595 0 .903-.716 1.715-1.612 1.715Zm-35.391-8.032c-.18 0-.448-.09-.627-.18-.807-.361-1.165-1.354-.807-2.166.807-1.805 1.882-3.52 3.226-4.963.627-.632 1.612-.722 2.33-.09.627.631.716 1.624.089 2.346-1.165 1.263-2.06 2.617-2.688 4.151-.269.541-.896.902-1.523.902Zm30.552-6.136c-.448 0-.895-.18-1.164-.541a12.776 12.776 0 0 0-3.943-2.888 1.552 1.552 0 0 1-.716-2.166 1.53 1.53 0 0 1 2.15-.722 16.988 16.988 0 0 1 4.838 3.61 1.62 1.62 0 0 1-.09 2.346c-.268.27-.716.36-1.075.36Zm40.677-1.083c-.806 0-1.433-.541-1.612-1.354-.359-1.714-.717-3.519-1.255-5.143-.268-.903.269-1.805 1.076-2.076.896-.27 1.791.27 2.06 1.083.538 1.805.986 3.61 1.344 5.505.179.902-.448 1.714-1.344 1.895-.089.09-.179.09-.269.09Zm-60.03-2.707c-.716 0-1.344-.451-1.523-1.083-.269-.812.18-1.805.986-2.076 1.881-.631 3.763-1.083 5.734-1.263.896-.09 1.702.632 1.792 1.534.09.903-.627 1.715-1.523 1.805-1.703.18-3.315.451-4.928 1.083-.18-.09-.358 0-.538 0Zm55.192-11.912a1.594 1.594 0 0 1-1.433-.903 38.734 38.734 0 0 0-2.688-4.602c-.448-.812-.269-1.805.537-2.256.807-.451 1.792-.27 2.24.541.986 1.535 1.882 3.25 2.778 4.964.358.812.089 1.805-.717 2.166-.269.09-.538.09-.717.09Zm-8.96-12.814c-.448 0-.806-.18-1.164-.452-.628-.631-1.255-1.263-1.882-1.804-.717-.632-.717-1.625-.179-2.347.627-.722 1.613-.722 2.329-.18.717.632 1.434 1.263 2.061 1.985.627.632.627 1.715 0 2.346-.358.271-.806.452-1.165.452Z"/>
  <g filter="url(#a)">
    <path fill="url(#b)" d="M99.446 44.45c-5.376 4.061-7.257 7.04-18.278-4.24-2.15-2.167-1.612-5.506 5.555-6.408 6.272-.812 10.931 0 15.68 1.805l.089-.09c-2.419-6.317-2.867-12.815-.985-19.403.717-2.346 3.136-4.15 4.928-2.436 11.737 11.1 8.959 13.807 4.569 19.041a32.77 32.77 0 0 1 1.434-.902c2.688-1.625 8.243-2.166 8.959 5.595.09 1.263.09 2.617-.448 3.88-1.075 2.436-3.763 2.527-6.092 2.436-2.33-.09-4.122-.721-6.093-1.624.179.361.179.542.269.722 1.254 2.978 2.33 8.573-.09 10.83-1.343 1.172-3.225 1.172-4.927 1.082-1.434-.09-2.867-.361-4.122-1.083-1.881-1.083-2.598-2.978-2.33-5.053.359-1.895 1.255-3.069 1.882-4.152Z"/>
  </g>
  <defs>
    <linearGradient id="b" x1="100.75" x2="100.75" y1="13" y2="54.773" gradientUnits="userSpaceOnUse">
      <stop stop-color="#FAFAFA"/>
      <stop offset="1" stop-color="#F5F2EC"/>
    </linearGradient>
    <filter id="a" width="73.383" height="73.773" x="64.059" y="5" color-interpolation-filters="sRGB" filterUnits="userSpaceOnUse">
      <feFlood flood-opacity="0" result="BackgroundImageFix"/>
      <feColorMatrix in="SourceAlpha" result="hardAlpha" values="0 0 0 0 0 0 0 0 0 0 0 0 0 0 0 0 0 0 127 0"/>
      <feOffset dy="8"/>
      <feGaussianBlur stdDeviation="8"/>
      <feComposite in2="hardAlpha" operator="out"/>
      <feColorMatrix values="0 0 0 0 0.576471 0 0 0 0 0.501961 0 0 0 0 0.396078 0 0 0 0.37 0"/>
      <feBlend in2="BackgroundImageFix" result="effect1_dropShadow_877_5056"/>
      <feBlend in="SourceGraphic" in2="effect1_dropShadow_877_5056" result="shape"/>
    </filter>
  </defs>
</svg>
