<svg width="230" height="160" viewBox="0 0 230 160" fill="none" xmlns="http://www.w3.org/2000/svg">
<path d="M114.885 150C147.959 150 174.771 123.087 174.771 89.8878C174.771 56.6887 147.959 29.7756 114.885 29.7756C81.8116 29.7756 55 56.6887 55 89.8878C55 123.087 81.8116 150 114.885 150Z" fill="#242424"/>
<path d="M76.1192 134.512C75.3128 134.512 74.596 133.88 74.5064 133.068C74.4168 132.165 75.044 131.353 75.94 131.263C76.836 131.173 77.7319 131.082 78.6279 130.992C79.5239 130.902 80.3302 131.534 80.4198 132.436C80.5094 133.338 79.8823 134.151 78.9863 134.241C78.0903 134.331 77.1048 134.421 76.2088 134.512C76.2088 134.512 76.2088 134.512 76.1192 134.512Z" fill="#5C5C5C"/>
<path d="M88.7519 132.887C87.9455 132.887 87.2288 132.346 87.1392 131.534C86.96 130.631 87.5872 129.819 88.4831 129.639C90.2751 129.368 91.9774 129.007 93.7694 128.646C94.6653 128.465 95.4717 129.007 95.6509 129.909C95.8301 130.812 95.2925 131.624 94.3965 131.804C92.6046 132.165 90.8126 132.526 88.9311 132.797C88.8415 132.887 88.8415 132.887 88.7519 132.887ZM129.519 130.09H129.429C127.547 129.909 125.666 129.639 123.784 129.278C122.888 129.097 122.351 128.195 122.53 127.292C122.709 126.39 123.605 125.848 124.501 126.029C126.203 126.39 127.906 126.661 129.608 126.841C130.504 126.931 131.221 127.653 131.131 128.556C131.131 129.458 130.415 130.09 129.519 130.09ZM103.715 129.458C102.998 129.458 102.371 129.007 102.191 128.285C101.923 127.383 102.371 126.48 103.267 126.209C104.969 125.668 106.671 125.036 108.284 124.314C109.09 123.953 110.076 124.314 110.434 125.217C110.793 126.029 110.434 127.022 109.538 127.383C107.926 128.104 106.134 128.736 104.252 129.368C103.983 129.458 103.804 129.458 103.715 129.458ZM139.374 129.458C138.657 129.458 137.941 128.917 137.762 128.195C137.582 127.292 138.12 126.39 139.016 126.209C140.718 125.848 142.331 125.307 143.944 124.675C144.75 124.314 145.736 124.766 146.094 125.578C146.452 126.39 146.004 127.383 145.198 127.743C143.406 128.465 141.614 129.007 139.733 129.458C139.643 129.458 139.553 129.458 139.374 129.458ZM114.825 125.939C114.556 125.939 114.287 125.848 114.108 125.758C112.406 124.946 110.793 123.953 109.27 122.87C108.553 122.329 108.374 121.336 108.822 120.614C109.359 119.892 110.345 119.712 111.062 120.163C112.495 121.156 114.018 122.058 115.541 122.87C116.348 123.322 116.706 124.224 116.258 125.036C116.079 125.668 115.452 125.939 114.825 125.939ZM153.172 122.87C152.724 122.87 152.187 122.69 151.918 122.239C151.38 121.517 151.47 120.524 152.187 119.892C153.531 118.81 154.875 117.636 156.039 116.373C156.667 115.741 157.652 115.651 158.369 116.283C158.996 116.914 159.086 117.907 158.458 118.629C157.204 119.983 155.771 121.336 154.247 122.509C153.889 122.78 153.531 122.87 153.172 122.87ZM117.513 122.78C116.975 122.78 116.527 122.509 116.169 122.058C115.631 121.336 115.81 120.253 116.527 119.802C117.961 118.719 119.305 117.636 120.469 116.463C121.096 115.832 122.172 115.832 122.799 116.463C123.426 117.095 123.426 118.178 122.799 118.81C121.455 120.073 120.021 121.336 118.409 122.509C118.14 122.69 117.781 122.78 117.513 122.78ZM102.729 116.644C102.281 116.644 101.833 116.463 101.475 116.102C100.22 114.658 99.0556 113.124 97.9804 111.59C97.4428 110.868 97.7116 109.785 98.4284 109.334C99.1452 108.883 100.22 109.063 100.668 109.785C101.654 111.229 102.729 112.583 103.894 113.937C104.521 114.568 104.431 115.651 103.804 116.283C103.535 116.463 103.087 116.644 102.729 116.644ZM127.458 111.229C127.189 111.229 127.01 111.139 126.741 111.049C125.935 110.688 125.576 109.695 126.024 108.883C126.741 107.349 127.368 105.725 127.906 104.01C128.175 103.107 129.071 102.656 129.967 102.927C130.863 103.198 131.311 104.1 131.042 105.003C130.504 106.898 129.787 108.702 128.981 110.417C128.623 110.959 128.085 111.229 127.458 111.229ZM162.938 111.049C162.67 111.049 162.401 110.959 162.222 110.868C161.415 110.417 161.146 109.424 161.505 108.612C162.311 107.078 163.028 105.454 163.565 103.829C163.834 103.017 164.82 102.566 165.626 102.837C166.433 103.107 166.881 104.1 166.612 104.912C165.985 106.717 165.178 108.522 164.372 110.146C164.103 110.778 163.565 111.049 162.938 111.049ZM95.2029 103.288C94.4861 103.288 93.8589 102.837 93.6798 102.115C93.1422 100.22 92.7838 98.3247 92.6046 96.4296C92.515 95.5272 93.1422 94.715 94.0381 94.6248C94.9341 94.5345 95.7405 95.1662 95.8301 96.0686C96.0093 97.7832 96.3677 99.4978 96.8157 101.122C97.0844 102.025 96.5469 102.927 95.7405 103.198C95.4717 103.288 95.3821 103.288 95.2029 103.288ZM167.329 96.3394C167.239 96.3394 167.239 96.3394 167.149 96.3394C166.253 96.2491 165.626 95.437 165.716 94.5345C165.895 92.8199 165.985 91.0151 165.985 89.3005C165.985 88.3981 166.701 87.6762 167.597 87.6762C168.493 87.6762 169.21 88.3981 169.21 89.3005C169.21 91.1956 169.12 93.0907 168.941 94.9857C168.852 95.7077 168.135 96.3394 167.329 96.3394ZM130.863 96.1589C129.967 96.1589 129.25 95.5272 129.25 94.6248V94.354C129.25 92.6395 129.071 91.0151 128.802 89.481C128.623 88.5786 129.16 87.7664 130.056 87.5859C130.952 87.4054 131.759 87.9469 131.938 88.8493C132.296 90.5639 132.475 92.459 132.475 94.4443C132.475 95.3467 131.759 96.1589 130.863 96.1589ZM95.4717 88.1274C95.2925 88.1274 95.0237 88.0371 94.8445 87.9469C94.0381 87.5859 93.6798 86.5933 94.0381 85.7811C94.8445 83.9763 95.9197 82.2617 97.2636 80.8178C97.8908 80.1861 98.8764 80.0959 99.5932 80.7276C100.22 81.3592 100.31 82.3519 99.6828 83.0738C98.518 84.3372 97.622 85.6908 96.9948 87.225C96.7261 87.7664 96.0989 88.1274 95.4717 88.1274ZM126.024 81.9909C125.576 81.9909 125.128 81.8105 124.86 81.4495C123.784 80.2763 122.44 79.2837 120.917 78.5618C120.111 78.2008 119.753 77.2081 120.2 76.396C120.559 75.5838 121.544 75.2228 122.351 75.674C124.143 76.5764 125.756 77.7496 127.189 79.2837C127.816 79.9154 127.816 80.9983 127.099 81.63C126.831 81.9007 126.383 81.9909 126.024 81.9909ZM166.701 80.908C165.895 80.908 165.268 80.3666 165.089 79.5544C164.73 77.8398 164.372 76.035 163.834 74.4106C163.565 73.5082 164.103 72.6058 164.909 72.3351C165.805 72.0644 166.701 72.6058 166.97 73.418C167.508 75.2228 167.956 77.0276 168.314 78.9227C168.493 79.8251 167.866 80.6373 166.97 80.8178C166.881 80.908 166.791 80.908 166.701 80.908ZM106.671 78.2008C105.955 78.2008 105.327 77.7496 105.148 77.1179C104.879 76.3057 105.327 75.3131 106.134 75.0423C108.015 74.4106 109.897 73.9594 111.868 73.7789C112.764 73.6887 113.57 74.4106 113.66 75.3131C113.75 76.2155 113.033 77.0276 112.137 77.1179C110.434 77.2984 108.822 77.5691 107.209 78.2008C107.03 78.1105 106.851 78.2008 106.671 78.2008ZM161.863 66.2889C161.236 66.2889 160.698 65.9279 160.43 65.3865C159.623 63.7621 158.727 62.228 157.742 60.7841C157.294 59.972 157.473 58.9793 158.279 58.5281C159.086 58.0769 160.071 58.2574 160.519 59.0695C161.505 60.6037 162.401 62.3182 163.297 64.0328C163.655 64.845 163.386 65.8377 162.58 66.1986C162.311 66.2889 162.042 66.2889 161.863 66.2889Z" fill="#5C5C5C"/>
<path d="M152.903 53.4746C152.455 53.4746 152.097 53.2941 151.738 53.0234C151.111 52.3917 150.484 51.76 149.857 51.2186C149.14 50.5869 149.14 49.5942 149.678 48.8723C150.305 48.1504 151.29 48.1503 152.007 48.6918C152.724 49.3235 153.441 49.9552 154.068 50.6771C154.695 51.3088 154.695 52.3917 154.068 53.0234C153.71 53.2941 153.262 53.4746 152.903 53.4746Z" fill="#5C5C5C"/>
<g filter="url(#filter0_d_877_5056)">
<path d="M134.446 44.4504C129.07 48.5113 127.189 51.4893 116.168 40.2091C114.018 38.0433 114.555 34.7043 121.723 33.8019C127.995 32.9897 132.654 33.8019 137.403 35.6067C137.403 35.6067 137.403 35.6067 137.492 35.5165C135.073 29.1996 134.625 22.7022 136.507 16.1145C137.223 13.7682 139.643 11.9634 141.435 13.678C153.172 24.7777 150.394 27.485 146.004 32.719C146.542 32.358 146.99 32.0873 147.438 31.8166C150.125 30.1922 155.68 29.6508 156.397 37.4116C156.487 38.675 156.487 40.0286 155.949 41.292C154.874 43.7285 152.186 43.8187 149.857 43.7285C147.527 43.6382 145.735 43.0066 143.764 42.1041C143.943 42.4651 143.943 42.6456 144.033 42.8261C145.287 45.804 146.362 51.399 143.943 53.6551C142.599 54.8282 140.718 54.8282 139.015 54.738C137.582 54.6477 136.148 54.377 134.894 53.6551C133.012 52.5722 132.296 50.6771 132.564 48.6015C132.923 46.7065 133.819 45.5333 134.446 44.4504Z" fill="url(#paint0_linear_877_5056)"/>
</g>
<defs>
<filter id="filter0_d_877_5056" x="99.0586" y="5" width="73.3831" height="73.7729" filterUnits="userSpaceOnUse" color-interpolation-filters="sRGB">
<feFlood flood-opacity="0" result="BackgroundImageFix"/>
<feColorMatrix in="SourceAlpha" type="matrix" values="0 0 0 0 0 0 0 0 0 0 0 0 0 0 0 0 0 0 127 0" result="hardAlpha"/>
<feOffset dy="8"/>
<feGaussianBlur stdDeviation="8"/>
<feComposite in2="hardAlpha" operator="out"/>
<feColorMatrix type="matrix" values="0 0 0 0 0.576471 0 0 0 0 0.501961 0 0 0 0 0.396078 0 0 0 0.37 0"/>
<feBlend mode="normal" in2="BackgroundImageFix" result="effect1_dropShadow_877_5056"/>
<feBlend mode="normal" in="SourceGraphic" in2="effect1_dropShadow_877_5056" result="shape"/>
</filter>
<linearGradient id="paint0_linear_877_5056" x1="135.75" y1="13" x2="135.75" y2="54.7729" gradientUnits="userSpaceOnUse">
<stop stop-color="#FAFAFA"/>
<stop offset="1" stop-color="#F5F2EC"/>
</linearGradient>
</defs>
</svg>
