<svg width="230" height="160" viewBox="0 0 230 160" fill="none" xmlns="http://www.w3.org/2000/svg">
<path d="M114.885 150C147.959 150 174.771 123.087 174.771 89.8879C174.771 56.6888 147.959 29.7756 114.885 29.7756C81.8116 29.7756 55 56.6888 55 89.8879C55 123.087 81.8116 150 114.885 150Z" fill="#EBEBEB"/>
<path d="M76.1193 134.512C75.3129 134.512 74.5962 133.88 74.5066 133.068C74.417 132.165 75.0441 131.353 75.9401 131.263C76.8361 131.173 77.7321 131.082 78.628 130.992C79.524 130.902 80.3304 131.534 80.42 132.436C80.5096 133.338 79.8824 134.151 78.9864 134.241C78.0904 134.331 77.1049 134.421 76.2089 134.512C76.2089 134.512 76.2089 134.512 76.1193 134.512Z" fill="#C3C4C8"/>
<path d="M88.752 132.887C87.9457 132.887 87.2289 132.346 87.1393 131.534C86.9601 130.631 87.5873 129.819 88.4832 129.639C90.2752 129.368 91.9775 129.007 93.7695 128.646C94.6654 128.465 95.4718 129.007 95.651 129.909C95.8302 130.812 95.2926 131.624 94.3967 131.804C92.6047 132.165 90.8128 132.526 88.9312 132.797C88.8416 132.887 88.8416 132.887 88.752 132.887ZM129.519 130.09H129.429C127.548 129.909 125.666 129.638 123.784 129.278C122.889 129.097 122.351 128.195 122.53 127.292C122.709 126.39 123.605 125.848 124.501 126.029C126.204 126.39 127.906 126.661 129.608 126.841C130.504 126.931 131.221 127.653 131.131 128.556C131.131 129.458 130.415 130.09 129.519 130.09ZM103.715 129.458C102.998 129.458 102.371 129.007 102.192 128.285C101.923 127.382 102.371 126.48 103.267 126.209C104.969 125.668 106.671 125.036 108.284 124.314C109.091 123.953 110.076 124.314 110.435 125.217C110.793 126.029 110.435 127.021 109.539 127.382C107.926 128.104 106.134 128.736 104.252 129.368C103.984 129.458 103.804 129.458 103.715 129.458ZM139.374 129.458C138.658 129.458 137.941 128.917 137.762 128.195C137.582 127.292 138.12 126.39 139.016 126.209C140.718 125.848 142.331 125.307 143.944 124.675C144.75 124.314 145.736 124.765 146.094 125.578C146.453 126.39 146.005 127.382 145.198 127.743C143.406 128.465 141.614 129.007 139.733 129.458C139.643 129.458 139.554 129.458 139.374 129.458ZM114.825 125.939C114.556 125.939 114.287 125.848 114.108 125.758C112.406 124.946 110.793 123.953 109.27 122.87C108.553 122.329 108.374 121.336 108.822 120.614C109.359 119.892 110.345 119.712 111.062 120.163C112.495 121.156 114.018 122.058 115.542 122.87C116.348 123.322 116.706 124.224 116.258 125.036C116.079 125.668 115.452 125.939 114.825 125.939ZM153.172 122.87C152.724 122.87 152.187 122.69 151.918 122.239C151.38 121.517 151.47 120.524 152.187 119.892C153.531 118.809 154.875 117.636 156.039 116.373C156.667 115.741 157.652 115.651 158.369 116.283C158.996 116.914 159.086 117.907 158.459 118.629C157.204 119.983 155.771 121.336 154.248 122.509C153.889 122.78 153.531 122.87 153.172 122.87ZM117.513 122.78C116.975 122.78 116.527 122.509 116.169 122.058C115.631 121.336 115.81 120.253 116.527 119.802C117.961 118.719 119.305 117.636 120.469 116.463C121.097 115.832 122.172 115.832 122.799 116.463C123.426 117.095 123.426 118.178 122.799 118.809C121.455 120.073 120.021 121.336 118.409 122.509C118.14 122.69 117.781 122.78 117.513 122.78ZM102.729 116.644C102.281 116.644 101.833 116.463 101.475 116.102C100.22 114.658 99.0557 113.124 97.9805 111.59C97.443 110.868 97.7117 109.785 98.4285 109.334C99.1453 108.883 100.22 109.063 100.668 109.785C101.654 111.229 102.729 112.583 103.894 113.936C104.521 114.568 104.432 115.651 103.804 116.283C103.536 116.463 103.088 116.644 102.729 116.644ZM127.458 111.229C127.189 111.229 127.01 111.139 126.741 111.049C125.935 110.688 125.576 109.695 126.024 108.883C126.741 107.349 127.368 105.724 127.906 104.01C128.175 103.107 129.071 102.656 129.967 102.927C130.863 103.198 131.311 104.1 131.042 105.003C130.504 106.898 129.787 108.702 128.981 110.417C128.623 110.958 128.085 111.229 127.458 111.229ZM162.938 111.049C162.67 111.049 162.401 110.958 162.222 110.868C161.415 110.417 161.146 109.424 161.505 108.612C162.311 107.078 163.028 105.454 163.566 103.829C163.834 103.017 164.82 102.566 165.626 102.837C166.433 103.107 166.881 104.1 166.612 104.912C165.985 106.717 165.178 108.522 164.372 110.146C164.103 110.778 163.566 111.049 162.938 111.049ZM95.203 103.288C94.4863 103.288 93.8591 102.837 93.6799 102.115C93.1423 100.22 92.7839 98.3246 92.6047 96.4296C92.5151 95.5271 93.1423 94.715 94.0383 94.6247C94.9342 94.5345 95.7406 95.1662 95.8302 96.0686C96.0094 97.7832 96.3678 99.4978 96.8158 101.122C97.0846 102.025 96.547 102.927 95.7406 103.198C95.4718 103.288 95.3822 103.288 95.203 103.288ZM167.329 96.3393C167.239 96.3393 167.239 96.3393 167.149 96.3393C166.254 96.2491 165.626 95.4369 165.716 94.5345C165.895 92.8199 165.985 91.015 165.985 89.3005C165.985 88.398 166.701 87.6761 167.597 87.6761C168.493 87.6761 169.21 88.398 169.21 89.3005C169.21 91.1955 169.121 93.0906 168.941 94.9857C168.852 95.7076 168.135 96.3393 167.329 96.3393ZM130.863 96.1588C129.967 96.1588 129.25 95.5271 129.25 94.6247V94.354C129.25 92.6394 129.071 91.015 128.802 89.4809C128.623 88.5785 129.16 87.7663 130.056 87.5859C130.952 87.4054 131.759 87.9468 131.938 88.8492C132.296 90.5638 132.475 92.4589 132.475 94.4442C132.475 95.3466 131.759 96.1588 130.863 96.1588ZM95.4718 88.1273C95.2926 88.1273 95.0238 88.0371 94.8446 87.9468C94.0383 87.5859 93.6799 86.5932 94.0383 85.781C94.8446 83.9762 95.9198 82.2616 97.2638 80.8177C97.8909 80.186 98.8765 80.0958 99.5933 80.7275C100.22 81.3592 100.31 82.3518 99.6829 83.0738C98.5181 84.3372 97.6221 85.6908 96.995 87.2249C96.7262 87.7663 96.099 88.1273 95.4718 88.1273ZM126.024 81.9909C125.576 81.9909 125.128 81.8104 124.86 81.4494C123.784 80.2763 122.441 79.2836 120.917 78.5617C120.111 78.2007 119.753 77.2081 120.201 76.3959C120.559 75.5837 121.545 75.2227 122.351 75.674C124.143 76.5764 125.756 77.7495 127.189 79.2836C127.816 79.9153 127.816 80.9982 127.1 81.6299C126.831 81.9006 126.383 81.9909 126.024 81.9909ZM166.701 80.908C165.895 80.908 165.268 80.3665 165.089 79.5544C164.73 77.8398 164.372 76.0349 163.834 74.4106C163.566 73.5082 164.103 72.6057 164.91 72.335C165.806 72.0643 166.701 72.6057 166.97 73.4179C167.508 75.2227 167.956 77.0276 168.314 78.9227C168.493 79.8251 167.866 80.6372 166.97 80.8177C166.881 80.908 166.791 80.908 166.701 80.908ZM106.671 78.2007C105.955 78.2007 105.327 77.7495 105.148 77.1178C104.88 76.3056 105.327 75.313 106.134 75.0423C108.015 74.4106 109.897 73.9594 111.868 73.7789C112.764 73.6886 113.57 74.4106 113.66 75.313C113.75 76.2154 113.033 77.0276 112.137 77.1178C110.435 77.2983 108.822 77.569 107.209 78.2007C107.03 78.1105 106.851 78.2007 106.671 78.2007ZM161.863 66.2888C161.236 66.2888 160.698 65.9279 160.43 65.3864C159.623 63.7621 158.727 62.2279 157.742 60.7841C157.294 59.9719 157.473 58.9792 158.279 58.528C159.086 58.0768 160.071 58.2573 160.519 59.0695C161.505 60.6036 162.401 62.3182 163.297 64.0328C163.655 64.845 163.386 65.8376 162.58 66.1986C162.311 66.2888 162.042 66.2888 161.863 66.2888Z" fill="#C3C4C8"/>
<path d="M152.903 53.4746C152.455 53.4746 152.097 53.2941 151.739 53.0234C151.111 52.3917 150.484 51.76 149.857 51.2186C149.14 50.5869 149.14 49.5942 149.678 48.8723C150.305 48.1504 151.291 48.1503 152.007 48.6918C152.724 49.3235 153.441 49.9552 154.068 50.6771C154.695 51.3088 154.695 52.3917 154.068 53.0234C153.71 53.2941 153.262 53.4746 152.903 53.4746Z" fill="#C3C4C8"/>
<g filter="url(#filter0_dd_877_5054)">
<path d="M134.446 44.4504C129.07 48.5113 127.189 51.4893 116.168 40.2091C114.018 38.0433 114.556 34.7043 121.723 33.8019C127.995 32.9897 132.654 33.8019 137.403 35.6067C137.403 35.6067 137.403 35.6067 137.492 35.5165C135.073 29.1996 134.625 22.7022 136.507 16.1145C137.224 13.7682 139.643 11.9634 141.435 13.678C153.172 24.7777 150.394 27.485 146.004 32.719C146.542 32.358 146.99 32.0873 147.438 31.8166C150.126 30.1922 155.681 29.6508 156.397 37.4116C156.487 38.675 156.487 40.0286 155.949 41.292C154.874 43.7285 152.186 43.8187 149.857 43.7285C147.527 43.6382 145.735 43.0066 143.764 42.1041C143.943 42.4651 143.943 42.6456 144.033 42.8261C145.287 45.804 146.362 51.399 143.943 53.6551C142.599 54.8282 140.718 54.8282 139.016 54.738C137.582 54.6477 136.148 54.377 134.894 53.6551C133.013 52.5722 132.296 50.6771 132.565 48.6015C132.923 46.7065 133.819 45.5333 134.446 44.4504Z" fill="#FDFEFF"/>
</g>
<defs>
<filter id="filter0_dd_877_5054" x="99.0587" y="1" width="73.3831" height="73.7729" filterUnits="userSpaceOnUse" color-interpolation-filters="sRGB">
<feFlood flood-opacity="0" result="BackgroundImageFix"/>
<feColorMatrix in="SourceAlpha" type="matrix" values="0 0 0 0 0 0 0 0 0 0 0 0 0 0 0 0 0 0 127 0" result="hardAlpha"/>
<feOffset dy="4"/>
<feGaussianBlur stdDeviation="8"/>
<feColorMatrix type="matrix" values="0 0 0 0 0.576471 0 0 0 0 0.501961 0 0 0 0 0.396078 0 0 0 0.24 0"/>
<feBlend mode="normal" in2="BackgroundImageFix" result="effect1_dropShadow_877_5054"/>
<feColorMatrix in="SourceAlpha" type="matrix" values="0 0 0 0 0 0 0 0 0 0 0 0 0 0 0 0 0 0 127 0" result="hardAlpha"/>
<feOffset dy="2"/>
<feGaussianBlur stdDeviation="2"/>
<feComposite in2="hardAlpha" operator="out"/>
<feColorMatrix type="matrix" values="0 0 0 0 0 0 0 0 0 0 0 0 0 0 0 0 0 0 0.08 0"/>
<feBlend mode="normal" in2="effect1_dropShadow_877_5054" result="effect2_dropShadow_877_5054"/>
<feBlend mode="normal" in="SourceGraphic" in2="effect2_dropShadow_877_5054" result="shape"/>
</filter>
</defs>
</svg>
