<svg width="20" height="20" viewBox="0 0 20 20" fill="none" xmlns="http://www.w3.org/2000/svg">
<path d="M11.2949 2.5C11.2949 2.22386 11.5188 2 11.7949 2H17.3999C17.7312 2 17.9999 2.26863 17.9999 2.6V7.84766C17.9999 8.1238 17.776 8.34766 17.4999 8.34766C17.2237 8.34766 16.9999 8.1238 16.9999 7.84766L16.9999 3.70732L7.8616 12.8454C7.66633 13.0406 7.34975 13.0406 7.15449 12.8454C6.95923 12.6501 6.95924 12.3335 7.1545 12.1383L16.293 3L11.7949 3C11.5188 3 11.2949 2.77614 11.2949 2.5ZM3 11.5C3 8.46239 5.46243 5.99995 8.5 5.99995C9.23961 5.99995 9.94512 6.14594 10.5893 6.41067L11.3456 5.65431C10.4862 5.23516 9.52056 4.99995 8.5 4.99995C4.91015 4.99995 2 7.9101 2 11.5C2 15.0898 4.91015 18 8.5 18C12.0899 18 15 15.0898 15 11.5C15 10.4794 14.7648 9.51376 14.3456 8.65431L13.5893 9.41067C13.854 10.0548 14 10.7603 14 11.5C14 14.5375 11.5376 17 8.5 17C5.46243 17 3 14.5375 3 11.5Z" fill="#212121"/>
</svg>
