<svg width="20" height="20" viewBox="0 0 20 20" fill="none" xmlns="http://www.w3.org/2000/svg">
<path d="M11.5 12.5C10.3954 12.5 9.5 11.6046 9.5 10.5C9.5 9.39542 10.3954 8.5 11.5 8.5C12.6046 8.5 13.5 9.39542 13.5 10.5C13.5 11.6046 12.6046 12.5 11.5 12.5ZM7.5 10.5C7.5 12.7091 9.29086 14.5 11.5 14.5C13.7091 14.5 15.5 12.7091 15.5 10.5C15.5 8.29086 13.7091 6.5 11.5 6.5C9.29086 6.5 7.5 8.29086 7.5 10.5ZM11.5 13.5C9.84314 13.5 8.5 12.1569 8.5 10.5C8.5 8.84314 9.84314 7.5 11.5 7.5C13.1569 7.5 14.5 8.84314 14.5 10.5C14.5 12.1569 13.1569 13.5 11.5 13.5ZM4 18.5C3.17157 18.5 2.5 17.8284 2.5 17L2.5 4C2.5 3.17157 3.17157 2.5 4 2.5L5 2.5C5.65311 2.5 6.20874 2.91739 6.41464 3.5L10.5 3.5C14.366 3.5 17.5 6.634 17.5 10.5C17.5 14.366 14.366 17.5 10.5 17.5L6.41464 17.5C6.20874 18.0826 5.65311 18.5 5 18.5L4 18.5ZM6.5 16.5L10.5 16.5C13.8137 16.5 16.5 13.8137 16.5 10.5C16.5 7.18628 13.8137 4.5 10.5 4.5L6.5 4.5L6.5 16.5ZM3.5 17C3.5 17.2761 3.72386 17.5 4 17.5L5 17.5C5.27614 17.5 5.5 17.2761 5.5 17L5.5 4C5.5 3.72386 5.27614 3.5 5 3.5L4 3.5C3.72386 3.5 3.5 3.72386 3.5 4L3.5 17Z" fill="#242424"/>
</svg>
