<svg width="24" height="24" viewBox="0 0 24 24" fill="none" xmlns="http://www.w3.org/2000/svg">
<path d="M16 12C16 10.6193 14.8807 9.5 13.5 9.5C12.1193 9.5 11 10.6193 11 12C11 13.3807 12.1193 14.5 13.5 14.5C14.8807 14.5 16 13.3807 16 12ZM8 12C8 15.0376 10.4624 17.5 13.5 17.5C16.5376 17.5 19 15.0376 19 12C19 8.96243 16.5376 6.5 13.5 6.5C10.4624 6.5 8 8.96243 8 12ZM13.5 16C11.2909 16 9.5 14.2091 9.5 12C9.5 9.79086 11.2909 8 13.5 8C15.7091 8 17.5 9.79086 17.5 12C17.5 14.2091 15.7091 16 13.5 16ZM3.75 22C2.78351 22 2 21.2165 2 20.25L2 3.75C2 2.78351 2.78351 2 3.75 2L5.25 2C5.94809 2 6.55075 2.40875 6.8316 3L13 3C17.9706 3 22 7.02945 22 12C22 16.9706 17.9706 21 13 21L6.8316 21C6.55075 21.5912 5.94809 22 5.25 22L3.75 22ZM7 19.5L13 19.5C17.1422 19.5 20.5 16.1422 20.5 12C20.5 7.85785 17.1422 4.5 13 4.5L7 4.5L7 19.5ZM3.5 20.25C3.5 20.3881 3.61193 20.5 3.75 20.5L5.25 20.5C5.38807 20.5 5.5 20.3881 5.5 20.25L5.5 3.75C5.5 3.61193 5.38807 3.5 5.25 3.5L3.75 3.5C3.61193 3.5 3.5 3.61193 3.5 3.75L3.5 20.25Z" fill="#242424"/>
</svg>
