<svg width="24" height="24" viewBox="0 0 24 24" fill="none" xmlns="http://www.w3.org/2000/svg">
<path d="M2 7.50004C2 5.56704 3.567 4.00004 5.5 4.00004H7.36364C7.91592 4.00004 8.36364 4.44776 8.36364 5.00004C8.36364 5.55233 7.91592 6.00004 7.36364 6.00004H5.5C4.67157 6.00004 4 6.67161 4 7.50004V9.36368C4 9.91596 3.55228 10.3637 3 10.3637C2.44772 10.3637 2 9.91596 2 9.36368V7.50004ZM15.6372 5C15.6372 4.44772 16.085 4 16.6372 4H18.5009C20.4339 4 22.0009 5.567 22.0009 7.5V9.36364C22.0009 9.91592 21.5532 10.3636 21.0009 10.3636C20.4486 10.3636 20.0009 9.91592 20.0009 9.36364V7.5C20.0009 6.67157 19.3293 6 18.5009 6H16.6372C16.085 6 15.6372 5.55228 15.6372 5ZM3 13.6364C3.55228 13.6364 4 14.0841 4 14.6364V16.5C4 17.3285 4.67157 18 5.5 18H7.36364C7.91592 18 8.36364 18.4478 8.36364 19C8.36364 19.5523 7.91592 20 7.36364 20H5.5C3.567 20 2 18.433 2 16.5V14.6364C2 14.0841 2.44772 13.6364 3 13.6364ZM21.0009 13.6364C21.5532 13.6364 22.0009 14.0841 22.0009 14.6364V16.5C22.0009 18.433 20.4339 20 18.5009 20H16.6372C16.085 20 15.6372 19.5523 15.6372 19C15.6372 18.4478 16.085 18 16.6372 18H18.5009C19.3293 18 20.0009 17.3285 20.0009 16.5V14.6364C20.0009 14.0841 20.4486 13.6364 21.0009 13.6364ZM13.0009 8.6C13.0009 7.99249 13.4934 7.5 14.1009 7.5H17.5009C18.0532 7.5 18.5009 7.94772 18.5009 8.5C18.5009 9.05228 18.0532 9.5 17.5009 9.5H15.0009V11.5H16.5009C17.0532 11.5 17.5009 11.9477 17.5009 12.5C17.5009 13.0523 17.0532 13.5 16.5009 13.5H15.0009V15.5C15.0009 16.0523 14.5532 16.5 14.0009 16.5C13.4486 16.5 13.0009 16.0523 13.0009 15.5V12.5V8.6ZM8.80845 12.5583H8.07503L8.44174 11.5315L8.80845 12.5583ZM9.52274 14.5583L10 15.8946C10.1858 16.4147 10.758 16.6858 11.2781 16.5C11.7982 16.3143 12.0692 15.7421 11.8835 15.222L9.38443 8.2246C9.06805 7.33876 7.81538 7.33891 7.49906 8.2246L5 15.222C4.81425 15.7421 5.0853 16.3143 5.60541 16.5C6.12552 16.6858 6.69773 16.4147 6.88348 15.8946L7.36075 14.5583H9.52274Z" fill="#212121"/>
</svg>
