<svg width="20" height="20" viewBox="0 0 20 20" fill="none" xmlns="http://www.w3.org/2000/svg">
<path d="M5.25 3.50002C3.45507 3.50002 2 4.9551 2 6.75002V7.75C2 8.16421 2.33579 8.5 2.75 8.5C3.16421 8.5 3.5 8.16421 3.5 7.75V6.75002C3.5 5.78352 4.2835 5.00002 5.25 5.00002L6.25 5C6.66421 5 7 4.66421 7 4.25C7 3.83579 6.66421 3.5 6.25 3.5L5.25 3.50002ZM13.75 3.5C13.3358 3.5 13 3.83579 13 4.25C13 4.66421 13.3358 5 13.75 5L14.75 5.00002C15.7165 5.00002 16.5 5.78352 16.5 6.75002V7.75C16.5 8.16421 16.8358 8.5 17.25 8.5C17.6642 8.5 18 8.16421 18 7.75V6.75002C18 4.9551 16.5449 3.50002 14.75 3.50002L13.75 3.5ZM3.5 12.25C3.5 11.8358 3.16421 11.5 2.75 11.5C2.33579 11.5 2 11.8358 2 12.25V13.25C2 15.0449 3.45508 16.5 5.25 16.5L6.25 16.5C6.66421 16.5 7 16.1642 7 15.75C7 15.3358 6.66421 15 6.25 15L5.25 15C4.2835 15 3.5 14.2165 3.5 13.25L3.5 12.25ZM18 12.25C18 11.8358 17.6642 11.5 17.25 11.5C16.8358 11.5 16.5 11.8358 16.5 12.25V13.25C16.5 14.2165 15.7165 15 14.75 15L13.75 15C13.3358 15 13 15.3358 13 15.75C13 16.1642 13.3358 16.5 13.75 16.5L14.75 16.5C16.5449 16.5 18 15.0449 18 13.25V12.25ZM11 7.35C11 6.88056 11.3806 6.5 11.85 6.5H14.2528C14.667 6.5 15.0028 6.83579 15.0028 7.25C15.0028 7.66421 14.667 8 14.2528 8H12.5V9.5H13.7495C14.1637 9.5 14.4995 9.83579 14.4995 10.25C14.4995 10.6642 14.1637 11 13.7495 11H12.5V12.735C12.5 13.1492 12.1642 13.485 11.75 13.485C11.3358 13.485 11 13.1492 11 12.735V10.25V7.35ZM7.74704 10.5H7.25672L7.5014 9.72798L7.74704 10.5ZM8.22431 12L8.53531 12.9774C8.6609 13.3721 9.08269 13.5903 9.4774 13.4647C9.87212 13.3391 10.0903 12.9173 9.96469 12.5226L8.21565 7.0256C7.99348 6.32736 7.00541 6.32812 6.7841 7.02641L5.04189 12.5234C4.91674 12.9183 5.13538 13.3398 5.53024 13.465C5.9251 13.5901 6.34664 13.3715 6.47179 12.9766L6.78131 12H8.22431Z" fill="#242424"/>
</svg>
