<svg width="24" height="24" viewBox="0 0 24 24" fill="none" xmlns="http://www.w3.org/2000/svg">
<path d="M11.44 3.5598C12.394 3.44872 13.4926 3.528 14.5298 3.75679C15.5716 3.98658 16.4975 4.35521 17.1252 4.78255C17.7944 5.2381 17.9184 5.60475 17.8956 5.79943C17.8665 6.04769 17.8016 6.17901 17.7478 6.2525C17.6949 6.32475 17.6166 6.39036 17.4811 6.45041C17.1791 6.58431 16.7732 6.62657 16.1704 6.68935L16.0364 6.70334C15.4299 6.76702 14.658 6.8593 13.9677 7.21881C13.567 7.42747 13.2097 7.71637 12.9168 8.10555C12.6224 8.03652 12.3155 8 12 8C11.158 8 10.3768 8.26014 9.73236 8.70444C9.71633 8.68128 9.70028 8.65779 9.68423 8.63395C9.21568 7.93808 8.78506 7.00903 8.78512 5.96563C8.78515 5.36404 8.87426 4.89014 9.35814 4.38449C9.75412 3.97068 10.4661 3.67319 11.44 3.5598ZM14.3314 8.74932C14.4239 8.67212 14.521 8.61019 14.6207 8.55828C15.024 8.34823 15.5264 8.27098 16.1512 8.20539C16.2086 8.19936 16.2681 8.19341 16.3292 8.1873C16.8578 8.13442 17.5119 8.06899 18.0476 7.83152C18.373 7.68731 18.6889 7.46878 18.9356 7.13204C19.1814 6.79654 19.3216 6.39401 19.3749 5.93861C19.5002 4.87021 18.7601 4.05447 17.978 3.52204C17.1545 2.96139 16.0419 2.53645 14.8829 2.2808C13.7194 2.02415 12.4549 1.92612 11.3085 2.05959C10.1821 2.19075 9.05628 2.55966 8.30204 3.34785C7.43782 4.25096 7.29535 5.18122 7.29531 6.00522C7.29522 7.46177 7.8899 8.68049 8.44669 9.5074C8.51691 9.6117 8.58711 9.71063 8.65622 9.80393C8.30357 10.3398 8.07628 10.9655 8.01605 11.6393C7.65014 11.3933 7.3414 11.0069 6.9851 10.5164C6.67499 10.0851 6.18661 9.40625 5.71306 9.06101C5.42549 8.85136 5.07826 8.68702 4.66329 8.64178C4.24986 8.5967 3.83118 8.67659 3.41011 8.85808C2.42225 9.28386 2.08585 10.3326 2.01583 11.2762C1.9421 12.2697 2.1304 13.4457 2.48853 14.5772C2.84807 15.7132 3.39543 16.8572 4.08426 17.7833C4.7611 18.6932 5.6435 19.4837 6.70322 19.7428C7.91746 20.0396 8.79431 19.6978 9.50792 19.2859C10.7694 18.5576 11.5274 17.4332 11.9651 16.5376C12.0581 16.3473 12.138 16.1647 12.2061 15.9948C12.7357 15.9679 13.2382 15.838 13.6938 15.6247C13.6999 15.6972 13.7007 15.7684 13.6977 15.8386C13.6779 16.2929 13.4936 16.7666 13.2381 17.3405C13.2146 17.3933 13.19 17.4477 13.1647 17.5037C12.9462 17.988 12.6759 18.5871 12.6137 19.1698C12.5759 19.5237 12.6072 19.9066 12.7755 20.2886C12.9432 20.6692 13.2217 20.9918 13.5894 21.2657C14.4521 21.9083 15.5286 21.6753 16.3807 21.2642C17.278 20.8312 18.2022 20.0802 19.0031 19.2043C19.8071 18.3249 20.5242 17.2788 20.9818 16.2193C21.4314 15.1781 21.6748 14.0187 21.3693 12.9715C21.0192 11.7715 20.2848 11.183 19.5712 10.771C18.3098 10.0426 16.957 9.94834 15.9625 10.0171C15.8001 10.0283 15.6454 10.044 15.5003 10.0625C15.212 9.5429 14.8115 9.09425 14.3314 8.74932ZM15.9733 11.5356C16.0149 11.5319 16.0573 11.5285 16.1002 11.5256C16.9372 11.4677 17.9571 11.5593 18.8606 12.081C19.3816 12.3818 19.7475 12.6959 19.9435 13.3678C20.1039 13.9176 20.0055 14.683 19.6168 15.5831C19.236 16.4648 18.6181 17.3766 17.9014 18.1605C17.1815 18.9478 16.3994 19.5654 15.7154 19.8954C14.9863 20.2471 14.6068 20.1712 14.4496 20.0541C14.2491 19.9048 14.1678 19.783 14.1311 19.6996C14.095 19.6177 14.0773 19.5171 14.093 19.3697C14.1281 19.0412 14.2944 18.6685 14.5415 18.1151L14.5963 17.992C14.8444 17.4349 15.1504 16.7204 15.1842 15.9427C15.2026 15.5195 15.1408 15.094 14.9758 14.673C15.6126 13.9645 16 13.0275 16 12C16 11.8429 15.9909 11.6879 15.9733 11.5356ZM10.6539 15.7678C10.6334 15.8122 10.6121 15.8571 10.5899 15.9026C10.2216 16.6563 9.63232 17.4938 8.72869 18.0155C8.2077 18.3162 7.75273 18.476 7.07288 18.3098C6.51652 18.1738 5.90288 17.706 5.31769 16.9193C4.74448 16.1486 4.26382 15.1576 3.94332 14.145C3.62141 13.1279 3.47767 12.1417 3.53387 11.3844C3.59378 10.5771 3.84928 10.2864 4.02929 10.2088C4.25883 10.1099 4.40498 10.1004 4.49555 10.1102C4.58458 10.1199 4.68053 10.1549 4.80028 10.2422C5.06728 10.4369 5.38596 10.8763 5.74175 11.3669C6.10015 11.8603 6.56601 12.4826 7.22256 12.9007C7.52453 13.093 7.85651 13.2365 8.22193 13.3172C8.6193 14.4571 9.51798 15.362 10.6539 15.7678ZM14.5 12C14.5 13.3807 13.3807 14.5 12 14.5C10.6193 14.5 9.5 13.3807 9.5 12C9.5 10.6193 10.6193 9.5 12 9.5C13.3807 9.5 14.5 10.6193 14.5 12Z" fill="#242424"/>
</svg>
