<svg width="24" height="24" viewBox="0 0 24 24" fill="none" xmlns="http://www.w3.org/2000/svg">
<path d="M11.9651 16.5376C12.0581 16.3473 12.138 16.1647 12.2061 15.9948C12.7357 15.9679 13.2382 15.838 13.6938 15.6247C13.6999 15.6972 13.7007 15.7684 13.6977 15.8386C13.6779 16.2929 13.4936 16.7666 13.2381 17.3405C13.2146 17.3933 13.19 17.4477 13.1647 17.5037C12.9462 17.988 12.6759 18.5871 12.6137 19.1698C12.5759 19.5237 12.6072 19.9066 12.7755 20.2886C12.9432 20.6692 13.2217 20.9918 13.5894 21.2657C14.4521 21.9083 15.5286 21.6753 16.3807 21.2642C17.278 20.8312 18.2022 20.0802 19.0031 19.2043C19.8071 18.3249 20.5242 17.2788 20.9818 16.2193C21.4314 15.1781 21.6748 14.0187 21.3693 12.9715C21.0192 11.7715 20.2848 11.183 19.5712 10.771C18.3098 10.0426 16.957 9.94834 15.9625 10.0171C15.8001 10.0283 15.6454 10.044 15.5003 10.0625C15.212 9.5429 14.8115 9.09425 14.3314 8.74932C14.4239 8.67212 14.521 8.61019 14.6207 8.55828C15.024 8.34823 15.5264 8.27098 16.1512 8.20539C16.2086 8.19936 16.2681 8.19341 16.3292 8.1873C16.8578 8.13442 17.5119 8.06899 18.0476 7.83152C18.373 7.68731 18.6889 7.46878 18.9356 7.13204C19.1814 6.79654 19.3216 6.39401 19.3749 5.93861C19.5002 4.87021 18.7601 4.05447 17.978 3.52204C17.1545 2.96139 16.0419 2.53645 14.8829 2.2808C13.7194 2.02415 12.4549 1.92612 11.3085 2.05959C10.1821 2.19075 9.05628 2.55966 8.30204 3.34785C7.43782 4.25096 7.29535 5.18122 7.29531 6.00522C7.29522 7.46177 7.8899 8.68049 8.44669 9.5074C8.51691 9.6117 8.58711 9.71063 8.65622 9.80393C8.30357 10.3398 8.07628 10.9655 8.01605 11.6393C7.65014 11.3933 7.3414 11.0069 6.9851 10.5164C6.67499 10.0851 6.18661 9.40625 5.71306 9.06101C5.42549 8.85136 5.07826 8.68702 4.66329 8.64178C4.24986 8.5967 3.83118 8.67659 3.41011 8.85808C2.42225 9.28386 2.08585 10.3326 2.01583 11.2762C1.9421 12.2697 2.1304 13.4457 2.48853 14.5772C2.84807 15.7132 3.39543 16.8572 4.08426 17.7833C4.7611 18.6932 5.6435 19.4837 6.70322 19.7428C7.91746 20.0396 8.79431 19.6978 9.50792 19.2859C10.7694 18.5576 11.5274 17.4332 11.9651 16.5376ZM14.5 12C14.5 13.3807 13.3807 14.5 12 14.5C10.6193 14.5 9.5 13.3807 9.5 12C9.5 10.6193 10.6193 9.5 12 9.5C13.3807 9.5 14.5 10.6193 14.5 12Z" fill="#242424"/>
</svg>
