<svg width="24" height="24" viewBox="0 0 24 24" fill="none" xmlns="http://www.w3.org/2000/svg">
<path d="M3.5 12C3.5 7.30558 7.30558 3.5 12 3.5C16.6944 3.5 20.5 7.30558 20.5 12C20.5 16.6944 16.6944 20.5 12 20.5C7.30558 20.5 3.5 16.6944 3.5 12ZM12 2C6.47715 2 2 6.47715 2 12C2 17.5228 6.47715 22 12 22C17.5228 22 22 17.5228 22 12C22 6.47715 17.5228 2 12 2ZM16.5709 8.11269C16.3022 7.79741 15.8289 7.75961 15.5136 8.02826C15.1983 8.2969 15.1605 8.77027 15.4291 9.08555C16.857 10.7612 16.857 13.2386 15.4291 14.9143C15.1605 15.2296 15.1983 15.7029 15.5136 15.9716C15.8289 16.2402 16.3022 16.2024 16.5709 15.8871C18.4764 13.6508 18.4764 10.349 16.5709 8.11269ZM8.57087 9.08555C8.83951 8.77027 8.80171 8.2969 8.48643 8.02826C8.17115 7.75961 7.69778 7.79741 7.42913 8.11269C5.52362 10.349 5.52362 13.6509 7.42913 15.8871C7.69778 16.2024 8.17115 16.2402 8.48643 15.9716C8.80171 15.7029 8.83951 15.2296 8.57087 14.9143C7.14304 13.2386 7.14304 10.7612 8.57087 9.08555Z" fill="#212121"/>
</svg>
