<svg width="230" height="160" viewBox="0 0 230 160" fill="none" xmlns="http://www.w3.org/2000/svg">
<g filter="url(#filter0_dd_7647_1454)">
<path d="M72.553 55.2479C73.6839 53.5292 73.6649 53.5626 75.6722 54.0724C82.43 55.7443 89.2258 57.3494 96.0788 58.5428C98.891 59.0351 101.201 60.2566 102.981 62.526C103.156 62.7623 103.39 63.011 103.914 62.984C104.448 61.2269 104.071 59.4026 104.001 57.5808C103.978 57.0773 103.488 56.8122 103.136 56.5385C98.7828 53.0048 94.4867 49.3708 89.8088 46.2921C87.2676 44.6229 84.4109 43.548 81.6064 42.459C78.3001 41.1647 78.2358 41.55 79.9933 38.1061C81.2907 35.5499 82.7276 33.098 83.6606 30.328C84.3657 28.2703 85.8043 26.5541 87.4913 25.1394C88.1737 24.5601 88.8513 24.0671 89.7621 24.7574C90.5666 25.363 90.6937 26.15 90.4301 27.0418C90.3445 27.3478 90.259 27.6539 90.1073 27.9211C88.6369 30.6652 89.2997 33.3473 90.2964 36.025C90.5379 35.9886 90.7415 36.0189 90.8316 35.9382C92.3172 34.6057 92.2912 34.6127 93.7746 35.7725C99.0244 39.9438 104.478 43.8339 109.932 47.724C110.689 48.2573 111.389 48.8908 112.153 49.4505C113.41 50.388 114.05 51.6321 114.401 53.1519C115.694 58.4967 116.686 63.8655 117.15 69.3475C117.175 69.6521 117.208 69.9831 117.234 70.2876C117.299 71.2611 117.773 71.6723 118.77 71.4335C121.924 70.7016 125.104 69.9626 127.951 68.2936C129.958 67.1331 131.95 65.9197 133.963 64.7856C135.032 64.1879 135.729 63.35 136.21 62.23C137.574 59.0896 139.13 56.0394 140.395 52.8408C141.802 49.2358 144.355 46.57 147.032 43.9554C148.587 42.463 150.215 41.0358 151.835 39.5822C153.032 38.5254 153.313 36.8645 154.304 35.6647C154.744 35.1218 154.873 34.3513 155.501 33.9849C156.128 33.6185 156.375 33.1843 156.099 32.4655C155.884 31.8719 156.098 31.1067 156.642 31.159C157.613 31.2387 158.468 30.16 159.434 30.949C160.399 31.738 160.935 32.6985 160.57 34.0424C160.185 35.4196 159.767 36.7774 158.653 37.7271C155.744 40.2055 154.102 43.5617 152.269 46.8277C151.283 48.5644 150.396 50.3594 149.43 52.1753C153.355 52.6526 156.46 54.3407 158.176 57.9299C159.884 61.4928 158.711 65.0349 155.385 67.002C154.324 67.6261 153.218 68.2906 152.01 68.4726C150.078 68.7639 149.454 70.2901 148.624 71.6734C148.351 72.1145 148.446 72.5706 148.599 73.0392C148.746 73.4813 148.873 73.9568 149.064 74.3586C150.655 77.8965 151.326 81.6523 151.633 85.5058C151.792 87.5584 152.55 89.4506 154.002 91.0151C156.077 93.2341 158.023 95.6007 160.405 97.5106C161.51 98.4038 162.521 98.8409 163.991 98.3902C165.514 97.9255 167.162 97.8237 168.76 97.537C168.61 98.8515 168.61 98.8514 166.992 100.106C167.924 100.876 169.093 101.072 170.073 101.602C171.867 102.566 172.31 104.117 171.198 105.803C170.964 106.177 170.516 106.382 170.369 106.874C170.172 107.494 169.765 107.433 169.282 107.194C168.607 106.865 168.199 106.069 167.32 106.021C167.002 106.814 167.603 107.389 167.695 108.044C167.747 108.342 167.865 108.678 167.554 108.874C167.121 109.132 166.768 108.859 166.591 108.51C165.246 105.784 162.726 104.505 160.201 103.313C158.668 102.591 157.02 102.07 155.43 101.449C154.777 101.199 154.161 100.882 153.52 100.573C149.528 98.698 146.305 96.0504 144.55 91.7923C144.007 90.4938 143.288 89.2707 142.596 88.0405C141.712 86.4087 141.572 86.3045 139.86 86.7916C134.181 88.3132 128.592 90.0656 123.145 92.3464C121.866 92.8873 120.587 93.4282 119.315 93.9955C118.296 94.4666 117.356 94.6052 116.775 93.3735C116.357 92.438 115.58 92.5611 114.813 92.5119C111.423 92.2593 108.263 91.4071 105.782 88.8158C104.651 87.6181 103.76 86.2714 103.191 84.6684C101.417 79.509 98.3745 75.0296 95.63 70.4135C94.8238 69.0722 93.7802 68.6157 92.1583 68.7105C89.0448 68.8652 86.0746 67.6791 83.1112 66.8309C79.3904 65.7609 75.5864 65.1097 71.7633 64.4918C70.1276 64.2223 68.4083 64.6829 66.7083 64.7986C64.6484 64.9259 64.542 64.8411 64.2764 62.7038C64.2294 62.32 64.1161 61.8973 64.1874 61.5384C64.8126 58.766 63.9652 56.02 64.0269 53.2287C64.0785 51.2329 64.4661 49.3452 65.0904 47.5074C65.3492 46.7019 65.8422 46.1451 66.8151 46.3374C67.7548 46.5103 68.5168 46.9573 68.459 47.9921C68.2452 51.3622 70.6443 53.1261 72.553 55.2479Z" fill="url(#paint0_linear_7647_1454)" fill-opacity="0.95" shape-rendering="crispEdges"/>
<path d="M159.434 30.949C160.399 31.738 160.935 32.6985 160.57 34.0424C160.185 35.4196 159.767 36.7774 158.653 37.7271C155.744 40.2055 154.102 43.5617 152.269 46.8277C151.283 48.5644 150.396 50.3594 149.43 52.1753C153.233 52.6377 156.266 54.2363 158.011 57.599L158.176 57.9299C159.884 61.4928 158.711 65.0349 155.385 67.002C154.324 67.6261 153.218 68.2906 152.01 68.4726L151.833 68.5032C150.039 68.8589 149.428 70.3334 148.624 71.6734C148.386 72.0594 148.428 72.457 148.545 72.8642L148.599 73.0392C148.746 73.4813 148.873 73.9568 149.064 74.3586C150.655 77.8965 151.326 81.6523 151.633 85.5058C151.782 87.4302 152.458 89.2136 153.738 90.7182L154.002 91.0151C156.077 93.2341 158.023 95.6007 160.405 97.5106C161.441 98.3479 162.394 98.7849 163.721 98.4648L163.991 98.3902C165.514 97.9255 167.162 97.8237 168.76 97.537C168.61 98.8515 168.61 98.8514 166.992 100.106C167.866 100.828 168.948 101.045 169.887 101.507L170.073 101.602C171.867 102.566 172.31 104.117 171.198 105.803C170.964 106.177 170.516 106.382 170.369 106.874C170.172 107.494 169.765 107.433 169.282 107.194C168.607 106.865 168.199 106.069 167.32 106.021C167.002 106.814 167.603 107.389 167.695 108.044C167.747 108.342 167.865 108.678 167.554 108.874C167.121 109.132 166.768 108.859 166.591 108.51C165.246 105.784 162.726 104.505 160.201 103.313C158.668 102.591 157.02 102.07 155.43 101.449C154.777 101.199 154.161 100.882 153.52 100.573C149.528 98.698 146.305 96.0504 144.55 91.7923C144.007 90.4938 143.288 89.2707 142.596 88.0405C141.712 86.4087 141.572 86.3045 139.86 86.7916C134.181 88.3132 128.592 90.0656 123.145 92.3464C121.866 92.8873 120.587 93.4282 119.315 93.9955C118.296 94.4666 117.356 94.6052 116.775 93.3735C116.357 92.438 115.58 92.5611 114.813 92.5119L114.18 92.4572C111.031 92.146 108.108 91.245 105.782 88.8158L105.369 88.3598C104.434 87.2778 103.689 86.0709 103.191 84.6684L103.021 84.1868C101.227 79.229 98.2887 74.8853 95.63 70.4135C94.8238 69.0722 93.7802 68.6157 92.1583 68.7105L91.8674 68.7213C88.8596 68.7917 85.9822 67.6526 83.1112 66.8309L82.4126 66.6354C78.9149 65.68 75.3473 65.071 71.7633 64.4918L71.4559 64.4494C69.913 64.2783 68.302 64.6901 66.7083 64.7986C64.9057 64.91 64.5994 64.859 64.3729 63.4123L64.2764 62.7038C64.2352 62.3678 64.1437 62.0021 64.1693 61.6754L64.1874 61.5384C64.7735 58.9392 64.0655 56.3631 64.0256 53.7512L64.0269 53.2287C64.0785 51.2329 64.4661 49.3452 65.0904 47.5074C65.3492 46.7019 65.8422 46.1451 66.8151 46.3374C67.7548 46.5103 68.5168 46.9573 68.459 47.9921C68.2452 51.3622 70.6443 53.1261 72.553 55.2479C73.6839 53.5292 73.6649 53.5626 75.6722 54.0724C82.43 55.7443 89.2258 57.3494 96.0788 58.5428C98.891 59.0351 101.201 60.2566 102.981 62.526C103.156 62.7623 103.39 63.011 103.914 62.984C104.448 61.2269 104.071 59.4026 104.001 57.5808C103.978 57.0773 103.488 56.8122 103.136 56.5385L99.875 53.8794C96.6111 51.2222 93.3171 48.6011 89.8088 46.2921L89.3293 45.9863C86.9111 44.4887 84.2358 43.48 81.6064 42.459L80.516 42.0422C78.3124 41.2017 78.4554 41.1197 79.9933 38.1061C81.2096 35.7096 82.5489 33.4048 83.4803 30.8436L83.6606 30.328C84.3657 28.2703 85.8043 26.5541 87.4913 25.1394C88.1737 24.5601 88.8513 24.0671 89.7621 24.7574C90.5666 25.363 90.6937 26.15 90.4301 27.0418C90.3445 27.3478 90.259 27.6539 90.1073 27.9211C88.6369 30.6652 89.2997 33.3473 90.2964 36.025C90.5078 35.9932 90.6903 36.0122 90.7928 35.9633L90.8316 35.9382C92.3172 34.6057 92.2912 34.6127 93.7746 35.7725C99.0244 39.9438 104.478 43.8339 109.932 47.724C110.689 48.2573 111.389 48.8908 112.153 49.4505C113.41 50.388 114.05 51.6321 114.401 53.1519C115.694 58.4967 116.686 63.8655 117.15 69.3475C117.175 69.6521 117.208 69.9831 117.234 70.2876C117.295 71.2004 117.715 71.6184 118.589 71.4702L118.77 71.4335C121.726 70.7473 124.706 70.0551 127.413 68.5961L127.951 68.2936C129.958 67.1331 131.95 65.9197 133.963 64.7856C134.965 64.2253 135.641 63.4541 136.118 62.4371L136.21 62.23C137.574 59.0896 139.13 56.0394 140.395 52.8408C141.802 49.2358 144.355 46.57 147.032 43.9554C147.81 43.2093 148.605 42.4792 149.409 41.7543L151.835 39.5822C153.032 38.5254 153.313 36.8645 154.304 35.6647C154.717 35.1559 154.856 34.4473 155.389 34.0587L155.501 33.9849C156.128 33.6185 156.375 33.1843 156.099 32.4655L156.064 32.3522C155.912 31.7794 156.132 31.1104 156.642 31.159C157.582 31.2362 158.415 30.2266 159.343 30.8809L159.434 30.949ZM160.089 33.9073C160.244 33.3335 160.201 32.8723 160.038 32.4781C159.871 32.0735 159.561 31.6984 159.118 31.3357C158.955 31.2032 158.822 31.1654 158.703 31.1596C158.569 31.1531 158.413 31.1862 158.206 31.2594C158.104 31.2957 158 31.3378 157.882 31.3847C157.768 31.43 157.641 31.479 157.511 31.5227C157.251 31.6096 156.942 31.6845 156.602 31.6568C156.593 31.6673 156.574 31.6922 156.555 31.7422C156.517 31.8475 156.504 31.9964 156.53 32.1463L156.569 32.2956C156.734 32.73 156.77 33.1573 156.597 33.5558C156.431 33.9417 156.106 34.2107 155.753 34.4171C155.562 34.5283 155.427 34.7094 155.272 34.9968C155.152 35.2188 154.996 35.5601 154.785 35.8561L154.692 35.9801L154.689 35.983C154.241 36.526 153.953 37.1724 153.596 37.8977C153.251 38.5972 152.846 39.3555 152.169 39.9542L149.744 42.1255C148.944 42.847 148.154 43.572 147.382 44.3133L146.389 45.2953C144.102 47.5923 142.055 49.965 140.861 53.0224L140.86 53.0248C139.595 56.2237 138.013 59.3351 136.669 62.4278L136.569 62.6508C136.053 63.7506 135.31 64.6047 134.209 65.2213C132.196 66.3552 130.226 67.5552 128.204 68.725L127.652 69.0356C124.874 70.533 121.828 71.2368 118.882 71.9203C118.32 72.0543 117.77 72.0389 117.346 71.7102C116.93 71.3878 116.774 70.8691 116.737 70.3297C116.724 70.1798 116.708 70.0231 116.694 69.864C116.679 69.7056 116.665 69.5444 116.652 69.39C116.191 63.9402 115.204 58.5972 113.915 53.2696L113.914 53.2649C113.581 51.8236 112.989 50.6987 111.854 49.8517L111.855 49.8505C111.462 49.5629 111.087 49.2575 110.726 48.966C110.36 48.6705 110.007 48.3888 109.643 48.1328L109.641 48.1315C104.19 44.2434 98.7282 40.3453 93.4676 36.1656L93.4669 36.1668C93.0854 35.8685 92.8343 35.6712 92.6333 35.546C92.4369 35.4237 92.3616 35.418 92.3315 35.4196C92.2962 35.4215 92.21 35.4394 92.0051 35.5899C91.8002 35.7404 91.5456 35.9695 91.1658 36.3102C91.0617 36.4035 90.9471 36.4446 90.8676 36.4649C90.7889 36.485 90.7123 36.4925 90.6587 36.4966C90.5258 36.5068 90.4682 36.5045 90.3706 36.5192L89.9694 36.5802L89.8279 36.1996C88.8245 33.5039 88.086 30.6341 89.6664 27.6846L89.6727 27.6739C89.7887 27.4695 89.8598 27.225 89.9485 26.9074L89.9505 26.8998C90.0657 26.5101 90.0826 26.187 90.0129 25.9176C89.9455 25.6571 89.7853 25.4013 89.4614 25.1574L89.46 25.1558C89.117 24.896 88.8827 24.8923 88.6833 24.9514C88.4932 25.0078 88.2964 25.1329 88.0625 25.3169L87.8148 25.5208L87.8122 25.5225C86.166 26.9031 84.7991 28.549 84.1338 30.4905C83.1855 33.3052 81.7181 35.8118 80.4389 38.3322C79.9921 39.2077 79.6815 39.8031 79.5027 40.2452C79.3162 40.7062 79.3419 40.8481 79.361 40.8938C79.3828 40.9453 79.4716 41.0605 79.9175 41.2613C80.3467 41.4546 80.935 41.659 81.7889 41.9933C84.5796 43.0768 87.49 44.1704 90.0838 45.8741C94.7852 48.9683 99.1044 52.6212 103.443 56.1434C103.566 56.2392 103.846 56.4273 104.039 56.6135C104.257 56.8241 104.481 57.129 104.501 57.5573L104.501 57.5614C104.518 58.0045 104.554 58.4501 104.591 58.9063C104.627 59.3589 104.665 59.8231 104.684 60.2867C104.721 61.215 104.682 62.1745 104.392 63.13L104.29 63.4657L103.94 63.4837C103.589 63.5018 103.297 63.4267 103.058 63.2813C102.833 63.1454 102.688 62.966 102.589 62.8337L102.588 62.8349C100.894 60.6762 98.7012 59.5098 95.9923 59.0356C89.1214 57.839 82.3116 56.2304 75.552 54.5581L75.5487 54.557C75.035 54.4265 74.6875 54.3364 74.4174 54.2929C74.1521 54.2503 74.0316 54.2664 73.9566 54.294C73.8841 54.3209 73.7859 54.3834 73.6218 54.5839C73.4535 54.7897 73.2591 55.0842 72.9706 55.5228L72.6151 56.0639L72.1818 55.5825C71.7098 55.0578 71.218 54.5671 70.7153 54.0373C70.221 53.5163 69.7306 52.9718 69.3047 52.3801C68.444 51.1844 67.8437 49.7889 67.9597 47.9604C67.9793 47.5925 67.8608 47.3743 67.6819 47.218C67.4782 47.0402 67.1542 46.9085 66.7245 46.8295L66.7181 46.8282C66.3487 46.7551 66.1363 46.8308 65.9926 46.9427C65.8691 47.0388 65.7555 47.1934 65.6582 47.4155L65.5662 47.6605L65.5642 47.6681C64.9534 49.4661 64.5771 51.3039 64.527 53.2417C64.4971 54.5994 64.6878 55.9306 64.8169 57.3456C64.9435 58.735 65.0057 60.1748 64.6784 61.636L64.6677 61.7167C64.6611 61.804 64.6666 61.9123 64.684 62.0491C64.6953 62.138 64.7095 62.2291 64.7259 62.33C64.7417 62.4272 64.7597 62.5344 64.7728 62.641C64.84 63.1816 64.8929 63.556 64.9628 63.8255C65.0325 64.094 65.1015 64.1833 65.1457 64.2213C65.1872 64.2568 65.2768 64.3074 65.535 64.3273C65.6664 64.3374 65.8215 64.3382 66.0087 64.3328L66.6771 64.2993C67.515 64.2421 68.3175 64.1049 69.2035 64.0045C70.0631 63.9072 70.9568 63.8519 71.8434 63.9978C75.6659 64.6156 79.4965 65.2715 83.2492 66.3505L84.3784 66.6859C86.9966 67.4842 89.504 68.3418 92.1331 68.2113C92.9923 68.1615 93.75 68.254 94.4157 68.5723C95.0882 68.894 95.6174 69.4226 96.0583 70.1562L96.0598 70.1578C98.7822 74.7366 101.867 79.2803 103.662 84.5012L103.767 84.7844C104.311 86.189 105.123 87.389 106.146 88.4723C108.503 90.933 111.516 91.7644 114.846 92.013L115.117 92.0253C115.21 92.0284 115.311 92.0311 115.411 92.0364C115.61 92.0471 115.833 92.0679 116.055 92.1277C116.535 92.257 116.954 92.5567 117.227 93.1605C117.464 93.6626 117.721 93.7963 117.95 93.8282C118.234 93.8677 118.612 93.77 119.105 93.5418L119.112 93.539C120.389 92.9695 121.672 92.4262 122.95 91.8857L122.952 91.8852C128.427 89.5929 134.039 87.8336 139.731 86.3085C140.153 86.1886 140.515 86.0945 140.824 86.0561C141.143 86.0165 141.454 86.0299 141.751 86.1696C142.043 86.3069 142.258 86.5365 142.445 86.7997C142.629 87.0599 142.817 87.3992 143.036 87.8019C143.72 89.017 144.455 90.2699 145.012 91.5996L145.012 91.6015C146.706 95.7097 149.814 98.2798 153.733 100.12L153.738 100.123C154.395 100.44 154.981 100.741 155.609 100.981L155.612 100.983C157.158 101.588 158.863 102.131 160.414 102.861C162.925 104.047 165.606 105.386 167.037 108.283C167.095 108.396 167.16 108.453 167.195 108.47C167.208 108.476 167.214 108.476 167.219 108.476C167.223 108.476 167.235 108.473 167.258 108.463C167.257 108.439 167.255 108.405 167.246 108.358C167.241 108.326 167.234 108.294 167.226 108.255C167.218 108.217 167.21 108.173 167.202 108.129L167.201 108.122L167.2 108.113C167.185 108.01 167.149 107.897 167.09 107.751C167.042 107.633 166.946 107.422 166.885 107.26C166.743 106.882 166.631 106.398 166.856 105.835L166.99 105.502L167.348 105.521C167.949 105.554 168.375 105.849 168.697 106.117C168.778 106.184 168.855 106.253 168.926 106.316C169 106.38 169.067 106.438 169.134 106.494C169.268 106.605 169.385 106.688 169.501 106.745L169.504 106.745C169.61 106.798 169.693 106.831 169.759 106.849C169.793 106.858 169.816 106.859 169.831 106.86C169.843 106.841 169.866 106.803 169.89 106.731C170 106.364 170.221 106.117 170.397 105.941C170.597 105.741 170.698 105.661 170.775 105.537L170.781 105.528C171.281 104.769 171.391 104.107 171.243 103.564C171.094 103.016 170.654 102.482 169.837 102.043L169.835 102.042C169.379 101.796 168.894 101.633 168.329 101.409C167.786 101.192 167.201 100.927 166.673 100.491L166.192 100.094L166.685 99.7107C167.094 99.3941 167.385 99.1675 167.604 98.9804C167.822 98.7934 167.941 98.6683 168.015 98.5608C168.092 98.4489 168.134 98.3392 168.173 98.1405C167.581 98.231 166.986 98.3073 166.421 98.3915C165.626 98.5098 164.863 98.6476 164.138 98.8688L163.836 98.9506C163.142 99.1176 162.517 99.1056 161.923 98.9354C161.256 98.7443 160.666 98.3649 160.091 97.8998L160.091 97.8986C157.673 95.9591 155.682 93.5441 153.637 91.3569L153.636 91.3553C152.101 89.7018 151.302 87.7012 151.135 85.5458C150.831 81.722 150.166 78.029 148.609 74.5637L148.61 74.5625C148.403 74.1251 148.256 73.5945 148.124 73.1963C147.967 72.7163 147.8 72.0617 148.196 71.4158C148.968 70.1288 149.716 68.3129 151.936 67.9782C153.029 67.8134 154.048 67.208 155.132 66.5709C156.701 65.6421 157.738 64.3582 158.192 62.9141C158.617 61.5612 158.542 60.0304 157.868 58.4604L157.725 58.1458C156.102 54.751 153.175 53.1342 149.37 52.6715L148.647 52.5842L148.989 51.9405C149.944 50.1441 150.843 48.3261 151.833 46.5833L153.191 44.1369C154.513 41.7855 155.957 39.4618 158.052 37.5882L158.329 37.3462C159.311 36.5085 159.7 35.2991 160.089 33.9073Z" fill="url(#paint1_linear_7647_1454)" fill-opacity="0.3" shape-rendering="crispEdges"/>
<path d="M159.434 30.949C160.399 31.738 160.935 32.6985 160.57 34.0424C160.185 35.4196 159.767 36.7774 158.653 37.7271C155.744 40.2055 154.102 43.5617 152.269 46.8277C151.283 48.5644 150.396 50.3594 149.43 52.1753C153.233 52.6377 156.266 54.2363 158.011 57.599L158.176 57.9299C159.884 61.4928 158.711 65.0349 155.385 67.002C154.324 67.6261 153.218 68.2906 152.01 68.4726L151.833 68.5032C150.039 68.8589 149.428 70.3334 148.624 71.6734C148.386 72.0594 148.428 72.457 148.545 72.8642L148.599 73.0392C148.746 73.4813 148.873 73.9568 149.064 74.3586C150.655 77.8965 151.326 81.6523 151.633 85.5058C151.782 87.4302 152.458 89.2136 153.738 90.7182L154.002 91.0151C156.077 93.2341 158.023 95.6007 160.405 97.5106C161.441 98.3479 162.394 98.7849 163.721 98.4648L163.991 98.3902C165.514 97.9255 167.162 97.8237 168.76 97.537C168.61 98.8515 168.61 98.8514 166.992 100.106C167.866 100.828 168.948 101.045 169.887 101.507L170.073 101.602C171.867 102.566 172.31 104.117 171.198 105.803C170.964 106.177 170.516 106.382 170.369 106.874C170.172 107.494 169.765 107.433 169.282 107.194C168.607 106.865 168.199 106.069 167.32 106.021C167.002 106.814 167.603 107.389 167.695 108.044C167.747 108.342 167.865 108.678 167.554 108.874C167.121 109.132 166.768 108.859 166.591 108.51C165.246 105.784 162.726 104.505 160.201 103.313C158.668 102.591 157.02 102.07 155.43 101.449C154.777 101.199 154.161 100.882 153.52 100.573C149.528 98.698 146.305 96.0504 144.55 91.7923C144.007 90.4938 143.288 89.2707 142.596 88.0405C141.712 86.4087 141.572 86.3045 139.86 86.7916C134.181 88.3132 128.592 90.0656 123.145 92.3464C121.866 92.8873 120.587 93.4282 119.315 93.9955C118.296 94.4666 117.356 94.6052 116.775 93.3735C116.357 92.438 115.58 92.5611 114.813 92.5119L114.18 92.4572C111.031 92.146 108.108 91.245 105.782 88.8158L105.369 88.3598C104.434 87.2778 103.689 86.0709 103.191 84.6684L103.021 84.1868C101.227 79.229 98.2887 74.8853 95.63 70.4135C94.8238 69.0722 93.7802 68.6157 92.1583 68.7105L91.8674 68.7213C88.8596 68.7917 85.9822 67.6526 83.1112 66.8309L82.4126 66.6354C78.9149 65.68 75.3473 65.071 71.7633 64.4918L71.4559 64.4494C69.913 64.2783 68.302 64.6901 66.7083 64.7986C64.9057 64.91 64.5994 64.859 64.3729 63.4123L64.2764 62.7038C64.2352 62.3678 64.1437 62.0021 64.1693 61.6754L64.1874 61.5384C64.7735 58.9392 64.0655 56.3631 64.0256 53.7512L64.0269 53.2287C64.0785 51.2329 64.4661 49.3452 65.0904 47.5074C65.3492 46.7019 65.8422 46.1451 66.8151 46.3374C67.7548 46.5103 68.5168 46.9573 68.459 47.9921C68.2452 51.3622 70.6443 53.1261 72.553 55.2479C73.6839 53.5292 73.6649 53.5626 75.6722 54.0724C82.43 55.7443 89.2258 57.3494 96.0788 58.5428C98.891 59.0351 101.201 60.2566 102.981 62.526C103.156 62.7623 103.39 63.011 103.914 62.984C104.448 61.2269 104.071 59.4026 104.001 57.5808C103.978 57.0773 103.488 56.8122 103.136 56.5385L99.875 53.8794C96.6111 51.2222 93.3171 48.6011 89.8088 46.2921L89.3293 45.9863C86.9111 44.4887 84.2358 43.48 81.6064 42.459L80.516 42.0422C78.3124 41.2017 78.4554 41.1197 79.9933 38.1061C81.2096 35.7096 82.5489 33.4048 83.4803 30.8436L83.6606 30.328C84.3657 28.2703 85.8043 26.5541 87.4913 25.1394C88.1737 24.5601 88.8513 24.0671 89.7621 24.7574C90.5666 25.363 90.6937 26.15 90.4301 27.0418C90.3445 27.3478 90.259 27.6539 90.1073 27.9211C88.6369 30.6652 89.2997 33.3473 90.2964 36.025C90.5078 35.9932 90.6903 36.0122 90.7928 35.9633L90.8316 35.9382C92.3172 34.6057 92.2912 34.6127 93.7746 35.7725C99.0244 39.9438 104.478 43.8339 109.932 47.724C110.689 48.2573 111.389 48.8908 112.153 49.4505C113.41 50.388 114.05 51.6321 114.401 53.1519C115.694 58.4967 116.686 63.8655 117.15 69.3475C117.175 69.6521 117.208 69.9831 117.234 70.2876C117.295 71.2004 117.715 71.6184 118.589 71.4702L118.77 71.4335C121.726 70.7473 124.706 70.0551 127.413 68.5961L127.951 68.2936C129.958 67.1331 131.95 65.9197 133.963 64.7856C134.965 64.2253 135.641 63.4541 136.118 62.4371L136.21 62.23C137.574 59.0896 139.13 56.0394 140.395 52.8408C141.802 49.2358 144.355 46.57 147.032 43.9554C147.81 43.2093 148.605 42.4792 149.409 41.7543L151.835 39.5822C153.032 38.5254 153.313 36.8645 154.304 35.6647C154.717 35.1559 154.856 34.4473 155.389 34.0587L155.501 33.9849C156.128 33.6185 156.375 33.1843 156.099 32.4655L156.064 32.3522C155.912 31.7794 156.132 31.1104 156.642 31.159C157.582 31.2362 158.415 30.2266 159.343 30.8809L159.434 30.949ZM160.089 33.9073C160.244 33.3335 160.201 32.8723 160.038 32.4781C159.871 32.0735 159.561 31.6984 159.118 31.3357C158.955 31.2032 158.822 31.1654 158.703 31.1596C158.569 31.1531 158.413 31.1862 158.206 31.2594C158.104 31.2957 158 31.3378 157.882 31.3847C157.768 31.43 157.641 31.479 157.511 31.5227C157.251 31.6096 156.942 31.6845 156.602 31.6568C156.593 31.6673 156.574 31.6922 156.555 31.7422C156.517 31.8475 156.504 31.9964 156.53 32.1463L156.569 32.2956C156.734 32.73 156.77 33.1573 156.597 33.5558C156.431 33.9417 156.106 34.2107 155.753 34.4171C155.562 34.5283 155.427 34.7094 155.272 34.9968C155.152 35.2188 154.996 35.5601 154.785 35.8561L154.692 35.9801L154.689 35.983C154.241 36.526 153.953 37.1724 153.596 37.8977C153.251 38.5972 152.846 39.3555 152.169 39.9542L149.744 42.1255C148.944 42.847 148.154 43.572 147.382 44.3133L146.389 45.2953C144.102 47.5923 142.055 49.965 140.861 53.0224L140.86 53.0248C139.595 56.2237 138.013 59.3351 136.669 62.4278L136.569 62.6508C136.053 63.7506 135.31 64.6047 134.209 65.2213C132.196 66.3552 130.226 67.5552 128.204 68.725L127.652 69.0356C124.874 70.533 121.828 71.2368 118.882 71.9203C118.32 72.0543 117.77 72.0389 117.346 71.7102C116.93 71.3878 116.774 70.8691 116.737 70.3297C116.724 70.1798 116.708 70.0231 116.694 69.864C116.679 69.7056 116.665 69.5444 116.652 69.39C116.191 63.9402 115.204 58.5972 113.915 53.2696L113.914 53.2649C113.581 51.8236 112.989 50.6987 111.854 49.8517L111.855 49.8505C111.462 49.5629 111.087 49.2575 110.726 48.966C110.36 48.6705 110.007 48.3888 109.643 48.1328L109.641 48.1315C104.19 44.2434 98.7282 40.3453 93.4676 36.1656L93.4669 36.1668C93.0854 35.8685 92.8343 35.6712 92.6333 35.546C92.4369 35.4237 92.3616 35.418 92.3315 35.4196C92.2962 35.4215 92.21 35.4394 92.0051 35.5899C91.8002 35.7404 91.5456 35.9695 91.1658 36.3102C91.0617 36.4035 90.9471 36.4446 90.8676 36.4649C90.7889 36.485 90.7123 36.4925 90.6587 36.4966C90.5258 36.5068 90.4682 36.5045 90.3706 36.5192L89.9694 36.5802L89.8279 36.1996C88.8245 33.5039 88.086 30.6341 89.6664 27.6846L89.6727 27.6739C89.7887 27.4695 89.8598 27.225 89.9485 26.9074L89.9505 26.8998C90.0657 26.5101 90.0826 26.187 90.0129 25.9176C89.9455 25.6571 89.7853 25.4013 89.4614 25.1574L89.46 25.1558C89.117 24.896 88.8827 24.8923 88.6833 24.9514C88.4932 25.0078 88.2964 25.1329 88.0625 25.3169L87.8148 25.5208L87.8122 25.5225C86.166 26.9031 84.7991 28.549 84.1338 30.4905C83.1855 33.3052 81.7181 35.8118 80.4389 38.3322C79.9921 39.2077 79.6815 39.8031 79.5027 40.2452C79.3162 40.7062 79.3419 40.8481 79.361 40.8938C79.3828 40.9453 79.4716 41.0605 79.9175 41.2613C80.3467 41.4546 80.935 41.659 81.7889 41.9933C84.5796 43.0768 87.49 44.1704 90.0838 45.8741C94.7852 48.9683 99.1044 52.6212 103.443 56.1434C103.566 56.2392 103.846 56.4273 104.039 56.6135C104.257 56.8241 104.481 57.129 104.501 57.5573L104.501 57.5614C104.518 58.0045 104.554 58.4501 104.591 58.9063C104.627 59.3589 104.665 59.8231 104.684 60.2867C104.721 61.215 104.682 62.1745 104.392 63.13L104.29 63.4657L103.94 63.4837C103.589 63.5018 103.297 63.4267 103.058 63.2813C102.833 63.1454 102.688 62.966 102.589 62.8337L102.588 62.8349C100.894 60.6762 98.7012 59.5098 95.9923 59.0356C89.1214 57.839 82.3116 56.2304 75.552 54.5581L75.5487 54.557C75.035 54.4265 74.6875 54.3364 74.4174 54.2929C74.1521 54.2503 74.0316 54.2664 73.9566 54.294C73.8841 54.3209 73.7859 54.3834 73.6218 54.5839C73.4535 54.7897 73.2591 55.0842 72.9706 55.5228L72.6151 56.0639L72.1818 55.5825C71.7098 55.0578 71.218 54.5671 70.7153 54.0373C70.221 53.5163 69.7306 52.9718 69.3047 52.3801C68.444 51.1844 67.8437 49.7889 67.9597 47.9604C67.9793 47.5925 67.8608 47.3743 67.6819 47.218C67.4782 47.0402 67.1542 46.9085 66.7245 46.8295L66.7181 46.8282C66.3487 46.7551 66.1363 46.8308 65.9926 46.9427C65.8691 47.0388 65.7555 47.1934 65.6582 47.4155L65.5662 47.6605L65.5642 47.6681C64.9534 49.4661 64.5771 51.3039 64.527 53.2417C64.4971 54.5994 64.6878 55.9306 64.8169 57.3456C64.9435 58.735 65.0057 60.1748 64.6784 61.636L64.6677 61.7167C64.6611 61.804 64.6666 61.9123 64.684 62.0491C64.6953 62.138 64.7095 62.2291 64.7259 62.33C64.7417 62.4272 64.7597 62.5344 64.7728 62.641C64.84 63.1816 64.8929 63.556 64.9628 63.8255C65.0325 64.094 65.1015 64.1833 65.1457 64.2213C65.1872 64.2568 65.2768 64.3074 65.535 64.3273C65.6664 64.3374 65.8215 64.3382 66.0087 64.3328L66.6771 64.2993C67.515 64.2421 68.3175 64.1049 69.2035 64.0045C70.0631 63.9072 70.9568 63.8519 71.8434 63.9978C75.6659 64.6156 79.4965 65.2715 83.2492 66.3505L84.3784 66.6859C86.9966 67.4842 89.504 68.3418 92.1331 68.2113C92.9923 68.1615 93.75 68.254 94.4157 68.5723C95.0882 68.894 95.6174 69.4226 96.0583 70.1562L96.0598 70.1578C98.7822 74.7366 101.867 79.2803 103.662 84.5012L103.767 84.7844C104.311 86.189 105.123 87.389 106.146 88.4723C108.503 90.933 111.516 91.7644 114.846 92.013L115.117 92.0253C115.21 92.0284 115.311 92.0311 115.411 92.0364C115.61 92.0471 115.833 92.0679 116.055 92.1277C116.535 92.257 116.954 92.5567 117.227 93.1605C117.464 93.6626 117.721 93.7963 117.95 93.8282C118.234 93.8677 118.612 93.77 119.105 93.5418L119.112 93.539C120.389 92.9695 121.672 92.4262 122.95 91.8857L122.952 91.8852C128.427 89.5929 134.039 87.8336 139.731 86.3085C140.153 86.1886 140.515 86.0945 140.824 86.0561C141.143 86.0165 141.454 86.0299 141.751 86.1696C142.043 86.3069 142.258 86.5365 142.445 86.7997C142.629 87.0599 142.817 87.3992 143.036 87.8019C143.72 89.017 144.455 90.2699 145.012 91.5996L145.012 91.6015C146.706 95.7097 149.814 98.2798 153.733 100.12L153.738 100.123C154.395 100.44 154.981 100.741 155.609 100.981L155.612 100.983C157.158 101.588 158.863 102.131 160.414 102.861C162.925 104.047 165.606 105.386 167.037 108.283C167.095 108.396 167.16 108.453 167.195 108.47C167.208 108.476 167.214 108.476 167.219 108.476C167.223 108.476 167.235 108.473 167.258 108.463C167.257 108.439 167.255 108.405 167.246 108.358C167.241 108.326 167.234 108.294 167.226 108.255C167.218 108.217 167.21 108.173 167.202 108.129L167.201 108.122L167.2 108.113C167.185 108.01 167.149 107.897 167.09 107.751C167.042 107.633 166.946 107.422 166.885 107.26C166.743 106.882 166.631 106.398 166.856 105.835L166.99 105.502L167.348 105.521C167.949 105.554 168.375 105.849 168.697 106.117C168.778 106.184 168.855 106.253 168.926 106.316C169 106.38 169.067 106.438 169.134 106.494C169.268 106.605 169.385 106.688 169.501 106.745L169.504 106.745C169.61 106.798 169.693 106.831 169.759 106.849C169.793 106.858 169.816 106.859 169.831 106.86C169.843 106.841 169.866 106.803 169.89 106.731C170 106.364 170.221 106.117 170.397 105.941C170.597 105.741 170.698 105.661 170.775 105.537L170.781 105.528C171.281 104.769 171.391 104.107 171.243 103.564C171.094 103.016 170.654 102.482 169.837 102.043L169.835 102.042C169.379 101.796 168.894 101.633 168.329 101.409C167.786 101.192 167.201 100.927 166.673 100.491L166.192 100.094L166.685 99.7107C167.094 99.3941 167.385 99.1675 167.604 98.9804C167.822 98.7934 167.941 98.6683 168.015 98.5608C168.092 98.4489 168.134 98.3392 168.173 98.1405C167.581 98.231 166.986 98.3073 166.421 98.3915C165.626 98.5098 164.863 98.6476 164.138 98.8688L163.836 98.9506C163.142 99.1176 162.517 99.1056 161.923 98.9354C161.256 98.7443 160.666 98.3649 160.091 97.8998L160.091 97.8986C157.673 95.9591 155.682 93.5441 153.637 91.3569L153.636 91.3553C152.101 89.7018 151.302 87.7012 151.135 85.5458C150.831 81.722 150.166 78.029 148.609 74.5637L148.61 74.5625C148.403 74.1251 148.256 73.5945 148.124 73.1963C147.967 72.7163 147.8 72.0617 148.196 71.4158C148.968 70.1288 149.716 68.3129 151.936 67.9782C153.029 67.8134 154.048 67.208 155.132 66.5709C156.701 65.6421 157.738 64.3582 158.192 62.9141C158.617 61.5612 158.542 60.0304 157.868 58.4604L157.725 58.1458C156.102 54.751 153.175 53.1342 149.37 52.6715L148.647 52.5842L148.989 51.9405C149.944 50.1441 150.843 48.3261 151.833 46.5833L153.191 44.1369C154.513 41.7855 155.957 39.4618 158.052 37.5882L158.329 37.3462C159.311 36.5085 159.7 35.2991 160.089 33.9073Z" fill="white" fill-opacity="0.4" shape-rendering="crispEdges"/>
</g>
<g filter="url(#filter1_dd_7647_1454)">
<path d="M72.6217 75C70.455 91.6667 73.2217 127.4 101.622 137C84.6217 132.333 55.0217 113.4 72.6217 75Z" fill="url(#paint2_linear_7647_1454)"/>
<path d="M72.6217 75C70.455 91.6667 73.2217 127.4 101.622 137C84.6217 132.333 55.0217 113.4 72.6217 75ZM71.7877 78.1914C64.6737 95.7438 67.7228 108.925 74.5514 118.356C79.1575 124.718 85.505 129.398 91.6832 132.559C83.301 126.697 78.165 117.978 75.1832 108.805C71.6698 97.9954 71.1277 86.5105 71.7877 78.1914Z" fill="url(#paint3_linear_7647_1454)"/>
</g>
<defs>
<filter id="filter0_dd_7647_1454" x="48.0237" y="12.4204" width="139.781" height="116.556" filterUnits="userSpaceOnUse" color-interpolation-filters="sRGB">
<feFlood flood-opacity="0" result="BackgroundImageFix"/>
<feColorMatrix in="SourceAlpha" type="matrix" values="0 0 0 0 0 0 0 0 0 0 0 0 0 0 0 0 0 0 127 0" result="hardAlpha"/>
<feOffset dy="4"/>
<feGaussianBlur stdDeviation="8"/>
<feComposite in2="hardAlpha" operator="out"/>
<feColorMatrix type="matrix" values="0 0 0 0 0 0 0 0 0 0 0 0 0 0 0 0 0 0 0.64 0"/>
<feBlend mode="normal" in2="BackgroundImageFix" result="effect1_dropShadow_7647_1454"/>
<feColorMatrix in="SourceAlpha" type="matrix" values="0 0 0 0 0 0 0 0 0 0 0 0 0 0 0 0 0 0 127 0" result="hardAlpha"/>
<feOffset dy="1"/>
<feGaussianBlur stdDeviation="0.5"/>
<feComposite in2="hardAlpha" operator="out"/>
<feColorMatrix type="matrix" values="0 0 0 0 0 0 0 0 0 0 0 0 0 0 0 0 0 0 0.08 0"/>
<feBlend mode="normal" in2="effect1_dropShadow_7647_1454" result="effect2_dropShadow_7647_1454"/>
<feBlend mode="normal" in="SourceGraphic" in2="effect2_dropShadow_7647_1454" result="shape"/>
</filter>
<filter id="filter1_dd_7647_1454" x="59.2207" y="67" width="50.4009" height="78" filterUnits="userSpaceOnUse" color-interpolation-filters="sRGB">
<feFlood flood-opacity="0" result="BackgroundImageFix"/>
<feColorMatrix in="SourceAlpha" type="matrix" values="0 0 0 0 0 0 0 0 0 0 0 0 0 0 0 0 0 0 127 0" result="hardAlpha"/>
<feOffset/>
<feGaussianBlur stdDeviation="4"/>
<feComposite in2="hardAlpha" operator="out"/>
<feColorMatrix type="matrix" values="0 0 0 0 0.98415 0 0 0 0 0.859671 0 0 0 0 0.486234 0 0 0 1 0"/>
<feBlend mode="normal" in2="BackgroundImageFix" result="effect1_dropShadow_7647_1454"/>
<feColorMatrix in="SourceAlpha" type="matrix" values="0 0 0 0 0 0 0 0 0 0 0 0 0 0 0 0 0 0 127 0" result="hardAlpha"/>
<feOffset/>
<feGaussianBlur stdDeviation="1"/>
<feComposite in2="hardAlpha" operator="out"/>
<feColorMatrix type="matrix" values="0 0 0 0 0 0 0 0 0 0 0 0 0 0 0 0 0 0 0.08 0"/>
<feBlend mode="normal" in2="effect1_dropShadow_7647_1454" result="effect2_dropShadow_7647_1454"/>
<feBlend mode="normal" in="SourceGraphic" in2="effect2_dropShadow_7647_1454" result="shape"/>
</filter>
<linearGradient id="paint0_linear_7647_1454" x1="79.5195" y1="24.4204" x2="133.764" y2="121.565" gradientUnits="userSpaceOnUse">
<stop stop-color="#323232"/>
<stop offset="1" stop-color="#83817A"/>
</linearGradient>
<linearGradient id="paint1_linear_7647_1454" x1="120.57" y1="55.7887" x2="110.212" y2="66.6952" gradientUnits="userSpaceOnUse">
<stop stop-color="#323232" stop-opacity="0"/>
<stop offset="1" stop-color="#F9CC45"/>
</linearGradient>
<linearGradient id="paint2_linear_7647_1454" x1="89.811" y1="65.9134" x2="104.483" y2="122.835" gradientUnits="userSpaceOnUse">
<stop stop-color="#FFE79E"/>
<stop offset="1" stop-color="#FFD452"/>
</linearGradient>
<linearGradient id="paint3_linear_7647_1454" x1="67.2207" y1="106" x2="101.622" y2="106" gradientUnits="userSpaceOnUse">
<stop stop-color="#FFEAAA"/>
<stop offset="1" stop-color="#FFE7A1"/>
</linearGradient>
</defs>
</svg>
