<svg width="230" height="160" viewBox="0 0 230 160" fill="none" xmlns="http://www.w3.org/2000/svg">
<g filter="url(#filter0_dd_7647_1439)">
<path fill-rule="evenodd" clip-rule="evenodd" d="M87.4915 25.1392C88.1738 24.56 88.8513 24.0672 89.762 24.7573C90.5664 25.3628 90.6935 26.1498 90.43 27.0415C90.3445 27.3476 90.2595 27.6542 90.1078 27.9214C88.6374 30.6654 89.2996 33.3473 90.2962 36.0249C90.4339 36.0042 90.5595 36.0031 90.6585 35.9927C90.7331 35.9849 90.7927 35.9726 90.8314 35.938C92.3171 34.6055 92.2913 34.6131 93.7747 35.7729C99.0245 39.9441 104.478 43.8341 109.932 47.7241C110.689 48.2574 111.39 48.891 112.154 49.4507C113.41 50.3882 114.05 51.6322 114.402 53.1518C115.694 58.4966 116.686 63.8653 117.15 69.3472C117.176 69.6517 117.208 69.9831 117.234 70.2876C117.299 71.2611 117.773 71.6719 118.77 71.4331C121.924 70.7012 125.104 69.9624 127.951 68.2934C129.958 67.133 131.95 65.9197 133.963 64.7856C134.854 64.287 135.486 63.6204 135.951 62.7632C136.008 62.6571 136.065 62.549 136.118 62.437L136.21 62.23C137.574 59.0896 139.13 56.039 140.395 52.8403C141.802 49.2355 144.355 46.5701 147.033 43.9556C148.587 42.4632 150.215 41.036 151.835 39.5825C153.032 38.5257 153.313 36.8644 154.304 35.6645C154.307 35.6611 154.309 35.6573 154.312 35.6538C154.395 35.5498 154.465 35.4366 154.532 35.3208C154.547 35.2934 154.564 35.2666 154.579 35.2388C154.659 35.0932 154.733 34.9439 154.811 34.7983C154.829 34.7648 154.847 34.7317 154.866 34.6987C154.89 34.6558 154.914 34.6134 154.94 34.5718C154.958 34.5414 154.979 34.5124 154.998 34.4829C155.032 34.4328 155.065 34.3832 155.103 34.3364C155.109 34.3284 155.115 34.3199 155.121 34.312C155.123 34.3102 155.125 34.3089 155.126 34.3071L155.195 34.229C155.283 34.1362 155.383 34.0535 155.5 33.9849C156.128 33.6185 156.375 33.1841 156.099 32.4653C156.075 32.3984 156.057 32.3291 156.043 32.2593C156.027 32.1723 156.018 32.0842 156.018 31.9975C156.018 31.9402 156.02 31.8838 156.027 31.8286C156.028 31.8182 156.028 31.8077 156.03 31.7974C156.043 31.7023 156.068 31.6127 156.102 31.5317C156.106 31.5218 156.11 31.5121 156.115 31.5024C156.122 31.4868 156.129 31.4714 156.137 31.4565C156.145 31.4421 156.153 31.4282 156.161 31.4145C156.168 31.4032 156.175 31.3921 156.183 31.3813C156.194 31.3652 156.207 31.3501 156.219 31.3354C156.228 31.3253 156.235 31.3146 156.244 31.3052C156.251 31.2989 156.258 31.2936 156.264 31.2876C156.279 31.2732 156.295 31.2598 156.312 31.2475C156.32 31.2415 156.329 31.2364 156.337 31.2309C156.35 31.2226 156.363 31.2135 156.376 31.2065C156.453 31.1672 156.542 31.1492 156.642 31.1587C157.042 31.1915 157.423 31.0291 157.799 30.8804C157.872 30.8517 157.944 30.8224 158.016 30.7964C158.046 30.7856 158.076 30.776 158.106 30.7661C158.132 30.7574 158.158 30.7486 158.184 30.7407C158.208 30.7334 158.232 30.7277 158.256 30.7212C158.289 30.7124 158.321 30.7039 158.354 30.6968C158.381 30.6907 158.409 30.6859 158.437 30.6811C158.465 30.6763 158.493 30.6717 158.522 30.6684C158.547 30.6656 158.572 30.665 158.597 30.6636C158.631 30.6616 158.665 30.6598 158.699 30.6606C158.724 30.6612 158.749 30.6642 158.774 30.6665C158.802 30.6691 158.831 30.6714 158.86 30.6763C159.048 30.7081 159.239 30.7893 159.434 30.9487C160.399 31.7377 160.935 32.6986 160.57 34.0425C160.185 35.4196 159.767 36.7774 158.654 37.727C155.744 40.2055 154.102 43.5616 152.269 46.8276C151.282 48.5643 150.395 50.3594 149.43 52.1753C149.732 52.212 150.029 52.2568 150.321 52.3081C150.613 52.3596 150.901 52.418 151.183 52.4849C151.229 52.4957 151.274 52.5068 151.32 52.5181C151.384 52.534 151.448 52.5492 151.512 52.5659C151.595 52.5877 151.677 52.6111 151.759 52.6343C151.78 52.6402 151.801 52.6459 151.822 52.6518C151.879 52.6683 151.935 52.6855 151.992 52.7026C152.057 52.7225 152.122 52.7424 152.187 52.7632C152.226 52.7758 152.265 52.7893 152.304 52.8022C152.364 52.8222 152.424 52.842 152.484 52.8628C152.526 52.8777 152.568 52.8934 152.611 52.9087C152.684 52.9351 152.756 52.962 152.828 52.9897C152.858 53.0012 152.888 53.0132 152.917 53.0249C152.979 53.0493 153.041 53.0737 153.102 53.0991C153.155 53.1212 153.208 53.1436 153.261 53.1665C153.308 53.1869 153.355 53.208 153.402 53.229C153.45 53.2508 153.498 53.2729 153.546 53.2954C153.606 53.3232 153.664 53.3516 153.723 53.3804C153.755 53.3961 153.787 53.4122 153.819 53.4282C153.894 53.4663 153.969 53.5056 154.043 53.5454C154.059 53.5539 154.075 53.5622 154.091 53.5708C154.157 53.6064 154.222 53.6423 154.286 53.6792C154.328 53.703 154.369 53.7271 154.41 53.7515C154.462 53.7819 154.513 53.8129 154.564 53.8442C154.603 53.8684 154.642 53.8927 154.681 53.9175C154.741 53.9554 154.799 53.9945 154.858 54.0337C154.877 54.0467 154.897 54.0596 154.916 54.0727C154.978 54.1147 155.039 54.1573 155.1 54.2007C155.145 54.2329 155.19 54.2653 155.235 54.2983C155.276 54.329 155.317 54.3607 155.358 54.3921C155.389 54.4164 155.421 54.4406 155.452 54.4653C155.512 54.5126 155.571 54.561 155.63 54.6099C155.661 54.6355 155.692 54.6609 155.723 54.687C155.778 54.7336 155.831 54.7815 155.885 54.8296C155.91 54.8519 155.936 54.8734 155.96 54.896C156.011 54.9421 156.06 54.9893 156.11 55.0366C156.143 55.0681 156.176 55.0993 156.208 55.1313C156.248 55.1701 156.286 55.21 156.325 55.2495C156.36 55.2855 156.395 55.3212 156.43 55.3579C156.479 55.4097 156.527 55.463 156.575 55.5161C156.603 55.5477 156.632 55.5788 156.66 55.6108C156.698 55.6538 156.735 55.6979 156.772 55.7417C156.806 55.7816 156.84 55.8211 156.873 55.8618C157.049 56.0768 157.217 56.3026 157.377 56.5386C157.41 56.5863 157.443 56.6336 157.475 56.6821C157.614 56.8947 157.747 57.1157 157.874 57.3452C157.979 57.5343 158.079 57.7293 158.175 57.9302C159.884 61.493 158.711 65.0353 155.385 67.0024C154.324 67.6265 153.218 68.2902 152.01 68.4722C150.078 68.7635 149.454 70.2901 148.624 71.6733C148.352 72.1145 148.445 72.571 148.599 73.0395C148.745 73.4816 148.873 73.9572 149.065 74.3589C150.655 77.8966 151.326 81.6521 151.632 85.5054C151.764 87.2075 152.31 88.7989 153.32 90.1851C153.452 90.3661 153.591 90.5445 153.739 90.7183C153.824 90.8184 153.912 90.9175 154.002 91.0151C156.077 93.2341 158.023 95.6003 160.406 97.5102C161.51 98.4034 162.521 98.8408 163.992 98.3901C165.514 97.9255 167.162 97.8233 168.76 97.5366C168.61 98.851 168.61 98.8512 166.992 100.106C167.107 100.202 167.228 100.288 167.35 100.368C167.438 100.425 167.527 100.478 167.618 100.529C167.895 100.684 168.183 100.81 168.473 100.926C168.73 101.03 168.989 101.127 169.243 101.228C169.28 101.243 169.317 101.257 169.354 101.272C169.446 101.309 169.536 101.348 169.626 101.387C169.778 101.454 169.928 101.524 170.073 101.602C171.866 102.565 172.31 104.118 171.199 105.803C170.964 106.177 170.516 106.382 170.368 106.875C170.171 107.493 169.764 107.433 169.282 107.194C168.607 106.865 168.199 106.069 167.321 106.021C167.003 106.814 167.603 107.389 167.695 108.044C167.747 108.342 167.864 108.678 167.554 108.875C167.121 109.132 166.768 108.858 166.591 108.509C165.246 105.784 162.726 104.505 160.201 103.313C158.668 102.591 157.02 102.07 155.43 101.449C154.777 101.199 154.161 100.882 153.52 100.573C149.528 98.6978 146.305 96.0505 144.55 91.7925C144.007 90.4941 143.289 89.2706 142.596 88.0405C141.712 86.4086 141.572 86.3044 139.86 86.7915C134.181 88.3131 128.592 90.0655 123.145 92.3462C121.866 92.8871 120.587 93.4283 119.315 93.9956C118.296 94.4666 117.356 94.6051 116.775 93.3735C116.357 92.4381 115.58 92.5615 114.813 92.5122C114.601 92.4964 114.39 92.4783 114.18 92.4575C113.977 92.4374 113.775 92.4144 113.574 92.3892C113.484 92.3779 113.394 92.3644 113.305 92.352C113.197 92.3371 113.089 92.3228 112.982 92.3061C112.884 92.291 112.786 92.273 112.689 92.2563C112.586 92.2388 112.484 92.2218 112.382 92.2026C112.284 92.1842 112.187 92.1632 112.089 92.1431C111.996 92.1237 111.902 92.1053 111.809 92.0845C111.716 92.0636 111.623 92.0406 111.531 92.0181C111.417 91.9904 111.304 91.9623 111.192 91.9321C111.123 91.9136 111.054 91.894 110.986 91.8745C110.868 91.841 110.75 91.8065 110.633 91.77C110.551 91.7445 110.47 91.717 110.389 91.6899C110.28 91.6536 110.172 91.6168 110.064 91.5776C109.77 91.4708 109.479 91.3543 109.194 91.2251C109.171 91.2148 109.148 91.2052 109.125 91.1948C108.977 91.1267 108.831 91.0546 108.686 90.98C108.653 90.963 108.619 90.9465 108.586 90.9292C108.54 90.9046 108.493 90.8793 108.447 90.854C108.409 90.8333 108.37 90.8127 108.332 90.7915C108.299 90.7729 108.266 90.7539 108.233 90.7349C108.175 90.7019 108.118 90.6684 108.061 90.6343C108.032 90.6171 108.004 90.5999 107.975 90.5825C107.917 90.5474 107.86 90.5114 107.803 90.4751C107.775 90.457 107.746 90.4388 107.718 90.4204C107.662 90.3839 107.606 90.3468 107.55 90.3091C107.522 90.2903 107.495 90.2715 107.467 90.2524C107.407 90.2107 107.346 90.1686 107.286 90.1255C107.26 90.1062 107.233 90.0865 107.206 90.0669C107.168 90.0384 107.129 90.0101 107.09 89.9809C107.039 89.9424 106.988 89.9034 106.938 89.8638C106.902 89.8355 106.866 89.8066 106.83 89.7778C106.792 89.747 106.753 89.7166 106.715 89.6851C106.646 89.628 106.578 89.5695 106.51 89.5102C106.501 89.5021 106.491 89.4941 106.482 89.4858C106.431 89.4415 106.382 89.3957 106.331 89.3501C106.301 89.3221 106.269 89.2946 106.239 89.2661C106.084 89.1221 105.931 88.9723 105.782 88.8159C105.64 88.6663 105.503 88.5143 105.369 88.3599C105.247 88.2177 105.127 88.0729 105.011 87.9263C104.915 87.8045 104.821 87.6812 104.729 87.5561C104.711 87.5319 104.694 87.5073 104.676 87.4829C104.593 87.3682 104.512 87.2528 104.433 87.1352C104.405 87.0936 104.378 87.0513 104.351 87.0093C104.185 86.7536 104.028 86.4907 103.882 86.2202C103.864 86.1873 103.846 86.1547 103.828 86.1216C103.761 85.9938 103.696 85.8642 103.633 85.7329C103.618 85.7014 103.603 85.6699 103.588 85.6382C103.523 85.4977 103.46 85.3551 103.4 85.2104C103.39 85.1881 103.382 85.1655 103.372 85.1431C103.309 84.9873 103.248 84.8293 103.191 84.6684C101.907 80.9322 99.9552 77.5534 97.9349 74.2202C97.1654 72.9506 96.3872 71.6868 95.6302 70.4136C94.8241 69.0723 93.7803 68.6157 92.1585 68.7104L91.8675 68.7212L91.8665 68.7202C91.724 68.7235 91.5818 68.7222 91.4398 68.7202C91.338 68.7188 91.2366 68.7154 91.1351 68.7114C91.0504 68.7081 90.9657 68.7047 90.8812 68.6997C90.7811 68.6938 90.6812 68.6864 90.5814 68.6782C90.4843 68.6702 90.3873 68.6619 90.2904 68.6518C90.1981 68.6423 90.1061 68.631 90.014 68.6196C89.9221 68.6083 89.8303 68.5965 89.7386 68.5835C89.6402 68.5695 89.5419 68.5544 89.4437 68.5386C89.3584 68.5248 89.273 68.5116 89.1878 68.4966C89.0839 68.4782 88.98 68.4591 88.8763 68.439C88.7851 68.4212 88.6939 68.4033 88.6029 68.3843C88.5321 68.3695 88.4616 68.3539 88.391 68.3384C88.2649 68.3107 88.1388 68.2823 88.013 68.2524C87.9563 68.239 87.8997 68.2253 87.8431 68.2114C87.731 68.184 87.619 68.1563 87.5072 68.1274C87.4094 68.1022 87.3118 68.0765 87.2142 68.0503C87.1155 68.0238 87.0169 67.9966 86.9183 67.9692C86.832 67.9453 86.7457 67.9215 86.6595 67.897C86.584 67.8755 86.5084 67.8544 86.4329 67.8325C86.1704 67.7563 85.9086 67.6767 85.6468 67.5972C84.7992 67.3397 83.955 67.0719 83.1117 66.8306C79.3908 65.7606 75.5861 65.1095 71.763 64.4917C70.5927 64.2989 69.3796 64.4792 68.1615 64.6401C67.6771 64.7041 67.1919 64.7654 66.7083 64.7983C66.4544 64.814 66.2301 64.8257 66.0316 64.8315C66.0231 64.8318 66.0146 64.8323 66.0062 64.8325C65.9225 64.8347 65.8436 64.835 65.7689 64.8345C65.748 64.8343 65.7275 64.8339 65.7074 64.8335C65.6522 64.8324 65.5995 64.8306 65.5492 64.8276C65.5194 64.8258 65.4904 64.8233 65.4622 64.8208C65.4147 64.8165 65.3696 64.8108 65.3265 64.8042C65.3076 64.8013 65.289 64.7988 65.2708 64.7954C65.2253 64.7869 65.1827 64.7759 65.1419 64.7642C65.1251 64.7593 65.1082 64.7559 65.0921 64.7505C65.0839 64.7477 65.0758 64.7447 65.0677 64.7417C64.9847 64.7112 64.9128 64.672 64.849 64.6226C64.8416 64.6168 64.8336 64.6119 64.8265 64.6059C64.7969 64.5811 64.7695 64.5537 64.7435 64.5239C64.7385 64.5182 64.7337 64.5123 64.7288 64.5063C64.7032 64.4751 64.679 64.4416 64.6566 64.4048C64.6521 64.3975 64.6482 64.3898 64.6439 64.3823C64.6276 64.3539 64.6137 64.3232 64.599 64.2915C64.5851 64.2617 64.5716 64.2306 64.5589 64.1977C64.549 64.1719 64.5389 64.1454 64.5296 64.1177C64.5167 64.0789 64.5043 64.0383 64.4925 63.9956C64.4858 63.9714 64.4784 63.9469 64.472 63.9214C64.4555 63.855 64.44 63.7841 64.4251 63.7085C64.4238 63.7019 64.4215 63.6956 64.4203 63.689C64.4111 63.6417 64.4036 63.5924 64.3949 63.5415C64.3545 63.3052 64.317 63.0281 64.2767 62.7036C64.2731 62.6741 64.2673 62.6446 64.263 62.6147C64.2406 62.4578 64.2129 62.2955 64.1917 62.1352C64.1832 62.0706 64.1749 62.0065 64.1703 61.9429C64.1684 61.9167 64.1683 61.8906 64.1673 61.8647C64.163 61.7523 64.1671 61.6428 64.1878 61.5386C64.2427 61.2954 64.283 61.0519 64.3167 60.8091C64.5371 59.2251 64.3477 57.6481 64.1869 56.064C64.1686 55.8837 64.1509 55.7034 64.1341 55.5229C64.1106 55.2702 64.0882 55.0174 64.0706 54.7642C64.0634 54.6597 64.0578 54.5552 64.0521 54.4507C64.0297 54.0442 64.0177 53.6371 64.0267 53.229C64.0782 51.2332 64.4658 49.3451 65.0902 47.5073C65.3489 46.7019 65.8421 46.1453 66.8148 46.3374C67.7544 46.5103 68.5168 46.9572 68.4593 47.9917C68.2455 51.3616 70.6444 53.1258 72.5531 55.2475C73.6838 53.529 73.6651 53.563 75.6722 54.0727C82.4299 55.7446 89.2256 57.3491 96.0785 58.5425C98.8907 59.0348 101.201 60.2565 102.982 62.5259C103.157 62.762 103.39 63.0107 103.913 62.9839C104.448 61.2268 104.071 59.4024 104.001 57.5806C103.978 57.0773 103.489 56.8121 103.136 56.5386C98.7831 53.0048 94.4867 49.3711 89.8089 46.2925C89.6504 46.1883 89.4903 46.0865 89.3294 45.9868C89.0874 45.8369 88.8419 45.6928 88.5951 45.5522C87.02 44.6552 85.3533 43.9358 83.6722 43.2661L81.6068 42.4595L80.516 42.0425C80.3653 41.985 80.226 41.93 80.097 41.8784C80.0748 41.8695 80.0532 41.8598 80.0316 41.8511C79.9319 41.8107 79.8387 41.7721 79.7523 41.7339C79.7182 41.7188 79.6857 41.7028 79.6537 41.688C79.5834 41.6554 79.518 41.6235 79.4574 41.5913C79.3967 41.5591 79.3397 41.5291 79.2884 41.4966C79.2506 41.4726 79.2157 41.4479 79.1829 41.4233C79.1741 41.4167 79.166 41.4095 79.1576 41.4028C79.1357 41.3856 79.1146 41.3687 79.0951 41.3511C79.088 41.3447 79.0813 41.338 79.0745 41.3315C79.0526 41.3105 79.0327 41.2889 79.014 41.2671C79.0107 41.2632 79.0075 41.2593 79.0042 41.2554C78.995 41.2442 78.9853 41.2336 78.9769 41.2222L78.9476 41.1782C78.9456 41.175 78.9437 41.1717 78.9417 41.1684C78.9298 41.1485 78.9201 41.1277 78.9105 41.1069C78.9058 41.0968 78.9009 41.087 78.8968 41.0767C78.8893 41.0578 78.883 41.0386 78.8773 41.019C78.8741 41.008 78.8702 40.9971 78.8675 40.9858C78.8453 40.8914 78.8423 40.7872 78.8578 40.6694C78.8599 40.6534 78.8628 40.6372 78.8656 40.6206C78.8696 40.5968 78.8738 40.5723 78.8792 40.5474C78.8832 40.5291 78.8882 40.5106 78.8929 40.4917C78.8982 40.4706 78.9043 40.4492 78.9105 40.4272C78.9487 40.2915 79.0051 40.1403 79.0775 39.9692C79.1088 39.8952 79.1426 39.8174 79.18 39.7358C79.2028 39.6862 79.2264 39.6351 79.2513 39.5825C79.2904 39.5001 79.3319 39.4139 79.3763 39.3237C79.4025 39.2705 79.4293 39.2157 79.4574 39.1597C79.6101 38.8544 79.7894 38.5058 79.9935 38.1059C80.348 37.4075 80.7123 36.7164 81.0745 36.0249C81.7682 34.7006 82.451 33.3729 83.0326 31.9819C83.065 31.9044 83.0985 31.8274 83.1302 31.7495C83.32 31.2838 83.4979 30.8104 83.6605 30.3276C84.3656 28.2701 85.8046 26.5538 87.4915 25.1392Z" fill="#5C5C5C"/>
</g>
<g filter="url(#filter1_dd_7647_1439)">
<path d="M71.6217 75C69.455 91.6667 72.2217 127.4 100.622 137C83.6217 132.333 54.0217 113.4 71.6217 75Z" fill="url(#paint0_linear_7647_1439)"/>
<path d="M71.6217 75C69.455 91.6667 72.2217 127.4 100.622 137C83.6217 132.333 54.0217 113.4 71.6217 75ZM70.7877 78.1914C63.6737 95.7438 66.7228 108.925 73.5514 118.356C78.1575 124.718 84.505 129.398 90.6832 132.559C82.301 126.697 77.165 117.978 74.1832 108.805C70.6698 97.9954 70.1277 86.5105 70.7877 78.1914Z" fill="url(#paint1_linear_7647_1439)"/>
</g>
<defs>
<filter id="filter0_dd_7647_1439" x="48.0237" y="12.4204" width="139.781" height="116.555" filterUnits="userSpaceOnUse" color-interpolation-filters="sRGB">
<feFlood flood-opacity="0" result="BackgroundImageFix"/>
<feColorMatrix in="SourceAlpha" type="matrix" values="0 0 0 0 0 0 0 0 0 0 0 0 0 0 0 0 0 0 127 0" result="hardAlpha"/>
<feOffset dy="4"/>
<feGaussianBlur stdDeviation="8"/>
<feComposite in2="hardAlpha" operator="out"/>
<feColorMatrix type="matrix" values="0 0 0 0 0 0 0 0 0 0 0 0 0 0 0 0 0 0 0.14 0"/>
<feBlend mode="normal" in2="BackgroundImageFix" result="effect1_dropShadow_7647_1439"/>
<feColorMatrix in="SourceAlpha" type="matrix" values="0 0 0 0 0 0 0 0 0 0 0 0 0 0 0 0 0 0 127 0" result="hardAlpha"/>
<feOffset dy="1"/>
<feGaussianBlur stdDeviation="0.5"/>
<feComposite in2="hardAlpha" operator="out"/>
<feColorMatrix type="matrix" values="0 0 0 0 0 0 0 0 0 0 0 0 0 0 0 0 0 0 0.08 0"/>
<feBlend mode="normal" in2="effect1_dropShadow_7647_1439" result="effect2_dropShadow_7647_1439"/>
<feBlend mode="normal" in="SourceGraphic" in2="effect2_dropShadow_7647_1439" result="shape"/>
</filter>
<filter id="filter1_dd_7647_1439" x="58.2207" y="67" width="50.4009" height="78" filterUnits="userSpaceOnUse" color-interpolation-filters="sRGB">
<feFlood flood-opacity="0" result="BackgroundImageFix"/>
<feColorMatrix in="SourceAlpha" type="matrix" values="0 0 0 0 0 0 0 0 0 0 0 0 0 0 0 0 0 0 127 0" result="hardAlpha"/>
<feOffset/>
<feGaussianBlur stdDeviation="4"/>
<feComposite in2="hardAlpha" operator="out"/>
<feColorMatrix type="matrix" values="0 0 0 0 0.98415 0 0 0 0 0.859671 0 0 0 0 0.486234 0 0 0 1 0"/>
<feBlend mode="normal" in2="BackgroundImageFix" result="effect1_dropShadow_7647_1439"/>
<feColorMatrix in="SourceAlpha" type="matrix" values="0 0 0 0 0 0 0 0 0 0 0 0 0 0 0 0 0 0 127 0" result="hardAlpha"/>
<feOffset/>
<feGaussianBlur stdDeviation="1"/>
<feComposite in2="hardAlpha" operator="out"/>
<feColorMatrix type="matrix" values="0 0 0 0 0 0 0 0 0 0 0 0 0 0 0 0 0 0 0.08 0"/>
<feBlend mode="normal" in2="effect1_dropShadow_7647_1439" result="effect2_dropShadow_7647_1439"/>
<feBlend mode="normal" in="SourceGraphic" in2="effect2_dropShadow_7647_1439" result="shape"/>
</filter>
<linearGradient id="paint0_linear_7647_1439" x1="88.811" y1="65.9134" x2="103.483" y2="122.835" gradientUnits="userSpaceOnUse">
<stop stop-color="#FFE79E"/>
<stop offset="1" stop-color="#FFD452"/>
</linearGradient>
<linearGradient id="paint1_linear_7647_1439" x1="66.2207" y1="106" x2="100.622" y2="106" gradientUnits="userSpaceOnUse">
<stop stop-color="#FFEAAA"/>
<stop offset="1" stop-color="#FFE7A1"/>
</linearGradient>
</defs>
</svg>
