<svg width="230" height="160" viewBox="0 0 230 160" fill="none" xmlns="http://www.w3.org/2000/svg">
<path d="M166.1 80.4C166.1 94.6 160.3 107.4 151 116.6C141.9 125.7 129.3 131.2 115.4 131.2C101.6 131.2 89 125.6 79.7999 116.6C70.4999 107.4 64.7 94.6 64.7 80.4C64.7 52.3 87.4 29.6 115.4 29.6C143.4 29.6 166.1 52.4 166.1 80.4Z" fill="#242424"/>
<path d="M171.351 61.1305C173.616 61.1305 175.451 59.2949 175.451 57.0305C175.451 54.7662 173.616 52.9305 171.351 52.9305C169.087 52.9305 167.251 54.7662 167.251 57.0305C167.251 59.2949 169.087 61.1305 171.351 61.1305Z" fill="#5C5C5C"/>
<path d="M167.7 31.1C169.246 31.1 170.5 29.8464 170.5 28.3C170.5 26.7536 169.246 25.5 167.7 25.5C166.154 25.5 164.9 26.7536 164.9 28.3C164.9 29.8464 166.154 31.1 167.7 31.1Z" fill="#5C5C5C"/>
<path d="M66.3 47C67.8464 47 69.1 45.7464 69.1 44.2C69.1 42.6536 67.8464 41.4 66.3 41.4C64.7536 41.4 63.5 42.6536 63.5 44.2C63.5 45.7464 64.7536 47 66.3 47Z" fill="#5C5C5C"/>
<path d="M49.2 101C52.0719 101 54.4 98.6719 54.4 95.8C54.4 92.9281 52.0719 90.6 49.2 90.6C46.3281 90.6 44 92.9281 44 95.8C44 98.6719 46.3281 101 49.2 101Z" fill="#5C5C5C"/>
<path d="M153.843 50.4931L149.673 80.7861L144.46 118.217C143.244 118.914 141.853 119.436 140.463 119.436H80.3407C77.7342 119.436 75.4753 118.565 73.5638 117.173C73.0425 116.824 72.5213 116.302 72 115.78C69.9148 113.691 68.5247 110.557 68.5247 107.249V42.4846C68.5247 39.525 70.9574 37.2617 73.7376 37.2617H91.9829C93.1993 37.2617 94.4156 37.784 95.4582 38.8286L101.366 45.2702C102.235 46.1407 103.451 46.663 104.668 46.663H150.368C152.453 46.663 154.017 48.404 153.843 50.4931Z" fill="url(#paint0_linear_3868_35015)"/>
<g filter="url(#filter0_d_3868_35015)">
<path d="M77.3867 112.82L82.2521 56.5866C82.4259 54.4974 84.1636 52.9305 86.2487 52.9305H155.407C157.319 52.9305 158.709 54.4974 158.535 56.4125L153.67 104.289L77.3867 112.82Z" fill="url(#paint1_linear_3868_35015)"/>
</g>
<g filter="url(#filter1_d_3868_35015)">
<path d="M105.015 106.727L79.6455 112.646L95.2843 69.6439C95.9794 67.7288 97.7171 66.5101 99.8022 66.5101H161.141C163.4 66.5101 164.964 68.9475 163.921 71.0367L147.24 105.16L105.015 106.727Z" fill="url(#paint2_linear_3868_35015)"/>
</g>
<path d="M169.829 84.9645L146.545 116.302C146.024 116.998 145.155 117.695 144.46 118.217C143.243 118.913 141.853 119.436 140.463 119.436H80.3406C77.7341 119.436 75.4751 118.565 73.5637 117.173L97.8908 88.7946H136.119C137.857 88.7946 139.594 88.2723 140.985 87.0536L147.588 82.0048C148.283 81.4825 148.978 81.1343 149.673 80.7861C150.542 80.4379 151.584 80.2638 152.453 80.2638H167.397C169.829 80.0897 171.22 83.0494 169.829 84.9645Z" fill="url(#paint3_linear_3868_35015)"/>
<path d="M131.793 113.742C131.451 115.198 130.937 116.74 130.337 118.025C128.71 121.194 126.14 123.678 122.97 125.306C119.715 126.933 115.861 127.619 112.006 126.762C102.926 124.878 97.1009 115.969 98.9854 106.889C100.87 97.8088 109.693 91.8982 118.773 93.8684C122.028 94.5537 124.855 96.1813 127.253 98.4084C131.279 102.434 132.993 108.259 131.793 113.742Z" fill="url(#paint4_linear_3868_35015)"/>
<g filter="url(#filter2_d_3868_35015)">
<path d="M121.552 109.203L116.58 103.953C116.545 103.916 116.503 103.88 116.469 103.843C116.462 103.843 116.462 103.836 116.455 103.836C116.42 103.806 116.385 103.777 116.344 103.748C116.337 103.74 116.33 103.74 116.33 103.733C116.295 103.711 116.253 103.682 116.219 103.66C116.212 103.66 116.205 103.652 116.198 103.652C116.156 103.63 116.122 103.608 116.08 103.594C116.073 103.594 116.073 103.586 116.066 103.586C116.024 103.572 115.983 103.557 115.941 103.542C115.934 103.542 115.934 103.542 115.927 103.542C115.885 103.528 115.837 103.52 115.795 103.506H115.788C115.747 103.498 115.698 103.491 115.649 103.484H115.642C115.594 103.484 115.552 103.484 115.503 103.484C115.455 103.484 115.413 103.484 115.365 103.491H115.358C115.309 103.498 115.267 103.506 115.219 103.513H115.212C115.17 103.52 115.122 103.535 115.08 103.55C115.073 103.55 115.073 103.55 115.066 103.55C115.024 103.564 114.983 103.579 114.941 103.594C114.934 103.594 114.927 103.601 114.927 103.601C114.885 103.616 114.851 103.638 114.809 103.66C114.802 103.66 114.795 103.667 114.788 103.667C114.747 103.689 114.712 103.711 114.677 103.74C114.67 103.748 114.663 103.748 114.663 103.755C114.628 103.784 114.587 103.814 114.552 103.843C114.545 103.843 114.545 103.85 114.538 103.85C114.497 103.887 114.462 103.916 114.427 103.96L109.448 109.203C108.851 109.834 108.851 110.853 109.448 111.483C109.747 111.799 110.135 111.953 110.531 111.953C110.92 111.953 111.316 111.799 111.615 111.483L113.976 108.99V116.871C113.976 117.765 114.656 118.484 115.503 118.484C116.351 118.484 117.031 117.765 117.031 116.871V108.99L119.392 111.483C119.99 112.114 120.955 112.114 121.552 111.483C122.149 110.86 122.149 109.834 121.552 109.203Z" fill="#252525"/>
</g>
<defs>
<filter id="filter0_d_3868_35015" x="55.3867" y="34.9305" width="125.163" height="103.89" filterUnits="userSpaceOnUse" color-interpolation-filters="sRGB">
<feFlood flood-opacity="0" result="BackgroundImageFix"/>
<feColorMatrix in="SourceAlpha" type="matrix" values="0 0 0 0 0 0 0 0 0 0 0 0 0 0 0 0 0 0 127 0" result="hardAlpha"/>
<feOffset dy="4"/>
<feGaussianBlur stdDeviation="11"/>
<feComposite in2="hardAlpha" operator="out"/>
<feColorMatrix type="matrix" values="0 0 0 0 0 0 0 0 0 0 0 0 0 0 0 0 0 0 0.6 0"/>
<feBlend mode="normal" in2="BackgroundImageFix" result="effect1_dropShadow_3868_35015"/>
<feBlend mode="normal" in="SourceGraphic" in2="effect1_dropShadow_3868_35015" result="shape"/>
</filter>
<filter id="filter1_d_3868_35015" x="57.6455" y="48.5101" width="128.606" height="90.1359" filterUnits="userSpaceOnUse" color-interpolation-filters="sRGB">
<feFlood flood-opacity="0" result="BackgroundImageFix"/>
<feColorMatrix in="SourceAlpha" type="matrix" values="0 0 0 0 0 0 0 0 0 0 0 0 0 0 0 0 0 0 127 0" result="hardAlpha"/>
<feOffset dy="4"/>
<feGaussianBlur stdDeviation="11"/>
<feComposite in2="hardAlpha" operator="out"/>
<feColorMatrix type="matrix" values="0 0 0 0 0 0 0 0 0 0 0 0 0 0 0 0 0 0 0.6 0"/>
<feBlend mode="normal" in2="BackgroundImageFix" result="effect1_dropShadow_3868_35015"/>
<feBlend mode="normal" in="SourceGraphic" in2="effect1_dropShadow_3868_35015" result="shape"/>
</filter>
<filter id="filter2_d_3868_35015" x="94" y="93.4838" width="33" height="35" filterUnits="userSpaceOnUse" color-interpolation-filters="sRGB">
<feFlood flood-opacity="0" result="BackgroundImageFix"/>
<feColorMatrix in="SourceAlpha" type="matrix" values="0 0 0 0 0 0 0 0 0 0 0 0 0 0 0 0 0 0 127 0" result="hardAlpha"/>
<feOffset dx="-5"/>
<feGaussianBlur stdDeviation="5"/>
<feColorMatrix type="matrix" values="0 0 0 0 0.397708 0 0 0 0 0.47749 0 0 0 0 0.575 0 0 0 0.2 0"/>
<feBlend mode="normal" in2="BackgroundImageFix" result="effect1_dropShadow_3868_35015"/>
<feBlend mode="normal" in="SourceGraphic" in2="effect1_dropShadow_3868_35015" result="shape"/>
</filter>
<linearGradient id="paint0_linear_3868_35015" x1="111.191" y1="37.2617" x2="111.191" y2="119.436" gradientUnits="userSpaceOnUse">
<stop stop-color="#363636"/>
<stop offset="1" stop-color="#1D1D1D"/>
</linearGradient>
<linearGradient id="paint1_linear_3868_35015" x1="117.942" y1="51.5452" x2="117.942" y2="113.466" gradientUnits="userSpaceOnUse">
<stop stop-color="#5C5C5C"/>
<stop offset="0.9964" stop-color="#4D4D4D"/>
</linearGradient>
<linearGradient id="paint2_linear_3868_35015" x1="121.921" y1="65.443" x2="121.921" y2="113.143" gradientUnits="userSpaceOnUse">
<stop stop-color="#515151"/>
<stop offset="0.9964" stop-color="#4D4D4D"/>
</linearGradient>
<linearGradient id="paint3_linear_3868_35015" x1="121.973" y1="80.2565" x2="121.973" y2="119.436" gradientUnits="userSpaceOnUse">
<stop stop-color="#3E3E3E"/>
<stop offset="1" stop-color="#282828"/>
</linearGradient>
<linearGradient id="paint4_linear_3868_35015" x1="115.4" y1="93.4893" x2="115.4" y2="127.133" gradientUnits="userSpaceOnUse">
<stop stop-color="#FAFAFA"/>
<stop offset="0.828125" stop-color="#F5F2EC"/>
</linearGradient>
</defs>
</svg>
