<svg width="230" height="160" viewBox="0 0 230 160" fill="none" xmlns="http://www.w3.org/2000/svg">
<path d="M118.676 142C153.169 142 181.131 114.018 181.131 79.5C181.131 44.9822 153.169 17 118.676 17C84.1828 17 56.2207 44.9822 56.2207 79.5C56.2207 114.018 84.1828 142 118.676 142Z" fill="#EBEBEB"/>
<g filter="url(#filter0_dd_6637_438)">
<path d="M67.3497 65.1849C68.2084 64.5811 69.3204 64.4705 70.2815 64.8925L157.958 103.382C159.959 104.261 160.38 106.917 158.747 108.37L127.823 135.893C126.833 136.773 125.383 136.901 124.255 136.207L43.9372 86.7655C42.1018 85.6357 42.0211 82.9964 43.784 81.7565L67.3497 65.1849ZM69.4772 66.7235C69.1569 66.583 68.7864 66.6201 68.5003 66.8212L44.9345 83.3919C44.3468 83.8052 44.374 84.6849 44.9859 85.0615L125.303 134.503C125.679 134.734 126.163 134.692 126.492 134.399L157.417 106.876C157.961 106.392 157.821 105.507 157.155 105.214L69.4772 66.7235Z" fill="url(#paint0_radial_6637_438)"/>
</g>
<g filter="url(#filter1_dd_6637_438)">
<path d="M100.488 38.5054C101.4 37.7594 102.664 37.6168 103.72 38.1402L183.965 77.9236C185.849 78.8578 186.212 81.3902 184.667 82.8162L168.29 97.9199C167.405 98.7359 166.118 98.9441 165.021 98.4484L80.6674 60.3221C78.639 59.4053 78.28 56.6761 80.0025 55.2663L100.488 38.5054ZM102.831 39.9313C102.479 39.7571 102.058 39.8054 101.754 40.054L81.269 56.8139C80.6949 57.2839 80.8148 58.1939 81.4909 58.4995L165.845 96.6258C166.211 96.7911 166.64 96.7214 166.935 96.4493L183.31 81.3466C183.825 80.8713 183.704 80.0271 183.076 79.7157L102.831 39.9313Z" fill="url(#paint1_radial_6637_438)"/>
</g>
<path d="M182.221 75.5H187.221C188.049 75.5 188.721 76.1716 188.721 77V82C188.721 82.8284 188.049 83.5 187.221 83.5H182.221C181.392 83.5 180.721 82.8284 180.721 82V77C180.721 76.1716 181.392 75.5 182.221 75.5Z" fill="#717171" stroke="url(#paint2_linear_6637_438)"/>
<path d="M78.2207 53.5H83.2207C84.0491 53.5 84.7207 54.1716 84.7207 55V60C84.7207 60.8284 84.0491 61.5 83.2207 61.5H78.2207C77.3923 61.5 76.7207 60.8284 76.7207 60V55C76.7207 54.1716 77.3923 53.5 78.2207 53.5Z" fill="#717171" stroke="url(#paint3_linear_6637_438)"/>
<path d="M99.2207 35.5H104.221C105.049 35.5 105.721 36.1716 105.721 37V42C105.721 42.8284 105.049 43.5 104.221 43.5H99.2207C98.3923 43.5 97.7207 42.8284 97.7207 42V37C97.7207 36.1716 98.3923 35.5 99.2207 35.5Z" fill="#717171" stroke="url(#paint4_linear_6637_438)"/>
<g filter="url(#filter2_dd_6637_438)">
<path d="M100.395 56.3332L166.667 48.078L137.616 80.7259L120.407 68.9113L113.95 79.3362L113.143 65.0394L100.395 56.3332Z" fill="url(#paint5_linear_6637_438)"/>
<path d="M100.395 56.3332L166.667 48.078L137.616 80.7259L120.407 68.9113L113.95 79.3362L113.143 65.0394L100.395 56.3332Z" fill="url(#paint6_linear_6637_438)" fill-opacity="0.2"/>
<path d="M100.395 56.3332L166.667 48.078L137.616 80.7259L120.407 68.9113L113.95 79.3362L113.143 65.0394L100.395 56.3332Z" fill="url(#paint7_linear_6637_438)" fill-opacity="0.2"/>
</g>
<path opacity="0.3" d="M166.667 48.0779L113.584 64.9293L114.342 79.3939L120.759 68.9631L166.667 48.0779Z" fill="#090808"/>
<path d="M101.659 123.909C102.029 123.664 102.528 123.765 102.773 124.136C103.019 124.506 102.918 125.005 102.547 125.251C102.17 125.5 101.797 125.726 101.433 125.924L101.073 126.113C100.415 126.444 99.7304 126.693 99.0273 126.866L98.9465 126.882C98.5426 126.939 98.1528 126.682 98.0532 126.277C97.9472 125.846 98.2111 125.41 98.6423 125.304L98.8628 125.247C99.3752 125.106 99.8716 124.917 100.348 124.676L100.663 124.511C100.983 124.336 101.317 124.135 101.659 123.909ZM90.2534 124.928C90.4102 124.542 90.8322 124.344 91.2235 124.458L91.3017 124.485L91.7577 124.663C92.6725 125.004 93.5944 125.256 94.5043 125.406L94.9583 125.472L95.0396 125.487C95.4367 125.579 95.7068 125.959 95.6541 126.372C95.6014 126.785 95.2443 127.085 94.8367 127.075L94.7544 127.069L94.2438 126.993C93.2212 126.825 92.1984 126.544 91.1958 126.17L90.6962 125.976L90.6214 125.941C90.261 125.75 90.0967 125.314 90.2534 124.928ZM106.06 119.566C106.32 119.252 106.78 119.178 107.127 119.409C107.497 119.656 107.596 120.155 107.35 120.525L107.106 120.879C106.525 121.697 105.865 122.45 105.172 123.126C104.855 123.436 104.346 123.43 104.035 123.112C103.725 122.794 103.731 122.285 104.049 121.975C104.771 121.27 105.445 120.482 106.011 119.633L106.06 119.566ZM84.9336 120.251C85.7232 121.031 86.5928 121.758 87.5167 122.407L87.9161 122.68L87.9824 122.729C88.2968 122.989 88.3701 123.449 88.139 123.796C87.9078 124.142 87.454 124.251 87.0937 124.06L87.0232 124.018L86.5924 123.723C85.5958 123.023 84.6567 122.24 83.8025 121.395L84.9336 120.251ZM83.7955 120.258C84.1078 119.942 84.6176 119.939 84.9336 120.251L83.8025 121.395C83.4866 121.083 83.4834 120.574 83.7955 120.258ZM108.87 113.207C109.048 113.97 109.169 114.752 109.223 115.551L109.224 115.624L109.219 115.696C109.152 116.285 109.028 116.861 108.856 117.42L108.827 117.497C108.668 117.873 108.248 118.075 107.85 117.952C107.425 117.821 107.187 117.371 107.318 116.946L107.418 116.592C107.505 116.259 107.569 115.923 107.611 115.584C107.561 114.902 107.457 114.231 107.303 113.572L108.87 113.207ZM80.8811 113.479C81.0491 114.221 81.2885 114.943 81.607 115.638L81.8074 116.055C81.947 116.332 82.0989 116.609 82.2621 116.883L82.5148 117.293L82.5558 117.365C82.7398 117.729 82.6224 118.18 82.272 118.404C81.9212 118.629 81.4617 118.547 81.2082 118.228L81.1604 118.161L80.8787 117.706C80.697 117.4 80.5273 117.091 80.3701 116.778L80.1441 116.308C79.7766 115.507 79.5023 114.678 79.3112 113.834L80.8811 113.479ZM107.904 112.607C108.337 112.506 108.769 112.775 108.87 113.207L107.303 113.572C107.203 113.14 107.472 112.708 107.904 112.607ZM79.9183 112.872C80.3517 112.774 80.783 113.045 80.8811 113.479L79.3112 113.834C79.2133 113.401 79.4852 112.97 79.9183 112.872ZM104.564 105.01C105.409 106.026 106.204 107.134 106.892 108.323L107.18 108.837L107.215 108.911C107.372 109.288 107.222 109.729 106.856 109.927C106.489 110.126 106.037 110.011 105.808 109.673L105.766 109.603L105.499 109.129C104.863 108.03 104.122 106.995 103.327 106.038L103.946 105.524L104.564 105.01ZM80.2235 103.685C80.3944 103.314 80.821 103.127 81.2148 103.262C81.6349 103.407 81.8586 103.864 81.7141 104.285L81.5268 104.851C81.1066 106.177 80.8053 107.53 80.6627 108.871C80.6157 109.313 80.2193 109.634 79.7776 109.587C79.3358 109.54 79.0154 109.143 79.0623 108.702C79.2401 107.03 79.6417 105.362 80.1924 103.761L80.2235 103.685ZM103.431 104.905C103.772 104.621 104.28 104.668 104.564 105.01L103.327 106.038C103.043 105.697 103.089 105.189 103.431 104.905ZM96.6198 99.2559C96.8442 98.905 97.2957 98.7867 97.6597 98.9704L97.731 99.0113L98.1863 99.3083C98.6413 99.6107 99.0957 99.9301 99.549 100.267L99.9871 100.6C100.282 100.829 100.582 101.071 100.885 101.325L101.341 101.716L101.4 101.773C101.678 102.071 101.691 102.537 101.417 102.851C101.143 103.164 100.679 103.214 100.347 102.978L100.282 102.927L99.8498 102.557C99.5633 102.316 99.2798 102.087 99.0015 101.872L98.5884 101.558C98.1574 101.238 97.7267 100.935 97.2959 100.648L96.8652 100.367L96.7975 100.32C96.4779 100.066 96.3956 99.6068 96.6198 99.2559ZM81.3894 94.8286C82.683 94.766 83.9658 94.7735 85.2397 94.864C85.3069 94.8688 85.3716 94.8823 85.4328 94.9023C85.5827 94.9058 85.7335 94.9509 85.8666 95.0417C86.2334 95.2922 86.3282 95.7928 86.0778 96.1598L84.8892 97.915C84.4622 98.5546 84.0464 99.2343 83.653 99.9459C83.438 100.335 82.9488 100.476 82.56 100.261C82.1713 100.046 82.0303 99.5567 82.2449 99.1679C82.6606 98.4161 83.1003 97.6964 83.5528 97.0189L83.5542 97.0172L83.964 96.411C83.1392 96.3861 82.3073 96.3953 81.4673 96.4359L80.9362 96.4652L80.8535 96.466C80.4462 96.4505 80.1082 96.1287 80.0818 95.7131C80.0538 95.2698 80.3908 94.8877 80.834 94.8595L81.3894 94.8286ZM88.6479 96.1252C88.7446 95.7199 89.1325 95.4602 89.5368 95.5144L89.6173 95.5295L90.1467 95.6617C91.2045 95.938 92.2561 96.2848 93.3027 96.7099L93.8253 96.9292L93.8993 96.9651C94.2554 97.1638 94.4102 97.6044 94.245 97.9868C94.0798 98.3689 93.6534 98.558 93.2649 98.4352L93.1873 98.4058L92.6972 98.2009C91.7161 97.8024 90.7311 97.4769 89.74 97.2181L89.2443 97.0946L89.1649 97.0716C88.7799 96.9374 88.5513 96.5303 88.6479 96.1252ZM68.0175 97.3103C68.4455 97.1912 68.8894 97.4418 69.0086 97.8698C69.1277 98.2978 68.877 98.7417 68.449 98.8609C68.109 98.9555 67.7674 99.0519 67.4244 99.15L66.3901 99.4493C65.9637 99.5739 65.5166 99.3286 65.392 98.9021C65.2677 98.4758 65.5123 98.0295 65.9385 97.9048L66.982 97.6026C67.3284 97.5035 67.6736 97.4061 68.0175 97.3103ZM72.5821 97.7932C72.1496 97.8945 71.7166 97.6259 71.6151 97.1934C71.5137 96.7609 71.7823 96.3279 72.2148 96.2265L72.5821 97.7932ZM76.4838 95.3662C76.9222 95.2942 77.3366 95.5909 77.4086 96.0294C77.4806 96.4678 77.183 96.8814 76.7446 96.9534C75.3809 97.1773 73.9948 97.4621 72.5821 97.7932L72.3988 97.0094L72.2148 96.2265C73.6556 95.8889 75.0779 95.597 76.4838 95.3662ZM88.4901 92.7052C88.2308 93.0656 87.7284 93.1475 87.3678 92.8883C87.0071 92.629 86.9248 92.1267 87.1839 91.766L88.4901 92.7052ZM89.7507 88.3483C90.0265 88 90.5322 87.9417 90.8805 88.2174C91.2288 88.4932 91.2879 88.9988 91.0121 89.3471C90.1987 90.3745 89.3648 91.4884 88.4901 92.7052L87.1839 91.766C88.0695 90.534 88.9183 89.3995 89.7507 88.3483ZM93.7183 86.1751C93.4157 86.5005 92.9062 86.5194 92.5809 86.2168C92.2556 85.9142 92.2375 85.4047 92.5401 85.0794L93.7183 86.1751ZM95.6537 82.0785C95.9912 81.7899 96.4991 81.8296 96.788 82.167C97.0766 82.5045 97.0369 83.0124 96.6995 83.3013C95.6753 84.1782 94.6943 85.1258 93.7183 86.1751L92.5401 85.0794C93.554 83.9893 94.5791 82.9986 95.6537 82.0785ZM102.894 77.238C103.271 77.0836 103.711 77.2372 103.907 77.6046C104.116 77.9966 103.968 78.4838 103.576 78.6929L102.627 79.2117C101.697 79.7331 100.827 80.2625 100.002 80.8106C99.6315 81.0563 99.1324 80.9555 98.8866 80.5853C98.641 80.2152 98.7417 79.716 99.1118 79.4703C100.261 78.7072 101.486 77.9834 102.819 77.2729L102.894 77.238ZM108.697 74.489C109.086 74.3658 109.512 74.555 109.678 74.9374C109.843 75.3197 109.688 75.7595 109.332 75.9582L109.258 75.9946C108.591 76.2827 107.951 76.5671 107.333 76.8489C106.929 77.0332 106.452 76.8551 106.267 76.4511C106.083 76.047 106.261 75.5696 106.665 75.3851C107.294 75.0983 107.945 74.8097 108.62 74.5177L108.697 74.489Z" fill="#B7B4AF"/>
<g filter="url(#filter3_dd_6637_438)">
<path d="M162.221 95C162.221 93.8954 163.116 93 164.221 93H169.221C170.325 93 171.221 93.8954 171.221 95V100C171.221 101.105 170.325 102 169.221 102H164.221C163.116 102 162.221 101.105 162.221 100V95Z" fill="url(#paint8_linear_6637_438)"/>
<path d="M164.221 93.5H169.221C170.049 93.5 170.721 94.1716 170.721 95V100C170.721 100.828 170.049 101.5 169.221 101.5H164.221C163.392 101.5 162.721 100.828 162.721 100V95C162.721 94.1716 163.392 93.5 164.221 93.5Z" stroke="url(#paint9_linear_6637_438)"/>
<path d="M164.221 93.5H169.221C170.049 93.5 170.721 94.1716 170.721 95V100C170.721 100.828 170.049 101.5 169.221 101.5H164.221C163.392 101.5 162.721 100.828 162.721 100V95C162.721 94.1716 163.392 93.5 164.221 93.5Z" stroke="#FCF4DA"/>
</g>
<defs>
<filter id="filter0_dd_6637_438" x="26.5098" y="52.6392" width="149.243" height="104.013" filterUnits="userSpaceOnUse" color-interpolation-filters="sRGB">
<feFlood flood-opacity="0" result="BackgroundImageFix"/>
<feColorMatrix in="SourceAlpha" type="matrix" values="0 0 0 0 0 0 0 0 0 0 0 0 0 0 0 0 0 0 127 0" result="hardAlpha"/>
<feOffset dy="4"/>
<feGaussianBlur stdDeviation="8"/>
<feComposite in2="hardAlpha" operator="out"/>
<feColorMatrix type="matrix" values="0 0 0 0 0 0 0 0 0 0 0 0 0 0 0 0 0 0 0.16 0"/>
<feBlend mode="normal" in2="BackgroundImageFix" result="effect1_dropShadow_6637_438"/>
<feColorMatrix in="SourceAlpha" type="matrix" values="0 0 0 0 0 0 0 0 0 0 0 0 0 0 0 0 0 0 127 0" result="hardAlpha"/>
<feOffset dy="1"/>
<feGaussianBlur stdDeviation="0.5"/>
<feComposite in2="hardAlpha" operator="out"/>
<feColorMatrix type="matrix" values="0 0 0 0 0 0 0 0 0 0 0 0 0 0 0 0 0 0 0.08 0"/>
<feBlend mode="normal" in2="effect1_dropShadow_6637_438" result="effect2_dropShadow_6637_438"/>
<feBlend mode="normal" in="SourceGraphic" in2="effect2_dropShadow_6637_438" result="shape"/>
</filter>
<filter id="filter1_dd_6637_438" x="62.9023" y="25.8276" width="138.73" height="92.8867" filterUnits="userSpaceOnUse" color-interpolation-filters="sRGB">
<feFlood flood-opacity="0" result="BackgroundImageFix"/>
<feColorMatrix in="SourceAlpha" type="matrix" values="0 0 0 0 0 0 0 0 0 0 0 0 0 0 0 0 0 0 127 0" result="hardAlpha"/>
<feOffset dy="4"/>
<feGaussianBlur stdDeviation="8"/>
<feComposite in2="hardAlpha" operator="out"/>
<feColorMatrix type="matrix" values="0 0 0 0 0 0 0 0 0 0 0 0 0 0 0 0 0 0 0.16 0"/>
<feBlend mode="normal" in2="BackgroundImageFix" result="effect1_dropShadow_6637_438"/>
<feColorMatrix in="SourceAlpha" type="matrix" values="0 0 0 0 0 0 0 0 0 0 0 0 0 0 0 0 0 0 127 0" result="hardAlpha"/>
<feOffset dy="1"/>
<feGaussianBlur stdDeviation="0.5"/>
<feComposite in2="hardAlpha" operator="out"/>
<feColorMatrix type="matrix" values="0 0 0 0 0 0 0 0 0 0 0 0 0 0 0 0 0 0 0.08 0"/>
<feBlend mode="normal" in2="effect1_dropShadow_6637_438" result="effect2_dropShadow_6637_438"/>
<feBlend mode="normal" in="SourceGraphic" in2="effect2_dropShadow_6637_438" result="shape"/>
</filter>
<filter id="filter2_dd_6637_438" x="84.3955" y="36.0781" width="98.2715" height="64.6479" filterUnits="userSpaceOnUse" color-interpolation-filters="sRGB">
<feFlood flood-opacity="0" result="BackgroundImageFix"/>
<feColorMatrix in="SourceAlpha" type="matrix" values="0 0 0 0 0 0 0 0 0 0 0 0 0 0 0 0 0 0 127 0" result="hardAlpha"/>
<feOffset dy="4"/>
<feGaussianBlur stdDeviation="8"/>
<feComposite in2="hardAlpha" operator="out"/>
<feColorMatrix type="matrix" values="0 0 0 0 0 0 0 0 0 0 0 0 0 0 0 0 0 0 0.14 0"/>
<feBlend mode="normal" in2="BackgroundImageFix" result="effect1_dropShadow_6637_438"/>
<feColorMatrix in="SourceAlpha" type="matrix" values="0 0 0 0 0 0 0 0 0 0 0 0 0 0 0 0 0 0 127 0" result="hardAlpha"/>
<feOffset dy="1"/>
<feGaussianBlur stdDeviation="0.5"/>
<feComposite in2="hardAlpha" operator="out"/>
<feColorMatrix type="matrix" values="0 0 0 0 0 0 0 0 0 0 0 0 0 0 0 0 0 0 0.08 0"/>
<feBlend mode="normal" in2="effect1_dropShadow_6637_438" result="effect2_dropShadow_6637_438"/>
<feBlend mode="normal" in="SourceGraphic" in2="effect2_dropShadow_6637_438" result="shape"/>
</filter>
<filter id="filter3_dd_6637_438" x="132.221" y="63" width="69" height="69" filterUnits="userSpaceOnUse" color-interpolation-filters="sRGB">
<feFlood flood-opacity="0" result="BackgroundImageFix"/>
<feColorMatrix in="SourceAlpha" type="matrix" values="0 0 0 0 0 0 0 0 0 0 0 0 0 0 0 0 0 0 127 0" result="hardAlpha"/>
<feMorphology radius="6" operator="dilate" in="SourceAlpha" result="effect1_dropShadow_6637_438"/>
<feOffset/>
<feGaussianBlur stdDeviation="12"/>
<feComposite in2="hardAlpha" operator="out"/>
<feColorMatrix type="matrix" values="0 0 0 0 0.98415 0 0 0 0 0.859671 0 0 0 0 0.486234 0 0 0 1 0"/>
<feBlend mode="normal" in2="BackgroundImageFix" result="effect1_dropShadow_6637_438"/>
<feColorMatrix in="SourceAlpha" type="matrix" values="0 0 0 0 0 0 0 0 0 0 0 0 0 0 0 0 0 0 127 0" result="hardAlpha"/>
<feOffset dy="2"/>
<feGaussianBlur stdDeviation="4"/>
<feComposite in2="hardAlpha" operator="out"/>
<feColorMatrix type="matrix" values="0 0 0 0 0 0 0 0 0 0 0 0 0 0 0 0 0 0 0.08 0"/>
<feBlend mode="normal" in2="effect1_dropShadow_6637_438" result="effect2_dropShadow_6637_438"/>
<feBlend mode="normal" in="SourceGraphic" in2="effect2_dropShadow_6637_438" result="shape"/>
</filter>
<radialGradient id="paint0_radial_6637_438" cx="0" cy="0" r="1" gradientTransform="matrix(-104.5 24.5 -11.0162 -71.16 156.721 85.5)" gradientUnits="userSpaceOnUse">
<stop offset="0.344591" stop-color="#FFF9E6"/>
<stop offset="1" stop-color="#959494"/>
</radialGradient>
<radialGradient id="paint1_radial_6637_438" cx="0" cy="0" r="1" gradientTransform="matrix(-80.637 -53.2715 42.1533 -48.6807 187.101 98.2584)" gradientUnits="userSpaceOnUse">
<stop offset="0.344591" stop-color="#FFF9E6"/>
<stop offset="1" stop-color="#959494"/>
</radialGradient>
<linearGradient id="paint2_linear_6637_438" x1="183.572" y1="75" x2="184.989" y2="84.4453" gradientUnits="userSpaceOnUse">
<stop stop-color="#C2C2C2"/>
<stop offset="1" stop-color="#FFEFBF"/>
</linearGradient>
<linearGradient id="paint3_linear_6637_438" x1="79.5719" y1="53" x2="80.9887" y2="62.4453" gradientUnits="userSpaceOnUse">
<stop stop-color="#C2C2C2"/>
<stop offset="1" stop-color="#FFEFBF"/>
</linearGradient>
<linearGradient id="paint4_linear_6637_438" x1="100.572" y1="35" x2="101.989" y2="44.4453" gradientUnits="userSpaceOnUse">
<stop stop-color="#C2C2C2"/>
<stop offset="1" stop-color="#FFEFBF"/>
</linearGradient>
<linearGradient id="paint5_linear_6637_438" x1="89.3167" y1="50.8999" x2="91.1679" y2="77.004" gradientUnits="userSpaceOnUse">
<stop offset="0.0036" stop-color="#ADACAC"/>
<stop offset="1" stop-color="#FEF7E4"/>
</linearGradient>
<linearGradient id="paint6_linear_6637_438" x1="119.144" y1="49.7537" x2="95.5949" y2="66.5251" gradientUnits="userSpaceOnUse">
<stop stop-color="#FFEAAA" stop-opacity="0"/>
<stop offset="1" stop-color="#FFCC33"/>
</linearGradient>
<linearGradient id="paint7_linear_6637_438" x1="140.913" y1="65.439" x2="147.202" y2="76.1292" gradientUnits="userSpaceOnUse">
<stop stop-color="#FFEAAA" stop-opacity="0"/>
<stop offset="1" stop-color="#FFC000"/>
</linearGradient>
<linearGradient id="paint8_linear_6637_438" x1="164.096" y1="93.75" x2="168.971" y2="100.125" gradientUnits="userSpaceOnUse">
<stop stop-color="#FFE79E"/>
<stop offset="1" stop-color="#FFD452"/>
</linearGradient>
<linearGradient id="paint9_linear_6637_438" x1="162.221" y1="97.5" x2="171.221" y2="97.5" gradientUnits="userSpaceOnUse">
<stop stop-color="#FFEAAA"/>
<stop offset="1" stop-color="#FFE7A1"/>
</linearGradient>
</defs>
</svg>
