<svg width="230" height="160" viewBox="0 0 230 160" fill="none" xmlns="http://www.w3.org/2000/svg">
<path d="M118.055 142C152.548 142 180.51 114.018 180.51 79.5C180.51 44.9822 152.548 17 118.055 17C83.5622 17 55.6001 44.9822 55.6001 79.5C55.6001 114.018 83.5622 142 118.055 142Z" fill="#242424"/>
<path d="M66.7291 65.1849C67.5878 64.5811 68.6998 64.4705 69.6609 64.8925L157.337 103.382C159.339 104.261 159.759 106.917 158.126 108.37L127.202 135.893C126.213 136.773 124.762 136.901 123.634 136.207L43.3166 86.7655C41.4812 85.6357 41.4005 82.9964 43.1634 81.7565L66.7291 65.1849ZM68.8566 66.7235C68.5363 66.583 68.1658 66.6201 67.8797 66.8212L44.3138 83.3919C43.7261 83.8052 43.7534 84.6849 44.3653 85.0615L124.683 134.503C125.059 134.734 125.542 134.692 125.872 134.399L156.796 106.876C157.341 106.392 157.201 105.507 156.534 105.214L68.8566 66.7235Z" fill="#ECEAE3"/>
<path d="M66.7291 65.1849C67.5878 64.5811 68.6998 64.4705 69.6609 64.8925L157.337 103.382C159.339 104.261 159.759 106.917 158.126 108.37L127.202 135.893C126.213 136.773 124.762 136.901 123.634 136.207L43.3166 86.7655C41.4812 85.6357 41.4005 82.9964 43.1634 81.7565L66.7291 65.1849ZM68.8566 66.7235C68.5363 66.583 68.1658 66.6201 67.8797 66.8212L44.3138 83.3919C43.7261 83.8052 43.7534 84.6849 44.3653 85.0615L124.683 134.503C125.059 134.734 125.542 134.692 125.872 134.399L156.796 106.876C157.341 106.392 157.201 105.507 156.534 105.214L68.8566 66.7235Z" fill="url(#paint0_linear_6637_451)" fill-opacity="0.6"/>
<g filter="url(#filter0_dd_6637_451)">
<path d="M99.8671 38.5054C100.779 37.7594 102.043 37.6168 103.099 38.1402L183.344 77.9236C185.228 78.8578 185.592 81.3902 184.046 82.8162L167.67 97.9199C166.785 98.7359 165.498 98.9441 164.401 98.4484L80.0468 60.3221C78.0184 59.4053 77.6594 56.6761 79.3819 55.2663L99.8671 38.5054ZM102.211 39.9313C101.859 39.7571 101.437 39.8054 101.134 40.054L80.6484 56.8139C80.0743 57.2839 80.1942 58.1939 80.8703 58.4995L165.224 96.6258C165.59 96.7911 166.019 96.7214 166.314 96.4493L182.689 81.3466C183.205 80.8713 183.084 80.0271 182.456 79.7157L102.211 39.9313Z" fill="url(#paint1_linear_6637_451)"/>
</g>
<path d="M179 78C179 76.8954 179.895 76 181 76H186C187.105 76 188 76.8954 188 78V83C188 84.1046 187.105 85 186 85H181C179.895 85 179 84.1046 179 83V78Z" fill="url(#paint2_linear_6637_451)" stroke="url(#paint3_linear_6637_451)" stroke-miterlimit="10"/>
<rect x="75" y="53" width="9" height="9" rx="1" fill="url(#paint4_linear_6637_451)" stroke="url(#paint5_linear_6637_451)" stroke-miterlimit="10"/>
<rect x="97" y="36" width="9" height="9" rx="1" fill="url(#paint6_linear_6637_451)" stroke="url(#paint7_linear_6637_451)" stroke-miterlimit="10"/>
<g filter="url(#filter1_dd_6637_451)">
<path d="M99.7748 56.3332L166.046 48.078L136.996 80.7259L119.787 68.9113L113.329 79.3362L112.522 65.0394L99.7748 56.3332Z" fill="url(#paint8_linear_6637_451)"/>
<path d="M136.915 80.0637L120.07 68.4989L119.638 68.2022L119.362 68.6481L113.739 77.7247L113.022 65.0114L113.007 64.7655L112.804 64.6269L101.148 56.6654L164.79 48.7376L136.915 80.0637Z" stroke="url(#paint9_linear_6637_451)" stroke-opacity="0.2"/>
</g>
<path opacity="0.3" d="M166.046 48.0779L112.963 64.9293L113.721 79.3939L120.139 68.9631L166.046 48.0779Z" fill="#090808"/>
<path d="M101.038 123.909C101.409 123.664 101.907 123.765 102.153 124.136C102.398 124.506 102.297 125.005 101.927 125.251C101.55 125.5 101.176 125.726 100.813 125.924L100.452 126.113C99.7947 126.444 99.1098 126.693 98.4067 126.866L98.3259 126.882C97.922 126.939 97.5322 126.682 97.4326 126.277C97.3266 125.846 97.5905 125.41 98.0217 125.304L98.2422 125.247C98.7546 125.106 99.251 124.917 99.7275 124.676L100.042 124.511C100.363 124.336 100.697 124.135 101.038 123.909ZM89.6328 124.928C89.7896 124.542 90.2116 124.344 90.6029 124.458L90.6811 124.485L91.1371 124.663C92.0519 125.004 92.9738 125.256 93.8837 125.406L94.3377 125.472L94.419 125.487C94.8161 125.579 95.0862 125.959 95.0335 126.372C94.9808 126.785 94.6237 127.085 94.2161 127.075L94.1338 127.069L93.6232 126.993C92.6005 126.825 91.5778 126.544 90.5752 126.17L90.0756 125.976L90.0008 125.941C89.6404 125.75 89.4761 125.314 89.6328 124.928ZM105.44 119.566C105.699 119.252 106.16 119.178 106.506 119.409C106.876 119.656 106.976 120.155 106.729 120.525L106.485 120.879C105.905 121.697 105.244 122.45 104.552 123.126C104.234 123.436 103.725 123.43 103.415 123.112C103.104 122.794 103.11 122.285 103.428 121.975C104.15 121.27 104.825 120.482 105.391 119.633L105.44 119.566ZM84.313 120.251C85.1026 121.031 85.9722 121.758 86.8961 122.407L87.2955 122.68L87.3618 122.729C87.6761 122.989 87.7495 123.449 87.5184 123.796C87.2871 124.142 86.8334 124.251 86.4731 124.06L86.4026 124.018L85.9718 123.723C84.9752 123.023 84.0361 122.24 83.1819 121.395L84.313 120.251ZM83.1749 120.258C83.4872 119.942 83.997 119.939 84.313 120.251L83.1819 121.395C82.866 121.083 82.8628 120.574 83.1749 120.258ZM108.25 113.207C108.427 113.97 108.548 114.752 108.602 115.551L108.604 115.624L108.598 115.696C108.531 116.285 108.407 116.861 108.235 117.42L108.207 117.497C108.048 117.873 107.627 118.075 107.229 117.952C106.805 117.821 106.566 117.371 106.697 116.946L106.798 116.592C106.885 116.259 106.948 115.923 106.99 115.584C106.94 114.902 106.836 114.231 106.683 113.572L108.25 113.207ZM80.2605 113.479C80.4285 114.221 80.6678 114.943 80.9864 115.638L81.1868 116.055C81.3264 116.332 81.4783 116.609 81.6415 116.883L81.8942 117.293L81.9352 117.365C82.1192 117.729 82.0018 118.18 81.6514 118.404C81.3006 118.629 80.8411 118.547 80.5876 118.228L80.5398 118.161L80.2581 117.706C80.0763 117.4 79.9067 117.091 79.7495 116.778L79.5235 116.308C79.156 115.507 78.8817 114.678 78.6906 113.834L80.2605 113.479ZM107.283 112.607C107.716 112.506 108.149 112.775 108.25 113.207L106.683 113.572C106.582 113.14 106.851 112.708 107.283 112.607ZM79.2977 112.872C79.7311 112.774 80.1624 113.045 80.2605 113.479L78.6906 113.834C78.5927 113.401 78.8646 112.97 79.2977 112.872ZM103.943 105.01C104.788 106.026 105.584 107.134 106.272 108.323L106.56 108.837L106.595 108.911C106.752 109.288 106.601 109.729 106.235 109.927C105.869 110.126 105.417 110.011 105.187 109.673L105.145 109.603L104.878 109.129C104.243 108.03 103.501 106.995 102.706 106.038L103.325 105.524L103.943 105.01ZM79.6029 103.685C79.7738 103.314 80.2004 103.127 80.5942 103.262C81.0143 103.407 81.238 103.864 81.0935 104.285L80.9062 104.851C80.486 106.177 80.1847 107.53 80.0421 108.871C79.9951 109.313 79.5987 109.634 79.157 109.587C78.7152 109.54 78.3948 109.143 78.4417 108.702C78.6195 107.03 79.0211 105.362 79.5718 103.761L79.6029 103.685ZM102.81 104.905C103.152 104.621 103.659 104.668 103.943 105.01L102.706 106.038C102.422 105.697 102.469 105.189 102.81 104.905ZM95.9992 99.2559C96.2235 98.905 96.6751 98.7867 97.0391 98.9704L97.1104 99.0113L97.5657 99.3083C98.0207 99.6107 98.4751 99.9301 98.9284 100.267L99.3665 100.6C99.6614 100.829 99.9611 101.071 100.264 101.325L100.72 101.716L100.78 101.773C101.058 102.071 101.07 102.537 100.796 102.851C100.522 103.164 100.058 103.214 99.7259 102.978L99.6611 102.927L99.2292 102.557C98.9427 102.316 98.6592 102.087 98.3809 101.872L97.9678 101.558C97.5368 101.238 97.1061 100.935 96.6753 100.648L96.2446 100.367L96.1769 100.32C95.8573 100.066 95.775 99.6068 95.9992 99.2559ZM80.7688 94.8286C82.0623 94.766 83.3452 94.7735 84.6191 94.864C84.6863 94.8688 84.751 94.8823 84.8122 94.9023C84.9621 94.9058 85.1129 94.9509 85.246 95.0417C85.6128 95.2922 85.7076 95.7928 85.4572 96.1598L84.2686 97.915C83.8416 98.5546 83.4258 99.2343 83.0324 99.9459C82.8174 100.335 82.3282 100.476 81.9394 100.261C81.5507 100.046 81.4097 99.5567 81.6243 99.1679C82.04 98.4161 82.4797 97.6964 82.9322 97.0189L82.9336 97.0172L83.3434 96.411C82.5186 96.3861 81.6867 96.3953 80.8467 96.4359L80.3156 96.4652L80.2329 96.466C79.8255 96.4505 79.4876 96.1287 79.4612 95.7131C79.4332 95.2698 79.7701 94.8877 80.2134 94.8595L80.7688 94.8286ZM88.0272 96.1252C88.124 95.7199 88.5119 95.4602 88.9162 95.5144L88.9967 95.5295L89.5261 95.6617C90.5839 95.938 91.6355 96.2848 92.6821 96.7099L93.2047 96.9292L93.2787 96.9651C93.6348 97.1638 93.7896 97.6044 93.6244 97.9868C93.4592 98.3689 93.0328 98.558 92.6443 98.4352L92.5667 98.4058L92.0766 98.2009C91.0955 97.8024 90.1105 97.4769 89.1194 97.2181L88.6237 97.0946L88.5442 97.0716C88.1593 96.9374 87.9307 96.5303 88.0272 96.1252ZM67.3969 97.3103C67.8249 97.1912 68.2688 97.4418 68.3879 97.8698C68.5071 98.2978 68.2564 98.7417 67.8284 98.8609C67.4884 98.9555 67.1468 99.0519 66.8038 99.15L65.7695 99.4493C65.343 99.5739 64.896 99.3286 64.7714 98.9021C64.647 98.4758 64.8917 98.0295 65.3179 97.9048L66.3614 97.6026C66.7078 97.5035 67.053 97.4061 67.3969 97.3103ZM71.9615 97.7932C71.529 97.8945 71.096 97.6259 70.9945 97.1934C70.8931 96.7609 71.1617 96.3279 71.5942 96.2265L71.9615 97.7932ZM75.8632 95.3662C76.3016 95.2942 76.716 95.5909 76.788 96.0294C76.86 96.4678 76.5624 96.8814 76.124 96.9534C74.7603 97.1773 73.3742 97.4621 71.9615 97.7932L71.7782 97.0094L71.5942 96.2265C73.035 95.8889 74.4573 95.597 75.8632 95.3662ZM87.8695 92.7052C87.6102 93.0656 87.1078 93.1475 86.7472 92.8883C86.3865 92.629 86.3042 92.1267 86.5633 91.766L87.8695 92.7052ZM89.1301 88.3483C89.4059 88 89.9116 87.9417 90.2599 88.2174C90.6082 88.4932 90.6673 88.9988 90.3915 89.3471C89.578 90.3745 88.7442 91.4884 87.8695 92.7052L86.5633 91.766C87.4489 90.534 88.2977 89.3995 89.1301 88.3483ZM93.0977 86.1751C92.7951 86.5005 92.2856 86.5194 91.9603 86.2168C91.635 85.9142 91.6169 85.4047 91.9195 85.0794L93.0977 86.1751ZM95.0331 82.0785C95.3706 81.7899 95.8785 81.8296 96.1674 82.167C96.456 82.5045 96.4163 83.0124 96.0789 83.3013C95.0547 84.1782 94.0737 85.1258 93.0977 86.1751L91.9195 85.0794C92.9333 83.9893 93.9585 82.9986 95.0331 82.0785ZM102.273 77.238C102.65 77.0836 103.091 77.2372 103.286 77.6046C103.495 77.9966 103.347 78.4838 102.956 78.6929L102.006 79.2117C101.077 79.7331 100.207 80.2625 99.3811 80.8106C99.0109 81.0563 98.5118 80.9555 98.266 80.5853C98.0204 80.2152 98.1211 79.716 98.4912 79.4703C99.6404 78.7072 100.865 77.9834 102.198 77.2729L102.273 77.238ZM108.077 74.489C108.465 74.3658 108.892 74.555 109.057 74.9374C109.222 75.3197 109.067 75.7595 108.711 75.9582L108.637 75.9946C107.971 76.2827 107.33 76.5671 106.713 76.8489C106.309 77.0332 105.831 76.8551 105.647 76.4511C105.462 76.047 105.641 75.5696 106.045 75.3851C106.673 75.0983 107.324 74.8097 108 74.5177L108.077 74.489Z" fill="#B7B4AF"/>
<g filter="url(#filter2_dd_6637_451)">
<rect x="161.6" y="93" width="9" height="9" rx="2" fill="url(#paint10_linear_6637_451)"/>
<rect x="162.1" y="93.5" width="8" height="8" rx="1.5" stroke="url(#paint11_linear_6637_451)"/>
</g>
<defs>
<filter id="filter0_dd_6637_451" x="64.2817" y="25.8276" width="134.73" height="88.8867" filterUnits="userSpaceOnUse" color-interpolation-filters="sRGB">
<feFlood flood-opacity="0" result="BackgroundImageFix"/>
<feColorMatrix in="SourceAlpha" type="matrix" values="0 0 0 0 0 0 0 0 0 0 0 0 0 0 0 0 0 0 127 0" result="hardAlpha"/>
<feOffset dy="2"/>
<feGaussianBlur stdDeviation="7"/>
<feComposite in2="hardAlpha" operator="out"/>
<feColorMatrix type="matrix" values="0 0 0 0 1 0 0 0 0 0.8 0 0 0 0 0.2 0 0 0 1 0"/>
<feBlend mode="normal" in2="BackgroundImageFix" result="effect1_dropShadow_6637_451"/>
<feColorMatrix in="SourceAlpha" type="matrix" values="0 0 0 0 0 0 0 0 0 0 0 0 0 0 0 0 0 0 127 0" result="hardAlpha"/>
<feOffset dy="2"/>
<feGaussianBlur stdDeviation="4"/>
<feComposite in2="hardAlpha" operator="out"/>
<feColorMatrix type="matrix" values="0 0 0 0 0 0 0 0 0 0 0 0 0 0 0 0 0 0 0.5 0"/>
<feBlend mode="normal" in2="effect1_dropShadow_6637_451" result="effect2_dropShadow_6637_451"/>
<feBlend mode="normal" in="SourceGraphic" in2="effect2_dropShadow_6637_451" result="shape"/>
</filter>
<filter id="filter1_dd_6637_451" x="83.7749" y="36.0781" width="98.2715" height="64.6479" filterUnits="userSpaceOnUse" color-interpolation-filters="sRGB">
<feFlood flood-opacity="0" result="BackgroundImageFix"/>
<feColorMatrix in="SourceAlpha" type="matrix" values="0 0 0 0 0 0 0 0 0 0 0 0 0 0 0 0 0 0 127 0" result="hardAlpha"/>
<feOffset dy="4"/>
<feGaussianBlur stdDeviation="8"/>
<feComposite in2="hardAlpha" operator="out"/>
<feColorMatrix type="matrix" values="0 0 0 0 0 0 0 0 0 0 0 0 0 0 0 0 0 0 0.64 0"/>
<feBlend mode="normal" in2="BackgroundImageFix" result="effect1_dropShadow_6637_451"/>
<feColorMatrix in="SourceAlpha" type="matrix" values="0 0 0 0 0 0 0 0 0 0 0 0 0 0 0 0 0 0 127 0" result="hardAlpha"/>
<feOffset dy="1"/>
<feGaussianBlur stdDeviation="0.5"/>
<feComposite in2="hardAlpha" operator="out"/>
<feColorMatrix type="matrix" values="0 0 0 0 0 0 0 0 0 0 0 0 0 0 0 0 0 0 0.08 0"/>
<feBlend mode="normal" in2="effect1_dropShadow_6637_451" result="effect2_dropShadow_6637_451"/>
<feBlend mode="normal" in="SourceGraphic" in2="effect2_dropShadow_6637_451" result="shape"/>
</filter>
<filter id="filter2_dd_6637_451" x="131.6" y="63" width="69" height="69" filterUnits="userSpaceOnUse" color-interpolation-filters="sRGB">
<feFlood flood-opacity="0" result="BackgroundImageFix"/>
<feColorMatrix in="SourceAlpha" type="matrix" values="0 0 0 0 0 0 0 0 0 0 0 0 0 0 0 0 0 0 127 0" result="hardAlpha"/>
<feMorphology radius="6" operator="dilate" in="SourceAlpha" result="effect1_dropShadow_6637_451"/>
<feOffset/>
<feGaussianBlur stdDeviation="12"/>
<feComposite in2="hardAlpha" operator="out"/>
<feColorMatrix type="matrix" values="0 0 0 0 0.98415 0 0 0 0 0.859671 0 0 0 0 0.486234 0 0 0 1 0"/>
<feBlend mode="normal" in2="BackgroundImageFix" result="effect1_dropShadow_6637_451"/>
<feColorMatrix in="SourceAlpha" type="matrix" values="0 0 0 0 0 0 0 0 0 0 0 0 0 0 0 0 0 0 127 0" result="hardAlpha"/>
<feOffset dy="2"/>
<feGaussianBlur stdDeviation="4"/>
<feComposite in2="hardAlpha" operator="out"/>
<feColorMatrix type="matrix" values="0 0 0 0 0 0 0 0 0 0 0 0 0 0 0 0 0 0 0.08 0"/>
<feBlend mode="normal" in2="effect1_dropShadow_6637_451" result="effect2_dropShadow_6637_451"/>
<feBlend mode="normal" in="SourceGraphic" in2="effect2_dropShadow_6637_451" result="shape"/>
</filter>
<linearGradient id="paint0_linear_6637_451" x1="97.6001" y1="126" x2="120.6" y2="90.5" gradientUnits="userSpaceOnUse">
<stop stop-opacity="0"/>
<stop offset="1" stop-color="#FFEAAA"/>
</linearGradient>
<linearGradient id="paint1_linear_6637_451" x1="126.776" y1="34.0205" x2="137.464" y2="103.073" gradientUnits="userSpaceOnUse">
<stop stop-color="#FFCC33"/>
<stop offset="1" stop-color="#FFEAAA"/>
</linearGradient>
<linearGradient id="paint2_linear_6637_451" x1="184.143" y1="76" x2="184.143" y2="85" gradientUnits="userSpaceOnUse">
<stop stop-color="#4D4D4D"/>
<stop offset="0.828125" stop-color="#373737"/>
</linearGradient>
<linearGradient id="paint3_linear_6637_451" x1="184.143" y1="76" x2="184.143" y2="85" gradientUnits="userSpaceOnUse">
<stop stop-color="#696969"/>
<stop offset="0.283654" stop-color="#333333" stop-opacity="0"/>
</linearGradient>
<linearGradient id="paint4_linear_6637_451" x1="79.5" y1="53" x2="79.5" y2="62" gradientUnits="userSpaceOnUse">
<stop stop-color="#4D4D4D"/>
<stop offset="0.828125" stop-color="#373737"/>
</linearGradient>
<linearGradient id="paint5_linear_6637_451" x1="79.5" y1="53" x2="79.5" y2="62" gradientUnits="userSpaceOnUse">
<stop stop-color="#696969"/>
<stop offset="0.283654" stop-color="#333333" stop-opacity="0"/>
</linearGradient>
<linearGradient id="paint6_linear_6637_451" x1="101.5" y1="36" x2="101.5" y2="45" gradientUnits="userSpaceOnUse">
<stop stop-color="#4D4D4D"/>
<stop offset="0.828125" stop-color="#373737"/>
</linearGradient>
<linearGradient id="paint7_linear_6637_451" x1="101.5" y1="36" x2="101.5" y2="45" gradientUnits="userSpaceOnUse">
<stop stop-color="#696969"/>
<stop offset="0.283654" stop-color="#333333" stop-opacity="0"/>
</linearGradient>
<linearGradient id="paint8_linear_6637_451" x1="72.1169" y1="50.8861" x2="69.4062" y2="75.481" gradientUnits="userSpaceOnUse">
<stop offset="0.0036" stop-color="#666666"/>
<stop offset="1" stop-color="#757166"/>
</linearGradient>
<linearGradient id="paint9_linear_6637_451" x1="91.2408" y1="58.1621" x2="95.9836" y2="78.7268" gradientUnits="userSpaceOnUse">
<stop stop-color="#323232" stop-opacity="0"/>
<stop offset="1" stop-color="#F9CC45"/>
</linearGradient>
<linearGradient id="paint10_linear_6637_451" x1="163.475" y1="93.75" x2="168.35" y2="100.125" gradientUnits="userSpaceOnUse">
<stop stop-color="#FFE79E"/>
<stop offset="1" stop-color="#FFD452"/>
</linearGradient>
<linearGradient id="paint11_linear_6637_451" x1="161.6" y1="97.5" x2="170.6" y2="97.5" gradientUnits="userSpaceOnUse">
<stop stop-color="#FFEAAA"/>
<stop offset="1" stop-color="#FFE7A1"/>
</linearGradient>
</defs>
</svg>
