<svg xmlns="http://www.w3.org/2000/svg" width="230" height="160" fill="none" viewBox="0 0 230 160">
  <path fill="#242424" d="M110.778 144.8c32.236 0 58.371-26.153 58.371-58.5283 0-32.3749-26.25-58.5283-58.371-58.5283-32.2367 0-58.3713 26.1534-58.3713 58.5283 0 32.3753 26.1346 58.5283 58.3713 58.5283Z"/>
  <path fill="#5C5C5C" d="M165.35 47.9057c2.607 0 4.72-2.1149 4.72-4.7237 0-2.6089-2.113-4.7237-4.72-4.7237-2.607 0-4.721 2.1148-4.721 4.7237 0 2.6088 2.114 4.7237 4.721 4.7237ZM172.258 29.4716c1.78 0 3.223-1.4443 3.223-3.226 0-1.7816-1.443-3.2259-3.223-3.2259-1.781 0-3.224 1.4443-3.224 3.2259 0 1.7817 1.443 3.226 3.224 3.226ZM55.5156 47.7906c1.7804 0 3.2237-1.4444 3.2237-3.226 0-1.7817-1.4433-3.226-3.2237-3.226-1.7803 0-3.2236 1.4443-3.2236 3.226 0 1.7816 1.4433 3.226 3.2236 3.226ZM35.8281 110.005c3.3064 0 5.9868-2.682 5.9868-5.991 0-3.309-2.6804-5.9908-5.9868-5.9908-3.3064 0-5.9868 2.6818-5.9868 5.9908s2.6804 5.991 5.9868 5.991ZM76.6007 124.695h66.4313c2.319 0 4.199-2.706 4.199-6.043V21.9781c0-3.3367-1.88-6.0422-4.199-6.0422H76.6007c-2.3189 0-4.199 2.7055-4.199 6.0422v96.6739c0 3.337 1.8801 6.043 4.199 6.043Z"/>
  <path fill="#3A3A3A" d="M80.675 116.668h58.221c1.755 0 3.259-2.074 3.259-4.689V27.2085c0-2.5251-1.441-4.6895-3.259-4.6895H80.675c-1.7548 0-3.2589 2.0742-3.2589 4.6895v84.7705c0 2.615 1.4414 4.689 3.2589 4.689Z"/>
  <path fill="#8E96AB" d="M90.8891 62.9204h4.1363v11.2727h-4.1363V62.9204Z"/>
  <path fill="#777" d="m83.5581 23.3308 21.4959-11.9941c.439-1.2625 1.066-2.4349 1.818-3.3367h4.512c.94.0902 1.692 1.2625 1.692 2.8858V127.13c0 1.623-.815 2.795-1.755 2.885h-4.449l-.564-2.344-22.7499-11.183c-1.4414-.721-2.4442-2.886-2.4442-5.321V28.5613c.1254-2.3447 1.0654-4.509 2.4442-5.2305Z"/>
  <path fill="url(#paint0_linear_3869_1920)" d="M106.433 8.1804 79.1712 23.3309c-1.3788.8116-2.3188 2.8858-2.3188 5.2305v82.6056c0 2.435 1.0027 4.6 2.4441 5.321l27.1995 13.437c1.128.541 2.256-.811 2.256-2.795V10.8858c0-1.984-1.191-3.3367-2.319-2.7054Z"/>
  <path fill="url(#paint1_linear_3869_1920)" d="m142.494 93.2229-21.041 33.5391c-2.541 4.049.37 9.311 5.15 9.311h42.083c4.78 0 7.69-5.262 5.15-9.311l-21.041-33.5391c-2.383-3.7985-7.918-3.7985-10.301 0Z"/>
  <path fill="#242424" d="M147.775 104.04c-1.476 0-2.649 1.24-2.566 2.714l.638 11.41c.057 1.023.903 1.823 1.928 1.823 1.024 0 1.87-.8 1.927-1.823l.639-11.41c.082-1.474-1.09-2.714-2.566-2.714Zm-.009 23.557c1.38 0 2.457-1.115 2.457-2.513 0-1.399-1.077-2.496-2.457-2.496-1.363 0-2.44 1.097-2.44 2.496 0 1.398 1.077 2.513 2.44 2.513Z"/>
  <circle cx="98.2418" cy="73.36" r="5.5733" fill="#979797"/>
  <path fill="#777" d="M100.775 73.36c0-3.078-2.0267-5.5733-2.0267-5.5733 1.9587 0 5.0667 2.0267 5.0667 5.5733 0 3.5467-3.108 5.5733-5.0667 5.5733 0 0 2.0267-2.4952 2.0267-5.5733Z"/>
  <defs>
    <linearGradient id="paint0_linear_3869_1920" x1="92.8126" x2="92.8126" y1="5.2013" y2="131.361" gradientUnits="userSpaceOnUse">
      <stop stop-color="#5C5C5C"/>
      <stop offset=".9964" stop-color="#4D4D4D"/>
    </linearGradient>
    <linearGradient id="paint1_linear_3869_1920" x1="126.871" x2="168.418" y1="147.333" y2="105.787" gradientUnits="userSpaceOnUse">
      <stop stop-color="#FAFAFA"/>
      <stop offset=".8281" stop-color="#F5F2EC"/>
    </linearGradient>
  </defs>
</svg>
