<svg width="230" height="163" viewBox="0 0 230 163" fill="none" xmlns="http://www.w3.org/2000/svg">
<path d="M114.622 150.8C147.195 150.8 173.602 124.647 173.602 92.2716C173.602 59.8967 147.078 33.7433 114.622 33.7433C82.0496 33.7433 55.6426 59.8967 55.6426 92.2716C55.6426 124.647 82.0496 150.8 114.622 150.8Z" fill="#EBEBEB"/>
<path d="M169.763 53.9055C172.397 53.9055 174.532 51.7906 174.532 49.1817C174.532 46.5729 172.397 44.458 169.763 44.458C167.129 44.458 164.993 46.5729 164.993 49.1817C164.993 51.7906 167.129 53.9055 169.763 53.9055Z" fill="#E8DFD3"/>
<path d="M176.744 35.4715C178.543 35.4715 180.001 34.0272 180.001 32.2455C180.001 30.4638 178.543 29.0195 176.744 29.0195C174.945 29.0195 173.486 30.4638 173.486 32.2455C173.486 34.0272 174.945 35.4715 176.744 35.4715Z" fill="#E8DFD3"/>
<path d="M58.7822 53.7904C60.5811 53.7904 62.0394 52.3461 62.0394 50.5645C62.0394 48.7828 60.5811 47.3385 58.7822 47.3385C56.9832 47.3385 55.5249 48.7828 55.5249 50.5645C55.5249 52.3461 56.9832 53.7904 58.7822 53.7904Z" fill="#E8DFD3"/>
<path d="M38.8905 116.005C42.2314 116.005 44.9397 113.323 44.9397 110.014C44.9397 106.705 42.2314 104.023 38.8905 104.023C35.5496 104.023 32.8413 106.705 32.8413 110.014C32.8413 113.323 35.5496 116.005 38.8905 116.005Z" fill="#E8DFD3"/>
<path d="M80.0871 130.695H147.211C149.554 130.695 151.454 127.989 151.454 124.653V27.9782C151.454 24.6415 149.554 21.936 147.211 21.936H80.0871C77.7441 21.936 75.8443 24.6415 75.8443 27.9782V124.653C75.8443 127.989 77.7441 130.695 80.0871 130.695Z" fill="#EDE5DA"/>
<path opacity="0.4" d="M84.2035 122.669H143.032C144.805 122.669 146.325 120.594 146.325 117.979V33.2087C146.325 30.6836 144.868 28.5193 143.032 28.5193H84.2035C82.4304 28.5193 80.9106 30.5935 80.9106 33.2087V117.979C80.9106 120.594 82.3671 122.669 84.2035 122.669Z" fill="url(#paint0_linear_3869_1897)"/>
<path d="M94.5247 68.9204H98.7041V80.1931H94.5247V68.9204Z" fill="#8E96AB"/>
<path d="M87.1181 29.3308L108.838 17.3367C109.282 16.0742 109.915 14.9018 110.675 14H115.234C116.184 14.0902 116.944 15.2625 116.944 16.8858V133.13C116.944 134.753 116.121 135.925 115.171 136.015H110.675L110.105 133.671L87.1181 122.488C85.6616 121.767 84.6484 119.602 84.6484 117.167V34.5613C84.7751 32.2166 85.7249 30.0523 87.1181 29.3308Z" fill="#EDE5DA"/>
<g filter="url(#filter0_d_3869_1897)">
<path d="M110.23 14.1804L82.6836 29.3309C81.2905 30.1425 80.3406 32.2167 80.3406 34.5614V117.167C80.3406 119.602 81.3538 121.767 82.8103 122.488L110.293 135.925C111.433 136.466 112.573 135.114 112.573 133.13V16.8858C112.573 14.9018 111.37 13.5491 110.23 14.1804Z" fill="url(#paint1_linear_3869_1897)"/>
</g>
<path d="M146.462 99.5468L125.639 132.395C122.971 136.604 126.028 142.073 131.049 142.073H172.694C177.714 142.073 180.771 136.604 178.103 132.395L157.281 99.5468C154.778 95.5984 148.965 95.5983 146.462 99.5468Z" fill="url(#paint2_linear_3869_1897)"/>
<path d="M152.004 110.04C150.512 110.04 149.327 111.28 149.411 112.754L150.056 124.164C150.114 125.187 150.968 125.987 152.004 125.987C153.039 125.987 153.894 125.187 153.951 124.164L154.597 112.754C154.68 111.28 153.495 110.04 152.004 110.04ZM151.995 133.597C153.389 133.597 154.477 132.482 154.477 131.083C154.477 129.685 153.389 128.588 151.995 128.588C150.618 128.588 149.53 129.685 149.53 131.083C149.53 132.482 150.618 133.597 151.995 133.597Z" fill="white"/>
<ellipse cx="101.956" cy="79.3601" rx="5.63143" ry="5.57333" fill="#E8DFD3"/>
<path d="M104.515 79.36C104.515 76.282 102.467 73.7867 102.467 73.7867C104.446 73.7867 107.586 75.8134 107.586 79.36C107.586 82.9067 104.446 84.9333 102.467 84.9333C102.467 84.9333 104.515 82.4381 104.515 79.36Z" fill="#D1C7BA"/>
<defs>
<filter id="filter0_d_3869_1897" x="60.5408" y="0.523804" width="71.8319" height="161.621" filterUnits="userSpaceOnUse" color-interpolation-filters="sRGB">
<feFlood flood-opacity="0" result="BackgroundImageFix"/>
<feColorMatrix in="SourceAlpha" type="matrix" values="0 0 0 0 0 0 0 0 0 0 0 0 0 0 0 0 0 0 127 0" result="hardAlpha"/>
<feOffset dy="6.3"/>
<feGaussianBlur stdDeviation="9.9"/>
<feColorMatrix type="matrix" values="0 0 0 0 0.576471 0 0 0 0 0.501961 0 0 0 0 0.396078 0 0 0 0.37 0"/>
<feBlend mode="normal" in2="BackgroundImageFix" result="effect1_dropShadow_3869_1897"/>
<feBlend mode="normal" in="SourceGraphic" in2="effect1_dropShadow_3869_1897" result="shape"/>
</filter>
<linearGradient id="paint0_linear_3869_1897" x1="146.493" y1="71.7601" x2="80.9638" y2="71.7601" gradientUnits="userSpaceOnUse">
<stop stop-color="#8A8379"/>
<stop offset="1" stop-color="#4E4942"/>
</linearGradient>
<linearGradient id="paint1_linear_3869_1897" x1="96.4672" y1="11.2013" x2="96.4672" y2="137.361" gradientUnits="userSpaceOnUse">
<stop stop-color="#FDFEFF"/>
<stop offset="0.9964" stop-color="#F5F2EC"/>
</linearGradient>
<linearGradient id="paint2_linear_3869_1897" x1="176.93" y1="96.5855" x2="126.313" y2="96.7964" gradientUnits="userSpaceOnUse">
<stop stop-color="#606060"/>
<stop offset="1" stop-color="#7B7B7B"/>
</linearGradient>
</defs>
</svg>
