<svg xmlns="http://www.w3.org/2000/svg" width="230" height="166" fill="none" viewBox="0 0 230 166">
  <path fill="#F0F0F0" d="M118.28 150.8c35.225 0 63.782-26.153 63.782-58.5284 0-32.3749-28.683-58.5283-63.782-58.5283-35.2243 0-63.7815 26.1534-63.7815 58.5283 0 32.3754 28.5572 58.5284 63.7815 58.5284Z"/>
  <path fill="#E8DFD3" d="M177.911 53.9055c2.848 0 5.158-2.1149 5.158-4.7238 0-2.6088-2.31-4.7237-5.158-4.7237-2.849 0-5.158 2.1149-5.158 4.7237 0 2.6089 2.309 4.7238 5.158 4.7238ZM185.459 35.4715c1.946 0 3.523-1.4443 3.523-3.226s-1.577-3.226-3.523-3.226c-1.945 0-3.522 1.4443-3.522 3.226s1.577 3.226 3.522 3.226ZM57.8945 53.7904c1.9454 0 3.5225-1.4443 3.5225-3.2259 0-1.7817-1.5771-3.226-3.5225-3.226s-3.5224 1.4443-3.5224 3.226c0 1.7816 1.577 3.2259 3.5224 3.2259ZM36.383 116.005c3.6129 0 6.5417-2.682 6.5417-5.991 0-3.309-2.9288-5.991-6.5417-5.991s-6.5417 2.682-6.5417 5.991c0 3.309 2.9288 5.991 6.5417 5.991Z"/>
  <path fill="#EDE5DA" d="M80.934 130.695h72.589c2.534 0 4.588-2.706 4.588-6.042V27.9782c0-3.3367-2.054-6.0422-4.588-6.0422H80.934c-2.5337 0-4.5881 2.7055-4.5881 6.0422v96.6748c0 3.336 2.0544 6.042 4.5881 6.042Z"/>
  <path fill="url(#paint0_linear_3869_1897)" d="M85.3848 122.669h63.6182c1.917 0 3.561-2.075 3.561-4.69V33.2087c0-2.5251-1.575-4.6894-3.561-4.6894H85.3848c-1.9175 0-3.561 2.0742-3.561 4.6894v84.7703c0 2.615 1.5751 4.69 3.561 4.69Z" opacity=".4"/>
  <path fill="#8E96AB" d="M96.5477 68.9204h4.5193v11.2727h-4.5193V68.9204Z"/>
  <path fill="#EDE5DA" d="m88.5378 29.3308 23.4892-11.9941c.479-1.2625 1.164-2.4349 1.985-3.3367h4.931c1.027.0902 1.849 1.2625 1.849 2.8858V133.13c0 1.623-.89 2.795-1.917 2.885h-4.863l-.616-2.344-24.8582-11.183c-1.5751-.721-2.6708-2.886-2.6708-5.321V34.5613c.137-2.3447 1.1642-4.509 2.6708-5.2305Z"/>
  <g filter="url(#filter0_d_3869_1897)">
    <path fill="url(#paint1_linear_3869_1897)" d="M113.533 14.1804 83.7437 29.3309c-1.5066.8116-2.5338 2.8858-2.5338 5.2305v82.6056c0 2.435 1.0957 4.6 2.6708 5.321l29.7203 13.437c1.233.541 2.465-.811 2.465-2.795V16.8858c0-1.984-1.301-3.3367-2.533-2.7054Z"/>
  </g>
  <path fill="url(#paint2_linear_3869_1897)" d="m152.713 99.5468-22.518 32.8482c-2.885 4.209.421 9.678 5.85 9.678h45.036c5.429 0 8.735-5.469 5.85-9.678l-22.518-32.8482c-2.707-3.9484-8.993-3.9485-11.7 0Z"/>
  <path fill="#fff" d="M158.706 110.04c-1.613 0-2.894 1.24-2.804 2.714l.698 11.41c.062 1.023.987 1.823 2.106 1.823 1.119 0 2.044-.8 2.106-1.823l.698-11.41c.09-1.474-1.191-2.714-2.804-2.714Zm-.009 23.557c1.508 0 2.684-1.115 2.684-2.514 0-1.398-1.176-2.495-2.684-2.495-1.489 0-2.666 1.097-2.666 2.495 0 1.399 1.177 2.514 2.666 2.514Z"/>
  <ellipse cx="104.582" cy="79.3601" fill="#E8DFD3" rx="6.0899" ry="5.5733"/>
  <path fill="#D1C7BA" d="M107.35 79.36c0-3.078-2.214-5.5733-2.214-5.5733 2.14 0 5.536 2.0267 5.536 5.5733 0 3.5467-3.396 5.5733-5.536 5.5733 0 0 2.214-2.4952 2.214-5.5733Z"/>
  <defs>
    <linearGradient id="paint0_linear_3869_1897" x1="152.746" x2="81.8814" y1="71.7601" y2="71.7601" gradientUnits="userSpaceOnUse">
      <stop stop-color="#8A8379"/>
      <stop offset="1" stop-color="#4E4942"/>
    </linearGradient>
    <linearGradient id="paint1_linear_3869_1897" x1="98.6495" x2="98.6495" y1="11.2013" y2="137.361" gradientUnits="userSpaceOnUse">
      <stop stop-color="#FDFEFF"/>
      <stop offset=".9964" stop-color="#F5F2EC"/>
    </linearGradient>
    <linearGradient id="paint2_linear_3869_1897" x1="185.663" x2="130.924" y1="96.5855" y2="96.8322" gradientUnits="userSpaceOnUse">
      <stop stop-color="#606060"/>
      <stop offset="1" stop-color="#7B7B7B"/>
    </linearGradient>
    <filter id="filter0_d_3869_1897" width="74.4564" height="161.621" x="61.41" y=".5238" color-interpolation-filters="sRGB" filterUnits="userSpaceOnUse">
      <feFlood flood-opacity="0" result="BackgroundImageFix"/>
      <feColorMatrix in="SourceAlpha" result="hardAlpha" values="0 0 0 0 0 0 0 0 0 0 0 0 0 0 0 0 0 0 127 0"/>
      <feOffset dy="6.3"/>
      <feGaussianBlur stdDeviation="9.9"/>
      <feColorMatrix values="0 0 0 0 0.576471 0 0 0 0 0.501961 0 0 0 0 0.396078 0 0 0 0.37 0"/>
      <feBlend in2="BackgroundImageFix" result="effect1_dropShadow_3869_1897"/>
      <feBlend in="SourceGraphic" in2="effect1_dropShadow_3869_1897" result="shape"/>
    </filter>
  </defs>
</svg>
