<svg width="230" height="160" viewBox="0 0 230 160" fill="none" xmlns="http://www.w3.org/2000/svg">
<path d="M114.778 148.8C147.014 148.8 173.149 122.647 173.149 90.2717C173.149 57.8968 146.899 31.7434 114.778 31.7434C82.5413 31.7434 56.4067 57.8968 56.4067 90.2717C56.4067 122.647 82.5413 148.8 114.778 148.8Z" fill="#242424"/>
<path d="M169.35 51.9057C171.957 51.9057 174.07 49.7908 174.07 47.182C174.07 44.5731 171.957 42.4583 169.35 42.4583C166.743 42.4583 164.629 44.5731 164.629 47.182C164.629 49.7908 166.743 51.9057 169.35 51.9057Z" fill="#5C5C5C"/>
<path d="M176.258 33.4715C178.038 33.4715 179.481 32.0272 179.481 30.2455C179.481 28.4638 178.038 27.0195 176.258 27.0195C174.477 27.0195 173.034 28.4638 173.034 30.2455C173.034 32.0272 174.477 33.4715 176.258 33.4715Z" fill="#5C5C5C"/>
<path d="M59.5156 51.7903C61.296 51.7903 62.7393 50.346 62.7393 48.5644C62.7393 46.7827 61.296 45.3384 59.5156 45.3384C57.7353 45.3384 56.292 46.7827 56.292 48.5644C56.292 50.346 57.7353 51.7903 59.5156 51.7903Z" fill="#5C5C5C"/>
<path d="M39.8281 114.005C43.1345 114.005 45.8149 111.323 45.8149 108.014C45.8149 104.705 43.1345 102.023 39.8281 102.023C36.5217 102.023 33.8413 104.705 33.8413 108.014C33.8413 111.323 36.5217 114.005 39.8281 114.005Z" fill="#5C5C5C"/>
<path d="M80.6007 128.695H147.032C149.351 128.695 151.231 125.989 151.231 122.653V25.9782C151.231 22.6415 149.351 19.936 147.032 19.936H80.6007C78.2818 19.936 76.4017 22.6415 76.4017 25.9782V122.653C76.4017 125.989 78.2818 128.695 80.6007 128.695Z" fill="#5C5C5C"/>
<path d="M84.675 120.669H142.896C144.651 120.669 146.155 118.594 146.155 115.979V31.2087C146.155 28.6836 144.714 26.5193 142.896 26.5193H84.675C82.9202 26.5193 81.4161 28.5935 81.4161 31.2087V115.979C81.4161 118.594 82.8575 120.669 84.675 120.669Z" fill="#3A3A3A"/>
<path d="M94.8891 66.9204H99.0254V78.1931H94.8891V66.9204Z" fill="#8E96AB"/>
<path d="M87.5581 27.3308L109.054 15.3367C109.493 14.0742 110.12 12.9018 110.872 12H115.384C116.324 12.0902 117.076 13.2625 117.076 14.8858V131.13C117.076 132.753 116.261 133.925 115.321 134.015H110.872L110.308 131.671L87.5581 120.488C86.1167 119.767 85.1139 117.602 85.1139 115.167V32.5613C85.2393 30.2166 86.1793 28.0523 87.5581 27.3308Z" fill="#777777"/>
<path d="M110.433 12.1803L83.1712 27.3307C81.7924 28.1424 80.8524 30.2165 80.8524 32.5613V115.167C80.8524 117.602 81.8551 119.767 83.2965 120.488L110.496 133.925C111.624 134.466 112.752 133.113 112.752 131.129V14.8857C112.752 12.9017 111.561 11.549 110.433 12.1803Z" fill="url(#paint0_linear_3869_1920)"/>
<path d="M146.494 97.2229L125.453 130.762C122.912 134.811 125.823 140.073 130.603 140.073H172.686C177.466 140.073 180.376 134.811 177.836 130.762L156.795 97.2229C154.412 93.4244 148.877 93.4244 146.494 97.2229Z" fill="url(#paint1_linear_3869_1920)"/>
<path d="M151.775 108.04C150.299 108.04 149.126 109.28 149.209 110.754L149.847 122.164C149.904 123.187 150.75 123.987 151.775 123.987V123.987C152.799 123.987 153.645 123.187 153.702 122.164L154.341 110.754C154.423 109.28 153.251 108.04 151.775 108.04V108.04ZM151.766 131.597C153.146 131.597 154.223 130.482 154.223 129.084C154.223 127.685 153.146 126.588 151.766 126.588C150.403 126.588 149.326 127.685 149.326 129.084C149.326 130.482 150.403 131.597 151.766 131.597Z" fill="#242424"/>
<circle cx="102.242" cy="77.36" r="5.57333" fill="#979797"/>
<path d="M104.775 77.36C104.775 74.282 102.748 71.7867 102.748 71.7867C104.707 71.7867 107.815 73.8134 107.815 77.36C107.815 80.9067 104.707 82.9333 102.748 82.9333C102.748 82.9333 104.775 80.4381 104.775 77.36Z" fill="#777777"/>
<defs>
<linearGradient id="paint0_linear_3869_1920" x1="96.8126" y1="9.20121" x2="96.8126" y2="135.36" gradientUnits="userSpaceOnUse">
<stop stop-color="#5C5C5C"/>
<stop offset="0.9964" stop-color="#4D4D4D"/>
</linearGradient>
<linearGradient id="paint1_linear_3869_1920" x1="130.871" y1="151.333" x2="172.418" y2="109.787" gradientUnits="userSpaceOnUse">
<stop stop-color="#FAFAFA"/>
<stop offset="0.828125" stop-color="#F5F2EC"/>
</linearGradient>
</defs>
</svg>
