<svg width="28" height="28" viewBox="0 0 28 28" fill="none" xmlns="http://www.w3.org/2000/svg">
<path fill-rule="evenodd" clip-rule="evenodd" d="M14 25C20.0751 25 25 20.0751 25 14C25 7.92487 20.0751 3 14 3C7.92487 3 3 7.92487 3 14C3 20.0751 7.92487 25 14 25ZM16.3883 12.7269C16.0498 13.0709 15.8635 13.5709 16.0368 14.0214L17.8545 18.7439C18.1067 19.399 17.6232 20.1032 16.9213 20.1032H11.0173C10.3154 20.1032 9.83191 19.399 10.084 18.7439L11.9018 14.0213C12.0751 13.5709 11.8888 13.0708 11.5503 12.7268C10.9476 12.1143 10.5757 11.2739 10.5757 10.3467C10.5757 8.47249 12.0951 6.95312 13.9693 6.95312C15.8436 6.95312 17.3629 8.47249 17.3629 10.3467C17.3629 11.274 16.9911 12.1143 16.3883 12.7269Z" fill="#212121"/>
</svg>
