<svg width="20" height="20" viewBox="0 0 20 20" fill="none" xmlns="http://www.w3.org/2000/svg">
<path d="M9.97963 4.87207C8.47375 4.87207 7.25299 6.09283 7.25299 7.59872C7.25299 8.21701 7.45938 8.78852 7.8068 9.24616C8.06151 9.58167 8.1329 9.89096 8.05344 10.0974L7.14351 12.4615C6.76533 13.444 7.49057 14.5003 8.5434 14.5003H11.4156C12.4684 14.5003 13.1936 13.444 12.8155 12.4615L11.9056 10.0977C11.8262 9.89119 11.8976 9.58187 12.1523 9.24633C12.4998 8.78867 12.7063 8.21709 12.7063 7.59872C12.7063 6.09283 11.4855 4.87207 9.97963 4.87207ZM8.25299 7.59872C8.25299 6.64512 9.02603 5.87207 9.97963 5.87207C10.9332 5.87207 11.7063 6.64512 11.7063 7.59872C11.7063 7.99122 11.5759 8.35184 11.3559 8.64161C11.0269 9.07493 10.7051 9.76244 10.9724 10.4569L11.8822 12.8207C12.0083 13.1482 11.7665 13.5003 11.4156 13.5003H8.5434C8.19246 13.5003 7.95071 13.1482 8.07677 12.8207L8.98669 10.4566C9.25396 9.76226 8.93223 9.07481 8.60328 8.6415C8.38331 8.35174 8.25299 7.99117 8.25299 7.59872Z" fill="#212121"/>
<path d="M18 10C18 14.4183 14.4183 18 10 18C5.58172 18 2 14.4183 2 10C2 5.58172 5.58172 2 10 2C14.4183 2 18 5.58172 18 10ZM17 10C17 6.13401 13.866 3 10 3C6.13401 3 3 6.13401 3 10C3 13.866 6.13401 17 10 17C13.866 17 17 13.866 17 10Z" fill="#212121"/>
</svg>
