<svg width="24" height="24" viewBox="0 0 24 24" fill="none" xmlns="http://www.w3.org/2000/svg">
<path d="M11.9743 5.46436C10.0229 5.46436 8.44102 7.04627 8.44102 8.99767C8.44102 9.89417 8.77588 10.7143 9.32623 11.3369C9.42518 11.4489 9.49115 11.5686 9.52129 11.6721C9.55013 11.7712 9.54218 11.837 9.52489 11.8819L8.18192 15.3711C7.7407 16.5174 8.58681 17.7497 9.81511 17.7497H14.1335C15.3618 17.7497 16.208 16.5174 15.7667 15.3711L14.4238 11.8819C14.4065 11.837 14.3985 11.7712 14.4274 11.6721C14.4575 11.5686 14.5235 11.4489 14.6224 11.3369C15.1728 10.7143 15.5076 9.89417 15.5076 8.99767C15.5076 7.04627 13.9257 5.46436 11.9743 5.46436ZM9.94102 8.99767C9.94102 7.8747 10.8514 6.96436 11.9743 6.96436C13.0973 6.96436 14.0076 7.8747 14.0076 8.99767C14.0076 9.51438 13.8159 9.98448 13.4985 10.3435C13.0819 10.8149 12.7097 11.6046 13.0239 12.4208L14.3669 15.9099C14.4299 16.0736 14.309 16.2497 14.1335 16.2497H9.81511C9.63965 16.2497 9.51877 16.0736 9.5818 15.9099L10.9248 12.4208C11.2389 11.6046 10.8668 10.8149 10.4501 10.3435C10.1328 9.98448 9.94102 9.51438 9.94102 8.99767Z" fill="#212121"/>
<path d="M12 2.25C6.61522 2.25 2.25 6.61522 2.25 12C2.25 17.3848 6.61522 21.75 12 21.75C17.3848 21.75 21.75 17.3848 21.75 12C21.75 6.61522 17.3848 2.25 12 2.25ZM3.75 12C3.75 7.44365 7.44365 3.75 12 3.75C16.5563 3.75 20.25 7.44365 20.25 12C20.25 16.5563 16.5563 20.25 12 20.25C7.44365 20.25 3.75 16.5563 3.75 12Z" fill="#212121"/>
</svg>
