<svg width="32" height="32" viewBox="0 0 32 32" fill="none" xmlns="http://www.w3.org/2000/svg">
<path d="M16 4C9.37258 4 4 9.37258 4 16C4 22.6274 9.37258 28 16 28C22.6274 28 28 22.6274 28 16C28 9.37258 22.6274 4 16 4ZM2 16C2 8.26801 8.26801 2 16 2C23.732 2 30 8.26801 30 16C30 23.732 23.732 30 16 30C8.26801 30 2 23.732 2 16Z" fill="#212121"/>
<path d="M15.9692 9.0564C14.3916 9.0564 13.1127 10.3353 13.1127 11.9129C13.1127 12.7237 13.4492 13.4543 13.993 13.9755C14.5398 14.4995 14.953 15.4085 14.5937 16.3419L12.4161 21.9995H19.5226L17.3449 16.3416C16.9857 15.4083 17.3988 14.4994 17.9454 13.9753C18.4891 13.4542 18.8256 12.7237 18.8256 11.9129C18.8256 10.3353 17.5467 9.0564 15.9692 9.0564ZM11.1127 11.9129C11.1127 9.23072 13.287 7.0564 15.9692 7.0564C18.6513 7.0564 20.8256 9.23072 20.8256 11.9129C20.8256 13.291 20.2503 14.5364 19.3294 15.4191C19.2678 15.4782 19.2326 15.542 19.2188 15.5873C19.2124 15.6084 19.2118 15.6201 19.2121 15.6249L21.3892 21.2811C21.8934 22.5912 20.9264 23.9995 19.5226 23.9995H12.4161C11.0123 23.9995 10.0453 22.5912 10.5496 21.2811L12.7265 15.6252C12.7268 15.6204 12.7262 15.6087 12.7198 15.5876C12.706 15.5423 12.6708 15.4785 12.6092 15.4194C11.6881 14.5367 11.1127 13.2911 11.1127 11.9129ZM12.7261 15.6279C12.726 15.6279 12.7261 15.6267 12.7265 15.6252ZM19.2125 15.6276C19.2125 15.6277 19.2122 15.6267 19.2121 15.6249Z" fill="#212121"/>
</svg>
