<svg width="24" height="24" viewBox="0 0 24 24" fill="none" xmlns="http://www.w3.org/2000/svg">
<path fill-rule="evenodd" clip-rule="evenodd" d="M12 22C17.5228 22 22 17.5228 22 12C22 6.47715 17.5228 2 12 2C6.47715 2 2 6.47715 2 12C2 17.5228 6.47715 22 12 22ZM14.0605 10.8407C13.7409 11.2023 13.5505 11.7014 13.7239 12.1518L15.0668 15.641C15.3189 16.296 14.8355 17.0002 14.1336 17.0002H9.81515C9.11326 17.0002 8.62977 16.296 8.88189 15.641L10.2249 12.1518C10.3982 11.7014 10.2079 11.2023 9.88821 10.8407C9.45436 10.3499 9.19105 9.70476 9.19105 8.99816C9.19105 7.46097 10.4372 6.21484 11.9744 6.21484C13.5115 6.21484 14.7577 7.46097 14.7577 8.99816C14.7577 9.70476 14.4944 10.3499 14.0605 10.8407Z" fill="#212121"/>
</svg>
