<svg width="20" height="20" viewBox="0 0 20 20" fill="none" xmlns="http://www.w3.org/2000/svg">
<path fill-rule="evenodd" clip-rule="evenodd" d="M10 18C14.4183 18 18 14.4183 18 10C18 5.58172 14.4183 2 10 2C5.58172 2 2 5.58172 2 10C2 14.4183 5.58172 18 10 18ZM11.7541 8.94397C11.4623 9.3284 11.2656 9.82682 11.439 10.2773L12.3488 12.6411C12.601 13.2961 12.1175 14.0003 11.4156 14.0003H8.54342C7.84153 14.0003 7.35804 13.2961 7.61016 12.6411L8.52008 10.277C8.69345 9.82661 8.49689 9.32824 8.20506 8.94383C7.92137 8.57013 7.75301 8.10409 7.75301 7.59872C7.75301 6.36898 8.74991 5.37207 9.97965 5.37207C11.2094 5.37207 12.2063 6.36898 12.2063 7.59872C12.2063 8.10415 12.0379 8.57025 11.7541 8.94397Z" fill="#212121"/>
</svg>
