<svg width="28" height="28" viewBox="0 0 28 28" fill="none" xmlns="http://www.w3.org/2000/svg">
<path d="M11.0157 13.2528C10.2805 12.5057 9.82571 11.4786 9.82571 10.3467C9.82571 8.05828 11.6809 6.20312 13.9693 6.20312C16.2577 6.20312 18.1129 8.05828 18.1129 10.3467C18.1129 11.4786 17.6581 12.5058 16.9229 13.2529C16.8295 13.3478 16.7674 13.4549 16.739 13.5495C16.7119 13.6399 16.7186 13.7047 16.7367 13.752L18.5545 18.4745C18.9957 19.6209 18.1496 20.8532 16.9213 20.8532H11.0173C9.78897 20.8532 8.94285 19.6209 9.38407 18.4745L11.2018 13.7519C11.22 13.7047 11.2266 13.6399 11.1995 13.5495C11.1712 13.4548 11.1091 13.3478 11.0157 13.2528ZM11.3257 10.3467C11.3257 11.0693 11.6146 11.7228 12.0849 12.2008C12.5531 12.6767 12.9151 13.4765 12.6017 14.2907L10.784 19.0134C10.7209 19.1771 10.8418 19.3532 11.0173 19.3532H16.9213C17.0967 19.3532 17.2176 19.1771 17.1546 19.0134L15.3369 14.2908C15.0234 13.4765 15.3854 12.6767 15.8537 12.2008C16.324 11.7229 16.6129 11.0693 16.6129 10.3467C16.6129 8.8867 15.4293 7.70312 13.9693 7.70312C12.5093 7.70312 11.3257 8.8867 11.3257 10.3467Z" fill="#212121"/>
<path d="M14 2.25C7.51065 2.25 2.25 7.51065 2.25 14C2.25 20.4893 7.51065 25.75 14 25.75C20.4893 25.75 25.75 20.4893 25.75 14C25.75 7.51065 20.4893 2.25 14 2.25ZM3.75 14C3.75 8.33908 8.33908 3.75 14 3.75C19.6609 3.75 24.25 8.33908 24.25 14C24.25 19.6609 19.6609 24.25 14 24.25C8.33908 24.25 3.75 19.6609 3.75 14Z" fill="#212121"/>
</svg>
