<svg width="32" height="32" viewBox="0 0 32 32" fill="none" xmlns="http://www.w3.org/2000/svg">
<path fill-rule="evenodd" clip-rule="evenodd" d="M16 29C23.1797 29 29 23.1797 29 16C29 8.8203 23.1797 3 16 3C8.8203 3 3 8.8203 3 16C3 23.1797 8.8203 29 16 29ZM18.6373 14.6975C18.2889 15.0314 18.1047 15.5322 18.2781 15.9826L20.4558 21.6406C20.7079 22.2956 20.2244 22.9998 19.5225 22.9998H12.416C11.7141 22.9998 11.2306 22.2956 11.4827 21.6406L13.6604 15.9829C13.8337 15.5325 13.6495 15.0317 13.301 14.6977C12.5686 13.9957 12.1126 13.0077 12.1126 11.9131C12.1126 9.78324 13.8392 8.05664 15.9691 8.05664C18.0989 8.05664 19.8255 9.78324 19.8255 11.9131C19.8255 13.0076 19.3696 13.9955 18.6373 14.6975Z" fill="#212121"/>
</svg>
