<svg width="16" height="16" viewBox="0 0 16 16" fill="none" xmlns="http://www.w3.org/2000/svg">
<path d="M8 8C8.55229 8 9 7.55228 9 7C9 6.44772 8.55229 6 8 6C7.44772 6 7 6.44772 7 7C7 7.55228 7.44772 8 8 8ZM11 7C11 8.65685 9.65685 10 8 10C6.34315 10 5 8.65685 5 7C5 5.34314 6.34315 4 8 4C9.65686 4 11 5.34315 11 7ZM8 9C9.10457 9 10 8.10457 10 7C10 5.89543 9.10457 5 8 5C6.89543 5 6 5.89543 6 7C6 8.10457 6.89543 9 8 9ZM15 13.5C15 14.3284 14.3284 15 13.5 15L2.5 15C1.67157 15 1 14.3284 1 13.5L1 12.5C1 11.8469 1.4174 11.2913 2 11.0854L2 8C2 4.68629 4.68629 2 8 2C11.3137 2 14 4.68629 14 8L14 11.0854C14.5826 11.2913 15 11.8469 15 12.5L15 13.5ZM13.5 12L2.5 12C2.22386 12 2 12.2239 2 12.5L2 13.5C2 13.7761 2.22386 14 2.5 14L13.5 14C13.7761 14 14 13.7761 14 13.5L14 12.5C14 12.2239 13.7761 12 13.5 12ZM13 11L13 8C13 5.23858 10.7614 3 8 3C5.23858 3 3 5.23858 3 8L3 11L13 11Z" fill="#242424"/>
</svg>
