<svg width="48" height="48" viewBox="0 0 48 48" fill="none" xmlns="http://www.w3.org/2000/svg">
<path d="M44 40.75C44 42.5449 42.5449 44 40.75 44L7.25 44C5.45507 44 4 42.5449 4 40.75C4 38.9551 5.45507 37.5 7.25 37.5L40.75 37.5C42.5449 37.5 44 38.9551 44 40.75ZM24 29.5C28.6944 29.5 32.5 25.6944 32.5 21C32.5 16.3056 28.6944 12.5 24 12.5C19.3056 12.5 15.5 16.3056 15.5 21C15.5 25.6944 19.3056 29.5 24 29.5ZM24 27C20.6863 27 18 24.3137 18 21C18 17.6863 20.6863 15 24 15C27.3137 15 30 17.6863 30 21C30 24.3137 27.3137 27 24 27ZM6 35L42 35L42 22C42 12.0589 33.9411 4 24 4C14.0589 4 6 12.0589 6 22L6 35ZM35 21C35 27.0751 30.0751 32 24 32C17.9249 32 13 27.0751 13 21C13 14.9249 17.9249 10 24 10C30.0751 10 35 14.9249 35 21Z" fill="#242424"/>
</svg>
