<svg width="24" height="24" viewBox="0 0 24 24" fill="none" xmlns="http://www.w3.org/2000/svg">
<path d="M12 8C10.6193 8 9.5 9.11929 9.5 10.5C9.5 11.8807 10.6193 13 12 13C13.3807 13 14.5 11.8807 14.5 10.5C14.5 9.11929 13.3807 8 12 8ZM12 16C15.0376 16 17.5 13.5376 17.5 10.5C17.5 7.46243 15.0376 5 12 5C8.96243 5 6.5 7.46243 6.5 10.5C6.5 13.5376 8.96243 16 12 16ZM16 10.5C16 12.7091 14.2091 14.5 12 14.5C9.79086 14.5 8 12.7091 8 10.5C8 8.29086 9.79086 6.5 12 6.5C14.2091 6.5 16 8.29086 16 10.5ZM22 20.25C22 21.2165 21.2165 22 20.25 22L3.75 22C2.78351 22 2 21.2165 2 20.25L2 18.75C2 18.0519 2.40875 17.4492 3 17.1684L3 11C3 6.02945 7.02945 2 12 2C16.9706 2 21 6.02945 21 11L21 17.1684C21.5912 17.4492 22 18.0519 22 18.75L22 20.25ZM19.5 17L19.5 11C19.5 6.85785 16.1422 3.5 12 3.5C7.85785 3.5 4.5 6.85785 4.5 11L4.5 17L19.5 17ZM20.25 20.5C20.3881 20.5 20.5 20.3881 20.5 20.25L20.5 18.75C20.5 18.6119 20.3881 18.5 20.25 18.5L3.75 18.5C3.61193 18.5 3.5 18.6119 3.5 18.75L3.5 20.25C3.5 20.3881 3.61193 20.5 3.75 20.5L20.25 20.5Z" fill="#242424"/>
</svg>
