<svg width="20" height="20" viewBox="0 0 20 20" fill="none" xmlns="http://www.w3.org/2000/svg">
<path d="M18 16.5C18 17.3284 17.3284 18 16.5 18L3.5 18C2.67157 18 2 17.3284 2 16.5C2 15.6716 2.67157 15 3.5 15L16.5 15C17.3284 15 18 15.6716 18 16.5ZM10 12C11.6569 12 13 10.6569 13 9C13 7.34314 11.6569 6 10 6C8.34315 6 7 7.34314 7 9C7 10.6569 8.34315 12 10 12ZM12 9C12 10.1046 11.1046 11 10 11C8.89543 11 8 10.1046 8 9C8 7.89543 8.89543 7 10 7C11.1046 7 12 7.89543 12 9ZM17 14L3 14L3 10C3 6.13401 6.13401 3 10 3C13.866 3 17 6.13401 17 10L17 14ZM10 13C12.2091 13 14 11.2091 14 9C14 6.79086 12.2091 5 10 5C7.79086 5 6 6.79086 6 9C6 11.2091 7.79086 13 10 13Z" fill="#242424"/>
</svg>
