<svg width="48" height="48" viewBox="0 0 48 48" fill="none" xmlns="http://www.w3.org/2000/svg">
<path d="M44 40.75C44 42.5449 42.5449 44 40.75 44L7.25 44C5.45508 44 4 42.5449 4 40.75L4 38.25C4 36.898 4.8255 35.7389 6 35.2491L6 22C6 12.0589 14.0589 4 24 4C33.9411 4 42 12.0589 42 22L42 35.2491C43.1745 35.7389 44 36.898 44 38.25L44 40.75ZM39.5 35L39.5 22C39.5 13.4396 32.5604 6.5 24 6.5C15.4396 6.5 8.5 13.4396 8.5 22L8.5 35L39.5 35ZM6.5 38.25L6.5 40.75C6.5 41.1642 6.83582 41.5 7.25 41.5L40.75 41.5C41.1642 41.5 41.5 41.1642 41.5 40.75L41.5 38.25C41.5 37.8358 41.1642 37.5 40.75 37.5L7.25 37.5C6.83582 37.5 6.5 37.8358 6.5 38.25ZM32.5 21C32.5 25.6944 28.6944 29.5 24 29.5C19.3056 29.5 15.5 25.6944 15.5 21C15.5 16.3056 19.3056 12.5 24 12.5C28.6944 12.5 32.5 16.3056 32.5 21ZM24 32C30.0751 32 35 27.0751 35 21C35 14.9249 30.0751 10 24 10C17.9249 10 13 14.9249 13 21C13 27.0751 17.9249 32 24 32ZM30 21C30 24.3137 27.3137 27 24 27C20.6863 27 18 24.3137 18 21C18 17.6863 20.6863 15 24 15C27.3137 15 30 17.6863 30 21Z" fill="#242424"/>
</svg>
