<svg width="28" height="28" viewBox="0 0 28 28" fill="none" xmlns="http://www.w3.org/2000/svg">
<path d="M10.5 12.5C10.5 10.567 12.067 9 14 9C15.933 9 17.5 10.567 17.5 12.5C17.5 14.433 15.933 16 14 16C12.067 16 10.5 14.433 10.5 12.5ZM20.5 12.5C20.5 16.0899 17.5899 19 14 19C10.4102 19 7.5 16.0898 7.5 12.5C7.5 8.91015 10.4102 6 14 6C17.5899 6 20.5 8.91015 20.5 12.5ZM14 17.5C16.7614 17.5 19 15.2614 19 12.5C19 9.73857 16.7614 7.5 14 7.5C11.2386 7.5 9 9.73857 9 12.5C9 15.2614 11.2386 17.5 14 17.5ZM24.25 26C25.2165 26 26 25.2165 26 24.25L26 22.75C26 22.0519 25.5912 21.4493 25 21.1684L25 14C25 7.92487 20.0751 3 14 3C7.92487 3 3 7.92487 3 14L3 21.1684C2.40876 21.4493 2 22.0519 2 22.75L2 24.25C2 25.2165 2.7835 26 3.75 26L24.25 26ZM4.5 21L4.5 14C4.5 8.75329 8.7533 4.5 14 4.5C19.2467 4.5 23.5 8.7533 23.5 14L23.5 21L4.5 21ZM3.75 22.5L24.25 22.5C24.3881 22.5 24.5 22.6119 24.5 22.75L24.5 24.25C24.5 24.3881 24.3881 24.5 24.25 24.5L3.75 24.5C3.61193 24.5 3.5 24.3881 3.5 24.25L3.5 22.75C3.5 22.6119 3.61193 22.5 3.75 22.5Z" fill="#242424"/>
</svg>
