<svg width="24" height="24" viewBox="0 0 24 24" fill="none" xmlns="http://www.w3.org/2000/svg">
<path d="M22 20.25C22 21.2165 21.2165 22 20.25 22L3.75 22C2.7835 22 2 21.2165 2 20.25C2 19.2835 2.7835 18.5 3.75 18.5L20.25 18.5C21.2165 18.5 22 19.2835 22 20.25ZM12 6.5C9.79086 6.5 8 8.29086 8 10.5C8 12.7091 9.79086 14.5 12 14.5C14.2091 14.5 16 12.7091 16 10.5C16 8.29086 14.2091 6.5 12 6.5ZM9.5 10.5C9.5 9.11929 10.6193 8 12 8C13.3807 8 14.5 9.11929 14.5 10.5C14.5 11.8807 13.3807 13 12 13C10.6193 13 9.5 11.8807 9.5 10.5ZM21 17L3 17L3 11C3 6.02944 7.02944 2 12 2C16.9706 2 21 6.02944 21 11L21 17ZM12 5C8.96244 5 6.5 7.46243 6.5 10.5C6.5 13.5376 8.96243 16 12 16C15.0376 16 17.5 13.5376 17.5 10.5C17.5 7.46243 15.0376 5 12 5Z" fill="#242424"/>
</svg>
