<svg width="32" height="32" viewBox="0 0 32 32" fill="none" xmlns="http://www.w3.org/2000/svg">
<path d="M3.40024 7.53651C4.97774 5.04399 7.33726 3.14495 10.1094 2.13672L12.1594 7.77331C9.34406 8.79754 7.33337 11.4974 7.33337 14.6668C7.33337 14.8977 7.34404 15.126 7.3649 15.3514L1.39157 15.9112C1.11631 12.9743 1.82274 10.029 3.40024 7.53651Z" fill="#212121"/>
<path fill-rule="evenodd" clip-rule="evenodd" d="M9.35631 15.1647C9.41161 15.7621 9.56543 16.3309 9.80136 16.8547C10.4251 18.2395 11.6226 19.3101 13.0911 19.7636C13.5719 19.9121 14.0817 19.9944 14.6099 19.9999L14.6667 20.0002C17.6122 20.0002 20 17.6123 20 14.6668C20 14.4482 19.9869 14.2326 19.9613 14.0209C19.8871 13.4065 19.7085 12.8243 19.4437 12.2926C18.5703 10.5386 16.7592 9.3335 14.6667 9.3335L14.6244 9.33366C13.9992 9.33852 13.3996 9.45095 12.8432 9.65336C10.7957 10.3983 9.33337 12.3618 9.33337 14.6668C9.33337 14.8347 9.34113 15.0008 9.35631 15.1647ZM14.6667 17.2191C16.0763 17.2191 17.2191 16.0763 17.2191 14.6667C17.2191 13.257 16.0763 12.1143 14.6667 12.1143C13.257 12.1143 12.1143 13.257 12.1143 14.6667C12.1143 16.0763 13.257 17.2191 14.6667 17.2191Z" fill="#212121"/>
<path d="M24.2186 9.91937L21.2351 11.4022C20.0341 8.99047 17.5439 7.3335 14.6667 7.3335L14.6086 7.33372L14.5821 4.00052C16.5817 3.98467 18.5454 4.5312 20.2493 5.57775C21.9532 6.6243 23.3286 8.12872 24.2186 9.91937Z" fill="#212121"/>
<path d="M14.5887 21.9998L14.5106 29.3327C16.5996 29.3549 18.6693 28.9306 20.5811 28.0881C22.4928 27.2457 24.2025 26.0045 25.5957 24.4478C26.989 22.891 28.0335 21.0546 28.6595 19.0614C29.2855 17.0683 29.4784 14.9644 29.2254 12.8906L21.9468 13.7786C21.9819 14.0698 22 14.3662 22 14.6668C22 16.3468 21.4351 17.8948 20.4849 19.1313L23.2906 22.1733C23.7587 22.6807 23.7267 23.4715 23.2193 23.9396C22.7118 24.4076 21.921 24.3757 21.4529 23.8682L18.6476 20.8266C17.5011 21.5691 16.1343 22.0002 14.6667 22.0002C14.6407 22.0002 14.6146 22 14.5887 21.9998Z" fill="#212121"/>
<path d="M3.72247 19.5886L7.97688 17.6753C8.83449 19.5793 10.4811 21.0514 12.5002 21.6749L11.1226 26.1314C9.49545 25.6284 7.99402 24.7848 6.7181 23.6567C5.44218 22.5286 4.42101 21.1418 3.72247 19.5886Z" fill="#212121"/>
</svg>
