<svg width="20" height="20" viewBox="0 0 20 20" fill="none" xmlns="http://www.w3.org/2000/svg">
<path d="M10.4598 17.9868C10.7333 17.971 10.9274 17.7224 10.8947 17.4503C10.8621 17.1783 10.6149 16.9861 10.3413 16.9994C8.93027 17.0682 7.52701 16.7089 6.31843 15.9627C4.96872 15.1294 3.94167 13.8628 3.4052 12.37C2.86873 10.8772 2.85459 9.24662 3.36507 7.74477C3.87556 6.24291 4.88048 4.95868 6.21552 4.10204C7.55057 3.2454 9.13675 2.86704 10.7147 3.02882C12.0398 3.16467 13.2932 3.67465 14.3321 4.49173L12.9767 5.98263C12.3058 5.48551 11.5159 5.16069 10.6769 5.04605C9.63266 4.90335 8.57444 5.09476 7.65131 5.58597C7.41015 5.7143 7.34965 6.02382 7.50116 6.25112C7.65267 6.47843 7.95873 6.53678 8.20295 6.41438C8.92255 6.05372 9.73794 5.91619 10.543 6.02619C11.1827 6.1136 11.7867 6.3533 12.307 6.71921L12.3 6.72698C12.5737 6.91967 12.8222 7.14583 13.0394 7.39951L13.0466 7.39155C13.6799 8.13118 14.0226 9.07608 14.0104 10.05C13.9983 11.0209 13.6345 11.9541 12.9868 12.6768L12.9806 12.6676C12.5335 13.1669 11.9627 13.5532 11.3164 13.7783L11.3219 13.7866C11.0396 13.8852 10.7452 13.9525 10.4438 13.9861C9.47152 14.0943 8.49323 13.8435 7.693 13.2808C6.89278 12.7181 6.3258 11.8823 6.09877 10.9308C5.9102 10.1404 5.96695 9.31548 6.25517 8.56393C6.35298 8.30887 6.26484 8.01003 6.02375 7.88158C5.78265 7.75313 5.48058 7.84375 5.37657 8.09635C4.97842 9.06327 4.89192 10.1352 5.13652 11.1604C5.41955 12.3466 6.12638 13.3885 7.12398 14.09C8.12158 14.7915 9.34117 15.1042 10.5532 14.9693C11.0142 14.918 11.4619 14.8033 11.8849 14.6311L14.1677 18.0553C14.474 18.5147 15.0948 18.6384 15.5543 18.3317C16.0139 18.025 16.1382 17.404 15.832 16.9447L13.5498 13.5213C13.6027 13.4679 13.6545 13.4133 13.7051 13.3574C14.524 12.4536 14.9844 11.2818 14.9996 10.0623C15.0148 8.84287 14.5838 7.6599 13.7877 6.73605C13.7642 6.70874 13.7404 6.68172 13.7163 6.65498L15.0717 5.16409C16.108 6.25083 16.7693 7.64362 16.9545 9.13803C17.1292 10.5476 16.8711 11.973 16.2205 13.2269C16.0944 13.4702 16.1661 13.7749 16.3998 13.918C16.6335 14.061 16.9404 13.9882 17.0687 13.7461C17.8353 12.2996 18.1416 10.6485 17.9392 9.01598C17.7165 7.21888 16.8907 5.55052 15.5967 4.28366C14.3028 3.01681 12.6173 2.22642 10.8159 2.04173C9.01451 1.85704 7.20374 2.28897 5.67966 3.26691C4.15558 4.24484 3.00837 5.71092 2.4256 7.42543C1.84283 9.13995 1.85898 11.0015 2.47141 12.7056C3.08384 14.4097 4.25631 15.8557 5.79713 16.807C7.19688 17.6713 8.82537 18.0809 10.4598 17.9868Z" fill="#424242"/>
<path d="M10 7.5C8.61929 7.5 7.5 8.61929 7.5 10C7.5 11.3807 8.61929 12.5 10 12.5C11.3807 12.5 12.5 11.3807 12.5 10C12.5 8.61929 11.3807 7.5 10 7.5Z" fill="#424242"/>
</svg>
