<svg width="16" height="16" viewBox="0 0 16 16" fill="none" xmlns="http://www.w3.org/2000/svg">
<path d="M8.74303 14.1871C8.79363 14.6085 8.49256 14.9956 8.06818 14.9997C6.75135 15.0125 5.45184 14.6535 4.3225 13.9562C2.97428 13.1238 1.94836 11.8585 1.41248 10.3674C0.876604 8.87629 0.862472 7.24746 1.3724 5.74726C1.88232 4.24706 2.88613 2.96424 4.2197 2.10855C5.55327 1.25285 7.1377 0.874908 8.71394 1.03651C10.2902 1.19812 11.7649 1.88971 12.8971 2.99821C14.0293 4.10671 14.7519 5.56653 14.9468 7.13899C15.1101 8.45618 14.895 9.78711 14.3346 10.9788C14.154 11.3629 13.6767 11.4753 13.3147 11.2537C12.9527 11.0321 12.8446 10.5605 13.0132 10.171C13.3987 9.281 13.5421 8.29972 13.4216 7.32803C13.2921 6.28251 12.8635 5.30079 12.1931 4.49806L12.1836 4.50854L11.51 5.24018C12.1392 6.04043 12.4774 7.0337 12.4647 8.05566C12.4518 9.08745 12.0821 10.0811 11.4213 10.869L13.3038 13.379C13.6299 13.8137 13.5343 14.4442 13.0903 14.7872C12.6464 15.1301 12.0221 15.0557 11.6961 14.621L9.79613 12.0878C9.38555 12.2682 8.94693 12.3872 8.49407 12.4376C7.4117 12.5581 6.3226 12.2789 5.43174 11.6524C4.54088 11.026 3.90968 10.0956 3.65694 9.03623C3.43851 8.12073 3.51576 7.16351 3.8713 6.30005C3.96418 6.07448 4.23394 5.99355 4.44923 6.10826C4.66453 6.22296 4.74324 6.48982 4.65589 6.7176C4.39851 7.38873 4.34783 8.12543 4.51623 8.83121C4.71897 9.68095 5.22528 10.4273 5.93988 10.9298C6.65448 11.4323 7.5281 11.6563 8.39633 11.5596C9.26455 11.463 10.0675 11.0523 10.6541 10.405C11.2407 9.7576 11.5705 8.91817 11.5814 8.04465C11.5922 7.17113 11.2835 6.32375 10.7132 5.66197C10.143 5.0002 9.35048 4.56966 8.48493 4.45139C7.76601 4.35316 7.03786 4.47597 6.39526 4.79805C6.17717 4.90735 5.90387 4.85524 5.76857 4.65225C5.63326 4.44927 5.68729 4.17287 5.90265 4.05828C6.727 3.61962 7.672 3.44869 8.60453 3.57612C9.24721 3.66394 9.85758 3.88986 10.3964 4.23253L11.0787 3.49147L11.0812 3.48872C10.334 2.97838 9.46728 2.65869 8.55719 2.56538C7.32703 2.43925 6.09046 2.73422 5.04968 3.40204C4.0089 4.06987 3.22548 5.07104 2.82751 6.24186C2.42955 7.41269 2.44058 8.6839 2.8588 9.84764C3.27702 11.0114 4.0777 11.9988 5.12991 12.6485C5.96303 13.1629 6.91481 13.4414 7.8845 13.4619C8.3088 13.4709 8.69243 13.7657 8.74303 14.1871Z" fill="#424242"/>
<path d="M7.99998 10.4C9.32546 10.4 10.4 9.32549 10.4 8.00001C10.4 6.67453 9.32546 5.60001 7.99998 5.60001C6.67449 5.60001 5.59998 6.67453 5.59998 8.00001C5.59998 9.32549 6.67449 10.4 7.99998 10.4Z" fill="#424242"/>
<path d="M8.74303 14.1871C8.79363 14.6085 8.49256 14.9956 8.06818 14.9997C6.75135 15.0125 5.45184 14.6535 4.3225 13.9562C2.97428 13.1238 1.94836 11.8585 1.41248 10.3674C0.876604 8.87629 0.862472 7.24746 1.3724 5.74726C1.88232 4.24706 2.88613 2.96424 4.2197 2.10855C5.55327 1.25285 7.1377 0.874908 8.71394 1.03651C10.2902 1.19812 11.7649 1.88971 12.8971 2.99821C14.0293 4.10671 14.7519 5.56653 14.9468 7.13899C15.1101 8.45618 14.895 9.78711 14.3346 10.9788C14.154 11.3629 13.6767 11.4753 13.3147 11.2537C12.9527 11.0321 12.8446 10.5605 13.0132 10.171C13.3987 9.281 13.5421 8.29972 13.4216 7.32803C13.2921 6.28251 12.8635 5.30079 12.1931 4.49806L12.1836 4.50854L11.51 5.24018C12.1392 6.04043 12.4774 7.0337 12.4647 8.05566C12.4518 9.08745 12.0821 10.0811 11.4213 10.869L13.3038 13.379C13.6299 13.8137 13.5343 14.4442 13.0903 14.7872C12.6464 15.1301 12.0221 15.0557 11.6961 14.621L9.79613 12.0878C9.38555 12.2682 8.94693 12.3872 8.49407 12.4376C7.4117 12.5581 6.3226 12.2789 5.43174 11.6524C4.54088 11.026 3.90968 10.0956 3.65694 9.03623C3.43851 8.12073 3.51576 7.16351 3.8713 6.30005C3.96418 6.07448 4.23394 5.99355 4.44923 6.10826C4.66453 6.22296 4.74324 6.48982 4.65589 6.7176C4.39851 7.38873 4.34783 8.12543 4.51623 8.83121C4.71897 9.68095 5.22528 10.4273 5.93988 10.9298C6.65448 11.4323 7.5281 11.6563 8.39633 11.5596C9.26455 11.463 10.0675 11.0523 10.6541 10.405C11.2407 9.7576 11.5705 8.91817 11.5814 8.04465C11.5922 7.17113 11.2835 6.32375 10.7132 5.66197C10.143 5.0002 9.35048 4.56966 8.48493 4.45139C7.76601 4.35316 7.03786 4.47597 6.39526 4.79805C6.17717 4.90735 5.90387 4.85524 5.76857 4.65225C5.63326 4.44927 5.68729 4.17287 5.90265 4.05828C6.727 3.61962 7.672 3.44869 8.60453 3.57612C9.24721 3.66394 9.85758 3.88986 10.3964 4.23253L11.0787 3.49147L11.0812 3.48872C10.334 2.97838 9.46728 2.65869 8.55719 2.56538C7.32703 2.43925 6.09046 2.73422 5.04968 3.40204C4.0089 4.06987 3.22548 5.07104 2.82751 6.24186C2.42955 7.41269 2.44058 8.6839 2.8588 9.84764C3.27702 11.0114 4.0777 11.9988 5.12991 12.6485C5.96303 13.1629 6.91481 13.4414 7.8845 13.4619C8.3088 13.4709 8.69243 13.7657 8.74303 14.1871Z" stroke="#424242"/>
<path d="M7.99998 10.4C9.32546 10.4 10.4 9.32549 10.4 8.00001C10.4 6.67453 9.32546 5.60001 7.99998 5.60001C6.67449 5.60001 5.59998 6.67453 5.59998 8.00001C5.59998 9.32549 6.67449 10.4 7.99998 10.4Z" stroke="#424242"/>
</svg>
