<svg width="28" height="28" viewBox="0 0 28 28" fill="none" xmlns="http://www.w3.org/2000/svg">
<path d="M8.84563 1.86914C6.42003 2.75135 4.35545 4.41301 2.97513 6.59396C1.59482 8.77491 0.976696 11.352 1.21755 13.9218L6.69312 13.4086C6.67559 13.2192 6.66663 13.0272 6.66663 12.8332C6.66663 10.1679 8.35745 7.8976 10.725 7.03632L8.84563 1.86914Z" fill="#212121"/>
<path d="M11.2378 8.44637C9.44617 9.09814 8.16663 10.8162 8.16663 12.8332C8.16663 12.98 8.17341 13.1253 8.18668 13.2686C8.23506 13.7915 8.3697 14.2894 8.57623 14.7478C9.12202 15.9595 10.1699 16.8962 11.4548 17.2929C11.8754 17.4228 12.3215 17.4948 12.7837 17.4996L12.8333 17.4998C15.4106 17.4998 17.5 15.4105 17.5 12.8332C17.5 12.6419 17.4884 12.4533 17.4661 12.268C17.4012 11.7304 17.2449 11.221 17.0132 10.7558C16.2489 9.22097 14.6643 8.1665 12.8333 8.1665L12.7963 8.16665C12.2493 8.17089 11.7246 8.26926 11.2378 8.44637ZM15.0667 12.8335C15.0667 14.0669 14.0668 15.0668 12.8333 15.0668C11.5999 15.0668 10.6 14.0669 10.6 12.8335C10.6 11.6 11.5999 10.6001 12.8333 10.6001C14.0668 10.6001 15.0667 11.6 15.0667 12.8335Z" fill="#212121"/>
<path d="M12.8333 6.6665C15.2528 6.6665 17.3468 8.0599 18.3568 10.088L21.1913 8.67926C20.4125 7.11245 19.2091 5.79608 17.7182 4.88035C16.2273 3.96462 14.509 3.48641 12.7594 3.50027L12.7845 6.66669L12.8333 6.6665Z" fill="#212121"/>
<path d="M19 12.8332C19 12.5804 18.9847 12.3311 18.9552 12.0863L25.5722 11.2791C25.7936 13.0937 25.6248 14.9346 25.0771 16.6786C24.5293 18.4226 23.6153 20.0295 22.3963 21.3916C21.1772 22.7538 19.6812 23.8398 18.0084 24.5769C16.3357 25.3141 14.5247 25.6854 12.6968 25.6659L12.7677 18.9995C12.7895 18.9997 12.8114 18.9998 12.8333 18.9998C14.0859 18.9998 15.2514 18.6263 16.2243 17.9846L18.8402 20.8209C19.2147 21.2269 19.8473 21.2525 20.2533 20.878C20.6593 20.5036 20.6848 19.8709 20.3104 19.465L17.6941 16.6284C18.5123 15.5819 19 14.2645 19 12.8332Z" fill="#212121"/>
<path d="M7.20789 15.3633C7.92912 16.9643 9.3138 18.2021 11.0117 18.7264L9.73234 22.8651C8.30859 22.425 6.99484 21.6868 5.87841 20.6998C4.76198 19.7127 3.86846 18.4992 3.25723 17.1401L7.20789 15.3633Z" fill="#212121"/>
</svg>
