<svg width="24" height="24" viewBox="0 0 24 24" fill="none" xmlns="http://www.w3.org/2000/svg">
<path d="M12.4229 21.9911C12.8489 21.973 13.1511 21.5854 13.1003 21.162C13.0494 20.7386 12.6647 20.4403 12.2384 20.4523C10.5945 20.4987 8.96653 20.0646 7.55775 19.1947C5.92917 18.1892 4.68992 16.6609 4.04261 14.8597C3.39529 13.0585 3.37822 11.091 3.99419 9.2788C4.61015 7.46663 5.8227 5.91705 7.43359 4.88342C9.04447 3.84978 10.9584 3.39325 12.8624 3.58846C14.3851 3.74458 15.8295 4.31018 17.0465 5.2154L15.7499 6.6785C14.9041 6.0825 13.9217 5.69212 12.8814 5.54995C11.5549 5.3687 10.2111 5.60148 9.03023 6.20685C8.66479 6.39419 8.57396 6.86011 8.80173 7.20182C9.0295 7.54353 9.48954 7.6302 9.86112 7.45532C10.7345 7.04427 11.7132 6.89132 12.68 7.02342C13.8939 7.18929 15.0052 7.79307 15.805 8.72114C16.6047 9.64921 17.0377 10.8376 17.0224 12.0626C17.0072 13.2876 16.5447 14.4648 15.7221 15.3727C14.8994 16.2805 13.7734 16.8564 12.5558 16.992C11.3382 17.1275 10.113 16.8134 9.11084 16.1087C8.10868 15.404 7.39862 14.3573 7.1143 13.1657C6.88785 12.2165 6.9439 11.2276 7.26716 10.318C7.40468 9.93103 7.27323 9.48173 6.91079 9.28864C6.54835 9.09554 6.09362 9.23171 5.94308 9.61379C5.45666 10.8484 5.35703 12.2086 5.66774 13.5108C6.03624 15.0553 6.95653 16.4119 8.25541 17.3252C9.55429 18.2386 11.1422 18.6457 12.7203 18.47C13.343 18.4007 13.9472 18.2425 14.5161 18.0041L16.962 21.6729C17.3488 22.2532 18.1272 22.4224 18.7005 22.0508C19.2737 21.6792 19.4248 20.9075 19.038 20.3271L16.5744 16.6319C16.6599 16.5475 16.7431 16.4606 16.8241 16.3713C17.8903 15.1946 18.4897 13.6689 18.5095 12.0811C18.5293 10.4934 17.9681 8.95319 16.9316 7.75033C16.9101 7.72545 16.8885 7.70075 16.8667 7.67623L18.1642 6.21209C19.389 7.51638 20.1706 9.1783 20.3914 10.9599C20.5951 12.603 20.3113 14.2638 19.5841 15.7388C19.3956 16.1213 19.5064 16.5954 19.8701 16.8181C20.2338 17.0407 20.7121 16.9276 20.9061 16.5477C21.8127 14.7722 22.1707 12.7601 21.924 10.77C21.6456 8.5236 20.6133 6.43815 18.9959 4.85458C17.3785 3.27101 15.2717 2.28302 13.0199 2.05216C10.7681 1.8213 8.50467 2.36121 6.59957 3.58363C4.69447 4.80605 3.26046 6.63865 2.53199 8.78179C1.80353 10.9249 1.82372 13.2518 2.58926 15.382C3.3548 17.5122 4.82039 19.3196 6.74642 20.5088C8.45274 21.5623 10.431 22.0754 12.4229 21.9911Z" fill="#424242"/>
<path d="M12 8.4C10.0118 8.4 8.4 10.0118 8.4 12C8.4 13.9882 10.0118 15.6 12 15.6C13.9882 15.6 15.6 13.9882 15.6 12C15.6 10.0118 13.9882 8.4 12 8.4Z" fill="#424242"/>
</svg>
