<svg width="20" height="20" viewBox="0 0 20 20" fill="none" xmlns="http://www.w3.org/2000/svg">
<path d="M6.2721 2C4.72116 2.5599 3.38434 3.56749 2.44171 4.88705C1.49907 6.20662 0.995923 7.77476 1.00002 9.38024L4.64287 9.37148L4.64286 9.36077C4.64286 7.5051 5.84895 5.92273 7.54209 5.31125L6.2721 2ZM4.77597 10.4133L2.02902 11.0827C2.32251 12.2163 2.90116 13.2616 3.71317 14.125C4.52518 14.9885 5.54521 15.643 6.68193 16.0302L7.62004 13.4376C6.22022 12.9609 5.14023 11.8248 4.77597 10.4133ZM8.19949 17.9562L8.64733 13.6588C8.79464 13.6731 8.94406 13.6804 9.09524 13.6804C9.96498 13.6804 10.7765 13.4384 11.4621 13.0201L13.0666 14.714C13.3692 15.0334 13.8813 15.0544 14.2105 14.7609C14.5396 14.4674 14.5613 13.9705 14.2587 13.6511L12.654 11.957C13.215 11.2343 13.5476 10.3352 13.5476 9.36077C13.5476 9.0059 13.5035 8.66102 13.4203 8.33102L17.7434 7.30175C18.0832 8.64515 18.0856 10.0481 17.7502 11.3925C17.4149 12.737 16.7518 13.9837 15.8165 15.0278C14.8813 16.0718 13.7013 16.8828 12.3758 17.3924C11.0503 17.902 9.61803 18.0953 8.19949 17.9562ZM13.0683 7.40897L15.0313 6.46203C14.4238 5.27665 13.4499 4.30498 12.2455 3.68277C11.0411 3.06057 9.66642 2.81891 8.31357 2.99156L8.59511 5.06811C8.75929 5.0503 8.92616 5.04116 9.09524 5.04116C10.8303 5.04116 12.3335 6.00399 13.0683 7.40897Z" fill="#212121"/>
<path d="M7.96568 6.41566C6.7343 6.86038 5.85714 8.0112 5.85714 9.36077L5.85715 9.36856C5.85781 9.62986 5.89134 9.88366 5.95395 10.1263C6.21887 11.1528 7.00432 11.979 8.02236 12.3258C8.25995 12.4067 8.51022 12.4615 8.76949 12.4866C8.87662 12.497 8.98529 12.5023 9.09524 12.5023C9.64698 12.5023 10.1665 12.3684 10.6211 12.1323C11.105 11.8811 11.5155 11.514 11.8131 11.0693C12.1422 10.5775 12.3333 9.99079 12.3333 9.36077C12.3333 9.10268 12.3013 8.85186 12.2408 8.61186C12.1808 8.374 12.0929 8.14676 11.9807 7.9336C11.4449 6.91597 10.3539 6.21924 9.09524 6.21924C8.97982 6.21924 8.86582 6.22509 8.75353 6.23652C8.47927 6.26443 8.2152 6.32555 7.96568 6.41566ZM9.09524 10.1462C9.06775 10.1462 9.04058 10.1448 9.0138 10.1422C8.94898 10.136 8.88642 10.1223 8.82702 10.102C8.70124 10.0592 8.58966 9.98706 8.50097 9.89409C8.4102 9.79894 8.34341 9.68195 8.30992 9.55215C8.29426 9.49149 8.28588 9.42804 8.28572 9.36272L8.28571 9.36077C8.28571 9.02338 8.505 8.73567 8.81285 8.6245C8.8935 8.59537 8.98023 8.57836 9.07068 8.57574C9.07884 8.57551 9.08702 8.57539 9.09524 8.57539C9.33215 8.57539 9.54529 8.67412 9.69333 8.83149C9.73647 8.87735 9.77409 8.9282 9.80515 8.98303C9.83873 9.04229 9.86465 9.10622 9.88162 9.17354C9.89674 9.23355 9.90476 9.29625 9.90476 9.36077C9.90476 9.79453 9.54233 10.1462 9.09524 10.1462Z" fill="#212121"/>
</svg>
