<svg width="16" height="16" viewBox="0 0 16 16" fill="none" xmlns="http://www.w3.org/2000/svg">
<path d="M6.07964 3.88642L5.05463 1.06818C3.66857 1.5723 2.48881 2.52182 1.70006 3.76808C0.911307 5.01434 0.558095 6.48698 0.695723 7.95543L3.68239 7.67546C3.67196 7.56276 3.66663 7.44859 3.66663 7.33317C3.66663 5.74845 4.67196 4.39854 6.07964 3.88642Z" fill="#212121"/>
<path d="M10.9019 1.96133C11.9402 2.59907 12.7783 3.51583 13.3207 4.607L10.711 5.90405C10.1707 4.62856 8.92899 3.72233 7.4696 3.66899L7.44845 1.0002C8.66693 0.990546 9.86359 1.32359 10.9019 1.96133Z" fill="#212121"/>
<path d="M7.29429 10.9996L7.25527 14.6663C8.29979 14.6774 9.33462 14.4652 10.2905 14.044C11.2464 13.6228 12.1012 13.0022 12.7978 12.2238C13.4944 11.4454 14.0167 10.5272 14.3297 9.53063C14.6427 8.53405 14.7392 7.4821 14.6127 6.44522L10.9734 6.88923C10.9909 7.03476 11 7.18291 11 7.33317C11 8.21857 10.6861 9.03067 10.1637 9.66431L11.5535 11.1712C11.7407 11.3741 11.7279 11.6905 11.5249 11.8777C11.3219 12.0649 11.0056 12.0521 10.8184 11.8491L9.42874 10.3425C8.83479 10.7568 8.11242 10.9998 7.33329 10.9998L7.29429 10.9996Z" fill="#212121"/>
<path fill-rule="evenodd" clip-rule="evenodd" d="M9.81301 6.35037C9.43857 5.4064 8.5407 4.72701 7.47754 4.67034C7.42978 4.66779 7.38169 4.6665 7.33329 4.6665C7.01305 4.6665 6.70599 4.72295 6.42153 4.82645C5.39777 5.1989 4.66663 6.18065 4.66663 7.33317C4.66663 7.41712 4.6705 7.50016 4.67809 7.58212C4.71285 7.95757 4.82544 8.31046 4.99958 8.62449C5.36319 9.28022 5.99515 9.76655 6.74718 9.93522C6.92691 9.97553 7.1135 9.99769 7.30493 9.99969L7.33329 9.99984C7.85043 9.99984 8.33319 9.85263 8.74195 9.59784C9.02756 9.41981 9.27704 9.18925 9.47688 8.91969C9.80556 8.47634 9.99996 7.92746 9.99996 7.33317C9.99996 7.2239 9.99339 7.11617 9.98062 7.01035C9.95282 6.78003 9.89567 6.55875 9.81301 6.35037ZM7.33333 8.60954C8.03816 8.60954 8.60954 8.03816 8.60954 7.33333C8.60954 6.62851 8.03816 6.05713 7.33333 6.05713C6.62851 6.05713 6.05713 6.62851 6.05713 7.33333C6.05713 8.03816 6.62851 8.60954 7.33333 8.60954Z" fill="#212121"/>
<path d="M4.08506 9.03578L1.57187 10.166C1.95025 11.0074 2.50338 11.7585 3.19451 12.3696C3.88563 12.9807 4.6989 13.4376 5.58027 13.7101L6.4511 10.893C5.42318 10.6391 4.56612 9.95166 4.08506 9.03578Z" fill="#212121"/>
</svg>
