<svg width="48" height="48" viewBox="0 0 48 48" fill="none" xmlns="http://www.w3.org/2000/svg">
<path d="M26.2655 42.8644C26.3313 43.4128 25.9401 43.9133 25.3892 43.9517C21.2229 44.2418 17.0606 43.2205 13.4928 41.0176C9.64079 38.6392 6.7096 35.0244 5.17852 30.764C3.64744 26.5036 3.60706 21.8499 5.06399 17.5636C6.52091 13.2773 9.38894 9.61211 13.1991 7.16727C17.0093 4.72243 21.5363 3.6426 26.0398 4.10432C30.5433 4.56605 34.757 6.54202 37.9918 9.70915C41.2266 12.8763 43.2912 17.0472 43.8481 21.54C44.3639 25.7012 43.5579 29.9105 41.558 33.5769C41.2935 34.0617 40.6755 34.2087 40.2045 33.9204L39.6684 33.5922C39.1973 33.3038 39.0521 32.6894 39.3128 32.2026C41.0041 29.0453 41.682 25.4339 41.2395 21.8633C40.764 18.0267 39.0226 14.4604 36.2939 11.7271L34.7399 13.5284C34.954 13.748 35.1618 13.9746 35.3631 14.2081C37.7514 16.9797 39.0444 20.5286 38.9988 24.187C38.9532 27.8453 37.5721 31.3609 35.1154 34.0721C34.9549 34.2492 34.7905 34.4221 34.6224 34.5907L39.0106 40.6667C39.8463 41.8238 39.6236 43.3588 38.5132 44.0952C37.4027 44.8315 35.825 44.4904 34.9893 43.3333L30.7139 37.4135C29.1433 38.1997 27.434 38.7103 25.6597 38.9079C22.0235 39.3127 18.3647 38.3746 15.3719 36.2701C12.3791 34.1656 10.2586 31.0399 9.40956 27.4811C8.63806 24.2476 8.96455 20.8591 10.3211 17.8446C10.5478 17.341 11.1656 17.1622 11.653 17.4219C12.1405 17.6816 12.33 18.2907 12.1086 18.7967C10.9807 21.3741 10.7173 24.2582 11.3745 27.0123C12.1092 30.0918 13.9441 32.7966 16.5339 34.6177C19.1236 36.4388 22.2897 37.2505 25.4362 36.9002C28.5827 36.5499 31.4927 35.0617 33.6185 32.7157C35.7444 30.3696 36.9395 27.3275 36.9789 24.1618C37.0184 20.9961 35.8995 17.9251 33.8328 15.5268C31.7661 13.1285 28.8941 11.5682 25.7573 11.1396C22.9519 10.7562 20.1077 11.3017 17.6535 12.6774C17.1718 12.9474 16.547 12.8186 16.2407 12.3591C15.9343 11.8995 16.0515 11.2671 16.5305 10.9921C19.3971 9.3459 22.7371 8.68808 26.0308 9.13814C28.5172 9.4779 30.8597 10.4329 32.8566 11.8938L34.41 10.0932C31.901 8.21509 28.9178 7.04174 25.7717 6.71919C21.8601 6.31815 17.9281 7.25606 14.6187 9.37958C11.3093 11.5031 8.81817 14.6866 7.55273 18.4095C6.28728 22.1325 6.32235 26.1746 7.6522 29.875C8.98205 33.5754 11.528 36.7152 14.8738 38.781C17.9352 40.6712 21.5006 41.5599 25.0755 41.3381C25.6267 41.3039 26.1247 41.692 26.1905 42.2403L26.2655 42.8644Z" fill="#424242"/>
<path d="M24 34.8C29.9647 34.8 34.8 29.9647 34.8 24C34.8 18.0353 29.9647 13.2 24 13.2C18.0353 13.2 13.2 18.0353 13.2 24C13.2 29.9647 18.0353 34.8 24 34.8Z" fill="#424242"/>
</svg>
