<svg width="20" height="20" viewBox="0 0 20 20" fill="none" xmlns="http://www.w3.org/2000/svg">
<path d="M6.31838 1.33545C4.5858 1.9656 3.1111 3.1525 2.12516 4.71032C1.13923 6.26814 0.69771 8.10894 0.869745 9.9445L4.852 9.57127C4.83967 9.43811 4.83337 9.30321 4.83337 9.16683C4.83337 7.29396 6.02151 5.6986 7.68516 5.09338L6.31838 1.33545Z" fill="#212121"/>
<path d="M8.97495 5.83892C9.03841 5.83532 9.10235 5.8335 9.16671 5.8335C10.3947 5.8335 11.4676 6.49755 12.046 7.48616C12.2703 7.86959 12.4201 8.30184 12.4758 8.76309C12.4918 8.89544 12.5 9.03017 12.5 9.16683C12.5 9.95524 12.2263 10.6797 11.7687 11.2504C11.5594 11.5115 11.3115 11.7404 11.0338 11.9286C10.5011 12.2894 9.85854 12.5002 9.16671 12.5002L9.13121 12.5C8.72782 12.4958 8.34161 12.4199 7.98469 12.2845C7.08842 11.9445 6.37688 11.2291 6.04206 10.3303C5.94172 10.061 5.87521 9.77511 5.8477 9.47795C5.83822 9.37552 5.83337 9.27174 5.83337 9.16683C5.83337 7.72616 6.74733 6.49896 8.02705 6.03341C8.32545 5.92485 8.64373 5.8577 8.97495 5.83892ZM9.16667 10.7618C10.0477 10.7618 10.7619 10.0476 10.7619 9.16654C10.7619 8.28551 10.0477 7.57129 9.16667 7.57129C8.28563 7.57129 7.57141 8.28551 7.57141 9.16654C7.57141 10.0476 8.28563 10.7618 9.16667 10.7618Z" fill="#212121"/>
<path d="M5.12827 10.7413L1.70389 12.2813C2.16959 13.3168 2.85037 14.2413 3.70098 14.9934C4.55159 15.7455 5.55255 16.3079 6.63731 16.6432L7.68883 13.2416C6.51684 12.8165 5.58038 11.9001 5.12827 10.7413Z" fill="#212121"/>
<path d="M9.12057 13.4999L9.06914 18.3329C10.3748 18.3468 11.6683 18.0816 12.8632 17.555C14.058 17.0285 15.1266 16.2528 15.9973 15.2798C16.8681 14.3068 17.521 13.1591 17.9122 11.9133C18.3034 10.6676 18.424 9.35268 18.2659 8.05658L13.4686 8.64196C13.4893 8.81401 13.5 8.98917 13.5 9.16683C13.5 10.2462 13.1054 11.2333 12.4526 11.9919L14.3499 14.0489C14.5371 14.2519 14.5243 14.5682 14.3213 14.7554C14.1183 14.9427 13.802 14.9299 13.6148 14.7269L11.7177 12.6701C11.0021 13.1921 10.1204 13.5002 9.16671 13.5002L9.12057 13.4999Z" fill="#212121"/>
<path d="M12.9432 7.04021L15.2685 5.88452C14.6844 4.70941 13.7818 3.72213 12.6636 3.03533C11.5454 2.34853 10.2567 1.98988 8.94453 2.00028L8.96702 4.83802C9.03321 4.83501 9.09978 4.8335 9.16671 4.8335C10.7871 4.8335 12.1998 5.72292 12.9432 7.04021Z" fill="#212121"/>
</svg>
