<svg width="28" height="28" viewBox="0 0 28 28" fill="none" xmlns="http://www.w3.org/2000/svg">
<path d="M14.6376 25.983C15.0768 25.9597 15.3883 25.5604 15.3359 25.1238C15.2834 24.6871 14.8868 24.3789 14.4474 24.3978C12.3719 24.4871 10.3103 23.9532 8.53237 22.8555C6.52788 21.6178 5.00257 19.7368 4.20584 17.5198C3.40911 15.3028 3.3881 12.8811 4.14624 10.6507C4.90438 8.42022 6.39682 6.51295 8.37954 5.24073C10.3623 3.96851 12.718 3.40659 15.0615 3.64686C16.9764 3.84319 18.7907 4.56566 20.3086 5.72253L18.7152 7.53724C17.652 6.76157 16.4057 6.25441 15.0831 6.07368C13.401 5.84383 11.6963 6.15575 10.2123 6.95348C9.84376 7.1516 9.75106 7.62554 9.98315 7.97373C10.2152 8.32191 10.6841 8.41158 11.0569 8.22166C12.2295 7.6244 13.5623 7.39528 14.8779 7.57506C16.4451 7.78919 17.8799 8.5687 18.9124 9.76687C19.9449 10.965 20.5039 12.4993 20.4842 14.0808C20.4644 15.6624 19.8674 17.1822 18.8053 18.3543C17.7433 19.5263 16.2895 20.2698 14.7175 20.4448C13.1455 20.6198 11.5638 20.2143 10.27 19.3045C8.97617 18.3947 8.05947 17.0434 7.6924 15.5049C7.38422 14.2133 7.4813 12.8645 7.96046 11.6389C8.11282 11.2492 7.97753 10.7914 7.60822 10.5947C7.23891 10.3979 6.77638 10.5367 6.61542 10.923C5.96736 12.4782 5.82444 14.2053 6.21843 15.8566C6.67128 17.7546 7.8022 19.4217 9.39837 20.5441C10.9945 21.6664 12.9459 22.1668 14.8852 21.9509C15.6677 21.8637 16.4265 21.6624 17.1394 21.3582L20.0815 25.4772C20.652 26.2758 21.7495 26.4858 22.5329 25.9461C23.3163 25.4064 23.4889 24.3215 22.9184 23.5228L19.9423 19.3562C21.2437 17.9124 21.9751 16.0439 21.9994 14.0997C22.0237 12.1486 21.3341 10.2558 20.0603 8.77768C19.9873 8.69301 19.9127 8.61003 19.8366 8.52878L21.4308 6.71318C23.028 8.34192 24.0473 10.4521 24.3284 12.7199C24.5854 14.7935 24.2117 16.8901 23.2656 18.7396C23.0653 19.1311 23.1802 19.6201 23.5553 19.8497C23.9303 20.0794 24.4231 19.9625 24.6274 19.5731C25.7595 17.4144 26.2102 14.9555 25.9089 12.524C25.5747 9.82833 24.336 7.32577 22.3951 5.42549C20.4542 3.52521 17.926 2.33963 15.2239 2.06259C12.5218 1.78556 9.80561 2.43346 7.51948 3.90036C5.23336 5.36727 3.51255 7.56638 2.63839 10.1382C1.76424 12.7099 1.78846 15.5022 2.70711 18.0584C3.62576 20.6146 5.38447 22.7835 7.6957 24.2106C9.78047 25.4978 12.2035 26.1126 14.6376 25.983Z" fill="#424242"/>
<path d="M14 9.25C11.3766 9.25 9.25 11.3766 9.25 14C9.25 16.6234 11.3766 18.75 14 18.75C16.6234 18.75 18.75 16.6234 18.75 14C18.75 11.3766 16.6234 9.25 14 9.25Z" fill="#424242"/>
</svg>
