<svg width="32" height="32" viewBox="0 0 32 32" fill="none" xmlns="http://www.w3.org/2000/svg">
<path d="M10.1094 2.13672C7.33726 3.14495 4.97774 5.04399 3.40024 7.53651C1.82274 10.029 1.11631 12.9743 1.39157 15.9112L7.3649 15.3514C7.34404 15.126 7.33337 14.8977 7.33337 14.6668C7.33337 11.4974 9.34406 8.79754 12.1594 7.77331L10.1094 2.13672Z" fill="#212121"/>
<path d="M9.80136 16.8547C9.56543 16.3309 9.41161 15.7621 9.35631 15.1647C9.34113 15.0008 9.33337 14.8347 9.33337 14.6668C9.33337 12.3618 10.7957 10.3983 12.8432 9.65336C13.3996 9.45095 13.9992 9.33852 14.6244 9.33366L14.6667 9.3335C16.7592 9.3335 18.5703 10.5386 19.4437 12.2926C19.7085 12.8243 19.8871 13.4065 19.9613 14.0209C19.9869 14.2326 20 14.4482 20 14.6668C20 17.6123 17.6122 20.0002 14.6667 20.0002L14.6099 19.9999C14.0817 19.9944 13.5719 19.9121 13.0911 19.7636C11.6226 19.3101 10.4251 18.2395 9.80136 16.8547ZM14.6667 17.2191C16.0763 17.2191 17.2191 16.0763 17.2191 14.6667C17.2191 13.257 16.0763 12.1143 14.6667 12.1143C13.257 12.1143 12.1143 13.257 12.1143 14.6667C12.1143 16.0763 13.257 17.2191 14.6667 17.2191Z" fill="#212121"/>
<path d="M7.97688 17.6753L3.72247 19.5886C4.42101 21.1418 5.44218 22.5286 6.7181 23.6567C7.99402 24.7848 9.49545 25.6284 11.1226 26.1314L12.5002 21.6749C10.4811 21.0514 8.83449 19.5793 7.97688 17.6753Z" fill="#212121"/>
<path d="M14.5106 29.3327L14.5887 21.9998C14.6146 22 14.6407 22.0002 14.6667 22.0002C16.1343 22.0002 17.5011 21.5691 18.6476 20.8266L21.4529 23.8682C21.921 24.3757 22.7118 24.4076 23.2193 23.9396C23.7267 23.4715 23.7587 22.6807 23.2906 22.1733L20.4849 19.1313C21.4351 17.8948 22 16.3468 22 14.6668C22 14.3662 21.9819 14.0698 21.9468 13.7786L29.2254 12.8906C29.4784 14.9644 29.2855 17.0683 28.6595 19.0614C28.0335 21.0546 26.989 22.891 25.5957 24.4478C24.2025 26.0045 22.4928 27.2457 20.5811 28.0881C18.6693 28.9306 16.5996 29.3549 14.5106 29.3327Z" fill="#212121"/>
<path d="M21.2351 11.4022L24.2186 9.91937C23.3286 8.12872 21.9532 6.6243 20.2493 5.57775C18.5454 4.5312 16.5817 3.98467 14.5821 4.00052L14.6086 7.33372L14.6667 7.3335C17.5439 7.3335 20.0341 8.99047 21.2351 11.4022Z" fill="#212121"/>
</svg>
