<svg width="24" height="24" viewBox="0 0 24 24" fill="none" xmlns="http://www.w3.org/2000/svg">
<path d="M12.2057 21.9979C12.752 21.9866 13.1395 21.4888 13.0744 20.9463C13.0092 20.4037 12.5157 20.0231 11.9692 20.0211C10.4976 20.0154 9.04898 19.6048 7.78604 18.825C6.24116 17.8711 5.06559 16.4214 4.45154 14.7127C3.83749 13.0041 3.8213 11.1377 4.40561 9.41864C4.98991 7.6996 6.14015 6.22966 7.66825 5.24914C9.19636 4.26862 11.0119 3.83555 12.8181 4.02073C14.166 4.15893 15.4492 4.63537 16.5528 5.39619L15.5414 6.53749C14.7443 6.02077 13.8374 5.68058 12.8814 5.54995C11.5549 5.3687 10.2111 5.60148 9.03029 6.20685C8.66484 6.39419 8.57401 6.86011 8.80178 7.20182C9.02956 7.54353 9.4896 7.6302 9.86117 7.45532C10.7346 7.04427 11.7133 6.89132 12.6801 7.02342C13.8939 7.18929 15.0053 7.79307 15.805 8.72114C16.6048 9.64921 17.0378 10.8376 17.0225 12.0626C17.0072 13.2876 16.5448 14.4648 15.7221 15.3727C14.8995 16.2805 13.7734 16.8564 12.5558 16.992C11.3382 17.1275 10.113 16.8134 9.11089 16.1087C8.10873 15.404 7.39868 14.3573 7.11435 13.1657C6.8879 12.2165 6.94395 11.2276 7.26721 10.318C7.40473 9.93103 7.27328 9.48173 6.91084 9.28864C6.5484 9.09554 6.09367 9.23171 5.94313 9.61379C5.45671 10.8484 5.35709 12.2086 5.66779 13.5108C6.0363 15.0553 6.95658 16.4119 8.25546 17.3252C9.55434 18.2386 11.1423 18.6457 12.7204 18.47C13.258 18.4102 13.7818 18.2841 14.281 18.0973L16.7544 21.8074C17.2187 22.5038 18.1527 22.7069 18.8406 22.2609C19.5286 21.815 19.7099 20.8889 19.2456 20.1926L16.751 16.4506C16.7756 16.4244 16.8 16.398 16.8241 16.3713C17.8904 15.1946 18.4897 13.6689 18.5095 12.0811C18.5287 10.5446 18.0038 9.05264 17.0305 7.86781L18.0429 6.72537C19.0924 7.92772 19.7627 9.42009 19.9602 11.0134C20.1428 12.4864 19.9124 13.9744 19.3043 15.3145C19.0785 15.8121 19.2188 16.4193 19.6848 16.7046C20.1509 16.99 20.7649 16.8451 21.0028 16.3532C21.838 14.626 22.1617 12.6878 21.924 10.77C21.6456 8.5236 20.6133 6.43815 18.9959 4.85458C17.3785 3.27101 15.2717 2.28302 13.0199 2.05216C10.7681 1.8213 8.50467 2.36121 6.59957 3.58363C4.69447 4.80605 3.26046 6.63865 2.53199 8.78179C1.80353 10.9249 1.82372 13.2518 2.58926 15.382C3.3548 17.5122 4.82039 19.3196 6.74642 20.5088C8.39072 21.524 10.2875 22.0374 12.2057 21.9979Z" fill="#424242"/>
<path d="M12 8.4C10.0118 8.4 8.4 10.0118 8.4 12C8.4 13.9882 10.0118 15.6 12 15.6C13.9882 15.6 15.6 13.9882 15.6 12C15.6 10.0118 13.9882 8.4 12 8.4Z" fill="#424242"/>
</svg>
