<svg width="24" height="24" viewBox="0 0 24 24" fill="none" xmlns="http://www.w3.org/2000/svg">
<path d="M2.55015 5.6519C3.73328 3.78251 5.50292 2.35823 7.582 1.60205L9.11967 5.82981C7.00807 6.59796 5.5 8.62287 5.5 11C5.5 11.173 5.50799 11.3441 5.52361 11.513L1.04364 11.9329C0.837203 9.73024 1.36702 7.52128 2.55015 5.6519Z" fill="#212121"/>
<path d="M10.9683 7.00012C10.4994 7.00376 10.0498 7.08807 9.63251 7.23986C8.09679 7.7985 7 9.27117 7 11C7 11.1258 7.00581 11.2502 7.01717 11.3731C7.05861 11.8212 7.17398 12.2479 7.35096 12.6409C7.81873 13.6795 8.71692 14.4825 9.81828 14.8226C10.1789 14.9339 10.5613 14.9956 10.9574 14.9998L11 15C11.6842 15 12.3282 14.8282 12.8914 14.5255C13.4885 14.2044 13.9947 13.7362 14.3613 13.1692C14.7654 12.5443 15 11.7996 15 11C15 10.8359 14.9901 10.6742 14.9709 10.5153C14.9153 10.0545 14.7813 9.61792 14.5827 9.21912C13.9275 7.90372 12.5693 7 11 7L10.9683 7.00012ZM11 12.9146C9.94276 12.9146 9.08569 12.0575 9.08569 11.0002C9.08569 9.943 9.94276 9.08594 11 9.08594C12.0572 9.08594 12.9143 9.943 12.9143 11.0002C12.9143 12.0575 12.0572 12.9146 11 12.9146Z" fill="#212121"/>
<path d="M13.9323 15.654L16.0437 17.9433C16.4182 18.3492 17.0508 18.3748 17.4568 18.0004C17.8628 17.6259 17.8883 16.9933 17.5139 16.5873L15.4021 14.2977C16.0915 13.3789 16.5 12.2371 16.5 11C16.5 10.7744 16.4864 10.5521 16.46 10.3336L21.919 9.6676C22.1088 11.2229 21.9641 12.8008 21.4946 14.2957C21.0251 15.7906 20.2417 17.1679 19.1968 18.3355C18.1519 19.503 16.8696 20.4339 15.4358 21.0657C14.002 21.6976 12.4497 22.0158 10.883 21.9992L10.9415 16.4997C10.961 16.4999 10.9805 16.5 11 16.5C12.078 16.5 13.0835 16.1899 13.9323 15.654Z" fill="#212121"/>
<path d="M15.9262 8.55136C15.0254 6.74264 13.1578 5.5 11 5.5L10.9564 5.50017L10.9366 3.00003C12.4363 2.98814 13.9091 3.39804 15.187 4.18295C16.4649 4.96786 17.4965 6.09618 18.1639 7.43916L15.9262 8.55136Z" fill="#212121"/>
<path d="M5.9826 13.2562C6.62579 14.6843 7.8608 15.7884 9.37516 16.256L8.34197 19.5983C7.12162 19.2211 5.99554 18.5884 5.0386 17.7423C4.08167 16.8962 3.31579 15.8561 2.79188 14.6912L5.9826 13.2562Z" fill="#212121"/>
</svg>
