<svg width="28" height="28" viewBox="0 0 28 28" fill="none" xmlns="http://www.w3.org/2000/svg">
<path d="M8.75309 2C6.47229 2.83985 4.50638 4.35124 3.12016 6.33058C1.73393 8.30993 0.994004 10.6621 1.00004 13.0704L6.35716 13.0572L6.35714 13.0412C6.35714 10.2577 8.1308 7.8841 10.6207 6.96687L8.75309 2ZM6.5529 14.62L2.51327 15.6241C2.94487 17.3245 3.79583 18.8924 4.98996 20.1876C6.18409 21.4827 7.68413 22.4646 9.35578 23.0453L10.7353 19.1565C8.67679 18.4413 7.08857 16.7371 6.5529 14.62ZM11.5875 25.9343L12.2461 19.4882C12.4627 19.5096 12.6824 19.5206 12.9048 19.5206C14.1838 19.5206 15.3772 19.1577 16.3855 18.5302L18.7451 21.071C19.1899 21.5501 19.943 21.5815 20.4271 21.1413C20.9112 20.701 20.943 19.9558 20.4981 19.4767L18.1382 16.9355C18.9633 15.8515 19.4524 14.5028 19.4524 13.0412C19.4524 12.5089 19.3875 11.9915 19.2652 11.4965L25.6226 9.95262C26.1224 11.9677 26.1258 14.0721 25.6327 16.0888C25.1396 18.1055 24.1644 19.9755 22.789 21.5416C21.4136 23.1078 19.6783 24.3242 17.7291 25.0886C15.7798 25.8529 13.6736 26.143 11.5875 25.9343ZM18.7474 10.1135L21.6343 8.69304C20.741 6.91497 19.3086 5.45747 17.5375 4.52416C15.7663 3.59086 13.7447 3.22836 11.7552 3.48733L12.1693 6.60216C12.4107 6.57546 12.6561 6.56174 12.9048 6.56174C15.4563 6.56174 17.6669 8.00599 18.7474 10.1135Z" fill="#212121"/>
<path d="M11.2436 8.6235C9.43279 9.29057 8.14286 11.0168 8.14286 13.0412L8.14287 13.0528C8.14383 13.4448 8.19315 13.8255 8.28523 14.1894C8.6748 15.7291 9.82988 16.9686 11.327 17.4887C11.6764 17.61 12.0444 17.6922 12.4257 17.7299C12.5833 17.7455 12.7431 17.7535 12.9048 17.7535C13.7161 17.7535 14.4801 17.5526 15.1487 17.1985C15.8603 16.8216 16.4639 16.271 16.9016 15.6039C17.3856 14.8662 17.6667 13.9862 17.6667 13.0412C17.6667 12.654 17.6195 12.2778 17.5305 11.9178C17.4423 11.561 17.3131 11.2201 17.1481 10.9004C16.3601 9.37396 14.7558 8.32885 12.9048 8.32885C12.735 8.32885 12.5674 8.33764 12.4022 8.35478C11.9989 8.39664 11.6106 8.48832 11.2436 8.6235ZM12.9048 14.2192C12.8643 14.2192 12.8244 14.2172 12.785 14.2133C12.6897 14.2039 12.5977 14.1834 12.5103 14.153C12.3253 14.0888 12.1613 13.9806 12.0308 13.8411C11.8974 13.6984 11.7991 13.5229 11.7499 13.3282C11.7269 13.2372 11.7145 13.1421 11.7143 13.0441L11.7143 13.0412C11.7143 12.5351 12.0368 12.1035 12.4895 11.9367C12.6081 11.8931 12.7356 11.8675 12.8686 11.8636C12.8806 11.8633 12.8927 11.8631 12.9048 11.8631C13.2532 11.8631 13.5666 12.0112 13.7843 12.2472C13.8478 12.316 13.9031 12.3923 13.9488 12.4745C13.9981 12.5634 14.0362 12.6593 14.0612 12.7603C14.0834 12.8503 14.0952 12.9444 14.0952 13.0412C14.0952 13.6918 13.5622 14.2192 12.9048 14.2192Z" fill="#212121"/>
</svg>
