<svg width="24" height="24" viewBox="0 0 24 24" fill="none" xmlns="http://www.w3.org/2000/svg">
<path d="M7.582 1.60205C5.50292 2.35823 3.73328 3.78251 2.55015 5.6519C1.36702 7.52128 0.837203 9.73024 1.04364 11.9329L5.52361 11.513C5.50799 11.3441 5.5 11.173 5.5 11C5.5 8.62287 7.00807 6.59796 9.11967 5.82981L7.582 1.60205Z" fill="#212121"/>
<path fill-rule="evenodd" clip-rule="evenodd" d="M9.63251 7.23986C10.0498 7.08807 10.4994 7.00376 10.9683 7.00012L11 7C12.5693 7 13.9275 7.90372 14.5827 9.21912C14.7813 9.61792 14.9153 10.0545 14.9709 10.5153C14.9901 10.6742 15 10.8359 15 11C15 11.7996 14.7654 12.5443 14.3613 13.1692C13.9947 13.7362 13.4885 14.2044 12.8914 14.5255C12.3282 14.8282 11.6842 15 11 15L10.9574 14.9998C10.5613 14.9956 10.1789 14.9339 9.81828 14.8226C8.71692 14.4825 7.81873 13.6795 7.35096 12.6409C7.17398 12.2479 7.05861 11.8212 7.01717 11.3731C7.00581 11.2502 7 11.1258 7 11C7 9.27117 8.09679 7.7985 9.63251 7.23986ZM11 12.9146C12.0572 12.9146 12.9143 12.0575 12.9143 11.0002C12.9143 9.943 12.0572 9.08594 11 9.08594C9.94276 9.08594 9.08569 9.943 9.08569 11.0002C9.08569 12.0575 9.94276 12.9146 11 12.9146Z" fill="#212121"/>
<path d="M11 5.5C13.1578 5.5 15.0254 6.74264 15.9262 8.55136L18.1639 7.43916C17.4965 6.09618 16.4649 4.96786 15.187 4.18295C13.9091 3.39804 12.4363 2.98814 10.9366 3.00003L10.9564 5.50017L11 5.5Z" fill="#212121"/>
<path d="M16.0437 17.9433L13.9323 15.654C13.0835 16.1899 12.078 16.5 11 16.5C10.9805 16.5 10.961 16.4999 10.9415 16.4997L10.883 21.9992C12.4497 22.0158 14.002 21.6976 15.4358 21.0657C16.8696 20.4339 18.1519 19.503 19.1968 18.3355C20.2417 17.1679 21.0251 15.7906 21.4946 14.2957C21.9641 12.8008 22.1088 11.2229 21.919 9.6676L16.46 10.3336C16.4864 10.5521 16.5 10.7744 16.5 11C16.5 12.2371 16.0915 13.3789 15.4021 14.2977L17.5139 16.5873C17.8883 16.9933 17.8628 17.6259 17.4568 18.0004C17.0508 18.3748 16.4182 18.3492 16.0437 17.9433Z" fill="#212121"/>
<path d="M9.37516 16.256C7.8608 15.7884 6.62579 14.6843 5.9826 13.2562L2.79188 14.6912C3.31579 15.8561 4.08167 16.8962 5.0386 17.7423C5.99554 18.5884 7.12162 19.2211 8.34197 19.5983L9.37516 16.256Z" fill="#212121"/>
</svg>
