<svg width="24" height="24" viewBox="0 0 24 24" fill="none" xmlns="http://www.w3.org/2000/svg">
<path d="M8.5126 2C6.59673 2.69987 4.94536 3.95936 3.78093 5.60882C2.6165 7.25827 1.99496 9.21845 2.00003 11.2253L6.50002 11.2143L6.5 11.201C6.5 8.88138 7.98988 6.90341 10.0814 6.13906L8.5126 2Z" fill="#212121"/>
<path d="M19.3328 7.57753C18.5824 6.09581 17.3792 4.88122 15.8915 4.10347C14.4037 3.32571 12.7056 3.02364 11.0344 3.23944L11.3822 5.83513C11.585 5.81288 11.7911 5.80145 12 5.80145C14.1433 5.80145 16.0002 7.00499 16.9079 8.76122L19.3328 7.57753Z" fill="#212121"/>
<path fill-rule="evenodd" clip-rule="evenodd" d="M10.6047 7.51958C9.08355 8.07547 8 9.51399 8 11.201L8.00001 11.2107C8.00082 11.5373 8.04224 11.8546 8.11959 12.1578C8.44683 13.441 9.4171 14.4738 10.6747 14.9072C10.9682 15.0084 11.2773 15.0769 11.5976 15.1083C11.7299 15.1212 11.8642 15.1279 12 15.1279C12.6816 15.1279 13.3233 14.9605 13.8849 14.6654C14.4827 14.3513 14.9897 13.8925 15.3573 13.3366C15.7639 12.7219 16 11.9885 16 11.201C16 10.8784 15.9604 10.5648 15.8856 10.2648C15.8116 9.9675 15.703 9.68345 15.5644 9.417C14.9025 8.14497 13.5548 7.27404 12 7.27404C11.8574 7.27404 11.7166 7.28137 11.5779 7.29565C11.2391 7.33054 10.9129 7.40694 10.6047 7.51958ZM12 12.1827C12.5523 12.1827 13 11.7432 13 11.201C13 11.1203 12.9901 11.0419 12.9714 10.9669C12.9504 10.8828 12.9184 10.8029 12.877 10.7288C12.8386 10.6602 12.7921 10.5967 12.7388 10.5394C12.5559 10.3427 12.2927 10.2192 12 10.2192C11.9899 10.2192 11.9797 10.2194 11.9697 10.2197C11.8579 10.2229 11.7508 10.2442 11.6512 10.2806C11.2709 10.4196 11 10.7792 11 11.201L11 11.2034C11.0002 11.2851 11.0106 11.3644 11.0299 11.4402C11.0713 11.6024 11.1538 11.7487 11.2659 11.8676C11.3755 11.9838 11.5133 12.074 11.6687 12.1275C11.742 12.1528 11.8193 12.1699 11.8994 12.1778C11.9325 12.181 11.966 12.1827 12 12.1827Z" fill="#212121"/>
<path d="M22.683 8.62718C23.1028 10.3064 23.1057 12.0601 22.6915 13.7407C22.2773 15.4212 21.4581 16.9796 20.3027 18.2847C19.1474 19.5898 17.6898 20.6035 16.0524 21.2405C14.415 21.8775 12.6458 22.1192 10.8935 21.9452L11.4467 16.5735C11.6287 16.5913 11.8132 16.6005 12 16.6005C13.0744 16.6005 14.0768 16.2981 14.9238 15.7752L16.9058 17.8925C17.2796 18.2917 17.9122 18.3179 18.3188 17.9511C18.7254 17.5842 18.7521 16.9631 18.3784 16.5639L16.3961 14.4463C17.0892 13.5429 17.5 12.419 17.5 11.201C17.5 10.7574 17.4455 10.3263 17.3428 9.91378L22.683 8.62718Z" fill="#212121"/>
<path d="M3.27115 13.3534C3.63369 14.7704 4.34849 16.077 5.35157 17.1563C6.35464 18.2356 7.61467 19.0538 9.01885 19.5377L10.1777 16.2971C8.44851 15.7011 7.1144 14.2809 6.66444 12.5167L3.27115 13.3534Z" fill="#212121"/>
</svg>
