<svg width="48" height="48" viewBox="0 0 48 48" fill="none" xmlns="http://www.w3.org/2000/svg">
<path d="M5.48176 26.7068C6.18958 29.5408 7.58516 32.1541 9.54353 34.3126C11.5019 36.4711 13.962 38.1076 16.7035 39.0755L18.966 32.5941C15.5899 31.4023 12.9853 28.5619 12.1068 25.0333L5.48176 26.7068Z" fill="#212121"/>
<path d="M43.3811 17.2544C44.2007 20.6129 44.2063 24.1202 43.3976 27.4813C42.589 30.8425 40.9895 33.9592 38.7339 36.5694C36.4783 39.1796 33.6325 41.2069 30.4357 42.4809C27.2389 43.7549 23.7847 44.2383 20.3635 43.8904L21.4436 33.147C21.7988 33.1827 22.1592 33.201 22.5238 33.201C24.6214 33.201 26.5786 32.5961 28.2322 31.5504L32.1019 35.785C32.8315 36.5835 34.0666 36.6359 34.8605 35.9021C35.6544 35.1684 35.7066 33.9263 34.977 33.1279L31.1067 28.8926C32.4598 27.0858 33.2619 24.8381 33.2619 22.4019C33.2619 21.5148 33.1555 20.6526 32.9549 19.8276L43.3811 17.2544Z" fill="#212121"/>
<path fill-rule="evenodd" clip-rule="evenodd" d="M19.7996 15.0392C16.8298 16.1509 14.7143 19.028 14.7143 22.4019L14.7143 22.4214C14.7159 23.0746 14.7968 23.7091 14.9478 24.3157C15.5867 26.8819 17.481 28.9476 19.9363 29.8144C20.5093 30.0167 21.1129 30.1537 21.7382 30.2165C21.9966 30.2425 22.2586 30.2558 22.5238 30.2558C23.8545 30.2558 25.1074 29.9211 26.2039 29.3308C27.371 28.7026 28.3608 27.7849 29.0786 26.6732C29.8723 25.4437 30.3333 23.977 30.3333 22.4019C30.3333 21.7567 30.256 21.1297 30.1101 20.5297C29.9654 19.935 29.7535 19.3669 29.4828 18.834C28.1905 16.2899 25.5594 14.5481 22.5238 14.5481C22.2455 14.5481 21.9705 14.5627 21.6997 14.5913C21.0382 14.6611 20.4014 14.8139 19.7996 15.0392ZM22.5238 24.3654C23.6021 24.3654 24.4762 23.4863 24.4762 22.4019C24.4762 22.2406 24.4569 22.0839 24.4204 21.9339C24.3794 21.7655 24.3169 21.6057 24.236 21.4576C24.161 21.3205 24.0703 21.1934 23.9663 21.0787C23.6092 20.6853 23.0952 20.4385 22.5238 20.4385C22.504 20.4385 22.4843 20.4388 22.4646 20.4394C22.2464 20.4459 22.0373 20.4884 21.8428 20.5612C21.1003 20.8392 20.5714 21.5584 20.5714 22.4019L20.5714 22.4068C20.5718 22.5701 20.592 22.7287 20.6298 22.8804C20.7106 23.2049 20.8717 23.4973 21.0906 23.7352C21.3045 23.9677 21.5736 24.148 21.8769 24.2551C22.0202 24.3056 22.1711 24.3399 22.3274 24.3556C22.392 24.3621 22.4575 24.3654 22.5238 24.3654Z" fill="#212121"/>
<path d="M15.7151 4C11.9746 5.39975 8.75046 7.91873 6.47705 11.2176C4.20365 14.5165 2.99017 18.4369 3.00006 22.4506L11.7857 22.4287L11.7857 22.4019C11.7857 17.7628 14.6945 13.8068 18.778 12.2781L15.7151 4Z" fill="#212121"/>
<path d="M36.8403 15.1551C35.3752 12.1916 33.0261 9.76245 30.1214 8.20694C27.2167 6.65142 23.9014 6.04727 20.6386 6.47889L21.3176 11.6703C21.7136 11.6258 22.116 11.6029 22.5238 11.6029C26.7083 11.6029 30.3338 14.01 32.1058 17.5224L36.8403 15.1551Z" fill="#212121"/>
</svg>
