<svg width="20" height="20" viewBox="0 0 20 20" fill="none" xmlns="http://www.w3.org/2000/svg">
<path d="M10.1608 17.9984C10.5999 17.9895 10.9114 17.5894 10.859 17.1532C10.8067 16.7171 10.4099 16.4113 9.97067 16.4092C8.79643 16.4039 7.64062 16.0758 6.63281 15.4536C5.39837 14.6914 4.45902 13.5329 3.96836 12.1676C3.4777 10.8023 3.46477 9.31096 3.93166 7.93735C4.39855 6.56374 5.31766 5.38918 6.5387 4.60569C7.75973 3.8222 9.21046 3.47615 10.6537 3.62412C11.672 3.72852 12.644 4.07449 13.4922 4.62567L12.5344 5.68992C11.9685 5.35717 11.338 5.13638 10.6769 5.04605C9.6347 4.90363 8.57857 5.09401 7.65672 5.5831C7.41242 5.71271 7.35117 6.0261 7.50456 6.25622C7.65795 6.48635 7.96779 6.54537 8.21528 6.42193C8.931 6.06492 9.74129 5.92902 10.5413 6.03834C11.5076 6.17038 12.3924 6.65102 13.029 7.38983C13.6657 8.12863 14.0103 9.07465 13.9982 10.0498C13.986 11.025 13.6179 11.9622 12.963 12.6849C12.3081 13.4076 11.4117 13.866 10.4424 13.9739C9.47314 14.0818 8.49784 13.8318 7.70006 13.2708C6.90228 12.7098 6.33703 11.8766 6.11069 10.928C5.92329 10.1425 5.97892 9.3228 6.26388 8.57546C6.36242 8.31704 6.27324 8.0145 6.02916 7.88446C5.78508 7.75442 5.47922 7.84616 5.37424 8.10202C4.97809 9.06746 4.8924 10.1372 5.13652 11.1604C5.41955 12.3466 6.12638 13.3885 7.12398 14.09C8.12158 14.7915 9.34117 15.1042 10.5532 14.9693C10.9279 14.9276 11.2938 14.844 11.6448 14.7217L13.9598 18.1942C14.3426 18.7684 15.1186 18.923 15.693 18.5396C16.2675 18.1562 16.4229 17.38 16.0401 16.8058L13.7258 13.3344C14.5318 12.4338 14.9845 11.2715 14.9996 10.0623C15.0133 8.9675 14.6672 7.9021 14.0203 7.0272L14.9781 5.96296C15.7309 6.89125 16.2124 8.01587 16.3606 9.21164C16.5063 10.3871 16.3229 11.5745 15.8385 12.6441C15.6573 13.0443 15.77 13.5324 16.1446 13.7617C16.5192 13.9911 17.0128 13.8747 17.2039 13.4791C17.8708 12.0982 18.1292 10.549 17.9392 9.01598C17.7165 7.21888 16.8907 5.55052 15.5967 4.28366C14.3028 3.01681 12.6173 2.22642 10.8159 2.04173C9.01451 1.85704 7.20374 2.28897 5.67966 3.26691C4.15558 4.24484 3.00837 5.71092 2.4256 7.42543C1.84283 9.13995 1.85898 11.0015 2.47141 12.7056C3.08384 14.4097 4.25631 15.8557 5.79713 16.807C7.11149 17.6186 8.62753 18.0292 10.1608 17.9984Z" fill="#424242"/>
<path d="M10 7.5C8.61929 7.5 7.5 8.61929 7.5 10C7.5 11.3807 8.61929 12.5 10 12.5C11.3807 12.5 12.5 11.3807 12.5 10C12.5 8.61929 11.3807 7.5 10 7.5Z" fill="#424242"/>
</svg>
