<svg width="32" height="32" viewBox="0 0 32 32" fill="none" xmlns="http://www.w3.org/2000/svg">
<path d="M17.5501 28.9073C17.6159 29.4556 17.2246 29.9573 16.673 29.9839C13.8571 30.1194 11.057 29.4016 8.64499 27.9124C5.94855 26.2475 3.89672 23.7171 2.82496 20.7348C1.75321 17.7526 1.72494 14.4949 2.74479 11.4945C3.76464 8.49412 5.77226 5.92848 8.4394 4.21709C11.1065 2.5057 14.2754 1.74982 17.4279 2.07303C20.5803 2.39624 23.5299 3.77942 25.7943 5.99641C28.0587 8.21341 29.5039 11.1331 29.8937 14.278C30.2424 17.0911 29.7281 19.9357 28.4314 22.4389C28.1774 22.9294 27.5583 23.076 27.0873 22.7877L26.5914 22.4841C26.1204 22.1957 25.9766 21.5817 26.2227 21.0873C27.2187 19.0859 27.6086 16.8286 27.3319 14.5955C27.0462 12.2905 26.0653 10.1338 24.5292 8.40808L23.5796 9.47702C25.1691 11.324 26.0296 13.6879 25.9992 16.1247C25.9688 18.5636 25.0481 20.9073 23.4103 22.7147C23.3447 22.7871 23.2782 22.8584 23.2108 22.9286L26.3732 27.7287C27.0687 28.7844 26.7939 30.1654 25.7594 30.8133C24.7248 31.4612 23.3223 31.1306 22.6268 30.0749L19.5204 25.3599C18.7486 25.6502 17.9383 25.846 17.1065 25.9386C14.6823 26.2085 12.2432 25.5831 10.2479 24.1801C8.25274 22.7771 6.83908 20.6933 6.27302 18.3208C5.78466 16.2739 5.95624 14.1339 6.74903 12.2026C6.95877 11.6917 7.57346 11.5106 8.06089 11.7703C8.54831 12.03 8.73034 12.6363 8.53352 13.1523C7.96377 14.6461 7.8525 16.2846 8.22708 17.8546C8.67942 19.7505 9.80908 21.4157 11.4035 22.5368C12.9979 23.6579 14.947 24.1577 16.8842 23.9421C18.8213 23.7264 20.6129 22.8102 21.9216 21.3658C23.2304 19.9215 23.9662 18.0486 23.9905 16.0996C24.0148 14.1507 23.3259 12.26 22.0536 10.7835C20.7812 9.30697 19.013 8.34638 17.0819 8.0825C15.4827 7.86398 13.863 8.1357 12.4325 8.84945C11.9383 9.09602 11.3171 8.97444 11.0107 8.51489C10.7044 8.05534 10.8243 7.42582 11.3121 7.1669C13.1561 6.1882 15.2689 5.80719 17.3539 6.09209C18.9394 6.30874 20.4371 6.90068 21.7294 7.80402L22.6771 6.73715C21.0629 5.57358 19.1638 4.84597 17.1646 4.641C14.5934 4.37739 12.0088 4.99389 9.83349 6.38972C7.65813 7.78555 6.0207 9.87812 5.1889 12.3253C4.3571 14.7725 4.38015 17.4294 5.25428 19.8618C6.12842 22.2942 7.80192 24.358 10.0012 25.7159C11.9158 26.898 14.1303 27.4842 16.3647 27.4128C16.9167 27.3951 17.4149 27.7816 17.4807 28.33L17.5501 28.9073Z" fill="#424242"/>
<path d="M16 22C19.3137 22 22 19.3137 22 16C22 12.6863 19.3137 10 16 10C12.6863 10 10 12.6863 10 16C10 19.3137 12.6863 22 16 22Z" fill="#424242"/>
<path d="M17.5501 28.9073C17.6159 29.4556 17.2246 29.9573 16.673 29.9839C13.8571 30.1194 11.057 29.4016 8.64499 27.9124C5.94855 26.2475 3.89672 23.7171 2.82496 20.7348C1.75321 17.7526 1.72494 14.4949 2.74479 11.4945C3.76464 8.49412 5.77226 5.92848 8.4394 4.21709C11.1065 2.5057 14.2754 1.74982 17.4279 2.07303C20.5803 2.39624 23.5299 3.77942 25.7943 5.99641C28.0587 8.21341 29.5039 11.1331 29.8937 14.278C30.2424 17.0911 29.7281 19.9357 28.4314 22.4389C28.1774 22.9294 27.5583 23.076 27.0873 22.7877L26.5914 22.4841C26.1204 22.1957 25.9766 21.5817 26.2227 21.0873C27.2187 19.0859 27.6086 16.8286 27.3319 14.5955C27.0462 12.2905 26.0653 10.1338 24.5292 8.40808L23.5796 9.47702C25.1691 11.324 26.0296 13.6879 25.9992 16.1247C25.9688 18.5636 25.0481 20.9073 23.4103 22.7147C23.3447 22.7871 23.2782 22.8584 23.2108 22.9286L26.3732 27.7287C27.0687 28.7844 26.7939 30.1654 25.7594 30.8133C24.7248 31.4612 23.3223 31.1306 22.6268 30.0749L19.5204 25.3599C18.7486 25.6502 17.9383 25.846 17.1065 25.9386C14.6823 26.2085 12.2432 25.5831 10.2479 24.1801C8.25274 22.7771 6.83908 20.6933 6.27302 18.3208C5.78466 16.2739 5.95624 14.1339 6.74903 12.2026C6.95877 11.6917 7.57346 11.5106 8.06089 11.7703C8.54831 12.03 8.73034 12.6363 8.53352 13.1523C7.96377 14.6461 7.8525 16.2846 8.22708 17.8546C8.67942 19.7505 9.80908 21.4157 11.4035 22.5368C12.9979 23.6579 14.947 24.1577 16.8842 23.9421C18.8213 23.7264 20.6129 22.8102 21.9216 21.3658C23.2304 19.9215 23.9662 18.0486 23.9905 16.0996C24.0148 14.1507 23.3259 12.26 22.0536 10.7835C20.7812 9.30697 19.013 8.34638 17.0819 8.0825C15.4827 7.86398 13.863 8.1357 12.4325 8.84945C11.9383 9.09602 11.3171 8.97444 11.0107 8.51489C10.7044 8.05534 10.8243 7.42582 11.3121 7.1669C13.1561 6.1882 15.2689 5.80719 17.3539 6.09209C18.9394 6.30874 20.4371 6.90068 21.7294 7.80402L22.6771 6.73715C21.0629 5.57358 19.1638 4.84597 17.1646 4.641C14.5934 4.37739 12.0088 4.99389 9.83349 6.38972C7.65813 7.78555 6.0207 9.87812 5.1889 12.3253C4.3571 14.7725 4.38015 17.4294 5.25428 19.8618C6.12842 22.2942 7.80192 24.358 10.0012 25.7159C11.9158 26.898 14.1303 27.4842 16.3647 27.4128C16.9167 27.3951 17.4149 27.7816 17.4807 28.33L17.5501 28.9073Z" stroke="#424242"/>
<path d="M16 22C19.3137 22 22 19.3137 22 16C22 12.6863 19.3137 10 16 10C12.6863 10 10 12.6863 10 16C10 19.3137 12.6863 22 16 22Z" stroke="#424242"/>
</svg>
