<svg width="20" height="20" viewBox="0 0 20 20" fill="none" xmlns="http://www.w3.org/2000/svg">
<path d="M1.70389 12.2813L5.12827 10.7413C5.58038 11.9001 6.51684 12.8165 7.68883 13.2416L6.63731 16.6432C5.55255 16.3079 4.55159 15.7455 3.70098 14.9934C2.85037 14.2413 2.16959 13.3168 1.70389 12.2813Z" fill="#212121"/>
<path d="M2.12516 4.71032C3.1111 3.1525 4.5858 1.9656 6.31838 1.33545L7.68516 5.09338C6.02151 5.6986 4.83337 7.29396 4.83337 9.16683C4.83337 9.30321 4.83967 9.43811 4.852 9.57127L0.869745 9.9445C0.69771 8.10894 1.13923 6.26814 2.12516 4.71032Z" fill="#212121"/>
<path fill-rule="evenodd" clip-rule="evenodd" d="M9.16671 5.8335C9.10235 5.8335 9.03841 5.83532 8.97495 5.83892C8.64373 5.8577 8.32545 5.92485 8.02705 6.03341C6.74733 6.49896 5.83337 7.72616 5.83337 9.16683C5.83337 9.27174 5.83822 9.37552 5.8477 9.47795C5.87521 9.77511 5.94172 10.061 6.04206 10.3303C6.37688 11.2291 7.08842 11.9445 7.98469 12.2845C8.34161 12.4199 8.72782 12.4958 9.13121 12.5L9.16671 12.5002C9.85854 12.5002 10.5011 12.2894 11.0338 11.9286C11.3115 11.7404 11.5594 11.5115 11.7687 11.2504C12.2263 10.6797 12.5 9.95524 12.5 9.16683C12.5 9.03017 12.4918 8.89544 12.4758 8.76309C12.4201 8.30184 12.2703 7.86959 12.046 7.48616C11.4676 6.49755 10.3947 5.8335 9.16671 5.8335ZM9.16667 10.7618C10.0477 10.7618 10.7619 10.0476 10.7619 9.16654C10.7619 8.28551 10.0477 7.57129 9.16667 7.57129C8.28563 7.57129 7.57141 8.28551 7.57141 9.16654C7.57141 10.0476 8.28563 10.7618 9.16667 10.7618Z" fill="#212121"/>
<path d="M15.2685 5.88452L12.9432 7.04021C12.1998 5.72292 10.7871 4.8335 9.16671 4.8335C9.09978 4.8335 9.03321 4.83501 8.96702 4.83802L8.94453 2.00028C10.2567 1.98988 11.5454 2.34853 12.6636 3.03533C13.7818 3.72213 14.6844 4.70941 15.2685 5.88452Z" fill="#212121"/>
<path d="M9.06914 18.3329L9.12057 13.4999L9.16671 13.5002C10.1204 13.5002 11.0021 13.1921 11.7177 12.6701L13.6148 14.7269C13.802 14.9299 14.1183 14.9427 14.3213 14.7554C14.5243 14.5682 14.5371 14.2519 14.3499 14.0489L12.4526 11.9919C13.1054 11.2333 13.5 10.2462 13.5 9.16683C13.5 8.98917 13.4893 8.81401 13.4686 8.64196L18.2659 8.05658C18.424 9.35268 18.3034 10.6676 17.9122 11.9133C17.521 13.1591 16.8681 14.3068 15.9973 15.2798C15.1266 16.2528 14.058 17.0285 12.8632 17.555C11.6683 18.0816 10.3748 18.3468 9.06914 18.3329Z" fill="#212121"/>
</svg>
