<svg width="16" height="16" viewBox="0 0 16 16" fill="none" xmlns="http://www.w3.org/2000/svg">
<path d="M8.7739 14.4442C8.80745 14.7236 8.60808 14.9792 8.327 14.9924C6.92225 15.0581 5.52577 14.6991 4.32249 13.9562C2.97428 13.1237 1.94836 11.8585 1.41248 10.3674C0.876604 8.87628 0.862472 7.24746 1.3724 5.74726C1.88232 4.24706 2.88613 2.96424 4.2197 2.10854C5.55327 1.25285 7.1377 0.874909 8.71393 1.03651C10.2902 1.19812 11.7649 1.88971 12.8971 2.9982C14.0293 4.1067 14.7519 5.56652 14.9468 7.13898C15.1208 8.5424 14.8652 9.96144 14.2201 11.211C14.091 11.4611 13.7755 11.5358 13.5355 11.3889C13.2956 11.2419 13.2223 10.9291 13.3482 10.6775C13.8747 9.62603 14.0812 8.43877 13.9356 7.26432C13.7817 6.02252 13.2426 4.86293 12.398 3.94658L11.3607 5.06031L11.3824 5.08529C12.0933 5.91029 12.4782 6.96668 12.4647 8.05565C12.4518 9.0874 12.0821 10.081 11.4213 10.8689L13.3039 13.379C13.6299 13.8137 13.5344 14.4442 13.0904 14.7871C12.6464 15.1301 12.0222 15.0557 11.6962 14.621L9.79622 12.0878C9.38561 12.2682 8.94695 12.3872 8.49404 12.4376C7.41167 12.5581 6.32257 12.2788 5.43171 11.6524C4.54085 11.026 3.90966 10.0955 3.65691 9.03622C3.43848 8.12072 3.51573 7.1635 3.87127 6.30004C3.96416 6.07447 4.23391 5.99355 4.44921 6.10825C4.6645 6.22295 4.74321 6.48982 4.65586 6.71759C4.39849 7.38872 4.34781 8.12542 4.5162 8.8312C4.71894 9.68094 5.22525 10.4273 5.93985 10.9298C6.65446 11.4323 7.52807 11.6563 8.3963 11.5596C9.26452 11.4629 10.0675 11.0523 10.6541 10.4049C11.2407 9.75758 11.5704 8.91816 11.5813 8.04464C11.5922 7.17112 11.2835 6.32374 10.7132 5.66197C10.1429 5.0002 9.35044 4.56966 8.4849 4.45139C7.76598 4.35316 7.03783 4.47597 6.39523 4.79804C6.17715 4.90735 5.90384 4.85524 5.76854 4.65225C5.63324 4.44927 5.68726 4.17287 5.90262 4.05828C6.72697 3.61962 7.67197 3.4487 8.6045 3.57612C9.33833 3.67639 10.03 3.95671 10.6211 4.3853L11.6602 3.26968C10.7809 2.58928 9.72515 2.16449 8.61001 2.05016C7.26322 1.91208 5.90943 2.23501 4.76998 2.96614C3.63054 3.69728 2.77285 4.79336 2.33715 6.07518C1.90145 7.357 1.91353 8.74872 2.3714 10.0228C2.82927 11.2969 3.70585 12.3779 4.85781 13.0891C5.86478 13.7109 7.0301 14.0179 8.20532 13.9775C8.48653 13.9678 8.74035 14.1648 8.7739 14.4442Z" fill="#424242"/>
<path d="M8 10.4C9.32548 10.4 10.4 9.32548 10.4 8C10.4 6.67452 9.32548 5.6 8 5.6C6.67452 5.6 5.6 6.67452 5.6 8C5.6 9.32548 6.67452 10.4 8 10.4Z" fill="#424242"/>
</svg>
