<svg width="48" height="48" viewBox="0 0 48 48" fill="none" xmlns="http://www.w3.org/2000/svg">
<path d="M15.164 3.20459C11.0058 4.71694 7.46655 7.5655 5.1003 11.3043C2.73404 15.0431 1.67441 19.461 2.08729 23.8663L11.5451 22.9799C11.5153 22.6573 11.5 22.3304 11.5 22C11.5 17.4619 14.379 13.5962 18.4101 12.1297L15.164 3.20459Z" fill="#212121"/>
<path d="M5.58376 29.3829L12.4215 26.3078C13.6495 29.034 16.0072 31.1417 18.8982 32.0343L16.6839 39.1971C14.2432 38.4426 11.9911 37.1772 10.0772 35.4851C8.16333 33.7929 6.63157 31.7128 5.58376 29.3829Z" fill="#212121"/>
<path d="M19.6367 29.6452C17.4341 28.9651 15.6377 27.3592 14.7021 25.2821C14.3481 24.4962 14.1173 23.6428 14.0344 22.7466C14.0116 22.5008 14 22.2518 14 22C14 18.5424 16.1935 15.5971 19.2649 14.4798C20.0994 14.1762 20.9988 14.0075 21.9366 14.0002L22 14C25.1388 14 27.8554 15.8076 29.1655 18.4386C29.5627 19.2363 29.8307 20.1095 29.9419 21.0311C29.9803 21.3487 30 21.672 30 22C30 23.7829 29.4168 25.4296 28.4307 26.7597C27.8311 27.5684 27.0827 28.26 26.2258 28.7941C24.9996 29.5584 23.5514 30 22 30C21.9716 30 21.9432 29.9999 21.9149 29.9996C21.1226 29.9913 20.3579 29.8679 19.6367 29.6452ZM22 25.8286C24.1145 25.8286 25.8286 24.1145 25.8286 22C25.8286 19.8855 24.1145 18.1714 22 18.1714C19.8855 18.1714 18.1714 19.8855 18.1714 22C18.1714 24.1145 19.8855 25.8286 22 25.8286Z" fill="#212121"/>
<path d="M32.455 35.5479L27.9439 30.6568C26.2538 31.8195 24.2064 32.5 22 32.5L21.9504 32.4999L21.8883 32.4994L21.7659 43.9988C24.8995 44.0321 28.004 43.3957 30.8716 42.132C33.7392 40.8683 36.3038 39.0066 38.3936 36.6714C40.4834 34.3363 42.0503 31.5817 42.9892 28.5919C43.9282 25.6022 44.2176 22.4463 43.8381 19.3357L32.4238 20.7283C32.4741 21.1452 32.5 21.5696 32.5 22C32.5 24.5108 31.6187 26.8157 30.1487 28.6224L34.6603 33.514C35.2219 34.1229 35.1836 35.0719 34.5746 35.6336C33.9657 36.1952 33.0167 36.1569 32.455 35.5479Z" fill="#212121"/>
<path d="M36.3279 14.8788L31.4048 17.3257C29.6852 13.8725 26.1196 11.5 22 11.5C21.9722 11.5 21.9445 11.5001 21.9168 11.5003L21.8732 6.00054C24.8725 5.97677 27.8182 6.79656 30.374 8.36638C32.9298 9.9362 34.9929 12.1928 36.3279 14.8788Z" fill="#212121"/>
</svg>
