<svg width="48" height="48" viewBox="0 0 48 48" fill="none" xmlns="http://www.w3.org/2000/svg">
<path d="M5.1003 11.3043C7.46655 7.5655 11.0058 4.71694 15.164 3.20459L18.4101 12.1297C14.379 13.5962 11.5 17.4619 11.5 22C11.5 22.3304 11.5153 22.6573 11.5451 22.9799L2.08729 23.8663C1.67441 19.461 2.73404 15.0431 5.1003 11.3043Z" fill="#212121"/>
<path d="M31.4048 17.3257L36.3279 14.8788C34.9929 12.1928 32.9298 9.9362 30.374 8.36638C27.8182 6.79656 24.8725 5.97677 21.8732 6.00054L21.9168 11.5003C21.9445 11.5001 21.9722 11.5 22 11.5C26.1196 11.5 29.6852 13.8725 31.4048 17.3257Z" fill="#212121"/>
<path fill-rule="evenodd" clip-rule="evenodd" d="M14.7021 25.2821C15.6377 27.3592 17.4341 28.9651 19.6367 29.6452C20.3579 29.8679 21.1226 29.9913 21.9149 29.9996C21.9432 29.9999 21.9716 30 22 30C23.5514 30 24.9996 29.5584 26.2258 28.7941C27.0827 28.26 27.8311 27.5684 28.4307 26.7597C29.4168 25.4296 30 23.7829 30 22C30 21.672 29.9803 21.3487 29.9419 21.0311C29.8307 20.1095 29.5627 19.2363 29.1655 18.4386C27.8554 15.8076 25.1388 14 22 14L21.9366 14.0002C20.9988 14.0075 20.0994 14.1762 19.2649 14.4798C16.1935 15.5971 14 18.5424 14 22C14 22.2518 14.0116 22.5008 14.0344 22.7466C14.1173 23.6428 14.3481 24.4962 14.7021 25.2821ZM22 25.8286C24.1145 25.8286 25.8286 24.1145 25.8286 22C25.8286 19.8855 24.1145 18.1714 22 18.1714C19.8855 18.1714 18.1714 19.8855 18.1714 22C18.1714 24.1145 19.8855 25.8286 22 25.8286Z" fill="#212121"/>
<path d="M27.9439 30.6568L32.455 35.5479C33.0167 36.1569 33.9657 36.1952 34.5746 35.6336C35.1836 35.0719 35.2219 34.1229 34.6603 33.514L30.1487 28.6224C31.6187 26.8157 32.5 24.5108 32.5 22C32.5 21.5696 32.4741 21.1452 32.4238 20.7283L43.8381 19.3357C44.2176 22.4463 43.9282 25.6022 42.9892 28.5919C42.0503 31.5817 40.4834 34.3363 38.3936 36.6714C36.3038 39.0066 33.7392 40.8683 30.8716 42.132C28.004 43.3957 24.8995 44.0321 21.7659 43.9988L21.8883 32.4994L21.9504 32.4999L22 32.5C24.2064 32.5 26.2538 31.8195 27.9439 30.6568Z" fill="#212121"/>
<path d="M12.4215 26.3078L5.58376 29.3829C6.63157 31.7128 8.16333 33.7929 10.0772 35.4851C11.9911 37.1772 14.2432 38.4426 16.6839 39.1971L18.8982 32.0343C16.0072 31.1417 13.6495 29.034 12.4215 26.3078Z" fill="#212121"/>
</svg>
