<svg width="28" height="28" viewBox="0 0 28 28" fill="none" xmlns="http://www.w3.org/2000/svg">
<path d="M2.97513 6.59396C4.35545 4.41301 6.42003 2.75135 8.84563 1.86914L10.725 7.03632C8.35745 7.8976 6.66663 10.1679 6.66663 12.8332C6.66663 13.0272 6.67559 13.2192 6.69312 13.4086L1.21755 13.9218C0.976696 11.352 1.59482 8.77491 2.97513 6.59396Z" fill="#212121"/>
<path fill-rule="evenodd" clip-rule="evenodd" d="M8.16663 12.8332C8.16663 10.8162 9.44617 9.09814 11.2378 8.44637C11.7246 8.26926 12.2493 8.17089 12.7963 8.16665L12.8333 8.1665C14.6643 8.1665 16.2489 9.22097 17.0132 10.7558C17.2449 11.221 17.4012 11.7304 17.4661 12.268C17.4884 12.4533 17.5 12.6419 17.5 12.8332C17.5 15.4105 15.4106 17.4998 12.8333 17.4998L12.7837 17.4996C12.3215 17.4948 11.8754 17.4228 11.4548 17.2929C10.1699 16.8962 9.12202 15.9595 8.57623 14.7478C8.3697 14.2894 8.23506 13.7915 8.18668 13.2686C8.17341 13.1253 8.16663 12.98 8.16663 12.8332ZM15.0667 12.8335C15.0667 14.0669 14.0668 15.0668 12.8333 15.0668C11.5999 15.0668 10.6 14.0669 10.6 12.8335C10.6 11.6 11.5999 10.6001 12.8333 10.6001C14.0668 10.6001 15.0667 11.6 15.0667 12.8335Z" fill="#212121"/>
<path d="M11.0117 18.7264C9.3138 18.2021 7.92912 16.9643 7.20789 15.3633L3.25723 17.1401C3.86846 18.4992 4.76198 19.7127 5.87841 20.6998C6.99484 21.6868 8.30859 22.425 9.73234 22.8651L11.0117 18.7264Z" fill="#212121"/>
<path d="M18.9552 12.0863C18.9847 12.3311 19 12.5804 19 12.8332C19 14.2645 18.5123 15.5819 17.6941 16.6284L20.3104 19.465C20.6848 19.8709 20.6593 20.5036 20.2533 20.878C19.8473 21.2525 19.2147 21.2269 18.8402 20.8209L16.2243 17.9846C15.2514 18.6263 14.0859 18.9998 12.8333 18.9998C12.8114 18.9998 12.7895 18.9997 12.7677 18.9995L12.6968 25.6659C14.5247 25.6854 16.3357 25.3141 18.0084 24.5769C19.6812 23.8398 21.1772 22.7538 22.3963 21.3916C23.6153 20.0295 24.5293 18.4226 25.0771 16.6786C25.6248 14.9346 25.7936 13.0937 25.5722 11.2791L18.9552 12.0863Z" fill="#212121"/>
<path d="M18.3568 10.088C17.3468 8.0599 15.2528 6.6665 12.8333 6.6665L12.7845 6.66669L12.7594 3.50027C14.509 3.48641 16.2273 3.96462 17.7182 4.88035C19.2091 5.79608 20.4125 7.11245 21.1913 8.67926L18.3568 10.088Z" fill="#212121"/>
</svg>
