<svg width="32" height="32" viewBox="0 0 32 32" fill="none" xmlns="http://www.w3.org/2000/svg">
<path d="M29.5623 11.2781C30.1419 13.629 30.1459 16.0841 29.5739 18.4369C29.0019 20.7897 27.8707 22.9714 26.2752 24.7986C24.6798 26.6257 22.6669 28.0449 20.4057 28.9366C18.1446 29.8284 15.7013 30.1668 13.2815 29.9233L14.0454 22.4029C14.2967 22.4279 14.5516 22.4407 14.8095 22.4407C16.2932 22.4407 17.6775 22.0173 18.8471 21.2852L21.5843 24.2495C22.1003 24.8084 22.9739 24.8451 23.5355 24.3315C24.097 23.8179 24.1339 22.9484 23.6178 22.3895L20.8803 19.4248C21.8374 18.1601 22.4048 16.5866 22.4048 14.8814C22.4048 14.2603 22.3295 13.6568 22.1876 13.0793L29.5623 11.2781Z" fill="#212121"/>
<path fill-rule="evenodd" clip-rule="evenodd" d="M12.8826 9.72741C10.782 10.5057 9.28571 12.5196 9.28571 14.8814L9.28573 14.895C9.28685 15.3522 9.34405 15.7964 9.45086 16.221C9.90277 18.0173 11.2427 19.4633 12.9793 20.0701C13.3846 20.2117 13.8115 20.3076 14.2538 20.3516C14.4366 20.3697 14.622 20.379 14.8095 20.379C15.7507 20.379 16.637 20.1448 17.4125 19.7316C18.238 19.2918 18.9381 18.6495 19.4458 17.8712C20.0072 17.0106 20.3333 15.9839 20.3333 14.8814C20.3333 14.4297 20.2786 13.9908 20.1754 13.5708C20.0731 13.1545 19.9232 12.7568 19.7317 12.3838C18.8177 10.603 16.9567 9.38366 14.8095 9.38366C14.6126 9.38366 14.4182 9.39392 14.2266 9.41391C13.7587 9.46275 13.3083 9.56971 12.8826 9.72741ZM14.8095 16.2558C15.5722 16.2558 16.1905 15.6404 16.1905 14.8814C16.1905 14.7684 16.1768 14.6587 16.151 14.5537C16.122 14.4359 16.0778 14.324 16.0206 14.2203C15.9676 14.1243 15.9034 14.0354 15.8298 13.9551C15.5773 13.6797 15.2137 13.5069 14.8095 13.5069C14.7955 13.5069 14.7815 13.5071 14.7676 13.5076C14.6133 13.5121 14.4654 13.5419 14.3278 13.5929C13.8027 13.7874 13.4286 14.2909 13.4286 14.8814L13.4286 14.8848C13.4289 14.9991 13.4432 15.1101 13.4699 15.2163C13.527 15.4434 13.6409 15.6481 13.7958 15.8147C13.9471 15.9774 14.1374 16.1036 14.352 16.1785C14.4533 16.2139 14.56 16.2379 14.6706 16.2489C14.7163 16.2534 14.7626 16.2558 14.8095 16.2558Z" fill="#212121"/>
<path d="M2.75539 17.8948C3.25605 19.8786 4.24316 21.7078 5.62835 23.2188C7.01355 24.7298 8.75359 25.8753 10.6927 26.5528L12.293 22.0159C9.90508 21.1816 8.06274 19.1933 7.44136 16.7233L2.75539 17.8948Z" fill="#212121"/>
<path d="M9.99359 2C7.34786 2.97982 5.0674 4.74311 3.45938 7.05235C1.85136 9.36158 0.993045 12.1058 1.00004 14.9154L7.21431 14.9001L7.21429 14.8814C7.21429 11.6339 9.27173 8.86478 12.16 7.79469L9.99359 2Z" fill="#212121"/>
<path d="M24.9358 9.80854C23.8995 7.73413 22.238 6.03371 20.1834 4.94485C18.1289 3.856 15.7839 3.43309 13.4761 3.73522L13.9564 7.36919C14.2364 7.33803 14.5211 7.32203 14.8095 7.32203C17.7693 7.32203 20.3336 9.00699 21.587 11.4657L24.9358 9.80854Z" fill="#212121"/>
</svg>
