<svg width="16" height="16" viewBox="0 0 16 16" fill="none" xmlns="http://www.w3.org/2000/svg">
<path d="M13.3207 4.607C12.7783 3.51583 11.9402 2.59907 10.9019 1.96133C9.86359 1.32359 8.66693 0.990546 7.44845 1.0002L7.4696 3.66899C8.92899 3.72233 10.1707 4.62856 10.711 5.90405L13.3207 4.607Z" fill="#212121"/>
<path d="M7.47754 4.67034C8.5407 4.72701 9.43857 5.4064 9.81301 6.35037C9.89567 6.55875 9.95282 6.78003 9.98062 7.01035C9.99339 7.11617 9.99996 7.2239 9.99996 7.33317C9.99996 7.92746 9.80556 8.47634 9.47688 8.91969C9.27704 9.18925 9.02756 9.41981 8.74195 9.59784C8.33319 9.85263 7.85043 9.99984 7.33329 9.99984L7.30493 9.99969C7.1135 9.99769 6.92691 9.97553 6.74718 9.93522C5.99515 9.76655 5.36319 9.28022 4.99958 8.62449C4.82544 8.31046 4.71285 7.95757 4.67809 7.58212C4.6705 7.50016 4.66663 7.41712 4.66663 7.33317C4.66663 6.18065 5.39777 5.1989 6.42153 4.82645C6.70599 4.72295 7.01305 4.6665 7.33329 4.6665C7.38169 4.6665 7.42978 4.66779 7.47754 4.67034ZM7.33333 8.60954C8.03816 8.60954 8.60954 8.03816 8.60954 7.33333C8.60954 6.62851 8.03816 6.05713 7.33333 6.05713C6.62851 6.05713 6.05713 6.62851 6.05713 7.33333C6.05713 8.03816 6.62851 8.60954 7.33333 8.60954Z" fill="#212121"/>
<path d="M5.05463 1.06818L6.07964 3.88642C4.67196 4.39854 3.66663 5.74845 3.66663 7.33317C3.66663 7.44859 3.67196 7.56276 3.68239 7.67546L0.695723 7.95543C0.558095 6.48698 0.911307 5.01434 1.70006 3.76808C2.48881 2.52182 3.66857 1.5723 5.05463 1.06818Z" fill="#212121"/>
<path d="M1.57187 10.166L4.08506 9.03578C4.56612 9.95166 5.42318 10.6391 6.4511 10.893L5.58027 13.7101C4.6989 13.4376 3.88563 12.9807 3.19451 12.3696C2.50338 11.7585 1.95025 11.0074 1.57187 10.166Z" fill="#212121"/>
<path d="M7.25527 14.6663L7.29429 10.9996L7.33329 10.9998C8.11242 10.9998 8.83479 10.7568 9.42874 10.3425L10.8184 11.8491C11.0056 12.0521 11.3219 12.0649 11.5249 11.8777C11.7279 11.6905 11.7407 11.3741 11.5535 11.1712L10.1637 9.66431C10.6861 9.03067 11 8.21857 11 7.33317C11 7.18291 10.9909 7.03476 10.9734 6.88923L14.6127 6.44522C14.7392 7.4821 14.6427 8.53405 14.3297 9.53063C14.0167 10.5272 13.4944 11.4454 12.7978 12.2238C12.1012 13.0022 11.2464 13.6228 10.2905 14.044C9.33462 14.4652 8.29979 14.6774 7.25527 14.6663Z" fill="#212121"/>
</svg>
