<svg width="32" height="32" viewBox="0 0 32 32" fill="none" xmlns="http://www.w3.org/2000/svg">
<path d="M16.679 29.9835C17.2273 29.9569 17.6162 29.4583 17.5508 28.9132C17.4853 28.3682 16.9902 27.9837 16.4416 28.0039C14.0714 28.0912 11.7201 27.4746 9.68937 26.2208C7.37582 24.7924 5.61534 22.6213 4.69577 20.0625C3.7762 17.5037 3.75195 14.7086 4.62698 12.1343C5.50201 9.55992 7.22456 7.3586 9.51298 5.89022C11.8014 4.42184 14.5203 3.77329 17.2251 4.05061C19.4322 4.27689 21.5234 5.10874 23.2739 6.44072L21.933 7.9502C20.5955 6.96446 19.0234 6.32022 17.3539 6.0921C15.197 5.79737 13.0103 6.21529 11.1222 7.27034C10.7443 7.48149 10.6483 7.97108 10.8884 8.33126C11.1284 8.69144 11.6136 8.78523 11.9945 8.57961C13.5618 7.73355 15.3637 7.40225 17.1416 7.6452C19.1795 7.92365 21.0453 8.9373 22.3879 10.4954C23.7305 12.0534 24.4574 14.0485 24.4318 16.1051C24.4062 18.1617 23.6298 20.138 22.2487 21.6622C20.8677 23.1863 18.9772 24.1531 16.933 24.3807C14.8889 24.6082 12.8321 24.0809 11.1496 22.8978C9.46716 21.7148 8.27511 19.9576 7.79778 17.957C7.38133 16.2115 7.53398 14.3857 8.22196 12.7429C8.38917 12.3437 8.24817 11.8701 7.86614 11.6665C7.48411 11.463 7.00632 11.6067 6.83332 12.0035C5.96888 13.9861 5.76783 16.2033 6.27304 18.3208C6.8391 20.6933 8.25275 22.7771 10.248 24.1801C12.2432 25.5831 14.6823 26.2085 17.1065 25.9386C18.0721 25.8311 19.0088 25.5845 19.89 25.2124L22.8521 29.5684C23.4842 30.498 24.7344 30.7732 25.6445 30.1831C26.5546 29.5931 26.78 28.3612 26.1479 27.4316L23.1373 23.0042C23.23 22.9097 23.3211 22.8132 23.4103 22.7147C25.0481 20.9073 25.9688 18.5636 25.9992 16.1246C26.0296 13.6857 25.1676 11.3198 23.5754 9.4721C23.522 9.41019 23.468 9.34901 23.4133 9.28856L24.7561 7.77687C26.4964 9.62987 27.6071 11.9911 27.9208 14.5225C28.2144 16.8909 27.795 19.2853 26.728 21.4036C26.4811 21.8938 26.6242 22.5041 27.0924 22.7908C27.5606 23.0774 28.1759 22.9316 28.4286 22.4443C29.7273 19.9397 30.2426 17.0931 29.8937 14.278C29.5039 11.133 28.0586 8.2134 25.7943 5.99641C23.5299 3.77941 20.5803 2.39623 17.4279 2.07303C14.2754 1.74982 11.1065 2.5057 8.4394 4.21709C5.77226 5.92848 3.76464 8.49411 2.74479 11.4945C1.72494 14.4949 1.75321 17.7526 2.82496 20.7348C3.89672 23.7171 5.94855 26.2475 8.64498 27.9123C11.0587 29.4026 13.861 30.1204 16.679 29.9835Z" fill="#424242"/>
<path d="M16 9.5C12.4101 9.5 9.5 12.4101 9.5 16C9.5 19.5898 12.4101 22.5 16 22.5C19.5899 22.5 22.5 19.5898 22.5 16C22.5 12.4101 19.5899 9.5 16 9.5Z" fill="#424242"/>
</svg>
