<svg width="16" height="16" viewBox="0 0 16 16" fill="none" xmlns="http://www.w3.org/2000/svg">
<path d="M5.34173 1C4.06448 1.48991 2.96357 2.37156 2.18729 3.52617C1.411 4.68079 0.996642 6.05291 1.00002 7.45771L4.00001 7.45004L4 7.44068C4 5.81697 4.99325 4.43239 6.38761 3.89734L5.34173 1ZM4.10962 8.36167L1.84743 8.9474C2.08913 9.93929 2.56566 10.8539 3.23438 11.6094C3.90309 12.3649 4.74311 12.9377 5.67923 13.2764L6.45179 11.0079C5.299 10.5908 4.4096 9.59667 4.10962 8.36167ZM6.92899 14.9617L7.2978 11.2015C7.41911 11.2139 7.54216 11.2203 7.66667 11.2203C8.38292 11.2203 9.05121 11.0086 9.61586 10.6426L10.9372 12.1248C11.1864 12.4042 11.6081 12.4226 11.8792 12.1657C12.1503 11.9089 12.1681 11.4742 11.919 11.1948L10.5974 9.7124C11.0594 9.08003 11.3333 8.29332 11.3333 7.44068C11.3333 7.13016 11.297 6.8284 11.2285 6.53964L14.7887 5.63903C15.0685 6.8145 15.0705 8.04206 14.7943 9.21846C14.5182 10.3949 13.972 11.4857 13.2018 12.3993C12.4316 13.3129 11.4599 14.0224 10.3683 14.4683C9.2767 14.9142 8.0972 15.0834 6.92899 14.9617ZM10.9386 5.73285L12.5552 4.90427C12.0549 3.86706 11.2528 3.01686 10.261 2.47243C9.26912 1.928 8.13705 1.71655 7.02294 1.86761L7.2548 3.68459C7.39 3.66902 7.52743 3.66102 7.66667 3.66102C9.09552 3.66102 10.3335 4.5035 10.9386 5.73285Z" fill="#212121"/>
<path d="M6.73644 4.86371C5.72236 5.25283 5 6.2598 5 7.44068L5.00001 7.44749C5.00055 7.67612 5.02816 7.8982 5.07973 8.11049C5.29789 9.00867 5.94473 9.73167 6.78312 10.035C6.97879 10.1058 7.18488 10.1538 7.3984 10.1758C7.48663 10.1849 7.57612 10.1895 7.66667 10.1895C8.12104 10.1895 8.54887 10.0724 8.92329 9.86579C9.32179 9.64592 9.65978 9.32473 9.90487 8.93561C10.1759 8.50531 10.3333 7.99194 10.3333 7.44068C10.3333 7.21485 10.3069 6.99538 10.2571 6.78538C10.2077 6.57725 10.1353 6.37841 10.0429 6.1919C9.60165 5.30148 8.70322 4.69183 7.66667 4.69183C7.57162 4.69183 7.47773 4.69696 7.38526 4.70696C7.15939 4.73137 6.94193 4.78486 6.73644 4.86371ZM7.66667 8.12789C7.64403 8.12789 7.62166 8.12672 7.5996 8.12445C7.54622 8.11896 7.4947 8.10697 7.44578 8.08927C7.34219 8.05179 7.25031 7.98868 7.17727 7.90733C7.10252 7.82407 7.04752 7.7217 7.01993 7.60813C7.00704 7.55506 7.00014 7.49954 7 7.44238L7 7.44068C7 7.14546 7.18059 6.89372 7.43411 6.79643C7.50053 6.77095 7.57195 6.75606 7.64644 6.75378C7.65316 6.75357 7.6599 6.75347 7.66667 6.75347C7.86177 6.75347 8.03729 6.83986 8.15921 6.97755C8.19474 7.01768 8.22572 7.06217 8.2513 7.11015C8.27895 7.16201 8.3003 7.21794 8.31427 7.27685C8.32673 7.32935 8.33333 7.38422 8.33333 7.44068C8.33333 7.82021 8.03486 8.12789 7.66667 8.12789Z" fill="#212121"/>
</svg>
