<svg width="28" height="28" viewBox="0 0 28 28" fill="none" xmlns="http://www.w3.org/2000/svg">
<path d="M14.4341 25.9921C14.986 25.9722 15.3774 25.4699 15.3116 24.9215L15.3091 24.9007C15.2432 24.3524 14.7448 23.9665 14.1926 23.9772C12.2828 24.0141 10.3947 23.5019 8.75741 22.491C6.83542 21.3043 5.37289 19.5006 4.60895 17.3749C3.84502 15.2492 3.82487 12.9272 4.55181 10.7885C5.27874 8.64987 6.70976 6.82111 8.61087 5.60125C10.512 4.38139 12.7707 3.8426 15.0178 4.07298C16.7602 4.25162 18.4156 4.88454 19.8238 5.89658L18.5107 7.392C18.8557 7.62792 19.1812 7.89014 19.4844 8.17578C18.277 7.03874 16.74 6.30008 15.0831 6.07368C13.401 5.84383 11.6963 6.15575 10.2123 6.95348C9.84376 7.1516 9.75106 7.62554 9.98315 7.97373C10.2152 8.32191 10.6841 8.41158 11.0569 8.22166C12.2295 7.6244 13.5623 7.39528 14.8779 7.57506C16.4451 7.78919 17.8799 8.5687 18.9124 9.76687C19.9449 10.965 20.5039 12.4993 20.4842 14.0808C20.4644 15.6624 19.8674 17.1822 18.8053 18.3543C17.7433 19.5263 16.2895 20.2698 14.7175 20.4448C13.1455 20.6198 11.5638 20.2143 10.27 19.3045C8.97617 18.3947 8.05947 17.0434 7.6924 15.5049C7.38422 14.2133 7.4813 12.8645 7.96046 11.6389C8.11282 11.2492 7.97753 10.7914 7.60822 10.5947C7.23891 10.3979 6.77638 10.5367 6.61542 10.923C5.96736 12.4782 5.82444 14.2053 6.21843 15.8566C6.67128 17.7546 7.8022 19.4217 9.39837 20.5441C10.9945 21.6664 12.9459 22.1668 14.8852 21.9509C16.616 21.7582 18.2306 21.0069 19.4892 19.8196C18.8082 20.4622 18.0144 20.9866 17.1407 21.36L20.0815 25.4772C20.652 26.2758 21.7495 26.4858 22.5329 25.9461C23.3163 25.4064 23.4889 24.3215 22.9184 23.5228L19.9423 19.3563C19.9019 19.4011 19.861 19.4454 19.8196 19.4893C19.8562 19.4505 19.8924 19.4113 19.9282 19.3718C21.2385 17.9258 21.9751 16.0508 21.9994 14.0997C22.0237 12.1486 21.3341 10.2558 20.0603 8.77768C19.9782 8.68246 19.8941 8.58937 19.8081 8.49849C19.8752 8.56931 19.941 8.64135 20.0055 8.71459L21.3199 7.21763C22.7394 8.74953 23.6454 10.6919 23.9033 12.7726C24.14 14.6821 23.8188 16.612 22.9894 18.3327C22.7496 18.8302 22.8927 19.4441 23.3637 19.7325L23.3815 19.7434C23.8526 20.0317 24.4723 19.8853 24.7204 19.3919C25.784 17.2773 26.2018 14.8877 25.9089 12.524C25.5747 9.82833 24.336 7.32577 22.3951 5.42549C20.4542 3.52521 17.926 2.33963 15.2239 2.06259C12.5218 1.78556 9.80561 2.43346 7.51948 3.90036C5.23336 5.36727 3.51255 7.56638 2.63839 10.1382C1.76424 12.7099 1.78846 15.5022 2.70711 18.0584C3.62576 20.6146 5.38447 22.7835 7.6957 24.2106C9.72236 25.4619 12.0687 26.0778 14.4341 25.9921Z" fill="#424242"/>
<path d="M14 9.25C11.3766 9.25 9.25 11.3766 9.25 14C9.25 16.6234 11.3766 18.75 14 18.75C16.6234 18.75 18.75 16.6234 18.75 14C18.75 11.3766 16.6234 9.25 14 9.25Z" fill="#424242"/>
</svg>
