<svg width="230" height="160" viewBox="0 0 230 160" fill="none" xmlns="http://www.w3.org/2000/svg">
<g clip-path="url(#clip0_4173_35229)">
<g filter="url(#filter0_d_4173_35229)">
<path fill-rule="evenodd" clip-rule="evenodd" d="M114.359 24.4419L114.365 24.4419L114.562 24.4419C115.257 24.4419 115.986 24.4419 116.72 24.469C120.609 24.6032 124.394 25.113 128.046 25.9723C154.131 32.091 173.535 55.4904 173.535 83.4289C173.535 116.009 147.128 142.416 114.548 142.416C81.9684 142.416 55.561 116.009 55.561 83.4289C55.561 65.1106 63.8994 48.7469 77.0066 37.9334C77.0283 37.9146 77.0502 37.8967 77.0721 37.8795C77.1121 37.8483 77.1504 37.8213 77.1859 37.7981C87.2939 29.4886 100.255 24.4954 114.359 24.4419ZM77.3633 37.6964C77.3665 37.6948 77.3675 37.6943 77.365 37.6956L77.3633 37.6964Z" fill="#3A3A3A"/>
</g>
<path d="M166.016 60.1779C164.161 60.4653 163.377 59.8644 162.306 57.487C161.783 57.9311 161.287 58.3491 160.634 58.9239C160.268 58.114 159.981 57.4348 159.667 56.7555C159.38 56.0763 159.066 55.9457 158.413 56.4682C157.969 56.8339 157.133 57.2258 156.768 57.0168C156.35 56.8078 156.141 55.9718 156.088 55.3709C156.01 54.5349 156.088 54.1692 154.86 54.143C153.528 54.1169 152.196 53.1764 150.707 52.5756C150.471 54.0647 150.236 55.5277 149.975 57.0168C149.322 57.1735 148.669 57.3041 148.016 57.487C145.952 58.0356 144.698 57.6438 143.444 55.8673C142.608 54.6917 141.929 53.3854 140.988 51.7918C142.712 51.3477 144.201 50.8774 145.743 50.6162C147.154 50.3811 149.871 48.265 150.236 46.8804C150.262 46.7497 150.289 46.6191 150.289 46.5146C150.027 45.13 149.766 43.7715 149.479 42.2301C149.244 42.2301 148.747 42.3085 148.303 42.204C147.467 42.0473 146.736 41.7599 146.37 40.8194C146.213 40.4275 145.691 40.0095 145.273 39.905C143.156 39.4087 142.686 38.9907 142.503 36.9268C142.451 36.1431 142.477 35.3593 142.503 34.5756C142.503 34.3404 142.529 34.1314 142.529 33.7918C137.644 30.9181 132.289 28.7497 126.593 27.4174C126.097 28.7759 125.235 29.5335 123.667 29.7425C122.831 29.847 122.022 30.7352 121.368 31.4145C120.114 32.773 119.017 34.2359 117.842 35.6989C116.065 34.9674 115.412 33.5044 114.785 31.9108C114.001 29.9253 114.236 28.0705 115.203 26.2679C115.281 26.1373 115.412 26.0328 115.569 25.9283C114.916 26.0066 114.21 26.0066 113.505 26.0066H113.322C113.426 26.085 113.505 26.1634 113.557 26.2679C113.714 26.503 113.609 27.13 113.4 27.339C112.381 28.2534 111.284 29.0632 110.213 29.9253C108.724 28.1227 107.627 27.8354 105.276 28.5146C104.753 28.6714 103.865 28.7759 103.604 28.4885C102.663 27.4957 101.984 28.1227 101.252 28.6191C100.364 29.22 99.5542 29.8992 98.6137 30.4217C97.203 31.2055 97.0723 33.8702 97.7255 34.8891C97.9083 35.1764 98.5614 35.4116 98.9011 35.3071C100.39 34.9413 101.723 34.2359 102.532 32.8775C102.872 32.3027 103.186 32.355 103.839 32.4072C104.622 32.4595 105.563 32.1198 106.216 31.6496C107.653 30.5785 107.862 30.5001 109.116 31.7541C109.351 31.9892 109.586 32.3027 109.873 32.4856C110.814 33.0081 110.788 33.6873 110.291 34.4972C109.952 35.0458 109.717 35.6467 109.377 36.3521C109.926 36.4827 110.396 36.5872 110.918 36.6917C110.84 37.2925 110.814 37.8934 110.657 38.442C110.109 40.4014 108.75 41.995 106.582 40.2185C105.85 39.6177 104.91 39.8005 104.466 40.6365C103.786 41.9689 102.559 42.0734 101.409 42.0211C98.7966 41.8905 96.4192 42.6481 94.1464 43.8237C93.8851 43.9544 93.5455 44.1895 93.3365 44.1372C91.7429 43.6147 90.7763 44.8165 89.6006 45.4435C88.4511 46.0705 87.2755 46.6714 86.0738 47.1938C85.3162 47.5335 84.8721 47.8731 84.8198 48.8658C84.6892 50.6162 84.2451 52.3404 83.9054 54.1953C82.4686 53.5683 82.2073 52.3666 82.0506 51.3738C81.6587 48.8658 80.4831 48.4478 78.6805 48.1082C75.3626 47.4812 71.052 49.519 69.6674 52.4711C69.1188 53.6467 69.1188 55.188 69.2494 56.5204C69.3539 57.696 70.7908 58.2969 72.1493 57.8528C72.9591 57.5915 73.7951 57.5654 73.978 58.4014C74.0825 58.95 73.5339 59.6554 73.1681 60.2563C73.0114 60.5175 72.6195 60.6481 72.3583 60.8571C71.5223 61.5364 71.47 62.2417 72.3583 62.8687C72.9853 63.3129 73.0375 63.6786 72.8546 64.4362C72.0709 67.6235 73.6123 70.1053 76.7995 70.9413C78.0274 71.2548 78.8895 70.68 79.6732 69.7657C80.1957 69.1387 80.5876 68.2243 81.6587 68.4072C81.9461 68.4594 82.2596 68.5117 82.4947 68.6423C84.0099 69.3999 85.4729 70.2882 87.0143 70.9674C88.425 71.5944 89.8096 72.0908 90.7763 73.4493C91.1681 73.9979 91.9519 74.3114 92.605 74.5465C95.4003 75.6176 97.5165 77.4725 99.0317 80.0066C100.024 81.6786 100.939 83.4028 101.853 85.1271C102.323 85.9892 102.898 86.5117 103.917 86.7468C106.085 87.2171 108.149 88.1053 109.795 89.6728C111.389 91.188 111.598 92.6771 110.422 94.5581C109.952 95.3419 109.168 95.9166 108.646 96.6742C108.019 97.6147 107.313 98.5813 107 99.6525C106.242 102.108 104.936 104.25 103.264 106.131C102.532 106.967 101.278 107.594 100.181 107.803C98.2741 108.143 97.2291 109.371 96.2625 110.782C95.4526 111.983 94.486 113.107 93.859 114.387C92.8662 116.372 90.933 117.208 89.2871 118.358C86.7792 120.082 84.9766 122.381 84.1667 125.229C83.8009 126.509 84.4541 128.076 84.6369 129.487C84.7676 130.48 84.9504 131.472 85.1072 132.544C82.1289 131.394 80.248 129.252 78.8372 126.718C78.2886 125.725 78.2364 124.445 77.9751 123.295C77.7922 122.459 77.7922 121.571 77.4787 120.814C76.6166 118.75 76.9301 116.66 77.2436 114.596C77.4265 113.394 77.4526 112.271 77.322 111.017C77.113 109.24 77.6094 107.385 77.8184 105.557C77.9229 104.668 78.1319 103.78 78.2102 102.892C78.2886 102.056 77.9751 101.403 77.531 100.645C77.0346 99.757 76.9824 98.5291 77.0346 97.458C77.0869 96.7787 77.1391 96.4391 76.5121 95.995C74.187 94.3752 72.0709 92.233 71.1565 89.725C70.0332 86.5901 69.0927 83.0632 71.5745 79.8237C72.724 78.3085 73.8474 76.6888 74.5005 74.9123C75.3887 72.5088 74.814 71.4115 73.0898 70.3927C71.9925 69.7657 71.2872 68.8252 71.1827 67.5451C71.0782 66.2388 70.4773 65.2983 69.5107 64.4885C68.9359 64.0182 68.5963 63.548 68.9882 62.712C69.3278 61.9282 69.0143 61.3535 68.1261 60.9355C66.3757 60.1256 64.4947 59.2896 64.0767 57.1735C63.8677 56.1547 63.8677 54.8484 64.3641 53.9863C66.7153 49.7802 69.6935 45.9921 73.0898 42.5959C74.1609 41.5248 75.2843 40.4798 76.4337 39.487C63.9983 50.0676 56.0825 65.8208 56.0825 83.429C56.0825 115.144 81.7893 140.851 113.505 140.851C126.045 140.851 137.644 136.828 147.075 130.009L147.154 129.33C147.493 128.52 147.807 127.711 148.146 126.901C148.799 125.464 149.426 124.001 150.132 122.616C150.785 121.362 150.602 120.082 150.21 118.906C149.217 115.798 150.471 113.394 152.405 111.2C152.483 111.121 152.561 111.043 152.614 110.938C153.633 109.789 154.756 108.718 154.756 107.072C154.756 105.766 154.678 104.329 154.181 103.153C154.051 102.84 153.946 102.526 153.842 102.213C153.345 100.358 153.711 98.6336 154.521 96.9094C154.547 96.831 154.599 96.7526 154.625 96.6742C155.148 95.4464 155.305 94.1924 155.148 92.9384C155.122 92.651 155.069 92.3636 154.991 92.0763C154.913 91.7889 154.442 91.3186 154.416 91.3186C152.901 92.2853 151.856 90.7178 150.55 90.6394C148.826 90.5349 147.075 90.2475 145.403 90.4827C143.627 90.7439 142.007 90.4043 140.701 89.4377C138.297 87.6612 136.051 85.6234 133.804 83.638C133.386 83.2722 133.177 82.5146 133.098 81.9398C132.837 79.1967 133.543 76.5843 134.248 73.9718C134.692 72.352 134.953 70.8107 134.718 69.0603C134.509 67.3361 135.868 66.0821 137.2 65.0893C137.696 64.7236 138.376 64.5668 138.924 64.2533C139.499 63.9137 140.231 63.6264 140.57 63.1039C142.634 59.9689 145.847 59.5509 149.113 59.6031C151.673 59.6554 154.312 59.786 156.741 60.4652C158.466 60.9355 160.007 62.2417 161.47 63.3651C162.724 64.3056 163.926 65.011 165.572 64.8281C166.329 64.7497 167.113 64.9326 167.871 65.0371C167.348 63.3651 166.721 61.7454 166.016 60.1779ZM79.2813 58.323C79.6471 56.8339 80.9795 56.1547 81.9461 56.8862C83.2001 57.8266 84.5586 58.2185 86.0999 58.2708C86.4657 58.2969 86.8053 58.532 87.171 58.6888C87.1188 58.8716 87.0927 59.0284 87.0404 59.2113C84.4541 58.8978 81.8938 58.6104 79.2813 58.323ZM90.2538 62.9994C88.6079 62.8426 87.0665 62.6859 85.3945 62.5291C87.0404 61.249 88.6601 60.4652 90.5673 62.2417C90.4628 62.503 90.3321 62.8165 90.2538 62.9994ZM127.246 33.9224C127.037 34.4449 126.776 35.3071 126.41 35.3854C125.757 35.5161 125 35.2287 124.347 34.9413C123.694 34.6801 123.145 34.2098 122.544 33.8179C122.596 33.6612 122.675 33.4783 122.727 33.3216C123.824 32.9036 124.921 32.4072 126.045 32.1198C126.463 32.0153 127.116 32.3288 127.482 32.6685C127.638 32.8775 127.403 33.5306 127.246 33.9224ZM139.29 43.667C139.055 43.2229 138.872 42.8049 138.637 42.3608C139.708 41.8905 140.178 41.159 139.865 39.9834C139.839 39.8789 140.701 39.3825 140.779 39.4609C142.399 40.9761 144.489 41.9689 145.325 44.3462C145.743 45.5219 145.194 45.8876 144.593 46.3579C143.287 47.3506 141.824 46.802 141.484 45.2345C141.328 44.5814 141.249 43.9021 141.119 43.04C140.44 43.249 139.891 43.4319 139.29 43.667Z" fill="url(#paint0_linear_4173_35229)"/>
<path fill-rule="evenodd" clip-rule="evenodd" d="M114.359 24.4419L114.365 24.4419L114.562 24.4419C115.257 24.4419 115.986 24.4419 116.72 24.469C120.609 24.6032 124.394 25.113 128.046 25.9723C154.131 32.091 173.535 55.4904 173.535 83.4289C173.535 116.009 147.128 142.416 114.548 142.416C81.9684 142.416 55.561 116.009 55.561 83.4289C55.561 65.1106 63.8994 48.7469 77.0066 37.9334C77.0283 37.9146 77.0502 37.8967 77.0721 37.8795C77.1121 37.8483 77.1504 37.8213 77.1859 37.7981C87.2939 29.4886 100.255 24.4954 114.359 24.4419ZM77.3633 37.6964C77.3665 37.6948 77.3675 37.6943 77.365 37.6956C77.3648 37.6957 77.3642 37.696 77.3633 37.6964ZM114.548 27.5713H114.368C100.985 27.6228 88.6976 32.367 79.1228 40.2569C79.1012 40.2756 79.0794 40.2936 79.0575 40.3107C79.0178 40.3416 78.9798 40.3684 78.9446 40.3915C66.5594 50.6352 58.6904 66.1072 58.6904 83.4289C58.6904 114.28 83.6967 139.287 114.548 139.287C145.399 139.287 170.406 114.28 170.406 83.4289C170.406 56.9756 152.033 34.8133 127.332 29.019L127.33 29.0188C123.878 28.2065 120.296 27.7236 116.61 27.5965L116.606 27.5963C115.935 27.5715 115.258 27.5713 114.548 27.5713Z" fill="#5C5C5C"/>
<path d="M141.795 17.4159C147.402 17.4159 151.937 22.0463 151.937 27.7718C151.937 32.3396 145.502 41.3815 142.867 44.8856C142.316 45.6365 141.213 45.6365 140.661 44.8856C138.026 41.3815 131.591 32.3396 131.591 27.7718C131.652 22.0463 136.187 17.4159 141.795 17.4159Z" fill="#D1D1D1"/>
<path d="M141.538 31.8845C143.785 31.8845 145.607 30.0626 145.607 27.8152C145.607 25.5678 143.785 23.7459 141.538 23.7459C139.291 23.7459 137.469 25.5678 137.469 27.8152C137.469 30.0626 139.291 31.8845 141.538 31.8845Z" fill="#3A3A3A"/>
<path d="M90.9441 26.9109C99.4177 26.9109 106.271 33.6325 106.271 41.9436C106.271 48.5744 96.5469 61.6997 92.5647 66.7863C91.7313 67.8763 90.0643 67.8763 89.2309 66.7863C85.2487 61.6997 75.5249 48.5744 75.5249 41.9436C75.6175 33.6325 82.4705 26.9109 90.9441 26.9109Z" fill="#D1D1D1"/>
<path d="M90.8974 48.1617C94.1437 48.1617 96.7753 45.4289 96.7753 42.0578C96.7753 38.6867 94.1437 35.9538 90.8974 35.9538C87.6511 35.9538 85.0195 38.6867 85.0195 42.0578C85.0195 45.4289 87.6511 48.1617 90.8974 48.1617Z" fill="#3A3A3A"/>
</g>
<defs>
<filter id="filter0_d_4173_35229" x="39.561" y="19.9163" width="149.974" height="149.974" filterUnits="userSpaceOnUse" color-interpolation-filters="sRGB">
<feFlood flood-opacity="0" result="BackgroundImageFix"/>
<feColorMatrix in="SourceAlpha" type="matrix" values="0 0 0 0 0 0 0 0 0 0 0 0 0 0 0 0 0 0 127 0" result="hardAlpha"/>
<feOffset dy="11.4745"/>
<feGaussianBlur stdDeviation="8"/>
<feColorMatrix type="matrix" values="0 0 0 0 0 0 0 0 0 0 0 0 0 0 0 0 0 0 0.16 0"/>
<feBlend mode="normal" in2="BackgroundImageFix" result="effect1_dropShadow_4173_35229"/>
<feBlend mode="normal" in="SourceGraphic" in2="effect1_dropShadow_4173_35229" result="shape"/>
</filter>
<linearGradient id="paint0_linear_4173_35229" x1="111.94" y1="23.27" x2="111.94" y2="142.09" gradientUnits="userSpaceOnUse">
<stop stop-color="#6C6C6C"/>
<stop offset="0.9964" stop-color="#464646"/>
</linearGradient>
<clipPath id="clip0_4173_35229">
<rect width="230" height="160" fill="white"/>
</clipPath>
</defs>
</svg>
