<svg xmlns="http://www.w3.org/2000/svg" width="160" height="160" fill="none" viewBox="0 0 160 160">
  <g clip-path="url(#clip0_4173_35227)">
    <g filter="url(#filter0_d_4173_35227)">
      <path fill="url(#paint0_linear_4173_35227)" fill-rule="evenodd" d="M80.2982 24.0261h.2024c.6958 0 1.4247 0 2.1585.0271 3.8888.1342 7.6734.644 11.326 1.5033 26.0849 6.1187 45.4889 29.5181 45.4889 57.4566C139.474 115.593 113.067 142 80.487 142 47.9074 142 21.5 115.593 21.5 83.0131c0-18.3183 8.3384-34.682 21.4456-45.4955a1.758 1.758 0 0 1 .0654-.0539 1.727 1.727 0 0 1 .1138-.0814c10.1081-8.3095 23.0696-13.3027 37.1734-13.3562ZM43.3023 37.2806c.0032-.0016.0042-.0021.0017-.0008l-.0017.0008Z" clip-rule="evenodd"/>
    </g>
    <path fill="url(#paint1_linear_4173_35227)" d="M131.955 59.7621c-1.855.2874-2.639-.3135-3.71-2.6909-.523.4441-1.019.8621-1.672 1.4369-.366-.8099-.653-1.4891-.967-2.1684-.287-.6792-.601-.8098-1.254-.2873-.444.3657-1.28.7576-1.646.5486-.418-.209-.627-1.045-.679-1.6459-.078-.836 0-1.2017-1.228-1.2279-1.332-.0261-2.664-.9666-4.153-1.5674-.236 1.4891-.471 2.9521-.732 4.4412-.653.1567-1.306.2874-1.959.4702-2.064.5486-3.318.1568-4.572-1.6197-.836-1.1756-1.515-2.4819-2.456-4.0755 1.724-.4441 3.213-.9144 4.755-1.1756 1.411-.2351 4.128-2.3512 4.493-3.7358.026-.1307.053-.2613.053-.3658-.262-1.3846-.523-2.7431-.81-4.2845-.235 0-.732.0784-1.176-.0261-.836-.1567-1.567-.4441-1.933-1.3846-.157-.3919-.679-.8099-1.097-.9144-2.117-.4963-2.587-.9143-2.77-2.9782-.052-.7837-.026-1.5675 0-2.3512 0-.2352.026-.4442.026-.7838-4.885-2.8737-10.2405-5.0421-15.9357-6.3744-.4963 1.3585-1.3584 2.1161-2.9259 2.3251-.836.1045-1.6459.9927-2.299 1.672-1.254 1.3585-2.3513 2.8214-3.5269 4.2844-1.7765-.7315-2.4296-2.1945-3.0566-3.7881-.7837-1.9855-.5486-3.8403.418-5.6429.0784-.1307.209-.2351.3658-.3396-.6532.0783-1.3585.0783-2.0639.0783h-.1829c.1045.0784.1829.1568.2352.2613.1567.2351.0522.8621-.1568 1.0711-1.0189.9144-2.1161 1.7242-3.1872 2.5863-1.4891-1.8026-2.5864-2.0899-4.9376-1.4107-.5225.1568-1.4107.2613-1.672-.0261-.9405-.9928-1.6197-.3658-2.3512.1306-.8883.6009-1.6981 1.2801-2.6386 1.8026-1.4108.7838-1.5414 3.4485-.8883 4.4674.1829.2873.836.5225 1.1756.418 1.4892-.3658 2.8215-1.0712 3.6314-2.4296.3396-.5748.6531-.5225 1.3062-.4703.7838.0523 1.7243-.2874 2.3774-.7576 1.4368-1.0711 1.6458-1.1495 2.8998.1045.2352.2351.4703.5486.7577.7315.9404.5225.9143 1.2017.418 2.0116-.3397.5486-.5748 1.1495-.9144 1.8549.5486.1306 1.0189.2351 1.5413.3396-.0783.6008-.1044 1.2017-.2612 1.7503-.5486 1.9594-1.9071 3.553-4.0755 1.7765-.7315-.6008-1.672-.418-2.1161.418-.6792 1.3324-1.9071 1.4369-3.0566 1.3846-2.6125-.1306-4.9898.627-7.2627 1.8026-.2612.1307-.6008.3658-.8098.3135-1.5937-.5225-2.5603.6793-3.7359 1.3063-1.1495.627-2.3251 1.2279-3.5268 1.7503-.7577.3397-1.2018.6793-1.254 1.672-.1307 1.7504-.5748 3.4746-.9144 5.3295-1.4369-.627-1.6981-1.8287-1.8549-2.8215-.3918-2.508-1.5674-2.926-3.3701-3.2656-3.3178-.627-7.6284 1.4108-9.013 4.3629-.5486 1.1756-.5486 2.7169-.418 4.0493.1045 1.1756 1.5413 1.7765 2.8998 1.3324.8099-.2613 1.6459-.2874 1.8288.5486.1045.5486-.4441 1.254-.8099 1.8549-.1567.2612-.5486.3918-.8099.6008-.836.6793-.8882 1.3846 0 2.0116.627.4442.6793.8099.4964 1.5675-.7837 3.1873.7576 5.6691 3.9449 6.5051 1.2278.3135 2.0899-.2612 2.8737-1.1756.5225-.627.9144-1.5414 1.9855-1.3585.2873.0522.6008.1045.836.2351 1.5152.7576 2.9782 1.6459 4.5196 2.3251 1.4107.627 2.7953 1.1234 3.7619 2.4819.3919.5486 1.1756.8621 1.8288 1.0972 2.7953 1.0711 4.9114 2.926 6.4267 5.4601.9927 1.672 1.9071 3.3962 2.8214 5.1205.4703.8621 1.045 1.3846 2.0639 1.6197 2.1684.4703 4.2322 1.3585 5.8781 2.926 1.5936 1.5152 1.8026 3.0043.627 4.8853-.4703.7838-1.254 1.3585-1.7765 2.1161-.627.9405-1.3324 1.9071-1.6459 2.9783-.7576 2.4553-2.0638 4.5983-3.7358 6.4793-.7315.836-1.9855 1.463-3.0827 1.672-1.9072.339-2.9521 1.567-3.9188 2.978-.8098 1.202-1.7764 2.325-2.4034 3.605-.9928 1.986-2.926 2.822-4.5719 3.971-2.508 1.724-4.3106 4.023-5.1205 6.871-.3657 1.28.2874 2.847.4703 4.258.1306.993.3135 1.986.4702 3.057-2.9782-1.15-4.8592-3.292-6.2699-5.826-.5486-.993-.6009-2.273-.8621-3.422-.1829-.836-.1829-1.725-.4964-2.482-.8621-2.064-.5486-4.154-.2351-6.218.1828-1.202.209-2.325.0784-3.579-.209-1.777.2873-3.631.4963-5.46.1045-.888.3135-1.777.3919-2.665.0784-.836-.2351-1.489-.6793-2.247-.4963-.8878-.5486-2.1157-.4963-3.1868.0522-.6793.1045-1.0189-.5225-1.463-2.3251-1.6197-4.4412-3.762-5.3556-6.27-1.1234-3.1349-2.0639-6.6618.418-9.9013 1.1495-1.5152 2.2729-3.1349 2.926-4.9114.8882-2.4035.3135-3.5008-1.4108-4.5196-1.0972-.627-1.8026-1.5675-1.9071-2.8476-.1045-1.3063-.7053-2.2468-1.672-3.0566-.5747-.4703-.9143-.9405-.5225-1.7765.3397-.7838.0262-1.3585-.8621-1.7765-1.7503-.8099-3.6313-1.6459-4.0493-3.762-.209-1.0188-.209-2.3251.2873-3.1872 2.3513-4.2061 5.3295-7.9942 8.7257-11.3904a62.7801 62.7801 0 0 1 3.344-3.1089C29.9373 49.6518 22.0215 65.405 22.0215 83.0132c0 31.7158 25.7068 57.4218 57.4223 57.4218 12.5399 0 24.1392-4.023 33.5702-10.841l.079-.68c.339-.809.653-1.619.992-2.429.653-1.437 1.28-2.9 1.986-4.285.653-1.254.47-2.534.078-3.709-.993-3.109.261-5.513 2.195-7.707.078-.079.156-.157.209-.261 1.019-1.15 2.142-2.221 2.142-3.867 0-1.306-.078-2.743-.575-3.919-.13-.313-.235-.627-.339-.94-.497-1.855-.131-3.5792.679-5.3034.026-.0784.078-.1568.104-.2352.523-1.2278.679-2.4818.523-3.7358a5.0107 5.0107 0 0 0-.157-.8621c-.078-.2874-.549-.7576-.575-.7576-1.515.9666-2.56-.6009-3.866-.6793-1.724-.1045-3.475-.3919-5.147-.1567-1.776.2612-3.396-.0784-4.702-1.045-2.404-1.7765-4.65-3.8143-6.8972-5.7997-.418-.3658-.627-1.1234-.7054-1.6981-.2612-2.7432.4441-5.3556 1.1496-7.9681.444-1.6198.705-3.1611.47-4.9115-.209-1.7242 1.15-2.9782 2.482-3.971.496-.3657 1.176-.5225 1.724-.836.575-.3396 1.306-.6269 1.646-1.1494 2.064-3.135 5.277-3.553 8.543-3.5008 2.56.0523 5.199.1829 7.628.8622 1.725.4702 3.266 1.7764 4.729 2.8998 1.254.9405 2.456 1.6459 4.102 1.463.757-.0784 1.541.1045 2.299.209-.523-1.672-1.15-3.2917-1.855-4.8592Zm-86.7347-1.8549c.3658-1.4891 1.6981-2.1683 2.6647-1.4368 1.254.9404 2.6125 1.3323 4.1539 1.3846.3657.0261.7054.2612 1.0711.418-.0522.1828-.0784.3396-.1306.5225-2.5864-.3135-5.1466-.6009-7.7591-.8883Zm10.9724 4.6764c-1.6458-.1568-3.1872-.3135-4.8592-.4703 1.6459-1.2801 3.2656-2.0638 5.1727-.2874a38.053 38.053 0 0 1-.3135.7577Zm36.9928-29.077c-.209.5225-.4703 1.3847-.836 1.463-.6532.1307-1.4108-.1567-2.0639-.4441-.6531-.2612-1.2017-.7315-1.8026-1.1234.0522-.1567.1306-.3396.1829-.4963 1.0972-.418 2.1944-.9144 3.3178-1.2018.418-.1045 1.0711.209 1.4369.5487.1567.209-.0784.8621-.2351 1.2539Zm12.0435 9.7446c-.235-.4441-.418-.8621-.653-1.3062 1.071-.4703 1.541-1.2018 1.228-2.3774-.026-.1045.836-.6009.914-.5225 1.62 1.5152 3.71 2.508 4.546 4.8853.418 1.1757-.131 1.5414-.732 2.0117-1.306.9927-2.769.4441-3.109-1.1234-.156-.6531-.235-1.3324-.365-2.1945-.68.209-1.228.3919-1.829.627Z"/>
    <path fill="#EBE9E6" fill-rule="evenodd" d="M80.2982 24.0261h.2024c.6958 0 1.4247 0 2.1585.0271 3.8888.1342 7.6734.644 11.326 1.5033 26.0849 6.1187 45.4889 29.5181 45.4889 57.4566C139.474 115.593 113.067 142 80.487 142 47.9074 142 21.5 115.593 21.5 83.0131c0-18.3183 8.3384-34.682 21.4456-45.4955a1.758 1.758 0 0 1 .0654-.0539 1.727 1.727 0 0 1 .1138-.0814c10.1081-8.3095 23.0696-13.3027 37.1734-13.3562ZM43.3023 37.2806c.0032-.0016.0042-.0021.0017-.0008l-.0017.0008ZM80.487 27.1555h-.1799c-13.3836.0515-25.6705 4.7957-35.2453 12.6856a1.6957 1.6957 0 0 1-.1782.1346C32.4983 50.2194 24.6294 65.6914 24.6294 83.0131c0 30.8509 25.0063 55.8579 55.8576 55.8579 30.851 0 55.858-25.007 55.858-55.8579 0-26.4533-18.373-48.6156-43.0745-54.4099l-.0011-.0002c-3.4523-.8123-7.0339-1.2952-10.7202-1.4223l-.004-.0002c-.6716-.0248-1.348-.025-2.0582-.025Z" clip-rule="evenodd"/>
    <path fill="url(#paint2_linear_4173_35227)" d="M107.734 17.0001c5.607 0 10.142 4.6305 10.142 10.3559 0 4.5679-6.435 13.6098-9.07 17.1139a1.3617 1.3617 0 0 1-2.206 0c-2.635-3.5041-9.0702-12.546-9.0702-17.1139.0613-5.7254 4.5962-10.3559 10.2042-10.3559Z"/>
    <path fill="#fff" d="M107.477 31.4687c2.247 0 4.069-1.8218 4.069-4.0693 0-2.2474-1.822-4.0693-4.069-4.0693s-4.069 1.8219-4.069 4.0693c0 2.2475 1.822 4.0693 4.069 4.0693Z"/>
    <path fill="url(#paint3_linear_4173_35227)" d="M56.8831 26.4951c8.4736 0 15.3266 6.7216 15.3266 15.0328 0 6.6308-9.7238 19.7561-13.706 24.8427-.8335 1.09-2.5004 1.09-3.3339 0-3.9821-5.0866-13.7059-18.2119-13.7059-24.8427.0926-8.3112 6.9456-15.0328 15.4192-15.0328Z"/>
    <path fill="#fff" d="M56.8369 47.7459c3.2462 0 5.8778-2.7328 5.8778-6.1039s-2.6316-6.104-5.8778-6.104c-3.2463 0-5.8779 2.7329-5.8779 6.104s2.6316 6.1039 5.8779 6.1039Z"/>
  </g>
  <defs>
    <linearGradient id="paint0_linear_4173_35227" x1="80.4486" x2="80.4486" y1="21.2972" y2="143.272" gradientUnits="userSpaceOnUse">
      <stop stop-color="#FDFEFF"/>
      <stop offset=".9964" stop-color="#F5F2EC"/>
    </linearGradient>
    <linearGradient id="paint1_linear_4173_35227" x1="77.8791" x2="77.8791" y1="22.8542" y2="141.674" gradientUnits="userSpaceOnUse">
      <stop stop-color="#F7F3EE"/>
      <stop offset="1" stop-color="#DBD3CA"/>
    </linearGradient>
    <linearGradient id="paint2_linear_4173_35227" x1="107.705" x2="107.705" y1="17.974" y2="33.7086" gradientUnits="userSpaceOnUse">
      <stop stop-color="#B7B4AF"/>
      <stop offset="1" stop-color="#5C5C5C"/>
    </linearGradient>
    <linearGradient id="paint3_linear_4173_35227" x1="56.8392" x2="56.8392" y1="27.9087" y2="50.7493" gradientUnits="userSpaceOnUse">
      <stop stop-color="#B7B4AF"/>
      <stop offset="1" stop-color="#5C5C5C"/>
    </linearGradient>
    <clipPath id="clip0_4173_35227">
      <path fill="#fff" d="M0 0h160v160H0z"/>
    </clipPath>
    <filter id="filter0_d_4173_35227" width="149.974" height="149.974" x="5.5" y="16.0261" color-interpolation-filters="sRGB" filterUnits="userSpaceOnUse">
      <feFlood flood-opacity="0" result="BackgroundImageFix"/>
      <feColorMatrix in="SourceAlpha" result="hardAlpha" values="0 0 0 0 0 0 0 0 0 0 0 0 0 0 0 0 0 0 127 0"/>
      <feOffset dy="8"/>
      <feGaussianBlur stdDeviation="8"/>
      <feColorMatrix values="0 0 0 0 0.576471 0 0 0 0 0.501961 0 0 0 0 0.396078 0 0 0 0.16 0"/>
      <feBlend in2="BackgroundImageFix" result="effect1_dropShadow_4173_35227"/>
      <feBlend in="SourceGraphic" in2="effect1_dropShadow_4173_35227" result="shape"/>
    </filter>
  </defs>
</svg>