<svg width="230" height="160" viewBox="0 0 230 160" fill="none" xmlns="http://www.w3.org/2000/svg">
<g clip-path="url(#clip0_4173_35227)">
<g filter="url(#filter0_d_4173_35227)">
<path fill-rule="evenodd" clip-rule="evenodd" d="M115.298 24.0261L115.304 24.0261L115.501 24.0261C116.196 24.0261 116.925 24.0261 117.659 24.0533C121.548 24.1875 125.333 24.6972 128.985 25.5566C155.07 31.6753 174.474 55.0746 174.474 83.0132C174.474 115.593 148.067 142 115.487 142C82.9074 142 56.5 115.593 56.5 83.0132C56.5 64.6949 64.8384 48.3312 77.9456 37.5176C77.9673 37.4989 77.9891 37.4809 78.011 37.4638C78.0511 37.4325 78.0894 37.4055 78.1248 37.3823C88.2329 29.0729 101.194 24.0797 115.298 24.0261ZM78.3023 37.2807C78.3055 37.2791 78.3065 37.2786 78.304 37.2799L78.3023 37.2807Z" fill="url(#paint0_linear_4173_35227)"/>
</g>
<path d="M166.955 59.7621C165.1 60.0495 164.316 59.4486 163.245 57.0713C162.722 57.5154 162.226 57.9334 161.573 58.5081C161.207 57.6983 160.92 57.019 160.606 56.3398C160.319 55.6605 160.005 55.5299 159.352 56.0524C158.908 56.4182 158.072 56.81 157.706 56.601C157.288 56.392 157.079 55.556 157.027 54.9552C156.949 54.1192 157.027 53.7534 155.799 53.7273C154.467 53.7012 153.135 52.7607 151.646 52.1598C151.41 53.6489 151.175 55.1119 150.914 56.601C150.261 56.7578 149.608 56.8884 148.955 57.0713C146.891 57.6199 145.637 57.228 144.383 55.4515C143.547 54.2759 142.868 52.9697 141.927 51.3761C143.651 50.932 145.14 50.4617 146.682 50.2005C148.093 49.9653 150.81 47.8492 151.175 46.4646C151.201 46.334 151.228 46.2034 151.228 46.0989C150.966 44.7142 150.705 43.3558 150.418 41.8144C150.183 41.8144 149.686 41.8928 149.242 41.7883C148.406 41.6315 147.675 41.3441 147.309 40.4037C147.152 40.0118 146.63 39.5938 146.212 39.4893C144.095 38.9929 143.625 38.5749 143.442 36.5111C143.39 35.7273 143.416 34.9436 143.442 34.1598C143.442 33.9247 143.468 33.7157 143.468 33.3761C138.583 30.5024 133.228 28.334 127.532 27.0016C127.036 28.3601 126.174 29.1177 124.606 29.3267C123.77 29.4312 122.96 30.3195 122.307 30.9987C121.053 32.3572 119.956 33.8202 118.781 35.2832C117.004 34.5517 116.351 33.0887 115.724 31.4951C114.94 29.5096 115.175 27.6547 116.142 25.8521C116.22 25.7215 116.351 25.617 116.508 25.5125C115.855 25.5909 115.149 25.5909 114.444 25.5909H114.261C114.365 25.6693 114.444 25.7476 114.496 25.8521C114.653 26.0873 114.548 26.7143 114.339 26.9233C113.32 27.8376 112.223 28.6475 111.152 29.5096C109.663 27.707 108.566 27.4196 106.214 28.0989C105.692 28.2556 104.804 28.3601 104.543 28.0727C103.602 27.08 102.923 27.707 102.191 28.2034C101.303 28.8042 100.493 29.4835 99.5527 30.006C98.1419 30.7897 98.0113 33.4545 98.6644 34.4733C98.8473 34.7607 99.5004 34.9958 99.84 34.8913C101.329 34.5256 102.662 33.8202 103.471 32.4617C103.811 31.887 104.125 31.9392 104.778 31.9915C105.561 32.0437 106.502 31.7041 107.155 31.2338C108.592 30.1627 108.801 30.0844 110.055 31.3383C110.29 31.5735 110.525 31.887 110.812 32.0698C111.753 32.5923 111.727 33.2716 111.23 34.0815C110.891 34.6301 110.656 35.2309 110.316 35.9363C110.865 36.0669 111.335 36.1714 111.857 36.2759C111.779 36.8768 111.753 37.4777 111.596 38.0263C111.048 39.9857 109.689 41.5793 107.521 39.8028C106.789 39.2019 105.849 39.3848 105.405 40.2208C104.725 41.5531 103.498 41.6576 102.348 41.6054C99.7355 41.4748 97.3582 42.2324 95.0853 43.408C94.8241 43.5386 94.4845 43.7738 94.2755 43.7215C92.6818 43.199 91.7152 44.4008 90.5396 45.0277C89.3901 45.6547 88.2145 46.2556 87.0128 46.7781C86.2551 47.1177 85.811 47.4574 85.7588 48.4501C85.6281 50.2005 85.184 51.9247 84.8444 53.7796C83.4075 53.1526 83.1463 51.9508 82.9895 50.9581C82.5977 48.4501 81.4221 48.0321 79.6194 47.6925C76.3016 47.0655 71.991 49.1032 70.6064 52.0553C70.0578 53.2309 70.0578 54.7723 70.1884 56.1047C70.2929 57.2803 71.7297 57.8812 73.0882 57.437C73.8981 57.1758 74.7341 57.1497 74.917 57.9857C75.0215 58.5343 74.4729 59.2396 74.1071 59.8405C73.9504 60.1018 73.5585 60.2324 73.2972 60.4414C72.4612 61.1206 72.409 61.826 73.2972 62.453C73.9242 62.8971 73.9765 63.2629 73.7936 64.0205C73.0099 67.2077 74.5512 69.6896 77.7385 70.5256C78.9663 70.8391 79.8284 70.2643 80.6122 69.3499C81.1347 68.7229 81.5266 67.8086 82.5977 67.9915C82.885 68.0437 83.1985 68.096 83.4337 68.2266C84.9489 68.9842 86.4119 69.8724 87.9533 70.5517C89.364 71.1787 90.7486 71.6751 91.7152 73.0335C92.1071 73.5822 92.8908 73.8957 93.544 74.1308C96.3393 75.2019 98.4554 77.0568 99.9707 79.5909C100.963 81.2629 101.878 82.9871 102.792 84.7113C103.262 85.5735 103.837 86.096 104.856 86.3311C107.024 86.8013 109.088 87.6896 110.734 89.2571C112.328 90.7723 112.537 92.2614 111.361 94.1424C110.891 94.9261 110.107 95.5009 109.585 96.2585C108.958 97.199 108.252 98.1656 107.939 99.2367C107.181 101.692 105.875 103.835 104.203 105.716C103.471 106.552 102.217 107.179 101.12 107.388C99.213 107.727 98.1681 108.955 97.2014 110.366C96.3916 111.568 95.4249 112.691 94.798 113.971C93.8052 115.957 91.872 116.793 90.2261 117.942C87.7181 119.666 85.9155 121.965 85.1056 124.813C84.7399 126.093 85.393 127.661 85.5759 129.071C85.7065 130.064 85.8894 131.057 86.0461 132.128C83.0679 130.978 81.1869 128.836 79.7762 126.302C79.2276 125.309 79.1753 124.029 78.9141 122.88C78.7312 122.044 78.7312 121.155 78.4177 120.398C77.5556 118.334 77.8691 116.244 78.1826 114.18C78.3654 112.978 78.3916 111.855 78.261 110.601C78.052 108.825 78.5483 106.97 78.7573 105.141C78.8618 104.253 79.0708 103.364 79.1492 102.476C79.2276 101.64 78.9141 100.987 78.4699 100.229C77.9736 99.3412 77.9213 98.1134 77.9736 97.0422C78.0258 96.363 78.0781 96.0234 77.4511 95.5793C75.126 93.9595 73.0099 91.8173 72.0955 89.3093C70.9721 86.1743 70.0316 82.6475 72.5135 79.408C73.663 77.8928 74.7864 76.273 75.4395 74.4965C76.3277 72.0931 75.753 70.9958 74.0287 69.9769C72.9315 69.3499 72.2261 68.4095 72.1216 67.1293C72.0171 65.8231 71.4163 64.8826 70.4496 64.0727C69.8749 63.6025 69.5353 63.1322 69.9271 62.2962C70.2668 61.5125 69.9533 60.9378 69.065 60.5198C67.3147 59.7099 65.4337 58.8739 65.0157 56.7578C64.8067 55.7389 64.8067 54.4327 65.303 53.5706C67.6543 49.3645 70.6325 45.5764 74.0287 42.1801C75.0998 41.109 76.2232 40.064 77.3727 39.0713C64.9373 49.6518 57.0215 65.4051 57.0215 83.0132C57.0215 114.729 82.7283 140.436 114.444 140.436C126.984 140.436 138.583 136.412 148.014 129.594L148.093 128.915C148.432 128.105 148.746 127.295 149.085 126.485C149.738 125.048 150.365 123.585 151.071 122.2C151.724 120.946 151.541 119.666 151.149 118.491C150.156 115.382 151.41 112.978 153.344 110.784C153.422 110.706 153.5 110.627 153.553 110.523C154.572 109.373 155.695 108.302 155.695 106.656C155.695 105.35 155.617 103.913 155.12 102.737C154.99 102.424 154.885 102.11 154.781 101.797C154.284 99.9421 154.65 98.2179 155.46 96.4936C155.486 96.4152 155.538 96.3369 155.564 96.2585C156.087 95.0306 156.243 93.7766 156.087 92.5227C156.061 92.2353 156.008 91.9479 155.93 91.6605C155.852 91.3732 155.381 90.9029 155.355 90.9029C153.84 91.8695 152.795 90.302 151.489 90.2237C149.765 90.1192 148.014 89.8318 146.342 90.0669C144.566 90.3282 142.946 89.9885 141.64 89.0219C139.236 87.2454 136.99 85.2077 134.743 83.2222C134.325 82.8565 134.116 82.0989 134.037 81.5241C133.776 78.781 134.482 76.1685 135.187 73.556C135.631 71.9363 135.892 70.3949 135.657 68.6446C135.448 66.9203 136.807 65.6664 138.139 64.6736C138.635 64.3079 139.315 64.1511 139.863 63.8376C140.438 63.498 141.169 63.2106 141.509 62.6881C143.573 59.5531 146.786 59.1351 150.052 59.1874C152.612 59.2396 155.251 59.3703 157.68 60.0495C159.405 60.5198 160.946 61.826 162.409 62.9494C163.663 63.8899 164.865 64.5952 166.511 64.4124C167.268 64.334 168.052 64.5169 168.81 64.6214C168.287 62.9494 167.66 61.3296 166.955 59.7621ZM80.2203 57.9073C80.5861 56.4182 81.9184 55.7389 82.885 56.4704C84.139 57.4109 85.4975 57.8028 87.0389 57.855C87.4046 57.8812 87.7443 58.1163 88.11 58.273C88.0578 58.4559 88.0316 58.6126 87.9794 58.7955C85.393 58.482 82.8328 58.1947 80.2203 57.9073ZM91.1927 62.5836C89.5469 62.4269 88.0055 62.2701 86.3335 62.1134C87.9794 60.8333 89.5991 60.0495 91.5062 61.826C91.4017 62.0872 91.2711 62.4007 91.1927 62.5836ZM128.185 33.5067C127.976 34.0292 127.715 34.8913 127.349 34.9697C126.696 35.1003 125.939 34.8129 125.286 34.5256C124.632 34.2643 124.084 33.7941 123.483 33.4022C123.535 33.2455 123.614 33.0626 123.666 32.9058C124.763 32.4878 125.86 31.9915 126.984 31.7041C127.402 31.5996 128.055 31.9131 128.421 32.2527C128.577 32.4617 128.342 33.1148 128.185 33.5067ZM140.229 43.2513C139.994 42.8071 139.811 42.3891 139.576 41.945C140.647 41.4748 141.117 40.7433 140.804 39.5677C140.778 39.4632 141.64 38.9668 141.718 39.0452C143.338 40.5604 145.428 41.5531 146.264 43.9305C146.682 45.1061 146.133 45.4719 145.532 45.9421C144.226 46.9349 142.763 46.3862 142.423 44.8187C142.267 44.1656 142.188 43.4864 142.058 42.6243C141.378 42.8333 140.83 43.0161 140.229 43.2513Z" fill="url(#paint1_linear_4173_35227)"/>
<path fill-rule="evenodd" clip-rule="evenodd" d="M115.298 24.0261L115.304 24.0261L115.501 24.0261C116.196 24.0261 116.925 24.0261 117.659 24.0533C121.548 24.1875 125.333 24.6972 128.985 25.5566C155.07 31.6753 174.474 55.0746 174.474 83.0132C174.474 115.593 148.067 142 115.487 142C82.9074 142 56.5 115.593 56.5 83.0132C56.5 64.6949 64.8384 48.3312 77.9456 37.5176C77.9673 37.4989 77.9891 37.4809 78.011 37.4638C78.0511 37.4325 78.0894 37.4055 78.1248 37.3823C88.2329 29.0729 101.194 24.0797 115.298 24.0261ZM78.3023 37.2807C78.3055 37.2791 78.3065 37.2786 78.304 37.2799C78.3038 37.28 78.3031 37.2803 78.3023 37.2807ZM115.487 27.1555H115.307C101.924 27.207 89.6366 31.9513 80.0618 39.8411C80.0401 39.8599 80.0183 39.8778 79.9964 39.8949C79.9568 39.9259 79.9188 39.9527 79.8836 39.9758C67.4983 50.2195 59.6294 65.6915 59.6294 83.0132C59.6294 113.865 84.6357 138.871 115.487 138.871C146.338 138.871 171.345 113.865 171.345 83.0132C171.345 56.5599 152.972 34.3976 128.27 28.6033L128.269 28.6031C124.817 27.7907 121.235 27.3078 117.549 27.1807L117.545 27.1806C116.874 27.1557 116.197 27.1555 115.487 27.1555Z" fill="#EBE9E6"/>
<path d="M142.734 17.0001C148.341 17.0001 152.876 21.6306 152.876 27.356C152.876 31.9239 146.441 40.9658 143.806 44.4699C143.255 45.2208 142.151 45.2208 141.6 44.4699C138.965 40.9658 132.53 31.9239 132.53 27.356C132.591 21.6306 137.126 17.0001 142.734 17.0001Z" fill="url(#paint2_linear_4173_35227)"/>
<path d="M142.477 31.4688C144.724 31.4688 146.546 29.6469 146.546 27.3995C146.546 25.1521 144.724 23.3302 142.477 23.3302C140.23 23.3302 138.408 25.1521 138.408 27.3995C138.408 29.6469 140.23 31.4688 142.477 31.4688Z" fill="white"/>
<path d="M91.8831 26.4951C100.357 26.4951 107.21 33.2167 107.21 41.5279C107.21 48.1587 97.4859 61.284 93.5037 66.3706C92.6702 67.4606 91.0033 67.4606 90.1698 66.3706C86.1877 61.284 76.4639 48.1587 76.4639 41.5279C76.5565 33.2167 83.4095 26.4951 91.8831 26.4951Z" fill="url(#paint3_linear_4173_35227)"/>
<path d="M91.8364 47.746C95.0826 47.746 97.7142 45.0132 97.7142 41.642C97.7142 38.2709 95.0826 35.5381 91.8364 35.5381C88.5901 35.5381 85.9585 38.2709 85.9585 41.642C85.9585 45.0132 88.5901 47.746 91.8364 47.746Z" fill="white"/>
</g>
<defs>
<filter id="filter0_d_4173_35227" x="40.5" y="16.0261" width="149.974" height="149.974" filterUnits="userSpaceOnUse" color-interpolation-filters="sRGB">
<feFlood flood-opacity="0" result="BackgroundImageFix"/>
<feColorMatrix in="SourceAlpha" type="matrix" values="0 0 0 0 0 0 0 0 0 0 0 0 0 0 0 0 0 0 127 0" result="hardAlpha"/>
<feOffset dy="8"/>
<feGaussianBlur stdDeviation="8"/>
<feColorMatrix type="matrix" values="0 0 0 0 0.576471 0 0 0 0 0.501961 0 0 0 0 0.396078 0 0 0 0.16 0"/>
<feBlend mode="normal" in2="BackgroundImageFix" result="effect1_dropShadow_4173_35227"/>
<feBlend mode="normal" in="SourceGraphic" in2="effect1_dropShadow_4173_35227" result="shape"/>
</filter>
<linearGradient id="paint0_linear_4173_35227" x1="115.449" y1="21.2973" x2="115.449" y2="143.272" gradientUnits="userSpaceOnUse">
<stop stop-color="#FDFEFF"/>
<stop offset="0.9964" stop-color="#F5F2EC"/>
</linearGradient>
<linearGradient id="paint1_linear_4173_35227" x1="112.879" y1="22.8542" x2="112.879" y2="141.674" gradientUnits="userSpaceOnUse">
<stop stop-color="#F7F3EE"/>
<stop offset="1" stop-color="#DBD3CA"/>
</linearGradient>
<linearGradient id="paint2_linear_4173_35227" x1="142.705" y1="17.974" x2="142.705" y2="33.7086" gradientUnits="userSpaceOnUse">
<stop stop-color="#B7B4AF"/>
<stop offset="1" stop-color="#5C5C5C"/>
</linearGradient>
<linearGradient id="paint3_linear_4173_35227" x1="91.8392" y1="27.9087" x2="91.8392" y2="50.7493" gradientUnits="userSpaceOnUse">
<stop stop-color="#B7B4AF"/>
<stop offset="1" stop-color="#5C5C5C"/>
</linearGradient>
<clipPath id="clip0_4173_35227">
<rect width="230" height="160" fill="white"/>
</clipPath>
</defs>
</svg>
