<svg xmlns="http://www.w3.org/2000/svg" width="160" height="160" fill="none" viewBox="0 0 160 160">
  <g clip-path="url(#clip0_4173_35229)">
    <g filter="url(#filter0_d_4173_35229)">
      <path fill="#3A3A3A" fill-rule="evenodd" d="M79.3588 24.4419H79.5611c.6959 0 1.4248 0 2.1585.0271 3.8889.1342 7.6735.644 11.3261 1.5033C119.13 32.091 138.535 55.4904 138.535 83.4289c0 32.5801-26.408 58.9871-58.9874 58.9871-32.5797 0-58.9871-26.407-58.9871-58.9871 0-18.3183 8.3384-34.682 21.4456-45.4955a1.6754 1.6754 0 0 1 .1793-.1353c10.108-8.3095 23.0695-13.3027 37.1734-13.3562Zm-36.996 13.2545c.0032-.0016.0042-.0021.0017-.0008l-.0017.0008Z" clip-rule="evenodd"/>
    </g>
    <path fill="url(#paint0_linear_4173_35229)" d="M131.015 60.1779c-1.855.2873-2.638-.3135-3.71-2.6909-.522.4441-1.018.8621-1.672 1.4369-.365-.8099-.653-1.4891-.966-2.1684-.288-.6792-.601-.8099-1.254-.2874-.444.3658-1.28.7577-1.646.5487-.418-.209-.627-1.045-.679-1.6459-.079-.836 0-1.2017-1.228-1.2279-1.332-.0261-2.665-.9666-4.154-1.5675-.235 1.4892-.47 2.9522-.731 4.4413-.654.1567-1.307.2873-1.96.4702-2.064.5486-3.318.1568-4.572-1.6197-.836-1.1756-1.515-2.4819-2.455-4.0755 1.724-.4441 3.213-.9144 4.754-1.1756 1.411-.2351 4.128-2.3512 4.494-3.7359.026-.1306.052-.2612.052-.3657-.261-1.3846-.522-2.7431-.81-4.2845-.235 0-.731.0784-1.175-.0261-.836-.1567-1.568-.4441-1.934-1.3846-.156-.3919-.679-.8099-1.097-.9144-2.116-.4964-2.586-.9144-2.769-2.9782-.052-.7838-.026-1.5675 0-2.3512 0-.2352.026-.4442.026-.7838-4.885-2.8737-10.2409-5.0421-15.9361-6.3744-.4964 1.3584-1.3585 2.1161-2.926 2.3251-.836.1045-1.6459.9927-2.299 1.672-1.254 1.3584-2.3512 2.8214-3.5268 4.2844-1.7765-.7315-2.4296-2.1945-3.0566-3.7881-.7838-1.9855-.5487-3.8403.418-5.6429.0783-.1307.209-.2352.3657-.3397-.6531.0784-1.3585.0784-2.0639.0784h-.1828c.1045.0784.1828.1568.2351.2613.1567.2351.0522.8621-.1568 1.0711-1.0188.9144-2.1161 1.7242-3.1872 2.5863-1.4891-1.8026-2.5863-2.0899-4.9376-1.4107-.5225.1567-1.4107.2612-1.672-.0261-.9404-.9928-1.6197-.3658-2.3512.1306-.8882.6009-1.6981 1.2801-2.6386 1.8026-1.4107.7838-1.5414 3.4485-.8882 4.4674.1828.2873.836.5224 1.1756.418 1.4891-.3658 2.8215-1.0712 3.6313-2.4297.3397-.5747.6532-.5225 1.3063-.4702.7837.0522 1.7242-.2874 2.3773-.7576 1.4369-1.0711 1.6459-1.1495 2.8999.1045.2351.2351.4702.5486.7576.7315.9405.5225.9144 1.2017.418 2.0116-.3396.5486-.5747 1.1495-.9144 1.8548.5486.1307 1.0189.2352 1.5414.3397-.0784.6008-.1045 1.2017-.2613 1.7503-.5486 1.9594-1.9071 3.553-4.0754 1.7765-.7315-.6009-1.672-.418-2.1161.418-.6793 1.3324-1.9071 1.4369-3.0566 1.3846-2.6125-.1306-4.9899.627-7.2627 1.8026-.2613.1307-.6009.3658-.8099.3135-1.5936-.5225-2.5602.6793-3.7358 1.3063-1.1495.627-2.3252 1.2278-3.5269 1.7503-.7576.3397-1.2017.6793-1.254 1.672-.1306 1.7504-.5747 3.4746-.9144 5.3295-1.4368-.627-1.6981-1.8287-1.8548-2.8215-.3919-2.508-1.5675-2.926-3.3701-3.2656-3.3179-.627-7.6285 1.4107-9.0131 4.3629-.5486 1.1756-.5486 2.7169-.418 4.0493.1045 1.1756 1.5414 1.7765 2.8999 1.3324.8099-.2613 1.6458-.2874 1.8287.5486.1045.5486-.4441 1.254-.8098 1.8548-.1568.2613-.5487.3919-.8099.6009-.836.6793-.8883 1.3846 0 2.0116.627.4441.6792.8099.4964 1.5675-.7838 3.1872.7576 5.6691 3.9448 6.5051 1.2279.3135 2.09-.2613 2.8737-1.1756.5225-.627.9144-1.5414 1.9855-1.3585.2874.0522.6009.1045.836.2351 1.5152.7576 2.9782 1.6459 4.5196 2.3251 1.4107.627 2.7954 1.1234 3.762 2.4819.3918.5486 1.1756.8621 1.8287 1.0972 2.7954 1.0711 4.9115 2.926 6.4267 5.4601.9927 1.672 1.9071 3.3962 2.8215 5.1205.4702.8621 1.045 1.3846 2.0638 1.6197 2.1684.4702 4.2323 1.3585 5.8781 2.926 1.5936 1.5152 1.8026 3.0043.627 4.8853-.4702.7838-1.254 1.3585-1.7765 2.1161-.627.9405-1.3323 1.9071-1.6458 2.9782-.7577 2.4556-2.0639 4.5976-3.7359 6.4786-.7315.836-1.9855 1.463-3.0827 1.672-1.9071.34-2.9521 1.568-3.9187 2.979-.8099 1.201-1.7765 2.325-2.4035 3.605-.9927 1.985-2.926 2.821-4.5718 3.971-2.508 1.724-4.3106 4.023-5.1205 6.871-.3658 1.28.2874 2.847.4702 4.258.1307.993.3135 1.985.4703 3.057-2.9782-1.15-4.8592-3.292-6.27-5.826-.5486-.993-.6008-2.273-.8621-3.423-.1829-.836-.1829-1.724-.4964-2.481-.8621-2.064-.5486-4.154-.2351-6.218.1829-1.202.209-2.325.0784-3.579-.209-1.777.2874-3.632.4964-5.46.1045-.889.3135-1.777.3918-2.665.0784-.836-.2351-1.489-.6792-2.247-.4964-.888-.5486-2.1159-.4964-3.187.0523-.6793.1045-1.0189-.5225-1.463-2.3251-1.6198-4.4412-3.762-5.3556-6.27-1.1233-3.135-2.0638-6.6618.418-9.9013 1.1495-1.5152 2.2729-3.135 2.926-4.9114.8883-2.4035.3135-3.5008-1.4107-4.5196-1.0973-.627-1.8026-1.5675-1.9071-2.8476-.1045-1.3063-.7054-2.2468-1.672-3.0566-.5748-.4703-.9144-.9405-.5225-1.7765.3396-.7838.0261-1.3585-.8621-1.7765-1.7504-.8099-3.6314-1.6459-4.0494-3.762-.209-1.0189-.209-2.3251.2874-3.1872 2.3512-4.2061 5.3295-7.9942 8.7257-11.3904a62.7801 62.7801 0 0 1 3.344-3.1089C28.9978 50.0676 21.082 65.8208 21.082 83.4289c0 31.7151 25.7068 57.4221 57.4223 57.4221 12.54 0 24.1397-4.023 33.5707-10.842l.078-.679c.34-.81.653-1.62.993-2.429.653-1.437 1.28-2.9 1.985-4.285.653-1.254.471-2.534.079-3.71-.993-3.108.261-5.512 2.194-7.706.079-.079.157-.157.209-.262 1.019-1.149 2.142-2.22 2.142-3.866 0-1.306-.078-2.743-.574-3.919-.131-.313-.235-.627-.34-.94-.496-1.855-.131-3.5794.679-5.3037.026-.0783.079-.1567.105-.2351.522-1.2278.679-2.4818.522-3.7358a5.0077 5.0077 0 0 0-.156-.8621c-.079-.2874-.549-.7577-.575-.7577-1.515.9667-2.56-.6008-3.867-.6792-1.724-.1045-3.474-.3919-5.146-.1568-1.777.2613-3.396-.0783-4.703-1.0449-2.403-1.7765-4.65-3.8143-6.8967-5.7998-.418-.3657-.627-1.1233-.7054-1.6981-.2612-2.7431.4442-5.3555 1.1495-7.968.4442-1.6198.7054-3.1611.4703-4.9115-.209-1.7242 1.1493-2.9782 2.4823-3.971.496-.3657 1.175-.5225 1.724-.836.575-.3396 1.306-.627 1.646-1.1495 2.063-3.1349 5.277-3.5529 8.542-3.5007 2.561.0523 5.199.1829 7.629.8621 1.724.4703 3.265 1.7765 4.728 2.8999 1.254.9405 2.456 1.6459 4.102 1.463.758-.0784 1.541.1045 2.299.209-.522-1.672-1.149-3.2917-1.855-4.8592ZM44.2809 58.323c.3657-1.4891 1.6981-2.1684 2.6647-1.4369 1.254.9405 2.6125 1.3324 4.1538 1.3847.3658.0261.7054.2612 1.0711.418-.0522.1828-.0783.3396-.1306.5225-2.5863-.3135-5.1466-.6009-7.759-.8883Zm10.9724 4.6763c-1.6459-.1567-3.1873-.3134-4.8592-.4702 1.6458-1.2801 3.2656-2.0639 5.1727-.2874a38.3733 38.3733 0 0 1-.3135.7576ZM92.246 33.9224c-.209.5225-.4703 1.3847-.836 1.463-.6531.1306-1.4107-.1567-2.0639-.4441-.6531-.2612-1.2017-.7315-1.8026-1.1234.0523-.1567.1307-.3396.1829-.4963 1.0972-.418 2.1945-.9144 3.3178-1.2018.418-.1045 1.0712.209 1.4369.5486.1568.209-.0784.8622-.2351 1.254Zm12.044 9.7446c-.236-.4441-.418-.8621-.654-1.3063 1.072-.4702 1.542-1.2017 1.228-2.3773-.026-.1045.836-.6009.915-.5225 1.619 1.5152 3.709 2.508 4.545 4.8853.418 1.1757-.13 1.5414-.731 2.0116-1.306.9928-2.769.4442-3.109-1.1233-.157-.6531-.235-1.3324-.366-2.1945-.679.209-1.228.3919-1.828.627Z"/>
    <path fill="#5C5C5C" fill-rule="evenodd" d="M79.3588 24.4419H79.5611c.6959 0 1.4248 0 2.1585.0271 3.8889.1342 7.6735.644 11.3261 1.5033C119.13 32.091 138.535 55.4904 138.535 83.4289c0 32.5801-26.408 58.9871-58.9874 58.9871-32.5797 0-58.9871-26.407-58.9871-58.9871 0-18.3183 8.3384-34.682 21.4456-45.4955a1.6754 1.6754 0 0 1 .1793-.1353c10.108-8.3095 23.0695-13.3027 37.1734-13.3562Zm-36.996 13.2545a.0401.0401 0 0 1 0 0Zm37.1848-10.1251h-.1799c-13.3836.0515-25.6706 4.7957-35.2454 12.6856a1.674 1.674 0 0 1-.1782.1346C31.5589 50.6352 23.6899 66.1072 23.6899 83.4289c0 30.8511 25.0063 55.8581 55.8577 55.8581s55.8574-25.007 55.8574-55.8581c0-26.4533-18.372-48.6156-43.074-54.4099l-.001-.0002c-3.4524-.8123-7.034-1.2952-10.7202-1.4223l-.004-.0002c-.6716-.0248-1.348-.025-2.0582-.025Z" clip-rule="evenodd"/>
    <path fill="#D1D1D1" d="M106.794 17.4159c5.608 0 10.143 4.6304 10.143 10.3559 0 4.5678-6.435 13.6097-9.07 17.1138a1.3627 1.3627 0 0 1-2.207 0c-2.635-3.5041-9.0697-12.546-9.0697-17.1138.0613-5.7255 4.5967-10.3559 10.2037-10.3559Z"/>
    <path fill="#3A3A3A" d="M106.538 31.8845c2.247 0 4.069-1.8219 4.069-4.0693s-1.822-4.0693-4.069-4.0693c-2.248 0-4.07 1.8219-4.07 4.0693s1.822 4.0693 4.07 4.0693Z"/>
    <path fill="#D1D1D1" d="M55.9436 26.9109c8.4736 0 15.3266 6.7216 15.3266 15.0327 0 6.6308-9.7238 19.7561-13.7059 24.8427-.8335 1.09-2.5004 1.09-3.3339 0-3.9822-5.0866-13.706-18.2119-13.706-24.8427.0926-8.3111 6.9456-15.0327 15.4192-15.0327Z"/>
    <path fill="#3A3A3A" d="M55.8974 48.1617c3.2463 0 5.8779-2.7328 5.8779-6.1039 0-3.3712-2.6316-6.104-5.8779-6.104s-5.8779 2.7328-5.8779 6.104c0 3.3711 2.6316 6.1039 5.8779 6.1039Z"/>
  </g>
  <defs>
    <linearGradient id="paint0_linear_4173_35229" x1="76.9396" x2="76.9396" y1="23.27" y2="142.09" gradientUnits="userSpaceOnUse">
      <stop stop-color="#6C6C6C"/>
      <stop offset=".9964" stop-color="#464646"/>
    </linearGradient>
    <clipPath id="clip0_4173_35229">
      <path fill="#fff" d="M0 0h160v160H0z"/>
    </clipPath>
    <filter id="filter0_d_4173_35229" width="149.974" height="149.974" x="4.5606" y="19.9164" color-interpolation-filters="sRGB" filterUnits="userSpaceOnUse">
      <feFlood flood-opacity="0" result="BackgroundImageFix"/>
      <feColorMatrix in="SourceAlpha" result="hardAlpha" values="0 0 0 0 0 0 0 0 0 0 0 0 0 0 0 0 0 0 127 0"/>
      <feOffset dy="11.4745"/>
      <feGaussianBlur stdDeviation="8"/>
      <feColorMatrix values="0 0 0 0 0 0 0 0 0 0 0 0 0 0 0 0 0 0 0.16 0"/>
      <feBlend in2="BackgroundImageFix" result="effect1_dropShadow_4173_35229"/>
      <feBlend in="SourceGraphic" in2="effect1_dropShadow_4173_35229" result="shape"/>
    </filter>
  </defs>
</svg>