<svg xmlns="http://www.w3.org/2000/svg" width="231" height="160" fill="none" viewBox="0 0 231 160">
  <path fill="#F0F0F0" d="M115.148 144.8c31.423 0 56.897-25.474 56.897-57.0092 0-31.5347-25.474-57.0093-56.897-57.0093-31.4221 0-56.8968 25.4746-56.8968 57.0093 0 31.5352 25.4747 57.0092 56.8968 57.0092Z"/>
  <path fill="#EDE5DA" d="M178.554 69.9473c2.541 0 4.601-2.06 4.601-4.6012 0-2.5411-2.06-4.6011-4.601-4.6011s-4.601 2.06-4.601 4.6011c0 2.5412 2.06 4.6012 4.601 4.6012ZM185.288 51.8793c1.735 0 3.142-1.4068 3.142-3.1422 0-1.7354-1.407-3.1423-3.142-3.1423-1.736 0-3.142 1.4069-3.142 3.1423s1.406 3.1422 3.142 3.1422ZM54.3234 73.2017c1.7354 0 3.1422-1.4068 3.1422-3.1422 0-1.7354-1.4068-3.1423-3.1422-3.1423-1.7354 0-3.1422 1.4069-3.1422 3.1423s1.4068 3.1422 3.1422 3.1422Z"/>
  <g filter="url(#filter0_d_3836_626)">
    <path fill="url(#paint0_linear_3836_626)" d="m170.952 124.281-25.335-9.676a4.5041 4.5041 0 0 0-3.279.027l-26.357 10.557c-1.037.415-2.192.43-3.239.041l-28.9283-10.744a4.4987 4.4987 0 0 0-3.1735.015l-23.0171 8.798c-2.2141.818-4.5102-1.226-3.8542-3.516l15.3347-52.9067c.492-1.7172 1.722-3.1892 3.3621-3.9251l22.2102-10.4094a4.4999 4.4999 0 0 1 4.5352.4199l12.6899 9.1157c1.491 1.0715 3.484 1.1291 5.035.1456l12.303-7.8016a4.4998 4.4998 0 0 1 4.217-.3208l25.031 10.9767c1.804.8177 3.116 2.3714 3.526 4.2522l12.793 51.5985c.574 2.208-1.64 4.17-3.854 3.353Z"/>
  </g>
  <path fill="url(#paint1_linear_3836_626)" d="M97.0667 51.5029 82.2241 113.895l-24.601 9.404c-2.2141.818-4.5102-1.226-3.8542-3.516l15.3347-52.9068c.492-1.7173 1.722-3.1892 3.3621-3.9251l24.601-11.4482Z" opacity=".2"/>
  <path fill="#fff" d="m170.788 124.608-26.98-10.304-12.71-60.7566 27.225 11.9388c1.804.8177 3.116 2.3714 3.526 4.2521l12.793 51.5987c.574 2.208-1.64 4.17-3.854 3.271Z"/>
  <path fill="url(#paint2_linear_3836_626)" d="m144.055 113.977-29.686 11.857V63.8508l16.893-10.7123 12.793 60.8385Z" opacity=".2"/>
  <path fill="#BCB9B3" d="M87.8824 99.7489h-.328c-.328-.0817-.574-.0817-.902-.1635-.9021-.2453-1.3941-1.0631-1.2301-1.9626.164-.8995 1.0661-1.3901 1.9681-1.2265.246.0817.492.0817.738.1635.9021.1636 1.4761.9813 1.3121 1.8808-.082.8177-.738 1.3083-1.5581 1.3083Zm5.7403-.1635c-.7381 0-1.3941-.4906-1.5581-1.2266-.246-.8995.328-1.799 1.2301-1.9625.246-.0818.492-.1636.738-.1636.902-.2453 1.8041.2453 2.0501 1.0631.246.8995-.246 1.799-1.0661 2.0443-.328.0817-.574.1635-.902.2453h-.492Zm-11.7265-2.2896c-.328 0-.656-.0818-.902-.2454l-.7381-.4906c-.738-.4906-.902-1.5537-.41-2.2896.492-.736 1.5581-.8995 2.2961-.4089.246.1636.41.3271.656.4089.7381.4906.9841 1.4719.492 2.2896-.328.4906-.82.736-1.394.736Zm17.6307-.4089c-.492 0-1.066-.2453-1.394-.736-.4921-.7359-.3281-1.799.492-2.2896.246-.1635.41-.2453.656-.4089.7381-.4906 1.8041-.327 2.2961.4089.492.736.328 1.799-.41 2.2896l-.738.4907c-.246.0818-.5741.2453-.9021.2453Zm41.3301-1.9625c-.82 0-1.558-.6542-1.64-1.5537-.082-.8995.656-1.7172 1.558-1.7172.164 0 .41 0 .656-.0818.902-.1636 1.722.4088 1.886 1.3083.164.8995-.41 1.7173-1.312 1.8808-.328.0818-.656.0818-.984.1636h-.164Zm-63.963-1.8808c-.41 0-.902-.1636-1.1481-.4906-.164-.1636-.41-.4089-.574-.6542-.656-.6542-.574-1.7172.082-2.2897.656-.5724 1.7221-.5724 2.2961.0818.164.1636.328.4089.574.5724.6561.6542.5741 1.7172-.082 2.2897-.328.327-.738.4906-1.148.4906Zm58.714 0c-.328 0-.738-.0818-.984-.3271-.246-.1636-.492-.3271-.656-.5724-.656-.5724-.738-1.6355-.164-2.2896.574-.6542 1.64-.736 2.296-.1636.164.1636.41.3271.574.4906.738.5725.82 1.5537.246 2.2897-.328.3271-.82.5724-1.312.5724Zm-30.915-.2453c-.492 0-.902-.1636-1.23-.5724-.574-.6542-.492-1.7173.164-2.2897.246-.1635.41-.3271.574-.4906.656-.5724 1.722-.4906 2.296.1635.574.6542.492 1.7173-.164 2.2897-.246.1635-.41.3271-.656.5724-.246.2453-.574.3271-.984.3271Zm42.232-.2453c-.574 0-1.066-.2454-1.394-.736-.492-.736-.246-1.799.492-2.2896.246-.1636.41-.2454.656-.4089.738-.4906 1.804-.3271 2.296.4089.492.7359.328 1.799-.41 2.2896l-.738.4906c-.328.1636-.656.2454-.902.2454Zm-16.073-4.0069c-.41 0-.82-.1635-1.148-.4906-.164-.1636-.41-.3271-.574-.5724-.656-.5725-.738-1.6355-.082-2.2897.574-.6542 1.64-.7359 2.296-.0817.246.1635.41.4088.656.5724.656.6541.656 1.6354.082 2.2896-.41.4089-.82.5724-1.23.5724Zm21.239 0c-.492 0-.902-.1635-1.23-.5724-.574-.6542-.492-1.7172.164-2.2896.164-.1636.41-.3271.574-.4907.656-.5724 1.722-.4906 2.296.1636.574.6541.492 1.7172-.164 2.2896-.246.1635-.41.3271-.656.5724-.164.2453-.574.3271-.984.3271Zm-42.642-.1635c-.41 0-.82-.1636-1.148-.4907-.656-.6542-.656-1.6354 0-2.2896l.574-.5724c.656-.6542 1.64-.6542 2.296-.0818.656.6542.656 1.6355.082 2.2896l-.574.5724c-.328.4089-.738.5725-1.23.5725Zm-36.7372-.3271c-.492 0-.984-.2454-1.312-.6542-.164-.2453-.3281-.4089-.4921-.6542-.574-.7359-.41-1.7172.3281-2.2896.738-.5724 1.722-.4089 2.2961.3271l.492.6541c.574.736.41 1.7173-.328 2.2897-.3281.1635-.6561.3271-.9841.3271Zm53.1382-3.6798c-.328 0-.656-.0818-.984-.3271-.246-.1635-.41-.3271-.656-.4906-.738-.4907-.902-1.5537-.328-2.2897.492-.7359 1.558-.8995 2.296-.3271.246.1636.41.3271.656.4907.738.5724.902 1.5537.328 2.2896-.328.4089-.82.6542-1.312.6542Zm31.161-.1636c-.41 0-.902-.1635-1.23-.4906-.656-.6542-.574-1.7172.082-2.2896l.574-.5724c.656-.6542 1.722-.5724 2.296.0817.656.6542.574 1.7173-.082 2.2897l-.574.5724c-.246.2453-.656.4088-1.066.4088Zm-43.052-.6541c-.41 0-.82-.1636-1.148-.4089-.656-.6542-.738-1.6354-.082-2.2896.164-.2453.41-.4089.574-.6542.656-.6542 1.641-.6542 2.297 0 .656.6542.656 1.6354 0 2.2896-.164.1636-.328.4089-.574.5724-.246.3271-.656.4907-1.067.4907Zm-45.0193-.8995c-.5741 0-1.0661-.2453-1.3941-.736l-.492-.6542c-.492-.7359-.246-1.799.492-2.2896.738-.4906 1.8041-.2453 2.2961.4906l.41.6542c.492.736.328 1.799-.492 2.2897-.164.1635-.492.2453-.82.2453Zm51.3343-1.7173c-.164 0-.41 0-.574-.0817-.246-.0818-.41-.0818-.574-.1636-.902-.1635-1.476-1.063-1.23-1.9625s1.066-1.4719 1.968-1.2266c.328.0818.656.1636.984.3271.82.3271 1.312 1.2266.984 2.1261-.328.5724-.902.9812-1.558.9812Z"/>
  <path fill="url(#paint3_linear_3836_626)" d="M114.369 8c15.007 0 27.143 12.1023 27.143 27.0667 0 11.9388-17.22 35.5711-24.273 44.7296-1.476 1.9625-4.428 1.9625-5.904 0-7.052-9.1585-24.2727-32.7908-24.2727-44.7296C87.2263 20.1023 99.3628 8 114.369 8Z"/>
  <g filter="url(#filter1_d_3836_626)">
    <path fill="url(#paint4_linear_3836_626)" d="M114.369 45.697c5.933 0 10.743-4.796 10.743-10.7122 0-5.9162-4.81-10.7122-10.743-10.7122-5.932 0-10.742 4.796-10.742 10.7122 0 5.9162 4.81 10.7122 10.742 10.7122Z"/>
  </g>
  <defs>
    <linearGradient id="paint0_linear_3836_626" x1="114.237" x2="114.237" y1="49.7" y2="126.637" gradientUnits="userSpaceOnUse">
      <stop stop-color="#FDFEFF"/>
      <stop offset=".9964" stop-color="#F5F2EC"/>
    </linearGradient>
    <linearGradient id="paint1_linear_3836_626" x1="77.0837" x2="78.4495" y1="111.15" y2="62.923" gradientUnits="userSpaceOnUse">
      <stop offset=".0029" stop-color="#938065"/>
      <stop offset="1" stop-color="#938065"/>
    </linearGradient>
    <linearGradient id="paint2_linear_3836_626" x1="130.39" x2="132.425" y1="113.379" y2="64.7182" gradientUnits="userSpaceOnUse">
      <stop offset=".0029" stop-color="#938065"/>
      <stop offset="1" stop-color="#938065"/>
    </linearGradient>
    <linearGradient id="paint3_linear_3836_626" x1="114.27" x2="114.27" y1="6.3052" y2="82.0581" gradientUnits="userSpaceOnUse">
      <stop stop-color="#D0C4B4"/>
      <stop offset=".9964" stop-color="#D7CDC1"/>
      <stop offset=".9965" stop-color="#B4A99A"/>
    </linearGradient>
    <linearGradient id="paint4_linear_3836_626" x1="114.362" x2="114.362" y1="23.777" y2="45.928" gradientUnits="userSpaceOnUse">
      <stop stop-color="#FDFEFF"/>
      <stop offset=".9964" stop-color="#F5F2EC"/>
    </linearGradient>
    <filter id="filter0_d_3836_626" width="160.843" height="112.995" x="33.855" y="38.6165" color-interpolation-filters="sRGB" filterUnits="userSpaceOnUse">
      <feFlood flood-opacity="0" result="BackgroundImageFix"/>
      <feColorMatrix in="SourceAlpha" result="hardAlpha" values="0 0 0 0 0 0 0 0 0 0 0 0 0 0 0 0 0 0 127 0"/>
      <feOffset dy="6.3"/>
      <feGaussianBlur stdDeviation="9.9"/>
      <feColorMatrix values="0 0 0 0 0.576471 0 0 0 0 0.501961 0 0 0 0 0.396078 0 0 0 0.37 0"/>
      <feBlend in2="BackgroundImageFix" result="effect1_dropShadow_3836_626"/>
      <feBlend in="SourceGraphic" in2="effect1_dropShadow_3836_626" result="shape"/>
    </filter>
    <filter id="filter1_d_3836_626" width="61.0849" height="61.0244" x="83.827" y="10.7726" color-interpolation-filters="sRGB" filterUnits="userSpaceOnUse">
      <feFlood flood-opacity="0" result="BackgroundImageFix"/>
      <feColorMatrix in="SourceAlpha" result="hardAlpha" values="0 0 0 0 0 0 0 0 0 0 0 0 0 0 0 0 0 0 127 0"/>
      <feOffset dy="6.3"/>
      <feGaussianBlur stdDeviation="9.9"/>
      <feColorMatrix values="0 0 0 0 0.576471 0 0 0 0 0.501961 0 0 0 0 0.396078 0 0 0 0.37 0"/>
      <feBlend in2="BackgroundImageFix" result="effect1_dropShadow_3836_626"/>
      <feBlend in="SourceGraphic" in2="effect1_dropShadow_3836_626" result="shape"/>
    </filter>
  </defs>
</svg>
