<svg width="231" height="160" viewBox="0 0 231 160" fill="none" xmlns="http://www.w3.org/2000/svg">
<path d="M115 145.339C145.375 145.339 170 120.762 170 90.339C170 59.9158 145.375 35.339 115 35.339C84.6252 35.339 60 59.9158 60 90.339C60 120.762 84.6252 145.339 115 145.339Z" fill="#EBEBEB"/>
<path d="M178.236 75.909C180.748 75.909 182.785 73.8722 182.785 71.3598C182.785 68.8473 180.748 66.8105 178.236 66.8105C175.723 66.8105 173.686 68.8473 173.686 71.3598C173.686 73.8722 175.723 75.909 178.236 75.909Z" fill="#EDE5DA"/>
<path d="M184.893 58.045C186.609 58.045 188 56.654 188 54.9382C188 53.2224 186.609 51.8314 184.893 51.8314C183.177 51.8314 181.786 53.2224 181.786 54.9382C181.786 56.654 183.177 58.045 184.893 58.045Z" fill="#EDE5DA"/>
<path d="M55.4066 79.1268C57.1224 79.1268 58.5134 77.7358 58.5134 76.02C58.5134 74.3042 57.1224 72.9132 55.4066 72.9132C53.6908 72.9132 52.2998 74.3042 52.2998 76.02C52.2998 77.7358 53.6908 79.1268 55.4066 79.1268Z" fill="#EDE5DA"/>
<path d="M114.5 89.339C130.792 89.339 144 73.8928 144 54.839C144 35.7852 130.792 20.339 114.5 20.339C98.2076 20.339 85 35.7852 85 54.839C85 73.8928 98.2076 89.339 114.5 89.339Z" fill="url(#paint0_radial_4731_538)"/>
<g filter="url(#filter0_d_4731_538)">
<path d="M170.719 129.629L145.689 120.07C144.631 119.667 143.461 119.676 142.41 120.097L116.387 130.52C115.35 130.935 114.195 130.95 113.147 130.561L84.5821 119.952C83.5576 119.571 82.4295 119.577 81.4086 119.967L58.6691 128.659C56.48 129.468 54.2098 127.446 54.8585 125.183L70.0201 72.8728C70.5065 71.1749 71.7227 69.7196 73.3443 68.992L95.2769 58.7127C96.7531 58.0208 98.488 58.1814 99.812 59.1326L112.307 68.1081C113.798 69.1795 115.791 69.2371 117.342 68.2536L129.454 60.573C130.719 59.7709 132.3 59.6507 133.671 60.2521L158.395 71.0941C160.179 71.9026 161.476 73.4387 161.881 75.2983L174.53 126.315C175.097 128.497 172.908 130.438 170.719 129.629Z" fill="url(#paint1_linear_4731_538)"/>
</g>
<path opacity="0.2" d="M97.6677 57.6731L82.9925 119.362L58.6691 128.659C56.48 129.468 54.2098 127.447 54.8585 125.183L70.0201 72.8729C70.5065 71.175 71.7227 69.7197 73.3443 68.9921L97.6677 57.6731Z" fill="url(#paint2_linear_4731_538)"/>
<path d="M170.557 129.953L143.882 119.766L131.315 59.6942L158.233 71.4983C160.017 72.3068 161.314 73.8429 161.719 75.7025L174.368 126.719C174.935 128.902 172.746 130.842 170.557 129.953Z" fill="white"/>
<path opacity="0.2" d="M144.126 119.442L114.776 131.165V69.8812L131.478 59.2899L144.126 119.442Z" fill="url(#paint3_linear_4731_538)"/>
<path d="M88.5871 105.374C88.5061 105.374 88.425 105.374 88.2628 105.374C87.9385 105.293 87.6953 105.293 87.371 105.213C86.4791 104.97 85.9926 104.162 86.1548 103.272C86.317 102.383 87.2088 101.898 88.1007 102.059C88.3439 102.14 88.5871 102.14 88.8304 102.221C89.7222 102.383 90.2898 103.191 90.1276 104.081C90.0465 104.889 89.3979 105.374 88.5871 105.374ZM94.2626 105.213C93.5329 105.213 92.8843 104.727 92.7221 104C92.4789 103.11 93.0464 102.221 93.9383 102.059C94.1815 101.979 94.4248 101.898 94.668 101.898C95.5599 101.655 96.4517 102.14 96.6949 102.949C96.9382 103.838 96.4517 104.727 95.6409 104.97C95.3166 105.051 95.0734 105.132 94.7491 105.213C94.5058 105.213 94.3437 105.213 94.2626 105.213ZM82.6684 102.949C82.3441 102.949 82.0198 102.868 81.7766 102.706C81.5334 102.545 81.2901 102.383 81.0469 102.221C80.3172 101.736 80.155 100.685 80.6415 99.9573C81.128 99.2297 82.182 99.068 82.9117 99.5531C83.1549 99.7148 83.3171 99.8765 83.5603 99.9573C84.29 100.442 84.5332 101.413 84.0468 102.221C83.7225 102.706 83.236 102.949 82.6684 102.949ZM100.1 102.545C99.6138 102.545 99.0462 102.302 98.7219 101.817C98.2354 101.089 98.3976 100.038 99.2084 99.5531C99.4516 99.3914 99.6138 99.3105 99.857 99.1488C100.587 98.6637 101.641 98.8254 102.127 99.5531C102.614 100.281 102.451 101.332 101.722 101.817C101.479 101.979 101.235 102.14 100.992 102.302C100.749 102.383 100.425 102.545 100.1 102.545ZM140.964 100.604C140.153 100.604 139.423 99.9573 139.342 99.068C139.261 98.1786 139.991 97.3701 140.882 97.3701C141.045 97.3701 141.288 97.3701 141.531 97.2893C142.423 97.1276 143.234 97.6935 143.396 98.5829C143.558 99.4722 142.99 100.281 142.099 100.442C141.774 100.523 141.45 100.523 141.126 100.604C141.045 100.604 141.045 100.604 140.964 100.604ZM77.7227 98.7446C77.3173 98.7446 76.8308 98.5829 76.5876 98.2595C76.4254 98.0978 76.1822 97.8552 76.02 97.6127C75.3714 96.9659 75.4525 95.9148 76.1011 95.3489C76.7498 94.7829 77.8038 94.7829 78.3713 95.4297C78.5335 95.5914 78.6956 95.834 78.9389 95.9957C79.5875 96.6425 79.5064 97.6935 78.8578 98.2595C78.5335 98.5829 78.1281 98.7446 77.7227 98.7446ZM135.775 98.7446C135.45 98.7446 135.045 98.6637 134.802 98.4212C134.558 98.2595 134.315 98.0978 134.153 97.8552C133.504 97.2893 133.423 96.2382 133.991 95.5914C134.558 94.9446 135.612 94.8638 136.261 95.4297C136.423 95.5914 136.666 95.7531 136.829 95.9148C137.558 96.4808 137.639 97.451 137.072 98.1786C136.747 98.502 136.261 98.7446 135.775 98.7446ZM105.208 98.502C104.722 98.502 104.316 98.3403 103.992 97.9361C103.424 97.2893 103.506 96.2382 104.154 95.6723C104.397 95.5106 104.56 95.3489 104.722 95.1872C105.37 94.6212 106.424 94.7021 106.992 95.3489C107.559 95.9957 107.478 97.0467 106.83 97.6127C106.586 97.7744 106.424 97.9361 106.181 98.1786C105.938 98.4212 105.614 98.502 105.208 98.502ZM146.963 98.2595C146.396 98.2595 145.909 98.0169 145.585 97.5318C145.099 96.8042 145.342 95.7531 146.071 95.268C146.315 95.1063 146.477 95.0255 146.72 94.8638C147.45 94.3787 148.504 94.5404 148.99 95.268C149.477 95.9957 149.315 97.0467 148.585 97.5318C148.342 97.6935 148.098 97.8552 147.855 98.0169C147.531 98.1786 147.207 98.2595 146.963 98.2595ZM131.072 94.2978C130.667 94.2978 130.261 94.1361 129.937 93.8127C129.775 93.651 129.532 93.4893 129.369 93.2468C128.721 92.6808 128.64 91.6298 129.288 90.983C129.856 90.3362 130.91 90.2554 131.558 90.9021C131.802 91.0638 131.964 91.3064 132.207 91.4681C132.856 92.1149 132.856 93.0851 132.288 93.7319C131.883 94.1361 131.477 94.2978 131.072 94.2978ZM152.071 94.2978C151.585 94.2978 151.179 94.1361 150.855 93.7319C150.288 93.0851 150.369 92.034 151.017 91.4681C151.179 91.3064 151.423 91.1447 151.585 90.983C152.233 90.417 153.287 90.4979 153.855 91.1447C154.422 91.7915 154.341 92.8425 153.693 93.4085C153.45 93.5702 153.287 93.7319 153.044 93.9744C152.882 94.217 152.477 94.2978 152.071 94.2978ZM109.911 94.1361C109.505 94.1361 109.1 93.9744 108.776 93.651C108.127 93.0042 108.127 92.034 108.776 91.3872L109.343 90.8213C109.992 90.1745 110.965 90.1745 111.613 90.7404C112.262 91.3872 112.262 92.3574 111.694 93.0042L111.127 93.5702C110.803 93.9744 110.397 94.1361 109.911 94.1361ZM73.5877 93.8127C73.1012 93.8127 72.6148 93.5702 72.2905 93.1659C72.1283 92.9234 71.9661 92.7617 71.804 92.5191C71.2364 91.7915 71.3986 90.8213 72.1283 90.2553C72.858 89.6894 73.8309 89.8511 74.3985 90.5787L74.885 91.2255C75.4525 91.9532 75.2903 92.9234 74.5606 93.4893C74.2363 93.651 73.912 93.8127 73.5877 93.8127ZM126.126 90.1745C125.802 90.1745 125.478 90.0936 125.153 89.8511C124.91 89.6894 124.748 89.5277 124.505 89.366C123.775 88.8809 123.613 87.8299 124.18 87.1022C124.667 86.3746 125.721 86.2129 126.451 86.7788C126.694 86.9405 126.856 87.1022 127.099 87.2639C127.829 87.8299 127.991 88.8001 127.424 89.5277C127.099 89.9319 126.613 90.1745 126.126 90.1745ZM156.936 90.0128C156.531 90.0128 156.044 89.8511 155.72 89.5277C155.071 88.8809 155.152 87.8299 155.801 87.2639L156.368 86.698C157.017 86.0512 158.071 86.132 158.639 86.7788C159.287 87.4256 159.206 88.4767 158.557 89.0426L157.99 89.6085C157.747 89.8511 157.341 90.0128 156.936 90.0128ZM114.37 89.366C113.965 89.366 113.559 89.2043 113.235 88.9618C112.586 88.315 112.505 87.3448 113.154 86.698C113.316 86.4554 113.559 86.2937 113.721 86.0512C114.37 85.4044 115.343 85.4044 115.992 86.0512C116.64 86.698 116.64 87.6682 115.992 88.315C115.829 88.4767 115.667 88.7192 115.424 88.8809C115.181 89.2043 114.775 89.366 114.37 89.366ZM69.8581 88.4767C69.2906 88.4767 68.8041 88.2341 68.4798 87.749L67.9933 87.1022C67.5069 86.3746 67.7501 85.3235 68.4798 84.8384C69.2095 84.3533 70.2635 84.5959 70.75 85.3235L71.1554 85.9703C71.6418 86.698 71.4797 87.749 70.6689 88.2341C70.5067 88.3958 70.1824 88.4767 69.8581 88.4767ZM120.613 86.7788C120.451 86.7788 120.208 86.7788 120.045 86.698C119.802 86.6171 119.64 86.6171 119.478 86.5363C118.586 86.3746 118.018 85.4852 118.262 84.5959C118.505 83.7065 119.316 83.1406 120.208 83.3831C120.532 83.464 120.856 83.5448 121.181 83.7065C121.991 84.0299 122.478 84.9193 122.153 85.8086C121.829 86.3746 121.262 86.7788 120.613 86.7788Z" fill="#BCB9B3"/>
<path d="M114.775 14.6609C129.613 14.6609 141.612 26.6267 141.612 41.4222C141.612 53.2263 124.586 76.5919 117.613 85.647C116.154 87.5874 113.235 87.5874 111.775 85.647C104.803 76.5919 87.7764 53.2263 87.7764 41.4222C87.9385 26.6267 99.9381 14.6609 114.775 14.6609Z" fill="url(#paint4_linear_4731_538)"/>
<path d="M115 55.339C122.732 55.339 129 49.071 129 41.339C129 33.607 122.732 27.339 115 27.339C107.268 27.339 101 33.607 101 41.339C101 49.071 107.268 55.339 115 55.339Z" fill="url(#paint5_radial_4731_538)"/>
<path d="M114.775 51.9326C120.641 51.9326 125.396 47.1908 125.396 41.3413C125.396 35.4919 120.641 30.75 114.775 30.75C108.909 30.75 104.154 35.4919 104.154 41.3413C104.154 47.1908 108.909 51.9326 114.775 51.9326Z" fill="url(#paint6_linear_4731_538)"/>
<defs>
<filter id="filter0_d_4731_538" x="34.9459" y="44.7874" width="159.475" height="112.155" filterUnits="userSpaceOnUse" color-interpolation-filters="sRGB">
<feFlood flood-opacity="0" result="BackgroundImageFix"/>
<feColorMatrix in="SourceAlpha" type="matrix" values="0 0 0 0 0 0 0 0 0 0 0 0 0 0 0 0 0 0 127 0" result="hardAlpha"/>
<feOffset dy="6.3"/>
<feGaussianBlur stdDeviation="9.9"/>
<feColorMatrix type="matrix" values="0 0 0 0 0.576471 0 0 0 0 0.501961 0 0 0 0 0.396078 0 0 0 0.37 0"/>
<feBlend mode="normal" in2="BackgroundImageFix" result="effect1_dropShadow_4731_538"/>
<feBlend mode="normal" in="SourceGraphic" in2="effect1_dropShadow_4731_538" result="shape"/>
</filter>
<radialGradient id="paint0_radial_4731_538" cx="0" cy="0" r="1" gradientUnits="userSpaceOnUse" gradientTransform="translate(114.5 54.839) rotate(90) scale(34.5 29.5)">
<stop stop-color="#938065" stop-opacity="0.57"/>
<stop offset="0.92" stop-color="#938065" stop-opacity="0"/>
</radialGradient>
<linearGradient id="paint1_linear_4731_538" x1="114.644" y1="55.8903" x2="114.644" y2="131.959" gradientUnits="userSpaceOnUse">
<stop stop-color="#FDFEFF"/>
<stop offset="0.9964" stop-color="#F5F2EC"/>
</linearGradient>
<linearGradient id="paint2_linear_4731_538" x1="77.9102" y1="116.647" x2="79.2605" y2="68.9643" gradientUnits="userSpaceOnUse">
<stop offset="0.00289017" stop-color="#938065"/>
<stop offset="1" stop-color="#938065"/>
</linearGradient>
<linearGradient id="paint3_linear_4731_538" x1="130.616" y1="118.851" x2="132.628" y2="70.7389" gradientUnits="userSpaceOnUse">
<stop offset="0.00289017" stop-color="#938065"/>
<stop offset="1" stop-color="#938065"/>
</linearGradient>
<linearGradient id="paint4_linear_4731_538" x1="114.677" y1="12.9852" x2="114.677" y2="87.8833" gradientUnits="userSpaceOnUse">
<stop stop-color="#D0C4B4"/>
<stop offset="0.9964" stop-color="#D7CDC1"/>
<stop offset="0.9965" stop-color="#B4A99A"/>
</linearGradient>
<radialGradient id="paint5_radial_4731_538" cx="0" cy="0" r="1" gradientUnits="userSpaceOnUse" gradientTransform="translate(115 41.339) rotate(90) scale(14)">
<stop stop-color="#938065" stop-opacity="0.57"/>
<stop offset="0.92" stop-color="#938065" stop-opacity="0"/>
</radialGradient>
<linearGradient id="paint6_linear_4731_538" x1="114.768" y1="30.26" x2="114.768" y2="52.161" gradientUnits="userSpaceOnUse">
<stop stop-color="#FDFEFF"/>
<stop offset="0.9964" stop-color="#F5F2EC"/>
</linearGradient>
</defs>
</svg>
