<svg width="230" height="160" viewBox="0 0 230 160" fill="none" xmlns="http://www.w3.org/2000/svg">
<path d="M114.845 145.338C145.22 145.338 169.845 120.761 169.845 90.3379C169.845 59.9147 145.22 35.3379 114.845 35.3379C84.4707 35.3379 59.8455 59.9147 59.8455 90.3379C59.8455 120.761 84.4707 145.338 114.845 145.338Z" fill="#242424"/>
<path d="M178.081 75.908C180.593 75.908 182.63 73.8713 182.63 71.3588C182.63 68.8463 180.593 66.8096 178.081 66.8096C175.568 66.8096 173.532 68.8463 173.532 71.3588C173.532 73.8713 175.568 75.908 178.081 75.908Z" fill="#5C5C5C"/>
<path d="M184.738 58.0439C186.454 58.0439 187.845 56.6529 187.845 54.9371C187.845 53.2213 186.454 51.8303 184.738 51.8303C183.023 51.8303 181.632 53.2213 181.632 54.9371C181.632 56.6529 183.023 58.0439 184.738 58.0439Z" fill="#5C5C5C"/>
<path d="M55.2521 79.1257C56.9679 79.1257 58.3588 77.7347 58.3588 76.0189C58.3588 74.3031 56.9679 72.9121 55.2521 72.9121C53.5362 72.9121 52.1453 74.3031 52.1453 76.0189C52.1453 77.7347 53.5362 79.1257 55.2521 79.1257Z" fill="#5C5C5C"/>
<path d="M114.345 89.3379C130.638 89.3379 143.845 73.8917 143.845 54.8379C143.845 35.7841 130.638 20.3379 114.345 20.3379C98.0531 20.3379 84.8455 35.7841 84.8455 54.8379C84.8455 73.8917 98.0531 89.3379 114.345 89.3379Z" fill="url(#paint0_radial_3836_634)"/>
<path d="M170.564 129.628L143.89 119.441L114.621 131.164L82.838 119.36L58.5146 128.658C56.3255 129.467 54.0553 127.445 54.7039 125.182L69.8655 72.8717C70.352 71.1738 71.5682 69.7185 73.1897 68.9909L97.5131 57.5911L114.621 69.8802L131.323 59.2889L158.241 71.093C160.024 71.9015 161.322 73.4376 161.727 75.2972L174.375 126.313C174.943 128.496 172.754 130.437 170.564 129.628Z" fill="url(#paint1_linear_3836_634)"/>
<path d="M97.5131 57.6721L82.838 119.361L58.5146 128.658C56.3255 129.467 54.0553 127.446 54.7039 125.182L69.8655 72.8719C70.352 71.174 71.5682 69.7187 73.1897 68.9911L97.5131 57.6721Z" fill="url(#paint2_linear_3836_634)"/>
<path d="M170.402 129.952L143.728 119.765L131.161 59.6931L158.079 71.4972C159.862 72.3057 161.16 73.8418 161.565 75.7014L174.213 126.718C174.781 128.901 172.592 130.841 170.402 129.952Z" fill="url(#paint3_linear_3836_634)"/>
<path d="M143.971 119.441L114.621 131.165V69.8804L131.323 59.2891L143.971 119.441Z" fill="url(#paint4_linear_3836_634)"/>
<path d="M88.4326 105.373C88.3515 105.373 88.2704 105.373 88.1083 105.373C87.784 105.293 87.5407 105.293 87.2164 105.212C86.3246 104.969 85.8381 104.161 86.0003 103.271C86.1624 102.382 87.0543 101.897 87.9461 102.059C88.1894 102.139 88.4326 102.139 88.6758 102.22C89.5677 102.382 90.1352 103.19 89.9731 104.08C89.892 104.888 89.2434 105.373 88.4326 105.373ZM94.1081 105.212C93.3784 105.212 92.7297 104.727 92.5676 103.999C92.3243 103.11 92.8919 102.22 93.7838 102.059C94.027 101.978 94.2702 101.897 94.5135 101.897C95.4053 101.654 96.2972 102.139 96.5404 102.948C96.7836 103.837 96.2972 104.727 95.4864 104.969C95.1621 105.05 94.9188 105.131 94.5945 105.212C94.3513 105.212 94.1891 105.212 94.1081 105.212ZM82.5139 102.948C82.1896 102.948 81.8653 102.867 81.622 102.705C81.3788 102.544 81.1356 102.382 80.8923 102.22C80.1626 101.735 80.0005 100.684 80.487 99.9565C80.9734 99.2288 82.0274 99.0671 82.7571 99.5522C83.0004 99.7139 83.1625 99.8756 83.4058 99.9565C84.1355 100.442 84.3787 101.412 83.8922 102.22C83.5679 102.705 83.0815 102.948 82.5139 102.948ZM99.9457 102.544C99.4592 102.544 98.8917 102.301 98.5674 101.816C98.0809 101.088 98.243 100.037 99.0538 99.5522C99.2971 99.3905 99.4592 99.3097 99.7024 99.148C100.432 98.6629 101.486 98.8246 101.973 99.5522C102.459 100.28 102.297 101.331 101.567 101.816C101.324 101.978 101.081 102.139 100.838 102.301C100.594 102.382 100.27 102.544 99.9457 102.544ZM140.809 100.603C139.998 100.603 139.269 99.9565 139.187 99.0671C139.106 98.1778 139.836 97.3693 140.728 97.3693C140.89 97.3693 141.133 97.3693 141.377 97.2884C142.268 97.1267 143.079 97.6927 143.241 98.582C143.404 99.4714 142.836 100.28 141.944 100.442C141.62 100.522 141.295 100.522 140.971 100.603C140.89 100.603 140.89 100.603 140.809 100.603ZM77.5681 98.7437C77.1628 98.7437 76.6763 98.582 76.4331 98.2586C76.2709 98.0969 76.0277 97.8544 75.8655 97.6118C75.2169 96.965 75.298 95.914 75.9466 95.348C76.5952 94.7821 77.6492 94.7821 78.2168 95.4289C78.3789 95.5906 78.5411 95.8331 78.7843 95.9948C79.4329 96.6416 79.3519 97.6927 78.7032 98.2586C78.3789 98.582 77.9735 98.7437 77.5681 98.7437ZM135.62 98.7437C135.296 98.7437 134.89 98.6629 134.647 98.4203C134.404 98.2586 134.161 98.0969 133.998 97.8544C133.35 97.2884 133.269 96.2374 133.836 95.5906C134.404 94.9438 135.458 94.8629 136.106 95.4289C136.269 95.5906 136.512 95.7523 136.674 95.914C137.404 96.4799 137.485 97.4501 136.917 98.1778C136.593 98.5012 136.106 98.7437 135.62 98.7437ZM105.054 98.5012C104.567 98.5012 104.162 98.3395 103.837 97.9352C103.27 97.2884 103.351 96.2374 104 95.6714C104.243 95.5097 104.405 95.348 104.567 95.1863C105.216 94.6204 106.27 94.7012 106.837 95.348C107.405 95.9948 107.324 97.0459 106.675 97.6118C106.432 97.7735 106.27 97.9352 106.027 98.1778C105.783 98.4203 105.459 98.5012 105.054 98.5012ZM146.809 98.2586C146.241 98.2586 145.755 98.0161 145.43 97.531C144.944 96.8033 145.187 95.7523 145.917 95.2672C146.16 95.1055 146.322 95.0246 146.566 94.8629C147.295 94.3778 148.349 94.5395 148.836 95.2672C149.322 95.9948 149.16 97.0459 148.43 97.531C148.187 97.6927 147.944 97.8544 147.701 98.0161C147.376 98.1778 147.052 98.2586 146.809 98.2586ZM130.917 94.297C130.512 94.297 130.107 94.1353 129.782 93.8119C129.62 93.6502 129.377 93.4885 129.215 93.2459C128.566 92.68 128.485 91.6289 129.134 90.9821C129.701 90.3353 130.755 90.2545 131.404 90.9013C131.647 91.063 131.809 91.3055 132.053 91.4672C132.701 92.114 132.701 93.0842 132.134 93.731C131.728 94.1353 131.323 94.297 130.917 94.297ZM151.917 94.297C151.43 94.297 151.025 94.1353 150.701 93.731C150.133 93.0842 150.214 92.0332 150.863 91.4672C151.025 91.3055 151.268 91.1438 151.43 90.9821C152.079 90.4162 153.133 90.497 153.7 91.1438C154.268 91.7906 154.187 92.8417 153.538 93.4076C153.295 93.5693 153.133 93.731 152.89 93.9736C152.727 94.2161 152.322 94.297 151.917 94.297ZM109.756 94.1353C109.351 94.1353 108.945 93.9736 108.621 93.6502C107.972 93.0034 107.972 92.0332 108.621 91.3864L109.189 90.8204C109.837 90.1736 110.81 90.1736 111.459 90.7396C112.107 91.3864 112.107 92.3566 111.54 93.0034L110.972 93.5693C110.648 93.9736 110.243 94.1353 109.756 94.1353ZM73.4332 93.8119C72.9467 93.8119 72.4602 93.5693 72.1359 93.1651C71.9738 92.9225 71.8116 92.7608 71.6495 92.5183C71.0819 91.7906 71.2441 90.8204 71.9738 90.2545C72.7035 89.6885 73.6764 89.8502 74.2439 90.5779L74.7304 91.2247C75.298 91.9523 75.1358 92.9225 74.4061 93.4885C74.0818 93.6502 73.7575 93.8119 73.4332 93.8119ZM125.972 90.1736C125.647 90.1736 125.323 90.0928 124.999 89.8502C124.756 89.6885 124.593 89.5268 124.35 89.3651C123.62 88.88 123.458 87.829 124.026 87.1014C124.512 86.3737 125.566 86.212 126.296 86.778C126.539 86.9396 126.701 87.1014 126.945 87.2631C127.674 87.829 127.837 88.7992 127.269 89.5268C126.945 89.9311 126.458 90.1736 125.972 90.1736ZM156.781 90.0119C156.376 90.0119 155.89 89.8502 155.565 89.5268C154.917 88.88 154.998 87.829 155.646 87.2631L156.214 86.6971C156.862 86.0503 157.916 86.1312 158.484 86.778C159.133 87.4247 159.052 88.4758 158.403 89.0417L157.835 89.6077C157.592 89.8502 157.187 90.0119 156.781 90.0119ZM114.215 89.3651C113.81 89.3651 113.405 89.2034 113.08 88.9609C112.432 88.3141 112.351 87.3439 112.999 86.6971C113.161 86.4546 113.405 86.2929 113.567 86.0503C114.215 85.4035 115.188 85.4035 115.837 86.0503C116.486 86.6971 116.486 87.6673 115.837 88.3141C115.675 88.4758 115.513 88.7184 115.269 88.8801C115.026 89.2034 114.621 89.3651 114.215 89.3651ZM69.7036 88.4758C69.136 88.4758 68.6496 88.2333 68.3253 87.7482L67.8388 87.1014C67.3523 86.3737 67.5955 85.3227 68.3253 84.8376C69.055 84.3525 70.109 84.595 70.5954 85.3227L71.0008 85.9695C71.4873 86.6971 71.3251 87.7482 70.5144 88.2332C70.3522 88.3949 70.0279 88.4758 69.7036 88.4758ZM120.458 86.778C120.296 86.778 120.053 86.778 119.891 86.6971C119.648 86.6163 119.485 86.6163 119.323 86.5354C118.431 86.3737 117.864 85.4844 118.107 84.595C118.35 83.7057 119.161 83.1397 120.053 83.3823C120.377 83.4631 120.702 83.544 121.026 83.7057C121.837 84.0291 122.323 84.9184 121.999 85.8078C121.675 86.3737 121.107 86.778 120.458 86.778Z" fill="#5C5C5C"/>
<path d="M114.621 14.6599C129.458 14.6599 141.458 26.6257 141.458 41.4212C141.458 53.2253 124.431 76.5909 117.459 85.6461C115.999 87.5865 113.08 87.5865 111.621 85.6461C104.648 76.5909 87.6218 53.2253 87.6218 41.4212C87.784 26.6257 99.7835 14.6599 114.621 14.6599Z" fill="#F9F8F5"/>
<path d="M114.845 55.3381C122.577 55.3381 128.845 49.0701 128.845 41.3381C128.845 33.6061 122.577 27.3381 114.845 27.3381C107.113 27.3381 100.845 33.6061 100.845 41.3381C100.845 49.0701 107.113 55.3381 114.845 55.3381Z" fill="url(#paint5_radial_3836_634)"/>
<path d="M114.62 51.9317C120.486 51.9317 125.242 47.1898 125.242 41.3403C125.242 35.4909 120.486 30.749 114.62 30.749C108.755 30.749 103.999 35.4909 103.999 41.3403C103.999 47.1898 108.755 51.9317 114.62 51.9317Z" fill="#4D4D4D"/>
<defs>
<radialGradient id="paint0_radial_3836_634" cx="0" cy="0" r="1" gradientUnits="userSpaceOnUse" gradientTransform="translate(114.345 54.8379) rotate(90) scale(34.5 29.5)">
<stop stop-opacity="0.57"/>
<stop offset="0.92" stop-opacity="0"/>
</radialGradient>
<linearGradient id="paint1_linear_3836_634" x1="114.529" y1="57.5911" x2="114.529" y2="131.164" gradientUnits="userSpaceOnUse">
<stop stop-color="#3E3E3E"/>
<stop offset="1" stop-color="#282828"/>
</linearGradient>
<linearGradient id="paint2_linear_3836_634" x1="76.0382" y1="56.0259" x2="76.0382" y2="129.607" gradientUnits="userSpaceOnUse">
<stop stop-color="#515151"/>
<stop offset="0.9964" stop-color="#4D4D4D"/>
</linearGradient>
<linearGradient id="paint3_linear_3836_634" x1="152.732" y1="59.6931" x2="152.732" y2="130.173" gradientUnits="userSpaceOnUse">
<stop stop-color="#414141"/>
<stop offset="1" stop-color="#333333"/>
</linearGradient>
<linearGradient id="paint4_linear_3836_634" x1="129.287" y1="57.6265" x2="129.287" y2="131.939" gradientUnits="userSpaceOnUse">
<stop stop-color="#515151"/>
<stop offset="0.9964" stop-color="#4D4D4D"/>
</linearGradient>
<radialGradient id="paint5_radial_3836_634" cx="0" cy="0" r="1" gradientUnits="userSpaceOnUse" gradientTransform="translate(114.845 41.3381) rotate(90) scale(14)">
<stop stop-color="#938065" stop-opacity="0.57"/>
<stop offset="0.92" stop-color="#938065" stop-opacity="0"/>
</radialGradient>
</defs>
</svg>
