<svg width="24" height="24" viewBox="0 0 24 24" fill="none" xmlns="http://www.w3.org/2000/svg">
<path d="M21.7803 3.28033C22.0732 2.98743 22.0732 2.51256 21.7803 2.21966C21.4874 1.92677 21.0126 1.92678 20.7197 2.21967L19.2482 3.69114C18.6075 3.25496 17.8335 3 17 3C14.7909 3 13 4.79086 13 7C13 7.83353 13.255 8.60751 13.6911 9.24822L9.24822 13.6911C8.60751 13.255 7.83353 13 7 13C4.79086 13 3 14.7909 3 17C3 17.8335 3.25496 18.6075 3.69114 19.2482L2.21967 20.7197C1.92678 21.0126 1.92677 21.4874 2.21966 21.7803C2.51256 22.0732 2.98743 22.0732 3.28033 21.7803L4.7518 20.3089C5.3925 20.7451 6.16648 21 7 21C9.20914 21 11 19.2091 11 17C11 16.1665 10.745 15.3925 10.3089 14.7518L14.7518 10.3089C15.3925 10.745 16.1665 11 17 11C19.2091 11 21 9.20914 21 7C21 6.16648 20.7451 5.3925 20.3089 4.7518L21.7803 3.28033ZM17 9.5C15.6193 9.5 14.5 8.38071 14.5 7C14.5 5.61929 15.6193 4.5 17 4.5C18.3807 4.5 19.5 5.61929 19.5 7C19.5 8.38071 18.3807 9.5 17 9.5ZM7 19.5C5.61929 19.5 4.5 18.3807 4.5 17C4.5 15.6193 5.61929 14.5 7 14.5C8.38071 14.5 9.5 15.6193 9.5 17C9.5 18.3807 8.38071 19.5 7 19.5Z" fill="#212121"/>
</svg>
