<svg width="28" height="28" viewBox="0 0 28 28" fill="none" xmlns="http://www.w3.org/2000/svg">
<path d="M3.47052 4.5C3.07964 4.5 2.70557 4.65536 2.43146 4.93146C2.15536 5.20755 2 5.5826 2 5.97052V12.9966C2 13.1895 2.0381 13.3815 2.11182 13.5606C2.18584 13.7397 2.29391 13.902 2.43146 14.0386C2.56802 14.1752 2.73031 14.284 2.90943 14.3582C3.08854 14.4322 3.27953 14.4701 3.47349 14.4701H6.5412V15.3765H5.18547C5.12392 15.3732 5.06276 15.3822 5.00437 15.4036C4.94648 15.4248 4.89354 15.4577 4.84901 15.5001C4.80418 15.5425 4.76856 15.5935 4.74411 15.6505C4.71977 15.7072 4.7072 15.7683 4.7072 15.8296C4.7072 15.8913 4.71977 15.9523 4.74411 16.0088C4.76846 16.0655 4.80418 16.1166 4.84901 16.1592C4.89384 16.2016 4.94678 16.2344 5.00437 16.2557C5.06227 16.2768 5.12411 16.286 5.18547 16.2827H11.5287C11.6356 16.2853 11.7395 16.2504 11.8226 16.1839C11.906 16.1175 11.9631 16.0236 11.9849 15.9197C12.0061 15.8148 11.9897 15.7069 11.9389 15.6129C11.888 15.5193 11.8053 15.4467 11.7063 15.4071C11.6497 15.3852 11.5896 15.3748 11.5282 15.3767H10.1725V14.4703L12.0938 14.4703L12.0937 13.5509C12.0937 13.0943 12.0936 11.8825 12.6646 11.2362C13.2412 10.5838 13.5826 10.5535 13.5826 10.5535C13.7587 10.4983 14.1565 10.4373 14.3416 10.4375H14.7038V5.97685C14.7038 5.78389 14.6657 5.59191 14.592 5.41279C14.5179 5.23368 14.4099 5.07139 14.2723 4.93482C14.1358 4.79826 13.9735 4.68941 13.7943 4.61519C13.6152 4.54117 13.4242 4.50336 13.2303 4.50336L3.47052 4.5ZM9.24969 14.4948V15.4012H7.43875V14.4948H9.24969ZM6.15349 10.2098C6.19881 10.3246 6.26828 10.4156 6.36229 10.4819C6.45887 10.5485 6.57109 10.5819 6.69776 10.5819C6.86698 10.5819 7.01047 10.5248 7.12823 10.4097C7.24599 10.2919 7.30536 10.1484 7.30536 9.97922C7.30536 9.81 7.2451 9.66948 7.12427 9.55766C7.06767 9.50155 7.00057 9.45771 6.92635 9.42803C6.85243 9.39844 6.77297 9.38399 6.6938 9.38557C6.45234 9.38557 6.27818 9.49146 6.17229 9.70323L5.66463 9.57161L5.95458 7.83984H7.67646V8.35641H6.42958L6.30292 9.0412C6.46917 8.92542 6.66708 8.86505 6.86995 8.86901C7.17177 8.86901 7.42411 8.97786 7.62698 9.19557C7.82984 9.41328 7.93078 9.67453 7.93078 9.97932C7.93078 10.3178 7.81005 10.5958 7.56859 10.8135C7.32713 11.0312 7.03521 11.1401 6.6938 11.1401C6.40088 11.1401 6.14656 11.0572 5.93281 10.8907C5.71807 10.7215 5.58052 10.4949 5.52015 10.2109L5.51917 10.2098H6.15349ZM11.1994 10.5591V11.0757L9.81594 11.0856V10.569H10.1336L9.08463 9.56954V10.569H9.43396V11.0856H8.11781V10.569H8.47109V8.36224H8.11781V7.84568H9.43396V8.36224H9.08463V9.30928L10.0841 8.36224H9.79417V7.84568H11.1301V8.36224H10.854L9.70609 9.4211L10.9134 10.5591H11.1994Z" fill="black"/>
<path d="M14.5244 11.625C14.1335 11.625 13.7594 11.7804 13.4853 12.0565C13.2092 12.3326 13.0538 12.7076 13.0538 13.0955V20.1216C13.0538 20.5124 13.2092 20.8865 13.4853 21.1606C13.7614 21.4367 14.1364 21.5921 14.5244 21.5921H17.5921V22.4985H16.2363C16.1295 22.4959 16.0256 22.5308 15.9424 22.5973C15.859 22.6637 15.8019 22.7576 15.7801 22.8615C15.759 22.9664 15.7753 23.0743 15.8262 23.1683C15.877 23.262 15.9597 23.3345 16.0587 23.3741C16.1154 23.3959 16.1755 23.4063 16.2368 23.4045H22.5801C22.6869 23.4072 22.7908 23.3722 22.874 23.3057C22.9574 23.2393 23.0145 23.1454 23.0363 23.0415C23.0574 22.9366 23.0411 22.8288 22.9902 22.7348C22.9394 22.641 22.8566 22.5685 22.7577 22.5289C22.7011 22.5071 22.6409 22.4967 22.5796 22.4985H21.2238V21.5921H24.2816C24.6725 21.5921 25.0466 21.4367 25.3207 21.1606C25.5968 20.8845 25.7522 20.5095 25.7522 20.1216V13.0955C25.7522 12.7046 25.5968 12.3306 25.3207 12.0565C25.0446 11.7804 24.6696 11.625 24.2816 11.625H14.5244ZM20.3035 21.6198V22.5262H18.4926V21.6198H20.3035ZM16.543 17.3696H17.1773C17.2226 17.4844 17.2921 17.5745 17.3861 17.6418C17.4831 17.708 17.5949 17.7417 17.7216 17.7417C17.8908 17.7417 18.0343 17.6841 18.152 17.5695C18.2698 17.4518 18.3292 17.3083 18.3292 17.139C18.3311 17.0599 18.316 16.9807 18.2847 16.9085C18.2535 16.8356 18.2068 16.7709 18.1482 16.7175C18.0916 16.6614 18.0245 16.6175 17.9503 16.5878C17.8763 16.5583 17.7969 16.5438 17.7177 16.5454C17.4762 16.5454 17.3021 16.6513 17.1962 16.863L16.6885 16.7314L16.9785 14.9997H18.7004V15.5162H17.4535L17.3268 16.201C17.4901 16.0862 17.6791 16.0288 17.8938 16.0288C18.1957 16.0288 18.449 16.1377 18.6509 16.3554C18.8537 16.5731 18.9547 16.8343 18.9547 17.1391C18.9547 17.4776 18.834 17.7557 18.5925 17.9734C18.351 18.1911 18.0591 18.2999 17.7177 18.2999C17.4248 18.2999 17.1715 18.2165 16.9567 18.0505C16.742 17.8813 16.6054 17.6547 16.5441 17.3707L16.543 17.3696ZM22.2232 17.7189V18.2355H20.8477V17.7189H21.1653L20.1164 16.7195V17.7189H20.4657V18.2355H19.1495V17.7189H19.5028V15.5122H19.1495V14.9956H20.4657V15.5122H20.1164V16.4592L21.1158 15.5122H20.8259V14.9956H22.1618V15.5122H21.8857L20.7378 16.571L21.9451 17.709L22.2232 17.7189Z" fill="black"/>
</svg>
