<svg width="24" height="24" viewBox="0 0 24 24" fill="none" xmlns="http://www.w3.org/2000/svg">
<path d="M2.59549 5.60346C2.52966 5.65869 2.45266 5.8046 2.52561 6.01314L4.97148 13.0044C5.02212 13.1492 5.16132 13.3188 5.46318 13.4262C5.77374 13.5366 6.13728 13.5305 6.42458 13.4142C6.89955 13.2219 7.42915 13.0398 8.00604 12.8895L6.03874 6.98716C5.90776 6.5942 6.12014 6.16946 6.5131 6.03848C6.90606 5.90751 7.3308 6.11988 7.46177 6.51284L9.49038 12.5991C9.97181 12.536 10.476 12.5 11.0001 12.5C11.2446 12.5 11.4849 12.5078 11.7205 12.5226C11.4813 12.9859 11.2962 13.4817 11.1736 14.0015C11.116 14.0005 11.0582 14 11.0001 14C10.6483 14 10.3061 14.0187 9.97485 14.0526L10.9615 17.0128C11.0925 17.4058 10.8801 17.8305 10.4872 17.9615C10.0942 18.0925 9.66947 17.8801 9.53849 17.4872L8.48155 14.3161C7.93702 14.4527 7.43641 14.6228 6.98743 14.8046C5.69953 15.3259 4.01444 14.8112 3.55563 13.4998L1.10976 6.50847C0.853574 5.7762 1.03702 4.95306 1.6313 4.45439C4.20547 2.29439 7.37971 1 11.0001 1C14.6205 1 17.7945 2.29441 20.3687 4.45444C20.9629 4.95309 21.1464 5.77617 20.8902 6.50842L19.8637 9.44315C19.4017 9.26271 18.914 9.13362 18.4076 9.06286L19.4744 6.01317C19.5473 5.80464 19.4703 5.65873 19.4045 5.60349C17.0791 3.65225 14.2409 2.5 11.0001 2.5C7.75924 2.5 4.92083 3.65224 2.59549 5.60346Z" fill="#212121"/>
<path d="M23 15.5C23 18.5376 20.5376 21 17.5 21C14.4624 21 12 18.5376 12 15.5C12 12.4624 14.4624 10 17.5 10C20.5376 10 23 12.4624 23 15.5ZM17.7525 12.1025C17.6856 12.0369 17.5947 12 17.5 12C17.4053 12 17.3144 12.0369 17.2475 12.1025L17.2466 12.1034C17.0641 12.2822 16.51 12.8252 16.0003 13.5517C15.496 14.2706 15 15.218 15 16.2C15 17.136 15.2574 17.8467 15.7278 18.3243C16.1989 18.8026 16.8371 19 17.5 19C18.1629 19 18.8011 18.8026 19.2722 18.3243C19.7426 17.8467 20 17.136 20 16.2C20 15.218 19.504 14.2706 18.9997 13.5517C18.49 12.8252 17.9359 12.2822 17.7534 12.1034L17.7525 12.1025Z" fill="#212121"/>
</svg>
