<svg width="24" height="24" viewBox="0 0 24 24" fill="none" xmlns="http://www.w3.org/2000/svg">
<path d="M11 1C7.37935 1 4.21287 2.29463 1.64038 4.45497C1.04675 4.95349 0.863112 5.7758 1.11849 6.50772L3.557 13.4966C4.01495 14.8091 5.70111 15.3249 6.98977 14.8036C7.43815 14.6222 7.93796 14.4524 8.48155 14.3161L9.53856 17.4874C9.66953 17.8803 10.0943 18.0927 10.4872 17.9617C10.8802 17.8307 11.0926 17.406 10.9616 17.013L9.97484 14.0526C10.3061 14.0187 10.6483 14 11 14C11.0582 14 11.116 14.0005 11.1736 14.0015C11.8502 11.134 14.4259 9 17.5 9C18.3339 9 19.1312 9.15704 19.8637 9.44315L20.8903 6.50843C21.1464 5.77618 20.963 4.95309 20.3687 4.45444C17.7946 2.29441 14.6204 1 11 1ZM7.46172 6.51305L9.49026 12.5991C8.96729 12.6677 8.47122 12.7682 8.00593 12.8895L6.03869 6.98736C5.90771 6.5944 6.12009 6.16966 6.51305 6.03869C6.90601 5.90771 7.33074 6.12009 7.46172 6.51305Z" fill="#212121"/>
<path d="M23 15.5C23 12.4624 20.5376 10 17.5 10C14.4624 10 12 12.4624 12 15.5C12 18.5376 14.4624 21 17.5 21C20.5376 21 23 18.5376 23 15.5ZM17.7525 12.1025L17.7534 12.1034C17.9359 12.2822 18.49 12.8252 18.9997 13.5517C19.504 14.2706 20 15.218 20 16.2C20 17.136 19.7426 17.8467 19.2722 18.3243C18.8011 18.8026 18.1629 19 17.5 19C16.8371 19 16.1989 18.8026 15.7278 18.3243C15.2574 17.8467 15 17.136 15 16.2C15 15.218 15.496 14.2706 16.0003 13.5517C16.51 12.8252 17.0641 12.2822 17.2466 12.1034L17.2475 12.1025C17.3144 12.0369 17.4053 12 17.5 12C17.5947 12 17.6856 12.0369 17.7525 12.1025Z" fill="#212121"/>
</svg>
