<svg width="20" height="20" viewBox="0 0 20 20" fill="none" xmlns="http://www.w3.org/2000/svg">
<path d="M19 13.5C19 15.9853 16.9853 18 14.5 18C12.0147 18 10 15.9853 10 13.5C10 11.0147 12.0147 9 14.5 9C16.9853 9 19 11.0147 19 13.5ZM14.702 11.0732C14.6484 11.0263 14.5758 11 14.5 11C14.4242 11 14.3516 11.0263 14.298 11.0732C14.152 11.201 13.708 11.5895 13.3003 12.1084C12.8968 12.6219 12.5 13.2986 12.5 14C12.5 14.6685 12.7059 15.1762 13.0822 15.5174C13.4591 15.859 13.9697 16 14.5 16C15.0303 16 15.5409 15.859 15.9178 15.5174C16.2941 15.1762 16.5 14.6685 16.5 14C16.5 13.2986 16.1032 12.6219 15.6997 12.1084C15.292 11.5894 14.848 11.201 14.702 11.0732Z" fill="#212121"/>
<path d="M8.99969 2C6.26905 2 3.68146 2.94162 1.65596 4.52401C1.0393 5.00576 0.859974 5.84146 1.12525 6.57766L3.04197 11.8969C3.40352 12.9003 4.71503 13.2588 5.67687 12.798C6.10324 12.5937 6.59 12.4012 7.12418 12.2565L8.03138 14.6757C8.12834 14.9343 8.41655 15.0653 8.67511 14.9683C8.93367 14.8713 9.06467 14.5831 8.96771 14.3246L8.11753 12.0574C8.40266 12.0205 8.69722 12 8.99969 12C9.06893 12 9.13775 12.0011 9.20614 12.0032C9.85802 9.69305 11.9813 8 14.5 8C15.1149 8 15.7063 8.10091 16.2584 8.28708L16.8744 6.57766C17.1397 5.84147 16.9603 5.00576 16.3437 4.52401C14.3181 2.94162 11.7303 2 8.99969 2ZM5.96781 6.32457L7.75819 11.0989C7.41436 11.1534 7.08484 11.228 6.77176 11.3164L5.03148 6.6757C4.93452 6.41714 5.06553 6.12893 5.32409 6.03197C5.58265 5.93501 5.87085 6.06601 5.96781 6.32457Z" fill="#212121"/>
</svg>
