<svg width="20" height="20" viewBox="0 0 20 20" fill="none" xmlns="http://www.w3.org/2000/svg">
<path d="M2.2716 5.31204C2.04574 5.48848 1.92435 5.84544 2.06604 6.23866L3.98281 11.558C4.03829 11.7119 4.18026 11.8615 4.4384 11.9439C4.70292 12.0283 5.00685 12.0102 5.24484 11.8962C5.69142 11.6823 6.20464 11.4766 6.77182 11.3165L5.03149 6.67556C4.93453 6.417 5.06553 6.1288 5.32409 6.03184C5.58265 5.93488 5.87085 6.06588 5.96781 6.32444L7.75825 11.0989C8.15422 11.0362 8.56917 11 8.99984 11C9.19949 11 9.39577 11.0078 9.58834 11.0224C9.43109 11.3335 9.30253 11.6616 9.20614 12.0032C9.1378 12.0011 9.06902 12 8.99984 12C8.69736 12 8.40281 12.0205 8.11768 12.0574L8.96781 14.3244C9.06477 14.583 8.93377 14.8712 8.67521 14.9682C8.41665 15.0651 8.12845 14.9341 8.03149 14.6756L7.12433 12.2565C6.59009 12.4012 6.10328 12.5938 5.67687 12.798C4.71504 13.2588 3.40357 12.9003 3.04203 11.897L1.12525 6.57766C0.859972 5.84147 1.0393 5.00576 1.65596 4.52401C3.68147 2.94162 6.26909 2 8.99974 2C11.7304 2 14.3181 2.94162 16.3437 4.52401C16.9604 5.00576 17.1397 5.84147 16.8744 6.57766L16.2584 8.2871C15.9438 8.181 15.6164 8.1026 15.2792 8.05477L15.9336 6.23866C16.0753 5.84544 15.9539 5.48849 15.7281 5.31205C13.8737 3.86339 11.5015 3 8.99974 3C6.49802 3 4.12593 3.86338 2.2716 5.31204Z" fill="#212121"/>
<path d="M19 13.5C19 15.9853 16.9853 18 14.5 18C12.0147 18 10 15.9853 10 13.5C10 11.0147 12.0147 9 14.5 9C16.9853 9 19 11.0147 19 13.5ZM14.702 11.0732C14.6484 11.0263 14.5758 11 14.5 11C14.4242 11 14.3516 11.0263 14.298 11.0732C14.152 11.201 13.708 11.5895 13.3003 12.1084C12.8968 12.6219 12.5 13.2986 12.5 14C12.5 14.6685 12.7059 15.1762 13.0822 15.5174C13.4591 15.859 13.9697 16 14.5 16C15.0303 16 15.5409 15.859 15.9178 15.5174C16.2941 15.1762 16.5 14.6685 16.5 14C16.5 13.2986 16.1032 12.6219 15.6997 12.1084C15.292 11.5894 14.848 11.201 14.702 11.0732Z" fill="#212121"/>
</svg>
