<svg width="24" height="24" viewBox="0 0 24 24" fill="none" xmlns="http://www.w3.org/2000/svg">
<path d="M12.384 2.11998C12.1515 1.96001 11.8485 1.96001 11.616 2.11998C9.59721 3.50867 6.93583 4.87634 3.62342 5.21813C3.26951 5.25464 3 5.56193 3 5.92893V12.0009C3 14.7723 4.47039 17.1221 6.25464 18.8202C8.03487 20.5145 10.2261 21.6568 11.8724 21.9753L12 22L12.1276 21.9753C13.7739 21.6568 15.9651 20.5145 17.7454 18.8202C19.5296 17.1221 21 14.7723 21 12.0009V5.92893C21 5.56193 20.7305 5.25464 20.3766 5.21813C17.0642 4.87634 14.4028 3.50867 12.384 2.11998ZM12.8398 7.68797L17.7141 9.99701C17.8872 10.079 17.9983 10.2528 18 10.4444C18.0017 10.6359 17.8938 10.8117 17.7222 10.8968L16 11.7511V14.5009C16 14.6335 15.9461 14.7619 15.8524 14.8556L15.8285 14.8789C15.8143 14.8925 15.7943 14.9113 15.7688 14.9346C15.7178 14.9811 15.6446 15.0457 15.551 15.1222C15.3643 15.275 15.0944 15.4773 14.7573 15.6796C14.088 16.0812 13.123 16.5009 12.0001 16.5009C10.8772 16.5009 9.91214 16.0812 9.24282 15.6796C8.90562 15.4773 8.63578 15.275 8.44904 15.1222C8.35547 15.0457 8.28222 14.9811 8.23124 14.9346C8.20574 14.9113 8.18577 14.8925 8.17156 14.8789L8.14671 14.8547C8.05293 14.7609 8 14.6335 8 14.5009V11.7511L7 11.255V13.5009C7 13.777 6.77614 14.0009 6.5 14.0009C6.22386 14.0009 6 13.777 6 13.5009V10.5009C6 10.4921 6.00022 10.4834 6.00067 10.4748C6.00015 10.4647 5.99993 10.4546 6.00002 10.4444C6.00175 10.2528 6.1128 10.079 6.28594 9.99701L11.1602 7.68797C11.6918 7.43617 12.3082 7.43617 12.8398 7.68797ZM15 12.2471L12.8717 13.3028C12.3225 13.5752 11.6775 13.5752 11.1283 13.3028L9 12.2471V14.2795C9.02455 14.3005 9.052 14.3235 9.08225 14.3483C9.23928 14.4767 9.46947 14.6494 9.7573 14.8221C10.338 15.1705 11.123 15.5009 12.0001 15.5009C12.8771 15.5009 13.6621 15.1706 14.2428 14.8221C14.5306 14.6494 14.7607 14.4767 14.9178 14.3483C14.948 14.3235 14.9755 14.3005 15 14.2795V12.2471ZM16.3539 10.4592L12.4117 8.5917C12.1511 8.46827 11.8489 8.46827 11.5883 8.5917L7.64606 10.4592L11.5727 12.407C11.8419 12.5405 12.1581 12.5405 12.4273 12.407L16.3539 10.4592Z" fill="#212121"/>
</svg>
