<svg width="20" height="20" viewBox="0 0 20 20" fill="none" xmlns="http://www.w3.org/2000/svg">
<path d="M10.2987 2.09598C10.1178 1.96801 9.88218 1.96801 9.70132 2.09598C8.13116 3.20694 6.0612 4.30107 3.48488 4.5745C3.20962 4.60372 3 4.84955 3 5.14315V10.0007C3 12.2179 4.14363 14.0977 5.53139 15.4562C6.91601 16.8116 8.62031 17.7254 9.90077 17.9803L10 18L10.0992 17.9803C11.3797 17.7254 13.084 16.8116 14.4686 15.4562C15.8564 14.0977 17 12.2179 17 10.0007V5.14315C17 4.84955 16.7904 4.60372 16.5151 4.5745C13.9388 4.30107 11.8688 3.20694 10.2987 2.09598ZM10.7197 6.30442L14.897 8.28331C15.0454 8.3536 15.1406 8.50251 15.1421 8.66669C15.1436 8.83088 15.0511 8.98148 14.904 9.05444L13.4281 9.78656V12.1432C13.4281 12.2568 13.3819 12.3669 13.3015 12.4472L13.281 12.4671C13.2689 12.4788 13.2518 12.4949 13.2299 12.5149C13.1862 12.5548 13.1234 12.6101 13.0433 12.6757C12.8832 12.8066 12.652 12.98 12.363 13.1534C11.7894 13.4976 10.9624 13.8572 10.0001 13.8572C9.03771 13.8572 8.21067 13.4976 7.63705 13.1534C7.34807 12.98 7.11682 12.8066 6.95677 12.6757C6.87659 12.6101 6.81381 12.5548 6.77012 12.5149C6.74826 12.4949 6.73115 12.4788 6.71898 12.4672L6.69767 12.4464C6.61731 12.3661 6.57194 12.2568 6.57194 12.1432V9.78656L5.71493 9.36145V11.2862C5.71493 11.5228 5.52308 11.7147 5.28642 11.7147C5.04976 11.7147 4.85791 11.5228 4.85791 11.2862V8.71513C4.85791 8.70763 4.8581 8.70017 4.85848 8.69277C4.85804 8.68412 4.85785 8.67543 4.85793 8.66669C4.85941 8.50251 4.95458 8.3536 5.10297 8.28331L9.28031 6.30442C9.73584 6.08863 10.2642 6.08863 10.7197 6.30442ZM12.5711 10.2117L10.747 11.1164C10.2764 11.3499 9.72364 11.3499 9.25298 11.1164L7.42896 10.2117V11.9534C7.44999 11.9714 7.47352 11.9912 7.49945 12.0124C7.63403 12.1225 7.8313 12.2705 8.07797 12.4185C8.57566 12.7171 9.24844 13.0002 10.0001 13.0002C10.7517 13.0002 11.4244 12.7171 11.9221 12.4185C12.1687 12.2705 12.366 12.1225 12.5006 12.0124C12.5265 11.9912 12.55 11.9715 12.5711 11.9535V10.2117ZM13.7314 8.67944L10.3662 10.3487C10.1355 10.4631 9.86453 10.4631 9.63381 10.3487L6.26861 8.67944L9.64721 7.07893C9.87051 6.97315 10.1295 6.97315 10.3528 7.07893L13.7314 8.67944Z" fill="#212121"/>
</svg>
