<svg width="32" height="32" viewBox="0 0 32 32" fill="none" xmlns="http://www.w3.org/2000/svg">
<path d="M15.4441 2.16819C15.78 1.94426 16.2176 1.94426 16.5535 2.16819C19.4695 4.11219 23.3138 6.02665 28.0984 6.50511C28.6095 6.55627 28.9988 6.98651 28.9988 7.50023V16.0002C28.9988 19.8798 26.8748 23.169 24.2976 25.5461C21.7263 27.9178 18.5613 29.5172 16.1833 29.9631L15.9988 29.9973L15.8142 29.9631C13.4362 29.5172 10.2713 27.9178 7.69995 25.5461C5.12275 23.169 2.99878 19.8798 2.99878 16.0002V7.50023C2.99878 6.98651 3.38802 6.55627 3.89917 6.50511C8.68377 6.02665 12.5281 4.11219 15.4441 2.16819ZM15.9988 4.19358C13.1644 6.00733 9.4951 7.77028 4.99878 8.38694V16.0002C4.99878 19.1199 6.71264 21.9155 9.05542 24.0764C11.3301 26.1744 14.0627 27.5422 15.9988 27.9573C17.9349 27.5422 20.6675 26.1744 22.9421 24.0764C25.2849 21.9155 26.9988 19.1199 26.9988 16.0002V8.38694C22.5025 7.77028 18.8332 6.00733 15.9988 4.19358Z" fill="#212121"/>
<path d="M11.3007 20.4443C11.1861 20.3384 11.0974 20.2481 11.0351 20.1826L10.9336 20.0722C10.8186 19.937 10.75 19.7584 10.75 19.58V16.0312L10.25 15.6933V18.3798C10.25 18.794 9.91417 19.1298 9.49996 19.1298C9.08586 19.1297 8.74996 18.794 8.74996 18.3798V14.2744C8.75196 14.0234 8.87971 13.7897 9.0898 13.6523L14.4951 10.1181C15.4093 9.52038 16.5906 9.52046 17.5048 10.1181L22.9101 13.6523C23.1202 13.7897 23.248 14.0234 23.25 14.2744C23.2511 14.4137 23.2238 14.5401 23.1601 14.6523C23.0973 14.7628 23.0098 14.8411 22.9209 14.9013L21.25 16.0322V19.58C21.25 19.758 21.1865 19.9308 21.0712 20.0663L20.9658 20.1826C20.9035 20.2481 20.8138 20.3384 20.6992 20.4443C20.4704 20.6554 20.1368 20.9336 19.707 21.2109C18.8486 21.7647 17.5833 22.33 16 22.33C14.4169 22.3299 13.1523 21.7646 12.2939 21.2109C11.8639 20.9335 11.5295 20.6555 11.3007 20.4443ZM16.6845 11.374C16.269 11.1023 15.7319 11.1023 15.3164 11.374L10.8535 14.291L15.2998 17.3007C15.7227 17.5868 16.2772 17.5867 16.7002 17.3007L21.1455 14.2831L16.6845 11.374ZM20.0002 16.5763L17.4016 18.3354C16.5551 18.9084 15.4452 18.9084 14.5987 18.3355L12.0002 16.5765V19.3825C12.0401 19.4227 12.0897 19.4709 12.1487 19.5254C12.3347 19.6971 12.6122 19.9285 12.9713 20.1602C13.6907 20.6243 14.7226 21.0803 16.0003 21.0803C17.278 21.0803 18.3098 20.6243 19.0292 20.1602C19.3883 19.9285 19.6657 19.6971 19.8517 19.5254C19.9107 19.4709 19.9603 19.4227 20.0002 19.3825V16.5763Z" fill="#212121"/>
</svg>
