<svg width="24" height="24" viewBox="0 0 24 24" fill="none" xmlns="http://www.w3.org/2000/svg">
<path d="M20.25 5C17.5866 5 14.992 4.05652 12.45 2.15C12.1833 1.95 11.8167 1.95 11.55 2.15C9.00797 4.05652 6.41341 5 3.75 5C3.33579 5 3 5.33579 3 5.75V11C3 16.0012 5.95756 19.6757 11.7251 21.9478C11.9018 22.0174 12.0982 22.0174 12.2749 21.9478C18.0424 19.6757 21 16.0012 21 11V5.75C21 5.33579 20.6642 5 20.25 5ZM4.5 6.47793C7.07735 6.32585 9.58084 5.38829 12 3.67782C14.4192 5.38829 16.9227 6.32585 19.5 6.47793V11C19.5 15.2556 17.0466 18.3789 12 20.4419C6.95337 18.3789 4.5 15.2556 4.5 11V6.47793Z" fill="#212121"/>
<path d="M12.8398 7.68797C12.3082 7.43617 11.6918 7.43617 11.1602 7.68797L6.28594 9.99701C6.1128 10.079 6.00175 10.2528 6.00002 10.4444C5.99993 10.4546 6.00015 10.4647 6.00067 10.4748C6.00022 10.4834 6 10.4921 6 10.5009V13.5009C6 13.777 6.22386 14.0009 6.5 14.0009C6.77614 14.0009 7 13.777 7 13.5009V11.255L8 11.7511V14.5009C8 14.6335 8.05293 14.7609 8.14671 14.8547L8.14766 14.8556L8.17156 14.8789C8.18577 14.8925 8.20574 14.9113 8.23124 14.9346C8.28222 14.9811 8.35547 15.0457 8.44904 15.1222C8.63578 15.275 8.90562 15.4773 9.24282 15.6796C9.91214 16.0812 10.8772 16.5009 12.0001 16.5009C13.123 16.5009 14.088 16.0812 14.7573 15.6796C15.0944 15.4773 15.3643 15.275 15.551 15.1222C15.6446 15.0457 15.7178 14.9811 15.7688 14.9346C15.7943 14.9113 15.8143 14.8925 15.8285 14.8789L15.8524 14.8556L15.8536 14.8544C15.9473 14.7607 16 14.6335 16 14.5009V11.7511L17.7222 10.8968C17.8938 10.8117 18.0017 10.6359 18 10.4444C17.9983 10.2528 17.8872 10.079 17.7141 9.99701L12.8398 7.68797ZM12.8717 13.3028L15 12.2471V14.2795C14.9755 14.3005 14.948 14.3235 14.9178 14.3483C14.7607 14.4767 14.5306 14.6494 14.2428 14.8221C13.6621 15.1705 12.8771 15.5009 12.0001 15.5009C11.123 15.5009 10.338 15.1705 9.7573 14.8221C9.46947 14.6494 9.23928 14.4767 9.08225 14.3483C9.052 14.3235 9.02455 14.3005 9 14.2795V12.2471L11.1283 13.3028C11.6775 13.5752 12.3225 13.5752 12.8717 13.3028ZM12.4117 8.5917L16.3539 10.4592L12.4273 12.407C12.1581 12.5405 11.8419 12.5405 11.5727 12.407L7.64606 10.4592L11.5883 8.5917C11.8489 8.46826 12.1511 8.46827 12.4117 8.5917Z" fill="#212121"/>
</svg>
