<svg width="48" height="48" viewBox="0 0 48 48" fill="none" xmlns="http://www.w3.org/2000/svg">
<path d="M23.1349 4.34751C23.6184 3.88416 24.3811 3.88416 24.8646 4.34751C27.6233 6.99126 31.5494 8.42541 34.9019 9.18733C36.5609 9.56438 38.0409 9.76829 39.1044 9.87765C39.6354 9.93226 40.0606 9.9631 40.3501 9.98021C40.4948 9.98876 40.6054 9.99387 40.6782 9.9968C40.7146 9.99827 40.7415 9.99919 40.7585 9.99973L40.7764 10.0003C41.455 10.0163 42 10.5711 42 11.25V21C42 30.4968 36.9406 40.0156 24.3726 43.9431C24.1298 44.019 23.8697 44.019 23.6269 43.9431C17.3886 41.9936 12.9592 38.6508 10.0977 34.5249C7.24269 30.4082 6 25.587 6 20.75V11.2501C5.99999 10.5713 6.54169 10.0165 7.2202 10.0004L7.24154 9.99973C7.25851 9.99919 7.28543 9.99827 7.32181 9.9968C7.39459 9.99387 7.50519 9.98876 7.64987 9.98021C7.93932 9.9631 8.36453 9.93226 8.89553 9.87765C9.95899 9.76829 11.4389 9.56438 13.0979 9.18734C16.4502 8.42541 20.3762 6.99127 23.1349 4.34751ZM17.4189 30.8188C17.7076 31.0959 18.1343 31.4537 18.71 31.808C19.8684 32.5209 21.6109 33.2065 24 33.2065C26.3891 33.2065 28.1316 32.5209 29.29 31.808C29.8657 31.4537 30.2924 31.0959 30.5811 30.8188C30.7255 30.6801 30.8356 30.5607 30.9131 30.4721C30.9519 30.4278 30.9886 30.3843 31.0113 30.3563C31.0133 30.3538 31.0204 30.3451 31.0223 30.3426L31.0342 30.3266L31.0439 30.3149L31.0498 30.3061C31.1796 30.133 31.25 29.9228 31.25 29.7065V24.2836L34.2969 22.2934C34.5807 22.1079 34.7513 21.7915 34.75 21.4525C34.7485 21.1135 34.5754 20.7977 34.29 20.6147L26.2266 15.4457C24.8699 14.576 23.1301 14.576 21.7734 15.4457L13.7266 20.6039C13.4411 20.7795 13.25 21.0956 13.25 21.4565V28.2065C13.25 28.7587 13.6977 29.2065 14.25 29.2065C14.8023 29.2065 15.25 28.7587 15.25 28.2065V23.3031L16.75 24.2836V29.7065C16.75 29.9147 16.8202 30.1233 16.9409 30.2925L17.0869 30.4721C17.1644 30.5607 17.2745 30.6801 17.4189 30.8188ZM24 31.2065C25.708 31.2065 26.9699 30.7888 27.8449 30.3302C27.9871 30.2556 28.1192 30.18 28.2412 30.1049C28.6809 29.8343 28.9967 29.567 29.1963 29.3754C29.2085 29.3637 29.2201 29.352 29.2312 29.3406L29.25 29.3217V25.5902L26.2559 27.5473C24.8852 28.4425 23.1148 28.4425 21.7441 27.5473L18.75 25.5902V29.3217L18.7688 29.3406C18.7799 29.3519 18.7915 29.3637 18.8037 29.3754C19.0033 29.567 19.3191 29.8343 19.7588 30.1049C19.8643 30.1698 19.9773 30.2352 20.098 30.2999C20.9748 30.7702 22.2545 31.2065 24 31.2065ZM22.8535 17.1293C23.5523 16.6815 24.4477 16.6815 25.1465 17.1293L31.9082 21.4643L25.1621 25.8725C24.456 26.3338 23.544 26.3338 22.8379 25.8725L16.0908 21.4643L22.8535 17.1293Z" fill="#212121"/>
</svg>
