<svg width="28" height="28" viewBox="0 0 28 28" fill="none" xmlns="http://www.w3.org/2000/svg">
<path d="M14.4681 2.14299C14.1839 1.95103 13.8136 1.95103 13.5294 2.14299C11.062 3.80943 7.80924 5.45063 3.76074 5.86078C3.32818 5.9046 2.99878 6.27334 2.99878 6.71374V14.0001C2.99878 17.3258 4.79592 20.1456 6.97667 22.1833C9.15251 24.2164 11.8307 25.5872 13.8428 25.9694L13.9988 25.999L14.1547 25.9694C16.1669 25.5872 18.845 24.2164 21.0209 22.1833C23.2016 20.1456 24.9988 17.3258 24.9988 14.0001V6.71374C24.9988 6.27334 24.6694 5.9046 24.2368 5.86078C20.1883 5.45063 16.9355 3.80943 14.4681 2.14299ZM9.21754 17.7737C9.10288 17.6679 9.01416 17.5775 8.95191 17.512L8.85035 17.4016C8.73544 17.2664 8.66676 17.0879 8.66676 16.9094V13.3606L8.16676 13.0227V15.7093C8.16676 16.1235 7.83097 16.4593 7.41676 16.4593C7.00266 16.4591 6.66676 16.1234 6.66676 15.7093V11.7093V11.6038C6.66876 11.3528 6.79651 11.1191 7.0066 10.9817L12.4119 7.44753C13.3261 6.84981 14.5074 6.84989 15.4216 7.44753L20.8269 10.9817C21.037 11.1191 21.1647 11.3528 21.1668 11.6038C21.1679 11.7431 21.1406 11.8696 21.0769 11.9817C21.0141 12.0922 20.9266 12.1705 20.8377 12.2307L19.1668 13.3616V16.9094C19.1668 17.0874 19.1033 17.2602 18.988 17.3958L18.8826 17.512C18.8203 17.5775 18.7306 17.6679 18.616 17.7737C18.3872 17.9849 18.0536 18.263 17.6238 18.5403C16.7654 19.0941 15.5001 19.6594 13.9168 19.6594C12.3337 19.6594 11.0691 19.094 10.2107 18.5403C9.7807 18.2629 9.44634 17.9849 9.21754 17.7737ZM13.2332 8.70339C13.6487 8.43172 14.1858 8.43168 14.6013 8.70339L19.0623 11.6126L14.617 14.6301C14.194 14.9161 13.6395 14.9162 13.2166 14.6301L8.77027 11.6204L13.2332 8.70339ZM17.917 16.712V13.9057L15.3184 15.6649C14.4719 16.2378 13.362 16.2379 12.5155 15.6649L9.917 13.906V16.7119C9.9569 16.7521 10.0065 16.8004 10.0655 16.8548C10.2515 17.0265 10.529 17.2579 10.8881 17.4896C11.6075 17.9537 12.6394 18.4097 13.9171 18.4097C15.1948 18.4097 16.2266 17.9537 16.946 17.4896C17.3051 17.2579 17.5825 17.0265 17.7685 16.8548C17.8275 16.8004 17.8771 16.7521 17.917 16.712Z" fill="#212121"/>
</svg>
