<svg width="48" height="48" viewBox="0 0 48 48" fill="none" xmlns="http://www.w3.org/2000/svg">
<path d="M24.8646 4.34751C24.3811 3.88416 23.6184 3.88416 23.1349 4.34751C20.3762 6.99127 16.4502 8.42541 13.0979 9.18734C11.4389 9.56438 9.95899 9.76829 8.89553 9.87765C8.36453 9.93226 7.93932 9.9631 7.64987 9.98021C7.50519 9.98876 7.39459 9.99387 7.32181 9.9968C7.28543 9.99827 7.25851 9.99919 7.24154 9.99973L7.2236 10.0003C6.54509 10.0164 5.99999 10.5713 6 11.2501V20.75C6 25.587 7.24269 30.4082 10.0977 34.5249C12.9592 38.6508 17.3886 41.9936 23.6269 43.9431C23.8697 44.019 24.1298 44.019 24.3726 43.9431C36.9406 40.0156 42 30.4968 42 21V11.25C42 10.5711 41.4577 10.0164 40.7791 10.0003L40.7585 9.99973C40.7415 9.99919 40.7146 9.99827 40.6782 9.9968C40.6054 9.99387 40.4948 9.98876 40.3501 9.98021C40.0606 9.9631 39.6354 9.93226 39.1044 9.87765C38.0409 9.76829 36.5609 9.56438 34.9019 9.18733C31.5494 8.42541 27.6233 6.99126 24.8646 4.34751ZM8.5 20.75L8.50002 12.4253C8.6969 12.4089 8.91472 12.3889 9.15128 12.3645C10.2909 12.2473 11.8734 12.0294 13.6519 11.6252C16.8704 10.8937 20.8623 9.52333 23.9998 6.92285C27.1373 9.52333 31.1293 10.8937 34.3479 11.6252C36.1264 12.0294 37.709 12.2473 38.8487 12.3645C39.0853 12.3889 39.3031 12.4089 39.5 12.4253V21C39.5 29.4102 35.1556 37.7988 23.9998 41.4378C18.4402 39.6244 14.6108 36.6454 12.152 33.1001C9.6322 29.4668 8.50001 25.1629 8.5 20.75Z" fill="#212121"/>
<path d="M17.4189 30.8189C17.2745 30.6802 17.1644 30.5608 17.0869 30.4722L16.9409 30.2926C16.8202 30.1234 16.75 29.9148 16.75 29.7066V24.2837L15.25 23.3032V28.2066C15.25 28.7588 14.8023 29.2066 14.25 29.2066C13.6977 29.2066 13.25 28.7588 13.25 28.2066V21.4566C13.25 21.0958 13.4411 20.7796 13.7266 20.604L21.7734 15.4458C23.1301 14.5761 24.8699 14.5761 26.2266 15.4458L34.29 20.6148C34.5754 20.7978 34.7485 21.1136 34.75 21.4527C34.7513 21.7916 34.5807 22.108 34.2969 22.2935L31.25 24.2837V29.7066C31.25 29.9229 31.1796 30.1331 31.0498 30.3062L31.0439 30.315L31.0342 30.3267L31.0223 30.3427C31.0204 30.3452 31.0133 30.3539 31.0113 30.3564C30.9886 30.3844 30.9519 30.4279 30.9131 30.4722C30.8356 30.5608 30.7255 30.6802 30.5811 30.8189C30.2924 31.096 29.8657 31.4539 29.29 31.8081C28.1316 32.521 26.3891 33.2066 24 33.2066C21.6109 33.2066 19.8684 32.521 18.71 31.8081C18.1343 31.4539 17.7076 31.096 17.4189 30.8189ZM20.098 30.3C20.9748 30.7703 22.2545 31.2066 24 31.2066C25.708 31.2066 26.9699 30.7889 27.8449 30.3303C27.9871 30.2557 28.1192 30.1801 28.2412 30.105C28.6809 29.8344 28.9967 29.5671 29.1963 29.3755C29.2085 29.3638 29.2201 29.3521 29.2312 29.3407L29.25 29.3218V25.5903L26.2559 27.5474C24.8852 28.4426 23.1148 28.4426 21.7441 27.5474L18.75 25.5903V29.3218L18.7688 29.3407C18.7799 29.352 18.7915 29.3638 18.8037 29.3755C19.0033 29.5671 19.3191 29.8344 19.7588 30.105C19.8643 30.1699 19.9773 30.2353 20.098 30.3ZM25.1465 17.1294C24.4477 16.6816 23.5523 16.6816 22.8535 17.1294L16.0908 21.4644L22.8379 25.8726C23.544 26.3339 24.456 26.3339 25.1621 25.8726L31.9082 21.4644L25.1465 17.1294Z" fill="#212121"/>
</svg>
