<svg width="20" height="20" viewBox="0 0 20 20" fill="none" xmlns="http://www.w3.org/2000/svg">
<path d="M10.2774 2.08397C10.1094 1.97201 9.8906 1.97201 9.72265 2.08397C7.78446 3.3761 5.68833 4.18231 3.42929 4.50503C3.18296 4.54021 3 4.75118 3 5V9.5C3 13.3913 5.30699 16.2307 9.82051 17.9667C9.93605 18.0111 10.064 18.0111 10.1795 17.9667C14.693 16.2307 17 13.3913 17 9.5V5C17 4.75118 16.817 4.54021 16.5707 4.50503C14.3117 4.18231 12.2155 3.3761 10.2774 2.08397ZM4 5.42787C5.98541 5.09055 7.85275 4.39606 9.59914 3.34583L10 3.09715L10.4009 3.34583C12.1473 4.39606 14.0146 5.09055 16 5.42787V9.5C16 12.8921 14.0321 15.3634 10 16.9632C5.96795 15.3634 4 12.8921 4 9.5V5.42787Z" fill="#212121"/>
<path d="M10.7197 6.30442C10.2642 6.08863 9.73584 6.08863 9.2803 6.30442L5.10297 8.28331C4.95458 8.3536 4.85941 8.50251 4.85792 8.66669C4.85785 8.67543 4.85803 8.68412 4.85848 8.69277C4.8581 8.70017 4.85791 8.70763 4.85791 8.71513V11.2862C4.85791 11.5228 5.04976 11.7147 5.28641 11.7147C5.52307 11.7147 5.71492 11.5228 5.71492 11.2862V9.36145L6.57194 9.78656V12.1432C6.57194 12.2568 6.6173 12.3661 6.69767 12.4464L6.69849 12.4472L6.71897 12.4672C6.73114 12.4788 6.74826 12.4949 6.77012 12.5149C6.81381 12.5548 6.87658 12.6101 6.95677 12.6757C7.11681 12.8066 7.34807 12.98 7.63705 13.1534C8.21067 13.4976 9.0377 13.8572 10.0001 13.8572C10.9624 13.8572 11.7894 13.4976 12.363 13.1534C12.652 12.98 12.8832 12.8066 13.0433 12.6757C13.1234 12.6101 13.1862 12.5548 13.2299 12.5149C13.2518 12.4949 13.2689 12.4788 13.281 12.4671L13.3015 12.4472L13.3026 12.4462C13.3829 12.3658 13.4281 12.2568 13.4281 12.1432V9.78656L14.904 9.05444C15.0511 8.98148 15.1436 8.83088 15.1421 8.66669C15.1406 8.50251 15.0454 8.3536 14.897 8.28331L10.7197 6.30442ZM10.747 11.1164L12.571 10.2117V11.9535C12.55 11.9715 12.5265 11.9912 12.5006 12.0124C12.366 12.1225 12.1687 12.2705 11.9221 12.4185C11.4244 12.7171 10.7517 13.0002 10.0001 13.0002C9.24843 13.0002 8.57566 12.7171 8.07797 12.4185C7.8313 12.2705 7.63402 12.1225 7.49944 12.0124C7.47352 11.9912 7.44999 11.9714 7.42895 11.9534V10.2117L9.25298 11.1164C9.72363 11.3499 10.2764 11.3499 10.747 11.1164ZM10.3528 7.07893L13.7314 8.67944L10.3662 10.3487C10.1355 10.4631 9.86452 10.4631 9.63381 10.3487L6.26861 8.67944L9.6472 7.07893C9.87051 6.97315 10.1295 6.97315 10.3528 7.07893ZM6.7 12.4487L6.69849 12.4472Z" fill="#212121"/>
</svg>
