<svg width="32" height="32" viewBox="0 0 32 32" fill="none" xmlns="http://www.w3.org/2000/svg">
<path d="M15.4441 2.16819C15.78 1.94426 16.2176 1.94426 16.5535 2.16819C19.4695 4.11219 23.3137 6.02675 28.0983 6.50521C28.6095 6.55633 28.9988 6.98649 28.9988 7.50024V16.0002C28.9988 19.8799 26.8749 23.1693 24.2976 25.5464C21.7262 27.9182 18.5611 29.5172 16.1831 29.9631L15.9988 29.9977L15.8145 29.9631C13.4365 29.5172 10.2714 27.9182 7.69993 25.5464C5.12267 23.1693 2.99878 19.8799 2.99878 16.0002V7.50024C2.99878 6.98649 3.38807 6.55633 3.89928 6.50521C8.68387 6.02675 12.5281 4.11219 15.4441 2.16819ZM11.3007 20.4443C11.5295 20.6555 11.8639 20.9335 12.2939 21.2109C13.1523 21.7646 14.4169 22.3299 16 22.33C17.5833 22.33 18.8486 21.7647 19.707 21.2109C20.1368 20.9336 20.4704 20.6554 20.6992 20.4443C20.8138 20.3385 20.9035 20.2481 20.9658 20.1826L21.0712 20.0664C21.1865 19.9308 21.25 19.758 21.25 19.58V16.0322L22.9209 14.9013C23.0098 14.8411 23.0973 14.7628 23.1601 14.6523C23.2238 14.5401 23.2511 14.4137 23.25 14.2744C23.248 14.0234 23.1202 13.7897 22.9101 13.6523L17.5048 10.1181C16.5906 9.52047 15.4093 9.52039 14.4951 10.1181L9.0898 13.6523C8.87971 13.7897 8.75196 14.0234 8.74996 14.2744V18.3798C8.74996 18.794 9.08586 19.1297 9.49996 19.1298C9.91417 19.1298 10.25 18.794 10.25 18.3798V15.6933L10.75 16.0312V19.58C10.75 19.7584 10.8186 19.937 10.9336 20.0722L11.0351 20.1826C11.0974 20.2481 11.1861 20.3385 11.3007 20.4443ZM15.3164 11.374L10.8535 14.291L15.2998 17.3007C15.7227 17.5868 16.2772 17.5867 16.7002 17.3007L21.1455 14.2832L16.6845 11.374C16.269 11.1023 15.7319 11.1023 15.3164 11.374ZM20.0002 19.3825V16.5763L17.4016 18.3354C16.5551 18.9084 15.4452 18.9084 14.5987 18.3355L12.0002 16.5765V19.3825C12.0401 19.4227 12.0897 19.4709 12.1487 19.5254C12.3347 19.6971 12.6122 19.9285 12.9713 20.1602C13.6907 20.6243 14.7226 21.0803 16.0003 21.0803C17.278 21.0803 18.3098 20.6243 19.0292 20.1602C19.3883 19.9285 19.6657 19.6971 19.8517 19.5254C19.9107 19.471 19.9603 19.4227 20.0002 19.3825Z" fill="#212121"/>
</svg>
