<svg width="28" height="28" viewBox="0 0 28 28" fill="none" xmlns="http://www.w3.org/2000/svg">
<path d="M14.4381 2.14208C14.1759 1.95264 13.8218 1.95264 13.5596 2.14208C12.9169 2.60645 11.4721 3.45359 9.6635 4.18313C7.85341 4.91328 5.74138 5.5 3.75 5.5C3.33579 5.5 3 5.83579 3 6.25V14.002C3 17.0293 4.70264 19.8431 6.83716 21.9516C8.97042 24.0589 11.6645 25.5914 13.8701 25.9756L13.9988 25.998L14.1275 25.9756C16.3331 25.5914 19.0272 24.0589 21.1605 21.9516C23.295 19.8431 24.9976 17.0293 24.9976 14.002V6.25C24.9976 5.83579 24.6618 5.5 24.2476 5.5C22.2575 5.5 20.1454 4.9133 18.335 4.18311C16.526 3.45355 15.0807 2.60639 14.4381 2.14208ZM4.5 14.002V6.97663C6.51483 6.85319 8.53239 6.25683 10.2246 5.57422C11.813 4.9335 13.1582 4.19894 13.9988 3.65635C14.8396 4.19897 16.1853 4.93353 17.7739 5.57423C19.4663 6.25678 21.4837 6.85312 23.4976 6.97661V14.002C23.4976 16.4727 22.0894 18.9255 20.1063 20.8845C18.1683 22.7989 15.805 24.1178 13.9988 24.4739C12.1926 24.1178 9.82929 22.7989 7.8913 20.8845C5.9082 18.9255 4.5 16.4727 4.5 14.002Z" fill="#212121"/>
<path d="M9.21755 17.7736C9.1029 17.6678 9.01417 17.5774 8.95192 17.5119L8.85036 17.4015C8.73545 17.2663 8.66677 17.0878 8.66677 16.9094V13.3605L8.16677 13.0226V15.7092C8.16677 16.1234 7.83098 16.4592 7.41677 16.4592C7.00267 16.459 6.66677 16.1233 6.66677 15.7092V11.6037C6.66877 11.3527 6.79652 11.119 7.00661 10.9816L12.4119 7.44744C13.3261 6.84972 14.5074 6.8498 15.4217 7.44744L20.8269 10.9816C21.037 11.119 21.1648 11.3527 21.1668 11.6037C21.1679 11.743 21.1406 11.8695 21.0769 11.9816C21.0142 12.0922 20.9266 12.1704 20.8377 12.2306L19.1668 13.3615V16.9094C19.1668 17.0873 19.1033 17.2601 18.9881 17.3957L18.8826 17.5119C18.8204 17.5774 18.7306 17.6678 18.616 17.7736C18.3872 17.9848 18.0536 18.2629 17.6238 18.5402C16.7654 19.094 15.5001 19.6594 13.9168 19.6594C12.3337 19.6593 11.0691 19.0939 10.2107 18.5402C9.78071 18.2628 9.44635 17.9848 9.21755 17.7736ZM14.6013 8.7033C14.1858 8.43159 13.6487 8.43163 13.2332 8.7033L8.77028 11.6203L13.2166 14.6301C13.6395 14.9161 14.194 14.916 14.617 14.6301L19.0623 11.6125L14.6013 8.7033ZM17.917 13.9056L15.3184 15.6648C14.472 16.2378 13.362 16.2378 12.5155 15.6648L9.91701 13.9059V16.7118C9.95691 16.752 10.0065 16.8003 10.0655 16.8547C10.2516 17.0264 10.529 17.2578 10.8881 17.4895C11.6075 17.9536 12.6394 18.4096 13.9171 18.4096C15.1948 18.4096 16.2266 17.9536 16.946 17.4895C17.3051 17.2578 17.5825 17.0265 17.7685 16.8548C17.8275 16.8003 17.8771 16.752 17.917 16.7119V13.9056Z" fill="#212121"/>
</svg>
