<svg width="28" height="28" viewBox="0 0 28 28" fill="none" xmlns="http://www.w3.org/2000/svg">
<path d="M17.1113 3C19.259 3.00011 21 4.64202 21 6.66699V21.333C21 23.358 19.259 24.9999 17.1113 25H10.8887C8.741 24.9999 7 23.358 7 21.333V6.66699C7 4.64202 8.741 3.00011 10.8887 3H17.1113ZM10 17C9.44772 17 9 17.4477 9 18C9 18.5523 9.44772 19 10 19C10.5523 19 11 18.5523 11 18C11 17.4477 10.5523 17 10 17ZM14 17C13.4477 17 13 17.4477 13 18C13 18.5523 13.4477 19 14 19C14.5523 19 15 18.5523 15 18C15 17.4477 14.5523 17 14 17ZM18 17C17.4477 17 17 17.4477 17 18C17 18.5523 17.4477 19 18 19C18.5523 19 19 18.5523 19 18C19 17.4477 18.5523 17 18 17ZM14 6C11.7909 6 10 7.79086 10 10C10 12.2091 11.7909 14 14 14C16.2091 14 18 12.2091 18 10C18 7.79086 16.2091 6 14 6ZM14 7.59961C15.3255 7.59961 16.4004 8.67452 16.4004 10C16.4004 11.3255 15.3255 12.4004 14 12.4004C12.6745 12.4004 11.5996 11.3255 11.5996 10C11.5996 8.67452 12.6745 7.59961 14 7.59961Z" fill="#212121"/>
</svg>
