<svg width="24" height="24" viewBox="0 0 24 24" fill="none" xmlns="http://www.w3.org/2000/svg">
<path d="M13.9443 3C15.6319 3 17 4.34315 17 6V18C17 19.6569 15.6319 21 13.9443 21H9.05566C7.36813 21 6 19.6569 6 18V6C6 4.34315 7.36813 3 9.05566 3H13.9443ZM8.75 14C8.33579 14 8 14.3358 8 14.75C8 15.1642 8.33579 15.5 8.75 15.5C9.16421 15.5 9.5 15.1642 9.5 14.75C9.5 14.3358 9.16421 14 8.75 14ZM11.5 14C11.0858 14 10.75 14.3358 10.75 14.75C10.75 15.1642 11.0858 15.5 11.5 15.5C11.9142 15.5 12.25 15.1642 12.25 14.75C12.25 14.3358 11.9142 14 11.5 14ZM14.25 14C13.8358 14 13.5 14.3358 13.5 14.75C13.5 15.1642 13.8358 15.5 14.25 15.5C14.6642 15.5 15 15.1642 15 14.75C15 14.3358 14.6642 14 14.25 14ZM11.5 6C9.84315 6 8.5 7.34315 8.5 9C8.5 10.6569 9.84315 12 11.5 12C13.1569 12 14.5 10.6569 14.5 9C14.5 7.34315 13.1569 6 11.5 6ZM11.5 7.2002C12.4941 7.2002 13.2998 8.00589 13.2998 9C13.2998 9.99411 12.4941 10.7998 11.5 10.7998C10.5059 10.7998 9.7002 9.99411 9.7002 9C9.7002 8.00589 10.5059 7.2002 11.5 7.2002Z" fill="#212121"/>
</svg>
