<svg width="20" height="20" viewBox="0 0 20 20" fill="none" xmlns="http://www.w3.org/2000/svg">
<path d="M11.5 3C12.8807 3 14 4.11929 14 5.5V15.5C14 16.8807 12.8807 18 11.5 18H7.5C6.11929 18 5 16.8807 5 15.5V5.5C5 4.11929 6.11929 3 7.5 3H11.5ZM7.5 11.5C7.22386 11.5 7 11.7239 7 12C7 12.2761 7.22386 12.5 7.5 12.5C7.77614 12.5 8 12.2761 8 12C8 11.7239 7.77614 11.5 7.5 11.5ZM9.5 11.5C9.22386 11.5 9 11.7239 9 12C9 12.2761 9.22386 12.5 9.5 12.5C9.77614 12.5 10 12.2761 10 12C10 11.7239 9.77614 11.5 9.5 11.5ZM11.5 11.5C11.2239 11.5 11 11.7239 11 12C11 12.2761 11.2239 12.5 11.5 12.5C11.7761 12.5 12 12.2761 12 12C12 11.7239 11.7761 11.5 11.5 11.5ZM9.5 5C8.11929 5 7 6.11929 7 7.5C7 8.88071 8.11929 10 9.5 10C10.8807 10 12 8.88071 12 7.5C12 6.11929 10.8807 5 9.5 5ZM9.5 6C10.3284 6 11 6.67157 11 7.5C11 8.32843 10.3284 9 9.5 9C8.67157 9 8 8.32843 8 7.5C8 6.67157 8.67157 6 9.5 6Z" fill="#242424"/>
</svg>
