<svg width="20" height="20" viewBox="0 0 20 20" fill="none" xmlns="http://www.w3.org/2000/svg">
<path d="M13.5 5C13.5 4.17157 12.8284 3.5 12 3.5H8C7.17157 3.5 6.5 4.17157 6.5 5V15C6.5 15.8284 7.17157 16.5 8 16.5H12C12.8284 16.5 13.5 15.8284 13.5 15V5ZM14.5 15C14.5 16.3807 13.3807 17.5 12 17.5H8C6.61929 17.5 5.5 16.3807 5.5 15V5C5.5 3.61929 6.61929 2.5 8 2.5H12C13.3807 2.5 14.5 3.61929 14.5 5V15Z" fill="#242424"/>
<path d="M11.5 7C11.5 6.17157 10.8284 5.5 10 5.5C9.17157 5.5 8.5 6.17157 8.5 7C8.5 7.82843 9.17157 8.5 10 8.5C10.8284 8.5 11.5 7.82843 11.5 7ZM12.5 7C12.5 8.38071 11.3807 9.5 10 9.5C8.61929 9.5 7.5 8.38071 7.5 7C7.5 5.61929 8.61929 4.5 10 4.5C11.3807 4.5 12.5 5.61929 12.5 7Z" fill="#242424"/>
<path d="M7.5 11.5C7.5 11.2239 7.72386 11 8 11C8.27614 11 8.5 11.2239 8.5 11.5C8.5 11.7761 8.27614 12 8 12C7.72386 12 7.5 11.7761 7.5 11.5Z" fill="#242424"/>
<path d="M9.5 11.5C9.5 11.2239 9.72386 11 10 11C10.2761 11 10.5 11.2239 10.5 11.5C10.5 11.7761 10.2761 12 10 12C9.72386 12 9.5 11.7761 9.5 11.5Z" fill="#242424"/>
<path d="M11.5 11.5C11.5 11.2239 11.7239 11 12 11C12.2761 11 12.5 11.2239 12.5 11.5C12.5 11.7761 12.2761 12 12 12C11.7239 12 11.5 11.7761 11.5 11.5Z" fill="#242424"/>
</svg>
