<svg width="28" height="28" viewBox="0 0 28 28" fill="none" xmlns="http://www.w3.org/2000/svg">
<path d="M20.25 7.25C20.25 5.80365 18.9211 4.5001 17.1113 4.5H10.8887C9.07894 4.5001 7.75 5.80365 7.75 7.25V21.25C7.75 22.6964 9.07894 23.9999 10.8887 24H17.1113C18.9211 23.9999 20.25 22.6964 20.25 21.25V7.25ZM21.75 21.25C21.75 23.6695 19.5969 25.4999 17.1113 25.5H10.8887C8.40306 25.4999 6.25 23.6695 6.25 21.25V7.25C6.25 4.83049 8.40306 3.00011 10.8887 3H17.1113C19.5969 3.00011 21.75 4.83049 21.75 7.25V21.25Z" fill="black"/>
<path d="M10 10.25C10 8.04086 11.7909 6.25 14 6.25C16.2091 6.25 18 8.04086 18 10.25C18 12.4591 16.2091 14.25 14 14.25C11.7909 14.25 10 12.4591 10 10.25ZM14 7.85C12.6745 7.85 11.6 8.92452 11.6 10.25C11.6 11.5755 12.6745 12.65 14 12.65C15.3255 12.65 16.4 11.5755 16.4 10.25C16.4 8.92452 15.3255 7.85 14 7.85Z" fill="#FF0000"/>
<path d="M10 10.25C10 8.04086 11.7909 6.25 14 6.25C16.2091 6.25 18 8.04086 18 10.25C18 12.4591 16.2091 14.25 14 14.25C11.7909 14.25 10 12.4591 10 10.25ZM14 7.85C12.6745 7.85 11.6 8.92452 11.6 10.25C11.6 11.5755 12.6745 12.65 14 12.65C15.3255 12.65 16.4 11.5755 16.4 10.25C16.4 8.92452 15.3255 7.85 14 7.85Z" fill="black"/>
<path d="M9.5 18.25C9.5 17.6977 9.94772 17.25 10.5 17.25C11.0523 17.25 11.5 17.6977 11.5 18.25C11.5 18.8023 11.0523 19.25 10.5 19.25C9.94772 19.25 9.5 18.8023 9.5 18.25Z" fill="black"/>
<path d="M13 18.25C13 17.6977 13.4477 17.25 14 17.25C14.5523 17.25 15 17.6977 15 18.25C15 18.8023 14.5523 19.25 14 19.25C13.4477 19.25 13 18.8023 13 18.25Z" fill="black"/>
<path d="M16.5 18.25C16.5 17.6977 16.9477 17.25 17.5 17.25C18.0523 17.25 18.5 17.6977 18.5 18.25C18.5 18.8023 18.0523 19.25 17.5 19.25C16.9477 19.25 16.5 18.8023 16.5 18.25Z" fill="black"/>
</svg>
