<svg width="24" height="24" viewBox="0 0 24 24" fill="none" xmlns="http://www.w3.org/2000/svg">
<path d="M16.25 6.50781C16.2498 5.40405 15.3473 4.50023 14.2227 4.5H9.77734C8.65271 4.50023 7.75017 5.40405 7.75 6.50781V17.541C7.7502 18.6448 8.65273 19.5486 9.77734 19.5488H14.2227C15.3473 19.5486 16.2498 18.6448 16.25 17.541V6.50781ZM17.75 17.541C17.7498 19.4832 16.1656 21.0486 14.2227 21.0488H9.77734C7.83436 21.0486 6.2502 19.4832 6.25 17.541V6.50781C6.25017 4.56561 7.83434 3.00023 9.77734 3H14.2227C16.1657 3.00023 17.7498 4.56561 17.75 6.50781V17.541Z" fill="black"/>
<path d="M9 9.0293C9 10.6862 10.3431 12.0293 12 12.0293C13.6569 12.0293 15 10.6862 15 9.0293C15 7.37244 13.6569 6.0293 12 6.0293C10.3431 6.0293 9 7.37244 9 9.0293ZM12 7.2293C12.9941 7.2293 13.8 8.03518 13.8 9.0293C13.8 10.0234 12.9941 10.8293 12 10.8293C11.0059 10.8293 10.2 10.0234 10.2 9.0293C10.2 8.03518 11.0059 7.2293 12 7.2293Z" fill="#FF0000"/>
<path d="M9 9.0293C9 10.6862 10.3431 12.0293 12 12.0293C13.6569 12.0293 15 10.6862 15 9.0293C15 7.37244 13.6569 6.0293 12 6.0293C10.3431 6.0293 9 7.37244 9 9.0293ZM12 7.2293C12.9941 7.2293 13.8 8.03518 13.8 9.0293C13.8 10.0234 12.9941 10.8293 12 10.8293C11.0059 10.8293 10.2 10.0234 10.2 9.0293C10.2 8.03518 11.0059 7.2293 12 7.2293Z" fill="#242424"/>
<path d="M8.5 14.7793C8.5 14.3651 8.83579 14.0293 9.25 14.0293C9.66421 14.0293 10 14.3651 10 14.7793C10 15.1935 9.66421 15.5293 9.25 15.5293C8.83579 15.5293 8.5 15.1935 8.5 14.7793Z" fill="#242424"/>
<path d="M11.25 14.7793C11.25 14.3651 11.5858 14.0293 12 14.0293C12.4142 14.0293 12.75 14.3651 12.75 14.7793C12.75 15.1935 12.4142 15.5293 12 15.5293C11.5858 15.5293 11.25 15.1935 11.25 14.7793Z" fill="#242424"/>
<path d="M14 14.7793C14 14.3651 14.3358 14.0293 14.75 14.0293C15.1642 14.0293 15.5 14.3651 15.5 14.7793C15.5 15.1935 15.1642 15.5293 14.75 15.5293C14.3358 15.5293 14 15.1935 14 14.7793Z" fill="#242424"/>
</svg>
