<svg width="24" height="24" viewBox="0 0 24 24" fill="none" xmlns="http://www.w3.org/2000/svg">
<path d="M10.1801 8.22691C11.0786 6.99142 12.9209 6.99142 13.8194 8.22691L15.9682 11.1815C15.4558 11.3053 14.9671 11.4898 14.5101 11.7269L12.6063 9.10916C12.3068 8.69734 11.6927 8.69734 11.3932 9.10916L8.33887 13.3089C7.97834 13.8046 8.33245 14.5 8.94542 14.5H11.7322C11.4876 14.9693 11.2986 15.4722 11.1739 16H8.94542C7.10652 16 6.04418 13.9138 7.12576 12.4266L10.1801 8.22691Z" fill="#212121"/>
<path d="M5.25 3.5C4.2835 3.5 3.5 4.2835 3.5 5.25V8.25C3.5 8.66421 3.16421 9 2.75 9C2.33579 9 2 8.66421 2 8.25V5.25C2 3.45507 3.45507 2 5.25 2H8.25C8.66421 2 9 2.33579 9 2.75C9 3.16421 8.66421 3.5 8.25 3.5H5.25Z" fill="#212121"/>
<path d="M5.25 20.5C4.2835 20.5 3.5 19.7165 3.5 18.75V15.75C3.5 15.3358 3.16421 15 2.75 15C2.33579 15 2 15.3358 2 15.75V18.75C2 20.5449 3.45507 22 5.25 22H8.25C8.66421 22 9 21.6642 9 21.25C9 20.8358 8.66421 20.5 8.25 20.5H5.25Z" fill="#212121"/>
<path d="M20.5 5.25C20.5 4.2835 19.7165 3.5 18.75 3.5H15.75C15.3358 3.5 15 3.16421 15 2.75C15 2.33579 15.3358 2 15.75 2H18.75C20.5449 2 22 3.45507 22 5.25V8.25C22 8.66421 21.6642 9 21.25 9C20.8358 9 20.5 8.66421 20.5 8.25V5.25Z" fill="#212121"/>
<path d="M17.5 23C20.5376 23 23 20.5376 23 17.5C23 14.4624 20.5376 12 17.5 12C14.4624 12 12 14.4624 12 17.5C12 20.5376 14.4624 23 17.5 23ZM15.8536 15.1464L17.5 16.7929L19.1464 15.1464C19.3417 14.9512 19.6583 14.9512 19.8536 15.1464C20.0488 15.3417 20.0488 15.6583 19.8536 15.8536L18.2071 17.5L19.8536 19.1464C20.0488 19.3417 20.0488 19.6583 19.8536 19.8536C19.6583 20.0488 19.3417 20.0488 19.1464 19.8536L17.5 18.2071L15.8536 19.8536C15.6583 20.0488 15.3417 20.0488 15.1464 19.8536C14.9512 19.6583 14.9512 19.3417 15.1464 19.1464L16.7929 17.5L15.1464 15.8536C14.9512 15.6583 14.9512 15.3417 15.1464 15.1464C15.3417 14.9512 15.6583 14.9512 15.8536 15.1464Z" fill="#212121"/>
</svg>
