<svg width="20" height="20" viewBox="0 0 20 20" fill="none" xmlns="http://www.w3.org/2000/svg">
<path d="M11.2336 6.90302C10.6371 6.04144 9.36346 6.04144 8.76698 6.90302L6.17555 10.6462C5.48681 11.641 6.19885 13 7.40884 13H9.20703C9.71162 11.216 11.0939 9.80041 12.8579 9.24931L11.2336 6.90302Z" fill="#212121"/>
<path d="M3 15.5C3 16.3284 3.67157 17 4.5 17H6.5C6.77614 17 7 17.2239 7 17.5C7 17.7761 6.77614 18 6.5 18H4.5C3.11929 18 2 16.8807 2 15.5V13.5C2 13.2239 2.22386 13 2.5 13C2.77614 13 3 13.2239 3 13.5V15.5Z" fill="#212121"/>
<path d="M4.5 3C3.67157 3 3 3.67157 3 4.5V6.5C3 6.77614 2.77614 7 2.5 7C2.22386 7 2 6.77614 2 6.5V4.5C2 3.11929 3.11929 2 4.5 2H6.5C6.77614 2 7 2.22386 7 2.5C7 2.77614 6.77614 3 6.5 3H4.5Z" fill="#212121"/>
<path d="M15.5 3C16.3284 3 17 3.67157 17 4.5V6.5C17 6.77614 17.2239 7 17.5 7C17.7761 7 18 6.77614 18 6.5V4.5C18 3.11929 16.8807 2 15.5 2H13.5C13.2239 2 13 2.22386 13 2.5C13 2.77614 13.2239 3 13.5 3H15.5Z" fill="#212121"/>
<path d="M14.5 19C16.9853 19 19 16.9853 19 14.5C19 12.0147 16.9853 10 14.5 10C12.0147 10 10 12.0147 10 14.5C10 16.9853 12.0147 19 14.5 19ZM16.3536 12.6464C16.5488 12.8417 16.5488 13.1583 16.3536 13.3536L15.2071 14.5L16.3536 15.6464C16.5488 15.8417 16.5488 16.1583 16.3536 16.3536C16.1583 16.5488 15.8417 16.5488 15.6464 16.3536L14.5 15.2071L13.3536 16.3536C13.1583 16.5488 12.8417 16.5488 12.6464 16.3536C12.4512 16.1583 12.4512 15.8417 12.6464 15.6464L13.7929 14.5L12.6464 13.3536C12.4512 13.1583 12.4512 12.8417 12.6464 12.6464C12.8417 12.4512 13.1583 12.4512 13.3536 12.6464L14.5 13.7929L15.6464 12.6464C15.8417 12.4512 16.1583 12.4512 16.3536 12.6464Z" fill="#212121"/>
</svg>
