<svg width="20" height="20" viewBox="0 0 20 20" fill="none" xmlns="http://www.w3.org/2000/svg">
<path d="M3 4.5C3 3.67157 3.67157 3 4.5 3H6.5C6.77614 3 7 2.77614 7 2.5C7 2.22386 6.77614 2 6.5 2H4.5C3.11929 2 2 3.11929 2 4.5V6.5C2 6.77614 2.22386 7 2.5 7C2.77614 7 3 6.77614 3 6.5V4.5Z" fill="#212121"/>
<path d="M3 15.5C3 16.3284 3.67157 17 4.5 17H6.5C6.77614 17 7 17.2239 7 17.5C7 17.7761 6.77614 18 6.5 18H4.5C3.11929 18 2 16.8807 2 15.5V13.5C2 13.2239 2.22386 13 2.5 13C2.77614 13 3 13.2239 3 13.5V15.5Z" fill="#212121"/>
<path d="M17 4.5C17 3.67157 16.3284 3 15.5 3H13.5C13.2239 3 13 2.77614 13 2.5C13 2.22386 13.2239 2 13.5 2H15.5C16.8807 2 18 3.11929 18 4.5V6.5C18 6.77614 17.7761 7 17.5 7C17.2239 7 17 6.77614 17 6.5V4.5Z" fill="#212121"/>
<path d="M8.76698 6.90302C9.36346 6.04144 10.6371 6.04144 11.2336 6.90302L12.8579 9.24931C12.5293 9.35198 12.2139 9.48465 11.915 9.64411L10.4114 7.47223C10.2125 7.18504 9.788 7.18504 9.58918 7.47223L6.99774 11.2154C6.76816 11.547 7.00551 12 7.40884 12H9.5997C9.43776 12.3168 9.30564 12.6514 9.20703 13H7.40884C6.19885 13 5.48681 11.641 6.17555 10.6462L8.76698 6.90302Z" fill="#212121"/>
<path d="M14.5 19C16.9853 19 19 16.9853 19 14.5C19 12.0147 16.9853 10 14.5 10C12.0147 10 10 12.0147 10 14.5C10 16.9853 12.0147 19 14.5 19ZM16.3536 12.6464C16.5488 12.8417 16.5488 13.1583 16.3536 13.3536L15.2071 14.5L16.3536 15.6464C16.5488 15.8417 16.5488 16.1583 16.3536 16.3536C16.1583 16.5488 15.8417 16.5488 15.6464 16.3536L14.5 15.2071L13.3536 16.3536C13.1583 16.5488 12.8417 16.5488 12.6464 16.3536C12.4512 16.1583 12.4512 15.8417 12.6464 15.6464L13.7929 14.5L12.6464 13.3536C12.4512 13.1583 12.4512 12.8417 12.6464 12.6464C12.8417 12.4512 13.1583 12.4512 13.3536 12.6464L14.5 13.7929L15.6464 12.6464C15.8417 12.4512 16.1583 12.4512 16.3536 12.6464Z" fill="#212121"/>
</svg>
