<svg width="230" height="160" viewBox="0 0 230 160" fill="none" xmlns="http://www.w3.org/2000/svg">
<g clip-path="url(#clip0_3269_5265)">
<path d="M114.953 146C151.377 146 180.905 116.451 180.905 80C180.905 43.5492 151.377 14 114.953 14C78.528 14 49 43.5492 49 80C49 116.451 78.528 146 114.953 146Z" fill="#242424"/>
<g filter="url(#filter0_d_3269_5265)">
<path d="M171.716 128H57.7669C54.9272 128 52.5973 125.703 52.5973 122.903V35.897C52.5973 33.0973 54.9272 30.8001 57.7669 30.8001H171.716C174.556 30.8001 176.886 33.0973 176.886 35.897V122.903C176.886 125.703 174.556 128 171.716 128Z" fill="#4D4D4D"/>
</g>
<path d="M166.401 94.264H62.3539C60.6793 94.264 59.2958 92.8796 59.2958 91.2037V59.6538C59.2958 57.9779 60.6793 56.5935 62.3539 56.5935H166.401C168.076 56.5935 169.459 57.9779 169.459 59.6538V91.1309C169.459 92.8796 168.076 94.264 166.401 94.264Z" fill="#3A3A3A"/>
<path d="M77.5123 94.2558H151.432V65.5836C151.432 64.5067 150.491 63.6318 149.333 63.6318H79.6119C78.4535 63.6318 77.5123 64.5067 77.5123 65.5836V94.2558Z" fill="url(#paint0_linear_3269_5265)"/>
<path fill-rule="evenodd" clip-rule="evenodd" d="M87.9113 75.3922C87.9113 74.9898 88.2373 74.6636 88.6394 74.6636H107.279C107.681 74.6636 108.007 74.9898 108.007 75.3922C108.007 75.7947 107.681 76.1209 107.279 76.1209H88.6394C88.2373 76.1209 87.9113 75.7947 87.9113 75.3922Z" fill="#777777"/>
<path fill-rule="evenodd" clip-rule="evenodd" d="M87.9113 80.1288C87.9113 79.7264 88.2373 79.4001 88.6394 79.4001H101.236C101.638 79.4001 101.964 79.7264 101.964 80.1288C101.964 80.5312 101.638 80.8574 101.236 80.8574H88.6394C88.2373 80.8574 87.9113 80.5312 87.9113 80.1288Z" fill="#777777"/>
<path fill-rule="evenodd" clip-rule="evenodd" d="M87.9113 84.2089C87.9113 83.8065 88.2373 83.4803 88.6394 83.4803H139.68C140.082 83.4803 140.408 83.8065 140.408 84.2089C140.408 84.6113 140.082 84.9375 139.68 84.9375H88.6394C88.2373 84.9375 87.9113 84.6113 87.9113 84.2089Z" fill="#777777"/>
<path fill-rule="evenodd" clip-rule="evenodd" d="M87.9113 88.435C87.9113 88.0326 88.2373 87.7063 88.6394 87.7063H139.68C140.082 87.7063 140.408 88.0326 140.408 88.435C140.408 88.8374 140.082 89.1636 139.68 89.1636H88.6394C88.2373 89.1636 87.9113 88.8374 87.9113 88.435Z" fill="#777777"/>
<path fill-rule="evenodd" clip-rule="evenodd" d="M87.9113 92.661C87.9113 92.2586 88.2373 91.9324 88.6394 91.9324H139.68C140.082 91.9324 140.408 92.2586 140.408 92.661C140.408 93.0635 140.082 93.3897 139.68 93.3897H88.6394C88.2373 93.3897 87.9113 93.0635 87.9113 92.661Z" fill="#777777"/>
<path d="M168.294 108.035H78.3725C77.7172 108.035 77.1347 107.668 77.1347 107.142V105.829C77.1347 105.357 77.6444 104.936 78.3725 104.936H168.222C168.877 104.936 169.459 105.304 169.459 105.829V107.142C169.459 107.668 168.95 108.035 168.294 108.035Z" fill="#777777"/>
<path d="M137.568 117.143H78.3725C77.7172 117.143 77.1347 116.776 77.1347 116.25V114.937C77.1347 114.465 77.6444 114.044 78.3725 114.044H137.495C138.151 114.044 138.733 114.412 138.733 114.937V116.25C138.733 116.723 138.223 117.143 137.568 117.143Z" fill="#777777"/>
<path d="M142.664 46.9025H78.8087C77.935 46.9025 77.2069 46.3258 77.2069 45.6337V43.6151C77.2069 42.9231 77.935 42.3463 78.8087 42.3463H142.664C143.538 42.3463 144.266 42.9231 144.266 43.6151V45.6337C144.339 46.3258 143.611 46.9025 142.664 46.9025Z" fill="#777777"/>
<path d="M69.1253 49.963H61.0432C60.0967 49.963 59.2957 49.1615 59.2957 48.2143V40.0536C59.2957 39.1063 60.0967 38.3048 61.0432 38.3048H69.1253C70.0718 38.3048 70.8727 39.1063 70.8727 40.0536V48.1414C70.8727 49.1615 70.0718 49.963 69.1253 49.963Z" fill="#777777"/>
<path d="M65.8488 117.143C62.2083 117.143 59.2958 114.229 59.2958 110.586C59.2958 106.942 62.2083 104.028 65.8488 104.028C69.4894 104.028 72.4019 106.942 72.4019 110.586C72.4019 114.156 69.4894 117.143 65.8488 117.143Z" fill="#777777"/>
<path d="M69.7806 113.937C68.7612 112.917 67.8147 112.334 65.8488 112.334C63.81 112.334 62.9363 112.99 61.9169 113.937C62.8635 115.03 64.3197 115.759 65.9216 115.759C67.3778 115.759 68.6884 115.176 69.6349 114.229C69.6349 114.156 69.7806 114.083 69.7806 113.937C69.8534 113.937 69.7806 113.937 69.7806 113.937Z" fill="#4D4D4D"/>
<path d="M65.8482 111.096C67.0546 111.096 68.0326 110.117 68.0326 108.91C68.0326 107.702 67.0546 106.724 65.8482 106.724C64.6418 106.724 63.6639 107.702 63.6639 108.91C63.6639 110.117 64.6418 111.096 65.8482 111.096Z" fill="#4D4D4D"/>
<path fill-rule="evenodd" clip-rule="evenodd" d="M68.6159 41.6201H61.262V40.5272H68.6159V41.6201Z" fill="#4D4D4D"/>
<path fill-rule="evenodd" clip-rule="evenodd" d="M68.6159 44.5344H61.262V43.4415H68.6159V44.5344Z" fill="#4D4D4D"/>
<path fill-rule="evenodd" clip-rule="evenodd" d="M66.286 47.4493H61.262V46.3563H66.286V47.4493Z" fill="#4D4D4D"/>
</g>
<defs>
<filter id="filter0_d_3269_5265" x="30.5973" y="19.8001" width="168.289" height="141.2" filterUnits="userSpaceOnUse" color-interpolation-filters="sRGB">
<feFlood flood-opacity="0" result="BackgroundImageFix"/>
<feColorMatrix in="SourceAlpha" type="matrix" values="0 0 0 0 0 0 0 0 0 0 0 0 0 0 0 0 0 0 127 0" result="hardAlpha"/>
<feOffset dy="11"/>
<feGaussianBlur stdDeviation="11"/>
<feColorMatrix type="matrix" values="0 0 0 0 0 0 0 0 0 0 0 0 0 0 0 0 0 0 0.27 0"/>
<feBlend mode="normal" in2="BackgroundImageFix" result="effect1_dropShadow_3269_5265"/>
<feBlend mode="normal" in="SourceGraphic" in2="effect1_dropShadow_3269_5265" result="shape"/>
</filter>
<linearGradient id="paint0_linear_3269_5265" x1="114.472" y1="63.6318" x2="114.472" y2="94.2558" gradientUnits="userSpaceOnUse">
<stop stop-color="#FAFAFA"/>
<stop offset="0.828125" stop-color="#F5F2EC"/>
</linearGradient>
<clipPath id="clip0_3269_5265">
<rect width="230" height="160" fill="white"/>
</clipPath>
</defs>
</svg>
