<svg xmlns="http://www.w3.org/2000/svg" width="160" height="160" fill="none" viewBox="0 0 160 160">
  <path fill="#F0F0F0" d="M79.953 146c36.424 0 65.952-29.549 65.952-66 0-36.45-29.528-66-65.953-66C43.529 14 14 43.55 14 80c0 36.451 29.528 66 65.953 66Z"/>
  <g filter="url(#a)">
    <path fill="url(#b)" d="M136.716 128H22.766c-2.839 0-5.169-2.297-5.169-5.097V35.897c0-2.8 2.33-5.097 5.17-5.097h113.949c2.84 0 5.17 2.297 5.17 5.097v87.006c0 2.8-2.33 5.097-5.17 5.097Z"/>
  </g>
  <path fill="#E4E0DA" d="M131.401 94.264H27.353a3.078 3.078 0 0 1-3.058-3.06v-31.55a3.078 3.078 0 0 1 3.058-3.06h104.048a3.078 3.078 0 0 1 3.058 3.06v31.477c0 1.749-1.384 3.133-3.058 3.133Z"/>
  <mask id="d" width="111" height="39" x="24" y="56" maskUnits="userSpaceOnUse" style="mask-type:alpha">
    <path fill="#E4E0DA" d="M131.401 94.264H27.353a3.078 3.078 0 0 1-3.058-3.06v-31.55a3.078 3.078 0 0 1 3.058-3.06h104.048a3.078 3.078 0 0 1 3.058 3.06v31.477c0 1.749-1.384 3.133-3.058 3.133Z"/>
  </mask>
  <g filter="url(#c)" mask="url(#d)">
    <path fill="url(#e)" d="M116.546 96.45h-74.34V65.41c0-1.165.946-2.113 2.111-2.113h70.117c1.165 0 2.112.948 2.112 2.113v31.04Z"/>
  </g>
  <path fill="url(#f)" fill-rule="evenodd" d="M52.911 75.392c0-.402.326-.728.728-.728h18.64a.728.728 0 0 1 0 1.457h-18.64a.728.728 0 0 1-.728-.729Z" clip-rule="evenodd"/>
  <path fill="url(#g)" fill-rule="evenodd" d="M52.911 80.129c0-.402.326-.729.728-.729h12.597a.728.728 0 0 1 0 1.458H53.639a.728.728 0 0 1-.728-.729Z" clip-rule="evenodd"/>
  <path fill="url(#h)" fill-rule="evenodd" d="M52.911 84.21a.73.73 0 0 1 .728-.73h51.041a.728.728 0 0 1 0 1.458H53.64a.728.728 0 0 1-.729-.729Z" clip-rule="evenodd"/>
  <path fill="url(#i)" fill-rule="evenodd" d="M52.911 88.435c0-.402.326-.728.728-.728h51.041a.728.728 0 0 1 0 1.457H53.64a.728.728 0 0 1-.729-.729Z" clip-rule="evenodd"/>
  <path fill="url(#j)" fill-rule="evenodd" d="M52.911 92.661c0-.402.326-.728.728-.728h51.041a.728.728 0 0 1 0 1.457H53.64a.728.728 0 0 1-.729-.729Z" clip-rule="evenodd"/>
  <path fill="#D2D0CD" d="M107.664 46.903H43.808c-.873 0-1.602-.577-1.602-1.269v-2.019c0-.692.729-1.268 1.602-1.268h63.856c.874 0 1.602.576 1.602 1.268v2.02c.072.691-.656 1.268-1.602 1.268Z"/>
  <path fill="#EDE5DA" d="M133.294 108.035H43.373c-.656 0-1.238-.367-1.238-.892v-1.314c0-.472.51-.892 1.238-.892h89.849c.655 0 1.237.367 1.237.892v1.314c0 .525-.509.892-1.165.892Zm-30.726 9.108H43.373c-.656 0-1.238-.367-1.238-.893v-1.313c0-.472.51-.893 1.238-.893h59.122c.656 0 1.238.368 1.238.893v1.313c0 .473-.51.893-1.165.893Zm-68.443-67.18h-8.082a1.772 1.772 0 0 1-1.748-1.748v-8.161c0-.947.801-1.749 1.748-1.749h8.082c.947 0 1.747.802 1.747 1.749v8.088c0 1.02-.8 1.821-1.747 1.821Z"/>
  <path fill="#D9D2C7" d="M30.848 117.144a6.528 6.528 0 0 1-6.553-6.558 6.528 6.528 0 0 1 6.553-6.558 6.528 6.528 0 0 1 6.553 6.558c0 3.57-2.912 6.558-6.553 6.558Z"/>
  <path fill="#fff" d="M34.78 113.937c-1.02-1.02-1.966-1.603-3.932-1.603-2.038 0-2.912.656-3.931 1.603a5.33 5.33 0 0 0 4.004 1.822 5.225 5.225 0 0 0 3.714-1.53c0-.073.145-.146.145-.292.073 0 0 0 0 0Zm-3.932-2.842a2.185 2.185 0 1 0 0-4.373 2.185 2.185 0 0 0 0 4.373Z"/>
  <path fill="#BCB9B3" fill-rule="evenodd" d="M33.616 41.62h-7.354v-1.093h7.354v1.093Zm0 2.915h-7.354v-1.093h7.354v1.093Zm-2.33 2.915h-5.024v-1.094h5.024v1.093Z" clip-rule="evenodd"/>
  <defs>
    <linearGradient id="b" x1="79.701" x2="79.701" y1="28.552" y2="129.048" gradientUnits="userSpaceOnUse">
      <stop stop-color="#FDFEFF"/>
      <stop offset=".996" stop-color="#F5F2EC"/>
    </linearGradient>
    <linearGradient id="e" x1="79.351" x2="79.351" y1="62.531" y2="96.808" gradientUnits="userSpaceOnUse">
      <stop stop-color="#FDFEFF"/>
      <stop offset=".996" stop-color="#F5F2EC"/>
    </linearGradient>
    <linearGradient id="f" x1="72.21" x2="53.567" y1="74.664" y2="75.559" gradientUnits="userSpaceOnUse">
      <stop stop-color="#606060"/>
      <stop offset="1" stop-color="#7B7B7B"/>
    </linearGradient>
    <linearGradient id="g" x1="66.406" x2="53.354" y1="79.4" y2="79.839" gradientUnits="userSpaceOnUse">
      <stop stop-color="#606060"/>
      <stop offset="1" stop-color="#7B7B7B"/>
    </linearGradient>
    <linearGradient id="h" x1="103.326" x2="55.267" y1="83.481" y2="89.508" gradientUnits="userSpaceOnUse">
      <stop stop-color="#606060"/>
      <stop offset="1" stop-color="#7B7B7B"/>
    </linearGradient>
    <linearGradient id="i" x1="103.326" x2="55.267" y1="87.707" y2="93.734" gradientUnits="userSpaceOnUse">
      <stop stop-color="#606060"/>
      <stop offset="1" stop-color="#7B7B7B"/>
    </linearGradient>
    <linearGradient id="j" x1="103.326" x2="55.267" y1="91.933" y2="97.96" gradientUnits="userSpaceOnUse">
      <stop stop-color="#606060"/>
      <stop offset="1" stop-color="#7B7B7B"/>
    </linearGradient>
    <filter id="a" width="156.289" height="129.2" x="1.597" y="22.8" color-interpolation-filters="sRGB" filterUnits="userSpaceOnUse">
      <feFlood flood-opacity="0" result="BackgroundImageFix"/>
      <feColorMatrix in="SourceAlpha" result="hardAlpha" values="0 0 0 0 0 0 0 0 0 0 0 0 0 0 0 0 0 0 127 0"/>
      <feOffset dy="8"/>
      <feGaussianBlur stdDeviation="8"/>
      <feColorMatrix values="0 0 0 0 0.576471 0 0 0 0 0.501961 0 0 0 0 0.396078 0 0 0 0.24 0"/>
      <feBlend in2="BackgroundImageFix" result="effect1_dropShadow_3269_5263"/>
      <feBlend in="SourceGraphic" in2="effect1_dropShadow_3269_5263" result="shape"/>
    </filter>
    <filter id="c" width="118.34" height="77.153" x="20.206" y="52.297" color-interpolation-filters="sRGB" filterUnits="userSpaceOnUse">
      <feFlood flood-opacity="0" result="BackgroundImageFix"/>
      <feColorMatrix in="SourceAlpha" result="hardAlpha" values="0 0 0 0 0 0 0 0 0 0 0 0 0 0 0 0 0 0 127 0"/>
      <feOffset dy="11"/>
      <feGaussianBlur stdDeviation="11"/>
      <feColorMatrix values="0 0 0 0 0.576471 0 0 0 0 0.501961 0 0 0 0 0.396078 0 0 0 0.37 0"/>
      <feBlend in2="BackgroundImageFix" result="effect1_dropShadow_3269_5263"/>
      <feBlend in="SourceGraphic" in2="effect1_dropShadow_3269_5263" result="shape"/>
    </filter>
  </defs>
</svg>
