<svg width="230" height="177" viewBox="0 0 230 177" fill="none" xmlns="http://www.w3.org/2000/svg">
<path d="M107 144C141.266 144 169 115.998 169 81.4496C169 46.9009 141.266 19 107 19C72.7342 19 45 47.0016 45 81.5504C45 116.2 72.8347 144 107 144Z" fill="#F4F4F4"/>
<g filter="url(#filter0_dd_6389_819)">
<rect x="70" y="12" width="68" height="145" rx="4" fill="url(#paint0_linear_6389_819)"/>
<rect x="71" y="13" width="66" height="143" rx="3" stroke="url(#paint1_linear_6389_819)" stroke-opacity="0.4" stroke-width="2"/>
</g>
<path d="M82.5 30C84.9853 30 87 27.9853 87 25.5C87 23.0147 84.9853 21 82.5 21C80.0147 21 78 23.0147 78 25.5C78 27.9853 80.0147 30 82.5 30Z" fill="#828282"/>
<path d="M127.482 27H92.5184C92.2304 27 92 26.7073 92 26.3415V24.6585C92 24.2927 92.2304 24 92.5184 24H127.482C127.77 24 128 24.2927 128 24.6585V26.3415C128 26.7073 127.77 27 127.482 27Z" fill="#828282"/>
<path d="M82.5 47C84.9853 47 87 44.9853 87 42.5C87 40.0147 84.9853 38 82.5 38C80.0147 38 78 40.0147 78 42.5C78 44.9853 80.0147 47 82.5 47Z" fill="#828282"/>
<path d="M127.482 44H92.5184C92.2304 44 92 43.7073 92 43.3415V41.6585C92 41.2927 92.2304 41 92.5184 41H127.482C127.77 41 128 41.2927 128 41.6585V43.3415C128 43.7073 127.77 44 127.482 44Z" fill="#828282"/>
<path d="M82.5 64C84.9853 64 87 61.9853 87 59.5C87 57.0147 84.9853 55 82.5 55C80.0147 55 78 57.0147 78 59.5C78 61.9853 80.0147 64 82.5 64Z" fill="#828282"/>
<path d="M127.482 61H92.5184C92.2304 61 92 60.7073 92 60.3415V58.6585C92 58.2927 92.2304 58 92.5184 58H127.482C127.77 58 128 58.2927 128 58.6585V60.3415C128 60.7073 127.77 61 127.482 61Z" fill="#828282"/>
<path d="M82.5 81C84.9853 81 87 78.9853 87 76.5C87 74.0147 84.9853 72 82.5 72C80.0147 72 78 74.0147 78 76.5C78 78.9853 80.0147 81 82.5 81Z" fill="#828282"/>
<path d="M127.482 78H92.5184C92.2304 78 92 77.7073 92 77.3415V75.6585C92 75.2927 92.2304 75 92.5184 75H127.482C127.77 75 128 75.2927 128 75.6585V77.3415C128 77.7073 127.77 78 127.482 78Z" fill="#828282"/>
<path d="M82.5 98C84.9853 98 87 95.9853 87 93.5C87 91.0147 84.9853 89 82.5 89C80.0147 89 78 91.0147 78 93.5C78 95.9853 80.0147 98 82.5 98Z" fill="#828282"/>
<path d="M127.482 95H92.5184C92.2304 95 92 94.7073 92 94.3415V92.6585C92 92.2927 92.2304 92 92.5184 92H127.482C127.77 92 128 92.2927 128 92.6585V94.3415C128 94.7073 127.77 95 127.482 95Z" fill="#828282"/>
<path d="M82.5 115C84.9853 115 87 112.985 87 110.5C87 108.015 84.9853 106 82.5 106C80.0147 106 78 108.015 78 110.5C78 112.985 80.0147 115 82.5 115Z" fill="#828282"/>
<path d="M127.482 112H92.5184C92.2304 112 92 111.707 92 111.341V109.659C92 109.293 92.2304 109 92.5184 109H127.482C127.77 109 128 109.293 128 109.659V111.341C128 111.707 127.77 112 127.482 112Z" fill="#828282"/>
<path d="M82.5 132C84.9853 132 87 129.985 87 127.5C87 125.015 84.9853 123 82.5 123C80.0147 123 78 125.015 78 127.5C78 129.985 80.0147 132 82.5 132Z" fill="#828282"/>
<path d="M127.482 129H92.5184C92.2304 129 92 128.707 92 128.341V126.659C92 126.293 92.2304 126 92.5184 126H127.482C127.77 126 128 126.293 128 126.659V128.341C128 128.707 127.77 129 127.482 129Z" fill="#828282"/>
<path d="M82.5 149C84.9853 149 87 146.985 87 144.5C87 142.015 84.9853 140 82.5 140C80.0147 140 78 142.015 78 144.5C78 146.985 80.0147 149 82.5 149Z" fill="#828282"/>
<path d="M127.482 146H92.5184C92.2304 146 92 145.707 92 145.341V143.659C92 143.293 92.2304 143 92.5184 143H127.482C127.77 143 128 143.293 128 143.659V145.341C128 145.707 127.77 146 127.482 146Z" fill="#828282"/>
<g filter="url(#filter1_dd_6389_819)">
<rect x="74" y="68" width="60" height="17" rx="4" fill="url(#paint2_linear_6389_819)"/>
<rect x="74.5" y="68.5" width="59" height="16" rx="3.5" stroke="url(#paint3_linear_6389_819)"/>
</g>
<path d="M82.5 81C84.9853 81 87 78.9853 87 76.5C87 74.0147 84.9853 72 82.5 72C80.0147 72 78 74.0147 78 76.5C78 78.9853 80.0147 81 82.5 81Z" fill="#765C10"/>
<path d="M127.482 78H92.5184C92.2304 78 92 77.7073 92 77.3415V75.6585C92 75.2927 92.2304 75 92.5184 75H127.482C127.77 75 128 75.2927 128 75.6585V77.3415C128 77.7073 127.77 78 127.482 78Z" fill="#765C10"/>
<rect x="147" y="20" width="12" height="2" rx="1" fill="#8B8B8B"/>
<rect x="147" y="25" width="12" height="2" rx="1" fill="#8B8B8B"/>
<rect x="147" y="30" width="12" height="2" rx="1" fill="#8B8B8B"/>
<path d="M139.586 96.1581C139.103 95.6516 138.68 95.2133 138.304 94.8474C137.908 94.4623 137.899 93.8291 138.284 93.4336C138.644 93.0629 139.223 93.0325 139.62 93.3473L139.696 93.4156L140.334 94.0537C140.556 94.2817 140.789 94.5241 141.031 94.7782L139.586 96.1581ZM140.999 96.1916C140.6 96.5724 139.967 96.5573 139.586 96.1581L141.031 94.7782C141.412 95.1777 141.398 95.8107 140.999 96.1916ZM146.343 101.475C145.992 101.855 145.414 101.901 145.009 101.596L144.93 101.53L144.192 100.838C143.473 100.155 142.811 99.4986 142.201 98.8794C141.813 98.4862 141.818 97.8532 142.21 97.4657C142.579 97.1026 143.158 97.084 143.548 97.4073L143.623 97.4765L144.237 98.0943C144.658 98.5133 145.102 98.9459 145.569 99.3897L146.287 100.063L146.359 100.136C146.694 100.516 146.694 101.095 146.343 101.475ZM152.2 106.182C151.894 106.598 151.326 106.708 150.889 106.45L150.803 106.393L150.011 105.802C149.233 105.21 148.495 104.622 147.795 104.042C147.37 103.689 147.311 103.059 147.663 102.634C148.015 102.209 148.645 102.15 149.07 102.503C149.975 103.253 150.946 104.017 151.988 104.784C152.432 105.111 152.527 105.737 152.2 106.182ZM158.552 110.18C158.278 110.659 157.667 110.825 157.188 110.551C156.332 110.061 155.508 109.564 154.716 109.064L153.935 108.564L153.852 108.503C153.458 108.185 153.36 107.614 153.642 107.181C153.924 106.747 154.485 106.605 154.935 106.837L155.024 106.888L155.782 107.373C156.55 107.858 157.349 108.34 158.181 108.816C158.659 109.09 158.826 109.701 158.552 110.18ZM165.314 113.446C165.108 113.921 164.578 114.155 164.095 114.001L164 113.964L163.109 113.57C162.522 113.305 161.947 113.036 161.384 112.763L160.548 112.351L160.459 112.302C160.031 112.03 159.87 111.473 160.101 111.01C160.348 110.516 160.949 110.317 161.442 110.564C162.245 110.966 163.074 111.361 163.93 111.748L164.797 112.131L164.888 112.177C165.33 112.424 165.52 112.972 165.314 113.446ZM171.126 116.641C170.196 116.343 169.291 116.034 168.408 115.716L167.533 115.394L167.44 115.353C166.986 115.128 166.766 114.592 166.948 114.107C167.141 113.59 167.717 113.328 168.234 113.522C169.359 113.944 170.526 114.35 171.734 114.737L171.429 115.689L171.126 116.641ZM172.381 115.994C172.213 116.519 171.651 116.809 171.126 116.641L171.734 114.737C172.259 114.905 172.549 115.468 172.381 115.994ZM179.656 117.864C179.544 118.37 179.068 118.7 178.565 118.64L178.464 118.623L177.52 118.407C176.895 118.26 176.28 118.109 175.673 117.953L174.77 117.714L174.673 117.683C174.2 117.502 173.931 116.988 174.065 116.488C174.208 115.956 174.756 115.64 175.289 115.784C176.164 116.02 177.059 116.246 177.975 116.461L178.898 116.671L178.996 116.699C179.477 116.858 179.768 117.359 179.656 117.864ZM185.205 118.86C185.119 119.405 184.607 119.776 184.063 119.689C183.745 119.639 183.429 119.587 183.115 119.534L182.182 119.371L182.082 119.347C181.595 119.207 181.284 118.719 181.375 118.21C181.473 117.666 181.992 117.305 182.535 117.403C183.141 117.512 183.754 117.617 184.376 117.716C184.92 117.803 185.292 118.315 185.205 118.86Z" fill="#787672"/>
<g filter="url(#filter2_dd_6389_819)">
<path d="M145.325 87.4545C145.298 87.732 145.16 87.9842 144.994 88.2077C144.848 88.4035 144.681 88.5649 144.354 88.7263L138.604 91.0743C137.728 91.445 136.853 91.9393 136.228 92.5572C135.728 93.0511 135.309 93.5451 135.096 94.1654C134.987 94.4841 134.912 94.8152 134.782 95.126L132.603 100.342C132.393 101.069 131.654 101.446 131.053 101.33C130.825 101.286 130.601 101.094 130.41 100.962V100.962C130.109 100.753 130.031 100.415 129.894 100.075L121.345 78.9703C121.24 78.7124 121.083 78.4716 121.024 78.1998C120.996 78.0699 120.992 77.9395 121.014 77.8203C121.061 77.5605 121.251 77.3408 121.473 77.1987C121.784 77.0006 122.236 76.9207 122.688 77.0995L143.564 85.3261C144.476 85.6855 145.369 86.3701 145.332 87.3496C145.33 87.3849 145.328 87.4198 145.325 87.4545Z" fill="url(#paint4_linear_6389_819)"/>
<path d="M121.742 77.6201C121.924 77.5039 122.209 77.4477 122.504 77.5645H122.505L143.38 85.791C143.794 85.954 144.178 86.1824 144.447 86.4561C144.711 86.7242 144.844 87.013 144.832 87.3301C144.831 87.3564 144.83 87.3823 144.827 87.4072C144.813 87.5517 144.737 87.7159 144.593 87.9092C144.493 88.0434 144.387 88.15 144.143 88.2725L138.414 90.6113L138.408 90.6143C137.505 90.9967 136.566 91.5206 135.877 92.2012C135.365 92.7074 134.874 93.2695 134.623 94.0039C134.565 94.1748 134.514 94.3541 134.469 94.5049C134.421 94.6629 134.376 94.8031 134.321 94.9336L132.142 100.149L132.13 100.176L132.122 100.203C131.987 100.671 131.506 100.908 131.148 100.839C131.129 100.835 131.079 100.817 130.988 100.759C130.882 100.69 130.829 100.644 130.695 100.551C130.639 100.512 130.593 100.456 130.541 100.35C130.474 100.212 130.448 100.111 130.357 99.8877L121.808 78.7822C121.749 78.6366 121.667 78.4774 121.619 78.377C121.564 78.2598 121.53 78.1728 121.513 78.0938C121.497 78.0222 121.497 77.9581 121.506 77.9092C121.52 77.8309 121.593 77.7155 121.742 77.6201Z" stroke="url(#paint5_linear_6389_819)"/>
</g>
<defs>
<filter id="filter0_dd_6389_819" x="54" y="0" width="100" height="177" filterUnits="userSpaceOnUse" color-interpolation-filters="sRGB">
<feFlood flood-opacity="0" result="BackgroundImageFix"/>
<feColorMatrix in="SourceAlpha" type="matrix" values="0 0 0 0 0 0 0 0 0 0 0 0 0 0 0 0 0 0 127 0" result="hardAlpha"/>
<feOffset dy="4"/>
<feGaussianBlur stdDeviation="8"/>
<feComposite in2="hardAlpha" operator="out"/>
<feColorMatrix type="matrix" values="0 0 0 0 0 0 0 0 0 0 0 0 0 0 0 0 0 0 0.14 0"/>
<feBlend mode="normal" in2="BackgroundImageFix" result="effect1_dropShadow_6389_819"/>
<feColorMatrix in="SourceAlpha" type="matrix" values="0 0 0 0 0 0 0 0 0 0 0 0 0 0 0 0 0 0 127 0" result="hardAlpha"/>
<feOffset dy="1"/>
<feGaussianBlur stdDeviation="0.5"/>
<feComposite in2="hardAlpha" operator="out"/>
<feColorMatrix type="matrix" values="0 0 0 0 0 0 0 0 0 0 0 0 0 0 0 0 0 0 0.08 0"/>
<feBlend mode="normal" in2="effect1_dropShadow_6389_819" result="effect2_dropShadow_6389_819"/>
<feBlend mode="normal" in="SourceGraphic" in2="effect2_dropShadow_6389_819" result="shape"/>
</filter>
<filter id="filter1_dd_6389_819" x="62" y="54" width="92" height="49" filterUnits="userSpaceOnUse" color-interpolation-filters="sRGB">
<feFlood flood-opacity="0" result="BackgroundImageFix"/>
<feColorMatrix in="SourceAlpha" type="matrix" values="0 0 0 0 0 0 0 0 0 0 0 0 0 0 0 0 0 0 127 0" result="hardAlpha"/>
<feOffset dx="4" dy="2"/>
<feGaussianBlur stdDeviation="8"/>
<feComposite in2="hardAlpha" operator="out"/>
<feColorMatrix type="matrix" values="0 0 0 0 0.98415 0 0 0 0 0.859671 0 0 0 0 0.486234 0 0 0 1 0"/>
<feBlend mode="normal" in2="BackgroundImageFix" result="effect1_dropShadow_6389_819"/>
<feColorMatrix in="SourceAlpha" type="matrix" values="0 0 0 0 0 0 0 0 0 0 0 0 0 0 0 0 0 0 127 0" result="hardAlpha"/>
<feOffset dy="2"/>
<feGaussianBlur stdDeviation="4"/>
<feComposite in2="hardAlpha" operator="out"/>
<feColorMatrix type="matrix" values="0 0 0 0 0 0 0 0 0 0 0 0 0 0 0 0 0 0 0.08 0"/>
<feBlend mode="normal" in2="effect1_dropShadow_6389_819" result="effect2_dropShadow_6389_819"/>
<feBlend mode="normal" in="SourceGraphic" in2="effect2_dropShadow_6389_819" result="shape"/>
</filter>
<filter id="filter2_dd_6389_819" x="105" y="65" width="56.3328" height="56.3506" filterUnits="userSpaceOnUse" color-interpolation-filters="sRGB">
<feFlood flood-opacity="0" result="BackgroundImageFix"/>
<feColorMatrix in="SourceAlpha" type="matrix" values="0 0 0 0 0 0 0 0 0 0 0 0 0 0 0 0 0 0 127 0" result="hardAlpha"/>
<feOffset dy="4"/>
<feGaussianBlur stdDeviation="8"/>
<feComposite in2="hardAlpha" operator="out"/>
<feColorMatrix type="matrix" values="0 0 0 0 0 0 0 0 0 0 0 0 0 0 0 0 0 0 0.64 0"/>
<feBlend mode="normal" in2="BackgroundImageFix" result="effect1_dropShadow_6389_819"/>
<feColorMatrix in="SourceAlpha" type="matrix" values="0 0 0 0 0 0 0 0 0 0 0 0 0 0 0 0 0 0 127 0" result="hardAlpha"/>
<feOffset dy="1"/>
<feGaussianBlur stdDeviation="0.5"/>
<feComposite in2="hardAlpha" operator="out"/>
<feColorMatrix type="matrix" values="0 0 0 0 0 0 0 0 0 0 0 0 0 0 0 0 0 0 0.04 0"/>
<feBlend mode="normal" in2="effect1_dropShadow_6389_819" result="effect2_dropShadow_6389_819"/>
<feBlend mode="normal" in="SourceGraphic" in2="effect2_dropShadow_6389_819" result="shape"/>
</filter>
<linearGradient id="paint0_linear_6389_819" x1="115.674" y1="12" x2="169.75" y2="122.196" gradientUnits="userSpaceOnUse">
<stop offset="0.00636166" stop-color="#ADACAC"/>
<stop offset="0.464503" stop-color="#F6EDD0"/>
<stop offset="1" stop-color="#ADACAC"/>
</linearGradient>
<linearGradient id="paint1_linear_6389_819" x1="109.5" y1="21.5" x2="116.883" y2="156.294" gradientUnits="userSpaceOnUse">
<stop offset="0.109631" stop-color="#EEEEEE"/>
<stop offset="0.409884" stop-color="#FFDF7D"/>
<stop offset="1" stop-color="#EEEEEE"/>
</linearGradient>
<linearGradient id="paint2_linear_6389_819" x1="124.154" y1="69.5985" x2="123.987" y2="83.4531" gradientUnits="userSpaceOnUse">
<stop stop-color="#FFD452"/>
<stop offset="1" stop-color="#FFE28A"/>
</linearGradient>
<linearGradient id="paint3_linear_6389_819" x1="74" y1="76.5" x2="134" y2="76.5" gradientUnits="userSpaceOnUse">
<stop stop-color="#FFEAAA"/>
<stop offset="1" stop-color="#FFE7A1"/>
</linearGradient>
<linearGradient id="paint4_linear_6389_819" x1="134.5" y1="90.5" x2="121.023" y2="76.9769" gradientUnits="userSpaceOnUse">
<stop stop-color="#545151"/>
<stop offset="1" stop-color="#BBAE87"/>
</linearGradient>
<linearGradient id="paint5_linear_6389_819" x1="142.5" y1="92" x2="133.819" y2="71.5566" gradientUnits="userSpaceOnUse">
<stop offset="0.125856" stop-color="#5B5956"/>
<stop offset="1" stop-color="#FFF7DE"/>
</linearGradient>
</defs>
</svg>
