<svg width="24" height="24" viewBox="0 0 24 24" fill="none" xmlns="http://www.w3.org/2000/svg">
<path d="M19.37 18.486L17.25 18.489L17.255 18.495H6.755C5.895 18.495 5.065 18.153 4.455 17.543C3.845 16.933 3.503 16.105 3.503 15.243V6.623C3.061 6.779 2.682 7.065 2.413 7.446C2.144 7.827 2.00001 8.281 2 8.746V15.236C2 16.496 2.499 17.705 3.39 18.596C4.28 19.486 5.49 19.986 6.75 19.986H17.25C18.23 19.986 19.062 19.362 19.37 18.486Z" fill="black"/>
<path d="M10.8131 13.5684C10.8131 14.0867 11.2336 14.5067 11.752 14.5059L15.0313 14.501C15.3938 14.5004 15.6874 14.2064 15.6874 13.8439C15.6874 13.4809 15.3932 13.1867 15.0303 13.1867H12.4134V7.80381C12.4134 7.36047 12.0529 7.00165 11.6096 7.00367C11.1691 7.00568 10.8131 7.36333 10.8131 7.80381V13.5684Z" fill="black"/>
<path d="M22.001 6.25C22.001 5.955 21.943 5.662 21.83 5.389H21.832C21.719 5.116 21.553 4.868 21.344 4.659C21.135 4.45 20.887 4.284 20.614 4.171C20.341 4.0582 20.049 4 19.753 4H6.753C6.458 4 6.165 4.058 5.892 4.171C5.619 4.284 5.371 4.45 5.162 4.659C4.953 4.868 4.7868 5.116 4.674 5.389C4.5612 5.662 4.503 5.955 4.503 6.25V15.25C4.503 15.846 4.74 16.418 5.162 16.84C5.582 17.262 6.155 17.499 6.752 17.499H19.752C20.348 17.499 20.92 17.262 21.342 16.84C21.764 16.42 22.001 15.847 22.001 15.25V6.25ZM20.5 6.249V15.249C20.5 15.448 20.421 15.638 20.28 15.779C20.14 15.92 19.949 15.999 19.75 15.999H6.75C6.336 15.999 6 15.663 6 15.249V6.249C6 6.05 6.08 5.86 6.22 5.719C6.36 5.578 6.551 5.499 6.75 5.499H19.75C19.949 5.499 20.139 5.578 20.28 5.719C20.421 5.859 20.5 6.05 20.5 6.249Z" fill="black"/>
</svg>
