<svg width="20" height="20" viewBox="0 0 20 20" fill="none" xmlns="http://www.w3.org/2000/svg">
<path d="M15.5389 14.874L13.9475 14.8763L13.9513 14.8808H6.06937C5.42381 14.8808 4.80076 14.624 4.34286 14.1661C3.88496 13.7082 3.62824 13.0867 3.62824 12.4396V5.96897C3.29645 6.08608 3.01195 6.30076 2.81002 6.58676C2.60809 6.87276 2.50001 7.21356 2.5 7.56262V12.4344C2.5 13.3802 2.87458 14.2878 3.54341 14.9566C4.2115 15.6247 5.11979 16 6.06562 16H13.9475C14.6832 16 15.3077 15.5316 15.5389 14.874Z" fill="black"/>
<path d="M9.11577 11.1826C9.11577 11.5716 9.43149 11.8869 9.82057 11.8863L12.2822 11.8826C12.5544 11.8822 12.7748 11.6615 12.7748 11.3893C12.7748 11.1169 12.5539 10.8961 12.2815 10.8961H10.317V6.85534C10.317 6.52255 10.0465 6.25319 9.71367 6.25471C9.38302 6.25622 9.11577 6.52469 9.11577 6.85534V11.1826Z" fill="black"/>
<path d="M17.5139 5.68898C17.5139 5.46753 17.4703 5.24759 17.3855 5.04266H17.387C17.3022 4.83773 17.1776 4.65157 17.0207 4.49468C16.8638 4.3378 16.6777 4.21319 16.4727 4.12836C16.2678 4.04369 16.0486 4 15.8264 4H6.06787C5.84643 4 5.62649 4.04354 5.42156 4.12836C5.21663 4.21319 5.03046 4.3378 4.87358 4.49468C4.71669 4.65157 4.59193 4.83773 4.50726 5.04266C4.42258 5.24759 4.37889 5.46753 4.37889 5.68898V12.4449C4.37889 12.8923 4.5568 13.3217 4.87358 13.6384C5.18885 13.9552 5.61898 14.1331 6.06712 14.1331H15.8257C16.2731 14.1331 16.7024 13.9552 17.0192 13.6384C17.336 13.3232 17.5139 12.893 17.5139 12.4449V5.68898ZM16.3872 5.68823V12.4441C16.3872 12.5935 16.3278 12.7361 16.222 12.842C16.1169 12.9478 15.9735 13.0071 15.8242 13.0071H6.06562C5.75485 13.0071 5.50263 12.7549 5.50263 12.4441V5.68823C5.50263 5.53885 5.56268 5.39622 5.66777 5.29038C5.77286 5.18454 5.91624 5.12523 6.06562 5.12523H15.8242C15.9735 5.12523 16.1162 5.18454 16.222 5.29038C16.3278 5.39547 16.3872 5.53885 16.3872 5.68823Z" fill="black"/>
</svg>
