<svg width="16" height="16" viewBox="0 0 16 16" fill="none" xmlns="http://www.w3.org/2000/svg">
<path d="M8.00949 1.60303C7.95796 1.60303 7.90655 1.60347 7.85528 1.60435C7.8302 1.60216 7.80492 1.60269 7.77991 1.60596C4.10854 1.70015 1.01899 4.07815 1.01899 7.16122C1.01899 8.64852 1.74924 9.98191 2.90709 10.9639L1.04132 14.4813C0.964125 14.6268 0.997459 14.8068 1.12155 14.9145C1.24564 15.0222 1.4273 15.0288 1.55878 14.9304L5.15581 12.2379C6.02847 12.5478 6.99462 12.7194 8.00949 12.7194C11.7835 12.7194 15 10.3081 15 7.16122C15 4.01436 11.7835 1.60303 8.00949 1.60303ZM8 4.11209C8.27614 4.11209 8.5 4.33595 8.5 4.61209V7.78505C8.5 8.06119 8.27614 8.28505 8 8.28505C7.72386 8.28505 7.5 8.06119 7.5 7.78505V4.61209C7.5 4.33595 7.72386 4.11209 8 4.11209ZM8 10.1523C7.72386 10.1523 7.5 9.92841 7.5 9.65226C7.5 9.37612 7.72386 9.15226 8 9.15226C8.27614 9.15226 8.5 9.37612 8.5 9.65226C8.5 9.92841 8.27614 10.1523 8 10.1523Z" fill="#212121"/>
</svg>
