<svg width="20" height="20" viewBox="0 0 20 20" fill="none" xmlns="http://www.w3.org/2000/svg">
<path d="M10.0108 2.68921C9.95195 2.68921 9.8932 2.68971 9.8346 2.69072C9.80594 2.68821 9.77705 2.68882 9.74846 2.69256C5.55262 2.80021 2.0217 5.51792 2.0217 9.04143C2.0217 10.7412 2.85627 12.2651 4.17953 13.3874L2.04722 17.4072C1.959 17.5735 1.9971 17.7792 2.13892 17.9023C2.28074 18.0254 2.48834 18.033 2.6386 17.9205L6.74949 14.8434C7.74683 15.1975 8.851 15.3936 10.0108 15.3936C14.324 15.3936 18 12.6378 18 9.04143C18 5.44502 14.324 2.68921 10.0108 2.68921ZM9.99999 5.73185C10.2761 5.73185 10.5 5.95571 10.5 6.23185V9.8581C10.5 10.1342 10.2761 10.3581 9.99999 10.3581C9.72385 10.3581 9.49999 10.1342 9.49999 9.85809V6.23185C9.49999 5.95571 9.72385 5.73185 9.99999 5.73185ZM10 12.2133C9.72386 12.2133 9.5 11.9894 9.5 11.7133C9.5 11.4371 9.72386 11.2133 10 11.2133C10.2761 11.2133 10.5 11.4371 10.5 11.7133C10.5 11.9894 10.2761 12.2133 10 12.2133Z" fill="#212121"/>
</svg>
