<svg width="24" height="24" viewBox="0 0 24 24" fill="none" xmlns="http://www.w3.org/2000/svg">
<path d="M12.0136 2.86157C11.9399 2.86157 11.8665 2.8622 11.7933 2.86346C11.7574 2.86033 11.7213 2.86109 11.6856 2.86577C6.44077 3.00032 2.02712 6.39747 2.02712 10.8018C2.02712 12.9266 3.07034 14.8314 4.72442 16.2343L2.05903 21.2591C1.94875 21.467 1.99637 21.7241 2.17365 21.878C2.35092 22.0318 2.61043 22.0413 2.79825 21.9007L7.93687 18.0542C9.18353 18.497 10.5637 18.7421 12.0136 18.7421C17.405 18.7421 22 15.2974 22 10.8018C22 6.30633 17.405 2.86157 12.0136 2.86157ZM12 6.53974C12.4142 6.53974 12.75 6.87553 12.75 7.28974V11.8225C12.75 12.2368 12.4142 12.5725 12 12.5725C11.5858 12.5725 11.25 12.2368 11.25 11.8225V7.28974C11.25 6.87553 11.5858 6.53974 12 6.53974ZM12 15.1378C11.5858 15.1378 11.25 14.802 11.25 14.3878C11.25 13.9736 11.5858 13.6378 12 13.6378C12.4142 13.6378 12.75 13.9736 12.75 14.3878C12.75 14.802 12.4142 15.1378 12 15.1378Z" fill="#212121"/>
</svg>
