<svg width="24" height="24" viewBox="0 0 24 24" fill="none" xmlns="http://www.w3.org/2000/svg">
<path d="M12 6.68572C12.414 6.68572 12.7496 7.02131 12.7496 7.43528V11.8117C12.7496 12.2257 12.414 12.5613 12 12.5613C11.586 12.5613 11.2504 12.2257 11.2504 11.8117V7.43528C11.2504 7.02131 11.586 6.68572 12 6.68572Z" fill="#212121"/>
<path d="M12.75 14.2499C12.75 14.6641 12.4142 14.9999 12 14.9999C11.5858 14.9999 11.25 14.6641 11.25 14.2499C11.25 13.8357 11.5858 13.4999 12 13.4999C12.4142 13.4999 12.75 13.8357 12.75 14.2499Z" fill="#212121"/>
<path d="M12.002 2.99536C11.9327 2.99536 11.8636 2.99592 11.7946 2.99704C11.7512 2.99419 11.7076 2.99511 11.6643 2.99981C6.48908 3.13677 2.02675 6.47728 2.02675 10.9249C2.02675 12.9977 3.01844 14.8501 4.58124 16.2312L2.08854 20.8964C1.92595 21.2007 1.99192 21.5767 2.24839 21.8074C2.50487 22.0382 2.88567 22.0642 3.17115 21.8705L8.39866 18.3233C9.51846 18.667 10.7341 18.8545 12.002 18.8545C17.3254 18.8545 21.9773 15.4684 21.9773 10.9249C21.9773 6.38142 17.3254 2.99536 12.002 2.99536ZM11.7668 4.4978C11.845 4.49618 11.9234 4.49536 12.002 4.49536C16.8687 4.49536 20.4773 7.53811 20.4773 10.9249C20.4773 14.3117 16.8687 17.3545 12.002 17.3545C10.7598 17.3545 9.58337 17.1508 8.52484 16.7873C8.30164 16.7106 8.05539 16.7435 7.86011 16.876L4.84379 18.9228L6.19369 16.3963C6.36679 16.0724 6.2798 15.6707 5.98817 15.4474C4.43197 14.2558 3.52675 12.6482 3.52675 10.9249C3.52675 7.59608 7.00824 4.60184 11.7545 4.49806L11.7607 4.4979L11.7668 4.4978Z" fill="#212121"/>
</svg>
