<svg width="28" height="28" viewBox="0 0 28 28" fill="none" xmlns="http://www.w3.org/2000/svg">
<path d="M14.0163 3.03369C13.9279 3.03369 13.8398 3.03445 13.7519 3.03596C13.7089 3.0322 13.6656 3.03311 13.6227 3.03872C7.32892 3.20019 2.03255 7.27677 2.03255 12.562C2.03255 15.1117 3.2844 17.3975 5.2693 19.0809L2.07083 25.1107C1.9385 25.3602 1.99564 25.6687 2.20837 25.8534C2.4211 26.038 2.73251 26.0493 2.9579 25.8806L9.12424 21.2649C10.6202 21.7962 12.2765 22.0903 14.0163 22.0903C20.486 22.0903 26 17.9566 26 12.562C26 7.16741 20.486 3.03369 14.0163 3.03369ZM14 7.72293C14.4142 7.72293 14.75 8.05872 14.75 8.47293V13.9123C14.75 14.3265 14.4142 14.6623 14 14.6623C13.5858 14.6623 13.25 14.3265 13.25 13.9123V8.47293C13.25 8.05872 13.5858 7.72293 14 7.72293ZM14 17.2968C13.5858 17.2968 13.25 16.961 13.25 16.5468C13.25 16.1326 13.5858 15.7968 14 15.7968C14.4142 15.7968 14.75 16.1326 14.75 16.5468C14.75 16.961 14.4142 17.2968 14 17.2968Z" fill="#212121"/>
</svg>
