<svg width="48" height="48" viewBox="0 0 48 48" fill="none" xmlns="http://www.w3.org/2000/svg">
<path d="M24 13.75C24.6903 13.75 25.25 14.3096 25.25 15V24C25.25 24.6904 24.6903 25.25 24 25.25C23.3096 25.25 22.75 24.6904 22.75 24V15C22.75 14.3096 23.3096 13.75 24 13.75Z" fill="#212121"/>
<path d="M25.25 28.25C25.25 28.9403 24.6903 29.5 24 29.5C23.3096 29.5 22.75 28.9403 22.75 28.25C22.75 27.5596 23.3096 27 24 27C24.6903 27 25.25 27.5596 25.25 28.25Z" fill="#212121"/>
<path d="M24.0247 6C23.8822 6 23.74 6.00118 23.5982 6.00353C23.5182 5.99751 23.4377 5.9992 23.3578 6.00863C12.9332 6.27963 4.05357 12.9957 4.05357 21.8197C4.05357 26.0046 6.08973 29.7502 9.30773 32.5256L4.14757 42.1832C3.87187 42.6991 3.99092 43.3373 4.43411 43.7192C4.8773 44.1011 5.52607 44.1245 5.99563 43.7755L16.0245 36.323C18.4784 37.1712 21.1854 37.6393 24.0247 37.6393C34.7446 37.6393 43.9958 30.8302 43.9958 21.8197C43.9958 12.8092 34.7446 6 24.0247 6ZM23.5426 8.50499C23.7028 8.50167 23.8635 8.5 24.0247 8.5C33.9835 8.5 41.4958 14.737 41.4958 21.8197C41.4958 28.9024 33.9835 35.1393 24.0247 35.1393C21.2301 35.1393 18.596 34.6373 16.2627 33.7503C15.8639 33.5987 15.4153 33.6609 15.0729 33.9154L8.98068 38.4426L11.9982 32.7951C12.2867 32.2551 12.1417 31.5857 11.6556 31.2135C8.44491 28.7551 6.55357 25.4186 6.55357 21.8197C6.55357 14.8584 13.8027 8.71776 23.5168 8.50554L23.5297 8.50519L23.5426 8.50499Z" fill="#212121"/>
</svg>
