<svg width="20" height="20" viewBox="0 0 20 20" fill="none" xmlns="http://www.w3.org/2000/svg">
<path d="M9.99991 5.66611C10.2761 5.66611 10.4999 5.88997 10.4999 6.16611V9.70745C10.4999 9.98359 10.2761 10.2075 9.99991 10.2075C9.72377 10.2075 9.49991 9.98359 9.49991 9.70745V6.16611C9.49991 5.88997 9.72377 5.66611 9.99991 5.66611Z" fill="#212121"/>
<path d="M10.4999 11.4999C10.4999 11.776 10.2761 11.9999 9.99993 11.9999C9.72379 11.9999 9.49993 11.776 9.49993 11.4999C9.49993 11.2237 9.72379 10.9999 9.99993 10.9999C10.2761 10.9999 10.4999 11.2237 10.4999 11.4999Z" fill="#212121"/>
<path d="M9.98469 2.83887C9.92773 2.83887 9.8709 2.83934 9.81422 2.84028C9.78261 2.83793 9.75081 2.8386 9.71927 2.8423C5.5623 2.95017 2.02134 5.62824 2.02134 9.14686C2.02134 10.8156 2.83326 12.3091 4.11643 13.4158L2.05884 17.2667C1.94891 17.4725 1.99638 17.7269 2.1731 17.8792C2.34982 18.0315 2.60851 18.0408 2.79575 17.9017L6.79472 14.93C7.77319 15.2682 8.85258 15.4549 9.98469 15.4549C14.2592 15.4549 17.948 12.7397 17.948 9.14686C17.948 5.55398 14.2592 2.83887 9.98469 2.83887ZM9.79241 3.83772C9.85629 3.83639 9.92038 3.83573 9.98469 3.83573C13.9557 3.83573 16.9512 6.32268 16.9512 9.14686C16.9512 11.971 13.9557 14.458 9.98469 14.458C8.87039 14.458 7.82009 14.2578 6.88969 13.9041C6.73068 13.8437 6.55182 13.8685 6.41529 13.97L3.98601 15.7752L5.18925 13.5233C5.30429 13.308 5.24647 13.041 5.05265 12.8926C3.77237 11.9124 3.0182 10.5819 3.0182 9.14686C3.0182 6.37107 5.90881 3.9225 9.7823 3.83793L9.78725 3.8378L9.79241 3.83772Z" fill="#212121"/>
</svg>
