<svg width="32" height="32" viewBox="0 0 32 32" fill="none" xmlns="http://www.w3.org/2000/svg">
<path d="M16.0008 8.98859C15.4485 8.98859 15.0008 9.43631 15.0008 9.98859V15.9597C15.0008 16.512 15.4485 16.9597 16.0008 16.9597C16.5531 16.9597 17.0008 16.512 17.0008 15.9597V9.98859C17.0008 9.43631 16.5531 8.98859 16.0008 8.98859Z" fill="#212121"/>
<path d="M16.9933 19.0662C16.9933 19.6131 16.5498 20.0566 16.0029 20.0566C15.4559 20.0566 15.0124 19.6131 15.0124 19.0662C15.0124 18.5192 15.4559 18.0758 16.0029 18.0758C16.5498 18.0758 16.9933 18.5192 16.9933 19.0662Z" fill="#212121"/>
<path d="M16.0215 3.37405C15.9241 3.37405 15.8269 3.37484 15.7299 3.37641C15.6698 3.37225 15.6094 3.37352 15.5494 3.38025C8.28472 3.57183 2.04305 8.25851 2.04305 14.4745C2.04305 17.3864 3.44308 19.9898 5.65111 21.9273L2.12391 28.5286C1.90508 28.9382 1.99697 29.4445 2.34576 29.751C2.69456 30.0576 3.20847 30.0837 3.58653 29.8141L10.696 24.7439C12.3406 25.2806 14.1398 25.575 16.0215 25.575C23.4938 25.575 30 20.824 30 14.4745C30 8.12505 23.4938 3.37405 16.0215 3.37405ZM15.6901 5.37748C15.8002 5.3752 15.9107 5.37405 16.0215 5.37405C22.8848 5.37405 28 9.66731 28 14.4745C28 19.2817 22.8848 23.575 16.0215 23.575C14.1752 23.575 12.4316 23.2562 10.8764 22.6908C10.5671 22.5783 10.2222 22.6253 9.95413 22.8165L5.898 25.7091L7.80177 22.1461C8.03257 21.7141 7.91657 21.1786 7.52772 20.8809C5.32762 19.1963 4.04305 16.9196 4.04305 14.4745C4.04305 9.74962 8.97826 5.52416 15.6722 5.37787L15.6811 5.37763L15.6901 5.37748Z" fill="#212121"/>
</svg>
