<svg width="28" height="28" viewBox="0 0 28 28" fill="none" xmlns="http://www.w3.org/2000/svg">
<path d="M13.9978 8.24978C14.412 8.24978 14.7478 8.58557 14.7478 8.99978V14.3281C14.7478 14.7423 14.412 15.0781 13.9978 15.0781C13.5836 15.0781 13.2478 14.7423 13.2478 14.3281V8.99978C13.2478 8.58557 13.5836 8.24978 13.9978 8.24978Z" fill="#212121"/>
<path d="M14.7499 16.7499C14.7499 17.1641 14.4142 17.4999 13.9999 17.4999C13.5857 17.4999 13.2499 17.1641 13.2499 16.7499C13.2499 16.3357 13.5857 15.9999 13.9999 15.9999C14.4142 15.9999 14.7499 16.3357 14.7499 16.7499Z" fill="#212121"/>
<path d="M14.0139 3.18823C13.9284 3.18823 13.843 3.18894 13.7579 3.19035C13.71 3.18676 13.6618 3.18777 13.614 3.19341C7.35961 3.35592 2.03213 7.38532 2.03213 12.6793C2.03213 15.1901 3.25374 17.4373 5.18441 19.1024L2.08853 24.8966C1.92313 25.2061 1.99456 25.589 2.26045 25.8181C2.52634 26.0472 2.91558 26.0613 3.19729 25.8519L9.21417 21.3807C10.6864 21.8896 12.3105 22.1705 14.0139 22.1705C20.4454 22.1705 25.9957 18.0853 25.9957 12.6793C25.9957 7.27343 20.4454 3.18823 14.0139 3.18823ZM13.7247 4.69112C13.8208 4.68913 13.9172 4.68812 14.0139 4.68812C19.9888 4.68812 24.4958 8.43003 24.4958 12.6793C24.4958 16.9287 19.9888 20.6706 14.0139 20.6706C12.3373 20.6706 10.757 20.3694 9.35707 19.8372C9.11782 19.7462 8.84871 19.7836 8.64328 19.9363L4.98819 22.6524L6.79859 19.2641C6.97167 18.9402 6.88468 18.5386 6.59306 18.3153C4.66675 16.8403 3.53202 14.8386 3.53202 12.6793C3.53202 8.50288 7.88121 4.81875 13.7093 4.69145L13.717 4.69124L13.7247 4.69112Z" fill="#212121"/>
</svg>
