<svg width="32" height="32" viewBox="0 0 32 32" fill="none" xmlns="http://www.w3.org/2000/svg">
<path d="M16.019 3.3999C15.916 3.3999 15.8131 3.40078 15.7106 3.40253C15.6604 3.39817 15.6099 3.39923 15.5598 3.40573C8.21709 3.59274 2.03797 8.31433 2.03797 14.4358C2.03797 17.3889 3.49847 20.0364 5.81419 21.9862L2.08264 28.97C1.92825 29.2589 1.99492 29.6163 2.2431 29.8302C2.49129 30.044 2.8546 30.0571 3.11755 29.8617L10.3116 24.5157C12.057 25.1311 13.9893 25.4718 16.019 25.4718C23.5671 25.4718 30.0001 20.684 30.0001 14.4358C30.0001 8.18767 23.5671 3.3999 16.019 3.3999ZM16 8.69984C16.5523 8.69984 17 9.14756 17 9.69984V15.9998C17 16.5521 16.5523 16.9998 16 16.9998C15.4477 16.9998 15 16.5521 15 15.9998V9.69984C15 9.14756 15.4477 8.69984 16 8.69984ZM16 20.1826C15.4477 20.1826 15 19.7349 15 19.1826C15 18.6303 15.4477 18.1826 16 18.1826C16.5523 18.1826 17 18.6303 17 19.1826C17 19.7349 16.5523 20.1826 16 20.1826Z" fill="#212121"/>
</svg>
