<svg width="48" height="48" viewBox="0 0 48 48" fill="none" xmlns="http://www.w3.org/2000/svg">
<path d="M24.0271 6C23.8799 6 23.733 6.00125 23.5865 6.00375C23.5148 5.99753 23.4426 5.99904 23.3712 6.00833C12.8815 6.27549 4.05419 13.0206 4.05419 21.7656C4.05419 25.9843 6.14062 29.7664 9.44879 32.5518L4.11799 42.5287C3.89744 42.9415 3.99268 43.4521 4.34723 43.7576C4.70178 44.0631 5.22079 44.0818 5.59644 43.8026L15.8737 36.1655C18.367 37.0445 21.1275 37.5312 24.0271 37.5312C34.81 37.5312 44.0001 30.6916 44.0001 21.7656C44.0001 12.8397 34.81 6 24.0271 6ZM24 13.75C24.6904 13.75 25.25 14.3096 25.25 15V24C25.25 24.6904 24.6904 25.25 24 25.25C23.3096 25.25 22.75 24.6904 22.75 24V15C22.75 14.3096 23.3096 13.75 24 13.75ZM24 29.5C23.3096 29.5 22.75 28.9404 22.75 28.25C22.75 27.5596 23.3096 27 24 27C24.6904 27 25.25 27.5596 25.25 28.25C25.25 28.9404 24.6904 29.5 24 29.5Z" fill="#212121"/>
</svg>
