<svg width="16" height="16" viewBox="0 0 16 16" fill="none" xmlns="http://www.w3.org/2000/svg">
<path d="M8.00023 4.41724C8.27638 4.41724 8.50023 4.6411 8.50023 4.91724V7.99756C8.50023 8.2737 8.27638 8.49756 8.00023 8.49756C7.72409 8.49756 7.50023 8.2737 7.50023 7.99756V4.91724C7.50023 4.6411 7.72409 4.41724 8.00023 4.41724Z" fill="#212121"/>
<path d="M8.49545 9.65037C8.49545 9.92399 8.27364 10.1458 8.00002 10.1458C7.72641 10.1458 7.5046 9.92399 7.5046 9.65037C7.5046 9.37676 7.72641 9.15495 8.00002 9.15495C8.27364 9.15495 8.49545 9.37676 8.49545 9.65037Z" fill="#212121"/>
<path d="M8.00909 1.67969C7.96042 1.67969 7.91186 1.68008 7.86342 1.68087C7.83351 1.67881 7.80345 1.67944 7.7736 1.68277C4.13887 1.77834 1.01597 4.12311 1.01597 7.23295C1.01597 8.6899 1.71655 9.99243 2.82146 10.9618L1.05681 14.2644C0.946537 14.4708 0.994158 14.7261 1.17143 14.8788C1.34871 15.0316 1.60822 15.0409 1.79604 14.9013L5.24616 12.3375C6.09546 12.6269 7.02998 12.7862 8.00909 12.7862C11.7474 12.7862 15.0022 10.4094 15.0022 7.23295C15.0022 4.05655 11.7474 1.67969 8.00909 1.67969ZM7.84365 2.6814C7.89861 2.68026 7.95376 2.67969 8.00909 2.67969C11.4429 2.67969 14.0022 4.82768 14.0022 7.23295C14.0022 9.63823 11.4429 11.7862 8.00909 11.7862C7.04785 11.7862 6.14236 11.6135 5.34082 11.3089C5.18131 11.2482 5.0019 11.2731 4.86494 11.3749L2.99006 12.7682L3.8968 11.0711C4.01221 10.8552 3.9542 10.5874 3.75975 10.4385C2.65881 9.59564 2.01597 8.45645 2.01597 7.23295C2.01597 4.86875 4.48549 2.7546 7.83478 2.68159L7.83921 2.68147L7.84365 2.6814Z" fill="#212121"/>
</svg>
