<svg width="231" height="160" viewBox="0 0 231 160" fill="none" xmlns="http://www.w3.org/2000/svg">
<path d="M115.31 144.8C152.95 144.8 183.415 114.155 183.415 76.3449C183.415 38.5347 152.95 8 115.31 8C77.7807 8 47.2051 38.645 47.2051 76.4551C47.2051 114.265 77.7807 144.8 115.31 144.8Z" fill="#242424"/>
<path d="M37.3811 92.3646C39.9199 92.3646 41.9067 90.3804 41.9067 87.845C41.9067 85.3096 39.9199 83.3254 37.3811 83.3254C34.8423 83.3254 32.8555 85.3096 32.8555 87.845C32.8555 90.3804 34.9527 92.3646 37.3811 92.3646Z" fill="#3A3A3A"/>
<path d="M32.8558 77.7036C34.5115 77.7036 35.9465 76.2706 35.9465 74.6171C35.9465 72.9636 34.5115 71.5305 32.8558 71.5305C31.2001 71.5305 29.7651 72.9636 29.7651 74.6171C29.7651 76.3808 31.2001 77.7036 32.8558 77.7036Z" fill="#3A3A3A"/>
<path d="M194.785 103.718C197.986 103.718 200.525 101.183 200.525 97.9863C200.525 94.7895 197.986 92.2542 194.785 92.2542C191.584 92.2542 189.045 94.7895 189.045 97.9863C189.045 101.183 191.584 103.718 194.785 103.718Z" fill="#3A3A3A"/>
<circle cx="113.767" cy="40.8373" r="2.66246" fill="#C4C4C4"/>
<path d="M165.189 133.474H65.2473C61.5227 133.474 58.4189 130.397 58.4189 126.704V25.7592C58.4189 22.0661 61.5227 18.9885 65.2473 18.9885H165.189C168.913 18.9885 172.017 22.0661 172.017 25.7592V126.704C172.017 130.397 168.913 133.474 165.189 133.474Z" fill="url(#paint0_linear_3840_873)"/>
<path d="M114.076 56.8117C121.918 56.8117 128.276 50.4542 128.276 42.6119C128.276 34.7696 121.918 28.4121 114.076 28.4121C106.233 28.4121 99.876 34.7696 99.876 42.6119C99.876 50.4542 106.233 56.8117 114.076 56.8117Z" fill="#3A3A3A"/>
<path d="M114.076 43.4994C117.017 43.4994 119.401 41.1154 119.401 38.1745C119.401 35.2337 117.017 32.8496 114.076 32.8496C111.135 32.8496 108.751 35.2337 108.751 38.1745C108.751 41.1154 111.135 43.4994 114.076 43.4994Z" fill="#CACACA"/>
<path d="M124.726 52.3786C122.151 55.111 118.53 56.8117 114.52 56.8117C110.509 56.8117 106.888 55.111 104.313 52.3786C105.735 48.251 109.767 45.2744 114.52 45.2744C119.272 45.2744 123.304 48.251 124.726 52.3786Z" fill="#CACACA"/>
<path d="M152.749 78.9988H75.6725C74.7513 78.9988 73.8301 77.9748 73.8301 76.9508V67.7346C73.8301 66.7105 74.7513 65.6865 75.6725 65.6865H152.749C153.67 65.6865 154.591 66.7105 154.591 67.7346V76.9508C154.591 77.9748 153.67 78.9988 152.749 78.9988Z" fill="#3A3A3A"/>
<path d="M152.749 98.5237H75.6725C74.7513 98.5237 73.8301 97.4997 73.8301 96.4757V87.2595C73.8301 86.2354 74.7513 85.2114 75.6725 85.2114H152.749C153.67 85.2114 154.591 86.2354 154.591 87.2595V96.4757C154.591 97.4997 153.67 98.5237 152.749 98.5237Z" fill="#3A3A3A"/>
<path d="M152.675 106.511H124.559C123.601 106.511 122.642 107.242 122.642 108.704V116.743C122.642 117.839 123.281 118.936 124.559 118.936H152.675C153.633 118.936 154.592 118.205 154.592 116.743V108.704C154.592 107.546 153.633 106.511 152.675 106.511Z" fill="#3A3A3A"/>
<path d="M146.266 111.836H131.856C131.243 111.836 130.63 112.28 130.63 112.723C130.63 113.167 131.243 113.611 131.856 113.611H146.266C146.879 113.611 147.492 113.167 147.492 112.723C147.492 112.058 146.879 111.836 146.266 111.836Z" fill="#777777"/>
<rect x="79.1548" y="71.0115" width="34.612" height="2.66246" fill="#777777"/>
<rect x="79.1548" y="90.5361" width="2.66246" height="2.66246" rx="1.33123" fill="#777777"/>
<rect x="84.48" y="90.5361" width="2.66246" height="2.66246" rx="1.33123" fill="#777777"/>
<rect x="89.8052" y="90.5361" width="2.66246" height="2.66246" rx="1.33123" fill="#777777"/>
<rect x="95.1299" y="90.5361" width="2.66246" height="2.66246" rx="1.33123" fill="#777777"/>
<rect x="99.5674" y="90.5361" width="2.66246" height="2.66246" rx="1.33123" fill="#777777"/>
<rect x="104.892" y="90.5361" width="2.66246" height="2.66246" rx="1.33123" fill="#777777"/>
<defs>
<linearGradient id="paint0_linear_3840_873" x1="115.181" y1="16.3404" x2="115.181" y2="134.709" gradientUnits="userSpaceOnUse">
<stop stop-color="#5C5C5C"/>
<stop offset="0.9964" stop-color="#4D4D4D"/>
</linearGradient>
</defs>
</svg>
