<svg xmlns="http://www.w3.org/2000/svg" width="231" height="160" fill="none" viewBox="0 0 231 160">
  <path fill="#242424" d="M115.31 144.8c37.64 0 68.105-30.645 68.105-68.4551C183.415 38.5347 152.95 8 115.31 8 77.7807 8 47.2051 38.645 47.2051 76.4551c0 37.8099 30.5756 68.3449 68.1049 68.3449Z"/>
  <path fill="#3A3A3A" d="M37.3811 92.3646c2.5388 0 4.5256-1.9842 4.5256-4.5196 0-2.5354-1.9868-4.5196-4.5256-4.5196s-4.5256 1.9842-4.5256 4.5196c0 2.5354 2.0972 4.5196 4.5256 4.5196ZM32.8558 77.7036c1.6557 0 3.0907-1.433 3.0907-3.0865s-1.435-3.0866-3.0907-3.0866-3.0907 1.4331-3.0907 3.0866c0 1.7637 1.435 3.0865 3.0907 3.0865ZM194.785 103.719c3.201 0 5.74-2.536 5.74-5.7326 0-3.1968-2.539-5.7321-5.74-5.7321s-5.74 2.5353-5.74 5.7321c0 3.1966 2.539 5.7326 5.74 5.7326Z"/>
  <circle cx="113.767" cy="40.8371" r="2.6625" fill="#C4C4C4"/>
  <path fill="url(#paint0_linear_3840_873)" d="M165.189 133.474H65.2473c-3.7246 0-6.8284-3.077-6.8284-6.771V25.7591c0-3.6931 3.1038-6.7707 6.8284-6.7707h99.9417c3.724 0 6.828 3.0776 6.828 6.7707V126.703c0 3.694-3.104 6.771-6.828 6.771Z"/>
  <path fill="#3A3A3A" d="M114.076 56.8117c7.842 0 14.2-6.3575 14.2-14.1998s-6.358-14.1998-14.2-14.1998c-7.843 0-14.2 6.3575-14.2 14.1998s6.357 14.1998 14.2 14.1998Z"/>
  <path fill="#CACACA" d="M114.076 43.4994c2.941 0 5.325-2.384 5.325-5.3249 0-2.9408-2.384-5.3249-5.325-5.3249-2.941 0-5.325 2.3841-5.325 5.3249 0 2.9409 2.384 5.3249 5.325 5.3249ZM124.726 52.3786c-2.575 2.7324-6.196 4.4331-10.206 4.4331-4.011 0-7.632-1.7007-10.207-4.4331 1.422-4.1276 5.454-7.1042 10.207-7.1042 4.752 0 8.784 2.9766 10.206 7.1042Z"/>
  <path fill="#3A3A3A" d="M152.749 78.9988H75.6725c-.9212 0-1.8424-1.024-1.8424-2.048v-9.2162c0-1.0241.9212-2.0481 1.8424-2.0481h77.0765c.921 0 1.842 1.024 1.842 2.0481v9.2162c0 1.024-.921 2.048-1.842 2.048ZM152.749 98.5237H75.6725c-.9212 0-1.8424-1.024-1.8424-2.048v-9.2162c0-1.0241.9212-2.0481 1.8424-2.0481h77.0765c.921 0 1.842 1.024 1.842 2.0481v9.2162c0 1.024-.921 2.048-1.842 2.048ZM152.675 106.511h-28.116c-.958 0-1.917.731-1.917 2.193v8.039c0 1.096.639 2.193 1.917 2.193h28.116c.958 0 1.917-.731 1.917-2.193v-8.039c0-1.158-.959-2.193-1.917-2.193Z"/>
  <path fill="#777" d="M146.266 111.836h-14.41c-.613 0-1.226.444-1.226.888 0 .443.613.887 1.226.887h14.41c.613 0 1.226-.444 1.226-.887 0-.666-.613-.888-1.226-.888ZM79.1548 71.0115h34.612v2.6625h-34.612z"/>
  <rect width="2.6625" height="2.6625" x="79.1548" y="90.5361" fill="#777" rx="1.3312"/>
  <rect width="2.6625" height="2.6625" x="84.48" y="90.5361" fill="#777" rx="1.3312"/>
  <rect width="2.6625" height="2.6625" x="89.8052" y="90.5361" fill="#777" rx="1.3312"/>
  <rect width="2.6625" height="2.6625" x="95.1299" y="90.5361" fill="#777" rx="1.3312"/>
  <rect width="2.6625" height="2.6625" x="99.5674" y="90.5361" fill="#777" rx="1.3312"/>
  <rect width="2.6625" height="2.6625" x="104.892" y="90.5361" fill="#777" rx="1.3312"/>
  <defs>
    <linearGradient id="paint0_linear_3840_873" x1="115.181" x2="115.181" y1="16.3402" y2="134.708" gradientUnits="userSpaceOnUse">
      <stop stop-color="#5C5C5C"/>
      <stop offset=".9964" stop-color="#4D4D4D"/>
    </linearGradient>
  </defs>
</svg>
