<svg width="24" height="24" viewBox="0 0 24 24" fill="none" xmlns="http://www.w3.org/2000/svg">
<path d="M6.25009 4C6.66431 4 7.00009 4.33579 7.00009 4.75C7.00009 5.16421 6.66431 5.5 6.25009 5.5H5.05C4.19396 5.5 3.5 6.19396 3.5 7.05V9.25052C3.5 9.66473 3.16421 10.0005 2.75 10.0005C2.33579 10.0005 2 9.66473 2 9.25052V7.05C2 5.36553 3.36553 4 5.05 4H6.25009ZM17.7486 4C17.3344 4 16.9986 4.33579 16.9986 4.75C16.9986 5.16421 17.3344 5.5 17.7486 5.5H18.95C19.8061 5.5 20.5 6.19396 20.5 7.05V9.25C20.5 9.66421 20.8358 10 21.25 10C21.6643 10 22 9.66421 22 9.25V7.05C22 5.36553 20.6345 4 18.95 4H17.7486ZM7.00009 19.25C7.00009 19.6642 6.66431 20 6.25009 20H5.05C3.36553 20 2 18.6345 2 16.95V14.7461C2 14.3318 2.33579 13.9961 2.75 13.9961C3.16421 13.9961 3.5 14.3318 3.5 14.7461V16.95C3.5 17.806 4.19396 18.5 5.05 18.5H6.25009C6.66431 18.5 7.00009 18.8358 7.00009 19.25ZM10.7501 4C10.3359 4 10.0001 4.33579 10.0001 4.75C10.0001 5.16421 10.3359 5.5 10.7501 5.5H13.2501C13.6643 5.5 14.0001 5.16421 14.0001 4.75C14.0001 4.33579 13.6643 4 13.2501 4H10.7501ZM9.00009 19.25C9.00009 18.8358 9.33588 18.5 9.75009 18.5H11.2501C11.6643 18.5 12.0001 18.8358 12.0001 19.25C12.0001 19.6642 11.6643 20 11.2501 20H9.75009C9.33588 20 9.00009 19.6642 9.00009 19.25ZM13.0001 20L18.7499 20C20.5448 20 21.9999 18.545 21.9999 16.75L22.0001 11L13.0001 20ZM16.8136 18.5L20.4999 14.8138V16.75C20.4999 17.7165 19.7164 18.5 18.7499 18.5H16.8136Z" fill="#212121"/>
</svg>
