<svg width="20" height="20" viewBox="0 0 20 20" fill="none" xmlns="http://www.w3.org/2000/svg">
<path d="M4 4C2.89543 4 2 4.89543 2 6V8C2 8.27614 2.22386 8.5 2.5 8.5C2.77614 8.5 3 8.27614 3 8V6C3 5.44772 3.44772 5 4 5H5.5C5.77614 5 6 4.77614 6 4.5C6 4.22386 5.77614 4 5.5 4H4ZM8.5 4C8.22386 4 8 4.22386 8 4.5C8 4.77614 8.22386 5 8.5 5H11.5C11.7761 5 12 4.77614 12 4.5C12 4.22386 11.7761 4 11.5 4H8.5ZM14.5 4C14.2239 4 14 4.22386 14 4.5C14 4.77614 14.2239 5 14.5 5H16C16.5523 5 17 5.44772 17 6V7.5C17 7.77614 17.2239 8 17.5 8C17.7761 8 18 7.77614 18 7.5V6C18 4.89543 17.1046 4 16 4H14.5ZM3 12C3 11.7239 2.77614 11.5 2.5 11.5C2.22386 11.5 2 11.7239 2 12V14C2 15.1046 2.89543 16 4 16H5.5C5.77614 16 6 15.7761 6 15.5C6 15.2239 5.77614 15 5.5 15H4C3.44772 15 3 14.5523 3 14V12ZM8.5 15C8.22386 15 8 15.2239 8 15.5C8 15.7761 8.22386 16 8.5 16H9.5C9.77614 16 10 15.7761 10 15.5C10 15.2239 9.77614 15 9.5 15H8.5ZM12.4142 16H11L12 15L17 10L18 9V10.4142V13C18 14.6569 16.6569 16 15 16H12.4142ZM13.4142 15H15C16.1046 15 17 14.1046 17 13V11.4142L13.4142 15Z" fill="#212121"/>
</svg>
