<svg width="24" height="24" viewBox="0 0 24 24" fill="none" xmlns="http://www.w3.org/2000/svg">
<path d="M2 7.25C2 5.45507 3.45507 4 5.25 4H7.25C7.66421 4 8 4.33579 8 4.75C8 5.16421 7.66421 5.5 7.25 5.5H5.25C4.2835 5.5 3.5 6.2835 3.5 7.25V9.25C3.5 9.66421 3.16421 10 2.75 10C2.33579 10 2 9.66421 2 9.25V7.25ZM16 4.75C16 4.33579 16.3358 4 16.75 4H18.75C20.5449 4 22 5.45507 22 7.25V9.25C22 9.66421 21.6642 10 21.25 10C20.8358 10 20.5 9.66421 20.5 9.25V7.25C20.5 6.2835 19.7165 5.5 18.75 5.5H16.75C16.3358 5.5 16 5.16421 16 4.75ZM2.75 14C3.16421 14 3.5 14.3358 3.5 14.75V16.75C3.5 17.7165 4.2835 18.5 5.25 18.5H7.25C7.66421 18.5 8 18.8358 8 19.25C8 19.6642 7.66421 20 7.25 20H5.25C3.45507 20 2 18.5449 2 16.75V14.75C2 14.3358 2.33579 14 2.75 14ZM21.25 14C21.6642 14 22 14.3358 22 14.75V16.75C22 18.5449 20.5449 20 18.75 20H16.75C16.3358 20 16 19.6642 16 19.25C16 18.8358 16.3358 18.5 16.75 18.5H18.75C19.7165 18.5 20.5 17.7165 20.5 16.75V14.75C20.5 14.3358 20.8358 14 21.25 14ZM9.2151 12.5H7.7849L8.5 10.6147L9.2151 12.5ZM9.78407 14L10.5488 16.016C10.6957 16.4033 11.1287 16.5982 11.516 16.4512C11.9033 16.3043 12.0982 15.8713 11.9512 15.484L9.20218 8.23647C8.95714 7.59044 8.043 7.59009 7.79782 8.23647L5.04875 15.484C4.90185 15.8713 5.09672 16.3043 5.48401 16.4512C5.8713 16.5982 6.30435 16.4033 6.45125 16.016L7.21593 14H9.78407ZM13 8.85C13 8.38056 13.3806 8 13.85 8H17.75C18.1642 8 18.5 8.33579 18.5 8.75C18.5 9.16421 18.1642 9.5 17.75 9.5H14.5V12H17C17.4142 12 17.75 12.3358 17.75 12.75C17.75 13.1642 17.4142 13.5 17 13.5H14.5V15.7981C14.5 16.2123 14.1642 16.5481 13.75 16.5481C13.3358 16.5481 13 16.2123 13 15.7981V12.75V8.85Z" fill="#242424"/>
</svg>
