<svg width="20" height="20" viewBox="0 0 20 20" fill="none" xmlns="http://www.w3.org/2000/svg">
<path d="M2 7C2 5.34315 3.34315 4 5 4H6.5C6.77614 4 7 4.22386 7 4.5C7 4.77614 6.77614 5 6.5 5H5C3.89543 5 3 5.89543 3 7V8C3 8.27614 2.77614 8.5 2.5 8.5C2.22386 8.5 2 8.27614 2 8V7ZM13 4.5C13 4.22386 13.2239 4 13.5 4H15C16.6569 4 18 5.34315 18 7V8C18 8.27614 17.7761 8.5 17.5 8.5C17.2239 8.5 17 8.27614 17 8V7C17 5.89543 16.1046 5 15 5H13.5C13.2239 5 13 4.77614 13 4.5ZM2.5 11.5C2.77614 11.5 3 11.7239 3 12V13C3 14.1046 3.89543 15 5 15H6.5C6.77614 15 7 15.2239 7 15.5C7 15.7761 6.77614 16 6.5 16H5C3.34315 16 2 14.6569 2 13V12C2 11.7239 2.22386 11.5 2.5 11.5ZM17.5 11.5C17.7761 11.5 18 11.7239 18 12V13C18 14.6569 16.6569 16 15 16H13.5C13.2239 16 13 15.7761 13 15.5C13 15.2239 13.2239 15 13.5 15H15C16.1046 15 17 14.1046 17 13V12C17 11.7239 17.2239 11.5 17.5 11.5ZM11 7.6C11 7.26863 11.2686 7 11.6 7H14.5C14.7761 7 15 7.22386 15 7.5C15 7.77614 14.7761 8 14.5 8H12V10L13.5 10C13.7761 10 14 10.2239 14 10.5C14 10.7761 13.7761 11 13.5 11L12 11V13C12 13.2761 11.7761 13.5 11.5 13.5C11.2239 13.5 11 13.2761 11 13V10.5V7.6ZM8.2407 11H6.7593L7.5 8.96309L8.2407 11ZM8.60433 12L9.0301 13.1709C9.12447 13.4304 9.41136 13.5643 9.67087 13.4699C9.93039 13.3755 10.0643 13.0886 9.9699 12.8291L7.97084 7.33171C7.81102 6.89221 7.18914 6.89178 7.02916 7.33171L5.0301 12.8291C4.93573 13.0886 5.06961 13.3755 5.32913 13.4699C5.58865 13.5643 5.87553 13.4304 5.9699 13.1709L6.39567 12H8.60433Z" fill="#242424"/>
</svg>
