<svg width="16" height="16" viewBox="0 0 16 16" fill="none" xmlns="http://www.w3.org/2000/svg">
<path d="M6 6H10V10H6V6Z" fill="#212121"/>
<path d="M15 8C15 8.28 14.74 8.5 14.42 8.5H13V10.5H14.42C14.74 10.5 15 10.72 15 11C15 11.28 14.74 11.5 14.42 11.5H12.79C12.54 12.08 12.08 12.54 11.5 12.79V14.42C11.5 14.74 11.28 15 11 15C10.72 15 10.5 14.74 10.5 14.42V13H8.5V14.42C8.5 14.74 8.28 15 8 15C7.72 15 7.5 14.74 7.5 14.42V13H5.5V14.42C5.5 14.74 5.28 15 5 15C4.72 15 4.5 14.74 4.5 14.42V12.79C3.92 12.54 3.46 12.08 3.21 11.5H1.58C1.26 11.5 1 11.28 1 11C1 10.72 1.26 10.5 1.58 10.5H3V8.5H1.58C1.26 8.5 1 8.28 1 8C1 7.72 1.26 7.5 1.58 7.5H3V5.5H1.58C1.26 5.5 1 5.28 1 5C1 4.72 1.26 4.5 1.58 4.5H3.21C3.46 3.92 3.92 3.46 4.5 3.21V1.58C4.5 1.26 4.72 1 5 1C5.28 1 5.5 1.26 5.5 1.58V3H7.5V1.58C7.5 1.26 7.72 1 8 1C8.28 1 8.5 1.26 8.5 1.58V3H10.5V1.58C10.5 1.26 10.72 1 11 1C11.28 1 11.5 1.26 11.5 1.58V3.21C12.08 3.46 12.54 3.92 12.79 4.5H14.42C14.74 4.5 15 4.72 15 5C15 5.28 14.74 5.5 14.42 5.5H13V7.5H14.42C14.74 7.5 15 7.72 15 8ZM10.5 11C10.78 11 11 10.78 11 10.5V5.5C11 5.22 10.78 5 10.5 5H5.5C5.22 5 5 5.22 5 5.5V10.5C5 10.78 5.22 11 5.5 11H10.5Z" fill="#212121"/>
</svg>
