<svg width="24" height="24" viewBox="0 0 24 24" fill="none" xmlns="http://www.w3.org/2000/svg">
<path d="M9 9H15V15H9V9Z" fill="#212121"/>
<path d="M21.35 11H20V13H21.25C21.66 13 22 13.34 22 13.75C22 14.13 21.72 14.44 21.35 14.5H20V16.5H21.25C21.66 16.5 22 16.84 22 17.25C22 17.63 21.72 17.94 21.35 18H19.88C19.62 18.91 18.91 19.62 18 19.88V21.25C18 21.66 17.66 22 17.25 22C16.87 22 16.56 21.72 16.5 21.35V20H14.5V21.25C14.5 21.66 14.16 22 13.75 22C13.37 22 13.06 21.72 13 21.35V20H11V21.25C11 21.66 10.66 22 10.25 22C9.87 22 9.56 21.72 9.5 21.35V20H7.5V21.25C7.5 21.66 7.16 22 6.75 22C6.37 22 6.06 21.72 6 21.35V19.88C5.09 19.62 4.38 18.91 4.12 18H2.75C2.34 18 2 17.66 2 17.25C2 16.87 2.28 16.56 2.65 16.5H4V14.5H2.75C2.34 14.5 2 14.16 2 13.75C2 13.37 2.28 13.06 2.65 13H4V11H2.75C2.34 11 2 10.66 2 10.25C2 9.87 2.28 9.56 2.65 9.5H4V7.5H2.75C2.34 7.5 2 7.16 2 6.75C2 6.37 2.28 6.06 2.65 6H4.12C4.38 5.09 5.09 4.38 6 4.12V2.75C6 2.34 6.34 2 6.75 2C7.13 2 7.44 2.28 7.5 2.65V4H9.5V2.75C9.5 2.34 9.84 2 10.25 2C10.63 2 10.94 2.28 11 2.65V4H13V2.75C13 2.34 13.34 2 13.75 2C14.13 2 14.44 2.28 14.5 2.65V4H16.5V2.75C16.5 2.34 16.84 2 17.25 2C17.63 2 17.94 2.28 18 2.65V4.12C18.91 4.38 19.62 5.09 19.88 6H21.25C21.66 6 22 6.34 22 6.75C22 7.13 21.72 7.44 21.35 7.5H20V9.5H21.25C21.66 9.5 22 9.84 22 10.25C22 10.63 21.72 10.94 21.35 11ZM15.75 16.5C16.16 16.5 16.5 16.16 16.5 15.75V8.25C16.5 7.84 16.16 7.5 15.75 7.5H8.25C7.84 7.5 7.5 7.84 7.5 8.25V15.75C7.5 16.16 7.84 16.5 8.25 16.5H15.75Z" fill="#212121"/>
</svg>
