<svg width="20" height="20" viewBox="0 0 20 20" fill="none" xmlns="http://www.w3.org/2000/svg">
<path d="M7 6H13C13.55 6 14 6.45 14 7V13C14 13.55 13.55 14 13 14H7C6.45 14 6 13.55 6 13V7C6 6.45 6.45 6 7 6ZM7 13H13V7H7V13Z" fill="#212121"/>
<path d="M18 8.83C18 9.11 17.78 9.33 17.5 9.33H15.99V10.66H17.49C17.77 10.66 17.99 10.88 17.99 11.16C17.99 11.44 17.77 11.66 17.49 11.66H15.99V12.99H17.49C17.77 12.99 17.99 13.21 17.99 13.49C17.99 13.77 17.77 13.99 17.49 13.99H15.99C15.99 15.09 15.09 15.99 13.99 15.99V17.49C13.99 17.77 13.77 17.99 13.49 17.99C13.21 17.99 12.99 17.77 12.99 17.49V15.99H11.66V17.49C11.66 17.77 11.44 17.99 11.16 17.99C10.88 17.99 10.66 17.77 10.66 17.49V15.99H9.33V17.49C9.33 17.77 9.11 17.99 8.83 17.99C8.55 17.99 8.33 17.77 8.33 17.49V15.99H7V17.49C7 17.77 6.78 17.99 6.5 17.99C6.22 17.99 6 17.77 6 17.49V15.99C4.9 15.99 4 15.09 4 13.99H2.5C2.22 13.99 2 13.77 2 13.49C2 13.21 2.22 12.99 2.5 12.99H4V11.66H2.5C2.22 11.66 2 11.44 2 11.16C2 10.88 2.22 10.66 2.5 10.66H4V9.33H2.5C2.22 9.33 2 9.11 2 8.83C2 8.55 2.22 8.33 2.5 8.33H4V7H2.5C2.22 7 2 6.78 2 6.5C2 6.22 2.22 6 2.5 6H4.01C4.01 4.9 4.91 4 6.01 4V2.5C6.01 2.22 6.23 2 6.51 2C6.79 2 7.01 2.22 7.01 2.5V4H8.34V2.5C8.34 2.22 8.56 2 8.84 2C9.12 2 9.34 2.22 9.34 2.5V4H10.67V2.5C10.67 2.22 10.89 2 11.17 2C11.45 2 11.67 2.22 11.67 2.5V4H13V2.5C13 2.22 13.22 2 13.5 2C13.78 2 14 2.22 14 2.5V4C15.1 4 16 4.9 16 6H17.5C17.78 6 18 6.22 18 6.5C18 6.78 17.78 7 17.5 7H16V8.33H17.5C17.78 8.33 18 8.55 18 8.83ZM14 15C14.55 15 15 14.55 15 14V6C15 5.45 14.55 5 14 5H6C5.45 5 5 5.45 5 6V14C5 14.55 5.45 15 6 15H14Z" fill="#212121"/>
</svg>
