<svg width="28" height="28" viewBox="0 0 28 28" fill="none" xmlns="http://www.w3.org/2000/svg">
<path d="M10 10H18V18H10V10Z" fill="#212121"/>
<path d="M25.22 13H23V15H25.1C25.6 15 26 15.34 26 15.75C26 16.13 25.66 16.44 25.22 16.5H23V18.5H25.1C25.6 18.5 26 18.84 26 19.25C26 19.63 25.66 19.94 25.22 20H22.92C22.63 21.46 21.47 22.62 20 22.92V25.1C20 25.6 19.66 26 19.25 26C18.87 26 18.56 25.66 18.5 25.22V23H16.5V25.1C16.5 25.6 16.16 26 15.75 26C15.37 26 15.06 25.66 15 25.22V23H13V25.1C13 25.6 12.66 26 12.25 26C11.87 26 11.56 25.66 11.5 25.22V23H9.5V25.1C9.5 25.6 9.16 26 8.75 26C8.37 26 8.06 25.66 8 25.22V22.92C6.54 22.63 5.38 21.47 5.08 20H2.9C2.4 20 2 19.66 2 19.25C2 18.87 2.34 18.56 2.78 18.5H5V16.5H2.9C2.4 16.5 2 16.16 2 15.75C2 15.37 2.34 15.06 2.78 15H5V13H2.9C2.4 13 2 12.66 2 12.25C2 11.87 2.34 11.56 2.78 11.5H5V9.5H2.9C2.4 9.5 2 9.16 2 8.75C2 8.37 2.34 8.06 2.78 8H5.08C5.37 6.54 6.53 5.38 8 5.08V2.9C8 2.4 8.34 2 8.75 2C9.13 2 9.44 2.34 9.5 2.78V5H11.5V2.9C11.5 2.4 11.84 2 12.25 2C12.63 2 12.94 2.34 13 2.78V5H15V2.9C15 2.4 15.34 2 15.75 2C16.13 2 16.44 2.34 16.5 2.78V5H18.5V2.9C18.5 2.4 18.84 2 19.25 2C19.63 2 19.94 2.34 20 2.78V5.08C21.46 5.37 22.62 6.53 22.92 8H25.1C25.6 8 26 8.34 26 8.75C26 9.13 25.66 9.44 25.22 9.5H23V11.5H25.1C25.6 11.5 26 11.84 26 12.25C26 12.63 25.66 12.94 25.22 13ZM18.75 19.5C19.16 19.5 19.5 19.16 19.5 18.75V9.25C19.5 8.84 19.16 8.5 18.75 8.5H9.25C8.84 8.5 8.5 8.84 8.5 9.25V18.75C8.5 19.16 8.84 19.5 9.25 19.5H18.75Z" fill="#212121"/>
</svg>
