<svg width="12" height="12" viewBox="0 0 12 12" fill="none" xmlns="http://www.w3.org/2000/svg">
<path d="M5 5H7V7H5V5Z" fill="#212121"/>
<path d="M10 7H10.5C10.78 7 11 7.22 11 7.5C11 7.78 10.78 8 10.5 8H10C10 9.1 9.1 10 8 10V10.5C8 10.78 7.78 11 7.5 11C7.22 11 7 10.78 7 10.5V10H5V10.5C5 10.78 4.78 11 4.5 11C4.22 11 4 10.78 4 10.5V10C3.58 10 3.2 9.88 2.88 9.66C2.67 9.52 2.48 9.33 2.34 9.12C2.13 8.8 2 8.41 2 8H1.5C1.22 8 1 7.78 1 7.5C1 7.22 1.22 7 1.5 7H2V5H1.5C1.22 5 1 4.78 1 4.5C1 4.22 1.22 4 1.5 4H2C2 3.58 2.12 3.2 2.34 2.88C2.41 2.77 2.49 2.67 2.58 2.58C2.67 2.49 2.77 2.41 2.88 2.34C3.2 2.13 3.59 2 4 2V1.5C4 1.22 4.22 1 4.5 1C4.78 1 5 1.22 5 1.5V2H7V1.5C7 1.22 7.22 1 7.5 1C7.78 1 8 1.22 8 1.5V2C8.42 2 8.8 2.12 9.12 2.34C9.33 2.48 9.52 2.67 9.66 2.88C9.87 3.2 10 3.59 10 4H10.5C10.78 4 11 4.22 11 4.5C11 4.78 10.78 5 10.5 5H10V7ZM7.5 8C7.78 8 8 7.78 8 7.5V4.5C8 4.22 7.78 4 7.5 4H4.5C4.22 4 4 4.22 4 4.5V7.5C4 7.78 4.22 8 4.5 8H7.5Z" fill="#212121"/>
</svg>
