<svg width="48" height="48" viewBox="0 0 48 48" fill="none" xmlns="http://www.w3.org/2000/svg">
<path d="M16.5 16.5H31.5V32.5H16.5V16.5Z" fill="#212121"/>
<path d="M44 19.25C44 19.94 43.44 20.5 42.75 20.5H40V23H42.75C43.44 23 44 23.56 44 24.25C44 24.94 43.44 25.5 42.75 25.5H40V28H42.75C43.44 28 44 28.56 44 29.25C44 29.94 43.44 30.5 42.75 30.5H40V33H42.75C43.44 33 44 33.56 44 34.25C44 34.94 43.44 35.5 42.75 35.5H39.95C39.65 38.01 37.87 40.06 35.5 40.75V42.75C35.5 43.44 34.94 44 34.25 44C33.56 44 33 43.44 33 42.75V41H30.5V42.75C30.5 43.44 29.94 44 29.25 44C28.56 44 28 43.44 28 42.75V41H25.5V42.75C25.5 43.44 24.94 44 24.25 44C23.56 44 23 43.44 23 42.75V41H20.5V42.75C20.5 43.44 19.94 44 19.25 44C18.56 44 18 43.44 18 42.75V41H15.5V42.75C15.5 43.44 14.94 44 14.25 44C13.56 44 13 43.44 13 42.75V40.87C10.39 40.34 8.37 38.18 8.05 35.5H5.25C4.56 35.5 4 34.94 4 34.25C4 33.56 4.56 33 5.25 33H8V30.5H5.25C4.56 30.5 4 29.94 4 29.25C4 28.56 4.56 28 5.25 28H8V25.5H5.25C4.56 25.5 4 24.94 4 24.25C4 23.56 4.56 23 5.25 23H8V20.5H5.25C4.56 20.5 4 19.94 4 19.25C4 18.56 4.56 18 5.25 18H8V15.5H5.25C4.56 15.5 4 14.94 4 14.25C4 13.56 4.56 13 5.25 13H8.13C8.62 10.56 10.55 8.63 13 8.13V5.25C13 4.56 13.56 4 14.25 4C14.94 4 15.5 4.56 15.5 5.25V8H18V5.25C18 4.56 18.56 4 19.25 4C19.94 4 20.5 4.56 20.5 5.25V8H23V5.25C23 4.56 23.56 4 24.25 4C24.94 4 25.5 4.56 25.5 5.25V8H28V5.25C28 4.56 28.56 4 29.25 4C29.94 4 30.5 4.56 30.5 5.25V8H33V5.25C33 4.56 33.56 4 34.25 4C34.94 4 35.5 4.56 35.5 5.25V8.25C37.7 8.9 39.41 10.72 39.87 13H42.75C43.44 13 44 13.56 44 14.25C44 14.94 43.44 15.5 42.75 15.5H40V18H42.75C43.44 18 44 18.56 44 19.25ZM32.75 35C33.44 35 34 34.44 34 33.75V15.25C34 14.56 33.44 14 32.75 14H15.25C14.56 14 14 14.56 14 15.25V33.75C14 34.44 14.56 35 15.25 35H32.75Z" fill="#212121"/>
</svg>
