<svg width="32" height="32" viewBox="0 0 32 32" fill="none" xmlns="http://www.w3.org/2000/svg">
<path d="M10 11C10 10.45 10.45 10 11 10H21C21.55 10 22 10.45 22 11V21C22 21.55 21.55 22 21 22H11C10.45 22 10 21.55 10 21V11ZM12 20H20V12H12V20Z" fill="#212121"/>
<path d="M30 12C30 12.55 29.51 13 28.92 13H27V15H28.92C29.52 15 30 15.45 30 16C30 16.55 29.51 17 28.92 17H27V19H28.92C29.52 19 30 19.45 30 20C30 20.55 29.51 21 28.92 21H27V22.5C27 22.6248 26.9838 22.7442 26.9673 22.8662C26.9613 22.9103 26.9553 22.9548 26.95 23H28.92C29.52 23 30 23.45 30 24C30 24.55 29.51 25 28.92 25H26.24C25.91 25.49 25.49 25.91 25 26.24V28.92C25 29.52 24.55 30 24 30C23.45 30 23 29.51 23 28.92V26.95C22.9548 26.9553 22.9103 26.9613 22.8662 26.9673C22.7442 26.9838 22.6248 27 22.5 27H21V28.92C21 29.52 20.55 30 20 30C19.45 30 19 29.51 19 28.92V27H17V28.92C17 29.52 16.55 30 16 30C15.45 30 15 29.51 15 28.92V27H13V28.92C13 29.52 12.55 30 12 30C11.45 30 11 29.51 11 28.92V27H9.5C9.37519 27 9.25577 26.9838 9.13383 26.9673C9.08968 26.9613 9.04519 26.9553 9 26.95V28.92C9 29.52 8.55 30 8 30C7.45 30 7 29.51 7 28.92V26.24C6.51 25.91 6.09 25.49 5.76 25H3.08C2.48 25 2 24.55 2 24C2 23.45 2.49 23 3.08 23H5.05C5.04468 22.9548 5.03866 22.9103 5.03268 22.8662C5.01617 22.7442 5 22.6248 5 22.5V21H3.08C2.48 21 2 20.55 2 20C2 19.45 2.49 19 3.08 19H5V17H3.08C2.48 17 2 16.55 2 16C2 15.45 2.49 15 3.08 15H5V13H3.08C2.48 13 2 12.55 2 12C2 11.45 2.49 11 3.08 11H5V9.5C5 9.3752 5.01617 9.25578 5.03268 9.13384C5.03866 9.08968 5.04468 9.0452 5.05 9H3.08C2.48 9 2 8.55 2 8C2 7.45 2.49 7 3.08 7H5.76C6.09 6.51 6.51 6.09 7 5.76V3.08C7 2.48 7.45 2 8 2C8.55 2 9 2.49 9 3.08V5.05C9.0452 5.04468 9.08968 5.03866 9.13384 5.03268C9.25578 5.01617 9.3752 5 9.5 5H11V3.08C11 2.48 11.45 2 12 2C12.55 2 13 2.49 13 3.08V5H15V3.08C15 2.48 15.45 2 16 2C16.55 2 17 2.49 17 3.08V5H19V3.08C19 2.48 19.45 2 20 2C20.55 2 21 2.49 21 3.08V5H22.5C22.6248 5 22.7442 5.01617 22.8662 5.03268C22.9103 5.03866 22.9548 5.04468 23 5.05V3.08C23 2.48 23.45 2 24 2C24.55 2 25 2.49 25 3.08V5.76C25.49 6.09 25.91 6.51 26.24 7H28.92C29.52 7 30 7.45 30 8C30 8.55 29.51 9 28.92 9H26.95C26.9553 9.04519 26.9613 9.08968 26.9673 9.13383C26.9838 9.25577 27 9.37519 27 9.5V11H28.92C29.52 11 30 11.45 30 12ZM22.5 25C23.88 25 25 23.88 25 22.5V9.5C25 8.12 23.88 7 22.5 7H9.5C8.12 7 7 8.12 7 9.5V22.5C7 23.88 8.12 25 9.5 25H22.5Z" fill="#212121"/>
</svg>
