<svg xmlns="http://www.w3.org/2000/svg" width="231" height="160" fill="none" viewBox="0 0 231 160">
  <path fill="#F0F0F0" d="M115.612 147.8c37.749 0 68.351-30.624 68.351-68.4 0-37.7763-30.602-68.4-68.351-68.4-37.749 0-68.3507 30.6237-68.3507 68.4 0 37.776 30.6017 68.4 68.3507 68.4Z"/>
  <g filter="url(#filter0_d_3831_4960)">
    <path fill="url(#paint0_linear_3831_4960)" d="M178.664 38.6464v83.6286c0 2.948-2.42 5.376-5.359 5.376H58.9784c-2.9388 0-5.3589-2.428-5.3589-5.376V38.6464c0-2.9485 2.4201-5.3766 5.3589-5.3766H173.305c2.939 0 5.359 2.4281 5.359 5.3766Z"/>
  </g>
  <path fill="url(#paint1_linear_3831_4960)" d="M139.643 73.4594c-.665-2.458-2.216-4.5807-4.433-5.9214-2.438-1.4524-4.987-1.6759-7.758-1.8993-4.876-.5587-9.863-.6704-14.85-.4469-4.433.1117-9.531-.1118-13.6317 1.7876-5.8737 2.5696-6.6495 8.2676-6.8711 14.4124-.2217 4.5807-.2217 10.0552.9974 14.5242.9974 3.5752 3.7681 6.368 7.4254 7.15 4.655 1.118 14.629 1.341 19.505 1.229h1.33c3.879-.111 7.979-.111 11.526-1.452 2.992-1.006 4.765-2.793 5.873-5.0277 1.33-2.6814 1.663-6.0331 1.774-9.72.443-4.8042.332-10.2787-.887-14.6359Z"/>
  <path fill="#fff" d="M112.135 78.3001c0-1.4741.745-1.9655 1.954-1.1793 3.257 2.0638 6.607 4.2259 9.864 6.2896 1.21.7862 1.21 1.6707 0 2.5552-3.257 2.0638-6.514 4.2258-9.771 6.2896-1.302.7862-1.954.3931-2.047-.9828V78.3001Z"/>
  <path fill="#D0C6B8" d="M178.664 39.0681v3.8815H53.6195v-3.8815c0-2.9326 2.4202-5.3478 5.3589-5.3478H173.306c2.938 0 5.358 2.4152 5.358 5.3478Z"/>
  <path fill="#F4F1EA" d="M58.8663 40.0168c.9045 0 1.6377-.7337 1.6377-1.6388s-.7332-1.6389-1.6377-1.6389-1.6377.7338-1.6377 1.6389.7332 1.6388 1.6377 1.6388Z"/>
  <path fill="#A09F9D" d="M63.9516 40.0168c.9045 0 1.6377-.7337 1.6377-1.6388s-.7332-1.6389-1.6377-1.6389-1.6377.7338-1.6377 1.6389.7332 1.6388 1.6377 1.6388Z" opacity=".6"/>
  <path fill="#949390" d="M69.1234 40.0168c.9044 0 1.6376-.7337 1.6376-1.6388s-.7332-1.6389-1.6376-1.6389c-.9045 0-1.6377.7338-1.6377 1.6389s.7332 1.6388 1.6377 1.6388Z" opacity=".4"/>
  <defs>
    <linearGradient id="paint0_linear_3831_4960" x1="116.101" x2="116.101" y1="31.0866" y2="128.669" gradientUnits="userSpaceOnUse">
      <stop stop-color="#FDFEFF"/>
      <stop offset=".9964" stop-color="#F5F2EC"/>
    </linearGradient>
    <linearGradient id="paint1_linear_3831_4960" x1="115.925" x2="116.442" y1="59.1277" y2="88.4693" gradientUnits="userSpaceOnUse">
      <stop stop-color="#E1DAD0"/>
      <stop offset="1" stop-color="#CCC1B1"/>
    </linearGradient>
    <filter id="filter0_d_3831_4960" width="146.645" height="115.981" x="42.8195" y="33.2698" color-interpolation-filters="sRGB" filterUnits="userSpaceOnUse">
      <feFlood flood-opacity="0" result="BackgroundImageFix"/>
      <feColorMatrix in="SourceAlpha" result="hardAlpha" values="0 0 0 0 0 0 0 0 0 0 0 0 0 0 0 0 0 0 127 0"/>
      <feOffset dy="10.8"/>
      <feGaussianBlur stdDeviation="5.4"/>
      <feColorMatrix values="0 0 0 0 0.576471 0 0 0 0 0.501961 0 0 0 0 0.396078 0 0 0 0.37 0"/>
      <feBlend in2="BackgroundImageFix" result="effect1_dropShadow_3831_4960"/>
      <feBlend in="SourceGraphic" in2="effect1_dropShadow_3831_4960" result="shape"/>
    </filter>
  </defs>
</svg>
