<svg width="16" height="16" viewBox="0 0 16 16" fill="none" xmlns="http://www.w3.org/2000/svg">
<path d="M12.5035 3.25C11.3297 2.13656 9.74438 1.45455 8 1.45455C4.38504 1.45455 1.45455 4.38505 1.45455 8C1.45455 11.615 4.38504 14.5455 8 14.5455C11.615 14.5455 14.5455 11.615 14.5455 8C14.5455 7.59834 14.8711 7.27273 15.2727 7.27273C15.6744 7.27273 16 7.59834 16 8C16 12.4183 12.4183 16 8 16C3.58172 16 0 12.4183 0 8C0 3.58172 3.58172 0 8 0C10.0093 0 11.8454 0.741107 13.25 1.96362V1C13.25 0.585786 13.5858 0.25 14 0.25C14.4142 0.25 14.75 0.585786 14.75 1V3.74621C14.8472 4.0341 14.7547 4.3602 14.5074 4.55235C14.3738 4.67507 14.1957 4.75 14 4.75H11C10.5858 4.75 10.25 4.41421 10.25 4C10.25 3.58579 10.5858 3.25 11 3.25H12.5035Z" fill="#212121"/>
<path d="M6.64844 11V5.27344H5.90234C5.67318 5.44792 5.41667 5.60807 5.13281 5.75391C4.84896 5.89974 4.54688 6.01953 4.22656 6.11328V7.15234C4.33594 7.13932 4.44661 7.11849 4.55859 7.08984C4.67057 7.05859 4.77865 7.02214 4.88281 6.98047C4.98698 6.9362 5.08464 6.88802 5.17578 6.83594C5.26953 6.78125 5.35026 6.72396 5.41797 6.66406V11H6.64844Z" fill="#212121"/>
<path d="M8.55469 9.80078V10.8555C8.92188 11.0169 9.375 11.0977 9.91406 11.0977C10.5781 11.0977 11.1042 10.9193 11.4922 10.5625C11.8802 10.2031 12.0742 9.74089 12.0742 9.17578C12.0742 8.66536 11.9115 8.25911 11.5859 7.95703C11.2604 7.65495 10.8099 7.50391 10.2344 7.50391C10.0885 7.50391 9.91536 7.51172 9.71484 7.52734L9.79297 6.40625H11.8164V5.39844H8.85156L8.64062 8.52344C9.01823 8.47917 9.35156 8.45703 9.64062 8.45703C10.4245 8.45703 10.8164 8.73438 10.8164 9.28906C10.8164 9.55469 10.724 9.76562 10.5391 9.92188C10.3568 10.0755 10.1029 10.1523 9.77734 10.1523C9.34505 10.1523 8.9375 10.0352 8.55469 9.80078Z" fill="#212121"/>
</svg>
