<svg width="12" height="13" viewBox="0 0 12 13" fill="none" xmlns="http://www.w3.org/2000/svg">
<path d="M10 1.5C10 1.22386 10.2239 1 10.5 1C10.7761 1 11 1.22386 11 1.5V4C11 4.27614 10.7761 4.5 10.5 4.5H8C7.72386 4.5 7.5 4.27614 7.5 4C7.5 3.72386 7.72386 3.5 8 3.5H9.67772C8.75251 2.52804 7.44684 1.92308 6 1.92308C3.19609 1.92308 0.923077 4.19609 0.923077 7C0.923077 9.80391 3.19609 12.0769 6 12.0769C8.80391 12.0769 11.0769 9.80391 11.0769 7C11.0769 6.7451 11.2836 6.53846 11.5385 6.53846C11.7934 6.53846 12 6.7451 12 7C12 10.3137 9.31371 13 6 13C2.68629 13 0 10.3137 0 7C0 3.68629 2.68629 1 6 1C7.53696 1 8.93878 1.5781 10 2.52786V1.5Z" fill="#212121"/>
<path d="M4.72822 9.29492V5H4.19582C4.03229 5.13086 3.84925 5.25098 3.64669 5.36035C3.44413 5.46973 3.22857 5.55957 3 5.62988V6.40918C3.07805 6.39941 3.15703 6.38379 3.23693 6.3623C3.31684 6.33887 3.39396 6.31152 3.46829 6.28027C3.54262 6.24707 3.61231 6.21094 3.67735 6.17188C3.74425 6.13086 3.80186 6.08789 3.85017 6.04297V9.29492H4.72822Z" fill="#212121"/>
<path d="M6.0885 8.39551V9.18652C6.35052 9.30762 6.67387 9.36816 7.05854 9.36816C7.5324 9.36816 7.90778 9.23438 8.18467 8.9668C8.46156 8.69727 8.6 8.35059 8.6 7.92676C8.6 7.54395 8.48386 7.23926 8.25157 7.0127C8.01928 6.78613 7.69779 6.67285 7.28711 6.67285C7.18304 6.67285 7.05947 6.67871 6.91638 6.69043L6.97213 5.84961H8.41603V5.09375H6.30035L6.14983 7.4375C6.41928 7.4043 6.65714 7.3877 6.86341 7.3877C7.42276 7.3877 7.70244 7.5957 7.70244 8.01172C7.70244 8.21094 7.63647 8.36914 7.50453 8.48633C7.37445 8.60156 7.19326 8.65918 6.96098 8.65918C6.6525 8.65918 6.36167 8.57129 6.0885 8.39551Z" fill="#212121"/>
</svg>
