<svg width="20" height="20" viewBox="0 0 20 20" fill="none" xmlns="http://www.w3.org/2000/svg">
<path d="M15.8874 4.58335C14.4245 2.99394 12.3282 2 10 2C5.58172 2 2 5.58172 2 10C2 14.4183 5.58172 18 10 18C14.4183 18 18 14.4183 18 10C18 9.44771 18.4477 9 19 9C19.5523 9 20 9.44771 20 10C20 15.5228 15.5228 20 10 20C4.47715 20 0 15.5228 0 10C0 4.47715 4.47715 0 10 0C12.8982 0 15.5079 1.23345 17.3333 3.20134V1.41669C17.3333 0.864402 17.781 0.416687 18.3333 0.416687C18.8856 0.416687 19.3333 0.864402 19.3333 1.41669V5.58335C19.3333 6.13564 18.8856 6.58335 18.3333 6.58335H14.5833C14.031 6.58335 13.5833 6.13564 13.5833 5.58335C13.5833 5.03107 14.031 4.58335 14.5833 4.58335H15.8874Z" fill="#212121"/>
<path d="M8.31055 6.8418V14H6.77246V8.58008C6.68783 8.65495 6.58691 8.72656 6.46973 8.79492C6.35579 8.86003 6.23372 8.92025 6.10352 8.97559C5.97331 9.02767 5.83822 9.07324 5.69824 9.1123C5.55827 9.14811 5.41992 9.17415 5.2832 9.19043V7.8916C5.68359 7.77441 6.0612 7.62467 6.41602 7.44238C6.77083 7.26009 7.09147 7.0599 7.37793 6.8418H8.31055Z" fill="#212121"/>
<path d="M10.6934 13.8193V12.501C11.1719 12.7939 11.6813 12.9404 12.2217 12.9404C12.6286 12.9404 12.946 12.8444 13.1738 12.6523C13.4049 12.457 13.5205 12.1934 13.5205 11.8613C13.5205 11.168 13.0306 10.8213 12.0508 10.8213C11.6895 10.8213 11.2728 10.849 10.8008 10.9043L11.0645 6.99805H14.7705V8.25781H12.2412L12.1436 9.65918C12.3942 9.63965 12.6107 9.62988 12.793 9.62988C13.5124 9.62988 14.0755 9.81868 14.4824 10.1963C14.8893 10.5739 15.0928 11.0817 15.0928 11.7197C15.0928 12.4261 14.8503 13.0039 14.3652 13.4531C13.8802 13.8991 13.2227 14.1221 12.3926 14.1221C11.7188 14.1221 11.1523 14.0212 10.6934 13.8193Z" fill="#212121"/>
</svg>
