<svg width="26" height="26" viewBox="0 0 26 26" fill="none" xmlns="http://www.w3.org/2000/svg">
<path d="M20.3095 5.39623C18.4128 3.5723 15.837 2.45283 13 2.45283C7.17496 2.45283 2.45283 7.17496 2.45283 13C2.45283 18.825 7.17496 23.5472 13 23.5472C18.825 23.5472 23.5472 18.825 23.5472 13C23.5472 12.3227 24.0963 11.7736 24.7736 11.7736C25.4509 11.7736 26 12.3227 26 13C26 20.1797 20.1797 26 13 26C5.8203 26 0 20.1797 0 13C0 5.8203 5.8203 0 13 0C16.2909 0 19.2957 1.22333 21.5849 3.23785V1.71698C21.5849 1.03965 22.134 0.490566 22.8113 0.490566C23.4887 0.490566 24.0377 1.03965 24.0377 1.71698V6.62264C24.0377 7.29997 23.4887 7.84906 22.8113 7.84906H18.3962C17.7189 7.84906 17.1698 7.29997 17.1698 6.62264C17.1698 5.94531 17.7189 5.39623 18.3962 5.39623H20.3095Z" fill="#212121"/>
<path d="M10.3037 18V8.69434H9.09131C8.71891 8.97786 8.30208 9.23812 7.84082 9.4751C7.37956 9.71208 6.88867 9.90674 6.36816 10.0591V11.7476C6.5459 11.7264 6.72575 11.6925 6.90771 11.646C7.08968 11.5952 7.2653 11.536 7.43457 11.4683C7.60384 11.3963 7.76253 11.318 7.91064 11.2334C8.06299 11.1445 8.19417 11.0514 8.3042 10.9541V18H10.3037Z" fill="#212121"/>
<path d="M13.4014 16.0513V17.7651C13.998 18.0275 14.7344 18.1587 15.6104 18.1587C16.6895 18.1587 17.5443 17.8688 18.1748 17.2891C18.8053 16.7051 19.1206 15.9539 19.1206 15.0356C19.1206 14.2062 18.8561 13.5461 18.3271 13.0552C17.7982 12.5643 17.0661 12.3188 16.1309 12.3188C15.8939 12.3188 15.6125 12.3315 15.2866 12.3569L15.4136 10.5352H18.7017V8.89746H13.8838L13.541 13.9756C14.1546 13.9036 14.6963 13.8677 15.166 13.8677C16.4398 13.8677 17.0767 14.3184 17.0767 15.2197C17.0767 15.6514 16.9264 15.9941 16.626 16.248C16.3298 16.4977 15.9172 16.6226 15.3882 16.6226C14.6857 16.6226 14.0234 16.4321 13.4014 16.0513Z" fill="#212121"/>
</svg>
