<svg width="16" height="16" viewBox="0 0 16 16" fill="none" xmlns="http://www.w3.org/2000/svg">
<path d="M13.3622 3.5C12.0775 1.97082 10.1521 1 8 1C4.13401 1 1 4.13401 1 8C1 11.866 4.13401 15 8 15C11.866 15 15 11.866 15 8C15 7.72386 15.2239 7.5 15.5 7.5C15.7761 7.5 16 7.72386 16 8C16 12.4183 12.4183 16 8 16C3.58172 16 0 12.4183 0 8C0 3.58172 3.58172 0 8 0C10.3898 0 12.5346 1.04818 14 2.70841V0.5C14 0.223858 14.2239 0 14.5 0C14.7761 0 15 0.223858 15 0.5V4C15 4.27614 14.7761 4.5 14.5 4.5H11C10.7239 4.5 10.5 4.27614 10.5 4C10.5 3.72386 10.7239 3.5 11 3.5H13.3622Z" fill="#212121"/>
<path d="M6.64844 11V5.27344H5.90234C5.67318 5.44792 5.41667 5.60807 5.13281 5.75391C4.84896 5.89974 4.54688 6.01953 4.22656 6.11328V7.15234C4.33594 7.13932 4.44661 7.11849 4.55859 7.08984C4.67057 7.05859 4.77865 7.02214 4.88281 6.98047C4.98698 6.9362 5.08464 6.88802 5.17578 6.83594C5.26953 6.78125 5.35026 6.72396 5.41797 6.66406V11H6.64844Z" fill="#212121"/>
<path d="M8.55469 9.80078V10.8555C8.92188 11.0169 9.375 11.0977 9.91406 11.0977C10.5781 11.0977 11.1042 10.9193 11.4922 10.5625C11.8802 10.2031 12.0742 9.74089 12.0742 9.17578C12.0742 8.66536 11.9115 8.25911 11.5859 7.95703C11.2604 7.65495 10.8099 7.50391 10.2344 7.50391C10.0885 7.50391 9.91536 7.51172 9.71484 7.52734L9.79297 6.40625H11.8164V5.39844H8.85156L8.64062 8.52344C9.01823 8.47917 9.35156 8.45703 9.64062 8.45703C10.4245 8.45703 10.8164 8.73438 10.8164 9.28906C10.8164 9.55469 10.724 9.76562 10.5391 9.92188C10.3568 10.0755 10.1029 10.1523 9.77734 10.1523C9.34505 10.1523 8.9375 10.0352 8.55469 9.80078Z" fill="#212121"/>
</svg>
