<svg width="20" height="20" viewBox="0 0 20 20" fill="none" xmlns="http://www.w3.org/2000/svg">
<path d="M16.1295 4.16667C14.5875 2.54674 12.4114 1.53846 10 1.53846C5.32682 1.53846 1.53846 5.32682 1.53846 10C1.53846 14.6732 5.32682 18.4615 10 18.4615C14.6732 18.4615 18.4615 14.6732 18.4615 10C18.4615 9.57517 18.8059 9.23077 19.2308 9.23077C19.6556 9.23077 20 9.57517 20 10C20 15.5228 15.5228 20 10 20C4.47715 20 0 15.5228 0 10C0 4.47715 4.47715 0 10 0C12.7259 0 15.1968 1.0911 17 2.85868V0.75C17 0.335786 17.3358 0 17.75 0C18.1642 0 18.5 0.335786 18.5 0.75V4.91667C18.5 5.33088 18.1642 5.66667 17.75 5.66667H14C13.5858 5.66667 13.25 5.33088 13.25 4.91667C13.25 4.50245 13.5858 4.16667 14 4.16667H16.1295Z" fill="#212121"/>
<path d="M8.31055 14V6.8418H7.37793C7.09147 7.0599 6.77083 7.26009 6.41602 7.44238C6.0612 7.62467 5.68359 7.77441 5.2832 7.8916V9.19043C5.41992 9.17415 5.55827 9.14811 5.69824 9.1123C5.83822 9.07324 5.97331 9.02767 6.10352 8.97559C6.23372 8.92025 6.35579 8.86003 6.46973 8.79492C6.58691 8.72656 6.68783 8.65495 6.77246 8.58008V14H8.31055Z" fill="#212121"/>
<path d="M10.6934 12.501V13.8193C11.1523 14.0212 11.7188 14.1221 12.3926 14.1221C13.2227 14.1221 13.8802 13.8991 14.3652 13.4531C14.8503 13.0039 15.0928 12.4261 15.0928 11.7197C15.0928 11.0817 14.8893 10.5739 14.4824 10.1963C14.0755 9.81868 13.5124 9.62988 12.793 9.62988C12.6107 9.62988 12.3942 9.63965 12.1436 9.65918L12.2412 8.25781H14.7705V6.99805H11.0645L10.8008 10.9043C11.2728 10.849 11.6895 10.8213 12.0508 10.8213C13.0306 10.8213 13.5205 11.168 13.5205 11.8613C13.5205 12.1934 13.4049 12.457 13.1738 12.6523C12.946 12.8444 12.6286 12.9404 12.2217 12.9404C11.6813 12.9404 11.1719 12.7939 10.6934 12.501Z" fill="#212121"/>
</svg>
