<svg width="22" height="22" viewBox="0 0 22 22" fill="none" xmlns="http://www.w3.org/2000/svg">
<path d="M11 1.53488C13.8712 1.53488 16.4442 2.81287 18.1809 4.83335H16C15.5858 4.83335 15.25 5.16914 15.25 5.58335C15.25 5.99757 15.5858 6.33335 16 6.33335H19.75C20.1642 6.33335 20.5 5.99757 20.5 5.58335V1.41669C20.5 1.00247 20.1642 0.666687 19.75 0.666687C19.3358 0.666687 19 1.00247 19 1.41669V3.45023C16.9951 1.32667 14.1526 0 11 0C4.92487 0 0 4.92487 0 11C0 17.0751 4.92487 22 11 22C17.0751 22 22 17.0751 22 11C22 10.5762 21.6564 10.2326 21.2326 10.2326C20.8087 10.2326 20.4651 10.5762 20.4651 11C20.4651 16.2274 16.2274 20.4651 11 20.4651C5.77256 20.4651 1.53488 16.2274 1.53488 11C1.53488 5.77256 5.77256 1.53488 11 1.53488Z" fill="#212121"/>
<path d="M8.6416 7.12598V15H6.94971V9.03809C6.85661 9.12044 6.74561 9.19922 6.6167 9.27441C6.49137 9.34603 6.3571 9.41227 6.21387 9.47314C6.07064 9.53044 5.92204 9.58057 5.76807 9.62354C5.6141 9.66292 5.46191 9.69157 5.31152 9.70947V8.28076C5.75195 8.15186 6.16732 7.98714 6.55762 7.78662C6.94792 7.5861 7.30062 7.36589 7.61572 7.12598H8.6416Z" fill="#212121"/>
<path d="M11.2627 14.8013V13.3511C11.7891 13.6733 12.3494 13.8345 12.9438 13.8345C13.3914 13.8345 13.7406 13.7288 13.9912 13.5176C14.2454 13.3027 14.3726 13.0127 14.3726 12.6475C14.3726 11.8848 13.8337 11.5034 12.7559 11.5034C12.3584 11.5034 11.9001 11.5339 11.3809 11.5947L11.6709 7.29785H15.7476V8.68359H12.9653L12.8579 10.2251C13.1336 10.2036 13.3717 10.1929 13.5723 10.1929C14.3636 10.1929 14.9831 10.4006 15.4307 10.8159C15.8783 11.2313 16.1021 11.7899 16.1021 12.4917C16.1021 13.2687 15.8353 13.9043 15.3018 14.3984C14.7682 14.889 14.0449 15.1343 13.1318 15.1343C12.3906 15.1343 11.7676 15.0233 11.2627 14.8013Z" fill="#212121"/>
</svg>
