<svg xmlns="http://www.w3.org/2000/svg" width="230" height="160" fill="none"><path fill="#000" fill-opacity=".2" d="M115.221 145c34.266 0 62-28.002 62-62.55 0-34.55-27.734-62.45-62-62.45s-62 28.002-62 62.55c0 34.65 27.834 62.45 62 62.45"/><g filter="url(#a)"><circle cx="115.721" cy="66.5" r="51.5" fill="url(#b)"/></g><circle cx="115.721" cy="66.5" r="51" stroke="url(#c)" stroke-opacity=".2"/><g filter="url(#d)"><ellipse cx="115.721" cy="66" fill="url(#e)" rx="44.5" ry="45"/></g><path stroke="url(#f)" d="M115.721 21.5c24.295 0 44 19.918 44 44.5s-19.705 44.5-44 44.5-44-19.918-44-44.5 19.704-44.5 44-44.5Z"/><path fill="url(#g)" stroke="url(#h)" stroke-width=".5" d="M100.386 44.291c1.832 0 3.281.475 4.372 1.402l.002.001c1.093.914 1.643 2.141 1.643 3.707l-.004.204c-.038 1.011-.361 1.859-.963 2.556-.415.475-.834.783-1.255.945l.09.484c.109 0 .277.05.514.191q.262.157.599.444l.233.207c.923.855 1.395 2.029 1.395 3.551l-.007.297q-.096 2.209-1.66 3.92c-1.085 1.187-2.709 1.8-4.919 1.8-2.553 0-4.323-.777-5.377-2.287l-.201-.312c-.51-.866-.81-1.999-.896-3.412h3.279c.024.703.153 1.31.399 1.81.256.516.62.911 1.095 1.175.472.262 1.039.386 1.688.386.821 0 1.539-.281 2.145-.837.632-.583.934-1.406.934-2.431 0-.678-.137-1.265-.429-1.744-.292-.482-.729-.84-1.295-1.074h-.001c-.601-.245-1.496-.366-2.661-.38v-2.272c1.128-.03 1.965-.149 2.477-.38h.001a2.24 2.24 0 0 0 1.081-.967c.24-.43.353-.956.353-1.563l-.011-.295c-.053-.673-.29-1.247-.721-1.704-.491-.53-1.178-.782-2.022-.782-.967 0-1.72.31-2.203.967-.436.58-.65 1.325-.67 2.214H94.3a9.4 9.4 0 0 1 .468-2.43q.45-1.096 1.43-2.04a4.9 4.9 0 0 1 1.711-1c.66-.231 1.484-.351 2.476-.351Zm15.635-.041c2.434 0 4.093.85 5.048 2.514.971 1.705 1.469 4.155 1.469 7.375s-.503 5.664-1.482 7.36v.001c-.946 1.653-2.601 2.5-5.035 2.5-2.436 0-4.095-.847-5.05-2.501-.971-1.697-1.469-4.141-1.469-7.36l.006-.595c.058-2.928.553-5.181 1.463-6.78h.001c.955-1.662 2.614-2.514 5.049-2.514Zm15.43 0c2.434 0 4.094.85 5.049 2.514.971 1.705 1.47 4.155 1.47 7.375s-.504 5.664-1.483 7.36v.001c-.946 1.653-2.601 2.5-5.036 2.5s-4.095-.847-5.05-2.501c-.97-1.697-1.467-4.141-1.467-7.36l.005-.595c.059-2.928.552-5.181 1.462-6.78h.001c.896-1.559 2.41-2.405 4.602-2.504zm-15.43 2.68c-.616 0-1.148.154-1.579.477-.43.323-.736.798-.933 1.403-.383 1.176-.568 2.959-.568 5.329 0 2.264.185 4.022.566 5.258h.001c.195.63.5 1.126.93 1.463.431.34.964.5 1.583.5.618 0 1.151-.163 1.58-.505.426-.34.728-.84.919-1.473l.001-.001c.362-1.226.538-2.978.538-5.242l-.009-.862c-.04-1.944-.218-3.436-.544-4.465h.001c-.187-.604-.488-1.08-.914-1.404s-.957-.477-1.572-.477Zm15.43 0c-.615 0-1.147.154-1.578.477-.43.323-.736.798-.933 1.403-.382 1.175-.568 2.959-.568 5.329 0 2.264.186 4.022.566 5.258h.001c.196.63.501 1.126.93 1.463.377.297.833.457 1.355.492l.227.008c.619 0 1.151-.163 1.58-.505.427-.34.729-.839.92-1.473l.001-.001c.362-1.226.538-2.978.538-5.242l-.009-.862c-.039-1.944-.218-3.436-.544-4.465h.001c-.188-.604-.489-1.08-.915-1.404s-.956-.477-1.572-.477Z"/><path fill="#636363" d="M114.485 24.914h2.6v6.5h-2.6z"/><path fill="#383838" d="m126.021 26.204.837.224-1.121 4.186-.837-.225z"/><path fill="#636363" d="M114.485 100.744h2.6v6.5h-2.6zM135.242 29.779l2.252 1.3-3.25 5.63-2.252-1.3zM97.327 95.45l2.252 1.3-3.25 5.63-2.252-1.3zM150.785 44.37l1.3 2.252-5.63 3.25-1.3-2.252zM85.114 82.285l1.3 2.251-5.629 3.25-1.3-2.251zM156.95 64.778v2.6h-6.5v-2.6zM81.12 64.778v2.6h-6.5v-2.6zM152.085 85.535l-1.3 2.252-5.629-3.25 1.3-2.252zM86.415 47.62l-1.3 2.252-5.63-3.25 1.3-2.252zM137.493 101.078l-2.252 1.3-3.25-5.63 2.252-1.3zM99.579 35.408l-2.252 1.3-3.25-5.63 2.252-1.3z"/><path fill="#383838" d="m105.834 101.543.837.224-1.121 4.186-.837-.225zM144.587 36.664l.613.613-3.064 3.064-.613-.613zM89.435 91.816l.613.613-3.064 3.064-.613-.613zM155.435 55.006l.224.837-4.185 1.122-.224-.838zM80.096 75.193l.225.837-4.186 1.122-.224-.838zM155.66 76.314l-.224.837-4.186-1.121.225-.837zM80.321 56.128l-.224.837-4.186-1.121.225-.838zM145.2 94.88l-.613.613-3.064-3.064.613-.613zM90.048 39.728l-.613.613-3.064-3.064.613-.613zM126.858 105.729l-.837.224-1.122-4.185.838-.224zM106.67 30.39l-.837.224-1.121-4.186.837-.224zM110.659 106.925l-.86-.117.586-4.293.859.117zM121.186 29.642l-.86-.117.586-4.293.859.117zM100.262 104.207l-.8-.335 1.677-3.996.8.335zM130.432 32.281l-.8-.335 1.677-3.996.8.336zM90.922 98.89l-.685-.532 2.653-3.425.685.53zM138.68 37.224l-.686-.53 2.654-3.426.685.53zM83.277 91.337l-.524-.69 3.449-2.623.525.69zM145.37 44.133l-.526-.69 3.45-2.623.525.69zM77.848 82.062l-.329-.802 4.01-1.64.33.802zM150.04 52.537l-.328-.802 4.01-1.64.328.802zM75.003 71.699l-.11-.86 4.3-.547.109.86zM152.378 61.865l-.109-.86 4.298-.547.11.86zM74.939 60.952l.117-.859 4.293.585-.117.859zM152.222 71.479l.117-.86 4.293.586-.117.859zM77.657 50.555l.336-.8 3.995 1.676-.335.8zM149.582 80.725l.335-.8 3.996 1.677-.335.8zM82.974 41.215l.53-.685 3.426 2.653-.53.685zM144.64 88.974l.531-.686 3.426 2.654-.53.685zM90.528 33.57l.69-.525 2.622 3.45-.69.524zM137.731 95.662l.69-.525 2.623 3.45-.69.524zM99.802 28.14l.803-.327 1.64 4.01-.803.328zM129.327 100.333l.802-.328 1.64 4.01-.802.329zM110.165 25.296l.86-.11.546 4.3-.86.108zM119.999 102.671l.86-.11.546 4.3-.86.108z"/><g filter="url(#i)"><circle cx="115.401" cy="66.671" r="6.5" fill="url(#j)" transform="rotate(45 115.401 66.671)"/><circle cx="115.401" cy="66.671" r="6" stroke="url(#k)" stroke-opacity=".4" transform="rotate(45 115.401 66.671)"/></g><g filter="url(#l)"><path fill="url(#m)" d="M141.376 38.98c.936-.777 2.187.474 1.409 1.409l-22.513 27.066a1 1 0 0 1-1.476.068l-4.553-4.553a1 1 0 0 1 .067-1.476z"/><path stroke="url(#n)" stroke-opacity=".8" d="M141.696 39.365c.468-.389 1.093.237.704.705l-22.513 27.065a.5.5 0 0 1-.738.034l-4.553-4.553a.5.5 0 0 1 .034-.738z"/><path stroke="url(#o)" stroke-opacity=".3" d="M141.696 39.365c.468-.389 1.093.237.704.705l-22.513 27.065a.5.5 0 0 1-.738.034l-4.553-4.553a.5.5 0 0 1 .034-.738z"/></g><g filter="url(#p)"><circle cx="115.401" cy="66.671" r="5.633" fill="url(#q)" transform="rotate(45 115.401 66.671)"/><circle cx="115.401" cy="66.671" r="5.133" stroke="url(#r)" stroke-opacity=".4" transform="rotate(45 115.401 66.671)"/></g><g filter="url(#s)"><path fill="url(#t)" d="M74.53 99.092a5.904 5.904 0 0 1 5.587-6.206l68.261-3.577a5.905 5.905 0 0 1 6.206 5.587l1.331 25.4a5.904 5.904 0 0 1-5.587 6.205l-68.262 3.578a5.905 5.905 0 0 1-6.205-5.588z"/><path fill="url(#u)" d="m150.232 124.687.096 1.814-68.262 3.578-.095-1.815zm3.869-4.296-1.332-25.4a4.087 4.087 0 0 0-4.296-3.868l-68.261 3.578a4.09 4.09 0 0 0-3.868 4.296l1.33 25.399a4.087 4.087 0 0 0 4.297 3.868l.095 1.815a5.905 5.905 0 0 1-6.205-5.588l-1.332-25.4a5.904 5.904 0 0 1 5.436-6.195l.152-.01 68.261-3.577.153-.006a5.905 5.905 0 0 1 6.053 5.593l1.331 25.4.006.152a5.905 5.905 0 0 1-5.593 6.053l-.096-1.814a4.09 4.09 0 0 0 3.869-4.296"/><path fill="url(#v)" d="M134.18 97.819c-.172-.809.737-1.408 1.412-.932l14.871 10.487a.91.91 0 0 1 .075 1.426l-13.694 11.984c-.621.544-1.588.042-1.501-.779l.345-3.267a.908.908 0 0 0-.951-1.003l-51.462 2.697a.91.91 0 0 1-.955-.859l-.618-11.793a.91.91 0 0 1 .86-.955l51.462-2.697a.908.908 0 0 0 .841-1.096z"/><path stroke="url(#w)" stroke-opacity=".4" stroke-width=".1" d="m150.185 124.739.09 1.715-68.162 3.572-.09-1.714zm-67.915-7.164a.96.96 0 0 0 1.008.907l51.462-2.696a.857.857 0 0 1 .898.947l-.345 3.267c-.091.866.928 1.395 1.584.821l13.693-11.984a.958.958 0 0 0-.078-1.504l-14.871-10.487c-.713-.502-1.671.13-1.49.983l.685 3.214a.86.86 0 0 1-.795 1.036l-51.461 2.697a.96.96 0 0 0-.908 1.007zm71.781 2.818a4.04 4.04 0 0 1-3.821 4.244l-68.262 3.578a4.04 4.04 0 0 1-4.243-3.821l-1.33-25.4a4.037 4.037 0 0 1 3.82-4.243l68.261-3.578a4.04 4.04 0 0 1 4.244 3.82zm-72.298-14.616a.86.86 0 0 1 .812-.902l51.461-2.697a.957.957 0 0 0 .887-1.156l-.684-3.214c-.163-.764.696-1.33 1.334-.88l14.871 10.487c.455.32.489.981.071 1.347l-13.693 11.984c-.588.514-1.502.04-1.42-.736l.345-3.267a.958.958 0 0 0-1.003-1.058l-51.461 2.697a.86.86 0 0 1-.902-.812zm71.066-10.788a4.137 4.137 0 0 0-4.348-3.916l-68.262 3.578a4.14 4.14 0 0 0-3.915 4.348l1.33 25.4a4.136 4.136 0 0 0 4.3 3.916l.09 1.714a5.85 5.85 0 0 1-6.104-5.54l-1.33-25.4a5.9 5.9 0 0 1 .245-2.017l.032-.1a6 6 0 0 1 .456-1.041q.041-.075.084-.146.03-.052.063-.102a6 6 0 0 1 .157-.24l.083-.117.092-.118.08-.105q.062-.075.126-.148l.05-.06q.045-.05.092-.099l.108-.115.082-.08.11-.107q.062-.056.124-.11l.08-.072q.072-.06.146-.117l.073-.059.12-.088.114-.082q.047-.033.096-.064a6 6 0 0 1 .247-.156l.119-.07q.076-.042.153-.08.051-.029.104-.055a6 6 0 0 1 .804-.328l.127-.04.133-.037a6 6 0 0 1 1.238-.2l68.263-3.577a6 6 0 0 1 1.787.18q.094.025.186.054a6 6 0 0 1 .65.234l.125.057.105.05a5 5 0 0 1 .371.195l.139.083.08.05.156.102q.045.03.088.063a6 6 0 0 1 .254.19l.09.072q.07.059.138.119l.069.06q.069.063.135.127l.063.06q.065.067.129.135l.077.082q.049.054.096.11l.083.095.099.126.075.095.098.137a6 6 0 0 1 .561.987l.043.097a5.8 5.8 0 0 1 .356 1.17q.077.396.1.81l1.331 25.399a6 6 0 0 1-.003.664l-.012.152a6 6 0 0 1-.033.293q-.008.064-.018.127a6 6 0 0 1-.054.283q-.017.085-.038.171l-.022.093-.051.178-.03.104-.049.146-.055.153-.029.076-.078.186q-.022.052-.046.102-.026.061-.054.121l-.058.114a6 6 0 0 1-.216.388l-.073.115-.085.131-.068.095q-.042.06-.085.117l-.116.15-.054.069-.122.141-.064.073-.114.121-.084.086a5 5 0 0 1-.203.193l-.11.097-.099.084-.088.071a5 5 0 0 1-.237.179 6 6 0 0 1-.772.466l-.081.04-.136.063-.125.056-.116.046a6 6 0 0 1-.985.297l-.135.024q-.076.015-.152.027a6 6 0 0 1-.54.057l-.09-1.715a4.137 4.137 0 0 0 3.866-4.344z"/></g><path fill="#818181" d="M145.464 76.261v3.25h-1.478v-3.367q0-.446-.152-.72-.198-.386-.752-.386-.573 0-.873.386-.294.38-.295 1.091v2.996h-1.442v-7.46h1.442v2.646q.315-.482.726-.67.417-.193.874-.193.513 0 .929.178.421.178.691.543.228.31.279.64.051.325.051 1.066M136.323 79.511l2.9-7.713h1.203l-2.909 7.713zM131.423 75.5q-.183-.402-.716-.402-.62 0-.832.401-.117.23-.117.68v3.332h-1.468v-5.525h1.407v.807q.268-.43.508-.614.421-.325 1.091-.325.635 0 1.026.28.315.258.477.665.285-.488.706-.717.447-.228.995-.228.366 0 .722.142.355.142.644.498.234.29.315.71.051.28.051.818l-.01 3.489h-1.483v-3.524q0-.315-.101-.518-.194-.386-.711-.386-.6 0-.828.498a1.6 1.6 0 0 0-.117.634v3.296h-1.457v-3.296q0-.492-.102-.716M127.605 79.511h-1.747l-1.325-2.366-.599.624v1.742h-1.422v-7.46h1.422v4.033l1.802-2.082h1.793l-1.935 2.117z"/><defs><linearGradient id="b" x1="64.221" x2="85.361" y1="110.919" y2="15.382" gradientUnits="userSpaceOnUse"><stop offset=".004" stop-color="#454545"/><stop offset="1" stop-color="#575245"/></linearGradient><linearGradient id="c" x1="151.718" x2="102.975" y1="97.445" y2="25.042" gradientUnits="userSpaceOnUse"><stop offset=".113" stop-color="#4e5078"/><stop offset="1" stop-color="#f9cc45"/></linearGradient><linearGradient id="e" x1="175.781" x2="97.013" y1="95.918" y2="-5.755" gradientUnits="userSpaceOnUse"><stop offset=".004" stop-color="#1a1919"/><stop offset="1" stop-color="#575245"/></linearGradient><linearGradient id="f" x1="126.788" x2="86.764" y1="66.956" y2="-12.255" gradientUnits="userSpaceOnUse"><stop offset=".113" stop-color="#4e5078"/><stop offset="1" stop-color="#f9cc45"/></linearGradient><linearGradient id="g" x1="111.221" x2="107.669" y1="42" y2="53.753" gradientUnits="userSpaceOnUse"><stop stop-color="#ffeaaa"/><stop offset="1" stop-color="#d4a723"/></linearGradient><linearGradient id="h" x1="104.116" x2="100.289" y1="38.645" y2="55.309" gradientUnits="userSpaceOnUse"><stop stop-color="#ffe28d"/><stop offset="1" stop-color="#e7b10e"/></linearGradient><linearGradient id="j" x1="124.173" x2="112.828" y1="70.992" y2="56.184" gradientUnits="userSpaceOnUse"><stop offset=".004" stop-color="#1a1919"/><stop offset="1" stop-color="#575245"/></linearGradient><linearGradient id="k" x1="117.017" x2="112.046" y1="66.809" y2="59.42" gradientUnits="userSpaceOnUse"><stop offset=".113" stop-color="#4e5078"/><stop offset="1" stop-color="#f9cc45"/></linearGradient><linearGradient id="m" x1="117.623" x2="104.992" y1="73.654" y2="54.402" gradientUnits="userSpaceOnUse"><stop offset=".004" stop-color="#1a1919"/><stop offset="1" stop-color="#575245"/></linearGradient><linearGradient id="n" x1="118.945" x2="110.24" y1="67.817" y2="54.188" gradientUnits="userSpaceOnUse"><stop offset=".113" stop-color="#4e5078"/><stop offset="1" stop-color="#f9cc45"/></linearGradient><linearGradient id="o" x1="142.221" x2="145.08" y1="37.5" y2="39.739" gradientUnits="userSpaceOnUse"><stop stop-color="#ffedb6"/><stop offset="1"/></linearGradient><linearGradient id="q" x1="123.004" x2="113.171" y1="70.416" y2="57.582" gradientUnits="userSpaceOnUse"><stop offset=".004" stop-color="#1a1919"/><stop offset="1" stop-color="#575245"/></linearGradient><linearGradient id="r" x1="119.395" x2="112.986" y1="69.506" y2="60.623" gradientUnits="userSpaceOnUse"><stop offset=".113" stop-color="#4e5078"/><stop offset="1" stop-color="#f9cc45"/></linearGradient><linearGradient id="t" x1="68.39" x2="83.544" y1="96.766" y2="141.212" gradientUnits="userSpaceOnUse"><stop offset=".004" stop-color="#3f3c33"/><stop offset="1" stop-color="#2c2a2f"/></linearGradient><linearGradient id="u" x1="76.036" x2="77.84" y1="127.831" y2="91.829" gradientUnits="userSpaceOnUse"><stop offset=".004" stop-color="#646778"/><stop offset="1" stop-color="#cac1a1"/></linearGradient><linearGradient id="v" x1="82.56" x2="83.163" y1="122.151" y2="98.565" gradientUnits="userSpaceOnUse"><stop offset=".004" stop-color="#808083"/><stop offset="1" stop-color="#bbb59e"/></linearGradient><linearGradient id="w" x1="140.869" x2="134.058" y1="115.91" y2="92.714" gradientUnits="userSpaceOnUse"><stop offset=".113" stop-color="#4e5078"/><stop offset="1" stop-color="#f9cc45"/></linearGradient><filter id="a" width="103" height="107" x="64.221" y="15" color-interpolation-filters="sRGB" filterUnits="userSpaceOnUse"><feFlood flood-opacity="0" result="BackgroundImageFix"/><feBlend in="SourceGraphic" in2="BackgroundImageFix" result="shape"/><feColorMatrix in="SourceAlpha" result="hardAlpha" values="0 0 0 0 0 0 0 0 0 0 0 0 0 0 0 0 0 0 127 0"/><feOffset dy="4"/><feGaussianBlur stdDeviation="8"/><feComposite in2="hardAlpha" k2="-1" k3="1" operator="arithmetic"/><feColorMatrix values="0 0 0 0 0 0 0 0 0 0 0 0 0 0 0 0 0 0 0.4 0"/><feBlend in2="shape" result="effect1_innerShadow_7539_1709"/><feColorMatrix in="SourceAlpha" result="hardAlpha" values="0 0 0 0 0 0 0 0 0 0 0 0 0 0 0 0 0 0 127 0"/><feOffset dy="1"/><feGaussianBlur stdDeviation=".5"/><feComposite in2="hardAlpha" k2="-1" k3="1" operator="arithmetic"/><feColorMatrix values="0 0 0 0 0 0 0 0 0 0 0 0 0 0 0 0 0 0 0.08 0"/><feBlend in2="effect1_innerShadow_7539_1709" result="effect2_innerShadow_7539_1709"/></filter><filter id="d" width="89" height="94" x="71.221" y="21" color-interpolation-filters="sRGB" filterUnits="userSpaceOnUse"><feFlood flood-opacity="0" result="BackgroundImageFix"/><feBlend in="SourceGraphic" in2="BackgroundImageFix" result="shape"/><feColorMatrix in="SourceAlpha" result="hardAlpha" values="0 0 0 0 0 0 0 0 0 0 0 0 0 0 0 0 0 0 127 0"/><feOffset dy="4"/><feGaussianBlur stdDeviation="8"/><feComposite in2="hardAlpha" k2="-1" k3="1" operator="arithmetic"/><feColorMatrix values="0 0 0 0 0 0 0 0 0 0 0 0 0 0 0 0 0 0 0.4 0"/><feBlend in2="shape" result="effect1_innerShadow_7539_1709"/><feColorMatrix in="SourceAlpha" result="hardAlpha" values="0 0 0 0 0 0 0 0 0 0 0 0 0 0 0 0 0 0 127 0"/><feOffset dy="1"/><feGaussianBlur stdDeviation=".5"/><feComposite in2="hardAlpha" k2="-1" k3="1" operator="arithmetic"/><feColorMatrix values="0 0 0 0 0 0 0 0 0 0 0 0 0 0 0 0 0 0 0.08 0"/><feBlend in2="effect1_innerShadow_7539_1709" result="effect2_innerShadow_7539_1709"/></filter><filter id="i" width="44.999" height="44.999" x="92.901" y="48.171" color-interpolation-filters="sRGB" filterUnits="userSpaceOnUse"><feFlood flood-opacity="0" result="BackgroundImageFix"/><feColorMatrix in="SourceAlpha" result="hardAlpha" values="0 0 0 0 0 0 0 0 0 0 0 0 0 0 0 0 0 0 127 0"/><feOffset dy="4"/><feGaussianBlur stdDeviation="8"/><feComposite in2="hardAlpha" operator="out"/><feColorMatrix values="0 0 0 0 0 0 0 0 0 0 0 0 0 0 0 0 0 0 0.4 0"/><feBlend in2="BackgroundImageFix" result="effect1_dropShadow_7539_1709"/><feColorMatrix in="SourceAlpha" result="hardAlpha" values="0 0 0 0 0 0 0 0 0 0 0 0 0 0 0 0 0 0 127 0"/><feOffset dy="1"/><feGaussianBlur stdDeviation=".5"/><feComposite in2="hardAlpha" operator="out"/><feColorMatrix values="0 0 0 0 0 0 0 0 0 0 0 0 0 0 0 0 0 0 0.08 0"/><feBlend in2="effect1_dropShadow_7539_1709" result="effect2_dropShadow_7539_1709"/><feBlend in="SourceGraphic" in2="effect2_dropShadow_7539_1709" result="shape"/></filter><filter id="l" width="33.079" height="33.079" x="111.95" y="38.737" color-interpolation-filters="sRGB" filterUnits="userSpaceOnUse"><feFlood flood-opacity="0" result="BackgroundImageFix"/><feColorMatrix in="SourceAlpha" result="hardAlpha" values="0 0 0 0 0 0 0 0 0 0 0 0 0 0 0 0 0 0 127 0"/><feOffset dy="2"/><feGaussianBlur stdDeviation="1"/><feComposite in2="hardAlpha" operator="out"/><feColorMatrix values="0 0 0 0 0 0 0 0 0 0 0 0 0 0 0 0 0 0 0.8 0"/><feBlend in2="BackgroundImageFix" result="effect1_dropShadow_7539_1709"/><feBlend in="SourceGraphic" in2="effect1_dropShadow_7539_1709" result="shape"/></filter><filter id="p" width="43.266" height="43.266" x="93.768" y="49.038" color-interpolation-filters="sRGB" filterUnits="userSpaceOnUse"><feFlood flood-opacity="0" result="BackgroundImageFix"/><feColorMatrix in="SourceAlpha" result="hardAlpha" values="0 0 0 0 0 0 0 0 0 0 0 0 0 0 0 0 0 0 127 0"/><feOffset dy="4"/><feGaussianBlur stdDeviation="8"/><feComposite in2="hardAlpha" operator="out"/><feColorMatrix values="0 0 0 0 0 0 0 0 0 0 0 0 0 0 0 0 0 0 0.4 0"/><feBlend in2="BackgroundImageFix" result="effect1_dropShadow_7539_1709"/><feColorMatrix in="SourceAlpha" result="hardAlpha" values="0 0 0 0 0 0 0 0 0 0 0 0 0 0 0 0 0 0 127 0"/><feOffset dy="1"/><feGaussianBlur stdDeviation=".5"/><feComposite in2="hardAlpha" operator="out"/><feColorMatrix values="0 0 0 0 0 0 0 0 0 0 0 0 0 0 0 0 0 0 0.08 0"/><feBlend in2="effect1_dropShadow_7539_1709" result="effect2_dropShadow_7539_1709"/><feBlend in="SourceGraphic" in2="effect2_dropShadow_7539_1709" result="shape"/></filter><filter id="s" width="83.402" height="42.786" x="73.521" y="89.301" color-interpolation-filters="sRGB" filterUnits="userSpaceOnUse"><feFlood flood-opacity="0" result="BackgroundImageFix"/><feColorMatrix in="SourceAlpha" result="hardAlpha" values="0 0 0 0 0 0 0 0 0 0 0 0 0 0 0 0 0 0 127 0"/><feOffset dy="1"/><feGaussianBlur stdDeviation=".5"/><feComposite in2="hardAlpha" operator="out"/><feColorMatrix values="0 0 0 0 0 0 0 0 0 0 0 0 0 0 0 0 0 0 0.08 0"/><feBlend in2="BackgroundImageFix" result="effect1_dropShadow_7539_1709"/><feBlend in="SourceGraphic" in2="effect1_dropShadow_7539_1709" result="shape"/></filter></defs></svg>