<svg width="230" height="160" viewBox="0 0 230 160" fill="none" xmlns="http://www.w3.org/2000/svg">
<path d="M115.221 145C149.487 145 177.221 116.998 177.221 82.4496C177.221 47.9009 149.487 20 115.221 20C80.9549 20 53.2207 48.0016 53.2207 82.5504C53.2207 117.2 81.0554 145 115.221 145Z" fill="black" fill-opacity="0.05"/>
<g filter="url(#filter0_dd_7539_1641)">
<circle cx="115.721" cy="66.5" r="51.5" fill="url(#paint0_radial_7539_1641)"/>
<circle cx="115.721" cy="66.5" r="51" stroke="url(#paint1_linear_7539_1641)"/>
</g>
<g filter="url(#filter1_ii_7539_1641)">
<ellipse cx="115.721" cy="66" rx="44.5" ry="45" fill="url(#paint2_linear_7539_1641)"/>
</g>
<path d="M115.721 21.5C140.016 21.5 159.721 41.418 159.721 66C159.721 90.582 140.016 110.5 115.721 110.5C91.4254 110.5 71.7207 90.582 71.7207 66C71.7207 41.418 91.4254 21.5 115.721 21.5Z" stroke="url(#paint3_linear_7539_1641)" stroke-opacity="0.4"/>
<g filter="url(#filter2_ddd_7539_1641)">
<path d="M100.386 44.041C102.263 44.041 103.774 44.5283 104.92 45.5029C106.075 46.4685 106.653 47.768 106.653 49.4014C106.653 50.5563 106.31 51.5311 105.624 52.3252C105.191 52.8214 104.74 53.1594 104.271 53.3398C104.622 53.3398 105.127 53.6426 105.786 54.2471C106.77 55.1585 107.262 56.4042 107.262 57.9834C107.262 59.6437 106.684 61.1058 105.529 62.3691C104.383 63.6234 102.682 64.25 100.426 64.25C97.6465 64.2499 95.7157 63.3431 94.6328 61.5293C94.0643 60.5637 93.7487 59.3004 93.6855 57.7393H97.4756C97.4756 58.5243 97.6018 59.1741 97.8545 59.6885C98.3238 60.636 99.1768 61.1104 100.413 61.1104C101.171 61.1103 101.829 60.8529 102.389 60.3389C102.957 59.8155 103.242 59.0662 103.242 58.0918C103.242 56.8014 102.718 55.9391 101.672 55.5059C101.076 55.2622 100.137 55.1406 98.8555 55.1406V52.3789C100.11 52.3609 100.986 52.2393 101.482 52.0137C102.34 51.6346 102.768 50.8669 102.768 49.7119C102.767 48.9631 102.547 48.3539 102.104 47.8848C101.671 47.4156 101.058 47.1807 100.264 47.1807C99.3523 47.1807 98.6849 47.4703 98.2607 48.0479C97.8276 48.6254 97.6196 49.3968 97.6377 50.3623H94.0371C94.0732 49.3877 94.2403 48.4623 94.5381 47.5869C94.8539 46.8201 95.3498 46.1115 96.0264 45.4619C96.5317 45.0017 97.1323 44.6499 97.8271 44.4062C98.522 44.1626 99.375 44.041 100.386 44.041ZM116.021 44C118.52 44.0001 120.275 44.88 121.286 46.6396C122.288 48.3994 122.788 50.8991 122.788 54.1387C122.788 57.3781 122.283 59.8733 121.272 61.624C120.271 63.3746 118.52 64.2499 116.021 64.25C113.521 64.25 111.766 63.3747 110.755 61.624C109.753 59.8733 109.252 57.3783 109.252 54.1387C109.252 50.899 109.753 48.3994 110.755 46.6396C111.766 44.88 113.521 44 116.021 44ZM131.451 44C133.951 44 135.706 44.88 136.717 46.6396C137.718 48.3994 138.22 50.899 138.22 54.1387C138.22 57.3781 137.715 59.8733 136.704 61.624C135.702 63.3747 133.951 64.25 131.451 64.25C128.952 64.2499 127.196 63.3746 126.186 61.624C125.184 59.8733 124.684 57.3781 124.684 54.1387C124.684 50.8991 125.184 48.3994 126.186 46.6396C127.196 44.88 128.952 44.0001 131.451 44ZM116.021 47.1807C114.874 47.1807 114.116 47.7497 113.746 48.8867C113.376 50.0238 113.191 51.7744 113.191 54.1387C113.191 56.3947 113.376 58.123 113.746 59.3232C114.116 60.5144 114.874 61.1104 116.021 61.1104C117.166 61.1102 117.919 60.5096 118.28 59.3096C118.632 58.1184 118.809 56.3947 118.809 54.1387C118.809 51.7745 118.628 50.0238 118.268 48.8867C117.916 47.7498 117.166 47.1808 116.021 47.1807ZM131.451 47.1807C130.305 47.1808 129.548 47.7498 129.178 48.8867C128.808 50.0238 128.622 51.7744 128.622 54.1387C128.622 56.3947 128.808 58.123 129.178 59.3232C129.548 60.5142 130.305 61.1102 131.451 61.1104C132.597 61.1104 133.351 60.5098 133.712 59.3096C134.064 58.1184 134.24 56.3947 134.24 54.1387C134.24 51.7744 134.059 50.0238 133.698 48.8867C133.346 47.7497 132.597 47.1807 131.451 47.1807Z" fill="url(#paint4_linear_7539_1641)"/>
</g>
<rect x="114.485" y="24.9136" width="2.59989" height="6.49972" fill="#979797"/>
<rect x="126.021" y="26.2041" width="0.866629" height="4.33315" transform="rotate(15 126.021 26.2041)" fill="#979797"/>
<rect x="114.485" y="100.744" width="2.59989" height="6.49972" fill="#979797"/>
<rect x="135.242" y="29.7788" width="2.59989" height="6.49972" transform="rotate(30 135.242 29.7788)" fill="#979797"/>
<rect x="97.3271" y="95.4497" width="2.59989" height="6.49972" transform="rotate(30 97.3271 95.4497)" fill="#979797"/>
<rect x="150.785" y="44.3701" width="2.59989" height="6.49972" transform="rotate(60 150.785 44.3701)" fill="#979797"/>
<rect x="85.1144" y="82.2852" width="2.59989" height="6.49972" transform="rotate(60 85.1144 82.2852)" fill="#979797"/>
<rect x="156.95" y="64.7783" width="2.59989" height="6.49972" transform="rotate(90 156.95 64.7783)" fill="#979797"/>
<rect x="81.1201" y="64.7783" width="2.59989" height="6.49972" transform="rotate(90 81.1201 64.7783)" fill="#979797"/>
<rect x="152.085" y="85.5352" width="2.59989" height="6.49972" transform="rotate(120 152.085 85.5352)" fill="#979797"/>
<rect x="86.4147" y="47.6201" width="2.59989" height="6.49972" transform="rotate(120 86.4147 47.6201)" fill="#979797"/>
<rect x="137.493" y="101.078" width="2.59989" height="6.49972" transform="rotate(150 137.493 101.078)" fill="#979797"/>
<rect x="99.5787" y="35.4072" width="2.59989" height="6.49972" transform="rotate(150 99.5787 35.4072)" fill="#979797"/>
<rect x="105.834" y="101.543" width="0.866629" height="4.33315" transform="rotate(15 105.834 101.543)" fill="#979797"/>
<rect x="144.587" y="36.6641" width="0.866629" height="4.33315" transform="rotate(45 144.587 36.6641)" fill="#979797"/>
<rect x="89.4349" y="91.8159" width="0.866629" height="4.33315" transform="rotate(45 89.4349 91.8159)" fill="#979797"/>
<rect x="155.435" y="55.0059" width="0.866629" height="4.33315" transform="rotate(75 155.435 55.0059)" fill="#979797"/>
<rect x="80.0963" y="75.1929" width="0.866629" height="4.33315" transform="rotate(75 80.0963 75.1929)" fill="#979797"/>
<rect x="155.66" y="76.314" width="0.866629" height="4.33315" transform="rotate(105 155.66 76.314)" fill="#979797"/>
<rect x="80.3207" y="56.1274" width="0.866629" height="4.33315" transform="rotate(105 80.3207 56.1274)" fill="#979797"/>
<rect x="145.2" y="94.8799" width="0.866629" height="4.33315" transform="rotate(135 145.2 94.8799)" fill="#979797"/>
<rect x="90.0479" y="39.728" width="0.866629" height="4.33315" transform="rotate(135 90.0479 39.728)" fill="#979797"/>
<rect x="126.858" y="105.729" width="0.866629" height="4.33315" transform="rotate(165 126.858 105.729)" fill="#979797"/>
<rect x="106.671" y="30.3896" width="0.866629" height="4.33315" transform="rotate(165 106.671 30.3896)" fill="#979797"/>
<rect x="110.659" y="106.925" width="0.866629" height="4.33315" transform="rotate(-172.243 110.659 106.925)" fill="#979797"/>
<rect x="121.186" y="29.6421" width="0.866629" height="4.33315" transform="rotate(-172.243 121.186 29.6421)" fill="#979797"/>
<rect x="100.262" y="104.207" width="0.866629" height="4.33315" transform="rotate(-157.243 100.262 104.207)" fill="#979797"/>
<rect x="130.432" y="32.2817" width="0.866629" height="4.33315" transform="rotate(-157.243 130.432 32.2817)" fill="#979797"/>
<rect x="90.9219" y="98.8896" width="0.866629" height="4.33315" transform="rotate(-142.243 90.9219 98.8896)" fill="#979797"/>
<rect x="138.68" y="37.2241" width="0.866629" height="4.33315" transform="rotate(-142.243 138.68 37.2241)" fill="#979797"/>
<rect x="83.2774" y="91.3364" width="0.866629" height="4.33315" transform="rotate(-127.243 83.2774 91.3364)" fill="#979797"/>
<rect x="145.369" y="44.1328" width="0.866629" height="4.33315" transform="rotate(-127.243 145.369 44.1328)" fill="#979797"/>
<rect x="77.8474" y="82.062" width="0.866629" height="4.33315" transform="rotate(-112.243 77.8474 82.062)" fill="#979797"/>
<rect x="150.04" y="52.5371" width="0.866629" height="4.33315" transform="rotate(-112.243 150.04 52.5371)" fill="#979797"/>
<rect x="75.0034" y="71.6982" width="0.866629" height="4.33315" transform="rotate(-97.2433 75.0034 71.6982)" fill="#979797"/>
<rect x="152.378" y="61.8647" width="0.866629" height="4.33315" transform="rotate(-97.2433 152.378 61.8647)" fill="#979797"/>
<rect x="74.9383" y="60.9517" width="0.866629" height="4.33315" transform="rotate(-82.2433 74.9383 60.9517)" fill="#979797"/>
<rect x="152.222" y="71.479" width="0.866629" height="4.33315" transform="rotate(-82.2433 152.222 71.479)" fill="#979797"/>
<rect x="77.6568" y="50.5547" width="0.866629" height="4.33315" transform="rotate(-67.2433 77.6568 50.5547)" fill="#979797"/>
<rect x="149.582" y="80.7251" width="0.866629" height="4.33315" transform="rotate(-67.2433 149.582 80.7251)" fill="#979797"/>
<rect x="82.9741" y="41.2153" width="0.866629" height="4.33315" transform="rotate(-52.2433 82.9741 41.2153)" fill="#979797"/>
<rect x="144.64" y="88.9736" width="0.866629" height="4.33315" transform="rotate(-52.2433 144.64 88.9736)" fill="#979797"/>
<rect x="90.5275" y="33.5703" width="0.866629" height="4.33315" transform="rotate(-37.2433 90.5275 33.5703)" fill="#979797"/>
<rect x="137.731" y="95.6616" width="0.866629" height="4.33315" transform="rotate(-37.2433 137.731 95.6616)" fill="#979797"/>
<rect x="99.8016" y="28.1406" width="0.866629" height="4.33315" transform="rotate(-22.2433 99.8016 28.1406)" fill="#979797"/>
<rect x="129.327" y="100.333" width="0.866629" height="4.33315" transform="rotate(-22.2433 129.327 100.333)" fill="#979797"/>
<rect x="110.165" y="25.2964" width="0.866629" height="4.33315" transform="rotate(-7.24326 110.165 25.2964)" fill="#979797"/>
<rect x="119.999" y="102.671" width="0.866629" height="4.33315" transform="rotate(-7.24326 119.999 102.671)" fill="#979797"/>
<g filter="url(#filter3_dd_7539_1641)">
<circle cx="115.401" cy="66.671" r="6.49972" transform="rotate(45 115.401 66.671)" fill="url(#paint5_linear_7539_1641)"/>
<circle cx="115.401" cy="66.671" r="5.99972" transform="rotate(45 115.401 66.671)" stroke="url(#paint6_linear_7539_1641)"/>
</g>
<g filter="url(#filter4_dd_7539_1641)">
<path d="M141.376 38.9807C142.312 38.2028 143.563 39.4538 142.785 40.389L120.272 67.4551C119.895 67.9075 119.212 67.9388 118.796 67.5228L114.243 62.9697C113.827 62.5537 113.858 61.8701 114.31 61.4938L141.376 38.9807Z" fill="url(#paint7_linear_7539_1641)"/>
<path d="M141.696 39.3654C142.164 38.9765 142.789 39.6021 142.4 40.0698L119.887 67.1352C119.699 67.3614 119.357 67.3771 119.149 67.1691L114.596 62.6164C114.388 62.4084 114.404 62.0664 114.63 61.8782L141.696 39.3654Z" stroke="#FDE290"/>
</g>
<g filter="url(#filter5_dd_7539_1641)">
<circle cx="115.401" cy="66.671" r="5.63309" transform="rotate(45 115.401 66.671)" fill="url(#paint8_linear_7539_1641)"/>
<circle cx="115.401" cy="66.671" r="5.13309" transform="rotate(45 115.401 66.671)" stroke="url(#paint9_linear_7539_1641)" stroke-opacity="0.4"/>
</g>
<g filter="url(#filter6_d_7539_1641)">
<path d="M74.5295 99.0917C74.3588 95.8352 76.8603 93.057 80.1168 92.8863L148.378 89.3089C151.635 89.1382 154.413 91.6397 154.584 94.8962L155.915 120.296C156.086 123.552 153.584 126.331 150.328 126.501L82.066 130.079C78.8095 130.249 76.0313 127.748 75.8606 124.491L74.5295 99.0917Z" fill="url(#paint10_linear_7539_1641)"/>
<path d="M150.232 124.687L150.328 126.501L82.066 130.079L81.9709 128.264L150.232 124.687ZM154.101 120.391L152.769 94.9913C152.651 92.7368 150.728 91.005 148.473 91.1231L80.2119 94.7006C77.9574 94.8187 76.2256 96.7421 76.3437 98.9966L77.6749 124.396C77.793 126.651 79.7164 128.383 81.9709 128.264L82.066 130.079C78.8095 130.249 76.0313 127.748 75.8606 124.491L74.5295 99.0917C74.3615 95.8861 76.7828 93.1439 79.9648 92.8963L80.1168 92.8863L148.378 89.3089L148.531 89.3029C151.721 89.2166 154.416 91.6906 154.584 94.8962L155.915 120.296L155.921 120.448C156.007 123.638 153.533 126.333 150.328 126.501L150.232 124.687C152.487 124.569 154.219 122.645 154.101 120.391Z" fill="url(#paint11_linear_7539_1641)"/>
<path d="M134.18 97.8187C134.008 97.0105 134.917 96.4108 135.592 96.887L150.463 107.374C150.944 107.713 150.98 108.412 150.538 108.8L136.844 120.784C136.223 121.328 135.256 120.826 135.343 120.005L135.688 116.738C135.747 116.182 135.295 115.706 134.737 115.735L83.2749 118.432C82.7739 118.458 82.3465 118.074 82.3202 117.573L81.7022 105.78C81.6759 105.279 82.0608 104.852 82.5617 104.825L134.024 102.128C134.582 102.099 134.981 101.578 134.865 101.032L134.18 97.8187Z" fill="url(#paint12_linear_7539_1641)"/>
<path d="M150.185 124.739L150.275 126.454L82.113 130.026L82.0231 128.312L150.185 124.739ZM82.2701 117.575C82.2979 118.104 82.7494 118.51 83.278 118.482L134.74 115.786C135.267 115.758 135.694 116.208 135.638 116.733L135.293 120C135.202 120.866 136.221 121.395 136.877 120.821L150.57 108.837C151.037 108.428 150.999 107.691 150.492 107.333L135.621 96.8463C134.908 96.3439 133.95 96.9763 134.131 97.8289L134.816 101.043C134.926 101.559 134.548 102.051 134.021 102.079L82.5596 104.776C82.0311 104.803 81.6244 105.254 81.6521 105.783L82.2701 117.575ZM154.051 120.393C154.168 122.62 152.457 124.521 150.23 124.637L81.9682 128.215C79.7413 128.331 77.8419 126.62 77.7252 124.394L76.3941 98.9938C76.2775 96.767 77.9876 94.8677 80.2144 94.7509L148.476 91.1735C150.703 91.0568 152.603 92.7669 152.72 94.9937L154.051 120.393ZM81.7526 105.777C81.7277 105.304 82.0914 104.9 82.5649 104.875L134.026 102.178C134.615 102.147 135.036 101.598 134.913 101.022L134.229 97.8081C134.066 97.0445 134.925 96.4776 135.563 96.9275L150.434 107.415C150.889 107.735 150.923 108.396 150.505 108.762L136.812 120.746C136.224 121.26 135.31 120.786 135.392 120.01L135.737 116.743C135.799 116.157 135.323 115.654 134.734 115.685L83.2727 118.382C82.7993 118.407 82.3954 118.043 82.3706 117.57L81.7526 105.777ZM152.819 94.9885C152.7 92.7066 150.753 90.9535 148.471 91.073L80.2091 94.6505C77.9272 94.7702 76.1741 96.7171 76.2936 98.9991L77.6248 124.399C77.7435 126.664 79.6631 128.407 81.9235 128.315L82.0134 130.029C78.8061 130.171 76.0787 127.701 75.9103 124.489L74.5792 99.0889C74.5648 98.8132 74.5712 98.541 74.5942 98.2735C74.614 98.0427 74.6473 97.8155 74.6934 97.5926C74.7299 97.4164 74.7726 97.2426 74.8246 97.0723C74.8349 97.0386 74.8466 97.0053 74.8575 96.9718C74.9202 96.7791 74.9926 96.5906 75.0743 96.407C75.1467 96.2442 75.2269 96.0856 75.3134 95.9309C75.3408 95.8819 75.3679 95.8329 75.3967 95.7848C75.4172 95.7504 75.4386 95.7166 75.4598 95.6827C75.4882 95.6372 75.5169 95.5918 75.5465 95.5471C75.5697 95.5123 75.5935 95.478 75.6174 95.4436C75.6448 95.4042 75.6719 95.3646 75.7002 95.3259C75.7297 95.2856 75.7613 95.2471 75.7918 95.2076C75.8188 95.1727 75.8446 95.137 75.8724 95.1027C75.9129 95.0525 75.9555 95.0041 75.9976 94.9553C76.0148 94.9354 76.0308 94.9146 76.0482 94.895C76.0781 94.8614 76.1093 94.8291 76.1399 94.7963C76.1758 94.7577 76.2113 94.7187 76.2483 94.6811C76.2751 94.6537 76.3028 94.6273 76.3301 94.6005C76.3667 94.5646 76.4034 94.5289 76.4409 94.494C76.4812 94.4564 76.5228 94.4203 76.5642 94.3838C76.5911 94.3602 76.6171 94.3354 76.6445 94.3122C76.692 94.2719 76.7412 94.2337 76.79 94.195C76.8144 94.1756 76.8384 94.1555 76.8632 94.1364C76.9025 94.1062 76.9427 94.0772 76.9827 94.048C77.0206 94.0204 77.0582 93.9925 77.0968 93.9658C77.1284 93.9438 77.161 93.9233 77.1932 93.902C77.2426 93.8692 77.2921 93.8365 77.3426 93.8052C77.3749 93.7852 77.4075 93.7657 77.4402 93.7463C77.4796 93.7229 77.5188 93.699 77.5588 93.6765C77.6092 93.6482 77.6607 93.622 77.712 93.5952C77.7465 93.5771 77.7808 93.5583 77.8157 93.5408C77.8574 93.5201 77.8995 93.5002 77.9417 93.4804C77.9894 93.4581 78.0375 93.4363 78.0859 93.4152C78.1205 93.4001 78.1552 93.3851 78.1902 93.3706C78.244 93.3484 78.2983 93.327 78.353 93.3063C78.3852 93.2942 78.4175 93.2825 78.4499 93.2709C78.5062 93.2508 78.5629 93.2316 78.62 93.2131C78.6622 93.1995 78.7044 93.1859 78.747 93.1732C78.791 93.1601 78.8355 93.1481 78.88 93.1359C78.9267 93.1232 78.9736 93.1108 79.0208 93.0992C79.0705 93.087 79.1204 93.0749 79.1706 93.064C79.2165 93.054 79.2626 93.0442 79.3089 93.0352C79.3574 93.0259 79.4062 93.0172 79.4552 93.009C79.5006 93.0014 79.5462 92.9947 79.592 92.9881C79.6468 92.9803 79.7018 92.9731 79.7571 92.9668C79.8764 92.9532 79.9968 92.9425 80.1183 92.9361L148.381 89.3586C148.503 89.3522 148.623 89.3503 148.743 89.3513C148.799 89.3518 148.855 89.3533 148.91 89.3553C148.956 89.357 149.002 89.359 149.048 89.3618C149.098 89.3648 149.147 89.3683 149.196 89.3726C149.243 89.3766 149.29 89.3816 149.337 89.3867C149.388 89.3924 149.439 89.3992 149.49 89.4061C149.538 89.4127 149.586 89.4201 149.633 89.4279C149.679 89.4353 149.724 89.4426 149.77 89.4511C149.813 89.4593 149.857 89.4683 149.9 89.4775C149.96 89.4902 150.021 89.5033 150.08 89.5179C150.11 89.5251 150.139 89.5321 150.168 89.5397C150.231 89.556 150.292 89.5743 150.354 89.5926C150.386 89.6021 150.418 89.6116 150.45 89.6217C150.501 89.6379 150.552 89.6549 150.603 89.6724C150.647 89.6877 150.691 89.7031 150.734 89.7193C150.771 89.7331 150.808 89.748 150.844 89.7625C150.898 89.7837 150.951 89.8047 151.004 89.8274C151.046 89.8456 151.088 89.8653 151.129 89.8844C151.164 89.9006 151.2 89.9168 151.234 89.9337C151.282 89.9569 151.33 89.9809 151.377 90.0054C151.42 90.0278 151.463 90.0505 151.506 90.074C151.539 90.0922 151.572 90.1106 151.605 90.1294C151.651 90.1564 151.698 90.1839 151.744 90.2121C151.771 90.2286 151.797 90.2458 151.824 90.2627C151.876 90.2959 151.928 90.3291 151.98 90.364C152.01 90.3844 152.039 90.406 152.068 90.4269C152.113 90.4586 152.157 90.4906 152.201 90.5235C152.242 90.5543 152.282 90.5861 152.322 90.6179C152.352 90.6417 152.383 90.6651 152.412 90.6895C152.459 90.7279 152.504 90.7676 152.55 90.8075C152.573 90.8278 152.596 90.8476 152.619 90.8683C152.665 90.9098 152.71 90.9524 152.754 90.9953C152.775 91.0154 152.796 91.0351 152.817 91.0555C152.861 91.0993 152.903 91.1444 152.946 91.1896C152.972 91.2168 152.998 91.2439 153.023 91.2716C153.056 91.3078 153.087 91.3449 153.119 91.3819C153.147 91.4137 153.175 91.445 153.202 91.4774C153.236 91.5186 153.268 91.5611 153.301 91.6032C153.326 91.6348 153.351 91.6659 153.376 91.6981C153.409 91.7429 153.441 91.7889 153.474 91.8347C153.576 91.9794 153.671 92.1291 153.76 92.2832C153.861 92.4574 153.952 92.6372 154.035 92.8223C154.049 92.8545 154.064 92.8863 154.078 92.9188C154.148 93.0828 154.209 93.251 154.264 93.4225C154.333 93.6394 154.39 93.8618 154.434 94.0893C154.485 94.3529 154.519 94.6229 154.534 94.8987L155.865 120.298C155.871 120.42 155.872 120.541 155.871 120.662C155.871 120.718 155.87 120.774 155.867 120.829C155.866 120.873 155.864 120.918 155.862 120.962C155.859 121.012 155.854 121.063 155.85 121.114C155.846 121.161 155.841 121.208 155.836 121.254C155.83 121.305 155.824 121.356 155.817 121.407C155.811 121.449 155.806 121.492 155.799 121.534C155.791 121.583 155.782 121.632 155.773 121.68C155.765 121.726 155.755 121.772 155.745 121.817C155.733 121.874 155.721 121.931 155.707 121.988C155.7 122.019 155.693 122.05 155.685 122.081C155.669 122.141 155.652 122.2 155.634 122.259C155.624 122.294 155.614 122.328 155.604 122.363C155.588 122.412 155.571 122.46 155.555 122.509C155.537 122.56 155.519 122.611 155.5 122.662C155.49 122.687 155.481 122.713 155.471 122.738C155.446 122.801 155.42 122.863 155.393 122.924C155.379 122.959 155.362 122.992 155.347 123.026C155.329 123.067 155.312 123.107 155.293 123.147C155.274 123.185 155.255 123.223 155.235 123.261C155.207 123.316 155.178 123.37 155.149 123.423C155.131 123.456 155.112 123.489 155.093 123.522C155.069 123.564 155.044 123.607 155.019 123.649C154.995 123.688 154.97 123.726 154.946 123.764C154.917 123.808 154.89 123.852 154.861 123.895C154.839 123.927 154.816 123.959 154.793 123.99C154.765 124.03 154.737 124.069 154.708 124.107C154.67 124.158 154.631 124.208 154.592 124.257C154.574 124.28 154.556 124.303 154.538 124.326C154.498 124.373 154.457 124.42 154.416 124.467C154.395 124.491 154.373 124.516 154.352 124.54C154.314 124.581 154.276 124.621 154.238 124.661C154.21 124.69 154.182 124.718 154.154 124.747C154.119 124.782 154.083 124.817 154.046 124.852C154.015 124.882 153.983 124.911 153.951 124.94C153.915 124.973 153.878 125.005 153.841 125.037C153.808 125.065 153.775 125.094 153.742 125.121C153.713 125.145 153.684 125.169 153.654 125.192C153.609 125.228 153.564 125.263 153.518 125.297C153.485 125.322 153.451 125.347 153.417 125.371C153.225 125.508 153.025 125.634 152.817 125.748C152.76 125.779 152.703 125.808 152.645 125.837C152.618 125.85 152.591 125.864 152.564 125.877C152.519 125.899 152.474 125.92 152.428 125.94C152.387 125.959 152.345 125.978 152.303 125.996C152.265 126.012 152.226 126.026 152.187 126.042C151.871 126.168 151.543 126.269 151.202 126.339C151.157 126.348 151.112 126.355 151.067 126.363C151.016 126.373 150.966 126.382 150.915 126.39C150.738 126.417 150.557 126.436 150.375 126.447L150.285 124.732C152.542 124.587 154.269 122.654 154.151 120.388L152.819 94.9885Z" stroke="url(#paint13_linear_7539_1641)" stroke-opacity="0.4" stroke-width="0.1"/>
</g>
<path d="M145.464 76.2613V79.5112H143.986V76.1445C143.986 75.8466 143.935 75.6063 143.834 75.4235C143.702 75.1662 143.451 75.0376 143.082 75.0376C142.7 75.0376 142.409 75.1662 142.209 75.4235C142.013 75.6774 141.914 76.0413 141.914 76.5152V79.5112H140.472V72.0518H141.914V74.6973C142.124 74.3757 142.366 74.1523 142.64 74.0271C142.918 73.8984 143.209 73.8341 143.514 73.8341C143.856 73.8341 144.166 73.8933 144.443 74.0118C144.724 74.1303 144.954 74.3114 145.134 74.5552C145.286 74.7617 145.379 74.9749 145.413 75.195C145.447 75.4116 145.464 75.7671 145.464 76.2613Z" fill="#818181"/>
<path d="M136.323 79.5112L139.223 71.7979H140.426L137.517 79.5112H136.323Z" fill="#818181"/>
<path d="M131.423 75.4992C131.301 75.2318 131.063 75.0981 130.707 75.0981C130.294 75.0981 130.017 75.2318 129.875 75.4992C129.797 75.6516 129.758 75.8784 129.758 76.1797V79.5108H128.29V73.986H129.697V74.7934C129.876 74.5057 130.045 74.3009 130.205 74.179C130.486 73.9623 130.849 73.854 131.296 73.854C131.72 73.854 132.061 73.9471 132.322 74.1333C132.532 74.3059 132.691 74.5277 132.799 74.7985C132.989 74.4735 133.224 74.2348 133.505 74.0825C133.803 73.9302 134.135 73.854 134.5 73.854C134.744 73.854 134.985 73.9014 135.222 73.9962C135.459 74.091 135.673 74.2569 135.866 74.4938C136.022 74.6868 136.127 74.9237 136.181 75.2047C136.215 75.3909 136.232 75.6634 136.232 76.0223L136.222 79.5108H134.739V75.9867C134.739 75.7768 134.705 75.6042 134.638 75.4688C134.509 75.2115 134.272 75.0829 133.927 75.0829C133.527 75.0829 133.251 75.2487 133.099 75.5805C133.021 75.7565 132.982 75.9681 132.982 76.2152V79.5108H131.525V76.2152C131.525 75.8869 131.491 75.6482 131.423 75.4992Z" fill="#818181"/>
<path d="M127.605 79.5112H125.858L124.533 77.1449L123.934 77.7695V79.5112H122.512V72.0518H123.934V76.0836L125.736 74.0017H127.529L125.594 76.1192L127.605 79.5112Z" fill="#818181"/>
<defs>
<filter id="filter0_dd_7539_1641" x="50.2207" y="5" width="135" height="135" filterUnits="userSpaceOnUse" color-interpolation-filters="sRGB">
<feFlood flood-opacity="0" result="BackgroundImageFix"/>
<feColorMatrix in="SourceAlpha" type="matrix" values="0 0 0 0 0 0 0 0 0 0 0 0 0 0 0 0 0 0 127 0" result="hardAlpha"/>
<feOffset dx="2" dy="6"/>
<feGaussianBlur stdDeviation="8"/>
<feComposite in2="hardAlpha" operator="out"/>
<feColorMatrix type="matrix" values="0 0 0 0 0 0 0 0 0 0 0 0 0 0 0 0 0 0 0.24 0"/>
<feBlend mode="normal" in2="BackgroundImageFix" result="effect1_dropShadow_7539_1641"/>
<feColorMatrix in="SourceAlpha" type="matrix" values="0 0 0 0 0 0 0 0 0 0 0 0 0 0 0 0 0 0 127 0" result="hardAlpha"/>
<feOffset dy="1"/>
<feGaussianBlur stdDeviation="1"/>
<feComposite in2="hardAlpha" operator="out"/>
<feColorMatrix type="matrix" values="0 0 0 0 0 0 0 0 0 0 0 0 0 0 0 0 0 0 0.24 0"/>
<feBlend mode="normal" in2="effect1_dropShadow_7539_1641" result="effect2_dropShadow_7539_1641"/>
<feBlend mode="normal" in="SourceGraphic" in2="effect2_dropShadow_7539_1641" result="shape"/>
</filter>
<filter id="filter1_ii_7539_1641" x="71.2207" y="21" width="89" height="94" filterUnits="userSpaceOnUse" color-interpolation-filters="sRGB">
<feFlood flood-opacity="0" result="BackgroundImageFix"/>
<feBlend mode="normal" in="SourceGraphic" in2="BackgroundImageFix" result="shape"/>
<feColorMatrix in="SourceAlpha" type="matrix" values="0 0 0 0 0 0 0 0 0 0 0 0 0 0 0 0 0 0 127 0" result="hardAlpha"/>
<feOffset dy="4"/>
<feGaussianBlur stdDeviation="8"/>
<feComposite in2="hardAlpha" operator="arithmetic" k2="-1" k3="1"/>
<feColorMatrix type="matrix" values="0 0 0 0 0 0 0 0 0 0 0 0 0 0 0 0 0 0 0.14 0"/>
<feBlend mode="normal" in2="shape" result="effect1_innerShadow_7539_1641"/>
<feColorMatrix in="SourceAlpha" type="matrix" values="0 0 0 0 0 0 0 0 0 0 0 0 0 0 0 0 0 0 127 0" result="hardAlpha"/>
<feOffset dy="1"/>
<feGaussianBlur stdDeviation="0.5"/>
<feComposite in2="hardAlpha" operator="arithmetic" k2="-1" k3="1"/>
<feColorMatrix type="matrix" values="0 0 0 0 0 0 0 0 0 0 0 0 0 0 0 0 0 0 0.08 0"/>
<feBlend mode="normal" in2="effect1_innerShadow_7539_1641" result="effect2_innerShadow_7539_1641"/>
</filter>
<filter id="filter2_ddd_7539_1641" x="77.6855" y="28" width="76.5342" height="52.25" filterUnits="userSpaceOnUse" color-interpolation-filters="sRGB">
<feFlood flood-opacity="0" result="BackgroundImageFix"/>
<feColorMatrix in="SourceAlpha" type="matrix" values="0 0 0 0 0 0 0 0 0 0 0 0 0 0 0 0 0 0 127 0" result="hardAlpha"/>
<feOffset dy="2"/>
<feGaussianBlur stdDeviation="2"/>
<feComposite in2="hardAlpha" operator="out"/>
<feColorMatrix type="matrix" values="0 0 0 0 0 0 0 0 0 0 0 0 0 0 0 0 0 0 0.15 0"/>
<feBlend mode="normal" in2="BackgroundImageFix" result="effect1_dropShadow_7539_1641"/>
<feColorMatrix in="SourceAlpha" type="matrix" values="0 0 0 0 0 0 0 0 0 0 0 0 0 0 0 0 0 0 127 0" result="hardAlpha"/>
<feOffset/>
<feGaussianBlur stdDeviation="8"/>
<feComposite in2="hardAlpha" operator="out"/>
<feColorMatrix type="matrix" values="0 0 0 0 1 0 0 0 0 0.905273 0 0 0 0 0.621094 0 0 0 1 0"/>
<feBlend mode="normal" in2="effect1_dropShadow_7539_1641" result="effect2_dropShadow_7539_1641"/>
<feColorMatrix in="SourceAlpha" type="matrix" values="0 0 0 0 0 0 0 0 0 0 0 0 0 0 0 0 0 0 127 0" result="hardAlpha"/>
<feOffset/>
<feGaussianBlur stdDeviation="0.5"/>
<feComposite in2="hardAlpha" operator="out"/>
<feColorMatrix type="matrix" values="0 0 0 0 0 0 0 0 0 0 0 0 0 0 0 0 0 0 0.25 0"/>
<feBlend mode="normal" in2="effect2_dropShadow_7539_1641" result="effect3_dropShadow_7539_1641"/>
<feBlend mode="normal" in="SourceGraphic" in2="effect3_dropShadow_7539_1641" result="shape"/>
</filter>
<filter id="filter3_dd_7539_1641" x="94.9011" y="50.1714" width="44.9994" height="44.9995" filterUnits="userSpaceOnUse" color-interpolation-filters="sRGB">
<feFlood flood-opacity="0" result="BackgroundImageFix"/>
<feColorMatrix in="SourceAlpha" type="matrix" values="0 0 0 0 0 0 0 0 0 0 0 0 0 0 0 0 0 0 127 0" result="hardAlpha"/>
<feOffset dx="2" dy="6"/>
<feGaussianBlur stdDeviation="8"/>
<feComposite in2="hardAlpha" operator="out"/>
<feColorMatrix type="matrix" values="0 0 0 0 0 0 0 0 0 0 0 0 0 0 0 0 0 0 0.24 0"/>
<feBlend mode="normal" in2="BackgroundImageFix" result="effect1_dropShadow_7539_1641"/>
<feColorMatrix in="SourceAlpha" type="matrix" values="0 0 0 0 0 0 0 0 0 0 0 0 0 0 0 0 0 0 127 0" result="hardAlpha"/>
<feOffset dy="1"/>
<feGaussianBlur stdDeviation="1"/>
<feComposite in2="hardAlpha" operator="out"/>
<feColorMatrix type="matrix" values="0 0 0 0 0 0 0 0 0 0 0 0 0 0 0 0 0 0 0.24 0"/>
<feBlend mode="normal" in2="effect1_dropShadow_7539_1641" result="effect2_dropShadow_7539_1641"/>
<feBlend mode="normal" in="SourceGraphic" in2="effect2_dropShadow_7539_1641" result="shape"/>
</filter>
<filter id="filter4_dd_7539_1641" x="97.9497" y="22.7368" width="61.0787" height="61.0786" filterUnits="userSpaceOnUse" color-interpolation-filters="sRGB">
<feFlood flood-opacity="0" result="BackgroundImageFix"/>
<feColorMatrix in="SourceAlpha" type="matrix" values="0 0 0 0 0 0 0 0 0 0 0 0 0 0 0 0 0 0 127 0" result="hardAlpha"/>
<feOffset dy="2"/>
<feGaussianBlur stdDeviation="2"/>
<feComposite in2="hardAlpha" operator="out"/>
<feColorMatrix type="matrix" values="0 0 0 0 0 0 0 0 0 0 0 0 0 0 0 0 0 0 0.55 0"/>
<feBlend mode="normal" in2="BackgroundImageFix" result="effect1_dropShadow_7539_1641"/>
<feColorMatrix in="SourceAlpha" type="matrix" values="0 0 0 0 0 0 0 0 0 0 0 0 0 0 0 0 0 0 127 0" result="hardAlpha"/>
<feOffset/>
<feGaussianBlur stdDeviation="8"/>
<feComposite in2="hardAlpha" operator="out"/>
<feColorMatrix type="matrix" values="0 0 0 0 1 0 0 0 0 0.905273 0 0 0 0 0.621094 0 0 0 1 0"/>
<feBlend mode="normal" in2="effect1_dropShadow_7539_1641" result="effect2_dropShadow_7539_1641"/>
<feBlend mode="normal" in="SourceGraphic" in2="effect2_dropShadow_7539_1641" result="shape"/>
</filter>
<filter id="filter5_dd_7539_1641" x="93.7676" y="49.0381" width="43.2662" height="43.2661" filterUnits="userSpaceOnUse" color-interpolation-filters="sRGB">
<feFlood flood-opacity="0" result="BackgroundImageFix"/>
<feColorMatrix in="SourceAlpha" type="matrix" values="0 0 0 0 0 0 0 0 0 0 0 0 0 0 0 0 0 0 127 0" result="hardAlpha"/>
<feOffset dy="4"/>
<feGaussianBlur stdDeviation="8"/>
<feComposite in2="hardAlpha" operator="out"/>
<feColorMatrix type="matrix" values="0 0 0 0 0 0 0 0 0 0 0 0 0 0 0 0 0 0 0.14 0"/>
<feBlend mode="normal" in2="BackgroundImageFix" result="effect1_dropShadow_7539_1641"/>
<feColorMatrix in="SourceAlpha" type="matrix" values="0 0 0 0 0 0 0 0 0 0 0 0 0 0 0 0 0 0 127 0" result="hardAlpha"/>
<feOffset dy="1"/>
<feGaussianBlur stdDeviation="0.5"/>
<feComposite in2="hardAlpha" operator="out"/>
<feColorMatrix type="matrix" values="0 0 0 0 0 0 0 0 0 0 0 0 0 0 0 0 0 0 0.08 0"/>
<feBlend mode="normal" in2="effect1_dropShadow_7539_1641" result="effect2_dropShadow_7539_1641"/>
<feBlend mode="normal" in="SourceGraphic" in2="effect2_dropShadow_7539_1641" result="shape"/>
</filter>
<filter id="filter6_d_7539_1641" x="73.5212" y="89.3008" width="83.4019" height="42.7861" filterUnits="userSpaceOnUse" color-interpolation-filters="sRGB">
<feFlood flood-opacity="0" result="BackgroundImageFix"/>
<feColorMatrix in="SourceAlpha" type="matrix" values="0 0 0 0 0 0 0 0 0 0 0 0 0 0 0 0 0 0 127 0" result="hardAlpha"/>
<feOffset dy="1"/>
<feGaussianBlur stdDeviation="0.5"/>
<feComposite in2="hardAlpha" operator="out"/>
<feColorMatrix type="matrix" values="0 0 0 0 0 0 0 0 0 0 0 0 0 0 0 0 0 0 0.08 0"/>
<feBlend mode="normal" in2="BackgroundImageFix" result="effect1_dropShadow_7539_1641"/>
<feBlend mode="normal" in="SourceGraphic" in2="effect1_dropShadow_7539_1641" result="shape"/>
</filter>
<radialGradient id="paint0_radial_7539_1641" cx="0" cy="0" r="1" gradientUnits="userSpaceOnUse" gradientTransform="translate(116.221 26.5) rotate(70.6342) scale(107.057 100.206)">
<stop stop-color="#D5D4D4"/>
<stop offset="0.77898" stop-color="#828282"/>
</radialGradient>
<linearGradient id="paint1_linear_7539_1641" x1="115.721" y1="15" x2="115.721" y2="118" gradientUnits="userSpaceOnUse">
<stop offset="0.0240385" stop-color="#FFF2CB"/>
<stop offset="0.129808" stop-color="#EDEDED"/>
<stop offset="0.496312" stop-color="#B6B6B6" stop-opacity="0"/>
</linearGradient>
<linearGradient id="paint2_linear_7539_1641" x1="71.9743" y1="112.699" x2="81.8532" y2="19.7544" gradientUnits="userSpaceOnUse">
<stop offset="0.0036" stop-color="#B1B1B1"/>
<stop offset="1" stop-color="#F6EDD0"/>
</linearGradient>
<linearGradient id="paint3_linear_7539_1641" x1="151.221" y1="100.5" x2="95.3336" y2="23.8336" gradientUnits="userSpaceOnUse">
<stop stop-color="#EEEEEE"/>
<stop offset="1" stop-color="#FFDF7D"/>
</linearGradient>
<linearGradient id="paint4_linear_7539_1641" x1="115.953" y1="64.25" x2="115.953" y2="44" gradientUnits="userSpaceOnUse">
<stop stop-color="#3F3F3F"/>
<stop offset="1" stop-color="#595959"/>
</linearGradient>
<linearGradient id="paint5_linear_7539_1641" x1="115.397" y1="59.8706" x2="115.397" y2="73.3108" gradientUnits="userSpaceOnUse">
<stop stop-color="#D5D4D4"/>
<stop offset="0.9964" stop-color="#A0A0A0"/>
</linearGradient>
<linearGradient id="paint6_linear_7539_1641" x1="115.401" y1="60.1713" x2="115.401" y2="73.1707" gradientUnits="userSpaceOnUse">
<stop stop-color="#EDEDED"/>
<stop offset="0.496312" stop-color="#B6B6B6" stop-opacity="0"/>
</linearGradient>
<linearGradient id="paint7_linear_7539_1641" x1="149.748" y1="32.0172" x2="105.443" y2="76.3226" gradientUnits="userSpaceOnUse">
<stop stop-color="#FFE596"/>
<stop offset="1" stop-color="#FFC61A"/>
</linearGradient>
<linearGradient id="paint8_linear_7539_1641" x1="120.102" y1="71.6272" x2="109.286" y2="72.5687" gradientUnits="userSpaceOnUse">
<stop offset="0.0036" stop-color="#ADACAC"/>
<stop offset="1" stop-color="#F6EDD0"/>
</linearGradient>
<linearGradient id="paint9_linear_7539_1641" x1="119.453" y1="68.7958" x2="111.685" y2="60.941" gradientUnits="userSpaceOnUse">
<stop stop-color="#EEEEEE"/>
<stop offset="1" stop-color="#FFDF7D"/>
</linearGradient>
<linearGradient id="paint10_linear_7539_1641" x1="114.248" y1="91.0976" x2="116.197" y2="128.29" gradientUnits="userSpaceOnUse">
<stop stop-color="#6A6A6A"/>
<stop offset="1" stop-color="#484848"/>
</linearGradient>
<linearGradient id="paint11_linear_7539_1641" x1="76.0356" y1="127.831" x2="77.8402" y2="91.8295" gradientUnits="userSpaceOnUse">
<stop offset="0.0036" stop-color="#BAB6B9"/>
<stop offset="1" stop-color="#E2DBC6"/>
</linearGradient>
<linearGradient id="paint12_linear_7539_1641" x1="82.5602" y1="122.151" x2="83.1633" y2="98.5649" gradientUnits="userSpaceOnUse">
<stop offset="0.0036" stop-color="#BAB6B9"/>
<stop offset="1" stop-color="#E2DBC6"/>
</linearGradient>
<linearGradient id="paint13_linear_7539_1641" x1="140.869" y1="115.91" x2="134.058" y2="92.7139" gradientUnits="userSpaceOnUse">
<stop offset="0.11293" stop-color="#4E5078"/>
<stop offset="1" stop-color="#F9CC45"/>
</linearGradient>
</defs>
</svg>
