<svg xmlns="http://www.w3.org/2000/svg" width="230" height="160" fill="none"><path fill="#000" fill-opacity=".05" d="M115.221 145c34.266 0 62-28.002 62-62.55 0-34.55-27.734-62.45-62-62.45s-62 28.002-62 62.55c0 34.65 27.834 62.45 62 62.45"/><g filter="url(#a)"><circle cx="115.721" cy="66.5" r="51.5" fill="url(#b)"/><circle cx="115.721" cy="66.5" r="51" stroke="url(#c)"/></g><g filter="url(#d)"><ellipse cx="115.721" cy="66" fill="url(#e)" rx="44.5" ry="45"/></g><path stroke="url(#f)" stroke-opacity=".4" d="M115.721 21.5c24.295 0 44 19.918 44 44.5s-19.705 44.5-44 44.5-44-19.918-44-44.5 19.704-44.5 44-44.5Z"/><g filter="url(#g)"><path fill="url(#h)" d="M100.386 44.041q2.815 0 4.534 1.462 1.733 1.448 1.733 3.898 0 1.733-1.029 2.924-.65.744-1.353 1.015.526 0 1.515.907 1.476 1.367 1.476 3.736 0 2.49-1.733 4.386-1.719 1.881-5.103 1.881-4.17 0-5.793-2.72-.853-1.45-.947-3.79h3.79q0 1.177.379 1.948.704 1.422 2.558 1.422 1.136 0 1.976-.771.853-.785.853-2.247 0-1.936-1.57-2.586-.894-.365-2.816-.365v-2.762q1.881-.027 2.626-.365 1.286-.57 1.286-2.302 0-1.123-.664-1.827-.65-.705-1.84-.704-1.368 0-2.003.867-.65.866-.623 2.314h-3.6q.053-1.462.5-2.775.474-1.151 1.488-2.125a5.2 5.2 0 0 1 1.801-1.056q1.042-.365 2.559-.365M116.021 44q3.749 0 5.265 2.64 1.502 2.64 1.502 7.499 0 4.86-1.516 7.485-1.502 2.626-5.251 2.626t-5.266-2.626q-1.503-2.626-1.503-7.485 0-4.86 1.503-7.5Q112.271 44 116.021 44m15.43 0q3.75 0 5.266 2.64 1.502 2.64 1.503 7.499 0 4.86-1.516 7.485-1.503 2.626-5.253 2.626t-5.265-2.626q-1.502-2.626-1.502-7.485 0-4.86 1.502-7.5Q127.702 44 131.451 44m-15.43 3.18q-1.72 0-2.275 1.707-.555 1.705-.555 5.252 0 3.384.555 5.184.555 1.787 2.275 1.787 1.717 0 2.259-1.8.529-1.787.529-5.171 0-3.546-.541-5.252-.529-1.706-2.247-1.706m15.43 0q-1.718 0-2.273 1.707-.555 1.705-.556 5.252 0 3.384.556 5.184.555 1.787 2.273 1.787 1.72 0 2.261-1.8.528-1.787.528-5.171 0-3.547-.542-5.252-.528-1.706-2.247-1.706"/></g><path fill="#979797" d="M114.485 24.914h2.6v6.5h-2.6zM126.021 26.204l.837.224-1.121 4.186-.837-.225zM114.485 100.744h2.6v6.5h-2.6zM135.242 29.779l2.252 1.3-3.25 5.63-2.252-1.3zM97.327 95.45l2.252 1.3-3.25 5.63-2.252-1.3zM150.785 44.37l1.3 2.252-5.63 3.25-1.3-2.252zM85.114 82.285l1.3 2.251-5.629 3.25-1.3-2.251zM156.95 64.778v2.6h-6.5v-2.6zM81.12 64.778v2.6h-6.5v-2.6zM152.085 85.535l-1.3 2.252-5.629-3.25 1.3-2.252zM86.415 47.62l-1.3 2.252-5.63-3.25 1.3-2.252zM137.493 101.078l-2.252 1.3-3.25-5.63 2.252-1.3zM99.579 35.408l-2.252 1.3-3.25-5.63 2.252-1.3zM105.834 101.543l.837.224-1.121 4.186-.837-.225zM144.587 36.664l.613.613-3.064 3.064-.613-.613zM89.435 91.816l.613.613-3.064 3.064-.613-.613zM155.435 55.006l.224.837-4.185 1.122-.224-.838zM80.096 75.193l.225.837-4.186 1.122-.224-.838zM155.66 76.314l-.224.837-4.186-1.121.225-.837zM80.321 56.128l-.224.837-4.186-1.121.225-.838zM145.2 94.88l-.613.613-3.064-3.064.613-.613zM90.048 39.728l-.613.613-3.064-3.064.613-.613zM126.858 105.729l-.837.224-1.122-4.185.838-.224zM106.67 30.39l-.837.224-1.121-4.186.837-.224zM110.659 106.925l-.86-.117.586-4.293.859.117zM121.186 29.642l-.86-.117.586-4.293.859.117zM100.262 104.207l-.8-.335 1.677-3.996.8.335zM130.432 32.281l-.8-.335 1.677-3.996.8.336zM90.922 98.89l-.685-.532 2.653-3.425.685.53zM138.68 37.224l-.686-.53 2.654-3.426.685.53zM83.277 91.337l-.524-.69 3.449-2.623.525.69zM145.37 44.133l-.526-.69 3.45-2.623.525.69zM77.848 82.062l-.329-.802 4.01-1.64.33.802zM150.04 52.537l-.328-.802 4.01-1.64.328.802zM75.003 71.699l-.11-.86 4.3-.547.109.86zM152.378 61.865l-.109-.86 4.298-.547.11.86zM74.939 60.952l.117-.859 4.293.585-.117.859zM152.222 71.479l.117-.86 4.293.586-.117.859zM77.657 50.555l.336-.8 3.995 1.676-.335.8zM149.582 80.725l.335-.8 3.996 1.677-.335.8zM82.974 41.215l.53-.685 3.426 2.653-.53.685zM144.64 88.974l.531-.686 3.426 2.654-.53.685zM90.528 33.57l.69-.525 2.622 3.45-.69.524zM137.731 95.662l.69-.525 2.623 3.45-.69.524zM99.802 28.14l.803-.327 1.64 4.01-.803.328zM129.327 100.333l.802-.328 1.64 4.01-.802.329zM110.165 25.296l.86-.11.546 4.3-.86.108zM119.999 102.671l.86-.11.546 4.3-.86.108z"/><g filter="url(#i)"><circle cx="115.401" cy="66.671" r="6.5" fill="url(#j)" transform="rotate(45 115.401 66.671)"/><circle cx="115.401" cy="66.671" r="6" stroke="url(#k)" transform="rotate(45 115.401 66.671)"/></g><g filter="url(#l)"><path fill="url(#m)" d="M141.376 38.98c.936-.777 2.187.474 1.409 1.409l-22.513 27.066a1 1 0 0 1-1.476.068l-4.553-4.553a1 1 0 0 1 .067-1.476z"/><path stroke="#fde290" d="M141.696 39.365c.468-.389 1.093.237.704.705l-22.513 27.065a.5.5 0 0 1-.738.034l-4.553-4.553a.5.5 0 0 1 .034-.738z"/></g><g filter="url(#n)"><circle cx="115.401" cy="66.671" r="5.633" fill="url(#o)" transform="rotate(45 115.401 66.671)"/><circle cx="115.401" cy="66.671" r="5.133" stroke="url(#p)" stroke-opacity=".4" transform="rotate(45 115.401 66.671)"/></g><g filter="url(#q)"><path fill="url(#r)" d="M74.53 99.092a5.904 5.904 0 0 1 5.587-6.206l68.261-3.577a5.905 5.905 0 0 1 6.206 5.587l1.331 25.4a5.904 5.904 0 0 1-5.587 6.205l-68.262 3.578a5.905 5.905 0 0 1-6.205-5.588z"/><path fill="url(#s)" d="m150.232 124.687.096 1.814-68.262 3.578-.095-1.815zm3.869-4.296-1.332-25.4a4.087 4.087 0 0 0-4.296-3.868l-68.261 3.578a4.09 4.09 0 0 0-3.868 4.296l1.33 25.399a4.087 4.087 0 0 0 4.297 3.868l.095 1.815a5.905 5.905 0 0 1-6.205-5.588l-1.332-25.4a5.904 5.904 0 0 1 5.436-6.195l.152-.01 68.261-3.577.153-.006a5.905 5.905 0 0 1 6.053 5.593l1.331 25.4.006.152a5.905 5.905 0 0 1-5.593 6.053l-.096-1.814a4.09 4.09 0 0 0 3.869-4.296"/><path fill="url(#t)" d="M134.18 97.819c-.172-.809.737-1.408 1.412-.932l14.871 10.487a.91.91 0 0 1 .075 1.426l-13.694 11.984c-.621.544-1.588.042-1.501-.779l.345-3.267a.908.908 0 0 0-.951-1.003l-51.462 2.697a.91.91 0 0 1-.955-.859l-.618-11.793a.91.91 0 0 1 .86-.955l51.462-2.697a.908.908 0 0 0 .841-1.096z"/><path stroke="url(#u)" stroke-opacity=".4" stroke-width=".1" d="m150.185 124.739.09 1.715-68.162 3.572-.09-1.714zm-67.915-7.164a.96.96 0 0 0 1.008.907l51.462-2.696a.857.857 0 0 1 .898.947l-.345 3.267c-.091.866.928 1.395 1.584.821l13.693-11.984a.958.958 0 0 0-.078-1.504l-14.871-10.487c-.713-.502-1.671.13-1.49.983l.685 3.214a.86.86 0 0 1-.795 1.036l-51.461 2.697a.96.96 0 0 0-.908 1.007zm71.781 2.818a4.04 4.04 0 0 1-3.821 4.244l-68.262 3.578a4.04 4.04 0 0 1-4.243-3.821l-1.33-25.4a4.037 4.037 0 0 1 3.82-4.243l68.261-3.578a4.04 4.04 0 0 1 4.244 3.82zm-72.298-14.616a.86.86 0 0 1 .812-.902l51.461-2.697a.957.957 0 0 0 .887-1.156l-.684-3.214c-.163-.764.696-1.33 1.334-.88l14.871 10.487c.455.32.489.981.071 1.347l-13.693 11.984c-.588.514-1.502.04-1.42-.736l.345-3.267a.958.958 0 0 0-1.003-1.058l-51.461 2.697a.86.86 0 0 1-.902-.812zm71.066-10.788a4.137 4.137 0 0 0-4.348-3.916l-68.262 3.578a4.14 4.14 0 0 0-3.915 4.348l1.33 25.4a4.136 4.136 0 0 0 4.3 3.916l.09 1.714a5.85 5.85 0 0 1-6.104-5.54l-1.33-25.4a5.9 5.9 0 0 1 .245-2.017l.032-.1a6 6 0 0 1 .456-1.041q.041-.075.084-.146.03-.052.063-.102a6 6 0 0 1 .157-.24l.083-.117.092-.118.08-.105q.062-.075.126-.148l.05-.06q.045-.05.092-.099l.108-.115.082-.08.11-.107q.062-.056.124-.11l.08-.072q.072-.06.146-.117l.073-.059.12-.088.114-.082q.047-.033.096-.064a6 6 0 0 1 .247-.156l.119-.07q.076-.042.153-.08.051-.029.104-.055a6 6 0 0 1 .804-.328l.127-.04.133-.037a6 6 0 0 1 1.238-.2l68.263-3.577a6 6 0 0 1 1.787.18q.094.025.186.054a6 6 0 0 1 .65.234l.125.057.105.05a5 5 0 0 1 .371.195l.139.083.08.05.156.102q.045.03.088.063a6 6 0 0 1 .254.19l.09.072q.07.059.138.119l.069.06q.069.063.135.127l.063.06q.065.067.129.135l.077.082q.049.054.096.11l.083.095.099.126.075.095.098.137a6 6 0 0 1 .561.987l.043.097a5.8 5.8 0 0 1 .356 1.17q.077.396.1.81l1.331 25.399a6 6 0 0 1-.003.664l-.012.152a6 6 0 0 1-.033.293q-.008.064-.018.127a6 6 0 0 1-.054.283q-.017.085-.038.171l-.022.093-.051.178-.03.104-.049.146-.055.153-.029.076-.078.186q-.022.052-.046.102-.026.061-.054.121l-.058.114a6 6 0 0 1-.216.388l-.073.115-.085.131-.068.095q-.042.06-.085.117l-.116.15-.054.069-.122.141-.064.073-.114.121-.084.086a5 5 0 0 1-.203.193l-.11.097-.099.084-.088.071a5 5 0 0 1-.237.179 6 6 0 0 1-.772.466l-.081.04-.136.063-.125.056-.116.046a6 6 0 0 1-.985.297l-.135.024q-.076.015-.152.027a6 6 0 0 1-.54.057l-.09-1.715a4.137 4.137 0 0 0 3.866-4.344z"/></g><path fill="#818181" d="M145.464 76.261v3.25h-1.478v-3.367q0-.446-.152-.72-.198-.386-.752-.386-.573 0-.873.386-.294.38-.295 1.091v2.996h-1.442v-7.46h1.442v2.646q.315-.482.726-.67.417-.193.874-.193.513 0 .929.178.421.178.691.543.228.31.279.64.051.325.051 1.066M136.323 79.511l2.9-7.713h1.203l-2.909 7.713zM131.423 75.5q-.183-.402-.716-.402-.62 0-.832.401-.117.23-.117.68v3.332h-1.468v-5.525h1.407v.807q.268-.43.508-.614.421-.325 1.091-.325.635 0 1.026.28.315.258.477.665.285-.488.706-.717.447-.228.995-.228.366 0 .722.142.355.142.644.498.234.29.315.71.051.28.051.818l-.01 3.489h-1.483v-3.524q0-.315-.101-.518-.194-.386-.711-.386-.6 0-.828.498a1.6 1.6 0 0 0-.117.634v3.296h-1.457v-3.296q0-.492-.102-.716M127.605 79.511h-1.747l-1.325-2.366-.599.624v1.742h-1.422v-7.46h1.422v4.033l1.802-2.082h1.793l-1.935 2.117z"/><defs><linearGradient id="c" x1="115.721" x2="115.721" y1="15" y2="118" gradientUnits="userSpaceOnUse"><stop offset=".024" stop-color="#fff2cb"/><stop offset=".13" stop-color="#ededed"/><stop offset=".496" stop-color="#b6b6b6" stop-opacity="0"/></linearGradient><linearGradient id="e" x1="71.974" x2="81.853" y1="112.699" y2="19.754" gradientUnits="userSpaceOnUse"><stop offset=".004" stop-color="#b1b1b1"/><stop offset="1" stop-color="#f6edd0"/></linearGradient><linearGradient id="f" x1="151.221" x2="95.334" y1="100.5" y2="23.834" gradientUnits="userSpaceOnUse"><stop stop-color="#eee"/><stop offset="1" stop-color="#ffdf7d"/></linearGradient><linearGradient id="h" x1="115.953" x2="115.953" y1="64.25" y2="44" gradientUnits="userSpaceOnUse"><stop stop-color="#3f3f3f"/><stop offset="1" stop-color="#595959"/></linearGradient><linearGradient id="j" x1="115.397" x2="115.397" y1="59.871" y2="73.311" gradientUnits="userSpaceOnUse"><stop stop-color="#d5d4d4"/><stop offset=".996" stop-color="#a0a0a0"/></linearGradient><linearGradient id="k" x1="115.401" x2="115.401" y1="60.171" y2="73.171" gradientUnits="userSpaceOnUse"><stop stop-color="#ededed"/><stop offset=".496" stop-color="#b6b6b6" stop-opacity="0"/></linearGradient><linearGradient id="m" x1="149.748" x2="105.443" y1="32.017" y2="76.323" gradientUnits="userSpaceOnUse"><stop stop-color="#ffe596"/><stop offset="1" stop-color="#ffc61a"/></linearGradient><linearGradient id="o" x1="120.102" x2="109.286" y1="71.627" y2="72.569" gradientUnits="userSpaceOnUse"><stop offset=".004" stop-color="#adacac"/><stop offset="1" stop-color="#f6edd0"/></linearGradient><linearGradient id="p" x1="119.453" x2="111.685" y1="68.796" y2="60.941" gradientUnits="userSpaceOnUse"><stop stop-color="#eee"/><stop offset="1" stop-color="#ffdf7d"/></linearGradient><linearGradient id="r" x1="114.248" x2="116.197" y1="91.098" y2="128.29" gradientUnits="userSpaceOnUse"><stop stop-color="#6a6a6a"/><stop offset="1" stop-color="#484848"/></linearGradient><linearGradient id="s" x1="76.036" x2="77.84" y1="127.831" y2="91.829" gradientUnits="userSpaceOnUse"><stop offset=".004" stop-color="#bab6b9"/><stop offset="1" stop-color="#e2dbc6"/></linearGradient><linearGradient id="t" x1="82.56" x2="83.163" y1="122.151" y2="98.565" gradientUnits="userSpaceOnUse"><stop offset=".004" stop-color="#bab6b9"/><stop offset="1" stop-color="#e2dbc6"/></linearGradient><linearGradient id="u" x1="140.869" x2="134.058" y1="115.91" y2="92.714" gradientUnits="userSpaceOnUse"><stop offset=".113" stop-color="#4e5078"/><stop offset="1" stop-color="#f9cc45"/></linearGradient><filter id="a" width="135" height="135" x="50.221" y="5" color-interpolation-filters="sRGB" filterUnits="userSpaceOnUse"><feFlood flood-opacity="0" result="BackgroundImageFix"/><feColorMatrix in="SourceAlpha" result="hardAlpha" values="0 0 0 0 0 0 0 0 0 0 0 0 0 0 0 0 0 0 127 0"/><feOffset dx="2" dy="6"/><feGaussianBlur stdDeviation="8"/><feComposite in2="hardAlpha" operator="out"/><feColorMatrix values="0 0 0 0 0 0 0 0 0 0 0 0 0 0 0 0 0 0 0.24 0"/><feBlend in2="BackgroundImageFix" result="effect1_dropShadow_7539_1641"/><feColorMatrix in="SourceAlpha" result="hardAlpha" values="0 0 0 0 0 0 0 0 0 0 0 0 0 0 0 0 0 0 127 0"/><feOffset dy="1"/><feGaussianBlur stdDeviation="1"/><feComposite in2="hardAlpha" operator="out"/><feColorMatrix values="0 0 0 0 0 0 0 0 0 0 0 0 0 0 0 0 0 0 0.24 0"/><feBlend in2="effect1_dropShadow_7539_1641" result="effect2_dropShadow_7539_1641"/><feBlend in="SourceGraphic" in2="effect2_dropShadow_7539_1641" result="shape"/></filter><filter id="d" width="89" height="94" x="71.221" y="21" color-interpolation-filters="sRGB" filterUnits="userSpaceOnUse"><feFlood flood-opacity="0" result="BackgroundImageFix"/><feBlend in="SourceGraphic" in2="BackgroundImageFix" result="shape"/><feColorMatrix in="SourceAlpha" result="hardAlpha" values="0 0 0 0 0 0 0 0 0 0 0 0 0 0 0 0 0 0 127 0"/><feOffset dy="4"/><feGaussianBlur stdDeviation="8"/><feComposite in2="hardAlpha" k2="-1" k3="1" operator="arithmetic"/><feColorMatrix values="0 0 0 0 0 0 0 0 0 0 0 0 0 0 0 0 0 0 0.14 0"/><feBlend in2="shape" result="effect1_innerShadow_7539_1641"/><feColorMatrix in="SourceAlpha" result="hardAlpha" values="0 0 0 0 0 0 0 0 0 0 0 0 0 0 0 0 0 0 127 0"/><feOffset dy="1"/><feGaussianBlur stdDeviation=".5"/><feComposite in2="hardAlpha" k2="-1" k3="1" operator="arithmetic"/><feColorMatrix values="0 0 0 0 0 0 0 0 0 0 0 0 0 0 0 0 0 0 0.08 0"/><feBlend in2="effect1_innerShadow_7539_1641" result="effect2_innerShadow_7539_1641"/></filter><filter id="g" width="76.534" height="52.25" x="77.686" y="28" color-interpolation-filters="sRGB" filterUnits="userSpaceOnUse"><feFlood flood-opacity="0" result="BackgroundImageFix"/><feColorMatrix in="SourceAlpha" result="hardAlpha" values="0 0 0 0 0 0 0 0 0 0 0 0 0 0 0 0 0 0 127 0"/><feOffset dy="2"/><feGaussianBlur stdDeviation="2"/><feComposite in2="hardAlpha" operator="out"/><feColorMatrix values="0 0 0 0 0 0 0 0 0 0 0 0 0 0 0 0 0 0 0.15 0"/><feBlend in2="BackgroundImageFix" result="effect1_dropShadow_7539_1641"/><feColorMatrix in="SourceAlpha" result="hardAlpha" values="0 0 0 0 0 0 0 0 0 0 0 0 0 0 0 0 0 0 127 0"/><feOffset/><feGaussianBlur stdDeviation="8"/><feComposite in2="hardAlpha" operator="out"/><feColorMatrix values="0 0 0 0 1 0 0 0 0 0.905273 0 0 0 0 0.621094 0 0 0 1 0"/><feBlend in2="effect1_dropShadow_7539_1641" result="effect2_dropShadow_7539_1641"/><feColorMatrix in="SourceAlpha" result="hardAlpha" values="0 0 0 0 0 0 0 0 0 0 0 0 0 0 0 0 0 0 127 0"/><feOffset/><feGaussianBlur stdDeviation=".5"/><feComposite in2="hardAlpha" operator="out"/><feColorMatrix values="0 0 0 0 0 0 0 0 0 0 0 0 0 0 0 0 0 0 0.25 0"/><feBlend in2="effect2_dropShadow_7539_1641" result="effect3_dropShadow_7539_1641"/><feBlend in="SourceGraphic" in2="effect3_dropShadow_7539_1641" result="shape"/></filter><filter id="i" width="44.999" height="44.999" x="94.901" y="50.171" color-interpolation-filters="sRGB" filterUnits="userSpaceOnUse"><feFlood flood-opacity="0" result="BackgroundImageFix"/><feColorMatrix in="SourceAlpha" result="hardAlpha" values="0 0 0 0 0 0 0 0 0 0 0 0 0 0 0 0 0 0 127 0"/><feOffset dx="2" dy="6"/><feGaussianBlur stdDeviation="8"/><feComposite in2="hardAlpha" operator="out"/><feColorMatrix values="0 0 0 0 0 0 0 0 0 0 0 0 0 0 0 0 0 0 0.24 0"/><feBlend in2="BackgroundImageFix" result="effect1_dropShadow_7539_1641"/><feColorMatrix in="SourceAlpha" result="hardAlpha" values="0 0 0 0 0 0 0 0 0 0 0 0 0 0 0 0 0 0 127 0"/><feOffset dy="1"/><feGaussianBlur stdDeviation="1"/><feComposite in2="hardAlpha" operator="out"/><feColorMatrix values="0 0 0 0 0 0 0 0 0 0 0 0 0 0 0 0 0 0 0.24 0"/><feBlend in2="effect1_dropShadow_7539_1641" result="effect2_dropShadow_7539_1641"/><feBlend in="SourceGraphic" in2="effect2_dropShadow_7539_1641" result="shape"/></filter><filter id="l" width="61.079" height="61.079" x="97.95" y="22.737" color-interpolation-filters="sRGB" filterUnits="userSpaceOnUse"><feFlood flood-opacity="0" result="BackgroundImageFix"/><feColorMatrix in="SourceAlpha" result="hardAlpha" values="0 0 0 0 0 0 0 0 0 0 0 0 0 0 0 0 0 0 127 0"/><feOffset dy="2"/><feGaussianBlur stdDeviation="2"/><feComposite in2="hardAlpha" operator="out"/><feColorMatrix values="0 0 0 0 0 0 0 0 0 0 0 0 0 0 0 0 0 0 0.55 0"/><feBlend in2="BackgroundImageFix" result="effect1_dropShadow_7539_1641"/><feColorMatrix in="SourceAlpha" result="hardAlpha" values="0 0 0 0 0 0 0 0 0 0 0 0 0 0 0 0 0 0 127 0"/><feOffset/><feGaussianBlur stdDeviation="8"/><feComposite in2="hardAlpha" operator="out"/><feColorMatrix values="0 0 0 0 1 0 0 0 0 0.905273 0 0 0 0 0.621094 0 0 0 1 0"/><feBlend in2="effect1_dropShadow_7539_1641" result="effect2_dropShadow_7539_1641"/><feBlend in="SourceGraphic" in2="effect2_dropShadow_7539_1641" result="shape"/></filter><filter id="n" width="43.266" height="43.266" x="93.768" y="49.038" color-interpolation-filters="sRGB" filterUnits="userSpaceOnUse"><feFlood flood-opacity="0" result="BackgroundImageFix"/><feColorMatrix in="SourceAlpha" result="hardAlpha" values="0 0 0 0 0 0 0 0 0 0 0 0 0 0 0 0 0 0 127 0"/><feOffset dy="4"/><feGaussianBlur stdDeviation="8"/><feComposite in2="hardAlpha" operator="out"/><feColorMatrix values="0 0 0 0 0 0 0 0 0 0 0 0 0 0 0 0 0 0 0.14 0"/><feBlend in2="BackgroundImageFix" result="effect1_dropShadow_7539_1641"/><feColorMatrix in="SourceAlpha" result="hardAlpha" values="0 0 0 0 0 0 0 0 0 0 0 0 0 0 0 0 0 0 127 0"/><feOffset dy="1"/><feGaussianBlur stdDeviation=".5"/><feComposite in2="hardAlpha" operator="out"/><feColorMatrix values="0 0 0 0 0 0 0 0 0 0 0 0 0 0 0 0 0 0 0.08 0"/><feBlend in2="effect1_dropShadow_7539_1641" result="effect2_dropShadow_7539_1641"/><feBlend in="SourceGraphic" in2="effect2_dropShadow_7539_1641" result="shape"/></filter><filter id="q" width="83.402" height="42.786" x="73.521" y="89.301" color-interpolation-filters="sRGB" filterUnits="userSpaceOnUse"><feFlood flood-opacity="0" result="BackgroundImageFix"/><feColorMatrix in="SourceAlpha" result="hardAlpha" values="0 0 0 0 0 0 0 0 0 0 0 0 0 0 0 0 0 0 127 0"/><feOffset dy="1"/><feGaussianBlur stdDeviation=".5"/><feComposite in2="hardAlpha" operator="out"/><feColorMatrix values="0 0 0 0 0 0 0 0 0 0 0 0 0 0 0 0 0 0 0.08 0"/><feBlend in2="BackgroundImageFix" result="effect1_dropShadow_7539_1641"/><feBlend in="SourceGraphic" in2="effect1_dropShadow_7539_1641" result="shape"/></filter><radialGradient id="b" cx="0" cy="0" r="1" gradientTransform="rotate(70.634 39.409 95.27)scale(107.057 100.206)" gradientUnits="userSpaceOnUse"><stop stop-color="#d5d4d4"/><stop offset=".779" stop-color="#828282"/></radialGradient></defs></svg>