<svg width="160" height="161" viewBox="0 0 160 161" fill="none" xmlns="http://www.w3.org/2000/svg">
<path d="M83.9822 133.2C111.982 133.2 134.682 110.5 134.682 82.4C134.682 54.3 111.882 31.6 83.9822 31.6C55.9822 31.6 33.2822 54.3 33.2822 82.4C33.2822 110.5 55.9822 133.2 83.9822 133.2Z" fill="#242424"/>
<path d="M131.382 49.1C133.647 49.1 135.482 47.2644 135.482 45C135.482 42.7357 133.647 40.9 131.382 40.9C129.118 40.9 127.282 42.7357 127.282 45C127.282 47.2644 129.118 49.1 131.382 49.1Z" fill="#5C5C5C"/>
<path d="M137.382 33.1C138.928 33.1 140.182 31.8464 140.182 30.3C140.182 28.7536 138.928 27.5 137.382 27.5C135.836 27.5 134.582 28.7536 134.582 30.3C134.582 31.8464 135.836 33.1 137.382 33.1Z" fill="#5C5C5C"/>
<path d="M35.9821 49C37.5285 49 38.7821 47.7464 38.7821 46.2C38.7821 44.6536 37.5285 43.4 35.9821 43.4C34.4357 43.4 33.1821 44.6536 33.1821 46.2C33.1821 47.7464 34.4357 49 35.9821 49Z" fill="#5C5C5C"/>
<path d="M24.2 109.528C27.0719 109.528 29.4 107.2 29.4 104.328C29.4 101.456 27.0719 99.1281 24.2 99.1281C21.3281 99.1281 19 101.456 19 104.328C19 107.2 21.3281 109.528 24.2 109.528Z" fill="#5C5C5C"/>
<path d="M137.941 105.029H122.56C121.832 105.029 121.209 104.561 121.001 103.938C119.494 99.469 116.168 98.3778 108.114 95.208C107.646 95.0002 107.594 94.3766 108.062 94.1168C110.4 92.9736 109.985 91.9863 109.985 85.1272C109.881 85.0232 109.777 84.8673 109.725 84.7634C109.205 83.984 108.841 83.0486 108.737 82.1133L108.218 81.8535C106.659 82.2172 106.763 80.5544 106.347 77.3327C106.191 75.9816 106.399 75.7218 106.971 75.5139L107.49 74.8384C104.424 67.9793 105.983 63.6663 108.997 62.1074C108.01 59.925 107.958 59.1455 107.958 59.1455C107.958 59.1455 114.349 60.2367 116.532 59.7691C119.338 59.1975 123.599 59.873 125.21 63.5624C127.86 64.6017 128.899 66.3164 129.159 68.0832C129.523 70.9931 127.912 74.1629 127.6 75.41C127.652 75.462 127.652 75.5139 127.704 75.5659C128.12 75.7738 128.276 76.1375 128.12 77.2807C127.756 80.3465 127.808 82.2692 126.249 81.8015L124.846 84.2438C124.794 84.5556 124.742 84.6595 124.742 84.8154C124.69 85.283 124.69 86.1664 124.69 91.2588C124.69 91.8824 124.846 92.454 125.158 92.9216C125.47 93.4932 125.989 93.9089 126.613 94.1688H126.665C130.302 95.6757 132.9 96.663 134.823 97.4424C139.084 99.1572 139.811 99.6249 140.175 102.483C140.279 103.886 139.292 105.029 137.941 105.029Z" fill="#A1A1A1"/>
<path d="M127.495 75.3573C127.651 74.5778 127.287 73.6425 126.975 72.967C126.923 72.863 126.871 72.7591 126.819 72.6032C125.624 70.161 122.87 69.1217 120.272 69.0178C113.621 68.654 112.997 69.9531 110.919 68.0305C111.542 69.0178 111.646 70.5247 110.607 72.4473C109.931 73.7984 108.58 74.37 107.385 74.7857C104.371 67.9265 105.878 63.6136 108.892 62.0547C107.905 59.8722 107.853 59.0928 107.853 59.0928C107.853 59.0928 114.244 60.184 116.427 59.7163C119.233 59.1447 123.494 59.8203 125.104 63.5097C127.755 64.5489 128.794 66.2637 129.054 68.0305C129.469 70.9404 127.807 74.1102 127.495 75.3573Z" fill="#3A3A3A"/>
<path d="M125.052 92.9729V94.168H109.619V92.6091C109.983 91.7777 109.879 91.8297 109.879 85.1264C109.775 85.0225 109.671 84.8666 109.619 84.7627V84.3989C109.931 84.9705 110.399 85.4902 110.866 85.9059L115.699 89.2835C116.842 90.2188 118.453 90.2708 119.596 89.3354L124.117 85.2823C124.273 85.1264 124.429 85.0225 124.585 84.8666C124.533 85.3343 124.533 86.2176 124.533 91.31C124.585 91.8816 124.74 92.4532 125.052 92.9729Z" fill="url(#paint0_linear_3565_28573)"/>
<path d="M58.4354 93.4406C55.9412 93.3886 55.6814 92.921 55.6814 92.921V88.7639C58.3315 86.5814 60.5659 84.0352 61.1895 80.7096C62.8523 80.3459 63.8916 78.8389 63.7357 77.1761C63.6837 76.4486 63.2161 75.7731 63.1641 74.9936C63.1641 74.6299 63.1641 74.2661 63.1641 73.9024C63.1641 73.6426 63.1641 73.4347 63.1121 73.1749C63.1121 72.9151 63.0602 72.6553 63.0602 72.3955C62.9043 71.1484 62.5925 69.8493 61.7611 68.3423C59.6826 64.4451 55.5775 61.8469 50.9527 61.8469C50.0174 61.8469 49.082 61.9508 48.1987 62.1587C46.5358 62.5224 45.0289 63.2499 43.6779 64.2892C43.418 64.4971 43.1582 64.7049 42.8984 64.9128C42.8464 64.9647 42.7945 65.0167 42.6906 65.0686C41.2356 66.4197 40.0924 68.1345 39.4688 70.0571C38.8453 71.9798 38.6894 73.9544 38.9492 75.929C38.9492 75.9809 38.9492 76.0329 38.9492 76.0849C38.9492 76.1368 38.9492 76.1888 38.9492 76.2408C39.0012 76.6045 39.1051 76.5525 38.8453 76.8643C38.7933 76.9682 38.6894 77.0722 38.6374 77.2281C38.3256 77.7997 38.0658 78.5791 38.4296 79.5144C39.0531 81.2812 40.3002 81.0214 41.4434 82.0087C41.3915 82.0606 41.2875 82.1126 41.2356 82.1126H41.1836L39.8845 82.5283C32.09 84.9706 31.2067 93.2327 39.209 94.7397C38.6374 94.7916 38.1178 95.1034 37.754 95.3632C35.2078 97.3378 33.597 100.352 33.1813 103.314C33.0254 104.197 33.7529 105.028 34.6882 105.028H47.0555C47.3153 105.028 47.5751 104.821 47.679 104.561C48.8222 100.404 51.4204 98.9487 56.8246 96.7662L59.9424 95.5191C60.462 95.3113 61.0336 95.1034 61.6572 94.8436C62.2288 94.6358 62.1768 93.8043 61.5532 93.6485C60.9297 93.4926 60.3061 93.4406 59.6826 93.3886C59.1629 93.4406 58.7472 93.4406 58.4354 93.4406ZM42.5866 88.1403C42.5866 87.6207 42.9504 87.0491 43.7298 86.4256C44.0416 86.8413 44.4573 87.3089 44.925 87.7246C45.2887 88.0364 45.6525 88.3482 46.0682 88.66C46.328 88.8159 46.5878 89.0237 46.8476 89.2316C46.8996 89.2835 46.9515 89.3355 47.0035 89.3355C47.0555 89.3875 47.1594 89.4394 47.2114 89.4914V92.0376C47.1594 91.9856 47.1074 91.9337 47.0555 91.9337C46.7957 91.7258 46.5878 91.518 46.38 91.3621C46.0162 91.1023 45.6525 90.8944 45.2887 90.6865C45.1328 90.5826 45.0289 90.5307 44.925 90.4267C43.7298 89.6473 42.6386 88.9198 42.5866 88.1403Z" fill="#A1A1A1"/>
<path d="M58.4354 93.4406C58.0197 94.9475 57.552 95.8828 57.552 95.8828L44.1455 93.7524L44.925 90.4267C45.0289 90.5306 45.1848 90.5826 45.2887 90.6346C45.6524 90.8424 46.0681 91.1022 46.3799 91.362C46.5878 91.5179 46.8476 91.6738 47.0555 91.9336C47.1074 91.9856 47.1594 92.0376 47.1594 92.0376V89.4914C47.0555 89.4394 47.0035 89.3874 46.9515 89.3355C49.134 90.4267 51.8361 90.9983 55.7333 88.7119C55.6814 88.7119 55.6814 88.7639 55.6294 88.7639V92.9209C55.6294 92.9209 55.9412 93.3886 58.4354 93.4406Z" fill="url(#paint1_linear_3565_28573)"/>
<path d="M63.0602 73.175C60.8258 73.9544 58.4355 74.2662 56.0452 74.0583C52.3038 73.7466 48.6664 72.2396 45.8604 69.7454C44.925 72.4475 42.5867 74.474 39.9366 75.6692C39.5728 75.8251 39.2091 75.981 38.8453 76.0849C38.8453 76.0329 38.8453 75.981 38.8453 75.981C38.5855 74.0064 38.7414 72.0318 39.365 70.1091C39.9885 68.1865 41.1317 66.4717 42.5867 65.1206C42.6387 65.0687 42.6906 65.0167 42.7946 64.9648C43.0544 64.7569 43.3142 64.5491 43.574 64.3412C44.925 63.3539 46.4839 62.6264 48.0948 62.2107C49.0301 62.0029 49.9135 61.8989 50.8489 61.8989C55.4736 61.8989 59.5787 64.4971 61.6572 68.3943C62.4367 69.9013 62.8004 71.2004 62.9563 72.3955C63.0602 72.6553 63.0602 72.9151 63.0602 73.175Z" fill="#3A3A3A"/>
<path d="M43.8857 86.5813C44.1975 86.997 44.5613 87.3607 44.873 87.6725C44.5093 87.3607 44.1456 86.997 43.8857 86.5813Z" fill="#3973F4"/>
<path d="M48.7703 99.7281C47.783 100.975 45.9123 101.027 44.3534 100.975C46.0163 99.3644 45.0809 94.1161 39.261 94.7396H39.2091C31.2067 93.2327 32.0901 84.9705 39.8326 82.5283L41.1317 82.1125C41.2356 82.1645 41.2876 82.2165 41.3396 82.3204C41.9631 83.9313 42.7945 85.2823 43.6779 86.3735C40.5082 89.0237 44.925 89.8551 47.0555 91.8816C48.9262 92.9729 50.4851 97.5456 48.7703 99.7281Z" fill="#3A3A3A"/>
<path d="M43.8339 86.5814C43.7819 86.5295 43.73 86.4775 43.73 86.4255C43.73 86.4255 43.7819 86.5295 43.8339 86.5814Z" fill="#3973F4"/>
<path d="M118.037 107.419C118.297 109.341 116.79 111.108 114.815 111.108H53.9145C51.9399 111.108 50.433 109.341 50.6928 107.419C51.2644 103.417 52.1477 102.586 58.0716 100.196L59.5265 99.6242C62.2806 98.5329 65.866 97.1819 70.6986 95.1553C71.7899 94.6877 72.6732 93.8562 73.1409 92.765C73.4007 92.1934 73.5566 91.5179 73.5566 90.8424V81.7488C73.4007 81.5409 73.2448 81.3851 73.1409 81.1772C72.3615 80.034 71.8418 78.683 71.6859 77.228L70.9065 76.8643C68.5681 77.4358 68.776 74.9416 68.1524 70.161C67.8926 68.1864 68.2044 67.7707 69.0878 67.4589L69.8153 66.4716C65.3464 56.3388 67.5808 49.9992 71.9977 47.7648C70.6467 44.5431 70.5427 43.3999 70.5427 43.3999C70.5427 43.3999 79.9481 44.9588 83.1698 44.3352C87.2749 43.5038 93.6144 44.4911 95.9528 49.9473C99.85 51.5062 101.357 53.9484 101.721 56.6505C102.292 60.9115 99.85 65.5882 99.3824 67.4069C99.4343 67.5109 99.4343 67.5628 99.4863 67.6148C100.11 67.9266 100.318 68.4462 100.11 70.161C99.5383 74.6818 99.6941 77.4878 97.3558 76.8643L95.2773 80.5017C95.1733 80.9174 95.1733 81.0733 95.1214 81.3851C95.0175 82.0606 95.0694 83.4116 95.0694 90.8424C95.0694 91.7257 95.3292 92.6091 95.7969 93.2846C96.3165 94.0641 97.044 94.7396 97.9274 95.1034C97.9794 95.1034 97.9794 95.1034 98.0313 95.1553C103.384 97.3897 107.229 98.8447 110.035 99.9359C116.426 102.43 117.414 103.21 118.037 107.419Z" fill="#A1A1A1"/>
<path d="M99.4344 67.4069C99.6423 66.2637 99.1226 64.8607 98.7069 63.8734C98.655 63.7175 98.551 63.5617 98.4991 63.3538C96.6804 59.7164 92.6792 58.2614 88.8339 58.0535C79.0128 57.5339 78.1295 59.4046 75.0636 56.5986C75.999 58.0535 76.1029 60.288 74.6479 63.094C73.6087 65.0686 71.6341 65.952 69.9193 66.5236C65.4504 56.3907 67.6848 50.0512 72.1017 47.8168C70.6468 44.5431 70.5428 43.3999 70.5428 43.3999C70.5428 43.3999 79.9482 44.9588 83.1699 44.3352C87.275 43.5038 93.6145 44.4911 95.9529 49.9473C99.8501 51.5062 101.357 53.9484 101.721 56.6505C102.344 60.8596 99.9021 65.5363 99.4344 67.4069Z" fill="#3A3A3A"/>
<path d="M95.8489 93.2845V95.0513H73.1929V92.7649C73.4527 92.1933 73.6086 91.5178 73.6086 90.8423V81.7487C73.4527 81.5408 73.2968 81.385 73.1929 81.1771V80.6575C73.6605 81.4889 74.2841 82.2683 75.0635 82.8919L82.1825 87.8804C83.8453 89.2834 86.2357 89.3353 87.9504 87.9843L94.6017 82.0085C94.8096 81.8007 95.0694 81.5928 95.2773 81.385C95.1733 82.0605 95.2253 83.4115 95.2253 90.8423C95.1733 91.7257 95.4332 92.5571 95.8489 93.2845Z" fill="url(#paint2_linear_3565_28573)"/>
<path d="M101.979 120.595C101.657 121.966 101.173 123.417 100.608 124.627C99.0764 127.61 96.6576 129.948 93.6743 131.48C90.6105 133.012 86.9822 133.657 83.3539 132.851C74.8073 131.077 69.3246 122.692 71.0984 114.145C72.8723 105.599 81.177 100.035 89.7236 101.89C92.7874 102.535 95.4482 104.067 97.7057 106.163C101.495 109.952 103.108 115.435 101.979 120.595Z" fill="#242424" stroke="#464646" stroke-miterlimit="10"/>
<path d="M91.5781 115.999H87.9498V112.371C87.9498 111.646 87.3854 111 86.5791 111C85.8535 111 85.2084 111.565 85.2084 112.371V115.999H81.5802C80.8545 115.999 80.2095 116.564 80.2095 117.37C80.2095 118.176 80.7739 118.741 81.5802 118.741H85.2084V122.369C85.2084 123.095 85.7728 123.74 86.5791 123.74C87.3048 123.74 87.9498 123.175 87.9498 122.369V118.741H91.5781C92.3037 118.741 92.9487 118.176 92.9487 117.37C92.9487 116.564 92.3037 115.999 91.5781 115.999Z" fill="#F8F7F4"/>
<defs>
<linearGradient id="paint0_linear_3565_28573" x1="117.306" y1="93.8638" x2="117.306" y2="88.7467" gradientUnits="userSpaceOnUse">
<stop stop-color="#A1A1A1"/>
<stop offset="0.9913" stop-color="#8A8A8A"/>
</linearGradient>
<linearGradient id="paint1_linear_3565_28573" x1="51.2628" y1="95.6595" x2="51.2628" y2="91.9034" gradientUnits="userSpaceOnUse">
<stop stop-color="#A1A1A1"/>
<stop offset="0.9913" stop-color="#8A8A8A"/>
</linearGradient>
<linearGradient id="paint2_linear_3565_28573" x1="84.4771" y1="94.6031" x2="84.4771" y2="87.0635" gradientUnits="userSpaceOnUse">
<stop stop-color="#A1A1A1"/>
<stop offset="0.9913" stop-color="#8A8A8A"/>
</linearGradient>
</defs>
</svg>
