<svg width="163" height="161" viewBox="0 0 163 161" fill="none" xmlns="http://www.w3.org/2000/svg">
<path d="M83.9822 133.2C111.982 133.2 134.682 110.5 134.682 82.4C134.682 54.3 111.882 31.6 83.9822 31.6C55.9822 31.6 33.2822 54.3 33.2822 82.4C33.2822 110.5 55.9822 133.2 83.9822 133.2Z" fill="#F0F0F0"/>
<path d="M131.382 49.1C133.647 49.1 135.482 47.2644 135.482 45C135.482 42.7357 133.647 40.9 131.382 40.9C129.118 40.9 127.282 42.7357 127.282 45C127.282 47.2644 129.118 49.1 131.382 49.1Z" fill="#E6DED1"/>
<path d="M137.382 33.1C138.928 33.1 140.182 31.8464 140.182 30.3C140.182 28.7536 138.928 27.5 137.382 27.5C135.836 27.5 134.582 28.7536 134.582 30.3C134.582 31.8464 135.836 33.1 137.382 33.1Z" fill="#E6DED1"/>
<path d="M35.9821 49C37.5285 49 38.7821 47.7464 38.7821 46.2C38.7821 44.6536 37.5285 43.4 35.9821 43.4C34.4357 43.4 33.1821 44.6536 33.1821 46.2C33.1821 47.7464 34.4357 49 35.9821 49Z" fill="#E6DED1"/>
<path d="M24.2 109.528C27.0719 109.528 29.4 107.2 29.4 104.328C29.4 101.456 27.0719 99.1281 24.2 99.1281C21.3281 99.1281 19 101.456 19 104.328C19 107.2 21.3281 109.528 24.2 109.528Z" fill="#E6DED1"/>
<g filter="url(#filter0_d_3565_28554)">
<path d="M137.941 105.029H122.56C121.832 105.029 121.209 104.561 121.001 103.938C119.494 99.469 116.168 98.3778 108.114 95.2081C107.646 95.0002 107.594 94.3766 108.062 94.1168C110.348 92.9992 110.002 92.0306 109.985 85.5792C109.984 85.292 109.853 85.0203 109.725 84.7634C109.269 84.0801 108.933 83.2768 108.787 82.4589C108.749 82.2445 108.62 82.0545 108.425 81.9571C108.291 81.8902 108.137 81.8772 107.988 81.8938C106.668 82.0407 106.741 80.3874 106.347 77.3327C106.217 76.2066 106.34 75.8386 106.715 75.6269C106.874 75.5373 107.03 75.4372 107.141 75.2925C107.356 75.0128 107.398 74.6366 107.262 74.3113C104.879 68.6444 105.719 64.788 107.889 62.8666C108.454 62.366 108.403 60.7471 108.174 60.0276C107.896 59.1528 108.827 59.2897 109.737 59.4168C111.795 59.7048 115.086 60.0788 116.532 59.7691C118.826 59.3018 122.092 59.668 124.088 61.8325C124.987 62.8074 125.961 63.7558 127.027 64.5446C128.366 65.5356 128.97 66.7956 129.159 68.0832C129.51 70.8895 128.024 73.9374 127.638 75.2695C127.613 75.3567 127.626 75.4552 127.676 75.5312C127.691 75.5545 127.717 75.5721 127.741 75.5853C128.129 75.7966 128.271 76.1723 128.12 77.2807C127.962 78.6089 127.883 79.7226 127.716 80.5203C127.442 81.8365 125.775 82.626 125.106 83.7919C124.934 84.0907 124.775 84.4115 124.745 84.7548C124.743 84.7745 124.742 84.7945 124.742 84.8154C124.69 85.2831 124.69 86.1664 124.69 91.2588C124.69 91.8824 124.846 92.454 125.158 92.9217C125.466 93.4859 125.976 93.8982 126.589 94.1587C126.605 94.1654 126.622 94.1688 126.639 94.1688C126.656 94.1688 126.673 94.1722 126.689 94.1788C130.314 95.6801 132.905 96.6648 134.823 97.4425C139.084 99.1573 139.811 99.6249 140.175 102.483C140.279 103.886 139.292 105.029 137.941 105.029Z" fill="url(#paint0_linear_3565_28554)"/>
</g>
<path d="M127.495 75.3573C127.651 74.5778 127.287 73.6425 126.975 72.967C126.923 72.863 126.871 72.7591 126.819 72.6032C125.624 70.161 122.87 69.1217 120.272 69.0178C113.621 68.654 112.997 69.9531 110.919 68.0305C111.542 69.0178 111.646 70.5247 110.607 72.4473C109.931 73.7984 108.58 74.37 107.385 74.7857C104.371 67.9265 105.878 63.6136 108.892 62.0547C107.905 59.8722 107.853 59.0928 107.853 59.0928C107.853 59.0928 114.244 60.184 116.427 59.7163C119.233 59.1447 123.494 59.8203 125.104 63.5097C127.755 64.5489 128.794 66.2637 129.054 68.0305C129.469 70.9404 127.807 74.1102 127.495 75.3573Z" fill="#676767"/>
<path opacity="0.1" d="M136.329 105.028C137.939 102.534 137.316 100.196 134.718 97.4417C138.979 99.1565 139.706 99.6242 140.07 102.482C140.278 103.781 139.239 104.976 137.888 104.976H136.329V105.028Z" fill="#B7B4AF"/>
<path d="M125.053 92.9728V94.168H109.62V92.6091C109.983 91.7777 109.879 91.8296 109.879 85.1264C109.776 85.0225 109.672 84.8666 109.62 84.7626V84.3989C109.931 84.9705 110.399 85.4901 110.867 85.9058L115.699 89.2834C116.843 90.2188 118.453 90.2707 119.597 89.3354L124.117 85.2823C124.273 85.1264 124.429 85.0225 124.585 84.8666C124.533 85.3342 124.533 86.2176 124.533 91.31C124.585 91.8816 124.741 92.4532 125.053 92.9728Z" fill="url(#paint1_linear_3565_28554)"/>
<g filter="url(#filter1_d_3565_28554)">
<path d="M58.4354 93.4405C57.7762 93.4268 57.273 93.384 56.8895 93.3285C56.0486 93.2068 55.6814 92.475 55.6814 91.6253V91.1235C55.6814 89.6294 56.3755 88.2397 57.4367 87.188C58.4746 86.1594 59.3825 85.0445 60.0631 83.8092C61.0319 82.0507 62.9055 80.5101 63.5653 78.6138C63.7207 78.167 63.7828 77.6786 63.7357 77.176C63.6837 76.4485 63.2161 75.773 63.1641 74.9936C63.1641 74.6298 63.1641 74.2661 63.1641 73.9023C63.1641 73.8196 63.1641 73.7422 63.1624 73.6667C63.1551 73.3375 63.1065 73.0091 63.076 72.6813C63.0672 72.586 63.0602 72.4907 63.0602 72.3954C62.9043 71.1483 62.5925 69.8492 61.7611 68.3423C59.6826 64.445 55.5775 61.8469 50.9527 61.8469C50.0174 61.8469 49.082 61.9508 48.1987 62.1586C46.5358 62.5224 45.0289 63.2499 43.6779 64.2891C43.418 64.497 43.1582 64.7048 42.8984 64.9127C42.7759 65.0352 42.6255 65.1278 42.501 65.2483C41.1364 66.5704 40.0651 68.2187 39.4688 70.0571C38.8453 71.9797 38.6894 73.9543 38.9492 75.9289C38.9492 75.9809 38.9492 76.0328 38.9492 76.0848C38.9492 76.1886 38.9544 76.293 38.9782 76.394C39.0101 76.5297 39.0363 76.5785 38.986 76.6729C38.9117 76.8123 38.8114 76.9172 38.726 77.0501C38.6603 77.1522 38.6069 77.2809 38.5536 77.39C38.2833 77.9435 38.0991 78.6646 38.4296 79.5144C39.0198 81.1866 40.1685 81.0433 41.2591 81.8603C41.3612 81.9368 41.3632 82.1125 41.2356 82.1125C41.2012 82.1125 41.1669 82.1179 41.1341 82.1284L39.8845 82.5282C32.6354 84.7996 31.3641 92.105 37.6591 94.3284C37.9032 94.4146 37.9647 95.2127 37.754 95.3632C35.2078 97.3378 33.597 100.352 33.1813 103.314C33.0254 104.197 33.7529 105.028 34.6882 105.028H47.0555C47.3153 105.028 47.5751 104.82 47.679 104.561C48.8222 100.404 51.4204 98.9486 56.8246 96.7662L59.9424 95.5191C60.462 95.3112 61.0336 95.1034 61.6572 94.8435C62.2288 94.6357 62.1768 93.8043 61.5532 93.6484C61.0819 93.5305 60.6105 93.4721 60.1391 93.4281C59.8356 93.3998 59.5301 93.4072 59.2256 93.4237C58.9131 93.4405 58.6497 93.4405 58.4354 93.4405ZM42.5866 88.1403C42.5866 88.025 42.6045 87.9072 42.6409 87.7868C42.9207 86.8607 44.2019 87.0819 44.925 87.7246C45.2887 88.0364 45.6525 88.3481 46.0682 88.6599C46.328 88.8158 46.5878 89.0237 46.8476 89.2315C46.8623 89.2462 46.8771 89.2609 46.8918 89.2745C46.9531 89.3309 47.0381 89.3672 47.1074 89.4134C47.1768 89.4596 47.2114 89.5381 47.2114 89.6214V91.8701C47.2114 91.9319 47.1354 91.9503 47.0753 91.936C47.0599 91.9324 47.0487 91.9282 47.0365 91.9184C46.7855 91.7156 46.5827 91.5141 46.38 91.362C46.0162 91.1022 45.6525 90.8943 45.2887 90.6865C45.0409 90.5213 44.7986 90.3453 44.5503 90.1809C43.5106 89.4927 42.6331 88.8373 42.5866 88.1403Z" fill="url(#paint2_linear_3565_28554)"/>
</g>
<path d="M58.4354 93.4406C58.0197 94.9475 57.552 95.8828 57.552 95.8828L44.1455 93.7524L44.925 90.4267C45.0289 90.5306 45.1848 90.5826 45.2887 90.6346C45.6524 90.8424 46.0681 91.1022 46.3799 91.362C46.5878 91.5179 46.8476 91.6738 47.0555 91.9336C47.1074 91.9856 47.1594 92.0376 47.1594 92.0376V89.4914C47.0555 89.4394 47.0035 89.3874 46.9515 89.3355C49.134 90.4267 51.8361 90.9983 55.7333 88.7119C55.6814 88.7119 55.6814 88.7639 55.6294 88.7639V92.9209C55.6294 92.9209 55.9412 93.3886 58.4354 93.4406Z" fill="url(#paint3_linear_3565_28554)"/>
<path d="M63.0602 73.1748C60.8258 73.9543 58.4355 74.2661 56.0452 74.0582C52.3038 73.7464 48.6664 72.2395 45.8604 69.7453C44.925 72.4474 42.5867 74.4739 39.9366 75.6691C39.5728 75.825 39.2091 75.9809 38.8453 76.0848C38.8453 76.0328 38.8453 75.9809 38.8453 75.9809C38.5855 74.0062 38.7414 72.0316 39.365 70.109C39.9885 68.1864 41.1317 66.4716 42.5867 65.1205C42.6387 65.0686 42.6906 65.0166 42.7946 64.9646C43.0544 64.7568 43.3142 64.5489 43.574 64.3411C44.925 63.3538 46.4839 62.6263 48.0948 62.2106C49.0301 62.0027 49.9135 61.8988 50.8489 61.8988C55.4736 61.8988 59.5787 64.497 61.6572 68.3942C62.4367 69.9011 62.8004 71.2002 62.9563 72.3954C63.0602 72.6552 63.0602 72.915 63.0602 73.1748Z" fill="#676767"/>
<path d="M43.8857 86.5814C44.1975 86.9971 44.5613 87.3608 44.873 87.6726C44.5093 87.3608 44.1456 86.9971 43.8857 86.5814Z" fill="#3973F4"/>
<path d="M48.7703 99.7281C47.783 100.975 45.9123 101.027 44.3534 100.975C46.0163 99.3644 45.0809 94.1161 39.261 94.7397H39.2091C31.2067 93.2327 32.0901 84.9706 39.8326 82.5283L41.1317 82.1126C41.2356 82.1645 41.2876 82.2165 41.3396 82.3204C41.9631 83.9313 42.7945 85.2823 43.6779 86.3736C40.5082 89.0237 44.925 89.8551 47.0555 91.8817C48.9262 92.9729 50.4851 97.5457 48.7703 99.7281Z" fill="#676767"/>
<path d="M43.8339 86.5814C43.7819 86.5294 43.73 86.4775 43.73 86.4255C43.73 86.4255 43.7819 86.5294 43.8339 86.5814Z" fill="#3973F4"/>
<g filter="url(#filter2_d_3565_28554)">
<path d="M118.037 107.419C118.297 109.341 116.79 111.108 114.815 111.108H53.9145C51.9399 111.108 50.433 109.341 50.6928 107.419C51.2644 103.417 52.1477 102.586 58.0716 100.196L59.5265 99.6242C62.2806 98.5329 65.866 97.1819 70.6986 95.1553C71.7899 94.6877 72.6732 93.8562 73.1409 92.765C73.4007 92.1934 73.5566 91.5179 73.5566 90.8424V82.4569C73.5566 81.9973 73.3465 81.5883 73.1409 81.1772C72.456 80.1727 71.9717 79.0077 71.7586 77.7528C71.7035 77.4286 71.5038 77.143 71.2058 77.0039C71.0121 76.9135 70.7922 76.8988 70.5802 76.9263C68.5865 77.1855 68.7454 74.707 68.1524 70.161C67.9354 68.5114 68.1172 67.9498 68.698 67.6278C68.9403 67.4935 69.1756 67.3397 69.3399 67.1167C69.6339 66.7177 69.6888 66.1899 69.4983 65.7324C65.994 57.3183 67.2071 51.6243 70.4011 48.839C71.2204 48.1245 71.1933 45.7824 70.873 44.7436C70.4734 43.4475 71.8493 43.6101 73.1932 43.7937C76.225 44.2078 81.0438 44.7467 83.1698 44.3352C86.7754 43.605 92.1046 44.2778 94.9326 48.1492C95.7148 49.22 96.6743 50.1761 97.8112 50.8586C100.35 52.3825 101.422 54.4287 101.721 56.6505C102.277 60.7945 99.982 65.3316 99.4253 67.2506C99.396 67.3516 99.4013 67.4732 99.4505 67.5662C99.4724 67.6076 99.508 67.6251 99.5491 67.6477C100.124 67.9637 100.311 68.5051 100.11 70.161C99.8726 72.0373 99.7607 73.6183 99.5437 74.7813C99.1597 76.8399 96.6321 78.1307 95.5931 79.949C95.3835 80.3157 95.2165 80.7083 95.1595 81.1268C95.1487 81.2062 95.1375 81.2881 95.1214 81.3851C95.0175 82.0606 95.0694 83.4116 95.0694 90.8424C95.0694 91.7257 95.3292 92.6091 95.7969 93.2846C96.3054 94.0475 97.0131 94.7107 97.871 95.0796C97.9081 95.0956 97.9433 95.0918 97.9794 95.1099C98.0154 95.1279 98.0509 95.1635 98.0881 95.179C103.411 97.4 107.239 98.8486 110.035 99.9359C116.426 102.43 117.414 103.21 118.037 107.419Z" fill="url(#paint4_linear_3565_28554)"/>
</g>
<path d="M99.4344 67.4069C99.6423 66.2637 99.1226 64.8607 98.7069 63.8734C98.655 63.7175 98.551 63.5617 98.4991 63.3538C96.6804 59.7164 92.6792 58.2614 88.8339 58.0535C79.0128 57.5339 78.1295 59.4046 75.0636 56.5986C75.999 58.0535 76.1029 60.288 74.6479 63.094C73.6087 65.0686 71.6341 65.952 69.9193 66.5236C65.4504 56.3907 67.6848 50.0512 72.1017 47.8168C70.6468 44.5431 70.5428 43.3999 70.5428 43.3999C70.5428 43.3999 79.9482 44.9588 83.1699 44.3352C87.275 43.5038 93.6145 44.4911 95.9529 49.9473C99.8501 51.5062 101.357 53.9484 101.721 56.6505C102.344 60.8596 99.9021 65.5363 99.4344 67.4069Z" fill="#676767"/>
<path opacity="0.1" d="M112.529 111.056C114.919 107.419 113.984 103.989 110.139 99.936C116.426 102.43 117.465 103.21 118.037 107.367C118.297 109.289 116.79 111.056 114.815 111.056H112.529Z" fill="#B7B4AF"/>
<path d="M95.8489 93.2846V95.0514H73.1929V92.765C73.4527 92.1934 73.6086 91.5179 73.6086 90.8424V81.7488C73.4527 81.5409 73.2968 81.385 73.1929 81.1772V80.6576C73.6605 81.489 74.2841 82.2684 75.0635 82.892L82.1825 87.8805C83.8453 89.2835 86.2357 89.3354 87.9504 87.9844L94.6017 82.0086C94.8096 81.8008 95.0694 81.5929 95.2773 81.385C95.1733 82.0606 95.2253 83.4116 95.2253 90.8424C95.1733 91.7257 95.4332 92.5572 95.8489 93.2846Z" fill="url(#paint5_linear_3565_28554)"/>
<path d="M83.4624 132.363L83.4624 132.363L83.4555 132.361C75.1803 130.644 69.8701 122.524 71.588 114.247C73.3069 105.964 81.3502 100.584 89.6175 102.378L89.6205 102.379C92.5787 103.002 95.1578 104.481 97.3587 106.523C101.023 110.192 102.581 115.497 101.491 120.485C101.176 121.823 100.705 123.236 100.159 124.407C98.678 127.287 96.3401 129.549 93.4483 131.034C90.4739 132.521 86.9635 133.141 83.4624 132.363Z" fill="#DEDBD5" stroke="#F0F0F0"/>
<path d="M91.5781 115.999H87.9498V112.371C87.9498 111.646 87.3854 111 86.5791 111C85.8535 111 85.2084 111.565 85.2084 112.371V115.999H81.5802C80.8545 115.999 80.2095 116.564 80.2095 117.37C80.2095 118.176 80.7739 118.741 81.5802 118.741H85.2084V122.369C85.2084 123.095 85.7728 123.74 86.5791 123.74C87.3048 123.74 87.9498 123.175 87.9498 122.369V118.741H91.5781C92.3037 118.741 92.9487 118.176 92.9487 117.37C92.9487 116.564 92.3037 115.999 91.5781 115.999Z" fill="white"/>
<defs>
<filter id="filter0_d_3565_28554" x="83.8247" y="48.3234" width="78.3579" height="89.7057" filterUnits="userSpaceOnUse" color-interpolation-filters="sRGB">
<feFlood flood-opacity="0" result="BackgroundImageFix"/>
<feColorMatrix in="SourceAlpha" type="matrix" values="0 0 0 0 0 0 0 0 0 0 0 0 0 0 0 0 0 0 127 0" result="hardAlpha"/>
<feOffset dy="11"/>
<feGaussianBlur stdDeviation="11"/>
<feColorMatrix type="matrix" values="0 0 0 0 0.576471 0 0 0 0 0.501961 0 0 0 0 0.396078 0 0 0 0.37 0"/>
<feBlend mode="normal" in2="BackgroundImageFix" result="effect1_dropShadow_3565_28554"/>
<feBlend mode="normal" in="SourceGraphic" in2="effect1_dropShadow_3565_28554" result="shape"/>
</filter>
<filter id="filter1_d_3565_28554" x="11.1602" y="50.8469" width="74.5908" height="87.1815" filterUnits="userSpaceOnUse" color-interpolation-filters="sRGB">
<feFlood flood-opacity="0" result="BackgroundImageFix"/>
<feColorMatrix in="SourceAlpha" type="matrix" values="0 0 0 0 0 0 0 0 0 0 0 0 0 0 0 0 0 0 127 0" result="hardAlpha"/>
<feOffset dy="11"/>
<feGaussianBlur stdDeviation="11"/>
<feColorMatrix type="matrix" values="0 0 0 0 0.576471 0 0 0 0 0.501961 0 0 0 0 0.396078 0 0 0 0.37 0"/>
<feBlend mode="normal" in2="BackgroundImageFix" result="effect1_dropShadow_3565_28554"/>
<feBlend mode="normal" in="SourceGraphic" in2="effect1_dropShadow_3565_28554" result="shape"/>
</filter>
<filter id="filter2_d_3565_28554" x="28.6636" y="32.6702" width="111.403" height="111.438" filterUnits="userSpaceOnUse" color-interpolation-filters="sRGB">
<feFlood flood-opacity="0" result="BackgroundImageFix"/>
<feColorMatrix in="SourceAlpha" type="matrix" values="0 0 0 0 0 0 0 0 0 0 0 0 0 0 0 0 0 0 127 0" result="hardAlpha"/>
<feOffset dy="11"/>
<feGaussianBlur stdDeviation="11"/>
<feColorMatrix type="matrix" values="0 0 0 0 0.576471 0 0 0 0 0.501961 0 0 0 0 0.396078 0 0 0 0.37 0"/>
<feBlend mode="normal" in2="BackgroundImageFix" result="effect1_dropShadow_3565_28554"/>
<feBlend mode="normal" in="SourceGraphic" in2="effect1_dropShadow_3565_28554" result="shape"/>
</filter>
<linearGradient id="paint0_linear_3565_28554" x1="122.992" y1="58.0842" x2="122.992" y2="105.524" gradientUnits="userSpaceOnUse">
<stop stop-color="#FDFEFF"/>
<stop offset="0.9964" stop-color="#F5F2EC"/>
</linearGradient>
<linearGradient id="paint1_linear_3565_28554" x1="117.306" y1="93.8638" x2="117.306" y2="88.7467" gradientUnits="userSpaceOnUse">
<stop stop-color="white" stop-opacity="0"/>
<stop offset="0.9913" stop-color="#DAD6CF"/>
</linearGradient>
<linearGradient id="paint2_linear_3565_28554" x1="48.4457" y1="60.848" x2="48.4457" y2="105.494" gradientUnits="userSpaceOnUse">
<stop stop-color="#FDFEFF"/>
<stop offset="0.9964" stop-color="#F5F2EC"/>
</linearGradient>
<linearGradient id="paint3_linear_3565_28554" x1="51.2628" y1="95.6595" x2="51.2628" y2="91.9034" gradientUnits="userSpaceOnUse">
<stop stop-color="white" stop-opacity="0"/>
<stop offset="0.9913" stop-color="#DAD6CF"/>
</linearGradient>
<linearGradient id="paint4_linear_3565_28554" x1="84.343" y1="41.8337" x2="84.343" y2="111.838" gradientUnits="userSpaceOnUse">
<stop stop-color="#FDFEFF"/>
<stop offset="0.9964" stop-color="#F5F2EC"/>
</linearGradient>
<linearGradient id="paint5_linear_3565_28554" x1="84.4771" y1="94.6032" x2="84.4771" y2="87.0636" gradientUnits="userSpaceOnUse">
<stop stop-color="white" stop-opacity="0"/>
<stop offset="0.9913" stop-color="#DAD6CF"/>
</linearGradient>
</defs>
</svg>
