<svg xmlns="http://www.w3.org/2000/svg" width="231" height="160" fill="none" viewBox="0 0 231 160">
  <path fill="#242424" d="M116.413 144.8c34.312 0 62.13-27.801 62.13-62.2152 0-34.4143-27.94-62.2152-62.13-62.2152-34.3123 0-62.1298 27.8009-62.1298 62.2152 0 34.4142 27.8175 62.2152 62.1298 62.2152Z"/>
  <path fill="#5C5C5C" d="M174.499 41.8021c2.775 0 5.024-2.2481 5.024-5.0213s-2.249-5.0213-5.024-5.0213-5.024 2.2481-5.024 5.0213 2.249 5.0213 5.024 5.0213ZM181.852 22.2066c1.895 0 3.431-1.5353 3.431-3.4292 0-1.8938-1.536-3.4291-3.431-3.4291s-3.431 1.5353-3.431 3.4291c0 1.8939 1.536 3.4292 3.431 3.4292ZM57.5924 41.6795c1.895 0 3.4312-1.5353 3.4312-3.4291 0-1.8939-1.5362-3.4292-3.4312-3.4292-1.8951 0-3.4313 1.5353-3.4313 3.4292 0 1.8938 1.5362 3.4291 3.4313 3.4291ZM36.6365 107.814c3.5193 0 6.3722-2.852 6.3722-6.369 0-3.5172-2.8529-6.3685-6.3722-6.3685-3.5194 0-6.3723 2.8513-6.3723 6.3685 0 3.517 2.8529 6.369 6.3723 6.369Z"/>
  <mask id="mask0_3869_1833" width="125" height="137" x="54" y="8" maskUnits="userSpaceOnUse" style="mask-type:alpha">
    <path fill="#D9D9D9" d="M170.241 8H64.7776v40.2513c-6.5099 9.834-10.301 21.6334-10.301 34.3335 0 34.4142 27.8375 62.2152 62.1744 62.2152 34.337 0 62.175-27.801 62.175-62.2152 0-11.5196-3.133-22.2981-8.585-31.5411V8Z"/>
  </mask>
  <g mask="url(#mask0_3869_1833)">
    <path fill="url(#paint0_linear_3869_1833)" d="M69.0915 147.616 67.9878 18.2759c0-3.0334 2.4833-5.3773 5.5185-5.3773h86.6407c3.036 0 5.519 2.4818 5.519 5.3773V142.239c0 3.033-2.483 5.377-5.519 5.377H69.0915Z"/>
  </g>
  <ellipse cx="116.551" cy="82.3245" fill="#3A3A3A" rx="38.8291" ry="46.3181"/>
  <path stroke="#F5F2EC" stroke-linecap="round" stroke-linejoin="round" stroke-width="3.6" d="m101.451 64.9413 30.201 30.6631-14.505 14.7266v-57.09l14.505 14.7263-30.201 30.6631"/>
  <path fill="url(#paint1_linear_3869_1833)" d="m153.134 85.6653-22.396 35.6517c-2.704 4.305.394 9.898 5.482 9.898h44.792c5.088 0 8.186-5.593 5.482-9.898l-22.396-35.6517c-2.536-4.0378-8.427-4.0378-10.964 0Z"/>
  <path fill="#242424" d="M158.274 98.4818c-1.571 0-2.82 1.3201-2.732 2.8882l.679 12.123c.061 1.089.962 1.94 2.053 1.94 1.09 0 1.991-.851 2.052-1.94l.679-12.123c.088-1.5681-1.161-2.8882-2.731-2.8882Zm-.009 25.0412c1.468 0 2.615-1.186 2.615-2.672 0-1.487-1.147-2.653-2.615-2.653-1.451 0-2.597 1.166-2.597 2.653 0 1.486 1.146 2.672 2.597 2.672Z"/>
  <defs>
    <linearGradient id="paint0_linear_3869_1833" x1="116.859" x2="116.859" y1="150.733" y2="11.4462" gradientUnits="userSpaceOnUse">
      <stop stop-color="#5C5C5C"/>
      <stop offset=".9964" stop-color="#4D4D4D"/>
    </linearGradient>
    <linearGradient id="paint1_linear_3869_1833" x1="136.505" x2="180.669" y1="143.184" y2="98.9624" gradientUnits="userSpaceOnUse">
      <stop stop-color="#FAFAFA"/>
      <stop offset=".8281" stop-color="#F5F2EC"/>
    </linearGradient>
  </defs>
</svg>
