<svg xmlns="http://www.w3.org/2000/svg" width="231" height="161" fill="none" viewBox="0 0 231 161">
  <path fill="#ECEBEA" d="M116.3 144.8c34.267 0 62.048-27.801 62.048-62.2153S150.444 20.3695 116.3 20.3695c-34.2676 0-62.0485 27.8009-62.0485 62.2152 0 34.4143 27.7809 62.2153 62.0485 62.2153Z"/>
  <path fill="#E8DFD3" d="M174.309 41.8021c2.771 0 5.017-2.2481 5.017-5.0213s-2.246-5.0213-5.017-5.0213c-2.771 0-5.018 2.2481-5.018 5.0213s2.247 5.0213 5.018 5.0213ZM181.652 22.2069c1.892 0 3.427-1.5353 3.427-3.4292 0-1.8939-1.535-3.4292-3.427-3.4292-1.893 0-3.427 1.5353-3.427 3.4292 0 1.8939 1.534 3.4292 3.427 3.4292ZM57.5556 41.6797c1.8925 0 3.4267-1.5353 3.4267-3.4292 0-1.8939-1.5342-3.4292-3.4267-3.4292-1.8925 0-3.4267 1.5353-3.4267 3.4292 0 1.8939 1.5342 3.4292 3.4267 3.4292ZM36.6281 107.814c3.5146 0 6.3639-2.852 6.3639-6.369 0-3.5172-2.8493-6.3685-6.3639-6.3685-3.5147 0-6.3639 2.8513-6.3639 6.3685 0 3.517 2.8492 6.369 6.3639 6.369Z"/>
  <mask id="mask0_3869_1817" width="125" height="137" x="54" y="8" maskUnits="userSpaceOnUse" style="mask-type:alpha">
    <path fill="#D9D9D9" d="M170.057 8H64.7318v40.2513c-6.5013 9.834-10.2875 21.6334-10.2875 34.3335 0 34.4142 27.8009 62.2152 62.0927 62.2152 34.292 0 62.093-27.801 62.093-62.2152 0-11.5196-3.129-22.2981-8.573-31.5411V8Z"/>
  </mask>
  <g filter="url(#filter0_d_3869_1817)" mask="url(#mask0_3869_1817)">
    <path fill="url(#paint0_linear_3869_1817)" d="M73.5018 147.617c-2.4704 0-4.4788-1.992-4.4999-4.462L67.9377 18.276c0-3.0333 2.4801-5.3773 5.5113-5.3773h86.527c3.031 0 5.511 2.4818 5.511 5.3773v123.963c0 3.034-2.48 5.378-5.511 5.378H73.5018Z"/>
  </g>
  <ellipse cx="116.438" cy="82.3245" fill="url(#paint1_linear_3869_1817)" rx="38.778" ry="46.3181"/>
  <path stroke="#fff" stroke-linecap="round" stroke-linejoin="round" stroke-width="3.6" d="m101.357 64.9413 30.161 30.6631-14.485 14.7266v-57.09l14.485 14.7263-30.161 30.6631"/>
  <g filter="url(#filter1_d_3869_1817)">
    <path fill="url(#paint2_linear_3869_1817)" d="M153.188 85.3208 130.36 121.708c-2.594 4.134.378 9.507 5.259 9.507h45.656c4.881 0 7.852-5.373 5.259-9.507l-22.829-36.3872c-2.433-3.8784-8.084-3.8784-10.517 0Z"/>
  </g>
  <path fill="#fff" d="M158.105 98.4818c-1.569 0-2.816 1.3184-2.728 2.8852l.678 12.129c.061 1.087.961 1.937 2.05 1.937s1.988-.85 2.049-1.937l.679-12.129c.087-1.5668-1.159-2.8852-2.728-2.8852Zm-.009 25.0412c1.466 0 2.611-1.186 2.611-2.672 0-1.487-1.145-2.653-2.611-2.653-1.449 0-2.594 1.166-2.594 2.653 0 1.486 1.145 2.672 2.594 2.672Z"/>
  <defs>
    <linearGradient id="paint0_linear_3869_1817" x1="116.744" x2="116.744" y1="150.733" y2="11.4463" gradientUnits="userSpaceOnUse">
      <stop stop-color="#FDFEFF"/>
      <stop offset=".9964" stop-color="#F5F2EC"/>
    </linearGradient>
    <linearGradient id="paint1_linear_3869_1817" x1="115.719" x2="117.529" y1="21.9443" y2="91.1918" gradientUnits="userSpaceOnUse">
      <stop stop-color="#E1DAD0"/>
      <stop offset="1" stop-color="#CCC1B1"/>
    </linearGradient>
    <linearGradient id="paint2_linear_3869_1817" x1="185.188" x2="131.173" y1="82.4121" y2="82.6359" gradientUnits="userSpaceOnUse">
      <stop stop-color="#606060"/>
      <stop offset="1" stop-color="#7B7B7B"/>
    </linearGradient>
    <filter id="filter0_d_3869_1817" width="119.15" height="156.318" x="57.1375" y="8.3987" color-interpolation-filters="sRGB" filterUnits="userSpaceOnUse">
      <feFlood flood-opacity="0" result="BackgroundImageFix"/>
      <feColorMatrix in="SourceAlpha" result="hardAlpha" values="0 0 0 0 0 0 0 0 0 0 0 0 0 0 0 0 0 0 127 0"/>
      <feOffset dy="6.3"/>
      <feGaussianBlur stdDeviation="5.4"/>
      <feColorMatrix values="0 0 0 0 0.576471 0 0 0 0 0.501961 0 0 0 0 0.396078 0 0 0 0.17 0"/>
      <feBlend in2="BackgroundImageFix" result="effect1_dropShadow_3869_1817"/>
      <feBlend in="SourceGraphic" in2="effect1_dropShadow_3869_1817" result="shape"/>
    </filter>
    <filter id="filter1_d_3869_1817" width="97.6918" height="88.4031" x="109.601" y="72.512" color-interpolation-filters="sRGB" filterUnits="userSpaceOnUse">
      <feFlood flood-opacity="0" result="BackgroundImageFix"/>
      <feColorMatrix in="SourceAlpha" result="hardAlpha" values="0 0 0 0 0 0 0 0 0 0 0 0 0 0 0 0 0 0 127 0"/>
      <feOffset dy="9.9"/>
      <feGaussianBlur stdDeviation="9.9"/>
      <feColorMatrix values="0 0 0 0 0.482733 0 0 0 0 0.482733 0 0 0 0 0.482733 0 0 0 0.27 0"/>
      <feBlend in2="BackgroundImageFix" result="effect1_dropShadow_3869_1817"/>
      <feBlend in="SourceGraphic" in2="effect1_dropShadow_3869_1817" result="shape"/>
    </filter>
  </defs>
</svg>
