<svg width="32" height="32" viewBox="0 0 32 32" fill="none" xmlns="http://www.w3.org/2000/svg">
<path d="M27 18H21.5346L29 25.4652V15.5C29 8.04416 22.9558 2 15.5 2C12.6751 2 10.0529 2.86764 7.88529 4.35096L9.32874 5.79439C11.1118 4.65826 13.229 4 15.5 4C21.8513 4 27 9.14873 27 15.5V18Z" fill="#212121"/>
<path d="M4.94114 7.08725L2.06017 4.20635C1.66965 3.81583 1.66964 3.18267 2.06016 2.79214C2.45068 2.40161 3.08384 2.4016 3.47437 2.79212L29.4747 28.7918C29.8652 29.1823 29.8652 29.8155 29.4747 30.206C29.0842 30.5966 28.451 30.5966 28.0605 30.206L27.0575 29.2031C26.3313 29.7056 25.45 30 24.5 30H20C19.4477 30 19 29.5523 19 29V21.1458L6.36592 8.512C4.88188 10.4489 4 12.8714 4 15.5V18H11C11.5523 18 12 18.4477 12 19V29C12 29.5523 11.5523 30 11 30H6.5C4.01472 30 2 27.9853 2 25.5V15.5C2 12.3188 3.10032 9.39462 4.94114 7.08725Z" fill="#212121"/>
</svg>
