<svg width="20" height="20" viewBox="0 0 20 20" fill="none" xmlns="http://www.w3.org/2000/svg">
<path d="M4.00055 4.70773C2.75549 6.11807 2 7.97081 2 10V16C2 17.1046 2.89543 18 4 18H6.5C6.77614 18 7 17.7761 7 17.5V11.5C7 11.2239 6.77614 11 6.5 11H3V10C3 8.24698 3.64439 6.64447 4.70923 5.41641L13 13.7072V17.5C13 17.7761 13.2239 18 13.5 18H16C16.3709 18 16.7182 17.899 17.0159 17.7231L17.1464 17.8536C17.3417 18.0489 17.6583 18.0489 17.8536 17.8536C18.0488 17.6584 18.0488 17.3418 17.8536 17.1465L2.85355 2.14652C2.65829 1.95126 2.34171 1.95126 2.14645 2.14652C1.95118 2.34178 1.95118 2.65837 2.14645 2.85363L4.00055 4.70773Z" fill="#212121"/>
<path d="M13.5 11C13.3929 11 13.2937 11.0337 13.2123 11.091L18 15.8787V10C18 5.58172 14.4183 2 10 2C8.33295 2 6.78499 2.5099 5.50358 3.38224L6.22528 4.10394C7.31443 3.4052 8.6099 3 10 3C13.866 3 17 6.13401 17 10V11H13.5Z" fill="#212121"/>
</svg>
