<svg width="32" height="32" viewBox="0 0 32 32" fill="none" xmlns="http://www.w3.org/2000/svg">
<path d="M5.27277 6.68752C3.23324 9.05234 2 12.1321 2 15.5V25.5C2 27.9853 4.01472 30 6.5 30H11C11.5523 30 12 29.5523 12 29V19C12 18.4477 11.5523 18 11 18H4V15.5C4 12.6845 5.01177 10.1054 6.69155 8.10627L19 20.4144V29C19 29.5523 19.4477 30 20 30H24.5C25.6372 30 26.6759 29.5781 27.4682 28.8824L28.2929 29.7071C28.6834 30.0976 29.3166 30.0976 29.7071 29.7071C30.0976 29.3166 30.0976 28.6834 29.7071 28.2929L3.70679 2.29319C3.31626 1.90267 2.6831 1.90268 2.29258 2.29321C1.90206 2.68374 1.90207 3.3169 2.2926 3.70742L5.27277 6.68752ZM26.0485 27.4628C25.6227 27.7992 25.0848 28 24.5 28H21V22.4144L26.0485 27.4628ZM4 20H10V28H6.5C5.11929 28 4 26.8807 4 25.5V20Z" fill="#212121"/>
<path d="M27 18H21.5346L23.5347 20H27V23.4652L29 25.4652V15.5C29 8.04416 22.9558 2 15.5 2C12.6751 2 10.0529 2.86764 7.88529 4.35096L9.32874 5.79439C11.1118 4.65826 13.229 4 15.5 4C21.8513 4 27 9.14873 27 15.5V18Z" fill="#212121"/>
</svg>
