<svg width="24" height="24" viewBox="0 0 24 24" fill="none" xmlns="http://www.w3.org/2000/svg">
<path d="M17.1819 14H20.5V12C20.5 7.30558 16.6944 3.5 12 3.5C10.4699 3.5 9.03421 3.9043 7.79396 4.6119L6.70033 3.51825C8.23683 2.55616 10.0535 2 12 2C17.5228 2 22 6.47715 22 12V18.8182L17.1819 14Z" fill="#212121"/>
<path d="M4.41832 5.47914C2.91111 7.22995 2 9.50857 2 12V19C2 20.6569 3.34315 22 5 22H8C8.55228 22 9 21.5523 9 21V15C9 14.4477 8.55228 14 8 14H3.5V12C3.5 9.92287 4.24505 8.01976 5.48248 6.54332L15 16.061V21C15 21.5523 15.4477 22 16 22H19C19.5562 22 20.0771 21.8486 20.5237 21.5848L20.7194 21.7806C21.0123 22.0735 21.4872 22.0735 21.7801 21.7806C22.073 21.4877 22.073 21.0128 21.7801 20.7199L3.28034 2.21979C2.98745 1.92689 2.51257 1.92689 2.21968 2.21978C1.92678 2.51267 1.92677 2.98754 2.21966 3.28044L4.41832 5.47914Z" fill="#212121"/>
</svg>
