<svg width="28" height="28" viewBox="0 0 28 28" fill="none" xmlns="http://www.w3.org/2000/svg">
<path d="M8.70022 5.51831L7.25533 4.07339C9.17745 2.76486 11.4994 2 14 2C20.6274 2 26 7.37258 26 14V22C26 22.2558 25.976 22.506 25.9301 22.7485L19.1817 16H24V14C24 8.47715 19.5228 4 14 4C12.0534 4 10.2367 4.55619 8.70022 5.51831Z" fill="#212121"/>
<path d="M5.0008 6.06162C3.13323 8.17713 2 10.9562 2 14V22C2 24.2091 3.79086 26 6 26H9C9.55228 26 10 25.5523 10 25V17C10 16.4477 9.55228 16 9 16H4V14C4 11.5086 4.91111 9.22996 6.41831 7.47915L18 19.061V25C18 25.5523 18.4477 26 19 26H22C22.8334 26 23.6073 25.7451 24.2479 25.3091L24.7194 25.7806C25.0123 26.0735 25.4872 26.0735 25.7801 25.7806C26.073 25.4877 26.073 25.0128 25.7801 24.7199L3.28033 2.21979C2.98744 1.92689 2.51257 1.92689 2.21967 2.21978C1.92678 2.51267 1.92677 2.98754 2.21967 3.28044L5.0008 6.06162Z" fill="#212121"/>
</svg>
