<svg width="28" height="28" viewBox="0 0 28 28" fill="none" xmlns="http://www.w3.org/2000/svg">
<path d="M7.25534 4.07338L8.33788 5.15593C9.97161 4.10781 11.9148 3.5 14 3.5C19.799 3.5 24.5 8.20101 24.5 14V16H19.1818L20.6817 17.5H24.5V21.3183L25.9301 22.7484C25.976 22.506 26 22.2558 26 22V14C26 7.37258 20.6274 2 14 2C11.4994 2 9.17746 2.76486 7.25534 4.07338Z" fill="#212121"/>
<path d="M5.00085 6.06156C3.13326 8.17708 2 10.9562 2 14V22C2 24.2091 3.79086 26 6 26H9C9.55228 26 10 25.5523 10 25V17C10 16.4477 9.55228 16 9 16H3.5V14C3.5 11.3705 4.4666 8.96668 6.06387 7.12459L18 19.0609V25L18.0067 25.1166C18.0645 25.614 18.4872 26 19 26H22L22.1996 25.9951C22.9569 25.9579 23.6588 25.7101 24.248 25.309L24.7194 25.7805C25.0123 26.0734 25.4872 26.0734 25.7801 25.7805C26.073 25.4876 26.073 25.0127 25.7801 24.7198L3.28033 2.21967C2.98744 1.92678 2.51257 1.92677 2.21967 2.21967C1.92678 2.51256 1.92677 2.98743 2.21967 3.28033L5.00085 6.06156ZM22 24.5H19.5V20.5609L23.1562 24.2172C22.8104 24.3978 22.4171 24.5 22 24.5ZM3.5 17.5H8.5V24.5H6C4.61929 24.5 3.5 23.3807 3.5 22V17.5Z" fill="#212121"/>
</svg>
