<svg width="48" height="48" viewBox="0 0 48 48" fill="none" xmlns="http://www.w3.org/2000/svg">
<path d="M41.3353 43.1031L41.8661 43.6339C42.3543 44.122 43.1457 44.122 43.6339 43.6339C44.122 43.1457 44.122 42.3543 43.6339 41.8661L6.13388 4.36612C5.64573 3.87796 4.85427 3.87796 4.36612 4.36612C3.87796 4.85427 3.87796 5.64573 4.36612 6.13388L9.00146 10.7693C5.88877 14.2952 4 18.927 4 24.0001V38.2501C4 41.4257 6.57436 44.0001 9.75 44.0001H15.75C16.4404 44.0001 17 43.4404 17 42.7501V29.2501C17 28.5597 16.4404 28.0001 15.75 28.0001H6.5V24.0001C6.5 19.6175 8.11102 15.6111 10.7732 12.541L31 32.7678V42.7501C31 43.4404 31.5596 44.0001 32.25 44.0001H38.25C39.3853 44.0001 40.4438 43.671 41.3353 43.1031Z" fill="#212121"/>
<path d="M33.3033 28.0001H41.5V24.0001C41.5 14.3351 33.665 6.50006 24 6.50006C20.5247 6.50006 17.2861 7.51307 14.5632 9.25992L12.7589 7.45568C15.9625 5.27481 19.8324 4.00006 24 4.00006C35.0457 4.00006 44 12.9544 44 24.0001V38.2501C44 38.395 43.9946 38.5386 43.9841 38.6809L33.3033 28.0001Z" fill="#212121"/>
</svg>
