<svg width="20" height="20" viewBox="0 0 20 20" fill="none" xmlns="http://www.w3.org/2000/svg">
<path d="M13.5 11C13.3929 11 13.2937 11.0337 13.2123 11.091L14.1213 12H17V14.8787L18 15.8787V10C18 5.58172 14.4183 2 10 2C8.33295 2 6.78499 2.5099 5.50358 3.38224L6.22528 4.10394C7.31443 3.4052 8.6099 3 10 3C13.866 3 17 6.13401 17 10V11H13.5Z" fill="#212121"/>
<path d="M4.00058 4.70769C2.75551 6.11804 2 7.97079 2 10V16C2 17.1046 2.89543 18 4 18H6.5C6.77614 18 7 17.7761 7 17.5V11.5C7 11.2239 6.77614 11 6.5 11H3V10C3 8.24696 3.64441 6.64443 4.70926 5.41637L13 13.7071V17.5C13 17.7761 13.2239 18 13.5 18H16C16.3709 18 16.7182 17.899 17.016 17.7231L17.1464 17.8536C17.3417 18.0488 17.6583 18.0488 17.8536 17.8536C18.0488 17.6583 18.0488 17.3417 17.8536 17.1464L2.85355 2.14645C2.65829 1.95118 2.34171 1.95118 2.14645 2.14645C1.95118 2.34171 1.95118 2.65829 2.14645 2.85355L4.00058 4.70769ZM16 17H14V14.7071L16.259 16.9661C16.1764 16.9882 16.0896 17 16 17ZM3 12H6V17H4C3.44772 17 3 16.5523 3 16V12Z" fill="#212121"/>
</svg>
