<svg width="24" height="24" viewBox="0 0 24 24" fill="none" xmlns="http://www.w3.org/2000/svg">
<path d="M20.5 14H17.1817L18.6817 15.5H20.5V17.3183L22 18.8183V12C22 6.47715 17.5228 2 12 2C10.0534 2 8.23677 2.55618 6.70025 3.51829L7.79388 4.61194C9.03415 3.90432 10.4699 3.5 12 3.5C16.6944 3.5 20.5 7.30558 20.5 12V14Z" fill="#212121"/>
<path d="M4.41837 5.47908C2.91113 7.22989 2 9.50854 2 12V19C2 20.6569 3.34315 22 5 22H8C8.55228 22 9 21.5523 9 21V15C9 14.4477 8.55228 14 8 14H3.5V12C3.5 9.92284 4.24507 8.0197 5.48253 6.54326L15 16.0609V21L15.0067 21.1166C15.0645 21.614 15.4872 22 16 22H19L19.1763 21.9949C19.6662 21.9665 20.1247 21.8205 20.5237 21.5848L20.7194 21.7805C21.0123 22.0734 21.4872 22.0734 21.7801 21.7805C22.073 21.4876 22.073 21.0127 21.7801 20.7198L3.28034 2.21968C2.98745 1.92678 2.51257 1.92677 2.21968 2.21966C1.92678 2.51255 1.92677 2.98743 2.21966 3.28032L4.41837 5.47908ZM19.3883 20.4493C19.2644 20.4824 19.1343 20.5 19 20.5H16.5V17.5609L19.3883 20.4493ZM7.5 15.5V20.5H5C4.17157 20.5 3.5 19.8284 3.5 19V15.5H7.5Z" fill="#212121"/>
</svg>
