<svg width="20" height="20" viewBox="0 0 20 20" fill="none" xmlns="http://www.w3.org/2000/svg">
<path d="M2.45534 7.33338C3.55334 4.22687 6.51597 2 10 2C13.484 2 16.4467 4.22687 17.5447 7.33338C17.8397 8.1681 18 9.06587 18 10C18 10.9341 17.8397 11.8319 17.5447 12.6666C16.4467 15.7731 13.484 18 10 18C6.51597 18 3.55334 15.7731 2.45534 12.6666C2.16031 11.8319 2 10.9341 2 10C2 9.06587 2.16031 8.1681 2.45534 7.33338ZM6.00895 7.91835C6.13673 7.67355 6.04187 7.37151 5.79707 7.24373C5.55227 7.11595 5.25023 7.21082 5.12245 7.45562C4.29257 9.04551 4.29257 10.9545 5.12245 12.5444C5.25023 12.7892 5.55227 12.884 5.79707 12.7563C6.04187 12.6285 6.13673 12.3265 6.00895 12.0817C5.3304 10.7817 5.3304 9.21832 6.00895 7.91835ZM7.45566 5.12241C7.21086 5.25019 7.11599 5.55223 7.24377 5.79703C7.37155 6.04183 7.67359 6.13669 7.91839 6.00891C9.21835 5.33036 10.7817 5.33036 12.0817 6.00891C12.3265 6.13669 12.6285 6.04183 12.7563 5.79703C12.8841 5.55223 12.7892 5.25019 12.5444 5.12241C10.9545 4.29253 9.04555 4.29253 7.45566 5.12241ZM7.91839 13.9911C7.67359 13.8633 7.37155 13.9582 7.24377 14.203C7.11599 14.4478 7.21086 14.7498 7.45566 14.8776C9.04555 15.7075 10.9545 15.7075 12.5444 14.8776C12.7892 14.7498 12.8841 14.4478 12.7563 14.203C12.6285 13.9582 12.3265 13.8633 12.0817 13.9911C10.7817 14.6696 9.21836 14.6696 7.91839 13.9911ZM14.8776 7.45562C14.7498 7.21082 14.4478 7.11595 14.203 7.24373C13.9582 7.37151 13.8633 7.67355 13.9911 7.91835C14.6697 9.21832 14.6697 10.7817 13.9911 12.0817C13.8633 12.3265 13.9582 12.6285 14.203 12.7563C14.4478 12.884 14.7498 12.7892 14.8776 12.5444C15.7075 10.9545 15.7075 9.04551 14.8776 7.45562Z" fill="#212121"/>
</svg>
