<svg width="24" height="24" viewBox="0 0 24 24" fill="none" xmlns="http://www.w3.org/2000/svg">
<path d="M3.5 12C3.5 7.30558 7.30558 3.5 12 3.5C16.6944 3.5 20.5 7.30558 20.5 12C20.5 16.6944 16.6944 20.5 12 20.5C7.30558 20.5 3.5 16.6944 3.5 12ZM12 2C6.47715 2 2 6.47715 2 12C2 17.5228 6.47715 22 12 22C17.5228 22 22 17.5228 22 12C22 6.47715 17.5228 2 12 2ZM7.99619 9.94263C8.18561 9.57426 8.04054 9.12209 7.67217 8.93267C7.3038 8.74326 6.85163 8.88833 6.66222 9.25669C5.77917 10.974 5.77917 13.026 6.66222 14.7433C6.85163 15.1117 7.3038 15.2567 7.67217 15.0673C8.04054 14.8779 8.18561 14.4257 7.99619 14.0574C7.33451 12.7706 7.33451 11.2294 7.99619 9.94263ZM9.25663 6.66228C8.88826 6.8517 8.74319 7.30387 8.93261 7.67224C9.12202 8.04061 9.5742 8.18567 9.94256 7.99626C11.2294 7.33458 12.7705 7.33458 14.0573 7.99626C14.4257 8.18567 14.8778 8.04061 15.0673 7.67224C15.2567 7.30387 15.1116 6.8517 14.7432 6.66228C13.0259 5.77924 10.9739 5.77924 9.25663 6.66228ZM17.3377 9.25669C17.1482 8.88833 16.6961 8.74326 16.3277 8.93267C15.9593 9.12209 15.8143 9.57426 16.0037 9.94263C16.6654 11.2294 16.6654 12.7706 16.0037 14.0574C15.8143 14.4257 15.9593 14.8779 16.3277 15.0673C16.6961 15.2567 17.1482 15.1117 17.3377 14.7433C18.2207 13.026 18.2207 10.974 17.3377 9.25669ZM9.94256 16.0037C9.5742 15.8143 9.12202 15.9594 8.93261 16.3278C8.74319 16.6961 8.88826 17.1483 9.25663 17.3377C10.9739 18.2208 13.0259 18.2208 14.7432 17.3377C15.1116 17.1483 15.2567 16.6961 15.0673 16.3278C14.8778 15.9594 14.4257 15.8143 14.0573 16.0037C12.7705 16.6654 11.2294 16.6654 9.94256 16.0037Z" fill="#212121"/>
</svg>
