<svg width="24" height="24" viewBox="0 0 24 24" fill="none" xmlns="http://www.w3.org/2000/svg">
<path d="M3.66712 6.46981C5.45739 3.77721 8.52099 2 12 2C15.479 2 18.5426 3.77721 20.3329 6.46981C21.3863 8.05409 22 9.95651 22 12C22 14.0435 21.3863 15.9459 20.3329 17.5302C18.5426 20.2228 15.479 22 12 22C8.52099 22 5.45739 20.2228 3.66712 17.5302C2.61375 15.9459 2 14.0435 2 12C2 9.95651 2.61375 8.05409 3.66712 6.46981ZM7.55319 9.71067C7.74289 9.34245 7.59816 8.89016 7.22993 8.70047C6.86171 8.51078 6.40943 8.6555 6.21973 9.02373C5.25994 10.8868 5.26016 13.1146 6.2204 14.9775C6.41018 15.3457 6.86249 15.4903 7.23067 15.3005C7.59885 15.1108 7.74348 14.6584 7.5537 14.2903C6.81568 12.8584 6.81551 11.1426 7.55319 9.71067ZM9.02382 6.21965C8.65559 6.40934 8.51086 6.86162 8.70056 7.22985C8.89025 7.59807 9.34253 7.7428 9.71076 7.5531C11.1427 6.81542 12.8585 6.81559 14.2903 7.55361C14.6585 7.74339 15.1108 7.59877 15.3006 7.23058C15.4904 6.8624 15.3458 6.41009 14.9776 6.22031C13.1147 5.26007 10.8869 5.25985 9.02382 6.21965ZM9.70977 16.4463C9.34159 16.2565 8.88927 16.4012 8.69949 16.7693C8.50972 17.1375 8.65434 17.5898 9.02252 17.7796C10.8855 18.7399 13.1132 18.7401 14.9763 17.7803C15.3445 17.5906 15.4892 17.1383 15.2996 16.7701C15.1099 16.4019 14.6576 16.2571 14.2894 16.4468C12.8574 17.1845 11.1416 17.1843 9.70977 16.4463ZM17.7797 9.02243C17.5899 8.65425 17.1376 8.50963 16.7694 8.6994C16.4013 8.88918 16.2566 9.3415 16.4464 9.70968C17.1844 11.1415 17.1846 12.8573 16.4469 14.2893C16.2572 14.6575 16.402 15.1098 16.7702 15.2995C17.1384 15.4892 17.5907 15.3444 17.7804 14.9762C18.7402 13.1131 18.7399 10.8854 17.7797 9.02243Z" fill="#212121"/>
</svg>
