<svg width="20" height="20" viewBox="0 0 20 20" fill="none" xmlns="http://www.w3.org/2000/svg">
<path d="M3.39818 7.66662C4.35937 4.94717 6.95294 3 10 3C13.0471 3 15.6406 4.94717 16.6018 7.66662C16.8595 8.3958 17 9.18096 17 10C17 10.819 16.8595 11.6042 16.6018 12.3334C15.6406 15.0528 13.0471 17 10 17C6.95294 17 4.35937 15.0528 3.39818 12.3334C3.14046 11.6042 3 10.819 3 10C3 9.18096 3.14046 8.3958 3.39818 7.66662ZM10 2C6.51597 2 3.55334 4.22687 2.45534 7.33338C2.16031 8.1681 2 9.06587 2 10C2 10.9341 2.16031 11.8319 2.45534 12.6666C3.55334 15.7731 6.51597 18 10 18C13.484 18 16.4467 15.7731 17.5447 12.6666C17.8397 11.8319 18 10.9341 18 10C18 9.06587 17.8397 8.1681 17.5447 7.33338C16.4467 4.22687 13.484 2 10 2ZM6.38972 8.27526C6.50875 8.02609 6.40325 7.72761 6.15407 7.60858C5.9049 7.48955 5.60642 7.59505 5.48739 7.84422C4.83771 9.2042 4.83771 10.7958 5.48739 12.1558C5.60642 12.405 5.9049 12.5105 6.15407 12.3914C6.40325 12.2724 6.50875 11.9739 6.38972 11.7247C5.87027 10.6374 5.87027 9.36264 6.38972 8.27526ZM7.84435 5.48726C7.59518 5.60629 7.48968 5.90477 7.60871 6.15394C7.72774 6.40312 8.02622 6.50862 8.27539 6.38958C9.36277 5.87014 10.6375 5.87014 11.7249 6.38959C11.974 6.50862 12.2725 6.40312 12.3916 6.15394C12.5106 5.90477 12.4051 5.60629 12.1559 5.48726C10.7959 4.83758 9.20433 4.83758 7.84435 5.48726ZM8.27539 13.6104C8.02622 13.4914 7.72774 13.5969 7.60871 13.8461C7.48968 14.0952 7.59518 14.3937 7.84435 14.5127C9.20433 15.1624 10.7959 15.1624 12.1559 14.5127C12.4051 14.3937 12.5106 14.0952 12.3916 13.8461C12.2725 13.5969 11.974 13.4914 11.7249 13.6104C10.6375 14.1299 9.36277 14.1299 8.27539 13.6104ZM14.5129 7.84422C14.3938 7.59505 14.0954 7.48955 13.8462 7.60858C13.597 7.72761 13.4915 8.02609 13.6105 8.27526C14.13 9.36264 14.13 10.6374 13.6105 11.7247C13.4915 11.9739 13.597 12.2724 13.8462 12.3914C14.0954 12.5105 14.3938 12.405 14.5129 12.1558C15.1625 10.7958 15.1625 9.2042 14.5129 7.84422Z" fill="#212121"/>
</svg>
