<svg width="16" height="16" viewBox="0 0 16 16" fill="none" xmlns="http://www.w3.org/2000/svg">
<path d="M4.84757 5.6384C4.29103 5.668 3.67087 5.81689 3.1398 6.0218C2.83976 6.13758 2.55314 6.27693 2.31244 6.43429C2.08312 6.58422 1.85112 6.77896 1.71347 7.02314C1.46178 7.4573 1.43428 7.95378 1.62235 8.43556C1.80491 8.90321 2.1805 9.33747 2.70372 9.72139C3.74926 10.4886 5.50023 11.1413 8.02599 11.4851C9.96264 11.7488 11.5251 11.5621 12.6265 11.1524C13.1758 10.948 13.6275 10.6816 13.9504 10.3714C14.2691 10.0654 14.5 9.67739 14.5 9.24325C14.5 8.89248 14.3269 8.57218 14.1414 8.32238C13.9472 8.06098 13.6891 7.80996 13.4154 7.58634C12.922 7.18319 12.3192 6.82188 11.8153 6.62546C11.5183 5.07333 10.3112 3.80639 8.68899 3.5784C7.06962 3.35081 5.56244 4.23251 4.84757 5.6384ZM8.14122 7.47603C7.10465 7.33035 6.19183 7.04248 5.51106 6.6932C5.87347 5.29102 7.18259 4.37652 8.54982 4.56867C9.91705 4.76082 10.9234 6.00074 10.8853 7.4485C10.1346 7.5966 9.17778 7.62171 8.14122 7.47603ZM4.48851 6.6835C4.47578 6.74887 4.46459 6.81487 4.45501 6.88147L4.40786 7.20905L4.69097 7.38044C5.53232 7.88976 6.70193 8.28358 8.00205 8.4663C9.30216 8.64902 10.535 8.59284 11.4842 8.33516L11.8035 8.24845L11.8485 7.92056C11.8563 7.86411 11.8628 7.80776 11.8681 7.75154C12.167 7.91124 12.4931 8.12413 12.7827 8.36071C13.017 8.55215 13.2093 8.74468 13.3386 8.91871C13.4765 9.10435 13.5 9.21138 13.5 9.24325C13.5 9.31036 13.461 9.45504 13.2578 9.65018C13.0589 9.84117 12.7367 10.0444 12.2778 10.2151C11.3629 10.5555 9.97212 10.7408 8.16087 10.4943C5.71738 10.1616 4.15205 9.54379 3.29531 8.91515C2.86739 8.60115 2.64534 8.30619 2.55389 8.07193C2.46853 7.85325 2.48993 7.67667 2.57953 7.52308L2.58435 7.51463C2.60596 7.47587 2.68223 7.38729 2.85966 7.27129C3.02712 7.16181 3.24711 7.05226 3.49979 6.95476C3.8176 6.83213 4.16358 6.73748 4.48851 6.6835Z" fill="#212121"/>
<path d="M10.5522 9.78098C10.5522 10.226 10.1914 10.5868 9.7464 10.5868C9.30139 10.5868 8.94063 10.226 8.94063 9.78098C8.94063 9.33596 9.30139 8.9752 9.7464 8.9752C10.1914 8.9752 10.5522 9.33596 10.5522 9.78098Z" fill="#212121"/>
<path d="M7.00684 9.13636C7.00684 9.58138 6.64608 9.94213 6.20106 9.94213C5.75605 9.94213 5.39529 9.58138 5.39529 9.13636C5.39529 8.69134 5.75605 8.33058 6.20106 8.33058C6.64608 8.33058 7.00684 8.69134 7.00684 9.13636Z" fill="#212121"/>
<path d="M4.42825 8.00828C4.42825 8.36429 4.13965 8.6529 3.78363 8.6529C3.42762 8.6529 3.13901 8.36429 3.13901 8.00828C3.13901 7.65226 3.42762 7.36366 3.78363 7.36366C4.13965 7.36366 4.42825 7.65226 4.42825 8.00828Z" fill="#212121"/>
<path d="M12.8084 9.13636C12.8084 9.40337 12.5919 9.61982 12.3249 9.61982C12.0579 9.61982 11.8414 9.40337 11.8414 9.13636C11.8414 8.86935 12.0579 8.65289 12.3249 8.65289C12.5919 8.65289 12.8084 8.86935 12.8084 9.13636Z" fill="#212121"/>
</svg>
