<svg width="48" height="48" viewBox="0 0 48 48" fill="none" xmlns="http://www.w3.org/2000/svg">
<path d="M13 24.9999C13 26.1045 12.1046 26.9999 11 26.9999C9.89543 26.9999 9 26.1045 9 24.9999C9 23.8953 9.89543 22.9999 11 22.9999C12.1046 22.9999 13 23.8953 13 24.9999Z" fill="#212121"/>
<path d="M18.5 30.9999C19.8807 30.9999 21 29.8806 21 28.4999C21 27.1192 19.8807 25.9999 18.5 25.9999C17.1193 25.9999 16 27.1192 16 28.4999C16 29.8806 17.1193 30.9999 18.5 30.9999Z" fill="#212121"/>
<path d="M29.5 32.9999C30.8807 32.9999 32 31.8806 32 30.4999C32 29.1192 30.8807 27.9999 29.5 27.9999C28.1193 27.9999 27 29.1192 27 30.4999C27 31.8806 28.1193 32.9999 29.5 32.9999Z" fill="#212121"/>
<path d="M37.5 29.9999C38.3284 29.9999 39 29.3283 39 28.4999C39 27.6715 38.3284 26.9999 37.5 26.9999C36.6716 26.9999 36 27.6715 36 28.4999C36 29.3283 36.6716 29.9999 37.5 29.9999Z" fill="#212121"/>
<path d="M9.11089 19.1178C10.7926 18.4689 12.7602 18.0067 14.4912 17.94C16.6215 13.5937 21.232 10.8591 26.1775 11.5541C31.1288 12.25 34.8099 16.158 35.6539 20.9309C37.2101 21.5102 39.1286 22.646 40.6929 23.9241C41.5302 24.6083 42.3111 25.3694 42.8941 26.1541C43.4554 26.9098 43.9472 27.8393 43.9472 28.8316C43.9472 30.0679 43.2888 31.1985 42.3349 32.1146C41.3702 33.041 40.0079 33.8484 38.3308 34.4724C34.9699 35.7228 30.1738 36.3015 24.203 35.4887C16.3913 34.4253 11.0147 32.4106 7.82769 30.0721C6.23306 28.902 5.11401 27.5967 4.57507 26.2161C4.02237 24.8002 4.10602 23.3557 4.83868 22.093C5.23081 21.3964 5.90427 20.8238 6.60035 20.3687C7.32508 19.8949 8.19425 19.4715 9.11089 19.1178ZM16.0106 21.0775C18.1806 22.2298 21.1287 23.1762 24.4779 23.6469C27.8272 24.1176 30.9219 24.0205 33.3254 23.511C33.5668 18.7756 30.3109 14.6596 25.8295 14.0298C21.3481 13.4 17.0838 16.4591 16.0106 21.0775ZM13.3812 21.5468C13.4309 21.2015 13.4948 20.8615 13.5722 20.5274C12.4174 20.6806 11.1542 21.009 10.0109 21.4502C9.21263 21.7582 8.51001 22.107 7.96838 22.4612C7.40184 22.8315 7.11786 23.1388 7.01594 23.3216L7.01002 23.3322L7.00389 23.3427C6.67642 23.9041 6.60796 24.5488 6.90392 25.307C7.2151 26.1041 7.95028 27.0612 9.30666 28.0565C12.0217 30.0487 16.9342 31.9761 24.5402 33.0115C30.1976 33.7817 34.5643 33.2063 37.4591 32.1293C38.91 31.5895 39.9488 30.9399 40.6032 30.3114C41.2685 29.6725 41.4472 29.1504 41.4472 28.8316C41.4472 28.6366 41.3294 28.2402 40.8872 27.6449C40.4665 27.0787 39.8499 26.4637 39.1111 25.8601C38.068 25.0078 36.8711 24.2499 35.8171 23.7275C35.7987 24.0458 35.7676 24.3658 35.7236 24.6868L35.6112 25.5065L34.8127 25.7233C31.9159 26.5098 28.1332 26.6852 24.13 26.1226C20.1268 25.56 16.539 24.3487 13.9712 22.7942L13.2634 22.3658L13.3812 21.5468Z" fill="#212121"/>
</svg>
