<svg width="32" height="32" viewBox="0 0 32 32" fill="none" xmlns="http://www.w3.org/2000/svg">
<path d="M5.03421 12.4228C6.14089 11.9957 7.42135 11.6801 8.58959 11.5922C10.1765 8.35579 13.6133 6.30959 17.3153 6.82987C21.0266 7.35145 23.7707 10.279 24.3951 13.8394C25.4592 14.2839 26.698 15.0385 27.7237 15.8766C28.3267 16.3692 28.8921 16.9197 29.3158 17.4901C29.7223 18.0373 30.0898 18.7247 30.0898 19.468C30.0898 20.3911 29.5986 21.2254 28.9043 21.8923C28.2012 22.5674 27.2133 23.1515 26.0045 23.6012C23.5813 24.5028 20.1334 24.9167 15.8504 24.3337C10.2556 23.5721 6.39107 22.1277 4.09202 20.4407C2.94159 19.5966 2.12506 18.6483 1.73 17.6363C1.32392 16.596 1.38432 15.5293 1.92523 14.5966C2.21795 14.077 2.71587 13.6564 3.21906 13.3274C3.74508 12.9835 4.37369 12.6776 5.03421 12.4228ZM10.4103 13.806C11.8929 14.5492 13.8634 15.163 16.1 15.4774C18.3365 15.7917 20.3999 15.7448 22.0299 15.439C22.0585 12.3421 19.889 9.71614 16.9674 9.30554C14.0458 8.89493 11.2365 10.8212 10.4103 13.806ZM6.42331 18.1582C7.21318 18.1582 7.8535 17.5179 7.8535 16.728C7.8535 15.9382 7.21318 15.2978 6.42331 15.2978C5.63344 15.2978 4.99312 15.9382 4.99312 16.728C4.99312 17.5179 5.63344 18.1582 6.42331 18.1582ZM13.5743 19.2309C13.5743 18.2435 12.7739 17.4431 11.7865 17.4431C10.7992 17.4431 9.99879 18.2435 9.99879 19.2309C9.99879 20.2182 10.7992 21.0186 11.7865 21.0186C12.7739 21.0186 13.5743 20.2182 13.5743 19.2309ZM21.4404 20.6611C21.4404 19.6737 20.64 18.8733 19.6526 18.8733C18.6653 18.8733 17.8649 19.6737 17.8649 20.6611C17.8649 21.6484 18.6653 22.4488 19.6526 22.4488C20.64 22.4488 21.4404 21.6484 21.4404 20.6611ZM26.446 19.2309C26.446 18.6385 25.9658 18.1582 25.3734 18.1582C24.781 18.1582 24.3007 18.6385 24.3007 19.2309C24.3007 19.8233 24.781 20.3035 25.3734 20.3035C25.9658 20.3035 26.446 19.8233 26.446 19.2309Z" fill="#212121"/>
</svg>
