<svg width="32" height="32" viewBox="0 0 32 32" fill="none" xmlns="http://www.w3.org/2000/svg">
<path d="M8.85273 11.5762C7.61613 11.633 6.22463 11.9635 5.03422 12.4228C4.37371 12.6776 3.74509 12.9836 3.21908 13.3275C2.71588 13.6564 2.21796 14.0771 1.92524 14.5967C1.38433 15.5293 1.32393 16.5961 1.73002 17.6363C2.12508 18.6484 2.9416 19.5966 4.09203 20.4408C6.39109 22.1277 10.2556 23.5721 15.8504 24.3337C20.1335 24.9168 23.5813 24.5028 26.0045 23.6013C27.2133 23.1515 28.2013 22.5674 28.9043 21.8923C29.5987 21.2255 30.0899 20.3912 30.0899 19.4681C30.0899 18.7247 29.7223 18.0374 29.3158 17.4902C28.8921 16.9198 28.3267 16.3692 27.7238 15.8766C26.6172 14.9724 25.2627 14.1655 24.1469 13.7402C23.5158 10.3122 20.8609 7.50963 17.2915 7.00797C13.7272 6.50705 10.4072 8.46279 8.85273 11.5762ZM16.0761 15.6555C13.7278 15.3254 11.6603 14.6674 10.1288 13.8677C10.9146 10.6592 13.8928 8.54998 17.0131 8.98851C20.1334 9.42704 22.4148 12.2755 22.2859 15.5763C20.5932 15.9228 18.4245 15.9855 16.0761 15.6555ZM8.12586 13.6563C8.08466 13.8495 8.04966 14.0454 8.02112 14.2437L7.92682 14.8988L8.49305 15.2416C10.3443 16.3623 12.9244 17.2322 15.7978 17.636C18.6712 18.0398 21.3911 17.9148 23.4795 17.3478L24.1183 17.1744L24.2083 16.5186C24.2327 16.3403 24.2516 16.1624 24.2651 15.9852C24.9747 16.3507 25.764 16.8581 26.4583 17.4254C26.9824 17.8536 27.4164 18.2872 27.7103 18.6828C28.0215 19.1017 28.0899 19.3625 28.0899 19.4681C28.0899 19.6571 27.9824 20.0047 27.519 20.4498C27.0641 20.8865 26.335 21.3444 25.3071 21.7268C23.2569 22.4896 20.1524 22.9009 16.1202 22.352C10.6899 21.6128 7.19667 20.2382 5.27521 18.8283C4.31538 18.124 3.80595 17.4543 3.5931 16.9091C3.39242 16.395 3.44065 15.9681 3.65739 15.5965L3.66229 15.5881L3.66703 15.5796C3.72763 15.4709 3.91402 15.2626 4.3135 15.0015C4.69305 14.7533 5.18841 14.507 5.7542 14.2887C6.516 13.9948 7.35145 13.772 8.12586 13.6563Z" fill="#212121"/>
<path d="M21.4404 20.6611C21.4404 21.6484 20.64 22.4488 19.6526 22.4488C18.6653 22.4488 17.8649 21.6484 17.8649 20.6611C17.8649 19.6738 18.6653 18.8734 19.6526 18.8734C20.64 18.8734 21.4404 19.6738 21.4404 20.6611Z" fill="#212121"/>
<path d="M13.5743 19.2309C13.5743 20.2182 12.7739 21.0186 11.7866 21.0186C10.7992 21.0186 9.99883 20.2182 9.99883 19.2309C9.99883 18.2436 10.7992 17.4432 11.7866 17.4432C12.7739 17.4432 13.5743 18.2436 13.5743 19.2309Z" fill="#212121"/>
<path d="M7.85354 16.7281C7.85354 17.5179 7.21322 18.1583 6.42335 18.1583C5.63347 18.1583 4.99315 17.5179 4.99315 16.7281C4.99315 15.9382 5.63347 15.2979 6.42335 15.2979C7.21322 15.2979 7.85354 15.9382 7.85354 16.7281Z" fill="#212121"/>
<path d="M26.446 19.2309C26.446 19.8233 25.9658 20.3036 25.3734 20.3036C24.781 20.3036 24.3007 19.8233 24.3007 19.2309C24.3007 18.6385 24.781 18.1583 25.3734 18.1583C25.9658 18.1583 26.446 18.6385 26.446 19.2309Z" fill="#212121"/>
</svg>
