<svg width="24" height="24" viewBox="0 0 24 24" fill="none" xmlns="http://www.w3.org/2000/svg">
<path d="M4.3444 8.96348C5.12494 8.6623 6.02339 8.4364 6.85405 8.36159C8.01536 5.91117 10.5954 4.3507 13.3805 4.74211C16.1741 5.13474 18.2282 7.35845 18.6605 10.0452C19.4201 10.3764 20.286 10.9102 21.008 11.5002C21.451 11.8621 21.8669 12.267 22.1789 12.6869C22.4779 13.0895 22.75 13.5972 22.75 14.1478C22.75 14.8311 22.3864 15.4472 21.8751 15.9383C21.3573 16.4355 20.6303 16.8651 19.7419 17.1957C17.961 17.8582 15.4285 18.162 12.2839 17.7339C8.17767 17.1749 5.33924 16.1146 3.64933 14.8746C2.8037 14.2541 2.20211 13.5562 1.91077 12.8098C1.61116 12.0423 1.65557 11.2544 2.05504 10.5656C2.2717 10.181 2.63954 9.87073 3.00956 9.62882C3.3967 9.37571 3.859 9.15077 4.3444 8.96348ZM8.40126 9.89899C9.47221 10.4258 10.8855 10.8615 12.4888 11.0868C14.092 11.3121 15.5707 11.2829 16.7454 11.0717C16.7339 8.8679 15.1798 7.01465 13.1021 6.72265C11.0244 6.43065 9.0197 7.78374 8.40126 9.89899ZM6.41877 12.1375C6.41877 11.558 5.94897 11.0882 5.36944 11.0882C4.7899 11.0882 4.3201 11.558 4.3201 12.1375C4.3201 12.717 4.7899 13.1868 5.36944 13.1868C5.94897 13.1868 6.41877 12.717 6.41877 12.1375ZM9.30446 15.2855C10.0289 15.2855 10.6161 14.6982 10.6161 13.9738C10.6161 13.2494 10.0289 12.6622 9.30446 12.6622C8.58004 12.6622 7.99278 13.2494 7.99278 13.9738C7.99278 14.6982 8.58004 15.2855 9.30446 15.2855ZM15.0758 16.3348C15.8003 16.3348 16.3875 15.7476 16.3875 15.0232C16.3875 14.2988 15.8003 13.7115 15.0758 13.7115C14.3514 13.7115 13.7642 14.2988 13.7642 15.0232C13.7642 15.7476 14.3514 16.3348 15.0758 16.3348ZM19.2731 14.7608C19.7078 14.7608 20.0601 14.4085 20.0601 13.9738C20.0601 13.5392 19.7078 13.1868 19.2731 13.1868C18.8385 13.1868 18.4861 13.5392 18.4861 13.9738C18.4861 14.4085 18.8385 14.7608 19.2731 14.7608Z" fill="#212121"/>
</svg>
