<svg width="28" height="28" viewBox="0 0 28 28" fill="none" xmlns="http://www.w3.org/2000/svg">
<path d="M4.78435 10.9185C5.76077 10.5417 6.88947 10.2652 7.91242 10.1911C9.26329 7.2833 12.3078 5.43133 15.587 5.89219C18.8741 6.35416 21.2939 8.98506 21.7828 12.1628C22.7123 12.5487 23.8035 13.2115 24.7077 13.9502C25.2353 14.3814 25.7264 14.8602 26.0922 15.3527C26.4451 15.8278 26.75 16.4068 26.75 17.0212C26.75 17.788 26.3415 18.4928 25.7432 19.0674C25.1384 19.6482 24.2824 20.1561 23.226 20.5491C21.109 21.3367 18.0843 21.7025 14.3151 21.1894C9.38063 20.5177 5.98948 19.2456 3.98253 17.773C2.97838 17.0361 2.27718 16.2166 1.94017 15.3533C1.59491 14.4688 1.64756 13.5685 2.10426 12.7816C2.34747 12.3494 2.76699 11.9916 3.20494 11.7053C3.6601 11.4077 4.20684 11.1413 4.78435 10.9185ZM9.37449 12.0099C10.7058 12.6905 12.4885 13.2516 14.5127 13.5361C16.5369 13.8206 18.4052 13.7726 19.8725 13.4853C19.9395 10.6618 17.9746 8.2474 15.3086 7.87273C12.6427 7.49805 10.0884 9.27733 9.37449 12.0099ZM7.22824 14.5991C7.22824 13.9009 6.66223 13.3349 5.96402 13.3349C5.26582 13.3349 4.69981 13.9009 4.69981 14.5991C4.69981 15.2974 5.26582 15.8634 5.96402 15.8634C6.66223 15.8634 7.22824 15.2974 7.22824 14.5991ZM10.7048 18.3918C11.5776 18.3918 12.2851 17.6843 12.2851 16.8115C12.2851 15.9388 11.5776 15.2313 10.7048 15.2313C9.83206 15.2313 9.12456 15.9388 9.12456 16.8115C9.12456 17.6843 9.83206 18.3918 10.7048 18.3918ZM17.658 19.656C18.5308 19.656 19.2383 18.9485 19.2383 18.0757C19.2383 17.203 18.5308 16.4955 17.658 16.4955C16.7853 16.4955 16.0777 17.203 16.0777 18.0757C16.0777 18.9485 16.7853 19.656 17.658 19.656ZM22.7148 17.7597C23.2385 17.7597 23.663 17.3352 23.663 16.8115C23.663 16.2879 23.2385 15.8634 22.7148 15.8634C22.1912 15.8634 21.7667 16.2879 21.7667 16.8115C21.7667 17.3352 22.1912 17.7597 22.7148 17.7597Z" fill="#212121"/>
</svg>
