<svg width="20" height="20" viewBox="0 0 20 20" fill="none" xmlns="http://www.w3.org/2000/svg">
<path d="M6.14335 6.41014C5.44287 6.43193 4.6415 6.60354 3.95701 6.84595C3.58791 6.97667 3.23871 7.13287 2.94819 7.30721C2.66844 7.47507 2.40156 7.68422 2.24712 7.93614C1.9565 8.39573 1.92286 8.92151 2.14276 9.43854C2.35749 9.94341 2.80464 10.4235 3.44627 10.8556C4.72868 11.7192 6.89695 12.4661 10.0539 12.8605C12.4648 13.1618 14.3987 12.9469 15.7515 12.485C16.4267 12.2544 16.9731 11.9567 17.3588 11.6167C17.7406 11.2803 18 10.8686 18 10.4216C18 10.0638 17.8065 9.72573 17.5811 9.44728C17.3476 9.15883 17.0341 8.87815 16.6968 8.62521C16.0598 8.14749 15.2777 7.72411 14.6493 7.51272C14.3174 5.74526 12.836 4.29672 10.8428 4.03962C8.85168 3.78278 6.99445 4.79805 6.14335 6.41014ZM10.1553 8.52943C8.78474 8.35264 7.57844 7.99539 6.69389 7.55999C7.12156 5.81603 8.87065 4.65578 10.7121 4.89331C12.5535 5.13084 13.8864 6.68865 13.7738 8.47325C12.7927 8.668 11.5259 8.70622 10.1553 8.52943ZM5.79577 7.29966C5.75929 7.43761 5.72962 7.57838 5.70714 7.72167L5.66286 8.00407L5.92878 8.15182C6.96244 8.72615 8.40886 9.17471 10.0246 9.38312C11.6403 9.59154 13.1654 9.52628 14.3315 9.23571L14.6315 9.16096L14.6737 8.8783C14.6939 8.7432 14.7073 8.60863 14.7141 8.47492C15.1551 8.67065 15.6627 8.96293 16.1025 9.29278C16.4028 9.51798 16.6546 9.74823 16.8271 9.96136C17.0077 10.1845 17.0607 10.3387 17.0607 10.4216C17.0607 10.5521 16.9815 10.7541 16.7083 10.9949C16.4391 11.2322 16.0142 11.4755 15.424 11.677C14.2463 12.0792 12.4737 12.2928 10.1806 12.0063C7.10091 11.6215 5.107 10.9048 4.00192 10.1605C3.44981 9.7887 3.14688 9.42873 3.01772 9.12505C2.89428 8.83481 2.92222 8.58482 3.0606 8.36709L3.06513 8.35981C3.11053 8.28508 3.23106 8.16744 3.46216 8.02877C3.6839 7.89571 3.97052 7.7652 4.29513 7.65024C4.77683 7.47964 5.31136 7.35402 5.79577 7.29966Z" fill="#212121"/>
<path d="M12.5113 11.1928C12.5113 11.7055 12.0585 12.121 11.5 12.121C10.9415 12.121 10.4887 11.7055 10.4887 11.1928C10.4887 10.6802 10.9415 10.2646 11.5 10.2646C12.0585 10.2646 12.5113 10.6802 12.5113 11.1928Z" fill="#212121"/>
<path d="M8.5 10.4216C8.5 10.9343 8.04723 11.3498 7.4887 11.3498C6.93017 11.3498 6.4774 10.9343 6.4774 10.4216C6.4774 9.90901 6.93017 9.49344 7.4887 9.49344C8.04723 9.49344 8.5 9.90901 8.5 10.4216Z" fill="#212121"/>
<path d="M5.30904 8.55022C5.30904 8.96033 4.94682 9.29278 4.5 9.29278C4.05318 9.29278 3.69096 8.96033 3.69096 8.55022C3.69096 8.14012 4.05318 7.80766 4.5 7.80766C4.94682 7.80766 5.30904 8.14012 5.30904 8.55022Z" fill="#212121"/>
<path d="M15.1068 10.5183C15.1068 10.8259 14.8351 11.0752 14.5 11.0752C14.1649 11.0752 13.8932 10.8259 13.8932 10.5183C13.8932 10.2107 14.1649 9.96136 14.5 9.96136C14.8351 9.96136 15.1068 10.2107 15.1068 10.5183Z" fill="#212121"/>
</svg>
