<svg width="12" height="12" viewBox="0 0 12 12" fill="none" xmlns="http://www.w3.org/2000/svg">
<path d="M2.26136 4.35136C2.60012 4.22064 2.986 4.11957 3.35202 4.07588C3.91322 2.86505 5.18198 2.08815 6.55676 2.28137C7.9374 2.4754 8.94557 3.58044 9.14531 4.90655C9.48279 5.06543 9.85285 5.2992 10.1657 5.55485C10.3763 5.72687 10.5748 5.91996 10.7242 6.12104C10.8669 6.31319 11 6.55958 11 6.82941C11 7.16337 10.8224 7.46185 10.5773 7.69726C10.3288 7.93585 9.98142 8.14076 9.55888 8.29796C8.71166 8.61316 7.50973 8.75674 6.01999 8.55394C4.07709 8.28946 2.73018 7.78735 1.92591 7.19721C1.52343 6.90188 1.23451 6.56784 1.09409 6.20811C0.949418 5.8375 0.97057 5.45559 1.16418 5.12162C1.27006 4.93379 1.44853 4.78399 1.62493 4.66866C1.81008 4.54761 2.03056 4.44041 2.26136 4.35136ZM4.31602 4.76659C4.8 4.99248 5.42635 5.17991 6.1354 5.27956C6.84444 5.37921 7.49818 5.37169 8.02569 5.28795C7.98104 4.33418 7.29498 3.55031 6.39618 3.42399C5.49737 3.29767 4.62183 3.86207 4.31602 4.76659ZM3.25253 5.87942C3.25253 5.60556 3.03053 5.38355 2.75667 5.38355C2.48281 5.38355 2.2608 5.60556 2.2608 5.87942C2.2608 6.15328 2.48281 6.37528 2.75667 6.37528C3.03053 6.37528 3.25253 6.15328 3.25253 5.87942ZM4.61624 7.36701C4.95856 7.36701 5.23607 7.0895 5.23607 6.74718C5.23607 6.40486 4.95856 6.12735 4.61624 6.12735C4.27392 6.12735 3.99641 6.40486 3.99641 6.74718C3.99641 7.0895 4.27392 7.36701 4.61624 7.36701ZM7.34344 7.86288C7.68577 7.86288 7.96327 7.58537 7.96327 7.24305C7.96327 6.90072 7.68577 6.62321 7.34344 6.62321C7.00112 6.62321 6.72361 6.90072 6.72361 7.24305C6.72361 7.58537 7.00112 7.86288 7.34344 7.86288ZM9.32692 7.11908C9.53231 7.11908 9.69882 6.95257 9.69882 6.74718C9.69882 6.54179 9.53231 6.37528 9.32692 6.37528C9.12152 6.37528 8.95502 6.54179 8.95502 6.74718C8.95502 6.95257 9.12152 7.11908 9.32692 7.11908Z" fill="#212121"/>
</svg>
