<svg width="12" height="12" viewBox="0 0 12 12" fill="none" xmlns="http://www.w3.org/2000/svg">
<path d="M3.31587 3.73058C2.85041 3.76432 2.34299 3.89804 1.90875 4.07769C1.65361 4.18324 1.40844 4.31086 1.20144 4.45596C1.00417 4.59424 0.801914 4.77578 0.681832 5.00402C0.226991 5.84515 0.649486 6.77332 1.52384 7.46119C2.41177 8.15973 3.88978 8.74753 6.00571 9.05636C7.63484 9.29413 8.95713 9.12693 9.89545 8.75264C10.3635 8.56595 10.7509 8.32156 11.0288 8.03534C11.304 7.75205 11.5 7.39585 11.5 7.0012C11.5 6.68134 11.3527 6.38858 11.1944 6.16007C11.0291 5.92152 10.81 5.69325 10.5787 5.49064C10.1731 5.13526 9.67689 4.81315 9.25122 4.63C8.98607 3.25576 7.9766 2.11476 6.58137 1.90515C5.18884 1.69594 3.92645 2.49181 3.31587 3.73058ZM6.12489 5.37722C5.29503 5.25254 4.56478 5.0099 4.01508 4.7169C4.3255 3.49026 5.39178 2.73748 6.45102 2.89662C7.51026 3.05575 8.34113 4.09355 8.32324 5.36413C7.71928 5.48381 6.95475 5.50189 6.12489 5.37722ZM2.97914 4.78799C2.97367 4.82179 2.96863 4.85575 2.96403 4.88986L2.92101 5.20938L3.19357 5.38576C3.9092 5.84886 4.89898 6.20409 5.99454 6.36868C7.0901 6.53328 8.13313 6.48344 8.94045 6.24914L9.24793 6.1599L9.28897 5.84009C9.29143 5.82088 9.29375 5.80168 9.29591 5.78249C9.50331 5.91082 9.7215 6.06911 9.91979 6.24282C10.1118 6.41106 10.2681 6.57908 10.3724 6.72958C10.4836 6.89012 10.5 6.97917 10.5 7.0012C10.5 7.05439 10.4712 7.17415 10.3115 7.33863C10.1546 7.50019 9.89704 7.67539 9.52495 7.82381C8.78302 8.11976 7.64426 8.28491 6.15013 8.06684C4.12503 7.77127 2.83946 7.22383 2.14215 6.67525C1.43258 6.11703 1.44814 5.68795 1.5623 5.47813L1.5667 5.46986C1.57937 5.44551 1.63386 5.37406 1.77544 5.27482C1.90857 5.1815 2.08558 5.08673 2.29103 5.00173C2.51328 4.90979 2.75116 4.83643 2.97914 4.78799Z" fill="#212121"/>
<path d="M8.12679 7.48516C8.12679 7.88159 7.82616 8.20296 7.45532 8.20296C7.08447 8.20296 6.78384 7.88159 6.78384 7.48516C6.78384 7.08873 7.08447 6.76736 7.45532 6.76736C7.82616 6.76736 8.12679 7.08873 8.12679 7.48516Z" fill="#212121"/>
<path d="M5.17242 6.91092C5.17242 7.30735 4.87179 7.62872 4.50094 7.62872C4.13009 7.62872 3.82946 7.30735 3.82946 6.91092C3.82946 6.51449 4.13009 6.19312 4.50094 6.19312C4.87179 6.19312 5.17242 6.51449 5.17242 6.91092Z" fill="#212121"/>
<path d="M3.02361 5.90601C3.02361 6.22315 2.7831 6.48025 2.48643 6.48025C2.18975 6.48025 1.94924 6.22315 1.94924 5.90601C1.94924 5.58887 2.18975 5.33177 2.48643 5.33177C2.7831 5.33177 3.02361 5.58887 3.02361 5.90601Z" fill="#212121"/>
<path d="M10.0069 6.91092C10.0069 7.14878 9.82656 7.3416 9.60406 7.3416C9.38155 7.3416 9.20117 7.14878 9.20117 6.91092C9.20117 6.67306 9.38155 6.48024 9.60406 6.48024C9.82656 6.48024 10.0069 6.67306 10.0069 6.91092Z" fill="#212121"/>
</svg>
