<svg width="28" height="28" viewBox="0 0 28 28" fill="none" xmlns="http://www.w3.org/2000/svg">
<path d="M8.19626 10.1756C7.10178 10.2142 5.85202 10.5064 4.78434 10.9183C4.20682 11.1412 3.66009 11.4076 3.20493 11.7052C2.76697 11.9915 2.34745 12.3493 2.10424 12.7814C1.64755 13.5684 1.59489 14.4687 1.94016 15.3532C2.27717 16.2165 2.97836 17.036 3.98252 17.7728C5.98947 19.2455 9.38061 20.5175 14.3151 21.1893C18.0843 21.7024 21.109 21.3366 23.226 20.549C24.2824 20.156 25.1383 19.6481 25.7431 19.0673C26.3415 18.4927 26.75 17.7878 26.75 17.021C26.75 16.4066 26.4451 15.8277 26.0922 15.3526C25.7263 14.86 25.2353 14.3812 24.7077 13.9501C23.7142 13.1383 22.4947 12.4183 21.5123 12.0566C20.9894 9.04528 18.6711 6.57797 15.5522 6.13963C12.4366 5.70177 9.53097 7.43028 8.19626 10.1756ZM14.4779 13.7835C12.3433 13.4835 10.4644 12.8782 9.08525 12.1406C9.75645 9.18581 12.4788 7.22244 15.3434 7.62504C18.208 8.02763 20.2837 10.6653 20.1145 13.6907C18.5854 14.0195 16.6125 14.0835 14.4779 13.7835ZM7.64222 11.7247C7.58759 11.9528 7.54297 12.1854 7.50891 12.422L7.43819 12.9134L7.86286 13.1705C9.48035 14.1496 11.7427 14.9139 14.2691 15.2689C16.7955 15.624 19.1809 15.513 21.0056 15.0176L21.4847 14.8875L21.5522 14.3957C21.5826 14.1734 21.6032 13.952 21.6142 13.7319C22.2968 14.0644 23.0793 14.5567 23.7586 15.1117C24.2272 15.4945 24.6196 15.8856 24.8881 16.247C25.1695 16.6259 25.25 16.885 25.25 17.021C25.25 17.2373 25.1293 17.5771 24.7042 17.9854C24.2855 18.3875 23.6237 18.8006 22.7029 19.1432C20.8656 19.8267 18.0985 20.1905 14.5174 19.703C9.70634 19.0481 6.59365 17.8283 4.8699 16.5635C4.0087 15.9316 3.53782 15.321 3.33747 14.8077C3.14624 14.3178 3.1898 13.8974 3.40338 13.5313L3.40705 13.525L3.41061 13.5186C3.47968 13.3947 3.66549 13.1962 4.02574 12.9607C4.37105 12.7349 4.81785 12.5132 5.32432 12.3178C6.0684 12.0307 6.893 11.8186 7.64222 11.7247Z" fill="#212121"/>
<path d="M19.2382 18.0756C19.2382 18.9484 18.5307 19.6559 17.658 19.6559C16.7852 19.6559 16.0777 18.9484 16.0777 18.0756C16.0777 17.2029 16.7852 16.4953 17.658 16.4953C18.5307 16.4953 19.2382 17.2029 19.2382 18.0756Z" fill="#212121"/>
<path d="M12.2851 16.8114C12.2851 17.6841 11.5776 18.3917 10.7048 18.3917C9.83204 18.3917 9.12453 17.6841 9.12453 16.8114C9.12453 15.9386 9.83204 15.2311 10.7048 15.2311C11.5776 15.2311 12.2851 15.9386 12.2851 16.8114Z" fill="#212121"/>
<path d="M7.22821 14.599C7.22821 15.2972 6.66221 15.8632 5.964 15.8632C5.2658 15.8632 4.69979 15.2972 4.69979 14.599C4.69979 13.9008 5.2658 13.3348 5.964 13.3348C6.66221 13.3348 7.22821 13.9008 7.22821 14.599Z" fill="#212121"/>
<path d="M23.663 16.8114C23.663 17.335 23.2385 17.7595 22.7148 17.7595C22.1912 17.7595 21.7667 17.335 21.7667 16.8114C21.7667 16.2877 22.1912 15.8632 22.7148 15.8632C23.2385 15.8632 23.663 16.2877 23.663 16.8114Z" fill="#212121"/>
</svg>
