<svg width="48" height="48" viewBox="0 0 48 48" fill="none" xmlns="http://www.w3.org/2000/svg">
<path d="M35.6363 20.8336C41.0149 23.1477 44.3531 26.3782 43.9198 29.4614C43.2492 34.2329 33.8107 36.849 22.8391 35.307C11.8675 33.7651 3.51574 28.6487 4.18632 23.8772C4.61965 20.7939 8.71904 18.6087 14.5274 17.8668C16.6734 13.563 21.2598 10.863 26.1775 11.5541C31.0951 12.2453 34.7597 16.105 35.6363 20.8336ZM24.4779 23.6469C27.8272 24.1176 30.9219 24.0205 33.3254 23.511C33.5668 18.7756 30.3109 14.6596 25.8295 14.0298C21.3481 13.4 17.0838 16.4591 16.0106 21.0775C18.1806 22.2298 21.1287 23.1762 24.4779 23.6469ZM17.5583 31.9805C18.9766 32.1798 20.2901 31.1823 20.4913 29.7502C20.6924 28.3198 19.705 26.9972 18.2867 26.7979C16.8666 26.5983 15.5547 27.5977 15.3536 29.0281C15.1524 30.4603 16.1383 31.7809 17.5583 31.9805ZM28.8322 33.5649C30.2505 33.7643 31.564 32.7668 31.7653 31.3347C31.9663 29.9042 30.9789 28.5816 29.5606 28.3823C28.1406 28.1827 26.8286 29.1822 26.6276 30.6126C26.4263 32.0447 27.4122 33.3654 28.8322 33.5649ZM38.3787 31.3833C39.2857 31.5107 40.1287 30.84 40.2627 29.8864C40.3967 28.9328 39.7713 28.0557 38.8643 27.9282C37.9591 27.801 37.1144 28.4715 36.9804 29.4251C36.8464 30.3787 37.4735 31.2561 38.3787 31.3833ZM8.83781 27.2316C9.74477 27.359 10.5877 26.6883 10.7218 25.7347C10.8558 24.7811 10.2304 23.904 9.32339 23.7765C8.41816 23.6493 7.57346 24.3198 7.43944 25.2734C7.30542 26.227 7.93258 27.1044 8.83781 27.2316Z" fill="#212121"/>
</svg>
