<svg width="24" height="24" viewBox="0 0 24 24" fill="none" xmlns="http://www.w3.org/2000/svg">
<path d="M7.14159 8.34182C6.23454 8.38485 5.21596 8.6273 4.3444 8.9636C3.859 9.15089 3.3967 9.37583 3.00956 9.62893C2.63954 9.87085 2.2717 10.1812 2.05504 10.5657C1.65557 11.2546 1.61116 12.0424 1.91077 12.8099C2.20211 13.5563 2.8037 14.2543 3.64933 14.8748C5.33924 16.1147 8.17767 17.1751 12.2839 17.734C15.4285 18.1621 17.961 17.8584 19.7419 17.1958C20.6303 16.8652 21.3573 16.4357 21.8751 15.9384C22.3864 15.4473 22.75 14.8312 22.75 14.148C22.75 13.5973 22.4779 13.0896 22.1789 12.6871C21.8669 12.2671 21.451 11.8622 21.008 11.5003C20.1979 10.8383 19.2066 10.2471 18.3876 9.93343C17.9204 7.41594 15.969 5.35848 13.3457 4.9898C10.7263 4.62167 8.28683 6.05666 7.14159 8.34182ZM12.454 11.3345C10.7382 11.0934 9.22758 10.6135 8.107 10.0304C8.68636 7.69086 10.8605 6.15527 13.1369 6.4752C15.4133 6.79513 17.08 8.8705 16.992 11.2791C15.7541 11.5307 14.1698 11.5756 12.454 11.3345ZM6.59776 9.90348C6.56956 10.0381 6.54545 10.1745 6.52559 10.3125L6.45487 10.8038L6.87954 11.0609C8.2401 11.8846 10.1353 12.5234 12.2452 12.8199C14.3551 13.1164 16.353 13.0247 17.8879 12.608L18.367 12.478L18.4344 11.9862C18.4513 11.8632 18.4646 11.7406 18.4743 11.6183C18.9881 11.885 19.5573 12.252 20.0589 12.6618C20.4428 12.9755 20.7601 13.2927 20.9747 13.5815C21.2023 13.8878 21.25 14.0757 21.25 14.148C21.25 14.2807 21.1743 14.5317 20.8361 14.8565C20.5044 15.175 19.9716 15.5099 19.2189 15.7899C17.7176 16.3484 15.4427 16.6502 12.4863 16.2478C8.5034 15.7056 5.94342 14.6976 4.53671 13.6654C3.83404 13.1498 3.46277 12.6607 3.30808 12.2645C3.16253 11.8916 3.1978 11.5836 3.35415 11.3156L3.35783 11.3093L3.36138 11.3029C3.40396 11.2266 3.53815 11.0755 3.83038 10.8844C4.10766 10.7031 4.47003 10.5229 4.88438 10.363C5.4348 10.1506 6.03753 9.98911 6.59776 9.90348Z" fill="#212121"/>
<path d="M16.3875 15.0233C16.3875 15.7477 15.8003 16.335 15.0759 16.335C14.3514 16.335 13.7642 15.7477 13.7642 15.0233C13.7642 14.2989 14.3514 13.7116 15.0759 13.7116C15.8003 13.7116 16.3875 14.2989 16.3875 15.0233Z" fill="#212121"/>
<path d="M10.6161 13.974C10.6161 14.6984 10.0289 15.2856 9.30448 15.2856C8.58006 15.2856 7.99281 14.6984 7.99281 13.974C7.99281 13.2495 8.58006 12.6623 9.30448 12.6623C10.0289 12.6623 10.6161 13.2495 10.6161 13.974Z" fill="#212121"/>
<path d="M6.4188 12.1376C6.4188 12.7171 5.94899 13.1869 5.36946 13.1869C4.78993 13.1869 4.32012 12.7171 4.32012 12.1376C4.32012 11.5581 4.78993 11.0883 5.36946 11.0883C5.94899 11.0883 6.4188 11.5581 6.4188 12.1376Z" fill="#212121"/>
<path d="M20.0602 13.9739C20.0602 14.4086 19.7078 14.761 19.2732 14.761C18.8385 14.761 18.4862 14.4086 18.4862 13.9739C18.4862 13.5393 18.8385 13.1869 19.2732 13.1869C19.7078 13.1869 20.0602 13.5393 20.0602 13.9739Z" fill="#212121"/>
</svg>
