<svg width="16" height="16" viewBox="0 0 16 16" fill="none" xmlns="http://www.w3.org/2000/svg">
<path d="M3.13981 6.02193C3.5802 5.85201 4.08184 5.72061 4.55766 5.66381C5.28721 4.08974 6.93659 3.07979 8.7238 3.33096C10.5186 3.58321 11.8292 5.01975 12.0889 6.74368C12.5276 6.95022 13.0087 7.25413 13.4154 7.58646C13.6891 7.81009 13.9472 8.06111 14.1414 8.32251C14.3269 8.5723 14.5 8.89261 14.5 9.24338C14.5 9.67752 14.2691 10.0656 13.9505 10.3716C13.6275 10.6817 13.1758 10.9481 12.6265 11.1525C11.5251 11.5622 9.96266 11.7489 8.026 11.4853C5.50025 11.1414 3.74928 10.4887 2.70373 9.72151C2.18051 9.33759 1.80492 8.90334 1.62237 8.43569C1.4343 7.95391 1.4618 7.45742 1.71348 7.02326C1.85113 6.77909 2.08314 6.58435 2.31246 6.43442C2.55316 6.27706 2.83977 6.1377 3.13981 6.02193ZM5.81085 6.56173C6.44003 6.85539 7.25427 7.09905 8.17603 7.22859C9.09778 7.35813 9.94764 7.34835 10.6334 7.23949C10.5754 5.99961 9.68348 4.98058 8.51504 4.81636C7.3466 4.65215 6.2084 5.38587 5.81085 6.56173ZM4.42829 8.0084C4.42829 7.65239 4.13969 7.36378 3.78367 7.36378C3.42766 7.36378 3.13905 7.65239 3.13905 8.0084C3.13905 8.36442 3.42766 8.65302 3.78367 8.65302C4.13969 8.65302 4.42829 8.36442 4.42829 8.0084ZM6.20111 9.94226C6.64612 9.94226 7.00688 9.5815 7.00688 9.13649C7.00688 8.69147 6.64612 8.33071 6.20111 8.33071C5.75609 8.33071 5.39533 8.69147 5.39533 9.13649C5.39533 9.5815 5.75609 9.94226 6.20111 9.94226ZM9.74645 10.5869C10.1915 10.5869 10.5522 10.2261 10.5522 9.78111C10.5522 9.33609 10.1915 8.97533 9.74645 8.97533C9.30143 8.97533 8.94067 9.33609 8.94067 9.78111C8.94067 10.2261 9.30143 10.5869 9.74645 10.5869ZM12.3249 9.61995C12.592 9.61995 12.8084 9.40349 12.8084 9.13648C12.8084 8.86947 12.592 8.65302 12.3249 8.65302C12.0579 8.65302 11.8415 8.86947 11.8415 9.13648C11.8415 9.40349 12.0579 9.61995 12.3249 9.61995Z" fill="#212121"/>
</svg>
