<svg width="20" height="20" viewBox="0 0 20 20" fill="none" xmlns="http://www.w3.org/2000/svg">
<path d="M3.95701 6.98995C4.55601 6.78277 5.24452 6.62855 5.8766 6.579C6.74191 4.86703 8.72998 3.77057 10.8755 4.04084C13.0274 4.31192 14.6042 5.86549 14.9029 7.73232C15.4796 7.95654 16.1431 8.322 16.6968 8.72757C17.0341 8.97459 17.3476 9.2487 17.5811 9.53041C17.8065 9.80234 18 10.1325 18 10.482C18 10.9184 17.7406 11.3205 17.3588 11.6491C16.9731 11.9811 16.4267 12.2719 15.7515 12.497C14.3987 12.9482 12.4648 13.158 10.0539 12.8638C6.89695 12.4786 4.72868 11.7492 3.44627 10.9058C2.80464 10.4837 2.35749 10.0149 2.14276 9.52187C1.92286 9.01694 1.9565 8.50346 2.24712 8.05462C2.40156 7.8086 2.66844 7.60434 2.94819 7.44041C3.23871 7.27015 3.58791 7.1176 3.95701 6.98995ZM6.96665 7.57701C7.80584 7.95442 8.92161 8.26607 10.188 8.4256C11.4544 8.58514 12.6227 8.56123 13.5455 8.40577C13.5627 6.83349 12.3342 5.49989 10.6794 5.29142C9.02458 5.08296 7.43363 6.06139 6.96665 7.57701ZM5.5173 9.09264C5.5173 8.69213 5.15508 8.36745 4.70826 8.36745C4.26144 8.36745 3.89922 8.69213 3.89922 9.09264C3.89922 9.49315 4.26144 9.81782 4.70826 9.81782C5.15508 9.81782 5.5173 9.49315 5.5173 9.09264ZM7.7422 11.2682C8.30072 11.2682 8.7535 10.8624 8.7535 10.3617C8.7535 9.86108 8.30072 9.45523 7.7422 9.45523C7.18367 9.45523 6.7309 9.86108 6.7309 10.3617C6.7309 10.8624 7.18367 11.2682 7.7422 11.2682ZM12.1919 11.9934C12.7504 11.9934 13.2032 11.5875 13.2032 11.0869C13.2032 10.5863 12.7504 10.1804 12.1919 10.1804C11.6334 10.1804 11.1806 10.5863 11.1806 11.0869C11.1806 11.5875 11.6334 11.9934 12.1919 11.9934ZM15.428 10.9056C15.7631 10.9056 16.0348 10.6621 16.0348 10.3617C16.0348 10.0613 15.7631 9.81782 15.428 9.81782C15.0929 9.81782 14.8212 10.0613 14.8212 10.3617C14.8212 10.6621 15.0929 10.9056 15.428 10.9056Z" fill="#212121"/>
</svg>
