<svg width="16" height="16" viewBox="0 0 16 16" fill="none" xmlns="http://www.w3.org/2000/svg">
<path d="M13.01 12.3L10.98 10.26L5.72 5L2.71 2L1.85 1.15C1.66 0.95 1.34 0.95 1.15 1.15C0.95 1.34 0.95 1.66 1.15 1.85L1.6 2.3C1.24 2.58 1 3.01 1 3.5C1 4.33 1.67 5 2.5 5H4.29L5.29 6H2V9C2 12.31 4.69 15 8 15C9.73 15 11.28 14.26 12.38 13.08L14.15 14.85C14.35 15.05 14.66 15.05 14.86 14.85C15.06 14.65 15.06 14.34 14.86 14.14L13.01 12.29V12.3ZM9 10C9 10.55 8.55 11 8 11C7.45 11 7 10.55 7 10C7 9.45 7.45 9 8 9C8.13 9 8.25 9.03 8.37 9.07L8.93 9.63C8.98 9.74 9 9.87 9 10ZM8 13C6.34 13 5 11.66 5 10C5 8.84 5.67 7.84 6.64 7.34L7.4 8.1C6.59 8.36 6 9.1 6 10C6 11.1 6.9 12 8 12C8.89 12 9.64 11.41 9.9 10.6L10.66 11.36C10.17 12.33 9.17 13 8 13Z" fill="#212121"/>
<path d="M9.57986 7.46C9.96986 7.7 10.2899 8.03 10.5299 8.41L13.4999 11.38C13.8199 10.65 13.9899 9.84 13.9899 9V6H8.10986L9.56986 7.46H9.57986Z" fill="#212121"/>
<path d="M15.0001 3.5C15.0001 4.33 14.3301 5 13.5001 5H7.12012L4.12012 2H13.5001C14.3301 2 15.0001 2.67 15.0001 3.5Z" fill="#212121"/>
</svg>
