<svg width="24" height="24" viewBox="0 0 24 24" fill="none" xmlns="http://www.w3.org/2000/svg">
<path d="M22.0002 3.75C22.0002 4.72 21.2202 5.5 20.2502 5.5H8.68018L5.18018 2H20.2502C21.2202 2 22.0002 2.78 22.0002 3.75Z" fill="#212121"/>
<path d="M3.17 2.11013L21.78 20.7201C22.07 21.0101 22.07 21.4901 21.78 21.7801C21.49 22.0701 21.01 22.0701 20.72 21.7801L18.32 19.3801C16.69 20.9901 14.47 22.0001 12 22.0001C7.03 22.0001 3 17.9701 3 13.0001V7.00013H5.94L4.44 5.50013H3.75C2.78 5.50013 2 4.72013 2 3.75013C2 3.54013 2.05 3.33013 2.12 3.14013C1.95 2.85013 1.97 2.47013 2.22 2.22013C2.47 1.97013 2.85 1.95013 3.14 2.13013C3.15 2.12013 3.17 2.11013 3.17 2.11013ZM13.96 15.0201L10.46 11.5201C9.87 11.9801 9.49 12.6901 9.49 13.4901C9.49 14.8701 10.61 15.9901 11.99 15.9901C12.8 15.9901 13.5 15.6101 13.96 15.0201ZM6.5 13.5001C6.5 16.5401 8.96 19.0001 12 19.0001C13.63 19.0001 15.09 18.2901 16.1 17.1601L15.02 16.0801C14.29 16.9401 13.22 17.5001 12 17.5001C9.79 17.5001 8 15.7101 8 13.5001C8 12.2801 8.56 11.2101 9.42 10.4801L8.34 9.40013C7.21 10.4101 6.5 11.8701 6.5 13.5001Z" fill="#212121"/>
<path d="M12.7598 9.58008L15.9298 12.7501C15.6198 11.1501 14.3598 9.89008 12.7598 9.58008Z" fill="#212121"/>
<path d="M20.0902 16.91C20.6602 15.73 21.0002 14.4 21.0002 13V7H10.1802L11.2402 8.06C11.4902 8.03 11.7402 8 12.0002 8C15.0402 8 17.5002 10.46 17.5002 13.5C17.5002 13.76 17.4802 14.01 17.4402 14.26L20.0902 16.91Z" fill="#212121"/>
</svg>
