<svg width="20" height="20" viewBox="0 0 20 20" fill="none" xmlns="http://www.w3.org/2000/svg">
<path d="M15.73 15.02V15.01L17.86 17.14C18.05 17.34 18.05 17.65 17.86 17.85C17.66 18.04 17.35 18.04 17.15 17.85L15.09 15.79C13.81 17.15 12.01 18 10 18C6.13 18 3 14.87 3 11V7H6.29L5.29 6H3.5C2.67 6 2 5.33 2 4.5C2 4.01 2.24 3.58 2.6 3.3L2.15 2.85C1.95 2.66 1.96 2.35 2.15 2.15C2.34 1.95 2.66 1.95 2.85 2.15L3.71 3L15.73 15.02ZM10 14C10.9 14 11.64 13.41 11.9 12.6L9.4 10.1C8.59 10.36 8 11.11 8 12C8 13.1 8.9 14 10 14ZM6 12C6 14.21 7.79 16 10 16L9.99 15.99C11.43 15.99 12.67 15.22 13.37 14.08L12.65 13.36C12.15 14.33 11.15 15 9.99 15C8.33 15 6.99 13.66 6.99 12C6.99 10.83 7.66 9.83 8.63 9.34L7.91 8.62C6.77 9.32 6 10.56 6 12Z" fill="#212121"/>
<path d="M16.2599 14.13L13.9899 11.86C13.9199 9.76 12.2399 8.08 10.1399 8.01L9.12988 7H17.0099V11C17.0099 12.13 16.7299 13.19 16.2599 14.13Z" fill="#212121"/>
<path d="M12.5398 10.4202C12.2998 10.0302 11.9698 9.71021 11.5898 9.47021L12.5398 10.4202Z" fill="#212121"/>
<path d="M18.0001 4.5C18.0001 5.33 17.3301 6 16.5001 6H8.12012L5.12012 3H16.5001C17.3301 3 18.0001 3.67 18.0001 4.5Z" fill="#212121"/>
</svg>
