<svg width="48" height="48" viewBox="0 0 48 48" fill="none" xmlns="http://www.w3.org/2000/svg">
<path d="M9.2998 4H40.7498C42.5398 4 43.9998 5.46 43.9998 7.25V9.75C43.9998 11.1 43.1698 12.26 41.9998 12.75V26C41.9998 29.09 41.2098 32 39.8398 34.54L37.9698 32.67C38.9398 30.65 39.4998 28.39 39.4998 26V13H18.2998L15.7998 10.5H40.7498C41.1598 10.5 41.4998 10.16 41.4998 9.75V7.25C41.4998 6.84 41.1598 6.5 40.7498 6.5H11.7998L9.2998 4Z" fill="#212121"/>
<path d="M6.02 4.25982L43.63 41.8598C44.12 42.3498 44.12 43.1398 43.63 43.6298C43.14 44.1198 42.35 44.1198 41.86 43.6298L36.82 38.5898C33.56 41.9198 29.03 43.9998 24 43.9998C14.06 43.9998 6 35.9398 6 25.9998V12.7498C4.83 12.2598 4 11.0998 4 9.74983V7.24982C4 6.79982 4.1 6.36982 4.27 5.97982C3.9 5.48982 3.92 4.80982 4.37 4.36982C4.81 3.91982 5.49 3.89982 5.99 4.27982C6 4.26982 6.02 4.25982 6.02 4.25982ZM20.44 22.1998L18.66 20.4198C16.74 21.9798 15.51 24.3498 15.51 27.0098C15.51 31.6998 19.32 35.5098 24.01 35.5098C26.67 35.5098 29.04 34.2798 30.6 32.3598L28.81 30.5698C27.71 32.0398 25.98 32.9998 24.01 32.9998C20.7 32.9998 18.01 30.3098 18.01 26.9998C18.01 25.0298 18.97 23.2898 20.44 22.1998ZM6.5 8.26982V9.74983C6.5 10.1598 6.84 10.4998 7.25 10.4998H8.73L6.5 8.26982ZM8.5 25.9998C8.5 34.5598 15.44 41.4998 24 41.4998C28.34 41.4998 32.25 39.7098 35.06 36.8298L32.36 34.1298C30.34 36.4898 27.35 37.9998 24 37.9998C17.92 37.9998 13 33.0798 13 26.9998C13 23.6498 14.5 20.6598 16.87 18.6398L11.23 12.9998H8.5V25.9998Z" fill="#212121"/>
<path d="M29.0198 23.72C28.5698 23.03 27.9698 22.43 27.2798 21.98L29.0198 23.72Z" fill="#212121"/>
<path d="M35.0001 27C35.0001 27.83 34.9001 28.64 34.7201 29.42L32.5001 27.2V27.01C32.5001 22.32 28.6901 18.51 24.0001 18.51H23.8101L21.5801 16.28C22.3601 16.1 23.1701 16 24.0001 16C30.0801 16 35.0001 20.92 35.0001 27Z" fill="#212121"/>
</svg>
