<svg width="24" height="24" viewBox="0 0 24 24" fill="none" xmlns="http://www.w3.org/2000/svg">
<path d="M20.2502 2H5.18018L6.68018 3.5H20.2502C20.3902 3.5 20.5002 3.61 20.5002 3.75V5.25C20.5002 5.39 20.3902 5.5 20.2502 5.5H8.68018L10.1802 7H19.5002V13C19.5002 13.98 19.3102 14.92 18.9602 15.78L20.0902 16.91C20.6602 15.73 21.0002 14.4 21.0002 13V6.83C21.5902 6.55 22.0002 5.95 22.0002 5.25V3.75C22.0002 2.78 21.2202 2 20.2502 2Z" fill="#212121"/>
<path d="M3.17 2.11013C3.17 2.11013 3.15 2.12013 3.14 2.13013C2.85 1.95013 2.47 1.97013 2.22 2.22013C1.97 2.47013 1.95 2.85013 2.12 3.14013C2.05 3.33013 2 3.54013 2 3.75013V5.25013C2 5.95013 2.41 6.55013 3 6.83013V13.0001C3 17.9701 7.03 22.0001 12 22.0001C14.47 22.0001 16.69 20.9901 18.32 19.3801L20.72 21.7801C21.01 22.0701 21.49 22.0701 21.78 21.7801C22.07 21.4901 22.07 21.0101 21.78 20.7201L3.17 2.11013ZM9.42 10.4801L10.47 11.5301C9.88 11.9901 9.5 12.6901 9.5 13.5001C9.5 14.8801 10.62 16.0001 12 16.0001C12.8 16.0001 13.51 15.6201 13.97 15.0301L15.02 16.0801C14.29 16.9401 13.22 17.5001 12 17.5001C9.79 17.5001 8 15.7101 8 13.5001C8 12.2801 8.56 11.2101 9.42 10.4801ZM3.5 5.25013V4.56013L4.44 5.50013H3.75C3.61 5.50013 3.5 5.39013 3.5 5.25013ZM12 20.5001C7.86 20.5001 4.5 17.1401 4.5 13.0001V7.00013H5.94L8.34 9.40013C7.21 10.4101 6.5 11.8701 6.5 13.5001C6.5 16.5401 8.96 19.0001 12 19.0001C13.63 19.0001 15.09 18.2901 16.1 17.1601L17.27 18.3301C15.92 19.6701 14.06 20.5101 12.01 20.5101L12 20.5001Z" fill="#212121"/>
<path d="M17.4402 14.26L15.9302 12.75C15.6202 11.15 14.3602 9.89 12.7602 9.58L11.2402 8.06C11.4902 8.02 11.7402 8 12.0002 8C15.0402 8 17.5002 10.46 17.5002 13.5C17.5002 13.76 17.4702 14.01 17.4402 14.26Z" fill="#212121"/>
</svg>
