<svg width="28" height="28" viewBox="0 0 28 28" fill="none" xmlns="http://www.w3.org/2000/svg">
<path d="M14.07 13.0099V13.0199L25.78 24.7299C26.07 25.0199 26.07 25.4999 25.78 25.7899C25.49 26.0799 25.01 26.0799 24.72 25.7899L21.73 22.7999C19.75 24.7799 17.02 26.0099 14 26.0099C7.92 26.0099 3 21.0899 3 15.0099V8.00994H6.94L5.44 6.50994H3.75C2.78 6.50994 2 5.72994 2 4.75994C2 4.28994 2.19 3.85994 2.49 3.54994L2.22 3.27994C1.93 2.98994 1.93 2.50994 2.22 2.21994C2.51 1.92994 2.99 1.92994 3.28 2.21994L14.07 13.0099ZM17.07 18.1299L12.35 13.4099C11.25 13.9999 10.49 15.1499 10.49 16.4899C10.49 18.4199 12.06 19.9899 13.99 19.9899C15.33 19.9899 16.48 19.2299 17.07 18.1299ZM7.5 16.4999C7.5 20.0899 10.41 22.9999 14 22.9999C16.17 22.9999 18.07 21.9399 19.25 20.3099L18.17 19.2299C17.28 20.5899 15.75 21.4999 14 21.4999C11.24 21.4999 9 19.2599 9 16.4999C9 14.7499 9.9 13.2199 11.27 12.3299L10.19 11.2499C8.57 12.4299 7.5 14.3399 7.5 16.4999Z" fill="#212121"/>
<path d="M25.0002 15C25.0002 16.97 24.4802 18.8 23.5802 20.4L20.4502 17.27C20.4802 17.02 20.5002 16.76 20.5002 16.5C20.5002 12.91 17.5902 10 14.0002 10C13.7402 10 13.4802 10.02 13.2302 10.05L11.1802 8H25.0002V15Z" fill="#212121"/>
<path d="M14.7598 11.5801L18.9298 15.7501C18.5998 13.6001 16.9098 11.9101 14.7598 11.5801Z" fill="#212121"/>
<path d="M26.0002 4.75C26.0002 5.72 25.2202 6.5 24.2502 6.5H9.68018L6.18018 3H24.2502C25.2202 3 26.0002 3.78 26.0002 4.75Z" fill="#212121"/>
</svg>
