<svg width="20" height="20" viewBox="0 0 20 20" fill="none" xmlns="http://www.w3.org/2000/svg">
<path d="M15.73 15.02L3.71 3L2.85 2.15C2.66 1.95 2.34 1.95 2.15 2.15C1.96 2.35 1.95 2.66 2.15 2.85L2.6 3.3C2.24 3.58 2 4.01 2 4.5V5.5C2 6.15 2.42 6.71 3 6.91V11C3 14.87 6.13 18 10 18C12.01 18 13.81 17.15 15.09 15.79L17.15 17.85C17.35 18.04 17.66 18.04 17.86 17.85C18.05 17.65 18.05 17.34 17.86 17.14L15.73 15.01V15.02ZM9.4 10.1C8.59 10.36 8 11.1 8 12C8 13.1 8.9 14 10 14C10.89 14 11.64 13.41 11.9 12.6L12.66 13.36C12.17 14.33 11.17 15 10 15C8.34 15 7 13.66 7 12C7 10.84 7.67 9.84 8.64 9.34L9.4 10.1ZM3 5.5V4.5C3 4.28 3.14 4.11 3.33 4.03L5.3 6H3.51C3.23 6 3.01 5.78 3.01 5.5H3ZM10 17C6.69 17 4 14.31 4 11V7H6.29L7.91 8.62C6.77 9.32 6 10.56 6 12C6 14.21 7.79 16 10 16C11.44 16 12.68 15.23 13.38 14.09L14.38 15.09C13.29 16.26 11.73 17.01 10 17.01V17Z" fill="#212121"/>
<path d="M5.12012 3L6.12012 4H16.5001C16.7801 4 17.0001 4.22 17.0001 4.5V5.5C17.0001 5.78 16.7801 6 16.5001 6H8.12012L9.12012 7H16.0001V11C16.0001 11.85 15.8201 12.65 15.5101 13.38L16.2601 14.13C16.7301 13.19 17.0101 12.13 17.0101 11V6.91C17.5901 6.7 18.0101 6.15 18.0101 5.5V4.5C18.0101 3.67 17.3401 3 16.5101 3H5.12012Z" fill="#212121"/>
<path d="M13.9901 11.87L12.5401 10.42C12.3001 10.04 11.9801 9.71002 11.5901 9.47002L10.1401 8.02002C12.2401 8.09002 13.9201 9.77002 13.9901 11.87Z" fill="#212121"/>
</svg>
