<svg width="28" height="28" viewBox="0 0 28 28" fill="none" xmlns="http://www.w3.org/2000/svg">
<path d="M4.05 2.99994L3.28 2.21994C2.99 1.92994 2.51 1.92994 2.22 2.21994C1.93 2.50994 1.93 2.98994 2.22 3.27994L2.49 3.54994C2.19 3.85994 2 4.28994 2 4.75994V6.25994C2 6.95994 2.41 7.55994 3 7.83994V15.0099C3 21.0899 7.92 26.0099 14 26.0099C17.02 26.0099 19.75 24.7799 21.73 22.7999L24.72 25.7899C25.01 26.0799 25.49 26.0799 25.78 25.7899C26.07 25.4999 26.07 25.0199 25.78 24.7299L4.05 2.99994ZM12.36 13.4199C11.26 14.0099 10.5 15.1599 10.5 16.4999C10.5 18.4299 12.07 19.9999 14 19.9999C15.34 19.9999 16.49 19.2399 17.08 18.1399L18.17 19.2299C17.28 20.5999 15.75 21.4999 14 21.4999C11.24 21.4999 9 19.2599 9 16.4999C9 14.7499 9.91 13.2199 11.27 12.3299L12.36 13.4199ZM3.5 6.24994V4.74994C3.5 4.69994 3.53 4.65994 3.56 4.61994L5.44 6.49994H3.75C3.61 6.49994 3.5 6.38994 3.5 6.24994ZM14 24.4999C8.75 24.4999 4.5 20.2499 4.5 14.9999V7.99994H6.94L10.19 11.2499C8.56 12.4299 7.5 14.3299 7.5 16.4999C7.5 20.0899 10.41 22.9999 14 22.9999C16.16 22.9999 18.07 21.9299 19.25 20.3099L20.67 21.7299C18.96 23.4299 16.61 24.4999 14 24.4999Z" fill="#212121"/>
<path d="M18.93 15.75L20.45 17.27C20.48 17.02 20.5 16.76 20.5 16.5C20.5 12.91 17.59 10 14 10C13.74 10 13.48 10.02 13.23 10.05L14.76 11.58C16.91 11.91 18.6 13.6 18.93 15.75Z" fill="#212121"/>
<path d="M6.18018 3H24.2502C25.2202 3 26.0002 3.78 26.0002 4.75V6.25C26.0002 6.95 25.5902 7.55 25.0002 7.83V15C25.0002 16.97 24.4802 18.8 23.5802 20.4L22.4702 19.29C23.1202 18 23.5002 16.54 23.5002 15V8H11.1802L9.68018 6.5H24.2502C24.3902 6.5 24.5002 6.39 24.5002 6.25V4.75C24.5002 4.61 24.3902 4.5 24.2502 4.5H7.68018L6.18018 3Z" fill="#212121"/>
</svg>
