<svg width="16" height="16" viewBox="0 0 16 16" fill="none" xmlns="http://www.w3.org/2000/svg">
<path d="M13.01 12.3L2.71 2L1.85 1.15C1.66 0.95 1.34 0.95 1.15 1.15C0.95 1.34 0.95 1.66 1.15 1.85L1.6 2.3C1.24 2.58 1 3.01 1 3.5V4.5C1 5.15 1.42 5.71 2 5.91V9C2 12.31 4.69 15 8 15C9.73 15 11.28 14.26 12.38 13.08L14.15 14.85C14.35 15.05 14.66 15.05 14.86 14.85C15.06 14.65 15.06 14.34 14.86 14.14L13.01 12.29V12.3ZM8 11C8.55 11 9 10.55 9 10C9 9.87 8.97 9.75 8.93 9.63L9.9 10.6C9.64 11.41 8.9 12 8 12C6.9 12 6 11.1 6 10C6 9.11 6.59 8.36 7.4 8.1L8.37 9.07C8.26 9.02 8.13 9 8 9C7.45 9 7 9.45 7 10C7 10.55 7.45 11 8 11ZM2 4.5V3.5C2 3.28 2.14 3.11 2.33 3.03L4.3 5H2.51C2.23 5 2.01 4.78 2.01 4.5H2ZM8 14C5.24 14 3 11.76 3 9V6H5.29L6.63 7.34C5.66 7.83 4.99 8.83 4.99 10C4.99 11.66 6.33 13 7.99 13C9.15 13 10.15 12.33 10.65 11.36L11.65 12.36C10.74 13.36 9.45 13.99 7.99 13.99L8 14Z" fill="#212121"/>
<path d="M13.5001 2H4.12012L5.12012 3H13.5001C13.7801 3 14.0001 3.22 14.0001 3.5V4.5C14.0001 4.78 13.7801 5 13.5001 5H7.12012L8.12012 6H13.0001V9C13.0001 9.56 12.8901 10.09 12.7201 10.59L13.5101 11.38C13.8301 10.65 14.0001 9.84 14.0001 9V5.91C14.5801 5.7 15.0001 5.15 15.0001 4.5V3.5C15.0001 2.67 14.3301 2 13.5001 2Z" fill="#212121"/>
<path d="M9.58008 7.45996L10.5301 8.40996C10.2901 8.01996 9.96008 7.69996 9.58008 7.45996Z" fill="#212121"/>
</svg>
