<svg width="48" height="48" viewBox="0 0 48 48" fill="none" xmlns="http://www.w3.org/2000/svg">
<path d="M43.9998 7.25C43.9998 9.04 42.5398 10.5 40.7498 10.5H15.7998L9.2998 4H40.7498C42.5398 4 43.9998 5.46 43.9998 7.25Z" fill="#212121"/>
<path d="M6.02 4.25982L43.63 41.8598C44.12 42.3498 44.12 43.1398 43.63 43.6298C43.14 44.1198 42.35 44.1198 41.86 43.6298L36.82 38.5898C33.56 41.9198 29.03 43.9998 24 43.9998C14.06 43.9998 6 35.9398 6 25.9998V12.9998H11.23L8.73 10.4998H7.25C5.46 10.4998 4 9.03982 4 7.24982C4 6.79982 4.1 6.36982 4.27 5.97982C3.9 5.48982 3.92 4.80982 4.37 4.36982C4.81 3.91982 5.49 3.89982 5.99 4.27982C6 4.26982 6.02 4.25982 6.02 4.25982ZM28.79 30.5598L20.42 22.1898C18.95 23.2898 17.99 25.0198 17.99 26.9898C17.99 30.2998 20.68 32.9898 23.99 32.9898C25.97 32.9898 27.7 32.0298 28.79 30.5598ZM13 26.9998C13 33.0798 17.92 37.9998 24 37.9998L23.99 37.9898C27.34 37.9898 30.33 36.4898 32.35 34.1198L30.58 32.3498C29.02 34.2698 26.65 35.4998 23.99 35.4998C19.3 35.4998 15.49 31.6898 15.49 26.9998C15.49 24.3398 16.72 21.9698 18.64 20.4098L16.87 18.6398C14.51 20.6598 13 23.6498 13 26.9998Z" fill="#212121"/>
<path d="M23.8101 18.5002H24.0001L23.9901 18.4902C28.6801 18.4902 32.4901 22.3002 32.4901 26.9902V27.1802L29.0201 23.7102C28.5701 23.0202 27.9701 22.4202 27.2801 21.9702L23.8101 18.5002Z" fill="#212121"/>
<path d="M39.8398 34.54C41.2098 32 41.9998 29.09 41.9998 26V13H18.2998L21.5798 16.28C22.3598 16.1 23.1698 16 23.9998 16C30.0798 16 34.9998 20.92 34.9998 27C34.9998 27.83 34.8998 28.64 34.7198 29.42L39.8398 34.54Z" fill="#212121"/>
</svg>
