<svg width="230" height="160" viewBox="0 0 230 160" fill="none" xmlns="http://www.w3.org/2000/svg">
<path d="M115.01 141.238C144.887 141.238 169.108 117.017 169.108 87.0342C169.108 57.0513 144.78 32.8303 115.01 32.8303C85.1341 32.8303 60.9131 57.0513 60.9131 87.0342C60.9131 117.017 85.1341 141.238 115.01 141.238Z" fill="#242424"/>
<path d="M172.468 122.007C174.885 122.007 176.843 120.049 176.843 117.633C176.843 115.217 174.885 113.258 172.468 113.258C170.052 113.258 168.094 115.217 168.094 117.633C168.094 120.049 170.052 122.007 172.468 122.007Z" fill="#5C5C5C"/>
<path d="M178.871 104.935C180.521 104.935 181.859 103.598 181.859 101.948C181.859 100.298 180.521 98.96 178.871 98.96C177.221 98.96 175.884 100.298 175.884 101.948C175.884 103.598 177.221 104.935 178.871 104.935Z" fill="#5C5C5C"/>
<path d="M63.7943 51.3963C65.4443 51.3963 66.7819 50.0587 66.7819 48.4086C66.7819 46.7586 65.4443 45.421 63.7943 45.421C62.1442 45.421 60.8066 46.7586 60.8066 48.4086C60.8066 50.0587 62.1442 51.3963 63.7943 51.3963Z" fill="#5C5C5C"/>
<path d="M45.5484 109.015C48.6128 109.015 51.0969 106.53 51.0969 103.466C51.0969 100.402 48.6128 97.9177 45.5484 97.9177C42.4841 97.9177 40 100.402 40 103.466C40 106.53 42.4841 109.015 45.5484 109.015Z" fill="#5C5C5C"/>
<path d="M117.616 45.922H113.051C111.993 45.922 111.103 46.9025 111.103 48.0669V50.5796C111.103 53.1536 112.995 55.2373 115.334 55.2373C117.672 55.2373 119.565 53.1536 119.565 50.5796V48.0669C119.565 46.8412 118.674 45.922 117.616 45.922Z" fill="#BCBCBC"/>
<path d="M113.011 22.6795V22.2619C113.011 21.0077 113.992 20.0261 115.246 20.0261C116.499 20.0261 117.481 21.0077 117.481 22.2619V22.6795C121.854 23.6919 125.112 27.6114 125.112 32.2955V33.5497C125.112 44.1286 133.07 51.0539 133.07 51.0539H97.3672C97.3672 51.0539 105.38 44.1286 105.38 33.5497V32.2955C105.38 27.6114 108.637 23.6919 113.011 22.6795Z" fill="url(#paint0_linear_4376_665)"/>
<path d="M130.174 28.0711C130.174 30.1758 128.468 31.8819 126.364 31.8819C124.259 31.8819 122.553 30.1758 122.553 28.0711C122.553 25.9665 124.259 24.2603 126.364 24.2603C128.468 24.2603 130.174 25.9665 130.174 28.0711Z" fill="#D9D2C7"/>
<path fill-rule="evenodd" clip-rule="evenodd" d="M121.553 28.0711C121.553 25.4142 123.707 23.2603 126.364 23.2603C129.02 23.2603 131.174 25.4142 131.174 28.0711C131.174 30.7281 129.02 32.8819 126.364 32.8819C123.707 32.8819 121.553 30.7281 121.553 28.0711Z" fill="#CCCCCC"/>
<rect x="79.0996" y="110.895" width="76.9525" height="30.8855" rx="6" fill="url(#paint1_linear_4376_665)"/>
<path fill-rule="evenodd" clip-rule="evenodd" d="M136.067 123.798H90.4951V121.798H136.067V123.798Z" fill="#777777"/>
<path fill-rule="evenodd" clip-rule="evenodd" d="M118.164 131.936H90.4951V129.936H118.164V131.936Z" fill="#777777"/>
<rect x="70.9434" y="62.7065" width="91.1445" height="40.1831" rx="6" fill="url(#paint2_linear_4376_665)"/>
<path d="M88.3098 89.2315C83.3721 89.2315 79.4219 85.2784 79.4219 80.3371C79.4219 75.3958 83.3721 71.4428 88.3098 71.4428C93.2476 71.4428 97.1978 75.3958 97.1978 80.3371C97.1978 85.1796 93.2476 89.2315 88.3098 89.2315Z" fill="#D9D2C7"/>
<path d="M93.6421 84.8832C92.2595 83.4997 90.9757 82.7091 88.3093 82.7091C85.5442 82.7091 84.3591 83.5985 82.9766 84.8832C84.2604 86.3656 86.2355 87.3539 88.4081 87.3539C90.3832 87.3539 92.1608 86.5633 93.4446 85.2786C93.4446 85.1797 93.6421 85.0809 93.6421 84.8832C93.7409 84.8832 93.6421 84.8832 93.6421 84.8832Z" fill="#3A3A3A"/>
<path d="M88.3084 81.0289C89.9446 81.0289 91.271 79.7015 91.271 78.0641C91.271 76.4267 89.9446 75.0993 88.3084 75.0993C86.6721 75.0993 85.3457 76.4267 85.3457 78.0641C85.3457 79.7015 86.6721 81.0289 88.3084 81.0289Z" fill="#3A3A3A"/>
<path fill-rule="evenodd" clip-rule="evenodd" d="M149.067 83.7981H103.495V81.7981H149.067V83.7981Z" fill="#777777"/>
<path fill-rule="evenodd" clip-rule="evenodd" d="M149.067 75.6602H103.495V73.6602H149.067V75.6602Z" fill="#777777"/>
<path fill-rule="evenodd" clip-rule="evenodd" d="M131.164 91.936H103.495V89.936H131.164V91.936Z" fill="#777777"/>
<path d="M131.269 20.9063L132.988 17" stroke="#CCCCCC" stroke-width="2" stroke-miterlimit="10" stroke-linecap="round"/>
<path d="M134.678 24.8523L141.438 21.4158" stroke="#CCCCCC" stroke-width="2" stroke-miterlimit="10" stroke-linecap="round"/>
<defs>
<linearGradient id="paint0_linear_4376_665" x1="115.207" y1="19.3084" x2="115.207" y2="51.3884" gradientUnits="userSpaceOnUse">
<stop stop-color="#CBCBCB"/>
<stop offset="0.9964" stop-color="#818181"/>
</linearGradient>
<linearGradient id="paint1_linear_4376_665" x1="117.551" y1="110.18" x2="117.551" y2="142.113" gradientUnits="userSpaceOnUse">
<stop stop-color="#5C5C5C"/>
<stop offset="0.9964" stop-color="#4D4D4D"/>
</linearGradient>
<linearGradient id="paint2_linear_4376_665" x1="116.486" y1="61.7771" x2="116.486" y2="103.323" gradientUnits="userSpaceOnUse">
<stop stop-color="#5C5C5C"/>
<stop offset="0.9964" stop-color="#4D4D4D"/>
</linearGradient>
</defs>
</svg>
