<svg width="160" height="161" viewBox="0 0 160 161" fill="none" xmlns="http://www.w3.org/2000/svg">
<path d="M84.0108 142.238C113.887 142.238 138.108 118.017 138.108 88.0342C138.108 58.0514 113.78 33.8303 84.0108 33.8303C54.1346 33.8303 29.9136 58.0514 29.9136 88.0342C29.9136 118.017 54.1346 142.238 84.0108 142.238Z" fill="#242424"/>
<path d="M141.468 123.007C143.885 123.007 145.843 121.049 145.843 118.633C145.843 116.217 143.885 114.258 141.468 114.258C139.052 114.258 137.094 116.217 137.094 118.633C137.094 121.049 139.052 123.007 141.468 123.007Z" fill="#5C5C5C"/>
<path d="M147.871 105.935C149.521 105.935 150.859 104.598 150.859 102.948C150.859 101.298 149.521 99.96 147.871 99.96C146.221 99.96 144.883 101.298 144.883 102.948C144.883 104.598 146.221 105.935 147.871 105.935Z" fill="#5C5C5C"/>
<path d="M32.7943 52.3963C34.4443 52.3963 35.7819 51.0587 35.7819 49.4087C35.7819 47.7586 34.4443 46.421 32.7943 46.421C31.1442 46.421 29.8066 47.7586 29.8066 49.4087C29.8066 51.0587 31.1442 52.3963 32.7943 52.3963Z" fill="#5C5C5C"/>
<path d="M14.5484 110.015C17.6128 110.015 20.0969 107.53 20.0969 104.466C20.0969 101.402 17.6128 98.9177 14.5484 98.9177C11.4841 98.9177 9 101.402 9 104.466C9 107.53 11.4841 110.015 14.5484 110.015Z" fill="#5C5C5C"/>
<path d="M86.6163 46.922H82.0511C80.9933 46.922 80.1025 47.9025 80.1025 49.067V51.5796C80.1025 54.1536 81.9954 56.2373 84.3337 56.2373C86.672 56.2373 88.5649 54.1536 88.5649 51.5796V49.067C88.5649 47.8413 87.6741 46.922 86.6163 46.922Z" fill="#BCBCBC"/>
<path d="M82.0114 23.6795V23.2619C82.0114 22.0077 82.9925 21.0261 84.2462 21.0261C85.4999 21.0261 86.481 22.0077 86.481 23.2619V23.6795C90.8545 24.6919 94.1122 28.6114 94.1122 33.2955V34.5497C94.1122 45.1286 102.07 52.0539 102.07 52.0539H66.3677C66.3677 52.0539 74.3803 45.1286 74.3803 34.5497V33.2955C74.3803 28.6114 77.638 24.6919 82.0114 23.6795Z" fill="url(#paint0_linear_3692_28384)"/>
<path d="M99.1744 29.0711C99.1744 31.1758 97.4682 32.8819 95.3635 32.8819C93.2589 32.8819 91.5527 31.1758 91.5527 29.0711C91.5527 26.9665 93.2589 25.2603 95.3635 25.2603C97.4682 25.2603 99.1744 26.9665 99.1744 29.0711Z" fill="#D9D2C7"/>
<path fill-rule="evenodd" clip-rule="evenodd" d="M90.5527 29.0711C90.5527 26.4142 92.7066 24.2603 95.3635 24.2603C98.0205 24.2603 100.174 26.4142 100.174 29.0711C100.174 31.7281 98.0205 33.8819 95.3635 33.8819C92.7066 33.8819 90.5527 31.7281 90.5527 29.0711Z" fill="#CCCCCC"/>
<rect x="48.0991" y="111.895" width="76.9525" height="30.8855" rx="6" fill="url(#paint1_linear_3692_28384)"/>
<path fill-rule="evenodd" clip-rule="evenodd" d="M105.067 124.798H59.4946V122.798H105.067V124.798Z" fill="#777777"/>
<path fill-rule="evenodd" clip-rule="evenodd" d="M87.1635 132.936H59.4946V130.936H87.1635V132.936Z" fill="#777777"/>
<rect x="39.9434" y="63.7065" width="91.1445" height="40.1831" rx="6" fill="url(#paint2_linear_3692_28384)"/>
<path d="M57.3098 90.2315C52.3721 90.2315 48.4219 86.2785 48.4219 81.3371C48.4219 76.3958 52.3721 72.4428 57.3098 72.4428C62.2476 72.4428 66.1978 76.3958 66.1978 81.3371C66.1978 86.1796 62.2476 90.2315 57.3098 90.2315Z" fill="#D9D2C7"/>
<path d="M62.6421 85.8832C61.2595 84.4997 59.9757 83.7091 57.3093 83.7091C54.5442 83.7091 53.3591 84.5985 51.9766 85.8832C53.2604 87.3656 55.2355 88.3539 57.4081 88.3539C59.3832 88.3539 61.1608 87.5633 62.4446 86.2786C62.4446 86.1797 62.6421 86.0809 62.6421 85.8832C62.7409 85.8832 62.6421 85.8832 62.6421 85.8832Z" fill="#3A3A3A"/>
<path d="M57.3079 82.0289C58.9441 82.0289 60.2705 80.7015 60.2705 79.0641C60.2705 77.4267 58.9441 76.0993 57.3079 76.0993C55.6716 76.0993 54.3452 77.4267 54.3452 79.0641C54.3452 80.7015 55.6716 82.0289 57.3079 82.0289Z" fill="#3A3A3A"/>
<path fill-rule="evenodd" clip-rule="evenodd" d="M118.067 84.7981H72.4946V82.7981H118.067V84.7981Z" fill="#777777"/>
<path fill-rule="evenodd" clip-rule="evenodd" d="M118.067 76.6602H72.4946V74.6602H118.067V76.6602Z" fill="#777777"/>
<path fill-rule="evenodd" clip-rule="evenodd" d="M100.163 92.936H72.4946V90.936H100.163V92.936Z" fill="#777777"/>
<path d="M100.268 21.9063L101.988 18" stroke="#CCCCCC" stroke-width="2" stroke-miterlimit="10" stroke-linecap="round"/>
<path d="M103.678 25.8523L110.438 22.4158" stroke="#CCCCCC" stroke-width="2" stroke-miterlimit="10" stroke-linecap="round"/>
<defs>
<linearGradient id="paint0_linear_3692_28384" x1="84.2074" y1="20.3084" x2="84.2074" y2="52.3884" gradientUnits="userSpaceOnUse">
<stop stop-color="#CBCBCB"/>
<stop offset="0.9964" stop-color="#818181"/>
</linearGradient>
<linearGradient id="paint1_linear_3692_28384" x1="86.5503" y1="111.18" x2="86.5503" y2="143.113" gradientUnits="userSpaceOnUse">
<stop stop-color="#5C5C5C"/>
<stop offset="0.9964" stop-color="#4D4D4D"/>
</linearGradient>
<linearGradient id="paint2_linear_3692_28384" x1="85.4859" y1="62.7771" x2="85.4859" y2="104.323" gradientUnits="userSpaceOnUse">
<stop stop-color="#5C5C5C"/>
<stop offset="0.9964" stop-color="#4D4D4D"/>
</linearGradient>
</defs>
</svg>
