<svg width="230" height="160" viewBox="0 0 230 160" fill="none" xmlns="http://www.w3.org/2000/svg">
<path d="M115.01 141.738C144.887 141.738 169.108 117.517 169.108 87.5343C169.108 57.5514 144.78 33.3303 115.01 33.3303C85.1341 33.3303 60.9131 57.5514 60.9131 87.5343C60.9131 117.517 85.1341 141.738 115.01 141.738Z" fill="#EBEBEB"/>
<path d="M172.468 122.507C174.885 122.507 176.843 120.549 176.843 118.133C176.843 115.717 174.885 113.758 172.468 113.758C170.052 113.758 168.094 115.717 168.094 118.133C168.094 120.549 170.052 122.507 172.468 122.507Z" fill="#E8DFD3"/>
<path d="M178.871 105.435C180.521 105.435 181.859 104.098 181.859 102.448C181.859 100.798 180.521 99.46 178.871 99.46C177.221 99.46 175.884 100.798 175.884 102.448C175.884 104.098 177.221 105.435 178.871 105.435Z" fill="#E8DFD3"/>
<path d="M63.7943 51.8963C65.4443 51.8963 66.7819 50.5587 66.7819 48.9087C66.7819 47.2587 65.4443 45.9211 63.7943 45.9211C62.1442 45.9211 60.8066 47.2587 60.8066 48.9087C60.8066 50.5587 62.1442 51.8963 63.7943 51.8963Z" fill="#E8DFD3"/>
<path d="M45.5484 109.515C48.6128 109.515 51.0969 107.03 51.0969 103.966C51.0969 100.902 48.6128 98.4177 45.5484 98.4177C42.4841 98.4177 40 100.902 40 103.966C40 107.03 42.4841 109.515 45.5484 109.515Z" fill="#E8DFD3"/>
<g filter="url(#filter0_dd_3692_28347)">
<path d="M117.615 46.422H113.05C111.992 46.422 111.102 47.4026 111.102 48.567V51.0796C111.102 53.6536 112.994 55.7373 115.333 55.7373C117.671 55.7373 119.564 53.6536 119.564 51.0796V48.567C119.564 47.3413 118.673 46.422 117.615 46.422Z" fill="#FCFCFC"/>
<path d="M113.011 23.1795V22.7619C113.011 21.5077 113.992 20.5261 115.246 20.5261C116.499 20.5261 117.481 21.5077 117.481 22.7619V23.1795C121.854 24.1919 125.112 28.1114 125.112 32.7955V34.0497C125.112 44.6286 133.07 51.5539 133.07 51.5539H97.3672C97.3672 51.5539 105.38 44.6286 105.38 34.0497V32.7955C105.38 28.1114 108.637 24.1919 113.011 23.1795Z" fill="url(#paint0_linear_3692_28347)"/>
</g>
<path d="M126.364 23.7603C123.707 23.7603 121.553 25.9142 121.553 28.5711C121.553 31.2281 123.707 33.3819 126.364 33.3819C129.02 33.3819 131.174 31.2281 131.174 28.5711C131.174 25.9142 129.02 23.7603 126.364 23.7603Z" fill="#D9D2C7"/>
<g filter="url(#filter1_d_3692_28347)">
<rect x="79.0996" y="111.395" width="76.9525" height="30.8855" rx="6" fill="url(#paint1_linear_3692_28347)"/>
</g>
<path fill-rule="evenodd" clip-rule="evenodd" d="M136.126 124.161H90.0918V122.161H136.126V124.161Z" fill="#EDE5DA"/>
<path fill-rule="evenodd" clip-rule="evenodd" d="M116.888 132.25H90.0918V130.25H116.888V132.25Z" fill="#EDE5DA"/>
<g filter="url(#filter2_d_3692_28347)">
<rect x="70.9434" y="63.2065" width="91.1445" height="40.1831" rx="6" fill="url(#paint2_linear_3692_28347)"/>
</g>
<path d="M88.3098 89.7315C83.3721 89.7315 79.4219 85.7785 79.4219 80.8372C79.4219 75.8959 83.3721 71.9428 88.3098 71.9428C93.2476 71.9428 97.1978 75.8959 97.1978 80.8372C97.1978 85.6796 93.2476 89.7315 88.3098 89.7315Z" fill="#D9D2C7"/>
<path d="M93.6421 85.3833C92.2595 83.9997 90.9757 83.2091 88.3093 83.2091C85.5442 83.2091 84.3591 84.0985 82.9766 85.3833C84.2604 86.8657 86.2355 87.8539 88.4081 87.8539C90.3832 87.8539 92.1608 87.0633 93.4446 85.7786C93.4446 85.6798 93.6421 85.5809 93.6421 85.3833C93.7409 85.3833 93.6421 85.3833 93.6421 85.3833Z" fill="white"/>
<path d="M88.3084 81.5289C89.9446 81.5289 91.271 80.2015 91.271 78.5641C91.271 76.9267 89.9446 75.5993 88.3084 75.5993C86.6721 75.5993 85.3457 76.9267 85.3457 78.5641C85.3457 80.2015 86.6721 81.5289 88.3084 81.5289Z" fill="white"/>
<path fill-rule="evenodd" clip-rule="evenodd" d="M149.067 84.2981H103.495V82.2981H149.067V84.2981Z" fill="#EDE5DA"/>
<path fill-rule="evenodd" clip-rule="evenodd" d="M149.067 76.1602H103.495V74.1602H149.067V76.1602Z" fill="#EDE5DA"/>
<path fill-rule="evenodd" clip-rule="evenodd" d="M131.164 92.436H103.495V90.436H131.164V92.436Z" fill="#EDE5DA"/>
<path d="M131.269 21.4063L132.988 17.5" stroke="#EDE5DA" stroke-width="2" stroke-miterlimit="10" stroke-linecap="round"/>
<path d="M134.678 25.3523L141.438 21.9158" stroke="#EDE5DA" stroke-width="2" stroke-miterlimit="10" stroke-linecap="round"/>
<defs>
<filter id="filter0_dd_3692_28347" x="81.3672" y="2.52612" width="67.7021" height="67.2112" filterUnits="userSpaceOnUse" color-interpolation-filters="sRGB">
<feFlood flood-opacity="0" result="BackgroundImageFix"/>
<feColorMatrix in="SourceAlpha" type="matrix" values="0 0 0 0 0 0 0 0 0 0 0 0 0 0 0 0 0 0 127 0" result="hardAlpha"/>
<feOffset dy="-2"/>
<feGaussianBlur stdDeviation="8"/>
<feColorMatrix type="matrix" values="0 0 0 0 0.576471 0 0 0 0 0.501961 0 0 0 0 0.396078 0 0 0 0.16 0"/>
<feBlend mode="normal" in2="BackgroundImageFix" result="effect1_dropShadow_3692_28347"/>
<feColorMatrix in="SourceAlpha" type="matrix" values="0 0 0 0 0 0 0 0 0 0 0 0 0 0 0 0 0 0 127 0" result="hardAlpha"/>
<feOffset/>
<feGaussianBlur stdDeviation="1.5"/>
<feComposite in2="hardAlpha" operator="out"/>
<feColorMatrix type="matrix" values="0 0 0 0 0 0 0 0 0 0 0 0 0 0 0 0 0 0 0.16 0"/>
<feBlend mode="normal" in2="effect1_dropShadow_3692_28347" result="effect2_dropShadow_3692_28347"/>
<feBlend mode="normal" in="SourceGraphic" in2="effect2_dropShadow_3692_28347" result="shape"/>
</filter>
<filter id="filter1_d_3692_28347" x="63.0996" y="95.3948" width="108.952" height="62.8855" filterUnits="userSpaceOnUse" color-interpolation-filters="sRGB">
<feFlood flood-opacity="0" result="BackgroundImageFix"/>
<feColorMatrix in="SourceAlpha" type="matrix" values="0 0 0 0 0 0 0 0 0 0 0 0 0 0 0 0 0 0 127 0" result="hardAlpha"/>
<feOffset/>
<feGaussianBlur stdDeviation="8"/>
<feColorMatrix type="matrix" values="0 0 0 0 0.576471 0 0 0 0 0.501961 0 0 0 0 0.396078 0 0 0 0.24 0"/>
<feBlend mode="normal" in2="BackgroundImageFix" result="effect1_dropShadow_3692_28347"/>
<feBlend mode="normal" in="SourceGraphic" in2="effect1_dropShadow_3692_28347" result="shape"/>
</filter>
<filter id="filter2_d_3692_28347" x="54.9434" y="51.2065" width="123.145" height="72.1831" filterUnits="userSpaceOnUse" color-interpolation-filters="sRGB">
<feFlood flood-opacity="0" result="BackgroundImageFix"/>
<feColorMatrix in="SourceAlpha" type="matrix" values="0 0 0 0 0 0 0 0 0 0 0 0 0 0 0 0 0 0 127 0" result="hardAlpha"/>
<feOffset dy="4"/>
<feGaussianBlur stdDeviation="8"/>
<feColorMatrix type="matrix" values="0 0 0 0 0.576471 0 0 0 0 0.501961 0 0 0 0 0.396078 0 0 0 0.37 0"/>
<feBlend mode="normal" in2="BackgroundImageFix" result="effect1_dropShadow_3692_28347"/>
<feBlend mode="normal" in="SourceGraphic" in2="effect1_dropShadow_3692_28347" result="shape"/>
</filter>
<linearGradient id="paint0_linear_3692_28347" x1="115.207" y1="19.8084" x2="115.207" y2="51.8884" gradientUnits="userSpaceOnUse">
<stop stop-color="#FDFEFF"/>
<stop offset="0.9964" stop-color="#F5F2EC"/>
</linearGradient>
<linearGradient id="paint1_linear_3692_28347" x1="117.551" y1="110.68" x2="117.551" y2="142.613" gradientUnits="userSpaceOnUse">
<stop stop-color="#FDFEFF"/>
<stop offset="0.9964" stop-color="#F5F2EC"/>
</linearGradient>
<linearGradient id="paint2_linear_3692_28347" x1="116.486" y1="62.2771" x2="116.486" y2="103.823" gradientUnits="userSpaceOnUse">
<stop stop-color="#FDFEFF"/>
<stop offset="0.9964" stop-color="#F5F2EC"/>
</linearGradient>
</defs>
</svg>
