<svg width="160" height="161" viewBox="0 0 160 161" fill="none" xmlns="http://www.w3.org/2000/svg">
<path d="M80.0108 142.238C109.887 142.238 134.108 118.017 134.108 88.0343C134.108 58.0514 109.78 33.8303 80.0108 33.8303C50.1346 33.8303 25.9136 58.0514 25.9136 88.0343C25.9136 118.017 50.1346 142.238 80.0108 142.238Z" fill="#F0F0F0"/>
<path d="M137.468 123.007C139.885 123.007 141.843 121.049 141.843 118.633C141.843 116.217 139.885 114.258 137.468 114.258C135.052 114.258 133.094 116.217 133.094 118.633C133.094 121.049 135.052 123.007 137.468 123.007Z" fill="#E8DFD3"/>
<path d="M143.871 105.935C145.521 105.935 146.859 104.598 146.859 102.948C146.859 101.298 145.521 99.96 143.871 99.96C142.221 99.96 140.883 101.298 140.883 102.948C140.883 104.598 142.221 105.935 143.871 105.935Z" fill="#E8DFD3"/>
<path d="M28.7943 52.3963C30.4443 52.3963 31.7819 51.0587 31.7819 49.4086C31.7819 47.7586 30.4443 46.421 28.7943 46.421C27.1442 46.421 25.8066 47.7586 25.8066 49.4086C25.8066 51.0587 27.1442 52.3963 28.7943 52.3963Z" fill="#E8DFD3"/>
<path d="M10.5484 110.015C13.6128 110.015 16.0969 107.53 16.0969 104.466C16.0969 101.402 13.6128 98.9177 10.5484 98.9177C7.48412 98.9177 5 101.402 5 104.466C5 107.53 7.48412 110.015 10.5484 110.015Z" fill="#E8DFD3"/>
<g filter="url(#filter0_dd_3692_28347)">
<path d="M82.6163 46.922H78.0511C76.9933 46.922 76.1025 47.9025 76.1025 49.0669V51.5796C76.1025 54.1536 77.9954 56.2373 80.3337 56.2373C82.672 56.2373 84.5649 54.1536 84.5649 51.5796V49.0669C84.5649 47.8412 83.6741 46.922 82.6163 46.922Z" fill="#FCFCFC"/>
<path d="M78.0114 23.6795V23.2619C78.0114 22.0077 78.9925 21.0261 80.2462 21.0261C81.4999 21.0261 82.481 22.0077 82.481 23.2619V23.6795C86.8545 24.6919 90.1122 28.6114 90.1122 33.2955V34.5497C90.1122 45.1286 98.0703 52.0539 98.0703 52.0539H62.3677C62.3677 52.0539 70.3803 45.1286 70.3803 34.5497V33.2955C70.3803 28.6114 73.638 24.6919 78.0114 23.6795Z" fill="url(#paint0_linear_3692_28347)"/>
</g>
<path d="M91.3635 24.2603C88.7066 24.2603 86.5527 26.4142 86.5527 29.0711C86.5527 31.7281 88.7066 33.8819 91.3635 33.8819C94.0205 33.8819 96.1744 31.7281 96.1744 29.0711C96.1744 26.4142 94.0205 24.2603 91.3635 24.2603Z" fill="#D9D2C7"/>
<g filter="url(#filter1_d_3692_28347)">
<rect x="44.0991" y="111.895" width="76.9525" height="30.8855" rx="6" fill="url(#paint1_linear_3692_28347)"/>
</g>
<path fill-rule="evenodd" clip-rule="evenodd" d="M101.125 124.661H55.0913V122.661H101.125V124.661Z" fill="#EDE5DA"/>
<path fill-rule="evenodd" clip-rule="evenodd" d="M81.8873 132.75H55.0913V130.75H81.8873V132.75Z" fill="#EDE5DA"/>
<g filter="url(#filter2_d_3692_28347)">
<rect x="35.9434" y="63.7065" width="91.1445" height="40.1831" rx="6" fill="url(#paint2_linear_3692_28347)"/>
</g>
<path d="M53.3098 90.2315C48.3721 90.2315 44.4219 86.2784 44.4219 81.3371C44.4219 76.3958 48.3721 72.4428 53.3098 72.4428C58.2476 72.4428 62.1978 76.3958 62.1978 81.3371C62.1978 86.1796 58.2476 90.2315 53.3098 90.2315Z" fill="#D9D2C7"/>
<path d="M58.6421 85.8832C57.2595 84.4997 55.9757 83.7091 53.3093 83.7091C50.5442 83.7091 49.3591 84.5985 47.9766 85.8832C49.2604 87.3656 51.2355 88.3539 53.4081 88.3539C55.3832 88.3539 57.1608 87.5633 58.4446 86.2786C58.4446 86.1797 58.6421 86.0809 58.6421 85.8832C58.7409 85.8832 58.6421 85.8832 58.6421 85.8832Z" fill="white"/>
<path d="M53.3079 82.0289C54.9441 82.0289 56.2705 80.7015 56.2705 79.0641C56.2705 77.4267 54.9441 76.0993 53.3079 76.0993C51.6716 76.0993 50.3452 77.4267 50.3452 79.0641C50.3452 80.7015 51.6716 82.0289 53.3079 82.0289Z" fill="white"/>
<path fill-rule="evenodd" clip-rule="evenodd" d="M114.067 84.7981H68.4946V82.7981H114.067V84.7981Z" fill="#EDE5DA"/>
<path fill-rule="evenodd" clip-rule="evenodd" d="M114.067 76.6602H68.4946V74.6602H114.067V76.6602Z" fill="#EDE5DA"/>
<path fill-rule="evenodd" clip-rule="evenodd" d="M96.1635 92.936H68.4946V90.936H96.1635V92.936Z" fill="#EDE5DA"/>
<path d="M96.2682 21.9063L97.9878 18" stroke="#EDE5DA" stroke-width="2" stroke-miterlimit="10" stroke-linecap="round"/>
<path d="M99.6785 25.8523L106.438 22.4158" stroke="#EDE5DA" stroke-width="2" stroke-miterlimit="10" stroke-linecap="round"/>
<defs>
<filter id="filter0_dd_3692_28347" x="46.3677" y="3.02612" width="67.7026" height="67.2112" filterUnits="userSpaceOnUse" color-interpolation-filters="sRGB">
<feFlood flood-opacity="0" result="BackgroundImageFix"/>
<feColorMatrix in="SourceAlpha" type="matrix" values="0 0 0 0 0 0 0 0 0 0 0 0 0 0 0 0 0 0 127 0" result="hardAlpha"/>
<feOffset dy="-2"/>
<feGaussianBlur stdDeviation="8"/>
<feColorMatrix type="matrix" values="0 0 0 0 0.576471 0 0 0 0 0.501961 0 0 0 0 0.396078 0 0 0 0.16 0"/>
<feBlend mode="normal" in2="BackgroundImageFix" result="effect1_dropShadow_3692_28347"/>
<feColorMatrix in="SourceAlpha" type="matrix" values="0 0 0 0 0 0 0 0 0 0 0 0 0 0 0 0 0 0 127 0" result="hardAlpha"/>
<feOffset/>
<feGaussianBlur stdDeviation="1.5"/>
<feComposite in2="hardAlpha" operator="out"/>
<feColorMatrix type="matrix" values="0 0 0 0 0 0 0 0 0 0 0 0 0 0 0 0 0 0 0.16 0"/>
<feBlend mode="normal" in2="effect1_dropShadow_3692_28347" result="effect2_dropShadow_3692_28347"/>
<feBlend mode="normal" in="SourceGraphic" in2="effect2_dropShadow_3692_28347" result="shape"/>
</filter>
<filter id="filter1_d_3692_28347" x="28.0991" y="95.8948" width="108.953" height="62.8855" filterUnits="userSpaceOnUse" color-interpolation-filters="sRGB">
<feFlood flood-opacity="0" result="BackgroundImageFix"/>
<feColorMatrix in="SourceAlpha" type="matrix" values="0 0 0 0 0 0 0 0 0 0 0 0 0 0 0 0 0 0 127 0" result="hardAlpha"/>
<feOffset/>
<feGaussianBlur stdDeviation="8"/>
<feColorMatrix type="matrix" values="0 0 0 0 0.576471 0 0 0 0 0.501961 0 0 0 0 0.396078 0 0 0 0.24 0"/>
<feBlend mode="normal" in2="BackgroundImageFix" result="effect1_dropShadow_3692_28347"/>
<feBlend mode="normal" in="SourceGraphic" in2="effect1_dropShadow_3692_28347" result="shape"/>
</filter>
<filter id="filter2_d_3692_28347" x="19.9434" y="51.7065" width="123.145" height="72.1831" filterUnits="userSpaceOnUse" color-interpolation-filters="sRGB">
<feFlood flood-opacity="0" result="BackgroundImageFix"/>
<feColorMatrix in="SourceAlpha" type="matrix" values="0 0 0 0 0 0 0 0 0 0 0 0 0 0 0 0 0 0 127 0" result="hardAlpha"/>
<feOffset dy="4"/>
<feGaussianBlur stdDeviation="8"/>
<feColorMatrix type="matrix" values="0 0 0 0 0.576471 0 0 0 0 0.501961 0 0 0 0 0.396078 0 0 0 0.37 0"/>
<feBlend mode="normal" in2="BackgroundImageFix" result="effect1_dropShadow_3692_28347"/>
<feBlend mode="normal" in="SourceGraphic" in2="effect1_dropShadow_3692_28347" result="shape"/>
</filter>
<linearGradient id="paint0_linear_3692_28347" x1="80.2074" y1="20.3084" x2="80.2074" y2="52.3884" gradientUnits="userSpaceOnUse">
<stop stop-color="#FDFEFF"/>
<stop offset="0.9964" stop-color="#F5F2EC"/>
</linearGradient>
<linearGradient id="paint1_linear_3692_28347" x1="82.5503" y1="111.18" x2="82.5503" y2="143.113" gradientUnits="userSpaceOnUse">
<stop stop-color="#FDFEFF"/>
<stop offset="0.9964" stop-color="#F5F2EC"/>
</linearGradient>
<linearGradient id="paint2_linear_3692_28347" x1="81.4859" y1="62.7771" x2="81.4859" y2="104.323" gradientUnits="userSpaceOnUse">
<stop stop-color="#FDFEFF"/>
<stop offset="0.9964" stop-color="#F5F2EC"/>
</linearGradient>
</defs>
</svg>
