<svg width="24" height="24" viewBox="0 0 24 24" fill="none" xmlns="http://www.w3.org/2000/svg">
<path d="M7.25 2C5.45507 2 4 3.45507 4 5.25V18.75C4 20.5449 5.45507 22 7.25 22H11.0956C10.6735 21.5897 10.3518 21.0755 10.1695 20.5H7.25C6.2835 20.5 5.5 19.7165 5.5 18.75V5.25C5.5 4.2835 6.2835 3.5 7.25 3.5H16.75C17.7165 3.5 18.5 4.2835 18.5 5.25V13.5204C19.1119 13.8632 19.6278 14.358 20 14.9528V5.25C20 3.45507 18.5449 2 16.75 2H7.25Z" fill="#212121"/>
<path d="M14.4752 13.5344C14.4041 13.5121 14.3285 13.5 14.25 13.5L9.75 13.5C9.33579 13.5 9 13.8358 9 14.25C9 14.6642 9.33579 15 9.75 15L12.9709 15C13.3402 14.3922 13.8582 13.8857 14.4752 13.5344Z" fill="#212121"/>
<path d="M10.9049 17H9.75C9.33579 17 9 17.3358 9 17.75C9 18.1642 9.33579 18.5 9.75 18.5H10.1123C10.2559 17.9356 10.5314 17.4232 10.9049 17Z" fill="#212121"/>
<path d="M13.25 8.25C13.25 8.94036 12.6904 9.5 12 9.5C11.3096 9.5 10.75 8.94036 10.75 8.25C10.75 7.55964 11.3096 7 12 7C12.6904 7 13.25 7.55964 13.25 8.25Z" fill="#212121"/>
<path d="M8.93435 5C7.85065 5 7.02748 5.97493 7.2091 7.04329L7.7191 10.0433C7.86211 10.8845 8.59102 11.5 9.44435 11.5H14.5557C15.409 11.5 16.1379 10.8845 16.2809 10.0433L16.7909 7.04329C16.9725 5.97493 16.1493 5 15.0657 5H8.93435ZM8.68788 6.7919C8.66194 6.63928 8.77954 6.5 8.93435 6.5H15.0657C15.2205 6.5 15.3381 6.63928 15.3121 6.7919L14.8021 9.7919C14.7817 9.91208 14.6776 10 14.5557 10H9.44435C9.32244 10 9.21831 9.91208 9.19788 9.7919L8.68788 6.7919Z" fill="#212121"/>
<path d="M13.3807 16.8059C13.5715 15.2245 14.8953 14 16.5 14C18.1047 14 19.4285 15.2245 19.6193 16.8059C20.949 16.8963 22 18.0232 22 19.4C22 20.8359 20.8567 22 19.4464 22H13.5536C12.1433 22 11 20.8359 11 19.4C11 18.0232 12.051 16.8963 13.3807 16.8059Z" fill="#212121"/>
</svg>
