<svg width="20" height="20" viewBox="0 0 20 20" fill="none" xmlns="http://www.w3.org/2000/svg">
<path d="M7 2C5.34315 2 4 3.34315 4 5V15C4 16.6569 5.34315 18 7 18H8.82056C8.55605 17.7115 8.34524 17.3726 8.20355 17H7C5.89543 17 5 16.1046 5 15V5C5 3.89543 5.89543 3 7 3H13C14.1046 3 15 3.89543 15 5V10.8316C15.373 11.0058 15.7106 11.243 16 11.5292V5C16 3.34315 14.6569 2 13 2H7Z" fill="#212121"/>
<path d="M11.0299 11.5L8 11.5C7.72386 11.5 7.5 11.7239 7.5 12C7.5 12.2761 7.72386 12.5 8 12.5L10.3003 12.5C10.4851 12.1252 10.7328 11.7871 11.0299 11.5Z" fill="#212121"/>
<path d="M8.6328 14H8C7.72386 14 7.5 14.2239 7.5 14.5C7.5 14.7761 7.72386 15 8 15H8.12761C8.23545 14.6344 8.40822 14.2964 8.6328 14Z" fill="#212121"/>
<path d="M11 7C11 7.55228 10.5523 8 10 8C9.44772 8 9 7.55228 9 7C9 6.44772 9.44772 6 10 6C10.5523 6 11 6.44772 11 7Z" fill="#212121"/>
<path d="M7.84959 4.5C7.09771 4.5 6.51598 5.15898 6.60924 5.90504L6.92174 8.40504C6.99993 9.03058 7.53168 9.5 8.16209 9.5H11.8379C12.4683 9.5 13.0001 9.03058 13.0783 8.40504L13.3908 5.90504C13.484 5.15898 12.9023 4.5 12.1504 4.5H7.84959ZM7.60152 5.78101C7.58287 5.6318 7.69921 5.5 7.84959 5.5H12.1504C12.3008 5.5 12.4171 5.6318 12.3985 5.78101L12.086 8.28101C12.0703 8.40612 11.964 8.5 11.8379 8.5H8.16209C8.03601 8.5 7.92966 8.40612 7.91402 8.28101L7.60152 5.78101Z" fill="#212121"/>
<path d="M10.9479 13.7798C11.104 12.4949 12.1871 11.5 13.5 11.5C14.8129 11.5 15.896 12.4949 16.0521 13.7798C17.1401 13.8533 18 14.7688 18 15.8875C18 17.0542 17.0646 18 15.9107 18H11.0893C9.9354 18 9 17.0542 9 15.8875C9 14.7688 9.85994 13.8533 10.9479 13.7798Z" fill="#212121"/>
</svg>
