<svg width="32" height="32" viewBox="0 0 32 32" fill="none" xmlns="http://www.w3.org/2000/svg">
<path d="M16 14C14.3431 14 13 12.6569 13 11C13 9.34315 14.3431 8 16 8C17.6569 8 19 9.34315 19 11C19 12.6569 17.6569 14 16 14ZM16 12C16.5523 12 17 11.5523 17 11C17 10.4477 16.5523 10 16 10C15.4477 10 15 10.4477 15 11C15 11.5523 15.4477 12 16 12Z" fill="#212121"/>
<path d="M4.5 6.5V25.5C4.5 27.9853 6.51472 30 9 30H14.9458C14.0486 29.0769 13.5 27.8079 13.5 26.425C13.5 25.9319 13.5696 25.4534 13.6999 25H12C11.4477 25 11 24.5523 11 24C11 23.4477 11.4477 23 12 23H14.8056C15.3902 22.348 16.1412 21.8502 16.9959 21.5792C17.0588 21.3815 17.1318 21.1882 17.2142 21H12C11.4477 21 11 20.5523 11 20C11 19.4477 11.4477 19 12 19H18.6453C19.6635 18.0701 21.0099 17.5 22.5 17.5C24.6512 17.5 26.5029 18.6881 27.5 20.4317V6.5C27.5 4.01472 25.4853 2 23 2H9C6.51472 2 4.5 4.01472 4.5 6.5ZM10.6992 7H21.3008C22.2031 7 22.9012 7.79077 22.7892 8.68605L22.1642 13.6861C22.0704 14.4367 21.4323 15 20.6758 15H11.3242C10.5677 15 9.92959 14.4367 9.83576 13.6861L9.21076 8.68605C9.09885 7.79077 9.79693 7 10.6992 7Z" fill="#212121"/>
<path d="M18.2465 22.8581C18.5066 20.6837 20.3118 19 22.5 19C24.6882 19 26.4934 20.6837 26.7535 22.8581C28.5668 22.9825 30 24.5319 30 26.425C30 28.3994 28.441 30 26.5179 30H18.4821C16.559 30 15 28.3994 15 26.425C15 24.5319 16.4332 22.9825 18.2465 22.8581Z" fill="#212121"/>
</svg>
