<svg width="28" height="28" viewBox="0 0 28 28" fill="none" xmlns="http://www.w3.org/2000/svg">
<path d="M14 11.5C12.6193 11.5 11.5 10.3807 11.5 9C11.5 7.61929 12.6193 6.5 14 6.5C15.3807 6.5 16.5 7.61929 16.5 9C16.5 10.3807 15.3807 11.5 14 11.5ZM14 10C14.5523 10 15 9.55228 15 9C15 8.44772 14.5523 8 14 8C13.4477 8 13 8.44772 13 9C13 9.55228 13.4477 10 14 10Z" fill="#212121"/>
<path d="M4.25 5.75V22.2497C4.25 24.3207 5.92893 25.9997 8 25.9997H13.3839C12.5333 25.2467 12 24.1372 12 22.9125C12 22.4174 12.087 21.9413 12.2469 21.5H10.75C10.3358 21.5 10 21.1642 10 20.75C10 20.3358 10.3358 20 10.75 20H13.1986C13.6833 19.5137 14.2899 19.1511 14.9709 18.965C15.067 18.6269 15.1988 18.3037 15.3619 18H10.75C10.3358 18 10 17.6642 10 17.25C10 16.8358 10.3358 16.5 10.75 16.5L16.619 16.5C17.413 15.8743 18.4105 15.5 19.5 15.5C21.3837 15.5 22.9923 16.6188 23.75 18.2218V5.75C23.75 3.67893 22.0711 2 20 2H8C5.92893 2 4.25 3.67894 4.25 5.75ZM9.72951 5.5H18.2705C19.1833 5.5 19.8845 6.30848 19.7554 7.21213L19.184 11.2121C19.0784 11.9511 18.4455 12.5 17.6991 12.5H10.3009C9.55447 12.5 8.92159 11.9511 8.81602 11.2121L8.24459 7.21213C8.1155 6.30848 8.81669 5.5 9.72951 5.5Z" fill="#212121"/>
<path d="M15.8136 19.832C16.0391 17.9541 17.6035 16.5 19.5 16.5C21.3965 16.5 22.9609 17.9541 23.1864 19.832C24.7579 19.9394 26 21.2775 26 22.9125C26 24.6177 24.6489 26 22.9821 26H16.0179C14.3511 26 13 24.6177 13 22.9125C13 21.2775 14.2421 19.9394 15.8136 19.832Z" fill="#212121"/>
</svg>
