<svg width="20" height="20" viewBox="0 0 20 20" fill="none" xmlns="http://www.w3.org/2000/svg">
<path d="M17 10C17 6.13401 13.866 3 10 3C6.13401 3 3 6.13401 3 10C3 13.866 6.13401 17 10 17C13.866 17 17 13.866 17 10ZM10 2C14.4183 2 18 5.58172 18 10C18 14.4183 14.4183 18 10 18C5.58172 18 2 14.4183 2 10C2 5.58172 5.58172 2 10 2ZM14 10C14 7.79086 12.2091 6 10 6C9.72386 6 9.5 5.77614 9.5 5.5C9.5 5.22386 9.72386 5 10 5C12.7614 5 15 7.23858 15 10C15 11.0272 14.6897 11.9834 14.1577 12.7781C14.0041 13.0076 13.6936 13.0691 13.4641 12.9155C13.2346 12.7619 13.1731 12.4513 13.3267 12.2219C13.752 11.5865 14 10.823 14 10Z" fill="#212121"/>
</svg>
