<svg width="20" height="20" viewBox="0 0 20 20" fill="none" xmlns="http://www.w3.org/2000/svg">
<path d="M18 10C18 5.58172 14.4183 2 10 2C5.58172 2 2 5.58172 2 10C2 14.4183 5.58172 18 10 18C14.4183 18 18 14.4183 18 10ZM14.5 10C14.5 7.51472 12.4853 5.5 10 5.5C9.72386 5.5 9.5 5.27614 9.5 5C9.5 4.72386 9.72386 4.5 10 4.5C13.0376 4.5 15.5 6.96243 15.5 10C15.5 11.2378 15.0905 12.3815 14.3997 13.3008C14.2339 13.5216 13.9204 13.5661 13.6997 13.4002C13.4789 13.2344 13.4344 12.9209 13.6003 12.7001C14.1653 11.948 14.5 11.0138 14.5 10Z" fill="#212121"/>
</svg>
