<svg width="28" height="28" viewBox="0 0 28 28" fill="none" xmlns="http://www.w3.org/2000/svg">
<path fill-rule="evenodd" clip-rule="evenodd" d="M3.75 25C4.16421 25 4.5 24.6642 4.5 24.25L4.5 3.75C4.5 3.33579 4.16422 3 3.75 3C3.33579 3 3 3.33579 3 3.75V24.25C3 24.6642 3.33579 25 3.75 25ZM11.5331 3.4056C10.0411 2.36983 8 3.4376 8 5.25389V22.7451C8 24.5686 10.0554 25.6347 11.546 24.5844L24.0501 15.7735C25.3276 14.8734 25.3209 12.9771 24.0372 12.086L11.5331 3.4056ZM9.5 5.25389C9.5 4.64846 10.1804 4.29254 10.6777 4.6378L23.1818 13.3182C23.6097 13.6152 23.6119 14.2473 23.1861 14.5474L10.682 23.3582C10.1851 23.7083 9.5 23.3529 9.5 22.7451V5.25389Z" fill="#212121"/>
</svg>
