<svg width="48" height="48" viewBox="0 0 48 48" fill="none" xmlns="http://www.w3.org/2000/svg">
<path d="M7.25 42C7.94036 42 8.5 41.4404 8.5 40.75L8.5 7.25C8.5 6.55964 7.94036 6 7.25 6C6.55965 6 6 6.55964 6 7.25L6 40.75C6 41.4404 6.55964 42 7.25 42Z" fill="#212121"/>
<path fill-rule="evenodd" clip-rule="evenodd" d="M14 38.7438V9.25704C14 6.64208 16.9311 5.09786 19.0878 6.57656L40.5919 21.3203C42.4748 22.6113 42.4748 25.3904 40.5918 26.6813L19.0877 41.4243C16.931 42.903 14 41.3587 14 38.7438ZM39.1782 23.3822L17.6741 8.63847C17.1764 8.29723 16.5 8.65359 16.5 9.25704V38.7438C16.5 39.3473 17.1764 39.7036 17.6741 39.3624L39.1782 24.6194C39.6127 24.3215 39.6127 23.6802 39.1782 23.3822Z" fill="#212121"/>
</svg>
