<svg width="24" height="24" viewBox="0 0 24 24" fill="none" xmlns="http://www.w3.org/2000/svg">
<path fill-rule="evenodd" clip-rule="evenodd" d="M9.73916 3.30937C8.57781 2.51363 7 3.34519 7 4.753V19.248C7 20.6613 8.58887 21.4917 9.7492 20.6847L20.2477 13.3831C21.253 12.6839 21.2478 11.1949 20.2376 10.5028L9.73916 3.30937ZM8.5 4.753C8.5 4.55188 8.7254 4.43309 8.89131 4.54677L19.3898 11.7402C19.5341 11.8391 19.5348 12.0518 19.3912 12.1517L8.89274 19.4532C8.72698 19.5685 8.5 19.4499 8.5 19.248V4.753Z" fill="#212121"/>
<path d="M3.75 21.001C3.33579 21.001 3 20.6652 3 20.251V3.75098C3 3.33676 3.33579 3.00098 3.75 3.00098C4.16421 3.00098 4.5 3.33676 4.5 3.75098L4.5 20.251C4.5 20.6652 4.16421 21.001 3.75 21.001Z" fill="#212121"/>
</svg>
