<svg width="16" height="16" viewBox="0 0 16 16" fill="none" xmlns="http://www.w3.org/2000/svg">
<path fill-rule="evenodd" clip-rule="evenodd" d="M6.57836 2.18598C5.91615 1.71648 5 2.19 5 3.00176V13.0026C5 13.8175 5.9226 14.2903 6.58411 13.8142L13.5845 8.77653C14.1414 8.37575 14.1385 7.54593 13.5788 7.14908L6.57836 2.18598ZM6 3.00175L13.0004 7.96486L6 13.0026L6 3.00175Z" fill="#212121"/>
<path d="M2.5 14C2.22386 14 2 13.7761 2 13.5V2.5C2 2.22386 2.22386 2 2.5 2C2.77614 2 3 2.22386 3 2.5L3 13.5C3 13.7761 2.77614 14 2.5 14Z" fill="#212121"/>
</svg>
