<svg width="32" height="32" viewBox="0 0 32 32" fill="none" xmlns="http://www.w3.org/2000/svg">
<path fill-rule="evenodd" clip-rule="evenodd" d="M5 28C5.55228 28 6 27.5523 6 27L6 5C6 4.44772 5.55229 4 5 4C4.44772 4 4 4.44772 4 5L4 27C4 27.5523 4.44772 28 5 28ZM12.8976 4.43072C11.237 3.31225 9.00098 4.50212 9.00098 6.50424V25.4955C9.00098 27.5047 11.2511 28.6931 12.9105 27.5603L26.9138 18.0009C28.3733 17.0046 28.3666 14.8498 26.9009 13.8626L12.8976 4.43072ZM11.001 6.50424C11.001 6.10381 11.4482 5.86584 11.7803 6.08953L25.7836 15.5214C26.0767 15.7188 26.0781 16.1498 25.7862 16.3491L11.7829 25.9085C11.451 26.135 11.001 25.8973 11.001 25.4955V6.50424Z" fill="#212121"/>
</svg>
