<svg width="20" height="20" viewBox="0 0 20 20" fill="none" xmlns="http://www.w3.org/2000/svg">
<path fill-rule="evenodd" clip-rule="evenodd" d="M7.94732 3.21436C7.11691 2.65676 6.00049 3.25186 6.00049 4.25211V15.7521C6.00049 16.7562 7.12471 17.3505 7.95449 16.785L16.4537 10.9921C17.1848 10.4938 17.1811 9.41464 16.4466 8.92144L7.94732 3.21436ZM7.00049 4.25211C7.00049 4.05206 7.22377 3.93304 7.38986 4.04456L15.8891 9.75164C16.036 9.85028 16.0368 10.0661 15.8905 10.1658L7.39129 15.9586C7.22533 16.0717 7.00049 15.9529 7.00049 15.7521V4.25211Z" fill="#212121"/>
<path d="M3.50049 17.0044C3.22435 17.0044 3.00049 16.7805 3.00049 16.5044V3.50439C3.00049 3.22825 3.22435 3.00439 3.50049 3.00439C3.77663 3.00439 4.00049 3.22825 4.00049 3.50439L4.00049 16.5044C4.00049 16.7805 3.77663 17.0044 3.50049 17.0044Z" fill="#212121"/>
</svg>
