<svg width="24" height="24" viewBox="0 0 24 24" fill="none" xmlns="http://www.w3.org/2000/svg">
<path d="M21.7803 3.28033C22.0732 2.98744 22.0732 2.51256 21.7803 2.21967C21.4874 1.92678 21.0126 1.92678 20.7197 2.21967L18.3959 4.54345C17.7281 4.04316 16.8986 3.74683 16 3.74683C13.7909 3.74683 12 5.53769 12 7.74683C12 9.95597 13.7909 11.7468 16 11.7468C18.2091 11.7468 20 9.95597 20 7.74683C20 6.97887 19.7836 6.26146 19.4084 5.65225L21.7803 3.28033ZM8.5 5.24683C8.5 4.83261 8.16421 4.49683 7.75 4.49683C7.33579 4.49683 7 4.83261 7 5.24683V12.7468C4.79086 12.7468 3 14.5377 3 16.7468C3 17.6455 3.29634 18.4749 3.79662 19.1427L2.21967 20.7197C1.92678 21.0126 1.92678 21.4874 2.21967 21.7803C2.51256 22.0732 2.98744 22.0732 3.28033 21.7803L4.90543 20.1552C5.51463 20.5304 6.23204 20.7468 7 20.7468C9.20914 20.7468 11 18.956 11 16.7468C11 15.0681 9.96592 13.631 8.5 13.0376V5.24683ZM16 10.2468C14.6193 10.2468 13.5 9.12754 13.5 7.74683C13.5 6.36611 14.6193 5.24683 16 5.24683C17.3807 5.24683 18.5 6.36611 18.5 7.74683C18.5 9.12754 17.3807 10.2468 16 10.2468ZM7 19.2468C5.61929 19.2468 4.5 18.1275 4.5 16.7468C4.5 15.3661 5.61929 14.2468 7 14.2468C8.38071 14.2468 9.5 15.3661 9.5 16.7468C9.5 18.1275 8.38071 19.2468 7 19.2468Z" fill="#212121"/>
</svg>
