<svg width="20" height="20" viewBox="0 0 20 20" fill="none" xmlns="http://www.w3.org/2000/svg">
<path d="M17.8536 2.14645C18.0488 2.34171 18.0488 2.65829 17.8536 2.85355L15.4454 5.26173C15.7946 5.75214 16 6.35208 16 7C16 8.65685 14.6569 10 13 10C11.3431 10 10 8.65685 10 7C10 5.34315 11.3431 4 13 4C13.6479 4 14.2479 4.2054 14.7383 4.55463L17.1464 2.14645C17.3417 1.95118 17.6583 1.95118 17.8536 2.14645ZM2.85355 17.8536L4.26173 16.4454C4.75214 16.7946 5.35208 17 6 17C7.65685 17 9 15.6569 9 14C9 12.6938 8.16519 11.5825 7 11.1707V5.5C7 5.22386 6.77614 5 6.5 5C6.22386 5 6 5.22386 6 5.5V11C4.34315 11 3 12.3431 3 14C3 14.6479 3.2054 15.2479 3.55463 15.7383L2.14645 17.1464C1.95118 17.3417 1.95118 17.6583 2.14645 17.8536C2.34171 18.0488 2.65829 18.0488 2.85355 17.8536Z" fill="#212121"/>
</svg>
