<svg width="24" height="24" viewBox="0 0 24 24" fill="none" xmlns="http://www.w3.org/2000/svg">
<path d="M21.7803 3.28033C22.0732 2.98744 22.0732 2.51256 21.7803 2.21967C21.4874 1.92678 21.0126 1.92678 20.7197 2.21967L18.3959 4.54345C17.7281 4.04316 16.8986 3.74683 16 3.74683C13.7909 3.74683 12 5.53769 12 7.74683C12 9.95597 13.7909 11.7468 16 11.7468C18.2091 11.7468 20 9.95597 20 7.74683C20 6.97887 19.7836 6.26146 19.4084 5.65225L21.7803 3.28033ZM8.5 5.24683C8.5 4.83261 8.16421 4.49683 7.75 4.49683C7.33579 4.49683 7 4.83261 7 5.24683V12.7468C4.79086 12.7468 3 14.5377 3 16.7468C3 17.6455 3.29634 18.4749 3.79662 19.1427L2.21967 20.7197C1.92678 21.0126 1.92678 21.4874 2.21967 21.7803C2.51256 22.0732 2.98744 22.0732 3.28033 21.7803L4.90543 20.1552C5.51463 20.5304 6.23204 20.7468 7 20.7468C9.20914 20.7468 11 18.956 11 16.7468C11 15.0681 9.96592 13.631 8.5 13.0376V5.24683Z" fill="#212121"/>
</svg>
