<svg width="20" height="20" viewBox="0 0 20 20" fill="none" xmlns="http://www.w3.org/2000/svg">
<path d="M3.2716 6.31204C3.04574 6.48848 2.92435 6.84544 3.06604 7.23866L4.98281 12.558C5.03829 12.7119 5.18026 12.8615 5.4384 12.9439C5.70292 13.0283 6.00685 13.0102 6.24484 12.8962C6.69142 12.6823 7.20464 12.4766 7.77182 12.3165L6.03149 7.67556C5.93453 7.417 6.06553 7.1288 6.32409 7.03184C6.58265 6.93488 6.87085 7.06588 6.96781 7.32444L8.75825 12.0989C9.15422 12.0362 9.56917 12 9.99984 12C11.4819 12 12.7779 12.4282 13.7548 12.8962C13.9928 13.0102 14.2967 13.0283 14.5613 12.9439C14.8194 12.8615 14.9614 12.7119 15.0169 12.558L16.9336 7.23866C17.0753 6.84544 16.9539 6.48849 16.7281 6.31205C14.8737 4.86339 12.5015 4 9.99974 4C7.49802 4 5.12593 4.86338 3.2716 6.31204ZM8.12433 13.2565C7.59009 13.4012 7.10328 13.5938 6.67687 13.798C5.71504 14.2588 4.40357 13.9003 4.04203 12.897L2.12525 7.57766C1.85997 6.84147 2.0393 6.00576 2.65596 5.52401C4.68147 3.94162 7.26909 3 9.99974 3C12.7304 3 15.3181 3.94162 17.3437 5.52401C17.9604 6.00576 18.1397 6.84147 17.8744 7.57766L15.9576 12.897C15.5961 13.9003 14.2846 14.2588 13.3228 13.798C12.437 13.3737 11.2905 13 9.99984 13C9.69736 13 9.40281 13.0205 9.11768 13.0574L9.96781 15.3244C10.0648 15.583 9.93377 15.8712 9.67521 15.9682C9.41665 16.0651 9.12845 15.9341 9.03149 15.6756L8.12433 13.2565Z" fill="#212121"/>
</svg>
