<svg width="24" height="24" viewBox="0 0 24 24" fill="none" xmlns="http://www.w3.org/2000/svg">
<path d="M3.59549 7.60346C3.52966 7.65869 3.45266 7.8046 3.52561 8.01314L5.97148 15.0044C6.02212 15.1492 6.16132 15.3188 6.46318 15.4262C6.77374 15.5366 7.13728 15.5305 7.42458 15.4142C7.89955 15.2219 8.42915 15.0398 9.00604 14.8895L7.03874 8.98716C6.90776 8.5942 7.12014 8.16946 7.5131 8.03848C7.90606 7.90751 8.3308 8.11988 8.46177 8.51284L10.4904 14.5991C10.9718 14.536 11.476 14.5 12.0001 14.5C13.7993 14.5 15.3652 14.9241 16.576 15.4143C16.8633 15.5306 17.2268 15.5367 17.5373 15.4262C17.8391 15.3189 17.9783 15.1492 18.0289 15.0045L20.4744 8.01317C20.5473 7.80464 20.4703 7.65873 20.4045 7.60349C18.0791 5.65225 15.2409 4.5 12.0001 4.5C8.75924 4.5 5.92083 5.65224 3.59549 7.60346ZM9.48155 16.3161C8.93702 16.4527 8.43641 16.6228 7.98743 16.8046C6.69953 17.3259 5.01444 16.8112 4.55563 15.4998L2.10976 8.50847C1.85357 7.7762 2.03702 6.95306 2.6313 6.45439C5.20547 4.29439 8.37971 3 12.0001 3C15.6205 3 18.7945 4.29441 21.3687 6.45444C21.9629 6.95309 22.1464 7.77617 21.8902 8.50842L19.4448 15.4998C18.9861 16.8112 17.3011 17.326 16.0132 16.8047C14.9368 16.369 13.5637 16 12.0001 16C11.6483 16 11.3061 16.0187 10.9748 16.0526L11.9615 19.0128C12.0925 19.4058 11.8801 19.8305 11.4872 19.9615C11.0942 20.0925 10.6695 19.8801 10.5385 19.4872L9.48155 16.3161Z" fill="#212121"/>
</svg>
