<svg width="20" height="20" viewBox="0 0 20 20" fill="none" xmlns="http://www.w3.org/2000/svg">
<path d="M9.99969 3C7.26905 3 4.68146 3.94162 2.65596 5.52401C2.0393 6.00576 1.85997 6.84146 2.12525 7.57766L4.04197 12.8969C4.40352 13.9003 5.71503 14.2588 6.67687 13.798C7.10324 13.5937 7.59 13.4012 8.12418 13.2565L9.03138 15.6757C9.12834 15.9343 9.41655 16.0653 9.67511 15.9683C9.93367 15.8713 10.0647 15.5831 9.96771 15.3246L9.11753 13.0574C9.40266 13.0205 9.69722 13 9.99969 13C11.2904 13 12.437 13.3737 13.3228 13.7981C14.2846 14.2588 15.596 13.9004 15.9576 12.897L17.8744 7.57766C18.1397 6.84147 17.9603 6.00576 17.3437 5.52401C15.3181 3.94162 12.7303 3 9.99969 3ZM6.96781 7.32457L8.75819 12.0989C8.41436 12.1534 8.08484 12.228 7.77176 12.3164L6.03148 7.6757C5.93452 7.41714 6.06553 7.12893 6.32409 7.03197C6.58265 6.93501 6.87085 7.06601 6.96781 7.32457Z" fill="#212121"/>
</svg>
