<svg width="24" height="24" viewBox="0 0 24 24" fill="none" xmlns="http://www.w3.org/2000/svg">
<path d="M12 3C8.37935 3 5.21287 4.29463 2.64038 6.45497C2.04675 6.95349 1.86311 7.7758 2.11849 8.50772L4.557 15.4966C5.01495 16.8091 6.70111 17.3249 7.98977 16.8036C8.43815 16.6222 8.93796 16.4524 9.48155 16.3161L10.5386 19.4874C10.6695 19.8803 11.0943 20.0927 11.4872 19.9617C11.8802 19.8307 12.0926 19.406 11.9616 19.013L10.9748 16.0526C11.3061 16.0187 11.6483 16 12 16C13.5637 16 14.9368 16.369 16.0132 16.8047C17.301 17.326 18.986 16.8113 19.4448 15.4998L21.8903 8.50843C22.1464 7.77618 21.963 6.95309 21.3687 6.45444C18.7946 4.29441 15.6204 3 12 3ZM8.46172 8.51305L10.4903 14.5991C9.96729 14.6677 9.47122 14.7682 9.00593 14.8895L7.03869 8.98736C6.90771 8.5944 7.12009 8.16966 7.51305 8.03869C7.90601 7.90771 8.33074 8.12009 8.46172 8.51305Z" fill="#212121"/>
</svg>
