<svg width="20" height="20" viewBox="0 0 20 20" fill="none" xmlns="http://www.w3.org/2000/svg">
<path fill-rule="evenodd" clip-rule="evenodd" d="M2.85355 2.14645C2.65829 1.95118 2.34171 1.95118 2.14645 2.14645C1.95118 2.34171 1.95118 2.65829 2.14645 2.85355L3.4142 4.1213C3.15244 4.51652 3 4.99046 3 5.5V14.5C3 15.8807 4.11929 17 5.5 17H14.5C15.0095 17 15.4835 16.8476 15.8787 16.5858L17.1464 17.8536C17.3417 18.0488 17.6583 18.0488 17.8536 17.8536C18.0488 17.6583 18.0488 17.3417 17.8536 17.1464L2.85355 2.14645ZM15.1467 15.8538L13 13.7071V16H14.5C14.7316 16 14.9509 15.9475 15.1467 15.8538ZM11.2929 12L8 8.70711V12H11.2929ZM6.29289 7L4.14619 4.85329C4.0722 5.0079 4.02391 5.17716 4.00687 5.35554L4 5.5V7H6.29289ZM6.12134 4H7V4.87866L8 5.87866V4H12V7H9.12134L10.1213 8H12V9.87866L13 10.8787V8H16V12H14.1213L15.1213 13H16V13.8787L16.9752 14.8538C16.9915 14.7382 17 14.6201 17 14.5V5.5C17 4.11929 15.8807 3 14.5 3H5.5C5.37989 3 5.26177 3.00847 5.14618 3.02484L6.12134 4ZM4 14.5V13H7V16H5.5L5.35554 15.9931C4.59489 15.9204 4 15.2797 4 14.5ZM12 16H8V13H12V16ZM13 4H14.5L14.6445 4.00687C15.4051 4.07955 16 4.7203 16 5.5V7H13V4ZM7 8V12H4V8H7Z" fill="#212121"/>
</svg>
