<svg width="20" height="20" viewBox="0 0 20 20" fill="none" xmlns="http://www.w3.org/2000/svg">
<path fill-rule="evenodd" clip-rule="evenodd" d="M2.85355 2.14645C2.65829 1.95118 2.34171 1.95118 2.14645 2.14645C1.95118 2.34171 1.95118 2.65829 2.14645 2.85355L3.4142 4.1213C3.15244 4.51652 3 4.99046 3 5.5V7H6.29289L8 8.70711V12H11.2929L13 13.7071V17H14.5C15.0095 17 15.4835 16.8476 15.8787 16.5858L17.1464 17.8536C17.3417 18.0488 17.6583 18.0488 17.8536 17.8536C18.0488 17.6583 18.0488 17.3417 17.8536 17.1464L2.85355 2.14645ZM8 5.87866L9.12134 7H12V3H8V5.87866ZM10.1213 8L12 9.87866V8H10.1213ZM13 10.8787L14.1213 12H17V8H13V10.8787ZM15.1213 13L16.9752 14.8538C16.9915 14.7382 17 14.6201 17 14.5V13H15.1213ZM5.14618 3.02484L7 4.87866V3H5.5C5.37989 3 5.26177 3.00847 5.14618 3.02484ZM8 13H12V17H8V13ZM7 12V8H3V12H7ZM3 13H7V17H5.5C4.11929 17 3 15.8807 3 14.5V13ZM13 7H17V5.5C17 4.11929 15.8807 3 14.5 3H13V7Z" fill="#242424"/>
</svg>
