<svg width="20" height="20" viewBox="0 0 20 20" fill="none" xmlns="http://www.w3.org/2000/svg">
<path fill-rule="evenodd" clip-rule="evenodd" d="M3.25 5C2.55964 5 2 5.55964 2 6.25V9.63889C2 10.2436 2.42944 10.7481 3 10.8639V10.6389V10V6.25C3 6.11193 3.11193 6 3.25 6H13.75C13.8282 6 13.9048 6.00719 13.9791 6.02094C13.8715 5.43998 13.3621 5 12.75 5H3.25ZM4 10V11.6389C4 12.2436 4.42944 12.7481 5 12.8639V8.25C5 8.11193 5.11193 8 5.25 8H15.75C15.8282 8 15.9048 8.00719 15.9791 8.02094C15.8715 7.43998 15.3621 7 14.75 7H5.25C4.55964 7 4 7.55964 4 8.25V10ZM6 13.6389V12.5H8.69097C8.8283 12.6534 9.02787 12.75 9.25 12.75C9.47213 12.75 9.6717 12.6534 9.80903 12.5H13.5C13.7761 12.5 14 12.2761 14 12C14 11.7239 13.7761 11.5 13.5 11.5H9.80903C9.6717 11.3466 9.47213 11.25 9.25 11.25C9.02787 11.25 8.8283 11.3466 8.69097 11.5H6V10.25C6 9.55965 6.55964 9 7.25 9H16.75C17.4404 9 18 9.55964 18 10.25V13.6389C18 14.3292 17.4404 14.8889 16.75 14.8889H16.184C15.8297 14.8889 15.492 14.7385 15.2549 14.4751L15.1518 14.3605C15.1044 14.3079 15.0368 14.2778 14.966 14.2778H9.03402C8.96315 14.2778 8.89561 14.3079 8.8482 14.3605L8.7451 14.4751C8.50804 14.7385 8.17034 14.8889 7.81598 14.8889H7.25C6.55964 14.8889 6 14.3292 6 13.6389Z" fill="#212121"/>
</svg>
