<svg width="48" height="48" viewBox="0 0 48 48" fill="none" xmlns="http://www.w3.org/2000/svg">
<path d="M6.25 12.75C5.00736 12.75 4 13.7574 4 15V25.2279C4 26.4706 5.00736 27.4779 6.25 27.4779H6.5V15.25H34.0128V15C34.0128 13.7574 33.0055 12.75 31.7628 12.75H6.25Z" fill="#212121"/>
<path d="M11.25 17.75H36.7628C38.0055 17.75 39.0128 18.7574 39.0128 20V20.25H11.5V32.4779H11.25C10.0074 32.4779 9 31.4706 9 30.2279V20C9 18.7574 10.0074 17.75 11.25 17.75Z" fill="#212121"/>
<path d="M16.2372 22.7372C14.9945 22.7372 13.9872 23.7445 13.9872 24.9872V35.2151C13.9872 36.4577 14.9945 37.4651 16.2372 37.4651H18.9187C19.5566 37.4651 20.1645 37.1944 20.5912 36.7203L21.2964 35.9366H36.6907L37.396 36.7203C37.8227 37.1944 38.4306 37.4651 39.0684 37.4651H41.75C42.9926 37.4651 44 36.4577 44 35.2151V24.9872C44 23.7445 42.9926 22.7372 41.75 22.7372H16.2372ZM16.4872 28.75V25.2372H41.5V34.9651H39.1798L38.4745 34.1814C38.0478 33.7073 37.4399 33.4366 36.8021 33.4366H21.1851C20.5473 33.4366 19.9394 33.7073 19.5127 34.1814L18.8074 34.9651H16.4872V31.25H20.4387C20.8052 31.7072 21.3684 32 22 32C22.6316 32 23.1948 31.7072 23.5613 31.25H32.75C33.4404 31.25 34 30.6904 34 30C34 29.3096 33.4404 28.75 32.75 28.75H23.5613C23.1948 28.2928 22.6316 28 22 28C21.3684 28 20.8052 28.2928 20.4387 28.75H16.4872Z" fill="#212121"/>
</svg>
