<svg width="20" height="20" viewBox="0 0 20 20" fill="none" xmlns="http://www.w3.org/2000/svg">
<path d="M2 6.25C2 5.55964 2.55964 5 3.25 5H12.75C13.3621 5 13.8715 5.43998 13.9791 6.02094C13.9048 6.00719 13.8282 6 13.75 6H3.25C3.11193 6 3 6.11193 3 6.25V10.8639C2.42944 10.7481 2 10.2436 2 9.63889V6.25Z" fill="#212121"/>
<path d="M4 11.6389V8.25C4 7.55964 4.55964 7 5.25 7H14.75C15.3621 7 15.8715 7.43998 15.9791 8.02094C15.9048 8.00719 15.8282 8 15.75 8H5.25C5.11193 8 5 8.11193 5 8.25V12.8639C4.42944 12.7481 4 12.2436 4 11.6389Z" fill="#212121"/>
<path d="M6 13.6389C6 14.3292 6.55964 14.8889 7.25 14.8889H7.81598C8.17034 14.8889 8.50804 14.7385 8.7451 14.4751L8.8482 14.3605C8.89561 14.3079 8.96315 14.2778 9.03402 14.2778H14.966C15.0368 14.2778 15.1044 14.3079 15.1518 14.3605L15.2549 14.4751C15.492 14.7385 15.8297 14.8889 16.184 14.8889H16.75C17.4404 14.8889 18 14.3292 18 13.6389V10.25C18 9.55964 17.4404 9 16.75 9H7.25C6.55964 9 6 9.55965 6 10.25V13.6389ZM7 12.5H8.69097C8.8283 12.6534 9.02787 12.75 9.25 12.75C9.47213 12.75 9.6717 12.6534 9.80903 12.5H13.5C13.7761 12.5 14 12.2761 14 12C14 11.7239 13.7761 11.5 13.5 11.5H9.80903C9.6717 11.3466 9.47213 11.25 9.25 11.25C9.02787 11.25 8.8283 11.3466 8.69097 11.5H7V10.25C7 10.1119 7.11193 10 7.25 10H16.75C16.8881 10 17 10.1119 17 10.25V13.6389C17 13.777 16.8881 13.8889 16.75 13.8889H16.184C16.1132 13.8889 16.0456 13.8588 15.9982 13.8061L15.8951 13.6916C15.658 13.4282 15.3203 13.2778 14.966 13.2778H9.03402C8.67966 13.2778 8.34196 13.4282 8.1049 13.6916L8.0018 13.8061C7.95439 13.8588 7.88685 13.8889 7.81598 13.8889H7.25C7.11193 13.8889 7 13.777 7 13.6389V12.5Z" fill="#212121"/>
</svg>
