<svg width="24" height="24" viewBox="0 0 24 24" fill="none" xmlns="http://www.w3.org/2000/svg">
<path d="M3.5 6C2.67157 6 2 6.67157 2 7.5V11.5C2 12.3284 2.67157 13 3.5 13V7.5H16C16 6.67157 15.3284 6 14.5 6H3.5Z" fill="#212121"/>
<path d="M6.5 9C5.67157 9 5 9.67157 5 10.5V14.5C5 15.3284 5.67157 16 6.5 16V10.5H19C19 9.67157 18.3284 9 17.5 9H6.5Z" fill="#212121"/>
<path d="M8 13.5C8 12.6716 8.67157 12 9.5 12H20.5C21.3284 12 22 12.6716 22 13.5V17.5C22 18.3284 21.3284 19 20.5 19H19.7068C19.2842 19 18.8811 18.8217 18.5969 18.509L18.4182 18.3125H11.5818L11.4031 18.509C11.1189 18.8217 10.7158 19 10.2932 19H9.5C8.67157 19 8 18.3284 8 17.5V13.5ZM20.5 13.5H9.5V14.5H11.8385C12.0148 14.3444 12.2464 14.25 12.5 14.25C12.7536 14.25 12.9852 14.3444 13.1615 14.5H16C16.4142 14.5 16.75 14.8358 16.75 15.25C16.75 15.6642 16.4142 16 16 16H13.1615C12.9852 16.1556 12.7536 16.25 12.5 16.25C12.2464 16.25 12.0148 16.1556 11.8385 16H9.5V17.5H10.2932L10.4719 17.3035C10.7562 16.9908 11.1592 16.8125 11.5818 16.8125H18.4182C18.8408 16.8125 19.2439 16.9908 19.5281 17.3035L19.7068 17.5H20.5V13.5Z" fill="#212121"/>
</svg>
