<svg width="28" height="28" viewBox="0 0 28 28" fill="none" xmlns="http://www.w3.org/2000/svg">
<path d="M3.75 7C2.7835 7 2 7.7835 2 8.75V13.75C2 14.6316 2.65193 15.361 3.5 15.4823V8.75C3.5 8.61193 3.61193 8.5 3.75 8.5H19.75C19.8295 8.5 19.9078 8.5053 19.9844 8.51557C19.8699 7.65992 19.137 7 18.25 7H3.75Z" fill="#212121"/>
<path d="M6.75 10C5.7835 10 5 10.7835 5 11.75V16.75C5 17.6316 5.65193 18.361 6.5 18.4823V11.75C6.5 11.6119 6.61193 11.5 6.75 11.5H22.75C22.8295 11.5 22.9078 11.5053 22.9844 11.5156C22.8699 10.6599 22.137 10 21.25 10H6.75Z" fill="#212121"/>
<path d="M9.75 13C8.7835 13 8 13.7835 8 14.75V16.5H11.7499C11.978 16.1964 12.3411 16 12.75 16C13.1589 16 13.522 16.1964 13.7501 16.5H19.25C19.6642 16.5 20 16.8358 20 17.25C20 17.6642 19.6642 18 19.25 18H13.7501C13.5221 18.3036 13.159 18.5 12.75 18.5C12.341 18.5 11.9779 18.3036 11.7499 18H8V19.75C8 20.7165 8.7835 21.5 9.75 21.5H10.7935C11.2754 21.5 11.7361 21.3012 12.0667 20.9505L12.2996 20.7035C12.3469 20.6534 12.4127 20.625 12.4815 20.625H21.5185C21.5873 20.625 21.6531 20.6534 21.7004 20.7035L21.9333 20.9505C22.2639 21.3012 22.7246 21.5 23.2065 21.5H24.25C25.2165 21.5 26 20.7165 26 19.75V14.75C26 13.7835 25.2165 13 24.25 13H9.75Z" fill="#212121"/>
</svg>
