<svg width="32" height="32" viewBox="0 0 32 32" fill="none" xmlns="http://www.w3.org/2000/svg">
<path d="M4 7C2.89543 7 2 7.89543 2 9V15C2 16.1046 2.89543 17 4 17V9H22C22 7.89543 21.1046 7 20 7H4Z" fill="#212121"/>
<path d="M8 11H24C25.1046 11 26 11.8954 26 13H8V21C6.89543 21 6 20.1046 6 19V13C6 11.8954 6.89543 11 8 11Z" fill="#212121"/>
<path d="M28 15C29.1046 15 30 15.8954 30 17V23C30 24.1046 29.1046 25 28 25H26.7454C26.1784 25 25.6381 24.7594 25.2588 24.3379L24.9546 24H15.0454L14.7412 24.3379C14.3619 24.7594 13.8216 25 13.2546 25H12C10.8954 25 10 24.1046 10 23V17C10 15.8954 10.8954 15 12 15H28ZM12 21.0002V23H13.2546L13.5588 22.6621C13.9381 22.2406 14.4784 22 15.0454 22H24.9546C25.5216 22 26.0619 22.2406 26.4412 22.6621L26.7454 23H28V17H12V19.0002H14.3817C14.6564 18.6932 15.0556 18.5 15.5 18.5C15.9444 18.5 16.3436 18.6932 16.6183 19.0002H22.4545C23.0068 19.0002 23.4545 19.448 23.4545 20.0002C23.4545 20.5525 23.0068 21.0002 22.4545 21.0002H16.6178C16.3432 21.307 15.9441 21.5 15.5 21.5C15.0559 21.5 14.6568 21.307 14.3822 21.0002H12Z" fill="#212121"/>
</svg>
