<svg width="16" height="16" viewBox="0 0 16 16" fill="none" xmlns="http://www.w3.org/2000/svg">
<path fill-rule="evenodd" clip-rule="evenodd" d="M2.5 3.5C1.67157 3.5 1 4.17157 1 5V7C1 7.65311 1.4174 8.20873 2 8.41465V8.06598V8V5C2 4.72386 2.22386 4.5 2.5 4.5H10.5C10.6515 4.5 10.7978 4.52247 10.9357 4.56427C10.7491 3.94835 10.1769 3.5 9.5 3.5H2.5ZM3 8V9C3 9.65311 3.4174 10.2087 4 10.4146V7C4 6.72386 4.22386 6.5 4.5 6.5H12.5C12.6515 6.5 12.7978 6.52247 12.9357 6.56427C12.7491 5.94835 12.1769 5.5 11.5 5.5H4.5C3.67157 5.5 3 6.17157 3 7V8ZM10.5 9.5H5V8.5C5 7.94771 5.44772 7.5 6 7.5H14C14.5523 7.5 15 7.94771 15 8.5V11.5C15 12.0523 14.5523 12.5 14 12.5H13.3727C13.0892 12.5 12.819 12.3797 12.6294 12.169L12.4773 12H7.52268L7.37061 12.169C7.18097 12.3797 6.91081 12.5 6.62732 12.5H6C5.44772 12.5 5 12.0523 5 11.5V10.5H10.5C10.7761 10.5 11 10.2761 11 10C11 9.72386 10.7761 9.5 10.5 9.5Z" fill="#212121"/>
</svg>
