<svg width="24" height="24" viewBox="0 0 24 24" fill="none" xmlns="http://www.w3.org/2000/svg">
<path d="M11.9999 3.5C6.08197 3.5 3.39238 7.74096 2.51767 9.5343C2.4321 9.70973 2.45331 9.95064 2.63708 10.1607L11.4355 20.216C11.7343 20.5575 12.2656 20.5575 12.5644 20.216L21.3628 10.1607C21.5465 9.95064 21.5678 9.70973 21.4822 9.5343C20.6075 7.74096 17.9179 3.5 11.9999 3.5ZM1.16949 8.87671C2.13074 6.90597 5.20999 2 11.9999 2C18.7899 2 21.8691 6.90597 22.8304 8.87671C23.2164 9.66816 23.0163 10.5488 22.4916 11.1484L13.6932 21.2037C12.7968 22.2282 11.2031 22.2282 10.3066 21.2037L1.50821 11.1484C0.983589 10.5488 0.78346 9.66816 1.16949 8.87671Z" fill="#212121"/>
</svg>
