<svg width="20" height="20" viewBox="0 0 20 20" fill="none" xmlns="http://www.w3.org/2000/svg">
<path d="M9.99995 3C5.66937 3 3.10625 5.93506 2.0823 7.43159C1.88606 7.71841 1.91222 8.12003 2.17952 8.43112L9.2414 16.65C9.64042 17.1144 10.3593 17.1144 10.7584 16.65L17.8202 8.43111C18.0875 8.12001 18.1137 7.71841 17.9175 7.43159C16.8936 5.93507 14.3305 3 9.99995 3ZM1.257 6.8669C2.34586 5.2755 5.17065 2 9.99995 2C14.8293 2 17.654 5.27552 18.7428 6.86692C19.2293 7.57798 19.0994 8.47684 18.5787 9.08281L11.5168 17.3017C10.7188 18.2305 9.28097 18.2305 8.48292 17.3017L1.42105 9.08282C0.900373 8.47684 0.770481 7.57797 1.257 6.8669Z" fill="#212121"/>
</svg>
