<svg xmlns="http://www.w3.org/2000/svg" width="210" height="160" fill="none" viewBox="0 0 210 160">
  <path fill="#BCB9B3" d="m109.926 6 5.749 1.712-2.813 24.46-3.058-1.1L109.926 6Zm-.366 27.884 2.812 1.101-.366 2.324-2.813-.979.367-2.446Zm10.64-14.798 5.748 1.59-2.691 15.654-3.18-1.1.123-16.144Zm-.367 18.834 2.813 1.101-.367 2.201-2.813-.978.367-2.324Z"/>
  <g filter="url(#a)">
    <path fill="url(#b)" d="m146.451 124.985-1.258 2.69H75.028c.005-.002 4.152-1.344-3.058 0-7.338 1.345-7.338 1.101-6.727-3.547.555-4.216 4.231-8.534 7.466-13.135.64-.912.901-2.023.928-3.138.103-4.283 1.87-8.696 6.734-12.841a.798.798 0 0 0 .282-.605C77.911 67.11 91.902 75.135 104.05 71.254a.5.5 0 0 0 .123-.892.521.521 0 0 1 .09-.907l15.655-6.77c1.026-.444 2.17-.534 3.234-.191 1.899.612 5.155 1.793 8.256 3.542 3.546 2.079 6.848 4.77 7.338 8.194.611 3.914 0 9.05-.856 13.82-.734 4.28-1.59 8.194-1.835 10.762 0 .263-.035.491-.068.702-.053.345-.024.693.074 1.028.938 3.197 4.388 7.438 5.403 10.927.446 1.534.875 3.201 1.66 4.592 1.559 2.76 3.047 6.872 3.327 8.924Z"/>
  </g>
  <path fill="#E1D8C9" d="M136.5 88c-.734 4.28-1.59 8.194-1.835 10.885-1.834 3.302-4.192 5.077-8.717 7.646-.979.611-2.202 1.1-3.303 1.467-1.589.489-3.179.979-4.769 1.223-4.892.979-9.907 1.223-14.921.245-4.158-.856-8.316-2.202-12.108-4.403-1.222-.734-2.568-1.59-3.668-2.568-3.303-2.813-5.871-5.26-7.216-8.195-1.223-2.445-1.468-5.258-.856-9.05 1.467-8.072 3.424-14.186 3.424-14.186.122-.612 1.1-1.468 1.468-1.957.611-.612.978-1.346 1.59-1.957.978-1.223 2.201-2.568 3.18-3.791 2.445-2.446 5.136-4.403 8.316-5.626 5.136-1.835 10.64-1.59 15.899-.856 3.791.489 7.827 1.345 11.251 3.302 2.569 1.467 4.648 3.302 6.482 5.626.367.366.612.856.979 1.223 2.079 3.057 3.546 6.481 5.259 9.784.122 0-.455 4.828-.455 11.188Z"/>
  <g filter="url(#c)">
    <path fill="url(#d)" d="M126.559 96.869c-.978.611-2.201 1.1-3.302 1.468-1.468.489-3.18.978-4.77 1.222-4.892.979-9.906 1.224-14.92.123-4.158-.856-8.317-2.202-12.108-4.403a19.689 19.689 0 0 1-3.669-2.568c-6.237-5.26-9.54-9.173-8.072-17.245C81.016 68.33 82.6 62.82 82.95 61.637c.047-.159.08-.32.151-.47.22-.47.783-1.027 1.16-1.45.157-.176.314-.353.468-.533.477-.551.822-1.169 1.349-1.696.978-1.223 2.079-2.568 3.18-3.791 2.446-2.446 5.136-4.403 8.316-5.626 5.137-1.834 10.64-1.59 15.899-.856 3.914.49 7.827 1.345 11.252 3.302 3.057 1.712 5.381 4.036 7.338 6.849 1.91 2.81 3.304 5.928 4.846 9.073a4.8 4.8 0 0 1 .489 1.757c.156 2.047.48 7.29.29 13.63 0 8.194-4.035 11.13-11.129 15.043Z"/>
  </g>
  <path fill="#EDE5DA" d="M100.142 76.078c-1.223.856-3.057 4.158-8.194 1.467-7.215-3.913-5.38-13.697-.856-16.388 8.072-4.77 15.41-1.345 15.777 6.115.367 7.95-4.158 7.216-6.727 8.806Z"/>
  <path fill="#E1D8C9" d="M140.868 122.796c-.978 1.223-.733 3.058.612 4.036.734.49 1.467.979 1.834 2.202.856 2.446 8.684 8.194 12.72 6.971 4.158-1.223 8.683-4.281 7.582-9.295-.978-5.014-5.381-7.46-7.582-7.583-2.202-.244-9.907-1.1-12.475.857-.978.856-1.957 1.956-2.691 2.812Zm-64.33.001c.979 1.223.734 3.057-.611 4.036-.734.489-1.468.978-1.835 2.201-.856 2.446-8.683 8.194-12.719 6.971-4.036-1.223-8.683-4.28-7.582-9.295.978-5.014 5.38-7.46 7.582-7.582 2.202-.123 9.907-1.101 12.475.856 1.1.856 2.079 1.957 2.69 2.813Z"/>
  <path fill="#fff" d="M95.984 74.488c3.18.367 5.993-1.957 6.36-5.137.367-3.18-1.957-5.992-5.137-6.36-3.18-.366-5.992 1.957-6.36 5.137-.366 3.18 1.958 5.993 5.137 6.36Z"/>
  <path fill="url(#e)" d="M101.61 69.963c-.245 2.446-2.446 4.28-4.892 4.036-2.446-.245-4.28-2.446-4.036-4.892.367.367.856.734 1.345.856 1.101.122 2.08-.612 2.202-1.835.122-1.1-.612-2.079-1.713-2.201.857-.612 1.957-.856 3.058-.734 2.568.123 4.281 2.202 4.036 4.77Z"/>
  <path fill="#fff" d="M123.869 77.423c3.179.367 5.992-1.957 6.359-5.137.367-3.18-1.957-5.992-5.136-6.36-3.18-.366-5.993 1.958-6.36 5.137-.367 3.302 1.957 6.115 5.137 6.36Z"/>
  <path fill="url(#f)" d="M119.221 71.797c-.244 2.446 1.59 4.648 4.036 4.892 2.446.245 4.648-1.59 4.892-4.035-.367.366-.978.611-1.467.489-1.101-.123-1.957-1.101-1.835-2.202.122-1.1 1.101-1.834 2.202-1.834a4.7 4.7 0 0 0-2.813-1.346c-2.446-.244-4.648 1.468-5.015 4.036Z"/>
  <path fill="#BCB9B3" d="M99.53 55.042c-2.078.367-3.913.734-5.38 1.712-1.468.979-2.936 2.569-3.67 4.403 0 .123-.122.123-.244.123s-.122-.123-.122-.123c.122-.978.611-2.079 1.223-2.935.489-.978 1.345-1.712 2.323-2.324.979-.611 1.835-1.1 2.936-1.467 1.1-.123 2.201-.245 3.18.244-.123 0 .122.245-.245.367.122 0 .122 0 0 0Zm25.072 4.403c1.835.734 3.425 1.468 4.77 2.69 1.223 1.224 2.201 3.058 2.568 4.893 0 .122.123.122.245.122s.122-.122.122-.122c.123-.979-.244-2.08-.489-2.935-.367-.979-.856-1.957-1.712-2.69-.734-.735-1.468-1.468-2.446-1.958-.979-.367-2.079-.611-3.058-.489-.122.122-.122.245 0 .49 0 0-.244 0 0 0Z"/>
  <path fill="url(#g)" d="M135.487 54.064c-2.201-2.935-5.381-2.079-4.158 1.345 1.957 5.382 5.626 7.95 6.604 28.007.245 3.547 12.108-4.036 12.108-16.633 0-2.323-2.813-3.18-2.813-3.18-1.712-.489-8.194-5.014-11.741-9.539Z"/>
  <path fill="#D0C2AB" d="M34.712 63.604s-12.964-3.792-10.885.489c2.079 4.28 7.827 12.841 17 14.92 9.172 1.957 3.669-6.115 3.79-5.992l-9.905-9.417Z" opacity=".4"/>
  <g filter="url(#h)">
    <path fill="url(#i)" d="M21.014 55.287c3.302 3.67 17.122 9.05 28.374 8.561 1.59 11.74 2.813 15.288 4.892 16.755-5.626 1.468-20.791.245-22.87-11.13-10.64.49-10.396-14.186-10.396-14.186Z"/>
  </g>
  <g filter="url(#j)">
    <path fill="url(#k)" d="M167.163 98.703c3.669-2.446 10.273-13.82 11.251-23.604 10.396 0 13.576-.489 15.288-2.201.489 5.137-.489 17.734-9.295 25.194-9.784.978-17.244.611-17.244.611Z"/>
  </g>
  <g filter="url(#l)">
    <path fill="url(#m)" d="M139.645 138.695c-16.999 2.813-20.057 3.302-26.539 2.446-6.482-.856-15.532-1.957-18.59 3.914-1.345-7.705-4.402-14.798-10.028-20.18.367-.489.611-1.223.611-1.956 0-1.468-.856-2.691-2.201-3.18.245-.489.367-.979.367-1.468 0-1.834-1.468-3.424-3.424-3.424-1.101 0-2.08.489-2.691 1.345.122-.611.244-1.101.244-1.345 0-1.835-1.467-3.425-3.424-3.425-.978 0-1.957.49-2.568 1.223-.49-.733-1.223-1.223-2.202-1.223-1.467 0-2.568 1.101-2.568 2.569v1.59c-8.683-2.813-10.518-2.936-10.518-2.936 5.26-10.395 30.208-25.56 48.187-22.748 11.496 1.713 24.46 4.892 31.064 17.489-.367-.122-.734-.244-1.101-.244-.122 0-.367 0-.611.122-.612-.856-1.59-1.345-2.691-1.345a3.306 3.306 0 0 0-3.302 2.813h-.979a3.288 3.288 0 0 0-3.302 3.302c0 1.345.856 2.568 2.079 3.057-.611.612-.978 1.346-.978 2.324a3.288 3.288 0 0 0 3.302 3.302c1.223 0 2.202-.611 2.813-1.467.612.856 1.59 1.467 2.813 1.467a3.288 3.288 0 0 0 3.302-3.302v-.245c.856-.366 1.59-1.1 1.835-1.956 1.589 6.115 2.201 13.82 1.1 23.481Z"/>
  </g>
  <path fill="#fff" d="M96.962 129.767c4.77-1.467 25.072-5.992 36.69-4.647l-36.69 4.647Z"/>
  <path fill="#EDE5DA" fill-rule="evenodd" d="M112.865 127.174c-7.1 1.143-13.33 2.634-15.669 3.354l-.468-1.521c2.431-.748 8.737-2.253 15.885-3.403 7.135-1.149 15.206-1.96 21.131-1.274l-.183 1.58c-5.694-.659-13.582.119-20.696 1.264Z" clip-rule="evenodd"/>
  <path fill="#fff" d="M92.193 123.286c3.913-1.713 22.748-5.626 32.287-5.993l-32.287 5.993Z"/>
  <path fill="#EDE5DA" fill-rule="evenodd" d="M97.74 122.45c-2.47.614-4.32 1.166-5.228 1.564l-.638-1.457c1.048-.459 3.02-1.038 5.481-1.65a174.788 174.788 0 0 1 8.72-1.903c6.401-1.24 13.542-2.32 18.374-2.506l.062 1.589c-4.708.181-11.753 1.242-18.133 2.478-3.184.617-6.19 1.276-8.639 1.885Z" clip-rule="evenodd"/>
  <path fill="#fff" d="M87.668 116.07c15.532-8.684 27.762-5.015 37.79-12.719l-37.79 12.719Z"/>
  <path fill="#EDE5DA" fill-rule="evenodd" d="M108.769 110.126c-6.25 1.13-13.073 2.367-20.713 6.638l-.776-1.389c7.876-4.403 14.921-5.677 21.167-6.808l.038-.006c6.279-1.136 11.651-2.124 16.489-5.841l.969 1.261c-5.171 3.973-10.906 5.01-17.106 6.132l-.068.013Z" clip-rule="evenodd"/>
  <path fill="#fff" d="M82.653 110.566c6.604-4.525 12.23-6.604 19.813-7.215l-19.813 7.215Z"/>
  <path fill="#EDE5DA" fill-rule="evenodd" d="M102.53 104.143c-7.434.599-12.929 2.626-19.427 7.079l-.9-1.312c6.71-4.597 12.468-6.729 20.199-7.352l.128 1.585Z" clip-rule="evenodd"/>
  <path fill="#EDE5DA" d="M123.624 92.71v.612c0 .123 0 .245-.122.367-.734 1.957-3.914 4.28-7.216 4.648-3.302.366-6.727-.979-8.194-6.482-3.547 3.424-6.971 3.913-9.784 3.18-3.67-.979-6.115-3.914-6.237-4.77 0-.367 0-.734.122-1.101.856-7.95 8.561-13.575 17.244-12.597 8.683 1.1 15.043 8.317 14.187 16.144Z"/>
  <path fill="#A49884" d="M109.437 77.79a7.406 7.406 0 0 0-2.324 0c-.978.245-2.446.49-2.69 1.712-.122 1.59 3.302 3.425 4.28 3.547.979.122 4.77-.856 5.015-2.446.122-1.59-1.223-2.201-2.446-2.568-.612-.123-1.346-.367-1.835-.245Z"/>
  <path fill="#A49884" fill-rule="evenodd" d="M108.425 85.98a40.523 40.523 0 0 0-.419-4.404l.988-.152a41.45 41.45 0 0 1 .431 4.52c.029.84.023 1.671-.043 2.403-.065.717-.191 1.39-.435 1.877l-.894-.448c.157-.313.271-.832.333-1.52.061-.674.068-1.46.039-2.276Z" clip-rule="evenodd"/>
  <path fill="url(#n)" d="m89.013 53.452-.122 1.346c-.612.611-1.1 1.345-1.712 2.079-3.18 4.28-6.115 9.906-6.971 17-.245-.857-2.813-10.03-3.302-11.741a5.142 5.142 0 0 0-.245-.612v-2.568l2.324-5.137 5.992-3.057 4.036 2.69Z"/>
  <path fill="url(#o)" d="M94.394 49.661a29.853 29.853 0 0 0-5.503 5.137c-.612.611-1.101 1.345-1.713 2.079-.244-3.425-4.28-3.914-4.28-3.914-.49 3.058-3.18 6.482-6.115 9.173-2.446 2.201-5.137 3.791-6.849 3.913-.489 0-.856-.367-.611-.856 1.223-3.18.856-7.827 1.223-10.15.489-2.569 7.827-6.483 11.618-7.95 2.935-1.1 10.64.489 12.23 2.568Z"/>
  <defs>
    <linearGradient id="b" x1="107.593" x2="107.593" y1="60.464" y2="129.102" gradientUnits="userSpaceOnUse">
      <stop stop-color="#FDFEFF"/>
      <stop offset=".996" stop-color="#F5F2EC"/>
    </linearGradient>
    <linearGradient id="d" x1="108.54" x2="108.54" y1="45.423" y2="100.986" gradientUnits="userSpaceOnUse">
      <stop stop-color="#F8F6F2"/>
      <stop offset=".996" stop-color="#F5F2EC"/>
    </linearGradient>
    <linearGradient id="e" x1="101.277" x2="92.934" y1="65.163" y2="65.192" gradientUnits="userSpaceOnUse">
      <stop stop-color="#606060"/>
      <stop offset="1" stop-color="#7B7B7B"/>
    </linearGradient>
    <linearGradient id="f" x1="127.794" x2="119.472" y1="67.738" y2="67.767" gradientUnits="userSpaceOnUse">
      <stop stop-color="#606060"/>
      <stop offset="1" stop-color="#7B7B7B"/>
    </linearGradient>
    <linearGradient id="g" x1="140.263" x2="140.614" y1="51.711" y2="71.359" gradientUnits="userSpaceOnUse">
      <stop stop-color="#CAC2B4"/>
      <stop offset="0" stop-color="#B1A38D"/>
      <stop offset="1" stop-color="#998E7B"/>
    </linearGradient>
    <linearGradient id="i" x1="37.636" x2="37.636" y1="54.69" y2="81.381" gradientUnits="userSpaceOnUse">
      <stop stop-color="#FDFEFF"/>
      <stop offset=".996" stop-color="#F5F2EC"/>
    </linearGradient>
    <linearGradient id="k" x1="180.475" x2="180.475" y1="72.299" y2="99.05" gradientUnits="userSpaceOnUse">
      <stop stop-color="#FDFEFF"/>
      <stop offset=".996" stop-color="#F5F2EC"/>
    </linearGradient>
    <linearGradient id="m" x1="98.131" x2="98.131" y1="88.272" y2="145.653" gradientUnits="userSpaceOnUse">
      <stop stop-color="#FDFEFF"/>
      <stop offset=".996" stop-color="#F5F2EC"/>
    </linearGradient>
    <linearGradient id="n" x1="82.651" x2="82.932" y1="50.35" y2="64.537" gradientUnits="userSpaceOnUse">
      <stop stop-color="#CAC2B4"/>
      <stop offset="0" stop-color="#8A7E6A"/>
      <stop offset="1" stop-color="#6E6555"/>
    </linearGradient>
    <linearGradient id="o" x1="81.44" x2="81.537" y1="46.389" y2="58.249" gradientUnits="userSpaceOnUse">
      <stop stop-color="#CAC2B4"/>
      <stop offset="0" stop-color="#B1A38D"/>
      <stop offset="1" stop-color="#998E7B"/>
    </linearGradient>
    <filter id="a" width="113.45" height="98.102" x="49" y="54.285" color-interpolation-filters="sRGB" filterUnits="userSpaceOnUse">
      <feFlood flood-opacity="0" result="BackgroundImageFix"/>
      <feColorMatrix in="SourceAlpha" result="hardAlpha" values="0 0 0 0 0 0 0 0 0 0 0 0 0 0 0 0 0 0 127 0"/>
      <feOffset dy="8"/>
      <feGaussianBlur stdDeviation="8"/>
      <feColorMatrix values="0 0 0 0 0.576471 0 0 0 0 0.501961 0 0 0 0 0.396078 0 0 0 0.24 0"/>
      <feBlend in2="BackgroundImageFix" result="effect1_dropShadow_969_4890"/>
      <feBlend in="SourceGraphic" in2="effect1_dropShadow_969_4890" result="shape"/>
    </filter>
    <filter id="c" width="90.374" height="85.74" x="63.373" y="41.666" color-interpolation-filters="sRGB" filterUnits="userSpaceOnUse">
      <feFlood flood-opacity="0" result="BackgroundImageFix"/>
      <feColorMatrix in="SourceAlpha" result="hardAlpha" values="0 0 0 0 0 0 0 0 0 0 0 0 0 0 0 0 0 0 127 0"/>
      <feOffset dy="11"/>
      <feGaussianBlur stdDeviation="8"/>
      <feColorMatrix values="0 0 0 0 0.576471 0 0 0 0 0.501961 0 0 0 0 0.396078 0 0 0 0.24 0"/>
      <feBlend in2="BackgroundImageFix" result="effect1_dropShadow_969_4890"/>
      <feBlend in="SourceGraphic" in2="effect1_dropShadow_969_4890" result="shape"/>
    </filter>
    <filter id="h" width="65.266" height="57.815" x="5.014" y="43.287" color-interpolation-filters="sRGB" filterUnits="userSpaceOnUse">
      <feFlood flood-opacity="0" result="BackgroundImageFix"/>
      <feColorMatrix in="SourceAlpha" result="hardAlpha" values="0 0 0 0 0 0 0 0 0 0 0 0 0 0 0 0 0 0 127 0"/>
      <feOffset dy="4"/>
      <feGaussianBlur stdDeviation="8"/>
      <feColorMatrix values="0 0 0 0 0.576471 0 0 0 0 0.501961 0 0 0 0 0.396078 0 0 0 0.24 0"/>
      <feBlend in2="BackgroundImageFix" result="effect1_dropShadow_969_4890"/>
      <feBlend in="SourceGraphic" in2="effect1_dropShadow_969_4890" result="shape"/>
    </filter>
    <filter id="j" width="58.642" height="57.873" x="151.163" y="60.898" color-interpolation-filters="sRGB" filterUnits="userSpaceOnUse">
      <feFlood flood-opacity="0" result="BackgroundImageFix"/>
      <feColorMatrix in="SourceAlpha" result="hardAlpha" values="0 0 0 0 0 0 0 0 0 0 0 0 0 0 0 0 0 0 127 0"/>
      <feOffset dy="4"/>
      <feGaussianBlur stdDeviation="8"/>
      <feColorMatrix values="0 0 0 0 0.576471 0 0 0 0 0.501961 0 0 0 0 0.396078 0 0 0 0.24 0"/>
      <feBlend in2="BackgroundImageFix" result="effect1_dropShadow_969_4890"/>
      <feBlend in="SourceGraphic" in2="effect1_dropShadow_969_4890" result="shape"/>
    </filter>
    <filter id="l" width="100.089" height="71.499" x="48.114" y="81.556" color-interpolation-filters="sRGB" filterUnits="userSpaceOnUse">
      <feFlood flood-opacity="0" result="BackgroundImageFix"/>
      <feColorMatrix in="SourceAlpha" result="hardAlpha" values="0 0 0 0 0 0 0 0 0 0 0 0 0 0 0 0 0 0 127 0"/>
      <feOffset/>
      <feGaussianBlur stdDeviation="4"/>
      <feColorMatrix values="0 0 0 0 0.576471 0 0 0 0 0.501961 0 0 0 0 0.396078 0 0 0 0.12 0"/>
      <feBlend in2="BackgroundImageFix" result="effect1_dropShadow_969_4890"/>
      <feBlend in="SourceGraphic" in2="effect1_dropShadow_969_4890" result="shape"/>
    </filter>
  </defs>
</svg>
