<svg xmlns="http://www.w3.org/2000/svg" width="210" height="160" fill="none" viewBox="0 0 210 160">
  <path fill="#4F4F4F" d="m110.926 6 5.749 1.712-2.813 24.46-3.058-1.1L110.926 6Zm-.366 27.884 2.812 1.101-.366 2.324-2.813-.979.367-2.446Zm10.64-14.798 5.748 1.59-2.691 15.654-3.18-1.1.123-16.144Zm-.367 18.834 2.813 1.101-.367 2.201-2.813-.978.367-2.324Z"/>
  <path fill="#3A3A3A" d="M150.796 127.322H75.582s4.158-1.346-3.058 0c-7.338 1.345-7.338 1.1-6.726-3.547.611-4.647 5.014-9.417 8.438-14.554-.367-4.892 1.223-10.028 6.971-14.798v-.367c-2.812-28.007 11.986-18.834 24.338-23.482l-1.59-1.1 18.101-7.828s5.136 1.346 9.906 4.036c3.547 2.08 6.849 4.77 7.338 8.194.612 3.914 0 9.05-.856 13.82-.734 4.28-1.59 8.195-1.835 10.763 0 .489-.122.856-.122 1.223.856 4.036 6.482 10.028 5.748 13.942 1.957 2.079 4.403 8.316 4.77 11.007.489 2.691 3.791 2.691 3.791 2.691Z"/>
  <path stroke="#3A3A3A" stroke-linecap="round" stroke-linejoin="round" stroke-miterlimit="10" stroke-width="2" d="M35.712 127.444h159.112m-177.824 0h10.15"/>
  <path fill="url(#a)" d="M127.559 96.869c-.978.611-2.201 1.1-3.302 1.468-1.468.489-3.18.978-4.77 1.222-4.892.979-9.906 1.224-14.92.123-4.158-.856-8.317-2.202-12.108-4.403a19.689 19.689 0 0 1-3.669-2.568c-6.237-5.26-9.54-9.173-8.072-17.245 1.468-8.071 3.302-14.064 3.302-14.064.123-.612 1.101-1.468 1.468-1.957.611-.611.978-1.345 1.59-1.957.978-1.223 2.079-2.568 3.18-3.791 2.446-2.446 5.136-4.403 8.316-5.626 5.137-1.834 10.64-1.59 15.899-.856 3.914.49 7.827 1.345 11.252 3.302 3.057 1.712 5.381 4.036 7.338 6.849 2.079 3.057 3.546 6.482 5.259 9.906 0 0 .611 6.36.366 14.554 0 8.194-4.035 11.13-11.129 15.043Z"/>
  <path fill="#777" d="M101.142 76.078c-1.223.856-3.057 4.158-8.194 1.467-7.215-3.913-5.38-13.697-.856-16.388 8.072-4.77 15.41-1.345 15.777 6.115.367 7.95-4.158 7.216-6.727 8.806Z"/>
  <path fill="#333" d="M141.868 122.796c-.978 1.223-.733 3.058.612 4.036.734.49 1.467.979 1.834 2.202.856 2.446 8.684 8.194 12.72 6.971 4.158-1.223 8.683-4.281 7.582-9.295-.978-5.014-5.381-7.46-7.582-7.583-2.202-.244-9.907-1.1-12.475.857-.978.856-1.957 1.956-2.691 2.812Zm-64.33.001c.979 1.223.734 3.057-.611 4.036-.734.489-1.468.978-1.835 2.201-.856 2.446-8.683 8.194-12.719 6.971-4.036-1.223-8.683-4.28-7.582-9.295.978-5.014 5.38-7.46 7.582-7.582 2.202-.123 9.907-1.101 12.475.856 1.1.856 2.079 1.957 2.69 2.813Z"/>
  <path fill="url(#b)" d="M96.984 74.488c3.18.367 5.993-1.957 6.36-5.137.367-3.18-1.957-5.992-5.137-6.36-3.18-.366-5.992 1.957-6.36 5.137-.366 3.18 1.958 5.993 5.137 6.36Z"/>
  <path fill="url(#c)" d="M102.61 69.963c-.245 2.446-2.446 4.28-4.892 4.036-2.446-.245-4.28-2.446-4.036-4.892.367.367.856.734 1.345.856 1.101.122 2.08-.612 2.202-1.835.122-1.1-.612-2.079-1.713-2.201.857-.612 1.957-.856 3.058-.734 2.568.123 4.281 2.202 4.036 4.77Z"/>
  <path fill="url(#d)" d="M124.869 77.423c3.179.367 5.992-1.957 6.359-5.137.367-3.18-1.957-5.992-5.136-6.36-3.18-.366-5.993 1.958-6.36 5.137-.367 3.302 1.957 6.115 5.137 6.36Z"/>
  <path fill="url(#e)" d="M120.221 71.797c-.244 2.446 1.59 4.648 4.036 4.892 2.446.245 4.648-1.59 4.892-4.035-.367.366-.978.611-1.467.489-1.101-.123-1.957-1.101-1.835-2.202.122-1.1 1.101-1.834 2.202-1.834a4.7 4.7 0 0 0-2.813-1.346c-2.446-.244-4.648 1.468-5.015 4.036Z"/>
  <path fill="#8A8A8A" d="M100.531 55.042c-2.08.367-3.914.734-5.381 1.712-1.468.979-2.936 2.569-3.67 4.403 0 .123-.122.123-.244.123s-.122-.123-.122-.123c.122-.978.611-2.079 1.223-2.935.489-.978 1.345-1.712 2.323-2.324.979-.611 1.835-1.1 2.936-1.467 1.1-.123 2.201-.245 3.179.244-.122 0 .123.245-.244.367.122 0 .122 0 0 0Zm25.071 4.403c1.835.734 3.425 1.468 4.77 2.69 1.223 1.224 2.201 3.058 2.568 4.893 0 .122.123.122.245.122s.122-.122.122-.122c.123-.979-.244-2.08-.489-2.935-.367-.979-.856-1.957-1.712-2.69-.734-.735-1.468-1.468-2.446-1.958-.979-.367-2.079-.611-3.058-.489-.122.122-.122.245 0 .49 0 0-.244 0 0 0Z"/>
  <path fill="url(#f)" d="M136.487 54.064c-2.201-2.935-5.381-2.079-4.158 1.345 1.957 5.382 5.626 7.95 6.604 28.007.245 3.547 12.108-4.036 12.108-16.633 0-2.323-2.813-3.18-2.813-3.18-1.712-.489-8.194-5.014-11.741-9.539Z"/>
  <path fill="url(#g)" d="M35.712 63.604s-12.964-3.792-10.885.489c2.079 4.28 7.827 12.841 17 14.92 9.172 1.957 3.669-6.115 3.79-5.992l-9.905-9.417Z"/>
  <path fill="url(#h)" d="M22.014 55.287c3.302 3.67 17.122 9.05 28.374 8.561 1.59 11.74 2.813 15.288 4.892 16.755-5.626 1.468-20.791.245-22.87-11.13-10.64.49-10.396-14.186-10.396-14.186Z"/>
  <path fill="url(#i)" d="M168.163 98.703c3.669-2.446 10.273-13.82 11.251-23.604 10.396 0 13.576-.489 15.288-2.201.489 5.137-.489 17.734-9.295 25.194-9.784.978-17.244.611-17.244.611Z"/>
  <g filter="url(#j)">
    <path fill="url(#k)" d="M140.645 138.695c-16.999 2.813-20.057 3.302-26.539 2.446-6.482-.856-15.532-1.957-18.59 3.914-1.345-7.705-4.402-14.798-10.028-20.18.367-.489.611-1.223.611-1.956 0-1.468-.856-2.691-2.201-3.18.245-.489.367-.979.367-1.468 0-1.834-1.468-3.424-3.424-3.424-1.101 0-2.08.489-2.691 1.345.122-.611.244-1.101.244-1.345 0-1.835-1.467-3.425-3.424-3.425-.978 0-1.957.49-2.568 1.223-.49-.733-1.223-1.223-2.202-1.223-1.467 0-2.568 1.101-2.568 2.569v1.59c-8.683-2.813-10.518-2.936-10.518-2.936 5.26-10.395 30.208-25.56 48.187-22.748 11.496 1.713 24.46 4.892 31.064 17.489-.367-.122-.734-.244-1.101-.244-.122 0-.367 0-.611.122-.612-.856-1.59-1.345-2.691-1.345a3.306 3.306 0 0 0-3.302 2.813h-.979a3.288 3.288 0 0 0-3.302 3.302c0 1.345.856 2.568 2.079 3.057-.611.612-.978 1.346-.978 2.324a3.288 3.288 0 0 0 3.302 3.302c1.223 0 2.202-.611 2.813-1.467.612.856 1.59 1.467 2.813 1.467a3.288 3.288 0 0 0 3.302-3.302v-.245c.856-.366 1.59-1.1 1.835-1.956 1.589 6.115 2.201 13.82 1.1 23.481Z"/>
  </g>
  <path fill="#F5F2EC" fill-rule="evenodd" d="M113.865 127.174c-7.1 1.143-13.33 2.634-15.669 3.354l-.468-1.521c2.431-.748 8.737-2.253 15.885-3.403 7.135-1.149 15.206-1.96 21.131-1.274l-.183 1.58c-5.694-.659-13.582.119-20.696 1.264ZM98.74 122.45c-2.47.614-4.32 1.166-5.228 1.564l-.638-1.457c1.048-.459 3.02-1.038 5.481-1.65 2.481-.618 5.515-1.282 8.72-1.903 6.401-1.24 13.542-2.32 18.374-2.506l.062 1.589c-4.708.181-11.753 1.242-18.133 2.478-3.184.617-6.19 1.276-8.639 1.885Zm11.029-12.324c-6.25 1.13-13.073 2.367-20.713 6.638l-.776-1.389c7.876-4.403 14.921-5.677 21.167-6.808l.038-.006c6.279-1.136 11.651-2.124 16.489-5.841l.969 1.261c-5.171 3.973-10.906 5.01-17.106 6.132l-.068.013Zm-6.239-5.983c-7.434.599-12.929 2.626-19.427 7.079l-.9-1.312c6.71-4.597 12.468-6.729 20.199-7.352l.128 1.585Z" clip-rule="evenodd"/>
  <path fill="url(#l)" d="M124.624 92.71v.612c0 .123 0 .245-.122.367-.734 1.957-3.914 4.28-7.216 4.648-3.302.366-6.727-.979-8.194-6.482-3.547 3.424-6.971 3.913-9.784 3.18-3.67-.979-6.115-3.914-6.237-4.77 0-.367 0-.734.122-1.101.856-7.95 8.561-13.575 17.244-12.597 8.683 1.1 15.043 8.317 14.187 16.144Z"/>
  <path fill="#5C5C5C" d="M110.437 77.79a7.406 7.406 0 0 0-2.324 0c-.978.245-2.446.49-2.69 1.712-.122 1.59 3.302 3.425 4.28 3.547.979.122 4.77-.856 5.015-2.446.122-1.59-1.223-2.201-2.446-2.568-.612-.123-1.346-.367-1.835-.245Z"/>
  <path fill="#5C5C5C" fill-rule="evenodd" d="M109.425 85.98a40.523 40.523 0 0 0-.419-4.404l.988-.152a41.45 41.45 0 0 1 .431 4.52c.029.84.023 1.671-.043 2.403-.065.717-.191 1.39-.435 1.877l-.894-.448c.157-.313.271-.832.333-1.52.061-.674.068-1.46.039-2.276Z" clip-rule="evenodd"/>
  <path fill="url(#m)" d="m90.013 53.452-.122 1.346c-.612.611-1.1 1.345-1.712 2.079-3.18 4.28-6.115 9.906-6.971 17-.245-.857-2.813-10.03-3.302-11.741a5.142 5.142 0 0 0-.245-.612v-2.568l2.324-5.137 5.992-3.057 4.036 2.69Z"/>
  <path fill="url(#n)" d="M95.394 49.661a29.853 29.853 0 0 0-5.503 5.137c-.612.611-1.101 1.345-1.713 2.079-.244-3.425-4.28-3.914-4.28-3.914-.49 3.058-3.18 6.482-6.115 9.173-2.446 2.201-5.137 3.791-6.849 3.913-.489 0-.856-.367-.611-.856 1.223-3.18.856-7.827 1.223-10.15.489-2.569 7.827-6.483 11.618-7.95 2.935-1.1 10.64.489 12.23 2.568Z"/>
  <defs>
    <linearGradient id="a" x1="109.559" x2="109.559" y1="46.666" y2="100.406" gradientUnits="userSpaceOnUse">
      <stop stop-color="#585858"/>
      <stop offset="1" stop-color="#3B3B3B"/>
      <stop offset="1" stop-color="#454545"/>
    </linearGradient>
    <linearGradient id="b" x1="97.596" x2="97.596" y1="62.954" y2="74.526" gradientUnits="userSpaceOnUse">
      <stop stop-color="#FFFCF7"/>
      <stop offset="1" stop-color="#EFECE6"/>
    </linearGradient>
    <linearGradient id="c" x1="98.147" x2="98.147" y1="65.163" y2="74.021" gradientUnits="userSpaceOnUse">
      <stop stop-color="#474747"/>
      <stop offset="1" stop-color="#2C2C2C"/>
    </linearGradient>
    <linearGradient id="d" x1="125.48" x2="125.48" y1="65.889" y2="77.461" gradientUnits="userSpaceOnUse">
      <stop stop-color="#FFFCF7"/>
      <stop offset="1" stop-color="#EFECE6"/>
    </linearGradient>
    <linearGradient id="e" x1="124.674" x2="124.674" y1="67.738" y2="76.711" gradientUnits="userSpaceOnUse">
      <stop stop-color="#474747"/>
      <stop offset="1" stop-color="#2C2C2C"/>
    </linearGradient>
    <linearGradient id="f" x1="141.543" x2="141.543" y1="51.541" y2="84.635" gradientUnits="userSpaceOnUse">
      <stop stop-color="#A6A6A6"/>
      <stop offset=".996" stop-color="#878787"/>
    </linearGradient>
    <linearGradient id="g" x1="35.873" x2="35.873" y1="62.055" y2="79.32" gradientUnits="userSpaceOnUse">
      <stop stop-color="#585858"/>
      <stop offset="1" stop-color="#3B3B3B"/>
      <stop offset="1" stop-color="#454545"/>
    </linearGradient>
    <linearGradient id="h" x1="38.636" x2="38.636" y1="54.69" y2="81.381" gradientUnits="userSpaceOnUse">
      <stop stop-color="#A6A6A6"/>
      <stop offset=".996" stop-color="#878787"/>
    </linearGradient>
    <linearGradient id="i" x1="181.475" x2="181.475" y1="72.299" y2="99.05" gradientUnits="userSpaceOnUse">
      <stop stop-color="#A6A6A6"/>
      <stop offset=".996" stop-color="#878787"/>
    </linearGradient>
    <linearGradient id="k" x1="99.131" x2="99.131" y1="88.272" y2="145.653" gradientUnits="userSpaceOnUse">
      <stop stop-color="#A6A6A6"/>
      <stop offset=".996" stop-color="#878787"/>
    </linearGradient>
    <linearGradient id="l" x1="108.876" x2="108.876" y1="75.949" y2="98.629" gradientUnits="userSpaceOnUse">
      <stop stop-color="#919191"/>
      <stop offset=".996" stop-color="#838383"/>
    </linearGradient>
    <linearGradient id="m" x1="83.837" x2="83.837" y1="50.762" y2="73.876" gradientUnits="userSpaceOnUse">
      <stop stop-color="#3C3C3C"/>
      <stop offset="1" stop-color="#3B3B3B"/>
      <stop offset="1" stop-color="#161616"/>
    </linearGradient>
    <linearGradient id="n" x1="82.811" x2="82.811" y1="46.287" y2="66.258" gradientUnits="userSpaceOnUse">
      <stop stop-color="#A6A6A6"/>
      <stop offset=".996" stop-color="#878787"/>
    </linearGradient>
    <filter id="j" width="92.089" height="63.499" x="53.114" y="85.556" color-interpolation-filters="sRGB" filterUnits="userSpaceOnUse">
      <feFlood flood-opacity="0" result="BackgroundImageFix"/>
      <feColorMatrix in="SourceAlpha" result="hardAlpha" values="0 0 0 0 0 0 0 0 0 0 0 0 0 0 0 0 0 0 127 0"/>
      <feOffset/>
      <feGaussianBlur stdDeviation="2"/>
      <feComposite in2="hardAlpha" operator="out"/>
      <feColorMatrix values="0 0 0 0 0 0 0 0 0 0 0 0 0 0 0 0 0 0 0.25 0"/>
      <feBlend in2="BackgroundImageFix" result="effect1_dropShadow_969_4892"/>
      <feBlend in="SourceGraphic" in2="effect1_dropShadow_969_4892" result="shape"/>
    </filter>
  </defs>
</svg>
