<svg width="230" height="160" viewBox="0 0 230 160" fill="none" xmlns="http://www.w3.org/2000/svg">
<path d="M120.014 10.47L125.762 12.1822L122.95 36.6422L119.892 35.5415L120.014 10.47Z" fill="#BCB9B3"/>
<path d="M119.647 38.3542L122.46 39.455L122.093 41.7787L119.281 40.8003L119.647 38.3542Z" fill="#BCB9B3"/>
<path d="M130.288 23.5559L136.036 25.1458L133.345 40.8002L130.165 39.6995L130.288 23.5559Z" fill="#BCB9B3"/>
<path d="M129.921 42.3904L132.734 43.4911L132.367 45.6925L129.554 44.7141L129.921 42.3904Z" fill="#BCB9B3"/>
<g filter="url(#filter0_d_969_4890)">
<path d="M156.538 129.455C156.538 129.455 155.281 132.145 155.281 132.145H85.1155C85.1154 132.145 85.1151 132.145 85.1152 132.145C85.1209 132.143 89.2684 130.801 82.0577 132.145C74.7197 133.49 74.7197 133.246 75.3312 128.598C75.886 124.382 79.562 120.064 82.7965 115.463C83.4377 114.551 83.6979 113.44 83.7248 112.325C83.828 108.042 85.5946 103.629 90.4585 99.4839C90.6354 99.3332 90.741 99.1119 90.741 98.8795C87.9992 71.5804 101.99 79.6055 114.138 75.7245C114.539 75.5966 114.607 75.071 114.261 74.8316C113.924 74.5988 113.975 74.0869 114.351 73.9245L130.006 67.1545C131.032 66.711 132.176 66.6212 133.24 66.964C135.139 67.576 138.395 68.7566 141.496 70.5059C145.042 72.585 148.344 75.2756 148.834 78.7C149.445 82.6136 148.834 87.7502 147.977 92.5199C147.244 96.8004 146.388 100.714 146.143 103.282C146.143 103.545 146.108 103.773 146.075 103.984C146.022 104.329 146.051 104.677 146.149 105.012C147.087 108.209 150.537 112.45 151.552 115.939C151.998 117.473 152.427 119.14 153.212 120.531C154.771 123.291 156.259 127.403 156.538 129.455Z" fill="url(#paint0_linear_969_4890)"/>
</g>
<path d="M146.588 92.47C145.854 96.7505 144.998 100.664 144.753 103.355C142.919 106.657 140.561 108.432 136.035 111.001C135.057 111.612 133.834 112.101 132.733 112.468C131.143 112.957 129.554 113.447 127.964 113.691C123.072 114.67 118.057 114.914 113.043 113.936C108.885 113.08 104.727 111.734 100.935 109.533C99.7123 108.799 98.367 107.943 97.2663 106.965C93.9642 104.152 91.3959 101.706 90.0506 98.7705C88.8276 96.3245 88.583 93.5116 89.1945 89.7203C90.6621 81.6485 92.6189 75.5335 92.6189 75.5335C92.7412 74.922 93.7196 74.0659 94.0865 73.5767C94.698 72.9652 95.0649 72.2314 95.6764 71.6199C96.6548 70.3969 97.8778 69.0516 98.8562 67.8286C101.302 65.3826 103.993 63.4258 107.173 62.2028C112.309 60.3683 117.813 60.6129 123.072 61.3467C126.863 61.8359 130.899 62.692 134.323 64.6488C136.892 66.1164 138.971 67.9509 140.805 70.2746C141.172 70.6415 141.417 71.1307 141.784 71.4976C143.863 74.5551 145.33 77.9795 147.042 81.2816C147.165 81.2816 146.588 86.1104 146.588 92.47Z" fill="#E1D8C9"/>
<path d="M44.7998 131.914H203.912" stroke="#E4DFD9" stroke-width="2.38568" stroke-miterlimit="10" stroke-linecap="round" stroke-linejoin="round"/>
<path d="M26.0879 131.914H36.2388" stroke="#E4DFD9" stroke-width="2.38568" stroke-miterlimit="10" stroke-linecap="round" stroke-linejoin="round"/>
<g filter="url(#filter1_d_969_4890)">
<path d="M136.647 101.339C135.669 101.95 134.446 102.44 133.345 102.807C131.877 103.296 130.165 103.785 128.575 104.03C123.683 105.008 118.669 105.253 113.655 104.152C109.496 103.296 105.338 101.95 101.547 99.749C100.202 99.0152 98.9786 98.1591 97.8779 97.1807C91.6406 91.9218 88.3385 88.0082 89.8061 79.9364C91.1036 72.8004 92.6878 67.2894 93.0377 66.1074C93.0848 65.9481 93.1188 65.7872 93.1893 65.6367C93.4098 65.1661 93.9716 64.6099 94.3482 64.1874C94.5056 64.0108 94.6627 63.8335 94.8173 63.6544C95.2937 63.1025 95.639 62.485 96.1657 61.9583C97.1441 60.7353 98.2448 59.39 99.3455 58.167C101.792 55.721 104.482 53.7642 107.662 52.5412C112.799 50.7067 118.302 50.9513 123.561 51.6851C127.475 52.1743 131.388 53.0304 134.813 54.9872C137.87 56.6994 140.194 59.0231 142.151 61.836C144.061 64.6453 145.455 67.7644 146.997 70.9087C147.268 71.4606 147.44 72.0533 147.486 72.6662C147.642 74.7134 147.966 79.9555 147.776 86.296C147.776 94.4901 143.74 97.4253 136.647 101.339Z" fill="url(#paint1_linear_969_4890)"/>
</g>
<path d="M110.23 80.5478C109.007 81.4039 107.173 84.706 102.036 82.0154C94.8205 78.1018 96.655 68.3178 101.18 65.6272C109.252 60.8575 116.59 64.2819 116.957 71.7422C117.324 79.6917 112.799 78.9579 110.23 80.5478Z" fill="#EDE5DA"/>
<path d="M150.956 127.266C149.978 128.489 150.222 130.324 151.568 131.302C152.301 131.792 153.035 132.281 153.402 133.504C154.258 135.95 162.086 141.698 166.121 140.475C170.28 139.252 174.805 136.194 173.704 131.18C172.726 126.166 168.323 123.72 166.121 123.597C163.92 123.353 156.215 122.497 153.647 124.454C152.668 125.31 151.69 126.41 150.956 127.266Z" fill="#E1D8C9"/>
<path d="M86.6263 127.267C87.6047 128.49 87.3601 130.324 86.0148 131.303C85.281 131.792 84.5472 132.281 84.1803 133.504C83.3242 135.95 75.497 141.698 71.4611 140.475C67.4252 139.252 62.7778 136.195 63.8785 131.18C64.8569 126.166 69.2597 123.72 71.4611 123.598C73.6625 123.475 81.3674 122.497 83.9357 124.454C85.0364 125.31 86.0148 126.411 86.6263 127.267Z" fill="#E1D8C9"/>
<path d="M106.072 78.9579C109.252 79.3248 112.065 77.0011 112.432 73.8213C112.799 70.6415 110.475 67.8286 107.295 67.4617C104.115 67.0948 101.302 69.4185 100.936 72.5983C100.569 75.7781 102.892 78.591 106.072 78.9579Z" fill="white"/>
<path d="M111.698 74.4328C111.453 76.8788 109.252 78.7133 106.806 78.4687C104.36 78.2241 102.525 76.0227 102.77 73.5767C103.137 73.9436 103.626 74.3105 104.115 74.4328C105.216 74.5551 106.194 73.8213 106.317 72.5983C106.439 71.4976 105.705 70.5192 104.604 70.3969C105.461 69.7854 106.561 69.5408 107.662 69.6631C110.23 69.7854 111.942 71.8645 111.698 74.4328Z" fill="url(#paint2_linear_969_4890)"/>
<path d="M133.956 81.893C137.136 82.2599 139.949 79.9362 140.316 76.7564C140.683 73.5766 138.359 70.7637 135.179 70.3968C132 70.0299 129.187 72.3536 128.82 75.5334C128.453 78.8355 130.777 81.6484 133.956 81.893Z" fill="white"/>
<path d="M129.309 76.2674C129.065 78.7134 130.899 80.9148 133.345 81.1594C135.791 81.404 137.993 79.5695 138.237 77.1235C137.87 77.4904 137.259 77.735 136.77 77.6127C135.669 77.4904 134.813 76.512 134.935 75.4113C135.057 74.3106 136.036 73.5768 137.136 73.5768C136.403 72.843 135.424 72.3538 134.324 72.2315C131.878 71.9869 129.676 73.6991 129.309 76.2674Z" fill="url(#paint3_linear_969_4890)"/>
<path d="M109.619 59.5121C107.54 59.879 105.705 60.246 104.238 61.2244C102.77 62.2028 101.302 63.7927 100.569 65.6272C100.569 65.7495 100.446 65.7495 100.324 65.7495C100.202 65.7495 100.202 65.6272 100.202 65.6272C100.324 64.6488 100.813 63.5481 101.425 62.692C101.914 61.7136 102.77 60.9798 103.748 60.3683C104.727 59.7567 105.583 59.2675 106.684 58.9006C107.784 58.7783 108.885 58.656 109.863 59.1452C109.741 59.1452 109.986 59.3898 109.619 59.5121C109.741 59.5121 109.741 59.5121 109.619 59.5121Z" fill="#BCB9B3"/>
<path d="M134.69 63.9153C136.525 64.6491 138.115 65.3829 139.46 66.6059C140.683 67.8289 141.661 69.6634 142.028 71.4979C142.028 71.6202 142.151 71.6202 142.273 71.6202C142.395 71.6202 142.395 71.4979 142.395 71.4979C142.517 70.5195 142.151 69.4188 141.906 68.5627C141.539 67.5843 141.05 66.6059 140.194 65.8721C139.46 65.1383 138.726 64.4045 137.748 63.9153C136.769 63.5484 135.669 63.3038 134.69 63.4261C134.568 63.5484 134.568 63.6707 134.69 63.9153C134.69 63.9153 134.446 63.9153 134.69 63.9153Z" fill="#BCB9B3"/>
<path d="M145.575 58.5341C143.374 55.5989 140.194 56.455 141.417 59.8794C143.374 65.2606 147.043 67.8289 148.021 87.8861C148.266 91.4328 160.129 83.8502 160.129 71.2533C160.129 68.9296 157.316 68.0735 157.316 68.0735C155.604 67.5843 149.122 63.0592 145.575 58.5341Z" fill="url(#paint4_linear_969_4890)"/>
<path opacity="0.4" d="M44.7995 68.0736C44.7995 68.0736 31.8356 64.2823 33.9148 68.5628C35.9939 72.8433 41.742 81.4043 50.9145 83.4834C60.087 85.4402 54.5835 77.3684 54.7058 77.4907L44.7995 68.0736Z" fill="#D0C2AB"/>
<g filter="url(#filter2_d_969_4890)">
<path d="M31.102 59.7571C34.4041 63.4261 48.2241 68.8073 59.4757 68.3181C61.0656 80.0589 62.2886 83.6056 64.3677 85.0732C58.7419 86.5408 43.5766 85.3178 41.4975 73.9439C30.8574 74.4331 31.102 59.7571 31.102 59.7571Z" fill="url(#paint5_linear_969_4890)"/>
</g>
<g filter="url(#filter3_d_969_4890)">
<path d="M177.251 103.173C180.92 100.727 187.524 89.3533 188.502 79.5693C198.898 79.5693 202.078 79.0801 203.79 77.3679C204.279 82.5045 203.301 95.1014 194.495 102.562C184.711 103.54 177.251 103.173 177.251 103.173Z" fill="url(#paint6_linear_969_4890)"/>
</g>
<g filter="url(#filter4_d_969_4890)">
<path d="M149.733 143.165C132.733 145.978 129.676 146.467 123.194 145.611C116.712 144.755 107.662 143.654 104.604 149.525C103.259 141.82 100.202 134.727 94.5758 129.345C94.9427 128.856 95.1873 128.122 95.1873 127.389C95.1873 125.921 94.3312 124.698 92.9859 124.209C93.2305 123.72 93.3528 123.23 93.3528 122.741C93.3528 120.907 91.8852 119.317 89.9284 119.317C88.8277 119.317 87.8493 119.806 87.2378 120.662C87.3601 120.051 87.4824 119.561 87.4824 119.317C87.4824 117.482 86.0148 115.892 84.058 115.892C83.0796 115.892 82.1012 116.382 81.4897 117.115C81.0005 116.382 80.2667 115.892 79.2883 115.892C77.8207 115.892 76.72 116.993 76.72 118.461C76.72 118.705 76.72 119.317 76.72 120.051C68.0367 117.238 66.2021 117.115 66.2021 117.115C71.4611 106.72 96.4103 91.5546 114.388 94.3675C125.885 96.0797 138.848 99.2595 145.453 111.856C145.086 111.734 144.719 111.612 144.352 111.612C144.23 111.612 143.985 111.612 143.74 111.734C143.129 110.878 142.151 110.389 141.05 110.389C139.338 110.389 137.992 111.612 137.748 113.202C137.625 113.202 137.136 113.202 136.769 113.202C134.935 113.202 133.467 114.669 133.467 116.504C133.467 117.849 134.323 119.072 135.546 119.561C134.935 120.173 134.568 120.907 134.568 121.885C134.568 123.72 136.036 125.187 137.87 125.187C139.093 125.187 140.071 124.576 140.683 123.72C141.294 124.576 142.273 125.187 143.496 125.187C145.33 125.187 146.798 123.72 146.798 121.885C146.798 121.763 146.798 121.763 146.798 121.64C147.654 121.274 148.388 120.54 148.632 119.684C150.222 125.799 150.834 133.504 149.733 143.165Z" fill="url(#paint7_linear_969_4890)"/>
</g>
<path d="M107.05 134.237C111.82 132.77 132.122 128.245 143.74 129.59L107.05 134.237Z" fill="white"/>
<path fill-rule="evenodd" clip-rule="evenodd" d="M122.953 131.644C115.853 132.787 109.623 134.278 107.284 134.997L106.816 133.477C109.247 132.729 115.553 131.224 122.701 130.074C129.835 128.925 137.907 128.114 143.832 128.8L143.649 130.38C137.955 129.721 130.066 130.499 122.953 131.644Z" fill="#EDE5DA"/>
<path d="M102.281 127.756C106.194 126.043 125.029 122.13 134.568 121.763L102.281 127.756Z" fill="white"/>
<path fill-rule="evenodd" clip-rule="evenodd" d="M107.827 126.92C105.358 127.534 103.508 128.086 102.599 128.484L101.962 127.027C103.01 126.568 104.982 125.989 107.443 125.377C109.924 124.759 112.957 124.095 116.163 123.474C122.563 122.234 129.705 121.154 134.537 120.968L134.598 122.557C129.891 122.738 122.846 123.799 116.466 125.035C113.282 125.652 110.276 126.311 107.827 126.92Z" fill="#EDE5DA"/>
<path d="M97.7556 120.54C113.288 111.856 125.518 115.525 135.546 107.821L97.7556 120.54Z" fill="white"/>
<path fill-rule="evenodd" clip-rule="evenodd" d="M118.857 114.596C112.607 115.726 105.784 116.963 98.1438 121.234L97.3677 119.845C105.244 115.442 112.289 114.168 118.535 113.037L118.573 113.03C124.852 111.894 130.224 110.907 135.062 107.19L136.031 108.451C130.86 112.424 125.125 113.461 118.925 114.583L118.857 114.596Z" fill="#EDE5DA"/>
<path d="M92.7412 115.036C99.3454 110.511 104.971 108.432 112.554 107.821L92.7412 115.036Z" fill="white"/>
<path fill-rule="evenodd" clip-rule="evenodd" d="M112.618 108.613C105.184 109.212 99.6893 111.239 93.1905 115.692L92.2915 114.38C99.0012 109.783 104.758 107.651 112.49 107.028L112.618 108.613Z" fill="#EDE5DA"/>
<path d="M133.712 97.1806C133.712 97.3029 133.712 97.5475 133.712 97.6698V97.7921C133.712 97.9144 133.712 98.0367 133.59 98.159C132.856 100.116 129.676 102.44 126.374 102.806C123.072 103.173 119.647 101.828 118.18 96.3245C114.633 99.7489 111.209 100.238 108.396 99.5043C104.727 98.5259 102.281 95.5907 102.158 94.7346C102.158 94.3677 102.158 94.0008 102.281 93.6339C103.137 85.6844 110.842 80.0586 119.525 81.037C128.208 82.1377 134.568 89.3534 133.712 97.1806Z" fill="#EDE5DA"/>
<path d="M119.525 82.2599C118.791 82.1376 117.935 82.1376 117.201 82.2599C116.223 82.5045 114.755 82.7491 114.511 83.9721C114.388 85.562 117.813 87.3965 118.791 87.5188C119.77 87.6411 123.561 86.6627 123.806 85.0728C123.928 83.4829 122.583 82.8714 121.36 82.5045C120.748 82.3822 120.014 82.1376 119.525 82.2599Z" fill="#A49884"/>
<path fill-rule="evenodd" clip-rule="evenodd" d="M118.513 90.4499C118.456 88.8196 118.258 87.1145 118.094 86.0459L119.082 85.8938C119.251 86.9918 119.453 88.7368 119.513 90.4147C119.542 91.2534 119.536 92.0855 119.47 92.8164C119.405 93.5341 119.278 94.2069 119.035 94.6934L118.141 94.2462C118.297 93.9327 118.412 93.4139 118.474 92.7264C118.535 92.0521 118.542 91.2654 118.513 90.4499Z" fill="#A49884"/>
<path d="M99.1011 57.9223L98.9788 59.2676C98.3673 59.8791 97.8781 60.6129 97.2666 61.3467C94.0868 65.6272 91.1516 71.253 90.2955 78.3464C90.0509 77.4903 87.4826 68.3178 86.9934 66.6056C86.8711 66.2387 86.7488 65.9941 86.7488 65.9941V63.4258L89.0725 58.2892L95.0652 55.2317L99.1011 57.9223Z" fill="url(#paint8_linear_969_4890)"/>
<path d="M104.482 54.1311C102.77 55.3541 100.813 57.0663 98.9786 59.2677C98.3671 59.8792 97.8779 60.613 97.2664 61.3468C97.0218 57.9224 92.9859 57.4332 92.9859 57.4332C92.4967 60.4907 89.8061 63.9151 86.8709 66.6057C84.4249 68.8071 81.7343 70.397 80.0221 70.5193C79.5329 70.5193 79.166 70.1524 79.4106 69.6632C80.6336 66.4834 80.2667 61.836 80.6336 59.5123C81.1228 56.944 88.4608 53.0304 92.2521 51.5628C95.1873 50.4621 102.892 52.052 104.482 54.1311Z" fill="url(#paint9_linear_969_4890)"/>
<defs>
<filter id="filter0_d_969_4890" x="59.0879" y="58.755" width="113.45" height="98.1014" filterUnits="userSpaceOnUse" color-interpolation-filters="sRGB">
<feFlood flood-opacity="0" result="BackgroundImageFix"/>
<feColorMatrix in="SourceAlpha" type="matrix" values="0 0 0 0 0 0 0 0 0 0 0 0 0 0 0 0 0 0 127 0" result="hardAlpha"/>
<feOffset dy="8"/>
<feGaussianBlur stdDeviation="8"/>
<feColorMatrix type="matrix" values="0 0 0 0 0.576471 0 0 0 0 0.501961 0 0 0 0 0.396078 0 0 0 0.24 0"/>
<feBlend mode="normal" in2="BackgroundImageFix" result="effect1_dropShadow_969_4890"/>
<feBlend mode="normal" in="SourceGraphic" in2="effect1_dropShadow_969_4890" result="shape"/>
</filter>
<filter id="filter1_d_969_4890" x="73.4604" y="46.136" width="90.3738" height="85.7404" filterUnits="userSpaceOnUse" color-interpolation-filters="sRGB">
<feFlood flood-opacity="0" result="BackgroundImageFix"/>
<feColorMatrix in="SourceAlpha" type="matrix" values="0 0 0 0 0 0 0 0 0 0 0 0 0 0 0 0 0 0 127 0" result="hardAlpha"/>
<feOffset dy="11"/>
<feGaussianBlur stdDeviation="8"/>
<feColorMatrix type="matrix" values="0 0 0 0 0.576471 0 0 0 0 0.501961 0 0 0 0 0.396078 0 0 0 0.24 0"/>
<feBlend mode="normal" in2="BackgroundImageFix" result="effect1_dropShadow_969_4890"/>
<feBlend mode="normal" in="SourceGraphic" in2="effect1_dropShadow_969_4890" result="shape"/>
</filter>
<filter id="filter2_d_969_4890" x="23.1016" y="55.7571" width="49.2661" height="41.8157" filterUnits="userSpaceOnUse" color-interpolation-filters="sRGB">
<feFlood flood-opacity="0" result="BackgroundImageFix"/>
<feColorMatrix in="SourceAlpha" type="matrix" values="0 0 0 0 0 0 0 0 0 0 0 0 0 0 0 0 0 0 127 0" result="hardAlpha"/>
<feOffset dy="4"/>
<feGaussianBlur stdDeviation="4"/>
<feColorMatrix type="matrix" values="0 0 0 0 0.576471 0 0 0 0 0.501961 0 0 0 0 0.396078 0 0 0 0.24 0"/>
<feBlend mode="normal" in2="BackgroundImageFix" result="effect1_dropShadow_969_4890"/>
<feBlend mode="normal" in="SourceGraphic" in2="effect1_dropShadow_969_4890" result="shape"/>
</filter>
<filter id="filter3_d_969_4890" x="169.251" y="73.3679" width="42.6416" height="41.8727" filterUnits="userSpaceOnUse" color-interpolation-filters="sRGB">
<feFlood flood-opacity="0" result="BackgroundImageFix"/>
<feColorMatrix in="SourceAlpha" type="matrix" values="0 0 0 0 0 0 0 0 0 0 0 0 0 0 0 0 0 0 127 0" result="hardAlpha"/>
<feOffset dy="4"/>
<feGaussianBlur stdDeviation="4"/>
<feColorMatrix type="matrix" values="0 0 0 0 0.576471 0 0 0 0 0.501961 0 0 0 0 0.396078 0 0 0 0.24 0"/>
<feBlend mode="normal" in2="BackgroundImageFix" result="effect1_dropShadow_969_4890"/>
<feBlend mode="normal" in="SourceGraphic" in2="effect1_dropShadow_969_4890" result="shape"/>
</filter>
<filter id="filter4_d_969_4890" x="58.2021" y="86.0256" width="100.089" height="71.4993" filterUnits="userSpaceOnUse" color-interpolation-filters="sRGB">
<feFlood flood-opacity="0" result="BackgroundImageFix"/>
<feColorMatrix in="SourceAlpha" type="matrix" values="0 0 0 0 0 0 0 0 0 0 0 0 0 0 0 0 0 0 127 0" result="hardAlpha"/>
<feOffset/>
<feGaussianBlur stdDeviation="4"/>
<feColorMatrix type="matrix" values="0 0 0 0 0.576471 0 0 0 0 0.501961 0 0 0 0 0.396078 0 0 0 0.12 0"/>
<feBlend mode="normal" in2="BackgroundImageFix" result="effect1_dropShadow_969_4890"/>
<feBlend mode="normal" in="SourceGraphic" in2="effect1_dropShadow_969_4890" result="shape"/>
</filter>
<linearGradient id="paint0_linear_969_4890" x1="117.681" y1="64.9344" x2="117.681" y2="133.572" gradientUnits="userSpaceOnUse">
<stop stop-color="#FDFEFF"/>
<stop offset="0.9964" stop-color="#F5F2EC"/>
</linearGradient>
<linearGradient id="paint1_linear_969_4890" x1="118.628" y1="49.8929" x2="118.628" y2="105.456" gradientUnits="userSpaceOnUse">
<stop stop-color="#F8F6F2"/>
<stop offset="0.9964" stop-color="#F5F2EC"/>
</linearGradient>
<linearGradient id="paint2_linear_969_4890" x1="111.365" y1="69.6326" x2="103.022" y2="69.662" gradientUnits="userSpaceOnUse">
<stop stop-color="#606060"/>
<stop offset="1" stop-color="#7B7B7B"/>
</linearGradient>
<linearGradient id="paint3_linear_969_4890" x1="137.882" y1="72.2083" x2="129.56" y2="72.2372" gradientUnits="userSpaceOnUse">
<stop stop-color="#606060"/>
<stop offset="1" stop-color="#7B7B7B"/>
</linearGradient>
<linearGradient id="paint4_linear_969_4890" x1="150.351" y1="56.1807" x2="150.702" y2="75.8284" gradientUnits="userSpaceOnUse">
<stop stop-color="#CAC2B4"/>
<stop offset="0.0001" stop-color="#B1A38D"/>
<stop offset="1" stop-color="#998E7B"/>
</linearGradient>
<linearGradient id="paint5_linear_969_4890" x1="47.7238" y1="59.1599" x2="47.7238" y2="85.8511" gradientUnits="userSpaceOnUse">
<stop stop-color="#FDFEFF"/>
<stop offset="0.9964" stop-color="#F5F2EC"/>
</linearGradient>
<linearGradient id="paint6_linear_969_4890" x1="190.563" y1="76.7695" x2="190.563" y2="103.52" gradientUnits="userSpaceOnUse">
<stop stop-color="#FDFEFF"/>
<stop offset="0.9964" stop-color="#F5F2EC"/>
</linearGradient>
<linearGradient id="paint7_linear_969_4890" x1="108.219" y1="92.7419" x2="108.219" y2="150.123" gradientUnits="userSpaceOnUse">
<stop stop-color="#FDFEFF"/>
<stop offset="0.9964" stop-color="#F5F2EC"/>
</linearGradient>
<linearGradient id="paint8_linear_969_4890" x1="92.7385" y1="54.8197" x2="93.0199" y2="69.0069" gradientUnits="userSpaceOnUse">
<stop stop-color="#CAC2B4"/>
<stop offset="0.0001" stop-color="#8A7E6A"/>
<stop offset="1" stop-color="#6E6555"/>
</linearGradient>
<linearGradient id="paint9_linear_969_4890" x1="91.5279" y1="50.8591" x2="91.6244" y2="62.7185" gradientUnits="userSpaceOnUse">
<stop stop-color="#CAC2B4"/>
<stop offset="0.0001" stop-color="#B1A38D"/>
<stop offset="1" stop-color="#998E7B"/>
</linearGradient>
</defs>
</svg>
