<svg width="230" height="160" viewBox="0 0 230 160" fill="none" xmlns="http://www.w3.org/2000/svg">
<path d="M120.017 6L125.765 7.7122L122.952 32.1722L119.894 31.0715L120.017 6Z" fill="#4F4F4F"/>
<path d="M119.65 33.8844L122.463 34.9851L122.096 37.3088L119.283 36.3304L119.65 33.8844Z" fill="#4F4F4F"/>
<path d="M130.29 19.0861L136.038 20.676L133.347 36.3304L130.167 35.2297L130.29 19.0861Z" fill="#4F4F4F"/>
<path d="M129.923 37.9203L132.736 39.021L132.369 41.2224L129.556 40.244L129.923 37.9203Z" fill="#4F4F4F"/>
<path d="M159.886 127.322H84.6718C84.6718 127.322 88.83 125.976 81.6143 127.322C74.2763 128.667 74.2763 128.422 74.8878 123.775C75.4993 119.128 79.9021 114.358 83.3265 109.221C82.9596 104.329 84.5495 99.1927 90.2976 94.423C90.2976 94.3007 90.2976 94.1784 90.2976 94.0561C87.4847 66.0494 102.283 75.2219 114.635 70.5745L113.045 69.4738L131.146 61.6465C131.146 61.6465 136.282 62.9918 141.052 65.6824C144.599 67.7616 147.901 70.4522 148.39 73.8766C149.002 77.7902 148.39 82.9268 147.534 87.6965C146.8 91.977 145.944 95.8906 145.7 98.4589C145.7 98.9481 145.577 99.315 145.577 99.6819C146.433 103.718 152.059 109.71 151.325 113.624C153.282 115.703 155.728 121.941 156.095 124.631C156.584 127.322 159.886 127.322 159.886 127.322Z" fill="#3A3A3A"/>
<path d="M44.802 127.444H203.914" stroke="#3A3A3A" stroke-width="2" stroke-miterlimit="10" stroke-linecap="round" stroke-linejoin="round"/>
<path d="M26.0901 127.444H36.241" stroke="#3A3A3A" stroke-width="2" stroke-miterlimit="10" stroke-linecap="round" stroke-linejoin="round"/>
<path d="M136.649 96.869C135.671 97.4805 134.448 97.9697 133.347 98.3366C131.88 98.8258 130.167 99.315 128.577 99.5596C123.685 100.538 118.671 100.783 113.657 99.6819C109.499 98.8258 105.34 97.4805 101.549 95.2791C100.204 94.5453 98.9808 93.6892 97.8801 92.7108C91.6428 87.4519 88.3407 83.5383 89.8083 75.4665C91.2759 67.3947 93.1104 61.402 93.1104 61.402C93.2327 60.7905 94.2111 59.9344 94.578 59.4452C95.1895 58.8337 95.5564 58.0999 96.1679 57.4884C97.1463 56.2654 98.247 54.9201 99.3477 53.697C101.794 51.251 104.484 49.2942 107.664 48.0712C112.801 46.2367 118.304 46.4813 123.563 47.2151C127.477 47.7043 131.39 48.5604 134.815 50.5172C137.872 52.2295 140.196 54.5532 142.153 57.3661C144.232 60.4236 145.699 63.848 147.412 67.2724C147.412 67.2724 148.023 73.632 147.779 81.8261C147.779 90.0202 143.743 92.9554 136.649 96.869Z" fill="url(#paint0_linear_969_4892)"/>
<path d="M110.232 76.078C109.009 76.9341 107.175 80.2362 102.038 77.5456C94.8227 73.632 96.6572 63.848 101.182 61.1574C109.254 56.3877 116.592 59.8121 116.959 67.2724C117.326 75.2219 112.801 74.4881 110.232 76.078Z" fill="#777777"/>
<path d="M150.958 122.797C149.98 124.02 150.225 125.854 151.57 126.832C152.304 127.322 153.037 127.811 153.404 129.034C154.26 131.48 162.088 137.228 166.124 136.005C170.282 134.782 174.807 131.724 173.706 126.71C172.728 121.696 168.325 119.25 166.124 119.128C163.922 118.883 156.217 118.027 153.649 119.984C152.671 120.84 151.692 121.94 150.958 122.797Z" fill="#333333"/>
<path d="M86.6285 122.797C87.6069 124.02 87.3623 125.854 86.017 126.833C85.2832 127.322 84.5494 127.811 84.1825 129.034C83.3264 131.48 75.4992 137.228 71.4633 136.005C67.4274 134.782 62.78 131.725 63.8807 126.71C64.8591 121.696 69.2619 119.25 71.4633 119.128C73.6647 119.005 81.3696 118.027 83.9379 119.984C85.0386 120.84 86.017 121.941 86.6285 122.797Z" fill="#333333"/>
<path d="M106.074 74.4881C109.254 74.855 112.067 72.5313 112.434 69.3515C112.801 66.1717 110.477 63.3588 107.297 62.9919C104.118 62.625 101.305 64.9487 100.938 68.1285C100.571 71.3083 102.895 74.1212 106.074 74.4881Z" fill="url(#paint1_linear_969_4892)"/>
<path d="M111.7 69.9629C111.455 72.4089 109.254 74.2434 106.808 73.9988C104.362 73.7542 102.528 71.5528 102.772 69.1068C103.139 69.4737 103.628 69.8406 104.117 69.9629C105.218 70.0852 106.197 69.3514 106.319 68.1284C106.441 67.0277 105.707 66.0493 104.607 65.927C105.463 65.3155 106.563 65.0709 107.664 65.1932C110.232 65.3155 111.945 67.3946 111.7 69.9629Z" fill="url(#paint2_linear_969_4892)"/>
<path d="M133.959 77.4233C137.138 77.7902 139.951 75.4665 140.318 72.2866C140.685 69.1068 138.361 66.2939 135.182 65.927C132.002 65.5601 129.189 67.8838 128.822 71.0636C128.455 74.3658 130.779 77.1787 133.959 77.4233Z" fill="url(#paint3_linear_969_4892)"/>
<path d="M129.311 71.7975C129.067 74.2435 130.901 76.4449 133.347 76.6895C135.793 76.9341 137.995 75.0996 138.239 72.6536C137.872 73.0205 137.261 73.2651 136.772 73.1428C135.671 73.0205 134.815 72.0421 134.937 70.9414C135.06 69.8406 136.038 69.1068 137.139 69.1068C136.405 68.373 135.426 67.8838 134.326 67.7615C131.88 67.5169 129.678 69.2292 129.311 71.7975Z" fill="url(#paint4_linear_969_4892)"/>
<path d="M109.621 55.0424C107.542 55.4093 105.707 55.7762 104.24 56.7546C102.772 57.733 101.305 59.3229 100.571 61.1574C100.571 61.2797 100.448 61.2797 100.326 61.2797C100.204 61.2797 100.204 61.1574 100.204 61.1574C100.326 60.179 100.815 59.0783 101.427 58.2222C101.916 57.2438 102.772 56.51 103.751 55.8985C104.729 55.287 105.585 54.7978 106.686 54.4309C107.786 54.3086 108.887 54.1863 109.866 54.6755C109.743 54.6755 109.988 54.9201 109.621 55.0424C109.743 55.0424 109.743 55.0424 109.621 55.0424Z" fill="#8A8A8A"/>
<path d="M134.692 59.4451C136.527 60.1789 138.117 60.9128 139.462 62.1358C140.685 63.3588 141.664 65.1933 142.03 67.0278C142.03 67.1501 142.153 67.1501 142.275 67.1501C142.397 67.1501 142.397 67.0278 142.397 67.0278C142.52 66.0494 142.153 64.9487 141.908 64.0926C141.541 63.1142 141.052 62.1357 140.196 61.4019C139.462 60.6681 138.728 59.9343 137.75 59.4451C136.772 59.0782 135.671 58.8336 134.692 58.9559C134.57 59.0782 134.57 59.2005 134.692 59.4451C134.692 59.4451 134.448 59.4451 134.692 59.4451Z" fill="#8A8A8A"/>
<path d="M145.577 54.0639C143.376 51.1287 140.196 51.9848 141.419 55.4092C143.376 60.7904 147.045 63.3587 148.023 83.416C148.268 86.9627 160.131 79.3801 160.131 66.7831C160.131 64.4594 157.318 63.6033 157.318 63.6033C155.606 63.1141 149.124 58.589 145.577 54.0639Z" fill="url(#paint5_linear_969_4892)"/>
<path d="M44.8017 63.6036C44.8017 63.6036 31.8378 59.8123 33.9169 64.0928C35.9961 68.3733 41.7442 76.9343 50.9167 79.0134C60.0892 80.9702 54.5857 72.8984 54.708 73.0207L44.8017 63.6036Z" fill="url(#paint6_linear_969_4892)"/>
<path d="M31.1042 55.2871C34.4063 58.9561 48.2262 64.3373 59.4779 63.8481C61.0678 75.5889 62.2908 79.1356 64.3699 80.6032C58.7441 82.0708 43.5788 80.8478 41.4997 69.4739C30.8596 69.9631 31.1042 55.2871 31.1042 55.2871Z" fill="url(#paint7_linear_969_4892)"/>
<path d="M177.253 98.7035C180.922 96.2575 187.526 84.8836 188.505 75.0996C198.9 75.0996 202.08 74.6104 203.792 72.8982C204.281 78.0348 203.303 90.6317 194.497 98.092C184.713 99.0704 177.253 98.7035 177.253 98.7035Z" fill="url(#paint8_linear_969_4892)"/>
<g filter="url(#filter0_d_969_4892)">
<path d="M149.735 138.695C132.736 141.508 129.678 141.997 123.196 141.141C116.714 140.285 107.664 139.184 104.607 145.055C103.261 137.35 100.204 130.257 94.578 124.875C94.9449 124.386 95.1895 123.652 95.1895 122.919C95.1895 121.451 94.3334 120.228 92.9881 119.739C93.2327 119.25 93.355 118.76 93.355 118.271C93.355 116.437 91.8874 114.847 89.9306 114.847C88.8299 114.847 87.8515 115.336 87.24 116.192C87.3623 115.581 87.4846 115.091 87.4846 114.847C87.4846 113.012 86.017 111.422 84.0602 111.422C83.0818 111.422 82.1034 111.912 81.4919 112.645C81.0027 111.912 80.2689 111.422 79.2905 111.422C77.8229 111.422 76.7222 112.523 76.7222 113.991C76.7222 114.235 76.7222 114.847 76.7222 115.581C68.0389 112.768 66.2043 112.645 66.2043 112.645C71.4633 102.25 96.4125 87.0846 114.391 89.8975C125.887 91.6097 138.851 94.7895 145.455 107.386C145.088 107.264 144.721 107.142 144.354 107.142C144.232 107.142 143.987 107.142 143.743 107.264C143.131 106.408 142.153 105.919 141.052 105.919C139.34 105.919 137.995 107.142 137.75 108.732C137.628 108.732 137.138 108.732 136.772 108.732C134.937 108.732 133.469 110.199 133.469 112.034C133.469 113.379 134.326 114.602 135.549 115.091C134.937 115.703 134.57 116.437 134.57 117.415C134.57 119.25 136.038 120.717 137.872 120.717C139.095 120.717 140.074 120.106 140.685 119.25C141.297 120.106 142.275 120.717 143.498 120.717C145.333 120.717 146.8 119.25 146.8 117.415C146.8 117.293 146.8 117.293 146.8 117.17C147.656 116.804 148.39 116.07 148.635 115.214C150.225 121.329 150.836 129.034 149.735 138.695Z" fill="url(#paint9_linear_969_4892)"/>
</g>
<path fill-rule="evenodd" clip-rule="evenodd" d="M122.956 127.174C115.855 128.317 109.626 129.808 107.287 130.528L106.819 129.007C109.249 128.259 115.556 126.754 122.703 125.604C129.838 124.455 137.91 123.644 143.834 124.33L143.651 125.91C137.957 125.251 130.069 126.029 122.956 127.174Z" fill="#F5F2EC"/>
<path fill-rule="evenodd" clip-rule="evenodd" d="M107.829 122.45C105.36 123.064 103.511 123.616 102.602 124.014L101.964 122.557C103.012 122.098 104.984 121.519 107.445 120.907C109.926 120.289 112.96 119.625 116.166 119.004C122.566 117.764 129.707 116.684 134.54 116.498L134.601 118.087C129.894 118.268 122.848 119.329 116.468 120.565C113.284 121.182 110.278 121.841 107.829 122.45Z" fill="#F5F2EC"/>
<path fill-rule="evenodd" clip-rule="evenodd" d="M118.859 110.126C112.609 111.256 105.786 112.493 98.146 116.764L97.3699 115.375C105.246 110.972 112.291 109.698 118.537 108.567L118.576 108.561C124.854 107.425 130.226 106.437 135.064 102.72L136.033 103.981C130.862 107.954 125.127 108.991 118.927 110.113L118.859 110.126Z" fill="#F5F2EC"/>
<path fill-rule="evenodd" clip-rule="evenodd" d="M112.62 104.143C105.186 104.742 99.6915 106.769 93.1927 111.222L92.2937 109.91C99.0034 105.313 104.761 103.181 112.492 102.558L112.62 104.143Z" fill="#F5F2EC"/>
<path d="M133.714 92.7108C133.714 92.8331 133.714 93.0777 133.714 93.2V93.3223C133.714 93.4446 133.714 93.5669 133.592 93.6892C132.858 95.646 129.678 97.9697 126.376 98.3366C123.074 98.7035 119.65 97.3582 118.182 91.8547C114.635 95.2791 111.211 95.7683 108.398 95.0345C104.729 94.0561 102.283 91.1209 102.161 90.2648C102.161 89.8979 102.161 89.531 102.283 89.1641C103.139 81.2146 110.844 75.5888 119.527 76.5672C128.211 77.6679 134.57 84.8836 133.714 92.7108Z" fill="url(#paint10_linear_969_4892)"/>
<path d="M119.527 77.7902C118.793 77.6679 117.937 77.6679 117.204 77.7902C116.225 78.0348 114.758 78.2793 114.513 79.5023C114.391 81.0923 117.815 82.9268 118.793 83.0491C119.772 83.1714 123.563 82.193 123.808 80.6031C123.93 79.0132 122.585 78.4017 121.362 78.0348C120.75 77.9125 120.016 77.6679 119.527 77.7902Z" fill="#5C5C5C"/>
<path fill-rule="evenodd" clip-rule="evenodd" d="M118.515 85.9801C118.458 84.3497 118.26 82.6447 118.096 81.576L119.084 81.424C119.253 82.5219 119.456 84.2669 119.515 85.9449C119.544 86.7836 119.539 87.6156 119.472 88.3466C119.408 89.0642 119.281 89.7371 119.037 90.2236L118.143 89.7764C118.3 89.4629 118.414 88.944 118.477 88.2565C118.538 87.5823 118.544 86.7955 118.515 85.9801Z" fill="#5C5C5C"/>
<path d="M99.1033 53.4524L98.981 54.7977C98.3695 55.4092 97.8803 56.143 97.2688 56.8768C94.089 61.1574 91.1538 66.7832 90.2977 73.8766C90.0531 73.0205 87.4848 63.848 86.9956 62.1358C86.8733 61.7689 86.751 61.5243 86.751 61.5243V58.9559L89.0747 53.8193L95.0674 50.7618L99.1033 53.4524Z" fill="url(#paint11_linear_969_4892)"/>
<path d="M104.484 49.6612C102.772 50.8842 100.815 52.5964 98.9808 54.7978C98.3693 55.4093 97.8801 56.1431 97.2686 56.8769C97.024 53.4525 92.9881 52.9633 92.9881 52.9633C92.4989 56.0208 89.8083 59.4452 86.8731 62.1358C84.4271 64.3372 81.7365 65.9271 80.0243 66.0494C79.5351 66.0494 79.1682 65.6825 79.4128 65.1933C80.6358 62.0135 80.2689 57.3661 80.6358 55.0424C81.125 52.4741 88.463 48.5605 92.2543 47.0929C95.1895 45.9922 102.894 47.5821 104.484 49.6612Z" fill="url(#paint12_linear_969_4892)"/>
<defs>
<filter id="filter0_d_969_4892" x="62.2043" y="85.5557" width="92.0889" height="63.4992" filterUnits="userSpaceOnUse" color-interpolation-filters="sRGB">
<feFlood flood-opacity="0" result="BackgroundImageFix"/>
<feColorMatrix in="SourceAlpha" type="matrix" values="0 0 0 0 0 0 0 0 0 0 0 0 0 0 0 0 0 0 127 0" result="hardAlpha"/>
<feOffset/>
<feGaussianBlur stdDeviation="2"/>
<feComposite in2="hardAlpha" operator="out"/>
<feColorMatrix type="matrix" values="0 0 0 0 0 0 0 0 0 0 0 0 0 0 0 0 0 0 0.25 0"/>
<feBlend mode="normal" in2="BackgroundImageFix" result="effect1_dropShadow_969_4892"/>
<feBlend mode="normal" in="SourceGraphic" in2="effect1_dropShadow_969_4892" result="shape"/>
</filter>
<linearGradient id="paint0_linear_969_4892" x1="118.649" y1="46.6661" x2="118.649" y2="100.406" gradientUnits="userSpaceOnUse">
<stop stop-color="#585858"/>
<stop offset="1" stop-color="#3B3B3B"/>
<stop offset="1" stop-color="#454545"/>
</linearGradient>
<linearGradient id="paint1_linear_969_4892" x1="106.686" y1="62.9537" x2="106.686" y2="74.5262" gradientUnits="userSpaceOnUse">
<stop stop-color="#FFFCF7"/>
<stop offset="1" stop-color="#EFECE6"/>
</linearGradient>
<linearGradient id="paint2_linear_969_4892" x1="107.237" y1="65.1627" x2="107.237" y2="74.0207" gradientUnits="userSpaceOnUse">
<stop stop-color="#474747"/>
<stop offset="1" stop-color="#2C2C2C"/>
</linearGradient>
<linearGradient id="paint3_linear_969_4892" x1="134.57" y1="65.8889" x2="134.57" y2="77.4614" gradientUnits="userSpaceOnUse">
<stop stop-color="#FFFCF7"/>
<stop offset="1" stop-color="#EFECE6"/>
</linearGradient>
<linearGradient id="paint4_linear_969_4892" x1="133.764" y1="67.7383" x2="133.764" y2="76.7113" gradientUnits="userSpaceOnUse">
<stop stop-color="#474747"/>
<stop offset="1" stop-color="#2C2C2C"/>
</linearGradient>
<linearGradient id="paint5_linear_969_4892" x1="150.633" y1="51.5407" x2="150.633" y2="84.6353" gradientUnits="userSpaceOnUse">
<stop stop-color="#A6A6A6"/>
<stop offset="0.9964" stop-color="#878787"/>
</linearGradient>
<linearGradient id="paint6_linear_969_4892" x1="44.9629" y1="62.0547" x2="44.9629" y2="79.3195" gradientUnits="userSpaceOnUse">
<stop stop-color="#585858"/>
<stop offset="1" stop-color="#3B3B3B"/>
<stop offset="1" stop-color="#454545"/>
</linearGradient>
<linearGradient id="paint7_linear_969_4892" x1="47.726" y1="54.69" x2="47.726" y2="81.3811" gradientUnits="userSpaceOnUse">
<stop stop-color="#A6A6A6"/>
<stop offset="0.9964" stop-color="#878787"/>
</linearGradient>
<linearGradient id="paint8_linear_969_4892" x1="190.565" y1="72.2997" x2="190.565" y2="99.0498" gradientUnits="userSpaceOnUse">
<stop stop-color="#A6A6A6"/>
<stop offset="0.9964" stop-color="#878787"/>
</linearGradient>
<linearGradient id="paint9_linear_969_4892" x1="108.221" y1="88.2719" x2="108.221" y2="145.653" gradientUnits="userSpaceOnUse">
<stop stop-color="#A6A6A6"/>
<stop offset="0.9964" stop-color="#878787"/>
</linearGradient>
<linearGradient id="paint10_linear_969_4892" x1="117.966" y1="75.9493" x2="117.966" y2="98.6293" gradientUnits="userSpaceOnUse">
<stop stop-color="#919191"/>
<stop offset="0.9964" stop-color="#838383"/>
</linearGradient>
<linearGradient id="paint11_linear_969_4892" x1="92.9271" y1="50.7618" x2="92.9271" y2="73.8766" gradientUnits="userSpaceOnUse">
<stop stop-color="#3C3C3C"/>
<stop offset="1" stop-color="#3B3B3B"/>
<stop offset="1" stop-color="#161616"/>
</linearGradient>
<linearGradient id="paint12_linear_969_4892" x1="91.9015" y1="46.2867" x2="91.9015" y2="66.2576" gradientUnits="userSpaceOnUse">
<stop stop-color="#A6A6A6"/>
<stop offset="0.9964" stop-color="#878787"/>
</linearGradient>
</defs>
</svg>
