<svg width="16" height="16" viewBox="0 0 16 16" fill="none" xmlns="http://www.w3.org/2000/svg">
<path d="M8.3 7.03C8.66 6.77 9.04 6.56 9.46 6.39C9.03 6.15 8.53 6 8 6C6.34 6 5 7.34 5 9C5 9.89 5.4 10.68 6.01 11.23C6.03 10.78 6.1 10.33 6.23 9.92C6.09 9.64 6 9.33 6 9C6 7.9 6.9 7 8 7C8.1 7 8.2 7.02 8.3 7.03Z" fill="#212121"/>
<path d="M3 8V5H13V6.21C13.35 6.31 13.68 6.44 14 6.6V4.91C14.58 4.7 15 4.15 15 3.5V2.5C15 1.67 14.33 1 13.5 1H2.5C1.67 1 1 1.67 1 2.5V3.5C1 4.15 1.42 4.71 2 4.91V8C2 10.8 3.92 13.14 6.51 13.81C6.34 13.44 6.2 13.04 6.11 12.63C4.28 11.89 2.99 10.1 2.99 8H3ZM2 3.5V2.5C2 2.22 2.22 2 2.5 2H13.5C13.78 2 14 2.22 14 2.5V3.5C14 3.78 13.78 4 13.5 4H2.5C2.22 4 2 3.78 2 3.5Z" fill="#212121"/>
<path d="M15.8199 10.9501L15.4699 10.8701C14.3499 10.6101 13.6799 9.45014 14.0099 8.35014L14.1399 7.93014C13.8799 7.73014 13.5999 7.55014 13.3099 7.41014L12.9899 7.75014C12.1999 8.59014 10.8699 8.59014 10.0799 7.75014L9.73992 7.39014C9.44992 7.52014 9.16992 7.69014 8.91992 7.89014L9.07992 8.45014C9.37992 9.53014 8.73992 10.6501 7.64992 10.9301L7.18992 11.0501C7.17992 11.2001 7.16992 11.3601 7.16992 11.5101C7.16992 11.7001 7.17992 11.8801 7.19992 12.0601L7.54992 12.1401C8.66992 12.4001 9.33992 13.5601 9.00992 14.6601L8.87992 15.0801C9.13992 15.2801 9.41992 15.4601 9.70992 15.6001L10.0399 15.2601C10.8299 14.4201 12.1599 14.4201 12.9499 15.2601L13.2899 15.6201C13.5799 15.4901 13.8599 15.3201 14.1099 15.1201L13.9499 14.5601C13.6499 13.4801 14.2899 12.3601 15.3799 12.0801L15.8399 11.9601C15.8499 11.8101 15.8599 11.6501 15.8599 11.5001C15.8599 11.3101 15.8499 11.1301 15.8299 10.9501H15.8199ZM11.4999 12.5001C10.9499 12.5001 10.4999 12.0501 10.4999 11.5001C10.4999 10.9501 10.9499 10.5001 11.4999 10.5001C12.0499 10.5001 12.4999 10.9501 12.4999 11.5001C12.4999 12.0501 12.0499 12.5001 11.4999 12.5001Z" fill="#212121"/>
</svg>
