<svg width="28" height="28" viewBox="0 0 28 28" fill="none" xmlns="http://www.w3.org/2000/svg">
<path d="M7.5 15.5C7.5 11.91 10.41 9 14 9C16.71 9 19.04 10.66 20.01 13.02C20.17 13.01 20.34 13 20.5 13C22.18 13 23.73 13.56 24.98 14.49C24.98 14.33 25 14.16 25 14V7H3V14C3 20.08 7.92 25 14 25C14.17 25 14.33 24.98 14.49 24.98C13.83 24.1 13.36 23.07 13.14 21.94C9.96 21.52 7.5 18.8 7.5 15.5Z" fill="#212121"/>
<path d="M24.25 5.5C25.22 5.5 26 4.72 26 3.75C26 2.78 25.22 2 24.25 2H3.75C2.78 2 2 2.78 2 3.75C2 4.72 2.78 5.5 3.75 5.5H24.25Z" fill="#212121"/>
<path d="M14 12C15.33 12 16.47 12.75 17.06 13.84C17.5 13.61 17.97 13.43 18.46 13.29C17.64 11.64 15.96 10.5 14 10.5C11.24 10.5 9 12.74 9 15.5C9 17.92 10.72 19.94 13.01 20.4C13.01 19.88 13.08 19.38 13.18 18.89C11.65 18.52 10.5 17.15 10.5 15.5C10.5 13.57 12.07 12 14 12Z" fill="#212121"/>
<path d="M26.66 19.4L25.68 19.16C24.57 18.89 23.91 17.75 24.23 16.65L24.55 15.55C24.03 15.09 23.44 14.72 22.8 14.45L21.96 15.34C21.17 16.17 19.85 16.17 19.06 15.34L18.21 14.45C17.57 14.71 16.98 15.08 16.46 15.54L16.79 16.7C17.1 17.79 16.45 18.92 15.35 19.2L14.33 19.45C14.28 19.79 14.25 20.14 14.25 20.5C14.25 20.86 14.28 21.24 14.34 21.6L15.32 21.83C16.43 22.1 17.09 23.24 16.77 24.34L16.45 25.44C16.97 25.9 17.56 26.27 18.2 26.54L19.04 25.65C19.83 24.82 21.15 24.82 21.94 25.65L22.79 26.54C23.43 26.28 24.02 25.91 24.54 25.45L24.21 24.29C23.9 23.2 24.55 22.07 25.65 21.79L26.68 21.54C26.73 21.2 26.76 20.85 26.76 20.49C26.76 20.13 26.73 19.75 26.67 19.39L26.66 19.4ZM20.5 22C19.67 22 19 21.33 19 20.5C19 19.67 19.67 19 20.5 19C21.33 19 22 19.67 22 20.5C22 21.33 21.33 22 20.5 22Z" fill="#212121"/>
</svg>
