<svg width="24" height="24" viewBox="0 0 24 24" fill="none" xmlns="http://www.w3.org/2000/svg">
<path d="M4.5 7V13C4.5 17.05 7.71 20.35 11.73 20.49C12.01 21.03 12.37 21.52 12.78 21.96C12.52 21.98 12.26 22 12 22C7.03 22 3 17.97 3 13V6.83C2.41 6.55 2 5.95 2 5.25V3.75C2 2.78 2.78 2 3.75 2H20.25C21.22 2 22 2.78 22 3.75V5.25C22 5.95 21.59 6.55 21 6.83V12.03C20.54 11.73 20.03 11.49 19.5 11.32V7H4.5ZM3.5 3.75V5.25C3.5 5.39 3.61 5.5 3.75 5.5H20.25C20.39 5.5 20.5 5.39 20.5 5.25V3.75C20.5 3.61 20.39 3.5 20.25 3.5H3.75C3.61 3.5 3.5 3.61 3.5 3.75Z" fill="#212121"/>
<path d="M11.22 15.86C10.22 15.53 9.5 14.61 9.5 13.5C9.5 12.12 10.62 11 12 11C12.83 11 13.55 11.4 14.01 12.02C12.65 12.89 11.64 14.25 11.22 15.86Z" fill="#212121"/>
<path d="M15.37 11.36C15.86 11.19 16.37 11.07 16.91 11.03C16 9.23 14.15 8 12 8C8.96 8 6.5 10.46 6.5 13.5C6.5 16.25 8.52 18.53 11.16 18.93C11.06 18.47 11 17.99 11 17.5V17.36C9.27 16.92 7.99 15.36 7.99 13.5C7.99 11.29 9.78 9.5 11.99 9.5C13.41 9.5 14.65 10.25 15.36 11.36H15.37Z" fill="#212121"/>
<path d="M22.2002 16.4501L22.7402 16.5801C22.7802 16.8801 22.8102 17.2001 22.8102 17.5001C22.8102 17.8001 22.7802 18.0901 22.7402 18.3801L22.1602 18.5201C21.0602 18.8001 20.4102 19.9301 20.7202 21.0201L20.9202 21.7101C20.4802 22.0901 19.9802 22.4001 19.4402 22.6201L18.9402 22.1001C18.1502 21.2701 16.8302 21.2701 16.0402 22.1001L15.5502 22.6201C15.0102 22.4001 14.5102 22.0901 14.0702 21.7001L14.2602 21.0701C14.5802 19.9701 13.9202 18.8301 12.8102 18.5601L12.2702 18.4301C12.2302 18.1301 12.2002 17.8101 12.2002 17.5101C12.2002 17.2101 12.2302 16.9201 12.2702 16.6301L12.8502 16.4901C13.9502 16.2101 14.6002 15.0801 14.2902 13.9901L14.0902 13.3001C14.5302 12.9201 15.0302 12.6101 15.5702 12.3901L16.0702 12.9101C16.8602 13.7401 18.1802 13.7401 18.9702 12.9101L19.4602 12.3901C20.0002 12.6101 20.5002 12.9201 20.9402 13.3101L20.7502 13.9401C20.4302 15.0401 21.0902 16.1801 22.2002 16.4501ZM16.0502 17.5001C16.0502 18.3301 16.7002 19.0001 17.5002 19.0001C18.3002 19.0001 18.9502 18.3301 18.9502 17.5001C18.9502 16.6701 18.3002 16.0001 17.5002 16.0001C16.7002 16.0001 16.0502 16.6701 16.0502 17.5001Z" fill="#212121"/>
</svg>
