<svg width="28" height="28" viewBox="0 0 28 28" fill="none" xmlns="http://www.w3.org/2000/svg">
<path d="M4.5 7V14.01C4.5 19.13 8.55 23.29 13.62 23.49C13.85 24.02 14.15 24.52 14.49 24.98C14.4113 24.98 14.3327 24.9848 14.2528 24.9897C14.1704 24.9948 14.0863 25 14 25C7.92 25 3 20.08 3 14V6.83C2.41 6.55 2 5.95 2 5.25V3.75C2 2.78 2.78 2 3.75 2H24.25C25.22 2 26 2.78 26 3.75V5.25C26 5.95 25.59 6.55 25 6.83V14C25 14.08 24.995 14.1624 24.99 14.2449C24.985 14.3274 24.98 14.41 24.98 14.49C24.52 14.15 24.03 13.86 23.5 13.63V7H4.5ZM3.5 3.75V5.25C3.5 5.39 3.61 5.5 3.75 5.5H24.25C24.39 5.5 24.5 5.39 24.5 5.25V3.75C24.5 3.61 24.39 3.5 24.25 3.5H3.75C3.61 3.5 3.5 3.61 3.5 3.75Z" fill="#212121"/>
<path d="M13.18 18.89C11.64 18.52 10.5 17.15 10.5 15.5H10.51C10.51 13.57 12.08 12 14.01 12C15.34 12 16.48 12.75 17.07 13.84C15.11 14.85 13.66 16.68 13.18 18.89Z" fill="#212121"/>
<path d="M18.46 13.2898C18.96 13.1498 19.47 13.0598 20.01 13.0298C19.04 10.6698 16.71 9.00977 14 9.00977C10.41 9.00977 7.5 11.9198 7.5 15.5098C7.5 18.8098 9.96 21.5298 13.14 21.9498C13.05 21.4798 13 20.9998 13 20.5098V20.4098C10.72 19.9498 8.99 17.9298 8.99 15.5098C8.99 12.7498 11.23 10.5098 13.99 10.5098C15.95 10.5098 17.63 11.6498 18.45 13.2998L18.46 13.2898Z" fill="#212121"/>
<path d="M25.68 19.1602L26.66 19.4002L26.67 19.3902C26.73 19.7502 26.76 20.1302 26.76 20.4902C26.76 20.8502 26.73 21.2002 26.68 21.5402L25.65 21.7902C24.55 22.0702 23.9 23.2002 24.21 24.2902L24.54 25.4502C24.02 25.9102 23.43 26.2802 22.79 26.5402L21.94 25.6502C21.15 24.8202 19.83 24.8202 19.04 25.6502L18.2 26.5402C17.56 26.2702 16.97 25.9002 16.45 25.4402L16.77 24.3402C17.09 23.2402 16.43 22.1002 15.32 21.8302L14.34 21.6002C14.28 21.2402 14.25 20.8602 14.25 20.5002C14.25 20.1402 14.28 19.7902 14.33 19.4502L15.35 19.2002C16.45 18.9202 17.1 17.7902 16.79 16.7002L16.46 15.5402C16.98 15.0802 17.57 14.7102 18.21 14.4502L19.06 15.3402C19.85 16.1702 21.17 16.1702 21.96 15.3402L22.8 14.4502C23.44 14.7202 24.03 15.0902 24.55 15.5502L24.23 16.6502C23.91 17.7502 24.57 18.8902 25.68 19.1602ZM19 20.5002C19 21.3302 19.67 22.0002 20.5 22.0002C21.33 22.0002 22 21.3302 22 20.5002C22 19.6702 21.33 19.0002 20.5 19.0002C19.67 19.0002 19 19.6702 19 20.5002Z" fill="#212121"/>
</svg>
