<svg width="20" height="20" viewBox="0 0 20 20" fill="none" xmlns="http://www.w3.org/2000/svg">
<path fill-rule="evenodd" clip-rule="evenodd" d="M4 6V10C4 13.04 6.27 15.55 9.2 15.94C9.3 16.3 9.43 16.65 9.6 16.98C5.92 16.77 3 13.73 3 10V5.91C2.42 5.71 2 5.15 2 4.5V3.5C2 2.67 2.67 2 3.5 2H16.5C17.33 2 18 2.67 18 3.5V4.5C18 5.15 17.58 5.7 17 5.91V9.6C16.68 9.44 16.35 9.31 16 9.21V6H4ZM3 3.5V4.5C3 4.78 3.22 5 3.5 5H16.5C16.78 5 17 4.78 17 4.5V3.5C17 3.22 16.78 3 16.5 3H3.5C3.22 3 3 3.22 3 3.5Z" fill="#212121"/>
<path d="M13.5 9.09023C13.16 9.15023 12.83 9.25023 12.52 9.37023V9.36023C11.98 8.54023 11.06 7.99023 10 7.99023C8.34 7.99023 7 9.33023 7 10.9902C7 12.3102 7.85 13.4202 9.04 13.8202C9.02 14.0402 9 14.2602 9 14.4902C9 14.5502 9.005 14.6102 9.01 14.6702C9.015 14.7302 9.02 14.7902 9.02 14.8502C7.29 14.4102 6 12.8602 6 10.9902C6 8.78023 7.79 6.99023 10 6.99023C11.52 6.99023 12.82 7.85023 13.5 9.09023Z" fill="#212121"/>
<path d="M8 11.0002C8 11.8402 8.52 12.5602 9.25 12.8502C9.65 11.5802 10.5 10.5102 11.61 9.82023C11.25 9.32023 10.66 8.99023 10 8.99023C8.9 8.99023 8 9.89023 8 10.9902V11.0002Z" fill="#212121"/>
<path d="M18.4699 13.8701L18.8199 13.9501H18.8299C18.8499 14.1301 18.8599 14.3101 18.8599 14.5001C18.8599 14.6501 18.8499 14.8101 18.8399 14.9601L18.3799 15.0801C17.2899 15.3601 16.6499 16.4801 16.9499 17.5601L17.1099 18.1201C16.8599 18.3201 16.5799 18.4901 16.2899 18.6201L15.9499 18.2601C15.1599 17.4201 13.8299 17.4201 13.0399 18.2601L12.7099 18.6001C12.4199 18.4601 12.1399 18.2801 11.8799 18.0801L12.0099 17.6601C12.3399 16.5601 11.6699 15.4001 10.5499 15.1401L10.1999 15.0601C10.1799 14.8801 10.1699 14.7001 10.1699 14.5101C10.1699 14.3601 10.1699 14.2001 10.1899 14.0501L10.6499 13.9301C11.7399 13.6501 12.3799 12.5301 12.0799 11.4501L11.9199 10.8901C12.1699 10.6901 12.4499 10.5201 12.7399 10.3901L13.0799 10.7501C13.8699 11.5901 15.1999 11.5901 15.9899 10.7501L16.3099 10.4101C16.5999 10.5501 16.8799 10.7301 17.1399 10.9301L17.0099 11.3501C16.6799 12.4501 17.3499 13.6101 18.4699 13.8701ZM13.4999 14.5001C13.4999 15.0501 13.9499 15.5001 14.4999 15.5001C15.0499 15.5001 15.4999 15.0501 15.4999 14.5001C15.4999 13.9501 15.0499 13.5001 14.4999 13.5001C13.9499 13.5001 13.4999 13.9501 13.4999 14.5001Z" fill="#212121"/>
</svg>
