<svg width="16" height="16" viewBox="0 0 16 16" fill="none" xmlns="http://www.w3.org/2000/svg">
<path d="M15 2.5C15 3.33 14.33 4 13.5 4H2.5C1.67 4 1 3.33 1 2.5C1 1.67 1.67 1 2.5 1H13.5C14.33 1 15 1.67 15 2.5Z" fill="#212121"/>
<path d="M6.23 9.92C6.09 9.64 6 9.33 6 9C6 7.9 6.9 7 8 7C8.1 7 8.2 7.01 8.3 7.03C7.32 7.73 6.58 8.74 6.23 9.92Z" fill="#212121"/>
<path d="M6.01 11.23C5.39 10.68 5 9.89 5 9C5 7.34 6.34 6 8 6C8.53 6 9.03 6.15 9.46 6.39C10.09 6.14 10.78 6 11.5 6C12.4 6 13.25 6.22 14 6.61V5H2V8C2 10.8 3.92 13.14 6.51 13.81C6.18 13.11 6 12.33 6 11.5C6 11.41 6 11.32 6.01 11.23Z" fill="#212121"/>
<path d="M15.4699 10.8701L15.8199 10.9501H15.8299C15.8499 11.1301 15.8599 11.3101 15.8599 11.5001C15.8599 11.6501 15.8499 11.8101 15.8399 11.9601L15.3799 12.0801C14.2899 12.3601 13.6499 13.4801 13.9499 14.5601L14.1099 15.1201C13.8599 15.3201 13.5799 15.4901 13.2899 15.6201L12.9499 15.2601C12.1599 14.4201 10.8299 14.4201 10.0399 15.2601L9.70992 15.6001C9.41992 15.4601 9.13992 15.2801 8.87992 15.0801L9.00992 14.6601C9.33992 13.5601 8.66992 12.4001 7.54992 12.1401L7.19992 12.0601C7.17992 11.8801 7.16992 11.7001 7.16992 11.5101C7.16992 11.3601 7.17992 11.2001 7.18992 11.0501L7.64992 10.9301C8.73992 10.6501 9.37992 9.53014 9.07992 8.45014L8.91992 7.89014C9.16992 7.69014 9.44992 7.52014 9.73992 7.39014L10.0799 7.75014C10.8699 8.59014 12.1999 8.59014 12.9899 7.75014L13.3099 7.41014C13.5999 7.55014 13.8799 7.73014 14.1399 7.93014L14.0099 8.35014C13.6799 9.45014 14.3499 10.6101 15.4699 10.8701ZM10.4999 11.5001C10.4999 12.0501 10.9499 12.5001 11.4999 12.5001C12.0499 12.5001 12.4999 12.0501 12.4999 11.5001C12.4999 10.9501 12.0499 10.5001 11.4999 10.5001C10.9499 10.5001 10.4999 10.9501 10.4999 11.5001Z" fill="#212121"/>
</svg>
