<svg width="48" height="48" viewBox="0 0 48 48" fill="none" xmlns="http://www.w3.org/2000/svg">
<path d="M8.5 13V26H8.49C8.49 34.48 15.3 41.35 23.74 41.49C24.25 42.37 24.86 43.18 25.56 43.92C25.05 43.97 24.53 44 24 44C14.06 44 6 35.94 6 26V12.75C4.83 12.26 4 11.1 4 9.75V7.25C4 5.46 5.46 4 7.25 4H40.75C42.54 4 44 5.46 44 7.25V9.75C44 11.1 43.17 12.26 42 12.75V24.06C41.22 23.56 40.38 23.15 39.5 22.82V13H8.5ZM6.5 7.25V9.75C6.5 10.16 6.84 10.5 7.25 10.5H40.75C41.16 10.5 41.5 10.16 41.5 9.75V7.25C41.5 6.84 41.16 6.5 40.75 6.5H7.25C6.84 6.5 6.5 6.84 6.5 7.25Z" fill="#212121"/>
<path d="M22.21 32.73C19.77 31.97 18 29.69 18 27C18 23.69 20.69 21 24 21C26.02 21 27.8 22 28.89 23.53C25.43 25.38 22.91 28.74 22.21 32.73Z" fill="#212121"/>
<path d="M31.24 22.56L31.2484 22.5575L31.25 22.56H31.24Z" fill="#212121"/>
<path d="M31.2484 22.5575C32.0758 22.3088 32.933 22.1397 33.82 22.06C32.01 18.47 28.3 16 24 16C17.92 16 13 20.92 13 27C13 32.5 17.05 37.05 22.33 37.86C22.14 37.02 22.03 36.15 22.02 35.26C18.29 34.36 15.51 31.01 15.51 27C15.51 22.31 19.32 18.5 24.01 18.5C27.0689 18.5 29.7481 20.1289 31.2484 22.5575Z" fill="#212121"/>
<path d="M42.4102 32.4602L45.8702 33.3302H45.8602C45.9502 33.8802 45.9902 34.4302 45.9902 35.0002C45.9902 35.6602 45.9302 36.3002 45.8202 36.9302L42.5602 37.6802C41.4302 37.9402 40.7602 39.1102 41.1002 40.2202L42.0802 43.4202C41.1702 44.1902 40.1302 44.8202 38.9902 45.2602L36.5102 42.6902C35.7202 41.8802 34.4202 41.8802 33.6302 42.6902L31.1102 45.3002C29.9802 44.8702 28.9402 44.2602 28.0202 43.5102L29.0202 40.0302C29.3302 38.9402 28.6802 37.8102 27.5802 37.5402L24.1202 36.6702C24.0302 36.1202 23.9902 35.5702 23.9902 35.0002C23.9902 34.3402 24.0502 33.7002 24.1602 33.0702L27.4202 32.3202C28.5502 32.0602 29.2202 30.8902 28.8802 29.7802L27.9002 26.5802C28.8202 25.8102 29.8602 25.1802 31.0002 24.7402L33.4802 27.3102C34.2702 28.1202 35.5702 28.1202 36.3602 27.3102L38.8802 24.7002C40.0102 25.1302 41.0502 25.7402 41.9702 26.4902L40.9702 29.9702C40.6602 31.0602 41.3102 32.1902 42.4102 32.4602ZM32.0002 35.0002C32.0002 36.6602 33.3402 38.0002 35.0002 38.0002C36.6602 38.0002 38.0002 36.6602 38.0002 35.0002C38.0002 33.3402 36.6602 32.0002 35.0002 32.0002C33.3402 32.0002 32.0002 33.3402 32.0002 35.0002Z" fill="#212121"/>
</svg>
