<svg width="20" height="20" viewBox="0 0 20 20" fill="none" xmlns="http://www.w3.org/2000/svg">
<path d="M15.5389 14.874L13.9475 14.8763L13.9513 14.8808H6.06937C5.42381 14.8808 4.80076 14.624 4.34286 14.1661C3.88496 13.7082 3.62824 13.0867 3.62824 12.4396V5.96897C3.29645 6.08608 3.01195 6.30076 2.81002 6.58676C2.60809 6.87276 2.50001 7.21356 2.5 7.56262V12.4344C2.5 13.3802 2.87458 14.2878 3.54341 14.9566C4.2115 15.6247 5.11979 16 6.06562 16H13.9475C14.6832 16 15.3077 15.5316 15.5389 14.874Z" fill="black"/>
<path d="M11.3784 6.43667C11.0507 6.31344 10.6341 6.25183 10.1286 6.25183H8.9931C8.72373 6.25183 8.50537 6.47251 8.50537 6.74474V11.3888C8.50537 11.6611 8.72373 11.8818 8.9931 11.8818H9.19886C9.46822 11.8818 9.68658 11.6611 9.68658 11.3888V9.72144H10.3153L11.502 11.6492C11.591 11.7938 11.7476 11.8818 11.9161 11.8818H12.0382C12.429 11.8818 12.6611 11.4404 12.4424 11.1131L11.3174 9.42877C11.5003 9.34405 11.6705 9.23495 11.828 9.10145C11.9855 8.96796 12.1125 8.80494 12.209 8.6124C12.3056 8.41985 12.3538 8.19522 12.3538 7.9385C12.3538 7.55855 12.2738 7.24406 12.1138 6.99504C11.9538 6.74602 11.7086 6.5599 11.3784 6.43667ZM9.68658 7.22994H10.0448C10.4258 7.22994 10.7065 7.28642 10.8868 7.39938C11.0697 7.51234 11.1612 7.70231 11.1612 7.96931C11.1612 8.22603 11.0761 8.42114 10.9059 8.55463C10.7382 8.68556 10.4588 8.75103 10.0676 8.75103H9.68658V7.22994Z" fill="black"/>
<path d="M17.5139 5.68898C17.5139 5.46753 17.4703 5.24759 17.3855 5.04266H17.387C17.3022 4.83773 17.1776 4.65157 17.0207 4.49468C16.8638 4.3378 16.6777 4.21319 16.4727 4.12836C16.2678 4.04369 16.0486 4 15.8264 4H6.06787C5.84643 4 5.62649 4.04354 5.42156 4.12836C5.21663 4.21319 5.03046 4.3378 4.87358 4.49468C4.71669 4.65157 4.59193 4.83773 4.50726 5.04266C4.42258 5.24759 4.37889 5.46753 4.37889 5.68898V12.4449C4.37889 12.8923 4.5568 13.3217 4.87358 13.6384C5.18885 13.9552 5.61898 14.1331 6.06712 14.1331H15.8257C16.2731 14.1331 16.7024 13.9552 17.0192 13.6384C17.336 13.3232 17.5139 12.893 17.5139 12.4449V5.68898ZM16.3872 5.68823V12.4441C16.3872 12.5935 16.3278 12.7361 16.222 12.842C16.1169 12.9478 15.9735 13.0071 15.8242 13.0071H6.06562C5.75485 13.0071 5.50263 12.7549 5.50263 12.4441V5.68823C5.50263 5.53885 5.56268 5.39622 5.66777 5.29038C5.77286 5.18454 5.91624 5.12523 6.06562 5.12523H15.8242C15.9735 5.12523 16.1162 5.18454 16.222 5.29038C16.3278 5.39547 16.3872 5.53885 16.3872 5.68823Z" fill="black"/>
</svg>
