<svg width="20" height="20" viewBox="0 0 20 20" fill="none" xmlns="http://www.w3.org/2000/svg">
<path d="M15.5389 14.874L13.9475 14.8763L13.9513 14.8808H6.06937C5.42381 14.8808 4.80076 14.624 4.34286 14.1661C3.88496 13.7082 3.62824 13.0867 3.62824 12.4396V5.96897C3.29645 6.08608 3.01195 6.30076 2.81002 6.58676C2.60809 6.87276 2.50001 7.21356 2.5 7.56262V12.4344C2.5 13.3802 2.87458 14.2878 3.54341 14.9566C4.2115 15.6247 5.11979 16 6.06562 16H13.9475C14.6832 16 15.3077 15.5316 15.5389 14.874Z" fill="black"/>
<path d="M9.68646 7.23007H10.0446C10.4257 7.23007 10.7064 7.28655 10.8867 7.3995C11.0696 7.51246 11.1611 7.70244 11.1611 7.96943C11.1611 8.22615 11.076 8.42126 10.9058 8.55475C10.7381 8.68568 10.4587 8.75115 10.0675 8.75115H9.68646V7.23007Z" fill="black"/>
<path d="M17.5139 5.68898C17.5139 5.46753 17.4704 5.24759 17.3855 5.04266H17.387C17.3022 4.83773 17.1776 4.65157 17.0207 4.49468C16.8638 4.3378 16.6777 4.21319 16.4727 4.12836C16.2678 4.04369 16.0486 4 15.8264 4H6.06787C5.84643 4 5.62649 4.04354 5.42156 4.12836C5.21663 4.21319 5.03046 4.3378 4.87358 4.49468C4.71669 4.65157 4.59193 4.83773 4.50726 5.04266C4.42258 5.24759 4.37889 5.46753 4.37889 5.68898V12.4449C4.37889 12.8923 4.5568 13.3217 4.87358 13.6384C5.18885 13.9552 5.61898 14.1331 6.06712 14.1331H15.8257C16.2731 14.1331 16.7024 13.9552 17.0192 13.6384C17.336 13.3232 17.5139 12.893 17.5139 12.4449V5.68898ZM11.3783 6.43679C11.7085 6.56002 11.9536 6.74614 12.1137 6.99516C12.2737 7.24419 12.3537 7.55867 12.3537 7.93862C12.3537 8.19534 12.3055 8.41998 12.2089 8.61252C12.1124 8.80506 11.9854 8.96808 11.8279 9.10157C11.6704 9.23507 11.5002 9.34418 11.3173 9.42889L12.4423 11.1132C12.661 11.4406 12.4289 11.8819 12.0381 11.8819H11.916C11.7475 11.8819 11.5909 11.794 11.5018 11.6493L10.3152 9.72156H9.68646V11.389C9.68646 11.6612 9.4681 11.8819 9.19874 11.8819H8.99298C8.72361 11.8819 8.50525 11.6612 8.50525 11.389V6.74486C8.50525 6.47264 8.72361 6.25195 8.99298 6.25195H10.1285C10.634 6.25195 11.0506 6.31357 11.3783 6.43679Z" fill="black"/>
</svg>
