<svg width="20" height="20" viewBox="0 0 20 20" fill="none" xmlns="http://www.w3.org/2000/svg">
<path d="M10.1608 17.9984C10.5999 17.9895 10.9114 17.5894 10.859 17.1532C10.8067 16.7171 10.4099 16.4113 9.97067 16.4092C8.79643 16.4039 7.64062 16.0758 6.63281 15.4536C5.39837 14.6914 4.45902 13.5329 3.96836 12.1676C3.4777 10.8023 3.46477 9.31096 3.93166 7.93735C4.39855 6.56374 5.31766 5.38918 6.5387 4.60569C7.75973 3.8222 9.21046 3.47615 10.6537 3.62412C11.672 3.72852 12.644 4.07449 13.4922 4.62567C14.1218 5.03896 14.4513 5.32266 14.9781 5.96296C15.7309 6.89125 16.2124 8.01587 16.3606 9.21164C16.5063 10.3871 16.3229 11.5745 15.8385 12.6441C15.6573 13.0443 15.77 13.5324 16.1446 13.7617C16.5192 13.9911 17.0128 13.8747 17.2039 13.4791C17.8708 12.0982 18.1292 10.549 17.9392 9.01598C17.7165 7.21888 16.8907 5.55052 15.5967 4.28366C14.3028 3.01681 12.6173 2.22642 10.8159 2.04173C9.01451 1.85704 7.20374 2.28897 5.67966 3.26691C4.15558 4.24484 3.00837 5.71092 2.4256 7.42543C1.84283 9.13995 1.85898 11.0015 2.47141 12.7056C3.08384 14.4097 4.25631 15.8557 5.79713 16.807C7.11149 17.6186 8.62753 18.0292 10.1608 17.9984Z" fill="#212121"/>
<path d="M10.5434 5.1212C10.2058 5.09995 10.0173 5.47016 10.1965 5.757L11.4777 7.80735C12.1403 8.86768 11.8178 10.2644 10.7575 10.9269C9.69718 11.5895 8.3005 11.267 7.63793 10.2067L6.35673 8.15636C6.1775 7.86953 5.76211 7.87669 5.63323 8.1894C5.53027 8.43922 5.44632 8.70077 5.38354 8.9727C4.76477 11.6529 6.43588 14.3272 9.11608 14.946C9.79356 15.1024 10.9464 14.9438 11.198 14.7719L13.27 18.0665C13.9325 19.1268 14.8135 19.6719 15.8738 19.0093C16.9342 18.3468 16.8237 17.3024 16.1612 16.242L14.0693 12.9602C14.5019 12.6793 14.9361 11.8775 15.0894 11.2135C15.7082 8.53328 14.0371 5.85893 11.3569 5.24016C11.0849 5.17738 10.813 5.13817 10.5434 5.1212Z" fill="#212121"/>
</svg>
