<svg width="20" height="20" viewBox="0 0 20 20" fill="none" xmlns="http://www.w3.org/2000/svg">
<path d="M10.4598 17.9868C10.7333 17.971 10.9274 17.7224 10.8947 17.4503C10.8621 17.1783 10.6149 16.9861 10.3413 16.9994C8.93027 17.0682 7.52701 16.7089 6.31843 15.9627C4.96872 15.1294 3.94167 13.8628 3.4052 12.37C2.86873 10.8772 2.85459 9.24662 3.36507 7.74477C3.87556 6.24291 4.88048 4.95868 6.21552 4.10204C7.55057 3.2454 9.13675 2.86704 10.7147 3.02882C12.0398 3.16467 13.2932 3.67465 14.3321 4.49173C14.6295 4.72546 14.7921 4.87066 15.0717 5.16409C16.108 6.25083 16.7693 7.64362 16.9545 9.13803C17.1292 10.5476 16.8711 11.973 16.2205 13.2269C16.0944 13.4702 16.1661 13.7749 16.3998 13.918C16.6335 14.061 16.9404 13.9882 17.0687 13.7461C17.8353 12.2996 18.1416 10.6485 17.9392 9.01598C17.7165 7.21888 16.8907 5.55052 15.5967 4.28366C14.3028 3.01681 12.6173 2.22642 10.8159 2.04173C9.01451 1.85704 7.20374 2.28897 5.67966 3.26691C4.15558 4.24484 3.00837 5.71092 2.4256 7.42543C1.84283 9.13995 1.85898 11.0015 2.47141 12.7056C3.08384 14.4097 4.25631 15.8557 5.79713 16.807C7.19688 17.6713 8.82537 18.0809 10.4598 17.9868Z" fill="#212121"/>
<path d="M10.5224 5.03691C10.7986 5.05128 11.0778 5.08879 11.3568 5.15002C14.1067 5.75356 15.8462 8.47185 15.2427 11.2218C15.0932 11.903 14.6908 12.5545 14.2185 13.0212C14.1702 13.0689 14.1205 13.1129 14.0737 13.1579L16.3019 16.5691L16.304 16.5725C16.6373 17.0933 16.8133 17.583 16.7986 18.0039C16.7918 18.1926 16.7455 18.3906 16.6294 18.5836C16.5145 18.7745 16.3413 18.9431 16.1082 19.0923C15.8743 19.2419 15.6489 19.3282 15.4287 19.3533C15.2058 19.3784 15.0088 19.3387 14.8367 19.2674C14.4514 19.1076 14.0834 18.7466 13.7499 18.2257L11.5479 14.8059C11.4676 14.8385 11.3855 14.8737 11.2998 14.907C10.9108 15.0581 9.86591 15.2613 9.17094 15.1088C6.42129 14.5052 4.68187 11.7867 5.28503 9.03704C5.34626 8.75803 5.4294 8.48882 5.532 8.23199C5.6605 7.91068 6.08501 7.89869 6.27161 8.19018L7.60591 10.2743C8.29578 11.3521 9.72857 11.6667 10.8064 10.9769C11.8841 10.2871 12.1986 8.85427 11.509 7.77647L10.1747 5.69233C9.98816 5.40089 10.1769 5.01928 10.5224 5.03691Z" fill="#212121"/>
</svg>
