<svg width="28" height="28" viewBox="0 0 28 28" fill="none" xmlns="http://www.w3.org/2000/svg">
<path d="M14.4341 25.9921C14.986 25.9722 15.3774 25.4699 15.3116 24.9215L15.3091 24.9007C15.2432 24.3524 14.7448 23.9665 14.1926 23.9772C12.2828 24.0141 10.3947 23.5019 8.75741 22.491C6.83542 21.3043 5.37289 19.5006 4.60895 17.3749C3.84502 15.2492 3.82487 12.9272 4.55181 10.7885C5.27874 8.64987 6.70976 6.82111 8.61087 5.60125C10.512 4.38139 12.7707 3.8426 15.0178 4.07298C16.7602 4.25162 18.4156 4.88454 19.8238 5.89658C20.4427 6.30704 20.7721 6.59313 21.3199 7.21763C22.7394 8.74953 23.6454 10.6919 23.9033 12.7726C24.14 14.6821 23.8188 16.612 22.9894 18.3327C22.7496 18.8302 22.8927 19.4441 23.3637 19.7325L23.3815 19.7434C23.8526 20.0317 24.4723 19.8853 24.7204 19.3919C25.784 17.2773 26.2018 14.8877 25.9089 12.524C25.5747 9.82833 24.336 7.32577 22.3951 5.42549C20.4542 3.52521 17.926 2.33963 15.2239 2.06259C12.5218 1.78556 9.80561 2.43346 7.51948 3.90036C5.23336 5.36727 3.51255 7.56638 2.63839 10.1382C1.76424 12.7099 1.78846 15.5022 2.70711 18.0584C3.62576 20.6146 5.38447 22.7835 7.6957 24.2106C9.72236 25.4619 12.0687 26.0778 14.4341 25.9921Z" fill="#212121"/>
<path d="M14.3264 6.05706C13.816 6.02493 13.5309 6.58477 13.8019 7.01852L15.7394 10.1191C16.7413 11.7225 16.2537 13.8346 14.6502 14.8365C13.0468 15.8385 10.9347 15.3509 9.93279 13.7474L7.99535 10.6469C7.72431 10.2131 7.09616 10.2239 6.90126 10.6968C6.74556 11.0746 6.61863 11.4701 6.52369 11.8813C5.58797 15.9344 8.11505 19.9785 12.1681 20.9142C13.1926 21.1508 14.9359 20.9109 15.3163 20.6509L18.4496 25.6331C19.4516 27.2365 20.7838 28.0608 22.3872 27.0588C23.9907 26.0569 23.8236 24.4775 22.8217 22.8741L19.6583 17.9112C20.3125 17.4865 20.9692 16.2739 21.201 15.2699C22.1367 11.2168 19.6096 7.17267 15.5566 6.23696C15.1454 6.14202 14.7342 6.08273 14.3264 6.05706Z" fill="#212121"/>
</svg>
