<svg width="16" height="17" viewBox="0 0 16 17" fill="none" xmlns="http://www.w3.org/2000/svg">
<path d="M8.7739 14.4442C8.80745 14.7236 8.60808 14.9792 8.327 14.9924C6.92225 15.0581 5.52577 14.6991 4.32249 13.9562C2.97428 13.1237 1.94836 11.8585 1.41248 10.3674C0.876604 8.87628 0.862472 7.24746 1.3724 5.74726C1.88232 4.24706 2.88613 2.96424 4.2197 2.10854C5.55327 1.25285 7.1377 0.874909 8.71393 1.03651C10.2902 1.19812 11.7649 1.88971 12.8971 2.9982C14.0293 4.1067 14.7519 5.56652 14.9468 7.13898C15.1208 8.5424 14.8652 9.96144 14.2201 11.211C14.091 11.4611 13.7755 11.5358 13.5355 11.3889C13.2956 11.2419 13.2223 10.9291 13.3482 10.6775C13.8747 9.62603 14.0812 8.43877 13.9356 7.26432C13.7817 6.02252 13.2426 4.86293 12.398 3.94658C12.1148 3.64622 11.9512 3.5091 11.6602 3.26968C10.7809 2.58928 9.72515 2.16449 8.61001 2.05016C7.26322 1.91208 5.90943 2.23501 4.76998 2.96614C3.63054 3.69728 2.77285 4.79336 2.33715 6.07518C1.90145 7.357 1.91353 8.74872 2.3714 10.0228C2.82927 11.2969 3.70585 12.3779 4.85781 13.0891C5.86478 13.7109 7.0301 14.0179 8.20532 13.9775C8.48653 13.9678 8.74035 14.1648 8.7739 14.4442Z" fill="#212121"/>
<path d="M8.28195 3.70533C8.52331 3.71789 8.76735 3.75067 9.01118 3.80417C11.4143 4.33161 12.9344 6.70712 12.4071 9.11027C12.2764 9.70563 11.9248 10.275 11.512 10.6828C11.4698 10.7245 11.4263 10.7629 11.3855 10.8023L13.3327 13.7833L13.3345 13.7863C13.6258 14.2415 13.7796 14.6694 13.7667 15.0372C13.7608 15.2021 13.7204 15.3751 13.6189 15.5438C13.5185 15.7106 13.3671 15.858 13.1634 15.9884C12.959 16.1191 12.7621 16.1945 12.5696 16.2164C12.3748 16.2384 12.2026 16.2036 12.0523 16.1414C11.7155 16.0017 11.394 15.6863 11.1025 15.231L9.17818 12.2424C9.108 12.271 9.03621 12.3017 8.96134 12.3308C8.62145 12.4629 7.70827 12.6404 7.10093 12.5071C4.69801 11.9797 3.17793 9.60402 3.70503 7.20105C3.75854 6.95722 3.8312 6.72196 3.92086 6.49751C4.03316 6.21672 4.40414 6.20624 4.56721 6.46098L5.73326 8.28231C6.33614 9.22416 7.58825 9.4991 8.53015 8.89633C9.47197 8.29349 9.74682 7.04133 9.14417 6.09944L7.97812 4.2781C7.8151 4.02341 7.98009 3.68993 8.28195 3.70533Z" fill="#212121"/>
</svg>
