<svg width="24" height="24" viewBox="0 0 24 24" fill="none" xmlns="http://www.w3.org/2000/svg">
<path d="M12.2057 21.9979C12.752 21.9866 13.1395 21.4888 13.0744 20.9463C13.0092 20.4037 12.5157 20.0231 11.9692 20.0211C10.4976 20.0154 9.04898 19.6048 7.78604 18.825C6.24116 17.8711 5.06559 16.4214 4.45154 14.7127C3.83749 13.0041 3.8213 11.1377 4.40561 9.41864C4.98991 7.6996 6.14015 6.22966 7.66825 5.24914C9.19636 4.26862 11.0119 3.83555 12.8181 4.02073C14.166 4.15893 15.4492 4.63537 16.5528 5.39619C17.2043 5.83618 17.5324 6.12516 18.0429 6.72537C19.0924 7.92772 19.7627 9.42009 19.9602 11.0134C20.1428 12.4864 19.9124 13.9744 19.3043 15.3145C19.0785 15.8121 19.2188 16.4193 19.6848 16.7046C20.1509 16.99 20.7649 16.8451 21.0028 16.3532C21.838 14.626 22.1617 12.6878 21.924 10.77C21.6456 8.5236 20.6133 6.43815 18.9959 4.85458C17.3785 3.27101 15.2717 2.28302 13.0199 2.05216C10.7681 1.8213 8.50467 2.36121 6.59957 3.58363C4.69447 4.80605 3.26046 6.63865 2.53199 8.78179C1.80353 10.9249 1.82372 13.2518 2.58926 15.382C3.3548 17.5122 4.82039 19.3196 6.74642 20.5088C8.39072 21.524 10.2875 22.0374 12.2057 21.9979Z" fill="#212121"/>
<path d="M12.7225 5.78653C12.2891 5.75925 12.0471 6.23454 12.2772 6.60279L13.922 9.2351C14.7727 10.5964 14.3587 12.3895 12.9974 13.2401C11.6361 14.0908 9.84302 13.6768 8.99239 12.3155L7.34754 9.68318C7.11744 9.31493 6.58415 9.32412 6.41869 9.72559C6.2865 10.0463 6.17873 10.3821 6.09813 10.7312C5.30373 14.1722 7.44916 17.6056 10.8901 18.4C11.7599 18.6008 13.2399 18.3972 13.5629 18.1764L16.223 22.4062C17.0736 23.7675 18.2047 24.4672 19.5659 23.6166C20.9272 22.766 20.7854 21.4251 19.9348 20.0638L17.2491 15.8504C17.8045 15.4898 18.362 14.4605 18.5588 13.608C19.3532 10.1671 17.2078 6.73366 13.7669 5.93926C13.4178 5.85866 13.0687 5.80832 12.7225 5.78653Z" fill="#212121"/>
</svg>
