<svg width="24" height="24" viewBox="0 0 24 24" fill="none" xmlns="http://www.w3.org/2000/svg">
<path d="M12.4229 21.9911C12.8489 21.973 13.1511 21.5854 13.1003 21.162C13.0494 20.7386 12.6647 20.4403 12.2384 20.4523C10.5945 20.4987 8.96653 20.0646 7.55775 19.1947C5.92917 18.1892 4.68992 16.6609 4.04261 14.8597C3.39529 13.0585 3.37822 11.091 3.99419 9.2788C4.61015 7.46663 5.8227 5.91705 7.43359 4.88342C9.04447 3.84978 10.9584 3.39325 12.8624 3.58846C14.3851 3.74458 15.8295 4.31018 17.0465 5.2154C17.5499 5.57584 17.7968 5.78918 18.1642 6.21209C19.389 7.51638 20.1706 9.1783 20.3914 10.9599C20.5951 12.603 20.3113 14.2638 19.5841 15.7388C19.3956 16.1213 19.5064 16.5954 19.8701 16.8181C20.2338 17.0407 20.7121 16.9276 20.9061 16.5477C21.8127 14.7722 22.1707 12.7601 21.924 10.77C21.6456 8.5236 20.6133 6.43815 18.9959 4.85458C17.3785 3.27101 15.2717 2.28302 13.0199 2.05216C10.7681 1.8213 8.50467 2.36121 6.59957 3.58363C4.69447 4.80605 3.26046 6.63865 2.53199 8.78179C1.80353 10.9249 1.82372 13.2518 2.58926 15.382C3.3548 17.5122 4.82039 19.3196 6.74642 20.5088C8.45274 21.5623 10.431 22.0754 12.4229 21.9911Z" fill="#212121"/>
<path d="M12.5663 5.6323C12.9194 5.65068 13.2764 5.69863 13.6332 5.77691C17.1489 6.54854 19.3728 10.0239 18.6013 13.5396C18.4101 14.4106 17.8956 15.2436 17.2918 15.8401C17.2301 15.9011 17.1665 15.9574 17.1067 16.015L19.9555 20.3761L19.9581 20.3805C20.3842 21.0464 20.6093 21.6724 20.5904 22.2106C20.5818 22.4518 20.5226 22.7049 20.3741 22.9517C20.2272 23.1958 20.0057 23.4113 19.7077 23.6021C19.4087 23.7933 19.1206 23.9037 18.839 23.9357C18.5541 23.9679 18.3021 23.917 18.0822 23.8259C17.5895 23.6216 17.1191 23.1601 16.6927 22.4941L13.8775 18.1219C13.7748 18.1636 13.6698 18.2086 13.5602 18.2512C13.063 18.4443 11.727 18.7041 10.8385 18.5091C7.3231 17.7375 5.09926 14.2619 5.8704 10.7465C5.94868 10.3897 6.05498 10.0456 6.18615 9.7172C6.35044 9.30641 6.89317 9.29108 7.13175 9.66375L8.83764 12.3283C9.71964 13.7062 11.5514 14.1084 12.9294 13.2266C14.3073 12.3447 14.7094 10.5128 13.8277 9.13482L12.1218 6.47026C11.8833 6.09765 12.1247 5.60977 12.5663 5.6323Z" fill="#212121"/>
</svg>
