<svg width="28" height="28" viewBox="0 0 28 28" fill="none" xmlns="http://www.w3.org/2000/svg">
<path d="M14.6376 25.983C15.0768 25.9597 15.3883 25.5604 15.3359 25.1238C15.2834 24.6871 14.8868 24.3789 14.4474 24.3978C12.3719 24.4871 10.3103 23.9532 8.53237 22.8555C6.52788 21.6178 5.00257 19.7368 4.20584 17.5198C3.40911 15.3028 3.3881 12.8811 4.14624 10.6507C4.90438 8.42022 6.39682 6.51295 8.37954 5.24073C10.3623 3.96851 12.718 3.40659 15.0615 3.64686C16.9764 3.84319 18.7907 4.56566 20.3086 5.72253C20.8098 6.08453 21.058 6.29349 21.4308 6.71318C23.028 8.34192 24.0473 10.4521 24.3284 12.7199C24.5854 14.7935 24.2117 16.8901 23.2656 18.7396C23.0653 19.1311 23.1802 19.6201 23.5553 19.8497C23.9303 20.0794 24.4231 19.9625 24.6274 19.5731C25.7595 17.4144 26.2102 14.9555 25.9089 12.524C25.5747 9.82833 24.336 7.32577 22.3951 5.42549C20.4542 3.52521 17.926 2.33963 15.2239 2.06259C12.5218 1.78556 9.80561 2.43346 7.51948 3.90036C5.23336 5.36727 3.51255 7.56638 2.63839 10.1382C1.76424 12.7099 1.78846 15.5022 2.70711 18.0584C3.62576 20.6146 5.38447 22.7835 7.6957 24.2106C9.78047 25.4978 12.2035 26.1126 14.6376 25.983Z" fill="#212121"/>
<path d="M14.37 6.11298C14.784 6.13453 15.2027 6.19076 15.621 6.28256C19.7438 7.18742 22.3517 11.2628 21.447 15.3856C21.2228 16.407 20.6195 17.3838 19.9114 18.0834C19.839 18.155 19.7644 18.2209 19.6943 18.2884L23.035 23.4026L23.0381 23.4078C23.5378 24.1886 23.8017 24.9228 23.7796 25.5538C23.7695 25.8367 23.7001 26.1335 23.526 26.423C23.3537 26.7091 23.094 26.9619 22.7445 27.1856C22.3938 27.4098 22.056 27.5393 21.7258 27.5768C21.3916 27.6146 21.0962 27.5549 20.8383 27.4481C20.2605 27.2085 19.7089 26.6673 19.2089 25.8864L15.9075 20.7592C15.7871 20.8081 15.6639 20.8609 15.5355 20.9108C14.9524 21.1373 13.3858 21.4419 12.3438 21.2133C8.2214 20.3084 5.61357 16.2327 6.51786 12.1102C6.60966 11.6919 6.7343 11.2883 6.88813 10.9032C7.08079 10.4215 7.71723 10.4035 7.997 10.8405L9.99745 13.9652C11.0317 15.581 13.1799 16.0527 14.7958 15.0186C16.4115 13.9844 16.8831 11.8362 15.8492 10.2203L13.8487 7.09563C13.569 6.65869 13.8521 6.08656 14.37 6.11298Z" fill="#212121"/>
</svg>
