<svg width="16" height="17" viewBox="0 0 16 17" fill="none" xmlns="http://www.w3.org/2000/svg">
<path d="M8.74303 14.1871C8.79363 14.6085 8.49256 14.9956 8.06818 14.9997C6.75135 15.0125 5.45184 14.6535 4.3225 13.9562C2.97428 13.1238 1.94836 11.8585 1.41248 10.3674C0.876604 8.87629 0.862472 7.24746 1.3724 5.74726C1.88232 4.24706 2.88613 2.96424 4.2197 2.10855C5.55327 1.25285 7.1377 0.874908 8.71394 1.03651C10.2902 1.19812 11.7649 1.88971 12.8971 2.99821C14.0293 4.10671 14.7519 5.56653 14.9468 7.13899C15.1101 8.45618 14.895 9.78711 14.3346 10.9788C14.154 11.3629 13.6767 11.4753 13.3147 11.2537C12.9527 11.0321 12.8446 10.5605 13.0132 10.171C13.3987 9.281 13.5421 8.29972 13.4216 7.32803C13.2921 6.28251 12.8635 5.30079 12.1931 4.49806C11.8203 4.05469 11.5508 3.82422 11.0787 3.49147C11.0345 3.46031 10.9986 3.43497 10.9698 3.41462C10.2484 2.9474 9.4224 2.65408 8.55719 2.56538C7.32703 2.43925 6.09046 2.73422 5.04968 3.40204C4.0089 4.06987 3.22548 5.07104 2.82751 6.24186C2.42955 7.41269 2.44058 8.6839 2.8588 9.84764C3.27702 11.0114 4.0777 11.9988 5.12991 12.6485C5.96303 13.1629 6.91481 13.4414 7.8845 13.4619C8.3088 13.4709 8.69243 13.7657 8.74303 14.1871Z" fill="#212121"/>
<path d="M8.34001 3.68015C8.03808 3.66115 7.86945 3.99228 8.02977 4.24884L9.17574 6.08279C9.76838 7.03121 9.47996 8.28048 8.53155 8.87312C7.58313 9.46576 6.33386 9.17734 5.74122 8.22892L4.59524 6.39497C4.43492 6.13841 4.06338 6.14481 3.9481 6.42452C3.85601 6.64798 3.78092 6.88192 3.72477 7.12515C3.1713 9.52247 4.66604 11.9146 7.06336 12.468C7.66934 12.6079 8.7005 12.4661 8.92552 12.3122L10.7788 15.2592C11.3715 16.2076 12.1595 16.6951 13.1079 16.1025C14.0563 15.5098 13.9575 14.5757 13.3649 13.6273L11.4938 10.6918C11.8807 10.4405 12.2691 9.72333 12.4062 9.12942C12.9597 6.73211 11.465 4.34002 9.06764 3.78656C8.8244 3.7304 8.58122 3.69533 8.34001 3.68015Z" fill="#212121"/>
</svg>
