<svg width="20" height="20" viewBox="0 0 20 20" fill="none" xmlns="http://www.w3.org/2000/svg">
<path d="M5.5 11C7.63734 11 9.48993 9.78084 10.4003 8H12.8725L11.6344 5.77154C11.4841 5.50102 11.2573 5.28887 10.9894 5.15607C10.9659 4.77455 10.9034 4.40356 10.806 4.04701C11.5203 4.18756 12.1473 4.63551 12.5086 5.28589L14.0514 8.06289L16.1442 8.62097C17.2385 8.9128 18 9.90393 18 11.0366V12.25C18 12.9572 17.5805 13.5665 16.9767 13.8424C16.8098 15.0611 15.7645 16 14.5 16C13.2905 16 12.2816 15.1411 12.05 14H7.94999C7.71836 15.1411 6.70948 16 5.5 16C4.23545 16 3.19019 15.0611 3.02326 13.8424C2.41951 13.5665 2 12.9572 2 12.25V10.5616C2 10.3087 2.03794 10.063 2.109 9.83056C3.04331 10.5632 4.22064 11 5.5 11ZM4 13.5C4 14.3284 4.67157 15 5.5 15C6.32843 15 7 14.3284 7 13.5C7 12.6716 6.32843 12 5.5 12C4.67157 12 4 12.6716 4 13.5ZM13 13.5C13 14.3284 13.6716 15 14.5 15C15.3284 15 16 14.3284 16 13.5C16 12.6716 15.3284 12 14.5 12C13.6716 12 13 12.6716 13 13.5Z" fill="#242424"/>
<path d="M1 5.5C1 7.98528 3.01472 10 5.5 10C7.98528 10 10 7.98528 10 5.5C10 3.01472 7.98528 1 5.5 1C3.01472 1 1 3.01472 1 5.5ZM5.14645 3.14645C5.34171 2.95118 5.65829 2.95118 5.85355 3.14645C6.04882 3.34171 6.04882 3.65829 5.85355 3.85355L4.70711 5L7.5 5C7.77614 5 8 5.22386 8 5.5C8 5.77614 7.77614 6 7.5 6H4.70711L5.85355 7.14645C6.04882 7.34171 6.04882 7.65829 5.85355 7.85355C5.65829 8.04882 5.34171 8.04882 5.14645 7.85355L3.14645 5.85355C3.09851 5.80561 3.06234 5.75036 3.03794 5.69139C3.01385 5.63331 3.0004 5.5697 3.00001 5.503L3 5.5L3.00001 5.497C3.0004 5.4303 3.01385 5.36669 3.03794 5.30861C3.06198 5.25051 3.09744 5.19602 3.14433 5.14857L3.14684 5.14605L5.14645 3.14645Z" fill="#242424"/>
</svg>
