<svg width="24" height="24" viewBox="0 0 24 24" fill="none" xmlns="http://www.w3.org/2000/svg">
<path d="M6.5 13C8.58132 13 10.4342 12.0218 11.6238 10.5H15.9343L13.9347 7.11433C13.7341 6.77462 13.3866 6.55204 13 6.50803L13 6.5C13 5.98373 12.9398 5.48152 12.8261 5H12.8584C13.8312 5 14.7316 5.51393 15.2263 6.35154L17.7345 10.5984L19.9167 11.1438C21.141 11.4497 22 12.5497 22 13.8117V15.5C22 16.6024 21.3514 17.5532 20.415 17.9918C20.0794 19.4293 18.7897 20.5 17.25 20.5C15.804 20.5 14.5785 19.5556 14.1567 18.25H9.34325C8.92147 19.5556 7.69602 20.5 6.25 20.5C4.58719 20.5 3.21604 19.2512 3.02321 17.6404C2.39913 17.1363 2 16.3647 2 15.5V13.25C2 12.6487 2.19302 12.0924 2.52047 11.6398C3.62013 12.4924 5.00079 13 6.5 13ZM6.25 15.5C5.2835 15.5 4.5 16.2835 4.5 17.25C4.5 18.2165 5.2835 19 6.25 19C7.2165 19 8 18.2165 8 17.25C8 16.2835 7.2165 15.5 6.25 15.5ZM15.5 17.25C15.5 18.2165 16.2835 19 17.25 19C18.2165 19 19 18.2165 19 17.25C19 16.2835 18.2165 15.5 17.25 15.5C16.2835 15.5 15.5 16.2835 15.5 17.25Z" fill="#242424"/>
<path d="M1 6.5C1 9.53757 3.46243 12 6.5 12C9.53757 12 12 9.53757 12 6.5C12 3.46243 9.53757 1 6.5 1C3.46243 1 1 3.46243 1 6.5ZM10 6.5C10 6.77614 9.77614 7 9.5 7H4.70711L6.35355 8.64645C6.54882 8.84171 6.54882 9.15829 6.35355 9.35355C6.15829 9.54882 5.84171 9.54882 5.64645 9.35355L3.14645 6.85355C2.95118 6.65829 2.95118 6.34171 3.14645 6.14645L5.64645 3.64645C5.84171 3.45118 6.15829 3.45118 6.35355 3.64645C6.54882 3.84171 6.54882 4.15829 6.35355 4.35355L4.70711 6H9.5C9.77614 6 10 6.22386 10 6.5Z" fill="#242424"/>
</svg>
