<svg width="16" height="16" viewBox="0 0 16 16" fill="none" xmlns="http://www.w3.org/2000/svg">
<path d="M5.5 11C6.31896 11 7.09612 10.821 7.79449 10.5H10.063C10.285 9.63739 11.0681 9 12 9C12.8254 9 13.5341 9.50003 13.8395 10.2137C13.94 10.0861 14 9.92505 14 9.75V9.41126C14 8.77667 13.6007 8.21074 13.0028 7.99804L11.6029 7.5H10.6251C10.8671 6.88014 11 6.20558 11 5.5C11 5.41236 10.9979 5.32519 10.9939 5.23855L11.6412 6.45222L11.7755 6.5H11.8281V6.51873L13.338 7.05589C14.3344 7.4104 15 8.35361 15 9.41126V9.75C15 10.4597 14.5775 11.0708 13.9703 11.3454C13.8067 12.2853 12.9868 13 12 13C11.0681 13 10.285 12.3626 10.063 11.5H5.93699C5.71497 12.3626 4.93192 13 4 13C3.01321 13 2.19333 12.2853 2.02971 11.3454C1.4225 11.0708 1 10.4597 1 9.75V8.66308C1.28388 9.06621 1.62057 9.42948 2 9.74284V9.75C2 9.92505 2.05997 10.0861 2.16049 10.2137C2.19734 10.1276 2.24006 10.0446 2.28814 9.96525C2.55794 10.1597 2.84607 10.3302 3.14945 10.4738C3.0547 10.6267 3 10.807 3 11C3 11.5523 3.44772 12 4 12C4.55228 12 5 11.5523 5 11L4.99975 10.9776C5.16451 10.9924 5.33137 11 5.5 11ZM12 10C11.4477 10 11 10.4477 11 11C11 11.5523 11.4477 12 12 12C12.5523 12 13 11.5523 13 11C13 10.4477 12.5523 10 12 10Z" fill="#242424"/>
<path d="M1 5.5C1 7.98528 3.01472 10 5.5 10C7.98528 10 10 7.98528 10 5.5C10 3.01472 7.98528 1 5.5 1C3.01472 1 1 3.01472 1 5.5ZM5.14645 3.14645C5.34171 2.95118 5.65829 2.95118 5.85355 3.14645C6.04882 3.34171 6.04882 3.65829 5.85355 3.85355L4.70711 5L7.5 5C7.77614 5 8 5.22386 8 5.5C8 5.77614 7.77614 6 7.5 6H4.70711L5.85355 7.14645C6.04882 7.34171 6.04882 7.65829 5.85355 7.85355C5.65829 8.04882 5.34171 8.04882 5.14645 7.85355L3.14645 5.85355C3.09851 5.80561 3.06234 5.75036 3.03794 5.69139C3.01385 5.63331 3.0004 5.5697 3.00001 5.503L3 5.5L3.00001 5.497C3.0004 5.4303 3.01385 5.36669 3.03794 5.30861C3.06198 5.25051 3.09744 5.19602 3.14433 5.14857L3.14684 5.14605L5.14645 3.14645Z" fill="#242424"/>
</svg>
