<svg width="24" height="24" viewBox="0 0 24 24" fill="none" xmlns="http://www.w3.org/2000/svg">
<path d="M7.25 2C5.45507 2 4 3.45507 4 5.25V18.75C4 20.5449 5.45507 22 7.25 22H15.0711C14.7419 21.5822 14.5355 21.0629 14.5042 20.5H7.25C6.2835 20.5 5.5 19.7165 5.5 18.75V5.25C5.5 4.2835 6.2835 3.5 7.25 3.5H16.75C17.7165 3.5 18.5 4.2835 18.5 5.25V10H20V5.25C20 3.45507 18.5449 2 16.75 2H7.25Z" fill="#212121"/>
<path d="M13.25 8.25C13.25 8.94036 12.6904 9.5 12 9.5C11.3096 9.5 10.75 8.94036 10.75 8.25C10.75 7.55964 11.3096 7 12 7C12.6904 7 13.25 7.55964 13.25 8.25Z" fill="#212121"/>
<path d="M16.2601 10.1467C16.268 10.1126 16.275 10.0782 16.2809 10.0433L16.7909 7.04329C16.9725 5.97493 16.1493 5 15.0657 5H8.93435C7.85065 5 7.02748 5.97493 7.2091 7.04329L7.7191 10.0433C7.86211 10.8845 8.59102 11.5 9.44435 11.5H14.5557C14.6267 11.5 14.6969 11.4957 14.766 11.4874C15.067 10.8661 15.602 10.3781 16.2601 10.1467ZM8.68788 6.7919C8.66194 6.63928 8.77954 6.5 8.93435 6.5H15.0657C15.2205 6.5 15.3381 6.63928 15.3121 6.7919L14.8021 9.7919C14.7817 9.91208 14.6776 10 14.5557 10H9.44435C9.32244 10 9.21831 9.91208 9.19788 9.7919L8.68788 6.7919Z" fill="#212121"/>
<path d="M14.5 13.5427C14.4218 13.515 14.3377 13.5 14.25 13.5L9.75 13.5C9.33579 13.5 9 13.8358 9 14.25C9 14.6642 9.33579 15 9.75 15L14.25 15C14.3377 15 14.4218 14.985 14.5 14.9573V13.5427Z" fill="#212121"/>
<path d="M14.5 17.0427C14.4218 17.015 14.3377 17 14.25 17L9.75 17C9.33579 17 9 17.3358 9 17.75C9 18.1642 9.33579 18.5 9.75 18.5H14.25C14.3377 18.5 14.4218 18.485 14.5 18.4573V17.0427Z" fill="#212121"/>
<path d="M15.5 12.65C15.5 11.7387 16.2275 11 17.125 11H20.375C21.2725 11 22 11.7387 22 12.65V20.35C22 21.2613 21.2725 22 20.375 22H17.125C16.2275 22 15.5 21.2613 15.5 20.35V12.65ZM18.2083 13.2C17.9092 13.2 17.6667 13.4462 17.6667 13.75C17.6667 14.0538 17.9092 14.3 18.2083 14.3H19.2917C19.5908 14.3 19.8333 14.0538 19.8333 13.75C19.8333 13.4462 19.5908 13.2 19.2917 13.2H18.2083ZM17.6667 17.05C17.6667 17.3538 17.9092 17.6 18.2083 17.6H19.2917C19.5908 17.6 19.8333 17.3538 19.8333 17.05C19.8333 16.7462 19.5908 16.5 19.2917 16.5H18.2083C17.9092 16.5 17.6667 16.7462 17.6667 17.05ZM18.2083 18.7C17.9092 18.7 17.6667 18.9462 17.6667 19.25C17.6667 19.5538 17.9092 19.8 18.2083 19.8H19.2917C19.5908 19.8 19.8333 19.5538 19.8333 19.25C19.8333 18.9462 19.5908 18.7 19.2917 18.7H18.2083Z" fill="#212121"/>
</svg>
