<svg width="32" height="32" viewBox="0 0 32 32" fill="none" xmlns="http://www.w3.org/2000/svg">
<path d="M9 2C6.51472 2 4.5 4.01472 4.5 6.5V25.5C4.5 27.9853 6.51472 30 9 30H20.2497C19.8258 29.4356 19.5574 28.7477 19.5082 28H9C7.61929 28 6.5 26.8807 6.5 25.5V6.5C6.5 5.11929 7.61929 4 9 4H23C24.3807 4 25.5 5.11929 25.5 6.5V13.5H27.5V6.5C27.5 4.01472 25.4853 2 23 2H9Z" fill="#212121"/>
<path d="M16 13C17.1046 13 18 12.1046 18 11C18 9.89543 17.1046 9 16 9C14.8954 9 14 9.89543 14 11C14 12.1046 14.8954 13 16 13Z" fill="#212121"/>
<path d="M23.1952 13.5004L23.7815 8.81009C23.968 7.31796 22.8046 6 21.3008 6H10.6992C9.19543 6 8.03196 7.31795 8.21848 8.81009L8.84348 13.8101C8.99986 15.0612 10.0634 16 11.3242 16H19.7134C20.2224 14.5598 21.5862 13.5234 23.1952 13.5004ZM10.6992 8H21.3008C21.6016 8 21.8343 8.26359 21.797 8.56202L21.172 13.562C21.1407 13.8122 20.928 14 20.6758 14H11.3242C11.072 14 10.8593 13.8122 10.828 13.562L10.203 8.56202C10.1657 8.26359 10.3984 8 10.6992 8Z" fill="#212121"/>
<path d="M19.5 19H12C11.4477 19 11 19.4477 11 20C11 20.5523 11.4477 21 12 21H19.5V19Z" fill="#212121"/>
<path d="M19.5 23H12C11.4477 23 11 23.4477 11 24C11 24.5523 11.4477 25 12 25H19.5V23Z" fill="#212121"/>
<path d="M21 17.25C21 16.0074 22.0074 15 23.25 15H27.75C28.9926 15 30 16.0074 30 17.25V27.75C30 28.9926 28.9926 30 27.75 30H23.25C22.0074 30 21 28.9926 21 27.75V17.25ZM24.75 18C24.3358 18 24 18.3358 24 18.75C24 19.1642 24.3358 19.5 24.75 19.5H26.25C26.6642 19.5 27 19.1642 27 18.75C27 18.3358 26.6642 18 26.25 18H24.75ZM24 23.25C24 23.6642 24.3358 24 24.75 24H26.25C26.6642 24 27 23.6642 27 23.25C27 22.8358 26.6642 22.5 26.25 22.5H24.75C24.3358 22.5 24 22.8358 24 23.25ZM24.75 25.5C24.3358 25.5 24 25.8358 24 26.25C24 26.6642 24.3358 27 24.75 27H26.25C26.6642 27 27 26.6642 27 26.25C27 25.8358 26.6642 25.5 26.25 25.5H24.75Z" fill="#212121"/>
</svg>
