<svg width="20" height="20" viewBox="0 0 20 20" fill="none" xmlns="http://www.w3.org/2000/svg">
<path d="M4 5C4 3.34315 5.34315 2 7 2H13C14.6569 2 16 3.34315 16 5V8H13.875C13.3987 8 12.9513 8.14016 12.5761 8.38286C12.5784 8.36971 12.5804 8.35643 12.5821 8.34303L12.8946 5.84303C12.9506 5.39539 12.6015 5 12.1504 5H7.84959C7.39846 5 7.04942 5.39539 7.10538 5.84303L7.41788 8.34303C7.46479 8.71835 7.78384 9 8.16209 9H11.8379C11.8706 9 11.9029 8.99789 11.9346 8.9938C11.6616 9.37489 11.5 9.8415 11.5 10.35V11.5L8 11.5C7.72386 11.5 7.5 11.7239 7.5 12C7.5 12.2761 7.72386 12.5 8 12.5L11.5 12.5V14L8 14C7.72386 14 7.5 14.2239 7.5 14.5C7.5 14.7761 7.72386 15 8 15L11.5 15V16.65C11.5 17.1557 11.6598 17.6201 11.9302 18H7C5.34315 18 4 16.6569 4 15V5Z" fill="#212121"/>
<path d="M10 8.5C10.8284 8.5 11.5 7.82843 11.5 7C11.5 6.17157 10.8284 5.5 10 5.5C9.17157 5.5 8.5 6.17157 8.5 7C8.5 7.82843 9.17157 8.5 10 8.5ZM10 7.5C9.72386 7.5 9.5 7.27614 9.5 7C9.5 6.72386 9.72386 6.5 10 6.5C10.2761 6.5 10.5 6.72386 10.5 7C10.5 7.27614 10.2761 7.5 10 7.5Z" fill="#212121"/>
<path d="M12.5 10.35C12.5 9.60442 13.1156 9 13.875 9H16.625C17.3844 9 18 9.60442 18 10.35V16.65C18 17.3956 17.3844 18 16.625 18H13.875C13.1156 18 12.5 17.3956 12.5 16.65V10.35ZM14.7917 10.8C14.5385 10.8 14.3333 11.0015 14.3333 11.25C14.3333 11.4985 14.5385 11.7 14.7917 11.7H15.7083C15.9615 11.7 16.1667 11.4985 16.1667 11.25C16.1667 11.0015 15.9615 10.8 15.7083 10.8H14.7917ZM14.3333 13.95C14.3333 14.1985 14.5385 14.4 14.7917 14.4H15.7083C15.9615 14.4 16.1667 14.1985 16.1667 13.95C16.1667 13.7015 15.9615 13.5 15.7083 13.5H14.7917C14.5385 13.5 14.3333 13.7015 14.3333 13.95ZM14.7917 15.3C14.5385 15.3 14.3333 15.5015 14.3333 15.75C14.3333 15.9985 14.5385 16.2 14.7917 16.2H15.7083C15.9615 16.2 16.1667 15.9985 16.1667 15.75C16.1667 15.5015 15.9615 15.3 15.7083 15.3H14.7917Z" fill="#212121"/>
</svg>
