<svg width="20" height="20" viewBox="0 0 20 20" fill="none" xmlns="http://www.w3.org/2000/svg">
<path d="M7 2H13C14.6569 2 16 3.34315 16 5V8H15V5C15 3.89543 14.1046 3 13 3H7C5.89543 3 5 3.89543 5 5V15C5 16.1046 5.89543 17 7 17H11.526C11.5814 17.3698 11.7235 17.7096 11.9302 18H7C5.34315 18 4 16.6569 4 15V5C4 3.34315 5.34315 2 7 2Z" fill="#212121"/>
<path d="M11 7C11 7.55228 10.5523 8 10 8C9.44772 8 9 7.55228 9 7C9 6.44772 9.44772 6 10 6C10.5523 6 11 6.44772 11 7Z" fill="#212121"/>
<path d="M13.1134 8.12398C12.4509 8.34623 11.9138 8.85054 11.6595 9.5H8.16209C7.53168 9.5 6.99993 9.03058 6.92174 8.40504L6.60924 5.90504C6.51598 5.15898 7.09771 4.5 7.84959 4.5H12.1504C12.9023 4.5 13.484 5.15898 13.3908 5.90504L13.1134 8.12398ZM7.60152 5.78101L7.91402 8.28101C7.92966 8.40612 8.03601 8.5 8.16209 8.5H11.8379C11.964 8.5 12.0703 8.40612 12.086 8.28101L12.3985 5.78101C12.4171 5.6318 12.3008 5.5 12.1504 5.5H7.84959C7.69921 5.5 7.58287 5.6318 7.60152 5.78101Z" fill="#212121"/>
<path d="M11.5 11.5L8 11.5C7.72386 11.5 7.5 11.7239 7.5 12C7.5 12.2761 7.72386 12.5 8 12.5L11.5 12.5V11.5Z" fill="#212121"/>
<path d="M11.5 14L8 14C7.72386 14 7.5 14.2239 7.5 14.5C7.5 14.7761 7.72386 15 8 15L11.5 15V14Z" fill="#212121"/>
<path d="M12.5 10.35C12.5 9.60442 13.1156 9 13.875 9H16.625C17.3844 9 18 9.60442 18 10.35V16.65C18 17.3956 17.3844 18 16.625 18H13.875C13.1156 18 12.5 17.3956 12.5 16.65V10.35ZM14.7917 10.8C14.5385 10.8 14.3333 11.0015 14.3333 11.25C14.3333 11.4985 14.5385 11.7 14.7917 11.7H15.7083C15.9615 11.7 16.1667 11.4985 16.1667 11.25C16.1667 11.0015 15.9615 10.8 15.7083 10.8H14.7917ZM14.3333 13.95C14.3333 14.1985 14.5385 14.4 14.7917 14.4H15.7083C15.9615 14.4 16.1667 14.1985 16.1667 13.95C16.1667 13.7015 15.9615 13.5 15.7083 13.5H14.7917C14.5385 13.5 14.3333 13.7015 14.3333 13.95ZM14.7917 15.3C14.5385 15.3 14.3333 15.5015 14.3333 15.75C14.3333 15.9985 14.5385 16.2 14.7917 16.2H15.7083C15.9615 16.2 16.1667 15.9985 16.1667 15.75C16.1667 15.5015 15.9615 15.3 15.7083 15.3H14.7917Z" fill="#212121"/>
</svg>
