<svg width="28" height="28" viewBox="0 0 28 28" fill="none" xmlns="http://www.w3.org/2000/svg">
<path d="M8 2C5.92893 2 4.25 3.67894 4.25 5.75V22.2497C4.25 24.3207 5.92893 25.9997 8 25.9997H18.2176C17.8611 25.5829 17.6186 25.0643 17.5336 24.4997H8C6.75736 24.4997 5.75 23.4923 5.75 22.2497V5.75C5.75 4.50736 6.75736 3.5 8 3.5H20C21.2426 3.5 22.25 4.50736 22.25 5.75V12H23.75V5.75C23.75 3.67893 22.0711 2 20 2H8Z" fill="#212121"/>
<path d="M16 9C16 10.1046 15.1046 11 14 11C12.8954 11 12 10.1046 12 9C12 7.89543 12.8954 7 14 7C15.1046 7 16 7.89543 16 9Z" fill="#212121"/>
<path d="M19.6684 12.0889C19.7975 11.8555 19.8868 11.5958 19.9264 11.3182L20.4979 7.3182C20.6915 5.96272 19.6397 4.75 18.2705 4.75H9.72951C8.36028 4.75 7.30849 5.96272 7.50213 7.3182L8.07356 11.3182C8.23191 12.4267 9.18123 13.25 10.3009 13.25H17.6991C17.8163 13.25 17.9316 13.241 18.0444 13.2235C18.4308 12.6735 18.9986 12.2614 19.6684 12.0889ZM8.98705 7.10606C8.92251 6.65424 9.2731 6.25 9.72951 6.25H18.2705C18.7269 6.25 19.0775 6.65424 19.0129 7.10607L18.4415 11.1061C18.3887 11.4756 18.0723 11.75 17.6991 11.75H10.3009C9.92771 11.75 9.61126 11.4756 9.55848 11.1061L8.98705 7.10606Z" fill="#212121"/>
<path d="M17.5 16.5427C17.4218 16.515 17.3377 16.5 17.25 16.5L10.75 16.5C10.3358 16.5 10 16.8358 10 17.25C10 17.6642 10.3358 18 10.75 18H17.25C17.3377 18 17.4218 17.985 17.5 17.9573V16.5427Z" fill="#212121"/>
<path d="M17.5 20.0427C17.4218 20.015 17.3377 20 17.25 20H10.75C10.3358 20 10 20.3358 10 20.75C10 21.1642 10.3358 21.5 10.75 21.5H17.25C17.3377 21.5 17.4218 21.485 17.5 21.4573V20.0427Z" fill="#212121"/>
<path d="M18.5 14.95C18.5 13.873 19.3395 13 20.375 13H24.125C25.1605 13 26 13.873 26 14.95V24.05C26 25.127 25.1605 26 24.125 26H20.375C19.3395 26 18.5 25.127 18.5 24.05V14.95ZM21.625 15.6C21.2798 15.6 21 15.891 21 16.25C21 16.609 21.2798 16.9 21.625 16.9H22.875C23.2202 16.9 23.5 16.609 23.5 16.25C23.5 15.891 23.2202 15.6 22.875 15.6H21.625ZM21 20.15C21 20.509 21.2798 20.8 21.625 20.8H22.875C23.2202 20.8 23.5 20.509 23.5 20.15C23.5 19.791 23.2202 19.5 22.875 19.5H21.625C21.2798 19.5 21 19.791 21 20.15ZM21.625 22.1C21.2798 22.1 21 22.391 21 22.75C21 23.109 21.2798 23.4 21.625 23.4H22.875C23.2202 23.4 23.5 23.109 23.5 22.75C23.5 22.391 23.2202 22.1 22.875 22.1H21.625Z" fill="#212121"/>
</svg>
