<svg width="16" height="16" viewBox="0 0 16 16" fill="none" xmlns="http://www.w3.org/2000/svg">
<path d="M15 13.5C15 14.3284 14.3284 15 13.5 15L2.5 15C1.67157 15 1 14.3284 1 13.5C1 12.6716 1.67157 12 2.5 12L13.5 12C14.3284 12 15 12.6716 15 13.5ZM8 9C9.10457 9 10 8.10457 10 7C10 5.89543 9.10457 5 8 5C6.89543 5 6 5.89543 6 7C6 8.10457 6.89543 9 8 9ZM9 7C9 7.55228 8.55229 8 8 8C7.44772 8 7 7.55228 7 7C7 6.44772 7.44772 6 8 6C8.55229 6 9 6.44772 9 7ZM2 11L14 11L14 8C14 4.68629 11.3137 2 8 2C4.68629 2 2 4.68629 2 8L2 11ZM11 7C11 8.65685 9.65685 10 8 10C6.34315 10 5 8.65685 5 7C5 5.34314 6.34315 4 8 4C9.65686 4 11 5.34315 11 7Z" fill="#242424"/>
</svg>
