<svg width="28" height="28" viewBox="0 0 28 28" fill="none" xmlns="http://www.w3.org/2000/svg">
<path d="M26 24.25C26 25.2165 25.2165 26 24.25 26L3.75 26C2.7835 26 2 25.2165 2 24.25C2 23.2835 2.7835 22.5 3.75 22.5L24.25 22.5C25.2165 22.5 26 23.2835 26 24.25ZM19 12.5C19 15.2614 16.7614 17.5 14 17.5C11.2386 17.5 9 15.2614 9 12.5C9 9.73857 11.2386 7.5 14 7.5C16.7614 7.5 19 9.73857 19 12.5ZM14 9C12.067 9 10.5 10.567 10.5 12.5C10.5 14.433 12.067 16 14 16C15.933 16 17.5 14.433 17.5 12.5C17.5 10.567 15.933 9 14 9ZM25 21L3 21L3 14C3 7.92487 7.92487 3 14 3C20.0751 3 25 7.92487 25 14L25 21ZM20.5 12.5C20.5 8.91015 17.5899 6 14 6C10.4102 6 7.5 8.91015 7.5 12.5C7.5 16.0898 10.4102 19 14 19C17.5899 19 20.5 16.0899 20.5 12.5Z" fill="#242424"/>
</svg>
