<svg width="20" height="20" viewBox="0 0 20 20" fill="none" xmlns="http://www.w3.org/2000/svg">
<path d="M12 9C12 10.1046 11.1046 11 10 11C8.89542 11 8 10.1046 8 9C8 7.89542 8.89542 7 10 7C11.1046 7 12 7.89542 12 9ZM10 13C12.2091 13 14 11.2091 14 9C14 6.79086 12.2091 5 10 5C7.79086 5 6 6.79086 6 9C6 11.2091 7.79086 13 10 13ZM13 9C13 10.6569 11.6569 12 10 12C8.34314 12 7 10.6569 7 9C7 7.34314 8.34314 6 10 6C11.6569 6 13 7.34314 13 9ZM18 16.5C18 17.3284 17.3284 18 16.5 18L3.5 18C2.67157 18 2 17.3284 2 16.5L2 15.5C2 14.8469 2.41739 14.2913 3 14.0854L3 10C3 6.134 6.134 3 10 3C13.866 3 17 6.134 17 10L17 14.0854C17.5826 14.2913 18 14.8469 18 15.5L18 16.5ZM16 14L16 10C16 6.68628 13.3137 4 10 4C6.68628 4 4 6.68628 4 10L4 14L16 14ZM16.5 17C16.7761 17 17 16.7761 17 16.5L17 15.5C17 15.2239 16.7761 15 16.5 15L3.5 15C3.22386 15 3 15.2239 3 15.5L3 16.5C3 16.7761 3.22386 17 3.5 17L16.5 17Z" fill="#242424"/>
</svg>
