<svg width="24" height="24" viewBox="0 0 24 24" fill="none" xmlns="http://www.w3.org/2000/svg">
<path d="M18.157 4.56837C14.7566 1.16796 9.24344 1.16796 5.84303 4.56837C2.44262 7.96878 2.44262 13.4819 5.84303 16.8823C6.13887 17.1782 6.50614 17.5415 6.9449 17.9723L10.436 21.3682C11.3081 22.2117 12.6919 22.2118 13.5642 21.3684C14.96 20.0188 16.0952 18.9149 16.97 18.0562L18.157 16.8823C21.5574 13.4819 21.5574 7.96878 18.157 4.56837ZM6.90369 5.62903C9.71832 2.81441 14.2817 2.81441 17.0963 5.62903C19.911 8.44366 19.911 13.0071 17.0963 15.8217C16.7787 16.1393 16.3854 16.5283 15.9164 16.9886L12.5215 20.2901C12.2308 20.5712 11.7695 20.5711 11.4788 20.29C10.2391 19.091 9.20967 18.0906 8.39077 17.2891L6.90369 15.8217C4.08907 13.0071 4.08907 8.44366 6.90369 5.62903ZM12.75 8.5H15.5V9.2501C15.5 9.66432 15.8358 10.0001 16.25 10.0001C16.6642 10.0001 17 9.66432 17 9.2501V7.75C17 7.33579 16.6642 7 16.25 7H7.75C7.33579 7 7 7.33579 7 7.75V9.2501C7 9.66432 7.33579 10.0001 7.75 10.0001C8.16421 10.0001 8.5 9.66432 8.5 9.2501V8.5H11.25V15.5H10.75C10.3358 15.5 10 15.8358 10 16.25C10 16.6642 10.3358 17 10.75 17H13.25C13.6642 17 14 16.6642 14 16.25C14 15.8358 13.6642 15.5 13.25 15.5H12.75V8.5Z" fill="#242424"/>
</svg>
