<svg width="24" height="24" viewBox="0 0 24 24" fill="none" xmlns="http://www.w3.org/2000/svg">
<path d="M16.97 18.0562L18.157 16.8823C21.5574 13.4819 21.5574 7.96878 18.157 4.56837C14.7566 1.16796 9.24344 1.16796 5.84303 4.56837C2.44262 7.96878 2.44262 13.4819 5.84303 16.8823C6.13887 17.1782 6.50614 17.5415 6.94491 17.9723L10.436 21.3682C11.3081 22.2117 12.6919 22.2118 13.5642 21.3684C14.96 20.0188 16.0952 18.9149 16.97 18.0562ZM12.75 8.5V15.5H13.25C13.6642 15.5 14 15.8358 14 16.25C14 16.6642 13.6642 17 13.25 17H10.75C10.3358 17 10 16.6642 10 16.25C10 15.8358 10.3358 15.5 10.75 15.5H11.25V8.5H8.5V9.2501C8.5 9.66432 8.16421 10.0001 7.75 10.0001C7.33579 10.0001 7 9.66432 7 9.2501V7.75C7 7.33579 7.33579 7 7.75 7H16.25C16.6642 7 17 7.33579 17 7.75V9.2501C17 9.66432 16.6642 10.0001 16.25 10.0001C15.8358 10.0001 15.5 9.66432 15.5 9.2501V8.5H12.75Z" fill="#242424"/>
</svg>
