<svg width="25" height="25" viewBox="0 0 25 25" fill="none" xmlns="http://www.w3.org/2000/svg">
<path d="M7.03772 13.948C10.6276 13.948 13.5377 11.0378 13.5377 7.448C13.5377 6.15936 13.1627 4.9583 12.5159 3.948H18.2877C20.0826 3.948 21.5377 5.40307 21.5377 7.198V18.698C21.5377 19.325 21.3601 19.9106 21.0525 20.4072L14.1139 13.5955L13.9854 13.4786C13.1527 12.7773 11.9319 12.7753 11.097 13.4728L10.9615 13.5955L4.02292 20.4072C3.7153 19.9106 3.53772 19.325 3.53772 18.698V12.9262C4.54802 13.573 5.74908 13.948 7.03772 13.948ZM15.7877 11.698C16.8923 11.698 17.7877 10.8026 17.7877 9.698C17.7877 8.59343 16.8923 7.698 15.7877 7.698C14.6832 7.698 13.7877 8.59343 13.7877 9.698C13.7877 10.8026 14.6832 11.698 15.7877 11.698Z" fill="#242424"/>
<path d="M12.096 14.5949L12.0123 14.6659L5.08463 21.4666C5.57988 21.7719 6.16323 21.948 6.78772 21.948H18.2877C18.9122 21.948 19.4956 21.7719 19.9908 21.4666L13.0631 14.6659L12.9697 14.5879C12.7082 14.4032 12.3552 14.4056 12.096 14.5949Z" fill="#242424"/>
<path d="M7.03772 12.948C10.0753 12.948 12.5377 10.4856 12.5377 7.448C12.5377 4.41043 10.0753 1.948 7.03772 1.948C4.00015 1.948 1.53772 4.41043 1.53772 7.448C1.53772 10.4856 4.00015 12.948 7.03772 12.948ZM10.3913 5.80155L6.39127 9.80155C6.19601 9.99681 5.87943 9.99681 5.68417 9.80155L3.68417 7.80155C3.4889 7.60629 3.4889 7.28971 3.68417 7.09444C3.87943 6.89918 4.19601 6.89918 4.39127 7.09444L6.03772 8.74089L9.68417 5.09444C9.87943 4.89918 10.196 4.89918 10.3913 5.09444C10.5865 5.28971 10.5865 5.60629 10.3913 5.80155Z" fill="#242424"/>
</svg>
