<svg width="49" height="49" viewBox="0 0 49 49" fill="none" xmlns="http://www.w3.org/2000/svg">
<path d="M13.5377 26.948C20.7174 26.948 26.5377 21.1277 26.5377 13.948C26.5377 11.3707 25.7877 8.9686 24.4941 6.948H36.2877C39.7395 6.948 42.5377 9.74622 42.5377 13.198V36.698C42.5377 38.0538 42.106 39.3088 41.3725 40.333L27.0127 25.9731C25.6459 24.6063 23.4298 24.6063 22.0629 25.9731L7.70297 40.3331C6.96946 39.3089 6.53772 38.0539 6.53772 36.698V24.9044C8.55832 26.198 10.9604 26.948 13.5377 26.948ZM35.0377 18.448C35.0377 16.2389 33.2469 14.448 31.0377 14.448C28.8286 14.448 27.0377 16.2389 27.0377 18.448C27.0377 20.6571 28.8286 22.448 31.0377 22.448C33.2469 22.448 35.0377 20.6571 35.0377 18.448Z" fill="#242424"/>
<path d="M39.5401 42.0361L25.2449 27.7409C24.8544 27.3504 24.2212 27.3504 23.8307 27.7409L9.53541 42.0362C10.4829 42.6147 11.5964 42.948 12.7877 42.948H36.2877C37.4791 42.948 38.5927 42.6146 39.5401 42.0361Z" fill="#242424"/>
<path d="M13.5377 24.948C19.6129 24.948 24.5377 20.0231 24.5377 13.948C24.5377 7.87287 19.6129 2.948 13.5377 2.948C7.46259 2.948 2.53772 7.87287 2.53772 13.948C2.53772 20.0231 7.46259 24.948 13.5377 24.948ZM20.2448 10.6551L12.2448 18.6551C11.8543 19.0456 11.2211 19.0456 10.8306 18.6551L6.83061 14.6551C6.44009 14.2646 6.44009 13.6314 6.83061 13.2409C7.22114 12.8504 7.8543 12.8504 8.24483 13.2409L11.5377 16.5338L18.8306 9.24089C19.2211 8.85037 19.8543 8.85037 20.2448 9.24089C20.6354 9.63142 20.6354 10.2646 20.2448 10.6551Z" fill="#242424"/>
</svg>
