<svg width="29" height="29" viewBox="0 0 29 29" fill="none" xmlns="http://www.w3.org/2000/svg">
<path d="M7.03772 13.948C10.6276 13.948 13.5377 11.0378 13.5377 7.448C13.5377 6.15936 13.1627 4.9583 12.5159 3.948H21.7877C23.8588 3.948 25.5377 5.62693 25.5377 7.698V22.198C25.5377 22.9691 25.305 23.6859 24.9059 24.2819L15.9356 15.5154C15.1584 14.7559 13.917 14.7559 13.1399 15.5154L4.16955 24.2819C3.77047 23.6859 3.53772 22.9691 3.53772 22.198V12.9262C4.54802 13.573 5.74908 13.948 7.03772 13.948ZM21.2877 10.948C21.2877 9.70536 20.2804 8.698 19.0377 8.698C17.7951 8.698 16.7877 9.70536 16.7877 10.948C16.7877 12.1906 17.7951 13.198 19.0377 13.198C20.2804 13.198 21.2877 12.1906 21.2877 10.948Z" fill="#242424"/>
<path d="M5.23572 25.3373C5.82531 25.7234 6.53029 25.948 7.28772 25.948H21.7877C22.5451 25.948 23.2501 25.7234 23.8397 25.3373L14.8872 16.5882C14.6929 16.3983 14.3825 16.3983 14.1883 16.5882L5.23572 25.3373Z" fill="#242424"/>
<path d="M7.03772 12.948C10.0753 12.948 12.5377 10.4856 12.5377 7.448C12.5377 4.41043 10.0753 1.948 7.03772 1.948C4.00015 1.948 1.53772 4.41043 1.53772 7.448C1.53772 10.4856 4.00015 12.948 7.03772 12.948ZM10.3913 5.80155L6.39127 9.80155C6.19601 9.99681 5.87943 9.99681 5.68417 9.80155L3.68417 7.80155C3.4889 7.60629 3.4889 7.28971 3.68417 7.09444C3.87943 6.89918 4.19601 6.89918 4.39127 7.09444L6.03772 8.74089L9.68417 5.09444C9.87943 4.89918 10.196 4.89918 10.3913 5.09444C10.5865 5.28971 10.5865 5.60629 10.3913 5.80155Z" fill="#242424"/>
</svg>
