<svg width="21" height="21" viewBox="0 0 21 21" fill="none" xmlns="http://www.w3.org/2000/svg">
<path d="M6.03772 11.948C9.07529 11.948 11.5377 9.48556 11.5377 6.448C11.5377 5.54777 11.3214 4.69807 10.938 3.948H14.5377C16.1946 3.948 17.5377 5.29114 17.5377 6.948V14.948C17.5377 15.5975 17.3313 16.1989 16.9805 16.6899L11.5901 11.3825C11.0063 10.8076 10.0692 10.8076 9.48531 11.3825L4.09496 16.6899C3.74414 16.1988 3.53772 15.5975 3.53772 14.948V11.3483C4.28779 11.7317 5.1375 11.948 6.03772 11.948ZM13.0377 9.698C13.7281 9.698 14.2877 9.13835 14.2877 8.448C14.2877 7.75764 13.7281 7.198 13.0377 7.198C12.3474 7.198 11.7877 7.75764 11.7877 8.448C11.7877 9.13835 12.3474 9.698 13.0377 9.698Z" fill="#242424"/>
<path d="M6.53772 17.948C5.89144 17.948 5.29289 17.7436 4.80316 17.396L10.1869 12.0951C10.3815 11.9034 10.6939 11.9034 10.8885 12.0951L16.2723 17.396C15.7826 17.7436 15.184 17.948 14.5377 17.948H6.53772Z" fill="#242424"/>
<path d="M6.03772 10.948C8.523 10.948 10.5377 8.93328 10.5377 6.448C10.5377 3.96272 8.523 1.948 6.03772 1.948C3.55244 1.948 1.53772 3.96272 1.53772 6.448C1.53772 8.93328 3.55244 10.948 6.03772 10.948ZM8.39127 5.30155L5.39127 8.30155C5.19601 8.49681 4.87943 8.49681 4.68417 8.30155L3.68417 7.30155C3.4889 7.10629 3.4889 6.78971 3.68417 6.59444C3.87943 6.39918 4.19601 6.39918 4.39127 6.59444L5.03772 7.24089L7.68417 4.59444C7.87943 4.39918 8.19601 4.39918 8.39127 4.59444C8.58654 4.78971 8.58654 5.10629 8.39127 5.30155Z" fill="#242424"/>
</svg>
