<svg width="49" height="49" viewBox="0 0 49 49" fill="none" xmlns="http://www.w3.org/2000/svg">
<path d="M36.2877 9.448H25.7378C25.4122 8.56568 24.9937 7.72839 24.4941 6.948H36.2877C39.7395 6.948 42.5377 9.74622 42.5377 13.198V36.698C42.5377 40.1498 39.7395 42.948 36.2877 42.948H12.7877C9.33594 42.948 6.53772 40.1498 6.53772 36.698V24.9044C7.31811 25.404 8.1554 25.8225 9.03772 26.1481V36.698C9.03772 37.361 9.2098 37.9839 9.51173 38.5243L22.0629 25.9731C23.4298 24.6063 25.6459 24.6063 27.0127 25.9731L39.5638 38.5242C39.8657 37.9838 40.0377 37.361 40.0377 36.698V13.198C40.0377 11.1269 38.3588 9.448 36.2877 9.448ZM37.6836 40.1796L25.2449 27.7409C24.8544 27.3504 24.2212 27.3504 23.8307 27.7409L11.392 40.1796C11.8234 40.3527 12.2944 40.448 12.7877 40.448H36.2877C36.7811 40.448 37.2522 40.3527 37.6836 40.1796Z" fill="#242424"/>
<path d="M26.5377 18.448C26.5377 15.9627 28.5524 13.948 31.0377 13.948C33.523 13.948 35.5377 15.9627 35.5377 18.448C35.5377 20.9333 33.523 22.948 31.0377 22.948C28.5524 22.948 26.5377 20.9333 26.5377 18.448ZM31.0377 16.448C29.9332 16.448 29.0377 17.3434 29.0377 18.448C29.0377 19.5526 29.9332 20.448 31.0377 20.448C32.1423 20.448 33.0377 19.5526 33.0377 18.448C33.0377 17.3434 32.1423 16.448 31.0377 16.448Z" fill="#242424"/>
<path d="M13.5377 24.948C19.6129 24.948 24.5377 20.0231 24.5377 13.948C24.5377 7.87287 19.6129 2.948 13.5377 2.948C7.46259 2.948 2.53772 7.87287 2.53772 13.948C2.53772 20.0231 7.46259 24.948 13.5377 24.948ZM20.2448 10.6551L12.2448 18.6551C11.8543 19.0456 11.2211 19.0456 10.8306 18.6551L6.83061 14.6551C6.44009 14.2646 6.44009 13.6314 6.83061 13.2409C7.22114 12.8504 7.8543 12.8504 8.24483 13.2409L11.5377 16.5338L18.8306 9.24089C19.2211 8.85037 19.8543 8.85037 20.2448 9.24089C20.6354 9.63142 20.6354 10.2646 20.2448 10.6551Z" fill="#242424"/>
</svg>
