<svg width="24" height="24" viewBox="0 0 24 24" fill="none" xmlns="http://www.w3.org/2000/svg">
<path d="M2.25 9C2.25 8.0335 3.0335 7.25 4 7.25H20C20.9665 7.25 21.75 8.0335 21.75 9V15C21.75 15.9665 20.9665 16.75 20 16.75H18.7454C18.2493 16.75 17.7765 16.5394 17.4446 16.1707L17.1405 15.8328C17.0931 15.7801 17.0255 15.75 16.9546 15.75H7.04536C6.97449 15.75 6.90695 15.7801 6.85954 15.8328L6.5554 16.1707C6.22353 16.5394 5.75074 16.75 5.25464 16.75H4C3.0335 16.75 2.25 15.9665 2.25 15V12.75H5.70067C5.96003 13.1984 6.44479 13.5 7 13.5C7.55521 13.5 8.03997 13.1984 8.29933 12.75H13C13.4142 12.75 13.75 12.4142 13.75 12C13.75 11.5858 13.4142 11.25 13 11.25H8.29933C8.03997 10.8016 7.55521 10.5 7 10.5C6.44479 10.5 5.96003 10.8016 5.70067 11.25H2.25V9Z" fill="#212121"/>
</svg>
