<svg width="16" height="16" viewBox="0 0 16 16" fill="none" xmlns="http://www.w3.org/2000/svg">
<path fill-rule="evenodd" clip-rule="evenodd" d="M1 6C1 5.17157 1.67157 4.5 2.5 4.5H13.5C14.3284 4.5 15 5.17157 15 6V9.77778C15 10.6062 14.3284 11.2778 13.5 11.2778H12.9954C12.5701 11.2778 12.1649 11.0973 11.8804 10.7812L11.8263 10.7211C11.7315 10.6157 11.5964 10.5556 11.4546 10.5556H4.54536C4.40362 10.5556 4.26854 10.6157 4.17372 10.7211L4.11958 10.7812C3.83511 11.0973 3.42987 11.2778 3.00464 11.2778H2.5C1.67157 11.2778 1 10.6062 1 9.77778V6ZM3.86845 8.39062H2V9.77778C2 10.0539 2.22386 10.2778 2.5 10.2778H3.00464C3.14638 10.2778 3.28146 10.2176 3.37628 10.1123L3.43042 10.0521C3.71488 9.73604 4.12013 9.55556 4.54536 9.55556H11.4546C11.8799 9.55556 12.2851 9.73604 12.5696 10.0521L12.6237 10.1123C12.7185 10.2176 12.8536 10.2778 12.9954 10.2778H13.5C13.7761 10.2778 14 10.0539 14 9.77778V6C14 5.72386 13.7761 5.5 13.5 5.5H2.5C2.22386 5.5 2 5.72386 2 6V7.39062H3.86668C3.99817 7.25312 4.18345 7.16748 4.38873 7.16748C4.594 7.16748 4.77928 7.25312 4.91077 7.39062H9.5C9.77614 7.39062 10 7.61448 10 7.89062C10 8.16677 9.77614 8.39062 9.5 8.39062H4.909C4.77762 8.52705 4.59308 8.61193 4.38873 8.61193C4.18437 8.61193 3.99984 8.52705 3.86845 8.39062Z" fill="#212121"/>
</svg>
