<svg width="48" height="48" viewBox="0 0 48 48" fill="none" xmlns="http://www.w3.org/2000/svg">
<path d="M4.25 16C4.25 14.7574 5.25736 13.75 6.5 13.75H41.5C42.7426 13.75 43.75 14.7574 43.75 16V30.4444C43.75 31.6871 42.7426 32.6944 41.5 32.6944H37.3954C36.7575 32.6944 36.1496 32.4237 35.723 31.9496L34.5433 30.6389H13.4567L12.2771 31.9496C11.8504 32.4237 11.2425 32.6944 10.6046 32.6944H6.5C5.25736 32.6944 4.25 31.6871 4.25 30.4444V24.4707H10.6607C11.1534 25.6771 12.3385 26.5271 13.7221 26.5271C15.1057 26.5271 16.2907 25.6771 16.7835 24.4707H27C27.6904 24.4707 28.25 23.9111 28.25 23.2207C28.25 22.5303 27.6904 21.9707 27 21.9707H16.7827C16.2896 20.7653 15.105 19.916 13.7221 19.916C12.3391 19.916 11.1545 20.7653 10.6614 21.9707H4.25V16Z" fill="#212121"/>
</svg>
