<svg width="20" height="20" viewBox="0 0 20 20" fill="none" xmlns="http://www.w3.org/2000/svg">
<path fill-rule="evenodd" clip-rule="evenodd" d="M2 8C2 7.17157 2.67157 6.5 3.5 6.5H16.5C17.3284 6.5 18 7.17157 18 8V12.6667C18 13.4951 17.3284 14.1667 16.5 14.1667H15.6954C15.2701 14.1667 14.8649 13.9862 14.5804 13.6701L14.4263 13.4989C14.3315 13.3935 14.1964 13.3333 14.0546 13.3333H5.94536C5.80362 13.3333 5.66854 13.3935 5.57372 13.4989L5.41958 13.6701C5.13512 13.9862 4.72987 14.1667 4.30464 14.1667H3.5C2.67157 14.1667 2 13.4951 2 12.6667V8ZM5.16746 10.834H3V12.6667C3 12.9428 3.22386 13.1667 3.5 13.1667H4.30464C4.44638 13.1667 4.58146 13.1065 4.67628 13.0011L4.83042 12.8299C5.11488 12.5138 5.52013 12.3333 5.94536 12.3333H14.0546C14.4799 12.3333 14.8851 12.5138 15.1696 12.8299L15.3237 13.0011C15.4185 13.1065 15.5536 13.1667 15.6954 13.1667H16.5C16.7761 13.1667 17 12.9428 17 12.6667V8C17 7.72386 16.7761 7.5 16.5 7.5H3.5C3.22386 7.5 3 7.72386 3 8V9.83398H5.16575C5.31773 9.63093 5.56019 9.49951 5.83333 9.49951C6.10648 9.49951 6.34893 9.63093 6.50092 9.83398H12C12.2761 9.83398 12.5 10.0578 12.5 10.334C12.5 10.6101 12.2761 10.834 12 10.834H6.4992C6.34712 11.0357 6.10546 11.1662 5.83333 11.1662C5.56121 11.1662 5.31955 11.0357 5.16746 10.834Z" fill="#212121"/>
</svg>
