<svg width="24" height="24" viewBox="0 0 24 24" fill="none" xmlns="http://www.w3.org/2000/svg">
<path fill-rule="evenodd" clip-rule="evenodd" d="M2.25 9C2.25 8.0335 3.0335 7.25 4 7.25H20C20.9665 7.25 21.75 8.0335 21.75 9V15C21.75 15.9665 20.9665 16.75 20 16.75H18.7454C18.2493 16.75 17.7765 16.5394 17.4446 16.1707L17.1405 15.8328C17.0931 15.7801 17.0255 15.75 16.9546 15.75H7.04536C6.97449 15.75 6.90695 15.7801 6.85954 15.8328L6.5554 16.1707C6.22353 16.5394 5.75074 16.75 5.25464 16.75H4C3.0335 16.75 2.25 15.9665 2.25 15V9ZM6.20067 12.75H3.75V15C3.75 15.1381 3.86193 15.25 4 15.25H5.25464C5.32551 15.25 5.39305 15.2199 5.44046 15.1672L5.7446 14.8293C6.07647 14.4606 6.54926 14.25 7.04536 14.25H16.9546C17.4507 14.25 17.9235 14.4606 18.2554 14.8293L18.5595 15.1672C18.6069 15.2199 18.6745 15.25 18.7454 15.25H20C20.1381 15.25 20.25 15.1381 20.25 15V9C20.25 8.86193 20.1381 8.75 20 8.75H4C3.86193 8.75 3.75 8.86193 3.75 9V11.25H6.20067C6.46003 10.8016 6.94479 10.5 7.5 10.5C8.05521 10.5 8.53997 10.8016 8.79933 11.25H14C14.4142 11.25 14.75 11.5858 14.75 12C14.75 12.4142 14.4142 12.75 14 12.75H8.79933C8.53997 13.1984 8.05521 13.5 7.5 13.5C6.94479 13.5 6.46003 13.1984 6.20067 12.75Z" fill="#212121"/>
</svg>
