<svg width="32" height="32" viewBox="0 0 32 32" fill="none" xmlns="http://www.w3.org/2000/svg">
<path d="M2 11C2 9.89543 2.89543 9 4 9H28C29.1046 9 30 9.89543 30 11V20.5556C30 21.6601 29.1046 22.5556 28 22.5556H25.5454C24.9784 22.5556 24.4381 22.3149 24.0588 21.8935L23.3546 21.1111H8.64536L7.94123 21.8935C7.56194 22.3149 7.02161 22.5556 6.45464 22.5556H4C2.89543 22.5556 2 21.6601 2 20.5556V16.7783H6.82427C7.18811 17.487 7.92628 17.9719 8.7777 17.9719C9.62912 17.9719 10.3673 17.487 10.7311 16.7783H19.5455C20.0977 16.7783 20.5455 16.3306 20.5455 15.7783C20.5455 15.226 20.0977 14.7783 19.5455 14.7783H10.732C10.3685 14.0687 9.62981 13.583 8.7777 13.583C7.92558 13.583 7.1869 14.0687 6.82338 14.7783H2V11Z" fill="#212121"/>
</svg>
