<svg width="48" height="48" viewBox="0 0 48 48" fill="none" xmlns="http://www.w3.org/2000/svg">
<path fill-rule="evenodd" clip-rule="evenodd" d="M4.25 16C4.25 14.7574 5.25736 13.75 6.5 13.75H41.5C42.7426 13.75 43.75 14.7574 43.75 16V30.4444C43.75 31.6871 42.7426 32.6944 41.5 32.6944H37.3954C36.7575 32.6944 36.1496 32.4237 35.723 31.9496L34.5433 30.6389H13.4567L12.2771 31.9496C11.8504 32.4237 11.2425 32.6944 10.6046 32.6944H6.5C5.25736 32.6944 4.25 31.6871 4.25 30.4444V16ZM10.6607 24.4707H6.75V30.1944H10.4933L11.673 28.8837C12.0996 28.4096 12.7075 28.1389 13.3454 28.1389H34.6546C35.2925 28.1389 35.9004 28.4096 36.327 28.8837L37.5067 30.1944H41.25V16.25H6.75V21.9707H10.6614C11.1545 20.7653 12.3391 19.916 13.7221 19.916C15.105 19.916 16.2896 20.7653 16.7827 21.9707H29C29.6904 21.9707 30.25 22.5303 30.25 23.2207C30.25 23.9111 29.6904 24.4707 29 24.4707H16.7835C16.2907 25.6771 15.1057 26.5271 13.7221 26.5271C12.3385 26.5271 11.1534 25.6771 10.6607 24.4707Z" fill="#212121"/>
</svg>
