<svg width="20" height="20" viewBox="0 0 20 20" fill="none" xmlns="http://www.w3.org/2000/svg">
<path d="M2 8C2 7.17157 2.67157 6.5 3.5 6.5H16.5C17.3284 6.5 18 7.17157 18 8V12.6667C18 13.4951 17.3284 14.1667 16.5 14.1667H15.6954C15.2701 14.1667 14.8649 13.9862 14.5804 13.6701L14.4263 13.4989C14.3315 13.3935 14.1964 13.3333 14.0546 13.3333H5.94536C5.80362 13.3333 5.66854 13.3935 5.57371 13.4989L5.41958 13.6701C5.13511 13.9862 4.72987 14.1667 4.30464 14.1667H3.5C2.67157 14.1667 2 13.4951 2 12.6667V10.834H4.87264C5.0536 11.1797 5.41579 11.4157 5.83309 11.4157C6.25039 11.4157 6.61258 11.1797 6.79354 10.834H11C11.2761 10.834 11.5 10.6101 11.5 10.334C11.5 10.0578 11.2761 9.83398 11 9.83398H6.79523C6.61485 9.48645 6.2517 9.24902 5.83309 9.24902C5.41448 9.24902 5.05133 9.48645 4.87094 9.83398H2V8Z" fill="#212121"/>
</svg>
