<svg width="28" height="28" viewBox="0 0 28 28" fill="none" xmlns="http://www.w3.org/2000/svg">
<path fill-rule="evenodd" clip-rule="evenodd" d="M2.25 10C2.25 9.0335 3.0335 8.25 4 8.25H24C24.9665 8.25 25.75 9.0335 25.75 10V17.7778C25.75 18.7443 24.9665 19.5278 24 19.5278H22.1454C21.6493 19.5278 21.1765 19.3172 20.8446 18.9485L20.3405 18.3883C20.2931 18.3356 20.2255 18.3056 20.1546 18.3056H7.84536C7.77449 18.3056 7.70695 18.3356 7.65954 18.3883L7.1554 18.9485C6.82353 19.3172 6.35074 19.5278 5.85464 19.5278H4C3.0335 19.5278 2.25 18.7443 2.25 17.7778V10ZM6.33792 14.6387H3.75V17.7778C3.75 17.9158 3.86193 18.0278 4 18.0278H5.85464C5.92551 18.0278 5.99305 17.9977 6.04046 17.945L6.5446 17.3849C6.87647 17.0161 7.34926 16.8056 7.84536 16.8056H20.1546C20.6507 16.8056 21.1235 17.0161 21.4554 17.3849L21.9595 17.945C22.007 17.9977 22.0745 18.0278 22.1454 18.0278H24C24.1381 18.0278 24.25 17.9158 24.25 17.7778V10C24.25 9.86193 24.1381 9.75 24 9.75H4C3.86193 9.75 3.75 9.86193 3.75 10V13.1387H6.33798C6.61679 12.5633 7.20643 12.1665 7.88873 12.1665C8.57103 12.1665 9.16066 12.5633 9.43948 13.1387H17C17.4142 13.1387 17.75 13.4745 17.75 13.8887C17.75 14.3029 17.4142 14.6387 17 14.6387H9.43953C9.16073 15.2141 8.57107 15.6109 7.88873 15.6109C7.20638 15.6109 6.61672 15.2141 6.33792 14.6387Z" fill="#212121"/>
</svg>
