<svg width="28" height="28" viewBox="0 0 28 28" fill="none" xmlns="http://www.w3.org/2000/svg">
<path d="M2.25 10C2.25 9.0335 3.0335 8.25 4 8.25H24C24.9665 8.25 25.75 9.0335 25.75 10V17.7778C25.75 18.7443 24.9665 19.5278 24 19.5278H22.1454C21.6493 19.5278 21.1765 19.3172 20.8446 18.9485L20.3405 18.3883C20.2931 18.3356 20.2255 18.3056 20.1546 18.3056H7.84536C7.77449 18.3056 7.70695 18.3356 7.65954 18.3883L7.1554 18.9485C6.82353 19.3172 6.35074 19.5278 5.85464 19.5278H4C3.0335 19.5278 2.25 18.7443 2.25 17.7778V14.6387H6.33793C6.61663 15.2144 7.20643 15.6114 7.88897 15.6114C8.57151 15.6114 9.16131 15.2144 9.44001 14.6387H17C17.4142 14.6387 17.75 14.3029 17.75 13.8887C17.75 13.4745 17.4142 13.1387 17 13.1387H9.43948C9.16057 12.5635 8.57108 12.167 7.88897 12.167C7.20686 12.167 6.61737 12.5635 6.33846 13.1387H2.25V10Z" fill="#212121"/>
</svg>
