<svg width="16" height="16" viewBox="0 0 16 16" fill="none" xmlns="http://www.w3.org/2000/svg">
<path d="M1 6C1 5.17157 1.67157 4.5 2.5 4.5H13.5C14.3284 4.5 15 5.17157 15 6V9.77778C15 10.6062 14.3284 11.2778 13.5 11.2778H12.9954C12.5701 11.2778 12.1649 11.0973 11.8804 10.7812L11.8263 10.7211C11.7315 10.6157 11.5964 10.5556 11.4546 10.5556H4.54536C4.40362 10.5556 4.26854 10.6157 4.17372 10.7211L4.11958 10.7812C3.83511 11.0973 3.42987 11.2778 3.00464 11.2778H2.5C1.67157 11.2778 1 10.6062 1 9.77778V8.39062H3.55478C3.72482 8.67331 4.03457 8.86241 4.38848 8.86241C4.7424 8.86241 5.05214 8.67331 5.22219 8.39062H9.50012C9.77626 8.39062 10.0001 8.16677 10.0001 7.89062C10.0001 7.61448 9.77626 7.39062 9.50012 7.39062H5.22271C5.05278 7.10746 4.74276 6.91797 4.38848 6.91797C4.0342 6.91797 3.72419 7.10746 3.55425 7.39062H1V6Z" fill="#212121"/>
</svg>
