<svg width="32" height="32" viewBox="0 0 32 32" fill="none" xmlns="http://www.w3.org/2000/svg">
<path fill-rule="evenodd" clip-rule="evenodd" d="M2 11C2 9.89543 2.89543 9 4 9H28C29.1046 9 30 9.89543 30 11V20.5556C30 21.6601 29.1046 22.5556 28 22.5556H25.5454C24.9784 22.5556 24.4381 22.3149 24.0588 21.8935L23.3546 21.1111H8.64536L7.94123 21.8935C7.56194 22.3149 7.02161 22.5556 6.45464 22.5556H4C2.89543 22.5556 2 21.6601 2 20.5556V15.7783V11ZM6.82426 16.7783H4V20.5556H6.45464L7.15877 19.7732C7.53806 19.3518 8.07839 19.1111 8.64536 19.1111H23.3546C23.9216 19.1111 24.4619 19.3518 24.8412 19.7732L25.5454 20.5556L28 20.5556L28 11H4V14.7783H6.82387C7.18749 14.069 7.92602 13.5835 8.77794 13.5835C9.62986 13.5835 10.3684 14.069 10.732 14.7783H19.5455C20.0977 14.7783 20.5455 15.226 20.5455 15.7783C20.5455 16.3306 20.0977 16.7783 19.5455 16.7783H10.7316C10.3679 17.4873 9.62956 17.9724 8.77794 17.9724C7.92632 17.9724 7.18801 17.4873 6.82426 16.7783Z" fill="#212121"/>
</svg>
