<svg width="32" height="32" viewBox="0 0 32 32" fill="none" xmlns="http://www.w3.org/2000/svg">
<path d="M4.5 6.5C4.5 4.01472 6.51472 2 9 2H23C25.4853 2 27.5 4.01472 27.5 6.5V13.5H23.25C22.8737 13.5 22.5104 13.5554 22.1677 13.6586L22.7892 8.68605C22.9012 7.79077 22.2031 7 21.3008 7H10.6992C9.79693 7 9.09885 7.79077 9.21076 8.68605L9.83576 13.6861C9.92959 14.4367 10.5677 15 11.3242 15H20.2497C19.779 15.6267 19.5 16.4058 19.5 17.25V19H12C11.4477 19 11 19.4477 11 20C11 20.5523 11.4477 21 12 21H19.5V23H12C11.4477 23 11 23.4477 11 24C11 24.5523 11.4477 25 12 25H19.5V27.75C19.5 28.5942 19.779 29.3733 20.2497 30H9C6.51472 30 4.5 27.9853 4.5 25.5V6.5Z" fill="#212121"/>
<path d="M16 14C17.6569 14 19 12.6569 19 11C19 9.34315 17.6569 8 16 8C14.3431 8 13 9.34315 13 11C13 12.6569 14.3431 14 16 14ZM16 12C15.4477 12 15 11.5523 15 11C15 10.4477 15.4477 10 16 10C16.5523 10 17 10.4477 17 11C17 11.5523 16.5523 12 16 12Z" fill="#212121"/>
<path d="M21 17.25C21 16.0074 22.0074 15 23.25 15H27.75C28.9926 15 30 16.0074 30 17.25V27.75C30 28.9926 28.9926 30 27.75 30H23.25C22.0074 30 21 28.9926 21 27.75V17.25ZM24.75 18C24.3358 18 24 18.3358 24 18.75C24 19.1642 24.3358 19.5 24.75 19.5H26.25C26.6642 19.5 27 19.1642 27 18.75C27 18.3358 26.6642 18 26.25 18H24.75ZM24 23.25C24 23.6642 24.3358 24 24.75 24H26.25C26.6642 24 27 23.6642 27 23.25C27 22.8358 26.6642 22.5 26.25 22.5H24.75C24.3358 22.5 24 22.8358 24 23.25ZM24.75 25.5C24.3358 25.5 24 25.8358 24 26.25C24 26.6642 24.3358 27 24.75 27H26.25C26.6642 27 27 26.6642 27 26.25C27 25.8358 26.6642 25.5 26.25 25.5H24.75Z" fill="#212121"/>
</svg>
