<svg width="28" height="28" viewBox="0 0 28 28" fill="none" xmlns="http://www.w3.org/2000/svg">
<path d="M14 11.5C12.6193 11.5 11.5 10.3807 11.5 9C11.5 7.61929 12.6193 6.5 14 6.5C15.3807 6.5 16.5 7.61929 16.5 9C16.5 10.3807 15.3807 11.5 14 11.5ZM14 10C14.5523 10 15 9.55228 15 9C15 8.44772 14.5523 8 14 8C13.4477 8 13 8.44772 13 9C13 9.55228 13.4477 10 14 10Z" fill="#212121"/>
<path d="M4.25 5.75V22.2497C4.25 24.3207 5.92893 25.9997 8 25.9997H18.2176C17.7682 25.4744 17.5 24.7873 17.5 24.05V21.4573C17.4218 21.485 17.3377 21.5 17.25 21.5H10.75C10.3358 21.5 10 21.1642 10 20.75C10 20.3358 10.3358 20 10.75 20H17.25C17.3377 20 17.4218 20.015 17.5 20.0427V17.9573C17.4218 17.985 17.3377 18 17.25 18H10.75C10.3358 18 10 17.6642 10 17.25C10 16.8358 10.3358 16.5 10.75 16.5L17.25 16.5C17.3377 16.5 17.4218 16.515 17.5 16.5427V14.95C17.5 13.3581 18.7506 12 20.375 12H23.75V5.75C23.75 3.67893 22.0711 2 20 2H8C5.92893 2 4.25 3.67894 4.25 5.75ZM9.72951 5.5H18.2705C19.1833 5.5 19.8845 6.30848 19.7554 7.21213L19.184 11.2121C19.0784 11.9511 18.4455 12.5 17.6991 12.5H10.3009C9.55447 12.5 8.92159 11.9511 8.81602 11.2121L8.24459 7.21213C8.1155 6.30848 8.81669 5.5 9.72951 5.5Z" fill="#212121"/>
<path d="M18.5 14.95C18.5 13.873 19.3395 13 20.375 13H24.125C25.1605 13 26 13.873 26 14.95V24.05C26 25.127 25.1605 26 24.125 26H20.375C19.3395 26 18.5 25.127 18.5 24.05V14.95ZM21.625 15.6C21.2798 15.6 21 15.891 21 16.25C21 16.609 21.2798 16.9 21.625 16.9H22.875C23.2202 16.9 23.5 16.609 23.5 16.25C23.5 15.891 23.2202 15.6 22.875 15.6H21.625ZM21 20.15C21 20.509 21.2798 20.8 21.625 20.8H22.875C23.2202 20.8 23.5 20.509 23.5 20.15C23.5 19.791 23.2202 19.5 22.875 19.5H21.625C21.2798 19.5 21 19.791 21 20.15ZM21.625 22.1C21.2798 22.1 21 22.391 21 22.75C21 23.109 21.2798 23.4 21.625 23.4H22.875C23.2202 23.4 23.5 23.109 23.5 22.75C23.5 22.391 23.2202 22.1 22.875 22.1H21.625Z" fill="#212121"/>
</svg>
