<svg width="24" height="24" viewBox="0 0 24 24" fill="none" xmlns="http://www.w3.org/2000/svg">
<path d="M12 10.25C13.1046 10.25 14 9.35457 14 8.25C14 7.14543 13.1046 6.25 12 6.25C10.8954 6.25 10 7.14543 10 8.25C10 9.35457 10.8954 10.25 12 10.25ZM12 8.75C11.7239 8.75 11.5 8.52614 11.5 8.25C11.5 7.97386 11.7239 7.75 12 7.75C12.2761 7.75 12.5 7.97386 12.5 8.25C12.5 8.52614 12.2761 8.75 12 8.75Z" fill="#212121"/>
<path d="M4 5.25V18.75C4 20.5449 5.45507 22 7.25 22H15.0711C14.7128 21.5453 14.5 20.9704 14.5 20.35V18.4573C14.4218 18.485 14.3377 18.5 14.25 18.5H9.75C9.33579 18.5 9 18.1642 9 17.75C9 17.3358 9.33579 17 9.75 17L14.25 17C14.3377 17 14.4218 17.015 14.5 17.0427V14.9573C14.4218 14.985 14.3377 15 14.25 15L9.75 15C9.33579 15 9 14.6642 9 14.25C9 13.8358 9.33579 13.5 9.75 13.5L14.25 13.5C14.3377 13.5 14.4218 13.515 14.5 13.5427V12.65C14.5 11.2009 15.6609 10 17.125 10H20V5.25C20 3.45507 18.5449 2 16.75 2H7.25C5.45507 2 4 3.45507 4 5.25ZM8.93435 5.75H15.0657C15.6849 5.75 16.1553 6.3071 16.0515 6.9176L15.5415 9.91759C15.4598 10.3983 15.0433 10.75 14.5557 10.75H9.44435C8.95673 10.75 8.54021 10.3983 8.45849 9.9176L7.94849 6.9176C7.84471 6.3071 8.31509 5.75 8.93435 5.75Z" fill="#212121"/>
<path d="M15.5 12.65C15.5 11.7387 16.2275 11 17.125 11H20.375C21.2725 11 22 11.7387 22 12.65V20.35C22 21.2613 21.2725 22 20.375 22H17.125C16.2275 22 15.5 21.2613 15.5 20.35V12.65ZM18.2083 13.2C17.9092 13.2 17.6667 13.4462 17.6667 13.75C17.6667 14.0538 17.9092 14.3 18.2083 14.3H19.2917C19.5908 14.3 19.8333 14.0538 19.8333 13.75C19.8333 13.4462 19.5908 13.2 19.2917 13.2H18.2083ZM17.6667 17.05C17.6667 17.3538 17.9092 17.6 18.2083 17.6H19.2917C19.5908 17.6 19.8333 17.3538 19.8333 17.05C19.8333 16.7462 19.5908 16.5 19.2917 16.5H18.2083C17.9092 16.5 17.6667 16.7462 17.6667 17.05ZM18.2083 18.7C17.9092 18.7 17.6667 18.9462 17.6667 19.25C17.6667 19.5538 17.9092 19.8 18.2083 19.8H19.2917C19.5908 19.8 19.8333 19.5538 19.8333 19.25C19.8333 18.9462 19.5908 18.7 19.2917 18.7H18.2083Z" fill="#212121"/>
</svg>
