<svg width="24" height="24" viewBox="0 0 24 24" fill="none" xmlns="http://www.w3.org/2000/svg">
<path d="M12 2C6.47715 2 2 6.47715 2 12C2 17.5228 6.47715 22 12 22C17.5228 22 22 17.5228 22 12C22 6.47715 17.5228 2 12 2ZM5.9792 6C7.51821 4.45569 9.6475 3.5 12 3.5C16.6944 3.5 20.5 7.30558 20.5 12C20.5 13.4461 20.1389 14.8079 19.5019 16H12.75C11.7835 16 11 16.7835 11 17.75V20.4418C7.27304 20.005 4.28309 17.1572 3.63193 13.5H14.75C15.7165 13.5 16.5 12.7165 16.5 11.75V7.75C16.5 6.7835 15.7165 6 14.75 6H5.9792ZM4.78755 7.5H14.75C14.8881 7.5 15 7.61193 15 7.75V11.75C15 11.8881 14.8881 12 14.75 12H3.5C3.5 10.3474 3.9716 8.80503 4.78755 7.5ZM12.5 20.4855V17.75C12.5 17.6119 12.6119 17.5 12.75 17.5H18.481C17.0226 19.2168 14.8943 20.3467 12.5 20.4855Z" fill="#212121"/>
</svg>
