<svg width="20" height="20" viewBox="0 0 20 20" fill="none" xmlns="http://www.w3.org/2000/svg">
<path d="M4.5 4C4.5 2.61929 5.61929 1.5 7 1.5L13 1.5C14.3807 1.5 15.5 2.61929 15.5 4V16C15.5 17.3807 14.3807 18.5 13 18.5H7C5.61929 18.5 4.5 17.3807 4.5 16V4ZM7 2.5C6.17157 2.5 5.5 3.17157 5.5 4V16C5.5 16.8284 6.17157 17.5 7 17.5H13C13.8284 17.5 14.5 16.8284 14.5 16V4C14.5 3.17157 13.8284 2.5 13 2.5L7 2.5Z" fill="#212121"/>
<path d="M10 7C9.44772 7 9 6.55228 9 6C9 5.44772 9.44772 5 10 5C10.5523 5 11 5.44772 11 6C11 6.55228 10.5523 7 10 7ZM10 8C11.1046 8 12 7.10457 12 6C12 4.89543 11.1046 4 10 4C8.89543 4 8 4.89543 8 6C8 7.10457 8.89543 8 10 8Z" fill="#212121"/>
<path d="M7 10.5C7 10.2239 7.22386 10 7.5 10H12.5C12.7761 10 13 10.2239 13 10.5C13 10.7761 12.7761 11 12.5 11H7.5C7.22386 11 7 10.7761 7 10.5Z" fill="#212121"/>
<path d="M7 12.5C7 12.2239 7.22386 12 7.5 12H12.5C12.7761 12 13 12.2239 13 12.5C13 12.7761 12.7761 13 12.5 13H7.5C7.22386 13 7 12.7761 7 12.5Z" fill="#212121"/>
<path d="M11 15C11 15.5523 10.5523 16 10 16C9.44772 16 9 15.5523 9 15C9 14.4477 9.44772 14 10 14C10.5523 14 11 14.4477 11 15Z" fill="#212121"/>
</svg>
