<svg width="28" height="28" viewBox="0 0 28 28" fill="none" xmlns="http://www.w3.org/2000/svg">
<path d="M7 4C7 2.89543 7.89543 2 9 2H19C20.1046 2 21 2.89543 21 4V24C21 25.1046 20.1046 26 19 26H9C7.89543 26 7 25.1046 7 24V4ZM14 10.0103C15.6569 10.0103 17 8.66711 17 7.01025C17 5.3534 15.6569 4.01025 14 4.01025C12.3431 4.01025 11 5.3534 11 7.01025C11 8.66711 12.3431 10.0103 14 10.0103ZM15.5 7.01025C15.5 7.83868 14.8284 8.51025 14 8.51025C13.1716 8.51025 12.5 7.83868 12.5 7.01025C12.5 6.18183 13.1716 5.51025 14 5.51025C14.8284 5.51025 15.5 6.18183 15.5 7.01025ZM9.25 12.75C9.25 13.1642 9.58579 13.5 10 13.5H18C18.4142 13.5 18.75 13.1642 18.75 12.75C18.75 12.3358 18.4142 12 18 12H10C9.58579 12 9.25 12.3358 9.25 12.75ZM10 15C9.58579 15 9.25 15.3358 9.25 15.75C9.25 16.1642 9.58579 16.5 10 16.5H18C18.4142 16.5 18.75 16.1642 18.75 15.75C18.75 15.3358 18.4142 15 18 15H10ZM16 21C16 19.8954 15.1046 19 14 19C12.8954 19 12 19.8954 12 21C12 22.1046 12.8954 23 14 23C15.1046 23 16 22.1046 16 21Z" fill="#212121"/>
</svg>
