<svg width="28" height="28" viewBox="0 0 28 28" fill="none" xmlns="http://www.w3.org/2000/svg">
<path d="M8.79235 3.5C8.10311 3.5 7.54393 4.0579 7.54235 4.74714L7.5 23.2471C7.49842 23.9386 8.05853 24.5 8.75 24.5H18.5833C19.2698 24.5 19.8278 23.9464 19.8332 23.2599L19.9795 4.75988C19.985 4.06569 19.4238 3.5 18.7295 3.5H8.79235ZM6.04236 4.7437C6.04583 3.22738 7.27603 2 8.79235 2H18.7295C20.2568 2 21.4915 3.24451 21.4795 4.77174L21.3332 23.2717C21.3213 24.782 20.0936 26 18.5833 26H8.75C7.22876 26 5.99652 24.7649 6.00001 23.2437L6.04236 4.7437Z" fill="#212121"/>
<path d="M9.24542 13.2811C9.24542 12.8669 9.58121 12.5311 9.99542 12.5311H17.4954C17.9096 12.5311 18.2454 12.8669 18.2454 13.2811C18.2454 13.6953 17.9096 14.0311 17.4954 14.0311H9.99542C9.58121 14.0311 9.24542 13.6953 9.24542 13.2811Z" fill="#212121"/>
<path d="M9.24542 15.914C9.24542 15.4998 9.58121 15.164 9.99542 15.164H17.4954C17.9096 15.164 18.2454 15.4998 18.2454 15.914C18.2454 16.3282 17.9096 16.664 17.4954 16.664H9.99542C9.58121 16.664 9.24542 16.3282 9.24542 15.914Z" fill="#212121"/>
<path d="M13.7454 9.14808C12.8548 9.14808 12.2454 8.47285 12.2454 7.77594C12.2454 7.07903 12.8548 6.4038 13.7454 6.4038C14.6361 6.4038 15.2454 7.07903 15.2454 7.77594C15.2454 8.47285 14.6361 9.14808 13.7454 9.14808ZM13.7454 10.6481C15.4023 10.6481 16.7454 9.36218 16.7454 7.77594C16.7454 6.1897 15.4023 4.9038 13.7454 4.9038C12.0886 4.9038 10.7454 6.1897 10.7454 7.77594C10.7454 9.36218 12.0886 10.6481 13.7454 10.6481Z" fill="#212121"/>
<path d="M15.7454 20.4617C15.7454 21.5192 14.85 22.3764 13.7454 22.3764C12.6409 22.3764 11.7454 21.5192 11.7454 20.4617C11.7454 19.4042 12.6409 18.5469 13.7454 18.5469C14.85 18.5469 15.7454 19.4042 15.7454 20.4617Z" fill="#212121"/>
</svg>
