<svg width="16" height="16" viewBox="0 0 16 16" fill="none" xmlns="http://www.w3.org/2000/svg">
<path d="M4 3.5C4 2.11929 5.11929 0.999998 6.5 1L10.5 1C11.8807 0.999998 13 2.11929 13 3.5V12.5C13 13.8807 11.8807 15 10.5 15H6.5C5.11929 15 4 13.8807 4 12.5V3.5ZM6.5 2C5.67157 2 5 2.67157 5 3.5V12.5C5 13.3284 5.67157 14 6.5 14H10.5C11.3284 14 12 13.3284 12 12.5V3.5C12 2.67157 11.3284 2 10.5 2L6.5 2Z" fill="#212121"/>
<path d="M6 7.5C6 7.77614 6.22386 8 6.5 8H10.5C10.7761 8 11 7.77614 11 7.5C11 7.22386 10.7761 7 10.5 7H6.5C6.22386 7 6 7.22386 6 7.5Z" fill="#212121"/>
<path d="M6 9.5C6 9.22386 6.22386 9 6.5 9H10.5C10.7761 9 11 9.22386 11 9.5C11 9.77614 10.7761 10 10.5 10H6.5C6.22386 10 6 9.77614 6 9.5Z" fill="#212121"/>
<path d="M8.5 5C8.22386 5 8 4.77614 8 4.5C8 4.22386 8.22386 4 8.5 4C8.77614 4 9 4.22386 9 4.5C9 4.77614 8.77614 5 8.5 5ZM8.5 6C9.32843 6 10 5.32843 10 4.5C10 3.67157 9.32843 3 8.5 3C7.67157 3 7 3.67157 7 4.5C7 5.32843 7.67157 6 8.5 6Z" fill="#212121"/>
<path d="M9.25 11.999C9.25 12.4132 8.91421 12.749 8.5 12.749C8.08579 12.749 7.75 12.4132 7.75 11.999C7.75 11.5848 8.08579 11.249 8.5 11.249C8.91421 11.249 9.25 11.5848 9.25 11.999Z" fill="#212121"/>
</svg>
