<svg width="12" height="12" viewBox="0 0 12 12" fill="none" xmlns="http://www.w3.org/2000/svg">
<path d="M4.5 1C3.67157 1 3 1.67157 3 2.5V9.5C3 10.3284 3.67157 11 4.5 11H7.5C8.32843 11 9 10.3284 9 9.5V2.5C9 1.67157 8.32843 1 7.5 1H4.5ZM6.75 3.5C6.75 3.91421 6.41421 4.25 6 4.25C5.58579 4.25 5.25 3.91421 5.25 3.5C5.25 3.08579 5.58579 2.75 6 2.75C6.41421 2.75 6.75 3.08579 6.75 3.5ZM4.5 7C4.22386 7 4 6.77614 4 6.5C4 6.22386 4.22386 6 4.5 6H7.5C7.77614 6 8 6.22386 8 6.5C8 6.77614 7.77614 7 7.5 7H4.5ZM4 8.5C4 8.22386 4.22386 8 4.5 8H7.5C7.77614 8 8 8.22386 8 8.5C8 8.77614 7.77614 9 7.5 9H4.5C4.22386 9 4 8.77614 4 8.5Z" fill="#212121"/>
</svg>
