<svg width="20" height="20" viewBox="0 0 20 20" fill="none" xmlns="http://www.w3.org/2000/svg">
<path d="M5 4C5 2.89543 5.89543 2 7 2H13C14.1046 2 15 2.89543 15 4V16C15 17.1046 14.1046 18 13 18H7C5.89543 18 5 17.1046 5 16V4ZM10 8C11.1046 8 12 7.10457 12 6C12 4.89543 11.1046 4 10 4C8.89543 4 8 4.89543 8 6C8 7.10457 8.89543 8 10 8ZM11 6C11 6.55229 10.5523 7 10 7C9.44771 7 9 6.55229 9 6C9 5.44771 9.44771 5 10 5C10.5523 5 11 5.44771 11 6ZM6.75 10.5C6.75 10.7761 6.97386 11 7.25 11H12.75C13.0261 11 13.25 10.7761 13.25 10.5C13.25 10.2239 13.0261 10 12.75 10H7.25C6.97386 10 6.75 10.2239 6.75 10.5ZM7.25 12C6.97386 12 6.75 12.2239 6.75 12.5C6.75 12.7761 6.97386 13 7.25 13H12.75C13.0261 13 13.25 12.7761 13.25 12.5C13.25 12.2239 13.0261 12 12.75 12H7.25ZM11 15C11 14.4477 10.5523 14 10 14C9.44772 14 9 14.4477 9 15C9 15.5523 9.44772 16 10 16C10.5523 16 11 15.5523 11 15Z" fill="#212121"/>
</svg>
