<svg width="32" height="32" viewBox="0 0 32 32" fill="none" xmlns="http://www.w3.org/2000/svg">
<path d="M10.0529 4C9.50152 4 9.05419 4.44628 9.05289 4.99764L8.99978 16L9.00001 27C8.9987 27.5532 9.4468 28.0024 10 28.0024L22.9953 28.0024C23.5476 28.0024 23.9953 27.5546 23.9953 27.0024L23.9951 5C23.9951 4.44771 23.5473 4 22.9951 4H10.0529ZM6.9999 4.99292C7.00381 3.33884 8.39879 2 10.0529 2H22.9951C24.6519 2 25.9951 3.34315 25.9951 5L25.9953 27.0024C25.9953 28.6592 24.6521 30.0024 22.9953 30.0024L10 30.0024C8.34039 30.0024 6.94311 28.6549 6.94703 26.9953L6.9999 4.99292Z" fill="#212121"/>
<path d="M10.9951 16C10.9951 15.4477 11.4428 15 11.9951 15H20.9949C21.5472 15 21.9949 15.4477 21.9949 16C21.9949 16.5523 21.5472 17 20.9949 17H11.9951C11.4428 17 10.9951 16.5523 10.9951 16Z" fill="#212121"/>
<path d="M10.9951 20.0895C10.9951 19.5372 11.4428 19.0895 11.9951 19.0895H20.9951C21.5474 19.0895 21.9951 19.5372 21.9951 20.0895C21.9951 20.6418 21.5474 21.0895 20.9951 21.0895H11.9951C11.4428 21.0895 10.9951 20.6418 10.9951 20.0895Z" fill="#212121"/>
<path d="M18.5001 25C18.5001 26 17.7428 27 16.5001 27C15.2575 27 14.5001 26 14.5001 25C14.5001 24 15.188 23 16.5001 23C17.8123 23 18.5001 24 18.5001 25Z" fill="#212121"/>
<path d="M16.4998 11C15.5662 11 14.9998 10.1225 14.9998 9.5C14.9998 8.87746 15.5662 8 16.4998 8C17.4334 8 17.9998 8.87746 17.9998 9.5C17.9998 10.1225 17.4334 11 16.4998 11ZM16.4998 13C18.4328 13 19.9998 11.3294 19.9998 9.5C19.9998 7.67057 18.4328 6 16.4998 6C14.5668 6 12.9998 7.67057 12.9998 9.5C12.9998 11.3294 14.5668 13 16.4998 13Z" fill="#212121"/>
</svg>
