<svg width="24" height="24" viewBox="0 0 24 24" fill="none" xmlns="http://www.w3.org/2000/svg">
<path d="M8.00003 3.25C7.30966 3.24999 6.75 3.80963 6.75 4.5V19.5C6.75 20.1903 7.30964 20.75 8 20.75H16C16.6904 20.75 17.25 20.1903 17.25 19.5V4.50008C17.25 3.80973 16.6904 3.25008 16 3.25008L8.00003 3.25ZM5.25 4.5C5.25 2.98119 6.48125 1.74997 8.00006 1.75L16 1.75008C17.5188 1.75008 18.75 2.9813 18.75 4.50008V19.5C18.75 21.0187 17.5188 22.25 16 22.25H8C6.48122 22.25 5.25 21.0187 5.25 19.5V4.5Z" fill="#212121"/>
<path d="M12 8.06369C11.4107 8.06369 11 7.60818 11 7.12779C11 6.6474 11.4107 6.19189 12 6.19189C12.5893 6.19189 13 6.6474 13 7.12779C13 7.60818 12.5893 8.06369 12 8.06369ZM12 9.56369C13.3807 9.56369 14.5 8.4731 14.5 7.12779C14.5 5.78248 13.3807 4.69189 12 4.69189C10.6193 4.69189 9.5 5.78248 9.5 7.12779C9.5 8.4731 10.6193 9.56369 12 9.56369Z" fill="#212121"/>
<path d="M8.00049 11.7563C8.00049 11.3421 8.33627 11.0063 8.75049 11.0063H12.001H15.2515C15.6657 11.0063 16.0015 11.3421 16.0015 11.7563C16.0015 12.1706 15.6657 12.5063 15.2515 12.5063H8.75049C8.33627 12.5063 8.00049 12.1706 8.00049 11.7563Z" fill="#212121"/>
<path d="M8 14.1924C8 13.7782 8.33579 13.4424 8.75 13.4424H15.25C15.6642 13.4424 16 13.7782 16 14.1924C16 14.6066 15.6642 14.9424 15.25 14.9424H8.75C8.33579 14.9424 8 14.6066 8 14.1924Z" fill="#212121"/>
<path d="M13.5 17.8463C13.5 18.6535 12.8284 19.3078 12 19.3078C11.1716 19.3078 10.5 18.6535 10.5 17.8463C10.5 17.0391 11.1716 16.3848 12 16.3848C12.8284 16.3848 13.5 17.0391 13.5 17.8463Z" fill="#212121"/>
</svg>
