<svg width="24" height="24" viewBox="0 0 24 24" fill="none" xmlns="http://www.w3.org/2000/svg">
<path d="M6 4C6 2.89543 6.89543 2 8 2H16C17.1046 2 18 2.89543 18 4V20C18 21.1046 17.1046 22 16 22H8C6.89543 22 6 21.1046 6 20V4ZM12 9C13.3807 9 14.5 7.88071 14.5 6.5C14.5 5.11929 13.3807 4 12 4C10.6193 4 9.5 5.11929 9.5 6.5C9.5 7.88071 10.6193 9 12 9ZM13 6.5C13 7.05229 12.5523 7.5 12 7.5C11.4477 7.5 11 7.05229 11 6.5C11 5.94771 11.4477 5.5 12 5.5C12.5523 5.5 13 5.94771 13 6.5ZM8 11.75C8 12.1642 8.33579 12.5 8.75 12.5H15.25C15.6642 12.5 16 12.1642 16 11.75C16 11.3358 15.6642 11 15.25 11H8.75C8.33579 11 8 11.3358 8 11.75ZM8 14.75C8.00001 15.1642 8.3358 15.5 8.75001 15.5H15.25C15.6642 15.5 16 15.1642 16 14.75C16 14.3358 15.6642 14 15.25 14H8.74999C8.33577 14 7.99999 14.3358 8 14.75ZM13.5 18.5C13.5 17.6716 12.8284 17 12 17C11.1716 17 10.5 17.6716 10.5 18.5C10.5 19.3284 11.1716 20 12 20C12.8284 20 13.5 19.3284 13.5 18.5Z" fill="#212121"/>
</svg>
