<svg width="12" height="12" viewBox="0 0 12 12" fill="none" xmlns="http://www.w3.org/2000/svg">
<path d="M6.92139 3.94531C6.92139 4.35953 6.5856 4.69531 6.17139 4.69531C5.75717 4.69531 5.42139 4.35953 5.42139 3.94531C5.42139 3.5311 5.75717 3.19531 6.17139 3.19531C6.5856 3.19531 6.92139 3.5311 6.92139 3.94531Z" fill="#212121"/>
<path d="M4.67139 6.69531C4.67139 6.41917 4.89524 6.19531 5.17139 6.19531H7.17139C7.44753 6.19531 7.67139 6.41917 7.67139 6.69531C7.67139 6.97146 7.44753 7.19531 7.17139 7.19531H5.17139C4.89524 7.19531 4.67139 6.97146 4.67139 6.69531Z" fill="#212121"/>
<path d="M4.67139 8.69531C4.67139 8.41917 4.89524 8.19531 5.17139 8.19531H7.17139C7.44753 8.19531 7.67139 8.41917 7.67139 8.69531C7.67139 8.97146 7.44753 9.19531 7.17139 9.19531H5.17139C4.89524 9.19531 4.67139 8.97146 4.67139 8.69531Z" fill="#212121"/>
<path d="M2.67139 3.19531C2.67139 2.09074 3.56682 1.19531 4.67139 1.19531H7.67139C8.77596 1.19531 9.67139 2.09074 9.67139 3.19531V9.19531C9.67139 10.2999 8.77596 11.1953 7.67139 11.1953H4.67139C3.56682 11.1953 2.67139 10.2999 2.67139 9.19531V3.19531ZM4.67139 2.19531C4.1191 2.19531 3.67139 2.64303 3.67139 3.19531V9.19531C3.67139 9.7476 4.1191 10.1953 4.67139 10.1953H7.67139C8.22367 10.1953 8.67139 9.7476 8.67139 9.19531V3.19531C8.67139 2.64303 8.22367 2.19531 7.67139 2.19531H4.67139Z" fill="#212121"/>
</svg>
