<svg width="48" height="48" viewBox="0 0 48 48" fill="none" xmlns="http://www.w3.org/2000/svg">
<path d="M32.75 6.5L16.25 6.50004C15.2835 6.50004 14.5 7.28354 14.5 8.25004V40.75C14.5 41.7165 15.2835 42.5 16.25 42.5H32.75C33.7165 42.5 34.5 41.7165 34.5 40.75V8.25C34.5 7.2835 33.7165 6.5 32.75 6.5ZM32.75 4C35.0972 3.99999 37 5.90278 37 8.25V40.75C37 43.0972 35.0972 45 32.75 45H16.25C13.9028 45 12 43.0972 12 40.75V8.25004C12 5.90282 13.9028 4.00004 16.25 4.00004L32.75 4Z" fill="#212121"/>
<path d="M24.5 16.3948C23.3345 16.3948 22.5 15.4903 22.5 14.509C22.5 13.5277 23.3345 12.6232 24.5 12.6232C25.6655 12.6232 26.5 13.5277 26.5 14.509C26.5 15.4903 25.6655 16.3948 24.5 16.3948ZM24.5 18.8948C26.9853 18.8948 29 16.9312 29 14.509C29 12.0868 26.9853 10.1232 24.5 10.1232C22.0147 10.1232 20 12.0868 20 14.509C20 16.9312 22.0147 18.8948 24.5 18.8948Z" fill="#212121"/>
<path d="M16.5 23.7678C16.5 23.0774 17.0597 22.5178 17.75 22.5178H31.25C31.9404 22.5178 32.5 23.0774 32.5 23.7678C32.5 24.4582 31.9404 25.0178 31.25 25.0178H17.75C17.0597 25.0178 16.5 24.4582 16.5 23.7678Z" fill="#212121"/>
<path d="M16.5 28.641C16.5 27.9507 17.0597 27.391 17.75 27.391H31.25C31.9404 27.391 32.5 27.9507 32.5 28.641C32.5 29.3314 31.9404 29.891 31.25 29.891H17.75C17.0597 29.891 16.5 29.3314 16.5 28.641Z" fill="#212121"/>
<path d="M27.5 36.4781C27.5 38.0929 26.1569 39.402 24.5 39.402C22.8431 39.402 21.5 38.0929 21.5 36.4781C21.5 34.8633 22.8431 33.5543 24.5 33.5543C26.1569 33.5543 27.5 34.8633 27.5 36.4781Z" fill="#212121"/>
</svg>
