<svg width="16" height="16" viewBox="0 0 16 16" fill="none" xmlns="http://www.w3.org/2000/svg">
<path d="M4 2.5C4 1.67157 4.67157 1 5.5 1H10.5C11.3284 1 12 1.67157 12 2.5V13.5C12 14.3284 11.3284 15 10.5 15H5.5C4.67157 15 4 14.3284 4 13.5V2.5ZM8 6C8.82843 6 9.5 5.32843 9.5 4.5C9.5 3.67157 8.82843 3 8 3C7.17157 3 6.5 3.67157 6.5 4.5C6.5 5.32843 7.17157 6 8 6ZM8.5 4.5C8.5 4.77614 8.27614 5 8 5C7.72386 5 7.5 4.77614 7.5 4.5C7.5 4.22386 7.72386 4 8 4C8.27614 4 8.5 4.22386 8.5 4.5ZM5.25 7.5C5.25 7.77614 5.47386 8 5.75 8H10.25C10.5261 8 10.75 7.77614 10.75 7.5C10.75 7.22386 10.5261 7 10.25 7H5.75C5.47386 7 5.25 7.22386 5.25 7.5ZM5.75 9C5.47386 9 5.25 9.22386 5.25 9.5C5.25 9.77614 5.47386 10 5.75 10H10.25C10.5261 10 10.75 9.77614 10.75 9.5C10.75 9.22386 10.5261 9 10.25 9H5.75ZM8.75 12.5425C8.75 12.1283 8.41421 11.7925 8 11.7925C7.58579 11.7925 7.25 12.1283 7.25 12.5425C7.25 12.9567 7.58579 13.2925 8 13.2925C8.41421 13.2925 8.75 12.9567 8.75 12.5425Z" fill="#212121"/>
</svg>
