<svg width="32" height="32" viewBox="0 0 32 32" fill="none" xmlns="http://www.w3.org/2000/svg">
<path d="M7 4C7 2.89543 7.89543 2 9 2H23C24.1046 2 25 2.89543 25 4V28C25 29.1046 24.1046 30 23 30H9C7.89543 30 7 29.1046 7 28V4ZM16 11.5C17.933 11.5 19.5 9.93297 19.5 8C19.5 6.06703 17.933 4.5 16 4.5C14.067 4.5 12.5 6.06703 12.5 8C12.5 9.93297 14.067 11.5 16 11.5ZM17.5 8C17.5 8.8284 16.8284 9.5 16 9.5C15.1716 9.5 14.5 8.8284 14.5 8C14.5 7.1716 15.1716 6.5 16 6.5C16.8284 6.5 17.5 7.1716 17.5 8ZM10.25 15C10.25 15.5523 10.6977 16 11.25 16H20.75C21.3023 16 21.75 15.5523 21.75 15C21.75 14.4477 21.3023 14 20.75 14H11.25C10.6977 14 10.25 14.4477 10.25 15ZM11.25 18C10.6977 18 10.25 18.4477 10.25 19C10.25 19.5523 10.6977 20 11.25 20H20.75C21.3023 20 21.75 19.5523 21.75 19C21.75 18.4477 21.3023 18 20.75 18H11.25ZM18.063 25.5C18.063 24.3954 17.1676 23.5 16.063 23.5C14.9584 23.5 14.063 24.3954 14.063 25.5C14.063 26.6046 14.9584 27.5 16.063 27.5C17.1676 27.5 18.063 26.6046 18.063 25.5Z" fill="#212121"/>
</svg>
