<svg width="48" height="48" viewBox="0 0 48 48" fill="none" xmlns="http://www.w3.org/2000/svg">
<path d="M12 7C12 5.34315 13.3431 4 15 4H33C34.6569 4 36 5.34315 36 7V41C36 42.6569 34.6569 44 33 44H15C13.3431 44 12 42.6569 12 41V7ZM23.8999 18C26.6613 18 28.8999 15.7614 28.8999 13C28.8999 10.2386 26.6613 8 23.8999 8C21.1385 8 18.8999 10.2386 18.8999 13C18.8999 15.7614 21.1385 18 23.8999 18ZM26.3999 13C26.3999 14.3807 25.2806 15.5 23.8999 15.5C22.5192 15.5 21.3999 14.3807 21.3999 13C21.3999 11.6193 22.5192 10.5 23.8999 10.5C25.2806 10.5 26.3999 11.6193 26.3999 13ZM15.5 22C15.5 22.6904 16.0596 23.25 16.75 23.25H31.25C31.9404 23.25 32.5 22.6904 32.5 22C32.5 21.3096 31.9404 20.75 31.25 20.75H16.75C16.0596 20.75 15.5 21.3096 15.5 22ZM16.75 25.75C16.0596 25.75 15.5 26.3096 15.5 27C15.5 27.6904 16.0596 28.25 16.75 28.25H31.25C31.9404 28.25 32.5 27.6904 32.5 27C32.5 26.3096 31.9404 25.75 31.25 25.75H16.75ZM27.5 36C27.5 34.3431 26.1568 33 24.5 33C22.8432 33 21.5 34.3431 21.5 36C21.5 37.6569 22.8432 39 24.5 39C26.1568 39 27.5 37.6569 27.5 36Z" fill="#212121"/>
</svg>
