<svg width="64" height="64" viewBox="0 0 64 64" fill="none" xmlns="http://www.w3.org/2000/svg">
<path d="M22.7568 56.9999C20.6857 56.9999 19.0068 55.321 19.0068 53.2499V49.9999H14.75C13.2312 49.9999 12 48.7687 12 47.2499V42.9999H8.75C6.12665 42.9999 4 40.8732 4 38.2499V12.2498C4 9.07412 6.57436 6.49976 9.75 6.49976H54.25C57.4256 6.49976 60 9.07412 60 12.2498V38.2498C60 40.8731 57.8734 42.9998 55.25 42.9998H52V47.2498C52 48.7686 50.7688 49.9998 49.25 49.9998H44.9932V53.2499C44.9932 55.321 43.3143 56.9999 41.2432 56.9999H22.7568ZM21.75 16.7499C21.75 15.7834 20.9665 14.9999 20 14.9999C19.0335 14.9999 18.25 15.7834 18.25 16.7499V29.2499C18.25 30.2164 19.0335 30.9999 20 30.9999C20.9665 30.9999 21.75 30.2164 21.75 29.2499V16.7499ZM29.75 16.7499C29.75 15.7834 28.9665 14.9999 28 14.9999C27.0335 14.9999 26.25 15.7834 26.25 16.7499V29.2499C26.25 30.2164 27.0335 30.9999 28 30.9999C28.9665 30.9999 29.75 30.2164 29.75 29.2499V16.7499ZM37.75 16.7499C37.75 15.7834 36.9665 14.9999 36 14.9999C35.0335 14.9999 34.25 15.7834 34.25 16.7499V29.2499C34.25 30.2164 35.0335 30.9999 36 30.9999C36.9665 30.9999 37.75 30.2164 37.75 29.2499V16.7499ZM45.75 16.7499C45.75 15.7834 44.9665 14.9999 44 14.9999C43.0335 14.9999 42.25 15.7834 42.25 16.7499V29.2499C42.25 30.2164 43.0335 30.9999 44 30.9999C44.9665 30.9999 45.75 30.2164 45.75 29.2499V16.7499Z" fill="#212121"/>
</svg>
