<svg width="64" height="64" viewBox="0 0 64 64" fill="none" xmlns="http://www.w3.org/2000/svg">
<path d="M22.7568 57.5001C20.6857 57.5001 19.0068 55.8212 19.0068 53.7501V50.5001H14.75C13.2312 50.5001 12 49.2689 12 47.7501V43.5001H8.75C6.12665 43.5001 4 41.3735 4 38.7501V12.75C4 9.57436 6.57436 7 9.75 7H54.25C57.4256 7 60 9.57436 60 12.75V38.75C60 41.3734 57.8734 43.5 55.25 43.5H52V47.75C52 49.2688 50.7688 50.5 49.25 50.5H44.9932V53.7501C44.9932 55.8212 43.3143 57.5001 41.2432 57.5001H22.7568ZM22.5068 53.7501C22.5068 53.8882 22.6187 54.0001 22.7568 54.0001H41.2432C41.3813 54.0001 41.4932 53.8882 41.4932 53.7501V49.75C41.4932 48.2313 42.7245 47 44.2432 47H48.5V42.75C48.5 41.2313 49.7312 40 51.25 40H55.25C55.9404 40 56.5 39.4404 56.5 38.75V12.75C56.5 11.5074 55.4926 10.5 54.25 10.5H9.75C8.50736 10.5 7.5 11.5074 7.5 12.75V38.7501C7.5 39.4405 8.05964 40.0001 8.75 40.0001H12.75C14.2688 40.0001 15.5 41.2314 15.5 42.7501V47.0001H19.7568C21.2755 47.0001 22.5068 48.2314 22.5068 49.7501V53.7501ZM21.75 17.2501C21.75 16.2836 20.9665 15.5001 20 15.5001C19.0335 15.5001 18.25 16.2836 18.25 17.2501V29.7501C18.25 30.7166 19.0335 31.5001 20 31.5001C20.9665 31.5001 21.75 30.7166 21.75 29.7501V17.2501ZM29.75 17.2501C29.75 16.2836 28.9665 15.5001 28 15.5001C27.0335 15.5001 26.25 16.2836 26.25 17.2501V29.7501C26.25 30.7166 27.0335 31.5001 28 31.5001C28.9665 31.5001 29.75 30.7166 29.75 29.7501V17.2501ZM37.75 17.2501C37.75 16.2836 36.9665 15.5001 36 15.5001C35.0335 15.5001 34.25 16.2836 34.25 17.2501V29.7501C34.25 30.7166 35.0335 31.5001 36 31.5001C36.9665 31.5001 37.75 30.7166 37.75 29.7501V17.2501ZM45.75 17.2501C45.75 16.2836 44.9665 15.5001 44 15.5001C43.0335 15.5001 42.25 16.2836 42.25 17.2501V29.7501C42.25 30.7166 43.0335 31.5001 44 31.5001C44.9665 31.5001 45.75 30.7166 45.75 29.7501V17.2501Z" fill="#212121"/>
</svg>
