<svg width="20" height="20" viewBox="0 0 20 20" fill="none" xmlns="http://www.w3.org/2000/svg">
<path d="M6.55294 16.9992V14.8111L13.4761 7.85904L15.6396 10.0351L8.72441 17L6.55294 16.9992ZM2 8.54812C2.00273 7.81678 2.14862 7.09315 2.4294 6.41853C2.71019 5.74392 3.12034 5.13153 3.63643 4.61634C4.15251 4.10116 4.76446 3.69325 5.43728 3.41593C6.1101 3.1386 6.83066 2.99728 7.55778 3.00004C8.78459 3.0051 9.97549 3.41689 10.9461 4.17162C11.9166 4.92635 12.6127 5.98191 12.9264 7.1748L11.1331 8.97043C10.9869 8.91999 10.8334 8.89439 10.6788 8.89467C10.3122 8.89403 9.9603 9.03973 9.7004 9.29977C9.4405 9.55982 9.29379 9.91297 9.29251 10.2817C9.29129 10.4379 9.31852 10.5931 9.37272 10.7395L8.76608 11.3423C8.64398 11.1267 8.46757 10.9471 8.25461 10.8218C8.04165 10.6964 7.79973 10.6297 7.55299 10.6282C7.1858 10.6276 6.83323 10.7731 6.57231 11.033C6.31139 11.2928 6.16328 11.646 6.16032 12.0153C6.16271 12.2646 6.23065 12.5088 6.35731 12.7231C6.48398 12.9375 6.66489 13.1142 6.8815 13.2355L6.19152 13.9294C4.99635 13.6309 3.93469 12.9391 3.17523 11.9641C2.41577 10.9891 2.00212 9.78673 2 8.54812ZM3.04172 10.2817C3.04256 10.4648 3.07925 10.6459 3.1497 10.8146C3.22016 10.9834 3.32291 11.1366 3.45224 11.2654C3.58157 11.3942 3.73486 11.4961 3.90336 11.5653C4.07186 11.6345 4.25229 11.6697 4.43429 11.6687C4.80069 11.6689 5.15226 11.5231 5.41194 11.2631C5.67162 11.0031 5.81824 10.6502 5.81973 10.2817C5.81846 9.91311 5.67187 9.56008 5.41214 9.30006C5.15241 9.04003 4.80075 8.89425 4.43429 8.89467C4.25229 8.89372 4.07186 8.92884 3.90336 8.99804C3.73486 9.06724 3.58157 9.16915 3.45224 9.29796C3.32291 9.42677 3.22016 9.57995 3.1497 9.74874C3.07925 9.91753 3.04256 10.0986 3.04172 10.2817ZM9.29173 6.81616C9.29321 7.18474 9.44003 7.53768 9.69991 7.79756C9.95978 8.05743 10.3115 8.20302 10.6779 8.20237C11.0443 8.2028 11.3959 8.05712 11.6556 7.79727C11.9153 7.53742 12.0619 7.1846 12.0634 6.81616C12.0621 6.44757 11.9155 6.09455 11.6558 5.83452C11.3961 5.5745 11.0444 5.42871 10.6779 5.42914C10.3116 5.42849 9.96006 5.57397 9.7002 5.83367C9.44035 6.09337 9.29343 6.4461 9.29173 6.81455V6.81616ZM3.04172 6.81616C3.04256 6.99918 3.07924 7.18025 3.1497 7.34899C3.22017 7.51774 3.323 7.67086 3.45234 7.79961C3.58168 7.92835 3.73496 8.03019 3.90346 8.0993C4.07196 8.16841 4.25233 8.20343 4.43429 8.20237C4.80062 8.2028 5.15224 8.05712 5.41194 7.79727C5.67165 7.53742 5.81824 7.1846 5.81973 6.81616C5.81846 6.44757 5.67187 6.09455 5.41214 5.83452C5.15241 5.5745 4.80075 5.42871 4.43429 5.42914C4.06699 5.42721 3.71398 5.57206 3.45283 5.83186C3.19168 6.09165 3.04384 6.44511 3.04172 6.81455V6.81616ZM6.16668 5.08178C6.16964 5.45109 6.31775 5.80423 6.57867 6.0641C6.83959 6.32396 7.19215 6.46945 7.55935 6.4688C7.92581 6.46923 8.27747 6.32344 8.53719 6.06341C8.79692 5.80339 8.94351 5.45036 8.94478 5.08178C8.9433 4.71333 8.7966 4.36051 8.5369 4.10066C8.2772 3.84081 7.92567 3.69513 7.55935 3.69556C7.19257 3.69491 6.8404 3.84007 6.57955 4.09941C6.3187 4.35876 6.17027 4.71127 6.16668 5.08017V5.08178ZM14.2501 7.08937L15.6179 5.71283C15.6886 5.64158 15.7725 5.58504 15.8649 5.54647C15.9573 5.5079 16.0564 5.48804 16.1564 5.48804C16.2564 5.48804 16.3555 5.5079 16.4479 5.54647C16.5403 5.58504 16.6242 5.64158 16.6949 5.71283L17.7766 6.80165C17.8474 6.87263 17.9037 6.95698 17.942 7.04985C17.9803 7.14271 18 7.24228 18 7.34284C18 7.4434 17.9803 7.54296 17.942 7.63583C17.9037 7.7287 17.8474 7.81305 17.7766 7.88403L16.4089 9.25976L14.2501 7.08937Z" fill="#212121"/>
</svg>
