<svg width="32" height="32" viewBox="0 0 32 32" fill="none" xmlns="http://www.w3.org/2000/svg">
<path d="M9.96765 27.9986V24.2475L22.0832 12.3298L25.8692 16.0601L13.7677 28L9.96765 27.9986ZM2 13.5111C2.00478 12.2573 2.26009 11.0168 2.75145 9.86034C3.24282 8.70386 3.96059 7.65405 4.86375 6.77088C5.7669 5.8877 6.8378 5.18844 8.01523 4.71302C9.19267 4.2376 10.4537 3.99534 11.7261 4.00007C13.873 4.00875 15.9571 4.71466 17.6556 6.00849C19.3541 7.30231 20.5721 9.11184 21.1212 11.1568L17.9829 14.235C17.727 14.1486 17.4585 14.1047 17.1879 14.1052C16.5464 14.1041 15.9305 14.3538 15.4757 14.7996C15.0209 15.2454 14.7641 15.8508 14.7619 16.4829C14.7598 16.7507 14.8074 17.0167 14.9023 17.2677L13.8406 18.3011C13.627 17.9314 13.3182 17.6236 12.9456 17.4088C12.5729 17.1939 12.1495 17.0795 11.7177 17.077C11.0751 17.0759 10.4581 17.3253 10.0015 17.7708C9.54493 18.2163 9.28574 18.8216 9.28055 19.4547C9.28475 19.8821 9.40363 20.3008 9.6253 20.6682C9.84697 21.0356 10.1636 21.3387 10.5426 21.5465L9.33516 22.7361C7.24361 22.2243 5.38572 21.0385 4.05666 19.367C2.7276 17.6956 2.00371 15.6344 2 13.5111ZM3.82301 16.4829C3.82448 16.7967 3.88869 17.1072 4.01198 17.3965C4.13527 17.6859 4.3151 17.9485 4.54142 18.1693C4.76775 18.3901 5.036 18.5648 5.33088 18.6835C5.62576 18.8021 5.9415 18.8623 6.26001 18.8607C6.90121 18.861 7.51646 18.611 7.9709 18.1653C8.42534 17.7196 8.68193 17.1147 8.68453 16.4829C8.6823 15.851 8.42577 15.2459 7.97124 14.8001C7.51672 14.3543 6.90132 14.1044 6.26001 14.1052C5.9415 14.1035 5.62576 14.1637 5.33088 14.2824C5.036 14.401 4.76775 14.5757 4.54142 14.7965C4.3151 15.0173 4.13527 15.2799 4.01198 15.5693C3.88869 15.8586 3.82448 16.1691 3.82301 16.4829ZM14.7605 10.542C14.7631 11.1738 15.0201 11.7789 15.4748 12.2244C15.9296 12.6699 16.5451 12.9195 17.1864 12.9184C17.8275 12.9191 18.4428 12.6694 18.8973 12.2239C19.3518 11.7784 19.6083 11.1736 19.6109 10.542C19.6087 9.91013 19.3522 9.30494 18.8976 8.85918C18.4431 8.41343 17.8277 8.1635 17.1864 8.16424C16.5453 8.16313 15.9301 8.41252 15.4754 8.85772C15.0206 9.30292 14.7635 9.90761 14.7605 10.5392V10.542ZM3.82301 10.542C3.82447 10.8557 3.88867 11.1661 4.01198 11.4554C4.13529 11.7447 4.31525 12.0072 4.5416 12.2279C4.76794 12.4486 5.03618 12.6232 5.33105 12.7417C5.62592 12.8601 5.94157 12.9202 6.26001 12.9184C6.90108 12.9191 7.51642 12.6694 7.9709 12.2239C8.42538 11.7784 8.68193 11.1736 8.68453 10.542C8.6823 9.91013 8.42577 9.30494 7.97124 8.85918C7.51672 8.41343 6.90132 8.1635 6.26001 8.16424C5.61723 8.16093 4.99946 8.40925 4.54245 8.85461C4.08544 9.29997 3.82671 9.90591 3.82301 10.5392V10.542ZM9.29168 7.56876C9.29686 8.20187 9.55606 8.80725 10.0127 9.25274C10.4693 9.69822 11.0863 9.94763 11.7289 9.94651C12.3702 9.94725 12.9856 9.69732 13.4401 9.25157C13.8946 8.80581 14.1511 8.20062 14.1534 7.56876C14.1508 6.93715 13.8941 6.33231 13.4396 5.88685C12.9851 5.44139 12.3699 5.19166 11.7289 5.1924C11.087 5.19127 10.4707 5.44011 10.0142 5.8847C9.55772 6.3293 9.29797 6.93361 9.29168 7.566V7.56876ZM23.4377 11.0104L25.8314 8.65056C25.955 8.52842 26.1019 8.4315 26.2636 8.36538C26.4253 8.29925 26.5986 8.26522 26.7737 8.26522C26.9488 8.26522 27.1221 8.29925 27.2838 8.36538C27.4455 8.4315 27.5924 8.52842 27.716 8.65056L29.609 10.5171C29.733 10.6388 29.8314 10.7834 29.8985 10.9426C29.9656 11.1018 30 11.2725 30 11.4449C30 11.6173 29.9656 11.7879 29.8985 11.9471C29.8314 12.1063 29.733 12.2509 29.609 12.3726L27.2155 14.731L23.4377 11.0104Z" fill="#212121"/>
</svg>
