<svg width="48" height="48" viewBox="0 0 48 48" fill="none" xmlns="http://www.w3.org/2000/svg">
<path d="M15.3824 41.998V36.684L32.6903 19.8005L38.0989 25.0852L20.811 42L15.3824 41.998ZM4 21.474C4.00683 19.6979 4.37155 17.9405 5.07351 16.3021C5.77546 14.6638 6.80085 13.1766 8.09106 11.9254C9.38128 10.6742 10.9111 9.68362 12.5932 9.01011C14.2752 8.3366 16.0767 7.9934 17.8945 8.0001C20.9615 8.01239 23.9387 9.01244 26.3651 10.8454C28.7916 12.6783 30.5316 15.2418 31.316 18.1388L26.8327 22.4996C26.4672 22.3771 26.0835 22.315 25.6971 22.3156C24.7806 22.3141 23.9007 22.6679 23.251 23.2995C22.6012 23.931 22.2345 24.7886 22.2313 25.6841C22.2282 26.0635 22.2963 26.4403 22.4318 26.7959L20.9152 28.2599C20.6099 27.7362 20.1689 27.3002 19.6365 26.9958C19.1041 26.6913 18.4993 26.5292 17.8825 26.5257C16.9645 26.5242 16.0831 26.8775 15.4308 27.5086C14.7785 28.1397 14.4082 28.9973 14.4008 29.8942C14.4068 30.4997 14.5766 31.0928 14.8933 31.6133C15.21 32.1338 15.6622 32.5631 16.2037 32.8575L14.4788 34.5428C11.4909 33.8178 8.83674 32.1379 6.93808 29.77C5.03943 27.4021 4.0053 24.4821 4 21.474ZM6.60429 25.6841C6.60639 26.1287 6.69813 26.5685 6.87426 26.9784C7.05039 27.3884 7.30728 27.7604 7.63061 28.0732C7.95393 28.386 8.33714 28.6335 8.7584 28.8016C9.17966 28.9696 9.63072 29.0549 10.0857 29.0526C11.0017 29.0531 11.8807 28.6989 12.5299 28.0675C13.1791 27.4361 13.5456 26.5791 13.5493 25.6841C13.5461 24.789 13.1797 23.9316 12.5303 23.3001C11.881 22.6687 11.0019 22.3146 10.0857 22.3156C9.63072 22.3133 9.17966 22.3986 8.7584 22.5667C8.33714 22.7347 7.95393 22.9822 7.63061 23.2951C7.30728 23.6079 7.05039 23.9799 6.87426 24.3898C6.69813 24.7997 6.60639 25.2395 6.60429 25.6841ZM22.2293 17.2678C22.233 18.1629 22.6001 19.0201 23.2498 19.6512C23.8995 20.2823 24.7787 20.6359 25.6949 20.6343C26.6107 20.6354 27.4897 20.2816 28.139 19.6505C28.7883 19.0195 29.1547 18.1626 29.1585 17.2678C29.1553 16.3727 28.7888 15.5153 28.1395 14.8838C27.4902 14.2524 26.611 13.8983 25.6949 13.8993C24.7791 13.8978 23.9001 14.2511 23.2505 14.8818C22.6009 15.5125 22.2336 16.3691 22.2293 17.2639V17.2678ZM6.60429 17.2678C6.60639 17.7123 6.69811 18.152 6.87426 18.5618C7.05041 18.9717 7.3075 19.3435 7.63085 19.6562C7.9542 19.9689 8.3374 20.2162 8.75864 20.384C9.17989 20.5519 9.63082 20.6369 10.0857 20.6343C11.0015 20.6354 11.8806 20.2816 12.5299 19.6505C13.1791 19.0195 13.5456 18.1626 13.5493 17.2678C13.5461 16.3727 13.1797 15.5153 12.5303 14.8838C11.881 14.2524 11.0019 13.8983 10.0857 13.8993C9.16748 13.8947 8.28495 14.2464 7.63207 14.8774C6.9792 15.5083 6.60959 16.3667 6.60429 17.2639V17.2678ZM14.4167 13.0557C14.4241 13.9527 14.7944 14.8103 15.4467 15.4414C16.099 16.0725 16.9804 16.4258 17.8984 16.4242C18.8145 16.4253 19.6937 16.0712 20.343 15.4397C20.9923 14.8082 21.3588 13.9509 21.362 13.0557C21.3582 12.161 20.9915 11.3041 20.3423 10.673C19.693 10.042 18.8142 9.68818 17.8984 9.68923C16.9814 9.68764 16.101 10.0402 15.4489 10.67C14.7967 11.2998 14.4257 12.156 14.4167 13.0518V13.0557ZM34.6253 17.9313L38.0448 14.5883C38.2215 14.4153 38.4313 14.278 38.6623 14.1843C38.8933 14.0906 39.1409 14.0424 39.391 14.0424C39.6411 14.0424 39.8887 14.0906 40.1197 14.1843C40.3507 14.278 40.5606 14.4153 40.7372 14.5883L43.4415 17.2326C43.6185 17.405 43.7591 17.6098 43.855 17.8353C43.9508 18.0609 44 18.3027 44 18.5469C44 18.7911 43.9508 19.0329 43.855 19.2585C43.7591 19.484 43.6185 19.6888 43.4415 19.8612L40.0222 23.2023L34.6253 17.9313Z" fill="#212121"/>
</svg>
