<svg width="16" height="16" viewBox="0 0 16 16" fill="none" xmlns="http://www.w3.org/2000/svg">
<path d="M4.98382 13.9993V12.1238L11.0416 6.16489L12.9346 8.03007L6.88386 14L4.98382 13.9993ZM1 6.75553C1.00239 6.12867 1.13004 5.50841 1.37573 4.93017C1.62141 4.35193 1.9803 3.82703 2.43187 3.38544C2.88345 2.94385 3.4189 2.59422 4.00762 2.35651C4.59633 2.1188 5.22683 1.99767 5.86306 2.00003C6.93651 2.00437 7.97855 2.35733 8.8278 3.00424C9.67704 3.65116 10.2861 4.55592 10.5606 5.5784L8.99144 7.11751C8.8635 7.07428 8.72923 7.05234 8.59397 7.05258C8.2732 7.05203 7.96526 7.17691 7.73785 7.39981C7.51043 7.6227 7.38206 7.9254 7.38095 8.24145C7.37988 8.37536 7.40371 8.50833 7.45113 8.63383L6.92032 9.15055C6.81348 8.9657 6.65912 8.81182 6.47278 8.70439C6.28645 8.59695 6.07476 8.53973 5.85887 8.5385C5.53757 8.53794 5.22907 8.66265 5.00077 8.88539C4.77247 9.10813 4.64287 9.41082 4.64028 9.72737C4.64237 9.94107 4.70181 10.1504 4.81265 10.3341C4.92348 10.5178 5.08178 10.6693 5.27131 10.7733L4.66758 11.368C3.62181 11.1122 2.69286 10.5193 2.02833 9.68352C1.3638 8.84779 1.00185 7.8172 1 6.75553ZM1.9115 8.24145C1.91224 8.39836 1.94435 8.55359 2.00599 8.69827C2.06764 8.84295 2.15755 8.97425 2.27071 9.08465C2.38388 9.19506 2.518 9.28241 2.66544 9.34173C2.81288 9.40104 2.97075 9.43115 3.13001 9.43033C3.4506 9.43051 3.75823 9.30549 3.98545 9.08265C4.21267 8.85981 4.34096 8.55733 4.34226 8.24145C4.34115 7.92552 4.21288 7.62293 3.98562 7.40005C3.75836 7.17717 3.45066 7.05221 3.13001 7.05258C2.97075 7.05176 2.81288 7.08187 2.66544 7.14118C2.518 7.20049 2.38388 7.28785 2.27071 7.39825C2.15755 7.50866 2.06764 7.63995 2.00599 7.78463C1.94435 7.92931 1.91224 8.08454 1.9115 8.24145ZM7.38026 5.27099C7.38156 5.58692 7.51003 5.88944 7.73742 6.11219C7.96481 6.33494 8.27255 6.45973 8.5932 6.45918C8.91374 6.45955 9.22141 6.33468 9.44865 6.11195C9.67589 5.88922 9.80416 5.5868 9.80546 5.27099C9.80435 4.95506 9.67608 4.65247 9.44882 4.42959C9.22156 4.20671 8.91386 4.08175 8.5932 4.08212C8.27267 4.08157 7.96505 4.20626 7.73768 4.42886C7.5103 4.65146 7.38175 4.9538 7.38026 5.26961V5.27099ZM1.9115 5.27099C1.91224 5.42787 1.94434 5.58307 2.00599 5.72771C2.06764 5.87235 2.15762 6.0036 2.2708 6.11395C2.38397 6.2243 2.51809 6.31159 2.66553 6.37083C2.81296 6.43006 2.97079 6.46009 3.13001 6.45918C3.45054 6.45955 3.75821 6.33468 3.98545 6.11195C4.21269 5.88922 4.34096 5.5868 4.34226 5.27099C4.34115 4.95506 4.21288 4.65247 3.98562 4.42959C3.75836 4.20671 3.45066 4.08175 3.13001 4.08212C2.80862 4.08047 2.49973 4.20463 2.27123 4.42731C2.04272 4.64998 1.91336 4.95296 1.9115 5.26961V5.27099ZM4.64584 3.78438C4.64843 4.10094 4.77803 4.40363 5.00633 4.62637C5.23464 4.84911 5.54313 4.97381 5.86443 4.97326C6.18508 4.97362 6.49278 4.84866 6.72004 4.62578C6.94731 4.40291 7.07557 4.10031 7.07669 3.78438C7.07539 3.46857 6.94703 3.16616 6.71979 2.94343C6.49255 2.7207 6.18496 2.59583 5.86443 2.5962C5.5435 2.59564 5.23535 2.72006 5.0071 2.94235C4.77886 3.16465 4.64898 3.46681 4.64584 3.783V3.78438ZM11.7188 5.50518L12.9157 4.32528C12.9775 4.26421 13.051 4.21575 13.1318 4.18269C13.2127 4.14963 13.2993 4.13261 13.3869 4.13261C13.4744 4.13261 13.5611 4.14963 13.6419 4.18269C13.7228 4.21575 13.7962 4.26421 13.858 4.32528L14.8045 5.25856C14.8665 5.3194 14.9157 5.39169 14.9492 5.4713C14.9828 5.5509 15 5.63624 15 5.72243C15 5.80863 14.9828 5.89397 14.9492 5.97357C14.9157 6.05317 14.8665 6.12547 14.8045 6.18631L13.6078 7.36551L11.7188 5.50518Z" fill="#212121"/>
</svg>
