<svg width="28" height="28" viewBox="0 0 28 28" fill="none" xmlns="http://www.w3.org/2000/svg">
<path d="M8.82941 24.4988V21.2166L19.2142 10.7886L22.4593 14.0526L12.0866 24.5L8.82941 24.4988ZM2 11.8222C2.0041 10.7252 2.22293 9.63972 2.6441 8.6278C3.06528 7.61587 3.68051 6.6973 4.45464 5.92452C5.22877 5.15173 6.14669 4.53988 7.15592 4.12389C8.16514 3.7079 9.246 3.49592 10.3367 3.50006C12.1769 3.50765 13.9632 4.12533 15.4191 5.25743C16.8749 6.38952 17.919 7.97286 18.3896 9.7622L15.6996 12.4556C15.4803 12.38 15.2501 12.3416 15.0182 12.342C14.4683 12.341 13.9404 12.5596 13.5506 12.9497C13.1607 13.3397 12.9407 13.8695 12.9388 14.4225C12.9369 14.6569 12.9778 14.8896 13.0591 15.1092L12.1491 16.0135C11.966 15.69 11.7013 15.4207 11.3819 15.2327C11.0625 15.0447 10.6996 14.9445 10.3295 14.9424C9.77869 14.9414 9.24984 15.1596 8.85846 15.5494C8.46708 15.9392 8.24492 16.4689 8.24048 17.0229C8.24407 17.3969 8.34597 17.7632 8.53597 18.0847C8.72597 18.4062 8.99733 18.6713 9.32225 18.8532L8.28728 19.8941C6.49452 19.4463 4.90204 18.4087 3.76285 16.9462C2.62366 15.4836 2.00318 13.6801 2 11.8222ZM3.56258 14.4225C3.56384 14.6971 3.61888 14.9688 3.72456 15.222C3.83023 15.4752 3.98437 15.7049 4.17836 15.8981C4.37236 16.0914 4.60228 16.2442 4.85504 16.348C5.1078 16.4518 5.37843 16.5045 5.65144 16.5031C6.20103 16.5034 6.72839 16.2846 7.11791 15.8946C7.50744 15.5047 7.72737 14.9753 7.72959 14.4225C7.72768 13.8697 7.5078 13.3401 7.11821 12.9501C6.72862 12.5601 6.20113 12.3414 5.65144 12.342C5.37843 12.3406 5.1078 12.3933 4.85504 12.4971C4.60228 12.6009 4.37236 12.7537 4.17836 12.9469C3.98437 13.1402 3.83023 13.3699 3.72456 13.6231C3.61888 13.8763 3.56384 14.148 3.56258 14.4225ZM12.9376 9.22424C12.9398 9.77711 13.16 10.3065 13.5499 10.6963C13.9397 11.0861 14.4672 11.3045 15.0169 11.3036C15.5664 11.3042 16.0938 11.0857 16.4834 10.6959C16.873 10.3061 17.0928 9.77691 17.0951 9.22424C17.0932 8.67136 16.8733 8.14182 16.4837 7.75179C16.0941 7.36175 15.5666 7.14306 15.0169 7.14371C14.4674 7.14274 13.9401 7.36095 13.5503 7.7505C13.1605 8.14005 12.9401 8.66915 12.9376 9.22182V9.22424ZM3.56258 9.22424C3.56384 9.49877 3.61886 9.77037 3.72456 10.0235C3.83025 10.2766 3.9845 10.5063 4.17851 10.6994C4.37252 10.8925 4.60244 11.0453 4.85519 11.1489C5.10794 11.2526 5.37849 11.3052 5.65144 11.3036C6.20092 11.3042 6.72836 11.0857 7.11791 10.6959C7.50747 10.3061 7.72737 9.77691 7.72959 9.22424C7.72768 8.67136 7.5078 8.14182 7.11821 7.75179C6.72862 7.36175 6.20113 7.14306 5.65144 7.14371C5.10049 7.14081 4.57097 7.3581 4.17924 7.74778C3.78752 8.13747 3.56576 8.66767 3.56258 9.22182V9.22424ZM8.25001 6.62267C8.25446 7.17664 8.47662 7.70634 8.868 8.09614C9.25938 8.48594 9.78823 8.70417 10.339 8.7032C10.8887 8.70384 11.4162 8.48516 11.8058 8.09512C12.1954 7.70508 12.4153 7.17554 12.4172 6.62267C12.4149 6.07 12.1949 5.54077 11.8054 5.151C11.4158 4.76122 10.8885 4.5427 10.339 4.54335C9.78885 4.54236 9.2606 4.7601 8.86932 5.14912C8.47804 5.53813 8.2554 6.06691 8.25001 6.62025V6.62267ZM20.3752 9.63406L22.4269 7.56924C22.5329 7.46236 22.6588 7.37757 22.7974 7.31971C22.936 7.26185 23.0845 7.23206 23.2346 7.23206C23.3847 7.23206 23.5332 7.26185 23.6718 7.31971C23.8104 7.37757 23.9363 7.46236 24.0423 7.56924L25.6649 9.20248C25.7711 9.30895 25.8555 9.43546 25.913 9.57477C25.9705 9.71407 26 9.86342 26 10.0143C26 10.1651 25.9705 10.3144 25.913 10.4538C25.8555 10.5931 25.7711 10.7196 25.6649 10.826L23.6133 12.8896L20.3752 9.63406Z" fill="#212121"/>
</svg>
