<svg width="24" height="24" viewBox="0 0 24 24" fill="none" xmlns="http://www.w3.org/2000/svg">
<path d="M7.69118 20.499V17.842L16.3451 9.40027L19.0494 12.0426L10.4055 20.5L7.69118 20.499ZM2 10.237C2.00341 9.34895 2.18578 8.47025 2.53675 7.65107C2.88773 6.8319 3.40042 6.08829 4.04553 5.4627C4.69064 4.83712 5.45557 4.34181 6.2966 4.00506C7.13762 3.6683 8.03833 3.4967 8.94723 3.50005C10.4807 3.50619 11.9694 4.00622 13.1826 4.92268C14.3958 5.83914 15.2658 7.12089 15.658 8.5694L13.4163 10.7498C13.2336 10.6886 13.0418 10.6575 12.8485 10.6578C12.3903 10.657 11.9504 10.834 11.6255 11.1497C11.3006 11.4655 11.1172 11.8943 11.1156 12.3421C11.1141 12.5318 11.1482 12.7201 11.2159 12.8979L10.4576 13.6299C10.305 13.3681 10.0845 13.1501 9.81826 12.9979C9.55207 12.8457 9.24966 12.7646 8.94124 12.7629C8.48224 12.7621 8.04154 12.9387 7.71539 13.2543C7.38924 13.5699 7.2041 13.9987 7.2004 14.4471C7.20339 14.7499 7.28831 15.0464 7.44664 15.3067C7.60498 15.5669 7.83111 15.7816 8.10187 15.9288L7.2394 16.7714C5.74544 16.4089 4.41837 15.5689 3.46904 14.385C2.51972 13.201 2.00265 11.741 2 10.237ZM3.30215 12.3421C3.3032 12.5643 3.34907 12.7843 3.43713 12.9892C3.52519 13.1942 3.65364 13.3802 3.8153 13.5366C3.97697 13.693 4.16857 13.8168 4.3792 13.9008C4.58983 13.9848 4.81536 14.0275 5.04287 14.0263C5.50086 14.0266 5.94033 13.8494 6.26493 13.5338C6.58953 13.2181 6.77281 12.7895 6.77466 12.3421C6.77307 11.8945 6.58983 11.4658 6.26517 11.1501C5.94051 10.8343 5.50094 10.6573 5.04287 10.6578C4.81536 10.6567 4.58983 10.6993 4.3792 10.7833C4.16857 10.8674 3.97697 10.9911 3.8153 11.1475C3.65364 11.3039 3.52519 11.4899 3.43713 11.6949C3.34907 11.8999 3.3032 12.1198 3.30215 12.3421ZM11.1147 8.13391C11.1165 8.58147 11.3 9.01005 11.6249 9.32561C11.9497 9.64117 12.3894 9.81795 12.8474 9.81717C13.3053 9.81769 13.7449 9.64079 14.0695 9.32526C14.3941 9.00973 14.5774 8.5813 14.5792 8.13391C14.5776 7.68634 14.3944 7.25767 14.0697 6.94192C13.7451 6.62618 13.3055 6.44915 12.8474 6.44967C12.3895 6.44889 11.9501 6.62553 11.6253 6.94088C11.3004 7.25623 11.1168 7.68455 11.1147 8.13195V8.13391ZM3.30215 8.13391C3.3032 8.35615 3.34905 8.57601 3.43713 8.78092C3.52521 8.98583 3.65375 9.17176 3.81543 9.3281C3.9771 9.48443 4.1687 9.60809 4.37932 9.69201C4.58995 9.77593 4.81541 9.81846 5.04287 9.81717C5.50077 9.81769 5.9403 9.64079 6.26493 9.32526C6.58956 9.00973 6.77281 8.5813 6.77466 8.13391C6.77307 7.68634 6.58983 7.25767 6.26517 6.94192C5.94051 6.62618 5.50094 6.44915 5.04287 6.44967C4.58374 6.44733 4.14247 6.62322 3.81604 6.93868C3.4896 7.25415 3.3048 7.68335 3.30215 8.13195V8.13391ZM7.20834 6.02787C7.21205 6.47633 7.39718 6.90514 7.72333 7.22069C8.04948 7.53624 8.49019 7.7129 8.94919 7.71211C9.40726 7.71263 9.84683 7.53561 10.1715 7.21986C10.4962 6.90412 10.6794 6.47544 10.681 6.02787C10.6791 5.58048 10.4958 5.15205 10.1711 4.83652C9.8465 4.52099 9.40709 4.34409 8.94919 4.34461C8.49071 4.34382 8.0505 4.52008 7.72443 4.835C7.39837 5.14992 7.21284 5.57798 7.20834 6.02592V6.02787ZM17.3126 8.46567L19.0224 6.79415C19.1107 6.70763 19.2156 6.63898 19.3312 6.59214C19.4466 6.5453 19.5705 6.52119 19.6955 6.52119C19.8206 6.52119 19.9444 6.5453 20.0599 6.59214C20.1754 6.63898 20.2803 6.70763 20.3686 6.79415L21.7207 8.11629C21.8093 8.20248 21.8796 8.3049 21.9275 8.41767C21.9754 8.53044 22 8.65134 22 8.77345C22 8.89555 21.9754 9.01646 21.9275 9.12923C21.8796 9.242 21.8093 9.34441 21.7207 9.4306L20.0111 11.1011L17.3126 8.46567Z" fill="#212121"/>
</svg>
