<svg width="230" height="160" viewBox="0 0 230 160" fill="none" xmlns="http://www.w3.org/2000/svg">
<path d="M114.7 146.003C142.7 146.003 165.4 123.303 165.4 95.2031C165.4 67.1031 142.7 44.4031 114.7 44.4031C86.7 44.4031 64 67.1031 64 95.2031C64 123.303 86.7 146.003 114.7 146.003Z" fill="#EBEBEB"/>
<path d="M82.5323 123.716L117.841 112.652V67.29L82.5323 78.2688V123.716Z" fill="#B7BFCD"/>
<path d="M82.5323 123.716L117.841 112.652V67.29L82.5323 78.2688V123.716Z" fill="url(#paint0_linear_875_5001)"/>
<path d="M153.15 123.716L117.841 112.652V67.29L153.15 78.2688V123.716Z" fill="url(#paint1_linear_875_5001)"/>
<path opacity="0.4" d="M153.15 123.716L117.841 112.652V67.29L153.15 78.2688V123.716Z" fill="#D9D2C7"/>
<g filter="url(#filter0_d_875_5001)">
<path d="M117.841 134.865L82.5323 123.801V78.439L117.841 89.5028V134.865Z" fill="url(#paint2_linear_875_5001)"/>
<path d="M117.841 134.865L153.15 123.801V78.439L117.841 89.5028V134.865Z" fill="#EDE5DA"/>
</g>
<path opacity="0.09" d="M106 125.903L82.5323 123.801V78.439L117.841 89.5028L106 125.903Z" fill="url(#paint3_linear_875_5001)"/>
<path opacity="0.2" d="M125.841 118.865L153.15 123.801V78.439L117.841 89.5028L125.841 118.865Z" fill="url(#paint4_linear_875_5001)"/>
<path d="M117.841 67.29L101.24 54.8645L65.3413 66.9496L82.5323 78.2688L117.841 67.29Z" fill="#EDE5DA"/>
<path d="M117.841 67.29L134.442 54.8645L170.341 66.9496L153.15 78.2688L117.841 67.29Z" fill="#EDE5DA"/>
<g filter="url(#filter1_d_875_5001)">
<path d="M82.5323 78.439L117.841 89.5028L100.229 100.737L65.3413 89.1624L82.5323 78.439Z" fill="url(#paint5_linear_875_5001)"/>
</g>
<g filter="url(#filter2_d_875_5001)">
<path d="M153.15 78.439L117.841 89.5028L135.454 100.737L170.341 89.1624L153.15 78.439Z" fill="url(#paint6_linear_875_5001)"/>
</g>
<path fill-rule="evenodd" clip-rule="evenodd" d="M128.631 23.3955C128.861 24.0175 129.082 24.6173 129.297 25.1969L127.421 25.8915C127.207 25.3113 126.984 24.7104 126.755 24.087L128.631 23.3955ZM130.626 28.787C131.103 30.0838 131.538 31.2783 131.932 32.404L130.044 33.0647C129.655 31.9539 129.225 30.7711 128.749 29.4781L130.626 28.787ZM133.141 36.079C133.527 37.3542 133.857 38.588 134.14 39.8502L132.189 40.2878C131.918 39.0797 131.6 37.8934 131.227 36.6582L133.141 36.079ZM134.84 43.692C135.012 44.895 135.152 46.1674 135.268 47.5552L133.275 47.7218C133.162 46.3667 133.025 45.1334 132.86 43.9743L134.84 43.692ZM110.802 53.0752C111.409 52.4212 112.125 51.8953 112.899 51.4983L113.812 53.2781C113.239 53.5719 112.722 53.9526 112.289 54.4129C111.895 54.9006 111.592 55.4531 111.378 56.0472L109.496 55.3695C109.785 54.5673 110.203 53.804 110.761 53.122L110.781 53.098L110.802 53.0752ZM120.412 51.4486C119.638 51.0411 118.799 50.7816 117.942 50.6591L117.659 52.6389C118.314 52.7326 118.938 52.9298 119.499 53.228L119.524 53.2417L119.551 53.2539C120.18 53.5427 120.747 53.9076 121.254 54.3333L122.539 52.8011C121.907 52.2706 121.198 51.8126 120.412 51.4486ZM135.516 51.4088C135.546 52.0287 135.573 52.6716 135.597 53.3398L135.599 53.3889L135.596 53.4379C135.585 53.6164 135.574 53.7972 135.563 53.9797C135.529 54.5569 135.493 55.1513 135.448 55.7445L133.454 55.5921C133.497 55.0169 133.532 54.4455 133.566 53.872C133.576 53.7029 133.586 53.5336 133.597 53.364C133.573 52.7202 133.547 52.1014 133.518 51.505L135.516 51.4088ZM110.075 62.7006C109.682 61.9695 109.393 61.1775 109.213 60.3613L111.166 59.9304C111.31 60.5827 111.54 61.2074 111.847 61.7742L111.862 61.8003L111.874 61.8272C112.097 62.304 112.353 62.7609 112.639 63.1954L110.969 64.2948C110.636 63.789 110.336 63.2568 110.075 62.7006ZM125.489 56.8358C125.82 57.5993 126.072 58.3933 126.248 59.1953C126.422 59.9864 126.531 60.7904 126.586 61.5977L124.591 61.7326C124.542 61.0162 124.445 60.3108 124.294 59.624C124.145 58.9418 123.931 58.271 123.654 57.6307L125.489 56.8358ZM133.766 62.7732C134.161 62.0355 134.459 61.2626 134.688 60.4756L132.768 59.9167C132.568 60.602 132.316 61.2488 131.992 61.849L131.979 61.873L131.968 61.8977C131.752 62.3571 131.495 62.801 131.203 63.2265L132.851 64.3594C133.197 63.8562 133.504 63.3265 133.766 62.7732ZM116.526 69.0566C115.408 68.5439 114.358 67.8726 113.415 67.0657L114.715 65.5461C115.518 66.2329 116.411 66.8036 117.359 67.2386L116.526 69.0566ZM125.815 68.6774C125.674 69.281 125.535 69.8379 125.395 70.3589L123.758 69.9199L123.78 70.0516C123.17 70.1518 122.556 70.2073 121.943 70.2138C121.318 70.2248 120.696 70.1861 120.082 70.1009L120.357 68.1199C120.872 68.1913 121.391 68.2234 121.91 68.2141L121.918 68.2139C122.426 68.2087 122.94 68.1628 123.456 68.0781L123.636 69.1761C123.714 68.8674 123.792 68.5445 123.872 68.2051L123.876 68.1877L123.881 68.1705C124.07 67.474 124.228 66.7614 124.35 66.0407L126.322 66.3736C126.19 67.1557 126.019 67.9264 125.815 68.6774ZM130.359 67.0485C129.418 67.8183 128.372 68.4678 127.27 68.9743L126.435 67.1569C127.385 66.7203 128.286 66.1606 129.093 65.5003L130.359 67.0485ZM124.332 73.7149C123.931 74.7976 123.501 75.8075 123.018 76.9354L121.179 76.1476C121.664 75.0162 122.075 74.0498 122.456 73.0205L124.332 73.7149ZM121.695 80.0786C121.32 81.0004 120.91 82.0416 120.457 83.252L118.584 82.551C119.044 81.3217 119.461 80.2629 119.842 79.3248L121.695 80.0786ZM119.302 86.4518C119.123 86.9672 118.937 87.507 118.746 88.0733L116.851 87.4323C117.045 86.8603 117.232 86.3147 117.414 85.7934L119.302 86.4518Z" fill="#B7B4AF"/>
<path d="M133.713 16.6356C133.702 18.6096 131.865 19.8183 129.535 19.188C127.082 18.7699 125.346 18.339 125.235 16.5772C125.291 14.7704 127.262 14.0632 129.57 13.2661C132.336 12.1668 133.557 14.7066 133.713 16.6356Z" fill="#B7B4AF"/>
<path d="M117.864 22.672C119.107 23.9516 121.728 24.3247 123.005 22.3701C124.405 20.2034 125.604 18.6281 124.316 17.1813C123.073 15.9017 121.863 16.7632 119.097 17.8625C116.879 18.994 116.408 21.2702 117.864 22.672Z" fill="#B7B4AF"/>
<path d="M123.6 14.5067C124.731 14.0245 126.086 14.3782 126.691 15.2913C126.948 15.5807 127.251 16.0372 127.34 16.3716C128.303 18.6221 128 20.8533 126.701 21.3804C125.279 22.1198 123.319 20.8529 122.569 18.7246C122.39 18.0559 122.3 17.7215 122.166 17.22C122.02 16.0047 122.468 14.9888 123.6 14.5067Z" fill="#777777"/>
<path d="M159.11 57.7377C161.222 57.7377 162.934 56.0238 162.934 53.9097C162.934 51.7955 161.222 50.0817 159.11 50.0817C156.997 50.0817 155.285 51.7955 155.285 53.9097C155.285 56.0238 156.997 57.7377 159.11 57.7377Z" fill="#EDE5DA"/>
<path d="M57.5162 78.4388C58.9058 78.4388 60.0324 77.3113 60.0324 75.9204C60.0324 74.5295 58.9058 73.402 57.5162 73.402C56.1265 73.402 55 74.5295 55 75.9204C55 77.3113 56.1265 78.4388 57.5162 78.4388Z" fill="#EDE5DA"/>
<path d="M69.0825 123.715C70.4722 123.715 71.5987 122.588 71.5987 121.197C71.5987 119.806 70.4722 118.679 69.0825 118.679C67.6929 118.679 66.5663 119.806 66.5663 121.197C66.5663 122.588 67.6929 123.715 69.0825 123.715Z" fill="#EDE5DA"/>
<path d="M71.5987 50.7346H69.4087V48.5446H67.5315V50.7346H65.3414V52.6744H67.5315V54.8644H69.4087V52.6744H71.5987V50.7346Z" fill="#D9D2C7"/>
<path d="M76.4096 105.682H74.2196V103.492H72.3424V105.682H70.1523V107.622H72.3424V109.812H74.2196V107.622H76.4096V105.682Z" fill="#D9D2C7"/>
<path d="M172.147 105.806L169.468 104.453L170.821 101.773L168.524 100.614L167.171 103.293L164.491 101.94L163.293 104.314L165.973 105.667L164.62 108.346L166.917 109.506L168.269 106.826L170.949 108.179L172.147 105.806Z" fill="#D9D2C7"/>
<defs>
<filter id="filter0_d_875_5001" x="70.5323" y="72.439" width="94.6179" height="80.4255" filterUnits="userSpaceOnUse" color-interpolation-filters="sRGB">
<feFlood flood-opacity="0" result="BackgroundImageFix"/>
<feColorMatrix in="SourceAlpha" type="matrix" values="0 0 0 0 0 0 0 0 0 0 0 0 0 0 0 0 0 0 127 0" result="hardAlpha"/>
<feOffset dy="6"/>
<feGaussianBlur stdDeviation="6"/>
<feComposite in2="hardAlpha" operator="out"/>
<feColorMatrix type="matrix" values="0 0 0 0 0.576471 0 0 0 0 0.501961 0 0 0 0 0.396078 0 0 0 0.24 0"/>
<feBlend mode="normal" in2="BackgroundImageFix" result="effect1_dropShadow_875_5001"/>
<feBlend mode="normal" in="SourceGraphic" in2="effect1_dropShadow_875_5001" result="shape"/>
</filter>
<filter id="filter1_d_875_5001" x="49.3413" y="68.439" width="84.5" height="54.2979" filterUnits="userSpaceOnUse" color-interpolation-filters="sRGB">
<feFlood flood-opacity="0" result="BackgroundImageFix"/>
<feColorMatrix in="SourceAlpha" type="matrix" values="0 0 0 0 0 0 0 0 0 0 0 0 0 0 0 0 0 0 127 0" result="hardAlpha"/>
<feOffset dy="6"/>
<feGaussianBlur stdDeviation="8"/>
<feColorMatrix type="matrix" values="0 0 0 0 0.576471 0 0 0 0 0.501961 0 0 0 0 0.396078 0 0 0 0.37 0"/>
<feBlend mode="normal" in2="BackgroundImageFix" result="effect1_dropShadow_875_5001"/>
<feBlend mode="normal" in="SourceGraphic" in2="effect1_dropShadow_875_5001" result="shape"/>
</filter>
<filter id="filter2_d_875_5001" x="101.841" y="68.439" width="84.5" height="54.2979" filterUnits="userSpaceOnUse" color-interpolation-filters="sRGB">
<feFlood flood-opacity="0" result="BackgroundImageFix"/>
<feColorMatrix in="SourceAlpha" type="matrix" values="0 0 0 0 0 0 0 0 0 0 0 0 0 0 0 0 0 0 127 0" result="hardAlpha"/>
<feOffset dy="6"/>
<feGaussianBlur stdDeviation="8"/>
<feColorMatrix type="matrix" values="0 0 0 0 0.576471 0 0 0 0 0.501961 0 0 0 0 0.396078 0 0 0 0.37 0"/>
<feBlend mode="normal" in2="BackgroundImageFix" result="effect1_dropShadow_875_5001"/>
<feBlend mode="normal" in="SourceGraphic" in2="effect1_dropShadow_875_5001" result="shape"/>
</filter>
<linearGradient id="paint0_linear_875_5001" x1="117.847" y1="69.2502" x2="117.847" y2="100.921" gradientUnits="userSpaceOnUse">
<stop stop-color="#CAC2B4"/>
<stop offset="1" stop-color="#998E7B"/>
</linearGradient>
<linearGradient id="paint1_linear_875_5001" x1="117.847" y1="69.2502" x2="117.847" y2="100.921" gradientUnits="userSpaceOnUse">
<stop stop-color="#CAC2B4"/>
<stop offset="1" stop-color="#998E7B"/>
</linearGradient>
<linearGradient id="paint2_linear_875_5001" x1="117.818" y1="77.1338" x2="117.818" y2="135.473" gradientUnits="userSpaceOnUse">
<stop stop-color="#FDFEFF"/>
<stop offset="0.9964" stop-color="#F5F2EC"/>
</linearGradient>
<linearGradient id="paint3_linear_875_5001" x1="90.4484" y1="109.484" x2="98.931" y2="85.5261" gradientUnits="userSpaceOnUse">
<stop offset="0.00289017" stop-color="#938065" stop-opacity="0"/>
<stop offset="1" stop-color="#463B2B"/>
</linearGradient>
<linearGradient id="paint4_linear_875_5001" x1="136.897" y1="116.029" x2="137.564" y2="85.6261" gradientUnits="userSpaceOnUse">
<stop offset="0.00289017" stop-color="#938065" stop-opacity="0"/>
<stop offset="1" stop-color="#938065"/>
</linearGradient>
<linearGradient id="paint5_linear_875_5001" x1="91.5742" y1="77.9232" x2="91.5742" y2="100.977" gradientUnits="userSpaceOnUse">
<stop stop-color="#FDFEFF"/>
<stop offset="0.9964" stop-color="#F5F2EC"/>
</linearGradient>
<linearGradient id="paint6_linear_875_5001" x1="144.074" y1="77.9232" x2="144.074" y2="100.977" gradientUnits="userSpaceOnUse">
<stop stop-color="#FDFEFF"/>
<stop offset="0.9964" stop-color="#F5F2EC"/>
</linearGradient>
</defs>
</svg>
