<svg xmlns="http://www.w3.org/2000/svg" width="160" height="160" fill="none" viewBox="0 0 160 160">
  <path fill="#242424" d="M79.7 146.6c28 0 50.7-22.7 50.7-50.8 0-28.1-22.7-50.8-50.7-50.8C51.7 45 29 67.7 29 95.8c0 28.1 22.7 50.8 50.7 50.8Z"/>
  <path fill="#B7BFCD" d="m47.532 124.312 35.31-11.063V67.887l-35.31 10.979v45.446Z"/>
  <path fill="#6D7C9A" d="m118.15 124.312-35.309-11.063V67.887l35.309 10.979v45.446Z" opacity=".4"/>
  <path fill="url(#a)" d="m47.532 124.312 35.31-11.063V67.887l-35.31 10.979v45.446Z"/>
  <path fill="url(#b)" d="m118.15 124.312-35.309-11.063V67.887l35.309 10.979v45.446Z"/>
  <path fill="url(#c)" d="m118.15 124.312-35.309-11.063V67.887l35.309 10.979v45.446Z"/>
  <path fill="url(#d)" d="m82.841 135.462-35.309-11.064V79.036L82.842 90.1v45.362Z"/>
  <path fill="#3A3A3A" d="m82.841 135.462 35.309-11.064V79.036L82.841 90.1v45.362Z"/>
  <path fill="url(#e)" d="m74.841 127.461-27.309-3.063V79.036L82.842 90.1l-8 37.361Z" opacity=".29"/>
  <path fill="url(#f)" d="m90.841 119.462 27.309 4.936V79.036L82.841 90.1l8 29.362Z" opacity=".29"/>
  <path fill="#4F4F4F" d="m82.841 67.887-16.6-12.426-35.9 12.085 17.191 11.32 35.31-10.979Z"/>
  <path fill="#4F4F4F" d="m82.841 67.887 16.601-12.426 35.899 12.085-17.191 11.32-35.309-10.979ZM47.532 79.036 82.842 90.1l-17.613 11.234-34.888-11.575 17.191-10.723Z"/>
  <path fill="#4F4F4F" d="M118.15 79.036 82.841 90.1l17.613 11.234 34.887-11.575-17.191-10.723Z"/>
  <path fill="#777" fill-rule="evenodd" d="M93.895 23.511c.227.616.448 1.209.66 1.782l-1.874.697-.662-1.786 1.876-.693Zm1.98 5.334c.473 1.283.904 2.464 1.294 3.578l-1.887.662a234.018 234.018 0 0 0-1.284-3.548l1.876-.692Zm2.494 7.215a51.67 51.67 0 0 1 .989 3.733l-1.952.437a49.752 49.752 0 0 0-.951-3.59l1.914-.58Zm1.678 7.537c.168 1.192.306 2.451.418 3.825l-1.993.163a63.304 63.304 0 0 0-.405-3.708l1.98-.28Zm-24.045 9.338A7.593 7.593 0 0 1 78.1 51.37l.909 1.782a5.602 5.602 0 0 0-1.527 1.129 5.572 5.572 0 0 0-.912 1.613l-1.877-.689a7.569 7.569 0 0 1 1.268-2.223l.02-.023.02-.023Zm9.6-1.634a7.62 7.62 0 0 0-2.47-.776l-.275 1.982a5.57 5.57 0 0 1 1.84.579l.026.013.027.012a7.486 7.486 0 0 1 1.693 1.06l1.276-1.54a9.48 9.48 0 0 0-2.118-1.33Zm15.1-.064c.028.614.054 1.25.076 1.911l.002.05-.003.05a76.97 76.97 0 0 0-.034.536c-.037.572-.074 1.162-.121 1.75l-1.993-.159c.045-.57.08-1.137.117-1.705.01-.167.02-.335.032-.503-.022-.636-.047-1.248-.074-1.838l1.998-.092ZM75.25 62.483a8.916 8.916 0 0 1-.858-2.323l1.954-.429c.141.645.37 1.262.674 1.822l.015.026.013.028c.221.472.477.925.763 1.355l-1.667 1.106a12.593 12.593 0 0 1-.894-1.584Zm15.414-5.858c.33.757.581 1.546.756 2.342.171.785.28 1.582.332 2.383l-1.996.13a14.043 14.043 0 0 0-.29-2.085 10.664 10.664 0 0 0-.635-1.972l1.833-.798Zm8.258 5.875c.396-.73.696-1.495.927-2.275l-1.917-.568a9.78 9.78 0 0 1-.779 1.91l-.013.024-.011.024a9.375 9.375 0 0 1-.771 1.322L98 64.079c.348-.5.658-1.028.922-1.579Zm-17.22 6.274a13.27 13.27 0 0 1-3.108-1.96l1.29-1.528a11.285 11.285 0 0 0 2.64 1.664l-.822 1.824Zm9.26-.409a52.53 52.53 0 0 1-.425 1.668l-1.635-.447.024.146c-.609.1-1.222.157-1.833.165-.62.013-1.239-.024-1.85-.105l.267-1.983c.512.069 1.029.1 1.546.089h.008a10.236 10.236 0 0 0 1.536-.139l.18 1.095c.08-.308.16-.63.24-.97l.005-.017.005-.017c.19-.69.35-1.394.474-2.107l1.97.341a23.96 23.96 0 0 1-.512 2.281Zm4.535-1.615a14.472 14.472 0 0 1-3.089 1.91l-.83-1.819c.95-.434 1.852-.99 2.66-1.645l1.26 1.554Zm-6.032 6.611c-.403 1.073-.836 2.074-1.322 3.192l-1.834-.798c.488-1.12.9-2.078 1.284-3.098l1.872.704Zm-2.65 6.306c-.378.913-.79 1.945-1.246 3.144l-1.87-.71a119.8 119.8 0 0 1 1.267-3.198l1.848.764Zm-2.408 6.315c-.181.511-.368 1.046-.56 1.608l-1.892-.65c.195-.568.384-1.109.567-1.625l1.885.667Z" clip-rule="evenodd"/>
  <path fill="#CBCBCB" d="M98.713 16.233c-.011 1.973-1.848 3.182-4.178 2.552-2.452-.418-4.188-.85-4.3-2.61.056-1.808 2.028-2.515 4.335-3.312 2.766-1.1 3.987 1.44 4.143 3.37Zm-15.849 6.036c1.243 1.28 3.864 1.653 5.141-.302 1.4-2.167 2.6-3.742 1.311-5.189-1.243-1.28-2.452-.418-5.219.681-2.218 1.132-2.688 3.408-1.233 4.81Z"/>
  <path fill="#777" d="M88.6 14.104c1.131-.483 2.486-.129 3.091.784.258.29.56.746.65 1.08.962 2.251.66 4.482-.64 5.01-1.422.739-3.382-.528-4.132-2.657l-.403-1.504c-.145-1.215.303-2.231 1.434-2.713Z"/>
  <path fill="#5C5C5C" d="M124.11 57.334a3.826 3.826 0 0 0 3.824-3.828 3.826 3.826 0 0 0-3.824-3.828 3.826 3.826 0 0 0-3.825 3.829 3.826 3.826 0 0 0 3.825 3.828ZM22.516 78.036a2.517 2.517 0 0 0 2.516-2.519 2.517 2.517 0 1 0-2.516 2.519Zm11.567 45.276a2.517 2.517 0 0 0 2.516-2.518 2.518 2.518 0 0 0-2.516-2.519 2.518 2.518 0 0 0 0 5.037Z"/>
  <path fill="#777" d="M36.599 50.331h-2.19v-2.19h-1.877v2.19h-2.19v1.94h2.19v2.19h1.877v-2.19h2.19v-1.94Zm4.811 54.947h-2.19v-2.19h-1.878v2.19h-2.19v1.94h2.19v2.19h1.878v-2.19h2.19v-1.94Zm95.737.125-2.679-1.353 1.352-2.68-2.296-1.159-1.353 2.679-2.68-1.353-1.198 2.374 2.68 1.352-1.353 2.68 2.296 1.16 1.353-2.68 2.68 1.353 1.198-2.373Z"/>
  <defs>
    <linearGradient id="a" x1="82.841" x2="82.841" y1="67.887" y2="124.312" gradientUnits="userSpaceOnUse">
      <stop stop-color="#414141"/>
      <stop offset="1" stop-color="#3B3B3B"/>
    </linearGradient>
    <linearGradient id="b" x1="82.841" x2="82.841" y1="67.887" y2="124.312" gradientUnits="userSpaceOnUse">
      <stop stop-color="#414141"/>
      <stop offset="1" stop-color="#3B3B3B"/>
    </linearGradient>
    <linearGradient id="c" x1="100.496" x2="100.496" y1="67.887" y2="124.312" gradientUnits="userSpaceOnUse">
      <stop stop-color="#363636"/>
      <stop offset="1" stop-color="#1D1D1D"/>
    </linearGradient>
    <linearGradient id="d" x1="65.175" x2="65.175" y1="77.731" y2="136.07" gradientUnits="userSpaceOnUse">
      <stop stop-color="#5C5C5C"/>
      <stop offset=".996" stop-color="#4D4D4D"/>
    </linearGradient>
    <linearGradient id="e" x1="54.5" x2="60.729" y1="111" y2="92.762" gradientUnits="userSpaceOnUse">
      <stop offset=".003" stop-color="#262626" stop-opacity="0"/>
      <stop offset="1" stop-opacity=".79"/>
    </linearGradient>
    <linearGradient id="f" x1="90.757" x2="98.304" y1="108.117" y2="85.364" gradientUnits="userSpaceOnUse">
      <stop offset=".003" stop-color="#010101" stop-opacity="0"/>
      <stop offset="1"/>
    </linearGradient>
  </defs>
</svg>
