<svg width="230" height="160" viewBox="0 0 230 160" fill="none" xmlns="http://www.w3.org/2000/svg">
<path d="M114.7 146.6C142.7 146.6 165.4 123.9 165.4 95.8001C165.4 67.7001 142.7 45.0001 114.7 45.0001C86.7 45.0001 64 67.7001 64 95.8001C64 123.9 86.7 146.6 114.7 146.6Z" fill="#242424"/>
<path d="M82.5323 124.312L117.841 113.249V67.887L82.5323 78.8657V124.312Z" fill="#B7BFCD"/>
<path opacity="0.4" d="M153.15 124.312L117.841 113.249V67.887L153.15 78.8657V124.312Z" fill="#6D7C9A"/>
<path d="M82.5323 124.312L117.841 113.249V67.887L82.5323 78.8657V124.312Z" fill="url(#paint0_linear_875_5003)"/>
<path d="M153.15 124.312L117.841 113.249V67.887L153.15 78.8657V124.312Z" fill="url(#paint1_linear_875_5003)"/>
<path d="M153.15 124.312L117.841 113.249V67.887L153.15 78.8657V124.312Z" fill="url(#paint2_linear_875_5003)"/>
<path d="M117.841 135.462L82.5322 124.398V79.0361L117.841 90.1V135.462Z" fill="url(#paint3_linear_875_5003)"/>
<path d="M117.841 135.462L153.15 124.398V79.0361L117.841 90.1V135.462Z" fill="#3A3A3A"/>
<path opacity="0.29" d="M109.841 127.461L82.5323 124.398V79.0359L117.841 90.0997L109.841 127.461Z" fill="url(#paint4_linear_875_5003)"/>
<path opacity="0.29" d="M125.841 119.462L153.15 124.398V79.0361L117.841 90.1L125.841 119.462Z" fill="url(#paint5_linear_875_5003)"/>
<path d="M117.841 67.887L101.24 55.4614L65.3413 67.5465L82.5323 78.8657L117.841 67.887Z" fill="#4F4F4F"/>
<path d="M117.841 67.887L134.442 55.4614L170.341 67.5465L153.15 78.8657L117.841 67.887Z" fill="#4F4F4F"/>
<path d="M82.5323 79.0361L117.841 90.1L100.229 101.334L65.3413 89.7595L82.5323 79.0361Z" fill="#4F4F4F"/>
<path d="M153.15 79.0361L117.841 90.1L135.454 101.334L170.341 89.7595L153.15 79.0361Z" fill="#4F4F4F"/>
<path fill-rule="evenodd" clip-rule="evenodd" d="M128.895 23.511C129.123 24.1263 129.343 24.7196 129.556 25.293L127.681 25.9894C127.468 25.4155 127.247 24.8211 127.019 24.2043L128.895 23.511ZM130.874 28.8444C131.348 30.1274 131.779 31.3091 132.17 32.423L130.282 33.0852C129.897 31.9864 129.47 30.8164 128.998 29.5373L130.874 28.8444ZM133.369 36.0599C133.751 37.322 134.078 38.5435 134.358 39.7934L132.406 40.23C132.139 39.0348 131.825 37.8615 131.455 36.6397L133.369 36.0599ZM135.047 43.5974C135.216 44.7884 135.353 46.0482 135.465 47.4222L133.472 47.585C133.362 46.244 133.229 45.0238 133.067 43.8771L135.047 43.5974ZM111.002 52.9349C111.61 52.2859 112.326 51.7637 113.1 51.369L114.009 53.1508C113.434 53.4437 112.916 53.8226 112.482 54.2798C112.088 54.7621 111.785 55.3074 111.57 55.8929L109.693 55.2039C109.984 54.4106 110.403 53.6559 110.961 52.9813L110.981 52.9575L111.002 52.9349ZM120.601 51.3011C119.828 50.8988 118.988 50.6441 118.131 50.5253L117.857 52.5064C118.513 52.5973 119.138 52.7912 119.697 53.0853L119.723 53.0989L119.75 53.1109C120.375 53.3942 120.939 53.7525 121.443 54.1705L122.719 52.631C122.09 52.1087 121.384 51.6584 120.601 51.3011ZM135.702 51.2369C135.73 51.8505 135.756 52.4868 135.778 53.1482L135.78 53.1977L135.777 53.2472C135.765 53.4239 135.754 53.6029 135.743 53.7836C135.707 54.356 135.669 54.9456 135.622 55.5341L133.629 55.375C133.674 54.8047 133.71 54.2383 133.746 53.6697C133.756 53.5025 133.767 53.3351 133.778 53.1673C133.756 52.5305 133.731 51.9185 133.704 51.3286L135.702 51.2369ZM110.25 62.4834C109.858 61.7578 109.571 60.9711 109.393 60.1601L111.346 59.7312C111.488 60.3761 111.716 60.9933 112.021 61.553L112.035 61.5793L112.048 61.6064C112.27 62.0792 112.525 62.5319 112.811 62.9623L111.144 64.0681C110.811 63.5656 110.511 63.0366 110.25 62.4834ZM125.665 56.6245C125.994 57.3822 126.245 58.1705 126.42 58.967C126.592 59.7517 126.699 60.5493 126.752 61.3501L124.756 61.4808C124.71 60.7717 124.615 60.0739 124.466 59.3948C124.318 58.7196 124.106 58.056 123.831 57.423L125.665 56.6245ZM133.923 62.5002C134.318 61.7697 134.618 61.0044 134.849 60.2253L132.932 59.6567C132.731 60.3338 132.477 60.9731 132.154 61.5668L132.14 61.5907L132.129 61.6154C131.911 62.072 131.653 62.5136 131.358 62.9369L133 64.0793C133.348 63.5784 133.658 63.0511 133.923 62.5002ZM116.702 68.7735C115.585 68.2703 114.536 67.6094 113.594 66.8135L114.885 65.2857C115.685 65.962 116.576 66.5232 117.524 66.95L116.702 68.7735ZM125.962 68.3651C125.82 68.9639 125.678 69.5162 125.537 70.0331L123.902 69.5862L123.926 69.7323C123.318 69.8327 122.704 69.8891 122.093 69.8972C121.472 69.9096 120.854 69.8733 120.244 69.7915L120.51 67.8092C121.022 67.8779 121.539 67.908 122.056 67.8975L122.064 67.8974C122.571 67.8909 123.085 67.8441 123.6 67.759L123.781 68.8542C123.86 68.5459 123.94 68.2233 124.021 67.8842L124.025 67.8667L124.03 67.8494C124.22 67.1605 124.381 66.4557 124.504 65.7432L126.475 66.0842C126.341 66.8584 126.167 67.6215 125.962 68.3651ZM130.498 66.7499C129.556 67.5129 128.51 68.1572 127.408 68.6603L126.578 66.8409C127.529 66.4067 128.43 65.8508 129.239 65.1957L130.498 66.7499ZM124.465 73.3612C124.062 74.434 123.629 75.4349 123.144 76.5526L121.309 75.7553C121.797 74.6341 122.21 73.6766 122.593 72.6573L124.465 73.3612ZM121.814 79.6667C121.437 80.5801 121.025 81.6117 120.569 82.8111L118.7 82.1007C119.162 80.8824 119.582 79.8331 119.966 78.9034L121.814 79.6667ZM119.407 85.9823C119.226 86.4931 119.039 87.0282 118.846 87.5895L116.955 86.9391C117.15 86.3722 117.339 85.8313 117.522 85.3145L119.407 85.9823Z" fill="#777777"/>
<path d="M133.713 16.2325C133.702 18.2065 131.865 19.4152 129.535 18.7849C127.083 18.3668 125.347 17.9359 125.235 16.1741C125.291 14.3673 127.262 13.6601 129.57 12.863C132.336 11.7637 133.557 14.3036 133.713 16.2325Z" fill="#CBCBCB"/>
<path d="M117.864 22.2689C119.107 23.5485 121.728 23.9217 123.005 21.9671C124.406 19.8003 125.604 18.225 124.316 16.7782C123.073 15.4986 121.864 16.3601 119.097 17.4594C116.879 18.5909 116.409 20.8671 117.864 22.2689Z" fill="#CBCBCB"/>
<path d="M123.6 14.1036C124.731 13.6214 126.086 13.9752 126.691 14.8882C126.949 15.1776 127.251 15.6342 127.341 15.9685C128.303 18.219 128.001 20.4502 126.701 20.9774C125.279 21.7167 123.319 20.4499 122.569 18.3215C122.39 17.6528 122.3 17.3184 122.166 16.8169C122.021 15.6016 122.469 14.5857 123.6 14.1036Z" fill="#777777"/>
<path d="M159.11 57.3345C161.222 57.3345 162.934 55.6206 162.934 53.5065C162.934 51.3923 161.222 49.6785 159.11 49.6785C156.997 49.6785 155.285 51.3923 155.285 53.5065C155.285 55.6206 156.997 57.3345 159.11 57.3345Z" fill="#5C5C5C"/>
<path d="M57.5162 78.0356C58.9058 78.0356 60.0324 76.9081 60.0324 75.5172C60.0324 74.1263 58.9058 72.9988 57.5162 72.9988C56.1265 72.9988 55 74.1263 55 75.5172C55 76.9081 56.1265 78.0356 57.5162 78.0356Z" fill="#5C5C5C"/>
<path d="M69.0825 123.312C70.4722 123.312 71.5987 122.185 71.5987 120.794C71.5987 119.403 70.4722 118.275 69.0825 118.275C67.6929 118.275 66.5663 119.403 66.5663 120.794C66.5663 122.185 67.6929 123.312 69.0825 123.312Z" fill="#5C5C5C"/>
<path d="M71.5987 50.3314H69.4087V48.1414H67.5315V50.3314H65.3414V52.2712H67.5315V54.4612H69.4087V52.2712H71.5987V50.3314Z" fill="#777777"/>
<path d="M76.4096 105.278H74.2196V103.088H72.3424V105.278H70.1523V107.218H72.3424V109.408H74.2196V107.218H76.4096V105.278Z" fill="#777777"/>
<path d="M172.147 105.403L169.468 104.05L170.82 101.37L168.524 100.211L167.171 102.89L164.491 101.537L163.293 103.911L165.973 105.263L164.62 107.943L166.916 109.103L168.269 106.423L170.949 107.776L172.147 105.403Z" fill="#777777"/>
<defs>
<linearGradient id="paint0_linear_875_5003" x1="117.841" y1="67.887" x2="117.841" y2="124.312" gradientUnits="userSpaceOnUse">
<stop stop-color="#414141"/>
<stop offset="1" stop-color="#3B3B3B"/>
</linearGradient>
<linearGradient id="paint1_linear_875_5003" x1="117.841" y1="67.887" x2="117.841" y2="124.312" gradientUnits="userSpaceOnUse">
<stop stop-color="#414141"/>
<stop offset="1" stop-color="#3B3B3B"/>
</linearGradient>
<linearGradient id="paint2_linear_875_5003" x1="135.496" y1="67.887" x2="135.496" y2="124.312" gradientUnits="userSpaceOnUse">
<stop stop-color="#363636"/>
<stop offset="1" stop-color="#1D1D1D"/>
</linearGradient>
<linearGradient id="paint3_linear_875_5003" x1="100.175" y1="77.731" x2="100.175" y2="136.07" gradientUnits="userSpaceOnUse">
<stop stop-color="#5C5C5C"/>
<stop offset="0.9964" stop-color="#4D4D4D"/>
</linearGradient>
<linearGradient id="paint4_linear_875_5003" x1="89.5001" y1="111" x2="95.7293" y2="92.7616" gradientUnits="userSpaceOnUse">
<stop offset="0.00289017" stop-color="#262626" stop-opacity="0"/>
<stop offset="1" stop-opacity="0.79"/>
</linearGradient>
<linearGradient id="paint5_linear_875_5003" x1="125.757" y1="108.117" x2="133.304" y2="85.3643" gradientUnits="userSpaceOnUse">
<stop offset="0.00289017" stop-color="#010101" stop-opacity="0"/>
<stop offset="1"/>
</linearGradient>
</defs>
</svg>
