<svg width="20" height="20" viewBox="0 0 20 20" fill="none" xmlns="http://www.w3.org/2000/svg">
<path d="M11.5 7C11.5 7.82843 10.8284 8.5 10 8.5C9.17157 8.5 8.5 7.82843 8.5 7C8.5 6.17157 9.17157 5.5 10 5.5C10.8284 5.5 11.5 6.17157 11.5 7ZM10.5 7C10.5 6.72386 10.2761 6.5 10 6.5C9.72386 6.5 9.5 6.72386 9.5 7C9.5 7.27614 9.72386 7.5 10 7.5C10.2761 7.5 10.5 7.27614 10.5 7Z" fill="#212121"/>
<path d="M7 2C5.34315 2 4 3.34315 4 5V15C4 16.6569 5.34315 18 7 18H13C14.6569 18 16 16.6569 16 15V5C16 3.34315 14.6569 2 13 2H7ZM7.5 14.5C7.5 14.2239 7.72386 14 8 14L12 14C12.2761 14 12.5 14.2239 12.5 14.5C12.5 14.7761 12.2761 15 12 15L8 15C7.72386 15 7.5 14.7761 7.5 14.5ZM8 11.5L12 11.5C12.2761 11.5 12.5 11.7239 12.5 12C12.5 12.2761 12.2761 12.5 12 12.5L8 12.5C7.72386 12.5 7.5 12.2761 7.5 12C7.5 11.7239 7.72386 11.5 8 11.5ZM12.1504 5C12.6015 5 12.9506 5.39539 12.8946 5.84303L12.5821 8.34303C12.5352 8.71835 12.2162 9 11.8379 9H8.16209C7.78384 9 7.46479 8.71835 7.41788 8.34303L7.10538 5.84303C7.04942 5.39539 7.39846 5 7.84959 5H12.1504Z" fill="#212121"/>
</svg>
