<svg width="28" height="28" viewBox="0 0 28 28" fill="none" xmlns="http://www.w3.org/2000/svg">
<path d="M10 20.75C10 20.3358 10.3358 20 10.75 20H17.25C17.6642 20 18 20.3358 18 20.75C18 21.1642 17.6642 21.5 17.25 21.5H10.75C10.3358 21.5 10 21.1642 10 20.75Z" fill="#212121"/>
<path d="M10.75 16.5C10.3358 16.5 10 16.8358 10 17.25C10 17.6642 10.3358 18 10.75 18H17.25C17.6642 18 18 17.6642 18 17.25C18 16.8358 17.6642 16.5 17.25 16.5L10.75 16.5Z" fill="#212121"/>
<path d="M14 11C15.1046 11 16 10.1046 16 9C16 7.89543 15.1046 7 14 7C12.8954 7 12 7.89543 12 9C12 10.1046 12.8954 11 14 11Z" fill="#212121"/>
<path d="M7.50213 7.3182C7.30849 5.96272 8.36028 4.75 9.72951 4.75H18.2705C19.6397 4.75 20.6915 5.96272 20.4979 7.3182L19.9264 11.3182C19.7681 12.4267 18.8188 13.25 17.6991 13.25H10.3009C9.18123 13.25 8.23191 12.4267 8.07356 11.3182L7.50213 7.3182ZM9.72951 6.25C9.2731 6.25 8.92251 6.65424 8.98705 7.10606L9.55848 11.1061C9.61126 11.4756 9.92771 11.75 10.3009 11.75H17.6991C18.0723 11.75 18.3887 11.4756 18.4415 11.1061L19.0129 7.10607C19.0775 6.65424 18.7269 6.25 18.2705 6.25H9.72951Z" fill="#212121"/>
<path d="M4.25 5.75C4.25 3.67894 5.92893 2 8 2H20C22.0711 2 23.75 3.67893 23.75 5.75V22.2497C23.75 24.3207 22.0711 25.9997 20 25.9997H8C5.92893 25.9997 4.25 24.3207 4.25 22.2497V5.75ZM8 3.5C6.75736 3.5 5.75 4.50736 5.75 5.75V22.2497C5.75 23.4923 6.75736 24.4997 8 24.4997H20C21.2426 24.4997 22.25 23.4923 22.25 22.2497V5.75C22.25 4.50736 21.2426 3.5 20 3.5H8Z" fill="#212121"/>
</svg>
