<svg width="16" height="16" viewBox="0 0 16 16" fill="none" xmlns="http://www.w3.org/2000/svg">
<path d="M6 11.5C6 11.2239 6.22386 11 6.5 11H9.5C9.77614 11 10 11.2239 10 11.5C10 11.7761 9.77614 12 9.5 12H6.5C6.22386 12 6 11.7761 6 11.5Z" fill="#212121"/>
<path d="M6.5 9C6.22386 9 6 9.22386 6 9.5C6 9.77614 6.22386 10 6.5 10H9.5C9.77614 10 10 9.77614 10 9.5C10 9.22386 9.77614 9 9.5 9H6.5Z" fill="#212121"/>
<path d="M8.745 5.25C8.745 5.66421 8.40921 6 7.995 6C7.58078 6 7.245 5.66421 7.245 5.25C7.245 4.83579 7.58078 4.5 7.995 4.5C8.40921 4.5 8.745 4.83579 8.745 5.25Z" fill="#212121"/>
<path d="M5.83471 3C5.22052 3 4.75149 3.5485 4.84683 4.15524L5.23969 6.65524C5.31612 7.14162 5.73521 7.5 6.22756 7.5H9.77244C10.2648 7.5 10.6839 7.14162 10.7603 6.65524L11.1532 4.15524C11.2485 3.5485 10.7795 3 10.1653 3H5.83471ZM5.83471 4L10.1653 4L9.77244 6.5H6.22756L5.83471 4Z" fill="#212121"/>
<path d="M2.75 3.5C2.75 2.11929 3.86929 1 5.25 1H10.75C12.1307 1 13.25 2.11929 13.25 3.5V12.5C13.25 13.8807 12.1307 15 10.75 15H5.25C3.86929 15 2.75 13.8807 2.75 12.5V3.5ZM5.25 2C4.42157 2 3.75 2.67157 3.75 3.5V12.5C3.75 13.3284 4.42157 14 5.25 14H10.75C11.5784 14 12.25 13.3284 12.25 12.5V3.5C12.25 2.67157 11.5784 2 10.75 2H5.25Z" fill="#212121"/>
</svg>
