<svg width="48" height="48" viewBox="0 0 48 48" fill="none" xmlns="http://www.w3.org/2000/svg">
<path d="M28.5 15.75C28.5 18.2353 26.4853 20.25 24 20.25C21.5147 20.25 19.5 18.2353 19.5 15.75C19.5 13.2647 21.5147 11.25 24 11.25C26.4853 11.25 28.5 13.2647 28.5 15.75ZM26 15.75C26 14.6454 25.1046 13.75 24 13.75C22.8954 13.75 22 14.6454 22 15.75C22 16.8546 22.8954 17.75 24 17.75C25.1046 17.75 26 16.8546 26 15.75Z" fill="#212121"/>
<path d="M14.25 4C10.7982 4 8 6.79822 8 10.25V37.75C8 41.2018 10.7982 44 14.25 44H33.75C37.2018 44 40 41.2018 40 37.75V10.25C40 6.79822 37.2018 4 33.75 4H14.25ZM17.5 28.75C17.5 28.0596 18.0596 27.5 18.75 27.5H29.25C29.9404 27.5 30.5 28.0596 30.5 28.75C30.5 29.4404 29.9404 30 29.25 30H18.75C18.0596 30 17.5 29.4404 17.5 28.75ZM18.75 33H29.25C29.9404 33 30.5 33.5596 30.5 34.25C30.5 34.9404 29.9404 35.5 29.25 35.5H18.75C18.0596 35.5 17.5 34.9404 17.5 34.25C17.5 33.5596 18.0596 33 18.75 33ZM30.7094 9.75C32.4755 9.75 33.8594 11.268 33.6966 13.0266L33.1411 19.0266C32.9982 20.5697 31.7035 21.75 30.1538 21.75H17.8462C16.2965 21.75 15.0018 20.5697 14.8589 19.0266L14.3034 13.0266C14.1406 11.268 15.5245 9.75 17.2906 9.75H30.7094Z" fill="#212121"/>
</svg>
