<svg width="28" height="28" viewBox="0 0 28 28" fill="none" xmlns="http://www.w3.org/2000/svg">
<path d="M16.5 9C16.5 10.3807 15.3807 11.5 14 11.5C12.6193 11.5 11.5 10.3807 11.5 9C11.5 7.61929 12.6193 6.5 14 6.5C15.3807 6.5 16.5 7.61929 16.5 9ZM15 9C15 8.44772 14.5523 8 14 8C13.4477 8 13 8.44772 13 9C13 9.55228 13.4477 10 14 10C14.5523 10 15 9.55228 15 9Z" fill="#212121"/>
<path d="M8 2C5.92893 2 4.25 3.67894 4.25 5.75V22.2497C4.25 24.3207 5.92893 25.9997 8 25.9997H20C22.0711 25.9997 23.75 24.3207 23.75 22.2497V5.75C23.75 3.67893 22.0711 2 20 2H8ZM10 20.75C10 20.3358 10.3358 20 10.75 20H17.25C17.6642 20 18 20.3358 18 20.75C18 21.1642 17.6642 21.5 17.25 21.5H10.75C10.3358 21.5 10 21.1642 10 20.75ZM10.75 16.5L17.25 16.5C17.6642 16.5 18 16.8358 18 17.25C18 17.6642 17.6642 18 17.25 18H10.75C10.3358 18 10 17.6642 10 17.25C10 16.8358 10.3358 16.5 10.75 16.5ZM18.2705 5.5C19.1833 5.5 19.8845 6.30848 19.7554 7.21213L19.184 11.2121C19.0784 11.9511 18.4455 12.5 17.6991 12.5H10.3009C9.55447 12.5 8.92159 11.9511 8.81602 11.2121L8.24459 7.21213C8.1155 6.30848 8.81669 5.5 9.72951 5.5H18.2705Z" fill="#212121"/>
</svg>
