<svg width="16" height="16" viewBox="0 0 16 16" fill="none" xmlns="http://www.w3.org/2000/svg">
<path d="M8 6.25C8.55228 6.25 9 5.80228 9 5.25C9 4.69772 8.55228 4.25 8 4.25C7.44772 4.25 7 4.69772 7 5.25C7 5.80228 7.44772 6.25 8 6.25Z" fill="#212121"/>
<path d="M5.25 1C3.86929 1 2.75 2.11929 2.75 3.5V12.5C2.75 13.8807 3.86929 15 5.25 15H10.75C12.1307 15 13.25 13.8807 13.25 12.5V3.5C13.25 2.11929 12.1307 1 10.75 1H5.25ZM6 11.5C6 11.2239 6.22386 11 6.5 11H9.5C9.77614 11 10 11.2239 10 11.5C10 11.7761 9.77614 12 9.5 12H6.5C6.22386 12 6 11.7761 6 11.5ZM6.5 9H9.5C9.77614 9 10 9.22386 10 9.5C10 9.77614 9.77614 10 9.5 10H6.5C6.22386 10 6 9.77614 6 9.5C6 9.22386 6.22386 9 6.5 9ZM10.1653 3.5C10.4724 3.5 10.7069 3.77425 10.6592 4.07762L10.2664 6.57762C10.2282 6.82081 10.0186 7 9.77244 7H6.22756C5.98139 7 5.77184 6.82081 5.73363 6.57762L5.34077 4.07762C5.2931 3.77425 5.52761 3.5 5.83471 3.5H10.1653Z" fill="#212121"/>
</svg>
