<svg width="24" height="24" viewBox="0 0 24 24" fill="none" xmlns="http://www.w3.org/2000/svg">
<path d="M12 9.5C12.6904 9.5 13.25 8.94036 13.25 8.25C13.25 7.55964 12.6904 7 12 7C11.3096 7 10.75 7.55964 10.75 8.25C10.75 8.94036 11.3096 9.5 12 9.5Z" fill="#212121"/>
<path d="M7.2091 7.04329C7.02748 5.97493 7.85065 5 8.93435 5H15.0657C16.1493 5 16.9725 5.97493 16.7909 7.04329L16.2809 10.0433C16.1379 10.8845 15.409 11.5 14.5557 11.5H9.44435C8.59102 11.5 7.86211 10.8845 7.7191 10.0433L7.2091 7.04329ZM8.93435 6.5C8.77954 6.5 8.66194 6.63928 8.68788 6.7919L9.19788 9.7919C9.21831 9.91208 9.32244 10 9.44435 10H14.5557C14.6776 10 14.7817 9.91208 14.8021 9.7919L15.3121 6.7919C15.3381 6.63928 15.2205 6.5 15.0657 6.5H8.93435Z" fill="#212121"/>
<path d="M9.75 17C9.33579 17 9 17.3358 9 17.75C9 18.1642 9.33579 18.5 9.75 18.5H14.25C14.6642 18.5 15 18.1642 15 17.75C15 17.3358 14.6642 17 14.25 17L9.75 17Z" fill="#212121"/>
<path d="M9 14.25C9 13.8358 9.33579 13.5 9.75 13.5L14.25 13.5C14.6642 13.5 15 13.8358 15 14.25C15 14.6642 14.6642 15 14.25 15L9.75 15C9.33579 15 9 14.6642 9 14.25Z" fill="#212121"/>
<path d="M4 5.25C4 3.45507 5.45507 2 7.25 2H16.75C18.5449 2 20 3.45507 20 5.25V18.75C20 20.5449 18.5449 22 16.75 22H7.25C5.45507 22 4 20.5449 4 18.75V5.25ZM7.25 3.5C6.2835 3.5 5.5 4.2835 5.5 5.25V18.75C5.5 19.7165 6.2835 20.5 7.25 20.5H16.75C17.7165 20.5 18.5 19.7165 18.5 18.75V5.25C18.5 4.2835 17.7165 3.5 16.75 3.5H7.25Z" fill="#212121"/>
</svg>
