<svg width="12" height="12" viewBox="0 0 12 12" fill="none" xmlns="http://www.w3.org/2000/svg">
<path d="M6 5.5C6.41421 5.5 6.75 5.16421 6.75 4.75C6.75 4.33579 6.41421 4 6 4C5.58579 4 5.25 4.33579 5.25 4.75C5.25 5.16421 5.58579 5.5 6 5.5Z" fill="#212121"/>
<path d="M2 3C2 1.89543 2.89543 1 4 1H8C9.10457 1 10 1.89543 10 3V9C10 10.1046 9.10457 11 8 11H4C2.89543 11 2 10.1046 2 9V3ZM5.25 7.5C4.97386 7.5 4.75 7.72386 4.75 8C4.75 8.27614 4.97386 8.5 5.25 8.5H6.75C7.02614 8.5 7.25 8.27614 7.25 8C7.25 7.72386 7.02614 7.5 6.75 7.5H5.25ZM7.41364 3.5H4.58636C4.2787 3.5 4.04403 3.7752 4.09264 4.07899L4.33264 5.579C4.37145 5.82156 4.58071 6 4.82636 6H7.17364C7.41929 6 7.62855 5.82156 7.66736 5.579L7.90736 4.079C7.95597 3.7752 7.7213 3.5 7.41364 3.5Z" fill="#212121"/>
</svg>
