<svg width="24" height="24" viewBox="0 0 24 24" fill="none" xmlns="http://www.w3.org/2000/svg">
<path d="M14 8.25C14 9.35457 13.1046 10.25 12 10.25C10.8954 10.25 10 9.35457 10 8.25C10 7.14543 10.8954 6.25 12 6.25C13.1046 6.25 14 7.14543 14 8.25ZM12.5 8.25C12.5 7.97386 12.2761 7.75 12 7.75C11.7239 7.75 11.5 7.97386 11.5 8.25C11.5 8.52614 11.7239 8.75 12 8.75C12.2761 8.75 12.5 8.52614 12.5 8.25Z" fill="#212121"/>
<path d="M7.25 2C5.45507 2 4 3.45507 4 5.25V18.75C4 20.5449 5.45507 22 7.25 22H16.75C18.5449 22 20 20.5449 20 18.75V5.25C20 3.45507 18.5449 2 16.75 2H7.25ZM9 17.75C9 17.3358 9.33579 17 9.75 17L14.25 17C14.6642 17 15 17.3358 15 17.75C15 18.1642 14.6642 18.5 14.25 18.5H9.75C9.33579 18.5 9 18.1642 9 17.75ZM9.75 13.5L14.25 13.5C14.6642 13.5 15 13.8358 15 14.25C15 14.6642 14.6642 15 14.25 15L9.75 15C9.33579 15 9 14.6642 9 14.25C9 13.8358 9.33579 13.5 9.75 13.5ZM15.0657 5.75C15.6849 5.75 16.1553 6.3071 16.0515 6.9176L15.5415 9.91759C15.4598 10.3983 15.0433 10.75 14.5557 10.75H9.44435C8.95673 10.75 8.54021 10.3983 8.45849 9.9176L7.94849 6.9176C7.84471 6.3071 8.31509 5.75 8.93435 5.75H15.0657Z" fill="#212121"/>
</svg>
