<svg width="12" height="12" viewBox="0 0 12 12" fill="none" xmlns="http://www.w3.org/2000/svg">
<path d="M4.75 8C4.75 7.72386 4.97386 7.5 5.25 7.5H6.75C7.02614 7.5 7.25 7.72386 7.25 8C7.25 8.27614 7.02614 8.5 6.75 8.5H5.25C4.97386 8.5 4.75 8.27614 4.75 8Z" fill="#212121"/>
<path d="M4.58636 3C3.97105 3 3.50171 3.55041 3.59892 4.15799L3.83892 5.65799C3.91654 6.14312 4.33506 6.5 4.82636 6.5H7.17364C7.66494 6.5 8.08346 6.14312 8.16108 5.65799L8.40108 4.15799C8.49829 3.55041 8.02895 3 7.41364 3H4.58636ZM4.58636 4L7.41364 4L7.17364 5.5H4.82636L4.58636 4Z" fill="#212121"/>
<path d="M2 3C2 1.89543 2.89543 1 4 1H8C9.10457 1 10 1.89543 10 3V9C10 10.1046 9.10457 11 8 11H4C2.89543 11 2 10.1046 2 9V3ZM4 2C3.44772 2 3 2.44772 3 3V9C3 9.55228 3.44772 10 4 10H8C8.55228 10 9 9.55228 9 9V3C9 2.44772 8.55228 2 8 2H4Z" fill="#212121"/>
</svg>
