<svg width="48" height="48" viewBox="0 0 48 48" fill="none" xmlns="http://www.w3.org/2000/svg">
<path d="M17.5 28.75C17.5 28.0596 18.0596 27.5 18.75 27.5H29.25C29.9404 27.5 30.5 28.0596 30.5 28.75C30.5 29.4404 29.9404 30 29.25 30H18.75C18.0596 30 17.5 29.4404 17.5 28.75Z" fill="#212121"/>
<path d="M18.75 33C18.0596 33 17.5 33.5596 17.5 34.25C17.5 34.9404 18.0596 35.5 18.75 35.5H29.25C29.9404 35.5 30.5 34.9404 30.5 34.25C30.5 33.5596 29.9404 33 29.25 33H18.75Z" fill="#212121"/>
<path d="M27.5 15.75C27.5 17.683 25.933 19.25 24 19.25C22.067 19.25 20.5 17.683 20.5 15.75C20.5 13.817 22.067 12.25 24 12.25C25.933 12.25 27.5 13.817 27.5 15.75Z" fill="#212121"/>
<path d="M17.2906 8.5C14.7887 8.5 12.828 10.6505 13.0587 13.1418L13.6143 19.1418C13.8167 21.3279 15.6508 23 17.8462 23H30.1538C32.3492 23 34.1833 21.3279 34.3857 19.1418L34.9413 13.1418C35.172 10.6505 33.2113 8.5 30.7094 8.5H17.2906ZM15.5481 12.9113C15.4531 11.8855 16.2604 11 17.2906 11H30.7094C31.7396 11 32.5469 11.8855 32.4519 12.9113L31.8964 18.9113C31.813 19.8115 31.0578 20.5 30.1538 20.5H17.8462C16.9422 20.5 16.187 19.8115 16.1036 18.9113L15.5481 12.9113Z" fill="#212121"/>
<path d="M8 10.25C8 6.79822 10.7982 4 14.25 4H33.75C37.2018 4 40 6.79822 40 10.25V37.75C40 41.2018 37.2018 44 33.75 44H14.25C10.7982 44 8 41.2018 8 37.75V10.25ZM14.25 6.5C12.1789 6.5 10.5 8.17893 10.5 10.25V37.75C10.5 39.8211 12.1789 41.5 14.25 41.5H33.75C35.8211 41.5 37.5 39.8211 37.5 37.75V10.25C37.5 8.17893 35.8211 6.5 33.75 6.5H14.25Z" fill="#212121"/>
</svg>
