<svg width="20" height="20" viewBox="0 0 20 20" fill="none" xmlns="http://www.w3.org/2000/svg">
<path d="M7.5 14.5C7.5 14.2239 7.72386 14 8 14L12 14C12.2761 14 12.5 14.2239 12.5 14.5C12.5 14.7761 12.2761 15 12 15L8 15C7.72386 15 7.5 14.7761 7.5 14.5Z" fill="#212121"/>
<path d="M8 11.5C7.72386 11.5 7.5 11.7239 7.5 12C7.5 12.2761 7.72386 12.5 8 12.5L12 12.5C12.2761 12.5 12.5 12.2761 12.5 12C12.5 11.7239 12.2761 11.5 12 11.5L8 11.5Z" fill="#212121"/>
<path d="M10 8C10.5523 8 11 7.55228 11 7C11 6.44772 10.5523 6 10 6C9.44772 6 9 6.44772 9 7C9 7.55228 9.44772 8 10 8Z" fill="#212121"/>
<path d="M6.60924 5.90504C6.51598 5.15898 7.09771 4.5 7.84959 4.5H12.1504C12.9023 4.5 13.484 5.15898 13.3908 5.90504L13.0783 8.40504C13.0001 9.03058 12.4683 9.5 11.8379 9.5H8.16209C7.53168 9.5 6.99993 9.03058 6.92174 8.40504L6.60924 5.90504ZM7.84959 5.5C7.69921 5.5 7.58287 5.6318 7.60152 5.78101L7.91402 8.28101C7.92966 8.40612 8.03601 8.5 8.16209 8.5H11.8379C11.964 8.5 12.0703 8.40612 12.086 8.28101L12.3985 5.78101C12.4171 5.6318 12.3008 5.5 12.1504 5.5H7.84959Z" fill="#212121"/>
<path d="M4 5C4 3.34315 5.34315 2 7 2H13C14.6569 2 16 3.34315 16 5V15C16 16.6569 14.6569 18 13 18H7C5.34315 18 4 16.6569 4 15V5ZM7 3C5.89543 3 5 3.89543 5 5V15C5 16.1046 5.89543 17 7 17H13C14.1046 17 15 16.1046 15 15V5C15 3.89543 14.1046 3 13 3H7Z" fill="#212121"/>
</svg>
