<svg width="32" height="32" viewBox="0 0 32 32" fill="none" xmlns="http://www.w3.org/2000/svg">
<path d="M19 11C19 12.6569 17.6569 14 16 14C14.3431 14 13 12.6569 13 11C13 9.34315 14.3431 8 16 8C17.6569 8 19 9.34315 19 11ZM17 11C17 10.4477 16.5523 10 16 10C15.4477 10 15 10.4477 15 11C15 11.5523 15.4477 12 16 12C16.5523 12 17 11.5523 17 11Z" fill="#212121"/>
<path d="M9 2C6.51472 2 4.5 4.01472 4.5 6.5V25.5C4.5 27.9853 6.51472 30 9 30H23C25.4853 30 27.5 27.9853 27.5 25.5V6.5C27.5 4.01472 25.4853 2 23 2H9ZM11 24C11 23.4477 11.4477 23 12 23H20C20.5523 23 21 23.4477 21 24C21 24.5523 20.5523 25 20 25H12C11.4477 25 11 24.5523 11 24ZM12 19H20C20.5523 19 21 19.4477 21 20C21 20.5523 20.5523 21 20 21H12C11.4477 21 11 20.5523 11 20C11 19.4477 11.4477 19 12 19ZM21.3008 7C22.2031 7 22.9012 7.79077 22.7892 8.68605L22.1642 13.6861C22.0704 14.4367 21.4323 15 20.6758 15H11.3242C10.5677 15 9.92959 14.4367 9.83576 13.6861L9.21076 8.68605C9.09885 7.79077 9.79693 7 10.6992 7H21.3008Z" fill="#212121"/>
</svg>
