<svg width="32" height="32" viewBox="0 0 32 32" fill="none" xmlns="http://www.w3.org/2000/svg">
<path d="M11 24C11 23.4477 11.4477 23 12 23H20C20.5523 23 21 23.4477 21 24C21 24.5523 20.5523 25 20 25H12C11.4477 25 11 24.5523 11 24Z" fill="#212121"/>
<path d="M12 19C11.4477 19 11 19.4477 11 20C11 20.5523 11.4477 21 12 21H20C20.5523 21 21 20.5523 21 20C21 19.4477 20.5523 19 20 19H12Z" fill="#212121"/>
<path d="M18 11C18 12.1046 17.1046 13 16 13C14.8954 13 14 12.1046 14 11C14 9.89543 14.8954 9 16 9C17.1046 9 18 9.89543 18 11Z" fill="#212121"/>
<path d="M10.6992 6C9.19543 6 8.03196 7.31795 8.21848 8.81009L8.84348 13.8101C8.99986 15.0612 10.0634 16 11.3242 16H20.6758C21.9366 16 23.0001 15.0612 23.1565 13.8101L23.7815 8.81009C23.968 7.31796 22.8046 6 21.3008 6H10.6992ZM10.203 8.56202C10.1657 8.26359 10.3984 8 10.6992 8H21.3008C21.6016 8 21.8343 8.26359 21.797 8.56202L21.172 13.562C21.1407 13.8122 20.928 14 20.6758 14H11.3242C11.072 14 10.8593 13.8122 10.828 13.562L10.203 8.56202Z" fill="#212121"/>
<path d="M4.5 6.5C4.5 4.01472 6.51472 2 9 2H23C25.4853 2 27.5 4.01472 27.5 6.5V25.5C27.5 27.9853 25.4853 30 23 30H9C6.51472 30 4.5 27.9853 4.5 25.5V6.5ZM9 4C7.61929 4 6.5 5.11929 6.5 6.5V25.5C6.5 26.8807 7.61929 28 9 28H23C24.3807 28 25.5 26.8807 25.5 25.5V6.5C25.5 5.11929 24.3807 4 23 4H9Z" fill="#212121"/>
</svg>
