<svg width="28" height="28" viewBox="0 0 28 28" fill="none" xmlns="http://www.w3.org/2000/svg">
<path d="M2.43146 4.93146C2.70557 4.65536 3.07964 4.5 3.47052 4.5L13.2303 4.50336C13.4242 4.50336 13.6152 4.54117 13.7943 4.61519C13.9735 4.68941 14.1358 4.79826 14.2723 4.93482C14.4099 5.07139 14.5179 5.23368 14.592 5.41279C14.6657 5.59191 14.7038 5.78389 14.7038 5.97685V10.4375H14.3416C14.1565 10.4373 13.9735 10.4653 13.7973 10.5204V5.97072C13.7973 5.65702 13.543 5.40369 13.2303 5.40369H3.48289C3.16919 5.40369 2.91586 5.65801 2.91586 5.97072V12.9968C2.91586 13.3105 3.17018 13.5638 3.48289 13.5638L12.0938 13.5638V14.4703L10.1725 14.4703V15.3767H11.5282C11.5896 15.3748 11.6497 15.3852 11.7063 15.4071C11.8053 15.4467 11.888 15.5193 11.9389 15.6129C11.9897 15.7069 12.0061 15.8148 11.9849 15.9197C11.9631 16.0236 11.906 16.1175 11.8226 16.1839C11.7395 16.2504 11.6356 16.2853 11.5287 16.2827H5.18547C5.12411 16.286 5.06227 16.2768 5.00437 16.2557C4.94678 16.2344 4.89384 16.2016 4.84901 16.1592C4.80418 16.1166 4.76846 16.0655 4.74411 16.0088C4.71977 15.9523 4.7072 15.8913 4.7072 15.8296C4.7072 15.7683 4.71977 15.7072 4.74411 15.6505C4.76856 15.5935 4.80418 15.5425 4.84901 15.5001C4.89354 15.4577 4.94648 15.4248 5.00437 15.4036C5.06276 15.3822 5.12392 15.3732 5.18547 15.3765H6.5412V14.4701H3.47349C3.27953 14.4701 3.08854 14.4322 2.90943 14.3582C2.73031 14.284 2.56802 14.1752 2.43146 14.0386C2.29391 13.902 2.18584 13.7397 2.11182 13.5606C2.0381 13.3815 2 13.1895 2 12.9966V5.97052C2 5.5826 2.15536 5.20755 2.43146 4.93146ZM9.24969 15.4012V14.4948H7.43875V15.4012H9.24969Z" fill="black"/>
<path d="M17.1773 17.3696H16.543L16.5441 17.3707C16.6054 17.6547 16.742 17.8813 16.9567 18.0505C17.1714 18.2165 17.4248 18.2999 17.7177 18.2999C18.0591 18.2999 18.351 18.191 18.5925 17.9733C18.8339 17.7556 18.9547 17.4775 18.9547 17.1391C18.9547 16.8343 18.8537 16.5731 18.6509 16.3554C18.449 16.1377 18.1957 16.0288 17.8938 16.0288C17.6791 16.0288 17.4901 16.0862 17.3268 16.201L17.4535 15.5162H18.7004V14.9996H16.9785L16.6885 16.7314L17.1962 16.863C17.3021 16.6512 17.4762 16.5454 17.7177 16.5454C17.7969 16.5438 17.8763 16.5582 17.9502 16.5878C18.0245 16.6175 18.0916 16.6613 18.1482 16.7175C18.2067 16.7709 18.2535 16.8356 18.2847 16.9084C18.316 16.9807 18.3311 17.0598 18.3292 17.139C18.3292 17.3082 18.2698 17.4517 18.152 17.5695C18.0343 17.6841 17.8908 17.7417 17.7216 17.7417C17.5949 17.7417 17.4831 17.7079 17.3861 17.6417C17.2921 17.5744 17.2226 17.4844 17.1773 17.3696Z" fill="black"/>
<path d="M22.2232 18.2355V17.7189L21.9451 17.709L20.7378 16.571L21.8857 15.5121H22.1618V14.9956H20.8259V15.5121H21.1158L20.1163 16.4592V15.5121H20.4657V14.9956H19.1495V15.5121H19.5028V17.7189H19.1495V18.2355H20.4657V17.7189H20.1163V16.7194L21.1653 17.7189H20.8476V18.2355H22.2232Z" fill="black"/>
<path d="M13.4853 12.0565C13.7594 11.7804 14.1334 11.625 14.5243 11.625H24.2816C24.6695 11.625 25.0446 11.7804 25.3207 12.0565C25.5968 12.3306 25.7521 12.7046 25.7521 13.0955V20.1216C25.7521 20.5095 25.5968 20.8845 25.3207 21.1606C25.0466 21.4367 24.6725 21.5921 24.2816 21.5921H21.2238V22.4985H22.5795C22.6409 22.4967 22.7011 22.5071 22.7577 22.5289C22.8566 22.5685 22.9394 22.641 22.9902 22.7348C23.0411 22.8288 23.0574 22.9366 23.0362 23.0415C23.0145 23.1454 22.9574 23.2393 22.8739 23.3057C22.7908 23.3722 22.6869 23.4072 22.58 23.4045H16.2368C16.1755 23.4063 16.1154 23.3959 16.0587 23.3741C15.9597 23.3345 15.877 23.262 15.8261 23.1683C15.7753 23.0743 15.7589 22.9664 15.7801 22.8615C15.8019 22.7576 15.859 22.6637 15.9424 22.5973C16.0255 22.5308 16.1294 22.4959 16.2363 22.4985H17.592V21.5921H14.5243C14.1364 21.5921 13.7614 21.4367 13.4853 21.1606C13.2092 20.8865 13.0538 20.5124 13.0538 20.1216V13.0955C13.0538 12.7076 13.2092 12.3326 13.4853 12.0565ZM20.3035 22.5262V21.6198H18.4926V22.5262H20.3035ZM14.5273 12.5522C14.2136 12.5522 13.9603 12.8066 13.9603 13.1193V20.1453C13.9603 20.459 14.2146 20.7123 14.5273 20.7123H24.2747C24.5884 20.7123 24.8417 20.458 24.8417 20.1453V13.1193C24.8417 12.8056 24.5874 12.5522 24.2747 12.5522H14.5273Z" fill="black"/>
<path d="M6.15348 10.2098H5.51916L5.52015 10.2109C5.58051 10.4949 5.71806 10.7215 5.9328 10.8907C6.14655 11.0572 6.40088 11.1401 6.69379 11.1401C7.0352 11.1401 7.32713 11.0312 7.56858 10.8135C7.81004 10.5958 7.93077 10.3178 7.93077 9.97932C7.93077 9.67453 7.82983 9.41328 7.62697 9.19557C7.42411 8.97786 7.17176 8.86901 6.86994 8.86901C6.66707 8.86505 6.46916 8.92542 6.30291 9.0412L6.42957 8.35641H7.67645V7.83984H5.95457L5.66463 9.57161L6.17228 9.70323C6.27817 9.49146 6.45233 9.38557 6.69379 9.38557C6.77296 9.38399 6.85242 9.39844 6.92634 9.42803C7.00056 9.45771 7.06766 9.50155 7.12426 9.55766C7.24509 9.66948 7.30536 9.81 7.30536 9.97922C7.30536 10.1484 7.24598 10.2919 7.12822 10.4097C7.01046 10.5248 6.86697 10.5819 6.69775 10.5819C6.57108 10.5819 6.45887 10.5485 6.36228 10.4819C6.26827 10.4156 6.1988 10.3246 6.15348 10.2098Z" fill="black"/>
<path d="M11.1994 10.5591V11.0757L9.81593 11.0856V10.569H10.1336L9.08463 9.56954V10.569H9.43395V11.0856H8.1178V10.569H8.47109V8.36224H8.1178V7.84568H9.43395V8.36224H9.08463V9.30928L10.0841 8.36224H9.79416V7.84568H11.1301V8.36224H10.854L9.70608 9.4211L10.9134 10.5591H11.1994Z" fill="black"/>
</svg>
