<svg width="24" height="24" viewBox="0 0 24 24" fill="none" xmlns="http://www.w3.org/2000/svg">
<path d="M3.23833 4C2.90917 4 2.59417 4.13083 2.36333 4.36333C2.13083 4.59583 2 4.91167 2 5.23833V11.155C2 11.3175 2.03208 11.4792 2.09417 11.63C2.1565 11.7808 2.2475 11.9175 2.36333 12.0325C2.47833 12.1475 2.615 12.2392 2.76583 12.3017C2.91667 12.364 3.0775 12.3958 3.24083 12.3958H5.82417V13.1592H4.6825C4.63067 13.1564 4.57917 13.164 4.53 13.182C4.48125 13.1998 4.43667 13.2275 4.39917 13.2632C4.36142 13.2989 4.33142 13.3419 4.31083 13.3899C4.29033 13.4377 4.27975 13.4891 4.27975 13.5407C4.27975 13.5927 4.29033 13.6441 4.31083 13.6916C4.33133 13.7393 4.36142 13.7824 4.39917 13.8182C4.43692 13.854 4.4815 13.8816 4.53 13.8995C4.57875 13.9173 4.63083 13.9251 4.6825 13.9222H10.0242C10.1142 13.9245 10.2017 13.8951 10.2717 13.8391C10.3419 13.7832 10.39 13.7041 10.4083 13.6166C10.4262 13.5282 10.4124 13.4374 10.3696 13.3582C10.3267 13.2794 10.2571 13.2183 10.1737 13.1849C10.1261 13.1665 10.0754 13.1578 10.0237 13.1593H8.88208V12.396L10.5 12.396V11.6218C10.5 11.2373 10.4998 10.2168 10.9807 9.67261C11.4663 9.1232 11.7538 9.09764 11.7538 9.09764C11.9021 9.05123 12.2371 8.99983 12.3929 9H12.6979V5.24367C12.6979 5.08117 12.6658 4.9195 12.6038 4.76867C12.5414 4.61783 12.4504 4.48117 12.3346 4.36617C12.2196 4.25117 12.0829 4.1595 11.9321 4.097C11.7812 4.03467 11.6204 4.00283 11.4571 4.00283L3.23833 4ZM8.105 12.4167V13.18H6.58V12.4167H8.105ZM5.49767 8.80825C5.53583 8.90492 5.59433 8.98158 5.6735 9.03742C5.75483 9.0935 5.84933 9.12158 5.956 9.12158C6.0985 9.12158 6.21933 9.0735 6.3185 8.97658C6.41767 8.87742 6.46767 8.75658 6.46767 8.61408C6.46767 8.47158 6.41692 8.35325 6.31517 8.25908C6.2675 8.21183 6.211 8.17492 6.1485 8.14992C6.08625 8.125 6.01933 8.11283 5.95267 8.11417C5.74933 8.11417 5.60267 8.20333 5.5135 8.38167L5.086 8.27083L5.33017 6.8125H6.78017V7.2475H5.73017L5.6235 7.82417C5.7635 7.72667 5.93017 7.67583 6.101 7.67917C6.35517 7.67917 6.56767 7.77083 6.7385 7.95417C6.90933 8.1375 6.99433 8.3575 6.99433 8.61417C6.99433 8.89917 6.89267 9.13333 6.68933 9.31667C6.486 9.5 6.24017 9.59167 5.95267 9.59167C5.706 9.59167 5.49183 9.52183 5.31183 9.38167C5.131 9.23917 5.01517 9.04833 4.96433 8.80917L4.9635 8.80825H5.49767ZM9.74684 9.10242V9.53742L8.58183 9.54575V9.11075H8.84933L7.966 8.26908V9.11075H8.26017V9.54575H7.15183V9.11075H7.44934V7.25242H7.15183V6.81742H8.26017V7.25242H7.966V8.04992L8.80767 7.25242H8.5635V6.81742H9.6885V7.25242H9.456L8.48933 8.14408L9.506 9.10242H9.74684Z" fill="black"/>
<path d="M12.5468 10C12.2176 10 11.9026 10.1308 11.6718 10.3633C11.4393 10.5958 11.3085 10.9117 11.3085 11.2383V17.155C11.3085 17.4842 11.4393 17.7992 11.6718 18.03C11.9043 18.2625 12.2201 18.3933 12.5468 18.3933H15.1301V19.1567H13.9885C13.8985 19.1544 13.811 19.1838 13.741 19.2398C13.6707 19.2957 13.6226 19.3748 13.6043 19.4623C13.5865 19.5507 13.6002 19.6415 13.6431 19.7207C13.6859 19.7996 13.7556 19.8607 13.8389 19.894C13.8866 19.9123 13.9372 19.9211 13.9889 19.9196H19.3306C19.4206 19.9218 19.5081 19.8924 19.5781 19.8364C19.6483 19.7805 19.6964 19.7014 19.7147 19.6139C19.7326 19.5256 19.7188 19.4347 19.676 19.3556C19.6331 19.2767 19.5635 19.2156 19.4801 19.1823C19.4325 19.1638 19.3818 19.1551 19.3301 19.1567H18.1885V18.3933H20.7635C21.0926 18.3933 21.4076 18.2625 21.6385 18.03C21.871 17.7975 22.0018 17.4817 22.0018 17.155V11.2383C22.0018 10.9092 21.871 10.5942 21.6385 10.3633C21.406 10.1308 21.0901 10 20.7635 10H12.5468ZM17.4135 18.4167V19.18H15.8885V18.4167H17.4135ZM14.2467 14.8375H14.7809C14.819 14.9342 14.8775 15.01 14.9567 15.0667C15.0384 15.1225 15.1325 15.1509 15.2392 15.1509C15.3817 15.1509 15.5025 15.1024 15.6017 15.0059C15.7009 14.9067 15.7509 14.7859 15.7509 14.6434C15.7525 14.5767 15.7398 14.51 15.7135 14.4492C15.6871 14.3879 15.6478 14.3334 15.5985 14.2884C15.5508 14.2411 15.4943 14.2042 15.4318 14.1792C15.3695 14.1543 15.3026 14.1421 15.236 14.1435C15.0326 14.1435 14.886 14.2326 14.7968 14.411L14.3693 14.3001L14.6135 12.8418H16.0635V13.2768H15.0135L14.9068 13.8535C15.0443 13.7568 15.2035 13.7085 15.3843 13.7085C15.6385 13.7085 15.8518 13.8001 16.0218 13.9835C16.1926 14.1668 16.2776 14.3868 16.2776 14.6435C16.2776 14.9285 16.176 15.1626 15.9726 15.346C15.7693 15.5293 15.5235 15.621 15.236 15.621C14.9893 15.621 14.776 15.5507 14.5951 15.411C14.4143 15.2685 14.2993 15.0776 14.2476 14.8385L14.2467 14.8375ZM19.03 15.1317V15.5667H17.8717V15.1317H18.1392L17.2559 14.29V15.1317H17.55V15.5667H16.4417V15.1317H16.7392V13.2734H16.4417V12.8384H17.55V13.2734H17.2559V14.0709L18.0975 13.2734H17.8534V12.8384H18.9784V13.2734H18.7459L17.7792 14.165L18.7959 15.1234L19.03 15.1317Z" fill="black"/>
</svg>
