<svg width="20" height="20" viewBox="0 0 20 20" fill="none" xmlns="http://www.w3.org/2000/svg">
<path d="M2.99067 3.5C2.72733 3.5 2.47533 3.60467 2.29067 3.79067C2.10467 3.97667 2 4.22933 2 4.49067V9.224C2 9.354 2.02567 9.48333 2.07533 9.604C2.1252 9.72467 2.198 9.834 2.29067 9.926C2.38267 10.018 2.492 10.0913 2.61267 10.1413C2.73333 10.1912 2.862 10.2167 2.99267 10.2167H5.05933V10.8273H4.146C4.10453 10.8251 4.06333 10.8312 4.024 10.8456C3.985 10.8599 3.94933 10.882 3.91933 10.9106C3.88913 10.9391 3.86513 10.9735 3.84867 11.0119C3.83227 11.0501 3.8238 11.0913 3.8238 11.1326C3.8238 11.1741 3.83227 11.2153 3.84867 11.2533C3.86507 11.2915 3.88913 11.3259 3.91933 11.3546C3.94953 11.3832 3.9852 11.4053 4.024 11.4196C4.063 11.4339 4.10467 11.4401 4.146 11.4378H8.41933C8.49133 11.4396 8.56133 11.4161 8.61733 11.3713C8.67353 11.3265 8.712 11.2633 8.72667 11.1933C8.74093 11.1226 8.72993 11.0499 8.69567 10.9866C8.6614 10.9235 8.60567 10.8746 8.539 10.8479C8.50087 10.8332 8.46033 10.8262 8.419 10.8275H7.50567V10.2168L8.8 10.2168L8.8 9.59742C8.79996 9.28988 8.79987 8.47345 9.1846 8.03809C9.57302 7.59856 9.80301 7.57811 9.80301 7.57811C9.92168 7.54098 10.1897 7.49987 10.3143 7.5H10.5583V4.49493C10.5583 4.36493 10.5327 4.2356 10.483 4.11493C10.4331 3.99427 10.3603 3.88493 10.2677 3.79293C10.1757 3.70093 10.0663 3.6276 9.94567 3.5776C9.825 3.52773 9.69633 3.50227 9.56567 3.50227L2.99067 3.5ZM6.884 10.2333V10.844H5.664V10.2333H6.884ZM4.79817 7.3466C4.8287 7.42393 4.8755 7.48527 4.93883 7.52993C5.0039 7.5748 5.0795 7.59727 5.16483 7.59727C5.27883 7.59727 5.3755 7.5588 5.45483 7.48127C5.53417 7.40193 5.57417 7.30527 5.57417 7.19127C5.57417 7.07727 5.53357 6.9826 5.45217 6.90727C5.41403 6.86947 5.36883 6.83993 5.31883 6.81993C5.26903 6.8 5.2155 6.79027 5.16217 6.79133C4.9995 6.79133 4.88217 6.86267 4.81083 7.00533L4.46883 6.91667L4.66417 5.75H5.82417V6.098H4.98417L4.89883 6.55933C5.01083 6.48133 5.14417 6.44067 5.28083 6.44333C5.48417 6.44333 5.65417 6.51667 5.79083 6.66333C5.9275 6.81 5.9955 6.986 5.9955 7.19133C5.9955 7.41933 5.91417 7.60667 5.7515 7.75333C5.58883 7.9 5.39217 7.97333 5.16217 7.97333C4.96483 7.97333 4.7935 7.91747 4.6495 7.80533C4.50483 7.69133 4.4115 7.53793 4.37083 7.3466H4.79817ZM8.1975 7.58193V7.92993L7.2655 7.9366V7.5886H7.4795L6.77283 6.91527V7.5886H7.00817V7.9366H6.1215V7.5886H6.3595V6.10193H6.1215V5.75393H7.00817V6.10193H6.77283V6.73993L7.44617 6.10193H7.25083V5.75393H8.15083V6.10193H7.96483L7.1915 6.81527L8.00483 7.58193H8.1975Z" fill="black"/>
<path d="M10.4374 8.3C10.1741 8.3 9.92208 8.40467 9.73741 8.59067C9.55141 8.77667 9.44674 9.02933 9.44674 9.29067V14.024C9.44674 14.2873 9.55141 14.5393 9.73741 14.724C9.92341 14.91 10.1761 15.0147 10.4374 15.0147H12.5041V15.6253H11.5907C11.5187 15.6235 11.4487 15.6471 11.3927 15.6919C11.3365 15.7366 11.2981 15.7999 11.2834 15.8699C11.2691 15.9405 11.2801 16.0132 11.3144 16.0765C11.3487 16.1397 11.4044 16.1885 11.4711 16.2152C11.5093 16.2299 11.5497 16.2369 11.5911 16.2357H15.8644C15.9364 16.2375 16.0064 16.2139 16.0624 16.1691C16.1186 16.1244 16.1571 16.0611 16.1717 15.9911C16.186 15.9205 16.175 15.8478 16.1407 15.7845C16.1065 15.7213 16.0507 15.6725 15.9841 15.6458C15.9459 15.6311 15.9054 15.6241 15.8641 15.6253H14.9507V15.0147H17.0107C17.2741 15.0147 17.5261 14.91 17.7107 14.724C17.8967 14.538 18.0014 14.2853 18.0014 14.024V9.29067C18.0014 9.02733 17.8967 8.77533 17.7107 8.59067C17.5247 8.40467 17.2721 8.3 17.0107 8.3H10.4374ZM14.3307 15.0333V15.644H13.1107V15.0333H14.3307ZM11.7974 12.1704H12.2247C12.2552 12.2477 12.302 12.3084 12.3654 12.3537C12.4307 12.3983 12.506 12.421 12.5914 12.421C12.7054 12.421 12.802 12.3822 12.8814 12.305C12.9607 12.2257 13.0007 12.129 13.0007 12.015C13.002 11.9617 12.9918 11.9084 12.9708 11.8597C12.9497 11.8106 12.9182 11.767 12.8788 11.731C12.8406 11.6932 12.7954 11.6637 12.7454 11.6437C12.6956 11.6238 12.6421 11.614 12.5888 11.6151C12.4261 11.6151 12.3088 11.6864 12.2374 11.8291L11.8954 11.7404L12.0908 10.5738H13.2508V10.9218H12.4108L12.3254 11.3831C12.4354 11.3058 12.5628 11.2671 12.7074 11.2671C12.9108 11.2671 13.0814 11.3404 13.2174 11.4871C13.3541 11.6338 13.4221 11.8098 13.4221 12.0151C13.4221 12.2431 13.3408 12.4304 13.1781 12.5771C13.0154 12.7238 12.8188 12.7971 12.5888 12.7971C12.3914 12.7971 12.2208 12.7409 12.0761 12.6291C11.9314 12.5151 11.8394 12.3624 11.7981 12.1711L11.7974 12.1704ZM15.624 12.4057V12.7537H14.6974V12.4057H14.9114L14.2047 11.7324V12.4057H14.44V12.7537H13.5534V12.4057H13.7914V10.919H13.5534V10.571H14.44V10.919H14.2047V11.557L14.878 10.919H14.6827V10.571H15.5827V10.919H15.3967L14.6234 11.6324L15.4367 12.399L15.624 12.4057Z" fill="black"/>
</svg>
