<svg width="20" height="20" viewBox="0 0 20 20" fill="none" xmlns="http://www.w3.org/2000/svg">
<path d="M2.29067 3.79067C2.47533 3.60467 2.72733 3.5 2.99067 3.5L9.56567 3.50227C9.69633 3.50227 9.825 3.52773 9.94567 3.5776C10.0663 3.6276 10.1757 3.70093 10.2677 3.79293C10.3603 3.88493 10.4331 3.99427 10.483 4.11493C10.5327 4.2356 10.5583 4.36493 10.5583 4.49493V7.5H10.3143C10.1897 7.49987 10.0663 7.51873 9.94767 7.55587V4.4908C9.94767 4.27947 9.77633 4.1088 9.56567 4.1088H2.999C2.78767 4.1088 2.617 4.28013 2.617 4.4908V9.22413C2.617 9.43547 2.78833 9.60613 2.999 9.60613L8.8 9.60613V10.2168L7.50567 10.2168V10.8275H8.419C8.46033 10.8262 8.50087 10.8332 8.539 10.8479C8.60567 10.8746 8.6614 10.9235 8.69567 10.9866C8.72993 11.0499 8.74093 11.1226 8.72667 11.1933C8.712 11.2633 8.67353 11.3265 8.61733 11.3713C8.56133 11.4161 8.49133 11.4396 8.41933 11.4378H4.146C4.10467 11.4401 4.063 11.4339 4.024 11.4196C3.9852 11.4053 3.94953 11.3832 3.91933 11.3546C3.88913 11.3259 3.86507 11.2915 3.84867 11.2533C3.83227 11.2153 3.8238 11.1741 3.8238 11.1326C3.8238 11.0913 3.83227 11.0501 3.84867 11.0119C3.86513 10.9735 3.88913 10.9391 3.91933 10.9106C3.94933 10.882 3.985 10.8599 4.024 10.8456C4.06333 10.8312 4.10453 10.8251 4.146 10.8273H5.05933V10.2167H2.99267C2.862 10.2167 2.73333 10.1912 2.61267 10.1413C2.492 10.0913 2.38267 10.018 2.29067 9.926C2.198 9.834 2.1252 9.72467 2.07533 9.604C2.02567 9.48333 2 9.354 2 9.224V4.49067C2 4.22933 2.10467 3.97667 2.29067 3.79067ZM6.884 10.844V10.2333H5.664V10.844H6.884Z" fill="black"/>
<path d="M12.2247 12.1701H11.7974L11.7981 12.1709C11.8394 12.3622 11.9314 12.5149 12.0761 12.6289C12.2208 12.7407 12.3914 12.7969 12.5888 12.7969C12.8188 12.7969 13.0154 12.7235 13.1781 12.5769C13.3408 12.4302 13.4221 12.2429 13.4221 12.0149C13.4221 11.8095 13.3541 11.6335 13.2174 11.4869C13.0814 11.3402 12.9108 11.2669 12.7074 11.2669C12.5628 11.2669 12.4354 11.3055 12.3254 11.3829L12.4108 10.9215H13.2508V10.5735H12.0908L11.8954 11.7402L12.2374 11.8289C12.3088 11.6862 12.4261 11.6149 12.5888 11.6149C12.6421 11.6138 12.6956 11.6235 12.7454 11.6435C12.7954 11.6635 12.8406 11.693 12.8788 11.7308C12.9182 11.7668 12.9497 11.8104 12.9708 11.8595C12.9918 11.9081 13.002 11.9615 13.0007 12.0148C13.0007 12.1288 12.9607 12.2255 12.8814 12.3048C12.802 12.382 12.7054 12.4208 12.5914 12.4208C12.506 12.4208 12.4307 12.3981 12.3654 12.3535C12.302 12.3081 12.2552 12.2475 12.2247 12.1701Z" fill="black"/>
<path d="M15.624 12.7535V12.4055L15.4367 12.3988L14.6234 11.6321L15.3967 10.9188H15.5827V10.5708H14.6827V10.9188H14.878L14.2047 11.5568V10.9188H14.44V10.5708H13.5534V10.9188H13.7914V12.4055H13.5534V12.7535H14.44V12.4055H14.2047V11.7321L14.9114 12.4055H14.6974V12.7535H15.624Z" fill="black"/>
<path d="M9.73744 8.59072C9.92211 8.40472 10.1741 8.30005 10.4374 8.30005H17.0108C17.2721 8.30005 17.5248 8.40472 17.7108 8.59072C17.8968 8.77538 18.0014 9.02738 18.0014 9.29072V14.024C18.0014 14.2854 17.8968 14.538 17.7108 14.724C17.5261 14.91 17.2741 15.0147 17.0108 15.0147H14.9508V15.6254H15.8641C15.9054 15.6241 15.946 15.6311 15.9841 15.6458C16.0508 15.6725 16.1065 15.7214 16.1408 15.7845C16.175 15.8478 16.186 15.9205 16.1718 15.9912C16.1571 16.0612 16.1186 16.1244 16.0624 16.1692C16.0064 16.214 15.9364 16.2375 15.8644 16.2357H11.5911C11.5498 16.2369 11.5093 16.2299 11.4711 16.2152C11.4044 16.1886 11.3487 16.1397 11.3144 16.0766C11.2802 16.0132 11.2692 15.9406 11.2834 15.8699C11.2981 15.7999 11.3366 15.7366 11.3928 15.6919C11.4488 15.6471 11.5188 15.6236 11.5908 15.6254H12.5041V15.0147H10.4374C10.1761 15.0147 9.92344 14.91 9.73744 14.724C9.55144 14.5394 9.44678 14.2874 9.44678 14.024V9.29072C9.44678 9.02938 9.55144 8.77672 9.73744 8.59072ZM14.3308 15.644V15.0334H13.1108V15.644H14.3308ZM10.4394 8.92472C10.2281 8.92472 10.0574 9.09605 10.0574 9.30672V14.04C10.0574 14.2514 10.2288 14.422 10.4394 14.422H17.0061C17.2174 14.422 17.3881 14.2507 17.3881 14.04V9.30672C17.3881 9.09538 17.2168 8.92472 17.0061 8.92472H10.4394Z" fill="black"/>
<path d="M4.79818 7.3466H4.37085C4.41152 7.53793 4.50485 7.69133 4.64952 7.80533C4.79352 7.91747 4.96485 7.97333 5.16218 7.97333C5.39218 7.97333 5.58885 7.9 5.75152 7.75333C5.91418 7.60667 5.99552 7.41933 5.99552 7.19133C5.99552 6.986 5.92752 6.81 5.79085 6.66333C5.65418 6.51667 5.48418 6.44333 5.28085 6.44333C5.14418 6.44067 5.01085 6.48133 4.89885 6.55933L4.98418 6.098H5.82418V5.75H4.66418L4.46885 6.91667L4.81085 7.00533C4.88218 6.86267 4.99952 6.79133 5.16218 6.79133C5.21552 6.79027 5.26905 6.8 5.31885 6.81993C5.36885 6.83993 5.41405 6.86947 5.45218 6.90727C5.53358 6.9826 5.57418 7.07727 5.57418 7.19127C5.57418 7.30527 5.53418 7.40193 5.45485 7.48127C5.37552 7.5588 5.27885 7.59727 5.16485 7.59727C5.07952 7.59727 5.00392 7.5748 4.93885 7.52993C4.87552 7.48527 4.82872 7.42393 4.79818 7.3466Z" fill="black"/>
<path d="M8.19752 7.58193V7.92993L7.26552 7.9366V7.5886H7.47952L6.77285 6.91527V7.5886H7.00818V7.9366H6.12152V7.5886H6.35952V6.10193H6.12152V5.75393H7.00818V6.10193H6.77285V6.73993L7.44618 6.10193H7.25085V5.75393H8.15085V6.10193H7.96485L7.19152 6.81527L8.00485 7.58193H8.19752Z" fill="black"/>
</svg>
