<svg width="24" height="24" viewBox="0 0 24 24" fill="none" xmlns="http://www.w3.org/2000/svg">
<path d="M4.91622 7.30032C6.44028 5.00811 9.04419 3.5 12 3.5C14.9558 3.5 17.5597 5.00811 19.0838 7.30032C19.9786 8.64615 20.5 10.261 20.5 12C20.5 13.739 19.9786 15.3538 19.0838 16.6997C17.5597 18.9919 14.9558 20.5 12 20.5C9.04419 20.5 6.44028 18.9919 4.91622 16.6997C4.02139 15.3538 3.5 13.739 3.5 12C3.5 10.261 4.02139 8.64615 4.91622 7.30032ZM12 2C8.52099 2 5.45739 3.77721 3.66712 6.46981C2.61375 8.05409 2 9.95651 2 12C2 14.0435 2.61375 15.9459 3.66712 17.5302C5.45739 20.2228 8.52099 22 12 22C15.479 22 18.5426 20.2228 20.3329 17.5302C21.3863 15.9459 22 14.0435 22 12C22 9.95651 21.3863 8.05409 20.3329 6.46981C18.5426 3.77721 15.479 2 12 2ZM8.24947 9.51219C9.05693 8.29777 10.4354 7.5 11.9999 7.5C13.5644 7.5 14.9429 8.29777 15.7504 9.51219C15.8683 9.68956 15.9739 9.87569 16.0661 10.0693C16.244 10.4434 16.6915 10.6023 17.0656 10.4244C17.4396 10.2464 17.5985 9.79891 17.4206 9.42487C17.2976 9.16632 17.1566 8.91806 16.9995 8.68167C15.9258 7.06687 14.0876 6 11.9999 6C9.91223 6 8.07404 7.06687 7.00037 8.68167C6.84321 8.91806 6.70229 9.16632 6.57927 9.42487C6.40131 9.79891 6.56025 10.2464 6.93429 10.4244C7.30832 10.6023 7.75581 10.4434 7.93377 10.0693C8.02591 9.87569 8.13154 9.68956 8.24947 9.51219ZM7.93377 13.9307C7.75581 13.5566 7.30832 13.3977 6.93429 13.5756C6.56025 13.7536 6.40131 14.2011 6.57927 14.5751C6.70229 14.8337 6.84321 15.0819 7.00037 15.3183C8.07403 16.9331 9.91223 18 11.9999 18C14.0876 18 15.9258 16.9331 16.9995 15.3183C17.1566 15.0819 17.2976 14.8337 17.4206 14.5751C17.5985 14.2011 17.4396 13.7536 17.0656 13.5756C16.6915 13.3977 16.244 13.5566 16.0661 13.9307C15.9739 14.1243 15.8683 14.3104 15.7504 14.4878C14.9429 15.7022 13.5644 16.5 11.9999 16.5C10.4354 16.5 9.05693 15.7022 8.24947 14.4878C8.13154 14.3104 8.02591 14.1243 7.93377 13.9307Z" fill="#212121"/>
</svg>
