<svg width="20" height="20" viewBox="0 0 20 20" fill="none" xmlns="http://www.w3.org/2000/svg">
<path d="M2.45534 7.33338C3.55334 4.22687 6.51597 2 10 2C13.484 2 16.4467 4.22687 17.5447 7.33338C17.8397 8.1681 18 9.06587 18 10C18 10.9341 17.8397 11.8319 17.5447 12.6666C16.4467 15.7731 13.484 18 10 18C6.51597 18 3.55334 15.7731 2.45534 12.6666C2.16031 11.8319 2 10.9341 2 10C2 9.06587 2.16031 8.1681 2.45534 7.33338ZM5.87419 8.20019C6.56905 6.60983 8.15546 5.5 9.99997 5.5C11.8445 5.5 13.4309 6.60983 14.1258 8.20019C14.2363 8.45323 14.5311 8.56874 14.7841 8.45818C15.0372 8.34762 15.1527 8.05286 15.0421 7.79981C14.1939 5.85836 12.2561 4.5 9.99997 4.5C7.74384 4.5 5.80609 5.85836 4.95784 7.79981C4.84728 8.05286 4.96279 8.34762 5.21583 8.45818C5.46887 8.56874 5.76363 8.45323 5.87419 8.20019ZM5.87419 11.7998C5.76363 11.5468 5.46887 11.4313 5.21583 11.5418C4.96279 11.6524 4.84728 11.9471 4.95784 12.2002C5.80609 14.1416 7.74384 15.5 9.99997 15.5C12.2561 15.5 14.1939 14.1416 15.0421 12.2002C15.1527 11.9471 15.0372 11.6524 14.7841 11.5418C14.5311 11.4313 14.2363 11.5468 14.1258 11.7998C13.4309 13.3902 11.8445 14.5 9.99997 14.5C8.15546 14.5 6.56905 13.3902 5.87419 11.7998Z" fill="#212121"/>
</svg>
