<svg width="20" height="20" viewBox="0 0 20 20" fill="none" xmlns="http://www.w3.org/2000/svg">
<path d="M11.5 18C11.7761 18 12 18.2239 12 18.5C12 18.7761 11.7761 19 11.5 19C11.2239 19 11 18.7761 11 18.5C11 18.2239 11.2239 18 11.5 18Z" fill="#212121"/>
<path d="M18.4971 18C18.7732 18 18.9971 18.2239 18.9971 18.5C18.9971 18.7761 18.7732 19 18.4971 19H13.4971C13.2209 19 12.9971 18.7761 12.9971 18.5C12.9971 18.2239 13.2209 18 13.4971 18H18.4971Z" fill="#212121"/>
<path d="M13 2C14.6569 2 16 3.34315 16 5V13H15V5C15 3.89543 14.1046 3 13 3H7C5.89543 3 5 3.89543 5 5V15C5 16.1046 5.89543 17 7 17H10V18H7C5.34315 18 4 16.6569 4 15V5C4 3.34315 5.34315 2 7 2H13Z" fill="#212121"/>
<path d="M11.5 16C11.7761 16 12 16.2239 12 16.5C12 16.7761 11.7761 17 11.5 17C11.2239 17 11 16.7761 11 16.5C11 16.2239 11.2239 16 11.5 16Z" fill="#212121"/>
<path d="M18.4971 16C18.7732 16 18.9971 16.2239 18.9971 16.5C18.9971 16.7761 18.7732 17 18.4971 17H13.4971C13.2209 17 12.9971 16.7761 12.9971 16.5C12.9971 16.2239 13.2209 16 13.4971 16H18.4971Z" fill="#212121"/>
<path d="M10 15H8C7.72386 15 7.5 14.7761 7.5 14.5C7.5 14.2239 7.72386 14 8 14H10V15Z" fill="#212121"/>
<path d="M11.5 14C11.7761 14 12 14.2239 12 14.5C12 14.7761 11.7761 15 11.5 15C11.2239 15 11 14.7761 11 14.5C11 14.2239 11.2239 14 11.5 14Z" fill="#212121"/>
<path d="M18.4971 14C18.7732 14 18.9971 14.2239 18.9971 14.5C18.9971 14.7761 18.7732 15 18.4971 15H13.4971C13.2209 15 12.9971 14.7761 12.9971 14.5C12.9971 14.2239 13.2209 14 13.4971 14H18.4971Z" fill="#212121"/>
<path d="M12 11.5C12.2761 11.5 12.5 11.7239 12.5 12C12.5 12.2761 12.2761 12.5 12 12.5H8C7.72386 12.5 7.5 12.2761 7.5 12C7.5 11.7239 7.72386 11.5 8 11.5H12Z" fill="#212121"/>
<path d="M10 6C10.5523 6 11 6.44772 11 7C11 7.55228 10.5523 8 10 8C9.44772 8 9 7.55228 9 7C9 6.44772 9.44772 6 10 6Z" fill="#212121"/>
<path d="M12.1504 4.5C12.9023 4.5 13.4839 5.15921 13.3906 5.90527L13.0781 8.40527C12.9998 9.03069 12.4682 9.5 11.8379 9.5H8.16211C7.53179 9.5 7.00017 9.03069 6.92188 8.40527L6.60938 5.90527C6.51612 5.15921 7.09774 4.5 7.84961 4.5H12.1504ZM7.84961 5.5C7.69923 5.5 7.58291 5.63204 7.60156 5.78125L7.91406 8.28125C7.92981 8.40624 8.03611 8.5 8.16211 8.5H11.8379C11.9639 8.5 12.0702 8.40624 12.0859 8.28125L12.3984 5.78125C12.4171 5.63204 12.3008 5.5 12.1504 5.5H7.84961Z" fill="#212121"/>
</svg>
