<svg width="20" height="20" viewBox="0 0 20 20" fill="none" xmlns="http://www.w3.org/2000/svg">
<path d="M11.5 18C11.7761 18 12 18.2239 12 18.5C12 18.7761 11.7761 19 11.5 19C11.2239 19 11 18.7761 11 18.5C11 18.2239 11.2239 18 11.5 18Z" fill="#212121"/>
<path d="M18.4971 18C18.7732 18 18.9971 18.2239 18.9971 18.5C18.9971 18.7761 18.7732 19 18.4971 19H13.4971C13.2209 19 12.9971 18.7761 12.9971 18.5C12.9971 18.2239 13.2209 18 13.4971 18H18.4971Z" fill="#212121"/>
<path d="M10 5.5C10.8284 5.5 11.5 6.17157 11.5 7C11.5 7.82843 10.8284 8.5 10 8.5C9.17157 8.5 8.5 7.82843 8.5 7C8.5 6.17157 9.17157 5.5 10 5.5ZM10 6.5C9.72386 6.5 9.5 6.72386 9.5 7C9.5 7.27614 9.72386 7.5 10 7.5C10.2761 7.5 10.5 7.27614 10.5 7C10.5 6.72386 10.2761 6.5 10 6.5Z" fill="#212121"/>
<path d="M13 2C14.6569 2 16 3.34315 16 5V13H11C10.4477 13 10 13.4477 10 14H8C7.72386 14 7.5 14.2239 7.5 14.5C7.5 14.7761 7.72386 15 8 15H10V18H7C5.34315 18 4 16.6569 4 15V5C4 3.34315 5.34315 2 7 2H13ZM8 11.5C7.72386 11.5 7.5 11.7239 7.5 12C7.5 12.2761 7.72386 12.5 8 12.5H12C12.2761 12.5 12.5 12.2761 12.5 12C12.5 11.7239 12.2761 11.5 12 11.5H8ZM7.84961 5C7.39857 5 7.04967 5.39523 7.10547 5.84277L7.41797 8.34277C7.46488 8.71809 7.78387 9 8.16211 9H11.8379C12.2161 9 12.5351 8.71809 12.582 8.34277L12.8945 5.84277C12.9503 5.39523 12.6014 5 12.1504 5H7.84961Z" fill="#212121"/>
<path d="M11.5 16C11.7761 16 12 16.2239 12 16.5C12 16.7761 11.7761 17 11.5 17C11.2239 17 11 16.7761 11 16.5C11 16.2239 11.2239 16 11.5 16Z" fill="#212121"/>
<path d="M18.4971 16C18.7732 16 18.9971 16.2239 18.9971 16.5C18.9971 16.7761 18.7732 17 18.4971 17H13.4971C13.2209 17 12.9971 16.7761 12.9971 16.5C12.9971 16.2239 13.2209 16 13.4971 16H18.4971Z" fill="#212121"/>
<path d="M11.5 14C11.7761 14 12 14.2239 12 14.5C12 14.7761 11.7761 15 11.5 15C11.2239 15 11 14.7761 11 14.5C11 14.2239 11.2239 14 11.5 14Z" fill="#212121"/>
<path d="M18.4971 14C18.7732 14 18.9971 14.2239 18.9971 14.5C18.9971 14.7761 18.7732 15 18.4971 15H13.4971C13.2209 15 12.9971 14.7761 12.9971 14.5C12.9971 14.2239 13.2209 14 13.4971 14H18.4971Z" fill="#212121"/>
</svg>
