<svg width="231" height="160" viewBox="0 0 231 160" fill="none" xmlns="http://www.w3.org/2000/svg">
<path d="M121.996 148.526C159.973 148.526 190.759 117.74 190.759 79.7631C190.759 41.7863 159.973 11 121.996 11C84.0196 11 53.2334 41.7863 53.2334 79.7631C53.2334 117.74 84.0196 148.526 121.996 148.526Z" fill="url(#paint0_linear_6136_5967)"/>
<path d="M184.967 38.0634C187.804 38.0634 190.104 35.7635 190.104 32.9264C190.104 30.0892 187.804 27.7893 184.967 27.7893C182.13 27.7893 179.83 30.0892 179.83 32.9264C179.83 35.7635 182.13 38.0634 184.967 38.0634Z" fill="#5C5C5C"/>
<path d="M192.492 18.0165C194.429 18.0165 196 16.4458 196 14.5082C196 12.5707 194.429 11 192.492 11C190.554 11 188.983 12.5707 188.983 14.5082C188.983 16.4458 190.554 18.0165 192.492 18.0165Z" fill="#5C5C5C"/>
<path d="M50.4096 29.5438C52.3471 29.5438 53.9178 27.9731 53.9178 26.0356C53.9178 24.098 52.3471 22.5273 50.4096 22.5273C48.472 22.5273 46.9014 24.098 46.9014 26.0356C46.9014 27.9731 48.472 29.5438 50.4096 29.5438Z" fill="#5C5C5C"/>
<path d="M42.5153 106.725C46.1135 106.725 49.0305 103.808 49.0305 100.209C49.0305 96.6111 46.1135 93.6941 42.5153 93.6941C38.917 93.6941 36 96.6111 36 100.209C36 103.808 38.917 106.725 42.5153 106.725Z" fill="#5C5C5C"/>
<path d="M157.046 43.8904C157.931 44.775 157.931 46.209 157.046 47.0936L148.143 55.9965C153.306 62.5736 152.857 72.1207 146.796 78.1811L140.739 84.2388C139.854 85.1233 138.42 85.1233 137.536 84.2388L116.698 63.4012C115.814 62.5167 115.814 61.0826 116.698 60.1981L122.756 54.1405C128.816 48.08 138.363 47.6309 144.94 52.7934L153.843 43.8904C154.728 43.0059 156.162 43.0059 157.046 43.8904ZM94.7978 102.936L85.8948 111.839C85.0103 112.724 85.0103 114.158 85.8948 115.042C86.7794 115.927 88.2134 115.927 89.098 115.042L98.0009 106.139C104.578 111.302 114.125 110.853 120.185 104.792L126.243 98.7345C127.128 97.85 127.128 96.4159 126.243 95.5314L123.768 93.056L129.867 86.9568C130.752 86.0722 130.752 84.6381 129.867 83.7536C128.982 82.8691 127.548 82.8691 126.664 83.7536L120.565 89.8529L111.084 80.3723L117.183 74.273C118.068 73.3885 118.068 71.9544 117.183 71.0699C116.299 70.1854 114.865 70.1854 113.98 71.0699L107.881 77.1692L105.406 74.6938C104.521 73.8093 103.087 73.8093 102.202 74.6938L96.1448 80.7515C90.0843 86.812 89.6353 96.359 94.7978 102.936Z" fill="url(#paint1_linear_6136_5967)"/>
<defs>
<linearGradient id="paint0_linear_6136_5967" x1="121.952" y1="7.81889" x2="121.952" y2="150.009" gradientUnits="userSpaceOnUse">
<stop stop-color="#4D4D4D"/>
<stop offset="0.9964" stop-color="#333333"/>
</linearGradient>
<linearGradient id="paint1_linear_6136_5967" x1="121.471" y1="43.2271" x2="121.471" y2="115.706" gradientUnits="userSpaceOnUse">
<stop stop-color="#FAFAFA"/>
<stop offset="0.828125" stop-color="#F5F2EC"/>
</linearGradient>
</defs>
</svg>
