<svg width="231" height="160" viewBox="0 0 231 160" fill="none" xmlns="http://www.w3.org/2000/svg">
<g filter="url(#filter0_d_6136_5957)">
<path d="M121.991 148.526C159.967 148.526 190.754 117.74 190.754 79.763C190.754 41.7862 159.967 10.9999 121.991 10.9999C84.0138 10.9999 53.2275 41.7862 53.2275 79.763C53.2275 117.74 84.0138 148.526 121.991 148.526Z" fill="url(#paint0_linear_6136_5957)"/>
</g>
<path d="M184.979 38.0641C187.816 38.0641 190.116 35.7642 190.116 32.9271C190.116 30.09 187.816 27.79 184.979 27.79C182.142 27.79 179.842 30.09 179.842 32.9271C179.842 35.7642 182.142 38.0641 184.979 38.0641Z" fill="#EBE2D7"/>
<path d="M192.492 18.0163C194.429 18.0163 196 16.4456 196 14.5081C196 12.5706 194.429 10.9999 192.492 10.9999C190.554 10.9999 188.983 12.5706 188.983 14.5081C188.983 16.4456 190.554 18.0163 192.492 18.0163Z" fill="#EBE2D7"/>
<path d="M50.4135 29.5429C52.351 29.5429 53.9217 27.9722 53.9217 26.0347C53.9217 24.0972 52.351 22.5265 50.4135 22.5265C48.476 22.5265 46.9053 24.0972 46.9053 26.0347C46.9053 27.9722 48.476 29.5429 50.4135 29.5429Z" fill="#EBE2D7"/>
<path d="M42.5153 106.724C46.1135 106.724 49.0305 103.807 49.0305 100.209C49.0305 96.6106 46.1135 93.6936 42.5153 93.6936C38.917 93.6936 36 96.6106 36 100.209C36 103.807 38.917 106.724 42.5153 106.724Z" fill="#EBE2D7"/>
<path d="M157.045 43.8902C157.93 44.7747 157.93 46.2088 157.045 47.0933L148.143 55.9963C153.305 62.5734 152.856 72.1204 146.795 78.1809L140.738 84.2385C139.853 85.123 138.419 85.123 137.535 84.2385L116.697 63.401C115.813 62.5164 115.813 61.0824 116.697 60.1978L122.755 54.1402C128.815 48.0797 138.362 47.6307 144.939 52.7931L153.842 43.8902C154.727 43.0057 156.161 43.0057 157.045 43.8902ZM94.7968 102.936L85.8939 111.839C85.0093 112.723 85.0093 114.157 85.8939 115.042C86.7784 115.926 88.2125 115.926 89.097 115.042L97.9999 106.139C104.577 111.301 114.124 110.852 120.185 104.792L126.242 98.7342C127.127 97.8497 127.127 96.4156 126.242 95.5311L123.767 93.0557L129.866 86.9565C130.751 86.0719 130.751 84.6378 129.866 83.7533C128.982 82.8688 127.547 82.8688 126.663 83.7533L120.564 89.8526L111.083 80.372L117.182 74.2727C118.067 73.3882 118.067 71.9541 117.182 71.0696C116.298 70.1851 114.864 70.1851 113.979 71.0696L107.88 77.1689L105.405 74.6935C104.52 73.809 103.086 73.809 102.201 74.6935L96.1438 80.7512C90.0834 86.8117 89.6343 96.3587 94.7968 102.936Z" fill="url(#paint1_linear_6136_5957)"/>
<defs>
<filter id="filter0_d_6136_5957" x="46.9275" y="5.59988" width="150.126" height="150.126" filterUnits="userSpaceOnUse" color-interpolation-filters="sRGB">
<feFlood flood-opacity="0" result="BackgroundImageFix"/>
<feColorMatrix in="SourceAlpha" type="matrix" values="0 0 0 0 0 0 0 0 0 0 0 0 0 0 0 0 0 0 127 0" result="hardAlpha"/>
<feOffset dy="0.9"/>
<feGaussianBlur stdDeviation="3.15"/>
<feColorMatrix type="matrix" values="0 0 0 0 0.576471 0 0 0 0 0.501961 0 0 0 0 0.396078 0 0 0 0.37 0"/>
<feBlend mode="normal" in2="BackgroundImageFix" result="effect1_dropShadow_6136_5957"/>
<feBlend mode="normal" in="SourceGraphic" in2="effect1_dropShadow_6136_5957" result="shape"/>
</filter>
<linearGradient id="paint0_linear_6136_5957" x1="121.946" y1="7.81877" x2="121.946" y2="150.009" gradientUnits="userSpaceOnUse">
<stop stop-color="#FDFEFF"/>
<stop offset="0.9964" stop-color="#F5F2EC"/>
</linearGradient>
<linearGradient id="paint1_linear_6136_5957" x1="120.798" y1="32.2247" x2="121.984" y2="86.4149" gradientUnits="userSpaceOnUse">
<stop stop-color="#E1DAD0"/>
<stop offset="1" stop-color="#CCC1B1"/>
</linearGradient>
</defs>
</svg>
