<svg xmlns="http://www.w3.org/2000/svg" width="231" height="160" fill="none" viewBox="0 0 231 160">
  <path fill="#EBE2D7" d="m197.974 75.6311 2.085-.9274c.695-.2319.695-1.1593 0-1.3912l-2.085-.9274c-2.549-1.1593-4.634-3.2461-5.793-5.7966l-.927-2.0867c-.231-.6956-1.158-.6956-1.39 0l-.927 2.0867c-1.158 2.5505-3.243 4.6373-5.792 5.7966l-2.085.9274c-.695.2319-.695 1.1593 0 1.3912l2.085.9274c2.549 1.1593 4.634 3.2461 5.792 5.7965l.927 2.0868c.232.6956 1.159.6956 1.39 0l.927-2.0868c.927-2.5504 3.012-4.6372 5.793-5.7965ZM191.785 109.078l1.39-.696c.463-.232.463-.696 0-.928l-1.39-.463c-1.854-.696-3.244-2.087-3.939-3.942l-.695-1.391c-.232-.464-.695-.464-.927 0l-.463 1.391c-.927 1.855-2.317 3.246-3.939 3.942l-1.622.695c-.231 0-.231.696 0 .696l1.39.696c1.854.695 3.244 2.086 4.171 3.941l.695 1.391c.232.464.695.464.927 0l.463-1.391c.695-1.855 2.085-3.246 3.939-3.941ZM47.8866 133.959l2.0852-.927c.6951-.232.6951-1.159 0-1.391l-2.0852-.928c-2.5487-1.159-4.6339-3.246-5.7924-5.796l-.9267-2.087c-.2317-.696-1.1585-.696-1.3902 0l-.9268 2.087c-1.1585 2.55-3.2437 4.637-5.7923 5.796l-2.0853.928c-.6951.232-.6951 1.159 0 1.391l2.0853.927c2.5486 1.16 4.6338 3.246 5.7923 5.797l.9268 2.087c.2317.695 1.1585.695 1.3902 0l.9267-2.087c.9268-2.551 3.0121-4.637 5.7924-5.797ZM48.7267 30.3345l1.3902-.6956c.4634-.2319.4634-.6956 0-.9275l-1.3902-.4637c-1.8535-.6956-3.2437-2.0867-3.9388-3.9416l-.695-1.3912c-.2317-.4637-.6951-.4637-.9268 0l-.4634 1.3912c-.9268 1.8549-2.317 3.246-3.9388 3.9416l-1.6219.6956c-.2317 0-.2317.6956 0 .6956l1.3902.6956c1.8535.6956 3.2437 2.0867 4.1705 3.9416l.6951 1.3912c.2317.4637.6951.4637.9267 0l.4634-1.3912c.6951-1.8549 2.0853-3.246 3.9388-3.9416ZM66.5664 13.9704l1.1585-.4637c.2317-.2319.2317-.4637 0-.6956l-1.1585-.4637c-1.3902-.4637-2.3169-1.623-3.012-3.0142l-.4634-1.1593c-.2317-.2319-.4634-.2319-.6951 0l-.4634 1.1593c-.4634 1.3912-1.6218 2.3186-3.012 3.0142l-.6951.4637c-.4634.2319-.4634.6956 0 .6956l1.1585.4637c1.3901.4637 2.3169 1.623 3.012 3.0142l.4634 1.1593c.2317.2319.4634.2319.6951 0l.4634-1.1593c.2317-1.3912 1.3901-2.5505 2.5486-3.0142Z"/>
  <path fill="#fff" d="M115.557 144.8c30.857 0 55.87-25.014 55.87-55.8699 0-30.8562-25.013-55.87-55.87-55.87-30.8558 0-55.8696 25.0138-55.8696 55.87 0 30.8559 25.0138 55.8699 55.8696 55.8699Z"/>
  <g filter="url(#filter0_d_3871_354031)">
    <path fill="url(#paint0_linear_3871_354031)" d="M115.557 144.8c30.857 0 55.87-25.014 55.87-55.8699 0-30.8562-25.013-55.87-55.87-55.87-30.8558 0-55.8696 25.0138-55.8696 55.87 0 30.8559 25.0138 55.8699 55.8696 55.8699Z"/>
  </g>
  <path fill="url(#paint1_linear_3871_354031)" d="M105.669 114.517c-1.446 0-2.807-.532-3.913-1.683L82.9582 93.2594c-2.1265-2.2143-2.1265-5.9344 0-8.1487 2.1265-2.2143 5.699-2.2143 7.8255 0l14.8853 15.5003 35.045-36.4035c2.126-2.2143 5.699-2.2143 7.825 0 2.127 2.2143 2.127 5.9344 0 8.1487l-38.957 40.4778c-1.021 1.151-2.467 1.683-3.913 1.683Z"/>
  <defs>
    <linearGradient id="paint0_linear_3871_354031" x1="115.521" x2="115.521" y1="30.4754" y2="146.005" gradientUnits="userSpaceOnUse">
      <stop stop-color="#FDFEFF"/>
      <stop offset=".9964" stop-color="#F5F2EC"/>
    </linearGradient>
    <linearGradient id="paint1_linear_3871_354031" x1="115.111" x2="115.754" y1="54.6577" y2="93.5224" gradientUnits="userSpaceOnUse">
      <stop stop-color="#E1DAD0"/>
      <stop offset="1" stop-color="#CCC1B1"/>
    </linearGradient>
    <filter id="filter0_d_3871_354031" width="124.34" height="124.34" x="53.3874" y="27.6601" color-interpolation-filters="sRGB" filterUnits="userSpaceOnUse">
      <feFlood flood-opacity="0" result="BackgroundImageFix"/>
      <feColorMatrix in="SourceAlpha" result="hardAlpha" values="0 0 0 0 0 0 0 0 0 0 0 0 0 0 0 0 0 0 127 0"/>
      <feOffset dy=".9"/>
      <feGaussianBlur stdDeviation="3.15"/>
      <feColorMatrix values="0 0 0 0 0.576471 0 0 0 0 0.501961 0 0 0 0 0.396078 0 0 0 0.37 0"/>
      <feBlend in2="BackgroundImageFix" result="effect1_dropShadow_3871_354031"/>
      <feBlend in="SourceGraphic" in2="effect1_dropShadow_3871_354031" result="shape"/>
    </filter>
  </defs>
</svg>
