<svg xmlns="http://www.w3.org/2000/svg" width="231" height="160" fill="none" viewBox="0 0 231 160">
  <path fill="url(#paint0_linear_3831_4738)" d="M179.539 119.503H46.4803c8.4362-18.792 34.9793-32.5097 66.5287-32.5097 31.482-.0686 58.093 13.6487 66.53 32.5097Z"/>
  <path stroke="#3A3A3A" stroke-linecap="round" stroke-linejoin="round" stroke-miterlimit="10" stroke-width="2.43" d="M193.462 119.503h13.992M32.7635 119.503H186.466M74.8068 128.625H191.61M48.0583 128.625h19.2729"/>
  <path fill="#878787" fill-rule="evenodd" d="M179.925 40.0209c.904 1.009.819 2.5597-.19 3.4635-17.344 15.5356-27.273 34.0795-28.336 56.9966-.063 1.354-1.21 2.4-2.564 2.337-1.353-.063-2.399-1.211-2.336-2.564 1.132-24.4073 11.779-44.1349 29.963-60.4236 1.009-.9038 2.56-.8186 3.463.1905ZM50.5112 50.7631c-.8841 1.0264-.7686 2.5751.2578 3.4592C64.1374 65.736 71.9047 79.6049 73.045 96.9064c.089 1.3517 1.257 2.3752 2.6088 2.2862 1.3517-.0891 2.3752-1.2571 2.2861-2.6088-1.2383-18.7898-9.7459-33.8283-23.9695-46.0786-1.0265-.884-2.5752-.7686-3.4592.2579Z" clip-rule="evenodd"/>
  <path fill="#585858" d="M179.128 41.7258s-5.076-5.6927-11.454-11.2482l.96-2.332-3.087.5487c-2.126-1.7832-4.389-3.4979-6.653-4.8696 4.39-2.6063 8.162-2.332 11.592-.1372 6.241 3.8409 7.887 11.3168 8.642 18.0383ZM51.5854 52.4314s3.7896-4.4208 8.5759-8.7562l-.7676-1.7657 2.364.3729c1.5965-1.3928 3.2986-2.7352 5.0059-3.8159-3.3893-1.9242-6.2647-1.6588-8.8497.0675-4.7071 3.0246-5.8525 8.7556-6.3285 13.8974Z"/>
  <path fill="#585858" d="M177.001 40.6287s-6.31-1.6461-13.443-2.6063l-.412-2.1262-1.92 1.8518c-2.401-.2743-4.801-.4115-6.996-.3429 1.921-3.9095 4.664-5.487 8.231-5.5555 6.104-.2058 10.836 4.3895 14.54 8.7791ZM53.1919 51.5621s4.792-1.3503 10.2225-2.1892l.2825-1.6291 1.4934 1.385c1.8283-.2451 3.6587-.3855 5.335-.3658-1.524-2.9556-3.6416-4.1189-6.365-4.1183-4.6625-.0663-8.2066 3.5117-10.9684 6.9174ZM178.373 42.9605s-.137-8.0932-1.44-16.8723l2.4-1.166-2.812-1.6461c-.48-2.8806-1.166-5.8298-1.989-8.4361 5.281.9602 8.093 3.7037 9.397 7.8874 2.194 7.2017-1.646 14.3347-5.556 20.2331ZM52.1795 53.3628s-.0156-6.1797.8487-12.9003l-1.8497-.8544 2.122-1.2982c.3236-2.206.8034-4.4674 1.3929-6.4691-4.017.8115-6.1227 2.9474-7.0552 6.1603-1.5683 5.5297 1.4695 10.9174 4.5413 15.3617Z"/>
  <path fill="#585858" d="M177.069 42.343s4.939 5.8299 9.603 12.8943l2.4-.6858-.96 2.9492c1.44 2.4005 2.812 4.8697 3.909 7.2702 3.155-3.978 3.43-7.7503 1.715-11.5226-2.949-6.5157-10.151-9.1906-16.667-10.9053ZM53.1652 52.8723s-3.6828 4.5234-7.1379 9.9852l-1.8425-.4879.7767 2.2369c-1.0637 1.8538-2.0741 3.7589-2.8761 5.6076-2.4673-2.9896-2.7328-5.865-1.48-8.7699 2.1543-5.0174 7.6117-7.1662 12.5598-8.5719ZM177.276 41.5204s7.956 1.2345 16.529 3.7722l1.509-2.1947 1.234 3.0178c2.812.8916 5.625 1.9204 8.094 3.155-.206-5.3498-2.538-8.5734-6.516-10.4252-6.859-3.2922-14.472-.4801-20.85 2.6749ZM52.9956 52.2469s-6.0546 1.0606-12.5611 3.1251l-1.1844-1.6529-.8975 2.3219c-2.1332.7224-4.2644 1.5495-6.1308 2.5285.0775-4.0866 1.8097-6.5819 4.8186-8.0545 5.1864-2.6149 11.0395-.5816 15.9552 1.7319Z"/>
  <path fill="url(#paint1_linear_3831_4738)" d="M179.753 39.3216c1.192-1.1916 1.192-3.1235 0-4.315-1.191-1.1916-3.123-1.1916-4.315 0-1.191 1.1915-1.191 3.1234 0 4.315 1.192 1.1915 3.124 1.1915 4.315 0Z"/>
  <path fill="url(#paint2_linear_3831_4738)" d="M51.0717 50.6055c-.9272-.8918-.9559-2.3665-.0641-3.2937.8918-.9273 2.3665-.956 3.2937-.0642.9273.8919.956 2.3665.0641 3.2937-.8918.9273-2.3664.956-3.2937.0642Z"/>
  <path fill="url(#paint3_linear_3831_4738)" d="M184.08 44.3044c1.679-1.679 1.679-4.4012 0-6.0802-1.679-1.679-4.401-1.679-6.08 0-1.679 1.679-1.679 4.4012 0 6.0802 1.679 1.679 4.401 1.679 6.08 0Z"/>
  <path fill="url(#paint4_linear_3831_4738)" d="M47.8431 54.5861c-1.3065-1.2566-1.347-3.3345-.0903-4.6411 1.2566-1.3066 3.3345-1.347 4.6411-.0904 1.3066 1.2567 1.347 3.3346.0904 4.6411-1.2567 1.3066-3.3346 1.3471-4.6412.0904Z"/>
  <path fill="url(#paint5_linear_3831_4738)" d="M177.91 43.826c1.083-1.0832 1.083-2.8395 0-3.9227-1.083-1.0833-2.839-1.0833-3.923 0-1.083 1.0832-1.083 2.8395 0 3.9227 1.084 1.0832 2.84 1.0832 3.923 0Z"/>
  <path fill="url(#paint6_linear_3831_4738)" d="M52.5454 54.1294c-.8429-.8108-.869-2.1513-.0583-2.9943.8108-.8429 2.1514-.869 2.9943-.0583.8429.8108.869 2.1513.0583 2.9943-.8107.8429-2.1513.869-2.9943.0583Z"/>
  <path stroke="#777" stroke-linecap="round" stroke-linejoin="round" stroke-miterlimit="10" stroke-width=".81" d="M61.1583 113.056c2.2634-.48 4.6639.206 6.3786 1.715M85.3695 105.58c2.1262-.823 4.2524-1.508 6.5157-2.057 1.3718-.343 2.8121-.549 4.1838-.275 1.3718.275 2.6749 1.304 2.9493 2.675M116.302 108.529c2.812-3.429 7.887-4.732 12.003-3.155.891.343 1.714.823 2.675.755 1.028-.069 1.851-.755 2.606-1.44.754-.686 1.44-1.441 2.4-1.852.961-.343 2.195-.137 2.675.754M143.668 112.233c3.498-2.4 8.093-3.155 12.208-2.126M79.6082 98.1046c.2057-1.0973 1.5089-1.7146 2.6748-1.5774 1.166.0685 2.1948.6172 3.3608.823 1.5089.2743 3.0864-.1372 4.321-1.0974M64.6561 108.461c2.2634.137 4.5953-.617 6.4472-1.92M123.298 97.2125c2.263-.343 4.595 0 6.584 1.0288" opacity=".4"/>
  <path fill="#3A3A3A" d="M111.981 94.9493c9.887 0 17.901-1.2419 17.901-2.7739 0-1.532-8.014-2.7739-17.901-2.7739-9.886 0-17.9009 1.2419-17.9009 2.7739 0 1.532 8.0149 2.7739 17.9009 2.7739Z" opacity=".6"/>
  <path stroke="#3A3A3A" stroke-linecap="round" stroke-linejoin="round" stroke-miterlimit="10" stroke-width="2.43" d="M93.8843 137.96h62.2997"/>
  <path fill="#E9F0F8" d="M135.148 66.9905c0 6.4751-2.587 12.2308-6.613 16.5476-.287.4316-.719.7194-1.15 1.0072-4.313 4.029-10.063 6.4752-16.389 6.4752-5.032 0-9.776-1.5828-13.6575-4.3168-1.1501-.7195-2.1564-1.7267-3.1628-2.5901-4.4566-4.3167-7.1882-10.3602-7.1882-17.1231 0-13.2381 10.7823-24.0301 24.0085-24.0301 13.37 0 24.152 10.792 24.152 24.0301Z"/>
  <g filter="url(#filter0_d_3831_4738)">
    <path fill="#5C5C5C" d="M135.148 66.9891c0 7.0508-3.019 13.2381-7.763 17.6988-4.313 4.029-10.063 6.4751-16.389 6.4751-5.032 0-9.776-1.5828-13.6575-4.3167-6.3256-4.3168-10.351-11.5114-10.351-19.7133 0-13.2381 10.7823-24.03 24.0085-24.03 13.226 0 24.152 10.6481 24.152 23.8861Z"/>
  </g>
  <path fill="#CCC" d="M128.536 83.5381c-.288.4317-.719.7195-1.15 1.0073-4.313 4.0289-10.064 6.4751-16.39 6.4751-5.031 0-9.775-1.5828-13.657-4.3168-1.1502-.7194-2.1565-1.7267-3.1629-2.59.5751-.7195 1.4377-1.1512 3.3066-1.8706l.7188-.2878c1.4377-.5756 3.4505-1.295 6.0385-2.4462.431-.1439.718-.4317 1.006-.7194.144-.1439.287-.2878.287-.5756.144-.2878.288-.7195.288-1.0073v-4.8923l-.288-.2878c-.431-.5755-.718-1.295-.718-2.1584l-.288-.1439c-1.294.2878-1.15-1.0072-1.438-3.5973-.143-1.0072 0-1.295.576-1.4389l.431-.5756c-.863-2.0144-1.294-3.885-1.294-5.324 0-2.4461 1.006-4.0289 2.444-4.7484-.863-1.7267-.863-2.3023-.863-2.3023s5.032.8634 6.757.5756c2.157-.4317 5.607.1439 6.901 3.0217 2.156.8634 2.875 2.1584 3.163 3.5973.287 2.3023-1.007 4.7485-1.294 5.7557v.1439c.287.1439.431.4317.287 1.4389-.287 2.4462-.287 3.8851-1.437 3.5973l-1.15 2.0145c0 .2878 0 .2878-.144.4317v5.0362c0 .4317.144 1.0073.431 1.2951.144.1439.144.2878.288.2878.287.2877.575.5755.862.5755 2.876 1.1512 4.888 2.0145 6.47 2.5901 1.437.5755 2.444 1.0072 3.019 1.4389Z"/>
  <path fill="#777" d="M128.536 83.5382c-.288.4317-.719.7195-1.15 1.0073-4.313 4.029-10.064 6.4751-16.39 6.4751-5.031 0-9.775-1.5828-13.657-4.3167-1.1502-.7195-2.1565-1.7267-3.1629-2.5901.5751-.7195 1.4377-1.1511 3.3066-1.8706l.7188-.2878c1.4377-.5755 3.4505-1.295 6.0385-2.4461.431-.1439.718-.4317 1.006-.7195 1.438 2.0145 3.738 3.3095 6.469 3.3095 2.588 0 4.888-1.295 6.326-3.1656.287.2878.575.5756.862.5756 2.876 1.1511 4.888 2.0144 6.47 2.59 1.581.5756 2.588 1.0073 3.163 1.4389Z"/>
  <path fill="#3A3A3A" d="M119.766 64.5445c.144-.5756-.143-1.439-.431-1.8707 0-.1438-.144-.1438-.144-.2877-1.006-2.0145-3.162-2.734-5.175-2.8779-5.319-.2878-5.751.7195-7.332-.7194.575.7194.575 2.0145-.288 3.4534-.575 1.0072-1.581 1.5828-2.587 1.8706-2.444-5.4679-1.151-8.9214 1.15-10.0725-.863-1.7267-.863-2.3023-.863-2.3023s5.032.8634 6.757.5756c2.156-.4317 5.607.1439 6.901 3.0217 2.156.8634 2.875 2.1584 3.162 3.5974.432 2.1583-.862 4.6045-1.15 5.6118Z"/>
  <path fill="url(#paint7_linear_3831_4738)" d="M105.965 77.2068v-4.8923l-.288-.2878v-.2878c.288.4317.575.8633 1.006 1.1511l3.882 2.734c.863.7194 2.157.7194 3.019 0l3.594-3.1656c.144-.1439.288-.1439.432-.2878v5.0362c0 .2878 0 .4317.143.7195h-11.788c-.144-.2878 0-.4317 0-.7195Z"/>
  <defs>
    <linearGradient id="paint0_linear_3831_4738" x1="113.009" x2="113.009" y1="86.993" y2="119.503" gradientUnits="userSpaceOnUse">
      <stop stop-color="#585858"/>
      <stop offset="1" stop-color="#3B3B3B"/>
      <stop offset="1" stop-color="#454545"/>
    </linearGradient>
    <linearGradient id="paint1_linear_3831_4738" x1="175.438" x2="179.753" y1="35.0066" y2="39.3216" gradientUnits="userSpaceOnUse">
      <stop stop-color="#A6A6A6"/>
      <stop offset="1" stop-color="#878787"/>
      <stop offset="1" stop-color="#878787"/>
    </linearGradient>
    <linearGradient id="paint2_linear_3831_4738" x1="54.3013" x2="51.0717" y1="47.2476" y2="50.6055" gradientUnits="userSpaceOnUse">
      <stop stop-color="#A6A6A6"/>
      <stop offset="1" stop-color="#878787"/>
      <stop offset="1" stop-color="#878787"/>
    </linearGradient>
    <linearGradient id="paint3_linear_3831_4738" x1="178" x2="184.08" y1="38.2242" y2="44.3044" gradientUnits="userSpaceOnUse">
      <stop stop-color="#A6A6A6"/>
      <stop offset="1" stop-color="#878787"/>
      <stop offset="1" stop-color="#878787"/>
    </linearGradient>
    <linearGradient id="paint4_linear_3831_4738" x1="52.3939" x2="47.8431" y1="49.8546" y2="54.5861" gradientUnits="userSpaceOnUse">
      <stop stop-color="#A6A6A6"/>
      <stop offset="1" stop-color="#878787"/>
      <stop offset="1" stop-color="#878787"/>
    </linearGradient>
    <linearGradient id="paint5_linear_3831_4738" x1="173.987" x2="177.91" y1="39.9033" y2="43.826" gradientUnits="userSpaceOnUse">
      <stop stop-color="#A6A6A6"/>
      <stop offset="1" stop-color="#878787"/>
      <stop offset="1" stop-color="#878787"/>
    </linearGradient>
    <linearGradient id="paint6_linear_3831_4738" x1="55.4814" x2="52.5454" y1="51.0768" y2="54.1294" gradientUnits="userSpaceOnUse">
      <stop stop-color="#A6A6A6"/>
      <stop offset="1" stop-color="#878787"/>
      <stop offset="1" stop-color="#878787"/>
    </linearGradient>
    <linearGradient id="paint7_linear_3831_4738" x1="111.692" x2="111.692" y1="77.7336" y2="74.4926" gradientUnits="userSpaceOnUse">
      <stop stop-color="#CCC"/>
      <stop offset=".9913" stop-color="#AAA"/>
    </linearGradient>
    <filter id="filter0_d_3831_4738" width="83.8008" height="83.7001" x="69.1675" y="34.193" color-interpolation-filters="sRGB" filterUnits="userSpaceOnUse">
      <feFlood flood-opacity="0" result="BackgroundImageFix"/>
      <feColorMatrix in="SourceAlpha" result="hardAlpha" values="0 0 0 0 0 0 0 0 0 0 0 0 0 0 0 0 0 0 127 0"/>
      <feOffset dy="8.91"/>
      <feGaussianBlur stdDeviation="8.91"/>
      <feColorMatrix values="0 0 0 0 0 0 0 0 0 0 0 0 0 0 0 0 0 0 0.27 0"/>
      <feBlend in2="BackgroundImageFix" result="effect1_dropShadow_3831_4738"/>
      <feBlend in="SourceGraphic" in2="effect1_dropShadow_3831_4738" result="shape"/>
    </filter>
  </defs>
</svg>
