<svg width="231" height="160" viewBox="0 0 231 160" fill="none" xmlns="http://www.w3.org/2000/svg">
<g filter="url(#filter0_d_3831_4694)">
<path d="M176.126 113.479C177.989 116.155 175.869 119.503 172.608 119.503H53.445C50.1813 119.503 48.062 116.151 49.9314 113.476C60.8511 97.8486 84.9552 86.9933 113.021 86.9933C141.041 86.9323 165.203 97.7919 176.126 113.479Z" fill="url(#paint0_linear_3831_4694)"/>
</g>
<path d="M193.462 119.503H207.454" stroke="#E4DFD9" stroke-width="1.62" stroke-miterlimit="10" stroke-linecap="round" stroke-linejoin="round"/>
<path d="M32.7635 119.503H186.466" stroke="#E4DFD9" stroke-width="1.62" stroke-miterlimit="10" stroke-linecap="round" stroke-linejoin="round"/>
<path d="M74.8068 128.625H191.61" stroke="#E4DFD9" stroke-width="1.62" stroke-miterlimit="10" stroke-linecap="round" stroke-linejoin="round"/>
<path d="M48.0582 128.625H67.3311" stroke="#E4DFD9" stroke-width="1.62" stroke-miterlimit="10" stroke-linecap="round" stroke-linejoin="round"/>
<path fill-rule="evenodd" clip-rule="evenodd" d="M179.925 40.0209C180.829 41.0299 180.744 42.5806 179.735 43.4844C162.391 59.02 152.462 77.5639 151.399 100.481C151.336 101.835 150.189 102.881 148.835 102.818C147.482 102.755 146.436 101.607 146.499 100.254C147.631 75.8467 158.278 56.1191 176.462 39.8304C177.471 38.9266 179.022 39.0118 179.925 40.0209Z" fill="#E8DFD3"/>
<path d="M179.128 41.7258C179.128 41.7258 174.052 36.0331 167.674 30.4776L168.634 28.1456L165.547 28.6943C163.421 26.9111 161.158 25.1964 158.894 23.8247C163.284 21.2184 167.056 21.4927 170.486 23.6875C176.727 27.5284 178.373 35.0043 179.128 41.7258Z" fill="#E8DFD3"/>
<path d="M177.001 40.6287C177.001 40.6287 170.691 38.9826 163.558 38.0224L163.146 35.8962L161.226 37.748C158.825 37.4737 156.425 37.3365 154.23 37.4051C156.151 33.4956 158.894 31.9181 162.461 31.8496C168.565 31.6438 173.297 36.2391 177.001 40.6287Z" fill="#E8DFD3"/>
<path d="M178.373 42.9605C178.373 42.9605 178.236 34.8673 176.933 26.0882L179.333 24.9222L176.521 23.2761C176.041 20.3955 175.355 17.4463 174.532 14.84C179.813 15.8002 182.625 18.5437 183.929 22.7274C186.123 29.9291 182.283 37.0621 178.373 42.9605Z" fill="#E8DFD3"/>
<path d="M177.069 42.343C177.069 42.343 182.008 48.1729 186.672 55.2373L189.072 54.5515L188.112 57.5007C189.552 59.9012 190.924 62.3704 192.021 64.7709C195.176 60.7929 195.451 57.0206 193.736 53.2483C190.787 46.7326 183.585 44.0577 177.069 42.343Z" fill="#E8DFD3"/>
<path d="M177.276 41.5204C177.276 41.5204 185.232 42.7549 193.805 45.2926L195.314 43.0979L196.548 46.1157C199.36 47.0073 202.173 48.0361 204.642 49.2707C204.436 43.9209 202.104 40.6973 198.126 38.8455C191.267 35.5533 183.654 38.3654 177.276 41.5204Z" fill="#E8DFD3"/>
<path fill-rule="evenodd" clip-rule="evenodd" d="M50.5113 50.7631C49.6273 51.7895 49.7427 53.3382 50.7691 54.2223C64.1375 65.736 71.9048 79.6049 73.0451 96.9064C73.1342 98.2581 74.3022 99.2816 75.6539 99.1926C77.0056 99.1035 78.0292 97.9355 77.9401 96.5838C76.7017 77.794 68.1941 62.7555 53.9705 50.5052C52.9441 49.6212 51.3953 49.7366 50.5113 50.7631Z" fill="#E8DFD3"/>
<path d="M51.5853 52.4314C51.5853 52.4314 55.3748 48.0106 60.1611 43.6752L59.3935 41.9095L61.7576 42.2824C63.354 40.8896 65.0562 39.5472 66.7635 38.4665C63.3741 36.5423 60.4988 36.8077 57.9137 38.534C53.2067 41.5586 52.0613 47.2896 51.5853 52.4314Z" fill="#E8DFD3"/>
<path d="M53.1917 51.5621C53.1917 51.5621 57.9838 50.2118 63.4143 49.3729L63.6968 47.7438L65.1902 49.1288C67.0185 48.8837 68.8488 48.7433 70.5252 48.763C69.0012 45.8074 66.8836 44.6441 64.1602 44.6447C59.4977 44.5784 55.9536 48.1564 53.1917 51.5621Z" fill="#E8DFD3"/>
<path d="M52.1794 53.3628C52.1794 53.3628 52.1638 47.1831 53.028 40.4625L51.1783 39.6081L53.3004 38.3099C53.624 36.1039 54.1037 33.8425 54.6932 31.8408C50.6763 32.6523 48.5706 34.7882 47.638 38.0011C46.0698 43.5308 49.1076 48.9185 52.1794 53.3628Z" fill="#E8DFD3"/>
<path d="M53.165 52.8723C53.165 52.8723 49.4822 57.3957 46.0272 62.8575L44.1846 62.3696L44.9614 64.6065C43.8977 66.4603 42.8873 68.3654 42.0853 70.2141C39.6179 67.2245 39.3525 64.3491 40.6052 61.4442C42.7596 56.4268 48.2169 54.278 53.165 52.8723Z" fill="#E8DFD3"/>
<path d="M52.9955 52.2469C52.9955 52.2469 46.9408 53.3075 40.4344 55.372L39.25 53.7191L38.3525 56.041C36.2192 56.7634 34.088 57.5905 32.2217 58.5695C32.2992 54.4829 34.0313 51.9876 37.0403 50.515C42.2267 47.9001 48.0797 49.9334 52.9955 52.2469Z" fill="#E8DFD3"/>
<path d="M179.753 39.3216C180.945 38.13 180.945 36.1981 179.753 35.0066C178.562 33.815 176.63 33.815 175.438 35.0066C174.247 36.1981 174.247 38.13 175.438 39.3216C176.63 40.5131 178.562 40.5131 179.753 39.3216Z" fill="url(#paint1_linear_3831_4694)"/>
<path d="M184.08 44.3044C185.759 42.6254 185.759 39.9032 184.08 38.2242C182.401 36.5452 179.679 36.5452 178 38.2242C176.321 39.9032 176.321 42.6254 178 44.3044C179.679 45.9834 182.401 45.9834 184.08 44.3044Z" fill="url(#paint2_linear_3831_4694)"/>
<path d="M177.91 43.826C178.993 42.7428 178.993 40.9865 177.91 39.9033C176.827 38.82 175.071 38.82 173.987 39.9033C172.904 40.9865 172.904 42.7428 173.987 43.826C175.071 44.9092 176.827 44.9092 177.91 43.826Z" fill="url(#paint3_linear_3831_4694)"/>
<path d="M51.0716 50.6055C50.1444 49.7137 50.1157 48.239 51.0075 47.3118C51.8993 46.3845 53.3739 46.3558 54.3012 47.2476C55.2284 48.1395 55.2571 49.6141 54.3653 50.5413C53.4735 51.4686 51.9989 51.4973 51.0716 50.6055Z" fill="url(#paint4_linear_3831_4694)"/>
<path d="M47.8431 54.4733C46.5366 53.2167 46.4961 51.1388 47.7528 49.8322C49.0094 48.5256 51.0873 48.4852 52.3939 49.7418C53.7005 50.9985 53.7409 53.0764 52.4843 54.383C51.2276 55.6895 49.1497 55.73 47.8431 54.4733Z" fill="url(#paint5_linear_3831_4694)"/>
<path d="M52.5454 54.0163C51.7025 53.2056 51.6764 51.865 52.4871 51.0221C53.2979 50.1791 54.6385 50.153 55.4814 50.9638C56.3243 51.7745 56.3504 53.1151 55.5397 53.9581C54.729 54.801 53.3884 54.8271 52.5454 54.0163Z" fill="url(#paint6_linear_3831_4694)"/>
<path opacity="0.8" d="M61.1582 113.056C63.4216 112.576 65.8221 113.262 67.5368 114.771" stroke="#E5DFD6" stroke-width="0.81" stroke-miterlimit="10" stroke-linecap="round" stroke-linejoin="round"/>
<path opacity="0.8" d="M85.3695 105.58C87.4957 104.757 89.6219 104.072 91.8852 103.523C93.257 103.18 94.6973 102.974 96.069 103.248C97.4408 103.523 98.7439 104.552 99.0183 105.923" stroke="#E5DFD6" stroke-width="0.81" stroke-miterlimit="10" stroke-linecap="round" stroke-linejoin="round"/>
<path opacity="0.8" d="M116.302 108.529C119.114 105.1 124.19 103.797 128.305 105.374C129.196 105.717 130.019 106.197 130.98 106.129C132.008 106.06 132.832 105.374 133.586 104.689C134.34 104.003 135.026 103.248 135.987 102.837C136.947 102.494 138.181 102.7 138.661 103.591" stroke="#E5DFD6" stroke-width="0.81" stroke-miterlimit="10" stroke-linecap="round" stroke-linejoin="round"/>
<path opacity="0.8" d="M143.668 112.233C147.166 109.833 151.761 109.078 155.876 110.107" stroke="#E5DFD6" stroke-width="0.81" stroke-miterlimit="10" stroke-linecap="round" stroke-linejoin="round"/>
<path opacity="0.8" d="M79.6082 98.1046C79.8139 97.0073 81.1171 96.39 82.283 96.5272C83.449 96.5957 84.4778 97.1444 85.6438 97.3502C87.1527 97.6245 88.7302 97.213 89.9648 96.2528" stroke="#E5DFD6" stroke-width="0.81" stroke-miterlimit="10" stroke-linecap="round" stroke-linejoin="round"/>
<path opacity="0.8" d="M64.656 108.461C66.9194 108.598 69.2513 107.844 71.1032 106.541" stroke="#E5DFD6" stroke-width="0.81" stroke-miterlimit="10" stroke-linecap="round" stroke-linejoin="round"/>
<path opacity="0.8" d="M123.298 97.2125C125.561 96.8695 127.893 97.2125 129.882 98.2413" stroke="#E5DFD6" stroke-width="0.81" stroke-miterlimit="10" stroke-linecap="round" stroke-linejoin="round"/>
<path opacity="0.6" d="M111.981 94.9493C121.868 94.9493 129.882 93.7074 129.882 92.1754C129.882 90.6434 121.868 89.4015 111.981 89.4015C102.095 89.4015 94.0801 90.6434 94.0801 92.1754C94.0801 93.7074 102.095 94.9493 111.981 94.9493Z" fill="#D9D2C7"/>
<path d="M93.8843 137.96H156.184" stroke="#E4DFD9" stroke-width="1.62" stroke-miterlimit="10" stroke-linecap="round" stroke-linejoin="round"/>
<path d="M136.375 67.9726C136.375 74.4478 133.787 80.2035 129.762 84.5202C129.474 84.9519 129.043 85.2397 128.612 85.5275C124.299 89.5565 118.548 92.0026 112.223 92.0026C107.191 92.0026 102.447 90.4198 98.565 87.6859C97.4149 86.9664 96.4085 85.9592 95.4022 85.0958C90.9455 80.779 88.214 74.7356 88.214 67.9726C88.214 54.7345 98.9963 43.9426 112.223 43.9426C125.593 43.9426 136.375 54.7345 136.375 67.9726Z" fill="#E9F0F8"/>
<path d="M136.375 67.9713C136.375 75.022 133.356 81.2094 128.612 85.6701C124.299 89.6991 118.548 92.1452 112.223 92.1452C107.191 92.1452 102.447 90.5624 98.565 87.8285C92.2394 83.5117 88.214 76.3171 88.214 68.1152C88.214 54.8771 98.9963 44.0852 112.223 44.0852C125.449 44.0852 136.375 54.7332 136.375 67.9713Z" fill="#EBE3D7"/>
<path d="M129.762 84.5203C129.475 84.952 129.044 85.2397 128.612 85.5275C124.299 89.5565 118.549 92.0027 112.223 92.0027C107.191 92.0027 102.447 90.4199 98.5656 87.6859C97.4155 86.9665 96.4092 85.9592 95.4028 85.0958C95.9779 84.3764 96.8405 83.9447 98.7094 83.2252L99.4282 82.9375C100.866 82.3619 102.879 81.6424 105.466 80.4913C105.898 80.3474 106.185 80.0596 106.473 79.7718C106.616 79.6279 106.76 79.4841 106.76 79.1963C106.904 78.9085 107.048 78.4768 107.048 78.189V73.2967C106.904 73.1528 106.904 73.1528 106.76 73.0089C106.329 72.4333 106.041 71.7139 106.041 70.8505L105.754 70.7066C104.46 70.9944 104.604 69.6994 104.316 67.1093C104.172 66.1021 104.316 65.8143 104.891 65.6704L105.323 65.0948C104.46 63.0803 104.029 61.2097 104.029 59.7708C104.029 57.3246 105.035 55.7418 106.473 55.0224C105.61 53.2957 105.61 52.7201 105.61 52.7201C105.61 52.7201 110.642 53.5834 112.367 53.2957C114.523 52.864 117.974 53.4396 119.268 56.3174C121.424 57.1808 122.143 58.4758 122.43 59.9147C122.718 62.217 121.424 64.6631 121.137 65.6704V65.8143C121.424 65.9582 121.568 66.246 121.424 67.2532C121.137 69.6994 121.137 71.1383 119.986 70.8505L118.836 72.865C118.836 73.1528 118.836 73.1528 118.693 73.2967C118.693 73.7284 118.693 74.4478 118.693 78.3329C118.693 78.7646 118.836 79.3402 119.124 79.6279C119.268 79.7718 119.268 79.9157 119.411 79.9157C119.699 80.2035 119.986 80.4913 120.274 80.4913C123.149 81.6424 125.162 82.5058 126.743 83.0814C128.181 83.6569 129.187 84.0886 129.762 84.5203Z" fill="white"/>
<path d="M129.762 84.5199C129.475 84.9516 129.043 85.2394 128.612 85.5272C124.299 89.5562 118.549 92.0023 112.223 92.0023C107.191 92.0023 102.447 90.4195 98.5655 87.6856C97.4154 86.9661 96.4091 85.9588 95.4027 85.0955C95.9778 84.376 96.8404 83.9444 98.7093 83.2249L99.4281 82.9371C100.866 82.3615 102.878 81.6421 105.466 80.4909C105.897 80.3471 106.185 80.0593 106.473 79.7715C107.91 81.786 110.21 83.081 112.942 83.081C115.53 83.081 117.83 81.786 119.267 79.9154C119.555 80.2032 119.843 80.4909 120.13 80.4909C123.005 81.6421 125.018 82.5054 126.599 83.081C128.181 83.6566 129.187 84.0882 129.762 84.5199Z" fill="#B7B4AF"/>
<path d="M120.993 65.5268C121.137 64.9512 120.85 64.0878 120.562 63.6561C120.562 63.5123 120.418 63.5123 120.418 63.3684C119.412 61.3539 117.256 60.6344 115.243 60.4905C109.924 60.2027 109.492 61.21 107.911 59.7711C108.486 60.4905 108.486 61.7855 107.623 63.2245C107.048 64.2317 106.042 64.8073 105.036 65.0951C102.592 59.6272 103.886 56.1737 106.186 55.0226C105.323 53.2959 105.323 52.7203 105.323 52.7203C105.323 52.7203 110.355 53.5837 112.08 53.2959C114.237 52.8642 117.687 53.4398 118.981 56.3176C121.137 57.181 121.856 58.476 122.144 59.915C122.575 62.0733 121.281 64.5195 120.993 65.5268Z" fill="#676767"/>
<path d="M107.191 78.1888V73.2965C107.047 73.1526 107.047 73.1526 106.904 73.0087V72.7209C107.191 73.1526 107.479 73.5843 107.91 73.8721L111.792 76.606C112.654 77.3255 113.948 77.3255 114.811 76.606L118.405 73.4404C118.549 73.2965 118.692 73.2965 118.836 73.1526C118.836 73.5843 118.836 74.3038 118.836 78.1888C118.836 78.4766 118.836 78.6205 118.98 78.9083H107.191C107.047 78.6205 107.191 78.4766 107.191 78.1888Z" fill="url(#paint7_linear_3831_4694)"/>
<defs>
<filter id="filter0_d_3831_4694" x="33.2322" y="78.993" width="159.589" height="64.5104" filterUnits="userSpaceOnUse" color-interpolation-filters="sRGB">
<feFlood flood-opacity="0" result="BackgroundImageFix"/>
<feColorMatrix in="SourceAlpha" type="matrix" values="0 0 0 0 0 0 0 0 0 0 0 0 0 0 0 0 0 0 127 0" result="hardAlpha"/>
<feOffset dy="8"/>
<feGaussianBlur stdDeviation="8"/>
<feColorMatrix type="matrix" values="0 0 0 0 0.576471 0 0 0 0 0.501961 0 0 0 0 0.396078 0 0 0 0.17 0"/>
<feBlend mode="normal" in2="BackgroundImageFix" result="effect1_dropShadow_3831_4694"/>
<feBlend mode="normal" in="SourceGraphic" in2="effect1_dropShadow_3831_4694" result="shape"/>
</filter>
<linearGradient id="paint0_linear_3831_4694" x1="112.978" y1="86.241" x2="112.978" y2="119.854" gradientUnits="userSpaceOnUse">
<stop stop-color="#FDFEFF"/>
<stop offset="0.9964" stop-color="#F5F2EC"/>
</linearGradient>
<linearGradient id="paint1_linear_3831_4694" x1="175.588" y1="35.1561" x2="178.01" y2="37.5781" gradientUnits="userSpaceOnUse">
<stop stop-color="#D5D1CA"/>
<stop offset="1" stop-color="#BCB9B3"/>
</linearGradient>
<linearGradient id="paint2_linear_3831_4694" x1="178.212" y1="38.4349" x2="181.624" y2="41.8477" gradientUnits="userSpaceOnUse">
<stop stop-color="#D5D1CA"/>
<stop offset="1" stop-color="#BCB9B3"/>
</linearGradient>
<linearGradient id="paint3_linear_3831_4694" x1="174.124" y1="40.0392" x2="176.326" y2="42.241" gradientUnits="userSpaceOnUse">
<stop stop-color="#D5D1CA"/>
<stop offset="1" stop-color="#BCB9B3"/>
</linearGradient>
<linearGradient id="paint4_linear_3831_4694" x1="54.1887" y1="47.364" x2="52.376" y2="49.2487" gradientUnits="userSpaceOnUse">
<stop stop-color="#D5D1CA"/>
<stop offset="1" stop-color="#BCB9B3"/>
</linearGradient>
<linearGradient id="paint5_linear_3831_4694" x1="52.2354" y1="49.9058" x2="49.6811" y2="52.5616" gradientUnits="userSpaceOnUse">
<stop stop-color="#D5D1CA"/>
<stop offset="1" stop-color="#BCB9B3"/>
</linearGradient>
<linearGradient id="paint6_linear_3831_4694" x1="55.3792" y1="51.0696" x2="53.7312" y2="52.783" gradientUnits="userSpaceOnUse">
<stop stop-color="#D5D1CA"/>
<stop offset="1" stop-color="#BCB9B3"/>
</linearGradient>
<linearGradient id="paint7_linear_3831_4694" x1="112.918" y1="78.7156" x2="112.918" y2="75.4747" gradientUnits="userSpaceOnUse">
<stop stop-color="white" stop-opacity="0"/>
<stop offset="0.9913" stop-color="#DAD6CF"/>
</linearGradient>
</defs>
</svg>
