<svg xmlns="http://www.w3.org/2000/svg" width="231" height="160" fill="none" viewBox="0 0 231 160">
  <path fill="url(#paint0_linear_3831_4694)" d="M179.551 119.503H46.4923c8.4362-18.792 34.9793-32.5097 66.5287-32.5097 31.482-.0686 58.093 13.6487 66.53 32.5097Z"/>
  <path stroke="#E4DFD9" stroke-linecap="round" stroke-linejoin="round" stroke-miterlimit="10" stroke-width="1.62" d="M193.462 119.503h13.992M32.7635 119.503H186.466M74.8068 128.625H191.61M48.0582 128.625h19.2729"/>
  <path fill="url(#paint1_linear_3831_4694)" fill-rule="evenodd" d="M179.925 40.0209c.904 1.009.819 2.5597-.19 3.4635-17.344 15.5356-27.273 34.0795-28.336 56.9966-.063 1.354-1.21 2.4-2.564 2.337-1.353-.063-2.399-1.211-2.336-2.564 1.132-24.4073 11.779-44.1349 29.963-60.4236 1.009-.9038 2.56-.8186 3.463.1905Z" clip-rule="evenodd"/>
  <path fill="url(#paint2_linear_3831_4694)" fill-rule="evenodd" d="M50.5113 50.7631c-.884 1.0264-.7686 2.5751.2578 3.4592 13.3684 11.5137 21.1357 25.3826 22.276 42.6841.0891 1.3517 1.2571 2.3752 2.6088 2.2862 1.3517-.0891 2.3753-1.2571 2.2862-2.6088-1.2384-18.7898-9.746-33.8283-23.9696-46.0786-1.0264-.884-2.5752-.7686-3.4592.2579Z" clip-rule="evenodd"/>
  <path fill="url(#paint3_linear_3831_4694)" d="M179.128 41.7258s-5.076-5.6927-11.454-11.2482l.96-2.332-3.087.5487c-2.126-1.7832-4.389-3.4979-6.653-4.8696 4.39-2.6063 8.162-2.332 11.592-.1372 6.241 3.8409 7.887 11.3168 8.642 18.0383Z"/>
  <path fill="url(#paint4_linear_3831_4694)" d="M51.5853 52.4314s3.7895-4.4208 8.5758-8.7562l-.7676-1.7657 2.3641.3729c1.5964-1.3928 3.2986-2.7352 5.0059-3.8159-3.3894-1.9242-6.2647-1.6588-8.8498.0675-4.707 3.0246-5.8524 8.7556-6.3284 13.8974Z"/>
  <path fill="url(#paint5_linear_3831_4694)" d="M177.001 40.6287s-6.31-1.6461-13.443-2.6063l-.412-2.1262-1.92 1.8518c-2.401-.2743-4.801-.4115-6.996-.3429 1.921-3.9095 4.664-5.487 8.231-5.5555 6.104-.2058 10.836 4.3895 14.54 8.7791Z"/>
  <path fill="url(#paint6_linear_3831_4694)" d="M53.1917 51.5621s4.7921-1.3503 10.2226-2.1892l.2825-1.6291 1.4934 1.385c1.8283-.2451 3.6586-.3855 5.335-.3658-1.524-2.9556-3.6416-4.1189-6.365-4.1183-4.6625-.0663-8.2066 3.5117-10.9685 6.9174Z"/>
  <path fill="url(#paint7_linear_3831_4694)" d="M178.373 42.9605s-.137-8.0932-1.44-16.8723l2.4-1.166-2.812-1.6461c-.48-2.8806-1.166-5.8298-1.989-8.4361 5.281.9602 8.093 3.7037 9.397 7.8874 2.194 7.2017-1.646 14.3347-5.556 20.2331Z"/>
  <path fill="url(#paint8_linear_3831_4694)" d="M52.1794 53.3628s-.0156-6.1797.8486-12.9003l-1.8497-.8544 2.1221-1.2982c.3236-2.206.8033-4.4674 1.3928-6.4691-4.0169.8115-6.1226 2.9474-7.0552 6.1603-1.5682 5.5297 1.4696 10.9174 4.5414 15.3617Z"/>
  <path fill="url(#paint9_linear_3831_4694)" d="M177.069 42.343s4.939 5.8299 9.603 12.8943l2.4-.6858-.96 2.9492c1.44 2.4005 2.812 4.8697 3.909 7.2702 3.155-3.978 3.43-7.7503 1.715-11.5226-2.949-6.5157-10.151-9.1906-16.667-10.9053Z"/>
  <path fill="url(#paint10_linear_3831_4694)" d="M53.165 52.8723s-3.6828 4.5234-7.1378 9.9852l-1.8426-.4879.7768 2.2369c-1.0637 1.8538-2.0741 3.7589-2.8761 5.6076-2.4674-2.9896-2.7328-5.865-1.4801-8.7699 2.1544-5.0174 7.6117-7.1662 12.5598-8.5719Z"/>
  <path fill="url(#paint11_linear_3831_4694)" d="M177.276 41.5204s7.956 1.2345 16.529 3.7722l1.509-2.1947 1.234 3.0178c2.812.8916 5.625 1.9204 8.094 3.155-.206-5.3498-2.538-8.5734-6.516-10.4252-6.859-3.2922-14.472-.4801-20.85 2.6749Z"/>
  <path fill="url(#paint12_linear_3831_4694)" d="M52.9955 52.2469s-6.0547 1.0606-12.5611 3.1251L39.25 53.7191l-.8975 2.3219c-2.1333.7224-4.2645 1.5495-6.1308 2.5285.0775-4.0866 1.8096-6.5819 4.8186-8.0545 5.1864-2.6149 11.0394-.5816 15.9552 1.7319Z"/>
  <path fill="url(#paint13_linear_3831_4694)" d="M179.753 39.3216c1.192-1.1916 1.192-3.1235 0-4.315-1.191-1.1916-3.123-1.1916-4.315 0-1.191 1.1915-1.191 3.1234 0 4.315 1.192 1.1915 3.124 1.1915 4.315 0Z"/>
  <path fill="url(#paint14_linear_3831_4694)" d="M51.0716 50.6055c-.9272-.8918-.9559-2.3665-.0641-3.2937.8918-.9273 2.3664-.956 3.2937-.0642.9272.8919.9559 2.3665.0641 3.2937-.8918.9273-2.3664.956-3.2937.0642Z"/>
  <path fill="url(#paint15_linear_3831_4694)" d="M184.08 44.3044c1.679-1.679 1.679-4.4012 0-6.0802-1.679-1.679-4.401-1.679-6.08 0-1.679 1.679-1.679 4.4012 0 6.0802 1.679 1.679 4.401 1.679 6.08 0Z"/>
  <path fill="url(#paint16_linear_3831_4694)" d="M47.8431 54.4733c-1.3065-1.2566-1.347-3.3345-.0903-4.6411 1.2566-1.3066 3.3345-1.347 4.6411-.0904 1.3066 1.2567 1.347 3.3346.0904 4.6412-1.2567 1.3065-3.3346 1.347-4.6412.0903Z"/>
  <path fill="url(#paint17_linear_3831_4694)" d="M177.91 43.826c1.083-1.0832 1.083-2.8395 0-3.9227-1.083-1.0833-2.839-1.0833-3.923 0-1.083 1.0832-1.083 2.8395 0 3.9227 1.084 1.0832 2.84 1.0832 3.923 0Z"/>
  <path fill="url(#paint18_linear_3831_4694)" d="M52.5454 54.0163c-.8429-.8107-.869-2.1513-.0583-2.9942.8108-.843 2.1514-.8691 2.9943-.0583.8429.8107.869 2.1513.0583 2.9943-.8107.8429-2.1513.869-2.9943.0582Z"/>
  <path stroke="#E5DFD6" stroke-linecap="round" stroke-linejoin="round" stroke-miterlimit="10" stroke-width=".81" d="M61.1582 113.056c2.2634-.48 4.6639.206 6.3786 1.715M85.3695 105.58c2.1262-.823 4.2524-1.508 6.5157-2.057 1.3718-.343 2.8121-.549 4.1838-.275 1.3718.275 2.6749 1.304 2.9493 2.675M116.302 108.529c2.812-3.429 7.888-4.732 12.003-3.155.891.343 1.714.823 2.675.755 1.028-.069 1.852-.755 2.606-1.44.754-.686 1.44-1.441 2.401-1.852.96-.343 2.194-.137 2.674.754M143.668 112.233c3.498-2.4 8.093-3.155 12.208-2.126M79.6082 98.1046c.2057-1.0973 1.5089-1.7146 2.6748-1.5774 1.166.0685 2.1948.6172 3.3608.823 1.5089.2743 3.0864-.1372 4.321-1.0974M64.656 108.461c2.2634.137 4.5953-.617 6.4472-1.92M123.298 97.2125c2.263-.343 4.595 0 6.584 1.0288" opacity=".8"/>
  <path fill="#D9D2C7" d="M111.981 94.9493c9.887 0 17.901-1.2419 17.901-2.7739 0-1.532-8.014-2.7739-17.901-2.7739-9.886 0-17.9009 1.2419-17.9009 2.7739 0 1.532 8.0149 2.7739 17.9009 2.7739Z" opacity=".6"/>
  <path stroke="#E4DFD9" stroke-linecap="round" stroke-linejoin="round" stroke-miterlimit="10" stroke-width="1.62" d="M93.8843 137.96h62.2997"/>
  <path fill="#E9F0F8" d="M136.375 67.9726c0 6.4752-2.588 12.2309-6.613 16.5476-.288.4317-.719.7195-1.15 1.0073-4.313 4.029-10.064 6.4751-16.389 6.4751-5.032 0-9.776-1.5828-13.658-4.3167-1.1501-.7195-2.1565-1.7267-3.1628-2.5901-4.4567-4.3168-7.1882-10.3602-7.1882-17.1232 0-13.2381 10.7823-24.03 24.009-24.03 13.37 0 24.152 10.7919 24.152 24.03Z"/>
  <path fill="#EBE3D7" d="M136.375 67.9713c0 7.0507-3.019 13.2381-7.763 17.6988-4.313 4.029-10.064 6.4751-16.389 6.4751-5.032 0-9.776-1.5828-13.658-4.3167-6.3256-4.3168-10.351-11.5114-10.351-19.7133 0-13.2381 10.7823-24.03 24.009-24.03 13.226 0 24.152 10.648 24.152 23.8861Z"/>
  <path fill="#fff" d="M129.762 84.5203c-.287.4317-.718.7194-1.15 1.0072-4.313 4.029-10.063 6.4752-16.389 6.4752-5.032 0-9.776-1.5828-13.6574-4.3168-1.1501-.7194-2.1564-1.7267-3.1628-2.5901.5751-.7194 1.4377-1.1511 3.3066-1.8706l.7188-.2877c1.4378-.5756 3.4508-1.2951 6.0378-2.4462.432-.1439.719-.4317 1.007-.7195.143-.1439.287-.2877.287-.5755.144-.2878.288-.7195.288-1.0073v-4.8923l-.288-.2878c-.431-.5756-.719-1.295-.719-2.1584l-.287-.1439c-1.294.2878-1.15-1.0072-1.438-3.5973-.144-1.0072 0-1.295.575-1.4389l.432-.5756c-.863-2.0145-1.294-3.8851-1.294-5.324 0-2.4462 1.006-4.029 2.444-4.7484-.863-1.7267-.863-2.3023-.863-2.3023s5.032.8633 6.757.5756c2.156-.4317 5.607.1439 6.901 3.0217 2.156.8634 2.875 2.1584 3.162 3.5973.288 2.3023-1.006 4.7484-1.293 5.7557v.1439c.287.1439.431.4317.287 1.4389-.287 2.4462-.287 3.8851-1.438 3.5973l-1.15 2.0145c0 .2878 0 .2878-.143.4317v5.0362c0 .4317.143 1.0073.431 1.295.144.1439.144.2878.287.2878.288.2878.575.5756.863.5756 2.875 1.1511 4.888 2.0145 6.469 2.5901 1.438.5755 2.444 1.0072 3.019 1.4389Z"/>
  <path fill="#B7B4AF" d="M129.762 84.5199c-.287.4317-.719.7195-1.15 1.0073-4.313 4.029-10.063 6.4751-16.389 6.4751-5.032 0-9.776-1.5828-13.6575-4.3167-1.1501-.7195-2.1564-1.7268-3.1628-2.5901.5751-.7195 1.4377-1.1511 3.3066-1.8706l.7188-.2878c1.4379-.5756 3.4499-1.295 6.0379-2.4462.431-.1438.719-.4316 1.007-.7194 1.437 2.0145 3.737 3.3095 6.469 3.3095 2.588 0 4.888-1.295 6.325-3.1656.288.2878.576.5755.863.5755 2.875 1.1512 4.888 2.0145 6.469 2.5901 1.582.5756 2.588 1.0072 3.163 1.4389Z"/>
  <path fill="#676767" d="M120.993 65.5268c.144-.5756-.143-1.439-.431-1.8707 0-.1438-.144-.1438-.144-.2877-1.006-2.0145-3.162-2.734-5.175-2.8779-5.319-.2878-5.751.7195-7.332-.7194.575.7194.575 2.0144-.288 3.4534-.575 1.0072-1.581 1.5828-2.587 1.8706-2.444-5.4679-1.15-8.9214 1.15-10.0725-.863-1.7267-.863-2.3023-.863-2.3023s5.032.8634 6.757.5756c2.157-.4317 5.607.1439 6.901 3.0217 2.156.8634 2.875 2.1584 3.163 3.5974.431 2.1583-.863 4.6045-1.151 5.6118Z"/>
  <path fill="url(#paint19_linear_3831_4694)" d="M107.191 78.1888v-4.8923c-.144-.1439-.144-.1439-.287-.2878v-.2878c.287.4317.575.8634 1.006 1.1512l3.882 2.7339c.862.7195 2.156.7195 3.019 0l3.594-3.1656c.144-.1439.287-.1439.431-.2878v5.0362c0 .2878 0 .4317.144.7195h-11.789c-.144-.2878 0-.4317 0-.7195Z"/>
  <defs>
    <linearGradient id="paint0_linear_3831_4694" x1="112.978" x2="112.978" y1="86.241" y2="119.854" gradientUnits="userSpaceOnUse">
      <stop stop-color="#F8F6F0"/>
      <stop offset=".9964" stop-color="#EBE5DD"/>
    </linearGradient>
    <linearGradient id="paint1_linear_3831_4694" x1="163.513" x2="163.513" y1="37.7331" y2="103.506" gradientUnits="userSpaceOnUse">
      <stop stop-color="#F5EFE7"/>
      <stop offset=".9964" stop-color="#F0E4D4"/>
    </linearGradient>
    <linearGradient id="paint2_linear_3831_4694" x1="63.4336" x2="64.4345" y1="48.5446" y2="99.9499" gradientUnits="userSpaceOnUse">
      <stop stop-color="#F5EFE7"/>
      <stop offset=".9964" stop-color="#F0E4D4"/>
    </linearGradient>
    <linearGradient id="paint3_linear_3831_4694" x1="169.004" x2="169.004" y1="21.498" y2="41.939" gradientUnits="userSpaceOnUse">
      <stop stop-color="#F5EFE7"/>
      <stop offset=".9964" stop-color="#F0E4D4"/>
    </linearGradient>
    <linearGradient id="paint4_linear_3831_4694" x1="59.0118" x2="59.3156" y1="36.8407" y2="52.4436" gradientUnits="userSpaceOnUse">
      <stop stop-color="#F5EFE7"/>
      <stop offset=".9964" stop-color="#F0E4D4"/>
    </linearGradient>
    <linearGradient id="paint5_linear_3831_4694" x1="165.608" x2="165.608" y1="31.6397" y2="40.7234" gradientUnits="userSpaceOnUse">
      <stop stop-color="#F5EFE7"/>
      <stop offset=".9964" stop-color="#F0E4D4"/>
    </linearGradient>
    <linearGradient id="paint6_linear_3831_4694" x1="61.7545" x2="61.8895" y1="44.5313" y2="51.4651" gradientUnits="userSpaceOnUse">
      <stop stop-color="#F5EFE7"/>
      <stop offset=".9964" stop-color="#F0E4D4"/>
    </linearGradient>
    <linearGradient id="paint7_linear_3831_4694" x1="179.547" x2="179.547" y1="14.1895" y2="43.2637" gradientUnits="userSpaceOnUse">
      <stop stop-color="#F5EFE7"/>
      <stop offset=".9964" stop-color="#F0E4D4"/>
    </linearGradient>
    <linearGradient id="paint8_linear_3831_4694" x1="50.8555" x2="51.2876" y1="31.4189" y2="53.6117" gradientUnits="userSpaceOnUse">
      <stop stop-color="#F5EFE7"/>
      <stop offset=".9964" stop-color="#F0E4D4"/>
    </linearGradient>
    <linearGradient id="paint9_linear_3831_4694" x1="185.92" x2="185.92" y1="41.8242" y2="65.0127" gradientUnits="userSpaceOnUse">
      <stop stop-color="#F5EFE7"/>
      <stop offset=".9964" stop-color="#F0E4D4"/>
    </linearGradient>
    <linearGradient id="paint10_linear_3831_4694" x1="46.4016" x2="46.7462" y1="52.6079" y2="70.308" gradientUnits="userSpaceOnUse">
      <stop stop-color="#F5EFE7"/>
      <stop offset=".9964" stop-color="#F0E4D4"/>
    </linearGradient>
    <linearGradient id="paint11_linear_3831_4694" x1="190.95" x2="190.95" y1="37.0961" y2="49.399" gradientUnits="userSpaceOnUse">
      <stop stop-color="#F5EFE7"/>
      <stop offset=".9964" stop-color="#F0E4D4"/>
    </linearGradient>
    <linearGradient id="paint12_linear_3831_4694" x1="42.492" x2="42.6749" y1="49.073" y2="58.4639" gradientUnits="userSpaceOnUse">
      <stop stop-color="#F5EFE7"/>
      <stop offset=".9964" stop-color="#F0E4D4"/>
    </linearGradient>
    <linearGradient id="paint13_linear_3831_4694" x1="175.588" x2="178.01" y1="35.1561" y2="37.5781" gradientUnits="userSpaceOnUse">
      <stop stop-color="#D5D1CA"/>
      <stop offset="1" stop-color="#BCB9B3"/>
    </linearGradient>
    <linearGradient id="paint14_linear_3831_4694" x1="54.1887" x2="52.376" y1="47.364" y2="49.2487" gradientUnits="userSpaceOnUse">
      <stop stop-color="#D5D1CA"/>
      <stop offset="1" stop-color="#BCB9B3"/>
    </linearGradient>
    <linearGradient id="paint15_linear_3831_4694" x1="178.212" x2="181.624" y1="38.4349" y2="41.8477" gradientUnits="userSpaceOnUse">
      <stop stop-color="#D5D1CA"/>
      <stop offset="1" stop-color="#BCB9B3"/>
    </linearGradient>
    <linearGradient id="paint16_linear_3831_4694" x1="52.2354" x2="49.6811" y1="49.9058" y2="52.5616" gradientUnits="userSpaceOnUse">
      <stop stop-color="#D5D1CA"/>
      <stop offset="1" stop-color="#BCB9B3"/>
    </linearGradient>
    <linearGradient id="paint17_linear_3831_4694" x1="174.124" x2="176.326" y1="40.0392" y2="42.241" gradientUnits="userSpaceOnUse">
      <stop stop-color="#D5D1CA"/>
      <stop offset="1" stop-color="#BCB9B3"/>
    </linearGradient>
    <linearGradient id="paint18_linear_3831_4694" x1="55.3792" x2="53.7312" y1="51.0696" y2="52.783" gradientUnits="userSpaceOnUse">
      <stop stop-color="#D5D1CA"/>
      <stop offset="1" stop-color="#BCB9B3"/>
    </linearGradient>
    <linearGradient id="paint19_linear_3831_4694" x1="112.918" x2="112.918" y1="78.7156" y2="75.4747" gradientUnits="userSpaceOnUse">
      <stop stop-color="#fff" stop-opacity="0"/>
      <stop offset=".9913" stop-color="#DAD6CF"/>
    </linearGradient>
  </defs>
</svg>
