<svg width="231" height="160" viewBox="0 0 231 160" fill="none" xmlns="http://www.w3.org/2000/svg">
<path d="M179.539 119.504H46.4803C54.9165 100.711 81.4596 86.9934 113.009 86.9934C144.491 86.9248 171.102 100.642 179.539 119.504Z" fill="url(#paint0_linear_3831_4738)"/>
<path d="M193.462 119.504H207.454" stroke="#3A3A3A" stroke-width="2.43" stroke-miterlimit="10" stroke-linecap="round" stroke-linejoin="round"/>
<path d="M32.7635 119.504H186.466" stroke="#3A3A3A" stroke-width="2.43" stroke-miterlimit="10" stroke-linecap="round" stroke-linejoin="round"/>
<path d="M74.8068 128.625H191.61" stroke="#3A3A3A" stroke-width="2.43" stroke-miterlimit="10" stroke-linecap="round" stroke-linejoin="round"/>
<path d="M48.0583 128.625H67.3312" stroke="#3A3A3A" stroke-width="2.43" stroke-miterlimit="10" stroke-linecap="round" stroke-linejoin="round"/>
<path fill-rule="evenodd" clip-rule="evenodd" d="M179.925 40.0211C180.829 41.0301 180.744 42.5808 179.735 43.4847C162.391 59.0203 152.462 77.5641 151.399 100.482C151.336 101.835 150.189 102.881 148.835 102.818C147.482 102.755 146.436 101.607 146.499 100.254C147.631 75.8469 158.278 56.1193 176.462 39.8307C177.471 38.9268 179.022 39.0121 179.925 40.0211Z" fill="#878787"/>
<path fill-rule="evenodd" clip-rule="evenodd" d="M50.5112 50.7633C49.6271 51.7898 49.7426 53.3385 50.769 54.2225C64.1374 65.7362 71.9047 79.6051 73.045 96.9066C73.134 98.2583 74.302 99.2819 75.6538 99.1928C77.0055 99.1037 78.029 97.9357 77.9399 96.584C76.7016 77.7942 68.194 62.7557 53.9704 50.5055C52.9439 49.6214 51.3952 49.7369 50.5112 50.7633Z" fill="#878787"/>
<path d="M179.128 41.7258C179.128 41.7258 174.052 36.0331 167.674 30.4776L168.634 28.1456L165.547 28.6943C163.421 26.9111 161.158 25.1964 158.894 23.8247C163.284 21.2184 167.056 21.4927 170.486 23.6875C176.727 27.5284 178.373 35.0043 179.128 41.7258Z" fill="#585858"/>
<path d="M51.5854 52.4314C51.5854 52.4314 55.375 48.0106 60.1613 43.6752L59.3937 41.9095L61.7577 42.2824C63.3542 40.8896 65.0563 39.5472 66.7636 38.4665C63.3743 36.5423 60.4989 36.8077 57.9139 38.534C53.2068 41.5586 52.0614 47.2896 51.5854 52.4314Z" fill="#585858"/>
<path d="M177.001 40.6288C177.001 40.6288 170.691 38.9827 163.558 38.0225L163.146 35.8963L161.226 37.7481C158.825 37.4738 156.425 37.3366 154.23 37.4052C156.151 33.4958 158.894 31.9183 162.461 31.8497C168.565 31.6439 173.297 36.2392 177.001 40.6288Z" fill="#585858"/>
<path d="M53.1919 51.5623C53.1919 51.5623 57.9839 50.2121 63.4144 49.3731L63.6969 47.744L65.1903 49.129C67.0186 48.8839 68.849 48.7436 70.5253 48.7633C69.0013 45.8077 66.8837 44.6443 64.1603 44.645C59.4978 44.5786 55.9537 48.1567 53.1919 51.5623Z" fill="#585858"/>
<path d="M178.373 42.9607C178.373 42.9607 178.236 34.8674 176.933 26.0883L179.333 24.9223L176.521 23.2763C176.041 20.3956 175.355 17.4464 174.532 14.8401C179.813 15.8003 182.625 18.5438 183.929 22.7276C186.123 29.9292 182.283 37.0622 178.373 42.9607Z" fill="#585858"/>
<path d="M52.1795 53.3628C52.1795 53.3628 52.1639 47.1831 53.0282 40.4625L51.1785 39.6081L53.3005 38.3099C53.6241 36.1039 54.1039 33.8425 54.6934 31.8408C50.6764 32.6523 48.5707 34.7882 47.6382 38.0011C46.0699 43.5308 49.1077 48.9185 52.1795 53.3628Z" fill="#585858"/>
<path d="M177.069 42.3433C177.069 42.3433 182.008 48.1731 186.672 55.2376L189.072 54.5517L188.112 57.5009C189.552 59.9015 190.924 62.3706 192.021 64.7711C195.176 60.7931 195.451 57.0208 193.736 53.2486C190.787 46.7328 183.585 44.0579 177.069 42.3433Z" fill="#585858"/>
<path d="M53.1652 52.8723C53.1652 52.8723 49.4824 57.3957 46.0273 62.8575L44.1848 62.3696L44.9615 64.6065C43.8978 66.4603 42.8874 68.3654 42.0854 70.2141C39.6181 67.2245 39.3526 64.3491 40.6054 61.4442C42.7597 56.4268 48.2171 54.278 53.1652 52.8723Z" fill="#585858"/>
<path d="M177.276 41.5204C177.276 41.5204 185.232 42.7549 193.805 45.2926L195.314 43.0979L196.548 46.1157C199.36 47.0073 202.173 48.0361 204.642 49.2707C204.436 43.9209 202.104 40.6973 198.126 38.8455C191.267 35.5533 183.654 38.3654 177.276 41.5204Z" fill="#585858"/>
<path d="M52.9956 52.2471C52.9956 52.2471 46.941 53.3077 40.4345 55.3722L39.2501 53.7193L38.3526 56.0412C36.2194 56.7636 34.0882 57.5907 32.2218 58.5698C32.2993 54.4831 34.0315 51.9879 37.0404 50.5152C42.2268 47.9003 48.0799 49.9336 52.9956 52.2471Z" fill="#585858"/>
<path d="M179.753 39.3218C180.945 38.1303 180.945 36.1984 179.753 35.0068C178.562 33.8153 176.63 33.8153 175.438 35.0068C174.247 36.1984 174.247 38.1303 175.438 39.3218C176.63 40.5134 178.562 40.5134 179.753 39.3218Z" fill="url(#paint1_linear_3831_4738)"/>
<path d="M51.0717 50.6056C50.1445 49.7138 50.1158 48.2391 51.0076 47.3119C51.8994 46.3847 53.3741 46.3559 54.3013 47.2478C55.2286 48.1396 55.2573 49.6142 54.3654 50.5415C53.4736 51.4687 51.999 51.4974 51.0717 50.6056Z" fill="url(#paint2_linear_3831_4738)"/>
<path d="M184.08 44.3045C185.759 42.6255 185.759 39.9033 184.08 38.2243C182.401 36.5453 179.679 36.5453 178 38.2243C176.321 39.9033 176.321 42.6255 178 44.3045C179.679 45.9835 182.401 45.9835 184.08 44.3045Z" fill="url(#paint3_linear_3831_4738)"/>
<path d="M47.8431 54.5862C46.5366 53.3296 46.4961 51.2517 47.7528 49.9451C49.0094 48.6385 51.0873 48.5981 52.3939 49.8547C53.7005 51.1114 53.7409 53.1893 52.4843 54.4959C51.2276 55.8024 49.1497 55.8429 47.8431 54.5862Z" fill="url(#paint4_linear_3831_4738)"/>
<path d="M177.91 43.8261C178.993 42.7429 178.993 40.9866 177.91 39.9034C176.827 38.8202 175.071 38.8202 173.987 39.9034C172.904 40.9866 172.904 42.7429 173.987 43.8261C175.071 44.9093 176.827 44.9093 177.91 43.8261Z" fill="url(#paint5_linear_3831_4738)"/>
<path d="M52.5454 54.1295C51.7025 53.3188 51.6764 51.9782 52.4871 51.1352C53.2979 50.2923 54.6385 50.2662 55.4814 51.0769C56.3243 51.8877 56.3504 53.2283 55.5397 54.0712C54.729 54.9142 53.3884 54.9403 52.5454 54.1295Z" fill="url(#paint6_linear_3831_4738)"/>
<path opacity="0.4" d="M61.1583 113.056C63.4217 112.576 65.8222 113.262 67.5369 114.771" stroke="#777777" stroke-width="0.81" stroke-miterlimit="10" stroke-linecap="round" stroke-linejoin="round"/>
<path opacity="0.4" d="M85.3695 105.58C87.4957 104.757 89.6219 104.072 91.8852 103.523C93.257 103.18 94.6973 102.974 96.069 103.248C97.4408 103.523 98.7439 104.552 99.0183 105.923" stroke="#777777" stroke-width="0.81" stroke-miterlimit="10" stroke-linecap="round" stroke-linejoin="round"/>
<path opacity="0.4" d="M116.302 108.53C119.114 105.1 124.189 103.797 128.305 105.375C129.196 105.718 130.019 106.198 130.98 106.129C132.008 106.061 132.831 105.375 133.586 104.689C134.34 104.003 135.026 103.248 135.986 102.837C136.947 102.494 138.181 102.7 138.661 103.591" stroke="#777777" stroke-width="0.81" stroke-miterlimit="10" stroke-linecap="round" stroke-linejoin="round"/>
<path opacity="0.4" d="M143.668 112.234C147.166 109.833 151.761 109.079 155.876 110.107" stroke="#777777" stroke-width="0.81" stroke-miterlimit="10" stroke-linecap="round" stroke-linejoin="round"/>
<path opacity="0.4" d="M79.6082 98.1048C79.8139 97.0074 81.1171 96.3901 82.283 96.5273C83.449 96.5959 84.4778 97.1446 85.6438 97.3503C87.1527 97.6247 88.7302 97.2131 89.9648 96.2529" stroke="#777777" stroke-width="0.81" stroke-miterlimit="10" stroke-linecap="round" stroke-linejoin="round"/>
<path opacity="0.4" d="M64.6561 108.461C66.9195 108.598 69.2514 107.844 71.1033 106.541" stroke="#777777" stroke-width="0.81" stroke-miterlimit="10" stroke-linecap="round" stroke-linejoin="round"/>
<path opacity="0.4" d="M123.298 97.2126C125.561 96.8697 127.893 97.2126 129.882 98.2414" stroke="#777777" stroke-width="0.81" stroke-miterlimit="10" stroke-linecap="round" stroke-linejoin="round"/>
<path opacity="0.6" d="M111.981 94.9494C121.868 94.9494 129.882 93.7075 129.882 92.1755C129.882 90.6435 121.868 89.4016 111.981 89.4016C102.095 89.4016 94.0801 90.6435 94.0801 92.1755C94.0801 93.7075 102.095 94.9494 111.981 94.9494Z" fill="#3A3A3A"/>
<path d="M93.8843 137.96H156.184" stroke="#3A3A3A" stroke-width="2.43" stroke-miterlimit="10" stroke-linecap="round" stroke-linejoin="round"/>
<path d="M135.148 66.9907C135.148 73.4658 132.561 79.2215 128.535 83.5383C128.248 83.97 127.816 84.2578 127.385 84.5456C123.072 88.5745 117.322 91.0207 110.996 91.0207C105.964 91.0207 101.22 89.4379 97.3385 86.7039C96.1884 85.9845 95.1821 84.9772 94.1757 84.1139C89.7191 79.7971 86.9875 73.7536 86.9875 66.9907C86.9875 53.7526 97.7698 42.9607 110.996 42.9607C124.366 42.9607 135.148 53.7526 135.148 66.9907Z" fill="#E9F0F8"/>
<g filter="url(#filter0_d_3831_4738)">
<path d="M135.148 66.9894C135.148 74.0401 132.129 80.2275 127.385 84.6881C123.072 88.7171 117.322 91.1633 110.996 91.1633C105.964 91.1633 101.22 89.5805 97.3385 86.8465C91.0129 82.5298 86.9875 75.3351 86.9875 67.1333C86.9875 53.8952 97.7698 43.1033 110.996 43.1033C124.222 43.1033 135.148 53.7513 135.148 66.9894Z" fill="#5C5C5C"/>
</g>
<path d="M128.536 83.5382C128.248 83.9699 127.817 84.2577 127.386 84.5455C123.073 88.5745 117.322 91.0206 110.996 91.0206C105.965 91.0206 101.221 89.4378 97.339 86.7039C96.1888 85.9844 95.1825 84.9771 94.1761 84.1138C94.7512 83.3943 95.6138 82.9627 97.4827 82.2432L98.2015 81.9554C99.6392 81.3798 101.652 80.6604 104.24 79.5092C104.671 79.3654 104.958 79.0776 105.246 78.7898C105.39 78.6459 105.533 78.502 105.533 78.2142C105.677 77.9264 105.821 77.4947 105.821 77.207V72.3146C105.677 72.1707 105.677 72.1707 105.533 72.0268C105.102 71.4513 104.815 70.7318 104.815 69.8685L104.527 69.7246C103.233 70.0124 103.377 68.7173 103.089 66.1273C102.946 65.12 103.089 64.8322 103.665 64.6883L104.096 64.1128C103.233 62.0983 102.802 60.2277 102.802 58.7888C102.802 56.3426 103.808 54.7598 105.246 54.0403C104.383 52.3136 104.383 51.738 104.383 51.738C104.383 51.738 109.415 52.6014 111.14 52.3136C113.297 51.8819 116.747 52.4575 118.041 55.3353C120.197 56.1987 120.916 57.4937 121.204 58.9327C121.491 61.2349 120.197 63.6811 119.91 64.6883V64.8322C120.197 64.9761 120.341 65.2639 120.197 66.2712C119.91 68.7173 119.91 70.1562 118.76 69.8685L117.61 71.883C117.61 72.1707 117.61 72.1707 117.466 72.3146C117.466 72.7463 117.466 73.4658 117.466 77.3509C117.466 77.7825 117.61 78.3581 117.897 78.6459C118.041 78.7898 118.041 78.9337 118.185 78.9337C118.472 79.2215 118.76 79.5092 119.047 79.5092C121.923 80.6604 123.935 81.5237 125.517 82.0993C126.954 82.6749 127.961 83.1065 128.536 83.5382Z" fill="#CCCCCC"/>
<path d="M128.536 83.5385C128.248 83.9702 127.817 84.2579 127.386 84.5457C123.073 88.5747 117.322 91.0209 110.996 91.0209C105.965 91.0209 101.221 89.4381 97.339 86.7041C96.1888 85.9847 95.1825 84.9774 94.1761 84.114C94.7512 83.3946 95.6138 82.9629 97.4827 82.2434L98.2015 81.9557C99.6392 81.3801 101.652 80.6606 104.24 79.5095C104.671 79.3656 104.958 79.0778 105.246 78.79C106.684 80.8045 108.984 82.0996 111.715 82.0996C114.303 82.0996 116.603 80.8045 118.041 78.9339C118.328 79.2217 118.616 79.5095 118.903 79.5095C121.779 80.6606 123.791 81.524 125.373 82.0996C126.954 82.6751 127.961 83.1068 128.536 83.5385Z" fill="#777777"/>
<path d="M119.766 64.5445C119.91 63.9689 119.623 63.1055 119.335 62.6738C119.335 62.53 119.191 62.53 119.191 62.3861C118.185 60.3716 116.029 59.6521 114.016 59.5082C108.697 59.2204 108.265 60.2277 106.684 58.7888C107.259 59.5082 107.259 60.8033 106.396 62.2422C105.821 63.2494 104.815 63.825 103.809 64.1128C101.365 58.6449 102.658 55.1914 104.959 54.0403C104.096 52.3136 104.096 51.738 104.096 51.738C104.096 51.738 109.128 52.6014 110.853 52.3136C113.009 51.8819 116.46 52.4575 117.754 55.3353C119.91 56.1987 120.629 57.4937 120.916 58.9327C121.348 61.091 120.054 63.5372 119.766 64.5445Z" fill="#3A3A3A"/>
<path d="M105.965 77.2069V72.3146C105.821 72.1707 105.821 72.1707 105.677 72.0268V71.739C105.965 72.1707 106.252 72.6024 106.683 72.8901L110.565 75.6241C111.428 76.3436 112.722 76.3436 113.584 75.6241L117.178 72.4585C117.322 72.3146 117.466 72.3146 117.61 72.1707C117.61 72.6024 117.61 73.3218 117.61 77.2069C117.61 77.4947 117.61 77.6386 117.753 77.9264H105.965C105.821 77.6386 105.965 77.4947 105.965 77.2069Z" fill="url(#paint7_linear_3831_4738)"/>
<defs>
<filter id="filter0_d_3831_4738" x="69.1675" y="34.1933" width="83.8008" height="83.7001" filterUnits="userSpaceOnUse" color-interpolation-filters="sRGB">
<feFlood flood-opacity="0" result="BackgroundImageFix"/>
<feColorMatrix in="SourceAlpha" type="matrix" values="0 0 0 0 0 0 0 0 0 0 0 0 0 0 0 0 0 0 127 0" result="hardAlpha"/>
<feOffset dy="8.91"/>
<feGaussianBlur stdDeviation="8.91"/>
<feColorMatrix type="matrix" values="0 0 0 0 0 0 0 0 0 0 0 0 0 0 0 0 0 0 0.27 0"/>
<feBlend mode="normal" in2="BackgroundImageFix" result="effect1_dropShadow_3831_4738"/>
<feBlend mode="normal" in="SourceGraphic" in2="effect1_dropShadow_3831_4738" result="shape"/>
</filter>
<linearGradient id="paint0_linear_3831_4738" x1="113.009" y1="86.9932" x2="113.009" y2="119.504" gradientUnits="userSpaceOnUse">
<stop stop-color="#585858"/>
<stop offset="1" stop-color="#3B3B3B"/>
<stop offset="1" stop-color="#454545"/>
</linearGradient>
<linearGradient id="paint1_linear_3831_4738" x1="175.438" y1="35.0068" x2="179.753" y2="39.3218" gradientUnits="userSpaceOnUse">
<stop stop-color="#A6A6A6"/>
<stop offset="1" stop-color="#878787"/>
<stop offset="1" stop-color="#878787"/>
</linearGradient>
<linearGradient id="paint2_linear_3831_4738" x1="54.3013" y1="47.2478" x2="51.0717" y2="50.6056" gradientUnits="userSpaceOnUse">
<stop stop-color="#A6A6A6"/>
<stop offset="1" stop-color="#878787"/>
<stop offset="1" stop-color="#878787"/>
</linearGradient>
<linearGradient id="paint3_linear_3831_4738" x1="178" y1="38.2243" x2="184.08" y2="44.3045" gradientUnits="userSpaceOnUse">
<stop stop-color="#A6A6A6"/>
<stop offset="1" stop-color="#878787"/>
<stop offset="1" stop-color="#878787"/>
</linearGradient>
<linearGradient id="paint4_linear_3831_4738" x1="52.3939" y1="49.8547" x2="47.8431" y2="54.5862" gradientUnits="userSpaceOnUse">
<stop stop-color="#A6A6A6"/>
<stop offset="1" stop-color="#878787"/>
<stop offset="1" stop-color="#878787"/>
</linearGradient>
<linearGradient id="paint5_linear_3831_4738" x1="173.987" y1="39.9034" x2="177.91" y2="43.8261" gradientUnits="userSpaceOnUse">
<stop stop-color="#A6A6A6"/>
<stop offset="1" stop-color="#878787"/>
<stop offset="1" stop-color="#878787"/>
</linearGradient>
<linearGradient id="paint6_linear_3831_4738" x1="55.4814" y1="51.0769" x2="52.5454" y2="54.1295" gradientUnits="userSpaceOnUse">
<stop stop-color="#A6A6A6"/>
<stop offset="1" stop-color="#878787"/>
<stop offset="1" stop-color="#878787"/>
</linearGradient>
<linearGradient id="paint7_linear_3831_4738" x1="111.692" y1="77.7337" x2="111.692" y2="74.4927" gradientUnits="userSpaceOnUse">
<stop stop-color="#CCCCCC"/>
<stop offset="0.9913" stop-color="#AAAAAA"/>
</linearGradient>
</defs>
</svg>
