<svg width="48" height="48" viewBox="0 0 48 48" fill="none" xmlns="http://www.w3.org/2000/svg">
<path d="M24.1523 32.25C26.3615 32.25 28.1523 34.0409 28.1523 36.25C28.1523 38.4591 26.3615 40.25 24.1523 40.25C21.9432 40.25 20.1523 38.4591 20.1523 36.25C20.1523 34.0409 21.9432 32.25 24.1523 32.25Z" fill="#242424"/>
<path d="M38.9521 8C40.0646 8 40.6997 9.27019 40.0322 10.1602L25.2324 29.8936C24.6924 30.6134 23.6123 30.6134 23.0722 29.8936L8.27244 10.1602C7.60494 9.27016 8.24009 8 9.35252 8H38.9521ZM24.1523 27.166L36.6523 10.5H11.6523L24.1523 27.166Z" fill="#242424"/>
</svg>
