<svg width="32" height="32" viewBox="0 0 32 32" fill="none" xmlns="http://www.w3.org/2000/svg">
<path d="M15.9087 22C17.5656 22 18.9087 23.3431 18.9087 25C18.9087 26.6569 17.5656 28 15.9087 28C14.2518 28 12.9087 26.6569 12.9087 25C12.9087 23.3431 14.2518 22 15.9087 22ZM25.7134 4C26.608 4 27.1287 5.01122 26.6089 5.73926L16.8032 19.4678C16.3645 20.0817 15.4509 20.0818 15.0122 19.4678L5.20648 5.73926C4.68696 5.01132 5.20761 4.00023 6.10199 4H25.7134ZM15.9077 17.2793L23.9644 6H7.85102L15.9077 17.2793Z" fill="#212121"/>
</svg>
