<svg width="24" height="24" viewBox="0 0 24 24" fill="none" xmlns="http://www.w3.org/2000/svg">
<path d="M19.37 18.486L17.25 18.489L17.255 18.495H6.755C5.895 18.495 5.065 18.153 4.455 17.543C3.845 16.933 3.503 16.105 3.503 15.243V6.623C3.061 6.779 2.682 7.065 2.413 7.446C2.144 7.827 2.00001 8.281 2 8.746V15.236C2 16.496 2.499 17.705 3.39 18.596C4.28 19.486 5.49 19.986 6.75 19.986H17.25C18.23 19.986 19.062 19.362 19.37 18.486Z" fill="black"/>
<path d="M13.8273 7.24624C13.3908 7.08208 12.8358 7 12.1624 7H10.6497C10.2909 7 10 7.29399 10 7.65663V13.8434C10 14.206 10.2909 14.5 10.6497 14.5H10.9238C11.2827 14.5 11.5736 14.206 11.5736 13.8434V11.6221H12.4111L13.992 14.1902C14.1106 14.3829 14.3192 14.5 14.5437 14.5H14.7063C15.2269 14.5 15.5361 13.9121 15.2448 13.476L13.7461 11.2322C13.9898 11.1194 14.2165 10.974 14.4263 10.7962C14.6361 10.6183 14.8053 10.4012 14.9339 10.1447C15.0625 9.88817 15.1268 9.58892 15.1268 9.24692C15.1268 8.74077 15.0202 8.32182 14.807 7.99008C14.5938 7.65834 14.2673 7.4104 13.8273 7.24624ZM11.5736 8.30301H12.0507C12.5583 8.30301 12.9323 8.37825 13.1725 8.52873C13.4162 8.67921 13.538 8.93228 13.538 9.28796C13.538 9.62996 13.4246 9.88988 13.1979 10.0677C12.9746 10.2421 12.6023 10.3293 12.0812 10.3293H11.5736V8.30301Z" fill="black"/>
<path d="M22.001 6.25C22.001 5.955 21.943 5.662 21.83 5.389H21.832C21.719 5.116 21.553 4.868 21.344 4.659C21.135 4.45 20.887 4.284 20.614 4.171C20.341 4.0582 20.049 4 19.753 4H6.753C6.458 4 6.165 4.058 5.892 4.171C5.619 4.284 5.371 4.45 5.162 4.659C4.953 4.868 4.7868 5.116 4.674 5.389C4.5612 5.662 4.503 5.955 4.503 6.25V15.25C4.503 15.846 4.74 16.418 5.162 16.84C5.582 17.262 6.155 17.499 6.752 17.499H19.752C20.348 17.499 20.92 17.262 21.342 16.84C21.764 16.42 22.001 15.847 22.001 15.25V6.25ZM20.5 6.249V15.249C20.5 15.448 20.421 15.638 20.28 15.779C20.14 15.92 19.949 15.999 19.75 15.999H6.75C6.336 15.999 6 15.663 6 15.249V6.249C6 6.05 6.08 5.86 6.22 5.719C6.36 5.578 6.551 5.499 6.75 5.499H19.75C19.949 5.499 20.139 5.578 20.28 5.719C20.421 5.859 20.5 6.05 20.5 6.249Z" fill="black"/>
</svg>
