<svg width="22" height="22" viewBox="0 0 22 22" fill="none" xmlns="http://www.w3.org/2000/svg">
<path d="M4.68902 4.58335C6.31411 2.9847 8.5422 2 11 2C15.9706 2 20 6.02944 20 11C20 15.9706 15.9706 20 11 20C6.02944 20 2 15.9706 2 11C2 10.4477 1.55228 10 1 10C0.447715 10 0 10.4477 0 11C0 17.0751 4.92487 22 11 22C17.0751 22 22 17.0751 22 11C22 4.92487 17.0751 0 11 0C8.18218 0 5.61216 1.05997 3.66669 2.80109V1.41669C3.66669 0.864402 3.21897 0.416687 2.66669 0.416687C2.1144 0.416687 1.66669 0.864402 1.66669 1.41669V5.58335C1.66669 6.13564 2.1144 6.58335 2.66669 6.58335H6.41669C6.96897 6.58335 7.41669 6.13564 7.41669 5.58335C7.41669 5.03107 6.96897 4.58335 6.41669 4.58335H4.68902Z" fill="#212121"/>
<path d="M8.46875 15V7.12598H7.44287C7.12777 7.36589 6.77506 7.5861 6.38477 7.78662C5.99447 7.98714 5.5791 8.15186 5.13867 8.28076V9.70947C5.28906 9.69157 5.44124 9.66292 5.59521 9.62354C5.74919 9.58057 5.89779 9.53044 6.04102 9.47314C6.18424 9.41227 6.31852 9.34603 6.44385 9.27441C6.57275 9.19922 6.68376 9.12044 6.77686 9.03809V15H8.46875Z" fill="#212121"/>
<path d="M11.0898 13.3511V14.8013C11.5947 15.0233 12.2178 15.1343 12.959 15.1343C13.8721 15.1343 14.5954 14.889 15.1289 14.3984C15.6624 13.9043 15.9292 13.2687 15.9292 12.4917C15.9292 11.7899 15.7054 11.2313 15.2578 10.8159C14.8102 10.4006 14.1908 10.1929 13.3994 10.1929C13.1989 10.1929 12.9608 10.2036 12.6851 10.2251L12.7925 8.68359H15.5747V7.29785H11.498L11.208 11.5947C11.7272 11.5339 12.1855 11.5034 12.583 11.5034C13.6608 11.5034 14.1997 11.8848 14.1997 12.6475C14.1997 13.0127 14.0726 13.3027 13.8184 13.5176C13.5677 13.7288 13.2186 13.8345 12.771 13.8345C12.1766 13.8345 11.6162 13.6733 11.0898 13.3511Z" fill="#212121"/>
</svg>
