<svg width="20" height="20" viewBox="0 0 20 20" fill="none" xmlns="http://www.w3.org/2000/svg">
<path d="M10 1.53846C7.5886 1.53846 5.41248 2.54674 3.87046 4.16667H6C6.41421 4.16667 6.75 4.50245 6.75 4.91667C6.75 5.33088 6.41421 5.66667 6 5.66667H2.25C1.83579 5.66667 1.5 5.33088 1.5 4.91667V0.75C1.5 0.335786 1.83579 0 2.25 0C2.66421 0 3 0.335786 3 0.75V2.85868C4.80316 1.0911 7.27406 0 10 0C15.5228 0 20 4.47715 20 10C20 15.5228 15.5228 20 10 20C4.47715 20 0 15.5228 0 10C0 9.57517 0.344396 9.23077 0.769231 9.23077C1.19407 9.23077 1.53846 9.57517 1.53846 10C1.53846 14.6732 5.32682 18.4615 10 18.4615C14.6732 18.4615 18.4615 14.6732 18.4615 10C18.4615 5.32682 14.6732 1.53846 10 1.53846Z" fill="#212121"/>
<path d="M8.0625 14V6.8418H7.12988C6.84342 7.0599 6.52279 7.26009 6.16797 7.44238C5.81315 7.62467 5.43555 7.77441 5.03516 7.8916V9.19043C5.17188 9.17415 5.31022 9.14811 5.4502 9.1123C5.59017 9.07324 5.72526 9.02767 5.85547 8.97559C5.98568 8.92025 6.10775 8.86003 6.22168 8.79492C6.33887 8.72656 6.43978 8.65495 6.52441 8.58008V14H8.0625Z" fill="#212121"/>
<path d="M10.4453 12.501V13.8193C10.9043 14.0212 11.4707 14.1221 12.1445 14.1221C12.9746 14.1221 13.6322 13.8991 14.1172 13.4531C14.6022 13.0039 14.8447 12.4261 14.8447 11.7197C14.8447 11.0817 14.6413 10.5739 14.2344 10.1963C13.8275 9.81868 13.2643 9.62988 12.5449 9.62988C12.3626 9.62988 12.1462 9.63965 11.8955 9.65918L11.9932 8.25781H14.5225V6.99805H10.8164L10.5527 10.9043C11.0247 10.849 11.4414 10.8213 11.8027 10.8213C12.7826 10.8213 13.2725 11.168 13.2725 11.8613C13.2725 12.1934 13.1569 12.457 12.9258 12.6523C12.6979 12.8444 12.3805 12.9404 11.9736 12.9404C11.4333 12.9404 10.9238 12.7939 10.4453 12.501Z" fill="#212121"/>
</svg>
