<svg width="16" height="16" viewBox="0 0 16 16" fill="none" xmlns="http://www.w3.org/2000/svg">
<path d="M8 1C5.84795 1 3.92248 1.97082 2.63784 3.5H5C5.27614 3.5 5.5 3.72386 5.5 4C5.5 4.27614 5.27614 4.5 5 4.5H1.5C1.22386 4.5 1 4.27614 1 4V0.5C1 0.223858 1.22386 0 1.5 0C1.77614 0 2 0.223858 2 0.5V2.70841C3.46538 1.04818 5.6102 0 8 0C12.4183 0 16 3.58172 16 8C16 12.4183 12.4183 16 8 16C3.58172 16 0 12.4183 0 8C0 7.72386 0.223858 7.5 0.5 7.5C0.776142 7.5 1 7.72386 1 8C1 11.866 4.13401 15 8 15C11.866 15 15 11.866 15 8C15 4.13401 11.866 1 8 1Z" fill="#212121"/>
<path d="M6.25 11V5.27344H5.50391C5.27474 5.44792 5.01823 5.60807 4.73438 5.75391C4.45052 5.89974 4.14844 6.01953 3.82812 6.11328V7.15234C3.9375 7.13932 4.04818 7.11849 4.16016 7.08984C4.27214 7.05859 4.38021 7.02214 4.48438 6.98047C4.58854 6.9362 4.6862 6.88802 4.77734 6.83594C4.87109 6.78125 4.95182 6.72396 5.01953 6.66406V11H6.25Z" fill="#212121"/>
<path d="M8.15625 9.80078V10.8555C8.52344 11.0169 8.97656 11.0977 9.51562 11.0977C10.1797 11.0977 10.7057 10.9193 11.0938 10.5625C11.4818 10.2031 11.6758 9.74089 11.6758 9.17578C11.6758 8.66536 11.513 8.25911 11.1875 7.95703C10.862 7.65495 10.4115 7.50391 9.83594 7.50391C9.6901 7.50391 9.51693 7.51172 9.31641 7.52734L9.39453 6.40625H11.418V5.39844H8.45312L8.24219 8.52344C8.61979 8.47917 8.95312 8.45703 9.24219 8.45703C10.026 8.45703 10.418 8.73438 10.418 9.28906C10.418 9.55469 10.3255 9.76562 10.1406 9.92188C9.95833 10.0755 9.70443 10.1523 9.37891 10.1523C8.94661 10.1523 8.53906 10.0352 8.15625 9.80078Z" fill="#212121"/>
</svg>
