<svg width="26" height="26" viewBox="0 0 26 26" fill="none" xmlns="http://www.w3.org/2000/svg">
<path d="M5.69053 5.39623C7.58722 3.5723 10.163 2.45283 13 2.45283C18.825 2.45283 23.5472 7.17496 23.5472 13C23.5472 18.825 18.825 23.5472 13 23.5472C7.17496 23.5472 2.45283 18.825 2.45283 13C2.45283 12.3227 1.90375 11.7736 1.22642 11.7736C0.549085 11.7736 0 12.3227 0 13C0 20.1797 5.8203 26 13 26C20.1797 26 26 20.1797 26 13C26 5.8203 20.1797 0 13 0C9.70914 0 6.70428 1.22333 4.41509 3.23785V1.71698C4.41509 1.03965 3.86601 0.490566 3.18868 0.490566C2.51135 0.490566 1.96226 1.03965 1.96226 1.71698V6.62264C1.96226 7.29997 2.51135 7.84906 3.18868 7.84906H7.60377C8.2811 7.84906 8.83019 7.29997 8.83019 6.62264C8.83019 5.94531 8.2811 5.39623 7.60377 5.39623H5.69053Z" fill="#212121"/>
<path d="M10.2812 18V8.69434H9.06885C8.69645 8.97786 8.27962 9.23812 7.81836 9.4751C7.3571 9.71208 6.86621 9.90674 6.3457 10.0591V11.7476C6.52344 11.7264 6.70329 11.6925 6.88525 11.646C7.06722 11.5952 7.24284 11.536 7.41211 11.4683C7.58138 11.3963 7.74007 11.318 7.88818 11.2334C8.04053 11.1445 8.17171 11.0514 8.28174 10.9541V18H10.2812Z" fill="#212121"/>
<path d="M13.3789 16.0513V17.7651C13.9756 18.0275 14.7119 18.1587 15.5879 18.1587C16.667 18.1587 17.5218 17.8688 18.1523 17.2891C18.7829 16.7051 19.0981 15.9539 19.0981 15.0356C19.0981 14.2062 18.8337 13.5461 18.3047 13.0552C17.7757 12.5643 17.0436 12.3188 16.1084 12.3188C15.8714 12.3188 15.59 12.3315 15.2642 12.3569L15.3911 10.5352H18.6792V8.89746H13.8613L13.5186 13.9756C14.1322 13.9036 14.6738 13.8677 15.1436 13.8677C16.4173 13.8677 17.0542 14.3184 17.0542 15.2197C17.0542 15.6514 16.904 15.9941 16.6035 16.248C16.3073 16.4977 15.8947 16.6226 15.3657 16.6226C14.6632 16.6226 14.001 16.4321 13.3789 16.0513Z" fill="#212121"/>
</svg>
