<svg width="20" height="20" viewBox="0 0 20 20" fill="none" xmlns="http://www.w3.org/2000/svg">
<path d="M10 2C7.67184 2 5.57552 2.99394 4.11256 4.58335H5.41669C5.96897 4.58335 6.41669 5.03107 6.41669 5.58335C6.41669 6.13564 5.96897 6.58335 5.41669 6.58335H1.66669C1.1144 6.58335 0.666687 6.13564 0.666687 5.58335V1.41669C0.666687 0.864402 1.1144 0.416687 1.66669 0.416687C2.21897 0.416687 2.66669 0.864402 2.66669 1.41669V3.20134C4.49208 1.23345 7.10185 0 10 0C15.5228 0 20 4.47715 20 10C20 15.5228 15.5228 20 10 20C4.47715 20 0 15.5228 0 10C0 9.44771 0.447715 9 1 9C1.55228 9 2 9.44771 2 10C2 14.4183 5.58172 18 10 18C14.4183 18 18 14.4183 18 10C18 5.58172 14.4183 2 10 2Z" fill="#212121"/>
<path d="M8.31055 14V6.8418H7.37793C7.09147 7.0599 6.77083 7.26009 6.41602 7.44238C6.0612 7.62467 5.68359 7.77441 5.2832 7.8916V9.19043C5.41992 9.17415 5.55827 9.14811 5.69824 9.1123C5.83822 9.07324 5.97331 9.02767 6.10352 8.97559C6.23372 8.92025 6.35579 8.86003 6.46973 8.79492C6.58691 8.72656 6.68783 8.65495 6.77246 8.58008V14H8.31055Z" fill="#212121"/>
<path d="M10.6934 12.501V13.8193C11.1523 14.0212 11.7188 14.1221 12.3926 14.1221C13.2227 14.1221 13.8802 13.8991 14.3652 13.4531C14.8503 13.0039 15.0928 12.4261 15.0928 11.7197C15.0928 11.0817 14.8893 10.5739 14.4824 10.1963C14.0755 9.81868 13.5124 9.62988 12.793 9.62988C12.6107 9.62988 12.3942 9.63965 12.1436 9.65918L12.2412 8.25781H14.7705V6.99805H11.0645L10.8008 10.9043C11.2728 10.849 11.6895 10.8213 12.0508 10.8213C13.0306 10.8213 13.5205 11.168 13.5205 11.8613C13.5205 12.1934 13.4049 12.457 13.1738 12.6523C12.946 12.8444 12.6286 12.9404 12.2217 12.9404C11.6813 12.9404 11.1719 12.7939 10.6934 12.501Z" fill="#212121"/>
</svg>
