<svg width="12" height="13" viewBox="0 0 12 13" fill="none" xmlns="http://www.w3.org/2000/svg">
<path d="M1.75 1C2.16421 1 2.5 1.33579 2.5 1.75V2.12619C3.48485 1.41775 4.69358 1 6 1C9.31371 1 12 3.68629 12 7C12 10.3137 9.31371 13 6 13C2.68629 13 0 10.3137 0 7C0 6.63181 0.298477 6.33333 0.666667 6.33333C1.03486 6.33333 1.33333 6.63181 1.33333 7C1.33333 9.57733 3.42267 11.6667 6 11.6667C8.57733 11.6667 10.6667 9.57733 10.6667 7C10.6667 4.42267 8.57733 2.33333 6 2.33333C5.12028 2.33333 4.2973 2.57659 3.5947 3H3.75C4.16421 3 4.5 3.33579 4.5 3.75C4.5 4.16421 4.16421 4.5 3.75 4.5H1.75C1.33579 4.5 1 4.16421 1 3.75V3.70168C0.997268 3.69367 0.997175 3.68717 1 3.68237V1.75C1 1.33579 1.33579 1 1.75 1Z" fill="#212121"/>
<path d="M4.81641 9.29492V5H4.25684C4.08496 5.13086 3.89258 5.25098 3.67969 5.36035C3.4668 5.46973 3.24023 5.55957 3 5.62988V6.40918C3.08203 6.39941 3.16504 6.38379 3.24902 6.3623C3.33301 6.33887 3.41406 6.31152 3.49219 6.28027C3.57031 6.24707 3.64355 6.21094 3.71191 6.17188C3.78223 6.13086 3.84277 6.08789 3.89355 6.04297V9.29492H4.81641Z" fill="#212121"/>
<path d="M6.00609 8.39551V9.18652C6.28148 9.30762 6.62133 9.36816 7.02563 9.36816C7.52367 9.36816 7.9182 9.23438 8.20922 8.9668C8.50023 8.69727 8.64574 8.35059 8.64574 7.92676C8.64574 7.54395 8.52367 7.23926 8.27953 7.0127C8.03539 6.78613 7.6975 6.67285 7.26586 6.67285C7.15648 6.67285 7.0266 6.67871 6.87621 6.69043L6.9348 5.84961H8.45238V5.09375H6.22875L6.07055 7.4375C6.35375 7.4043 6.60375 7.3877 6.82055 7.3877C7.40844 7.3877 7.70238 7.5957 7.70238 8.01172C7.70238 8.21094 7.63305 8.36914 7.49438 8.48633C7.35766 8.60156 7.16723 8.65918 6.92309 8.65918C6.59887 8.65918 6.2932 8.57129 6.00609 8.39551Z" fill="#212121"/>
</svg>
