<svg width="20" height="20" viewBox="0 0 20 20" fill="none" xmlns="http://www.w3.org/2000/svg">
<path d="M4.25 4C4.66421 4 5 4.33579 5 4.75C5 5.03521 5.12914 5.18584 5.54369 5.66936L5.56944 5.69941C5.98366 6.18266 6.5 6.85511 6.5 8C6.5 8.68375 6.34516 9.21389 6.07624 9.65089C5.82861 10.0533 5.50489 10.3363 5.26703 10.5442L5.24388 10.5644C4.98355 10.7922 4.82048 10.9415 4.70124 11.1353C4.59516 11.3076 4.5 11.5588 4.5 12C4.5 12.6051 4.73366 12.9327 5.06944 13.3244C5.09892 13.3588 5.13104 13.3952 5.16503 13.4338L5.16506 13.4338C5.49431 13.8072 6 14.3808 6 15.25C6 15.6642 5.66421 16 5.25 16C4.83579 16 4.5 15.6642 4.5 15.25C4.5 14.9648 4.37086 14.8142 3.95631 14.3306L3.93056 14.3006C3.51634 13.8173 3 13.1449 3 12C3 11.3162 3.15484 10.7861 3.42376 10.3491C3.67139 9.94671 3.99511 9.66373 4.23297 9.45581L4.25612 9.43557C4.51645 9.20778 4.67952 9.0585 4.79876 8.86474C4.90484 8.69236 5 8.44125 5 8C5 7.39489 4.76634 7.06734 4.43056 6.67559C4.40107 6.64119 4.36895 6.60476 4.33495 6.5662L4.33495 6.56619C4.00569 6.19275 3.5 5.6192 3.5 4.75C3.5 4.33579 3.83579 4 4.25 4ZM9.25 4C9.66421 4 10 4.33579 10 4.75C10 5.03521 10.1291 5.18584 10.5437 5.66936L10.5694 5.69941C10.9837 6.18266 11.5 6.85511 11.5 8C11.5 8.68375 11.3452 9.21389 11.0762 9.65089C10.8286 10.0533 10.5049 10.3363 10.267 10.5442L10.267 10.5442L10.2439 10.5644C9.98355 10.7922 9.82048 10.9415 9.70124 11.1353C9.59516 11.3076 9.5 11.5588 9.5 12C9.5 12.6051 9.73366 12.9327 10.0694 13.3244C10.0989 13.3588 10.131 13.3952 10.165 13.4338L10.1651 13.4338C10.4943 13.8072 11 14.3808 11 15.25C11 15.6642 10.6642 16 10.25 16C9.83579 16 9.5 15.6642 9.5 15.25C9.5 14.9648 9.37086 14.8142 8.95631 14.3306L8.93056 14.3006C8.51634 13.8173 8 13.1449 8 12C8 11.3162 8.15484 10.7861 8.42376 10.3491C8.67139 9.94671 8.99511 9.66374 9.23297 9.45581L9.23297 9.45581L9.25612 9.43557C9.51645 9.20778 9.67952 9.0585 9.79876 8.86474C9.90484 8.69236 10 8.44125 10 8C10 7.39489 9.76634 7.06734 9.43056 6.67559C9.40107 6.64119 9.36895 6.60476 9.33495 6.56619C9.00569 6.19275 8.5 5.6192 8.5 4.75C8.5 4.33579 8.83579 4 9.25 4ZM15 4.75C15 4.33579 14.6642 4 14.25 4C13.8358 4 13.5 4.33579 13.5 4.75C13.5 5.6192 14.0057 6.19275 14.3349 6.56619L14.3351 6.56634C14.369 6.60485 14.4011 6.64124 14.4306 6.67559C14.7663 7.06734 15 7.39489 15 8C15 8.44125 14.9048 8.69236 14.7988 8.86474C14.6795 9.0585 14.5165 9.20778 14.2561 9.43557L14.233 9.45581C13.9951 9.66373 13.6714 9.94671 13.4238 10.3491C13.1548 10.7861 13 11.3162 13 12C13 13.1449 13.5163 13.8173 13.9306 14.3006L13.9563 14.3306C14.3709 14.8142 14.5 14.9648 14.5 15.25C14.5 15.6642 14.8358 16 15.25 16C15.6642 16 16 15.6642 16 15.25C16 14.3808 15.4943 13.8072 15.1651 13.4338C15.1311 13.3952 15.0989 13.3588 15.0694 13.3244C14.7337 12.9327 14.5 12.6051 14.5 12C14.5 11.5588 14.5952 11.3076 14.7012 11.1353C14.8205 10.9415 14.9835 10.7922 15.2439 10.5644L15.267 10.5442L15.267 10.5442C15.5049 10.3363 15.8286 10.0533 16.0762 9.65089C16.3452 9.21389 16.5 8.68375 16.5 8C16.5 6.85511 15.9837 6.18266 15.5694 5.69941L15.5437 5.66936C15.1291 5.18584 15 5.03521 15 4.75Z" fill="#212121"/>
</svg>
