<svg width="20" height="20" viewBox="0 0 20 20" fill="none" xmlns="http://www.w3.org/2000/svg">
<path d="M5 4.5C5 4.22386 4.77614 4 4.5 4C4.22386 4 4 4.22386 4 4.5C4 5.42006 4.46744 5.92331 4.82873 6.31228L4.8826 6.37039C5.06914 6.57247 5.21533 6.74104 5.32233 6.94613C5.42437 7.14169 5.5 7.39009 5.5 7.75C5.5 8.67749 5.11476 9.11829 4.6263 9.66782L4.61779 9.67739C4.10797 10.2509 3.5 10.9348 3.5 12.25C3.5 12.7651 3.61187 13.1729 3.79108 13.5164C3.96533 13.8504 4.19414 14.1037 4.3826 14.3079L4.40378 14.3308C4.77447 14.7322 5 14.9764 5 15.5C5 15.7761 5.22386 16 5.5 16C5.77614 16 6 15.7761 6 15.5C6 14.5799 5.53256 14.0767 5.17127 13.6877L5.1174 13.6296C4.93086 13.4275 4.78467 13.259 4.67767 13.0539C4.57563 12.8583 4.5 12.6099 4.5 12.25C4.5 11.3225 4.88524 10.8817 5.3737 10.3322L5.38221 10.3226C5.89203 9.74911 6.5 9.06519 6.5 7.75C6.5 7.23491 6.38813 6.82706 6.20892 6.48356C6.03467 6.14959 5.80586 5.89628 5.6174 5.69211L5.59622 5.66917C5.22553 5.26778 5 5.02356 5 4.5ZM9.5 4C9.77614 4 10 4.22386 10 4.5C10 5.02356 10.2255 5.26778 10.5962 5.66917L10.6174 5.69211C10.8059 5.89628 11.0347 6.14959 11.2089 6.48356C11.3881 6.82706 11.5 7.23491 11.5 7.75C11.5 9.06519 10.892 9.74911 10.3822 10.3226L10.3737 10.3322C9.88524 10.8817 9.5 11.3225 9.5 12.25C9.5 12.6099 9.57563 12.8583 9.67767 13.0539C9.78467 13.259 9.93086 13.4275 10.1174 13.6296L10.1713 13.6877C10.5326 14.0767 11 14.5799 11 15.5C11 15.7761 10.7761 16 10.5 16C10.2239 16 10 15.7761 10 15.5C10 14.9764 9.77447 14.7322 9.40378 14.3308L9.3826 14.3079C9.19414 14.1037 8.96533 13.8504 8.79108 13.5164C8.61187 13.1729 8.5 12.7651 8.5 12.25C8.5 10.9348 9.10797 10.2509 9.61779 9.67739L9.6263 9.66782C10.1148 9.11829 10.5 8.67749 10.5 7.75C10.5 7.39009 10.4244 7.14169 10.3223 6.94613C10.2153 6.74104 10.0691 6.57247 9.8826 6.37039L9.82873 6.31228C9.46744 5.92331 9 5.42006 9 4.5C9 4.22386 9.22386 4 9.5 4ZM14.5 4C14.7761 4 15 4.22386 15 4.5C15 5.02356 15.2255 5.26778 15.5962 5.66917L15.6174 5.69211C15.8059 5.89628 16.0347 6.14959 16.2089 6.48356C16.3881 6.82706 16.5 7.23491 16.5 7.75C16.5 9.06519 15.892 9.74911 15.3822 10.3226L15.3737 10.3322C14.8852 10.8817 14.5 11.3225 14.5 12.25C14.5 12.6099 14.5756 12.8583 14.6777 13.0539C14.7847 13.259 14.9309 13.4275 15.1174 13.6296L15.1713 13.6877C15.5326 14.0767 16 14.5799 16 15.5C16 15.7761 15.7761 16 15.5 16C15.2239 16 15 15.7761 15 15.5C15 14.9764 14.7745 14.7322 14.4038 14.3308L14.3826 14.3079C14.1941 14.1037 13.9653 13.8504 13.7911 13.5164C13.6119 13.1729 13.5 12.7651 13.5 12.25C13.5 10.9348 14.108 10.2509 14.6178 9.67739L14.6263 9.66782C15.1148 9.11829 15.5 8.67749 15.5 7.75C15.5 7.39009 15.4244 7.14169 15.3223 6.94613C15.2153 6.74104 15.0691 6.57247 14.8826 6.37039L14.8287 6.31228C14.4674 5.92331 14 5.42006 14 4.5C14 4.22386 14.2239 4 14.5 4Z" fill="#212121"/>
</svg>
