<svg width="24" height="24" viewBox="0 0 24 24" fill="none" xmlns="http://www.w3.org/2000/svg">
<path d="M6 6C5.58579 6 5.25 6.33579 5.25 6.75C5.25 7.16421 5.58579 7.5 6 7.5H17C17.4142 7.5 17.75 7.16421 17.75 6.75C17.75 6.33579 17.4142 6 17 6H6Z" fill="#212121"/>
<path d="M6 10C5.58579 10 5.25 10.3358 5.25 10.75C5.25 11.1642 5.58579 11.5 6 11.5H12.8895C13.2724 10.9127 13.7645 10.4031 14.3369 10H6Z" fill="#212121"/>
<path d="M12.0224 14C12.0076 14.1647 12 14.3315 12 14.5C12 14.8415 12.0311 15.1757 12.0907 15.5H6C5.58579 15.5 5.25 15.1642 5.25 14.75C5.25 14.3358 5.58579 14 6 14H12.0224Z" fill="#212121"/>
<path d="M18.5528 18.0068C18.2729 18.3121 17.7985 18.3328 17.4932 18.0529L14.4931 15.3028C14.3381 15.1608 14.2499 14.9602 14.2499 14.7499C14.2499 14.5397 14.3381 14.3391 14.4931 14.1971L17.4932 11.4471C17.7985 11.1672 18.2729 11.1879 18.5528 11.4932C18.8327 11.7986 18.8121 12.273 18.5067 12.5529L16.1098 14.75L18.5068 16.9471C18.8121 17.227 18.8327 17.7015 18.5528 18.0068Z" fill="#212121"/>
</svg>
