<svg width="32" height="32" viewBox="0 0 32 32" fill="none" xmlns="http://www.w3.org/2000/svg">
<path d="M7 7C6.44772 7 6 7.44772 6 8C6 8.55228 6.44772 9 7 9H24C24.5523 9 25 8.55228 25 8C25 7.44772 24.5523 7 24 7H7Z" fill="#212121"/>
<path d="M7 13C6.44772 13 6 13.4477 6 14C6 14.5523 6.44772 15 7 15H18.7546C19.4047 14.1891 20.2094 13.5075 21.124 13H7Z" fill="#212121"/>
<path d="M17.0619 19C17.021 19.3276 17 19.6613 17 20C17 20.3387 17.021 20.6724 17.0619 21H7C6.44772 21 6 20.5523 6 20C6 19.4477 6.44772 19 7 19H17.0619Z" fill="#212121"/>
<path d="M25.7071 24.7071C25.3165 25.0976 24.6834 25.0976 24.2929 24.7071L20.2929 20.7071C19.9024 20.3166 19.9024 19.6834 20.2929 19.2929L24.2929 15.2929C24.6834 14.9024 25.3166 14.9024 25.7071 15.2929C26.0976 15.6834 26.0976 16.3166 25.7071 16.7071L22.4142 20L25.7071 23.2929C26.0976 23.6834 26.0976 24.3166 25.7071 24.7071Z" fill="#212121"/>
</svg>
