<svg width="20" height="20" viewBox="0 0 20 20" fill="none" xmlns="http://www.w3.org/2000/svg">
<path d="M4.5 4C4.22386 4 4 4.22386 4 4.5C4 4.77614 4.22386 5 4.5 5H15C15.2761 5 15.5 4.77614 15.5 4.5C15.5 4.22386 15.2761 4 15 4H4.5Z" fill="#212121"/>
<path d="M4.5 8C4.22386 8 4 8.22386 4 8.5C4 8.77614 4.22386 9 4.5 9H11.2572C11.5705 8.62057 11.9338 8.28389 12.3369 8H4.5Z" fill="#212121"/>
<path d="M10.0224 12C10.0076 12.1647 10 12.3315 10 12.5C10 12.6685 10.0076 12.8353 10.0224 13H4.5C4.22386 13 4 12.7761 4 12.5C4 12.2239 4.22386 12 4.5 12H10.0224Z" fill="#212121"/>
<path d="M16.3841 15.3201C16.2073 15.5322 15.8921 15.5609 15.6799 15.3841L12.6798 12.8841C12.5658 12.7891 12.4999 12.6484 12.4999 12.5C12.4999 12.3516 12.5658 12.2109 12.6798 12.1159L15.6799 9.61587C15.892 9.43909 16.2073 9.46775 16.3841 9.67989C16.5609 9.89203 16.5322 10.2073 16.3201 10.3841L13.781 12.5L16.3201 14.6159C16.5322 14.7927 16.5609 15.1079 16.3841 15.3201Z" fill="#212121"/>
</svg>
