<svg width="48" height="48" viewBox="0 0 48 48" fill="none" xmlns="http://www.w3.org/2000/svg">
<path d="M13 13C12.4477 13 12 13.4477 12 14C12 14.5523 12.4477 15 13 15H34C34.5523 15 35 14.5523 35 14C35 13.4477 34.5523 13 34 13H13Z" fill="#212121"/>
<path d="M13 21C12.4477 21 12 21.4477 12 22C12 22.5523 12.4477 23 13 23H27.8586C28.6584 22.1841 29.5969 21.5048 30.6359 21H13Z" fill="#212121"/>
<path d="M25.0494 29C25.0167 29.3289 25 29.6625 25 30C25 30.3375 25.0167 30.6711 25.0494 31H13C12.4477 31 12 30.5523 12 30C12 29.4477 12.4477 29 13 29H25.0494Z" fill="#212121"/>
<path d="M35.7071 35.7071C35.3166 36.0976 34.6834 36.0976 34.2929 35.7071L29.2929 30.7071C28.9024 30.3166 28.9024 29.6834 29.2929 29.2929L34.2929 24.2929C34.6835 23.9023 35.3166 23.9023 35.7072 24.2929C36.0977 24.6834 36.0977 25.3165 35.7072 25.7071L31.4142 30L35.7071 34.2929C36.0976 34.6834 36.0976 35.3166 35.7071 35.7071Z" fill="#212121"/>
</svg>
