<svg width="48" height="48" viewBox="0 0 48 48" fill="none" xmlns="http://www.w3.org/2000/svg">
<path d="M13 13C12.3096 13 11.75 13.5596 11.75 14.25C11.75 14.9404 12.3096 15.5 13 15.5H34C34.6904 15.5 35.25 14.9404 35.25 14.25C35.25 13.5596 34.6904 13 34 13H13Z" fill="#212121"/>
<path d="M13 21C12.3096 21 11.75 21.5596 11.75 22.25C11.75 22.9404 12.3096 23.5 13 23.5H26.4004C27.2909 22.4598 28.3913 21.6046 29.6359 21H13Z" fill="#212121"/>
<path d="M24.0494 29C24.0167 29.3289 24 29.6625 24 30C24 30.5098 24.0381 31.0107 24.1118 31.5H13C12.3096 31.5 11.75 30.9404 11.75 30.25C11.75 29.5596 12.3096 29 13 29H24.0494Z" fill="#212121"/>
<path d="M35.8839 36.2339C35.3957 36.7221 34.6043 36.7221 34.1161 36.2339L29.1161 31.2339C28.628 30.7458 28.628 29.9543 29.1162 29.4661L34.1162 24.4661C34.6043 23.978 35.3958 23.978 35.8839 24.4661C36.3721 24.9543 36.3721 25.7457 35.8839 26.2339L31.7678 30.35L35.8839 34.4662C36.372 34.9543 36.372 35.7458 35.8839 36.2339Z" fill="#212121"/>
</svg>
