<svg width="16" height="16" viewBox="0 0 16 16" fill="none" xmlns="http://www.w3.org/2000/svg">
<path d="M3.75 4C3.33579 4 3 4.33579 3 4.75C3 5.16421 3.33579 5.5 3.75 5.5H11C11.4142 5.5 11.75 5.16421 11.75 4.75C11.75 4.33579 11.4142 4 11 4H3.75Z" fill="#212121"/>
<path d="M3.75 7C3.33579 7 3 7.33579 3 7.75C3 8.16421 3.33579 8.5 3.75 8.5H7.66891C8.00753 7.91464 8.4614 7.40429 8.99951 7H3.75Z" fill="#212121"/>
<path d="M7.10002 10C7.03443 10.3231 7 10.6575 7 11C7 11.1687 7.00836 11.3355 7.02469 11.5H3.75C3.33579 11.5 3 11.1642 3 10.75C3 10.3358 3.33579 10 3.75 10H7.10002Z" fill="#212121"/>
<path d="M12.8904 13.0624C12.7179 13.278 12.4033 13.3129 12.1877 13.1404L9.68767 11.1404C9.57304 11.0487 9.5045 10.9113 9.50023 10.7645C9.49597 10.6178 9.55641 10.4766 9.66552 10.3784L12.1654 8.12829C12.3707 7.94355 12.6868 7.96018 12.8716 8.16543C13.0563 8.37067 13.0397 8.68682 12.8344 8.87156L10.7724 10.7276L12.8124 12.3596C13.028 12.5321 13.063 12.8467 12.8904 13.0624Z" fill="#212121"/>
</svg>
