<svg width="16" height="16" viewBox="0 0 16 16" fill="none" xmlns="http://www.w3.org/2000/svg">
<path d="M3.44446 4C3.16832 4 2.94446 4.22386 2.94446 4.5C2.94446 4.77614 3.16832 5 3.44446 5H10.5C10.7761 5 11 4.77614 11 4.5C11 4.22386 10.7761 4 10.5 4H3.44446Z" fill="#212121"/>
<path d="M3.44446 7C3.16832 7 2.94446 7.22386 2.94446 7.5C2.94446 7.77614 3.16832 8 3.44446 8H7.75779C8.01057 7.62236 8.319 7.28512 8.67135 7H3.44446Z" fill="#212121"/>
<path d="M7.02748 10C7.00933 10.1642 7.00001 10.331 7.00001 10.5C7.00001 10.669 7.00933 10.8358 7.02748 11H3.44446C3.16832 11 2.94446 10.7761 2.94446 10.5C2.94446 10.2239 3.16832 10 3.44446 10H7.02748Z" fill="#212121"/>
<path d="M12.8904 12.8123C12.7179 13.028 12.4033 13.0629 12.1877 12.8904L9.68767 10.8904C9.56907 10.7955 9.50002 10.6519 9.50002 10.5C9.50002 10.3481 9.56906 10.2045 9.68766 10.1096L12.1876 8.1095C12.4032 7.93699 12.7178 7.97194 12.8904 8.18756C13.0629 8.40318 13.0279 8.71783 12.8123 8.89035L10.8004 10.5L12.8124 12.1096C13.028 12.2821 13.063 12.5967 12.8904 12.8123Z" fill="#212121"/>
</svg>
