<svg width="24" height="24" viewBox="0 0 24 24" fill="none" xmlns="http://www.w3.org/2000/svg">
<path d="M6 6C5.72386 6 5.5 6.22386 5.5 6.5C5.5 6.77614 5.72386 7 6 7H17C17.2761 7 17.5 6.77614 17.5 6.5C17.5 6.22386 17.2761 6 17 6H6Z" fill="#212121"/>
<path d="M6 10C5.72386 10 5.5 10.2239 5.5 10.5C5.5 10.7761 5.72386 11 6 11H13.2572C13.5705 10.6206 13.9338 10.2839 14.3369 10H6Z" fill="#212121"/>
<path d="M12.0224 14C12.0076 14.1647 12 14.3315 12 14.5C12 14.6685 12.0076 14.8353 12.0224 15H6C5.72386 15 5.5 14.7761 5.5 14.5C5.5 14.2239 5.72386 14 6 14H12.0224Z" fill="#212121"/>
<path d="M18.3841 17.3201C18.2074 17.5322 17.8921 17.5609 17.6799 17.3841L14.6799 14.8841C14.5659 14.7892 14.5 14.6484 14.4999 14.5C14.4999 14.3516 14.5659 14.2109 14.6799 14.1159L17.6799 11.6159C17.8921 11.4391 18.2073 11.4678 18.3841 11.6799C18.5609 11.892 18.5322 12.2073 18.3201 12.3841L15.781 14.5L18.3201 16.6159C18.5323 16.7927 18.5609 17.108 18.3841 17.3201Z" fill="#212121"/>
</svg>
