<svg width="28" height="28" viewBox="0 0 28 28" fill="none" xmlns="http://www.w3.org/2000/svg">
<path d="M6 6C5.44772 6 5 6.44772 5 7C5 7.55228 5.44772 8 6 8H20C20.5523 8 21 7.55228 21 7C21 6.44772 20.5523 6 20 6H6Z" fill="#212121"/>
<path d="M6 11C5.44772 11 5 11.4477 5 12C5 12.5523 5.44772 13 6 13H15.0703C15.5057 12.2472 16.0604 11.5719 16.7084 11H6Z" fill="#212121"/>
<path d="M14.0619 16C14.021 16.3276 14 16.6613 14 17C14 17.3387 14.021 17.6724 14.0619 18H6C5.44772 18 5 17.5523 5 17C5 16.4477 5.44772 16 6 16H14.0619Z" fill="#212121"/>
<path d="M22.7526 21.1585C22.3889 21.5741 21.7571 21.6163 21.3415 21.2526L17.3415 17.7526C17.1245 17.5627 17 17.2884 17 17C17 16.7116 17.1245 16.4373 17.3415 16.2474L21.3416 12.7474C21.7572 12.3837 22.389 12.4259 22.7526 12.8415C23.1163 13.2571 23.0742 13.8889 22.6586 14.2526L19.5186 17L22.6585 19.7474C23.0741 20.1111 23.1163 20.7429 22.7526 21.1585Z" fill="#212121"/>
</svg>
