<svg width="32" height="32" viewBox="0 0 32 32" fill="none" xmlns="http://www.w3.org/2000/svg">
<path d="M7 7C6.58579 7 6.25 7.33579 6.25 7.75C6.25 8.16421 6.58579 8.5 7 8.5H24C24.4142 8.5 24.75 8.16421 24.75 7.75C24.75 7.33579 24.4142 7 24 7H7Z" fill="#212121"/>
<path d="M7 13C6.58579 13 6.25 13.3358 6.25 13.75C6.25 14.1642 6.58579 14.5 7 14.5H18.1905C18.7524 13.9067 19.4041 13.3995 20.124 13H7Z" fill="#212121"/>
<path d="M16.0619 19C16.021 19.3276 16 19.6613 16 20C16 20.1679 16.0052 20.3346 16.0154 20.5H7C6.58579 20.5 6.25 20.1642 6.25 19.75C6.25 19.3358 6.58579 19 7 19H16.0619Z" fill="#212121"/>
<path d="M25.5303 24.5303C25.2374 24.8232 24.7625 24.8232 24.4696 24.5303L20.4697 20.5303C20.1768 20.2374 20.1768 19.7626 20.4697 19.4697L24.4697 15.4697C24.7625 15.1768 25.2374 15.1768 25.5303 15.4697C25.8232 15.7625 25.8232 16.2374 25.5303 16.5303L22.0606 20L25.5303 23.4697C25.8232 23.7626 25.8232 24.2374 25.5303 24.5303Z" fill="#212121"/>
</svg>
