<svg width="20" height="20" viewBox="0 0 20 20" fill="none" xmlns="http://www.w3.org/2000/svg">
<path d="M4.5 4C4.08579 4 3.75 4.33579 3.75 4.75C3.75 5.16421 4.08579 5.5 4.5 5.5H15C15.4142 5.5 15.75 5.16421 15.75 4.75C15.75 4.33579 15.4142 4 15 4H4.5Z" fill="#212121"/>
<path d="M4.5 8C4.08579 8 3.75 8.33579 3.75 8.75C3.75 9.16421 4.08579 9.5 4.5 9.5H10.8895C11.2724 8.91272 11.7645 8.40313 12.3369 8H4.5Z" fill="#212121"/>
<path d="M10.0224 12C10.0076 12.1647 10 12.3315 10 12.5C10 12.8415 10.0311 13.1757 10.0907 13.5H4.5C4.08579 13.5 3.75 13.1642 3.75 12.75C3.75 12.3358 4.08579 12 4.5 12H10.0224Z" fill="#212121"/>
<path d="M16.5725 9.5155C16.84 9.8317 16.8006 10.3049 16.4844 10.5725L13.9111 12.7499L16.4844 14.9274C16.8006 15.195 16.8401 15.6682 16.5725 15.9844C16.3049 16.3006 15.8317 16.3401 15.5155 16.0725L12.2655 13.3225C12.0971 13.18 12 12.9705 12 12.7499C12 12.5293 12.0971 12.3199 12.2655 12.1774L15.5155 9.42742C15.8317 9.15986 16.3049 9.19929 16.5725 9.5155Z" fill="#212121"/>
</svg>
