<svg width="28" height="28" viewBox="0 0 28 28" fill="none" xmlns="http://www.w3.org/2000/svg">
<path d="M6 6C5.58579 6 5.25 6.33579 5.25 6.75C5.25 7.16421 5.58579 7.5 6 7.5H20C20.4142 7.5 20.75 7.16421 20.75 6.75C20.75 6.33579 20.4142 6 20 6H6Z" fill="#212121"/>
<path d="M6 11C5.58579 11 5.25 11.3358 5.25 11.75C5.25 12.1642 5.58579 12.5 6 12.5H15.3847C15.7621 11.9462 16.2073 11.4422 16.7084 11H6Z" fill="#212121"/>
<path d="M14.0619 16C14.021 16.3276 14 16.6613 14 17C14 17.1679 14.0052 17.3346 14.0154 17.5H6C5.58579 17.5 5.25 17.1642 5.25 16.75C5.25 16.3358 5.58579 16 6 16H14.0619Z" fill="#212121"/>
<path d="M22.5472 21.0129C22.2639 21.3151 21.7893 21.3305 21.4871 21.0472L17.487 17.2972C17.3357 17.1554 17.2499 16.9573 17.2499 16.75C17.2499 16.5427 17.3357 16.3446 17.487 16.2029L21.487 12.4529C21.7892 12.1696 22.2638 12.1849 22.5471 12.4871C22.8304 12.7893 22.8151 13.2639 22.5129 13.5472L19.0965 16.75L22.513 19.9528C22.8152 20.2361 22.8305 20.7108 22.5472 21.0129Z" fill="#212121"/>
</svg>
