<svg width="24" height="24" viewBox="0 0 24 24" fill="none" xmlns="http://www.w3.org/2000/svg">
<path d="M3.66712 6.46981C5.45739 3.77721 8.52099 2 12 2C15.479 2 18.5426 3.77721 20.3329 6.46981C21.3863 8.05409 22 9.95651 22 12C22 14.0435 21.3863 15.9459 20.3329 17.5302C18.5426 20.2228 15.479 22 12 22C8.52099 22 5.45739 20.2228 3.66712 17.5302C2.61375 15.9459 2 14.0435 2 12C2 9.95651 2.61375 8.05409 3.66712 6.46981ZM7.3978 10.0416C8.16041 8.25213 9.9348 7 11.9999 7C14.065 7 15.8394 8.25213 16.602 10.0416C16.7644 10.4227 17.205 10.5999 17.586 10.4375C17.9671 10.2751 18.1444 9.8346 17.982 9.45354C16.992 7.13069 14.6873 5.5 11.9999 5.5C9.31257 5.5 7.0078 7.13069 6.01788 9.45354C5.85549 9.8346 6.03275 10.2751 6.41381 10.4375C6.79486 10.5999 7.23541 10.4227 7.3978 10.0416ZM7.3978 13.9584C7.23541 13.5773 6.79486 13.4001 6.41381 13.5625C6.03275 13.7249 5.85549 14.1654 6.01788 14.5465C7.0078 16.8693 9.31257 18.5 11.9999 18.5C14.6873 18.5 16.992 16.8693 17.982 14.5465C18.1444 14.1654 17.9671 13.7249 17.586 13.5625C17.205 13.4001 16.7644 13.5773 16.602 13.9584C15.8394 15.7479 14.065 17 11.9999 17C9.9348 17 8.16041 15.7479 7.3978 13.9584Z" fill="#212121"/>
</svg>
