<svg width="20" height="20" viewBox="0 0 20 20" fill="none" xmlns="http://www.w3.org/2000/svg">
<path d="M3.39818 7.66662C4.35937 4.94717 6.95294 3 10 3C13.0471 3 15.6406 4.94717 16.6018 7.66662C16.8595 8.3958 17 9.18096 17 10C17 10.819 16.8595 11.6042 16.6018 12.3334C15.6406 15.0528 13.0471 17 10 17C6.95294 17 4.35937 15.0528 3.39818 12.3334C3.14046 11.6042 3 10.819 3 10C3 9.18096 3.14046 8.3958 3.39818 7.66662ZM10 2C6.51597 2 3.55334 4.22687 2.45534 7.33338C2.16031 8.1681 2 9.06587 2 10C2 10.9341 2.16031 11.8319 2.45534 12.6666C3.55334 15.7731 6.51597 18 10 18C13.484 18 16.4467 15.7731 17.5447 12.6666C17.8397 11.8319 18 10.9341 18 10C18 9.06587 17.8397 8.1681 17.5447 7.33338C16.4467 4.22687 13.484 2 10 2ZM6.41553 8.22252C7.07067 6.90422 8.4302 6 10 6C11.5698 6 12.9294 6.90422 13.5845 8.22252C13.7074 8.46981 14.0075 8.57065 14.2548 8.44776C14.5021 8.32486 14.6029 8.02477 14.48 7.77748C13.6624 6.13234 11.9639 5 10 5C8.0361 5 6.33758 6.13234 5.52002 7.77748C5.39712 8.02477 5.49797 8.32486 5.74526 8.44776C5.99255 8.57065 6.29264 8.46981 6.41553 8.22252ZM6.41553 11.7775C6.29264 11.5302 5.99255 11.4294 5.74526 11.5522C5.49797 11.6751 5.39712 11.9752 5.52002 12.2225C6.33758 13.8677 8.0361 15 10 15C11.9639 15 13.6624 13.8677 14.48 12.2225C14.6029 11.9752 14.5021 11.6751 14.2548 11.5522C14.0075 11.4294 13.7074 11.5302 13.5845 11.7775C12.9294 13.0958 11.5698 14 10 14C8.4302 14 7.07067 13.0958 6.41553 11.7775Z" fill="#212121"/>
</svg>
