<svg width="24" height="24" viewBox="0 0 24 24" fill="none" xmlns="http://www.w3.org/2000/svg">
<path d="M12.7499 3C12.7499 2.44772 13.1976 2 13.7499 2H20.8999C21.5074 2 21.9999 2.49249 21.9999 3.1V9.79597C21.9999 10.3483 21.5522 10.796 20.9999 10.796C20.4476 10.796 19.9999 10.3483 19.9999 9.79597V5.41435L9.70708 15.7071C9.31656 16.0977 8.68339 16.0977 8.29287 15.7071C7.90235 15.3166 7.90235 14.6835 8.29287 14.2929L18.5858 4L13.7499 4C13.1976 4 12.7499 3.55228 12.7499 3ZM4 14C4 10.6863 6.68629 7.99997 10 7.99997C10.6062 7.99997 11.1913 8.08986 11.7429 8.25704L13.293 6.70698C12.2887 6.2528 11.1739 5.99997 10 5.99997C5.58172 5.99997 2 9.5817 2 14C2 18.4183 5.58172 22 10 22C14.4183 22 18 18.4183 18 14C18 12.8261 17.7472 11.7113 17.293 10.707L15.7429 12.257C15.9101 12.8086 16 13.3938 16 14C16 17.3137 13.3137 20 10 20C6.68629 20 4 17.3137 4 14Z" fill="#212121"/>
</svg>
