<svg width="20" height="20" viewBox="0 0 20 20" fill="none" xmlns="http://www.w3.org/2000/svg">
<path d="M10.9991 2.74992C10.9991 2.33571 11.335 1.99996 11.7492 2L17.1507 2.00055C17.6201 2.0006 18.0006 2.38115 18.0006 2.85056L18.0005 8.25025C18.0005 8.66447 17.6647 9.00025 17.2505 9.00024C16.8363 9.00024 16.5005 8.66445 16.5005 8.25024L16.5006 4.5547L8.28052 12.7805C7.98773 13.0735 7.51286 13.0736 7.21986 12.7809C6.92687 12.4881 6.9267 12.0132 7.21949 11.7202L15.4336 3.50038L11.749 3.5C11.3348 3.49996 10.9991 3.16414 10.9991 2.74992ZM3.5 11.5002C3.5 8.73878 5.73858 6.5002 8.5 6.5002C9.09786 6.5002 9.6712 6.60513 10.2026 6.79758L11.3456 5.65457C10.4862 5.23541 9.52057 5.0002 8.5 5.0002C4.91015 5.0002 2 7.91035 2 11.5002C2 15.0901 4.91015 18.0002 8.5 18.0002C12.0899 18.0002 15 15.0901 15 11.5002C15 10.4796 14.7648 9.51395 14.3456 8.65448L13.2026 9.79742C13.3951 10.3289 13.5 10.9023 13.5 11.5002C13.5 14.2616 11.2614 16.5002 8.5 16.5002C5.73858 16.5002 3.5 14.2616 3.5 11.5002Z" fill="#212121"/>
</svg>
