<svg width="24" height="24" viewBox="0 0 24 24" fill="none" xmlns="http://www.w3.org/2000/svg">
<path d="M13.2501 2.75C13.2501 2.33579 13.5858 2 14.0001 2H21.1501C21.6195 2 22.0001 2.38056 22.0001 2.85V9.54597C22.0001 9.96018 21.6643 10.296 21.2501 10.296C20.8358 10.296 20.5001 9.96018 20.5001 9.54597V4.56073L9.28048 15.7803C8.98758 16.0732 8.51271 16.0732 8.21982 15.7803C7.92692 15.4874 7.92692 15.0125 8.21982 14.7196L19.4395 3.5L14.0001 3.5C13.5858 3.5 13.2501 3.16421 13.2501 2.75ZM3.5 13.9999C3.5 10.4101 6.41015 7.49994 10 7.49994C11.0206 7.49994 11.9862 7.73514 12.8456 8.1543L13.9554 7.04457C12.7888 6.37975 11.4388 5.99994 10 5.99994C5.58172 5.99994 2 9.58166 2 13.9999C2 18.4182 5.58172 21.9999 10 21.9999C14.4183 21.9999 18 18.4182 18 13.9999C18 12.5587 17.6189 11.2064 16.9519 10.0385L15.8443 11.1515C16.2643 12.0117 16.5 12.9783 16.5 13.9999C16.5 17.5898 13.5899 20.4999 10 20.4999C6.41015 20.4999 3.5 17.5898 3.5 13.9999Z" fill="#212121"/>
</svg>
