<svg width="48" height="48" viewBox="0 0 48 48" fill="none" xmlns="http://www.w3.org/2000/svg">
<path d="M24.1901 32.25C26.3992 32.25 28.1901 34.0409 28.1901 36.25C28.1901 38.4591 26.3992 40.25 24.1901 40.25C21.981 40.25 20.1901 38.4591 20.1901 36.25C20.1901 34.0409 21.981 32.25 24.1901 32.25Z" fill="#242424"/>
<path d="M34.028 8C35.0316 8 35.6848 9.05651 35.236 9.9541L25.3971 29.6299C24.8996 30.6249 23.4806 30.6249 22.9831 29.6299L13.1442 9.9541C12.6954 9.05648 13.3487 8 14.3522 8H34.028ZM24.1901 26.4551L32.1676 10.5H16.2126L24.1901 26.4551Z" fill="#242424"/>
</svg>
