<svg width="32" height="32" viewBox="0 0 32 32" fill="none" xmlns="http://www.w3.org/2000/svg">
<path d="M15.9495 22C17.6063 22 18.9495 23.3431 18.9495 25C18.9495 26.6569 17.6063 28 15.9495 28C14.2926 28 12.9495 26.6569 12.9495 25C12.9495 23.3431 14.2926 22 15.9495 22Z" fill="#212121"/>
<path d="M21.7981 4C22.5876 4.0002 23.1198 4.80746 22.8088 5.5332L16.9602 19.1797C16.5791 20.0682 15.3198 20.0682 14.9387 19.1797L9.0901 5.5332C8.77913 4.80745 9.31133 4.0002 10.1008 4H21.7981ZM15.9495 16.4609L20.4329 6H11.4661L15.9495 16.4609Z" fill="#212121"/>
</svg>
