<svg width="20" height="20" viewBox="0 0 20 20" fill="none" xmlns="http://www.w3.org/2000/svg">
<path d="M8.5 2C6.48995 2 4.65036 2.30531 2.84904 2.87213L2.84581 2.87317C2.22932 3.0725 1.87553 3.70612 2.0404 4.32538L3.1372 8.98574H4.27492L4.47641 10.2859L4.48017 10.3019C4.55249 10.6106 4.76597 10.855 4.98894 11.0145C5.21448 11.1759 5.50553 11.2913 5.80313 11.2913H7.15162V14.5676H5.466C5.27982 14.5676 5.12889 14.7186 5.12889 14.9048C5.12889 15.0909 5.27982 15.2419 5.466 15.2419H8V14.5676H7.82584V11.2913H8V9C8 8.96028 8.00077 8.92074 8.0023 8.8814C6.8853 8.65141 6.04541 7.66249 6.04541 6.4774C6.04541 5.12185 7.14431 4.02295 8.49987 4.02295C9.69256 4.02295 10.6866 4.87365 10.9082 6.00138C10.9387 6.00047 10.9693 6 11 6H14.5655L14.9596 4.32537C15.1245 3.70611 14.7707 3.07249 14.1542 2.87315L14.151 2.87213C12.3496 2.30531 10.5101 2 8.5 2ZM11.8708 4.45459H12.6293V5.21308H11.8708V4.45459Z" fill="#212121"/>
<path d="M8.15967 8.0318C8.46177 7.14532 9.1672 6.44551 10.0572 6.15113C9.90671 5.42903 9.26664 4.88655 8.49987 4.88655C7.62126 4.88655 6.90901 5.5988 6.90901 6.4774C6.90901 7.23924 7.44453 7.87601 8.15967 8.0318Z" fill="#212121"/>
<path d="M13.5 15C14.3284 15 15 14.3284 15 13.5C15 12.6716 14.3284 12 13.5 12C12.6716 12 12 12.6716 12 13.5C12 14.3284 12.6716 15 13.5 15Z" fill="#212121"/>
<path d="M11 7C9.89543 7 9 7.89543 9 9V16C9 17.1046 9.89543 18 11 18H16C17.1046 18 18 17.1046 18 16V9C18 7.89543 17.1046 7 16 7H11ZM13.5 10C13.2239 10 13 9.77614 13 9.5C13 9.22386 13.2239 9 13.5 9C13.7761 9 14 9.22386 14 9.5C14 9.77614 13.7761 10 13.5 10ZM13.5 16C12.1193 16 11 14.8807 11 13.5C11 12.1193 12.1193 11 13.5 11C14.8807 11 16 12.1193 16 13.5C16 14.8807 14.8807 16 13.5 16Z" fill="#212121"/>
</svg>
