<svg width="32" height="32" viewBox="0 0 32 32" fill="none" xmlns="http://www.w3.org/2000/svg">
<path d="M3.59952 3.44871C6.59093 2.50739 9.64779 2 12.9868 2C16.3257 2 19.3826 2.50739 22.374 3.44871L22.3815 3.45107C23.5373 3.82481 24.208 5.01639 23.8987 6.18672L23.2366 9H18.0001C17.7534 9 17.5109 9.01787 17.2738 9.05237C16.9794 6.94806 15.1723 5.32861 12.9869 5.32861C10.5961 5.32861 8.65796 7.26673 8.65796 9.65751C8.65796 12.0483 10.5961 13.9864 12.9869 13.9864L13.0001 13.9864L13.0001 14V17.8704H12.3769V23.1665H13.0001V24.9998H8.50003C7.99378 24.9998 7.58337 24.5894 7.58337 24.0832C7.58337 23.5769 7.99378 23.1665 8.50003 23.1665H10.2673V17.8704H8.54822C7.98637 17.8704 7.44974 17.654 7.03986 17.3608C6.63595 17.0718 6.22907 16.6158 6.08918 16.0187L6.08048 15.9815L5.78514 14.0759H3.93147L2.07479 6.18671C1.76552 5.01638 2.43617 3.82483 3.59202 3.4511L3.59952 3.44871ZM18.5349 6.32861V7.57695H19.7832V6.32861H18.5349Z" fill="#212121"/>
<path d="M15.3158 9.65751C15.3158 9.69963 15.3146 9.7415 15.3124 9.78307C14.4976 10.3035 13.8437 11.0535 13.442 11.942C13.2948 11.9711 13.1426 11.9864 12.9869 11.9864C11.7006 11.9864 10.658 10.9437 10.658 9.65751C10.658 8.3713 11.7006 7.32861 12.9869 7.32861C14.2731 7.32861 15.3158 8.3713 15.3158 9.65751Z" fill="#212121"/>
<path d="M24.2175 22.8698C24.2175 24.1424 23.1858 25.1741 21.9131 25.1741C20.6405 25.1741 19.6088 24.1424 19.6088 22.8698C19.6088 21.5971 20.6405 20.5654 21.9131 20.5654C23.1858 20.5654 24.2175 21.5971 24.2175 22.8698Z" fill="#212121"/>
<path d="M17.7827 9.95654C15.5736 9.95654 13.7827 11.7474 13.7827 13.9565V26.0435C13.7827 28.2526 15.5736 30.0435 17.7827 30.0435H26.0436C28.2527 30.0435 30.0436 28.2526 30.0436 26.0435V13.9565C30.0436 11.7474 28.2527 9.95654 26.0436 9.95654H17.7827ZM26.2175 22.8698C26.2175 25.247 24.2903 27.1741 21.9131 27.1741C19.5359 27.1741 17.6088 25.247 17.6088 22.8698C17.6088 20.4926 19.5359 18.5654 21.9131 18.5654C24.2903 18.5654 26.2175 20.4926 26.2175 22.8698ZM23.348 15.2175C23.348 16.0099 22.7056 16.6523 21.9132 16.6523C21.1208 16.6523 20.4784 16.0099 20.4784 15.2175C20.4784 14.4251 21.1208 13.7827 21.9132 13.7827C22.7056 13.7827 23.348 14.4251 23.348 15.2175Z" fill="#212121"/>
</svg>
