<svg width="48" height="48" viewBox="0 0 48 48" fill="none" xmlns="http://www.w3.org/2000/svg">
<path d="M22 22.0049C22 19.2434 24.2386 16.8931 27 16.8931H37.0551C39.8165 16.8931 42 19.2264 42 21.9878V37.0042C42 39.7656 39.8165 42.005 37.0551 42.005H27C24.2386 42.005 22 39.8207 22 37.0593V22.0049ZM37.498 33.0521C37.498 30.0806 35.0891 27.6717 32.1175 27.6717C29.146 27.6717 26.7371 30.0806 26.7371 33.0521C26.7371 36.0237 29.146 38.4327 32.1175 38.4327C35.0891 38.4327 37.498 36.0237 37.498 33.0521ZM33.9172 23.47C33.9172 22.4795 33.1142 21.6766 32.1237 21.6766C31.1332 21.6766 30.3302 22.4795 30.3302 23.47C30.3302 24.4605 31.1332 25.2635 32.1237 25.2635C33.1142 25.2635 33.9172 24.4605 33.9172 23.47Z" fill="#212121"/>
<path d="M32.1175 35.911C33.7084 35.911 34.998 34.6214 34.998 33.0306C34.998 31.4397 33.7084 30.1501 32.1175 30.1501C30.5267 30.1501 29.2371 31.4397 29.2371 33.0306C29.2371 34.6214 30.5267 35.911 32.1175 35.911Z" fill="#212121"/>
<path d="M19.9833 6C15.8096 6 11.9885 6.88545 8.24922 8.06209L8.23985 8.06508C6.79503 8.53225 5.95671 10.0217 6.3433 11.4846L8.6868 21.5049H11.0039L11.3504 23.6437L11.3613 23.6902C11.5362 24.4366 12.0448 25.0066 12.5496 25.3678C13.062 25.7344 13.7328 26.0048 14.4351 26.0048H16.0036V32.7093H14.3749C13.742 32.7093 13.229 33.2223 13.229 33.8552C13.229 34.488 13.742 35.001 14.3749 35.001H20V32.7093H18.6406V26.0048H20V21.2512L20 21.2342L19.9834 21.2342C16.9949 21.2342 14.5723 18.8116 14.5723 15.8231C14.5723 12.8346 16.9949 10.412 19.9834 10.412C22.7152 10.412 24.9741 12.4363 25.3421 15.0667C25.6385 15.0235 25.9416 15.0012 26.25 15.0012H33L33.8276 11.4846C34.2142 10.0217 33.3759 8.53221 31.9311 8.06504L31.9217 8.06209C28.1824 6.88545 24.157 6 19.9833 6ZM26.9185 11.662H28.4789V13.2224H26.9185V11.662Z" fill="#212121"/>
<path d="M22.8904 15.98C22.8931 15.9281 22.8945 15.8758 22.8945 15.8231C22.8945 14.2153 21.5912 12.912 19.9834 12.912C18.3756 12.912 17.0723 14.2153 17.0723 15.8231C17.0723 17.4309 18.3756 18.7342 19.9834 18.7342C20.1781 18.7342 20.3683 18.7151 20.5523 18.6787C21.0545 17.5681 21.8719 16.6305 22.8904 15.98Z" fill="#212121"/>
</svg>
