<svg width="28" height="28" viewBox="0 0 28 28" fill="none" xmlns="http://www.w3.org/2000/svg">
<path d="M11.1118 2C13.8018 2 16.3618 2.39 18.9518 3.21C19.8918 3.51 20.4218 4.48 20.1618 5.41L19.7918 7H15.0018C14.8018 7 14.6018 7.01 14.4118 7.04C13.9018 5.72 12.6118 4.78 11.1118 4.78C9.16176 4.78 7.58176 6.37 7.58176 8.32C7.58176 10.27 9.10176 11.8 11.0018 11.86V15.11H9.75176V21.25H11.0018V22.75H6.00176C5.59176 22.75 5.25176 22.42 5.25176 22C5.25176 21.58 5.59176 21.25 6.00176 21.25H8.25176V15.11H7.40176C6.52176 15.11 5.61176 14.43 5.42176 13.63L5.16176 11.93H3.60176L2.06176 5.38C1.81176 4.48 2.34176 3.51 3.27176 3.21C5.86176 2.39 8.42176 2 11.1118 2ZM11.1118 6.28C11.9518 6.28 12.6818 6.8 12.9918 7.54C11.9718 8.13 11.2418 9.16 11.0518 10.36C9.95176 10.33 9.08176 9.42 9.08176 8.32C9.08176 7.22 9.99176 6.28 11.1118 6.28ZM15.7618 6.08H16.8018V5.03H15.7618V6.08ZM14.8118 8.25C13.2918 8.25 12.0618 9.48 12.0618 11V23.1C12.0618 24.62 13.2918 25.85 14.8118 25.85H23.2018C24.7218 25.85 25.9518 24.62 25.9518 23.1V11C25.9518 9.48 24.7218 8.25 23.2018 8.25H14.8118ZM19.0018 15.64C20.9218 15.64 22.5018 17.16 22.5018 19.07C22.5018 20.98 20.9218 22.5 19.0018 22.5C17.0818 22.5 15.5018 20.98 15.5018 19.07C15.5018 17.16 17.0818 15.64 19.0018 15.64ZM17.0018 19.07C17.0018 18.02 17.8818 17.14 19.0018 17.14C20.1218 17.14 21.0018 18.02 21.0018 19.07C21.0018 20.12 20.1218 21 19.0018 21C17.8818 21 17.0018 20.12 17.0018 19.07ZM19.0018 11.01C19.7618 11.01 20.3818 11.61 20.3818 12.35C20.3818 13.09 19.7618 13.69 19.0018 13.69C18.2418 13.69 17.6218 13.09 17.6218 12.35C17.6218 11.61 18.2418 11.01 19.0018 11.01Z" fill="#212121"/>
</svg>
