<svg width="48" height="48" viewBox="0 0 48 48" fill="none" xmlns="http://www.w3.org/2000/svg">
<path d="M8.76163 10.8482C8.72144 10.7015 8.79328 10.5144 9.00611 10.4439C12.5119 9.34134 16.0947 8.5 20 8.5C23.9053 8.5 27.6594 9.34112 31.1652 10.4437C31.378 10.5142 31.4499 10.7012 31.4097 10.848L31.4037 10.8698L30.4317 15H33L33.8276 11.4834C34.2142 10.0205 33.3759 8.531 31.9311 8.06383L31.9217 8.06088C28.1824 6.88424 24.1737 6 20 6C15.8263 6 11.9889 6.88446 8.24962 8.0611L8.24024 8.06409C6.79543 8.53126 5.95711 10.0207 6.3437 11.4836L8.68295 21.5H11L11.3505 23.6388L11.3614 23.6853C11.5362 24.4318 12.0448 25.0017 12.5497 25.363C13.062 25.7295 13.7328 26 14.4352 26H16L16.0004 32.7083H14.3752C13.7424 32.7083 13.2294 33.2214 13.2294 33.8542C13.2294 34.487 13.7424 35 14.3752 35H20.0004V32.7083H18.6374L18.6371 26H20V23.5H14.4352C14.3554 23.5 14.1826 23.4573 14.0044 23.3298C13.9233 23.2718 13.8647 23.2123 13.8283 23.164C13.8141 23.1451 13.8053 23.1308 13.8001 23.1213L13.1424 19H10.6629L8.76759 10.87L8.76163 10.8482Z" fill="#212121"/>
<path d="M19.9836 10.411C22.7154 10.411 24.9744 12.4353 25.3423 15.0657C24.45 15.1956 23.6189 15.514 22.8906 15.9792C22.8934 15.9272 22.8948 15.8748 22.8948 15.8221C22.8948 14.2143 21.5914 12.911 19.9836 12.911C18.3759 12.911 17.0725 14.2143 17.0725 15.8221C17.0725 17.4299 18.3759 18.7332 19.9836 18.7332C20.1784 18.7332 20.3687 18.7141 20.5527 18.6776C20.2001 19.4574 20.0028 20.3224 20.0004 21.2332L19.9836 21.2332C16.9952 21.2332 14.5725 18.8106 14.5725 15.8221C14.5725 12.8336 16.9952 10.411 19.9836 10.411Z" fill="#212121"/>
<path d="M26.9187 11.661H28.4791V13.2214H26.9187V11.661Z" fill="#212121"/>
<path d="M37.5 33.0329C37.5 36.0044 35.0911 38.4133 32.1196 38.4133C29.1481 38.4133 26.7392 36.0044 26.7392 33.0329C26.7392 30.0613 29.1481 27.6524 32.1196 27.6524C35.0911 27.6524 37.5 30.0613 37.5 33.0329ZM35 33.0329C35 31.442 33.7104 30.1524 32.1196 30.1524C30.5288 30.1524 29.2392 31.442 29.2392 33.0329C29.2392 34.6237 30.5288 35.9133 32.1196 35.9133C33.7104 35.9133 35 34.6237 35 33.0329Z" fill="#212121"/>
<path d="M33.9131 23.4675C33.9131 24.458 33.1101 25.261 32.1196 25.261C31.1291 25.261 30.3261 24.458 30.3261 23.4675C30.3261 22.477 31.1291 21.674 32.1196 21.674C33.1101 21.674 33.9131 22.477 33.9131 23.4675Z" fill="#212121"/>
<path d="M22 21.8913C22 19.1299 24.2386 16.8913 27 16.8913H37C39.7614 16.8913 42 19.1299 42 21.8913V37C42 39.7614 39.7614 42 37 42H27C24.2386 42 22 39.7614 22 37V21.8913ZM27 19.3913C25.6193 19.3913 24.5 20.5106 24.5 21.8913V37C24.5 38.3807 25.6193 39.5 27 39.5H37C38.3807 39.5 39.5 38.3807 39.5 37V21.8913C39.5 20.5106 38.3807 19.3913 37 19.3913H27Z" fill="#212121"/>
</svg>
