<svg width="24" height="24" viewBox="0 0 24 24" fill="none" xmlns="http://www.w3.org/2000/svg">
<path d="M3.58988 4.42C3.49988 4.45 3.49988 4.57 3.49988 4.57H3.50988V4.6L4.52988 8.92H5.89988L5.99988 9.56L6.27988 11.37C6.28988 11.39 6.31988 11.42 6.35988 11.45C6.37322 11.4567 6.38655 11.4644 6.39988 11.4722C6.42655 11.4878 6.45322 11.5033 6.47988 11.51C6.51988 11.53 6.55988 11.53 6.55988 11.53H9.24988V13.03H8.49988V18.01H9.24988V19.01C9.24988 19.18 9.25988 19.35 9.27988 19.51H5.74988C5.33988 19.51 4.99988 19.17 4.99988 18.76C4.99988 18.35 5.33988 18.01 5.74988 18.01H6.99988V13.03H6.55988C6.15988 13.03 5.77988 12.88 5.48988 12.67C5.19988 12.46 4.90988 12.14 4.80988 11.71L4.79988 11.68V11.65L4.60988 10.42H3.33988L3.19988 9.84L2.04988 4.95C1.82988 4.12 2.30988 3.27 3.13988 3C5.19988 2.35 7.32988 2 9.61988 2C11.9099 2 14.0199 2.35 16.0799 3C16.8999 3.26 17.3799 4.11 17.1599 4.95L16.9099 6H15.3699L15.6999 4.6V4.57C15.7199 4.52 15.6999 4.45 15.6099 4.42C13.6899 3.81 11.7399 3.49 9.59988 3.49C7.45988 3.49 5.50988 3.82 3.58988 4.42Z" fill="#212121"/>
<path d="M9.59988 4.28C10.8399 4.28 11.9099 5.02 12.3799 6.09C11.8799 6.2 11.4099 6.4 10.9999 6.68C10.7599 6.15 10.2199 5.78 9.59988 5.78C8.74988 5.78 8.05988 6.47 8.05988 7.32C8.05988 8.1 8.64988 8.75 9.40988 8.84C9.29988 9.2 9.23988 9.59 9.23988 9.99V10.33C7.72988 10.16 6.55988 8.88 6.55988 7.32C6.55988 5.64 7.91988 4.28 9.59988 4.28Z" fill="#212121"/>
<path d="M13.4099 4.61H14.2699V5.47H13.4099V4.61Z" fill="#212121"/>
<path d="M16.3101 13.46C14.6901 13.46 13.3401 14.75 13.3401 16.38C13.3401 18.01 14.6901 19.3 16.3101 19.3C17.9301 19.3 19.2801 18.01 19.2801 16.38C19.2801 14.75 17.9301 13.46 16.3101 13.46ZM14.8401 16.38C14.8401 15.61 15.4801 14.96 16.3101 14.96C17.1401 14.96 17.7801 15.61 17.7801 16.38C17.7801 17.15 17.1401 17.8 16.3101 17.8C15.4801 17.8 14.8401 17.15 14.8401 16.38Z" fill="#212121"/>
<path d="M16.3101 9.89C16.9201 9.89 17.4201 10.37 17.4201 10.97C17.4201 11.56 16.9201 12.05 16.3101 12.05C15.7001 12.05 15.2001 11.56 15.2001 10.97C15.2001 10.38 15.7001 9.89 16.3101 9.89Z" fill="#212121"/>
<path d="M13.3101 7.5C11.7901 7.5 10.5601 8.73 10.5601 10.25V19.25C10.5601 20.77 11.7901 22 13.3101 22H19.3101C20.8301 22 22.0601 20.77 22.0601 19.25V10.25C22.0601 8.73 20.8301 7.5 19.3101 7.5H13.3101ZM12.0601 10.25C12.0601 9.56 12.6201 9 13.3101 9H19.3101C20.0001 9 20.5601 9.56 20.5601 10.25V19.25C20.5601 19.94 20.0001 20.5 19.3101 20.5H13.3101C12.6201 20.5 12.0601 19.94 12.0601 19.25V10.25Z" fill="#212121"/>
</svg>
