<svg width="20" height="20" viewBox="0 0 20 20" fill="none" xmlns="http://www.w3.org/2000/svg">
<path d="M2.87559 4.10564C2.83058 3.94126 2.91936 3.75774 3.11016 3.69532C4.83091 3.15404 6.58259 2.8636 8.5 2.8636C10.4174 2.8636 12.1691 3.15404 13.8898 3.69532C14.0806 3.75773 14.1694 3.94126 14.1244 4.10564L14.1223 4.11317L13.6783 6H14.5655L14.9596 4.32537C15.1245 3.70611 14.7707 3.07249 14.1542 2.87315L14.151 2.87213C12.3496 2.30531 10.5101 2 8.5 2C6.48995 2 4.65036 2.30531 2.84904 2.87213L2.84581 2.87317C2.22932 3.0725 1.87553 3.70612 2.0404 4.32538L3.1372 8.98574H4.27492L4.47641 10.2859L4.48017 10.3019C4.55249 10.6106 4.76597 10.855 4.98894 11.0145C5.21448 11.1759 5.50553 11.2913 5.80313 11.2913H7.15162V14.5676H5.466C5.27982 14.5676 5.12889 14.7186 5.12889 14.9048C5.12889 15.0909 5.27982 15.2419 5.466 15.2419H8V14.5676H7.82584V11.2913H8V10.4277H5.80313C5.72059 10.4277 5.60155 10.3909 5.49145 10.3122C5.38707 10.2375 5.33844 10.1601 5.32386 10.1151L5.01499 8.12214H3.82115L2.87765 4.11317L2.87559 4.10564Z" fill="#212121"/>
<path d="M8.49996 4.02287C9.69268 4.02287 10.6867 4.87361 10.9083 6.00138C10.6118 6.01028 10.3262 6.06219 10.0573 6.1511C9.90684 5.42897 9.26675 4.88647 8.49996 4.88647C7.62136 4.88647 6.90911 5.59872 6.90911 6.47732C6.90911 7.23914 7.4446 7.87589 8.1597 8.0317C8.06832 8.29984 8.01383 8.58506 8.00231 8.8813C6.88535 8.65128 6.04551 7.66238 6.04551 6.47732C6.04551 5.12177 7.1444 4.02287 8.49996 4.02287Z" fill="#212121"/>
<path d="M11.871 4.45469H12.6294V5.21319H11.871V4.45469Z" fill="#212121"/>
<path d="M13.5 10C13.7761 10 14 9.77614 14 9.5C14 9.22386 13.7761 9 13.5 9C13.2239 9 13 9.22386 13 9.5C13 9.77614 13.2239 10 13.5 10Z" fill="#212121"/>
<path d="M13.5 16C14.8807 16 16 14.8807 16 13.5C16 12.1193 14.8807 11 13.5 11C12.1193 11 11 12.1193 11 13.5C11 14.8807 12.1193 16 13.5 16ZM13.5 15C12.6716 15 12 14.3284 12 13.5C12 12.6716 12.6716 12 13.5 12C14.3284 12 15 12.6716 15 13.5C15 14.3284 14.3284 15 13.5 15Z" fill="#212121"/>
<path d="M9 9C9 7.89543 9.89543 7 11 7H16C17.1046 7 18 7.89543 18 9V16C18 17.1046 17.1046 18 16 18H11C9.89543 18 9 17.1046 9 16V9ZM11 8C10.4477 8 10 8.44772 10 9V16C10 16.5523 10.4477 17 11 17H16C16.5523 17 17 16.5523 17 16V9C17 8.44772 16.5523 8 16 8H11Z" fill="#212121"/>
</svg>
