<svg width="28" height="28" viewBox="0 0 28 28" fill="none" xmlns="http://www.w3.org/2000/svg">
<path d="M3.27484 3.19C5.77484 2.41 8.33484 2 11.1148 2C13.8948 2 16.4548 2.42 18.9448 3.2C19.8648 3.5 20.4148 4.45 20.1648 5.39L19.7848 6.99H18.2448L18.7048 5.04V5.01C18.7448 4.87 18.6748 4.7 18.4848 4.64C16.1248 3.9 13.7348 3.51 11.1048 3.51C8.47484 3.51 6.07484 3.9 3.71484 4.63C3.53484 4.69 3.45484 4.86 3.49484 5.02V5.04L4.76484 10.43H6.42484L6.52484 11.07L6.86484 13.29C6.86484 13.29 6.87484 13.32 6.89484 13.34C6.92484 13.38 6.97484 13.43 7.03484 13.47C7.16484 13.56 7.30484 13.6 7.37484 13.6H7.69484L10.9848 13.61V15.11H9.73484V21.25H10.9848V22.75H5.99484C5.58484 22.75 5.24484 22.41 5.24484 22C5.24484 21.59 5.58484 21.25 5.99484 21.25H8.24484V15.11H7.08484L7.04484 15.07C6.72484 15.01 6.42484 14.87 6.17484 14.69C5.84484 14.46 5.52484 14.09 5.41484 13.62V13.59L5.40484 13.56L5.15484 11.93H3.59484L3.45484 11.35L2.05484 5.38C1.82484 4.46 2.33484 3.5 3.27484 3.2V3.19ZM11.1048 4.77C12.6048 4.77 13.8948 5.71 14.4048 7.03C13.8948 7.11 13.4148 7.28 12.9848 7.53C12.6748 6.79 11.9448 6.27 11.1048 6.27C9.97484 6.27 9.06484 7.18 9.06484 8.31C9.06484 9.44 9.94484 10.32 11.0448 10.35C11.0148 10.56 10.9948 10.77 10.9948 10.99V11.85C9.09484 11.79 7.56484 10.23 7.56484 8.31C7.56484 6.39 9.15484 4.77 11.1048 4.77ZM15.7448 5.02H16.7948V6.07H15.7448V5.02ZM13.5548 10.99C13.5548 10.3 14.1148 9.74 14.8048 9.74H23.1948C23.8848 9.74 24.4448 10.3 24.4448 10.99V23.09C24.4448 23.78 23.8848 24.34 23.1948 24.34H14.8048C14.1148 24.34 13.5548 23.78 13.5548 23.09V10.99ZM14.8048 8.24C13.2848 8.24 12.0548 9.47 12.0548 10.99V23.09C12.0548 24.61 13.2848 25.84 14.8048 25.84H23.1948C24.7148 25.84 25.9448 24.61 25.9448 23.09V10.99C25.9448 9.47 24.7148 8.24 23.1948 8.24H14.8048ZM18.9948 15.63C17.0748 15.63 15.4948 17.15 15.4948 19.06C15.4948 20.97 17.0748 22.49 18.9948 22.49C20.9148 22.49 22.4948 20.97 22.4948 19.06C22.4948 17.15 20.9148 15.63 18.9948 15.63ZM16.9948 19.06C16.9948 18.01 17.8748 17.13 18.9948 17.13C20.1148 17.13 20.9948 18.01 20.9948 19.06C20.9948 20.11 20.1148 20.99 18.9948 20.99C17.8748 20.99 16.9948 20.11 16.9948 19.06ZM18.9948 11C19.7548 11 20.3748 11.6 20.3748 12.34C20.3748 13.08 19.7548 13.68 18.9948 13.68C18.2348 13.68 17.6148 13.08 17.6148 12.34C17.6148 11.6 18.2348 11 18.9948 11Z" fill="#212121"/>
</svg>
