<svg width="24" height="24" viewBox="0 0 24 24" fill="none" xmlns="http://www.w3.org/2000/svg">
<path d="M9.60989 2C11.8399 2 13.9499 2.33 16.0699 2.99C16.8999 3.27 17.3699 4.13 17.1599 4.95L16.9099 6H13.2499C12.9499 6 12.6599 6.03 12.3799 6.09C11.9099 5.02 10.8499 4.28 9.60989 4.28C7.92989 4.28 6.56988 5.65 6.56988 7.32C6.56988 8.87 7.73989 10.15 9.24989 10.33V13.02H8.49989V18H9.24989V19C9.24989 19.17 9.25988 19.34 9.27988 19.5H5.74989C5.33988 19.5 4.99989 19.16 4.99989 18.75C4.99989 18.34 5.33988 18 5.74989 18H6.99989V13.02H6.55988C5.75988 13.02 4.96989 12.43 4.80989 11.69L4.60989 10.42H3.33989L2.04988 4.94C1.82988 4.13 2.30988 3.27 3.13988 3C5.25988 2.33 7.37989 2 9.60989 2ZM13.4099 5.46H14.2699V4.6H13.4099V5.46Z" fill="#212121"/>
<path d="M11.0099 6.69C10.2599 7.2 9.68989 7.95 9.42989 8.84C8.67989 8.75 8.07989 8.1 8.07989 7.32C8.07989 6.48 8.76989 5.78 9.61989 5.78C10.2399 5.78 10.7799 6.15 11.0199 6.69H11.0099Z" fill="#212121"/>
<path d="M17.7798 16.3702C17.7798 17.1402 17.1498 17.7902 16.3098 17.7902C15.4698 17.7902 14.8398 17.1402 14.8398 16.3702C14.8398 15.6002 15.4798 14.9502 16.3098 14.9502C17.1398 14.9502 17.7798 15.6002 17.7798 16.3702Z" fill="#212121"/>
<path d="M13.3101 7.5H19.3101C20.8301 7.5 22.0601 8.73 22.0601 10.25V19.25C22.0601 20.77 20.8301 22 19.3101 22H13.3101C11.8001 22 10.5601 20.77 10.5601 19.25V10.25C10.5601 8.73 11.8001 7.5 13.3101 7.5ZM17.4201 10.95C17.4201 10.36 16.9201 9.87 16.3101 9.87C15.7001 9.87 15.2001 10.36 15.2001 10.95C15.2001 11.54 15.7001 12.03 16.3101 12.03C16.9201 12.03 17.4201 11.54 17.4201 10.95ZM13.3401 16.37C13.3401 18 14.6901 19.29 16.3101 19.29C17.9401 19.29 19.2801 18 19.2801 16.37C19.2801 14.74 17.9301 13.45 16.3101 13.45C14.6901 13.45 13.3401 14.74 13.3401 16.37Z" fill="#212121"/>
</svg>
