<svg width="32" height="32" viewBox="0 0 32 32" fill="none" xmlns="http://www.w3.org/2000/svg">
<path d="M4.00913 5.6784C3.97698 5.56099 4.03445 5.41134 4.20472 5.35495C7.00938 4.47289 9.86253 4 12.9868 4C16.111 4 18.9641 4.4729 21.7688 5.35496C21.9391 5.41135 21.9965 5.561 21.9644 5.6784L21.9596 5.69583L21.182 9H23.2366L23.8987 6.18671C24.208 5.01638 23.5373 3.8248 22.3815 3.45107L22.374 3.44871C19.3826 2.50739 16.3257 2 12.9868 2C9.64779 2 6.59093 2.50739 3.59952 3.44871L3.59202 3.4511C2.43617 3.82483 1.76552 5.01638 2.07479 6.18671L3.93147 14.0759H5.78514L6.08048 15.9815L6.08918 16.0187C6.22907 16.6158 6.63595 17.0718 7.03986 17.3608C7.44974 17.654 7.98637 17.8704 8.54822 17.8704H10.2672V23.1665H8.49999C7.99373 23.1665 7.58333 23.5769 7.58333 24.0832C7.58333 24.5894 7.99373 24.9998 8.49999 24.9998H13.0001V23.1665H12.3768V17.8704H13.0001V15.8704H8.54822C8.48443 15.8704 8.34615 15.8362 8.20363 15.7342C8.13876 15.6878 8.09185 15.6402 8.06275 15.6016C8.05137 15.5865 8.04433 15.575 8.04018 15.5674L7.49905 12.0759H5.51542L4.0139 5.69583L4.00913 5.6784Z" fill="#212121"/>
<path d="M12.9867 5.32861C15.1722 5.32861 16.9793 6.94807 17.2737 9.05239C16.5599 9.15629 15.8949 9.411 15.3123 9.78315C15.3145 9.74155 15.3156 9.69966 15.3156 9.65751C15.3156 8.3713 14.2729 7.32861 12.9867 7.32861C11.7005 7.32861 10.6578 8.3713 10.6578 9.65751C10.6578 10.9437 11.7005 11.9864 12.9867 11.9864C13.1425 11.9864 13.2948 11.9711 13.442 11.9419C13.1599 12.5657 13.0021 13.2577 13.0001 13.9864L12.9867 13.9864C10.596 13.9864 8.65784 12.0483 8.65784 9.65751C8.65784 7.26673 10.596 5.32861 12.9867 5.32861Z" fill="#212121"/>
<path d="M18.5348 6.32861H19.7831V7.57695H18.5348V6.32861Z" fill="#212121"/>
<path d="M26.2175 22.8698C26.2175 25.247 24.2903 27.1741 21.9131 27.1741C19.5359 27.1741 17.6088 25.247 17.6088 22.8698C17.6088 20.4926 19.5359 18.5654 21.9131 18.5654C24.2903 18.5654 26.2175 20.4926 26.2175 22.8698ZM24.2175 22.8698C24.2175 21.5971 23.1858 20.5654 21.9131 20.5654C20.6405 20.5654 19.6088 21.5971 19.6088 22.8698C19.6088 24.1424 20.6405 25.1741 21.9131 25.1741C23.1858 25.1741 24.2175 24.1424 24.2175 22.8698Z" fill="#212121"/>
<path d="M23.348 15.2175C23.348 16.0099 22.7056 16.6523 21.9132 16.6523C21.1208 16.6523 20.4784 16.0099 20.4784 15.2175C20.4784 14.4251 21.1208 13.7827 21.9132 13.7827C22.7056 13.7827 23.348 14.4251 23.348 15.2175Z" fill="#212121"/>
<path d="M13.7827 13.9565C13.7827 11.7474 15.5736 9.95654 17.7827 9.95654H26.0436C28.2527 9.95654 30.0436 11.7474 30.0436 13.9565V26.0435C30.0436 28.2526 28.2527 30.0435 26.0436 30.0435H17.7827C15.5736 30.0435 13.7827 28.2526 13.7827 26.0435V13.9565ZM17.7827 11.9565C16.6781 11.9565 15.7827 12.852 15.7827 13.9565V26.0435C15.7827 27.1481 16.6781 28.0435 17.7827 28.0435H26.0436C27.1482 28.0435 28.0436 27.1481 28.0436 26.0435V13.9565C28.0436 12.852 27.1482 11.9565 26.0436 11.9565H17.7827Z" fill="#212121"/>
</svg>
