<svg width="231" height="160" viewBox="0 0 231 160" fill="none" xmlns="http://www.w3.org/2000/svg">
<g clip-path="url(#clip0_4731_668)">
<path d="M112.405 134.389C140.183 134.389 162.667 111.787 162.667 83.9C162.667 56.0132 140.183 33.4923 112.405 33.4923C84.6261 33.4923 62.1426 56.0945 62.1426 83.9813C62.1426 111.95 84.7075 134.389 112.405 134.389Z" fill="#242424"/>
<path fill-rule="evenodd" clip-rule="evenodd" d="M151.495 36.8963C151.969 36.8963 152.354 37.2807 152.354 37.7548V53.5261C152.354 54.0003 151.969 54.3846 151.495 54.3846C151.021 54.3846 150.637 54.0003 150.637 53.5261V37.7548C150.637 37.2807 151.021 36.8963 151.495 36.8963Z" fill="#353535"/>
<path d="M145.101 52.2475H157.888V65.035H145.101V52.2475Z" fill="#353535"/>
<g filter="url(#filter0_d_4731_668)">
<path d="M123.788 48.8374L163.003 67.1267V140.908H123.788V48.8374Z" fill="#4D4D4D"/>
</g>
<path d="M132.313 74.5464C132.313 73.5309 133.137 72.7076 134.152 72.7076H139.852C140.868 72.7076 141.691 73.5309 141.691 74.5464V77.6889C141.691 78.7044 140.868 79.5277 139.852 79.5277H134.152C133.137 79.5277 132.313 78.7044 132.313 77.6889V74.5464Z" fill="#3A3A3A"/>
<path d="M132.313 87.334C132.313 86.3185 133.137 85.4953 134.152 85.4953H139.852C140.868 85.4953 141.691 86.3185 141.691 87.334V91.3291C141.691 92.3446 140.868 93.1678 139.852 93.1678H134.152C133.137 93.1678 132.313 92.3446 132.313 91.3291V87.334Z" fill="#3A3A3A"/>
<path d="M132.313 100.121C132.313 99.1058 133.137 98.2826 134.152 98.2826H139.852C140.868 98.2826 141.691 99.1058 141.691 100.121V104.116C141.691 105.132 140.868 105.955 139.852 105.955H134.152C133.137 105.955 132.313 105.132 132.313 104.116V100.121Z" fill="#3A3A3A"/>
<path d="M132.313 113.761C132.313 112.746 133.137 111.923 134.152 111.923H139.852C140.868 111.923 141.691 112.746 141.691 113.761V117.756C141.691 118.772 140.868 119.595 139.852 119.595H134.152C133.137 119.595 132.313 118.772 132.313 117.756V113.761Z" fill="#3A3A3A"/>
<path d="M132.313 126.549C132.313 125.533 133.137 124.71 134.152 124.71H139.852C140.868 124.71 141.691 125.533 141.691 126.549V130.544C141.691 131.559 140.868 132.383 139.852 132.383H134.152C133.137 132.383 132.313 131.559 132.313 130.544V126.549Z" fill="#3A3A3A"/>
<path d="M145.954 74.5464C145.954 73.5309 146.777 72.7076 147.793 72.7076H152.64C153.656 72.7076 154.479 73.5309 154.479 74.5464V77.6889C154.479 78.7044 153.656 79.5277 152.64 79.5277H147.793C146.777 79.5277 145.954 78.7044 145.954 77.6889V74.5464Z" fill="#3A3A3A"/>
<path d="M145.954 87.334C145.954 86.3185 146.777 85.4953 147.793 85.4953H152.64C153.656 85.4953 154.479 86.3185 154.479 87.334V91.3291C154.479 92.3446 153.656 93.1678 152.64 93.1678H147.793C146.777 93.1678 145.954 92.3446 145.954 91.3291V87.334Z" fill="#3A3A3A"/>
<path d="M145.954 100.121C145.954 99.1058 146.777 98.2826 147.793 98.2826H152.64C153.656 98.2826 154.479 99.1058 154.479 100.121V104.116C154.479 105.132 153.656 105.955 152.64 105.955H147.793C146.777 105.955 145.954 105.132 145.954 104.116V100.121Z" fill="#3A3A3A"/>
<path d="M145.954 113.761C145.954 112.746 146.777 111.923 147.793 111.923H152.64C153.656 111.923 154.479 112.746 154.479 113.761V117.756C154.479 118.772 153.656 119.595 152.64 119.595H147.793C146.777 119.595 145.954 118.772 145.954 117.756V113.761Z" fill="#3A3A3A"/>
<path d="M145.954 126.549C145.954 125.533 146.777 124.71 147.793 124.71H152.64C153.656 124.71 154.479 125.533 154.479 126.549V130.544C154.479 131.559 153.656 132.383 152.64 132.383H147.793C146.777 132.383 145.954 131.559 145.954 130.544V126.549Z" fill="#3A3A3A"/>
<g filter="url(#filter1_d_4731_668)">
<path d="M89.6885 18.9999H124.641V140.908H89.6885V18.9999Z" fill="#5C5C5C"/>
</g>
<path d="M95.6562 29.3637C95.6562 28.3482 96.4795 27.525 97.495 27.525H116.835C117.851 27.525 118.674 28.3482 118.674 29.3637V31.6538C118.674 32.6693 117.851 33.4925 116.835 33.4925H97.495C96.4795 33.4925 95.6562 32.6693 95.6562 31.6538V29.3637Z" fill="#3A3A3A"/>
<path d="M95.6562 42.1512C95.6562 41.1357 96.4795 40.3125 97.495 40.3125H116.835C117.851 40.3125 118.674 41.1357 118.674 42.1512V43.5888C118.674 44.6043 117.851 45.4275 116.835 45.4275H97.495C96.4795 45.4275 95.6562 44.6043 95.6562 43.5888V42.1512Z" fill="#3A3A3A"/>
<path d="M95.6562 54.9387C95.6562 53.9232 96.4795 53.1 97.495 53.1H116.835C117.851 53.1 118.674 53.9232 118.674 54.9387V56.3763C118.674 57.3918 117.851 58.215 116.835 58.215H97.495C96.4795 58.215 95.6562 57.3918 95.6562 56.3763V54.9387Z" fill="#3A3A3A"/>
<path d="M95.6562 67.7264C95.6562 66.7109 96.4795 65.8877 97.495 65.8877H116.835C117.851 65.8877 118.674 66.7109 118.674 67.7264V69.164C118.674 70.1795 117.851 71.0027 116.835 71.0027H97.495C96.4795 71.0027 95.6562 70.1795 95.6562 69.164V67.7264Z" fill="#3A3A3A"/>
<path d="M95.6562 80.5136C95.6562 79.4981 96.4795 78.6749 97.495 78.6749H116.835C117.851 78.6749 118.674 79.4981 118.674 80.5136V81.9512C118.674 82.9667 117.851 83.7899 116.835 83.7899H97.495C96.4795 83.7899 95.6562 82.9667 95.6562 81.9512V80.5136Z" fill="#3A3A3A"/>
<path d="M95.6562 93.3015C95.6562 92.286 96.4795 91.4628 97.495 91.4628H116.835C117.851 91.4628 118.674 92.286 118.674 93.3015V94.7391C118.674 95.7546 117.851 96.5778 116.835 96.5778H97.495C96.4795 96.5778 95.6562 95.7546 95.6562 94.7391V93.3015Z" fill="#3A3A3A"/>
<path d="M95.6562 106.089C95.6562 105.074 96.4795 104.25 97.495 104.25H116.835C117.851 104.25 118.674 105.074 118.674 106.089V107.527C118.674 108.542 117.851 109.365 116.835 109.365H97.495C96.4795 109.365 95.6562 108.542 95.6562 107.527V106.089Z" fill="#3A3A3A"/>
<path d="M95.6562 118.876C95.6562 117.861 96.4795 117.037 97.495 117.037H116.835C117.851 117.037 118.674 117.861 118.674 118.876V120.314C118.674 121.329 117.851 122.152 116.835 122.152H97.495C96.4795 122.152 95.6562 121.329 95.6562 120.314V118.876Z" fill="#3A3A3A"/>
<g filter="url(#filter2_d_4731_668)">
<path d="M70.0811 64.1827H108.444V140.908H70.0811V64.1827Z" fill="#707070"/>
</g>
<path d="M77.8721 73.0551C77.8721 72.0396 78.6953 71.2164 79.7108 71.2164H85.0056C86.0211 71.2164 86.8443 72.0396 86.8443 73.0551V76.8893C86.8443 77.9048 86.0211 78.728 85.0056 78.728H79.7108C78.6953 78.728 77.8721 77.9048 77.8721 76.8893V73.0551Z" fill="#3A3A3A"/>
<path d="M77.8721 86.2011C77.8721 85.1856 78.6953 84.3624 79.7108 84.3624H85.0056C86.0211 84.3624 86.8443 85.1856 86.8443 86.2011V90.0353C86.8443 91.0508 86.0211 91.874 85.0056 91.874H79.7108C78.6953 91.874 77.8721 91.0508 77.8721 90.0353V86.2011Z" fill="#3A3A3A"/>
<path d="M77.8721 99.3459C77.8721 98.3304 78.6953 97.5072 79.7108 97.5072H85.0056C86.0211 97.5072 86.8443 98.3304 86.8443 99.3459V103.18C86.8443 104.196 86.0211 105.019 85.0056 105.019H79.7108C78.6953 105.019 77.8721 104.196 77.8721 103.18V99.3459Z" fill="#3A3A3A"/>
<path d="M77.8721 112.492C77.8721 111.476 78.6953 110.653 79.7108 110.653H85.0056C86.0211 110.653 86.8443 111.476 86.8443 112.492V116.326C86.8443 117.342 86.0211 118.165 85.0056 118.165H79.7108C78.6953 118.165 77.8721 117.342 77.8721 116.326V112.492Z" fill="#3A3A3A"/>
<path d="M80.3115 128.254C80.3115 127.239 81.1347 126.415 82.1502 126.415H89.689V140.908H80.3115V128.254Z" fill="#3A3A3A"/>
<path d="M91.4346 73.0551C91.4346 72.0396 92.2578 71.2164 93.2733 71.2164H98.5681C99.5836 71.2164 100.407 72.0396 100.407 73.0551V76.8894C100.407 77.9048 99.5836 78.7281 98.5681 78.7281H93.2733C92.2578 78.7281 91.4346 77.9048 91.4346 76.8894V73.0551Z" fill="#3A3A3A"/>
<path d="M91.4346 86.2011C91.4346 85.1856 92.2578 84.3624 93.2733 84.3624H98.5681C99.5836 84.3624 100.407 85.1856 100.407 86.2011V90.0353C100.407 91.0508 99.5836 91.874 98.5681 91.874H93.2733C92.2578 91.874 91.4346 91.0508 91.4346 90.0353V86.2011Z" fill="#3A3A3A"/>
<path d="M91.4346 99.3459C91.4346 98.3304 92.2578 97.5072 93.2733 97.5072H98.5681C99.5836 97.5072 100.407 98.3304 100.407 99.3459V103.18C100.407 104.196 99.5836 105.019 98.5681 105.019H93.2733C92.2578 105.019 91.4346 104.196 91.4346 103.18V99.3459Z" fill="#3A3A3A"/>
<path d="M91.4346 112.492C91.4346 111.476 92.2578 110.653 93.2733 110.653H98.5681C99.5836 110.653 100.407 111.476 100.407 112.492V116.326C100.407 117.342 99.5836 118.165 98.5681 118.165H93.2733C92.2578 118.165 91.4346 117.342 91.4346 116.326V112.492Z" fill="#3A3A3A"/>
<path d="M89.6895 126.415H97.2283C98.2438 126.415 99.067 127.239 99.067 128.254V140.908H89.6895V126.415Z" fill="#3A3A3A"/>
<path fill-rule="evenodd" clip-rule="evenodd" d="M51 140.908C51 140.4 51.4116 139.988 51.9194 139.988H180.629C181.137 139.988 181.548 140.4 181.548 140.908C181.548 141.416 181.137 141.827 180.629 141.827H51.9194C51.4116 141.827 51 141.416 51 140.908Z" fill="#3A3A3A"/>
</g>
<defs>
<filter id="filter0_d_4731_668" x="111.788" y="44.8374" width="63.2148" height="116.07" filterUnits="userSpaceOnUse" color-interpolation-filters="sRGB">
<feFlood flood-opacity="0" result="BackgroundImageFix"/>
<feColorMatrix in="SourceAlpha" type="matrix" values="0 0 0 0 0 0 0 0 0 0 0 0 0 0 0 0 0 0 127 0" result="hardAlpha"/>
<feOffset dy="8"/>
<feGaussianBlur stdDeviation="6"/>
<feColorMatrix type="matrix" values="0 0 0 0 0 0 0 0 0 0 0 0 0 0 0 0 0 0 0.16 0"/>
<feBlend mode="normal" in2="BackgroundImageFix" result="effect1_dropShadow_4731_668"/>
<feBlend mode="normal" in="SourceGraphic" in2="effect1_dropShadow_4731_668" result="shape"/>
</filter>
<filter id="filter1_d_4731_668" x="77.6885" y="14.9999" width="58.9521" height="145.908" filterUnits="userSpaceOnUse" color-interpolation-filters="sRGB">
<feFlood flood-opacity="0" result="BackgroundImageFix"/>
<feColorMatrix in="SourceAlpha" type="matrix" values="0 0 0 0 0 0 0 0 0 0 0 0 0 0 0 0 0 0 127 0" result="hardAlpha"/>
<feOffset dy="8"/>
<feGaussianBlur stdDeviation="6"/>
<feColorMatrix type="matrix" values="0 0 0 0 0 0 0 0 0 0 0 0 0 0 0 0 0 0 0.16 0"/>
<feBlend mode="normal" in2="BackgroundImageFix" result="effect1_dropShadow_4731_668"/>
<feBlend mode="normal" in="SourceGraphic" in2="effect1_dropShadow_4731_668" result="shape"/>
</filter>
<filter id="filter2_d_4731_668" x="58.0811" y="60.1827" width="62.3623" height="100.725" filterUnits="userSpaceOnUse" color-interpolation-filters="sRGB">
<feFlood flood-opacity="0" result="BackgroundImageFix"/>
<feColorMatrix in="SourceAlpha" type="matrix" values="0 0 0 0 0 0 0 0 0 0 0 0 0 0 0 0 0 0 127 0" result="hardAlpha"/>
<feOffset dy="8"/>
<feGaussianBlur stdDeviation="6"/>
<feColorMatrix type="matrix" values="0 0 0 0 0 0 0 0 0 0 0 0 0 0 0 0 0 0 0.16 0"/>
<feBlend mode="normal" in2="BackgroundImageFix" result="effect1_dropShadow_4731_668"/>
<feBlend mode="normal" in="SourceGraphic" in2="effect1_dropShadow_4731_668" result="shape"/>
</filter>
<clipPath id="clip0_4731_668">
<rect width="230" height="160" fill="white" transform="translate(0.791992)"/>
</clipPath>
</defs>
</svg>
