<svg xmlns="http://www.w3.org/2000/svg" width="160" height="160" fill="none" viewBox="0 0 160 160">
  <g clip-path="url(#a)">
    <path fill="#F2F2F2" d="M76.404 134.389c27.779 0 50.262-22.602 50.262-50.489 0-27.887-22.483-50.408-50.262-50.408-27.778 0-50.262 22.603-50.262 50.49 0 27.968 22.565 50.407 50.262 50.407Z"/>
    <path fill="#D9D2C7" fill-rule="evenodd" d="M115.498 36.897c.474 0 .858.384.858.858v15.771a.858.858 0 1 1-1.717 0V37.755c0-.474.385-.858.859-.858Z" clip-rule="evenodd"/>
    <path fill="#D9D2C7" d="M109.104 52.248h12.788v12.787h-12.788V52.248Z"/>
    <g filter="url(#b)">
      <path fill="url(#c)" d="m87.792 48.837 39.215 18.29v73.781H87.792v-92.07Z"/>
    </g>
    <path fill="#DED4C6" d="M96.317 74.546a1.84 1.84 0 0 1 1.839-1.839h5.7a1.84 1.84 0 0 1 1.838 1.84v3.142a1.838 1.838 0 0 1-1.838 1.839h-5.7a1.839 1.839 0 0 1-1.84-1.84v-3.142Zm0 12.788c0-1.016.823-1.839 1.839-1.839h5.7c1.015 0 1.838.823 1.838 1.839v3.995a1.838 1.838 0 0 1-1.838 1.839h-5.7a1.839 1.839 0 0 1-1.84-1.84v-3.994Zm0 12.787c0-1.015.823-1.838 1.839-1.838h5.7c1.015 0 1.838.823 1.838 1.838v3.996a1.838 1.838 0 0 1-1.838 1.838h-5.7a1.838 1.838 0 0 1-1.84-1.838v-3.996Zm0 13.64c0-1.015.823-1.838 1.839-1.838h5.7c1.015 0 1.838.823 1.838 1.838v3.995a1.838 1.838 0 0 1-1.838 1.839h-5.7a1.839 1.839 0 0 1-1.84-1.839v-3.995Zm0 12.788c0-1.016.823-1.839 1.839-1.839h5.7c1.015 0 1.838.823 1.838 1.839v3.995a1.838 1.838 0 0 1-1.838 1.839h-5.7a1.839 1.839 0 0 1-1.84-1.839v-3.995Zm13.64-52.003c0-1.015.823-1.839 1.838-1.839h4.848a1.84 1.84 0 0 1 1.839 1.84v3.142a1.84 1.84 0 0 1-1.839 1.839h-4.848a1.838 1.838 0 0 1-1.838-1.84v-3.142Zm0 12.788c0-1.016.823-1.839 1.838-1.839h4.848a1.84 1.84 0 0 1 1.839 1.839v3.995a1.84 1.84 0 0 1-1.839 1.839h-4.848a1.838 1.838 0 0 1-1.838-1.84v-3.994Zm0 12.787c0-1.015.823-1.838 1.838-1.838h4.848a1.84 1.84 0 0 1 1.839 1.838v3.996a1.839 1.839 0 0 1-1.839 1.838h-4.848a1.838 1.838 0 0 1-1.838-1.838v-3.996Zm0 13.64c0-1.015.823-1.838 1.838-1.838h4.848c1.015 0 1.839.823 1.839 1.838v3.995a1.84 1.84 0 0 1-1.839 1.839h-4.848a1.838 1.838 0 0 1-1.838-1.839v-3.995Zm0 12.788c0-1.016.823-1.839 1.838-1.839h4.848a1.84 1.84 0 0 1 1.839 1.839v3.995a1.84 1.84 0 0 1-1.839 1.839h-4.848a1.838 1.838 0 0 1-1.838-1.839v-3.995Z"/>
    <g filter="url(#d)">
      <path fill="url(#e)" d="M53.692 19h34.952v121.908H53.692V19Z"/>
    </g>
    <path fill="#fff" d="M59.66 29.364c0-1.016.822-1.839 1.838-1.839h19.34c1.016 0 1.839.823 1.839 1.839v2.29a1.839 1.839 0 0 1-1.839 1.839h-19.34a1.839 1.839 0 0 1-1.839-1.84v-2.29Zm0 12.787c0-1.015.822-1.839 1.838-1.839h19.34a1.84 1.84 0 0 1 1.839 1.84v1.437a1.839 1.839 0 0 1-1.839 1.839h-19.34a1.839 1.839 0 0 1-1.839-1.84v-1.437Zm0 12.788c0-1.016.822-1.839 1.838-1.839h19.34c1.016 0 1.839.823 1.839 1.839v1.437a1.839 1.839 0 0 1-1.839 1.84h-19.34a1.839 1.839 0 0 1-1.839-1.84V54.94Z"/>
    <path fill="#F4EFE9" d="M59.66 67.726c0-1.015.822-1.838 1.838-1.838h19.34c1.016 0 1.839.823 1.839 1.838v1.438a1.839 1.839 0 0 1-1.839 1.838h-19.34a1.839 1.839 0 0 1-1.839-1.838v-1.438Zm0 12.788c0-1.016.822-1.839 1.838-1.839h19.34c1.016 0 1.839.823 1.839 1.839v1.437a1.839 1.839 0 0 1-1.839 1.84h-19.34a1.839 1.839 0 0 1-1.839-1.84v-1.437Zm0 12.787c0-1.015.822-1.839 1.838-1.839h19.34a1.84 1.84 0 0 1 1.839 1.84v1.437a1.839 1.839 0 0 1-1.839 1.838h-19.34a1.839 1.839 0 0 1-1.839-1.838V93.3Zm0 12.788c0-1.016.822-1.839 1.838-1.839h19.34c1.016 0 1.839.823 1.839 1.839v1.438a1.838 1.838 0 0 1-1.839 1.838h-19.34a1.838 1.838 0 0 1-1.839-1.838v-1.438Zm0 12.787c0-1.015.822-1.838 1.838-1.838h19.34c1.016 0 1.839.823 1.839 1.838v1.438a1.84 1.84 0 0 1-1.839 1.839h-19.34a1.84 1.84 0 0 1-1.839-1.839v-1.438Z"/>
    <g filter="url(#f)">
      <path fill="#FCFBF8" d="M34.084 64.183h38.363v76.725H34.084V64.183Z"/>
    </g>
    <path fill="#DED4C6" d="M41.875 73.055c0-1.015.823-1.838 1.839-1.838h5.294a1.84 1.84 0 0 1 1.84 1.838v3.835a1.839 1.839 0 0 1-1.84 1.838h-5.294a1.839 1.839 0 0 1-1.839-1.838v-3.835Zm0 13.146a1.84 1.84 0 0 1 1.839-1.839h5.294a1.84 1.84 0 0 1 1.84 1.839v3.834a1.839 1.839 0 0 1-1.84 1.839h-5.294a1.839 1.839 0 0 1-1.839-1.839v-3.834Zm0 13.145c0-1.016.823-1.839 1.839-1.839h5.294a1.84 1.84 0 0 1 1.84 1.839v3.834a1.839 1.839 0 0 1-1.84 1.839h-5.294a1.839 1.839 0 0 1-1.839-1.839v-3.834Zm0 13.145c0-1.015.823-1.838 1.839-1.838h5.294a1.84 1.84 0 0 1 1.84 1.838v3.835a1.838 1.838 0 0 1-1.84 1.838h-5.294a1.838 1.838 0 0 1-1.839-1.838v-3.835Zm2.44 15.763a1.84 1.84 0 0 1 1.838-1.839h7.539v14.493h-9.377v-12.654Zm11.123-55.199c0-1.015.823-1.838 1.838-1.838h5.295c1.016 0 1.839.823 1.839 1.838v3.835a1.839 1.839 0 0 1-1.839 1.838h-5.295a1.839 1.839 0 0 1-1.839-1.838v-3.835Zm0 13.146c0-1.015.823-1.839 1.838-1.839h5.295a1.84 1.84 0 0 1 1.839 1.839v3.834a1.839 1.839 0 0 1-1.839 1.839h-5.295a1.839 1.839 0 0 1-1.839-1.839v-3.834Zm0 13.145c0-1.016.823-1.839 1.838-1.839h5.295c1.016 0 1.839.823 1.839 1.839v3.834a1.839 1.839 0 0 1-1.839 1.839h-5.295a1.839 1.839 0 0 1-1.839-1.839v-3.834Zm0 13.145c0-1.015.823-1.838 1.838-1.838h5.295c1.016 0 1.839.823 1.839 1.838v3.835a1.838 1.838 0 0 1-1.839 1.838h-5.295a1.838 1.838 0 0 1-1.839-1.838v-3.835Zm-1.746 13.924h7.539a1.84 1.84 0 0 1 1.838 1.839v12.654h-9.377v-14.493Z"/>
    <path fill="#EDE5DA" fill-rule="evenodd" d="M15 140.908a.92.92 0 0 1 .92-.92h128.709a.92.92 0 0 1 0 1.839H15.919a.92.92 0 0 1-.919-.919Z" clip-rule="evenodd"/>
  </g>
  <defs>
    <filter id="b" width="71.215" height="124.07" x="71.792" y="40.837" color-interpolation-filters="sRGB" filterUnits="userSpaceOnUse">
      <feFlood flood-opacity="0" result="BackgroundImageFix"/>
      <feColorMatrix in="SourceAlpha" result="hardAlpha" values="0 0 0 0 0 0 0 0 0 0 0 0 0 0 0 0 0 0 127 0"/>
      <feOffset dy="8"/>
      <feGaussianBlur stdDeviation="8"/>
      <feColorMatrix values="0 0 0 0 0.576471 0 0 0 0 0.501961 0 0 0 0 0.396078 0 0 0 0.16 0"/>
      <feBlend in2="BackgroundImageFix" result="effect1_dropShadow_3267_4900"/>
      <feBlend in="SourceGraphic" in2="effect1_dropShadow_3267_4900" result="shape"/>
    </filter>
    <filter id="d" width="58.953" height="145.908" x="41.692" y="15" color-interpolation-filters="sRGB" filterUnits="userSpaceOnUse">
      <feFlood flood-opacity="0" result="BackgroundImageFix"/>
      <feColorMatrix in="SourceAlpha" result="hardAlpha" values="0 0 0 0 0 0 0 0 0 0 0 0 0 0 0 0 0 0 127 0"/>
      <feOffset dy="8"/>
      <feGaussianBlur stdDeviation="6"/>
      <feColorMatrix values="0 0 0 0 0.576471 0 0 0 0 0.501961 0 0 0 0 0.396078 0 0 0 0.16 0"/>
      <feBlend in2="BackgroundImageFix" result="effect1_dropShadow_3267_4900"/>
      <feBlend in="SourceGraphic" in2="effect1_dropShadow_3267_4900" result="shape"/>
    </filter>
    <filter id="f" width="70.363" height="108.725" x="18.084" y="56.183" color-interpolation-filters="sRGB" filterUnits="userSpaceOnUse">
      <feFlood flood-opacity="0" result="BackgroundImageFix"/>
      <feColorMatrix in="SourceAlpha" result="hardAlpha" values="0 0 0 0 0 0 0 0 0 0 0 0 0 0 0 0 0 0 127 0"/>
      <feOffset dy="8"/>
      <feGaussianBlur stdDeviation="8"/>
      <feColorMatrix values="0 0 0 0 0.576471 0 0 0 0 0.501961 0 0 0 0 0.396078 0 0 0 0.16 0"/>
      <feBlend in2="BackgroundImageFix" result="effect1_dropShadow_3267_4900"/>
      <feBlend in="SourceGraphic" in2="effect1_dropShadow_3267_4900" result="shape"/>
    </filter>
    <linearGradient id="c" x1="106.921" x2="107.387" y1="54.628" y2="141.9" gradientUnits="userSpaceOnUse">
      <stop stop-color="#FDFDFD"/>
      <stop offset=".996" stop-color="#F4F1ED"/>
    </linearGradient>
    <linearGradient id="e" x1="71.157" x2="71.157" y1="16.18" y2="142.222" gradientUnits="userSpaceOnUse">
      <stop stop-color="#EAE7E1"/>
      <stop offset=".996" stop-color="#B4B09F"/>
    </linearGradient>
    <clipPath id="a">
      <path fill="#fff" d="M0 0h160v160H0z"/>
    </clipPath>
  </defs>
</svg>
