<svg width="230" height="160" viewBox="0 0 230 160" fill="none" xmlns="http://www.w3.org/2000/svg">
<g clip-path="url(#clip0_3267_4900)">
<path d="M111.405 134.389C139.183 134.389 161.667 111.787 161.667 83.9002C161.667 56.0133 139.183 33.4924 111.405 33.4924C83.6261 33.4924 61.1426 56.0946 61.1426 83.9815C61.1426 111.95 83.7075 134.389 111.405 134.389Z" fill="#EBEBEB"/>
<path fill-rule="evenodd" clip-rule="evenodd" d="M150.498 36.8964C150.972 36.8964 151.357 37.2808 151.357 37.7549V53.5262C151.357 54.0003 150.972 54.3847 150.498 54.3847C150.024 54.3847 149.64 54.0003 149.64 53.5262V37.7549C149.64 37.2808 150.024 36.8964 150.498 36.8964Z" fill="#D9D2C7"/>
<path d="M144.104 52.2476H156.892V65.0351H144.104V52.2476Z" fill="#D9D2C7"/>
<g filter="url(#filter0_d_3267_4900)">
<path d="M122.792 48.8375L162.007 67.1269V140.908H122.792V48.8375Z" fill="url(#paint0_linear_3267_4900)"/>
</g>
<path d="M131.317 74.5462C131.317 73.5307 132.141 72.7075 133.156 72.7075H138.856C139.872 72.7075 140.695 73.5307 140.695 74.5462V77.6888C140.695 78.7043 139.872 79.5275 138.856 79.5275H133.156C132.141 79.5275 131.317 78.7043 131.317 77.6888V74.5462Z" fill="#DED4C6"/>
<path d="M131.317 87.3339C131.317 86.3185 132.141 85.4952 133.156 85.4952H138.856C139.872 85.4952 140.695 86.3185 140.695 87.3339V91.329C140.695 92.3445 139.872 93.1678 138.856 93.1678H133.156C132.141 93.1678 131.317 92.3445 131.317 91.329V87.3339Z" fill="#DED4C6"/>
<path d="M131.317 100.121C131.317 99.1059 132.141 98.2827 133.156 98.2827H138.856C139.872 98.2827 140.695 99.1059 140.695 100.121V104.117C140.695 105.132 139.872 105.955 138.856 105.955H133.156C132.141 105.955 131.317 105.132 131.317 104.117V100.121Z" fill="#DED4C6"/>
<path d="M131.317 113.761C131.317 112.746 132.141 111.923 133.156 111.923H138.856C139.872 111.923 140.695 112.746 140.695 113.761V117.756C140.695 118.772 139.872 119.595 138.856 119.595H133.156C132.141 119.595 131.317 118.772 131.317 117.756V113.761Z" fill="#DED4C6"/>
<path d="M131.317 126.549C131.317 125.533 132.141 124.71 133.156 124.71H138.856C139.872 124.71 140.695 125.533 140.695 126.549V130.544C140.695 131.559 139.872 132.383 138.856 132.383H133.156C132.141 132.383 131.317 131.559 131.317 130.544V126.549Z" fill="#DED4C6"/>
<path d="M144.957 74.5462C144.957 73.5307 145.78 72.7075 146.796 72.7075H151.643C152.659 72.7075 153.482 73.5307 153.482 74.5462V77.6888C153.482 78.7043 152.659 79.5275 151.643 79.5275H146.796C145.78 79.5275 144.957 78.7043 144.957 77.6888V74.5462Z" fill="#DED4C6"/>
<path d="M144.957 87.3339C144.957 86.3185 145.78 85.4952 146.796 85.4952H151.643C152.659 85.4952 153.482 86.3185 153.482 87.3339V91.329C153.482 92.3445 152.659 93.1678 151.643 93.1678H146.796C145.78 93.1678 144.957 92.3445 144.957 91.329V87.3339Z" fill="#DED4C6"/>
<path d="M144.957 100.121C144.957 99.1059 145.78 98.2827 146.796 98.2827H151.643C152.659 98.2827 153.482 99.1059 153.482 100.121V104.117C153.482 105.132 152.659 105.955 151.643 105.955H146.796C145.78 105.955 144.957 105.132 144.957 104.117V100.121Z" fill="#DED4C6"/>
<path d="M144.957 113.761C144.957 112.746 145.78 111.923 146.796 111.923H151.643C152.659 111.923 153.482 112.746 153.482 113.761V117.756C153.482 118.772 152.659 119.595 151.643 119.595H146.796C145.78 119.595 144.957 118.772 144.957 117.756V113.761Z" fill="#DED4C6"/>
<path d="M144.957 126.549C144.957 125.533 145.78 124.71 146.796 124.71H151.643C152.659 124.71 153.482 125.533 153.482 126.549V130.544C153.482 131.559 152.659 132.383 151.643 132.383H146.796C145.78 132.383 144.957 131.559 144.957 130.544V126.549Z" fill="#DED4C6"/>
<g filter="url(#filter1_d_3267_4900)">
<path d="M88.6924 19H123.645V140.908H88.6924V19Z" fill="url(#paint1_linear_3267_4900)"/>
</g>
<path d="M94.6592 29.3639C94.6592 28.3484 95.4824 27.5251 96.4979 27.5251H115.838C116.854 27.5251 117.677 28.3484 117.677 29.3639V31.6539C117.677 32.6694 116.854 33.4927 115.838 33.4927H96.4979C95.4824 33.4927 94.6592 32.6694 94.6592 31.6539V29.3639Z" fill="white"/>
<path d="M94.6592 42.1513C94.6592 41.1358 95.4824 40.3126 96.4979 40.3126H115.838C116.854 40.3126 117.677 41.1358 117.677 42.1513V43.5889C117.677 44.6044 116.854 45.4276 115.838 45.4276H96.4979C95.4824 45.4276 94.6592 44.6044 94.6592 43.5889V42.1513Z" fill="white"/>
<path d="M94.6592 54.9388C94.6592 53.9233 95.4824 53.1001 96.4979 53.1001H115.838C116.854 53.1001 117.677 53.9233 117.677 54.9388V56.3764C117.677 57.3919 116.854 58.2151 115.838 58.2151H96.4979C95.4824 58.2151 94.6592 57.3919 94.6592 56.3764V54.9388Z" fill="white"/>
<path d="M94.6592 67.7263C94.6592 66.7108 95.4824 65.8876 96.4979 65.8876H115.838C116.854 65.8876 117.677 66.7108 117.677 67.7263V69.1639C117.677 70.1794 116.854 71.0026 115.838 71.0026H96.4979C95.4824 71.0026 94.6592 70.1794 94.6592 69.1639V67.7263Z" fill="#F4EFE9"/>
<path d="M94.6592 80.5139C94.6592 79.4984 95.4824 78.6752 96.4979 78.6752H115.838C116.854 78.6752 117.677 79.4984 117.677 80.5139V81.9515C117.677 82.967 116.854 83.7902 115.838 83.7902H96.4979C95.4824 83.7902 94.6592 82.967 94.6592 81.9515V80.5139Z" fill="#F4EFE9"/>
<path d="M94.6592 93.3014C94.6592 92.2859 95.4824 91.4626 96.4979 91.4626H115.838C116.854 91.4626 117.677 92.2859 117.677 93.3014V94.7389C117.677 95.7544 116.854 96.5777 115.838 96.5777H96.4979C95.4824 96.5777 94.6592 95.7544 94.6592 94.7389V93.3014Z" fill="#F4EFE9"/>
<path d="M94.6592 106.089C94.6592 105.074 95.4824 104.25 96.4979 104.25H115.838C116.854 104.25 117.677 105.074 117.677 106.089V107.527C117.677 108.542 116.854 109.365 115.838 109.365H96.4979C95.4824 109.365 94.6592 108.542 94.6592 107.527V106.089Z" fill="#F4EFE9"/>
<path d="M94.6592 118.876C94.6592 117.861 95.4824 117.038 96.4979 117.038H115.838C116.854 117.038 117.677 117.861 117.677 118.876V120.314C117.677 121.33 116.854 122.153 115.838 122.153H96.4979C95.4824 122.153 94.6592 121.33 94.6592 120.314V118.876Z" fill="#F4EFE9"/>
<g filter="url(#filter2_d_3267_4900)">
<path d="M69.084 64.1826H107.447V140.908H69.084V64.1826Z" fill="#FCFBF8"/>
</g>
<path d="M76.875 73.0554C76.875 72.04 77.6982 71.2167 78.7137 71.2167H84.0085C85.024 71.2167 85.8472 72.04 85.8472 73.0554V76.8897C85.8472 77.9052 85.024 78.7284 84.0085 78.7284H78.7137C77.6982 78.7284 76.875 77.9052 76.875 76.8897V73.0554Z" fill="#DED4C6"/>
<path d="M76.875 86.2008C76.875 85.1853 77.6982 84.3621 78.7137 84.3621H84.0085C85.024 84.3621 85.8472 85.1853 85.8472 86.2008V90.035C85.8472 91.0505 85.024 91.8738 84.0085 91.8738H78.7137C77.6982 91.8738 76.875 91.0505 76.875 90.035V86.2008Z" fill="#DED4C6"/>
<path d="M76.875 99.3459C76.875 98.3304 77.6982 97.5072 78.7137 97.5072H84.0085C85.024 97.5072 85.8472 98.3304 85.8472 99.3459V103.18C85.8472 104.196 85.024 105.019 84.0085 105.019H78.7137C77.6982 105.019 76.875 104.196 76.875 103.18V99.3459Z" fill="#DED4C6"/>
<path d="M76.875 112.491C76.875 111.476 77.6982 110.653 78.7137 110.653H84.0085C85.024 110.653 85.8472 111.476 85.8472 112.491V116.326C85.8472 117.341 85.024 118.164 84.0085 118.164H78.7137C77.6982 118.164 76.875 117.341 76.875 116.326V112.491Z" fill="#DED4C6"/>
<path d="M79.3145 128.254C79.3145 127.238 80.1377 126.415 81.1532 126.415H88.692V140.908H79.3145V128.254Z" fill="#DED4C6"/>
<path d="M90.4375 73.0554C90.4375 72.0399 91.2607 71.2167 92.2762 71.2167H97.571C98.5865 71.2167 99.4097 72.0399 99.4097 73.0554V76.8896C99.4097 77.9051 98.5865 78.7283 97.571 78.7283H92.2762C91.2607 78.7283 90.4375 77.9051 90.4375 76.8896V73.0554Z" fill="#DED4C6"/>
<path d="M90.4375 86.2008C90.4375 85.1853 91.2607 84.3621 92.2762 84.3621H97.571C98.5865 84.3621 99.4097 85.1853 99.4097 86.2008V90.035C99.4097 91.0505 98.5865 91.8738 97.571 91.8738H92.2762C91.2607 91.8738 90.4375 91.0505 90.4375 90.035V86.2008Z" fill="#DED4C6"/>
<path d="M90.4375 99.3459C90.4375 98.3304 91.2607 97.5072 92.2762 97.5072H97.571C98.5865 97.5072 99.4097 98.3304 99.4097 99.3459V103.18C99.4097 104.196 98.5865 105.019 97.571 105.019H92.2762C91.2607 105.019 90.4375 104.196 90.4375 103.18V99.3459Z" fill="#DED4C6"/>
<path d="M90.4375 112.491C90.4375 111.476 91.2607 110.653 92.2762 110.653H97.571C98.5865 110.653 99.4097 111.476 99.4097 112.491V116.326C99.4097 117.341 98.5865 118.164 97.571 118.164H92.2762C91.2607 118.164 90.4375 117.341 90.4375 116.326V112.491Z" fill="#DED4C6"/>
<path d="M88.6924 126.415H96.2312C97.2467 126.415 98.0699 127.238 98.0699 128.254V140.908H88.6924V126.415Z" fill="#DED4C6"/>
<path fill-rule="evenodd" clip-rule="evenodd" d="M50 140.908C50 140.4 50.4116 139.988 50.9194 139.988H179.629C180.137 139.988 180.548 140.4 180.548 140.908C180.548 141.415 180.137 141.827 179.629 141.827H50.9194C50.4116 141.827 50 141.415 50 140.908Z" fill="#EDE5DA"/>
</g>
<defs>
<filter id="filter0_d_3267_4900" x="106.792" y="40.8375" width="71.2148" height="124.07" filterUnits="userSpaceOnUse" color-interpolation-filters="sRGB">
<feFlood flood-opacity="0" result="BackgroundImageFix"/>
<feColorMatrix in="SourceAlpha" type="matrix" values="0 0 0 0 0 0 0 0 0 0 0 0 0 0 0 0 0 0 127 0" result="hardAlpha"/>
<feOffset dy="8"/>
<feGaussianBlur stdDeviation="8"/>
<feColorMatrix type="matrix" values="0 0 0 0 0.576471 0 0 0 0 0.501961 0 0 0 0 0.396078 0 0 0 0.16 0"/>
<feBlend mode="normal" in2="BackgroundImageFix" result="effect1_dropShadow_3267_4900"/>
<feBlend mode="normal" in="SourceGraphic" in2="effect1_dropShadow_3267_4900" result="shape"/>
</filter>
<filter id="filter1_d_3267_4900" x="76.6924" y="15" width="58.9521" height="145.908" filterUnits="userSpaceOnUse" color-interpolation-filters="sRGB">
<feFlood flood-opacity="0" result="BackgroundImageFix"/>
<feColorMatrix in="SourceAlpha" type="matrix" values="0 0 0 0 0 0 0 0 0 0 0 0 0 0 0 0 0 0 127 0" result="hardAlpha"/>
<feOffset dy="8"/>
<feGaussianBlur stdDeviation="6"/>
<feColorMatrix type="matrix" values="0 0 0 0 0.576471 0 0 0 0 0.501961 0 0 0 0 0.396078 0 0 0 0.16 0"/>
<feBlend mode="normal" in2="BackgroundImageFix" result="effect1_dropShadow_3267_4900"/>
<feBlend mode="normal" in="SourceGraphic" in2="effect1_dropShadow_3267_4900" result="shape"/>
</filter>
<filter id="filter2_d_3267_4900" x="53.084" y="56.1826" width="70.3623" height="108.725" filterUnits="userSpaceOnUse" color-interpolation-filters="sRGB">
<feFlood flood-opacity="0" result="BackgroundImageFix"/>
<feColorMatrix in="SourceAlpha" type="matrix" values="0 0 0 0 0 0 0 0 0 0 0 0 0 0 0 0 0 0 127 0" result="hardAlpha"/>
<feOffset dy="8"/>
<feGaussianBlur stdDeviation="8"/>
<feColorMatrix type="matrix" values="0 0 0 0 0.576471 0 0 0 0 0.501961 0 0 0 0 0.396078 0 0 0 0.16 0"/>
<feBlend mode="normal" in2="BackgroundImageFix" result="effect1_dropShadow_3267_4900"/>
<feBlend mode="normal" in="SourceGraphic" in2="effect1_dropShadow_3267_4900" result="shape"/>
</filter>
<linearGradient id="paint0_linear_3267_4900" x1="141.921" y1="54.628" x2="142.387" y2="141.9" gradientUnits="userSpaceOnUse">
<stop stop-color="#FDFDFD"/>
<stop offset="0.9964" stop-color="#F4F1ED"/>
</linearGradient>
<linearGradient id="paint1_linear_3267_4900" x1="106.157" y1="16.1802" x2="106.157" y2="142.222" gradientUnits="userSpaceOnUse">
<stop stop-color="#EAE7E1"/>
<stop offset="0.9964" stop-color="#B4B09F"/>
</linearGradient>
<clipPath id="clip0_3267_4900">
<rect width="230" height="160" fill="white"/>
</clipPath>
</defs>
</svg>
