<svg xmlns="http://www.w3.org/2000/svg" width="160" height="160" fill="none" viewBox="0 0 160 160">
  <g clip-path="url(#a)">
    <path fill="#242424" d="M76.404 134.389c27.779 0 50.262-22.602 50.262-50.489 0-27.887-22.483-50.408-50.262-50.408-27.778 0-50.262 22.603-50.262 50.49 0 27.968 22.565 50.407 50.262 50.407Z"/>
    <path fill="#353535" fill-rule="evenodd" d="M115.495 36.897c.474 0 .858.384.858.858v15.771a.858.858 0 1 1-1.717 0V37.755c0-.474.385-.858.859-.858Z" clip-rule="evenodd"/>
    <path fill="#353535" d="M109.101 52.248h12.788v12.787h-12.788V52.248Z"/>
    <g filter="url(#b)">
      <path fill="#4D4D4D" d="m87.789 48.837 39.215 18.29v73.781H87.789v-92.07Z"/>
    </g>
    <path fill="#3A3A3A" d="M96.314 74.546c0-1.015.823-1.838 1.838-1.838h5.7c1.016 0 1.839.823 1.839 1.838v3.143a1.839 1.839 0 0 1-1.839 1.839h-5.7a1.839 1.839 0 0 1-1.838-1.839v-3.142Zm0 12.788c0-1.015.823-1.839 1.838-1.839h5.7a1.84 1.84 0 0 1 1.839 1.84v3.994a1.839 1.839 0 0 1-1.839 1.839h-5.7a1.839 1.839 0 0 1-1.838-1.839v-3.995Zm0 12.787c0-1.015.823-1.838 1.838-1.838h5.7c1.016 0 1.839.823 1.839 1.838v3.996a1.838 1.838 0 0 1-1.839 1.838h-5.7a1.838 1.838 0 0 1-1.838-1.838v-3.996Zm0 13.641c0-1.016.823-1.839 1.838-1.839h5.7c1.016 0 1.839.823 1.839 1.839v3.995a1.838 1.838 0 0 1-1.839 1.838h-5.7a1.838 1.838 0 0 1-1.838-1.838v-3.995Zm0 12.787c0-1.016.823-1.839 1.838-1.839h5.7c1.016 0 1.839.823 1.839 1.839v3.995a1.838 1.838 0 0 1-1.839 1.838h-5.7a1.838 1.838 0 0 1-1.838-1.838v-3.995Zm13.64-52.003c0-1.015.823-1.838 1.839-1.838h4.847c1.016 0 1.839.823 1.839 1.838v3.143a1.839 1.839 0 0 1-1.839 1.839h-4.847a1.839 1.839 0 0 1-1.839-1.839v-3.142Zm0 12.788a1.84 1.84 0 0 1 1.839-1.839h4.847a1.84 1.84 0 0 1 1.839 1.84v3.994a1.839 1.839 0 0 1-1.839 1.839h-4.847a1.839 1.839 0 0 1-1.839-1.839v-3.995Zm0 12.787c0-1.015.823-1.838 1.839-1.838h4.847c1.016 0 1.839.823 1.839 1.838v3.996a1.838 1.838 0 0 1-1.839 1.838h-4.847a1.838 1.838 0 0 1-1.839-1.838v-3.996Zm0 13.641c0-1.016.823-1.839 1.839-1.839h4.847c1.016 0 1.839.823 1.839 1.839v3.995a1.838 1.838 0 0 1-1.839 1.838h-4.847a1.838 1.838 0 0 1-1.839-1.838v-3.995Zm0 12.787c0-1.016.823-1.839 1.839-1.839h4.847c1.016 0 1.839.823 1.839 1.839v3.995a1.838 1.838 0 0 1-1.839 1.838h-4.847a1.838 1.838 0 0 1-1.839-1.838v-3.995Z"/>
    <g filter="url(#c)">
      <path fill="#5C5C5C" d="M53.688 19h34.953v121.908H53.688V19Z"/>
    </g>
    <path fill="#3A3A3A" d="M59.656 29.364a1.84 1.84 0 0 1 1.839-1.839h19.34c1.016 0 1.839.823 1.839 1.839v2.29a1.839 1.839 0 0 1-1.839 1.839h-19.34a1.839 1.839 0 0 1-1.839-1.84v-2.29Zm0 12.787a1.84 1.84 0 0 1 1.839-1.839h19.34a1.84 1.84 0 0 1 1.839 1.84v1.437a1.839 1.839 0 0 1-1.839 1.839h-19.34a1.839 1.839 0 0 1-1.839-1.84v-1.437Zm0 12.788a1.84 1.84 0 0 1 1.839-1.839h19.34c1.016 0 1.839.823 1.839 1.839v1.437a1.839 1.839 0 0 1-1.839 1.84h-19.34a1.839 1.839 0 0 1-1.839-1.84V54.94Zm0 12.787c0-1.015.824-1.838 1.839-1.838h19.34c1.016 0 1.839.823 1.839 1.838v1.438a1.839 1.839 0 0 1-1.839 1.839h-19.34a1.839 1.839 0 0 1-1.839-1.839v-1.438Zm0 12.788a1.84 1.84 0 0 1 1.839-1.839h19.34c1.016 0 1.839.823 1.839 1.839v1.437a1.839 1.839 0 0 1-1.839 1.84h-19.34a1.839 1.839 0 0 1-1.839-1.84v-1.437Zm0 12.788a1.84 1.84 0 0 1 1.839-1.84h19.34a1.84 1.84 0 0 1 1.839 1.84v1.437a1.839 1.839 0 0 1-1.839 1.839h-19.34a1.839 1.839 0 0 1-1.839-1.839v-1.437Zm0 12.787a1.84 1.84 0 0 1 1.839-1.839h19.34a1.84 1.84 0 0 1 1.839 1.839v1.438a1.838 1.838 0 0 1-1.839 1.838h-19.34a1.838 1.838 0 0 1-1.839-1.838v-1.438Zm0 12.787c0-1.015.824-1.838 1.839-1.838h19.34c1.016 0 1.839.823 1.839 1.838v1.438a1.84 1.84 0 0 1-1.839 1.839h-19.34a1.84 1.84 0 0 1-1.839-1.839v-1.438Z"/>
    <g filter="url(#d)">
      <path fill="#707070" d="M34.081 64.183h38.363v76.725H34.08V64.183Z"/>
    </g>
    <path fill="#3A3A3A" d="M41.872 73.055c0-1.015.823-1.838 1.839-1.838h5.295c1.015 0 1.838.823 1.838 1.838v3.834a1.839 1.839 0 0 1-1.838 1.84H43.71a1.839 1.839 0 0 1-1.839-1.84v-3.834Zm0 13.146c0-1.015.823-1.838 1.839-1.838h5.295c1.015 0 1.838.823 1.838 1.838v3.835a1.839 1.839 0 0 1-1.838 1.838H43.71a1.839 1.839 0 0 1-1.839-1.838V86.2Zm0 13.145c0-1.016.823-1.839 1.839-1.839h5.295c1.015 0 1.838.823 1.838 1.839v3.834a1.839 1.839 0 0 1-1.838 1.839H43.71a1.839 1.839 0 0 1-1.839-1.839v-3.834Zm0 13.146a1.84 1.84 0 0 1 1.839-1.839h5.295a1.84 1.84 0 0 1 1.838 1.839v3.834a1.839 1.839 0 0 1-1.838 1.839H43.71a1.839 1.839 0 0 1-1.839-1.839v-3.834Zm2.44 15.762c0-1.015.823-1.838 1.838-1.838h7.539v14.492h-9.377v-12.654Zm11.123-55.199c0-1.015.823-1.838 1.838-1.838h5.295c1.016 0 1.839.823 1.839 1.838v3.834a1.839 1.839 0 0 1-1.839 1.84h-5.295a1.839 1.839 0 0 1-1.838-1.84v-3.834Zm0 13.146c0-1.015.823-1.838 1.838-1.838h5.295c1.016 0 1.839.823 1.839 1.838v3.835a1.839 1.839 0 0 1-1.839 1.838h-5.295a1.839 1.839 0 0 1-1.838-1.838V86.2Zm0 13.145c0-1.016.823-1.839 1.838-1.839h5.295c1.016 0 1.839.823 1.839 1.839v3.834a1.839 1.839 0 0 1-1.839 1.839h-5.295a1.839 1.839 0 0 1-1.838-1.839v-3.834Zm0 13.146a1.84 1.84 0 0 1 1.838-1.839h5.295a1.84 1.84 0 0 1 1.839 1.839v3.834a1.839 1.839 0 0 1-1.839 1.839h-5.295a1.839 1.839 0 0 1-1.838-1.839v-3.834Zm-1.746 13.924h7.539c1.015 0 1.838.823 1.838 1.838v12.654H53.69v-14.492Z"/>
    <path fill="#3A3A3A" fill-rule="evenodd" d="M15 140.908a.92.92 0 0 1 .92-.919h128.709a.918.918 0 1 1 0 1.838H15.919a.919.919 0 0 1-.919-.919Z" clip-rule="evenodd"/>
  </g>
  <defs>
    <filter id="b" width="63.215" height="116.07" x="75.789" y="44.837" color-interpolation-filters="sRGB" filterUnits="userSpaceOnUse">
      <feFlood flood-opacity="0" result="BackgroundImageFix"/>
      <feColorMatrix in="SourceAlpha" result="hardAlpha" values="0 0 0 0 0 0 0 0 0 0 0 0 0 0 0 0 0 0 127 0"/>
      <feOffset dy="8"/>
      <feGaussianBlur stdDeviation="6"/>
      <feColorMatrix values="0 0 0 0 0 0 0 0 0 0 0 0 0 0 0 0 0 0 0.16 0"/>
      <feBlend in2="BackgroundImageFix" result="effect1_dropShadow_3267_4902"/>
      <feBlend in="SourceGraphic" in2="effect1_dropShadow_3267_4902" result="shape"/>
    </filter>
    <filter id="c" width="58.953" height="145.908" x="41.688" y="15" color-interpolation-filters="sRGB" filterUnits="userSpaceOnUse">
      <feFlood flood-opacity="0" result="BackgroundImageFix"/>
      <feColorMatrix in="SourceAlpha" result="hardAlpha" values="0 0 0 0 0 0 0 0 0 0 0 0 0 0 0 0 0 0 127 0"/>
      <feOffset dy="8"/>
      <feGaussianBlur stdDeviation="6"/>
      <feColorMatrix values="0 0 0 0 0 0 0 0 0 0 0 0 0 0 0 0 0 0 0.16 0"/>
      <feBlend in2="BackgroundImageFix" result="effect1_dropShadow_3267_4902"/>
      <feBlend in="SourceGraphic" in2="effect1_dropShadow_3267_4902" result="shape"/>
    </filter>
    <filter id="d" width="62.363" height="100.725" x="22.081" y="60.183" color-interpolation-filters="sRGB" filterUnits="userSpaceOnUse">
      <feFlood flood-opacity="0" result="BackgroundImageFix"/>
      <feColorMatrix in="SourceAlpha" result="hardAlpha" values="0 0 0 0 0 0 0 0 0 0 0 0 0 0 0 0 0 0 127 0"/>
      <feOffset dy="8"/>
      <feGaussianBlur stdDeviation="6"/>
      <feColorMatrix values="0 0 0 0 0 0 0 0 0 0 0 0 0 0 0 0 0 0 0.16 0"/>
      <feBlend in2="BackgroundImageFix" result="effect1_dropShadow_3267_4902"/>
      <feBlend in="SourceGraphic" in2="effect1_dropShadow_3267_4902" result="shape"/>
    </filter>
    <clipPath id="a">
      <path fill="#fff" d="M0 0h160v160H0z"/>
    </clipPath>
  </defs>
</svg>
