<svg width="48" height="48" viewBox="0 0 48 48" fill="none" xmlns="http://www.w3.org/2000/svg">
<path d="M7.25 44C5.45507 44 4 42.5449 4 40.75L4 7.25C4 5.45507 5.45507 4 7.25 4C9.04493 4 10.5 5.45507 10.5 7.25L10.5 40.75C10.5 42.5449 9.04493 44 7.25 44ZM18.5 24C18.5 28.6944 22.3056 32.5 27 32.5C31.6944 32.5 35.5 28.6944 35.5 24C35.5 19.3056 31.6944 15.5 27 15.5C22.3056 15.5 18.5 19.3056 18.5 24ZM21 24C21 20.6863 23.6863 18 27 18C30.3137 18 33 20.6863 33 24C33 27.3137 30.3137 30 27 30C23.6863 30 21 27.3137 21 24ZM13 6L13 42L26 42C35.9411 42 44 33.9411 44 24C44 14.0589 35.9411 6 26 6L13 6ZM27 35C20.9249 35 16 30.0751 16 24C16 17.9249 20.9249 13 27 13C33.0751 13 38 17.9249 38 24C38 30.0751 33.0751 35 27 35Z" fill="#242424"/>
</svg>
