<svg width="28" height="28" viewBox="0 0 28 28" fill="none" xmlns="http://www.w3.org/2000/svg">
<path d="M4.25 26.5C3.2835 26.5 2.5 25.7165 2.5 24.75L2.5 4.25C2.5 3.2835 3.2835 2.5 4.25 2.5C5.2165 2.5 6 3.2835 6 4.25L6 24.75C6 25.7165 5.2165 26.5 4.25 26.5ZM16 19.5C13.2386 19.5 11 17.2614 11 14.5C11 11.7386 13.2386 9.5 16 9.5C18.7614 9.5 21 11.7386 21 14.5C21 17.2614 18.7614 19.5 16 19.5ZM19.5 14.5C19.5 12.567 17.933 11 16 11C14.067 11 12.5 12.567 12.5 14.5C12.5 16.433 14.067 18 16 18C17.933 18 19.5 16.433 19.5 14.5ZM7.5 25.5L7.5 3.5L14.5 3.5C20.5751 3.5 25.5 8.42487 25.5 14.5C25.5 20.5751 20.5751 25.5 14.5 25.5L7.5 25.5ZM16 21C19.5899 21 22.5 18.0899 22.5 14.5C22.5 10.9101 19.5899 8 16 8C12.4101 8 9.5 10.9101 9.5 14.5C9.5 18.0899 12.4101 21 16 21Z" fill="#242424"/>
</svg>
