<svg width="28" height="28" viewBox="0 0 28 28" fill="none" xmlns="http://www.w3.org/2000/svg">
<path d="M16 11C17.933 11 19.5 12.567 19.5 14.5C19.5 16.433 17.933 18 16 18C14.067 18 12.5 16.433 12.5 14.5C12.5 12.567 14.067 11 16 11ZM16 21C12.4101 21 9.5 18.0899 9.5 14.5C9.5 10.9101 12.4101 8 16 8C19.5899 8 22.5 10.9101 22.5 14.5C22.5 18.0899 19.5899 21 16 21ZM11 14.5C11 17.2614 13.2386 19.5 16 19.5C18.7614 19.5 21 17.2614 21 14.5C21 11.7386 18.7614 9.5 16 9.5C13.2386 9.5 11 11.7386 11 14.5ZM2.5 24.75C2.5 25.7165 3.2835 26.5 4.25 26.5L5.75 26.5C6.4481 26.5 7.05073 26.0912 7.33159 25.5L14.5 25.5C20.5751 25.5 25.5 20.5751 25.5 14.5C25.5 8.42487 20.5751 3.5 14.5 3.5L7.33159 3.5C7.05073 2.90876 6.4481 2.5 5.75 2.5L4.25 2.5C3.2835 2.5 2.5 3.2835 2.5 4.25L2.5 24.75ZM7.5 5L14.5 5C19.7467 5 24 9.2533 24 14.5C24 19.7467 19.7467 24 14.5 24L7.5 24L7.5 5ZM6 4.25L6 24.75C6 24.8881 5.88807 25 5.75 25L4.25 25C4.11193 25 4 24.8881 4 24.75L4 4.25C4 4.11193 4.11193 4 4.25 4L5.75 4C5.88807 4 6 4.11193 6 4.25Z" fill="#242424"/>
</svg>
