<svg width="24" height="24" viewBox="0 0 24 24" fill="none" xmlns="http://www.w3.org/2000/svg">
<path d="M3.75 22C2.7835 22 2 21.2165 2 20.25L2 3.75C2 2.7835 2.7835 2 3.75 2C4.7165 2 5.5 2.7835 5.5 3.75L5.5 20.25C5.5 21.2165 4.7165 22 3.75 22ZM17.5 12C17.5 9.79086 15.7091 8 13.5 8C11.2909 8 9.5 9.79086 9.5 12C9.5 14.2091 11.2909 16 13.5 16C15.7091 16 17.5 14.2091 17.5 12ZM13.5 9.5C14.8807 9.5 16 10.6193 16 12C16 13.3807 14.8807 14.5 13.5 14.5C12.1193 14.5 11 13.3807 11 12C11 10.6193 12.1193 9.5 13.5 9.5ZM7 21L7 3L13 3C17.9706 3 22 7.02944 22 12C22 16.9706 17.9706 21 13 21L7 21ZM19 12C19 8.96243 16.5376 6.5 13.5 6.5C10.4624 6.5 8 8.96243 8 12C8 15.0376 10.4624 17.5 13.5 17.5C16.5376 17.5 19 15.0376 19 12Z" fill="#242424"/>
</svg>
