<svg width="16" height="16" viewBox="0 0 16 16" fill="none" xmlns="http://www.w3.org/2000/svg">
<path d="M3 15.5C2.17157 15.5 1.5 14.8284 1.5 14L1.5 3C1.5 2.17157 2.17157 1.5 3 1.5C3.82843 1.5 4.5 2.17157 4.5 3L4.5 14C4.5 14.8284 3.82843 15.5 3 15.5ZM7.5 8.5C7.5 9.60457 8.39543 10.5 9.5 10.5C10.6046 10.5 11.5 9.60457 11.5 8.5C11.5 7.39543 10.6046 6.5 9.5 6.5C8.39543 6.5 7.5 7.39543 7.5 8.5ZM9.5 9.5C8.94772 9.5 8.5 9.05228 8.5 8.5C8.5 7.94772 8.94772 7.5 9.5 7.5C10.0523 7.5 10.5 7.94772 10.5 8.5C10.5 9.05228 10.0523 9.5 9.5 9.5ZM5.5 2.5L5.5 14.5L8.5 14.5C11.8137 14.5 14.5 11.8137 14.5 8.5C14.5 5.18629 11.8137 2.5 8.5 2.5L5.5 2.5ZM9.5 11.5C7.84315 11.5 6.5 10.1569 6.5 8.5C6.5 6.84315 7.84315 5.5 9.5 5.5C11.1569 5.5 12.5 6.84315 12.5 8.5C12.5 10.1569 11.1569 11.5 9.5 11.5Z" fill="#242424"/>
</svg>
