<svg width="48" height="48" viewBox="0 0 48 48" fill="none" xmlns="http://www.w3.org/2000/svg">
<path d="M7.25 44C5.45508 44 4 42.5449 4 40.75L4 7.25C4 5.45508 5.45508 4 7.25 4L9.75 4C11.102 4 12.2611 4.8255 12.7509 6L26 6C35.9411 6 44 14.0589 44 24C44 33.9411 35.9411 42 26 42L12.7509 42C12.2611 43.1745 11.102 44 9.75 44L7.25 44ZM13 39.5L26 39.5C34.5604 39.5 41.5 32.5604 41.5 24C41.5 15.4396 34.5604 8.5 26 8.5L13 8.5L13 39.5ZM9.75 6.5L7.25 6.5C6.83578 6.5 6.5 6.83582 6.5 7.25L6.5 40.75C6.5 41.1642 6.83578 41.5 7.25 41.5L9.75 41.5C10.1642 41.5 10.5 41.1642 10.5 40.75L10.5 7.25C10.5 6.83582 10.1642 6.5 9.75 6.5ZM27 32.5C22.3056 32.5 18.5 28.6944 18.5 24C18.5 19.3056 22.3056 15.5 27 15.5C31.6944 15.5 35.5 19.3056 35.5 24C35.5 28.6944 31.6944 32.5 27 32.5ZM16 24C16 30.0751 20.9249 35 27 35C33.0751 35 38 30.0751 38 24C38 17.9249 33.0751 13 27 13C20.9249 13 16 17.9249 16 24ZM27 30C23.6863 30 21 27.3137 21 24C21 20.6863 23.6863 18 27 18C30.3137 18 33 20.6863 33 24C33 27.3137 30.3137 30 27 30Z" fill="#242424"/>
</svg>
