<svg width="20" height="20" viewBox="0 0 20 20" fill="none" xmlns="http://www.w3.org/2000/svg">
<path d="M4 18.5C3.17157 18.5 2.5 17.8284 2.5 17L2.5 4C2.5 3.17157 3.17157 2.5 4 2.5C4.82843 2.5 5.5 3.17157 5.5 4L5.5 17C5.5 17.8284 4.82843 18.5 4 18.5ZM8.5 10.5C8.5 12.1569 9.84315 13.5 11.5 13.5C13.1569 13.5 14.5 12.1569 14.5 10.5C14.5 8.84315 13.1569 7.5 11.5 7.5C9.84315 7.5 8.5 8.84315 8.5 10.5ZM11.5 12.5C10.3954 12.5 9.5 11.6046 9.5 10.5C9.5 9.39543 10.3954 8.5 11.5 8.5C12.6046 8.5 13.5 9.39543 13.5 10.5C13.5 11.6046 12.6046 12.5 11.5 12.5ZM6.5 17.5L6.5 3.5L10.5 3.5C14.366 3.5 17.5 6.63401 17.5 10.5C17.5 14.366 14.366 17.5 10.5 17.5L6.5 17.5ZM7.5 10.5C7.5 12.7091 9.29086 14.5 11.5 14.5C13.7091 14.5 15.5 12.7091 15.5 10.5C15.5 8.29086 13.7091 6.5 11.5 6.5C9.29086 6.5 7.5 8.29086 7.5 10.5Z" fill="#242424"/>
</svg>
