<svg width="231" height="160" viewBox="0 0 231 160" fill="none" xmlns="http://www.w3.org/2000/svg">
<path d="M114.977 135C145.283 135 169.977 110.34 169.977 80.0512C169.875 49.6605 145.283 25 114.977 25C84.5684 25 59.9766 49.6605 59.9766 79.9488C59.9766 110.34 84.5684 135 114.977 135Z" fill="#242424"/>
<g filter="url(#filter0_d_4968_460)">
<path d="M173.383 86.6917C173.383 98.3988 163.915 107.866 152.106 107.866C151.902 107.866 150.172 107.866 137.447 107.866C128.59 107.866 114.44 107.866 91.8398 107.866H81.0489C66.8986 108.172 55.5986 96.8718 55.5986 83.2304C55.5986 69.4873 67.0004 58.0855 81.3543 58.7982C93.6723 20.3173 150.07 25.7128 154.855 65.517C165.442 66.8404 173.383 75.7989 173.383 86.6917Z" fill="#424242"/>
</g>
<path d="M117.392 108.07C138.262 108.07 155.262 91.1706 155.262 70.3014C155.262 49.4322 138.262 32.5332 117.392 32.5332C96.5232 32.5332 79.5225 49.4322 79.5225 70.3014C79.5225 91.1706 96.4214 108.07 117.392 108.07Z" fill="url(#paint0_linear_4968_460)"/>
<g filter="url(#filter1_d_4968_460)">
<path d="M90.8283 116.093L110.595 84.2415C112.747 81.2528 117.252 81.2528 119.403 84.2415L139.17 116.093C141.255 118.949 139.17 123 135.607 123H94.459C90.8283 122.934 88.7441 118.949 90.8283 116.093Z" fill="url(#paint1_linear_4968_460)"/>
</g>
<path d="M115.079 93.0107C113.318 93.0107 111.948 94.6063 112.079 96.4793L113.057 107.717C113.122 108.827 114.035 109.729 115.079 109.729C116.122 109.729 117.035 108.827 117.1 107.717L118.078 96.4793C118.209 94.5369 116.839 93.0107 115.079 93.0107Z" fill="#252525"/>
<path d="M115.08 111.81C113.776 111.81 112.732 112.919 112.732 114.307C112.732 115.694 113.776 116.804 115.08 116.804C116.384 116.804 117.427 115.694 117.427 114.307C117.427 112.919 116.384 111.81 115.08 111.81Z" fill="#252525"/>
<path d="M152.107 107.866C163.814 107.866 173.383 98.3986 173.383 86.6915C173.383 74.9843 163.814 65.5168 152.107 65.5168C140.399 65.5168 130.83 74.9843 130.83 86.6915C130.83 98.3986 140.399 107.866 152.107 107.866Z" fill="url(#paint2_linear_4968_460)"/>
<path d="M171.041 60.6304C173.346 60.6304 175.215 58.7617 175.215 56.4566C175.215 54.1514 173.346 52.2827 171.041 52.2827C168.736 52.2827 166.867 54.1514 166.867 56.4566C166.867 58.7617 168.736 60.6304 171.041 60.6304Z" fill="#5C5C5C"/>
<path d="M177.149 44.342C178.724 44.342 180 43.0658 180 41.4915C180 39.9173 178.724 38.6411 177.149 38.6411C175.575 38.6411 174.299 39.9173 174.299 41.4915C174.299 43.0658 175.575 44.342 177.149 44.342Z" fill="#5C5C5C"/>
<path d="M61.7069 53.7082C63.2811 53.7082 64.5573 52.432 64.5573 50.8578C64.5573 49.2835 63.2811 48.0073 61.7069 48.0073C60.1326 48.0073 58.8564 49.2835 58.8564 50.8578C58.8564 52.432 60.1326 53.7082 61.7069 53.7082Z" fill="#5C5C5C"/>
<path d="M55.2937 116.417C58.2173 116.417 60.5873 114.047 60.5873 111.124C60.5873 108.2 58.2173 105.83 55.2937 105.83C52.3701 105.83 50 108.2 50 111.124C50 114.047 52.3701 116.417 55.2937 116.417Z" fill="#5C5C5C"/>
<defs>
<filter id="filter0_d_4968_460" x="44.4836" y="30.9155" width="140.014" height="97.4768" filterUnits="userSpaceOnUse" color-interpolation-filters="sRGB">
<feFlood flood-opacity="0" result="BackgroundImageFix"/>
<feColorMatrix in="SourceAlpha" type="matrix" values="0 0 0 0 0 0 0 0 0 0 0 0 0 0 0 0 0 0 127 0" result="hardAlpha"/>
<feOffset dy="9.405"/>
<feGaussianBlur stdDeviation="5.5575"/>
<feColorMatrix type="matrix" values="0 0 0 0 0 0 0 0 0 0 0 0 0 0 0 0 0 0 0.22 0"/>
<feBlend mode="normal" in2="BackgroundImageFix" result="effect1_dropShadow_4968_460"/>
<feBlend mode="normal" in="SourceGraphic" in2="effect1_dropShadow_4968_460" result="shape"/>
</filter>
<filter id="filter1_d_4968_460" x="74" y="70" width="82" height="73" filterUnits="userSpaceOnUse" color-interpolation-filters="sRGB">
<feFlood flood-opacity="0" result="BackgroundImageFix"/>
<feColorMatrix in="SourceAlpha" type="matrix" values="0 0 0 0 0 0 0 0 0 0 0 0 0 0 0 0 0 0 127 0" result="hardAlpha"/>
<feOffset dy="4"/>
<feGaussianBlur stdDeviation="8"/>
<feColorMatrix type="matrix" values="0 0 0 0 0.482733 0 0 0 0 0.482733 0 0 0 0 0.482733 0 0 0 0.27 0"/>
<feBlend mode="normal" in2="BackgroundImageFix" result="effect1_dropShadow_4968_460"/>
<feBlend mode="normal" in="SourceGraphic" in2="effect1_dropShadow_4968_460" result="shape"/>
</filter>
<linearGradient id="paint0_linear_4968_460" x1="88.752" y1="48.2225" x2="101.434" y2="58.0242" gradientUnits="userSpaceOnUse">
<stop stop-color="#686868"/>
<stop offset="0.9942" stop-color="#424242"/>
</linearGradient>
<linearGradient id="paint1_linear_4968_460" x1="115" y1="82" x2="115" y2="123" gradientUnits="userSpaceOnUse">
<stop stop-color="#FAFAFA"/>
<stop offset="0.828125" stop-color="#F5F2EC"/>
</linearGradient>
<linearGradient id="paint2_linear_4968_460" x1="128.566" y1="60.958" x2="147.427" y2="81.5867" gradientUnits="userSpaceOnUse">
<stop stop-color="#E0D6C0"/>
<stop offset="0.9942" stop-color="white" stop-opacity="0"/>
</linearGradient>
</defs>
</svg>
