<svg width="28" height="28" viewBox="0 0 28 28" fill="none" xmlns="http://www.w3.org/2000/svg">
<path d="M2.0411 13C2.52205 7.17023 7.17023 2.52205 13 2.0411V3.25003C13 3.66424 13.3358 4.00003 13.75 4.00003C14.1642 4.00003 14.5 3.66424 14.5 3.25003V2.01025C20.5622 2.25872 25.4643 7.00449 25.959 13H24.75C24.3358 13 24 13.3358 24 13.75C24 14.1642 24.3358 14.5 24.75 14.5H25.9898C25.7345 20.7297 20.7297 25.7345 14.5 25.9898V24.75C14.5 24.3358 14.1642 24 13.75 24C13.3358 24 13 24.3358 13 24.75V25.959C7.00449 25.4643 2.25872 20.5622 2.01025 14.5H3.25003C3.66424 14.5 4.00003 14.1642 4.00003 13.75C4.00003 13.3358 3.66424 13 3.25003 13H2.0411ZM10.7021 14.4238C11.21 15.7455 12.2544 16.7899 13.5761 17.2978L18.5708 19.2169C18.975 19.3722 19.3722 18.9751 19.2168 18.5708L17.2977 13.5763C16.7898 12.2546 15.7454 11.2101 14.4237 10.7023L9.42908 8.78329C9.0248 8.62796 8.62768 9.02509 8.78302 9.42936L10.7021 14.4238Z" fill="#212121"/>
</svg>
