<svg width="230" height="160" viewBox="0 0 230 160" fill="none" xmlns="http://www.w3.org/2000/svg">
<path d="M179.508 86.4333C179.508 103.884 172.38 119.615 160.951 130.921C149.768 142.104 134.283 148.863 117.201 148.863C100.241 148.863 84.7568 141.981 73.4505 130.921C62.0214 119.615 54.8936 103.884 54.8936 86.4333C54.8936 51.9001 82.7905 24.0032 117.201 24.0032C151.611 24.0032 179.508 52.023 179.508 86.4333Z" fill="#242424"/>
<path d="M185.962 62.7524C188.744 62.7524 191 60.4965 191 57.7137C191 54.9309 188.744 52.675 185.962 52.675C183.179 52.675 180.923 54.9309 180.923 57.7137C180.923 60.4965 183.179 62.7524 185.962 62.7524Z" fill="#5C5C5C"/>
<path d="M172.928 25.8464C174.829 25.8464 176.369 24.3058 176.369 22.4054C176.369 20.505 174.829 18.9644 172.928 18.9644C171.028 18.9644 169.487 20.505 169.487 22.4054C169.487 24.3058 171.028 25.8464 172.928 25.8464Z" fill="#5C5C5C"/>
<path d="M56.859 45.3865C58.7594 45.3865 60.3 43.8459 60.3 41.9454C60.3 40.045 58.7594 38.5044 56.859 38.5044C54.9586 38.5044 53.418 40.045 53.418 41.9454C53.418 43.8459 54.9586 45.3865 56.859 45.3865Z" fill="#5C5C5C"/>
<path d="M44.3905 111.749C47.9199 111.749 50.781 108.888 50.781 105.359C50.781 101.83 47.9199 98.9685 44.3905 98.9685C40.8611 98.9685 38 101.83 38 105.359C38 108.888 40.8611 111.749 44.3905 111.749Z" fill="#5C5C5C"/>
<path d="M72.91 38.0317C72.4693 42.8602 77.1337 68.433 79.5211 80.6159C104.937 85.6083 156.077 94.6318 157.311 90.787C158.854 85.9809 163.922 44.5144 161.939 41.8319C139.461 20.2604 73.4609 31.9962 72.91 38.0317Z" fill="#6F6F6F"/>
<path d="M91.0901 52.3463C87.8287 55.4314 83.8547 72.5834 82.2754 80.7737C106.002 84.2629 153.52 90.2495 153.785 86.2829C154.115 81.3246 154.005 72.7303 153.785 69.9757C153.564 67.2211 152.242 54.2194 148.827 52.3463C136.376 47.4982 95.1669 48.4898 91.0901 52.3463Z" fill="url(#paint0_linear_6064_5184)"/>
<path d="M93.6835 56.5985C90.7672 59.1224 87.2139 73.154 85.8018 79.8543C107.017 82.7087 149.506 87.6062 149.742 84.3612C150.038 80.305 149.939 73.2741 149.742 71.0207C149.545 68.7672 149.788 56.6331 146.734 55.1007C135.601 51.1346 97.3288 53.4436 93.6835 56.5985Z" fill="#D1D1D1"/>
<path d="M69.8251 84.9607C70.6184 93.511 74.7099 105.932 76.6565 111.074C102.182 111.882 153.587 112.969 154.997 110.854C156.76 108.21 161.278 88.7069 160.947 86.5033C160.683 84.7403 159.001 84.0058 158.193 83.8588C159.037 83.9323 155.857 83.3961 136.376 80.6635C102.792 76.0799 78.6765 79.7086 70.8167 82.0959C70.376 82.1326 69.5606 82.757 69.8251 84.9607Z" fill="url(#paint1_linear_6064_5184)"/>
<path d="M107.728 124.737L102.219 124.958L101.668 118.567H111.695C112.047 123.679 109.197 124.811 107.728 124.737Z" fill="#4D4D4D"/>
<path d="M92.7434 133.331C85.0746 133.507 82.7901 124.884 82.6064 120.55L102.88 119.117C103.064 120.77 103.321 124.979 102.88 128.593C102.329 133.111 102.329 133.111 92.7434 133.331Z" fill="#636363"/>
<path d="M129.104 124.847C123.286 124.406 121.685 119.375 121.611 116.914C126.827 116.73 137.346 116.385 137.698 116.473C138.051 116.561 137.331 121.872 136.927 124.517C136.743 124.81 134.922 125.288 129.104 124.847Z" fill="#4D4D4D"/>
<path d="M152.683 127.602L154.006 116.914L136.376 114.82C136.082 115.151 135.517 117.399 135.605 123.745C135.715 131.678 134.723 133.001 143.538 133.111C150.59 133.199 152.573 129.475 152.683 127.602Z" fill="#636363"/>
<path d="M98.0316 89.2576C94.4176 92.0783 96.8196 103.949 98.4724 109.531L139.02 107.769C139.02 90.9103 136.596 88.5199 131.638 88.4863C120.803 88.4129 98.9131 88.4643 98.0316 89.2576Z" fill="#BBBBBB"/>
<ellipse cx="83.2668" cy="93.6651" rx="7.27214" ry="7.49251" transform="rotate(-30 83.2668 93.6651)" fill="#F5F2EC"/>
<ellipse cx="149.339" cy="93.6487" rx="5.84474" ry="6.02186" transform="rotate(-30 149.339 93.6487)" fill="#F5F2EC"/>
<path d="M103.982 108.65C118.086 108.298 146.881 108.062 159.515 107.989C159.956 107.986 161.498 109.311 161.939 109.532C162.38 109.752 163.261 110.413 162.71 111.956C162.27 113.19 162.894 113.792 163.261 113.939C163.445 114.747 163.173 116.517 160.617 117.134C157.421 117.906 88.6667 120.66 86.9037 120.66C85.1408 120.66 77.2075 120.44 76.5464 120.33C75.8853 120.219 75.8853 119.779 75.4446 119.338C74.6733 118.567 73.2409 118.126 72.5798 117.795C71.9187 117.465 71.9187 116.253 71.9187 114.931C71.9187 113.873 71.5514 112.947 71.3678 112.617C71.1474 112.323 70.7728 111.647 71.0372 111.295C72.9104 108.981 86.3528 109.091 103.982 108.65Z" fill="#D1D1D1"/>
<defs>
<linearGradient id="paint0_linear_6064_5184" x1="118.111" y1="48.1805" x2="118.111" y2="88.0073" gradientUnits="userSpaceOnUse">
<stop stop-color="#5C5C5C"/>
<stop offset="0.9964" stop-color="#4D4D4D"/>
</linearGradient>
<linearGradient id="paint1_linear_6064_5184" x1="115.339" y1="77.6857" x2="115.339" y2="112.446" gradientUnits="userSpaceOnUse">
<stop stop-color="#5C5C5C"/>
<stop offset="0.9964" stop-color="#4D4D4D"/>
</linearGradient>
</defs>
</svg>
