<svg xmlns="http://www.w3.org/2000/svg" width="231" height="160" fill="none" viewBox="0 0 231 160">
  <path fill="#ECEBEA" d="M115.414 144.8c34.267 0 62.048-27.801 62.048-62.2153s-27.903-62.2152-62.048-62.2152c-34.2674 0-62.0483 27.8009-62.0483 62.2152 0 34.4143 27.7809 62.2153 62.0483 62.2153Z"/>
  <path fill="#E8DFD3" d="M173.423 41.802c2.771 0 5.018-2.2481 5.018-5.0213s-2.247-5.0213-5.018-5.0213-5.017 2.2481-5.017 5.0213 2.246 5.0213 5.017 5.0213ZM180.766 22.2068c1.893 0 3.427-1.5353 3.427-3.4292 0-1.8939-1.534-3.4292-3.427-3.4292-1.892 0-3.426 1.5353-3.426 3.4292 0 1.8939 1.534 3.4292 3.426 3.4292ZM56.6704 41.6797c1.8925 0 3.4267-1.5353 3.4267-3.4292 0-1.8939-1.5342-3.4292-3.4267-3.4292-1.8926 0-3.4267 1.5353-3.4267 3.4292 0 1.8939 1.5341 3.4292 3.4267 3.4292ZM35.7426 107.814c3.5147 0 6.3639-2.852 6.3639-6.369 0-3.5172-2.8492-6.3685-6.3639-6.3685s-6.3639 2.8513-6.3639 6.3685c0 3.517 2.8492 6.369 6.3639 6.369Z"/>
  <mask id="mask0_3831_4590" width="125" height="137" x="53" y="8" maskUnits="userSpaceOnUse" style="mask-type:alpha">
    <path fill="#D9D9D9" d="M169.171 8H63.8463v40.2513c-6.5013 9.834-10.2875 21.6334-10.2875 34.3335 0 34.4142 27.8009 62.2152 62.0932 62.2152 34.291 0 62.092-27.801 62.092-62.2152 0-11.5196-3.128-22.2981-8.573-31.5411V8Z"/>
  </mask>
  <g filter="url(#filter0_d_3831_4590)" mask="url(#mask0_3831_4590)">
    <path fill="url(#paint0_linear_3831_4590)" d="M72.6163 147.616c-2.4704 0-4.4788-1.991-4.4999-4.461L67.0522 18.2759c0-3.0334 2.4801-5.3773 5.5113-5.3773h86.5275c3.031 0 5.511 2.4818 5.511 5.3773V142.239c0 3.033-2.48 5.377-5.511 5.377H72.6163Z"/>
  </g>
  <ellipse cx="115.552" cy="82.3245" fill="url(#paint1_linear_3831_4590)" rx="38.778" ry="46.3181"/>
  <path fill="#fff" fill-rule="evenodd" d="M115.465 51.5752a1.7992 1.7992 0 0 1 1.965.4035l14.486 14.7264c.689.7004.689 1.824 0 2.5244l-12.351 12.5564 12.351 12.5563c.689.7004.689 1.824 0 2.5244L117.43 111.593c-.512.521-1.288.68-1.965.404a1.8015 1.8015 0 0 1-1.118-1.666V87.0905l-12.592 12.8021c-.697.7084-1.8369.7184-2.5456.021-.7087-.6971-.7181-1.8367-.021-2.5455l15.1586-15.4113v-.3418L99.1884 66.2036c-.6971-.7087-.6877-1.8484.021-2.5455s1.8486-.6877 2.5456.021l12.592 12.8021V53.241c0-.7308.442-1.389 1.118-1.6658Zm2.482 33.6997 10.16 10.3295-10.16 10.3296V85.2749Zm0-6.9781v-20.659l10.16 10.3295-10.16 10.3295Z" clip-rule="evenodd"/>
  <defs>
    <linearGradient id="paint0_linear_3831_4590" x1="115.859" x2="115.859" y1="150.733" y2="11.4462" gradientUnits="userSpaceOnUse">
      <stop stop-color="#FDFEFF"/>
      <stop offset=".9964" stop-color="#F5F2EC"/>
    </linearGradient>
    <linearGradient id="paint1_linear_3831_4590" x1="114.833" x2="116.643" y1="21.9443" y2="91.1918" gradientUnits="userSpaceOnUse">
      <stop stop-color="#E1DAD0"/>
      <stop offset="1" stop-color="#CCC1B1"/>
    </linearGradient>
    <filter id="filter0_d_3831_4590" width="119.15" height="156.318" x="56.2522" y="8.3986" color-interpolation-filters="sRGB" filterUnits="userSpaceOnUse">
      <feFlood flood-opacity="0" result="BackgroundImageFix"/>
      <feColorMatrix in="SourceAlpha" result="hardAlpha" values="0 0 0 0 0 0 0 0 0 0 0 0 0 0 0 0 0 0 127 0"/>
      <feOffset dy="6.3"/>
      <feGaussianBlur stdDeviation="5.4"/>
      <feColorMatrix values="0 0 0 0 0.576471 0 0 0 0 0.501961 0 0 0 0 0.396078 0 0 0 0.17 0"/>
      <feBlend in2="BackgroundImageFix" result="effect1_dropShadow_3831_4590"/>
      <feBlend in="SourceGraphic" in2="effect1_dropShadow_3831_4590" result="shape"/>
    </filter>
  </defs>
</svg>
