<svg width="230" height="168" viewBox="0 0 230 168" fill="none" xmlns="http://www.w3.org/2000/svg">
<path d="M115.455 142C149.948 142 177.91 114.018 177.91 79.5C177.91 44.9822 149.948 17 115.455 17C80.9621 17 53 44.9822 53 79.5C53 114.018 80.9621 142 115.455 142Z" fill="#F0F0F0"/>
<g filter="url(#filter0_d_6030_1114)">
<path d="M172.426 42.6471V115.746C172.426 118.425 170.22 120.632 167.543 120.632H63.3683C60.6906 120.632 58.4854 118.425 58.4854 115.746V42.6471C58.4854 39.9674 60.6906 37.7606 63.3683 37.7606H167.543C170.22 37.7606 172.426 39.9674 172.426 42.6471Z" fill="url(#paint0_linear_6030_1114)"/>
</g>
<path d="M172.426 42.6471V46.1938H58.4854V42.6471C58.4854 39.9674 60.6906 37.7606 63.3683 37.7606H167.543C170.22 37.7606 172.426 39.9674 172.426 42.6471Z" fill="url(#paint1_linear_6030_1114)"/>
<path d="M63.6048 43.5141C64.4312 43.5141 65.1012 42.8437 65.1012 42.0166C65.1012 41.1896 64.4312 40.5192 63.6048 40.5192C62.7784 40.5192 62.1084 41.1896 62.1084 42.0166C62.1084 42.8437 62.7784 43.5141 63.6048 43.5141Z" fill="#F4F1EA"/>
<path opacity="0.6" d="M68.2513 43.5141C69.0777 43.5141 69.7477 42.8437 69.7477 42.0166C69.7477 41.1896 69.0777 40.5192 68.2513 40.5192C67.4248 40.5192 66.7549 41.1896 66.7549 42.0166C66.7549 42.8437 67.4248 43.5141 68.2513 43.5141Z" fill="#BAB7B4"/>
<path opacity="0.4" d="M72.9769 43.5141C73.8033 43.5141 74.4733 42.8437 74.4733 42.0166C74.4733 41.1896 73.8033 40.5192 72.9769 40.5192C72.1504 40.5192 71.4805 41.1896 71.4805 42.0166C71.4805 42.8437 72.1504 43.5141 72.9769 43.5141Z" fill="#949390"/>
<path d="M80.0489 64.927C80.3483 64.0057 81.6517 64.0057 81.9511 64.9271L83.0206 68.2188C83.1545 68.6309 83.5385 68.9098 83.9717 68.9098H87.4329C88.4016 68.9098 88.8044 70.1494 88.0207 70.7188L85.2205 72.7533C84.87 73.0079 84.7234 73.4593 84.8572 73.8713L85.9268 77.1631C86.2261 78.0844 85.1717 78.8506 84.388 78.2812L81.5878 76.2467C81.2373 75.9921 80.7627 75.9921 80.4122 76.2467L77.612 78.2812C76.8283 78.8506 75.7739 78.0844 76.0732 77.1631L77.1428 73.8713C77.2766 73.4593 77.13 73.0079 76.7795 72.7533L73.9793 70.7188C73.1956 70.1494 73.5984 68.9098 74.5671 68.9098H78.0283C78.4615 68.9098 78.8455 68.6309 78.9794 68.2188L80.0489 64.927Z" fill="#D3CCC3"/>
<path d="M102.049 64.927C102.348 64.0057 103.652 64.0057 103.951 64.9271L105.021 68.2188C105.155 68.6309 105.538 68.9098 105.972 68.9098H109.433C110.402 68.9098 110.804 70.1494 110.021 70.7188L107.22 72.7533C106.87 73.0079 106.723 73.4593 106.857 73.8713L107.927 77.1631C108.226 78.0844 107.172 78.8506 106.388 78.2812L103.588 76.2467C103.237 75.9921 102.763 75.9921 102.412 76.2467L99.612 78.2812C98.8283 78.8506 97.7739 78.0844 98.0732 77.1631L99.1428 73.8713C99.2766 73.4593 99.13 73.0079 98.7795 72.7533L95.9793 70.7188C95.1956 70.1494 95.5984 68.9098 96.5671 68.9098H100.028C100.462 68.9098 100.845 68.6309 100.979 68.2188L102.049 64.927Z" fill="#D3CCC3"/>
<path d="M124.049 64.927C124.348 64.0057 125.652 64.0057 125.951 64.9271L127.021 68.2188C127.155 68.6309 127.538 68.9098 127.972 68.9098H131.433C132.402 68.9098 132.804 70.1494 132.021 70.7188L129.22 72.7533C128.87 73.0079 128.723 73.4593 128.857 73.8713L129.927 77.1631C130.226 78.0844 129.172 78.8506 128.388 78.2812L125.588 76.2467C125.237 75.9921 124.763 75.9921 124.412 76.2467L121.612 78.2812C120.828 78.8506 119.774 78.0844 120.073 77.1631L121.143 73.8713C121.277 73.4593 121.13 73.0079 120.78 72.7533L117.979 70.7188C117.196 70.1494 117.598 68.9098 118.567 68.9098H122.028C122.462 68.9098 122.845 68.6309 122.979 68.2188L124.049 64.927Z" fill="#D3CCC3"/>
<path d="M146.049 64.927C146.348 64.0057 147.652 64.0057 147.951 64.9271L149.021 68.2188C149.155 68.6309 149.538 68.9098 149.972 68.9098H153.433C154.402 68.9098 154.804 70.1494 154.021 70.7188L151.22 72.7533C150.87 73.0079 150.723 73.4593 150.857 73.8713L151.927 77.1631C152.226 78.0844 151.172 78.8506 150.388 78.2812L147.588 76.2467C147.237 75.9921 146.763 75.9921 146.412 76.2467L143.612 78.2812C142.828 78.8506 141.774 78.0844 142.073 77.1631L143.143 73.8713C143.277 73.4593 143.13 73.0079 142.78 72.7533L139.979 70.7188C139.196 70.1494 139.598 68.9098 140.567 68.9098H144.028C144.462 68.9098 144.845 68.6309 144.979 68.2188L146.049 64.927Z" fill="#D3CCC3"/>
<g filter="url(#filter1_d_6030_1114)">
<path d="M101.103 92.9702C105.073 90.4252 109.756 89 114.744 89C128.386 89 139.482 99.9945 139.482 113.636C139.482 127.277 128.386 138.272 114.744 138.272C101.103 138.272 90.0067 127.277 90.0067 113.636C89.8031 104.983 94.2823 97.4495 101.103 92.9702Z" fill="url(#paint2_linear_6030_1114)"/>
</g>
<path d="M107.835 112.127C108.388 111.576 108.388 110.695 107.835 110.144C107.283 109.593 106.62 109.704 105.737 109.704C108.277 103.313 116.562 101.881 120.871 107.059C122.528 108.822 125.179 106.509 123.632 104.746C119.103 99.4574 111.039 98.7964 105.737 103.314C103.748 104.966 102.423 107.17 101.76 109.704C99.9922 109.704 99.6608 109.704 99.2189 110.144C98.6666 110.695 98.6666 111.576 99.2189 112.127C104.3 117.085 102.975 117.085 107.835 112.127Z" fill="white"/>
<path d="M129.487 115.323L126.394 112.128C125.842 111.577 124.958 111.577 124.406 112.128L121.202 115.323C120.65 115.874 120.65 116.755 121.202 117.306C121.755 117.857 122.418 117.747 123.301 117.747C120.76 124.247 112.254 125.569 107.946 120.06C107.283 119.179 106.179 119.069 105.295 119.73C102.533 122.043 109.051 127.111 114.795 127.111C120.429 127.111 125.621 123.255 126.947 117.636C128.714 117.636 129.046 117.636 129.487 117.196C130.04 116.865 130.04 115.984 129.487 115.323Z" fill="white"/>
<defs>
<filter id="filter0_d_6030_1114" x="36.4854" y="26.7606" width="157.94" height="126.871" filterUnits="userSpaceOnUse" color-interpolation-filters="sRGB">
<feFlood flood-opacity="0" result="BackgroundImageFix"/>
<feColorMatrix in="SourceAlpha" type="matrix" values="0 0 0 0 0 0 0 0 0 0 0 0 0 0 0 0 0 0 127 0" result="hardAlpha"/>
<feOffset dy="11"/>
<feGaussianBlur stdDeviation="11"/>
<feColorMatrix type="matrix" values="0 0 0 0 0.576471 0 0 0 0 0.501961 0 0 0 0 0.396078 0 0 0 0.37 0"/>
<feBlend mode="normal" in2="BackgroundImageFix" result="effect1_dropShadow_6030_1114"/>
<feBlend mode="normal" in="SourceGraphic" in2="effect1_dropShadow_6030_1114" result="shape"/>
</filter>
<filter id="filter1_d_6030_1114" x="70.2" y="79.1" width="89.0824" height="88.8717" filterUnits="userSpaceOnUse" color-interpolation-filters="sRGB">
<feFlood flood-opacity="0" result="BackgroundImageFix"/>
<feColorMatrix in="SourceAlpha" type="matrix" values="0 0 0 0 0 0 0 0 0 0 0 0 0 0 0 0 0 0 127 0" result="hardAlpha"/>
<feOffset dy="9.9"/>
<feGaussianBlur stdDeviation="9.9"/>
<feColorMatrix type="matrix" values="0 0 0 0 0.482733 0 0 0 0 0.482733 0 0 0 0 0.482733 0 0 0 0.27 0"/>
<feBlend mode="normal" in2="BackgroundImageFix" result="effect1_dropShadow_6030_1114"/>
<feBlend mode="normal" in="SourceGraphic" in2="effect1_dropShadow_6030_1114" result="shape"/>
</filter>
<linearGradient id="paint0_linear_6030_1114" x1="115.418" y1="35.8437" x2="115.418" y2="121.525" gradientUnits="userSpaceOnUse">
<stop stop-color="#FDFEFF"/>
<stop offset="0.9964" stop-color="#F5F2EC"/>
</linearGradient>
<linearGradient id="paint1_linear_6030_1114" x1="167.906" y1="37.7606" x2="62.1924" y2="42.7334" gradientUnits="userSpaceOnUse">
<stop stop-color="#606060"/>
<stop offset="1" stop-color="#7B7B7B"/>
</linearGradient>
<linearGradient id="paint2_linear_6030_1114" x1="137.519" y1="89.0001" x2="91.5089" y2="89.161" gradientUnits="userSpaceOnUse">
<stop stop-color="#606060"/>
<stop offset="1" stop-color="#7B7B7B"/>
</linearGradient>
</defs>
</svg>
