<svg width="28" height="28" viewBox="0 0 28 28" fill="none" xmlns="http://www.w3.org/2000/svg">
<path d="M3.73248 15.7699C2.75617 14.7935 2.75617 13.2106 3.73248 12.2343L12.2346 3.73223C13.2109 2.75592 14.7938 2.75592 15.7701 3.73223L24.2722 12.2343C25.2485 13.2106 25.2485 14.7935 24.2722 15.7699L15.7701 24.272C14.7938 25.2483 13.2109 25.2483 12.2346 24.272L3.73248 15.7699ZM4.79314 13.295C4.40261 13.6855 4.40261 14.3187 4.79314 14.7092L13.2952 23.2113C13.6858 23.6018 14.3189 23.6018 14.7094 23.2113L23.2115 14.7092C23.6021 14.3187 23.6021 13.6855 23.2115 13.295L14.7094 4.79289C14.3189 4.40237 13.6858 4.40237 13.2952 4.79289L4.79314 13.295Z" fill="#212121"/>
<path d="M13.293 7.63607C13.6835 7.24554 14.3167 7.24554 14.7072 7.63607L20.364 13.2929C20.7546 13.6834 20.7546 14.3166 20.364 14.7071L14.7072 20.364C14.3167 20.7545 13.6835 20.7545 13.293 20.364L7.63611 14.7071C7.24559 14.3166 7.24559 13.6834 7.63611 13.2929L13.293 7.63607Z" fill="#212121"/>
</svg>
