<svg width="20" height="20" viewBox="0 0 20 20" fill="none" xmlns="http://www.w3.org/2000/svg">
<path d="M2.58586 8.58588C1.80471 9.36683 1.80471 10.633 2.58586 11.414L8.58753 17.4141C9.36867 18.1951 10.6352 18.1951 11.4163 17.4141L17.418 11.414C18.1991 10.633 18.1991 9.36683 17.418 8.58588L11.4163 2.58571C10.6352 1.80476 9.36867 1.80476 8.58752 2.58571L2.58586 8.58588ZM10.7071 6.46443L13.5355 9.29286C13.9261 9.68338 13.9261 10.3165 13.5355 10.7071L10.7071 13.5355C10.3166 13.926 9.68342 13.926 9.29289 13.5355L6.46447 10.7071C6.07394 10.3165 6.07394 9.68338 6.46447 9.29286L9.29289 6.46443C9.68342 6.07391 10.3166 6.07391 10.7071 6.46443Z" fill="#212121"/>
</svg>
