<svg width="32" height="32" viewBox="0 0 32 32" fill="none" xmlns="http://www.w3.org/2000/svg">
<path d="M3.87868 13.88C2.70711 15.0516 2.70711 16.9511 3.87868 18.1227L13.88 28.124C15.0516 29.2956 16.9511 29.2956 18.1227 28.124L28.124 18.1227C29.2956 16.9511 29.2956 15.0516 28.124 13.88L18.1227 3.87868C16.9511 2.70711 15.0516 2.70711 13.88 3.87868L3.87868 13.88ZM16.7071 8.22176L23.7782 15.2928C24.1687 15.6833 24.1687 16.3165 23.7782 16.707L16.7071 23.7781C16.3166 24.1686 15.6834 24.1686 15.2929 23.7781L8.22183 16.707C7.8313 16.3165 7.8313 15.6833 8.22183 15.2928L15.2929 8.22176C15.6834 7.83123 16.3166 7.83123 16.7071 8.22176Z" fill="#212121"/>
</svg>
