<svg width="28" height="28" viewBox="0 0 28 28" fill="none" xmlns="http://www.w3.org/2000/svg">
<path d="M3.73248 12.2343C2.75617 13.2106 2.75617 14.7935 3.73248 15.7699L12.2346 24.272C13.2109 25.2483 14.7938 25.2483 15.7701 24.272L24.2722 15.7699C25.2485 14.7935 25.2485 13.2106 24.2722 12.2343L15.7701 3.73223C14.7938 2.75592 13.2109 2.75592 12.2346 3.73223L3.73248 12.2343ZM14.7072 7.63582L20.364 13.2927C20.7545 13.6832 20.7545 14.3164 20.364 14.7069L14.7072 20.3637C14.3166 20.7543 13.6835 20.7543 13.293 20.3637L7.6361 14.7069C7.24558 14.3164 7.24558 13.6832 7.6361 13.2927L13.293 7.63582C13.6835 7.24529 14.3166 7.24529 14.7072 7.63582Z" fill="#212121"/>
</svg>
