<svg width="48" height="48" viewBox="0 0 48 48" fill="none" xmlns="http://www.w3.org/2000/svg">
<path d="M24.7071 13.3936C24.3166 13.0031 23.6834 13.0031 23.2929 13.3936L13.3934 23.2931C13.0029 23.6836 13.0029 24.3168 13.3934 24.7073L23.2929 34.6068C23.6834 34.9974 24.3166 34.9974 24.7071 34.6068L34.6066 24.7073C34.9971 24.3168 34.9971 23.6836 34.6066 23.2931L24.7071 13.3936Z" fill="#212121"/>
<path fill-rule="evenodd" clip-rule="evenodd" d="M5.02513 21.5249C3.65829 22.8917 3.65829 25.1078 5.02513 26.4746L21.5249 42.9743C22.8917 44.3412 25.1078 44.3412 26.4746 42.9743L42.9743 26.4746C44.3412 25.1078 44.3412 22.8917 42.9743 21.5249L26.4746 5.02513C25.1078 3.65829 22.8917 3.65829 21.5249 5.02513L5.02513 21.5249ZM6.79289 24.7068C6.40237 24.3163 6.40237 23.6832 6.79289 23.2926L23.2926 6.79289C23.6832 6.40237 24.3163 6.40237 24.7068 6.79289L41.2066 23.2926C41.5971 23.6832 41.5971 24.3163 41.2066 24.7068L24.7068 41.2066C24.3163 41.5971 23.6832 41.5971 23.2926 41.2066L6.79289 24.7068Z" fill="#212121"/>
</svg>
