<svg width="24" height="24" viewBox="0 0 24 24" fill="none" xmlns="http://www.w3.org/2000/svg">
<path d="M2.65901 10.4106C1.78033 11.2893 1.78033 12.7139 2.65901 13.5926L10.4106 21.3442C11.2893 22.2229 12.7139 22.2229 13.5926 21.3442L21.3442 13.5926C22.2229 12.7139 22.2229 11.2893 21.3442 10.4106L13.5926 2.65901C12.7139 1.78033 11.2893 1.78033 10.4106 2.65901L2.65901 10.4106ZM12.707 7.05037L16.9496 11.293C17.3401 11.6835 17.3401 12.3167 16.9496 12.7072L12.707 16.9499C12.3165 17.3404 11.6833 17.3404 11.2928 16.9499L7.05013 12.7072C6.65961 12.3167 6.65961 11.6835 7.05013 11.293L11.2928 7.05037C11.6833 6.65984 12.3165 6.65984 12.707 7.05037Z" fill="#212121"/>
</svg>
