<svg width="16" height="16" viewBox="0 0 16 16" fill="none" xmlns="http://www.w3.org/2000/svg">
<path d="M1.58562 6.56902C0.804468 7.34998 0.80447 8.61615 1.58562 9.3971L6.57017 14.3804C7.35132 15.1614 8.61781 15.1614 9.39895 14.3804L14.3835 9.3971C15.1647 8.61615 15.1647 7.34997 14.3835 6.56902L9.39895 1.58571C8.61781 0.804761 7.35132 0.804763 6.57017 1.58571L1.58562 6.56902ZM8.53551 5.87849L9.94972 7.29271C10.3402 7.68323 10.3402 8.3164 9.94972 8.70692L8.53551 10.1211C8.14498 10.5117 7.51182 10.5117 7.12129 10.1211L5.70708 8.70692C5.31656 8.3164 5.31656 7.68323 5.70708 7.29271L7.12129 5.87849C7.51182 5.48797 8.14498 5.48797 8.53551 5.87849Z" fill="#212121"/>
</svg>
