<svg width="24" height="24" viewBox="0 0 24 24" fill="none" xmlns="http://www.w3.org/2000/svg">
<path d="M2.65925 13.5926C1.78057 12.7139 1.78057 11.2893 2.65925 10.4106L10.4109 2.65901C11.2895 1.78033 12.7142 1.78033 13.5929 2.65901L21.3445 10.4106C22.2231 11.2893 22.2231 12.7139 21.3445 13.5926L13.5929 21.3442C12.7142 22.2229 11.2896 22.2229 10.4109 21.3442L2.65925 13.5926ZM3.71991 11.4713C3.42702 11.7642 3.42702 12.2391 3.71991 12.5319L11.4715 20.2836C11.7644 20.5765 12.2393 20.5765 12.5322 20.2836L20.2838 12.5319C20.5767 12.2391 20.5767 11.7642 20.2838 11.4713L12.5322 3.71967C12.2393 3.42678 11.7644 3.42678 11.4715 3.71967L3.71991 11.4713Z" fill="#212121"/>
<path d="M11.293 7.05025C11.6835 6.65973 12.3167 6.65973 12.7072 7.05025L16.9499 11.2929C17.3404 11.6834 17.3404 12.3166 16.9499 12.7071L12.7072 16.9497C12.3167 17.3403 11.6835 17.3403 11.293 16.9497L7.05037 12.7071C6.65984 12.3166 6.65984 11.6834 7.05037 11.2929L11.293 7.05025Z" fill="#212121"/>
</svg>
