<svg width="16" height="16" viewBox="0 0 16 16" fill="none" xmlns="http://www.w3.org/2000/svg">
<path d="M1.58562 9.3971C0.80447 8.61615 0.804468 7.34998 1.58561 6.56902L6.57017 1.58571C7.35132 0.804763 8.61781 0.804761 9.39895 1.58571L14.3835 6.56902C15.1647 7.34997 15.1647 8.61615 14.3835 9.3971L9.39895 14.3804C8.61781 15.1614 7.35132 15.1614 6.57017 14.3804L1.58562 9.3971ZM2.29281 7.27604C1.90224 7.66652 1.90224 8.2996 2.29281 8.69008L7.27737 13.6734C7.66794 14.0639 8.30119 14.0639 8.69176 13.6734L13.6763 8.69008C14.0669 8.2996 14.0669 7.66652 13.6763 7.27604L8.69176 2.29273C8.30119 1.90226 7.66794 1.90226 7.27737 2.29273L2.29281 7.27604Z" fill="#212121"/>
<path d="M7.29287 5.8788C7.68339 5.48827 8.31656 5.48827 8.70708 5.8788L10.1213 7.29301C10.5118 7.68354 10.5118 8.3167 10.1213 8.70723L8.70708 10.1214C8.31656 10.512 7.68339 10.512 7.29287 10.1214L5.87866 8.70723C5.48813 8.3167 5.48813 7.68354 5.87866 7.29301L7.29287 5.8788Z" fill="#212121"/>
</svg>
