<svg width="20" height="20" viewBox="0 0 20 20" fill="none" xmlns="http://www.w3.org/2000/svg">
<path d="M11.0003 5.48714C11.0003 4.66804 10.0695 4.19635 9.40894 4.68074L3.52935 8.99243C2.84829 9.49188 2.84829 10.509 3.52935 11.0084L9.40894 15.3201C10.0695 15.8045 11.0003 15.3328 11.0003 14.5137V11.3538L16.4089 15.3201C17.0695 15.8045 18.0003 15.3328 18.0003 14.5137V5.48714C18.0003 4.66804 17.0695 4.19635 16.4089 4.68074L11.0003 8.64707V5.48714Z" fill="#212121"/>
<path d="M2.48828 4C2.76442 4 2.98828 4.22386 2.98828 4.5V15.5C2.98828 15.7761 2.76442 16 2.48828 16C2.21214 16 1.98828 15.7761 1.98828 15.5V4.5C1.98828 4.22386 2.21214 4 2.48828 4Z" fill="#212121"/>
</svg>
