<svg width="20" height="20" viewBox="0 0 20 20" fill="none" xmlns="http://www.w3.org/2000/svg">
<path d="M3.48828 4C3.76442 4 3.98828 4.22386 3.98828 4.5V15.5C3.98828 15.7761 3.76442 16 3.48828 16C3.21214 16 2.98828 15.7761 2.98828 15.5V4.5C2.98828 4.22386 3.21214 4 3.48828 4Z" fill="#212121"/>
<path d="M11.0001 6.46458C11.0001 5.6539 10.0861 5.18013 9.42366 5.64743L4.41185 9.18284C3.84709 9.58123 3.84709 10.4187 4.41185 10.8171L9.42366 14.3525C10.0861 14.8198 11.0001 14.3461 11.0001 13.5354V11.2321L15.4237 14.3525C16.0861 14.8198 17.0001 14.3461 17.0001 13.5354V6.46458C17.0001 5.6539 16.0861 5.18013 15.4237 5.64743L11.0001 8.76789V6.46458Z" fill="#212121"/>
</svg>
