<svg width="24" height="24" viewBox="0 0 24 24" fill="none" xmlns="http://www.w3.org/2000/svg">
<path d="M16.1421 5.98128C15.8127 5.7301 15.7494 5.25947 16.0006 4.93011C16.2517 4.60075 16.7224 4.53738 17.0517 4.78856C19.2082 6.43321 20.5 8.98526 20.5 11.75C20.5 16.3403 16.9654 20.105 12.4694 20.4708L13.2197 21.2197L13.2923 21.3038C13.5101 21.5974 13.4859 22.0141 13.2197 22.2803C12.9268 22.5732 12.4519 22.5732 12.159 22.2803L10.159 20.2803L10.0864 20.1962C9.86854 19.9026 9.89274 19.4859 10.159 19.2197L10.492 18.8867C10.9006 18.9583 11.3211 18.9956 11.7502 18.9956C12.0199 18.9956 12.2862 18.9809 12.5483 18.9521L12.5433 18.9571C16.1742 18.562 19 15.486 19 11.75C19 9.45821 17.9304 7.34515 16.1421 5.98128Z" fill="#212121"/>
<path d="M10.2803 2.28033C9.98744 1.98744 9.98744 1.51256 10.2803 1.21967C10.5732 0.926777 11.0481 0.926777 11.341 1.21967L13.341 3.21967C13.6339 3.51256 13.6339 3.98744 13.341 4.28033L13.0077 4.61361C12.5993 4.54215 12.1791 4.50488 11.7502 4.50488C11.4798 4.50488 11.2129 4.5197 10.9502 4.54856L10.9557 4.54301C7.32532 4.93861 4.5 8.01436 4.5 11.75C4.5 13.9422 5.47793 15.9729 7.1361 17.3426C7.45545 17.6064 7.50048 18.0792 7.23669 18.3985C6.97289 18.7179 6.50016 18.7629 6.18081 18.4991C4.18126 16.8474 3 14.3945 3 11.75C3 7.16008 6.53409 3.3956 11.0296 3.02923L10.2803 2.28033Z" fill="#212121"/>
<path d="M11.7109 10.4164L12.3975 12.2718H11.0379L11.7109 10.4164Z" fill="#212121"/>
<path d="M11.75 17.75C15.0637 17.75 17.75 15.0637 17.75 11.75C17.75 8.43629 15.0637 5.75 11.75 5.75C8.43629 5.75 5.75 8.43629 5.75 11.75C5.75 15.0637 8.43629 17.75 11.75 17.75ZM13.1555 14.25L12.7204 13.1143H10.7286L10.3173 14.25H9.25L11.1909 9.25H12.2548L14.25 14.25H13.1555Z" fill="#212121"/>
</svg>
