<svg width="20" height="20" viewBox="0 0 20 20" fill="none" xmlns="http://www.w3.org/2000/svg">
<path d="M10.9142 3.97487C11.1095 3.77961 11.1095 3.46303 10.9142 3.26777L8.79289 1.14645C8.59763 0.951185 8.28104 0.951184 8.08578 1.14645C7.89052 1.34171 7.89052 1.65829 8.08578 1.85355L9.08264 2.85041C7.30518 2.94895 5.55488 3.67738 4.19671 5.03554C1.26776 7.96447 1.26776 12.7132 4.19671 15.6421C4.45359 15.899 4.7247 16.1335 5.00757 16.3456C5.22852 16.5113 5.54191 16.4664 5.70756 16.2455C5.8732 16.0246 5.82838 15.7112 5.60743 15.5455C5.36235 15.3618 5.1271 15.1583 4.90382 14.935C2.3654 12.3966 2.3654 8.28106 4.90382 5.74265C6.18997 4.4565 7.88002 3.82208 9.5664 3.83918C10.0002 3.84358 10.4737 3.89858 10.8976 3.9915L10.9142 3.97487ZM8.08578 16.7028L8.10167 16.6869C8.5102 16.7765 8.93311 16.8276 9.36644 16.8364L9.35963 16.8432C9.38379 16.8398 9.40849 16.8382 9.4336 16.8385C11.12 16.8556 12.81 16.2212 14.0962 14.935C16.6346 12.3966 16.6346 8.28105 14.0962 5.74264C13.8729 5.51936 13.6377 5.3159 13.3926 5.13216C13.1716 4.96651 13.1268 4.65312 13.2924 4.43217C13.4581 4.21123 13.7715 4.1664 13.9924 4.33205C14.2753 4.54413 14.5464 4.77865 14.8033 5.03553C17.7322 7.96446 17.7322 12.7132 14.8033 15.6421C13.4451 17.0003 11.6948 17.7287 9.91736 17.8273L10.9142 18.8241C11.1095 19.0194 11.1095 19.336 10.9142 19.5312C10.719 19.7265 10.4024 19.7265 10.2071 19.5312L8.08578 17.4099C7.89052 17.2146 7.89052 16.8981 8.08578 16.7028ZM4.5 10.3389C4.5 7.57744 6.73858 5.33887 9.5 5.33887C12.2614 5.33887 14.5 7.57744 14.5 10.3389C14.5 13.1003 12.2614 15.3389 9.5 15.3389C6.73858 15.3389 4.5 13.1003 4.5 10.3389ZM9.5 6.33887C7.29086 6.33887 5.5 8.12973 5.5 10.3389C5.5 12.548 7.29086 14.3389 9.5 14.3389C11.7091 14.3389 13.5 12.548 13.5 10.3389C13.5 8.12973 11.7091 6.33887 9.5 6.33887Z" fill="#212121"/>
<path d="M11.5 12.3398H10.6244L10.2763 11.4312H8.68287L8.35384 12.3398H7.5L9.05269 8.33984H9.90381L11.5 12.3398ZM10.018 10.7573L9.46873 9.27299L8.93032 10.7573H10.018Z" fill="#212121"/>
</svg>
