<svg width="20" height="20" viewBox="0 0 20 20" fill="none" xmlns="http://www.w3.org/2000/svg">
<path d="M10.9142 3.26777C11.1095 3.46303 11.1095 3.77961 10.9142 3.97487L10.8976 3.9915C10.4737 3.89858 10.0002 3.84358 9.5664 3.83918C7.88002 3.82208 6.18997 4.4565 4.90382 5.74265C2.3654 8.28106 2.3654 12.3966 4.90382 14.935C5.1271 15.1583 5.36235 15.3618 5.60743 15.5455C5.82838 15.7112 5.8732 16.0246 5.70756 16.2455C5.54191 16.4664 5.22852 16.5113 5.00757 16.3456C4.7247 16.1335 4.45359 15.899 4.19671 15.6421C1.26776 12.7132 1.26776 7.96447 4.19671 5.03554C5.55488 3.67738 7.30518 2.94895 9.08264 2.85041L8.08578 1.85355C7.89052 1.65829 7.89052 1.34171 8.08578 1.14645C8.28104 0.951184 8.59763 0.951185 8.79289 1.14645L10.9142 3.26777Z" fill="#212121"/>
<path d="M8.10167 16.6869L8.08578 16.7028C7.89052 16.8981 7.89052 17.2146 8.08578 17.4099L10.2071 19.5312C10.4024 19.7265 10.719 19.7265 10.9142 19.5312C11.1095 19.336 11.1095 19.0194 10.9142 18.8241L9.91736 17.8273C11.6948 17.7287 13.4451 17.0003 14.8033 15.6421C17.7322 12.7132 17.7322 7.96446 14.8033 5.03553C14.5464 4.77865 14.2753 4.54413 13.9924 4.33205C13.7715 4.1664 13.4581 4.21123 13.2924 4.43217C13.1268 4.65312 13.1716 4.96651 13.3926 5.13216C13.6377 5.3159 13.8729 5.51936 14.0962 5.74264C16.6346 8.28105 16.6346 12.3966 14.0962 14.935C12.81 16.2212 11.12 16.8556 9.4336 16.8385C9.40849 16.8382 9.38379 16.8398 9.35963 16.8432L9.36644 16.8364C8.93311 16.8276 8.5102 16.7765 8.10167 16.6869Z" fill="#212121"/>
<path d="M9.46873 9.27299L10.018 10.7573H8.93032L9.46873 9.27299Z" fill="#212121"/>
<path d="M9.5 15.3389C12.2614 15.3389 14.5 13.1003 14.5 10.3389C14.5 7.57744 12.2614 5.33887 9.5 5.33887C6.73858 5.33887 4.5 7.57744 4.5 10.3389C4.5 13.1003 6.73858 15.3389 9.5 15.3389ZM10.6244 12.3398L10.2763 11.4312H8.68287L8.35384 12.3398H7.5L9.05269 8.33984H9.90381L11.5 12.3398H10.6244Z" fill="#212121"/>
</svg>
