<svg width="163" height="160" viewBox="0 0 163 160" fill="none" xmlns="http://www.w3.org/2000/svg">
<path d="M83.9822 132.7C111.982 132.7 134.682 110 134.682 81.9C134.682 53.8 111.882 31.1 83.9822 31.1C55.9822 31.1 33.2822 53.8 33.2822 81.9C33.2822 110 55.9822 132.7 83.9822 132.7Z" fill="#F0F0F0"/>
<path d="M131.382 48.6C133.647 48.6 135.482 46.7644 135.482 44.5C135.482 42.2357 133.647 40.4 131.382 40.4C129.118 40.4 127.282 42.2357 127.282 44.5C127.282 46.7644 129.118 48.6 131.382 48.6Z" fill="#E6DED1"/>
<path d="M137.382 32.6C138.928 32.6 140.182 31.3464 140.182 29.8C140.182 28.2536 138.928 27 137.382 27C135.836 27 134.582 28.2536 134.582 29.8C134.582 31.3464 135.836 32.6 137.382 32.6Z" fill="#E6DED1"/>
<path d="M35.9821 48.5C37.5285 48.5 38.7821 47.2464 38.7821 45.7C38.7821 44.1536 37.5285 42.9 35.9821 42.9C34.4357 42.9 33.1821 44.1536 33.1821 45.7C33.1821 47.2464 34.4357 48.5 35.9821 48.5Z" fill="#E6DED1"/>
<path d="M24.2 109.028C27.0719 109.028 29.4 106.7 29.4 103.828C29.4 100.956 27.0719 98.6281 24.2 98.6281C21.3281 98.6281 19 100.956 19 103.828C19 106.7 21.3281 109.028 24.2 109.028Z" fill="#E6DED1"/>
<g filter="url(#filter0_d_3841_34863)">
<path d="M137.941 104.529H122.56C121.832 104.529 121.209 104.061 121.001 103.438C119.494 98.969 116.168 97.8778 108.114 94.708C107.646 94.5002 107.594 93.8766 108.062 93.6168C110.348 92.4992 110.002 91.5306 109.985 85.0792C109.984 84.7919 109.853 84.5203 109.725 84.2634V84.2634C109.269 83.58 108.933 82.7768 108.787 81.9588C108.749 81.7445 108.62 81.5545 108.425 81.4571V81.4571C108.291 81.3901 108.137 81.3772 107.988 81.3938C106.668 81.5406 106.741 79.8874 106.347 76.8327C106.217 75.7066 106.34 75.3386 106.715 75.1269C106.874 75.0373 107.03 74.9371 107.141 74.7925V74.7925C107.356 74.5128 107.398 74.1366 107.262 73.8113C104.879 68.1443 105.719 64.288 107.889 62.3665C108.454 61.866 108.403 60.2471 108.174 59.5276V59.5276C107.896 58.6528 108.827 58.7896 109.737 58.9168C111.795 59.2048 115.086 59.5788 116.532 59.2691C118.826 58.8018 122.092 59.1679 124.088 61.3325C124.987 62.3074 125.961 63.2557 127.027 64.0445C128.366 65.0356 128.97 66.2956 129.159 67.5832C129.51 70.3894 128.024 73.4373 127.638 74.7695C127.613 74.8567 127.626 74.9552 127.676 75.0312V75.0312C127.691 75.0544 127.717 75.072 127.741 75.0853C128.129 75.2966 128.271 75.6723 128.12 76.7807C127.962 78.1089 127.883 79.2226 127.716 80.0202C127.442 81.3365 125.775 82.126 125.106 83.2918V83.2918C124.934 83.5907 124.775 83.9114 124.745 84.2548C124.743 84.2745 124.742 84.2944 124.742 84.3154C124.69 84.783 124.69 85.6664 124.69 90.7588C124.69 91.3824 124.846 91.954 125.158 92.4216C125.466 92.9859 125.976 93.3982 126.589 93.6586C126.605 93.6654 126.622 93.6688 126.639 93.6688V93.6688C126.656 93.6688 126.673 93.6722 126.689 93.6788C130.314 95.1801 132.905 96.1647 134.823 96.9424C139.084 98.6572 139.811 99.1249 140.175 101.983C140.279 103.386 139.292 104.529 137.941 104.529Z" fill="url(#paint0_linear_3841_34863)"/>
</g>
<path d="M127.495 74.8573C127.651 74.0778 127.287 73.1425 126.975 72.467C126.923 72.363 126.871 72.2591 126.819 72.1032C125.624 69.661 122.87 68.6217 120.272 68.5178C113.621 68.154 112.997 69.4531 110.919 67.5305C111.542 68.5178 111.646 70.0247 110.607 71.9473C109.931 73.2984 108.58 73.87 107.385 74.2857C104.371 67.4265 105.878 63.1136 108.892 61.5547C107.905 59.3722 107.853 58.5928 107.853 58.5928C107.853 58.5928 114.244 59.684 116.427 59.2163C119.233 58.6447 123.494 59.3203 125.104 63.0097C127.755 64.0489 128.794 65.7637 129.054 67.5305C129.469 70.4404 127.807 73.6102 127.495 74.8573Z" fill="#676767"/>
<path opacity="0.1" d="M136.329 104.528C137.939 102.034 137.316 99.6957 134.718 96.9417C138.979 98.6564 139.706 99.1241 140.07 101.982C140.278 103.281 139.239 104.476 137.888 104.476H136.329V104.528Z" fill="#B7B4AF"/>
<path d="M125.053 92.4729V93.668H109.62V92.1091C109.983 91.2777 109.879 91.3297 109.879 84.6264C109.776 84.5225 109.672 84.3666 109.62 84.2627V83.8989C109.931 84.4705 110.399 84.9902 110.867 85.4059L115.699 88.7835C116.843 89.7188 118.453 89.7708 119.597 88.8354L124.117 84.7823C124.273 84.6264 124.429 84.5225 124.585 84.3666C124.533 84.8343 124.533 85.7176 124.533 90.81C124.585 91.3816 124.741 91.9532 125.053 92.4729Z" fill="url(#paint1_linear_3841_34863)"/>
<g filter="url(#filter1_d_3841_34863)">
<path d="M58.4354 92.9406C57.7762 92.9269 57.273 92.8841 56.8895 92.8286C56.0486 92.7069 55.6814 91.9751 55.6814 91.1253V90.6235C55.6814 89.1295 56.3755 87.7397 57.4367 86.688C58.4746 85.6595 59.3825 84.5445 60.0631 83.3093C61.0319 81.5508 62.9055 80.0102 63.5653 78.1139C63.7207 77.667 63.7828 77.1787 63.7357 76.6761C63.6837 75.9486 63.2161 75.2731 63.1641 74.4936C63.1641 74.1299 63.1641 73.7661 63.1641 73.4024C63.1641 73.3197 63.1641 73.2423 63.1624 73.1668C63.1551 72.8376 63.1065 72.5092 63.076 72.1814C63.0672 72.0861 63.0602 71.9908 63.0602 71.8955C62.9043 70.6484 62.5925 69.3493 61.7611 67.8423C59.6826 63.9451 55.5775 61.3469 50.9527 61.3469C50.0174 61.3469 49.082 61.4508 48.1987 61.6587C46.5358 62.0224 45.0289 62.7499 43.6779 63.7892C43.418 63.9971 43.1582 64.2049 42.8984 64.4128V64.4128C42.7759 64.5353 42.6255 64.6278 42.501 64.7484C41.1364 66.0704 40.0651 67.7188 39.4688 69.5571C38.8453 71.4798 38.6894 73.4544 38.9492 75.429C38.9492 75.4809 38.9492 75.5329 38.9492 75.5849V75.5849C38.9492 75.6887 38.9544 75.793 38.9782 75.8941C39.0101 76.0298 39.0363 76.0785 38.986 76.1729C38.9117 76.3124 38.8114 76.4172 38.726 76.5502V76.5502C38.6603 76.6523 38.6069 76.781 38.5536 76.89C38.2833 77.4435 38.0991 78.1646 38.4296 79.0144C39.0198 80.6866 40.1685 80.5434 41.2591 81.3604C41.3612 81.4369 41.3632 81.6126 41.2356 81.6126V81.6126V81.6126C41.2012 81.6126 41.1669 81.6179 41.1341 81.6284L39.8845 82.0283C32.6354 84.2997 31.3641 91.605 37.6591 93.8285C37.9032 93.9147 37.9647 94.7128 37.754 94.8632V94.8632C35.2078 96.8378 33.597 99.8517 33.1813 102.814C33.0254 103.697 33.7529 104.528 34.6882 104.528H47.0555C47.3153 104.528 47.5751 104.321 47.679 104.061C48.8222 99.9037 51.4204 98.4487 56.8246 96.2662L59.9424 95.0191C60.462 94.8113 61.0336 94.6034 61.6572 94.3436C62.2288 94.1358 62.1768 93.3043 61.5532 93.1485C61.0819 93.0306 60.6105 92.9722 60.1391 92.9282C59.8356 92.8999 59.5301 92.9073 59.2256 92.9237C58.9131 92.9406 58.6497 92.9406 58.4354 92.9406ZM42.5866 87.6403C42.5866 87.5251 42.6045 87.4072 42.6409 87.2868C42.9207 86.3608 44.2019 86.5819 44.925 87.2246V87.2246C45.2887 87.5364 45.6525 87.8482 46.0682 88.16C46.328 88.3159 46.5878 88.5237 46.8476 88.7316C46.8623 88.7463 46.8771 88.761 46.8918 88.7745C46.9531 88.8309 47.0381 88.8672 47.1074 88.9134V88.9134C47.1768 88.9597 47.2114 89.0382 47.2114 89.1215V91.3702C47.2114 91.432 47.1354 91.4503 47.0753 91.4361V91.4361C47.0599 91.4324 47.0487 91.4283 47.0365 91.4184C46.7855 91.2157 46.5827 91.0141 46.38 90.8621C46.0162 90.6023 45.6525 90.3944 45.2887 90.1865V90.1865C45.0409 90.0213 44.7986 89.8454 44.5503 89.681C43.5106 88.9928 42.6331 88.3373 42.5866 87.6403Z" fill="url(#paint2_linear_3841_34863)"/>
</g>
<path d="M58.4354 92.9406C58.0197 94.4475 57.552 95.3828 57.552 95.3828L44.1455 93.2524L44.925 89.9267C45.0289 90.0306 45.1848 90.0826 45.2887 90.1346C45.6524 90.3424 46.0681 90.6022 46.3799 90.862C46.5878 91.0179 46.8476 91.1738 47.0555 91.4336C47.1074 91.4856 47.1594 91.5376 47.1594 91.5376V88.9914C47.0555 88.9394 47.0035 88.8874 46.9515 88.8355C49.134 89.9267 51.8361 90.4983 55.7333 88.2119C55.6814 88.2119 55.6814 88.2639 55.6294 88.2639V92.4209C55.6294 92.4209 55.9412 92.8886 58.4354 92.9406Z" fill="url(#paint3_linear_3841_34863)"/>
<path d="M63.0602 72.675C60.8258 73.4544 58.4355 73.7662 56.0452 73.5583C52.3038 73.2466 48.6664 71.7396 45.8604 69.2454C44.925 71.9475 42.5867 73.974 39.9366 75.1692C39.5728 75.3251 39.2091 75.481 38.8453 75.5849C38.8453 75.5329 38.8453 75.481 38.8453 75.481C38.5855 73.5064 38.7414 71.5318 39.365 69.6091C39.9885 67.6865 41.1317 65.9717 42.5867 64.6206C42.6387 64.5687 42.6906 64.5167 42.7946 64.4648C43.0544 64.2569 43.3142 64.0491 43.574 63.8412C44.925 62.8539 46.4839 62.1264 48.0948 61.7107C49.0301 61.5029 49.9135 61.3989 50.8489 61.3989C55.4736 61.3989 59.5787 63.9971 61.6572 67.8943C62.4367 69.4013 62.8004 70.7004 62.9563 71.8955C63.0602 72.1553 63.0602 72.4151 63.0602 72.675Z" fill="#676767"/>
<path d="M43.8857 86.0814C44.1975 86.4971 44.5613 86.8609 44.873 87.1726C44.5093 86.8609 44.1456 86.4971 43.8857 86.0814Z" fill="#3973F4"/>
<path d="M48.7703 99.2282C47.783 100.475 45.9123 100.527 44.3534 100.475C46.0163 98.8645 45.0809 93.6162 39.261 94.2397H39.2091C31.2067 92.7328 32.0901 84.4707 39.8326 82.0284L41.1317 81.6127C41.2356 81.6646 41.2876 81.7166 41.3396 81.8205C41.9631 83.4314 42.7945 84.7824 43.6779 85.8737C40.5082 88.5238 44.925 89.3552 47.0555 91.3818C48.9262 92.473 50.4851 97.0458 48.7703 99.2282Z" fill="#676767"/>
<path d="M43.8339 86.0814C43.7819 86.0295 43.73 85.9775 43.73 85.9255C43.73 85.9255 43.7819 86.0295 43.8339 86.0814Z" fill="#3973F4"/>
<g filter="url(#filter2_d_3841_34863)">
<path d="M118.037 106.919C118.297 108.841 116.79 110.608 114.815 110.608H53.9145C51.9399 110.608 50.433 108.841 50.6928 106.919C51.2644 102.917 52.1477 102.086 58.0716 99.6958L59.5265 99.1242C62.2806 98.0329 65.866 96.6819 70.6986 94.6553C71.7899 94.1877 72.6732 93.3562 73.1409 92.265C73.4007 91.6934 73.5566 91.0179 73.5566 90.3424V81.9569C73.5566 81.4973 73.3465 81.0883 73.1409 80.6772V80.6772C72.456 79.6727 71.9717 78.5077 71.7586 77.2528C71.7035 76.9286 71.5038 76.643 71.2058 76.5039V76.5039C71.0121 76.4135 70.7922 76.3988 70.5802 76.4264C68.5865 76.6855 68.7454 74.207 68.1524 69.661C67.9354 68.0114 68.1172 67.4498 68.698 67.1278C68.9402 66.9935 69.1756 66.8397 69.3399 66.6167V66.6167C69.6339 66.2177 69.6888 65.6899 69.4983 65.2324C65.994 56.8183 67.2071 51.1243 70.4011 48.339C71.2204 47.6245 71.1933 45.2824 70.873 44.2436V44.2436C70.4734 42.9475 71.8493 43.1101 73.1932 43.2937C76.225 43.7078 81.0438 44.2467 83.1698 43.8352C86.7754 43.105 92.1046 43.7778 94.9326 47.6492C95.7148 48.72 96.6743 49.6761 97.8112 50.3586C100.35 51.8825 101.422 53.9287 101.721 56.1505C102.277 60.2945 99.982 64.8316 99.4253 66.7506C99.396 66.8516 99.4013 66.9732 99.4505 67.0662V67.0662C99.4724 67.1076 99.508 67.1251 99.5491 67.1477C100.124 67.4637 100.311 68.0051 100.11 69.661C99.8726 71.5374 99.7607 73.1183 99.5437 74.2813C99.1597 76.3399 96.6321 77.6307 95.5931 79.449V79.449C95.3835 79.8157 95.2165 80.2083 95.1595 80.6268C95.1487 80.7062 95.1375 80.7881 95.1214 80.8851C95.0175 81.5606 95.0694 82.9116 95.0694 90.3424C95.0694 91.2258 95.3292 92.1091 95.7969 92.7846C96.3054 93.5475 97.0131 94.2107 97.871 94.5796C97.9081 94.5956 97.9433 94.5918 97.9794 94.6099V94.6099C98.0154 94.6279 98.0509 94.6635 98.0881 94.679C103.411 96.9 107.239 98.3486 110.035 99.4359C116.426 101.93 117.414 102.71 118.037 106.919Z" fill="url(#paint4_linear_3841_34863)"/>
</g>
<path d="M99.4344 66.9069C99.6423 65.7637 99.1226 64.3607 98.7069 63.3734C98.655 63.2175 98.551 63.0617 98.4991 62.8538C96.6804 59.2164 92.6792 57.7614 88.8339 57.5535C79.0128 57.0339 78.1295 58.9046 75.0636 56.0986C75.999 57.5535 76.1029 59.788 74.6479 62.594C73.6087 64.5686 71.6341 65.452 69.9193 66.0236C65.4504 55.8907 67.6848 49.5512 72.1017 47.3168C70.6468 44.0431 70.5428 42.8999 70.5428 42.8999C70.5428 42.8999 79.9482 44.4588 83.1699 43.8352C87.275 43.0038 93.6145 43.9911 95.9529 49.4473C99.8501 51.0062 101.357 53.4484 101.721 56.1505C102.344 60.3596 99.9021 65.0363 99.4344 66.9069Z" fill="#676767"/>
<path opacity="0.1" d="M112.529 110.556C114.919 106.919 113.984 103.489 110.139 99.4359C116.426 101.93 117.465 102.71 118.037 106.867C118.297 108.789 116.79 110.556 114.815 110.556H112.529Z" fill="#B7B4AF"/>
<path d="M95.8489 92.7847V94.5514H73.1929V92.265C73.4527 91.6934 73.6086 91.0179 73.6086 90.3424V81.2488C73.4527 81.041 73.2968 80.8851 73.1929 80.6772V80.1576C73.6605 80.989 74.2841 81.7685 75.0635 82.392L82.1825 87.3805C83.8453 88.7835 86.2357 88.8355 87.9504 87.4844L94.6017 81.5086C94.8096 81.3008 95.0694 81.0929 95.2773 80.8851C95.1733 81.5606 95.2253 82.9116 95.2253 90.3424C95.1733 91.2258 95.4332 92.0572 95.8489 92.7847Z" fill="url(#paint5_linear_3841_34863)"/>
<defs>
<filter id="filter0_d_3841_34863" x="83.8247" y="47.8234" width="78.3579" height="89.7057" filterUnits="userSpaceOnUse" color-interpolation-filters="sRGB">
<feFlood flood-opacity="0" result="BackgroundImageFix"/>
<feColorMatrix in="SourceAlpha" type="matrix" values="0 0 0 0 0 0 0 0 0 0 0 0 0 0 0 0 0 0 127 0" result="hardAlpha"/>
<feOffset dy="11"/>
<feGaussianBlur stdDeviation="11"/>
<feColorMatrix type="matrix" values="0 0 0 0 0.576471 0 0 0 0 0.501961 0 0 0 0 0.396078 0 0 0 0.37 0"/>
<feBlend mode="normal" in2="BackgroundImageFix" result="effect1_dropShadow_3841_34863"/>
<feBlend mode="normal" in="SourceGraphic" in2="effect1_dropShadow_3841_34863" result="shape"/>
</filter>
<filter id="filter1_d_3841_34863" x="11.1602" y="50.3469" width="74.5908" height="87.1815" filterUnits="userSpaceOnUse" color-interpolation-filters="sRGB">
<feFlood flood-opacity="0" result="BackgroundImageFix"/>
<feColorMatrix in="SourceAlpha" type="matrix" values="0 0 0 0 0 0 0 0 0 0 0 0 0 0 0 0 0 0 127 0" result="hardAlpha"/>
<feOffset dy="11"/>
<feGaussianBlur stdDeviation="11"/>
<feColorMatrix type="matrix" values="0 0 0 0 0.576471 0 0 0 0 0.501961 0 0 0 0 0.396078 0 0 0 0.37 0"/>
<feBlend mode="normal" in2="BackgroundImageFix" result="effect1_dropShadow_3841_34863"/>
<feBlend mode="normal" in="SourceGraphic" in2="effect1_dropShadow_3841_34863" result="shape"/>
</filter>
<filter id="filter2_d_3841_34863" x="28.6636" y="32.1702" width="111.403" height="111.438" filterUnits="userSpaceOnUse" color-interpolation-filters="sRGB">
<feFlood flood-opacity="0" result="BackgroundImageFix"/>
<feColorMatrix in="SourceAlpha" type="matrix" values="0 0 0 0 0 0 0 0 0 0 0 0 0 0 0 0 0 0 127 0" result="hardAlpha"/>
<feOffset dy="11"/>
<feGaussianBlur stdDeviation="11"/>
<feColorMatrix type="matrix" values="0 0 0 0 0.576471 0 0 0 0 0.501961 0 0 0 0 0.396078 0 0 0 0.37 0"/>
<feBlend mode="normal" in2="BackgroundImageFix" result="effect1_dropShadow_3841_34863"/>
<feBlend mode="normal" in="SourceGraphic" in2="effect1_dropShadow_3841_34863" result="shape"/>
</filter>
<linearGradient id="paint0_linear_3841_34863" x1="122.992" y1="57.5842" x2="122.992" y2="105.024" gradientUnits="userSpaceOnUse">
<stop stop-color="#FDFEFF"/>
<stop offset="0.9964" stop-color="#F5F2EC"/>
</linearGradient>
<linearGradient id="paint1_linear_3841_34863" x1="117.306" y1="93.3638" x2="117.306" y2="88.2467" gradientUnits="userSpaceOnUse">
<stop stop-color="white" stop-opacity="0"/>
<stop offset="0.9913" stop-color="#DAD6CF"/>
</linearGradient>
<linearGradient id="paint2_linear_3841_34863" x1="48.4457" y1="60.3481" x2="48.4457" y2="104.994" gradientUnits="userSpaceOnUse">
<stop stop-color="#FDFEFF"/>
<stop offset="0.9964" stop-color="#F5F2EC"/>
</linearGradient>
<linearGradient id="paint3_linear_3841_34863" x1="51.2628" y1="95.1595" x2="51.2628" y2="91.4034" gradientUnits="userSpaceOnUse">
<stop stop-color="white" stop-opacity="0"/>
<stop offset="0.9913" stop-color="#DAD6CF"/>
</linearGradient>
<linearGradient id="paint4_linear_3841_34863" x1="84.343" y1="41.3337" x2="84.343" y2="111.338" gradientUnits="userSpaceOnUse">
<stop stop-color="#FDFEFF"/>
<stop offset="0.9964" stop-color="#F5F2EC"/>
</linearGradient>
<linearGradient id="paint5_linear_3841_34863" x1="84.4771" y1="94.1032" x2="84.4771" y2="86.5637" gradientUnits="userSpaceOnUse">
<stop stop-color="white" stop-opacity="0"/>
<stop offset="0.9913" stop-color="#DAD6CF"/>
</linearGradient>
</defs>
</svg>
