<svg width="160" height="160" viewBox="0 0 160 160" fill="none" xmlns="http://www.w3.org/2000/svg">
<path d="M83.9822 132.7C111.982 132.7 134.682 110 134.682 81.9C134.682 53.8 111.882 31.1 83.9822 31.1C55.9822 31.1 33.2822 53.8 33.2822 81.9C33.2822 110 55.9822 132.7 83.9822 132.7Z" fill="#242424"/>
<path d="M131.382 48.6C133.647 48.6 135.482 46.7644 135.482 44.5C135.482 42.2357 133.647 40.4 131.382 40.4C129.118 40.4 127.282 42.2357 127.282 44.5C127.282 46.7644 129.118 48.6 131.382 48.6Z" fill="#5C5C5C"/>
<path d="M137.382 32.6C138.928 32.6 140.182 31.3464 140.182 29.8C140.182 28.2536 138.928 27 137.382 27C135.836 27 134.582 28.2536 134.582 29.8C134.582 31.3464 135.836 32.6 137.382 32.6Z" fill="#5C5C5C"/>
<path d="M35.9821 48.5C37.5285 48.5 38.7821 47.2464 38.7821 45.7C38.7821 44.1536 37.5285 42.9 35.9821 42.9C34.4357 42.9 33.1821 44.1536 33.1821 45.7C33.1821 47.2464 34.4357 48.5 35.9821 48.5Z" fill="#5C5C5C"/>
<path d="M24.2 109.028C27.0719 109.028 29.4 106.7 29.4 103.828C29.4 100.956 27.0719 98.6281 24.2 98.6281C21.3281 98.6281 19 100.956 19 103.828C19 106.7 21.3281 109.028 24.2 109.028Z" fill="#5C5C5C"/>
<path d="M137.941 104.529H122.56C121.832 104.529 121.209 104.061 121.001 103.438C119.494 98.969 116.168 97.8778 108.114 94.708C107.646 94.5002 107.594 93.8766 108.062 93.6168C110.4 92.4736 109.985 91.4863 109.985 84.6272C109.881 84.5232 109.777 84.3673 109.725 84.2634C109.205 83.484 108.841 82.5486 108.737 81.6133L108.218 81.3535C106.659 81.7172 106.763 80.0544 106.347 76.8327C106.191 75.4816 106.399 75.2218 106.971 75.0139L107.49 74.3384C104.424 67.4793 105.983 63.1663 108.997 61.6074C108.01 59.425 107.958 58.6455 107.958 58.6455C107.958 58.6455 114.349 59.7367 116.532 59.2691C119.338 58.6975 123.599 59.373 125.21 63.0624C127.86 64.1017 128.899 65.8164 129.159 67.5832C129.523 70.4931 127.912 73.6629 127.6 74.91C127.652 74.962 127.652 75.0139 127.704 75.0659C128.12 75.2738 128.276 75.6375 128.12 76.7807C127.756 79.8465 127.808 81.7692 126.249 81.3015L124.846 83.7438C124.794 84.0556 124.742 84.1595 124.742 84.3154C124.69 84.783 124.69 85.6664 124.69 90.7588C124.69 91.3824 124.846 91.954 125.158 92.4216C125.47 92.9932 125.989 93.4089 126.613 93.6688H126.665C130.302 95.1757 132.9 96.163 134.823 96.9424C139.084 98.6572 139.811 99.1249 140.175 101.983C140.279 103.386 139.292 104.529 137.941 104.529Z" fill="#A1A1A1"/>
<path d="M127.495 74.8573C127.651 74.0778 127.287 73.1425 126.975 72.467C126.923 72.363 126.871 72.2591 126.819 72.1032C125.624 69.661 122.87 68.6217 120.272 68.5178C113.621 68.154 112.997 69.4531 110.919 67.5305C111.542 68.5178 111.646 70.0247 110.607 71.9473C109.931 73.2984 108.58 73.87 107.385 74.2857C104.371 67.4265 105.878 63.1136 108.892 61.5547C107.905 59.3722 107.853 58.5928 107.853 58.5928C107.853 58.5928 114.244 59.684 116.427 59.2163C119.233 58.6447 123.494 59.3203 125.104 63.0097C127.755 64.0489 128.794 65.7637 129.054 67.5305C129.469 70.4404 127.807 73.6102 127.495 74.8573Z" fill="#3A3A3A"/>
<path d="M125.052 92.4729V93.668H109.619V92.1091C109.983 91.2777 109.879 91.3297 109.879 84.6264C109.775 84.5225 109.671 84.3666 109.619 84.2627V83.8989C109.931 84.4705 110.399 84.9902 110.866 85.4059L115.699 88.7835C116.842 89.7188 118.453 89.7708 119.596 88.8354L124.117 84.7823C124.273 84.6264 124.429 84.5225 124.585 84.3666C124.533 84.8343 124.533 85.7176 124.533 90.81C124.585 91.3816 124.74 91.9532 125.052 92.4729Z" fill="url(#paint0_linear_3841_34863)"/>
<path d="M58.4354 92.9406C55.9412 92.8886 55.6814 92.421 55.6814 92.421V88.2639C58.3315 86.0814 60.5659 83.5352 61.1895 80.2096C62.8523 79.8459 63.8916 78.3389 63.7357 76.6761C63.6837 75.9486 63.2161 75.2731 63.1641 74.4936C63.1641 74.1299 63.1641 73.7661 63.1641 73.4024C63.1641 73.1426 63.1641 72.9347 63.1121 72.6749C63.1121 72.4151 63.0602 72.1553 63.0602 71.8955C62.9043 70.6484 62.5925 69.3493 61.7611 67.8423C59.6826 63.9451 55.5775 61.3469 50.9527 61.3469C50.0174 61.3469 49.082 61.4508 48.1987 61.6587C46.5358 62.0224 45.0289 62.7499 43.6779 63.7892C43.418 63.9971 43.1582 64.2049 42.8984 64.4128C42.8464 64.4647 42.7945 64.5167 42.6906 64.5686C41.2356 65.9197 40.0924 67.6345 39.4688 69.5571C38.8453 71.4798 38.6894 73.4544 38.9492 75.429C38.9492 75.4809 38.9492 75.5329 38.9492 75.5849C38.9492 75.6368 38.9492 75.6888 38.9492 75.7408C39.0012 76.1045 39.1051 76.0525 38.8453 76.3643C38.7933 76.4682 38.6894 76.5722 38.6374 76.7281C38.3256 77.2997 38.0658 78.0791 38.4296 79.0144C39.0531 80.7812 40.3002 80.5214 41.4434 81.5087C41.3915 81.5606 41.2875 81.6126 41.2356 81.6126H41.1836L39.8845 82.0283C32.09 84.4706 31.2067 92.7327 39.209 94.2397C38.6374 94.2916 38.1178 94.6034 37.754 94.8632C35.2078 96.8378 33.597 99.8517 33.1813 102.814C33.0254 103.697 33.7529 104.528 34.6882 104.528H47.0555C47.3153 104.528 47.5751 104.321 47.679 104.061C48.8222 99.9037 51.4204 98.4487 56.8246 96.2662L59.9424 95.0191C60.462 94.8113 61.0336 94.6034 61.6572 94.3436C62.2288 94.1358 62.1768 93.3043 61.5532 93.1485C60.9297 92.9926 60.3061 92.9406 59.6826 92.8886C59.1629 92.9406 58.7472 92.9406 58.4354 92.9406ZM42.5866 87.6403C42.5866 87.1207 42.9504 86.5491 43.7298 85.9256C44.0416 86.3413 44.4573 86.8089 44.925 87.2246C45.2887 87.5364 45.6525 87.8482 46.0682 88.16C46.328 88.3159 46.5878 88.5237 46.8476 88.7316C46.8996 88.7835 46.9515 88.8355 47.0035 88.8355C47.0555 88.8875 47.1594 88.9394 47.2114 88.9914V91.5376C47.1594 91.4856 47.1074 91.4337 47.0555 91.4337C46.7957 91.2258 46.5878 91.018 46.38 90.8621C46.0162 90.6023 45.6525 90.3944 45.2887 90.1865C45.1328 90.0826 45.0289 90.0307 44.925 89.9267C43.7298 89.1473 42.6386 88.4198 42.5866 87.6403Z" fill="#A1A1A1"/>
<path d="M58.4354 92.9406C58.0197 94.4475 57.552 95.3828 57.552 95.3828L44.1455 93.2524L44.925 89.9267C45.0289 90.0306 45.1848 90.0826 45.2887 90.1346C45.6524 90.3424 46.0681 90.6022 46.3799 90.862C46.5878 91.0179 46.8476 91.1738 47.0555 91.4336C47.1074 91.4856 47.1594 91.5376 47.1594 91.5376V88.9914C47.0555 88.9394 47.0035 88.8874 46.9515 88.8355C49.134 89.9267 51.8361 90.4983 55.7333 88.2119C55.6814 88.2119 55.6814 88.2639 55.6294 88.2639V92.4209C55.6294 92.4209 55.9412 92.8886 58.4354 92.9406Z" fill="url(#paint1_linear_3841_34863)"/>
<path d="M63.0602 72.675C60.8258 73.4544 58.4355 73.7662 56.0452 73.5583C52.3038 73.2466 48.6664 71.7396 45.8604 69.2454C44.925 71.9475 42.5867 73.974 39.9366 75.1692C39.5728 75.3251 39.2091 75.481 38.8453 75.5849C38.8453 75.5329 38.8453 75.481 38.8453 75.481C38.5855 73.5064 38.7414 71.5318 39.365 69.6091C39.9885 67.6865 41.1317 65.9717 42.5867 64.6206C42.6387 64.5687 42.6906 64.5167 42.7946 64.4648C43.0544 64.2569 43.3142 64.0491 43.574 63.8412C44.925 62.8539 46.4839 62.1264 48.0948 61.7107C49.0301 61.5029 49.9135 61.3989 50.8489 61.3989C55.4736 61.3989 59.5787 63.9971 61.6572 67.8943C62.4367 69.4013 62.8004 70.7004 62.9563 71.8955C63.0602 72.1553 63.0602 72.4151 63.0602 72.675Z" fill="#3A3A3A"/>
<path d="M43.8857 86.0813C44.1975 86.497 44.5613 86.8607 44.873 87.1725C44.5093 86.8607 44.1456 86.497 43.8857 86.0813Z" fill="#3973F4"/>
<path d="M48.7703 99.2281C47.783 100.475 45.9123 100.527 44.3534 100.475C46.0163 98.8644 45.0809 93.6161 39.261 94.2396H39.2091C31.2067 92.7327 32.0901 84.4705 39.8326 82.0283L41.1317 81.6125C41.2356 81.6645 41.2876 81.7165 41.3396 81.8204C41.9631 83.4313 42.7945 84.7823 43.6779 85.8735C40.5082 88.5237 44.925 89.3551 47.0555 91.3816C48.9262 92.4729 50.4851 97.0456 48.7703 99.2281Z" fill="#3A3A3A"/>
<path d="M43.8339 86.0814C43.7819 86.0295 43.73 85.9775 43.73 85.9255C43.73 85.9255 43.7819 86.0295 43.8339 86.0814Z" fill="#3973F4"/>
<path d="M118.037 106.919C118.297 108.841 116.79 110.608 114.815 110.608H53.9145C51.9399 110.608 50.433 108.841 50.6928 106.919C51.2644 102.917 52.1477 102.086 58.0716 99.6958L59.5265 99.1242C62.2806 98.0329 65.866 96.6819 70.6986 94.6553C71.7899 94.1877 72.6732 93.3562 73.1409 92.265C73.4007 91.6934 73.5566 91.0179 73.5566 90.3424V81.2488C73.4007 81.0409 73.2448 80.8851 73.1409 80.6772C72.3615 79.534 71.8418 78.183 71.6859 76.728L70.9065 76.3643C68.5681 76.9358 68.776 74.4416 68.1524 69.661C67.8926 67.6864 68.2044 67.2707 69.0878 66.9589L69.8153 65.9716C65.3464 55.8388 67.5808 49.4992 71.9977 47.2648C70.6467 44.0431 70.5427 42.8999 70.5427 42.8999C70.5427 42.8999 79.9481 44.4588 83.1698 43.8352C87.2749 43.0038 93.6144 43.9911 95.9528 49.4473C99.85 51.0062 101.357 53.4484 101.721 56.1505C102.292 60.4115 99.85 65.0882 99.3824 66.9069C99.4343 67.0109 99.4343 67.0628 99.4863 67.1148C100.11 67.4266 100.318 67.9462 100.11 69.661C99.5383 74.1818 99.6941 76.9878 97.3558 76.3643L95.2773 80.0017C95.1733 80.4174 95.1733 80.5733 95.1214 80.8851C95.0175 81.5606 95.0694 82.9116 95.0694 90.3424C95.0694 91.2258 95.3292 92.1091 95.7969 92.7846C96.3165 93.5641 97.044 94.2396 97.9274 94.6034C97.9794 94.6034 97.9794 94.6034 98.0313 94.6553C103.384 96.8897 107.229 98.3447 110.035 99.4359C116.426 101.93 117.414 102.71 118.037 106.919Z" fill="#A1A1A1"/>
<path d="M99.4344 66.9069C99.6423 65.7637 99.1226 64.3607 98.7069 63.3734C98.655 63.2175 98.551 63.0617 98.4991 62.8538C96.6804 59.2164 92.6792 57.7614 88.8339 57.5535C79.0128 57.0339 78.1295 58.9046 75.0636 56.0986C75.999 57.5535 76.1029 59.788 74.6479 62.594C73.6087 64.5686 71.6341 65.452 69.9193 66.0236C65.4504 55.8907 67.6848 49.5512 72.1017 47.3168C70.6468 44.0431 70.5428 42.8999 70.5428 42.8999C70.5428 42.8999 79.9482 44.4588 83.1699 43.8352C87.275 43.0038 93.6145 43.9911 95.9529 49.4473C99.8501 51.0062 101.357 53.4484 101.721 56.1505C102.344 60.3596 99.9021 65.0363 99.4344 66.9069Z" fill="#3A3A3A"/>
<path d="M95.8489 92.7845V94.5513H73.1929V92.2649C73.4527 91.6933 73.6086 91.0178 73.6086 90.3423V81.2487C73.4527 81.0408 73.2968 80.885 73.1929 80.6771V80.1575C73.6605 80.9889 74.2841 81.7683 75.0635 82.3919L82.1825 87.3804C83.8453 88.7834 86.2357 88.8353 87.9504 87.4843L94.6017 81.5085C94.8096 81.3007 95.0694 81.0928 95.2773 80.885C95.1733 81.5605 95.2253 82.9115 95.2253 90.3423C95.1733 91.2257 95.4332 92.0571 95.8489 92.7845Z" fill="url(#paint2_linear_3841_34863)"/>
<defs>
<linearGradient id="paint0_linear_3841_34863" x1="117.306" y1="93.3638" x2="117.306" y2="88.2467" gradientUnits="userSpaceOnUse">
<stop stop-color="#A1A1A1"/>
<stop offset="0.9913" stop-color="#8A8A8A"/>
</linearGradient>
<linearGradient id="paint1_linear_3841_34863" x1="51.2628" y1="95.1595" x2="51.2628" y2="91.4034" gradientUnits="userSpaceOnUse">
<stop stop-color="#A1A1A1"/>
<stop offset="0.9913" stop-color="#8A8A8A"/>
</linearGradient>
<linearGradient id="paint2_linear_3841_34863" x1="84.4771" y1="94.1031" x2="84.4771" y2="86.5635" gradientUnits="userSpaceOnUse">
<stop stop-color="#A1A1A1"/>
<stop offset="0.9913" stop-color="#8A8A8A"/>
</linearGradient>
</defs>
</svg>
