<svg width="230" height="160" viewBox="0 0 230 160" fill="none" xmlns="http://www.w3.org/2000/svg">
<path d="M118.982 132.7C146.982 132.7 169.682 110 169.682 81.9C169.682 53.8 146.882 31.1 118.982 31.1C90.982 31.1 68.282 53.8 68.282 81.9C68.282 110 90.982 132.7 118.982 132.7Z" fill="#EBEBEB"/>
<path d="M166.382 48.6C168.646 48.6 170.482 46.7644 170.482 44.5C170.482 42.2357 168.646 40.4 166.382 40.4C164.118 40.4 162.282 42.2357 162.282 44.5C162.282 46.7644 164.118 48.6 166.382 48.6Z" fill="#E6DED1"/>
<path d="M172.382 32.6C173.928 32.6 175.182 31.3464 175.182 29.8C175.182 28.2536 173.928 27 172.382 27C170.836 27 169.582 28.2536 169.582 29.8C169.582 31.3464 170.836 32.6 172.382 32.6Z" fill="#E6DED1"/>
<path d="M70.9821 48.5C72.5285 48.5 73.7821 47.2464 73.7821 45.7C73.7821 44.1536 72.5285 42.9 70.9821 42.9C69.4357 42.9 68.1821 44.1536 68.1821 45.7C68.1821 47.2464 69.4357 48.5 70.9821 48.5Z" fill="#E6DED1"/>
<path d="M59.2 109.028C62.0719 109.028 64.4 106.7 64.4 103.828C64.4 100.956 62.0719 98.6281 59.2 98.6281C56.3281 98.6281 54 100.956 54 103.828C54 106.7 56.3281 109.028 59.2 109.028Z" fill="#E6DED1"/>
<g filter="url(#filter0_d_4784_289)">
<path d="M172.94 104.529H157.559C156.832 104.529 156.208 104.061 156 103.438C154.493 98.969 151.168 97.8778 143.113 94.708C142.646 94.5002 142.594 93.8766 143.061 93.6168C145.347 92.4992 145.001 91.5306 144.985 85.0792C144.984 84.7919 144.853 84.5203 144.724 84.2634V84.2634C144.269 83.58 143.933 82.7768 143.787 81.9588C143.749 81.7445 143.619 81.5545 143.425 81.4571V81.4571C143.291 81.3901 143.137 81.3772 142.988 81.3938C141.668 81.5406 141.741 79.8874 141.347 76.8327C141.217 75.7066 141.339 75.3386 141.715 75.1269C141.874 75.0373 142.029 74.9371 142.141 74.7925V74.7925C142.356 74.5128 142.398 74.1366 142.261 73.8113C139.878 68.1443 140.719 64.288 142.889 62.3665C143.454 61.866 143.403 60.2471 143.174 59.5276V59.5276C142.896 58.6528 143.827 58.7896 144.736 58.9168C146.795 59.2048 150.086 59.5788 151.531 59.2691C153.825 58.8018 157.091 59.1679 159.087 61.3325C159.986 62.3074 160.961 63.2557 162.027 64.0445C163.366 65.0356 163.969 66.2956 164.159 67.5832C164.509 70.3894 163.024 73.4373 162.638 74.7695C162.612 74.8567 162.626 74.9552 162.675 75.0312V75.0312C162.691 75.0544 162.716 75.072 162.741 75.0853C163.128 75.2966 163.27 75.6723 163.119 76.7807C162.962 78.1089 162.882 79.2226 162.716 80.0202C162.441 81.3365 160.775 82.126 160.105 83.2918V83.2918C159.934 83.5907 159.775 83.9114 159.744 84.2548C159.743 84.2745 159.742 84.2944 159.742 84.3154C159.69 84.783 159.69 85.6664 159.69 90.7588C159.69 91.3824 159.846 91.954 160.157 92.4216C160.465 92.9859 160.975 93.3982 161.588 93.6586C161.604 93.6654 161.621 93.6688 161.638 93.6688V93.6688C161.655 93.6688 161.673 93.6722 161.688 93.6788C165.313 95.1801 167.904 96.1647 169.823 96.9424C174.084 98.6572 174.811 99.1249 175.175 101.983C175.279 103.386 174.291 104.529 172.94 104.529Z" fill="url(#paint0_linear_4784_289)"/>
</g>
<path d="M162.494 74.8573C162.65 74.0778 162.287 73.1425 161.975 72.467C161.923 72.363 161.871 72.2591 161.819 72.1032C160.624 69.661 157.87 68.6217 155.271 68.5178C148.62 68.154 147.997 69.4531 145.918 67.5305C146.542 68.5178 146.646 70.0247 145.606 71.9473C144.931 73.2984 143.58 73.87 142.385 74.2857C139.371 67.4265 140.878 63.1136 143.892 61.5547C142.904 59.3722 142.852 58.5928 142.852 58.5928C142.852 58.5928 149.244 59.684 151.426 59.2163C154.232 58.6447 158.493 59.3203 160.104 63.0097C162.754 64.0489 163.793 65.7637 164.053 67.5305C164.469 70.4404 162.806 73.6102 162.494 74.8573Z" fill="#676767"/>
<path opacity="0.1" d="M171.328 104.528C172.939 102.034 172.315 99.6958 169.717 96.9417C173.978 98.6565 174.706 99.1242 175.07 101.982C175.277 103.281 174.238 104.476 172.887 104.476H171.328V104.528Z" fill="#B7B4AF"/>
<path d="M160.052 92.4728V93.668H144.619V92.1091C144.983 91.2776 144.879 91.3296 144.879 84.6264C144.775 84.5224 144.671 84.3665 144.619 84.2626V83.8989C144.931 84.4705 145.398 84.9901 145.866 85.4058L150.699 88.7834C151.842 89.7188 153.453 89.7707 154.596 88.8354L159.117 84.7822C159.273 84.6263 159.429 84.5224 159.584 84.3665C159.532 84.8342 159.532 85.7176 159.532 90.81C159.584 91.3816 159.74 91.9532 160.052 92.4728Z" fill="url(#paint1_linear_4784_289)"/>
<g filter="url(#filter1_d_4784_289)">
<path d="M93.4352 92.9405C92.7759 92.9268 92.2728 92.884 91.8893 92.8285C91.0483 92.7068 90.6811 91.975 90.6811 91.1253V90.6235C90.6811 89.1294 91.3752 87.7397 92.4365 86.688C93.4744 85.6594 94.3823 84.5445 95.0628 83.3092C96.0317 81.5507 97.9053 80.0101 98.565 78.1138C98.7205 77.667 98.7826 77.1786 98.7354 76.676C98.6835 75.9485 98.2158 75.273 98.1638 74.4936C98.1638 74.1298 98.1638 73.7661 98.1638 73.4023C98.1638 73.3196 98.1638 73.2422 98.1622 73.1667C98.1549 72.8375 98.1062 72.5091 98.0758 72.1813C98.0669 72.086 98.0599 71.9907 98.0599 71.8954C97.904 70.6483 97.5923 69.3492 96.7608 67.8423C94.6823 63.945 90.5772 61.3469 85.9525 61.3469C85.0171 61.3469 84.0818 61.4508 83.1984 61.6586C81.5356 62.0224 80.0287 62.7499 78.6776 63.7891C78.4178 63.997 78.158 64.2048 77.8982 64.4127V64.4127C77.7757 64.5352 77.6252 64.6278 77.5008 64.7483C76.1361 66.0704 75.0648 67.7187 74.4686 69.5571C73.845 71.4797 73.6891 73.4543 73.949 75.4289C73.949 75.4809 73.949 75.5328 73.949 75.5848V75.5848C73.949 75.6886 73.9542 75.793 73.9779 75.894C74.0098 76.0297 74.036 76.0785 73.9858 76.1729C73.9115 76.3123 73.8112 76.4172 73.7257 76.5501V76.5501C73.6601 76.6522 73.6066 76.7809 73.5534 76.89C73.2831 77.4435 73.0988 78.1646 73.4293 79.0144C74.0195 80.6866 75.1683 80.5433 76.2588 81.3603C76.361 81.4368 76.363 81.6125 76.2353 81.6125V81.6125V81.6125C76.2009 81.6125 76.1667 81.6179 76.1339 81.6284L74.8843 82.0283C67.6352 84.2996 66.3639 91.605 72.6589 93.8284C72.9029 93.9146 72.9645 94.7127 72.7538 94.8632V94.8632C70.2076 96.8378 68.5967 99.8517 68.181 102.814C68.0251 103.697 68.7526 104.528 69.688 104.528H82.0552C82.315 104.528 82.5749 104.32 82.6788 104.061C83.822 99.9036 86.4201 98.4486 91.8243 96.2662L94.9421 95.0191C95.4618 94.8112 96.0334 94.6034 96.6569 94.3435C97.2285 94.1357 97.1765 93.3043 96.553 93.1484C96.0816 93.0305 95.6103 92.9721 95.1389 92.9281C94.8353 92.8998 94.5298 92.9072 94.2254 92.9237C93.9129 92.9405 93.6495 92.9405 93.4352 92.9405ZM77.5864 87.6403C77.5864 87.525 77.6043 87.4072 77.6407 87.2868C77.9204 86.3607 79.2017 86.5819 79.9247 87.2246V87.2246C80.2885 87.5364 80.6522 87.8481 81.0679 88.1599C81.3277 88.3158 81.5876 88.5237 81.8474 88.7315C81.8621 88.7462 81.8768 88.7609 81.8915 88.7745C81.9528 88.8309 82.0379 88.8672 82.1072 88.9134V88.9134C82.1765 88.9596 82.2111 89.0381 82.2111 89.1214V91.3701C82.2111 91.4319 82.1351 91.4503 82.075 91.436V91.436C82.0597 91.4324 82.0485 91.4282 82.0363 91.4184C81.7852 91.2156 81.5825 91.0141 81.3797 90.862C81.016 90.6022 80.6522 90.3943 80.2885 90.1865V90.1865C80.0407 90.0213 79.7984 89.8453 79.55 89.6809C78.5103 88.9927 77.6329 88.3373 77.5864 87.6403Z" fill="url(#paint2_linear_4784_289)"/>
</g>
<path d="M93.4352 92.9406C93.0195 94.4475 92.5518 95.3828 92.5518 95.3828L79.1453 93.2524L79.9247 89.9267C80.0287 90.0306 80.1846 90.0826 80.2885 90.1346C80.6522 90.3424 81.0679 90.6022 81.3797 90.862C81.5876 91.0179 81.8474 91.1738 82.0552 91.4336C82.1072 91.4856 82.1592 91.5376 82.1592 91.5376V88.9914C82.0552 88.9394 82.0033 88.8874 81.9513 88.8355C84.1338 89.9267 86.8359 90.4983 90.7331 88.2119C90.6811 88.2119 90.6811 88.2639 90.6292 88.2639V92.4209C90.6292 92.4209 90.941 92.8886 93.4352 92.9406Z" fill="url(#paint3_linear_4784_289)"/>
<path d="M98.0599 72.6748C95.8255 73.4543 93.4352 73.7661 91.0449 73.5582C87.3035 73.2464 83.6661 71.7395 80.8601 69.2453C79.9247 71.9474 77.5864 73.9739 74.9363 75.1691C74.5725 75.325 74.2088 75.4809 73.845 75.5848C73.845 75.5328 73.845 75.4809 73.845 75.4809C73.5852 73.5062 73.7411 71.5316 74.3647 69.609C74.9882 67.6864 76.1314 65.9716 77.5864 64.6205C77.6384 64.5686 77.6903 64.5166 77.7943 64.4646C78.0541 64.2568 78.3139 64.0489 78.5737 63.8411C79.9247 62.8538 81.4836 62.1263 83.0945 61.7106C84.0298 61.5027 84.9132 61.3988 85.8486 61.3988C90.4733 61.3988 94.5784 63.997 96.6569 67.8942C97.4364 69.4011 97.8001 70.7002 97.956 71.8954C98.0599 72.1552 98.0599 72.415 98.0599 72.6748Z" fill="#676767"/>
<path d="M78.8855 86.0814C79.1972 86.4971 79.561 86.8608 79.8728 87.1726C79.509 86.8608 79.1453 86.4971 78.8855 86.0814Z" fill="#3973F4"/>
<path d="M83.77 99.2281C82.7827 100.475 80.9121 100.527 79.3532 100.475C81.016 98.8644 80.0806 93.6161 74.2608 94.2396H74.2088C66.2064 92.7327 67.0898 84.4705 74.8324 82.0283L76.1314 81.6125C76.2354 81.6645 76.2873 81.7165 76.3393 81.8204C76.9628 83.4313 77.7943 84.7823 78.6776 85.8735C75.5079 88.5237 79.9248 89.3551 82.0553 91.3816C83.9259 92.4729 85.4848 97.0456 83.77 99.2281Z" fill="#676767"/>
<path d="M78.8335 86.0814C78.7815 86.0295 78.7296 85.9775 78.7296 85.9255C78.7296 85.9255 78.7815 86.0295 78.8335 86.0814Z" fill="#3973F4"/>
<g filter="url(#filter2_d_4784_289)">
<path d="M153.037 106.919C153.297 108.841 151.79 110.608 149.815 110.608H88.9144C86.9398 110.608 85.4329 108.841 85.6927 106.919C86.2643 102.917 87.1477 102.086 93.0715 99.6958L94.5264 99.1242C97.2805 98.0329 100.866 96.6819 105.699 94.6553C106.79 94.1877 107.673 93.3562 108.141 92.265C108.401 91.6934 108.557 91.0179 108.557 90.3424V81.9569C108.557 81.4973 108.346 81.0883 108.141 80.6772V80.6772C107.456 79.6727 106.972 78.5077 106.758 77.2528C106.703 76.9286 106.504 76.643 106.206 76.5039V76.5039C106.012 76.4135 105.792 76.3988 105.58 76.4264C103.586 76.6855 103.745 74.207 103.152 69.661C102.935 68.0114 103.117 67.4498 103.698 67.1278C103.94 66.9935 104.176 66.8397 104.34 66.6167V66.6167C104.634 66.2177 104.689 65.6899 104.498 65.2324C100.994 56.8183 102.207 51.1243 105.401 48.339C106.22 47.6245 106.193 45.2824 105.873 44.2436V44.2436C105.473 42.9475 106.849 43.1101 108.193 43.2937C111.225 43.7078 116.044 44.2467 118.17 43.8352C121.775 43.105 127.105 43.7778 129.933 47.6492C130.715 48.72 131.674 49.6761 132.811 50.3586C135.349 51.8825 136.422 53.9287 136.721 56.1505C137.277 60.2945 134.982 64.8316 134.425 66.7506C134.396 66.8516 134.401 66.9732 134.45 67.0662V67.0662C134.472 67.1076 134.508 67.1251 134.549 67.1477C135.124 67.4637 135.31 68.0051 135.11 69.661C134.873 71.5374 134.761 73.1183 134.544 74.2813C134.16 76.3399 131.632 77.6307 130.593 79.449V79.449C130.383 79.8157 130.216 80.2083 130.159 80.6268C130.149 80.7062 130.137 80.7881 130.121 80.8851C130.017 81.5606 130.069 82.9116 130.069 90.3424C130.069 91.2258 130.329 92.1091 130.797 92.7846C131.305 93.5475 132.013 94.2107 132.871 94.5796C132.908 94.5956 132.943 94.5918 132.979 94.6099V94.6099C133.015 94.6279 133.051 94.6635 133.088 94.679C138.411 96.9 142.239 98.3486 145.035 99.4359C151.426 101.93 152.414 102.71 153.037 106.919Z" fill="url(#paint4_linear_4784_289)"/>
</g>
<path d="M134.434 66.9069C134.642 65.7637 134.122 64.3607 133.707 63.3734C133.655 63.2175 133.551 63.0617 133.499 62.8538C131.68 59.2164 127.679 57.7614 123.834 57.5535C114.013 57.0339 113.129 58.9046 110.063 56.0986C110.999 57.5535 111.103 59.788 109.648 62.594C108.608 64.5686 106.634 65.452 104.919 66.0236C100.45 55.8907 102.685 49.5512 107.102 47.3168C105.647 44.0431 105.543 42.8999 105.543 42.8999C105.543 42.8999 114.948 44.4588 118.17 43.8352C122.275 43.0038 128.614 43.9911 130.953 49.4473C134.85 51.0062 136.357 53.4484 136.721 56.1505C137.344 60.3596 134.902 65.0363 134.434 66.9069Z" fill="#676767"/>
<path opacity="0.1" d="M147.529 110.556C149.919 106.919 148.984 103.489 145.139 99.436C151.426 101.93 152.465 102.71 153.037 106.867C153.297 108.789 151.79 110.556 149.815 110.556H147.529Z" fill="#B7B4AF"/>
<path d="M130.849 92.7846V94.5514H108.193V92.265C108.453 91.6934 108.608 91.0179 108.608 90.3423V81.2488C108.453 81.0409 108.297 80.885 108.193 80.6772V80.1575C108.66 80.9889 109.284 81.7684 110.063 82.392L117.182 87.3804C118.845 88.7834 121.236 88.8354 122.95 87.4844L129.602 81.5086C129.81 81.3007 130.069 81.0929 130.277 80.885C130.173 81.5605 130.225 82.9116 130.225 90.3423C130.173 91.2257 130.433 92.0571 130.849 92.7846Z" fill="url(#paint5_linear_4784_289)"/>
<defs>
<filter id="filter0_d_4784_289" x="118.824" y="47.8234" width="78.358" height="89.7057" filterUnits="userSpaceOnUse" color-interpolation-filters="sRGB">
<feFlood flood-opacity="0" result="BackgroundImageFix"/>
<feColorMatrix in="SourceAlpha" type="matrix" values="0 0 0 0 0 0 0 0 0 0 0 0 0 0 0 0 0 0 127 0" result="hardAlpha"/>
<feOffset dy="11"/>
<feGaussianBlur stdDeviation="11"/>
<feColorMatrix type="matrix" values="0 0 0 0 0.576471 0 0 0 0 0.501961 0 0 0 0 0.396078 0 0 0 0.37 0"/>
<feBlend mode="normal" in2="BackgroundImageFix" result="effect1_dropShadow_4784_289"/>
<feBlend mode="normal" in="SourceGraphic" in2="effect1_dropShadow_4784_289" result="shape"/>
</filter>
<filter id="filter1_d_4784_289" x="46.1599" y="50.3469" width="74.5909" height="87.1815" filterUnits="userSpaceOnUse" color-interpolation-filters="sRGB">
<feFlood flood-opacity="0" result="BackgroundImageFix"/>
<feColorMatrix in="SourceAlpha" type="matrix" values="0 0 0 0 0 0 0 0 0 0 0 0 0 0 0 0 0 0 127 0" result="hardAlpha"/>
<feOffset dy="11"/>
<feGaussianBlur stdDeviation="11"/>
<feColorMatrix type="matrix" values="0 0 0 0 0.576471 0 0 0 0 0.501961 0 0 0 0 0.396078 0 0 0 0.37 0"/>
<feBlend mode="normal" in2="BackgroundImageFix" result="effect1_dropShadow_4784_289"/>
<feBlend mode="normal" in="SourceGraphic" in2="effect1_dropShadow_4784_289" result="shape"/>
</filter>
<filter id="filter2_d_4784_289" x="63.6635" y="32.1702" width="111.403" height="111.438" filterUnits="userSpaceOnUse" color-interpolation-filters="sRGB">
<feFlood flood-opacity="0" result="BackgroundImageFix"/>
<feColorMatrix in="SourceAlpha" type="matrix" values="0 0 0 0 0 0 0 0 0 0 0 0 0 0 0 0 0 0 127 0" result="hardAlpha"/>
<feOffset dy="11"/>
<feGaussianBlur stdDeviation="11"/>
<feColorMatrix type="matrix" values="0 0 0 0 0.576471 0 0 0 0 0.501961 0 0 0 0 0.396078 0 0 0 0.37 0"/>
<feBlend mode="normal" in2="BackgroundImageFix" result="effect1_dropShadow_4784_289"/>
<feBlend mode="normal" in="SourceGraphic" in2="effect1_dropShadow_4784_289" result="shape"/>
</filter>
<linearGradient id="paint0_linear_4784_289" x1="157.992" y1="57.5842" x2="157.992" y2="105.024" gradientUnits="userSpaceOnUse">
<stop stop-color="#FDFEFF"/>
<stop offset="0.9964" stop-color="#F5F2EC"/>
</linearGradient>
<linearGradient id="paint1_linear_4784_289" x1="152.306" y1="93.3637" x2="152.306" y2="88.2467" gradientUnits="userSpaceOnUse">
<stop stop-color="white" stop-opacity="0"/>
<stop offset="0.9913" stop-color="#DAD6CF"/>
</linearGradient>
<linearGradient id="paint2_linear_4784_289" x1="83.4454" y1="60.348" x2="83.4454" y2="104.994" gradientUnits="userSpaceOnUse">
<stop stop-color="#FDFEFF"/>
<stop offset="0.9964" stop-color="#F5F2EC"/>
</linearGradient>
<linearGradient id="paint3_linear_4784_289" x1="86.2626" y1="95.1595" x2="86.2626" y2="91.4034" gradientUnits="userSpaceOnUse">
<stop stop-color="white" stop-opacity="0"/>
<stop offset="0.9913" stop-color="#DAD6CF"/>
</linearGradient>
<linearGradient id="paint4_linear_4784_289" x1="119.343" y1="41.3337" x2="119.343" y2="111.338" gradientUnits="userSpaceOnUse">
<stop stop-color="#FDFEFF"/>
<stop offset="0.9964" stop-color="#F5F2EC"/>
</linearGradient>
<linearGradient id="paint5_linear_4784_289" x1="119.477" y1="94.1031" x2="119.477" y2="86.5636" gradientUnits="userSpaceOnUse">
<stop stop-color="white" stop-opacity="0"/>
<stop offset="0.9913" stop-color="#DAD6CF"/>
</linearGradient>
</defs>
</svg>
