<svg width="230" height="160" viewBox="0 0 230 160" fill="none" xmlns="http://www.w3.org/2000/svg">
<path d="M118.982 132.7C146.982 132.7 169.682 110 169.682 81.9C169.682 53.8 146.882 31.1 118.982 31.1C90.982 31.1 68.282 53.8 68.282 81.9C68.282 110 90.982 132.7 118.982 132.7Z" fill="#242424"/>
<path d="M166.382 48.6C168.646 48.6 170.482 46.7644 170.482 44.5C170.482 42.2357 168.646 40.4 166.382 40.4C164.118 40.4 162.282 42.2357 162.282 44.5C162.282 46.7644 164.118 48.6 166.382 48.6Z" fill="#5C5C5C"/>
<path d="M172.382 32.6C173.928 32.6 175.182 31.3464 175.182 29.8C175.182 28.2536 173.928 27 172.382 27C170.836 27 169.582 28.2536 169.582 29.8C169.582 31.3464 170.836 32.6 172.382 32.6Z" fill="#5C5C5C"/>
<path d="M70.9821 48.5C72.5285 48.5 73.7821 47.2464 73.7821 45.7C73.7821 44.1536 72.5285 42.9 70.9821 42.9C69.4357 42.9 68.1821 44.1536 68.1821 45.7C68.1821 47.2464 69.4357 48.5 70.9821 48.5Z" fill="#5C5C5C"/>
<path d="M59.2 109.028C62.0719 109.028 64.4 106.7 64.4 103.828C64.4 100.956 62.0719 98.6281 59.2 98.6281C56.3281 98.6281 54 100.956 54 103.828C54 106.7 56.3281 109.028 59.2 109.028Z" fill="#5C5C5C"/>
<path d="M172.94 104.529H157.559C156.832 104.529 156.208 104.061 156 103.438C154.493 98.969 151.168 97.8778 143.113 94.708C142.646 94.5002 142.594 93.8766 143.061 93.6168C145.4 92.4736 144.984 91.4863 144.984 84.6272C144.88 84.5232 144.776 84.3673 144.724 84.2634C144.205 83.484 143.841 82.5486 143.737 81.6133L143.217 81.3535C141.658 81.7172 141.762 80.0544 141.347 76.8327C141.191 75.4816 141.399 75.2218 141.97 75.0139L142.49 74.3384C139.424 67.4793 140.983 63.1663 143.997 61.6074C143.009 59.425 142.958 58.6455 142.958 58.6455C142.958 58.6455 149.349 59.7367 151.531 59.2691C154.337 58.6975 158.598 59.373 160.209 63.0624C162.859 64.1017 163.899 65.8164 164.159 67.5832C164.522 70.4931 162.911 73.6629 162.6 74.91C162.652 74.962 162.652 75.0139 162.704 75.0659C163.119 75.2738 163.275 75.6375 163.119 76.7807C162.756 79.8465 162.807 81.7692 161.249 81.3015L159.846 83.7438C159.794 84.0556 159.742 84.1595 159.742 84.3154C159.69 84.783 159.69 85.6664 159.69 90.7588C159.69 91.3824 159.846 91.954 160.157 92.4216C160.469 92.9932 160.989 93.4089 161.612 93.6688H161.664C165.302 95.1757 167.9 96.163 169.823 96.9424C174.084 98.6572 174.811 99.1249 175.175 101.983C175.279 103.386 174.291 104.529 172.94 104.529Z" fill="#A1A1A1"/>
<path d="M162.494 74.8573C162.65 74.0778 162.287 73.1425 161.975 72.467C161.923 72.363 161.871 72.2591 161.819 72.1032C160.624 69.661 157.87 68.6217 155.272 68.5178C148.62 68.154 147.997 69.4531 145.918 67.5305C146.542 68.5178 146.646 70.0247 145.606 71.9473C144.931 73.2984 143.58 73.87 142.385 74.2857C139.371 67.4265 140.878 63.1136 143.892 61.5547C142.904 59.3722 142.852 58.5928 142.852 58.5928C142.852 58.5928 149.244 59.684 151.426 59.2163C154.232 58.6447 158.493 59.3203 160.104 63.0097C162.754 64.0489 163.794 65.7637 164.053 67.5305C164.469 70.4404 162.806 73.6102 162.494 74.8573Z" fill="#3A3A3A"/>
<path d="M160.052 92.4729V93.668H144.619V92.1091C144.983 91.2777 144.879 91.3297 144.879 84.6264C144.775 84.5225 144.671 84.3666 144.619 84.2627V83.8989C144.931 84.4705 145.398 84.9902 145.866 85.4059L150.699 88.7835C151.842 89.7188 153.453 89.7708 154.596 88.8354L159.117 84.7823C159.273 84.6264 159.429 84.5225 159.584 84.3666C159.532 84.8343 159.532 85.7176 159.532 90.81C159.584 91.3816 159.74 91.9532 160.052 92.4729Z" fill="url(#paint0_linear_4784_322)"/>
<path d="M93.4352 92.9406C90.941 92.8886 90.6811 92.421 90.6811 92.421V88.2639C93.3313 86.0814 95.5657 83.5352 96.1892 80.2096C97.8521 79.8459 98.8913 78.3389 98.7354 76.6761C98.6835 75.9486 98.2158 75.2731 98.1638 74.4936C98.1638 74.1299 98.1638 73.7661 98.1638 73.4024C98.1638 73.1426 98.1638 72.9347 98.1119 72.6749C98.1119 72.4151 98.0599 72.1553 98.0599 71.8955C97.904 70.6484 97.5923 69.3493 96.7608 67.8423C94.6823 63.9451 90.5772 61.3469 85.9525 61.3469C85.0171 61.3469 84.0818 61.4508 83.1984 61.6587C81.5356 62.0224 80.0287 62.7499 78.6776 63.7892C78.4178 63.9971 78.158 64.2049 77.8982 64.4128C77.8462 64.4647 77.7942 64.5167 77.6903 64.5686C76.2353 65.9197 75.0922 67.6345 74.4686 69.5571C73.845 71.4798 73.6891 73.4544 73.949 75.429C73.949 75.4809 73.949 75.5329 73.949 75.5849C73.949 75.6368 73.949 75.6888 73.949 75.7408C74.0009 76.1045 74.1048 76.0525 73.845 76.3643C73.7931 76.4682 73.6891 76.5722 73.6372 76.7281C73.3254 77.2997 73.0656 78.0791 73.4293 79.0144C74.0529 80.7812 75.3 80.5214 76.4432 81.5087C76.3912 81.5606 76.2873 81.6126 76.2353 81.6126H76.1834L74.8843 82.0283C67.0898 84.4706 66.2064 92.7327 74.2088 94.2397C73.6372 94.2916 73.1175 94.6034 72.7538 94.8632C70.2076 96.8378 68.5967 99.8517 68.181 102.814C68.0251 103.697 68.7526 104.528 69.688 104.528H82.0552C82.315 104.528 82.5749 104.321 82.6788 104.061C83.822 99.9037 86.4201 98.4487 91.8243 96.2662L94.9421 95.0191C95.4618 94.8113 96.0334 94.6034 96.6569 94.3436C97.2285 94.1358 97.1765 93.3043 96.553 93.1485C95.9294 92.9926 95.3059 92.9406 94.6823 92.8886C94.1627 92.9406 93.747 92.9406 93.4352 92.9406ZM77.5864 87.6403C77.5864 87.1207 77.9501 86.5491 78.7296 85.9256C79.0414 86.3413 79.4571 86.8089 79.9247 87.2246C80.2885 87.5364 80.6522 87.8482 81.0679 88.16C81.3277 88.3159 81.5876 88.5237 81.8474 88.7316C81.8993 88.7835 81.9513 88.8355 82.0033 88.8355C82.0552 88.8875 82.1592 88.9394 82.2111 88.9914V91.5376C82.1592 91.4856 82.1072 91.4337 82.0552 91.4337C81.7954 91.2258 81.5876 91.018 81.3797 90.8621C81.016 90.6023 80.6522 90.3944 80.2885 90.1865C80.1326 90.0826 80.0287 90.0307 79.9247 89.9267C78.7296 89.1473 77.6384 88.4198 77.5864 87.6403Z" fill="#A1A1A1"/>
<path d="M93.4352 92.9406C93.0195 94.4475 92.5518 95.3828 92.5518 95.3828L79.1453 93.2524L79.9247 89.9267C80.0287 90.0306 80.1846 90.0826 80.2885 90.1346C80.6522 90.3424 81.0679 90.6022 81.3797 90.862C81.5876 91.0179 81.8474 91.1738 82.0552 91.4336C82.1072 91.4856 82.1592 91.5376 82.1592 91.5376V88.9914C82.0552 88.9394 82.0033 88.8874 81.9513 88.8355C84.1338 89.9267 86.8359 90.4983 90.7331 88.2119C90.6811 88.2119 90.6811 88.2639 90.6292 88.2639V92.4209C90.6292 92.4209 90.941 92.8886 93.4352 92.9406Z" fill="url(#paint1_linear_4784_322)"/>
<path d="M98.0599 72.675C95.8255 73.4544 93.4352 73.7662 91.0449 73.5583C87.3035 73.2466 83.6661 71.7396 80.8601 69.2454C79.9247 71.9475 77.5864 73.974 74.9363 75.1692C74.5725 75.3251 74.2088 75.481 73.845 75.5849C73.845 75.5329 73.845 75.481 73.845 75.481C73.5852 73.5064 73.7411 71.5318 74.3647 69.6091C74.9882 67.6865 76.1314 65.9717 77.5864 64.6206C77.6384 64.5687 77.6903 64.5167 77.7943 64.4648C78.0541 64.2569 78.3139 64.0491 78.5737 63.8412C79.9247 62.8539 81.4836 62.1264 83.0945 61.7107C84.0298 61.5029 84.9132 61.3989 85.8486 61.3989C90.4733 61.3989 94.5784 63.9971 96.6569 67.8943C97.4364 69.4013 97.8001 70.7004 97.956 71.8955C98.0599 72.1553 98.0599 72.4151 98.0599 72.675Z" fill="#3A3A3A"/>
<path d="M78.8855 86.0813C79.1972 86.497 79.561 86.8607 79.8728 87.1725C79.509 86.8607 79.1453 86.497 78.8855 86.0813Z" fill="#3973F4"/>
<path d="M83.77 99.2281C82.7827 100.475 80.9121 100.527 79.3532 100.475C81.016 98.8644 80.0806 93.6161 74.2608 94.2396H74.2088C66.2064 92.7327 67.0898 84.4705 74.8324 82.0283L76.1314 81.6125C76.2354 81.6645 76.2873 81.7165 76.3393 81.8204C76.9628 83.4313 77.7943 84.7823 78.6776 85.8735C75.5079 88.5237 79.9248 89.3551 82.0553 91.3816C83.9259 92.4729 85.4848 97.0456 83.77 99.2281Z" fill="#3A3A3A"/>
<path d="M78.8335 86.0814C78.7815 86.0295 78.7296 85.9775 78.7296 85.9255C78.7296 85.9255 78.7815 86.0295 78.8335 86.0814Z" fill="#3973F4"/>
<path d="M153.037 106.919C153.297 108.841 151.79 110.608 149.815 110.608H88.9144C86.9398 110.608 85.4329 108.841 85.6927 106.919C86.2643 102.917 87.1477 102.086 93.0715 99.6958L94.5264 99.1242C97.2805 98.0329 100.866 96.6819 105.699 94.6553C106.79 94.1877 107.673 93.3562 108.141 92.265C108.401 91.6934 108.557 91.0179 108.557 90.3424V81.2488C108.401 81.0409 108.245 80.8851 108.141 80.6772C107.361 79.534 106.842 78.183 106.686 76.728L105.906 76.3643C103.568 76.9358 103.776 74.4416 103.152 69.661C102.893 67.6864 103.204 67.2707 104.088 66.9589L104.815 65.9716C100.346 55.8388 102.581 49.4992 106.998 47.2648C105.647 44.0431 105.543 42.8999 105.543 42.8999C105.543 42.8999 114.948 44.4588 118.17 43.8352C122.275 43.0038 128.614 43.9911 130.953 49.4473C134.85 51.0062 136.357 53.4484 136.721 56.1505C137.292 60.4115 134.85 65.0882 134.382 66.9069C134.434 67.0109 134.434 67.0628 134.486 67.1148C135.11 67.4266 135.318 67.9462 135.11 69.661C134.538 74.1818 134.694 76.9878 132.356 76.3643L130.277 80.0017C130.173 80.4174 130.173 80.5733 130.121 80.8851C130.017 81.5606 130.069 82.9116 130.069 90.3424C130.069 91.2258 130.329 92.1091 130.797 92.7846C131.316 93.5641 132.044 94.2396 132.927 94.6034C132.979 94.6034 132.979 94.6034 133.031 94.6553C138.383 96.8897 142.229 98.3447 145.035 99.4359C151.426 101.93 152.414 102.71 153.037 106.919Z" fill="#A1A1A1"/>
<path d="M134.434 66.9069C134.642 65.7637 134.122 64.3607 133.707 63.3734C133.655 63.2175 133.551 63.0617 133.499 62.8538C131.68 59.2164 127.679 57.7614 123.834 57.5535C114.013 57.0339 113.129 58.9046 110.063 56.0986C110.999 57.5535 111.103 59.788 109.648 62.594C108.608 64.5686 106.634 65.452 104.919 66.0236C100.45 55.8907 102.685 49.5512 107.102 47.3168C105.647 44.0431 105.543 42.8999 105.543 42.8999C105.543 42.8999 114.948 44.4588 118.17 43.8352C122.275 43.0038 128.614 43.9911 130.953 49.4473C134.85 51.0062 136.357 53.4484 136.721 56.1505C137.344 60.3596 134.902 65.0363 134.434 66.9069Z" fill="#3A3A3A"/>
<path d="M130.849 92.7845V94.5513H108.193V92.2649C108.453 91.6933 108.608 91.0178 108.608 90.3423V81.2487C108.453 81.0408 108.297 80.885 108.193 80.6771V80.1575C108.66 80.9889 109.284 81.7683 110.063 82.3919L117.182 87.3804C118.845 88.7834 121.236 88.8353 122.95 87.4843L129.602 81.5085C129.81 81.3007 130.069 81.0928 130.277 80.885C130.173 81.5605 130.225 82.9115 130.225 90.3423C130.173 91.2257 130.433 92.0571 130.849 92.7845Z" fill="url(#paint2_linear_4784_322)"/>
<defs>
<linearGradient id="paint0_linear_4784_322" x1="152.306" y1="93.3638" x2="152.306" y2="88.2467" gradientUnits="userSpaceOnUse">
<stop stop-color="#A1A1A1"/>
<stop offset="0.9913" stop-color="#8A8A8A"/>
</linearGradient>
<linearGradient id="paint1_linear_4784_322" x1="86.2626" y1="95.1595" x2="86.2626" y2="91.4034" gradientUnits="userSpaceOnUse">
<stop stop-color="#A1A1A1"/>
<stop offset="0.9913" stop-color="#8A8A8A"/>
</linearGradient>
<linearGradient id="paint2_linear_4784_322" x1="119.477" y1="94.1031" x2="119.477" y2="86.5635" gradientUnits="userSpaceOnUse">
<stop stop-color="#A1A1A1"/>
<stop offset="0.9913" stop-color="#8A8A8A"/>
</linearGradient>
</defs>
</svg>
