<svg width="20" height="20" viewBox="0 0 20 20" fill="none" xmlns="http://www.w3.org/2000/svg">
<path d="M11.5 1C12.3284 1 13 1.67157 13 2.5V3L14 3C14.5523 3 15 3.44772 15 4V5L16 5C17.1046 5 18 5.89543 18 7V12.5213L16.2928 9.10628C15.5552 7.63093 13.45 7.63133 12.713 9.10697L12 10.5346V9.5C12 9.22386 11.7761 9 11.5 9C11.2239 9 11 9.22386 11 9.5L11 12.5C11 12.5116 11.0004 12.5231 11.0012 12.5345L9.2704 16H4C2.89543 16 2 15.1046 2 14V7C2 5.89543 2.89543 5 4 5H5V4C5 3.44772 5.44772 3 6 3L7 3V2.5C7 1.67157 7.67157 1 8.5 1H11.5ZM8 12.5C8 12.7761 8.22386 13 8.5 13C8.77614 13 9 12.7761 9 12.5V9.5C9 9.22386 8.77614 9 8.5 9C8.22386 9 8 9.22386 8 9.5V12.5ZM5 12.5C5 12.7761 5.22386 13 5.5 13C5.77614 13 6 12.7761 6 12.5V9.5C6 9.22386 5.77614 9 5.5 9C5.22386 9 5 9.22386 5 9.5L5 12.5Z" fill="#212121"/>
<path d="M10.1068 16.552L13.6029 9.55356C13.9716 8.81564 15.0246 8.81544 15.3935 9.55322L18.893 16.5517C19.2258 17.2171 18.7419 18 17.9978 18H11.0022C10.2583 18 9.77438 17.2174 10.1068 16.552ZM14.4979 10.9947C14.2215 10.9947 13.9975 11.2187 13.9975 11.4951V14.4974C13.9975 14.7738 14.2215 14.9978 14.4979 14.9978C14.7743 14.9978 14.9983 14.7738 14.9983 14.4974V11.4951C14.9983 11.2187 14.7743 10.9947 14.4979 10.9947ZM14.9983 16.499C14.9983 16.2226 14.7743 15.9986 14.4979 15.9986C14.2215 15.9986 13.9975 16.2226 13.9975 16.499C13.9975 16.7753 14.2215 16.9993 14.4979 16.9993C14.7743 16.9993 14.9983 16.7753 14.9983 16.499Z" fill="#212121"/>
</svg>
