<svg width="20" height="20" viewBox="0 0 20 20" fill="none" xmlns="http://www.w3.org/2000/svg">
<path d="M10.5 1C11.3284 1 12 1.67157 12 2.5V3H12.5C13.3284 3 14 3.67157 14 4.5V5L15 5C16.1046 5 17 5.89543 17 7V12.5213L16 10.521L16 7C16 6.44772 15.5523 6 15 6L13.51 6C13.2283 6 13 5.77167 13 5.49V4.5C13 4.22386 12.7761 4 12.5 4H11.51C11.2283 4 11 3.77167 11 3.49V2.5C11 2.22386 10.7761 2 10.5 2L7.5 2C7.22386 2 7 2.22386 7 2.5V3.49C7 3.77166 6.77167 4 6.49 4H5.5C5.22386 4 5 4.22386 5 4.5V5.49C5 5.77166 4.77167 6 4.49 6L3 6C2.44772 6 2 6.44772 2 7L2 14C2 14.5523 2.44772 15 3 15H8.76983L8.2704 16H3C1.89543 16 1 15.1046 1 14V7C1 5.89543 1.89543 5 3 5H4V4.5C4 3.67157 4.67157 3 5.5 3H6V2.5C6 1.67157 6.67157 1 7.5 1H10.5Z" fill="#212121"/>
<path d="M11 9.5V10.5346L10.0012 12.5345C10.0004 12.5231 10 12.5116 10 12.5L10 9.5C10 9.22386 10.2239 9 10.5 9C10.7761 9 11 9.22386 11 9.5Z" fill="#212121"/>
<path d="M7 12.5C7 12.7761 7.22386 13 7.5 13C7.77614 13 8 12.7761 8 12.5V9.5C8 9.22386 7.77614 9 7.5 9C7.22386 9 7 9.22386 7 9.5V12.5Z" fill="#212121"/>
<path d="M4 12.5C4 12.7761 4.22386 13 4.5 13C4.77614 13 5 12.7761 5 12.5V9.5C5 9.22386 4.77614 9 4.5 9C4.22386 9 4 9.22386 4 9.5L4 12.5Z" fill="#212121"/>
<path d="M9.10678 16.552L12.6029 9.55356C12.9716 8.81564 14.0246 8.81544 14.3935 9.55322L17.893 16.5517C18.2258 17.2171 17.7419 18 16.9978 18H10.0022C9.2583 18 8.77438 17.2174 9.10678 16.552ZM13.4979 10.9947C13.2215 10.9947 12.9975 11.2187 12.9975 11.4951V14.4974C12.9975 14.7738 13.2215 14.9978 13.4979 14.9978C13.7743 14.9978 13.9983 14.7738 13.9983 14.4974V11.4951C13.9983 11.2187 13.7743 10.9947 13.4979 10.9947ZM13.9983 16.499C13.9983 16.2226 13.7743 15.9986 13.4979 15.9986C13.2215 15.9986 12.9975 16.2226 12.9975 16.499C12.9975 16.7753 13.2215 16.9993 13.4979 16.9993C13.7743 16.9993 13.9983 16.7753 13.9983 16.499Z" fill="#212121"/>
</svg>
