<svg width="32" height="32" viewBox="0 0 32 32" fill="none" xmlns="http://www.w3.org/2000/svg">
<path d="M20.5 4C21.8807 4 23 5.11929 23 6.5V7L24 7C25.1046 7 26 7.89543 26 9V11H27C28.6569 11 30 12.3431 30 14L30 23.8707L25.5881 15.5571C24.4868 13.4818 21.5132 13.4818 20.4119 15.5571L19 18.2175V18C19 17.4477 18.5523 17 18 17C17.4477 17 17 17.4477 17 18V21.9862L14.4139 26.8594C14.0424 27.5594 13.9348 28.3027 14.0377 29H5C3.34315 29 2 27.6569 2 26V14C2 12.3431 3.34315 11 5 11L6 11V10C6 8.89543 6.89543 8 8 8H9V6.5C9 5.11929 10.1193 4 11.5 4H20.5ZM13 23C13 23.5523 13.4477 24 14 24C14.5523 24 15 23.5523 15 23V18C15 17.4477 14.5523 17 14 17C13.4477 17 13 17.4477 13 18V23ZM9.00002 23C9.00002 23.5523 9.44773 24 10 24C10.5523 24 11 23.5523 11 23V18C11 17.4477 10.5523 17 10 17C9.44773 17 9.00002 17.4477 9.00002 18L9.00002 23Z" fill="#212121"/>
<path d="M15.7389 27.5625L21.7368 16.2602C22.2744 15.2473 23.7256 15.2473 24.2631 16.2602L30.2611 27.5625C30.968 28.8945 30.0025 30.5 28.4944 30.5H17.5055C15.9975 30.5 15.032 28.8945 15.7389 27.5625ZM23 19C22.5858 19 22.25 19.3358 22.25 19.75V25.25C22.25 25.6642 22.5858 26 23 26C23.4142 26 23.75 25.6642 23.75 25.25V19.75C23.75 19.3358 23.4142 19 23 19ZM23 29C23.5523 29 24 28.5523 24 28C24 27.4477 23.5523 27 23 27C22.4477 27 22 27.4477 22 28C22 28.5523 22.4477 29 23 29Z" fill="#212121"/>
</svg>
