<svg width="32" height="32" viewBox="0 0 32 32" fill="none" xmlns="http://www.w3.org/2000/svg">
<path d="M19.5 2C20.8807 2 22 3.11929 22 4.5V5L23 5C24.1046 5 25 5.89543 25 7V9H26C27.6569 9 29 10.3431 29 12L29 21.8707L27 18.102L27 12C27 11.4477 26.5523 11 26 11H24.01C23.4522 11 23 10.5478 23 9.99V7H21.01C20.4522 7 20 6.54781 20 5.99V4.5C20 4.22386 19.7761 4 19.5 4L10.5 4C10.2239 4 10 4.22386 10 4.5V6.99C10 7.54781 9.54781 8 8.99 8H7V9.99C7 10.5478 6.54781 11 5.99 11H4C3.44772 11 3 11.4477 3 12L3 24C3 24.5523 3.44772 25 4 25H13.3431C13.029 25.6584 12.9417 26.3492 13.0377 27H4C2.34315 27 1 25.6569 1 24V12C1 10.3431 2.34315 9 4 9L5 9V8C5 6.89543 5.89543 6 7 6H8V4.5C8 3.11929 9.11929 2 10.5 2H19.5Z" fill="#212121"/>
<path d="M18 16V16.2175L16 19.9862V16C16 15.4477 16.4477 15 17 15C17.5523 15 18 15.4477 18 16Z" fill="#212121"/>
<path d="M12 21C12 21.5523 12.4477 22 13 22C13.5523 22 14 21.5523 14 21V16C14 15.4477 13.5523 15 13 15C12.4477 15 12 15.4477 12 16V21Z" fill="#212121"/>
<path d="M8.00002 21C8.00002 21.5523 8.44773 22 9.00002 22C9.5523 22 10 21.5523 10 21V16C10 15.4477 9.5523 15 9.00002 15C8.44773 15 8.00002 15.4477 8.00002 16L8.00002 21Z" fill="#212121"/>
<path d="M14.7389 25.5625L20.7368 14.2602C21.2744 13.2473 22.7256 13.2473 23.2631 14.2602L29.2611 25.5625C29.968 26.8945 29.0025 28.5 27.4944 28.5H16.5055C14.9975 28.5 14.032 26.8945 14.7389 25.5625ZM22 17C21.5858 17 21.25 17.3358 21.25 17.75V23.25C21.25 23.6642 21.5858 24 22 24C22.4142 24 22.75 23.6642 22.75 23.25V17.75C22.75 17.3358 22.4142 17 22 17ZM22 27C22.5523 27 23 26.5523 23 26C23 25.4477 22.5523 25 22 25C21.4477 25 21 25.4477 21 26C21 26.5523 21.4477 27 22 27Z" fill="#212121"/>
</svg>
