<svg width="231" height="160" viewBox="0 0 231 160" fill="none" xmlns="http://www.w3.org/2000/svg">
<path d="M111.986 138.711C142.362 138.711 166.986 114.087 166.986 83.7114C166.986 53.3358 142.362 28.7114 111.986 28.7114C81.6102 28.7114 56.9858 53.3358 56.9858 83.7114C56.9858 114.087 81.6102 138.711 111.986 138.711Z" fill="#242424"/>
<path d="M95.3496 42.1748V48.01" stroke="#3A3A3A" stroke-width="2" stroke-miterlimit="10" stroke-linejoin="round"/>
<path d="M97.0851 49.0966C97.0851 50.0385 96.3222 50.8014 95.3819 50.8014C94.4416 50.8014 93.6787 50.0385 93.6787 49.0966C93.6787 48.1548 94.4416 47.3918 95.3819 47.3918C96.3222 47.3918 97.0851 48.1548 97.0851 49.0966Z" stroke="#3A3A3A"/>
<path d="M93.2417 54.9665C93.2417 56.3328 94.4829 57.4507 95.9724 57.0781C96.7792 56.8918 97.3998 56.2707 97.586 55.4633C97.8343 54.2833 97.1516 53.1654 96.0965 52.8548C95.7242 52.7306 95.4759 52.4201 95.4759 51.9854V50.0601" stroke="#3A3A3A" stroke-width="2" stroke-miterlimit="10" stroke-linejoin="round"/>
<path d="M68.6343 71.441L94.8726 56.7676L121.514 71.2927" stroke="#3A3A3A" stroke-width="2" stroke-miterlimit="10" stroke-linejoin="round"/>
<path d="M181.789 35.4878V42.1746H85.4565L94.7904 36.0593L181.789 35.4878Z" stroke="#3A3A3A" stroke-width="2" stroke-miterlimit="10" stroke-linejoin="round"/>
<path d="M148.739 36.876V46.3134" stroke="#C2C8D6" stroke-width="2" stroke-miterlimit="10" stroke-linejoin="round"/>
<path d="M160.626 115.743H148.933V24.2684L154.824 21L160.626 24.2684V115.743Z" stroke="#3A3A3A" stroke-width="2" stroke-miterlimit="10" stroke-linejoin="round"/>
<path d="M148.933 58.3345H160.626" stroke="#3A3A3A" stroke-width="2" stroke-miterlimit="10" stroke-linejoin="round"/>
<path d="M148.933 94.0845H160.626" stroke="#3A3A3A" stroke-width="2" stroke-miterlimit="10" stroke-linejoin="round"/>
<path d="M148.933 70.0369H160.626" stroke="#3A3A3A" stroke-width="2" stroke-miterlimit="10"/>
<path d="M148.933 81.8259H160.626" stroke="#3A3A3A" stroke-width="2" stroke-miterlimit="10"/>
<path d="M148.933 105.787H160.626" stroke="#3A3A3A" stroke-width="2" stroke-miterlimit="10"/>
<path d="M128.404 35.6734L154.642 21L181.284 35.5251" stroke="#3A3A3A" stroke-width="2" stroke-miterlimit="10" stroke-linejoin="round"/>
<path d="M160.069 46.0757L148.933 57.7776" stroke="#3A3A3A" stroke-width="2" stroke-miterlimit="10" stroke-linejoin="round"/>
<path d="M160.069 81.8259L148.933 93.5278" stroke="#3A3A3A" stroke-width="2" stroke-miterlimit="10" stroke-linejoin="round"/>
<path d="M160.018 36.6028L149.001 45.4228" stroke="#C2C8D6" stroke-width="2" stroke-miterlimit="10" stroke-linejoin="round"/>
<path d="M160.069 58.8923L148.933 69.4798" stroke="#3A3A3A" stroke-width="2" stroke-miterlimit="10" stroke-linejoin="round"/>
<path d="M160.069 94.6423L148.933 105.23" stroke="#3A3A3A" stroke-width="2" stroke-miterlimit="10" stroke-linejoin="round"/>
<path d="M160.069 24.9011L148.933 35.4886" stroke="#3A3A3A" stroke-width="2" stroke-miterlimit="10" stroke-linejoin="round"/>
<path d="M160.069 70.5938L148.933 81.1812" stroke="#3A3A3A" stroke-width="2" stroke-miterlimit="10" stroke-linejoin="round"/>
<path d="M160.069 106.344L148.933 116.931" stroke="#3A3A3A" stroke-width="2" stroke-miterlimit="10" stroke-linejoin="round"/>
<path d="M167.309 123.081H142.251V126.981H167.309V123.081Z" fill="#3A3A3A" stroke="#3A3A3A" stroke-width="2" stroke-miterlimit="10" stroke-linejoin="round"/>
<path d="M184.735 43.303H174.604V47.358H184.735V43.303Z" stroke="#3A3A3A" stroke-width="2" stroke-miterlimit="10" stroke-linejoin="round"/>
<path d="M184.735 47.3579H174.604V51.413H184.735V47.3579Z" stroke="#3A3A3A" stroke-width="2" stroke-miterlimit="10" stroke-linejoin="round"/>
<path d="M165.467 115.28H144.093L142.251 123.081H167.309L165.467 115.28Z" fill="#3A3A3A" stroke="#3A3A3A" stroke-width="2" stroke-miterlimit="10" stroke-linejoin="round"/>
<path d="M138.381 43.6904L144.416 50.3055C144.818 50.7465 145.381 51.0111 145.864 51.0111H160.99V35.4878H137.657V42.0146C137.818 42.7202 137.979 43.2494 138.381 43.6904Z" fill="#3A3A3A" stroke="#3A3A3A" stroke-width="2" stroke-miterlimit="10" stroke-linejoin="round"/>
<path d="M145.592 46.0413L155.059 46.0413L155.059 38.7972L145.592 38.7972L145.592 46.0413Z" fill="#242424"/>
<path d="M60.749 127.243H185.988" stroke="#3A3A3A" stroke-width="2" stroke-miterlimit="10" stroke-linecap="round" stroke-linejoin="round"/>
<path d="M45 127.243H54.0527" stroke="#3A3A3A" stroke-width="2" stroke-miterlimit="10" stroke-linecap="round" stroke-linejoin="round"/>
<g filter="url(#filter0_d_4815_447)">
<path d="M130.592 66.5692V113.65C130.592 115.376 129.171 116.797 127.447 116.797H60.3506C58.6259 116.797 57.2056 115.376 57.2056 113.65V66.5692C57.2056 64.8432 58.6259 63.4219 60.3506 63.4219H127.447C129.171 63.4219 130.592 64.8432 130.592 66.5692Z" fill="#5C5C5C"/>
</g>
<rect x="80.043" y="73.1418" width="46.8079" height="20.5955" rx="2" fill="#4D4D4D"/>
<rect x="80.043" y="97.4824" width="14.3544" height="14.9785" rx="2" fill="#4D4D4D"/>
<rect x="96.8936" y="97.4824" width="13.1062" height="14.9785" rx="2" fill="#4D4D4D"/>
<rect x="112.495" y="97.4824" width="14.3544" height="14.9785" rx="2" fill="#4D4D4D"/>
<path d="M58.1973 69.5256C58.1973 68.4211 59.0927 67.5256 60.1973 67.5256H74.9204C76.025 67.5256 76.9204 68.4211 76.9204 69.5256V114.206C76.9204 115.31 76.025 116.206 74.9204 116.206H60.1973C59.0927 116.206 58.1973 115.31 58.1973 114.206V69.5256Z" fill="#4D4D4D"/>
<path d="M130.592 66.5692V68.8535H57.2056V66.5692C57.2056 64.8432 58.6259 63.4219 60.3506 63.4219H127.447C129.171 63.4219 130.592 64.8432 130.592 66.5692Z" fill="#3A3A3A"/>
<path d="M60.5038 67.1277C61.0361 67.1277 61.4676 66.6959 61.4676 66.1632C61.4676 65.6305 61.0361 65.1987 60.5038 65.1987C59.9715 65.1987 59.54 65.6305 59.54 66.1632C59.54 66.6959 59.9715 67.1277 60.5038 67.1277Z" fill="#CCCCCC"/>
<path opacity="0.6" d="M63.4965 67.1277C64.0288 67.1277 64.4603 66.6959 64.4603 66.1632C64.4603 65.6305 64.0288 65.1987 63.4965 65.1987C62.9642 65.1987 62.5327 65.6305 62.5327 66.1632C62.5327 66.6959 62.9642 67.1277 63.4965 67.1277Z" fill="#777777"/>
<path opacity="0.4" d="M66.539 67.1277C67.0713 67.1277 67.5028 66.6959 67.5028 66.1632C67.5028 65.6305 67.0713 65.1987 66.539 65.1987C66.0067 65.1987 65.5752 65.6305 65.5752 66.1632C65.5752 66.6959 66.0067 67.1277 66.539 67.1277Z" fill="#5C5C5C"/>
<defs>
<filter id="filter0_d_4815_447" x="35.2056" y="52.4219" width="117.386" height="97.3755" filterUnits="userSpaceOnUse" color-interpolation-filters="sRGB">
<feFlood flood-opacity="0" result="BackgroundImageFix"/>
<feColorMatrix in="SourceAlpha" type="matrix" values="0 0 0 0 0 0 0 0 0 0 0 0 0 0 0 0 0 0 127 0" result="hardAlpha"/>
<feOffset dy="11"/>
<feGaussianBlur stdDeviation="11"/>
<feColorMatrix type="matrix" values="0 0 0 0 0 0 0 0 0 0 0 0 0 0 0 0 0 0 0.27 0"/>
<feBlend mode="normal" in2="BackgroundImageFix" result="effect1_dropShadow_4815_447"/>
<feBlend mode="normal" in="SourceGraphic" in2="effect1_dropShadow_4815_447" result="shape"/>
</filter>
</defs>
</svg>
