<svg width="231" height="160" viewBox="0 0 231 160" fill="none" xmlns="http://www.w3.org/2000/svg">
<path d="M111.998 138.592C142.373 138.592 166.998 113.968 166.998 83.592C166.998 53.2164 142.373 28.592 111.998 28.592C81.6219 28.592 56.9976 53.2164 56.9976 83.592C56.9976 113.968 81.6219 138.592 111.998 138.592Z" fill="#EBEBEB"/>
<path d="M95.3613 42.0557V47.8909" stroke="#D9D2C7" stroke-width="2" stroke-miterlimit="10" stroke-linejoin="round"/>
<path d="M97.0968 48.9775C97.0968 49.9193 96.3339 50.6823 95.3936 50.6823C94.4533 50.6823 93.6904 49.9193 93.6904 48.9775C93.6904 48.0356 94.4533 47.2727 95.3936 47.2727C96.3339 47.2727 97.0968 48.0356 97.0968 48.9775Z" stroke="#D9D2C7"/>
<path d="M93.2534 54.8471C93.2534 56.2134 94.4947 57.3313 95.9841 56.9587C96.7909 56.7724 97.4116 56.1513 97.5977 55.3439C97.846 54.1639 97.1633 53.046 96.1083 52.7355C95.7359 52.6112 95.4876 52.3007 95.4876 51.866V49.9407" stroke="#D9D2C7" stroke-width="2" stroke-miterlimit="10" stroke-linejoin="round"/>
<path d="M68.646 71.3218L94.8844 56.6483L121.526 71.1734" stroke="#D9D2C7" stroke-width="2" stroke-miterlimit="10" stroke-linejoin="round"/>
<path d="M181.8 35.3684V42.0552H85.4683L94.8021 35.9399L181.8 35.3684Z" fill="white" stroke="#D9D2C7" stroke-width="2" stroke-miterlimit="10" stroke-linejoin="round"/>
<path d="M148.75 36.7565V46.1939" stroke="#C2C8D6" stroke-width="2" stroke-miterlimit="10" stroke-linejoin="round"/>
<path d="M160.638 115.624H148.944V24.149L154.836 20.8806L160.638 24.149V115.624Z" stroke="#D9D2C7" stroke-width="2" stroke-miterlimit="10" stroke-linejoin="round"/>
<path d="M148.944 58.2152H160.638" stroke="#D9D2C7" stroke-width="2" stroke-miterlimit="10" stroke-linejoin="round"/>
<path d="M148.944 93.9652H160.638" stroke="#D9D2C7" stroke-width="2" stroke-miterlimit="10" stroke-linejoin="round"/>
<path d="M148.944 69.9175H160.638" stroke="#D9D2C7" stroke-width="2" stroke-miterlimit="10"/>
<path d="M148.944 81.7065H160.638" stroke="#D9D2C7" stroke-width="2" stroke-miterlimit="10"/>
<path d="M148.944 105.668H160.638" stroke="#D9D2C7" stroke-width="2" stroke-miterlimit="10"/>
<path d="M128.416 35.5541L154.654 20.8806L181.295 35.4057" stroke="#D9D2C7" stroke-width="2" stroke-miterlimit="10" stroke-linejoin="round"/>
<path d="M160.081 45.9563L148.944 57.6582" stroke="#D9D2C7" stroke-width="2" stroke-miterlimit="10" stroke-linejoin="round"/>
<path d="M160.081 81.7065L148.944 93.4084" stroke="#D9D2C7" stroke-width="2" stroke-miterlimit="10" stroke-linejoin="round"/>
<path d="M160.03 36.4833L149.013 45.3033" stroke="#C2C8D6" stroke-width="2" stroke-miterlimit="10" stroke-linejoin="round"/>
<path d="M160.081 58.7728L148.944 69.3603" stroke="#D9D2C7" stroke-width="2" stroke-miterlimit="10" stroke-linejoin="round"/>
<path d="M160.081 94.5229L148.944 105.11" stroke="#D9D2C7" stroke-width="2" stroke-miterlimit="10" stroke-linejoin="round"/>
<path d="M160.081 24.7817L148.944 35.3692" stroke="#D9D2C7" stroke-width="2" stroke-miterlimit="10" stroke-linejoin="round"/>
<path d="M160.081 70.4742L148.944 81.0617" stroke="#D9D2C7" stroke-width="2" stroke-miterlimit="10" stroke-linejoin="round"/>
<path d="M160.081 106.224L148.944 116.812" stroke="#D9D2C7" stroke-width="2" stroke-miterlimit="10" stroke-linejoin="round"/>
<path d="M167.321 122.961H142.263V126.862H167.321V122.961Z" fill="white" stroke="#E4DFD9" stroke-width="2" stroke-miterlimit="10" stroke-linejoin="round"/>
<path d="M184.747 43.1836H174.616V47.2386H184.747V43.1836Z" stroke="#D9D2C7" stroke-width="2" stroke-miterlimit="10" stroke-linejoin="round"/>
<path d="M184.747 47.2384H174.616V51.2934H184.747V47.2384Z" stroke="#D9D2C7" stroke-width="2" stroke-miterlimit="10" stroke-linejoin="round"/>
<path d="M165.479 115.161H144.105L142.263 122.962H167.321L165.479 115.161Z" fill="white" stroke="#E4DFD9" stroke-width="2" stroke-miterlimit="10" stroke-linejoin="round"/>
<path d="M138.393 43.5711L144.427 50.1861C144.83 50.6271 145.393 50.8917 145.876 50.8917H161.001V35.3684H137.669V41.8953C137.83 42.6009 137.991 43.1301 138.393 43.5711Z" fill="white" stroke="#D9D2C7" stroke-width="2" stroke-miterlimit="10" stroke-linejoin="round"/>
<path d="M145.604 45.9219L155.07 45.9219L155.07 38.6778L145.604 38.6778L145.604 45.9219Z" fill="white" stroke="#D9D2C7" stroke-width="2" stroke-miterlimit="10" stroke-linejoin="round"/>
<path d="M60.7607 127.124H186" stroke="#E4DFD9" stroke-width="2" stroke-miterlimit="10" stroke-linecap="round" stroke-linejoin="round"/>
<path d="M45.0117 127.124H54.0644" stroke="#E4DFD9" stroke-width="2" stroke-miterlimit="10" stroke-linecap="round" stroke-linejoin="round"/>
<g filter="url(#filter0_d_4815_432)">
<path d="M130.604 66.4497V113.531C130.604 115.257 129.183 116.678 127.459 116.678H60.3623C58.6376 116.678 57.2173 115.257 57.2173 113.531V66.4497C57.2173 64.7237 58.6376 63.3024 60.3623 63.3024H127.459C129.183 63.3024 130.604 64.7237 130.604 66.4497Z" fill="url(#paint0_linear_4815_432)"/>
</g>
<rect x="80.0547" y="73.0222" width="46.8079" height="20.5955" rx="2" fill="#EDE5DA"/>
<rect x="80.0547" y="97.3629" width="14.3544" height="14.9785" rx="2" fill="#EDE5DA"/>
<rect x="96.9053" y="97.3629" width="13.1062" height="14.9785" rx="2" fill="#EDE5DA"/>
<rect x="112.507" y="97.3629" width="14.3544" height="14.9785" rx="2" fill="#EDE5DA"/>
<path d="M58.209 69.4063C58.209 68.3017 59.1044 67.4062 60.209 67.4062H74.9322C76.0367 67.4062 76.9322 68.3017 76.9322 69.4062V114.086C76.9322 115.191 76.0367 116.086 74.9322 116.086H60.209C59.1044 116.086 58.209 115.191 58.209 114.086V69.4063Z" fill="#EDE5DA"/>
<path d="M130.604 66.4497V68.734H57.2173V66.4497C57.2173 64.7237 58.6376 63.3024 60.3623 63.3024H127.459C129.183 63.3024 130.604 64.7237 130.604 66.4497Z" fill="url(#paint1_linear_4815_432)"/>
<path d="M60.5156 67.0082C61.0478 67.0082 61.4794 66.5764 61.4794 66.0437C61.4794 65.511 61.0478 65.0792 60.5156 65.0792C59.9833 65.0792 59.5518 65.511 59.5518 66.0437C59.5518 66.5764 59.9833 67.0082 60.5156 67.0082Z" fill="#F4F1EA"/>
<path opacity="0.6" d="M63.5082 67.0082C64.0405 67.0082 64.472 66.5764 64.472 66.0437C64.472 65.511 64.0405 65.0792 63.5082 65.0792C62.9759 65.0792 62.5444 65.511 62.5444 66.0437C62.5444 66.5764 62.9759 67.0082 63.5082 67.0082Z" fill="#BAB7B4"/>
<path opacity="0.4" d="M66.5507 67.0082C67.083 67.0082 67.5145 66.5764 67.5145 66.0437C67.5145 65.511 67.083 65.0792 66.5507 65.0792C66.0184 65.0792 65.5869 65.511 65.5869 66.0437C65.5869 66.5764 66.0184 67.0082 66.5507 67.0082Z" fill="#949390"/>
<defs>
<filter id="filter0_d_4815_432" x="35.2173" y="52.3024" width="117.386" height="97.3756" filterUnits="userSpaceOnUse" color-interpolation-filters="sRGB">
<feFlood flood-opacity="0" result="BackgroundImageFix"/>
<feColorMatrix in="SourceAlpha" type="matrix" values="0 0 0 0 0 0 0 0 0 0 0 0 0 0 0 0 0 0 127 0" result="hardAlpha"/>
<feOffset dy="11"/>
<feGaussianBlur stdDeviation="11"/>
<feColorMatrix type="matrix" values="0 0 0 0 0.576471 0 0 0 0 0.501961 0 0 0 0 0.396078 0 0 0 0.37 0"/>
<feBlend mode="normal" in2="BackgroundImageFix" result="effect1_dropShadow_4815_432"/>
<feBlend mode="normal" in="SourceGraphic" in2="effect1_dropShadow_4815_432" result="shape"/>
</filter>
<linearGradient id="paint0_linear_4815_432" x1="93.8865" y1="62.0677" x2="93.8865" y2="117.253" gradientUnits="userSpaceOnUse">
<stop stop-color="#FDFEFF"/>
<stop offset="0.9964" stop-color="#F5F2EC"/>
</linearGradient>
<linearGradient id="paint1_linear_4815_432" x1="127.693" y1="63.3024" x2="59.6049" y2="66.5052" gradientUnits="userSpaceOnUse">
<stop stop-color="#606060"/>
<stop offset="1" stop-color="#7B7B7B"/>
</linearGradient>
</defs>
</svg>
