<svg width="230" height="160" viewBox="0 0 230 160" fill="none" xmlns="http://www.w3.org/2000/svg">
<g filter="url(#filter0_dd_7647_1567)">
<path d="M102.691 38.6676L185.571 33.9411L146.826 72.0167L126.465 55.9322L117.589 68.3246L117.777 50.5258L102.691 38.6676Z" fill="url(#paint0_linear_7647_1567)"/>
<path d="M102.691 38.6676L185.571 33.9411L146.826 72.0167L126.465 55.9322L117.589 68.3246L117.777 50.5258L102.691 38.6676Z" fill="url(#paint1_linear_7647_1567)" fill-opacity="0.2"/>
<path d="M102.691 38.6676L185.571 33.9411L146.826 72.0167L126.465 55.9322L117.589 68.3246L117.777 50.5258L102.691 38.6676Z" fill="url(#paint2_linear_7647_1567)" fill-opacity="0.2"/>
</g>
<path opacity="0.3" d="M185.571 33.941L118.333 50.4261L118.071 68.429L126.897 56.0258L185.571 33.941Z" fill="#090808"/>
<path d="M87.1447 129.736C87.6245 129.463 88.2346 129.631 88.508 130.111C88.7815 130.59 88.6148 131.201 88.135 131.475C87.6466 131.753 87.1647 132.001 86.6975 132.217L86.2346 132.421C85.3915 132.778 84.5214 133.03 83.635 133.186L83.5334 133.198C83.0277 133.236 82.5656 132.884 82.4758 132.374C82.3802 131.83 82.7437 131.312 83.2873 131.216L83.5656 131.163C84.2129 131.031 84.8443 130.838 85.4553 130.579L85.8596 130.401C86.2713 130.211 86.7025 129.989 87.1447 129.736ZM72.9143 130.052C73.1407 129.586 73.6806 129.376 74.1565 129.55L74.2512 129.59L74.802 129.849C75.9081 130.348 77.0306 130.737 78.1467 130.998L78.7043 131.118L78.8039 131.143C79.2887 131.29 79.5921 131.784 79.4924 132.292C79.3926 132.8 78.9248 133.143 78.4201 133.096L78.3186 133.081L77.6916 132.945C76.4372 132.652 75.1921 132.218 73.9797 131.671L73.3762 131.389L73.2863 131.339C72.8553 131.072 72.6878 130.518 72.9143 130.052ZM92.965 124.717C93.3128 124.348 93.8903 124.295 94.301 124.611C94.739 124.947 94.821 125.575 94.4846 126.013L94.1525 126.432C93.3642 127.398 92.4825 128.277 91.5676 129.058C91.1475 129.416 90.5169 129.366 90.1584 128.946C89.8 128.526 89.8496 127.895 90.2697 127.536C91.224 126.722 92.1261 125.801 92.8986 124.795L92.965 124.717ZM66.7053 123.809C67.6197 124.842 68.6378 125.816 69.7297 126.697L70.2024 127.07L70.2805 127.136C70.6488 127.484 70.7014 128.061 70.3859 128.472C70.0704 128.882 69.4985 128.98 69.0676 128.713L68.9836 128.654L68.4738 128.253C67.2961 127.302 66.1965 126.252 65.2072 125.134L66.7053 123.809ZM65.2932 123.723C65.7068 123.357 66.3393 123.395 66.7053 123.809L65.2072 125.134C64.8414 124.72 64.8798 124.089 65.2932 123.723ZM96.9787 117.064C97.1357 118.024 97.2209 119.005 97.2209 120L97.217 120.09L97.2043 120.179C97.0723 120.905 96.8703 121.609 96.6106 122.287L96.5686 122.381C96.3403 122.833 95.8019 123.049 95.3186 122.863C94.803 122.666 94.5449 122.087 94.7424 121.571L94.8967 121.141C95.0319 120.735 95.139 120.323 95.219 119.906C95.2138 119.057 95.1406 118.215 95.0051 117.386L96.9787 117.064ZM62.2424 115.072C62.389 116.007 62.6259 116.922 62.9631 117.811L63.177 118.345C63.3271 118.7 63.4925 119.055 63.6721 119.409L63.9514 119.939L63.9963 120.031C64.1942 120.498 64.0112 121.047 63.5578 121.297C63.1041 121.547 62.5409 121.407 62.2531 120.989L62.1994 120.903L61.8879 120.315C61.6879 119.921 61.5033 119.523 61.3342 119.122L61.093 118.521C60.7039 117.496 60.4326 116.445 60.2658 115.382L62.2424 115.072ZM95.8303 116.238C96.3753 116.149 96.8896 116.519 96.9787 117.064L95.0051 117.386C94.9162 116.841 95.2856 116.328 95.8303 116.238ZM61.0988 114.239C61.6444 114.154 62.1568 114.527 62.2424 115.072L60.2658 115.382C60.1805 114.837 60.5535 114.325 61.0988 114.239ZM92.3195 106.538C93.2829 107.869 94.1777 109.31 94.9318 110.841L95.2463 111.503L95.2834 111.598C95.4468 112.078 95.2239 112.613 94.7531 112.828C94.2823 113.044 93.7313 112.863 93.4748 112.426L93.4279 112.335L93.1369 111.725C92.4395 110.309 91.6064 108.964 90.6994 107.711L91.51 107.125L92.3195 106.538ZM62.2414 102.87C62.4842 102.425 63.0289 102.228 63.5061 102.429C64.0151 102.643 64.2544 103.229 64.0402 103.738L63.7609 104.425C63.1294 106.035 62.6432 107.689 62.3547 109.34C62.2597 109.884 61.7414 110.248 61.1975 110.153C60.6535 110.058 60.2891 109.54 60.384 108.996C60.7436 106.938 61.3803 104.902 62.1965 102.962L62.2414 102.87ZM90.9231 106.315C91.3704 105.991 91.9956 106.091 92.3195 106.538L90.6994 107.711C90.3757 107.264 90.4758 106.638 90.9231 106.315ZM82.9455 98.7414C83.2529 98.3248 83.8228 98.2157 84.259 98.4738L84.344 98.5304L84.884 98.9367C85.4232 99.3496 85.9601 99.7835 86.4943 100.239L87.01 100.689C87.3567 100.997 87.7083 101.322 88.0627 101.662L88.5959 102.185L88.6652 102.261C88.9853 102.654 88.9619 103.233 88.5959 103.599C88.2297 103.965 87.6507 103.988 87.258 103.667L87.1818 103.599L86.677 103.104C86.3416 102.781 86.009 102.474 85.6818 102.184L85.1955 101.761C84.6877 101.327 84.1787 100.916 83.6682 100.525L83.1574 100.14L83.0774 100.075C82.7021 99.7348 82.6383 99.158 82.9455 98.7414ZM64.424 91.9836C66.0336 92.0136 67.624 92.1296 69.1965 92.3478C69.2794 92.3593 69.3585 92.3814 69.4328 92.4113C69.6184 92.4282 69.8017 92.4966 69.9592 92.6203C70.3933 92.9615 70.4692 93.5903 70.1281 94.0246L68.508 96.1027C67.9252 96.8604 67.353 97.6689 66.8059 98.5187C66.5069 98.983 65.8884 99.1175 65.424 98.8185C64.9599 98.5197 64.8257 97.901 65.1242 97.4367C65.7023 96.5388 66.3075 95.6827 66.925 94.8801L66.927 94.8781L67.4856 94.1603C66.4647 94.0608 65.4322 94.0031 64.3869 93.9836L63.7258 93.9758L63.6233 93.9699C63.1193 93.9168 62.7269 93.4895 62.7287 92.9719C62.7309 92.4198 63.1805 91.9739 63.7326 91.9758L64.424 91.9836ZM73.3186 94.1955C73.4722 93.7009 73.975 93.411 74.4719 93.5119L74.5705 93.5373L75.216 93.7453C76.505 94.1759 77.7805 94.6936 79.0432 95.3078L79.6731 95.6232L79.7619 95.674C80.187 95.95 80.3423 96.5094 80.1057 96.9699C79.869 97.4301 79.3245 97.6291 78.8527 97.4445L78.759 97.4015L78.1682 97.1066C76.9845 96.5308 75.7899 96.0452 74.5822 95.6418L73.9777 95.4474L73.8811 95.4123C73.4147 95.2138 73.1651 94.6899 73.3186 94.1955ZM47.633 93.9494C48.1737 93.8373 48.7034 94.1851 48.8156 94.7258C48.9278 95.2665 48.58 95.7962 48.0393 95.9084C47.6097 95.9975 47.178 96.0887 46.7443 96.1818L45.4367 96.467C44.8974 96.586 44.3634 96.2445 44.2443 95.7052C44.1255 95.1662 44.4661 94.633 45.0051 94.5138L46.3244 94.2258C46.7622 94.1317 47.1986 94.0395 47.633 93.9494ZM53.2541 94.9279C52.7093 95.0176 52.1946 94.6484 52.1047 94.1037C52.015 93.5588 52.384 93.0441 52.9289 92.9543L53.2541 94.9279ZM58.2951 92.2424C58.8449 92.1895 59.3341 92.592 59.3869 93.1418C59.4397 93.6915 59.0363 94.1798 58.4865 94.2326C56.7766 94.3969 55.0338 94.6348 53.2541 94.9279L53.092 93.9406L52.9289 92.9543C54.7439 92.6554 56.5323 92.4118 58.2951 92.2424ZM73.4074 89.9406C73.0557 90.3661 72.4259 90.4258 72.0002 90.0744C71.5744 89.7228 71.5141 89.093 71.8654 88.6672L73.4074 89.9406ZM75.3332 84.6418C75.7043 84.2328 76.3363 84.2025 76.7453 84.5734C77.1544 84.9444 77.1856 85.5764 76.8147 85.9855C75.7203 87.192 74.5935 88.5043 73.4074 89.9406L71.8654 88.6672C73.0663 87.2129 74.2134 85.8763 75.3332 84.6418ZM80.4348 82.2765C80.0324 82.6549 79.399 82.6359 79.0207 82.2336C78.6424 81.8312 78.6623 81.1978 79.0647 80.8195L80.4348 82.2765ZM83.176 77.3566C83.6186 77.0267 84.2452 77.1182 84.5754 77.5607C84.9053 78.0033 84.8138 78.6299 84.3713 78.9601C83.0281 79.9626 81.7326 81.0562 80.4348 82.2765L79.0647 80.8195C80.4128 79.5519 81.7667 78.4084 83.176 77.3566ZM92.5578 71.9553C93.0386 71.7952 93.5719 72.0223 93.7844 72.4943C94.0109 72.9978 93.7868 73.5898 93.2834 73.8166L92.0627 74.381C90.8668 74.9504 89.7435 75.5346 88.674 76.1457C88.1945 76.4197 87.5838 76.2531 87.3098 75.7736C87.0359 75.2941 87.2024 74.6833 87.6818 74.4094C89.1707 73.5586 90.75 72.7627 92.4621 71.9924L92.5578 71.9553ZM99.9846 69.0285C100.477 68.9081 100.99 69.1782 101.163 69.6662C101.336 70.1541 101.108 70.6867 100.65 70.9035L100.555 70.9426C99.7042 71.2444 98.8858 71.5439 98.0969 71.842C97.5803 72.037 97.0031 71.7764 96.8078 71.2599C96.6127 70.7434 96.8734 70.1662 97.3899 69.9709C98.1929 69.6675 99.0248 69.3637 99.8869 69.0578L99.9846 69.0285Z" fill="#B7B4AF"/>
<g filter="url(#filter1_dd_7647_1567)">
<path d="M164.48 115.178L163.203 116.717L66.875 36.8091L68.1523 35.27L164.48 115.178Z" fill="url(#paint3_linear_7647_1567)"/>
</g>
<path d="M168.044 112.543C169.144 112.441 170.119 113.249 170.221 114.349L170.734 119.854C170.836 120.954 170.028 121.928 168.928 122.031L163.424 122.544C162.324 122.646 161.349 121.837 161.247 120.738L160.734 115.233C160.631 114.133 161.44 113.159 162.54 113.056L168.044 112.543ZM70.176 32.2762C71.2758 32.1738 72.2505 32.9823 72.3529 34.0821L72.8658 39.5866C72.9683 40.6864 72.1598 41.661 71.0599 41.7635L65.5555 42.2763C64.4557 42.3788 63.481 41.5703 63.3786 40.4705L62.8657 34.966C62.7633 33.8662 63.5718 32.8915 64.6716 32.7891L70.176 32.2762Z" fill="#717171"/>
<path d="M168.835 121.035L168.928 122.031L163.424 122.544L163.331 121.548L168.835 121.035ZM169.738 119.947L169.225 114.442C169.174 113.892 168.687 113.488 168.137 113.539L162.632 114.052C162.083 114.103 161.678 114.591 161.73 115.14L162.242 120.645C162.294 121.195 162.781 121.599 163.331 121.548L163.424 122.544C162.324 122.646 161.349 121.837 161.247 120.738L160.734 115.233C160.631 114.133 161.44 113.159 162.54 113.056L168.044 112.543C169.144 112.441 170.119 113.249 170.221 114.349L170.734 119.854L170.742 120.058C170.734 121.072 169.959 121.935 168.928 122.031L168.835 121.035C169.351 120.987 169.739 120.556 169.743 120.049L169.738 119.947ZM70.9672 40.7678L71.0599 41.7635L65.5555 42.2763L65.4627 41.2806L70.9672 40.7678ZM71.8701 39.6793L71.3573 34.1748C71.306 33.6249 70.8187 33.2207 70.2688 33.2719L64.7643 33.7848C64.2489 33.8328 63.8611 34.264 63.8567 34.7707L63.8614 34.8732L64.3742 40.3777C64.4255 40.9276 64.9128 41.3319 65.4627 41.2806L65.5555 42.2763C64.4557 42.3788 63.481 41.5703 63.3786 40.4705L62.8657 34.966C62.7633 33.8662 63.5718 32.8915 64.6716 32.7891L70.176 32.2762C71.2758 32.1738 72.2505 32.9823 72.3529 34.0821L72.8658 39.5866C72.9683 40.6864 72.1598 41.661 71.0599 41.7635L70.9672 40.7678C71.5171 40.7165 71.9213 40.2292 71.8701 39.6793Z" fill="url(#paint4_linear_7647_1567)"/>
<defs>
<filter id="filter0_dd_7647_1567" x="86.6909" y="21.9409" width="114.88" height="70.0757" filterUnits="userSpaceOnUse" color-interpolation-filters="sRGB">
<feFlood flood-opacity="0" result="BackgroundImageFix"/>
<feColorMatrix in="SourceAlpha" type="matrix" values="0 0 0 0 0 0 0 0 0 0 0 0 0 0 0 0 0 0 127 0" result="hardAlpha"/>
<feOffset dy="4"/>
<feGaussianBlur stdDeviation="8"/>
<feComposite in2="hardAlpha" operator="out"/>
<feColorMatrix type="matrix" values="0 0 0 0 0 0 0 0 0 0 0 0 0 0 0 0 0 0 0.14 0"/>
<feBlend mode="normal" in2="BackgroundImageFix" result="effect1_dropShadow_7647_1567"/>
<feColorMatrix in="SourceAlpha" type="matrix" values="0 0 0 0 0 0 0 0 0 0 0 0 0 0 0 0 0 0 127 0" result="hardAlpha"/>
<feOffset dy="1"/>
<feGaussianBlur stdDeviation="0.5"/>
<feComposite in2="hardAlpha" operator="out"/>
<feColorMatrix type="matrix" values="0 0 0 0 0 0 0 0 0 0 0 0 0 0 0 0 0 0 0.08 0"/>
<feBlend mode="normal" in2="effect1_dropShadow_7647_1567" result="effect2_dropShadow_7647_1567"/>
<feBlend mode="normal" in="SourceGraphic" in2="effect2_dropShadow_7647_1567" result="shape"/>
</filter>
<filter id="filter1_dd_7647_1567" x="52.875" y="23.27" width="125.605" height="109.447" filterUnits="userSpaceOnUse" color-interpolation-filters="sRGB">
<feFlood flood-opacity="0" result="BackgroundImageFix"/>
<feColorMatrix in="SourceAlpha" type="matrix" values="0 0 0 0 0 0 0 0 0 0 0 0 0 0 0 0 0 0 127 0" result="hardAlpha"/>
<feOffset dy="2"/>
<feGaussianBlur stdDeviation="7"/>
<feComposite in2="hardAlpha" operator="out"/>
<feColorMatrix type="matrix" values="0 0 0 0 1 0 0 0 0 0.8 0 0 0 0 0.2 0 0 0 1 0"/>
<feBlend mode="normal" in2="BackgroundImageFix" result="effect1_dropShadow_7647_1567"/>
<feColorMatrix in="SourceAlpha" type="matrix" values="0 0 0 0 0 0 0 0 0 0 0 0 0 0 0 0 0 0 127 0" result="hardAlpha"/>
<feOffset dy="1"/>
<feGaussianBlur stdDeviation="2"/>
<feComposite in2="hardAlpha" operator="out"/>
<feColorMatrix type="matrix" values="0 0 0 0 0 0 0 0 0 0 0 0 0 0 0 0 0 0 0.15 0"/>
<feBlend mode="normal" in2="effect1_dropShadow_7647_1567" result="effect2_dropShadow_7647_1567"/>
<feBlend mode="normal" in="SourceGraphic" in2="effect2_dropShadow_7647_1567" result="shape"/>
</filter>
<linearGradient id="paint0_linear_7647_1567" x1="89.4022" y1="31.0074" x2="89.527" y2="63.5372" gradientUnits="userSpaceOnUse">
<stop offset="0.0036" stop-color="#ADACAC"/>
<stop offset="1" stop-color="#FEF7E4"/>
</linearGradient>
<linearGradient id="paint1_linear_7647_1567" x1="126.492" y1="32.0667" x2="95.8892" y2="50.909" gradientUnits="userSpaceOnUse">
<stop stop-color="#FFEAAA" stop-opacity="0"/>
<stop offset="1" stop-color="#FFCC33"/>
</linearGradient>
<linearGradient id="paint2_linear_7647_1567" x1="152.186" y1="53.3312" x2="159.097" y2="67.1129" gradientUnits="userSpaceOnUse">
<stop stop-color="#FFEAAA" stop-opacity="0"/>
<stop offset="1" stop-color="#FFC000"/>
</linearGradient>
<linearGradient id="paint3_linear_7647_1567" x1="115.678" y1="35.27" x2="115.678" y2="116.717" gradientUnits="userSpaceOnUse">
<stop stop-color="#FFCC33"/>
<stop offset="1" stop-color="#FFEAAA"/>
</linearGradient>
<linearGradient id="paint4_linear_7647_1567" x1="99.5801" y1="29.5367" x2="175.38" y2="126.94" gradientUnits="userSpaceOnUse">
<stop stop-color="#CDCDCD"/>
<stop offset="1" stop-color="#B0B0B0"/>
</linearGradient>
</defs>
</svg>
