<svg xmlns="http://www.w3.org/2000/svg" width="230" height="161" fill="none"><path fill="#000" fill-opacity=".05" d="M112.928 137.647c34.266 0 62-28.001 62-62.55s-27.734-62.45-62-62.45-62 28.002-62 62.55c0 34.65 27.835 62.45 62 62.45"/><g filter="url(#a)"><path fill="url(#b)" d="M181.75 34.839a4 4 0 0 1 3.006 4.792l-10.1 44.091a4 4 0 0 1-4.792 3.006l-58.968-13.507a4 4 0 0 1-3.006-4.792l10.099-44.091a4 4 0 0 1 4.793-3.006z"/><path stroke="url(#c)" stroke-opacity=".4" d="m184.269 39.52-10.1 44.09a3.5 3.5 0 0 1-4.193 2.631l-58.969-13.507a3.5 3.5 0 0 1-2.63-4.193l10.099-44.092a3.5 3.5 0 0 1 4.194-2.63l58.968 13.507a3.5 3.5 0 0 1 2.631 4.193Z"/></g><path fill="#828282" d="m159.971 53.099-.972-.222-4.728-9.703a4.007 4.007 0 0 0-2.703-2.142l-12.986-2.974a3.99 3.99 0 0 0-4.163 1.597l-4.591 6.683c-1.772.047-3.355 1.256-3.766 3.05l-1.545 6.746a.99.99 0 0 0 .75 1.186l2.914.668c-.731 3.193 1.285 6.379 4.504 7.116s6.421-1.253 7.152-4.446l7.771 1.78c-.732 3.193 1.285 6.379 4.504 7.116s6.42-1.253 7.152-4.447l2.914.668a.99.99 0 0 0 1.192-.741l1.104-4.818c.731-3.194-1.285-6.38-4.503-7.117m-26.623 9.114c-1.607-.368-2.617-1.964-2.252-3.558s1.97-2.592 3.577-2.224c1.607.369 2.617 1.965 2.252 3.559s-1.97 2.591-3.577 2.223m7.682-13.452-6.986-1.6 3.656-5.248 4.654 1.066zm2.914.667 1.324-5.782 5.418 1.241 3.338 6.85zm8.83 17.235c-1.607-.368-2.617-1.964-2.251-3.558.365-1.595 1.969-2.592 3.576-2.224s2.617 1.964 2.252 3.558c-.366 1.595-1.97 2.592-3.577 2.224"/><g filter="url(#d)"><path fill="url(#e)" d="M95.025 83.86a4 4 0 0 1 4.413 3.54l4.704 42.801a4 4 0 0 1-3.539 4.413l-57.352 6.303a4 4 0 0 1-4.413-3.539l-4.704-42.8a4 4 0 0 1 3.539-4.414z"/><path stroke="url(#f)" stroke-opacity=".4" d="m98.941 87.455 4.704 42.8a3.5 3.5 0 0 1-3.097 3.862l-57.351 6.303a3.5 3.5 0 0 1-3.862-3.096l-4.704-42.801a3.5 3.5 0 0 1 3.097-3.862l57.351-6.303a3.5 3.5 0 0 1 3.862 3.096Z"/></g><path fill="#828282" d="m62.27 113.227 4.047-3.578 8.978-.986.34 3.095-7.962.875-4.08 3.582-10.836 1.191-.34-3.096zm2.278 7.677 4.346-2.146 1.379 2.793-4.346 2.145a7.008 7.008 0 1 1-1.38-2.794zm-5.012 8.289a3.892 3.892 0 1 0-.849-7.739 3.892 3.892 0 0 0 .85 7.739m20.463.884a7 7 0 0 1-6.908-3.592 7.01 7.01 0 0 1 .676-7.757 7.006 7.006 0 0 1 9.85-1.083A7.01 7.01 0 0 1 80 130.077m-.34-3.095a3.895 3.895 0 0 0 3.444-4.295 3.892 3.892 0 1 0-3.444 4.295m-23.975-11.464 9.287-1.021 3.73-3.125.255-1.667 3.079.473-1.762 11.365-2.971-1.064.107-.701-3.135 2.628-1.888-2.925-6.192.68zm17.866-9.797 6.05-.665.51 4.644-4.36.479 3.87 7.84-2.793 1.378-4.37-8.856-.087.009-.026-.235-2.821-5.718-4.025.442-.34-3.095 6.191-.681z"/><g filter="url(#g)"><path fill="url(#h)" d="M123.023 59.836a4 4 0 0 1 3.521 4.427l-5.768 50.593a4 4 0 0 1-4.427 3.521l-67.378-7.681a4 4 0 0 1-3.521-4.428l5.768-50.593a4 4 0 0 1 4.427-3.52z"/><path stroke="url(#i)" stroke-opacity=".4" d="m126.047 64.206-5.768 50.593a3.5 3.5 0 0 1-3.874 3.081l-67.378-7.681a3.5 3.5 0 0 1-3.08-3.874l5.767-50.593a3.5 3.5 0 0 1 3.874-3.081l67.378 7.681a3.5 3.5 0 0 1 3.081 3.874Z"/></g><path fill="#828282" d="M86.954 70.504a3.91 3.91 0 0 1 1.41-2.592 3.74 3.74 0 0 1 2.784-.823 3.74 3.74 0 0 1 2.527 1.428c.623.801.907 1.824.79 2.843a3.92 3.92 0 0 1-1.41 2.593 3.74 3.74 0 0 1-2.784.822 3.74 3.74 0 0 1-2.527-1.428 3.92 3.92 0 0 1-.79-2.843M82.95 82.32c-.082.023-.156.047-.238.07l-.658.21a5.13 5.13 0 0 0-3.064 2.749l-.275.6c-.591 1.296-2.09 1.855-3.353 1.257s-1.803-2.128-1.21-3.423l.274-.601c1.203-2.63 3.429-4.63 6.129-5.507l.657-.209a12.6 12.6 0 0 1 5.3-.531c3.49.398 6.392 2.902 7.355 6.346l.868 3.092 1.577 1.048c1.164.773 1.49 2.368.727 3.562-.762 1.195-2.323 1.536-3.488.763l-1.975-1.304a3.82 3.82 0 0 1-1.56-2.166l-.542-1.927-2.108 5.073 3.38 4.765a3.94 3.94 0 0 1 .687 1.766l.959 7.579c.18 1.408-.792 2.709-2.177 2.899-1.385.191-2.644-.796-2.824-2.211l-.917-7.251-4.829-6.804a5.24 5.24 0 0 1-.605-4.912l1.902-4.934zm-6.337 15.395 2.526-4.773c.137.259.3.505.47.75l2.779 3.92-1.465 2.768c-.243.46-.575.868-.977 1.195l-5.391 4.39a2.483 2.483 0 0 1-3.545-.404 2.625 2.625 0 0 1 .414-3.627z"/><mask id="j" width="63" height="64" x="78" y="39" maskUnits="userSpaceOnUse" style="mask-type:alpha"><ellipse cx="109.637" cy="70.981" fill="#d9d9d9" rx="31.067" ry="31.467"/></mask><g mask="url(#j)"><g filter="url(#k)"><path fill="url(#l)" d="M188.806 32.16a4 4 0 0 1 3.006 4.792l-12.284 53.63a4 4 0 0 1-4.793 3.005L103.494 77.27a4 4 0 0 1-3.006-4.792l12.285-53.63a4 4 0 0 1 4.792-3.005z"/><path stroke="url(#m)" stroke-opacity=".4" d="M191.324 36.84 179.04 90.47a3.5 3.5 0 0 1-4.193 2.63L103.606 76.78a3.5 3.5 0 0 1-2.63-4.193l12.284-53.629a3.5 3.5 0 0 1 4.193-2.63l71.241 16.319a3.5 3.5 0 0 1 2.63 4.193Z"/></g><path fill="#181818" d="m162.306 53.613-1.15-.264-5.597-11.485a4.7 4.7 0 0 0-1.31-1.629 4.76 4.76 0 0 0-1.889-.907l-15.374-3.521a4.72 4.72 0 0 0-4.928 1.89l-5.435 7.912c-2.098.055-3.972 1.488-4.458 3.611l-1.83 7.986c-.144.63.254 1.258.889 1.404l3.45.79c-.866 3.78 1.521 7.552 5.331 8.425s7.601-1.484 8.467-5.264l9.199 2.107c-.866 3.78 1.521 7.552 5.332 8.425s7.601-1.484 8.467-5.264l3.449.79a1.176 1.176 0 0 0 1.412-.878l1.306-5.703c.866-3.78-1.52-7.552-5.331-8.425m-31.515 10.79c-1.903-.436-3.099-2.326-2.666-4.213.432-1.887 2.331-3.068 4.233-2.632 1.903.436 3.098 2.325 2.666 4.212s-2.331 3.068-4.233 2.632m9.093-15.926-8.269-1.894 4.327-6.213 5.51 1.262zm3.45.79 1.568-6.844 6.413 1.469L155.267 52zm10.453 20.403c-1.902-.436-3.098-2.325-2.665-4.213s2.331-3.067 4.233-2.631c1.902.435 3.098 2.325 2.666 4.212s-2.331 3.068-4.234 2.632"/><g filter="url(#n)"><path fill="url(#o)" d="M128.892 52.26a4 4 0 0 1 3.522 4.427l-6.724 58.974a4 4 0 0 1-4.427 3.521l-78.162-8.911a4 4 0 0 1-3.52-4.427l6.722-58.974a4 4 0 0 1 4.428-3.521z"/><path stroke="url(#p)" d="m131.917 56.63-6.723 58.974a3.5 3.5 0 0 1-3.874 3.081l-78.162-8.911a3.5 3.5 0 0 1-3.081-3.874L46.8 46.926a3.5 3.5 0 0 1 3.874-3.08l78.162 8.91a3.5 3.5 0 0 1 3.081 3.874Z"/></g><path fill="#765c10" d="M95.653 61.104a4.75 4.75 0 0 1 1.71-3.145 4.53 4.53 0 0 1 3.378-.999 4.53 4.53 0 0 1 3.067 1.733c.755.972 1.1 2.213.959 3.45a4.75 4.75 0 0 1-1.711 3.145 4.53 4.53 0 0 1-3.378.998 4.53 4.53 0 0 1-3.066-1.733 4.75 4.75 0 0 1-.96-3.45M90.797 75.44c-.1.028-.19.057-.289.085l-.798.253a6.23 6.23 0 0 0-3.717 3.336l-.334.73c-.717 1.57-2.535 2.25-4.068 1.524s-2.187-2.582-1.47-4.154l.334-.73c1.46-3.189 4.16-5.617 7.436-6.68l.798-.253a15.3 15.3 0 0 1 6.43-.645c4.234.483 7.754 3.521 8.922 7.7l1.054 3.75 1.913 1.272c1.412.938 1.807 2.873.882 4.322-.925 1.45-2.819 1.864-4.231.925l-2.397-1.582a4.64 4.64 0 0 1-1.893-2.627l-.657-2.338-2.558 6.154 4.102 5.782c.447.631.729 1.362.833 2.142l1.163 9.196c.219 1.708-.961 3.285-2.641 3.517s-3.208-.966-3.426-2.683l-1.113-8.797-5.858-8.256a6.36 6.36 0 0 1-.734-5.958l2.307-5.986zm-7.688 18.678 3.064-5.792c.166.315.363.613.57.912l3.372 4.754-1.778 3.36a4.7 4.7 0 0 1-1.184 1.449l-6.541 5.326a3.014 3.014 0 0 1-4.301-.49 3.186 3.186 0 0 1 .502-4.401z"/></g><path stroke="#000" stroke-width="3" d="M109.637 41.015c16.311 0 29.567 13.399 29.567 29.967-.001 16.569-13.256 29.967-29.567 29.967S80.07 87.551 80.07 70.982s13.256-29.967 29.567-29.967Z" opacity=".1"/><g filter="url(#q)"><path fill="url(#r)" d="m169.238 120.005-17.871-18.049c-1.302-1.314-3.007-2.045-4.748-2.193-1.33-.113-2.689-.458-3.627-1.406l-.348-.351c-1.428-1.442-1.529-3.713-.413-5.407 10.109-15.341 8.395-36.282-4.955-49.764-11.914-12.033-29.67-14.694-44.105-7.868-4.009 1.852-7.79 4.513-11.226 7.868-4.239 4.165-7.217 9.14-9.05 14.462-.917 2.545-1.604 5.09-1.948 7.752-1.718 11.917 1.948 24.528 10.998 33.668l.573.578c7.56 7.405 17.298 10.992 27.15 10.992 7.547 0 15.094-2.174 21.597-6.521 1.712-1.144 4.023-1.041 5.472.423l.322.325c.925.934 1.263 2.272 1.363 3.583.136 1.777.861 3.522 2.176 4.851l17.757 18.048a7.55 7.55 0 0 0 10.768 0c3.093-3.008 3.093-7.983.115-10.991m-37.575-26.957c-1.375 1.388-2.864 2.545-4.353 3.702-1.489 1.041-2.979 1.851-4.468 2.545-8.248 3.934-17.986 3.934-26.234 0a30.8 30.8 0 0 1-8.82-6.247c-7.561-7.636-10.425-18.165-8.593-28 .459-2.66 1.26-5.321 2.52-7.751 1.49-3.124 3.552-6.132 6.072-8.677 1.719-1.736 3.552-3.24 5.5-4.397 5.04-3.24 10.768-4.743 16.495-4.743 8.019 0 15.924 3.008 21.996 9.14 12.028 12.264 12.028 32.164-.115 44.428"/><path stroke="url(#s)" d="M93.386 35.419c14.246-6.737 31.773-4.11 43.535 7.768 13.18 13.31 14.874 33.99 4.892 49.136-1.231 1.868-1.138 4.406.475 6.034l.349.352c1.065 1.076 2.572 1.436 3.939 1.552 1.631.138 3.224.824 4.436 2.048l17.871 18.048c2.784 2.813 2.784 7.468-.108 10.281h-.001l-.006.007a7.054 7.054 0 0 1-10.057.001h.001l-17.757-18.049-.001-.001-.224-.237c-1.084-1.204-1.69-2.735-1.809-4.3-.103-1.354-.457-2.836-1.507-3.897l-.321-.325c-1.637-1.653-4.219-1.748-6.106-.486-6.417 4.29-13.868 6.435-21.319 6.435-9.727 0-19.335-3.538-26.796-10.843l-.285-.289-.07-.069-.001-.003-.008-.008-.003-.002-.017-.017-.107-.108-.004-.005-.013-.012q0-.001-.002-.003l-.02-.02-.032-.031q0-.001-.002-.003h-.002v-.003l-.005-.005c-8.934-9.022-12.556-21.474-10.859-33.245l.001-.007c.338-2.616 1.015-5.126 1.922-7.646l.003-.007c1.81-5.255 4.749-10.162 8.928-14.269h-.001c3.4-3.32 7.134-5.946 11.086-7.77zm16.396 3.56c-5.81 0-11.627 1.525-16.75 4.814-1.993 1.183-3.859 2.716-5.6 4.475-2.557 2.583-4.648 5.632-6.16 8.798-1.287 2.482-2.103 5.192-2.568 7.891-1.862 9.989 1.047 20.685 8.729 28.442a31.3 31.3 0 0 0 8.96 6.347v.001c8.384 3.998 18.279 3.997 26.664 0 1.507-.704 3.022-1.526 4.54-2.587l.019-.016c1.486-1.154 3.001-2.33 4.402-3.745 12.336-12.458 12.336-32.67.117-45.13l-.002-.001c-6.17-6.232-14.205-9.288-22.351-9.288Z"/></g><defs><linearGradient id="b" x1="196.054" x2="176.584" y1="34.588" y2="103.622" gradientUnits="userSpaceOnUse"><stop offset=".004" stop-color="#adacac"/><stop offset="1" stop-color="#f6edd0"/></linearGradient><linearGradient id="c" x1="185.649" x2="146.982" y1="37.652" y2="82.794" gradientUnits="userSpaceOnUse"><stop stop-color="#eee"/><stop offset="1" stop-color="#ffdf7d"/></linearGradient><linearGradient id="e" x1="33.697" x2="39.842" y1="141.354" y2="76.086" gradientUnits="userSpaceOnUse"><stop offset=".004" stop-color="#adacac"/><stop offset="1" stop-color="#f6edd0"/></linearGradient><linearGradient id="f" x1="38.028" x2="96.996" y1="141.354" y2="62.292" gradientUnits="userSpaceOnUse"><stop stop-color="#eee"/><stop offset="1" stop-color="#ffdf7d"/></linearGradient><linearGradient id="h" x1="44.997" x2="97.526" y1="104.292" y2="85.266" gradientUnits="userSpaceOnUse"><stop stop-color="#bcbbb7"/><stop offset="1" stop-color="#fef0c5"/></linearGradient><linearGradient id="i" x1="44.997" x2="99.51" y1="108.652" y2="85.859" gradientUnits="userSpaceOnUse"><stop offset=".113" stop-color="#bebcb8"/><stop offset="1" stop-color="#fae39b"/></linearGradient><linearGradient id="l" x1="119.1" x2="185.596" y1="16.193" y2="52.741" gradientUnits="userSpaceOnUse"><stop offset=".004" stop-color="#454545"/><stop offset="1" stop-color="#575245"/></linearGradient><linearGradient id="m" x1="180.416" x2="101.869" y1="24.164" y2="75.741" gradientUnits="userSpaceOnUse"><stop offset=".113" stop-color="#4e5078"/><stop offset="1" stop-color="#f9cc45"/></linearGradient><linearGradient id="o" x1="74.906" x2="98.627" y1="99.27" y2="40.115" gradientUnits="userSpaceOnUse"><stop stop-color="#ffd452"/><stop offset="1" stop-color="#ffebad"/></linearGradient><linearGradient id="p" x1="127.421" x2="60.781" y1="50.731" y2="93.705" gradientUnits="userSpaceOnUse"><stop stop-color="#ffeaaa"/><stop offset="1" stop-color="#ffe7a1"/></linearGradient><filter id="a" width="109.07" height="97.601" x="91.788" y="9.229" color-interpolation-filters="sRGB" filterUnits="userSpaceOnUse"><feFlood flood-opacity="0" result="BackgroundImageFix"/><feColorMatrix in="SourceAlpha" result="hardAlpha" values="0 0 0 0 0 0 0 0 0 0 0 0 0 0 0 0 0 0 127 0"/><feOffset dy="4"/><feGaussianBlur stdDeviation="8"/><feComposite in2="hardAlpha" operator="out"/><feColorMatrix values="0 0 0 0 0 0 0 0 0 0 0 0 0 0 0 0 0 0 0.14 0"/><feBlend in2="BackgroundImageFix" result="effect1_dropShadow_7496_10506"/><feColorMatrix in="SourceAlpha" result="hardAlpha" values="0 0 0 0 0 0 0 0 0 0 0 0 0 0 0 0 0 0 127 0"/><feOffset dy="1"/><feGaussianBlur stdDeviation=".5"/><feComposite in2="hardAlpha" operator="out"/><feColorMatrix values="0 0 0 0 0 0 0 0 0 0 0 0 0 0 0 0 0 0 0.08 0"/><feBlend in2="effect1_dropShadow_7496_10506" result="effect2_dropShadow_7496_10506"/><feBlend in="SourceGraphic" in2="effect2_dropShadow_7496_10506" result="shape"/></filter><filter id="d" width="102.057" height="89.105" x="18.109" y="71.836" color-interpolation-filters="sRGB" filterUnits="userSpaceOnUse"><feFlood flood-opacity="0" result="BackgroundImageFix"/><feColorMatrix in="SourceAlpha" result="hardAlpha" values="0 0 0 0 0 0 0 0 0 0 0 0 0 0 0 0 0 0 127 0"/><feOffset dy="4"/><feGaussianBlur stdDeviation="8"/><feComposite in2="hardAlpha" operator="out"/><feColorMatrix values="0 0 0 0 0 0 0 0 0 0 0 0 0 0 0 0 0 0 0.14 0"/><feBlend in2="BackgroundImageFix" result="effect1_dropShadow_7496_10506"/><feColorMatrix in="SourceAlpha" result="hardAlpha" values="0 0 0 0 0 0 0 0 0 0 0 0 0 0 0 0 0 0 127 0"/><feOffset dy="1"/><feGaussianBlur stdDeviation=".5"/><feComposite in2="hardAlpha" operator="out"/><feColorMatrix values="0 0 0 0 0 0 0 0 0 0 0 0 0 0 0 0 0 0 0.08 0"/><feBlend in2="effect1_dropShadow_7496_10506" result="effect2_dropShadow_7496_10506"/><feBlend in="SourceGraphic" in2="effect2_dropShadow_7496_10506" result="shape"/></filter><filter id="g" width="113.146" height="98.275" x="29.424" y="40.128" color-interpolation-filters="sRGB" filterUnits="userSpaceOnUse"><feFlood flood-opacity="0" result="BackgroundImageFix"/><feColorMatrix in="SourceAlpha" result="hardAlpha" values="0 0 0 0 0 0 0 0 0 0 0 0 0 0 0 0 0 0 127 0"/><feOffset dy="4"/><feGaussianBlur stdDeviation="8"/><feComposite in2="hardAlpha" operator="out"/><feColorMatrix values="0 0 0 0 0 0 0 0 0 0 0 0 0 0 0 0 0 0 0.14 0"/><feBlend in2="BackgroundImageFix" result="effect1_dropShadow_7496_10506"/><feColorMatrix in="SourceAlpha" result="hardAlpha" values="0 0 0 0 0 0 0 0 0 0 0 0 0 0 0 0 0 0 127 0"/><feOffset dy="1"/><feGaussianBlur stdDeviation=".5"/><feComposite in2="hardAlpha" operator="out"/><feColorMatrix values="0 0 0 0 0 0 0 0 0 0 0 0 0 0 0 0 0 0 0.08 0"/><feBlend in2="effect1_dropShadow_7496_10506" result="effect2_dropShadow_7496_10506"/><feBlend in="SourceGraphic" in2="effect2_dropShadow_7496_10506" result="shape"/></filter><filter id="k" width="123.527" height="109.949" x="84.387" y="3.74" color-interpolation-filters="sRGB" filterUnits="userSpaceOnUse"><feFlood flood-opacity="0" result="BackgroundImageFix"/><feColorMatrix in="SourceAlpha" result="hardAlpha" values="0 0 0 0 0 0 0 0 0 0 0 0 0 0 0 0 0 0 127 0"/><feOffset dy="4"/><feGaussianBlur stdDeviation="8"/><feComposite in2="hardAlpha" operator="out"/><feColorMatrix values="0 0 0 0 0 0 0 0 0 0 0 0 0 0 0 0 0 0 0.64 0"/><feBlend in2="BackgroundImageFix" result="effect1_dropShadow_7496_10506"/><feColorMatrix in="SourceAlpha" result="hardAlpha" values="0 0 0 0 0 0 0 0 0 0 0 0 0 0 0 0 0 0 127 0"/><feOffset dy="1"/><feGaussianBlur stdDeviation=".5"/><feComposite in2="hardAlpha" operator="out"/><feColorMatrix values="0 0 0 0 0 0 0 0 0 0 0 0 0 0 0 0 0 0 0.08 0"/><feBlend in2="effect1_dropShadow_7496_10506" result="effect2_dropShadow_7496_10506"/><feBlend in="SourceGraphic" in2="effect2_dropShadow_7496_10506" result="shape"/></filter><filter id="n" width="140.886" height="123.885" x="19.554" y="21.323" color-interpolation-filters="sRGB" filterUnits="userSpaceOnUse"><feFlood flood-opacity="0" result="BackgroundImageFix"/><feColorMatrix in="SourceAlpha" result="hardAlpha" values="0 0 0 0 0 0 0 0 0 0 0 0 0 0 0 0 0 0 127 0"/><feOffset dx="4" dy="2"/><feGaussianBlur stdDeviation="12"/><feComposite in2="hardAlpha" operator="out"/><feColorMatrix values="0 0 0 0 0.98415 0 0 0 0 0.859671 0 0 0 0 0.486234 0 0 0 1 0"/><feBlend in2="BackgroundImageFix" result="effect1_dropShadow_7496_10506"/><feColorMatrix in="SourceAlpha" result="hardAlpha" values="0 0 0 0 0 0 0 0 0 0 0 0 0 0 0 0 0 0 127 0"/><feOffset dy="2"/><feGaussianBlur stdDeviation="4"/><feComposite in2="hardAlpha" operator="out"/><feColorMatrix values="0 0 0 0 0 0 0 0 0 0 0 0 0 0 0 0 0 0 0.08 0"/><feBlend in2="effect1_dropShadow_7496_10506" result="effect2_dropShadow_7496_10506"/><feBlend in="SourceGraphic" in2="effect2_dropShadow_7496_10506" result="shape"/></filter><filter id="q" width="132.922" height="133.974" x="54.536" y="19.278" color-interpolation-filters="sRGB" filterUnits="userSpaceOnUse"><feFlood flood-opacity="0" result="BackgroundImageFix"/><feColorMatrix in="SourceAlpha" result="hardAlpha" values="0 0 0 0 0 0 0 0 0 0 0 0 0 0 0 0 0 0 127 0"/><feOffset dy="4"/><feGaussianBlur stdDeviation="8"/><feComposite in2="hardAlpha" operator="out"/><feColorMatrix values="0 0 0 0 0 0 0 0 0 0 0 0 0 0 0 0 0 0 0.14 0"/><feBlend in2="BackgroundImageFix" result="effect1_dropShadow_7496_10506"/><feColorMatrix in="SourceAlpha" result="hardAlpha" values="0 0 0 0 0 0 0 0 0 0 0 0 0 0 0 0 0 0 127 0"/><feOffset dy="1"/><feGaussianBlur stdDeviation=".5"/><feComposite in2="hardAlpha" operator="out"/><feColorMatrix values="0 0 0 0 0 0 0 0 0 0 0 0 0 0 0 0 0 0 0.08 0"/><feBlend in2="effect1_dropShadow_7496_10506" result="effect2_dropShadow_7496_10506"/><feBlend in="SourceGraphic" in2="effect2_dropShadow_7496_10506" result="shape"/></filter><radialGradient id="r" cx="0" cy="0" r="1" gradientTransform="rotate(222.639 69.85 13.275)scale(45.2852 42.685)" gradientUnits="userSpaceOnUse"><stop offset=".466" stop-color="#fbefcb"/><stop offset="1" stop-color="#656161"/></radialGradient><radialGradient id="s" cx="0" cy="0" r="1" gradientTransform="rotate(46.343 -29.258 163.107)scale(59.7234 59.107)" gradientUnits="userSpaceOnUse"><stop offset=".553" stop-color="#dfcfa0"/><stop offset=".729" stop-color="#acacac" stop-opacity="0"/></radialGradient></defs></svg>