<svg xmlns="http://www.w3.org/2000/svg" width="230" height="160" fill="none" viewBox="0 0 230 160">
  <path fill="#242424" d="M114.636 144.8c34.267 0 62.048-27.801 62.048-62.2153s-27.903-62.2152-62.048-62.2152c-34.267 0-62.0479 27.8009-62.0479 62.2152 0 34.4143 27.7809 62.2153 62.0479 62.2153Z"/>
  <path fill="#5C5C5C" d="M172.645 41.802c2.771 0 5.018-2.2481 5.018-5.0213s-2.247-5.0213-5.018-5.0213-5.017 2.2481-5.017 5.0213 2.246 5.0213 5.017 5.0213ZM179.989 22.2068c1.892 0 3.426-1.5353 3.426-3.4292 0-1.8939-1.534-3.4292-3.426-3.4292-1.893 0-3.427 1.5353-3.427 3.4292 0 1.8939 1.534 3.4292 3.427 3.4292ZM55.8924 41.6797c1.8925 0 3.4267-1.5353 3.4267-3.4292 0-1.8939-1.5342-3.4292-3.4267-3.4292-1.8926 0-3.4268 1.5353-3.4268 3.4292 0 1.8939 1.5342 3.4292 3.4268 3.4292ZM34.9647 107.814c3.5147 0 6.3639-2.852 6.3639-6.369 0-3.5172-2.8492-6.3685-6.3639-6.3685s-6.3639 2.8513-6.3639 6.3685c0 3.517 2.8492 6.369 6.3639 6.369Z"/>
  <mask id="mask0_3831_4848" width="125" height="137" x="52" y="8" maskUnits="userSpaceOnUse" style="mask-type:alpha">
    <path fill="#5C5C5C" d="M168.393 8H63.0685v40.2513c-6.5013 9.834-10.2874 21.6334-10.2874 34.3335 0 34.4142 27.8008 62.2152 62.0929 62.2152 34.292 0 62.092-27.801 62.092-62.2152 0-11.5196-3.128-22.2981-8.573-31.5411V8Z"/>
  </mask>
  <g mask="url(#mask0_3831_4848)">
    <path fill="url(#paint0_linear_3831_4848)" d="M67.3767 147.616 66.2745 18.2759c0-3.0334 2.4801-5.3773 5.5113-5.3773h86.5272c3.031 0 5.511 2.4818 5.511 5.3773V142.239c0 3.033-2.48 5.377-5.511 5.377H67.3767Z"/>
  </g>
  <ellipse cx="114.774" cy="82.3245" fill="#3A3A3A" rx="38.778" ry="46.3181"/>
  <path fill="#3A3A3A" d="M153.552 82.3245c0 25.5805-17.361 46.3185-38.778 46.3185-21.4164 0-38.7779-20.738-38.7779-46.3185 0-25.5808 17.3615-46.3182 38.7779-46.3182 21.417 0 38.778 20.7374 38.778 46.3182Z"/>
  <path fill="#F5F2EC" d="M109.486 113.268c0-.973.789-1.762 1.763-1.762h6.445c.973 0 1.763.789 1.763 1.762v.962c0 .973-.79 1.762-1.763 1.762h-6.445c-.974 0-1.763-.789-1.763-1.762v-.962Z"/>
  <path fill="#F5F2EC" d="M114.952 113.749c.974 0 1.763.789 1.763 1.762v11.929c0 .974-.789 1.763-1.763 1.763h-.961c-.974 0-1.763-.789-1.763-1.763v-11.929c0-.973.789-1.762 1.763-1.762h.961ZM140.332 94.761c-.486 0-.881-.3946-.881-.8813v-6.1692c0-.4868.395-.8814.881-.8814 1.947 0 3.526 1.5783 3.526 3.5253v.8813c0 1.947-1.579 3.5253-3.526 3.5253ZM89.2159 86.8287a.8814.8814 0 0 1 .8813.8814v6.1692a.8813.8813 0 0 1-.8813.8813c-1.947 0-3.5253-1.5783-3.5253-3.5253v-.8813c0-1.9469 1.5783-3.5253 3.5253-3.5253Z"/>
  <path fill="#F5F2EC" fill-rule="evenodd" d="M94.5038 86.3882c.9735 0 1.7626.7891 1.7626 1.7626v3.0846c0 10.2216 8.2866 18.5076 18.5076 18.5076 10.222 0 18.508-8.286 18.508-18.5076v-3.0846c0-.9735.789-1.7626 1.762-1.7626.974 0 1.763.7891 1.763 1.7626v3.0846c0 12.1686-9.864 22.0326-22.033 22.0326-12.168 0-22.0329-9.864-22.0329-22.0326v-3.0846c0-.9735.7892-1.7626 1.7627-1.7626Z" clip-rule="evenodd"/>
  <path fill="#F5F2EC" fill-rule="evenodd" d="M98.9105 74.4904c0-8.7613 7.1025-15.8637 15.8635-15.8637 8.762 0 15.864 7.1024 15.864 15.8637v16.745c0 8.7613-7.102 15.8636-15.864 15.8636-8.761 0-15.8635-7.1023-15.8635-15.8636v-16.745ZM114.774 62.152c-6.814 0-12.338 5.5241-12.338 12.3384v16.745c0 6.8144 5.524 12.3386 12.338 12.3386 6.815 0 12.339-5.5242 12.339-12.3386v-16.745c0-6.8143-5.524-12.3384-12.339-12.3384Z" clip-rule="evenodd"/>
  <path fill="#F5F2EC" d="M98.9105 86.8287h31.7275v4.4066c0 8.7613-7.102 15.8637-15.864 15.8637"/>
  <path fill="#F5F2EC" fill-rule="evenodd" d="M111.249 81.5411c0 .9735-.789 1.7626-1.763 1.7626h-8.813v-3.5253h8.813c.974 0 1.763.7892 1.763 1.7627ZM111.249 74.4903c0 .9735-.789 1.7626-1.763 1.7626h-8.813v-3.5252h8.813c.974 0 1.763.7891 1.763 1.7626ZM118.299 74.4903c0-.9735.79-1.7626 1.763-1.7626h8.813v3.5252h-8.813c-.973 0-1.763-.7891-1.763-1.7626ZM118.299 81.5411c0-.9735.79-1.7627 1.763-1.7627h8.813v3.5253h-8.813c-.973 0-1.763-.7891-1.763-1.7626Z" clip-rule="evenodd"/>
  <defs>
    <linearGradient id="paint0_linear_3831_4848" x1="115.081" x2="115.081" y1="150.733" y2="11.4462" gradientUnits="userSpaceOnUse">
      <stop stop-color="#5C5C5C"/>
      <stop offset=".9964" stop-color="#4D4D4D"/>
    </linearGradient>
  </defs>
</svg>
