<svg width="28" height="28" viewBox="0 0 28 28" fill="none" xmlns="http://www.w3.org/2000/svg">
<path d="M14.8799 11.273C15.4427 11.3396 15.9412 11.614 16.3125 11.9663C16.6819 12.3169 16.9721 12.7888 17.0674 13.3091C17.1664 13.8502 17.0493 14.4455 16.5977 14.9185L16.5684 14.9497L16.5352 14.9771C14.8035 16.4209 12.7895 17.9135 11.4541 18.9028L11.4473 18.9068C11.1377 19.1361 10.8663 19.338 10.6416 19.5064C9.90451 20.0589 9.17996 20.3932 8.43652 20.4771C8.00726 20.5254 7.59732 20.4875 7.2041 20.3833L7.2002 20.4429C7.1595 20.9896 7.13076 21.704 7.11035 22.4204C7.09001 23.1345 7.07776 23.8415 7.07129 24.3706C7.06806 24.635 7.06658 24.855 7.06543 25.0083L7.06055 26.0005H2V11.7993L3.20508 12.6909L3.20605 12.6919L3.21289 12.6968L3.24316 12.7183C3.27016 12.7379 3.31099 12.7677 3.36523 12.8062C3.47389 12.8833 3.63618 12.996 3.84473 13.1372C4.25793 13.417 4.85397 13.8069 5.58594 14.2456C6.6021 14.7668 7.36329 15.2953 7.80859 15.6333C8.9341 14.8944 11.7616 13.0075 13.165 11.812C13.6902 11.3647 14.2975 11.2041 14.8799 11.273ZM14.7021 12.7739C14.535 12.7542 14.3475 12.7896 14.1445 12.9624C12.6222 14.259 9.61043 16.2591 8.5625 16.9458C8.04555 17.2846 7.39515 17.2211 6.94434 16.8745C6.56172 16.5804 5.8492 16.0768 4.87598 15.5796L4.85352 15.5679L4.83105 15.5552C4.32513 15.2524 3.88011 14.9719 3.51074 14.731V24.4888H5.55859L5.56055 24.3521C5.56707 23.8182 5.57896 23.1025 5.59961 22.3775C5.6202 21.6546 5.65005 20.9124 5.69336 20.3306C5.71484 20.042 5.74008 19.7774 5.77246 19.5689C5.78837 19.4664 5.80902 19.3577 5.83691 19.2593C5.85078 19.2104 5.87151 19.1479 5.90137 19.0825C5.92568 19.0293 5.98483 18.9098 6.10254 18.8013C6.36609 18.5584 6.6774 18.5767 6.84082 18.6206C6.91297 18.64 6.96787 18.6662 6.99609 18.6802C7.01831 18.6912 7.03847 18.7028 7.04688 18.7075C7.49318 18.9373 7.88178 19.0186 8.26758 18.9751C8.66462 18.9303 9.13948 18.744 9.73535 18.2974C9.96349 18.1264 10.2385 17.9226 10.5459 17.6948L10.5479 17.6929C11.8778 16.7075 13.8391 15.2542 15.5254 13.8511C15.5822 13.7808 15.6028 13.6993 15.5811 13.5806C15.5529 13.4273 15.451 13.2325 15.2725 13.063C15.0958 12.8953 14.8889 12.7961 14.7021 12.7739Z" fill="#212121"/>
<path d="M21.8721 14.7388C22.8385 14.4044 23.7479 14.5727 24.46 15.0327C25.1528 15.4804 25.6423 16.1908 25.8643 16.9429C26.086 17.6945 26.0605 18.5661 25.6016 19.3003C25.3323 19.7309 24.9416 20.0698 24.4453 20.3003C24.7126 20.737 24.8587 21.1953 24.8809 21.6577C24.9205 22.4872 24.5541 23.2144 23.9961 23.7095C23.1659 24.446 21.9023 24.6877 20.7549 24.1353C20.6019 24.4903 20.3711 24.8007 20.0879 25.0562C19.4763 25.6076 18.6431 25.8895 17.8418 25.9146C17.0399 25.9396 16.1731 25.7087 15.5342 25.1079C14.8701 24.4834 14.5529 23.5542 14.7051 22.4107C14.7603 21.9973 15.1402 21.7072 15.5537 21.7622C15.9674 21.8173 16.2582 22.1972 16.2031 22.6109C16.1045 23.3526 16.3156 23.7688 16.5693 24.0073C16.8483 24.2696 17.2893 24.4195 17.7939 24.4038C18.2992 24.3881 18.7722 24.2073 19.0762 23.9331C19.355 23.6815 19.5107 23.342 19.4297 22.8687C19.3724 22.5343 19.5458 22.203 19.8525 22.0581C20.1591 21.9135 20.5243 21.9903 20.7461 22.2466C21.5356 23.1598 22.4887 23.0269 22.9932 22.5796C23.2496 22.3521 23.3874 22.0511 23.3721 21.73C23.3569 21.4119 23.1849 20.9569 22.5928 20.4517C22.3613 20.2541 22.2707 19.9369 22.3633 19.647C22.4559 19.3572 22.7135 19.1513 23.0166 19.1245C23.7943 19.0557 24.1545 18.7646 24.3203 18.4995C24.4991 18.2136 24.5446 17.8097 24.415 17.3706C24.2856 16.932 24.001 16.5358 23.6396 16.3023C23.34 16.1087 22.9762 16.0166 22.5518 16.1138L22.292 16.189C21.9194 16.2768 21.5331 16.0693 21.4053 15.6997C21.2692 15.3056 21.4781 14.8753 21.8721 14.7388Z" fill="#212121"/>
<path d="M15.46 17.7525C15.6766 17.3958 16.1414 17.2819 16.498 17.4986C17.7496 18.259 18.294 19.4918 18.4541 20.7749C18.5057 21.189 18.2119 21.567 17.7979 21.6187C17.384 21.6701 17.0068 21.3763 16.9551 20.9624C16.8323 19.978 16.4508 19.2389 15.7129 18.7905C15.3563 18.5739 15.2433 18.1091 15.46 17.7525Z" fill="#212121"/>
<path d="M17.2266 15.7818C17.524 15.4891 18.0033 15.4931 18.2959 15.7905C18.9627 16.4684 19.6031 16.807 20.7041 16.9243C21.1189 16.9687 21.4192 17.3415 21.375 17.7564C21.3306 18.171 20.9586 18.4713 20.5439 18.4273C19.0956 18.2729 18.1308 17.7781 17.2188 16.8511C16.9261 16.5536 16.9291 16.0744 17.2266 15.7818Z" fill="#212121"/>
<path d="M6.32129 3.16554C8.98372 2.43543 11.7347 4.00215 12.4648 6.66457C13.1946 9.3268 11.628 12.077 8.96582 12.8071C6.30342 13.5373 3.5534 11.9705 2.82324 9.30812C2.09317 6.64584 3.65911 3.89583 6.32129 3.16554ZM11.0869 7.04152C10.5653 5.14017 8.60068 4.02204 6.69922 4.54347C4.79793 5.06507 3.6789 7.02882 4.2002 8.93019C4.72166 10.8318 6.68632 11.9507 8.58789 11.4292C10.4895 10.9077 11.6084 8.94308 11.0869 7.04152Z" fill="#212121"/>
</svg>
