<svg width="20" height="20" viewBox="0 0 20 20" fill="none" xmlns="http://www.w3.org/2000/svg">
<path d="M10.5791 8.18735C10.9544 8.2318 11.2867 8.41434 11.5342 8.64926C11.7803 8.88292 11.9736 9.19703 12.0371 9.54379C12.1031 9.90449 12.0248 10.3017 11.7236 10.617L11.7041 10.6375L11.6816 10.6551C10.5277 11.6173 9.18586 12.612 8.2959 13.2713L8.29199 13.2752C8.08565 13.4281 7.90367 13.5614 7.75391 13.6737C7.26273 14.0418 6.78056 14.2652 6.28516 14.3211C5.99906 14.3534 5.72594 14.328 5.46387 14.2586L5.46094 14.2987C5.43383 14.663 5.41399 15.1387 5.40039 15.6161C5.38683 16.092 5.37931 16.5632 5.375 16.9159C5.37285 17.0921 5.37186 17.2385 5.37109 17.3407L5.37012 17.4588V17.4998L5.36816 18.0018H1.99512V8.53793L2.79785 9.13168L2.79883 9.13266L2.80371 9.13559L2.82324 9.15024C2.84125 9.1633 2.86907 9.18313 2.90527 9.20883C2.97769 9.26025 3.08571 9.33548 3.22461 9.42954C3.49994 9.61596 3.89713 9.87555 4.38477 10.1678C5.06197 10.5152 5.56943 10.8674 5.86621 11.0926C6.61633 10.6001 8.50118 9.34342 9.43652 8.54672C9.7866 8.24856 10.1909 8.1414 10.5791 8.18735ZM10.4609 9.18735C10.3495 9.17414 10.2242 9.19803 10.0889 9.31332C9.07423 10.1775 7.06646 11.51 6.36816 11.9676C6.02369 12.1932 5.59039 12.1507 5.29004 11.9198C5.03501 11.7238 4.56025 11.3886 3.91211 11.0575L3.89648 11.0497L3.88184 11.0409C3.54468 10.8391 3.24811 10.6516 3.00195 10.4911V16.995H4.36719L4.36816 16.9032C4.37251 16.5475 4.3798 16.0707 4.39355 15.5877C4.40728 15.106 4.42719 14.6113 4.45605 14.2235C4.47038 14.0311 4.48818 13.8547 4.50977 13.7157C4.52037 13.6474 4.53415 13.5751 4.55273 13.5096C4.56198 13.477 4.57482 13.435 4.59473 13.3914C4.61091 13.356 4.65022 13.2762 4.72852 13.2039C4.90394 13.0423 5.11167 13.0546 5.2207 13.0838C5.26908 13.0968 5.30644 13.1146 5.3252 13.1239C5.33965 13.131 5.35264 13.1382 5.3584 13.1414C5.65576 13.2945 5.91483 13.3491 6.17188 13.3202C6.4365 13.2903 6.75322 13.1657 7.15039 12.868C7.30245 12.754 7.48556 12.6184 7.69043 12.4666L7.69238 12.4657C8.57877 11.8089 9.88594 10.8402 11.0098 9.90512C11.0475 9.85834 11.0603 9.80435 11.0459 9.72543C11.0272 9.62327 10.9599 9.49276 10.8408 9.37973C10.7231 9.26802 10.5853 9.20213 10.4609 9.18735Z" fill="#212121"/>
<path d="M15.2393 10.4969C15.8831 10.2742 16.4884 10.3859 16.9629 10.6922C17.4248 10.9906 17.7515 11.4643 17.8994 11.9657C18.0472 12.4666 18.0305 13.0476 17.7246 13.537C17.5452 13.8239 17.2848 14.0503 16.9541 14.2039C17.1321 14.4949 17.2294 14.8001 17.2441 15.1082C17.2705 15.661 17.0261 16.1455 16.6543 16.4754C16.101 16.9662 15.2588 17.1268 14.4941 16.7586C14.3922 16.9954 14.2386 17.2025 14.0498 17.3729C13.6422 17.7404 13.0868 17.9285 12.5527 17.9452C12.0183 17.9618 11.4405 17.8075 11.0146 17.4071C10.5723 16.9909 10.3615 16.3721 10.4629 15.6102C10.4996 15.3345 10.7526 15.1409 11.0283 15.1776C11.3038 15.2144 11.4976 15.4674 11.4609 15.743C11.3952 16.2375 11.536 16.5147 11.7051 16.6737C11.891 16.8485 12.185 16.9488 12.5215 16.9383C12.8581 16.9278 13.1735 16.8075 13.376 16.6248C13.5618 16.4571 13.6654 16.2304 13.6113 15.9149C13.5732 15.6921 13.6883 15.4714 13.8926 15.3748C14.097 15.2783 14.3404 15.3299 14.4883 15.5008C15.0145 16.1095 15.6501 16.0207 15.9863 15.7225C16.1572 15.5709 16.2485 15.3701 16.2383 15.1561C16.2281 14.9441 16.1134 14.6413 15.7188 14.3045C15.5645 14.1729 15.5048 13.9616 15.5664 13.7684C15.6281 13.5753 15.7991 13.4378 16.001 13.4198C16.5195 13.3739 16.7596 13.1795 16.8701 13.0028C16.9892 12.8122 17.0199 12.5434 16.9336 12.2508C16.8473 11.9586 16.6578 11.6945 16.417 11.5389C16.1888 11.3915 15.9047 11.3327 15.5684 11.4491C15.3056 11.5399 15.0186 11.4003 14.9277 11.1375C14.8369 10.8747 14.9765 10.5878 15.2393 10.4969Z" fill="#212121"/>
<path d="M10.9648 12.5047C11.1093 12.2672 11.4196 12.1915 11.6572 12.3358C12.4913 12.8426 12.8542 13.6643 12.9609 14.5194C12.9953 14.7953 12.7994 15.0475 12.5234 15.0819C12.2476 15.1161 11.9963 14.9202 11.9619 14.6444C11.8801 13.9883 11.6256 13.4959 11.1338 13.1971C10.8962 13.0527 10.8205 12.7424 10.9648 12.5047Z" fill="#212121"/>
<path d="M12.1436 11.1922C12.3418 10.9974 12.6605 10.9999 12.8555 11.1981C13.2998 11.6497 13.7265 11.8757 14.46 11.9539C14.7365 11.9834 14.9367 12.2311 14.9072 12.5077C14.8777 12.7842 14.63 12.9844 14.3535 12.9549C13.3882 12.852 12.7456 12.5221 12.1377 11.9041C11.9427 11.7059 11.9453 11.3873 12.1436 11.1922Z" fill="#212121"/>
<path d="M4.81641 3.09848C6.4137 2.66057 8.06378 3.59991 8.50195 5.19711C8.94002 6.79456 7.99981 8.44459 6.40234 8.88266C4.80494 9.32069 3.15492 8.38139 2.7168 6.78403C2.27873 5.18658 3.21895 3.53655 4.81641 3.09848ZM7.6748 5.42368C7.36172 4.28314 6.18367 3.61196 5.04297 3.92465C3.90203 4.23753 3.23009 5.41653 3.54297 6.55747C3.8559 7.69831 5.03489 8.36933 6.17578 8.05649C7.31672 7.74361 7.98768 6.56461 7.6748 5.42368Z" fill="#212121"/>
</svg>
