<svg width="28" height="28" viewBox="0 0 28 28" fill="none" xmlns="http://www.w3.org/2000/svg">
<path d="M12.9629 11.8765C14.5167 10.4555 17.3086 12.7019 15.8721 14.3462C14.2829 16.1641 10.7495 18.8665 9.53809 19.7759C8.71908 20.2876 8.11669 20.2019 7.40332 19.8745C7.06848 19.7208 6.72171 19.8784 6.68262 20.2446C6.50452 21.9222 6.22949 26.0005 6.22949 26.0005H2V11.4624C2.01951 11.4819 3.52341 12.9832 5.02832 13.8853C6.04588 14.4952 6.94749 15.2379 7.42969 15.6597C7.64861 15.8512 7.97094 15.8739 8.20605 15.7027C9.19803 14.9803 11.7572 13.0831 12.9629 11.8765Z" fill="#212121"/>
<path d="M21.8633 14.5796C22.8318 14.2445 23.7424 14.4126 24.4561 14.8736C25.1506 15.3222 25.6418 16.0338 25.8643 16.7876C26.0865 17.5408 26.0604 18.4142 25.6006 19.1499C25.3308 19.5814 24.9397 19.9218 24.4424 20.1528C24.7102 20.5904 24.8568 21.0498 24.8789 21.5132C24.9185 22.3441 24.5511 23.0728 23.9922 23.5689C23.1603 24.3069 21.894 24.5481 20.7441 23.9946C20.5908 24.3506 20.3591 24.6614 20.0752 24.9175C19.4623 25.4704 18.6274 25.7537 17.8242 25.7788C17.0206 25.8039 16.152 25.5723 15.5117 24.9702C14.8463 24.3445 14.5283 23.4139 14.6807 22.2681C14.7358 21.8536 15.1167 21.5616 15.5312 21.6167C15.9458 21.6719 16.2367 22.0528 16.1816 22.4673C16.0827 23.2106 16.2947 23.6275 16.5488 23.8667C16.8284 24.1296 17.2706 24.2808 17.7764 24.2652C18.2827 24.2494 18.7569 24.0682 19.0615 23.7935C19.341 23.5413 19.4973 23.2005 19.416 22.7261C19.3586 22.391 19.5315 22.0588 19.8389 21.9136C20.1462 21.7685 20.513 21.8459 20.7354 22.103C21.5266 23.0182 22.4818 22.8845 22.9873 22.4361C23.244 22.2082 23.3814 21.9069 23.3662 21.5855C23.351 21.2667 23.1785 20.8106 22.585 20.3042C22.3529 20.1063 22.2627 19.7881 22.3555 19.4976C22.4483 19.2072 22.7061 19.001 23.0098 18.9741C23.7895 18.9052 24.1503 18.6129 24.3164 18.3472C24.4955 18.0606 24.5409 17.6563 24.4111 17.2163C24.2814 16.7768 23.9969 16.379 23.6348 16.145C23.2917 15.9234 22.8641 15.8353 22.3584 16.0103C21.9633 16.1468 21.5323 15.9375 21.3955 15.5425C21.2588 15.1474 21.4683 14.7165 21.8633 14.5796Z" fill="#212121"/>
<path d="M15.1562 17.5767C15.3595 17.2112 15.8211 17.0795 16.1865 17.2827C17.5301 18.0301 18.3222 19.1331 18.4912 20.5972C18.5391 21.0125 18.2415 21.389 17.8262 21.437C17.4107 21.4849 17.0352 21.1864 16.9873 20.771C16.8799 19.8402 16.4124 19.1412 15.4502 18.606C15.0849 18.4027 14.9531 17.942 15.1562 17.5767Z" fill="#212121"/>
<path d="M17.0137 15.3745C17.3464 15.1212 17.8219 15.1863 18.0752 15.5191C18.6372 16.2572 19.4296 16.6501 20.4961 16.77C20.9117 16.8167 21.2108 17.1914 21.1641 17.607C21.1173 18.0224 20.7426 18.3216 20.3271 18.2749C18.9498 18.1201 17.7379 17.576 16.8701 16.4361C16.6169 16.1033 16.681 15.6278 17.0137 15.3745Z" fill="#212121"/>
<path d="M6.4502 3.17922C9.11263 2.4491 11.8627 4.01582 12.5928 6.67824C13.3228 9.34056 11.757 12.0906 9.09473 12.8208C6.43229 13.5509 3.68226 11.9842 2.95215 9.32179C2.22215 6.6595 3.78795 3.90941 6.4502 3.17922Z" fill="#212121"/>
</svg>
