<svg width="48" height="48" viewBox="0 0 48 48" fill="none" xmlns="http://www.w3.org/2000/svg">
<path d="M15.1423 22.7183C19.4018 21.5502 21.9078 17.1503 20.7398 12.8908C19.5717 8.63139 15.1718 6.12527 10.9123 7.29334C6.65286 8.46141 4.14678 12.8613 5.31485 17.1208C6.48291 21.3803 10.8828 23.8864 15.1423 22.7183Z" fill="#212121"/>
<path d="M11 43.9956H4.01705L4.01703 19.9956C4.01703 19.9956 6.51631 22.4967 9.01708 23.9956C10.6969 25.0024 12.1851 26.2282 12.9811 26.9245C13.3425 27.2407 13.8734 27.2787 14.2615 26.9961C15.8989 25.8037 20.1246 22.6715 22.1151 20.6793C24.6804 18.3333 29.2898 22.0431 26.9168 24.7576C24.2931 27.7588 18.4603 32.2199 16.4609 33.7208C15.1086 34.5657 14.1143 34.424 12.9363 33.8833C12.3834 33.6295 11.8109 33.8897 11.7467 34.4948C11.4527 37.2642 11 43.9956 11 43.9956Z" fill="#212121"/>
<path d="M42.9777 32.6875C42.5323 33.3999 41.8867 33.9609 41.0658 34.3423C41.508 35.0648 41.7497 35.8225 41.7862 36.5877C41.8517 37.9599 41.2457 39.1636 40.3225 39.9826C38.949 41.2011 36.8583 41.5994 34.96 40.6855C34.7068 41.2732 34.3258 41.7861 33.857 42.209C32.845 43.1218 31.466 43.5887 30.1399 43.6301C28.8132 43.6714 27.38 43.2894 26.323 42.2955C25.2242 41.2623 24.6995 39.7258 24.9512 37.8339C25.0422 37.1496 25.6708 36.6686 26.3551 36.7597C27.0395 36.8507 27.5204 37.4793 27.4294 38.1636C27.266 39.3912 27.6157 40.0794 28.0355 40.4742C28.4971 40.9082 29.2267 41.1573 30.062 41.1313C30.8978 41.1052 31.6797 40.8062 32.1825 40.3526C32.6441 39.9362 32.9021 39.3741 32.7679 38.5907C32.6732 38.0375 32.9587 37.489 33.4662 37.2494C33.9736 37.0097 34.5786 37.1376 34.9456 37.5622C36.2519 39.0732 37.8289 38.8528 38.6634 38.1125C39.0877 37.7361 39.3144 37.2382 39.2891 36.707C39.2639 36.1807 38.9795 35.4283 37.9997 34.5924C37.6167 34.2656 37.4671 33.7409 37.6203 33.2612C37.7734 32.7816 38.1994 32.4406 38.7009 32.3963C39.9881 32.2825 40.5837 31.8008 40.858 31.3621C41.1538 30.889 41.2296 30.221 41.0152 29.4944C40.801 28.7687 40.3301 28.1134 39.7321 27.7271C39.1657 27.3612 38.4611 27.2152 37.6262 27.504C36.9737 27.7298 36.2619 27.3839 36.0362 26.7314C35.8105 26.079 36.1564 25.3672 36.8088 25.1414C38.4076 24.5883 39.9105 24.8661 41.0886 25.6271C42.2352 26.3678 43.0456 27.5423 43.4129 28.7868C43.78 30.0304 43.7373 31.4728 42.9777 32.6875Z" fill="#212121"/>
<path d="M30.5548 26.6925C30.1367 26.1431 29.3524 26.0368 28.8031 26.4549C28.2537 26.873 28.1474 27.6573 28.5655 28.2067C29.998 30.0886 31.9985 30.9865 34.2723 31.2421C34.9583 31.3193 35.577 30.8256 35.6541 30.1396C35.7312 29.4536 35.2376 28.8349 34.5516 28.7578C32.7906 28.5598 31.4826 27.9113 30.5548 26.6925Z" fill="#212121"/>
<path d="M27.4365 29.605C26.8332 29.2694 26.0721 29.4865 25.7365 30.0898C25.401 30.6931 25.618 31.4542 26.2213 31.7898C27.8099 32.6734 28.581 33.8267 28.7582 35.3634C28.8373 36.0492 29.4574 36.541 30.1432 36.4619C30.829 36.3828 31.3208 35.7627 31.2417 35.0769C30.9629 32.6595 29.6549 30.8389 27.4365 29.605Z" fill="#212121"/>
</svg>
