<svg width="20" height="20" viewBox="0 0 20 20" fill="none" xmlns="http://www.w3.org/2000/svg">
<path d="M9.30859 8.58384C10.3446 7.63679 12.2061 9.13517 11.248 10.2313C10.1886 11.4432 7.8331 13.2441 7.02539 13.8504C6.4793 14.1916 6.07724 14.1352 5.60156 13.9169C5.37843 13.8145 5.14722 13.9189 5.12109 14.1629C5.00307 15.2747 4.82247 17.9678 4.82031 17.9999H2V8.30845C2.01503 8.32347 3.01724 9.32296 4.01953 9.92369C4.69775 10.3302 5.29871 10.8252 5.62012 11.1063C5.76592 11.2338 5.98004 11.2494 6.13672 11.1356C6.79795 10.6541 8.50476 9.38834 9.30859 8.58384Z" fill="#212121"/>
<path d="M15.2422 10.3866C15.8877 10.1633 16.495 10.2748 16.9707 10.5819C17.4337 10.8809 17.7608 11.3558 17.9092 11.8583C18.0574 12.3605 18.0401 12.9429 17.7334 13.4335C17.5536 13.721 17.2933 13.9474 16.9619 14.1014C17.1405 14.3932 17.2382 14.6996 17.2529 15.0086C17.2794 15.5628 17.0339 16.049 16.6611 16.3797C16.1065 16.8715 15.2625 17.0328 14.4961 16.6639C14.3939 16.9011 14.24 17.1085 14.0508 17.2792C13.6422 17.6476 13.0852 17.8356 12.5498 17.8524C12.0141 17.8691 11.4347 17.7147 11.0078 17.3133C10.5643 16.8961 10.3525 16.2755 10.4541 15.5116C10.491 15.2354 10.7452 15.0412 11.0215 15.078C11.2976 15.1149 11.4918 15.3691 11.4551 15.6454C11.3892 16.1406 11.5298 16.4186 11.6992 16.578C11.8855 16.7532 12.1805 16.854 12.5176 16.8436C12.855 16.8331 13.171 16.7122 13.374 16.5292C13.5604 16.361 13.6645 16.1336 13.6104 15.8172C13.5723 15.5941 13.6879 15.373 13.8926 15.2762C14.0975 15.1794 14.342 15.2308 14.4902 15.4022C15.0175 16.0121 15.6541 15.9235 15.9912 15.6249C16.1625 15.4729 16.2544 15.271 16.2441 15.0565C16.2339 14.844 16.119 14.5404 15.7236 14.203C15.569 14.071 15.5085 13.8586 15.5703 13.6649C15.6323 13.4714 15.8044 13.3342 16.0068 13.3163C16.5266 13.2703 16.7672 13.0754 16.8779 12.8983C16.9973 12.7073 17.0279 12.4376 16.9414 12.1444C16.8549 11.8513 16.6643 11.5865 16.4229 11.4305C16.1941 11.2828 15.9093 11.2241 15.5723 11.3407C15.3089 11.4315 15.0218 11.2915 14.9307 11.0282C14.8396 10.7649 14.9791 10.4779 15.2422 10.3866Z" fill="#212121"/>
<path d="M10.7715 12.3846C10.907 12.141 11.2144 12.0528 11.458 12.1883C12.3538 12.6866 12.8815 13.4222 12.9941 14.3983C13.0261 14.6753 12.8277 14.9259 12.5508 14.9579C12.2739 14.9898 12.0233 14.7913 11.9912 14.5145C11.9196 13.894 11.6083 13.428 10.9668 13.0711C10.7233 12.9356 10.636 12.6282 10.7715 12.3846Z" fill="#212121"/>
<path d="M12.0098 10.9169C12.2316 10.748 12.5479 10.7908 12.7168 11.0126C13.0915 11.5048 13.6199 11.7666 14.3311 11.8465C14.6081 11.8777 14.8075 12.1281 14.7764 12.4051C14.745 12.6818 14.4955 12.8804 14.2188 12.8495C13.3005 12.7463 12.4926 12.3838 11.9141 11.6239C11.7452 11.402 11.7879 11.0857 12.0098 10.9169Z" fill="#212121"/>
<path d="M4.88086 3.09849C6.47816 2.66055 8.12822 3.59992 8.56641 5.19713C9.00447 6.79458 8.06426 8.44558 6.4668 8.88365C4.86948 9.32148 3.21933 8.38131 2.78125 6.78404C2.34318 5.18659 3.2834 3.53656 4.88086 3.09849Z" fill="#212121"/>
</svg>
