<svg width="32" height="32" viewBox="0 0 32 32" fill="none" xmlns="http://www.w3.org/2000/svg">
<path d="M14.79 13.5226C16.603 11.8646 19.8605 14.4861 18.1836 16.4044C16.3294 18.5254 12.2071 21.6776 10.7939 22.7384C9.83838 23.3355 9.13604 23.2357 8.30371 22.8537C7.91294 22.6743 7.50828 22.8587 7.46289 23.2863C7.25525 25.2424 6.93498 29.9941 6.93457 30.0001H2V13.0392C2.00861 13.0478 3.77024 14.8097 5.5332 15.8663C6.72027 16.5778 7.77237 17.4436 8.33496 17.9357C8.59038 18.1591 8.96591 18.1862 9.24023 17.9865C10.3975 17.1438 13.3834 14.9304 14.79 13.5226Z" fill="#212121"/>
<path d="M25.1738 16.6759C26.3037 16.285 27.3667 16.4809 28.1992 17.0187C29.0094 17.5421 29.5823 18.3727 29.8418 19.2521C30.1011 20.1309 30.0709 21.1505 29.5342 22.0089C29.2194 22.5123 28.7628 22.9083 28.1826 23.1779C28.4951 23.6884 28.6655 24.2241 28.6914 24.7648C28.7377 25.7346 28.3096 26.5854 27.6572 27.1642C26.6866 28.0253 25.2087 28.3071 23.8672 27.6613C23.6883 28.0764 23.4191 28.4387 23.0879 28.7374C22.3727 29.3825 21.3981 29.7131 20.4609 29.7423C19.5235 29.7715 18.5106 29.5012 17.7637 28.799C16.9872 28.0688 16.616 26.9827 16.7939 25.6456C16.8583 25.1621 17.3026 24.8227 17.7861 24.8869C18.2698 24.9512 18.6102 25.3954 18.5459 25.879C18.4306 26.7463 18.677 27.2329 18.9736 27.5119C19.2998 27.8186 19.816 27.9941 20.4062 27.9757C20.9967 27.9573 21.549 27.7463 21.9043 27.4259C22.2305 27.1317 22.413 26.7343 22.3184 26.1808C22.2514 25.79 22.4531 25.402 22.8115 25.2326C23.17 25.0632 23.598 25.1534 23.8574 25.4533C24.7806 26.5211 25.8956 26.3661 26.4854 25.8429C26.7851 25.5769 26.9447 25.2241 26.9268 24.8488C26.9088 24.4769 26.7078 23.9452 26.0156 23.3546C25.7451 23.1237 25.6398 22.7531 25.748 22.4142C25.8563 22.0752 26.1573 21.8342 26.5117 21.8029C27.421 21.7224 27.8423 21.3823 28.0361 21.0724C28.2452 20.7381 28.298 20.2655 28.1465 19.7521C27.9951 19.2393 27.6628 18.776 27.2402 18.5031C26.8399 18.2445 26.342 18.1417 25.752 18.3458C25.2909 18.5053 24.7874 18.26 24.6279 17.799C24.4688 17.3382 24.7132 16.8355 25.1738 16.6759Z" fill="#212121"/>
<path d="M17.3496 20.173C17.5868 19.7466 18.1244 19.5931 18.5508 19.8302C20.1185 20.7022 21.0432 21.989 21.2402 23.6974C21.296 24.1819 20.9483 24.6199 20.4639 24.6759C19.9792 24.7318 19.5403 24.3842 19.4844 23.8996C19.3591 22.8138 18.8148 21.9986 17.6924 21.3742C17.266 21.137 17.1125 20.5994 17.3496 20.173Z" fill="#212121"/>
<path d="M19.5166 17.6037C19.9048 17.3084 20.4594 17.3835 20.7549 17.7716C21.4105 18.633 22.3347 19.0917 23.5791 19.2316C24.0639 19.2861 24.4129 19.7234 24.3584 20.2081C24.3039 20.6928 23.8665 21.0418 23.3818 20.9874C21.7749 20.8068 20.361 20.1719 19.3486 18.8419C19.0531 18.4537 19.1284 17.8992 19.5166 17.6037Z" fill="#212121"/>
<path d="M7.10742 4.1974C10.0361 3.39428 13.0611 5.11738 13.8643 8.04604C14.6673 10.9747 12.9443 13.9998 10.0156 14.8029C7.08708 15.6057 4.06187 13.8828 3.25879 10.9542C2.45572 8.0257 4.17895 5.00065 7.10742 4.1974Z" fill="#212121"/>
</svg>
