<svg width="24" height="24" viewBox="0 0 24 24" fill="none" xmlns="http://www.w3.org/2000/svg">
<path d="M11.1357 10.2298C12.4307 9.04587 14.7574 10.9191 13.5596 12.2893C12.235 13.8043 9.2905 16.0561 8.28125 16.8137C7.59882 17.24 7.09645 17.1686 6.50195 16.8958C6.22292 16.7679 5.93476 16.8991 5.90234 17.2044C5.75393 18.6025 5.52539 22.0003 5.52539 22.0003H2V9.88503C2 9.88503 3.26204 11.148 4.52441 11.9046C5.37219 12.4127 6.12364 13.0316 6.52539 13.3831C6.70767 13.5422 6.97514 13.5614 7.1709 13.4192C7.99744 12.8173 10.131 11.2354 11.1357 10.2298Z" fill="#212121"/>
<path d="M18.5527 12.4827C19.3598 12.2035 20.1192 12.3437 20.7139 12.7278C21.2924 13.1016 21.7013 13.6945 21.8867 14.3225C22.072 14.9503 22.0504 15.679 21.667 16.2923C21.4422 16.6517 21.1164 16.9347 20.7021 17.1272C20.9254 17.4919 21.047 17.8748 21.0654 18.261C21.0984 18.9536 20.7931 19.5615 20.3271 19.9749C19.6339 20.5899 18.5783 20.7906 17.6201 20.3294C17.4924 20.6259 17.2999 20.8845 17.0635 21.0979C16.5527 21.5587 15.8559 21.7948 15.1865 21.8157C14.5169 21.8365 13.7933 21.6435 13.2598 21.1419C12.7052 20.6204 12.4403 19.8448 12.5674 18.8899C12.6133 18.5445 12.9309 18.302 13.2764 18.3479C13.6216 18.394 13.8641 18.7107 13.8184 19.0559C13.7359 19.6755 13.9121 20.0236 14.124 20.2229C14.357 20.442 14.7258 20.5671 15.1475 20.554C15.5693 20.5408 15.964 20.3903 16.2178 20.1614C16.4508 19.9512 16.5814 19.6672 16.5137 19.2717C16.4659 18.9925 16.6101 18.716 16.8662 18.595C17.1222 18.4743 17.4271 18.5383 17.6123 18.7522C18.2717 19.5149 19.068 19.4042 19.4893 19.0305C19.7034 18.8405 19.8175 18.5887 19.8047 18.3206C19.7919 18.0549 19.6486 17.675 19.1543 17.2532C18.9611 17.0882 18.8856 16.8234 18.9629 16.5813C19.0402 16.3395 19.2549 16.1673 19.5078 16.1448C20.1571 16.0874 20.4581 15.8446 20.5967 15.6233C20.746 15.3845 20.785 15.0467 20.6768 14.68C20.5686 14.3137 20.3301 13.9833 20.0283 13.7884C19.7425 13.6038 19.3871 13.5294 18.9658 13.6751C18.6365 13.789 18.277 13.6147 18.1631 13.2854C18.0492 12.9562 18.2236 12.5968 18.5527 12.4827Z" fill="#212121"/>
<path d="M12.9639 14.9807C13.1333 14.6762 13.5177 14.5662 13.8223 14.7356C14.9421 15.3585 15.6024 16.278 15.7432 17.4983C15.783 17.8444 15.5346 18.1576 15.1885 18.1975C14.8423 18.2375 14.5292 17.989 14.4893 17.6428C14.3998 16.8673 14.0106 16.2851 13.209 15.8391C12.9045 15.6698 12.7945 15.2853 12.9639 14.9807Z" fill="#212121"/>
<path d="M14.5117 13.1458C14.789 12.9347 15.1854 12.9886 15.3965 13.2659C15.8648 13.881 16.5253 14.208 17.4141 14.3079C17.7602 14.347 18.0096 14.6599 17.9707 15.0061C17.9316 15.3523 17.6187 15.6017 17.2725 15.5628C16.1248 15.4337 15.1147 14.9804 14.3916 14.0305C14.1806 13.7533 14.2345 13.3569 14.5117 13.1458Z" fill="#212121"/>
<path d="M5.45312 3.13698C7.58299 2.55308 9.78312 3.80597 10.3672 5.93581C10.9512 8.0656 9.69805 10.2656 7.56836 10.8499C5.43841 11.434 3.23741 10.181 2.65332 8.05105C2.06928 5.92114 3.32321 3.72107 5.45312 3.13698Z" fill="#212121"/>
</svg>
