<svg width="32" height="32" viewBox="0 0 32 32" fill="none" xmlns="http://www.w3.org/2000/svg">
<path d="M17.0273 12.8185C17.6841 12.8964 18.265 13.2169 18.6982 13.6281C19.1291 14.037 19.467 14.5865 19.5781 15.1935C19.6937 15.8249 19.5574 16.5195 19.0303 17.0714L18.9961 17.1076L18.957 17.1398C16.9368 18.8243 14.5872 20.5656 13.0293 21.7199L13.0225 21.7247C12.6614 21.9923 12.3441 22.2275 12.082 22.424C11.2221 23.0685 10.3771 23.4589 9.50977 23.5568C9.00896 23.6132 8.53102 23.5689 8.07227 23.4474L8.06641 23.5167C8.01894 24.1545 7.98572 24.9876 7.96191 25.8234C7.93818 26.6564 7.92454 27.4814 7.91699 28.0988C7.91322 28.4072 7.91052 28.664 7.90918 28.8429L7.9082 29.0499L7.90723 29.1222L7.9043 30.0001H2V13.4327L3.40527 14.4728L3.40723 14.4738L3.41504 14.4796L3.4502 14.505C3.48172 14.5279 3.52944 14.5626 3.59277 14.6076C3.71953 14.6976 3.90809 14.8295 4.15137 14.9943C4.63349 15.3207 5.32944 15.7753 6.18359 16.2872C7.3691 16.8953 8.25684 17.5111 8.77637 17.9054C10.0894 17.0433 13.3879 14.8421 15.0254 13.4474C15.6383 12.9253 16.3477 12.738 17.0273 12.8185ZM16.8193 14.5695C16.6243 14.5464 16.4057 14.5876 16.1689 14.7892C14.393 16.3019 10.8789 18.6354 9.65625 19.4367C9.05319 19.8319 8.29451 19.7579 7.76855 19.3536C7.32214 19.0105 6.49001 18.423 5.35449 17.8429L5.3291 17.8302L5.30371 17.8146C4.71332 17.4612 4.19371 17.1338 3.7627 16.8527V28.2374H6.15234L6.1543 28.0773C6.16191 27.4544 6.17513 26.6194 6.19922 25.7736C6.22324 24.9303 6.25807 24.0647 6.30859 23.3859C6.33366 23.0492 6.3636 22.7405 6.40137 22.4972C6.41993 22.3777 6.44402 22.2506 6.47656 22.1359C6.49271 22.079 6.51604 22.0059 6.55078 21.9298C6.57912 21.8678 6.64875 21.7273 6.78613 21.6007C7.09354 21.3177 7.45687 21.3405 7.64746 21.3917C7.73176 21.4144 7.79625 21.4438 7.8291 21.4601C7.85518 21.473 7.87897 21.4868 7.88867 21.4923C8.4092 21.7602 8.86252 21.8556 9.3125 21.8048C9.77563 21.7525 10.3294 21.5347 11.0244 21.0138C11.2906 20.8143 11.611 20.5764 11.9697 20.3107L11.9727 20.3087C13.5243 19.1591 15.8128 17.4633 17.7803 15.8263C17.8465 15.7443 17.8701 15.6494 17.8447 15.5109C17.8119 15.332 17.6928 15.1042 17.4844 14.9064C17.2783 14.7109 17.0371 14.5953 16.8193 14.5695Z" fill="#212121"/>
<path d="M25.1846 16.8624C26.3121 16.4724 27.3723 16.6686 28.2031 17.2052C29.0114 17.7275 29.5828 18.5554 29.8418 19.4327C30.1006 20.3097 30.0707 21.3271 29.5352 22.1837C29.2211 22.6861 28.7655 23.0818 28.1865 23.3507C28.4984 23.8602 28.6686 24.3951 28.6943 24.9347C28.7404 25.9022 28.313 26.7508 27.6621 27.3283C26.6936 28.1874 25.2194 28.4687 23.8809 27.8244C23.7024 28.2387 23.433 28.6004 23.1025 28.8986C22.3889 29.5421 21.4164 29.8714 20.4814 29.9005C19.546 29.9296 18.5354 29.6599 17.79 28.9591C17.0153 28.2305 16.6447 27.1468 16.8223 25.8126C16.8867 25.3303 17.3301 24.9917 17.8125 25.0558C18.2951 25.12 18.6345 25.5634 18.5703 26.046C18.4553 26.9115 18.702 27.3966 18.998 27.6749C19.3236 27.9809 19.8379 28.1572 20.4268 28.1388C21.0162 28.1204 21.5673 27.9088 21.9219 27.589C22.2474 27.2954 22.4295 26.8992 22.335 26.3468C22.2682 25.9568 22.4693 25.5695 22.8271 25.4005C23.185 25.2315 23.6123 25.3218 23.8711 25.6212C24.7921 26.6865 25.9036 26.5317 26.4922 26.0099C26.7913 25.7445 26.9514 25.3932 26.9336 25.0187C26.9159 24.6476 26.7153 24.117 26.0244 23.5275C25.7543 23.297 25.6488 22.9263 25.7568 22.588C25.8649 22.2501 26.1652 22.0101 26.5186 21.9786C27.4263 21.8984 27.8466 21.5585 28.04 21.2492C28.2486 20.9155 28.3026 20.4441 28.1514 19.9318C28.0003 19.4201 27.6677 18.958 27.2461 18.6857C26.8467 18.4277 26.3495 18.3248 25.7607 18.5285C25.3007 18.6875 24.7988 18.4435 24.6396 17.9835C24.4806 17.5235 24.7246 17.0216 25.1846 16.8624Z" fill="#212121"/>
<path d="M17.7031 20.3781C17.9559 19.962 18.498 19.8294 18.9141 20.0822C20.3743 20.9694 21.0096 22.4074 21.1963 23.9044C21.2565 24.3875 20.9138 24.8276 20.4307 24.8878C19.9477 24.9478 19.5075 24.6052 19.4473 24.1222C19.304 22.9739 18.8589 22.112 17.998 21.589C17.5821 21.3362 17.4505 20.7941 17.7031 20.3781Z" fill="#212121"/>
<path d="M19.7646 18.0792C20.1117 17.7378 20.6703 17.7429 21.0117 18.09C21.7896 18.8806 22.537 19.2754 23.8213 19.4122C24.3053 19.4639 24.656 19.898 24.6045 20.382C24.5529 20.8659 24.1187 21.2165 23.6348 21.1652C21.9449 20.9851 20.819 20.4079 19.7549 19.3263C19.4135 18.9793 19.4177 18.4207 19.7646 18.0792Z" fill="#212121"/>
<path d="M7.0459 4.1974C9.97457 3.39429 12.9996 5.11738 13.8027 8.04603C14.6057 10.9746 12.8827 13.9998 9.9541 14.8029C7.02547 15.6059 4.00041 13.8828 3.19727 10.9542C2.39414 8.02557 4.11722 5.00052 7.0459 4.1974ZM12.2871 8.46107C11.7133 6.36958 9.55254 5.13945 7.46094 5.71302C5.36963 6.28682 4.13953 8.44677 4.71289 10.5382C5.2865 12.6299 7.44733 13.8609 9.53906 13.2872C11.6305 12.7134 12.8607 10.5526 12.2871 8.46107Z" fill="#212121"/>
</svg>
