<svg width="24" height="24" viewBox="0 0 24 24" fill="none" xmlns="http://www.w3.org/2000/svg">
<path d="M12.7266 9.73447C13.1951 9.78998 13.6098 10.0183 13.9189 10.3116C14.2265 10.6035 14.4686 10.9965 14.5479 11.4298C14.6302 11.8803 14.5324 12.3758 14.1562 12.7696L14.1318 12.796L14.1045 12.8185C12.6627 14.0206 10.9859 15.2632 9.87402 16.087L9.86816 16.0909C9.61053 16.2818 9.38428 16.4498 9.19727 16.5899C8.58361 17.0499 7.98026 17.3278 7.36133 17.3976C7.00401 17.4378 6.66326 17.4061 6.33594 17.3194C6.33467 17.3357 6.33328 17.3525 6.33203 17.3692C6.29815 17.8244 6.27383 18.4192 6.25684 19.0157C6.2399 19.6103 6.23 20.1991 6.22461 20.6397C6.22192 20.8597 6.22068 21.0424 6.21973 21.17L6.21875 21.3185V21.3702L6.21582 21.9962H2.00195V10.1729L3.00488 10.9151H3.00684L3.0127 10.92L3.03711 10.9376C3.05961 10.9539 3.09442 10.9787 3.13965 11.0108C3.23012 11.0751 3.3646 11.1697 3.53809 11.2872C3.88216 11.5202 4.37884 11.8448 4.98828 12.2101C5.83422 12.644 6.46814 13.083 6.83887 13.3643C7.77621 12.7489 10.1304 11.1789 11.2988 10.1837C11.7362 9.81116 12.2416 9.67704 12.7266 9.73447ZM12.5791 10.9835C12.4399 10.967 12.2833 10.9968 12.1143 11.1407C10.8468 12.2203 8.33831 13.8853 7.46582 14.4571C7.03547 14.7391 6.49448 14.6869 6.11914 14.3985C5.80055 14.1536 5.20686 13.7344 4.39648 13.3204L4.37793 13.3106L4.35938 13.2999C3.93827 13.0479 3.56822 12.8139 3.26074 12.6134V20.7384H4.96582C4.96624 20.7016 4.96632 20.6633 4.9668 20.6241C4.97223 20.1796 4.98183 19.5833 4.99902 18.9796C5.01616 18.378 5.04111 17.7608 5.07715 17.2765C5.09504 17.0361 5.11658 16.8154 5.14355 16.6417C5.1568 16.5564 5.17404 16.4658 5.19727 16.3839C5.20881 16.3432 5.22516 16.2908 5.25 16.2364C5.27025 16.1921 5.31999 16.0923 5.41797 16.002C5.63722 15.8002 5.89612 15.8161 6.03223 15.8526C6.09227 15.8688 6.13855 15.8898 6.16211 15.9015C6.18072 15.9107 6.19815 15.92 6.20508 15.9239C6.57662 16.1151 6.89953 16.1838 7.2207 16.1476C7.55124 16.1103 7.94634 15.9549 8.44238 15.5831C8.6325 15.4406 8.86194 15.271 9.11816 15.0811L9.11914 15.0802C10.2265 14.2598 11.8596 13.0492 13.2637 11.881C13.3109 11.8224 13.3276 11.7551 13.3096 11.6563C13.2862 11.5288 13.2023 11.3659 13.0537 11.2247C12.9067 11.0852 12.7345 11.002 12.5791 10.9835Z" fill="#212121"/>
<path d="M18.5488 12.6202C19.3533 12.342 20.1094 12.4824 20.7021 12.8653C21.2791 13.2381 21.6872 13.8289 21.8721 14.4552C22.0567 15.081 22.0355 15.8068 21.6533 16.4181C21.4292 16.7766 21.1036 17.0591 20.6904 17.2511C20.913 17.6147 21.0353 17.9959 21.0537 18.381C21.0867 19.0716 20.781 19.6777 20.3164 20.0899C19.6252 20.7029 18.5733 20.9032 17.6182 20.4435C17.4908 20.7392 17.2984 20.9972 17.0625 21.2101C16.5533 21.6693 15.8596 21.904 15.1924 21.9249C14.5248 21.9457 13.8034 21.754 13.2715 21.254C12.7185 20.734 12.4544 19.9601 12.5811 19.0079C12.627 18.6638 12.9429 18.4222 13.2871 18.4679C13.6314 18.5137 13.8738 18.8296 13.8281 19.1739C13.7459 19.7916 13.9216 20.1383 14.1328 20.337C14.3651 20.5554 14.733 20.6812 15.1533 20.6681C15.5738 20.6549 15.9668 20.5037 16.2197 20.2755C16.452 20.0659 16.5822 19.783 16.5146 19.3888C16.4672 19.1105 16.6109 18.8345 16.8662 18.714C17.1214 18.5935 17.4256 18.6578 17.6104 18.8712C18.2677 19.6315 19.0614 19.5209 19.4814 19.1485C19.6948 18.9592 19.8095 18.7087 19.7969 18.4415C19.7842 18.1766 19.6406 17.7978 19.1475 17.377C18.9548 17.2126 18.88 16.9484 18.957 16.7071C19.0341 16.4657 19.2486 16.2939 19.501 16.2716C20.1485 16.2143 20.4479 15.9718 20.5859 15.7511C20.7348 15.513 20.7728 15.1771 20.665 14.8116C20.5573 14.4464 20.3205 14.1164 20.0195 13.922C19.7345 13.7378 19.3801 13.6643 18.96 13.8097C18.6317 13.9232 18.2729 13.7492 18.1592 13.421C18.0456 13.0926 18.2205 12.7338 18.5488 12.6202Z" fill="#212121"/>
<path d="M13.209 15.129C13.3894 14.8322 13.7764 14.7377 14.0732 14.9181C15.1155 15.5513 15.5689 16.5781 15.7021 17.6466C15.7449 17.9911 15.5007 18.3046 15.1562 18.3477C14.8115 18.3907 14.4971 18.1466 14.4541 17.8018C14.3519 16.9822 14.0344 16.3666 13.4199 15.9933C13.123 15.8128 13.0286 15.4259 13.209 15.129Z" fill="#212121"/>
<path d="M14.6807 13.4893C14.9283 13.2457 15.3267 13.2485 15.5703 13.4962C16.1255 14.0605 16.6587 14.3418 17.5752 14.4395C17.9206 14.4763 18.1704 14.7866 18.1338 15.1319C18.097 15.4773 17.7877 15.7281 17.4424 15.6915C16.2363 15.563 15.4323 15.151 14.6729 14.379C14.4292 14.1314 14.4331 13.733 14.6807 13.4893Z" fill="#212121"/>
<path d="M5.49219 3.14365C7.62214 2.55955 9.82216 3.81254 10.4062 5.94247C10.9903 8.07238 9.73733 10.2724 7.60742 10.8565C5.47754 11.4406 3.27754 10.1875 2.69336 8.05771C2.10928 5.92781 3.3623 3.72778 5.49219 3.14365ZM9.30469 6.24423C8.88747 4.72328 7.31595 3.82839 5.79492 4.24521C4.2738 4.66234 3.37801 6.23385 3.79492 7.75497C4.21206 9.27611 5.78354 10.1709 7.30469 9.754C8.82594 9.33683 9.72186 7.76548 9.30469 6.24423Z" fill="#212121"/>
</svg>
