<svg width="48" height="48" viewBox="0 0 48 48" fill="none" xmlns="http://www.w3.org/2000/svg">
<path d="M6.01412 21.9785L6.01182 21.9768L4.01855 20.5027L4.01857 43.9957H12.391L12.3964 42.6481C12.3967 42.5805 12.3974 42.4811 12.3983 42.3543C12.4002 42.1006 12.4035 41.7373 12.4088 41.2999C12.4195 40.4244 12.4386 39.2547 12.4723 38.0732C12.506 36.888 12.554 35.7067 12.6213 34.8023L12.6289 34.7032C13.2796 34.8756 13.9572 34.9385 14.6675 34.8584C15.8974 34.7197 17.0955 34.1667 18.3149 33.2527C18.6866 32.9741 19.1364 32.6408 19.6486 32.2614L19.659 32.2537C21.8682 30.6169 25.2001 28.1482 28.065 25.7595L28.1194 25.7141L28.1684 25.6628C28.916 24.8801 29.1096 23.895 28.9457 22.9996C28.7882 22.1388 28.3086 21.3593 27.6975 20.7793C27.0831 20.1961 26.2591 19.7418 25.3275 19.6314C24.3638 19.5173 23.3588 19.7831 22.4896 20.5234C20.1678 22.5011 15.49 25.622 13.628 26.8445C12.8913 26.2854 11.6324 25.4121 9.95129 24.5498C8.74007 23.8239 7.75336 23.1793 7.06969 22.7164C6.72468 22.4828 6.45723 22.2957 6.27746 22.168C6.18759 22.1042 6.11967 22.0553 6.07497 22.0229L6.02549 21.9868L6.01412 21.9785ZM24.1107 22.4266C24.4467 22.1404 24.7567 22.0813 25.0335 22.1141C25.3424 22.1507 25.6842 22.3151 25.9765 22.5925C26.2721 22.8731 26.4402 23.1961 26.4866 23.4497C26.5225 23.6462 26.4893 23.7802 26.3954 23.8965C23.6054 26.2179 20.3606 28.6224 18.1603 30.2526L18.1557 30.256C17.6472 30.6328 17.1928 30.9694 16.8155 31.2523C15.8295 31.9913 15.0442 32.3 14.3873 32.3741C13.7491 32.4461 13.1069 32.3108 12.3685 31.9308C12.3548 31.923 12.3217 31.9044 12.2847 31.8861C12.2381 31.8631 12.1466 31.8203 12.0265 31.788C11.7562 31.7153 11.241 31.6837 10.805 32.0856C10.6102 32.2651 10.5125 32.4634 10.4724 32.5513C10.4228 32.6597 10.3893 32.7636 10.3664 32.8445C10.3203 33.0072 10.2866 33.1863 10.2603 33.3558C10.2067 33.701 10.1638 34.139 10.1282 34.6167C10.0566 35.5793 10.0074 36.8062 9.9733 38.002C9.93912 39.2017 9.91979 40.386 9.90899 41.2693L9.90632 41.4957H6.51857L6.51856 25.3515C7.12976 25.7502 7.86557 26.2151 8.70277 26.7161L8.73871 26.7376L8.77601 26.7567C10.3862 27.5793 11.5654 28.4118 12.1985 28.8984C12.9443 29.4718 14.0199 29.5768 14.8751 29.0163C16.6087 27.8802 21.5923 24.5717 24.1107 22.4266ZM11.1519 34.1149L11.1399 34.1081C11.1166 34.0948 11.1239 34.1005 11.1519 34.1149Z" fill="#212121"/>
<path d="M43.0642 32.9123C42.6188 33.6247 41.9733 34.1856 41.1523 34.567C41.5945 35.2895 41.8362 36.0473 41.8727 36.8125C41.9383 38.1847 41.3322 39.3883 40.4091 40.2073C39.0356 41.4259 36.9449 41.8242 35.0465 40.9102C34.7934 41.4979 34.4123 42.0109 33.9435 42.4337C32.9316 43.3466 31.5525 43.8135 30.2264 43.8548C28.8997 43.8962 27.4665 43.5141 26.4095 42.5202C25.3107 41.4871 24.786 39.9506 25.0377 38.0587C25.1288 37.3743 25.7573 36.8934 26.4417 36.9845C27.126 37.0755 27.6069 37.7041 27.5159 38.3884C27.3525 39.616 27.7022 40.3042 28.122 40.6989C28.5836 41.1329 29.3133 41.3821 30.1485 41.356C30.9843 41.33 31.7662 41.031 32.269 40.5774C32.7306 40.161 32.9886 39.5988 32.8544 38.8154C32.7597 38.2623 33.0452 37.7138 33.5527 37.4742C34.0601 37.2345 34.6651 37.3624 35.0321 37.7869C36.3384 39.298 37.9155 39.0776 38.7499 38.3372C39.1742 37.9608 39.4009 37.4629 39.3756 36.9317C39.3504 36.4054 39.066 35.6531 38.0862 34.8171C37.7032 34.4903 37.5536 33.9656 37.7068 33.486C37.8599 33.0063 38.2859 32.6654 38.7874 32.6211C40.0746 32.5072 40.6702 32.0255 40.9445 31.5869C41.2403 31.1138 41.3161 30.4457 41.1017 29.7192C40.8875 28.9935 40.4166 28.3381 39.8186 27.9519C39.2522 27.586 38.5476 27.44 37.7127 27.7288C37.0603 27.9545 36.3484 27.6086 36.1227 26.9562C35.897 26.3038 36.2429 25.5919 36.8953 25.3662C38.4941 24.8131 39.9971 25.0909 41.1751 25.8519C42.3217 26.5925 43.1322 27.7671 43.4995 29.0115C43.8665 30.2552 43.8238 31.6975 43.0642 32.9123Z" fill="#212121"/>
<path d="M30.9776 27.1064C30.4935 26.6142 29.702 26.6077 29.2099 27.0919C28.7177 27.576 28.7112 28.3674 29.1954 28.8596C30.7045 30.3936 32.3004 31.2123 34.6969 31.4677C35.3834 31.5408 35.9991 31.0437 36.0723 30.3572C36.1454 29.6707 35.6483 29.0549 34.9618 28.9818C33.1404 28.7877 32.0808 28.2278 30.9776 27.1064Z" fill="#212121"/>
<path d="M28.0031 29.9317C27.4131 29.5733 26.6442 29.761 26.2858 30.351C25.9273 30.941 26.115 31.7098 26.705 32.0683C27.9259 32.8101 28.5565 34.0328 28.7596 35.6615C28.845 36.3466 29.4696 36.8327 30.1547 36.7473C30.8397 36.6618 31.3258 36.0372 31.2404 35.3522C30.9757 33.2292 30.0741 31.1899 28.0031 29.9317Z" fill="#212121"/>
<path d="M20.7166 12.8814C19.5485 8.62153 15.1481 6.11517 10.8882 7.28336C6.62833 8.45154 4.12202 12.8519 5.2902 17.1118C6.45838 21.3716 10.8587 23.878 15.1186 22.7098C19.3785 21.5416 21.8848 17.1413 20.7166 12.8814ZM11.4927 9.48761C14.5352 8.65327 17.678 10.4434 18.5124 13.4859C19.3467 16.5284 17.5567 19.6712 14.5141 20.5056C11.4716 21.3399 8.32879 19.5498 7.49445 16.5073C6.66011 13.4648 8.45018 10.322 11.4927 9.48761Z" fill="#212121"/>
</svg>
