<svg width="24" height="24" viewBox="0 0 24 24" fill="none" xmlns="http://www.w3.org/2000/svg">
<path d="M21 9.81709C20.5448 9.07301 20.0435 8.36021 19.5 7.68267C18.5587 6.50911 17.4909 5.44133 16.3173 4.5C15.6397 3.95653 14.9269 3.4552 14.1828 3H18C19.6569 3 21 4.34315 21 6V9.81709ZM3.39862 4.50472C3.14505 4.94491 3 5.45552 3 6C11.2843 6 18 12.7157 18 21C18.5445 21 19.0551 20.8549 19.4953 20.6014C20.3946 20.0833 21 19.1124 21 18V14.4842C19.1516 9.10605 14.8938 4.84831 9.51562 3H6C4.88763 3 3.91666 3.60542 3.39862 4.50472ZM3 8C3.50731 8 4.00784 8.02906 4.5 8.0856C10.481 8.77276 15.2272 13.519 15.9144 19.5C15.9709 19.9922 16 20.4927 16 21L11.9871 21C11.7356 16.1513 7.8487 12.2644 3 12.0129V8ZM3 14.0164V18C3 19.6569 4.34315 21 6 21L9.9836 21C9.94963 20.484 9.86349 19.9823 9.73038 19.5C9.03087 16.9655 7.03447 14.9691 4.5 14.2696C4.01774 14.1365 3.516 14.0504 3 14.0164Z" fill="#242424"/>
</svg>
