<svg width="20" height="20" viewBox="0 0 20 20" fill="none" xmlns="http://www.w3.org/2000/svg">
<path d="M5.5 3C4.11929 3 3 4.11929 3 5.5V6.04938C3.32891 6.01672 3.6625 6 4 6C9.52285 6 14 10.4772 14 16C14 16.3375 13.9833 16.6711 13.9506 17H14.5C15.8807 17 17 15.8807 17 14.5V12.7785C15.6961 8.0379 11.9621 4.30387 7.22144 3H5.5ZM11.1213 3C13.5746 4.38797 15.612 6.42536 17 8.87865V5.5C17 4.11929 15.8807 3 14.5 3H11.1213ZM12.4418 17C12.4802 16.672 12.5 16.3383 12.5 16C12.5 11.3056 8.69442 7.5 4 7.5C3.66169 7.5 3.32799 7.51976 3 7.5582V11.0224C3.16468 11.0076 3.33146 11 3.5 11C6.53757 11 9 13.4624 9 16.5C9 16.6685 8.99242 16.8353 8.97758 17H12.4418ZM7.46905 17C7.48948 16.8362 7.5 16.6693 7.5 16.5C7.5 14.2909 5.70914 12.5 3.5 12.5C3.33067 12.5 3.1638 12.5105 3 12.5309V14.5C3 15.8807 4.11929 17 5.5 17H7.46905Z" fill="#242424"/>
</svg>
