<svg width="230" height="160" viewBox="0 0 230 160" fill="none" xmlns="http://www.w3.org/2000/svg">
<path d="M115.455 142C149.948 142 177.91 114.018 177.91 79.5C177.91 44.9822 149.948 17 115.455 17C80.9621 17 53 44.9822 53 79.5C53 114.018 80.9621 142 115.455 142Z" fill="#242424"/>
<path d="M172.426 42.647V115.745C172.426 118.425 170.22 120.632 167.543 120.632H63.3683C60.6906 120.632 58.4854 118.425 58.4854 115.745V42.647C58.4854 39.9673 60.6906 37.7605 63.3683 37.7605H167.543C170.22 37.7605 172.426 39.9673 172.426 42.647Z" fill="url(#paint0_linear_6030_959)"/>
<path d="M172.426 42.647V46.1937H58.4854V42.647C58.4854 39.9673 60.6906 37.7605 63.3683 37.7605H167.543C170.22 37.7605 172.426 39.9673 172.426 42.647Z" fill="#3A3A3A"/>
<path d="M63.6048 43.514C64.4312 43.514 65.1012 42.8436 65.1012 42.0165C65.1012 41.1895 64.4312 40.519 63.6048 40.519C62.7784 40.519 62.1084 41.1895 62.1084 42.0165C62.1084 42.8436 62.7784 43.514 63.6048 43.514Z" fill="#CCCCCC"/>
<path d="M68.2513 43.514C69.0777 43.514 69.7477 42.8436 69.7477 42.0165C69.7477 41.1895 69.0777 40.519 68.2513 40.519C67.4248 40.519 66.7549 41.1895 66.7549 42.0165C66.7549 42.8436 67.4248 43.514 68.2513 43.514Z" fill="#505050"/>
<path d="M72.9769 43.514C73.8033 43.514 74.4733 42.8436 74.4733 42.0165C74.4733 41.1895 73.8033 40.519 72.9769 40.519C72.1504 40.519 71.4805 41.1895 71.4805 42.0165C71.4805 42.8436 72.1504 43.514 72.9769 43.514Z" fill="#484848"/>
<path d="M80.0489 72.927C80.3483 72.0057 81.6517 72.0057 81.9511 72.9271L83.0206 76.2188C83.1545 76.6309 83.5385 76.9098 83.9717 76.9098H87.4329C88.4016 76.9098 88.8044 78.1494 88.0207 78.7188L85.2205 80.7533C84.87 81.0079 84.7234 81.4593 84.8572 81.8713L85.9268 85.1631C86.2261 86.0844 85.1717 86.8506 84.388 86.2812L81.5878 84.2467C81.2373 83.9921 80.7627 83.9921 80.4122 84.2467L77.612 86.2812C76.8283 86.8506 75.7739 86.0844 76.0732 85.1631L77.1428 81.8713C77.2766 81.4593 77.13 81.0079 76.7795 80.7533L73.9793 78.7188C73.1956 78.1494 73.5984 76.9098 74.5671 76.9098H78.0283C78.4615 76.9098 78.8455 76.6309 78.9794 76.2188L80.0489 72.927Z" fill="url(#paint1_linear_6030_959)"/>
<path d="M102.049 72.927C102.348 72.0057 103.652 72.0057 103.951 72.9271L105.021 76.2188C105.155 76.6309 105.538 76.9098 105.972 76.9098H109.433C110.402 76.9098 110.804 78.1494 110.021 78.7188L107.22 80.7533C106.87 81.0079 106.723 81.4593 106.857 81.8713L107.927 85.1631C108.226 86.0844 107.172 86.8506 106.388 86.2812L103.588 84.2467C103.237 83.9921 102.763 83.9921 102.412 84.2467L99.612 86.2812C98.8283 86.8506 97.7739 86.0844 98.0732 85.1631L99.1428 81.8713C99.2766 81.4593 99.13 81.0079 98.7795 80.7533L95.9793 78.7188C95.1956 78.1494 95.5984 76.9098 96.5671 76.9098H100.028C100.462 76.9098 100.845 76.6309 100.979 76.2188L102.049 72.927Z" fill="url(#paint2_linear_6030_959)"/>
<path d="M124.049 72.927C124.348 72.0057 125.652 72.0057 125.951 72.9271L127.021 76.2188C127.155 76.6309 127.538 76.9098 127.972 76.9098H131.433C132.402 76.9098 132.804 78.1494 132.021 78.7188L129.22 80.7533C128.87 81.0079 128.723 81.4593 128.857 81.8713L129.927 85.1631C130.226 86.0844 129.172 86.8506 128.388 86.2812L125.588 84.2467C125.237 83.9921 124.763 83.9921 124.412 84.2467L121.612 86.2812C120.828 86.8506 119.774 86.0844 120.073 85.1631L121.143 81.8713C121.277 81.4593 121.13 81.0079 120.78 80.7533L117.979 78.7188C117.196 78.1494 117.598 76.9098 118.567 76.9098H122.028C122.462 76.9098 122.845 76.6309 122.979 76.2188L124.049 72.927Z" fill="url(#paint3_linear_6030_959)"/>
<path d="M146.049 72.927C146.348 72.0057 147.652 72.0057 147.951 72.9271L149.021 76.2188C149.155 76.6309 149.538 76.9098 149.972 76.9098H153.433C154.402 76.9098 154.804 78.1494 154.021 78.7188L151.22 80.7533C150.87 81.0079 150.723 81.4593 150.857 81.8713L151.927 85.1631C152.226 86.0844 151.172 86.8506 150.388 86.2812L147.588 84.2467C147.237 83.9921 146.763 83.9921 146.412 84.2467L143.612 86.2812C142.828 86.8506 141.774 86.0844 142.073 85.1631L143.143 81.8713C143.277 81.4593 143.13 81.0079 142.78 80.7533L139.979 78.7188C139.196 78.1494 139.598 76.9098 140.567 76.9098H144.028C144.462 76.9098 144.845 76.6309 144.979 76.2188L146.049 72.927Z" fill="url(#paint4_linear_6030_959)"/>
<defs>
<linearGradient id="paint0_linear_6030_959" x1="115.418" y1="35.8436" x2="115.418" y2="121.525" gradientUnits="userSpaceOnUse">
<stop stop-color="#5C5C5C"/>
<stop offset="0.9964" stop-color="#4D4D4D"/>
</linearGradient>
<linearGradient id="paint1_linear_6030_959" x1="81" y1="70" x2="81" y2="90" gradientUnits="userSpaceOnUse">
<stop stop-color="#FAFAFA"/>
<stop offset="0.828125" stop-color="#F5F2EC"/>
</linearGradient>
<linearGradient id="paint2_linear_6030_959" x1="103" y1="70" x2="103" y2="90" gradientUnits="userSpaceOnUse">
<stop stop-color="#FAFAFA"/>
<stop offset="0.828125" stop-color="#F5F2EC"/>
</linearGradient>
<linearGradient id="paint3_linear_6030_959" x1="125" y1="70" x2="125" y2="90" gradientUnits="userSpaceOnUse">
<stop stop-color="#FAFAFA"/>
<stop offset="0.828125" stop-color="#F5F2EC"/>
</linearGradient>
<linearGradient id="paint4_linear_6030_959" x1="147" y1="70" x2="147" y2="90" gradientUnits="userSpaceOnUse">
<stop stop-color="#FAFAFA"/>
<stop offset="0.828125" stop-color="#F5F2EC"/>
</linearGradient>
</defs>
</svg>
