<svg width="230" height="160" viewBox="0 0 230 160" fill="none" xmlns="http://www.w3.org/2000/svg">
<path d="M115.455 142C149.948 142 177.91 114.018 177.91 79.5C177.91 44.9822 149.948 17 115.455 17C80.9621 17 53 44.9822 53 79.5C53 114.018 80.9621 142 115.455 142Z" fill="#F0F0F0"/>
<g filter="url(#filter0_d_6030_938)">
<path d="M172.426 42.6471V115.746C172.426 118.425 170.22 120.632 167.543 120.632H63.3683C60.6906 120.632 58.4854 118.425 58.4854 115.746V42.6471C58.4854 39.9674 60.6906 37.7606 63.3683 37.7606H167.543C170.22 37.7606 172.426 39.9674 172.426 42.6471Z" fill="url(#paint0_linear_6030_938)"/>
</g>
<path d="M172.426 42.6471V46.1938H58.4854V42.6471C58.4854 39.9674 60.6906 37.7606 63.3683 37.7606H167.543C170.22 37.7606 172.426 39.9674 172.426 42.6471Z" fill="url(#paint1_linear_6030_938)"/>
<path d="M63.6048 43.5141C64.4312 43.5141 65.1012 42.8437 65.1012 42.0166C65.1012 41.1896 64.4312 40.5192 63.6048 40.5192C62.7784 40.5192 62.1084 41.1896 62.1084 42.0166C62.1084 42.8437 62.7784 43.5141 63.6048 43.5141Z" fill="#F4F1EA"/>
<path opacity="0.6" d="M68.2513 43.5141C69.0777 43.5141 69.7477 42.8437 69.7477 42.0166C69.7477 41.1896 69.0777 40.5192 68.2513 40.5192C67.4248 40.5192 66.7549 41.1896 66.7549 42.0166C66.7549 42.8437 67.4248 43.5141 68.2513 43.5141Z" fill="#BAB7B4"/>
<path opacity="0.4" d="M72.9769 43.5141C73.8033 43.5141 74.4733 42.8437 74.4733 42.0166C74.4733 41.1896 73.8033 40.5192 72.9769 40.5192C72.1504 40.5192 71.4805 41.1896 71.4805 42.0166C71.4805 42.8437 72.1504 43.5141 72.9769 43.5141Z" fill="#949390"/>
<path d="M80.0489 74.927C80.3483 74.0057 81.6517 74.0057 81.9511 74.9271L83.0206 78.2188C83.1545 78.6309 83.5385 78.9098 83.9717 78.9098H87.4329C88.4016 78.9098 88.8044 80.1494 88.0207 80.7188L85.2205 82.7533C84.87 83.0079 84.7234 83.4593 84.8572 83.8713L85.9268 87.1631C86.2261 88.0844 85.1717 88.8506 84.388 88.2812L81.5878 86.2467C81.2373 85.9921 80.7627 85.9921 80.4122 86.2467L77.612 88.2812C76.8283 88.8506 75.7739 88.0844 76.0732 87.1631L77.1428 83.8713C77.2766 83.4593 77.13 83.0079 76.7795 82.7533L73.9793 80.7188C73.1956 80.1494 73.5984 78.9098 74.5671 78.9098H78.0283C78.4615 78.9098 78.8455 78.6309 78.9794 78.2188L80.0489 74.927Z" fill="#D3CCC3"/>
<path d="M102.049 74.927C102.348 74.0057 103.652 74.0057 103.951 74.9271L105.021 78.2188C105.155 78.6309 105.538 78.9098 105.972 78.9098H109.433C110.402 78.9098 110.804 80.1494 110.021 80.7188L107.22 82.7533C106.87 83.0079 106.723 83.4593 106.857 83.8713L107.927 87.1631C108.226 88.0844 107.172 88.8506 106.388 88.2812L103.588 86.2467C103.237 85.9921 102.763 85.9921 102.412 86.2467L99.612 88.2812C98.8283 88.8506 97.7739 88.0844 98.0732 87.1631L99.1428 83.8713C99.2766 83.4593 99.13 83.0079 98.7795 82.7533L95.9793 80.7188C95.1956 80.1494 95.5984 78.9098 96.5671 78.9098H100.028C100.462 78.9098 100.845 78.6309 100.979 78.2188L102.049 74.927Z" fill="#D3CCC3"/>
<path d="M124.049 74.927C124.348 74.0057 125.652 74.0057 125.951 74.9271L127.021 78.2188C127.155 78.6309 127.538 78.9098 127.972 78.9098H131.433C132.402 78.9098 132.804 80.1494 132.021 80.7188L129.22 82.7533C128.87 83.0079 128.723 83.4593 128.857 83.8713L129.927 87.1631C130.226 88.0844 129.172 88.8506 128.388 88.2812L125.588 86.2467C125.237 85.9921 124.763 85.9921 124.412 86.2467L121.612 88.2812C120.828 88.8506 119.774 88.0844 120.073 87.1631L121.143 83.8713C121.277 83.4593 121.13 83.0079 120.78 82.7533L117.979 80.7188C117.196 80.1494 117.598 78.9098 118.567 78.9098H122.028C122.462 78.9098 122.845 78.6309 122.979 78.2188L124.049 74.927Z" fill="#D3CCC3"/>
<path d="M146.049 74.927C146.348 74.0057 147.652 74.0057 147.951 74.9271L149.021 78.2188C149.155 78.6309 149.538 78.9098 149.972 78.9098H153.433C154.402 78.9098 154.804 80.1494 154.021 80.7188L151.22 82.7533C150.87 83.0079 150.723 83.4593 150.857 83.8713L151.927 87.1631C152.226 88.0844 151.172 88.8506 150.388 88.2812L147.588 86.2467C147.237 85.9921 146.763 85.9921 146.412 86.2467L143.612 88.2812C142.828 88.8506 141.774 88.0844 142.073 87.1631L143.143 83.8713C143.277 83.4593 143.13 83.0079 142.78 82.7533L139.979 80.7188C139.196 80.1494 139.598 78.9098 140.567 78.9098H144.028C144.462 78.9098 144.845 78.6309 144.979 78.2188L146.049 74.927Z" fill="#D3CCC3"/>
<defs>
<filter id="filter0_d_6030_938" x="36.4854" y="26.7606" width="157.94" height="126.871" filterUnits="userSpaceOnUse" color-interpolation-filters="sRGB">
<feFlood flood-opacity="0" result="BackgroundImageFix"/>
<feColorMatrix in="SourceAlpha" type="matrix" values="0 0 0 0 0 0 0 0 0 0 0 0 0 0 0 0 0 0 127 0" result="hardAlpha"/>
<feOffset dy="11"/>
<feGaussianBlur stdDeviation="11"/>
<feColorMatrix type="matrix" values="0 0 0 0 0.576471 0 0 0 0 0.501961 0 0 0 0 0.396078 0 0 0 0.37 0"/>
<feBlend mode="normal" in2="BackgroundImageFix" result="effect1_dropShadow_6030_938"/>
<feBlend mode="normal" in="SourceGraphic" in2="effect1_dropShadow_6030_938" result="shape"/>
</filter>
<linearGradient id="paint0_linear_6030_938" x1="115.418" y1="35.8437" x2="115.418" y2="121.525" gradientUnits="userSpaceOnUse">
<stop stop-color="#FDFEFF"/>
<stop offset="0.9964" stop-color="#F5F2EC"/>
</linearGradient>
<linearGradient id="paint1_linear_6030_938" x1="167.906" y1="37.7606" x2="62.1924" y2="42.7334" gradientUnits="userSpaceOnUse">
<stop stop-color="#606060"/>
<stop offset="1" stop-color="#7B7B7B"/>
</linearGradient>
</defs>
</svg>
