<svg width="28" height="28" viewBox="0 0 28 28" fill="none" xmlns="http://www.w3.org/2000/svg">
<path d="M23.1541 14.5472C23.5213 14.6007 23.6295 15.0421 23.3671 15.3045L21.5858 17.0858C20.8047 17.8668 20.8047 19.1332 21.5858 19.9142C22.3668 20.6953 23.6332 20.6953 24.4142 19.9142L26.1955 18.1329C26.4579 17.8705 26.8993 17.9787 26.9528 18.3459C26.9839 18.5594 27 18.7778 27 19C27 21.4853 24.9853 23.5 22.5 23.5C21.9974 23.5 21.514 23.4176 21.0626 23.2656L17.4142 26.9132C16.6332 27.6943 15.3668 27.6943 14.5858 26.9132C13.8047 26.1322 13.8047 24.8659 14.5858 24.0848L18.2343 20.437C18.0824 19.9858 18 19.5025 18 19C18 16.5147 20.0147 14.5 22.5 14.5C22.7222 14.5 22.9406 14.5161 23.1541 14.5472Z" fill="#212121"/>
<path d="M3.5067 3.8147C6.73852 2.79774 10.0388 2.25 13.6451 2.25C17.2513 2.25 20.5516 2.79774 23.7834 3.8147L23.789 3.81647C24.8836 4.17037 25.511 5.295 25.2184 6.39363L23.5206 13.6076C23.4496 13.5857 23.3754 13.5689 23.2982 13.5576C23.0371 13.5196 22.7705 13.5 22.5 13.5C21.4985 13.5 20.5595 13.7677 19.7506 14.2354L19.9554 13.2419H22.0657L23.7641 6.02502L23.7677 6.01195C23.8522 5.70343 23.685 5.36059 23.3299 5.2445C20.238 4.2719 17.0904 3.75 13.6451 3.75C10.1997 3.75 7.05211 4.2719 3.96023 5.2445C3.6051 5.36059 3.43792 5.70342 3.52241 6.01195L3.52599 6.02502L5.22446 13.2419H7.36628L7.91782 16.8006C7.94546 16.8882 8.03711 17.0322 8.2287 17.1692C8.42975 17.3131 8.6485 17.3815 8.803 17.3815H17.242C17.0957 17.8572 17.0123 18.3604 17.0013 18.8815H16.2504V21.0064L14.7504 22.5061V18.8815H12.2504V24.7891H10.7504V18.8815H8.803C8.27496 18.8815 7.75744 18.6765 7.35587 18.3892C6.95878 18.105 6.58034 17.671 6.45232 17.1245L6.44579 17.0966L6.08085 14.7419H4.0365L2.07176 6.39364C1.77908 5.29501 2.40657 4.17039 3.50108 3.81649L3.5067 3.8147Z" fill="#212121"/>
<path d="M13.0847 24.7895H8.25045C7.91617 24.7895 7.64519 25.0604 7.64519 25.3947C7.64519 25.729 7.91617 26 8.25045 26H13.0419C12.9743 25.5986 12.9885 25.1861 13.0847 24.7895Z" fill="#212121"/>
<path d="M13.645 5.88135C11.2251 5.88135 9.26343 7.84303 9.26343 10.2629C9.26343 12.6828 11.2251 14.6444 13.645 14.6444C16.0648 14.6444 18.0265 12.6828 18.0265 10.2629C18.0265 7.84303 16.0648 5.88135 13.645 5.88135ZM10.7634 10.2629C10.7634 8.67146 12.0535 7.38135 13.645 7.38135C15.2364 7.38135 16.5265 8.67146 16.5265 10.2629C16.5265 11.8543 15.2364 13.1444 13.645 13.1444C12.0535 13.1444 10.7634 11.8543 10.7634 10.2629Z" fill="#212121"/>
<path d="M19.6975 6.63135H21.0593V7.99318H19.6975V6.63135Z" fill="#212121"/>
</svg>
