<svg width="20" height="20" viewBox="0 0 20 20" fill="none" xmlns="http://www.w3.org/2000/svg">
<path d="M7.68457 7.18439C7.68457 6.16702 8.50931 5.34229 9.52668 5.34229C10.544 5.34229 11.3688 6.16702 11.3688 7.18439C11.3688 8.20176 10.544 9.0265 9.52668 9.0265C8.50931 9.0265 7.68457 8.20176 7.68457 7.18439Z" fill="#212121"/>
<path d="M9.52659 2C7.19908 2 5.06895 2.35353 2.98314 3.00988L2.97939 3.01107C2.26554 3.24189 1.85587 3.97558 2.04678 4.69264L3.31681 10.0891H4.63421L4.86753 11.5945L4.87189 11.6131C4.95563 11.9706 5.20282 12.2535 5.461 12.4382C5.72217 12.6251 6.05918 12.7588 6.40379 12.7588H7.96518V16.5526H6.01335C5.79776 16.5526 5.623 16.7274 5.623 16.943C5.623 17.1586 5.79776 17.3333 6.01335 17.3333H8.00502C8.04214 16.7456 8.28529 16.1684 8.73445 15.7193L8.74588 15.7078V12.7588H10.3075V14.1462L11.0518 13.402C10.768 11.9736 11.1787 10.4323 12.2879 9.32315C13.3042 8.30677 14.6855 7.87649 16.0072 8.03041C16.0778 8.03864 16.1461 8.05162 16.2118 8.06894L17.0064 4.69264C17.1973 3.97557 16.7876 3.24187 16.0738 3.01106L16.07 3.00988C13.9842 2.35353 11.8541 2 9.52659 2ZM14.3082 4.84229V5.72057H13.4299V4.84229H14.3082ZM9.52668 4.34229C11.0963 4.34229 12.3688 5.61474 12.3688 7.18439C12.3688 8.75404 11.0963 10.0265 9.52668 10.0265C7.95702 10.0265 6.68457 8.75404 6.68457 7.18439C6.68457 5.61474 7.95702 4.34229 9.52668 4.34229Z" fill="#212121"/>
<path d="M15.8916 9.02374C16.2582 9.06644 16.3631 9.50482 16.1021 9.76585L15.127 10.741C14.5382 11.3297 14.5382 12.2843 15.127 12.873C15.7157 13.4618 16.6703 13.4618 17.259 12.873L18.2341 11.8979C18.4952 11.6369 18.9336 11.7418 18.9763 12.1084C19.0964 13.1397 18.7608 14.2139 17.9697 15.005C16.9775 15.9973 15.5399 16.2728 14.3003 15.8317L11.5736 18.5584C10.9848 19.1472 10.0303 19.1472 9.44156 18.5584C8.85281 17.9697 8.85281 17.0152 9.44156 16.4264L12.1683 13.6997C11.7272 12.4601 12.0027 11.0225 12.995 10.0303C13.7861 9.23917 14.8603 8.90365 15.8916 9.02374Z" fill="#212121"/>
</svg>
