<svg width="20" height="20" viewBox="0 0 20 20" fill="none" xmlns="http://www.w3.org/2000/svg">
<path d="M3.28549 3.96308C3.06457 4.03535 2.96176 4.24786 3.01388 4.4382L3.01627 4.44692L4.10878 9.08906H5.49117L5.84882 11.3967C5.8657 11.4489 5.92201 11.5385 6.04289 11.625C6.17037 11.7162 6.30821 11.7588 6.40379 11.7588H11.0286C10.9364 12.3029 10.9442 12.8606 11.0518 13.402L10.3075 14.1462V12.7588H8.74591V15.7078L8.73445 15.7193C8.28529 16.1684 8.04214 16.7456 8.00502 17.3333H6.01338C5.7978 17.3333 5.62303 17.1586 5.62303 16.943C5.62303 16.7274 5.7978 16.5526 6.01338 16.5526H7.96521V12.7588H6.40379C6.05918 12.7588 5.72217 12.6251 5.461 12.4382C5.20282 12.2535 4.95563 11.9706 4.87189 11.6131L4.86753 11.5945L4.63421 10.0891H3.31681L2.04678 4.69264C1.85587 3.97558 2.26554 3.24189 2.97939 3.01107L2.98313 3.00986C5.06895 2.35352 7.19908 2 9.5266 2C11.8541 2 13.9842 2.35353 16.07 3.00988L16.0738 3.01106C16.7876 3.24187 17.1973 3.97557 17.0064 4.69264L16.2118 8.06894C16.1461 8.05162 16.0778 8.03864 16.0072 8.03041C15.739 7.99917 15.4682 7.992 15.1986 8.0089L16.0369 4.44692L16.0393 4.4382C16.0914 4.24786 15.9886 4.03535 15.7677 3.96307C13.7752 3.33631 11.7468 3 9.5266 3C7.30636 3 5.27801 3.33631 3.28549 3.96308ZM7.6846 7.18439C7.6846 6.16703 8.50934 5.34229 9.52671 5.34229C10.5441 5.34229 11.3688 6.16703 11.3688 7.18439C11.3688 8.20176 10.5441 9.0265 9.52671 9.0265C8.50934 9.0265 7.6846 8.20176 7.6846 7.18439ZM9.52671 4.34229C7.95706 4.34229 6.6846 5.61474 6.6846 7.18439C6.6846 8.75405 7.95706 10.0265 9.52671 10.0265C11.0964 10.0265 12.3688 8.75405 12.3688 7.18439C12.3688 5.61474 11.0964 4.34229 9.52671 4.34229ZM13.4299 4.84229H14.3082V5.72058H13.4299V4.84229Z" fill="#212121"/>
<path d="M16.1021 9.76585C16.3631 9.50482 16.2582 9.06644 15.8916 9.02374C14.8603 8.90365 13.7861 9.23917 12.995 10.0303C12.0027 11.0225 11.7272 12.4601 12.1683 13.6997L9.44156 16.4264C8.85281 17.0152 8.85281 17.9697 9.44156 18.5584C10.0303 19.1472 10.9848 19.1472 11.5736 18.5584L14.3003 15.8317C15.5399 16.2728 16.9775 15.9973 17.9697 15.005C18.7608 14.2139 19.0964 13.1397 18.9763 12.1084C18.9336 11.7418 18.4952 11.6369 18.2341 11.8979L17.259 12.873C16.6703 13.4618 15.7157 13.4618 15.127 12.873C14.5382 12.2843 14.5382 11.3297 15.127 10.741L16.1021 9.76585Z" fill="#212121"/>
</svg>
