<svg width="28" height="28" viewBox="0 0 28 28" fill="none" xmlns="http://www.w3.org/2000/svg">
<path d="M10.7635 10.083C10.7635 8.51942 12.0536 7.2519 13.6451 7.2519C15.2365 7.2519 16.5266 8.51942 16.5266 10.083C16.5266 11.6466 15.2365 12.9141 13.6451 12.9141C12.0536 12.9141 10.7635 11.6466 10.7635 10.083Z" fill="#212121"/>
<path d="M8.80307 17.8138C8.12054 17.8138 7.33051 17.2767 7.18263 16.6564L6.72364 13.7467H4.63056L2.79911 6.10109C2.60573 5.40725 3.00387 4.68187 3.7319 4.45059C6.89427 3.4729 10.1188 2.94727 13.6451 2.94727C17.1715 2.94727 20.396 3.4729 23.5584 4.45059C24.2864 4.68187 24.6845 5.40725 24.4912 6.10109L22.7739 13.27C22.6831 13.2656 22.5918 13.2634 22.5 13.2634C19.758 13.2634 17.4846 15.2349 17.0682 17.8138H16.2505V20.6383L14.7505 22.1118V17.8138H12.2505V24.3548H10.7505V17.8138H8.80307ZM21.0594 6.51503H19.6976V7.85301H21.0594V6.51503ZM13.6451 5.77816C11.2252 5.77816 9.2635 7.7055 9.2635 10.083C9.2635 12.4605 11.2252 14.3878 13.6451 14.3878C16.0649 14.3878 18.0266 12.4605 18.0266 10.083C18.0266 7.7055 16.0649 5.77816 13.6451 5.77816Z" fill="#212121"/>
<path d="M13.0847 24.3552H8.25052C7.91625 24.3552 7.64526 24.6214 7.64526 24.9499C7.64526 25.2783 7.91625 25.5445 8.25052 25.5445H13.0419C12.9743 25.1502 12.9885 24.7449 13.0847 24.3552Z" fill="#212121"/>
<path d="M23.3671 15.0363C23.6295 14.7785 23.5213 14.3448 23.1541 14.2923C22.9406 14.2617 22.7222 14.2459 22.5 14.2459C20.0147 14.2459 18 16.2253 18 18.6671C18 19.1608 18.0824 19.6356 18.2343 20.079L14.5858 23.6629C13.8047 24.4302 13.8047 25.6744 14.5858 26.4418C15.3668 27.2092 16.6332 27.2092 17.4142 26.4418L21.0626 22.858C21.514 23.0073 21.9974 23.0883 22.5 23.0883C24.9853 23.0883 27 21.1089 27 18.6671C27 18.4488 26.9839 18.2342 26.9528 18.0244C26.8993 17.6637 26.4579 17.5574 26.1955 17.8152L24.4142 19.5653C23.6332 20.3327 22.3668 20.3327 21.5858 19.5653C20.8047 18.7979 20.8047 17.5538 21.5858 16.7864L23.3671 15.0363Z" fill="#212121"/>
</svg>
