<svg width="32" height="32" viewBox="0 0 32 32" fill="none" xmlns="http://www.w3.org/2000/svg">
<path d="M13.0737 11.397C13.0737 9.7059 14.4447 8.33496 16.1358 8.33496C17.827 8.33496 19.1979 9.7059 19.1979 11.397C19.1979 13.0882 17.827 14.4591 16.1358 14.4591C14.4447 14.4591 13.0737 13.0882 13.0737 11.397Z" fill="#212121"/>
<path d="M10.7198 20.1988H12.8984V27.6456H14.0158C14.0846 26.8732 14.3788 26.1168 14.8984 25.4818V20.1988H17.3725V22.9955L18.0265 22.3463C17.9408 21.9099 17.8959 21.4596 17.8959 21C17.8959 17.134 21.0532 14 24.948 14C25.3415 14 25.7285 14.0321 26.1063 14.0942C26.2591 14.1193 26.4031 14.1605 26.5377 14.2155L28.2678 6.86403C28.4841 6.0741 28.0388 5.24826 27.2244 4.98495C23.6871 3.87187 20.0804 3.27344 16.1359 3.27344C12.1915 3.27344 8.58475 3.87187 5.04747 4.98495C4.23313 5.24826 3.78779 6.0741 4.0041 6.86403L6.05266 15.5685H8.39389L8.90729 18.8811C9.0727 19.5873 9.9564 20.1988 10.7198 20.1988ZM24.429 7.33496V8.85824H22.9058V7.33496H24.429ZM16.1358 6.33496C18.9315 6.33496 21.1979 8.60133 21.1979 11.397C21.1979 14.1928 18.9315 16.4591 16.1358 16.4591C13.3401 16.4591 11.0737 14.1928 11.0737 11.397C11.0737 8.60133 13.3401 6.33496 16.1358 6.33496Z" fill="#212121"/>
<path d="M14.0158 27.6456C13.9754 28.0985 14.0126 28.5572 14.1273 28.9999H10.1023C9.72836 28.9999 9.42525 28.6968 9.42525 28.3229C9.42525 27.949 9.72836 27.6459 10.1023 27.6459L14.0158 27.6456Z" fill="#212121"/>
<path d="M25.9873 16.3443C26.2514 16.0802 26.1405 15.6351 25.772 15.5741C25.4777 15.5253 25.1754 15.5 24.8672 15.5C21.8296 15.5 19.3672 17.9624 19.3672 21C19.3672 21.6293 19.4729 22.2339 19.6675 22.797L16.2322 26.2322C15.2559 27.2085 15.2559 28.7915 16.2322 29.7678C17.2085 30.7441 18.7915 30.7441 19.7678 29.7678L23.2708 26.2647C23.776 26.4177 24.312 26.5 24.8672 26.5C27.9048 26.5 30.3672 24.0376 30.3672 21C30.3672 20.6918 30.3418 20.3895 30.2931 20.0952C30.2321 19.7267 29.7869 19.6158 29.5228 19.8799L27.635 21.7678C26.6586 22.7441 25.0757 22.7441 24.0994 21.7678C23.1231 20.7915 23.1231 19.2085 24.0994 18.2322L25.9873 16.3443Z" fill="#212121"/>
</svg>
