<svg width="24" height="24" viewBox="0 0 24 24" fill="none" xmlns="http://www.w3.org/2000/svg">
<path d="M3.76346 5.4537C3.71259 5.26791 3.81065 5.05342 4.03921 4.97835C6.58108 4.17885 9.16792 3.75 11.9999 3.75C14.8319 3.75 17.4188 4.17885 19.9606 4.97835C20.1892 5.05342 20.2873 5.26791 20.2364 5.4537L20.2328 5.46678L18.9306 11C19.2934 11.0002 19.6561 11.0392 20.0118 11.1167C20.1567 11.1483 20.2894 11.1995 20.4089 11.2662L21.6871 5.83516C21.946 4.85944 21.3878 3.86334 20.4199 3.55039L20.4143 3.5486C17.7325 2.7047 14.9929 2.25 11.9999 2.25C9.00695 2.25 6.2674 2.7047 3.58554 3.5486L3.57992 3.55039C2.61207 3.86334 2.05385 4.85945 2.31276 5.83518L3.95906 12.8304H5.6394L5.92452 14.67L5.93106 14.6979C6.04622 15.1896 6.38387 15.5723 6.72857 15.819C7.07774 16.0688 7.53124 16.25 7.99993 16.25H9.99993V21H7.49993C7.22378 21 6.99993 21.2239 6.99993 21.5C6.99993 21.7761 7.22378 22 7.49993 22H11.0553C10.9854 21.6708 10.9818 21.3304 11.0443 21H10.9999V16.25H12.9999V18.4259L13.9999 17.4258V17.2827C13.7965 16.4513 13.8059 15.5781 14.0286 14.75H7.99993C7.90478 14.75 7.75005 14.7054 7.6014 14.5991C7.46609 14.5022 7.4115 14.4099 7.3958 14.3691L6.92484 11.3304H5.14702L3.76704 5.46678L3.76346 5.4537Z" fill="#212121"/>
<path d="M17.1051 11.3371L17.1228 11.3304H17.1065L17.1051 11.3371Z" fill="#212121"/>
<path d="M12 5.25C9.92893 5.25 8.25 6.92893 8.25 9C8.25 11.0711 9.92893 12.75 12 12.75C14.0711 12.75 15.75 11.0711 15.75 9C15.75 6.92893 14.0711 5.25 12 5.25ZM9.75 9C9.75 7.75736 10.7574 6.75 12 6.75C13.2426 6.75 14.25 7.75736 14.25 9C14.25 10.2426 13.2426 11.25 12 11.25C10.7574 11.25 9.75 10.2426 9.75 9Z" fill="#212121"/>
<path d="M17 6H18.125V7.125H17V6Z" fill="#212121"/>
<path d="M19.7988 12.0939C20.1516 12.1708 20.2389 12.601 19.9836 12.8563L18.0795 14.7602C17.483 15.3566 17.483 16.3237 18.0795 16.9202C18.6759 17.5166 19.6429 17.5166 20.2393 16.9202L22.1436 15.0161C22.3989 14.7608 22.8292 14.8481 22.9061 15.2009C23.1918 16.5106 22.8255 17.934 21.807 18.9523C20.5985 20.1608 18.8194 20.451 17.3367 19.8231L14.6074 22.5527C14.0109 23.1491 13.0438 23.1491 12.4474 22.5527C11.8509 21.9563 11.8509 20.9893 12.4474 20.3929L15.1764 17.6635C14.548 16.1809 14.8381 14.4015 16.0469 13.1928C17.0653 12.1745 18.4889 11.8082 19.7988 12.0939Z" fill="#212121"/>
</svg>
