<svg width="24" height="24" viewBox="0 0 24 24" fill="none" xmlns="http://www.w3.org/2000/svg">
<path d="M12 6.75C10.7574 6.75 9.75 7.75736 9.75 9C9.75 10.2426 10.7574 11.25 12 11.25C13.2426 11.25 14.25 10.2426 14.25 9C14.25 7.75736 13.2426 6.75 12 6.75Z" fill="#212121"/>
<path d="M8 15.5C7.43617 15.5 6.78353 15.0484 6.66136 14.5269L6.28219 12.0804H4.55311L3.04017 5.65179C2.88042 5.06839 3.20932 4.45848 3.81074 4.26402C6.42315 3.44196 9.08688 3 12 3C14.9131 3 17.5768 3.44196 20.1893 4.26402C20.7907 4.45848 21.1196 5.06839 20.9598 5.65179L19.6877 11.057C18.1514 10.8252 16.5253 11.3003 15.3398 12.4856C14.038 13.7872 13.5927 15.619 14 17.283V17.4257L13 18.4258V15.5H11V21H11.0443C10.9818 21.3304 10.9854 21.6708 11.0553 22H7.5C7.22386 22 7 21.7761 7 21.5C7 21.2239 7.22386 21 7.5 21H10V15.5H8ZM17 6V7.125H18.125V6H17ZM8.25 9C8.25 11.0711 9.92893 12.75 12 12.75C14.0711 12.75 15.75 11.0711 15.75 9C15.75 6.92893 14.0711 5.25 12 5.25C9.92893 5.25 8.25 6.92893 8.25 9Z" fill="#212121"/>
<path d="M19.9836 12.8563C20.2389 12.601 20.1516 12.1708 19.7988 12.0939C18.4889 11.8082 17.0653 12.1745 16.0469 13.1928C14.8381 14.4015 14.5479 16.1809 15.1764 17.6635L12.4474 20.3929C11.8509 20.9893 11.8509 21.9563 12.4474 22.5527C13.0438 23.1491 14.0109 23.1491 14.6074 22.5527L17.3367 19.8231C18.8194 20.451 20.5985 20.1608 21.807 18.9523C22.8255 17.934 23.1918 16.5106 22.9061 15.2009C22.8292 14.8481 22.3989 14.7608 22.1436 15.0161L20.2393 16.9202C19.6429 17.5166 18.6759 17.5166 18.0795 16.9202C17.483 16.3237 17.483 15.3566 18.0795 14.7602L19.9836 12.8563Z" fill="#212121"/>
</svg>
