<svg width="32" height="32" viewBox="0 0 32 32" fill="none" xmlns="http://www.w3.org/2000/svg">
<path d="M4.96865 6.59992C4.89752 6.34013 5.03506 6.04153 5.35225 5.9374C8.79548 4.85438 12.2997 4.27344 16.136 4.27344C19.9723 4.27344 23.4765 4.85438 26.9198 5.9374C27.237 6.04152 27.3745 6.34013 27.3034 6.59992L27.2986 6.61735L25.5551 14.0257C25.7407 14.0414 25.9246 14.0644 26.1063 14.0942C26.6723 14.1872 27.1195 14.5015 27.4004 14.9152L29.2376 7.10857C29.5862 5.79552 28.8351 4.45474 27.5321 4.03345L27.5247 4.03106C23.8948 2.88884 20.1869 2.27344 16.136 2.27344C12.0851 2.27344 8.37724 2.88884 4.74737 4.03106L4.73987 4.03345C3.43695 4.45474 2.68586 5.79552 3.03439 7.10857L5.26075 16.5685H7.53699L7.925 19.072L7.93371 19.1092C8.08852 19.7701 8.54274 20.2855 9.00748 20.618C9.47819 20.9548 10.0892 21.1988 10.7199 21.1988H12.8984V27.6454H14.0158C14.0846 26.8731 14.3788 26.1168 14.8984 25.4818V21.1988H17.3726V22.9954L18.0265 22.3463C17.9408 21.9099 17.8959 21.4596 17.8959 21C17.8959 20.3773 17.9779 19.7735 18.1316 19.1988H10.7199C10.5872 19.1988 10.3746 19.137 10.1713 18.9915C9.98507 18.8583 9.90884 18.7301 9.88681 18.6715L9.25091 14.5685H6.8447L4.97343 6.61735L4.96865 6.59992Z" fill="#212121"/>
<path d="M14.0158 27.6454L10.1023 27.6459C9.72842 27.6459 9.42531 27.949 9.42531 28.3229C9.42531 28.6968 9.72842 28.9999 10.1023 28.9999H14.1273C14.0126 28.5572 13.9755 28.0983 14.0158 27.6454Z" fill="#212121"/>
<path d="M16.136 6.33514C13.3403 6.33514 11.0739 8.60151 11.0739 11.3972C11.0739 14.1929 13.3403 16.4593 16.136 16.4593C18.9317 16.4593 21.198 14.1929 21.198 11.3972C21.198 8.60151 18.9317 6.33514 16.136 6.33514ZM13.0739 11.3972C13.0739 9.70608 14.4448 8.33514 16.136 8.33514C17.8271 8.33514 19.198 9.70608 19.198 11.3972C19.198 13.0884 17.8271 14.4593 16.136 14.4593C14.4448 14.4593 13.0739 13.0884 13.0739 11.3972Z" fill="#212121"/>
<path d="M22.9059 7.33514H24.4291V8.85842H22.9059V7.33514Z" fill="#212121"/>
<path d="M25.9873 16.3443C26.2514 16.0802 26.1405 15.6351 25.772 15.5741C25.4777 15.5253 25.1754 15.5 24.8672 15.5C21.8296 15.5 19.3672 17.9624 19.3672 21C19.3672 21.6293 19.4729 22.2339 19.6675 22.797L16.2322 26.2322C15.2559 27.2085 15.2559 28.7915 16.2322 29.7678C17.2085 30.7441 18.7915 30.7441 19.7678 29.7678L23.2708 26.2647C23.776 26.4177 24.312 26.5 24.8672 26.5C27.9048 26.5 30.3672 24.0376 30.3672 21C30.3672 20.6918 30.3418 20.3895 30.2931 20.0952C30.2321 19.7267 29.7869 19.6158 29.5228 19.8799L27.635 21.7678C26.6586 22.7441 25.0757 22.7441 24.0994 21.7678C23.1231 20.7915 23.1231 19.2085 24.0994 18.2322L25.9873 16.3443Z" fill="#212121"/>
</svg>
