<svg width="24" height="24" viewBox="0 0 24 24" fill="none" xmlns="http://www.w3.org/2000/svg">
<path d="M11.9992 5.0428C11.2881 5.75432 9.95055 7.18299 8.79901 8.92393C7.98088 10.1608 7.28092 11.5196 6.9512 12.8629C6.6235 14.198 6.67036 15.4742 7.28007 16.6161L7.28453 16.6245L7.28878 16.633C9.21024 20.4615 14.7858 20.4626 16.7114 16.6325L16.7158 16.6237L16.7205 16.615C17.3292 15.4798 17.3764 14.2074 17.0486 12.8731C16.7188 11.5307 16.0187 10.1711 15.2004 8.93256C14.0483 7.18881 12.7101 5.75613 11.9992 5.0428ZM12.5228 3.46165C12.7314 3.65409 14.7699 5.55992 16.4519 8.10569C17.3209 9.42086 18.1189 10.9427 18.5052 12.5152C18.8928 14.0928 18.8748 15.7653 18.0472 17.315C15.5655 22.2342 8.43028 22.2352 5.95238 17.3142C5.12532 15.7593 5.10685 14.0845 5.49444 12.5053C5.88072 10.9316 6.67885 9.41031 7.54793 8.0964C9.2228 5.56428 11.2513 3.66946 11.4751 3.46344C11.5632 3.37726 11.7148 3.25 12 3.25C12.2617 3.25019 12.427 3.36923 12.5228 3.46165ZM4.59966 8.13961C4.96435 8.33601 5.10079 8.79086 4.90439 9.15556C4.08056 10.6853 3.55966 12.5098 3.50479 14.2609C3.44986 16.0143 3.86194 17.6327 4.82757 18.8288C5.08776 19.1511 5.03741 19.6233 4.71512 19.8835C4.39282 20.1437 3.92063 20.0934 3.66044 19.7711C2.40597 18.2172 1.94297 16.2106 2.00553 14.214C2.06816 12.2151 2.65733 10.1646 3.58372 8.44434C3.78011 8.07965 4.23497 7.94322 4.59966 8.13961ZM19.099 9.15556C18.9026 8.79086 19.0391 8.33601 19.4038 8.13961C19.7684 7.94322 20.2233 8.07965 20.4197 8.44434C21.3463 10.165 21.9338 12.2167 21.9948 14.2165C22.0556 16.214 21.591 18.2212 20.3367 19.7749C20.0765 20.0972 19.6043 20.1475 19.282 19.8873C18.9597 19.6271 18.9094 19.1549 19.1696 18.8326C20.1354 17.6363 20.5489 16.0166 20.4955 14.2622C20.4421 12.5101 19.9226 10.6849 19.099 9.15556Z" fill="#212121"/>
</svg>
