<svg width="20" height="20" viewBox="0 0 20 20" fill="none" xmlns="http://www.w3.org/2000/svg">
<path d="M10.3482 2.64061C10.5151 2.79204 12.1045 4.25304 13.4699 6.23493C14.1734 7.25617 14.8316 8.43563 15.1983 9.66163C15.5655 10.8896 15.6491 12.1959 15.1563 13.4357C13.2674 18.1876 6.73067 18.1884 4.84465 13.4354C4.35121 12.1919 4.434 10.8839 4.80107 9.6548C5.1675 8.42784 5.82566 7.24875 6.52939 6.22841C7.89506 4.24833 9.4852 2.79122 9.65241 2.64005C9.66539 2.62754 9.68177 2.61306 9.70113 2.59863C9.75064 2.56174 9.85369 2.49973 9.99927 2.49951C10.1451 2.4993 10.2485 2.56118 10.2985 2.59833C10.3183 2.61308 10.335 2.62787 10.3482 2.64061ZM10.3882 2.68446L10.4007 2.70013L10.3939 2.69144L10.3882 2.68446ZM9.59954 2.69977L9.61242 2.68365L9.60644 2.691L9.59954 2.69977ZM3.69685 7.04047C3.95071 7.14913 4.06842 7.44301 3.95976 7.69688C2.81695 10.3668 2.56514 13.1172 3.9209 15.2301C4.07003 15.4625 4.00252 15.7718 3.7701 15.9209C3.53769 16.0701 3.22839 16.0026 3.07926 15.7702C1.46315 13.2515 1.84037 10.1071 3.04044 7.30338C3.1491 7.04952 3.44298 6.9318 3.69685 7.04047ZM16.0402 7.69688C15.9316 7.44301 16.0493 7.14913 16.3032 7.04047C16.557 6.9318 16.8509 7.04952 16.9596 7.30338C18.1596 10.1071 18.5369 13.2515 16.9207 15.7702C16.7716 16.0026 16.4623 16.0701 16.2299 15.9209C15.9975 15.7718 15.93 15.4625 16.0791 15.2301C17.4349 13.1172 17.183 10.3668 16.0402 7.69688Z" fill="#212121"/>
</svg>
