<svg width="20" height="20" viewBox="0 0 20 20" fill="none" xmlns="http://www.w3.org/2000/svg">
<path d="M9.99958 3.68708C9.45581 4.21521 8.3401 5.36451 7.35268 6.79617C6.68223 7.76825 6.08497 8.85062 5.75934 9.94097C5.43434 11.0292 5.38842 12.0943 5.77423 13.0666C7.32603 16.9773 12.6722 16.9781 14.2271 13.0663C14.6118 12.0986 14.5656 11.0359 14.2403 9.94819C13.9143 8.85847 13.317 7.77548 12.6465 6.80226C11.6588 5.36865 10.5431 4.21645 9.99958 3.68708ZM10.3483 2.64061C10.5152 2.79204 12.1046 4.25304 13.47 6.23493C14.1735 7.25617 14.8316 8.43563 15.1983 9.66163C15.5656 10.8896 15.6492 12.1959 15.1564 13.4357C13.2675 18.1876 6.73076 18.1884 4.84474 13.4354C4.3513 12.1919 4.4341 10.8839 4.80116 9.6548C5.16759 8.42784 5.82575 7.24875 6.52948 6.22841C7.89515 4.24833 9.48529 2.79122 9.6525 2.64005C9.66549 2.62754 9.68186 2.61306 9.70123 2.59863C9.75073 2.56174 9.85378 2.49973 9.99936 2.49951C10.1452 2.4993 10.2486 2.56118 10.2986 2.59833C10.3184 2.61308 10.3351 2.62787 10.3483 2.64061ZM10.3882 2.68433L10.4001 2.69921L10.394 2.69144L10.3882 2.68433ZM9.59964 2.69977L9.60053 2.69864L9.61263 2.6835L9.60653 2.691L9.59964 2.69977ZM3.69685 7.04024C3.95071 7.1489 4.06842 7.44278 3.95976 7.69665C2.81695 10.3666 2.56514 13.117 3.9209 15.2299C4.07003 15.4623 4.00252 15.7716 3.7701 15.9207C3.53769 16.0698 3.22839 16.0023 3.07926 15.7699C1.46315 13.2513 1.84037 10.1069 3.04044 7.30315C3.1491 7.04929 3.44298 6.93158 3.69685 7.04024ZM16.0404 7.69665C15.9318 7.44278 16.0495 7.1489 16.3034 7.04024C16.5572 6.93158 16.8511 7.04929 16.9598 7.30315C18.1598 10.1069 18.5371 13.2513 16.9209 15.7699C16.7718 16.0023 16.4625 16.0698 16.2301 15.9207C15.9977 15.7716 15.9302 15.4623 16.0793 15.2299C17.4351 13.117 17.1832 10.3666 16.0404 7.69665Z" fill="#212121"/>
</svg>
