<svg width="24" height="24" viewBox="0 0 24 24" fill="none" xmlns="http://www.w3.org/2000/svg">
<path d="M15.9781 8.3099C14.5154 6.06358 12.7429 4.40946 12.5294 4.21346C12.5068 4.19137 12.4791 4.1671 12.4463 4.14323C12.3596 4.08008 12.2077 3.99918 12.0036 3.99951C11.7998 3.99985 11.6486 4.08101 11.5626 4.14373C11.5308 4.16699 11.5037 4.19063 11.4816 4.21222C11.2675 4.40771 9.49237 6.05671 8.02707 8.30066C6.53582 10.5844 5.17748 13.7789 6.62909 16.6919C8.82569 21.0889 15.1711 21.0878 17.3707 16.6924C18.8233 13.7899 17.4661 10.5951 15.9781 8.3099ZM4.60569 8.08981C4.97039 8.28621 5.10682 8.74106 4.91042 9.10575C3.22323 12.2387 2.89065 15.3723 4.8336 17.779C5.09379 18.1013 5.04344 18.5735 4.72115 18.8337C4.39885 19.0939 3.92666 19.0436 3.66647 18.7213C1.16923 15.628 1.77652 11.7616 3.58975 8.39454C3.78615 8.02984 4.241 7.89341 4.60569 8.08981ZM19.4007 8.08981C19.036 8.28621 18.8995 8.74106 19.0959 9.10575C20.7831 12.2387 21.1157 15.3723 19.1727 17.779C18.9126 18.1013 18.9629 18.5735 19.2852 18.8337C19.6075 19.0939 20.0797 19.0436 20.3399 18.7213C22.8371 15.628 22.2298 11.7616 20.4166 8.39454C20.2202 8.02984 19.7653 7.89341 19.4007 8.08981Z" fill="#212121"/>
</svg>
