<svg width="231" height="160" viewBox="0 0 231 160" fill="none" xmlns="http://www.w3.org/2000/svg">
<path d="M117.941 148.8C154.582 148.8 184.438 119.068 184.438 82.5504C184.314 45.9096 154.582 16.1775 117.941 16.1775C81.1772 16.1775 51.4451 45.9096 51.4451 82.427C51.4451 119.068 81.1772 148.8 117.941 148.8Z" fill="#242424"/>
<path d="M186.042 59.3568C188.835 59.3568 191.1 57.0922 191.1 54.2986C191.1 51.5051 188.835 49.2405 186.042 49.2405C183.248 49.2405 180.984 51.5051 180.984 54.2986C180.984 57.0922 183.248 59.3568 186.042 59.3568Z" fill="#5C5C5C"/>
<path d="M193.444 39.6174C195.352 39.6174 196.898 38.0709 196.898 36.1631C196.898 34.2553 195.352 32.7087 193.444 32.7087C191.536 32.7087 189.99 34.2553 189.99 36.1631C189.99 38.0709 191.536 39.6174 193.444 39.6174Z" fill="#5C5C5C"/>
<path d="M45.7702 126.963C49.3132 126.963 52.1854 124.091 52.1854 120.548C52.1854 117.005 49.3132 114.133 45.7702 114.133C42.2272 114.133 39.355 117.005 39.355 120.548C39.355 124.091 42.2272 126.963 45.7702 126.963Z" fill="#5C5C5C"/>
<g filter="url(#filter0_d_3840_836)">
<path d="M97.0661 99.4637C97.0661 105.2 92.4272 109.839 86.6411 109.839C86.5414 109.839 85.6934 109.839 79.4584 109.839C75.1189 109.839 68.1856 109.839 57.1122 109.839H51.825C44.8917 109.988 39.355 104.452 39.355 97.7678C39.355 91.034 44.9415 85.4474 51.9746 85.7966C58.0101 66.942 85.6436 69.5856 87.9879 89.0887C93.1754 89.7371 97.0661 94.1265 97.0661 99.4637Z" fill="#424242"/>
</g>
<path d="M86.6412 109.839C92.3774 109.839 97.0661 105.2 97.0661 99.4639C97.0661 93.7277 92.3774 89.0889 86.6412 89.0889C80.905 89.0889 76.2163 93.7277 76.2163 99.4639C76.2163 105.2 80.905 109.839 86.6412 109.839Z" fill="url(#paint0_linear_3840_836)"/>
<path d="M69.6322 109.938C79.8576 109.938 88.1876 101.658 88.1876 91.4329C88.1876 81.2076 79.8576 72.9275 69.6322 72.9275C59.4068 72.9275 51.0769 81.2076 51.0769 91.4329C51.0769 101.658 59.357 109.938 69.6322 109.938Z" fill="url(#paint1_linear_3840_836)"/>
<g filter="url(#filter1_d_3840_836)">
<path d="M113.557 48.6074C113.557 56.5207 107.157 62.9202 99.175 62.9202C99.0374 62.9202 97.8676 62.9202 89.2662 62.9202C83.2796 62.9202 73.7148 62.9202 58.4387 62.9202H51.1447C41.58 63.1266 33.9419 55.4886 33.9419 46.2678C33.9419 36.9783 41.6488 29.2715 51.3512 29.7531C59.6773 3.74245 97.7988 7.38945 101.033 34.2947C108.189 35.1892 113.557 41.2446 113.557 48.6074Z" fill="#424242"/>
</g>
<path d="M75.7104 63.058C89.8167 63.058 101.308 51.6353 101.308 37.529C101.308 23.4227 89.8167 12 75.7104 12C61.604 12 50.1125 23.4227 50.1125 37.529C50.1125 51.6353 61.5352 63.058 75.7104 63.058Z" fill="url(#paint2_linear_3840_836)"/>
<path d="M99.175 62.9202C107.088 62.9202 113.557 56.5207 113.557 48.6074C113.557 40.6941 107.088 34.2947 99.175 34.2947C91.2617 34.2947 84.7935 40.6941 84.7935 48.6074C84.7935 56.5207 91.2617 62.9202 99.175 62.9202Z" fill="url(#paint3_linear_3840_836)"/>
<path d="M94.9406 70.2246C94.9406 58.6679 104.355 49.2722 115.935 49.2722C127.514 49.2722 136.928 58.6679 136.928 70.2246C136.928 81.7813 127.514 91.177 115.935 91.177C104.355 91.177 94.9406 81.8753 94.9406 70.2246ZM115.935 30.5747C93.1519 30.5747 74.6057 49.0842 74.6057 71.8218C74.6057 88.3583 96.4469 119.646 108.403 131.297C111.039 133.833 114.617 134.867 118.006 134.209C118.288 134.209 118.476 134.115 118.759 134.021C118.853 134.021 118.947 134.021 119.041 133.927C120.642 133.458 122.242 132.518 123.56 131.297C133.539 121.525 150.391 95.9688 155.663 80.5599C156.416 78.3049 156.981 76.0499 157.169 73.8889C157.263 73.1372 157.263 72.4795 157.263 71.7279C157.263 49.0842 138.811 30.5747 115.935 30.5747Z" fill="url(#paint4_linear_3840_836)"/>
<path d="M115.934 144.075C98.518 144.075 80.8191 139.471 80.8191 130.733C80.8191 128.384 82.1371 125.002 88.4447 122.089C89.6685 121.525 90.9866 122.089 91.5514 123.217C92.1163 124.438 91.5514 125.753 90.4217 126.317C86.7501 128.008 85.5262 129.7 85.5262 130.639C85.5262 134.21 97.3883 139.283 115.934 139.283C134.481 139.283 146.343 134.116 146.343 130.639C146.343 129.418 144.554 127.445 139.659 125.566C138.435 125.096 137.87 123.78 138.341 122.559C138.811 121.337 140.129 120.774 141.353 121.243C149.355 124.344 151.05 128.102 151.05 130.733C151.05 139.471 133.351 144.075 115.934 144.075Z" fill="#F5F2EC"/>
<g filter="url(#filter2_d_3840_836)">
<path d="M191.1 103.658C191.1 109.394 186.461 114.033 180.675 114.033C180.575 114.033 179.727 114.033 173.492 114.033C169.153 114.033 162.219 114.033 151.146 114.033H145.859C138.925 114.183 133.389 108.646 133.389 101.962C133.389 95.2286 138.975 89.642 146.008 89.9912C152.044 71.1366 179.677 73.7802 182.022 93.2832C187.209 93.9317 191.1 98.3211 191.1 103.658Z" fill="#424242"/>
</g>
<path d="M163.666 114.133C173.891 114.133 182.221 105.853 182.221 95.6275C182.221 85.4021 173.891 77.1221 163.666 77.1221C153.44 77.1221 145.11 85.4021 145.11 95.6275C145.11 105.853 153.39 114.133 163.666 114.133Z" fill="url(#paint5_linear_3840_836)"/>
<path d="M180.675 114.033C186.411 114.033 191.1 109.394 191.1 103.658C191.1 97.9218 186.411 93.283 180.675 93.283C174.939 93.283 170.25 97.9218 170.25 103.658C170.25 109.394 174.939 114.033 180.675 114.033Z" fill="url(#paint6_linear_3840_836)"/>
<defs>
<filter id="filter0_d_3840_836" x="27.655" y="71.1727" width="81.1112" height="60.2691" filterUnits="userSpaceOnUse" color-interpolation-filters="sRGB">
<feFlood flood-opacity="0" result="BackgroundImageFix"/>
<feColorMatrix in="SourceAlpha" type="matrix" values="0 0 0 0 0 0 0 0 0 0 0 0 0 0 0 0 0 0 127 0" result="hardAlpha"/>
<feOffset dy="9.9"/>
<feGaussianBlur stdDeviation="5.85"/>
<feColorMatrix type="matrix" values="0 0 0 0 0 0 0 0 0 0 0 0 0 0 0 0 0 0 0.22 0"/>
<feBlend mode="normal" in2="BackgroundImageFix" result="effect1_dropShadow_3840_836"/>
<feBlend mode="normal" in="SourceGraphic" in2="effect1_dropShadow_3840_836" result="shape"/>
</filter>
<filter id="filter1_d_3840_836" x="22.2419" y="10.262" width="103.015" height="74.2623" filterUnits="userSpaceOnUse" color-interpolation-filters="sRGB">
<feFlood flood-opacity="0" result="BackgroundImageFix"/>
<feColorMatrix in="SourceAlpha" type="matrix" values="0 0 0 0 0 0 0 0 0 0 0 0 0 0 0 0 0 0 127 0" result="hardAlpha"/>
<feOffset dy="9.9"/>
<feGaussianBlur stdDeviation="5.85"/>
<feColorMatrix type="matrix" values="0 0 0 0 0 0 0 0 0 0 0 0 0 0 0 0 0 0 0.22 0"/>
<feBlend mode="normal" in2="BackgroundImageFix" result="effect1_dropShadow_3840_836"/>
<feBlend mode="normal" in="SourceGraphic" in2="effect1_dropShadow_3840_836" result="shape"/>
</filter>
<filter id="filter2_d_3840_836" x="121.689" y="75.3672" width="81.1112" height="60.2691" filterUnits="userSpaceOnUse" color-interpolation-filters="sRGB">
<feFlood flood-opacity="0" result="BackgroundImageFix"/>
<feColorMatrix in="SourceAlpha" type="matrix" values="0 0 0 0 0 0 0 0 0 0 0 0 0 0 0 0 0 0 127 0" result="hardAlpha"/>
<feOffset dy="9.9"/>
<feGaussianBlur stdDeviation="5.85"/>
<feColorMatrix type="matrix" values="0 0 0 0 0 0 0 0 0 0 0 0 0 0 0 0 0 0 0.22 0"/>
<feBlend mode="normal" in2="BackgroundImageFix" result="effect1_dropShadow_3840_836"/>
<feBlend mode="normal" in="SourceGraphic" in2="effect1_dropShadow_3840_836" result="shape"/>
</filter>
<linearGradient id="paint0_linear_3840_836" x1="78.757" y1="93.3988" x2="82.2425" y2="96.0984" gradientUnits="userSpaceOnUse">
<stop stop-color="#686868"/>
<stop offset="0.9942" stop-color="#424242"/>
</linearGradient>
<linearGradient id="paint1_linear_3840_836" x1="55.5992" y1="80.6149" x2="61.8128" y2="85.4174" gradientUnits="userSpaceOnUse">
<stop stop-color="#686868"/>
<stop offset="0.9942" stop-color="#424242"/>
</linearGradient>
<linearGradient id="paint2_linear_3840_836" x1="56.3512" y1="22.605" x2="64.9231" y2="29.2304" gradientUnits="userSpaceOnUse">
<stop stop-color="#686868"/>
<stop offset="0.9942" stop-color="#424242"/>
</linearGradient>
<linearGradient id="paint3_linear_3840_836" x1="88.2985" y1="40.2404" x2="93.1069" y2="43.9646" gradientUnits="userSpaceOnUse">
<stop stop-color="#686868"/>
<stop offset="0.9942" stop-color="#424242"/>
</linearGradient>
<linearGradient id="paint4_linear_3840_836" x1="115.935" y1="30.5747" x2="115.935" y2="134.403" gradientUnits="userSpaceOnUse">
<stop stop-color="#FAFAFA"/>
<stop offset="0.828125" stop-color="#F5F2EC"/>
</linearGradient>
<linearGradient id="paint5_linear_3840_836" x1="149.633" y1="84.8094" x2="155.846" y2="89.612" gradientUnits="userSpaceOnUse">
<stop stop-color="#686868"/>
<stop offset="0.9942" stop-color="#424242"/>
</linearGradient>
<linearGradient id="paint6_linear_3840_836" x1="172.791" y1="97.5929" x2="176.276" y2="100.293" gradientUnits="userSpaceOnUse">
<stop stop-color="#686868"/>
<stop offset="0.9942" stop-color="#424242"/>
</linearGradient>
</defs>
</svg>
