<svg xmlns="http://www.w3.org/2000/svg" width="231" height="160" fill="none" viewBox="0 0 231 160">
  <path fill="#242424" d="M117.941 148.8c36.641 0 66.497-29.732 66.497-66.2497-.124-36.6408-29.856-66.3729-66.497-66.3729-36.7638 0-66.4959 29.7321-66.4959 66.2495 0 36.6411 29.7321 66.3731 66.4959 66.3731Z"/>
  <path fill="#5C5C5C" d="M186.042 59.3569c2.793 0 5.058-2.2646 5.058-5.0581 0-2.7936-2.265-5.0582-5.058-5.0582-2.794 0-5.058 2.2646-5.058 5.0582 0 2.7935 2.264 5.0581 5.058 5.0581ZM193.444 39.6176c1.908 0 3.454-1.5466 3.454-3.4544 0-1.9078-1.546-3.4543-3.454-3.4543-1.908 0-3.454 1.5465-3.454 3.4543s1.546 3.4544 3.454 3.4544ZM45.7702 126.963c3.543 0 6.4152-2.872 6.4152-6.415s-2.8722-6.415-6.4152-6.415c-3.543 0-6.4152 2.872-6.4152 6.415s2.8722 6.415 6.4152 6.415Z"/>
  <g filter="url(#filter0_d_3840_836)">
    <path fill="#424242" d="M97.0661 99.4638c0 5.7362-4.6389 10.3752-10.425 10.3752H51.825c-6.9333.149-12.47-5.387-12.47-12.0711 0-6.7338 5.5865-12.3203 12.6196-11.9712 6.0355-18.8546 33.6689-16.211 36.0133 3.2921 5.1875.6484 9.0782 5.0379 9.0782 10.375Z"/>
  </g>
  <path fill="url(#paint0_linear_3840_836)" d="M86.6412 109.839c5.7362 0 10.4249-4.639 10.4249-10.3751 0-5.7362-4.6887-10.375-10.4249-10.375-5.7362 0-10.4249 4.6388-10.4249 10.375 0 5.7361 4.6887 10.3751 10.4249 10.3751Z"/>
  <path fill="url(#paint1_linear_3840_836)" d="M69.6322 109.939c10.2254 0 18.5554-8.281 18.5554-18.5059 0-10.2254-8.33-18.5055-18.5554-18.5055-10.2254 0-18.5553 8.2801-18.5553 18.5055 0 10.2249 8.2801 18.5059 18.5553 18.5059Z"/>
  <g filter="url(#filter1_d_3840_836)">
    <path fill="#424242" d="M113.557 48.6074c0 7.9133-6.4 14.3128-14.382 14.3128H51.1447c-9.5647.2064-17.2028-7.4316-17.2028-16.6524 0-9.2895 7.7069-16.9963 17.4093-16.5147 8.3261-26.0106 46.4476-22.3636 49.6818 4.5416 7.156.8945 12.524 6.9499 12.524 14.3127Z"/>
  </g>
  <path fill="url(#paint2_linear_3840_836)" d="M75.7104 63.058c14.1063 0 25.5976-11.4227 25.5976-25.529S89.8167 12 75.7104 12C61.604 12 50.1125 23.4227 50.1125 37.529s11.4227 25.529 25.5979 25.529Z"/>
  <path fill="url(#paint3_linear_3840_836)" d="M99.175 62.9203c7.913 0 14.382-6.3994 14.382-14.3127s-6.469-14.3128-14.382-14.3128c-7.9133 0-14.3815 6.3995-14.3815 14.3128s6.4682 14.3127 14.3815 14.3127Z"/>
  <path fill="url(#paint4_linear_3840_836)" d="M94.9406 70.2246c0-11.5567 9.4144-20.9524 20.9944-20.9524 11.579 0 20.993 9.3957 20.993 20.9524 0 11.5567-9.414 20.9524-20.993 20.9524-11.58 0-20.9944-9.3017-20.9944-20.9524Zm20.9944-39.6499c-22.7831 0-41.3293 18.5095-41.3293 41.2472 0 16.5364 21.8412 47.8241 33.7973 59.4751 2.636 2.536 6.214 3.57 9.603 2.912.282 0 .47-.094.753-.188.094 0 .188 0 .282-.094 1.601-.469 3.201-1.409 4.519-2.63 9.979-9.772 26.831-35.3282 32.103-50.7371.753-2.255 1.318-4.51 1.506-6.671.094-.7517.094-1.4094.094-2.161 0-22.6437-18.452-41.1532-41.328-41.1532Z"/>
  <path fill="#F5F2EC" d="M115.934 144.075c-17.416 0-35.1149-4.604-35.1149-13.342 0-2.349 1.318-5.731 7.6256-8.644 1.2238-.564 2.5419 0 3.1067 1.128.5649 1.221 0 2.536-1.1297 3.1-3.6716 1.691-4.8955 3.383-4.8955 4.322 0 3.571 11.8621 8.644 30.4078 8.644 18.547 0 30.409-5.167 30.409-8.644 0-1.221-1.789-3.194-6.684-5.073-1.224-.47-1.789-1.786-1.318-3.007.47-1.222 1.788-1.785 3.012-1.316 8.002 3.101 9.697 6.859 9.697 9.49 0 8.738-17.699 13.342-35.116 13.342Z"/>
  <g filter="url(#filter2_d_3840_836)">
    <path fill="#424242" d="M191.1 103.658c0 5.736-4.639 10.375-10.425 10.375h-34.816c-6.934.15-12.47-5.387-12.47-12.071 0-6.7334 5.586-12.32 12.619-11.9708 6.036-18.8546 33.669-16.211 36.014 3.292 5.187.6485 9.078 5.0379 9.078 10.3748Z"/>
  </g>
  <path fill="url(#paint5_linear_3840_836)" d="M163.666 114.133c10.225 0 18.555-8.28 18.555-18.5055 0-10.2254-8.33-18.5054-18.555-18.5054-10.226 0-18.556 8.28-18.556 18.5054 0 10.2255 8.28 18.5055 18.556 18.5055Z"/>
  <path fill="url(#paint6_linear_3840_836)" d="M180.675 114.033c5.736 0 10.425-4.639 10.425-10.375 0-5.7362-4.689-10.375-10.425-10.375-5.736 0-10.425 4.6388-10.425 10.375 0 5.736 4.689 10.375 10.425 10.375Z"/>
  <defs>
    <linearGradient id="paint0_linear_3840_836" x1="78.757" x2="82.2425" y1="93.3988" y2="96.0984" gradientUnits="userSpaceOnUse">
      <stop stop-color="#686868"/>
      <stop offset=".9942" stop-color="#424242"/>
    </linearGradient>
    <linearGradient id="paint1_linear_3840_836" x1="55.5992" x2="61.8128" y1="80.615" y2="85.4176" gradientUnits="userSpaceOnUse">
      <stop stop-color="#686868"/>
      <stop offset=".9942" stop-color="#424242"/>
    </linearGradient>
    <linearGradient id="paint2_linear_3840_836" x1="56.3512" x2="64.9231" y1="22.605" y2="29.2304" gradientUnits="userSpaceOnUse">
      <stop stop-color="#686868"/>
      <stop offset=".9942" stop-color="#424242"/>
    </linearGradient>
    <linearGradient id="paint3_linear_3840_836" x1="88.2985" x2="93.1069" y1="40.2405" y2="43.9647" gradientUnits="userSpaceOnUse">
      <stop stop-color="#686868"/>
      <stop offset=".9942" stop-color="#424242"/>
    </linearGradient>
    <linearGradient id="paint4_linear_3840_836" x1="115.935" x2="115.935" y1="30.5747" y2="134.403" gradientUnits="userSpaceOnUse">
      <stop stop-color="#FAFAFA"/>
      <stop offset=".8281" stop-color="#F5F2EC"/>
    </linearGradient>
    <linearGradient id="paint5_linear_3840_836" x1="149.633" x2="155.846" y1="84.8094" y2="89.612" gradientUnits="userSpaceOnUse">
      <stop stop-color="#686868"/>
      <stop offset=".9942" stop-color="#424242"/>
    </linearGradient>
    <linearGradient id="paint6_linear_3840_836" x1="172.791" x2="176.276" y1="97.5929" y2="100.293" gradientUnits="userSpaceOnUse">
      <stop stop-color="#686868"/>
      <stop offset=".9942" stop-color="#424242"/>
    </linearGradient>
    <filter id="filter0_d_3840_836" width="81.1112" height="60.269" x="27.655" y="71.1728" color-interpolation-filters="sRGB" filterUnits="userSpaceOnUse">
      <feFlood flood-opacity="0" result="BackgroundImageFix"/>
      <feColorMatrix in="SourceAlpha" result="hardAlpha" values="0 0 0 0 0 0 0 0 0 0 0 0 0 0 0 0 0 0 127 0"/>
      <feOffset dy="9.9"/>
      <feGaussianBlur stdDeviation="5.85"/>
      <feColorMatrix values="0 0 0 0 0 0 0 0 0 0 0 0 0 0 0 0 0 0 0.22 0"/>
      <feBlend in2="BackgroundImageFix" result="effect1_dropShadow_3840_836"/>
      <feBlend in="SourceGraphic" in2="effect1_dropShadow_3840_836" result="shape"/>
    </filter>
    <filter id="filter1_d_3840_836" width="103.015" height="74.2623" x="22.2419" y="10.262" color-interpolation-filters="sRGB" filterUnits="userSpaceOnUse">
      <feFlood flood-opacity="0" result="BackgroundImageFix"/>
      <feColorMatrix in="SourceAlpha" result="hardAlpha" values="0 0 0 0 0 0 0 0 0 0 0 0 0 0 0 0 0 0 127 0"/>
      <feOffset dy="9.9"/>
      <feGaussianBlur stdDeviation="5.85"/>
      <feColorMatrix values="0 0 0 0 0 0 0 0 0 0 0 0 0 0 0 0 0 0 0.22 0"/>
      <feBlend in2="BackgroundImageFix" result="effect1_dropShadow_3840_836"/>
      <feBlend in="SourceGraphic" in2="effect1_dropShadow_3840_836" result="shape"/>
    </filter>
    <filter id="filter2_d_3840_836" width="81.1112" height="60.269" x="121.689" y="75.3672" color-interpolation-filters="sRGB" filterUnits="userSpaceOnUse">
      <feFlood flood-opacity="0" result="BackgroundImageFix"/>
      <feColorMatrix in="SourceAlpha" result="hardAlpha" values="0 0 0 0 0 0 0 0 0 0 0 0 0 0 0 0 0 0 127 0"/>
      <feOffset dy="9.9"/>
      <feGaussianBlur stdDeviation="5.85"/>
      <feColorMatrix values="0 0 0 0 0 0 0 0 0 0 0 0 0 0 0 0 0 0 0.22 0"/>
      <feBlend in2="BackgroundImageFix" result="effect1_dropShadow_3840_836"/>
      <feBlend in="SourceGraphic" in2="effect1_dropShadow_3840_836" result="shape"/>
    </filter>
  </defs>
</svg>
