<svg width="24" height="24" viewBox="0 0 24 24" fill="none" xmlns="http://www.w3.org/2000/svg">
<path fill-rule="evenodd" clip-rule="evenodd" d="M3.28034 2.21968C2.98745 1.92678 2.51257 1.92677 2.21968 2.21966C1.92678 2.51255 1.92677 2.98743 2.21966 3.28032L3.48326 4.54395C3.17684 5.03983 3 5.62426 3 6.25V8H6.93924L9.5 10.5608V14.5H13.4391L16 17.0609V21H17.75C18.3757 21 18.96 20.8232 19.4559 20.5169L20.7194 21.7805C21.0123 22.0734 21.4872 22.0734 21.7801 21.7805C22.073 21.4876 22.073 21.0127 21.7801 20.7198L3.28034 2.21968ZM9.5 6.3181L11.1819 8H14.5V3H9.5L9.5 6.3181ZM12.6818 9.5L14.5 11.3182V9.5H12.6818ZM16 12.8182L17.6817 14.5H21V9.5H16L16 12.8182ZM19.1817 16L20.9993 17.8176C20.9998 17.7951 21 17.7726 21 17.75V16H19.1817ZM6.18265 3.00068L8 4.81807V3H6.25C6.2275 3 6.20505 3.00023 6.18265 3.00068ZM9.5 21H14.5V16H9.5L9.5 21ZM21 8V6.25C21 4.45507 19.5449 3 17.75 3H16V8H21ZM3 9.5V14.5H8V9.5H3ZM3 16V17.75C3 19.5449 4.45507 21 6.25 21H8L8 16H3Z" fill="#212121"/>
</svg>
