<svg width="24" height="24" viewBox="0 0 24 24" fill="none" xmlns="http://www.w3.org/2000/svg">
<path fill-rule="evenodd" clip-rule="evenodd" d="M3.28034 2.21968C2.98745 1.92678 2.51257 1.92677 2.21968 2.21966C1.92678 2.51255 1.92677 2.98743 2.21966 3.28032L3.48326 4.54395C3.17684 5.03983 3 5.62426 3 6.25V17.75C3 19.5449 4.45507 21 6.25 21H17.75C18.3757 21 18.96 20.8232 19.4559 20.5169L20.7194 21.7805C21.0123 22.0734 21.4872 22.0734 21.7801 21.7805C22.073 21.4876 22.073 21.0127 21.7801 20.7198L3.28034 2.21968ZM18.3378 19.3988L15.5 16.5609V19.5H17.75C17.9562 19.5 18.1541 19.4643 18.3378 19.3988ZM12.9391 14L10 11.0608L10 14H12.9391ZM7.43923 8.5L4.60125 5.66196C4.5357 5.84574 4.5 6.0437 4.5 6.25V8.5H7.43923ZM8.5 4.5V5.31808L10 6.81811V4.5H14V8.5H11.6819L13.1818 10H14V10.8182L15.5 12.3182L15.5 10H19.5V14H17.1817L18.6817 15.5H19.5V16.3183L20.9993 17.8176C20.9998 17.7951 21 17.7726 21 17.75V6.25C21 4.45507 19.5449 3 17.75 3H6.25C6.2275 3 6.20505 3.00023 6.18265 3.00068L7.68194 4.5H8.5ZM4.5 10V14H8.5L8.5 10H4.5ZM14 15.5H10V19.5H14V15.5ZM15.5 8.5H19.5V6.25C19.5 5.2835 18.7165 4.5 17.75 4.5H15.5V8.5ZM4.5 15.5V17.75C4.5 18.7165 5.2835 19.5 6.25 19.5H8.5V15.5H4.5Z" fill="#212121"/>
</svg>
