<svg width="24" height="24" viewBox="0 0 24 24" fill="none" xmlns="http://www.w3.org/2000/svg">
<path d="M12.0127 2.25C12.7466 2.25846 13.4777 2.34326 14.1942 2.50304C14.5069 2.57279 14.7408 2.83351 14.7763 3.15196L14.9465 4.67881C15.0235 5.37986 15.6155 5.91084 16.3211 5.91158C16.5108 5.91188 16.6984 5.87238 16.8737 5.79483L18.2743 5.17956C18.5656 5.05159 18.906 5.12136 19.1234 5.35362C20.1356 6.43464 20.8894 7.73115 21.3282 9.14558C21.4228 9.45058 21.3139 9.78203 21.0568 9.9715L19.8154 10.8866C19.6636 10.9981 19.5384 11.1378 19.445 11.2955C18.9605 11.144 18.4517 11.0475 17.9259 11.0136C18.118 10.4861 18.4626 10.0191 18.9263 9.67847L19.7232 9.09109C19.4026 8.25061 18.9473 7.46784 18.3753 6.77356L17.4788 7.16737C17.1134 7.32901 16.7183 7.4122 16.3192 7.41158C14.8495 7.41004 13.616 6.30355 13.4556 4.84383L13.3467 3.8667C12.9012 3.7942 12.4531 3.75512 12.0128 3.7499C11.5588 3.75524 11.106 3.79443 10.6583 3.86702L10.5494 4.84418C10.4476 5.75368 9.92052 6.56102 9.13091 7.01903C8.33646 7.48317 7.36785 7.53903 6.52507 7.16917L5.62678 6.77456C5.05485 7.46873 4.59963 8.25135 4.27901 9.09168L5.07681 9.67879C5.81562 10.2216 6.25196 11.0837 6.25196 12.0005C6.25196 12.9172 5.81562 13.7793 5.07759 14.3215L4.27853 14.9102C4.59887 15.752 5.05417 16.5361 5.62649 17.2316L6.53162 16.8351C7.36971 16.4692 8.33173 16.5227 9.12402 16.9794C9.9163 17.4361 10.4448 18.2417 10.5485 19.1526L10.6574 20.1365C10.9711 20.1898 11.2871 20.2244 11.6038 20.2401L11.6149 20.2637L11.1733 21.7139C10.7116 21.6735 10.2521 21.5994 9.79852 21.4915C9.49039 21.4182 9.26153 21.1592 9.22667 20.8444L9.05785 19.32C9.00826 18.8843 8.75483 18.498 8.37491 18.279C7.995 18.06 7.53369 18.0343 7.13269 18.2094L5.72606 18.8256C5.43471 18.9533 5.09452 18.8833 4.87727 18.6509C3.86511 17.5685 3.11168 16.2705 2.67369 14.8548C2.57935 14.5499 2.68835 14.2186 2.94533 14.0293L4.18867 13.1133C4.54281 12.8531 4.75196 12.4399 4.75196 12.0005C4.75196 11.561 4.54281 11.1478 4.1882 10.8873L2.94565 9.97285C2.68828 9.78345 2.57918 9.45178 2.67386 9.14658C3.11261 7.73215 3.86643 6.43564 4.87861 5.35462C5.09608 5.12236 5.43643 5.05259 5.72773 5.18056L7.12811 5.79572C7.53105 5.97256 7.99429 5.94585 8.37626 5.72269C8.75658 5.50209 9.00977 5.11422 9.05866 4.67764L9.22873 3.15196C9.26425 2.83335 9.49835 2.57254 9.81129 2.50294C10.5286 2.34342 11.2604 2.25865 12.0127 2.25ZM12.0002 8.24995C13.8178 8.24995 15.3333 9.54303 15.6771 11.2594C15.1721 11.4068 14.6926 11.6137 14.2466 11.8721C14.1804 10.689 13.1999 9.74995 12.0002 9.74995C10.7575 9.74995 9.75018 10.7573 9.75018 12C9.75018 13.1997 10.6892 14.1801 11.8724 14.2464C11.6139 14.6924 11.407 15.1719 11.2597 15.6768C9.54326 15.3331 8.25018 13.8175 8.25018 12C8.25018 9.92888 9.92912 8.24995 12.0002 8.24995Z" fill="#212121"/>
<path d="M17.5 23C20.5376 23 23 20.5376 23 17.5C23 14.4624 20.5376 12 17.5 12C14.4624 12 12 14.4624 12 17.5C12 20.5376 14.4624 23 17.5 23ZM20.8536 15.8536L16.8536 19.8536C16.6583 20.0488 16.3417 20.0488 16.1464 19.8536L14.1464 17.8536C13.9512 17.6583 13.9512 17.3417 14.1464 17.1464C14.3417 16.9512 14.6583 16.9512 14.8536 17.1464L16.5 18.7929L20.1464 15.1464C20.3417 14.9512 20.6583 14.9512 20.8536 15.1464C21.0488 15.3417 21.0488 15.6583 20.8536 15.8536Z" fill="#212121"/>
</svg>
