<svg width="24" height="24" viewBox="0 0 24 24" fill="none" xmlns="http://www.w3.org/2000/svg">
<path d="M14.1947 2.50304C13.4782 2.34326 12.7471 2.25846 12.0132 2.25C11.2609 2.25865 10.5291 2.34342 9.81178 2.50294C9.49884 2.57254 9.26474 2.83335 9.22922 3.15196L9.05914 4.67764C9.01026 5.11422 8.75707 5.50209 8.37675 5.72269C7.99478 5.94585 7.53154 5.97256 7.1286 5.79572L5.72822 5.18056C5.43691 5.05259 5.09657 5.12236 4.8791 5.35462C3.86692 6.43564 3.1131 7.73215 2.67434 9.14658C2.57967 9.45178 2.68877 9.78345 2.94614 9.97285L4.18869 10.8873C4.54329 11.1478 4.75245 11.561 4.75245 12.0005C4.75245 12.4399 4.54329 12.8531 4.18915 13.1133L2.94582 14.0293C2.68884 14.2186 2.57984 14.5499 2.67418 14.8548C3.11217 16.2705 3.8656 17.5685 4.87776 18.6509C5.09501 18.8833 5.4352 18.9533 5.72655 18.8256L7.13318 18.2094C7.53418 18.0343 7.99549 18.06 8.3754 18.279C8.75532 18.498 9.00875 18.8843 9.05834 19.32L9.22716 20.8444C9.26202 21.1592 9.49088 21.4182 9.79901 21.4915C10.2526 21.5994 10.7121 21.6735 11.1738 21.7139L11.6154 20.2637C11.2209 19.4244 11.0007 18.4874 11.0007 17.5012C11.0007 16.5999 11.1841 15.7413 11.5157 14.961C10.0894 14.7291 9.00067 13.4917 9.00067 12C9.00067 10.3431 10.3438 8.99995 12.0007 8.99995C13.4924 8.99995 14.7299 10.0887 14.9617 11.515C15.742 11.1834 16.6005 11 17.5018 11C18.1788 11 18.8317 11.1035 19.4454 11.2955C19.5389 11.1378 19.6641 10.9981 19.8159 10.8866L21.0573 9.9715C21.3144 9.78203 21.4233 9.45058 21.3287 9.14558C20.8899 7.73115 20.1361 6.43464 19.1239 5.35362C18.9064 5.12136 18.5661 5.05159 18.2748 5.17956L16.8742 5.79483C16.6989 5.87238 16.5113 5.91188 16.3216 5.91158C15.6159 5.91084 15.024 5.37986 14.947 4.67881L14.7768 3.15196C14.7413 2.83351 14.5074 2.57279 14.1947 2.50304Z" fill="#212121"/>
<path d="M17.5 23C20.5376 23 23 20.5376 23 17.5C23 14.4624 20.5376 12 17.5 12C14.4624 12 12 14.4624 12 17.5C12 20.5376 14.4624 23 17.5 23ZM20.8536 15.8536L16.8536 19.8536C16.6583 20.0488 16.3417 20.0488 16.1464 19.8536L14.1464 17.8536C13.9512 17.6583 13.9512 17.3417 14.1464 17.1464C14.3417 16.9512 14.6583 16.9512 14.8536 17.1464L16.5 18.7929L20.1464 15.1464C20.3417 14.9512 20.6583 14.9512 20.8536 15.1464C21.0488 15.3417 21.0488 15.6583 20.8536 15.8536Z" fill="#212121"/>
</svg>
