<svg width="230" height="160" viewBox="0 0 230 160" fill="none" xmlns="http://www.w3.org/2000/svg">
<g clip-path="url(#clip0_3268_5065)">
<path d="M31.5994 126.042L19.4251 97.1686L42.4626 72.6609L43.7112 73.8458L21.4854 97.5428L33.2226 125.356L31.5994 126.042Z" fill="#1E1F28"/>
<path fill-rule="evenodd" clip-rule="evenodd" d="M42.4435 71.9952C42.621 71.9901 42.7932 72.056 42.9219 72.1781L44.1706 73.363C44.4363 73.6151 44.4485 74.0342 44.1979 74.3014L22.2681 97.6828L33.8372 125.097C33.9801 125.436 33.8214 125.826 33.4825 125.969L31.8592 126.655C31.6961 126.724 31.5123 126.726 31.3483 126.659C31.1842 126.592 31.0534 126.463 30.9847 126.3L18.8104 97.4274C18.7081 97.1848 18.7585 96.9047 18.9389 96.7128L41.9763 72.2051C42.0979 72.0758 42.266 72.0003 42.4435 71.9952ZM42.4896 73.6056L20.208 97.3092L31.9547 125.168L32.3493 125.001L20.8708 97.8017C20.7685 97.5593 20.8186 97.2795 20.9986 97.0875L42.7717 73.8733L42.4896 73.6056Z" fill="#333334"/>
<path d="M20.3622 100.287C21.8104 100.287 22.9844 99.1143 22.9844 97.6678C22.9844 96.2213 21.8104 95.0486 20.3622 95.0486C18.914 95.0486 17.7401 96.2213 17.7401 97.6678C17.7401 99.1143 18.914 100.287 20.3622 100.287Z" fill="#3C3C3C"/>
<path fill-rule="evenodd" clip-rule="evenodd" d="M20.3615 95.7149C19.2817 95.7149 18.4063 96.5893 18.4063 97.6679C18.4063 98.7465 19.2817 99.6208 20.3615 99.6208C21.4414 99.6208 22.3168 98.7465 22.3168 97.6679C22.3168 96.5893 21.4414 95.7149 20.3615 95.7149ZM17.0724 97.6679C17.0724 95.8534 18.545 94.3825 20.3615 94.3825C22.1781 94.3825 23.6507 95.8534 23.6507 97.6679C23.6507 99.4823 22.1781 100.953 20.3615 100.953C18.545 100.953 17.0724 99.4823 17.0724 97.6679Z" fill="#4E4E4E"/>
<path d="M46.5833 128.848H23.6707C25.9807 124.919 30.2261 122.238 35.0958 122.238C39.9655 122.238 44.2733 124.857 46.5833 128.848Z" fill="#3C3C3C"/>
<path fill-rule="evenodd" clip-rule="evenodd" d="M56.1055 81.478C56.3682 81.2201 56.7905 81.2237 57.0487 81.4862L60.6073 85.1031C60.8655 85.3655 60.8618 85.7873 60.5991 86.0452C60.3364 86.303 59.9141 86.2994 59.656 86.037L56.0973 82.4201C55.8391 82.1576 55.8428 81.7359 56.1055 81.478Z" fill="#777777"/>
<path fill-rule="evenodd" clip-rule="evenodd" d="M52.9989 83.6075C53.359 83.5299 53.7139 83.7586 53.7915 84.1182L54.4783 87.2986C54.5559 87.6582 54.327 88.0127 53.9669 88.0903C53.6069 88.1678 53.252 87.9392 53.1744 87.5795L52.4876 84.3991C52.4099 84.0395 52.6389 83.685 52.9989 83.6075Z" fill="#777777"/>
<path fill-rule="evenodd" clip-rule="evenodd" d="M58.0447 78.5641C58.1246 78.2049 58.4808 77.9785 58.8404 78.0583L62.7736 78.9314C63.1332 79.0112 63.3599 79.367 63.28 79.7262C63.2001 80.0853 62.8438 80.3118 62.4843 80.232L58.551 79.3589C58.1915 79.2791 57.9647 78.9233 58.0447 78.5641Z" fill="#777777"/>
<path d="M44.1484 85.0081L60.0686 69.1061C55.5111 69.1061 52.2022 69.0438 51.0784 69.0438C49.9546 69.0438 47.2076 67.8589 44.4606 65.1774L44.3357 65.0527C43.1495 63.8678 41.2766 63.8678 40.0903 65.0527C38.9041 66.2376 38.9041 68.1084 40.0903 69.2932L40.2152 69.4179C42.9622 72.1618 44.086 74.9057 44.086 76.0282C44.086 77.0883 44.086 80.4558 44.1484 85.0081Z" fill="#4E4E4E"/>
<path d="M44.2734 85.4449C45.2099 86.3803 49.5801 83.5118 54.0752 79.0218C58.5704 74.5318 61.4422 70.1666 60.5058 69.2312C59.7566 68.4829 56.6974 70.229 53.2012 73.2846C52.3896 74.033 51.5155 74.7813 50.7039 75.6543C49.8299 76.5274 49.0807 77.3381 48.3315 78.1488C45.2723 81.7033 43.5242 84.6966 44.2734 85.4449Z" fill="#333334"/>
<path d="M48.4559 78.273C49.8294 79.645 51.9521 79.645 53.3256 78.273C54.6991 76.9011 54.6991 74.7808 53.3256 73.4089C53.2632 73.3465 53.2632 73.3465 53.2008 73.2842C52.3891 74.0325 51.5151 74.7808 50.7035 75.6539C49.8294 76.5269 49.0802 77.3376 48.3311 78.1483C48.3935 78.2107 48.4559 78.273 48.4559 78.273Z" fill="#F5F2EC"/>
<g opacity="0.6">
<path d="M67.685 5H46.9575V35.9932H67.685V5Z" fill="#484848"/>
<path d="M57.3826 27.2005C60.9685 27.2005 63.8755 24.2968 63.8755 20.715C63.8755 17.1331 60.9685 14.2295 57.3826 14.2295C53.7966 14.2295 50.8896 17.1331 50.8896 20.715C50.8896 24.2968 53.7966 27.2005 57.3826 27.2005Z" fill="url(#paint0_linear_3268_5065)"/>
<path d="M86.1654 35.9928H10.4976V40.1086H86.1654V35.9928Z" fill="#484848"/>
<path fill-rule="evenodd" clip-rule="evenodd" d="M78.9858 38.5073C79.3541 38.5073 79.6527 38.8056 79.6527 39.1735V43.1646C79.6527 43.5325 79.3541 43.8308 78.9858 43.8308C78.6175 43.8308 78.3188 43.5325 78.3188 43.1646V39.1735C78.3188 38.8056 78.6175 38.5073 78.9858 38.5073Z" fill="#484848"/>
<path fill-rule="evenodd" clip-rule="evenodd" d="M18.6328 38.5073C19.0011 38.5073 19.2997 38.8056 19.2997 39.1735V43.1646C19.2997 43.5325 19.0011 43.8308 18.6328 43.8308C18.2644 43.8308 17.9658 43.5325 17.9658 43.1646V39.1735C17.9658 38.8056 18.2644 38.5073 18.6328 38.5073Z" fill="#484848"/>
<path d="M32.2858 18.9062H27.978V35.993H32.2858V18.9062Z" fill="#4E4E4E"/>
<path d="M34.9186 19.8521L32.3188 21.6885L42.1961 35.6398L44.7959 33.8035L34.9186 19.8521Z" fill="#4E4E4E"/>
<path d="M28.0398 13.667H23.7319V35.9921H28.0398V13.667Z" fill="#4E4E4E"/>
<path d="M67.4993 32.5445C67.4993 32.5445 67.4993 32.5445 65.9385 28.4911C64.5025 24.6871 62.5671 23.0033 60.3196 22.4421C60.1323 22.3797 60.0074 22.5668 60.1323 22.7539C61.2561 24.2506 62.3799 26.059 63.5036 28.1793C63.8158 28.8029 64.128 29.3641 64.5025 29.9877L67.4993 32.5445Z" fill="#333333"/>
<path d="M68.1847 31.1079C68.1847 31.1079 67.6228 30.3596 69.6831 26.4932C71.5561 23.001 74.1782 22.1904 76.4258 21.9409C76.6755 21.9409 76.8004 22.1904 76.6131 22.3774C75.3644 23.687 73.9909 25.3084 72.6799 27.2416C72.3053 27.8028 71.8682 28.3641 71.4936 28.9253L68.1847 31.1079Z" fill="#333333"/>
<path d="M70.8685 29.9228C70.8685 29.9228 70.8685 29.9228 70.1818 25.62C69.5574 21.6289 67.9966 19.5086 65.9364 18.5109C65.7491 18.4485 65.6242 18.5732 65.6867 18.7603C66.4358 20.444 67.185 22.4396 67.8718 24.7469C68.0591 25.4329 68.2464 26.0565 68.4337 26.6801L70.8685 29.9228Z" fill="#333333"/>
<path d="M67.2485 33.2294C67.2485 33.2294 67.2485 33.2294 66.9988 27.1181C66.7491 21.3186 64.8761 18.1382 62.0666 16.4544C61.9418 16.3297 61.6921 16.5168 61.7545 16.7039C62.5661 19.1983 63.3153 22.1916 63.8772 25.6214C64.1269 27.0557 64.3766 28.49 64.6888 29.9243L67.2485 33.2294Z" fill="#333333"/>
<path d="M66.6875 32.8557C66.6875 32.8557 66.6875 32.8557 67.3118 26.8067C67.9361 21.0695 70.0588 18.0139 72.9307 16.5172C73.118 16.4548 73.2429 16.5796 73.1805 16.7666C72.1815 19.2611 71.2451 22.1296 70.4959 25.4971C70.1837 26.9314 69.8091 28.3033 69.3721 29.7376L66.6875 32.8557Z" fill="#333333"/>
<path d="M70.6211 36.1614H65.0646C63.1917 36.1614 61.6309 34.6648 61.6309 32.7316V27.5557H73.9924V32.7316C73.9924 34.6024 72.4941 36.1614 70.6211 36.1614Z" fill="#A6A6A6"/>
</g>
<g opacity="0.5">
<path d="M185.931 49.2126H154.278V68.6691H185.931V49.2126Z" fill="#3A3A3A"/>
<path d="M185.993 75.4038H167.014V99.9115H185.993V75.4038Z" fill="#3A3A3A"/>
<path d="M214.462 41.1055H191.549V75.3414H214.462V41.1055Z" fill="#3A3A3A"/>
<path d="M214.462 80.9551H191.549V98.0419H214.462V80.9551Z" fill="#3A3A3A"/>
</g>
<path d="M173.882 114.13V86.0676C173.882 85.2569 173.258 84.6333 172.509 84.6333C171.76 84.6333 171.135 85.2569 171.135 86.0676V114.13" fill="#3C3C3C"/>
<path d="M168.075 95.4838C169.948 97.2923 170.698 99.662 170.448 102.032C168.013 102.281 165.516 101.533 163.643 99.7867C161.77 97.9782 161.021 95.6085 161.27 93.2388C163.705 92.927 166.202 93.6754 168.075 95.4838Z" fill="#4F4F4F"/>
<path d="M181.685 93.052C179.812 94.9228 177.253 95.7335 174.755 95.484C174.506 92.9896 175.255 90.4952 177.19 88.562C179.063 86.6912 181.623 85.8805 184.12 86.13C184.37 88.6244 183.558 91.1812 181.685 93.052Z" fill="#4F4F4F"/>
<g filter="url(#filter0_d_3268_5065)">
<path d="M180.624 114.879V116.75C180.624 117.187 180.312 117.498 179.875 117.498C179.438 117.498 179.126 117.81 179.126 118.247L177.503 128.349H167.951L166.327 118.247C166.327 117.81 166.015 117.498 165.578 117.498C165.141 117.498 164.829 117.187 164.829 116.75V114.879C164.829 114.443 165.141 114.131 165.578 114.131H179.75C180.25 114.131 180.624 114.443 180.624 114.879Z" fill="#4F4F4F"/>
</g>
<path d="M181.685 106.897C179.812 108.768 177.253 109.578 174.755 109.329C174.506 106.834 175.255 104.34 177.19 102.407C179.063 100.536 181.623 99.7252 184.12 99.9747C184.37 102.469 183.558 105.026 181.685 106.897Z" fill="#4F4F4F"/>
<path d="M21.9216 154.789H15.1789C15.0541 154.789 14.9292 154.664 14.9292 154.54V136.518C14.9292 136.393 15.0541 136.268 15.1789 136.268H21.9216C22.0465 136.268 22.1713 136.393 22.1713 136.518V154.54C22.1713 154.664 22.0465 154.789 21.9216 154.789Z" fill="#3C3C3C"/>
<path d="M203.1 154.789H196.357C196.232 154.789 196.107 154.664 196.107 154.54V136.518C196.107 136.393 196.232 136.268 196.357 136.268H203.1C203.225 136.268 203.35 136.393 203.35 136.518V154.54C203.35 154.664 203.225 154.789 203.1 154.789Z" fill="#3C3C3C"/>
<path d="M128.056 129.909C122.374 130.097 115.632 129.909 110.699 129.847C105.955 130.034 99.0246 130.097 93.3433 129.909C98.9622 126.729 100.96 120.805 101.21 116.938H120.064C120.564 120.742 122.499 126.729 128.056 129.909Z" fill="#3C3C3C"/>
<path d="M146.287 67.486V116.252C146.287 117.499 145.288 118.435 144.227 118.435H77.4865C76.3003 118.435 75.4262 117.437 75.4262 116.252V67.486C75.4262 66.3011 76.4251 65.3034 77.4865 65.3034H144.102C145.413 65.3657 146.287 66.3011 146.287 67.486Z" fill="url(#paint1_linear_3268_5065)"/>
<path d="M146.304 67.3776V109.863H75.6069V67.3776C75.6069 66.2204 76.5969 65.2285 77.6693 65.2285H144.159C145.396 65.2285 146.304 66.2204 146.304 67.3776Z" fill="#333333"/>
<path d="M144.217 67.8921H77.606V107.863H144.301V67.8921H144.217Z" fill="#242424"/>
<path d="M110.827 115.503C111.826 115.503 112.575 114.817 112.575 113.757C112.575 112.759 111.888 112.011 110.827 112.011C109.828 112.011 109.079 112.697 109.079 113.757C109.079 114.755 109.765 115.503 110.827 115.503Z" fill="#333333"/>
<path d="M87.2278 113.633C86.2914 113.883 79.8608 115.442 79.8608 115.442C79.8608 115.442 81.1095 122.114 82.9824 122.8C86.6659 122.301 89.2257 121.615 89.2257 121.615C88.0395 119.308 87.2278 113.633 87.2278 113.633Z" fill="url(#paint2_linear_3268_5065)"/>
<path d="M98.3393 114.007L106.705 116.626C106.705 116.626 104.333 122.738 102.522 123.673C99.2758 122.987 96.0293 121.989 96.0293 121.989C97.9647 118.622 98.3393 114.007 98.3393 114.007Z" fill="url(#paint3_linear_3268_5065)"/>
<path d="M141.106 123.673C137.985 122.239 134.551 119.495 134.551 119.495L139.483 112.698L146.288 117.624C146.288 117.687 143.291 121.74 141.106 123.673Z" fill="url(#paint4_linear_3268_5065)"/>
<g filter="url(#filter1_d_3268_5065)">
<path d="M204.351 139.199H14.0573C13.6203 139.199 13.3081 138.825 13.3081 138.451V132.838C13.3081 132.402 13.6827 132.09 14.0573 132.09H204.351C204.788 132.09 205.1 132.464 205.1 132.838V138.451C205.1 138.825 204.788 139.199 204.351 139.199Z" fill="#3C3C3C"/>
</g>
<g filter="url(#filter2_d_3268_5065)">
<path d="M112.574 46.0322C120.191 46.0322 126.371 39.9208 126.371 32.3752C126.371 24.8296 120.191 18.7183 112.574 18.7183C104.957 18.7183 98.7764 24.8296 98.7764 32.3752C98.7764 39.9208 104.957 46.0322 112.574 46.0322Z" fill="#3C3C3C"/>
</g>
<path d="M112.574 43.6622C118.817 43.6622 123.937 38.611 123.937 32.4373C123.937 26.2012 118.88 21.2124 112.574 21.2124C106.331 21.2124 101.211 26.2636 101.211 32.4373C101.211 38.611 106.268 43.6622 112.574 43.6622Z" fill="#4F4F4F"/>
<path opacity="0.3" d="M123.938 32.3753C123.938 32.5624 123.938 32.7495 123.875 32.9989C123.563 27.0746 118.631 22.3352 112.575 22.3352C106.519 22.3352 101.587 27.0746 101.212 32.9989C101.212 32.8118 101.15 32.6247 101.15 32.3753C101.15 26.2016 106.269 21.1504 112.513 21.1504C118.881 21.1504 123.938 26.2016 123.938 32.3753Z" fill="#323232"/>
<path d="M112.262 31.8155L111.388 32.6886L106.081 27.4503C105.831 27.2008 105.831 26.8267 106.081 26.5772C106.331 26.3278 106.705 26.3278 106.955 26.5772L112.262 31.8155Z" fill="#A6A6A6"/>
<path d="M113.635 32.751L112.761 31.878L116.694 27.9493C116.944 27.6998 117.319 27.6998 117.569 27.9493C117.818 28.1987 117.818 28.5729 117.569 28.8223L113.635 32.751Z" fill="#A6A6A6"/>
<path d="M112.012 32.2508C112.387 31.8767 112.824 31.8767 113.136 32.2508C113.511 32.625 113.511 33.0615 113.136 33.311C112.762 33.5604 112.325 33.6851 112.012 33.311C111.763 32.9992 111.763 32.5003 112.012 32.2508Z" fill="#AAB2C5"/>
<path d="M115.384 41.3552C115.322 41.3552 115.197 41.2929 115.197 41.2305L112.388 32.8118C112.325 32.7495 112.45 32.6248 112.512 32.5624C112.575 32.5 112.7 32.6248 112.762 32.6871L115.572 41.1058C115.634 41.1682 115.509 41.2929 115.447 41.3552C115.447 41.3552 115.447 41.3552 115.384 41.3552Z" fill="#A6A6A6"/>
<path d="M111.637 31.8146C112.199 31.3157 113.073 31.3157 113.573 31.8146C114.134 32.3135 114.134 33.1865 113.573 33.7478C113.011 34.309 112.137 34.2467 111.637 33.7478C111.138 33.2489 111.075 32.3758 111.637 31.8146Z" fill="#747474" stroke="#333333" stroke-width="2" stroke-miterlimit="10"/>
<path d="M112.95 22.2124H112.263C112.139 22.2124 112.014 22.3371 112.014 22.4618V24.4574C112.014 24.5821 112.139 24.7068 112.263 24.7068H112.95C113.075 24.7068 113.2 24.5821 113.2 24.4574V22.3995C113.2 22.2748 113.137 22.2124 112.95 22.2124Z" fill="#333333"/>
<path d="M112.95 39.9854H112.263C112.139 39.9854 112.014 40.1101 112.014 40.2348V42.2303C112.014 42.3551 112.139 42.4798 112.263 42.4798H112.95C113.075 42.4798 113.2 42.3551 113.2 42.2303V40.2348C113.2 40.1101 113.137 39.9854 112.95 39.9854Z" fill="#333333"/>
<path d="M104.583 31.6899H102.586C102.461 31.6899 102.336 31.8147 102.336 31.9394V32.6253C102.336 32.7501 102.461 32.8748 102.586 32.8748H104.583C104.708 32.8748 104.833 32.7501 104.833 32.6253V31.9394C104.833 31.8147 104.708 31.6899 104.583 31.6899Z" fill="#333333"/>
<path d="M122.625 31.752H120.628C120.503 31.752 120.378 31.8767 120.378 32.0014V32.6874C120.378 32.8121 120.503 32.9368 120.628 32.9368H122.625C122.75 32.9368 122.875 32.8121 122.875 32.6874V32.0014C122.875 31.8767 122.75 31.752 122.625 31.752Z" fill="#333333"/>
<path d="M156.527 129.221C156.527 127.662 155.653 126.103 154.155 124.981C152.656 123.858 150.596 123.235 148.473 123.235C144.04 123.235 140.419 125.916 140.419 129.221C140.419 132.527 144.04 135.208 148.473 135.208C152.968 135.208 156.527 132.527 156.527 129.221Z" fill="#A6A6A6"/>
<path d="M209.531 136.269H8.81162C8.37459 136.269 8 135.895 8 135.458V129.347C8 128.91 8.37459 128.536 8.81162 128.536H209.531C209.968 128.536 210.343 128.91 210.343 129.347V135.458C210.405 135.895 210.031 136.269 209.531 136.269Z" fill="url(#paint5_linear_3268_5065)"/>
<path d="M205.305 122.988C205.305 123.487 205.118 123.986 204.743 124.297C204.431 124.609 203.931 124.859 203.432 124.859H184.827C185.327 124.859 185.826 124.671 186.138 124.297C186.45 123.986 186.7 123.487 186.7 122.988C186.7 121.928 185.826 121.117 184.827 121.117H203.432C204.493 121.055 205.305 121.928 205.305 122.988Z" fill="#4E4E4E"/>
<path d="M189.323 122.988C189.323 123.487 189.136 123.986 188.761 124.297C188.449 124.609 187.949 124.859 187.45 124.859H176.462C176.961 124.859 177.461 124.671 177.773 124.297C178.085 123.986 178.335 123.487 178.335 122.988C178.335 121.928 177.461 121.117 176.462 121.117H187.45C188.449 121.055 189.323 121.928 189.323 122.988Z" fill="#A6A6A6"/>
<path d="M201.311 126.813C201.311 127.312 201.123 127.81 200.749 128.122C200.437 128.434 199.937 128.684 199.438 128.684H180.833C181.332 128.684 181.832 128.496 182.144 128.122C182.456 127.81 182.706 127.312 182.706 126.813C182.706 125.753 181.832 124.942 180.833 124.942H199.438C200.437 124.942 201.311 125.753 201.311 126.813Z" fill="#3C3C3C"/>
<path d="M185.266 126.813C185.266 127.312 185.079 127.81 184.704 128.122C184.392 128.434 183.893 128.684 183.393 128.684H172.405C172.905 128.684 173.404 128.496 173.716 128.122C174.029 127.81 174.278 127.312 174.278 126.813C174.278 125.753 173.404 124.942 172.405 124.942H183.393C184.455 124.942 185.266 125.753 185.266 126.813Z" fill="#A6A6A6"/>
<path d="M177.522 118.23C177.522 119.103 177.897 119.913 178.459 120.475C179.021 121.036 179.832 121.41 180.707 121.41H197.313C196.439 121.41 197.938 121.036 197.376 120.475C196.814 119.913 196.439 119.103 196.439 118.23C196.439 116.484 195.565 115.049 197.313 115.049H180.707C178.896 115.112 177.522 116.484 177.522 118.23Z" fill="#3C3C3C"/>
<path d="M192.008 118.23C192.008 119.103 192.382 119.913 192.944 120.475C193.506 121.036 194.318 121.41 195.192 121.41H204.557C203.683 121.41 202.871 121.036 202.309 120.475C201.747 119.913 201.373 119.103 201.373 118.23C201.373 116.484 202.809 115.049 204.557 115.049H195.192C193.444 115.112 192.008 116.484 192.008 118.23Z" fill="#A6A6A6"/>
<path d="M63.877 120.035H64.5013C65.5002 120.035 66.2494 120.908 66.2494 121.968C66.2494 123.091 65.4378 123.902 64.5013 123.902H63.877" fill="#F1F3F9"/>
<path d="M63.877 120.035H64.5013C65.5002 120.035 66.2494 120.908 66.2494 121.968C66.2494 123.091 65.4378 123.902 64.5013 123.902H63.877" fill="#4E4E4E"/>
<path d="M59.9443 128.58H54.0756C51.8905 128.58 50.2048 126.834 50.2048 124.776V118.789C50.2048 117.916 50.954 117.292 51.7656 117.292H62.3167C63.1907 117.292 63.8775 117.978 63.8775 118.789V124.713C63.815 126.896 62.067 128.58 59.9443 128.58Z" fill="#4E4E4E"/>
<path opacity="0.3" d="M62.3793 110.993C62.3793 110.557 62.0047 110.245 61.6301 110.245H60.1941C59.7571 110.245 59.445 109.871 59.445 109.496C59.445 109.06 59.8195 108.748 60.1941 108.748H61.0682C61.5052 108.748 61.8174 108.374 61.8174 108C61.8174 107.563 61.4428 107.251 61.0682 107.251H54.0134C53.5763 107.251 53.2642 107.626 53.2642 108C53.2642 108.436 53.6388 108.748 54.0134 108.748H57.4471C57.8842 108.748 58.1963 109.122 58.1963 109.496C58.1963 109.933 57.8217 110.245 57.4471 110.245H54.7001C54.2631 110.245 53.9509 110.619 53.9509 110.993C53.9509 111.43 54.3255 111.741 54.7001 111.741H55.1996C55.6366 111.741 55.9487 112.116 55.9487 112.49C55.9487 112.926 55.5742 113.238 55.1996 113.238H54.7001C54.2631 113.238 53.9509 113.612 53.9509 113.986C53.9509 114.423 54.3255 114.735 54.7001 114.735H59.1952C59.6322 114.735 59.9444 114.361 59.9444 113.986C59.9444 113.55 59.5698 113.238 59.1952 113.238H58.446C58.009 113.238 57.6968 112.864 57.6968 112.49C57.6968 112.053 58.0714 111.741 58.446 111.741H61.6925C62.0671 111.741 62.3793 111.367 62.3793 110.993Z" fill="#4D4D4D"/>
<path d="M59.5692 124.277H57.1968C56.9471 124.277 56.7598 124.09 56.7598 123.84V121.907C56.7598 121.782 56.8222 121.658 56.8846 121.595L57.6338 120.847C57.6962 120.785 57.8211 120.722 57.946 120.722H58.82C58.9449 120.722 59.0698 120.785 59.1322 120.847L59.8814 121.595C59.9438 121.658 60.0062 121.782 60.0062 121.907V123.84C60.0687 124.09 59.8189 124.277 59.5692 124.277Z" fill="#333434"/>
<path fill-rule="evenodd" clip-rule="evenodd" d="M59.1117 117.292V121.471H57.7778V117.292H59.1117Z" fill="#333434"/>
</g>
<defs>
<filter id="filter0_d_3268_5065" x="142.829" y="103.131" width="59.7953" height="58.2182" filterUnits="userSpaceOnUse" color-interpolation-filters="sRGB">
<feFlood flood-opacity="0" result="BackgroundImageFix"/>
<feColorMatrix in="SourceAlpha" type="matrix" values="0 0 0 0 0 0 0 0 0 0 0 0 0 0 0 0 0 0 127 0" result="hardAlpha"/>
<feOffset dy="11"/>
<feGaussianBlur stdDeviation="11"/>
<feColorMatrix type="matrix" values="0 0 0 0 0.397708 0 0 0 0 0.47749 0 0 0 0 0.575 0 0 0 0.27 0"/>
<feBlend mode="normal" in2="BackgroundImageFix" result="effect1_dropShadow_3268_5065"/>
<feBlend mode="normal" in="SourceGraphic" in2="effect1_dropShadow_3268_5065" result="shape"/>
</filter>
<filter id="filter1_d_3268_5065" x="-2.69189" y="120.09" width="223.792" height="39.1091" filterUnits="userSpaceOnUse" color-interpolation-filters="sRGB">
<feFlood flood-opacity="0" result="BackgroundImageFix"/>
<feColorMatrix in="SourceAlpha" type="matrix" values="0 0 0 0 0 0 0 0 0 0 0 0 0 0 0 0 0 0 127 0" result="hardAlpha"/>
<feOffset dy="4"/>
<feGaussianBlur stdDeviation="8"/>
<feColorMatrix type="matrix" values="0 0 0 0 0 0 0 0 0 0 0 0 0 0 0 0 0 0 0.24 0"/>
<feBlend mode="normal" in2="BackgroundImageFix" result="effect1_dropShadow_3268_5065"/>
<feBlend mode="normal" in="SourceGraphic" in2="effect1_dropShadow_3268_5065" result="shape"/>
</filter>
<filter id="filter2_d_3268_5065" x="76.7764" y="7.71826" width="71.595" height="71.3139" filterUnits="userSpaceOnUse" color-interpolation-filters="sRGB">
<feFlood flood-opacity="0" result="BackgroundImageFix"/>
<feColorMatrix in="SourceAlpha" type="matrix" values="0 0 0 0 0 0 0 0 0 0 0 0 0 0 0 0 0 0 127 0" result="hardAlpha"/>
<feOffset dy="11"/>
<feGaussianBlur stdDeviation="11"/>
<feColorMatrix type="matrix" values="0 0 0 0 0 0 0 0 0 0 0 0 0 0 0 0 0 0 0.27 0"/>
<feBlend mode="normal" in2="BackgroundImageFix" result="effect1_dropShadow_3268_5065"/>
<feBlend mode="normal" in="SourceGraphic" in2="effect1_dropShadow_3268_5065" result="shape"/>
</filter>
<linearGradient id="paint0_linear_3268_5065" x1="57.3826" y1="14.2295" x2="57.3826" y2="27.2005" gradientUnits="userSpaceOnUse">
<stop stop-color="#585858"/>
<stop offset="1" stop-color="#3B3B3B"/>
<stop offset="1" stop-color="#454545"/>
</linearGradient>
<linearGradient id="paint1_linear_3268_5065" x1="110.833" y1="64.0744" x2="110.833" y2="119.007" gradientUnits="userSpaceOnUse">
<stop stop-color="#5C5C5C"/>
<stop offset="0.9964" stop-color="#4D4D4D"/>
</linearGradient>
<linearGradient id="paint2_linear_3268_5065" x1="84.5402" y1="113.421" x2="84.5402" y2="122.899" gradientUnits="userSpaceOnUse">
<stop stop-color="#A6A6A6"/>
<stop offset="0.9964" stop-color="#878787"/>
</linearGradient>
<linearGradient id="paint3_linear_3268_5065" x1="101.364" y1="113.784" x2="101.364" y2="123.777" gradientUnits="userSpaceOnUse">
<stop stop-color="#A6A6A6"/>
<stop offset="0.9964" stop-color="#878787"/>
</linearGradient>
<linearGradient id="paint4_linear_3268_5065" x1="140.416" y1="112.444" x2="140.416" y2="123.792" gradientUnits="userSpaceOnUse">
<stop stop-color="#A6A6A6"/>
<stop offset="0.9964" stop-color="#878787"/>
</linearGradient>
<linearGradient id="paint5_linear_3268_5065" x1="109.109" y1="128.357" x2="109.109" y2="136.352" gradientUnits="userSpaceOnUse">
<stop stop-color="#5C5C5C"/>
<stop offset="0.9964" stop-color="#4D4D4D"/>
</linearGradient>
<clipPath id="clip0_3268_5065">
<rect width="230" height="160" fill="white"/>
</clipPath>
</defs>
</svg>
