<svg width="230" height="160" viewBox="0 0 230 160" fill="none" xmlns="http://www.w3.org/2000/svg">
<g clip-path="url(#clip0_3268_5063)">
<path d="M31.5993 126.042L19.4251 97.1686L42.4625 72.6609L43.7112 73.8458L21.4854 97.5428L33.2226 125.356L31.5993 126.042Z" fill="white"/>
<path fill-rule="evenodd" clip-rule="evenodd" d="M42.4434 71.9952C42.6209 71.9901 42.7931 72.056 42.9219 72.1781L44.1705 73.363C44.4362 73.6151 44.4484 74.0342 44.1979 74.3014L22.2681 97.6828L33.8371 125.097C33.9801 125.436 33.8213 125.826 33.4824 125.969L31.8592 126.655C31.6961 126.724 31.5123 126.725 31.3482 126.659C31.1842 126.592 31.0534 126.463 30.9847 126.3L18.8104 97.4274C18.7081 97.1848 18.7585 96.9047 18.9389 96.7128L41.9763 72.2051C42.0978 72.0758 42.266 72.0003 42.4434 71.9952ZM42.4895 73.6056L20.208 97.3092L31.9547 125.168L32.3493 125.001L20.8708 97.8017C20.7685 97.5593 20.8186 97.2795 20.9986 97.0875L42.7716 73.8733L42.4895 73.6056Z" fill="#EDE5DA"/>
<path d="M20.3622 100.287C21.8104 100.287 22.9843 99.1143 22.9843 97.6678C22.9843 96.2213 21.8104 95.0486 20.3622 95.0486C18.914 95.0486 17.7401 96.2213 17.7401 97.6678C17.7401 99.1143 18.914 100.287 20.3622 100.287Z" fill="white"/>
<path fill-rule="evenodd" clip-rule="evenodd" d="M20.3615 95.7144C19.2817 95.7144 18.4063 96.5888 18.4063 97.6674C18.4063 98.746 19.2817 99.6204 20.3615 99.6204C21.4414 99.6204 22.3167 98.746 22.3167 97.6674C22.3167 96.5888 21.4414 95.7144 20.3615 95.7144ZM17.0724 97.6674C17.0724 95.853 18.545 94.3821 20.3615 94.3821C22.1781 94.3821 23.6506 95.853 23.6506 97.6674C23.6506 99.4818 22.1781 100.953 20.3615 100.953C18.545 100.953 17.0724 99.4818 17.0724 97.6674Z" fill="#EDE5DA"/>
<path d="M46.5833 128.848H23.6707C25.9807 124.92 30.2261 122.238 35.0958 122.238C39.9655 122.238 44.2733 124.857 46.5833 128.848Z" fill="#EDE5DA"/>
<path fill-rule="evenodd" clip-rule="evenodd" d="M56.105 81.478C56.3678 81.2201 56.79 81.2237 57.0482 81.4862L60.6068 85.1031C60.865 85.3655 60.8613 85.7873 60.5986 86.0452C60.3359 86.303 59.9136 86.2994 59.6555 86.037L56.0968 82.4201C55.8387 82.1576 55.8423 81.7359 56.105 81.478Z" fill="#BCB9B3"/>
<path fill-rule="evenodd" clip-rule="evenodd" d="M52.9989 83.6079C53.359 83.5304 53.7139 83.759 53.7915 84.1187L54.4783 87.2991C54.5559 87.6587 54.327 88.0132 53.9669 88.0907C53.6069 88.1683 53.252 87.9396 53.1744 87.58L52.4876 84.3996C52.4099 84.04 52.6389 83.6855 52.9989 83.6079Z" fill="#BCB9B3"/>
<path fill-rule="evenodd" clip-rule="evenodd" d="M58.0447 78.5651C58.1246 78.2059 58.4808 77.9795 58.8404 78.0593L62.7736 78.9323C63.1332 79.0121 63.3599 79.368 63.28 79.7272C63.2001 80.0863 62.8438 80.3128 62.4842 80.233L58.551 79.3599C58.1915 79.2801 57.9647 78.9242 58.0447 78.5651Z" fill="#BCB9B3"/>
<path d="M44.1479 85.0086L60.0681 69.1066C55.5106 69.1066 52.2017 69.0443 51.0779 69.0443C49.9541 69.0443 47.2071 67.8594 44.4601 65.1779L44.3352 65.0532C43.149 63.8683 41.2761 63.8683 40.0899 65.0532C38.9036 66.238 38.9036 68.1089 40.0899 69.2937L40.2147 69.4184C42.9617 72.1623 44.0855 74.9061 44.0855 76.0286C44.0855 77.0888 44.0855 80.4562 44.1479 85.0086Z" fill="#EDE5DA"/>
<path d="M44.2734 85.4449C45.2099 86.3803 49.5801 83.5117 54.0752 79.0218C58.5703 74.5318 61.4422 70.1666 60.5057 69.2312C59.7565 68.4829 56.6974 70.229 53.2012 73.2846C52.3895 74.033 51.5155 74.7813 50.7039 75.6543C49.8298 76.5274 49.0807 77.3381 48.3315 78.1488C45.2723 81.7033 43.5242 84.6966 44.2734 85.4449Z" fill="#BCB9B3"/>
<path d="M48.4559 78.273C49.8294 79.645 51.9521 79.645 53.3256 78.273C54.6991 76.9011 54.6991 74.7808 53.3256 73.4089C53.2632 73.3465 53.2632 73.3465 53.2008 73.2842C52.3891 74.0325 51.5151 74.7808 50.7035 75.6539C49.8294 76.5269 49.0802 77.3376 48.3311 78.1483C48.3935 78.2107 48.4559 78.273 48.4559 78.273Z" fill="white"/>
<g opacity="0.6">
<path d="M67.6849 5H46.9575V35.9932H67.6849V5Z" fill="#EBE8E5"/>
<path d="M57.3826 27.201C60.9685 27.201 63.8755 24.2973 63.8755 20.7155C63.8755 17.1336 60.9685 14.23 57.3826 14.23C53.7966 14.23 50.8896 17.1336 50.8896 20.7155C50.8896 24.2973 53.7966 27.201 57.3826 27.201Z" fill="#D9D2C7"/>
<path d="M86.1652 35.9928H10.4976V40.1086H86.1652V35.9928Z" fill="#BCB9B3"/>
<path fill-rule="evenodd" clip-rule="evenodd" d="M78.9858 38.5083C79.3541 38.5083 79.6527 38.8066 79.6527 39.1745V43.1656C79.6527 43.5335 79.3541 43.8317 78.9858 43.8317C78.6174 43.8317 78.3188 43.5335 78.3188 43.1656V39.1745C78.3188 38.8066 78.6174 38.5083 78.9858 38.5083Z" fill="#BCB9B3"/>
<path fill-rule="evenodd" clip-rule="evenodd" d="M18.6328 38.5083C19.0011 38.5083 19.2997 38.8066 19.2997 39.1745V43.1656C19.2997 43.5335 19.0011 43.8317 18.6328 43.8317C18.2644 43.8317 17.9658 43.5335 17.9658 43.1656V39.1745C17.9658 38.8066 18.2644 38.5083 18.6328 38.5083Z" fill="#BCB9B3"/>
<path d="M32.2858 18.9067H27.978V35.9935H32.2858V18.9067Z" fill="#E4E0DA"/>
<path d="M34.9186 19.8526L32.3188 21.689L42.1961 35.6403L44.7958 33.804L34.9186 19.8526Z" fill="#E4E0DA"/>
<path d="M28.0397 13.667H23.7319V35.9921H28.0397V13.667Z" fill="#E4E0DA"/>
<path d="M67.4993 31.8782C67.4993 31.8782 67.4993 31.8782 65.9385 27.8248C64.5025 24.0208 62.5671 22.3371 60.3196 21.7758C60.1323 21.7135 60.0074 21.9006 60.1323 22.0876C61.2561 23.5843 62.3798 25.3928 63.5036 27.513C63.8158 28.1366 64.1279 28.6979 64.5025 29.3215L67.4993 31.8782Z" fill="#BCB9B3"/>
<path d="M68.1847 30.4419C68.1847 30.4419 67.6228 29.6936 69.6831 25.8272C71.5561 22.335 74.1782 21.5243 76.4258 21.2749C76.6755 21.2749 76.8004 21.5243 76.6131 21.7114C75.3644 23.021 73.9909 24.6424 72.6798 26.5755C72.3053 27.1368 71.8682 27.698 71.4936 28.2593L68.1847 30.4419Z" fill="#BCB9B3"/>
<path d="M70.8685 29.2583C70.8685 29.2583 70.8685 29.2583 70.1818 24.9554C69.5574 20.9643 67.9966 18.8441 65.9364 17.8463C65.7491 17.7839 65.6242 17.9087 65.6867 18.0957C66.4358 19.7795 67.185 21.775 67.8718 24.0824C68.0591 24.7683 68.2464 25.3919 68.4337 26.0155L70.8685 29.2583Z" fill="#BCB9B3"/>
<path d="M67.248 32.5624C67.248 32.5624 67.248 32.5624 66.9983 26.4511C66.7486 20.6516 64.8756 17.4712 62.0662 15.7875C61.9413 15.6627 61.6916 15.8498 61.754 16.0369C62.5656 18.5313 63.3148 21.5246 63.8767 24.9544C64.1264 26.3887 64.3761 27.823 64.6883 29.2573L67.248 32.5624Z" fill="#BCB9B3"/>
<path d="M66.687 32.1887C66.687 32.1887 66.687 32.1887 67.3113 26.1397C67.9357 20.4025 70.0583 17.3469 72.9302 15.8502C73.1175 15.7878 73.2424 15.9126 73.1799 16.0996C72.181 18.5941 71.2446 21.4627 70.4954 24.8301C70.1832 26.2644 69.8086 27.6363 69.3716 29.0706L66.687 32.1887Z" fill="#BCB9B3"/>
<g filter="url(#filter0_d_3268_5063)">
<path d="M70.6211 35.4954H65.0646C63.1917 35.4954 61.6309 33.9987 61.6309 32.0656V26.8896H73.9924V32.0656C73.9924 33.9364 72.494 35.4954 70.6211 35.4954Z" fill="#EDE5DA"/>
</g>
</g>
<g opacity="0.5">
<path d="M185.932 49.2129H154.279V68.6694H185.932V49.2129Z" fill="#EDE5DA"/>
<path d="M185.993 75.4048H167.014V99.9125H185.993V75.4048Z" fill="#EDE5DA"/>
<path d="M214.462 80.9556H191.55V98.0423H214.462V80.9556Z" fill="#EDE5DA"/>
</g>
<path d="M173.883 114.13V86.0681C173.883 85.2574 173.258 84.6338 172.509 84.6338C171.76 84.6338 171.136 85.2574 171.136 86.0681V114.13" fill="#BCB9B3"/>
<path d="M168.075 95.4843C169.948 97.2927 170.697 99.6624 170.447 102.032C168.013 102.282 165.515 101.533 163.642 99.7872C161.769 97.9787 161.02 95.609 161.27 93.2393C163.705 92.9275 166.202 93.6758 168.075 95.4843Z" fill="#E4E0DA"/>
<path d="M181.686 93.0525C179.813 94.9233 177.253 95.734 174.756 95.4845C174.506 92.9901 175.255 90.4957 177.191 88.5625C179.064 86.6917 181.624 85.881 184.121 86.1304C184.371 88.6249 183.559 91.1816 181.686 93.0525Z" fill="#E4E0DA"/>
<g filter="url(#filter1_d_3268_5063)">
<path d="M180.624 114.88V116.75C180.624 117.187 180.312 117.499 179.875 117.499C179.438 117.499 179.126 117.811 179.126 118.247L177.502 128.35H167.95L166.327 118.247C166.327 117.811 166.015 117.499 165.578 117.499C165.141 117.499 164.829 117.187 164.829 116.75V114.88C164.829 114.443 165.141 114.131 165.578 114.131H179.75C180.249 114.131 180.624 114.443 180.624 114.88Z" fill="#EDE5DA"/>
</g>
<path d="M181.686 106.897C179.813 108.768 177.253 109.579 174.756 109.329C174.506 106.835 175.255 104.34 177.191 102.407C179.064 100.536 181.624 99.7257 184.121 99.9752C184.371 102.47 183.559 105.026 181.686 106.897Z" fill="#E4E0DA"/>
<path d="M21.9216 154.79H15.1789C15.0541 154.79 14.9292 154.665 14.9292 154.54V136.518C14.9292 136.393 15.0541 136.269 15.1789 136.269H21.9216C22.0464 136.269 22.1713 136.393 22.1713 136.518V154.54C22.1713 154.665 22.0464 154.79 21.9216 154.79Z" fill="#E4E0DA"/>
<path d="M203.099 154.79H196.356C196.231 154.79 196.106 154.665 196.106 154.54V136.518C196.106 136.393 196.231 136.269 196.356 136.269H203.099C203.224 136.269 203.349 136.393 203.349 136.518V154.54C203.349 154.665 203.224 154.79 203.099 154.79Z" fill="#E4E0DA"/>
<path d="M128.056 129.909C122.375 130.096 115.632 129.909 110.7 129.847C105.955 130.034 99.0251 130.096 93.3438 129.909C98.9626 126.729 100.96 120.804 101.21 116.938H120.065C120.564 120.742 122.5 126.729 128.056 129.909Z" fill="#BCB9B3"/>
<g filter="url(#filter2_d_3268_5063)">
<path d="M146.287 67.4865V116.252C146.287 117.5 145.288 118.435 144.226 118.435H77.4865C76.3003 118.435 75.4262 117.437 75.4262 116.252V67.4865C75.4262 66.3016 76.4251 65.3038 77.4865 65.3038H144.101C145.412 65.3662 146.287 66.3016 146.287 67.4865Z" fill="url(#paint0_linear_3268_5063)"/>
</g>
<path d="M146.304 67.3776V109.863H75.6074V67.3776C75.6074 66.2204 76.5973 65.2285 77.6697 65.2285H144.159C145.396 65.2285 146.304 66.2204 146.304 67.3776Z" fill="url(#paint1_linear_3268_5063)"/>
<path d="M144.217 67.8916H77.606V107.863H144.301V67.8916H144.217Z" fill="white"/>
<path d="M110.827 115.503C111.826 115.503 112.575 114.817 112.575 113.757C112.575 112.759 111.889 112.011 110.827 112.011C109.828 112.011 109.079 112.697 109.079 113.757C109.079 114.755 109.766 115.503 110.827 115.503Z" fill="#EDE5DA"/>
<g filter="url(#filter3_d_3268_5063)">
<path d="M87.2273 113.633C86.2908 113.882 79.8604 115.441 79.8604 115.441C79.8604 115.441 81.109 122.114 82.982 122.8C86.6654 122.301 89.2252 121.615 89.2252 121.615C88.0389 119.308 87.2273 113.633 87.2273 113.633Z" fill="url(#paint2_linear_3268_5063)"/>
</g>
<g filter="url(#filter4_d_3268_5063)">
<path d="M98.3398 114.007L106.706 116.626C106.706 116.626 104.333 122.737 102.523 123.673C99.2763 122.987 96.0298 121.989 96.0298 121.989C97.9652 118.622 98.3398 114.007 98.3398 114.007Z" fill="url(#paint3_linear_3268_5063)"/>
</g>
<g filter="url(#filter5_d_3268_5063)">
<path d="M141.106 123.673C137.984 122.239 134.55 119.495 134.55 119.495L139.482 112.698L146.287 117.624C146.287 117.687 143.291 121.74 141.106 123.673Z" fill="url(#paint4_linear_3268_5063)"/>
</g>
<path d="M204.35 139.199H14.0573C13.6203 139.199 13.3081 138.825 13.3081 138.451V132.838C13.3081 132.402 13.6827 132.09 14.0573 132.09H204.35C204.787 132.09 205.099 132.464 205.099 132.838V138.451C205.099 138.825 204.787 139.199 204.35 139.199Z" fill="#E4E0DA"/>
<path d="M112.573 46.0322C120.19 46.0322 126.371 39.9208 126.371 32.3752C126.371 24.8296 120.19 18.7183 112.573 18.7183C104.957 18.7183 98.7759 24.8296 98.7759 32.3752C98.7759 39.9208 104.957 46.0322 112.573 46.0322Z" fill="#D2D0CD"/>
<path d="M112.573 43.6627C118.816 43.6627 123.936 38.6115 123.936 32.4378C123.936 26.2017 118.879 21.2129 112.573 21.2129C106.33 21.2129 101.21 26.2641 101.21 32.4378C101.21 38.6115 106.267 43.6627 112.573 43.6627Z" fill="white"/>
<path opacity="0.3" d="M123.937 32.3758C123.937 32.5629 123.937 32.7499 123.875 32.9994C123.562 27.0751 118.63 22.3357 112.574 22.3357C106.519 22.3357 101.586 27.0751 101.212 32.9994C101.212 32.8123 101.149 32.6252 101.149 32.3758C101.149 26.2021 106.269 21.1509 112.512 21.1509C118.88 21.1509 123.937 26.2021 123.937 32.3758Z" fill="#F0EBE5" stroke="#DEDEDE" stroke-width="2" stroke-miterlimit="10"/>
<path d="M112.261 31.8155L111.387 32.6885L106.08 27.4503C105.831 27.2008 105.831 26.8267 106.08 26.5772C106.33 26.3278 106.705 26.3278 106.954 26.5772L112.261 31.8155Z" fill="#BCB9B3"/>
<path d="M113.635 32.751L112.761 31.878L116.694 27.9493C116.944 27.6998 117.318 27.6998 117.568 27.9493C117.818 28.1987 117.818 28.5729 117.568 28.8223L113.635 32.751Z" fill="#BCB9B3"/>
<path d="M112.012 32.2508C112.387 31.8767 112.824 31.8767 113.136 32.2508C113.51 32.625 113.51 33.0615 113.136 33.311C112.761 33.5604 112.324 33.6851 112.012 33.311C111.762 32.9992 111.762 32.5003 112.012 32.2508Z" fill="#AAB2C5"/>
<path d="M115.384 41.3557C115.322 41.3557 115.197 41.2934 115.197 41.231L112.388 32.8123C112.325 32.75 112.45 32.6253 112.512 32.5629C112.575 32.5005 112.7 32.6253 112.762 32.6876L115.572 41.1063C115.634 41.1686 115.509 41.2934 115.447 41.3557C115.447 41.3557 115.447 41.3557 115.384 41.3557Z" fill="#BCB9B3"/>
<path d="M111.637 31.8146C112.199 31.3157 113.073 31.3157 113.572 31.8146C114.134 32.3135 114.134 33.1865 113.572 33.7478C113.01 34.309 112.136 34.2467 111.637 33.7478C111.137 33.2489 111.075 32.3758 111.637 31.8146Z" fill="#D0D0CD" stroke="#E4E0D9" stroke-width="2" stroke-miterlimit="10"/>
<path d="M112.95 22.2124H112.263C112.139 22.2124 112.014 22.3371 112.014 22.4618V24.4574C112.014 24.5821 112.139 24.7068 112.263 24.7068H112.95C113.075 24.7068 113.2 24.5821 113.2 24.4574V22.3995C113.2 22.2748 113.137 22.2124 112.95 22.2124Z" fill="#D0D0CD"/>
<path d="M112.95 39.9854H112.263C112.139 39.9854 112.014 40.1101 112.014 40.2348V42.2303C112.014 42.3551 112.139 42.4798 112.263 42.4798H112.95C113.075 42.4798 113.2 42.3551 113.2 42.2303V40.2348C113.2 40.1101 113.137 39.9854 112.95 39.9854Z" fill="#D0D0CD"/>
<path d="M104.583 31.6904H102.586C102.461 31.6904 102.336 31.8152 102.336 31.9399V32.6258C102.336 32.7506 102.461 32.8753 102.586 32.8753H104.583C104.708 32.8753 104.833 32.7506 104.833 32.6258V31.9399C104.833 31.8152 104.708 31.6904 104.583 31.6904Z" fill="#D0D0CD"/>
<path d="M122.625 31.7515H120.627C120.502 31.7515 120.377 31.8762 120.377 32.0009V32.6869C120.377 32.8116 120.502 32.9363 120.627 32.9363H122.625C122.749 32.9363 122.874 32.8116 122.874 32.6869V32.0009C122.874 31.8762 122.749 31.7515 122.625 31.7515Z" fill="#D0D0CD"/>
<path d="M156.526 129.221C156.526 127.662 155.652 126.103 154.154 124.981C152.656 123.858 150.595 123.235 148.473 123.235C144.04 123.235 140.419 125.916 140.419 129.221C140.419 132.527 144.04 135.208 148.473 135.208C152.968 135.208 156.526 132.527 156.526 129.221Z" fill="#BCB9B3"/>
<g filter="url(#filter6_d_3268_5063)">
<path d="M209.531 136.269H8.81161C8.37459 136.269 8 135.895 8 135.458V129.347C8 128.91 8.37459 128.536 8.81161 128.536H209.531C209.968 128.536 210.342 128.91 210.342 129.347V135.102C210.342 135.339 210.39 135.589 210.297 135.807C210.183 136.076 209.889 136.269 209.531 136.269Z" fill="url(#paint5_linear_3268_5063)"/>
</g>
<path d="M205.304 122.988C205.304 123.487 205.117 123.986 204.742 124.297C204.43 124.609 203.931 124.859 203.431 124.859H184.827C185.326 124.859 185.826 124.671 186.138 124.297C186.45 123.986 186.7 123.487 186.7 122.988C186.7 121.928 185.826 121.117 184.827 121.117H203.431C204.493 121.055 205.304 121.928 205.304 122.988Z" fill="#EDE5DA"/>
<path d="M189.322 122.988C189.322 123.487 189.135 123.986 188.76 124.297C188.448 124.609 187.948 124.859 187.449 124.859H176.461C176.96 124.859 177.46 124.671 177.772 124.297C178.084 123.986 178.334 123.487 178.334 122.988C178.334 121.928 177.46 121.117 176.461 121.117H187.449C188.448 121.055 189.322 121.928 189.322 122.988Z" fill="white"/>
<path d="M201.31 126.813C201.31 127.312 201.123 127.81 200.748 128.122C200.436 128.434 199.937 128.684 199.437 128.684H180.833C181.332 128.684 181.831 128.496 182.144 128.122C182.456 127.81 182.705 127.312 182.705 126.813C182.705 125.753 181.831 124.942 180.833 124.942H199.437C200.436 124.942 201.31 125.753 201.31 126.813Z" fill="#BCB9B3"/>
<path d="M185.266 126.813C185.266 127.312 185.078 127.81 184.704 128.122C184.392 128.434 183.892 128.684 183.393 128.684H172.405C172.904 128.684 173.404 128.496 173.716 128.122C174.028 127.81 174.278 127.312 174.278 126.813C174.278 125.753 173.404 124.942 172.405 124.942H183.393C184.454 124.942 185.266 125.753 185.266 126.813Z" fill="white"/>
<path d="M177.523 118.229C177.523 119.102 177.898 119.913 178.459 120.474C179.021 121.035 179.833 121.41 180.707 121.41H197.314C196.44 121.41 197.938 121.035 197.376 120.474C196.814 119.913 196.44 119.102 196.44 118.229C196.44 116.483 195.566 115.049 197.314 115.049H180.707C178.896 115.111 177.523 116.483 177.523 118.229Z" fill="#BCB9B3"/>
<path d="M192.007 118.229C192.007 119.102 192.381 119.913 192.943 120.474C193.505 121.035 194.317 121.41 195.191 121.41H204.556C203.682 121.41 202.87 121.035 202.308 120.474C201.746 119.913 201.372 119.102 201.372 118.229C201.372 116.483 202.808 115.049 204.556 115.049H195.191C193.443 115.111 192.007 116.483 192.007 118.229Z" fill="#EDE5DA"/>
<path d="M63.8765 119.369H64.5008C65.4997 119.369 66.2489 120.242 66.2489 121.302C66.2489 122.425 65.4373 123.236 64.5008 123.236H63.8765" fill="#F1F3F9"/>
<path d="M63.8765 119.369H64.5008C65.4997 119.369 66.2489 120.242 66.2489 121.302C66.2489 122.425 65.4373 123.236 64.5008 123.236H63.8765" stroke="#EDE5DA" stroke-width="2" stroke-miterlimit="10" stroke-linejoin="round"/>
<path d="M59.9438 127.913H54.0752C51.8901 127.913 50.2044 126.167 50.2044 124.109V118.123C50.2044 117.25 50.9536 116.626 51.7652 116.626H62.3162C63.1903 116.626 63.877 117.312 63.877 118.123V124.047C63.8146 126.23 62.0665 127.913 59.9438 127.913Z" fill="#EDE5DA"/>
<path d="M62.3792 110.327C62.3792 109.891 62.0046 109.579 61.6301 109.579H60.1941C59.7571 109.579 59.4449 109.205 59.4449 108.83C59.4449 108.394 59.8195 108.082 60.1941 108.082H61.0682C61.5052 108.082 61.8174 107.708 61.8174 107.334C61.8174 106.897 61.4428 106.585 61.0682 106.585H54.0134C53.5763 106.585 53.2642 106.96 53.2642 107.334C53.2642 107.77 53.6388 108.082 54.0134 108.082H57.4471C57.8841 108.082 58.1963 108.456 58.1963 108.83C58.1963 109.267 57.8217 109.579 57.4471 109.579H54.7001C54.2631 109.579 53.9509 109.953 53.9509 110.327C53.9509 110.764 54.3255 111.075 54.7001 111.075H55.1996C55.6366 111.075 55.9487 111.45 55.9487 111.824C55.9487 112.26 55.5741 112.572 55.1996 112.572H54.7001C54.2631 112.572 53.9509 112.946 53.9509 113.32C53.9509 113.757 54.3255 114.069 54.7001 114.069H59.1952C59.6322 114.069 59.9444 113.695 59.9444 113.32C59.9444 112.884 59.5698 112.572 59.1952 112.572H58.446C58.009 112.572 57.6968 112.198 57.6968 111.824C57.6968 111.387 58.0714 111.075 58.446 111.075H61.6925C62.0671 111.075 62.3792 110.701 62.3792 110.327Z" fill="#EDE5DA"/>
<path d="M59.5687 123.61H57.1963C56.9466 123.61 56.7593 123.423 56.7593 123.174V121.241C56.7593 121.116 56.8217 120.991 56.8841 120.929L57.6333 120.18C57.6958 120.118 57.8206 120.056 57.9455 120.056H58.8195C58.9444 120.056 59.0693 120.118 59.1317 120.18L59.8809 120.929C59.9433 120.991 60.0057 121.116 60.0057 121.241V123.174C60.0682 123.423 59.8184 123.61 59.5687 123.61Z" fill="#BCB9B3"/>
<path fill-rule="evenodd" clip-rule="evenodd" d="M59.1112 116.626V120.804H57.7773V116.626H59.1112Z" fill="#BCB9B3"/>
</g>
<defs>
<filter id="filter0_d_3268_5063" x="39.6309" y="15.8896" width="56.3615" height="52.6058" filterUnits="userSpaceOnUse" color-interpolation-filters="sRGB">
<feFlood flood-opacity="0" result="BackgroundImageFix"/>
<feColorMatrix in="SourceAlpha" type="matrix" values="0 0 0 0 0 0 0 0 0 0 0 0 0 0 0 0 0 0 127 0" result="hardAlpha"/>
<feOffset dy="11"/>
<feGaussianBlur stdDeviation="11"/>
<feColorMatrix type="matrix" values="0 0 0 0 0.397708 0 0 0 0 0.47749 0 0 0 0 0.575 0 0 0 0.27 0"/>
<feBlend mode="normal" in2="BackgroundImageFix" result="effect1_dropShadow_3268_5063"/>
<feBlend mode="normal" in="SourceGraphic" in2="effect1_dropShadow_3268_5063" result="shape"/>
</filter>
<filter id="filter1_d_3268_5063" x="142.829" y="103.131" width="59.7953" height="58.2182" filterUnits="userSpaceOnUse" color-interpolation-filters="sRGB">
<feFlood flood-opacity="0" result="BackgroundImageFix"/>
<feColorMatrix in="SourceAlpha" type="matrix" values="0 0 0 0 0 0 0 0 0 0 0 0 0 0 0 0 0 0 127 0" result="hardAlpha"/>
<feOffset dy="11"/>
<feGaussianBlur stdDeviation="11"/>
<feColorMatrix type="matrix" values="0 0 0 0 0.397708 0 0 0 0 0.47749 0 0 0 0 0.575 0 0 0 0.27 0"/>
<feBlend mode="normal" in2="BackgroundImageFix" result="effect1_dropShadow_3268_5063"/>
<feBlend mode="normal" in="SourceGraphic" in2="effect1_dropShadow_3268_5063" result="shape"/>
</filter>
<filter id="filter2_d_3268_5063" x="53.4262" y="54.3038" width="114.86" height="97.1312" filterUnits="userSpaceOnUse" color-interpolation-filters="sRGB">
<feFlood flood-opacity="0" result="BackgroundImageFix"/>
<feColorMatrix in="SourceAlpha" type="matrix" values="0 0 0 0 0 0 0 0 0 0 0 0 0 0 0 0 0 0 127 0" result="hardAlpha"/>
<feOffset dy="11"/>
<feGaussianBlur stdDeviation="11"/>
<feColorMatrix type="matrix" values="0 0 0 0 0.576471 0 0 0 0 0.501961 0 0 0 0 0.396078 0 0 0 0.37 0"/>
<feBlend mode="normal" in2="BackgroundImageFix" result="effect1_dropShadow_3268_5063"/>
<feBlend mode="normal" in="SourceGraphic" in2="effect1_dropShadow_3268_5063" result="shape"/>
</filter>
<filter id="filter3_d_3268_5063" x="59.8604" y="97.6328" width="49.3648" height="49.167" filterUnits="userSpaceOnUse" color-interpolation-filters="sRGB">
<feFlood flood-opacity="0" result="BackgroundImageFix"/>
<feColorMatrix in="SourceAlpha" type="matrix" values="0 0 0 0 0 0 0 0 0 0 0 0 0 0 0 0 0 0 127 0" result="hardAlpha"/>
<feOffset dy="4"/>
<feGaussianBlur stdDeviation="10"/>
<feColorMatrix type="matrix" values="0 0 0 0 0.576471 0 0 0 0 0.501961 0 0 0 0 0.396078 0 0 0 0.25 0"/>
<feBlend mode="normal" in2="BackgroundImageFix" result="effect1_dropShadow_3268_5063"/>
<feBlend mode="normal" in="SourceGraphic" in2="effect1_dropShadow_3268_5063" result="shape"/>
</filter>
<filter id="filter4_d_3268_5063" x="76.0298" y="98.0068" width="50.6759" height="49.6659" filterUnits="userSpaceOnUse" color-interpolation-filters="sRGB">
<feFlood flood-opacity="0" result="BackgroundImageFix"/>
<feColorMatrix in="SourceAlpha" type="matrix" values="0 0 0 0 0 0 0 0 0 0 0 0 0 0 0 0 0 0 127 0" result="hardAlpha"/>
<feOffset dy="4"/>
<feGaussianBlur stdDeviation="10"/>
<feColorMatrix type="matrix" values="0 0 0 0 0.576471 0 0 0 0 0.501961 0 0 0 0 0.396078 0 0 0 0.25 0"/>
<feBlend mode="normal" in2="BackgroundImageFix" result="effect1_dropShadow_3268_5063"/>
<feBlend mode="normal" in="SourceGraphic" in2="effect1_dropShadow_3268_5063" result="shape"/>
</filter>
<filter id="filter5_d_3268_5063" x="114.55" y="96.6978" width="51.7372" height="50.9755" filterUnits="userSpaceOnUse" color-interpolation-filters="sRGB">
<feFlood flood-opacity="0" result="BackgroundImageFix"/>
<feColorMatrix in="SourceAlpha" type="matrix" values="0 0 0 0 0 0 0 0 0 0 0 0 0 0 0 0 0 0 127 0" result="hardAlpha"/>
<feOffset dy="4"/>
<feGaussianBlur stdDeviation="10"/>
<feColorMatrix type="matrix" values="0 0 0 0 0.576471 0 0 0 0 0.501961 0 0 0 0 0.396078 0 0 0 0.25 0"/>
<feBlend mode="normal" in2="BackgroundImageFix" result="effect1_dropShadow_3268_5063"/>
<feBlend mode="normal" in="SourceGraphic" in2="effect1_dropShadow_3268_5063" result="shape"/>
</filter>
<filter id="filter6_d_3268_5063" x="-8" y="120.536" width="234.354" height="39.7327" filterUnits="userSpaceOnUse" color-interpolation-filters="sRGB">
<feFlood flood-opacity="0" result="BackgroundImageFix"/>
<feColorMatrix in="SourceAlpha" type="matrix" values="0 0 0 0 0 0 0 0 0 0 0 0 0 0 0 0 0 0 127 0" result="hardAlpha"/>
<feOffset dy="8"/>
<feGaussianBlur stdDeviation="8"/>
<feColorMatrix type="matrix" values="0 0 0 0 0.576471 0 0 0 0 0.501961 0 0 0 0 0.396078 0 0 0 0.24 0"/>
<feBlend mode="normal" in2="BackgroundImageFix" result="effect1_dropShadow_3268_5063"/>
<feBlend mode="normal" in="SourceGraphic" in2="effect1_dropShadow_3268_5063" result="shape"/>
</filter>
<linearGradient id="paint0_linear_3268_5063" x1="110.833" y1="64.0749" x2="110.833" y2="119.008" gradientUnits="userSpaceOnUse">
<stop stop-color="#FDFEFF"/>
<stop offset="0.9964" stop-color="#F5F2EC"/>
</linearGradient>
<linearGradient id="paint1_linear_3268_5063" x1="143.499" y1="65.2286" x2="77.7644" y2="65.5911" gradientUnits="userSpaceOnUse">
<stop stop-color="#606060"/>
<stop offset="1" stop-color="#7B7B7B"/>
</linearGradient>
<linearGradient id="paint2_linear_3268_5063" x1="84.5397" y1="113.421" x2="84.5397" y2="122.899" gradientUnits="userSpaceOnUse">
<stop stop-color="#FDFEFF"/>
<stop offset="0.9964" stop-color="#F5F2EC"/>
</linearGradient>
<linearGradient id="paint3_linear_3268_5063" x1="101.364" y1="113.783" x2="101.364" y2="123.777" gradientUnits="userSpaceOnUse">
<stop stop-color="#FDFEFF"/>
<stop offset="0.9964" stop-color="#F5F2EC"/>
</linearGradient>
<linearGradient id="paint4_linear_3268_5063" x1="140.415" y1="112.444" x2="140.415" y2="123.792" gradientUnits="userSpaceOnUse">
<stop stop-color="#FDFEFF"/>
<stop offset="0.9964" stop-color="#F5F2EC"/>
</linearGradient>
<linearGradient id="paint5_linear_3268_5063" x1="109.109" y1="128.357" x2="109.109" y2="136.352" gradientUnits="userSpaceOnUse">
<stop stop-color="#FDFEFF"/>
<stop offset="0.9964" stop-color="#F5F2EC"/>
</linearGradient>
<clipPath id="clip0_3268_5063">
<rect width="230" height="160" fill="white"/>
</clipPath>
</defs>
</svg>
