<svg xmlns="http://www.w3.org/2000/svg" width="233" height="160" fill="none" viewBox="0 0 233 160">
  <g clip-path="url(#a)">
    <path fill="#1E1F28" d="M33.6 126.042 21.425 97.169 44.463 72.66l1.248 1.185-22.225 23.697 11.737 27.813-1.623.686Z"/>
    <path fill="#333334" fill-rule="evenodd" d="M44.444 71.995a.667.667 0 0 1 .478.183l1.249 1.185a.666.666 0 0 1 .027.939l-21.93 23.381 11.57 27.414a.665.665 0 0 1-.355.872l-1.624.686a.665.665 0 0 1-.874-.354L20.81 97.428a.666.666 0 0 1 .128-.715l23.038-24.508a.668.668 0 0 1 .467-.21Zm.046 1.61L22.208 97.31l11.747 27.859.395-.166-11.48-27.2a.666.666 0 0 1 .129-.714l21.773-23.214-.282-.268Z" clip-rule="evenodd"/>
    <path fill="#3C3C3C" d="M22.362 100.287a2.62 2.62 0 0 0 2.623-2.619 2.62 2.62 0 0 0-2.623-2.62 2.62 2.62 0 0 0-2.622 2.62 2.62 2.62 0 0 0 2.622 2.619Z"/>
    <path fill="#4E4E4E" fill-rule="evenodd" d="M22.362 95.715a1.954 1.954 0 1 0 1.955 1.953 1.954 1.954 0 0 0-1.955-1.953Zm-3.29 1.953a3.287 3.287 0 0 1 3.29-3.285 3.287 3.287 0 0 1 3.289 3.285 3.287 3.287 0 0 1-3.29 3.285 3.287 3.287 0 0 1-3.288-3.285Z" clip-rule="evenodd"/>
    <path fill="#3C3C3C" d="M48.584 128.848H25.67c2.31-3.929 6.555-6.61 11.425-6.61a13.25 13.25 0 0 1 11.488 6.61Z"/>
    <path fill="#777" fill-rule="evenodd" d="M58.106 81.478a.668.668 0 0 1 .943.008l3.559 3.617a.666.666 0 1 1-.952.934l-3.559-3.617a.666.666 0 0 1 .009-.942ZM55 83.607a.667.667 0 0 1 .792.511l.686 3.18a.666.666 0 0 1-1.303.281l-.687-3.18a.666.666 0 0 1 .511-.792Zm5.045-5.043a.667.667 0 0 1 .796-.505l3.933.873a.666.666 0 1 1-.29 1.3l-3.933-.873a.666.666 0 0 1-.506-.795Z" clip-rule="evenodd"/>
    <path fill="#4E4E4E" d="m46.148 85.008 15.92-15.902c-4.557 0-7.866-.062-8.99-.062-1.123 0-3.87-1.185-6.617-3.867l-.125-.124a2.98 2.98 0 0 0-4.246 0 2.971 2.971 0 0 0 0 4.24l.125.125c2.747 2.744 3.871 5.488 3.871 6.61 0 1.06 0 4.428.062 8.98Z"/>
    <path fill="#333334" d="M46.273 85.445c.937.935 5.307-1.933 9.802-6.423 4.495-4.49 7.367-8.855 6.43-9.79-.748-.75-3.808.997-7.304 4.053-.811.748-1.685 1.496-2.497 2.37a83.228 83.228 0 0 0-2.373 2.494c-3.059 3.554-4.807 6.548-4.058 7.296Z"/>
    <path fill="#F5F2EC" d="M50.456 78.273c1.373 1.372 3.496 1.372 4.87 0 1.373-1.372 1.373-3.492 0-4.864l-.125-.125c-.812.748-1.686 1.497-2.498 2.37a82.856 82.856 0 0 0-2.372 2.494l.125.125Z"/>
    <g opacity=".6">
      <path fill="#484848" d="M69.685 5H48.958v30.993h20.727V5Z"/>
      <path fill="url(#b)" d="M59.383 27.2a6.49 6.49 0 0 0 6.492-6.485 6.49 6.49 0 0 0-6.492-6.486 6.49 6.49 0 0 0-6.493 6.486 6.49 6.49 0 0 0 6.493 6.486Z"/>
      <path fill="#484848" d="M88.165 35.993H12.498v4.115h75.667v-4.115Z"/>
      <path fill="#484848" fill-rule="evenodd" d="M80.986 38.507c.368 0 .667.299.667.666v3.992a.667.667 0 0 1-1.334 0v-3.992c0-.367.299-.666.667-.666Zm-60.353 0c.368 0 .667.299.667.666v3.992a.667.667 0 0 1-1.334 0v-3.992c0-.367.298-.666.667-.666Z" clip-rule="evenodd"/>
      <path fill="#4E4E4E" d="M34.286 18.906h-4.308v17.087h4.308V18.906Zm2.633.946-2.6 1.837 9.877 13.95 2.6-1.836-9.877-13.95Z"/>
      <path fill="#4E4E4E" d="M30.04 13.667h-4.308v22.325h4.308V13.667Z"/>
      <path fill="#333" d="m69.5 32.544-1.561-4.053c-1.436-3.804-3.372-5.488-5.62-6.05-.187-.061-.312.126-.187.313 1.124 1.496 2.248 3.305 3.372 5.425.312.624.624 1.185.998 1.809l2.997 2.556Zm.685-1.436s-.562-.748 1.498-4.615c1.873-3.492 4.495-4.303 6.743-4.552.25 0 .374.25.187.436a37.87 37.87 0 0 0-3.933 4.865c-.375.56-.812 1.122-1.186 1.683l-3.31 2.183Z"/>
      <path fill="#333" d="m72.868 29.923-.686-4.303c-.625-3.991-2.185-6.111-4.246-7.11-.187-.062-.312.063-.25.25a49.542 49.542 0 0 1 2.186 5.987c.187.686.374 1.31.562 1.933l2.434 3.243Zm-3.619 3.307-.25-6.112c-.25-5.8-2.123-8.98-4.932-10.664-.125-.124-.375.063-.312.25.811 2.494 1.56 5.488 2.122 8.917.25 1.435.5 2.869.812 4.303l2.56 3.305Z"/>
      <path fill="#333" d="m68.688 32.856.624-6.05c.624-5.736 2.747-8.792 5.619-10.289.187-.062.312.063.25.25a56.015 56.015 0 0 0-2.685 8.73 53.197 53.197 0 0 1-1.124 4.24l-2.684 3.119Z"/>
      <path fill="#A6A6A6" d="M72.621 36.161h-5.556a3.422 3.422 0 0 1-3.434-3.43v-5.175h12.361v5.176c0 1.87-1.498 3.43-3.37 3.43Z"/>
    </g>
    <path fill="#3A3A3A" d="M187.931 49.213h-31.653v19.456h31.653V49.213Zm.062 26.191h-18.979v24.508h18.979V75.404Zm28.469-34.299h-22.913v34.236h22.913V41.106Zm0 39.85h-22.913v17.087h22.913V80.955Z" opacity=".5"/>
    <path fill="#3C3C3C" d="M175.882 114.13V86.068c0-.811-.624-1.435-1.373-1.435s-1.374.624-1.374 1.435v28.062"/>
    <path fill="#4F4F4F" d="M170.075 95.484c1.873 1.808 2.622 4.178 2.373 6.548-2.435.249-4.932-.499-6.805-2.245-1.873-1.809-2.623-4.179-2.373-6.548 2.435-.312 4.932.436 6.805 2.245Zm13.61-2.432c-1.873 1.87-4.432 2.681-6.93 2.432-.249-2.494.5-4.989 2.435-6.922 1.873-1.87 4.433-2.681 6.93-2.432.25 2.494-.562 5.051-2.435 6.922Z"/>
    <g filter="url(#c)">
      <path fill="#4F4F4F" d="M182.624 114.879v1.871a.72.72 0 0 1-.749.748.721.721 0 0 0-.749.749l-1.623 10.102h-9.552l-1.624-10.102a.721.721 0 0 0-.749-.749.72.72 0 0 1-.749-.748v-1.871a.72.72 0 0 1 .749-.748h14.172c.5 0 .874.312.874.748Z"/>
    </g>
    <path fill="#4F4F4F" d="M183.685 106.897c-1.873 1.871-4.432 2.681-6.93 2.432-.249-2.495.5-4.989 2.435-6.922 1.873-1.871 4.433-2.682 6.93-2.432.25 2.494-.562 5.051-2.435 6.922Z"/>
    <path fill="#3C3C3C" d="M23.922 154.789h-6.743c-.125 0-.25-.125-.25-.249v-18.022c0-.125.125-.25.25-.25h6.743c.125 0 .25.125.25.25v18.022c0 .124-.125.249-.25.249Zm181.178 0h-6.743c-.125 0-.25-.125-.25-.249v-18.022c0-.125.125-.25.25-.25h6.743c.125 0 .25.125.25.25v18.022c0 .124-.125.249-.25.249Zm-75.044-24.88c-5.682.188-12.424 0-17.357-.062-4.744.187-11.674.25-17.356.062 5.619-3.18 7.617-9.104 7.867-12.971h18.854c.5 3.804 2.435 9.791 7.992 12.971Z"/>
    <path fill="url(#d)" d="M148.287 67.486v48.766c0 1.247-.999 2.182-2.06 2.182h-66.74c-1.187 0-2.06-.997-2.06-2.182V67.486c0-1.185.998-2.183 2.06-2.183h66.615c1.311.063 2.185.998 2.185 2.183Z"/>
    <path fill="#333" d="M148.304 67.378v42.485H77.607V67.378c0-1.158.99-2.15 2.062-2.15h66.49c1.237 0 2.145.992 2.145 2.15Z"/>
    <path fill="#242424" d="M146.217 67.892H79.606v39.971h66.695v-39.97h-.084Z"/>
    <path fill="#333" d="M112.827 115.503c.999 0 1.748-.686 1.748-1.746 0-.998-.687-1.746-1.748-1.746-.999 0-1.748.686-1.748 1.746 0 .998.686 1.746 1.748 1.746Z"/>
    <path fill="url(#e)" d="M89.228 113.633c-.937.25-7.367 1.809-7.367 1.809s1.248 6.672 3.121 7.358c3.684-.499 6.244-1.185 6.244-1.185-1.186-2.307-1.998-7.982-1.998-7.982Z"/>
    <path fill="url(#f)" d="m100.339 114.007 8.366 2.619s-2.372 6.112-4.183 7.047c-3.246-.686-6.493-1.684-6.493-1.684 1.936-3.367 2.31-7.982 2.31-7.982Z"/>
    <path fill="url(#g)" d="M143.106 123.673c-3.121-1.434-6.555-4.178-6.555-4.178l4.932-6.797 6.805 4.926c0 .063-2.997 4.116-5.182 6.049Z"/>
    <g filter="url(#h)">
      <path fill="#3C3C3C" d="M206.351 139.199H16.057a.759.759 0 0 1-.749-.748v-5.613a.76.76 0 0 1 .75-.748H206.35c.437 0 .749.374.749.748v5.613a.758.758 0 0 1-.749.748Z"/>
    </g>
    <g filter="url(#i)">
      <path fill="#3C3C3C" d="M114.574 46.032c7.617 0 13.797-6.111 13.797-13.657 0-7.545-6.18-13.657-13.797-13.657-7.617 0-13.798 6.112-13.798 13.657 0 7.546 6.181 13.657 13.798 13.657Z"/>
    </g>
    <path fill="#4F4F4F" d="M114.574 43.662c6.243 0 11.363-5.051 11.363-11.225 0-6.236-5.057-11.225-11.363-11.225-6.243 0-11.363 5.052-11.363 11.225 0 6.174 5.057 11.225 11.363 11.225Z"/>
    <path fill="#323232" d="M125.938 32.375c0 .187 0 .374-.063.624-.312-5.924-5.244-10.664-11.3-10.664-6.056 0-10.988 4.74-11.363 10.664 0-.187-.062-.374-.062-.624 0-6.173 5.119-11.225 11.363-11.225 6.368 0 11.425 5.052 11.425 11.225Z" opacity=".3"/>
    <path fill="#A6A6A6" d="m114.262 31.816-.874.873-5.307-5.239a.602.602 0 0 1 0-.873c.25-.25.624-.25.874 0l5.307 5.238Zm1.373.935-.874-.873 3.933-3.929c.25-.25.625-.25.875 0a.604.604 0 0 1 0 .873l-3.934 3.93Z"/>
    <path fill="#AAB2C5" d="M114.012 32.25c.375-.373.812-.373 1.124 0 .375.375.375.812 0 1.061-.374.25-.811.374-1.124 0-.249-.312-.249-.81 0-1.06Z"/>
    <path fill="#A6A6A6" d="M117.384 41.355c-.062 0-.187-.062-.187-.124l-2.809-8.42c-.063-.062.062-.186.124-.249.063-.062.188.063.25.125l2.81 8.419c.062.062-.063.187-.125.25h-.063Z"/>
    <path fill="#747474" stroke="#333" stroke-miterlimit="10" stroke-width="2" d="M113.637 31.815c.562-.5 1.436-.5 1.936 0 .561.498.561 1.372 0 1.933a1.377 1.377 0 0 1-1.936 0c-.499-.5-.562-1.372 0-1.933Z"/>
    <path fill="#333" d="M114.95 22.212h-.687c-.124 0-.249.125-.249.25v1.995c0 .125.125.25.249.25h.687c.125 0 .25-.125.25-.25V22.4c0-.124-.063-.187-.25-.187Zm0 17.773h-.687c-.124 0-.249.125-.249.25v1.995c0 .125.125.25.249.25h.687c.125 0 .25-.125.25-.25v-1.995c0-.125-.063-.25-.25-.25Zm-8.367-8.295h-1.997a.269.269 0 0 0-.25.25v.685c0 .125.125.25.25.25h1.997c.125 0 .25-.125.25-.25v-.686c0-.124-.125-.25-.25-.25Zm18.042.062h-1.997a.269.269 0 0 0-.25.25v.685c0 .125.125.25.25.25h1.997c.125 0 .25-.125.25-.25v-.686c0-.124-.125-.249-.25-.249Z"/>
    <path fill="#A6A6A6" d="M158.527 129.221c0-1.559-.874-3.118-2.372-4.24-1.499-1.123-3.559-1.746-5.682-1.746-4.433 0-8.054 2.681-8.054 5.986 0 3.306 3.621 5.987 8.054 5.987 4.495 0 8.054-2.681 8.054-5.987Z"/>
    <path fill="url(#j)" d="M211.531 136.269H10.811a.826.826 0 0 1-.811-.811v-6.111c0-.437.375-.811.812-.811H211.53c.437 0 .812.374.812.811v6.111c.062.437-.312.811-.812.811Z"/>
    <path fill="#4E4E4E" d="M207.305 122.988c0 .499-.187.998-.562 1.309-.312.312-.812.562-1.311.562h-18.605c.5 0 .999-.188 1.311-.562.312-.311.562-.81.562-1.309 0-1.06-.874-1.871-1.873-1.871h18.605c1.061-.062 1.873.811 1.873 1.871Z"/>
    <path fill="#A6A6A6" d="M191.323 122.988c0 .499-.187.998-.562 1.309-.312.312-.812.562-1.311.562h-10.988c.499 0 .999-.188 1.311-.562.312-.311.562-.81.562-1.309 0-1.06-.874-1.871-1.873-1.871h10.988c.999-.062 1.873.811 1.873 1.871Z"/>
    <path fill="#3C3C3C" d="M203.311 126.813c0 .499-.188.997-.562 1.309-.312.312-.812.562-1.311.562h-18.605c.499 0 .999-.188 1.311-.562.312-.312.562-.81.562-1.309 0-1.06-.874-1.871-1.873-1.871h18.605c.999 0 1.873.811 1.873 1.871Z"/>
    <path fill="#A6A6A6" d="M187.266 126.813c0 .499-.187.997-.562 1.309-.312.312-.811.562-1.311.562h-10.988c.5 0 .999-.188 1.311-.562.313-.312.562-.81.562-1.309 0-1.06-.874-1.871-1.873-1.871h10.988c1.062 0 1.873.811 1.873 1.871Z"/>
    <path fill="#3C3C3C" d="M179.522 118.23c0 .873.375 1.683.937 2.245a3.214 3.214 0 0 0 2.248.935h16.606c-.874 0 .625-.374.063-.935a3.208 3.208 0 0 1-.937-2.245c0-1.746-.874-3.181.874-3.181h-16.606c-1.811.063-3.185 1.435-3.185 3.181Z"/>
    <path fill="#A6A6A6" d="M194.008 118.23c0 .873.374 1.683.936 2.245a3.216 3.216 0 0 0 2.248.935h9.365a3.216 3.216 0 0 1-2.248-.935 3.207 3.207 0 0 1-.936-2.245 3.196 3.196 0 0 1 3.184-3.181h-9.365c-1.748.063-3.184 1.435-3.184 3.181Z"/>
    <path fill="#F1F3F9" d="M65.877 120.035h.624c1 0 1.748.873 1.748 1.933 0 1.123-.811 1.934-1.748 1.934h-.624"/>
    <path fill="#4E4E4E" d="M65.877 120.035h.624c1 0 1.748.873 1.748 1.933 0 1.123-.811 1.934-1.748 1.934h-.624"/>
    <path fill="#4E4E4E" d="M61.944 128.58h-5.868c-2.185 0-3.87-1.746-3.87-3.804v-5.987c0-.873.748-1.497 1.56-1.497h10.55c.875 0 1.562.686 1.562 1.497v5.924c-.063 2.183-1.81 3.867-3.934 3.867Z"/>
    <path fill="#4D4D4D" d="M64.38 110.993a.759.759 0 0 0-.75-.748h-1.436a.759.759 0 0 1-.749-.749c0-.436.374-.748.75-.748h.873a.76.76 0 0 0 .75-.748.759.759 0 0 0-.75-.749h-7.055a.76.76 0 0 0-.749.749.76.76 0 0 0 .75.748h3.433a.76.76 0 0 1 .75.748.759.759 0 0 1-.75.749H56.7a.759.759 0 0 0-.75.748c0 .437.375.748.75.748h.5a.76.76 0 0 1 .749.749.759.759 0 0 1-.75.748H56.7a.759.759 0 0 0-.75.748.76.76 0 0 0 .75.749h4.495a.76.76 0 0 0 .75-.749.759.759 0 0 0-.75-.748h-.749a.759.759 0 0 1-.75-.748.76.76 0 0 1 .75-.749h3.247c.374 0 .686-.374.686-.748Z" opacity=".3"/>
    <path fill="#333434" d="M61.57 124.277h-2.373a.427.427 0 0 1-.437-.437v-1.933c0-.125.062-.249.125-.312l.749-.748a.48.48 0 0 1 .312-.125h.874a.48.48 0 0 1 .312.125l.75.748a.478.478 0 0 1 .124.312v1.933c.063.25-.187.437-.437.437Z"/>
    <path fill="#333434" fill-rule="evenodd" d="M61.112 117.292v4.179h-1.334v-4.179h1.334Z" clip-rule="evenodd"/>
  </g>
  <defs>
    <linearGradient id="b" x1="59.383" x2="59.383" y1="14.229" y2="27.201" gradientUnits="userSpaceOnUse">
      <stop stop-color="#585858"/>
      <stop offset="1" stop-color="#3B3B3B"/>
      <stop offset="1" stop-color="#454545"/>
    </linearGradient>
    <linearGradient id="d" x1="112.833" x2="112.833" y1="64.074" y2="119.007" gradientUnits="userSpaceOnUse">
      <stop stop-color="#5C5C5C"/>
      <stop offset=".996" stop-color="#4D4D4D"/>
    </linearGradient>
    <linearGradient id="e" x1="86.54" x2="86.54" y1="113.421" y2="122.899" gradientUnits="userSpaceOnUse">
      <stop stop-color="#A6A6A6"/>
      <stop offset=".996" stop-color="#878787"/>
    </linearGradient>
    <linearGradient id="f" x1="103.364" x2="103.364" y1="113.784" y2="123.777" gradientUnits="userSpaceOnUse">
      <stop stop-color="#A6A6A6"/>
      <stop offset=".996" stop-color="#878787"/>
    </linearGradient>
    <linearGradient id="g" x1="142.416" x2="142.416" y1="112.444" y2="123.792" gradientUnits="userSpaceOnUse">
      <stop stop-color="#A6A6A6"/>
      <stop offset=".996" stop-color="#878787"/>
    </linearGradient>
    <linearGradient id="j" x1="111.109" x2="111.109" y1="128.357" y2="136.352" gradientUnits="userSpaceOnUse">
      <stop stop-color="#5C5C5C"/>
      <stop offset=".996" stop-color="#4D4D4D"/>
    </linearGradient>
    <filter id="c" width="59.795" height="58.218" x="144.829" y="103.131" color-interpolation-filters="sRGB" filterUnits="userSpaceOnUse">
      <feFlood flood-opacity="0" result="BackgroundImageFix"/>
      <feColorMatrix in="SourceAlpha" result="hardAlpha" values="0 0 0 0 0 0 0 0 0 0 0 0 0 0 0 0 0 0 127 0"/>
      <feOffset dy="11"/>
      <feGaussianBlur stdDeviation="11"/>
      <feColorMatrix values="0 0 0 0 0.397708 0 0 0 0 0.47749 0 0 0 0 0.575 0 0 0 0.27 0"/>
      <feBlend in2="BackgroundImageFix" result="effect1_dropShadow_3268_5065"/>
      <feBlend in="SourceGraphic" in2="effect1_dropShadow_3268_5065" result="shape"/>
    </filter>
    <filter id="h" width="223.792" height="39.109" x="-.692" y="120.09" color-interpolation-filters="sRGB" filterUnits="userSpaceOnUse">
      <feFlood flood-opacity="0" result="BackgroundImageFix"/>
      <feColorMatrix in="SourceAlpha" result="hardAlpha" values="0 0 0 0 0 0 0 0 0 0 0 0 0 0 0 0 0 0 127 0"/>
      <feOffset dy="4"/>
      <feGaussianBlur stdDeviation="8"/>
      <feColorMatrix values="0 0 0 0 0 0 0 0 0 0 0 0 0 0 0 0 0 0 0.24 0"/>
      <feBlend in2="BackgroundImageFix" result="effect1_dropShadow_3268_5065"/>
      <feBlend in="SourceGraphic" in2="effect1_dropShadow_3268_5065" result="shape"/>
    </filter>
    <filter id="i" width="71.595" height="71.314" x="78.776" y="7.718" color-interpolation-filters="sRGB" filterUnits="userSpaceOnUse">
      <feFlood flood-opacity="0" result="BackgroundImageFix"/>
      <feColorMatrix in="SourceAlpha" result="hardAlpha" values="0 0 0 0 0 0 0 0 0 0 0 0 0 0 0 0 0 0 127 0"/>
      <feOffset dy="11"/>
      <feGaussianBlur stdDeviation="11"/>
      <feColorMatrix values="0 0 0 0 0 0 0 0 0 0 0 0 0 0 0 0 0 0 0.27 0"/>
      <feBlend in2="BackgroundImageFix" result="effect1_dropShadow_3268_5065"/>
      <feBlend in="SourceGraphic" in2="effect1_dropShadow_3268_5065" result="shape"/>
    </filter>
    <clipPath id="a">
      <path fill="#fff" d="M0 0h233v160H0z"/>
    </clipPath>
  </defs>
</svg>
