<svg xmlns="http://www.w3.org/2000/svg" width="233" height="160" fill="none" viewBox="0 0 233 160">
  <g clip-path="url(#a)">
    <path fill="#fff" d="M33.6 126.042 21.424 97.169 44.463 72.66l1.248 1.185-22.225 23.697 11.737 27.813-1.623.686Z"/>
    <path fill="#EDE5DA" fill-rule="evenodd" d="M44.444 71.995a.667.667 0 0 1 .478.183l1.249 1.185a.666.666 0 0 1 .027.939l-21.93 23.38 11.57 27.415a.665.665 0 0 1-.355.872l-1.624.686a.666.666 0 0 1-.874-.355L20.81 97.428a.666.666 0 0 1 .128-.715l23.038-24.508a.667.667 0 0 1 .467-.21Zm.046 1.61L22.208 97.31l11.747 27.859.394-.166-11.478-27.2a.666.666 0 0 1 .128-.714l21.773-23.214-.282-.268Z" clip-rule="evenodd"/>
    <path fill="#fff" d="M22.362 100.287a2.62 2.62 0 0 0 2.623-2.619 2.62 2.62 0 0 0-2.623-2.62 2.62 2.62 0 0 0-2.622 2.62 2.62 2.62 0 0 0 2.622 2.619Z"/>
    <path fill="#EDE5DA" fill-rule="evenodd" d="M22.362 95.715a1.954 1.954 0 1 0 1.955 1.953 1.954 1.954 0 0 0-1.955-1.953Zm-3.29 1.953a3.287 3.287 0 0 1 3.29-3.286 3.288 3.288 0 0 1 3.289 3.286 3.287 3.287 0 0 1-3.29 3.285 3.287 3.287 0 0 1-3.288-3.285Z" clip-rule="evenodd"/>
    <path fill="#EDE5DA" d="M48.583 128.848H25.671c2.31-3.928 6.555-6.61 11.425-6.61a13.25 13.25 0 0 1 11.487 6.61Z"/>
    <path fill="#BCB9B3" fill-rule="evenodd" d="M58.105 81.478a.668.668 0 0 1 .943.008l3.559 3.617a.666.666 0 1 1-.951.934l-3.559-3.617a.666.666 0 0 1 .008-.942ZM55 83.608a.667.667 0 0 1 .792.51l.686 3.181a.666.666 0 0 1-1.303.28l-.687-3.18a.666.666 0 0 1 .511-.791Zm5.045-5.043a.667.667 0 0 1 .796-.505l3.933.873a.666.666 0 1 1-.29 1.3l-3.933-.873a.666.666 0 0 1-.506-.795Z" clip-rule="evenodd"/>
    <path fill="#EDE5DA" d="m46.148 85.009 15.92-15.902c-4.557 0-7.866-.063-8.99-.063-1.124 0-3.87-1.185-6.618-3.866l-.125-.125a2.98 2.98 0 0 0-4.245 0 2.971 2.971 0 0 0 0 4.24l.125.125c2.747 2.744 3.87 5.488 3.87 6.61 0 1.06 0 4.428.063 8.98Z"/>
    <path fill="#BCB9B3" d="M46.273 85.445c.937.935 5.307-1.933 9.802-6.423 4.495-4.49 7.367-8.855 6.43-9.79-.748-.75-3.808.997-7.304 4.053-.812.748-1.685 1.496-2.497 2.37-.874.872-1.623 1.683-2.373 2.494-3.059 3.554-4.807 6.548-4.058 7.296Z"/>
    <path fill="#fff" d="M50.456 78.273c1.373 1.372 3.496 1.372 4.87 0 1.373-1.372 1.373-3.492 0-4.864l-.125-.125c-.812.748-1.686 1.497-2.498 2.37a82.856 82.856 0 0 0-2.372 2.494l.125.125Z"/>
    <g opacity=".6">
      <path fill="#EBE8E5" d="M69.685 5H48.958v30.993h20.727V5Z"/>
      <path fill="#D9D2C7" d="M59.383 27.201a6.49 6.49 0 0 0 6.492-6.486 6.49 6.49 0 0 0-6.492-6.485 6.49 6.49 0 0 0-6.493 6.485 6.49 6.49 0 0 0 6.493 6.486Z"/>
      <path fill="#BCB9B3" d="M88.165 35.993H12.498v4.115h75.667v-4.115Z"/>
      <path fill="#BCB9B3" fill-rule="evenodd" d="M80.986 38.508c.368 0 .667.299.667.666v3.992a.666.666 0 0 1-1.334 0v-3.991c0-.368.298-.667.667-.667Zm-60.353 0c.368 0 .667.299.667.666v3.992a.666.666 0 0 1-1.334 0v-3.991c0-.368.298-.667.667-.667Z" clip-rule="evenodd"/>
      <path fill="#E4E0DA" d="M34.286 18.907h-4.308v17.086h4.308V18.907Zm2.633.946-2.6 1.836 9.877 13.951 2.6-1.836-9.877-13.951Z"/>
      <path fill="#E4E0DA" d="M30.04 13.667h-4.308v22.325h4.308V13.667Z"/>
      <path fill="#BCB9B3" d="m69.5 31.878-1.561-4.053c-1.436-3.804-3.372-5.488-5.62-6.05-.187-.061-.312.126-.187.313 1.124 1.496 2.248 3.305 3.372 5.425.312.624.624 1.185.998 1.808l2.997 2.557Zm.685-1.436s-.562-.748 1.498-4.615c1.873-3.492 4.495-4.303 6.743-4.552.25 0 .374.25.187.436a37.884 37.884 0 0 0-3.933 4.865c-.375.56-.812 1.122-1.186 1.683l-3.31 2.183Z"/>
      <path fill="#BCB9B3" d="m72.868 29.258-.686-4.303c-.625-3.99-2.185-6.11-4.246-7.109-.187-.062-.312.063-.25.25a49.544 49.544 0 0 1 2.186 5.986c.187.686.374 1.31.562 1.933l2.434 3.243Zm-3.62 3.304-.25-6.11c-.25-5.8-2.122-8.98-4.932-10.665-.125-.124-.374.063-.312.25.812 2.494 1.56 5.488 2.123 8.918.25 1.434.5 2.868.811 4.302l2.56 3.305Z"/>
      <path fill="#BCB9B3" d="m68.687 32.189.624-6.05c.625-5.736 2.747-8.792 5.62-10.289.187-.062.311.063.249.25a56.03 56.03 0 0 0-2.685 8.73 53.197 53.197 0 0 1-1.123 4.24l-2.685 3.119Z"/>
      <g filter="url(#b)">
        <path fill="#EDE5DA" d="M72.621 35.495h-5.556a3.422 3.422 0 0 1-3.434-3.43V26.89h12.361v5.176c0 1.87-1.498 3.43-3.37 3.43Z"/>
      </g>
    </g>
    <path fill="#EDE5DA" d="M187.932 49.213h-31.653v19.456h31.653V49.213Zm.061 26.192h-18.979v24.507h18.979V75.405Zm28.469 5.551H193.55v17.086h22.912V80.956Z" opacity=".5"/>
    <path fill="#BCB9B3" d="M175.883 114.13V86.068c0-.81-.625-1.434-1.374-1.434-.749 0-1.373.623-1.373 1.434v28.062"/>
    <path fill="#E4E0DA" d="M170.075 95.484c1.873 1.809 2.622 4.178 2.372 6.548-2.435.249-4.932-.499-6.805-2.245-1.873-1.808-2.622-4.178-2.372-6.548 2.435-.312 4.932.437 6.805 2.245Zm13.611-2.432c-1.873 1.871-4.433 2.682-6.93 2.432-.25-2.494.499-4.988 2.435-6.921 1.873-1.871 4.432-2.682 6.93-2.433.249 2.495-.562 5.052-2.435 6.922Z"/>
    <g filter="url(#c)">
      <path fill="#EDE5DA" d="M182.624 114.88v1.87a.721.721 0 0 1-.749.749.72.72 0 0 0-.749.748l-1.624 10.103h-9.552l-1.623-10.103a.72.72 0 0 0-.749-.748.721.721 0 0 1-.749-.749v-1.87c0-.437.312-.749.749-.749h14.172c.499 0 .874.312.874.749Z"/>
    </g>
    <path fill="#E4E0DA" d="M183.686 106.897c-1.873 1.871-4.433 2.682-6.93 2.432-.25-2.494.499-4.989 2.435-6.922 1.873-1.871 4.432-2.681 6.93-2.432.249 2.495-.562 5.051-2.435 6.922ZM23.922 154.79h-6.743a.269.269 0 0 1-.25-.25v-18.022c0-.125.125-.249.25-.249h6.743c.124 0 .25.124.25.249v18.022c0 .125-.126.25-.25.25Zm181.177 0h-6.743a.269.269 0 0 1-.25-.25v-18.022c0-.125.125-.249.25-.249h6.743c.125 0 .25.124.25.249v18.022c0 .125-.125.25-.25.25Z"/>
    <path fill="#BCB9B3" d="M130.056 129.909c-5.681.187-12.424 0-17.356-.062-4.745.187-11.675.249-17.356.062 5.619-3.18 7.616-9.105 7.866-12.971h18.855c.499 3.804 2.435 9.791 7.991 12.971Z"/>
    <g filter="url(#d)">
      <path fill="url(#e)" d="M148.287 67.486v48.766c0 1.247-.999 2.183-2.061 2.183h-66.74c-1.186 0-2.06-.998-2.06-2.183V67.486c0-1.184 1-2.182 2.06-2.182h66.615c1.312.062 2.186.998 2.186 2.182Z"/>
    </g>
    <path fill="url(#f)" d="M148.304 67.378v42.485H77.607V67.378c0-1.158.99-2.15 2.063-2.15h66.489c1.237 0 2.145.992 2.145 2.15Z"/>
    <path fill="#fff" d="M146.217 67.892H79.606v39.971h66.695V67.892h-.084Z"/>
    <path fill="#EDE5DA" d="M112.827 115.503c.999 0 1.748-.686 1.748-1.746 0-.998-.686-1.746-1.748-1.746-.999 0-1.748.686-1.748 1.746 0 .998.687 1.746 1.748 1.746Z"/>
    <g filter="url(#g)">
      <path fill="url(#h)" d="M89.227 113.633c-.936.249-7.367 1.808-7.367 1.808s1.249 6.673 3.122 7.359c3.683-.499 6.243-1.185 6.243-1.185-1.186-2.307-1.998-7.982-1.998-7.982Z"/>
    </g>
    <g filter="url(#i)">
      <path fill="url(#j)" d="m100.34 114.007 8.366 2.619s-2.373 6.111-4.183 7.047c-3.247-.686-6.493-1.684-6.493-1.684 1.935-3.367 2.31-7.982 2.31-7.982Z"/>
    </g>
    <g filter="url(#k)">
      <path fill="url(#l)" d="M143.106 123.673c-3.122-1.434-6.556-4.178-6.556-4.178l4.932-6.797 6.805 4.926c0 .063-2.996 4.116-5.181 6.049Z"/>
    </g>
    <path fill="#E4E0DA" d="M206.35 139.199H16.057a.759.759 0 0 1-.749-.748v-5.613a.76.76 0 0 1 .75-.748H206.35c.437 0 .749.374.749.748v5.613a.758.758 0 0 1-.749.748Z"/>
    <path fill="#D2D0CD" d="M114.573 46.032c7.617 0 13.798-6.111 13.798-13.657 0-7.545-6.181-13.657-13.798-13.657-7.616 0-13.797 6.112-13.797 13.657 0 7.546 6.181 13.657 13.797 13.657Z"/>
    <path fill="#fff" d="M114.573 43.663c6.243 0 11.363-5.051 11.363-11.225 0-6.236-5.057-11.225-11.363-11.225-6.243 0-11.363 5.051-11.363 11.225 0 6.173 5.057 11.225 11.363 11.225Z"/>
    <path fill="#F0EBE5" stroke="#DEDEDE" stroke-miterlimit="10" stroke-width="2" d="M125.937 32.376c0 .187 0 .374-.062.623-.313-5.924-5.245-10.663-11.301-10.663-6.055 0-10.988 4.74-11.362 10.663 0-.187-.063-.374-.063-.623 0-6.174 5.12-11.225 11.363-11.225 6.368 0 11.425 5.051 11.425 11.225Z" opacity=".3"/>
    <path fill="#BCB9B3" d="m114.261 31.816-.874.872-5.307-5.238a.604.604 0 0 1 0-.873c.25-.25.625-.25.874 0l5.307 5.238Zm1.374.935-.874-.873 3.933-3.929c.25-.25.624-.25.874 0s.25.624 0 .873l-3.933 3.929Z"/>
    <path fill="#AAB2C5" d="M114.012 32.25c.375-.373.812-.373 1.124 0 .374.375.374.812 0 1.061-.375.25-.812.374-1.124 0-.25-.312-.25-.81 0-1.06Z"/>
    <path fill="#BCB9B3" d="M117.384 41.356c-.062 0-.187-.063-.187-.125l-2.809-8.419c-.063-.062.062-.187.124-.25.063-.061.188.063.25.126l2.81 8.418c.062.063-.063.187-.125.25h-.063Z"/>
    <path fill="#D0D0CD" stroke="#E4E0D9" stroke-miterlimit="10" stroke-width="2" d="M113.637 31.815c.562-.5 1.436-.5 1.935 0 .562.498.562 1.372 0 1.933a1.376 1.376 0 0 1-1.935 0 1.372 1.372 0 0 1 0-1.933Z"/>
    <path fill="#D0D0CD" d="M114.95 22.212h-.687c-.124 0-.249.125-.249.25v1.995c0 .125.125.25.249.25h.687c.125 0 .25-.125.25-.25V22.4c0-.124-.063-.187-.25-.187Zm0 17.773h-.687c-.124 0-.249.125-.249.25v1.995c0 .125.125.25.249.25h.687c.125 0 .25-.125.25-.25v-1.995c0-.125-.063-.25-.25-.25Zm-8.367-8.295h-1.997a.269.269 0 0 0-.25.25v.686c0 .125.125.25.25.25h1.997c.125 0 .25-.125.25-.25v-.686a.269.269 0 0 0-.25-.25Zm18.042.062h-1.998c-.125 0-.25.124-.25.249v.686c0 .125.125.25.25.25h1.998c.124 0 .249-.125.249-.25V32c0-.125-.125-.25-.249-.25Z"/>
    <path fill="#BCB9B3" d="M158.526 129.221c0-1.559-.874-3.118-2.372-4.24-1.498-1.123-3.559-1.746-5.681-1.746-4.433 0-8.054 2.681-8.054 5.986 0 3.306 3.621 5.987 8.054 5.987 4.495 0 8.053-2.681 8.053-5.987Z"/>
    <g filter="url(#m)">
      <path fill="url(#n)" d="M211.531 136.269H10.811a.826.826 0 0 1-.811-.811v-6.111c0-.437.375-.811.812-.811H211.53c.437 0 .811.374.811.811v5.755c0 .237.048.487-.045.705-.114.269-.408.462-.766.462Z"/>
    </g>
    <path fill="#EDE5DA" d="M207.304 122.988c0 .499-.187.998-.562 1.309-.312.312-.811.562-1.311.562h-18.604c.499 0 .999-.188 1.311-.562.312-.311.562-.81.562-1.309 0-1.06-.874-1.871-1.873-1.871h18.604c1.062-.062 1.873.811 1.873 1.871Z"/>
    <path fill="#fff" d="M191.322 122.988c0 .499-.187.998-.562 1.309-.312.312-.812.562-1.311.562h-10.988c.499 0 .999-.188 1.311-.562.312-.311.562-.81.562-1.309 0-1.06-.874-1.871-1.873-1.871h10.988c.999-.062 1.873.811 1.873 1.871Z"/>
    <path fill="#BCB9B3" d="M203.31 126.813c0 .499-.187.997-.562 1.309-.312.312-.811.562-1.311.562h-18.604c.499 0 .998-.188 1.311-.562.312-.312.561-.81.561-1.309 0-1.06-.874-1.871-1.872-1.871h18.604c.999 0 1.873.811 1.873 1.871Z"/>
    <path fill="#fff" d="M187.266 126.813c0 .499-.188.997-.562 1.309-.312.312-.812.562-1.311.562h-10.988c.499 0 .999-.188 1.311-.562.312-.312.562-.81.562-1.309 0-1.06-.874-1.871-1.873-1.871h10.988c1.061 0 1.873.811 1.873 1.871Z"/>
    <path fill="#BCB9B3" d="M179.523 118.229c0 .873.375 1.684.936 2.245a3.217 3.217 0 0 0 2.248.936h16.607c-.874 0 .624-.375.062-.936a3.206 3.206 0 0 1-.936-2.245c0-1.746-.874-3.18.874-3.18h-16.607c-1.811.062-3.184 1.434-3.184 3.18Z"/>
    <path fill="#EDE5DA" d="M194.007 118.229c0 .873.374 1.684.936 2.245a3.217 3.217 0 0 0 2.248.936h9.365a3.217 3.217 0 0 1-2.248-.936 3.206 3.206 0 0 1-.936-2.245 3.195 3.195 0 0 1 3.184-3.18h-9.365c-1.748.062-3.184 1.434-3.184 3.18Z"/>
    <path fill="#F1F3F9" d="M65.876 119.369h.625c.999 0 1.748.873 1.748 1.933 0 1.123-.812 1.934-1.748 1.934h-.625"/>
    <path stroke="#EDE5DA" stroke-linejoin="round" stroke-miterlimit="10" stroke-width="2" d="M65.876 119.369h.625c.999 0 1.748.873 1.748 1.933 0 1.123-.812 1.934-1.748 1.934h-.625"/>
    <path fill="#EDE5DA" d="M61.944 127.913h-5.869c-2.185 0-3.87-1.746-3.87-3.804v-5.986c0-.873.749-1.497 1.56-1.497h10.551c.874 0 1.561.686 1.561 1.497v5.924c-.062 2.182-1.81 3.866-3.933 3.866Zm2.436-17.586a.759.759 0 0 0-.75-.748h-1.436a.759.759 0 0 1-.75-.749.76.76 0 0 1 .75-.748h.874a.76.76 0 0 0 .75-.748.759.759 0 0 0-.75-.749h-7.055a.76.76 0 0 0-.749.749.76.76 0 0 0 .75.748h3.433a.76.76 0 0 1 .75.748.759.759 0 0 1-.75.749H56.7a.759.759 0 0 0-.75.748c0 .437.375.748.75.748h.5a.76.76 0 0 1 .749.749.759.759 0 0 1-.75.748H56.7a.759.759 0 0 0-.75.748.76.76 0 0 0 .75.749h4.495a.76.76 0 0 0 .75-.749.759.759 0 0 0-.75-.748h-.749a.759.759 0 0 1-.75-.748.76.76 0 0 1 .75-.749h3.247c.374 0 .686-.374.686-.748Z"/>
    <path fill="#BCB9B3" d="M61.569 123.61h-2.373a.426.426 0 0 1-.437-.436v-1.933c0-.125.063-.25.125-.312l.75-.749a.479.479 0 0 1 .312-.124h.873c.125 0 .25.062.313.124l.749.749a.475.475 0 0 1 .125.312v1.933c.062.249-.188.436-.437.436Z"/>
    <path fill="#BCB9B3" fill-rule="evenodd" d="M61.111 116.626v4.178h-1.334v-4.178h1.334Z" clip-rule="evenodd"/>
  </g>
  <defs>
    <filter id="b" width="56.361" height="52.606" x="41.631" y="15.89" color-interpolation-filters="sRGB" filterUnits="userSpaceOnUse">
      <feFlood flood-opacity="0" result="BackgroundImageFix"/>
      <feColorMatrix in="SourceAlpha" result="hardAlpha" values="0 0 0 0 0 0 0 0 0 0 0 0 0 0 0 0 0 0 127 0"/>
      <feOffset dy="11"/>
      <feGaussianBlur stdDeviation="11"/>
      <feColorMatrix values="0 0 0 0 0.397708 0 0 0 0 0.47749 0 0 0 0 0.575 0 0 0 0.27 0"/>
      <feBlend in2="BackgroundImageFix" result="effect1_dropShadow_3268_5063"/>
      <feBlend in="SourceGraphic" in2="effect1_dropShadow_3268_5063" result="shape"/>
    </filter>
    <filter id="c" width="59.795" height="58.218" x="144.829" y="103.131" color-interpolation-filters="sRGB" filterUnits="userSpaceOnUse">
      <feFlood flood-opacity="0" result="BackgroundImageFix"/>
      <feColorMatrix in="SourceAlpha" result="hardAlpha" values="0 0 0 0 0 0 0 0 0 0 0 0 0 0 0 0 0 0 127 0"/>
      <feOffset dy="11"/>
      <feGaussianBlur stdDeviation="11"/>
      <feColorMatrix values="0 0 0 0 0.397708 0 0 0 0 0.47749 0 0 0 0 0.575 0 0 0 0.27 0"/>
      <feBlend in2="BackgroundImageFix" result="effect1_dropShadow_3268_5063"/>
      <feBlend in="SourceGraphic" in2="effect1_dropShadow_3268_5063" result="shape"/>
    </filter>
    <filter id="d" width="114.86" height="97.131" x="55.426" y="54.304" color-interpolation-filters="sRGB" filterUnits="userSpaceOnUse">
      <feFlood flood-opacity="0" result="BackgroundImageFix"/>
      <feColorMatrix in="SourceAlpha" result="hardAlpha" values="0 0 0 0 0 0 0 0 0 0 0 0 0 0 0 0 0 0 127 0"/>
      <feOffset dy="11"/>
      <feGaussianBlur stdDeviation="11"/>
      <feColorMatrix values="0 0 0 0 0.576471 0 0 0 0 0.501961 0 0 0 0 0.396078 0 0 0 0.37 0"/>
      <feBlend in2="BackgroundImageFix" result="effect1_dropShadow_3268_5063"/>
      <feBlend in="SourceGraphic" in2="effect1_dropShadow_3268_5063" result="shape"/>
    </filter>
    <filter id="g" width="49.365" height="49.167" x="61.86" y="97.633" color-interpolation-filters="sRGB" filterUnits="userSpaceOnUse">
      <feFlood flood-opacity="0" result="BackgroundImageFix"/>
      <feColorMatrix in="SourceAlpha" result="hardAlpha" values="0 0 0 0 0 0 0 0 0 0 0 0 0 0 0 0 0 0 127 0"/>
      <feOffset dy="4"/>
      <feGaussianBlur stdDeviation="10"/>
      <feColorMatrix values="0 0 0 0 0.576471 0 0 0 0 0.501961 0 0 0 0 0.396078 0 0 0 0.25 0"/>
      <feBlend in2="BackgroundImageFix" result="effect1_dropShadow_3268_5063"/>
      <feBlend in="SourceGraphic" in2="effect1_dropShadow_3268_5063" result="shape"/>
    </filter>
    <filter id="i" width="50.676" height="49.666" x="78.03" y="98.007" color-interpolation-filters="sRGB" filterUnits="userSpaceOnUse">
      <feFlood flood-opacity="0" result="BackgroundImageFix"/>
      <feColorMatrix in="SourceAlpha" result="hardAlpha" values="0 0 0 0 0 0 0 0 0 0 0 0 0 0 0 0 0 0 127 0"/>
      <feOffset dy="4"/>
      <feGaussianBlur stdDeviation="10"/>
      <feColorMatrix values="0 0 0 0 0.576471 0 0 0 0 0.501961 0 0 0 0 0.396078 0 0 0 0.25 0"/>
      <feBlend in2="BackgroundImageFix" result="effect1_dropShadow_3268_5063"/>
      <feBlend in="SourceGraphic" in2="effect1_dropShadow_3268_5063" result="shape"/>
    </filter>
    <filter id="k" width="51.737" height="50.976" x="116.55" y="96.698" color-interpolation-filters="sRGB" filterUnits="userSpaceOnUse">
      <feFlood flood-opacity="0" result="BackgroundImageFix"/>
      <feColorMatrix in="SourceAlpha" result="hardAlpha" values="0 0 0 0 0 0 0 0 0 0 0 0 0 0 0 0 0 0 127 0"/>
      <feOffset dy="4"/>
      <feGaussianBlur stdDeviation="10"/>
      <feColorMatrix values="0 0 0 0 0.576471 0 0 0 0 0.501961 0 0 0 0 0.396078 0 0 0 0.25 0"/>
      <feBlend in2="BackgroundImageFix" result="effect1_dropShadow_3268_5063"/>
      <feBlend in="SourceGraphic" in2="effect1_dropShadow_3268_5063" result="shape"/>
    </filter>
    <filter id="m" width="234.354" height="39.733" x="-6" y="120.536" color-interpolation-filters="sRGB" filterUnits="userSpaceOnUse">
      <feFlood flood-opacity="0" result="BackgroundImageFix"/>
      <feColorMatrix in="SourceAlpha" result="hardAlpha" values="0 0 0 0 0 0 0 0 0 0 0 0 0 0 0 0 0 0 127 0"/>
      <feOffset dy="8"/>
      <feGaussianBlur stdDeviation="8"/>
      <feColorMatrix values="0 0 0 0 0.576471 0 0 0 0 0.501961 0 0 0 0 0.396078 0 0 0 0.24 0"/>
      <feBlend in2="BackgroundImageFix" result="effect1_dropShadow_3268_5063"/>
      <feBlend in="SourceGraphic" in2="effect1_dropShadow_3268_5063" result="shape"/>
    </filter>
    <linearGradient id="e" x1="112.833" x2="112.833" y1="64.075" y2="119.008" gradientUnits="userSpaceOnUse">
      <stop stop-color="#FDFEFF"/>
      <stop offset=".996" stop-color="#F5F2EC"/>
    </linearGradient>
    <linearGradient id="f" x1="145.499" x2="79.764" y1="65.229" y2="65.591" gradientUnits="userSpaceOnUse">
      <stop stop-color="#606060"/>
      <stop offset="1" stop-color="#7B7B7B"/>
    </linearGradient>
    <linearGradient id="h" x1="86.54" x2="86.54" y1="113.421" y2="122.899" gradientUnits="userSpaceOnUse">
      <stop stop-color="#FDFEFF"/>
      <stop offset=".996" stop-color="#F5F2EC"/>
    </linearGradient>
    <linearGradient id="j" x1="103.364" x2="103.364" y1="113.783" y2="123.777" gradientUnits="userSpaceOnUse">
      <stop stop-color="#FDFEFF"/>
      <stop offset=".996" stop-color="#F5F2EC"/>
    </linearGradient>
    <linearGradient id="l" x1="142.415" x2="142.415" y1="112.444" y2="123.792" gradientUnits="userSpaceOnUse">
      <stop stop-color="#FDFEFF"/>
      <stop offset=".996" stop-color="#F5F2EC"/>
    </linearGradient>
    <linearGradient id="n" x1="111.109" x2="111.109" y1="128.357" y2="136.352" gradientUnits="userSpaceOnUse">
      <stop stop-color="#FDFEFF"/>
      <stop offset=".996" stop-color="#F5F2EC"/>
    </linearGradient>
    <clipPath id="a">
      <path fill="#fff" d="M0 0h233v160H0z"/>
    </clipPath>
  </defs>
</svg>
