<svg width="32" height="32" viewBox="0 0 32 32" fill="none" xmlns="http://www.w3.org/2000/svg">
<path d="M9 19H11.6631V6H9V19Z" fill="#212121"/>
<path d="M17.0224 19V14.5216H18.2921C19.7212 14.5216 20.8618 14.1197 21.7138 13.3159C22.5713 12.506 23 11.4484 23 10.143C23 7.38099 21.5104 6 18.5312 6H14.3592V19H17.0224ZM17.0224 12.3006V8.24826H18.0695C19.4876 8.24826 20.1967 8.91609 20.1967 10.2517C20.1967 11.6176 19.4876 12.3006 18.0695 12.3006H17.0224Z" fill="#212121"/>
<path d="M5 5C5 3.34315 6.34315 2 8 2H24C25.6569 2 27 3.34315 27 5V19C27 20.6569 25.6569 22 24 22H16.75V24.178C17.5608 24.4843 18.1903 25.1601 18.433 26H26C26.5523 26 27 26.4477 27 27C27 27.5523 26.5523 28 26 28H18.2548C17.8018 28.9136 16.8597 29.5417 15.7708 29.5417C14.682 29.5417 13.7398 28.9136 13.2869 28H6C5.44772 28 5 27.5523 5 27C5 26.4477 5.44772 26 6 26H13.1086C13.3472 25.1746 13.9593 24.5076 14.75 24.1941V22H8C6.34315 22 5 20.6569 5 19V5ZM8 4C7.44772 4 7 4.44772 7 5V19C7 19.5523 7.44772 20 8 20H24C24.5523 20 25 19.5523 25 19V5C25 4.44772 24.5523 4 24 4H8Z" fill="#212121"/>
</svg>
