<svg width="24" height="24" viewBox="0 0 24 24" fill="none" xmlns="http://www.w3.org/2000/svg">
<path d="M12.7303 9.36193V6.55649H13.4782C14.4912 6.55649 14.9976 7.01883 14.9976 7.94351C14.9976 8.88912 14.4912 9.36193 13.4782 9.36193H12.7303Z" fill="#212121"/>
<path d="M7 2.25C5.48122 2.25 4.25 3.48122 4.25 5V14C4.25 15.5188 5.48122 16.75 7 16.75H11.25V18.1454C10.8352 18.3133 10.4895 18.6164 10.2676 19H4.75C4.33579 19 4 19.3358 4 19.75C4 20.1642 4.33579 20.5 4.75 20.5H10.063C10.285 21.3626 11.0681 22 12 22C12.9319 22 13.715 21.3626 13.937 20.5L19.25 20.5C19.6642 20.5 20 20.1642 20 19.75C20 19.3358 19.6642 19 19.25 19L13.7324 19C13.5105 18.6164 13.1648 18.3133 12.75 18.1454V16.75H17C18.5188 16.75 19.75 15.5188 19.75 14V5C19.75 3.48122 18.5188 2.25 17 2.25H7ZM7 14V5H8.90224V14H7ZM12.7303 14H10.828V5H13.808C15.936 5 17 5.95607 17 7.8682C17 8.77197 16.6938 9.50418 16.0813 10.0649C15.4727 10.6213 14.658 10.8996 13.6372 10.8996H12.7303V14Z" fill="#212121"/>
</svg>
