<svg width="24" height="24" viewBox="0 0 24 24" fill="none" xmlns="http://www.w3.org/2000/svg">
<path d="M7 14H8.90224V5H7V14Z" fill="#212121"/>
<path d="M12.7303 14V10.8996H13.6372C14.658 10.8996 15.4727 10.6213 16.0813 10.0649C16.6938 9.50418 17 8.77197 17 7.8682C17 5.95607 15.936 5 13.808 5H10.828V14H12.7303ZM12.7303 9.36193V6.55649H13.4782C14.4912 6.55649 14.9976 7.01883 14.9976 7.94351C14.9976 8.88912 14.4912 9.36193 13.4782 9.36193H12.7303Z" fill="#212121"/>
<path d="M4.25 5C4.25 3.48122 5.48122 2.25 7 2.25H17C18.5188 2.25 19.75 3.48122 19.75 5V14C19.75 15.5188 18.5188 16.75 17 16.75H12.75V18.1454C13.1648 18.3133 13.5105 18.6164 13.7324 19L19.25 19C19.6642 19 20 19.3358 20 19.75C20 20.1642 19.6642 20.5 19.25 20.5L13.937 20.5C13.715 21.3626 12.9319 22 12 22C11.0681 22 10.285 21.3626 10.063 20.5H4.75C4.33579 20.5 4 20.1642 4 19.75C4 19.3358 4.33579 19 4.75 19H10.2676C10.4895 18.6164 10.8352 18.3133 11.25 18.1454V16.75H7C5.48122 16.75 4.25 15.5188 4.25 14V5ZM7 3.75C6.30964 3.75 5.75 4.30964 5.75 5V14C5.75 14.6904 6.30964 15.25 7 15.25H17C17.6904 15.25 18.25 14.6904 18.25 14V5C18.25 4.30964 17.6904 3.75 17 3.75H7Z" fill="#212121"/>
</svg>
