<svg width="32" height="32" viewBox="0 0 32 32" fill="none" xmlns="http://www.w3.org/2000/svg">
<path d="M17.0224 12.3006V8.24826H18.0695C19.4876 8.24826 20.1967 8.91609 20.1967 10.2517C20.1967 11.6176 19.4876 12.3006 18.0695 12.3006H17.0224Z" fill="#212121"/>
<path d="M8 2C6.34315 2 5 3.34315 5 5V19C5 20.6569 6.34315 22 8 22H14.75V24.1941C13.9593 24.5076 13.3472 25.1746 13.1086 26H6C5.44772 26 5 26.4477 5 27C5 27.5523 5.44772 28 6 28H13.2869C13.7398 28.9136 14.682 29.5417 15.7708 29.5417C16.8597 29.5417 17.8018 28.9136 18.2548 28H26C26.5523 28 27 27.5523 27 27C27 26.4477 26.5523 26 26 26H18.433C18.1903 25.1601 17.5608 24.4843 16.75 24.178V22H24C25.6569 22 27 20.6569 27 19V5C27 3.34315 25.6569 2 24 2H8ZM9 19V6H11.6631V19H9ZM17.0224 19H14.3592V6H18.5312C21.5104 6 23 7.38099 23 10.143C23 11.4484 22.5713 12.506 21.7138 13.3159C20.8618 14.1197 19.7212 14.5216 18.2921 14.5216H17.0224V19Z" fill="#212121"/>
</svg>
