<svg width="28" height="28" viewBox="0 0 28 28" fill="none" xmlns="http://www.w3.org/2000/svg">
<path d="M8.0625 16.0625H10.3214V5.375H8.0625V16.0625Z" fill="#212121"/>
<path d="M14.8672 16.0625V12.3808H15.9442C17.1564 12.3808 18.1238 12.0503 18.8465 11.3895C19.5738 10.7237 19.9375 9.85421 19.9375 8.78099C19.9375 6.51033 18.674 5.375 16.147 5.375H12.6083V16.0625H14.8672ZM14.8672 10.5548V7.22333H15.7554C16.9583 7.22333 17.5597 7.77236 17.5597 8.87042C17.5597 9.99333 16.9583 10.5548 15.7554 10.5548H14.8672Z" fill="#212121"/>
<path d="M4.9375 5C4.9375 3.48122 6.16872 2.25 7.6875 2.25H20.3125C21.8313 2.25 23.0625 3.48122 23.0625 5V16.4375C23.0625 17.9563 21.8313 19.1875 20.3125 19.1875H14.75V20.9334C15.4791 21.1758 16.0512 21.7621 16.274 22.5H22.25C22.6642 22.5 23 22.8358 23 23.25C23 23.6642 22.6642 24 22.25 24H16.2324C15.9005 24.9115 15.0263 25.5625 14 25.5625C12.9737 25.5625 12.0995 24.9115 11.7676 24H5.75C5.33579 24 5 23.6642 5 23.25C5 22.8358 5.33579 22.5 5.75 22.5H11.726C11.9488 21.7621 12.5209 21.1758 13.25 20.9334V19.1875H7.6875C6.16872 19.1875 4.9375 17.9563 4.9375 16.4375V5ZM7.6875 3.75C6.99714 3.75 6.4375 4.30964 6.4375 5V16.4375C6.4375 17.1279 6.99714 17.6875 7.6875 17.6875H20.3125C21.0029 17.6875 21.5625 17.1279 21.5625 16.4375V5C21.5625 4.30964 21.0029 3.75 20.3125 3.75H7.6875Z" fill="#212121"/>
</svg>
