<svg width="28" height="28" viewBox="0 0 28 28" fill="none" xmlns="http://www.w3.org/2000/svg">
<path d="M14.8672 10.5548V7.22333H15.7554C16.9583 7.22333 17.5597 7.77236 17.5597 8.87042C17.5597 9.99333 16.9583 10.5548 15.7554 10.5548H14.8672Z" fill="#212121"/>
<path d="M7.6875 2.25C6.16872 2.25 4.9375 3.48122 4.9375 5V16.4375C4.9375 17.9563 6.16872 19.1875 7.6875 19.1875H13.25V20.9334C12.5209 21.1758 11.9488 21.7621 11.726 22.5H5.75C5.33579 22.5 5 22.8358 5 23.25C5 23.6642 5.33579 24 5.75 24H11.7676C12.0995 24.9115 12.9737 25.5625 14 25.5625C15.0263 25.5625 15.9005 24.9115 16.2324 24H22.25C22.6642 24 23 23.6642 23 23.25C23 22.8358 22.6642 22.5 22.25 22.5H16.274C16.0512 21.7621 15.4791 21.1758 14.75 20.9334V19.1875H20.3125C21.8313 19.1875 23.0625 17.9563 23.0625 16.4375V5C23.0625 3.48122 21.8313 2.25 20.3125 2.25H7.6875ZM8.0625 16.0625V5.375H10.3214V16.0625H8.0625ZM14.8672 16.0625H12.6083V5.375H16.147C18.674 5.375 19.9375 6.51033 19.9375 8.78099C19.9375 9.85421 19.5738 10.7237 18.8465 11.3895C18.1238 12.0503 17.1564 12.3808 15.9442 12.3808H14.8672V16.0625Z" fill="#212121"/>
</svg>
