<svg width="20" height="20" viewBox="0 0 20 20" fill="none" xmlns="http://www.w3.org/2000/svg">
<path d="M5.5 12H7.23486V4.29785H5.5V12Z" fill="#212121"/>
<path d="M10.7261 12V9.34668H11.5532C12.4842 9.34668 13.2272 9.10856 13.7822 8.63232C14.3408 8.15251 14.6201 7.52588 14.6201 6.75244C14.6201 5.11605 13.6497 4.29785 11.709 4.29785H8.99121V12H10.7261ZM10.7261 8.03076V5.62988H11.4082C12.332 5.62988 12.7939 6.02555 12.7939 6.81689C12.7939 7.62614 12.332 8.03076 11.4082 8.03076H10.7261Z" fill="#212121"/>
<path d="M5.5 2C4.39543 2 3.5 2.89543 3.5 4V12C3.5 13.1046 4.39543 14 5.5 14H9.5V15.0854C9.07379 15.236 8.736 15.5738 8.58535 16H4C3.72386 16 3.5 16.2239 3.5 16.5C3.5 16.7761 3.72386 17 4 17H8.58535C8.79127 17.5826 9.34689 18 10 18C10.6531 18 11.2087 17.5826 11.4146 17L16 17C16.2761 17 16.5 16.7761 16.5 16.5C16.5 16.2239 16.2761 16 16 16H11.4146C11.264 15.5738 10.9262 15.236 10.5 15.0854V14H14.5C15.6046 14 16.5 13.1046 16.5 12V4C16.5 2.89543 15.6046 2 14.5 2H5.5ZM14.5 3C15.0523 3 15.5 3.44772 15.5 4V12C15.5 12.5523 15.0523 13 14.5 13H5.5C4.94772 13 4.5 12.5523 4.5 12V4C4.5 3.44772 4.94772 3 5.5 3H14.5Z" fill="#212121"/>
</svg>
