<svg width="24" height="24" viewBox="0 0 24 24" fill="none" xmlns="http://www.w3.org/2000/svg">
<path d="M20.5 12C20.5 7.30558 16.6944 3.5 12 3.5C7.30558 3.5 3.5 7.30558 3.5 12C3.5 16.6944 7.30558 20.5 12 20.5C16.6944 20.5 20.5 16.6944 20.5 12ZM12 2C17.5228 2 22 6.47715 22 12C22 17.5228 17.5228 22 12 22C6.47715 22 2 17.5228 2 12C2 6.47715 6.47715 2 12 2ZM16.5 12C16.5 9.51472 14.4853 7.5 12 7.5C11.5858 7.5 11.25 7.16421 11.25 6.75C11.25 6.33579 11.5858 6 12 6C15.3137 6 18 8.68629 18 12C18 13.2738 17.6022 14.4569 16.9241 15.4291C16.6872 15.7688 16.2196 15.8521 15.8799 15.6151C15.5402 15.3782 15.4569 14.9107 15.6938 14.5709C16.2021 13.8423 16.5 12.9571 16.5 12Z" fill="#212121"/>
</svg>
