<svg width="24" height="24" viewBox="0 0 24 24" fill="none" xmlns="http://www.w3.org/2000/svg">
<path d="M20.3329 6.46981C18.5426 3.77721 15.479 2 12 2C8.52099 2 5.45739 3.77721 3.66712 6.46981C2.61375 8.05409 2 9.95651 2 12C2 14.0435 2.61375 15.9459 3.66712 17.5302C5.45739 20.2228 8.52099 22 12 22C15.479 22 18.5426 20.2228 20.3329 17.5302C21.3863 15.9459 22 14.0435 22 12C22 9.95651 21.3863 8.05409 20.3329 6.46981ZM17 12C17 9.23858 14.7614 7 12 7C11.5858 7 11.25 6.66421 11.25 6.25C11.25 5.83579 11.5858 5.5 12 5.5C15.5899 5.5 18.5 8.41015 18.5 12C18.5 13.2416 18.1512 14.4039 17.5458 15.3919C17.3294 15.745 16.8676 15.8559 16.5145 15.6395C16.1613 15.4231 16.0504 14.9613 16.2668 14.6081C16.7318 13.8493 17 12.9571 17 12Z" fill="#212121"/>
</svg>
