<svg width="28" height="28" viewBox="0 0 28 28" fill="none" xmlns="http://www.w3.org/2000/svg">
<path d="M17.1578 11.3333L17.468 11.3333C17.4815 11.334 17.6384 11.3416 17.8299 11.4169C18.0428 11.5007 18.278 11.6582 18.4341 11.9746C18.5952 12.3012 18.9766 12.4281 19.286 12.2581C19.5954 12.088 19.7156 11.6855 19.5545 11.3589C18.8842 9.99977 17.5094 9.99999 17.4735 10L17.1578 10C15.5882 10.0001 14.3158 11.3432 14.3158 13V15C14.3158 16.6569 15.5882 18 17.1579 18C18.7275 18 20 16.6569 20 15V14.3334C20 13.9652 19.7172 13.6667 19.3684 13.6667H17.4737C17.1249 13.6667 16.8421 13.9652 16.8421 14.3334C16.8421 14.7016 17.1249 15 17.4737 15H18.7368C18.7368 15.9205 18.0299 16.6667 17.1579 16.6667C16.2859 16.6667 15.579 15.9205 15.579 15V13C15.579 12.0795 16.2858 11.3334 17.1578 11.3333Z" fill="#212121"/>
<path d="M8.32067 10.584C8.36018 10.2504 8.62885 10 8.94737 10H12.4214C12.7702 10 13.0529 10.2985 13.0529 10.6667C13.0529 11.0348 12.7702 11.3333 12.4214 11.3333H9.50492L9.35483 12.6007L10.5317 12.4972C11.8889 12.3778 13.0529 13.5083 13.0529 14.9459V15.2357C13.0529 16.7623 11.8805 17.9999 10.4341 17.9999C9.5469 17.9999 8.9386 17.571 8.56624 17.1499C8.38331 16.9431 8.25594 16.7376 8.17356 16.5829C8.13206 16.505 8.10108 16.4383 8.07948 16.3883C8.06866 16.3632 8.06013 16.3422 8.05375 16.326L8.04576 16.3051L8.04293 16.2974L8.0418 16.2943L8.0413 16.293L8.04086 16.2917C7.91795 15.9471 8.08296 15.5626 8.4094 15.4329C8.73398 15.3039 9.09607 15.4757 9.221 15.8163C9.221 15.8163 9.22451 15.8252 9.22877 15.835C9.23733 15.8549 9.25244 15.8878 9.27467 15.9296C9.31975 16.0142 9.39038 16.1279 9.48964 16.2401C9.68164 16.4573 9.97445 16.6666 10.4341 16.6666C11.1828 16.6666 11.7898 16.0259 11.7898 15.2357V14.9459C11.7898 14.2884 11.2574 13.7713 10.6366 13.8259L8.68403 13.9976C8.49435 14.0143 8.30766 13.9398 8.17588 13.7949C8.0441 13.6499 7.98127 13.45 8.00488 13.2506L8.32067 10.584Z" fill="#212121"/>
<path d="M14 24C18.8379 24 22.8734 20.5645 23.8 16H25C25.5523 16 26 15.5523 26 15V13C26 12.4477 25.5523 12 25 12H23.8C22.8734 7.43552 18.8379 4 14 4C9.16208 4 5.12658 7.43552 4.20004 12H3C2.44772 12 2 12.4477 2 13V15C2 15.5523 2.44772 16 3 16H4.20004C5.12658 20.5645 9.16208 24 14 24ZM14 22.5C9.30558 22.5 5.5 18.6944 5.5 14C5.5 9.30558 9.30558 5.5 14 5.5C18.6944 5.5 22.5 9.30558 22.5 14C22.5 18.6944 18.6944 22.5 14 22.5Z" fill="#212121"/>
</svg>
