<svg width="24" height="24" viewBox="0 0 24 24" fill="none" xmlns="http://www.w3.org/2000/svg">
<path d="M7.78948 9C7.52404 9 7.30015 9.18777 7.26723 9.43798L7.00407 11.438C6.98439 11.5875 7.03675 11.7374 7.14657 11.8462C7.25639 11.9549 7.41196 12.0107 7.57002 11.9982L9.1972 11.8694C9.71449 11.8285 10.1581 12.2163 10.1581 12.7094V12.9267C10.1581 13.5194 9.65236 13.9999 9.02845 13.9999C8.64537 13.9999 8.40137 13.8429 8.24136 13.6801C8.15865 13.5959 8.09979 13.5107 8.06222 13.4472C8.0437 13.4159 8.03111 13.3911 8.02397 13.3763L8.02058 13.3691L8.0175 13.3623C7.91339 13.1068 7.61165 12.9779 7.34117 13.0747C7.06913 13.172 6.93163 13.4604 7.03405 13.7188L7.03442 13.7197L7.03483 13.7207L7.03577 13.7231L7.03813 13.7288L7.04479 13.7445C7.05011 13.7567 7.05722 13.7724 7.06624 13.7912C7.08423 13.8287 7.11005 13.8788 7.14463 13.9372C7.21328 14.0532 7.31943 14.2073 7.47186 14.3624C7.78217 14.6783 8.28909 14.9999 9.02845 14.9999C10.2337 14.9999 11.2108 14.0717 11.2108 12.9267V12.7094C11.2108 11.6313 10.2408 10.7834 9.10979 10.8729L8.12903 10.9505L8.2541 9.99999H10.6845C10.9751 9.99999 11.2108 9.77613 11.2108 9.49999C11.2108 9.22385 10.9751 9 10.6845 9H7.78948Z" fill="#212121"/>
<path d="M14.89 9.99999L14.6315 10C13.9049 10 13.3158 10.5597 13.3158 11.25V12.75C13.3158 13.4404 13.9049 14 14.6316 14C15.3583 14 15.9474 13.4404 15.9474 12.75H14.8947C14.6041 12.75 14.3684 12.5262 14.3684 12.25C14.3684 11.9739 14.6041 11.75 14.8947 11.75H16.4737C16.7644 11.75 17 11.9739 17 12.25V12.75C17 13.9927 15.9396 15 14.6316 15C13.3235 15 12.2632 13.9927 12.2632 12.75V11.25C12.2632 10.0074 13.3235 9.00006 14.6315 9.00001L14.8946 9C14.9245 9 16.0701 8.99983 16.6288 10.0192C16.763 10.2641 16.6628 10.566 16.405 10.6935C16.1472 10.8211 15.8293 10.7259 15.6951 10.481C15.565 10.2436 15.369 10.1256 15.1916 10.0627C15.032 10.0062 14.9012 10.0005 14.89 9.99999Z" fill="#212121"/>
<path d="M12 20.0001C15.7277 20.0001 18.86 17.4505 19.748 14H21C21.5523 14 22 13.5523 22 13V11C22 10.4477 21.5523 10 21 10H19.748C18.8599 6.54954 15.7277 4 12 4C8.27234 4 5.14014 6.54954 4.25204 10H3C2.44772 10 2 10.4477 2 11V13C2 13.5523 2.44772 14 3 14H4.25203C5.1401 17.4505 8.27232 20.0001 12 20.0001ZM18.5001 12C18.5001 15.5899 15.5899 18.5001 12 18.5001C8.41016 18.5001 5.5 15.5899 5.5 12C5.5 8.41016 8.41016 5.5 12 5.5C15.5899 5.5 18.5001 8.41016 18.5001 12Z" fill="#212121"/>
</svg>
