<svg width="20" height="20" viewBox="0 0 20 20" fill="none" xmlns="http://www.w3.org/2000/svg">
<path d="M7.47369 8C7.31443 8 7.18009 8.12518 7.16034 8.29198L7.00244 9.6253C6.99064 9.72498 7.02205 9.82496 7.08794 9.89744C7.15383 9.96992 7.24718 10.0072 7.34201 9.99882L8.31832 9.91295C8.6287 9.88565 8.89489 10.1442 8.89489 10.4729V10.6178C8.89489 11.013 8.59142 11.3333 8.21707 11.3333C7.98722 11.3333 7.84082 11.2286 7.74482 11.1201C7.69519 11.0639 7.65987 11.0071 7.63733 10.9648C7.62622 10.9439 7.61866 10.9274 7.61438 10.9175L7.6105 10.9082C7.54803 10.7378 7.36699 10.652 7.2047 10.7165C7.04148 10.7813 6.95898 10.9736 7.02043 11.1459L7.0209 11.1472L7.02146 11.1487L7.02288 11.1526L7.02687 11.163C7.03006 11.1711 7.03433 11.1816 7.03974 11.1941C7.05054 11.2191 7.06603 11.2525 7.08678 11.2915C7.12797 11.3688 7.19166 11.4715 7.28312 11.575C7.4693 11.7855 7.77345 11.9999 8.21707 11.9999C8.94023 11.9999 9.52647 11.3812 9.52647 10.6178V10.4729C9.52647 9.75417 8.94447 9.18891 8.26587 9.2486L7.67742 9.30035L7.75246 8.66666H9.21068C9.38508 8.66666 9.52647 8.51742 9.52647 8.33333C9.52647 8.14924 9.38508 8 9.21068 8H7.47369Z" fill="#212121"/>
<path d="M11.734 8.66666L11.5789 8.66666C11.1429 8.66668 10.7895 9.03977 10.7895 9.49999V10.5C10.7895 10.9603 11.1429 11.3333 11.5789 11.3333C12.015 11.3333 12.3684 10.9603 12.3684 10.5H11.7368C11.5624 10.5 11.4211 10.3508 11.4211 10.1667C11.4211 9.9826 11.5624 9.83336 11.7368 9.83336H12.6842C12.8586 9.83336 13 9.9826 13 10.1667V10.5C13 11.3284 12.3638 12 11.5789 12C10.7941 12 10.1579 11.3284 10.1579 10.5V9.49999C10.1579 8.67159 10.7941 8.00004 11.5789 8.00001L11.7368 8C11.7547 8 12.4421 7.99989 12.7773 8.67945C12.8578 8.84273 12.7977 9.04402 12.643 9.12903C12.4883 9.21404 12.2976 9.15059 12.2171 8.9873C12.139 8.82909 12.0214 8.75037 11.9149 8.70847C11.8192 8.67079 11.7407 8.66698 11.734 8.66666Z" fill="#212121"/>
<path d="M4.3414 12C5.16507 14.3304 7.38756 16 10 16C12.6125 16 14.835 14.3304 15.6586 12H17C17.5523 12 18 11.5523 18 11V9C18 8.44772 17.5523 8 17 8H15.6586C14.8349 5.66961 12.6125 4 10 4C7.38758 4 5.1651 5.66961 4.34142 8H3C2.44772 8 2 8.44772 2 9V11C2 11.5523 2.44772 12 3 12H4.3414ZM10 15C7.23859 15 5 12.7615 5 10C5 7.23859 7.23859 5 10 5C12.7546 5 14.989 7.22753 15 9.97955V10.0205C14.989 12.7725 12.7546 15 10 15Z" fill="#212121"/>
</svg>
