<svg width="48" height="48" viewBox="0 0 48 48" fill="none" xmlns="http://www.w3.org/2000/svg">
<path d="M12.77 16H8.25C5.9 16 4 14.1 4 11.75V8.25C4 5.9 5.9 4 8.24 4H13.24C15.59 4 17.49 5.9 17.49 8.25V11.75C17.49 11.8775 17.4731 12.005 17.4562 12.1325C17.4506 12.175 17.445 12.2175 17.44 12.26C15.61 13.13 14.01 14.42 12.77 16Z" fill="#212121"/>
<path d="M28 12V4H24.25C21.9 4 20 5.9 20 8.25V11.36C20.96 11.13 21.97 11 23 11C24.77 11 26.46 11.36 28 12Z" fill="#212121"/>
<path d="M35 19C35.64 20.54 36 22.23 36 24C36 31.17 30.17 37 23 37C21.97 37 20.96 36.87 20 36.64V39.75C20 42.1 21.9 44 24.25 44H39.75C42.1 44 44 42.1 44 39.75V19H35Z" fill="#212121"/>
<path d="M43.02 16.5002H33.6C32.75 15.3002 31.7 14.2502 30.5 13.4002V4.2002C30.75 4.3102 30.98 4.4602 31.18 4.6602L43.02 16.5002Z" fill="#212121"/>
<path d="M23 13C16.92 13 12 17.92 12 24C12 30.08 16.92 35 23 35C29.08 35 34 30.08 34 24C34 17.92 29.08 13 23 13ZM30.71 24.71L25.71 29.71C25.32 30.1 24.69 30.1 24.3 29.71C23.91 29.32 23.91 28.69 24.3 28.3L27.59 25.01H16C15.45 25.01 15 24.56 15 24.01C15 23.46 15.45 23.01 16 23.01H27.59L24.3 19.72C23.91 19.33 23.91 18.7 24.3 18.31C24.69 17.92 25.32 17.92 25.71 18.31L30.71 23.31C31.1 23.7 31.1 24.33 30.71 24.72V24.71Z" fill="#212121"/>
<path d="M8.25 29.5H11.24C10.45 27.83 10 25.97 10 24C10 22.03 10.45 20.17 11.24 18.5H8.25C5.9 18.5 4 20.4 4 22.75V25.25C4 27.6 5.9 29.5 8.25 29.5Z" fill="#212121"/>
<path d="M8.25 32H12.78C14.02 33.59 15.62 34.87 17.45 35.74C17.4552 35.7838 17.461 35.8269 17.4668 35.8699C17.4835 35.9938 17.5 36.1164 17.5 36.25V39.75C17.5 42.1 15.6 44 13.25 44H8.25C5.9 44 4 42.1 4 39.75V36.25C4 33.9 5.9 32 8.25 32Z" fill="#212121"/>
</svg>
