<svg width="20" height="20" viewBox="0 0 20 20" fill="none" xmlns="http://www.w3.org/2000/svg">
<path fill-rule="evenodd" clip-rule="evenodd" d="M2.5 7H5.26C5.57 6.62 5.94 6.28 6.35 6H3V4C3 3.45 3.45 3 4 3H7V5.61C7.32 5.45 7.65 5.32 8 5.22V2.5C8 2.22 7.78 2 7.5 2H4C2.9 2 2 2.9 2 4V6.5C2 6.78 2.22 7 2.5 7ZM5 10.5C5 12.99 7.01 15 9.5 15C11.99 15 14 12.99 14 10.5C14 8.01 11.99 6 9.5 6C7.01 6 5 8.01 5 10.5ZM7.5 10H10.29L9.14 8.85C8.94 8.65 8.94 8.34 9.14 8.14C9.34 7.94 9.65 7.94 9.85 8.14L11.85 10.14C11.85 10.14 11.93 10.24 11.96 10.3C11.98 10.36 12 10.42 12 10.49C12 10.56 11.99 10.63 11.96 10.68C11.94 10.74 11.9 10.79 11.85 10.84L9.85 12.84C9.65 13.04 9.34 13.04 9.14 12.84C8.94 12.64 8.94 12.33 9.14 12.13L10.29 10.98H7.5C7.22 10.98 7 10.76 7 10.48C7 10.2 7.22 9.98 7.5 9.98V10ZM4.21 12H2.5C2.22 12 2 11.78 2 11.5V8.5C2 8.22 2.22 8 2.5 8H4.59C4.43 8.32 4.3 8.65 4.2 9H2.99V11H4.02C4.05 11.34 4.12 11.68 4.21 12ZM7 17H4C3.45 17 3 16.55 3 16V14H5.26C5.01 13.69 4.79 13.36 4.61 13H2.5C2.22 13 2 13.22 2 13.5V16C2 17.1 2.9 18 4 18H7.5C7.78 18 8 17.78 8 17.5V15.79C7.65 15.69 7.32 15.56 7 15.4V17ZM13.65 2.44L17.56 6.35C17.84 6.63 18 7.01 18 7.41V16C18 17.1 17.1 18 16 18H9.5C9.22 18 9 17.78 9 17.5V15.97C9.16 15.99 9.33 16 9.5 16C9.61646 16 9.73293 15.9906 9.84618 15.9815C9.89824 15.9773 9.94961 15.9731 10 15.97V17H16C16.55 17 17 16.55 17 16V8H14.39C14.21 7.64 13.99 7.31 13.74 7H16.79L13 3.21V6.26C12.69 6.01 12.36 5.79 12 5.61V3H10V5.03C9.84 5.01 9.67 5 9.5 5C9.38354 5 9.26708 5.00939 9.15383 5.01851C9.10177 5.02271 9.05039 5.02685 9 5.03V2.5C9 2.22 9.22 2 9.5 2H12.59C12.99 2 13.37 2.16 13.65 2.44Z" fill="#212121"/>
</svg>
