<svg width="16" height="16" viewBox="0 0 16 16" fill="none" xmlns="http://www.w3.org/2000/svg">
<path d="M3.94 5H1.5V4.99C1.22 4.99 1 4.77 1 4.49V3.12C1 2.02 1.9 1 3 1H5.5C5.78 1 6 1.22 6 1.5V3.76C5.22 4.01 4.51 4.42 3.94 5ZM3 2C2.45 2 2 2.57 2 3.12V4H5V2H3Z" fill="#212121"/>
<path d="M14.56 4.35L11.65 1.44C11.37 1.16 10.99 1 10.59 1H9C7.9 1 7 1.9 7 3V3.55C7.0452 3.54468 7.08968 3.53866 7.13384 3.53268C7.25578 3.51617 7.3752 3.5 7.5 3.5C7.6248 3.5 7.74422 3.51617 7.86616 3.53268C7.91032 3.53866 7.9548 3.54468 8 3.55V3C8 2.45 8.45 2 9 2H10V4.2C10.75 4.64 11.37 5.26 11.8 6H14V13C14 13.55 13.55 14 13 14H9C8.61 14 8.28 13.77 8.11 13.44C7.91001 13.47 7.70999 13.5 7.5 13.5C7.41071 13.5 7.32496 13.4894 7.23854 13.4787C7.1798 13.4714 7.12069 13.464 7.06 13.46C7.27 14.34 8.06 15 9 15H13C14.1 15 15 14.1 15 13V5.41C15 5.01 14.84 4.63 14.56 4.35ZM11.5 5C11.22 5 11 4.78 11 4.5V2.21L13.79 5H11.5Z" fill="#212121"/>
<path d="M3.5 8.5C3.5 10.71 5.29 12.5 7.5 12.5C9.71 12.5 11.5 10.71 11.5 8.5C11.5 6.29 9.71 4.5 7.5 4.5C5.29 4.5 3.5 6.29 3.5 8.5ZM5.5 8H8.29L7.14 6.85C6.94 6.65 6.94 6.34 7.14 6.14C7.34 5.94 7.65 5.94 7.85 6.14L9.85 8.14C9.85 8.14 9.93 8.24 9.96 8.3C9.98 8.36 10 8.42 10 8.49C10 8.56 9.99 8.63 9.96 8.68C9.94 8.74 9.9 8.79 9.85 8.84L7.85 10.84C7.65 11.04 7.34 11.04 7.14 10.84C6.94 10.64 6.94 10.33 7.14 10.13L8.29 8.98H5.5C5.22 8.98 5 8.76 5 8.48C5 8.2 5.22 7.98 5.5 7.98V8Z" fill="#212121"/>
<path d="M1.5 10H2.76C2.66 9.68 2.59 9.35 2.56 9H2.01V7H2.77C2.88 6.65 3.03 6.31 3.21 6H1.5C1.22 6 1 6.22 1 6.5V9.5C1 9.78 1.22 10 1.5 10Z" fill="#212121"/>
<path d="M3 14H5V12.79C5.31 12.97 5.65 13.12 6 13.23V14.49C6 14.77 5.78 14.99 5.5 14.99H3C1.9 14.99 1 14.09 1 12.99V11.62C1 11.35 1.22 11 1.5 11H3.2C3.41 11.36 3.65 11.7 3.94 12H2V13C2 13.55 2.45 14 3 14Z" fill="#212121"/>
</svg>
