<svg width="24" height="24" viewBox="0 0 24 24" fill="none" xmlns="http://www.w3.org/2000/svg">
<path d="M4 7.5H7.35C7.92 7.03 8.57 6.66 9.27 6.4C9.41 6.13 9.49 5.83 9.49 5.5V4C9.49 2.9 8.59 2 7.49 2H3.99C2.9 2 2 2.9 2 4V5.5C2 6.6 2.9 7.5 4 7.5Z" fill="#212121"/>
<path d="M21.4902 8.50002C21.4902 8.50002 21.4502 8.44002 21.4202 8.41002L15.5802 2.59002C15.5802 2.59002 15.5502 2.56002 15.5302 2.55002C15.5252 2.55002 15.5202 2.54502 15.514 2.53877C15.5077 2.53252 15.5002 2.52502 15.4902 2.52002V8.00002C15.4902 8.27002 15.7102 8.50002 15.9902 8.50002H21.4902Z" fill="#212121"/>
<path d="M4 15H5.5C5.18 14.23 5 13.39 5 12.5C5 11.21 5.38 10.01 6.03 9H4C2.9 9 2 9.9 2 11V13C2 14.1 2.9 15 4 15Z" fill="#212121"/>
<path d="M11.5 18C8.46 18 6 15.54 6 12.5C6 9.46 8.46 7 11.5 7C14.54 7 17 9.46 17 12.5C17 15.54 14.54 18 11.5 18ZM12.35 9.65C12.26 9.55 12.13 9.5 12 9.5V9.49C11.88 9.49 11.75 9.54 11.65 9.64C11.45 9.84 11.45 10.15 11.65 10.35L13.3 12H8.51C8.23 12 8.01 12.22 8.01 12.5C8.01 12.78 8.23 13 8.51 13H13.3L11.65 14.65C11.45 14.85 11.45 15.16 11.65 15.36C11.74 15.46 11.88 15.51 12 15.51C12.12 15.51 12.25 15.46 12.35 15.36L14.85 12.86C15.05 12.66 15.05 12.35 14.85 12.15L12.35 9.65Z" fill="#212121"/>
<path d="M4 16.5H6.39C7.18 17.51 8.26 18.28 9.5 18.68V20C9.5 21.1 8.6 22 7.5 22H4C2.9 22 2 21.1 2 20V18.5C2 17.4 2.9 16.5 4 16.5Z" fill="#212121"/>
<path d="M17.5 10C17.82 10.77 18 11.61 18 12.5C18 16.08 15.08 19 11.5 19C11.33 19 11.17 18.99 11 18.97V20C11 21.1 11.9 22 13 22H20C21.1 22 22 21.1 22 20V10H17.5Z" fill="#212121"/>
<path d="M14 2V6.5C13.23 6.18 12.38 6 11.5 6C11.3881 6 11.2806 6.00866 11.1716 6.01744C11.1151 6.022 11.0581 6.02658 11 6.03V4C11 2.9 11.9 2 13 2H14Z" fill="#212121"/>
</svg>
