<svg width="32" height="32" viewBox="0 0 32 32" fill="none" xmlns="http://www.w3.org/2000/svg">
<path d="M8 10H5C3.34 10 2 8.66 2 7V5C2 3.34 3.34 2 5 2H8C9.66 2 11 3.34 11 5V7C11 7.54 10.85 8.03 10.61 8.46C10.01 8.85 9.46 9.31 8.97 9.83C8.66 9.93 8.34 10 8 10Z" fill="#212121"/>
<path d="M20 8.22V2H16C14.34 2 13 3.34 13 5V7.36C13.79 7.13 14.63 7 15.5 7C17.14 7 18.67 7.45 20 8.22Z" fill="#212121"/>
<path d="M23 9.99988H29.87C29.73 9.51988 29.48 9.06988 29.12 8.70988L23.29 2.87988C22.93 2.51988 22.48 2.26988 22 2.12988V8.99988C22 9.54988 22.45 9.99988 23 9.99988Z" fill="#212121"/>
<path d="M8 16C8 20.14 11.36 23.5 15.5 23.5C19.64 23.5 23 20.14 23 16C23 11.86 19.64 8.5 15.5 8.5C11.36 8.5 8 11.86 8 16ZM15.72 11.22C16.01 10.93 16.49 10.93 16.78 11.22L20.78 15.22C21.07 15.51 21.07 15.99 20.78 16.28L16.78 20.28C16.49 20.57 16.01 20.57 15.72 20.28C15.43 19.99 15.43 19.51 15.72 19.22L18.44 16.5H10.75C10.34 16.5 10 16.16 10 15.75C10 15.34 10.34 15 10.75 15H18.44L15.72 12.28C15.43 11.99 15.43 11.51 15.72 11.22Z" fill="#212121"/>
<path d="M24.5 16C24.5 14.56 24.15 13.21 23.55 12H30V27C30 28.66 28.66 30 27 30H16C14.34 30 13 28.66 13 27V24.64C13.79 24.87 14.63 25 15.5 25C20.46 25 24.5 20.96 24.5 16Z" fill="#212121"/>
<path d="M5 20H7.45C6.85 18.79 6.5 17.44 6.5 16C6.5 14.56 6.85 13.21 7.45 12H5C3.34 12 2 13.34 2 15V17C2 18.66 3.34 20 5 20Z" fill="#212121"/>
<path d="M8 22C8.34 22 8.66 22.07 8.97 22.17C9.46 22.69 10.01 23.15 10.61 23.54C10.85 23.98 11 24.47 11 25V27C11 28.66 9.66 30 8 30H5C3.34 30 2 28.66 2 27V25C2 23.34 3.34 22 5 22H8Z" fill="#212121"/>
</svg>
