<svg width="16" height="16" viewBox="0 0 16 16" fill="none" xmlns="http://www.w3.org/2000/svg">
<path d="M3.94 5H1.5V4.99C1.22 4.99 1 4.77 1 4.49V3.12C1 2.02 1.9 1 3 1H5.5C5.78 1 6 1.22 6 1.5V3.76C5.22 4.01 4.51 4.42 3.94 5Z" fill="#212121"/>
<path d="M11.5 4.99982H14.93C14.86 4.75982 14.74 4.52982 14.56 4.34982L11.65 1.43982C11.47 1.25982 11.24 1.13982 11 1.06982V4.49982C11 4.77982 11.22 4.99982 11.5 4.99982Z" fill="#212121"/>
<path d="M3.5 8.5C3.5 10.71 5.29 12.5 7.5 12.5C9.71 12.5 11.5 10.71 11.5 8.5C11.5 6.29 9.71 4.5 7.5 4.5C5.29 4.5 3.5 6.29 3.5 8.5ZM9.85 8.15C9.85 8.15 9.93 8.25 9.96 8.31C9.98 8.37 10 8.43 10 8.5C10 8.57 9.99 8.64 9.96 8.69C9.94 8.75 9.9 8.8 9.85 8.85L7.85 10.85C7.65 11.05 7.34 11.05 7.14 10.85C6.94 10.65 6.94 10.34 7.14 10.14L8.29 8.99H5.5C5.22 8.99 5 8.77 5 8.49C5 8.21 5.22 7.99 5.5 7.99H8.29L7.14 6.84C6.94 6.64 6.94 6.33 7.14 6.13C7.34 5.93 7.65 5.93 7.85 6.13L9.85 8.13V8.15Z" fill="#212121"/>
<path d="M1.5 10H2.76C2.61 9.52 2.5 9.03 2.5 8.5C2.5 7.59 2.76 6.74 3.2 6H1.5C1.22 6 1 6.22 1 6.5V9.5C1 9.78 1.22 10 1.5 10Z" fill="#212121"/>
<path d="M1.5 11.0002H3.2V10.9902C3.82 12.0502 4.81 12.8502 6 13.2302V14.4902C6 14.7702 5.78 14.9902 5.5 14.9902H3C1.9 14.9902 1 14.0902 1 12.9902V11.6202C1 11.3502 1.22 11.0002 1.5 11.0002Z" fill="#212121"/>
<path d="M11.8001 6C12.2301 6.74 12.5001 7.59 12.5001 8.5C12.5001 11.26 10.2601 13.5 7.50006 13.5C7.41077 13.5 7.32502 13.4894 7.2386 13.4787C7.17984 13.4714 7.12076 13.464 7.06006 13.46C7.27006 14.34 8.06006 15 9.00006 15H13.0001C14.1001 15 15.0001 14.1 15.0001 13V6H11.8001Z" fill="#212121"/>
<path d="M10 1V4.2C9.26 3.76 8.41 3.5 7.5 3.5C7.3752 3.5 7.25578 3.51617 7.13384 3.53268C7.08968 3.53866 7.0452 3.54468 7 3.55V3C7 1.9 7.9 1 9 1H10Z" fill="#212121"/>
</svg>
