<svg width="48" height="48" viewBox="0 0 48 48" fill="none" xmlns="http://www.w3.org/2000/svg">
<path d="M8.25 16H12.77C14.01 14.42 15.61 13.13 17.44 12.26C17.445 12.2175 17.4506 12.175 17.4562 12.1325C17.4731 12.005 17.49 11.8775 17.49 11.75V8.25C17.49 5.9 15.59 4 13.24 4H8.24C5.9 4 4 5.9 4 8.25V11.75C4 14.1 5.9 16 8.25 16ZM6.5 8.25C6.5 7.28 7.28 6.5 8.25 6.5H13.25C14.22 6.5 15 7.28 15 8.25V11.75C15 12.72 14.22 13.5 13.25 13.5H8.25C7.28 13.5 6.5 12.72 6.5 11.75V8.25Z" fill="#212121"/>
<path d="M12 24C12 30.08 16.92 35 23 35C29.08 35 34 30.08 34 24C34 17.92 29.08 13 23 13C16.92 13 12 17.92 12 24ZM16 23H27.59L24.3 19.71C23.91 19.32 23.91 18.69 24.3 18.3C24.69 17.91 25.32 17.91 25.71 18.3L30.71 23.3C31.1 23.69 31.1 24.32 30.71 24.71L25.71 29.71C25.32 30.1 24.69 30.1 24.3 29.71C23.91 29.32 23.91 28.69 24.3 28.3L27.59 25.01H16C15.45 25.01 15 24.56 15 24.01C15 23.46 15.45 23.01 16 23.01V23Z" fill="#212121"/>
<path d="M11.24 29.5H8.25C5.9 29.5 4 27.6 4 25.25V22.75C4 20.4 5.9 18.5 8.25 18.5H11.24C10.87 19.29 10.58 20.13 10.37 21H8.26C7.29 21 6.51 21.78 6.51 22.75V25.25C6.51 26.22 7.29 27 8.26 27H10.37C10.57 27.87 10.87 28.71 11.24 29.5Z" fill="#212121"/>
<path d="M8.25 32C5.9 32 4 33.9 4 36.25V39.75C4 42.1 5.9 44 8.25 44H13.25C15.6 44 17.5 42.1 17.5 39.75V36.25C17.5 36.1164 17.4835 35.9938 17.4668 35.8699C17.461 35.8269 17.4552 35.7838 17.45 35.74C15.62 34.87 14.02 33.59 12.78 32H8.25ZM15 39.75C15 40.72 14.22 41.5 13.25 41.5H8.25C7.28 41.5 6.5 40.72 6.5 39.75V36.25C6.5 35.28 7.28 34.5 8.25 34.5H13.25C14.22 34.5 15 35.28 15 36.25V39.75Z" fill="#212121"/>
<path d="M31.18 4.66L43.34 16.82C43.76 17.24 44 17.81 44 18.41V39.74C44 42.09 42.1 43.99 39.75 43.99H24.25C21.9 43.99 20 42.09 20 39.74V36.63C20.81 36.82 21.64 36.94 22.5 36.97V39.75C22.5 40.72 23.28 41.5 24.25 41.5H39.75C40.72 41.5 41.5 40.72 41.5 39.75V19H35C34.63 18.11 34.15 17.28 33.6 16.5H39.48L30.5 7.52V13.39C29.72 12.84 28.89 12.36 28 11.99V6.49H24.25C23.28 6.49 22.5 7.27 22.5 8.24V11.02C21.64 11.05 20.81 11.17 20 11.36V8.25C20 5.9 21.9 4 24.25 4H29.59C30.19 4 30.76 4.24 31.18 4.66Z" fill="#212121"/>
</svg>
