<svg width="28" height="28" viewBox="0 0 28 28" fill="none" xmlns="http://www.w3.org/2000/svg">
<path d="M4 9H7.85C8.84 8.18 10.07 7.65 11.42 7.53C11.47 7.36 11.5 7.19 11.5 7V4C11.5 2.9 10.6 2 9.5 2H4C2.9 2 2 2.9 2 4V7C2 8.1 2.9 9 4 9ZM3.5 4C3.5 3.72 3.72 3.5 4 3.5H9.5C9.78 3.5 10 3.72 10 4V7C10 7.27 9.78 7.5 9.5 7.5H4C3.72 7.5 3.5 7.27 3.5 7V4Z" fill="#212121"/>
<path d="M17.5 14C17.5 10.96 15.04 8.5 12 8.5C8.96 8.5 6.5 10.96 6.5 14C6.5 17.04 8.96 19.5 12 19.5C15.04 19.5 17.5 17.04 17.5 14ZM15.35 14.35L12.85 16.85C12.65 17.05 12.34 17.05 12.14 16.85C11.94 16.65 11.94 16.34 12.14 16.14L13.79 14.49H9C8.72 14.49 8.5 14.27 8.5 13.99C8.5 13.71 8.72 13.49 9 13.49H13.79L12.14 11.84C11.94 11.64 11.94 11.33 12.14 11.13C12.34 10.93 12.65 10.93 12.85 11.13L15.35 13.63C15.55 13.83 15.55 14.14 15.35 14.34V14.35Z" fill="#212121"/>
<path d="M6.53 17.5H4C2.9 17.5 2 16.6 2 15.5V12.5C2 11.4 2.9 10.5 4 10.5H6.53C6.24 10.96 5.99 11.47 5.82 12H4C3.72 12 3.5 12.22 3.5 12.5V15.5C3.5 15.77 3.72 16 4 16H5.82C5.99 16.53 6.23 17.04 6.53 17.5Z" fill="#212121"/>
<path d="M7.85 19H4C2.9 19 2 19.9 2 21V24C2 25.1 2.9 26 4 26H9.5C10.6 26 11.5 25.1 11.5 24V21C11.5 20.82 11.47 20.64 11.42 20.47C10.07 20.35 8.84 19.82 7.85 19ZM10 24C10 24.27 9.78 24.5 9.5 24.5H4C3.72 24.5 3.5 24.27 3.5 24V21C3.5 20.72 3.72 20.5 4 20.5H9.5C9.78 20.5 10 20.72 10 21V24Z" fill="#212121"/>
<path d="M19.5802 2.59002L25.4102 8.41002L25.4002 8.42002C25.7802 8.79002 25.9902 9.30002 25.9902 9.83002V24.01C25.9902 25.11 25.0902 26.01 23.9902 26.01H14.9902C13.8902 26.01 12.9902 25.11 12.9902 24.01V20.42C13.5102 20.34 14.0202 20.2 14.4902 20V24C14.4902 24.27 14.7102 24.5 14.9902 24.5H23.9902C24.2702 24.5 24.4902 24.27 24.4902 24V10H19.9902C18.8902 10 17.9902 9.10002 17.9902 8.00002V3.50002H14.9902C14.7102 3.50002 14.4902 3.72002 14.4902 4.00002V8.03002C14.0202 7.83002 13.5102 7.69002 12.9902 7.61002V4.02002C12.9902 2.92002 13.8902 2.02002 14.9902 2.02002H18.3002C18.5102 2.04002 18.7202 2.08002 18.9202 2.16002C18.9802 2.19001 19.0402 2.22003 19.0902 2.25002C19.0981 2.25396 19.1045 2.25946 19.1105 2.26468C19.1197 2.27269 19.1281 2.28002 19.1402 2.28002C19.1502 2.28002 19.1577 2.28502 19.1652 2.29002C19.1727 2.29502 19.1802 2.30002 19.1902 2.30002C19.2202 2.31002 19.2402 2.32002 19.2702 2.34002C19.3297 2.37718 19.3836 2.42538 19.4361 2.47232C19.4543 2.48854 19.4723 2.50461 19.4902 2.52002C19.5002 2.52502 19.5077 2.53252 19.514 2.53877C19.5202 2.54502 19.5252 2.55002 19.5302 2.55002C19.5502 2.56002 19.5802 2.59002 19.5802 2.59002ZM19.5002 8.00002C19.5002 8.27002 19.7202 8.50002 20.0002 8.50002H23.3802L19.5002 4.62002V8.00002Z" fill="#212121"/>
</svg>
