<svg width="28" height="28" viewBox="0 0 28 28" fill="none" xmlns="http://www.w3.org/2000/svg">
<path d="M7.85 9H4C2.9 9 2 8.1 2 7V4C2 2.9 2.9 2 4 2H9.5C10.6 2 11.5 2.9 11.5 4V7C11.5 7.19 11.47 7.36 11.42 7.53C10.07 7.65 8.84 8.18 7.85 9Z" fill="#212121"/>
<path d="M12 8.5C15.04 8.5 17.5 10.96 17.5 14C17.5 17.04 15.04 19.5 12 19.5C8.96 19.5 6.5 17.04 6.5 14C6.5 10.96 8.96 8.5 12 8.5ZM12.85 16.85L15.35 14.35V14.34C15.55 14.14 15.55 13.83 15.35 13.63L12.85 11.13C12.65 10.93 12.34 10.93 12.14 11.13C11.94 11.33 11.94 11.64 12.14 11.84L13.79 13.49H9C8.72 13.49 8.5 13.71 8.5 13.99C8.5 14.27 8.72 14.49 9 14.49H13.79L12.14 16.14C11.94 16.34 11.94 16.65 12.14 16.85C12.34 17.05 12.65 17.05 12.85 16.85Z" fill="#212121"/>
<path d="M4 17.5H6.53C5.88 16.49 5.5 15.29 5.5 14C5.5 12.71 5.88 11.51 6.53 10.5H4C2.9 10.5 2 11.4 2 12.5V15.5C2 16.6 2.9 17.5 4 17.5Z" fill="#212121"/>
<path d="M4 19H7.85C8.84 19.82 10.07 20.35 11.42 20.47C11.47 20.64 11.5 20.82 11.5 21V24C11.5 25.1 10.6 26 9.5 26H4C2.9 26 2 25.1 2 24V21C2 19.9 2.9 19 4 19Z" fill="#212121"/>
<path d="M20 10C18.9 10 18 9.1 18 8V2H15C13.9 2 13 2.9 13 4V7.59C16.11 8.07 18.5 10.76 18.5 14C18.5 17.24 16.11 19.93 13 20.41V24C13 25.1 13.9 26 15 26H24C25.1 26 26 25.1 26 24V10H20Z" fill="#212121"/>
<path d="M25.4902 8.50002H19.9902C19.7102 8.50002 19.4902 8.27002 19.4902 8.00002V2.52002C19.5002 2.52502 19.5077 2.53252 19.514 2.53877C19.5202 2.54502 19.5252 2.55002 19.5302 2.55002C19.5502 2.56002 19.5802 2.59002 19.5802 2.59002L25.4202 8.41002C25.4502 8.44002 25.4902 8.50002 25.4902 8.50002Z" fill="#212121"/>
</svg>
