<svg width="24" height="24" viewBox="0 0 24 24" fill="none" xmlns="http://www.w3.org/2000/svg">
<path d="M7.35 7.5H4C2.9 7.5 2 6.6 2 5.5V4C2 2.9 2.9 2 3.99 2H7.49C8.59 2 9.49 2.9 9.49 4V5.5C9.49 5.83 9.41 6.13 9.27 6.4C8.57 6.66 7.92 7.03 7.35 7.5ZM4 3.5C3.72 3.5 3.5 3.72 3.5 4V5.5C3.5 5.77 3.72 6 4 6H7.5C7.78 6 8 5.77 8 5.5V4C8 3.72 7.78 3.5 7.5 3.5H4Z" fill="#212121"/>
<path d="M6 12.5C6 15.54 8.46 18 11.5 18C14.54 18 17 15.54 17 12.5C17 9.46 14.54 7 11.5 7C8.46 7 6 9.46 6 12.5ZM8.5 12H13.29L11.64 10.35C11.44 10.15 11.44 9.84 11.64 9.64C11.84 9.44 12.15 9.44 12.35 9.64L14.85 12.14C15.05 12.34 15.05 12.65 14.85 12.85L12.35 15.35C12.15 15.55 11.84 15.55 11.64 15.35C11.44 15.15 11.44 14.84 11.64 14.64L13.29 12.99H8.5C8.22 12.99 8 12.77 8 12.49C8 12.21 8.22 11.99 8.5 11.99V12Z" fill="#212121"/>
<path d="M5.50023 15C5.30023 14.53 5.16023 14.02 5.08023 13.5H3.99023C3.71023 13.5 3.49023 13.27 3.49023 13V11C3.49023 10.72 3.71023 10.5 3.99023 10.5H5.31023C5.48023 9.97 5.73023 9.46 6.02023 9H3.99023C2.89023 9 1.99023 9.9 1.99023 11V13C1.99023 14.1 2.89023 15 3.99023 15H5.50023Z" fill="#212121"/>
<path d="M6.39 16.5H4C2.9 16.5 2 17.4 2 18.5V20C2 21.1 2.9 22 4 22H7.5C8.6 22 9.5 21.1 9.5 20V18.68C8.26 18.28 7.18 17.51 6.39 16.5ZM8 18.5V20C8 20.27 7.78 20.5 7.5 20.5H4C3.72 20.5 3.5 20.27 3.5 20V18.5C3.5 18.22 3.72 18 4 18H7.5C7.78 18 8 18.22 8 18.5Z" fill="#212121"/>
<path d="M15.5802 2.59002L21.4102 8.41002V8.42002C21.7902 8.79002 22.0002 9.30002 22.0002 9.83002V20.03C22.0002 21.13 21.1002 22.03 20.0002 22.03H13.0002C11.9002 22.03 11.0002 21.13 11.0002 20.03V19C11.1702 19.02 11.3302 19.03 11.5002 19.03C11.8402 19.03 12.1702 18.99 12.5002 18.94V20.03C12.5002 20.3 12.7202 20.53 13.0002 20.53H20.0002C20.2802 20.53 20.5002 20.3 20.5002 20.03V10.03H17.5002C17.2702 9.49002 16.9702 8.99002 16.6102 8.53002H19.3702L15.4902 4.65002V7.41002C15.0302 7.05002 14.5302 6.75002 13.9902 6.52002V3.52002H12.9902C12.7102 3.52002 12.4902 3.74002 12.4902 4.02002V6.11002C12.1602 6.05002 11.8302 6.02002 11.4902 6.02002C11.3783 6.02002 11.2708 6.02868 11.1619 6.03746C11.1053 6.04201 11.0483 6.0466 10.9902 6.05002V4.02002C10.9902 2.92002 11.8902 2.02002 12.9902 2.02002H14.3002C14.5102 2.04002 14.7202 2.08002 14.9202 2.16002C14.9802 2.19002 15.0402 2.22002 15.0902 2.25002C15.0981 2.25396 15.1045 2.25946 15.1105 2.26468C15.1197 2.27269 15.1281 2.28002 15.1402 2.28002C15.1502 2.28002 15.1577 2.28502 15.1652 2.29002C15.1727 2.29502 15.1802 2.30002 15.1902 2.30002C15.2202 2.31002 15.2402 2.32002 15.2702 2.34002C15.3297 2.37718 15.3836 2.42538 15.4361 2.47232C15.4543 2.48854 15.4723 2.50461 15.4902 2.52002C15.5002 2.52502 15.5077 2.53252 15.514 2.53877C15.5202 2.54502 15.5252 2.55002 15.5302 2.55002C15.5502 2.56002 15.5802 2.59002 15.5802 2.59002Z" fill="#212121"/>
</svg>
