<svg width="20" height="20" viewBox="0 0 20 20" fill="none" xmlns="http://www.w3.org/2000/svg">
<path d="M2.5 7H5.26C5.96 6.15 6.91 5.52 8 5.21V2.5C8 2.22 7.78 2 7.5 2H4C2.9 2 2 2.9 2 4V6.5C2 6.78 2.22 7 2.5 7Z" fill="#212121"/>
<path d="M2.5 12H4.21C4.07 11.52 4 11.02 4 10.5C4 9.6 4.22 8.75 4.61 8H2.5C2.22 8 2 8.22 2 8.5V11.5C2 11.78 2.22 12 2.5 12Z" fill="#212121"/>
<path d="M2.5 13H4.61C5.3 14.35 6.52 15.37 8 15.79V17.5C8 17.78 7.78 18 7.5 18H4C2.9 18 2 17.1 2 16V13.5C2 13.22 2.22 13 2.5 13Z" fill="#212121"/>
<path d="M5 10.5C5 12.99 7.01 15 9.5 15C11.99 15 14 12.99 14 10.5C14 8.01 11.99 6 9.5 6C7.01 6 5 8.01 5 10.5ZM11.85 10.15C11.85 10.15 11.93 10.25 11.96 10.31C11.98 10.37 12 10.43 12 10.5C12 10.57 11.99 10.64 11.96 10.69C11.94 10.75 11.9 10.8 11.85 10.85L9.85 12.85C9.65 13.05 9.34 13.05 9.14 12.85C8.94 12.65 8.94 12.34 9.14 12.14L10.29 10.99H7.5C7.22 10.99 7 10.77 7 10.49C7 10.21 7.22 9.99 7.5 9.99H10.29L9.14 8.84C8.94 8.64 8.94 8.33 9.14 8.13C9.34 7.93 9.65 7.93 9.85 8.13L11.85 10.13V10.15Z" fill="#212121"/>
<path d="M12 2V5.61C11.25 5.22 10.4 5 9.5 5C9.38354 5 9.26708 5.00939 9.15383 5.01851C9.10178 5.02271 9.05038 5.02685 9 5.03V2.5C9 2.22 9.22 2 9.5 2H12Z" fill="#212121"/>
<path d="M14.39 8C14.78 8.75 15 9.6 15 10.5C15 13.53 12.53 16 9.5 16C9.33 16 9.16 15.99 9 15.97V17.5C9 17.78 9.22 18 9.5 18H16C17.1 18 18 17.1 18 16V8H14.39Z" fill="#212121"/>
<path d="M17.56 6.34982C17.74 6.52982 17.86 6.75982 17.93 6.99982V7.00982H13.74C13.52 6.73982 13.27 6.48982 13 6.26982V2.06982C13.24 2.13982 13.47 2.25982 13.65 2.43982L17.56 6.34982Z" fill="#212121"/>
</svg>
