<svg xmlns="http://www.w3.org/2000/svg" width="210" height="160" fill="none" viewBox="0 0 210 160">
  <path stroke="#3A3A3A" stroke-linecap="round" stroke-linejoin="round" stroke-miterlimit="10" stroke-width="3" d="M67.558 139.786h116.779m11.404 0h11.565"/>
  <path fill="#707070" d="M70.117 130.913a6.441 6.441 0 1 0 0-12.883 6.441 6.441 0 0 0 0 12.883Z"/>
  <path fill="url(#a)" d="M133.178 104.114c.08 10.179.955 23.062 1.273 24.413-.08 1.432-3.102 5.965-5.567 2.863-2.465-3.101-7.475-9.781-5.169-22.346 2.306-12.485 9.463-4.93 9.463-4.93Z"/>
  <path fill="#3A3A3A" d="M69.242 130.834c0 .079 0 .238.08.318 0 .079.08.238.08.318.079.079.079.238.158.318.08.08.16.159.239.318.398.557 1.113 1.034 1.908 1.511.16.08.398.159.557.239.08.079.239.079.318.159.08.079.239.079.318.159l.319.079a6.75 6.75 0 0 0 1.351.398c.239.079.398.079.637.159.159 0 .318.079.556.079.16 0 .318.08.477.08 1.273.159 2.466.079 3.5-.318 3.578-1.352 5.01-4.135 5.01-4.135s.954.238 2.464.397c2.863.398 7.635.955 11.77.557 1.352-.159 2.783-.477 4.294-.875.477-.159.954-.318 1.511-.477.954-.318 1.829-.716 2.783-1.113a29.019 29.019 0 0 0 6.919-4.294c.238-.16.477-.398.715-.557 1.114-1.034 2.068-2.147 2.784-3.261 1.431-2.465 3.34-4.532 5.407-6.52 3.102-2.943 6.76-5.487 10.1-8.191 1.033-.795 2.067-1.67 3.021-2.465 3.102-2.704 5.885-5.885 7.794-9.543 2.067-3.976 2.067-7.714 1.749-12.088 0-.238-.477-3.1-.318-3.18 1.431-.955 2.465-2.307 3.022-3.977 1.272-3.34.795-7.634-.716-10.417-.159-.318-.318-.636-.477-.875-1.59-2.783-3.499-6.044-5.646-8.19l-3.897-3.897h-33.876s-.398 2.306-.955 5.169c-.079.238-.079.477-.159.715-.079.478-.159.955-.318 1.432-.079.238-.079.477-.159.716 0 .08 0 .08-.079.159-.08.556-.239 1.033-.318 1.59-.318 1.59-.716 3.022-1.193 4.215 0 .08-.08.238-.08.318-.238.636-.477 1.193-.715 1.59-1.909 3.102-11.61 12.008-18.37 17.018-6.76 5.01-9.86 13.519-11.61 27.276-1.989 13.678-1.273 16.462-.955 19.086Zm61.074-3.738c4.532-.477 4.453 0 6.998 0 2.544 0 3.181 1.272 4.135 2.465.557.795 1.352 3.101 1.829 4.771.318.955-.398 1.829-1.352 1.909-2.863 0-8.032.079-8.907 0-1.272-.159-3.976-.477-5.168-2.465-.398-.716-.637-1.67-.875-2.624-.318-1.83.875-3.659 2.783-3.897l.557-.159Z"/>
  <path fill="url(#b)" d="M69.242 130.834c.239 2.624 6.76 5.089 10.338 3.737 3.658-1.352 5.01-4.135 5.01-4.135s7.873 1.59 14.235 1.034c4.771-.477 11.212-3.261 15.427-6.839l-.557-12.088s-.477-10.576-.954-15.188c-.398-4.613 3.26-4.533 3.101-10.497-.238-5.965 2.148-16.541 5.249-26.243l-10.815-8.111-7.396 4.215c-.715 3.976-1.908 8.986-2.942 10.815-1.909 3.101-11.61 12.008-18.37 17.017-6.76 5.01-9.86 13.52-11.61 27.277-1.75 13.598-1.034 16.381-.716 19.006Z"/>
  <path fill="#5C5C5C" d="M69.242 130.834c0 .079 0 .238.08.318 0 .079.08.238.08.318.079.079.079.239.158.318.08.08.16.159.239.318.398.557 1.113 1.034 1.908 1.511.16.08.398.159.557.239.08.079.239.079.318.159.08.079.239.079.318.159l.318.079c.398.159.875.318 1.352.398.239.079.398.079.637.159a32.713 32.713 0 0 0 1.749-1.193l-.477-2.863c-.16-.874-.318-2.067-.557-3.658-1.034-6.6-.318-19.642 8.51-19.244-.955-6.68 2.703-14.076 5.884-18.767 3.26-4.613 5.646-2.068 8.43 1.113.317-1.352-1.114-6.76-2.864-11.531 3.579 4.294 6.76 5.805 15.269 6.6-3.817-3.18-4.295-4.85-7.396-11.849 3.897 1.83 11.849 3.977 16.62 4.613C131.906 79.54 140.82 79.056 147.5 75c1.272-3.34.795-7.634-.716-10.417a8.522 8.522 0 0 0-.477-.875c-6.123-.557-15.514-1.502-25.296-2.377-7.157-.636-13.996-1.272-18.608-1.67 0 .08 0 .08-.079.16-.08.556-.239 1.033-.318 1.59-.319 1.59-.716 3.022-1.193 4.214 0 .08-.08.239-.08.318-.238.637-.477 1.193-.715 1.59-1.909 3.102-11.61 12.009-18.37 17.019-6.76 5.01-9.861 13.518-11.61 27.276-1.83 13.598-1.114 16.382-.796 19.006Z"/>
  <path fill="url(#c)" d="M114.968 135.525s-.636-9.622-.716-10.894c-.079-.875-5.248 3.26-10.02-5.567-4.771-8.827-5.487-10.417-5.328-12.644-1.431 11.213 3.022 18.767 3.897 22.823.875 4.056 1.67 3.896 1.67 3.896l8.032 1.591 2.465.795Z"/>
  <path fill="#3A3A3A" d="M107.015 129.004c4.533-.556 4.454 0 6.998 0 2.545 0 3.181 1.352 4.136 2.624.556.796 1.352 3.34 1.829 5.169.318 1.034-.398 1.989-1.352 1.989-2.863 0-9.225-.08-10.1-.16-1.272-.159-2.783-.397-3.896-2.544-.398-.795-.636-1.829-.875-2.863-.318-1.988.875-3.897 2.783-4.215h.477Zm-20.675 1.353c2.067 1.272 3.26 4.294 3.896 6.441.318 1.034-.397 1.988-1.352 1.988-2.862 0-9.224-.08-10.099-.159-5.01-.636-5.566-6.123-1.75-8.27 2.386-1.432 6.919-1.511 9.305 0Z"/>
  <path fill="url(#d)" d="M141.513 69.501a14.152 14.152 0 0 1-2.183 1.75 26.374 26.374 0 0 1-3.325 1.883c-3.52 1.658-7.291 2.766-11.321 2.827-3.33.062-6.883-.265-10.196-1.448-1.15-.361-2.329-.885-3.355-1.427-5.915-3.196-9.315-5.778-10.04-12.652-.725-6.874-.636-12.188-.636-12.188-.022-.577.536-1.389.68-1.903.282-.613.474-1.298.757-1.912.488-1.217 1.038-2.525 1.617-3.67 1.281-2.472 2.937-4.573 5.086-6.07 3.47-2.397 7.754-3.234 11.97-3.566 3.059-.278 6.237-.321 9.356.636 2.71.84 5.061 2.303 7.192 4.289 2.312 2.13 4.16 4.729 6.21 7.138 0 0 1.89 5.08 3.529 11.846 1.639 6.767-.762 9.95-5.341 14.467Z"/>
  <path fill="#777" d="M115.032 58.401c-.77.917-1.404 3.967-5.887 2.678-6.37-1.892-7.193-10.223-4.378-13.2 5.031-5.386 11.406-3.908 13.383 2.139 2.047 6.451-1.563 6.63-3.118 8.383Z"/>
  <path fill="url(#e)" d="M101.632 38.833c1.571-2.398 4.055-1.71 3.315 1.08-1.212 4.486-3.899 6.607-3.472 23.266.048 2.942-9.66-3.358-10.456-13.747-.182-1.945 1.992-2.612 1.992-2.612 1.305-.401 6.15-4.171 8.621-7.987Z"/>
  <path fill="url(#f)" d="M137.997 66.247c.353 2.04.157 4.061-.478 5.801-.91.607-1.91 1.142-2.91 1.676-3.105 1.45-6.449 2.426-9.871 2.497-2.873.09-6.06-.284-8.963-1.273-1.382-1.669-2.257-3.564-2.638-5.767-1.159-6.69 3.492-12.735 10.376-13.547 6.808-.804 13.325 3.922 14.484 10.613Z"/>
  <path fill="url(#g)" d="M111.446 57.924c2.474-.292 4.109-2.669 3.652-5.308-.458-2.64-2.834-4.542-5.308-4.25-2.474.292-4.109 2.668-3.652 5.307.457 2.64 2.833 4.543 5.308 4.25Z"/>
  <path fill="url(#h)" d="M114.729 53.126c.351 2.025-.949 3.914-2.847 4.138-1.899.224-3.788-1.289-4.139-3.314.36.289.782.487 1.238.433.835-.099 1.468-.917 1.299-1.89-.154-.89-.964-1.538-1.813-1.52a3.213 3.213 0 0 1 2.124-1.16c1.974-.234 3.773 1.207 4.138 3.313Z"/>
  <path fill="url(#i)" d="M137.267 54.239c2.475-.293 4.11-2.669 3.652-5.308-.457-2.64-2.833-4.542-5.307-4.25-2.474.292-4.11 2.668-3.652 5.307.457 2.64 2.833 4.543 5.307 4.25Z"/>
  <path fill="url(#j)" d="M132.463 50.423c.351 2.025 2.24 3.537 4.138 3.313 1.899-.224 3.198-2.113 2.848-4.138-.248.36-.586.648-1.041.702-.835.098-1.721-.541-1.889-1.513-.155-.891.402-1.7 1.224-1.88a3.574 3.574 0 0 0-2.433-.622c-1.898.224-3.212 2.032-2.847 4.138Z"/>
  <path fill="#5C5C5C" d="M123.906 56.681a6.993 6.993 0 0 0-1.806.466c-.727.339-1.811.887-1.626 1.958.228 1.319 3.367 2.208 4.137 2.117.77-.091 3.497-1.591 3.255-2.992-.228-1.318-1.454-1.593-2.483-1.64-.476-.027-1.03-.046-1.477.091Z"/>
  <path fill="#5C5C5C" d="m124.727 60.827-.287-.372-.152.425s.254 2.817-.183 3.765c.461.514.827.47.96.373.233.053.6.009.798-.585-.575-.744-1.136-3.606-1.136-3.606Z"/>
  <path fill="#8A8A8A" d="M108.579 43.222c-1.011.451-1.87.884-2.52 1.625-.649.74-1.09 1.788-1.212 2.88.014.082-.062.09-.139.1-.076.009-.09-.072-.09-.072-.099-.57.018-1.247.162-1.762.13-.596.426-1.129.813-1.589.387-.46.789-.84 1.28-1.146.506-.226 1.101-.38 1.663-.28.091.073.181.145.043.244.076-.009.076-.009 0 0Zm26.837-3.943c1.123.2 2.094.416 2.969.977.875.56 1.654 1.463 2.142 2.484.014.081.091.072.167.063.076-.009.062-.09.062-.09-.099-.569-.44-1.192-.753-1.653-.327-.542-.793-.985-1.321-1.337-.528-.352-1.041-.624-1.617-.805-.562-.1-1.186-.108-1.691.117-.063.09-.049.172.042.244 0 0-.076.009 0 0Z"/>
  <path fill="url(#k)" d="M139.776 32.373c-2.317-1.936-4.47-.697-2.817 1.81 2.677 4.022 5.972 5.433 11.184 21.523.946 2.836 8.139-5.472 5.397-15.63-.481-1.91-2.793-2.044-2.793-2.044-1.388-.08-7.311-2.572-10.971-5.659Z"/>
  <path fill="#CBCBCB" fill-rule="evenodd" d="M120.771 72.474c.184-2.403 2.15-4.273 4.454-4.273h2.066c2.487 0 4.53 2.032 4.53 4.483v12.983c0 .884.712 1.6 1.59 1.6.877 0 1.589-.716 1.589-1.6V72.684c0-4.273-3.52-7.684-7.709-7.684h-2.066c-4.05 0-7.327 3.248-7.625 7.244l-.001.02c-.183 2.977-.231 7.084-.287 11.837-.03 2.536-.062 5.256-.118 8.087-.162 8.195-.522 17.429-1.588 26.22-1.069 8.813-2.835 17.062-5.75 23.34-2.916 6.28-6.84 10.31-12.116 11.289-8.138 1.51-20.907 2.761-33.736 2.761-12.822.001-25.453-1.251-33.58-4.588-.89-.554-1.35-.973-1.558-1.243.091-.075.242-.181.483-.311.526-.285 1.285-.577 2.28-.871 1.988-.587 4.636-1.107 7.619-1.647.682-.124 1.38-.249 2.089-.375 2.35-.419 4.818-.859 7.186-1.354a2.64 2.64 0 0 0 1.74-1.135c.38-.573.495-1.234.429-1.827-.133-1.184-1.081-2.451-2.712-2.451H4.59c-.878 0-1.59.716-1.59 1.6 0 .885.712 1.601 1.59 1.601h38.497c-.76.138-1.52.274-2.273.408-.717.128-1.428.255-2.129.382-2.965.537-5.776 1.083-7.95 1.726-1.086.321-2.084.686-2.89 1.122-.759.41-1.603 1.017-2.012 1.95-.484 1.103-.178 2.186.438 3.035.57.785 1.481 1.502 2.606 2.19.07.043.143.08.22.112C37.832 157.75 51.06 159 64.003 159c12.997 0 25.96-1.265 34.312-2.815 6.715-1.246 11.294-6.348 14.419-13.081 3.127-6.733 4.943-15.376 6.026-24.308 1.086-8.954 1.449-18.317 1.611-26.544.058-2.922.09-5.688.12-8.24.055-4.678.101-8.64.279-11.538Z" clip-rule="evenodd"/>
  <path fill="#5C5C5C" d="M133.85 68.625c.913 3.87-2.237 5.757-6.494 6.761-4.257 1.004-7.918.724-8.831-3.146-.913-3.87 1.762-7.769 6.019-8.773 4.257-1.004 8.393 1.288 9.306 5.158Z"/>
  <path fill="#F5F2EC" d="M129.759 104.114a1.425 1.425 0 0 1-1.431-1.431v-5.567c0-.795.636-1.43 1.431-1.43s1.431.635 1.431 1.43v5.567c0 .875-.636 1.431-1.431 1.431Zm7.396 0a1.425 1.425 0 0 1-1.432-1.431v-5.567c0-.795.636-1.431 1.432-1.431.795 0 1.431.636 1.431 1.431v5.567c0 .874-.636 1.431-1.431 1.431Z"/>
  <path fill="#F5F2EC" d="M140.892 97.196H126.26v-1.67c0-4.056 3.26-11.054 7.316-11.054s7.316 6.998 7.316 11.054v1.67Z"/>
  <path fill="#3A3A3A" d="M199.681 99.979h-30.139a2.223 2.223 0 0 1-2.227-2.227V65.625a2.223 2.223 0 0 1 2.227-2.227h30.139a2.223 2.223 0 0 1 2.227 2.227v32.127c.079 1.193-.955 2.227-2.227 2.227Z"/>
  <path fill="#8C8C8C" d="M195.944 81.052c0 3.738-1.829 7.157-4.613 9.225h-13.598a11.446 11.446 0 0 1-4.612-9.225c0-3.737 1.829-7.157 4.612-9.224h13.598c2.784 2.147 4.613 5.487 4.613 9.224Z"/>
  <path fill="#3A3A3A" d="M180.277 81.689a1.052 1.052 0 0 1-1.033-1.034v-3.42c0-.556.477-1.033 1.033-1.033.557 0 1.034.477 1.034 1.034v3.419c0 .557-.477 1.034-1.034 1.034Zm8.351 0a1.053 1.053 0 0 1-1.034-1.034v-3.42c0-.556.477-1.033 1.034-1.033.556 0 1.033.477 1.033 1.034v3.419c0 .557-.477 1.034-1.033 1.034Zm-3.181 4.931h-2.068c-.477 0-.954-.398-.954-.955V84.63c0-1.113.875-1.988 1.988-1.988s1.988.875 1.988 1.988v1.034c0 .477-.398.954-.954.954Z"/>
  <path fill="#5C5C5C" d="M170.973 68.25a1.352 1.352 0 1 0 0-2.704 1.352 1.352 0 0 0 0 2.703Zm27.436 0a1.352 1.352 0 1 0 0-2.706 1.352 1.352 0 0 0 0 2.705Zm-27.436 29.661a1.352 1.352 0 1 0 0-2.703 1.352 1.352 0 0 0 0 2.703Zm27.436 0a1.352 1.352 0 1 0 0-2.705 1.352 1.352 0 0 0 0 2.705Z"/>
  <path fill="#8E8E8E" d="m115.251 0 3.453 1.141.895 20.426-1.875-.709L115.251 0Zm2.643 23.18 1.705.748v2.007l-1.705-.63V23.18Zm4.604-12.909 3.452 1.024v13.144l-1.918-.708-1.534-13.46Zm1.705 15.664 1.747.709v1.889l-1.747-.59v-2.008Z"/>
  <defs>
    <linearGradient id="a" x1="128.783" x2="128.783" y1="101.141" y2="132.783" gradientUnits="userSpaceOnUse">
      <stop stop-color="#5C5C5C"/>
      <stop offset=".996" stop-color="#4D4D4D"/>
    </linearGradient>
    <linearGradient id="b" x1="94.958" x2="94.958" y1="52.504" y2="134.954" gradientUnits="userSpaceOnUse">
      <stop stop-color="#585858"/>
      <stop offset="1" stop-color="#3B3B3B"/>
      <stop offset="1" stop-color="#454545"/>
    </linearGradient>
    <linearGradient id="c" x1="106.79" x2="106.79" y1="105.747" y2="135.839" gradientUnits="userSpaceOnUse">
      <stop stop-color="#5C5C5C"/>
      <stop offset=".996" stop-color="#4D4D4D"/>
    </linearGradient>
    <linearGradient id="d" x1="119.38" x2="124.673" y1="31.228" y2="76.086" gradientUnits="userSpaceOnUse">
      <stop stop-color="#585858"/>
      <stop offset="1" stop-color="#3B3B3B"/>
      <stop offset="1" stop-color="#454545"/>
    </linearGradient>
    <linearGradient id="e" x1="96.883" x2="100.055" y1="37.573" y2="64.279" gradientUnits="userSpaceOnUse">
      <stop stop-color="#A6A6A6"/>
      <stop offset=".996" stop-color="#878787"/>
    </linearGradient>
    <linearGradient id="f" x1="123.385" x2="125.892" y1="55.167" y2="76.403" gradientUnits="userSpaceOnUse">
      <stop stop-color="#919191"/>
      <stop offset=".996" stop-color="#838383"/>
    </linearGradient>
    <linearGradient id="g" x1="109.79" x2="110.925" y1="48.366" y2="57.985" gradientUnits="userSpaceOnUse">
      <stop stop-color="#FFFCF7"/>
      <stop offset="1" stop-color="#EFECE6"/>
    </linearGradient>
    <linearGradient id="h" x1="110.591" x2="111.476" y1="49.812" y2="57.312" gradientUnits="userSpaceOnUse">
      <stop stop-color="#474747"/>
      <stop offset="1" stop-color="#2C2C2C"/>
    </linearGradient>
    <linearGradient id="i" x1="135.612" x2="136.747" y1="44.681" y2="54.3" gradientUnits="userSpaceOnUse">
      <stop stop-color="#FFFCF7"/>
      <stop offset="1" stop-color="#EFECE6"/>
    </linearGradient>
    <linearGradient id="j" x1="135.31" x2="136.196" y1="46.285" y2="53.784" gradientUnits="userSpaceOnUse">
      <stop stop-color="#474747"/>
      <stop offset="1" stop-color="#2C2C2C"/>
    </linearGradient>
    <linearGradient id="k" x1="143.899" x2="147.072" y1="30.059" y2="56.765" gradientUnits="userSpaceOnUse">
      <stop stop-color="#A6A6A6"/>
      <stop offset=".996" stop-color="#878787"/>
    </linearGradient>
  </defs>
</svg>
