<svg width="230" height="160" viewBox="0 0 230 160" fill="none" xmlns="http://www.w3.org/2000/svg">
<g clip-path="url(#clip0_4376_2697)">
<path fill-rule="evenodd" clip-rule="evenodd" d="M81.1992 138.855C81.1992 138.29 81.6576 137.832 82.223 137.832H182.451C183.016 137.832 183.474 138.29 183.474 138.855C183.474 139.421 183.016 139.879 182.451 139.879H82.223C81.6576 139.879 81.1992 139.421 81.1992 138.855Z" fill="#3A3A3A"/>
<path fill-rule="evenodd" clip-rule="evenodd" d="M191.214 138.855C191.214 138.29 191.673 137.832 192.238 137.832H202.165C202.73 137.832 203.188 138.29 203.188 138.855C203.188 139.421 202.73 139.879 202.165 139.879H192.238C191.673 139.879 191.214 139.421 191.214 138.855Z" fill="#3A3A3A"/>
<path d="M84.4195 131.24C87.4727 131.24 89.9479 128.765 89.9479 125.712C89.9479 122.659 87.4727 120.184 84.4195 120.184C81.3663 120.184 78.8911 122.659 78.8911 125.712C78.8911 128.765 81.3663 131.24 84.4195 131.24Z" fill="#707070"/>
<path d="M138.543 108.24C138.611 116.976 139.362 128.033 139.635 129.193C139.567 130.421 136.973 134.312 134.857 131.65C132.741 128.988 128.442 123.255 130.421 112.471C132.4 101.756 138.543 108.24 138.543 108.24Z" fill="url(#paint0_linear_4376_2697)"/>
<path d="M83.6687 131.172C83.6687 131.24 83.6687 131.377 83.737 131.445C83.737 131.513 83.8052 131.65 83.8052 131.718C83.8735 131.786 83.8735 131.923 83.9417 131.991C84.01 132.059 84.0783 132.128 84.1465 132.264C84.4878 132.742 85.102 133.152 85.7845 133.561C85.921 133.629 86.1258 133.698 86.2623 133.766C86.3306 133.834 86.4671 133.834 86.5353 133.902C86.6036 133.971 86.7401 133.971 86.8083 134.039L87.0813 134.107C87.4226 134.244 87.8321 134.38 88.2416 134.448C88.4464 134.517 88.5829 134.517 88.7876 134.585C88.9241 134.585 89.0606 134.653 89.2654 134.653C89.4019 134.653 89.5384 134.721 89.6749 134.721C90.7669 134.858 91.7907 134.79 92.678 134.448C95.7493 133.288 96.9778 130.899 96.9778 130.899C96.9778 130.899 97.7968 131.104 99.0936 131.24C101.551 131.582 105.646 132.059 109.195 131.718C110.355 131.582 111.584 131.309 112.88 130.967C113.29 130.831 113.699 130.694 114.177 130.558C114.996 130.285 115.747 129.944 116.566 129.602C118.75 128.647 120.798 127.35 122.504 125.917C122.709 125.78 122.913 125.576 123.118 125.439C124.074 124.552 124.893 123.596 125.507 122.641C126.736 120.525 128.374 118.75 130.148 117.044C132.81 114.519 135.949 112.335 138.816 110.014C139.703 109.332 140.591 108.581 141.41 107.898C144.071 105.578 146.46 102.848 148.098 99.7082C149.873 96.2956 149.873 93.0878 149.6 89.334C149.6 89.1292 149.19 86.6721 149.327 86.6039C150.555 85.7849 151.443 84.6246 151.92 83.1913C153.012 80.3247 152.603 76.6392 151.306 74.2504C151.17 73.9773 151.033 73.7043 150.897 73.4996C149.532 71.1108 147.894 68.3125 146.051 66.4697L142.706 63.1253H113.631C113.631 63.1253 113.29 65.1046 112.812 67.5617C112.744 67.7664 112.744 67.9712 112.676 68.176C112.607 68.5855 112.539 68.995 112.403 69.4045C112.334 69.6092 112.334 69.814 112.266 70.0187C112.266 70.087 112.266 70.087 112.198 70.1553C112.13 70.633 111.993 71.0425 111.925 71.5203C111.652 72.8853 111.311 74.1138 110.901 75.1376C110.901 75.2059 110.833 75.3424 110.833 75.4106C110.628 75.9566 110.423 76.4344 110.219 76.7757C108.581 79.4375 100.254 87.0817 94.4525 91.3815C88.6511 95.6814 85.9893 102.984 84.4878 114.792C82.7815 126.531 83.3957 128.92 83.6687 131.172Z" fill="#3A3A3A"/>
<path d="M135.833 128.037C136.002 127.989 136.176 127.955 136.35 127.937C139.975 127.574 139.959 127.964 142.092 127.964C144.276 127.964 144.823 129.056 145.642 130.08C146.119 130.763 146.802 132.742 147.211 134.175C147.484 134.994 146.87 135.745 146.051 135.813C143.594 135.813 139.158 135.882 138.407 135.813C137.315 135.677 134.994 135.404 133.97 133.698C133.629 133.083 133.424 132.264 133.22 131.445C132.96 129.951 133.876 128.456 135.378 128.139C135.53 128.107 135.684 128.079 135.833 128.037Z" fill="#3A3A3A"/>
<path d="M83.6684 131.172C83.8731 133.424 89.4698 135.54 92.5411 134.38C95.6807 133.22 96.8409 130.831 96.8409 130.831C96.8409 130.831 103.598 132.196 109.058 131.718C113.153 131.309 118.681 128.92 122.299 125.849L121.821 115.474C121.821 115.474 121.412 106.397 121.002 102.438C120.661 98.4797 123.8 98.5479 123.664 93.429C123.459 88.3102 125.507 79.2327 128.168 70.906L118.886 63.9443L112.539 67.5617C111.925 70.9743 110.901 75.2741 110.014 76.8439C108.375 79.5057 100.049 87.1499 94.2474 91.4497C88.446 95.7496 85.7842 103.053 84.2826 114.86C82.7811 126.531 83.3954 128.92 83.6684 131.172Z" fill="url(#paint1_linear_4376_2697)"/>
<path d="M83.6684 131.172C83.6684 131.24 83.6684 131.377 83.7366 131.445C83.7366 131.513 83.8049 131.65 83.8049 131.718C83.8731 131.786 83.8731 131.923 83.9414 131.991C84.0096 132.059 84.0779 132.128 84.1461 132.264C84.4874 132.742 85.1017 133.151 85.7842 133.561C85.9207 133.629 86.1254 133.697 86.2619 133.766C86.3302 133.834 86.4667 133.834 86.535 133.902C86.6032 133.97 86.7397 133.97 86.808 134.039L87.081 134.107C87.4222 134.243 87.8317 134.38 88.2412 134.448C88.446 134.516 88.5825 134.516 88.7873 134.585C89.7428 133.97 90.2888 133.561 90.2888 133.561C90.2888 133.561 90.2888 133.561 89.8793 131.104C89.7428 130.353 89.6063 129.329 89.4015 127.964C88.5142 122.299 89.1285 111.106 96.7044 111.447C95.8854 105.714 99.025 99.3669 101.755 95.34C104.553 91.3815 106.601 93.5655 108.99 96.2956C109.263 95.1353 108.034 90.4942 106.533 86.3991C109.604 90.0847 112.334 91.3815 119.637 92.064C116.361 89.3339 115.951 87.9006 113.29 81.8945C116.634 83.4643 123.459 85.3071 127.554 85.8531C137.451 87.1499 145.982 86.6721 151.715 83.1913C152.807 80.3247 152.398 76.6391 151.101 74.2503C150.965 73.9773 150.828 73.7043 150.691 73.4995C145.436 73.0218 136.495 72.271 128.1 71.5202C121.958 70.9742 116.088 70.4282 112.129 70.0869C112.129 70.1552 112.129 70.1552 112.061 70.2234C111.993 70.7012 111.856 71.1107 111.788 71.5885C111.515 72.9535 111.174 74.182 110.764 75.2058C110.764 75.2741 110.696 75.4106 110.696 75.4788C110.491 76.0248 110.287 76.5026 110.082 76.8439C108.444 79.5057 100.117 87.1498 94.3156 91.4497C88.5143 95.7496 85.8524 103.052 84.3509 114.86C82.7811 126.531 83.3954 128.92 83.6684 131.172Z" fill="#5C5C5C"/>
<path d="M122.914 135.199C122.914 135.199 122.367 126.941 122.299 125.849C122.231 125.098 117.795 128.647 113.7 121.071C109.604 113.495 108.99 112.13 109.127 110.219C107.898 119.842 111.72 126.326 112.471 129.807C113.222 133.288 113.904 133.151 113.904 133.151L120.798 134.517L122.914 135.199Z" fill="url(#paint2_linear_4376_2697)"/>
<path d="M116.088 129.602C119.979 129.125 119.91 129.602 122.094 129.602C124.279 129.602 124.825 130.763 125.644 131.855C126.121 132.537 126.804 134.721 127.213 136.291C127.486 137.178 126.872 137.997 126.053 137.997C123.596 137.997 118.136 137.929 117.385 137.861C116.293 137.724 114.996 137.52 114.041 135.677C113.7 134.994 113.495 134.107 113.29 133.22C113.04 131.656 113.879 130.15 115.281 129.699C115.54 129.615 115.816 129.602 116.088 129.602Z" fill="#3A3A3A"/>
<path d="M98.3424 130.763C100.117 131.855 101.141 134.448 101.687 136.291C101.96 137.178 101.345 137.997 100.526 137.997C98.0694 137.997 92.6093 137.929 91.8585 137.861C87.5587 137.315 87.0809 132.605 90.357 130.763C92.4045 129.534 96.2949 129.466 98.3424 130.763Z" fill="#3A3A3A"/>
<path d="M145.605 77.6827C144.997 78.2521 144.312 78.7636 143.617 79.2075C142.671 79.8251 141.648 80.3848 140.615 80.8769C137.449 82.363 134.08 83.3954 130.518 83.559C127.574 83.7034 124.447 83.5293 121.561 82.6313C120.557 82.3609 119.534 81.9554 118.646 81.5306C113.531 79.0204 110.616 76.9545 110.211 71.221C109.807 65.4875 110.068 61.0378 110.068 61.0378C110.068 60.5552 110.589 59.8603 110.734 59.426C111.004 58.9048 111.198 58.3257 111.468 57.8045C111.941 56.7718 112.472 55.6618 113.022 54.687C114.239 52.583 115.774 50.7782 117.724 49.4657C120.87 47.3619 124.683 46.542 128.419 46.1467C131.131 45.8285 133.94 45.7034 136.662 46.418C139.026 47.0457 141.053 48.2042 142.868 49.8067C144.836 51.525 146.381 53.6487 148.108 55.6083C148.108 55.6083 149.604 59.8072 150.819 65.425C152.035 71.0427 149.805 73.774 145.605 77.6827Z" fill="url(#paint3_linear_4376_2697)"/>
<path d="M122.895 68.79C122.181 69.5814 121.515 72.1585 117.586 71.2024C112.008 69.7925 111.564 62.8235 114.161 60.2467C118.804 55.5852 124.403 56.6477 125.946 61.667C127.538 67.0242 124.334 67.2748 122.895 68.79Z" fill="#777777"/>
<path d="M111.99 52.2834C113.487 50.2084 115.697 50.7202 114.934 53.1042C113.689 56.936 111.198 58.8082 111.003 72.9005C110.945 75.3908 102.432 70.3319 102.076 61.558C101.98 59.9171 103.959 59.29 103.959 59.29C105.146 58.9137 109.635 55.5842 111.99 52.2834Z" fill="url(#paint4_linear_4376_2697)"/>
<path d="M142.932 75.3754C143.174 77.0645 142.932 78.7537 142.314 80.2207C141.494 80.7515 140.596 81.2243 139.698 81.6972C136.918 82.9903 133.945 83.8972 130.934 84.0513C128.405 84.2054 125.615 83.983 123.096 83.2395C121.938 81.8881 121.234 80.334 120.973 78.5097C120.182 72.9692 124.478 67.8058 130.559 66.9378C136.573 66.0795 142.142 69.8349 142.932 75.3754Z" fill="url(#paint5_linear_4376_2697)"/>
<path d="M119.748 68.4809C121.95 68.1667 123.48 66.1271 123.166 63.9255C122.852 61.7238 120.812 60.1938 118.61 60.508C116.409 60.8223 114.879 62.8618 115.193 65.0635C115.507 67.2651 117.547 68.7952 119.748 68.4809Z" fill="url(#paint6_linear_4376_2697)"/>
<path d="M122.818 64.3886C123.06 66.0778 121.843 67.6992 120.154 67.9403C118.465 68.1814 116.843 66.965 116.602 65.2759C116.911 65.5076 117.278 65.662 117.683 65.6042C118.427 65.4981 119.015 64.7935 118.9 63.9827C118.794 63.2395 118.099 62.7182 117.346 62.7567C117.819 62.2066 118.524 61.8302 119.267 61.7242C121.024 61.4734 122.568 62.6319 122.818 64.3886Z" fill="url(#paint7_linear_4376_2697)"/>
<path d="M141.911 65.3176C144.112 65.0034 145.642 62.9638 145.328 60.7622C145.014 58.5605 142.974 57.0305 140.773 57.3447C138.571 57.659 137.041 59.6985 137.355 61.9002C137.669 64.1018 139.709 65.6319 141.911 65.3176Z" fill="white"/>
<path d="M137.818 62.2477C138.059 63.9369 139.681 65.1533 141.37 64.9122C143.059 64.6711 144.275 63.0497 144.034 61.3605C143.803 61.6693 143.494 61.9202 143.088 61.9781C142.345 62.0842 141.583 61.5725 141.467 60.7617C141.361 60.0185 141.882 59.3236 142.616 59.1499C142.008 58.7541 141.226 58.5899 140.483 58.696C138.793 58.9371 137.567 60.491 137.818 62.2477Z" fill="url(#paint8_linear_4376_2697)"/>
<path d="M130.656 67.6134C130.115 67.6906 129.584 67.8353 129.063 68.0476C128.416 68.3467 127.451 68.8292 127.576 69.7076C127.731 70.7886 130.443 71.4357 131.118 71.3392C131.794 71.2428 134.227 69.9304 134.063 68.7818C133.908 67.7007 132.847 67.5075 131.949 67.4977C131.534 67.488 131.051 67.488 130.656 67.6134Z" fill="#5C5C5C"/>
<path d="M131.36 71.0981L131.109 70.7891L130.955 71.1559C130.955 71.1559 131.089 73.5497 130.655 74.3701C131.06 74.7948 131.398 74.7466 131.524 74.6597C131.736 74.6984 132.074 74.6502 132.277 74.1386C131.775 73.5208 131.36 71.0981 131.36 71.0981Z" fill="#5C5C5C"/>
<path d="M117.549 55.9713C116.642 56.3766 115.87 56.7626 115.271 57.3995C114.673 58.0365 114.248 58.9245 114.103 59.8414C114.113 59.909 114.045 59.9186 113.977 59.9283C113.91 59.9379 113.9 59.8703 113.9 59.8703C113.833 59.3974 113.958 58.8279 114.103 58.3936C114.238 57.8917 114.518 57.4381 114.875 57.0424C115.233 56.6467 115.599 56.3185 116.043 56.0483C116.497 55.8457 117.028 55.701 117.52 55.7686C117.597 55.8265 117.675 55.8844 117.549 55.9713C117.617 55.9616 117.617 55.9616 117.549 55.9713Z" fill="#8A8A8A"/>
<path d="M140.455 52.7021C141.439 52.8373 142.289 52.9919 143.042 53.436C143.794 53.8801 144.451 54.6137 144.846 55.4535C144.856 55.5211 144.924 55.5114 144.991 55.5018C145.059 55.4921 145.049 55.4246 145.049 55.4246C144.981 54.9516 144.702 54.44 144.441 54.0635C144.171 53.6195 143.775 53.2623 143.322 52.9823C142.868 52.7024 142.424 52.49 141.922 52.3548C141.43 52.2872 140.88 52.2967 140.426 52.4994C140.368 52.5766 140.378 52.6442 140.455 52.7021C140.455 52.7021 140.387 52.7117 140.455 52.7021Z" fill="#8A8A8A"/>
<path d="M144.326 46.9786C142.309 45.4051 140.33 46.5149 141.729 48.5903C143.997 51.9206 146.912 53.0213 151.041 66.4963C151.794 68.8708 158.551 61.6325 156.439 53.1093C156.072 51.507 153.997 51.4585 153.997 51.4585C152.752 51.4294 147.511 49.4886 144.326 46.9786Z" fill="url(#paint9_linear_4376_2697)"/>
<path fill-rule="evenodd" clip-rule="evenodd" d="M127.961 81.4427C128.118 79.3941 129.807 77.7998 131.786 77.7998H133.56C135.696 77.7998 137.451 79.5323 137.451 81.6219V90.9041C137.451 91.658 138.062 92.2691 138.816 92.2691C139.57 92.2691 140.181 91.658 140.181 90.9041V81.6219C140.181 77.9783 137.158 75.0697 133.56 75.0697H131.786C128.307 75.0697 125.493 77.8392 125.238 81.2468L125.236 81.2645C125.139 82.8328 125.049 84.8048 124.945 87.0879C124.532 96.1579 123.896 110.137 121.687 123.216C120.304 131.4 118.322 139.12 115.448 144.998C112.559 150.906 108.924 154.655 104.375 155.493L104.372 155.493C81.5628 159.745 62.534 155.938 50.4538 148.637C49.6333 148.138 49.2151 147.763 49.0291 147.525C49.1079 147.461 49.2373 147.37 49.444 147.259C49.896 147.016 50.5481 146.768 51.4032 146.517C53.1099 146.016 55.3843 145.573 57.9459 145.112C58.5314 145.006 59.131 144.9 59.7397 144.792C61.7589 144.435 63.878 144.06 65.9116 143.637C66.5425 143.52 67.0696 143.175 67.4066 142.67C67.7325 142.181 67.8316 141.617 67.7743 141.112C67.66 140.102 66.8457 139.021 65.4454 139.021H28.18C27.4261 139.021 26.8149 139.633 26.8149 140.387C26.8149 141.14 27.4261 141.752 28.18 141.752H61.243C60.5896 141.869 59.9374 141.985 59.2906 142.099C58.6751 142.208 58.0645 142.316 57.4624 142.425C54.9158 142.883 52.5022 143.349 50.6342 143.897C49.7019 144.171 48.845 144.482 48.153 144.853C47.5012 145.203 46.7761 145.721 46.4246 146.516C46.0091 147.457 46.272 148.381 46.801 149.104C47.2907 149.774 48.0729 150.385 49.0388 150.972L49.0414 150.973C61.8046 158.687 81.542 162.525 104.871 158.177C110.695 157.104 114.873 152.389 117.901 146.197C120.944 139.972 122.98 131.952 124.379 123.67C126.62 110.402 127.266 96.1767 127.678 87.1232C127.78 84.8817 127.867 82.9572 127.961 81.4427Z" fill="#CBCBCB"/>
<path d="M139.119 77.7813C139.903 81.1027 137.199 82.7222 133.546 83.584C129.892 84.4459 126.75 84.2053 125.966 80.8839C125.183 77.5625 127.479 74.2159 131.133 73.354C134.786 72.4922 138.336 74.4599 139.119 77.7813Z" fill="#5C5C5C"/>
<path d="M135.608 108.24C134.926 108.24 134.38 107.694 134.38 107.012V102.234C134.38 101.552 134.926 101.006 135.608 101.006C136.291 101.006 136.837 101.552 136.837 102.234V107.012C136.837 107.763 136.291 108.24 135.608 108.24Z" fill="#F5F2EC"/>
<path d="M141.956 108.24C141.273 108.24 140.727 107.694 140.727 107.011V102.234C140.727 101.551 141.273 101.005 141.956 101.005C142.638 101.005 143.184 101.551 143.184 102.234V107.011C143.184 107.762 142.638 108.24 141.956 108.24Z" fill="#F5F2EC"/>
<path d="M145.163 102.302H132.605V100.869C132.605 97.388 135.403 91.3818 138.884 91.3818C142.365 91.3818 145.163 97.388 145.163 100.869V102.302Z" fill="#F5F2EC"/>
<path d="M198.195 104.691H172.328C171.236 104.691 170.417 103.803 170.417 102.78V75.206C170.417 74.114 171.304 73.295 172.328 73.295H198.195C199.287 73.295 200.106 74.1823 200.106 75.206V102.78C200.174 103.803 199.287 104.691 198.195 104.691Z" fill="#3A3A3A"/>
<path d="M194.987 88.447C194.987 91.6549 193.417 94.5897 191.029 96.3642H179.358C176.969 94.5897 175.399 91.7231 175.399 88.447C175.399 85.2392 176.969 82.3044 179.358 80.5298H191.029C193.417 82.3726 194.987 85.2392 194.987 88.447Z" fill="#8C8C8C"/>
<path d="M181.541 88.993C181.063 88.993 180.654 88.5835 180.654 88.1057V85.1709C180.654 84.6931 181.063 84.2836 181.541 84.2836C182.019 84.2836 182.428 84.6931 182.428 85.1709V88.1057C182.428 88.5835 182.019 88.993 181.541 88.993Z" fill="#3A3A3A"/>
<path d="M188.708 88.993C188.23 88.993 187.821 88.5835 187.821 88.1057V85.1709C187.821 84.6931 188.23 84.2836 188.708 84.2836C189.186 84.2836 189.595 84.6931 189.595 85.1709V88.1057C189.595 88.5835 189.186 88.993 188.708 88.993Z" fill="#3A3A3A"/>
<path d="M185.978 93.2246H184.203C183.794 93.2246 183.384 92.8833 183.384 92.4055V91.5183C183.384 90.5627 184.135 89.812 185.091 89.812C186.046 89.812 186.797 90.5627 186.797 91.5183V92.4055C186.797 92.815 186.456 93.2246 185.978 93.2246Z" fill="#3A3A3A"/>
<path d="M173.556 77.4584C174.197 77.4584 174.716 76.9389 174.716 76.2981C174.716 75.6573 174.197 75.1378 173.556 75.1378C172.915 75.1378 172.396 75.6573 172.396 76.2981C172.396 76.9389 172.915 77.4584 173.556 77.4584Z" fill="#5C5C5C"/>
<path d="M197.103 77.4584C197.743 77.4584 198.263 76.9389 198.263 76.2981C198.263 75.6573 197.743 75.1378 197.103 75.1378C196.462 75.1378 195.942 75.6573 195.942 76.2981C195.942 76.9389 196.462 77.4584 197.103 77.4584Z" fill="#5C5C5C"/>
<path d="M173.556 102.916C174.197 102.916 174.716 102.397 174.716 101.756C174.716 101.115 174.197 100.596 173.556 100.596C172.915 100.596 172.396 101.115 172.396 101.756C172.396 102.397 172.915 102.916 173.556 102.916Z" fill="#5C5C5C"/>
<path d="M197.103 102.916C197.743 102.916 198.263 102.397 198.263 101.756C198.263 101.115 197.743 100.596 197.103 100.596C196.462 100.596 195.942 101.115 195.942 101.756C195.942 102.397 196.462 102.916 197.103 102.916Z" fill="#5C5C5C"/>
<path d="M119.371 0L123.556 1.52884L124.641 28.8897L122.368 27.9408L119.371 0Z" fill="#8E8E8E"/>
<path d="M122.575 31.0511L124.641 32.0528V34.7414L122.575 33.8979V31.0511Z" fill="#8E8E8E"/>
<path d="M128.154 13.7596L132.339 15.1303V32.7383L130.014 31.7894L128.154 13.7596Z" fill="#8E8E8E"/>
<path d="M130.221 34.7415L132.339 35.6904V38.2209L130.221 37.4302V34.7415Z" fill="#8E8E8E"/>
</g>
<defs>
<linearGradient id="paint0_linear_4376_2697" x1="134.771" y1="105.688" x2="134.771" y2="132.845" gradientUnits="userSpaceOnUse">
<stop stop-color="#5C5C5C"/>
<stop offset="0.9964" stop-color="#4D4D4D"/>
</linearGradient>
<linearGradient id="paint1_linear_4376_2697" x1="105.739" y1="63.9443" x2="105.739" y2="134.708" gradientUnits="userSpaceOnUse">
<stop stop-color="#585858"/>
<stop offset="1" stop-color="#3B3B3B"/>
<stop offset="1" stop-color="#454545"/>
</linearGradient>
<linearGradient id="paint2_linear_4376_2697" x1="115.895" y1="109.641" x2="115.895" y2="135.468" gradientUnits="userSpaceOnUse">
<stop stop-color="#5C5C5C"/>
<stop offset="0.9964" stop-color="#4D4D4D"/>
</linearGradient>
<linearGradient id="paint3_linear_4376_2697" x1="127.367" y1="46.2658" x2="132.661" y2="83.3558" gradientUnits="userSpaceOnUse">
<stop stop-color="#585858"/>
<stop offset="1" stop-color="#3B3B3B"/>
<stop offset="1" stop-color="#454545"/>
</linearGradient>
<linearGradient id="paint4_linear_4376_2697" x1="107.762" y1="51.3515" x2="110.951" y2="73.6924" gradientUnits="userSpaceOnUse">
<stop stop-color="#A6A6A6"/>
<stop offset="0.9964" stop-color="#878787"/>
</linearGradient>
<linearGradient id="paint5_linear_4376_2697" x1="130.463" y1="66.5527" x2="132.957" y2="84.0259" gradientUnits="userSpaceOnUse">
<stop stop-color="#A6A6A6"/>
<stop offset="0.9964" stop-color="#878787"/>
</linearGradient>
<linearGradient id="paint6_linear_4376_2697" x1="118.61" y1="60.508" x2="119.748" y2="68.4809" gradientUnits="userSpaceOnUse">
<stop stop-color="#FFFCF7"/>
<stop offset="1" stop-color="#EFECE6"/>
</linearGradient>
<linearGradient id="paint7_linear_4376_2697" x1="119.267" y1="61.7242" x2="120.154" y2="67.9403" gradientUnits="userSpaceOnUse">
<stop stop-color="#474747"/>
<stop offset="1" stop-color="#2C2C2C"/>
</linearGradient>
<linearGradient id="paint8_linear_4376_2697" x1="140.483" y1="58.696" x2="141.37" y2="64.9122" gradientUnits="userSpaceOnUse">
<stop stop-color="#474747"/>
<stop offset="1" stop-color="#2C2C2C"/>
</linearGradient>
<linearGradient id="paint9_linear_4376_2697" x1="148.115" y1="44.9024" x2="151.304" y2="67.2434" gradientUnits="userSpaceOnUse">
<stop stop-color="#A6A6A6"/>
<stop offset="0.9964" stop-color="#878787"/>
</linearGradient>
<clipPath id="clip0_4376_2697">
<rect width="230" height="160" fill="white"/>
</clipPath>
</defs>
</svg>
