<svg width="230" height="160" viewBox="0 0 230 160" fill="none" xmlns="http://www.w3.org/2000/svg">
<g clip-path="url(#clip0_982_6212)">
<path fill-rule="evenodd" clip-rule="evenodd" d="M81.1992 138.855C81.1992 138.29 81.6576 137.832 82.223 137.832H182.451C183.016 137.832 183.474 138.29 183.474 138.855C183.474 139.421 183.016 139.879 182.451 139.879H82.223C81.6576 139.879 81.1992 139.421 81.1992 138.855Z" fill="#E4DFD9"/>
<path fill-rule="evenodd" clip-rule="evenodd" d="M191.214 138.855C191.214 138.29 191.673 137.832 192.238 137.832H202.165C202.73 137.832 203.188 138.29 203.188 138.855C203.188 139.421 202.73 139.879 202.165 139.879H192.238C191.673 139.879 191.214 139.421 191.214 138.855Z" fill="#E4DFD9"/>
<path d="M84.4195 131.24C87.4727 131.24 89.9479 128.765 89.9479 125.712C89.9479 122.659 87.4727 120.184 84.4195 120.184C81.3663 120.184 78.8911 122.659 78.8911 125.712C78.8911 128.765 81.3663 131.24 84.4195 131.24Z" fill="url(#paint0_linear_982_6212)"/>
<path d="M138.543 108.24C138.611 116.976 139.362 128.033 139.635 129.193C139.567 130.421 136.973 134.312 134.857 131.65C132.741 128.988 128.442 123.255 130.421 112.471C132.4 101.756 138.543 108.24 138.543 108.24Z" fill="url(#paint1_linear_982_6212)"/>
<g filter="url(#filter0_d_982_6212)">
<path d="M83.6687 131.172C83.6687 131.209 83.6687 131.264 83.6791 131.319C83.6959 131.408 83.7425 131.496 83.7711 131.582C83.7997 131.668 83.8406 131.757 83.8694 131.843C83.888 131.898 83.9049 131.954 83.9417 131.991C84.1032 132.153 84.2084 132.362 84.3667 132.527C84.7212 132.896 85.2304 133.229 85.7845 133.561C85.8409 133.589 85.9088 133.617 85.9788 133.646C86.1681 133.722 86.3911 133.758 86.5353 133.902C86.5416 133.909 86.5484 133.914 86.5557 133.919C86.7054 134.027 86.9027 134.062 87.0813 134.107C87.3724 134.224 87.7132 134.34 88.0613 134.414C88.1808 134.439 88.3054 134.472 88.4248 134.498C88.6704 134.552 88.9116 134.62 89.1615 134.647C89.1942 134.651 89.2287 134.653 89.2654 134.653C89.4019 134.653 89.5384 134.721 89.6749 134.721C90.7669 134.858 91.7907 134.79 92.678 134.448C93.9885 133.953 94.9635 133.234 95.6507 132.573C96.5557 131.702 97.8443 131.109 99.0936 131.24C101.551 131.582 105.646 132.06 109.195 131.718C110.355 131.582 111.584 131.309 112.88 130.967C113.29 130.831 113.699 130.694 114.177 130.558C114.996 130.285 115.747 129.944 116.566 129.602C118.75 128.647 120.798 127.35 122.504 125.917C122.603 125.851 122.702 125.769 122.801 125.686C123.007 125.515 123.218 125.349 123.41 125.162C124.241 124.355 124.956 123.498 125.507 122.641C126.736 120.525 128.374 118.75 130.148 117.044C132.81 114.519 135.949 112.335 138.816 110.014C139.703 109.332 140.591 108.581 141.41 107.898C144.071 105.578 146.46 102.848 148.098 99.7082C149.873 96.2957 149.873 93.0878 149.6 89.334C149.6 89.1292 149.19 86.6722 149.327 86.6039C150.555 85.7849 151.443 84.6246 151.92 83.1913C153.012 80.3248 152.603 76.6392 151.306 74.2504C151.17 73.9774 151.033 73.7044 150.897 73.4996C149.532 71.1108 147.894 68.3125 146.051 66.4697L144.171 64.5898C143.233 63.6522 141.961 63.1254 140.635 63.1254H117.843C115.409 63.1254 113.331 64.8777 112.869 67.2672C112.85 67.3645 112.831 67.4627 112.812 67.5617C112.787 67.6387 112.771 67.7157 112.757 67.7926C112.711 68.0498 112.656 68.3057 112.609 68.5626C112.558 68.8432 112.496 69.1239 112.403 69.4045C112.34 69.5925 112.335 69.7805 112.282 69.9686C112.272 70.002 112.27 70.0345 112.264 70.0687C112.251 70.1375 112.193 70.1929 112.181 70.262C112.11 70.695 111.988 71.0785 111.925 71.5203C111.664 72.8258 111.34 74.0064 110.954 75.0024C110.92 75.092 110.896 75.1876 110.865 75.2788C110.837 75.3647 110.817 75.4542 110.784 75.5388C110.596 76.0313 110.407 76.4614 110.219 76.7757C108.581 79.4375 100.254 87.0817 94.4525 91.3815C88.6511 95.6814 85.9893 102.984 84.4878 114.792C82.7815 126.531 83.3957 128.92 83.6687 131.172Z" fill="url(#paint2_linear_982_6212)"/>
</g>
<path d="M135.833 128.037C136.002 127.989 136.176 127.955 136.35 127.937C139.975 127.574 139.959 127.964 142.092 127.964C144.276 127.964 144.823 129.057 145.642 130.08C146.119 130.763 146.802 132.742 147.211 134.175C147.484 134.994 146.87 135.745 146.051 135.813C143.594 135.813 139.158 135.882 138.407 135.813C137.315 135.677 134.994 135.404 133.97 133.698C133.629 133.083 133.424 132.264 133.22 131.445C132.96 129.951 133.876 128.456 135.378 128.14C135.53 128.108 135.684 128.08 135.833 128.037Z" fill="url(#paint3_linear_982_6212)"/>
<path opacity="0.3" d="M83.6684 131.172C83.8731 133.424 89.4698 135.54 92.5411 134.38C95.6807 133.22 96.8409 130.831 96.8409 130.831C96.8409 130.831 103.598 132.196 109.058 131.718C113.153 131.309 118.681 128.92 122.299 125.849L121.821 115.474C121.821 115.474 121.412 106.397 121.002 102.438C120.661 98.4797 123.8 98.5479 123.664 93.429C123.459 88.3102 125.507 79.2327 128.168 70.906L118.886 63.9443L112.539 67.5617C111.925 70.9743 110.901 75.2741 110.014 76.8439C108.375 79.5057 100.049 87.1499 94.2474 91.4497C88.446 95.7496 85.7842 103.053 84.2826 114.86C82.7811 126.531 83.3954 128.92 83.6684 131.172Z" fill="#CDBCA1"/>
<path opacity="0.4" d="M83.6684 131.172C83.6684 131.24 83.6684 131.377 83.7366 131.445C83.7366 131.513 83.8049 131.65 83.8049 131.718C83.8731 131.786 83.8731 131.923 83.9414 131.991C84.0096 132.059 84.0779 132.128 84.1461 132.264C84.4874 132.742 85.1017 133.151 85.7842 133.561C85.9207 133.629 86.1254 133.697 86.2619 133.766C86.3302 133.834 86.4667 133.834 86.535 133.902C86.6032 133.97 86.7397 133.97 86.808 134.039L87.081 134.107C87.4222 134.243 87.8317 134.38 88.2412 134.448C88.446 134.516 88.5825 134.516 88.7873 134.585C89.7428 133.97 90.2888 133.561 90.2888 133.561C90.2888 133.561 90.2888 133.561 89.8793 131.104C89.7428 130.353 89.6063 129.329 89.4015 127.964C88.5142 122.299 89.1285 111.106 96.7044 111.447C95.8854 105.714 99.025 99.3669 101.755 95.34C104.553 91.3814 106.601 93.5655 108.99 96.2955C109.263 95.1353 108.034 90.4942 106.533 86.3991C109.604 90.0846 112.334 91.3814 119.637 92.0639C116.361 89.3339 115.951 87.9006 113.29 81.8944C116.634 83.4642 123.459 85.307 127.554 85.853C137.451 87.1498 145.982 86.6721 151.715 83.1912C152.807 80.3247 152.398 76.6391 151.101 74.2503C150.965 73.9773 150.828 73.7043 150.691 73.4995C145.436 73.0217 136.495 72.271 128.1 71.5202C121.958 70.9742 116.088 70.4282 112.129 70.0869C112.129 70.1552 112.129 70.1552 112.061 70.2234C111.993 70.7012 111.856 71.1107 111.788 71.5884C111.515 72.9535 111.174 74.182 110.764 75.2058C110.764 75.274 110.696 75.4105 110.696 75.4788C110.491 76.0248 110.287 76.5026 110.082 76.8438C108.444 79.5056 100.117 87.1498 94.3156 91.4497C88.5143 95.7495 85.8524 103.052 84.3509 114.86C82.7811 126.531 83.3954 128.92 83.6684 131.172Z" fill="#D0C2AB"/>
<path d="M122.914 135.199C122.914 135.199 122.367 126.941 122.299 125.849C122.231 125.098 117.795 128.647 113.7 121.071C109.604 113.495 108.99 112.13 109.127 110.219C107.898 119.842 111.72 126.326 112.471 129.807C113.222 133.288 113.904 133.152 113.904 133.152L120.798 134.517L122.914 135.199Z" fill="url(#paint4_linear_982_6212)"/>
<path d="M116.088 129.602C119.979 129.125 119.91 129.602 122.094 129.602C124.279 129.602 124.825 130.763 125.644 131.855C126.121 132.537 126.804 134.721 127.213 136.291C127.486 137.178 126.872 137.997 126.053 137.997C123.596 137.997 118.136 137.929 117.385 137.861C116.293 137.724 114.996 137.52 114.041 135.677C113.7 134.994 113.495 134.107 113.29 133.22C113.04 131.656 113.879 130.15 115.281 129.699C115.54 129.615 115.816 129.602 116.088 129.602Z" fill="url(#paint5_linear_982_6212)"/>
<path d="M98.3424 130.763C100.117 131.855 101.141 134.448 101.687 136.291C101.96 137.178 101.345 137.997 100.526 137.997C98.0694 137.997 92.6093 137.929 91.8585 137.861C87.5587 137.315 87.0809 132.605 90.357 130.763C92.4045 129.534 96.2949 129.466 98.3424 130.763Z" fill="url(#paint6_linear_982_6212)"/>
<g filter="url(#filter1_d_982_6212)">
<path d="M145.605 77.6827C144.997 78.2521 144.312 78.7636 143.617 79.2075C142.671 79.8251 141.648 80.3848 140.615 80.8769C137.449 82.363 134.08 83.3954 130.518 83.559C127.574 83.7034 124.447 83.5293 121.561 82.6313C120.557 82.3609 119.534 81.9554 118.646 81.5306C113.531 79.0204 110.616 76.9545 110.211 71.221C109.849 66.0891 110.02 61.9858 110.06 61.1812C110.065 61.0838 110.065 60.9884 110.082 60.8924C110.143 60.5501 110.393 60.1353 110.574 59.7836C110.694 59.5515 110.797 59.3106 110.904 59.0725C111.094 58.6511 111.257 58.2103 111.468 57.8045C111.941 56.7718 112.472 55.6618 113.022 54.687C114.239 52.583 115.774 50.7782 117.724 49.4657C120.87 47.3619 124.683 46.542 128.419 46.1467C131.131 45.8285 133.94 45.7034 136.662 46.418C139.026 47.0457 141.053 48.2042 142.868 49.8067C144.595 51.314 145.995 53.1332 147.479 54.88C147.89 55.3646 148.218 55.9149 148.416 56.5192C148.917 58.0483 149.941 61.3663 150.819 65.425C152.035 71.0427 149.805 73.774 145.605 77.6827Z" fill="url(#paint7_linear_982_6212)"/>
</g>
<path d="M122.895 68.79C122.18 69.5814 121.514 72.1585 117.586 71.2024C112.007 69.7925 111.564 62.8235 114.161 60.2467C118.804 55.5852 124.402 56.6477 125.946 61.667C127.538 67.0242 124.333 67.2748 122.895 68.79Z" fill="#EDE5DA"/>
<path d="M111.99 52.2834C113.487 50.2083 115.697 50.7202 114.934 53.1042C113.689 56.936 111.198 58.8082 111.003 72.9005C110.945 75.3907 102.432 70.3319 102.076 61.558C101.98 59.9171 103.959 59.2899 103.959 59.2899C105.146 58.9136 109.635 55.5842 111.99 52.2834Z" fill="url(#paint8_linear_982_6212)"/>
<path d="M142.932 75.3754C143.173 77.0645 142.932 78.7537 142.314 80.2207C141.493 80.7515 140.595 81.2243 139.698 81.6972C136.918 82.9903 133.945 83.8972 130.933 84.0513C128.404 84.2054 125.615 83.983 123.096 83.2395C121.938 81.8881 121.233 80.334 120.973 78.5097C120.182 72.9692 124.478 67.8058 130.559 66.9378C136.572 66.0795 142.141 69.8349 142.932 75.3754Z" fill="#EDE5DA"/>
<path d="M119.748 68.4809C121.95 68.1667 123.48 66.1271 123.166 63.9255C122.852 61.7238 120.812 60.1938 118.61 60.508C116.409 60.8223 114.879 62.8618 115.193 65.0635C115.507 67.2651 117.547 68.7952 119.748 68.4809Z" fill="white"/>
<path d="M122.818 64.3886C123.06 66.0777 121.843 67.6992 120.154 67.9403C118.465 68.1814 116.843 66.965 116.602 65.2758C116.911 65.5075 117.278 65.662 117.683 65.6041C118.427 65.498 119.015 64.7935 118.9 63.9827C118.794 63.2394 118.099 62.7181 117.346 62.7567C117.819 62.2065 118.524 61.8302 119.267 61.7241C121.024 61.4734 122.568 62.6318 122.818 64.3886Z" fill="url(#paint9_linear_982_6212)"/>
<path d="M141.911 65.3176C144.112 65.0033 145.642 62.9638 145.328 60.7622C145.014 58.5605 142.974 57.0305 140.773 57.3447C138.571 57.659 137.041 59.6985 137.355 61.9001C137.669 64.1018 139.709 65.6318 141.911 65.3176Z" fill="white"/>
<path d="M137.818 62.2476C138.059 63.9368 139.681 65.1532 141.37 64.9121C143.059 64.671 144.275 63.0495 144.034 61.3604C143.803 61.6692 143.494 61.9201 143.088 61.978C142.345 62.0841 141.583 61.5724 141.467 60.7616C141.361 60.0184 141.882 59.3235 142.616 59.1498C142.008 58.754 141.226 58.5898 140.483 58.6959C138.793 58.937 137.567 60.4909 137.818 62.2476Z" fill="url(#paint10_linear_982_6212)"/>
<path d="M130.656 67.6134C130.115 67.6906 129.584 67.8353 129.063 68.0476C128.416 68.3467 127.451 68.8292 127.576 69.7076C127.731 70.7886 130.443 71.4357 131.118 71.3392C131.794 71.2428 134.227 69.9304 134.063 68.7818C133.908 67.7007 132.847 67.5075 131.949 67.4977C131.534 67.488 131.051 67.488 130.656 67.6134Z" fill="#A49884"/>
<path d="M131.359 71.098L131.109 70.7891L130.954 71.1558C130.954 71.1558 131.089 73.5496 130.654 74.37C131.06 74.7947 131.398 74.7465 131.523 74.6597C131.735 74.6983 132.073 74.6501 132.276 74.1385C131.774 73.5207 131.359 71.098 131.359 71.098Z" fill="#A49884"/>
<path d="M117.549 55.9713C116.642 56.3766 115.87 56.7626 115.271 57.3995C114.673 58.0365 114.248 58.9245 114.103 59.8414C114.113 59.909 114.045 59.9186 113.977 59.9283C113.91 59.9379 113.9 59.8703 113.9 59.8703C113.833 59.3974 113.958 58.8279 114.103 58.3936C114.238 57.8917 114.518 57.4381 114.875 57.0424C115.233 56.6467 115.599 56.3185 116.043 56.0483C116.497 55.8457 117.028 55.701 117.52 55.7686C117.597 55.8265 117.675 55.8844 117.549 55.9713C117.617 55.9616 117.617 55.9616 117.549 55.9713Z" fill="#BCB9B3"/>
<path d="M140.454 52.702C141.439 52.8372 142.288 52.9918 143.041 53.4359C143.794 53.88 144.45 54.6136 144.846 55.4534C144.855 55.521 144.923 55.5113 144.991 55.5017C145.058 55.4921 145.049 55.4245 145.049 55.4245C144.981 54.9515 144.701 54.4399 144.441 54.0634C144.17 53.6194 143.775 53.2622 143.321 52.9823C142.867 52.7023 142.423 52.4899 141.922 52.3547C141.429 52.2871 140.879 52.2966 140.425 52.4993C140.368 52.5765 140.377 52.6441 140.454 52.702C140.454 52.702 140.387 52.7116 140.454 52.702Z" fill="#BCB9B3"/>
<path d="M144.325 46.9786C142.308 45.405 140.329 46.5148 141.729 48.5902C143.997 51.9205 146.911 53.0212 151.041 66.4962C151.793 68.8708 158.551 61.6324 156.438 53.1092C156.072 51.5069 153.996 51.4584 153.996 51.4584C152.751 51.4293 147.51 49.4886 144.325 46.9786Z" fill="url(#paint11_linear_982_6212)"/>
<path fill-rule="evenodd" clip-rule="evenodd" d="M127.961 81.4427C128.118 79.3941 129.807 77.7998 131.786 77.7998H133.56C135.696 77.7998 137.451 79.5323 137.451 81.6219V90.9041C137.451 91.658 138.062 92.2691 138.816 92.2691C139.57 92.2691 140.181 91.658 140.181 90.9041V81.6219C140.181 77.9783 137.158 75.0697 133.56 75.0697H131.786C128.307 75.0697 125.493 77.8392 125.238 81.2468L125.236 81.2645C125.139 82.8328 125.049 84.8048 124.945 87.0879C124.532 96.1579 123.896 110.137 121.687 123.216C120.304 131.4 118.322 139.12 115.448 144.998C112.559 150.906 108.924 154.655 104.375 155.493L104.372 155.493C81.5628 159.745 62.534 155.938 50.4538 148.637C49.6333 148.138 49.2151 147.763 49.0291 147.525C49.1079 147.461 49.2373 147.37 49.444 147.259C49.896 147.016 50.5481 146.768 51.4032 146.517C53.1099 146.016 55.3843 145.573 57.9459 145.112C58.5314 145.006 59.131 144.9 59.7397 144.792C61.7589 144.435 63.878 144.06 65.9116 143.637C66.5425 143.52 67.0696 143.175 67.4066 142.67C67.7325 142.181 67.8316 141.617 67.7743 141.112C67.66 140.102 66.8457 139.021 65.4454 139.021H28.18C27.4261 139.021 26.8149 139.633 26.8149 140.387C26.8149 141.14 27.4261 141.752 28.18 141.752H61.243C60.5896 141.869 59.9374 141.985 59.2906 142.099C58.6751 142.208 58.0645 142.316 57.4624 142.425C54.9158 142.883 52.5022 143.349 50.6342 143.897C49.7019 144.171 48.845 144.482 48.153 144.853C47.5012 145.203 46.7761 145.721 46.4246 146.516C46.0091 147.457 46.272 148.381 46.801 149.104C47.2907 149.774 48.0729 150.385 49.0388 150.972L49.0414 150.973C61.8046 158.687 81.542 162.525 104.871 158.177C110.695 157.104 114.873 152.389 117.901 146.197C120.944 139.972 122.98 131.952 124.379 123.67C126.62 110.402 127.266 96.1767 127.678 87.1232C127.78 84.8817 127.867 82.9572 127.961 81.4427Z" fill="#BCB9B3"/>
<path d="M139.119 77.7813C139.903 81.1027 137.199 82.7221 133.546 83.584C129.892 84.4458 126.75 84.2053 125.966 80.8838C125.183 77.5624 127.479 74.2158 131.133 73.354C134.786 72.4922 138.336 74.4598 139.119 77.7813Z" fill="#A49884"/>
<path d="M135.608 108.24C134.926 108.24 134.38 107.694 134.38 107.012V102.234C134.38 101.552 134.926 101.006 135.608 101.006C136.291 101.006 136.837 101.552 136.837 102.234V107.012C136.837 107.763 136.291 108.24 135.608 108.24Z" fill="#AEAAA1"/>
<path d="M141.956 108.24C141.273 108.24 140.727 107.694 140.727 107.011V102.234C140.727 101.551 141.273 101.005 141.956 101.005C142.638 101.005 143.184 101.551 143.184 102.234V107.011C143.184 107.762 142.638 108.24 141.956 108.24Z" fill="#AEAAA1"/>
<path d="M145.163 102.302H132.605V100.869C132.605 97.388 135.403 91.3818 138.884 91.3818C142.365 91.3818 145.163 97.388 145.163 100.869V102.302Z" fill="#AEAAA1"/>
<g filter="url(#filter2_d_982_6212)">
<path d="M198.195 104.691H172.328C171.236 104.691 170.417 103.803 170.417 102.78V75.206C170.417 74.1139 171.304 73.2949 172.328 73.2949H198.195C199.287 73.2949 200.106 74.1822 200.106 75.206V102.78C200.174 103.803 199.287 104.691 198.195 104.691Z" fill="url(#paint12_linear_982_6212)"/>
</g>
<path d="M194.987 88.447C194.987 91.6548 193.417 94.5896 191.029 96.3642H179.358C176.969 94.5896 175.399 91.7231 175.399 88.447C175.399 85.2391 176.969 82.3043 179.358 80.5298H191.029C193.417 82.3726 194.987 85.2391 194.987 88.447Z" fill="#E4DFD9"/>
<path d="M181.541 88.9929C181.063 88.9929 180.654 88.5834 180.654 88.1057V85.1708C180.654 84.6931 181.063 84.2836 181.541 84.2836C182.019 84.2836 182.428 84.6931 182.428 85.1708V88.1057C182.428 88.5834 182.019 88.9929 181.541 88.9929Z" fill="#777777"/>
<path d="M188.708 88.9929C188.23 88.9929 187.821 88.5834 187.821 88.1057V85.1708C187.821 84.6931 188.23 84.2836 188.708 84.2836C189.186 84.2836 189.595 84.6931 189.595 85.1708V88.1057C189.595 88.5834 189.186 88.9929 188.708 88.9929Z" fill="#777777"/>
<path d="M185.978 93.2245H184.203C183.794 93.2245 183.384 92.8832 183.384 92.4054V91.5182C183.384 90.5627 184.135 89.8119 185.091 89.8119C186.046 89.8119 186.797 90.5627 186.797 91.5182V92.4054C186.797 92.815 186.456 93.2245 185.978 93.2245Z" fill="#777777"/>
<path d="M173.556 77.4583C174.197 77.4583 174.716 76.9388 174.716 76.298C174.716 75.6572 174.197 75.1377 173.556 75.1377C172.915 75.1377 172.396 75.6572 172.396 76.298C172.396 76.9388 172.915 77.4583 173.556 77.4583Z" fill="#BCB9B3"/>
<path d="M197.103 77.4583C197.743 77.4583 198.263 76.9388 198.263 76.298C198.263 75.6572 197.743 75.1377 197.103 75.1377C196.462 75.1377 195.942 75.6572 195.942 76.298C195.942 76.9388 196.462 77.4583 197.103 77.4583Z" fill="#BCB9B3"/>
<path d="M173.556 102.916C174.197 102.916 174.716 102.397 174.716 101.756C174.716 101.115 174.197 100.596 173.556 100.596C172.915 100.596 172.396 101.115 172.396 101.756C172.396 102.397 172.915 102.916 173.556 102.916Z" fill="#BCB9B3"/>
<path d="M197.103 102.916C197.743 102.916 198.263 102.397 198.263 101.756C198.263 101.115 197.743 100.596 197.103 100.596C196.462 100.596 195.942 101.115 195.942 101.756C195.942 102.397 196.462 102.916 197.103 102.916Z" fill="#BCB9B3"/>
<path d="M119.371 0L123.556 1.52884L124.641 28.8897L122.368 27.9408L119.371 0Z" fill="#BCB9B3"/>
<path d="M122.575 31.0511L124.641 32.0528V34.7414L122.575 33.8979V31.0511Z" fill="#BCB9B3"/>
<path d="M128.154 13.7596L132.339 15.1303V32.7383L130.014 31.7894L128.154 13.7596Z" fill="#BCB9B3"/>
<path d="M130.221 34.7416L132.339 35.6905V38.221L130.221 37.4302V34.7416Z" fill="#BCB9B3"/>
</g>
<defs>
<filter id="filter0_d_982_6212" x="67.334" y="51.1254" width="101.215" height="103.662" filterUnits="userSpaceOnUse" color-interpolation-filters="sRGB">
<feFlood flood-opacity="0" result="BackgroundImageFix"/>
<feColorMatrix in="SourceAlpha" type="matrix" values="0 0 0 0 0 0 0 0 0 0 0 0 0 0 0 0 0 0 127 0" result="hardAlpha"/>
<feOffset dy="4"/>
<feGaussianBlur stdDeviation="8"/>
<feColorMatrix type="matrix" values="0 0 0 0 0.576471 0 0 0 0 0.501961 0 0 0 0 0.396078 0 0 0 0.24 0"/>
<feBlend mode="normal" in2="BackgroundImageFix" result="effect1_dropShadow_982_6212"/>
<feBlend mode="normal" in="SourceGraphic" in2="effect1_dropShadow_982_6212" result="shape"/>
</filter>
<filter id="filter1_d_982_6212" x="87.9849" y="34.8931" width="85.1646" height="81.7112" filterUnits="userSpaceOnUse" color-interpolation-filters="sRGB">
<feFlood flood-opacity="0" result="BackgroundImageFix"/>
<feColorMatrix in="SourceAlpha" type="matrix" values="0 0 0 0 0 0 0 0 0 0 0 0 0 0 0 0 0 0 127 0" result="hardAlpha"/>
<feOffset dy="11"/>
<feGaussianBlur stdDeviation="11"/>
<feColorMatrix type="matrix" values="0 0 0 0 0.576471 0 0 0 0 0.501961 0 0 0 0 0.396078 0 0 0 0.37 0"/>
<feBlend mode="normal" in2="BackgroundImageFix" result="effect1_dropShadow_982_6212"/>
<feBlend mode="normal" in="SourceGraphic" in2="effect1_dropShadow_982_6212" result="shape"/>
</filter>
<filter id="filter2_d_982_6212" x="162.417" y="69.2949" width="45.6934" height="47.3958" filterUnits="userSpaceOnUse" color-interpolation-filters="sRGB">
<feFlood flood-opacity="0" result="BackgroundImageFix"/>
<feColorMatrix in="SourceAlpha" type="matrix" values="0 0 0 0 0 0 0 0 0 0 0 0 0 0 0 0 0 0 127 0" result="hardAlpha"/>
<feOffset dy="4"/>
<feGaussianBlur stdDeviation="4"/>
<feColorMatrix type="matrix" values="0 0 0 0 0.576471 0 0 0 0 0.501961 0 0 0 0 0.396078 0 0 0 0.25 0"/>
<feBlend mode="normal" in2="BackgroundImageFix" result="effect1_dropShadow_982_6212"/>
<feBlend mode="normal" in="SourceGraphic" in2="effect1_dropShadow_982_6212" result="shape"/>
</filter>
<linearGradient id="paint0_linear_982_6212" x1="84.4204" y1="120.568" x2="84.4204" y2="126.774" gradientUnits="userSpaceOnUse">
<stop stop-color="#BEB6AC"/>
<stop offset="1" stop-color="#DED6C9"/>
</linearGradient>
<linearGradient id="paint1_linear_982_6212" x1="134.775" y1="107.208" x2="134.775" y2="121.951" gradientUnits="userSpaceOnUse">
<stop stop-color="#BEB6AC"/>
<stop offset="1" stop-color="#DED6C9"/>
</linearGradient>
<linearGradient id="paint2_linear_982_6212" x1="117.919" y1="61.4678" x2="117.919" y2="135.56" gradientUnits="userSpaceOnUse">
<stop stop-color="#FDFEFF"/>
<stop offset="0.9964" stop-color="#F5F2EC"/>
</linearGradient>
<linearGradient id="paint3_linear_982_6212" x1="140.222" y1="127.596" x2="140.222" y2="135.931" gradientUnits="userSpaceOnUse">
<stop stop-color="#FDFEFF"/>
<stop offset="0.9964" stop-color="#F5F2EC"/>
</linearGradient>
<linearGradient id="paint4_linear_982_6212" x1="115.9" y1="111.087" x2="115.9" y2="125.108" gradientUnits="userSpaceOnUse">
<stop stop-color="#BEB6AC"/>
<stop offset="1" stop-color="#DED6C9"/>
</linearGradient>
<linearGradient id="paint5_linear_982_6212" x1="120.258" y1="129.191" x2="120.258" y2="138.09" gradientUnits="userSpaceOnUse">
<stop stop-color="#FDFEFF"/>
<stop offset="0.9964" stop-color="#F5F2EC"/>
</linearGradient>
<linearGradient id="paint6_linear_982_6212" x1="94.981" y1="129.626" x2="94.981" y2="138.085" gradientUnits="userSpaceOnUse">
<stop stop-color="#FDFEFF"/>
<stop offset="0.9964" stop-color="#F5F2EC"/>
</linearGradient>
<linearGradient id="paint7_linear_982_6212" x1="127.231" y1="45.4098" x2="132.705" y2="83.7575" gradientUnits="userSpaceOnUse">
<stop stop-color="#F8F6F2"/>
<stop offset="0.9964" stop-color="#F5F2EC"/>
</linearGradient>
<linearGradient id="paint8_linear_982_6212" x1="107.57" y1="51.496" x2="109.678" y2="64.7295" gradientUnits="userSpaceOnUse">
<stop stop-color="#CAC2B4"/>
<stop offset="0.0001" stop-color="#B1A38D"/>
<stop offset="1" stop-color="#998E7B"/>
</linearGradient>
<linearGradient id="paint9_linear_982_6212" x1="122.128" y1="61.3157" x2="116.351" y2="62.1608" gradientUnits="userSpaceOnUse">
<stop stop-color="#606060"/>
<stop offset="1" stop-color="#7B7B7B"/>
</linearGradient>
<linearGradient id="paint10_linear_982_6212" x1="143.344" y1="58.2875" x2="137.567" y2="59.1326" gradientUnits="userSpaceOnUse">
<stop stop-color="#606060"/>
<stop offset="1" stop-color="#7B7B7B"/>
</linearGradient>
<linearGradient id="paint11_linear_982_6212" x1="147.908" y1="45.059" x2="150.03" y2="58.2805" gradientUnits="userSpaceOnUse">
<stop stop-color="#CAC2B4"/>
<stop offset="0.0001" stop-color="#B1A38D"/>
<stop offset="1" stop-color="#998E7B"/>
</linearGradient>
<linearGradient id="paint12_linear_982_6212" x1="185.253" y1="72.5687" x2="185.253" y2="105.029" gradientUnits="userSpaceOnUse">
<stop stop-color="#FDFEFF"/>
<stop offset="0.9964" stop-color="#F5F2EC"/>
</linearGradient>
<clipPath id="clip0_982_6212">
<rect width="230" height="160" fill="white"/>
</clipPath>
</defs>
</svg>
