<svg xmlns="http://www.w3.org/2000/svg" width="210" height="160" fill="none" viewBox="0 0 210 160">
  <path stroke="#E4DFD9" stroke-linecap="round" stroke-linejoin="round" stroke-miterlimit="10" stroke-width="2.386" d="M66.968 140.47h116.779m11.403 0h11.566"/>
  <path fill="url(#a)" d="M69.526 131.597a6.44 6.44 0 1 0 0-12.882 6.441 6.441 0 0 0 0 12.882Z"/>
  <path fill="url(#b)" d="M132.588 104.798c.079 10.179.954 23.062 1.272 24.414-.079 1.431-3.101 5.964-5.566 2.862-2.466-3.101-7.475-9.781-5.169-22.345 2.306-12.486 9.463-4.931 9.463-4.931Z"/>
  <g filter="url(#c)">
    <path fill="url(#d)" d="M68.652 131.518c0 .042 0 .107.012.171.02.103.074.206.107.306s.081.204.115.304c.021.064.04.13.084.173l.005.005c.185.185.304.425.485.614.413.432 1.009.821 1.657 1.21.066.033.145.066.226.099.22.088.48.131.649.299a.209.209 0 0 0 .023.02c.175.124.405.166.613.218.34.136.736.272 1.142.358.139.03.284.067.423.098.286.062.567.142.859.174.038.004.078.006.12.006.16 0 .319.08.478.08 1.272.159 2.465.08 3.499-.318a10.152 10.152 0 0 0 3.463-2.185c1.055-1.015 2.556-1.706 4.012-1.553 2.863.398 7.634.955 11.77.557 1.351-.159 2.782-.477 4.293-.875.478-.159.955-.318 1.511-.477.955-.318 1.829-.716 2.784-1.113a29 29 0 0 0 6.918-4.294c.133-.089.265-.202.398-.312.205-.171.417-.336.61-.521.988-.955 1.839-1.97 2.491-2.984 1.431-2.466 3.34-4.533 5.408-6.521 3.101-2.943 6.759-5.487 10.099-8.191 1.034-.795 2.068-1.67 3.022-2.465 3.101-2.704 5.884-5.885 7.793-9.543 2.068-3.976 2.068-7.714 1.749-12.088 0-.238-.477-3.1-.318-3.18a7.567 7.567 0 0 0 3.022-3.977c1.273-3.34.795-7.634-.715-10.417a8.673 8.673 0 0 0-.478-.875c-1.59-2.783-3.499-6.043-5.646-8.19l-2.432-2.433a4.998 4.998 0 0 0-3.535-1.464h-27.594c-2.434 0-4.514 1.752-4.969 4.143l-.197 1.026a2.1 2.1 0 0 0-.075.333c-.044.257-.104.512-.15.77a7.346 7.346 0 0 1-.252 1.044c-.073.219-.079.438-.141.657-.011.04-.013.077-.021.117-.015.08-.083.145-.096.225-.084.505-.225.951-.299 1.466-.304 1.521-.681 2.897-1.131 4.057-.04.105-.068.216-.103.322-.034.1-.057.205-.095.303-.22.574-.44 1.075-.659 1.441-1.909 3.102-11.61 12.008-18.37 17.018-6.76 5.01-9.86 13.519-11.61 27.276-1.988 13.678-1.272 16.462-.954 19.086Z"/>
  </g>
  <path fill="#CDBCA1" d="M68.652 131.518c.238 2.624 6.76 5.089 10.338 3.737 3.658-1.352 5.01-4.135 5.01-4.135s7.872 1.59 14.234 1.034c4.772-.477 11.213-3.261 15.428-6.839l-.557-12.088s-.477-10.576-.954-15.188c-.398-4.613 3.26-4.533 3.101-10.497-.239-5.965 2.147-16.541 5.249-26.243l-10.816-8.111-7.395 4.215c-.716 3.976-1.909 8.986-2.942 10.815-1.909 3.101-11.61 12.008-18.37 17.018-6.76 5.01-9.86 13.518-11.61 27.276-1.75 13.598-1.034 16.381-.716 19.006Z" opacity=".3"/>
  <path fill="#D0C2AB" d="M68.652 131.518c0 .079 0 .238.08.318 0 .079.079.239.079.318.08.08.08.239.16.318.079.08.158.159.238.318.397.557 1.113 1.034 1.908 1.511.16.08.398.159.557.239.08.079.238.079.318.159.08.079.239.079.318.159l.318.079a6.75 6.75 0 0 0 1.352.398c.239.079.398.079.636.159a32.713 32.713 0 0 0 1.75-1.193l-.478-2.863c-.159-.874-.318-2.067-.556-3.658-1.034-6.6-.318-19.642 8.509-19.244-.954-6.68 2.704-14.076 5.884-18.767 3.26-4.613 5.647-2.068 8.43 1.113.318-1.352-1.114-6.76-2.863-11.53 3.579 4.293 6.759 5.804 15.268 6.6-3.817-3.181-4.294-4.851-7.395-11.85 3.896 1.83 11.849 3.977 16.62 4.613 11.531 1.51 20.535 1.025 27.215-3.03 1.272-3.34.795-7.635-.716-10.418-.159-.318-.318-.636-.477-.875-6.123-.556-15.605-1.502-25.386-2.377-7.157-.636-13.996-1.272-18.608-1.67 0 .08 0 .08-.08.16-.079.556-.238 1.033-.318 1.59-.318 1.59-.715 3.022-1.193 4.214 0 .08-.079.239-.079.319-.239.636-.477 1.192-.716 1.59-1.908 3.101-11.61 12.008-18.37 17.018-6.759 5.01-9.86 13.519-11.61 27.276-1.829 13.598-1.113 16.382-.795 19.006Z" opacity=".4"/>
  <path fill="url(#e)" d="M114.377 136.21s-.636-9.622-.715-10.895c-.08-.875-5.249 3.261-10.02-5.566-4.772-8.827-5.487-10.418-5.328-12.645-1.432 11.213 3.022 18.768 3.896 22.823.875 4.056 1.67 3.897 1.67 3.897l8.032 1.591 2.465.795Z"/>
  <g filter="url(#f)">
    <path fill="url(#g)" d="M129.43 127.865c.196-.056.4-.096.603-.116 4.223-.424 4.204.031 6.69.031 2.545 0 3.181 1.273 4.135 2.466.557.795 1.352 3.101 1.829 4.771.318.954-.397 1.829-1.352 1.909-2.862 0-8.031.079-8.906 0-1.272-.16-3.976-.478-5.169-2.466-.398-.715-.636-1.67-.875-2.624-.303-1.742.764-3.483 2.515-3.852.177-.037.356-.07.53-.119Z"/>
  </g>
  <g filter="url(#h)">
    <path fill="url(#i)" d="M106.425 129.689c4.533-.557 4.453 0 6.998 0s3.181 1.352 4.135 2.624c.557.795 1.352 3.34 1.829 5.169.318 1.034-.398 1.988-1.352 1.988-2.863 0-9.224-.079-10.099-.159-1.273-.159-2.783-.398-3.897-2.545-.397-.795-.636-1.829-.875-2.863-.295-1.844.71-3.619 2.381-4.121.263-.079.541-.093.817-.093h.063Z"/>
  </g>
  <g filter="url(#j)">
    <path fill="url(#k)" d="M85.75 131.041c2.067 1.272 3.26 4.294 3.896 6.441.318 1.034-.398 1.988-1.352 1.988-2.863 0-9.225-.08-10.1-.159-5.01-.636-5.566-6.123-1.749-8.27 2.386-1.432 6.919-1.511 9.304 0Z"/>
  </g>
  <g filter="url(#l)">
    <path fill="url(#m)" d="M140.817 69.195a15.983 15.983 0 0 1-2.317 1.777 30.198 30.198 0 0 1-3.497 1.945c-3.689 1.732-7.614 2.935-11.764 3.125-3.43.169-7.074-.034-10.437-1.08a20.488 20.488 0 0 1-3.396-1.283c-5.96-2.925-9.356-5.332-9.827-12.012-.426-6.029-.22-10.84-.175-11.72.005-.098.004-.194.02-.29.066-.423.39-.944.606-1.374.118-.233.22-.474.329-.712.232-.508.428-1.044.684-1.536.551-1.203 1.169-2.497 1.811-3.632 1.417-2.452 3.205-4.555 5.477-6.084 3.667-2.451 8.109-3.407 12.461-3.867 3.161-.371 6.433-.517 9.605.316 2.755.731 5.116 2.081 7.231 3.948 2.052 1.791 3.708 3.96 5.475 6.032a4.89 4.89 0 0 1 .939 1.638c.563 1.706 1.797 5.66 2.85 10.528 1.416 6.545-1.182 9.727-6.075 14.281Z"/>
  </g>
  <path fill="#EDE5DA" d="M114.356 58.834c-.832.922-1.608 3.925-6.185 2.811-6.5-1.643-7.017-9.763-3.991-12.765 5.41-5.431 11.933-4.193 13.731 1.655 1.855 6.242-1.879 6.534-3.555 8.3Z"/>
  <path fill="url(#n)" d="M101.65 39.602c1.744-2.418 4.319-1.821 3.43.956-1.451 4.465-4.353 6.646-4.58 23.066-.067 2.901-9.986-2.993-10.4-13.216-.113-1.912 2.193-2.642 2.193-2.642 1.383-.439 6.613-4.318 9.357-8.164Z"/>
  <path fill="#EDE5DA" d="M137.703 66.507a10.716 10.716 0 0 1-.721 5.646c-.956.618-2.002 1.169-3.048 1.72-3.239 1.507-6.703 2.563-10.212 2.743-2.946.18-6.196-.08-9.131-.946-1.35-1.575-2.171-3.385-2.474-5.51-.921-6.456 4.084-12.472 11.169-13.484 7.007-1 13.495 3.376 14.417 9.831Z"/>
  <path fill="#fff" d="M110.69 58.474a4.692 4.692 0 1 0-1.326-9.29 4.692 4.692 0 0 0 1.326 9.29Z"/>
  <path fill="url(#o)" d="M114.267 53.706c.281 1.968-1.136 3.857-3.104 4.138-1.968.281-3.858-1.136-4.139-3.104.36.27.788.45 1.26.383.866-.124 1.552-.945 1.417-1.89-.123-.866-.933-1.473-1.81-1.428.551-.641 1.372-1.08 2.238-1.203 2.047-.292 3.846 1.057 4.138 3.104Z"/>
  <path fill="#fff" d="M136.512 54.789a4.692 4.692 0 1 0-1.327-9.29 4.692 4.692 0 0 0 1.327 9.29Z"/>
  <path fill="url(#p)" d="M131.744 51.212c.281 1.968 2.17 3.385 4.138 3.104 1.968-.28 3.386-2.17 3.105-4.138-.27.36-.63.652-1.103.72-.866.123-1.754-.473-1.889-1.418-.123-.866.484-1.675 1.339-1.878-.709-.46-1.62-.652-2.486-.528a3.648 3.648 0 0 0-3.104 4.138Z"/>
  <path fill="#A49884" d="M123.399 57.464a7.84 7.84 0 0 0-1.856.505c-.754.349-1.878.911-1.732 1.934.179 1.26 3.34 2.014 4.127 1.902.787-.113 3.621-1.642 3.43-2.98-.18-1.26-1.417-1.485-2.462-1.496-.484-.012-1.046-.012-1.507.135Z"/>
  <path fill="#A49884" d="m124.219 61.523-.292-.36-.18.428s.157 2.789-.349 3.745c.472.495.865.439 1.012.337.247.045.641-.01.877-.607-.585-.72-1.068-3.543-1.068-3.543Z"/>
  <path fill="#BCB9B3" d="M108.128 43.899c-1.057.472-1.957.922-2.655 1.664-.697.742-1.192 1.777-1.361 2.845.012.079-.067.09-.146.101-.079.011-.09-.067-.09-.067-.079-.551.068-1.215.236-1.72.158-.586.484-1.114.9-1.575.417-.461.844-.844 1.361-1.158.529-.237 1.147-.405 1.721-.326.09.067.18.135.034.236.078-.011.078-.011 0 0Zm26.687-3.809c1.148.157 2.137.337 3.014.854.877.518 1.642 1.373 2.103 2.351.011.079.09.068.169.056.078-.01.067-.09.067-.09-.078-.55-.404-1.147-.708-1.585-.315-.518-.776-.934-1.304-1.26-.529-.326-1.046-.574-1.631-.731-.574-.079-1.215-.068-1.743.168-.068.09-.057.169.033.236 0 0-.078.012 0 0Z"/>
  <path fill="url(#q)" d="M139.326 33.421c-2.35-1.833-4.656-.54-3.025 1.878 2.642 3.88 6.038 5.163 10.85 20.863.877 2.767 8.75-5.667 6.288-15.598-.427-1.867-2.845-1.923-2.845-1.923-1.451-.034-7.557-2.295-11.268-5.22Z"/>
  <path stroke="#BCB9B3" stroke-linecap="round" stroke-linejoin="round" stroke-miterlimit="10" stroke-width="3.181" d="M4 142.254h43.42c1.351 0 1.59 1.988.238 2.226-12.247 2.545-27.038 3.579-18.529 8.748C46 160.185 81 158.224 97.5 155.185c24-4.421 20.058-63.746 21.171-81.718.239-3.181 2.863-5.726 6.044-5.726h2.068c3.34 0 6.123 2.704 6.123 6.044v13.9"/>
  <path fill="#A49884" d="M133.259 69.31c.913 3.87-2.237 5.757-6.494 6.76-4.257 1.005-7.918.725-8.831-3.145-.912-3.87 1.763-7.77 6.02-8.773 4.257-1.005 8.392 1.288 9.305 5.158Z"/>
  <path fill="#AEAAA1" d="M129.168 104.799a1.426 1.426 0 0 1-1.431-1.432V97.8c0-.795.636-1.43 1.431-1.43.796 0 1.432.635 1.432 1.43v5.567c0 .875-.636 1.432-1.432 1.432Zm7.396 0a1.426 1.426 0 0 1-1.431-1.432V97.8c0-.795.636-1.43 1.431-1.43s1.431.635 1.431 1.43v5.567c0 .875-.636 1.432-1.431 1.432Z"/>
  <path fill="#AEAAA1" d="M140.302 97.88h-14.633v-1.67c0-4.055 3.261-11.053 7.317-11.053 4.055 0 7.316 6.998 7.316 11.053v1.67Z"/>
  <g filter="url(#r)">
    <path fill="url(#s)" d="M199.091 100.663h-30.14a2.222 2.222 0 0 1-2.226-2.226V66.31a2.223 2.223 0 0 1 2.226-2.227h30.14a2.222 2.222 0 0 1 2.226 2.227v32.127c.08 1.193-.954 2.226-2.226 2.226Z"/>
  </g>
  <path fill="#E4DFD9" d="M195.353 81.737c0 3.738-1.829 7.157-4.612 9.225h-13.599a11.445 11.445 0 0 1-4.612-9.225c0-3.737 1.829-7.157 4.612-9.224h13.599c2.783 2.147 4.612 5.487 4.612 9.224Z"/>
  <path fill="#777" d="M179.687 82.373a1.053 1.053 0 0 1-1.034-1.034V77.92c0-.557.477-1.034 1.034-1.034s1.034.477 1.034 1.034v3.42c0 .556-.477 1.033-1.034 1.033Zm8.35 0a1.053 1.053 0 0 1-1.034-1.034V77.92c0-.557.477-1.034 1.034-1.034.556 0 1.034.477 1.034 1.034v3.42c0 .556-.478 1.033-1.034 1.033Zm-3.181 4.931h-2.068c-.477 0-.954-.398-.954-.954v-1.034c0-1.114.875-1.988 1.988-1.988s1.988.874 1.988 1.988v1.034c0 .477-.398.954-.954.954Z"/>
  <path fill="#BCB9B3" d="M170.383 68.934a1.352 1.352 0 1 0 0-2.704 1.352 1.352 0 0 0 0 2.704Zm27.435 0a1.352 1.352 0 1 0 0-2.704 1.352 1.352 0 0 0 0 2.704Zm-27.435 29.662a1.352 1.352 0 1 0 0-2.704 1.352 1.352 0 0 0 0 2.704Zm27.435 0a1.352 1.352 0 1 0 0-2.704 1.352 1.352 0 0 0 0 2.704ZM114 1l4.179 1.141 1.084 20.426-2.271-.709L114 1Zm3.199 23.18 2.063.748v2.007l-2.063-.63V24.18Zm5.572-12.908 4.179 1.023V25.44l-2.322-.709-1.857-13.459Zm2.064 15.663 2.115.709v1.889l-2.115-.59v-2.008Z"/>
  <defs>
    <linearGradient id="a" x1="69.528" x2="69.528" y1="119.162" y2="126.393" gradientUnits="userSpaceOnUse">
      <stop stop-color="#BEB6AC"/>
      <stop offset="1" stop-color="#DED6C9"/>
    </linearGradient>
    <linearGradient id="b" x1="128.197" x2="128.197" y1="103.596" y2="120.774" gradientUnits="userSpaceOnUse">
      <stop stop-color="#BEB6AC"/>
      <stop offset="1" stop-color="#DED6C9"/>
    </linearGradient>
    <linearGradient id="d" x1="108.558" x2="108.558" y1="50.303" y2="136.63" gradientUnits="userSpaceOnUse">
      <stop stop-color="#FDFEFF"/>
      <stop offset=".996" stop-color="#F5F2EC"/>
    </linearGradient>
    <linearGradient id="e" x1="106.206" x2="106.206" y1="108.116" y2="124.452" gradientUnits="userSpaceOnUse">
      <stop stop-color="#BEB6AC"/>
      <stop offset="1" stop-color="#DED6C9"/>
    </linearGradient>
    <linearGradient id="g" x1="134.544" x2="134.544" y1="127.351" y2="137.062" gradientUnits="userSpaceOnUse">
      <stop stop-color="#FDFEFF"/>
      <stop offset=".996" stop-color="#F5F2EC"/>
    </linearGradient>
    <linearGradient id="i" x1="111.283" x2="111.283" y1="129.209" y2="139.578" gradientUnits="userSpaceOnUse">
      <stop stop-color="#FDFEFF"/>
      <stop offset=".996" stop-color="#F5F2EC"/>
    </linearGradient>
    <linearGradient id="k" x1="81.833" x2="81.833" y1="129.717" y2="139.573" gradientUnits="userSpaceOnUse">
      <stop stop-color="#FDFEFF"/>
      <stop offset=".996" stop-color="#F5F2EC"/>
    </linearGradient>
    <linearGradient id="m" x1="119.409" x2="125.786" y1="31.593" y2="76.274" gradientUnits="userSpaceOnUse">
      <stop stop-color="#F8F6F2"/>
      <stop offset=".996" stop-color="#F5F2EC"/>
    </linearGradient>
    <linearGradient id="n" x1="96.5" x2="98.956" y1="38.685" y2="54.103" gradientUnits="userSpaceOnUse">
      <stop stop-color="#CAC2B4"/>
      <stop offset="0" stop-color="#B1A38D"/>
      <stop offset="1" stop-color="#998E7B"/>
    </linearGradient>
    <linearGradient id="o" x1="113.463" x2="106.732" y1="50.126" y2="51.111" gradientUnits="userSpaceOnUse">
      <stop stop-color="#606060"/>
      <stop offset="1" stop-color="#7B7B7B"/>
    </linearGradient>
    <linearGradient id="p" x1="138.182" x2="131.451" y1="46.598" y2="47.582" gradientUnits="userSpaceOnUse">
      <stop stop-color="#606060"/>
      <stop offset="1" stop-color="#7B7B7B"/>
    </linearGradient>
    <linearGradient id="q" x1="143.5" x2="145.973" y1="31.185" y2="46.589" gradientUnits="userSpaceOnUse">
      <stop stop-color="#CAC2B4"/>
      <stop offset="0" stop-color="#B1A38D"/>
      <stop offset="1" stop-color="#998E7B"/>
    </linearGradient>
    <linearGradient id="s" x1="184.012" x2="184.012" y1="63.237" y2="101.058" gradientUnits="userSpaceOnUse">
      <stop stop-color="#FDFEFF"/>
      <stop offset=".996" stop-color="#F5F2EC"/>
    </linearGradient>
    <filter id="c" width="112.646" height="115.496" x="52.262" y="40.234" color-interpolation-filters="sRGB" filterUnits="userSpaceOnUse">
      <feFlood flood-opacity="0" result="BackgroundImageFix"/>
      <feColorMatrix in="SourceAlpha" result="hardAlpha" values="0 0 0 0 0 0 0 0 0 0 0 0 0 0 0 0 0 0 127 0"/>
      <feOffset dy="4"/>
      <feGaussianBlur stdDeviation="8"/>
      <feColorMatrix values="0 0 0 0 0.576471 0 0 0 0 0.501961 0 0 0 0 0.396078 0 0 0 0.24 0"/>
      <feBlend in2="BackgroundImageFix" result="effect1_dropShadow_982_6212"/>
      <feBlend in="SourceGraphic" in2="effect1_dropShadow_982_6212" result="shape"/>
    </filter>
    <filter id="f" width="48.43" height="41.393" x="110.334" y="115.568" color-interpolation-filters="sRGB" filterUnits="userSpaceOnUse">
      <feFlood flood-opacity="0" result="BackgroundImageFix"/>
      <feColorMatrix in="SourceAlpha" result="hardAlpha" values="0 0 0 0 0 0 0 0 0 0 0 0 0 0 0 0 0 0 127 0"/>
      <feOffset dy="4"/>
      <feGaussianBlur stdDeviation="8"/>
      <feColorMatrix values="0 0 0 0 0.576471 0 0 0 0 0.501961 0 0 0 0 0.396078 0 0 0 0.24 0"/>
      <feBlend in2="BackgroundImageFix" result="effect1_dropShadow_982_6212"/>
      <feBlend in="SourceGraphic" in2="effect1_dropShadow_982_6212" result="shape"/>
    </filter>
    <filter id="h" width="48.35" height="42.029" x="87.113" y="117.441" color-interpolation-filters="sRGB" filterUnits="userSpaceOnUse">
      <feFlood flood-opacity="0" result="BackgroundImageFix"/>
      <feColorMatrix in="SourceAlpha" result="hardAlpha" values="0 0 0 0 0 0 0 0 0 0 0 0 0 0 0 0 0 0 127 0"/>
      <feOffset dy="4"/>
      <feGaussianBlur stdDeviation="8"/>
      <feColorMatrix values="0 0 0 0 0.576471 0 0 0 0 0.501961 0 0 0 0 0.396078 0 0 0 0.24 0"/>
      <feBlend in2="BackgroundImageFix" result="effect1_dropShadow_982_6212"/>
      <feBlend in="SourceGraphic" in2="effect1_dropShadow_982_6212" result="shape"/>
    </filter>
    <filter id="j" width="47.769" height="41.533" x="57.953" y="117.937" color-interpolation-filters="sRGB" filterUnits="userSpaceOnUse">
      <feFlood flood-opacity="0" result="BackgroundImageFix"/>
      <feColorMatrix in="SourceAlpha" result="hardAlpha" values="0 0 0 0 0 0 0 0 0 0 0 0 0 0 0 0 0 0 127 0"/>
      <feOffset dy="4"/>
      <feGaussianBlur stdDeviation="8"/>
      <feColorMatrix values="0 0 0 0 0.576471 0 0 0 0 0.501961 0 0 0 0 0.396078 0 0 0 0.24 0"/>
      <feBlend in2="BackgroundImageFix" result="effect1_dropShadow_982_6212"/>
      <feBlend in="SourceGraphic" in2="effect1_dropShadow_982_6212" result="shape"/>
    </filter>
    <filter id="l" width="91.962" height="87.939" x="77.315" y="21.156" color-interpolation-filters="sRGB" filterUnits="userSpaceOnUse">
      <feFlood flood-opacity="0" result="BackgroundImageFix"/>
      <feColorMatrix in="SourceAlpha" result="hardAlpha" values="0 0 0 0 0 0 0 0 0 0 0 0 0 0 0 0 0 0 127 0"/>
      <feOffset dy="11"/>
      <feGaussianBlur stdDeviation="11"/>
      <feColorMatrix values="0 0 0 0 0.576471 0 0 0 0 0.501961 0 0 0 0 0.396078 0 0 0 0.37 0"/>
      <feBlend in2="BackgroundImageFix" result="effect1_dropShadow_982_6212"/>
      <feBlend in="SourceGraphic" in2="effect1_dropShadow_982_6212" result="shape"/>
    </filter>
    <filter id="r" width="50.597" height="52.581" x="158.725" y="60.083" color-interpolation-filters="sRGB" filterUnits="userSpaceOnUse">
      <feFlood flood-opacity="0" result="BackgroundImageFix"/>
      <feColorMatrix in="SourceAlpha" result="hardAlpha" values="0 0 0 0 0 0 0 0 0 0 0 0 0 0 0 0 0 0 127 0"/>
      <feOffset dy="4"/>
      <feGaussianBlur stdDeviation="4"/>
      <feColorMatrix values="0 0 0 0 0.576471 0 0 0 0 0.501961 0 0 0 0 0.396078 0 0 0 0.25 0"/>
      <feBlend in2="BackgroundImageFix" result="effect1_dropShadow_982_6212"/>
      <feBlend in="SourceGraphic" in2="effect1_dropShadow_982_6212" result="shape"/>
    </filter>
  </defs>
</svg>
