<svg width="230" height="160" viewBox="0 0 230 160" fill="none" xmlns="http://www.w3.org/2000/svg">
<path d="M114.372 142.5C148.638 142.5 176.372 114.498 176.372 79.9496C176.372 45.4009 148.638 17.5 114.372 17.5C80.1063 17.5 52.3721 45.5016 52.3721 80.0504C52.3721 114.7 80.2068 142.5 114.372 142.5Z" fill="#EBEBEB"/>
<path d="M196.636 74.0332C196.233 73.7089 196.148 73.1357 196.424 72.7112L196.484 72.6281L196.793 72.2354C196.993 71.9733 197.182 71.7107 197.36 71.449L197.618 71.0573L197.679 70.9741C197.993 70.5773 198.563 70.4749 198.999 70.753C199.435 71.0313 199.583 71.5915 199.355 72.0435L199.303 72.1325L199.013 72.5728C198.814 72.8655 198.603 73.1574 198.382 73.4474L198.041 73.8806L197.973 73.9579C197.617 74.3178 197.039 74.3572 196.636 74.0332ZM190.311 79.2227C190.028 78.79 190.125 78.2186 190.518 77.8999L190.601 77.839L191.027 77.5551C191.87 76.9824 192.662 76.3824 193.395 75.7623L193.756 75.4508L193.836 75.3866C194.249 75.0925 194.825 75.1533 195.167 75.5418C195.508 75.9305 195.493 76.5093 195.148 76.8802L195.075 76.9516L194.686 77.2866C193.898 77.9532 193.051 78.5971 192.15 79.2085L191.695 79.5112L191.607 79.5624C191.157 79.7955 190.594 79.6554 190.311 79.2227ZM182.838 82.5639C182.672 82.0738 182.908 81.5448 183.37 81.335L183.465 81.2972L183.943 81.1315C184.895 80.7927 185.816 80.4135 186.703 80.0012L187.144 79.7928L187.237 79.7524C187.713 79.5787 188.253 79.7906 188.479 80.2563C188.704 80.722 188.535 81.2767 188.104 81.5422L188.014 81.5906L187.546 81.8132C186.603 82.2515 185.624 82.6538 184.613 83.0138L184.105 83.1901L184.006 83.2178C183.512 83.3308 183.003 83.0538 182.838 82.5639ZM179.627 82.3348C180.168 82.2244 180.695 82.5727 180.805 83.1131C180.916 83.6536 180.567 84.1816 180.027 84.2922L179.627 82.3348ZM175.737 84.8767C175.231 84.8631 174.807 84.4678 174.769 83.952C174.728 83.4019 175.141 82.9227 175.692 82.8816L176.194 82.8397C177.364 82.7332 178.51 82.5627 179.627 82.3348L180.027 84.2922C178.67 84.5692 177.271 84.7674 175.839 84.8743L175.737 84.8767ZM169.504 84.7364C168.956 84.6712 168.564 84.1739 168.63 83.6261C168.695 83.0782 169.193 82.6865 169.741 82.7516C170.406 82.8306 171.066 82.8872 171.721 82.9225L171.823 82.9334C172.324 83.0114 172.693 83.4578 172.665 83.9745C172.635 84.5252 172.164 84.9477 171.613 84.9181L171.088 84.8852C170.563 84.8485 170.035 84.7994 169.504 84.7364Z" fill="#757472"/>
<path d="M194.372 69.689L201.651 66.9066L201.603 74.5025" fill="#757472"/>
<g filter="url(#filter0_dd_6417_397)">
<rect x="152.372" y="37.5" width="18" height="80" rx="4" transform="rotate(90 152.372 37.5)" fill="url(#paint0_linear_6417_397)"/>
<rect x="151.872" y="38" width="17" height="79" rx="3.5" transform="rotate(90 151.872 38)" stroke="url(#paint1_linear_6417_397)" stroke-opacity="0.4"/>
</g>
<path d="M80.8721 50.5C83.3574 50.5 85.3721 48.4853 85.3721 46C85.3721 43.5147 83.3574 41.5 80.8721 41.5C78.3868 41.5 76.3721 43.5147 76.3721 46C76.3721 48.4853 78.3868 50.5 80.8721 50.5Z" fill="#828282"/>
<path d="M139.385 47.7464H94.3734C94.0027 47.7464 93.7061 47.4515 93.7061 47.0829V45.3875C93.7061 45.019 94.0027 44.7241 94.3734 44.7241H139.385C139.756 44.7241 140.052 45.019 140.052 45.3875V47.0829C140.052 47.4515 139.756 47.7464 139.385 47.7464Z" fill="#828282"/>
<g filter="url(#filter1_dd_6417_397)">
<rect x="152.372" y="60.5" width="18" height="80" rx="4" transform="rotate(90 152.372 60.5)" fill="url(#paint2_linear_6417_397)"/>
<rect x="151.872" y="61" width="17" height="79" rx="3.5" transform="rotate(90 151.872 61)" stroke="url(#paint3_linear_6417_397)" stroke-opacity="0.4"/>
</g>
<path d="M80.8721 73.5C83.3574 73.5 85.3721 71.4853 85.3721 69C85.3721 66.5147 83.3574 64.5 80.8721 64.5C78.3868 64.5 76.3721 66.5147 76.3721 69C76.3721 71.4853 78.3868 73.5 80.8721 73.5Z" fill="#828282"/>
<path d="M139.385 70.7464H94.3734C94.0027 70.7464 93.7061 70.4515 93.7061 70.0829V68.3875C93.7061 68.019 94.0027 67.7241 94.3734 67.7241H139.385C139.756 67.7241 140.052 68.019 140.052 68.3875V70.0829C140.052 70.4515 139.756 70.7464 139.385 70.7464Z" fill="#828282"/>
<g filter="url(#filter2_dd_6417_397)">
<rect x="152.372" y="100.5" width="18" height="80" rx="4" transform="rotate(90 152.372 100.5)" fill="url(#paint4_linear_6417_397)"/>
<rect x="151.872" y="101" width="17" height="79" rx="3.5" transform="rotate(90 151.872 101)" stroke="url(#paint5_linear_6417_397)" stroke-opacity="0.4"/>
</g>
<path d="M80.8721 113.5C83.3574 113.5 85.3721 111.485 85.3721 109C85.3721 106.515 83.3574 104.5 80.8721 104.5C78.3868 104.5 76.3721 106.515 76.3721 109C76.3721 111.485 78.3868 113.5 80.8721 113.5Z" fill="#828282"/>
<path d="M139.385 110.746H94.3734C94.0027 110.746 93.7061 110.452 93.7061 110.083V108.388C93.7061 108.019 94.0027 107.724 94.3734 107.724H139.385C139.756 107.724 140.052 108.019 140.052 108.388V110.083C140.052 110.452 139.756 110.746 139.385 110.746Z" fill="#828282"/>
<g filter="url(#filter3_dd_6417_397)">
<rect x="182.286" y="73.4985" width="19.8469" height="88.2085" rx="4" transform="rotate(87 182.286 73.4985)" fill="url(#paint6_linear_6417_397)"/>
<rect x="181.813" y="74.024" width="18.8469" height="87.2085" rx="3.5" transform="rotate(87 181.813 74.024)" stroke="url(#paint7_linear_6417_397)"/>
</g>
<path d="M104.308 91.9392C107.045 91.7958 109.147 89.4612 109.004 86.7246C108.86 83.9881 106.525 81.886 103.789 82.0294C101.052 82.1728 98.9502 84.5075 99.0937 87.244C99.2371 89.9805 101.572 92.0827 104.308 91.9392Z" fill="#765C10"/>
<path d="M163.185 85.5647L119.455 87.8565C119.094 87.8754 118.789 87.5692 118.768 87.1675L118.671 85.3197C118.65 84.918 118.922 84.5816 119.282 84.5627L163.012 82.2709C163.372 82.252 163.677 82.5583 163.698 82.96L163.795 84.8077C163.816 85.2094 163.545 85.5459 163.185 85.5647Z" fill="#765C10"/>
<path d="M170.111 83.0902C171.102 82.5969 172.29 82.9754 172.809 83.9452C172.878 83.2736 173.28 82.652 173.933 82.3271C174.943 81.8244 176.16 82.2257 176.663 83.2364L176.832 83.5765C176.855 83.3902 176.902 83.2056 176.981 83.0278C177.168 82.6063 177.507 82.2578 177.983 82.0208C178.993 81.5184 180.21 81.9195 180.713 82.9301L185.105 91.757C186.214 93.9851 185.335 96.5675 183.1 97.6796L177.283 100.575C176.656 100.887 175.797 101.132 175.051 100.752C174.075 100.491 172.55 100.11 171.164 99.7274C170.455 99.5318 169.769 99.332 169.191 99.1419C168.624 98.9556 168.123 98.7665 167.807 98.5868L167.78 98.571L167.756 98.5526C167.692 98.5052 167.632 98.4647 167.566 98.4212C167.504 98.3804 167.427 98.3309 167.356 98.2771C167.197 98.1586 167.042 98.0069 166.923 97.7671L165.938 95.7885C165.208 94.3213 165.777 92.6519 167.247 91.9207L168.023 91.5344L166.201 87.8728C165.698 86.8623 166.112 85.6495 167.122 85.1467C167.739 84.8399 168.432 84.8716 168.993 85.1713C168.884 84.3343 169.309 83.489 170.111 83.0902Z" fill="url(#paint8_linear_6417_397)" stroke="url(#paint9_linear_6417_397)"/>
<defs>
<filter id="filter0_dd_6417_397" x="56.3721" y="25.5" width="112" height="50" filterUnits="userSpaceOnUse" color-interpolation-filters="sRGB">
<feFlood flood-opacity="0" result="BackgroundImageFix"/>
<feColorMatrix in="SourceAlpha" type="matrix" values="0 0 0 0 0 0 0 0 0 0 0 0 0 0 0 0 0 0 127 0" result="hardAlpha"/>
<feOffset dy="4"/>
<feGaussianBlur stdDeviation="8"/>
<feComposite in2="hardAlpha" operator="out"/>
<feColorMatrix type="matrix" values="0 0 0 0 0 0 0 0 0 0 0 0 0 0 0 0 0 0 0.14 0"/>
<feBlend mode="normal" in2="BackgroundImageFix" result="effect1_dropShadow_6417_397"/>
<feColorMatrix in="SourceAlpha" type="matrix" values="0 0 0 0 0 0 0 0 0 0 0 0 0 0 0 0 0 0 127 0" result="hardAlpha"/>
<feOffset dy="1"/>
<feGaussianBlur stdDeviation="0.5"/>
<feComposite in2="hardAlpha" operator="out"/>
<feColorMatrix type="matrix" values="0 0 0 0 0 0 0 0 0 0 0 0 0 0 0 0 0 0 0.08 0"/>
<feBlend mode="normal" in2="effect1_dropShadow_6417_397" result="effect2_dropShadow_6417_397"/>
<feBlend mode="normal" in="SourceGraphic" in2="effect2_dropShadow_6417_397" result="shape"/>
</filter>
<filter id="filter1_dd_6417_397" x="56.3721" y="48.5" width="112" height="50" filterUnits="userSpaceOnUse" color-interpolation-filters="sRGB">
<feFlood flood-opacity="0" result="BackgroundImageFix"/>
<feColorMatrix in="SourceAlpha" type="matrix" values="0 0 0 0 0 0 0 0 0 0 0 0 0 0 0 0 0 0 127 0" result="hardAlpha"/>
<feOffset dy="4"/>
<feGaussianBlur stdDeviation="8"/>
<feComposite in2="hardAlpha" operator="out"/>
<feColorMatrix type="matrix" values="0 0 0 0 0 0 0 0 0 0 0 0 0 0 0 0 0 0 0.14 0"/>
<feBlend mode="normal" in2="BackgroundImageFix" result="effect1_dropShadow_6417_397"/>
<feColorMatrix in="SourceAlpha" type="matrix" values="0 0 0 0 0 0 0 0 0 0 0 0 0 0 0 0 0 0 127 0" result="hardAlpha"/>
<feOffset dy="1"/>
<feGaussianBlur stdDeviation="0.5"/>
<feComposite in2="hardAlpha" operator="out"/>
<feColorMatrix type="matrix" values="0 0 0 0 0 0 0 0 0 0 0 0 0 0 0 0 0 0 0.08 0"/>
<feBlend mode="normal" in2="effect1_dropShadow_6417_397" result="effect2_dropShadow_6417_397"/>
<feBlend mode="normal" in="SourceGraphic" in2="effect2_dropShadow_6417_397" result="shape"/>
</filter>
<filter id="filter2_dd_6417_397" x="56.3721" y="88.5" width="112" height="50" filterUnits="userSpaceOnUse" color-interpolation-filters="sRGB">
<feFlood flood-opacity="0" result="BackgroundImageFix"/>
<feColorMatrix in="SourceAlpha" type="matrix" values="0 0 0 0 0 0 0 0 0 0 0 0 0 0 0 0 0 0 127 0" result="hardAlpha"/>
<feOffset dy="4"/>
<feGaussianBlur stdDeviation="8"/>
<feComposite in2="hardAlpha" operator="out"/>
<feColorMatrix type="matrix" values="0 0 0 0 0 0 0 0 0 0 0 0 0 0 0 0 0 0 0.14 0"/>
<feBlend mode="normal" in2="BackgroundImageFix" result="effect1_dropShadow_6417_397"/>
<feColorMatrix in="SourceAlpha" type="matrix" values="0 0 0 0 0 0 0 0 0 0 0 0 0 0 0 0 0 0 127 0" result="hardAlpha"/>
<feOffset dy="1"/>
<feGaussianBlur stdDeviation="0.5"/>
<feComposite in2="hardAlpha" operator="out"/>
<feColorMatrix type="matrix" values="0 0 0 0 0 0 0 0 0 0 0 0 0 0 0 0 0 0 0.08 0"/>
<feBlend mode="normal" in2="effect1_dropShadow_6417_397" result="effect2_dropShadow_6417_397"/>
<feBlend mode="normal" in="SourceGraphic" in2="effect2_dropShadow_6417_397" result="shape"/>
</filter>
<filter id="filter3_dd_6417_397" x="74.4026" y="51.7021" width="136.719" height="72.0288" filterUnits="userSpaceOnUse" color-interpolation-filters="sRGB">
<feFlood flood-opacity="0" result="BackgroundImageFix"/>
<feColorMatrix in="SourceAlpha" type="matrix" values="0 0 0 0 0 0 0 0 0 0 0 0 0 0 0 0 0 0 127 0" result="hardAlpha"/>
<feOffset dx="4" dy="2"/>
<feGaussianBlur stdDeviation="12"/>
<feComposite in2="hardAlpha" operator="out"/>
<feColorMatrix type="matrix" values="0 0 0 0 0.98415 0 0 0 0 0.859671 0 0 0 0 0.486234 0 0 0 1 0"/>
<feBlend mode="normal" in2="BackgroundImageFix" result="effect1_dropShadow_6417_397"/>
<feColorMatrix in="SourceAlpha" type="matrix" values="0 0 0 0 0 0 0 0 0 0 0 0 0 0 0 0 0 0 127 0" result="hardAlpha"/>
<feOffset dy="2"/>
<feGaussianBlur stdDeviation="4"/>
<feComposite in2="hardAlpha" operator="out"/>
<feColorMatrix type="matrix" values="0 0 0 0 0 0 0 0 0 0 0 0 0 0 0 0 0 0 0.08 0"/>
<feBlend mode="normal" in2="effect1_dropShadow_6417_397" result="effect2_dropShadow_6417_397"/>
<feBlend mode="normal" in="SourceGraphic" in2="effect2_dropShadow_6417_397" result="shape"/>
</filter>
<linearGradient id="paint0_linear_6417_397" x1="138.872" y1="81.5" x2="178.372" y2="63.5" gradientUnits="userSpaceOnUse">
<stop offset="0.0036" stop-color="#ADACAC"/>
<stop offset="1" stop-color="#F6EDD0"/>
</linearGradient>
<linearGradient id="paint1_linear_6417_397" x1="152.372" y1="50" x2="170.643" y2="48.0888" gradientUnits="userSpaceOnUse">
<stop stop-color="#EEEEEE"/>
<stop offset="1" stop-color="#FFDF7D"/>
</linearGradient>
<linearGradient id="paint2_linear_6417_397" x1="134.872" y1="109.5" x2="173.372" y2="91.5" gradientUnits="userSpaceOnUse">
<stop offset="0.0036" stop-color="#B0B0B0"/>
<stop offset="1" stop-color="#FFF6DB"/>
</linearGradient>
<linearGradient id="paint3_linear_6417_397" x1="152.372" y1="73" x2="170.643" y2="71.0888" gradientUnits="userSpaceOnUse">
<stop stop-color="#DBDBDB"/>
<stop offset="1" stop-color="#FFC515"/>
</linearGradient>
<linearGradient id="paint4_linear_6417_397" x1="177.372" y1="148.5" x2="138.372" y2="130" gradientUnits="userSpaceOnUse">
<stop offset="0.0036" stop-color="#BABABA"/>
<stop offset="1" stop-color="#FEF7E4"/>
</linearGradient>
<linearGradient id="paint5_linear_6417_397" x1="170.372" y1="124.5" x2="154.185" y2="111.706" gradientUnits="userSpaceOnUse">
<stop stop-color="#BCAE83"/>
<stop offset="1" stop-color="#FFE7A0"/>
</linearGradient>
<linearGradient id="paint6_linear_6417_397" x1="198.877" y1="81.7925" x2="185.726" y2="151.199" gradientUnits="userSpaceOnUse">
<stop stop-color="#FFD452"/>
<stop offset="1" stop-color="#FFE28A"/>
</linearGradient>
<linearGradient id="paint7_linear_6417_397" x1="182.286" y1="117.603" x2="202.133" y2="117.603" gradientUnits="userSpaceOnUse">
<stop stop-color="#FFEAAA"/>
<stop offset="1" stop-color="#FFE7A1"/>
</linearGradient>
<linearGradient id="paint8_linear_6417_397" x1="170.221" y1="83.1328" x2="181.872" y2="97.5002" gradientUnits="userSpaceOnUse">
<stop stop-color="#E3E3E2"/>
<stop offset="0.9964" stop-color="#BABABA"/>
</linearGradient>
<linearGradient id="paint9_linear_6417_397" x1="177.872" y1="85.0002" x2="184.872" y2="94.0002" gradientUnits="userSpaceOnUse">
<stop stop-color="#B2902A"/>
<stop offset="1" stop-color="#AFAFAF"/>
</linearGradient>
</defs>
</svg>
