<svg width="230" height="160" viewBox="0 0 230 160" fill="none" xmlns="http://www.w3.org/2000/svg">
<path d="M114.372 142.5C148.638 142.5 176.372 114.498 176.372 79.9496C176.372 45.4009 148.638 17.5 114.372 17.5C80.1063 17.5 52.3721 45.5016 52.3721 80.0504C52.3721 114.7 80.2068 142.5 114.372 142.5Z" fill="#242424"/>
<path d="M196.636 74.0332C196.233 73.7089 196.148 73.1357 196.424 72.7112L196.484 72.6281L196.793 72.2354C196.993 71.9733 197.182 71.7107 197.36 71.449L197.618 71.0573L197.679 70.9741C197.993 70.5773 198.563 70.4749 198.999 70.753C199.435 71.0313 199.583 71.5915 199.355 72.0435L199.303 72.1325L199.013 72.5728C198.814 72.8655 198.603 73.1574 198.382 73.4474L198.041 73.8806L197.973 73.9579C197.617 74.3178 197.039 74.3572 196.636 74.0332ZM190.311 79.2227C190.028 78.79 190.125 78.2186 190.518 77.8999L190.601 77.839L191.027 77.5551C192.011 76.8871 192.924 76.1813 193.756 75.4508C194.171 75.0867 194.802 75.1274 195.167 75.5418C195.531 75.9564 195.49 76.5875 195.075 76.9516C194.179 77.7382 193.201 78.4953 192.15 79.2085L191.695 79.5112L191.607 79.5624C191.157 79.7955 190.594 79.6554 190.311 79.2227ZM182.838 82.5639C182.672 82.0738 182.908 81.5448 183.37 81.335L183.465 81.2972L183.943 81.1315C184.895 80.7927 185.816 80.4135 186.703 80.0012L187.144 79.7928L187.237 79.7524C187.713 79.5787 188.253 79.7906 188.479 80.2563C188.704 80.722 188.535 81.2767 188.104 81.5422L188.014 81.5906L187.546 81.8132C186.603 82.2515 185.624 82.6538 184.613 83.0138L184.105 83.1901L184.006 83.2178C183.512 83.3308 183.003 83.0538 182.838 82.5639ZM179.627 82.3348C180.168 82.2244 180.695 82.5727 180.805 83.1131C180.916 83.6536 180.567 84.1816 180.027 84.2922L179.627 82.3348ZM175.737 84.8767C175.231 84.8631 174.807 84.4678 174.769 83.952C174.728 83.4019 175.141 82.9227 175.692 82.8816L176.194 82.8397C177.364 82.7332 178.51 82.5627 179.627 82.3348L180.027 84.2922C178.67 84.5692 177.271 84.7674 175.839 84.8743L175.737 84.8767ZM169.504 84.7364C168.956 84.6712 168.564 84.1739 168.63 83.6261C168.695 83.0782 169.193 82.6865 169.741 82.7516C170.406 82.8306 171.066 82.8872 171.721 82.9225L171.823 82.9334C172.324 83.0114 172.693 83.4578 172.665 83.9745C172.635 84.5252 172.164 84.9477 171.613 84.9181L171.088 84.8852C170.563 84.8485 170.035 84.7994 169.504 84.7364Z" fill="#FFCC33"/>
<path d="M194.372 69.689L201.651 66.9066L201.603 74.5025" fill="url(#paint0_linear_6417_415)"/>
<g filter="url(#filter0_dd_6417_415)">
<rect x="152.372" y="37.5" width="18" height="80" rx="4" transform="rotate(90 152.372 37.5)" fill="url(#paint1_linear_6417_415)"/>
<rect x="151.872" y="38" width="17" height="79" rx="3.5" transform="rotate(90 151.872 38)" stroke="url(#paint2_linear_6417_415)" stroke-opacity="0.4"/>
</g>
<path d="M80.8721 50.5C83.3574 50.5 85.3721 48.4853 85.3721 46C85.3721 43.5147 83.3574 41.5 80.8721 41.5C78.3868 41.5 76.3721 43.5147 76.3721 46C76.3721 48.4853 78.3868 50.5 80.8721 50.5Z" fill="#2E2E2E"/>
<path d="M139.385 47.7464H94.3734C94.0027 47.7464 93.7061 47.4515 93.7061 47.0829V45.3875C93.7061 45.019 94.0027 44.7241 94.3734 44.7241H139.385C139.756 44.7241 140.052 45.019 140.052 45.3875V47.0829C140.052 47.4515 139.756 47.7464 139.385 47.7464Z" fill="#2E2E2E"/>
<g filter="url(#filter1_dd_6417_415)">
<rect x="152.372" y="60.5" width="18" height="80" rx="4" transform="rotate(90 152.372 60.5)" fill="url(#paint3_linear_6417_415)"/>
<rect x="151.872" y="61" width="17" height="79" rx="3.5" transform="rotate(90 151.872 61)" stroke="url(#paint4_linear_6417_415)" stroke-opacity="0.4"/>
</g>
<path d="M80.8721 73.5C83.3574 73.5 85.3721 71.4853 85.3721 69C85.3721 66.5147 83.3574 64.5 80.8721 64.5C78.3868 64.5 76.3721 66.5147 76.3721 69C76.3721 71.4853 78.3868 73.5 80.8721 73.5Z" fill="#2E2E2E"/>
<path d="M139.385 70.7464H94.3734C94.0027 70.7464 93.7061 70.4515 93.7061 70.0829V68.3875C93.7061 68.019 94.0027 67.7241 94.3734 67.7241H139.385C139.756 67.7241 140.052 68.019 140.052 68.3875V70.0829C140.052 70.4515 139.756 70.7464 139.385 70.7464Z" fill="#2E2E2E"/>
<g filter="url(#filter2_dd_6417_415)">
<rect x="152.372" y="100.5" width="18" height="80" rx="4" transform="rotate(90 152.372 100.5)" fill="url(#paint5_linear_6417_415)"/>
<rect x="151.872" y="101" width="17" height="79" rx="3.5" transform="rotate(90 151.872 101)" stroke="url(#paint6_linear_6417_415)" stroke-opacity="0.4"/>
</g>
<path d="M80.8721 113.5C83.3574 113.5 85.3721 111.485 85.3721 109C85.3721 106.515 83.3574 104.5 80.8721 104.5C78.3868 104.5 76.3721 106.515 76.3721 109C76.3721 111.485 78.3868 113.5 80.8721 113.5Z" fill="#2E2E2E"/>
<path d="M139.385 110.746H94.3734C94.0027 110.746 93.7061 110.452 93.7061 110.083V108.388C93.7061 108.019 94.0027 107.724 94.3734 107.724H139.385C139.756 107.724 140.052 108.019 140.052 108.388V110.083C140.052 110.452 139.756 110.746 139.385 110.746Z" fill="#2E2E2E"/>
<g filter="url(#filter3_dd_6417_415)">
<rect x="182.286" y="73.4985" width="19.8469" height="88.2085" rx="4" transform="rotate(87 182.286 73.4985)" fill="url(#paint7_linear_6417_415)"/>
<rect x="181.813" y="74.024" width="18.8469" height="87.2085" rx="3.5" transform="rotate(87 181.813 74.024)" stroke="url(#paint8_linear_6417_415)"/>
</g>
<path d="M104.308 91.9392C107.045 91.7958 109.147 89.4612 109.004 86.7246C108.86 83.9881 106.525 81.886 103.789 82.0294C101.052 82.1728 98.9502 84.5075 99.0937 87.244C99.2371 89.9805 101.572 92.0827 104.308 91.9392Z" fill="#765C10"/>
<path d="M163.185 85.5647L119.455 87.8565C119.094 87.8754 118.789 87.5692 118.768 87.1675L118.671 85.3197C118.65 84.918 118.922 84.5816 119.282 84.5627L163.012 82.2709C163.372 82.252 163.677 82.5583 163.698 82.96L163.795 84.8077C163.816 85.2094 163.545 85.5459 163.185 85.5647Z" fill="#765C10"/>
<g filter="url(#filter4_dd_6417_415)">
<path d="M178.205 82.4687C178.971 82.0877 179.886 82.3918 180.265 83.1527L184.657 91.9796C185.642 93.958 184.868 96.2417 182.878 97.2321L177.06 100.127C176.622 100.345 176.145 100.485 175.714 100.436C175.374 100.397 175.06 100.235 174.729 100.149C172.622 99.5976 169.039 98.7137 168.055 98.1525C167.751 97.9243 167.522 97.8483 167.37 97.5439L166.386 95.5654C165.78 94.3479 166.244 92.9777 167.469 92.3683V92.3683C167.892 92.1579 168.405 92.3301 168.615 92.7528L170.013 95.5624C170.077 95.6892 170.231 95.7409 170.357 95.6777V95.6777C170.484 95.6146 170.536 95.4607 170.473 95.3338L166.649 87.6497C166.27 86.8888 166.58 85.9753 167.345 85.5944C168.111 85.2135 169.026 85.5175 169.405 86.2784L170.048 87.5706C170.111 87.6975 170.265 87.7491 170.392 87.686V87.686C170.519 87.6229 170.57 87.4689 170.507 87.3421L169.637 85.5933C169.258 84.8324 169.568 83.9189 170.333 83.5379C171.099 83.157 172.014 83.461 172.393 84.222L173.225 85.8942C173.309 86.0633 173.514 86.1322 173.683 86.048V86.048C173.852 85.9639 173.921 85.7586 173.837 85.5895L173.459 84.8304C173.081 84.0694 173.39 83.1559 174.156 82.775C174.921 82.3941 175.837 82.6981 176.215 83.4591L176.574 84.1803C176.669 84.3703 176.899 84.4477 177.089 84.3531V84.3531C177.247 84.2747 177.326 84.0989 177.317 83.923C177.286 83.3427 177.551 82.7944 178.205 82.4687Z" fill="url(#paint9_linear_6417_415)"/>
<path d="M178.205 82.4687C178.971 82.0877 179.886 82.3918 180.265 83.1527L184.657 91.9796C185.642 93.958 184.868 96.2417 182.878 97.2321L177.06 100.127C176.622 100.345 176.145 100.485 175.714 100.436C175.374 100.397 175.06 100.235 174.729 100.149C172.622 99.5976 169.039 98.7137 168.055 98.1525C167.751 97.9243 167.522 97.8483 167.37 97.5439L166.386 95.5654C165.78 94.3479 166.244 92.9777 167.469 92.3683V92.3683C167.892 92.1579 168.405 92.3301 168.615 92.7528L170.013 95.5624C170.077 95.6892 170.231 95.7409 170.357 95.6777V95.6777C170.484 95.6146 170.536 95.4607 170.473 95.3338L166.649 87.6497C166.27 86.8888 166.58 85.9753 167.345 85.5944C168.111 85.2135 169.026 85.5175 169.405 86.2784L170.048 87.5706C170.111 87.6975 170.265 87.7491 170.392 87.686V87.686C170.519 87.6229 170.57 87.4689 170.507 87.3421L169.637 85.5933C169.258 84.8324 169.568 83.9189 170.333 83.5379C171.099 83.157 172.014 83.461 172.393 84.222L173.225 85.8942C173.309 86.0633 173.514 86.1322 173.683 86.048V86.048C173.852 85.9639 173.921 85.7586 173.837 85.5895L173.459 84.8304C173.081 84.0694 173.39 83.1559 174.156 82.775C174.921 82.3941 175.837 82.6981 176.215 83.4591L176.574 84.1803C176.669 84.3703 176.899 84.4477 177.089 84.3531V84.3531C177.247 84.2747 177.326 84.0989 177.317 83.923C177.286 83.3427 177.551 82.7944 178.205 82.4687Z" fill="#171717"/>
<path d="M170.111 83.0902C171.102 82.5969 172.29 82.9754 172.809 83.9452C172.878 83.2736 173.28 82.652 173.933 82.3271C174.943 81.8244 176.16 82.2257 176.663 83.2364L176.831 83.5756C176.91 82.9434 177.282 82.3696 177.983 82.0208C178.993 81.5184 180.21 81.9195 180.713 82.9301L185.105 91.757C186.214 93.9851 185.335 96.5675 183.1 97.6796L177.283 100.575C176.805 100.812 176.226 100.998 175.657 100.933C175.43 100.907 175.224 100.842 175.055 100.783C174.87 100.72 174.743 100.669 174.602 100.632C173.555 100.358 172.124 99.9971 170.836 99.6355C170.191 99.4545 169.576 99.2722 169.058 99.0979C168.549 98.9271 168.1 98.7534 167.807 98.5868L167.78 98.571L167.756 98.5526C167.692 98.5052 167.632 98.4647 167.566 98.4212C167.504 98.3804 167.427 98.3309 167.356 98.2771C167.197 98.1586 167.042 98.0069 166.923 97.7671L165.938 95.7885C165.208 94.3213 165.777 92.6519 167.247 91.9207C167.542 91.7738 167.865 91.7449 168.163 91.8159L166.201 87.8728C165.698 86.8623 166.112 85.6495 167.122 85.1467C167.739 84.8399 168.432 84.8716 168.993 85.1713C168.884 84.3343 169.309 83.489 170.111 83.0902Z" stroke="url(#paint10_linear_6417_415)"/>
</g>
<defs>
<filter id="filter0_dd_6417_415" x="56.3721" y="25.5" width="112" height="50" filterUnits="userSpaceOnUse" color-interpolation-filters="sRGB">
<feFlood flood-opacity="0" result="BackgroundImageFix"/>
<feColorMatrix in="SourceAlpha" type="matrix" values="0 0 0 0 0 0 0 0 0 0 0 0 0 0 0 0 0 0 127 0" result="hardAlpha"/>
<feOffset dy="4"/>
<feGaussianBlur stdDeviation="8"/>
<feComposite in2="hardAlpha" operator="out"/>
<feColorMatrix type="matrix" values="0 0 0 0 0 0 0 0 0 0 0 0 0 0 0 0 0 0 0.64 0"/>
<feBlend mode="normal" in2="BackgroundImageFix" result="effect1_dropShadow_6417_415"/>
<feColorMatrix in="SourceAlpha" type="matrix" values="0 0 0 0 0 0 0 0 0 0 0 0 0 0 0 0 0 0 127 0" result="hardAlpha"/>
<feOffset dy="1"/>
<feGaussianBlur stdDeviation="0.5"/>
<feComposite in2="hardAlpha" operator="out"/>
<feColorMatrix type="matrix" values="0 0 0 0 0 0 0 0 0 0 0 0 0 0 0 0 0 0 0.08 0"/>
<feBlend mode="normal" in2="effect1_dropShadow_6417_415" result="effect2_dropShadow_6417_415"/>
<feBlend mode="normal" in="SourceGraphic" in2="effect2_dropShadow_6417_415" result="shape"/>
</filter>
<filter id="filter1_dd_6417_415" x="56.3721" y="48.5" width="112" height="50" filterUnits="userSpaceOnUse" color-interpolation-filters="sRGB">
<feFlood flood-opacity="0" result="BackgroundImageFix"/>
<feColorMatrix in="SourceAlpha" type="matrix" values="0 0 0 0 0 0 0 0 0 0 0 0 0 0 0 0 0 0 127 0" result="hardAlpha"/>
<feOffset dy="4"/>
<feGaussianBlur stdDeviation="8"/>
<feComposite in2="hardAlpha" operator="out"/>
<feColorMatrix type="matrix" values="0 0 0 0 0 0 0 0 0 0 0 0 0 0 0 0 0 0 0.64 0"/>
<feBlend mode="normal" in2="BackgroundImageFix" result="effect1_dropShadow_6417_415"/>
<feColorMatrix in="SourceAlpha" type="matrix" values="0 0 0 0 0 0 0 0 0 0 0 0 0 0 0 0 0 0 127 0" result="hardAlpha"/>
<feOffset dy="1"/>
<feGaussianBlur stdDeviation="0.5"/>
<feComposite in2="hardAlpha" operator="out"/>
<feColorMatrix type="matrix" values="0 0 0 0 0 0 0 0 0 0 0 0 0 0 0 0 0 0 0.08 0"/>
<feBlend mode="normal" in2="effect1_dropShadow_6417_415" result="effect2_dropShadow_6417_415"/>
<feBlend mode="normal" in="SourceGraphic" in2="effect2_dropShadow_6417_415" result="shape"/>
</filter>
<filter id="filter2_dd_6417_415" x="56.3721" y="88.5" width="112" height="50" filterUnits="userSpaceOnUse" color-interpolation-filters="sRGB">
<feFlood flood-opacity="0" result="BackgroundImageFix"/>
<feColorMatrix in="SourceAlpha" type="matrix" values="0 0 0 0 0 0 0 0 0 0 0 0 0 0 0 0 0 0 127 0" result="hardAlpha"/>
<feOffset dy="4"/>
<feGaussianBlur stdDeviation="8"/>
<feComposite in2="hardAlpha" operator="out"/>
<feColorMatrix type="matrix" values="0 0 0 0 0 0 0 0 0 0 0 0 0 0 0 0 0 0 0.64 0"/>
<feBlend mode="normal" in2="BackgroundImageFix" result="effect1_dropShadow_6417_415"/>
<feColorMatrix in="SourceAlpha" type="matrix" values="0 0 0 0 0 0 0 0 0 0 0 0 0 0 0 0 0 0 127 0" result="hardAlpha"/>
<feOffset dy="1"/>
<feGaussianBlur stdDeviation="0.5"/>
<feComposite in2="hardAlpha" operator="out"/>
<feColorMatrix type="matrix" values="0 0 0 0 0 0 0 0 0 0 0 0 0 0 0 0 0 0 0.08 0"/>
<feBlend mode="normal" in2="effect1_dropShadow_6417_415" result="effect2_dropShadow_6417_415"/>
<feBlend mode="normal" in="SourceGraphic" in2="effect2_dropShadow_6417_415" result="shape"/>
</filter>
<filter id="filter3_dd_6417_415" x="78.4026" y="55.7021" width="128.719" height="64.0288" filterUnits="userSpaceOnUse" color-interpolation-filters="sRGB">
<feFlood flood-opacity="0" result="BackgroundImageFix"/>
<feColorMatrix in="SourceAlpha" type="matrix" values="0 0 0 0 0 0 0 0 0 0 0 0 0 0 0 0 0 0 127 0" result="hardAlpha"/>
<feOffset dx="4" dy="2"/>
<feGaussianBlur stdDeviation="10"/>
<feComposite in2="hardAlpha" operator="out"/>
<feColorMatrix type="matrix" values="0 0 0 0 1 0 0 0 0 0.8 0 0 0 0 0.2 0 0 0 1 0"/>
<feBlend mode="normal" in2="BackgroundImageFix" result="effect1_dropShadow_6417_415"/>
<feColorMatrix in="SourceAlpha" type="matrix" values="0 0 0 0 0 0 0 0 0 0 0 0 0 0 0 0 0 0 127 0" result="hardAlpha"/>
<feOffset dy="2"/>
<feGaussianBlur stdDeviation="4"/>
<feComposite in2="hardAlpha" operator="out"/>
<feColorMatrix type="matrix" values="0 0 0 0 0 0 0 0 0 0 0 0 0 0 0 0 0 0 0.5 0"/>
<feBlend mode="normal" in2="effect1_dropShadow_6417_415" result="effect2_dropShadow_6417_415"/>
<feBlend mode="normal" in="SourceGraphic" in2="effect2_dropShadow_6417_415" result="shape"/>
</filter>
<filter id="filter4_dd_6417_415" x="149.121" y="69.3047" width="52.9634" height="52.1411" filterUnits="userSpaceOnUse" color-interpolation-filters="sRGB">
<feFlood flood-opacity="0" result="BackgroundImageFix"/>
<feColorMatrix in="SourceAlpha" type="matrix" values="0 0 0 0 0 0 0 0 0 0 0 0 0 0 0 0 0 0 127 0" result="hardAlpha"/>
<feOffset dy="4"/>
<feGaussianBlur stdDeviation="8"/>
<feComposite in2="hardAlpha" operator="out"/>
<feColorMatrix type="matrix" values="0 0 0 0 0 0 0 0 0 0 0 0 0 0 0 0 0 0 0.64 0"/>
<feBlend mode="normal" in2="BackgroundImageFix" result="effect1_dropShadow_6417_415"/>
<feColorMatrix in="SourceAlpha" type="matrix" values="0 0 0 0 0 0 0 0 0 0 0 0 0 0 0 0 0 0 127 0" result="hardAlpha"/>
<feOffset dy="1"/>
<feGaussianBlur stdDeviation="0.5"/>
<feComposite in2="hardAlpha" operator="out"/>
<feColorMatrix type="matrix" values="0 0 0 0 0 0 0 0 0 0 0 0 0 0 0 0 0 0 0.08 0"/>
<feBlend mode="normal" in2="effect1_dropShadow_6417_415" result="effect2_dropShadow_6417_415"/>
<feBlend mode="normal" in="SourceGraphic" in2="effect2_dropShadow_6417_415" result="shape"/>
</filter>
<linearGradient id="paint0_linear_6417_415" x1="197.987" y1="72.0957" x2="201.506" y2="66.8103" gradientUnits="userSpaceOnUse">
<stop stop-color="#FFCC33"/>
<stop offset="1" stop-color="#FFEAAA"/>
</linearGradient>
<linearGradient id="paint1_linear_6417_415" x1="152.372" y1="112" x2="172.872" y2="40" gradientUnits="userSpaceOnUse">
<stop offset="0.0036" stop-color="#454545"/>
<stop offset="1" stop-color="#575245"/>
</linearGradient>
<linearGradient id="paint2_linear_6417_415" x1="152.372" y1="50" x2="170.643" y2="48.0888" gradientUnits="userSpaceOnUse">
<stop offset="0.552885" stop-color="#4E5078"/>
<stop offset="1" stop-color="#F9CC45"/>
</linearGradient>
<linearGradient id="paint3_linear_6417_415" x1="152.372" y1="135" x2="172.872" y2="63" gradientUnits="userSpaceOnUse">
<stop offset="0.0036" stop-color="#454545"/>
<stop offset="1" stop-color="#575245"/>
</linearGradient>
<linearGradient id="paint4_linear_6417_415" x1="152.372" y1="81.5" x2="170.782" y2="78.6085" gradientUnits="userSpaceOnUse">
<stop offset="0.336538" stop-color="#595959"/>
<stop offset="1" stop-color="#F9CC45"/>
</linearGradient>
<linearGradient id="paint5_linear_6417_415" x1="152.372" y1="175" x2="172.872" y2="103" gradientUnits="userSpaceOnUse">
<stop offset="0.0036" stop-color="#454545"/>
<stop offset="1" stop-color="#575245"/>
</linearGradient>
<linearGradient id="paint6_linear_6417_415" x1="170.372" y1="137.5" x2="152.726" y2="135" gradientUnits="userSpaceOnUse">
<stop stop-color="#3F5076"/>
<stop offset="1" stop-color="#F9CC45"/>
</linearGradient>
<linearGradient id="paint7_linear_6417_415" x1="192.21" y1="73.4985" x2="192.21" y2="161.707" gradientUnits="userSpaceOnUse">
<stop stop-color="#FFEAAA"/>
<stop offset="1" stop-color="#FFCC33"/>
</linearGradient>
<linearGradient id="paint8_linear_6417_415" x1="182.286" y1="117.603" x2="202.133" y2="117.603" gradientUnits="userSpaceOnUse">
<stop stop-color="#FFEAAA"/>
<stop offset="1" stop-color="#E7B10E"/>
</linearGradient>
<linearGradient id="paint9_linear_6417_415" x1="176.964" y1="97.8283" x2="171.878" y2="83.0778" gradientUnits="userSpaceOnUse">
<stop offset="0.0036"/>
<stop offset="1" stop-color="#554925"/>
</linearGradient>
<linearGradient id="paint10_linear_6417_415" x1="185.23" y1="91.0217" x2="176.655" y2="79.9597" gradientUnits="userSpaceOnUse">
<stop stop-color="#171717"/>
<stop offset="1" stop-color="#FFE8A3"/>
</linearGradient>
</defs>
</svg>
