<svg width="32" height="32" viewBox="0 0 32 32" fill="none" xmlns="http://www.w3.org/2000/svg">
<path d="M11.5 28C10.1193 28 9 26.8807 9 25.5V25H8C6.89543 25 6 24.1046 6 23V21H5C3.34315 21 2 19.6569 2 18V6C2 4.34315 3.34315 3 5 3H27C28.6569 3 30 4.34315 30 6V18C30 19.017 29.4939 19.9158 28.7199 20.4584L27.7601 18.6498C27.9097 18.475 28 18.2481 28 18V6C28 5.44772 27.5523 5 27 5H5C4.44772 5 4 5.44772 4 6V18C4 18.5523 4.44772 19 5 19H6.99C7.54781 19 8 19.4522 8 20.01V23H9.99C10.5478 23 11 23.4522 11 24.01V25.5C11 25.7761 11.2239 26 11.5 26H14.343C14.0289 26.6584 13.9417 27.3492 14.0377 28H11.5ZM23 9V13.0005C22.2777 13.0005 21.5554 13.2613 21 13.7829V9C21 8.44772 21.4477 8 22 8C22.5523 8 23 8.44772 23 9ZM11 9C11 8.44772 10.5523 8 10 8C9.44772 8 9 8.44772 9 9V14C9 14.5523 9.44772 15 10 15C10.5523 15 11 14.5523 11 14V9ZM15 9C15 8.44772 14.5523 8 14 8C13.4477 8 13 8.44772 13 9V14C13 14.5523 13.4477 15 14 15C14.5523 15 15 14.5523 15 14V9ZM19 9C19 8.44772 18.5523 8 18 8C17.4477 8 17 8.44772 17 9V14C17 14.5523 17.4477 15 18 15C18.5523 15 19 14.5523 19 14V9ZM21.7367 15.2602L15.7388 26.5624C15.0319 27.8944 15.9974 29.4999 17.5054 29.4999H28.4943C30.0024 29.4999 30.9679 27.8945 30.261 26.5624L24.263 15.2602C23.7255 14.2473 22.2743 14.2473 21.7367 15.2602ZM23.7499 18.7499V24.2499C23.7499 24.6641 23.4141 24.9999 22.9999 24.9999C22.5857 24.9999 22.2499 24.6641 22.2499 24.2499V18.7499C22.2499 18.3357 22.5857 17.9999 22.9999 17.9999C23.4141 17.9999 23.7499 18.3357 23.7499 18.7499ZM23.9999 26.9999C23.9999 27.5522 23.5522 27.9999 22.9999 27.9999C22.4476 27.9999 21.9999 27.5522 21.9999 26.9999C21.9999 26.4476 22.4476 25.9999 22.9999 25.9999C23.5522 25.9999 23.9999 26.4476 23.9999 26.9999Z" fill="#212121"/>
</svg>
