<svg width="28" height="28" viewBox="0 0 28 28" fill="none" xmlns="http://www.w3.org/2000/svg">
<path d="M13.8945 7.38135C12.3031 7.38135 11.0129 8.67146 11.0129 10.2629C11.0129 11.8543 12.3031 13.1444 13.8945 13.1444C15.4859 13.1444 16.776 11.8543 16.776 10.2629C16.776 8.67146 15.4859 7.38135 13.8945 7.38135Z" fill="#212121"/>
<path d="M9.05258 18.1315C8.37006 18.1315 7.58002 17.5848 7.43214 16.9535L6.97315 13.9919H4.88007L3.04863 6.21003C2.85524 5.50382 3.25338 4.76552 3.98141 4.53011C7.14378 3.535 10.3683 3 13.8946 3C17.421 3 20.6455 3.535 23.8079 4.53011C24.5359 4.76552 24.9341 5.50382 24.7407 6.21003L22.9092 13.9919H20.8161L20.2058 16.9535C20.058 17.5848 19.2679 18.1315 18.5854 18.1315H16.566V24.7896H19.342C19.6763 24.7896 19.9473 25.0605 19.9473 25.3948C19.9473 25.7291 19.6763 26.0001 19.342 26.0001H8.44736C8.11309 26.0001 7.8421 25.7291 7.8421 25.3948C7.8421 25.0605 8.11309 24.7896 8.44736 24.7896H11.2236V18.1315H9.05258ZM12.9341 18.1315V24.7896H14.8555V18.1315H12.9341ZM19.9473 6.63135V7.99318H21.3091V6.63135H19.9473ZM9.51294 10.2629C9.51294 12.6828 11.4746 14.6444 13.8945 14.6444C16.3144 14.6444 18.276 12.6828 18.276 10.2629C18.276 7.84303 16.3144 5.88135 13.8945 5.88135C11.4746 5.88135 9.51294 7.84303 9.51294 10.2629Z" fill="#212121"/>
</svg>
