<svg width="24" height="24" viewBox="0 0 24 24" fill="none" xmlns="http://www.w3.org/2000/svg">
<path d="M11.9999 2.25C9.00695 2.25 6.2674 2.7047 3.58554 3.5486L3.57992 3.55039C2.61207 3.86334 2.05385 4.85945 2.31276 5.83518L3.95906 12.8304H5.6394L5.92452 14.67L5.93106 14.6979C6.04622 15.1896 6.38387 15.5723 6.72857 15.819C7.07774 16.0688 7.53124 16.25 7.99993 16.25H9.75V21H7.5C7.22386 21 7 21.2239 7 21.5C7 21.7761 7.22386 22 7.5 22H16.5C16.7761 22 17 21.7761 17 21.5C17 21.2239 16.7761 21 16.5 21H14.25V16.25H15.8749C16.3436 16.25 16.7971 16.0688 17.1463 15.819C17.491 15.5723 17.8286 15.1896 17.9438 14.6979L17.9461 14.6881L18.3289 12.8304H20.0408L21.6871 5.83516C21.946 4.85944 21.3878 3.86332 20.4199 3.55037L20.4143 3.5486C17.7325 2.7047 14.9929 2.25 11.9999 2.25ZM11.25 21V16.25H12.75V21H11.25ZM18.125 6V7.125H17V6H18.125ZM9.75 9C9.75 10.2426 10.7574 11.25 12 11.25C13.2426 11.25 14.25 10.2426 14.25 9C14.25 7.75736 13.2426 6.75 12 6.75C10.7574 6.75 9.75 7.75736 9.75 9ZM12 5.25C14.0711 5.25 15.75 6.92893 15.75 9C15.75 11.0711 14.0711 12.75 12 12.75C9.92893 12.75 8.25 11.0711 8.25 9C8.25 6.92893 9.92893 5.25 12 5.25Z" fill="#212121"/>
</svg>
