<svg width="24" height="24" viewBox="0 0 24 24" fill="none" xmlns="http://www.w3.org/2000/svg">
<path d="M8.25015 9C8.25015 6.92893 9.92908 5.25 12.0002 5.25C14.0712 5.25 15.7502 6.92893 15.7502 9C15.7502 11.0711 14.0712 12.75 12.0002 12.75C9.92908 12.75 8.25015 11.0711 8.25015 9ZM12.0002 6.75C10.7575 6.75 9.75015 7.75736 9.75015 9C9.75015 10.2426 10.7575 11.25 12.0002 11.25C13.2428 11.25 14.2502 10.2426 14.2502 9C14.2502 7.75736 13.2428 6.75 12.0002 6.75Z" fill="#212121"/>
<path d="M17.0002 6H18.1252V7.125H17.0002V6Z" fill="#212121"/>
<path d="M9.75015 16.25H8.00008C7.53139 16.25 7.07789 16.0688 6.72872 15.819C6.38403 15.5723 6.04637 15.1896 5.93121 14.6979L5.92468 14.67L5.63956 12.8304H3.95921L2.31292 5.83518C2.05401 4.85945 2.61222 3.86334 3.58007 3.55039L3.58569 3.5486C6.26755 2.7047 9.00711 2.25 12.0001 2.25C14.9931 2.25 17.7326 2.7047 20.4145 3.5486L20.4201 3.55037C21.3879 3.86332 21.9461 4.85944 21.6872 5.83516L20.0409 12.8304H18.3291L17.9462 14.6881L17.9439 14.6979C17.8288 15.1896 17.4911 15.5723 17.1464 15.819C16.7973 16.0688 16.3438 16.25 15.8751 16.25H14.2502V21H16.5002C16.7763 21 17.0002 21.2239 17.0002 21.5C17.0002 21.7761 16.7763 22 16.5002 22H7.50015C7.22401 22 7.00015 21.7761 7.00015 21.5C7.00015 21.2239 7.22401 21 7.50015 21H9.75015V16.25ZM3.76362 5.4537L3.7672 5.46678L5.14717 11.3304H6.92499L7.39595 14.3691C7.41165 14.4099 7.46624 14.5022 7.60155 14.5991C7.7502 14.7054 7.90493 14.75 8.00008 14.75H15.8751C15.9702 14.75 16.125 14.7054 16.2736 14.5991C16.42 14.4943 16.4719 14.3948 16.4823 14.3602L17.1067 11.3304H18.853L20.233 5.46678L20.2365 5.4537C20.2874 5.26791 20.1894 5.05342 19.9608 4.97835C17.4189 4.17885 14.8321 3.75 12.0001 3.75C9.16807 3.75 6.58124 4.17885 4.03937 4.97835C3.8108 5.05342 3.71274 5.26791 3.76362 5.4537ZM11.2502 16.25V21H12.7502V16.25H11.2502Z" fill="#212121"/>
</svg>
