<svg width="20" height="20" viewBox="0 0 20 20" fill="none" xmlns="http://www.w3.org/2000/svg">
<path d="M7.18408 7.68439C7.18408 6.11474 8.45654 4.84229 10.0262 4.84229C11.5958 4.84229 12.8683 6.11474 12.8683 7.68439C12.8683 9.25404 11.5958 10.5265 10.0262 10.5265C8.45654 10.5265 7.18408 9.25404 7.18408 7.68439ZM10.0262 5.84229C9.00882 5.84229 8.18408 6.66702 8.18408 7.68439C8.18408 8.70176 9.00882 9.5265 10.0262 9.5265C11.0436 9.5265 11.8683 8.70176 11.8683 7.68439C11.8683 6.66702 11.0436 5.84229 10.0262 5.84229Z" fill="#212121"/>
<path d="M13.9297 5.34229H14.808V6.22057H13.9297V5.34229Z" fill="#212121"/>
<path d="M10.0263 2.5C7.69881 2.5 5.56868 2.85353 3.48286 3.50988L3.47912 3.51107C2.76527 3.74189 2.3556 4.47558 2.5465 5.19264L3.81653 10.5891H5.13394L5.36726 12.0945L5.37161 12.1131C5.45535 12.4706 5.70255 12.7535 5.96073 12.9382C6.22189 13.1251 6.55891 13.2588 6.90351 13.2588H8.46469V17.0526H6.51286C6.29728 17.0526 6.12251 17.2274 6.12251 17.443C6.12251 17.6586 6.29728 17.8333 6.51286 17.8333H13.5392C13.7548 17.8333 13.9295 17.6586 13.9295 17.443C13.9295 17.2274 13.7548 17.0526 13.5392 17.0526H11.5877V13.2588H13.0515C13.3961 13.2588 13.7332 13.1251 13.9943 12.9382C14.2525 12.7535 14.4997 12.4706 14.5834 12.1131L14.5863 12.1L14.8977 10.5891H16.2361L17.5061 5.19264C17.697 4.47557 17.2874 3.74189 16.5735 3.51107L16.5698 3.50988C14.484 2.85353 12.3538 2.5 10.0263 2.5ZM3.51361 4.9382C3.46149 4.74786 3.56429 4.53535 3.78522 4.46307C5.77774 3.83631 7.80608 3.5 10.0263 3.5C12.2466 3.5 14.2749 3.83631 16.2674 4.46307C16.4883 4.53534 16.5912 4.74786 16.539 4.9382L16.5366 4.94692L15.4441 9.58905H14.0828L13.6088 11.8891C13.5952 11.9398 13.5394 12.0341 13.4124 12.125C13.285 12.2162 13.1471 12.2588 13.0515 12.2588H6.90351C6.80793 12.2588 6.6701 12.2162 6.54261 12.125C6.42174 12.0385 6.36543 11.9489 6.34854 11.8967L5.99089 9.58905H4.60851L3.51599 4.94692L3.51361 4.9382ZM10.807 13.2588V17.0526H9.2454V13.2588H10.807Z" fill="#212121"/>
</svg>
