<svg width="28" height="28" viewBox="0 0 28 28" fill="none" xmlns="http://www.w3.org/2000/svg">
<path d="M9.51318 10.2629C9.51318 7.84303 11.4749 5.88135 13.8947 5.88135C16.3146 5.88135 18.2763 7.84303 18.2763 10.2629C18.2763 12.6828 16.3146 14.6444 13.8947 14.6444C11.4749 14.6444 9.51318 12.6828 9.51318 10.2629ZM13.8947 7.38135C12.3033 7.38135 11.0132 8.67146 11.0132 10.2629C11.0132 11.8543 12.3033 13.1444 13.8947 13.1444C15.4862 13.1444 16.7763 11.8543 16.7763 10.2629C16.7763 8.67146 15.4862 7.38135 13.8947 7.38135Z" fill="#212121"/>
<path d="M19.9473 6.63135H21.3091V7.99318H19.9473V6.63135Z" fill="#212121"/>
<path d="M13.8946 2.25C10.2883 2.25 6.98803 2.79774 3.75622 3.8147L3.75059 3.81649C2.65608 4.17039 2.02859 5.29501 2.32127 6.39364L4.28601 14.7419H6.33036L6.6953 17.0966L6.70183 17.1245C6.82985 17.671 7.20829 18.105 7.60538 18.3892C8.00695 18.6765 8.52447 18.8815 9.05251 18.8815H11.2231V24.7896H8.44687C8.1126 24.7896 7.84161 25.0605 7.84161 25.3948C7.84161 25.7291 8.1126 26.0001 8.44687 26.0001H19.3415C19.6758 26.0001 19.9468 25.7291 19.9468 25.3948C19.9468 25.0605 19.6758 24.7896 19.3415 24.7896H16.5655V18.8815H18.5853C19.1134 18.8815 19.6309 18.6765 20.0325 18.3892C20.4295 18.105 20.808 17.671 20.936 17.1245L20.9383 17.1147L21.4273 14.7419H23.5031L25.4679 6.39363C25.7606 5.295 25.1331 4.17037 24.0386 3.81647L24.0329 3.8147C20.8011 2.79774 17.5008 2.25 13.8946 2.25ZM3.77192 6.01195C3.68744 5.70342 3.85461 5.36059 4.20974 5.2445C7.30162 4.2719 10.4493 3.75 13.8946 3.75C17.3399 3.75 20.4875 4.2719 23.5794 5.2445C23.9345 5.36059 24.1017 5.70343 24.0172 6.01195L24.0136 6.02502L22.3152 13.2419H20.2049L19.474 16.7887C19.4512 16.8747 19.3602 17.0258 19.1596 17.1692C18.9586 17.3131 18.7398 17.3815 18.5853 17.3815H9.05251C8.89802 17.3815 8.67926 17.3131 8.47821 17.1692C8.28662 17.0322 8.19497 16.8882 8.16733 16.8006L7.61579 13.2419H5.47398L3.7755 6.02502L3.77192 6.01195ZM14.855 18.8815V24.7896H12.9337V18.8815H14.855Z" fill="#212121"/>
</svg>
