<svg width="32" height="32" viewBox="0 0 32 32" fill="none" xmlns="http://www.w3.org/2000/svg">
<path d="M16.0264 9.0083C14.3647 9.0083 13.0176 10.3554 13.0176 12.0171C13.0176 13.6788 14.3647 15.0259 16.0264 15.0259C17.6881 15.0259 19.0352 13.6788 19.0352 12.0171C19.0352 10.3554 17.6881 9.0083 16.0264 9.0083Z" fill="#212121"/>
<path d="M4.78326 4.73517C8.36672 3.60756 12.0273 3 16.0264 3C20.0256 3 23.6861 3.60756 27.2696 4.73517L27.2771 4.73753C28.5693 5.15536 29.3146 6.48533 28.9689 7.788L26.7694 17.1337H24.4819L23.9699 19.6179L23.9669 19.631C23.8131 20.2873 23.3624 20.7984 22.902 21.1277C22.4358 21.4613 21.8302 21.7033 21.2045 21.7033H19.1991V28.0532H22.0399C22.4089 28.0532 22.708 28.3524 22.708 28.7214C22.708 29.0904 22.4089 29.3895 22.0399 29.3895H10.0135C9.64451 29.3895 9.34538 29.0904 9.34538 28.7214C9.34538 28.3524 9.64451 28.0532 10.0135 28.0532H12.854V21.7033H10.6814C10.0556 21.7033 9.45008 21.4613 8.98379 21.1277C8.52347 20.7984 8.07269 20.2873 7.91896 19.631L7.91025 19.5938L7.52898 17.1337H5.28346L3.08397 7.78801C2.73828 6.48533 3.48353 5.1554 4.77576 4.73756L4.78326 4.73517ZM15.1903 21.7033V28.0532H16.8628V21.7033H15.1903ZM22.7078 8.0083V9.5116H24.2111V8.0083H22.7078ZM11.0176 12.0171C11.0176 14.7834 13.2601 17.0259 16.0264 17.0259C18.7926 17.0259 21.0352 14.7834 21.0352 12.0171C21.0352 9.25081 18.7926 7.0083 16.0264 7.0083C13.2601 7.0083 11.0176 9.25081 11.0176 12.0171Z" fill="#212121"/>
</svg>
