<svg width="32" height="32" viewBox="0 0 32 32" fill="none" xmlns="http://www.w3.org/2000/svg">
<path d="M11.0176 12.0171C11.0176 9.25081 13.2601 7.0083 16.0264 7.0083C18.7926 7.0083 21.0352 9.25081 21.0352 12.0171C21.0352 14.7834 18.7926 17.0259 16.0264 17.0259C13.2601 17.0259 11.0176 14.7834 11.0176 12.0171ZM16.0264 9.0083C14.3647 9.0083 13.0176 10.3554 13.0176 12.0171C13.0176 13.6788 14.3647 15.0259 16.0264 15.0259C17.6881 15.0259 19.0352 13.6788 19.0352 12.0171C19.0352 10.3554 17.6881 9.0083 16.0264 9.0083Z" fill="#212121"/>
<path d="M22.7075 8.0083H24.2108V9.5116H22.7075V8.0083Z" fill="#212121"/>
<path d="M16.0264 3C12.0273 3 8.36672 3.60756 4.78326 4.73517L4.77576 4.73756C3.48353 5.1554 2.73828 6.48533 3.08397 7.78801L5.28346 17.1337H7.52898L7.91025 19.5938L7.91896 19.631C8.07269 20.2873 8.52347 20.7984 8.98379 21.1277C9.45008 21.4613 10.0556 21.7033 10.6814 21.7033H12.854V28.0532H10.0135C9.64451 28.0532 9.34538 28.3524 9.34538 28.7214C9.34538 29.0904 9.64451 29.3895 10.0135 29.3895H22.0399C22.4089 29.3895 22.708 29.0904 22.708 28.7214C22.708 28.3524 22.4089 28.0532 22.0399 28.0532H19.1991V21.7033H21.2044C21.8302 21.7033 22.4357 21.4613 22.902 21.1277C23.3624 20.7984 23.8131 20.2873 23.9669 19.631L23.9699 19.6179L24.4819 17.1337H26.7694L28.9689 7.78801C29.3146 6.48533 28.5693 5.15537 27.2771 4.73753L27.2696 4.73517C23.6861 3.60756 20.0256 3 16.0264 3ZM5.01823 7.27937C4.94993 7.02994 5.08164 6.74216 5.38816 6.64151C8.78497 5.57309 12.2419 5 16.0264 5C19.811 5 23.2679 5.57309 26.6647 6.6415C26.9712 6.74216 27.1029 7.02994 27.0346 7.27937L27.0299 7.2968L25.1855 15.1337H22.852L22.018 19.1807C22.004 19.2276 21.9342 19.361 21.7383 19.5012C21.5393 19.6435 21.3321 19.7033 21.2044 19.7033H10.6814C10.5537 19.7033 10.3465 19.6435 10.1476 19.5012C9.96633 19.3715 9.89306 19.2477 9.87197 19.1927L9.24289 15.1337H6.86741L5.02301 7.2968L5.01823 7.27937ZM16.8628 21.7033V28.0532H15.1903V21.7033H16.8628Z" fill="#212121"/>
</svg>
