<svg width="20" height="20" viewBox="0 0 20 20" fill="none" xmlns="http://www.w3.org/2000/svg">
<path d="M8.18408 7.68421C8.18408 6.66684 9.00882 5.8421 10.0262 5.8421C11.0436 5.8421 11.8683 6.66684 11.8683 7.68421C11.8683 8.70158 11.0436 9.52631 10.0262 9.52631C9.00882 9.52631 8.18408 8.70158 8.18408 7.68421Z" fill="#212121"/>
<path d="M3.48265 3.50988C5.56846 2.85353 7.69859 2.5 10.0261 2.5C12.3536 2.5 14.4837 2.85353 16.5696 3.50988L16.5733 3.51106C17.2872 3.74187 17.6968 4.47557 17.5059 5.19264L16.2359 10.5891H14.8975L14.5834 12.1131C14.4997 12.4706 14.2523 12.7535 13.9941 12.9382C13.7329 13.1251 13.3959 13.2588 13.0513 13.2588H11.5877V17.0524H13.5392C13.7548 17.0524 13.9295 17.2272 13.9295 17.4428C13.9295 17.6583 13.7548 17.8331 13.5392 17.8331H6.51286C6.29728 17.8331 6.12251 17.6583 6.12251 17.4428C6.12251 17.2272 6.29728 17.0524 6.51286 17.0524H8.46469V13.2588H6.9033C6.55869 13.2588 6.22168 13.1251 5.96051 12.9382C5.70233 12.7535 5.45514 12.4706 5.3714 12.1131L5.36704 12.0945L5.13373 10.5891H3.81632L2.54629 5.19264C2.35538 4.47558 2.76506 3.74189 3.4789 3.51107L3.48265 3.50988ZM9.24539 13.2588V17.0524H10.807V13.2588H9.24539ZM14.808 5.3421H13.9297V6.22039H14.808V5.3421ZM10.0262 4.8421C8.45654 4.8421 7.18408 6.11456 7.18408 7.68421C7.18408 9.25386 8.45654 10.5263 10.0262 10.5263C11.5958 10.5263 12.8683 9.25386 12.8683 7.68421C12.8683 6.11456 11.5958 4.8421 10.0262 4.8421Z" fill="#212121"/>
</svg>
