<svg width="150" height="150" viewBox="0 0 150 150" fill="none" xmlns="http://www.w3.org/2000/svg">
<path d="M74.7 141.6C102.7 141.6 125.4 118.9 125.4 90.8C125.4 62.7 102.7 40 74.7 40C46.7 40 24 62.7 24 90.8C24 118.9 46.7 141.6 74.7 141.6Z" fill="#242424"/>
<path d="M42.5322 119.312L77.8412 108.249V62.887L42.5322 73.8657V119.312Z" fill="#B7BFCD"/>
<path opacity="0.4" d="M113.15 119.312L77.8413 108.249V62.887L113.15 73.8657V119.312Z" fill="#6D7C9A"/>
<path d="M42.5322 119.312L77.8412 108.249V62.887L42.5322 73.8657V119.312Z" fill="url(#paint0_linear_875_5003)"/>
<path d="M113.15 119.312L77.8412 108.249V62.887L113.15 73.8657V119.312Z" fill="url(#paint1_linear_875_5003)"/>
<path d="M113.15 119.312L77.8413 108.249V62.887L113.15 73.8657V119.312Z" fill="url(#paint2_linear_875_5003)"/>
<path d="M77.8412 130.462L42.5322 119.398V74.0361L77.8412 85.1V130.462Z" fill="url(#paint3_linear_875_5003)"/>
<path d="M77.8413 130.462L113.15 119.398V74.0361L77.8413 85.1V130.462Z" fill="#3A3A3A"/>
<path opacity="0.29" d="M69.8412 122.462L42.5322 119.398V74.0361L77.8412 85.1L69.8412 122.462Z" fill="url(#paint4_linear_875_5003)"/>
<path opacity="0.29" d="M85.8413 114.462L113.15 119.398V74.0361L77.8413 85.1L85.8413 114.462Z" fill="url(#paint5_linear_875_5003)"/>
<path d="M77.8413 62.887L61.2402 50.4614L25.3413 62.5465L42.5323 73.8657L77.8413 62.887Z" fill="#4F4F4F"/>
<path d="M77.8413 62.887L94.4424 50.4614L130.341 62.5465L113.15 73.8657L77.8413 62.887Z" fill="#4F4F4F"/>
<path d="M42.5323 74.0361L77.8413 85.1L60.229 96.334L25.3413 84.7595L42.5323 74.0361Z" fill="#4F4F4F"/>
<path d="M113.15 74.0361L77.8413 85.1L95.4537 96.334L130.341 84.7595L113.15 74.0361Z" fill="#4F4F4F"/>
<path d="M87.957 18.8577C92.8646 32.1368 94.3301 35.0863 94.7787 48.1826C94.5848 51.1728 94.4608 54.4241 93.0313 57.0456C91.1208 61.0553 86.4667 63.8409 82.0763 63.8974C77.5534 63.9894 73.1268 61.2573 71.1423 57.0316C69.745 54.4676 69.7991 50.9552 71.7313 48.6187C73.8311 46.3773 77.5162 45.8101 80.1623 47.2002C83.0736 48.5192 84.806 51.2733 85.4427 54.181C86.0793 57.0887 85.7878 60.2449 84.9935 63.1161C83.3298 70.0984 81.9664 70.4396 77.9005 82.2644" stroke="#777777" stroke-width="2" stroke-miterlimit="10" stroke-dasharray="4 4"/>
<path d="M93.7134 11.2325C93.7019 13.2065 91.8649 14.4152 89.5354 13.7849C87.0826 13.3668 85.3466 12.9359 85.2349 11.1741C85.2912 9.36729 87.2625 8.66015 89.5698 7.863C92.3364 6.76368 93.5568 9.30357 93.7134 11.2325Z" fill="#CBCBCB"/>
<path d="M77.8643 17.2689C79.1073 18.5485 81.7281 18.9217 83.0052 16.9671C84.4055 14.8003 85.6041 13.225 84.3163 11.7782C83.0733 10.4986 81.8636 11.3601 79.097 12.4594C76.8792 13.5909 76.4085 15.8671 77.8643 17.2689Z" fill="#CBCBCB"/>
<path d="M83.6 9.10358C84.7313 8.62142 86.0864 8.97516 86.6911 9.88824C86.9487 10.1776 87.251 10.6341 87.3405 10.9685C88.3034 13.219 88.0007 15.4502 86.7014 15.9774C85.2789 16.7167 83.3191 15.4499 82.569 13.3215C82.3899 12.6528 82.3003 12.3184 82.166 11.8169C82.0206 10.6016 82.4687 9.58575 83.6 9.10358Z" fill="#777777"/>
<path d="M119.11 52.3345C121.222 52.3345 122.934 50.6206 122.934 48.5065C122.934 46.3923 121.222 44.6785 119.11 44.6785C116.997 44.6785 115.285 46.3923 115.285 48.5065C115.285 50.6206 116.997 52.3345 119.11 52.3345Z" fill="#5C5C5C"/>
<path d="M17.5162 73.0356C18.9058 73.0356 20.0324 71.9081 20.0324 70.5172C20.0324 69.1263 18.9058 67.9988 17.5162 67.9988C16.1265 67.9988 15 69.1263 15 70.5172C15 71.9081 16.1265 73.0356 17.5162 73.0356Z" fill="#5C5C5C"/>
<path d="M29.0825 118.312C30.4722 118.312 31.5987 117.185 31.5987 115.794C31.5987 114.403 30.4722 113.275 29.0825 113.275C27.6929 113.275 26.5663 114.403 26.5663 115.794C26.5663 117.185 27.6929 118.312 29.0825 118.312Z" fill="#5C5C5C"/>
<path d="M31.5987 45.3314H29.4087V43.1414H27.5315V45.3314H25.3414V47.2712H27.5315V49.4612H29.4087V47.2712H31.5987V45.3314Z" fill="#777777"/>
<path d="M36.4096 100.278H34.2196V98.0883H32.3424V100.278H30.1523V102.218H32.3424V104.408H34.2196V102.218H36.4096V100.278Z" fill="#777777"/>
<path d="M132.147 100.403L129.468 99.0497L130.82 96.3701L128.524 95.2105L127.171 97.8901L124.491 96.5372L123.293 98.9105L125.973 100.263L124.62 102.943L126.916 104.103L128.269 101.423L130.949 102.776L132.147 100.403Z" fill="#777777"/>
<defs>
<linearGradient id="paint0_linear_875_5003" x1="77.8412" y1="62.887" x2="77.8412" y2="119.312" gradientUnits="userSpaceOnUse">
<stop stop-color="#414141"/>
<stop offset="1" stop-color="#3B3B3B"/>
</linearGradient>
<linearGradient id="paint1_linear_875_5003" x1="77.8412" y1="62.887" x2="77.8412" y2="119.312" gradientUnits="userSpaceOnUse">
<stop stop-color="#414141"/>
<stop offset="1" stop-color="#3B3B3B"/>
</linearGradient>
<linearGradient id="paint2_linear_875_5003" x1="95.4958" y1="62.887" x2="95.4958" y2="119.312" gradientUnits="userSpaceOnUse">
<stop stop-color="#363636"/>
<stop offset="1" stop-color="#1D1D1D"/>
</linearGradient>
<linearGradient id="paint3_linear_875_5003" x1="60.1752" y1="72.731" x2="60.1752" y2="131.07" gradientUnits="userSpaceOnUse">
<stop stop-color="#5C5C5C"/>
<stop offset="0.9964" stop-color="#4D4D4D"/>
</linearGradient>
<linearGradient id="paint4_linear_875_5003" x1="49.5" y1="106" x2="55.7291" y2="87.7618" gradientUnits="userSpaceOnUse">
<stop offset="0.00289017" stop-color="#262626" stop-opacity="0"/>
<stop offset="1" stop-opacity="0.79"/>
</linearGradient>
<linearGradient id="paint5_linear_875_5003" x1="85.7574" y1="103.117" x2="93.3036" y2="80.3643" gradientUnits="userSpaceOnUse">
<stop offset="0.00289017" stop-color="#010101" stop-opacity="0"/>
<stop offset="1"/>
</linearGradient>
</defs>
</svg>
