<svg width="150" height="150" viewBox="0 0 150 150" fill="none" xmlns="http://www.w3.org/2000/svg">
<path d="M74.7 141.003C102.7 141.003 125.4 118.303 125.4 90.2031C125.4 62.1031 102.7 39.4031 74.7 39.4031C46.7 39.4031 24 62.1031 24 90.2031C24 118.303 46.7 141.003 74.7 141.003Z" fill="#F0F0F0"/>
<path d="M42.5322 118.716L77.8412 107.652V62.29L42.5322 73.2688V118.716Z" fill="#B7BFCD"/>
<path d="M42.5322 118.716L77.8412 107.652V62.29L42.5322 73.2688V118.716Z" fill="url(#paint0_linear_875_5001)"/>
<path d="M113.15 118.716L77.8412 107.652V62.29L113.15 73.2688V118.716Z" fill="url(#paint1_linear_875_5001)"/>
<path opacity="0.4" d="M113.15 118.716L77.8413 107.652V62.29L113.15 73.2688V118.716Z" fill="#D9D2C7"/>
<g filter="url(#filter0_d_875_5001)">
<path d="M77.8412 129.865L42.5322 118.801V73.439L77.8412 84.5028V129.865Z" fill="url(#paint2_linear_875_5001)"/>
<path d="M77.8412 129.865L113.15 118.801V73.439L77.8412 84.5028V129.865Z" fill="#EDE5DA"/>
</g>
<path opacity="0.09" d="M66 120.903L42.5322 118.801V73.439L77.8412 84.5028L66 120.903Z" fill="url(#paint3_linear_875_5001)"/>
<path opacity="0.2" d="M85.8413 113.865L113.15 118.801V73.439L77.8413 84.5028L85.8413 113.865Z" fill="url(#paint4_linear_875_5001)"/>
<path d="M77.8413 62.29L61.2402 49.8645L25.3413 61.9496L42.5323 73.2688L77.8413 62.29Z" fill="#EDE5DA"/>
<path d="M77.8413 62.29L94.4424 49.8645L130.341 61.9496L113.15 73.2688L77.8413 62.29Z" fill="#EDE5DA"/>
<g filter="url(#filter1_d_875_5001)">
<path d="M42.5323 73.439L77.8413 84.5028L60.229 95.7368L25.3413 84.1624L42.5323 73.439Z" fill="url(#paint5_linear_875_5001)"/>
</g>
<g filter="url(#filter2_d_875_5001)">
<path d="M113.15 73.439L77.8413 84.5028L95.4537 95.7368L130.341 84.1624L113.15 73.439Z" fill="url(#paint6_linear_875_5001)"/>
</g>
<path d="M87.6928 18.7413C92.6394 32.1657 94.1138 35.1486 94.5977 48.3765C94.4116 51.3959 94.2962 54.6793 92.8727 57.3232C90.9715 61.3677 86.3215 64.1686 81.9282 64.214C77.4022 64.2949 72.9651 61.5237 70.968 57.2506C69.5629 54.6573 69.6076 51.11 71.535 48.7555C73.6303 46.4973 77.3165 45.9343 79.9682 47.3453C82.8851 48.6852 84.6261 51.4714 85.271 54.4097C85.9158 57.3481 85.6325 60.535 84.8454 63.4327C83.1991 70.4801 81.8356 70.8211 77.7983 82.7528" stroke="#B7B4AF" stroke-width="2" stroke-miterlimit="10" stroke-dasharray="4 4"/>
<path d="M93.7134 11.6356C93.7019 13.6096 91.8649 14.8183 89.5354 14.188C87.0826 13.7699 85.3466 13.339 85.2349 11.5772C85.2912 9.77037 87.2625 9.06322 89.5698 8.26607C92.3364 7.16675 93.5568 9.70664 93.7134 11.6356Z" fill="#B7B4AF"/>
<path d="M77.8643 17.672C79.1073 18.9516 81.7281 19.3247 83.0052 17.3701C84.4055 15.2034 85.6041 13.6281 84.3163 12.1813C83.0733 10.9017 81.8636 11.7632 79.097 12.8625C76.8792 13.994 76.4085 16.2702 77.8643 17.672Z" fill="#B7B4AF"/>
<path d="M83.6 9.50666C84.7313 9.0245 86.0864 9.37823 86.6911 10.2913C86.9487 10.5807 87.251 11.0372 87.3405 11.3716C88.3034 13.6221 88.0007 15.8533 86.7014 16.3804C85.2789 17.1198 83.3191 15.8529 82.569 13.7246C82.3899 13.0559 82.3003 12.7215 82.166 12.22C82.0206 11.0047 82.4687 9.98882 83.6 9.50666Z" fill="#777777"/>
<path d="M119.11 52.7378C121.222 52.7378 122.934 51.0239 122.934 48.9098C122.934 46.7956 121.222 45.0818 119.11 45.0818C116.997 45.0818 115.285 46.7956 115.285 48.9098C115.285 51.0239 116.997 52.7378 119.11 52.7378Z" fill="#EDE5DA"/>
<path d="M17.5162 73.439C18.9058 73.439 20.0324 72.3114 20.0324 70.9205C20.0324 69.5296 18.9058 68.4021 17.5162 68.4021C16.1265 68.4021 15 69.5296 15 70.9205C15 72.3114 16.1265 73.439 17.5162 73.439Z" fill="#EDE5DA"/>
<path d="M29.0825 118.716C30.4722 118.716 31.5987 117.588 31.5987 116.197C31.5987 114.806 30.4722 113.679 29.0825 113.679C27.6929 113.679 26.5663 114.806 26.5663 116.197C26.5663 117.588 27.6929 118.716 29.0825 118.716Z" fill="#EDE5DA"/>
<path d="M31.5987 45.7347H29.4087V43.5447H27.5315V45.7347H25.3414V47.6745H27.5315V49.8645H29.4087V47.6745H31.5987V45.7347Z" fill="#D9D2C7"/>
<path d="M36.4096 100.682H34.2196V98.4919H32.3424V100.682H30.1523V102.622H32.3424V104.812H34.2196V102.622H36.4096V100.682Z" fill="#D9D2C7"/>
<path d="M132.147 100.806L129.468 99.4529L130.821 96.7734L128.524 95.6138L127.171 98.2933L124.491 96.9405L123.293 99.3138L125.973 100.667L124.62 103.346L126.917 104.506L128.269 101.826L130.949 103.179L132.147 100.806Z" fill="#D9D2C7"/>
<defs>
<filter id="filter0_d_875_5001" x="30.5322" y="67.439" width="94.6182" height="80.4255" filterUnits="userSpaceOnUse" color-interpolation-filters="sRGB">
<feFlood flood-opacity="0" result="BackgroundImageFix"/>
<feColorMatrix in="SourceAlpha" type="matrix" values="0 0 0 0 0 0 0 0 0 0 0 0 0 0 0 0 0 0 127 0" result="hardAlpha"/>
<feOffset dy="6"/>
<feGaussianBlur stdDeviation="6"/>
<feComposite in2="hardAlpha" operator="out"/>
<feColorMatrix type="matrix" values="0 0 0 0 0.576471 0 0 0 0 0.501961 0 0 0 0 0.396078 0 0 0 0.24 0"/>
<feBlend mode="normal" in2="BackgroundImageFix" result="effect1_dropShadow_875_5001"/>
<feBlend mode="normal" in="SourceGraphic" in2="effect1_dropShadow_875_5001" result="shape"/>
</filter>
<filter id="filter1_d_875_5001" x="9.34131" y="63.439" width="84.5" height="54.2979" filterUnits="userSpaceOnUse" color-interpolation-filters="sRGB">
<feFlood flood-opacity="0" result="BackgroundImageFix"/>
<feColorMatrix in="SourceAlpha" type="matrix" values="0 0 0 0 0 0 0 0 0 0 0 0 0 0 0 0 0 0 127 0" result="hardAlpha"/>
<feOffset dy="6"/>
<feGaussianBlur stdDeviation="8"/>
<feColorMatrix type="matrix" values="0 0 0 0 0.576471 0 0 0 0 0.501961 0 0 0 0 0.396078 0 0 0 0.37 0"/>
<feBlend mode="normal" in2="BackgroundImageFix" result="effect1_dropShadow_875_5001"/>
<feBlend mode="normal" in="SourceGraphic" in2="effect1_dropShadow_875_5001" result="shape"/>
</filter>
<filter id="filter2_d_875_5001" x="61.8413" y="63.439" width="84.5" height="54.2979" filterUnits="userSpaceOnUse" color-interpolation-filters="sRGB">
<feFlood flood-opacity="0" result="BackgroundImageFix"/>
<feColorMatrix in="SourceAlpha" type="matrix" values="0 0 0 0 0 0 0 0 0 0 0 0 0 0 0 0 0 0 127 0" result="hardAlpha"/>
<feOffset dy="6"/>
<feGaussianBlur stdDeviation="8"/>
<feColorMatrix type="matrix" values="0 0 0 0 0.576471 0 0 0 0 0.501961 0 0 0 0 0.396078 0 0 0 0.37 0"/>
<feBlend mode="normal" in2="BackgroundImageFix" result="effect1_dropShadow_875_5001"/>
<feBlend mode="normal" in="SourceGraphic" in2="effect1_dropShadow_875_5001" result="shape"/>
</filter>
<linearGradient id="paint0_linear_875_5001" x1="77.8468" y1="64.2502" x2="77.8468" y2="95.9213" gradientUnits="userSpaceOnUse">
<stop stop-color="#CAC2B4"/>
<stop offset="1" stop-color="#998E7B"/>
</linearGradient>
<linearGradient id="paint1_linear_875_5001" x1="77.8468" y1="64.2502" x2="77.8468" y2="95.9213" gradientUnits="userSpaceOnUse">
<stop stop-color="#CAC2B4"/>
<stop offset="1" stop-color="#998E7B"/>
</linearGradient>
<linearGradient id="paint2_linear_875_5001" x1="77.8182" y1="72.1338" x2="77.8182" y2="130.473" gradientUnits="userSpaceOnUse">
<stop stop-color="#FDFEFF"/>
<stop offset="0.9964" stop-color="#F5F2EC"/>
</linearGradient>
<linearGradient id="paint3_linear_875_5001" x1="50.4483" y1="104.484" x2="58.9309" y2="80.5261" gradientUnits="userSpaceOnUse">
<stop offset="0.00289017" stop-color="#938065" stop-opacity="0"/>
<stop offset="1" stop-color="#463B2B"/>
</linearGradient>
<linearGradient id="paint4_linear_875_5001" x1="96.8971" y1="111.029" x2="97.5642" y2="80.6261" gradientUnits="userSpaceOnUse">
<stop offset="0.00289017" stop-color="#938065" stop-opacity="0"/>
<stop offset="1" stop-color="#938065"/>
</linearGradient>
<linearGradient id="paint5_linear_875_5001" x1="51.5742" y1="72.9232" x2="51.5742" y2="95.9772" gradientUnits="userSpaceOnUse">
<stop stop-color="#FDFEFF"/>
<stop offset="0.9964" stop-color="#F5F2EC"/>
</linearGradient>
<linearGradient id="paint6_linear_875_5001" x1="104.074" y1="72.9232" x2="104.074" y2="95.9772" gradientUnits="userSpaceOnUse">
<stop stop-color="#FDFEFF"/>
<stop offset="0.9964" stop-color="#F5F2EC"/>
</linearGradient>
</defs>
</svg>
