<svg width="28" height="28" viewBox="0 0 28 28" fill="none" xmlns="http://www.w3.org/2000/svg">
<path d="M9.43649 18.5231H11.5397C11.2393 16.1351 9.2487 14.2777 6.80743 14.2777C4.14081 14.2777 2 16.4762 2 19.1295C2 21.8208 4.14081 23.9814 6.80743 23.9814C9.2487 23.9814 11.2393 22.1619 11.5397 19.736H9.43649C9.13603 20.949 8.0844 21.8587 6.80743 21.8587C5.30511 21.8587 4.10325 20.6457 4.10325 19.1295C4.10325 17.6513 5.30511 16.4004 6.80743 16.4004C8.0844 16.4004 9.13603 17.3101 9.43649 18.5231ZM24.3846 15.6802C22.5443 14.0882 21.0795 14.1261 19.765 14.5431L17.6993 10.6389H20.0279C20.6663 10.6389 21.2297 10.1082 21.2297 9.42591V8.21295C21.2297 7.56857 20.6663 7 20.0279 7H19.2391C18.9762 7 18.6758 7.11371 18.488 7.30324L16.6852 8.78153L16.0092 7.49276C15.8214 7.18952 15.5209 7 15.2204 7H12.5163C11.9904 7 11.6149 7.41695 11.6149 7.90972C11.6149 8.44038 11.9904 8.81943 12.5163 8.81943H14.6571L15.2955 9.99448L11.6149 13.0648H10.751L9.92475 12.2309C9.32382 11.6244 8.45998 11.2453 7.59615 11.2453H3.80279C3.46476 11.2453 3.20186 11.5486 3.20186 11.8518V12.4583C3.20186 12.7994 3.46476 13.0648 3.80279 13.0648H6.58208C9.58673 13.0648 12.2533 15.1874 12.704 18.1819C12.8543 18.94 12.8167 19.6602 12.6665 20.3425H15.3331C15.258 19.9634 15.2204 19.5465 15.2204 19.1295C15.2204 17.1585 16.1594 15.4528 17.6241 14.3156L18.1875 15.4149C16.9481 16.4383 16.1969 18.0303 16.4598 19.8118C16.7228 21.8966 18.3753 23.6402 20.441 23.9434C23.4832 24.3983 26.0371 22.0482 25.9996 19.0916C25.9996 17.765 25.3611 16.552 24.3846 15.6802ZM21.2297 21.8587C19.7274 21.8587 18.5255 20.6457 18.5255 19.1295C18.5255 18.4473 18.7884 17.8029 19.2016 17.348L20.4034 19.5844C20.5912 19.8876 20.8917 20.0772 21.1922 20.0772C21.3424 20.0772 21.4926 20.0393 21.6429 19.9634C22.056 19.6981 22.2438 19.1674 22.0184 18.7126L20.779 16.4762C20.9293 16.4383 21.0795 16.4004 21.2297 16.4004C22.6945 16.4004 23.9339 17.6513 23.9339 19.1295C23.9339 20.6457 22.6945 21.8587 21.2297 21.8587ZM5.60557 19.1295C5.60557 19.8118 6.13138 20.3425 6.80743 20.3425C7.44592 20.3425 8.00929 19.8118 8.00929 19.1295C8.00929 18.4852 7.44592 17.9166 6.80743 17.9166C6.13138 17.9166 5.60557 18.4852 5.60557 19.1295Z" fill="#212121"/>
</svg>
