<svg width="24" height="24" viewBox="0 0 24 24" fill="none" xmlns="http://www.w3.org/2000/svg">
<path d="M8.1875 15.5H9.9375C9.6875 13.5312 8.03125 12 6 12C3.78125 12 2 13.8125 2 16C2 18.2188 3.78125 20 6 20C8.03125 20 9.6875 18.5 9.9375 16.5H8.1875C7.9375 17.5 7.0625 18.25 6 18.25C4.75 18.25 3.75 17.25 3.75 16C3.75 14.7812 4.75 13.75 6 13.75C7.0625 13.75 7.9375 14.5 8.1875 15.5ZM20.625 13.1562C19.0938 11.8438 17.875 11.875 16.7812 12.2188L15.0625 9H17C17.5312 9 18 8.5625 18 8V7C18 6.46875 17.5312 6 17 6H16.3438C16.125 6 15.875 6.09375 15.7188 6.25L14.2188 7.46875L13.6562 6.40625C13.5 6.15625 13.25 6 13 6H10.75C10.3125 6 10 6.34375 10 6.75C10 7.1875 10.3125 7.5 10.75 7.5H12.5312L13.0625 8.46875L10 11H9.28125L8.59375 10.3125C8.09375 9.8125 7.375 9.5 6.65625 9.5H3.5C3.21875 9.5 3 9.75 3 10V10.5C3 10.7812 3.21875 11 3.5 11H5.8125C8.3125 11 10.5312 12.75 10.9062 15.2188C11.0312 15.8438 11 16.4375 10.875 17H13.0938C13.0312 16.6875 13 16.3438 13 16C13 14.375 13.7812 12.9688 15 12.0312L15.4688 12.9375C14.4375 13.7812 13.8125 15.0938 14.0312 16.5625C14.25 18.2812 15.625 19.7188 17.3438 19.9688C19.875 20.3438 22 18.4062 21.9688 15.9688C21.9688 14.875 21.4375 13.875 20.625 13.1562ZM18 18.25C16.75 18.25 15.75 17.25 15.75 16C15.75 15.4375 15.9688 14.9062 16.3125 14.5312L17.3125 16.375C17.4688 16.625 17.7188 16.7812 17.9688 16.7812C18.0938 16.7812 18.2188 16.75 18.3438 16.6875C18.6875 16.4688 18.8438 16.0312 18.6562 15.6562L17.625 13.8125C17.75 13.7812 17.875 13.75 18 13.75C19.2188 13.75 20.25 14.7812 20.25 16C20.25 17.25 19.2188 18.25 18 18.25ZM5 16C5 16.5625 5.4375 17 6 17C6.53125 17 7 16.5625 7 16C7 15.4688 6.53125 15 6 15C5.4375 15 5 15.4688 5 16Z" fill="#212121"/>
</svg>
