<svg width="32" height="32" viewBox="0 0 32 32" fill="none" xmlns="http://www.w3.org/2000/svg">
<path d="M10.6759 20.5565H13.1297C12.7792 17.7471 10.4568 15.562 7.60867 15.562C4.49761 15.562 2 18.1485 2 21.27C2 24.4362 4.49761 26.9781 7.60867 26.9781C10.4568 26.9781 12.7792 24.8376 13.1297 21.9835H10.6759C10.3254 23.4106 9.09847 24.4808 7.60867 24.4808C5.85596 24.4808 4.45379 23.0538 4.45379 21.27C4.45379 19.5309 5.85596 18.0593 7.60867 18.0593C9.09847 18.0593 10.3254 19.1295 10.6759 20.5565ZM28.1154 17.212C25.9683 15.3391 24.2594 15.3837 22.7258 15.8742L20.3158 11.281H23.0325C23.7774 11.281 24.4347 10.6567 24.4347 9.85401V8.427C24.4347 7.66891 23.7774 7 23.0325 7H22.1123C21.8056 7 21.4551 7.13378 21.236 7.35675L19.1327 9.09591L18.344 7.57972C18.1249 7.22297 17.7744 7 17.4238 7H14.269C13.6555 7 13.2173 7.49053 13.2173 8.07025C13.2173 8.69457 13.6555 9.14051 14.269 9.14051H16.7666L17.5115 10.5229L13.2173 14.135H12.2095L11.2455 13.154C10.5445 12.4405 9.53665 11.9945 8.52884 11.9945H4.10325C3.70889 11.9945 3.40217 12.3513 3.40217 12.708V13.4215C3.40217 13.8229 3.70889 14.135 4.10325 14.135H7.34576C10.8512 14.135 13.9622 16.6323 14.4881 20.1552C14.6633 21.0471 14.6195 21.8944 14.4442 22.697H17.5553C17.4677 22.2511 17.4238 21.7606 17.4238 21.27C17.4238 18.9512 18.5193 16.9444 20.2282 15.6066L20.8854 16.8998C19.4395 18.1039 18.5631 19.9768 18.8698 22.0727C19.1765 24.5254 21.1045 26.5767 23.5145 26.9335C27.0637 27.4686 30.0433 24.7038 29.9995 21.2255C29.9995 19.6647 29.2546 18.2377 28.1154 17.212ZM24.4347 24.4808C22.682 24.4808 21.2798 23.0538 21.2798 21.27C21.2798 20.4674 21.5865 19.7093 22.0685 19.1741L23.4707 21.8052C23.6898 22.1619 24.0403 22.3849 24.3909 22.3849C24.5661 22.3849 24.7414 22.3403 24.9167 22.2511C25.3987 21.939 25.6178 21.3146 25.3548 20.7795L23.9089 18.1485C24.0841 18.1039 24.2594 18.0593 24.4347 18.0593C26.1436 18.0593 27.5895 19.5309 27.5895 21.27C27.5895 23.0538 26.1436 24.4808 24.4347 24.4808ZM6.2065 21.27C6.2065 22.0727 6.81995 22.697 7.60867 22.697C8.35357 22.697 9.01084 22.0727 9.01084 21.27C9.01084 20.5119 8.35357 19.843 7.60867 19.843C6.81995 19.843 6.2065 20.5119 6.2065 21.27Z" fill="#212121"/>
</svg>
