<svg width="16" height="16" viewBox="0 0 16 16" fill="none" xmlns="http://www.w3.org/2000/svg">
<path d="M12.2 7.28571C11.8937 7.28571 11.6094 7.35268 11.3469 7.44196L10.1438 4.99219H11.5C11.8719 4.99219 12.2 4.74944 12.2 4.34766V3.71429C12.2 3.33482 11.8719 3 11.5 3H11.0406C10.8875 3 10.7125 3.06696 10.6031 3.17857L9.55312 4.04911L9.15938 3.29018C9.05 3.11161 8.875 3 8.7 3H7.125C6.81875 3 6.6 3.20982 6.6 3.5C6.6 3.8125 6.81875 4 7.125 4H8.37187L8.78516 4.73438L6.6 6.57143H6.09687L5.61562 6.08036C5.26562 5.72321 4.7625 5.5 4.25937 5.5H2.225C1.91875 5.5 1.7 5.74554 1.7 6.03571C1.7 6.34821 1.91875 6.57143 2.225 6.57143H3.8C5.725 6.57143 7.3 8.17857 7.3 10.1429C7.3 10.3884 7.25625 10.6339 7.2125 10.8571H8.76562C8.72188 10.6339 8.7 10.3884 8.7 10.1429C8.7 8.98214 9.24687 7.97768 10.1 7.30804L10.4281 7.95536C9.79375 8.46875 9.4 9.25 9.4 10.1429C9.4 11.7277 10.6469 13 12.2 13C13.7312 13 15 11.7277 15 10.1429C15 8.58036 13.7312 7.28571 12.2 7.28571ZM9.46562 6.45982C8.7875 6.97321 8.30625 7.62054 8 8.37946C7.825 7.97768 7.62812 7.62054 7.3875 7.30804L9.24687 5.72321L9.575 6.37054L9.46562 6.45982ZM12.2 11.9286C11.2156 11.9286 10.45 11.1473 10.45 10.1429C10.45 9.67411 10.625 9.22768 10.9312 8.91518L11.7188 10.4107C11.8281 10.5893 12.0031 10.7009 12.1781 10.7009C12.2656 10.7009 12.3531 10.6786 12.4406 10.6339C12.6813 10.4777 12.7906 10.1652 12.6594 9.89732L11.85 8.40179C11.9594 8.37946 12.0687 8.35714 12.2 8.35714C13.1625 8.35714 13.95 9.16071 13.95 10.1429C13.95 11.1473 13.1625 11.9286 12.2 11.9286ZM3.8 7.28571C2.24687 7.28571 1 8.58036 1 10.1429C1 11.7277 2.24687 13 3.8 13C5.33125 13 6.6 11.7277 6.6 10.1429C6.6 8.58036 5.33125 7.28571 3.8 7.28571ZM3.8 10.8571C3.95312 10.8571 4.10625 10.7902 4.2375 10.6786H5.44062C5.22187 11.4152 4.56562 11.9286 3.8 11.9286C2.81562 11.9286 2.05 11.1473 2.05 10.1429C2.05 9.16071 2.81562 8.35714 3.8 8.35714C4.56562 8.35714 5.22187 8.89286 5.44062 9.60714H4.2375C4.10625 9.51786 3.95312 9.42857 3.8 9.42857C3.40625 9.42857 3.1 9.76339 3.1 10.1429C3.1 10.5446 3.40625 10.8571 3.8 10.8571Z" fill="#212121"/>
</svg>
