<svg width="28" height="28" viewBox="0 0 28 28" fill="none" xmlns="http://www.w3.org/2000/svg">
<path d="M21.2 14.2857C20.675 14.2857 20.1875 14.3996 19.7375 14.5513L17.675 10.6429H20C20.6375 10.6429 21.2 10.1116 21.2 9.42857V8.21429C21.2 7.5692 20.6375 7 20 7H19.2125C18.95 7 18.65 7.11384 18.4625 7.30357L16.6625 8.78348L15.9875 7.4933C15.8 7.18973 15.5 7 15.2 7H12.5C11.975 7 11.6 7.41741 11.6 7.91071C11.6 8.44196 11.975 8.82143 12.5 8.82143H14.6375L15.275 9.99777L11.6 13.0714H10.7375L9.9125 12.2366C9.3125 11.6295 8.45 11.25 7.5875 11.25H4.1C3.575 11.25 3.2 11.6674 3.2 12.1607C3.2 12.692 3.575 13.0714 4.1 13.0714H6.8C10.1 13.0714 12.8 15.8036 12.8 19.1429C12.8 19.5603 12.725 19.9777 12.65 20.3571H15.3125C15.2375 19.9777 15.2 19.5603 15.2 19.1429C15.2 17.1696 16.1375 15.4621 17.6 14.3237L18.1625 15.4241C17.075 16.2969 16.4 17.625 16.4 19.1429C16.4 21.8371 18.5375 24 21.2 24C23.825 24 26 21.8371 26 19.1429C26 16.4866 23.825 14.2857 21.2 14.2857ZM16.5125 12.8817C15.35 13.7545 14.525 14.8549 14 16.1451C13.7 15.4621 13.3625 14.8549 12.95 14.3237L16.1375 11.6295L16.7 12.7299L16.5125 12.8817ZM21.2 22.1786C19.5125 22.1786 18.2 20.8504 18.2 19.1429C18.2 18.346 18.5 17.5871 19.025 17.0558L20.375 19.5982C20.5625 19.9018 20.8625 20.0915 21.1625 20.0915C21.3125 20.0915 21.4625 20.0536 21.6125 19.9777C22.025 19.7121 22.2125 19.1808 21.9875 18.7254L20.6 16.183C20.7875 16.1451 20.975 16.1071 21.2 16.1071C22.85 16.1071 24.2 17.4732 24.2 19.1429C24.2 20.8504 22.85 22.1786 21.2 22.1786ZM6.8 14.2857C4.1375 14.2857 2 16.4866 2 19.1429C2 21.8371 4.1375 24 6.8 24C9.425 24 11.6 21.8371 11.6 19.1429C11.6 16.4866 9.425 14.2857 6.8 14.2857ZM6.8 20.3571C7.0625 20.3571 7.325 20.2433 7.55 20.0536H9.6125C9.2375 21.3058 8.1125 22.1786 6.8 22.1786C5.1125 22.1786 3.8 20.8504 3.8 19.1429C3.8 17.4732 5.1125 16.1071 6.8 16.1071C8.1125 16.1071 9.2375 17.0179 9.6125 18.2321H7.55C7.325 18.0804 7.0625 17.9286 6.8 17.9286C6.125 17.9286 5.6 18.4978 5.6 19.1429C5.6 19.8259 6.125 20.3571 6.8 20.3571Z" fill="#212121"/>
</svg>
