<svg width="32" height="32" viewBox="0 0 32 32" fill="none" xmlns="http://www.w3.org/2000/svg">
<path d="M24.4 15.5714C23.7875 15.5714 23.2187 15.7054 22.6937 15.8839L20.2875 11.2857H23C23.7437 11.2857 24.4 10.6607 24.4 9.85714V8.42857C24.4 7.66964 23.7437 7 23 7H22.0812C21.775 7 21.425 7.13393 21.2062 7.35714L19.1062 9.09821L18.3187 7.58036C18.1 7.22321 17.75 7 17.4 7H14.25C13.6375 7 13.2 7.49107 13.2 8.07143C13.2 8.69643 13.6375 9.14286 14.25 9.14286H16.7437L17.4875 10.5268L13.2 14.1429H12.1937L11.2312 13.1607C10.5312 12.4464 9.525 12 8.51875 12H4.45C3.8375 12 3.4 12.4911 3.4 13.0714C3.4 13.6964 3.8375 14.1429 4.45 14.1429H7.6C11.45 14.1429 14.6 17.3571 14.6 21.2857C14.6 21.7768 14.5125 22.2679 14.425 22.7143H17.5312C17.4437 22.2679 17.4 21.7768 17.4 21.2857C17.4 18.9643 18.4937 16.9554 20.2 15.6161L20.8562 16.9107C19.5875 17.9375 18.8 19.5 18.8 21.2857C18.8 24.4554 21.2937 27 24.4 27C27.4625 27 30 24.4554 30 21.2857C30 18.1607 27.4625 15.5714 24.4 15.5714ZM18.9312 13.9196C17.575 14.9464 16.6125 16.2411 16 17.7589C15.65 16.9554 15.2562 16.2411 14.775 15.6161L18.4937 12.4464L19.15 13.7411L18.9312 13.9196ZM24.4 24.8571C22.4312 24.8571 20.9 23.2946 20.9 21.2857C20.9 20.3482 21.25 19.4554 21.8625 18.8304L23.4375 21.8214C23.6562 22.1786 24.0062 22.4018 24.3562 22.4018C24.5312 22.4018 24.7062 22.3571 24.8812 22.2679C25.3625 21.9554 25.5812 21.3304 25.3187 20.7946L23.7 17.8036C23.9187 17.7589 24.1375 17.7143 24.4 17.7143C26.325 17.7143 27.9 19.3214 27.9 21.2857C27.9 23.2946 26.325 24.8571 24.4 24.8571ZM7.6 15.5714C4.49375 15.5714 2 18.1607 2 21.2857C2 24.4554 4.49375 27 7.6 27C10.6625 27 13.2 24.4554 13.2 21.2857C13.2 18.1607 10.6625 15.5714 7.6 15.5714ZM7.6 22.7143C7.90625 22.7143 8.2125 22.5804 8.475 22.3571H10.8812C10.4437 23.8304 9.13125 24.8571 7.6 24.8571C5.63125 24.8571 4.1 23.2946 4.1 21.2857C4.1 19.3214 5.63125 17.7143 7.6 17.7143C9.13125 17.7143 10.4437 18.7857 10.8812 20.2143H8.475C8.2125 20.0357 7.90625 19.8571 7.6 19.8571C6.8125 19.8571 6.2 20.5268 6.2 21.2857C6.2 22.0893 6.8125 22.7143 7.6 22.7143Z" fill="#212121"/>
</svg>
