<svg width="24" height="24" viewBox="0 0 24 24" fill="none" xmlns="http://www.w3.org/2000/svg">
<path d="M18 12C17.5625 12 17.1562 12.0938 16.7812 12.2188L15.0625 9H17C17.5312 9 18 8.5625 18 8V7C18 6.46875 17.5312 6 17 6H16.3438C16.125 6 15.875 6.09375 15.7188 6.25L14.2188 7.46875L13.6562 6.40625C13.5 6.15625 13.25 6 13 6H10.75C10.3125 6 10 6.34375 10 6.75C10 7.1875 10.3125 7.5 10.75 7.5H12.5312L13.0625 8.46875L10 11H9.28125L8.59375 10.3125C8.09375 9.8125 7.375 9.5 6.65625 9.5H3.75C3.3125 9.5 3 9.84375 3 10.25C3 10.6875 3.3125 11 3.75 11H6C8.75 11 11 13.25 11 16C11 16.3438 10.9375 16.6875 10.875 17H13.0938C13.0312 16.6875 13 16.3438 13 16C13 14.375 13.7812 12.9688 15 12.0312L15.4688 12.9375C14.5625 13.6562 14 14.75 14 16C14 18.2188 15.7812 20 18 20C20.1875 20 22 18.2188 22 16C22 13.8125 20.1875 12 18 12ZM14.0938 10.8438C13.125 11.5625 12.4375 12.4688 12 13.5312C11.75 12.9688 11.4688 12.4688 11.125 12.0312L13.7812 9.8125L14.25 10.7188L14.0938 10.8438ZM18 18.5C16.5938 18.5 15.5 17.4062 15.5 16C15.5 15.3438 15.75 14.7188 16.1875 14.2812L17.3125 16.375C17.4688 16.625 17.7188 16.7812 17.9688 16.7812C18.0938 16.7812 18.2188 16.75 18.3438 16.6875C18.6875 16.4688 18.8438 16.0312 18.6562 15.6562L17.5 13.5625C17.6562 13.5312 17.8125 13.5 18 13.5C19.375 13.5 20.5 14.625 20.5 16C20.5 17.4062 19.375 18.5 18 18.5ZM6 12C3.78125 12 2 13.8125 2 16C2 18.2188 3.78125 20 6 20C8.1875 20 10 18.2188 10 16C10 13.8125 8.1875 12 6 12ZM6 17C6.21875 17 6.4375 16.9062 6.625 16.75H8.34375C8.03125 17.7812 7.09375 18.5 6 18.5C4.59375 18.5 3.5 17.4062 3.5 16C3.5 14.625 4.59375 13.5 6 13.5C7.09375 13.5 8.03125 14.25 8.34375 15.25H6.625C6.4375 15.125 6.21875 15 6 15C5.4375 15 5 15.4688 5 16C5 16.5625 5.4375 17 6 17Z" fill="#212121"/>
</svg>
