<svg width="20" height="20" viewBox="0 0 20 20" fill="none" xmlns="http://www.w3.org/2000/svg">
<path d="M14.7803 9.55124C14.4275 9.55124 14.0998 9.62686 13.7973 9.72768L12.411 7.13149H13.9738C14.4023 7.13149 14.7803 6.77861 14.7803 6.3249V5.78901C14.7803 5.36051 14.4023 4.98242 13.9738 4.98242H13.4444C13.268 4.98242 13.0664 5.05804 12.9403 5.18407L11.7305 5.89641L11.3272 5.3101C11.2011 5.10845 10.9995 4.98242 10.7978 4.98242H8.98302C8.63014 4.98242 8.37808 5.16264 8.37808 5.49031C8.37808 5.84319 8.63014 6.02374 8.98302 6.02374H10.4198L10.7978 6.70299L8.32767 8.74466H7.74794L7.19341 8.19013C6.79012 7.78684 6.21039 7.77145 5.63066 7.77145H3.28652C2.93364 7.77145 2.68158 8.04872 2.68158 8.37639C2.68158 8.72927 2.93364 8.98133 3.28652 8.98133H5.10134C7.31944 8.98133 9.03343 10.4586 9.03343 12.6768C9.03343 12.954 9.03343 13.32 9.03343 13.5842H10.823C10.7726 13.3321 10.7474 13.0548 10.7474 12.7776C10.7474 11.4669 11.3776 10.3326 12.3606 9.57645L12.7387 10.3074C12.0077 10.8871 11.554 11.7693 11.554 12.7776C11.554 14.5672 12.9907 16.0039 14.7803 16.0039C16.5447 16.0039 18.0067 14.5672 18.0067 12.7776C18.0067 11.0132 16.5447 9.55124 14.7803 9.55124ZM14.7803 14.794C13.6461 14.794 12.7639 13.9118 12.7639 12.7776C12.7639 12.2483 12.9655 11.7441 13.3184 11.3913L14.2258 13.08C14.3518 13.2817 14.5535 13.4077 14.7551 13.4077C14.856 13.4077 14.9568 13.3825 15.0576 13.3321C15.3349 13.1557 15.4609 12.8028 15.3097 12.5003L14.3771 10.8115C14.5031 10.7863 14.6291 10.7611 14.7803 10.7611C15.8894 10.7611 16.7968 11.6685 16.7968 12.7776C16.7968 13.9118 15.8894 14.794 14.7803 14.794ZM5.10134 9.55124C3.31173 9.55124 1.875 11.0132 1.875 12.7776C1.875 14.5672 3.31173 16.0039 5.10134 16.0039C6.86574 16.0039 8.32767 14.5672 8.32767 12.7776C8.32767 11.0132 6.86574 9.55124 5.10134 9.55124ZM5.10134 13.5842C5.27778 13.5842 5.45422 13.5085 5.60545 13.3825H6.99177C6.73971 14.2143 5.98354 14.794 5.10134 14.794C3.96708 14.794 3.08488 13.9118 3.08488 12.7776C3.08488 11.6685 3.96708 10.7611 5.10134 10.7611C5.98354 10.7611 6.73971 11.3661 6.99177 12.1726H5.60545C5.45422 12.0718 5.27778 11.971 5.10134 11.971C4.64763 11.971 4.29475 12.3491 4.29475 12.7776C4.29475 13.2313 4.64763 13.5842 5.10134 13.5842Z" fill="#212121"/>
</svg>
