<svg width="48" height="48" viewBox="0 0 48 48" fill="none" xmlns="http://www.w3.org/2000/svg">
<path d="M36 24.4286C35.125 24.4286 34.3125 24.6228 33.5625 24.8817L30 18H33.875C34.9375 18 36 17.308 36 16.1429V14.0714C36 12.971 35.0625 12 34 12H32.6875C32.25 12 31.75 12.1942 31.4375 12.5179L28.4375 15.0424L27.3125 12.8415C27 12.3237 26.5 12 26 12H21.5C20.625 12 20 12.7121 20 13.5536C20 14.4598 20.625 15.1071 21.5 15.1071H25.0625L26.125 17.1138L20 22.0335H18.5625L17.1875 20.683C16.1875 19.6473 14.75 19 13.3125 19H7.5C6.625 19 6 19.7121 6 20.5536C6 21.4598 6.625 22.1071 7.5 22.1071H12C17.5 22.1071 22 27.0179 22 32.7143C22 33.4263 21.875 34.3527 21.75 35H26.1875C26.0625 34.3527 26 33.4263 26 32.7143C26 29.3482 27.5625 26.4353 30 24.4933L30.9375 26.3705C29.125 27.8594 28 30.125 28 32.7143C28 37.3103 31.5625 41 36 41C40.375 41 44 37.3103 44 32.7143C44 28.183 40.375 24.4286 36 24.4286ZM28.1875 22.0335C26.25 23.5223 24.875 25.3996 24 27.6004C23.5 26.4353 22.9375 25.3996 22.25 24.4933L27.5625 19.8973L28.5 21.7746L28.1875 22.0335ZM36 37.8929C33.1875 37.8929 31 35.6272 31 32.7143C31 31.3549 31.5 30.0603 32.375 29.154L34.625 33.4911C34.9375 34.0089 35.4375 34.3326 35.9375 34.3326C36.1875 34.3326 36.4375 34.2679 36.6875 34.1384C37.375 33.6853 37.6875 32.779 37.3125 32.0022L35 27.6652C35.3125 27.6004 35.625 27.5357 36 27.5357C38.75 27.5357 41 29.8661 41 32.7143C41 35.6272 38.75 37.8929 36 37.8929ZM12 24.4286C7.5625 24.4286 4 28.183 4 32.7143C4 37.3103 7.5625 41 12 41C16.375 41 20 37.3103 20 32.7143C20 28.183 16.375 24.4286 12 24.4286ZM12 34.7857C12.4375 34.7857 12.875 34.5915 13.25 34.2679H16.6875C16.0625 36.404 14.1875 37.8929 12 37.8929C9.1875 37.8929 7 35.6272 7 32.7143C7 29.8661 9.1875 27.5357 12 27.5357C14.1875 27.5357 16.0625 29.0893 16.6875 31.1607H13.25C12.875 30.9018 12.4375 30.6429 12 30.6429C10.875 30.6429 10 31.6138 10 32.7143C10 33.8795 10.875 34.7857 12 34.7857Z" fill="#212121"/>
</svg>
