<svg width="28" height="28" viewBox="0 0 28 28" fill="none" xmlns="http://www.w3.org/2000/svg">
<path d="M6.5 13C10.0899 13 13 10.0899 13 6.5C13 5.21136 12.625 4.0103 11.9782 3H21.25C23.3211 3 25 4.67893 25 6.75V21.25C25 22.0211 24.7673 22.7379 24.3682 23.3339L15.3979 14.5674C14.6207 13.8079 13.3793 13.8079 12.6021 14.5674L3.63183 23.3339C3.23275 22.7379 3 22.0211 3 21.25V11.9782C4.0103 12.625 5.21136 13 6.5 13ZM20.75 10C20.75 8.75736 19.7426 7.75 18.5 7.75C17.2574 7.75 16.25 8.75736 16.25 10C16.25 11.2426 17.2574 12.25 18.5 12.25C19.7426 12.25 20.75 11.2426 20.75 10Z" fill="#242424"/>
<path d="M4.698 24.3893C5.28759 24.7754 5.99257 25 6.75 25H21.25C22.0074 25 22.7124 24.7754 23.302 24.3893L14.3495 15.6402C14.1552 15.4503 13.8448 15.4503 13.6505 15.6402L4.698 24.3893Z" fill="#242424"/>
<path d="M6.5 12C9.53757 12 12 9.53757 12 6.5C12 3.46243 9.53757 1 6.5 1C3.46243 1 1 3.46243 1 6.5C1 9.53757 3.46243 12 6.5 12ZM9.85355 4.85355L5.85355 8.85355C5.65829 9.04882 5.34171 9.04882 5.14645 8.85355L3.14645 6.85355C2.95118 6.65829 2.95118 6.34171 3.14645 6.14645C3.34171 5.95118 3.65829 5.95118 3.85355 6.14645L5.5 7.79289L9.14645 4.14645C9.34171 3.95118 9.65829 3.95118 9.85355 4.14645C10.0488 4.34171 10.0488 4.65829 9.85355 4.85355Z" fill="#242424"/>
</svg>
