<svg width="20" height="20" viewBox="0 0 20 20" fill="none" xmlns="http://www.w3.org/2000/svg">
<path d="M5.5 11C8.53757 11 11 8.53757 11 5.5C11 4.59978 10.7837 3.75007 10.4003 3H14C15.6569 3 17 4.34315 17 6V14C17 14.6495 16.7936 15.2509 16.4428 15.7419L11.0524 10.4345C10.4686 9.85964 9.53144 9.85964 8.94759 10.4345L3.55724 15.7419C3.20642 15.2509 3 14.6495 3 14V10.4003C3.75007 10.7837 4.59978 11 5.5 11ZM12.5 8.75C13.1904 8.75 13.75 8.19036 13.75 7.5C13.75 6.80964 13.1904 6.25 12.5 6.25C11.8096 6.25 11.25 6.80964 11.25 7.5C11.25 8.19036 11.8096 8.75 12.5 8.75Z" fill="#242424"/>
<path d="M6 17C5.35372 17 4.75517 16.7956 4.26544 16.448L9.6492 11.1471C9.84381 10.9555 10.1562 10.9555 10.3508 11.1471L15.7346 16.448C15.2448 16.7956 14.6463 17 14 17H6Z" fill="#242424"/>
<path d="M5.5 10C7.98528 10 10 7.98528 10 5.5C10 3.01472 7.98528 1 5.5 1C3.01472 1 1 3.01472 1 5.5C1 7.98528 3.01472 10 5.5 10ZM7.85355 4.35355L4.85355 7.35355C4.65829 7.54882 4.34171 7.54882 4.14645 7.35355L3.14645 6.35355C2.95118 6.15829 2.95118 5.84171 3.14645 5.64645C3.34171 5.45118 3.65829 5.45118 3.85355 5.64645L4.5 6.29289L7.14645 3.64645C7.34171 3.45118 7.65829 3.45118 7.85355 3.64645C8.04882 3.84171 8.04882 4.15829 7.85355 4.35355Z" fill="#242424"/>
</svg>
