<svg width="48" height="48" viewBox="0 0 48 48" fill="none" xmlns="http://www.w3.org/2000/svg">
<path d="M35.75 8.5H25.2001C24.8745 7.61768 24.456 6.78039 23.9564 6H35.75C39.2018 6 42 8.79822 42 12.25V35.75C42 39.2018 39.2018 42 35.75 42H12.25C8.79822 42 6 39.2018 6 35.75V23.9564C6.78039 24.456 7.61768 24.8745 8.5 25.2001V35.75C8.5 36.413 8.67208 37.0359 8.97401 37.5763L21.5252 25.0251C22.8921 23.6583 25.1081 23.6583 26.475 25.0251L39.0261 37.5762C39.3279 37.0358 39.5 36.413 39.5 35.75V12.25C39.5 10.1789 37.8211 8.5 35.75 8.5ZM37.1459 39.2316L24.7072 26.7929C24.3167 26.4024 23.6835 26.4024 23.293 26.7929L10.8542 39.2316C11.2857 39.4048 11.7567 39.5 12.25 39.5H35.75C36.2433 39.5 36.7144 39.4047 37.1459 39.2316Z" fill="#242424"/>
<path d="M26 17.5C26 15.0147 28.0147 13 30.5 13C32.9853 13 35 15.0147 35 17.5C35 19.9853 32.9853 22 30.5 22C28.0147 22 26 19.9853 26 17.5ZM30.5 15.5C29.3954 15.5 28.5 16.3954 28.5 17.5C28.5 18.6046 29.3954 19.5 30.5 19.5C31.6046 19.5 32.5 18.6046 32.5 17.5C32.5 16.3954 31.6046 15.5 30.5 15.5Z" fill="#242424"/>
<path d="M13 24C19.0751 24 24 19.0751 24 13C24 6.92487 19.0751 2 13 2C6.92487 2 2 6.92487 2 13C2 19.0751 6.92487 24 13 24ZM19.7071 9.70711L11.7071 17.7071C11.3166 18.0976 10.6834 18.0976 10.2929 17.7071L6.29289 13.7071C5.90237 13.3166 5.90237 12.6834 6.29289 12.2929C6.68342 11.9024 7.31658 11.9024 7.70711 12.2929L11 15.5858L18.2929 8.29289C18.6834 7.90237 19.3166 7.90237 19.7071 8.29289C20.0976 8.68342 20.0976 9.31658 19.7071 9.70711Z" fill="#242424"/>
</svg>
