<svg width="20" height="20" viewBox="0 0 20 20" fill="none" xmlns="http://www.w3.org/2000/svg">
<path d="M14 4H10.793C10.6944 3.65136 10.5622 3.31679 10.4003 3H14C15.6569 3 17 4.34315 17 6V14C17 15.6569 15.6569 17 14 17H6C4.34315 17 3 15.6569 3 14V10.4003C3.31679 10.5622 3.65136 10.6944 4 10.793V14C4 14.3726 4.10191 14.7215 4.27937 15.0201L8.94868 10.432C9.53227 9.85859 10.4677 9.85859 11.0513 10.432L15.7206 15.0201C15.8981 14.7215 16 14.3726 16 14V6C16 4.89543 15.1046 4 14 4ZM4.98824 15.7256C5.28505 15.9 5.63085 16 6 16H14C14.3692 16 14.7149 15.9 15.0118 15.7256L10.3504 11.1453C10.1559 10.9542 9.84409 10.9542 9.64956 11.1453L4.98824 15.7256Z" fill="#242424"/>
<path d="M14 7.5C14 8.32843 13.3284 9 12.5 9C11.6716 9 11 8.32843 11 7.5C11 6.67157 11.6716 6 12.5 6C13.3284 6 14 6.67157 14 7.5ZM13 7.5C13 7.22386 12.7761 7 12.5 7C12.2239 7 12 7.22386 12 7.5C12 7.77614 12.2239 8 12.5 8C12.7761 8 13 7.77614 13 7.5Z" fill="#242424"/>
<path d="M5.5 10C7.98528 10 10 7.98528 10 5.5C10 3.01472 7.98528 1 5.5 1C3.01472 1 1 3.01472 1 5.5C1 7.98528 3.01472 10 5.5 10ZM7.85355 4.35355L4.85355 7.35355C4.65829 7.54882 4.34171 7.54882 4.14645 7.35355L3.14645 6.35355C2.95118 6.15829 2.95118 5.84171 3.14645 5.64645C3.34171 5.45118 3.65829 5.45118 3.85355 5.64645L4.5 6.29289L7.14645 3.64645C7.34171 3.45118 7.65829 3.45118 7.85355 3.64645C8.04882 3.84171 8.04882 4.15829 7.85355 4.35355Z" fill="#242424"/>
</svg>
