<svg width="32" height="32" viewBox="0 0 32 32" fill="none" xmlns="http://www.w3.org/2000/svg">
<path d="M3 15.7083C3.59974 16.2451 4.27189 16.7026 5 17.0645V24.5C5 24.7891 5.04909 25.0668 5.13938 25.3252L13.9408 16.5237C14.3144 16.2779 14.6686 16.005 15.0007 15.7077C15.9153 15.3092 17.0197 15.4841 17.7678 16.2322L26.8607 25.325C26.9509 25.0667 27 24.7891 27 24.5V7.5C27 6.11929 25.8807 5 24.5 5H17.0645C16.7026 4.27189 16.2451 3.59974 15.7083 3H24.5C26.9853 3 29 5.01472 29 7.5V24.5C29 26.9853 26.9853 29 24.5 29H7.5C5.01472 29 3 26.9853 3 24.5V15.7083ZM25.4994 26.7922L16.3536 17.6464C16.1584 17.4512 15.8418 17.4512 15.6465 17.6464L6.50069 26.7923C6.80674 26.9259 7.14471 27 7.5 27H24.5C24.8553 27 25.1933 26.9259 25.4994 26.7922Z" fill="#242424"/>
<path d="M18 11C18 9.067 19.567 7.5 21.5 7.5C23.433 7.5 25 9.067 25 11C25 12.933 23.433 14.5 21.5 14.5C19.567 14.5 18 12.933 18 11ZM21.5 9.5C20.6716 9.5 20 10.1716 20 11C20 11.8284 20.6716 12.5 21.5 12.5C22.3284 12.5 23 11.8284 23 11C23 10.1716 22.3284 9.5 21.5 9.5Z" fill="#242424"/>
<path d="M16.5 9C16.5 4.85786 13.1421 1.5 9 1.5C4.85786 1.5 1.5 4.85786 1.5 9C1.5 13.1421 4.85786 16.5 9 16.5C13.1421 16.5 16.5 13.1421 16.5 9ZM13.5303 7.28033L8.28033 12.5303C7.98744 12.8232 7.51256 12.8232 7.21967 12.5303L4.71967 10.0303C4.42678 9.73744 4.42678 9.26256 4.71967 8.96967C5.01256 8.67678 5.48744 8.67678 5.78033 8.96967L7.75 10.9393L12.4697 6.21967C12.7626 5.92678 13.2374 5.92678 13.5303 6.21967C13.8232 6.51256 13.8232 6.98744 13.5303 7.28033Z" fill="#242424"/>
</svg>
