<svg width="28" height="28" viewBox="0 0 28 28" fill="none" xmlns="http://www.w3.org/2000/svg">
<path fill-rule="evenodd" clip-rule="evenodd" d="M21.25 4.5H12.6865C12.5142 3.96653 12.2747 3.46321 11.9782 3H21.25C23.3211 3 25 4.67893 25 6.75V21.25C25 23.3211 23.3211 25 21.25 25H6.75C4.67893 25 3 23.3211 3 21.25V11.9782C3.46321 12.2747 3.96653 12.5142 4.5 12.6865V21.25C4.5 21.611 4.58501 21.9521 4.73612 22.2545L12.6019 14.5674C13.3791 13.8079 14.6205 13.8079 15.3977 14.5674L23.2638 22.2547C23.4149 21.9523 23.5 21.6111 23.5 21.25V6.75C23.5 5.50736 22.4926 4.5 21.25 4.5ZM22.1845 23.2974L14.3493 15.6402C14.155 15.4503 13.8446 15.4503 13.6503 15.6402L5.81524 23.2972C6.09993 23.4274 6.41649 23.5 6.75 23.5H21.25C21.5834 23.5 21.8999 23.4275 22.1845 23.2974Z" fill="#242424"/>
<path fill-rule="evenodd" clip-rule="evenodd" d="M18.5 12.5C19.8807 12.5 21 11.3807 21 10C21 8.61929 19.8807 7.5 18.5 7.5C17.1193 7.5 16 8.61929 16 10C16 11.3807 17.1193 12.5 18.5 12.5ZM18.5 11C17.9477 11 17.5 10.5523 17.5 10C17.5 9.44772 17.9477 9 18.5 9C19.0523 9 19.5 9.44772 19.5 10C19.5 10.5523 19.0523 11 18.5 11Z" fill="#242424"/>
<path fill-rule="evenodd" clip-rule="evenodd" d="M6.5 12C9.53757 12 12 9.53757 12 6.5C12 3.46243 9.53757 1 6.5 1C3.46243 1 1 3.46243 1 6.5C1 9.53757 3.46243 12 6.5 12ZM9.85355 4.85355L5.85355 8.85355C5.65829 9.04882 5.34171 9.04882 5.14645 8.85355L3.14645 6.85355C2.95118 6.65829 2.95118 6.34171 3.14645 6.14645C3.34171 5.95118 3.65829 5.95118 3.85355 6.14645L5.5 7.79289L9.14645 4.14645C9.34171 3.95118 9.65829 3.95118 9.85355 4.14645C10.0488 4.34171 10.0488 4.65829 9.85355 4.85355Z" fill="#242424"/>
</svg>
