<svg width="32" height="32" viewBox="0 0 32 32" fill="none" xmlns="http://www.w3.org/2000/svg">
<path d="M18 9C18 11.6652 16.8415 14.0598 15.0007 15.7077C15.9153 15.3092 17.0197 15.4841 17.7678 16.2322L28.3563 26.8206C28.7649 26.143 29 25.349 29 24.5V7.5C29 5.01472 26.9853 3 24.5 3H15.7083C17.1334 4.59227 18 6.69494 18 9ZM24.5 11C24.5 12.6569 23.1569 14 21.5 14C19.8431 14 18.5 12.6569 18.5 11C18.5 9.34315 19.8431 8 21.5 8C23.1569 8 24.5 9.34315 24.5 11Z" fill="#242424"/>
<path d="M9 18C10.8247 18 12.5225 17.457 13.9408 16.5237L3.64381 26.8207C3.23512 26.1431 3 25.349 3 24.5V15.7083C4.59227 17.1334 6.69494 18 9 18Z" fill="#242424"/>
<path d="M26.9696 28.2624L16.3536 17.6464C16.1584 17.4512 15.8418 17.4512 15.6465 17.6464L5.0305 28.2625C5.73945 28.7287 6.58804 29 7.5 29H24.5C25.412 29 26.2606 28.7287 26.9696 28.2624Z" fill="#242424"/>
<path d="M16.5 9C16.5 4.85786 13.1421 1.5 9 1.5C4.85786 1.5 1.5 4.85786 1.5 9C1.5 13.1421 4.85786 16.5 9 16.5C13.1421 16.5 16.5 13.1421 16.5 9ZM13.5303 7.28033L8.28033 12.5303C7.98744 12.8232 7.51256 12.8232 7.21967 12.5303L4.71967 10.0303C4.42678 9.73744 4.42678 9.26256 4.71967 8.96967C5.01256 8.67678 5.48744 8.67678 5.78033 8.96967L7.75 10.9393L12.4697 6.21967C12.7626 5.92678 13.2374 5.92678 13.5303 6.21967C13.8232 6.51256 13.8232 6.98744 13.5303 7.28033Z" fill="#242424"/>
</svg>
