<svg width="24" height="24" viewBox="0 0 24 24" fill="none" xmlns="http://www.w3.org/2000/svg">
<path d="M6.5 13C10.0899 13 13 10.0899 13 6.5C13 5.21136 12.625 4.0103 11.9782 3H17.75C19.5449 3 21 4.45507 21 6.25V17.75C21 18.3771 20.8224 18.9626 20.5148 19.4592L13.5762 12.6475L13.4477 12.5306C12.615 11.8293 11.3941 11.8273 10.5592 12.5248L10.4238 12.6475L3.4852 19.4592C3.17758 18.9626 3 18.3771 3 17.75V11.9782C4.0103 12.625 5.21136 13 6.5 13ZM15.25 10.75C16.3546 10.75 17.25 9.85457 17.25 8.75C17.25 7.64543 16.3546 6.75 15.25 6.75C14.1454 6.75 13.25 7.64543 13.25 8.75C13.25 9.85457 14.1454 10.75 15.25 10.75Z" fill="#242424"/>
<path d="M11.5582 13.6469L11.4746 13.7179L4.54692 20.5186C5.04216 20.8239 5.62551 21 6.25 21H17.75C18.3745 21 18.9578 20.8239 19.4531 20.5186L12.5254 13.7179L12.432 13.6399C12.1705 13.4552 11.8174 13.4576 11.5582 13.6469Z" fill="#242424"/>
<path d="M6.5 12C9.53757 12 12 9.53757 12 6.5C12 3.46243 9.53757 1 6.5 1C3.46243 1 1 3.46243 1 6.5C1 9.53757 3.46243 12 6.5 12ZM9.85355 4.85355L5.85355 8.85355C5.65829 9.04882 5.34171 9.04882 5.14645 8.85355L3.14645 6.85355C2.95118 6.65829 2.95118 6.34171 3.14645 6.14645C3.34171 5.95118 3.65829 5.95118 3.85355 6.14645L5.5 7.79289L9.14645 4.14645C9.34171 3.95118 9.65829 3.95118 9.85355 4.14645C10.0488 4.34171 10.0488 4.65829 9.85355 4.85355Z" fill="#242424"/>
</svg>
