<svg width="48" height="48" viewBox="0 0 48 48" fill="none" xmlns="http://www.w3.org/2000/svg">
<path d="M13 26C20.1797 26 26 20.1797 26 13C26 10.4227 25.25 8.0206 23.9564 6H35.75C39.2018 6 42 8.79822 42 12.25V35.75C42 37.1058 41.5683 38.3608 40.8348 39.385L26.475 25.0251C25.1081 23.6583 22.8921 23.6583 21.5252 25.0251L7.16526 39.3851C6.43175 38.3609 6 37.1059 6 35.75V23.9564C8.0206 25.25 10.4227 26 13 26ZM34.5 17.5C34.5 15.2909 32.7091 13.5 30.5 13.5C28.2909 13.5 26.5 15.2909 26.5 17.5C26.5 19.7091 28.2909 21.5 30.5 21.5C32.7091 21.5 34.5 19.7091 34.5 17.5Z" fill="#242424"/>
<path d="M39.0024 41.0881L24.7072 26.7929C24.3167 26.4024 23.6835 26.4024 23.293 26.7929L8.99769 41.0882C9.94516 41.6667 11.0587 42 12.25 42H35.75C36.9414 42 38.0549 41.6666 39.0024 41.0881Z" fill="#242424"/>
<path d="M13 24C19.0751 24 24 19.0751 24 13C24 6.92487 19.0751 2 13 2C6.92487 2 2 6.92487 2 13C2 19.0751 6.92487 24 13 24ZM19.7071 9.70711L11.7071 17.7071C11.3166 18.0976 10.6834 18.0976 10.2929 17.7071L6.29289 13.7071C5.90237 13.3166 5.90237 12.6834 6.29289 12.2929C6.68342 11.9024 7.31658 11.9024 7.70711 12.2929L11 15.5858L18.2929 8.29289C18.6834 7.90237 19.3166 7.90237 19.7071 8.29289C20.0976 8.68342 20.0976 9.31658 19.7071 9.70711Z" fill="#242424"/>
</svg>
