<svg width="231" height="160" viewBox="0 0 231 160" fill="none" xmlns="http://www.w3.org/2000/svg">
<path d="M115.613 147.8C153.362 147.8 183.963 117.176 183.963 79.4C183.963 41.6237 153.362 11 115.613 11C77.8634 11 47.2617 41.6237 47.2617 79.4C47.2617 117.176 77.8634 147.8 115.613 147.8Z" fill="#EBEBEB"/>
<g filter="url(#filter0_d_4732_412)">
<path d="M178.665 38.6464V122.275C178.665 125.223 176.245 127.651 173.306 127.651H58.979C56.0403 127.651 53.6201 125.223 53.6201 122.275V38.6464C53.6201 35.6979 56.0403 33.2698 58.979 33.2698H173.306C176.245 33.2698 178.665 35.6979 178.665 38.6464Z" fill="url(#paint0_linear_4732_412)"/>
</g>
<path d="M139.644 73.4594C138.979 71.0014 137.427 68.8787 135.211 67.538C132.773 66.0856 130.224 65.8621 127.453 65.6387C122.577 65.08 117.59 64.9683 112.603 65.1918C108.17 65.3035 103.072 65.08 98.9712 66.9794C93.0974 69.549 92.3217 75.247 92.1 81.3918C91.8784 85.9725 91.8784 91.447 93.0974 95.916C94.0949 99.4911 96.8655 102.284 100.523 103.066C105.177 104.184 115.152 104.407 120.028 104.295C120.471 104.295 120.914 104.295 121.358 104.295C125.237 104.184 129.337 104.184 132.884 102.843C135.876 101.837 137.649 100.05 138.757 97.8153C140.087 95.1339 140.42 91.7822 140.53 88.0953C140.974 83.2911 140.863 77.8166 139.644 73.4594Z" fill="url(#paint1_linear_4732_412)"/>
<path d="M112.136 78.3001C112.136 76.826 112.881 76.3346 114.09 77.1208C117.347 79.1846 120.697 81.3467 123.955 83.4104C125.164 84.1966 125.164 85.0811 123.955 85.9656C120.697 88.0294 117.44 90.1914 114.183 92.2552C112.881 93.0414 112.229 92.6483 112.136 91.2724C112.136 90.6828 112.136 79.676 112.136 78.3001Z" fill="white"/>
<path d="M178.665 39.0681V42.9496H53.6201V39.0681C53.6201 36.1355 56.0403 33.7203 58.979 33.7203H173.306C176.245 33.7203 178.665 36.1355 178.665 39.0681Z" fill="#D0C6B8"/>
<path d="M58.8667 40.0168C59.7711 40.0168 60.5043 39.2831 60.5043 38.378C60.5043 37.4729 59.7711 36.7391 58.8667 36.7391C57.9622 36.7391 57.229 37.4729 57.229 38.378C57.229 39.2831 57.9622 40.0168 58.8667 40.0168Z" fill="#F4F1EA"/>
<path opacity="0.6" d="M63.9521 40.0168C64.8566 40.0168 65.5898 39.2831 65.5898 38.378C65.5898 37.4729 64.8566 36.7391 63.9521 36.7391C63.0477 36.7391 62.3145 37.4729 62.3145 38.378C62.3145 39.2831 63.0477 40.0168 63.9521 40.0168Z" fill="#A09F9D"/>
<path opacity="0.4" d="M69.124 40.0168C70.0284 40.0168 70.7617 39.2831 70.7617 38.378C70.7617 37.4729 70.0284 36.7391 69.124 36.7391C68.2195 36.7391 67.4863 37.4729 67.4863 38.378C67.4863 39.2831 68.2195 40.0168 69.124 40.0168Z" fill="#949390"/>
<path d="M166.047 100.559L146.589 128.943C144.096 132.58 146.952 137.307 151.644 137.307H190.56C195.252 137.307 198.108 132.58 195.615 128.943L176.157 100.559C173.818 97.147 168.386 97.147 166.047 100.559Z" fill="url(#paint2_linear_4732_412)"/>
<path d="M171.226 109.626C169.832 109.626 168.725 110.698 168.802 111.971L169.405 121.831C169.459 122.715 170.258 123.406 171.226 123.406C172.193 123.406 172.992 122.715 173.046 121.831L173.649 111.971C173.726 110.698 172.619 109.626 171.226 109.626ZM171.218 129.982C172.52 129.982 173.537 129.019 173.537 127.81C173.537 126.602 172.52 125.654 171.218 125.654C169.931 125.654 168.914 126.602 168.914 127.81C168.914 129.019 169.931 129.982 171.218 129.982Z" fill="white"/>
<defs>
<filter id="filter0_d_4732_412" x="41.6201" y="32.0698" width="149.045" height="118.381" filterUnits="userSpaceOnUse" color-interpolation-filters="sRGB">
<feFlood flood-opacity="0" result="BackgroundImageFix"/>
<feColorMatrix in="SourceAlpha" type="matrix" values="0 0 0 0 0 0 0 0 0 0 0 0 0 0 0 0 0 0 127 0" result="hardAlpha"/>
<feOffset dy="10.8"/>
<feGaussianBlur stdDeviation="6"/>
<feColorMatrix type="matrix" values="0 0 0 0 0.576471 0 0 0 0 0.501961 0 0 0 0 0.396078 0 0 0 0.24 0"/>
<feBlend mode="normal" in2="BackgroundImageFix" result="effect1_dropShadow_4732_412"/>
<feBlend mode="normal" in="SourceGraphic" in2="effect1_dropShadow_4732_412" result="shape"/>
</filter>
<linearGradient id="paint0_linear_4732_412" x1="116.102" y1="31.0866" x2="116.102" y2="128.669" gradientUnits="userSpaceOnUse">
<stop stop-color="#FDFEFF"/>
<stop offset="0.9964" stop-color="#F5F2EC"/>
</linearGradient>
<linearGradient id="paint1_linear_4732_412" x1="115.926" y1="59.1277" x2="116.442" y2="88.4693" gradientUnits="userSpaceOnUse">
<stop stop-color="#E1DAD0"/>
<stop offset="1" stop-color="#CCC1B1"/>
</linearGradient>
<linearGradient id="paint2_linear_4732_412" x1="194.519" y1="98.0001" x2="147.219" y2="98.2132" gradientUnits="userSpaceOnUse">
<stop stop-color="#606060"/>
<stop offset="1" stop-color="#7B7B7B"/>
</linearGradient>
</defs>
</svg>
