<svg width="231" height="160" viewBox="0 0 231 160" fill="none" xmlns="http://www.w3.org/2000/svg">
<path d="M115.613 147.8C153.362 147.8 183.963 117.176 183.963 79.4C183.963 41.6237 153.362 11 115.613 11C77.8634 11 47.2617 41.6237 47.2617 79.4C47.2617 117.176 77.8634 147.8 115.613 147.8Z" fill="#242424"/>
<path d="M178.665 38.6464V122.275C178.665 125.223 176.245 127.651 173.306 127.651H58.979C56.0403 127.651 53.6201 125.223 53.6201 122.275V38.6464C53.6201 35.6979 56.0403 33.2698 58.979 33.2698H173.306C176.245 33.2698 178.665 35.6979 178.665 38.6464Z" fill="url(#paint0_linear_4732_428)"/>
<path d="M139.64 73.4595C138.975 71.0016 137.423 68.8788 135.207 67.5381C132.769 66.0857 130.22 65.8622 127.449 65.6388C122.573 65.0802 117.586 64.9684 112.599 65.1919C108.166 65.3036 103.068 65.0802 98.9672 66.9795C93.0935 69.5491 92.3178 75.2471 92.0961 81.3919C91.8745 85.9726 91.8745 91.4471 93.0935 95.9161C94.091 99.4913 96.8616 102.284 100.519 103.066C105.173 104.184 115.148 104.407 120.024 104.295C120.467 104.295 120.911 104.295 121.354 104.295C125.233 104.184 129.333 104.184 132.88 102.843C135.872 101.837 137.645 100.05 138.753 97.8154C140.083 95.134 140.416 91.7823 140.527 88.0954C140.97 83.2912 140.859 77.8167 139.64 73.4595Z" fill="url(#paint1_linear_4732_428)"/>
<path d="M112.132 78.3003C112.132 76.8261 112.877 76.3348 114.087 77.121C117.344 79.1847 120.694 81.3468 123.951 83.4106C125.16 84.1968 125.16 85.0812 123.951 85.9657C120.694 88.0295 117.437 90.1915 114.18 92.2553C112.877 93.0415 112.225 92.6484 112.132 91.2725C112.132 90.6829 112.132 79.6761 112.132 78.3003Z" fill="#656565"/>
<path d="M178.665 39.0683V42.9497H53.6201V39.0683C53.6201 36.1356 56.0403 33.7205 58.979 33.7205H173.306C176.245 33.7205 178.665 36.1356 178.665 39.0683Z" fill="#3A3A3A"/>
<path d="M58.8667 40.0169C59.7711 40.0169 60.5043 39.2832 60.5043 38.3781C60.5043 37.473 59.7711 36.7393 58.8667 36.7393C57.9622 36.7393 57.229 37.473 57.229 38.3781C57.229 39.2832 57.9622 40.0169 58.8667 40.0169Z" fill="#CCCCCC"/>
<path opacity="0.6" d="M63.9521 40.0169C64.8566 40.0169 65.5898 39.2832 65.5898 38.3781C65.5898 37.473 64.8566 36.7393 63.9521 36.7393C63.0477 36.7393 62.3145 37.473 62.3145 38.3781C62.3145 39.2832 63.0477 40.0169 63.9521 40.0169Z" fill="#5F5F5F"/>
<path opacity="0.4" d="M69.124 40.0169C70.0284 40.0169 70.7617 39.2832 70.7617 38.3781C70.7617 37.473 70.0284 36.7393 69.124 36.7393C68.2195 36.7393 67.4863 37.473 67.4863 38.3781C67.4863 39.2832 68.2195 40.0169 69.124 40.0169Z" fill="#5C5C5C"/>
<path d="M166.047 100.559L146.589 128.943C144.096 132.58 146.952 137.307 151.644 137.307H190.56C195.252 137.307 198.108 132.58 195.615 128.943L176.157 100.559C173.818 97.147 168.386 97.147 166.047 100.559Z" fill="url(#paint2_linear_4732_428)"/>
<path d="M171.236 110.098C169.961 110.098 168.947 111.169 169.018 112.443L169.57 122.303C169.62 123.186 170.351 123.878 171.236 123.878C172.121 123.878 172.852 123.186 172.902 122.303L173.454 112.443C173.525 111.169 172.511 110.098 171.236 110.098ZM171.229 130.454C172.421 130.454 173.352 129.49 173.352 128.282C173.352 127.073 172.421 126.125 171.229 126.125C170.051 126.125 169.12 127.073 169.12 128.282C169.12 129.49 170.051 130.454 171.229 130.454Z" fill="#242424"/>
<defs>
<linearGradient id="paint0_linear_4732_428" x1="116.102" y1="31.0866" x2="116.102" y2="128.669" gradientUnits="userSpaceOnUse">
<stop stop-color="#5C5C5C"/>
<stop offset="0.9964" stop-color="#4D4D4D"/>
</linearGradient>
<linearGradient id="paint1_linear_4732_428" x1="116.374" y1="65.084" x2="116.374" y2="104.321" gradientUnits="userSpaceOnUse">
<stop stop-color="#FAFAFA"/>
<stop offset="0.828125" stop-color="#F5F2EC"/>
</linearGradient>
<linearGradient id="paint2_linear_4732_428" x1="151.627" y1="146.992" x2="187.23" y2="108.187" gradientUnits="userSpaceOnUse">
<stop stop-color="#FAFAFA"/>
<stop offset="0.828125" stop-color="#F5F2EC"/>
</linearGradient>
</defs>
</svg>
