<svg width="24" height="24" viewBox="0 0 24 24" fill="none" xmlns="http://www.w3.org/2000/svg">
<path d="M16.5 9.25C16.5 5.24593 13.2541 2 9.25 2C5.32601 2 2.13014 5.11739 2.00388 9.01069L2 9.25L2.00613 9.54825C2.08778 11.5288 2.98515 13.3516 4.66456 14.9919C4.76728 15.0922 4.83904 15.2199 4.87132 15.3598L6.00088 20.2545L6.04629 20.4219C6.33791 21.3536 7.20374 21.9986 8.19326 21.9986H10.0616C10.1977 21.5287 10.5481 21.1498 11.0001 20.9747V20.0354C10.8858 20.312 10.6143 20.4986 10.307 20.4986H8.19326L8.09005 20.4915C7.78566 20.4494 7.53314 20.2235 7.46247 19.9172L7.134 18.498H11.0001V16.998H6.788L6.33291 15.0225L6.28422 14.845C6.17265 14.495 5.97675 14.1767 5.71262 13.9187C4.30722 12.5461 3.58286 11.0904 3.50672 9.52701L3.5 9.25L3.50415 9.02944C3.62006 5.95601 6.14821 3.5 9.25 3.5C12.3518 3.5 14.8799 5.95602 14.9958 9.02944L15 9.25L14.9933 9.52705C14.9429 10.563 14.608 11.5516 13.9793 12.5001L14 12.5H15.7133C16.2357 11.4703 16.5 10.3855 16.5 9.25ZM11.75 14.75C11.75 14.3358 12.0858 14 12.5 14H13.25H14C14.4142 14 14.75 14.3358 14.75 14.75C14.75 15.1642 14.4142 15.5 14 15.5V21.5C14.4142 21.5 14.75 21.8358 14.75 22.25C14.75 22.6642 14.4142 23 14 23H13.25H12.5C12.0858 23 11.75 22.6642 11.75 22.25C11.75 21.8358 12.0858 21.5 12.5 21.5V15.5C12.0858 15.5 11.75 15.1642 11.75 14.75ZM16.8499 14C16.3805 14 15.9999 14.3806 15.9999 14.85V18.75V22.25H16C16 22.6642 16.3358 23 16.75 23C17.1642 23 17.5 22.6642 17.5 22.25L17.4999 22.2386V19.5H18.9175L20.5898 22.6022C20.7864 22.9668 21.2413 23.103 21.6059 22.9065C21.9705 22.7099 22.1067 22.255 21.9102 21.8904L20.4081 19.1039C20.623 18.9647 20.8114 18.7928 20.9706 18.5947C21.4011 18.0586 21.5821 17.3781 21.5705 16.7364C21.5589 16.0945 21.3537 15.4252 20.9264 14.9011C20.4853 14.36 19.8251 14 18.9999 14H16.8499ZM18.9999 18H17.4999V15.5H18.9999C19.3524 15.5 19.5935 15.64 19.7638 15.8489C19.948 16.0748 20.0643 16.4055 20.0708 16.7636C20.0773 17.1219 19.9729 17.4414 19.8011 17.6553C19.6452 17.8494 19.4024 18 18.9999 18Z" fill="#242424"/>
</svg>
