<svg width="24" height="24" viewBox="0 0 24 24" fill="none" xmlns="http://www.w3.org/2000/svg">
<path d="M11 20.1684V18.998H5.711L6.00135 20.2549L6.04678 20.4222C6.3385 21.3537 7.20426 21.9986 8.19365 21.9986H10.0176C10.0061 21.9174 10.0001 21.8344 10.0001 21.7499C10.0001 21.0519 10.4088 20.4493 11 20.1684ZM15 12.565C15.219 12.565 15.4298 12.6002 15.627 12.6652C16.2066 11.5867 16.5 10.4465 16.5 9.25C16.5 5.24593 13.2541 2 9.25 2C5.24593 2 2 5.24593 2 9.25C2 11.3866 2.93616 13.3433 4.76701 15.0908C4.80234 15.1245 4.82702 15.1678 4.83801 15.2154L5.364 17.498H11V16.7324C10.4022 16.3866 10 15.7402 10 15V14.565C10 13.4604 10.8954 12.565 12 12.565H15ZM11.75 14.75C11.75 14.3358 12.0858 14 12.5 14H13.25H14C14.4142 14 14.75 14.3358 14.75 14.75C14.75 15.1642 14.4142 15.5 14 15.5V21.5C14.4142 21.5 14.75 21.8358 14.75 22.25C14.75 22.6642 14.4142 23 14 23H13.25H12.5C12.0858 23 11.75 22.6642 11.75 22.25C11.75 21.8358 12.0858 21.5 12.5 21.5V15.5C12.0858 15.5 11.75 15.1642 11.75 14.75ZM15.9999 14.85C15.9999 14.3806 16.3805 14 16.8499 14H18.9999C19.8257 14 20.4861 14.3612 20.927 14.9032C21.354 15.4282 21.5589 16.0984 21.5705 16.7411C21.5821 17.3834 21.4013 18.0649 20.9711 18.6018C20.8127 18.7994 20.6253 18.9711 20.4115 19.1103L21.9102 21.8903C22.1067 22.2549 21.9705 22.7098 21.6059 22.9064C21.2413 23.103 20.7864 22.9667 20.5898 22.6021L18.9225 19.5092H17.4999V22.2387L17.5 22.25C17.5 22.6642 17.1642 23 16.75 23C16.3358 23 16 22.6642 16 22.25H15.9999V18.7592V14.85ZM17.4999 18.0092H18.9999C19.4018 18.0092 19.6445 17.8585 19.8005 17.6638C19.9727 17.4489 20.0773 17.1281 20.0708 16.7681C20.0643 16.4085 19.9477 16.0764 19.7633 15.8497C19.5927 15.64 19.3517 15.5 18.9999 15.5H17.4999V18.0092Z" fill="#242424"/>
</svg>
