<svg width="48" height="48" viewBox="0 0 48 48" fill="none" xmlns="http://www.w3.org/2000/svg">
<path d="M23.6652 31.625C25.8743 31.625 27.6652 33.4159 27.6652 35.625C27.6652 37.8341 25.8743 39.625 23.6652 39.625C21.456 39.625 19.6652 37.8341 19.6652 35.625C19.6652 33.4159 21.456 31.625 23.6652 31.625Z" fill="#242424"/>
<path d="M22.4152 27.2949C22.415 28.6305 20.6824 29.1551 19.9415 28.0439L8.22863 10.4736C7.63082 9.5766 8.2737 8.37524 9.35168 8.375H21.0655C21.8108 8.37521 22.4149 8.97935 22.4152 9.72461V27.2949Z" fill="#242424"/>
<path d="M24.6652 27.1533C24.6652 28.6115 26.657 29.0345 27.2491 27.7021L34.9952 10.2734C35.392 9.3807 34.7378 8.375 33.7609 8.375H26.0148C25.2695 8.37521 24.6654 8.97934 24.6652 9.72461V27.1533Z" fill="#242424"/>
</svg>
