<svg width="48" height="48" viewBox="0 0 48 48" fill="none" xmlns="http://www.w3.org/2000/svg">
<path d="M23.6652 31.75C25.8743 31.75 27.6652 33.5409 27.6652 35.75C27.6652 37.9591 25.8743 39.75 23.6652 39.75C21.456 39.75 19.6652 37.9591 19.6652 35.75C19.6652 33.5409 21.456 31.75 23.6652 31.75Z" fill="#242424"/>
<path d="M19.9152 23.6221V11H11.5011L19.9152 23.6221ZM22.4152 27.4199C22.415 28.7555 20.6824 29.2801 19.9415 28.1689L8.22863 10.5986C7.63082 9.7016 8.2737 8.50024 9.35168 8.5H21.0655C21.8108 8.50021 22.4149 9.10434 22.4152 9.84961V27.4199Z" fill="#242424"/>
<path d="M27.1652 21.8584V11H31.9913L27.1652 21.8584ZM24.6652 27.2783C24.6652 28.7365 26.657 29.1595 27.2491 27.8271L34.9952 10.3984C35.392 9.5057 34.7378 8.5 33.7609 8.5H26.0148C25.2695 8.50021 24.6654 9.10434 24.6652 9.84961V27.2783Z" fill="#242424"/>
</svg>
