<svg width="32" height="32" viewBox="0 0 32 32" fill="none" xmlns="http://www.w3.org/2000/svg">
<path d="M15.9191 22C17.576 22 18.9191 23.3431 18.9191 25C18.9191 26.6569 17.576 28 15.9191 28C14.2622 28 12.9191 26.6569 12.9191 25C12.9191 23.3431 14.2622 22 15.9191 22Z" fill="#212121"/>
<path d="M12.9191 15.5947V6H6.75113L12.9191 15.5947ZM14.9191 18.6592C14.9191 19.757 13.4874 20.1774 12.8937 19.2539L4.17691 5.69531C3.7063 4.96325 4.23241 4 5.10269 4H13.8195C14.4267 4.00021 14.9189 4.49241 14.9191 5.09961V18.6592Z" fill="#212121"/>
<path d="M18.9191 14.127V6H22.4025L18.9191 14.127ZM16.9191 18.5127C16.9191 19.7089 18.5592 20.0457 19.0304 18.9463L24.7785 5.5332C25.0894 4.80746 24.5573 4.0002 23.7677 4H18.0187C17.4115 4.00021 16.9193 4.49241 16.9191 5.09961V18.5127Z" fill="#212121"/>
</svg>
