<svg width="24" height="24" viewBox="0 0 24 24" fill="none" xmlns="http://www.w3.org/2000/svg">
<path d="M13.631 2.01023C13.7864 2.02774 13.9246 2.11701 14.0045 2.25145L15.1375 4.15764C16.1223 4.39007 17.0416 4.72936 17.8672 5.15816L20.4702 4.51971C20.6337 4.47962 20.8063 4.52452 20.9296 4.63917C21.0528 4.75382 21.11 4.92281 21.0818 5.08875L20.6864 7.41358C21.5048 8.44555 21.986 9.65401 21.986 10.9559C21.986 11.853 21.7571 12.7081 21.3452 13.4917L21.8223 15.0093C21.8708 15.1633 21.8418 15.3313 21.7445 15.4601C21.6472 15.589 21.4936 15.6629 21.3322 15.6586L19.5949 15.6118C19.3113 15.8492 19.007 16.0725 18.6845 16.2803L18.4859 18.2432C18.4694 18.4064 18.3738 18.5511 18.2303 18.6304C18.0867 18.7096 17.9134 18.7134 17.7665 18.6404L15.6923 17.6101C15.1156 17.7739 14.5129 17.9005 13.8901 17.9857L12.7693 19.5801C12.6793 19.7082 12.5344 19.7867 12.3779 19.7921C12.2214 19.7975 12.0714 19.7293 11.9727 19.6077L10.7128 18.056C9.92299 17.984 9.16127 17.8463 8.43908 17.6504L2.80004 21.8927C2.60795 22.0372 2.34018 22.0244 2.1627 21.8623C1.98521 21.7002 1.94832 21.4347 2.07489 21.2303L5.18699 16.2054C4.88045 16.0016 4.59119 15.7837 4.32134 15.5527L2.52895 15.6579C2.36114 15.6678 2.19962 15.5926 2.09913 15.4578C1.99864 15.3231 1.97264 15.1468 2.02995 14.9888L2.60087 13.4145C2.21404 12.6519 2.00002 11.8235 2.00002 10.9559C2.00002 10.138 2.19029 9.35443 2.5366 8.62802L2.01055 6.10632C1.97665 5.94384 2.02565 5.77513 2.14132 5.65609C2.25699 5.53705 2.42422 5.48322 2.58761 5.51244L4.87683 5.92178C5.41126 5.53442 6.00553 5.19211 6.64741 4.90167L7.41331 2.90252C7.47081 2.75245 7.59699 2.63919 7.75238 2.59817C7.90777 2.55716 8.0734 2.59339 8.19747 2.69554L9.75436 3.97733C10.3678 3.87731 11.0024 3.81757 11.6524 3.80206L13.2131 2.16227C13.3209 2.04898 13.4756 1.99271 13.631 2.01023ZM11.2628 7.82853C11.2628 7.41431 10.927 7.07853 10.5128 7.07853C10.0986 7.07853 9.76282 7.41431 9.76282 7.82853V12.269C9.76282 12.6832 10.0986 13.019 10.5128 13.019C10.927 13.019 11.2628 12.6832 11.2628 12.269V7.82853ZM14.2231 7.82853C14.2231 7.41431 13.8873 7.07853 13.4731 7.07853C13.0589 7.07853 12.7231 7.41431 12.7231 7.82853V12.269C12.7231 12.6832 13.0589 13.019 13.4731 13.019C13.8873 13.019 14.2231 12.6832 14.2231 12.269V7.82853ZM10.5058 15.5C10.92 15.5 11.2558 15.1643 11.2558 14.75C11.2558 14.3358 10.92 14 10.5058 14C10.0916 14 9.75577 14.3358 9.75577 14.75C9.75577 15.1643 10.0916 15.5 10.5058 15.5ZM14.2442 14.75C14.2442 14.3358 13.9084 14 13.4942 14C13.08 14 12.7442 14.3358 12.7442 14.75C12.7442 15.1642 13.08 15.5 13.4942 15.5C13.9084 15.5 14.2442 15.1642 14.2442 14.75Z" fill="#212121"/>
</svg>
