<svg width="48" height="48" viewBox="0 0 48 48" fill="none" xmlns="http://www.w3.org/2000/svg">
<path d="M27.2783 4.0063C27.5893 4.04135 27.866 4.22001 28.0259 4.48908L30.2935 8.30414C32.2644 8.76934 34.1043 9.44839 35.7567 10.3066L40.9664 9.02879C41.2935 8.94855 41.6391 9.03842 41.8857 9.26788C42.1324 9.49735 42.2469 9.83557 42.1904 10.1677L41.3991 14.8206C43.0369 16.886 44 19.3046 44 21.9103C44 23.7057 43.5421 25.417 42.7177 26.9854L43.6726 30.0227C43.7695 30.331 43.7114 30.6671 43.5167 30.9251C43.3221 31.183 43.0147 31.3309 42.6917 31.3222L39.2145 31.2285C38.647 31.7037 38.038 32.1506 37.3924 32.5666L36.995 36.4952C36.9619 36.8217 36.7707 37.1113 36.4834 37.2699C36.196 37.4286 35.8491 37.4361 35.5551 37.2901L31.4038 35.2279C30.2497 35.5559 29.0434 35.8091 27.797 35.9798L25.5538 39.1708C25.3736 39.4272 25.0836 39.5842 24.7703 39.5951C24.4571 39.6059 24.1569 39.4693 23.9594 39.226L21.4378 36.1204C19.8571 35.9764 18.3326 35.7008 16.8872 35.3087L5.60121 43.7992C5.21675 44.0884 4.68084 44.0628 4.32562 43.7384C3.9704 43.4139 3.89656 42.8825 4.14988 42.4735L10.3785 32.4166C9.76496 32.0087 9.18602 31.5726 8.64594 31.1103L5.05864 31.3209C4.72279 31.3406 4.39952 31.1901 4.1984 30.9204C3.99727 30.6507 3.94524 30.298 4.05994 29.9817L5.20259 26.8308C4.42839 25.3047 4.00003 23.6467 4.00003 21.9103C4.00003 20.2732 4.38085 18.705 5.07396 17.2512L4.02111 12.2043C3.95327 11.8791 4.05134 11.5414 4.28285 11.3032C4.51435 11.0649 4.84905 10.9572 5.17606 11.0156L9.75771 11.8349C10.8273 11.0596 12.0167 10.3745 13.3014 9.79325L14.8342 5.79214C14.9493 5.49178 15.2018 5.26511 15.5128 5.18302C15.8238 5.10093 16.1553 5.17344 16.4037 5.37789L19.5196 7.94327C20.7473 7.7431 22.0175 7.62352 23.3184 7.59248L26.4419 4.31059C26.6577 4.08386 26.9672 3.97125 27.2783 4.0063ZM22.262 15.3323C22.262 14.6419 21.7024 14.0823 21.012 14.0823C20.3217 14.0823 19.762 14.6419 19.762 15.3323V24.2195C19.762 24.9098 20.3217 25.4695 21.012 25.4695C21.7024 25.4695 22.262 24.9098 22.262 24.2195V15.3323ZM28.1868 15.3323C28.1868 14.6419 27.6272 14.0823 26.9368 14.0823C26.2464 14.0823 25.6868 14.6419 25.6868 15.3323V24.2195C25.6868 24.9098 26.2464 25.4695 26.9368 25.4695C27.6272 25.4695 28.1868 24.9098 28.1868 24.2195V15.3323ZM21.0095 29.5C21.6998 29.5 22.2595 28.9404 22.2595 28.25C22.2595 27.5596 21.6998 27 21.0095 27C20.3191 27 19.7595 27.5596 19.7595 28.25C19.7595 28.9404 20.3191 29.5 21.0095 29.5ZM28.2406 28.25C28.2406 27.5596 27.6809 27 26.9906 27C26.3002 27 25.7406 27.5596 25.7406 28.25C25.7406 28.9404 26.3002 29.5 26.9906 29.5C27.6809 29.5 28.2406 28.9404 28.2406 28.25Z" fill="#212121"/>
</svg>
