<svg width="28" height="28" viewBox="0 0 28 28" fill="none" xmlns="http://www.w3.org/2000/svg">
<path d="M15.9725 1.99426C16.1592 2.0153 16.3253 2.12254 16.4213 2.28404L17.7823 4.57398C18.9654 4.85321 20.0697 5.26081 21.0616 5.77593L24.1886 5.00895C24.385 4.96078 24.5924 5.01473 24.7404 5.15246C24.8885 5.29019 24.9572 5.4932 24.9233 5.69254L24.4484 8.48541C25.4314 9.72514 26.0095 11.1769 26.0095 12.7409C26.0095 13.8186 25.7346 14.8458 25.2398 15.7871L25.813 17.6103C25.8711 17.7953 25.8363 17.9971 25.7194 18.1519C25.6026 18.3067 25.4181 18.3955 25.2242 18.3903L23.137 18.3341C22.7964 18.6193 22.4309 18.8875 22.0434 19.1372L21.8048 21.4953C21.785 21.6913 21.6702 21.8651 21.4977 21.9603C21.3253 22.0556 21.117 22.0601 20.9406 21.9724L18.4488 20.7346C17.756 20.9315 17.032 21.0835 16.2838 21.1859L14.9374 23.1013C14.8292 23.2552 14.6551 23.3495 14.4671 23.356C14.2791 23.3625 14.099 23.2805 13.9804 23.1344L12.4668 21.2703C11.518 21.1839 10.603 21.0185 9.7354 20.7831L2.9611 25.8794C2.73034 26.053 2.40867 26.0377 2.19545 25.8429C1.98223 25.6482 1.93791 25.3292 2.08996 25.0837L5.82859 19.0472C5.46034 18.8024 5.11285 18.5406 4.78867 18.2631L2.63544 18.3895C2.43384 18.4013 2.23981 18.311 2.11909 18.1491C1.99836 17.9872 1.96713 17.7755 2.03598 17.5857L2.72184 15.6944C2.25713 14.7783 2.00002 13.7831 2.00002 12.7409C2.00002 11.7583 2.2286 10.817 2.64463 9.94434L2.01267 6.91498C1.97195 6.71978 2.03082 6.51711 2.16977 6.37411C2.30873 6.2311 2.50963 6.16644 2.70591 6.20153L5.45599 6.69329C6.09802 6.22794 6.81192 5.81671 7.58302 5.4678L8.50312 3.06619C8.57219 2.8859 8.72377 2.74984 8.91044 2.70057C9.09711 2.6513 9.29609 2.69482 9.44514 2.81754L11.3155 4.35738C12.0524 4.23723 12.8148 4.16545 13.5956 4.14682L15.4705 2.17691C15.6 2.04081 15.7858 1.97322 15.9725 1.99426ZM12.9615 8.79255C12.9615 8.37818 12.6256 8.04226 12.2112 8.04226C11.7969 8.04226 11.4609 8.37818 11.4609 8.79255V14.127C11.4609 14.5414 11.7969 14.8773 12.2112 14.8773C12.6256 14.8773 12.9615 14.5414 12.9615 14.127V8.79255ZM16.5178 8.79255C16.5178 8.37818 16.1819 8.04226 15.7675 8.04226C15.3531 8.04226 15.0172 8.37818 15.0172 8.79255V14.127C15.0172 14.5414 15.3531 14.8773 15.7675 14.8773C16.1819 14.8773 16.5178 14.5414 16.5178 14.127V8.79255ZM12.2097 17.3709C12.6241 17.3709 12.96 17.035 12.96 16.6206C12.96 16.2062 12.6241 15.8703 12.2097 15.8703C11.7953 15.8703 11.4594 16.2062 11.4594 16.6206C11.4594 17.035 11.7953 17.3709 12.2097 17.3709ZM16.5501 16.6206C16.5501 16.2062 16.2142 15.8703 15.7998 15.8703C15.3854 15.8703 15.0495 16.2062 15.0495 16.6206C15.0495 17.035 15.3854 17.3709 15.7998 17.3709C16.2142 17.3709 16.5501 17.035 16.5501 16.6206Z" fill="#212121"/>
</svg>
