<svg width="20" height="20" viewBox="0 0 20 20" fill="none" xmlns="http://www.w3.org/2000/svg">
<path d="M11.3113 2.01643C11.4357 2.03045 11.5464 2.10192 11.6104 2.20955L12.5174 3.73557C13.3058 3.92165 14.0417 4.19327 14.7027 4.53655L16.7865 4.02543C16.9174 3.99333 17.0556 4.02928 17.1543 4.12107C17.2529 4.21285 17.2987 4.34814 17.2762 4.48098L16.9596 6.34215C17.6148 7.16831 18 8.13576 18 9.17802C18 9.8962 17.8168 10.5807 17.4871 11.208L17.869 12.423C17.9078 12.5463 17.8846 12.6808 17.8067 12.7839C17.7288 12.8871 17.6059 12.9463 17.4766 12.9428L16.0858 12.9053C15.8588 13.0954 15.6152 13.2741 15.357 13.4405L15.198 15.012C15.1848 15.1426 15.1083 15.2584 14.9933 15.3219C14.8784 15.3853 14.7396 15.3884 14.622 15.3299L12.9615 14.5051C12.4999 14.6363 12.0173 14.7376 11.5188 14.8058L10.6215 16.0822C10.5494 16.1848 10.4334 16.2476 10.3081 16.2519C10.1828 16.2563 10.0628 16.2016 9.98375 16.1043L8.97512 14.8621C8.34285 14.8045 7.73304 14.6942 7.15489 14.5374L2.64048 17.9336C2.4867 18.0493 2.27234 18.039 2.13025 17.9093C1.98816 17.7795 1.95863 17.5669 2.05995 17.4033L4.55138 13.3805C4.30598 13.2174 4.07441 13.0429 3.85837 12.858L2.42346 12.9423C2.28911 12.9501 2.15981 12.89 2.07936 12.7821C1.99891 12.6742 1.9781 12.5331 2.02398 12.4066L2.48104 11.1462C2.17135 10.5358 2.00001 9.87258 2.00001 9.17802C2.00001 8.52319 2.15234 7.89593 2.42958 7.31439L2.00844 5.29561C1.98131 5.16554 2.02054 5.03047 2.11314 4.93518C2.20574 4.83988 2.33962 4.79678 2.47042 4.82017L4.30308 5.14788C4.73093 4.83777 5.20668 4.56373 5.72054 4.33121L6.33369 2.73077C6.37972 2.61063 6.48073 2.51996 6.60513 2.48712C6.72953 2.45429 6.86213 2.48329 6.96146 2.56507L8.20785 3.59122C8.69892 3.51115 9.20699 3.46332 9.72735 3.45091L10.9768 2.13815C11.0631 2.04746 11.1869 2.00242 11.3113 2.01643ZM9.31504 6.54681C9.31504 6.27066 9.09118 6.04681 8.81504 6.04681C8.5389 6.04681 8.31504 6.27066 8.31504 6.54681V10.1017C8.31504 10.3778 8.5389 10.6017 8.81504 10.6017C9.09118 10.6017 9.31504 10.3778 9.31504 10.1017V6.54681ZM11.685 6.54681C11.685 6.27066 11.4611 6.04681 11.185 6.04681C10.9088 6.04681 10.685 6.27066 10.685 6.54681V10.1017C10.685 10.3778 10.9088 10.6017 11.185 10.6017C11.4611 10.6017 11.685 10.3778 11.685 10.1017L11.685 6.54681ZM8.80377 12.2627C9.07991 12.2627 9.30377 12.0388 9.30377 11.7627C9.30377 11.4865 9.07991 11.2627 8.80377 11.2627C8.52763 11.2627 8.30377 11.4865 8.30377 11.7627C8.30377 12.0388 8.52763 12.2627 8.80377 12.2627ZM11.6963 11.7627C11.6963 11.4865 11.4724 11.2627 11.1963 11.2627C10.9201 11.2627 10.6963 11.4865 10.6963 11.7627C10.6963 12.0388 10.9201 12.2627 11.1963 12.2627C11.4724 12.2627 11.6963 12.0388 11.6963 11.7627Z" fill="#212121"/>
</svg>
