<svg width="16" height="16" viewBox="0 0 16 16" fill="none" xmlns="http://www.w3.org/2000/svg">
<g clip-path="url(#clip0_6479_2690)">
<path d="M7.46381 4.76624C7.46381 4.49009 7.23995 4.26624 6.96381 4.26624C6.68767 4.26624 6.46381 4.49009 6.46381 4.76624V7.8749C6.46381 8.15104 6.68767 8.3749 6.96381 8.3749C7.23995 8.3749 7.46381 8.15104 7.46381 7.8749V4.76624Z" fill="#212121"/>
<path d="M9.53625 4.76624C9.53625 4.49009 9.3124 4.26624 9.03625 4.26624C8.76011 4.26624 8.53625 4.49009 8.53625 4.76624V7.8749C8.53625 8.15104 8.76011 8.3749 9.03625 8.3749C9.3124 8.3749 9.53625 8.15104 9.53625 7.8749V4.76624Z" fill="#212121"/>
<path d="M6.95393 10C7.23008 10 7.45393 9.77614 7.45393 9.5C7.45393 9.22386 7.23008 9 6.95393 9C6.67779 9 6.45393 9.22386 6.45393 9.5C6.45393 9.77614 6.67779 10 6.95393 10Z" fill="#212121"/>
<path d="M9.5461 9.5C9.5461 9.77614 9.32224 10 9.0461 10C8.76996 10 8.5461 9.77614 8.5461 9.5C8.5461 9.22386 8.76996 9 9.0461 9C9.32224 9 9.5461 9.22386 9.5461 9.5Z" fill="#212121"/>
<path d="M9.45123 1.10744C9.36076 1.00437 9.23193 0.942974 9.09489 0.937635C8.95785 0.932297 8.82464 0.983482 8.72643 1.07921L7.67564 2.10344C7.38278 2.11319 7.09465 2.13571 6.81229 2.17025L5.48826 1.43889C5.2531 1.30899 4.95732 1.38815 4.81847 1.61814L3.98117 3.00502C3.67519 3.15887 3.3863 3.33038 3.11752 3.51801L1.52744 3.43889C1.381 3.4316 1.23874 3.48896 1.13831 3.59578C1.03788 3.7026 0.989391 3.84812 1.00568 3.99383L1.21586 5.87374C1.06986 6.28137 0.991526 6.71048 0.991526 7.15329C0.991526 7.74133 1.12961 8.30271 1.37961 8.82059L1.02406 9.99416C0.976749 10.1503 1.00862 10.3198 1.10946 10.4481C1.21029 10.5764 1.36739 10.6474 1.53033 10.6384L2.8351 10.5659C2.96037 10.6633 3.09078 10.7569 3.22593 10.8464L1.01655 14.2852C0.885582 14.489 0.919611 14.7574 1.0973 14.9221C1.275 15.0868 1.54522 15.1005 1.73856 14.9544L5.74979 11.9248L5.8378 11.937C6.08213 11.993 6.33228 12.0397 6.58744 12.0766L7.61845 13.3193C7.71217 13.4322 7.8508 13.4983 7.99757 13.5C8.14435 13.5016 8.28444 13.4387 8.38071 13.3279L9.39806 12.1569L10.2226 12.0789L11.5016 12.6837C11.637 12.7478 11.7941 12.7477 11.9295 12.6836C12.0648 12.6194 12.1643 12.4979 12.2005 12.3525L12.535 11.009C12.6424 10.9444 12.7471 10.8773 12.849 10.8078L13.0972 10.6634H14.5088C14.6606 10.6634 14.8042 10.5944 14.8991 10.476C14.994 10.3575 15.0299 10.2023 14.9967 10.0542L14.6887 8.67806C14.8926 8.2041 15.0036 7.69638 15.0036 7.16732C15.0036 6.50056 14.8274 5.8663 14.513 5.28962L14.4481 3.19659C14.4437 3.05373 14.3783 2.9196 14.2686 2.82807C14.1588 2.73654 14.0151 2.69636 13.8738 2.71768L12.0083 2.99909C11.5843 2.7858 11.1267 2.60627 10.6427 2.46499L9.45123 1.10744ZM8.23285 2.95677L9.04716 2.16305L9.98861 3.23576C10.0533 3.30943 10.1382 3.36248 10.2327 3.38829C10.7613 3.53258 11.2499 3.72619 11.6878 3.95911C11.7826 4.00952 11.8911 4.02809 11.9972 4.01207L13.4661 3.7905L13.5173 5.4436C13.5199 5.52696 13.5433 5.60836 13.5854 5.68037C13.8587 6.14804 14.0036 6.64942 14.0036 7.16732C14.0036 7.59813 13.9034 8.01369 13.7139 8.40593C13.6648 8.50748 13.6515 8.62264 13.6761 8.73271L13.8845 9.6634H12.9623C12.874 9.6634 12.7872 9.68681 12.7108 9.73125L12.3304 9.95265C12.3197 9.95885 12.3093 9.96544 12.2992 9.97241C12.159 10.0685 12.0113 10.1601 11.8565 10.2469C11.7362 10.3143 11.649 10.4284 11.6157 10.5623L11.3776 11.5189L10.526 11.1161C10.4447 11.0777 10.3546 11.0619 10.2651 11.0704L9.10472 11.1801C8.97687 11.1922 8.85857 11.2531 8.77435 11.35L8.01203 12.2275L7.23233 11.2877C7.15097 11.1896 7.03524 11.1263 6.90878 11.1107C6.61091 11.074 6.32122 11.0225 6.0413 10.9577C6.02678 10.9544 6.01212 10.9517 5.99736 10.9496L5.68248 10.9058C5.5512 10.8876 5.41804 10.9222 5.31227 11.0021L3.37394 12.4661L4.3441 10.9561C4.41873 10.8399 4.44201 10.6981 4.40842 10.5642C4.37483 10.4303 4.28737 10.3162 4.16676 10.249C3.85429 10.075 3.57043 9.88119 3.31874 9.6717C3.22156 9.59081 3.09736 9.54975 2.97112 9.55676L2.18828 9.60026L2.3953 8.91695C2.43424 8.78842 2.41984 8.64964 2.35534 8.53185C2.11754 8.09754 1.99153 7.63397 1.99153 7.15329C1.99153 6.79829 2.06021 6.45264 2.19115 6.121C2.22113 6.04507 2.23206 5.96295 2.22299 5.88182L2.0648 4.46687L3.24251 4.52547C3.35809 4.53122 3.47209 4.4967 3.56507 4.42779C3.85863 4.21023 4.18817 4.01273 4.54886 3.84037C4.63698 3.79826 4.71084 3.73127 4.76131 3.64766L5.42589 2.54685L6.47263 3.12505C6.56741 3.1774 6.67663 3.19757 6.78386 3.18253C7.14153 3.13234 7.51133 3.10366 7.89041 3.09868C8.01853 3.097 8.1411 3.0462 8.23285 2.95677Z" fill="#212121"/>
</g>
<defs>
<clipPath id="clip0_6479_2690">
<rect width="16" height="16" fill="white"/>
</clipPath>
</defs>
</svg>
