<svg width="24" height="24" viewBox="0 0 24 24" fill="none" xmlns="http://www.w3.org/2000/svg">
<path d="M11.2697 7.55396C11.2697 7.13975 10.9339 6.80396 10.5197 6.80396C10.1055 6.80396 9.76971 7.13975 9.76971 7.55396V11.9949C9.76971 12.4091 10.1055 12.7449 10.5197 12.7449C10.9339 12.7449 11.2697 12.4091 11.2697 11.9949V7.55396Z" fill="#212121"/>
<path d="M14.2303 7.55396C14.2303 7.13975 13.8946 6.80396 13.4803 6.80396C13.0661 6.80396 12.7303 7.13975 12.7303 7.55396V11.9949C12.7303 12.4091 13.0661 12.7449 13.4803 12.7449C13.8946 12.7449 14.2303 12.4091 14.2303 11.9949V7.55396Z" fill="#212121"/>
<path d="M10.5057 15C10.9199 15 11.2557 14.6642 11.2557 14.25C11.2557 13.8358 10.9199 13.5 10.5057 13.5C10.0915 13.5 9.75567 13.8358 9.75567 14.25C9.75567 14.6642 10.0915 15 10.5057 15Z" fill="#212121"/>
<path d="M14.2444 14.25C14.2444 14.6642 13.9086 15 13.4944 15C13.0802 15 12.7444 14.6642 12.7444 14.25C12.7444 13.8358 13.0802 13.5 13.4944 13.5C13.9086 13.5 14.2444 13.8358 14.2444 14.25Z" fill="#212121"/>
<path d="M14.1504 2.19407C14.0252 2.01558 13.8285 1.90041 13.6116 1.87854C13.3947 1.85668 13.179 1.93028 13.0207 2.08019L11.4762 3.5428C11.0221 3.55989 10.5764 3.59854 10.1411 3.6574L8.46203 2.61512C8.28474 2.50507 8.06962 2.47385 7.86836 2.52897C7.6671 2.5841 7.49791 2.72057 7.40144 2.90561L6.43939 4.75088C5.94156 4.99271 5.47436 5.26719 5.04375 5.5711L2.8416 5.44197C2.61484 5.42868 2.39428 5.51886 2.2418 5.68722C2.08932 5.85558 2.02135 6.08398 2.05698 6.30831L2.43788 8.70694C2.16886 9.36833 2.02299 10.0724 2.02299 10.8025C2.02299 11.5772 2.18721 12.3202 2.48863 13.0127L2.06708 14.8306C2.01444 15.0576 2.07032 15.2962 2.2183 15.4762C2.36628 15.6563 2.58955 15.7573 2.82247 15.7496L4.62564 15.69C4.79046 15.8197 4.9616 15.9447 5.13862 16.0647L1.99364 20.9596C1.79718 21.2654 1.84823 21.668 2.11477 21.9151C2.38131 22.1621 2.78664 22.1825 3.07665 21.9635L8.78084 17.6552L10.2191 17.915L11.6678 19.6713C11.8095 19.8431 12.0202 19.943 12.2429 19.9441C12.4656 19.9451 12.6772 19.8472 12.8205 19.6767L14.1854 18.0531L15.1003 17.9881L17.1446 18.9747C17.3481 19.0729 17.5851 19.0742 17.7896 18.9781C17.9941 18.882 18.1444 18.6988 18.1987 18.4795L18.7575 16.2218L19.0551 15.9667H21.219C21.4532 15.9667 21.6739 15.8573 21.8158 15.671C21.9576 15.4846 22.0043 15.2427 21.9419 15.017L21.4382 13.1936C21.7987 12.4422 21.9973 11.6275 21.9973 10.7749C21.9973 9.78111 21.7276 8.83956 21.2477 7.98932V5.18513C21.2477 4.95695 21.1438 4.74117 20.9654 4.59886C20.7871 4.45655 20.5536 4.40319 20.3311 4.45387L18.0406 4.97561C17.2378 4.53831 16.3415 4.1893 15.378 3.94418L14.1504 2.19407ZM12.2993 4.82923L13.4213 3.7667L14.3124 5.03712C14.4188 5.18882 14.5776 5.29576 14.7582 5.33732C15.8013 5.57742 16.7428 5.94957 17.5465 6.41889C17.7109 6.51488 17.9057 6.54477 18.0913 6.50249L19.7477 6.12519V8.19306C19.7477 8.33095 19.7857 8.46616 19.8576 8.58385C20.2755 9.26851 20.4973 10.0078 20.4973 10.7749C20.4973 11.465 20.3179 12.1307 19.9789 12.7537C19.886 12.9244 19.863 13.1246 19.9147 13.3119L20.2337 14.4667H18.7776C18.5986 14.4667 18.4255 14.5308 18.2895 14.6473L17.599 15.2391C17.4805 15.3407 17.3966 15.4768 17.3591 15.6284L16.9646 17.2222L15.5724 16.5503C15.4545 16.4934 15.3238 16.4684 15.1932 16.4777L13.7624 16.5794C13.56 16.5938 13.3721 16.6896 13.2415 16.8449L12.2519 18.0221L11.2014 16.7485C11.0885 16.6117 10.9308 16.5193 10.7562 16.4877L8.72424 16.1207C8.5182 16.0835 8.30598 16.1341 8.1389 16.2603L5.52972 18.231L6.81256 16.2343C6.92411 16.0607 6.95919 15.8488 6.90954 15.6485C6.8599 15.4482 6.72991 15.2772 6.55018 15.1757C6.11285 14.9289 5.71639 14.6545 5.36548 14.3582C5.22362 14.2383 5.04236 14.1754 4.85678 14.1815L3.7489 14.2182L4.00797 13.101C4.04703 12.9325 4.0267 12.7558 3.95041 12.6006C3.67074 12.0318 3.52299 11.4283 3.52299 10.8025C3.52299 10.2189 3.65148 9.65207 3.89575 9.11294C3.95632 8.97926 3.97633 8.83074 3.95331 8.68579L3.68466 6.99399L5.22425 7.08426C5.40179 7.09468 5.57725 7.04166 5.71932 6.93467C6.18383 6.58487 6.7135 6.27113 7.29898 6.00397C7.45096 5.93461 7.57543 5.81651 7.65266 5.66837L8.35778 4.31591L9.58268 5.07627C9.73529 5.171 9.91683 5.20782 10.0943 5.18002C10.6414 5.09433 11.2103 5.04446 11.7962 5.03455C11.9837 5.03138 12.1631 4.95813 12.2993 4.82923Z" fill="#212121"/>
</svg>
