<svg width="32" height="32" viewBox="0 0 32 32" fill="none" xmlns="http://www.w3.org/2000/svg">
<path d="M18.2948 2.00441C18.5125 2.02894 18.7062 2.15401 18.8182 2.34236L20.4054 5.0129C21.7851 5.33854 23.073 5.81387 24.2297 6.41462L27.8765 5.52016C28.1055 5.46398 28.3474 5.52689 28.52 5.68752C28.6927 5.84814 28.7728 6.0849 28.7333 6.31737L28.1794 9.57442C29.3259 11.0202 30 12.7132 30 14.5372C30 15.794 29.6795 16.9919 29.1024 18.0898L29.7708 20.2159C29.8386 20.4317 29.798 20.667 29.6617 20.8475C29.5254 21.0281 29.3103 21.1317 29.0842 21.1256L26.6501 21.06C26.2529 21.3926 25.8266 21.7054 25.3747 21.9966L25.0965 24.7466C25.0733 24.9752 24.9395 25.1779 24.7384 25.289C24.5372 25.4 24.2944 25.4053 24.0886 25.3031L21.1827 23.8596C20.3748 24.0891 19.5304 24.2664 18.6579 24.3858L17.0877 26.6195C16.9615 26.799 16.7585 26.909 16.5392 26.9166C16.32 26.9241 16.1099 26.8285 15.9716 26.6582L14.2065 24.4843C13.1 24.3835 12.0328 24.1905 11.0211 23.9161L3.12084 29.8594C2.85173 30.0619 2.47659 30.044 2.22793 29.8169C1.97928 29.5898 1.92759 29.2178 2.10491 28.9315L6.46492 21.8916C6.03547 21.6061 5.63022 21.3008 5.25216 20.9772L2.74105 21.1246C2.50595 21.1384 2.27967 21.0331 2.13888 20.8443C1.99809 20.6555 1.96167 20.4086 2.04196 20.1872L2.84181 17.9816C2.29987 16.9133 2.00002 15.7527 2.00002 14.5372C2.00002 13.3912 2.26659 12.2935 2.75177 11.2758L2.01477 7.74298C1.96729 7.51534 2.03594 7.27898 2.19799 7.11221C2.36004 6.94544 2.59433 6.87002 2.82324 6.91096L6.0304 7.48444C6.77913 6.94175 7.61169 6.46217 8.51095 6.05527L9.58397 3.2545C9.66453 3.04425 9.84129 2.88557 10.059 2.82811C10.2767 2.77065 10.5087 2.82141 10.6826 2.96452L12.8637 4.76029C13.7231 4.62017 14.6122 4.53647 15.5229 4.51474L17.7094 2.21741C17.8604 2.0587 18.0771 1.97987 18.2948 2.00441ZM14.9084 9.93257C14.9084 9.38029 14.4607 8.93257 13.9084 8.93257C13.3561 8.93257 12.9084 9.38029 12.9084 9.93257V16.1536C12.9084 16.7059 13.3561 17.1536 13.9084 17.1536C14.4607 17.1536 14.9084 16.7059 14.9084 16.1536V9.93257ZM19.0558 9.93257C19.0558 9.38029 18.608 8.93257 18.0558 8.93257C17.5035 8.93257 17.0558 9.38029 17.0558 9.93257V16.1536C17.0558 16.7059 17.5035 17.1536 18.0558 17.1536C18.608 17.1536 19.0558 16.7059 19.0558 16.1536V9.93257ZM13.9067 20.2019C14.4589 20.2019 14.9067 19.7542 14.9067 19.2019C14.9067 18.6496 14.4589 18.2019 13.9067 18.2019C13.3544 18.2019 12.9067 18.6496 12.9067 19.2019C12.9067 19.7542 13.3544 20.2019 13.9067 20.2019ZM19.0934 19.2019C19.0934 18.6496 18.6457 18.2019 18.0934 18.2019C17.5411 18.2019 17.0934 18.6496 17.0934 19.2019C17.0934 19.7542 17.5411 20.2019 18.0934 20.2019C18.6457 20.2019 19.0934 19.7542 19.0934 19.2019Z" fill="#212121"/>
</svg>
