<svg width="32" height="32" viewBox="0 0 32 32" fill="none" xmlns="http://www.w3.org/2000/svg">
<path d="M14.9276 9.78272C14.9276 9.23043 14.4799 8.78272 13.9276 8.78272C13.3753 8.78272 12.9276 9.23043 12.9276 9.78272V16C12.9276 16.5523 13.3753 17 13.9276 17C14.4799 17 14.9276 16.5523 14.9276 16V9.78272Z" fill="#212121"/>
<path d="M19.0724 9.78272C19.0724 9.23043 18.6247 8.78272 18.0724 8.78272C17.5202 8.78272 17.0724 9.23043 17.0724 9.78272V16C17.0724 16.5523 17.5202 17 18.0724 17C18.6247 17 19.0724 16.5523 19.0724 16V9.78272Z" fill="#212121"/>
<path d="M13.9079 19.9261C14.4602 19.9261 14.9079 19.4784 14.9079 18.9261C14.9079 18.3738 14.4602 17.9261 13.9079 17.9261C13.3556 17.9261 12.9079 18.3738 12.9079 18.9261C12.9079 19.4784 13.3556 19.9261 13.9079 19.9261Z" fill="#212121"/>
<path d="M19.0921 18.9261C19.0921 19.4784 18.6444 19.9261 18.0921 19.9261C17.5398 19.9261 17.0921 19.4784 17.0921 18.9261C17.0921 18.3738 17.5398 17.9261 18.0921 17.9261C18.6444 17.9261 19.0921 18.3738 19.0921 18.9261Z" fill="#212121"/>
<path d="M18.9892 2.34385C18.8194 2.08284 18.5377 1.91583 18.2272 1.89208C17.9167 1.86833 17.6129 1.99056 17.4054 2.2227L15.6251 4.21427C14.8804 4.22874 14.1505 4.28413 13.4396 4.37754L11.0097 2.91153C10.7618 2.76198 10.4613 2.72719 10.1858 2.81616C9.91031 2.90513 9.6869 3.10912 9.57331 3.37541L8.56959 5.72842C7.70045 6.11721 6.89244 6.57431 6.16099 7.09185L3.13524 6.73493C2.8248 6.69831 2.5151 6.80895 2.29815 7.034C2.0812 7.25904 1.98197 7.57258 2.02992 7.88147L2.57557 11.3958C2.20196 12.308 1.99922 13.2795 1.99922 14.2883C1.99922 15.4139 2.2516 16.4922 2.71104 17.4931L2.04935 20.0767C1.96985 20.3871 2.04392 20.7168 2.24856 20.9634C2.4532 21.21 2.76362 21.3436 3.08338 21.3227L5.70829 21.1509C5.95001 21.3388 6.20122 21.5196 6.46125 21.6931L2.03322 28.5849C1.77129 28.9926 1.83934 29.5294 2.19473 29.8589C2.55012 30.1883 3.09055 30.2155 3.47724 29.9234L11.4806 23.8786L13.5337 24.2495L15.5736 26.7225C15.7744 26.9659 16.0783 27.1003 16.3934 27.085C16.7086 27.0697 16.9981 26.9066 17.1744 26.6449L18.6778 24.4133L20.7281 24.1852L23.4735 25.5218C23.7573 25.66 24.0897 25.6561 24.3701 25.5113C24.6505 25.3665 24.8461 25.0977 24.8978 24.7864L25.3765 21.9003L26.5361 21.0407L28.8944 21.3338C29.2172 21.3739 29.5394 21.2545 29.7581 21.0136C29.9768 20.7727 30.0646 20.4404 29.9936 20.1229L29.3659 17.3194C29.7766 16.3646 30.0005 15.3426 30.0005 14.2796C30.0005 12.6314 29.4632 11.0923 28.5352 9.74822L28.8907 6.54925C28.9273 6.21915 28.7977 5.89238 28.5448 5.67716C28.2918 5.46194 27.9485 5.38637 27.6285 5.47547L24.6257 6.31166C23.4085 5.63211 22.0327 5.09843 20.5474 4.73904L18.9892 2.34385ZM16.8213 5.877L18.0254 4.53003L19.0913 6.16836C19.2348 6.38899 19.4595 6.54414 19.7167 6.60014C21.3208 6.94946 22.7624 7.51827 23.9746 8.24535C24.2099 8.38649 24.4929 8.42474 24.7572 8.35113L26.7395 7.79914L26.5049 9.91064C26.4766 10.1649 26.5469 10.4203 26.7012 10.6244C27.5474 11.7429 28.0005 12.9847 28.0005 14.2796C28.0005 15.1452 27.7985 15.9835 27.4158 16.7766C27.3116 16.9925 27.2901 17.2346 27.3478 17.4597L27.7316 19.1739L26.3854 19.0066C26.1304 18.9749 25.873 19.0426 25.6665 19.1956L23.8606 20.5345C23.6523 20.6889 23.5121 20.9183 23.4696 21.1742L23.1441 23.137L21.3431 22.2602C21.173 22.1774 20.9829 22.1445 20.7948 22.1654L17.9965 22.4768C17.7046 22.5093 17.4418 22.6684 17.2777 22.9119L16.2641 24.4165L14.8434 22.6942C14.6929 22.5118 14.4826 22.3885 14.2498 22.3465L11.4051 21.8326C11.1304 21.783 10.8474 21.8505 10.6246 22.0187L6.74799 24.9467L8.69602 21.9148C8.845 21.6829 8.89168 21.3998 8.82501 21.1324C8.75835 20.8649 8.58426 20.6369 8.34387 20.502C7.72859 20.157 7.16882 19.7734 6.67142 19.3592C6.47444 19.1951 6.22198 19.113 5.96617 19.1297L4.329 19.2369L4.73961 17.6336C4.80048 17.396 4.77186 17.1442 4.65919 16.9263C4.2275 16.0913 3.99922 15.2048 3.99922 14.2883C3.99922 13.4762 4.17838 12.689 4.51836 11.9408C4.59898 11.7633 4.626 11.5662 4.5961 11.3737L4.20821 8.87536L6.317 9.12412C6.57356 9.15439 6.83188 9.08419 7.03784 8.92823C7.80938 8.34398 8.71016 7.83043 9.71701 7.41132C9.95795 7.31103 10.1501 7.12052 10.2525 6.88047L10.9616 5.21828L12.7107 6.27359C12.9104 6.39406 13.1459 6.44096 13.3765 6.40616C14.2249 6.27816 15.1088 6.21045 16.0188 6.21045L16.0728 6.21053C16.3585 6.21138 16.6309 6.08999 16.8213 5.877Z" fill="#212121"/>
</svg>
