<svg width="48" height="48" viewBox="0 0 48 48" fill="none" xmlns="http://www.w3.org/2000/svg">
<path d="M22.2619 15.25C22.2619 14.5596 21.7023 14 21.0119 14C20.3216 14 19.7619 14.5596 19.7619 15.25V24.1372C19.7619 24.8275 20.3216 25.3872 21.0119 25.3872C21.7023 25.3872 22.2619 24.8275 22.2619 24.1372V15.25Z" fill="#212121"/>
<path d="M28.1867 15.25C28.1867 14.5596 27.6271 14 26.9367 14C26.2464 14 25.6867 14.5596 25.6867 15.25V24.1372C25.6867 24.8275 26.2464 25.3872 26.9367 25.3872C27.6271 25.3872 28.1867 24.8275 28.1867 24.1372V15.25Z" fill="#212121"/>
<path d="M21.0094 29.1358C21.6998 29.1358 22.2594 28.5761 22.2594 27.8858C22.2594 27.1954 21.6998 26.6358 21.0094 26.6358C20.3191 26.6358 19.7594 27.1954 19.7594 27.8858C19.7594 28.5761 20.3191 29.1358 21.0094 29.1358Z" fill="#212121"/>
<path d="M28.2405 27.8858C28.2405 28.5761 27.6809 29.1358 26.9905 29.1358C26.3002 29.1358 25.7405 28.5761 25.7405 27.8858C25.7405 27.1954 26.3002 26.6358 26.9905 26.6358C27.6809 26.6358 28.2405 27.1954 28.2405 27.8858Z" fill="#212121"/>
<path d="M28.1105 4.56836C27.8982 4.2421 27.5461 4.03333 27.158 4.00365C26.77 3.97396 26.3902 4.12675 26.1308 4.41692L23.5337 7.32208C22.428 7.34055 21.3439 7.42251 20.2886 7.56319L16.7621 5.43561C16.4523 5.24867 16.0766 5.20518 15.7323 5.31639C15.3879 5.4276 15.1086 5.68259 14.9666 6.01545L13.5122 9.42506C12.1806 10.0085 10.9476 10.7025 9.84065 11.493L5.35529 11.14C4.96664 11.1094 4.58598 11.2619 4.32594 11.5523C4.06589 11.8428 3.95625 12.2379 4.02945 12.6208L4.92476 17.3044C4.34576 18.6377 4.02971 20.0637 4.02971 21.5471C4.02971 23.1946 4.41947 24.7697 5.12488 26.2254L4.05824 29.8432C3.94257 30.2356 4.02617 30.6597 4.28209 30.9788C4.53801 31.2979 4.93387 31.4716 5.34197 31.4438L9.27051 31.1769C9.68823 31.5009 10.126 31.8103 10.5822 32.1042L4.17456 42.0772C3.84713 42.5868 3.93221 43.2578 4.37644 43.6696C4.82067 44.0814 5.49622 44.1154 5.97957 43.7503L17.4824 35.0624L20.5593 35.6182L23.517 39.2038C23.7679 39.5081 24.1478 39.676 24.5418 39.657C24.9357 39.6379 25.2976 39.4339 25.5179 39.1068L27.7134 35.8481L30.7784 35.5071L34.7495 37.4404C35.1042 37.6131 35.5196 37.6082 35.8702 37.4272C36.2207 37.2462 36.4652 36.9103 36.5298 36.5211L37.226 32.3241L38.9994 31.0093L42.4418 31.4372C42.8453 31.4873 43.2481 31.338 43.5215 31.0369C43.7948 30.7358 43.9046 30.3205 43.8157 29.9236L42.9613 26.1072C43.6312 24.6842 44 23.1497 44 21.5471C44 19.1341 43.1653 16.887 41.7385 14.94L42.236 10.462C42.2819 10.0494 42.1198 9.64092 41.8036 9.3719C41.4874 9.10288 41.0583 9.00841 40.6583 9.11979L36.3346 10.3238C34.5577 9.33659 32.5452 8.56325 30.3745 8.04843L28.1105 4.56836ZM25.0284 9.40127L26.9058 7.30108L28.5555 9.83694C28.7353 10.1133 29.0169 10.3074 29.3392 10.3771C31.6589 10.8786 33.7571 11.6963 35.5307 12.7443C35.8236 12.9173 36.1743 12.9636 36.502 12.8723L39.547 12.0244L39.1984 15.1617C39.162 15.4896 39.2567 15.8187 39.4619 16.0771C40.7852 17.7433 41.5 19.6051 41.5 21.5471C41.5 22.8765 41.1658 24.1619 40.5361 25.372C40.4001 25.6334 40.3608 25.9345 40.4252 26.2221L40.9883 28.7373L38.8112 28.4667C38.4924 28.4271 38.1706 28.5117 37.9125 28.703L35.3311 30.6168C35.0707 30.8099 34.8954 31.0966 34.8424 31.4164L34.3376 34.4594L31.5472 33.1008C31.3345 32.9973 31.0968 32.9562 30.8618 32.9823L26.8618 33.4274C26.497 33.468 26.1684 33.6669 25.9633 33.9713L24.3801 36.3214L22.1965 33.6741C22.0083 33.446 21.7454 33.2919 21.4544 33.2394L17.3881 32.5049C17.0447 32.4429 16.691 32.5272 16.4125 32.7375L10.068 37.5294L13.3832 32.3696C13.5701 32.0787 13.6282 31.7233 13.5436 31.3881C13.459 31.0528 13.2393 30.7676 12.9368 30.6002C12.0288 30.0978 11.2014 29.538 10.4655 28.9319C10.2191 28.729 9.90447 28.628 9.58605 28.6496L6.964 28.8278L7.66396 26.4537C7.75736 26.137 7.72159 25.7961 7.56448 25.5056C6.88884 24.2564 6.52971 22.925 6.52971 21.5471C6.52971 20.3181 6.81528 19.1277 7.35483 18C7.47002 17.7593 7.50513 17.488 7.45501 17.2258L6.79264 13.7608L10.1076 14.0217C10.4123 14.0457 10.7151 13.9572 10.959 13.7731C12.1052 12.9075 13.4448 12.1496 14.9399 11.5347C15.2433 11.4099 15.4855 11.1709 15.6142 10.8691L16.7019 8.31905L19.3779 9.93351C19.6273 10.084 19.9214 10.1426 20.2094 10.0993C21.4337 9.9153 22.707 9.81807 24.0149 9.81807L24.0928 9.81818C24.4499 9.81924 24.7904 9.66751 25.0284 9.40127Z" fill="#212121"/>
</svg>
