<svg width="16" height="16" viewBox="0 0 16 16" fill="none" xmlns="http://www.w3.org/2000/svg">
<path d="M9.12864 1.03443C9.23725 1.04666 9.33387 1.10905 9.38971 1.20301L10.1815 2.53521C10.8698 2.69765 11.5122 2.93477 12.0892 3.23445L13.9084 2.78825C14.0227 2.76023 14.1434 2.79161 14.2295 2.87174C14.3156 2.95187 14.3556 3.06997 14.3359 3.18594L14.0595 4.81072C14.6315 5.53194 14.9678 6.37651 14.9678 7.28639C14.9678 7.91335 14.8079 8.51092 14.52 9.05857L14.8534 10.1192C14.8873 10.2268 14.867 10.3442 14.799 10.4343C14.731 10.5244 14.6237 10.576 14.5109 10.573L13.2967 10.5403C13.0985 10.7062 12.8859 10.8622 12.6604 11.0075L12.5216 12.3793C12.5101 12.4934 12.4433 12.5945 12.343 12.6499C12.2427 12.7053 12.1215 12.7079 12.0189 12.6569L10.5693 11.9368C10.1662 12.0514 9.745 12.1398 9.30976 12.1994L8.52646 13.3136C8.46352 13.4032 8.36225 13.458 8.25288 13.4618C8.14351 13.4656 8.03868 13.4179 7.9697 13.3329L7.08918 12.2485C6.53721 12.1982 6.00487 12.1019 5.50014 11.965L1.55913 14.9299C1.42488 15.0308 1.23775 15.0219 1.1137 14.9086C0.989663 14.7953 0.963881 14.6098 1.05234 14.4669L3.22732 10.9551C3.01309 10.8127 2.81093 10.6604 2.62233 10.499L1.36967 10.5725C1.25239 10.5794 1.13951 10.5268 1.06928 10.4327C0.999047 10.3385 0.980879 10.2153 1.02093 10.1049L1.41994 9.00461C1.14959 8.47169 1.00001 7.89273 1.00001 7.28639C1.00001 6.71473 1.13299 6.16714 1.37502 5.65946L1.00737 3.8971C0.983681 3.78355 1.01793 3.66564 1.09877 3.58244C1.17961 3.49925 1.29648 3.46163 1.41067 3.48205L3.01056 3.76813C3.38406 3.49741 3.79938 3.25817 4.24798 3.05519L4.78325 1.65803C4.82344 1.55315 4.91162 1.47399 5.02022 1.44533C5.12881 1.41666 5.24457 1.44199 5.33128 1.51338L6.41936 2.40919C6.84806 2.33929 7.2916 2.29754 7.74587 2.2867L8.83659 1.14068C8.91195 1.06151 9.02002 1.02219 9.12864 1.03443ZM7.44943 4.89667C7.44943 4.62052 7.22557 4.39667 6.94943 4.39667C6.67328 4.39667 6.44943 4.62052 6.44943 4.89667V8.00002C6.44943 8.27616 6.67328 8.50002 6.94943 8.50002C7.22557 8.50002 7.44943 8.27616 7.44943 8.00002V4.89667ZM9.51833 4.89667C9.51833 4.62052 9.29447 4.39667 9.01833 4.39667C8.74218 4.39667 8.51833 4.62052 8.51833 4.89667V8.00002C8.51833 8.27616 8.74218 8.50002 9.01833 8.50002C9.29447 8.50002 9.51833 8.27616 9.51833 8.00002V4.89667ZM6.93958 10.1684C7.21572 10.1684 7.43958 9.9445 7.43958 9.66835C7.43958 9.39221 7.21572 9.16835 6.93958 9.16835C6.66344 9.16835 6.43958 9.39221 6.43958 9.66835C6.43958 9.9445 6.66344 10.1684 6.93958 10.1684ZM9.52817 9.66835C9.52817 9.39221 9.30432 9.16835 9.02817 9.16835C8.75203 9.16835 8.52817 9.39221 8.52817 9.66835C8.52817 9.9445 8.75203 10.1684 9.02817 10.1684C9.30432 10.1684 9.52817 9.9445 9.52817 9.66835Z" fill="#212121"/>
</svg>
