<svg width="20" height="20" viewBox="0 0 20 20" fill="none" xmlns="http://www.w3.org/2000/svg">
<path d="M9.30673 6.54259C9.30673 6.26662 9.08301 6.04289 8.80703 6.04289C8.53105 6.04289 8.30733 6.26662 8.30733 6.54259V10.0953C8.30733 10.3713 8.53105 10.5951 8.80703 10.5951C9.08301 10.5951 9.30673 10.3713 9.30673 10.0953V6.54259Z" fill="#212121"/>
<path d="M11.6752 6.54259C11.6752 6.26662 11.4515 6.04289 11.1755 6.04289C10.8996 6.04289 10.6758 6.26662 10.6758 6.54259V10.0953C10.6758 10.3713 10.8996 10.5951 11.1755 10.5951C11.4515 10.5951 11.6752 10.3713 11.6752 10.0953V6.54259Z" fill="#212121"/>
<path d="M8.80451 11.9998C9.0806 11.9998 9.30442 11.776 9.30442 11.4999C9.30442 11.2238 9.0806 11 8.80451 11C8.52841 11 8.30459 11.2238 8.30459 11.4999C8.30459 11.776 8.52841 11.9998 8.80451 11.9998Z" fill="#212121"/>
<path d="M11.6954 11.4999C11.6954 11.776 11.4716 11.9998 11.1955 11.9998C10.9194 11.9998 10.6956 11.776 10.6956 11.4999C10.6956 11.2238 10.9194 11 11.1955 11C11.4716 11 11.6954 11.2238 11.6954 11.4999Z" fill="#212121"/>
<path d="M11.648 2.23551C11.5631 2.10508 11.4224 2.02163 11.2672 2.00976C11.1121 1.99789 10.9603 2.05897 10.8566 2.17497L9.81839 3.33633C9.37635 3.34371 8.94295 3.37648 8.52108 3.43272L7.11134 2.5822C6.98747 2.50747 6.8373 2.49009 6.69963 2.53454C6.56197 2.579 6.45033 2.68094 6.39357 2.814L5.81213 4.17706C5.27985 4.4103 4.78698 4.68773 4.34447 5.0037L2.55132 4.86259C2.39595 4.85036 2.24378 4.91132 2.13983 5.02743C2.03587 5.14354 1.99204 5.3015 2.0213 5.45457L2.37924 7.32704C2.14783 7.86001 2.02151 8.42998 2.02151 9.02292C2.02151 9.68149 2.1773 10.3111 2.45926 10.893L2.03281 12.3394C1.98657 12.4963 2.01999 12.6658 2.1223 12.7934C2.22461 12.9209 2.38285 12.9904 2.546 12.9793L4.11659 12.8726C4.28356 13.0021 4.45856 13.1257 4.64089 13.2432L2.07931 17.2301C1.94842 17.4338 1.98243 17.7021 2.16001 17.8667C2.3376 18.0313 2.60766 18.0449 2.80088 17.899L7.39929 14.4258L8.6293 14.648L9.81166 16.0814C9.91199 16.2031 10.0638 16.2702 10.2213 16.2626C10.3788 16.255 10.5235 16.1734 10.6116 16.0427L11.4892 14.7399L12.7145 14.6036L14.302 15.3765C14.4438 15.4455 14.6099 15.4436 14.75 15.3712C14.8901 15.2989 14.9879 15.1646 15.0137 15.009L15.292 13.3312L16.001 12.8056L17.3771 12.9766C17.5384 12.9967 17.6994 12.937 17.8087 12.8166C17.918 12.6962 17.9619 12.5302 17.9263 12.3716L17.5848 10.846C17.8526 10.2772 18.0001 9.66365 18.0001 9.02292C18.0001 8.05825 17.6664 7.15991 17.0959 6.38156L17.2948 4.59156C17.3131 4.42661 17.2484 4.26332 17.122 4.15578C16.9956 4.04824 16.824 4.01047 16.6641 4.055L14.9357 4.53629C14.2254 4.14162 13.4208 3.83246 12.553 3.62666L11.648 2.23551ZM10.4159 4.1675L11.1664 3.32795L11.8259 4.34164C11.8977 4.4521 12.0103 4.52971 12.1391 4.55756C13.0665 4.75805 13.9054 5.08493 14.6144 5.50391C14.7315 5.57309 14.8717 5.59157 15.0027 5.55509L16.2199 5.21614L16.0805 6.47018C16.066 6.60129 16.1038 6.73284 16.1859 6.83614C16.7149 7.50224 17.0007 8.24656 17.0007 9.02292C17.0007 9.55442 16.8671 10.0683 16.6153 10.5521C16.5609 10.6566 16.5452 10.777 16.5709 10.892L16.796 11.8973L15.9257 11.7891C15.7983 11.7733 15.6696 11.8071 15.5665 11.8836L14.5345 12.6487C14.4304 12.7259 14.3603 12.8405 14.3391 12.9683L14.1374 14.1848L13.0218 13.6417C12.9368 13.6003 12.8418 13.5839 12.7478 13.5943L11.1488 13.7723C11.0029 13.7885 10.8716 13.868 10.7896 13.9897L10.1567 14.9291L9.28377 13.8709C9.20856 13.7797 9.10344 13.7181 8.98712 13.6971L7.36158 13.4035C7.2243 13.3787 7.08291 13.4124 6.97159 13.4965L4.43529 15.4121L5.76062 13.3493C5.83534 13.233 5.85855 13.091 5.82473 12.957C5.79091 12.8229 5.70309 12.7089 5.58214 12.642C5.21921 12.4412 4.88846 12.2174 4.59429 11.9751C4.49581 11.894 4.37003 11.8536 4.24273 11.8623L3.19442 11.9335L3.47428 10.9843C3.51161 10.8577 3.49732 10.7214 3.43452 10.6053C3.16446 10.1059 3.02092 9.57374 3.02092 9.02292C3.02092 8.53168 3.13505 8.05586 3.3507 7.6051C3.39674 7.50886 3.41077 7.40042 3.39074 7.29563L3.12592 5.9103L4.4512 6.0146C4.57298 6.02418 4.69406 5.98883 4.79154 5.91521C5.24973 5.56921 5.78522 5.26623 6.38286 5.02042C6.50415 4.97054 6.60096 4.87497 6.65242 4.75434L7.08728 3.73489L8.15702 4.38029C8.25672 4.44044 8.3743 4.46388 8.48944 4.44658C8.9789 4.373 9.48794 4.33412 10.0108 4.33412L10.0419 4.33417C10.1846 4.33459 10.3207 4.27393 10.4159 4.1675Z" fill="#212121"/>
</svg>
