<svg width="28" height="28" viewBox="0 0 28 28" fill="none" xmlns="http://www.w3.org/2000/svg">
<path d="M12.9768 8.74949C12.9768 8.33553 12.6412 7.99994 12.2272 7.99994C11.8133 7.99994 11.4777 8.33553 11.4777 8.74949V14.0786C11.4777 14.4926 11.8133 14.8282 12.2272 14.8282C12.6412 14.8282 12.9768 14.4926 12.9768 14.0786V8.74949Z" fill="#212121"/>
<path d="M16.5295 8.74949C16.5295 8.33553 16.194 7.99994 15.78 7.99994C15.366 7.99994 15.0304 8.33553 15.0304 8.74949V14.0786C15.0304 14.4926 15.366 14.8282 15.78 14.8282C16.194 14.8282 16.5295 14.4926 16.5295 14.0786V8.74949Z" fill="#212121"/>
<path d="M12.2067 17.1104C12.6209 17.1104 12.9566 16.7747 12.9566 16.3605C12.9566 15.9464 12.6209 15.6106 12.2067 15.6106C11.7926 15.6106 11.4569 15.9464 11.4569 16.3605C11.4569 16.7747 11.7926 17.1104 12.2067 17.1104Z" fill="#212121"/>
<path d="M16.5432 16.3605C16.5432 16.7747 16.2074 17.1104 15.7933 17.1104C15.3792 17.1104 15.0434 16.7747 15.0434 16.3605C15.0434 15.9464 15.3792 15.6106 15.7933 15.6106C16.2074 15.6106 16.5432 15.9464 16.5432 16.3605Z" fill="#212121"/>
<path d="M16.472 2.34081C16.3447 2.14518 16.1336 2.01999 15.9008 2.00219C15.6681 1.98439 15.4404 2.076 15.2849 2.25001L13.7276 3.99204C13.0645 4.00311 12.4144 4.05226 11.7816 4.13662L9.66701 2.86085C9.48121 2.74875 9.25594 2.72268 9.04945 2.78936C8.84295 2.85605 8.67549 3.00895 8.59035 3.20855L7.71822 5.25309C6.91975 5.60296 6.18041 6.01911 5.51661 6.4931L2.82698 6.28143C2.59393 6.26309 2.36567 6.35453 2.20974 6.52869C2.05381 6.70285 1.98806 6.9398 2.03195 7.16941L2.56883 9.97795C2.22167 10.7775 2.03217 11.6325 2.03217 12.5219C2.03217 13.5098 2.26587 14.4543 2.68884 15.3272L2.04922 17.4967C1.97985 17.732 2.02999 17.9863 2.18345 18.1776C2.33691 18.369 2.57428 18.4731 2.819 18.4565L5.1748 18.2964C5.42526 18.4907 5.68778 18.6762 5.9613 18.8524L2.11896 24.8327C1.92263 25.1383 1.97364 25.5407 2.24002 25.7876C2.5064 26.0345 2.91149 26.0549 3.20133 25.836L10.0989 20.6263L11.944 20.9596L13.7175 23.1097C13.868 23.2922 14.0958 23.3929 14.332 23.3814C14.5682 23.37 14.7852 23.2477 14.9174 23.0515L16.2338 21.0975L18.0717 20.893L20.453 22.0523C20.6657 22.1559 20.9148 22.1529 21.125 22.0444C21.3352 21.9358 21.4818 21.7344 21.5205 21.501L21.938 18.9843L23.0014 18.1959L25.0656 18.4525C25.3076 18.4826 25.5491 18.393 25.713 18.2125C25.877 18.0319 25.9428 17.7829 25.8895 17.5449L25.3772 15.2565C25.7789 14.4032 26 13.483 26 12.5219C26 11.075 25.4995 9.72751 24.6439 8.56001L24.9422 5.87489C24.9697 5.62747 24.8726 5.38253 24.683 5.22122C24.4933 5.0599 24.236 5.00326 23.9962 5.07004L21.4035 5.79201C20.338 5.20001 19.1312 4.73627 17.8295 4.42756L16.472 2.34081ZM14.6238 5.2388L15.7496 3.97947L16.7388 5.50003C16.8466 5.66573 17.0155 5.78214 17.2087 5.82391C18.5997 6.12466 19.858 6.61497 20.9215 7.24343C21.0971 7.3472 21.3074 7.37492 21.5039 7.3202L23.3298 6.81175L23.1208 8.69293C23.0989 8.88959 23.1557 9.08691 23.2788 9.24186C24.0723 10.241 24.5009 11.3574 24.5009 12.5219C24.5009 13.3191 24.3005 14.09 23.9229 14.8156C23.8413 14.9724 23.8178 15.1529 23.8564 15.3254L24.194 16.8335L22.8886 16.6713C22.6974 16.6475 22.5044 16.6982 22.3497 16.813L20.8017 17.9606C20.6456 18.0764 20.5405 18.2483 20.5087 18.44L20.206 20.2647L18.5328 19.4501C18.4052 19.388 18.2627 19.3634 18.1218 19.379L15.7232 19.6459C15.5044 19.6703 15.3074 19.7895 15.1844 19.9721L14.2351 21.3813L12.9257 19.7938C12.8128 19.657 12.6552 19.5647 12.4807 19.5332L10.0424 19.0927C9.83645 19.0555 9.62436 19.1061 9.45738 19.2322L5.65293 22.1057L7.6409 19.0116C7.75298 18.8371 7.78779 18.6241 7.73706 18.423C7.68634 18.222 7.5546 18.0509 7.37318 17.9505C6.82876 17.6493 6.33261 17.3136 5.89135 16.9502C5.74362 16.8285 5.55495 16.768 5.36401 16.781L3.79163 16.8878L4.21138 15.4641C4.26739 15.2742 4.24594 15.0698 4.15173 14.8956C3.74661 14.1465 3.53127 13.3482 3.53127 12.5219C3.53127 11.785 3.7025 11.0712 4.02601 10.3951C4.09507 10.2507 4.11613 10.088 4.08608 9.93084L3.68888 7.853L5.67671 8.00944C5.85938 8.02382 6.04099 7.97078 6.18722 7.86036C6.87453 7.34134 7.6778 6.88685 8.5743 6.51813C8.75623 6.44331 8.90146 6.29996 8.97864 6.11901L9.63092 4.58989L11.2355 5.55797C11.3851 5.64819 11.5614 5.68336 11.7341 5.6574C12.4683 5.54704 13.2318 5.48873 14.0161 5.48873L14.0628 5.4888C14.2769 5.48943 14.4811 5.39845 14.6238 5.2388Z" fill="#212121"/>
</svg>
