<svg width="437" height="176" viewBox="0 0 437 176" fill="none" xmlns="http://www.w3.org/2000/svg">
<path d="M311.498 1.6843C312.872 1.30054 314.161 1.20459 315.535 1.20459C316.823 1.20459 318.198 1.30053 319.486 1.49242C320.775 1.6843 322.149 2.06806 323.437 2.73965C324.726 3.41124 326.014 4.37065 326.787 6.00165L325.327 5.61788L326.873 4.27471C327.474 3.89094 327.99 3.41124 328.505 3.02747C329.622 2.25994 330.824 1.58836 332.113 1.10865C333.401 0.628946 334.69 0.245183 335.978 0.0533008C337.352 -0.0426403 338.641 -0.042641 340.015 0.341123C340.273 0.437064 340.359 0.724886 340.273 0.916768C340.187 1.20459 340.015 1.30054 339.758 1.20459H339.672C338.555 0.916771 337.267 1.01271 336.064 1.20459C334.861 1.39648 333.659 1.87618 332.542 2.45183C331.426 3.02747 330.395 3.69906 329.364 4.46659C328.849 4.85035 328.333 5.33006 327.904 5.71382L326.53 7.057C326.1 7.44076 325.585 7.34482 325.241 6.96106L325.155 7.057L325.069 6.86512C324.726 5.80976 323.781 4.9463 322.75 4.37065C321.719 3.795 320.517 3.3153 319.228 3.02747C318.026 2.73965 316.738 2.54777 315.449 2.45183C314.161 2.35589 312.872 2.35589 311.756 2.64371H311.67C311.412 2.73965 311.24 2.54777 311.154 2.25994C311.154 1.97212 311.24 1.6843 311.498 1.6843Z" fill="#5C5C5C"/>
<path d="M280.803 27.4637C281.834 27.195 282.8 27.1279 283.831 27.1279C284.797 27.1279 285.828 27.195 286.794 27.3294C287.761 27.4637 288.791 27.7323 289.758 28.2024C290.724 28.6725 291.69 29.3441 292.27 30.4858L291.175 30.2172L292.335 29.277C292.786 29.0083 293.172 28.6725 293.559 28.4039C294.396 27.8666 295.298 27.3965 296.264 27.0607C297.231 26.7249 298.197 26.4563 299.163 26.322C300.194 26.2548 301.16 26.2548 302.191 26.5235C302.384 26.5906 302.449 26.7921 302.384 26.9264C302.32 27.1279 302.191 27.195 301.998 27.1279H301.933C301.096 26.9264 300.13 26.9936 299.228 27.1279C298.326 27.2622 297.424 27.598 296.586 28.0009C295.749 28.4039 294.976 28.874 294.203 29.4113C293.816 29.6799 293.43 30.0157 293.108 30.2843L292.077 31.2246C291.755 31.4932 291.368 31.426 291.111 31.1574L291.046 31.0902L290.982 30.9559C290.724 30.2172 290.015 29.6128 289.242 29.2098C288.469 28.8069 287.567 28.4711 286.601 28.2696C285.699 28.0681 284.733 27.9338 283.766 27.8666C282.8 27.7995 281.834 27.7995 280.996 28.0009H280.932C280.739 28.0681 280.61 27.9338 280.545 27.7323C280.545 27.6652 280.674 27.4637 280.803 27.4637Z" fill="#5C5C5C"/>
<path d="M98.6981 1.6843C100.072 1.30053 101.361 1.20459 102.735 1.20459C104.024 1.20459 105.398 1.30053 106.686 1.49242C107.975 1.6843 109.349 2.06806 110.638 2.73965C111.926 3.41124 113.214 4.37065 113.987 6.00165L112.527 5.61788L114.073 4.27471C114.675 3.89094 115.19 3.41124 115.705 3.02747C116.822 2.25995 118.025 1.58836 119.313 1.10865C120.601 0.628948 121.89 0.245182 123.178 0.0532998C124.553 -0.0426412 125.841 -0.0426383 127.215 0.341126C127.473 0.437067 127.559 0.724889 127.473 0.916771C127.387 1.20459 127.215 1.30053 126.958 1.20459H126.872C125.755 0.91677 124.467 1.01271 123.264 1.20459C122.062 1.39648 120.859 1.87618 119.742 2.45183C118.626 3.02747 117.595 3.69906 116.564 4.46659C116.049 4.85035 115.534 5.33006 115.104 5.71382L113.73 7.057C113.3 7.44076 112.785 7.34482 112.441 6.96106L112.355 6.86511L112.27 6.67323C111.926 5.61788 110.981 4.75441 109.95 4.17877C108.92 3.60312 107.717 3.12341 106.429 2.83559C105.226 2.54777 103.938 2.35589 102.649 2.25995C101.361 2.16401 100.072 2.164 98.9558 2.45183H98.8699C98.6122 2.54777 98.4404 2.35589 98.3545 2.06806C98.3545 1.97212 98.5263 1.6843 98.6981 1.6843Z" fill="#5C5C5C"/>
<path d="M320.243 24.1497C321.618 23.8043 322.906 23.7179 324.281 23.7179C325.569 23.7179 326.943 23.8043 328.232 23.977C329.52 24.1497 330.895 24.495 332.183 25.0995C333.471 25.7039 334.76 26.5674 335.533 28.0353L334.073 27.6899L335.619 26.481C336.22 26.1356 336.735 25.7039 337.251 25.3585C338.367 24.6677 339.57 24.0633 340.858 23.6316C342.147 23.1998 343.435 22.8545 344.724 22.6818C346.098 22.5954 347.386 22.5954 348.761 22.9408C349.019 23.0271 349.104 23.2862 349.018 23.4589C348.933 23.7179 348.761 23.8043 348.503 23.7179H348.417C347.301 23.4589 346.012 23.5452 344.81 23.7179C343.607 23.8906 342.405 24.3224 341.288 24.8404C340.171 25.3585 339.141 25.9629 338.11 26.6537C337.594 26.9991 337.079 27.4308 336.65 27.7762L335.275 28.9851C334.846 29.3305 334.33 29.2441 333.987 28.8987L333.901 28.8124L333.815 28.6397C333.471 27.6899 332.527 26.9128 331.496 26.3947C330.465 25.8766 329.263 25.4449 327.974 25.1858C326.772 24.9268 325.483 24.7541 324.195 24.6677C322.906 24.5814 321.618 24.5814 320.501 24.8404H320.415C320.158 24.9268 319.986 24.7541 319.9 24.495C319.9 24.4087 319.986 24.1497 320.243 24.1497Z" fill="#5C5C5C"/>
<path d="M239.176 42.4993L297.453 87.9337H310.384" stroke="#8C8C8C" stroke-width="5" stroke-miterlimit="10"/>
<path d="M238.243 131.772L297.453 87.9336" stroke="#8C8C8C" stroke-width="5" stroke-miterlimit="10"/>
<g filter="url(#filter0_d_3869_2076)">
<path d="M315.711 79.531L315.395 78.0996C315.395 78.0996 316.611 75.8855 317.221 74.7392C317.91 73.5972 318.548 73.3955 321.463 73.1582C324.382 72.8425 326.601 72.4109 325.612 74.7943C324.544 77.1735 321.559 83.1439 321.559 83.1439L315.711 79.531Z" fill="#484848"/>
</g>
<g filter="url(#filter1_d_3869_2076)">
<path d="M377.15 82.1039L397.494 53.5628C397.919 52.9567 398.569 52.52 399.286 52.3225C400.636 52.0016 402.942 51.4175 405.157 51.0642C408.48 50.5344 412.272 50.0295 410.751 53.5633C409.225 57.1755 399.468 81.3309 399.468 81.3309L377.15 82.1039Z" fill="#484848"/>
</g>
<g filter="url(#filter2_d_3869_2076)">
<path d="M314.482 76.0861C314.717 76.0986 325.048 85.3734 325.048 85.3734L359.831 80.315L379.489 80.8931C379.489 80.8931 396.068 80.3637 401.153 80.6352C406.237 80.9067 413 82.0537 413.591 85.7002C414.181 89.3468 415.626 90.2098 413.434 91.5859C411.322 92.9663 402.932 98.8053 391.364 98.0304C379.795 97.2556 366.097 99.6677 366.097 99.6677C366.097 99.6677 366.02 98.1704 362.265 97.9699C358.511 97.7694 312.122 90.9702 312.122 90.9702C312.122 90.9702 304.448 90.7176 305.321 83.1413C306.273 75.5692 308.846 75.8637 310.493 75.8731C312.222 75.8082 314.482 76.0861 314.482 76.0861Z" fill="url(#paint0_linear_3869_2076)"/>
</g>
<g filter="url(#filter3_d_3869_2076)">
<path d="M312.97 83.8641L320.323 84.2567C320.323 84.2567 315.984 90.6263 314.418 92.0359C312.853 93.4455 309.825 95.7986 306.87 95.3265C303.914 94.8543 304.706 93.2462 305.588 91.4072C306.47 89.5683 307.476 86.8714 307.476 86.8714L312.97 83.8641Z" fill="#6C6C6C"/>
</g>
<g filter="url(#filter4_d_3869_2076)">
<path d="M391.929 96.2529C385.981 94.5207 382.008 93.9943 375.017 95.6642C368.025 97.3342 365.287 98.6811 365.287 98.6811L351.207 122.999C350.341 124.524 351.419 126.389 353.14 126.481C356.585 126.587 361.629 126.149 364.525 123.317C369.164 118.692 391.929 96.2529 391.929 96.2529Z" fill="#6C6C6C"/>
</g>
<path opacity="0.4" d="M422.124 87.4919C422.099 87.9621 422.074 88.4323 422.053 88.8241C421.187 97.7368 416.431 104.556 411.034 104.268C407.045 104.055 403.734 99.9484 402.396 94.1401C401.891 91.8341 401.629 89.3839 401.771 86.7195C401.775 86.6411 401.783 86.4844 401.787 86.406C402.096 80.607 404.009 75.601 406.757 72.6043C408.508 70.6545 410.687 69.5134 412.955 69.6345C413.112 69.6429 413.19 69.647 413.346 69.6554C418.179 70.2278 421.847 76.4749 422.291 84.3573C422.158 85.3719 422.182 86.3948 422.124 87.4919Z" fill="#6C6C6C"/>
<path fill-rule="evenodd" clip-rule="evenodd" d="M390.064 85.7838C390.498 83.7053 391.691 81.2305 393.9 80.2258L394.285 81.0768C392.476 81.9001 391.385 84.0163 390.976 85.9786L390.975 85.9859C390.183 89.5019 390.965 93.2063 392.56 96.4494C392.832 96.9898 393.172 97.5203 393.506 97.8926L393.506 97.9893C393.173 98.1155 392.755 98.0739 392.455 98.0739C392.184 97.7026 391.933 97.2806 391.726 96.8675L391.724 96.8642C390.065 93.4907 389.214 89.5656 390.064 85.7838Z" fill="#8A8A8A"/>
<path d="M359.041 80.4297L358.521 82.8381L364.5 86.9296L376.048 86.6031C377.069 86.579 377.897 85.7588 377.947 84.8184L378.01 83.6429L379.49 80.8928L377.679 79.5387C377 79.031 376.23 78.7541 375.37 78.7082L365.407 78.7263C365.016 78.7054 364.621 78.7629 364.299 78.9029L359.041 80.4297Z" fill="#3A3A3A"/>
<path fill-rule="evenodd" clip-rule="evenodd" d="M373.784 80.7409L378.237 83.2354L377.781 84.0511L373.55 81.681L364.383 81.8853L358.631 83.2923L358.409 82.3844L364.26 80.9532L373.784 80.7409Z" fill="#6C6C6C"/>
<path fill-rule="evenodd" clip-rule="evenodd" d="M374.265 78.7574L373.693 83.6856L374.23 86.553L373.313 86.7253L372.75 83.7185L373.338 78.6495L374.265 78.7574Z" fill="#6C6C6C"/>
<path d="M364.499 86.9297L363.991 83.209L364.203 80.7055L364.459 78.8331" fill="white"/>
<path fill-rule="evenodd" clip-rule="evenodd" d="M364.668 80.757L364.923 78.8966L363.998 78.7695L363.74 80.6539L363.523 83.2211L364.038 86.993L364.963 86.8664L364.461 83.1969L364.668 80.757Z" fill="#6C6C6C"/>
<path opacity="0.6" d="M413.194 69.5688L412.493 82.734L411.32 82.6714L410.471 83.8835L406.679 72.6002C408.43 70.6504 410.608 69.5093 412.877 69.6304C412.959 69.5562 413.115 69.5646 413.194 69.5688Z" fill="#777777"/>
<path opacity="0.6" d="M422.124 87.4919C422.099 87.9621 422.074 88.4323 422.053 88.8241L417.039 88.7135L417.101 87.5381L415.891 86.6876L422.212 84.3531C422.158 85.3719 422.182 86.3948 422.124 87.4919Z" fill="#777777"/>
<path opacity="0.6" d="M410.583 89.1547L402.317 94.1359C401.812 91.8299 401.55 89.3797 401.692 86.7153L409.514 87.133L409.451 88.3084L410.583 89.1547Z" fill="#777777"/>
<path opacity="0.3" d="M364.079 100.739C366.442 100.551 369.201 100.305 369.201 100.305L357.241 120.178L352.77 120.175" fill="#D1D1D1"/>
<path opacity="0.4" d="M382.07 75.1368L386.451 75.3707L399.346 55.6265L396.139 55.4553" fill="#A3A3A3"/>
<path d="M391.818 89.4889C392.12 89.505 392.378 89.2725 392.394 88.9696C392.411 88.6666 392.179 88.4079 391.876 88.3918C391.574 88.3756 391.316 88.6081 391.299 88.9111C391.283 89.2141 391.515 89.4727 391.818 89.4889Z" fill="#8A8A8A"/>
<path d="M392.195 92.7308C392.497 92.747 392.755 92.5145 392.771 92.2115C392.788 91.9086 392.556 91.6499 392.253 91.6337C391.951 91.6176 391.693 91.8501 391.676 92.153C391.66 92.456 391.892 92.7147 392.195 92.7308Z" fill="#8A8A8A"/>
<path d="M393.284 95.8539C393.586 95.87 393.844 95.6375 393.86 95.3346C393.876 95.0316 393.644 94.7729 393.342 94.7568C393.04 94.7406 392.781 94.9731 392.765 95.2761C392.749 95.579 392.981 95.8377 393.284 95.8539Z" fill="#8A8A8A"/>
<path d="M392.31 86.1356C392.612 86.1518 392.871 85.9193 392.887 85.6163C392.903 85.3133 392.671 85.0547 392.368 85.0385C392.066 85.0224 391.808 85.2549 391.792 85.5578C391.776 85.8608 392.008 86.1195 392.31 86.1356Z" fill="#8A8A8A"/>
<path d="M393.958 83.1588C394.261 83.175 394.519 82.9425 394.535 82.6395C394.551 82.3365 394.319 82.0779 394.017 82.0617C393.714 82.0456 393.456 82.2781 393.44 82.581C393.424 82.884 393.656 83.1427 393.958 83.1588Z" fill="#8A8A8A"/>
<path opacity="0.6" d="M410.878 104.259L411.188 91.0729L412.361 91.1356L413.21 89.9235L417.319 101.145C415.564 103.173 413.464 104.319 411.27 104.28C411.113 104.272 411.035 104.267 410.878 104.259Z" fill="#777777"/>
<path d="M411.321 82.6711C410.497 83.413 407.419 88.1996 411.162 93.0361C415.185 91.1291 418.006 89.708 417.893 87.4229C417.861 85.0636 411.321 82.6711 411.321 82.6711Z" fill="#8A8A8A"/>
<path d="M235.325 151.867H62.4364C59.344 151.867 56.814 149.332 56.814 146.234V29.7271C56.814 26.629 59.344 24.0942 62.4364 24.0942H235.325C238.417 24.0942 240.948 26.629 240.948 29.7271V146.14C241.041 149.332 238.511 151.867 235.325 151.867Z" fill="url(#paint1_linear_3869_2076)"/>
<g filter="url(#filter5_d_3869_2076)">
<path d="M65.9046 72.5703C65.9046 77.8385 61.6521 82.099 56.3479 82.099C56.2565 82.099 55.4791 82.099 49.7634 82.099C45.7853 82.099 39.4294 82.099 29.2783 82.099H24.4314C18.0755 82.2364 13 77.1514 13 71.0127C13 64.8282 18.1213 59.6974 24.5686 60.0181C30.1014 42.7015 55.4334 45.1295 57.5825 63.0416C62.338 63.6371 65.9046 67.6685 65.9046 72.5703Z" fill="#424242"/>
</g>
<path d="M40.7555 82.1905C50.1293 82.1905 57.7655 74.5859 57.7655 65.1946C57.7655 55.8034 50.1293 48.1987 40.7555 48.1987C31.3818 48.1987 23.7456 55.8034 23.7456 65.1946C23.7456 74.5859 31.3361 82.1905 40.7555 82.1905Z" fill="url(#paint2_linear_3869_2076)"/>
<path d="M56.3482 82.0989C61.6066 82.0989 65.9048 77.8385 65.9048 72.5702C65.9048 67.3019 61.6066 63.0415 56.3482 63.0415C51.0897 63.0415 46.7915 67.3019 46.7915 72.5702C46.7915 77.8385 51.0897 82.0989 56.3482 82.0989Z" fill="url(#paint3_linear_3869_2076)"/>
<g filter="url(#filter6_d_3869_2076)">
<path d="M337.629 121.374C337.629 126.018 333.88 129.774 329.204 129.774C329.123 129.774 328.438 129.774 323.399 129.774C319.891 129.774 314.288 129.774 305.338 129.774H301.065C295.462 129.896 290.987 125.412 290.987 120C290.987 114.548 295.502 110.024 301.186 110.307C306.064 95.0402 328.398 97.1808 330.292 112.973C334.485 113.498 337.629 117.052 337.629 121.374Z" fill="#424242"/>
</g>
<path d="M315.457 129.855C323.721 129.855 330.454 123.151 330.454 114.871C330.454 106.591 323.721 99.8867 315.457 99.8867C307.193 99.8867 300.46 106.591 300.46 114.871C300.46 123.151 307.152 129.855 315.457 129.855Z" fill="url(#paint4_linear_3869_2076)"/>
<path d="M329.205 129.774C333.841 129.774 337.63 126.018 337.63 121.373C337.63 116.729 333.841 112.973 329.205 112.973C324.569 112.973 320.779 116.729 320.779 121.373C320.779 126.018 324.569 129.774 329.205 129.774Z" fill="url(#paint5_linear_3869_2076)"/>
<g filter="url(#filter7_d_3869_2076)">
<path d="M397.333 145.893C397.333 149.238 394.633 151.942 391.266 151.942C391.208 151.942 390.715 151.942 387.087 151.942C384.561 151.942 380.527 151.942 374.083 151.942H371.006C366.972 152.029 363.75 148.801 363.75 144.905C363.75 140.979 367.001 137.722 371.093 137.926C374.606 126.933 390.686 128.475 392.05 139.845C395.069 140.223 397.333 142.782 397.333 145.893Z" fill="#424242"/>
</g>
<path d="M381.369 152C387.32 152 392.167 147.173 392.167 141.211C392.167 135.25 387.32 130.423 381.369 130.423C375.419 130.423 370.572 135.25 370.572 141.211C370.572 147.173 375.39 152 381.369 152Z" fill="url(#paint6_linear_3869_2076)"/>
<path d="M391.267 151.942C394.605 151.942 397.333 149.237 397.333 145.893C397.333 142.549 394.605 139.845 391.267 139.845C387.929 139.845 385.201 142.549 385.201 145.893C385.201 149.237 387.929 151.942 391.267 151.942Z" fill="url(#paint7_linear_3869_2076)"/>
<path d="M240.977 39.5936H56.8438V29.8895C56.8438 26.5952 59.3738 23.8999 62.4662 23.8999H235.355C238.447 23.8999 240.977 26.5952 240.977 29.8895V39.5936Z" fill="#3A3A3A"/>
<path d="M65.7199 34.6175C67.2208 34.6175 68.4374 33.3986 68.4374 31.8949C68.4374 30.3913 67.2208 29.1724 65.7199 29.1724C64.2191 29.1724 63.0024 30.3913 63.0024 31.8949C63.0024 33.3986 64.2191 34.6175 65.7199 34.6175Z" fill="#CCCCCC"/>
<path d="M73.966 34.6175C75.4669 34.6175 76.6835 33.3986 76.6835 31.8949C76.6835 30.3913 75.4669 29.1724 73.966 29.1724C72.4652 29.1724 71.2485 30.3913 71.2485 31.8949C71.2485 33.3986 72.4652 34.6175 73.966 34.6175Z" fill="#505050"/>
<path d="M82.2126 34.6175C83.7134 34.6175 84.9301 33.3986 84.9301 31.8949C84.9301 30.3913 83.7134 29.1724 82.2126 29.1724C80.7118 29.1724 79.4951 30.3913 79.4951 31.8949C79.4951 33.3986 80.7118 34.6175 82.2126 34.6175Z" fill="#484848"/>
<defs>
<filter id="filter0_d_3869_2076" x="300.396" y="62.9087" width="30.4551" height="30.2354" filterUnits="userSpaceOnUse" color-interpolation-filters="sRGB">
<feFlood flood-opacity="0" result="BackgroundImageFix"/>
<feColorMatrix in="SourceAlpha" type="matrix" values="0 0 0 0 0 0 0 0 0 0 0 0 0 0 0 0 0 0 127 0" result="hardAlpha"/>
<feOffset dx="-5"/>
<feGaussianBlur stdDeviation="5"/>
<feColorMatrix type="matrix" values="0 0 0 0 0.397708 0 0 0 0 0.47749 0 0 0 0 0.575 0 0 0 0.2 0"/>
<feBlend mode="normal" in2="BackgroundImageFix" result="effect1_dropShadow_3869_2076"/>
<feBlend mode="normal" in="SourceGraphic" in2="effect1_dropShadow_3869_2076" result="shape"/>
</filter>
<filter id="filter1_d_3869_2076" x="355.15" y="39.689" width="77.9468" height="75.415" filterUnits="userSpaceOnUse" color-interpolation-filters="sRGB">
<feFlood flood-opacity="0" result="BackgroundImageFix"/>
<feColorMatrix in="SourceAlpha" type="matrix" values="0 0 0 0 0 0 0 0 0 0 0 0 0 0 0 0 0 0 127 0" result="hardAlpha"/>
<feOffset dy="11"/>
<feGaussianBlur stdDeviation="11"/>
<feColorMatrix type="matrix" values="0 0 0 0 0 0 0 0 0 0 0 0 0 0 0 0 0 0 0.27 0"/>
<feBlend mode="normal" in2="BackgroundImageFix" result="effect1_dropShadow_3869_2076"/>
<feBlend mode="normal" in="SourceGraphic" in2="effect1_dropShadow_3869_2076" result="shape"/>
</filter>
<filter id="filter2_d_3869_2076" x="283.252" y="64.8633" width="153.354" height="67.8044" filterUnits="userSpaceOnUse" color-interpolation-filters="sRGB">
<feFlood flood-opacity="0" result="BackgroundImageFix"/>
<feColorMatrix in="SourceAlpha" type="matrix" values="0 0 0 0 0 0 0 0 0 0 0 0 0 0 0 0 0 0 127 0" result="hardAlpha"/>
<feOffset dy="11"/>
<feGaussianBlur stdDeviation="11"/>
<feColorMatrix type="matrix" values="0 0 0 0 0 0 0 0 0 0 0 0 0 0 0 0 0 0 0.27 0"/>
<feBlend mode="normal" in2="BackgroundImageFix" result="effect1_dropShadow_3869_2076"/>
<feBlend mode="normal" in="SourceGraphic" in2="effect1_dropShadow_3869_2076" result="shape"/>
</filter>
<filter id="filter3_d_3869_2076" x="289.784" y="73.864" width="35.5391" height="31.5239" filterUnits="userSpaceOnUse" color-interpolation-filters="sRGB">
<feFlood flood-opacity="0" result="BackgroundImageFix"/>
<feColorMatrix in="SourceAlpha" type="matrix" values="0 0 0 0 0 0 0 0 0 0 0 0 0 0 0 0 0 0 127 0" result="hardAlpha"/>
<feOffset dx="-5"/>
<feGaussianBlur stdDeviation="5"/>
<feColorMatrix type="matrix" values="0 0 0 0 0.397708 0 0 0 0 0.47749 0 0 0 0 0.575 0 0 0 0.2 0"/>
<feBlend mode="normal" in2="BackgroundImageFix" result="effect1_dropShadow_3869_2076"/>
<feBlend mode="normal" in="SourceGraphic" in2="effect1_dropShadow_3869_2076" result="shape"/>
</filter>
<filter id="filter4_d_3869_2076" x="328.901" y="83.6489" width="85.0273" height="75.8462" filterUnits="userSpaceOnUse" color-interpolation-filters="sRGB">
<feFlood flood-opacity="0" result="BackgroundImageFix"/>
<feColorMatrix in="SourceAlpha" type="matrix" values="0 0 0 0 0 0 0 0 0 0 0 0 0 0 0 0 0 0 127 0" result="hardAlpha"/>
<feOffset dy="11"/>
<feGaussianBlur stdDeviation="11"/>
<feColorMatrix type="matrix" values="0 0 0 0 0 0 0 0 0 0 0 0 0 0 0 0 0 0 0.27 0"/>
<feBlend mode="normal" in2="BackgroundImageFix" result="effect1_dropShadow_3869_2076"/>
<feBlend mode="normal" in="SourceGraphic" in2="effect1_dropShadow_3869_2076" result="shape"/>
</filter>
<filter id="filter5_d_3869_2076" x="0" y="46.2402" width="78.9048" height="59.8613" filterUnits="userSpaceOnUse" color-interpolation-filters="sRGB">
<feFlood flood-opacity="0" result="BackgroundImageFix"/>
<feColorMatrix in="SourceAlpha" type="matrix" values="0 0 0 0 0 0 0 0 0 0 0 0 0 0 0 0 0 0 127 0" result="hardAlpha"/>
<feOffset dy="11"/>
<feGaussianBlur stdDeviation="6.5"/>
<feColorMatrix type="matrix" values="0 0 0 0 0 0 0 0 0 0 0 0 0 0 0 0 0 0 0.22 0"/>
<feBlend mode="normal" in2="BackgroundImageFix" result="effect1_dropShadow_3869_2076"/>
<feBlend mode="normal" in="SourceGraphic" in2="effect1_dropShadow_3869_2076" result="shape"/>
</filter>
<filter id="filter6_d_3869_2076" x="277.987" y="97.9233" width="72.6426" height="55.8535" filterUnits="userSpaceOnUse" color-interpolation-filters="sRGB">
<feFlood flood-opacity="0" result="BackgroundImageFix"/>
<feColorMatrix in="SourceAlpha" type="matrix" values="0 0 0 0 0 0 0 0 0 0 0 0 0 0 0 0 0 0 127 0" result="hardAlpha"/>
<feOffset dy="11"/>
<feGaussianBlur stdDeviation="6.5"/>
<feColorMatrix type="matrix" values="0 0 0 0 0 0 0 0 0 0 0 0 0 0 0 0 0 0 0.22 0"/>
<feBlend mode="normal" in2="BackgroundImageFix" result="effect1_dropShadow_3869_2076"/>
<feBlend mode="normal" in="SourceGraphic" in2="effect1_dropShadow_3869_2076" result="shape"/>
</filter>
<filter id="filter7_d_3869_2076" x="350.75" y="128.449" width="59.5825" height="47.4944" filterUnits="userSpaceOnUse" color-interpolation-filters="sRGB">
<feFlood flood-opacity="0" result="BackgroundImageFix"/>
<feColorMatrix in="SourceAlpha" type="matrix" values="0 0 0 0 0 0 0 0 0 0 0 0 0 0 0 0 0 0 127 0" result="hardAlpha"/>
<feOffset dy="11"/>
<feGaussianBlur stdDeviation="6.5"/>
<feColorMatrix type="matrix" values="0 0 0 0 0 0 0 0 0 0 0 0 0 0 0 0 0 0 0.22 0"/>
<feBlend mode="normal" in2="BackgroundImageFix" result="effect1_dropShadow_3869_2076"/>
<feBlend mode="normal" in="SourceGraphic" in2="effect1_dropShadow_3869_2076" result="shape"/>
</filter>
<linearGradient id="paint0_linear_3869_2076" x1="360.375" y1="77.9744" x2="359.225" y2="99.5261" gradientUnits="userSpaceOnUse">
<stop stop-color="#6C6C6C"/>
<stop offset="0.9964" stop-color="#3B3B3B"/>
</linearGradient>
<linearGradient id="paint1_linear_3869_2076" x1="148.822" y1="21.1387" x2="148.822" y2="153.244" gradientUnits="userSpaceOnUse">
<stop stop-color="#5C5C5C"/>
<stop offset="0.9964" stop-color="#4D4D4D"/>
</linearGradient>
<linearGradient id="paint2_linear_3869_2076" x1="27.8912" y1="55.259" x2="33.5953" y2="59.6595" gradientUnits="userSpaceOnUse">
<stop stop-color="#686868"/>
<stop offset="0.9942" stop-color="#424242"/>
</linearGradient>
<linearGradient id="paint3_linear_3869_2076" x1="49.1206" y1="66.9998" x2="52.3203" y2="69.4735" gradientUnits="userSpaceOnUse">
<stop stop-color="#686868"/>
<stop offset="0.9942" stop-color="#424242"/>
</linearGradient>
<linearGradient id="paint4_linear_3869_2076" x1="304.115" y1="106.111" x2="309.144" y2="109.991" gradientUnits="userSpaceOnUse">
<stop stop-color="#686868"/>
<stop offset="0.9942" stop-color="#424242"/>
</linearGradient>
<linearGradient id="paint5_linear_3869_2076" x1="322.833" y1="116.462" x2="325.654" y2="118.643" gradientUnits="userSpaceOnUse">
<stop stop-color="#686868"/>
<stop offset="0.9942" stop-color="#424242"/>
</linearGradient>
<linearGradient id="paint6_linear_3869_2076" x1="373.203" y1="134.905" x2="376.824" y2="137.698" gradientUnits="userSpaceOnUse">
<stop stop-color="#686868"/>
<stop offset="0.9942" stop-color="#424242"/>
</linearGradient>
<linearGradient id="paint7_linear_3869_2076" x1="386.679" y1="142.357" x2="388.71" y2="143.928" gradientUnits="userSpaceOnUse">
<stop stop-color="#686868"/>
<stop offset="0.9942" stop-color="#424242"/>
</linearGradient>
</defs>
</svg>
