<svg xmlns="http://www.w3.org/2000/svg" width="424" height="160" fill="none" viewBox="0 0 424 160">
  <path fill="#E8DFD3" d="M306.24 1.685c1.378-.384 2.669-.48 4.047-.48 1.291 0 2.668.096 3.96.288 1.291.192 2.669.5759 3.96 1.2477 1.291.672 2.583 1.6317 3.357 3.2634l-1.463-.384 1.55-1.3437c.602-.3839 1.119-.8638 1.635-1.2477 1.119-.7679 2.325-1.4397 3.616-1.9196s2.583-.8638 3.874-1.0558c1.378-.096 2.669-.096 4.046.288.259.096.345.3839.259.5758-.086.288-.259.384-.517.288h-.086c-1.119-.288-2.411-.192-3.616 0s-2.41.6718-3.529 1.2477c-1.12.5759-2.153 1.2477-3.186 2.0156-.516.3839-1.033.8638-1.463 1.2477l-1.378 1.3437c-.43.384-.947.288-1.291-.096l-.086.096-.086-.192c-.345-1.0557-1.292-1.9195-2.325-2.4954-1.033-.5759-2.238-1.0558-3.53-1.3437-1.205-.288-2.496-.48-3.787-.5759-1.292-.096-2.583-.096-3.702.192h-.086c-.259.096-.431-.096-.517-.384 0-.2879.086-.5758.344-.5758ZM275.477 27.4748c1.033-.2688 2.001-.336 3.034-.336.969 0 2.002.0672 2.97.2016.969.1344 2.002.4031 2.97.8734.969.4703 1.937 1.1422 2.519 2.2843l-1.098-.2687 1.162-.9406c.452-.2688.84-.6047 1.227-.8734.839-.5375 1.743-1.0078 2.712-1.3437.968-.336 1.937-.6047 2.905-.7391 1.033-.0672 2.002-.0672 3.035.2016.194.0672.258.2687.194.4031-.065.2015-.194.2687-.388.2015h-.064c-.84-.2015-1.808-.1343-2.712 0-.904.1344-1.808.4703-2.647.8735-.84.4031-1.615.8734-2.389 1.4109-.388.2687-.775.6046-1.098.8734l-1.033.9406c-.323.2687-.71.2015-.969-.0672l-.064-.0672-.065-.1344c-.258-.739-.968-1.3437-1.743-1.7468-.775-.4031-1.679-.739-2.647-.9406-.904-.2016-1.873-.3359-2.841-.4031-.969-.0672-1.937-.0672-2.777.1344h-.064c-.194.0671-.323-.0672-.388-.2688 0-.0672.129-.2687.259-.2687ZM92.9567 1.685c1.3774-.384 2.6688-.48 4.0462-.48 1.2914 0 2.6688.096 3.9601.288 1.291.192 2.669.5759 3.96 1.2477 1.292.672 2.583 1.6317 3.358 3.2634l-1.464-.384 1.55-1.3437c.602-.3839 1.119-.8638 1.636-1.2477 1.119-.7679 2.324-1.4397 3.615-1.9196 1.292-.4799 2.583-.8638 3.874-1.0558 1.378-.096 2.669-.096 4.047.288.258.096.344.3839.258.5758-.086.288-.258.384-.517.288h-.086c-1.119-.288-2.41-.192-3.615 0-1.206.192-2.411.6718-3.53 1.2477-1.119.5759-2.152 1.2477-3.186 2.0156-.516.3839-1.033.8638-1.463 1.2477l-1.378 1.3437c-.43.384-.947.288-1.291-.096l-.086-.096-.086-.1919c-.344-1.0558-1.291-1.9196-2.324-2.4954a13.248 13.248 0 0 0-3.53-1.3438c-1.2055-.288-2.4968-.4799-3.7882-.5758-1.2913-.096-2.5827-.096-3.7019.192h-.0861c-.2582.0959-.4304-.096-.5165-.384 0-.096.1722-.384.3444-.384ZM315.005 24.1595c1.378-.3455 2.669-.4319 4.047-.4319 1.291 0 2.669.0864 3.96.2592 1.291.1727 2.669.5183 3.96 1.1229 1.291.6047 2.583 1.4685 3.358 2.937l-1.464-.3455 1.55-1.2094c.602-.3455 1.119-.7774 1.635-1.1229 1.12-.6911 2.325-1.2957 3.616-1.7276 1.292-.432 2.583-.7775 3.874-.9502 1.378-.0864 2.669-.0864 4.047.2591.258.0864.344.3455.258.5183-.086.2591-.258.3455-.517.2591h-.086c-1.119-.2591-2.41-.1727-3.616 0-1.205.1728-2.41.6047-3.529 1.123-1.12.5183-2.153 1.123-3.186 1.814-.516.3455-1.033.7774-1.463 1.123l-1.378 1.2093c-.43.3455-.947.2592-1.291-.0864l-.086-.0863-.086-.1728c-.345-.9502-1.292-1.7276-2.325-2.2459-1.033-.5183-2.238-.9502-3.529-1.2094-1.206-.2591-2.497-.4319-3.788-.5183-1.292-.0863-2.583-.0863-3.702.1728h-.086c-.259.0864-.431-.0864-.517-.3455 0-.0864.086-.3456.344-.3456Z"/>
  <path stroke="#E4E0DA" stroke-miterlimit="10" stroke-width="6" d="m233.753 42.5164 58.41 45.4526h12.961M232.818 131.825l59.345-43.8559"/>
  <path fill="url(#paint0_linear_3869_2050)" d="m310.463 79.5627-.316-1.432s1.218-2.215 1.83-3.3617c.69-1.1426 1.329-1.3443 4.251-1.5817 2.926-.3158 5.15-.7476 4.158 1.6367-1.07 2.3802-4.062 8.353-4.062 8.353l-5.861-3.6143Z"/>
  <path fill="url(#paint1_linear_3869_2050)" d="m372.043 82.1369 20.39-28.5527c.425-.6062 1.077-1.0432 1.796-1.2408 1.353-.3209 3.664-.9053 5.884-1.2587 3.331-.5301 7.131-1.0351 5.606 2.5001-1.529 3.6136-11.307 27.7787-11.307 27.7787l-22.369.7734Z"/>
  <path fill="url(#paint2_linear_3869_2050)" d="M309.232 76.1165c.236.0126 10.591 9.2911 10.591 9.2911l34.862-5.0604 19.702.5783s16.617-.5295 21.713-.258c5.095.2716 11.874 1.4191 12.466 5.0671.592 3.648 2.039 4.5113-.157 5.8881-2.117 1.3809-10.526 7.2222-22.121 6.447-11.594-.7751-25.324 1.6379-25.324 1.6379s-.077-1.4979-3.84-1.6984c-3.763-.2006-50.257-7.0025-50.257-7.0025s-7.692-.2527-6.816-7.8321c.954-7.5752 3.533-7.2805 5.183-7.2711 1.733-.0649 3.998.213 3.998.213Z"/>
  <path fill="url(#paint3_linear_3869_2050)" d="m307.717 83.8976 7.369.3927s-4.349 6.3722-5.918 7.7824c-1.569 1.4101-4.603 3.7642-7.566 3.2919-2.962-.4724-2.169-2.0811-1.285-3.9208.885-1.8398 1.893-4.5377 1.893-4.5377l5.507-3.0085Z"/>
  <path fill="url(#paint4_linear_3869_2050)" d="M386.854 96.2915c-5.961-1.7328-9.942-2.2595-16.95-.5888-7.007 1.6706-9.752 3.018-9.752 3.018L346.04 123.048c-.867 1.526.213 3.392 1.937 3.484 3.454.105 8.509-.333 11.412-3.166 4.649-4.626 27.465-27.0745 27.465-27.0745Z"/>
  <path fill="#EDE5DA" d="M417.118 87.5269c-.025.4704-.05.9407-.071 1.3327-.868 8.9163-5.634 15.7384-11.044 15.4494-3.998-.213-7.317-4.3206-8.658-10.1313-.506-2.3069-.768-4.7581-.626-7.4236l.016-.3135c.31-5.8014 2.227-10.8094 4.982-13.8073 1.755-1.9506 3.938-3.0921 6.212-2.971l.392.0209c4.843.5726 8.52 6.8222 8.964 14.7078-.132 1.015-.108 2.0383-.167 3.1359Z" opacity=".4"/>
  <path fill="#B7B4AF" fill-rule="evenodd" d="M384.985 85.8181c.435-2.0794 1.631-4.5552 3.844-5.5602l.387.8513c-1.814.8237-2.907 2.9407-3.317 4.9037l-.001.0073c-.794 3.5175-.01 7.2234 1.589 10.4678.272.5406.613 1.0713.948 1.4438v.0967c-.334.1263-.752.0846-1.054.0846-.271-.3714-.522-.7936-.73-1.2068l-.002-.0033c-1.663-3.3749-2.516-7.3016-1.664-11.0849Z" clip-rule="evenodd"/>
  <path fill="#777" d="m353.892 80.462-.522 2.4094 5.993 4.0931 11.574-.3266c1.024-.0241 1.854-.8447 1.904-1.7854l.062-1.176 1.484-2.7512-1.815-1.3546c-.681-.508-1.452-.785-2.314-.8309l-9.986.0181c-.392-.0209-.788.0366-1.11.1767l-5.27 1.5274Z"/>
  <path fill="#B7B4AF" fill-rule="evenodd" d="m368.669 80.7731 4.463 2.4955-.456.816-4.241-2.3711-9.188.2044-5.766 1.4077-.221-.9083 5.864-1.4318 9.545-.2124Z" clip-rule="evenodd"/>
  <path fill="#B7B4AF" fill-rule="evenodd" d="m369.15 78.7888-.573 4.9302.538 2.8686-.919.1723-.564-3.0079.589-5.0711.929.1079Z" clip-rule="evenodd"/>
  <path fill="#fff" d="m359.363 86.9645-.509-3.7223.212-2.5045.257-1.8731"/>
  <path fill="#B7B4AF" fill-rule="evenodd" d="m359.531 80.7893.255-1.8612-.926-.1271-.259 1.8852-.217 2.5681.516 3.7735.926-.1267-.502-3.671.207-2.4408Z" clip-rule="evenodd"/>
  <path fill="#fff" d="m408.168 69.5965-.702 13.1706-1.176-.0627-.851 1.2125-3.801-11.2878c1.755-1.9506 3.939-3.0921 6.212-2.9709.083-.0743.24-.0659.318-.0617ZM417.118 87.527c-.025.4704-.05.9407-.071 1.3327l-5.025-.1106.062-1.1759-1.212-.8508 6.335-2.3354c-.054 1.0191-.03 2.0424-.089 3.14ZM405.551 89.1903l-8.284 4.9831c-.506-2.3069-.769-4.758-.627-7.4235l7.84.4178-.063 1.1759 1.134.8467Z" opacity=".6"/>
  <path fill="#D0C6B8" d="M358.941 100.779c2.369-.188 5.134-.434 5.134-.434l-11.988 19.881-4.481-.003M376.974 75.1667l4.39.234 12.924-19.7521-3.214-.1713" opacity=".3"/>
  <path fill="#777" d="M386.743 89.5245a.5496.5496 0 0 0 .578-.5195.5492.5492 0 1 0-1.097-.0585.5493.5493 0 0 0 .519.578ZM387.121 92.7679a.5494.5494 0 1 0 .058-1.0975.5494.5494 0 1 0-.058 1.0975ZM388.212 95.8922a.549.549 0 0 0 .578-.5196c.017-.303-.216-.5618-.519-.578a.5496.5496 0 0 0-.578.5196.5493.5493 0 0 0 .519.578ZM387.237 86.17a.5494.5494 0 1 0 .058-1.0975.5494.5494 0 1 0-.058 1.0975ZM388.889 83.1919a.5496.5496 0 0 0 .578-.5196.5493.5493 0 1 0-1.097-.0585.5494.5494 0 0 0 .519.5781Z"/>
  <path fill="#fff" d="m405.846 104.301.31-13.1917 1.176.0627.851-1.2126 4.119 11.2266c-1.759 2.029-3.864 3.174-6.064 3.136-.156-.009-.235-.013-.392-.021Z" opacity=".6"/>
  <path fill="#777" d="M406.29 82.7043c-.826.7422-3.912 5.5308-.16 10.3692 4.033-1.9078 6.86-3.3294 6.746-5.6155-.031-2.3602-6.586-4.7537-6.586-4.7537Z"/>
  <g filter="url(#filter0_d_3869_2050)">
    <path fill="url(#paint5_linear_3869_2050)" d="M229.895 151.928H56.6137c-3.0994 0-5.6352-2.536-5.6352-5.635V29.739c0-3.0993 2.5358-5.6351 5.6352-5.6351H229.895c3.099 0 5.635 2.5358 5.635 5.6351v116.46c.094 3.193-2.442 5.729-5.635 5.729Z"/>
  </g>
  <g filter="url(#filter1_d_3869_2050)">
    <path fill="url(#paint6_linear_3869_2050)" d="M60.3581 72.2934c0 5.2041-4.2085 9.4127-9.4579 9.4127H19.3133C13.0231 81.8419 8 76.8187 8 70.7548c0-6.1092 5.0684-11.1776 11.4491-10.8608 5.4757-17.1058 30.546-14.7074 32.6729 2.9867 4.7064.5883 8.2361 4.5706 8.2361 9.4127Z"/>
  </g>
  <path fill="url(#paint7_linear_3869_2050)" d="M50.8998 81.7061c5.2042 0 9.458-4.2085 9.458-9.4127 0-5.2041-4.2538-9.4127-9.458-9.4127-5.2041 0-9.4579 4.2086-9.4579 9.4127 0 5.2042 4.2538 9.4127 9.4579 9.4127Z"/>
  <path fill="url(#paint8_linear_3869_2050)" d="M35.469 81.7967c9.277 0 16.8343-7.512 16.8343-16.789 0-9.2769-7.5573-16.7889-16.8343-16.7889-9.2769 0-16.8342 7.512-16.8342 16.7889 0 9.277 7.512 16.789 16.8342 16.789Z"/>
  <g filter="url(#filter2_d_3869_2050)">
    <path fill="url(#paint9_linear_3869_2050)" d="M333.368 121.066c0 4.646-3.757 8.404-8.444 8.404H296.721c-5.616.121-10.101-4.364-10.101-9.778 0-5.455 4.525-9.98 10.223-9.697 4.889-15.2733 27.273-13.1318 29.172 2.666 4.202.526 7.353 4.081 7.353 8.405Z"/>
  </g>
  <path fill="url(#paint10_linear_3869_2050)" d="M324.924 129.47c4.646 0 8.444-3.758 8.444-8.404 0-4.647-3.798-8.404-8.444-8.404-4.647 0-8.445 3.757-8.445 8.404 0 4.646 3.798 8.404 8.445 8.404Z"/>
  <path fill="url(#paint11_linear_3869_2050)" d="M311.146 129.551c8.283 0 15.03-6.707 15.03-14.99 0-8.283-6.747-14.9904-15.03-14.9904s-15.031 6.7074-15.031 14.9904 6.707 14.99 15.031 14.99Z"/>
  <g filter="url(#filter3_d_3869_2050)">
    <path fill="url(#paint12_linear_3869_2050)" d="M393.079 145.914c0 3.333-2.695 6.028-6.057 6.028h-20.229c-4.029.087-7.246-3.13-7.246-7.014 0-3.912 3.246-7.158 7.333-6.955 3.506-10.955 19.562-9.419 20.924 1.913 3.014.376 5.275 2.927 5.275 6.028Z"/>
  </g>
  <path fill="url(#paint13_linear_3869_2050)" d="M387.021 151.942c3.333 0 6.058-2.695 6.058-6.028 0-3.333-2.725-6.028-6.058-6.028-3.332 0-6.057 2.695-6.057 6.028 0 3.333 2.725 6.028 6.057 6.028Z"/>
  <path fill="url(#paint14_linear_3869_2050)" d="M377.139 152c5.941 0 10.781-4.811 10.781-10.752 0-5.941-4.84-10.752-10.781-10.752-5.941 0-10.781 4.811-10.781 10.752 0 5.941 4.811 10.752 10.781 10.752Z"/>
  <path fill="url(#paint15_linear_3869_2050)" d="M235.56 39.6094H51.0083v-9.708c0-3.2956 2.5358-5.992 5.6352-5.992H229.924c3.1 0 5.636 2.6964 5.636 5.992v9.708Z"/>
  <path fill="#F4F1EA" d="M59.9048 34.6313c1.5042 0 2.7237-1.2194 2.7237-2.7237 0-1.5042-1.2195-2.7236-2.7237-2.7236s-2.7236 1.2194-2.7236 2.7236c0 1.5043 1.2194 2.7237 2.7236 2.7237Z"/>
  <path fill="#BAB7B4" d="M68.1699 34.6313c1.5043 0 2.7237-1.2194 2.7237-2.7237 0-1.5042-1.2194-2.7236-2.7237-2.7236-1.5042 0-2.7236 1.2194-2.7236 2.7236 0 1.5043 1.2194 2.7237 2.7236 2.7237Z"/>
  <path fill="#949390" d="M76.4346 34.6313c1.5042 0 2.7237-1.2194 2.7237-2.7237 0-1.5042-1.2195-2.7236-2.7237-2.7236s-2.7237 1.2194-2.7237 2.7236c0 1.5043 1.2195 2.7237 2.7237 2.7237Z"/>
  <defs>
    <linearGradient id="paint0_linear_3869_2050" x1="313.948" x2="320.14" y1="74.9035" y2="76.6461" gradientUnits="userSpaceOnUse">
      <stop stop-color="#EFE5D8"/>
      <stop offset="1" stop-color="#D0BDA6"/>
    </linearGradient>
    <linearGradient id="paint1_linear_3869_2050" x1="384.869" x2="404.471" y1="56.8589" y2="62.3413" gradientUnits="userSpaceOnUse">
      <stop stop-color="#EFE5D8"/>
      <stop offset="1" stop-color="#D0BDA6"/>
    </linearGradient>
    <linearGradient id="paint2_linear_3869_2050" x1="338.99" x2="366.144" y1="82.1442" y2="118.418" gradientUnits="userSpaceOnUse">
      <stop stop-color="#F0E8DD"/>
      <stop offset="1" stop-color="#D8CABA"/>
    </linearGradient>
    <linearGradient id="paint3_linear_3869_2050" x1="305.241" x2="314.028" y1="86.3205" y2="89.3886" gradientUnits="userSpaceOnUse">
      <stop stop-color="#F6F0E6"/>
      <stop offset="1" stop-color="#E2D7C9"/>
    </linearGradient>
    <linearGradient id="paint4_linear_3869_2050" x1="360.996" x2="384.379" y1="101.004" y2="108.672" gradientUnits="userSpaceOnUse">
      <stop stop-color="#F6F0E6"/>
      <stop offset="1" stop-color="#E2D7C9"/>
    </linearGradient>
    <linearGradient id="paint5_linear_3869_2050" x1="143.195" x2="143.195" y1="21.1472" y2="153.306" gradientUnits="userSpaceOnUse">
      <stop stop-color="#FDFEFF"/>
      <stop offset=".9964" stop-color="#F5F2EC"/>
    </linearGradient>
    <linearGradient id="paint6_linear_3869_2050" x1="34.1791" x2="34.162" y1="62.0821" y2="82.0694" gradientUnits="userSpaceOnUse">
      <stop stop-color="#fff"/>
      <stop offset=".9964" stop-color="#F0E8DD"/>
    </linearGradient>
    <linearGradient id="paint7_linear_3869_2050" x1="40.4354" x2="48.8198" y1="60.8542" y2="70.0242" gradientUnits="userSpaceOnUse">
      <stop stop-color="#D8CABA"/>
      <stop offset=".9942" stop-color="#fff" stop-opacity="0"/>
    </linearGradient>
    <linearGradient id="paint8_linear_3869_2050" x1="17.0584" x2="30.273" y1="57.3037" y2="62.475" gradientUnits="userSpaceOnUse">
      <stop stop-color="#F0E8DD"/>
      <stop offset=".9942" stop-color="#fff" stop-opacity="0"/>
    </linearGradient>
    <linearGradient id="paint9_linear_3869_2050" x1="309.994" x2="309.979" y1="111.948" y2="129.794" gradientUnits="userSpaceOnUse">
      <stop stop-color="#fff"/>
      <stop offset=".9964" stop-color="#F0E8DD"/>
    </linearGradient>
    <linearGradient id="paint10_linear_3869_2050" x1="315.58" x2="323.066" y1="110.852" y2="119.04" gradientUnits="userSpaceOnUse">
      <stop stop-color="#D8CABA"/>
      <stop offset=".9942" stop-color="#fff" stop-opacity="0"/>
    </linearGradient>
    <linearGradient id="paint11_linear_3869_2050" x1="294.708" x2="306.506" y1="107.682" y2="112.299" gradientUnits="userSpaceOnUse">
      <stop stop-color="#F0E8DD"/>
      <stop offset=".9942" stop-color="#fff" stop-opacity="0"/>
    </linearGradient>
    <linearGradient id="paint12_linear_3869_2050" x1="376.313" x2="376.302" y1="139.374" y2="152.175" gradientUnits="userSpaceOnUse">
      <stop stop-color="#fff"/>
      <stop offset=".9964" stop-color="#F0E8DD"/>
    </linearGradient>
    <linearGradient id="paint13_linear_3869_2050" x1="380.32" x2="385.689" y1="138.588" y2="144.461" gradientUnits="userSpaceOnUse">
      <stop stop-color="#D8CABA"/>
      <stop offset=".9942" stop-color="#fff" stop-opacity="0"/>
    </linearGradient>
    <linearGradient id="paint14_linear_3869_2050" x1="365.348" x2="373.811" y1="136.314" y2="139.626" gradientUnits="userSpaceOnUse">
      <stop stop-color="#F0E8DD"/>
      <stop offset=".9942" stop-color="#fff" stop-opacity="0"/>
    </linearGradient>
    <linearGradient id="paint15_linear_3869_2050" x1="228.239" x2="56.9207" y1="23.9095" y2="30.9209" gradientUnits="userSpaceOnUse">
      <stop stop-color="#606060"/>
      <stop offset="1" stop-color="#7B7B7B"/>
    </linearGradient>
    <filter id="filter0_d_3869_2050" width="196.554" height="139.824" x="44.9785" y="20.1039" color-interpolation-filters="sRGB" filterUnits="userSpaceOnUse">
      <feFlood flood-opacity="0" result="BackgroundImageFix"/>
      <feColorMatrix in="SourceAlpha" result="hardAlpha" values="0 0 0 0 0 0 0 0 0 0 0 0 0 0 0 0 0 0 127 0"/>
      <feOffset dy="2"/>
      <feGaussianBlur stdDeviation="3"/>
      <feColorMatrix values="0 0 0 0 0.576471 0 0 0 0 0.501961 0 0 0 0 0.396078 0 0 0 0.37 0"/>
      <feBlend in2="BackgroundImageFix" result="effect1_dropShadow_3869_2050"/>
      <feBlend in="SourceGraphic" in2="effect1_dropShadow_3869_2050" result="shape"/>
    </filter>
    <filter id="filter1_d_3869_2050" width="68.3579" height="49.4492" x="0" y="43.2595" color-interpolation-filters="sRGB" filterUnits="userSpaceOnUse">
      <feFlood flood-opacity="0" result="BackgroundImageFix"/>
      <feColorMatrix in="SourceAlpha" result="hardAlpha" values="0 0 0 0 0 0 0 0 0 0 0 0 0 0 0 0 0 0 127 0"/>
      <feOffset dy="3"/>
      <feGaussianBlur stdDeviation="4"/>
      <feColorMatrix values="0 0 0 0 0.576471 0 0 0 0 0.501961 0 0 0 0 0.396078 0 0 0 0.27 0"/>
      <feBlend in2="BackgroundImageFix" result="effect1_dropShadow_3869_2050"/>
      <feBlend in="SourceGraphic" in2="effect1_dropShadow_3869_2050" result="shape"/>
    </filter>
    <filter id="filter2_d_3869_2050" width="62.7485" height="45.8655" x="278.62" y="94.6068" color-interpolation-filters="sRGB" filterUnits="userSpaceOnUse">
      <feFlood flood-opacity="0" result="BackgroundImageFix"/>
      <feColorMatrix in="SourceAlpha" result="hardAlpha" values="0 0 0 0 0 0 0 0 0 0 0 0 0 0 0 0 0 0 127 0"/>
      <feOffset dy="3"/>
      <feGaussianBlur stdDeviation="4"/>
      <feColorMatrix values="0 0 0 0 0.576471 0 0 0 0 0.501961 0 0 0 0 0.396078 0 0 0 0.27 0"/>
      <feBlend in2="BackgroundImageFix" result="effect1_dropShadow_3869_2050"/>
      <feBlend in="SourceGraphic" in2="effect1_dropShadow_3869_2050" result="shape"/>
    </filter>
    <filter id="filter3_d_3869_2050" width="45.5317" height="33.4218" x="353.547" y="125.522" color-interpolation-filters="sRGB" filterUnits="userSpaceOnUse">
      <feFlood flood-opacity="0" result="BackgroundImageFix"/>
      <feColorMatrix in="SourceAlpha" result="hardAlpha" values="0 0 0 0 0 0 0 0 0 0 0 0 0 0 0 0 0 0 127 0"/>
      <feOffset dy="1"/>
      <feGaussianBlur stdDeviation="3"/>
      <feColorMatrix values="0 0 0 0 0.576471 0 0 0 0 0.501961 0 0 0 0 0.396078 0 0 0 0.27 0"/>
      <feBlend in2="BackgroundImageFix" result="effect1_dropShadow_3869_2050"/>
      <feBlend in="SourceGraphic" in2="effect1_dropShadow_3869_2050" result="shape"/>
    </filter>
  </defs>
</svg>
