<svg xmlns="http://www.w3.org/2000/svg" width="437" height="176" fill="none" viewBox="0 0 437 176">
  <path fill="#5C5C5C" d="M311.498 1.6843c1.374-.3838 2.663-.4797 4.037-.4797 1.288 0 2.663.096 3.951.2878 1.289.1919 2.663.5757 3.951 1.2473 1.289.6715 2.577 1.631 3.35 3.262l-1.46-.3838 1.546-1.3432c.601-.3838 1.117-.8635 1.632-1.2472 1.117-.7676 2.319-1.4391 3.608-1.9188 1.288-.4798 2.577-.8635 3.865-1.0554 1.374-.096 2.663-.096 4.037.2878.258.096.344.3838.258.5757-.086.2878-.258.3837-.515.2878h-.086c-1.117-.2878-2.405-.1919-3.608 0-1.203.1919-2.405.6716-3.522 1.2472-1.116.5757-2.147 1.2473-3.178 2.0148-.515.3838-1.031.8635-1.46 1.2472L326.53 7.057c-.43.3838-.945.2878-1.289-.096l-.086.096-.086-.1919c-.343-1.0553-1.288-1.9188-2.319-2.4944a13.1825 13.1825 0 0 0-3.522-1.3432c-1.202-.2878-2.49-.4797-3.779-.5757-1.288-.096-2.577-.096-3.693.192h-.086c-.258.0958-.43-.096-.516-.3839 0-.2878.086-.5756.344-.5756ZM280.803 27.4637c1.031-.2687 1.997-.3358 3.028-.3358.966 0 1.997.0671 2.963.2015.967.1343 1.997.4029 2.964.873.966.4701 1.932 1.1417 2.512 2.2834l-1.095-.2686 1.16-.9402c.451-.2687.837-.6045 1.224-.8731.837-.5373 1.739-1.0074 2.705-1.3432.967-.3358 1.933-.6044 2.899-.7387 1.031-.0672 1.997-.0672 3.028.2015.193.0671.258.2686.193.4029-.064.2015-.193.2686-.386.2015h-.065c-.837-.2015-1.803-.1343-2.705 0-.902.1343-1.804.4701-2.642.873-.837.403-1.61.8731-2.383 1.4104-.387.2686-.773.6044-1.095.873l-1.031.9403c-.322.2686-.709.2014-.966-.0672l-.065-.0672-.064-.1343c-.258-.7387-.967-1.3431-1.74-1.7461-.773-.4029-1.675-.7387-2.641-.9402-.902-.2015-1.868-.3358-2.835-.403-.966-.0671-1.932-.0671-2.77.1343h-.064c-.193.0672-.322-.0671-.387-.2686 0-.0671.129-.2686.258-.2686ZM98.6981 1.6843c1.3739-.3838 2.6629-.4797 4.0369-.4797 1.289 0 2.663.096 3.951.2878 1.289.1919 2.663.5757 3.952 1.2473 1.288.6715 2.576 1.631 3.349 3.262l-1.46-.3838 1.546-1.3432c.602-.3838 1.117-.8635 1.632-1.2472 1.117-.7675 2.32-1.4391 3.608-1.9188 1.288-.4798 2.577-.8635 3.865-1.0554 1.375-.096 2.663-.096 4.037.2878.258.096.344.3838.258.5757-.086.2878-.258.3837-.515.2878h-.086c-1.117-.2878-2.405-.1919-3.608 0-1.202.1919-2.405.6716-3.522 1.2472-1.116.5757-2.147 1.2473-3.178 2.0148-.515.3838-1.03.8635-1.46 1.2472L113.73 7.057c-.43.3838-.945.2878-1.289-.096l-.086-.0959-.085-.1919c-.344-1.0553-1.289-1.9188-2.32-2.4944-1.03-.5757-2.233-1.0554-3.521-1.3432-1.203-.2878-2.491-.4797-3.78-.5756-1.288-.096-2.577-.096-3.6932.1918h-.0859c-.2577.096-.4295-.096-.5154-.3837 0-.096.1718-.3838.3436-.3838ZM320.243 24.1498c1.375-.3454 2.663-.4318 4.038-.4318 1.288 0 2.662.0864 3.951.2591 1.288.1727 2.663.5181 3.951 1.1225 1.288.6044 2.577 1.4679 3.35 2.9358l-1.46-.3454 1.546-1.2089c.601-.3453 1.116-.7771 1.632-1.1225 1.116-.6907 2.319-1.2952 3.607-1.7269 1.289-.4317 2.577-.7771 3.866-.9498 1.374-.0864 2.662-.0864 4.037.259.258.0864.343.3454.257.5181-.085.259-.257.3454-.515.259h-.086c-1.116-.259-2.405-.1726-3.607 0-1.203.1727-2.405.6045-3.522 1.1226-1.117.518-2.147 1.1225-3.178 1.8132-.516.3454-1.031.7772-1.46 1.1226l-1.375 1.2088c-.429.3454-.945.2591-1.288-.0863l-.086-.0864-.086-.1727c-.344-.9498-1.288-1.7269-2.319-2.245s-2.233-.9498-3.522-1.2089c-1.202-.259-2.491-.4317-3.779-.518-1.289-.0864-2.577-.0864-3.694.1727h-.086c-.257.0863-.429-.0864-.515-.3454 0-.0864.086-.3454.343-.3454Z"/>
  <path stroke="#8C8C8C" stroke-miterlimit="10" stroke-width="5" d="m239.176 42.4994 58.277 45.4344h12.931M238.243 131.772l59.21-43.8382"/>
  <g filter="url(#filter0_d_3869_2076)">
    <path fill="#484848" d="m315.711 79.531-.316-1.4314s1.216-2.2141 1.826-3.3604c.689-1.142 1.327-1.3437 4.242-1.581 2.919-.3157 5.138-.7473 4.149 1.6361-1.068 2.3792-4.053 8.3496-4.053 8.3496l-5.848-3.6129Z"/>
  </g>
  <g filter="url(#filter1_d_3869_2076)">
    <path fill="#484848" d="m377.15 82.1041 20.344-28.5412c.425-.606 1.075-1.0428 1.792-1.2403 1.35-.3208 3.656-.905 5.871-1.2583 3.323-.5298 7.115-1.0346 5.594 2.4991-1.526 3.6122-11.283 27.7677-11.283 27.7677l-22.318.773Z"/>
  </g>
  <g filter="url(#filter2_d_3869_2076)">
    <path fill="url(#paint0_linear_3869_2076)" d="M314.482 76.0862c.235.0125 10.566 9.2873 10.566 9.2873l34.783-5.0584 19.658.5781s16.579-.5293 21.664-.2579c5.084.2715 11.847 1.4185 12.438 5.065.59 3.6466 2.035 4.5096-.157 5.8858-2.112 1.3803-10.502 7.2193-22.07 6.4445-11.569-.7749-25.267 1.6372-25.267 1.6372s-.077-1.4973-3.832-1.6978c-3.754-.2004-50.143-6.9997-50.143-6.9997s-7.674-.2525-6.801-7.8289c.952-7.5721 3.525-7.2776 5.172-7.2682 1.729-.0649 3.989.213 3.989.213Z"/>
  </g>
  <g filter="url(#filter3_d_3869_2076)">
    <path fill="#6C6C6C" d="m312.97 83.8641 7.353.3926s-4.339 6.3696-5.905 7.7792c-1.565 1.4096-4.593 3.7627-7.548 3.2906-2.956-.4722-2.164-2.0803-1.282-3.9193.882-1.8389 1.888-4.5358 1.888-4.5358l5.494-3.0073Z"/>
  </g>
  <g filter="url(#filter4_d_3869_2076)">
    <path fill="#6C6C6C" d="M391.929 96.253c-5.948-1.7321-9.921-2.2586-16.912-.5886-6.992 1.6699-9.73 3.0168-9.73 3.0168l-14.08 24.3178c-.866 1.525.212 3.39 1.933 3.482 3.445.106 8.489-.332 11.385-3.164 4.639-4.625 27.404-27.064 27.404-27.064Z"/>
  </g>
  <path fill="#6C6C6C" d="M422.124 87.4919c-.025.4702-.05.9404-.071 1.3322-.866 8.9127-5.622 15.7319-11.019 15.4439-3.989-.213-7.3-4.3196-8.638-10.1279-.505-2.306-.767-4.7562-.625-7.4206l.016-.3135c.309-5.799 2.222-10.805 4.97-13.8017 1.751-1.9498 3.93-3.0909 6.198-2.9698l.391.0209c4.833.5724 8.501 6.8195 8.945 14.7019-.133 1.0146-.109 2.0375-.167 3.1346Z" opacity=".4"/>
  <path fill="#8A8A8A" fill-rule="evenodd" d="M390.064 85.784c.434-2.0786 1.627-4.5534 3.836-5.5581l.385.851c-1.809.8234-2.9 2.9396-3.309 4.9018l-.001.0073c-.792 3.516-.01 7.2204 1.585 10.4635.272.5404.612 1.0709.946 1.4432v.0968c-.333.1261-.751.0845-1.051.0845-.271-.3713-.522-.7933-.729-1.2064l-.002-.0033c-1.659-3.3735-2.51-7.2986-1.66-11.0803Z" clip-rule="evenodd"/>
  <path fill="#3A3A3A" d="m359.041 80.4298-.52 2.4084 5.979 4.0915 11.548-.3265c1.021-.024 1.849-.8443 1.899-1.7847l.063-1.1754 1.48-2.7502-1.811-1.354c-.679-.5078-1.449-.7847-2.309-.8306l-9.963.0181c-.391-.0209-.786.0366-1.108.1767l-5.258 1.5267Z"/>
  <path fill="#6C6C6C" fill-rule="evenodd" d="m373.784 80.7409 4.453 2.4945-.456.8157-4.231-2.3701-9.167.2043-5.752 1.407-.222-.9079 5.851-1.4312 9.524-.2123Z" clip-rule="evenodd"/>
  <path fill="#6C6C6C" fill-rule="evenodd" d="m374.265 78.7574-.572 4.9282.537 2.8674-.917.1723-.563-3.0068.588-5.069.927.1079Z" clip-rule="evenodd"/>
  <path fill="#fff" d="m364.499 86.9297-.508-3.7207.212-2.5035.256-1.8724"/>
  <path fill="#6C6C6C" fill-rule="evenodd" d="m364.668 80.7571.255-1.8604-.925-.1271-.258 1.8845-.217 2.5671.515 3.7719.925-.1266-.502-3.6695.207-2.4399Z" clip-rule="evenodd"/>
  <path fill="#777" d="m413.194 69.5688-.701 13.1652-1.173-.0626-.849 1.2121-3.792-11.2833c1.751-1.9498 3.929-3.0909 6.198-2.9698.082-.0742.238-.0658.317-.0616ZM422.124 87.492c-.025.4702-.05.9404-.071 1.3322l-5.014-.1105.062-1.1755-1.21-.8505 6.321-2.3344c-.054 1.0187-.03 2.0416-.088 3.1387ZM410.583 89.1547l-8.266 4.9812c-.505-2.306-.767-4.7562-.625-7.4206l7.822.4177-.063 1.1754 1.132.8463Z" opacity=".6"/>
  <path fill="#D1D1D1" d="M364.079 100.739c2.363-.188 5.122-.434 5.122-.434l-11.96 19.873-4.471-.003" opacity=".3"/>
  <path fill="#A3A3A3" d="m382.07 75.1368 4.381.2339 12.895-19.7442-3.207-.1712" opacity=".4"/>
  <path fill="#8A8A8A" d="M391.818 89.4889c.302.0161.56-.2164.576-.5193a.5476.5476 0 0 0-.518-.5778c-.302-.0162-.56.2163-.577.5193a.5492.5492 0 0 0 .519.5778ZM392.195 92.7308c.302.0162.56-.2163.576-.5193a.5477.5477 0 0 0-.518-.5778c-.302-.0161-.56.2164-.577.5193a.5491.5491 0 0 0 .519.5778ZM393.284 95.8539c.302.0161.56-.2164.576-.5193.016-.303-.216-.5617-.518-.5778a.549.549 0 0 0-.577.5193.5492.5492 0 0 0 .519.5778ZM392.31 86.1356a.549.549 0 0 0 .577-.5193.5492.5492 0 0 0-.519-.5778c-.302-.0161-.56.2164-.576.5193-.016.303.216.5617.518.5778ZM393.958 83.1588a.5484.5484 0 0 0 .577-.5193c.016-.303-.216-.5616-.518-.5778a.5486.5486 0 0 0-.577.5193c-.016.303.216.5617.518.5778Z"/>
  <path fill="#777" d="m410.878 104.259.31-13.186 1.173.0627.849-1.2121 4.109 11.2214c-1.755 2.028-3.855 3.174-6.049 3.135-.157-.008-.235-.012-.392-.021Z" opacity=".6"/>
  <path fill="#8A8A8A" d="M411.321 82.6712c-.824.7419-3.902 5.5285-.159 10.3651 4.023-1.9071 6.844-3.3282 6.731-5.6133-.032-2.3593-6.572-4.7518-6.572-4.7518Z"/>
  <path fill="url(#paint1_linear_3869_2076)" d="M235.325 151.867H62.4364c-3.0924 0-5.6224-2.535-5.6224-5.633V29.7273c0-3.0981 2.53-5.6329 5.6224-5.6329H235.325c3.092 0 5.623 2.5348 5.623 5.6329V146.14c.093 3.192-2.437 5.727-5.623 5.727Z"/>
  <g filter="url(#filter5_d_3869_2076)">
    <path fill="#424242" d="M65.9046 72.5704c0 5.2683-4.2525 9.5287-9.5567 9.5287H24.4314C18.0755 82.2365 13 77.1515 13 71.0128c0-6.1845 5.1213-11.3153 11.5686-10.9946 5.5328-17.3166 30.8648-14.8886 33.0139 3.0235 4.7555.5955 8.3221 4.6269 8.3221 9.5287Z"/>
  </g>
  <path fill="url(#paint2_linear_3869_2076)" d="M40.7555 82.1906c9.3738 0 17.01-7.6046 17.01-16.9959 0-9.3912-7.6362-16.9958-17.01-16.9958-9.3737 0-17.0099 7.6046-17.0099 16.9958 0 9.3913 7.5905 16.9959 17.0099 16.9959Z"/>
  <path fill="url(#paint3_linear_3869_2076)" d="M56.3482 82.099c5.2584 0 9.5566-4.2604 9.5566-9.5287 0-5.2683-4.2982-9.5287-9.5566-9.5287-5.2585 0-9.5567 4.2604-9.5567 9.5287 0 5.2683 4.2982 9.5287 9.5567 9.5287Z"/>
  <g filter="url(#filter6_d_3869_2076)">
    <path fill="#424242" d="M337.629 121.374c0 4.644-3.749 8.4-8.425 8.4h-28.139c-5.603.122-10.078-4.361-10.078-9.774 0-5.452 4.515-9.976 10.199-9.693 4.878-15.2667 27.212-13.1261 29.106 2.666 4.193.525 7.337 4.079 7.337 8.401Z"/>
  </g>
  <path fill="url(#paint4_linear_3869_2076)" d="M315.457 129.855c8.264 0 14.997-6.704 14.997-14.984 0-8.28-6.733-14.9842-14.997-14.9842s-14.997 6.7042-14.997 14.9842 6.692 14.984 14.997 14.984Z"/>
  <path fill="url(#paint5_linear_3869_2076)" d="M329.205 129.774c4.636 0 8.425-3.756 8.425-8.401 0-4.644-3.789-8.4-8.425-8.4-4.636 0-8.426 3.756-8.426 8.4 0 4.645 3.79 8.401 8.426 8.401Z"/>
  <g filter="url(#filter7_d_3869_2076)">
    <path fill="#424242" d="M397.333 145.893c0 3.345-2.7 6.049-6.067 6.049H371.006c-4.034.087-7.256-3.141-7.256-7.037 0-3.926 3.251-7.183 7.343-6.979 3.513-10.993 19.593-9.451 20.957 1.919 3.019.378 5.283 2.937 5.283 6.048Z"/>
  </g>
  <path fill="url(#paint6_linear_3869_2076)" d="M381.369 152c5.951 0 10.798-4.827 10.798-10.788 0-5.962-4.847-10.789-10.798-10.789-5.95 0-10.797 4.827-10.797 10.789 0 5.961 4.818 10.788 10.797 10.788Z"/>
  <path fill="url(#paint7_linear_3869_2076)" d="M391.267 151.942c3.338 0 6.066-2.705 6.066-6.049 0-3.344-2.728-6.048-6.066-6.048-3.338 0-6.066 2.704-6.066 6.048s2.728 6.049 6.066 6.049Z"/>
  <path fill="#3A3A3A" d="M240.977 39.5937H56.8438v-9.7041c0-3.2943 2.53-5.9896 5.6224-5.9896H235.355c3.092 0 5.622 2.6953 5.622 5.9896v9.7041Z"/>
  <path fill="#CCC" d="M65.7199 34.6175c1.5009 0 2.7175-1.2189 2.7175-2.7226 0-1.5036-1.2166-2.7225-2.7175-2.7225-1.5008 0-2.7175 1.2189-2.7175 2.7225 0 1.5037 1.2167 2.7226 2.7175 2.7226Z"/>
  <path fill="#505050" d="M73.966 34.6175c1.5009 0 2.7175-1.2189 2.7175-2.7226 0-1.5036-1.2166-2.7225-2.7175-2.7225-1.5008 0-2.7175 1.2189-2.7175 2.7225 0 1.5037 1.2167 2.7226 2.7175 2.7226Z"/>
  <path fill="#484848" d="M82.2126 34.6175c1.5008 0 2.7175-1.2189 2.7175-2.7226 0-1.5036-1.2167-2.7225-2.7175-2.7225s-2.7175 1.2189-2.7175 2.7225c0 1.5037 1.2167 2.7226 2.7175 2.7226Z"/>
  <defs>
    <linearGradient id="paint0_linear_3869_2076" x1="360.375" x2="359.225" y1="77.9745" y2="99.5262" gradientUnits="userSpaceOnUse">
      <stop stop-color="#6C6C6C"/>
      <stop offset=".9964" stop-color="#3B3B3B"/>
    </linearGradient>
    <linearGradient id="paint1_linear_3869_2076" x1="148.822" x2="148.822" y1="21.1389" y2="153.245" gradientUnits="userSpaceOnUse">
      <stop stop-color="#5C5C5C"/>
      <stop offset=".9964" stop-color="#4D4D4D"/>
    </linearGradient>
    <linearGradient id="paint2_linear_3869_2076" x1="27.8912" x2="33.5953" y1="55.2591" y2="59.6596" gradientUnits="userSpaceOnUse">
      <stop stop-color="#686868"/>
      <stop offset=".9942" stop-color="#424242"/>
    </linearGradient>
    <linearGradient id="paint3_linear_3869_2076" x1="49.1206" x2="52.3203" y1="66.9999" y2="69.4736" gradientUnits="userSpaceOnUse">
      <stop stop-color="#686868"/>
      <stop offset=".9942" stop-color="#424242"/>
    </linearGradient>
    <linearGradient id="paint4_linear_3869_2076" x1="304.115" x2="309.144" y1="106.111" y2="109.991" gradientUnits="userSpaceOnUse">
      <stop stop-color="#686868"/>
      <stop offset=".9942" stop-color="#424242"/>
    </linearGradient>
    <linearGradient id="paint5_linear_3869_2076" x1="322.833" x2="325.654" y1="116.462" y2="118.643" gradientUnits="userSpaceOnUse">
      <stop stop-color="#686868"/>
      <stop offset=".9942" stop-color="#424242"/>
    </linearGradient>
    <linearGradient id="paint6_linear_3869_2076" x1="373.203" x2="376.824" y1="134.905" y2="137.698" gradientUnits="userSpaceOnUse">
      <stop stop-color="#686868"/>
      <stop offset=".9942" stop-color="#424242"/>
    </linearGradient>
    <linearGradient id="paint7_linear_3869_2076" x1="386.679" x2="388.71" y1="142.357" y2="143.928" gradientUnits="userSpaceOnUse">
      <stop stop-color="#686868"/>
      <stop offset=".9942" stop-color="#424242"/>
    </linearGradient>
    <filter id="filter0_d_3869_2076" width="30.4551" height="30.2352" x="300.396" y="62.9087" color-interpolation-filters="sRGB" filterUnits="userSpaceOnUse">
      <feFlood flood-opacity="0" result="BackgroundImageFix"/>
      <feColorMatrix in="SourceAlpha" result="hardAlpha" values="0 0 0 0 0 0 0 0 0 0 0 0 0 0 0 0 0 0 127 0"/>
      <feOffset dx="-5"/>
      <feGaussianBlur stdDeviation="5"/>
      <feColorMatrix values="0 0 0 0 0.397708 0 0 0 0 0.47749 0 0 0 0 0.575 0 0 0 0.2 0"/>
      <feBlend in2="BackgroundImageFix" result="effect1_dropShadow_3869_2076"/>
      <feBlend in="SourceGraphic" in2="effect1_dropShadow_3869_2076" result="shape"/>
    </filter>
    <filter id="filter1_d_3869_2076" width="77.9468" height="75.415" x="355.15" y="39.6891" color-interpolation-filters="sRGB" filterUnits="userSpaceOnUse">
      <feFlood flood-opacity="0" result="BackgroundImageFix"/>
      <feColorMatrix in="SourceAlpha" result="hardAlpha" values="0 0 0 0 0 0 0 0 0 0 0 0 0 0 0 0 0 0 127 0"/>
      <feOffset dy="11"/>
      <feGaussianBlur stdDeviation="11"/>
      <feColorMatrix values="0 0 0 0 0 0 0 0 0 0 0 0 0 0 0 0 0 0 0.27 0"/>
      <feBlend in2="BackgroundImageFix" result="effect1_dropShadow_3869_2076"/>
      <feBlend in="SourceGraphic" in2="effect1_dropShadow_3869_2076" result="shape"/>
    </filter>
    <filter id="filter2_d_3869_2076" width="153.354" height="67.8043" x="283.252" y="64.8634" color-interpolation-filters="sRGB" filterUnits="userSpaceOnUse">
      <feFlood flood-opacity="0" result="BackgroundImageFix"/>
      <feColorMatrix in="SourceAlpha" result="hardAlpha" values="0 0 0 0 0 0 0 0 0 0 0 0 0 0 0 0 0 0 127 0"/>
      <feOffset dy="11"/>
      <feGaussianBlur stdDeviation="11"/>
      <feColorMatrix values="0 0 0 0 0 0 0 0 0 0 0 0 0 0 0 0 0 0 0.27 0"/>
      <feBlend in2="BackgroundImageFix" result="effect1_dropShadow_3869_2076"/>
      <feBlend in="SourceGraphic" in2="effect1_dropShadow_3869_2076" result="shape"/>
    </filter>
    <filter id="filter3_d_3869_2076" width="35.5391" height="31.5239" x="289.784" y="73.8641" color-interpolation-filters="sRGB" filterUnits="userSpaceOnUse">
      <feFlood flood-opacity="0" result="BackgroundImageFix"/>
      <feColorMatrix in="SourceAlpha" result="hardAlpha" values="0 0 0 0 0 0 0 0 0 0 0 0 0 0 0 0 0 0 127 0"/>
      <feOffset dx="-5"/>
      <feGaussianBlur stdDeviation="5"/>
      <feColorMatrix values="0 0 0 0 0.397708 0 0 0 0 0.47749 0 0 0 0 0.575 0 0 0 0.2 0"/>
      <feBlend in2="BackgroundImageFix" result="effect1_dropShadow_3869_2076"/>
      <feBlend in="SourceGraphic" in2="effect1_dropShadow_3869_2076" result="shape"/>
    </filter>
    <filter id="filter4_d_3869_2076" width="85.0273" height="75.8461" x="328.901" y="83.6492" color-interpolation-filters="sRGB" filterUnits="userSpaceOnUse">
      <feFlood flood-opacity="0" result="BackgroundImageFix"/>
      <feColorMatrix in="SourceAlpha" result="hardAlpha" values="0 0 0 0 0 0 0 0 0 0 0 0 0 0 0 0 0 0 127 0"/>
      <feOffset dy="11"/>
      <feGaussianBlur stdDeviation="11"/>
      <feColorMatrix values="0 0 0 0 0 0 0 0 0 0 0 0 0 0 0 0 0 0 0.27 0"/>
      <feBlend in2="BackgroundImageFix" result="effect1_dropShadow_3869_2076"/>
      <feBlend in="SourceGraphic" in2="effect1_dropShadow_3869_2076" result="shape"/>
    </filter>
    <filter id="filter5_d_3869_2076" width="78.9048" height="59.8615" x="0" y="46.2404" color-interpolation-filters="sRGB" filterUnits="userSpaceOnUse">
      <feFlood flood-opacity="0" result="BackgroundImageFix"/>
      <feColorMatrix in="SourceAlpha" result="hardAlpha" values="0 0 0 0 0 0 0 0 0 0 0 0 0 0 0 0 0 0 127 0"/>
      <feOffset dy="11"/>
      <feGaussianBlur stdDeviation="6.5"/>
      <feColorMatrix values="0 0 0 0 0 0 0 0 0 0 0 0 0 0 0 0 0 0 0.22 0"/>
      <feBlend in2="BackgroundImageFix" result="effect1_dropShadow_3869_2076"/>
      <feBlend in="SourceGraphic" in2="effect1_dropShadow_3869_2076" result="shape"/>
    </filter>
    <filter id="filter6_d_3869_2076" width="72.6426" height="55.8534" x="277.987" y="97.9235" color-interpolation-filters="sRGB" filterUnits="userSpaceOnUse">
      <feFlood flood-opacity="0" result="BackgroundImageFix"/>
      <feColorMatrix in="SourceAlpha" result="hardAlpha" values="0 0 0 0 0 0 0 0 0 0 0 0 0 0 0 0 0 0 127 0"/>
      <feOffset dy="11"/>
      <feGaussianBlur stdDeviation="6.5"/>
      <feColorMatrix values="0 0 0 0 0 0 0 0 0 0 0 0 0 0 0 0 0 0 0.22 0"/>
      <feBlend in2="BackgroundImageFix" result="effect1_dropShadow_3869_2076"/>
      <feBlend in="SourceGraphic" in2="effect1_dropShadow_3869_2076" result="shape"/>
    </filter>
    <filter id="filter7_d_3869_2076" width="59.5825" height="47.4945" x="350.75" y="128.449" color-interpolation-filters="sRGB" filterUnits="userSpaceOnUse">
      <feFlood flood-opacity="0" result="BackgroundImageFix"/>
      <feColorMatrix in="SourceAlpha" result="hardAlpha" values="0 0 0 0 0 0 0 0 0 0 0 0 0 0 0 0 0 0 127 0"/>
      <feOffset dy="11"/>
      <feGaussianBlur stdDeviation="6.5"/>
      <feColorMatrix values="0 0 0 0 0 0 0 0 0 0 0 0 0 0 0 0 0 0 0.22 0"/>
      <feBlend in2="BackgroundImageFix" result="effect1_dropShadow_3869_2076"/>
      <feBlend in="SourceGraphic" in2="effect1_dropShadow_3869_2076" result="shape"/>
    </filter>
  </defs>
</svg>
