<svg width="424" height="160" viewBox="0 0 424 160" fill="none" xmlns="http://www.w3.org/2000/svg">
<path d="M306.24 1.68498C307.618 1.30106 308.909 1.20508 310.287 1.20508C311.578 1.20508 312.955 1.30106 314.247 1.49302C315.538 1.68498 316.916 2.06889 318.207 2.74075C319.498 3.41261 320.79 4.3724 321.564 6.00406L320.101 5.62014L321.651 4.27642C322.253 3.8925 322.77 3.41261 323.286 3.02869C324.405 2.26085 325.611 1.58899 326.902 1.1091C328.193 0.629198 329.485 0.245281 330.776 0.0533222C332.154 -0.0426574 333.445 -0.0426581 334.822 0.34126C335.081 0.43724 335.167 0.725177 335.081 0.917136C334.995 1.20508 334.822 1.30106 334.564 1.20508H334.478C333.359 0.917139 332.067 1.01312 330.862 1.20508C329.657 1.39704 328.452 1.87693 327.333 2.45281C326.213 3.02869 325.18 3.70055 324.147 4.46838C323.631 4.8523 323.114 5.3322 322.684 5.71612L321.306 7.05983C320.876 7.44375 320.359 7.34777 320.015 6.96385L319.929 7.05983L319.843 6.86787C319.498 5.8121 318.551 4.94828 317.518 4.3724C316.485 3.79653 315.28 3.31663 313.988 3.02869C312.783 2.74075 311.492 2.54879 310.201 2.45281C308.909 2.35683 307.618 2.35683 306.499 2.64477H306.413C306.154 2.74075 305.982 2.54879 305.896 2.26085C305.896 1.97291 305.982 1.68498 306.24 1.68498Z" fill="#E8DFD3"/>
<path d="M275.477 27.4748C276.51 27.206 277.478 27.1388 278.511 27.1388C279.48 27.1388 280.513 27.206 281.481 27.3404C282.45 27.4748 283.483 27.7435 284.451 28.2138C285.42 28.6841 286.388 29.356 286.97 30.4981L285.872 30.2294L287.034 29.2888C287.486 29.02 287.874 28.6841 288.261 28.4154C289.1 27.8779 290.004 27.4076 290.973 27.0717C291.941 26.7357 292.91 26.467 293.878 26.3326C294.911 26.2654 295.88 26.2654 296.913 26.5342C297.107 26.6014 297.171 26.8029 297.107 26.9373C297.042 27.1388 296.913 27.206 296.719 27.1388H296.655C295.815 26.9373 294.847 27.0045 293.943 27.1388C293.039 27.2732 292.135 27.6091 291.296 28.0123C290.456 28.4154 289.681 28.8857 288.907 29.4232C288.519 29.6919 288.132 30.0278 287.809 30.2966L286.776 31.2372C286.453 31.5059 286.066 31.4387 285.807 31.17L285.743 31.1028L285.678 30.9684C285.42 30.2294 284.71 29.6247 283.935 29.2216C283.16 28.8185 282.256 28.4826 281.288 28.281C280.384 28.0794 279.415 27.9451 278.447 27.8779C277.478 27.8107 276.51 27.8107 275.67 28.0123H275.606C275.412 28.0794 275.283 27.9451 275.218 27.7435C275.218 27.6763 275.347 27.4748 275.477 27.4748Z" fill="#E8DFD3"/>
<path d="M92.9567 1.68497C94.3341 1.30106 95.6255 1.20508 97.0029 1.20508C98.2943 1.20508 99.6717 1.30106 100.963 1.49301C102.254 1.68497 103.632 2.0689 104.923 2.74075C106.215 3.41261 107.506 4.37241 108.281 6.00406L106.817 5.62014L108.367 4.27642C108.969 3.89251 109.486 3.41261 110.003 3.02869C111.122 2.26085 112.327 1.589 113.618 1.1091C114.91 0.629201 116.201 0.24528 117.492 0.0533212C118.87 -0.0426583 120.161 -0.0426554 121.539 0.341263C121.797 0.437242 121.883 0.72518 121.797 0.917139C121.711 1.20508 121.539 1.30106 121.28 1.20508H121.194C120.075 0.917138 118.784 1.01312 117.579 1.20508C116.373 1.39704 115.168 1.87693 114.049 2.45281C112.93 3.02869 111.897 3.70055 110.863 4.46838C110.347 4.8523 109.83 5.3322 109.4 5.71612L108.022 7.05983C107.592 7.44375 107.075 7.34777 106.731 6.96385L106.645 6.86787L106.559 6.67591C106.215 5.62014 105.268 4.75632 104.235 4.18045C103.201 3.60457 101.996 3.12467 100.705 2.83673C99.4995 2.54879 98.2082 2.35683 96.9168 2.26085C95.6255 2.16487 94.3341 2.16487 93.2149 2.45281H93.1288C92.8706 2.54879 92.6984 2.35683 92.6123 2.06889C92.6123 1.97291 92.7845 1.68497 92.9567 1.68497Z" fill="#E8DFD3"/>
<path d="M315.005 24.1595C316.383 23.814 317.674 23.7276 319.052 23.7276C320.343 23.7276 321.721 23.814 323.012 23.9868C324.303 24.1595 325.681 24.5051 326.972 25.1097C328.263 25.7144 329.555 26.5782 330.33 28.0467L328.866 27.7012L330.416 26.4918C331.018 26.1463 331.535 25.7144 332.051 25.3689C333.171 24.6778 334.376 24.0732 335.667 23.6413C336.959 23.2093 338.25 22.8638 339.541 22.6911C340.919 22.6047 342.21 22.6047 343.588 22.9502C343.846 23.0366 343.932 23.2957 343.846 23.4685C343.76 23.7276 343.588 23.814 343.329 23.7276H343.243C342.124 23.4685 340.833 23.5549 339.627 23.7276C338.422 23.9004 337.217 24.3323 336.098 24.8506C334.978 25.3689 333.945 25.9736 332.912 26.6646C332.396 27.0101 331.879 27.442 331.449 27.7876L330.071 28.9969C329.641 29.3424 329.124 29.2561 328.78 28.9105L328.694 28.8242L328.608 28.6514C328.263 27.7012 327.316 26.9238 326.283 26.4055C325.25 25.8872 324.045 25.4553 322.754 25.1961C321.548 24.937 320.257 24.7642 318.966 24.6778C317.674 24.5915 316.383 24.5915 315.264 24.8506H315.178C314.919 24.937 314.747 24.7642 314.661 24.5051C314.661 24.4187 314.747 24.1595 315.005 24.1595Z" fill="#E8DFD3"/>
<path d="M233.753 42.5164L292.163 87.969H305.124" stroke="#E4E0DA" stroke-width="6" stroke-miterlimit="10"/>
<path d="M232.818 131.825L292.163 87.9691" stroke="#E4E0DA" stroke-width="6" stroke-miterlimit="10"/>
<path d="M310.463 79.5627L310.147 78.1307C310.147 78.1307 311.365 75.9157 311.977 74.769C312.667 73.6264 313.306 73.4247 316.228 73.1873C319.154 72.8715 321.378 72.4397 320.386 74.824C319.316 77.2042 316.324 83.177 316.324 83.177L310.463 79.5627Z" fill="url(#paint0_linear_3869_2050)"/>
<path d="M372.043 82.1369L392.433 53.5842C392.858 52.978 393.51 52.541 394.229 52.3434C395.582 52.0225 397.893 51.4381 400.113 51.0847C403.444 50.5546 407.244 50.0496 405.719 53.5848C404.19 57.1984 394.412 81.3635 394.412 81.3635L372.043 82.1369Z" fill="url(#paint1_linear_3869_2050)"/>
<path d="M309.232 76.1165C309.468 76.1291 319.823 85.4076 319.823 85.4076L354.685 80.3472L374.387 80.9255C374.387 80.9255 391.004 80.396 396.1 80.6675C401.195 80.9391 407.974 82.0866 408.566 85.7346C409.158 89.3826 410.605 90.2459 408.409 91.6227C406.292 93.0036 397.883 98.8449 386.288 98.0697C374.694 97.2946 360.964 99.7076 360.964 99.7076C360.964 99.7076 360.887 98.2097 357.124 98.0092C353.361 97.8086 306.867 91.0067 306.867 91.0067C306.867 91.0067 299.175 90.754 300.051 83.1746C301.005 75.5994 303.584 75.8941 305.234 75.9035C306.967 75.8386 309.232 76.1165 309.232 76.1165Z" fill="url(#paint2_linear_3869_2050)"/>
<path d="M307.717 83.8976L315.086 84.2903C315.086 84.2903 310.737 90.6625 309.168 92.0727C307.599 93.4828 304.565 95.8369 301.602 95.3646C298.64 94.8922 299.433 93.2835 300.317 91.4438C301.202 89.604 302.21 86.9061 302.21 86.9061L307.717 83.8976Z" fill="url(#paint3_linear_3869_2050)"/>
<path d="M386.854 96.2915C380.893 94.5587 376.912 94.032 369.904 95.7027C362.897 97.3733 360.152 98.7207 360.152 98.7207L346.04 123.048C345.173 124.574 346.253 126.44 347.977 126.532C351.431 126.637 356.486 126.199 359.389 123.366C364.038 118.74 386.854 96.2915 386.854 96.2915Z" fill="url(#paint4_linear_3869_2050)"/>
<path opacity="0.4" d="M417.118 87.5269C417.093 87.9973 417.068 88.4676 417.047 88.8596C416.179 97.7759 411.413 104.598 406.003 104.309C402.005 104.096 398.686 99.9884 397.345 94.1777C396.839 91.8708 396.577 89.4196 396.719 86.7541C396.723 86.6757 396.731 86.519 396.735 86.4406C397.045 80.6392 398.962 75.6312 401.717 72.6333C403.472 70.6827 405.655 69.5412 407.929 69.6623C408.085 69.6707 408.164 69.6749 408.321 69.6832C413.164 70.2558 416.841 76.5054 417.285 84.391C417.153 85.406 417.177 86.4293 417.118 87.5269Z" fill="#EDE5DA"/>
<path fill-rule="evenodd" clip-rule="evenodd" d="M384.985 85.8181C385.42 83.7387 386.616 81.2629 388.829 80.2579L389.216 81.1092C387.402 81.9329 386.309 84.0499 385.899 86.0129L385.898 86.0202C385.104 89.5377 385.888 93.2436 387.487 96.488C387.759 97.0286 388.1 97.5593 388.435 97.9318L388.435 98.0285C388.101 98.1548 387.683 98.1131 387.381 98.1131C387.11 97.7417 386.859 97.3195 386.651 96.9063L386.649 96.903C384.986 93.5281 384.133 89.6014 384.985 85.8181Z" fill="#B7B4AF"/>
<path d="M353.892 80.462L353.37 82.8714L359.363 86.9645L370.937 86.6379C371.961 86.6138 372.791 85.7932 372.841 84.8525L372.903 83.6765L374.387 80.9253L372.572 79.5707C371.891 79.0627 371.12 78.7857 370.258 78.7398L360.272 78.7579C359.88 78.737 359.484 78.7945 359.162 78.9346L353.892 80.462Z" fill="#777777"/>
<path fill-rule="evenodd" clip-rule="evenodd" d="M368.669 80.7731L373.132 83.2686L372.676 84.0846L368.435 81.7135L359.247 81.9179L353.481 83.3256L353.26 82.4173L359.124 80.9855L368.669 80.7731Z" fill="#B7B4AF"/>
<path fill-rule="evenodd" clip-rule="evenodd" d="M369.15 78.7888L368.577 83.719L369.115 86.5876L368.196 86.7599L367.632 83.752L368.221 78.6809L369.15 78.7888Z" fill="#B7B4AF"/>
<path d="M359.363 86.9645L358.854 83.2422L359.066 80.7377L359.323 78.8646" fill="white"/>
<path fill-rule="evenodd" clip-rule="evenodd" d="M359.531 80.7893L359.786 78.9281L358.86 78.801L358.601 80.6862L358.384 83.2543L358.9 87.0278L359.826 86.9011L359.324 83.2301L359.531 80.7893Z" fill="#B7B4AF"/>
<path opacity="0.6" d="M408.168 69.5965L407.466 82.7671L406.29 82.7044L405.439 83.9169L401.638 72.6291C403.393 70.6785 405.577 69.537 407.85 69.6582C407.933 69.5839 408.09 69.5923 408.168 69.5965Z" fill="white"/>
<path opacity="0.6" d="M417.118 87.527C417.093 87.9974 417.068 88.4677 417.047 88.8597L412.022 88.7491L412.084 87.5732L410.872 86.7224L417.207 84.387C417.153 85.4061 417.177 86.4294 417.118 87.527Z" fill="white"/>
<path opacity="0.6" d="M405.551 89.1903L397.267 94.1734C396.761 91.8665 396.498 89.4154 396.64 86.7499L404.48 87.1677L404.417 88.3436L405.551 89.1903Z" fill="white"/>
<path opacity="0.3" d="M358.941 100.779C361.31 100.591 364.075 100.345 364.075 100.345L352.087 120.226L347.606 120.223" fill="#D0C6B8"/>
<path opacity="0.3" d="M376.974 75.1667L381.364 75.4007L394.288 55.6486L391.074 55.4773" fill="#D0C6B8"/>
<path d="M386.743 89.5245C387.046 89.5406 387.305 89.308 387.321 89.005C387.337 88.7019 387.105 88.4431 386.802 88.427C386.499 88.4108 386.24 88.6434 386.224 88.9465C386.208 89.2496 386.44 89.5083 386.743 89.5245Z" fill="#777777"/>
<path d="M387.121 92.7679C387.424 92.7841 387.683 92.5515 387.699 92.2484C387.715 91.9453 387.482 91.6865 387.179 91.6704C386.876 91.6542 386.617 91.8868 386.601 92.1899C386.585 92.493 386.818 92.7518 387.121 92.7679Z" fill="#777777"/>
<path d="M388.212 95.8922C388.516 95.9083 388.774 95.6757 388.79 95.3726C388.807 95.0696 388.574 94.8108 388.271 94.7946C387.968 94.7785 387.709 95.0111 387.693 95.3142C387.677 95.6172 387.909 95.876 388.212 95.8922Z" fill="#777777"/>
<path d="M387.237 86.17C387.54 86.1862 387.799 85.9536 387.815 85.6505C387.831 85.3474 387.598 85.0886 387.295 85.0725C386.992 85.0563 386.733 85.2889 386.717 85.592C386.701 85.8951 386.934 86.1539 387.237 86.17Z" fill="#777777"/>
<path d="M388.889 83.1919C389.192 83.208 389.451 82.9754 389.467 82.6723C389.483 82.3693 389.251 82.1105 388.948 82.0943C388.645 82.0782 388.386 82.3108 388.37 82.6138C388.354 82.9169 388.586 83.1757 388.889 83.1919Z" fill="#777777"/>
<path opacity="0.6" d="M405.846 104.301L406.156 91.1093L407.332 91.172L408.183 89.9594L412.302 101.186C410.543 103.215 408.438 104.36 406.238 104.322C406.082 104.313 406.003 104.309 405.846 104.301Z" fill="white"/>
<path d="M406.29 82.7043C405.464 83.4465 402.378 88.2351 406.13 93.0735C410.163 91.1657 412.99 89.7441 412.876 87.458C412.845 85.0978 406.29 82.7043 406.29 82.7043Z" fill="#777777"/>
<g filter="url(#filter0_d_3869_2050)">
<path d="M229.895 151.928H56.6137C53.5143 151.928 50.9785 149.392 50.9785 146.293V29.739C50.9785 26.6397 53.5143 24.1039 56.6137 24.1039H229.895C232.994 24.1039 235.53 26.6397 235.53 29.739V146.199C235.624 149.392 233.088 151.928 229.895 151.928Z" fill="url(#paint5_linear_3869_2050)"/>
</g>
<g filter="url(#filter1_d_3869_2050)">
<path d="M60.3581 72.2934C60.3581 77.4975 56.1496 81.7061 50.9002 81.7061C50.8097 81.7061 50.0404 81.7061 44.3837 81.7061C40.4467 81.7061 34.1564 81.7061 24.1102 81.7061H19.3133C13.0231 81.8419 8 76.8187 8 70.7548C8 64.6456 13.0684 59.5772 19.4491 59.894C24.9248 42.7882 49.9951 45.1866 52.122 62.8807C56.8284 63.469 60.3581 67.4513 60.3581 72.2934Z" fill="url(#paint6_linear_3869_2050)"/>
</g>
<path d="M50.8998 81.7061C56.104 81.7061 60.3578 77.4976 60.3578 72.2934C60.3578 67.0893 56.104 62.8807 50.8998 62.8807C45.6957 62.8807 41.4419 67.0893 41.4419 72.2934C41.4419 77.4976 45.6957 81.7061 50.8998 81.7061Z" fill="url(#paint7_linear_3869_2050)"/>
<path d="M35.469 81.7967C44.746 81.7967 52.3033 74.2847 52.3033 65.0077C52.3033 55.7308 44.746 48.2188 35.469 48.2188C26.1921 48.2188 18.6348 55.7308 18.6348 65.0077C18.6348 74.2847 26.1468 81.7967 35.469 81.7967Z" fill="url(#paint8_linear_3869_2050)"/>
<g filter="url(#filter2_d_3869_2050)">
<path d="M333.368 121.066C333.368 125.712 329.611 129.47 324.924 129.47C324.843 129.47 324.156 129.47 319.106 129.47C315.59 129.47 309.974 129.47 301.004 129.47H296.721C291.105 129.591 286.62 125.106 286.62 119.692C286.62 114.237 291.145 109.712 296.843 109.995C301.732 94.7217 324.116 96.8632 326.015 112.661C330.217 113.187 333.368 116.742 333.368 121.066Z" fill="url(#paint9_linear_3869_2050)"/>
</g>
<path d="M324.924 129.47C329.57 129.47 333.368 125.712 333.368 121.066C333.368 116.419 329.57 112.662 324.924 112.662C320.277 112.662 316.479 116.419 316.479 121.066C316.479 125.712 320.277 129.47 324.924 129.47Z" fill="url(#paint10_linear_3869_2050)"/>
<path d="M311.146 129.551C319.429 129.551 326.176 122.844 326.176 114.561C326.176 106.278 319.429 99.5706 311.146 99.5706C302.863 99.5706 296.115 106.278 296.115 114.561C296.115 122.844 302.822 129.551 311.146 129.551Z" fill="url(#paint11_linear_3869_2050)"/>
<g filter="url(#filter3_d_3869_2050)">
<path d="M393.079 145.914C393.079 149.247 390.384 151.942 387.022 151.942C386.964 151.942 386.471 151.942 382.848 151.942C380.327 151.942 376.299 151.942 369.865 151.942H366.793C362.764 152.029 359.547 148.812 359.547 144.928C359.547 141.016 362.793 137.77 366.88 137.973C370.386 127.018 386.442 128.554 387.804 139.886C390.818 140.262 393.079 142.813 393.079 145.914Z" fill="url(#paint12_linear_3869_2050)"/>
</g>
<path d="M387.021 151.942C390.354 151.942 393.079 149.247 393.079 145.914C393.079 142.581 390.354 139.886 387.021 139.886C383.689 139.886 380.964 142.581 380.964 145.914C380.964 149.247 383.689 151.942 387.021 151.942Z" fill="url(#paint13_linear_3869_2050)"/>
<path d="M377.139 152C383.08 152 387.92 147.189 387.92 141.248C387.92 135.307 383.08 130.496 377.139 130.496C371.198 130.496 366.358 135.307 366.358 141.248C366.358 147.189 371.169 152 377.139 152Z" fill="url(#paint14_linear_3869_2050)"/>
<path d="M235.56 39.6094H51.0083V29.9014C51.0083 26.6058 53.5441 23.9094 56.6435 23.9094H229.924C233.024 23.9094 235.56 26.6058 235.56 29.9014V39.6094Z" fill="url(#paint15_linear_3869_2050)"/>
<path d="M59.9048 34.6313C61.409 34.6313 62.6285 33.4119 62.6285 31.9076C62.6285 30.4034 61.409 29.184 59.9048 29.184C58.4006 29.184 57.1812 30.4034 57.1812 31.9076C57.1812 33.4119 58.4006 34.6313 59.9048 34.6313Z" fill="#F4F1EA"/>
<path d="M68.1699 34.6313C69.6742 34.6313 70.8936 33.4119 70.8936 31.9076C70.8936 30.4034 69.6742 29.184 68.1699 29.184C66.6657 29.184 65.4463 30.4034 65.4463 31.9076C65.4463 33.4119 66.6657 34.6313 68.1699 34.6313Z" fill="#BAB7B4"/>
<path d="M76.4346 34.6313C77.9388 34.6313 79.1583 33.4119 79.1583 31.9076C79.1583 30.4034 77.9388 29.184 76.4346 29.184C74.9304 29.184 73.7109 30.4034 73.7109 31.9076C73.7109 33.4119 74.9304 34.6313 76.4346 34.6313Z" fill="#949390"/>
<defs>
<filter id="filter0_d_3869_2050" x="44.9785" y="20.1039" width="196.554" height="139.824" filterUnits="userSpaceOnUse" color-interpolation-filters="sRGB">
<feFlood flood-opacity="0" result="BackgroundImageFix"/>
<feColorMatrix in="SourceAlpha" type="matrix" values="0 0 0 0 0 0 0 0 0 0 0 0 0 0 0 0 0 0 127 0" result="hardAlpha"/>
<feOffset dy="2"/>
<feGaussianBlur stdDeviation="3"/>
<feColorMatrix type="matrix" values="0 0 0 0 0.576471 0 0 0 0 0.501961 0 0 0 0 0.396078 0 0 0 0.37 0"/>
<feBlend mode="normal" in2="BackgroundImageFix" result="effect1_dropShadow_3869_2050"/>
<feBlend mode="normal" in="SourceGraphic" in2="effect1_dropShadow_3869_2050" result="shape"/>
</filter>
<filter id="filter1_d_3869_2050" x="0" y="43.2595" width="68.3579" height="49.4492" filterUnits="userSpaceOnUse" color-interpolation-filters="sRGB">
<feFlood flood-opacity="0" result="BackgroundImageFix"/>
<feColorMatrix in="SourceAlpha" type="matrix" values="0 0 0 0 0 0 0 0 0 0 0 0 0 0 0 0 0 0 127 0" result="hardAlpha"/>
<feOffset dy="3"/>
<feGaussianBlur stdDeviation="4"/>
<feColorMatrix type="matrix" values="0 0 0 0 0.576471 0 0 0 0 0.501961 0 0 0 0 0.396078 0 0 0 0.27 0"/>
<feBlend mode="normal" in2="BackgroundImageFix" result="effect1_dropShadow_3869_2050"/>
<feBlend mode="normal" in="SourceGraphic" in2="effect1_dropShadow_3869_2050" result="shape"/>
</filter>
<filter id="filter2_d_3869_2050" x="278.62" y="94.6068" width="62.7485" height="45.8655" filterUnits="userSpaceOnUse" color-interpolation-filters="sRGB">
<feFlood flood-opacity="0" result="BackgroundImageFix"/>
<feColorMatrix in="SourceAlpha" type="matrix" values="0 0 0 0 0 0 0 0 0 0 0 0 0 0 0 0 0 0 127 0" result="hardAlpha"/>
<feOffset dy="3"/>
<feGaussianBlur stdDeviation="4"/>
<feColorMatrix type="matrix" values="0 0 0 0 0.576471 0 0 0 0 0.501961 0 0 0 0 0.396078 0 0 0 0.27 0"/>
<feBlend mode="normal" in2="BackgroundImageFix" result="effect1_dropShadow_3869_2050"/>
<feBlend mode="normal" in="SourceGraphic" in2="effect1_dropShadow_3869_2050" result="shape"/>
</filter>
<filter id="filter3_d_3869_2050" x="353.547" y="125.522" width="45.5317" height="33.4218" filterUnits="userSpaceOnUse" color-interpolation-filters="sRGB">
<feFlood flood-opacity="0" result="BackgroundImageFix"/>
<feColorMatrix in="SourceAlpha" type="matrix" values="0 0 0 0 0 0 0 0 0 0 0 0 0 0 0 0 0 0 127 0" result="hardAlpha"/>
<feOffset dy="1"/>
<feGaussianBlur stdDeviation="3"/>
<feColorMatrix type="matrix" values="0 0 0 0 0.576471 0 0 0 0 0.501961 0 0 0 0 0.396078 0 0 0 0.27 0"/>
<feBlend mode="normal" in2="BackgroundImageFix" result="effect1_dropShadow_3869_2050"/>
<feBlend mode="normal" in="SourceGraphic" in2="effect1_dropShadow_3869_2050" result="shape"/>
</filter>
<linearGradient id="paint0_linear_3869_2050" x1="313.948" y1="74.9035" x2="320.14" y2="76.6461" gradientUnits="userSpaceOnUse">
<stop stop-color="#EFE5D8"/>
<stop offset="1" stop-color="#D0BDA6"/>
</linearGradient>
<linearGradient id="paint1_linear_3869_2050" x1="384.869" y1="56.8589" x2="404.471" y2="62.3413" gradientUnits="userSpaceOnUse">
<stop stop-color="#EFE5D8"/>
<stop offset="1" stop-color="#D0BDA6"/>
</linearGradient>
<linearGradient id="paint2_linear_3869_2050" x1="338.99" y1="82.1442" x2="366.144" y2="118.418" gradientUnits="userSpaceOnUse">
<stop stop-color="#F0E8DD"/>
<stop offset="1" stop-color="#D8CABA"/>
</linearGradient>
<linearGradient id="paint3_linear_3869_2050" x1="305.241" y1="86.3205" x2="314.028" y2="89.3886" gradientUnits="userSpaceOnUse">
<stop stop-color="#F6F0E6"/>
<stop offset="1" stop-color="#E2D7C9"/>
</linearGradient>
<linearGradient id="paint4_linear_3869_2050" x1="360.996" y1="101.004" x2="384.379" y2="108.672" gradientUnits="userSpaceOnUse">
<stop stop-color="#F6F0E6"/>
<stop offset="1" stop-color="#E2D7C9"/>
</linearGradient>
<linearGradient id="paint5_linear_3869_2050" x1="143.195" y1="21.1472" x2="143.195" y2="153.306" gradientUnits="userSpaceOnUse">
<stop stop-color="#FDFEFF"/>
<stop offset="0.9964" stop-color="#F5F2EC"/>
</linearGradient>
<linearGradient id="paint6_linear_3869_2050" x1="34.1791" y1="62.0821" x2="34.162" y2="82.0694" gradientUnits="userSpaceOnUse">
<stop stop-color="white"/>
<stop offset="0.9964" stop-color="#F0E8DD"/>
</linearGradient>
<linearGradient id="paint7_linear_3869_2050" x1="40.4354" y1="60.8542" x2="48.8198" y2="70.0242" gradientUnits="userSpaceOnUse">
<stop stop-color="#D8CABA"/>
<stop offset="0.9942" stop-color="white" stop-opacity="0"/>
</linearGradient>
<linearGradient id="paint8_linear_3869_2050" x1="17.0584" y1="57.3037" x2="30.273" y2="62.475" gradientUnits="userSpaceOnUse">
<stop stop-color="#F0E8DD"/>
<stop offset="0.9942" stop-color="white" stop-opacity="0"/>
</linearGradient>
<linearGradient id="paint9_linear_3869_2050" x1="309.994" y1="111.948" x2="309.979" y2="129.794" gradientUnits="userSpaceOnUse">
<stop stop-color="white"/>
<stop offset="0.9964" stop-color="#F0E8DD"/>
</linearGradient>
<linearGradient id="paint10_linear_3869_2050" x1="315.58" y1="110.852" x2="323.066" y2="119.04" gradientUnits="userSpaceOnUse">
<stop stop-color="#D8CABA"/>
<stop offset="0.9942" stop-color="white" stop-opacity="0"/>
</linearGradient>
<linearGradient id="paint11_linear_3869_2050" x1="294.708" y1="107.682" x2="306.506" y2="112.299" gradientUnits="userSpaceOnUse">
<stop stop-color="#F0E8DD"/>
<stop offset="0.9942" stop-color="white" stop-opacity="0"/>
</linearGradient>
<linearGradient id="paint12_linear_3869_2050" x1="376.313" y1="139.374" x2="376.302" y2="152.175" gradientUnits="userSpaceOnUse">
<stop stop-color="white"/>
<stop offset="0.9964" stop-color="#F0E8DD"/>
</linearGradient>
<linearGradient id="paint13_linear_3869_2050" x1="380.32" y1="138.588" x2="385.689" y2="144.461" gradientUnits="userSpaceOnUse">
<stop stop-color="#D8CABA"/>
<stop offset="0.9942" stop-color="white" stop-opacity="0"/>
</linearGradient>
<linearGradient id="paint14_linear_3869_2050" x1="365.348" y1="136.314" x2="373.811" y2="139.626" gradientUnits="userSpaceOnUse">
<stop stop-color="#F0E8DD"/>
<stop offset="0.9942" stop-color="white" stop-opacity="0"/>
</linearGradient>
<linearGradient id="paint15_linear_3869_2050" x1="228.239" y1="23.9095" x2="56.9207" y2="30.9209" gradientUnits="userSpaceOnUse">
<stop stop-color="#606060"/>
<stop offset="1" stop-color="#7B7B7B"/>
</linearGradient>
</defs>
</svg>
