<svg width="48" height="48" viewBox="0 0 48 48" fill="none" xmlns="http://www.w3.org/2000/svg">
<path d="M26.88 42.83H26.85C26.16 42.58 25.57 42.13 25.14 41.53C25.13 41.52 25.12 41.5 25.12 41.49C25.12 41.48 25.11 41.46 25.1 41.44C24.74 41.47 24.37 41.5 24 41.5C15.44 41.5 8.5 34.56 8.5 26V13H39.5V25.31L39.93 25.17C39.93 25.17 40.02 25.12 40.06 25.09C40.1 25.05 40.12 25.01 40.14 24.97L40.59 23.59V23.56L40.61 23.53C40.82 22.93 41.21 22.42 41.72 22.06C41.81 22 41.91 21.94 42.01 21.89V12.75C43.18 12.26 44.01 11.1 44.01 9.75V7.25C44.01 5.46 42.55 4 40.76 4H7.25C5.46 4 4 5.46 4 7.25V9.75C4 11.1 4.83 12.26 6 12.75V26C6 35.94 14.06 44 24 44C25.59 44 27.13 43.77 28.59 43.39L26.91 42.84H26.88V42.83ZM6.5 9.75V7.25C6.5 6.84 6.84 6.5 7.25 6.5H40.75C41.16 6.5 41.5 6.84 41.5 7.25V9.75C41.5 10.16 41.16 10.5 40.75 10.5H7.25C6.84 10.5 6.5 10.16 6.5 9.75Z" fill="#212121"/>
<path d="M24 33C27.31 33 30 30.31 30 27C30 23.69 27.31 21 24 21C20.69 21 18 23.69 18 27C18 30.31 20.69 33 24 33Z" fill="#212121"/>
<path d="M24 38C17.92 38 13 33.08 13 27H12.99C12.99 20.91 17.91 15.99 23.99 15.99C30.07 15.99 34.99 20.91 34.99 26.99C34.99 27.52 34.94 28.03 34.87 28.54C34.34 28.63 33.84 28.83 33.4 29.14C32.8 29.57 32.35 30.16 32.11 30.85L32.09 30.88V30.91L31.23 33.51V33.55C31.1 33.94 30.87 34.32 30.57 34.62C30.27 34.94 29.88 35.18 29.47 35.32L26.91 36.15L26.88 36.17H26.85C26.15 36.42 25.56 36.86 25.14 37.46C25.03 37.62 24.93 37.79 24.85 37.96C24.57 37.98 24.29 38 24 38ZM24 35.5C28.69 35.5 32.5 31.69 32.5 27C32.5 22.31 28.69 18.5 24 18.5C19.31 18.5 15.5 22.31 15.5 27C15.5 31.69 19.31 35.5 24 35.5Z" fill="#212121"/>
<path d="M43.31 38.54H43.26L40.66 37.68C39.87 37.42 39.15 36.97 38.56 36.38C37.97 35.79 37.53 35.07 37.26 34.28L36.41 31.68C36.34 31.48 36.21 31.31 36.03 31.18C35.86 31.06 35.65 30.99 35.44 30.99C35.23 30.99 35.02 31.06 34.85 31.18C34.68 31.3 34.55 31.48 34.47 31.68L33.62 34.28L33.6 34.34C33.34 35.1 32.91 35.79 32.35 36.36C31.77 36.95 31.06 37.4 30.28 37.67L27.68 38.52C27.48 38.59 27.31 38.72 27.18 38.9C27.06 39.07 26.99 39.28 26.99 39.49C26.99 39.7 27.06 39.91 27.18 40.08C27.3 40.25 27.48 40.38 27.68 40.46L30.28 41.31C31.07 41.57 31.79 42.02 32.38 42.61C32.54 42.77 32.69 42.94 32.82 43.11C33.19 43.59 33.48 44.13 33.67 44.71L34.52 47.31C34.59 47.51 34.72 47.68 34.9 47.81C35.08 47.94 35.28 48 35.49 48C35.7 48 35.91 47.93 36.08 47.81C36.23 47.7 36.36 47.55 36.43 47.38C36.43 47.37 36.43 47.35 36.45 47.34C36.45 47.34 36.45 47.34 36.45 47.33L37.3 44.73C37.56 43.94 38.01 43.22 38.6 42.63C39.19 42.04 39.91 41.6 40.7 41.33L43.3 40.48C43.5 40.41 43.67 40.28 43.8 40.1C43.92 39.93 43.99 39.72 43.99 39.51C43.99 39.3 43.92 39.09 43.8 38.92C43.68 38.75 43.5 38.62 43.3 38.54H43.31Z" fill="#212121"/>
<path d="M47.64 27.99C47.74 28.03 47.83 28.1 47.9 28.19V28.21C47.97 28.3 48 28.41 48 28.52C48 28.63 47.97 28.74 47.9 28.83C47.84 28.92 47.75 28.99 47.64 29.03L46.26 29.48C45.84 29.62 45.47 29.86 45.15 30.17C44.83 30.48 44.6 30.86 44.46 31.28L44.01 32.66C44.01 32.66 43.99 32.69 43.99 32.7C43.95 32.79 43.89 32.86 43.81 32.92C43.72 32.99 43.61 33.02 43.5 33.02C43.39 33.02 43.28 32.99 43.19 32.92C43.1 32.86 43.03 32.77 42.99 32.66L42.54 31.28C42.4 30.86 42.16 30.48 41.85 30.17C41.65 29.97 41.43 29.8 41.18 29.67V29.65C41.04 29.57 40.89 29.51 40.74 29.46L39.36 29.01C39.26 28.97 39.17 28.9 39.1 28.81C39.03 28.72 39 28.61 39 28.5C39 28.39 39.03 28.28 39.1 28.19C39.16 28.1 39.25 28.03 39.36 27.99L40.74 27.54C41.16 27.4 41.53 27.16 41.84 26.85C42.14 26.53 42.37 26.16 42.51 25.74L42.96 24.36C43 24.26 43.07 24.16 43.16 24.1C43.25 24.03 43.36 24 43.47 24C43.58 24 43.69 24.03 43.78 24.1C43.87 24.16 43.94 24.25 43.98 24.36L44.43 25.74C44.57 26.16 44.81 26.54 45.12 26.85C45.43 27.17 45.81 27.4 46.23 27.54L47.61 27.99H47.64Z" fill="#212121"/>
</svg>
