<svg width="28" height="28" viewBox="0 0 28 28" fill="none" xmlns="http://www.w3.org/2000/svg">
<path d="M24.25 5.5C25.22 5.5 26 4.72 26 3.75C26 2.78 25.22 2 24.25 2H3.75C2.78 2 2 2.78 2 3.75C2 4.72 2.78 5.5 3.75 5.5H24.25Z" fill="#212121"/>
<path d="M18.77 20.79C18.91 20.65 19.02 20.47 19.09 20.27L19.54 18.89C18.4 20.75 16.35 21.99 14.01 21.99C10.42 21.99 7.51 19.08 7.51 15.49C7.51 11.9 10.42 8.98998 14.01 8.98998C17.6 8.98998 20.51 11.9 20.51 15.49C20.51 16.49 20.28 17.43 19.87 18.28C19.99 18.12 20.13 17.98 20.3 17.87C20.65 17.62 21.06 17.49 21.48 17.49C21.5415 17.49 21.5992 17.5013 21.6555 17.5124C21.6907 17.5193 21.7254 17.5261 21.76 17.53V17.48C21.76 17.16 21.86 16.85 22.04 16.59C22.23 16.32 22.49 16.13 22.79 16.02L23.59 15.76C23.59 15.76 23.66 15.72 23.7 15.69C23.73 15.66 23.76 15.61 23.78 15.56L24.03 14.8C24.15 14.46 24.35 14.2 24.61 14.02C24.74 13.93 24.88 13.87 25.03 13.82V6.97998H3V13.98C3 20.06 7.92 24.98 14 24.98C14.69 24.98 15.35 24.91 16 24.79C15.98 24.765 15.9575 24.745 15.935 24.725C15.9125 24.705 15.89 24.685 15.87 24.66C15.62 24.31 15.49 23.9 15.49 23.48C15.49 23.06 15.62 22.65 15.87 22.3C16.12 21.95 16.46 21.69 16.89 21.54L18.24 21.1C18.43 21.03 18.61 20.92 18.76 20.77L18.77 20.79Z" fill="#212121"/>
<path d="M9 15.5C9 12.74 11.24 10.5 14 10.5C16.76 10.5 19 12.74 19 15.5C19 18.26 16.76 20.5 14 20.5C11.24 20.5 9 18.26 9 15.5ZM10.5 15.5C10.5 17.43 12.07 19 14 19C15.93 19 17.5 17.43 17.5 15.5C17.5 13.57 15.93 12 14 12C12.07 12 10.5 13.57 10.5 15.5Z" fill="#212121"/>
<path d="M27.94 17.33C27.9 17.28 27.85 17.24 27.79 17.22H27.77L27 16.97C26.77 16.89 26.56 16.76 26.38 16.59C26.2 16.42 26.08 16.21 26 15.97L25.75 15.21C25.73 15.15 25.69 15.1 25.64 15.06C25.59 15.02 25.53 15 25.47 15C25.41 15 25.35 15.02 25.3 15.06C25.25 15.1 25.21 15.15 25.19 15.21L24.94 15.97C24.86 16.2 24.74 16.41 24.57 16.58C24.4 16.75 24.19 16.88 23.96 16.96L23.19 17.21C23.13 17.23 23.08 17.27 23.04 17.32C23 17.37 22.98 17.43 22.98 17.49C22.98 17.55 23 17.61 23.04 17.66C23.08 17.71 23.13 17.75 23.19 17.77L23.96 18.02C24.19 18.1 24.4 18.23 24.58 18.4C24.75 18.57 24.88 18.79 24.96 19.02L25.21 19.78C25.23 19.84 25.27 19.89 25.32 19.93C25.37 19.97 25.43 19.99 25.49 19.99C25.55 19.99 25.61 19.97 25.66 19.93C25.71 19.89 25.75 19.84 25.77 19.78L26.02 19.02C26.1 18.79 26.23 18.58 26.4 18.4C26.57 18.23 26.78 18.1 27.02 18.02L27.79 17.77C27.85 17.75 27.9 17.71 27.94 17.66C27.98 17.61 28 17.55 28 17.49C28 17.43 27.98 17.37 27.94 17.32V17.33Z" fill="#212121"/>
<path d="M25.61 22.99H25.63C25.73 23.03 25.82 23.1 25.89 23.19C25.96 23.28 25.99 23.39 25.99 23.5C25.99 23.61 25.96 23.72 25.89 23.81C25.83 23.9 25.74 23.97 25.63 24.01L24.25 24.46C23.83 24.6 23.45 24.84 23.14 25.15C22.82 25.46 22.59 25.84 22.45 26.26L22 27.64C21.99 27.65 21.99 27.66 21.99 27.67C21.95 27.76 21.88 27.84 21.8 27.9C21.71 27.97 21.6 28 21.49 28C21.38 28 21.27 27.97 21.18 27.9C21.09 27.84 21.02 27.75 20.98 27.64L20.53 26.26C20.43 25.95 20.28 25.66 20.08 25.41C20.01 25.31 19.93 25.22 19.85 25.14C19.54 24.83 19.16 24.59 18.74 24.45L17.36 24C17.26 23.96 17.17 23.89 17.1 23.8C17.03 23.71 17 23.6 17 23.49C17 23.38 17.03 23.27 17.1 23.18C17.16 23.09 17.25 23.02 17.36 22.98L18.74 22.53C19.16 22.39 19.53 22.15 19.84 21.84C20.13 21.54 20.36 21.17 20.51 20.77V20.74L20.96 19.36C21 19.26 21.07 19.16 21.16 19.1C21.25 19.03 21.36 19 21.47 19C21.58 19 21.69 19.03 21.78 19.1C21.87 19.16 21.94 19.25 21.98 19.36L22.43 20.74C22.57 21.16 22.81 21.54 23.12 21.85C23.43 22.17 23.81 22.4 24.23 22.54L25.61 22.99Z" fill="#212121"/>
</svg>
