<svg width="24" height="24" viewBox="0 0 24 24" fill="none" xmlns="http://www.w3.org/2000/svg">
<path d="M20.25 5.5C21.22 5.5 22 4.72 22 3.75C22 2.78 21.22 2 20.25 2H3.75C2.78 2 2 2.78 2 3.75C2 4.72 2.78 5.5 3.75 5.5H20.25Z" fill="#212121"/>
<path d="M11.995 9.5C9.7873 9.5027 8 11.2917 8 13.5C8 15.71 9.79 17.5 12 17.5C13.33 17.5 14.5 16.85 15.22 15.85L15.54 14.86C15.62 14.62 15.76 14.41 15.92 14.23C15.96 13.99 15.99 13.75 15.99 13.5C15.99 11.2917 14.2027 9.5027 11.995 9.5ZM12 16C10.62 16 9.5 14.88 9.5 13.5C9.5 12.12 10.62 11 12 11C13.38 11 14.5 12.12 14.5 13.5C14.5 14.88 13.38 16 12 16Z" fill="#212121"/>
<path d="M11.995 9.5L11.99 9.5H12L11.995 9.5Z" fill="#212121"/>
<path d="M11.5 19.5C11.5 19.92 11.63 20.33 11.88 20.68V20.67C12.13 21.02 12.47 21.28 12.87 21.42L13.96 21.78C13.33 21.92 12.67 22 12 22C7.03 22 3 17.97 3 13V7H21.03V9.83C20.88 9.87 20.74 9.94 20.61 10.03C20.35 10.21 20.15 10.47 20.03 10.81L19.78 11.57C19.76 11.62 19.73 11.67 19.7 11.7C19.66 11.73 19.59 11.77 19.59 11.77L18.79 12.03C18.49 12.14 18.23 12.33 18.04 12.6C17.86 12.86 17.76 13.17 17.76 13.49V13.54C17.7233 13.5359 17.6883 13.5285 17.6536 13.5212C17.6031 13.5105 17.5533 13.5 17.5 13.5C17.5 10.46 15.04 8 12 8C8.96 8 6.5 10.46 6.5 13.5C6.5 16.4 8.74 18.76 11.58 18.98C11.54 19.15 11.5 19.32 11.5 19.5Z" fill="#212121"/>
<path d="M23.94 13.33C23.9 13.28 23.85 13.24 23.79 13.22H23.77L23 12.97C22.77 12.89 22.56 12.76 22.38 12.59C22.2 12.42 22.08 12.21 22 11.97L21.75 11.21C21.73 11.15 21.69 11.1 21.64 11.06C21.59 11.02 21.53 11 21.47 11C21.41 11 21.35 11.02 21.3 11.06C21.25 11.1 21.21 11.15 21.19 11.21L20.94 11.97C20.86 12.2 20.74 12.41 20.57 12.58C20.4 12.75 20.19 12.88 19.96 12.96L19.19 13.21C19.13 13.23 19.08 13.27 19.04 13.32C19 13.37 18.98 13.43 18.98 13.49C18.98 13.55 19 13.61 19.04 13.66C19.08 13.71 19.13 13.75 19.19 13.77L19.96 14.02C20.19 14.1 20.4 14.23 20.58 14.4C20.75 14.57 20.88 14.79 20.96 15.02L21.21 15.78C21.23 15.84 21.27 15.89 21.32 15.93C21.37 15.97 21.43 15.99 21.49 15.99C21.55 15.99 21.61 15.97 21.66 15.93C21.71 15.89 21.75 15.84 21.77 15.78L22.02 15.02C22.1 14.79 22.23 14.58 22.4 14.4C22.57 14.23 22.78 14.1 23.02 14.02L23.79 13.77C23.85 13.75 23.9 13.71 23.94 13.66C23.98 13.61 24 13.55 24 13.49C24 13.43 23.98 13.37 23.94 13.32V13.33Z" fill="#212121"/>
<path d="M21.61 18.99H21.63C21.73 19.03 21.82 19.1 21.89 19.19C21.96 19.28 21.99 19.39 21.99 19.5C21.99 19.61 21.96 19.72 21.89 19.81C21.83 19.9 21.74 19.97 21.63 20.01L20.25 20.46C19.83 20.6 19.45 20.84 19.14 21.15C18.82 21.46 18.59 21.84 18.45 22.26L18 23.64C17.99 23.65 17.99 23.66 17.99 23.67C17.95 23.76 17.88 23.84 17.8 23.9C17.71 23.97 17.6 24 17.49 24C17.38 24 17.27 23.97 17.18 23.9C17.09 23.84 17.02 23.75 16.98 23.64L16.53 22.26C16.43 21.95 16.28 21.66 16.08 21.41C16.01 21.31 15.93 21.22 15.85 21.14C15.54 20.83 15.16 20.59 14.74 20.45L13.36 20C13.26 19.96 13.17 19.89 13.1 19.8C13.03 19.71 13 19.6 13 19.49C13 19.38 13.03 19.27 13.1 19.18C13.16 19.09 13.25 19.02 13.36 18.98L14.74 18.53C15.16 18.39 15.53 18.15 15.84 17.84C16.13 17.54 16.36 17.17 16.51 16.77V16.74L16.96 15.36C17 15.26 17.07 15.16 17.16 15.1C17.25 15.03 17.36 15 17.47 15C17.58 15 17.69 15.03 17.78 15.1C17.87 15.16 17.94 15.25 17.98 15.36L18.43 16.74C18.57 17.16 18.81 17.54 19.12 17.85C19.43 18.17 19.81 18.4 20.23 18.54L21.61 18.99Z" fill="#212121"/>
</svg>
