<svg width="20" height="20" viewBox="0 0 20 20" fill="none" xmlns="http://www.w3.org/2000/svg">
<path d="M16.5 5C17.33 5 18 4.33 18 3.5C18 2.67 17.33 2 16.5 2H3.5C2.67 2 2 2.67 2 3.5C2 4.33 2.67 5 3.5 5H16.5Z" fill="#212121"/>
<path d="M10.26 16.3198C10.09 16.0798 10 15.7898 10 15.4998C10 15.3198 10.04 15.1498 10.1 14.9898C10.0786 14.9898 10.06 14.9926 10.0428 14.9953C10.0278 14.9976 10.0139 14.9998 10 14.9998C7.79 14.9998 6 13.2098 6 10.9998C6 8.78977 7.79 6.99977 10 6.99977C12.21 6.99977 14 8.78977 14 10.9998C14 11.0298 14 11.0698 13.99 11.0998C14.04 11.0798 14.09 11.0598 14.14 11.0498C14.06 10.8798 14 10.6898 14 10.4998C14 10.2298 14.08 9.96977 14.24 9.74977C14.4 9.52977 14.61 9.35977 14.89 9.26977L15.64 9.02977C15.72 8.99977 15.8 8.94977 15.86 8.88977C15.92 8.82977 15.97 8.74977 16 8.66977L16.26 7.87977C16.35 7.61977 16.51 7.40977 16.74 7.24977C16.82 7.18977 16.92 7.14977 17.01 7.11977V6.00977H3V10.0098C3 13.8798 6.13 17.0098 10 17.0098C10.39 17.0098 10.77 16.9698 11.14 16.9098L10.95 16.8498C10.67 16.7498 10.43 16.5698 10.26 16.3298V16.3198Z" fill="#212121"/>
<path d="M7 11C7 12.66 8.34 14 10 14C11.66 14 13 12.66 13 11C13 9.34 11.66 8 10 8C8.34 8 7 9.34 7 11ZM8 11C8 9.9 8.9 9 10 9C11.1 9 12 9.9 12 11C12 12.1 11.1 13 10 13C8.9 13 8 12.1 8 11Z" fill="#212121"/>
<path d="M17.72 15.0998H17.7L16.63 14.7498C16.3 14.6398 16.01 14.4598 15.77 14.2198C15.53 13.9798 15.34 13.6798 15.24 13.3598L14.89 12.2898C14.86 12.2098 14.81 12.1398 14.74 12.0898C14.67 12.0398 14.58 12.0098 14.5 12.0098C14.42 12.0098 14.33 12.0398 14.26 12.0898C14.19 12.1398 14.13 12.2098 14.11 12.2898L13.76 13.3598C13.65 13.6798 13.47 13.9798 13.24 14.2198C13 14.4598 12.71 14.6498 12.39 14.7598L11.32 15.1098C11.24 15.1398 11.17 15.1898 11.12 15.2598C11.07 15.3298 11.04 15.4198 11.04 15.4998C11.04 15.5798 11.07 15.6698 11.12 15.7398C11.17 15.8098 11.24 15.8698 11.32 15.8898L12.39 16.2398C12.67 16.3298 12.92 16.4798 13.14 16.6698C13.16 16.6898 13.18 16.7073 13.2 16.7248C13.22 16.7423 13.24 16.7598 13.26 16.7798C13.46 16.9798 13.62 17.2198 13.73 17.4798C13.75 17.5298 13.77 17.5897 13.79 17.6497L14.14 18.7198C14.17 18.7898 14.21 18.8598 14.27 18.9098L14.29 18.9298C14.36 18.9798 14.45 19.0098 14.53 19.0098C14.61 19.0098 14.7 18.9798 14.77 18.9298C14.84 18.8798 14.9 18.8098 14.92 18.7298L15.27 17.6598C15.38 17.3298 15.56 17.0398 15.8 16.7998C16.04 16.5598 16.34 16.3698 16.66 16.2698L17.73 15.9198C17.81 15.8898 17.88 15.8398 17.93 15.7698C17.98 15.6998 18.01 15.6098 18.01 15.5298C18.01 15.4498 17.98 15.3598 17.93 15.2898C17.88 15.2198 17.81 15.1598 17.73 15.1398L17.72 15.0998Z" fill="#212121"/>
<path d="M19.79 10.22C19.85 10.24 19.9 10.28 19.94 10.33V10.32C19.98 10.37 20 10.43 20 10.49C20 10.55 19.98 10.61 19.94 10.66C19.9 10.71 19.85 10.75 19.79 10.77L19.02 11.02C18.79 11.1 18.57 11.23 18.4 11.4C18.23 11.58 18.1 11.79 18.02 12.02L17.77 12.78C17.75 12.84 17.71 12.89 17.66 12.93C17.61 12.97 17.55 12.99 17.49 12.99C17.43 12.99 17.37 12.97 17.32 12.93C17.27 12.89 17.23 12.84 17.21 12.78L16.96 12.02C16.88 11.79 16.75 11.57 16.58 11.4C16.4 11.23 16.19 11.1 15.96 11.02L15.19 10.77C15.13 10.75 15.08 10.71 15.04 10.66C15 10.61 14.98 10.55 14.98 10.49C14.98 10.43 15 10.37 15.04 10.32C15.08 10.27 15.13 10.23 15.19 10.21L15.96 9.96C16.19 9.88 16.4 9.75 16.57 9.58C16.74 9.41 16.86 9.2 16.94 8.97L17.19 8.21C17.21 8.15 17.25 8.1 17.3 8.06C17.35 8.02 17.41 8 17.47 8C17.53 8 17.59 8.02 17.64 8.06C17.69 8.1 17.73 8.15 17.75 8.21L18 8.97C18.08 9.21 18.2 9.42 18.38 9.59C18.56 9.76 18.77 9.89 19 9.97L19.77 10.22H19.79Z" fill="#212121"/>
</svg>
