<svg width="24" height="24" viewBox="0 0 24 24" fill="none" xmlns="http://www.w3.org/2000/svg">
<path d="M11.88 20.68C11.8548 20.6422 11.8375 20.6003 11.8207 20.5596C11.8108 20.5357 11.8011 20.5121 11.79 20.49C7.75 20.37 4.51 17.07 4.51 13V7H19.51V11.8L19.59 11.77C19.59 11.77 19.66 11.73 19.7 11.7C19.73 11.67 19.76 11.62 19.78 11.57L20.03 10.81C20.15 10.47 20.35 10.21 20.61 10.03C20.74 9.94 20.88 9.87 21.03 9.83V6.83C21.62 6.55 22.03 5.95 22.03 5.25V3.75C22.03 2.78 21.25 2 20.28 2H3.75C2.78 2 2 2.78 2 3.75V5.25C2 5.95 2.41 6.55 3 6.83V13C3 17.97 7.03 22 12 22C12.67 22 13.33 21.92 13.96 21.78L12.87 21.42C12.47 21.28 12.13 21.02 11.88 20.67V20.68ZM3.5 5.25V3.75C3.5 3.61 3.61 3.5 3.75 3.5H20.25C20.39 3.5 20.5 3.61 20.5 3.75V5.25C20.5 5.39 20.39 5.5 20.25 5.5H3.75C3.61 5.5 3.5 5.39 3.5 5.25Z" fill="#212121"/>
<path d="M16.29 13.88C16.64 13.63 17.05 13.5 17.47 13.5H17.5C17.5 10.46 15.04 8 12 8C8.96 8 6.5 10.46 6.5 13.5C6.5 16.54 8.74 18.76 11.58 18.98C11.64 18.74 11.73 18.52 11.88 18.32C12.13 17.97 12.47 17.71 12.9 17.56L14.25 17.12C14.44 17.05 14.62 16.94 14.77 16.79C14.91 16.65 15.02 16.47 15.09 16.27L15.23 15.84C14.5 16.84 13.33 17.49 12.01 17.49C9.8 17.49 8.01 15.7 8.01 13.49C8.01 11.28 9.8 9.49 12.01 9.49C14.22 9.49 16.01 11.28 16.01 13.49C16.01 13.74 15.98 13.98 15.94 14.22C16.05 14.09 16.16 13.97 16.31 13.87L16.29 13.88Z" fill="#212121"/>
<path d="M14.5 13.5C14.5 14.8807 13.3807 16 12 16C10.6193 16 9.5 14.8807 9.5 13.5C9.5 12.1193 10.6193 11 12 11C13.3807 11 14.5 12.1193 14.5 13.5Z" fill="#212121"/>
<path d="M23.94 13.33C23.9 13.28 23.85 13.24 23.79 13.22H23.77L23 12.97C22.77 12.89 22.56 12.76 22.38 12.59C22.2 12.42 22.08 12.21 22 11.97L21.75 11.21C21.73 11.15 21.69 11.1 21.64 11.06C21.59 11.02 21.53 11 21.47 11C21.41 11 21.35 11.02 21.3 11.06C21.25 11.1 21.21 11.15 21.19 11.21L20.94 11.97C20.86 12.2 20.74 12.41 20.57 12.58C20.4 12.75 20.19 12.88 19.96 12.96L19.19 13.21C19.13 13.23 19.08 13.27 19.04 13.32C19 13.37 18.98 13.43 18.98 13.49C18.98 13.55 19 13.61 19.04 13.66C19.08 13.71 19.13 13.75 19.19 13.77L19.96 14.02C20.19 14.1 20.4 14.23 20.58 14.4C20.75 14.57 20.88 14.79 20.96 15.02L21.21 15.78C21.23 15.84 21.27 15.89 21.32 15.93C21.37 15.97 21.43 15.99 21.49 15.99C21.55 15.99 21.61 15.97 21.66 15.93C21.71 15.89 21.75 15.84 21.77 15.78L22.02 15.02C22.1 14.79 22.23 14.58 22.4 14.4C22.57 14.23 22.78 14.1 23.02 14.02L23.79 13.77C23.85 13.75 23.9 13.71 23.94 13.66C23.98 13.61 24 13.55 24 13.49C24 13.43 23.98 13.37 23.94 13.32V13.33Z" fill="#212121"/>
<path d="M21.61 18.99H21.63C21.73 19.03 21.82 19.1 21.89 19.19C21.96 19.28 21.99 19.39 21.99 19.5C21.99 19.61 21.96 19.72 21.89 19.81C21.83 19.9 21.74 19.97 21.63 20.01L20.25 20.46C19.83 20.6 19.45 20.84 19.14 21.15C18.82 21.46 18.59 21.84 18.45 22.26L18 23.64C17.99 23.65 17.99 23.66 17.99 23.67C17.95 23.76 17.88 23.84 17.8 23.9C17.71 23.97 17.6 24 17.49 24C17.38 24 17.27 23.97 17.18 23.9C17.09 23.84 17.02 23.75 16.98 23.64L16.53 22.26C16.43 21.95 16.28 21.66 16.08 21.41C16.01 21.31 15.93 21.22 15.85 21.14C15.54 20.83 15.16 20.59 14.74 20.45L13.36 20C13.26 19.96 13.17 19.89 13.1 19.8C13.03 19.71 13 19.6 13 19.49C13 19.38 13.03 19.27 13.1 19.18C13.16 19.09 13.25 19.02 13.36 18.98L14.74 18.53C15.16 18.39 15.53 18.15 15.84 17.84C16.13 17.54 16.36 17.17 16.51 16.77V16.74L16.96 15.36C17 15.26 17.07 15.16 17.16 15.1C17.25 15.03 17.36 15 17.47 15C17.58 15 17.69 15.03 17.78 15.1C17.87 15.16 17.94 15.25 17.98 15.36L18.43 16.74C18.57 17.16 18.81 17.54 19.12 17.85C19.43 18.17 19.81 18.4 20.23 18.54L21.61 18.99Z" fill="#212121"/>
</svg>
