<svg width="16" height="16" viewBox="0 0 16 16" fill="none" xmlns="http://www.w3.org/2000/svg">
<path d="M9.82 8.17C9.94 8.11 10.07 8.06 10.2 8.04C10.08 7.84 10 7.61 10 7.37C10 7.19 10.05 7.03 10.11 6.87C9.57 6.33 8.82 6 8 6C6.34 6 5 7.34 5 9C5 10.07 5.56 11 6.4 11.53C6.56 11.37 6.74 11.23 6.97 11.15L7.57 10.95C6.67 10.75 6 9.96 6 9C6 7.9 6.9 7 8 7C8.81 7 9.5 7.48 9.82 8.18V8.17Z" fill="#212121"/>
<path d="M8 9.99C8.55 9.99 9 9.54 9 8.99C9 8.44 8.55 7.99 8 7.99C7.45 7.99 7 8.44 7 8.99C7 9.54 7.45 9.99 8 9.99Z" fill="#212121"/>
<path d="M6.26 13.31C6.11 13.09 6.03 12.84 6.01 12.58C4.24 11.81 3 10.05 3 7.99V4.99H12.17L12.25 4.73C12.34 4.47 12.5 4.26 12.73 4.1C12.8 4.05 12.88 4.02 12.96 3.99H2.5C2.22 3.99 2 3.77 2 3.49V2.49C2 2.21 2.22 1.99 2.5 1.99H13.5C13.78 1.99 14 2.21 14 2.49V3.49C14 3.67 13.9 3.82 13.76 3.91C13.93 3.95 14.09 4 14.24 4.11C14.39 4.21 14.5 4.35 14.59 4.51C14.84 4.24 15 3.89 15 3.5V2.5C15 1.67 14.33 1 13.5 1H2.5C1.67 1 1 1.66 1 2.49V3.49C1 4.14 1.42 4.7 2 4.9V7.99C2 11.07 4.32 13.61 7.32 13.95L6.95 13.83C6.67 13.73 6.43 13.55 6.26 13.31Z" fill="#212121"/>
<path d="M13.7 12.09L12.63 11.74C12.3 11.63 12.01 11.45 11.77 11.21C11.53 10.97 11.34 10.67 11.24 10.35L10.89 9.28C10.86 9.2 10.81 9.13 10.74 9.08C10.67 9.03 10.58 9 10.5 9C10.42 9 10.33 9.03 10.26 9.08C10.19 9.13 10.13 9.2 10.11 9.28L9.76 10.35C9.65 10.67 9.47 10.97 9.24 11.21C9 11.45 8.71 11.64 8.39 11.75L7.32 12.1C7.24 12.13 7.17 12.18 7.12 12.25C7.07 12.32 7.04 12.41 7.04 12.49C7.04 12.57 7.07 12.66 7.12 12.73C7.17 12.8 7.24 12.86 7.32 12.88L8.39 13.23C8.67 13.32 8.92 13.47 9.14 13.66C9.18 13.7 9.22 13.73 9.26 13.77C9.46 13.97 9.62 14.21 9.73 14.47C9.75 14.52 9.77 14.58 9.79 14.64L10.14 15.71C10.17 15.78 10.21 15.85 10.27 15.9C10.27 15.9 10.27 15.91 10.29 15.92C10.36 15.97 10.45 16 10.53 16C10.61 16 10.7 15.97 10.77 15.92C10.84 15.87 10.9 15.8 10.92 15.72L11.27 14.65C11.38 14.32 11.56 14.03 11.8 13.79C12.04 13.55 12.34 13.36 12.66 13.26L13.73 12.91C13.81 12.88 13.88 12.83 13.93 12.76C13.98 12.69 14.01 12.6 14.01 12.52C14.01 12.44 13.98 12.35 13.93 12.28C13.88 12.21 13.81 12.15 13.73 12.13V12.09H13.7Z" fill="#212121"/>
<path d="M15.94 7.19C15.9 7.14 15.85 7.1 15.79 7.08H15.77L15 6.83C14.77 6.75 14.56 6.62 14.38 6.45C14.2 6.28 14.08 6.07 14 5.83L13.75 5.07C13.73 5.01 13.69 4.96 13.64 4.92C13.59 4.88 13.53 4.86 13.47 4.86C13.41 4.86 13.35 4.88 13.3 4.92C13.25 4.96 13.21 5.01 13.19 5.07L12.94 5.83C12.86 6.06 12.74 6.27 12.57 6.44C12.4 6.61 12.19 6.74 11.96 6.82L11.19 7.07C11.13 7.09 11.08 7.13 11.04 7.18C11 7.23 10.98 7.29 10.98 7.35C10.98 7.41 11 7.47 11.04 7.52C11.08 7.57 11.13 7.61 11.19 7.63L11.96 7.88C12.19 7.96 12.4 8.09 12.58 8.26C12.75 8.43 12.88 8.65 12.96 8.88L13.21 9.64C13.23 9.7 13.27 9.75 13.32 9.79C13.37 9.83 13.43 9.85 13.49 9.85C13.55 9.85 13.61 9.83 13.66 9.79C13.71 9.75 13.75 9.7 13.77 9.64L14.02 8.88C14.1 8.65 14.23 8.44 14.4 8.26C14.57 8.08 14.78 7.96 15.02 7.88L15.79 7.63C15.85 7.61 15.9 7.57 15.94 7.52C15.98 7.47 16 7.41 16 7.35C16 7.29 15.98 7.23 15.94 7.18V7.19Z" fill="#212121"/>
</svg>
