<svg width="16" height="16" viewBox="0 0 16 16" fill="none" xmlns="http://www.w3.org/2000/svg">
<path d="M6.26 13.31C6.09 13.07 6 12.78 6 12.49C6 12.2 6.09 11.91 6.26 11.67C6.3 11.61 6.35 11.57 6.4 11.53C5.56 11 5 10.07 5 9C5 7.34 6.34 6 8 6C8.82 6 9.57 6.33 10.11 6.87C10.15 6.78 10.18 6.7 10.24 6.62C10.4 6.4 10.61 6.23 10.89 6.14L11.64 5.9C11.72 5.87 11.8 5.82 11.86 5.76C11.92 5.7 11.97 5.62 12 5.54L12.17 5.01H2V8.01C2 11.09 4.32 13.63 7.32 13.97L6.95 13.85C6.67 13.75 6.43 13.57 6.26 13.33V13.31Z" fill="#212121"/>
<path d="M6 8.99C6 9.95 6.67 10.75 7.57 10.94L8.02 10.79C8.2 10.73 8.36 10.63 8.49 10.5C8.62 10.37 8.72 10.21 8.78 10.03L9.14 8.94C9.24 8.66 9.42 8.42 9.66 8.25C9.71 8.21 9.77 8.19 9.82 8.16C9.51 7.47 8.81 6.98 8 6.98C6.9 6.98 6 7.88 6 8.98V8.99ZM9 8.99C9 9.54 8.55 9.99 8 9.99C7.45 9.99 7 9.54 7 8.99C7 8.44 7.45 7.99 8 7.99C8.55 7.99 9 8.44 9 8.99Z" fill="#212121"/>
<path d="M12.96 3.99C13.13 3.92 13.3 3.87 13.48 3.87C13.62 3.87 13.76 3.89 13.89 3.94C14.53 3.77 15 3.19 15 2.5C15 1.67 14.33 1 13.5 1H2.5C1.67 1 1 1.66 1 2.49C1 3.32 1.67 3.99 2.5 3.99H12.96Z" fill="#212121"/>
<path d="M13.7 12.09L12.63 11.74C12.3 11.63 12.01 11.45 11.77 11.21C11.53 10.97 11.34 10.67 11.24 10.35L10.89 9.28C10.86 9.2 10.81 9.13 10.74 9.08C10.67 9.03 10.58 9 10.5 9C10.42 9 10.33 9.03 10.26 9.08C10.19 9.13 10.13 9.2 10.11 9.28L9.76 10.35C9.65 10.67 9.47 10.97 9.24 11.21C9 11.45 8.71 11.64 8.39 11.75L7.32 12.1C7.24 12.13 7.17 12.18 7.12 12.25C7.07 12.32 7.04 12.41 7.04 12.49C7.04 12.57 7.07 12.66 7.12 12.73C7.17 12.8 7.24 12.86 7.32 12.88L8.39 13.23C8.67 13.32 8.92 13.47 9.14 13.66C9.18 13.7 9.22 13.73 9.26 13.77C9.46 13.97 9.62 14.21 9.73 14.47C9.75 14.52 9.77 14.58 9.79 14.64L10.14 15.71C10.17 15.78 10.21 15.85 10.27 15.9C10.27 15.9 10.27 15.91 10.29 15.92C10.36 15.97 10.45 16 10.53 16C10.61 16 10.7 15.97 10.77 15.92C10.84 15.87 10.9 15.8 10.92 15.72L11.27 14.65C11.38 14.32 11.56 14.03 11.8 13.79C12.04 13.55 12.34 13.36 12.66 13.26L13.73 12.91C13.81 12.88 13.88 12.83 13.93 12.76C13.98 12.69 14.01 12.6 14.01 12.52C14.01 12.44 13.98 12.35 13.93 12.28C13.88 12.21 13.81 12.15 13.73 12.13V12.09H13.7Z" fill="#212121"/>
<path d="M15.94 7.19C15.9 7.14 15.85 7.1 15.79 7.08H15.77L15 6.83C14.77 6.75 14.56 6.62 14.38 6.45C14.2 6.28 14.08 6.07 14 5.83L13.75 5.07C13.73 5.01 13.69 4.96 13.64 4.92C13.59 4.88 13.53 4.86 13.47 4.86C13.41 4.86 13.35 4.88 13.3 4.92C13.25 4.96 13.21 5.01 13.19 5.07L12.94 5.83C12.86 6.06 12.74 6.27 12.57 6.44C12.4 6.61 12.19 6.74 11.96 6.82L11.19 7.07C11.13 7.09 11.08 7.13 11.04 7.18C11 7.23 10.98 7.29 10.98 7.35C10.98 7.41 11 7.47 11.04 7.52C11.08 7.57 11.13 7.61 11.19 7.63L11.96 7.88C12.19 7.96 12.4 8.09 12.58 8.26C12.75 8.43 12.88 8.65 12.96 8.88L13.21 9.64C13.23 9.7 13.27 9.75 13.32 9.79C13.37 9.83 13.43 9.85 13.49 9.85C13.55 9.85 13.61 9.83 13.66 9.79C13.71 9.75 13.75 9.7 13.77 9.64L14.02 8.88C14.1 8.65 14.23 8.44 14.4 8.26C14.57 8.08 14.78 7.96 15.02 7.88L15.79 7.63C15.85 7.61 15.9 7.57 15.94 7.52C15.98 7.47 16 7.41 16 7.35C16 7.29 15.98 7.23 15.94 7.18V7.19Z" fill="#212121"/>
</svg>
