<svg width="28" height="28" viewBox="0 0 28 28" fill="none" xmlns="http://www.w3.org/2000/svg">
<path d="M15.52 23.37C15.52 23.41 15.5 23.5 15.5 23.5H15.49C15.49 23.92 15.62 24.33 15.87 24.68C15.89 24.705 15.9125 24.725 15.935 24.745C15.9575 24.765 15.98 24.785 16 24.81C15.35 24.93 14.69 25 14 25C7.92 25 3 20.08 3 14V6.83C2.41 6.55 2 5.95 2 5.25V3.75C2 2.78 2.78 2 3.75 2H24.28C25.25 2 26.03 2.78 26.03 3.75V5.25C26.03 5.95 25.62 6.55 25.03 6.83V13.83C24.88 13.88 24.74 13.94 24.61 14.03C24.35 14.21 24.15 14.47 24.03 14.81L23.78 15.57C23.76 15.62 23.73 15.67 23.7 15.7C23.66 15.73 23.59 15.77 23.59 15.77L23.32 15.86C23.43 15.26 23.5 14.64 23.5 14V7H4.5V14C4.5 19.25 8.75 23.5 14 23.5C14.52 23.5 15.02 23.45 15.52 23.37ZM3.5 3.75V5.25C3.5 5.39 3.61 5.5 3.75 5.5H24.25C24.39 5.5 24.5 5.39 24.5 5.25V3.75C24.5 3.61 24.39 3.5 24.25 3.5H3.75C3.61 3.5 3.5 3.61 3.5 3.75Z" fill="#212121"/>
<path d="M14 19C12.067 19 10.5 17.433 10.5 15.5C10.5 13.567 12.067 12 14 12C15.933 12 17.5 13.567 17.5 15.5C17.5 17.433 15.933 19 14 19Z" fill="#212121"/>
<path d="M7.5 15.5C7.5 11.91 10.41 9 14 9C17.59 9 20.5 11.91 20.5 15.5C20.5 16.5 20.26 17.44 19.86 18.29C19.73 18.47 19.62 18.66 19.53 18.87V18.9C18.39 20.76 16.34 22 14 22C10.41 22 7.5 19.09 7.5 15.5ZM19 15.5C19 12.74 16.76 10.5 14 10.5C11.24 10.5 9 12.74 9 15.5C9 18.26 11.24 20.5 14 20.5C16.76 20.5 19 18.26 19 15.5Z" fill="#212121"/>
<path d="M27.94 17.33C27.9 17.28 27.85 17.24 27.79 17.22H27.77L27 16.97C26.77 16.89 26.56 16.76 26.38 16.59C26.2 16.42 26.08 16.21 26 15.97L25.75 15.21C25.73 15.15 25.69 15.1 25.64 15.06C25.59 15.02 25.53 15 25.47 15C25.41 15 25.35 15.02 25.3 15.06C25.25 15.1 25.21 15.15 25.19 15.21L24.94 15.97C24.86 16.2 24.74 16.41 24.57 16.58C24.4 16.75 24.19 16.88 23.96 16.96L23.19 17.21C23.13 17.23 23.08 17.27 23.04 17.32C23 17.37 22.98 17.43 22.98 17.49C22.98 17.55 23 17.61 23.04 17.66C23.08 17.71 23.13 17.75 23.19 17.77L23.96 18.02C24.19 18.1 24.4 18.23 24.58 18.4C24.75 18.57 24.88 18.79 24.96 19.02L25.21 19.78C25.23 19.84 25.27 19.89 25.32 19.93C25.37 19.97 25.43 19.99 25.49 19.99C25.55 19.99 25.61 19.97 25.66 19.93C25.71 19.89 25.75 19.84 25.77 19.78L26.02 19.02C26.1 18.79 26.23 18.58 26.4 18.4C26.57 18.23 26.78 18.1 27.02 18.02L27.79 17.77C27.85 17.75 27.9 17.71 27.94 17.66C27.98 17.61 28 17.55 28 17.49C28 17.43 27.98 17.37 27.94 17.32V17.33Z" fill="#212121"/>
<path d="M25.61 22.99H25.63C25.73 23.03 25.82 23.1 25.89 23.19C25.96 23.28 25.99 23.39 25.99 23.5C25.99 23.61 25.96 23.72 25.89 23.81C25.83 23.9 25.74 23.97 25.63 24.01L24.25 24.46C23.83 24.6 23.45 24.84 23.14 25.15C22.82 25.46 22.59 25.84 22.45 26.26L22 27.64C21.99 27.65 21.99 27.66 21.99 27.67C21.95 27.76 21.88 27.84 21.8 27.9C21.71 27.97 21.6 28 21.49 28C21.38 28 21.27 27.97 21.18 27.9C21.09 27.84 21.02 27.75 20.98 27.64L20.53 26.26C20.43 25.95 20.28 25.66 20.08 25.41C20.01 25.31 19.93 25.22 19.85 25.14C19.54 24.83 19.16 24.59 18.74 24.45L17.36 24C17.26 23.96 17.17 23.89 17.1 23.8C17.03 23.71 17 23.6 17 23.49C17 23.38 17.03 23.27 17.1 23.18C17.16 23.09 17.25 23.02 17.36 22.98L18.74 22.53C19.16 22.39 19.53 22.15 19.84 21.84C20.13 21.54 20.36 21.17 20.51 20.77V20.74L20.96 19.36C21 19.26 21.07 19.16 21.16 19.1C21.25 19.03 21.36 19 21.47 19C21.58 19 21.69 19.03 21.78 19.1C21.87 19.16 21.94 19.25 21.98 19.36L22.43 20.74C22.57 21.16 22.81 21.54 23.12 21.85C23.43 22.17 23.81 22.4 24.23 22.54L25.61 22.99Z" fill="#212121"/>
</svg>
