<svg width="48" height="48" viewBox="0 0 48 48" fill="none" xmlns="http://www.w3.org/2000/svg">
<path d="M40.75 10.5C42.54 10.5 44 9.04 44 7.25C44 5.46 42.54 4 40.75 4H7.25C5.46 4 4 5.46 4 7.25C4 9.04 5.46 10.5 7.25 10.5H40.75Z" fill="#212121"/>
<path fill-rule="evenodd" clip-rule="evenodd" d="M24 18.5C19.31 18.5 15.5 22.31 15.5 27C15.5 31.69 19.31 35.5 24 35.5C28.69 35.5 32.5 31.69 32.5 27C32.5 22.31 28.69 18.5 24 18.5ZM24 33C20.69 33 18 30.31 18 27C18 23.69 20.69 21 24 21C27.31 21 30 23.69 30 27C30 30.31 27.31 33 24 33Z" fill="#212121"/>
<path d="M26.91 42.83H26.84C26.15 42.58 25.56 42.13 25.13 41.53C24.71 40.93 24.48 40.23 24.48 39.49C24.48 38.95 24.6 38.43 24.83 37.95C24.55 37.97 24.26 37.99 23.98 37.99C17.9 37.99 12.98 33.07 12.98 26.99C12.98 20.91 17.9 15.99 23.98 15.99C30.06 15.99 34.98 20.91 34.98 26.99C34.98 27.52 34.93 28.03 34.86 28.54C35.05 28.51 35.24 28.49 35.43 28.49C35.8 28.49 36.15 28.55 36.49 28.65V28.48C36.49 27.85 36.68 27.24 37.05 26.72C37.42 26.2 37.92 25.82 38.52 25.61H38.55L38.58 25.59L39.91 25.16C39.91 25.16 40 25.11 40.04 25.08C40.08 25.04 40.12 24.96 40.12 24.96L40.57 23.58V23.55L40.59 23.52C40.8 22.92 41.19 22.41 41.7 22.05C41.79 21.99 41.89 21.93 41.99 21.88V12.99H6V25.99C6 35.93 14.06 43.99 24 43.99C25.59 43.99 27.13 43.76 28.59 43.38L26.91 42.83Z" fill="#212121"/>
<path d="M43.3 38.54H43.26L40.66 37.68C39.87 37.42 39.15 36.97 38.56 36.38C37.97 35.79 37.53 35.07 37.26 34.28L36.41 31.68C36.34 31.48 36.21 31.31 36.03 31.18C35.86 31.06 35.65 30.99 35.44 30.99C35.23 30.99 35.02 31.06 34.85 31.18C34.68 31.3 34.55 31.48 34.47 31.68L33.62 34.28L33.6 34.34C33.34 35.1 32.91 35.79 32.35 36.36C31.77 36.95 31.06 37.4 30.28 37.67L27.68 38.52C27.48 38.59 27.31 38.72 27.18 38.9C27.06 39.07 26.99 39.28 26.99 39.49C26.99 39.7 27.06 39.91 27.18 40.08C27.3 40.25 27.48 40.38 27.68 40.46L30.28 41.31C31.07 41.57 31.79 42.02 32.38 42.61C32.54 42.77 32.69 42.94 32.82 43.11C33.19 43.59 33.48 44.13 33.67 44.71L34.52 47.31C34.59 47.51 34.72 47.68 34.9 47.81C35.08 47.94 35.28 48 35.49 48C35.7 48 35.91 47.93 36.08 47.81C36.23 47.7 36.36 47.55 36.43 47.38C36.43 47.38 36.43 47.35 36.45 47.34L37.3 44.73C37.56 43.94 38.01 43.22 38.6 42.63C39.19 42.04 39.91 41.6 40.7 41.33L43.3 40.48C43.5 40.41 43.67 40.28 43.8 40.1C43.92 39.93 43.99 39.72 43.99 39.51C43.99 39.3 43.92 39.09 43.8 38.92C43.68 38.75 43.5 38.62 43.3 38.54Z" fill="#212121"/>
<path d="M47.9 28.19C47.83 28.1 47.74 28.03 47.64 27.99H47.61L46.23 27.54C45.81 27.4 45.43 27.17 45.12 26.85C44.81 26.54 44.57 26.16 44.43 25.74L43.98 24.36C43.94 24.25 43.87 24.16 43.78 24.1C43.69 24.03 43.58 24 43.47 24C43.36 24 43.25 24.03 43.16 24.1C43.07 24.16 43 24.26 42.96 24.36L42.51 25.74C42.37 26.16 42.14 26.53 41.84 26.85C41.53 27.16 41.16 27.4 40.74 27.54L39.36 27.99C39.25 28.03 39.16 28.1 39.1 28.19C39.03 28.28 39 28.39 39 28.5C39 28.61 39.03 28.72 39.1 28.81C39.17 28.9 39.26 28.97 39.36 29.01L40.74 29.46C40.89 29.51 41.04 29.57 41.18 29.65V29.67C41.43 29.8 41.65 29.97 41.85 30.17C42.16 30.48 42.4 30.86 42.54 31.28L42.99 32.66C43.03 32.77 43.1 32.86 43.19 32.92C43.28 32.99 43.39 33.02 43.5 33.02C43.61 33.02 43.72 32.99 43.81 32.92C43.89 32.86 43.95 32.79 43.99 32.7C43.99 32.69 44.01 32.66 44.01 32.66L44.46 31.28C44.6 30.86 44.83 30.48 45.15 30.17C45.47 29.86 45.84 29.62 46.26 29.48L47.64 29.03C47.75 28.99 47.84 28.92 47.9 28.83C47.97 28.74 48 28.63 48 28.52C48 28.41 47.97 28.3 47.9 28.21V28.19Z" fill="#212121"/>
</svg>
