<svg width="230" height="160" viewBox="0 0 230 160" fill="none" xmlns="http://www.w3.org/2000/svg">
<g filter="url(#filter0_dd_7647_1625)">
<path d="M161.141 41.9009C161.141 40.7964 160.245 39.901 159.141 39.9009H64.7207C63.6161 39.9009 62.7207 40.7963 62.7207 41.9009V107.628C62.7209 108.733 63.6163 109.628 64.7207 109.628H159.141C160.245 109.628 161.14 108.733 161.141 107.628V41.9009ZM163.141 107.628C163.14 109.837 161.35 111.628 159.141 111.628H64.7207C62.5117 111.628 60.7209 109.837 60.7207 107.628V41.9009C60.7207 39.6917 62.5116 37.9009 64.7207 37.9009H159.141C161.35 37.901 163.141 39.6918 163.141 41.9009V107.628Z" fill="url(#paint0_linear_7647_1625)"/>
</g>
<g filter="url(#filter1_dd_7647_1625)">
<path d="M64.043 105.535C65.6996 105.535 67.043 106.878 67.043 108.535V113.357C67.0426 115.014 65.6994 116.357 64.043 116.357H59.2207C57.5641 116.357 56.2211 115.014 56.2207 113.357V108.535C56.2207 106.878 57.5638 105.535 59.2207 105.535H64.043ZM164.914 105.535C166.571 105.535 167.914 106.878 167.914 108.535V113.357C167.914 115.014 166.57 116.357 164.914 116.357H160.092C158.435 116.357 157.092 115.014 157.092 113.357V108.535C157.092 106.878 158.435 105.535 160.092 105.535H164.914ZM64.043 33C65.6996 33.0003 67.043 34.3433 67.043 36V40.8223C67.0427 42.4788 65.6995 43.822 64.043 43.8223H59.2207C57.564 43.8223 56.221 42.4789 56.2207 40.8223V36C56.2207 34.3431 57.5638 33 59.2207 33H64.043ZM164.914 33C166.571 33.0003 167.914 34.3433 167.914 36V40.8223C167.914 42.4788 166.571 43.822 164.914 43.8223H160.092C158.435 43.8221 157.092 42.4788 157.092 40.8223V36C157.092 34.3433 158.435 33.0002 160.092 33H164.914Z" fill="url(#paint1_linear_7647_1625)" shape-rendering="crispEdges"/>
<path d="M64.043 105.535L64.043 105.035H64.043V105.535ZM67.043 113.357L67.543 113.358V113.357H67.043ZM64.043 116.357V116.857H64.043L64.043 116.357ZM56.2207 113.357H55.7207V113.358L56.2207 113.357ZM164.914 105.535L164.914 105.035H164.914V105.535ZM167.914 113.357L168.414 113.358V113.357H167.914ZM164.914 116.357V116.857H164.914L164.914 116.357ZM160.092 116.357L160.092 116.857H160.092V116.357ZM157.092 113.357H156.592V113.358L157.092 113.357ZM160.092 105.535V105.035H160.092L160.092 105.535ZM64.043 33L64.043 32.5H64.043V33ZM67.043 40.8223L67.543 40.8223V40.8223H67.043ZM64.043 43.8223V44.3223H64.043L64.043 43.8223ZM56.2207 40.8223H55.7207V40.8223L56.2207 40.8223ZM164.914 33L164.914 32.5H164.914V33ZM167.914 40.8223L168.414 40.8223V40.8223H167.914ZM164.914 43.8223V44.3223H164.914L164.914 43.8223ZM160.092 43.8223L160.092 44.3223H160.092V43.8223ZM157.092 40.8223H156.592V40.8223L157.092 40.8223ZM160.092 33V32.5H160.092L160.092 33ZM64.043 105.535L64.0429 106.035C65.4235 106.035 66.543 107.155 66.543 108.535H67.043H67.543C67.543 106.602 65.9757 105.035 64.043 105.035L64.043 105.535ZM67.043 108.535H66.543V113.357H67.043H67.543V108.535H67.043ZM67.043 113.357L66.543 113.357C66.5427 114.738 65.4232 115.857 64.0429 115.857L64.043 116.357L64.043 116.857C65.9756 116.857 67.5425 115.29 67.543 113.358L67.043 113.357ZM64.043 116.357V115.857H59.2207V116.357V116.857H64.043V116.357ZM59.2207 116.357V115.857C57.8403 115.857 56.721 114.738 56.7207 113.357L56.2207 113.357L55.7207 113.358C55.7211 115.29 57.2878 116.857 59.2207 116.857V116.357ZM56.2207 113.357H56.7207V108.535H56.2207H55.7207V113.357H56.2207ZM56.2207 108.535H56.7207C56.7207 107.154 57.84 106.035 59.2207 106.035V105.535V105.035C57.2877 105.035 55.7207 106.602 55.7207 108.535H56.2207ZM59.2207 105.535V106.035H64.043V105.535V105.035H59.2207V105.535ZM164.914 105.535L164.914 106.035C166.295 106.035 167.414 107.155 167.414 108.535H167.914H168.414C168.414 106.602 166.847 105.035 164.914 105.035L164.914 105.535ZM167.914 108.535H167.414V113.357H167.914H168.414V108.535H167.914ZM167.914 113.357L167.414 113.357C167.414 114.738 166.294 115.857 164.914 115.857L164.914 116.357L164.914 116.857C166.847 116.857 168.414 115.29 168.414 113.358L167.914 113.357ZM164.914 116.357V115.857H160.092V116.357V116.857H164.914V116.357ZM160.092 116.357L160.092 115.857C158.712 115.857 157.592 114.738 157.592 113.357L157.092 113.357L156.592 113.358C156.592 115.29 158.159 116.857 160.092 116.857L160.092 116.357ZM157.092 113.357H157.592V108.535H157.092H156.592V113.357H157.092ZM157.092 108.535H157.592C157.592 107.155 158.711 106.035 160.092 106.035L160.092 105.535L160.092 105.035C158.159 105.035 156.592 106.602 156.592 108.535H157.092ZM160.092 105.535V106.035H164.914V105.535V105.035H160.092V105.535ZM64.043 33L64.0429 33.5C65.4235 33.5002 66.543 34.6195 66.543 36H67.043H67.543C67.543 34.0671 65.9757 32.5003 64.043 32.5L64.043 33ZM67.043 36H66.543V40.8223H67.043H67.543V36H67.043ZM67.043 40.8223L66.543 40.8222C66.5428 42.2026 65.4233 43.3221 64.0429 43.3223L64.043 43.8223L64.043 44.3223C65.9756 44.322 67.5427 42.7549 67.543 40.8223L67.043 40.8223ZM64.043 43.8223V43.3223H59.2207V43.8223V44.3223H64.043V43.8223ZM59.2207 43.8223V43.3223C57.8402 43.3223 56.7209 42.2028 56.7207 40.8222L56.2207 40.8223L55.7207 40.8223C55.721 42.755 57.2878 44.3223 59.2207 44.3223V43.8223ZM56.2207 40.8223H56.7207V36H56.2207H55.7207V40.8223H56.2207ZM56.2207 36H56.7207C56.7207 34.6193 57.84 33.5 59.2207 33.5V33V32.5C57.2877 32.5 55.7207 34.067 55.7207 36H56.2207ZM59.2207 33V33.5H64.043V33V32.5H59.2207V33ZM164.914 33L164.914 33.5C166.295 33.5002 167.414 34.6195 167.414 36H167.914H168.414C168.414 34.0671 166.847 32.5003 164.914 32.5L164.914 33ZM167.914 36H167.414V40.8223H167.914H168.414V36H167.914ZM167.914 40.8223L167.414 40.8222C167.414 42.2026 166.294 43.3221 164.914 43.3223L164.914 43.8223L164.914 44.3223C166.847 44.322 168.414 42.7549 168.414 40.8223L167.914 40.8223ZM164.914 43.8223V43.3223H160.092V43.8223V44.3223H164.914V43.8223ZM160.092 43.8223L160.092 43.3223C158.711 43.3221 157.592 42.2026 157.592 40.8222L157.092 40.8223L156.592 40.8223C156.592 42.7549 158.159 44.322 160.092 44.3223L160.092 43.8223ZM157.092 40.8223H157.592V36H157.092H156.592V40.8223H157.092ZM157.092 36H157.592C157.592 34.6195 158.711 33.5002 160.092 33.5L160.092 33L160.092 32.5C158.159 32.5002 156.592 34.0671 156.592 36H157.092ZM160.092 33V33.5H164.914V33V32.5H160.092V33Z" fill="url(#paint2_linear_7647_1625)"/>
</g>
<g filter="url(#filter2_dd_7647_1625)">
<path d="M146.584 101.021C146.12 101.083 146.12 100.897 145.996 100.555C145.625 99.2492 145.78 97.8816 145.533 96.5761C145.131 94.4625 145.316 92.3489 144.852 90.2664C144.11 86.7852 143.956 83.304 144.698 79.7916C145.223 77.2118 145.564 74.5698 145.44 71.8967C145.378 70.6534 145.254 69.4723 144.914 68.2601C144.636 67.2965 144.481 66.3641 144.729 65.2762C144.945 64.2194 144.481 63.0382 144.327 61.8882C144.172 60.8936 144.11 60.2719 145.502 59.93C146.708 59.6503 148.192 59.7124 149.119 58.407C149.892 57.288 150.511 56.3245 150.078 54.8636C149.46 52.7811 149.15 50.6364 148.532 48.5539C147.573 45.3213 146.275 42.4617 142.904 41.0319C141.977 40.6279 141.142 40.0373 140.245 39.5711C139.905 39.3846 139.627 39.1981 139.812 38.7629C139.936 38.4832 140.029 38.1102 140.462 38.2345C142.008 38.6697 141.173 37.2399 141.08 37.1466C140.431 36.2763 141.235 35.4993 141.142 34.8465C141.018 33.883 142.193 32.7951 140.771 31.8315C140.369 31.5518 140.153 30.4018 139.782 29.6558C139.318 28.7233 138.668 27.9773 137.803 27.3868C137.648 27.2935 137.37 27.1381 137.37 27.0138C137.432 26.33 137.153 26.1746 136.535 26.2678C135.607 26.3921 134.556 26.3921 134.092 27.3246C133.381 28.7855 132.608 30.2774 132.299 31.8315C132.052 33.0127 132.175 34.3803 132.794 35.5304C133.01 35.9033 133.226 36.2763 133.412 36.6804C134.401 38.6386 133.969 39.4467 131.742 39.6643C130.506 39.7886 129.547 40.5968 128.403 40.8765C128.341 40.8765 128.279 41.0319 128.248 41.0319C126.764 40.8144 126.208 42.3374 125.002 42.7104C123.981 43.0212 123.363 43.8915 122.683 44.6375C122.343 45.0105 121.972 45.2902 121.539 45.5389C121.539 45.5078 121.539 45.4767 121.539 45.4145C121.229 43.9226 120.673 42.4928 120.611 40.9387C120.549 39.7265 119.498 39.3224 118.632 38.9805C117.086 38.3899 115.664 37.4575 113.84 37.4575C112.603 37.4575 112.201 36.3074 112.881 35.2506C113.067 34.9709 113.221 34.5979 113.499 34.4114C114.829 33.4478 114.427 31.8937 114.829 30.5883C114.891 30.3707 114.922 29.9977 114.798 29.9044C113.87 29.0963 114.334 28.0395 114.211 27.0759C114.087 25.9881 112.634 24.4339 111.366 24.061C110.748 23.8745 110.036 23.8434 109.665 23.1906C109.511 22.9109 109.263 23.0042 109.047 23.0663C108.181 23.2839 107.285 23.4704 106.45 23.7812C105.924 23.9677 105.924 24.5583 105.769 25.0556C105.337 26.2056 104.533 29.0652 104.78 29.9355C104.996 30.7126 104.873 31.614 105.46 32.2978C105.831 32.7329 105.924 33.3546 105.8 33.8519C105.491 34.8155 105.553 35.7168 105.955 36.6182C106.202 37.1777 105.831 37.3953 105.522 37.675C104.44 38.6075 103.203 39.3535 101.904 39.8508C100.544 40.3792 100.049 41.3117 99.8637 42.586C99.2453 46.72 98.6887 50.854 98.6578 55.0501C98.6578 55.1744 98.596 55.2677 98.565 55.392C97.1736 55.0812 96.6789 54.2419 96.246 52.9365C95.3184 50.1391 94.7928 47.2173 93.5251 44.5442C92.6902 42.7725 90.9896 42.3374 89.2581 41.9333C88.887 41.8401 88.4542 41.9022 87.9594 41.4671C89.66 41.2184 89.7837 40.0684 89.5982 38.8251C89.4436 37.675 90.3712 36.8358 90.3403 35.7168C90.3403 34.9709 90.2475 34.4114 89.5054 34.0695C88.7324 33.7276 88.3305 33.137 88.6088 32.2667C88.7015 31.9559 88.6088 31.7694 88.3614 31.5518C85.7641 29.5004 82.1155 29.5625 79.5801 31.7694C79.2709 32.0491 78.6834 32.2978 79.24 33.0438C79.5182 33.4167 78.6525 33.7587 78.1887 33.9141C77.292 34.2249 76.3644 34.4735 75.8078 35.3128C75.6223 35.6236 74.973 36.0588 76.0861 36.0588C76.7354 36.0588 76.1789 36.8047 76.2407 37.2088C76.2716 37.4575 75.7769 37.9548 76.0243 37.9548C76.8282 37.9548 76.8282 39.2913 77.7249 38.9183C78.838 38.4521 78.7143 39.7265 79.2709 40.0373C79.7347 40.317 79.3018 40.8144 79.0544 41.1563C78.6834 41.6536 78.436 42.1509 79.209 42.4306C80.2294 42.8036 79.4873 43.1766 79.1781 43.332C76.4572 44.7929 75.0657 47.2484 74.4783 50.0769C74.0145 52.2527 74.2309 54.5528 74.1691 56.8218C74.1691 57.8786 74.2 58.9665 74.2927 60.0233C74.3546 60.9868 74.6638 61.826 75.5605 62.4166C76.3026 62.9139 76.4262 64.3748 75.8697 65.0586C75.1894 65.8357 74.973 66.7681 74.9421 67.7938C74.9421 68.602 75.2822 68.8196 75.9624 68.4777C77.0446 67.9182 77.0137 68.3533 77.0446 69.348C77.1065 71.5548 76.89 73.7617 76.8282 75.9685C76.7664 77.8335 77.292 79.7295 78.5597 80.9728C79.2709 81.6566 79.7965 82.2782 80.0748 83.1796C80.1985 83.5526 80.1985 83.8945 79.9511 84.1743C77.4775 86.9095 76.8591 90.6083 75.0039 93.6544C74.1381 95.0531 73.3651 96.514 73.3342 98.2546C73.3342 98.6276 73.2105 99.0316 73.3342 99.4046C73.6434 100.337 73.5816 101.27 73.3342 102.202C72.8704 104.191 73.8908 105.652 75.2513 106.864C75.8078 107.362 76.6427 107.455 77.3848 107.082C78.0959 106.709 77.8486 105.994 77.8486 105.404C77.8486 105.279 77.8176 105.155 77.7867 105.062C77.6218 103.715 78.2093 103 79.5492 102.917C80.0439 102.917 80.5695 102.886 80.6004 102.233C80.7241 100.275 81.8682 98.7208 82.6721 97.0113C83.1359 96.0477 83.5688 95.1153 83.7852 94.0274C84.1872 91.9138 85.2385 90.0177 86.1661 88.1528C87.1246 86.2257 87.3101 84.2364 87.5884 82.2161C87.6502 81.7809 87.7121 81.3769 87.743 80.9417C87.8667 80.9417 87.9904 80.9417 88.114 80.9417C88.2996 82.0917 88.4542 83.2418 88.6397 84.3608C89.2581 88.588 89.0726 92.8462 89.3818 97.0734C89.5364 99.3425 90.1548 101.58 90.062 103.88C90.0311 104.782 90.8041 105.155 92.0409 104.844C93.2159 104.533 94.3908 104.222 95.5967 104.16C96.2151 104.129 96.8335 104.005 97.4828 103.974C98.2867 103.912 98.7196 103.476 98.7196 102.668C98.7196 101.798 98.0394 102.016 97.5137 101.953C96.3079 101.86 95.4112 100.772 95.2566 99.3114C95.1329 97.9438 95.473 96.6383 95.5349 95.3018C95.6276 91.9138 95.5658 88.5258 95.7513 85.1378C95.9059 82.0917 96.4315 79.0146 95.9677 75.9374C95.9677 75.7509 95.9677 75.5334 95.9677 75.3469C96.2151 73.0468 96.8953 72.5805 99.1525 72.9846C99.74 73.1089 99.6472 73.513 99.74 73.8549C100.018 74.8185 100.482 75.5023 101.564 75.5644C102.43 75.5955 102.925 74.9428 102.585 74.1347C102.399 73.7306 102.585 73.2022 102.77 73.2333C104.162 73.2954 103.327 72.4562 103.358 71.9589C103.358 71.3372 102.399 70.5913 103.296 70.2183C103.729 70.0318 103.914 71.1507 104.192 71.6791C105.429 74.0103 106.635 76.3415 108.459 78.2997C109.511 79.4187 110.16 80.662 109.665 82.2472C109.634 82.4026 109.573 82.558 109.604 82.7134C110.191 85.2621 109.016 87.5001 108.274 89.8002C107.779 91.3854 108.027 93.0017 107.81 94.6179C107.532 96.6694 107.223 98.6586 106.45 100.586C105.955 101.891 105.769 103.321 105.46 104.689C105.275 105.528 105.738 106.056 106.511 106.274C107.161 106.46 107.81 106.616 107.81 107.517C107.81 107.766 108.027 107.952 108.274 108.014C109.511 108.325 110.778 108.419 111.953 107.921C112.572 107.641 112.572 107.206 111.953 106.802C110.315 105.777 109.604 103.539 110.346 101.767C110.933 100.306 111.521 98.8451 112.139 97.3843C112.232 97.1667 112.294 96.8869 112.572 96.8869C112.943 96.8869 112.943 97.2289 113.036 97.4464C113.685 99.0938 113.623 100.897 114.087 102.606C114.18 102.948 113.87 103.166 113.716 103.445C113.097 104.751 113.499 105.372 114.891 105.621C117.55 106.118 118.199 104.782 117.674 102.451C117.086 99.7465 116.746 97.0113 116.901 94.2449C117.117 90.9191 116.808 87.6244 116.53 84.2986C116.344 81.9053 117.179 79.7295 118.076 77.5848C119.312 74.5698 120.642 71.5548 120.828 68.2912L121.477 70.1872C121.291 70.5913 121.106 70.9643 120.951 71.3683C120.735 71.8967 120.271 72.4251 120.828 72.9846C121.322 73.4819 121.941 73.6995 122.652 73.6063L123.425 75.8131C123.981 74.5076 124.383 73.14 124.878 71.7102C125.435 72.4562 125.527 73.3265 125.806 74.1036C126.702 76.7767 127.754 79.4187 128.279 82.2161C128.65 84.2053 128.929 86.1946 128.527 88.2771C127.754 92.2868 128.156 96.3896 128.372 100.43C128.465 101.922 128.619 103.414 128.496 104.906C128.496 105.217 128.403 105.59 128.527 105.839C129.052 106.927 129.485 107.952 128.743 109.133C128.465 109.569 128.836 110.004 129.361 109.973C130.351 109.879 131.402 110.252 132.361 109.631C132.639 109.475 133.041 109.569 133.412 109.537C133.721 109.537 134.061 109.569 134.216 109.196C134.401 108.823 134.278 108.45 133.999 108.232C133.134 107.455 133.165 106.429 132.855 105.435C132.268 103.601 133.474 101.953 132.855 100.182C132.237 98.41 133.381 96.6383 133.35 94.8355C133.257 90.2353 135.236 85.977 135.453 81.439C135.515 79.916 135.453 78.3619 135.886 76.8699C136.504 76.9321 136.349 77.4294 136.411 77.7713C137.153 80.8174 137.679 83.9567 138.668 86.9095C139.782 90.2664 140.06 93.7476 140.926 97.1356C141.266 98.4411 142.193 99.4668 142.379 100.834C142.595 102.575 143.276 104.285 142.843 106.087C142.564 107.144 143.09 107.486 144.141 107.424C145.131 107.362 145.966 107.113 146.708 106.429C147.171 105.994 147.697 105.652 148.192 105.279C149.336 104.44 149.676 103.414 149.212 102.171C148.748 100.928 148.315 100.679 146.615 100.897L146.584 101.021ZM144.543 53.7135C145.347 54.8325 145.316 56.4799 144.358 57.2258C144.698 55.9825 144.11 54.8947 144.543 53.7135ZM104.316 55.1744C104.1 55.8271 103.729 56.4177 103.327 57.2258C103.419 56.2934 103.45 55.6096 103.543 54.9257C103.574 54.6149 103.389 54.0244 103.791 54.0554C104.316 54.0865 104.44 54.7393 104.285 55.1744H104.316ZM126.146 49.0823C126.764 49.1755 127.537 48.9579 127.321 49.9215C126.826 52.0973 127.785 54.0244 128.279 56.0136C128.434 56.5731 128.156 56.915 127.815 57.2569C127.506 57.5677 127.259 57.3191 127.012 57.1015C126.64 56.7596 126.177 56.6974 125.682 56.7285C125.682 56.7285 125.682 56.7285 125.651 56.7285C125.187 55.8893 124.662 55.0812 124.6 54.0554C124.6 54.0244 124.6 53.9622 124.538 53.9622C123.394 53.2162 123.27 51.9729 122.992 50.8229C122.992 50.7918 123.023 50.7607 123.054 50.7296C123.703 49.362 125.187 49.6107 126.115 49.0823H126.146Z" fill="#4D4D4D" fill-opacity="0.95" shape-rendering="crispEdges"/>
<path d="M136.87 26.9911L136.872 26.9687C136.882 26.8582 136.876 26.7875 136.87 26.745C136.817 26.7407 136.734 26.7438 136.61 26.7626L136.602 26.7636C136.087 26.8326 135.67 26.855 135.284 26.9716C134.935 27.0773 134.693 27.2407 134.54 27.5468C133.818 29.0306 133.083 30.454 132.789 31.9286L132.788 31.9335C132.562 33.015 132.679 34.2609 133.235 35.2939C133.444 35.6548 133.666 36.0379 133.859 36.455L134.037 36.829C134.201 37.1948 134.317 37.5366 134.374 37.8534C134.451 38.2805 134.425 38.6986 134.221 39.0673C134.017 39.4355 133.675 39.6804 133.27 39.8446C132.868 40.0073 132.37 40.1045 131.791 40.161L131.792 40.162C131.265 40.2151 130.783 40.4149 130.251 40.665C129.778 40.8872 129.242 41.1605 128.662 41.3232C128.648 41.3415 128.625 41.3704 128.594 41.3984C128.573 41.4172 128.537 41.4465 128.487 41.4726C128.438 41.4986 128.355 41.5321 128.248 41.5321H128.212L128.176 41.5263C127.652 41.4494 127.286 41.6589 126.843 42.0321C126.645 42.1989 126.364 42.4611 126.117 42.6542C125.848 42.8648 125.532 43.07 125.15 43.1884H125.148C124.739 43.313 124.395 43.5537 124.06 43.873C123.708 44.2077 123.422 44.5688 123.052 44.9745C122.671 45.3923 122.257 45.7032 121.788 45.9726L121.039 46.4023V45.4706C120.888 44.7535 120.686 44.0732 120.497 43.3222C120.309 42.5745 120.145 41.7905 120.112 40.9638C120.089 40.5272 119.9 40.2494 119.615 40.0273C119.304 39.7847 118.897 39.6225 118.448 39.4452C118.049 39.2923 117.659 39.1183 117.282 38.9491C116.9 38.7774 116.532 38.6111 116.156 38.4628C115.409 38.1677 114.664 37.957 113.84 37.9569C113.05 37.9569 112.436 37.5747 112.178 36.9384C111.932 36.3312 112.057 35.6081 112.461 34.9804L112.464 34.9745C112.501 34.9185 112.54 34.8546 112.585 34.7763C112.628 34.7022 112.679 34.6134 112.734 34.5273C112.839 34.3626 112.988 34.1577 113.206 34.0068L113.385 33.8612C113.769 33.5097 113.928 33.0739 114.02 32.5429C114.074 32.2254 114.1 31.9091 114.142 31.5439C114.182 31.1961 114.236 30.8201 114.349 30.4511C114.357 30.4207 114.366 30.3785 114.373 30.331C114.38 30.2841 114.382 30.2389 114.382 30.2011C113.851 29.6924 113.721 29.1046 113.703 28.5644C113.695 28.2958 113.714 28.0177 113.725 27.787C113.736 27.5432 113.74 27.3339 113.715 27.1396L113.714 27.1327C113.67 26.747 113.362 26.1833 112.854 25.6425C112.354 25.1109 111.746 24.6941 111.225 24.5409L111.222 24.54C111.083 24.4982 110.942 24.4657 110.772 24.4237C110.61 24.3839 110.428 24.3356 110.248 24.2685C109.9 24.1383 109.542 23.9247 109.282 23.5185C109.278 23.5198 109.272 23.5218 109.267 23.5234C109.255 23.5268 109.242 23.5301 109.229 23.5341C109.215 23.538 109.2 23.5424 109.185 23.5468L109.169 23.5507C108.276 23.7753 107.425 23.9518 106.624 24.2499L106.617 24.2528C106.547 24.2776 106.497 24.3182 106.441 24.4735C106.41 24.5585 106.384 24.6581 106.354 24.787C106.326 24.9066 106.293 25.0584 106.247 25.204L106.237 25.2314C106.03 25.7834 105.727 26.7645 105.507 27.7128C105.397 28.1866 105.31 28.6423 105.266 29.0253C105.231 29.3282 105.227 29.5475 105.241 29.6864L105.261 29.7987L105.262 29.8017C105.325 30.0293 105.362 30.2587 105.391 30.4687C105.421 30.6896 105.441 30.8739 105.474 31.0673C105.529 31.3936 105.609 31.657 105.767 31.8788L105.84 31.9716L105.841 31.9735C106.333 32.5506 106.441 33.3449 106.285 33.9726L106.281 33.9892L106.277 34.0048C106.04 34.7426 106.05 35.4279 106.293 36.1181L106.411 36.415L106.412 36.4159C106.497 36.6085 106.544 36.8046 106.534 37.0028C106.525 37.2054 106.459 37.3772 106.37 37.5185C106.285 37.653 106.18 37.7591 106.094 37.8388C106.05 37.8793 106.005 37.9176 105.966 37.9511C105.925 37.9862 105.891 38.0158 105.858 38.0458L105.849 38.0536C104.725 39.0223 103.438 39.7985 102.083 40.3173C101.483 40.5508 101.106 40.8588 100.855 41.2226C100.598 41.5942 100.445 42.0629 100.359 42.6581V42.6601C99.7404 46.7927 99.189 50.896 99.1584 55.0536C99.1578 55.1994 99.1196 55.3165 99.0939 55.3886C99.0618 55.4789 99.0576 55.482 99.05 55.5126L98.9328 55.9862L98.4562 55.8798C97.6698 55.7041 97.0975 55.3671 96.6662 54.8622C96.249 54.3737 95.9927 53.7601 95.7717 53.0937C95.3038 51.6826 94.9324 50.226 94.5324 48.8319C94.1287 47.4251 93.6894 46.0576 93.0734 44.7587L93.0725 44.7577C92.3538 43.2327 90.9084 42.8314 89.1447 42.4198L89.1359 42.4179C88.943 42.3697 88.2442 42.3837 87.6291 41.8427L86.8176 41.1288L87.8869 40.9726C88.6183 40.8656 88.9014 40.5901 89.0324 40.3085C89.1868 39.9763 89.1942 39.5046 89.1037 38.8984L89.1027 38.8915C89.0053 38.1668 89.2551 37.5538 89.4621 37.0644C89.6834 36.5412 89.8529 36.1594 89.841 35.7304L89.84 35.7167C89.84 35.3501 89.8145 35.1118 89.7404 34.9355C89.6785 34.7881 89.5675 34.6484 89.2961 34.5234C88.8505 34.3249 88.4548 34.03 88.2238 33.6044C87.9861 33.1662 87.961 32.6596 88.1301 32.1239C88.143 32.0808 88.1437 32.0581 88.1437 32.0507C88.1426 32.0477 88.1438 32.0457 88.1437 32.0507C88.1428 32.0484 88.1285 32.0142 88.0393 31.9345C85.633 30.0432 82.2641 30.101 79.9152 32.1396C79.8628 32.187 79.8083 32.2309 79.7629 32.2665C79.7134 32.3054 79.6755 32.3352 79.6369 32.3671C79.5587 32.4318 79.5264 32.4698 79.5129 32.4921C79.508 32.5 79.5091 32.495 79.51 32.5009C79.5129 32.5218 79.532 32.5992 79.6408 32.745C79.7253 32.8584 79.7859 32.9985 79.7932 33.1591C79.8003 33.3176 79.754 33.4547 79.6936 33.5614C79.5823 33.7577 79.4 33.8948 79.26 33.9833C78.9673 34.1683 78.5876 34.3065 78.3518 34.3857C77.3999 34.7156 76.6816 34.9187 76.2385 35.5693C76.4522 35.5982 76.6856 35.6963 76.8186 35.9491C76.9486 36.1968 76.8992 36.4632 76.8732 36.5859C76.8462 36.7133 76.7861 36.9084 76.7658 36.9853C76.7494 37.0478 76.7417 37.0877 76.7385 37.1103L76.7355 37.1327L76.7375 37.1474C76.7521 37.2654 76.7327 37.3694 76.7131 37.4423C76.6936 37.5146 76.6659 37.5804 76.6408 37.6347C76.7168 37.6828 76.7854 37.737 76.8459 37.7939C77.0157 37.9536 77.1586 38.166 77.2424 38.2792C77.3503 38.4251 77.4005 38.4685 77.4269 38.4823C77.4302 38.4841 77.4297 38.4843 77.4328 38.4843C77.44 38.4843 77.4703 38.4822 77.5314 38.4569C77.8762 38.3125 78.2187 38.2643 78.5363 38.3857C78.8465 38.5043 79.0269 38.7455 79.1369 38.9306C79.1933 39.0254 79.2407 39.1238 79.2805 39.206C79.3232 39.2943 79.3565 39.3631 79.3918 39.4286C79.4657 39.5656 79.5058 39.5954 79.5148 39.6005L79.5217 39.6044L79.5295 39.6093C79.7374 39.7348 79.8986 39.922 79.9553 40.1708C80.0076 40.4007 79.9537 40.6105 79.8937 40.7597C79.7827 41.036 79.5538 41.3197 79.4602 41.4491L79.4553 41.455C79.3684 41.5715 79.3022 41.6715 79.257 41.7577C79.2279 41.8134 79.2145 41.8517 79.2082 41.8749C79.2328 41.8931 79.2826 41.9259 79.3791 41.9609H79.3811C79.6565 42.0615 79.9151 42.1952 80.0744 42.4023C80.1634 42.518 80.2262 42.6626 80.2297 42.828C80.2331 42.9889 80.1802 43.1238 80.1203 43.2226C80.0106 43.4034 79.8389 43.5269 79.7277 43.5985C79.6113 43.6736 79.4901 43.7333 79.4143 43.7714L79.4152 43.7724C76.859 45.1448 75.5343 47.4517 74.968 50.1786L74.967 50.1806C74.7454 51.2201 74.6845 52.3012 74.673 53.4198C74.6619 54.5081 74.6998 55.7076 74.6691 56.8349C74.6693 57.6164 74.6868 58.4113 74.7336 59.1952L74.7912 59.9794L74.7922 59.9911C74.8442 60.8017 75.0795 61.4379 75.7053 61.9071L75.8361 61.9989L75.8391 62.0009C76.3803 62.3636 76.6369 63.0224 76.6994 63.6152C76.7622 64.2106 76.6471 64.8956 76.258 65.3739L76.2463 65.3876C75.6757 66.0394 75.4733 66.8345 75.4426 67.7939L75.4543 68.0058C75.4609 68.0572 75.4696 68.0966 75.4787 68.1259C75.5299 68.1163 75.613 68.0928 75.7326 68.0331C76.0126 67.8883 76.2748 67.7782 76.51 67.7431C76.7724 67.7039 77.0755 67.7535 77.2873 68.0165C77.4515 68.2204 77.4928 68.4815 77.5119 68.6601C77.5329 68.8562 77.5369 69.0975 77.5441 69.3319L77.5451 69.3339C77.6073 71.5541 77.3887 73.8274 77.3283 75.9823V75.9853C77.2696 77.7589 77.7725 79.4975 78.9064 80.6122C79.6352 81.313 80.2333 82.0042 80.55 83.0224L80.6008 83.1972C80.7039 83.615 80.6901 84.0944 80.3264 84.5058L80.3225 84.5097C79.1451 85.8115 78.3981 87.3538 77.7062 88.9921C77.0235 90.6088 76.3836 92.3495 75.4309 93.914L75.4289 93.9179C74.5691 95.307 73.8625 96.6683 73.8342 98.2636C73.8331 98.4715 73.7971 98.7343 73.7863 98.8691C73.7724 99.0434 73.779 99.157 73.8088 99.247C74.1563 100.295 74.0805 101.327 73.8205 102.314L73.8215 102.315C73.446 103.926 74.1681 105.158 75.343 106.27L75.5842 106.491C75.9715 106.837 76.5816 106.926 77.1603 106.635C77.2598 106.581 77.3042 106.53 77.3283 106.489C77.3555 106.444 77.3769 106.379 77.3859 106.279C77.3954 106.175 77.39 106.055 77.3781 105.901C77.3673 105.762 77.3488 105.576 77.3488 105.403C77.3488 105.354 77.3353 105.287 77.3127 105.219L77.2971 105.172L77.2902 105.122C77.199 104.377 77.3038 103.702 77.718 103.198C78.1333 102.693 78.7735 102.464 79.5187 102.418L79.5344 102.417H79.549C79.6706 102.417 79.7733 102.415 79.8635 102.405C79.9541 102.395 80.0096 102.379 80.0422 102.364C80.068 102.352 80.0723 102.345 80.0734 102.344C80.0761 102.339 80.0962 102.305 80.1008 102.209L80.1018 102.201C80.1693 101.132 80.5151 100.188 80.9299 99.3144C81.1368 98.8785 81.3651 98.4524 81.5861 98.038C81.8091 97.6199 82.0251 97.2129 82.2199 96.7987L82.2219 96.7939C82.6862 95.8292 83.0924 94.9483 83.2951 93.9296C83.7139 91.7326 84.8079 89.7612 85.7189 87.9296C86.6323 86.0929 86.8102 84.2001 87.093 82.1474L87.0939 82.1454C87.1569 81.7027 87.215 81.3195 87.2443 80.9062L87.2775 80.4413H88.5402L88.6076 80.8622C88.7035 81.4569 88.7876 82.0259 88.8713 82.5888L89.133 84.2792L89.135 84.288C89.4484 86.4306 89.5565 88.5757 89.6262 90.7011C89.6874 92.5677 89.7186 94.4106 89.8283 96.2489L89.8811 97.037V97.039C89.9567 98.1489 90.1448 99.2455 90.3098 100.394C90.4728 101.53 90.61 102.702 90.5617 103.9C90.5528 104.179 90.6528 104.298 90.7951 104.367C90.9868 104.46 91.3506 104.501 91.9133 104.36L92.799 104.131C93.6949 103.906 94.6217 103.71 95.5715 103.661L96.008 103.625C96.1562 103.609 96.3084 103.59 96.467 103.57C96.7735 103.532 97.1035 103.493 97.4445 103.476L97.5588 103.463C97.8105 103.427 97.9568 103.344 98.0422 103.255C98.1371 103.156 98.2199 102.983 98.2199 102.668C98.2199 102.567 98.2058 102.516 98.1984 102.495C98.1952 102.494 98.1915 102.492 98.1867 102.491C98.1344 102.477 98.0554 102.471 97.9172 102.469C97.8055 102.467 97.6351 102.468 97.4758 102.451C97.4726 102.451 97.4692 102.45 97.466 102.45C97.4625 102.45 97.4588 102.451 97.4553 102.45C95.9409 102.322 94.9299 100.969 94.76 99.3642L94.759 99.3564C94.6924 98.6198 94.751 97.91 94.8293 97.2372C94.9093 96.5496 95.0055 95.9233 95.0353 95.2782C95.1267 91.9299 95.0666 88.4978 95.2521 85.1103C95.2913 84.3405 95.3535 83.5704 95.4172 82.8066C95.4811 82.0396 95.547 81.2797 95.593 80.5194C95.6848 78.9993 95.6982 77.5 95.4738 76.0116L95.468 75.9745V75.3202L95.4709 75.2929C95.5941 74.1475 95.8349 73.2428 96.5109 72.748C97.1829 72.2562 98.1204 72.2916 99.2404 72.4921L99.2482 72.4941L99.2561 72.495C99.4583 72.5378 99.6415 72.6131 99.7932 72.7353C99.9488 72.8606 100.041 73.0117 100.098 73.1571C100.15 73.2925 100.172 73.4274 100.186 73.5165C100.201 73.6176 100.209 73.6688 100.222 73.7177C100.352 74.1665 100.508 74.4882 100.712 74.7021C100.9 74.8987 101.16 75.037 101.582 75.0634C101.888 75.0744 102.052 74.9669 102.122 74.87C102.189 74.7787 102.24 74.6053 102.124 74.329C101.981 74.006 101.987 73.6575 102.055 73.3954C102.089 73.2625 102.148 73.117 102.244 72.995C102.323 72.8955 102.511 72.7156 102.792 72.7353L102.793 72.7333C102.903 72.7382 102.984 72.7342 103.042 72.7294C103.026 72.6821 103.006 72.622 102.978 72.5429C102.933 72.4174 102.852 72.1908 102.859 71.9589C102.859 71.9197 102.84 71.8405 102.769 71.6874C102.735 71.6147 102.698 71.5436 102.654 71.4569C102.614 71.3756 102.568 71.2816 102.529 71.1855C102.456 71.0088 102.363 70.7277 102.446 70.4277C102.537 70.095 102.796 69.8858 103.098 69.7587C103.249 69.6936 103.419 69.676 103.588 69.7255C103.746 69.7718 103.862 69.8653 103.942 69.9491C104.092 70.1069 104.194 70.3197 104.264 70.4872C104.338 70.6643 104.408 70.868 104.467 71.0331C104.531 71.2105 104.583 71.3475 104.634 71.4443C105.878 73.7887 107.054 76.0565 108.823 77.9569C109.926 79.1303 110.709 80.55 110.149 82.3749C110.14 82.4161 110.131 82.4547 110.123 82.4843C110.113 82.5251 110.107 82.5528 110.102 82.578C110.092 82.6283 110.097 82.6308 110.094 82.6152C110.408 83.9923 110.244 85.2728 109.92 86.4794C109.758 87.083 109.554 87.6746 109.348 88.2499C109.14 88.8307 108.932 89.3892 108.75 89.954C108.525 90.6784 108.464 91.4217 108.438 92.2138C108.412 92.9894 108.418 93.8435 108.306 94.6845C108.028 96.7352 107.713 98.781 106.914 100.771C106.438 102.031 106.271 103.371 105.948 104.799C105.882 105.102 105.94 105.292 106.033 105.423C106.136 105.566 106.331 105.704 106.647 105.793H106.65C106.94 105.876 107.366 105.984 107.696 106.222C108.074 106.493 108.301 106.904 108.309 107.486C108.315 107.492 108.324 107.499 108.337 107.507C108.354 107.516 108.374 107.524 108.396 107.529C109.582 107.827 110.72 107.895 111.748 107.464C111.811 107.435 111.854 107.41 111.883 107.39C111.846 107.348 111.784 107.288 111.68 107.221C109.841 106.063 109.049 103.568 109.885 101.573C110.471 100.115 111.059 98.6527 111.679 97.1894C111.704 97.1304 111.708 97.1153 111.744 97.0253C111.771 96.9604 111.809 96.8717 111.864 96.7851C111.989 96.5891 112.215 96.3866 112.572 96.3866L112.7 96.3944C112.828 96.4106 112.952 96.4523 113.064 96.5263C113.21 96.6229 113.298 96.7498 113.353 96.8564C113.405 96.9576 113.436 97.0602 113.455 97.123C113.479 97.2015 113.486 97.2282 113.495 97.2499L113.501 97.2626L113.622 97.5956C113.886 98.3736 114.018 99.168 114.126 99.9325C114.253 100.822 114.348 101.659 114.57 102.476C114.669 102.841 114.536 103.131 114.415 103.319C114.36 103.406 114.293 103.491 114.251 103.546C114.207 103.604 114.18 103.644 114.16 103.678C113.876 104.284 113.915 104.559 113.986 104.684C114.055 104.806 114.249 104.963 114.746 105.081L114.979 105.129L114.983 105.13C116.261 105.369 116.829 105.123 117.079 104.794C117.363 104.422 117.444 103.707 117.186 102.56L117.185 102.557C116.591 99.8247 116.244 97.0413 116.402 94.2167V94.2128C116.615 90.9318 116.311 87.6769 116.031 84.3398V84.3368C115.836 81.8096 116.72 79.5309 117.614 77.3915C118.862 74.3509 120.149 71.4231 120.328 68.2626L121.301 68.1288L122.015 70.2138L121.932 70.3954C121.738 70.8177 121.565 71.163 121.418 71.5468L121.414 71.5575C121.352 71.7105 121.268 71.8701 121.211 71.9853C121.148 72.1145 121.106 72.2118 121.082 72.2968C121.06 72.3763 121.062 72.4242 121.07 72.4579C121.077 72.4888 121.097 72.5467 121.182 72.6318C121.568 73.0197 122.032 73.1831 122.587 73.1103L122.989 73.0575L123.124 73.4413L123.447 74.3652C123.769 73.4678 124.062 72.5389 124.405 71.5468L124.714 70.6542L125.279 71.411C125.605 71.8489 125.789 72.3139 125.924 72.746C125.991 72.9595 126.049 73.1758 126.104 73.372C126.16 73.5729 126.213 73.7583 126.277 73.9345L126.279 73.9443C127.109 76.4174 128.103 78.9443 128.664 81.5927L128.771 82.1239C129.143 84.1211 129.439 86.1906 129.018 88.372C128.26 92.3039 128.653 96.3256 128.871 100.399L128.946 101.511C129.024 102.635 129.09 103.793 128.994 104.947C128.993 105.033 128.988 105.116 128.982 105.188C128.974 105.278 128.967 105.349 128.964 105.419C128.961 105.487 128.962 105.537 128.966 105.574L128.975 105.616L128.977 105.621C129.237 106.16 129.511 106.752 129.605 107.377C129.703 108.028 129.604 108.702 129.166 109.399L129.164 109.402C129.158 109.411 129.155 109.419 129.153 109.425C129.17 109.441 129.223 109.478 129.33 109.473C129.609 109.448 129.884 109.456 130.137 109.468C130.406 109.481 130.637 109.498 130.877 109.5C131.34 109.503 131.728 109.445 132.089 109.211L132.103 109.202L132.117 109.194C132.376 109.05 132.659 109.037 132.852 109.037C133.092 109.037 133.209 109.052 133.37 109.039L133.391 109.037H133.628C133.688 109.035 133.722 109.029 133.741 109.023C133.743 109.023 133.746 109.021 133.746 109.021C133.748 109.017 133.751 109.012 133.754 109.004L133.761 108.988L133.769 108.973C133.81 108.89 133.809 108.827 133.797 108.779C133.784 108.727 133.75 108.672 133.692 108.626L133.678 108.615L133.665 108.604C133.139 108.132 132.893 107.585 132.738 107.055C132.663 106.796 132.608 106.53 132.555 106.288C132.501 106.041 132.449 105.811 132.379 105.587C132.042 104.535 132.226 103.545 132.374 102.699C132.528 101.82 132.644 101.092 132.384 100.347C132.025 99.3179 132.188 98.3111 132.396 97.4081C132.613 96.4654 132.865 95.6661 132.851 94.8456L132.848 94.4023C132.864 92.1927 133.32 90.0683 133.798 88.0009C134.312 85.778 134.848 83.6288 134.953 81.415C135.013 79.9483 134.951 78.2977 135.405 76.7304L135.522 76.331L135.936 76.372C136.156 76.3942 136.367 76.4617 136.538 76.6034C136.714 76.7483 136.799 76.9303 136.841 77.0878C136.88 77.2343 136.886 77.3809 136.89 77.4745C136.894 77.5836 136.896 77.6347 136.903 77.6757C137.607 80.5708 138.099 83.4456 138.964 86.2001L139.143 86.7509C139.711 88.4641 140.065 90.2034 140.382 91.9198C140.701 93.6455 140.983 95.3388 141.41 97.0116C141.564 97.5991 141.848 98.1245 142.156 98.7362C142.418 99.2553 142.691 99.8287 142.825 100.482L142.874 100.767L142.875 100.772C142.927 101.187 143.007 101.605 143.094 102.037C143.18 102.464 143.274 102.91 143.348 103.356C143.495 104.254 143.568 105.209 143.329 106.204L143.326 106.215C143.204 106.679 143.31 106.787 143.332 106.808C143.399 106.869 143.606 106.954 144.111 106.925L144.444 106.895C145.2 106.806 145.813 106.572 146.365 106.064C146.855 105.605 147.433 105.225 147.891 104.88L147.897 104.876C148.41 104.499 148.702 104.111 148.83 103.721C148.958 103.334 148.946 102.885 148.744 102.346C148.517 101.737 148.348 101.531 148.153 101.433C147.957 101.335 147.643 101.295 147.016 101.354L146.987 101.472L146.651 101.517C146.378 101.553 146.038 101.548 145.791 101.273C145.692 101.163 145.639 101.039 145.609 100.959C145.588 100.905 145.54 100.762 145.527 100.725L145.521 100.708L145.516 100.691C145.314 99.9813 145.258 99.265 145.219 98.5946C145.179 97.9087 145.157 97.2821 145.041 96.6698L144.971 96.2587C144.82 95.3021 144.771 94.3519 144.717 93.4384C144.655 92.3829 144.586 91.3717 144.364 90.3749L144.363 90.371C143.61 86.8363 143.45 83.2826 144.209 79.6884C144.73 77.1327 145.061 74.5367 144.941 71.9218L144.915 71.4657C144.847 70.4099 144.718 69.411 144.433 68.3954C144.144 67.3945 143.968 66.368 144.241 65.165C144.326 64.7383 144.28 64.2612 144.176 63.7099C144.078 63.194 143.91 62.5407 143.831 61.955C143.794 61.7135 143.757 61.4607 143.75 61.2245C143.743 60.9816 143.766 60.7189 143.875 60.4657C144.109 59.9249 144.637 59.6275 145.383 59.4443L145.389 59.4433C145.71 59.3688 146.051 59.3167 146.363 59.2646C146.685 59.211 146.988 59.1551 147.278 59.0722C147.845 58.9098 148.334 58.6493 148.712 58.1171C149.437 57.0677 149.897 56.3163 149.656 55.2284L149.599 55.0058C149.284 53.9442 149.048 52.8692 148.817 51.8153C148.584 50.7558 148.356 49.717 148.053 48.6962C147.103 45.493 145.861 42.8293 142.709 41.4921L142.705 41.4902C142.212 41.2755 141.75 41.0137 141.311 40.7558C140.864 40.4934 140.448 40.2399 140.015 40.0146L140.005 40.0097C139.849 39.924 139.59 39.7817 139.425 39.5507C139.332 39.421 139.267 39.263 139.255 39.079C139.243 38.9002 139.284 38.7274 139.353 38.5663L139.356 38.5605C139.368 38.5323 139.381 38.5026 139.397 38.4638C139.412 38.4272 139.43 38.3824 139.45 38.3378C139.489 38.2518 139.547 38.1359 139.635 38.0292C139.728 37.9168 139.862 37.8042 140.049 37.747C140.234 37.6906 140.421 37.7028 140.597 37.7528C140.706 37.7837 140.793 37.7981 140.859 37.8066L140.858 37.8017C140.84 37.7462 140.816 37.6877 140.789 37.6327C140.763 37.5781 140.737 37.5311 140.717 37.498C140.708 37.483 140.7 37.4731 140.696 37.4677L140.68 37.4452C140.223 36.8328 140.293 36.2356 140.421 35.7792C140.452 35.6697 140.488 35.5648 140.519 35.4726C140.551 35.3764 140.578 35.2961 140.601 35.2187C140.647 35.0593 140.655 34.9719 140.648 34.9169L140.647 34.9101C140.602 34.5646 140.676 34.2345 140.75 33.9696C140.834 33.6702 140.908 33.4755 140.953 33.2431C140.994 33.0342 140.99 32.8785 140.942 32.7441C140.894 32.6139 140.782 32.4423 140.49 32.245L140.486 32.2421C140.283 32.1013 140.149 31.8877 140.056 31.7089C139.957 31.5195 139.872 31.3006 139.795 31.0888C139.632 30.6378 139.503 30.2178 139.334 29.8788C138.909 29.0244 138.318 28.3446 137.525 27.8027C137.456 27.7617 137.334 27.6896 137.231 27.6132C137.173 27.5705 137.099 27.5105 137.035 27.4355C136.981 27.372 136.87 27.224 136.87 27.0136V26.9911ZM144.949 53.4218C145.418 54.0746 145.643 54.8772 145.612 55.6308C145.58 56.3827 145.288 57.1351 144.665 57.62L143.479 58.5429L143.875 57.0937C144.017 56.5737 143.97 56.0835 143.918 55.4902C143.868 54.9188 143.815 54.2477 144.074 53.5409L144.399 52.6552L144.949 53.4218ZM126.184 48.5819L126.221 48.5878C126.343 48.6062 126.47 48.6093 126.646 48.6181C126.797 48.6256 127.007 48.6379 127.198 48.6991C127.409 48.7663 127.646 48.9076 127.773 49.1943C127.888 49.4537 127.873 49.7464 127.809 50.0312C127.585 51.0151 127.685 51.9575 127.915 52.9208C128.031 53.4045 128.177 53.8859 128.329 54.3818C128.48 54.8727 128.637 55.3796 128.765 55.8925H128.763C128.868 56.2815 128.828 56.6249 128.686 56.9286C128.553 57.2121 128.343 57.4359 128.17 57.6093C128.047 57.7335 127.895 57.8366 127.711 57.8808C127.523 57.9259 127.351 57.8976 127.211 57.8437C126.974 57.7526 126.77 57.5537 126.682 57.4765L126.673 57.4696C126.45 57.2646 126.155 57.1997 125.713 57.2275L125.697 57.2284H125.357L125.214 56.9706C124.8 56.2218 124.237 55.3531 124.117 54.2753C123.527 53.8428 123.19 53.2921 122.973 52.7216C122.749 52.1345 122.634 51.4675 122.506 50.9403L122.492 50.8827V50.8232C122.492 50.6456 122.577 50.5221 122.611 50.4775C122.619 50.4664 122.628 50.4562 122.637 50.4462C123.049 49.6351 123.714 49.3036 124.333 49.1132C124.629 49.022 124.964 48.9495 125.211 48.8857C125.481 48.8158 125.695 48.7454 125.867 48.6474L125.983 48.5819H126.184ZM103.829 53.5566C104.341 53.5903 104.641 53.9438 104.765 54.2987C104.807 54.4194 104.832 54.5465 104.842 54.6747H105.009L104.791 55.3319C104.56 56.0285 104.147 56.6999 103.775 57.4482L102.829 57.1767C102.918 56.2895 102.954 55.56 103.046 54.8739C103.049 54.8453 103.046 54.7936 103.039 54.6884C103.033 54.6004 103.023 54.4661 103.029 54.3407C103.033 54.2276 103.052 54.0242 103.179 53.8456C103.34 53.6179 103.591 53.5382 103.829 53.5566ZM126.115 49.0823C125.187 49.6107 123.703 49.362 123.054 50.7296C123.023 50.7607 122.992 50.7918 122.992 50.8229C123.27 51.9729 123.394 53.2162 124.538 53.9622C124.6 53.9622 124.6 54.0244 124.6 54.0554C124.646 54.8245 124.954 55.4713 125.3 56.1005L125.651 56.7285H125.682C126.177 56.6974 126.64 56.7596 127.012 57.1015C127.259 57.3191 127.506 57.5677 127.815 57.2569C128.134 56.9365 128.399 56.6158 128.304 56.1161L128.279 56.0136C127.785 54.0244 126.826 52.0973 127.321 49.9215C127.537 48.9579 126.764 49.1755 126.146 49.0823H126.115ZM103.791 54.0554C103.389 54.0244 103.574 54.6149 103.543 54.9257L103.484 55.4423C103.431 55.9668 103.396 56.5266 103.327 57.2258C103.729 56.4177 104.1 55.8271 104.316 55.1744H104.285C104.43 54.7666 104.331 54.1674 103.885 54.0683L103.791 54.0554ZM144.358 57.2258C144.698 55.9825 144.11 54.8947 144.543 53.7135C145.347 54.8325 145.316 56.4799 144.358 57.2258ZM137.37 27.0138C137.37 27.1381 137.648 27.2935 137.803 27.3868C138.668 27.9773 139.318 28.7233 139.782 29.6558C140.153 30.4018 140.369 31.5518 140.771 31.8315C142.193 32.7951 141.018 33.883 141.142 34.8465C141.235 35.4993 140.431 36.2763 141.08 37.1466C141.167 37.2341 141.907 38.4959 140.725 38.2948L140.462 38.2345C140.029 38.1102 139.936 38.4832 139.812 38.7629C139.627 39.1981 139.905 39.3846 140.245 39.5711C141.142 40.0373 141.977 40.6279 142.904 41.0319C146.275 42.4617 147.573 45.3213 148.532 48.5539C149.15 50.6364 149.46 52.7811 150.078 54.8636C150.511 56.3245 149.892 57.288 149.119 58.407L148.94 58.6357C148.008 59.7058 146.632 59.6678 145.502 59.93C144.11 60.2719 144.172 60.8936 144.327 61.8882C144.481 63.0382 144.945 64.2194 144.729 65.2762L144.688 65.4784C144.502 66.4806 144.653 67.3569 144.914 68.2601C145.254 69.4723 145.378 70.6534 145.44 71.8967C145.564 74.5698 145.223 77.2118 144.698 79.7916L144.57 80.4501C143.978 83.7393 144.157 87.0029 144.852 90.2664C145.316 92.3489 145.131 94.4625 145.533 96.5761C145.78 97.8816 145.625 99.2492 145.996 100.555C146.12 100.897 146.12 101.083 146.584 101.021L146.615 100.897C148.315 100.679 148.748 100.928 149.212 102.171C149.676 103.414 149.336 104.44 148.192 105.279C147.697 105.652 147.171 105.994 146.708 106.429L146.568 106.553C145.861 107.143 145.069 107.366 144.141 107.424L143.95 107.431C143.028 107.44 142.582 107.078 142.843 106.087C143.276 104.285 142.595 102.575 142.379 100.834C142.205 99.5524 141.379 98.5702 140.996 97.3769L140.926 97.1356C140.06 93.7476 139.782 90.2664 138.668 86.9095C137.803 84.3258 137.292 81.5988 136.681 78.9169L136.411 77.7713C136.349 77.4294 136.504 76.9321 135.886 76.8699C135.453 78.3619 135.515 79.916 135.453 81.439L135.428 81.8632C135.115 86.2432 133.26 90.3789 133.35 94.8355C133.38 96.5818 132.308 98.2993 132.803 100.016L132.908 100.348C133.4 102.057 132.286 103.658 132.855 105.435C133.165 106.429 133.134 107.455 133.999 108.232C134.278 108.45 134.401 108.823 134.216 109.196C134.061 109.569 133.721 109.537 133.412 109.537C133.041 109.569 132.639 109.475 132.361 109.631C131.402 110.252 130.351 109.879 129.361 109.973L129.265 109.973C128.824 109.95 128.524 109.594 128.698 109.215L128.743 109.133C129.485 107.952 129.052 106.927 128.527 105.839C128.434 105.652 128.463 105.396 128.484 105.148L128.496 104.906C128.588 103.787 128.525 102.668 128.448 101.549L128.372 100.43C128.169 96.6423 127.804 92.7995 128.396 89.0302L128.527 88.2771C128.929 86.1946 128.65 84.2053 128.279 82.2161C127.754 79.4187 126.702 76.7767 125.806 74.1036C125.527 73.3265 125.435 72.4562 124.878 71.7102C124.383 73.14 123.981 74.5076 123.425 75.8131L122.652 73.6063C121.941 73.6995 121.322 73.4819 120.828 72.9846C120.271 72.4251 120.735 71.8967 120.951 71.3683C121.106 70.9643 121.291 70.5913 121.477 70.1872L120.828 68.2912C120.642 71.5548 119.312 74.5698 118.076 77.5848L117.744 78.3905C116.986 80.2766 116.367 82.2043 116.53 84.2986C116.808 87.6244 117.117 90.9191 116.901 94.2449C116.746 97.0113 117.086 99.7465 117.674 102.451C118.199 104.782 117.55 106.118 114.891 105.621C113.499 105.372 113.097 104.751 113.716 103.445C113.861 103.183 114.142 102.975 114.1 102.669L114.087 102.606C113.623 100.897 113.685 99.0938 113.036 97.4464C112.943 97.2289 112.943 96.8869 112.572 96.8869C112.294 96.8869 112.232 97.1667 112.139 97.3843C111.521 98.8451 110.933 100.306 110.346 101.767L110.28 101.934C109.649 103.677 110.366 105.808 111.953 106.802C112.572 107.206 112.572 107.641 111.953 107.921C110.925 108.356 109.827 108.339 108.739 108.12L108.274 108.014C108.058 107.96 107.865 107.81 107.821 107.607L107.81 107.517C107.81 106.616 107.161 106.46 106.511 106.274C105.738 106.056 105.275 105.528 105.46 104.689C105.731 103.492 105.906 102.248 106.278 101.081L106.45 100.586C107.223 98.6586 107.532 96.6694 107.81 94.6179C108.013 93.1027 107.808 91.5872 108.19 90.0976L108.274 89.8002C108.993 87.572 110.118 85.4017 109.654 82.9511L109.604 82.7134C109.573 82.558 109.634 82.4026 109.665 82.2472C110.129 80.7609 109.587 79.5751 108.652 78.5107L108.459 78.2997C106.635 76.3415 105.429 74.0103 104.192 71.6791C103.914 71.1507 103.729 70.0318 103.296 70.2183L103.149 70.2919C102.515 70.6835 103.358 71.3761 103.358 71.9589C103.329 72.4251 104.061 73.1914 103.006 73.2343L102.77 73.2333C102.585 73.2022 102.399 73.7306 102.585 74.1347C102.925 74.9428 102.43 75.5955 101.564 75.5644L101.368 75.5458C100.551 75.4331 100.123 74.9239 99.8537 74.2021L99.74 73.8549C99.6472 73.513 99.74 73.1089 99.1525 72.9846C96.8953 72.5805 96.2151 73.0468 95.9677 75.3469V75.9374C96.4315 79.0146 95.9059 82.0917 95.7513 85.1378C95.5658 88.5258 95.6276 91.9138 95.5349 95.3018L95.5002 95.8017C95.3953 96.9656 95.1484 98.1147 95.2566 99.3114C95.4112 100.772 96.3079 101.86 97.5137 101.953C98.0394 102.016 98.7196 101.798 98.7196 102.668L98.715 102.815C98.6645 103.529 98.2365 103.915 97.4828 103.974C96.8335 104.005 96.2151 104.129 95.5967 104.16C94.3908 104.222 93.2159 104.533 92.0409 104.844L91.8146 104.894C90.7842 105.092 90.1252 104.773 90.0656 104.043L90.062 103.88C90.1548 101.58 89.5364 99.3425 89.3818 97.0734C89.0726 92.8462 89.2581 88.588 88.6397 84.3608C88.4542 83.2418 88.2996 82.0917 88.114 80.9417H87.743C87.7121 81.3769 87.6502 81.7809 87.5884 82.2161C87.3101 84.2364 87.1246 86.2257 86.1661 88.1528C85.2385 90.0177 84.1872 91.9138 83.7852 94.0274C83.5688 95.1153 83.1359 96.0477 82.6721 97.0113C81.8682 98.7208 80.7241 100.275 80.6004 102.233C80.5695 102.886 80.0439 102.917 79.5492 102.917C78.2093 103 77.6218 103.715 77.7867 105.062C77.8176 105.155 77.8486 105.279 77.8486 105.404L77.8576 105.63C77.8952 106.167 78.007 106.756 77.3848 107.082L77.2443 107.146C76.5392 107.441 75.7729 107.331 75.2513 106.864C73.8908 105.652 72.8704 104.191 73.3342 102.202C73.5816 101.27 73.6434 100.337 73.3342 99.4046C73.2416 99.125 73.2876 98.8274 73.3166 98.539L73.3342 98.2546C73.3651 96.514 74.1381 95.0531 75.0039 93.6544C76.8591 90.6083 77.4775 86.9095 79.9511 84.1743C80.1673 83.9296 80.1948 83.6372 80.1154 83.3183L80.0748 83.1796C79.7965 82.2782 79.2709 81.6566 78.5597 80.9728C77.292 79.7295 76.7664 77.8335 76.8282 75.9685C76.89 73.7617 77.1065 71.5548 77.0446 69.348C77.0137 68.3533 77.0446 67.9182 75.9624 68.4777L75.8391 68.5351C75.281 68.7729 74.9837 68.581 74.9465 67.9384L74.9421 67.7938C74.973 66.7681 75.1894 65.8357 75.8697 65.0586C76.4262 64.3748 76.3026 62.9139 75.5605 62.4166C74.6638 61.826 74.3546 60.9868 74.2927 60.0233C74.2232 59.2306 74.189 58.4204 74.176 57.6191L74.1691 56.8218C74.2309 54.5528 74.0145 52.2527 74.4783 50.0769C75.0657 47.2484 76.4572 44.7929 79.1781 43.332C79.4873 43.1766 80.2294 42.8036 79.209 42.4306C78.5329 42.1859 78.6379 41.7747 78.923 41.3427L79.0544 41.1563C79.3018 40.8144 79.7347 40.317 79.2709 40.0373C78.7143 39.7265 78.838 38.4521 77.7249 38.9183C76.8565 39.2795 76.8292 38.0373 76.0978 37.9589L76.0243 37.9548C75.7769 37.9548 76.2716 37.4575 76.2407 37.2088C76.1789 36.8047 76.7354 36.0588 76.0861 36.0588C74.973 36.0588 75.6223 35.6236 75.8078 35.3128C76.3644 34.4735 77.292 34.2249 78.1887 33.9141C78.6235 33.7684 79.4119 33.4586 79.2795 33.1132L79.24 33.0438C78.8225 32.4842 79.0489 32.2043 79.3186 31.9814L79.5801 31.7694C82.1155 29.5625 85.7641 29.5004 88.3614 31.5518C88.6088 31.7694 88.7015 31.9559 88.6088 32.2667C88.3305 33.137 88.7324 33.7276 89.5054 34.0695C90.2475 34.4114 90.3403 34.9709 90.3403 35.7168C90.3712 36.8358 89.4436 37.675 89.5982 38.8251C89.7837 40.0684 89.66 41.2184 87.9594 41.4671C88.4542 41.9022 88.887 41.8401 89.2581 41.9333C90.9896 42.3374 92.6902 42.7725 93.5251 44.5442C94.7928 47.2173 95.3184 50.1391 96.246 52.9365C96.6518 54.1603 97.1123 54.974 98.3146 55.3271L98.565 55.392C98.5882 55.299 98.6288 55.2229 98.6477 55.1386L98.6578 55.0501C98.6887 50.854 99.2453 46.72 99.8637 42.586C100.049 41.3117 100.544 40.3792 101.904 39.8508C103.041 39.4156 104.13 38.7899 105.11 38.0155L105.522 37.675C105.831 37.3953 106.202 37.1777 105.955 36.6182C105.553 35.7168 105.491 34.8155 105.8 33.8519C105.924 33.3546 105.831 32.7329 105.46 32.2978C104.873 31.614 104.996 30.7126 104.78 29.9355C104.533 29.0652 105.337 26.2056 105.769 25.0556C105.914 24.5892 105.923 24.0404 106.358 23.8202L106.45 23.7812C106.867 23.6258 107.3 23.5012 107.737 23.3886L109.047 23.0663C109.263 23.0042 109.511 22.9109 109.665 23.1906C110.036 23.8434 110.748 23.8745 111.366 24.061C112.634 24.4339 114.087 25.9881 114.211 27.0759C114.334 28.0395 113.87 29.0963 114.798 29.9044C114.922 29.9977 114.891 30.3707 114.829 30.5883L114.763 30.8359C114.471 32.0858 114.746 33.5081 113.499 34.4114C113.221 34.5979 113.067 34.9709 112.881 35.2506C112.201 36.3074 112.603 37.4575 113.84 37.4575C115.664 37.4575 117.086 38.3899 118.632 38.9805C119.498 39.3224 120.549 39.7265 120.611 40.9387C120.673 42.4928 121.229 43.9226 121.539 45.4145V45.5389C121.917 45.3214 122.249 45.08 122.554 44.7734L122.683 44.6375C123.321 43.9381 123.904 43.1297 124.816 42.7753L125.002 42.7104C126.17 42.3488 126.729 40.9081 128.112 41.0165L128.248 41.0319C128.275 41.0319 128.326 40.9123 128.38 40.8827L128.403 40.8765C129.547 40.5968 130.506 39.7886 131.742 39.6643C133.829 39.4603 134.341 38.7371 133.581 37.0341L133.412 36.6804C133.319 36.4784 133.219 36.2841 133.114 36.0937L132.794 35.5304C132.175 34.3803 132.052 33.0127 132.299 31.8315C132.608 30.2774 133.381 28.7855 134.092 27.3246C134.44 26.6254 135.119 26.4506 135.827 26.3544L136.535 26.2678C137.153 26.1746 137.432 26.33 137.37 27.0138Z" fill="url(#paint3_linear_7647_1625)" fill-opacity="0.2" shape-rendering="crispEdges"/>
<path d="M136.87 26.9911L136.872 26.9687C136.882 26.8582 136.876 26.7875 136.87 26.745C136.817 26.7407 136.734 26.7438 136.61 26.7626L136.602 26.7636C136.087 26.8326 135.67 26.855 135.284 26.9716C134.935 27.0773 134.693 27.2407 134.54 27.5468C133.818 29.0306 133.083 30.454 132.789 31.9286L132.788 31.9335C132.562 33.015 132.679 34.2609 133.235 35.2939C133.444 35.6548 133.666 36.0379 133.859 36.455L134.037 36.829C134.201 37.1948 134.317 37.5366 134.374 37.8534C134.451 38.2805 134.425 38.6986 134.221 39.0673C134.017 39.4355 133.675 39.6804 133.27 39.8446C132.868 40.0073 132.37 40.1045 131.791 40.161L131.792 40.162C131.265 40.2151 130.783 40.4149 130.251 40.665C129.778 40.8872 129.242 41.1605 128.662 41.3232C128.648 41.3415 128.625 41.3704 128.594 41.3984C128.573 41.4172 128.537 41.4465 128.487 41.4726C128.438 41.4986 128.355 41.5321 128.248 41.5321H128.212L128.176 41.5263C127.652 41.4494 127.286 41.6589 126.843 42.0321C126.645 42.1989 126.364 42.4611 126.117 42.6542C125.848 42.8648 125.532 43.07 125.15 43.1884H125.148C124.739 43.313 124.395 43.5537 124.06 43.873C123.708 44.2077 123.422 44.5688 123.052 44.9745C122.671 45.3923 122.257 45.7032 121.788 45.9726L121.039 46.4023V45.4706C120.888 44.7535 120.686 44.0732 120.497 43.3222C120.309 42.5745 120.145 41.7905 120.112 40.9638C120.089 40.5272 119.9 40.2494 119.615 40.0273C119.304 39.7847 118.897 39.6225 118.448 39.4452C118.049 39.2923 117.659 39.1183 117.282 38.9491C116.9 38.7774 116.532 38.6111 116.156 38.4628C115.409 38.1677 114.664 37.957 113.84 37.9569C113.05 37.9569 112.436 37.5747 112.178 36.9384C111.932 36.3312 112.057 35.6081 112.461 34.9804L112.464 34.9745C112.501 34.9185 112.54 34.8546 112.585 34.7763C112.628 34.7022 112.679 34.6134 112.734 34.5273C112.839 34.3626 112.988 34.1577 113.206 34.0068L113.385 33.8612C113.769 33.5097 113.928 33.0739 114.02 32.5429C114.074 32.2254 114.1 31.9091 114.142 31.5439C114.182 31.1961 114.236 30.8201 114.349 30.4511C114.357 30.4207 114.366 30.3785 114.373 30.331C114.38 30.2841 114.382 30.2389 114.382 30.2011C113.851 29.6924 113.721 29.1046 113.703 28.5644C113.695 28.2958 113.714 28.0177 113.725 27.787C113.736 27.5432 113.74 27.3339 113.715 27.1396L113.714 27.1327C113.67 26.747 113.362 26.1833 112.854 25.6425C112.354 25.1109 111.746 24.6941 111.225 24.5409L111.222 24.54C111.083 24.4982 110.942 24.4657 110.772 24.4237C110.61 24.3839 110.428 24.3356 110.248 24.2685C109.9 24.1383 109.542 23.9247 109.282 23.5185C109.278 23.5198 109.272 23.5218 109.267 23.5234C109.255 23.5268 109.242 23.5301 109.229 23.5341C109.215 23.538 109.2 23.5424 109.185 23.5468L109.169 23.5507C108.276 23.7753 107.425 23.9518 106.624 24.2499L106.617 24.2528C106.547 24.2776 106.497 24.3182 106.441 24.4735C106.41 24.5585 106.384 24.6581 106.354 24.787C106.326 24.9066 106.293 25.0584 106.247 25.204L106.237 25.2314C106.03 25.7834 105.727 26.7645 105.507 27.7128C105.397 28.1866 105.31 28.6423 105.266 29.0253C105.231 29.3282 105.227 29.5475 105.241 29.6864L105.261 29.7987L105.262 29.8017C105.325 30.0293 105.362 30.2587 105.391 30.4687C105.421 30.6896 105.441 30.8739 105.474 31.0673C105.529 31.3936 105.609 31.657 105.767 31.8788L105.84 31.9716L105.841 31.9735C106.333 32.5506 106.441 33.3449 106.285 33.9726L106.281 33.9892L106.277 34.0048C106.04 34.7426 106.05 35.4279 106.293 36.1181L106.411 36.415L106.412 36.4159C106.497 36.6085 106.544 36.8046 106.534 37.0028C106.525 37.2054 106.459 37.3772 106.37 37.5185C106.285 37.653 106.18 37.7591 106.094 37.8388C106.05 37.8793 106.005 37.9176 105.966 37.9511C105.925 37.9862 105.891 38.0158 105.858 38.0458L105.849 38.0536C104.725 39.0223 103.438 39.7985 102.083 40.3173C101.483 40.5508 101.106 40.8588 100.855 41.2226C100.598 41.5942 100.445 42.0629 100.359 42.6581V42.6601C99.7404 46.7927 99.189 50.896 99.1584 55.0536C99.1578 55.1994 99.1196 55.3165 99.0939 55.3886C99.0618 55.4789 99.0576 55.482 99.05 55.5126L98.9328 55.9862L98.4562 55.8798C97.6698 55.7041 97.0975 55.3671 96.6662 54.8622C96.249 54.3737 95.9927 53.7601 95.7717 53.0937C95.3038 51.6826 94.9324 50.226 94.5324 48.8319C94.1287 47.4251 93.6894 46.0576 93.0734 44.7587L93.0725 44.7577C92.3538 43.2327 90.9084 42.8314 89.1447 42.4198L89.1359 42.4179C88.943 42.3697 88.2442 42.3837 87.6291 41.8427L86.8176 41.1288L87.8869 40.9726C88.6183 40.8656 88.9014 40.5901 89.0324 40.3085C89.1868 39.9763 89.1942 39.5046 89.1037 38.8984L89.1027 38.8915C89.0053 38.1668 89.2551 37.5538 89.4621 37.0644C89.6834 36.5412 89.8529 36.1594 89.841 35.7304L89.84 35.7167C89.84 35.3501 89.8145 35.1118 89.7404 34.9355C89.6785 34.7881 89.5675 34.6484 89.2961 34.5234C88.8505 34.3249 88.4548 34.03 88.2238 33.6044C87.9861 33.1662 87.961 32.6596 88.1301 32.1239C88.143 32.0808 88.1437 32.0581 88.1437 32.0507C88.1426 32.0477 88.1438 32.0457 88.1437 32.0507C88.1428 32.0484 88.1285 32.0142 88.0393 31.9345C85.633 30.0432 82.2641 30.101 79.9152 32.1396C79.8628 32.187 79.8083 32.2309 79.7629 32.2665C79.7134 32.3054 79.6755 32.3352 79.6369 32.3671C79.5587 32.4318 79.5264 32.4698 79.5129 32.4921C79.508 32.5 79.5091 32.495 79.51 32.5009C79.5129 32.5218 79.532 32.5992 79.6408 32.745C79.7253 32.8584 79.7859 32.9985 79.7932 33.1591C79.8003 33.3176 79.754 33.4547 79.6936 33.5614C79.5823 33.7577 79.4 33.8948 79.26 33.9833C78.9673 34.1683 78.5876 34.3065 78.3518 34.3857C77.3999 34.7156 76.6816 34.9187 76.2385 35.5693C76.4522 35.5982 76.6856 35.6963 76.8186 35.9491C76.9486 36.1968 76.8992 36.4632 76.8732 36.5859C76.8462 36.7133 76.7861 36.9084 76.7658 36.9853C76.7494 37.0478 76.7417 37.0877 76.7385 37.1103L76.7355 37.1327L76.7375 37.1474C76.7521 37.2654 76.7327 37.3694 76.7131 37.4423C76.6936 37.5146 76.6659 37.5804 76.6408 37.6347C76.7168 37.6828 76.7854 37.737 76.8459 37.7939C77.0157 37.9536 77.1586 38.166 77.2424 38.2792C77.3503 38.4251 77.4005 38.4685 77.4269 38.4823C77.4302 38.4841 77.4297 38.4843 77.4328 38.4843C77.44 38.4843 77.4703 38.4822 77.5314 38.4569C77.8762 38.3125 78.2187 38.2643 78.5363 38.3857C78.8465 38.5043 79.0269 38.7455 79.1369 38.9306C79.1933 39.0254 79.2407 39.1238 79.2805 39.206C79.3232 39.2943 79.3565 39.3631 79.3918 39.4286C79.4657 39.5656 79.5058 39.5954 79.5148 39.6005L79.5217 39.6044L79.5295 39.6093C79.7374 39.7348 79.8986 39.922 79.9553 40.1708C80.0076 40.4007 79.9537 40.6105 79.8937 40.7597C79.7827 41.036 79.5538 41.3197 79.4602 41.4491L79.4553 41.455C79.3684 41.5715 79.3022 41.6715 79.257 41.7577C79.2279 41.8134 79.2145 41.8517 79.2082 41.8749C79.2328 41.8931 79.2826 41.9259 79.3791 41.9609H79.3811C79.6565 42.0615 79.9151 42.1952 80.0744 42.4023C80.1634 42.518 80.2262 42.6626 80.2297 42.828C80.2331 42.9889 80.1802 43.1238 80.1203 43.2226C80.0106 43.4034 79.8389 43.5269 79.7277 43.5985C79.6113 43.6736 79.4901 43.7333 79.4143 43.7714L79.4152 43.7724C76.859 45.1448 75.5343 47.4517 74.968 50.1786L74.967 50.1806C74.7454 51.2201 74.6845 52.3012 74.673 53.4198C74.6619 54.5081 74.6998 55.7076 74.6691 56.8349C74.6693 57.6164 74.6868 58.4113 74.7336 59.1952L74.7912 59.9794L74.7922 59.9911C74.8442 60.8017 75.0795 61.4379 75.7053 61.9071L75.8361 61.9989L75.8391 62.0009C76.3803 62.3636 76.6369 63.0224 76.6994 63.6152C76.7622 64.2106 76.6471 64.8956 76.258 65.3739L76.2463 65.3876C75.6757 66.0394 75.4733 66.8345 75.4426 67.7939L75.4543 68.0058C75.4609 68.0572 75.4696 68.0966 75.4787 68.1259C75.5299 68.1163 75.613 68.0928 75.7326 68.0331C76.0126 67.8883 76.2748 67.7782 76.51 67.7431C76.7724 67.7039 77.0755 67.7535 77.2873 68.0165C77.4515 68.2204 77.4928 68.4815 77.5119 68.6601C77.5329 68.8562 77.5369 69.0975 77.5441 69.3319L77.5451 69.3339C77.6073 71.5541 77.3887 73.8274 77.3283 75.9823V75.9853C77.2696 77.7589 77.7725 79.4975 78.9064 80.6122C79.6352 81.313 80.2333 82.0042 80.55 83.0224L80.6008 83.1972C80.7039 83.615 80.6901 84.0944 80.3264 84.5058L80.3225 84.5097C79.1451 85.8115 78.3981 87.3538 77.7062 88.9921C77.0235 90.6088 76.3836 92.3495 75.4309 93.914L75.4289 93.9179C74.5691 95.307 73.8625 96.6683 73.8342 98.2636C73.8331 98.4715 73.7971 98.7343 73.7863 98.8691C73.7724 99.0434 73.779 99.157 73.8088 99.247C74.1563 100.295 74.0805 101.327 73.8205 102.314L73.8215 102.315C73.446 103.926 74.1681 105.158 75.343 106.27L75.5842 106.491C75.9715 106.837 76.5816 106.926 77.1603 106.635C77.2598 106.581 77.3042 106.53 77.3283 106.489C77.3555 106.444 77.3769 106.379 77.3859 106.279C77.3954 106.175 77.39 106.055 77.3781 105.901C77.3673 105.762 77.3488 105.576 77.3488 105.403C77.3488 105.354 77.3353 105.287 77.3127 105.219L77.2971 105.172L77.2902 105.122C77.199 104.377 77.3038 103.702 77.718 103.198C78.1333 102.693 78.7735 102.464 79.5187 102.418L79.5344 102.417H79.549C79.6706 102.417 79.7733 102.415 79.8635 102.405C79.9541 102.395 80.0096 102.379 80.0422 102.364C80.068 102.352 80.0723 102.345 80.0734 102.344C80.0761 102.339 80.0962 102.305 80.1008 102.209L80.1018 102.201C80.1693 101.132 80.5151 100.188 80.9299 99.3144C81.1368 98.8785 81.3651 98.4524 81.5861 98.038C81.8091 97.6199 82.0251 97.2129 82.2199 96.7987L82.2219 96.7939C82.6862 95.8292 83.0924 94.9483 83.2951 93.9296C83.7139 91.7326 84.8079 89.7612 85.7189 87.9296C86.6323 86.0929 86.8102 84.2001 87.093 82.1474L87.0939 82.1454C87.1569 81.7027 87.215 81.3195 87.2443 80.9062L87.2775 80.4413H88.5402L88.6076 80.8622C88.7035 81.4569 88.7876 82.0259 88.8713 82.5888L89.133 84.2792L89.135 84.288C89.4484 86.4306 89.5565 88.5757 89.6262 90.7011C89.6874 92.5677 89.7186 94.4106 89.8283 96.2489L89.8811 97.037V97.039C89.9567 98.1489 90.1448 99.2455 90.3098 100.394C90.4728 101.53 90.61 102.702 90.5617 103.9C90.5528 104.179 90.6528 104.298 90.7951 104.367C90.9868 104.46 91.3506 104.501 91.9133 104.36L92.799 104.131C93.6949 103.906 94.6217 103.71 95.5715 103.661L96.008 103.625C96.1562 103.609 96.3084 103.59 96.467 103.57C96.7735 103.532 97.1035 103.493 97.4445 103.476L97.5588 103.463C97.8105 103.427 97.9568 103.344 98.0422 103.255C98.1371 103.156 98.2199 102.983 98.2199 102.668C98.2199 102.567 98.2058 102.516 98.1984 102.495C98.1952 102.494 98.1915 102.492 98.1867 102.491C98.1344 102.477 98.0554 102.471 97.9172 102.469C97.8055 102.467 97.6351 102.468 97.4758 102.451C97.4726 102.451 97.4692 102.45 97.466 102.45C97.4625 102.45 97.4588 102.451 97.4553 102.45C95.9409 102.322 94.9299 100.969 94.76 99.3642L94.759 99.3564C94.6924 98.6198 94.751 97.91 94.8293 97.2372C94.9093 96.5496 95.0055 95.9233 95.0353 95.2782C95.1267 91.9299 95.0666 88.4978 95.2521 85.1103C95.2913 84.3405 95.3535 83.5704 95.4172 82.8066C95.4811 82.0396 95.547 81.2797 95.593 80.5194C95.6848 78.9993 95.6982 77.5 95.4738 76.0116L95.468 75.9745V75.3202L95.4709 75.2929C95.5941 74.1475 95.8349 73.2428 96.5109 72.748C97.1829 72.2562 98.1204 72.2916 99.2404 72.4921L99.2482 72.4941L99.2561 72.495C99.4583 72.5378 99.6415 72.6131 99.7932 72.7353C99.9488 72.8606 100.041 73.0117 100.098 73.1571C100.15 73.2925 100.172 73.4274 100.186 73.5165C100.201 73.6176 100.209 73.6688 100.222 73.7177C100.352 74.1665 100.508 74.4882 100.712 74.7021C100.9 74.8987 101.16 75.037 101.582 75.0634C101.888 75.0744 102.052 74.9669 102.122 74.87C102.189 74.7787 102.24 74.6053 102.124 74.329C101.981 74.006 101.987 73.6575 102.055 73.3954C102.089 73.2625 102.148 73.117 102.244 72.995C102.323 72.8955 102.511 72.7156 102.792 72.7353L102.793 72.7333C102.903 72.7382 102.984 72.7342 103.042 72.7294C103.026 72.6821 103.006 72.622 102.978 72.5429C102.933 72.4174 102.852 72.1908 102.859 71.9589C102.859 71.9197 102.84 71.8405 102.769 71.6874C102.735 71.6147 102.698 71.5436 102.654 71.4569C102.614 71.3756 102.568 71.2816 102.529 71.1855C102.456 71.0088 102.363 70.7277 102.446 70.4277C102.537 70.095 102.796 69.8858 103.098 69.7587C103.249 69.6936 103.419 69.676 103.588 69.7255C103.746 69.7718 103.862 69.8653 103.942 69.9491C104.092 70.1069 104.194 70.3197 104.264 70.4872C104.338 70.6643 104.408 70.868 104.467 71.0331C104.531 71.2105 104.583 71.3475 104.634 71.4443C105.878 73.7887 107.054 76.0565 108.823 77.9569C109.926 79.1303 110.709 80.55 110.149 82.3749C110.14 82.4161 110.131 82.4547 110.123 82.4843C110.113 82.5251 110.107 82.5528 110.102 82.578C110.092 82.6283 110.097 82.6308 110.094 82.6152C110.408 83.9923 110.244 85.2728 109.92 86.4794C109.758 87.083 109.554 87.6746 109.348 88.2499C109.14 88.8307 108.932 89.3892 108.75 89.954C108.525 90.6784 108.464 91.4217 108.438 92.2138C108.412 92.9894 108.418 93.8435 108.306 94.6845C108.028 96.7352 107.713 98.781 106.914 100.771C106.438 102.031 106.271 103.371 105.948 104.799C105.882 105.102 105.94 105.292 106.033 105.423C106.136 105.566 106.331 105.704 106.647 105.793H106.65C106.94 105.876 107.366 105.984 107.696 106.222C108.074 106.493 108.301 106.904 108.309 107.486C108.315 107.492 108.324 107.499 108.337 107.507C108.354 107.516 108.374 107.524 108.396 107.529C109.582 107.827 110.72 107.895 111.748 107.464C111.811 107.435 111.854 107.41 111.883 107.39C111.846 107.348 111.784 107.288 111.68 107.221C109.841 106.063 109.049 103.568 109.885 101.573C110.471 100.115 111.059 98.6527 111.679 97.1894C111.704 97.1304 111.708 97.1153 111.744 97.0253C111.771 96.9604 111.809 96.8717 111.864 96.7851C111.989 96.5891 112.215 96.3866 112.572 96.3866L112.7 96.3944C112.828 96.4106 112.952 96.4523 113.064 96.5263C113.21 96.6229 113.298 96.7498 113.353 96.8564C113.405 96.9576 113.436 97.0602 113.455 97.123C113.479 97.2015 113.486 97.2282 113.495 97.2499L113.501 97.2626L113.622 97.5956C113.886 98.3736 114.018 99.168 114.126 99.9325C114.253 100.822 114.348 101.659 114.57 102.476C114.669 102.841 114.536 103.131 114.415 103.319C114.36 103.406 114.293 103.491 114.251 103.546C114.207 103.604 114.18 103.644 114.16 103.678C113.876 104.284 113.915 104.559 113.986 104.684C114.055 104.806 114.249 104.963 114.746 105.081L114.979 105.129L114.983 105.13C116.261 105.369 116.829 105.123 117.079 104.794C117.363 104.422 117.444 103.707 117.186 102.56L117.185 102.557C116.591 99.8247 116.244 97.0413 116.402 94.2167V94.2128C116.615 90.9318 116.311 87.6769 116.031 84.3398V84.3368C115.836 81.8096 116.72 79.5309 117.614 77.3915C118.862 74.3509 120.149 71.4231 120.328 68.2626L121.301 68.1288L122.015 70.2138L121.932 70.3954C121.738 70.8177 121.565 71.163 121.418 71.5468L121.414 71.5575C121.352 71.7105 121.268 71.8701 121.211 71.9853C121.148 72.1145 121.106 72.2118 121.082 72.2968C121.06 72.3763 121.062 72.4242 121.07 72.4579C121.077 72.4888 121.097 72.5467 121.182 72.6318C121.568 73.0197 122.032 73.1831 122.587 73.1103L122.989 73.0575L123.124 73.4413L123.447 74.3652C123.769 73.4678 124.062 72.5389 124.405 71.5468L124.714 70.6542L125.279 71.411C125.605 71.8489 125.789 72.3139 125.924 72.746C125.991 72.9595 126.049 73.1758 126.104 73.372C126.16 73.5729 126.213 73.7583 126.277 73.9345L126.279 73.9443C127.109 76.4174 128.103 78.9443 128.664 81.5927L128.771 82.1239C129.143 84.1211 129.439 86.1906 129.018 88.372C128.26 92.3039 128.653 96.3256 128.871 100.399L128.946 101.511C129.024 102.635 129.09 103.793 128.994 104.947C128.993 105.033 128.988 105.116 128.982 105.188C128.974 105.278 128.967 105.349 128.964 105.419C128.961 105.487 128.962 105.537 128.966 105.574L128.975 105.616L128.977 105.621C129.237 106.16 129.511 106.752 129.605 107.377C129.703 108.028 129.604 108.702 129.166 109.399L129.164 109.402C129.158 109.411 129.155 109.419 129.153 109.425C129.17 109.441 129.223 109.478 129.33 109.473C129.609 109.448 129.884 109.456 130.137 109.468C130.406 109.481 130.637 109.498 130.877 109.5C131.34 109.503 131.728 109.445 132.089 109.211L132.103 109.202L132.117 109.194C132.376 109.05 132.659 109.037 132.852 109.037C133.092 109.037 133.209 109.052 133.37 109.039L133.391 109.037H133.628C133.688 109.035 133.722 109.029 133.741 109.023C133.743 109.023 133.746 109.021 133.746 109.021C133.748 109.017 133.751 109.012 133.754 109.004L133.761 108.988L133.769 108.973C133.81 108.89 133.809 108.827 133.797 108.779C133.784 108.727 133.75 108.672 133.692 108.626L133.678 108.615L133.665 108.604C133.139 108.132 132.893 107.585 132.738 107.055C132.663 106.796 132.608 106.53 132.555 106.288C132.501 106.041 132.449 105.811 132.379 105.587C132.042 104.535 132.226 103.545 132.374 102.699C132.528 101.82 132.644 101.092 132.384 100.347C132.025 99.3179 132.188 98.3111 132.396 97.4081C132.613 96.4654 132.865 95.6661 132.851 94.8456L132.848 94.4023C132.864 92.1927 133.32 90.0683 133.798 88.0009C134.312 85.778 134.848 83.6288 134.953 81.415C135.013 79.9483 134.951 78.2977 135.405 76.7304L135.522 76.331L135.936 76.372C136.156 76.3942 136.367 76.4617 136.538 76.6034C136.714 76.7483 136.799 76.9303 136.841 77.0878C136.88 77.2343 136.886 77.3809 136.89 77.4745C136.894 77.5836 136.896 77.6347 136.903 77.6757C137.607 80.5708 138.099 83.4456 138.964 86.2001L139.143 86.7509C139.711 88.4641 140.065 90.2034 140.382 91.9198C140.701 93.6455 140.983 95.3388 141.41 97.0116C141.564 97.5991 141.848 98.1245 142.156 98.7362C142.418 99.2553 142.691 99.8287 142.825 100.482L142.874 100.767L142.875 100.772C142.927 101.187 143.007 101.605 143.094 102.037C143.18 102.464 143.274 102.91 143.348 103.356C143.495 104.254 143.568 105.209 143.329 106.204L143.326 106.215C143.204 106.679 143.31 106.787 143.332 106.808C143.399 106.869 143.606 106.954 144.111 106.925L144.444 106.895C145.2 106.806 145.813 106.572 146.365 106.064C146.855 105.605 147.433 105.225 147.891 104.88L147.897 104.876C148.41 104.499 148.702 104.111 148.83 103.721C148.958 103.334 148.946 102.885 148.744 102.346C148.517 101.737 148.348 101.531 148.153 101.433C147.957 101.335 147.643 101.295 147.016 101.354L146.987 101.472L146.651 101.517C146.378 101.553 146.038 101.548 145.791 101.273C145.692 101.163 145.639 101.039 145.609 100.959C145.588 100.905 145.54 100.762 145.527 100.725L145.521 100.708L145.516 100.691C145.314 99.9813 145.258 99.265 145.219 98.5946C145.179 97.9087 145.157 97.2821 145.041 96.6698L144.971 96.2587C144.82 95.3021 144.771 94.3519 144.717 93.4384C144.655 92.3829 144.586 91.3717 144.364 90.3749L144.363 90.371C143.61 86.8363 143.45 83.2826 144.209 79.6884C144.73 77.1327 145.061 74.5367 144.941 71.9218L144.915 71.4657C144.847 70.4099 144.718 69.411 144.433 68.3954C144.144 67.3945 143.968 66.368 144.241 65.165C144.326 64.7383 144.28 64.2612 144.176 63.7099C144.078 63.194 143.91 62.5407 143.831 61.955C143.794 61.7135 143.757 61.4607 143.75 61.2245C143.743 60.9816 143.766 60.7189 143.875 60.4657C144.109 59.9249 144.637 59.6275 145.383 59.4443L145.389 59.4433C145.71 59.3688 146.051 59.3167 146.363 59.2646C146.685 59.211 146.988 59.1551 147.278 59.0722C147.845 58.9098 148.334 58.6493 148.712 58.1171C149.437 57.0677 149.897 56.3163 149.656 55.2284L149.599 55.0058C149.284 53.9442 149.048 52.8692 148.817 51.8153C148.584 50.7558 148.356 49.717 148.053 48.6962C147.103 45.493 145.861 42.8293 142.709 41.4921L142.705 41.4902C142.212 41.2755 141.75 41.0137 141.311 40.7558C140.864 40.4934 140.448 40.2399 140.015 40.0146L140.005 40.0097C139.849 39.924 139.59 39.7817 139.425 39.5507C139.332 39.421 139.267 39.263 139.255 39.079C139.243 38.9002 139.284 38.7274 139.353 38.5663L139.356 38.5605C139.368 38.5323 139.381 38.5026 139.397 38.4638C139.412 38.4272 139.43 38.3824 139.45 38.3378C139.489 38.2518 139.547 38.1359 139.635 38.0292C139.728 37.9168 139.862 37.8042 140.049 37.747C140.234 37.6906 140.421 37.7028 140.597 37.7528C140.706 37.7837 140.793 37.7981 140.859 37.8066L140.858 37.8017C140.84 37.7462 140.816 37.6877 140.789 37.6327C140.763 37.5781 140.737 37.5311 140.717 37.498C140.708 37.483 140.7 37.4731 140.696 37.4677L140.68 37.4452C140.223 36.8328 140.293 36.2356 140.421 35.7792C140.452 35.6697 140.488 35.5648 140.519 35.4726C140.551 35.3764 140.578 35.2961 140.601 35.2187C140.647 35.0593 140.655 34.9719 140.648 34.9169L140.647 34.9101C140.602 34.5646 140.676 34.2345 140.75 33.9696C140.834 33.6702 140.908 33.4755 140.953 33.2431C140.994 33.0342 140.99 32.8785 140.942 32.7441C140.894 32.6139 140.782 32.4423 140.49 32.245L140.486 32.2421C140.283 32.1013 140.149 31.8877 140.056 31.7089C139.957 31.5195 139.872 31.3006 139.795 31.0888C139.632 30.6378 139.503 30.2178 139.334 29.8788C138.909 29.0244 138.318 28.3446 137.525 27.8027C137.456 27.7617 137.334 27.6896 137.231 27.6132C137.173 27.5705 137.099 27.5105 137.035 27.4355C136.981 27.372 136.87 27.224 136.87 27.0136V26.9911ZM144.949 53.4218C145.418 54.0746 145.643 54.8772 145.612 55.6308C145.58 56.3827 145.288 57.1351 144.665 57.62L143.479 58.5429L143.875 57.0937C144.017 56.5737 143.97 56.0835 143.918 55.4902C143.868 54.9188 143.815 54.2477 144.074 53.5409L144.399 52.6552L144.949 53.4218ZM126.184 48.5819L126.221 48.5878C126.343 48.6062 126.47 48.6093 126.646 48.6181C126.797 48.6256 127.007 48.6379 127.198 48.6991C127.409 48.7663 127.646 48.9076 127.773 49.1943C127.888 49.4537 127.873 49.7464 127.809 50.0312C127.585 51.0151 127.685 51.9575 127.915 52.9208C128.031 53.4045 128.177 53.8859 128.329 54.3818C128.48 54.8727 128.637 55.3796 128.765 55.8925H128.763C128.868 56.2815 128.828 56.6249 128.686 56.9286C128.553 57.2121 128.343 57.4359 128.17 57.6093C128.047 57.7335 127.895 57.8366 127.711 57.8808C127.523 57.9259 127.351 57.8976 127.211 57.8437C126.974 57.7526 126.77 57.5537 126.682 57.4765L126.673 57.4696C126.45 57.2646 126.155 57.1997 125.713 57.2275L125.697 57.2284H125.357L125.214 56.9706C124.8 56.2218 124.237 55.3531 124.117 54.2753C123.527 53.8428 123.19 53.2921 122.973 52.7216C122.749 52.1345 122.634 51.4675 122.506 50.9403L122.492 50.8827V50.8232C122.492 50.6456 122.577 50.5221 122.611 50.4775C122.619 50.4664 122.628 50.4562 122.637 50.4462C123.049 49.6351 123.714 49.3036 124.333 49.1132C124.629 49.022 124.964 48.9495 125.211 48.8857C125.481 48.8158 125.695 48.7454 125.867 48.6474L125.983 48.5819H126.184ZM103.829 53.5566C104.341 53.5903 104.641 53.9438 104.765 54.2987C104.807 54.4194 104.832 54.5465 104.842 54.6747H105.009L104.791 55.3319C104.56 56.0285 104.147 56.6999 103.775 57.4482L102.829 57.1767C102.918 56.2895 102.954 55.56 103.046 54.8739C103.049 54.8453 103.046 54.7936 103.039 54.6884C103.033 54.6004 103.023 54.4661 103.029 54.3407C103.033 54.2276 103.052 54.0242 103.179 53.8456C103.34 53.6179 103.591 53.5382 103.829 53.5566ZM126.115 49.0823C125.187 49.6107 123.703 49.362 123.054 50.7296C123.023 50.7607 122.992 50.7918 122.992 50.8229C123.27 51.9729 123.394 53.2162 124.538 53.9622C124.6 53.9622 124.6 54.0244 124.6 54.0554C124.646 54.8245 124.954 55.4713 125.3 56.1005L125.651 56.7285H125.682C126.177 56.6974 126.64 56.7596 127.012 57.1015C127.259 57.3191 127.506 57.5677 127.815 57.2569C128.134 56.9365 128.399 56.6158 128.304 56.1161L128.279 56.0136C127.785 54.0244 126.826 52.0973 127.321 49.9215C127.537 48.9579 126.764 49.1755 126.146 49.0823H126.115ZM103.791 54.0554C103.389 54.0244 103.574 54.6149 103.543 54.9257L103.484 55.4423C103.431 55.9668 103.396 56.5266 103.327 57.2258C103.729 56.4177 104.1 55.8271 104.316 55.1744H104.285C104.43 54.7666 104.331 54.1674 103.885 54.0683L103.791 54.0554ZM144.358 57.2258C144.698 55.9825 144.11 54.8947 144.543 53.7135C145.347 54.8325 145.316 56.4799 144.358 57.2258ZM137.37 27.0138C137.37 27.1381 137.648 27.2935 137.803 27.3868C138.668 27.9773 139.318 28.7233 139.782 29.6558C140.153 30.4018 140.369 31.5518 140.771 31.8315C142.193 32.7951 141.018 33.883 141.142 34.8465C141.235 35.4993 140.431 36.2763 141.08 37.1466C141.167 37.2341 141.907 38.4959 140.725 38.2948L140.462 38.2345C140.029 38.1102 139.936 38.4832 139.812 38.7629C139.627 39.1981 139.905 39.3846 140.245 39.5711C141.142 40.0373 141.977 40.6279 142.904 41.0319C146.275 42.4617 147.573 45.3213 148.532 48.5539C149.15 50.6364 149.46 52.7811 150.078 54.8636C150.511 56.3245 149.892 57.288 149.119 58.407L148.94 58.6357C148.008 59.7058 146.632 59.6678 145.502 59.93C144.11 60.2719 144.172 60.8936 144.327 61.8882C144.481 63.0382 144.945 64.2194 144.729 65.2762L144.688 65.4784C144.502 66.4806 144.653 67.3569 144.914 68.2601C145.254 69.4723 145.378 70.6534 145.44 71.8967C145.564 74.5698 145.223 77.2118 144.698 79.7916L144.57 80.4501C143.978 83.7393 144.157 87.0029 144.852 90.2664C145.316 92.3489 145.131 94.4625 145.533 96.5761C145.78 97.8816 145.625 99.2492 145.996 100.555C146.12 100.897 146.12 101.083 146.584 101.021L146.615 100.897C148.315 100.679 148.748 100.928 149.212 102.171C149.676 103.414 149.336 104.44 148.192 105.279C147.697 105.652 147.171 105.994 146.708 106.429L146.568 106.553C145.861 107.143 145.069 107.366 144.141 107.424L143.95 107.431C143.028 107.44 142.582 107.078 142.843 106.087C143.276 104.285 142.595 102.575 142.379 100.834C142.205 99.5524 141.379 98.5702 140.996 97.3769L140.926 97.1356C140.06 93.7476 139.782 90.2664 138.668 86.9095C137.803 84.3258 137.292 81.5988 136.681 78.9169L136.411 77.7713C136.349 77.4294 136.504 76.9321 135.886 76.8699C135.453 78.3619 135.515 79.916 135.453 81.439L135.428 81.8632C135.115 86.2432 133.26 90.3789 133.35 94.8355C133.38 96.5818 132.308 98.2993 132.803 100.016L132.908 100.348C133.4 102.057 132.286 103.658 132.855 105.435C133.165 106.429 133.134 107.455 133.999 108.232C134.278 108.45 134.401 108.823 134.216 109.196C134.061 109.569 133.721 109.537 133.412 109.537C133.041 109.569 132.639 109.475 132.361 109.631C131.402 110.252 130.351 109.879 129.361 109.973L129.265 109.973C128.824 109.95 128.524 109.594 128.698 109.215L128.743 109.133C129.485 107.952 129.052 106.927 128.527 105.839C128.434 105.652 128.463 105.396 128.484 105.148L128.496 104.906C128.588 103.787 128.525 102.668 128.448 101.549L128.372 100.43C128.169 96.6423 127.804 92.7995 128.396 89.0302L128.527 88.2771C128.929 86.1946 128.65 84.2053 128.279 82.2161C127.754 79.4187 126.702 76.7767 125.806 74.1036C125.527 73.3265 125.435 72.4562 124.878 71.7102C124.383 73.14 123.981 74.5076 123.425 75.8131L122.652 73.6063C121.941 73.6995 121.322 73.4819 120.828 72.9846C120.271 72.4251 120.735 71.8967 120.951 71.3683C121.106 70.9643 121.291 70.5913 121.477 70.1872L120.828 68.2912C120.642 71.5548 119.312 74.5698 118.076 77.5848L117.744 78.3905C116.986 80.2766 116.367 82.2043 116.53 84.2986C116.808 87.6244 117.117 90.9191 116.901 94.2449C116.746 97.0113 117.086 99.7465 117.674 102.451C118.199 104.782 117.55 106.118 114.891 105.621C113.499 105.372 113.097 104.751 113.716 103.445C113.861 103.183 114.142 102.975 114.1 102.669L114.087 102.606C113.623 100.897 113.685 99.0938 113.036 97.4464C112.943 97.2289 112.943 96.8869 112.572 96.8869C112.294 96.8869 112.232 97.1667 112.139 97.3843C111.521 98.8451 110.933 100.306 110.346 101.767L110.28 101.934C109.649 103.677 110.366 105.808 111.953 106.802C112.572 107.206 112.572 107.641 111.953 107.921C110.925 108.356 109.827 108.339 108.739 108.12L108.274 108.014C108.058 107.96 107.865 107.81 107.821 107.607L107.81 107.517C107.81 106.616 107.161 106.46 106.511 106.274C105.738 106.056 105.275 105.528 105.46 104.689C105.731 103.492 105.906 102.248 106.278 101.081L106.45 100.586C107.223 98.6586 107.532 96.6694 107.81 94.6179C108.013 93.1027 107.808 91.5872 108.19 90.0976L108.274 89.8002C108.993 87.572 110.118 85.4017 109.654 82.9511L109.604 82.7134C109.573 82.558 109.634 82.4026 109.665 82.2472C110.129 80.7609 109.587 79.5751 108.652 78.5107L108.459 78.2997C106.635 76.3415 105.429 74.0103 104.192 71.6791C103.914 71.1507 103.729 70.0318 103.296 70.2183L103.149 70.2919C102.515 70.6835 103.358 71.3761 103.358 71.9589C103.329 72.4251 104.061 73.1914 103.006 73.2343L102.77 73.2333C102.585 73.2022 102.399 73.7306 102.585 74.1347C102.925 74.9428 102.43 75.5955 101.564 75.5644L101.368 75.5458C100.551 75.4331 100.123 74.9239 99.8537 74.2021L99.74 73.8549C99.6472 73.513 99.74 73.1089 99.1525 72.9846C96.8953 72.5805 96.2151 73.0468 95.9677 75.3469V75.9374C96.4315 79.0146 95.9059 82.0917 95.7513 85.1378C95.5658 88.5258 95.6276 91.9138 95.5349 95.3018L95.5002 95.8017C95.3953 96.9656 95.1484 98.1147 95.2566 99.3114C95.4112 100.772 96.3079 101.86 97.5137 101.953C98.0394 102.016 98.7196 101.798 98.7196 102.668L98.715 102.815C98.6645 103.529 98.2365 103.915 97.4828 103.974C96.8335 104.005 96.2151 104.129 95.5967 104.16C94.3908 104.222 93.2159 104.533 92.0409 104.844L91.8146 104.894C90.7842 105.092 90.1252 104.773 90.0656 104.043L90.062 103.88C90.1548 101.58 89.5364 99.3425 89.3818 97.0734C89.0726 92.8462 89.2581 88.588 88.6397 84.3608C88.4542 83.2418 88.2996 82.0917 88.114 80.9417H87.743C87.7121 81.3769 87.6502 81.7809 87.5884 82.2161C87.3101 84.2364 87.1246 86.2257 86.1661 88.1528C85.2385 90.0177 84.1872 91.9138 83.7852 94.0274C83.5688 95.1153 83.1359 96.0477 82.6721 97.0113C81.8682 98.7208 80.7241 100.275 80.6004 102.233C80.5695 102.886 80.0439 102.917 79.5492 102.917C78.2093 103 77.6218 103.715 77.7867 105.062C77.8176 105.155 77.8486 105.279 77.8486 105.404L77.8576 105.63C77.8952 106.167 78.007 106.756 77.3848 107.082L77.2443 107.146C76.5392 107.441 75.7729 107.331 75.2513 106.864C73.8908 105.652 72.8704 104.191 73.3342 102.202C73.5816 101.27 73.6434 100.337 73.3342 99.4046C73.2416 99.125 73.2876 98.8274 73.3166 98.539L73.3342 98.2546C73.3651 96.514 74.1381 95.0531 75.0039 93.6544C76.8591 90.6083 77.4775 86.9095 79.9511 84.1743C80.1673 83.9296 80.1948 83.6372 80.1154 83.3183L80.0748 83.1796C79.7965 82.2782 79.2709 81.6566 78.5597 80.9728C77.292 79.7295 76.7664 77.8335 76.8282 75.9685C76.89 73.7617 77.1065 71.5548 77.0446 69.348C77.0137 68.3533 77.0446 67.9182 75.9624 68.4777L75.8391 68.5351C75.281 68.7729 74.9837 68.581 74.9465 67.9384L74.9421 67.7938C74.973 66.7681 75.1894 65.8357 75.8697 65.0586C76.4262 64.3748 76.3026 62.9139 75.5605 62.4166C74.6638 61.826 74.3546 60.9868 74.2927 60.0233C74.2232 59.2306 74.189 58.4204 74.176 57.6191L74.1691 56.8218C74.2309 54.5528 74.0145 52.2527 74.4783 50.0769C75.0657 47.2484 76.4572 44.7929 79.1781 43.332C79.4873 43.1766 80.2294 42.8036 79.209 42.4306C78.5329 42.1859 78.6379 41.7747 78.923 41.3427L79.0544 41.1563C79.3018 40.8144 79.7347 40.317 79.2709 40.0373C78.7143 39.7265 78.838 38.4521 77.7249 38.9183C76.8565 39.2795 76.8292 38.0373 76.0978 37.9589L76.0243 37.9548C75.7769 37.9548 76.2716 37.4575 76.2407 37.2088C76.1789 36.8047 76.7354 36.0588 76.0861 36.0588C74.973 36.0588 75.6223 35.6236 75.8078 35.3128C76.3644 34.4735 77.292 34.2249 78.1887 33.9141C78.6235 33.7684 79.4119 33.4586 79.2795 33.1132L79.24 33.0438C78.8225 32.4842 79.0489 32.2043 79.3186 31.9814L79.5801 31.7694C82.1155 29.5625 85.7641 29.5004 88.3614 31.5518C88.6088 31.7694 88.7015 31.9559 88.6088 32.2667C88.3305 33.137 88.7324 33.7276 89.5054 34.0695C90.2475 34.4114 90.3403 34.9709 90.3403 35.7168C90.3712 36.8358 89.4436 37.675 89.5982 38.8251C89.7837 40.0684 89.66 41.2184 87.9594 41.4671C88.4542 41.9022 88.887 41.8401 89.2581 41.9333C90.9896 42.3374 92.6902 42.7725 93.5251 44.5442C94.7928 47.2173 95.3184 50.1391 96.246 52.9365C96.6518 54.1603 97.1123 54.974 98.3146 55.3271L98.565 55.392C98.5882 55.299 98.6288 55.2229 98.6477 55.1386L98.6578 55.0501C98.6887 50.854 99.2453 46.72 99.8637 42.586C100.049 41.3117 100.544 40.3792 101.904 39.8508C103.041 39.4156 104.13 38.7899 105.11 38.0155L105.522 37.675C105.831 37.3953 106.202 37.1777 105.955 36.6182C105.553 35.7168 105.491 34.8155 105.8 33.8519C105.924 33.3546 105.831 32.7329 105.46 32.2978C104.873 31.614 104.996 30.7126 104.78 29.9355C104.533 29.0652 105.337 26.2056 105.769 25.0556C105.914 24.5892 105.923 24.0404 106.358 23.8202L106.45 23.7812C106.867 23.6258 107.3 23.5012 107.737 23.3886L109.047 23.0663C109.263 23.0042 109.511 22.9109 109.665 23.1906C110.036 23.8434 110.748 23.8745 111.366 24.061C112.634 24.4339 114.087 25.9881 114.211 27.0759C114.334 28.0395 113.87 29.0963 114.798 29.9044C114.922 29.9977 114.891 30.3707 114.829 30.5883L114.763 30.8359C114.471 32.0858 114.746 33.5081 113.499 34.4114C113.221 34.5979 113.067 34.9709 112.881 35.2506C112.201 36.3074 112.603 37.4575 113.84 37.4575C115.664 37.4575 117.086 38.3899 118.632 38.9805C119.498 39.3224 120.549 39.7265 120.611 40.9387C120.673 42.4928 121.229 43.9226 121.539 45.4145V45.5389C121.917 45.3214 122.249 45.08 122.554 44.7734L122.683 44.6375C123.321 43.9381 123.904 43.1297 124.816 42.7753L125.002 42.7104C126.17 42.3488 126.729 40.9081 128.112 41.0165L128.248 41.0319C128.275 41.0319 128.326 40.9123 128.38 40.8827L128.403 40.8765C129.547 40.5968 130.506 39.7886 131.742 39.6643C133.829 39.4603 134.341 38.7371 133.581 37.0341L133.412 36.6804C133.319 36.4784 133.219 36.2841 133.114 36.0937L132.794 35.5304C132.175 34.3803 132.052 33.0127 132.299 31.8315C132.608 30.2774 133.381 28.7855 134.092 27.3246C134.44 26.6254 135.119 26.4506 135.827 26.3544L136.535 26.2678C137.153 26.1746 137.432 26.33 137.37 27.0138Z" fill="white" fill-opacity="0.4" shape-rendering="crispEdges"/>
</g>
<path d="M164.221 122.569L164.221 102L168.283 102C172.042 102 175.089 105.146 175.089 108.902L175.089 115.668C175.089 119.524 171.94 122.569 168.283 122.569L164.221 122.569Z" fill="url(#paint4_linear_7647_1625)"/>
<g filter="url(#filter3_dd_7647_1625)">
<rect x="119.221" y="87" width="50" height="50" rx="14" fill="url(#paint5_linear_7647_1625)" shape-rendering="crispEdges"/>
<rect x="119.221" y="87" width="50" height="50" rx="14" stroke="url(#paint6_linear_7647_1625)" stroke-miterlimit="10" shape-rendering="crispEdges"/>
</g>
<g filter="url(#filter4_ddi_7647_1625)">
<rect x="124.221" y="92" width="40" height="40" rx="7" fill="url(#paint7_linear_7647_1625)"/>
</g>
<path d="M124.221 99C124.221 95.134 127.355 92 131.221 92H144.221V132H131.221C127.355 132 124.221 128.866 124.221 125V99Z" fill="#777777"/>
<path d="M144.221 92H157.221C161.087 92 164.221 95.134 164.221 99V125C164.221 128.866 161.087 132 157.221 132H144.221V92Z" fill="#4D4D4D"/>
<path opacity="0.2" d="M124.221 112H144.221V132H131.221C127.355 132 124.221 128.866 124.221 125V112Z" fill="black"/>
<path opacity="0.5" d="M144.221 112H164.221V125C164.221 128.866 161.087 132 157.221 132H144.221V112Z" fill="#333333"/>
<path d="M133.776 124.178C131.314 124.178 129.439 123.233 128.152 121.343C126.864 119.442 126.221 116.357 126.221 112.089C126.221 107.82 126.859 104.741 128.135 102.851C129.422 100.95 131.303 100 133.776 100C136.25 100 138.124 100.95 139.401 102.851C140.688 104.741 141.332 107.82 141.332 112.089C141.332 116.357 140.688 119.442 139.401 121.343C138.113 123.233 136.238 124.178 133.776 124.178ZM133.776 122.028C134.849 122.028 135.741 121.725 136.453 121.12C137.176 120.504 137.729 119.469 138.113 118.014C138.508 116.559 138.706 114.6 138.706 112.137C138.706 109.641 138.508 107.661 138.113 106.196C137.729 104.73 137.176 103.69 136.453 103.074C135.741 102.458 134.849 102.15 133.776 102.15C132.715 102.15 131.822 102.458 131.1 103.074C130.377 103.679 129.818 104.709 129.422 106.164C129.039 107.619 128.847 109.578 128.847 112.041C128.847 114.536 129.039 116.517 129.422 117.982C129.818 119.447 130.377 120.488 131.1 121.104C131.822 121.72 132.715 122.028 133.776 122.028Z" fill="#E3E0DA"/>
<mask id="mask0_7647_1625" style="mask-type:alpha" maskUnits="userSpaceOnUse" x="144" y="95" width="19" height="34">
<path d="M144.369 95H162.642V129H144.369V95Z" fill="#777777"/>
</mask>
<g mask="url(#mask0_7647_1625)">
<path d="M160.973 101.2V103.984H148.509V102.208L154.237 93.28C155.154 91.8507 155.815 90.6133 156.221 89.568C156.626 88.512 156.829 87.5093 156.829 86.56C156.829 85.2053 156.471 84.2293 155.757 83.632C155.053 83.024 153.97 82.72 152.509 82.72C150.973 82.72 149.543 83.0027 148.221 83.568V80.848C148.807 80.592 149.533 80.3893 150.397 80.24C151.261 80.08 152.098 80 152.909 80C155.17 80 156.909 80.5013 158.125 81.504C159.351 82.5067 159.965 84.0853 159.965 86.24C159.965 87.4453 159.746 88.6773 159.309 89.936C158.871 91.184 158.114 92.6293 157.037 94.272L152.541 101.2H160.973Z" fill="#E3E0DA"/>
<g filter="url(#filter5_dd_7647_1625)">
<path d="M155.796 118.965C157.296 119.295 158.431 119.94 159.201 120.9C159.981 121.85 160.371 123.07 160.371 124.56C160.371 125.88 160.071 127.005 159.471 127.935C158.881 128.865 158.026 129.57 156.906 130.05C155.796 130.53 154.466 130.77 152.916 130.77C151.286 130.77 149.721 130.525 148.221 130.035V127.605C148.951 127.845 149.721 128.03 150.531 128.16C151.341 128.29 152.111 128.355 152.841 128.355C154.351 128.355 155.506 128.025 156.306 127.365C157.106 126.705 157.506 125.72 157.506 124.41C157.506 123.1 157.091 122.095 156.261 121.395C155.441 120.695 154.171 120.345 152.451 120.345H150.411V117.87H151.761C153.431 117.87 154.696 117.52 155.556 116.82C156.416 116.11 156.846 115.13 156.846 113.88C156.846 112.72 156.506 111.855 155.826 111.285C155.146 110.705 154.111 110.415 152.721 110.415C151.221 110.415 149.826 110.68 148.536 111.21V108.795C149.096 108.555 149.786 108.365 150.606 108.225C151.436 108.075 152.246 108 153.036 108C155.206 108 156.856 108.485 157.986 109.455C159.126 110.415 159.696 111.805 159.696 113.625C159.696 114.935 159.356 116.06 158.676 117C157.996 117.93 157.036 118.585 155.796 118.965Z" fill="url(#paint8_linear_7647_1625)"/>
</g>
</g>
<defs>
<filter id="filter0_dd_7647_1625" x="46.7207" y="25.9009" width="130.42" height="101.728" filterUnits="userSpaceOnUse" color-interpolation-filters="sRGB">
<feFlood flood-opacity="0" result="BackgroundImageFix"/>
<feColorMatrix in="SourceAlpha" type="matrix" values="0 0 0 0 0 0 0 0 0 0 0 0 0 0 0 0 0 0 127 0" result="hardAlpha"/>
<feOffset dy="2"/>
<feGaussianBlur stdDeviation="7"/>
<feComposite in2="hardAlpha" operator="out"/>
<feColorMatrix type="matrix" values="0 0 0 0 1 0 0 0 0 0.8 0 0 0 0 0.2 0 0 0 1 0"/>
<feBlend mode="normal" in2="BackgroundImageFix" result="effect1_dropShadow_7647_1625"/>
<feColorMatrix in="SourceAlpha" type="matrix" values="0 0 0 0 0 0 0 0 0 0 0 0 0 0 0 0 0 0 127 0" result="hardAlpha"/>
<feOffset dy="2"/>
<feGaussianBlur stdDeviation="4"/>
<feComposite in2="hardAlpha" operator="out"/>
<feColorMatrix type="matrix" values="0 0 0 0 0 0 0 0 0 0 0 0 0 0 0 0 0 0 0.5 0"/>
<feBlend mode="normal" in2="effect1_dropShadow_7647_1625" result="effect2_dropShadow_7647_1625"/>
<feBlend mode="normal" in="SourceGraphic" in2="effect2_dropShadow_7647_1625" result="shape"/>
</filter>
<filter id="filter1_dd_7647_1625" x="39.7207" y="20.5" width="144.693" height="116.357" filterUnits="userSpaceOnUse" color-interpolation-filters="sRGB">
<feFlood flood-opacity="0" result="BackgroundImageFix"/>
<feColorMatrix in="SourceAlpha" type="matrix" values="0 0 0 0 0 0 0 0 0 0 0 0 0 0 0 0 0 0 127 0" result="hardAlpha"/>
<feOffset dy="4"/>
<feGaussianBlur stdDeviation="8"/>
<feComposite in2="hardAlpha" operator="out"/>
<feColorMatrix type="matrix" values="0 0 0 0 0 0 0 0 0 0 0 0 0 0 0 0 0 0 0.8 0"/>
<feBlend mode="normal" in2="BackgroundImageFix" result="effect1_dropShadow_7647_1625"/>
<feColorMatrix in="SourceAlpha" type="matrix" values="0 0 0 0 0 0 0 0 0 0 0 0 0 0 0 0 0 0 127 0" result="hardAlpha"/>
<feOffset dy="1"/>
<feGaussianBlur stdDeviation="1"/>
<feComposite in2="hardAlpha" operator="out"/>
<feColorMatrix type="matrix" values="0 0 0 0 0 0 0 0 0 0 0 0 0 0 0 0 0 0 0.3 0"/>
<feBlend mode="normal" in2="effect1_dropShadow_7647_1625" result="effect2_dropShadow_7647_1625"/>
<feBlend mode="normal" in="SourceGraphic" in2="effect2_dropShadow_7647_1625" result="shape"/>
</filter>
<filter id="filter2_dd_7647_1625" x="57.2207" y="11" width="109" height="119" filterUnits="userSpaceOnUse" color-interpolation-filters="sRGB">
<feFlood flood-opacity="0" result="BackgroundImageFix"/>
<feColorMatrix in="SourceAlpha" type="matrix" values="0 0 0 0 0 0 0 0 0 0 0 0 0 0 0 0 0 0 127 0" result="hardAlpha"/>
<feOffset dy="4"/>
<feGaussianBlur stdDeviation="8"/>
<feComposite in2="hardAlpha" operator="out"/>
<feColorMatrix type="matrix" values="0 0 0 0 0 0 0 0 0 0 0 0 0 0 0 0 0 0 0.64 0"/>
<feBlend mode="normal" in2="BackgroundImageFix" result="effect1_dropShadow_7647_1625"/>
<feColorMatrix in="SourceAlpha" type="matrix" values="0 0 0 0 0 0 0 0 0 0 0 0 0 0 0 0 0 0 127 0" result="hardAlpha"/>
<feOffset dy="1"/>
<feGaussianBlur stdDeviation="0.5"/>
<feComposite in2="hardAlpha" operator="out"/>
<feColorMatrix type="matrix" values="0 0 0 0 0 0 0 0 0 0 0 0 0 0 0 0 0 0 0.08 0"/>
<feBlend mode="normal" in2="effect1_dropShadow_7647_1625" result="effect2_dropShadow_7647_1625"/>
<feBlend mode="normal" in="SourceGraphic" in2="effect2_dropShadow_7647_1625" result="shape"/>
</filter>
<filter id="filter3_dd_7647_1625" x="102.721" y="74.5" width="83" height="83" filterUnits="userSpaceOnUse" color-interpolation-filters="sRGB">
<feFlood flood-opacity="0" result="BackgroundImageFix"/>
<feColorMatrix in="SourceAlpha" type="matrix" values="0 0 0 0 0 0 0 0 0 0 0 0 0 0 0 0 0 0 127 0" result="hardAlpha"/>
<feOffset dy="4"/>
<feGaussianBlur stdDeviation="8"/>
<feComposite in2="hardAlpha" operator="out"/>
<feColorMatrix type="matrix" values="0 0 0 0 0 0 0 0 0 0 0 0 0 0 0 0 0 0 0.8 0"/>
<feBlend mode="normal" in2="BackgroundImageFix" result="effect1_dropShadow_7647_1625"/>
<feColorMatrix in="SourceAlpha" type="matrix" values="0 0 0 0 0 0 0 0 0 0 0 0 0 0 0 0 0 0 127 0" result="hardAlpha"/>
<feOffset dy="1"/>
<feGaussianBlur stdDeviation="1"/>
<feComposite in2="hardAlpha" operator="out"/>
<feColorMatrix type="matrix" values="0 0 0 0 0 0 0 0 0 0 0 0 0 0 0 0 0 0 0.3 0"/>
<feBlend mode="normal" in2="effect1_dropShadow_7647_1625" result="effect2_dropShadow_7647_1625"/>
<feBlend mode="normal" in="SourceGraphic" in2="effect2_dropShadow_7647_1625" result="shape"/>
</filter>
<filter id="filter4_ddi_7647_1625" x="108.221" y="80" width="72" height="72" filterUnits="userSpaceOnUse" color-interpolation-filters="sRGB">
<feFlood flood-opacity="0" result="BackgroundImageFix"/>
<feColorMatrix in="SourceAlpha" type="matrix" values="0 0 0 0 0 0 0 0 0 0 0 0 0 0 0 0 0 0 127 0" result="hardAlpha"/>
<feOffset dy="4"/>
<feGaussianBlur stdDeviation="8"/>
<feComposite in2="hardAlpha" operator="out"/>
<feColorMatrix type="matrix" values="0 0 0 0 0 0 0 0 0 0 0 0 0 0 0 0 0 0 0.94 0"/>
<feBlend mode="normal" in2="BackgroundImageFix" result="effect1_dropShadow_7647_1625"/>
<feColorMatrix in="SourceAlpha" type="matrix" values="0 0 0 0 0 0 0 0 0 0 0 0 0 0 0 0 0 0 127 0" result="hardAlpha"/>
<feOffset dy="1"/>
<feGaussianBlur stdDeviation="0.5"/>
<feComposite in2="hardAlpha" operator="out"/>
<feColorMatrix type="matrix" values="0 0 0 0 0 0 0 0 0 0 0 0 0 0 0 0 0 0 0.18 0"/>
<feBlend mode="normal" in2="effect1_dropShadow_7647_1625" result="effect2_dropShadow_7647_1625"/>
<feBlend mode="normal" in="SourceGraphic" in2="effect2_dropShadow_7647_1625" result="shape"/>
<feColorMatrix in="SourceAlpha" type="matrix" values="0 0 0 0 0 0 0 0 0 0 0 0 0 0 0 0 0 0 127 0" result="hardAlpha"/>
<feOffset dy="2"/>
<feGaussianBlur stdDeviation="2"/>
<feComposite in2="hardAlpha" operator="arithmetic" k2="-1" k3="1"/>
<feColorMatrix type="matrix" values="0 0 0 0 0.12361 0 0 0 0 0.12361 0 0 0 0 0.12361 0 0 0 0.75 0"/>
<feBlend mode="normal" in2="shape" result="effect3_innerShadow_7647_1625"/>
</filter>
<filter id="filter5_dd_7647_1625" x="134.221" y="96" width="40.15" height="50.77" filterUnits="userSpaceOnUse" color-interpolation-filters="sRGB">
<feFlood flood-opacity="0" result="BackgroundImageFix"/>
<feColorMatrix in="SourceAlpha" type="matrix" values="0 0 0 0 0 0 0 0 0 0 0 0 0 0 0 0 0 0 127 0" result="hardAlpha"/>
<feOffset dy="2"/>
<feGaussianBlur stdDeviation="7"/>
<feComposite in2="hardAlpha" operator="out"/>
<feColorMatrix type="matrix" values="0 0 0 0 1 0 0 0 0 0.8 0 0 0 0 0.2 0 0 0 0.2 0"/>
<feBlend mode="normal" in2="BackgroundImageFix" result="effect1_dropShadow_7647_1625"/>
<feColorMatrix in="SourceAlpha" type="matrix" values="0 0 0 0 0 0 0 0 0 0 0 0 0 0 0 0 0 0 127 0" result="hardAlpha"/>
<feOffset dy="2"/>
<feGaussianBlur stdDeviation="4"/>
<feComposite in2="hardAlpha" operator="out"/>
<feColorMatrix type="matrix" values="0 0 0 0 0 0 0 0 0 0 0 0 0 0 0 0 0 0 0.5 0"/>
<feBlend mode="normal" in2="effect1_dropShadow_7647_1625" result="effect2_dropShadow_7647_1625"/>
<feBlend mode="normal" in="SourceGraphic" in2="effect2_dropShadow_7647_1625" result="shape"/>
</filter>
<linearGradient id="paint0_linear_7647_1625" x1="111.931" y1="37.9009" x2="111.931" y2="111.628" gradientUnits="userSpaceOnUse">
<stop stop-color="#FFCC33"/>
<stop offset="1" stop-color="#FFEAAA"/>
</linearGradient>
<linearGradient id="paint1_linear_7647_1625" x1="112.067" y1="33" x2="112.067" y2="116.357" gradientUnits="userSpaceOnUse">
<stop stop-color="#4D4D4D"/>
<stop offset="0.828125" stop-color="#373737"/>
</linearGradient>
<linearGradient id="paint2_linear_7647_1625" x1="112.067" y1="33" x2="112.067" y2="116.357" gradientUnits="userSpaceOnUse">
<stop stop-color="#696969"/>
<stop offset="0.283654" stop-color="#333333" stop-opacity="0"/>
</linearGradient>
<linearGradient id="paint3_linear_7647_1625" x1="141.685" y1="17.6106" x2="100.047" y2="26.0027" gradientUnits="userSpaceOnUse">
<stop stop-color="#323232" stop-opacity="0"/>
<stop offset="1" stop-color="#F9CC45"/>
</linearGradient>
<linearGradient id="paint4_linear_7647_1625" x1="166.529" y1="102" x2="166.665" y2="122.607" gradientUnits="userSpaceOnUse">
<stop stop-color="#4D4D4D"/>
<stop offset="1" stop-color="#373737"/>
</linearGradient>
<linearGradient id="paint5_linear_7647_1625" x1="144.221" y1="87" x2="144.221" y2="137" gradientUnits="userSpaceOnUse">
<stop stop-color="#4D4D4D"/>
<stop offset="0.828125" stop-color="#373737"/>
</linearGradient>
<linearGradient id="paint6_linear_7647_1625" x1="144.221" y1="87" x2="144.221" y2="137" gradientUnits="userSpaceOnUse">
<stop stop-color="#696969"/>
<stop offset="0.283654" stop-color="#333333" stop-opacity="0"/>
</linearGradient>
<linearGradient id="paint7_linear_7647_1625" x1="106.721" y1="109.073" x2="108.282" y2="134.626" gradientUnits="userSpaceOnUse">
<stop offset="0.0036" stop-color="#404040"/>
<stop offset="1" stop-color="#302F2D"/>
</linearGradient>
<linearGradient id="paint8_linear_7647_1625" x1="154.296" y1="108" x2="154.296" y2="130.77" gradientUnits="userSpaceOnUse">
<stop stop-color="#FFCC33"/>
<stop offset="1" stop-color="#FFEAAA"/>
</linearGradient>
</defs>
</svg>
