<svg width="230" height="160" viewBox="0 0 230 160" fill="none" xmlns="http://www.w3.org/2000/svg">
<g filter="url(#filter0_dd_7647_1593)">
<path d="M161.141 41.9009C161.141 40.7964 160.245 39.901 159.141 39.9009H64.7207C63.6161 39.9009 62.7207 40.7963 62.7207 41.9009V107.628C62.7209 108.733 63.6163 109.628 64.7207 109.628H159.141C160.245 109.628 161.14 108.733 161.141 107.628V41.9009ZM163.141 107.628C163.14 109.837 161.35 111.628 159.141 111.628H64.7207C62.5117 111.628 60.7209 109.837 60.7207 107.628V41.9009C60.7207 39.6917 62.5116 37.9009 64.7207 37.9009H159.141C161.35 37.901 163.141 39.6918 163.141 41.9009V107.628Z" fill="#9F9F9F"/>
</g>
<rect x="57.7207" y="106.846" width="8.52851" height="8.52851" rx="1.5" fill="#717171" stroke="url(#paint0_linear_7647_1593)"/>
<rect x="57.7207" y="34.5" width="8.52851" height="8.52851" rx="1.5" fill="#717171" stroke="url(#paint1_linear_7647_1593)"/>
<rect x="157.673" y="34.5" width="8.52851" height="8.52851" rx="1.5" fill="#717171" stroke="url(#paint2_linear_7647_1593)"/>
<g filter="url(#filter1_dd_7647_1593)">
<path fill-rule="evenodd" clip-rule="evenodd" d="M109.047 22.0663C109.263 22.0042 109.511 21.911 109.665 22.1903C110.036 22.8431 110.748 22.874 111.366 23.0605C112.634 23.4335 114.087 24.9882 114.211 26.0761C114.335 27.0395 113.871 28.0962 114.798 28.9042C114.922 28.9974 114.891 29.3702 114.829 29.5878C114.784 29.7362 114.75 29.8884 114.721 30.0419C114.677 30.279 114.647 30.5206 114.621 30.7626C114.608 30.8878 114.594 31.0129 114.579 31.1376C114.562 31.2913 114.542 31.4439 114.517 31.5946C114.514 31.6126 114.511 31.6305 114.508 31.6484C114.498 31.7057 114.486 31.7626 114.474 31.8193C114.466 31.8563 114.457 31.893 114.448 31.9296C114.439 31.9679 114.43 32.006 114.419 32.0439C114.41 32.0782 114.4 32.1124 114.39 32.1464C114.377 32.1891 114.362 32.2313 114.347 32.2734C114.333 32.3134 114.317 32.3531 114.301 32.3925C114.286 32.4297 114.269 32.4663 114.252 32.5028C114.234 32.5409 114.216 32.5788 114.196 32.6161C114.177 32.6532 114.155 32.6892 114.133 32.7255C114.111 32.7625 114.088 32.7997 114.064 32.8359C114.056 32.8469 114.049 32.8581 114.041 32.8691C113.999 32.9289 113.953 32.9876 113.903 33.0448C113.899 33.0485 113.896 33.052 113.893 33.0556C113.84 33.1153 113.783 33.1738 113.721 33.2304C113.658 33.2879 113.59 33.3434 113.517 33.3974C113.511 33.4017 113.505 33.4067 113.499 33.411C113.221 33.5976 113.067 33.9712 112.881 34.2509C112.201 35.3076 112.603 36.4569 113.84 36.4569C115.664 36.457 117.086 37.3898 118.632 37.9804C119.498 38.3223 120.55 38.7263 120.612 39.9384C120.673 41.4924 121.23 42.9222 121.539 44.414V44.539C121.847 44.3623 122.122 44.1687 122.378 43.9384C122.437 43.8851 122.497 43.831 122.554 43.7734L122.683 43.6376C122.881 43.4199 123.075 43.1916 123.275 42.9696C123.324 42.9143 123.374 42.8589 123.425 42.8046C123.459 42.7686 123.494 42.7345 123.529 42.6991C123.577 42.6486 123.626 42.5975 123.676 42.5487C123.747 42.4794 123.821 42.4123 123.896 42.3476C123.912 42.3337 123.928 42.3202 123.945 42.3066C124.02 42.2433 124.097 42.1821 124.177 42.1249C124.2 42.1086 124.223 42.0928 124.246 42.0771C124.27 42.0613 124.293 42.0454 124.317 42.0302C124.323 42.0263 124.329 42.0224 124.335 42.0185L124.467 41.9394C124.633 41.8462 124.811 41.7682 125.002 41.7099C125.525 41.548 125.927 41.171 126.334 40.8124C126.384 40.7684 126.433 40.7235 126.484 40.6806C126.526 40.6448 126.569 40.6106 126.612 40.5761C126.631 40.5606 126.649 40.5443 126.668 40.5292C126.696 40.5076 126.724 40.4876 126.752 40.4667C126.789 40.4394 126.825 40.4123 126.862 40.3866C126.89 40.3679 126.918 40.3507 126.946 40.3329C126.98 40.3111 127.013 40.2886 127.048 40.2685C127.077 40.2519 127.107 40.2378 127.136 40.2226C127.173 40.2033 127.21 40.184 127.248 40.1669C127.278 40.1536 127.309 40.1426 127.339 40.1308C127.378 40.1155 127.418 40.1013 127.459 40.0888C127.511 40.0729 127.563 40.057 127.617 40.0458C127.771 40.0142 127.935 40.0026 128.112 40.0165C128.157 40.02 128.202 40.0254 128.248 40.0321C128.264 40.0321 128.288 39.993 128.315 39.954L128.341 39.9189C128.343 39.9165 128.345 39.9142 128.347 39.912C128.365 39.8915 128.384 39.8769 128.404 39.8769C129.547 39.5971 130.506 38.7883 131.742 38.664C132.637 38.5765 133.242 38.3935 133.581 38.079C133.589 38.0715 133.598 38.0643 133.606 38.0566C133.609 38.0533 133.611 38.0491 133.614 38.0458C133.657 38.0029 133.696 37.9587 133.73 37.911C134.062 37.4361 133.938 36.7204 133.412 35.6806C133.227 35.2765 133.011 34.9031 132.794 34.5302C132.176 33.3803 132.052 32.013 132.299 30.8319C132.608 29.2778 133.381 27.785 134.092 26.3241C134.1 26.3086 134.109 26.2942 134.117 26.2792C134.136 26.2442 134.155 26.2099 134.175 26.1777C134.185 26.1623 134.195 26.1475 134.205 26.1327C134.227 26.1015 134.249 26.0716 134.272 26.0429C134.284 26.028 134.295 26.0132 134.308 25.9989C134.373 25.9235 134.444 25.8572 134.52 25.7987C134.536 25.7862 134.553 25.7745 134.57 25.7626C134.597 25.7431 134.625 25.7246 134.654 25.7069C134.668 25.6981 134.682 25.689 134.696 25.6806C134.738 25.6565 134.781 25.6339 134.824 25.6132C134.894 25.5803 134.966 25.5519 135.039 25.5263C135.053 25.5216 135.067 25.5171 135.08 25.5126C135.223 25.4656 135.373 25.4305 135.527 25.4023C135.626 25.384 135.726 25.3681 135.827 25.3544L136.535 25.2675C137.154 25.1743 137.432 25.33 137.37 26.0136C137.37 26.1379 137.648 26.2934 137.803 26.3866C138.669 26.9772 139.318 27.7237 139.781 28.6562C140.152 29.4021 140.369 30.5521 140.771 30.8319C142.193 31.7955 141.018 32.883 141.142 33.8466C141.234 34.4993 140.431 35.2762 141.08 36.1464C141.103 36.1688 141.167 36.2684 141.232 36.4003C141.259 36.456 141.285 36.5179 141.309 36.5819C141.313 36.5927 141.318 36.6033 141.321 36.6142C141.327 36.6313 141.333 36.6486 141.338 36.6659C141.346 36.6929 141.354 36.7199 141.361 36.747C141.364 36.7607 141.367 36.7744 141.369 36.788C141.374 36.81 141.377 36.8318 141.38 36.8534C141.383 36.8749 141.385 36.896 141.386 36.9169C141.387 36.9311 141.386 36.945 141.386 36.9589C141.385 36.98 141.384 37.0004 141.381 37.0204C141.378 37.0394 141.374 37.0574 141.369 37.0751C141.365 37.0919 141.36 37.1084 141.353 37.1239C141.35 37.1306 141.346 37.1371 141.343 37.1435C141.34 37.1497 141.335 37.1551 141.331 37.161C141.325 37.1705 141.319 37.1797 141.312 37.1884C141.31 37.1909 141.308 37.1938 141.306 37.1962C141.298 37.2054 141.288 37.2133 141.279 37.2216C141.272 37.227 141.266 37.2322 141.259 37.2372C141.251 37.2431 141.243 37.2486 141.234 37.2538C141.229 37.2567 141.224 37.2599 141.219 37.2626C141.207 37.2688 141.194 37.274 141.181 37.2792C141.172 37.2825 141.164 37.2861 141.154 37.289C141.146 37.2916 141.138 37.2936 141.129 37.2958C141.116 37.2992 141.102 37.3021 141.088 37.3046C141.08 37.3061 141.071 37.3073 141.063 37.3085C141.047 37.3106 141.032 37.3133 141.015 37.3144C140.993 37.3158 140.971 37.3155 140.947 37.3153C140.943 37.3153 140.938 37.3154 140.934 37.3153C140.926 37.3152 140.919 37.3147 140.911 37.3144C140.791 37.3093 140.643 37.2851 140.462 37.2343C140.029 37.11 139.936 37.4829 139.813 37.7626C139.627 38.1977 139.905 38.3847 140.245 38.5712C141.142 39.0374 141.977 39.6281 142.904 40.0321C146.275 41.4619 147.574 44.3211 148.532 47.5536C149.151 49.6361 149.46 51.7808 150.078 53.8632C150.511 55.3241 149.892 56.2882 149.119 57.4071L148.94 57.6357C148.881 57.7024 148.821 57.7647 148.76 57.8232L148.747 57.8359C148.653 57.9242 148.554 58.001 148.453 58.0722C148.419 58.0963 148.385 58.1202 148.351 58.1425C148.323 58.1604 148.294 58.1764 148.266 58.1933C148.222 58.2194 148.179 58.2458 148.134 58.2694C148.106 58.2842 148.077 58.2967 148.049 58.3105C148.004 58.3327 147.958 58.3549 147.912 58.3749C147.88 58.389 147.847 58.4019 147.815 58.415C147.777 58.43 147.739 58.4451 147.701 58.4589C147.658 58.4746 147.614 58.4896 147.571 58.5038C147.535 58.5153 147.5 58.5264 147.464 58.537C147.429 58.5475 147.394 58.5576 147.359 58.5673C147.316 58.5789 147.273 58.5899 147.231 58.6005C147.195 58.6095 147.159 58.6185 147.122 58.6269C147.063 58.6404 147.005 58.6529 146.946 58.665C146.939 58.6664 146.932 58.6684 146.925 58.6698C146.806 58.694 146.686 58.7148 146.567 58.7353C146.202 58.7979 145.841 58.851 145.502 58.9296L145.258 58.997C144.119 59.3506 144.182 59.956 144.327 60.8886C144.482 62.0385 144.945 63.2196 144.729 64.2763L144.688 64.4784C144.645 64.7101 144.621 64.9351 144.612 65.1552C144.579 65.8871 144.714 66.5653 144.914 67.2597C145.254 68.4718 145.378 69.6532 145.44 70.8964C145.563 73.5695 145.224 76.2121 144.698 78.7919L144.57 79.4501C144.513 79.7634 144.466 80.0767 144.423 80.3896C144.019 83.3612 144.223 86.3138 144.853 89.2665C145.316 91.349 145.13 93.4626 145.532 95.5761C145.78 96.8815 145.625 98.2492 145.996 99.5546C146.12 99.8965 146.12 100.083 146.584 100.02L146.615 99.8964C148.316 99.6789 148.748 99.9277 149.212 101.171C149.676 102.414 149.336 103.44 148.192 104.279C147.697 104.652 147.172 104.995 146.708 105.43C146.61 105.52 146.51 105.602 146.408 105.678C146.369 105.707 146.329 105.736 146.288 105.764C146.282 105.768 146.276 105.772 146.27 105.776C146.182 105.835 146.093 105.888 146.003 105.937C145.919 105.984 145.835 106.026 145.748 106.064C145.739 106.069 145.729 106.073 145.72 106.077C145.637 106.113 145.552 106.145 145.467 106.175C145.412 106.194 145.357 106.211 145.301 106.227C145.256 106.241 145.21 106.255 145.164 106.267C145.097 106.285 145.03 106.3 144.961 106.314C144.919 106.323 144.876 106.334 144.833 106.342C144.773 106.353 144.713 106.36 144.652 106.369C144.486 106.393 144.317 106.413 144.142 106.424C143.97 106.434 143.812 106.432 143.669 106.419C143.653 106.417 143.637 106.417 143.621 106.415C143.601 106.413 143.581 106.409 143.562 106.406C143.528 106.401 143.496 106.397 143.464 106.391C143.45 106.388 143.436 106.384 143.422 106.381C143.393 106.374 143.365 106.367 143.337 106.358C143.318 106.353 143.299 106.346 143.28 106.34C143.256 106.331 143.233 106.321 143.21 106.311C143.197 106.306 143.184 106.3 143.172 106.294C143.147 106.281 143.123 106.268 143.1 106.254C143.088 106.246 143.076 106.238 143.065 106.229C143.046 106.216 143.027 106.202 143.01 106.187C142.998 106.177 142.987 106.166 142.976 106.155C142.96 106.14 142.946 106.124 142.932 106.107C142.922 106.095 142.912 106.083 142.904 106.07C142.89 106.05 142.877 106.029 142.865 106.008C142.859 105.996 142.853 105.985 142.847 105.973C142.836 105.95 142.827 105.926 142.819 105.901C142.814 105.887 142.808 105.874 142.804 105.859C142.798 105.838 142.794 105.816 142.789 105.793C142.785 105.771 142.781 105.749 142.779 105.726C142.775 105.697 142.773 105.666 142.772 105.634C142.771 105.621 142.77 105.609 142.77 105.596C142.769 105.559 142.771 105.522 142.774 105.483C142.775 105.47 142.775 105.456 142.777 105.442C142.781 105.397 142.788 105.35 142.796 105.302C142.798 105.292 142.799 105.283 142.801 105.273C142.812 105.214 142.826 105.152 142.843 105.087C143.276 103.284 142.596 101.574 142.379 99.8339C142.36 99.6913 142.331 99.5528 142.297 99.4169C142.114 98.684 141.743 98.0373 141.414 97.3691C141.383 97.3048 141.351 97.2405 141.321 97.1757C141.163 96.8415 141.021 96.4999 140.926 96.1357C140.06 92.7477 139.781 89.266 138.668 85.9091C138.555 85.5707 138.448 85.2296 138.346 84.8866C138.262 84.606 138.182 84.324 138.105 84.0409C138.079 83.9464 138.054 83.8516 138.029 83.7568C137.992 83.621 137.958 83.4847 137.923 83.3485C137.868 83.1361 137.814 82.9233 137.762 82.7099C137.719 82.5334 137.677 82.3566 137.635 82.1796C137.598 82.0245 137.562 81.8692 137.527 81.7138C137.401 81.1704 137.281 80.6254 137.161 80.08C137.003 79.358 136.845 78.636 136.681 77.9169L136.411 76.7714C136.349 76.4295 136.504 75.9323 135.886 75.87C135.453 77.3619 135.515 78.9164 135.453 80.4394L135.428 80.8632C135.407 81.1612 135.377 81.4579 135.343 81.7538C135.322 81.9369 135.296 82.1193 135.271 82.3017C135.248 82.4595 135.225 82.617 135.199 82.7743C135.184 82.8717 135.168 82.9691 135.152 83.0663C135.121 83.2482 135.088 83.4298 135.054 83.6112C135.036 83.7077 135.017 83.804 134.998 83.9003C134.968 84.0563 134.937 84.2123 134.904 84.3681C134.875 84.5084 134.846 84.6488 134.816 84.789C134.782 84.9456 134.747 85.1022 134.712 85.2587C134.696 85.3322 134.68 85.4059 134.663 85.4794C134.475 86.3087 134.277 87.1365 134.092 87.9667C133.663 89.8924 133.31 91.8318 133.351 93.8359C133.353 93.9793 133.346 94.1225 133.335 94.2655C133.327 94.3659 133.317 94.4661 133.304 94.5663C133.278 94.7619 133.245 94.9573 133.205 95.1523C133.187 95.2388 133.166 95.3247 133.147 95.411C133.11 95.5741 133.072 95.7376 133.032 95.9003C132.851 96.6379 132.664 97.3722 132.674 98.1054C132.677 98.291 132.691 98.4765 132.723 98.662C132.736 98.7389 132.752 98.8157 132.771 98.8925C132.781 98.9334 132.791 98.9746 132.803 99.0155L132.908 99.3476C132.923 99.3981 132.936 99.4486 132.947 99.4989C132.979 99.6349 132.999 99.7704 133.014 99.9052C133.02 99.959 133.024 100.013 133.028 100.066C133.031 100.126 133.034 100.185 133.035 100.244C133.036 100.29 133.035 100.337 133.034 100.383C133.033 100.444 133.032 100.505 133.029 100.565C133.026 100.606 133.024 100.646 133.021 100.686C133.016 100.748 133.011 100.809 133.004 100.87C132.999 100.914 132.995 100.957 132.989 101.001C132.982 101.061 132.974 101.121 132.965 101.181C132.947 101.304 132.927 101.428 132.905 101.552C132.792 102.219 132.657 102.888 132.7 103.578C132.708 103.696 132.717 103.816 132.737 103.935C132.763 104.1 132.802 104.267 132.856 104.434C133.165 105.429 133.133 106.455 133.999 107.232C134.277 107.45 134.401 107.822 134.216 108.195C134.061 108.568 133.721 108.537 133.412 108.537C133.041 108.568 132.639 108.475 132.361 108.631C131.402 109.252 130.351 108.879 129.362 108.973C129.329 108.975 129.296 108.974 129.265 108.973L129.184 108.965C129.181 108.964 129.178 108.963 129.175 108.963C129.165 108.961 129.156 108.959 129.147 108.957C129.132 108.954 129.117 108.951 129.103 108.947C129.058 108.936 129.016 108.921 128.977 108.902C128.97 108.899 128.963 108.896 128.956 108.892C128.918 108.873 128.882 108.851 128.85 108.825C128.844 108.821 128.839 108.816 128.833 108.811C128.775 108.763 128.729 108.705 128.697 108.641C128.692 108.63 128.686 108.619 128.682 108.607C128.677 108.595 128.673 108.582 128.669 108.569C128.666 108.56 128.664 108.55 128.661 108.541C128.659 108.53 128.656 108.519 128.654 108.508C128.652 108.495 128.652 108.481 128.651 108.468C128.65 108.462 128.649 108.457 128.649 108.452V108.424C128.649 108.416 128.65 108.408 128.651 108.399C128.651 108.388 128.652 108.376 128.654 108.364C128.661 108.315 128.675 108.265 128.698 108.215L128.743 108.134C129.485 106.953 129.052 105.927 128.527 104.839C128.512 104.809 128.501 104.777 128.491 104.744C128.49 104.739 128.49 104.734 128.488 104.729C128.483 104.707 128.478 104.684 128.475 104.661C128.46 104.564 128.461 104.459 128.468 104.351C128.472 104.284 128.478 104.216 128.484 104.148L128.496 103.906C128.62 102.414 128.465 100.922 128.372 99.4306C128.365 99.2882 128.356 99.1454 128.348 99.0028C128.301 98.1773 128.251 97.3493 128.204 96.5204C128.193 96.3249 128.184 96.1292 128.174 95.9335C128.156 95.5892 128.138 95.2448 128.124 94.9003C128.12 94.789 128.116 94.6777 128.112 94.5663C128.108 94.4661 128.105 94.3658 128.102 94.2655C128.097 94.1256 128.093 93.9856 128.09 93.8456C128.088 93.7551 128.085 93.6646 128.083 93.5741C128.081 93.4436 128.079 93.313 128.077 93.1825C128.076 93.0324 128.075 92.8824 128.074 92.7323C128.074 92.6343 128.074 92.5364 128.074 92.4384C128.075 92.2919 128.077 92.1454 128.079 91.9989C128.081 91.884 128.083 91.7691 128.086 91.6542C128.089 91.5295 128.093 91.4048 128.098 91.2802C128.102 91.1646 128.106 91.049 128.112 90.9335C128.117 90.8205 128.124 90.7076 128.13 90.5946C128.138 90.4618 128.144 90.3289 128.154 90.1962C128.16 90.1102 128.168 90.0244 128.175 89.9384C128.246 89.048 128.356 88.1603 128.527 87.2773C128.929 85.1947 128.651 83.205 128.279 81.2157C127.754 78.4184 126.703 75.7764 125.806 73.1034C125.528 72.3264 125.435 71.4558 124.878 70.7099C124.383 72.1397 123.982 73.5079 123.425 74.8134L122.652 72.6064C121.941 72.6995 121.322 72.4815 120.827 71.9843C120.271 71.4249 120.735 70.8964 120.951 70.3681C121.106 69.9642 121.291 69.5913 121.477 69.1874L120.827 67.2909C120.642 70.5546 119.312 73.5699 118.075 76.5849C117.179 78.7295 116.344 80.9055 116.529 83.2987C116.808 86.6245 117.117 89.9193 116.901 93.245C116.746 96.0113 117.087 98.747 117.674 101.451C118.199 103.782 117.55 105.118 114.891 104.621C113.5 104.372 113.098 103.751 113.716 102.445C113.736 102.409 113.759 102.375 113.782 102.341C113.794 102.323 113.807 102.306 113.82 102.289C113.846 102.253 113.872 102.215 113.9 102.18C114.03 102.007 114.149 101.835 114.087 101.606C113.623 99.8968 113.686 98.0936 113.036 96.4462C112.944 96.2287 112.943 95.8869 112.572 95.8866C112.294 95.8866 112.232 96.1662 112.139 96.3837C111.52 97.8445 110.933 99.3057 110.346 100.767L110.28 100.934C110.257 100.999 110.237 101.064 110.217 101.129C110.171 101.281 110.135 101.436 110.109 101.593C110.104 101.618 110.101 101.643 110.097 101.668C110.091 101.707 110.085 101.746 110.08 101.785C110.049 102.05 110.046 102.319 110.067 102.586C110.116 103.215 110.307 103.834 110.619 104.385C110.768 104.648 110.942 104.897 111.145 105.121C111.162 105.14 111.179 105.158 111.196 105.177C111.299 105.286 111.408 105.391 111.524 105.488C111.659 105.602 111.802 105.707 111.953 105.802C112.572 106.206 112.572 106.641 111.953 106.921C111.842 106.968 111.729 107.008 111.616 107.045C111.593 107.052 111.57 107.06 111.547 107.067C111.514 107.078 111.48 107.087 111.446 107.097C111.396 107.111 111.346 107.124 111.295 107.137C111.286 107.139 111.278 107.141 111.269 107.143C111.212 107.157 111.154 107.169 111.097 107.181C111.07 107.186 111.042 107.19 111.015 107.195C110.966 107.204 110.917 107.212 110.868 107.219C110.85 107.221 110.833 107.224 110.815 107.226C110.667 107.246 110.518 107.259 110.368 107.266C110.247 107.271 110.125 107.27 110.003 107.267C109.983 107.267 109.963 107.267 109.943 107.267C109.818 107.262 109.694 107.254 109.57 107.242C109.559 107.241 109.549 107.24 109.538 107.239C109.416 107.227 109.294 107.212 109.171 107.194C109.027 107.173 108.883 107.149 108.739 107.12L108.275 107.015C108.247 107.008 108.219 106.998 108.193 106.988C108.175 106.982 108.159 106.973 108.142 106.966C108.132 106.961 108.121 106.957 108.112 106.952C108.097 106.945 108.084 106.937 108.071 106.929C108.058 106.921 108.046 106.913 108.034 106.905C108.022 106.897 108.011 106.888 107.999 106.879C107.988 106.87 107.978 106.861 107.968 106.851C107.958 106.842 107.947 106.832 107.938 106.822C107.928 106.812 107.92 106.802 107.911 106.791C107.901 106.778 107.892 106.766 107.883 106.753C107.878 106.745 107.873 106.736 107.868 106.727C107.855 106.704 107.844 106.68 107.835 106.654C107.83 106.639 107.824 106.623 107.821 106.607L107.811 106.517C107.811 105.616 107.161 105.46 106.512 105.273C105.739 105.056 105.275 104.528 105.46 103.688C105.536 103.353 105.605 103.013 105.672 102.673C105.773 102.161 105.873 101.647 105.991 101.14C105.999 101.105 106.008 101.071 106.016 101.037C106.046 100.911 106.078 100.785 106.112 100.66C106.121 100.623 106.131 100.586 106.141 100.549C106.184 100.392 106.228 100.236 106.278 100.081C106.331 99.9142 106.388 99.7491 106.449 99.5859C107.222 97.6588 107.532 95.6695 107.811 93.6181C107.864 93.2202 107.888 92.8221 107.904 92.4247C107.919 92.0204 107.924 91.6166 107.938 91.2138C107.94 91.146 107.944 91.0784 107.946 91.0107C107.951 90.9038 107.956 90.797 107.962 90.6903C107.971 90.5463 107.98 90.4024 107.994 90.2587C108.032 89.8702 108.091 89.483 108.19 89.0976L108.275 88.7997C108.395 88.4276 108.526 88.057 108.659 87.6864C109.351 85.7675 110.096 83.8498 109.604 81.7138C109.573 81.5584 109.634 81.4024 109.665 81.247C109.687 81.1765 109.705 81.1062 109.723 81.037C109.744 80.9531 109.761 80.87 109.776 80.788C109.967 79.7362 109.648 78.8393 109.06 78.0224C108.988 77.9221 108.912 77.8225 108.832 77.7245C108.715 77.5808 108.59 77.4392 108.459 77.2997C106.635 75.3416 105.429 73.0097 104.193 70.6786C103.914 70.1501 103.729 69.0322 103.296 69.2187C102.77 69.4375 102.884 69.7838 103.067 70.1591C103.13 70.2896 103.2 70.4245 103.257 70.5575C103.264 70.5746 103.272 70.5913 103.279 70.6083C103.285 70.6255 103.291 70.6429 103.297 70.6601C103.306 70.6846 103.314 70.7089 103.321 70.7333C103.339 70.7936 103.349 70.8533 103.354 70.912C103.355 70.9277 103.358 70.9433 103.358 70.9589C103.354 71.0159 103.363 71.0774 103.377 71.1415C103.386 71.1803 103.4 71.2194 103.412 71.2597C103.424 71.2961 103.433 71.334 103.446 71.371C103.469 71.4355 103.493 71.5006 103.514 71.5644C103.533 71.6221 103.549 71.6788 103.561 71.7333C103.564 71.7479 103.567 71.7621 103.57 71.7763C103.572 71.7911 103.573 71.8058 103.574 71.8202C103.576 71.8392 103.577 71.8577 103.576 71.8759C103.576 71.8892 103.576 71.9021 103.574 71.915C103.573 71.9309 103.568 71.9458 103.565 71.9609C103.561 71.9739 103.558 71.9865 103.553 71.9989C103.547 72.0135 103.539 72.0265 103.53 72.04C103.522 72.0529 103.515 72.0662 103.504 72.078C103.502 72.0804 103.5 72.0825 103.497 72.0849C103.48 72.1025 103.46 72.1178 103.436 72.1327C103.419 72.143 103.401 72.1512 103.381 72.1601C103.364 72.1678 103.346 72.177 103.326 72.1835C103.308 72.1894 103.289 72.1932 103.269 72.1982C103.242 72.2046 103.214 72.212 103.184 72.2167C103.131 72.2248 103.072 72.2316 103.006 72.2343L102.771 72.2333C102.585 72.2022 102.4 72.7306 102.585 73.1347C102.925 73.9427 102.43 74.5954 101.565 74.5644C101.497 74.5605 101.431 74.5545 101.368 74.5458C101.308 74.5375 101.25 74.5262 101.194 74.5136C101.185 74.5117 101.177 74.5088 101.168 74.5068C101.123 74.496 101.079 74.4841 101.036 74.4706C101.022 74.466 101.008 74.4609 100.993 74.456C100.956 74.443 100.919 74.4291 100.883 74.414C100.873 74.4097 100.863 74.4057 100.853 74.4013C100.809 74.3817 100.766 74.3615 100.726 74.3388C100.722 74.3368 100.719 74.3349 100.715 74.3329C100.629 74.2838 100.55 74.2267 100.476 74.164C100.465 74.155 100.455 74.1459 100.445 74.1366C100.417 74.1124 100.391 74.0875 100.365 74.0614C100.353 74.0489 100.341 74.0363 100.329 74.0234C100.308 74 100.287 73.9757 100.267 73.9511C100.26 73.9424 100.251 73.9345 100.244 73.9257C100.185 73.8508 100.131 73.77 100.08 73.6845C100.042 73.6193 100.006 73.5513 99.9719 73.4804C99.9647 73.4653 99.9584 73.4498 99.9514 73.4345C99.8699 73.2563 99.8004 73.0619 99.7404 72.8544C99.6478 72.5126 99.7398 72.1086 99.1525 71.9843C96.8956 71.5803 96.2153 72.0467 95.968 74.3466V74.9374C96.4317 78.0145 95.9058 81.0916 95.7512 84.1376C95.5656 87.5256 95.6281 90.9137 95.5353 94.3017C95.5276 94.4688 95.5152 94.6354 95.5002 94.8017C95.4865 94.9536 95.4698 95.1052 95.4523 95.2568C95.3363 96.2663 95.1629 97.271 95.257 98.3114C95.4117 99.7722 96.3081 100.86 97.5139 100.953C98.0394 101.015 98.7198 100.798 98.7199 101.668L98.715 101.815C98.7085 101.907 98.6958 101.993 98.6769 102.074C98.6752 102.082 98.673 102.089 98.6711 102.097C98.6523 102.172 98.6274 102.242 98.5978 102.308C98.5961 102.311 98.5947 102.315 98.593 102.319C98.5782 102.351 98.5615 102.381 98.5441 102.411C98.5397 102.419 98.5351 102.426 98.5305 102.434C98.5166 102.456 98.5029 102.478 98.4875 102.499C98.4801 102.509 98.4718 102.518 98.4641 102.528C98.4469 102.55 98.4291 102.571 98.4103 102.591C98.404 102.597 98.3973 102.604 98.3908 102.61C98.372 102.629 98.3526 102.647 98.3322 102.665C98.324 102.672 98.3163 102.68 98.3078 102.686C98.289 102.702 98.2692 102.715 98.2492 102.729C98.2354 102.739 98.2216 102.749 98.2072 102.758C98.1931 102.767 98.179 102.776 98.1643 102.784C98.1458 102.795 98.127 102.805 98.1076 102.814C98.0914 102.822 98.0746 102.829 98.0578 102.837C98.0366 102.846 98.0155 102.857 97.9934 102.865C97.9825 102.869 97.9713 102.873 97.9602 102.877C97.9347 102.886 97.9087 102.894 97.882 102.902C97.8516 102.911 97.8203 102.919 97.7883 102.927C97.7799 102.929 97.7714 102.931 97.7629 102.933C97.7345 102.939 97.7056 102.944 97.676 102.949C97.6576 102.952 97.6391 102.955 97.6203 102.958C97.5758 102.964 97.5297 102.97 97.4826 102.974C96.8334 103.005 96.2151 103.129 95.5969 103.16C94.3911 103.222 93.2161 103.533 92.0412 103.844C91.9639 103.863 91.8883 103.88 91.8146 103.894C91.7422 103.908 91.6714 103.919 91.6027 103.928C91.592 103.929 91.5812 103.929 91.5705 103.931C91.5223 103.936 91.4752 103.941 91.4289 103.944C91.3999 103.946 91.3712 103.947 91.343 103.948C91.3048 103.95 91.2674 103.951 91.2307 103.95C91.2109 103.95 91.1914 103.949 91.1721 103.948C91.1344 103.947 91.0977 103.945 91.0617 103.941C91.0423 103.94 91.0231 103.938 91.0041 103.935C90.9679 103.931 90.9329 103.924 90.8986 103.918C90.8815 103.915 90.8645 103.912 90.8478 103.908C90.8118 103.9 90.7771 103.89 90.7434 103.88C90.7306 103.876 90.7177 103.873 90.7053 103.869C90.6147 103.838 90.5328 103.798 90.4602 103.75C90.4502 103.743 90.4414 103.735 90.4318 103.728C90.4058 103.71 90.3801 103.691 90.3566 103.67C90.346 103.66 90.3365 103.65 90.3264 103.64C90.309 103.622 90.2923 103.605 90.2766 103.586C90.2632 103.57 90.2506 103.554 90.2385 103.537C90.2224 103.515 90.2075 103.492 90.1936 103.468C90.187 103.456 90.181 103.445 90.175 103.434C90.1636 103.412 90.1534 103.389 90.1437 103.366C90.1364 103.349 90.1276 103.332 90.1213 103.313C90.1108 103.283 90.1037 103.252 90.0959 103.22C90.0931 103.208 90.0886 103.196 90.0861 103.184C90.0768 103.139 90.0696 103.092 90.0656 103.043L90.0617 102.881C90.1545 100.581 89.5366 98.3422 89.382 96.0732C89.0728 91.846 89.2582 87.5874 88.6398 83.3603C88.4543 82.2414 88.2999 81.0912 88.1144 79.9413H87.7434L87.715 80.2636C87.6817 80.581 87.6354 80.8896 87.5891 81.2157C87.3108 83.236 87.1246 85.2253 86.1662 87.1523C85.2386 89.0172 84.1873 90.9137 83.7853 93.0273C83.5689 94.1151 83.1359 95.0481 82.6721 96.0116C81.8682 97.721 80.7244 99.2753 80.6008 101.233C80.5697 101.886 80.0437 101.917 79.549 101.917C78.2094 102 77.6224 102.715 77.7873 104.061C77.8182 104.155 77.8488 104.279 77.8488 104.403C77.8488 104.587 77.8715 104.784 77.883 104.978C77.8844 105.001 77.886 105.024 77.8869 105.047C77.8884 105.083 77.8878 105.119 77.8879 105.154C77.888 105.194 77.8872 105.234 77.885 105.273C77.8815 105.334 77.8765 105.393 77.8654 105.451C77.8599 105.48 77.8527 105.508 77.8449 105.536C77.843 105.543 77.8411 105.55 77.8391 105.557C77.8318 105.58 77.8238 105.604 77.8146 105.627C77.8079 105.644 77.7991 105.66 77.7912 105.677C77.7827 105.695 77.7737 105.712 77.7639 105.729C77.7582 105.739 77.7524 105.749 77.7463 105.759C77.7321 105.781 77.7172 105.803 77.7004 105.825C77.6948 105.832 77.6896 105.84 77.6838 105.847C77.6643 105.87 77.6425 105.892 77.6193 105.914C77.6142 105.919 77.61 105.925 77.6047 105.93C77.5788 105.953 77.5502 105.975 77.5197 105.997C77.5141 106.001 77.5089 106.006 77.5031 106.01C77.4669 106.035 77.428 106.059 77.385 106.082C77.3384 106.105 77.2915 106.127 77.2443 106.146C77.1984 106.166 77.152 106.182 77.1057 106.198C77.0959 106.201 77.0861 106.205 77.0764 106.208C77.0413 106.219 77.0061 106.23 76.9709 106.239C76.9426 106.247 76.9143 106.253 76.8859 106.26C76.8703 106.263 76.8547 106.266 76.8391 106.269C76.8059 106.276 76.7726 106.281 76.7394 106.286C76.7254 106.288 76.7115 106.291 76.6975 106.293C76.6681 106.297 76.6388 106.299 76.6096 106.302C76.5933 106.303 76.577 106.305 76.5607 106.306C76.532 106.307 76.5034 106.308 76.4748 106.309C76.4549 106.309 76.4351 106.309 76.4152 106.309C76.3933 106.308 76.3716 106.307 76.3498 106.306C76.3279 106.304 76.3061 106.304 76.2844 106.302C76.2582 106.299 76.2322 106.296 76.2062 106.293C76.1886 106.291 76.171 106.289 76.1535 106.286C76.1244 106.281 76.0954 106.276 76.0666 106.27C76.0512 106.267 76.036 106.263 76.0207 106.26C75.9987 106.255 75.977 106.249 75.9553 106.243C75.929 106.236 75.903 106.228 75.8771 106.22C75.8568 106.213 75.8366 106.206 75.8166 106.199C75.8032 106.194 75.7898 106.19 75.7766 106.184C75.747 106.173 75.7175 106.161 75.6887 106.148C75.6785 106.144 75.6685 106.139 75.6584 106.134C75.6297 106.12 75.6013 106.106 75.5734 106.091C75.5606 106.084 75.548 106.077 75.5353 106.069C75.5106 106.055 75.4862 106.04 75.4621 106.024C75.4515 106.017 75.4413 106.01 75.4309 106.003C75.3687 105.961 75.308 105.915 75.2512 105.864C73.8908 104.652 72.8705 103.191 73.3342 101.202C73.5815 100.27 73.6434 99.3367 73.3342 98.4042C73.3327 98.3997 73.3317 98.3951 73.3303 98.3905C73.3183 98.3524 73.3093 98.314 73.3019 98.2753C73.2998 98.2642 73.2978 98.2532 73.2961 98.2421C73.2901 98.2045 73.2859 98.1668 73.2834 98.1288C73.2829 98.121 73.2828 98.1132 73.2824 98.1054C73.2802 98.0619 73.2794 98.0183 73.2805 97.9745C73.282 97.9141 73.2858 97.8535 73.2912 97.7929C73.2987 97.7079 73.3081 97.623 73.3166 97.539L73.3342 97.2548C73.3651 95.5142 74.1383 94.0529 75.0041 92.6542C76.8593 89.6082 77.4778 85.909 79.9514 83.1737C80.1269 82.975 80.1763 82.7453 80.1467 82.495C80.1434 82.4672 80.1392 82.4393 80.134 82.411C80.1201 82.3356 80.1014 82.2581 80.0754 82.1796C79.7971 81.2782 79.2709 80.6564 78.5598 79.9726C77.2922 78.7293 76.7665 76.8335 76.8283 74.9687C76.8902 72.7618 77.107 70.5544 77.0451 68.3476C77.0142 67.3533 77.0448 66.9184 75.9631 67.4775C75.8622 67.5282 75.7678 67.5647 75.6818 67.5907C75.6608 67.5971 75.6405 67.6034 75.6203 67.6083C75.6131 67.6101 75.6059 67.6116 75.5988 67.6132C75.5778 67.6178 75.5573 67.621 75.5373 67.6239C75.522 67.6262 75.5071 67.6285 75.4924 67.6298C75.4771 67.6311 75.4621 67.6315 75.4475 67.6318C75.4338 67.632 75.4205 67.6325 75.4074 67.6318C75.3941 67.631 75.3811 67.6295 75.3684 67.6278C75.3543 67.626 75.3407 67.624 75.3273 67.621C75.3162 67.6185 75.3057 67.6146 75.2951 67.6112C75.2829 67.6074 75.2706 67.6044 75.259 67.5995C75.2166 67.5816 75.1786 67.5566 75.1447 67.5243L75.1379 67.5175C75.1351 67.5147 75.1328 67.5116 75.1301 67.5087C75.1192 67.4972 75.1078 67.4857 75.0978 67.4726L75.0861 67.455C75.0831 67.4506 75.0803 67.4459 75.0773 67.4413C75.068 67.4268 75.0593 67.4115 75.051 67.3954C75.0431 67.3803 75.0365 67.3642 75.0295 67.3476C75.0248 67.3365 75.0201 67.3252 75.0158 67.3134C75.0096 67.2964 75.0036 67.279 74.9982 67.2607C74.9954 67.2511 74.993 67.2413 74.9904 67.2314C74.9593 67.1122 74.9426 66.9668 74.9426 66.7939C74.9735 65.7681 75.1901 64.8356 75.8703 64.0585C76.4266 63.3747 76.3025 61.9143 75.5607 61.4169C74.6641 60.8264 74.355 59.9868 74.2932 59.0234C74.2924 59.0146 74.292 59.0057 74.2912 58.997C74.2713 58.7674 74.2538 58.5364 74.2394 58.3046C74.2349 58.2311 74.2318 58.1575 74.2277 58.0839C74.2178 57.9022 74.2084 57.7201 74.2014 57.538C74.1989 57.4749 74.1967 57.4117 74.1945 57.3485C74.1863 57.1051 74.1799 56.8617 74.176 56.6191L74.1691 55.8212C74.2309 53.5524 74.015 51.2526 74.4787 49.0771C75.0662 46.2487 76.4572 43.7928 79.1779 42.3319C79.4871 42.1765 80.2295 41.8036 79.2092 41.4306C79.1637 41.4141 79.1218 41.3967 79.0832 41.3788C79.0628 41.3694 79.0441 41.3584 79.0256 41.3485C79.0121 41.3414 78.999 41.3344 78.9865 41.3271C78.9667 41.3154 78.9484 41.3031 78.9309 41.2909C78.918 41.282 78.9054 41.2737 78.8937 41.2646C78.8808 41.2544 78.8691 41.2438 78.8576 41.2333C78.8455 41.2223 78.834 41.2115 78.8234 41.2001C78.8138 41.1897 78.8045 41.1795 78.7961 41.1689C78.7867 41.157 78.7785 41.1449 78.7707 41.1327C78.7639 41.1222 78.7569 41.1122 78.7512 41.1015C78.742 41.0843 78.7352 41.0665 78.7287 41.0487C78.7265 41.0428 78.7237 41.0372 78.7219 41.0312C78.699 40.9579 78.6971 40.8803 78.7121 40.7997C78.714 40.7893 78.7165 40.779 78.7189 40.7685C78.7227 40.7524 78.7266 40.736 78.7316 40.7196C78.7353 40.7076 78.74 40.6957 78.7443 40.6835C78.7491 40.6699 78.7544 40.6562 78.76 40.6425C78.7802 40.5922 78.8065 40.5418 78.8352 40.4902C78.8621 40.4417 78.8906 40.3919 78.923 40.3427L79.0549 40.1562C79.3023 39.8143 79.7344 39.3167 79.2707 39.037C78.7146 38.7259 78.8377 37.4518 77.7248 37.9179C77.6691 37.941 77.6168 37.957 77.5676 37.9677C77.5235 37.9773 77.4821 37.9826 77.4426 37.9833C77.4393 37.9834 77.4361 37.9833 77.4328 37.9833C77.3943 37.9833 77.3581 37.9791 77.3234 37.9716C77.3185 37.9705 77.3136 37.9699 77.3088 37.9687C77.2952 37.9653 77.2828 37.9585 77.2697 37.954C77.2452 37.9457 77.2212 37.9375 77.1984 37.9257C77.1828 37.9176 77.1684 37.9078 77.1535 37.8984C77.1365 37.8875 77.1189 37.8776 77.1027 37.8652C77.0834 37.8502 77.0654 37.8333 77.0471 37.8163C77.0357 37.8057 77.024 37.7954 77.0129 37.7841C76.9982 37.7691 76.9841 37.7533 76.9699 37.7372C76.9558 37.7213 76.9417 37.7052 76.9279 37.6884C76.9079 37.6639 76.8879 37.639 76.8684 37.6132C76.8568 37.5979 76.8447 37.5829 76.8332 37.5673C76.7891 37.5075 76.7455 37.4458 76.7004 37.3857C76.656 37.3266 76.6098 37.2695 76.5607 37.2167C76.4583 37.1064 76.3416 37.019 76.1945 36.9794C76.1635 36.9711 76.1317 36.9625 76.0978 36.9589L76.0246 36.955C75.7773 36.955 76.2712 36.4576 76.2404 36.2089C76.1786 35.8048 76.7354 35.0585 76.0861 35.0585C74.9732 35.0585 75.6223 34.6232 75.8078 34.3124C76.3643 33.4733 77.2921 33.2248 78.1887 32.914C78.6524 32.7586 79.5181 32.4168 79.2404 32.0439L79.2394 32.0429C79.2072 31.9997 79.1793 31.9579 79.1545 31.9179C79.1492 31.9093 79.1439 31.9009 79.1389 31.8925C79.1214 31.8631 79.1066 31.8343 79.093 31.8066C79.0868 31.794 79.0808 31.7817 79.0754 31.7694C79.044 31.6987 79.0246 31.6337 79.0158 31.5732C79.015 31.5673 79.0145 31.5614 79.0139 31.5556C79.0125 31.5436 79.0105 31.532 79.01 31.5204V31.4735C79.0101 31.4693 79.0107 31.4651 79.0109 31.4609C79.0143 31.4098 79.026 31.3626 79.0432 31.3183C79.0485 31.3046 79.0543 31.2913 79.0607 31.2782C79.0637 31.2721 79.0663 31.2657 79.0695 31.2597C79.1052 31.1931 79.1546 31.134 79.2102 31.079C79.2445 31.0451 79.2809 31.0125 79.3185 30.9814L79.5803 30.7694C82.1157 28.5626 85.7642 28.5003 88.3615 30.5517C88.6089 30.7693 88.7013 30.9557 88.6086 31.2665C88.3303 32.1368 88.7331 32.7273 89.5061 33.0693C90.2478 33.4112 90.34 33.9709 90.34 34.7167C90.371 35.8357 89.4442 36.6751 89.5988 37.8251C89.7843 39.0683 89.6597 40.2181 87.9592 40.4667C88.4538 40.9018 88.887 40.8403 89.258 40.9335C90.9895 41.3376 92.6907 41.7723 93.5256 43.5439C94.7933 46.2169 95.3187 49.139 96.2463 51.9364C96.583 52.952 96.9582 53.6834 97.7629 54.1054C97.8659 54.1594 97.975 54.2101 98.093 54.2538C98.1083 54.2595 98.1242 54.2639 98.1398 54.2694C98.1964 54.2894 98.2544 54.3094 98.3146 54.3271L98.5656 54.3915C98.5888 54.2988 98.6288 54.2227 98.6477 54.1386C98.654 54.1103 98.6584 54.0809 98.6584 54.0497C98.6893 49.8537 99.2451 45.7197 99.8635 41.5859C100.049 40.3115 100.544 39.3789 101.904 38.8505C103.203 38.3532 104.44 37.6072 105.523 36.6747C105.832 36.3951 106.203 36.1774 105.955 35.6181C105.553 34.7167 105.492 33.815 105.801 32.8515C105.924 32.3542 105.831 31.7328 105.46 31.2978C104.873 30.614 104.997 29.7125 104.78 28.9355C104.533 28.0652 105.337 25.2056 105.77 24.0556C105.808 23.9312 105.837 23.801 105.867 23.6728C105.896 23.552 105.925 23.4331 105.964 23.3222C105.971 23.3029 105.979 23.2843 105.987 23.2655C106.001 23.2282 106.017 23.1919 106.034 23.1571C106.054 23.1194 106.074 23.0829 106.098 23.0487C106.142 22.9855 106.195 22.9292 106.259 22.8818C106.266 22.8768 106.272 22.8708 106.279 22.8661C106.303 22.8493 106.33 22.8344 106.358 22.8202L106.449 22.7812C106.554 22.7423 106.66 22.7051 106.766 22.6698C107.084 22.564 107.409 22.473 107.737 22.3886L109.047 22.0663ZM126.115 48.0819C125.188 48.6103 123.703 48.3619 123.054 49.7294C123.023 49.7605 122.992 49.7921 122.992 49.8232C123.271 50.9731 123.394 52.2159 124.538 52.9618C124.6 52.9619 124.6 53.0245 124.6 53.0556C124.636 53.6581 124.834 54.1847 125.084 54.6874C125.153 54.8264 125.225 54.9642 125.3 55.1005L125.652 55.7284H125.682C126.177 55.6973 126.641 55.7596 127.012 56.1015C127.259 56.319 127.506 56.5675 127.816 56.2568C128.156 55.9149 128.434 55.573 128.279 55.0136C127.785 53.0245 126.826 51.0974 127.321 48.9218C127.537 47.9582 126.764 48.1752 126.146 48.0819H126.115ZM103.791 53.0556C103.389 53.0245 103.574 53.6149 103.543 53.9257L103.484 54.4423C103.431 54.9667 103.397 55.5264 103.327 56.2255C103.679 55.5187 104.006 54.9781 104.228 54.4169L104.317 54.1747H104.285C104.304 54.1213 104.319 54.0642 104.329 54.0058C104.398 53.6181 104.272 53.1544 103.885 53.0683L103.791 53.0556Z" fill="#5C5C5C"/>
</g>
<g filter="url(#filter2_dd_7647_1593)">
<path d="M173.221 117.569C171.012 117.569 169.221 115.779 169.221 113.569L169.221 101C169.221 98.7909 171.012 97 173.221 97L173.283 97C177.042 97 180.089 100.146 180.089 103.902L180.089 110.668C180.089 114.524 176.94 117.569 173.283 117.569L173.221 117.569Z" fill="#919191"/>
</g>
<rect x="124.221" y="82" width="50" height="50" rx="12" fill="url(#paint3_linear_7647_1593)"/>
<rect x="124.721" y="82.5" width="49" height="49" rx="11.5" stroke="url(#paint4_linear_7647_1593)" stroke-opacity="0.4"/>
<path d="M129.221 94C129.221 90.134 132.355 87 136.221 87H149.221V127H136.221C132.355 127 129.221 123.866 129.221 120V94Z" fill="#7D7D7D"/>
<path d="M149.221 87H162.221C166.087 87 169.221 90.134 169.221 94V120C169.221 123.866 166.087 127 162.221 127H149.221V87Z" fill="#A6A6A6"/>
<path opacity="0.2" d="M129.221 107H149.221V127H136.221C132.355 127 129.221 123.866 129.221 120V107Z" fill="white"/>
<path opacity="0.5" d="M149.221 107H169.221V120C169.221 123.866 166.087 127 162.221 127H149.221V107Z" fill="#3C3C3C"/>
<path d="M136.221 87.5H162.221C165.811 87.5 168.721 90.4101 168.721 94V120C168.721 123.59 165.811 126.5 162.221 126.5H136.221C132.631 126.5 129.721 123.59 129.721 120V94C129.721 90.4101 132.631 87.5 136.221 87.5Z" stroke="#827F7F"/>
<path d="M138.776 119.178C136.314 119.178 134.439 118.233 133.152 116.343C131.864 114.442 131.221 111.357 131.221 107.089C131.221 102.82 131.859 99.741 133.135 97.851C134.422 95.9503 136.303 95 138.776 95C141.25 95 143.124 95.9503 144.401 97.851C145.688 99.741 146.332 102.82 146.332 107.089C146.332 111.357 145.688 114.442 144.401 116.343C143.113 118.233 141.238 119.178 138.776 119.178ZM138.776 117.028C139.849 117.028 140.741 116.725 141.453 116.12C142.176 115.504 142.729 114.469 143.113 113.014C143.508 111.559 143.706 109.6 143.706 107.137C143.706 104.641 143.508 102.661 143.113 101.196C142.729 99.7304 142.176 98.6898 141.453 98.074C140.741 97.4581 139.849 97.1502 138.776 97.1502C137.715 97.1502 136.822 97.4581 136.1 98.074C135.377 98.6792 134.818 99.7092 134.422 101.164C134.039 102.619 133.847 104.578 133.847 107.041C133.847 109.536 134.039 111.517 134.422 112.982C134.818 114.447 135.377 115.488 136.1 116.104C136.822 116.72 137.715 117.028 138.776 117.028Z" fill="#D1D1D1"/>
<mask id="mask0_7647_1593" style="mask-type:alpha" maskUnits="userSpaceOnUse" x="149" y="88" width="20" height="38">
<path d="M149.221 88H162.221C165.534 88 168.221 90.6863 168.221 94V121C168.221 123.761 165.982 126 163.221 126H149.221V88Z" fill="#9E9E9E"/>
</mask>
<g mask="url(#mask0_7647_1593)">
<path d="M165.973 94.2V96.984H153.509V95.208L159.237 86.28C160.154 84.8507 160.815 83.6133 161.221 82.568C161.626 81.512 161.829 80.5093 161.829 79.56C161.829 78.2053 161.471 77.2293 160.757 76.632C160.053 76.024 158.97 75.72 157.509 75.72C155.973 75.72 154.543 76.0027 153.221 76.568V73.848C153.807 73.592 154.533 73.3893 155.397 73.24C156.261 73.08 157.098 73 157.909 73C160.17 73 161.909 73.5013 163.125 74.504C164.351 75.5067 164.965 77.0853 164.965 79.24C164.965 80.4453 164.746 81.6773 164.309 82.936C163.871 84.184 163.114 85.6293 162.037 87.272L157.541 94.2H165.973Z" fill="#E3E0DA"/>
<g filter="url(#filter3_dd_7647_1593)">
<path d="M160.796 111.965C162.296 112.295 163.431 112.94 164.201 113.9C164.981 114.85 165.371 116.07 165.371 117.56C165.371 118.88 165.071 120.005 164.471 120.935C163.881 121.865 163.026 122.57 161.906 123.05C160.796 123.53 159.466 123.77 157.916 123.77C156.286 123.77 154.721 123.525 153.221 123.035V120.605C153.951 120.845 154.721 121.03 155.531 121.16C156.341 121.29 157.111 121.355 157.841 121.355C159.351 121.355 160.506 121.025 161.306 120.365C162.106 119.705 162.506 118.72 162.506 117.41C162.506 116.1 162.091 115.095 161.261 114.395C160.441 113.695 159.171 113.345 157.451 113.345H155.411V110.87H156.761C158.431 110.87 159.696 110.52 160.556 109.82C161.416 109.11 161.846 108.13 161.846 106.88C161.846 105.72 161.506 104.855 160.826 104.285C160.146 103.705 159.111 103.415 157.721 103.415C156.221 103.415 154.826 103.68 153.536 104.21V101.795C154.096 101.555 154.786 101.365 155.606 101.225C156.436 101.075 157.246 101 158.036 101C160.206 101 161.856 101.485 162.986 102.455C164.126 103.415 164.696 104.805 164.696 106.625C164.696 107.935 164.356 109.06 163.676 110C162.996 110.93 162.036 111.585 160.796 111.965Z" fill="url(#paint5_linear_7647_1593)"/>
</g>
</g>
<rect x="128.721" y="86.5" width="41" height="41" rx="7.5" stroke="url(#paint6_linear_7647_1593)"/>
<defs>
<filter id="filter0_dd_7647_1593" x="44.7207" y="25.9009" width="134.42" height="105.728" filterUnits="userSpaceOnUse" color-interpolation-filters="sRGB">
<feFlood flood-opacity="0" result="BackgroundImageFix"/>
<feColorMatrix in="SourceAlpha" type="matrix" values="0 0 0 0 0 0 0 0 0 0 0 0 0 0 0 0 0 0 127 0" result="hardAlpha"/>
<feOffset dy="4"/>
<feGaussianBlur stdDeviation="8"/>
<feComposite in2="hardAlpha" operator="out"/>
<feColorMatrix type="matrix" values="0 0 0 0 0 0 0 0 0 0 0 0 0 0 0 0 0 0 0.16 0"/>
<feBlend mode="normal" in2="BackgroundImageFix" result="effect1_dropShadow_7647_1593"/>
<feColorMatrix in="SourceAlpha" type="matrix" values="0 0 0 0 0 0 0 0 0 0 0 0 0 0 0 0 0 0 127 0" result="hardAlpha"/>
<feOffset dy="1"/>
<feGaussianBlur stdDeviation="0.5"/>
<feComposite in2="hardAlpha" operator="out"/>
<feColorMatrix type="matrix" values="0 0 0 0 0 0 0 0 0 0 0 0 0 0 0 0 0 0 0.08 0"/>
<feBlend mode="normal" in2="effect1_dropShadow_7647_1593" result="effect2_dropShadow_7647_1593"/>
<feBlend mode="normal" in="SourceGraphic" in2="effect2_dropShadow_7647_1593" result="shape"/>
</filter>
<filter id="filter1_dd_7647_1593" x="57.2207" y="10" width="109" height="119" filterUnits="userSpaceOnUse" color-interpolation-filters="sRGB">
<feFlood flood-opacity="0" result="BackgroundImageFix"/>
<feColorMatrix in="SourceAlpha" type="matrix" values="0 0 0 0 0 0 0 0 0 0 0 0 0 0 0 0 0 0 127 0" result="hardAlpha"/>
<feOffset dy="4"/>
<feGaussianBlur stdDeviation="8"/>
<feComposite in2="hardAlpha" operator="out"/>
<feColorMatrix type="matrix" values="0 0 0 0 0 0 0 0 0 0 0 0 0 0 0 0 0 0 0.14 0"/>
<feBlend mode="normal" in2="BackgroundImageFix" result="effect1_dropShadow_7647_1593"/>
<feColorMatrix in="SourceAlpha" type="matrix" values="0 0 0 0 0 0 0 0 0 0 0 0 0 0 0 0 0 0 127 0" result="hardAlpha"/>
<feOffset dy="1"/>
<feGaussianBlur stdDeviation="0.5"/>
<feComposite in2="hardAlpha" operator="out"/>
<feColorMatrix type="matrix" values="0 0 0 0 0 0 0 0 0 0 0 0 0 0 0 0 0 0 0.08 0"/>
<feBlend mode="normal" in2="effect1_dropShadow_7647_1593" result="effect2_dropShadow_7647_1593"/>
<feBlend mode="normal" in="SourceGraphic" in2="effect2_dropShadow_7647_1593" result="shape"/>
</filter>
<filter id="filter2_dd_7647_1593" x="153.221" y="85" width="42.8679" height="52.5693" filterUnits="userSpaceOnUse" color-interpolation-filters="sRGB">
<feFlood flood-opacity="0" result="BackgroundImageFix"/>
<feColorMatrix in="SourceAlpha" type="matrix" values="0 0 0 0 0 0 0 0 0 0 0 0 0 0 0 0 0 0 127 0" result="hardAlpha"/>
<feOffset dy="4"/>
<feGaussianBlur stdDeviation="8"/>
<feComposite in2="hardAlpha" operator="out"/>
<feColorMatrix type="matrix" values="0 0 0 0 0 0 0 0 0 0 0 0 0 0 0 0 0 0 0.14 0"/>
<feBlend mode="normal" in2="BackgroundImageFix" result="effect1_dropShadow_7647_1593"/>
<feColorMatrix in="SourceAlpha" type="matrix" values="0 0 0 0 0 0 0 0 0 0 0 0 0 0 0 0 0 0 127 0" result="hardAlpha"/>
<feOffset dy="1"/>
<feGaussianBlur stdDeviation="0.5"/>
<feComposite in2="hardAlpha" operator="out"/>
<feColorMatrix type="matrix" values="0 0 0 0 0 0 0 0 0 0 0 0 0 0 0 0 0 0 0.08 0"/>
<feBlend mode="normal" in2="effect1_dropShadow_7647_1593" result="effect2_dropShadow_7647_1593"/>
<feBlend mode="normal" in="SourceGraphic" in2="effect2_dropShadow_7647_1593" result="shape"/>
</filter>
<filter id="filter3_dd_7647_1593" x="145.221" y="93" width="28.15" height="38.77" filterUnits="userSpaceOnUse" color-interpolation-filters="sRGB">
<feFlood flood-opacity="0" result="BackgroundImageFix"/>
<feColorMatrix in="SourceAlpha" type="matrix" values="0 0 0 0 0 0 0 0 0 0 0 0 0 0 0 0 0 0 127 0" result="hardAlpha"/>
<feOffset/>
<feGaussianBlur stdDeviation="4"/>
<feComposite in2="hardAlpha" operator="out"/>
<feColorMatrix type="matrix" values="0 0 0 0 0.98415 0 0 0 0 0.859671 0 0 0 0 0.486234 0 0 0 1 0"/>
<feBlend mode="normal" in2="BackgroundImageFix" result="effect1_dropShadow_7647_1593"/>
<feColorMatrix in="SourceAlpha" type="matrix" values="0 0 0 0 0 0 0 0 0 0 0 0 0 0 0 0 0 0 127 0" result="hardAlpha"/>
<feOffset/>
<feGaussianBlur stdDeviation="1"/>
<feComposite in2="hardAlpha" operator="out"/>
<feColorMatrix type="matrix" values="0 0 0 0 0 0 0 0 0 0 0 0 0 0 0 0 0 0 0.08 0"/>
<feBlend mode="normal" in2="effect1_dropShadow_7647_1593" result="effect2_dropShadow_7647_1593"/>
<feBlend mode="normal" in="SourceGraphic" in2="effect2_dropShadow_7647_1593" result="shape"/>
</filter>
<linearGradient id="paint0_linear_7647_1593" x1="60.7687" y1="106.346" x2="67.2208" y2="116.346" gradientUnits="userSpaceOnUse">
<stop stop-color="#CDCDCD"/>
<stop offset="1" stop-color="#B0B0B0"/>
</linearGradient>
<linearGradient id="paint1_linear_7647_1593" x1="60.7687" y1="34" x2="67.2208" y2="44" gradientUnits="userSpaceOnUse">
<stop stop-color="#CDCDCD"/>
<stop offset="1" stop-color="#B0B0B0"/>
</linearGradient>
<linearGradient id="paint2_linear_7647_1593" x1="160.721" y1="34" x2="167.173" y2="44" gradientUnits="userSpaceOnUse">
<stop stop-color="#CDCDCD"/>
<stop offset="1" stop-color="#B0B0B0"/>
</linearGradient>
<linearGradient id="paint3_linear_7647_1593" x1="143.721" y1="91.5" x2="172.221" y2="137" gradientUnits="userSpaceOnUse">
<stop offset="0.0036" stop-color="#8B8989"/>
<stop offset="1" stop-color="#FFFAED"/>
</linearGradient>
<linearGradient id="paint4_linear_7647_1593" x1="143.721" y1="91.5" x2="180.514" y2="117.348" gradientUnits="userSpaceOnUse">
<stop stop-color="#EBE1C2"/>
<stop offset="1" stop-color="#ADAEB6"/>
</linearGradient>
<linearGradient id="paint5_linear_7647_1593" x1="159.296" y1="101" x2="159.296" y2="123.77" gradientUnits="userSpaceOnUse">
<stop stop-color="#FFCC33"/>
<stop offset="1" stop-color="#FFEAAA"/>
</linearGradient>
<linearGradient id="paint6_linear_7647_1593" x1="134.721" y1="88" x2="168.221" y2="127" gradientUnits="userSpaceOnUse">
<stop offset="0.298077" stop-color="#B6B1A0"/>
<stop offset="1" stop-color="#FFF4D1"/>
</linearGradient>
</defs>
</svg>
