<svg xmlns="http://www.w3.org/2000/svg" width="24" height="24" fill="none">
  <path fill="#212121" d="M16.8731 6.0214c1.0946 0 1.9818-.9002 1.9818-2.0107S17.9677 2 16.8731 2c-1.0945 0-1.9818.9002-1.9818 2.0107 0 .7083-.0136 1.5186-.519 2.0071L13.0697 7.277c-.5694.5504-1.4407.5687-2.2009.3643a3.6923 3.6923 0 0 0-.96-.1263c-2.064 0-3.7372 1.6975-3.7372 3.7916 0 2.094 1.6732 3.7916 3.7371 3.7916.2453 0 .485-.024.717-.0698.8214-.1619 1.7581-.0683 2.2926.5849l.8345 1.02c.4953.6054.1063 1.144-.0493 1.9148a2.9249 2.9249 0 0 0-.0576.5795C13.6459 20.714 14.9134 22 16.477 22s2.8312-1.286 2.8312-2.8724c0-1.5864-1.2676-2.8724-2.8312-2.8724a2.888 2.888 0 0 0-.1746.0053c-.8283.0512-1.4272.3056-1.9572-.3422l-.7686-.9394c-.5218-.6378-.4563-1.5621-.1687-2.338a3.8331 3.8331 0 0 0 .238-1.3343c0-.3783-.0546-.7437-.1563-1.0884-.2486-.8433-.2426-1.843.3855-2.4502l1.3458-1.301c.4236-.4094 1.0672-.4456 1.6522-.4456Z"/>
  <path fill="#212121" d="M21 10.4703c0 .9201-.7352 1.666-1.6421 1.666-.9069 0-1.642-.7459-1.642-1.666 0-.9201.7351-1.666 1.642-1.666.9069 0 1.6421.7459 1.6421 1.666ZM9.5524 18.9473c0 .9201-.7352 1.666-1.642 1.666-.907 0-1.6421-.7459-1.6421-1.666 0-.9201.7351-1.666 1.642-1.666.907 0 1.6421.7459 1.6421 1.666ZM7.0883 4.876c0 1.1454-.9152 2.074-2.0442 2.074C3.9153 6.95 3 6.0213 3 4.876s.9152-2.074 2.0442-2.074c1.1289 0 2.044.9286 2.044 2.074Z"/>
</svg>
