<svg width="230" height="160" viewBox="0 0 230 160" fill="none" xmlns="http://www.w3.org/2000/svg">
<path d="M161.634 88.6908C161.634 100.205 157.53 110.678 150.671 118.885C142.035 129.235 129.051 135.788 114.475 135.788C100.511 135.788 88.0169 129.725 79.3813 120.11C71.9706 111.78 67.4385 100.756 67.4385 88.6908C67.4385 62.6615 88.5069 41.5931 114.536 41.5931C140.565 41.5931 161.634 62.6615 161.634 88.6908Z" fill="#EBEBEB"/>
<path fill-rule="evenodd" clip-rule="evenodd" d="M112.415 40.1385C113.118 40.1084 113.826 40.0931 114.536 40.0931C115.247 40.0931 115.954 40.1084 116.657 40.1385L116.529 43.1358C115.868 43.1074 115.204 43.0931 114.536 43.0931C113.868 43.0931 113.204 43.1074 112.544 43.1358L112.415 40.1385ZM120.882 40.5031C122.294 40.687 123.687 40.9314 125.059 41.2336L124.413 44.1633C123.127 43.8798 121.82 43.6505 120.495 43.478L120.882 40.5031ZM104.014 41.2336C105.385 40.9314 106.778 40.687 108.19 40.5031L108.578 43.478C107.253 43.6505 105.946 43.8798 104.659 44.1633L104.014 41.2336ZM95.9306 43.7768C97.2318 43.2378 98.5615 42.7537 99.917 42.3272L100.817 45.1889C99.5461 45.5889 98.2991 46.0429 97.0787 46.5484L95.9306 43.7768ZM129.155 42.3272C130.511 42.7537 131.841 43.2378 133.142 43.7768L131.994 46.5484C130.773 46.0429 129.526 45.5889 128.255 45.1889L129.155 42.3272ZM136.985 45.5705C138.242 46.2257 139.467 46.9342 140.656 47.6931L139.043 50.2221C137.927 49.5102 136.778 48.8454 135.599 48.2308L136.985 45.5705ZM88.4158 47.6931C89.6052 46.9342 90.8299 46.2257 92.087 45.5705L93.4736 48.2308C92.2944 48.8454 91.1454 49.5102 90.0295 50.2221L88.4158 47.6931ZM144.128 50.1273C145.25 50.9892 146.334 51.8991 147.375 52.8538L145.348 55.0653C144.37 54.1692 143.354 53.3153 142.301 52.5063L144.128 50.1273ZM81.6973 52.8539C82.7387 51.8991 83.822 50.9893 84.9441 50.1273L86.7717 52.5063C85.7187 53.3153 84.702 54.1692 83.7245 55.0653L81.6973 52.8539ZM150.373 55.8519C151.328 56.8934 152.238 57.9767 153.1 59.0988L150.721 60.9264C149.912 59.8733 149.058 58.8566 148.162 57.8792L150.373 55.8519ZM75.9726 59.0988C76.8346 57.9767 77.7445 56.8934 78.6992 55.8519L80.9106 57.8792C80.0145 58.8566 79.1606 59.8733 78.3517 60.9264L75.9726 59.0988ZM155.534 62.5705C156.293 63.7599 157.001 64.9846 157.656 66.2417L154.996 67.6283C154.381 66.449 153.717 65.3001 153.005 64.1841L155.534 62.5705ZM71.4158 66.2417C72.071 64.9846 72.7796 63.7599 73.5384 62.5705L76.0675 64.1841C75.3555 65.3001 74.6908 66.449 74.0762 67.6283L71.4158 66.2417ZM159.45 70.0853C159.989 71.3864 160.473 72.7162 160.9 74.0717L158.038 74.972C157.638 73.7008 157.184 72.4537 156.678 71.2334L159.45 70.0853ZM68.1726 74.0717C68.599 72.7162 69.0832 71.3864 69.6222 70.0853L72.3938 71.2334C71.8883 72.4537 71.4342 73.7008 71.0343 74.972L68.1726 74.0717ZM66.3484 82.345C66.5323 80.9329 66.7767 79.5398 67.079 78.1684L70.0087 78.8141C69.7251 80.1004 69.4958 81.4073 69.3233 82.7324L66.3484 82.345ZM161.993 78.1684C162.296 79.5398 162.54 80.9329 162.724 82.345L159.749 82.7324C159.576 81.4073 159.347 80.1004 159.064 78.8141L161.993 78.1684ZM65.9385 88.6908C65.9385 87.9802 65.9537 87.2732 65.9839 86.5699L68.9811 86.6984C68.9528 87.3589 68.9385 88.0231 68.9385 88.6908C68.9385 89.388 68.9541 90.0816 68.985 90.7711L65.988 90.9054C65.9551 90.1712 65.9385 89.4329 65.9385 88.6908ZM163.088 86.5699C163.119 87.2732 163.134 87.9802 163.134 88.6908C163.134 89.3988 163.119 90.1031 163.089 90.8034L160.092 90.6758C160.12 90.018 160.134 89.3563 160.134 88.6908C160.134 88.0231 160.119 87.3589 160.091 86.6984L163.088 86.5699ZM162.728 95.0147C162.545 96.4235 162.302 97.8128 162.001 99.1803L159.071 98.536C159.353 97.2538 159.581 95.9508 159.752 94.6291L162.728 95.0147ZM67.1824 99.6766C66.853 98.2465 66.5864 96.7925 66.3858 95.3177L69.3584 94.9133C69.5467 96.2973 69.7968 97.6616 70.1058 99.0033L67.1824 99.6766ZM160.912 103.267C160.487 104.618 160.005 105.944 159.468 107.241L156.696 106.094C157.2 104.877 157.652 103.634 158.05 102.367L160.912 103.267ZM69.9482 108.087C69.3631 106.737 68.8369 105.355 68.3731 103.945L71.2229 103.008C71.658 104.331 72.1517 105.627 72.7007 106.894L69.9482 108.087ZM157.68 111.073C157.027 112.326 156.321 113.547 155.565 114.734L153.035 113.122C153.745 112.008 154.407 110.862 155.019 109.687L157.68 111.073ZM74.1929 115.855C73.3718 114.631 72.6043 113.368 71.8939 112.068L74.5265 110.629C75.1931 111.849 75.9135 113.035 76.6841 114.183L74.1929 115.855ZM153.142 118.197C152.714 118.756 152.274 119.306 151.822 119.847L150.671 118.885L151.823 119.846C151.822 119.846 151.822 119.846 151.822 119.847M78.2607 121.107C77.77 120.555 77.2915 119.992 76.8257 119.418L79.1552 117.528C79.5917 118.066 80.04 118.593 80.4997 119.11C80.9262 119.585 81.3623 120.051 81.8078 120.507L79.6608 122.602C79.1855 122.115 78.7202 121.618 78.2653 121.112L78.2607 121.107ZM147.422 124.467C146.379 125.428 145.294 126.344 144.169 127.211L142.337 124.836C143.392 124.022 144.411 123.163 145.39 122.261L147.422 124.467ZM85.8246 127.949C84.7243 127.144 83.659 126.295 82.6313 125.404L84.5971 123.137C85.562 123.974 86.5621 124.772 87.5949 125.527L85.8246 127.949ZM140.688 129.66C139.495 130.423 138.266 131.135 137.004 131.794L135.616 129.135C136.799 128.517 137.952 127.849 139.071 127.133L140.688 129.66ZM92.7935 132.196C91.5719 131.586 90.3797 130.926 89.2195 130.218L90.781 127.657C91.8697 128.32 92.9881 128.94 94.1341 129.512L92.7935 132.196ZM133.147 133.596C131.842 134.137 130.507 134.623 129.146 135.051L128.247 132.189C129.523 131.787 130.774 131.332 131.999 130.824L133.147 133.596ZM100.379 135.213C99.0688 134.817 97.7824 134.367 96.5222 133.865L97.6312 131.078C98.8131 131.548 100.019 131.97 101.248 132.342L100.379 135.213ZM125.033 136.147C123.657 136.45 122.259 136.695 120.841 136.879L120.455 133.904C121.786 133.731 123.098 133.501 124.389 133.217L125.033 136.147ZM108.363 136.908C107.002 136.738 105.659 136.511 104.336 136.23L104.958 133.295C106.199 133.559 107.46 133.771 108.737 133.932L108.363 136.908ZM116.602 137.243C115.897 137.273 115.188 137.288 114.475 137.288C113.791 137.288 113.11 137.274 112.433 137.246L112.557 134.249C113.193 134.275 113.832 134.288 114.475 134.288C115.145 134.288 115.812 134.274 116.474 134.246L116.602 137.243Z" fill="#BCB9B3"/>
<path d="M111.456 104.801L111.456 104.801L111.449 104.8C102.299 102.901 96.4278 93.923 98.3272 84.7713C100.228 75.6145 109.121 69.6652 118.263 71.6488L118.266 71.6494C121.537 72.3382 124.389 73.9744 126.82 76.2308C130.873 80.2877 132.596 86.1532 131.39 91.6692C131.042 93.1476 130.521 94.709 129.918 96.0039C128.28 99.1893 125.695 101.69 122.498 103.333C119.21 104.976 115.328 105.662 111.456 104.801Z" fill="#DEDBD5" stroke="#F0F0F0"/>
<path d="M120.413 86.7137H116.413V82.7142C116.413 81.9143 115.791 81.2032 114.902 81.2032C114.102 81.2032 113.391 81.8254 113.391 82.7142V86.7137H109.392C108.592 86.7137 107.881 87.3359 107.881 88.2247C107.881 89.1134 108.503 89.7356 109.392 89.7356H113.391V93.7351C113.391 94.535 114.013 95.2461 114.902 95.2461C115.702 95.2461 116.413 94.6239 116.413 93.7351V89.7356H120.413C121.213 89.7356 121.924 89.1134 121.924 88.2247C121.924 87.3359 121.213 86.7137 120.413 86.7137Z" fill="white"/>
<path d="M135.352 41.6135C135.352 47.1681 133.132 52.1054 129.679 55.8085C129.432 56.1788 129.062 56.4256 128.692 56.6725C124.992 60.1287 120.059 62.2271 114.633 62.2271C110.317 62.2271 106.247 60.8693 102.917 58.524C101.931 57.9069 101.068 57.0428 100.204 56.3022C96.3812 52.5992 94.0381 47.4149 94.0381 41.6135C94.0381 30.2576 103.287 21 114.633 21C126.102 21 135.352 30.2576 135.352 41.6135Z" fill="#E9F0F8"/>
<path d="M135.352 41.6124C135.352 47.6607 132.762 52.9684 128.692 56.7948C124.992 60.251 120.059 62.3494 114.633 62.3494C110.317 62.3494 106.247 60.9916 102.917 58.6463C97.4912 54.9433 94.0381 48.7716 94.0381 41.7358C94.0381 30.3799 103.287 21.1223 114.633 21.1223C125.979 21.1223 135.352 30.2564 135.352 41.6124Z" fill="#EBE3D7"/>
<path d="M129.679 55.8085C129.432 56.1788 129.062 56.4257 128.692 56.6726C124.993 60.1287 120.06 62.2271 114.633 62.2271C110.317 62.2271 106.247 60.8693 102.918 58.5241C101.931 57.9069 101.068 57.0429 100.205 56.3023C100.698 55.6851 101.438 55.3148 103.041 54.6976L103.658 54.4507C104.891 53.957 106.617 53.3398 108.837 52.3524C109.207 52.2289 109.454 51.9821 109.701 51.7352C109.824 51.6118 109.947 51.4883 109.947 51.2415C110.071 50.9946 110.194 50.6243 110.194 50.3774V46.1806C110.071 46.0572 110.071 46.0572 109.947 45.9338C109.577 45.44 109.331 44.8229 109.331 44.0823L109.084 43.9588C107.974 44.2057 108.097 43.0948 107.851 40.873C107.727 40.0089 107.851 39.7621 108.344 39.6386L108.714 39.1449C107.974 37.4168 107.604 35.8122 107.604 34.5778C107.604 32.4794 108.467 31.1217 109.701 30.5045C108.961 29.0233 108.961 28.5295 108.961 28.5295C108.961 28.5295 113.277 29.2701 114.757 29.0233C116.607 28.653 119.566 29.1467 120.676 31.6154C122.526 32.356 123.143 33.4669 123.389 34.7013C123.636 36.6762 122.526 38.7746 122.28 39.6386V39.7621C122.526 39.8855 122.65 40.1324 122.526 40.9964C122.28 43.0948 122.28 44.3291 121.293 44.0823L120.306 45.8103C120.306 46.0572 120.306 46.0572 120.183 46.1806C120.183 46.5509 120.183 47.1681 120.183 50.5008C120.183 50.8711 120.306 51.3649 120.553 51.6117C120.676 51.7352 120.676 51.8586 120.8 51.8586C121.046 52.1055 121.293 52.3524 121.54 52.3524C124.006 53.3398 125.733 54.0804 127.089 54.5742C128.322 55.0679 129.186 55.4382 129.679 55.8085Z" fill="white"/>
<path d="M129.679 55.8084C129.432 56.1787 129.062 56.4256 128.692 56.6725C124.993 60.1286 120.06 62.227 114.633 62.227C110.317 62.227 106.247 60.8692 102.918 58.524C101.931 57.9068 101.068 57.0428 100.205 56.3022C100.698 55.685 101.438 55.3147 103.041 54.6975L103.658 54.4507C104.891 53.9569 106.617 53.3398 108.837 52.3523C109.207 52.2288 109.454 51.982 109.701 51.7351C110.934 53.4632 112.907 54.5741 115.25 54.5741C117.47 54.5741 119.443 53.4632 120.676 51.8585C120.923 52.1054 121.17 52.3523 121.416 52.3523C123.883 53.3398 125.609 54.0804 126.966 54.5741C128.322 55.0678 129.186 55.4381 129.679 55.8084Z" fill="#B7B4AF"/>
<path d="M122.156 39.5152C122.279 39.0215 122.033 38.2808 121.786 37.9105C121.786 37.7871 121.663 37.7871 121.663 37.6637C120.8 35.9356 118.95 35.3184 117.223 35.195C112.66 34.9481 112.29 35.8122 110.934 34.5778C111.427 35.195 111.427 36.3059 110.687 37.5402C110.194 38.4043 109.33 38.898 108.467 39.1449C106.371 34.4544 107.481 31.492 109.454 30.5045C108.714 29.0233 108.714 28.5295 108.714 28.5295C108.714 28.5295 113.03 29.2701 114.51 29.0233C116.36 28.653 119.32 29.1467 120.43 31.6154C122.279 32.356 122.896 33.4669 123.143 34.7013C123.513 36.5528 122.403 38.6512 122.156 39.5152Z" fill="#676767"/>
<path d="M110.317 50.3773V46.1805C110.194 46.0571 110.194 46.0571 110.071 45.9336V45.6868C110.317 46.0571 110.564 46.4274 110.934 46.6742L114.264 49.0195C115.004 49.6367 116.113 49.6367 116.853 49.0195L119.936 46.3039C120.06 46.1805 120.183 46.1805 120.306 46.0571C120.306 46.4274 120.306 47.0445 120.306 50.3773C120.306 50.6241 120.306 50.7476 120.43 50.9944H110.317C110.194 50.7476 110.317 50.6241 110.317 50.3773Z" fill="url(#paint0_linear_3568_28781)"/>
<path d="M172.285 117.815C172.285 123.37 170.065 128.307 166.612 132.01C166.365 132.381 165.995 132.628 165.625 132.874C161.925 136.331 156.993 138.429 151.566 138.429C147.25 138.429 143.18 137.071 139.851 134.726C138.864 134.109 138.001 133.245 137.137 132.504C133.314 128.801 130.971 123.617 130.971 117.815C130.971 106.459 140.22 97.2019 151.566 97.2019C163.035 97.2019 172.285 106.459 172.285 117.815Z" fill="#E9F0F8"/>
<path d="M172.285 117.814C172.285 123.863 169.695 129.17 165.625 132.997C161.925 136.453 156.993 138.551 151.566 138.551C147.25 138.551 143.18 137.193 139.851 134.848C134.424 131.145 130.971 124.973 130.971 117.938C130.971 106.582 140.22 97.3242 151.566 97.3242C162.912 97.3242 172.285 106.458 172.285 117.814Z" fill="#EBE3D7"/>
<path d="M166.613 132.01C166.366 132.381 165.996 132.628 165.626 132.874C161.927 136.331 156.994 138.429 151.567 138.429C147.251 138.429 143.181 137.071 139.852 134.726C138.865 134.109 138.002 133.245 137.138 132.504C137.632 131.887 138.372 131.517 139.975 130.9L140.592 130.653C141.825 130.159 143.551 129.542 145.771 128.554C146.141 128.431 146.388 128.184 146.634 127.937C146.758 127.814 146.881 127.69 146.881 127.443C147.004 127.196 147.128 126.826 147.128 126.579V122.383C147.004 122.259 147.004 122.259 146.881 122.136C146.511 121.642 146.264 121.025 146.264 120.284L146.018 120.161C144.908 120.408 145.031 119.297 144.785 117.075C144.661 116.211 144.785 115.964 145.278 115.841L145.648 115.347C144.908 113.619 144.538 112.014 144.538 110.78C144.538 108.681 145.401 107.324 146.634 106.706C145.894 105.225 145.894 104.731 145.894 104.731C145.894 104.731 150.211 105.472 151.691 105.225C153.541 104.855 156.5 105.349 157.61 107.817C159.46 108.558 160.077 109.669 160.323 110.903C160.57 112.878 159.46 114.976 159.213 115.841V115.964C159.46 116.087 159.583 116.334 159.46 117.198C159.213 119.297 159.213 120.531 158.227 120.284L157.24 122.012C157.24 122.259 157.24 122.259 157.117 122.383C157.117 122.753 157.117 123.37 157.117 126.703C157.117 127.073 157.24 127.567 157.487 127.814C157.61 127.937 157.61 128.061 157.734 128.061C157.98 128.307 158.227 128.554 158.473 128.554C160.94 129.542 162.666 130.282 164.023 130.776C165.256 131.27 166.12 131.64 166.613 132.01Z" fill="white"/>
<path d="M166.612 132.01C166.365 132.381 165.995 132.628 165.626 132.874C161.926 136.331 156.993 138.429 151.567 138.429C147.25 138.429 143.181 137.071 139.851 134.726C138.864 134.109 138.001 133.245 137.138 132.504C137.631 131.887 138.371 131.517 139.974 130.899L140.591 130.653C141.824 130.159 143.551 129.542 145.77 128.554C146.14 128.431 146.387 128.184 146.634 127.937C147.867 129.665 149.84 130.776 152.183 130.776C154.403 130.776 156.376 129.665 157.609 128.06C157.856 128.307 158.103 128.554 158.349 128.554C160.816 129.542 162.542 130.282 163.899 130.776C165.256 131.27 166.119 131.64 166.612 132.01Z" fill="#B7B4AF"/>
<path d="M159.089 115.717C159.213 115.223 158.966 114.483 158.719 114.112C158.719 113.989 158.596 113.989 158.596 113.866C157.733 112.138 155.883 111.52 154.156 111.397C149.593 111.15 149.223 112.014 147.867 110.78C148.36 111.397 148.36 112.508 147.62 113.742C147.127 114.606 146.264 115.1 145.4 115.347C143.304 110.656 144.414 107.694 146.387 106.706C145.647 105.225 145.647 104.731 145.647 104.731C145.647 104.731 149.963 105.472 151.443 105.225C153.293 104.855 156.253 105.349 157.363 107.817C159.213 108.558 159.829 109.669 160.076 110.903C160.446 112.755 159.336 114.853 159.089 115.717Z" fill="#676767"/>
<path d="M147.25 126.579V122.382C147.127 122.259 147.127 122.259 147.003 122.136V121.889C147.25 122.259 147.497 122.629 147.867 122.876L151.196 125.221C151.936 125.839 153.046 125.839 153.786 125.221L156.869 122.506C156.993 122.382 157.116 122.382 157.239 122.259C157.239 122.629 157.239 123.246 157.239 126.579C157.239 126.826 157.239 126.949 157.363 127.196H147.25C147.127 126.949 147.25 126.826 147.25 126.579Z" fill="url(#paint1_linear_3568_28781)"/>
<path d="M98.2036 118.125C98.2036 123.926 95.7371 129.11 91.7908 132.813C90.6808 133.801 89.5709 134.665 88.2144 135.406C85.2546 137.134 81.8015 138.121 78.1018 138.121C74.4021 138.121 70.949 137.134 67.9892 135.406C67.4959 135.159 67.126 134.912 66.6327 134.542C61.4531 130.962 58 124.914 58 118.125C58 107.016 67.0026 98.1285 77.9785 98.1285C89.201 98.005 98.2036 107.016 98.2036 118.125Z" fill="#EBE3D7"/>
<path d="M74.0321 122.568C74.2787 122.815 74.5254 123.185 74.8954 123.432C75.142 123.679 75.3886 123.802 75.6353 124.049C75.7586 124.172 76.0053 124.296 76.1286 124.419C76.1286 124.419 76.2519 124.419 76.2519 124.543L76.3752 124.666V126.394C76.3752 126.394 76.3752 126.394 76.2519 126.271C76.1286 126.147 75.8819 126.024 75.7586 125.901C75.512 125.777 75.2653 125.53 75.0187 125.407C74.8953 125.407 74.8953 125.283 74.772 125.283C73.9088 124.79 73.1688 124.296 73.1688 123.679C73.2921 123.432 73.5388 123.062 74.0321 122.568ZM91.1875 132.115C90.4476 130.511 89.4476 128.986 87.721 128.122C86.8578 127.752 85.8712 127.382 84.8846 127.382C84.6379 127.382 84.268 127.382 84.0213 127.382C83.898 127.382 83.7747 127.382 83.6513 127.382C82.2948 127.258 82.1715 127.011 82.1715 127.011V124.172C83.0347 123.432 83.898 122.568 84.6379 121.704C85.2546 120.84 85.7479 119.852 85.9945 118.618C87.1044 118.371 87.8444 117.384 87.721 116.149C87.721 115.656 87.3511 115.162 87.3511 114.668C87.3511 114.421 87.3511 114.174 87.3511 113.927C87.3511 113.804 87.3511 113.557 87.3511 113.434C87.3511 113.31 87.3511 113.063 87.3511 112.94C87.2277 112.076 86.9811 111.212 86.4878 110.224C85.0079 107.509 82.2948 105.781 79.0884 105.781C78.4717 105.781 77.8551 105.904 77.2385 106.028C76.1286 106.274 75.0187 106.768 74.1554 107.509C74.0321 107.632 73.7854 107.756 73.6621 108.003L73.5388 108.126C72.5522 109.113 71.6889 110.224 71.319 111.582C70.8257 112.94 70.8257 114.298 70.949 115.656C70.949 115.656 70.949 115.656 70.949 115.779V115.902C70.949 116.149 71.0723 116.149 70.949 116.273C70.949 116.396 70.8257 116.396 70.8257 116.52C70.579 116.89 70.4557 117.384 70.7023 118.124C71.1956 119.359 71.9356 119.235 72.7988 119.852C72.7988 119.852 72.6755 119.852 72.6755 119.976L71.8123 120.223C67.8659 121.457 66.5093 124.79 68.2359 126.888C68.8525 127.629 69.8391 128.246 71.319 128.616C70.949 128.616 70.579 128.863 70.3324 129.11C68.6058 130.468 67.4959 132.566 67.2493 134.541C67.2493 134.664 67.2493 134.788 67.2493 134.911C67.7426 135.158 68.1125 135.528 68.6058 135.775L87.9172 135.324C89.1505 134.583 89.6961 134.011 90.806 133.024C90.6827 132.407 91.3108 132.239 91.1875 132.115Z" fill="white"/>
<path d="M91.7909 132.813C90.681 133.801 89.5711 134.665 88.2145 135.405C85.2547 137.133 81.8017 138.121 78.1019 138.121C74.4022 138.121 70.9491 137.133 67.9894 135.405C67.4961 135.158 67.1261 134.912 66.6328 134.541C66.6328 134.418 66.6328 134.294 66.6328 134.171C66.8795 132.196 67.9894 130.098 69.7159 128.74C69.9626 128.493 70.3325 128.37 70.7025 128.246C69.2226 127.999 68.236 127.382 67.6194 126.518H72.3057C73.6623 128.37 75.7588 129.48 78.2253 129.48C80.3218 129.48 82.1716 128.616 83.5282 127.259C83.6515 127.259 83.7748 127.259 83.8982 127.259C84.1448 127.259 84.3915 127.259 84.7614 127.259C85.748 127.259 86.7346 127.506 87.5979 127.999C89.3244 128.863 90.5577 130.345 91.4209 132.073C91.6676 132.319 91.6676 132.566 91.7909 132.813Z" fill="#B7B4AF"/>
<path d="M82.2953 124.173V126.765L74.5259 127.012L74.8958 125.284C75.0192 125.284 75.0192 125.407 75.1425 125.407C75.3891 125.531 75.6358 125.777 75.8824 125.901C76.0058 126.024 76.1291 126.148 76.3757 126.271C76.3757 126.271 76.4991 126.271 76.4991 126.395V124.667L76.3757 124.543C77.7323 125.284 79.5822 125.777 82.2953 124.173Z" fill="url(#paint2_linear_3568_28781)"/>
<path d="M87.351 113.434C85.8711 113.928 84.1446 114.175 82.5414 114.051C79.9516 113.804 77.4851 112.817 75.5119 111.089C74.8953 112.94 73.2921 114.298 71.4422 115.162C71.1956 115.286 70.949 115.409 70.7023 115.409C70.7023 115.409 70.7023 115.409 70.7023 115.286C70.579 113.928 70.579 112.57 71.0723 111.212C71.4422 109.855 72.3055 108.744 73.2921 107.756L73.4154 107.633C73.5388 107.509 73.7854 107.386 73.9087 107.139C74.772 106.398 75.8819 105.905 76.9918 105.658C77.6084 105.534 78.2251 105.411 78.8417 105.411C82.0481 105.411 84.8846 107.139 86.2411 109.855C86.7344 110.842 86.9811 111.829 87.1044 112.57C87.351 113.064 87.351 113.311 87.351 113.434Z" fill="#676767"/>
<path d="M77.4853 131.703C76.7453 132.567 75.5121 132.567 74.4022 132.567C75.5121 131.456 74.8955 127.876 70.9491 128.246C65.5229 127.259 66.0162 121.581 71.4424 119.853L72.3057 119.606L72.429 119.729C72.799 120.84 73.4156 121.828 74.0322 122.568C71.8124 124.42 74.8955 124.914 76.3754 126.395C77.6086 127.135 78.7185 130.221 77.4853 131.703Z" fill="#676767"/>
<defs>
<linearGradient id="paint0_linear_3568_28781" x1="115.23" y1="50.8292" x2="115.23" y2="48.049" gradientUnits="userSpaceOnUse">
<stop stop-color="white" stop-opacity="0"/>
<stop offset="0.9913" stop-color="#DAD6CF"/>
</linearGradient>
<linearGradient id="paint1_linear_3568_28781" x1="152.163" y1="127.031" x2="152.163" y2="124.251" gradientUnits="userSpaceOnUse">
<stop stop-color="white" stop-opacity="0"/>
<stop offset="0.9913" stop-color="#DAD6CF"/>
</linearGradient>
<linearGradient id="paint2_linear_3568_28781" x1="78.3956" y1="126.923" x2="78.3956" y2="125.436" gradientUnits="userSpaceOnUse">
<stop stop-color="white" stop-opacity="0"/>
<stop offset="0.9913" stop-color="#DAD6CF"/>
</linearGradient>
</defs>
</svg>
