<svg width="160" height="161" viewBox="0 0 160 161" fill="none" xmlns="http://www.w3.org/2000/svg">
<path d="M126.634 89.1908C126.634 100.705 122.53 111.178 115.671 119.385C107.035 129.735 94.0513 136.288 79.4749 136.288C65.511 136.288 53.0169 130.225 44.3813 120.61C36.9706 112.28 32.4385 101.256 32.4385 89.1908C32.4385 63.1615 53.5069 42.0931 79.5361 42.0931C105.565 42.0931 126.634 63.1615 126.634 89.1908Z" fill="white"/>
<path fill-rule="evenodd" clip-rule="evenodd" d="M77.4152 40.6385C78.1185 40.6084 78.8256 40.5931 79.5361 40.5931C80.2467 40.5931 80.9538 40.6084 81.6571 40.6385L81.5286 43.6358C80.8681 43.6074 80.2038 43.5931 79.5361 43.5931C78.8684 43.5931 78.2042 43.6074 77.5437 43.6358L77.4152 40.6385ZM85.882 41.0031C87.294 41.187 88.6871 41.4314 90.0586 41.7336L89.4128 44.6633C88.1265 44.3798 86.8196 44.1505 85.4946 43.978L85.882 41.0031ZM69.0137 41.7336C70.3851 41.4314 71.7782 41.187 73.1903 41.0031L73.5777 43.978C72.2527 44.1505 70.9458 44.3798 69.6594 44.6633L69.0137 41.7336ZM60.9306 44.2768C62.2318 43.7378 63.5615 43.2537 64.917 42.8272L65.8173 45.6889C64.5461 46.0889 63.2991 46.5429 62.0787 47.0484L60.9306 44.2768ZM94.1553 42.8272C95.5107 43.2537 96.8405 43.7378 98.1417 44.2768L96.9935 47.0484C95.7732 46.5429 94.5261 46.0889 93.255 45.6889L94.1553 42.8272ZM101.985 46.0705C103.242 46.7257 104.467 47.4342 105.656 48.1931L104.043 50.7221C102.927 50.0102 101.778 49.3454 100.599 48.7308L101.985 46.0705ZM53.4158 48.1931C54.6052 47.4342 55.8299 46.7257 57.087 46.0705L58.4736 48.7308C57.2944 49.3454 56.1454 50.0102 55.0295 50.7221L53.4158 48.1931ZM109.128 50.6273C110.25 51.4892 111.334 52.3991 112.375 53.3538L110.348 55.5653C109.37 54.6692 108.354 53.8153 107.301 53.0063L109.128 50.6273ZM46.6973 53.3539C47.7387 52.3991 48.822 51.4893 49.9441 50.6273L51.7717 53.0063C50.7187 53.8153 49.702 54.6692 48.7245 55.5653L46.6973 53.3539ZM115.373 56.3519C116.328 57.3934 117.238 58.4767 118.1 59.5988L115.721 61.4264C114.912 60.3733 114.058 59.3566 113.162 58.3792L115.373 56.3519ZM40.9726 59.5988C41.8346 58.4767 42.7445 57.3934 43.6992 56.3519L45.9106 58.3792C45.0145 59.3566 44.1606 60.3733 43.3517 61.4264L40.9726 59.5988ZM120.534 63.0705C121.293 64.2599 122.001 65.4846 122.656 66.7417L119.996 68.1283C119.381 66.949 118.717 65.8001 118.005 64.6841L120.534 63.0705ZM36.4158 66.7417C37.071 65.4846 37.7796 64.2599 38.5384 63.0705L41.0675 64.6841C40.3555 65.8001 39.6908 66.949 39.0762 68.1283L36.4158 66.7417ZM124.45 70.5853C124.989 71.8864 125.473 73.2162 125.9 74.5717L123.038 75.472C122.638 74.2008 122.184 72.9537 121.678 71.7334L124.45 70.5853ZM33.1726 74.5717C33.599 73.2162 34.0832 71.8864 34.6222 70.5853L37.3938 71.7334C36.8883 72.9537 36.4342 74.2008 36.0343 75.472L33.1726 74.5717ZM31.3484 82.845C31.5323 81.4329 31.7767 80.0398 32.079 78.6684L35.0087 79.3141C34.7251 80.6004 34.4958 81.9073 34.3233 83.2324L31.3484 82.845ZM126.993 78.6684C127.296 80.0398 127.54 81.4329 127.724 82.845L124.749 83.2324C124.576 81.9073 124.347 80.6004 124.064 79.3141L126.993 78.6684ZM30.9385 89.1908C30.9385 88.4802 30.9537 87.7732 30.9839 87.0699L33.9811 87.1984C33.9528 87.8589 33.9385 88.5231 33.9385 89.1908C33.9385 89.888 33.9541 90.5816 33.985 91.2711L30.988 91.4054C30.9551 90.6712 30.9385 89.9329 30.9385 89.1908ZM128.088 87.0699C128.119 87.7732 128.134 88.4802 128.134 89.1908C128.134 89.8988 128.119 90.6031 128.089 91.3034L125.092 91.1758C125.12 90.518 125.134 89.8563 125.134 89.1908C125.134 88.5231 125.119 87.8589 125.091 87.1984L128.088 87.0699ZM127.728 95.5147C127.545 96.9235 127.302 98.3128 127.001 99.6803L124.071 99.036C124.353 97.7538 124.581 96.4508 124.752 95.1291L127.728 95.5147ZM32.1824 100.177C31.853 98.7465 31.5864 97.2925 31.3858 95.8177L34.3584 95.4133C34.5467 96.7973 34.7968 98.1616 35.1058 99.5033L32.1824 100.177ZM125.912 103.767C125.487 105.118 125.005 106.444 124.468 107.741L121.696 106.594C122.2 105.377 122.652 104.134 123.05 102.867L125.912 103.767ZM34.9482 108.587C34.3631 107.237 33.8369 105.855 33.3731 104.445L36.2229 103.508C36.658 104.831 37.1517 106.127 37.7007 107.394L34.9482 108.587ZM122.68 111.573C122.027 112.826 121.321 114.047 120.565 115.234L118.035 113.622C118.745 112.508 119.407 111.362 120.019 110.187L122.68 111.573ZM39.1929 116.355C38.3718 115.131 37.6043 113.868 36.8939 112.568L39.5265 111.129C40.1931 112.349 40.9135 113.535 41.6841 114.683L39.1929 116.355ZM118.142 118.697C117.714 119.256 117.274 119.806 116.822 120.347L115.671 119.385L116.823 120.346C116.822 120.346 116.822 120.346 116.822 120.347M43.2607 121.607C42.77 121.055 42.2915 120.492 41.8257 119.918L44.1552 118.028C44.5917 118.566 45.04 119.093 45.4997 119.61C45.9262 120.085 46.3623 120.551 46.8078 121.007L44.6608 123.102C44.1855 122.615 43.7202 122.118 43.2653 121.612L43.2607 121.607ZM112.422 124.967C111.379 125.928 110.294 126.844 109.169 127.711L107.337 125.336C108.392 124.522 109.411 123.663 110.39 122.761L112.422 124.967ZM50.8246 128.449C49.7243 127.644 48.659 126.795 47.6313 125.904L49.5971 123.637C50.562 124.474 51.5621 125.272 52.5949 126.027L50.8246 128.449ZM105.688 130.16C104.495 130.923 103.266 131.635 102.004 132.294L100.616 129.635C101.799 129.017 102.952 128.349 104.071 127.633L105.688 130.16ZM57.7935 132.696C56.5719 132.086 55.3797 131.426 54.2195 130.718L55.781 128.157C56.8697 128.82 57.9881 129.44 59.1341 130.012L57.7935 132.696ZM98.1472 134.096C96.8417 134.637 95.5071 135.123 94.1464 135.551L93.2466 132.689C94.5227 132.287 95.7743 131.832 96.9987 131.324L98.1472 134.096ZM65.3788 135.713C64.0688 135.317 62.7824 134.867 61.5222 134.365L62.6312 131.578C63.8131 132.048 65.0194 132.47 66.2478 132.842L65.3788 135.713ZM90.0335 136.647C88.6572 136.95 87.2588 137.195 85.8411 137.379L85.4549 134.404C86.7856 134.231 88.0978 134.001 89.3889 133.717L90.0335 136.647ZM73.3635 137.408C72.0023 137.238 70.6589 137.011 69.3356 136.73L69.9582 133.795C71.1993 134.059 72.4595 134.271 73.7367 134.432L73.3635 137.408ZM81.6024 137.743C80.897 137.773 80.1878 137.788 79.4749 137.788C78.7908 137.788 78.11 137.774 77.4328 137.746L77.5566 134.749C78.1925 134.775 78.8321 134.788 79.4749 134.788C80.1451 134.788 80.8117 134.774 81.4744 134.746L81.6024 137.743Z" fill="#BCB9B3"/>
<path d="M76.4556 105.301L76.4556 105.301L76.4488 105.3C67.299 103.401 61.4278 94.423 63.3272 85.2713C65.2276 76.1145 74.1206 70.1652 83.2625 72.1488L83.2655 72.1494C86.5372 72.8382 89.3886 74.4744 91.8205 76.7308C95.8729 80.7877 97.5957 86.6532 96.3905 92.1692C96.0424 93.6476 95.5214 95.209 94.918 96.5039C93.28 99.6893 90.6947 102.19 87.4975 103.833C84.2097 105.476 80.328 106.162 76.4556 105.301Z" fill="#DEDBD5" stroke="#F0F0F0"/>
<path d="M85.4127 87.2137H81.4132V83.2142C81.4132 82.4142 80.791 81.7032 79.9023 81.7032C79.1024 81.7032 78.3913 82.3254 78.3913 83.2142V87.2137H74.3918C73.5919 87.2137 72.8809 87.8358 72.8809 88.7246C72.8809 89.6134 73.503 90.2356 74.3918 90.2356H78.3913V94.2351C78.3913 95.035 79.0135 95.746 79.9023 95.746C80.7022 95.746 81.4132 95.1239 81.4132 94.2351V90.2356H85.4127C86.2126 90.2356 86.9237 89.6134 86.9237 88.7246C86.9237 87.8358 86.2126 87.2137 85.4127 87.2137Z" fill="white"/>
<path d="M100.352 42.1135C100.352 47.6681 98.1318 52.6054 94.6787 56.3085C94.4321 56.6788 94.0621 56.9256 93.6921 57.1725C89.9924 60.6287 85.0594 62.7271 79.6332 62.7271C75.3169 62.7271 71.2472 61.3693 67.9174 59.024C66.9308 58.4069 66.0675 57.5428 65.2043 56.8022C61.3812 53.0992 59.0381 47.9149 59.0381 42.1135C59.0381 30.7576 68.2874 21.5 79.6332 21.5C91.1023 21.5 100.352 30.7576 100.352 42.1135Z" fill="#E9F0F8"/>
<path d="M100.352 42.1124C100.352 48.1607 97.7618 53.4684 93.6921 57.2948C89.9924 60.751 85.0594 62.8494 79.6332 62.8494C75.3169 62.8494 71.2472 61.4916 67.9174 59.1463C62.4912 55.4433 59.0381 49.2716 59.0381 42.2358C59.0381 30.8799 68.2874 21.6223 79.6332 21.6223C90.979 21.6223 100.352 30.7564 100.352 42.1124Z" fill="#EBE3D7"/>
<path d="M94.679 56.3085C94.4324 56.6788 94.0624 56.9257 93.6924 57.1726C89.9927 60.6287 85.0597 62.7271 79.6335 62.7271C75.3172 62.7271 71.2475 61.3693 67.9177 59.0241C66.9311 58.4069 66.0679 57.5429 65.2046 56.8023C65.6979 56.1851 66.4378 55.8148 68.041 55.1976L68.6577 54.9507C69.8909 54.457 71.6174 53.8398 73.8373 52.8524C74.2072 52.7289 74.4539 52.4821 74.7005 52.2352C74.8239 52.1118 74.9472 51.9883 74.9472 51.7415C75.0705 51.4946 75.1938 51.1243 75.1938 50.8774V46.6806C75.0705 46.5572 75.0705 46.5572 74.9472 46.4338C74.5772 45.94 74.3306 45.3229 74.3306 44.5823L74.0839 44.4588C72.974 44.7057 73.0973 43.5948 72.8507 41.373C72.7274 40.5089 72.8507 40.2621 73.344 40.1386L73.7139 39.6449C72.974 37.9168 72.604 36.3122 72.604 35.0778C72.604 32.9794 73.4673 31.6217 74.7005 31.0045C73.9606 29.5233 73.9606 29.0295 73.9606 29.0295C73.9606 29.0295 78.2769 29.7701 79.7568 29.5233C81.6067 29.153 84.5664 29.6467 85.6764 32.1154C87.5262 32.856 88.1428 33.9669 88.3895 35.2013C88.6361 37.1762 87.5262 39.2746 87.2796 40.1386V40.2621C87.5262 40.3855 87.6495 40.6324 87.5262 41.4964C87.2796 43.5948 87.2796 44.8291 86.293 44.5823L85.3064 46.3103C85.3064 46.5572 85.3064 46.5572 85.1831 46.6806C85.1831 47.0509 85.1831 47.6681 85.1831 51.0008C85.1831 51.3711 85.3064 51.8649 85.553 52.1117C85.6764 52.2352 85.6764 52.3586 85.7997 52.3586C86.0463 52.6055 86.293 52.8524 86.5396 52.8524C89.0061 53.8398 90.7326 54.5804 92.0892 55.0742C93.3224 55.5679 94.1857 55.9382 94.679 56.3085Z" fill="white"/>
<path d="M94.679 56.3084C94.4324 56.6787 94.0624 56.9256 93.6924 57.1725C89.9927 60.6286 85.0597 62.727 79.6335 62.727C75.3172 62.727 71.2475 61.3692 67.9177 59.024C66.9311 58.4068 66.0679 57.5428 65.2046 56.8022C65.6979 56.185 66.4378 55.8147 68.041 55.1975L68.6577 54.9507C69.8909 54.4569 71.6174 53.8398 73.8373 52.8523C74.2072 52.7288 74.4539 52.482 74.7005 52.2351C75.9338 53.9632 77.907 55.0741 80.2501 55.0741C82.4699 55.0741 84.4431 53.9632 85.6764 52.3585C85.923 52.6054 86.1697 52.8523 86.4163 52.8523C88.8828 53.8398 90.6093 54.5804 91.9659 55.0741C93.3224 55.5678 94.1857 55.9381 94.679 56.3084Z" fill="#B7B4AF"/>
<path d="M87.1564 40.0152C87.2797 39.5215 87.0331 38.7808 86.7864 38.4105C86.7864 38.2871 86.6631 38.2871 86.6631 38.1637C85.7999 36.4356 83.95 35.8184 82.2235 35.695C77.6605 35.4481 77.2905 36.3122 75.9339 35.0778C76.4272 35.695 76.4272 36.8059 75.6873 38.0402C75.194 38.9043 74.3307 39.398 73.4675 39.6449C71.371 34.9544 72.4809 31.992 74.454 31.0045C73.7141 29.5233 73.7141 29.0295 73.7141 29.0295C73.7141 29.0295 78.0304 29.7701 79.5103 29.5233C81.3602 29.153 84.32 29.6467 85.4299 32.1154C87.2797 32.856 87.8964 33.9669 88.143 35.2013C88.513 37.0528 87.4031 39.1512 87.1564 40.0152Z" fill="#676767"/>
<path d="M75.317 50.8773V46.6805C75.1936 46.5571 75.1936 46.5571 75.0703 46.4336V46.1868C75.317 46.5571 75.5636 46.9274 75.9336 47.1742L79.2633 49.5195C80.0033 50.1367 81.1132 50.1367 81.8531 49.5195L84.9362 46.8039C85.0596 46.6805 85.1829 46.6805 85.3062 46.5571C85.3062 46.9274 85.3062 47.5445 85.3062 50.8773C85.3062 51.1241 85.3062 51.2476 85.4295 51.4944H75.317C75.1936 51.2476 75.317 51.1241 75.317 50.8773Z" fill="url(#paint0_linear_3568_28781)"/>
<path d="M137.285 118.315C137.285 123.87 135.065 128.807 131.612 132.51C131.365 132.881 130.995 133.128 130.625 133.374C126.925 136.831 121.993 138.929 116.566 138.929C112.25 138.929 108.18 137.571 104.851 135.226C103.864 134.609 103.001 133.745 102.137 133.004C98.3143 129.301 95.9712 124.117 95.9712 118.315C95.9712 106.96 105.22 97.7019 116.566 97.7019C128.035 97.7019 137.285 106.96 137.285 118.315Z" fill="#E9F0F8"/>
<path d="M137.285 118.314C137.285 124.363 134.695 129.67 130.625 133.497C126.925 136.953 121.993 139.051 116.566 139.051C112.25 139.051 108.18 137.694 104.851 135.348C99.4243 131.645 95.9712 125.474 95.9712 118.438C95.9712 107.082 105.22 97.8242 116.566 97.8242C127.912 97.8242 137.285 106.958 137.285 118.314Z" fill="#EBE3D7"/>
<path d="M131.613 132.51C131.366 132.881 130.996 133.128 130.626 133.374C126.927 136.831 121.994 138.929 116.568 138.929C112.251 138.929 108.182 137.571 104.852 135.226C103.865 134.609 103.002 133.745 102.139 133.004C102.632 132.387 103.372 132.017 104.975 131.4L105.592 131.153C106.825 130.659 108.552 130.042 110.771 129.054C111.141 128.931 111.388 128.684 111.635 128.437C111.758 128.314 111.881 128.19 111.881 127.943C112.005 127.697 112.128 127.326 112.128 127.079V122.883C112.005 122.759 112.005 122.759 111.881 122.636C111.511 122.142 111.265 121.525 111.265 120.784L111.018 120.661C109.908 120.908 110.031 119.797 109.785 117.575C109.661 116.711 109.785 116.464 110.278 116.341L110.648 115.847C109.908 114.119 109.538 112.514 109.538 111.28C109.538 109.181 110.401 107.824 111.635 107.206C110.895 105.725 110.895 105.231 110.895 105.231C110.895 105.231 115.211 105.972 116.691 105.725C118.541 105.355 121.501 105.849 122.61 108.317C124.46 109.058 125.077 110.169 125.324 111.403C125.57 113.378 124.46 115.477 124.214 116.341V116.464C124.46 116.587 124.584 116.834 124.46 117.698C124.214 119.797 124.214 121.031 123.227 120.784L122.24 122.512C122.24 122.759 122.24 122.759 122.117 122.883C122.117 123.253 122.117 123.87 122.117 127.203C122.117 127.573 122.24 128.067 122.487 128.314C122.61 128.437 122.61 128.561 122.734 128.561C122.98 128.807 123.227 129.054 123.474 129.054C125.94 130.042 127.667 130.782 129.023 131.276C130.257 131.77 131.12 132.14 131.613 132.51Z" fill="white"/>
<path d="M131.612 132.51C131.365 132.881 130.995 133.128 130.626 133.374C126.926 136.831 121.993 138.929 116.567 138.929C112.25 138.929 108.181 137.571 104.851 135.226C103.864 134.609 103.001 133.745 102.138 133.004C102.631 132.387 103.371 132.017 104.974 131.399L105.591 131.153C106.824 130.659 108.551 130.042 110.77 129.054C111.14 128.931 111.387 128.684 111.634 128.437C112.867 130.165 114.84 131.276 117.183 131.276C119.403 131.276 121.376 130.165 122.609 128.56C122.856 128.807 123.103 129.054 123.349 129.054C125.816 130.042 127.542 130.782 128.899 131.276C130.256 131.77 131.119 132.14 131.612 132.51Z" fill="#B7B4AF"/>
<path d="M124.09 116.217C124.213 115.723 123.966 114.983 123.72 114.612C123.72 114.489 123.596 114.489 123.596 114.366C122.733 112.638 120.883 112.02 119.157 111.897C114.594 111.65 114.224 112.514 112.867 111.28C113.36 111.897 113.36 113.008 112.62 114.242C112.127 115.106 111.264 115.6 110.401 115.847C108.304 111.156 109.414 108.194 111.387 107.206C110.647 105.725 110.647 105.231 110.647 105.231C110.647 105.231 114.964 105.972 116.443 105.725C118.293 105.355 121.253 105.849 122.363 108.317C124.213 109.058 124.829 110.169 125.076 111.403C125.446 113.255 124.336 115.353 124.09 116.217Z" fill="#676767"/>
<path d="M112.25 127.079V122.882C112.127 122.759 112.127 122.759 112.003 122.636V122.389C112.25 122.759 112.497 123.129 112.867 123.376L116.196 125.721C116.936 126.339 118.046 126.339 118.786 125.721L121.869 123.006C121.993 122.882 122.116 122.882 122.239 122.759C122.239 123.129 122.239 123.746 122.239 127.079C122.239 127.326 122.239 127.45 122.363 127.696H112.25C112.127 127.45 112.25 127.326 112.25 127.079Z" fill="url(#paint1_linear_3568_28781)"/>
<path d="M63.2036 118.625C63.2036 124.426 60.7371 129.61 56.7908 133.313C55.6808 134.301 54.5709 135.165 53.2144 135.906C50.2546 137.634 46.8015 138.621 43.1018 138.621C39.4021 138.621 35.949 137.634 32.9892 135.906C32.4959 135.659 32.126 135.412 31.6327 135.042C26.4531 131.462 23 125.414 23 118.625C23 107.516 32.0026 98.6285 42.9785 98.6285C54.201 98.505 63.2036 107.516 63.2036 118.625Z" fill="#EBE3D7"/>
<path d="M39.0323 123.068C39.279 123.315 39.5256 123.685 39.8956 123.932C40.1422 124.179 40.3889 124.302 40.6355 124.549C40.7589 124.672 41.0055 124.796 41.1288 124.919C41.1288 124.919 41.2522 124.919 41.2522 125.043L41.3755 125.166V126.894C41.3755 126.894 41.3755 126.894 41.2522 126.771C41.1288 126.647 40.8822 126.524 40.7589 126.401C40.5122 126.277 40.2656 126.03 40.0189 125.907C39.8956 125.907 39.8956 125.783 39.7723 125.783C38.909 125.29 38.1691 124.796 38.1691 124.179C38.2924 123.932 38.539 123.562 39.0323 123.068ZM56.1878 132.615C55.4478 131.011 54.4478 129.486 52.7213 128.622C51.858 128.252 50.8714 127.882 49.8848 127.882C49.6382 127.882 49.2682 127.882 49.0216 127.882C48.8982 127.882 48.7749 127.882 48.6516 127.882C47.295 127.758 47.1717 127.511 47.1717 127.511V124.672C48.035 123.932 48.8982 123.068 49.6382 122.204C50.2548 121.34 50.7481 120.352 50.9947 119.118C52.1047 118.871 52.8446 117.884 52.7213 116.649C52.7213 116.156 52.3513 115.662 52.3513 115.168C52.3513 114.921 52.3513 114.674 52.3513 114.427C52.3513 114.304 52.3513 114.057 52.3513 113.934C52.3513 113.81 52.3513 113.563 52.3513 113.44C52.228 112.576 51.9813 111.712 51.488 110.724C50.0082 108.009 47.295 106.281 44.0886 106.281C43.472 106.281 42.8554 106.404 42.2387 106.528C41.1288 106.774 40.0189 107.268 39.1556 108.009C39.0323 108.132 38.7857 108.256 38.6624 108.503L38.539 108.626C37.5524 109.613 36.6892 110.724 36.3192 112.082C35.8259 113.44 35.8259 114.798 35.9492 116.156C35.9492 116.156 35.9492 116.156 35.9492 116.279V116.402C35.9492 116.649 36.0726 116.649 35.9492 116.773C35.9492 116.896 35.8259 116.896 35.8259 117.02C35.5793 117.39 35.4559 117.884 35.7026 118.624C36.1959 119.859 36.9358 119.735 37.7991 120.352C37.7991 120.352 37.6758 120.352 37.6758 120.476L36.8125 120.723C32.8661 121.957 31.5096 125.29 33.2361 127.388C33.8527 128.129 34.8393 128.746 36.3192 129.116C35.9492 129.116 35.5793 129.363 35.3326 129.61C33.6061 130.968 32.4962 133.066 32.2495 135.041C32.2495 135.164 32.2495 135.288 32.2495 135.411C32.7428 135.658 33.1128 136.028 33.6061 136.275L52.9175 135.824C54.1507 135.083 54.6963 134.511 55.8062 133.524C55.6829 132.907 56.3111 132.739 56.1878 132.615Z" fill="white"/>
<path d="M56.7909 133.313C55.681 134.301 54.5711 135.165 53.2145 135.905C50.2547 137.633 46.8017 138.621 43.1019 138.621C39.4022 138.621 35.9491 137.633 32.9894 135.905C32.4961 135.658 32.1261 135.412 31.6328 135.041C31.6328 134.918 31.6328 134.794 31.6328 134.671C31.8795 132.696 32.9894 130.598 34.7159 129.24C34.9626 128.993 35.3325 128.87 35.7025 128.746C34.2226 128.499 33.236 127.882 32.6194 127.018H37.3057C38.6623 128.87 40.7588 129.98 43.2253 129.98C45.3218 129.98 47.1716 129.116 48.5282 127.759C48.6515 127.759 48.7748 127.759 48.8982 127.759C49.1448 127.759 49.3915 127.759 49.7614 127.759C50.748 127.759 51.7346 128.006 52.5979 128.499C54.3244 129.363 55.5577 130.845 56.4209 132.573C56.6676 132.819 56.6676 133.066 56.7909 133.313Z" fill="#B7B4AF"/>
<path d="M47.2953 124.673V127.265L39.5259 127.512L39.8958 125.784C40.0192 125.784 40.0192 125.907 40.1425 125.907C40.3891 126.031 40.6358 126.277 40.8824 126.401C41.0058 126.524 41.1291 126.648 41.3757 126.771C41.3757 126.771 41.4991 126.771 41.4991 126.895V125.167L41.3757 125.043C42.7323 125.784 44.5822 126.277 47.2953 124.673Z" fill="url(#paint2_linear_3568_28781)"/>
<path d="M52.351 113.934C50.8711 114.428 49.1446 114.675 47.5414 114.551C44.9516 114.304 42.4851 113.317 40.5119 111.589C39.8953 113.44 38.2921 114.798 36.4422 115.662C36.1956 115.786 35.949 115.909 35.7023 115.909C35.7023 115.909 35.7023 115.909 35.7023 115.786C35.579 114.428 35.579 113.07 36.0723 111.712C36.4422 110.355 37.3055 109.244 38.2921 108.256L38.4154 108.133C38.5388 108.009 38.7854 107.886 38.9087 107.639C39.772 106.898 40.8819 106.405 41.9918 106.158C42.6084 106.034 43.2251 105.911 43.8417 105.911C47.0481 105.911 49.8846 107.639 51.2411 110.355C51.7344 111.342 51.9811 112.329 52.1044 113.07C52.351 113.564 52.351 113.811 52.351 113.934Z" fill="#676767"/>
<path d="M42.4853 132.203C41.7453 133.067 40.5121 133.067 39.4022 133.067C40.5121 131.956 39.8955 128.376 35.9491 128.746C30.5229 127.759 31.0162 122.081 36.4424 120.353L37.3057 120.106L37.429 120.229C37.799 121.34 38.4156 122.328 39.0322 123.068C36.8124 124.92 39.8955 125.414 41.3754 126.895C42.6086 127.635 43.7185 130.721 42.4853 132.203Z" fill="#676767"/>
<defs>
<linearGradient id="paint0_linear_3568_28781" x1="80.2299" y1="51.3292" x2="80.2299" y2="48.549" gradientUnits="userSpaceOnUse">
<stop stop-color="white" stop-opacity="0"/>
<stop offset="0.9913" stop-color="#DAD6CF"/>
</linearGradient>
<linearGradient id="paint1_linear_3568_28781" x1="117.163" y1="127.531" x2="117.163" y2="124.751" gradientUnits="userSpaceOnUse">
<stop stop-color="white" stop-opacity="0"/>
<stop offset="0.9913" stop-color="#DAD6CF"/>
</linearGradient>
<linearGradient id="paint2_linear_3568_28781" x1="43.3956" y1="127.423" x2="43.3956" y2="125.936" gradientUnits="userSpaceOnUse">
<stop stop-color="white" stop-opacity="0"/>
<stop offset="0.9913" stop-color="#DAD6CF"/>
</linearGradient>
</defs>
</svg>
