<svg xmlns="http://www.w3.org/2000/svg" width="230" height="167" fill="none"><path fill="#F0F0F0" d="M115 132c30.397 0 55-24.641 55-55.044S145.397 22 115 22c-30.308 0-55 24.641-55 55.044S84.692 132 115 132Z"/><path fill="#D2CABF" fill-rule="evenodd" d="M38 133.847a1.5 1.5 0 0 1 1.5-1.5h151.018a1.5 1.5 0 1 1 0 3H39.5a1.5 1.5 0 0 1-1.5-1.5Z" clip-rule="evenodd"/><path fill="#EDE5DA" d="M52.905 70.651c2.052 0 3.658-1.603 3.658-3.653s-1.606-3.653-3.658-3.653c-2.052 0-3.658 1.604-3.658 3.653 0 2.05 1.695 3.653 3.658 3.653ZM49.247 58.8c1.339 0 2.499-1.158 2.499-2.495 0-1.336-1.16-2.495-2.499-2.495-1.338 0-2.498 1.159-2.498 2.495a2.492 2.492 0 0 0 2.498 2.495ZM180.139 79.83a4.605 4.605 0 0 0 4.639-4.634 4.605 4.605 0 0 0-4.639-4.634 4.605 4.605 0 0 0-4.64 4.634 4.605 4.605 0 0 0 4.64 4.633Z"/><g filter="url(#a)"><path fill="#E4E0DA" d="M169.879 123.56h10.158c0 4.983-3.929 9.008-8.625 9.104h-30.857v-9.008h23.287l6.037-.096Z"/><path fill="url(#b)" d="M167.291 130.46a1.325 1.325 0 0 1-.287-.384c-1.054-1.245-1.821-2.97-1.821-4.695v-53.76c-.096-4.984-3.833-8.913-8.625-9.009h-30.761v9.008h-12.458v53.186c.096 1.82.863 3.545 1.917 4.695 4.025 4.121.383 3.163 4.983 3.163h51.748c-1.821-.096-3.45-.959-4.696-2.204Z"/><path fill="url(#c)" d="M156.654 62.612c-1.725 0-3.354 1.054-4.408 2.3-1.054 1.342-1.917 4.025-1.917 5.75v53.185c0 5.079-4.024 9.104-8.912 9.104h-37.836a5 5 0 0 1-5-5v-58.63c.096-1.822.863-3.546 1.917-4.696 1.342-1.342 2.587-2.013 4.504-2.013l43.698-.096 7.667.096h.287Z"/><path fill="#E7EBF0" d="M125.989 41.913c-1.821.096-3.45.958-4.696 2.108-.096.096-.192.192-.287.384-1.055 1.245-1.917 3.066-1.917 4.791v32.007H67.341v-32.39c.096-1.82.862-3.546 1.916-4.696 1.342-1.341 3.067-2.204 5.08-2.204h51.652Z"/><path fill="url(#d)" d="M136.147 130.843c-1.342-1.342-2.013-3.162-2.013-5.079l-.096-74.651c0-4.983-3.833-9.008-8.624-9.104H92.64v9.104H82.099v23.095h.862v51.556c0 2.012.863 3.929 2.013 5.079 1.245 1.437 3.066 2.108 4.887 2.108h51.173c-1.917 0-3.737-.958-4.887-2.108Z"/><path fill="url(#e)" d="M125.318 41.913c-1.917.096-3.642.863-4.887 2.204l-.384.384c-1.15 1.341-1.916 2.97-1.916 4.887v74.364c0 5.174-4.121 9.295-9.2 9.295h-40.04a5 5 0 0 1-5-5V48.909c.096-1.917.863-3.642 2.108-4.888 1.342-1.245 3.163-2.108 5.175-2.108h54.144Z"/><path fill="#D9D2C7" d="M108.931 54.563H95.515a.859.859 0 0 1-.863-.863c0-.479.384-.862.863-.862h13.32a.86.86 0 0 1 .863.862c.095.48-.288.863-.767.863Z"/><path fill="#EDE5DA" d="M89.286 54.563H71.845a.859.859 0 0 1-.863-.863c0-.479.384-.862.863-.862h17.44c.48 0 .863.383.863.862 0 .48-.383.863-.862.863Z"/><path fill="#D9D2C7" d="M100.402 63.283H83.057a.859.859 0 0 1-.862-.862c0-.48.383-.863.862-.863h17.345a.86.86 0 0 1 .863.863c.095.479-.288.862-.863.862Z"/><path fill="#EDE5DA" d="M77.499 63.283h-5.654a.859.859 0 0 1-.863-.862c0-.48.384-.863.863-.863h5.654c.479 0 .862.383.862.863 0 .479-.383.862-.862.862ZM108.931 72.004H98.294a.859.859 0 0 1-.862-.863c0-.48.383-.862.862-.862h10.637a.86.86 0 0 1 .863.862.86.86 0 0 1-.863.862Z"/><path fill="#D9D2C7" d="M93.12 72.004H71.844a.859.859 0 0 1-.863-.863c0-.48.384-.862.863-.862h21.274c.48 0 .862.383.862.862 0 .48-.287.862-.862.862ZM100.402 80.82H88.711a.859.859 0 0 1-.862-.862c0-.48.383-.863.862-.863h11.691a.86.86 0 0 1 .863.863c.096.383-.288.862-.863.862Z"/><path fill="#EDE5DA" d="M83.632 80.82H71.845a.859.859 0 0 1-.863-.862c0-.48.384-.863.863-.863h11.787c.48 0 .862.383.862.863 0 .479-.383.862-.862.862Z"/><path fill="#D9D2C7" d="M108.931 89.54h-8.145a.86.86 0 0 1-.863-.862.86.86 0 0 1 .863-.863h8.145a.86.86 0 0 1 .863.863.86.86 0 0 1-.863.862Z"/><path fill="#EDE5DA" d="M95.42 89.54H81.714a.859.859 0 0 1-.862-.862c0-.48.383-.863.862-.863H95.42c.48 0 .862.384.862.863s-.383.862-.862.862Z"/><path fill="#D9D2C7" d="M76.636 89.54h-4.791a.859.859 0 0 1-.863-.862c0-.48.384-.863.863-.863h4.791c.48 0 .863.384.863.863s-.48.862-.863.862Z"/><path fill="#EDE5DA" d="M108.931 107.173H98.294a.859.859 0 0 1-.862-.862.86.86 0 0 1 .862-.863h10.637a.86.86 0 0 1 .863.863.86.86 0 0 1-.863.862Z"/><path fill="#D9D2C7" d="M93.12 107.173H71.844a.859.859 0 0 1-.863-.862.86.86 0 0 1 .863-.863h21.274a.86.86 0 0 1 .862.863c0 .479-.287.862-.862.862ZM100.402 115.989H88.711a.859.859 0 0 1-.862-.862c0-.479.383-.862.862-.862h11.691a.86.86 0 0 1 .863.862c.096.383-.288.862-.863.862Z"/><path fill="#EDE5DA" d="M83.632 115.989H71.845a.859.859 0 0 1-.863-.862c0-.479.384-.862.863-.862h11.787c.48 0 .862.383.862.862 0 .383-.383.862-.862.862Z"/><path fill="#D9D2C7" d="M100.402 98.26h-8.145a.859.859 0 0 1-.863-.862c0-.479.383-.862.863-.862h8.145a.86.86 0 0 1 .863.862c.095.48-.288.863-.863.863Z"/><path fill="#EDE5DA" d="M86.986 98.26H71.845a.859.859 0 0 1-.863-.862c0-.479.384-.862.863-.862h15.141c.48 0 .862.383.862.862 0 .48-.383.863-.862.863Z"/><path fill="url(#f)" d="M88.807 125.668h11.883c0 2.013.862 3.834 2.108 5.175a7.178 7.178 0 0 0 5.079 2.108H54.5a7.242 7.242 0 0 1-5.08-2.108c-1.34-1.341-2.203-3.162-2.203-5.175h41.59Z"/></g><g filter="url(#g)"><path fill="url(#h)" d="M112.105 119.218c-.412.02-2.548-1.173-2.743-1.539-3.262-6.1-3.941-9.674-3.785-12.31.087-1.462 2.958-1.49 2.958-1.49-.249-.129.063-2.184.098-2.361.24-2.158.446-4.137.864-6.268 2.376-10.702 9.654-20.304 18.113-27.536 1.629-1.31 3.257-2.62 4.922-3.65.85-.603 1.771-1.105 2.621-1.71.709-.503 2.461.486 2.487 1.359.204 6.825.556 11.331 2.361 14.895.522 1.03.18 2.383-.899 2.786-.263.098-.52.187-.777.269-1.427.451-.147 3.418 1.346 3.492 1.186.058.47 1.418.106 2.557-1.117 3.486-4.26 10.211-13.062 18.908-.445.44.489 1.732 1.048 2.007.78.383.264 1.535-.343 2.161-2.831 2.923-9.053 8.491-15.315 8.43Z"/></g><path fill="#777" d="M108.641 133.227c1.477-13.576 2.403-32.26 12.387-49.13 10.02-17.049 18.191-25.145 18.191-25.145l-.739 1.9s-11.812 12.21-18.881 30.523c-7.033 18.135-7.412 31.235-8.092 39.357l-2.866 2.495Z"/><defs><linearGradient id="b" x1="180.037" x2="104.464" y1="87.48" y2="87.48" gradientUnits="userSpaceOnUse"><stop stop-color="#D9D2C7"/><stop offset="1" stop-color="#736F69"/></linearGradient><linearGradient id="c" x1="113.583" x2="113.583" y1="39.805" y2="134.03" gradientUnits="userSpaceOnUse"><stop stop-color="#FDFEFF"/><stop offset=".996" stop-color="#DDD6CB"/></linearGradient><linearGradient id="d" x1="201.888" x2="104.464" y1="87.48" y2="87.48" gradientUnits="userSpaceOnUse"><stop stop-color="#D9D2C7"/><stop offset="1" stop-color="#736F69"/></linearGradient><linearGradient id="e" x1="113.583" x2="113.583" y1="39.805" y2="134.03" gradientUnits="userSpaceOnUse"><stop stop-color="#FDFEFF"/><stop offset=".996" stop-color="#F5F2EC"/></linearGradient><linearGradient id="f" x1="77.527" x2="77.527" y1="125.5" y2="133.03" gradientUnits="userSpaceOnUse"><stop stop-color="#FDFEFF"/><stop offset=".996" stop-color="#F5F2EC"/></linearGradient><linearGradient id="h" x1="114.112" x2="135.587" y1="76.071" y2="106.298" gradientUnits="userSpaceOnUse"><stop stop-color="#FDFEFF"/><stop offset=".996" stop-color="#F5F2EC"/></linearGradient><filter id="a" width="176.82" height="135.134" x="25.217" y="30.913" color-interpolation-filters="sRGB" filterUnits="userSpaceOnUse"><feFlood flood-opacity="0" result="BackgroundImageFix"/><feColorMatrix in="SourceAlpha" result="hardAlpha" values="0 0 0 0 0 0 0 0 0 0 0 0 0 0 0 0 0 0 127 0"/><feOffset dy="11"/><feGaussianBlur stdDeviation="11"/><feColorMatrix values="0 0 0 0 0.576471 0 0 0 0 0.501961 0 0 0 0 0.396078 0 0 0 0.37 0"/><feBlend in2="BackgroundImageFix" result="effect1_dropShadow_6529_5909"/><feBlend in="SourceGraphic" in2="effect1_dropShadow_6529_5909" result="shape"/></filter><filter id="g" width="78.769" height="101" x="83.557" y="47.218" color-interpolation-filters="sRGB" filterUnits="userSpaceOnUse"><feFlood flood-opacity="0" result="BackgroundImageFix"/><feColorMatrix in="SourceAlpha" result="hardAlpha" values="0 0 0 0 0 0 0 0 0 0 0 0 0 0 0 0 0 0 127 0"/><feOffset dy="7"/><feGaussianBlur stdDeviation="11"/><feColorMatrix values="0 0 0 0 0.576471 0 0 0 0 0.501961 0 0 0 0 0.396078 0 0 0 0.57 0"/><feBlend in2="BackgroundImageFix" result="effect1_dropShadow_6529_5909"/><feBlend in="SourceGraphic" in2="effect1_dropShadow_6529_5909" result="shape"/></filter></defs></svg>