<svg width="24" height="24" viewBox="0 0 24 24" fill="none" xmlns="http://www.w3.org/2000/svg">
<path d="M12.28 10.22C12.07 10.01 11.74 9.94 11.46 10.06C11.18 10.18 11 10.45 11 10.75V21.25C11 21.58 11.21 21.87 11.53 21.97C11.84 22.07 12.18 21.95 12.37 21.68L14.84 18.09L19.1 18.99C19.42 19.06 19.76 18.91 19.91 18.61C20.07 18.32 20.02 17.96 19.78 17.72L12.28 10.22Z" fill="#212121"/>
<path d="M20.75 2H18.87C17.84 2 16.99 2.84 16.99 3.88V6L3.88 7C2.85 7 2 7.84 2 8.88V11.76C2 12.45 2.56 13.01 3.25 13.01H3.5V14.76C3.5 15.45 4.06 16.01 4.75 16.01H8.25C8.94 16.01 9.5 15.45 9.5 14.76V11.51H3.5V9.13C3.5 8.79 3.78 8.51 4.12 8.51L17 7.51V11.51H15.68L18.5 14.33V4.12C18.5 3.78 18.78 3.5 19.12 3.5H20.5V16.32L20.84 16.66C21.15 16.97 21.35 17.36 21.44 17.77C21.77 17.55 22 17.18 22 16.75V3.25C22 2.56 21.44 2 20.75 2ZM5 13H8V14.5H5V13Z" fill="#212121"/>
</svg>
