<svg width="24" height="24" viewBox="0 0 24 24" fill="none" xmlns="http://www.w3.org/2000/svg">
<path d="M12.28 10.22C12.07 10.01 11.74 9.94 11.46 10.06C11.18 10.18 11 10.45 11 10.75V21.25C11 21.58 11.21 21.87 11.53 21.97C11.84 22.07 12.18 21.95 12.37 21.68L14.84 18.09L19.1 18.99C19.42 19.06 19.76 18.91 19.91 18.61C20.07 18.32 20.02 17.96 19.78 17.72L12.28 10.22Z" fill="#212121"/>
<path d="M3.5 14.74C3.5 15.43 4.06 15.99 4.75 15.99H8.25C8.94 15.99 9.5 15.43 9.5 14.74V13.49H3.5V14.74Z" fill="#212121"/>
<path d="M13.34 9.16L16.18 12H16.5V6L3.88 7C2.85 7 2 7.84 2 8.88V10.76C2 11.45 2.56 12.01 3.25 12.01H9.5V10.76C9.5 9.85 10.05 9.03 10.89 8.68C11.16 8.57 11.45 8.51 11.75 8.51C12.35 8.51 12.92 8.74 13.34 9.17V9.16Z" fill="#212121"/>
<path d="M20.75 2H19.87C18.84 2 17.99 2.84 17.99 3.88V13.82L20.83 16.66C21.14 16.97 21.34 17.36 21.43 17.77C21.76 17.55 21.99 17.18 21.99 16.75V3.25C21.99 2.56 21.43 2 20.74 2H20.75Z" fill="#212121"/>
</svg>
