<svg width="28" height="28" viewBox="0 0 28 28" fill="none" xmlns="http://www.w3.org/2000/svg">
<path d="M14.31 13.25C14.1 13.02 13.77 12.94 13.48 13.05C13.19 13.16 13 13.44 13 13.75V25.25C13 25.58 13.21 25.87 13.53 25.97C13.85 26.07 14.19 25.95 14.37 25.67L16.89 21.93L21.28 23.02C21.6 23.1 21.93 22.96 22.1 22.68C22.27 22.4 22.23 22.04 22.01 21.79L14.3 13.25H14.31Z" fill="#212121"/>
<path d="M22.25 3C21.01 3 20 4.01 20 5.25V7.5L4.25 8.7C3.01 8.7 2 9.71 2 10.95V14.02C2 14.85 2.67 15.52 3.5 15.52H4V17.5C4 18.33 4.67 19 5.5 19H9.5C10.33 19 11 18.33 11 17.5V15.52H11.5V14H3.5V11C3.5 10.59 3.84 10.25 4.25 10.25L20 9V14H17.01L18.39 15.52H20V17.31L21.5 18.97V5.55C21.5 5.14 21.84 4.8 22.25 4.8H24.5V20.5H22.88L23.14 20.78C23.46 21.13 23.64 21.56 23.7 22H24.51C25.34 22 26.01 21.33 26.01 20.5V4.5C26.01 3.67 25.34 3 24.51 3H22.25ZM5.5 15.53H9.5V17.51H5.5V15.53Z" fill="#212121"/>
</svg>
