<svg width="28" height="28" viewBox="0 0 28 28" fill="none" xmlns="http://www.w3.org/2000/svg">
<path d="M14.3098 12.25C14.0998 12.02 13.7698 11.94 13.4798 12.05C13.1898 12.16 12.9998 12.44 12.9998 12.75V24.25C12.9998 24.58 13.2098 24.87 13.5298 24.97C13.8498 25.07 14.1898 24.95 14.3698 24.67L16.8898 20.93L21.2798 22.02C21.5998 22.1 21.9298 21.96 22.0998 21.68C22.2698 21.4 22.2298 21.04 22.0098 20.79L14.2998 12.25H14.3098Z" fill="#212121"/>
<path d="M3.99977 16.5C3.99977 17.33 4.66977 18 5.49977 18H9.49977C10.3298 18 10.9998 17.33 10.9998 16.5V14.5H3.99977V16.5Z" fill="#212121"/>
<path d="M24.4998 2H23.7498C22.5098 2 21.4998 3.01 21.4998 4.25V17.98L23.1298 19.79C23.4398 20.14 23.6298 20.56 23.6898 21C23.7098 21 23.7298 21 23.7498 21H24.4998C25.3298 21 25.9998 20.33 25.9998 19.5V3.5C25.9998 2.67 25.3298 2 24.4998 2Z" fill="#212121"/>
<path d="M13.7598 10.5C14.3998 10.5 14.9998 10.77 15.4298 11.24L17.0198 13H20.0098V6.5L4.25977 7.7C3.01977 7.7 2.00977 8.71 2.00977 9.95V11.5C2.00977 12.33 2.67977 13 3.50977 13H11.5198V12.75C11.5198 11.83 12.0998 10.98 12.9598 10.65C13.2198 10.55 13.4898 10.5 13.7698 10.5H13.7598Z" fill="#212121"/>
</svg>
