<svg width="20" height="20" viewBox="0 0 20 20" fill="none" xmlns="http://www.w3.org/2000/svg">
<path d="M9.85 9.15C9.71 9.01 9.49 8.96 9.31 9.04C9.12 9.12 9 9.3 9 9.5V16.5C9 16.72 9.14 16.91 9.35 16.98C9.56 17.05 9.78 16.97 9.91 16.79L11.48 14.54L14.42 14.99C14.63 15.02 14.84 14.91 14.94 14.72C15.04 14.53 15 14.29 14.85 14.14L9.85 9.14V9.15Z" fill="#212121"/>
<path d="M10.56 8.44L11.12 9H14V5L3.5 6C2.67 6 2 6.67 2 7.5V8C2 8.55 2.45 9 3 9H8.09C8.23 8.61 8.52 8.28 8.92 8.11C9.1 8.03 9.3 8 9.49 8C9.89 8 10.27 8.16 10.55 8.44H10.56Z" fill="#212121"/>
<path d="M3 11C3 11.55 3.45 12 4 12H6C6.55 12 7 11.55 7 11V10H3V11Z" fill="#212121"/>
<path d="M17 2H16.5C15.67 2 15 2.67 15 3.5V12.5C15 12.66 15.03 12.81 15.08 12.96L15.56 13.44C15.68 13.56 15.77 13.7 15.85 13.84C16.05 13.94 16.27 14 16.5 14H17C17.55 14 18 13.55 18 13V3C18 2.45 17.55 2 17 2Z" fill="#212121"/>
</svg>
