<svg width="16" height="16" viewBox="0 0 16 16" fill="none" xmlns="http://www.w3.org/2000/svg">
<path d="M8.86 8.15C8.72 8 8.5 7.96 8.31 8.03C8.12 8.11 8 8.29 8 8.49V14.49C8 14.71 8.14 14.9 8.34 14.97C8.55 15.04 8.77 14.97 8.9 14.79L10.27 12.88L12.67 13.44C12.89 13.49 13.11 13.39 13.22 13.2C13.33 13.01 13.3 12.77 13.15 12.61L8.87 8.15H8.86Z" fill="#212121"/>
<path d="M2 10C2 10.55 2.45 11 3 11H5C5.55 11 6 10.55 6 10V9H2V10Z" fill="#212121"/>
<path d="M8.59 7C9 7 9.39 7.17 9.67 7.46L10.19 8H11V4L2.5 5C1.67 5 1 5.67 1 6.5V7C1 7.55 1.45 8 2 8H7.18C7.32 7.6 7.62 7.27 8.03 7.11C8.21 7.04 8.4 7 8.59 7Z" fill="#212121"/>
<path d="M13.5 2C12.67 2 12 2.67 12 3.5V9.88L13.96 11.91C13.96 11.91 13.99 11.97 14.02 11.99C14.57 11.99 15.01 11.54 15.01 10.99V3C15.01 2.45 14.56 2 14.01 2H13.5Z" fill="#212121"/>
</svg>
