<svg width="48" height="48" viewBox="0 0 48 48" fill="none" xmlns="http://www.w3.org/2000/svg">
<path d="M22.13 19.37C21.77 19.01 21.23 18.91 20.77 19.1C20.3 19.29 20 19.75 20 20.25V41.75C20 42.3 20.36 42.78 20.88 42.95C21.41 43.11 21.97 42.91 22.28 42.46L27.24 35.13C27.42 34.87 27.74 34.75 28.05 34.82L36.44 36.97C36.99 37.11 37.56 36.87 37.84 36.38C38.12 35.89 38.04 35.28 37.64 34.88L22.13 19.37Z" fill="#212121"/>
<path d="M42 4H37C34.93 4 34 4.93 34 7V12L7 14C4.88 14.25 4 14.93 4 17V23C4 24.38 4.62 25 6 25H7V28C7 29.38 7.62 30 9 30H15C16.38 30 17 29.38 17 28V25H18V23H6V17.33C6 16.64 6.56 16 7.25 16L34 14V23H28.6L30.6 25H34V28.4L36 30.4V7C36 6.31 36.31 6 37 6H42V33H38.6L39.05 33.45C39.49 33.89 39.77 34.43 39.9 35H42C43.38 35 44 34.75 44 33.38V6C44 4.62 43.38 4 42 4ZM9 25H15V28H9V25Z" fill="#212121"/>
</svg>
