<svg width="16" height="16" viewBox="0 0 16 16" fill="none" xmlns="http://www.w3.org/2000/svg">
<path d="M8.86 8.15C8.72 8 8.5 7.96 8.31 8.03C8.12 8.11 8 8.29 8 8.49V14.49C8 14.71 8.14 14.9 8.34 14.97C8.55 15.04 8.77 14.97 8.9 14.79L10.27 12.88L12.67 13.44C12.89 13.49 13.11 13.39 13.22 13.2C13.33 13.01 13.3 12.77 13.15 12.61L8.87 8.15H8.86Z" fill="#212121"/>
<path d="M12.5 2C11.67 2 11 2.67 11 3.5V4L2.5 5C1.67 5 1 5.67 1 6.5V8C1 8.55 1.45 9 2 9V10C2 10.55 2.45 11 3 11H5C5.55 11 6 10.55 6 10V9H7.09V8.5C7.09 8.33 7.13 8.16 7.18 8H2V6.5C2 6.22 2.22 6 2.5 6L11 5V8H10.19L12 9.88V3.5C12 3.22 12.22 3 12.5 3H14V11H13.08L13.96 11.92C13.96 11.92 13.99 11.98 14.02 12C14.57 12 15.01 11.55 15.01 11V3C15.01 2.45 14.56 2 14.01 2H12.5ZM3 9H5V10H3V9Z" fill="#212121"/>
</svg>
