<svg width="20" height="20" viewBox="0 0 20 20" fill="none" xmlns="http://www.w3.org/2000/svg">
<path d="M9.85 9.15C9.71 9.01 9.49 8.96 9.31 9.04C9.12 9.12 9 9.3 9 9.5V16.5C9 16.72 9.14 16.91 9.35 16.98C9.56 17.05 9.78 16.97 9.91 16.79L11.48 14.54L14.42 14.99C14.63 15.02 14.84 14.91 14.94 14.72C15.04 14.53 15 14.29 14.85 14.14L9.85 9.14V9.15Z" fill="#212121"/>
<path d="M17 2H15.5C14.67 2 14 2.67 14 3.5V5.05L3.5 6C2.67 6 2 6.67 2 7.5V9C2 9.55 2.45 10 3 10V11C3 11.55 3.45 12 4 12H6C6.55 12 7 11.55 7 11V10H8V9.5C8 9.32 8.04 9.16 8.09 9H3V7.5C3 7.22 3.22 7 3.5 7L14 6.05V9H11.12L12.12 10H14V11.88L15.56 13.44C15.72 13.6 15.82 13.8 15.9 14H17C17.55 14 18 13.55 18 13V3C18 2.45 17.55 2 17 2ZM4 10H6V11H4V10ZM17 13H15.5C15.22 13 15 12.78 15 12.5V3.5C15 3.22 15.22 3 15.5 3H17V13Z" fill="#212121"/>
</svg>
