<svg width="28" height="28" viewBox="0 0 28 28" fill="none" xmlns="http://www.w3.org/2000/svg">
<path d="M6 4.25C3.92893 4.25 2.25 5.92893 2.25 8V20C2.25 22.0711 3.92893 23.75 6 23.75H22C24.0711 23.75 25.75 22.0711 25.75 20V8C25.75 5.92893 24.0711 4.25 22 4.25H6ZM7 8L3.75 8C3.75 6.75736 4.75736 5.75 6 5.75H7V8ZM3.75 9.5L7 9.5V13L3.75 13V9.5ZM3.75 14.5L7 14.5V18L3.75 18V14.5ZM3.75 19.5L7 19.5V22.25H6C4.75736 22.25 3.75 21.2426 3.75 20V19.5ZM22 22.25H21V19.5L24.25 19.5V20C24.25 21.2426 23.2426 22.25 22 22.25ZM24.25 18L21 18V14.5L24.25 14.5V18ZM24.25 13L21 13V9.5L24.25 9.5V13ZM24.25 8L21 8V5.75H22C23.2426 5.75 24.25 6.75736 24.25 8Z" fill="#212121"/>
</svg>
