<svg width="28" height="28" viewBox="0 0 28 28" fill="none" xmlns="http://www.w3.org/2000/svg">
<path d="M2.25 8C2.25 5.92893 3.92893 4.25 6 4.25H22C24.0711 4.25 25.75 5.92893 25.75 8V20C25.75 22.0711 24.0711 23.75 22 23.75H6C3.92893 23.75 2.25 22.0711 2.25 20V8ZM3.75 8L7 8V5.75H6C4.75736 5.75 3.75 6.75736 3.75 8ZM7 9.5L3.75 9.5V13L7 13V9.5ZM7 14.5L3.75 14.5V18L7 18V14.5ZM7 19.5L3.75 19.5V20C3.75 21.2426 4.75736 22.25 6 22.25H7V19.5ZM19.5 22.25V5.75H8.5V22.25H19.5ZM21 22.25H22C23.2426 22.25 24.25 21.2426 24.25 20V19.5L21 19.5V22.25ZM21 18L24.25 18V14.5L21 14.5V18ZM21 13L24.25 13V9.5L21 9.5V13ZM21 8L24.25 8C24.25 6.75736 23.2426 5.75 22 5.75H21V8Z" fill="#212121"/>
</svg>
