<svg width="48" height="48" viewBox="0 0 48 48" fill="none" xmlns="http://www.w3.org/2000/svg">
<path d="M9 7.75C6.10051 7.75 3.75 10.1005 3.75 13V37C3.75 39.8995 6.10051 42.25 9 42.25H39C41.8995 42.25 44.25 39.8995 44.25 37V13C44.25 10.1005 41.8995 7.75 39 7.75H9ZM6.25 13C6.25 11.4812 7.48122 10.25 9 10.25H12V16L6.25 16V13ZM6.25 18.5L12 18.5V24L6.25 24V18.5ZM6.25 26.5L12 26.5V32L6.25 32V26.5ZM6.25 37V34.5L12 34.5V39.75H9C7.48122 39.75 6.25 38.5188 6.25 37ZM39 39.75H36.25V34.5L41.75 34.5V37C41.75 38.5188 40.5188 39.75 39 39.75ZM41.75 32L36.25 32V26.5L41.75 26.5V32ZM41.75 24L36.25 24V18.5L41.75 18.5V24ZM41.75 16L36.25 16V10.25H39C40.5188 10.25 41.75 11.4812 41.75 13V16Z" fill="#212121"/>
</svg>
