<svg width="48" height="48" viewBox="0 0 48 48" fill="none" xmlns="http://www.w3.org/2000/svg">
<path d="M3.75 13C3.75 10.1005 6.10051 7.75 9 7.75H39C41.8995 7.75 44.25 10.1005 44.25 13V37C44.25 39.8995 41.8995 42.25 39 42.25H9C6.10051 42.25 3.75 39.8995 3.75 37V13ZM9 10.25C7.48122 10.25 6.25 11.4812 6.25 13V16L12 16V10.25H9ZM12 18.5L6.25 18.5V24L12 24V18.5ZM6.25 32L12 32V26.5L6.25 26.5V32ZM6.25 34.5V37C6.25 38.5188 7.48122 39.75 9 39.75H12V34.5L6.25 34.5ZM33.75 39.75V10.25H14.5V39.75H33.75ZM36.25 39.75H39C40.5188 39.75 41.75 38.5188 41.75 37V34.5L36.25 34.5V39.75ZM36.25 32L41.75 32V26.5L36.25 26.5V32ZM36.25 24L41.75 24V18.5L36.25 18.5V24ZM36.25 16L41.75 16V13C41.75 11.4812 40.5188 10.25 39 10.25H36.25V16Z" fill="#212121"/>
</svg>
