<svg xmlns="http://www.w3.org/2000/svg" width="230" height="160" fill="none" viewBox="0 0 230 160">
  <path fill="#F0F0F0" d="M115.755 145.38c36.124 0 65.42-29.076 65.42-64.98 0-35.9042-29.296-64.98-65.42-64.98-36.1245 0-65.4205 29.0758-65.4205 64.98 0 35.904 29.296 64.98 65.4205 64.98Z"/>
  <path fill="#EBE2D7" d="M179.504 49.3418c2.494 0 4.516-2.0217 4.516-4.5156 0-2.4938-2.022-4.5155-4.516-4.5155s-4.515 2.0217-4.515 4.5155c0 2.4939 2.021 4.5156 4.515 4.5156ZM174.988 34.6936c1.703 0 3.084-1.3807 3.084-3.0838s-1.381-3.0838-3.084-3.0838-3.083 1.3807-3.083 3.0838 1.38 3.0838 3.083 3.0838ZM50.095 44.8263c1.7032 0 3.0838-1.3807 3.0838-3.0838s-1.3806-3.0838-3.0838-3.0838c-1.7031 0-3.0838 1.3807-3.0838 3.0838s1.3807 3.0838 3.0838 3.0838ZM43.1562 112.67c3.163 0 5.7271-2.564 5.7271-5.727 0-3.163-2.5641-5.727-5.7271-5.727-3.1629 0-5.727 2.564-5.727 5.727 0 3.163 2.5641 5.727 5.727 5.727Z"/>
  <path fill="url(#paint0_linear_3840_781)" d="M176.027 64.3125v60.2425c-.123 3.443-1.721 6.393-4.18 8.484-2.09 1.844-4.918 3.073-7.992 3.073H67.5899c-2.09 0-4.0572-.492-5.7784-1.475-.7376-.369-1.4753-.861-2.09-1.476-1.3524-1.106-2.5819-2.704-3.1966-4.426-.4918-1.229-.8606-2.581-.8606-3.934V64.3125s5.0407-4.3031 12.2944-10.2044C75.4584 47.8379 85.2939 39.7236 93.9 32.5928c4.9178-4.1801 4.426-3.6883 12.049-10.0815 5.778-4.9177 14.261-4.9177 20.039 0 1.476 1.2295 3.074 2.7048 4.549 3.9343 3.197 2.5818 6.639 5.5325 10.328 8.6061 7.745 6.3931 16.228 13.5239 22.867 19.0564 6.762 5.5325 11.68 9.7126 12.295 10.2044Z"/>
  <path fill="#D0C6B8" d="M163.732 53.9849v21.3923l-21.023 12.6633-6.27 3.8113-13.278 7.9914-6.271 3.8108-2.704 1.599-2.582-1.599-5.902-3.8108-12.6628-7.9914-5.9013-3.8113L67.7126 75.869V54.1078c7.4997-6.2701 17.3352-14.3845 25.9413-21.5153l47.0881 2.336c7.868 6.516 16.351 13.5239 22.99 19.0564Z"/>
  <path fill="url(#paint1_linear_3840_781)" d="M159.552 37.0187v35.1926a4.274 4.274 0 0 1-2.086 3.672l-17.093 10.1903-5.656 3.4425-12.171 7.1308-5.655 3.4421-.345.19a4.2746 4.2746 0 0 1-4.202-.046l-.248-.144-5.41-3.4421-11.5566-7.1308-5.4095-3.4425-15.6948-9.8092a4.275 4.275 0 0 1-2.0092-3.6252V37.0187c0-3.9342 3.1965-7.1307 7.2537-7.1307h73.0294c3.934-.123 7.253 3.1965 7.253 7.1307Z"/>
  <path fill="url(#paint2_linear_3840_781)" d="m56.156 64.0667 57.784 3.8112 61.226-3.8112-2.336 10.942s-57.538 29.9983-57.169 29.9983c.369 0-59.382-35.5308-59.382-35.5308l-.123-5.4095Z" opacity=".5"/>
  <path fill="#738DFF" d="M176.027 64.3125v60.2425c-.123 3.443-1.721 6.393-4.18 8.484-2.09 1.844-4.918 3.073-7.992 3.073H67.5899c-2.09 0-4.0572-.492-5.7784-1.475-.7376-.369-1.4753-.861-2.09-1.476-1.3524-1.106-2.5819-2.704-3.1966-4.426-.4918-1.229-.8606-2.581-.8606-3.934V64.3125l53.8497 33.6868 4.672 2.9507 1.598-.9836 1.475-.8606 58.768-34.7933Z"/>
  <g filter="url(#filter0_d_3840_781)">
    <path fill="url(#paint3_linear_3840_781)" d="M171.97 133.039c-2.09 1.844-4.918 3.073-7.992 3.073H67.5899c-2.09 0-4.0572-.492-5.7784-1.475-.7376-.369-1.4753-.861-2.09-1.476-1.3524-1.106-2.5819-2.704-3.1966-4.426-.4918-1.229-.8606-2.581-.8606-3.934V64.3125l6.2702 3.8113 53.8495 31.8426 1.475.8606.123.123 48.318 28.523 6.27 3.566Z"/>
  </g>
  <path fill="url(#paint4_linear_3840_781)" d="M117.259 98.9829v4.1801l-55.4475 31.474c-.7377-.369-1.4753-.861-2.09-1.476-1.3524-1.106-2.5819-2.704-3.1966-4.426l53.9721-31.9651 4.672 2.9507.615.2459 1.475-.9836Z"/>
  <path stroke="#fff" stroke-miterlimit="10" stroke-width=".855" d="m55.6643 64.3125 60.1197 35.6539"/>
  <g filter="url(#filter1_d_3840_781)">
    <path fill="url(#paint5_linear_3840_781)" d="M176.027 64.3125v60.2425c-.123 3.443-1.721 6.393-4.18 8.484-2.09 1.844-4.918 3.073-7.992 3.073H67.5899c-2.0901 0-4.0572-.492-5.7784-1.475-.7377-.369-1.4753-.861-2.0901-1.476l6.1473-3.688 48.3173-28.523 1.598-.9836 1.475-.8606 52.375-31.105 6.393-3.6883Z"/>
  </g>
  <path stroke="#fff" stroke-miterlimit="10" stroke-width=".855" d="m176.027 64.3125-58.768 34.6704-1.475.9835-1.598.9836-54.4646 32.089"/>
  <path fill="#EDE5DA" d="M161.519 106.482h-31.965c-.738 0-1.353-.614-1.353-1.352 0-.738.615-1.352 1.353-1.352h31.965c.738 0 1.353.614 1.353 1.352.123.738-.492 1.352-1.353 1.352ZM161.519 115.703h-31.965c-.738 0-1.353-.614-1.353-1.352 0-.738.615-1.352 1.353-1.352h31.965c.738 0 1.353.614 1.353 1.352.123.738-.492 1.352-1.353 1.352Z"/>
  <path fill="url(#paint6_linear_3840_781)" d="M112.707 76.8926c-.953 0-1.849-.3502-2.578-1.109L97.7414 62.8845c-1.4013-1.4592-1.4013-3.9106 0-5.3698 1.4013-1.4591 3.7556-1.4591 5.1566 0l9.809 10.2143 23.094-23.9889c1.401-1.4591 3.755-1.4591 5.156 0 1.402 1.4592 1.402 3.9106 0 5.3698l-25.671 26.6737c-.673.7588-1.626 1.109-2.579 1.109Z"/>
  <defs>
    <linearGradient id="paint0_linear_3840_781" x1="115.806" x2="115.806" y1="16.11" y2="137.377" gradientUnits="userSpaceOnUse">
      <stop stop-color="#ECE3D7"/>
      <stop offset=".9964" stop-color="#BFB3A2"/>
    </linearGradient>
    <linearGradient id="paint1_linear_3840_781" x1="115.756" x2="115.756" y1="28.2295" y2="102.213" gradientUnits="userSpaceOnUse">
      <stop stop-color="#FDFEFF"/>
      <stop offset=".9964" stop-color="#F5F2EC"/>
    </linearGradient>
    <linearGradient id="paint2_linear_3840_781" x1="115.608" x2="115.608" y1="117.987" y2="66.8255" gradientUnits="userSpaceOnUse">
      <stop stop-color="#938065"/>
      <stop offset="1" stop-color="#938065" stop-opacity="0"/>
    </linearGradient>
    <linearGradient id="paint3_linear_3840_781" x1="113.779" x2="113.779" y1="62.6517" y2="136.886" gradientUnits="userSpaceOnUse">
      <stop stop-color="#FDFEFF"/>
      <stop offset=".9964" stop-color="#F5F2EC"/>
    </linearGradient>
    <linearGradient id="paint4_linear_3840_781" x1="90.3603" x2="85.646" y1="119.171" y2="112.271" gradientUnits="userSpaceOnUse">
      <stop stop-color="#EDE5DA"/>
      <stop offset="1" stop-color="#EDE5DA" stop-opacity="0"/>
    </linearGradient>
    <linearGradient id="paint5_linear_3840_781" x1="117.836" x2="117.836" y1="62.6517" y2="136.886" gradientUnits="userSpaceOnUse">
      <stop stop-color="#FDFEFF"/>
      <stop offset=".9964" stop-color="#F5F2EC"/>
    </linearGradient>
    <linearGradient id="paint6_linear_3840_781" x1="118.929" x2="119.353" y1="37.4471" y2="63.0578" gradientUnits="userSpaceOnUse">
      <stop stop-color="#E1DAD0"/>
      <stop offset="1" stop-color="#CCC1B1"/>
    </linearGradient>
    <filter id="filter0_d_3840_781" width="136.825" height="92.3197" x="45.4043" y="57.4725" color-interpolation-filters="sRGB" filterUnits="userSpaceOnUse">
      <feFlood flood-opacity="0" result="BackgroundImageFix"/>
      <feColorMatrix in="SourceAlpha" result="hardAlpha" values="0 0 0 0 0 0 0 0 0 0 0 0 0 0 0 0 0 0 127 0"/>
      <feOffset dy="3.42"/>
      <feGaussianBlur stdDeviation="5.13"/>
      <feColorMatrix values="0 0 0 0 0.576471 0 0 0 0 0.501961 0 0 0 0 0.396078 0 0 0 0.22 0"/>
      <feBlend in2="BackgroundImageFix" result="effect1_dropShadow_3840_781"/>
      <feBlend in="SourceGraphic" in2="effect1_dropShadow_3840_781" result="shape"/>
    </filter>
    <filter id="filter1_d_3840_781" width="136.825" height="92.3197" x="49.4614" y="57.4725" color-interpolation-filters="sRGB" filterUnits="userSpaceOnUse">
      <feFlood flood-opacity="0" result="BackgroundImageFix"/>
      <feColorMatrix in="SourceAlpha" result="hardAlpha" values="0 0 0 0 0 0 0 0 0 0 0 0 0 0 0 0 0 0 127 0"/>
      <feOffset dy="3.42"/>
      <feGaussianBlur stdDeviation="5.13"/>
      <feColorMatrix values="0 0 0 0 0.576471 0 0 0 0 0.501961 0 0 0 0 0.396078 0 0 0 0.22 0"/>
      <feBlend in2="BackgroundImageFix" result="effect1_dropShadow_3840_781"/>
      <feBlend in="SourceGraphic" in2="effect1_dropShadow_3840_781" result="shape"/>
    </filter>
  </defs>
</svg>
