<svg width="230" height="160" viewBox="0 0 230 160" fill="none" xmlns="http://www.w3.org/2000/svg">
<path d="M169.779 70.8894C169.779 84.3084 164.997 96.514 157.002 106.079C146.938 118.141 131.806 125.779 114.818 125.779C98.5439 125.779 83.9829 118.712 73.9186 107.506C65.2819 97.7988 60 84.9508 60 70.8894C60 40.5539 84.5539 16 114.889 16C145.225 16 169.779 40.5539 169.779 70.8894Z" fill="#242424"/>
<path d="M157.074 106.079C147.009 118.141 131.877 125.779 114.889 125.779C98.6153 125.779 84.0542 118.712 73.99 107.506C75.7031 106.15 77.8444 104.937 80.4854 103.866L82.4839 103.081C86.2669 101.582 91.192 99.726 97.8301 96.9423C99.3291 96.2999 100.542 95.1579 101.185 93.6589C101.542 92.8738 101.756 91.9459 101.756 91.018V78.6696C101.542 78.3841 101.328 78.17 101.185 77.8845C100.114 76.3142 99.4004 74.4583 99.1863 72.4598L98.1156 71.9601C94.9036 72.7453 95.1178 69.3192 94.3326 62.7524C93.9757 60.0401 94.404 59.469 95.6174 59.0408L96.6167 57.6846C90.4782 43.766 93.5475 35.0579 99.6146 31.9886C97.616 27.5632 97.4732 25.9929 97.4732 25.9929C97.4732 25.9929 110.393 28.1342 114.889 27.2777C120.528 26.1357 129.236 27.4919 132.448 34.9865C137.802 37.1278 139.943 40.4826 140.371 44.1942C141.156 50.0472 137.802 56.4712 137.159 58.9694C137.231 59.1122 137.302 59.1835 137.302 59.2549C138.159 59.6832 138.444 60.3969 138.159 62.7524C137.373 68.9623 137.587 72.8167 134.375 71.9601L131.52 76.9566C131.378 77.5276 131.378 77.7417 131.306 78.17C131.163 79.0979 131.235 80.9537 131.235 91.1607C131.235 92.3741 131.592 93.5162 132.234 94.5868C132.948 95.6575 133.947 96.5854 135.232 97.0851C135.232 97.0851 135.303 97.0851 135.375 97.1564C142.727 100.226 148.009 102.224 151.863 103.723C153.862 104.366 155.575 105.222 157.074 106.079Z" fill="#A1A1A1"/>
<path d="M137.302 58.898C137.587 57.3277 136.874 55.4005 136.303 54.0443C136.231 53.8302 136.088 53.6161 136.017 53.3306C133.519 48.3341 128.023 46.3356 122.741 46.05C109.25 45.3363 108.037 47.9059 103.826 44.0515C105.111 46.05 105.253 49.1193 103.255 52.9737C101.827 55.686 99.1149 56.8994 96.7594 57.6846C90.6209 43.766 93.6902 35.0579 99.7573 31.9886C97.7587 27.5632 97.6159 25.9929 97.6159 25.9929C97.6159 25.9929 110.535 28.1342 114.961 27.2777C120.6 26.1357 129.308 27.4919 132.52 34.9865C137.873 37.1278 139.943 40.4826 140.443 44.1942C141.228 49.9758 137.944 56.3284 137.302 58.898Z" fill="#3A3A3A"/>
<path d="M132.377 94.444V96.8709H101.185V93.7303C101.542 92.9451 101.756 92.0172 101.756 91.0893V78.6696C101.542 78.3841 101.328 78.1699 101.185 77.8844V77.1707C101.827 78.3127 102.684 79.3834 103.754 80.2399L113.533 87.0208C115.817 88.948 119.101 89.0193 121.456 87.1635L130.592 78.9551C130.878 78.6696 131.235 78.3841 131.52 78.0986C131.378 79.0265 131.449 80.8823 131.449 91.0893C131.378 92.3027 131.734 93.5161 132.377 94.444Z" fill="url(#paint0_linear_3568_28724)"/>
<path d="M136.713 127.13C136.298 128.891 135.677 130.756 134.952 132.309C132.984 136.142 129.876 139.146 126.044 141.114C122.107 143.082 117.446 143.911 112.785 142.875C101.805 140.596 94.7617 129.823 97.0405 118.844C99.3193 107.864 109.988 100.717 120.968 103.099C124.904 103.928 128.322 105.896 131.223 108.589C136.091 113.457 138.163 120.501 136.713 127.13Z" fill="#242424" stroke="#464646" stroke-miterlimit="10"/>
<path d="M123.35 121.226H118.689V116.565C118.689 115.632 117.964 114.804 116.928 114.804C115.996 114.804 115.167 115.529 115.167 116.565V121.226H110.506C109.574 121.226 108.745 121.951 108.745 122.987C108.745 124.023 109.47 124.748 110.506 124.748H115.167V129.409C115.167 130.341 115.893 131.17 116.928 131.17C117.861 131.17 118.689 130.445 118.689 129.409V124.748H123.35C124.283 124.748 125.111 124.023 125.111 122.987C125.111 121.951 124.283 121.226 123.35 121.226Z" fill="#F8F7F4"/>
<defs>
<linearGradient id="paint0_linear_3568_28724" x1="116.721" y1="96.2574" x2="116.721" y2="85.9384" gradientUnits="userSpaceOnUse">
<stop stop-color="#A1A1A1"/>
<stop offset="0.9913" stop-color="#8A8A8A"/>
</linearGradient>
</defs>
</svg>
