<svg width="230" height="160" viewBox="0 0 230 160" fill="none" xmlns="http://www.w3.org/2000/svg">
<path d="M169.779 70.8894C169.779 84.3084 164.997 96.514 157.002 106.079C146.938 118.141 131.806 125.779 114.818 125.779C98.5439 125.779 83.9829 118.712 73.9186 107.506C65.2819 97.7988 60 84.9508 60 70.8894C60 40.5539 84.5539 16 114.889 16C145.225 16 169.779 40.5539 169.779 70.8894Z" fill="#EBEBEB"/>
<g filter="url(#filter0_d_3568_28692)">
<path d="M151.863 103.723C154.707 104.637 155.323 108.197 153.181 110.279C143.3 119.887 129.811 125.779 114.889 125.779C100.532 125.779 87.5082 120.279 77.7289 111.289C75.6061 109.337 75.9187 105.982 78.5181 104.734C79.1406 104.435 79.796 104.145 80.4854 103.866L82.4839 103.081C86.2669 101.582 91.192 99.726 97.8301 96.9423C99.3291 96.2999 100.542 95.1579 101.185 93.6589C101.542 92.8738 101.756 91.9459 101.756 91.018V79.6423C101.756 79.0109 101.467 78.4492 101.185 77.8845C100.244 76.5047 99.5789 74.9045 99.2861 73.1807C99.2104 72.7353 98.9361 72.343 98.5267 72.152C98.2607 72.0278 97.9586 72.0075 97.6675 72.0454C94.9222 72.4018 95.0793 68.9972 94.3326 62.7524C94.0345 60.4865 94.2843 59.715 95.082 59.2728C95.4148 59.0883 95.7381 58.877 95.9638 58.5707C96.3676 58.0227 96.443 57.2976 96.1813 56.6692C91.3849 45.1529 93.0223 37.3461 97.3744 33.5054C98.512 32.5015 98.4125 29.2359 97.9403 27.7941C97.3626 26.0301 99.2609 26.2804 101.1 26.5315C105.269 27.1007 111.918 27.8437 114.889 27.2777C120.034 26.2358 127.734 27.2733 131.483 33.1551C132.196 34.2733 133.158 35.2311 134.328 35.8551C138.316 37.9818 139.997 40.9518 140.371 44.1942C141.145 49.9602 137.9 56.2803 137.19 58.8554C137.169 58.9307 137.195 59.0377 137.236 59.1042C137.301 59.2087 137.373 59.2876 137.478 59.352C138.197 59.794 138.424 60.5659 138.159 62.7524C137.758 65.9195 137.618 68.4738 137.15 70.1031C136.524 72.2841 133.591 73.3324 132.466 75.3025L131.863 76.3577C131.636 76.7551 131.451 77.1797 131.384 77.6325C131.359 77.8047 131.341 77.9621 131.306 78.17C131.163 79.0979 131.235 80.9537 131.235 91.1607C131.235 92.3741 131.592 93.5162 132.234 94.5868C132.934 95.6369 133.909 96.5496 135.158 97.0557C135.207 97.0754 135.225 97.0772 135.275 97.0933C135.327 97.1102 135.402 97.1676 135.453 97.1889C142.764 100.24 148.022 102.23 151.863 103.723Z" fill="url(#paint0_linear_3568_28692)"/>
</g>
<path d="M137.302 58.898C137.587 57.3277 136.874 55.4005 136.303 54.0443C136.231 53.8302 136.088 53.6161 136.017 53.3306C133.519 48.3341 128.023 46.3356 122.741 46.05C109.25 45.3363 108.037 47.9059 103.826 44.0515C105.111 46.05 105.253 49.1193 103.255 52.9737C101.827 55.686 99.1149 56.8994 96.7594 57.6846C90.6209 43.766 93.6902 35.0579 99.7573 31.9886C97.7587 27.5632 97.6159 25.9929 97.6159 25.9929C97.6159 25.9929 110.535 28.1342 114.961 27.2777C120.6 26.1357 129.308 27.4919 132.52 34.9865C137.873 37.1278 139.943 40.4826 140.443 44.1942C141.228 49.9758 137.944 56.3284 137.302 58.898Z" fill="#676767"/>
<path d="M132.377 94.4441V96.871H101.185V93.7303C101.542 92.9452 101.756 92.0173 101.756 91.0894V78.6697C101.542 78.3841 101.328 78.17 101.185 77.8845V77.1707C101.827 78.3128 102.684 79.3834 103.754 80.24L113.533 87.0208C115.817 88.948 119.101 89.0194 121.456 87.1636L130.592 78.9552C130.878 78.6696 131.235 78.3841 131.52 78.0986C131.378 79.0265 131.449 80.8824 131.449 91.0894C131.378 92.3028 131.734 93.5162 132.377 94.4441Z" fill="url(#paint1_linear_3568_28692)"/>
<path d="M112.893 142.387L112.893 142.387L112.887 142.385C102.178 140.163 95.3072 129.656 97.53 118.945C99.754 108.23 110.161 101.266 120.862 103.588L120.865 103.588C124.695 104.395 128.032 106.31 130.876 108.949C135.619 113.697 137.636 120.562 136.225 127.019C135.818 128.748 135.209 130.574 134.503 132.089C132.585 135.819 129.559 138.746 125.817 140.668C121.971 142.591 117.428 143.394 112.893 142.387Z" fill="#DEDBD5" stroke="#F0F0F0"/>
<path d="M123.35 121.226H118.689V116.565C118.689 115.632 117.964 114.804 116.928 114.804C115.996 114.804 115.167 115.529 115.167 116.565V121.226H110.506C109.574 121.226 108.745 121.951 108.745 122.987C108.745 124.023 109.47 124.748 110.506 124.748H115.167V129.409C115.167 130.341 115.893 131.17 116.928 131.17C117.861 131.17 118.689 130.445 118.689 129.409V124.748H123.35C124.283 124.748 125.111 124.023 125.111 122.987C125.111 121.951 124.283 121.226 123.35 121.226Z" fill="white"/>
<defs>
<filter id="filter0_d_3568_28692" x="54.3286" y="15.3544" width="122.133" height="143.424" filterUnits="userSpaceOnUse" color-interpolation-filters="sRGB">
<feFlood flood-opacity="0" result="BackgroundImageFix"/>
<feColorMatrix in="SourceAlpha" type="matrix" values="0 0 0 0 0 0 0 0 0 0 0 0 0 0 0 0 0 0 127 0" result="hardAlpha"/>
<feOffset dy="11"/>
<feGaussianBlur stdDeviation="11"/>
<feColorMatrix type="matrix" values="0 0 0 0 0.576471 0 0 0 0 0.501961 0 0 0 0 0.396078 0 0 0 0.37 0"/>
<feBlend mode="normal" in2="BackgroundImageFix" result="effect1_dropShadow_3568_28692"/>
<feBlend mode="normal" in="SourceGraphic" in2="effect1_dropShadow_3568_28692" result="shape"/>
</filter>
<linearGradient id="paint0_linear_3568_28692" x1="115.505" y1="23.6848" x2="115.505" y2="126.855" gradientUnits="userSpaceOnUse">
<stop stop-color="#FDFEFF"/>
<stop offset="0.9964" stop-color="#F5F2EC"/>
</linearGradient>
<linearGradient id="paint1_linear_3568_28692" x1="116.721" y1="96.2575" x2="116.721" y2="85.9384" gradientUnits="userSpaceOnUse">
<stop stop-color="white" stop-opacity="0"/>
<stop offset="0.9913" stop-color="#DAD6CF"/>
</linearGradient>
</defs>
</svg>
