<svg width="160" height="161" viewBox="0 0 160 161" fill="none" xmlns="http://www.w3.org/2000/svg">
<path d="M134.779 71.3894C134.779 84.8084 129.997 97.014 122.002 106.579C111.938 118.641 96.8059 126.279 79.818 126.279C63.5439 126.279 48.9829 119.212 38.9186 108.006C30.2819 98.2988 25 85.4508 25 71.3894C25 41.0539 49.5539 16.5 79.8894 16.5C110.225 16.5 134.779 41.0539 134.779 71.3894Z" fill="#242424"/>
<path d="M122.074 106.579C112.01 118.641 96.8775 126.279 79.8896 126.279C63.6155 126.279 49.0545 119.212 38.9902 108.006C40.7033 106.65 42.8446 105.437 45.4856 104.366L47.4842 103.581C51.2672 102.082 56.1922 100.226 62.8304 97.4423C64.3293 96.7999 65.5427 95.6579 66.1851 94.1589C66.542 93.3738 66.7561 92.4459 66.7561 91.518V79.1696C66.542 78.8841 66.3279 78.67 66.1851 78.3845C65.1145 76.8142 64.4007 74.9583 64.1865 72.9598L63.1159 72.4601C59.9039 73.2453 60.118 69.8192 59.3329 63.2524C58.976 60.5401 59.4042 59.969 60.6177 59.5408L61.6169 58.1846C55.4785 44.266 58.5477 35.5579 64.6148 32.4886C62.6162 28.0632 62.4735 26.4929 62.4735 26.4929C62.4735 26.4929 75.3928 28.6342 79.8896 27.7777C85.5285 26.6357 94.2365 27.9919 97.4485 35.4865C102.802 37.6278 104.943 40.9826 105.371 44.6942C106.157 50.5472 102.802 56.9712 102.159 59.4694C102.231 59.6122 102.302 59.6835 102.302 59.7549C103.159 60.1832 103.444 60.8969 103.159 63.2524C102.374 69.4623 102.588 73.3167 99.3757 72.4601L96.5206 77.4566C96.3779 78.0276 96.3779 78.2417 96.3065 78.67C96.1637 79.5979 96.2351 81.4537 96.2351 91.6607C96.2351 92.8741 96.592 94.0162 97.2344 95.0868C97.9482 96.1575 98.9475 97.0854 100.232 97.5851C100.232 97.5851 100.304 97.5851 100.375 97.6564C107.727 100.726 113.009 102.724 116.863 104.223C118.862 104.866 120.575 105.722 122.074 106.579Z" fill="#A1A1A1"/>
<path d="M102.302 59.398C102.588 57.8277 101.874 55.9005 101.303 54.5443C101.231 54.3302 101.089 54.1161 101.017 53.8306C98.5191 48.8341 93.0231 46.8356 87.7411 46.55C74.2507 45.8363 73.0373 48.4059 68.826 44.5515C70.1108 46.55 70.2536 49.6193 68.255 53.4737C66.8275 56.186 64.1151 57.3994 61.7596 58.1846C55.6212 44.266 58.6904 35.5579 64.7575 32.4886C62.7589 28.0632 62.6162 26.4929 62.6162 26.4929C62.6162 26.4929 75.5355 28.6342 79.961 27.7777C85.5998 26.6357 94.3079 27.9919 97.5199 35.4865C102.873 37.6278 104.943 40.9826 105.443 44.6942C106.228 50.4758 102.945 56.8284 102.302 59.398Z" fill="#3A3A3A"/>
<path d="M97.3771 94.944V97.3709H66.1851V94.2303C66.5419 93.4451 66.7561 92.5172 66.7561 91.5893V79.1696C66.5419 78.8841 66.3278 78.6699 66.1851 78.3844V77.6707C66.8275 78.8127 67.684 79.8834 68.7547 80.7399L78.5334 87.5208C80.8175 89.448 84.1008 89.5193 86.4563 87.6635L95.5927 79.4551C95.8782 79.1696 96.235 78.8841 96.5206 78.5986C96.3778 79.5265 96.4492 81.3823 96.4492 91.5893C96.3778 92.8027 96.7347 94.0161 97.3771 94.944Z" fill="url(#paint0_linear_3568_28724)"/>
<path d="M101.713 127.63C101.298 129.391 100.677 131.256 99.9516 132.809C97.9836 136.642 94.8761 139.646 91.0436 141.614C87.1074 143.582 82.4462 144.411 77.785 143.375C66.8053 141.096 59.7617 130.323 62.0405 119.344C64.3193 108.364 74.9883 101.217 85.968 103.599C89.9042 104.428 93.3224 106.396 96.2227 109.089C101.091 113.957 103.163 121.001 101.713 127.63Z" fill="#242424" stroke="#464646" stroke-miterlimit="10"/>
<path d="M88.3502 121.726H83.689V117.065C83.689 116.132 82.964 115.304 81.9281 115.304C80.9959 115.304 80.1672 116.029 80.1672 117.065V121.726H75.506C74.5738 121.726 73.7451 122.451 73.7451 123.487C73.7451 124.523 74.4702 125.248 75.506 125.248H80.1672V129.909C80.1672 130.841 80.8923 131.67 81.9281 131.67C82.8604 131.67 83.689 130.945 83.689 129.909V125.248H88.3502C89.2825 125.248 90.1111 124.523 90.1111 123.487C90.1111 122.451 89.2825 121.726 88.3502 121.726Z" fill="#F8F7F4"/>
<defs>
<linearGradient id="paint0_linear_3568_28724" x1="81.7208" y1="96.7574" x2="81.7208" y2="86.4384" gradientUnits="userSpaceOnUse">
<stop stop-color="#A1A1A1"/>
<stop offset="0.9913" stop-color="#8A8A8A"/>
</linearGradient>
</defs>
</svg>
