<svg width="160" height="161" viewBox="0 0 160 161" fill="none" xmlns="http://www.w3.org/2000/svg">
<path d="M134.779 71.3894C134.779 84.8084 129.997 97.014 122.002 106.579C111.938 118.641 96.8059 126.279 79.818 126.279C63.5439 126.279 48.9829 119.212 38.9186 108.006C30.2819 98.2988 25 85.4508 25 71.3894C25 41.0539 49.5539 16.5 79.8894 16.5C110.225 16.5 134.779 41.0539 134.779 71.3894Z" fill="#F0F0F0"/>
<g filter="url(#filter0_d_3568_28692)">
<path d="M116.863 104.223C119.707 105.137 120.323 108.697 118.181 110.779C108.3 120.387 94.8108 126.279 79.8896 126.279C65.5324 126.279 52.5085 120.779 42.7292 111.789C40.6064 109.837 40.9189 106.482 43.5183 105.234C44.1409 104.935 44.7962 104.645 45.4856 104.366L47.4842 103.581C51.2672 102.082 56.1922 100.226 62.8304 97.4423C64.3293 96.7999 65.5427 95.6579 66.1851 94.1589C66.542 93.3738 66.7561 92.4459 66.7561 91.518V80.1423C66.7561 79.5109 66.4675 78.9492 66.1851 78.3845C65.2444 77.0047 64.5791 75.4045 64.2863 73.6807C64.2106 73.2353 63.9364 72.843 63.527 72.652C63.2609 72.5278 62.9589 72.5075 62.6677 72.5454C59.9225 72.9018 60.0795 69.4972 59.3329 63.2524C59.0347 60.9865 59.2845 60.215 60.0823 59.7728C60.415 59.5883 60.7383 59.377 60.964 59.0707C61.3679 58.5227 61.4433 57.7976 61.1815 57.1692C56.3852 45.6529 58.0225 37.8461 62.3747 34.0054C63.5122 33.0015 63.4127 29.7359 62.9405 28.2941C62.3629 26.5301 64.2611 26.7804 66.1002 27.0315C70.2691 27.6007 76.9182 28.3437 79.8896 27.7777C85.0343 26.7358 92.7339 27.7733 96.4832 33.6551C97.196 34.7733 98.1578 35.7311 99.3279 36.3551C103.316 38.4818 104.997 41.4518 105.371 44.6942C106.145 50.4602 102.901 56.7803 102.19 59.3554C102.169 59.4307 102.195 59.5377 102.236 59.6042C102.301 59.7087 102.373 59.7876 102.478 59.852C103.197 60.294 103.424 61.0659 103.159 63.2524C102.758 66.4195 102.618 68.9738 102.15 70.6031C101.524 72.7841 98.5916 73.8324 97.4658 75.8025L96.8628 76.8577C96.6358 77.2551 96.4515 77.6797 96.3845 78.1325C96.359 78.3047 96.3411 78.4621 96.3065 78.67C96.1637 79.5979 96.2351 81.4537 96.2351 91.6607C96.2351 92.8741 96.592 94.0162 97.2344 95.0868C97.9344 96.1369 98.9091 97.0496 100.158 97.5557C100.207 97.5754 100.225 97.5772 100.275 97.5933C100.327 97.6102 100.402 97.6676 100.453 97.6889C107.764 100.74 113.022 102.73 116.863 104.223Z" fill="url(#paint0_linear_3568_28692)"/>
</g>
<path d="M102.302 59.398C102.588 57.8277 101.874 55.9005 101.303 54.5443C101.231 54.3302 101.089 54.1161 101.017 53.8306C98.5191 48.8341 93.0231 46.8356 87.7411 46.55C74.2507 45.8363 73.0373 48.4059 68.826 44.5515C70.1108 46.55 70.2536 49.6193 68.255 53.4737C66.8275 56.186 64.1151 57.3994 61.7596 58.1846C55.6212 44.266 58.6904 35.5579 64.7575 32.4886C62.7589 28.0632 62.6162 26.4929 62.6162 26.4929C62.6162 26.4929 75.5355 28.6342 79.961 27.7777C85.5998 26.6357 94.3079 27.9919 97.5199 35.4865C102.873 37.6278 104.943 40.9826 105.443 44.6942C106.228 50.4758 102.945 56.8284 102.302 59.398Z" fill="#676767"/>
<path d="M97.3771 94.9441V97.371H66.1851V94.2303C66.5419 93.4452 66.7561 92.5173 66.7561 91.5894V79.1697C66.5419 78.8841 66.3278 78.67 66.1851 78.3845V77.6707C66.8275 78.8128 67.684 79.8834 68.7547 80.74L78.5334 87.5208C80.8175 89.448 84.1008 89.5194 86.4563 87.6636L95.5927 79.4552C95.8782 79.1696 96.235 78.8841 96.5206 78.5986C96.3778 79.5265 96.4492 81.3824 96.4492 91.5894C96.3778 92.8028 96.7347 94.0162 97.3771 94.9441Z" fill="url(#paint1_linear_3568_28692)"/>
<path d="M77.8935 142.887L77.8935 142.887L77.8866 142.885C67.1782 140.663 60.3072 130.156 62.53 119.445C64.754 108.73 75.1615 101.766 85.862 104.088L85.865 104.088C89.6954 104.895 93.032 106.81 95.8757 109.449C100.619 114.197 102.636 121.062 101.225 127.519C100.818 129.248 100.209 131.074 99.5025 132.589C97.5851 136.319 94.5587 139.246 90.8175 141.168C86.9709 143.091 82.4275 143.894 77.8935 142.887Z" fill="#DEDBD5" stroke="#F0F0F0"/>
<path d="M88.3502 121.726H83.689V117.065C83.689 116.132 82.964 115.304 81.9281 115.304C80.9959 115.304 80.1672 116.029 80.1672 117.065V121.726H75.506C74.5738 121.726 73.7451 122.451 73.7451 123.487C73.7451 124.523 74.4702 125.248 75.506 125.248H80.1672V129.909C80.1672 130.841 80.8923 131.67 81.9281 131.67C82.8604 131.67 83.689 130.945 83.689 129.909V125.248H88.3502C89.2825 125.248 90.1111 124.523 90.1111 123.487C90.1111 122.451 89.2825 121.726 88.3502 121.726Z" fill="white"/>
<defs>
<filter id="filter0_d_3568_28692" x="19.3291" y="15.8544" width="122.133" height="143.424" filterUnits="userSpaceOnUse" color-interpolation-filters="sRGB">
<feFlood flood-opacity="0" result="BackgroundImageFix"/>
<feColorMatrix in="SourceAlpha" type="matrix" values="0 0 0 0 0 0 0 0 0 0 0 0 0 0 0 0 0 0 127 0" result="hardAlpha"/>
<feOffset dy="11"/>
<feGaussianBlur stdDeviation="11"/>
<feColorMatrix type="matrix" values="0 0 0 0 0.576471 0 0 0 0 0.501961 0 0 0 0 0.396078 0 0 0 0.37 0"/>
<feBlend mode="normal" in2="BackgroundImageFix" result="effect1_dropShadow_3568_28692"/>
<feBlend mode="normal" in="SourceGraphic" in2="effect1_dropShadow_3568_28692" result="shape"/>
</filter>
<linearGradient id="paint0_linear_3568_28692" x1="80.505" y1="24.1848" x2="80.505" y2="127.355" gradientUnits="userSpaceOnUse">
<stop stop-color="#FDFEFF"/>
<stop offset="0.9964" stop-color="#F5F2EC"/>
</linearGradient>
<linearGradient id="paint1_linear_3568_28692" x1="81.7208" y1="96.7575" x2="81.7208" y2="86.4384" gradientUnits="userSpaceOnUse">
<stop stop-color="white" stop-opacity="0"/>
<stop offset="0.9913" stop-color="#DAD6CF"/>
</linearGradient>
</defs>
</svg>
