<svg width="24" height="24" viewBox="0 0 24 24" fill="none" xmlns="http://www.w3.org/2000/svg">
<path d="M13.25 11C13.25 11.6904 12.6904 12.25 12 12.25C11.3096 12.25 10.75 11.6904 10.75 11C10.75 10.3096 11.3096 9.75 12 9.75C12.6904 9.75 13.25 10.3096 13.25 11Z" fill="#212121"/>
<path d="M12.45 2.15C14.99 4.06 17.59 5 20.25 5H20.26C20.67 5 21.01 5.34 21.01 5.75V11C21.01 16 18.05 19.68 12.28 21.95C12.1 22.02 11.91 22.02 11.73 21.95C5.96 19.68 3 16 3 11V5.75C3 5.34 3.34 5 3.75 5C6.41 5 9.01 4.06 11.55 2.15C11.82 1.95 12.18 1.95 12.45 2.15ZM13.81 16.78C13.96 17.17 14.4 17.35 14.78 17.2C15.17 17.05 15.35 16.61 15.2 16.23L13.91 12.99C14.43 12.49 14.76 11.78 14.76 11C14.76 9.74 13.91 8.68 12.76 8.35V6.75C12.76 6.34 12.42 6 12.01 6C11.6 6 11.26 6.34 11.26 6.75V8.35C10.11 8.68 9.26 9.74 9.26 11C9.26 11.78 9.59 12.49 10.11 12.99L8.82 16.23C8.67 16.61 8.86 17.05 9.24 17.2C9.62 17.35 10.06 17.16 10.21 16.78L11.44 13.69C11.62 13.73 11.81 13.75 12.01 13.75C12.21 13.75 12.4 13.73 12.58 13.69L13.81 16.78Z" fill="#212121"/>
</svg>
