<svg width="48" height="48" viewBox="0 0 48 48" fill="none" xmlns="http://www.w3.org/2000/svg">
<path d="M30 22C30 23.98 29.03 25.74 27.55 26.83L30.89 33.24C31.17 33.87 30.89 34.61 30.26 34.89C30.1 34.96 29.92 35 29.75 35C29.27 35 28.82 34.72 28.61 34.26L25.27 27.86C24.86 27.95 24.43 28 24 28C23.57 28 23.14 27.95 22.73 27.86L19.39 34.26C19.11 34.89 18.37 35.17 17.74 34.89C17.11 34.61 16.83 33.87 17.11 33.24L20.45 26.83C18.97 25.73 18 23.98 18 22C18 19.12 20.04 16.71 22.75 16.13V13.25C22.75 12.56 23.31 12 24 12C24.69 12 25.25 12.56 25.25 13.25V16.13C27.96 16.71 30 19.12 30 22ZM20.5 22C20.5 23.93 22.07 25.5 24 25.5C25.93 25.5 27.5 23.93 27.5 22C27.5 20.07 25.93 18.5 24 18.5C22.07 18.5 20.5 20.07 20.5 22Z" fill="#212121"/>
<path d="M40.7802 9.99988C41.4602 10.0199 42.0002 10.5699 42.0002 11.2499V20.9999C42.0002 30.4899 36.9402 40.0099 24.3702 43.9399C24.1202 44.0199 23.8602 44.0199 23.6202 43.9399C17.3802 41.9899 12.9502 38.6499 10.0902 34.5199C7.23023 30.4099 5.99023 25.5899 5.99023 20.7499V11.2499C5.99023 10.5699 6.53023 10.0199 7.21023 9.99988H7.31023C7.38023 9.98988 7.50023 9.97988 7.64023 9.97988C7.93023 9.96988 8.36023 9.92988 8.89023 9.87988C9.95023 9.76988 11.4302 9.56988 13.0902 9.18988C16.4502 8.42988 20.3702 6.98988 23.1302 4.34988C23.6102 3.88988 24.3802 3.88988 24.8602 4.34988C27.6202 6.98988 31.5502 8.42988 34.9002 9.18988C36.5602 9.56988 38.0402 9.76988 39.1002 9.87988C39.6402 9.92988 40.0602 9.95988 40.3502 9.97988C40.5002 9.99988 40.6102 9.99988 40.6802 9.99988H40.7802ZM24.0002 41.4399C35.1602 37.7999 39.5002 29.4099 39.5002 20.9999V12.4299C39.3002 12.4099 39.0902 12.3899 38.8502 12.3699C37.7102 12.2499 36.1302 12.0299 34.3502 11.6299C31.1302 10.8999 27.1402 9.52988 24.0002 6.92988C20.8602 9.52988 16.8702 10.8999 13.6502 11.6299C11.8702 12.0299 10.2902 12.2499 9.15023 12.3699C8.91023 12.3899 8.70023 12.4099 8.50023 12.4299V20.7499C8.50023 25.1599 9.63023 29.4699 12.1502 33.0999C14.6102 36.6499 18.4402 39.6299 24.0002 41.4399Z" fill="#212121"/>
</svg>
