<svg width="48" height="48" viewBox="0 0 48 48" fill="none" xmlns="http://www.w3.org/2000/svg">
<path d="M27.5 22C27.5 23.933 25.933 25.5 24 25.5C22.067 25.5 20.5 23.933 20.5 22C20.5 20.067 22.067 18.5 24 18.5C25.933 18.5 27.5 20.067 27.5 22Z" fill="#212121"/>
<path d="M40.7802 9.99988C41.4602 10.0199 42.0002 10.5699 42.0002 11.2499V20.9999C42.0002 30.4899 36.9402 40.0099 24.3702 43.9399C24.1202 44.0199 23.8602 44.0199 23.6202 43.9399C17.3802 41.9899 12.9502 38.6499 10.0902 34.5199C7.23023 30.4099 5.99023 25.5899 5.99023 20.7499V11.2499C5.99023 10.5699 6.53023 10.0199 7.21023 9.99988H7.31023C7.38023 9.98988 7.50023 9.97988 7.64023 9.97988C7.93023 9.96988 8.36023 9.92988 8.89023 9.87988C9.95023 9.76988 11.4302 9.56988 13.0902 9.18988C16.4502 8.42988 20.3702 6.98988 23.1302 4.34988C23.6102 3.88988 24.3802 3.88988 24.8602 4.34988C27.6202 6.98988 31.5502 8.42988 34.9002 9.18988C36.5602 9.56988 38.0402 9.76988 39.1002 9.87988C39.6402 9.92988 40.0602 9.95988 40.3502 9.97988C40.5002 9.99988 40.6102 9.99988 40.6802 9.99988H40.7802ZM29.7502 34.9999C29.9202 34.9999 30.0902 34.9699 30.2602 34.8899C30.8902 34.6099 31.1702 33.8699 30.8902 33.2399L27.5502 26.8299C29.0302 25.7299 30.0002 23.9799 30.0002 21.9999C30.0002 19.1199 27.9602 16.7099 25.2502 16.1299V12.2499C25.2502 11.5599 24.6902 10.9999 24.0002 10.9999C23.3102 10.9999 22.7502 11.5599 22.7502 12.2499V16.1299C20.0402 16.7099 18.0002 19.1199 18.0002 21.9999C18.0002 23.9799 18.9702 25.7399 20.4502 26.8299L17.1102 33.2399C16.8302 33.8699 17.1102 34.6099 17.7402 34.8899C18.3702 35.1699 19.1102 34.8899 19.3902 34.2599L22.7302 27.8599C23.1402 27.9499 23.5702 27.9999 24.0002 27.9999C24.4302 27.9999 24.8602 27.9499 25.2702 27.8599L28.6102 34.2599C28.8202 34.7299 29.2702 34.9999 29.7502 34.9999Z" fill="#212121"/>
</svg>
