<svg width="24" height="24" viewBox="0 0 24 24" fill="none" xmlns="http://www.w3.org/2000/svg">
<path d="M11.25 8.35V6.75C11.25 6.34 11.59 6 12 6C12.41 6 12.75 6.34 12.75 6.75V8.35C13.9 8.68 14.75 9.74 14.75 11C14.75 11.78 14.42 12.49 13.9 12.99L15.19 16.23C15.34 16.61 15.15 17.05 14.77 17.2C14.39 17.35 13.95 17.16 13.8 16.78L12.57 13.69C12.39 13.73 12.2 13.75 12 13.75C11.8 13.75 11.61 13.73 11.43 13.69L10.2 16.78C10.05 17.17 9.60996 17.35 9.22996 17.2C8.83996 17.05 8.65996 16.61 8.80996 16.23L10.1 12.99C9.57996 12.49 9.24996 11.78 9.24996 11C9.24996 9.74 10.1 8.68 11.25 8.35ZM12 12.25C12.69 12.25 13.25 11.69 13.25 11C13.25 10.31 12.69 9.75 12 9.75C11.31 9.75 10.75 10.31 10.75 11C10.75 11.69 11.31 12.25 12 12.25Z" fill="#212121"/>
<path d="M12.45 2.15C14.99 4.06 17.59 5 20.25 5H20.26C20.67 5 21.01 5.34 21.01 5.75V11C21.01 16 18.05 19.68 12.28 21.95C12.1 22.02 11.91 22.02 11.73 21.95C5.96 19.68 3 16 3 11V5.75C3 5.34 3.34 5 3.75 5C6.41 5 9.01 4.06 11.55 2.15C11.82 1.95 12.18 1.95 12.45 2.15ZM12 20.44C17.05 18.38 19.5 15.26 19.5 11V6.48C16.92 6.33 14.42 5.39 12 3.68C9.58 5.39 7.08 6.33 4.5 6.48V11C4.5 15.26 6.95 18.38 12 20.44Z" fill="#212121"/>
</svg>
