<svg width="28" height="28" viewBox="0 0 28 28" fill="none" xmlns="http://www.w3.org/2000/svg">
<path d="M14.75 9.59C16.32 9.93 17.5 11.33 17.5 13H17.52C17.52 14.08 17.02 15.03 16.25 15.67L17.93 18.9C18.12 19.27 17.98 19.72 17.61 19.91C17.5 19.96 17.39 19.99 17.27 19.99C16.99 19.99 16.73 19.85 16.6 19.59L14.92 16.36C14.62 16.43 14.33 16.49 14.01 16.49C13.69 16.49 13.39 16.44 13.1 16.36L11.42 19.59C11.23 19.96 10.78 20.1 10.41 19.91C10.04 19.72 9.89997 19.27 10.09 18.9L11.77 15.67C11 15.03 10.5 14.08 10.5 13C10.5 11.33 11.68 9.93 13.25 9.59V7.75C13.25 7.34 13.59 7 14 7C14.41 7 14.75 7.34 14.75 7.75V9.59ZM12 13C12 14.1 12.9 15 14 15C15.1 15 16 14.1 16 13C16 11.9 15.1 11 14 11C12.9 11 12 11.9 12 13Z" fill="#212121"/>
<path d="M18.34 4.18006C20.15 4.91006 22.26 5.50006 24.25 5.50006C24.66 5.50006 25 5.84006 25 6.25006V14.0001C25 17.0301 23.29 19.8401 21.16 21.9501C19.03 24.0501 16.34 25.5901 14.13 25.9701L14 25.9901L13.87 25.9701C11.67 25.5901 8.97 24.0601 6.84 21.9501C4.7 19.8401 3 17.0301 3 14.0001V6.25006C3 5.84006 3.34 5.50006 3.75 5.50006C5.74 5.50006 7.85 4.91006 9.66 4.18006C11.47 3.45006 12.92 2.60006 13.56 2.14006C13.82 1.95006 14.18 1.95006 14.44 2.14006C15.09 2.60006 16.53 3.45006 18.34 4.18006ZM20.11 20.8801C22.09 18.9201 23.5 16.4701 23.5 14.0001H23.49V6.97006C21.48 6.85006 19.46 6.25006 17.77 5.57006C16.18 4.93006 14.83 4.19006 13.99 3.65006C13.15 4.19006 11.81 4.93006 10.22 5.57006C8.53 6.25006 6.51 6.85006 4.5 6.97006V14.0001C4.5 16.4701 5.91 18.9201 7.89 20.8801C9.83 22.7901 12.19 24.1101 14 24.4701C15.81 24.1101 18.17 22.7901 20.11 20.8801Z" fill="#212121"/>
</svg>
