<svg width="16" height="16" viewBox="0 0 16 16" fill="none" xmlns="http://www.w3.org/2000/svg">
<path d="M8.5 7.5C8.5 7.77614 8.27614 8 8 8C7.72386 8 7.5 7.77614 7.5 7.5C7.5 7.22386 7.72386 7 8 7C8.27614 7 8.5 7.22386 8.5 7.5Z" fill="#212121"/>
<path d="M8.35023 2.15C9.59023 3.39 10.9702 4 12.5002 4H12.4902C12.7702 4 12.9902 4.22 12.9902 4.5V7.5C12.9902 10.72 11.3502 12.9 8.15023 13.97C8.04023 14 7.93023 14 7.83023 13.97C4.63023 12.91 2.99023 10.72 2.99023 7.5V4.5C2.99023 4.22 3.21023 4 3.49023 4C5.02023 4 6.40023 3.39 7.64023 2.15C7.84023 1.95 8.15023 1.95 8.35023 2.15ZM9.50023 11C9.57023 11 9.65023 10.99 9.72023 10.95L9.74023 10.94C9.98023 10.82 10.0802 10.52 9.96023 10.27L9.09023 8.53C9.35023 8.26 9.51023 7.89 9.51023 7.49C9.51023 6.84 9.09023 6.29 8.51023 6.08V4.99C8.51023 4.71 8.29024 4.49 8.01023 4.49C7.73023 4.49 7.51023 4.71 7.51023 4.99V6.08C6.93023 6.29 6.51023 6.84 6.51023 7.49C6.51023 7.9 6.67023 8.26 6.93023 8.53L6.06023 10.27C5.93023 10.52 6.03023 10.82 6.28023 10.94C6.53023 11.07 6.83023 10.97 6.95023 10.72L7.82023 8.98C7.88023 8.99 7.94024 9 8.00023 9C8.03023 9 8.06023 8.995 8.09023 8.99C8.12023 8.985 8.15023 8.98 8.18023 8.98L9.05023 10.72C9.14023 10.9 9.32023 11 9.50023 11Z" fill="#212121"/>
</svg>
