<svg width="28" height="28" viewBox="0 0 28 28" fill="none" xmlns="http://www.w3.org/2000/svg">
<path d="M16 13C16 14.1046 15.1046 15 14 15C12.8954 15 12 14.1046 12 13C12 11.8954 12.8954 11 14 11C15.1046 11 16 11.8954 16 13Z" fill="#212121"/>
<path d="M18.34 4.18006C20.15 4.91006 22.26 5.50006 24.25 5.50006C24.66 5.50006 25 5.84006 25 6.25006V14.0001C25 17.0301 23.29 19.8401 21.16 21.9501C19.03 24.0501 16.34 25.5901 14.13 25.9701L14 25.9901L13.87 25.9701C11.67 25.5901 8.97 24.0601 6.84 21.9501C4.7 19.8401 3 17.0301 3 14.0001V6.25006C3 5.84006 3.34 5.50006 3.75 5.50006C5.74 5.50006 7.85 4.91006 9.66 4.18006C11.47 3.45006 12.92 2.60006 13.56 2.14006C13.82 1.95006 14.18 1.95006 14.44 2.14006C15.09 2.60006 16.53 3.45006 18.34 4.18006ZM17.25 19.9901C17.36 19.9901 17.48 19.9701 17.59 19.9101H17.57C17.94 19.7201 18.08 19.2701 17.89 18.9001L16.21 15.6701C16.98 15.0301 17.48 14.0801 17.48 13.0001C17.48 11.3301 16.3 9.93006 14.73 9.59006V7.75006C14.73 7.34006 14.39 7.00006 13.98 7.00006C13.57 7.00006 13.23 7.34006 13.23 7.75006V9.59006C11.66 9.93006 10.48 11.3301 10.48 13.0001C10.48 14.0801 10.98 15.0301 11.75 15.6701L10.07 18.9001C9.88 19.2701 10.02 19.7201 10.39 19.9101C10.76 20.1001 11.21 19.9601 11.4 19.5901L13.08 16.3601C13.38 16.4301 13.67 16.4901 13.99 16.4901C14.31 16.4901 14.61 16.4401 14.9 16.3601L16.58 19.5901C16.72 19.8401 16.98 19.9901 17.25 19.9901Z" fill="#212121"/>
</svg>
