<svg width="20" height="20" viewBox="0 0 20 20" fill="none" xmlns="http://www.w3.org/2000/svg">
<path d="M9.49992 6C9.49992 5.72 9.71992 5.5 9.99992 5.5C10.2799 5.5 10.4999 5.72 10.4999 6V7.06C11.3599 7.29 11.9999 8.07 11.9999 9C11.9999 9.64 11.6999 10.2 11.2399 10.57L12.4499 13.3C12.5699 13.55 12.4499 13.85 12.1999 13.96C11.9499 14.08 11.6499 13.96 11.5399 13.71L10.3299 10.98C10.2199 11.01 10.1099 11.01 9.99992 11.01C9.88992 11.01 9.77992 11 9.66992 10.98L8.45992 13.71C8.34992 13.96 8.04992 14.07 7.79992 13.96C7.54992 13.85 7.43992 13.55 7.54992 13.3L8.75992 10.57C8.29992 10.2 7.99992 9.63 7.99992 9C7.99992 8.07 8.63992 7.28 9.49992 7.06V6ZM9.99992 10C10.5499 10 10.9999 9.55 10.9999 9C10.9999 8.45 10.5499 8 9.99992 8C9.81992 8 9.64992 8.04 9.49992 8.13C9.19992 8.31 8.99992 8.63 8.99992 9C8.99992 9.22 9.06992 9.42 9.18992 9.59C9.36992 9.84 9.66992 10 9.99992 10Z" fill="#212121"/>
<path d="M10.28 2.08982C10.11 1.97982 9.89 1.97982 9.73 2.08982C7.78 3.37982 5.69 4.17982 3.43 4.50982C3.18 4.54982 3 4.75982 3 4.99982V9.49982C3 13.3898 5.31 16.2298 9.82 17.9698C9.94 18.0098 10.06 18.0098 10.18 17.9698C14.69 16.2298 17 13.3898 17 9.49982V4.99982C17 4.74982 16.82 4.53982 16.57 4.50982C14.31 4.18982 12.21 3.37982 10.28 2.08982ZM10 16.9598C5.97 15.3598 4 12.8898 4 9.49982V5.42982C5.99 5.08982 7.85 4.39982 9.6 3.34982L10 3.09982L10.4 3.34982C12.15 4.39982 14.01 5.08982 16 5.42982V9.49982C16 12.8898 14.03 15.3598 10 16.9598Z" fill="#212121"/>
</svg>
