<svg width="20" height="20" viewBox="0 0 20 20" fill="none" xmlns="http://www.w3.org/2000/svg">
<path d="M9.5 8.13C9.65 8.05 9.82 8 10 8C10.55 8 11 8.45 11 9C11 9.55 10.55 10 10 10C9.67 10 9.37 9.84 9.19 9.59C9.07 9.42 9 9.22 9 9C9 8.63 9.2 8.3 9.5 8.13Z" fill="#212121"/>
<path d="M10.28 2.08982C12.21 3.37982 14.31 4.18982 16.57 4.50982C16.82 4.53982 17 4.74982 17 4.99982V9.49982C17 13.3898 14.69 16.2298 10.18 17.9698C10.06 18.0098 9.94 18.0098 9.82 17.9698C5.31 16.2298 3 13.3898 3 9.49982V4.99982C3 4.75982 3.18 4.54982 3.43 4.50982C5.69 4.17982 7.78 3.37982 9.73 2.08982C9.89 1.97982 10.11 1.97982 10.28 2.08982ZM11.54 13.7098C11.65 13.9598 11.95 14.0698 12.2 13.9598C12.45 13.8498 12.56 13.5498 12.45 13.2998L11.24 10.5698C11.7 10.1998 12 9.62982 12 8.99982C12 8.06982 11.36 7.27982 10.5 7.05982V5.99982C10.5 5.71982 10.28 5.49982 10 5.49982C9.72 5.49982 9.5 5.71982 9.5 5.99982V7.05982C8.64 7.28982 8 8.06982 8 8.99982C8 9.63982 8.3 10.1998 8.76 10.5698L7.55 13.2998C7.43 13.5498 7.55 13.8498 7.8 13.9598C8.05 14.0798 8.35 13.9598 8.46 13.7098L9.67 10.9798C9.78 11.0098 9.89 11.0098 10 11.0098C10.11 11.0098 10.22 10.9998 10.33 10.9798L11.54 13.7098Z" fill="#212121"/>
</svg>
