<svg width="16" height="16" viewBox="0 0 16 16" fill="none" xmlns="http://www.w3.org/2000/svg">
<path d="M7.49987 6.08977V4.99977L7.47987 5.00977C7.47987 4.72977 7.69987 4.50977 7.97987 4.50977C8.25987 4.50977 8.47987 4.72977 8.47987 5.00977V6.09977C9.05987 6.30977 9.47987 6.85977 9.47987 7.50977C9.47987 7.91977 9.31987 8.27977 9.05987 8.54977L9.92987 10.2898C10.0599 10.5398 9.95987 10.8398 9.70987 10.9598C9.63987 10.9898 9.56987 11.0098 9.48987 11.0098C9.29987 11.0098 9.12987 10.8998 9.03987 10.7298L8.16987 8.98977C8.10987 8.99977 8.04987 9.00977 7.98987 9.00977C7.95987 9.00977 7.92987 9.00477 7.89987 8.99977C7.86987 8.99477 7.83987 8.98977 7.80987 8.98977L6.93987 10.7298C6.81987 10.9698 6.51987 11.0698 6.26987 10.9498C6.02987 10.8298 5.92987 10.5298 6.04987 10.2798L6.91987 8.53977C6.65987 8.26977 6.49987 7.89977 6.49987 7.49977C6.49987 6.84977 6.91987 6.29977 7.49987 6.08977ZM7.99987 7.99977C8.27987 7.99977 8.49987 7.77977 8.49987 7.49977C8.49987 7.21977 8.27987 6.99977 7.99987 6.99977C7.71987 6.99977 7.49987 7.21977 7.49987 7.49977C7.49987 7.77977 7.71987 7.99977 7.99987 7.99977Z" fill="#212121"/>
<path d="M8.35023 2.15C9.59023 3.39 10.9702 4 12.5002 4H12.4902C12.7702 4 12.9902 4.22 12.9902 4.5V7.5C12.9902 10.72 11.3502 12.9 8.15023 13.97C8.04023 14 7.93023 14 7.83023 13.97C4.63023 12.91 2.99023 10.72 2.99023 7.5V4.5C2.99023 4.22 3.21023 4 3.49023 4C5.02023 4 6.40023 3.39 7.64023 2.15C7.84023 1.95 8.15023 1.95 8.35023 2.15ZM10.9802 10.94C11.6402 10.06 12.0002 8.93 12.0002 7.5V4.98C10.5202 4.87 9.18023 4.26 8.00023 3.19C6.81023 4.25 5.48023 4.87 4.00023 4.98V7.5C4.00023 8.93 4.36023 10.06 5.02023 10.94C5.66023 11.8 6.63023 12.49 8.00023 12.97C9.37023 12.48 10.3402 11.79 10.9802 10.94Z" fill="#212121"/>
</svg>
