<svg width="16" height="16" viewBox="0 0 16 16" fill="none" xmlns="http://www.w3.org/2000/svg">
<path d="M7.46164 14.5C6.61604 14.503 5.77813 14.3372 4.99576 14.0122C4.2134 13.6871 3.50189 13.2092 2.90187 12.6056C2.30185 12.002 1.82504 11.2846 1.49872 10.4944C1.1724 9.70418 1.00294 8.85658 1 8C1.00294 7.14342 1.1724 6.29582 1.49872 5.50559C1.82504 4.71536 2.30185 3.99798 2.90187 3.3944C3.50189 2.79082 4.2134 2.31287 4.99576 1.98783C5.77813 1.6628 6.61604 1.49705 7.46164 1.50004C9.17494 1.50622 10.8162 2.19897 12.0269 3.42697C13.2376 4.65497 13.9194 6.31842 13.9233 8.05395C13.8902 9.42711 13.4691 10.7619 12.7099 11.9H15V14.5H7.46164ZM12.4333 13.85H14.3583V12.55H12.4333V13.85ZM10.2805 13.85H11.7916V12.8444C11.15 13.2448 10.8234 13.85 10.2805 13.85ZM5.84591 12.0625C5.84667 12.2766 5.88904 12.4886 5.97065 12.6861C6.05226 12.8837 6.17149 13.063 6.32152 13.2139C6.47156 13.3648 6.64946 13.4843 6.84508 13.5656C7.0407 13.6468 7.25022 13.6882 7.46164 13.6875C7.67304 13.6882 7.88251 13.6468 8.07809 13.5656C8.27368 13.4843 8.45154 13.3648 8.60153 13.2139C8.75151 13.063 8.87067 12.8836 8.95221 12.6861C9.03375 12.4885 9.07604 12.2766 9.07671 12.0625C9.07604 11.8483 9.03375 11.6364 8.95221 11.4389C8.87067 11.2413 8.75151 11.062 8.60153 10.911C8.45154 10.7601 8.27368 10.6407 8.07809 10.5594C7.88251 10.4781 7.67304 10.4367 7.46164 10.4375C7.25022 10.4367 7.0407 10.4781 6.84508 10.5594C6.64946 10.6406 6.47156 10.7601 6.32152 10.911C6.17149 11.0619 6.05226 11.2413 5.97065 11.4388C5.88904 11.6364 5.84667 11.8483 5.84591 12.0625ZM9.48163 10.0306C9.48231 10.2447 9.5246 10.4566 9.60614 10.6542C9.68768 10.8518 9.80683 11.0311 9.95682 11.182C10.1068 11.3329 10.2847 11.4524 10.4803 11.5337C10.6758 11.6149 10.8853 11.6563 11.0967 11.6556C11.5236 11.657 11.9335 11.4866 12.2364 11.1818C12.5393 10.8771 12.7103 10.463 12.7118 10.0306C12.7103 9.59817 12.5393 9.18408 12.2364 8.87935C11.9335 8.57462 11.5236 8.40422 11.0967 8.4056C10.8852 8.40474 10.6756 8.44613 10.4799 8.52738C10.2842 8.60864 10.1063 8.72818 9.95619 8.87916C9.80613 9.03014 9.68694 9.2096 9.60539 9.40728C9.52385 9.60497 9.48156 9.81699 9.48097 10.0312L9.48163 10.0306ZM2.2121 10.0306C2.21278 10.2447 2.25511 10.4566 2.33665 10.6542C2.41819 10.8518 2.53734 11.0311 2.68733 11.182C2.83731 11.3329 3.01518 11.4524 3.21076 11.5337C3.40634 11.6149 3.61582 11.6563 3.82721 11.6556C4.03863 11.6563 4.24812 11.6149 4.44374 11.5337C4.63936 11.4524 4.8173 11.3329 4.96733 11.1821C5.11737 11.0312 5.23656 10.8518 5.31817 10.6542C5.39978 10.4567 5.44219 10.2448 5.44295 10.0306C5.44219 9.81642 5.39978 9.60451 5.31817 9.40694C5.23656 9.20937 5.11737 9.03001 4.96733 8.87912C4.8173 8.72823 4.63936 8.60874 4.44374 8.5275C4.24812 8.44625 4.03863 8.40483 3.82721 8.4056C3.61571 8.40474 3.40611 8.44613 3.21041 8.52738C3.01471 8.60864 2.83676 8.72818 2.6867 8.87916C2.53664 9.03014 2.4174 9.2096 2.33586 9.40728C2.25432 9.60497 2.21207 9.81699 2.21148 10.0312L2.2121 10.0306ZM9.48163 5.96811C9.48316 6.40053 9.65414 6.81462 9.95701 7.11935C10.2599 7.42408 10.6698 7.59448 11.0967 7.5931C11.5236 7.59448 11.9335 7.42408 12.2364 7.11935C12.5393 6.81462 12.7103 6.40053 12.7118 5.96811C12.7103 5.5357 12.5393 5.1216 12.2364 4.81687C11.9335 4.51215 11.5236 4.34174 11.0967 4.34312C10.8852 4.34227 10.6756 4.38365 10.4799 4.46491C10.2842 4.54617 10.1063 4.6657 9.95619 4.81668C9.80613 4.96766 9.68694 5.14713 9.60539 5.34481C9.52385 5.54249 9.48156 5.75452 9.48097 5.96876L9.48163 5.96811ZM2.2121 5.96811C2.21363 6.40053 2.38465 6.81462 2.68752 7.11935C2.99039 7.42408 3.40033 7.59448 3.82721 7.5931C4.25415 7.59448 4.66416 7.4241 4.96714 7.11939C5.27011 6.81468 5.44125 6.40059 5.44295 5.96811C5.44219 5.75395 5.39978 5.54203 5.31817 5.34446C5.23656 5.14689 5.11737 4.96754 4.96733 4.81664C4.8173 4.66575 4.63936 4.54627 4.44374 4.46502C4.24812 4.38377 4.03863 4.34235 3.82721 4.34312C3.61571 4.34227 3.40611 4.38365 3.21041 4.46491C3.01471 4.54617 2.83676 4.6657 2.6867 4.81668C2.53664 4.96766 2.4174 5.14713 2.33586 5.34481C2.25432 5.54249 2.21207 5.75452 2.21148 5.96876L2.2121 5.96811ZM5.84654 3.93688C5.84729 4.15104 5.88971 4.36296 5.97131 4.56053C6.05292 4.7581 6.17216 4.93745 6.32219 5.08834C6.47222 5.23924 6.65012 5.35872 6.84574 5.43997C7.04136 5.52121 7.25085 5.56263 7.46227 5.56186C7.67366 5.56263 7.88314 5.52121 8.07872 5.43995C8.2743 5.3587 8.45217 5.23921 8.60215 5.0883C8.75214 4.9374 8.8713 4.75804 8.95283 4.56048C9.03437 4.36291 9.0767 4.15101 9.07738 3.93688C9.0767 3.72274 9.03437 3.51084 8.95283 3.31327C8.8713 3.11571 8.75214 2.93635 8.60215 2.78545C8.45217 2.63454 8.2743 2.51505 8.07872 2.4338C7.88314 2.35254 7.67366 2.31112 7.46227 2.31188C7.25074 2.31103 7.04112 2.35241 6.84539 2.43366C6.64965 2.51491 6.47164 2.63443 6.32152 2.78541C6.17141 2.93638 6.05214 3.11584 5.97053 3.31352C5.88892 3.51121 5.84658 3.72325 5.84591 3.93753L5.84654 3.93688Z" fill="#212121"/>
</svg>
