<svg width="48" height="48" viewBox="0 0 48 48" fill="none" xmlns="http://www.w3.org/2000/svg">
<path d="M22.4618 42.9999C20.0458 43.0084 17.6518 42.5366 15.4165 41.6115C13.1811 40.6865 11.1483 39.3261 9.43392 37.6082C7.71957 35.8904 6.35727 33.8486 5.42492 31.5995C4.49257 29.3503 4.00841 26.9379 4 24.5C4.00841 22.0621 4.49257 19.6497 5.42492 17.4005C6.35727 15.1514 7.71957 13.1096 9.43392 11.3918C11.1483 9.67388 13.1811 8.31355 15.4165 7.38845C17.6518 6.46335 20.0458 5.9916 22.4618 6.00011C27.357 6.0177 32.0463 7.98937 35.5054 11.4845C38.9646 14.9795 40.9126 19.714 40.9237 24.6535C40.829 28.5618 39.6259 32.3607 37.4568 35.5999H44V42.9999H22.4618ZM36.6666 41.1499H42.1667V37.4499H36.6666V41.1499ZM30.5158 41.1499H34.8333V38.288C32.9999 39.4276 32.0668 41.1499 30.5158 41.1499ZM17.8455 36.0624C17.8476 36.672 17.9687 37.2751 18.2019 37.8374C18.435 38.3998 18.7757 38.9102 19.2044 39.3397C19.633 39.7692 20.1413 40.1092 20.7002 40.3405C21.2591 40.5717 21.8578 40.6896 22.4618 40.6874C23.0658 40.6896 23.6643 40.5717 24.2231 40.3404C24.7819 40.1092 25.2901 39.7691 25.7187 39.3396C26.1472 38.9101 26.4876 38.3996 26.7206 37.8373C26.9536 37.275 27.0744 36.6719 27.0763 36.0624C27.0744 35.453 26.9536 34.8499 26.7206 34.2876C26.4876 33.7253 26.1472 33.2148 25.7187 32.7853C25.2901 32.3558 24.7819 32.0157 24.2231 31.7844C23.6643 31.5532 23.0658 31.4353 22.4618 31.4375C21.8578 31.4353 21.2591 31.5532 20.7002 31.7844C20.1413 32.0156 19.633 32.3557 19.2044 32.7852C18.7757 33.2146 18.435 33.7251 18.2019 34.2874C17.9687 34.8497 17.8476 35.4529 17.8455 36.0624ZM28.2332 30.2794C28.2352 30.8888 28.356 31.4919 28.589 32.0542C28.8219 32.6165 29.1624 33.127 29.5909 33.5565C30.0194 33.986 30.5276 34.3261 31.0864 34.5574C31.6452 34.7886 32.2437 34.9065 32.8477 34.9043C34.0674 34.9083 35.2386 34.4233 36.104 33.556C36.9693 32.6887 37.4579 31.5101 37.4623 30.2794C37.4579 29.0486 36.9693 27.8701 36.104 27.0028C35.2386 26.1355 34.0674 25.6505 32.8477 25.6544C32.2434 25.652 31.6447 25.7697 31.0855 26.001C30.5264 26.2323 30.0179 26.5725 29.5891 27.0022C29.1604 27.4319 28.8198 27.9427 28.5868 28.5053C28.3539 29.068 28.233 29.6714 28.2313 30.2812L28.2332 30.2794ZM7.46315 30.2794C7.46508 30.8888 7.58603 31.4919 7.81899 32.0542C8.05196 32.6165 8.39241 33.127 8.82093 33.5565C9.24946 33.986 9.75765 34.3261 10.3165 34.5574C10.8753 34.7886 11.4738 34.9065 12.0777 34.9043C12.6818 34.9065 13.2803 34.7886 13.8393 34.5574C14.3982 34.3262 14.9066 33.9861 15.3352 33.5566C15.7639 33.1271 16.1045 32.6167 16.3376 32.0544C16.5708 31.4921 16.692 30.8889 16.6941 30.2794C16.692 29.6698 16.5708 29.0667 16.3376 28.5044C16.1045 27.942 15.7639 27.4316 15.3352 27.0021C14.9066 26.5726 14.3982 26.2326 13.8393 26.0013C13.2803 25.7701 12.6818 25.6522 12.0777 25.6544C11.4735 25.652 10.8746 25.7697 10.3155 26.001C9.75631 26.2323 9.24789 26.5725 8.81914 27.0022C8.3904 27.4319 8.04973 27.9427 7.81675 28.5053C7.58378 29.068 7.46305 29.6714 7.46136 30.2812L7.46315 30.2794ZM28.2332 18.7169C28.2376 19.9477 28.7261 21.1262 29.5915 21.9935C30.4568 22.8608 31.6281 23.3458 32.8477 23.3419C34.0674 23.3458 35.2386 22.8608 36.104 21.9935C36.9693 21.1262 37.4579 19.9477 37.4623 18.7169C37.4579 17.4862 36.9693 16.3076 36.104 15.4403C35.2386 14.573 34.0674 14.088 32.8477 14.092C32.2434 14.0895 31.6447 14.2073 31.0855 14.4386C30.5264 14.6699 30.0179 15.0101 29.5891 15.4398C29.1604 15.8695 28.8198 16.3803 28.5868 16.9429C28.3539 17.5056 28.233 18.109 28.2313 18.7188L28.2332 18.7169ZM7.46315 18.7169C7.46752 19.9477 7.95615 21.1262 8.82149 21.9935C9.68684 22.8608 10.8581 23.3458 12.0777 23.3419C13.2976 23.3458 14.469 22.8609 15.3347 21.9936C16.2003 21.1264 16.6893 19.9478 16.6941 18.7169C16.692 18.1074 16.5708 17.5042 16.3376 16.9419C16.1045 16.3796 15.7639 15.8692 15.3352 15.4397C14.9066 15.0102 14.3982 14.6701 13.8393 14.4389C13.2803 14.2077 12.6818 14.0898 12.0777 14.092C11.4735 14.0895 10.8746 14.2073 10.3155 14.4386C9.75631 14.6699 9.24789 15.0101 8.81914 15.4398C8.3904 15.8695 8.04973 16.3803 7.81675 16.9429C7.58378 17.5056 7.46305 18.109 7.46136 18.7188L7.46315 18.7169ZM17.8472 12.9357C17.8494 13.5453 17.9706 14.1484 18.2038 14.7107C18.4369 15.273 18.7776 15.7835 19.2063 16.213C19.6349 16.6424 20.1432 16.9825 20.7021 17.2137C21.261 17.445 21.8596 17.5629 22.4636 17.5607C23.0676 17.5629 23.6661 17.445 24.2249 17.2137C24.7837 16.9824 25.2919 16.6424 25.7204 16.2129C26.149 15.7834 26.4894 15.2729 26.7224 14.7106C26.9554 14.1483 27.0763 13.5452 27.0782 12.9357C27.0763 12.3263 26.9554 11.7232 26.7224 11.1609C26.4894 10.5985 26.149 10.0881 25.7204 9.65858C25.2919 9.22909 24.7837 8.88899 24.2249 8.65773C23.6661 8.42646 23.0676 8.30856 22.4636 8.31075C21.8593 8.30832 21.2604 8.42609 20.7011 8.65734C20.1419 8.88859 19.6332 9.22878 19.2044 9.65846C18.7755 10.0882 18.4347 10.5989 18.2015 11.1616C17.9683 11.7242 17.8474 12.3277 17.8455 12.9376L17.8472 12.9357Z" fill="#212121"/>
</svg>
