<svg width="28" height="28" viewBox="0 0 28 28" fill="none" xmlns="http://www.w3.org/2000/svg">
<path d="M13.0771 24.9999C11.6275 25.005 10.1911 24.7245 8.84988 24.1744C7.50868 23.6244 6.28895 22.8155 5.26035 21.7941C4.23174 20.7727 3.41436 19.5586 2.85495 18.2213C2.29554 16.884 2.00505 15.4496 2 14C2.00505 12.5504 2.29554 11.116 2.85495 9.77869C3.41436 8.44138 4.23174 7.22735 5.26035 6.20591C6.28895 5.18447 7.50868 4.37563 8.84988 3.82557C10.1911 3.27551 11.6275 2.995 13.0771 3.00007C16.0142 3.01052 18.8278 4.18287 20.9033 6.26103C22.9788 8.33918 24.1475 11.1542 24.1542 14.0913C24.0974 16.4151 23.3755 18.6739 22.0741 20.6H26V24.9999H13.0771ZM21.6 23.8999H24.9V21.7H21.6V23.8999ZM17.9095 23.8999H20.5V22.1982C19.3999 22.8758 18.8401 23.8999 17.9095 23.8999ZM10.3073 20.875C10.3086 21.2374 10.3812 21.596 10.5211 21.9304C10.661 22.2647 10.8654 22.5682 11.1226 22.8236C11.3798 23.079 11.6848 23.2812 12.0201 23.4186C12.3555 23.5561 12.7147 23.6262 13.0771 23.6249C13.4395 23.6262 13.7986 23.5561 14.1339 23.4186C14.4692 23.2811 14.7741 23.0789 15.0312 22.8235C15.2883 22.5682 15.4926 22.2646 15.6324 21.9303C15.7721 21.5959 15.8446 21.2373 15.8458 20.875C15.8446 20.5126 15.7721 20.154 15.6324 19.8196C15.4926 19.4853 15.2883 19.1818 15.0312 18.9264C14.7741 18.671 14.4692 18.4688 14.1339 18.3313C13.7986 18.1938 13.4395 18.1237 13.0771 18.125C12.7147 18.1237 12.3555 18.1938 12.0201 18.3313C11.6848 18.4688 11.3798 18.671 11.1226 18.9263C10.8654 19.1817 10.661 19.4852 10.5211 19.8195C10.3812 20.1539 10.3086 20.5125 10.3073 20.875ZM16.5399 17.4364C16.5411 17.7988 16.6136 18.1574 16.7534 18.4917C16.8932 18.826 17.0974 19.1296 17.3545 19.3849C17.6117 19.6403 17.9166 19.8425 18.2519 19.98C18.5871 20.1176 18.9462 20.1877 19.3086 20.1864C20.0404 20.1887 20.7432 19.9003 21.2624 19.3846C21.7816 18.8689 22.0748 18.1682 22.0774 17.4364C22.0748 16.7046 21.7816 16.0038 21.2624 15.4881C20.7432 14.9724 20.0404 14.6841 19.3086 14.6864C18.9461 14.6849 18.5868 14.755 18.2513 14.8925C17.9158 15.03 17.6107 15.2323 17.3535 15.4878C17.0962 15.7433 16.8919 16.047 16.7521 16.3816C16.6123 16.7161 16.5398 17.0749 16.5388 17.4375L16.5399 17.4364ZM4.07789 17.4364C4.07905 17.7988 4.15162 18.1574 4.2914 18.4917C4.43118 18.826 4.63545 19.1296 4.89256 19.3849C5.14968 19.6403 5.45459 19.8425 5.78988 19.98C6.12516 20.1176 6.48426 20.1877 6.84665 20.1864C7.20909 20.1877 7.56821 20.1176 7.90355 19.9801C8.2389 19.8426 8.54394 19.6404 8.80114 19.385C9.05834 19.1297 9.26267 18.8261 9.40257 18.4918C9.54247 18.1574 9.61518 17.7988 9.61648 17.4364C9.61518 17.0739 9.54247 16.7153 9.40257 16.381C9.26267 16.0466 9.05834 15.7431 8.80114 15.4877C8.54394 15.2324 8.2389 15.0302 7.90355 14.8927C7.56821 14.7552 7.20909 14.6851 6.84665 14.6864C6.48408 14.6849 6.12476 14.755 5.78927 14.8925C5.45379 15.03 5.14873 15.2323 4.89149 15.4878C4.63424 15.7433 4.42984 16.047 4.29005 16.3816C4.15027 16.7161 4.07783 17.0749 4.07682 17.4375L4.07789 17.4364ZM16.5399 10.5614C16.5426 11.2932 16.8357 11.994 17.3549 12.5097C17.8741 13.0254 18.5768 13.3137 19.3086 13.3114C20.0404 13.3137 20.7432 13.0254 21.2624 12.5097C21.7816 11.994 22.0748 11.2932 22.0774 10.5614C22.0748 9.82964 21.7816 9.12886 21.2624 8.61317C20.7432 8.09748 20.0404 7.8091 19.3086 7.81144C18.9461 7.80999 18.5868 7.88003 18.2513 8.01754C17.9158 8.15505 17.6107 8.35734 17.3535 8.61285C17.0962 8.86835 16.8919 9.17206 16.7521 9.5066C16.6123 9.84114 16.5398 10.2 16.5388 10.5625L16.5399 10.5614ZM4.07789 10.5614C4.08051 11.2932 4.37369 11.994 4.8929 12.5097C5.4121 13.0254 6.11486 13.3137 6.84665 13.3114C7.57854 13.3137 8.28142 13.0254 8.8008 12.5097C9.32018 11.9941 9.61357 11.2933 9.61648 10.5614C9.61518 10.199 9.54247 9.84036 9.40257 9.50601C9.26267 9.17166 9.05834 8.86814 8.80114 8.61278C8.54394 8.35742 8.2389 8.15522 7.90355 8.01773C7.56821 7.88023 7.20909 7.81014 6.84665 7.81144C6.48408 7.80999 6.12476 7.88003 5.78927 8.01754C5.45379 8.15505 5.14873 8.35734 4.89149 8.61285C4.63424 8.86835 4.42984 9.17206 4.29005 9.5066C4.15027 9.84114 4.07783 10.2 4.07682 10.5625L4.07789 10.5614ZM10.3083 7.12394C10.3096 7.48638 10.3824 7.845 10.5223 8.17935C10.6622 8.5137 10.8666 8.81722 11.1238 9.07258C11.381 9.32794 11.6859 9.53014 12.0213 9.66763C12.3566 9.80513 12.7157 9.87523 13.0782 9.87392C13.4406 9.87523 13.7997 9.80512 14.135 9.66761C14.4702 9.5301 14.7752 9.32789 15.0323 9.07251C15.2894 8.81714 15.4937 8.51361 15.6334 8.17927C15.7732 7.84493 15.8458 7.48632 15.8469 7.12394C15.8458 6.76156 15.7732 6.40296 15.6334 6.06861C15.4937 5.73427 15.2894 5.43075 15.0323 5.17537C14.7752 4.92 14.4702 4.71778 14.135 4.58027C13.7997 4.44276 13.4406 4.37266 13.0782 4.37396C12.7156 4.37251 12.3562 4.44254 12.0207 4.58004C11.6851 4.71754 11.3799 4.91981 11.1226 5.1753C10.8653 5.43079 10.6608 5.73449 10.5209 6.06904C10.381 6.40359 10.3084 6.76242 10.3073 7.12504L10.3083 7.12394Z" fill="#212121"/>
</svg>
