<svg width="24" height="24" viewBox="0 0 24 24" fill="none" xmlns="http://www.w3.org/2000/svg">
<path d="M11.2309 20.9999C10.0229 21.0041 8.8259 20.7746 7.70824 20.3245C6.59057 19.8745 5.57413 19.2127 4.71696 18.377C3.85979 17.5413 3.17863 16.548 2.71246 15.4538C2.24628 14.3596 2.00421 13.186 2 12C2.00421 10.814 2.24628 9.64037 2.71246 8.54621C3.17863 7.45204 3.85979 6.45874 4.71696 5.62301C5.57413 4.78729 6.59057 4.12551 7.70824 3.67546C8.8259 3.22542 10.0229 2.99591 11.2309 3.00006C13.6785 3.00861 16.0231 3.9678 17.7527 5.66811C19.4823 7.36842 20.4563 9.67166 20.4618 12.0747C20.4145 13.976 19.8129 15.8241 18.7284 17.4H22V20.9999H11.2309ZM18.3333 20.1H21.0833V18.3H18.3333V20.1ZM15.2579 20.1H17.4166V18.7077C16.5 19.2621 16.0334 20.1 15.2579 20.1ZM8.92273 17.625C8.92381 17.9215 8.98434 18.2149 9.10093 18.4885C9.21751 18.762 9.38784 19.0104 9.60218 19.2193C9.81651 19.4282 10.0707 19.5937 10.3501 19.7062C10.6296 19.8187 10.9289 19.876 11.2309 19.875C11.5329 19.876 11.8322 19.8187 12.1116 19.7062C12.391 19.5936 12.6451 19.4282 12.8593 19.2192C13.0736 19.0103 13.2438 18.762 13.3603 18.4884C13.4768 18.2149 13.5372 17.9215 13.5382 17.625C13.5372 17.3285 13.4768 17.0351 13.3603 16.7615C13.2438 16.488 13.0736 16.2396 12.8593 16.0307C12.6451 15.8217 12.391 15.6563 12.1116 15.5438C11.8322 15.4313 11.5329 15.3739 11.2309 15.375C10.9289 15.3739 10.6296 15.4313 10.3501 15.5438C10.0707 15.6563 9.81651 15.8217 9.60218 16.0306C9.38784 16.2396 9.21751 16.4879 9.10093 16.7614C8.98434 17.035 8.92381 17.3284 8.92273 17.625ZM14.1166 14.8116C14.1176 15.1081 14.178 15.4015 14.2945 15.675C14.411 15.9486 14.5812 16.1969 14.7955 16.4059C15.0097 16.6148 15.2638 16.7803 15.5432 16.8928C15.8226 17.0053 16.1219 17.0626 16.4239 17.0616C17.0337 17.0635 17.6193 16.8275 18.052 16.4056C18.4847 15.9837 18.729 15.4103 18.7312 14.8116C18.729 14.2129 18.4847 13.6395 18.052 13.2176C17.6193 12.7956 17.0337 12.5597 16.4239 12.5616C16.1217 12.5604 15.8223 12.6177 15.5428 12.7302C15.2632 12.8427 15.0089 13.0082 14.7946 13.2173C14.5802 13.4263 14.4099 13.6748 14.2934 13.9485C14.1769 14.2223 14.1165 14.5158 14.1157 14.8125L14.1166 14.8116ZM3.73158 14.8116C3.73254 15.1081 3.79301 15.4015 3.9095 15.675C4.02598 15.9486 4.1962 16.1969 4.41047 16.4059C4.62473 16.6148 4.87883 16.7803 5.15823 16.8928C5.43764 17.0053 5.73688 17.0626 6.03887 17.0616C6.34091 17.0626 6.64017 17.0053 6.91963 16.8928C7.19909 16.7803 7.45328 16.6149 7.66762 16.4059C7.88195 16.197 8.05223 15.9487 8.16881 15.6751C8.28539 15.4015 8.34598 15.1081 8.34707 14.8116C8.34598 14.515 8.28539 14.2216 8.16881 13.9481C8.05223 13.6745 7.88195 13.4262 7.66762 13.2172C7.45328 13.0083 7.19909 12.8429 6.91963 12.7304C6.64017 12.6179 6.34091 12.5605 6.03887 12.5616C5.73673 12.5604 5.4373 12.6177 5.15773 12.7302C4.87816 12.8427 4.62394 13.0082 4.40957 13.2173C4.1952 13.4263 4.02486 13.6748 3.90838 13.9485C3.79189 14.2223 3.73152 14.5158 3.73068 14.8125L3.73158 14.8116ZM14.1166 9.18662C14.1188 9.78534 14.3631 10.3587 14.7957 10.7806C15.2284 11.2026 15.814 11.4385 16.4239 11.4366C17.0337 11.4385 17.6193 11.2026 18.052 10.7806C18.4847 10.3587 18.729 9.78534 18.7312 9.18662C18.729 8.58789 18.4847 8.01453 18.052 7.5926C17.6193 7.17067 17.0337 6.93472 16.4239 6.93663C16.1217 6.93545 15.8223 6.99275 15.5428 7.10526C15.2632 7.21777 15.0089 7.38328 14.7946 7.59233C14.5802 7.80138 14.4099 8.04987 14.2934 8.32358C14.1769 8.5973 14.1165 8.89087 14.1157 9.18752L14.1166 9.18662ZM3.73158 9.18662C3.73376 9.78534 3.97808 10.3587 4.41075 10.7806C4.84342 11.2026 5.42905 11.4385 6.03887 11.4366C6.64878 11.4385 7.23452 11.2026 7.66734 10.7807C8.10015 10.3588 8.34464 9.78543 8.34707 9.18662C8.34598 8.89008 8.28539 8.59666 8.16881 8.3231C8.05223 8.04954 7.88195 7.80121 7.66762 7.59228C7.45328 7.38335 7.19909 7.21791 6.91963 7.10541C6.64017 6.99292 6.34091 6.93557 6.03887 6.93663C5.73673 6.93545 5.4373 6.99275 5.15773 7.10526C4.87816 7.21777 4.62394 7.38328 4.40957 7.59233C4.1952 7.80138 4.02486 8.04987 3.90838 8.32358C3.79189 8.5973 3.73152 8.89087 3.73068 9.18752L3.73158 9.18662ZM8.92362 6.37413C8.92471 6.67067 8.9853 6.96409 9.10188 7.23765C9.21846 7.51121 9.38879 7.75954 9.60313 7.96847C9.81746 8.17741 10.0716 8.34284 10.3511 8.45534C10.6305 8.56783 10.9298 8.62519 11.2318 8.62412C11.5338 8.62519 11.8331 8.56783 12.1125 8.45532C12.3919 8.34281 12.646 8.17736 12.8602 7.96842C13.0745 7.75948 13.2447 7.51114 13.3612 7.23758C13.4777 6.96403 13.5382 6.67063 13.5391 6.37413C13.5382 6.07764 13.4777 5.78424 13.3612 5.51068C13.2447 5.23713 13.0745 4.98879 12.8602 4.77985C12.646 4.57091 12.3919 4.40546 12.1125 4.29295C11.8331 4.18044 11.5338 4.12308 11.2318 4.12415C10.9296 4.12296 10.6302 4.18026 10.3506 4.29276C10.0709 4.40526 9.81662 4.57076 9.60218 4.77979C9.38773 4.98883 9.21735 5.23731 9.10076 5.51103C8.98417 5.78475 8.92369 6.07835 8.92273 6.37503L8.92362 6.37413Z" fill="#212121"/>
</svg>
