<svg width="32" height="32" viewBox="0 0 32 32" fill="none" xmlns="http://www.w3.org/2000/svg">
<path d="M14.9233 28.9999C13.2321 29.0059 11.5563 28.6744 9.99153 28.0243C8.42679 27.3743 7.00378 26.4184 5.80374 25.2112C4.6037 24.004 3.65009 22.5693 2.99744 20.9888C2.3448 19.4084 2.00589 17.7132 2 16C2.00589 14.2868 2.3448 12.5916 2.99744 11.0112C3.65009 9.43072 4.6037 7.99595 5.80374 6.7888C7.00378 5.58164 8.42679 4.62574 9.99153 3.97567C11.5563 3.3256 13.2321 2.99409 14.9233 3.00008C18.3499 3.01244 21.6324 4.39794 24.0538 6.85394C26.4752 9.30994 27.8388 12.6368 27.8466 16.1079C27.7803 18.8542 26.9381 21.5237 25.4198 23.8H30V28.9999H14.9233ZM24.8666 27.6999H28.7167V25.0999H24.8666V27.6999ZM20.561 27.6999H23.5833V25.6888C22.2999 26.4896 21.6467 27.6999 20.561 27.6999ZM11.6918 24.125C11.6933 24.5533 11.7781 24.9771 11.9413 25.3723C12.1045 25.7674 12.343 26.1261 12.643 26.4279C12.9431 26.7297 13.2989 26.9686 13.6902 27.1311C14.0814 27.2936 14.5004 27.3765 14.9233 27.3749C15.3461 27.3765 15.765 27.2936 16.1562 27.1311C16.5474 26.9686 16.9031 26.7296 17.2031 26.4278C17.503 26.126 17.7413 25.7673 17.9044 25.3722C18.0675 24.977 18.1521 24.5532 18.1534 24.125C18.1521 23.6967 18.0675 23.2729 17.9044 22.8777C17.7413 22.4826 17.503 22.1239 17.2031 21.8221C16.9031 21.5203 16.5474 21.2813 16.1562 21.1188C15.765 20.9563 15.3461 20.8734 14.9233 20.875C14.5004 20.8734 14.0814 20.9563 13.6902 21.1188C13.2989 21.2813 12.9431 21.5202 12.643 21.822C12.343 22.1238 12.1045 22.4825 11.9413 22.8776C11.7781 23.2728 11.6933 23.6966 11.6918 24.125ZM18.9633 20.0612C18.9646 20.4894 19.0492 20.9132 19.2123 21.3084C19.3754 21.7035 19.6137 22.0622 19.9136 22.364C20.2136 22.6658 20.5693 22.9048 20.9605 23.0673C21.3517 23.2298 21.7706 23.3127 22.1934 23.3112C23.0472 23.3139 23.867 22.9731 24.4728 22.3637C25.0785 21.7542 25.4206 20.926 25.4236 20.0612C25.4206 19.1963 25.0785 18.3682 24.4728 17.7587C23.867 17.1492 23.0472 16.8084 22.1934 16.8112C21.7704 16.8095 21.3513 16.8923 20.9599 17.0548C20.5685 17.2173 20.2125 17.4564 19.9124 17.7583C19.6123 18.0603 19.3739 18.4192 19.2108 18.8146C19.0477 19.2099 18.9631 19.634 18.9619 20.0625L18.9633 20.0612ZM4.42421 20.0612C4.42555 20.4894 4.51022 20.9132 4.67329 21.3084C4.83637 21.7035 5.07469 22.0622 5.37465 22.364C5.67462 22.6658 6.03036 22.9048 6.42152 23.0673C6.81269 23.2298 7.23164 23.3127 7.65442 23.3112C8.07727 23.3127 8.49624 23.2299 8.88748 23.0674C9.27872 22.9049 9.63459 22.6659 9.93466 22.3641C10.2347 22.0623 10.4731 21.7036 10.6363 21.3085C10.7996 20.9133 10.8844 20.4895 10.8859 20.0612C10.8844 19.6328 10.7996 19.209 10.6363 18.8139C10.4731 18.4187 10.2347 18.06 9.93466 17.7582C9.63459 17.4565 9.27872 17.2175 8.88748 17.055C8.49624 16.8925 8.07727 16.8097 7.65442 16.8112C7.23142 16.8095 6.81222 16.8923 6.42082 17.0548C6.02942 17.2173 5.67352 17.4564 5.3734 17.7583C5.07328 18.0603 4.83481 18.4192 4.67173 18.8146C4.50865 19.2099 4.42413 19.634 4.42295 20.0625L4.42421 20.0612ZM18.9633 11.9362C18.9663 12.8011 19.3083 13.6292 19.914 14.2387C20.5198 14.8482 21.3397 15.189 22.1934 15.1862C23.0472 15.189 23.867 14.8482 24.4728 14.2387C25.0785 13.6292 25.4206 12.8011 25.4236 11.9362C25.4206 11.0714 25.0785 10.2432 24.4728 9.63375C23.867 9.0243 23.0472 8.68348 22.1934 8.68624C21.7704 8.68453 21.3513 8.7673 20.9599 8.92982C20.5685 9.09233 20.2125 9.33141 19.9124 9.63337C19.6123 9.93533 19.3739 10.2943 19.2108 10.6896C19.0477 11.085 18.9631 11.509 18.9619 11.9375L18.9633 11.9362ZM4.42421 11.9362C4.42727 12.8011 4.76931 13.6292 5.37505 14.2387C5.98079 14.8482 6.80067 15.189 7.65442 15.1862C8.5083 15.189 9.32833 14.8482 9.93427 14.2388C10.5402 13.6294 10.8825 12.8012 10.8859 11.9362C10.8844 11.5079 10.7996 11.0841 10.6363 10.6889C10.4731 10.2938 10.2347 9.93508 9.93466 9.63329C9.63459 9.3315 9.27872 9.09254 8.88748 8.93004C8.49624 8.76755 8.07727 8.68471 7.65442 8.68624C7.23142 8.68453 6.81222 8.7673 6.42082 8.92982C6.02942 9.09233 5.67352 9.33141 5.3734 9.63337C5.07328 9.93533 4.83481 10.2943 4.67173 10.6896C4.50865 11.085 4.42413 11.509 4.42295 11.9375L4.42421 11.9362ZM11.6931 7.87375C11.6946 8.30208 11.7794 8.72591 11.9426 9.12105C12.1058 9.51619 12.3443 9.8749 12.6444 10.1767C12.9444 10.4785 13.3002 10.7174 13.6915 10.8799C14.0827 11.0424 14.5017 11.1253 14.9245 11.1237C15.3473 11.1253 15.7663 11.0424 16.1574 10.8799C16.5486 10.7174 16.9043 10.4784 17.2043 10.1766C17.5043 9.8748 17.7426 9.51609 17.9057 9.12096C18.0687 8.72582 18.1534 8.30202 18.1548 7.87375C18.1534 7.44548 18.0687 7.02168 17.9057 6.62654C17.7426 6.23141 17.5043 5.8727 17.2043 5.57089C16.9043 5.26909 16.5486 5.0301 16.1574 4.86759C15.7663 4.70508 15.3473 4.62223 14.9245 4.62377C14.5015 4.62206 14.0822 4.70482 13.6908 4.86732C13.2993 5.02982 12.9433 5.26887 12.643 5.57081C12.3428 5.87276 12.1043 6.23167 11.9411 6.62705C11.7778 7.02242 11.6932 7.4465 11.6918 7.87505L11.6931 7.87375Z" fill="#212121"/>
</svg>
