<svg width="20" height="20" viewBox="0 0 20 20" fill="none" xmlns="http://www.w3.org/2000/svg">
<path d="M9.38474 17.5C8.41833 17.5034 7.46072 17.3122 6.56659 16.9371C5.67245 16.5621 4.8593 16.0106 4.17357 15.3142C3.48783 14.6177 2.94291 13.79 2.56997 12.8782C2.19703 11.9664 2.00336 10.9884 2 10C2.00336 9.01164 2.19703 8.03364 2.56997 7.12184C2.94291 6.21003 3.48783 5.38228 4.17357 4.68585C4.8593 3.98941 5.67245 3.43793 6.56659 3.06289C7.46072 2.68785 8.41833 2.49659 9.38474 2.50005C11.3428 2.50717 13.2185 3.3065 14.6022 4.72343C15.9858 6.14035 16.765 8.05971 16.7695 10.0622C16.7316 11.6467 16.2503 13.1868 15.3827 14.5H18V17.5H9.38474ZM15.0666 16.75H17.2667V15.25H15.0666V16.75ZM12.6063 16.75H14.3333V15.5897C13.6 16.0517 13.2267 16.75 12.6063 16.75ZM7.53818 14.6875C7.53905 14.9346 7.58748 15.1791 7.68074 15.4071C7.77401 15.635 7.91027 15.842 8.08174 16.0161C8.25321 16.1902 8.45652 16.3281 8.68009 16.4218C8.90365 16.5156 9.14311 16.5633 9.38474 16.5625C9.62633 16.5633 9.86573 16.5155 10.0893 16.4218C10.3128 16.328 10.5161 16.1902 10.6875 16.016C10.8589 15.8419 10.9951 15.635 11.0882 15.407C11.1814 15.1791 11.2298 14.9345 11.2305 14.6875C11.2298 14.4404 11.1814 14.1959 11.0882 13.9679C10.9951 13.74 10.8589 13.533 10.6875 13.3589C10.5161 13.1848 10.3128 13.0469 10.0893 12.9531C9.86573 12.8594 9.62633 12.8116 9.38474 12.8125C9.14311 12.8116 8.90365 12.8594 8.68009 12.9531C8.45652 13.0469 8.25321 13.1847 8.08174 13.3589C7.91027 13.533 7.77401 13.7399 7.68074 13.9679C7.58748 14.1958 7.53905 14.4404 7.53818 14.6875ZM11.6933 12.343C11.6941 12.5901 11.7424 12.8346 11.8356 13.0625C11.9288 13.2905 12.065 13.4974 12.2364 13.6716C12.4078 13.8457 12.6111 13.9836 12.8346 14.0773C13.0581 14.1711 13.2975 14.2189 13.5391 14.218C14.0269 14.2196 14.4955 14.0229 14.8416 13.6713C15.1877 13.3197 15.3832 12.8419 15.3849 12.343C15.3832 11.844 15.1877 11.3662 14.8416 11.0146C14.4955 10.663 14.0269 10.4664 13.5391 10.468C13.2974 10.467 13.0579 10.5148 12.8342 10.6085C12.6106 10.7023 12.4071 10.8402 12.2356 11.0144C12.0642 11.1886 11.9279 11.3957 11.8347 11.6238C11.7415 11.8519 11.6932 12.0965 11.6925 12.3437L11.6933 12.343ZM3.38526 12.343C3.38603 12.5901 3.43441 12.8346 3.5276 13.0625C3.62078 13.2905 3.75696 13.4974 3.92837 13.6716C4.09978 13.8457 4.30306 13.9836 4.52658 14.0773C4.75011 14.1711 4.98951 14.2189 5.2311 14.218C5.47272 14.2189 5.71214 14.1711 5.9357 14.0773C6.15927 13.9836 6.36262 13.8457 6.53409 13.6716C6.70556 13.4975 6.84178 13.2905 6.93505 13.0626C7.02831 12.8346 7.07679 12.5901 7.07765 12.343C7.07679 12.0959 7.02831 11.8514 6.93505 11.6234C6.84178 11.3954 6.70556 11.1885 6.53409 11.0144C6.36262 10.8403 6.15927 10.7024 5.9357 10.6086C5.71214 10.5149 5.47272 10.4671 5.2311 10.468C4.98938 10.467 4.74984 10.5148 4.52618 10.6085C4.30253 10.7023 4.09915 10.8402 3.92766 11.0144C3.75616 11.1886 3.61989 11.3957 3.5267 11.6238C3.43351 11.8519 3.38522 12.0965 3.38455 12.3437L3.38526 12.343ZM11.6933 7.65551C11.695 8.15445 11.8905 8.63226 12.2366 8.98387C12.5827 9.33547 13.0512 9.5321 13.5391 9.5305C14.0269 9.5321 14.4955 9.33547 14.8416 8.98387C15.1877 8.63226 15.3832 8.15445 15.3849 7.65551C15.3832 7.15658 15.1877 6.67877 14.8416 6.32716C14.4955 5.97556 14.0269 5.77893 13.5391 5.78053C13.2974 5.77954 13.0579 5.82729 12.8342 5.92105C12.6106 6.01481 12.4071 6.15273 12.2356 6.32694C12.0642 6.50115 11.9279 6.70822 11.8347 6.93632C11.7415 7.16441 11.6932 7.40906 11.6925 7.65626L11.6933 7.65551ZM3.38526 7.65551C3.38701 8.15445 3.58246 8.63226 3.9286 8.98387C4.27473 9.33547 4.74324 9.5321 5.2311 9.5305C5.71903 9.5321 6.18762 9.3355 6.53387 8.98391C6.88012 8.63232 7.07571 8.15452 7.07765 7.65551C7.07679 7.4084 7.02831 7.16388 6.93505 6.93592C6.84178 6.70795 6.70556 6.50101 6.53409 6.3269C6.36262 6.15279 6.15927 6.01492 5.9357 5.92118C5.71214 5.82743 5.47272 5.77964 5.2311 5.78053C4.98938 5.77954 4.74984 5.82729 4.52618 5.92105C4.30253 6.01481 4.09915 6.15273 3.92766 6.32694C3.75616 6.50115 3.61989 6.70822 3.5267 6.93632C3.43351 7.16441 3.38522 7.40906 3.38455 7.65626L3.38526 7.65551ZM7.5389 5.31178C7.53976 5.55889 7.58824 5.80341 7.6815 6.03138C7.77477 6.25934 7.91103 6.46629 8.0825 6.6404C8.25397 6.8145 8.45728 6.95237 8.68085 7.04611C8.90441 7.13986 9.14383 7.18766 9.38545 7.18677C9.62704 7.18766 9.86644 7.13986 10.09 7.0461C10.3135 6.95234 10.5168 6.81447 10.6882 6.64035C10.8596 6.46623 10.9958 6.25928 11.089 6.03132C11.1821 5.80336 11.2305 5.55886 11.2313 5.31178C11.2305 5.0647 11.1821 4.8202 11.089 4.59224C10.9958 4.36428 10.8596 4.15733 10.6882 3.98321C10.5168 3.80909 10.3135 3.67121 10.09 3.57746C9.86644 3.4837 9.62704 3.4359 9.38545 3.43679C9.1437 3.4358 8.90414 3.48355 8.68045 3.5773C8.45675 3.67105 8.2533 3.80896 8.08174 3.98316C7.91019 4.15736 7.77388 4.36443 7.68061 4.59253C7.58734 4.82063 7.53895 5.06529 7.53818 5.31253L7.5389 5.31178Z" fill="#212121"/>
</svg>
