<svg width="29" height="29" viewBox="0 0 29 29" fill="none" xmlns="http://www.w3.org/2000/svg">
<path fill-rule="evenodd" clip-rule="evenodd" d="M21.7877 5.448H13.2242C13.0519 4.91453 12.8125 4.41121 12.5159 3.948H21.7877C23.8588 3.948 25.5377 5.62693 25.5377 7.698V22.198C25.5377 24.2691 23.8588 25.948 21.7877 25.948H7.28772C5.21665 25.948 3.53772 24.2691 3.53772 22.198V12.9262C4.00093 13.2227 4.50425 13.4622 5.03772 13.6345V22.198C5.03772 22.559 5.12273 22.9001 5.27383 23.2025L13.1397 15.5154C13.9168 14.7559 15.1582 14.7559 15.9354 15.5154L23.8015 23.2027C23.9527 22.9003 24.0377 22.5591 24.0377 22.198V7.698C24.0377 6.45536 23.0304 5.448 21.7877 5.448ZM22.7222 24.2454L14.887 16.5882C14.6927 16.3983 14.3824 16.3983 14.1881 16.5882L6.35296 24.2452C6.63765 24.3754 6.95421 24.448 7.28772 24.448H21.7877C22.1211 24.448 22.4376 24.3755 22.7222 24.2454Z" fill="#212121"/>
<path fill-rule="evenodd" clip-rule="evenodd" d="M19.0377 13.448C20.4184 13.448 21.5377 12.3287 21.5377 10.948C21.5377 9.56729 20.4184 8.448 19.0377 8.448C17.657 8.448 16.5377 9.56729 16.5377 10.948C16.5377 12.3287 17.657 13.448 19.0377 13.448ZM19.0377 11.948C18.4854 11.948 18.0377 11.5003 18.0377 10.948C18.0377 10.3957 18.4854 9.948 19.0377 9.948C19.59 9.948 20.0377 10.3957 20.0377 10.948C20.0377 11.5003 19.59 11.948 19.0377 11.948Z" fill="#212121"/>
<path fill-rule="evenodd" clip-rule="evenodd" d="M7.03772 12.948C10.0753 12.948 12.5377 10.4856 12.5377 7.448C12.5377 4.41043 10.0753 1.948 7.03772 1.948C4.00015 1.948 1.53772 4.41043 1.53772 7.448C1.53772 10.4856 4.00015 12.948 7.03772 12.948ZM10.3913 5.80155L6.39127 9.80155C6.19601 9.99681 5.87943 9.99681 5.68417 9.80155L3.68417 7.80155C3.4889 7.60629 3.4889 7.28971 3.68417 7.09444C3.87943 6.89918 4.19601 6.89918 4.39127 7.09444L6.03772 8.74089L9.68417 5.09444C9.87943 4.89918 10.196 4.89918 10.3913 5.09444C10.5865 5.28971 10.5865 5.60629 10.3913 5.80155Z" fill="#212121"/>
</svg>
