<svg width="25" height="25" viewBox="0 0 25 25" fill="none" xmlns="http://www.w3.org/2000/svg">
<path d="M18.2877 5.448H13.2242C13.0519 4.91453 12.8125 4.41121 12.5159 3.948H18.2877C20.0826 3.948 21.5377 5.40307 21.5377 7.198V18.698C21.5377 20.4929 20.0826 21.948 18.2877 21.948H6.78772C4.99279 21.948 3.53772 20.4929 3.53772 18.698V12.9262C4.00093 13.2227 4.50425 13.4622 5.03772 13.6345V18.698C5.03772 18.9064 5.07415 19.1063 5.14098 19.2917L10.9635 13.591C11.7966 12.7753 13.1052 12.7365 13.9835 13.4746L14.1119 13.5911L19.9341 19.2927C20.0012 19.107 20.0377 18.9068 20.0377 18.698V7.198C20.0377 6.2315 19.2542 5.448 18.2877 5.448ZM18.8683 20.3494L13.0624 14.6628C12.7973 14.4033 12.3878 14.3796 12.0965 14.592L12.0129 14.6628L6.20617 20.349C6.38812 20.4131 6.58385 20.448 6.78772 20.448H18.2877C18.4912 20.448 18.6866 20.4133 18.8683 20.3494Z" fill="#212121"/>
<path d="M15.7898 7.448C17.0336 7.448 18.042 8.4563 18.042 9.70011C18.042 10.9439 17.0336 11.9522 15.7898 11.9522C14.546 11.9522 13.5377 10.9439 13.5377 9.70011C13.5377 8.4563 14.546 7.448 15.7898 7.448ZM15.7898 8.948C15.3745 8.948 15.0377 9.28473 15.0377 9.70011C15.0377 10.1155 15.3745 10.4522 15.7898 10.4522C16.2052 10.4522 16.542 10.1155 16.542 9.70011C16.542 9.28473 16.2052 8.948 15.7898 8.948Z" fill="#212121"/>
<path d="M7.03772 12.948C10.0753 12.948 12.5377 10.4856 12.5377 7.448C12.5377 4.41043 10.0753 1.948 7.03772 1.948C4.00015 1.948 1.53772 4.41043 1.53772 7.448C1.53772 10.4856 4.00015 12.948 7.03772 12.948ZM10.3913 5.80155L6.39127 9.80155C6.19601 9.99681 5.87943 9.99681 5.68417 9.80155L3.68417 7.80155C3.4889 7.60629 3.4889 7.28971 3.68417 7.09444C3.87943 6.89918 4.19601 6.89918 4.39127 7.09444L6.03772 8.74089L9.68417 5.09444C9.87943 4.89918 10.196 4.89918 10.3913 5.09444C10.5865 5.28971 10.5865 5.60629 10.3913 5.80155Z" fill="#212121"/>
</svg>
