<svg width="33" height="33" viewBox="0 0 33 33" fill="none" xmlns="http://www.w3.org/2000/svg">
<path d="M18.5377 9.948C18.5377 12.6132 17.3792 15.0078 15.5384 16.6557C16.453 16.2572 17.5574 16.4321 18.3056 17.1802L28.894 27.7686C29.3026 27.091 29.5377 26.297 29.5377 25.448V8.448C29.5377 5.96272 27.523 3.948 25.0377 3.948H16.246C17.6712 5.54027 18.5377 7.64293 18.5377 9.948ZM25.0377 11.948C25.0377 13.6049 23.6946 14.948 22.0377 14.948C20.3809 14.948 19.0377 13.6049 19.0377 11.948C19.0377 10.2911 20.3809 8.948 22.0377 8.948C23.6946 8.948 25.0377 10.2911 25.0377 11.948Z" fill="#212121"/>
<path d="M9.53772 18.948C11.3624 18.948 13.0603 18.405 14.4785 17.4717L4.18153 27.7687C3.77284 27.0911 3.53772 26.297 3.53772 25.448V16.6563C5.12999 18.0814 7.23266 18.948 9.53772 18.948Z" fill="#212121"/>
<path d="M27.5073 29.2104L16.8913 18.5944C16.6961 18.3992 16.3795 18.3992 16.1842 18.5944L5.56822 29.2105C6.27717 29.6767 7.12576 29.948 8.03772 29.948H25.0377C25.9497 29.948 26.7983 29.6767 27.5073 29.2104Z" fill="#212121"/>
<path d="M17.0377 9.948C17.0377 5.80586 13.6799 2.448 9.53772 2.448C5.39558 2.448 2.03772 5.80586 2.03772 9.948C2.03772 14.0901 5.39558 17.448 9.53772 17.448C13.6799 17.448 17.0377 14.0901 17.0377 9.948ZM14.068 8.22833L8.81805 13.4783C8.52516 13.7712 8.05028 13.7712 7.75739 13.4783L5.25739 10.9783C4.9645 10.6854 4.9645 10.2106 5.25739 9.91767C5.55028 9.62477 6.02516 9.62477 6.31805 9.91767L8.28772 11.8873L13.0074 7.16767C13.3003 6.87477 13.7752 6.87477 14.068 7.16767C14.3609 7.46056 14.3609 7.93543 14.068 8.22833Z" fill="#212121"/>
</svg>
