<svg width="21" height="21" viewBox="0 0 21 21" fill="none" xmlns="http://www.w3.org/2000/svg">
<path d="M14.5377 4.948H11.3307C11.2321 4.59936 11.1 4.26479 10.938 3.948H14.5377C16.1946 3.948 17.5377 5.29114 17.5377 6.948V14.948C17.5377 16.6049 16.1946 17.948 14.5377 17.948H6.53772C4.88087 17.948 3.53772 16.6049 3.53772 14.948V11.3483C3.85451 11.5102 4.18908 11.6424 4.53772 11.741V14.948C4.53772 15.3206 4.63963 15.6695 4.81709 15.9681L9.4864 11.38C10.07 10.8066 11.0054 10.8066 11.589 11.38L16.2583 15.9681C16.4358 15.6695 16.5377 15.3206 16.5377 14.948V6.948C16.5377 5.84343 15.6423 4.948 14.5377 4.948ZM5.52596 16.6736C5.82277 16.848 6.16857 16.948 6.53772 16.948H14.5377C14.9069 16.948 15.2527 16.848 15.5495 16.6736L10.8882 12.0933C10.6936 11.9022 10.3818 11.9022 10.1873 12.0933L5.52596 16.6736Z" fill="#212121"/>
<path d="M14.5377 8.448C14.5377 9.27643 13.8661 9.948 13.0377 9.948C12.2093 9.948 11.5377 9.27643 11.5377 8.448C11.5377 7.61957 12.2093 6.948 13.0377 6.948C13.8661 6.948 14.5377 7.61957 14.5377 8.448ZM13.5377 8.448C13.5377 8.17186 13.3139 7.948 13.0377 7.948C12.7616 7.948 12.5377 8.17186 12.5377 8.448C12.5377 8.72414 12.7616 8.948 13.0377 8.948C13.3139 8.948 13.5377 8.72414 13.5377 8.448Z" fill="#212121"/>
<path d="M6.03772 10.948C8.523 10.948 10.5377 8.93328 10.5377 6.448C10.5377 3.96272 8.523 1.948 6.03772 1.948C3.55244 1.948 1.53772 3.96272 1.53772 6.448C1.53772 8.93328 3.55244 10.948 6.03772 10.948ZM8.39127 5.30155L5.39127 8.30155C5.19601 8.49681 4.87943 8.49681 4.68417 8.30155L3.68417 7.30155C3.4889 7.10629 3.4889 6.78971 3.68417 6.59444C3.87943 6.39918 4.19601 6.39918 4.39127 6.59444L5.03772 7.24089L7.68417 4.59444C7.87943 4.39918 8.19601 4.39918 8.39127 4.59444C8.58654 4.78971 8.58654 5.10629 8.39127 5.30155Z" fill="#212121"/>
</svg>
