<svg width="33" height="33" viewBox="0 0 33 33" fill="none" xmlns="http://www.w3.org/2000/svg">
<path d="M3.53772 16.6563C4.13746 17.1931 4.80961 17.6506 5.53772 18.0125V25.448C5.53772 25.7371 5.58681 26.0148 5.6771 26.2732L14.4785 17.4717C14.8521 17.2259 15.2064 16.953 15.5384 16.6557C16.453 16.2572 17.5574 16.4321 18.3056 17.1802L27.3984 26.273C27.4886 26.0147 27.5377 25.7371 27.5377 25.448V8.448C27.5377 7.06729 26.4184 5.948 25.0377 5.948H17.6022C17.2404 5.21989 16.7828 4.54774 16.246 3.948H25.0377C27.523 3.948 29.5377 5.96272 29.5377 8.448V25.448C29.5377 27.9333 27.523 29.948 25.0377 29.948H8.03772C5.55244 29.948 3.53772 27.9333 3.53772 25.448V16.6563ZM26.0371 27.7402L16.8913 18.5944C16.6961 18.3992 16.3795 18.3992 16.1842 18.5944L7.03841 27.7403C7.34446 27.8739 7.68243 27.948 8.03772 27.948H25.0377C25.393 27.948 25.7311 27.8739 26.0371 27.7402Z" fill="#212121"/>
<path d="M18.5377 11.948C18.5377 10.015 20.1047 8.448 22.0377 8.448C23.9707 8.448 25.5377 10.015 25.5377 11.948C25.5377 13.881 23.9707 15.448 22.0377 15.448C20.1047 15.448 18.5377 13.881 18.5377 11.948ZM22.0377 10.448C21.2093 10.448 20.5377 11.1196 20.5377 11.948C20.5377 12.7764 21.2093 13.448 22.0377 13.448C22.8661 13.448 23.5377 12.7764 23.5377 11.948C23.5377 11.1196 22.8661 10.448 22.0377 10.448Z" fill="#212121"/>
<path d="M17.0377 9.948C17.0377 5.80586 13.6799 2.448 9.53772 2.448C5.39558 2.448 2.03772 5.80586 2.03772 9.948C2.03772 14.0901 5.39558 17.448 9.53772 17.448C13.6799 17.448 17.0377 14.0901 17.0377 9.948ZM14.068 8.22833L8.81805 13.4783C8.52516 13.7712 8.05028 13.7712 7.75739 13.4783L5.25739 10.9783C4.9645 10.6854 4.9645 10.2106 5.25739 9.91767C5.55028 9.62477 6.02516 9.62477 6.31805 9.91767L8.28772 11.8873L13.0074 7.16767C13.3003 6.87477 13.7752 6.87477 14.068 7.16767C14.3609 7.46056 14.3609 7.93543 14.068 8.22833Z" fill="#212121"/>
</svg>
