<svg width="32" height="32" viewBox="0 0 32 32" fill="none" xmlns="http://www.w3.org/2000/svg">
<path d="M16 22C17.6568 22 19 23.3431 19 25C19 26.6569 17.6568 28 16 28C14.3431 28 13 26.6569 13 25C13 23.3431 14.3431 22 16 22Z" fill="#242424"/>
<path d="M16 4C16.5522 4 17 4.44772 17 5V19C17 19.4437 16.7078 19.8348 16.2822 19.96C15.8566 20.085 15.3992 19.914 15.1591 19.541L6.15914 5.54102C5.96133 5.23331 5.94674 4.84158 6.12203 4.52051C6.29734 4.19952 6.63421 4 6.99996 4H16ZM15 15.5947V6H8.83101L15 15.5947Z" fill="#242424"/>
</svg>
