<svg width="48" height="48" viewBox="0 0 48 48" fill="none" xmlns="http://www.w3.org/2000/svg">
<path d="M23.168 32.25C25.3771 32.25 27.168 34.0409 27.168 36.25C27.168 38.4591 25.3771 40.25 23.168 40.25C20.9588 40.25 19.168 38.4591 19.168 36.25C19.168 34.0409 20.9588 32.25 23.168 32.25Z" fill="#212121"/>
<path d="M12.4707 10.5L21.918 10.5V25.0342L12.4707 10.5ZM24.418 9.34961C24.4178 8.60433 23.8136 8.00021 23.0684 8L10.3525 8C9.2814 8 8.63694 9.18784 9.22071 10.0859L21.9365 29.6484L22.0078 29.749C22.7762 30.7417 24.4176 30.2146 24.418 28.9131V9.34961Z" fill="#212121"/>
</svg>
