<svg width="48" height="48" viewBox="0 0 48 48" fill="none" xmlns="http://www.w3.org/2000/svg">
<rect x="6" y="8" width="28" height="36" rx="4" fill="url(#paint0_radial_3470_3372)"/>
<path d="M14 8C14 5.79086 15.7909 4 18 4H38C40.2091 4 42 5.79086 42 8V40C42 42.2091 40.2091 44 38 44H18C15.7909 44 14 42.2091 14 40V8Z" fill="black"/>
<g filter="url(#filter0_d_3470_3372)">
<path d="M38 4C40.2091 4 42 5.79086 42 8V40C42 42.2091 40.2091 44 38 44H10C12.2091 44 14 42.2091 14 40V8C14 5.79086 15.7909 4 18 4H38Z" fill="url(#paint1_radial_3470_3372)"/>
</g>
<g filter="url(#filter1_d_3470_3372)">
<rect x="20" y="10" width="16" height="8" rx="2" fill="url(#paint2_radial_3470_3372)"/>
<rect x="20.5" y="10.5" width="15" height="7" rx="1.5" stroke="url(#paint3_linear_3470_3372)"/>
</g>
<mask id="path-6-inside-1_3470_3372" fill="white">
<path d="M38 4C40.2091 4 42 5.79086 42 8V40C42 42.2091 40.2091 44 38 44H10C7.79086 44 6 42.2091 6 40V12C6 9.79086 7.79086 8 10 8H14C14 5.79086 15.7909 4 18 4H38Z"/>
</mask>
<path d="M42 8H43H42ZM42 40H43V40H42ZM38 44V45V45V44ZM6 40H5H6ZM10 8V7V7V8ZM14 8V9H15V8H14ZM18 4V3V3V4ZM38 4V5C39.6569 5 41 6.34315 41 8H42H43C43 5.23858 40.7614 3 38 3V4ZM42 8H41V40H42H43V8H42ZM42 40H41C41 41.6569 39.6569 43 38 43V44V45C40.7614 45 43 42.7614 43 40H42ZM38 44V43H10V44V45H38V44ZM10 44V43C8.34315 43 7 41.6569 7 40H6H5C5 42.7614 7.23858 45 10 45V44ZM6 40H7V12H6H5V40H6ZM6 12H7C7 10.3431 8.34315 9 10 9V8V7C7.23858 7 5 9.23858 5 12H6ZM10 8V9H14V8V7H10V8ZM14 8H15C15 6.34315 16.3431 5 18 5V4V3C15.2386 3 13 5.23858 13 8L14 8ZM18 4V5H38V4V3H18V4Z" fill="url(#paint4_linear_3470_3372)" mask="url(#path-6-inside-1_3470_3372)"/>
<defs>
<filter id="filter0_d_3470_3372" x="6" y="0" width="40" height="48" filterUnits="userSpaceOnUse" color-interpolation-filters="sRGB">
<feFlood flood-opacity="0" result="BackgroundImageFix"/>
<feColorMatrix in="SourceAlpha" type="matrix" values="0 0 0 0 0 0 0 0 0 0 0 0 0 0 0 0 0 0 127 0" result="hardAlpha"/>
<feOffset/>
<feGaussianBlur stdDeviation="2"/>
<feComposite in2="hardAlpha" operator="out"/>
<feColorMatrix type="matrix" values="0 0 0 0 0 0 0 0 0 0 0 0 0 0 0 0 0 0 0.16 0"/>
<feBlend mode="normal" in2="BackgroundImageFix" result="effect1_dropShadow_3470_3372"/>
<feBlend mode="normal" in="SourceGraphic" in2="effect1_dropShadow_3470_3372" result="shape"/>
</filter>
<filter id="filter1_d_3470_3372" x="16" y="6" width="24" height="16" filterUnits="userSpaceOnUse" color-interpolation-filters="sRGB">
<feFlood flood-opacity="0" result="BackgroundImageFix"/>
<feColorMatrix in="SourceAlpha" type="matrix" values="0 0 0 0 0 0 0 0 0 0 0 0 0 0 0 0 0 0 127 0" result="hardAlpha"/>
<feOffset/>
<feGaussianBlur stdDeviation="2"/>
<feComposite in2="hardAlpha" operator="out"/>
<feColorMatrix type="matrix" values="0 0 0 0 0 0 0 0 0 0 0 0 0 0 0 0 0 0 0.16 0"/>
<feBlend mode="normal" in2="BackgroundImageFix" result="effect1_dropShadow_3470_3372"/>
<feBlend mode="normal" in="SourceGraphic" in2="effect1_dropShadow_3470_3372" result="shape"/>
</filter>
<radialGradient id="paint0_radial_3470_3372" cx="0" cy="0" r="1" gradientTransform="matrix(22.0391 35.1 -44.605 44.884 7.75 8)" gradientUnits="userSpaceOnUse">
<stop stop-color="#FEB2E2"/>
<stop offset="1" stop-color="#F147B3"/>
</radialGradient>
<radialGradient id="paint1_radial_3470_3372" cx="0" cy="0" r="1" gradientTransform="matrix(25.1875 39 -50.9771 49.8711 12 4)" gradientUnits="userSpaceOnUse">
<stop stop-color="#E1269C"/>
<stop offset="1" stop-color="#A20167"/>
</radialGradient>
<radialGradient id="paint2_radial_3470_3372" cx="0" cy="0" r="1" gradientTransform="matrix(13.2857 7.8 -26.889 9.97422 22.2857 10)" gradientUnits="userSpaceOnUse">
<stop stop-color="#E85FB6"/>
<stop offset="1" stop-color="#E958B3"/>
</radialGradient>
<linearGradient id="paint3_linear_3470_3372" x1="20" y1="10" x2="26.4" y2="22.8" gradientUnits="userSpaceOnUse">
<stop offset="0.2" stop-color="white" stop-opacity="0.9"/>
<stop offset="0.504808" stop-color="white" stop-opacity="0.4"/>
<stop offset="0.8" stop-color="white" stop-opacity="0.9"/>
</linearGradient>
<linearGradient id="paint4_linear_3470_3372" x1="6" y1="4" x2="45.7789" y2="39.8011" gradientUnits="userSpaceOnUse">
<stop offset="0.2" stop-color="white" stop-opacity="0.9"/>
<stop offset="0.504808" stop-color="white" stop-opacity="0.4"/>
<stop offset="0.8" stop-color="white" stop-opacity="0.9"/>
</linearGradient>
</defs>
</svg>
