<svg width="48" height="50" viewBox="0 0 48 50" fill="none" xmlns="http://www.w3.org/2000/svg">
<g filter="url(#filter0_d_3470_3410)">
<mask id="path-1-inside-1_3470_3410" fill="white">
<path d="M26.6377 4.61816C26.849 4.10802 27.4342 3.86504 27.9443 4.07617L35.2969 7.12207C35.8068 7.33359 36.0492 7.91863 35.8379 8.42871L34.293 12.1572C34.8459 12.6353 35.3645 13.1521 35.8457 13.7021L39.5693 12.1602C40.0795 11.9489 40.6645 12.1912 40.876 12.7012L43.9219 20.0537C44.1328 20.5637 43.8907 21.1489 43.3809 21.3604L39.6719 22.8955C39.6973 23.26 39.7119 23.6281 39.7119 23.999C39.7119 24.3697 39.6972 24.7374 39.6719 25.1016L43.3809 26.6377C43.8907 26.8492 44.1331 27.4343 43.9219 27.9443L40.876 35.2969C40.6644 35.8066 40.0793 36.0489 39.5693 35.8379L35.8457 34.2949C35.3645 34.8451 34.8459 35.3617 34.293 35.8398L35.8379 39.5693C36.049 40.0795 35.8069 40.6646 35.2969 40.876L27.9443 43.9209C27.4342 44.1321 26.8491 43.8899 26.6377 43.3799L25.0771 39.6133C24.7422 39.6347 24.4039 39.6475 24.0635 39.6475C23.68 39.6475 23.2995 39.6326 22.9229 39.6055L21.3604 43.3799C21.149 43.89 20.5639 44.132 20.0537 43.9209L12.7012 40.876C12.1912 40.6645 11.9489 40.0795 12.1602 39.5693L13.7393 35.7559C13.2088 35.2897 12.7092 34.789 12.2461 34.2559L8.42871 35.8379C7.91856 36.0492 7.33352 35.806 7.12207 35.2959L4.07617 27.9443C3.86487 27.4342 4.1072 26.8492 4.61719 26.6377L8.4502 25.0488C8.42722 24.7019 8.41602 24.3517 8.41602 23.999C8.41602 23.6457 8.42811 23.2948 8.45117 22.9473L4.61816 21.3604C4.10803 21.149 3.86506 20.5639 4.07617 20.0537L7.12207 12.7012C7.33355 12.1912 7.91859 11.9489 8.42871 12.1602L12.2461 13.7412C12.7093 13.208 13.2088 12.7074 13.7393 12.2412L12.1602 8.42871C11.9489 7.91861 12.1912 7.33357 12.7012 7.12207L20.0537 4.07617C20.5639 3.86494 21.149 4.10798 21.3604 4.61816L22.9229 8.3916C23.2994 8.36447 23.68 8.35059 24.0635 8.35059C24.4038 8.35059 24.7422 8.36238 25.0771 8.38379L26.6377 4.61816Z"/>
</mask>
<path d="M26.6377 4.61816C26.849 4.10802 27.4342 3.86504 27.9443 4.07617L35.2969 7.12207C35.8068 7.33359 36.0492 7.91863 35.8379 8.42871L34.293 12.1572C34.8459 12.6353 35.3645 13.1521 35.8457 13.7021L39.5693 12.1602C40.0795 11.9489 40.6645 12.1912 40.876 12.7012L43.9219 20.0537C44.1328 20.5637 43.8907 21.1489 43.3809 21.3604L39.6719 22.8955C39.6973 23.26 39.7119 23.6281 39.7119 23.999C39.7119 24.3697 39.6972 24.7374 39.6719 25.1016L43.3809 26.6377C43.8907 26.8492 44.1331 27.4343 43.9219 27.9443L40.876 35.2969C40.6644 35.8066 40.0793 36.0489 39.5693 35.8379L35.8457 34.2949C35.3645 34.8451 34.8459 35.3617 34.293 35.8398L35.8379 39.5693C36.049 40.0795 35.8069 40.6646 35.2969 40.876L27.9443 43.9209C27.4342 44.1321 26.8491 43.8899 26.6377 43.3799L25.0771 39.6133C24.7422 39.6347 24.4039 39.6475 24.0635 39.6475C23.68 39.6475 23.2995 39.6326 22.9229 39.6055L21.3604 43.3799C21.149 43.89 20.5639 44.132 20.0537 43.9209L12.7012 40.876C12.1912 40.6645 11.9489 40.0795 12.1602 39.5693L13.7393 35.7559C13.2088 35.2897 12.7092 34.789 12.2461 34.2559L8.42871 35.8379C7.91856 36.0492 7.33352 35.806 7.12207 35.2959L4.07617 27.9443C3.86487 27.4342 4.1072 26.8492 4.61719 26.6377L8.4502 25.0488C8.42722 24.7019 8.41602 24.3517 8.41602 23.999C8.41602 23.6457 8.42811 23.2948 8.45117 22.9473L4.61816 21.3604C4.10803 21.149 3.86506 20.5639 4.07617 20.0537L7.12207 12.7012C7.33355 12.1912 7.91859 11.9489 8.42871 12.1602L12.2461 13.7412C12.7093 13.208 13.2088 12.7074 13.7393 12.2412L12.1602 8.42871C11.9489 7.91861 12.1912 7.33357 12.7012 7.12207L20.0537 4.07617C20.5639 3.86494 21.149 4.10798 21.3604 4.61816L22.9229 8.3916C23.2994 8.36447 23.68 8.35059 24.0635 8.35059C24.4038 8.35059 24.7422 8.36238 25.0771 8.38379L26.6377 4.61816Z" fill="url(#paint0_linear_3470_3410)"/>
<path d="M26.6377 4.61816L27.5615 5.00101L27.5616 5.00085L26.6377 4.61816ZM27.9443 4.07617L28.3271 3.15231L28.3267 3.15217L27.9443 4.07617ZM35.2969 7.12207L35.68 6.19838L35.6796 6.19821L35.2969 7.12207ZM35.8379 8.42871L36.7617 8.8115L36.7618 8.8114L35.8379 8.42871ZM34.293 12.1572L33.3691 11.7744L33.0928 12.4415L33.6389 12.9137L34.293 12.1572ZM35.8457 13.7021L35.093 14.3605L35.5654 14.9006L36.2283 14.6261L35.8457 13.7021ZM39.5693 12.1602L39.1868 11.2362L39.1867 11.2362L39.5693 12.1602ZM40.876 12.7012L41.7998 12.3184L41.7997 12.3182L40.876 12.7012ZM43.9219 20.0537L44.846 19.6716L44.8457 19.671L43.9219 20.0537ZM43.3809 21.3604L43.7633 22.2843L43.7639 22.2841L43.3809 21.3604ZM39.6719 22.8955L39.2894 21.9715L38.6243 22.2468L38.6743 22.965L39.6719 22.8955ZM39.7119 23.999L40.7119 23.999V23.999H39.7119ZM39.6719 25.1016L38.6743 25.0321L38.6243 25.7501L39.2892 26.0255L39.6719 25.1016ZM43.3809 26.6377L43.764 25.714L43.7635 25.7138L43.3809 26.6377ZM43.9219 27.9443L44.8457 28.3271L44.8458 28.327L43.9219 27.9443ZM40.876 35.2969L41.7996 35.6802L41.7998 35.6796L40.876 35.2969ZM39.5693 35.8379L39.1865 36.7617L39.1869 36.7619L39.5693 35.8379ZM35.8457 34.2949L36.2285 33.3711L35.5655 33.0964L35.093 33.6366L35.8457 34.2949ZM34.293 35.8398L33.6389 35.0834L33.0928 35.5556L33.3691 36.2226L34.293 35.8398ZM35.8379 39.5693L36.7619 39.1869L36.7618 39.1866L35.8379 39.5693ZM35.2969 40.876L35.6795 41.7999L35.6797 41.7998L35.2969 40.876ZM27.9443 43.9209L28.3269 44.8448L28.327 44.8448L27.9443 43.9209ZM26.6377 43.3799L25.7138 43.7626L25.7139 43.7628L26.6377 43.3799ZM25.0771 39.6133L26.001 39.2305L25.7272 38.5697L25.0134 38.6153L25.0771 39.6133ZM24.0635 39.6475L24.0635 40.6475H24.0635L24.0635 39.6475ZM22.9229 39.6055L22.9947 38.6081L22.2749 38.5562L21.9989 39.223L22.9229 39.6055ZM21.3604 43.3799L22.2842 43.7627L22.2843 43.7624L21.3604 43.3799ZM20.0537 43.9209L19.6711 44.8448L19.6713 44.8449L20.0537 43.9209ZM12.7012 40.876L12.3182 41.7997L12.3186 41.7999L12.7012 40.876ZM12.1602 39.5693L11.2362 39.1868L11.2362 39.1868L12.1602 39.5693ZM13.7393 35.7559L14.6632 36.1384L14.937 35.4772L14.3994 35.0047L13.7393 35.7559ZM12.2461 34.2559L13.001 33.6L12.5286 33.0563L11.8632 33.3321L12.2461 34.2559ZM8.42871 35.8379L8.81139 36.7618L8.81156 36.7617L8.42871 35.8379ZM7.12207 35.2959L6.19823 35.6787L6.19831 35.6789L7.12207 35.2959ZM4.07617 27.9443L3.15229 28.327L3.15233 28.3271L4.07617 27.9443ZM4.61719 26.6377L4.23426 25.7139L4.23413 25.714L4.61719 26.6377ZM8.4502 25.0488L8.83312 25.9726L9.4954 25.6981L9.44801 24.9827L8.4502 25.0488ZM8.41602 23.999H7.41602V23.999L8.41602 23.999ZM8.45117 22.9473L9.44898 23.0135L9.49647 22.2977L8.8337 22.0233L8.45117 22.9473ZM4.61816 21.3604L4.23548 22.2842L4.23564 22.2843L4.61816 21.3604ZM4.07617 20.0537L3.15231 19.671L3.15216 19.6713L4.07617 20.0537ZM7.12207 12.7012L6.19834 12.3181L6.19821 12.3184L7.12207 12.7012ZM8.42871 12.1602L8.04603 13.084L8.04606 13.084L8.42871 12.1602ZM12.2461 13.7412L11.8634 14.6651L12.5287 14.9406L13.001 14.397L12.2461 13.7412ZM13.7393 12.2412L14.3994 12.9924L14.9371 12.5199L14.6631 11.8585L13.7393 12.2412ZM12.1602 8.42871L13.084 8.04605L13.084 8.04602L12.1602 8.42871ZM12.7012 7.12207L12.3184 6.19821L12.3181 6.19837L12.7012 7.12207ZM20.0537 4.07617L19.6712 3.15222L19.671 3.15231L20.0537 4.07617ZM21.3604 4.61816L22.2843 4.23559L22.2842 4.23548L21.3604 4.61816ZM22.9229 8.3916L21.9989 8.77418L22.275 9.44087L22.9947 9.38902L22.9229 8.3916ZM24.0635 8.35059L24.0635 7.35059H24.0635L24.0635 8.35059ZM25.0771 8.38379L25.0134 9.38175L25.7271 9.42738L26.001 8.76663L25.0771 8.38379ZM26.6377 4.61816L27.5616 5.00085L27.5619 5.00017L27.9443 4.07617L28.3267 3.15217C27.3056 2.72956 26.1361 3.21601 25.7138 4.23548L26.6377 4.61816ZM27.9443 4.07617L27.5616 5.00003L34.9142 8.04593L35.2969 7.12207L35.6796 6.19821L28.3271 3.15231L27.9443 4.07617ZM35.2969 7.12207L34.9137 8.04576L34.914 8.04602L35.8379 8.42871L36.7618 8.8114C37.1845 7.79094 36.6996 6.6213 35.68 6.19838L35.2969 7.12207ZM35.8379 8.42871L34.9141 8.04592L33.3691 11.7744L34.293 12.1572L35.2168 12.54L36.7617 8.8115L35.8379 8.42871ZM34.293 12.1572L33.6389 12.9137C34.1562 13.3609 34.642 13.8448 35.093 14.3605L35.8457 13.7021L36.5984 13.0438C36.0871 12.4593 35.5355 11.9096 34.947 11.4008L34.293 12.1572ZM35.8457 13.7021L36.2283 14.6261L39.9519 13.0841L39.5693 12.1602L39.1867 11.2362L35.4631 12.7782L35.8457 13.7021ZM39.5693 12.1602L39.9519 13.0841L39.9522 13.0842L40.876 12.7012L41.7997 12.3182C41.3768 11.2981 40.2069 10.8138 39.1868 11.2362L39.5693 12.1602ZM40.876 12.7012L39.9521 13.0839L42.998 20.4364L43.9219 20.0537L44.8457 19.671L41.7998 12.3184L40.876 12.7012ZM43.9219 20.0537L42.9978 20.4359L42.9978 20.4366L43.3809 21.3604L43.7639 22.2841C44.7841 21.861 45.2676 20.691 44.846 19.6716L43.9219 20.0537ZM43.3809 21.3604L42.9984 20.4364L39.2894 21.9715L39.6719 22.8955L40.0543 23.8195L43.7633 22.2843L43.3809 21.3604ZM39.6719 22.8955L38.6743 22.965C38.6983 23.3096 38.7119 23.6543 38.7119 23.999H39.7119H40.7119C40.7119 23.6019 40.6962 23.2104 40.6695 22.826L39.6719 22.8955ZM39.7119 23.999L38.7119 23.999C38.7119 24.3433 38.6983 24.6877 38.6743 25.0321L39.6719 25.1016L40.6695 25.171C40.6962 24.7871 40.7119 24.396 40.7119 23.999L39.7119 23.999ZM39.6719 25.1016L39.2892 26.0255L42.9982 27.5616L43.3809 26.6377L43.7635 25.7138L40.0545 24.1777L39.6719 25.1016ZM43.3809 26.6377L42.9977 27.5614L42.998 27.5617L43.9219 27.9443L44.8458 28.327C45.2684 27.3066 44.7835 26.137 43.764 25.714L43.3809 26.6377ZM43.9219 27.9443L42.998 27.5616L39.9521 34.9142L40.876 35.2969L41.7998 35.6796L44.8457 28.3271L43.9219 27.9443ZM40.876 35.2969L39.9524 34.9135L39.9517 34.9139L39.5693 35.8379L39.1869 36.7619C40.207 37.1841 41.3766 36.6995 41.7996 35.6802L40.876 35.2969ZM39.5693 35.8379L39.9521 34.9141L36.2285 33.3711L35.8457 34.2949L35.4629 35.2188L39.1865 36.7617L39.5693 35.8379ZM35.8457 34.2949L35.093 33.6366C34.6419 34.1523 34.1563 34.6361 33.6389 35.0834L34.293 35.8398L34.947 36.5963C35.5356 36.0874 36.0871 35.5379 36.5984 34.9533L35.8457 34.2949ZM34.293 35.8398L33.3691 36.2226L34.914 39.952L35.8379 39.5693L36.7618 39.1866L35.2168 35.4571L34.293 35.8398ZM35.8379 39.5693L34.9139 39.9517L34.914 39.9522L35.2969 40.876L35.6797 41.7998C36.7003 41.3769 37.1839 40.2067 36.7619 39.1869L35.8379 39.5693ZM35.2969 40.876L34.9143 39.9521L27.5617 42.997L27.9443 43.9209L28.327 44.8448L35.6795 41.7999L35.2969 40.876ZM27.9443 43.9209L27.5618 42.997L27.5615 42.9969L26.6377 43.3799L25.7139 43.7628C26.1369 44.783 27.3068 45.2673 28.3269 44.8448L27.9443 43.9209ZM26.6377 43.3799L27.5615 42.9971L26.001 39.2305L25.0771 39.6133L24.1533 39.996L25.7138 43.7626L26.6377 43.3799ZM25.0771 39.6133L25.0134 38.6153C24.6957 38.6356 24.379 38.6475 24.0635 38.6475L24.0635 39.6475L24.0635 40.6475C24.4287 40.6475 24.7886 40.6338 25.1409 40.6112L25.0771 39.6133ZM24.0635 39.6475L24.0635 38.6475C23.7058 38.6475 23.3493 38.6336 22.9947 38.6081L22.9229 39.6055L22.851 40.6029C23.2496 40.6316 23.6542 40.6475 24.0635 40.6475L24.0635 39.6475ZM22.9229 39.6055L21.9989 39.223L20.4364 42.9974L21.3604 43.3799L22.2843 43.7624L23.8468 39.988L22.9229 39.6055ZM21.3604 43.3799L20.4365 42.9971L20.4361 42.9969L20.0537 43.9209L19.6713 44.8449C20.691 45.2669 21.8612 44.7834 22.2842 43.7627L21.3604 43.3799ZM20.0537 43.9209L20.4363 42.997L13.0838 39.9521L12.7012 40.876L12.3186 41.7999L19.6711 44.8448L20.0537 43.9209ZM12.7012 40.876L13.0841 39.9522L13.0841 39.9519L12.1602 39.5693L11.2362 39.1868C10.8138 40.2069 11.2981 41.3768 12.3182 41.7997L12.7012 40.876ZM12.1602 39.5693L13.0841 39.9519L14.6632 36.1384L13.7393 35.7559L12.8153 35.3733L11.2362 39.1868L12.1602 39.5693ZM13.7393 35.7559L14.3994 35.0047C13.9018 34.5674 13.434 34.0984 13.001 33.6L12.2461 34.2559L11.4912 34.9117C11.9845 35.4795 12.5159 36.012 13.0791 36.507L13.7393 35.7559ZM12.2461 34.2559L11.8632 33.3321L8.04586 34.9141L8.42871 35.8379L8.81156 36.7617L12.6289 35.1797L12.2461 34.2559ZM8.42871 35.8379L8.04603 34.914C8.04497 34.9144 8.04485 34.9144 8.04548 34.9143C8.04605 34.9142 8.04668 34.9141 8.04722 34.9141C8.04814 34.9141 8.04786 34.9143 8.04676 34.9138C8.04566 34.9134 8.04534 34.9129 8.04569 34.9133C8.04592 34.9135 8.04617 34.9138 8.04636 34.9141C8.04658 34.9144 8.04635 34.9142 8.04583 34.9129L7.12207 35.2959L6.19831 35.6789C6.62056 36.6974 7.78952 37.185 8.81139 36.7618L8.42871 35.8379ZM7.12207 35.2959L8.04592 34.9131L5.00002 27.5616L4.07617 27.9443L3.15233 28.3271L6.19823 35.6787L7.12207 35.2959ZM4.07617 27.9443L5.00005 27.5616L5.00024 27.5614L4.61719 26.6377L4.23413 25.714C3.21432 26.1369 2.72962 27.3066 3.15229 28.327L4.07617 27.9443ZM4.61719 26.6377L5.00011 27.5615L8.83312 25.9726L8.4502 25.0488L8.06727 24.125L4.23426 25.7139L4.61719 26.6377ZM8.4502 25.0488L9.44801 24.9827C9.42655 24.6587 9.41602 24.3306 9.41602 23.999L8.41602 23.999L7.41602 23.999C7.41602 24.3729 7.42789 24.7451 7.45238 25.1149L8.4502 25.0488ZM8.41602 23.999H9.41602C9.41602 23.6685 9.42733 23.3397 9.44898 23.0135L8.45117 22.9473L7.45337 22.8811C7.42889 23.2499 7.41602 23.6228 7.41602 23.999H8.41602ZM8.45117 22.9473L8.8337 22.0233L5.00069 20.4364L4.61816 21.3604L4.23564 22.2843L8.06865 23.8712L8.45117 22.9473ZM4.61816 21.3604L5.00084 20.4365L5.00018 20.4361L4.07617 20.0537L3.15216 19.6713C2.72961 20.6925 3.21598 21.8619 4.23548 22.2842L4.61816 21.3604ZM4.07617 20.0537L5.00003 20.4364L8.04593 13.0839L7.12207 12.7012L6.19821 12.3184L3.15231 19.671L4.07617 20.0537ZM7.12207 12.7012L8.0458 13.0842L8.04603 13.084L8.42871 12.1602L8.81139 11.2363C7.791 10.8136 6.62124 11.2983 6.19834 12.3181L7.12207 12.7012ZM8.42871 12.1602L8.04606 13.084L11.8634 14.6651L12.2461 13.7412L12.6287 12.8173L8.81136 11.2363L8.42871 12.1602ZM12.2461 13.7412L13.001 14.397C13.434 13.8986 13.9017 13.4297 14.3994 12.9924L13.7393 12.2412L13.0791 11.49C12.5158 11.9851 11.9845 12.5175 11.4912 13.0854L12.2461 13.7412ZM13.7393 12.2412L14.6631 11.8585L13.084 8.04605L12.1602 8.42871L11.2363 8.81138L12.8154 12.6239L13.7393 12.2412ZM12.1602 8.42871L13.084 8.04602L13.0843 8.04577L12.7012 7.12207L12.3181 6.19837C11.2984 6.62128 10.8136 7.79096 11.2363 8.8114L12.1602 8.42871ZM12.7012 7.12207L13.0839 8.04593L20.4364 5.00003L20.0537 4.07617L19.671 3.15231L12.3184 6.19821L12.7012 7.12207ZM20.0537 4.07617L20.4362 5.00012L20.4365 5.00085L21.3604 4.61816L22.2842 4.23548C21.862 3.21609 20.6926 2.72936 19.6712 3.15222L20.0537 4.07617ZM21.3604 4.61816L20.4364 5.00074L21.9989 8.77418L22.9229 8.3916L23.8468 8.00902L22.2843 4.23559L21.3604 4.61816ZM22.9229 8.3916L22.9947 9.38902C23.3475 9.3636 23.7041 9.35059 24.0635 9.35059L24.0635 8.35059L24.0635 7.35059C23.6558 7.35059 23.2514 7.36534 22.851 7.39419L22.9229 8.3916ZM24.0635 8.35059L24.0635 9.35059C24.3808 9.35059 24.6978 9.36158 25.0134 9.38175L25.0771 8.38379L25.1409 7.38583C24.7866 7.36317 24.4269 7.35059 24.0635 7.35059L24.0635 8.35059ZM25.0771 8.38379L26.001 8.76663L27.5615 5.00101L26.6377 4.61816L25.7139 4.23532L24.1533 8.00094L25.0771 8.38379Z" fill="url(#paint1_linear_3470_3410)" mask="url(#path-1-inside-1_3470_3410)"/>
</g>
<g filter="url(#filter1_d_3470_3410)">
<mask id="path-3-inside-2_3470_3410" fill="white">
<path d="M30.7737 21.4492C31.2274 20.9955 31.9879 21.0814 32.2507 21.6667C33.737 24.9763 33.1234 28.9987 30.4056 31.7167C27.9072 34.2151 24.3056 34.9358 21.169 33.8822L12.0209 43.0304C10.4588 44.5925 7.92609 44.5925 6.364 43.0304C4.8019 41.4683 4.8019 38.9357 6.364 37.3736L15.5122 28.2254C14.4586 25.0888 15.1793 21.4872 17.6777 18.9888C20.3957 16.271 24.4181 15.6574 27.7277 17.1437C28.313 17.4065 28.3989 18.1671 27.9453 18.6207L22.6275 23.9385C22.2369 24.3291 22.2369 24.9622 22.6275 25.3528L24.0417 26.767C24.4322 27.1575 25.0654 27.1575 25.4559 26.767L30.7737 21.4492Z"/>
</mask>
<path d="M30.7737 21.4492C31.2274 20.9955 31.9879 21.0814 32.2507 21.6667C33.737 24.9763 33.1234 28.9987 30.4056 31.7167C27.9072 34.2151 24.3056 34.9358 21.169 33.8822L12.0209 43.0304C10.4588 44.5925 7.92609 44.5925 6.364 43.0304C4.8019 41.4683 4.8019 38.9357 6.364 37.3736L15.5122 28.2254C14.4586 25.0888 15.1793 21.4872 17.6777 18.9888C20.3957 16.271 24.4181 15.6574 27.7277 17.1437C28.313 17.4065 28.3989 18.1671 27.9453 18.6207L22.6275 23.9385C22.2369 24.3291 22.2369 24.9622 22.6275 25.3528L24.0417 26.767C24.4322 27.1575 25.0654 27.1575 25.4559 26.767L30.7737 21.4492Z" fill="#D9760D"/>
<path d="M32.2507 21.6667L33.163 21.257L33.163 21.257L32.2507 21.6667ZM30.4056 31.7167L31.1127 32.4238L31.1128 32.4238L30.4056 31.7167ZM21.169 33.8822L21.4875 32.9343L20.9001 32.737L20.4619 33.1751L21.169 33.8822ZM15.5122 28.2254L16.2193 28.9325L16.6574 28.4943L16.4601 27.907L15.5122 28.2254ZM17.6777 18.9888L16.9706 18.2817L16.9706 18.2817L17.6777 18.9888ZM27.7277 17.1437L28.1374 16.2315L28.1374 16.2315L27.7277 17.1437ZM30.7737 21.4492L31.4808 22.1563C31.4845 22.1526 31.4758 22.1628 31.4494 22.1592C31.4351 22.1573 31.4123 22.1507 31.3875 22.1328C31.3605 22.1133 31.3446 22.09 31.3385 22.0763L32.2507 21.6667L33.163 21.257C32.569 19.9343 30.9363 19.8724 30.0666 20.7421L30.7737 21.4492ZM32.2507 21.6667L31.3385 22.0763C32.6605 25.0201 32.1128 28.5951 29.6985 31.0097L30.4056 31.7167L31.1128 32.4238C34.1339 29.4023 34.8135 24.9325 33.163 21.257L32.2507 21.6667ZM30.4056 31.7167L29.6985 31.0096C27.479 33.2291 24.2785 33.8718 21.4875 32.9343L21.169 33.8822L20.8506 34.8302C24.3328 35.9998 28.3354 35.2011 31.1127 32.4238L30.4056 31.7167ZM21.169 33.8822L20.4619 33.1751L11.3137 42.3233L12.0209 43.0304L12.728 43.7375L21.8762 34.5893L21.169 33.8822ZM12.0209 43.0304L11.3137 42.3233C10.1422 43.4949 8.24268 43.4949 7.0711 42.3233L6.364 43.0304L5.65689 43.7375C7.60951 45.6902 10.7753 45.6902 12.728 43.7375L12.0209 43.0304ZM6.364 43.0304L7.0711 42.3233C5.89953 41.1517 5.89953 39.2523 7.0711 38.0807L6.364 37.3736L5.65689 36.6665C3.70427 38.6191 3.70427 41.7849 5.65689 43.7375L6.364 43.0304ZM6.364 37.3736L7.0711 38.0807L16.2193 28.9325L15.5122 28.2254L14.8051 27.5183L5.65689 36.6665L6.364 37.3736ZM15.5122 28.2254L16.4601 27.907C15.5226 25.116 16.1653 21.9154 18.3848 19.6959L17.6777 18.9888L16.9706 18.2817C14.1933 21.059 13.3946 25.0617 14.5642 28.5438L15.5122 28.2254ZM17.6777 18.9888L18.3848 19.6959C20.7994 17.2816 24.3743 16.734 27.3181 18.0559L27.7277 17.1437L28.1374 16.2315C24.4619 14.5809 19.9921 15.2605 16.9706 18.2817L17.6777 18.9888ZM27.7277 17.1437L27.3181 18.0559C27.3044 18.0498 27.2811 18.0339 27.2617 18.0069C27.2438 17.9821 27.2371 17.9594 27.2352 17.945C27.2316 17.9186 27.2418 17.91 27.2381 17.9136L27.9453 18.6207L28.6524 19.3279C29.522 18.4582 29.4602 16.8255 28.1374 16.2315L27.7277 17.1437ZM27.9453 18.6207L27.2381 17.9136L21.9203 23.2314L22.6275 23.9385L23.3346 24.6457L28.6524 19.3279L27.9453 18.6207ZM22.6275 23.9385L21.9203 23.2314C21.1393 24.0125 21.1393 25.2788 21.9203 26.0599L22.6275 25.3528L23.3346 24.6457L22.6275 23.9385ZM22.6275 25.3528L21.9203 26.0599L23.3346 27.4741L24.0417 26.767L24.7488 26.0599L23.3346 24.6457L22.6275 25.3528ZM24.0417 26.767L23.3346 27.4741C24.1156 28.2551 25.3819 28.2551 26.163 27.4741L25.4559 26.767L24.7488 26.0599L24.0417 26.767ZM25.4559 26.767L26.163 27.4741L31.4808 22.1563L30.7737 21.4492L30.0666 20.7421L24.7488 26.0599L25.4559 26.767Z" fill="url(#paint2_linear_3470_3410)" mask="url(#path-3-inside-2_3470_3410)"/>
</g>
<defs>
<filter id="filter0_d_3470_3410" x="0" y="0" width="47.998" height="47.9971" filterUnits="userSpaceOnUse" color-interpolation-filters="sRGB">
<feFlood flood-opacity="0" result="BackgroundImageFix"/>
<feColorMatrix in="SourceAlpha" type="matrix" values="0 0 0 0 0 0 0 0 0 0 0 0 0 0 0 0 0 0 127 0" result="hardAlpha"/>
<feOffset/>
<feGaussianBlur stdDeviation="2"/>
<feComposite in2="hardAlpha" operator="out"/>
<feColorMatrix type="matrix" values="0 0 0 0 0 0 0 0 0 0 0 0 0 0 0 0 0 0 0.16 0"/>
<feBlend mode="normal" in2="BackgroundImageFix" result="effect1_dropShadow_3470_3410"/>
<feBlend mode="normal" in="SourceGraphic" in2="effect1_dropShadow_3470_3410" result="shape"/>
</filter>
<filter id="filter1_d_3470_3410" x="1.19238" y="12.355" width="35.8467" height="35.8472" filterUnits="userSpaceOnUse" color-interpolation-filters="sRGB">
<feFlood flood-opacity="0" result="BackgroundImageFix"/>
<feColorMatrix in="SourceAlpha" type="matrix" values="0 0 0 0 0 0 0 0 0 0 0 0 0 0 0 0 0 0 127 0" result="hardAlpha"/>
<feOffset/>
<feGaussianBlur stdDeviation="2"/>
<feComposite in2="hardAlpha" operator="out"/>
<feColorMatrix type="matrix" values="0 0 0 0 0 0 0 0 0 0 0 0 0 0 0 0 0 0 0.16 0"/>
<feBlend mode="normal" in2="BackgroundImageFix" result="effect1_dropShadow_3470_3410"/>
<feBlend mode="normal" in="SourceGraphic" in2="effect1_dropShadow_3470_3410" result="shape"/>
</filter>
<linearGradient id="paint0_linear_3470_3410" x1="6.5" y1="7" x2="41.783" y2="42.7084" gradientUnits="userSpaceOnUse">
<stop stop-color="#FFCB2F"/>
<stop offset="1" stop-color="#FFA611"/>
</linearGradient>
<linearGradient id="paint1_linear_3470_3410" x1="4" y1="4" x2="43.9971" y2="43.9984" gradientUnits="userSpaceOnUse">
<stop offset="0.2" stop-color="white" stop-opacity="0.9"/>
<stop offset="0.504808" stop-color="white" stop-opacity="0.4"/>
<stop offset="0.8" stop-color="white" stop-opacity="0.9"/>
</linearGradient>
<linearGradient id="paint2_linear_3470_3410" x1="23.666" y1="13.0005" x2="32.7918" y2="43.3643" gradientUnits="userSpaceOnUse">
<stop offset="0.2" stop-color="white" stop-opacity="0.9"/>
<stop offset="0.504808" stop-color="white" stop-opacity="0.4"/>
<stop offset="0.8" stop-color="white" stop-opacity="0.9"/>
</linearGradient>
</defs>
</svg>
