<svg xmlns="http://www.w3.org/2000/svg" width="231" height="160" fill="none" viewBox="0 0 231 160">
  <path fill="#242424" d="M118.794 128.159c29.701 0 53.779-24.095 53.779-53.8176 0-29.7227-24.078-53.8177-53.779-53.8177-29.7017 0-53.7794 24.095-53.7794 53.8177 0 29.7226 24.0777 53.8176 53.7794 53.8176Z"/>
  <path fill="#5C5C5C" d="m100.106 25.5288-.6255-1.5906 2.5125-.9885.626 1.5906-2.513.9885ZM102.609 31.891l-1.251-3.1811 2.512-.9886 1.252 3.1811-2.513.9886ZM105.113 38.2531l-1.252-3.1811 2.513-.9885 1.251 3.1811-2.512.9885ZM107.616 44.6153l-1.252-3.1811 2.513-.9885 1.251 3.1811-2.512.9885ZM110.119 50.9775l-1.252-3.1811 2.513-.9885 1.251 3.181-2.512.9886ZM112.622 57.3396l-1.252-3.181 2.513-.9886 1.252 3.1811-2.513.9885ZM115.125 63.7018l-1.251-3.1811 2.512-.9885 1.252 3.1811-2.513.9885ZM117.628 70.064l-1.251-3.1811 2.512-.9885 1.252 3.181-2.513.9886ZM118.898 73.2919l-.018-.0468.021-.0082.013-.3227.731.03.776-.3054.449-.5416.298.2474.224-.0881.161.407 1.395 1.1583-.121.145.248.1412-1.34 2.3442-.338-.1932-.128.2924-2.114-.925-.352-.0145.006-.1369-.014-.0058.015-.0342.088-2.1431ZM158.513 30.9815l-1.147 1.3819-2.077-1.7246 1.147-1.382 2.077 1.7247ZM155.072 35.1273l-2.295 2.7639-2.077-1.7246 2.294-2.7639 2.078 1.7246ZM150.482 40.6551l-2.294 2.7639-2.077-1.7246 2.294-2.7639 2.077 1.7246ZM145.893 46.1829l-2.294 2.7639-2.078-1.7246 2.295-2.7639 2.077 1.7246ZM141.304 51.7107l-2.294 2.7639-2.078-1.7247 2.295-2.7639 2.077 1.7247ZM136.715 57.2385l-2.294 2.7639-2.078-1.7247 2.295-2.7639 2.077 1.7247ZM132.126 62.7663l-2.295 2.7639-2.077-1.7247 2.295-2.7639 2.077 1.7247ZM127.537 68.2941l-2.295 2.7638-2.077-1.7246 2.295-2.7639 2.077 1.7247ZM59.7964 73.187l1.9034.0782.1109-2.6977-1.9034-.0782-.1109 2.6977ZM65.5067 73.4216l3.8069.1565.1108-2.6977-3.8068-.1565-.1109 2.6977ZM73.1204 73.7345l3.8069.1565.1109-2.6977-3.8069-.1565-.1109 2.6977ZM80.7342 74.0474l3.8069.1565.1108-2.6977-3.8068-.1565-.1109 2.6977ZM88.3479 74.3603l3.8069.1565.1109-2.6977-3.8069-.1565-.1109 2.6977ZM95.9617 74.6732l3.8069.1565.1108-2.6977-3.8068-.1565-.1109 2.6977ZM103.575 74.9861l3.807.1565.111-2.6978-3.807-.1564-.111 2.6977ZM111.189 75.299l3.807.1565.111-2.6978-3.807-.1564-.111 2.6977ZM119.809 79.8889l-1.46 3.3376-2.474-1.0823 1.46-3.3375 2.474 1.0822ZM116.888 86.564l-1.46 3.3375-2.473-1.0822 1.46-3.3375 2.473 1.0822ZM113.968 93.2391l-1.46 3.3375-2.474-1.0822 1.46-3.3375 2.474 1.0822ZM111.048 99.9141l-1.46 3.3379-2.474-1.083 1.46-3.3371 2.474 1.0822ZM108.127 106.589l-1.46 3.338-2.473-1.082 1.46-3.338 2.473 1.082ZM105.207 113.264l-1.46 3.338-2.474-1.082 1.46-3.338 2.474 1.082ZM102.287 119.939l-1.461 3.338-2.4731-1.082 1.4601-3.338 2.474 1.082ZM99.3663 126.614l-.7301 1.669-2.4736-1.082.7301-1.669 2.4736 1.082ZM125.02 78.3296l3.286 1.8774 1.339-2.3443-3.285-1.8773-1.34 2.3442ZM131.591 82.0843l3.286 1.8774 1.339-2.3443-3.285-1.8773-1.34 2.3442ZM138.162 85.8391l3.285 1.8773 1.34-2.3442-3.286-1.8774-1.339 2.3443ZM144.733 89.5938l3.285 1.8773 1.34-2.3442-3.286-1.8774-1.339 2.3443ZM151.303 93.3485l3.286 1.8774 1.339-2.3443-3.285-1.8773-1.34 2.3442ZM157.874 97.1032l3.286 1.8774 1.339-2.3443-3.285-1.8773-1.34 2.3442ZM164.445 100.858l3.285 1.877 1.34-2.344-3.285-1.8773-1.34 2.3443ZM171.016 104.613l1.642.938 1.34-2.344-1.643-.939-1.339 2.345Z"/>
  <path fill="#5C5C5C" d="M99.9886 8c-8.758 0-15.8939 7.1486-15.8939 15.9187 0 5.4274 2.6639 10.1978 6.8516 13.0603 2.5713 1.8107 5.7124 2.8583 9.0423 2.8583 4.1884 0 7.9964-1.622 10.8494-4.2892l.002-.0021c3.128-2.9431 5.132-7.0415 5.132-11.7171C115.972 15.0444 108.732 8 99.9886 8Z"/>
  <path fill="#CCC" d="M110.92 34.1506c-.179.2692-.448.4487-.717.6282-2.688 2.5129-6.272 4.0385-10.2144 4.0385-3.136 0-6.0928-.9872-8.512-2.6923-.7168-.4487-1.344-1.077-1.9712-1.6154.3584-.4488.896-.718 2.0608-1.1667l.448-.1795c.896-.359 2.1504-.8077 3.7632-1.5257.2688-.0897.448-.2692.6272-.4487.0896-.0897.1792-.1795.1792-.359.0896-.1795.1792-.4487.1792-.6282v-3.0513l-.1792-.1795c-.2688-.359-.448-.8077-.448-1.3462l-.1792-.0898c-.8064.1795-.7168-.6282-.896-2.2436-.0896-.6282 0-.8077.3584-.8974l.2688-.359c-.5376-1.2565-.8064-2.4231-.8064-3.3206 0-1.5257.6272-2.5129 1.5232-2.9616-.5376-1.0769-.5376-1.4359-.5376-1.4359s3.136.5385 4.211.359c1.344-.2693 3.495.0897 4.301 1.8846 1.344.5385 1.792 1.3462 1.971 2.2437.179 1.4359-.627 2.9615-.806 3.5898v.0897c.179.0898.269.2692.179.8975-.179 1.5256-.179 2.4231-.896 2.2436l-.717 1.2564c0 .1795 0 .1795-.089.2693v3.141c0 .2693.089.6283.268.8077.09.0898.09.1795.18.1795.179.1795.358.359.537.359 1.792.718 3.047 1.2564 4.032 1.6154.896.359 1.523.6282 1.882.8975Z"/>
  <path fill="#777" d="M110.92 34.1504c-.179.2693-.448.4488-.717.6283-2.688 2.5128-6.272 4.0385-10.2144 4.0385-3.136 0-6.0928-.9872-8.512-2.6924-.7168-.4487-1.344-1.0769-1.9712-1.6154.3584-.4487.896-.718 2.0608-1.1667l.448-.1795c.896-.3589 2.1504-.8077 3.7632-1.5256.2688-.0898.448-.2693.6272-.4488.896 1.2565 2.3296 2.0642 4.0324 2.0642 1.612 0 3.046-.8077 3.942-1.9744.179.1795.358.359.538.359 1.792.7179 3.046 1.2564 4.032 1.6154.985.359 1.612.6282 1.971.8974Z"/>
  <path fill="#3A3A3A" d="M105.454 22.3041c.089-.359-.09-.8975-.269-1.1667 0-.0897-.09-.0897-.09-.1795-.627-1.2564-1.971-1.7051-3.225-1.7949-3.3154-.1795-3.5842.4487-4.5698-.4487.3584.4487.3584 1.2564-.1792 2.1539-.3584.6282-.9856.9872-1.6128 1.1667-1.5232-3.4104-.7168-5.5642.7168-6.2822-.5376-1.0769-.5376-1.4359-.5376-1.4359s3.136.5384 4.2112.359c1.3444-.2693 3.4944.0897 4.3004 1.8846 1.344.5385 1.792 1.3462 1.972 2.2436.268 1.3462-.538 2.8719-.717 3.5001Z"/>
  <path fill="url(#paint0_linear_3840_910)" d="M96.8521 30.2015v-3.0514l-.1792-.1795v-.1795c.1792.2693.3584.5385.6272.718l2.4192 1.7052c.5377.4487 1.3437.4487 1.8817 0l2.24-1.9744c.089-.0898.179-.0898.269-.1795v3.1411c0 .1794 0 .2692.089.4487h-7.3469c-.0896-.1795 0-.2693 0-.4487Z"/>
  <path fill="#5C6479" d="M143.348 74.6869c0 6.5009-2.596 12.2795-6.634 16.6134-.289.4334-.722.7224-1.154 1.0113-4.327 4.045-10.096 6.5009-16.443 6.5009-5.048 0-9.807-1.5891-13.702-4.334-1.153-.7223-2.163-1.7335-3.173-2.6003-4.4708-4.3339-7.2112-10.4014-7.2112-17.1913 0-13.2907 10.8172-24.1255 24.0862-24.1255 13.414 0 24.231 10.8348 24.231 24.1255Z"/>
  <path fill="#5C5C5C" d="M143.348 74.6857c0 7.0787-3.029 13.2907-7.788 17.7691-4.327 4.045-10.096 6.5009-16.443 6.5009-5.048 0-9.807-1.5891-13.702-4.334-6.3458-4.3339-10.3842-11.5571-10.3842-19.7916 0-13.2907 10.8172-24.1255 24.0862-24.1255 13.27 0 24.231 10.6903 24.231 23.9811Z"/>
  <path fill="#5C5C5C" fill-rule="evenodd" d="M119.117 51.6357c-12.754 0-23.1558 10.4172-23.1558 23.1944 0 7.9201 3.881 14.8582 9.9788 19.0224l.006.0039.005.0039c3.741 2.6369 8.314 4.1641 13.166 4.1641 6.1 0 11.644-2.3588 15.806-6.2485 4.588-4.3174 7.495-10.2898 7.495-17.0903 0-12.7627-10.532-23.0499-23.301-23.0499ZM94.1001 74.8301c0-13.8043 11.2329-25.0568 25.0169-25.0568 13.77 0 25.162 11.0936 25.162 24.9123 0 7.3568-3.151 13.8082-8.082 18.4475l-.002.0021c-4.492 4.1993-10.486 6.7516-17.078 6.7516-5.242 0-10.185-1.6495-14.232-4.4998-6.5913-4.5041-10.7849-12.0105-10.7849-20.5569Z" clip-rule="evenodd"/>
  <path fill="#CCC" d="M136.715 91.3004c-.289.4334-.721.7223-1.154 1.0112-4.327 4.045-10.096 6.5009-16.442 6.5009-5.048 0-9.808-1.5891-13.702-4.3339-1.154-.7223-2.164-1.7336-3.173-2.6004.577-.7223 1.442-1.1557 3.317-1.878l.721-.2889c1.442-.5779 3.462-1.3002 6.058-2.4559.433-.1445.721-.4334 1.009-.7223.145-.1445.289-.289.289-.5779.144-.2889.288-.7223.288-1.0112v-4.9118l-.288-.289c-.433-.5778-.721-1.3001-.721-2.1669l-.289-.1445c-1.298.2889-1.154-1.0112-1.442-3.6116-.144-1.0112 0-1.3002.577-1.4446l.433-.5779c-.866-2.0225-1.298-3.9005-1.298-5.3452 0-2.4559 1.009-4.045 2.451-4.7673-.865-1.7336-.865-2.3114-.865-2.3114s5.048.8668 6.779.5778c2.163-.4334 5.625.1445 6.923 3.0338 2.164.8668 2.885 2.167 3.173 3.6116.289 2.3114-1.009 4.7673-1.298 5.7786v.1444c.289.1445.433.4334.289 1.4447-.289 2.4559-.289 3.9005-1.443 3.6116l-1.154 2.0225c0 .2889 0 .2889-.144.4334v5.0562c0 .4334.144 1.0113.433 1.3002.144.1445.144.2889.288.2889.289.289.577.5779.866.5779 2.884 1.1557 4.904 2.0225 6.49 2.6003 1.442.5779 2.452 1.0113 3.029 1.4447Z"/>
  <path fill="#777" d="M136.713 91.3003c-.288.4334-.721.7223-1.153 1.0112-4.327 4.045-10.097 6.5009-16.443 6.5009-5.048 0-9.807-1.5891-13.702-4.3339-1.154-.7223-2.163-1.7336-3.173-2.6004.577-.7223 1.443-1.1557 3.318-1.878l.721-.2889c1.442-.5779 3.461-1.3002 6.057-2.4559.433-.1445.722-.4334 1.01-.7223 1.442 2.0225 3.75 3.3226 6.49 3.3226 2.597 0 4.904-1.3001 6.347-3.1782.288.2889.577.5779.865.5779 2.885 1.1557 4.904 2.0225 6.49 2.6003 1.587.5779 2.597 1.0113 3.173 1.4447Z"/>
  <path fill="#3A3A3A" d="M128.213 72.2311c.147-.5779-.147-1.4446-.44-1.878 0-.1445-.147-.1445-.147-.289-1.027-2.0225-3.227-2.7448-5.281-2.8892-5.428-.289-5.868.7223-7.482-.7224.587.7224.587 2.0225-.293 3.4672-.587 1.0112-1.614 1.5891-2.641 1.878-2.494-5.4896-1.173-8.9568 1.174-10.1125-.88-1.7336-.88-2.3114-.88-2.3114s5.134.8668 6.894.5778c2.201-.4334 5.722.1445 7.042 3.0338 2.201.8668 2.934 2.167 3.228 3.6116.44 2.167-.881 4.6229-1.174 5.6341Z"/>
  <path fill="url(#paint1_linear_3840_910)" d="M114.069 84.9437V80.032l-.288-.289v-.2889c.288.4334.577.8668 1.009 1.1557l3.895 2.7448c.865.7224 2.163.7224 3.028 0l3.606-3.1782c.145-.1444.289-.1444.433-.2889v5.0562c0 .289 0 .4334.144.7224h-11.827c-.144-.289 0-.4334 0-.7224Z"/>
  <path fill="#5C5C5C" d="M156.285 19.6493c-5.781 0-10.49 4.718-10.49 10.5065 0 3.5802 1.758 6.7302 4.522 8.6205a10.364 10.364 0 0 0 5.968 1.8861c2.765 0 5.279-1.0711 7.162-2.8309l.002-.0021c2.06-1.9384 3.384-4.6433 3.384-7.7309 0-5.803-4.781-10.4492-10.548-10.4492Z"/>
  <path fill="#CCC" d="M163.269 36.6929c-.114.172-.286.2867-.458.4014-1.717 1.6054-4.007 2.5801-6.525 2.5801-2.004 0-3.893-.6307-5.439-1.7201-.458-.2867-.858-.688-1.259-1.032.229-.2867.572-.4587 1.317-.7454l.286-.1147c.572-.2294 1.374-.516 2.404-.9747.172-.0574.286-.1721.401-.2867.057-.0574.114-.1147.114-.2294.057-.1147.115-.2867.115-.4013v-1.9495c-.058-.0573-.058-.0573-.115-.1147-.172-.2293-.286-.516-.286-.86l-.114-.0574c-.516.1147-.458-.4013-.573-1.4334-.057-.4014 0-.516.229-.5734l.172-.2293c-.344-.8028-.515-1.5481-.515-2.1215 0-.9747.4-1.6055.973-1.8921-.344-.6881-.344-.9174-.344-.9174s2.004.344 2.691.2293c.858-.172 2.232.0573 2.748 1.2041.858.344 1.144.8601 1.259 1.4334.114.9174-.401 1.8922-.515 2.2935v.0574c.114.0573.171.172.114.5733-.114.9748-.114 1.5481-.572 1.4335l-.458.8027c0 .1147 0 .1147-.057.172v2.0068c0 .172.057.4014.171.516.058.0574.058.1147.115.1147.114.1147.229.2294.343.2294 1.145.4587 1.947.8027 2.576 1.032.573.2294.973.4014 1.202.5734Z"/>
  <path fill="#4D4D4D" d="M163.269 36.6928c-.115.172-.286.2867-.458.4014-1.717 1.6054-4.007 2.5801-6.526 2.5801-2.004 0-3.893-.6307-5.438-1.7201-.458-.2867-.859-.688-1.26-1.0321.229-.2866.573-.4587 1.317-.7453l.286-.1147c.573-.2294 1.374-.5161 2.405-.9748.171-.0573.286-.172.4-.2866.573.8027 1.489 1.3187 2.576 1.3187 1.031 0 1.947-.516 2.519-1.2614.115.1147.229.2293.344.2293 1.144.4587 1.946.8028 2.576 1.0321.629.2294 1.03.4014 1.259.5734Z"/>
  <path fill="#3A3A3A" d="M159.777 29.1245c.057-.2293-.057-.5734-.172-.7454 0-.0573-.057-.0573-.057-.1147-.401-.8027-1.259-1.0894-2.061-1.1467-2.118-.1147-2.29.2867-2.919-.2867.229.2867.229.8027-.115 1.3761-.229.4014-.63.6307-1.03.7454-.973-2.1788-.458-3.5549.458-4.0136-.344-.6881-.344-.9174-.344-.9174s2.004.344 2.691.2293c.858-.172 2.232.0574 2.748 1.2041.858.344 1.144.8601 1.259 1.4334.172.8601-.344 1.8348-.458 2.2362Z"/>
  <path fill="url(#paint2_linear_3840_910)" d="M154.281 34.1701v-1.9494l-.114-.1147v-.1147c.114.172.228.3441.4.4587l1.546 1.0894c.343.2867.859.2867 1.202 0l1.431-1.2614c.057-.0573.115-.0573.172-.1147v2.0068c0 .1147 0 .1721.057.2867h-4.694c-.057-.1146 0-.172 0-.2867Z"/>
  <path fill="#5C5C5C" d="M76.9632 71.8387c0-10.016-8.1122-18.144-18.2232-18.0355-9.8904.0028-18.0022 8.0176-18.0022 18.0355 0 6.121 3.1072 11.5696 7.7653 14.7982.432.3238.7893.5644 1.2599.8024 2.6641 1.5507 5.768 2.435 9.0875 2.435 3.3253 0 6.4342-.8874 9.1014-2.4431 1.238-.6779 2.2421-1.4637 3.2179-2.3325l.0092-.0082.009-.0084c3.549-3.3326 5.7752-8.0083 5.7752-13.2434Z"/>
  <path fill="#CCC" d="M55.3729 75.639c.2108.2111.4216.5279.7378.739.2109.2112.4217.3168.6325.528.1054.1055.3162.2111.4217.3167 0 0 .1054 0 .1054.1056l.1054.1056v1.4781l-.1054-.1056c-.1054-.1055-.3163-.2111-.4217-.3167-.2108-.1056-.4216-.3168-.6324-.4223-.1055 0-.1055-.1056-.2109-.1056-.7379-.4224-1.3703-.8447-1.3703-1.3726.1054-.2112.3162-.5279.7379-.9502Zm14.6637 8.1666c-.6325-1.3726-1.4872-2.6764-2.963-3.4154-.7379-.3168-1.5812-.6335-2.4245-.6335H63.595c-1.1595-.1056-1.265-.3168-1.265-.3168v-2.4284c.7379-.6335 1.4758-1.3725 2.1083-2.1116.527-.7391.9487-1.5837 1.1595-2.6396.9487-.2111 1.5812-1.0558 1.4758-2.1116 0-.4223-.3162-.8447-.3162-1.267V67.4035c-.1055-.739-.3163-1.4781-.7379-2.3228-1.265-2.3228-3.584-3.8009-6.3248-3.8009-.527 0-1.0541.1056-1.5811.2111-.9487.2112-1.8974.6335-2.6353 1.267-.1054.1056-.3163.2112-.4217.4224l-.1054.1055c-.8433.8447-1.5812 1.7949-1.8974 2.9563-.4217 1.1615-.4217 2.3229-.3162 3.4843v.2111c0 .2112.1054.2112 0 .3168 0 .1056-.1055.1056-.1055.2111-.2108.3168-.3162.7391-.1054 1.3726.4217 1.0558 1.0542.9503 1.792 1.4782 0 0-.1054 0-.1054.1055l-.7379.2112c-3.3731 1.0558-4.5327 3.9065-3.0569 5.7014.5271.6335 1.3703 1.1615 2.6353 1.4782-.3162 0-.6325.2112-.8433.4223-1.4758 1.1614-2.4245 2.9563-2.6353 4.6456v.3168c.4216.2112.7379.5279 1.1595.7391l16.5066-.3862c1.0541-.6335 1.5205-1.1226 2.4692-1.9672-.1054-.5279.4315-.6717.3261-.7773Z"/>
  <path fill="#777" d="M70.5519 84.4025c-.9487.8447-1.8974 1.5838-3.0569 2.2172-2.5299 1.4782-5.4815 2.3229-8.6438 2.3229-3.1624 0-6.1139-.8447-8.6438-2.3229-.4217-.2111-.7379-.4223-1.1595-.739v-.3168c.2108-1.6893 1.1595-3.4842 2.6353-4.6456.2108-.2112.527-.3167.8432-.4223-1.2649-.2112-2.1082-.7391-2.6353-1.4782h4.0057c1.1595 1.5838 2.9515 2.534 5.0598 2.534 1.792 0 3.3732-.7391 4.5327-1.9005h1.0541c.8433 0 1.6866.2112 2.4245.6335 1.4758.7391 2.5299 2.0061 3.2678 3.4842.2108.2112.2108.4224.3162.6335Z"/>
  <path fill="url(#paint3_linear_3840_910)" d="M62.4349 77.0117v2.2172l-6.641.2112.3163-1.4781c.1054 0 .1054.1055.2108.1055.2108.1056.4217.3168.6325.4224.1054.1055.2108.2111.4216.3167 0 0 .1054 0 .1054.1056V77.434l-.1054-.1055c1.1596.6335 2.7407 1.0558 5.0598-.3168Z"/>
  <path fill="#3A3A3A" d="M66.7565 67.8263c-1.265.4224-2.7407.6335-4.1111.528-2.2137-.2112-4.3219-1.0559-6.0085-2.534-.527 1.5837-1.8974 2.7451-3.4786 3.4842-.2108.1056-.4216.2112-.6325.2112v-.1056c-.1054-1.1614-.1054-2.3228.3163-3.4842.3162-1.1614 1.0541-2.1117 1.8974-2.9563l.1054-.1056c.1054-.1056.3162-.2112.4217-.4223.7378-.6335 1.6866-1.0559 2.6353-1.267.527-.1056 1.0541-.2112 1.5811-.2112 2.7408 0 5.1652 1.4782 6.3248 3.801.4216.8446.6324 1.6893.7378 2.3228.2109.4223.2109.6335.2109.739ZM58.3237 83.4525c-.6325.7391-1.6866.7391-2.6353.7391.9487-.9502.4216-4.0121-2.9515-3.6954-4.6382-.8446-4.2165-5.7014.4216-7.1796l.7379-.2111.1054.1055c.3162.9503.8433 1.795 1.3704 2.4284-1.8975 1.5838.7378 2.0061 2.0028 3.2731 1.0541.6335 2.0028 3.273.9487 4.54Z"/>
  <path fill="#5C5C5C" d="M110.135 130.174c0-8.122-6.578-14.714-14.7773-14.627-8.0203.003-14.5984 6.503-14.5984 14.627 0 4.963 2.5189 9.381 6.2945 11.999.3482.261.6423.459 1.0287.655 2.1599 1.256 4.6755 1.972 7.3648 1.972 2.695 0 5.2157-.719 7.3787-1.98 1.007-.552 1.822-1.19 2.608-1.891l.01-.008.009-.008c2.876-2.702 4.682-6.493 4.682-10.739Z"/>
  <path fill="#CCC" d="M92.6631 133.217c.1688.169.3376.422.5908.591.1688.17.3376.254.5064.423.0844.085.2532.169.3376.254 0 0 .0844 0 .0844.084l.0844.085v1.183l-.0844-.084c-.0844-.085-.2532-.169-.3376-.254-.1688-.084-.3376-.253-.5064-.338-.0844 0-.0844-.084-.1688-.084-.5908-.339-1.0972-.677-1.0972-1.099.0844-.17.2532-.423.5908-.761Zm11.7409 6.539c-.506-1.099-1.191-2.143-2.372-2.735-.591-.254-1.266-.507-1.942-.507h-.8436c-.9284-.085-1.0128-.254-1.0128-.254v-1.944c.5908-.508 1.1816-1.099 1.688-1.691.4224-.592.7594-1.268.9284-2.113.76-.17 1.266-.846 1.182-1.691 0-.338-.254-.677-.254-1.015v-1.183c-.084-.592-.253-1.184-.59-1.86-1.013-1.86-2.87-3.043-5.0645-3.043-.422 0-.844.084-1.266.169-.7596.169-1.5192.507-2.11 1.014-.0844.085-.2532.169-.3376.338l-.0844.085c-.6752.676-1.2661 1.437-1.5193 2.367-.3376.93-.3376 1.86-.2532 2.79v.169c0 .169.0844.169 0 .253 0 .085-.0844.085-.0844.169-.1688.254-.2532.592-.0844 1.099.3376.846.844.761 1.4349 1.184 0 0-.0844 0-.0844.084l-.5909.17c-2.7008.845-3.6292 3.127-2.4476 4.565.422.507 1.0972.929 2.11 1.183-.2532 0-.5064.169-.6752.338-1.1816.93-1.9412 2.367-2.11 3.72v.253c.3376.17.5908.423.9284.592l13.2166-.309c.844-.507 1.217-.899 1.977-1.575-.084-.423.345-.538.261-.622Z"/>
  <path fill="#777" d="M104.817 140.234c-.76.676-1.52 1.268-2.448 1.775-2.026 1.183-4.389 1.86-6.921 1.86-2.5321 0-4.8953-.677-6.921-1.86-.3376-.169-.5908-.338-.9284-.592v-.253c.1688-1.353.9284-2.79 2.1101-3.72.1688-.169.422-.254.6752-.338-1.0128-.169-1.688-.592-2.1101-1.184h3.2073c.9284 1.268 2.3632 2.029 4.0513 2.029 1.4348 0 2.7008-.592 3.6292-1.522H100.006c.675 0 1.35.17 1.941.508 1.181.591 2.025 1.606 2.616 2.789.169.17.169.339.254.508Z"/>
  <path fill="url(#paint4_linear_3840_910)" d="M98.3178 134.316v1.775l-5.3173.169.2532-1.183c.0844 0 .0844.084.1688.084.1688.085.3376.254.5064.339.0844.084.1688.169.3376.253 0 0 .0844 0 .0844.085v-1.184l-.0844-.084c.9284.507 2.1944.845 4.0513-.254Z"/>
  <path fill="#3A3A3A" d="M101.778 126.961c-1.013.338-2.1944.507-3.2917.423-1.7724-.169-3.4604-.846-4.8108-2.029-.422 1.268-1.5193 2.198-2.7853 2.79-.1688.084-.3376.169-.5064.169v-.085c-.0844-.93-.0844-1.86.2532-2.79.2532-.929.844-1.69 1.5192-2.367l.0844-.084c.0844-.085.2532-.169.3376-.338.5909-.508 1.3505-.846 2.1101-1.015.422-.084.844-.169 1.266-.169 2.1944 0 4.1357 1.184 5.0637 3.044.338.676.507 1.352.591 1.859.169.339.169.508.169.592ZM95.0261 139.473c-.5064.592-1.3504.592-2.11.592.7596-.761.3376-3.213-2.3632-2.959-3.7137-.677-3.3761-4.565.3376-5.749l.5908-.169.0844.085c.2532.76.6752 1.437 1.0972 1.944-1.5192 1.268.5908 1.606 1.6036 2.621.844.507 1.6036 2.62.7596 3.635Z"/>
  <path fill="#5C5C5C" d="M192.038 104.797c0-10.7111-8.675-19.4032-19.488-19.2869-10.577.0027-19.252 8.5738-19.252 19.2869 0 6.546 3.323 12.373 8.306 15.826.462.347.843.603 1.344.856 2.85 1.659 6.169 2.605 9.72 2.605 3.557 0 6.882-.949 9.734-2.613 1.323-.724 2.396-1.564 3.442-2.495l.009-.008.009-.008c3.796-3.565 6.176-8.565 6.176-14.163Z"/>
  <path fill="#CCC" d="M168.935 108.876c.227.226.453.566.792.793.226.226.453.34.679.566.113.114.339.227.452.34 0 0 .114 0 .114.113l.113.114v1.586l-.113-.113c-.114-.114-.34-.227-.453-.34-.226-.113-.452-.34-.679-.453-.113 0-.113-.114-.226-.114-.792-.453-1.471-.906-1.471-1.473.114-.226.34-.566.792-1.019Zm15.737 8.764c-.679-1.473-1.596-2.872-3.18-3.666-.792-.34-1.697-.679-2.602-.679h-1.131c-1.244-.114-1.357-.34-1.357-.34v-2.606c.791-.68 1.583-1.473 2.262-2.267.566-.793 1.018-1.699 1.244-2.832 1.019-.227 1.697-1.133 1.584-2.266 0-.454-.339-.907-.339-1.36v-1.586c-.113-.7936-.34-1.5868-.792-2.4932-1.358-2.4928-3.846-4.0791-6.788-4.0791-.565 0-1.131.1133-1.696.2266-1.019.2266-2.037.6799-2.829 1.3597-.113.1133-.339.2266-.452.4532l-.113.1133c-.905.9065-1.697 1.9263-2.036 3.1727-.453 1.2468-.453 2.4928-.34 3.7388v.227c0 .227.113.227 0 .34 0 .113-.113.113-.113.226-.226.34-.339.794-.113 1.473.452 1.134 1.131 1.02 1.923 1.587 0 0-.113 0-.113.113l-.792.227c-3.62 1.133-4.864 4.192-3.281 6.118.566.68 1.471 1.247 2.829 1.587-.34 0-.679.226-.905.453-1.584 1.246-2.602 3.172-2.829 4.985v.34c.453.227.792.567 1.245.793l17.714-.414c1.131-.68 1.632-1.205 2.65-2.111-.113-.567.463-.721.35-.834Z"/>
  <path fill="#777" d="M185.225 118.281c-1.018.906-2.036 1.699-3.28 2.379-2.715 1.586-5.883 2.493-9.276 2.493-3.394 0-6.562-.907-9.277-2.493-.452-.227-.792-.453-1.244-.793v-.34c.226-1.813 1.244-3.739 2.828-4.986.226-.226.566-.34.905-.453-1.357-.226-2.262-.793-2.828-1.586h4.299c1.244 1.699 3.167 2.719 5.43 2.719 1.923 0 3.62-.793 4.864-2.039h1.131c.905 0 1.81.226 2.602.68 1.584.793 2.715 2.152 3.507 3.739.226.226.226.453.339.68Z"/>
  <path fill="url(#paint5_linear_3840_910)" d="M176.515 110.349v2.379l-7.127.227.339-1.586c.113 0 .113.113.226.113.227.113.453.34.679.453.113.114.226.227.453.34 0 0 .113 0 .113.114v-1.587l-.113-.113c1.244.68 2.941 1.133 5.43-.34Z"/>
  <path fill="#3A3A3A" d="M181.153 100.491c-1.358.454-2.942.68-4.412.567-2.376-.227-4.638-1.1332-6.448-2.7195-.566 1.6995-2.037 2.9465-3.734 3.7395-.226.113-.452.226-.678.226v-.113c-.113-1.246-.113-2.4928.339-3.7392.339-1.2464 1.131-2.2661 2.036-3.1726l.113-.1133c.114-.1133.34-.2266.453-.4532.792-.6799 1.81-1.1331 2.828-1.3597.566-.1133 1.131-.2267 1.697-.2267 2.941 0 5.543 1.5863 6.787 4.0791.453.9065.679 1.8129.792 2.4928.227.4528.227.6798.227.7928ZM172.102 117.261c-.678.793-1.81.793-2.828.793 1.018-1.02.453-4.306-3.167-3.966-4.978-.906-4.525-6.118.452-7.705l.792-.226.113.113c.34 1.02.905 1.926 1.471 2.606-2.036 1.7.792 2.153 2.149 3.513 1.132.68 2.15 3.512 1.018 4.872Z"/>
  <defs>
    <linearGradient id="paint0_linear_3840_910" x1="100.422" x2="100.422" y1="30.53" y2="28.5086" gradientUnits="userSpaceOnUse">
      <stop stop-color="#CCC"/>
      <stop offset=".9913" stop-color="#AAA"/>
    </linearGradient>
    <linearGradient id="paint1_linear_3840_910" x1="119.815" x2="119.815" y1="85.4726" y2="82.2188" gradientUnits="userSpaceOnUse">
      <stop stop-color="#CCC"/>
      <stop offset=".9913" stop-color="#AAA"/>
    </linearGradient>
    <linearGradient id="paint2_linear_3840_910" x1="156.561" x2="156.561" y1="34.3801" y2="33.0886" gradientUnits="userSpaceOnUse">
      <stop stop-color="#CCC"/>
      <stop offset=".9913" stop-color="#AAA"/>
    </linearGradient>
    <linearGradient id="paint3_linear_3840_910" x1="59.1016" x2="59.1016" y1="79.3645" y2="78.0925" gradientUnits="userSpaceOnUse">
      <stop stop-color="#CCC"/>
      <stop offset=".9913" stop-color="#AAA"/>
    </linearGradient>
    <linearGradient id="paint4_linear_3840_910" x1="95.6489" x2="95.6489" y1="136.2" y2="135.181" gradientUnits="userSpaceOnUse">
      <stop stop-color="#CCC"/>
      <stop offset=".9913" stop-color="#AAA"/>
    </linearGradient>
    <linearGradient id="paint5_linear_3840_910" x1="172.937" x2="172.937" y1="112.874" y2="111.509" gradientUnits="userSpaceOnUse">
      <stop stop-color="#CCC"/>
      <stop offset=".9913" stop-color="#AAA"/>
    </linearGradient>
  </defs>
</svg>