<svg xmlns="http://www.w3.org/2000/svg" width="231" height="160" fill="none" viewBox="0 0 231 160">
  <path fill="#F0F0F0" d="M118.794 128.159c29.701 0 53.779-24.095 53.779-53.8176 0-29.7227-24.078-53.8177-53.779-53.8177-29.7017 0-53.7794 24.095-53.7794 53.8177 0 29.7226 24.0777 53.8176 53.7794 53.8176Z"/>
  <path fill="#BCB9B3" fill-rule="evenodd" d="m158.517 30.9815-1.147 1.3819-2.077-1.7246 1.147-1.382 2.077 1.7247Zm-3.442 4.1458-2.294 2.7639-2.077-1.7246 2.294-2.7639 2.077 1.7246Zm-4.589 5.5278-2.294 2.7639-2.078-1.7246 2.295-2.7639 2.077 1.7246Zm-4.589 5.5278-2.294 2.7639-2.078-1.7246 2.295-2.7639 2.077 1.7246Zm-4.589 5.5278-2.294 2.7639-2.078-1.7247 2.295-2.7639 2.077 1.7247Zm-4.589 5.5278-2.294 2.7639-2.078-1.7247 2.295-2.7639 2.077 1.7247Zm-4.589 5.5278-2.295 2.7639-2.077-1.7247 2.295-2.7639 2.077 1.7247Zm-4.589 5.5278-2.295 2.7638-2.077-1.7246 2.294-2.7639 2.078 1.7247Zm-4.589 5.5277-1.148 1.382-2.077-1.7246 1.147-1.382 2.078 1.7246Z" clip-rule="evenodd"/>
  <path fill="#BCB9B3" fill-rule="evenodd" d="m100.11 25.5288-.6261-1.5906 2.5121-.9885.626 1.5906-2.512.9885Zm2.503 6.3622-1.252-3.1811 2.513-.9886 1.251 3.1811-2.512.9886Zm2.503 6.3621-1.252-3.1811 2.513-.9885 1.252 3.1811-2.513.9885Zm2.503 6.3622-1.251-3.1811 2.512-.9885 1.252 3.1811-2.513.9885Zm2.503 6.3622-1.251-3.1811 2.512-.9885 1.252 3.181-2.513.9886Zm2.503 6.3621-1.251-3.181 2.512-.9886 1.252 3.1811-2.513.9885Zm2.504 6.3622-1.252-3.1811 2.513-.9885 1.251 3.1811-2.512.9885Zm2.503 6.3622-1.252-3.1811 2.513-.9885 1.251 3.181-2.512.9886Zm1.877 4.7716-.626-1.5905 2.513-.9886.626 1.5906-2.513.9885Z" clip-rule="evenodd"/>
  <path fill="#BCB9B3" fill-rule="evenodd" d="m61.7037 73.2652-1.9034-.0782.1109-2.6977 1.9034.0782-.1109 2.6977Zm7.6138.3129-3.8069-.1564.1109-2.6978 3.8068.1565-.1108 2.6977Zm7.6137.3129-3.8068-.1565.1108-2.6977 3.8069.1565-.1109 2.6977Zm7.6138.3129-3.8069-.1565.1109-2.6977 3.8068.1565-.1108 2.6977Zm7.6137.3129-3.8069-.1565.1109-2.6977 3.8069.1565-.1109 2.6977Zm7.6138.3129-3.8069-.1565.1109-2.6977 3.8068.1564-.1108 2.6978Zm7.6135.3129-3.807-.1565.111-2.6977 3.807.1564-.111 2.6978Zm7.614.3129-3.807-.1565.111-2.6977 3.807.1564-.111 2.6978Zm5.71.2346-1.903-.0782.111-2.6977 1.903.0782-.111 2.6977Z" clip-rule="evenodd"/>
  <path fill="#BCB9B3" fill-rule="evenodd" d="m122.002 74.8824-.73 1.6687-2.473-1.0822.73-1.6687 2.473 1.0822Zm-2.19 5.0063-1.46 3.3375-2.474-1.0822 1.46-3.3375 2.474 1.0822Zm-2.92 6.675-1.46 3.3376-2.474-1.0822 1.46-3.3376 2.474 1.0822Zm-2.921 6.6751-1.46 3.3376-2.473-1.0823 1.46-3.3375 2.473 1.0822Zm-2.92 6.6751-1.46 3.3371-2.474-1.082 1.46-3.3373 2.474 1.0822Zm-2.92 6.6751-1.46 3.337-2.474-1.082 1.46-3.337 2.474 1.082Zm-2.921 6.675-1.46 3.338-2.473-1.083 1.46-3.337 2.473 1.082Zm-2.92 6.675-1.46 3.338-2.4737-1.083 1.4601-3.337 2.4736 1.082Zm-2.9203 6.675-.7301 1.669-2.4736-1.082.7301-1.669 2.4736 1.082Z" clip-rule="evenodd"/>
  <path fill="#BCB9B3" fill-rule="evenodd" d="m121.738 76.4521-1.642-.9387 1.339-2.3442 1.643.9387-1.34 2.3442Zm6.571 3.7548-3.285-1.8774 1.339-2.3443 3.286 1.8774-1.34 2.3443Zm6.571 3.7547-3.285-1.8774 1.339-2.3442 3.286 1.8773-1.34 2.3443Zm6.571 3.7547-3.286-1.8774 1.34-2.3442 3.285 1.8773-1.339 2.3443Zm6.57 3.7547-3.285-1.8773 1.34-2.3443 3.285 1.8774-1.34 2.3442Zm6.571 3.7547-3.285-1.8773 1.339-2.3443 3.286 1.8774-1.34 2.3442Zm6.571 3.7548-3.285-1.8774 1.339-2.3442 3.286 1.8773-1.34 2.3443Zm6.571 3.7545-3.286-1.877 1.34-2.3444 3.285 1.8774-1.339 2.344Zm4.928 2.816-1.643-.938 1.34-2.345 1.642.939-1.339 2.344Z" clip-rule="evenodd"/>
  <path fill="#D5DDEA" d="M115.042 23.8297c0 4.0386-1.613 7.6284-4.122 10.3207-.179.2693-.448.4488-.717.6283-2.688 2.5128-6.272 4.0385-10.2143 4.0385-3.136 0-6.0929-.9872-8.5121-2.6924-.7168-.4487-1.344-1.0769-1.9712-1.6154-2.7776-2.6923-4.48-6.4616-4.48-10.6797 0-8.2565 6.72-14.9874 14.9633-14.9874 8.3333 0 15.0533 6.7309 15.0533 14.9874Z"/>
  <g filter="url(#filter0_d_3840_892)">
    <path fill="#EDE5DA" d="M99.9886 8c-8.758 0-15.8939 7.1486-15.8939 15.9187 0 5.4274 2.6639 10.1978 6.8516 13.0603 2.5713 1.8107 5.7124 2.8583 9.0423 2.8583 4.1884 0 7.9964-1.622 10.8494-4.2892l.002-.0021c3.128-2.9431 5.132-7.0415 5.132-11.7171C115.972 15.0444 108.732 8 99.9886 8Z"/>
  </g>
  <path fill="url(#paint0_linear_3840_892)" d="M110.15 33.7212c.45.2076.529.7383.117 1.0147a.981.981 0 0 0-.12.0949c-2.682 2.4819-6.243 3.9865-10.1584 3.9865-3.136 0-6.0928-.9872-8.512-2.6923a5.8848 5.8848 0 0 1-.1315-.0849c-1.1125-.7403-1.0259-2.2168.2211-2.6972l.448-.1795c.896-.359 2.1504-.8077 3.7632-1.5257.2688-.0897.448-.2692.6272-.4487.1927-.193.256-.4828.3229-.7472.0219-.0865.0355-.1701.0355-.24v-2.8349c0-.1386-.0471-.2636-.145-.3617a.612.612 0 0 1-.0562-.0642c-.2355-.3248-.3976-.7212-.4226-1.189-.0042-.0779-.0474-.1493-.1171-.1842a.2274.2274 0 0 0-.1375-.019c-.7291.1152-.6503-.6917-.824-2.2574-.0742-.5204-.0255-.7329.1972-.8415.0993-.0484.1974-.1042.2636-.1927.103-.1375.1241-.3193.0599-.4787-.4666-1.1583-.6999-2.228-.6999-3.0641 0-1.1714.3697-2.0253.947-2.5619.2848-.2647.2431-1.0904.1247-1.4607-.1331-.4161.3065-.309.7388-.246 1.0063.1466 2.6629.3509 3.3861.2301.895-.1793 2.148-.08 3.123.5362.985.6226 1.941 1.4556 2.641 2.3877.276.368.423.776.508 1.2044.178 1.4243-.614 2.937-.802 3.5744a.114.114 0 0 0-.004.0319c0 .0449.026.0844.062.1114.137.1029.196.3089.117.8593-.079.6772-.124 1.2306-.211 1.621-.138.6185-.902 1.0031-1.216 1.5535l-.128.2243c-.038.0663-.05.1702-.063.2454-.02.1148-.084.1904-.084.3068v2.9593c0 .2693.089.6283.268.8077.12.1197.243.251.37.3624.05.0437.1.0824.15.1124.119.0714.264.0903.392.142 1.689.679 2.888 1.1913 3.837 1.5371.434.1737.804.3263 1.112.4681Z"/>
  <path fill="#B7B4AF" d="M110.92 34.1504c-.179.2693-.448.4488-.717.6283-2.688 2.5128-6.272 4.0385-10.2144 4.0385-3.136 0-6.0928-.9872-8.512-2.6924-.7168-.4487-1.344-1.0769-1.9712-1.6154.3584-.4487.896-.718 2.0608-1.1667l.448-.1795c.896-.3589 2.1504-.8077 3.7632-1.5256.2688-.0898.448-.2693.6272-.4488.896 1.2565 2.3296 2.0642 4.0324 2.0642 1.612 0 3.046-.8077 3.942-1.9744.179.1795.358.359.538.359 1.792.7179 3.046 1.2564 4.032 1.6154.985.359 1.612.6282 1.971.8974Z"/>
  <path fill="#676767" d="M105.454 22.3041c.089-.359-.09-.8975-.269-1.1667 0-.0897-.09-.0897-.09-.1795-.627-1.2564-1.971-1.7051-3.225-1.7949-3.3154-.1795-3.5842.4487-4.5698-.4487.3584.4487.3584 1.2564-.1792 2.1539-.3584.6282-.9856.9872-1.6128 1.1667-1.5232-3.4104-.7168-5.5642.7168-6.2822-.5376-1.0769-.5376-1.4359-.5376-1.4359s3.136.5384 4.2112.359c1.3444-.2693 3.4944.0897 4.3004 1.8846 1.344.5385 1.792 1.3462 1.972 2.2436.268 1.3462-.538 2.8719-.717 3.5001Z"/>
  <path fill="url(#paint1_linear_3840_892)" d="M96.8521 30.2015v-3.0514l-.1792-.1795v-.1795c.1792.2693.3584.5385.6272.718l2.4192 1.7052c.5377.4487 1.3437.4487 1.8817 0l2.24-1.9744c.089-.0898.179-.0898.269-.1795v3.1411c0 .1794 0 .2692.089.4487h-7.3469c-.0896-.1795 0-.2693 0-.4487Z"/>
  <g filter="url(#filter1_d_3840_892)">
    <path fill="#EDE5DA" d="M119.117 49.7733c-13.784 0-25.0169 11.2525-25.0169 25.0568 0 8.5464 4.1936 16.0528 10.7849 20.5569 4.047 2.8503 8.99 4.4998 14.232 4.4998 6.592 0 12.586-2.5523 17.078-6.7516l.002-.0021c4.931-4.6393 8.082-11.0907 8.082-18.4475 0-13.8187-11.392-24.9123-25.162-24.9123Z"/>
  </g>
  <g filter="url(#filter2_d_3840_892)">
    <path fill="url(#paint2_linear_3840_892)" d="M135.475 90.6092c.725.3342.852 1.1885.189 1.6334a1.5797 1.5797 0 0 0-.193.1528c-4.317 3.9951-10.05 6.4171-16.352 6.4171-5.048 0-9.808-1.5891-13.702-4.3339a9.195 9.195 0 0 1-.212-.1367c-1.791-1.1915-1.651-3.5684.356-4.3417l.721-.2889c1.442-.5779 3.462-1.3002 6.058-2.4559.433-.1445.721-.4334 1.009-.7223.311-.3107.413-.7772.52-1.2028.035-.1393.057-.2738.057-.3863v-4.5634c0-.2231-.075-.4243-.233-.5822a1.12 1.12 0 0 1-.091-.1033c-.379-.5229-.64-1.161-.68-1.9141-.006-.1253-.076-.2402-.188-.2964-.068-.0341-.146-.0425-.222-.0306-1.173.1855-1.046-1.1135-1.326-3.6338-.119-.8377-.041-1.1797.317-1.3546.16-.078.318-.1678.425-.3102.166-.2213.199-.514.096-.7705-.751-1.8645-1.126-3.5865-1.126-4.9324 0-1.8856.595-3.2602 1.524-4.1239.458-.426.391-1.7552.201-2.3513-.215-.6698.493-.4974 1.189-.396 1.62.2359 4.286.5647 5.451.3703 1.724-.3453 4.273-.0485 5.894 1.5487.83.8181 1.695 1.6477 2.609 2.3705.976.7713 1.391 1.7132 1.593 2.7262.286 2.2928-.989 4.7277-1.291 5.7538a.1786.1786 0 0 0-.007.0514c0 .0722.043.1358.1.1793.22.1657.315.4972.189 1.3832-.129 1.0901-.2 1.981-.34 2.6095-.223.9954-1.452 1.6146-1.958 2.5006l-.206.3611c-.061.1067-.081.2739-.101.395-.032.1847-.136.3065-.136.4939v4.7636c0 .4334.144 1.0113.433 1.3002.192.1926.39.4039.595.5833.08.0703.161.1327.241.1809.191.115.425.1453.632.2287 2.718 1.0928 4.648 1.9176 6.176 2.4742.698.2796 1.294.5253 1.789.7535Z"/>
  </g>
  <path fill="#B7B4AF" d="M136.713 91.3003c-.288.4334-.721.7223-1.153 1.0112-4.327 4.045-10.097 6.5009-16.443 6.5009-5.048 0-9.807-1.5891-13.702-4.3339-1.154-.7223-2.163-1.7336-3.173-2.6004.577-.7223 1.443-1.1557 3.318-1.878l.721-.2889c1.442-.5779 3.461-1.3002 6.057-2.4559.433-.1445.722-.4334 1.01-.7223 1.442 2.0225 3.75 3.3226 6.49 3.3226 2.597 0 4.904-1.3001 6.347-3.1782.288.2889.577.5779.865.5779 2.885 1.1557 4.904 2.0225 6.49 2.6003 1.587.5779 2.597 1.0113 3.173 1.4447Z"/>
  <path fill="#676767" d="M128.212 72.2311c.147-.5779-.146-1.4446-.44-1.878 0-.1445-.146-.1445-.146-.289-1.027-2.0225-3.228-2.7448-5.282-2.8892-5.428-.289-5.868.7223-7.481-.7224.586.7224.586 2.0225-.294 3.4672-.587 1.0112-1.613 1.5891-2.64 1.878-2.494-5.4896-1.174-8.9568 1.173-10.1125-.88-1.7336-.88-2.3114-.88-2.3114s5.135.8668 6.895.5778c2.201-.4334 5.721.1445 7.042 3.0338 2.2.8668 2.934 2.167 3.227 3.6116.44 2.167-.88 4.6229-1.174 5.6341Z"/>
  <path fill="url(#paint3_linear_3840_892)" d="M114.069 84.9437V80.032l-.288-.289v-.2889c.288.4334.577.8668 1.009 1.1557l3.895 2.7448c.865.7224 2.163.7224 3.028 0l3.606-3.1782c.145-.1444.289-.1444.433-.2889v5.0562c0 .289 0 .4334.144.7224h-11.827c-.144-.289 0-.4334 0-.7224Z"/>
  <g filter="url(#filter3_d_3840_892)">
    <path fill="#EDE5DA" d="M156.285 19.6493c-5.781 0-10.49 4.718-10.49 10.5065 0 3.5802 1.758 6.7302 4.522 8.6205a10.364 10.364 0 0 0 5.968 1.8861c2.765 0 5.279-1.0711 7.162-2.8309l.002-.0021c2.06-1.9384 3.384-4.6433 3.384-7.7309 0-5.803-4.781-10.4492-10.548-10.4492Z"/>
  </g>
  <path fill="url(#paint4_linear_3840_892)" d="M162.777 36.4186c.288.1326.338.4717.075.6483a.6311.6311 0 0 0-.076.0606c-1.714 1.5857-3.989 2.5469-6.49 2.5469-2.004 0-3.893-.6307-5.439-1.7201a4.405 4.405 0 0 1-.084-.0542c-.711-.473-.655-1.4163.142-1.7232l.286-.1147c.572-.2294 1.374-.516 2.404-.9747.172-.0574.286-.1721.401-.2867.123-.1233.163-.3085.206-.4774.014-.0553.023-.1087.023-.1533v-1.8112c0-.0886-.03-.1684-.093-.2311a.3883.3883 0 0 1-.036-.041c-.15-.2075-.254-.4608-.27-.7597a.1367.1367 0 0 0-.075-.1176.1433.1433 0 0 0-.087-.0122c-.466.0736-.416-.4419-.527-1.4422-.047-.3325-.016-.4682.126-.5376.063-.031.126-.0666.168-.1232a.3138.3138 0 0 0 .039-.3058c-.298-.74-.447-1.4234-.447-1.9576 0-.7484.236-1.294.605-1.6368.182-.1691.155-.6966.079-.9332-.085-.2658.196-.1974.472-.1572.643.0937 1.702.2242 2.164.147.4-.0802.913-.0731 1.398.0737 1.116.3375 2.254 1.2595 2.566 2.3825.017.0597.031.1202.043.1813.113.91-.393 1.8764-.512 2.2837a.0705.0705 0 0 0-.003.0204c0 .0287.017.0539.04.0711.087.0658.124.1974.074.549-.051.4327-.079.7863-.135 1.0357-.088.3951-.576.6409-.777.9925l-.081.1433c-.024.0424-.032.1087-.041.1568-.012.0733-.053.1217-.053.196v1.8907c0 .172.057.4014.171.516.077.0765.155.1604.237.2315a.6284.6284 0 0 0 .095.0719c.076.0456.169.0576.251.0907 1.079.4338 1.845.7611 2.451.982.277.111.514.2085.71.2991Z"/>
  <path fill="#B7B4AF" d="M163.269 36.693c-.115.172-.286.2867-.458.4014-1.717 1.6054-4.007 2.5802-6.526 2.5802-2.004 0-3.893-.6307-5.438-1.7201-.458-.2867-.859-.6881-1.26-1.0321.229-.2867.573-.4587 1.317-.7454l.286-.1147c.573-.2293 1.374-.516 2.405-.9747.171-.0573.286-.172.4-.2867.573.8027 1.489 1.3188 2.576 1.3188 1.031 0 1.947-.5161 2.519-1.2615.115.1147.229.2294.344.2294 1.144.4587 1.946.8027 2.576 1.0321.629.2293 1.03.4013 1.259.5733Z"/>
  <path fill="#676767" d="M159.777 29.1244c.057-.2294-.057-.5734-.172-.7454 0-.0573-.057-.0573-.057-.1147-.401-.8027-1.259-1.0894-2.061-1.1467-2.118-.1147-2.29.2867-2.919-.2867.229.2867.229.8027-.115 1.3761-.229.4013-.63.6307-1.03.7454-.973-2.1788-.458-3.5549.458-4.0136-.344-.6881-.344-.9174-.344-.9174s2.004.344 2.691.2293c.858-.172 2.232.0573 2.748 1.2041.858.344 1.144.8601 1.259 1.4334.172.8601-.344 1.8348-.458 2.2362Z"/>
  <path fill="url(#paint5_linear_3840_892)" d="M154.281 34.1701v-1.9494l-.114-.1147v-.1147c.114.172.228.3441.4.4587l1.546 1.0894c.343.2867.859.2867 1.202 0l1.431-1.2614c.057-.0573.115-.0573.172-.1147v2.0068c0 .1147 0 .1721.057.2867h-4.694c-.057-.1146 0-.172 0-.2867Z"/>
  <g filter="url(#filter4_d_3840_892)">
    <path fill="#EDE5DA" d="M76.9632 71.8387c0-10.016-8.1122-18.144-18.2232-18.0355-9.8904.0028-18.0022 8.0176-18.0022 18.0355 0 6.121 3.1072 11.5696 7.7653 14.7982.432.3238.7893.5644 1.2599.8024 2.6641 1.5507 5.768 2.435 9.0875 2.435 3.3253 0 6.4342-.8874 9.1014-2.4431 1.238-.6779 2.2421-1.4637 3.2179-2.3325l.0092-.0082.009-.0084c3.549-3.3326 5.7752-8.0083 5.7752-13.2434Z"/>
  </g>
  <path fill="url(#paint6_linear_3840_892)" d="M54.7623 76.3691c.2868-.4411.8479-.3703 1.2655-.0502.0498.0381.1048.0823.1513.1244.188.1702.3761.2745.5641.4629.0872.0873.2464.1746.3585.2619.0423.0329.1008.0476.1396.0845a.1279.1279 0 0 1 .0062.0065c.0311.0363.0417.0884.0755.1222a.1805.1805 0 0 1 .0527.1274v1.2544c0 .0981-.0361.113-.1054.0436-.0442-.0443-.1069-.0885-.1726-.1328-.1704-.1147-.3439-.2303-.5087-.3528-.0911-.0677-.1822-.1389-.2733-.1966-.0637-.0404-.1468-.0519-.2003-.105-.0599-.0597-.1488-.0795-.2219-.122-.5824-.3391-1.0797-.6818-1.2194-1.0824-.0499-.1429-.0064-.2977.0749-.4253l.0133-.0207Zm15.258 7.523c.0938-.1057-.0135-.1522-.0746-.2797-.6235-1.3007-1.4658-2.5177-2.8721-3.222-.7379-.3167-1.5812-.6335-2.4245-.6335H63.595a7.6 7.6 0 0 1-.4951-.0599c-.5349-.0845-.7699-.5387-.7699-1.0803 0-1.0187.4565-1.9755 1.1724-2.7004a19.457 19.457 0 0 0 .9359-1.0162 9.6877 9.6877 0 0 0 .0437-.0618c.9859-1.4095 2.7625-2.9778 2.5916-4.6894 0-.4223-.3162-.8446-.3162-1.267v-1.1588c0-.2126-.0128-.4253-.0516-.6344-.118-.6359-.3245-1.283-.6863-2.0077-1.265-2.3228-3.584-3.801-6.3248-3.801-.527 0-1.0541.1056-1.5811.2112-.9487.2112-1.8974.6335-2.6353 1.267-.0824.0825-.2292.165-.3398.298-.0631.076-.1175.16-.1873.2299-.8433.8447-1.5812 1.7949-1.8974 2.9563-.4089 1.1263-.4213 2.2527-.3255 3.379.0005.0061.0093.2047.0093.2108v.1056c0 .1003.0238.153.0374.192.0299.0851-.0402.1773-.1023.2427-.0463.0487-.0614.1224-.0945.1809-.1732.3063-.2434.7081-.0515 1.2849.4002 1.0021.9904.9579 1.6804 1.4023.0353.0227.035.0931.0167.1309-.0084.0174-.0233.0541-.0418.0595l-.7066.2021c-3.3731 1.0559-4.5327 3.9066-3.0569 5.7015.3872.4654.9452.8739 1.7157 1.1835.1303.0523.1755.6176.0763.717-1.4758 1.1614-2.4245 2.9563-2.6353 4.6456 0 .1941.1111.3697.2742.475.1873.1209.3611.2555.5455.3794.2155.1446.4755.1982.735.1922l15.1116-.3536c.6552-.0153 1.3061-.1863 1.8318-.5778.3962-.295.7276-.5921 1.1267-.9532.3154-.2854.5379-.8325.8203-1.1506Z"/>
  <path fill="#B7B4AF" d="M70.5519 84.4028c-.9487.8446-1.8974 1.5837-3.0569 2.2172-2.5299 1.4781-5.4815 2.3228-8.6438 2.3228-3.1624 0-6.1139-.8447-8.6438-2.3228-.4217-.2112-.7379-.4223-1.1595-.7391v-.3167c.2108-1.6893 1.1595-3.4842 2.6353-4.6456.2108-.2112.527-.3168.8432-.4224-1.2649-.2111-2.1082-.7391-2.6353-1.4781h4.0057c1.1595 1.5837 2.9515 2.5339 5.0598 2.5339 1.792 0 3.3732-.739 4.5327-1.9004h1.0541c.8433 0 1.6866.2111 2.4245.6335 1.4758.739 2.5299 2.006 3.2678 3.4842.2108.2111.2108.4223.3162.6335Z"/>
  <path fill="url(#paint7_linear_3840_892)" d="M62.4349 77.012v2.2172l-6.641.2111.3163-1.4781c.1054 0 .1054.1056.2108.1056.2108.1056.4217.3167.6325.4223.1054.1056.2108.2112.4216.3168 0 0 .1054 0 .1054.1055v-1.4781l-.1054-.1056c1.1596.6335 2.7407 1.0558 5.0598-.3167Z"/>
  <path fill="#676767" d="M66.7565 67.8263c-1.265.4224-2.7407.6335-4.1111.528-2.2137-.2112-4.3219-1.0559-6.0085-2.534-.527 1.5837-1.8974 2.7451-3.4786 3.4842-.2108.1056-.4216.2112-.6325.2112v-.1056c-.1054-1.1614-.1054-2.3228.3163-3.4842.3162-1.1614 1.0541-2.1117 1.8974-2.9563l.1054-.1056c.1054-.1056.3162-.2112.4217-.4223.7378-.6335 1.6866-1.0559 2.6353-1.267.527-.1056 1.0541-.2112 1.5811-.2112 2.7408 0 5.1652 1.4782 6.3248 3.801.4216.8446.6324 1.6893.7378 2.3228.2109.4223.2109.6335.2109.739ZM58.3237 83.4525c-.6325.7391-1.6866.7391-2.6353.7391.9487-.9502.4216-4.0121-2.9515-3.6954-4.6382-.8446-4.2165-5.7014.4216-7.1796l.7379-.2111.1054.1055c.3162.9503.8433 1.795 1.3704 2.4284-1.8975 1.5838.7378 2.0061 2.0028 3.2731 1.0541.6335 2.0028 3.273.9487 4.54Z"/>
  <g filter="url(#filter5_d_3840_892)">
    <path fill="#EDE5DA" d="M110.135 130.174c0-8.122-6.578-14.714-14.7773-14.627-8.0203.003-14.5984 6.503-14.5984 14.627 0 4.963 2.5189 9.381 6.2945 11.999.3482.261.6423.459 1.0287.655 2.1599 1.256 4.6755 1.972 7.3648 1.972 2.695 0 5.2157-.719 7.3787-1.98 1.007-.552 1.822-1.19 2.608-1.891l.01-.008.009-.008c2.876-2.702 4.682-6.493 4.682-10.739Z"/>
  </g>
  <path fill="url(#paint8_linear_3840_892)" d="M92.1742 133.801c.2296-.353.6789-.296 1.0133-.04.0399.03.0839.066.1211.1.1505.136.3011.219.4517.37.0698.07.1972.14.287.21.0339.026.0807.038.1118.068a.0215.0215 0 0 1 .005.005c.0248.029.0334.071.0604.098a.143.143 0 0 1 .0422.102v1.004c0 .077-.0297.09-.0844.035-.0354-.036-.0856-.071-.1382-.106-.1364-.092-.2753-.185-.4073-.283-.0729-.054-.1459-.111-.2188-.157-.051-.033-.1176-.042-.1604-.084-.048-.048-.1191-.064-.1776-.098-.4664-.272-.8646-.546-.9764-.867-.0399-.114-.0052-.238.06-.34.0034-.006.007-.011.0106-.017Zm12.2168 6.024c.075-.085-.011-.122-.06-.224-.499-1.042-1.173-2.016-2.299-2.58-.591-.254-1.266-.507-1.942-.507h-.8436a6.464 6.464 0 0 1-.3964-.048c-.4283-.068-.6164-.432-.6164-.865 0-.816.3655-1.582.9386-2.162.2623-.266.5149-.54.7494-.814.0117-.016.0234-.033.035-.05.7894-1.128 2.2114-2.384 2.0754-3.754 0-.338-.254-.677-.254-1.015v-.864c0-.212-.012-.425-.053-.634-.096-.489-.26-.988-.537-1.545-1.013-1.86-2.87-3.043-5.0645-3.043-.422 0-.844.084-1.266.169-.7596.169-1.5192.507-2.11 1.014-.066.066-.1835.132-.272.239-.0506.061-.0941.128-.15.184-.6752.676-1.2661 1.437-1.5193 2.367-.3274.902-.3373 1.804-.2606 2.705.0004.005.0074.164.0074.169v.085c0 .08.0191.122.0301.153.0239.069-.0322.142-.082.195-.0371.039-.0492.098-.0756.145-.1387.245-.195.567-.0413 1.028.3205.803.793.767 1.3454 1.123.0283.018.0281.075.0134.105-.0067.014-.0186.043-.0334.048l-.5658.162c-2.7008.845-3.6292 3.127-2.4476 4.565.3101.372.7568.699 1.3737.947.1044.042.1406.495.0611.574-1.1816.93-1.9412 2.367-2.11 3.72 0 .155.089.296.2196.38.15.097.289.205.4367.304.1726.116.3808.159.5885.154l12.0992-.283c.525-.013 1.046-.149 1.467-.463.317-.236.583-.474.902-.763.253-.229.431-.667.657-.921Z"/>
  <path fill="#B7B4AF" d="M104.817 140.234c-.76.676-1.52 1.268-2.448 1.775-2.026 1.183-4.389 1.86-6.921 1.86-2.5321 0-4.8953-.677-6.921-1.86-.3376-.169-.5908-.338-.9284-.592v-.253c.1688-1.353.9284-2.79 2.1101-3.72.1688-.169.422-.254.6752-.338-1.0128-.169-1.688-.592-2.1101-1.184h3.2073c.9284 1.268 2.3632 2.029 4.0513 2.029 1.4348 0 2.7008-.592 3.6292-1.522H100.006c.675 0 1.35.17 1.941.508 1.181.591 2.025 1.606 2.616 2.789.169.17.169.339.254.508Z"/>
  <path fill="url(#paint9_linear_3840_892)" d="M98.3178 134.316v1.775l-5.3173.169.2532-1.183c.0844 0 .0844.084.1688.084.1688.085.3376.254.5064.339.0844.084.1688.169.3376.253 0 0 .0844 0 .0844.085v-1.184l-.0844-.084c.9284.507 2.1944.845 4.0513-.254Z"/>
  <path fill="#676767" d="M101.778 126.961c-1.013.338-2.1944.507-3.2917.423-1.7724-.169-3.4604-.846-4.8108-2.029-.422 1.268-1.5193 2.198-2.7853 2.79-.1688.084-.3376.169-.5064.169v-.085c-.0844-.93-.0844-1.86.2532-2.79.2532-.929.844-1.69 1.5192-2.367l.0844-.084c.0844-.085.2532-.169.3376-.338.5909-.508 1.3505-.846 2.1101-1.015.422-.084.844-.169 1.266-.169 2.1944 0 4.1357 1.184 5.0637 3.044.338.676.507 1.352.591 1.859.169.339.169.508.169.592ZM95.0261 139.473c-.5064.592-1.3504.592-2.11.592.7596-.761.3376-3.213-2.3632-2.959-3.7137-.677-3.3761-4.565.3376-5.749l.5908-.169.0844.085c.2532.76.6752 1.437 1.0972 1.944-1.5192 1.268.5908 1.606 1.6036 2.621.844.507 1.6036 2.62.7596 3.635Z"/>
  <g filter="url(#filter6_d_3840_892)">
    <path fill="#EDE5DA" d="M192.038 104.797c0-10.7111-8.675-19.4032-19.488-19.2869-10.577.0027-19.252 8.5738-19.252 19.2869 0 6.546 3.323 12.373 8.306 15.826.462.347.843.603 1.344.856 2.85 1.659 6.169 2.605 9.72 2.605 3.557 0 6.882-.949 9.734-2.613 1.323-.724 2.396-1.564 3.442-2.495l.009-.008.009-.008c3.796-3.565 6.176-8.565 6.176-14.163Z"/>
  </g>
  <path fill="url(#paint10_linear_3840_892)" d="M168.28 109.659c.308-.474.91-.398 1.358-.054.054.041.113.088.162.133.202.183.404.295.606.497.093.094.264.188.385.281.045.036.108.051.149.091.003.002.005.005.007.007.033.039.045.095.081.131.036.036.057.086.057.137v1.346c0 .104-.04.12-.113.047-.048-.048-.115-.095-.186-.143-.183-.123-.369-.247-.546-.378-.097-.073-.195-.149-.293-.211-.068-.044-.157-.056-.215-.113-.064-.064-.16-.085-.238-.131-.625-.364-1.159-.732-1.309-1.162-.053-.153-.007-.319.081-.456a.2688.2688 0 0 1 .014-.022Zm16.374 8.073c.101-.113-.014-.163-.08-.3-.669-1.396-1.573-2.702-3.082-3.458-.792-.34-1.697-.679-2.602-.679h-1.131a7.8945 7.8945 0 0 1-.531-.065c-.574-.09-.826-.578-.826-1.159 0-1.093.489-2.12 1.258-2.898.351-.356.69-.723 1.004-1.091.036-.05.072-.101.107-.153 1.003-1.472 2.832-3.061 2.729-4.84-.002-.035-.004-.07-.008-.105 0-.454-.339-.907-.339-1.36v-1.267c0-.213-.013-.4254-.051-.6346-.126-.6899-.348-1.3911-.741-2.1776-1.358-2.4928-3.846-4.0791-6.788-4.0791-.565 0-1.131.1133-1.696.2266-1.019.2266-2.037.6799-2.829 1.3597-.088.0886-.246.1771-.364.3198-.068.0816-.126.1717-.201.2467-.905.9065-1.697 1.9263-2.036 3.1727-.439 1.2087-.453 2.4178-.35 3.6258.001.007.01.22.01.227v.113c0 .108.026.164.04.206.032.091-.043.19-.11.26-.049.053-.065.132-.101.195-.186.328-.261.759-.055 1.378.429 1.076 1.063 1.029 1.803 1.505.038.025.038.1.018.141-.009.019-.025.058-.045.064l-.758.217c-3.62 1.133-4.864 4.192-3.281 6.118.416.5 1.015.938 1.842 1.27.139.057.188.663.082.77-1.584 1.246-2.602 3.172-2.829 4.985 0 .209.12.397.295.51.201.13.387.274.585.407.231.156.51.213.789.207l16.217-.38c.703-.016 1.402-.2 1.966-.62.425-.317.781-.635 1.209-1.023.339-.306.577-.893.88-1.235Z"/>
  <path fill="#B7B4AF" d="M185.225 118.281c-1.018.906-2.036 1.699-3.28 2.379-2.715 1.586-5.883 2.493-9.276 2.493-3.394 0-6.562-.907-9.277-2.493-.452-.227-.792-.453-1.244-.793v-.34c.226-1.813 1.244-3.739 2.828-4.986.226-.226.566-.34.905-.453-1.357-.226-2.262-.793-2.828-1.586h4.299c1.244 1.699 3.167 2.719 5.43 2.719 1.923 0 3.62-.793 4.864-2.039h1.131c.905 0 1.81.226 2.602.68 1.584.793 2.715 2.152 3.507 3.739.226.226.226.453.339.68Z"/>
  <path fill="url(#paint11_linear_3840_892)" d="M176.372 110.434v2.38l-7.126.226.339-1.586c.113 0 .113.113.226.113.226.113.453.34.679.453.113.114.226.227.452.34 0 0 .114 0 .114.114v-1.587l-.114-.113c1.245.68 2.942 1.133 5.43-.34Z"/>
  <path fill="#676767" d="M181.153 100.491c-1.358.454-2.942.68-4.412.567-2.376-.227-4.638-1.1332-6.448-2.7195-.566 1.6995-2.037 2.9465-3.734 3.7395-.226.113-.452.226-.678.226v-.113c-.113-1.246-.113-2.4928.339-3.7392.339-1.2464 1.131-2.2661 2.036-3.1726l.113-.1133c.114-.1133.34-.2266.453-.4532.792-.6799 1.81-1.1331 2.828-1.3597.566-.1133 1.131-.2267 1.697-.2267 2.941 0 5.543 1.5863 6.787 4.0791.453.9065.679 1.8129.792 2.4928.227.4528.227.6798.227.7928Z"/>
  <path fill="#B7B4AF" d="M172.102 117.261c-.678.793-1.81.793-2.828.793 1.018-1.02.453-4.306-3.167-3.966-4.978-.906-4.525-6.118.452-7.705l.792-.226.113.113c.34 1.02.905 1.926 1.471 2.606-2.036 1.7.792 2.153 2.149 3.513 1.132.68 2.15 3.512 1.018 4.872Z"/>
  <defs>
    <linearGradient id="paint0_linear_3840_892" x1="100.206" x2="100.206" y1="13.7502" y2="39.0815" gradientUnits="userSpaceOnUse">
      <stop stop-color="#FDFEFF"/>
      <stop offset=".9964" stop-color="#F5F2EC"/>
    </linearGradient>
    <linearGradient id="paint1_linear_3840_892" x1="100.422" x2="100.422" y1="30.53" y2="28.5086" gradientUnits="userSpaceOnUse">
      <stop stop-color="#fff" stop-opacity="0"/>
      <stop offset=".9913" stop-color="#DAD6CF"/>
    </linearGradient>
    <linearGradient id="paint2_linear_3840_892" x1="119.468" x2="119.468" y1="58.4615" y2="99.2377" gradientUnits="userSpaceOnUse">
      <stop stop-color="#FDFEFF"/>
      <stop offset=".9964" stop-color="#F5F2EC"/>
    </linearGradient>
    <linearGradient id="paint3_linear_3840_892" x1="119.815" x2="119.815" y1="85.4726" y2="82.2188" gradientUnits="userSpaceOnUse">
      <stop stop-color="#fff" stop-opacity="0"/>
      <stop offset=".9913" stop-color="#DAD6CF"/>
    </linearGradient>
    <linearGradient id="paint4_linear_3840_892" x1="156.424" x2="156.424" y1="23.6593" y2="39.8432" gradientUnits="userSpaceOnUse">
      <stop stop-color="#FDFEFF"/>
      <stop offset=".9964" stop-color="#F5F2EC"/>
    </linearGradient>
    <linearGradient id="paint5_linear_3840_892" x1="156.561" x2="156.561" y1="34.3801" y2="33.0886" gradientUnits="userSpaceOnUse">
      <stop stop-color="#fff" stop-opacity="0"/>
      <stop offset=".9913" stop-color="#DAD6CF"/>
    </linearGradient>
    <linearGradient id="paint6_linear_3840_892" x1="59.8061" x2="59.8061" y1="60.6866" y2="87.2131" gradientUnits="userSpaceOnUse">
      <stop stop-color="#FDFEFF"/>
      <stop offset=".9964" stop-color="#F5F2EC"/>
    </linearGradient>
    <linearGradient id="paint7_linear_3840_892" x1="59.1016" x2="59.1016" y1="79.3647" y2="78.0927" gradientUnits="userSpaceOnUse">
      <stop stop-color="#fff" stop-opacity="0"/>
      <stop offset=".9913" stop-color="#DAD6CF"/>
    </linearGradient>
    <linearGradient id="paint8_linear_3840_892" x1="96.2127" x2="96.2127" y1="121.244" y2="142.484" gradientUnits="userSpaceOnUse">
      <stop stop-color="#FDFEFF"/>
      <stop offset=".9964" stop-color="#F5F2EC"/>
    </linearGradient>
    <linearGradient id="paint9_linear_3840_892" x1="95.6489" x2="95.6489" y1="136.2" y2="135.181" gradientUnits="userSpaceOnUse">
      <stop stop-color="#fff" stop-opacity="0"/>
      <stop offset=".9913" stop-color="#DAD6CF"/>
    </linearGradient>
    <linearGradient id="paint10_linear_3840_892" x1="173.693" x2="173.693" y1="92.8288" y2="121.296" gradientUnits="userSpaceOnUse">
      <stop stop-color="#FDFEFF"/>
      <stop offset=".9964" stop-color="#F5F2EC"/>
    </linearGradient>
    <linearGradient id="paint11_linear_3840_892" x1="172.795" x2="172.795" y1="112.959" y2="111.594" gradientUnits="userSpaceOnUse">
      <stop stop-color="#fff" stop-opacity="0"/>
      <stop offset=".9913" stop-color="#DAD6CF"/>
    </linearGradient>
    <filter id="filter0_d_3840_892" width="39.0774" height="39.0373" x="80.4947" y="8" color-interpolation-filters="sRGB" filterUnits="userSpaceOnUse">
      <feFlood flood-opacity="0" result="BackgroundImageFix"/>
      <feColorMatrix in="SourceAlpha" result="hardAlpha" values="0 0 0 0 0 0 0 0 0 0 0 0 0 0 0 0 0 0 127 0"/>
      <feOffset dy="3.6"/>
      <feGaussianBlur stdDeviation="1.8"/>
      <feComposite in2="hardAlpha" operator="out"/>
      <feColorMatrix values="0 0 0 0 0.576471 0 0 0 0 0.501961 0 0 0 0 0.396078 0 0 0 0.25 0"/>
      <feBlend in2="BackgroundImageFix" result="effect1_dropShadow_3840_892"/>
      <feBlend in="SourceGraphic" in2="effect1_dropShadow_3840_892" result="shape"/>
    </filter>
    <filter id="filter1_d_3840_892" width="57.3787" height="57.3135" x="90.5001" y="49.7733" color-interpolation-filters="sRGB" filterUnits="userSpaceOnUse">
      <feFlood flood-opacity="0" result="BackgroundImageFix"/>
      <feColorMatrix in="SourceAlpha" result="hardAlpha" values="0 0 0 0 0 0 0 0 0 0 0 0 0 0 0 0 0 0 127 0"/>
      <feOffset dy="3.6"/>
      <feGaussianBlur stdDeviation="1.8"/>
      <feComposite in2="hardAlpha" operator="out"/>
      <feColorMatrix values="0 0 0 0 0.576471 0 0 0 0 0.501961 0 0 0 0 0.396078 0 0 0 0.25 0"/>
      <feBlend in2="BackgroundImageFix" result="effect1_dropShadow_3840_892"/>
      <feBlend in="SourceGraphic" in2="effect1_dropShadow_3840_892" result="shape"/>
    </filter>
    <filter id="filter2_d_3840_892" width="71.744" height="78.9289" x="84.1526" y="49.5836" color-interpolation-filters="sRGB" filterUnits="userSpaceOnUse">
      <feFlood flood-opacity="0" result="BackgroundImageFix"/>
      <feColorMatrix in="SourceAlpha" result="hardAlpha" values="0 0 0 0 0 0 0 0 0 0 0 0 0 0 0 0 0 0 127 0"/>
      <feOffset dy="9.9"/>
      <feGaussianBlur stdDeviation="9.9"/>
      <feColorMatrix values="0 0 0 0 0.576471 0 0 0 0 0.501961 0 0 0 0 0.396078 0 0 0 0.37 0"/>
      <feBlend in2="BackgroundImageFix" result="effect1_dropShadow_3840_892"/>
      <feBlend in="SourceGraphic" in2="effect1_dropShadow_3840_892" result="shape"/>
    </filter>
    <filter id="filter3_d_3840_892" width="28.2381" height="28.2131" x="142.195" y="19.6493" color-interpolation-filters="sRGB" filterUnits="userSpaceOnUse">
      <feFlood flood-opacity="0" result="BackgroundImageFix"/>
      <feColorMatrix in="SourceAlpha" result="hardAlpha" values="0 0 0 0 0 0 0 0 0 0 0 0 0 0 0 0 0 0 127 0"/>
      <feOffset dy="3.6"/>
      <feGaussianBlur stdDeviation="1.8"/>
      <feComposite in2="hardAlpha" operator="out"/>
      <feColorMatrix values="0 0 0 0 0.576471 0 0 0 0 0.501961 0 0 0 0 0.396078 0 0 0 0.25 0"/>
      <feBlend in2="BackgroundImageFix" result="effect1_dropShadow_3840_892"/>
      <feBlend in="SourceGraphic" in2="effect1_dropShadow_3840_892" result="shape"/>
    </filter>
    <filter id="filter4_d_3840_892" width="43.4256" height="43.2721" x="37.1378" y="53.8021" color-interpolation-filters="sRGB" filterUnits="userSpaceOnUse">
      <feFlood flood-opacity="0" result="BackgroundImageFix"/>
      <feColorMatrix in="SourceAlpha" result="hardAlpha" values="0 0 0 0 0 0 0 0 0 0 0 0 0 0 0 0 0 0 127 0"/>
      <feOffset dy="3.6"/>
      <feGaussianBlur stdDeviation="1.8"/>
      <feComposite in2="hardAlpha" operator="out"/>
      <feColorMatrix values="0 0 0 0 0.576471 0 0 0 0 0.501961 0 0 0 0 0.396078 0 0 0 0.25 0"/>
      <feBlend in2="BackgroundImageFix" result="effect1_dropShadow_3840_892"/>
      <feBlend in="SourceGraphic" in2="effect1_dropShadow_3840_892" result="shape"/>
    </filter>
    <filter id="filter5_d_3840_892" width="36.576" height="36.4535" x="77.1593" y="115.547" color-interpolation-filters="sRGB" filterUnits="userSpaceOnUse">
      <feFlood flood-opacity="0" result="BackgroundImageFix"/>
      <feColorMatrix in="SourceAlpha" result="hardAlpha" values="0 0 0 0 0 0 0 0 0 0 0 0 0 0 0 0 0 0 127 0"/>
      <feOffset dy="3.6"/>
      <feGaussianBlur stdDeviation="1.8"/>
      <feComposite in2="hardAlpha" operator="out"/>
      <feColorMatrix values="0 0 0 0 0.576471 0 0 0 0 0.501961 0 0 0 0 0.396078 0 0 0 0.25 0"/>
      <feBlend in2="BackgroundImageFix" result="effect1_dropShadow_3840_892"/>
      <feBlend in="SourceGraphic" in2="effect1_dropShadow_3840_892" result="shape"/>
    </filter>
    <filter id="filter6_d_3840_892" width="45.9397" height="45.7753" x="149.698" y="85.5089" color-interpolation-filters="sRGB" filterUnits="userSpaceOnUse">
      <feFlood flood-opacity="0" result="BackgroundImageFix"/>
      <feColorMatrix in="SourceAlpha" result="hardAlpha" values="0 0 0 0 0 0 0 0 0 0 0 0 0 0 0 0 0 0 127 0"/>
      <feOffset dy="3.6"/>
      <feGaussianBlur stdDeviation="1.8"/>
      <feComposite in2="hardAlpha" operator="out"/>
      <feColorMatrix values="0 0 0 0 0.576471 0 0 0 0 0.501961 0 0 0 0 0.396078 0 0 0 0.25 0"/>
      <feBlend in2="BackgroundImageFix" result="effect1_dropShadow_3840_892"/>
      <feBlend in="SourceGraphic" in2="effect1_dropShadow_3840_892" result="shape"/>
    </filter>
  </defs>
</svg>