<svg width="231" height="160" viewBox="0 0 231 160" fill="none" xmlns="http://www.w3.org/2000/svg">
<path d="M118.794 128.159C148.495 128.159 172.573 104.064 172.573 74.3414C172.573 44.6187 148.495 20.5237 118.794 20.5237C89.0923 20.5237 65.0146 44.6187 65.0146 74.3414C65.0146 104.064 89.0923 128.159 118.794 128.159Z" fill="#242424"/>
<path d="M100.106 25.5288L99.4805 23.9382L101.993 22.9497L102.619 24.5403L100.106 25.5288Z" fill="#5C5C5C"/>
<path d="M102.609 31.891L101.358 28.7099L103.87 27.7213L105.122 30.9024L102.609 31.891Z" fill="#5C5C5C"/>
<path d="M105.113 38.2531L103.861 35.072L106.374 34.0835L107.625 37.2646L105.113 38.2531Z" fill="#5C5C5C"/>
<path d="M107.616 44.6153L106.364 41.4342L108.877 40.4457L110.128 43.6268L107.616 44.6153Z" fill="#5C5C5C"/>
<path d="M110.119 50.9775L108.867 47.7964L111.38 46.8079L112.631 49.9889L110.119 50.9775Z" fill="#5C5C5C"/>
<path d="M112.622 57.3396L111.37 54.1586L113.883 53.17L115.135 56.3511L112.622 57.3396Z" fill="#5C5C5C"/>
<path d="M115.125 63.7018L113.874 60.5207L116.386 59.5322L117.638 62.7133L115.125 63.7018Z" fill="#5C5C5C"/>
<path d="M117.628 70.064L116.377 66.8829L118.889 65.8944L120.141 69.0754L117.628 70.064Z" fill="#5C5C5C"/>
<path d="M118.898 73.2919L118.88 73.2451L118.901 73.2369L118.914 72.9142L119.645 72.9442L120.421 72.6388L120.87 72.0972L121.168 72.3446L121.392 72.2565L121.553 72.6635L122.948 73.8218L122.827 73.9668L123.075 74.108L121.735 76.4522L121.397 76.259L121.269 76.5514L119.155 75.6264L118.803 75.6119L118.809 75.475L118.795 75.4692L118.81 75.435L118.898 73.2919Z" fill="#5C5C5C"/>
<path d="M158.513 30.9815L157.366 32.3634L155.289 30.6388L156.436 29.2568L158.513 30.9815Z" fill="#5C5C5C"/>
<path d="M155.072 35.1273L152.777 37.8912L150.7 36.1666L152.994 33.4027L155.072 35.1273Z" fill="#5C5C5C"/>
<path d="M150.482 40.6551L148.188 43.419L146.111 41.6944L148.405 38.9305L150.482 40.6551Z" fill="#5C5C5C"/>
<path d="M145.893 46.1829L143.599 48.9468L141.521 47.2222L143.816 44.4583L145.893 46.1829Z" fill="#5C5C5C"/>
<path d="M141.304 51.7107L139.01 54.4746L136.932 52.7499L139.227 49.986L141.304 51.7107Z" fill="#5C5C5C"/>
<path d="M136.715 57.2385L134.421 60.0024L132.343 58.2777L134.638 55.5138L136.715 57.2385Z" fill="#5C5C5C"/>
<path d="M132.126 62.7663L129.831 65.5302L127.754 63.8055L130.049 61.0416L132.126 62.7663Z" fill="#5C5C5C"/>
<path d="M127.537 68.2941L125.242 71.0579L123.165 69.3333L125.46 66.5694L127.537 68.2941Z" fill="#5C5C5C"/>
<path d="M59.7964 73.187L61.6998 73.2652L61.8107 70.5675L59.9073 70.4893L59.7964 73.187Z" fill="#5C5C5C"/>
<path d="M65.5067 73.4216L69.3136 73.5781L69.4244 70.8804L65.6176 70.7239L65.5067 73.4216Z" fill="#5C5C5C"/>
<path d="M73.1204 73.7345L76.9273 73.891L77.0382 71.1933L73.2313 71.0368L73.1204 73.7345Z" fill="#5C5C5C"/>
<path d="M80.7342 74.0474L84.5411 74.2039L84.6519 71.5062L80.8451 71.3497L80.7342 74.0474Z" fill="#5C5C5C"/>
<path d="M88.3479 74.3603L92.1548 74.5168L92.2657 71.8191L88.4588 71.6626L88.3479 74.3603Z" fill="#5C5C5C"/>
<path d="M95.9617 74.6732L99.7686 74.8297L99.8794 72.132L96.0726 71.9755L95.9617 74.6732Z" fill="#5C5C5C"/>
<path d="M103.575 74.9861L107.382 75.1426L107.493 72.4448L103.686 72.2884L103.575 74.9861Z" fill="#5C5C5C"/>
<path d="M111.189 75.299L114.996 75.4555L115.107 72.7577L111.3 72.6013L111.189 75.299Z" fill="#5C5C5C"/>
<path d="M119.809 79.8889L118.349 83.2265L115.875 82.1442L117.335 78.8067L119.809 79.8889Z" fill="#5C5C5C"/>
<path d="M116.888 86.564L115.428 89.9015L112.955 88.8193L114.415 85.4818L116.888 86.564Z" fill="#5C5C5C"/>
<path d="M113.968 93.2391L112.508 96.5766L110.034 95.4944L111.494 92.1569L113.968 93.2391Z" fill="#5C5C5C"/>
<path d="M111.048 99.9141L109.588 103.252L107.114 102.169L108.574 98.8319L111.048 99.9141Z" fill="#5C5C5C"/>
<path d="M108.127 106.589L106.667 109.927L104.194 108.845L105.654 105.507L108.127 106.589Z" fill="#5C5C5C"/>
<path d="M105.207 113.264L103.747 116.602L101.273 115.52L102.733 112.182L105.207 113.264Z" fill="#5C5C5C"/>
<path d="M102.287 119.939L100.826 123.277L98.3529 122.195L99.813 118.857L102.287 119.939Z" fill="#5C5C5C"/>
<path d="M99.3663 126.614L98.6362 128.283L96.1626 127.201L96.8927 125.532L99.3663 126.614Z" fill="#5C5C5C"/>
<path d="M125.02 78.3296L128.306 80.207L129.645 77.8627L126.36 75.9854L125.02 78.3296Z" fill="#5C5C5C"/>
<path d="M131.591 82.0843L134.877 83.9617L136.216 81.6174L132.931 79.7401L131.591 82.0843Z" fill="#5C5C5C"/>
<path d="M138.162 85.8391L141.447 87.7164L142.787 85.3722L139.501 83.4948L138.162 85.8391Z" fill="#5C5C5C"/>
<path d="M144.733 89.5938L148.018 91.4711L149.358 89.1269L146.072 87.2495L144.733 89.5938Z" fill="#5C5C5C"/>
<path d="M151.303 93.3485L154.589 95.2259L155.928 92.8816L152.643 91.0043L151.303 93.3485Z" fill="#5C5C5C"/>
<path d="M157.874 97.1032L161.16 98.9806L162.499 96.6363L159.214 94.759L157.874 97.1032Z" fill="#5C5C5C"/>
<path d="M164.445 100.858L167.73 102.735L169.07 100.391L165.785 98.5137L164.445 100.858Z" fill="#5C5C5C"/>
<path d="M171.016 104.613L172.658 105.551L173.998 103.207L172.355 102.268L171.016 104.613Z" fill="#5C5C5C"/>
<path d="M99.9886 8C91.2306 8 84.0947 15.1486 84.0947 23.9187C84.0947 29.3461 86.7586 34.1165 90.9463 36.979C93.5176 38.7897 96.6587 39.8373 99.9886 39.8373C104.177 39.8373 107.985 38.2153 110.838 35.5481L110.84 35.546C113.968 32.6029 115.972 28.5045 115.972 23.8289C115.972 15.0444 108.732 8 99.9886 8Z" fill="#5C5C5C"/>
<path d="M110.92 34.1506C110.741 34.4198 110.472 34.5993 110.203 34.7788C107.515 37.2917 103.931 38.8173 99.9886 38.8173C96.8526 38.8173 93.8958 37.8301 91.4766 36.125C90.7598 35.6763 90.1326 35.048 89.5054 34.5096C89.8638 34.0608 90.4014 33.7916 91.5662 33.3429L92.0142 33.1634C92.9102 32.8044 94.1646 32.3557 95.7774 31.6377C96.0462 31.548 96.2254 31.3685 96.4046 31.189C96.4942 31.0993 96.5838 31.0095 96.5838 30.83C96.6734 30.6505 96.763 30.3813 96.763 30.2018V27.1505C96.6734 27.0607 96.6734 27.0607 96.5838 26.971C96.315 26.612 96.1358 26.1633 96.1358 25.6248L95.9566 25.535C95.1502 25.7145 95.2398 24.9068 95.0606 23.2914C94.971 22.6632 95.0606 22.4837 95.419 22.394L95.6878 22.035C95.1502 20.7785 94.8814 19.6119 94.8814 18.7144C94.8814 17.1887 95.5086 16.2015 96.4046 15.7528C95.867 14.6759 95.867 14.3169 95.867 14.3169C95.867 14.3169 99.003 14.8554 100.078 14.6759C101.422 14.4066 103.573 14.7656 104.379 16.5605C105.723 17.099 106.171 17.9067 106.35 18.8042C106.529 20.2401 105.723 21.7657 105.544 22.394V22.4837C105.723 22.5735 105.813 22.7529 105.723 23.3812C105.544 24.9068 105.544 25.8043 104.827 25.6248L104.11 26.8812C104.11 27.0607 104.11 27.0607 104.021 27.1505C104.021 27.4197 104.021 27.8684 104.021 30.2915C104.021 30.5608 104.11 30.9198 104.289 31.0992C104.379 31.189 104.379 31.2787 104.469 31.2787C104.648 31.4582 104.827 31.6377 105.006 31.6377C106.798 32.3557 108.053 32.8941 109.038 33.2531C109.934 33.6121 110.561 33.8813 110.92 34.1506Z" fill="#CCCCCC"/>
<path d="M110.92 34.1503C110.741 34.4195 110.472 34.599 110.203 34.7785C107.515 37.2914 103.931 38.8171 99.9886 38.8171C96.8526 38.8171 93.8958 37.8299 91.4766 36.1247C90.7598 35.676 90.1326 35.0478 89.5054 34.5093C89.8638 34.0606 90.4014 33.7913 91.5662 33.3426L92.0142 33.1631C92.9102 32.8041 94.1646 32.3554 95.7774 31.6374C96.0462 31.5477 96.2254 31.3682 96.4046 31.1887C97.3006 32.4452 98.7342 33.2529 100.437 33.2529C102.049 33.2529 103.483 32.4452 104.379 31.2785C104.558 31.458 104.737 31.6374 104.917 31.6374C106.709 32.3554 107.963 32.8939 108.949 33.2529C109.934 33.6118 110.561 33.8811 110.92 34.1503Z" fill="#777777"/>
<path d="M105.454 22.304C105.543 21.945 105.364 21.4065 105.185 21.1373C105.185 21.0475 105.095 21.0475 105.095 20.9578C104.468 19.7014 103.124 19.2526 101.87 19.1629C98.5546 18.9834 98.2858 19.6116 97.3002 18.7142C97.6586 19.1629 97.6586 19.9706 97.121 20.8681C96.7626 21.4963 96.1354 21.8552 95.5082 22.0347C93.985 18.6244 94.7914 16.4705 96.225 15.7526C95.6874 14.6756 95.6874 14.3167 95.6874 14.3167C95.6874 14.3167 98.8234 14.8551 99.8986 14.6756C101.243 14.4064 103.393 14.7654 104.199 16.5603C105.543 17.0988 105.991 17.9065 106.171 18.8039C106.439 20.1501 105.633 21.6758 105.454 22.304Z" fill="#3A3A3A"/>
<path d="M96.8521 30.2016V27.1502C96.7625 27.0605 96.7625 27.0605 96.6729 26.9707V26.7913C96.8521 27.0605 97.0313 27.3297 97.3001 27.5092L99.7193 29.2144C100.257 29.6631 101.063 29.6631 101.601 29.2144L103.841 27.24C103.93 27.1502 104.02 27.1502 104.11 27.0605C104.11 27.3297 104.11 27.7785 104.11 30.2016C104.11 30.3811 104.11 30.4708 104.199 30.6503H96.8521C96.7625 30.4708 96.8521 30.3811 96.8521 30.2016Z" fill="url(#paint0_linear_3840_910)"/>
<path d="M143.348 74.6871C143.348 81.1879 140.752 86.9665 136.714 91.3004C136.425 91.7338 135.992 92.0228 135.56 92.3117C131.233 96.3567 125.464 98.8126 119.117 98.8126C114.069 98.8126 109.31 97.2235 105.415 94.4787C104.262 93.7563 103.252 92.7451 102.242 91.8783C97.7712 87.5444 95.0308 81.4769 95.0308 74.6871C95.0308 61.3963 105.848 50.5615 119.117 50.5615C132.531 50.5615 143.348 61.3963 143.348 74.6871Z" fill="#5C6479"/>
<path d="M143.348 74.6857C143.348 81.7644 140.319 87.9764 135.56 92.4548C131.233 96.4998 125.464 98.9557 119.117 98.9557C114.069 98.9557 109.31 97.3666 105.415 94.6217C99.0692 90.2878 95.0308 83.0646 95.0308 74.8301C95.0308 61.5394 105.848 50.7046 119.117 50.7046C132.387 50.7046 143.348 61.3949 143.348 74.6857Z" fill="#5C5C5C"/>
<path fill-rule="evenodd" clip-rule="evenodd" d="M119.117 51.6359C106.363 51.6359 95.9612 62.053 95.9612 74.8302C95.9612 82.7503 99.8422 89.6884 105.94 93.8526L105.946 93.8565L105.951 93.8605C109.692 96.4973 114.265 98.0245 119.117 98.0245C125.217 98.0245 130.761 95.6657 134.923 91.776C139.511 87.4586 142.418 81.4862 142.418 74.6857C142.418 61.923 131.886 51.6359 119.117 51.6359ZM94.1001 74.8302C94.1001 61.026 105.333 49.7734 119.117 49.7734C132.887 49.7734 144.279 60.867 144.279 74.6857C144.279 82.0425 141.128 88.4939 136.197 93.1333L136.195 93.1353C131.703 97.3347 125.709 99.8869 119.117 99.8869C113.875 99.8869 108.932 98.2375 104.885 95.3872C98.2937 90.8831 94.1001 83.3766 94.1001 74.8302Z" fill="#5C5C5C"/>
<path d="M136.715 91.3006C136.426 91.734 135.994 92.023 135.561 92.3119C131.234 96.3569 125.465 98.8128 119.119 98.8128C114.071 98.8128 109.311 97.2237 105.417 94.4789C104.263 93.7565 103.253 92.7453 102.244 91.8785C102.821 91.1562 103.686 90.7228 105.561 90.0005L106.282 89.7115C107.724 89.1337 109.744 88.4114 112.34 87.2556C112.773 87.1112 113.061 86.8222 113.349 86.5333C113.494 86.3889 113.638 86.2444 113.638 85.9555C113.782 85.6665 113.926 85.2331 113.926 84.9442V80.0324C113.782 79.888 113.782 79.888 113.638 79.7435C113.205 79.1656 112.917 78.4433 112.917 77.5765L112.628 77.4321C111.33 77.721 111.474 76.4208 111.186 73.8205C111.042 72.8092 111.186 72.5203 111.763 72.3758L112.196 71.798C111.33 69.7755 110.898 67.8974 110.898 66.4528C110.898 63.9969 111.907 62.4078 113.349 61.6855C112.484 59.9519 112.484 59.374 112.484 59.374C112.484 59.374 117.532 60.2408 119.263 59.9519C121.426 59.5185 124.888 60.0963 126.186 62.9856C128.35 63.8524 129.071 65.1526 129.359 66.5972C129.648 68.9087 128.35 71.3646 128.061 72.3758V72.5203C128.35 72.6647 128.494 72.9537 128.35 73.9649C128.061 76.4208 128.061 77.8655 126.907 77.5765L125.753 79.599C125.753 79.888 125.753 79.888 125.609 80.0324C125.609 80.4658 125.609 81.1881 125.609 85.0887C125.609 85.5221 125.753 86.0999 126.042 86.3888C126.186 86.5333 126.186 86.6778 126.33 86.6778C126.619 86.9667 126.907 87.2556 127.196 87.2556C130.08 88.4114 132.1 89.2781 133.686 89.856C135.128 90.4338 136.138 90.8672 136.715 91.3006Z" fill="#CCCCCC"/>
<path d="M136.713 91.3005C136.425 91.7339 135.992 92.0228 135.56 92.3118C131.233 96.3568 125.463 98.8127 119.117 98.8127C114.069 98.8127 109.31 97.2236 105.415 94.4787C104.261 93.7564 103.252 92.7452 102.242 91.8784C102.819 91.1561 103.685 90.7227 105.56 90.0003L106.281 89.7114C107.723 89.1336 109.742 88.4112 112.338 87.2555C112.771 87.1111 113.06 86.8221 113.348 86.5332C114.79 88.5557 117.098 89.8559 119.838 89.8559C122.435 89.8559 124.742 88.5557 126.185 86.6777C126.473 86.9666 126.762 87.2555 127.05 87.2555C129.935 88.4112 131.954 89.278 133.54 89.8559C135.127 90.4337 136.137 90.8671 136.713 91.3005Z" fill="#777777"/>
<path d="M128.213 72.2313C128.36 71.6535 128.066 70.7867 127.773 70.3533C127.773 70.2088 127.626 70.2088 127.626 70.0644C126.599 68.0419 124.399 67.3196 122.345 67.1751C116.917 66.8862 116.477 67.8974 114.863 66.4528C115.45 67.1751 115.45 68.4753 114.57 69.9199C113.983 70.9312 112.956 71.509 111.929 71.798C109.435 66.3083 110.756 62.8412 113.103 61.6855C112.223 59.9519 112.223 59.374 112.223 59.374C112.223 59.374 117.357 60.2408 119.117 59.9519C121.318 59.5185 124.839 60.0963 126.159 62.9856C128.36 63.8524 129.093 65.1526 129.387 66.5972C129.827 68.7642 128.506 71.2201 128.213 72.2313Z" fill="#3A3A3A"/>
<path d="M114.069 84.944V80.0322C113.925 79.8877 113.925 79.8877 113.781 79.7433V79.4543C114.069 79.8877 114.358 80.3211 114.79 80.6101L118.685 83.3549C119.55 84.0772 120.848 84.0772 121.713 83.3549L125.319 80.1767C125.464 80.0322 125.608 80.0322 125.752 79.8877C125.752 80.3211 125.752 81.0434 125.752 84.944C125.752 85.2329 125.752 85.3774 125.896 85.6663H114.069C113.925 85.3774 114.069 85.2329 114.069 84.944Z" fill="url(#paint1_linear_3840_910)"/>
<path d="M156.285 19.6494C150.504 19.6494 145.795 24.3674 145.795 30.156C145.795 33.7361 147.553 36.8862 150.317 38.7765C152.015 39.9714 154.088 40.6625 156.285 40.6625C159.05 40.6625 161.564 39.5914 163.447 37.8316L163.449 37.8295C165.509 35.8911 166.833 33.1862 166.833 30.0986C166.833 24.2956 162.052 19.6494 156.285 19.6494Z" fill="#5C5C5C"/>
<path d="M163.269 36.693C163.155 36.865 162.983 36.9797 162.811 37.0944C161.094 38.6998 158.804 39.6746 156.286 39.6746C154.282 39.6746 152.393 39.0439 150.847 37.9544C150.389 37.6678 149.989 37.2664 149.588 36.9224C149.817 36.6357 150.16 36.4637 150.905 36.177L151.191 36.0623C151.763 35.833 152.565 35.5463 153.595 35.0876C153.767 35.0302 153.881 34.9156 153.996 34.8009C154.053 34.7436 154.11 34.6862 154.11 34.5715C154.167 34.4569 154.225 34.2849 154.225 34.1702V32.2207C154.167 32.1634 154.167 32.1634 154.11 32.106C153.938 31.8767 153.824 31.59 153.824 31.246L153.71 31.1886C153.194 31.3033 153.252 30.7873 153.137 29.7552C153.08 29.3539 153.137 29.2392 153.366 29.1818L153.538 28.9525C153.194 28.1498 153.023 27.4044 153.023 26.831C153.023 25.8563 153.423 25.2256 153.996 24.9389C153.652 24.2508 153.652 24.0215 153.652 24.0215C153.652 24.0215 155.656 24.3655 156.343 24.2508C157.201 24.0788 158.575 24.3082 159.091 25.4549C159.949 25.7989 160.235 26.315 160.35 26.8883C160.464 27.8057 159.949 28.7805 159.835 29.1818V29.2392C159.949 29.2965 160.006 29.4112 159.949 29.8125C159.835 30.7873 159.835 31.3607 159.377 31.246L158.919 32.0487C158.919 32.1634 158.919 32.1634 158.862 32.2207C158.862 32.3927 158.862 32.6794 158.862 34.2275C158.862 34.3995 158.919 34.6289 159.033 34.7436C159.091 34.8009 159.091 34.8582 159.148 34.8582C159.262 34.9729 159.377 35.0876 159.491 35.0876C160.636 35.5463 161.438 35.8903 162.067 36.1197C162.64 36.349 163.04 36.521 163.269 36.693Z" fill="#CCCCCC"/>
<path d="M163.269 36.6929C163.154 36.8649 162.983 36.9796 162.811 37.0943C161.094 38.6997 158.804 39.6745 156.285 39.6745C154.281 39.6745 152.392 39.0437 150.847 37.9543C150.389 37.6676 149.988 37.2663 149.587 36.9223C149.816 36.6356 150.16 36.4636 150.904 36.1769L151.19 36.0622C151.763 35.8329 152.564 35.5462 153.595 35.0875C153.766 35.0301 153.881 34.9155 153.995 34.8008C154.568 35.6035 155.484 36.1195 156.571 36.1195C157.602 36.1195 158.518 35.6035 159.09 34.8581C159.205 34.9728 159.319 35.0875 159.434 35.0875C160.578 35.5462 161.38 35.8902 162.01 36.1195C162.639 36.3489 163.04 36.5209 163.269 36.6929Z" fill="#4D4D4D"/>
<path d="M159.777 29.1245C159.834 28.8952 159.72 28.5511 159.605 28.3791C159.605 28.3218 159.548 28.3218 159.548 28.2644C159.147 27.4617 158.289 27.175 157.487 27.1177C155.369 27.003 155.197 27.4044 154.568 26.831C154.797 27.1177 154.797 27.6337 154.453 28.2071C154.224 28.6085 153.823 28.8378 153.423 28.9525C152.45 26.7737 152.965 25.3976 153.881 24.9389C153.537 24.2508 153.537 24.0215 153.537 24.0215C153.537 24.0215 155.541 24.3655 156.228 24.2508C157.086 24.0788 158.46 24.3082 158.976 25.4549C159.834 25.7989 160.12 26.315 160.235 26.8883C160.407 27.7484 159.891 28.7231 159.777 29.1245Z" fill="#3A3A3A"/>
<path d="M154.281 34.1703V32.2208C154.224 32.1635 154.224 32.1635 154.167 32.1061V31.9915C154.281 32.1635 154.395 32.3355 154.567 32.4502L156.113 33.5396C156.456 33.8262 156.972 33.8262 157.315 33.5396L158.746 32.2781C158.803 32.2208 158.861 32.2208 158.918 32.1635C158.918 32.3355 158.918 32.6222 158.918 34.1703C158.918 34.2849 158.918 34.3423 158.975 34.457H154.281C154.224 34.3423 154.281 34.2849 154.281 34.1703Z" fill="url(#paint2_linear_3840_910)"/>
<path d="M76.9632 71.8389C76.9632 61.8229 68.851 53.6948 58.74 53.8033C48.8496 53.8061 40.7378 61.8209 40.7378 71.8389C40.7378 77.9598 43.845 83.4084 48.5031 86.637C48.9351 86.9608 49.2924 87.2015 49.763 87.4394C52.4271 88.9901 55.531 89.8744 58.8505 89.8744C62.1758 89.8744 65.2847 88.987 67.9519 87.4313C69.1899 86.7535 70.194 85.9677 71.1698 85.0989L71.179 85.0907L71.188 85.0822C74.737 81.7496 76.9632 77.074 76.9632 71.8389Z" fill="#5C5C5C"/>
<path d="M55.3729 75.639C55.5837 75.8501 55.7945 76.1669 56.1107 76.378C56.3216 76.5892 56.5324 76.6948 56.7432 76.906C56.8486 77.0115 57.0594 77.1171 57.1649 77.2227C57.1649 77.2227 57.2703 77.2227 57.2703 77.3283L57.3757 77.4339V78.912C57.3757 78.912 57.3757 78.912 57.2703 78.8064C57.1649 78.7009 56.954 78.5953 56.8486 78.4897C56.6378 78.3841 56.427 78.1729 56.2162 78.0674C56.1107 78.0674 56.1107 77.9618 56.0053 77.9618C55.2674 77.5394 54.635 77.1171 54.635 76.5892C54.7404 76.378 54.9512 76.0613 55.3729 75.639ZM70.0366 83.8056C69.4041 82.433 68.5494 81.1292 67.0736 80.3902C66.3357 80.0734 65.4924 79.7567 64.6491 79.7567C64.4383 79.7567 64.1221 79.7567 63.9112 79.7567C63.8058 79.7567 63.7004 79.7567 63.595 79.7567C62.4355 79.6511 62.33 79.4399 62.33 79.4399V77.0115C63.0679 76.378 63.8058 75.639 64.4383 74.8999C64.9653 74.1608 65.387 73.3162 65.5978 72.2603C66.5465 72.0492 67.179 71.2045 67.0736 70.1487C67.0736 69.7264 66.7574 69.304 66.7574 68.8817C66.7574 68.6705 66.7574 68.4594 66.7574 68.2482C66.7574 68.1426 66.7574 67.9315 66.7574 67.8259C66.7574 67.7203 66.7574 67.5091 66.7574 67.4035C66.6519 66.6645 66.4411 65.9254 66.0195 65.0807C64.7545 62.7579 62.4355 61.2798 59.6947 61.2798C59.1677 61.2798 58.6406 61.3854 58.1136 61.4909C57.1649 61.7021 56.2162 62.1244 55.4783 62.7579C55.3729 62.8635 55.162 62.9691 55.0566 63.1803L54.9512 63.2858C54.1079 64.1305 53.37 65.0807 53.0538 66.2421C52.6321 67.4036 52.6321 68.565 52.7376 69.7264C52.7376 69.7264 52.7376 69.7264 52.7376 69.8319V69.9375C52.7376 70.1487 52.843 70.1487 52.7376 70.2543C52.7376 70.3599 52.6321 70.3599 52.6321 70.4654C52.4213 70.7822 52.3159 71.2045 52.5267 71.838C52.9484 72.8938 53.5809 72.7883 54.3187 73.3162C54.3187 73.3162 54.2133 73.3162 54.2133 73.4217L53.4754 73.6329C50.1023 74.6887 48.9427 77.5394 50.4185 79.3343C50.9456 79.9678 51.7888 80.4958 53.0538 80.8125C52.7376 80.8125 52.4213 81.0237 52.2105 81.2348C50.7347 82.3962 49.786 84.1911 49.5752 85.8804C49.5752 85.986 49.5752 86.0916 49.5752 86.1972C49.9968 86.4084 50.3131 86.7251 50.7347 86.9363L67.2413 86.5501C68.2954 85.9166 68.7618 85.4275 69.7105 84.5829C69.6051 84.055 70.142 83.9112 70.0366 83.8056Z" fill="#CCCCCC"/>
<path d="M70.5519 84.4025C69.6032 85.2472 68.6545 85.9863 67.495 86.6197C64.9651 88.0979 62.0135 88.9426 58.8512 88.9426C55.6888 88.9426 52.7373 88.0979 50.2074 86.6197C49.7857 86.4086 49.4695 86.1974 49.0479 85.8807C49.0479 85.7751 49.0479 85.6695 49.0479 85.5639C49.2587 83.8746 50.2074 82.0797 51.6832 80.9183C51.894 80.7071 52.2102 80.6016 52.5264 80.496C51.2615 80.2848 50.4182 79.7569 49.8911 79.0178H53.8968C55.0563 80.6016 56.8483 81.5518 58.9566 81.5518C60.7486 81.5518 62.3298 80.8127 63.4893 79.6513C63.5947 79.6513 63.7001 79.6513 63.8055 79.6513C64.0164 79.6513 64.2272 79.6513 64.5434 79.6513C65.3867 79.6513 66.23 79.8625 66.9679 80.2848C68.4437 81.0239 69.4978 82.2909 70.2357 83.769C70.4465 83.9802 70.4465 84.1914 70.5519 84.4025Z" fill="#777777"/>
<path d="M62.4349 77.0117V79.2289L55.7939 79.4401L56.1102 77.962C56.2156 77.962 56.2156 78.0675 56.321 78.0675C56.5318 78.1731 56.7427 78.3843 56.9535 78.4899C57.0589 78.5954 57.1643 78.701 57.3751 78.8066C57.3751 78.8066 57.4805 78.8066 57.4805 78.9122V77.434L57.3751 77.3285C58.5347 77.962 60.1158 78.3843 62.4349 77.0117Z" fill="url(#paint3_linear_3840_910)"/>
<path d="M66.7565 67.8265C65.4915 68.2488 64.0158 68.46 62.6454 68.3544C60.4317 68.1432 58.3235 67.2986 56.6369 65.8204C56.1099 67.4041 54.7395 68.5655 53.1583 69.3046C52.9475 69.4102 52.7367 69.5158 52.5258 69.5158C52.5258 69.5158 52.5258 69.5158 52.5258 69.4102C52.4204 68.2488 52.4204 67.0874 52.8421 65.926C53.1583 64.7646 53.8962 63.8143 54.7395 62.9697L54.8449 62.8641C54.9503 62.7585 55.1611 62.6529 55.2666 62.4418C56.0044 61.8083 56.9532 61.386 57.9019 61.1748C58.4289 61.0692 58.956 60.9636 59.483 60.9636C62.2238 60.9636 64.6482 62.4418 65.8078 64.7646C66.2294 65.6092 66.4402 66.4539 66.5456 67.0874C66.7565 67.5097 66.7565 67.7209 66.7565 67.8265Z" fill="#3A3A3A"/>
<path d="M58.3237 83.4525C57.6912 84.1916 56.6371 84.1916 55.6884 84.1916C56.6371 83.2414 56.11 80.1795 52.7369 80.4962C48.0987 79.6516 48.5204 74.7948 53.1585 73.3166L53.8964 73.1055L54.0018 73.211C54.318 74.1613 54.8451 75.006 55.3722 75.6394C53.4747 77.2232 56.11 77.6455 57.375 78.9125C58.4291 79.546 59.3778 82.1855 58.3237 83.4525Z" fill="#3A3A3A"/>
<path d="M110.135 130.174C110.135 122.052 103.557 115.46 95.3577 115.547C87.3374 115.55 80.7593 122.05 80.7593 130.174C80.7593 135.137 83.2782 139.554 87.0538 142.173C87.402 142.434 87.6961 142.632 88.0825 142.828C90.2424 144.084 92.758 144.8 95.4473 144.8C98.1423 144.8 100.663 144.081 102.826 142.82C103.833 142.268 104.648 141.63 105.434 140.929L105.444 140.921L105.453 140.913C108.329 138.211 110.135 134.42 110.135 130.174Z" fill="#5C5C5C"/>
<path d="M92.6631 133.217C92.8319 133.386 93.0007 133.639 93.2539 133.808C93.4227 133.977 93.5915 134.062 93.7603 134.231C93.8447 134.316 94.0135 134.4 94.0979 134.485C94.0979 134.485 94.1823 134.485 94.1823 134.569L94.2667 134.654V135.837C94.2667 135.837 94.2667 135.837 94.1823 135.753C94.0979 135.668 93.9291 135.584 93.8447 135.499C93.6759 135.415 93.5071 135.246 93.3383 135.161C93.2539 135.161 93.2539 135.076 93.1695 135.076C92.5787 134.738 92.0723 134.4 92.0723 133.977C92.1567 133.808 92.3255 133.555 92.6631 133.217ZM104.404 139.755C103.898 138.656 103.213 137.613 102.032 137.021C101.441 136.767 100.766 136.514 100.09 136.514C99.9216 136.514 99.6684 136.514 99.4996 136.514C99.4152 136.514 99.3308 136.514 99.2464 136.514C98.318 136.429 98.2336 136.26 98.2336 136.26V134.316C98.8244 133.808 99.4152 133.217 99.9216 132.625C100.344 132.033 100.681 131.357 100.85 130.511C101.61 130.342 102.116 129.666 102.032 128.821C102.032 128.483 101.778 128.144 101.778 127.806C101.778 127.637 101.778 127.468 101.778 127.299C101.778 127.214 101.778 127.045 101.778 126.961C101.778 126.876 101.778 126.707 101.778 126.623C101.694 126.031 101.525 125.439 101.188 124.763C100.175 122.903 98.318 121.719 96.1235 121.719C95.7015 121.719 95.2795 121.804 94.8575 121.889C94.0979 122.058 93.3383 122.396 92.7475 122.903C92.6631 122.988 92.4943 123.072 92.4099 123.241L92.3255 123.326C91.6503 124.002 91.0594 124.763 90.8062 125.693C90.4686 126.623 90.4686 127.553 90.553 128.482C90.553 128.482 90.553 128.482 90.553 128.567V128.652C90.553 128.821 90.6374 128.821 90.553 128.905C90.553 128.99 90.4686 128.99 90.4686 129.074C90.2998 129.328 90.2154 129.666 90.3842 130.173C90.7218 131.019 91.2282 130.934 91.8191 131.357C91.8191 131.357 91.7347 131.357 91.7347 131.441L91.1438 131.61C88.443 132.456 87.5146 134.738 88.6962 136.175C89.1182 136.683 89.7934 137.105 90.8062 137.359C90.553 137.359 90.2998 137.528 90.131 137.697C88.9494 138.627 88.1898 140.064 88.021 141.417C88.021 141.501 88.021 141.586 88.021 141.67C88.3586 141.839 88.6118 142.093 88.9494 142.262L102.166 141.953C103.01 141.446 103.383 141.054 104.143 140.378C104.059 139.955 104.488 139.84 104.404 139.755Z" fill="#CCCCCC"/>
<path d="M104.817 140.234C104.057 140.91 103.297 141.502 102.369 142.009C100.343 143.192 97.98 143.869 95.448 143.869C92.9159 143.869 90.5527 143.192 88.527 142.009C88.1894 141.84 87.9362 141.671 87.5986 141.417C87.5986 141.333 87.5986 141.248 87.5986 141.163C87.7674 139.811 88.527 138.374 89.7087 137.444C89.8775 137.275 90.1307 137.19 90.3839 137.106C89.3711 136.937 88.6959 136.514 88.2738 135.922H91.4811C92.4095 137.19 93.8443 137.951 95.5324 137.951C96.9672 137.951 98.2332 137.359 99.1616 136.429C99.246 136.429 99.3304 136.429 99.4148 136.429C99.5836 136.429 99.7524 136.429 100.006 136.429C100.681 136.429 101.356 136.598 101.947 136.937C103.128 137.528 103.972 138.543 104.563 139.726C104.732 139.895 104.732 140.064 104.817 140.234Z" fill="#777777"/>
<path d="M98.3178 134.316V136.091L93.0005 136.26L93.2537 135.077C93.3381 135.077 93.3381 135.161 93.4225 135.161C93.5913 135.246 93.7601 135.415 93.9289 135.499C94.0133 135.584 94.0977 135.669 94.2665 135.753C94.2665 135.753 94.3509 135.753 94.3509 135.838V134.654L94.2665 134.57C95.1949 135.077 96.4609 135.415 98.3178 134.316Z" fill="url(#paint4_linear_3840_910)"/>
<path d="M101.778 126.961C100.765 127.299 99.5836 127.468 98.4863 127.384C96.7139 127.215 95.0259 126.538 93.6755 125.355C93.2535 126.623 92.1562 127.553 90.8902 128.145C90.7214 128.229 90.5526 128.314 90.3838 128.314C90.3838 128.314 90.3838 128.314 90.3838 128.229C90.2994 127.299 90.2994 126.369 90.637 125.439C90.8902 124.509 91.481 123.749 92.1562 123.072L92.2406 122.988C92.325 122.903 92.4938 122.819 92.5782 122.65C93.1691 122.142 93.9287 121.804 94.6883 121.635C95.1103 121.551 95.5323 121.466 95.9543 121.466C98.1487 121.466 100.09 122.65 101.018 124.509C101.356 125.186 101.525 125.862 101.609 126.369C101.778 126.707 101.778 126.876 101.778 126.961Z" fill="#3A3A3A"/>
<path d="M95.0261 139.473C94.5197 140.064 93.6757 140.064 92.9161 140.064C93.6757 139.304 93.2537 136.852 90.5529 137.106C86.8392 136.429 87.1768 132.541 90.8905 131.357L91.4813 131.188L91.5657 131.273C91.8189 132.033 92.2409 132.71 92.6629 133.217C91.1437 134.485 93.2537 134.823 94.2665 135.838C95.1105 136.345 95.8701 138.458 95.0261 139.473Z" fill="#3A3A3A"/>
<path d="M192.038 104.797C192.038 94.0857 183.363 85.3937 172.55 85.5099C161.973 85.5127 153.298 94.0838 153.298 104.797C153.298 111.343 156.621 117.17 161.604 120.623C162.066 120.97 162.447 121.226 162.948 121.479C165.798 123.138 169.117 124.084 172.668 124.084C176.225 124.084 179.55 123.135 182.402 121.471C183.725 120.747 184.798 119.907 185.844 118.976L185.853 118.968L185.862 118.96C189.658 115.395 192.038 110.395 192.038 104.797Z" fill="#5C5C5C"/>
<path d="M168.935 108.876C169.162 109.102 169.388 109.442 169.727 109.669C169.953 109.895 170.18 110.009 170.406 110.235C170.519 110.349 170.745 110.462 170.858 110.575C170.858 110.575 170.972 110.575 170.972 110.689L171.085 110.802V112.388C171.085 112.388 171.085 112.388 170.972 112.275C170.858 112.162 170.632 112.048 170.519 111.935C170.293 111.822 170.067 111.595 169.84 111.482C169.727 111.482 169.727 111.368 169.614 111.368C168.822 110.915 168.143 110.462 168.143 109.895C168.257 109.669 168.483 109.329 168.935 108.876ZM184.672 117.64C183.993 116.167 183.076 114.768 181.492 113.975C180.7 113.635 179.795 113.295 178.89 113.295C178.664 113.295 178.325 113.295 178.098 113.295C177.985 113.295 177.872 113.295 177.759 113.295C176.515 113.181 176.402 112.955 176.402 112.955V110.349C177.193 109.669 177.985 108.876 178.664 108.083C179.23 107.289 179.682 106.383 179.908 105.25C180.927 105.023 181.605 104.117 181.492 102.984C181.492 102.53 181.153 102.077 181.153 101.624C181.153 101.397 181.153 101.171 181.153 100.944C181.153 100.831 181.153 100.604 181.153 100.491C181.153 100.378 181.153 100.151 181.153 100.038C181.04 99.2445 180.813 98.4514 180.361 97.5449C179.003 95.0521 176.515 93.4658 173.573 93.4658C173.008 93.4658 172.442 93.5791 171.877 93.6924C170.858 93.919 169.84 94.3723 169.048 95.0521C168.935 95.1654 168.709 95.2787 168.596 95.5054L168.483 95.6187C167.578 96.5251 166.786 97.5449 166.447 98.7913C165.994 100.038 165.994 101.284 166.107 102.53C166.107 102.53 166.107 102.53 166.107 102.644V102.757C166.107 102.984 166.22 102.984 166.107 103.097C166.107 103.21 165.994 103.21 165.994 103.324C165.768 103.664 165.655 104.117 165.881 104.797C166.333 105.93 167.012 105.816 167.804 106.383C167.804 106.383 167.691 106.383 167.691 106.496L166.899 106.723C163.279 107.856 162.035 110.915 163.618 112.841C164.184 113.521 165.089 114.088 166.447 114.428C166.107 114.428 165.768 114.654 165.542 114.881C163.958 116.127 162.94 118.054 162.713 119.867C162.713 119.98 162.713 120.093 162.713 120.206C163.166 120.433 163.505 120.773 163.958 121L181.672 120.585C182.803 119.905 183.304 119.38 184.322 118.474C184.209 117.907 184.785 117.753 184.672 117.64Z" fill="#CCCCCC"/>
<path d="M185.225 118.281C184.207 119.187 183.189 119.98 181.945 120.66C179.23 122.246 176.062 123.153 172.669 123.153C169.275 123.153 166.107 122.246 163.392 120.66C162.94 120.434 162.6 120.207 162.148 119.867C162.148 119.754 162.148 119.64 162.148 119.527C162.374 117.714 163.392 115.788 164.976 114.541C165.202 114.315 165.542 114.202 165.881 114.088C164.524 113.862 163.619 113.295 163.053 112.502H167.352C168.596 114.202 170.519 115.221 172.782 115.221C174.705 115.221 176.402 114.428 177.646 113.182C177.759 113.182 177.872 113.182 177.985 113.182C178.212 113.182 178.438 113.182 178.777 113.182C179.682 113.182 180.587 113.408 181.379 113.862C182.963 114.655 184.094 116.014 184.886 117.601C185.112 117.827 185.112 118.054 185.225 118.281Z" fill="#777777"/>
<path d="M176.515 110.349V112.729L169.388 112.955L169.727 111.369C169.84 111.369 169.84 111.482 169.953 111.482C170.18 111.596 170.406 111.822 170.632 111.935C170.745 112.049 170.858 112.162 171.085 112.275C171.085 112.275 171.198 112.275 171.198 112.389V110.802L171.085 110.689C172.329 111.369 174.026 111.822 176.515 110.349Z" fill="url(#paint5_linear_3840_910)"/>
<path d="M181.153 100.491C179.795 100.944 178.211 101.171 176.741 101.058C174.365 100.831 172.103 99.9247 170.293 98.3384C169.727 100.038 168.256 101.284 166.559 102.078C166.333 102.191 166.107 102.304 165.881 102.304C165.881 102.304 165.881 102.304 165.881 102.191C165.768 100.944 165.768 99.6981 166.22 98.4517C166.559 97.2053 167.351 96.1855 168.256 95.2791L168.369 95.1658C168.483 95.0525 168.709 94.9391 168.822 94.7125C169.614 94.0327 170.632 93.5795 171.65 93.3528C172.216 93.2395 172.781 93.1262 173.347 93.1262C176.288 93.1262 178.89 94.7125 180.134 97.2053C180.587 98.1118 180.813 99.0182 180.926 99.6981C181.153 100.151 181.153 100.378 181.153 100.491Z" fill="#3A3A3A"/>
<path d="M172.102 117.261C171.424 118.054 170.292 118.054 169.274 118.054C170.292 117.034 169.727 113.748 166.107 114.088C161.129 113.182 161.582 107.97 166.559 106.383L167.351 106.157L167.464 106.27C167.804 107.29 168.369 108.196 168.935 108.876C166.899 110.576 169.727 111.029 171.084 112.389C172.216 113.069 173.234 115.901 172.102 117.261Z" fill="#3A3A3A"/>
<defs>
<linearGradient id="paint0_linear_3840_910" x1="100.422" y1="30.5301" x2="100.422" y2="28.5087" gradientUnits="userSpaceOnUse">
<stop stop-color="#CCCCCC"/>
<stop offset="0.9913" stop-color="#AAAAAA"/>
</linearGradient>
<linearGradient id="paint1_linear_3840_910" x1="119.815" y1="85.4729" x2="119.815" y2="82.219" gradientUnits="userSpaceOnUse">
<stop stop-color="#CCCCCC"/>
<stop offset="0.9913" stop-color="#AAAAAA"/>
</linearGradient>
<linearGradient id="paint2_linear_3840_910" x1="156.561" y1="34.3802" x2="156.561" y2="33.0887" gradientUnits="userSpaceOnUse">
<stop stop-color="#CCCCCC"/>
<stop offset="0.9913" stop-color="#AAAAAA"/>
</linearGradient>
<linearGradient id="paint3_linear_3840_910" x1="59.1016" y1="79.3645" x2="59.1016" y2="78.0925" gradientUnits="userSpaceOnUse">
<stop stop-color="#CCCCCC"/>
<stop offset="0.9913" stop-color="#AAAAAA"/>
</linearGradient>
<linearGradient id="paint4_linear_3840_910" x1="95.6489" y1="136.2" x2="95.6489" y2="135.181" gradientUnits="userSpaceOnUse">
<stop stop-color="#CCCCCC"/>
<stop offset="0.9913" stop-color="#AAAAAA"/>
</linearGradient>
<linearGradient id="paint5_linear_3840_910" x1="172.937" y1="112.874" x2="172.937" y2="111.509" gradientUnits="userSpaceOnUse">
<stop stop-color="#CCCCCC"/>
<stop offset="0.9913" stop-color="#AAAAAA"/>
</linearGradient>
</defs>
</svg>
