<svg width="231" height="160" viewBox="0 0 231 160" fill="none" xmlns="http://www.w3.org/2000/svg">
<path d="M118.794 128.159C148.495 128.159 172.573 104.064 172.573 74.3414C172.573 44.6187 148.495 20.5237 118.794 20.5237C89.0923 20.5237 65.0146 44.6187 65.0146 74.3414C65.0146 104.064 89.0923 128.159 118.794 128.159Z" fill="#EBEBEB"/>
<path fill-rule="evenodd" clip-rule="evenodd" d="M158.517 30.9815L157.37 32.3634L155.293 30.6388L156.44 29.2568L158.517 30.9815ZM155.075 35.1273L152.781 37.8912L150.704 36.1666L152.998 33.4027L155.075 35.1273ZM150.486 40.6551L148.192 43.419L146.114 41.6944L148.409 38.9305L150.486 40.6551ZM145.897 46.1829L143.603 48.9468L141.525 47.2222L143.82 44.4583L145.897 46.1829ZM141.308 51.7107L139.014 54.4746L136.936 52.7499L139.231 49.986L141.308 51.7107ZM136.719 57.2385L134.425 60.0024L132.347 58.2777L134.642 55.5138L136.719 57.2385ZM132.13 62.7663L129.835 65.5302L127.758 63.8055L130.053 61.0416L132.13 62.7663ZM127.541 68.2941L125.246 71.0579L123.169 69.3333L125.463 66.5694L127.541 68.2941ZM122.952 73.8218L121.804 75.2038L119.727 73.4792L120.874 72.0972L122.952 73.8218Z" fill="#BCB9B3"/>
<path fill-rule="evenodd" clip-rule="evenodd" d="M100.11 25.5288L99.4839 23.9382L101.996 22.9497L102.622 24.5403L100.11 25.5288ZM102.613 31.891L101.361 28.7099L103.874 27.7213L105.125 30.9024L102.613 31.891ZM105.116 38.2531L103.864 35.072L106.377 34.0835L107.629 37.2646L105.116 38.2531ZM107.619 44.6153L106.368 41.4342L108.88 40.4457L110.132 43.6268L107.619 44.6153ZM110.122 50.9775L108.871 47.7964L111.383 46.8079L112.635 49.9889L110.122 50.9775ZM112.625 57.3396L111.374 54.1586L113.886 53.17L115.138 56.3511L112.625 57.3396ZM115.129 63.7018L113.877 60.5207L116.39 59.5322L117.641 62.7133L115.129 63.7018ZM117.632 70.064L116.38 66.8829L118.893 65.8944L120.144 69.0754L117.632 70.064ZM119.509 74.8356L118.883 73.2451L121.396 72.2565L122.022 73.8471L119.509 74.8356Z" fill="#BCB9B3"/>
<path fill-rule="evenodd" clip-rule="evenodd" d="M61.7037 73.2652L59.8003 73.187L59.9112 70.4893L61.8146 70.5675L61.7037 73.2652ZM69.3175 73.5781L65.5106 73.4217L65.6215 70.7239L69.4283 70.8804L69.3175 73.5781ZM76.9312 73.891L73.1244 73.7345L73.2352 71.0368L77.0421 71.1933L76.9312 73.891ZM84.545 74.2039L80.7381 74.0474L80.849 71.3497L84.6558 71.5062L84.545 74.2039ZM92.1587 74.5168L88.3518 74.3603L88.4627 71.6626L92.2696 71.8191L92.1587 74.5168ZM99.7725 74.8297L95.9656 74.6732L96.0765 71.9755L99.8833 72.1319L99.7725 74.8297ZM107.386 75.1426L103.579 74.9861L103.69 72.2884L107.497 72.4448L107.386 75.1426ZM115 75.4555L111.193 75.299L111.304 72.6013L115.111 72.7577L115 75.4555ZM120.71 75.6901L118.807 75.6119L118.918 72.9142L120.821 72.9924L120.71 75.6901Z" fill="#BCB9B3"/>
<path fill-rule="evenodd" clip-rule="evenodd" d="M122.002 74.8824L121.272 76.5511L118.799 75.4689L119.529 73.8002L122.002 74.8824ZM119.812 79.8887L118.352 83.2262L115.878 82.144L117.338 78.8065L119.812 79.8887ZM116.892 86.5637L115.432 89.9013L112.958 88.8191L114.418 85.4815L116.892 86.5637ZM113.971 93.2388L112.511 96.5764L110.038 95.4941L111.498 92.1566L113.971 93.2388ZM111.051 99.9139L109.591 103.251L107.117 102.169L108.577 98.8317L111.051 99.9139ZM108.131 106.589L106.671 109.926L104.197 108.844L105.657 105.507L108.131 106.589ZM105.21 113.264L103.75 116.602L101.277 115.519L102.737 112.182L105.21 113.264ZM102.29 119.939L100.83 123.277L98.3563 122.194L99.8164 118.857L102.29 119.939ZM99.3697 126.614L98.6396 128.283L96.166 127.201L96.8961 125.532L99.3697 126.614Z" fill="#BCB9B3"/>
<path fill-rule="evenodd" clip-rule="evenodd" d="M121.738 76.4521L120.096 75.5134L121.435 73.1692L123.078 74.1079L121.738 76.4521ZM128.309 80.2069L125.024 78.3295L126.363 75.9852L129.649 77.8626L128.309 80.2069ZM134.88 83.9616L131.595 82.0842L132.934 79.74L136.22 81.6173L134.88 83.9616ZM141.451 87.7163L138.165 85.8389L139.505 83.4947L142.79 85.372L141.451 87.7163ZM148.021 91.471L144.736 89.5937L146.076 87.2494L149.361 89.1268L148.021 91.471ZM154.592 95.2257L151.307 93.3484L152.646 91.0041L155.932 92.8815L154.592 95.2257ZM161.163 98.9805L157.878 97.1031L159.217 94.7589L162.503 96.6362L161.163 98.9805ZM167.734 102.735L164.448 100.858L165.788 98.5136L169.073 100.391L167.734 102.735ZM172.662 105.551L171.019 104.613L172.359 102.268L174.001 103.207L172.662 105.551Z" fill="#BCB9B3"/>
<path d="M115.042 23.8297C115.042 27.8683 113.429 31.4581 110.92 34.1504C110.741 34.4197 110.472 34.5992 110.203 34.7787C107.515 37.2915 103.931 38.8172 99.9887 38.8172C96.8527 38.8172 93.8958 37.83 91.4766 36.1248C90.7598 35.6761 90.1326 35.0479 89.5054 34.5094C86.7278 31.8171 85.0254 28.0478 85.0254 23.8297C85.0254 15.5732 91.7454 8.84229 99.9887 8.84229C108.322 8.84229 115.042 15.5732 115.042 23.8297Z" fill="#D5DDEA"/>
<g filter="url(#filter0_d_3840_892)">
<path d="M99.9886 8C91.2306 8 84.0947 15.1486 84.0947 23.9187C84.0947 29.3461 86.7586 34.1165 90.9463 36.979C93.5176 38.7897 96.6587 39.8373 99.9886 39.8373C104.177 39.8373 107.985 38.2153 110.838 35.5481L110.84 35.546C113.968 32.6029 115.972 28.5045 115.972 23.8289C115.972 15.0444 108.732 8 99.9886 8Z" fill="#EDE5DA"/>
</g>
<path d="M110.15 33.7212C110.6 33.9288 110.679 34.4595 110.267 34.7359C110.225 34.7642 110.184 34.7963 110.147 34.8308C107.465 37.3127 103.904 38.8173 99.9886 38.8173C96.8526 38.8173 93.8958 37.8301 91.4766 36.125C91.4324 36.0973 91.3886 36.069 91.3451 36.0401C90.2326 35.2998 90.3192 33.8233 91.5662 33.3429L92.0142 33.1634C92.9102 32.8044 94.1646 32.3557 95.7774 31.6377C96.0462 31.548 96.2254 31.3685 96.4046 31.189C96.5973 30.996 96.6606 30.7062 96.7275 30.4418C96.7494 30.3553 96.763 30.2717 96.763 30.2018V27.3669C96.763 27.2283 96.7159 27.1033 96.618 27.0052C96.6005 26.9877 96.5763 26.9611 96.5618 26.941C96.3263 26.6162 96.1642 26.2198 96.1392 25.752C96.135 25.6741 96.0918 25.6027 96.0221 25.5678C95.9797 25.5466 95.9314 25.5414 95.8846 25.5488C95.1555 25.664 95.2343 24.8571 95.0606 23.2914C94.9864 22.771 95.0351 22.5585 95.2578 22.4499C95.3571 22.4015 95.4552 22.3457 95.5214 22.2572C95.6244 22.1197 95.6455 21.9379 95.5813 21.7785C95.1147 20.6202 94.8814 19.5505 94.8814 18.7144C94.8814 17.543 95.2511 16.6891 95.8284 16.1525C96.1132 15.8878 96.0715 15.0621 95.9531 14.6918C95.82 14.2757 96.2596 14.3828 96.6919 14.4458C97.6982 14.5924 99.3548 14.7967 100.078 14.6759C100.973 14.4966 102.226 14.5959 103.201 15.2121C104.186 15.8347 105.142 16.6677 105.842 17.5998C106.118 17.9678 106.265 18.3758 106.35 18.8042C106.528 20.2285 105.736 21.7412 105.548 22.3786C105.545 22.3891 105.544 22.3995 105.544 22.4105C105.544 22.4554 105.57 22.4949 105.606 22.5219C105.743 22.6248 105.802 22.8308 105.723 23.3812C105.644 24.0584 105.599 24.6118 105.512 25.0022C105.374 25.6207 104.61 26.0053 104.296 26.5557L104.168 26.78C104.13 26.8463 104.118 26.9502 104.105 27.0254C104.085 27.1402 104.021 27.2158 104.021 27.3322C104.021 27.6568 104.021 28.3218 104.021 30.2915C104.021 30.5608 104.11 30.9198 104.289 31.0992C104.409 31.2189 104.532 31.3502 104.659 31.4616C104.709 31.5053 104.759 31.544 104.809 31.574C104.928 31.6454 105.073 31.6643 105.201 31.716C106.89 32.395 108.089 32.9073 109.038 33.2531C109.472 33.4268 109.842 33.5794 110.15 33.7212Z" fill="url(#paint0_linear_3840_892)"/>
<path d="M110.92 34.1504C110.741 34.4197 110.472 34.5992 110.203 34.7787C107.515 37.2915 103.931 38.8172 99.9886 38.8172C96.8526 38.8172 93.8958 37.83 91.4766 36.1248C90.7598 35.6761 90.1326 35.0479 89.5054 34.5094C89.8638 34.0607 90.4014 33.7914 91.5662 33.3427L92.0142 33.1632C92.9102 32.8043 94.1646 32.3555 95.7774 31.6376C96.0462 31.5478 96.2254 31.3683 96.4046 31.1888C97.3006 32.4453 98.7342 33.253 100.437 33.253C102.049 33.253 103.483 32.4453 104.379 31.2786C104.558 31.4581 104.737 31.6376 104.917 31.6376C106.709 32.3555 107.963 32.894 108.949 33.253C109.934 33.612 110.561 33.8812 110.92 34.1504Z" fill="#B7B4AF"/>
<path d="M105.454 22.3041C105.543 21.9451 105.364 21.4066 105.185 21.1374C105.185 21.0477 105.095 21.0477 105.095 20.9579C104.468 19.7015 103.124 19.2528 101.87 19.163C98.5546 18.9835 98.2858 19.6117 97.3002 18.7143C97.6586 19.163 97.6586 19.9707 97.121 20.8682C96.7626 21.4964 96.1354 21.8554 95.5082 22.0349C93.985 18.6245 94.7914 16.4707 96.225 15.7527C95.6874 14.6758 95.6874 14.3168 95.6874 14.3168C95.6874 14.3168 98.8234 14.8552 99.8986 14.6758C101.243 14.4065 103.393 14.7655 104.199 16.5604C105.543 17.0989 105.991 17.9066 106.171 18.804C106.439 20.1502 105.633 21.6759 105.454 22.3041Z" fill="#676767"/>
<path d="M96.8521 30.2015V27.1501C96.7625 27.0604 96.7625 27.0604 96.6729 26.9706V26.7911C96.8521 27.0604 97.0313 27.3296 97.3001 27.5091L99.7193 29.2143C100.257 29.663 101.063 29.663 101.601 29.2143L103.841 27.2399C103.93 27.1501 104.02 27.1501 104.11 27.0604C104.11 27.3296 104.11 27.7783 104.11 30.2015C104.11 30.3809 104.11 30.4707 104.199 30.6502H96.8521C96.7625 30.4707 96.8521 30.3809 96.8521 30.2015Z" fill="url(#paint1_linear_3840_892)"/>
<g filter="url(#filter1_d_3840_892)">
<path d="M119.117 49.7733C105.333 49.7733 94.1001 61.0258 94.1001 74.8301C94.1001 83.3765 98.2937 90.8829 104.885 95.387C108.932 98.2373 113.875 99.8868 119.117 99.8868C125.709 99.8868 131.703 97.3345 136.195 93.1352L136.197 93.1331C141.128 88.4938 144.279 82.0424 144.279 74.6856C144.279 60.8669 132.887 49.7733 119.117 49.7733Z" fill="#EDE5DA"/>
</g>
<g filter="url(#filter2_d_3840_892)">
<path d="M135.475 90.6092C136.2 90.9434 136.327 91.7977 135.664 92.2426C135.596 92.2882 135.531 92.3398 135.471 92.3954C131.154 96.3905 125.421 98.8125 119.119 98.8125C114.071 98.8125 109.311 97.2234 105.417 94.4786C105.346 94.4341 105.275 94.3885 105.205 94.3419C103.414 93.1504 103.554 90.7735 105.561 90.0002L106.282 89.7113C107.724 89.1334 109.744 88.4111 112.34 87.2554C112.773 87.1109 113.061 86.822 113.349 86.5331C113.66 86.2224 113.762 85.7559 113.869 85.3303C113.904 85.191 113.926 85.0565 113.926 84.944V80.3806C113.926 80.1575 113.851 79.9563 113.693 79.7984C113.665 79.7702 113.626 79.7273 113.602 79.6951C113.223 79.1722 112.962 78.5341 112.922 77.781C112.916 77.6557 112.846 77.5408 112.734 77.4846C112.666 77.4505 112.588 77.4421 112.512 77.454C111.339 77.6395 111.466 76.3405 111.186 73.8202C111.067 72.9825 111.145 72.6405 111.503 72.4656C111.663 72.3876 111.821 72.2978 111.928 72.1554C112.094 71.9341 112.127 71.6414 112.024 71.3849C111.273 69.5204 110.898 67.7984 110.898 66.4525C110.898 64.5669 111.493 63.1923 112.422 62.3286C112.88 61.9026 112.813 60.5734 112.623 59.9773C112.408 59.3075 113.116 59.4799 113.812 59.5813C115.432 59.8172 118.098 60.146 119.263 59.9516C120.987 59.6063 123.536 59.9031 125.157 61.5003C125.987 62.3184 126.852 63.148 127.766 63.8708C128.742 64.6421 129.157 65.584 129.359 66.597C129.645 68.8898 128.37 71.3247 128.068 72.3508C128.063 72.3678 128.061 72.3845 128.061 72.4022C128.061 72.4744 128.104 72.538 128.161 72.5815C128.381 72.7472 128.476 73.0787 128.35 73.9647C128.221 75.0548 128.15 75.9457 128.01 76.5742C127.787 77.5696 126.558 78.1888 126.052 79.0748L125.846 79.4359C125.785 79.5426 125.765 79.7098 125.745 79.8309C125.713 80.0156 125.609 80.1374 125.609 80.3248C125.609 80.8472 125.609 81.9178 125.609 85.0884C125.609 85.5218 125.753 86.0997 126.042 86.3886C126.234 86.5812 126.432 86.7925 126.637 86.9719C126.717 87.0422 126.798 87.1046 126.878 87.1528C127.069 87.2678 127.303 87.2981 127.51 87.3815C130.228 88.4743 132.158 89.2991 133.686 89.8557C134.384 90.1353 134.98 90.381 135.475 90.6092Z" fill="url(#paint2_linear_3840_892)"/>
</g>
<path d="M136.713 91.3003C136.425 91.7337 135.992 92.0226 135.56 92.3115C131.233 96.3565 125.463 98.8124 119.117 98.8124C114.069 98.8124 109.31 97.2233 105.415 94.4785C104.261 93.7562 103.252 92.7449 102.242 91.8781C102.819 91.1558 103.685 90.7224 105.56 90.0001L106.281 89.7112C107.723 89.1333 109.742 88.411 112.338 87.2553C112.771 87.1108 113.06 86.8219 113.348 86.533C114.79 88.5555 117.098 89.8556 119.838 89.8556C122.435 89.8556 124.742 88.5555 126.185 86.6774C126.473 86.9663 126.762 87.2553 127.05 87.2553C129.935 88.411 131.954 89.2778 133.54 89.8556C135.127 90.4335 136.137 90.8669 136.713 91.3003Z" fill="#B7B4AF"/>
<path d="M128.212 72.2311C128.359 71.6532 128.066 70.7865 127.772 70.3531C127.772 70.2086 127.626 70.2086 127.626 70.0641C126.599 68.0416 124.398 67.3193 122.344 67.1749C116.916 66.8859 116.476 67.8972 114.863 66.4525C115.449 67.1749 115.449 68.475 114.569 69.9197C113.982 70.9309 112.956 71.5088 111.929 71.7977C109.435 66.3081 110.755 62.8409 113.102 61.6852C112.222 59.9516 112.222 59.3738 112.222 59.3738C112.222 59.3738 117.357 60.2406 119.117 59.9516C121.318 59.5182 124.838 60.0961 126.159 62.9854C128.359 63.8522 129.093 65.1524 129.386 66.597C129.826 68.764 128.506 71.2199 128.212 72.2311Z" fill="#676767"/>
<path d="M114.069 84.9437V80.032C113.925 79.8875 113.925 79.8875 113.781 79.743V79.4541C114.069 79.8875 114.358 80.3209 114.79 80.6098L118.685 83.3546C119.55 84.077 120.848 84.077 121.713 83.3546L125.319 80.1764C125.464 80.032 125.608 80.032 125.752 79.8875C125.752 80.3209 125.752 81.0432 125.752 84.9437C125.752 85.2327 125.752 85.3771 125.896 85.6661H114.069C113.925 85.3771 114.069 85.2327 114.069 84.9437Z" fill="url(#paint3_linear_3840_892)"/>
<g filter="url(#filter3_d_3840_892)">
<path d="M156.285 19.6493C150.504 19.6493 145.795 24.3673 145.795 30.1558C145.795 33.736 147.553 36.886 150.317 38.7763C152.015 39.9713 154.088 40.6624 156.285 40.6624C159.05 40.6624 161.564 39.5913 163.447 37.8315L163.449 37.8294C165.509 35.891 166.833 33.1861 166.833 30.0985C166.833 24.2955 162.052 19.6493 156.285 19.6493Z" fill="#EDE5DA"/>
</g>
<path d="M162.777 36.4186C163.065 36.5512 163.115 36.8903 162.852 37.0669C162.825 37.085 162.8 37.1054 162.776 37.1275C161.062 38.7132 158.787 39.6744 156.286 39.6744C154.282 39.6744 152.393 39.0437 150.847 37.9543C150.819 37.9367 150.791 37.9186 150.763 37.9001C150.052 37.4271 150.108 36.4838 150.905 36.1769L151.191 36.0622C151.763 35.8328 152.565 35.5462 153.595 35.0875C153.767 35.0301 153.881 34.9154 153.996 34.8008C154.119 34.6775 154.159 34.4923 154.202 34.3234C154.216 34.2681 154.225 34.2147 154.225 34.1701V32.3589C154.225 32.2703 154.195 32.1905 154.132 32.1278C154.121 32.1166 154.105 32.0996 154.096 32.0868C153.946 31.8793 153.842 31.626 153.826 31.3271C153.824 31.2774 153.796 31.2318 153.751 31.2095C153.724 31.1959 153.693 31.1926 153.664 31.1973C153.198 31.2709 153.248 30.7554 153.137 29.7551C153.09 29.4226 153.121 29.2869 153.263 29.2175C153.326 29.1865 153.389 29.1509 153.431 29.0943C153.497 29.0065 153.511 28.8903 153.47 28.7885C153.172 28.0485 153.023 27.3651 153.023 26.8309C153.023 26.0825 153.259 25.5369 153.628 25.1941C153.81 25.025 153.783 24.4975 153.707 24.2609C153.622 23.9951 153.903 24.0635 154.179 24.1037C154.822 24.1974 155.881 24.3279 156.343 24.2507C156.743 24.1705 157.256 24.1776 157.741 24.3244C158.857 24.6619 159.995 25.5839 160.307 26.7069C160.324 26.7666 160.338 26.8271 160.35 26.8882C160.463 27.7982 159.957 28.7646 159.838 29.1719C159.836 29.1786 159.835 29.1853 159.835 29.1923C159.835 29.221 159.852 29.2462 159.875 29.2634C159.962 29.3292 159.999 29.4608 159.949 29.8124C159.898 30.2451 159.87 30.5987 159.814 30.8481C159.726 31.2432 159.238 31.489 159.037 31.8406L158.956 31.9839C158.932 32.0263 158.924 32.0926 158.915 32.1407C158.903 32.214 158.862 32.2624 158.862 32.3367C158.862 32.5441 158.862 32.969 158.862 34.2274C158.862 34.3994 158.919 34.6288 159.033 34.7434C159.11 34.8199 159.188 34.9038 159.27 34.9749C159.301 35.0028 159.333 35.0276 159.365 35.0468C159.441 35.0924 159.534 35.1044 159.616 35.1375C160.695 35.5713 161.461 35.8986 162.067 36.1195C162.344 36.2305 162.581 36.328 162.777 36.4186Z" fill="url(#paint4_linear_3840_892)"/>
<path d="M163.269 36.693C163.154 36.865 162.983 36.9797 162.811 37.0944C161.094 38.6998 158.804 39.6746 156.285 39.6746C154.281 39.6746 152.392 39.0439 150.847 37.9545C150.389 37.6678 149.988 37.2664 149.587 36.9224C149.816 36.6357 150.16 36.4637 150.904 36.177L151.19 36.0623C151.763 35.833 152.564 35.5463 153.595 35.0876C153.766 35.0303 153.881 34.9156 153.995 34.8009C154.568 35.6036 155.484 36.1197 156.571 36.1197C157.602 36.1197 158.518 35.6036 159.09 34.8582C159.205 34.9729 159.319 35.0876 159.434 35.0876C160.578 35.5463 161.38 35.8903 162.01 36.1197C162.639 36.349 163.04 36.521 163.269 36.693Z" fill="#B7B4AF"/>
<path d="M159.777 29.1244C159.834 28.895 159.72 28.551 159.605 28.379C159.605 28.3217 159.548 28.3217 159.548 28.2643C159.147 27.4616 158.289 27.1749 157.487 27.1176C155.369 27.0029 155.197 27.4043 154.568 26.8309C154.797 27.1176 154.797 27.6336 154.453 28.207C154.224 28.6083 153.823 28.8377 153.423 28.9524C152.45 26.7736 152.965 25.3975 153.881 24.9388C153.537 24.2507 153.537 24.0214 153.537 24.0214C153.537 24.0214 155.541 24.3654 156.228 24.2507C157.086 24.0787 158.46 24.308 158.976 25.4548C159.834 25.7988 160.12 26.3149 160.235 26.8882C160.407 27.7483 159.891 28.723 159.777 29.1244Z" fill="#676767"/>
<path d="M154.281 34.1701V32.2207C154.224 32.1633 154.224 32.1633 154.167 32.106V31.9913C154.281 32.1633 154.395 32.3354 154.567 32.45L156.113 33.5394C156.456 33.8261 156.972 33.8261 157.315 33.5394L158.746 32.278C158.803 32.2207 158.861 32.2207 158.918 32.1633C158.918 32.3354 158.918 32.622 158.918 34.1701C158.918 34.2848 158.918 34.3422 158.975 34.4568H154.281C154.224 34.3422 154.281 34.2848 154.281 34.1701Z" fill="url(#paint5_linear_3840_892)"/>
<g filter="url(#filter4_d_3840_892)">
<path d="M76.9632 71.8387C76.9632 61.8227 68.851 53.6947 58.74 53.8032C48.8496 53.806 40.7378 61.8208 40.7378 71.8387C40.7378 77.9597 43.845 83.4083 48.5031 86.6369C48.9351 86.9607 49.2924 87.2013 49.763 87.4393C52.4271 88.99 55.531 89.8743 58.8505 89.8743C62.1758 89.8743 65.2847 88.9869 67.9519 87.4312C69.1899 86.7533 70.194 85.9675 71.1698 85.0987L71.179 85.0905L71.188 85.0821C74.737 81.7495 76.9632 77.0738 76.9632 71.8387Z" fill="#EDE5DA"/>
</g>
<path d="M54.7623 76.3691C55.0491 75.928 55.6102 75.9988 56.0278 76.3189C56.0776 76.357 56.1326 76.4012 56.1791 76.4433C56.3671 76.6135 56.5552 76.7178 56.7432 76.9062C56.8304 76.9935 56.9896 77.0808 57.1017 77.1681C57.144 77.201 57.2025 77.2157 57.2413 77.2526C57.2434 77.2547 57.2455 77.2568 57.2475 77.2591C57.2786 77.2954 57.2892 77.3475 57.323 77.3813C57.3567 77.4151 57.3757 77.4609 57.3757 77.5087V78.7631C57.3757 78.8612 57.3396 78.8761 57.2703 78.8067C57.2261 78.7624 57.1634 78.7182 57.0977 78.6739C56.9273 78.5592 56.7538 78.4436 56.589 78.3211C56.4979 78.2534 56.4068 78.1822 56.3157 78.1245C56.252 78.0841 56.1689 78.0726 56.1154 78.0195C56.0555 77.9598 55.9666 77.94 55.8935 77.8975C55.3111 77.5584 54.8138 77.2157 54.6741 76.8151C54.6242 76.6722 54.6677 76.5174 54.749 76.3898C54.7534 76.383 54.7578 76.3761 54.7623 76.3691ZM70.0203 83.8921C70.1141 83.7864 70.0068 83.7399 69.9457 83.6124C69.3222 82.3117 68.4799 81.0947 67.0736 80.3904C66.3357 80.0737 65.4924 79.7569 64.6491 79.7569C64.4383 79.7569 64.1221 79.7569 63.9112 79.7569C63.8058 79.7569 63.7004 79.7569 63.595 79.7569C63.4023 79.7394 63.2387 79.7189 63.0999 79.697C62.565 79.6125 62.33 79.1583 62.33 78.6167C62.33 77.598 62.7865 76.6412 63.5024 75.9163C63.83 75.5846 64.1454 75.2424 64.4383 74.9001C64.4529 74.8796 64.4675 74.859 64.482 74.8383C65.4679 73.4288 67.2445 71.8605 67.0736 70.1489C67.0736 69.7266 66.7574 69.3043 66.7574 68.8819C66.7574 68.6708 66.7574 68.4596 66.7574 68.2485C66.7574 68.1429 66.7574 67.9317 66.7574 67.8261C66.7574 67.798 66.7574 67.7623 66.7574 67.7231C66.7574 67.5105 66.7446 67.2978 66.7058 67.0887C66.5878 66.4528 66.3813 65.8057 66.0195 65.081C64.7545 62.7582 62.4355 61.28 59.6947 61.28C59.1677 61.28 58.6406 61.3856 58.1136 61.4912C57.1649 61.7024 56.2162 62.1247 55.4783 62.7582C55.3959 62.8407 55.2491 62.9232 55.1385 63.0562C55.0754 63.1322 55.021 63.2162 54.9512 63.2861C54.1079 64.1308 53.37 65.081 53.0538 66.2424C52.6449 67.3687 52.6325 68.4951 52.7283 69.6214C52.7288 69.6275 52.7376 69.8261 52.7376 69.8322V69.9378C52.7376 70.0381 52.7614 70.0908 52.775 70.1298C52.8049 70.2149 52.7348 70.3071 52.6727 70.3725C52.6264 70.4212 52.6113 70.4949 52.5782 70.5534C52.405 70.8597 52.3348 71.2615 52.5267 71.8383C52.9269 72.8404 53.5171 72.7962 54.2071 73.2406C54.2424 73.2633 54.2421 73.3337 54.2238 73.3715C54.2154 73.3889 54.2005 73.4256 54.182 73.431L53.4754 73.6331C50.1023 74.689 48.9427 77.5397 50.4185 79.3346C50.8057 79.8 51.3637 80.2085 52.1342 80.5181C52.2645 80.5704 52.3097 81.1357 52.2105 81.2351C50.7347 82.3965 49.786 84.1914 49.5752 85.8807C49.5752 86.0748 49.6863 86.2504 49.8494 86.3557C50.0367 86.4766 50.2105 86.6112 50.3949 86.7351C50.6104 86.8797 50.8704 86.9333 51.1299 86.9273L66.2415 86.5737C66.8967 86.5584 67.5476 86.3874 68.0733 85.9959C68.4695 85.7009 68.8009 85.4038 69.2 85.0427C69.5154 84.7573 69.7379 84.2102 70.0203 83.8921Z" fill="url(#paint6_linear_3840_892)"/>
<path d="M70.5519 84.4028C69.6032 85.2474 68.6545 85.9865 67.495 86.62C64.9651 88.0981 62.0135 88.9428 58.8512 88.9428C55.6888 88.9428 52.7373 88.0981 50.2074 86.62C49.7857 86.4088 49.4695 86.1977 49.0479 85.8809C49.0479 85.7753 49.0479 85.6698 49.0479 85.5642C49.2587 83.8749 50.2074 82.08 51.6832 80.9186C51.894 80.7074 52.2102 80.6018 52.5264 80.4962C51.2615 80.2851 50.4182 79.7571 49.8911 79.0181H53.8968C55.0563 80.6018 56.8483 81.552 58.9566 81.552C60.7486 81.552 62.3298 80.813 63.4893 79.6516C63.5947 79.6516 63.7001 79.6516 63.8055 79.6516C64.0164 79.6516 64.2272 79.6516 64.5434 79.6516C65.3867 79.6516 66.23 79.8627 66.9679 80.2851C68.4437 81.0241 69.4978 82.2911 70.2357 83.7693C70.4465 83.9804 70.4465 84.1916 70.5519 84.4028Z" fill="#B7B4AF"/>
<path d="M62.4349 77.012V79.2292L55.7939 79.4403L56.1102 77.9622C56.2156 77.9622 56.2156 78.0678 56.321 78.0678C56.5318 78.1734 56.7427 78.3845 56.9535 78.4901C57.0589 78.5957 57.1643 78.7013 57.3751 78.8069C57.3751 78.8069 57.4805 78.8069 57.4805 78.9124V77.4343L57.3751 77.3287C58.5347 77.9622 60.1158 78.3845 62.4349 77.012Z" fill="url(#paint7_linear_3840_892)"/>
<path d="M66.7565 67.8263C65.4915 68.2487 64.0158 68.4598 62.6454 68.3543C60.4317 68.1431 58.3235 67.2984 56.6369 65.8203C56.1099 67.404 54.7395 68.5654 53.1583 69.3045C52.9475 69.4101 52.7367 69.5157 52.5258 69.5157C52.5258 69.5157 52.5258 69.5157 52.5258 69.4101C52.4204 68.2487 52.4204 67.0873 52.8421 65.9259C53.1583 64.7645 53.8962 63.8142 54.7395 62.9696L54.8449 62.864C54.9503 62.7584 55.1611 62.6528 55.2666 62.4417C56.0044 61.8082 56.9532 61.3858 57.9019 61.1747C58.4289 61.0691 58.956 60.9635 59.483 60.9635C62.2238 60.9635 64.6482 62.4417 65.8078 64.7645C66.2294 65.6091 66.4402 66.4538 66.5456 67.0873C66.7565 67.5096 66.7565 67.7208 66.7565 67.8263Z" fill="#676767"/>
<path d="M58.3237 83.4525C57.6912 84.1916 56.6371 84.1916 55.6884 84.1916C56.6371 83.2414 56.11 80.1795 52.7369 80.4962C48.0987 79.6516 48.5204 74.7948 53.1585 73.3166L53.8964 73.1055L54.0018 73.211C54.318 74.1613 54.8451 75.006 55.3722 75.6394C53.4747 77.2232 56.11 77.6455 57.375 78.9125C58.4291 79.546 59.3778 82.1855 58.3237 83.4525Z" fill="#676767"/>
<g filter="url(#filter5_d_3840_892)">
<path d="M110.135 130.174C110.135 122.052 103.557 115.46 95.3577 115.547C87.3374 115.55 80.7593 122.05 80.7593 130.174C80.7593 135.137 83.2782 139.555 87.0538 142.173C87.402 142.434 87.6961 142.632 88.0825 142.828C90.2424 144.084 92.758 144.8 95.4473 144.8C98.1423 144.8 100.663 144.081 102.826 142.82C103.833 142.268 104.648 141.63 105.434 140.929L105.444 140.921L105.453 140.913C108.329 138.211 110.135 134.42 110.135 130.174Z" fill="#EDE5DA"/>
</g>
<path d="M92.1742 133.801C92.4038 133.448 92.8531 133.505 93.1875 133.761C93.2274 133.791 93.2714 133.827 93.3086 133.861C93.4591 133.997 93.6097 134.08 93.7603 134.231C93.8301 134.301 93.9575 134.371 94.0473 134.441C94.0812 134.467 94.128 134.479 94.1591 134.509C94.1608 134.51 94.1625 134.512 94.1641 134.514C94.1889 134.543 94.1975 134.585 94.2245 134.612C94.2515 134.639 94.2667 134.675 94.2667 134.714V135.718C94.2667 135.795 94.237 135.808 94.1823 135.753C94.1469 135.717 94.0967 135.682 94.0441 135.647C93.9077 135.555 93.7688 135.462 93.6368 135.364C93.5639 135.31 93.4909 135.253 93.418 135.207C93.367 135.174 93.3004 135.165 93.2576 135.123C93.2096 135.075 93.1385 135.059 93.08 135.025C92.6136 134.753 92.2154 134.479 92.1036 134.158C92.0637 134.044 92.0984 133.92 92.1636 133.818C92.167 133.812 92.1706 133.807 92.1742 133.801ZM104.391 139.825C104.466 139.74 104.38 139.703 104.331 139.601C103.832 138.559 103.158 137.585 102.032 137.021C101.441 136.767 100.766 136.514 100.09 136.514C99.9216 136.514 99.6684 136.514 99.4996 136.514C99.4152 136.514 99.3308 136.514 99.2464 136.514C99.0921 136.5 98.9611 136.483 98.85 136.466C98.4217 136.398 98.2336 136.034 98.2336 135.601C98.2336 134.785 98.5991 134.019 99.1722 133.439C99.4345 133.173 99.6871 132.899 99.9216 132.625C99.9333 132.609 99.945 132.592 99.9566 132.575C100.746 131.447 102.168 130.191 102.032 128.821C102.032 128.483 101.778 128.144 101.778 127.806C101.778 127.637 101.778 127.468 101.778 127.299C101.778 127.215 101.778 127.045 101.778 126.961C101.778 126.955 101.778 126.949 101.778 126.942C101.778 126.73 101.766 126.517 101.725 126.308C101.629 125.819 101.465 125.32 101.188 124.763C100.175 122.903 98.318 121.72 96.1235 121.72C95.7015 121.72 95.2795 121.804 94.8575 121.889C94.0979 122.058 93.3383 122.396 92.7475 122.903C92.6815 122.969 92.564 123.035 92.4755 123.142C92.4249 123.203 92.3814 123.27 92.3255 123.326C91.6503 124.002 91.0594 124.763 90.8062 125.693C90.4788 126.595 90.4689 127.497 90.5456 128.398C90.546 128.403 90.553 128.562 90.553 128.567V128.652C90.553 128.732 90.5721 128.774 90.5831 128.805C90.607 128.874 90.5509 128.947 90.5011 129C90.464 129.039 90.4519 129.098 90.4255 129.145C90.2868 129.39 90.2305 129.712 90.3842 130.173C90.7047 130.976 91.1772 130.94 91.7296 131.296C91.7579 131.314 91.7577 131.371 91.743 131.401C91.7363 131.415 91.7244 131.444 91.7096 131.449L91.1438 131.611C88.443 132.456 87.5146 134.738 88.6962 136.176C89.0063 136.548 89.453 136.875 90.0699 137.123C90.1743 137.165 90.2105 137.618 90.131 137.697C88.9494 138.627 88.1898 140.064 88.021 141.417C88.021 141.572 88.11 141.713 88.2406 141.797C88.3906 141.894 88.5296 142.002 88.6773 142.101C88.8499 142.217 89.0581 142.26 89.2658 142.255L101.365 141.972C101.89 141.959 102.411 141.823 102.832 141.509C103.149 141.273 103.415 141.035 103.734 140.746C103.987 140.517 104.165 140.079 104.391 139.825Z" fill="url(#paint8_linear_3840_892)"/>
<path d="M104.817 140.234C104.057 140.91 103.297 141.502 102.369 142.009C100.343 143.192 97.98 143.869 95.448 143.869C92.9159 143.869 90.5527 143.192 88.527 142.009C88.1894 141.84 87.9362 141.671 87.5986 141.417C87.5986 141.333 87.5986 141.248 87.5986 141.164C87.7674 139.811 88.527 138.374 89.7087 137.444C89.8775 137.275 90.1307 137.19 90.3839 137.106C89.3711 136.937 88.6959 136.514 88.2738 135.922H91.4811C92.4095 137.19 93.8443 137.951 95.5324 137.951C96.9672 137.951 98.2332 137.359 99.1616 136.429C99.246 136.429 99.3304 136.429 99.4148 136.429C99.5836 136.429 99.7524 136.429 100.006 136.429C100.681 136.429 101.356 136.599 101.947 136.937C103.128 137.528 103.972 138.543 104.563 139.726C104.732 139.896 104.732 140.065 104.817 140.234Z" fill="#B7B4AF"/>
<path d="M98.3178 134.316V136.091L93.0005 136.26L93.2537 135.077C93.3381 135.077 93.3381 135.161 93.4225 135.161C93.5913 135.246 93.7601 135.415 93.9289 135.5C94.0133 135.584 94.0977 135.669 94.2665 135.753C94.2665 135.753 94.3509 135.753 94.3509 135.838V134.654L94.2665 134.57C95.1949 135.077 96.4609 135.415 98.3178 134.316Z" fill="url(#paint9_linear_3840_892)"/>
<path d="M101.778 126.961C100.765 127.299 99.5836 127.468 98.4863 127.384C96.7139 127.215 95.0259 126.538 93.6755 125.355C93.2535 126.623 92.1562 127.553 90.8902 128.145C90.7214 128.229 90.5526 128.314 90.3838 128.314C90.3838 128.314 90.3838 128.314 90.3838 128.229C90.2994 127.299 90.2994 126.369 90.637 125.439C90.8902 124.51 91.481 123.749 92.1562 123.072L92.2406 122.988C92.325 122.903 92.4938 122.819 92.5782 122.65C93.1691 122.142 93.9287 121.804 94.6883 121.635C95.1103 121.551 95.5323 121.466 95.9543 121.466C98.1487 121.466 100.09 122.65 101.018 124.51C101.356 125.186 101.525 125.862 101.609 126.369C101.778 126.708 101.778 126.877 101.778 126.961Z" fill="#676767"/>
<path d="M95.0261 139.473C94.5197 140.065 93.6757 140.065 92.9161 140.065C93.6757 139.304 93.2537 136.852 90.5529 137.106C86.8392 136.429 87.1768 132.541 90.8905 131.357L91.4813 131.188L91.5657 131.273C91.8189 132.033 92.2409 132.71 92.6629 133.217C91.1437 134.485 93.2537 134.823 94.2665 135.838C95.1105 136.345 95.8701 138.458 95.0261 139.473Z" fill="#676767"/>
<g filter="url(#filter6_d_3840_892)">
<path d="M192.038 104.797C192.038 94.0859 183.363 85.3938 172.55 85.5101C161.973 85.5128 153.298 94.0839 153.298 104.797C153.298 111.343 156.621 117.17 161.604 120.623C162.066 120.97 162.447 121.226 162.948 121.479C165.798 123.138 169.117 124.084 172.668 124.084C176.225 124.084 179.55 123.135 182.402 121.471C183.725 120.747 184.798 119.907 185.844 118.976L185.853 118.968L185.862 118.96C189.658 115.395 192.038 110.395 192.038 104.797Z" fill="#EDE5DA"/>
</g>
<path d="M168.28 109.659C168.588 109.185 169.19 109.261 169.638 109.605C169.692 109.646 169.751 109.693 169.8 109.738C170.002 109.921 170.204 110.033 170.406 110.235C170.499 110.329 170.67 110.423 170.791 110.516C170.836 110.552 170.899 110.567 170.94 110.607C170.943 110.609 170.945 110.612 170.947 110.614C170.98 110.653 170.992 110.709 171.028 110.745C171.064 110.781 171.085 110.831 171.085 110.882V112.228C171.085 112.332 171.045 112.348 170.972 112.275C170.924 112.227 170.857 112.18 170.786 112.132C170.603 112.009 170.417 111.885 170.24 111.754C170.143 111.681 170.045 111.605 169.947 111.543C169.879 111.499 169.79 111.487 169.732 111.43C169.668 111.366 169.572 111.345 169.494 111.299C168.869 110.935 168.335 110.567 168.185 110.137C168.132 109.984 168.178 109.818 168.266 109.681C168.27 109.674 168.275 109.666 168.28 109.659ZM184.654 117.732C184.755 117.619 184.64 117.569 184.574 117.432C183.905 116.036 183.001 114.73 181.492 113.974C180.7 113.634 179.795 113.295 178.89 113.295C178.664 113.295 178.325 113.295 178.098 113.295C177.985 113.295 177.872 113.295 177.759 113.295C177.552 113.276 177.377 113.254 177.228 113.23C176.654 113.14 176.402 112.652 176.402 112.071C176.402 110.978 176.891 109.951 177.66 109.173C178.011 108.817 178.35 108.45 178.664 108.082C178.7 108.032 178.736 107.981 178.771 107.929C179.774 106.457 181.603 104.868 181.5 103.089C181.498 103.054 181.496 103.019 181.492 102.984C181.492 102.53 181.153 102.077 181.153 101.624C181.153 101.397 181.153 101.171 181.153 100.944C181.153 100.831 181.153 100.604 181.153 100.491C181.153 100.455 181.153 100.408 181.153 100.357C181.153 100.144 181.14 99.9316 181.102 99.7224C180.976 99.0325 180.754 98.3313 180.361 97.5448C179.003 95.052 176.515 93.4657 173.573 93.4657C173.008 93.4657 172.442 93.579 171.877 93.6923C170.858 93.9189 169.84 94.3722 169.048 95.052C168.96 95.1406 168.802 95.2291 168.684 95.3718C168.616 95.4534 168.558 95.5435 168.483 95.6185C167.578 96.525 166.786 97.5448 166.447 98.7912C166.008 99.9999 165.994 101.209 166.097 102.417C166.098 102.424 166.107 102.637 166.107 102.644V102.757C166.107 102.865 166.133 102.921 166.147 102.963C166.179 103.054 166.104 103.153 166.037 103.223C165.988 103.276 165.972 103.355 165.936 103.418C165.75 103.746 165.675 104.177 165.881 104.796C166.31 105.872 166.944 105.825 167.684 106.301C167.722 106.326 167.722 106.401 167.702 106.442C167.693 106.461 167.677 106.5 167.657 106.506L166.899 106.723C163.279 107.856 162.035 110.915 163.618 112.841C164.034 113.341 164.633 113.779 165.46 114.111C165.599 114.168 165.648 114.774 165.542 114.881C163.958 116.127 162.94 118.053 162.713 119.866C162.713 120.075 162.833 120.263 163.008 120.376C163.209 120.506 163.395 120.65 163.593 120.783C163.824 120.939 164.103 120.996 164.382 120.99L180.599 120.61C181.302 120.594 182.001 120.41 182.565 119.99C182.99 119.673 183.346 119.355 183.774 118.967C184.113 118.661 184.351 118.074 184.654 117.732Z" fill="url(#paint10_linear_3840_892)"/>
<path d="M185.225 118.281C184.207 119.187 183.189 119.98 181.945 120.66C179.23 122.246 176.062 123.153 172.669 123.153C169.275 123.153 166.107 122.246 163.392 120.66C162.94 120.433 162.6 120.207 162.148 119.867C162.148 119.754 162.148 119.64 162.148 119.527C162.374 117.714 163.392 115.788 164.976 114.541C165.202 114.315 165.542 114.201 165.881 114.088C164.524 113.862 163.619 113.295 163.053 112.502H167.352C168.596 114.201 170.519 115.221 172.782 115.221C174.705 115.221 176.402 114.428 177.646 113.182C177.759 113.182 177.872 113.182 177.985 113.182C178.212 113.182 178.438 113.182 178.777 113.182C179.682 113.182 180.587 113.408 181.379 113.862C182.963 114.655 184.094 116.014 184.886 117.601C185.112 117.827 185.112 118.054 185.225 118.281Z" fill="#B7B4AF"/>
<path d="M176.372 110.434V112.814L169.246 113.04L169.585 111.454C169.698 111.454 169.698 111.567 169.811 111.567C170.037 111.68 170.264 111.907 170.49 112.02C170.603 112.134 170.716 112.247 170.942 112.36C170.942 112.36 171.056 112.36 171.056 112.474V110.887L170.942 110.774C172.187 111.454 173.884 111.907 176.372 110.434Z" fill="url(#paint11_linear_3840_892)"/>
<path d="M181.153 100.491C179.795 100.945 178.211 101.171 176.741 101.058C174.365 100.831 172.103 99.9248 170.293 98.3385C169.727 100.038 168.256 101.285 166.559 102.078C166.333 102.191 166.107 102.304 165.881 102.304C165.881 102.304 165.881 102.304 165.881 102.191C165.768 100.945 165.768 99.6982 166.22 98.4518C166.559 97.2054 167.351 96.1857 168.256 95.2792L168.369 95.1659C168.483 95.0526 168.709 94.9393 168.822 94.7127C169.614 94.0328 170.632 93.5796 171.65 93.353C172.216 93.2397 172.781 93.1263 173.347 93.1263C176.288 93.1263 178.89 94.7126 180.134 97.2054C180.587 98.1119 180.813 99.0183 180.926 99.6982C181.153 100.151 181.153 100.378 181.153 100.491Z" fill="#676767"/>
<path d="M172.102 117.261C171.424 118.054 170.292 118.054 169.274 118.054C170.292 117.034 169.727 113.748 166.107 114.088C161.129 113.182 161.582 107.97 166.559 106.383L167.351 106.157L167.464 106.27C167.804 107.29 168.369 108.196 168.935 108.876C166.899 110.576 169.727 111.029 171.084 112.389C172.216 113.069 173.234 115.901 172.102 117.261Z" fill="#B7B4AF"/>
<defs>
<filter id="filter0_d_3840_892" x="80.4947" y="8" width="39.0774" height="39.0373" filterUnits="userSpaceOnUse" color-interpolation-filters="sRGB">
<feFlood flood-opacity="0" result="BackgroundImageFix"/>
<feColorMatrix in="SourceAlpha" type="matrix" values="0 0 0 0 0 0 0 0 0 0 0 0 0 0 0 0 0 0 127 0" result="hardAlpha"/>
<feOffset dy="3.6"/>
<feGaussianBlur stdDeviation="1.8"/>
<feComposite in2="hardAlpha" operator="out"/>
<feColorMatrix type="matrix" values="0 0 0 0 0.576471 0 0 0 0 0.501961 0 0 0 0 0.396078 0 0 0 0.25 0"/>
<feBlend mode="normal" in2="BackgroundImageFix" result="effect1_dropShadow_3840_892"/>
<feBlend mode="normal" in="SourceGraphic" in2="effect1_dropShadow_3840_892" result="shape"/>
</filter>
<filter id="filter1_d_3840_892" x="90.5001" y="49.7733" width="57.3787" height="57.3135" filterUnits="userSpaceOnUse" color-interpolation-filters="sRGB">
<feFlood flood-opacity="0" result="BackgroundImageFix"/>
<feColorMatrix in="SourceAlpha" type="matrix" values="0 0 0 0 0 0 0 0 0 0 0 0 0 0 0 0 0 0 127 0" result="hardAlpha"/>
<feOffset dy="3.6"/>
<feGaussianBlur stdDeviation="1.8"/>
<feComposite in2="hardAlpha" operator="out"/>
<feColorMatrix type="matrix" values="0 0 0 0 0.576471 0 0 0 0 0.501961 0 0 0 0 0.396078 0 0 0 0.25 0"/>
<feBlend mode="normal" in2="BackgroundImageFix" result="effect1_dropShadow_3840_892"/>
<feBlend mode="normal" in="SourceGraphic" in2="effect1_dropShadow_3840_892" result="shape"/>
</filter>
<filter id="filter2_d_3840_892" x="84.1526" y="49.5836" width="71.744" height="78.9289" filterUnits="userSpaceOnUse" color-interpolation-filters="sRGB">
<feFlood flood-opacity="0" result="BackgroundImageFix"/>
<feColorMatrix in="SourceAlpha" type="matrix" values="0 0 0 0 0 0 0 0 0 0 0 0 0 0 0 0 0 0 127 0" result="hardAlpha"/>
<feOffset dy="9.9"/>
<feGaussianBlur stdDeviation="9.9"/>
<feColorMatrix type="matrix" values="0 0 0 0 0.576471 0 0 0 0 0.501961 0 0 0 0 0.396078 0 0 0 0.37 0"/>
<feBlend mode="normal" in2="BackgroundImageFix" result="effect1_dropShadow_3840_892"/>
<feBlend mode="normal" in="SourceGraphic" in2="effect1_dropShadow_3840_892" result="shape"/>
</filter>
<filter id="filter3_d_3840_892" x="142.195" y="19.6493" width="28.2381" height="28.2131" filterUnits="userSpaceOnUse" color-interpolation-filters="sRGB">
<feFlood flood-opacity="0" result="BackgroundImageFix"/>
<feColorMatrix in="SourceAlpha" type="matrix" values="0 0 0 0 0 0 0 0 0 0 0 0 0 0 0 0 0 0 127 0" result="hardAlpha"/>
<feOffset dy="3.6"/>
<feGaussianBlur stdDeviation="1.8"/>
<feComposite in2="hardAlpha" operator="out"/>
<feColorMatrix type="matrix" values="0 0 0 0 0.576471 0 0 0 0 0.501961 0 0 0 0 0.396078 0 0 0 0.25 0"/>
<feBlend mode="normal" in2="BackgroundImageFix" result="effect1_dropShadow_3840_892"/>
<feBlend mode="normal" in="SourceGraphic" in2="effect1_dropShadow_3840_892" result="shape"/>
</filter>
<filter id="filter4_d_3840_892" x="37.1378" y="53.8021" width="43.4256" height="43.2721" filterUnits="userSpaceOnUse" color-interpolation-filters="sRGB">
<feFlood flood-opacity="0" result="BackgroundImageFix"/>
<feColorMatrix in="SourceAlpha" type="matrix" values="0 0 0 0 0 0 0 0 0 0 0 0 0 0 0 0 0 0 127 0" result="hardAlpha"/>
<feOffset dy="3.6"/>
<feGaussianBlur stdDeviation="1.8"/>
<feComposite in2="hardAlpha" operator="out"/>
<feColorMatrix type="matrix" values="0 0 0 0 0.576471 0 0 0 0 0.501961 0 0 0 0 0.396078 0 0 0 0.25 0"/>
<feBlend mode="normal" in2="BackgroundImageFix" result="effect1_dropShadow_3840_892"/>
<feBlend mode="normal" in="SourceGraphic" in2="effect1_dropShadow_3840_892" result="shape"/>
</filter>
<filter id="filter5_d_3840_892" x="77.1593" y="115.547" width="36.576" height="36.4535" filterUnits="userSpaceOnUse" color-interpolation-filters="sRGB">
<feFlood flood-opacity="0" result="BackgroundImageFix"/>
<feColorMatrix in="SourceAlpha" type="matrix" values="0 0 0 0 0 0 0 0 0 0 0 0 0 0 0 0 0 0 127 0" result="hardAlpha"/>
<feOffset dy="3.6"/>
<feGaussianBlur stdDeviation="1.8"/>
<feComposite in2="hardAlpha" operator="out"/>
<feColorMatrix type="matrix" values="0 0 0 0 0.576471 0 0 0 0 0.501961 0 0 0 0 0.396078 0 0 0 0.25 0"/>
<feBlend mode="normal" in2="BackgroundImageFix" result="effect1_dropShadow_3840_892"/>
<feBlend mode="normal" in="SourceGraphic" in2="effect1_dropShadow_3840_892" result="shape"/>
</filter>
<filter id="filter6_d_3840_892" x="149.698" y="85.5089" width="45.9397" height="45.7753" filterUnits="userSpaceOnUse" color-interpolation-filters="sRGB">
<feFlood flood-opacity="0" result="BackgroundImageFix"/>
<feColorMatrix in="SourceAlpha" type="matrix" values="0 0 0 0 0 0 0 0 0 0 0 0 0 0 0 0 0 0 127 0" result="hardAlpha"/>
<feOffset dy="3.6"/>
<feGaussianBlur stdDeviation="1.8"/>
<feComposite in2="hardAlpha" operator="out"/>
<feColorMatrix type="matrix" values="0 0 0 0 0.576471 0 0 0 0 0.501961 0 0 0 0 0.396078 0 0 0 0.25 0"/>
<feBlend mode="normal" in2="BackgroundImageFix" result="effect1_dropShadow_3840_892"/>
<feBlend mode="normal" in="SourceGraphic" in2="effect1_dropShadow_3840_892" result="shape"/>
</filter>
<linearGradient id="paint0_linear_3840_892" x1="100.206" y1="13.7502" x2="100.206" y2="39.0815" gradientUnits="userSpaceOnUse">
<stop stop-color="#FDFEFF"/>
<stop offset="0.9964" stop-color="#F5F2EC"/>
</linearGradient>
<linearGradient id="paint1_linear_3840_892" x1="100.422" y1="30.53" x2="100.422" y2="28.5086" gradientUnits="userSpaceOnUse">
<stop stop-color="white" stop-opacity="0"/>
<stop offset="0.9913" stop-color="#DAD6CF"/>
</linearGradient>
<linearGradient id="paint2_linear_3840_892" x1="119.468" y1="58.4615" x2="119.468" y2="99.2377" gradientUnits="userSpaceOnUse">
<stop stop-color="#FDFEFF"/>
<stop offset="0.9964" stop-color="#F5F2EC"/>
</linearGradient>
<linearGradient id="paint3_linear_3840_892" x1="119.815" y1="85.4726" x2="119.815" y2="82.2188" gradientUnits="userSpaceOnUse">
<stop stop-color="white" stop-opacity="0"/>
<stop offset="0.9913" stop-color="#DAD6CF"/>
</linearGradient>
<linearGradient id="paint4_linear_3840_892" x1="156.424" y1="23.6593" x2="156.424" y2="39.8432" gradientUnits="userSpaceOnUse">
<stop stop-color="#FDFEFF"/>
<stop offset="0.9964" stop-color="#F5F2EC"/>
</linearGradient>
<linearGradient id="paint5_linear_3840_892" x1="156.561" y1="34.3801" x2="156.561" y2="33.0886" gradientUnits="userSpaceOnUse">
<stop stop-color="white" stop-opacity="0"/>
<stop offset="0.9913" stop-color="#DAD6CF"/>
</linearGradient>
<linearGradient id="paint6_linear_3840_892" x1="59.8061" y1="60.6866" x2="59.8061" y2="87.2131" gradientUnits="userSpaceOnUse">
<stop stop-color="#FDFEFF"/>
<stop offset="0.9964" stop-color="#F5F2EC"/>
</linearGradient>
<linearGradient id="paint7_linear_3840_892" x1="59.1016" y1="79.3647" x2="59.1016" y2="78.0927" gradientUnits="userSpaceOnUse">
<stop stop-color="white" stop-opacity="0"/>
<stop offset="0.9913" stop-color="#DAD6CF"/>
</linearGradient>
<linearGradient id="paint8_linear_3840_892" x1="96.2127" y1="121.244" x2="96.2127" y2="142.484" gradientUnits="userSpaceOnUse">
<stop stop-color="#FDFEFF"/>
<stop offset="0.9964" stop-color="#F5F2EC"/>
</linearGradient>
<linearGradient id="paint9_linear_3840_892" x1="95.6489" y1="136.2" x2="95.6489" y2="135.181" gradientUnits="userSpaceOnUse">
<stop stop-color="white" stop-opacity="0"/>
<stop offset="0.9913" stop-color="#DAD6CF"/>
</linearGradient>
<linearGradient id="paint10_linear_3840_892" x1="173.693" y1="92.8288" x2="173.693" y2="121.296" gradientUnits="userSpaceOnUse">
<stop stop-color="#FDFEFF"/>
<stop offset="0.9964" stop-color="#F5F2EC"/>
</linearGradient>
<linearGradient id="paint11_linear_3840_892" x1="172.795" y1="112.959" x2="172.795" y2="111.594" gradientUnits="userSpaceOnUse">
<stop stop-color="white" stop-opacity="0"/>
<stop offset="0.9913" stop-color="#DAD6CF"/>
</linearGradient>
</defs>
</svg>
