<svg width="20" height="20" viewBox="0 0 20 20" fill="none" xmlns="http://www.w3.org/2000/svg">
<path d="M14.9497 4.05115C17.6834 6.78601 17.6834 11.2201 14.9497 13.955L13.8223 15.0691L11.3861 17.4391C10.6562 18.1455 9.52168 18.1847 8.74691 17.5567L8.61408 17.4389L6.57128 15.4538L5.05025 13.955C2.31658 11.2201 2.31658 6.78601 5.05025 4.05115C7.78392 1.31628 12.2161 1.31628 14.9497 4.05115ZM13 7V7.5C13 7.77614 13.2239 8 13.5 8C13.7761 8 14 7.77614 14 7.5V6.5C14 6.22386 13.7761 6 13.5 6H6.5C6.22386 6 6 6.22386 6 6.5V7.5C6 7.77614 6.22386 8 6.5 8C6.77614 8 7 7.77614 7 7.5V7H9.5V13H9C8.72386 13 8.5 13.2239 8.5 13.5C8.5 13.7761 8.72386 14 9 14H11C11.2761 14 11.5 13.7761 11.5 13.5C11.5 13.2239 11.2761 13 11 13H10.5V7H13Z" fill="#242424"/>
</svg>
