<svg width="230" height="161" viewBox="0 0 230 161" fill="none" xmlns="http://www.w3.org/2000/svg">
<g filter="url(#filter0_dd_7647_1541)">
<path d="M153.545 46.2935C153.545 45.1889 152.65 44.2935 151.545 44.2935H59.0813C57.9767 44.2935 57.0813 45.1889 57.0813 46.2935V107.766C57.0813 108.871 57.9767 109.766 59.0813 109.766L158.545 116.766C159.65 116.766 160.545 115.871 160.545 114.766L153.545 46.2935ZM162.545 114.766C162.545 116.975 160.754 118.766 158.545 118.766L59.0813 111.766C56.8722 111.766 55.0813 109.975 55.0813 107.766V46.2935C55.0813 44.0843 56.8722 42.2935 59.0813 42.2935H151.545C153.754 42.2935 155.545 44.0843 155.545 46.2935L162.545 114.766Z" fill="url(#paint0_linear_7647_1541)"/>
</g>
<g filter="url(#filter1_dd_7647_1541)">
<path d="M155.221 114C155.221 112.895 156.116 112 157.221 112H165.221C166.325 112 167.221 112.895 167.221 114V122C167.221 123.105 166.325 124 165.221 124H157.221C156.116 124 155.221 123.105 155.221 122V114Z" fill="url(#paint1_linear_7647_1541)"/>
</g>
<g filter="url(#filter2_dd_7647_1541)">
<path d="M165.221 123V124H157.221V123H165.221ZM166.221 122V114C166.221 113.482 165.827 113.056 165.323 113.005L165.221 113H157.221C156.703 113 156.277 113.393 156.226 113.897L156.221 114V122C156.221 122.552 156.668 123 157.221 123V124C156.185 124 155.334 123.213 155.231 122.204L155.221 122V114C155.221 112.895 156.116 112 157.221 112H165.221L165.425 112.011C166.433 112.113 167.221 112.964 167.221 114V122L167.21 122.204C167.115 123.146 166.366 123.894 165.425 123.989L165.221 124V123C165.773 123 166.221 122.552 166.221 122Z" fill="url(#paint2_linear_7647_1541)"/>
</g>
<g filter="url(#filter3_dd_7647_1541)">
<path d="M150.173 40C150.173 38.8954 151.068 38 152.173 38H157.701C158.806 38 159.701 38.8954 159.701 40V45.5285C159.701 46.6331 158.806 47.5285 157.701 47.5285H152.173C151.068 47.5285 150.173 46.6331 150.173 45.5285V40Z" fill="url(#paint3_linear_7647_1541)"/>
<path d="M159.201 40C159.201 39.2233 158.611 38.5845 157.854 38.5078L157.701 38.5H152.173C151.344 38.5 150.673 39.1716 150.673 40V45.5283L150.681 45.6816C150.757 46.4381 151.396 47.0283 152.173 47.0283H157.701C158.53 47.0283 159.201 46.3567 159.201 45.5283V40ZM160.201 45.5283C160.201 46.909 159.082 48.0283 157.701 48.0283H152.173C150.878 48.0283 149.814 47.0448 149.686 45.7842L149.673 45.5283V40C149.673 38.6193 150.792 37.5 152.173 37.5H157.701L157.957 37.5127C159.218 37.6407 160.201 38.7056 160.201 40V45.5283Z" fill="url(#paint4_linear_7647_1541)"/>
<path d="M51.2207 40C51.2207 38.8954 52.1161 38 53.2207 38H58.7492C59.8538 38 60.7492 38.8954 60.7492 40V45.5285C60.7492 46.6331 59.8538 47.5285 58.7492 47.5285H53.2207C52.1161 47.5285 51.2207 46.6331 51.2207 45.5285V40Z" fill="url(#paint5_linear_7647_1541)"/>
<path d="M60.249 40C60.249 39.2233 59.6588 38.5845 58.9023 38.5078L58.749 38.5H53.2207C52.3923 38.5 51.7207 39.1716 51.7207 40V45.5283L51.7285 45.6816C51.8052 46.4381 52.444 47.0283 53.2207 47.0283H58.749C59.5774 47.0283 60.249 46.3567 60.249 45.5283V40ZM61.249 45.5283C61.249 46.909 60.1297 48.0283 58.749 48.0283H53.2207C51.9263 48.0283 50.8614 47.0448 50.7334 45.7842L50.7207 45.5283V40C50.7207 38.6193 51.84 37.5 53.2207 37.5H58.749L59.0049 37.5127C60.2655 37.6407 61.249 38.7056 61.249 40V45.5283Z" fill="url(#paint6_linear_7647_1541)"/>
<path d="M51.2207 108.346C51.2207 107.241 52.1161 106.346 53.2207 106.346H58.7492C59.8538 106.346 60.7492 107.241 60.7492 108.346V113.874C60.7492 114.979 59.8538 115.874 58.7492 115.874H53.2207C52.1161 115.874 51.2207 114.979 51.2207 113.874V108.346Z" fill="url(#paint7_linear_7647_1541)"/>
<path d="M60.249 108.346C60.249 107.569 59.6588 106.93 58.9023 106.854L58.749 106.846H53.2207C52.3923 106.846 51.7207 107.517 51.7207 108.346V113.874L51.7285 114.027C51.8052 114.784 52.444 115.374 53.2207 115.374H58.749C59.5774 115.374 60.249 114.702 60.249 113.874V108.346ZM61.249 113.874C61.249 115.255 60.1297 116.374 58.749 116.374H53.2207C51.9263 116.374 50.8614 115.391 50.7334 114.13L50.7207 113.874V108.346C50.7207 106.965 51.84 105.846 53.2207 105.846H58.749L59.0049 105.858C60.2655 105.986 61.249 107.051 61.249 108.346V113.874Z" fill="url(#paint8_linear_7647_1541)"/>
</g>
<g filter="url(#filter4_dd_7647_1541)">
<path d="M184.216 130.14C184.197 130.369 184.084 130.577 183.945 130.759C183.833 130.906 183.704 131.028 183.457 131.15L178.966 132.982C178.283 133.271 177.599 133.657 177.111 134.139C176.75 134.496 176.442 134.853 176.267 135.289C176.141 135.602 176.069 135.935 175.939 136.246L174.28 140.213C174.116 140.78 173.54 141.075 173.07 140.984C172.892 140.949 172.717 140.8 172.569 140.697C172.333 140.534 172.273 140.27 172.165 140.005L165.524 123.623C165.42 123.365 165.254 123.122 165.225 122.845C165.221 122.805 165.22 122.765 165.222 122.727C165.235 122.463 165.431 122.232 165.666 122.112C165.903 121.99 166.221 121.952 166.539 122.078L182.78 128.473C183.53 128.769 184.282 129.337 184.216 130.14Z" fill="url(#paint9_linear_7647_1541)"/>
</g>
<g filter="url(#filter5_dd_7647_1541)">
<path d="M165.666 122.112C165.903 121.99 166.221 121.952 166.538 122.077L182.78 128.474C183.53 128.769 184.282 129.337 184.216 130.14L184.204 130.225C184.168 130.42 184.067 130.599 183.945 130.759L183.857 130.865C183.761 130.967 183.641 131.058 183.456 131.15L178.966 132.982C178.283 133.271 177.599 133.657 177.111 134.139L176.852 134.408C176.604 134.68 176.398 134.963 176.267 135.289L176.181 135.527C176.101 135.767 176.037 136.013 175.94 136.246L174.28 140.213C174.127 140.744 173.61 141.037 173.159 140.996L173.07 140.984C172.982 140.966 172.893 140.921 172.809 140.866L172.568 140.698C172.392 140.575 172.314 140.396 172.24 140.202L172.165 140.005L165.524 123.623C165.433 123.398 165.295 123.183 165.242 122.948L165.225 122.846C165.221 122.806 165.22 122.766 165.222 122.727C165.235 122.463 165.431 122.232 165.666 122.112ZM166.451 123.247L173.092 139.629C173.11 139.673 173.126 139.715 173.14 139.751C173.156 139.796 173.163 139.813 173.176 139.848C173.189 139.882 173.199 139.905 173.206 139.923C173.208 139.924 173.21 139.926 173.212 139.927C173.223 139.935 173.234 139.943 173.243 139.95C173.253 139.958 173.263 139.964 173.272 139.971C173.276 139.974 173.281 139.977 173.285 139.98C173.294 139.974 173.302 139.968 173.307 139.962C173.312 139.955 173.316 139.947 173.319 139.936L173.336 139.881L173.357 139.827L175.017 135.861C175.06 135.756 175.098 135.639 175.149 135.473C175.196 135.322 175.258 135.118 175.339 134.916C175.593 134.284 176.023 133.808 176.408 133.428C177.024 132.82 177.837 132.374 178.576 132.061L178.588 132.056L183.027 130.244C183.083 130.216 183.106 130.199 183.113 130.194C183.119 130.189 183.129 130.181 183.149 130.154C183.189 130.102 183.208 130.067 183.218 130.046C183.218 130.045 183.218 130.044 183.219 130.043C183.219 130.004 183.205 129.934 183.089 129.816C182.945 129.669 182.706 129.519 182.414 129.404L166.379 123.089C166.402 123.138 166.428 123.19 166.451 123.247Z" fill="url(#paint10_linear_7647_1541)"/>
</g>
<path d="M93.6447 135.009C94.1245 134.736 94.7346 134.904 95.008 135.383C95.2815 135.863 95.1148 136.474 94.635 136.748C94.1466 137.026 93.6647 137.274 93.1975 137.49L92.7346 137.694C91.8915 138.051 91.0214 138.303 90.135 138.459L90.0334 138.471C89.5277 138.509 89.0656 138.157 88.9758 137.647C88.8802 137.103 89.2437 136.585 89.7873 136.489L90.0656 136.436C90.7129 136.304 91.3443 136.111 91.9553 135.852L92.3596 135.674C92.7713 135.484 93.2025 135.261 93.6447 135.009ZM79.4143 135.325C79.6407 134.859 80.1806 134.648 80.6565 134.823L80.7512 134.863L81.302 135.122C82.4081 135.621 83.5306 136.01 84.6467 136.271L85.2043 136.391L85.3039 136.416C85.7887 136.563 86.0921 137.057 85.9924 137.565C85.8926 138.073 85.4248 138.416 84.9201 138.369L84.8186 138.354L84.1916 138.218C82.9372 137.925 81.6921 137.491 80.4797 136.944L79.8762 136.662L79.7863 136.612C79.3553 136.345 79.1878 135.79 79.4143 135.325ZM99.465 129.99C99.8128 129.621 100.39 129.568 100.801 129.883C101.239 130.22 101.321 130.848 100.985 131.286L100.653 131.705C99.8642 132.671 98.9825 133.55 98.0676 134.331C97.6475 134.689 97.0169 134.639 96.6584 134.219C96.3 133.799 96.3496 133.168 96.7697 132.809C97.724 131.995 98.6261 131.074 99.3986 130.068L99.465 129.99ZM73.2053 129.082C74.1197 130.115 75.1378 131.089 76.2297 131.97L76.7024 132.342L76.7805 132.409C77.1488 132.757 77.2014 133.334 76.8859 133.745C76.5704 134.155 75.9985 134.253 75.5676 133.986L75.4836 133.927L74.9738 133.526C73.7961 132.575 72.6965 131.525 71.7072 130.407L73.2053 129.082ZM71.7932 128.996C72.2068 128.63 72.8393 128.668 73.2053 129.082L71.7072 130.407C71.3414 129.993 71.3798 129.362 71.7932 128.996ZM103.479 122.337C103.636 123.297 103.721 124.278 103.721 125.273L103.717 125.363L103.704 125.452C103.572 126.178 103.37 126.882 103.111 127.56L103.069 127.654C102.84 128.106 102.302 128.322 101.819 128.136C101.303 127.939 101.045 127.36 101.242 126.844L101.397 126.414C101.532 126.008 101.639 125.596 101.719 125.179C101.714 124.33 101.641 123.488 101.505 122.659L103.479 122.337ZM68.7424 120.345C68.889 121.28 69.1259 122.195 69.4631 123.084L69.677 123.618C69.8271 123.973 69.9925 124.328 70.1721 124.682L70.4514 125.212L70.4963 125.304C70.6942 125.771 70.5112 126.32 70.0578 126.57C69.6041 126.82 69.0409 126.68 68.7531 126.262L68.6994 126.175L68.3879 125.588C68.1879 125.193 68.0033 124.796 67.8342 124.395L67.593 123.794C67.2039 122.769 66.9326 121.718 66.7658 120.655L68.7424 120.345ZM102.33 121.511C102.875 121.422 103.39 121.792 103.479 122.337L101.505 122.659C101.416 122.114 101.786 121.601 102.33 121.511ZM67.5988 119.512C68.1444 119.427 68.6568 119.8 68.7424 120.345L66.7658 120.655C66.6805 120.11 67.0535 119.598 67.5988 119.512ZM98.8195 111.811C99.7829 113.142 100.678 114.583 101.432 116.114L101.746 116.776L101.783 116.871C101.947 117.351 101.724 117.886 101.253 118.101C100.782 118.317 100.231 118.136 99.9748 117.699L99.9279 117.608L99.6369 116.998C98.9395 115.582 98.1064 114.237 97.1994 112.984L98.01 112.398L98.8195 111.811ZM68.7414 108.143C68.9842 107.698 69.5289 107.501 70.0061 107.702C70.5151 107.916 70.7544 108.502 70.5402 109.011L70.2609 109.698C69.6294 111.308 69.1432 112.961 68.8547 114.613C68.7597 115.157 68.2414 115.521 67.6975 115.426C67.1535 115.331 66.7891 114.813 66.884 114.269C67.2436 112.211 67.8803 110.175 68.6965 108.235L68.7414 108.143ZM97.4231 111.588C97.8704 111.264 98.4956 111.364 98.8195 111.811L97.1994 112.984C96.8757 112.537 96.9758 111.911 97.4231 111.588ZM89.4455 104.014C89.7529 103.598 90.3228 103.489 90.759 103.747L90.844 103.803L91.384 104.21C91.9232 104.623 92.4601 105.056 92.9943 105.512L93.51 105.962C93.8567 106.27 94.2083 106.595 94.5627 106.935L95.0959 107.458L95.1652 107.534C95.4853 107.927 95.4619 108.506 95.0959 108.872C94.7297 109.238 94.1507 109.261 93.758 108.94L93.6818 108.872L93.177 108.377C92.8416 108.054 92.509 107.747 92.1818 107.457L91.6955 107.034C91.1877 106.6 90.6787 106.189 90.1682 105.798L89.6574 105.413L89.5774 105.348C89.2021 105.008 89.1383 104.431 89.4455 104.014ZM70.924 97.2565C72.5336 97.2865 74.124 97.4025 75.6965 97.6208C75.7794 97.6323 75.8585 97.6544 75.9328 97.6843C76.1184 97.7012 76.3017 97.7695 76.4592 97.8932C76.8933 98.2344 76.9692 98.8633 76.6281 99.2975L75.008 101.376C74.4252 102.133 73.853 102.942 73.3059 103.792C73.0069 104.256 72.3884 104.39 71.924 104.091C71.4599 103.793 71.3257 103.174 71.6242 102.71C72.2023 101.812 72.8075 100.956 73.425 100.153L73.427 100.151L73.9856 99.4333C72.9647 99.3338 71.9322 99.276 70.8869 99.2565L70.2258 99.2487L70.1233 99.2428C69.6193 99.1898 69.2269 98.7625 69.2287 98.2448C69.2309 97.6928 69.6805 97.2468 70.2326 97.2487L70.924 97.2565ZM79.8186 99.4684C79.9722 98.9738 80.475 98.6839 80.9719 98.7848L81.0705 98.8102L81.716 99.0182C83.005 99.4489 84.2805 99.9665 85.5432 100.581L86.1731 100.896L86.2619 100.947C86.687 101.223 86.8423 101.782 86.6057 102.243C86.369 102.703 85.8245 102.902 85.3527 102.717L85.259 102.674L84.6682 102.38C83.4845 101.804 82.2899 101.318 81.0822 100.915L80.4777 100.72L80.3811 100.685C79.9147 100.487 79.6651 99.9629 79.8186 99.4684ZM54.133 99.2223C54.6737 99.1102 55.2034 99.458 55.3156 99.9987C55.4278 100.539 55.08 101.069 54.5393 101.181C54.1097 101.27 53.678 101.362 53.2443 101.455L51.9367 101.74C51.3974 101.859 50.8634 101.517 50.7443 100.978C50.6255 100.439 50.9661 99.906 51.5051 99.7868L52.8244 99.4987C53.2622 99.4047 53.6986 99.3125 54.133 99.2223ZM59.7541 100.201C59.2093 100.291 58.6946 99.9214 58.6047 99.3766C58.515 98.8317 58.884 98.317 59.4289 98.2272L59.7541 100.201ZM64.7951 97.5153C65.3449 97.4625 65.8341 97.865 65.8869 98.4147C65.9397 98.9645 65.5363 99.4527 64.9865 99.5055C63.2766 99.6698 61.5338 99.9078 59.7541 100.201L59.592 99.2136L59.4289 98.2272C61.2439 97.9283 63.0323 97.6847 64.7951 97.5153ZM79.9074 95.2136C79.5557 95.639 78.9259 95.6988 78.5002 95.3473C78.0744 94.9958 78.0141 94.366 78.3654 93.9401L79.9074 95.2136ZM81.8332 89.9147C82.2043 89.5058 82.8363 89.4754 83.2453 89.8464C83.6544 90.2174 83.6856 90.8494 83.3147 91.2585C82.2203 92.465 81.0935 93.7772 79.9074 95.2136L78.3654 93.9401C79.5663 92.4858 80.7134 91.1493 81.8332 89.9147ZM86.9348 87.5495C86.5324 87.9278 85.899 87.9089 85.5207 87.5065C85.1424 87.1042 85.1623 86.4708 85.5647 86.0925L86.9348 87.5495ZM89.676 82.6296C90.1186 82.2996 90.7452 82.3912 91.0754 82.8337C91.4053 83.2763 91.3138 83.9029 90.8713 84.2331C89.5281 85.2355 88.2326 86.3292 86.9348 87.5495L85.5647 86.0925C86.9128 84.8249 88.2667 83.6813 89.676 82.6296ZM99.0578 77.2282C99.5386 77.0681 100.072 77.2952 100.284 77.7673C100.511 78.2708 100.287 78.8628 99.7834 79.0895L98.5627 79.654C97.3668 80.2234 96.2435 80.8075 95.174 81.4186C94.6945 81.6926 94.0838 81.5261 93.8098 81.0466C93.5359 80.5671 93.7024 79.9563 94.1818 79.6823C95.6707 78.8315 97.25 78.0356 98.9621 77.2653L99.0578 77.2282ZM106.485 74.3014C106.977 74.1811 107.49 74.4512 107.663 74.9391C107.836 75.4271 107.608 75.9597 107.15 76.1764L107.055 76.2155C106.204 76.5174 105.386 76.8168 104.597 77.1149C104.08 77.31 103.503 77.0493 103.308 76.5329C103.113 76.0163 103.373 75.4391 103.89 75.2438C104.693 74.9404 105.525 74.6366 106.387 74.3307L106.485 74.3014Z" fill="#B7B4AF"/>
<g filter="url(#filter6_dd_7647_1541)">
<path d="M129.717 63.9504C135.093 68.0113 136.975 70.9893 147.995 59.7091C150.145 57.5433 149.608 54.2043 142.44 53.3019C136.168 52.4897 131.509 53.3019 126.76 55.1067C126.76 55.1067 126.76 55.1067 126.671 55.0165C129.09 48.6996 129.538 42.2022 127.656 35.6145C126.94 33.2682 124.521 31.4634 122.729 33.178C110.991 44.2777 113.769 46.985 118.159 52.219C117.622 51.858 117.174 51.5873 116.726 51.3166C114.038 49.6922 108.483 49.1508 107.766 56.9116C107.676 58.175 107.676 59.5286 108.214 60.792C109.289 63.2285 111.977 63.3187 114.306 63.2285C116.636 63.1382 118.428 62.5066 120.399 61.6041C120.22 61.9651 120.22 62.1456 120.13 62.3261C118.876 65.3041 117.801 70.899 120.22 73.1551C121.564 74.3282 123.445 74.3282 125.148 74.238C126.581 74.1477 128.015 73.877 129.269 73.1551C131.151 72.0722 131.867 70.1771 131.599 68.1015C131.24 66.2065 130.344 65.0333 129.717 63.9504Z" fill="url(#paint11_linear_7647_1541)"/>
<path d="M129.717 63.9504C135.093 68.0113 136.975 70.9893 147.995 59.7091C150.145 57.5433 149.608 54.2043 142.44 53.3019C136.168 52.4897 131.509 53.3019 126.76 55.1067C126.76 55.1067 126.76 55.1067 126.671 55.0165C129.09 48.6996 129.538 42.2022 127.656 35.6145C126.94 33.2682 124.521 31.4634 122.729 33.178C110.991 44.2777 113.769 46.985 118.159 52.219C117.622 51.858 117.174 51.5873 116.726 51.3166C114.038 49.6922 108.483 49.1508 107.766 56.9116C107.676 58.175 107.676 59.5286 108.214 60.792C109.289 63.2285 111.977 63.3187 114.306 63.2285C116.636 63.1382 118.428 62.5066 120.399 61.6041C120.22 61.9651 120.22 62.1456 120.13 62.3261C118.876 65.3041 117.801 70.899 120.22 73.1551C121.564 74.3282 123.445 74.3282 125.148 74.238C126.581 74.1477 128.015 73.877 129.269 73.1551C131.151 72.0722 131.867 70.1771 131.599 68.1015C131.24 66.2065 130.344 65.0333 129.717 63.9504Z" fill="url(#paint12_linear_7647_1541)" fill-opacity="0.5"/>
</g>
<defs>
<filter id="filter0_dd_7647_1541" x="41.0813" y="30.2935" width="135.464" height="104.473" filterUnits="userSpaceOnUse" color-interpolation-filters="sRGB">
<feFlood flood-opacity="0" result="BackgroundImageFix"/>
<feColorMatrix in="SourceAlpha" type="matrix" values="0 0 0 0 0 0 0 0 0 0 0 0 0 0 0 0 0 0 127 0" result="hardAlpha"/>
<feOffset dy="2"/>
<feGaussianBlur stdDeviation="7"/>
<feComposite in2="hardAlpha" operator="out"/>
<feColorMatrix type="matrix" values="0 0 0 0 1 0 0 0 0 0.8 0 0 0 0 0.2 0 0 0 1 0"/>
<feBlend mode="normal" in2="BackgroundImageFix" result="effect1_dropShadow_7647_1541"/>
<feColorMatrix in="SourceAlpha" type="matrix" values="0 0 0 0 0 0 0 0 0 0 0 0 0 0 0 0 0 0 127 0" result="hardAlpha"/>
<feOffset dy="2"/>
<feGaussianBlur stdDeviation="4"/>
<feComposite in2="hardAlpha" operator="out"/>
<feColorMatrix type="matrix" values="0 0 0 0 0 0 0 0 0 0 0 0 0 0 0 0 0 0 0.5 0"/>
<feBlend mode="normal" in2="effect1_dropShadow_7647_1541" result="effect2_dropShadow_7647_1541"/>
<feBlend mode="normal" in="SourceGraphic" in2="effect2_dropShadow_7647_1541" result="shape"/>
</filter>
<filter id="filter1_dd_7647_1541" x="131.221" y="88" width="60" height="60" filterUnits="userSpaceOnUse" color-interpolation-filters="sRGB">
<feFlood flood-opacity="0" result="BackgroundImageFix"/>
<feColorMatrix in="SourceAlpha" type="matrix" values="0 0 0 0 0 0 0 0 0 0 0 0 0 0 0 0 0 0 127 0" result="hardAlpha"/>
<feOffset/>
<feGaussianBlur stdDeviation="12"/>
<feComposite in2="hardAlpha" operator="out"/>
<feColorMatrix type="matrix" values="0 0 0 0 0.98415 0 0 0 0 0.859671 0 0 0 0 0.486234 0 0 0 1 0"/>
<feBlend mode="normal" in2="BackgroundImageFix" result="effect1_dropShadow_7647_1541"/>
<feColorMatrix in="SourceAlpha" type="matrix" values="0 0 0 0 0 0 0 0 0 0 0 0 0 0 0 0 0 0 127 0" result="hardAlpha"/>
<feOffset dy="2"/>
<feGaussianBlur stdDeviation="4"/>
<feComposite in2="hardAlpha" operator="out"/>
<feColorMatrix type="matrix" values="0 0 0 0 0 0 0 0 0 0 0 0 0 0 0 0 0 0 0.08 0"/>
<feBlend mode="normal" in2="effect1_dropShadow_7647_1541" result="effect2_dropShadow_7647_1541"/>
<feBlend mode="normal" in="SourceGraphic" in2="effect2_dropShadow_7647_1541" result="shape"/>
</filter>
<filter id="filter2_dd_7647_1541" x="131.221" y="88" width="60" height="60" filterUnits="userSpaceOnUse" color-interpolation-filters="sRGB">
<feFlood flood-opacity="0" result="BackgroundImageFix"/>
<feColorMatrix in="SourceAlpha" type="matrix" values="0 0 0 0 0 0 0 0 0 0 0 0 0 0 0 0 0 0 127 0" result="hardAlpha"/>
<feOffset/>
<feGaussianBlur stdDeviation="12"/>
<feComposite in2="hardAlpha" operator="out"/>
<feColorMatrix type="matrix" values="0 0 0 0 0.98415 0 0 0 0 0.859671 0 0 0 0 0.486234 0 0 0 1 0"/>
<feBlend mode="normal" in2="BackgroundImageFix" result="effect1_dropShadow_7647_1541"/>
<feColorMatrix in="SourceAlpha" type="matrix" values="0 0 0 0 0 0 0 0 0 0 0 0 0 0 0 0 0 0 127 0" result="hardAlpha"/>
<feOffset dy="2"/>
<feGaussianBlur stdDeviation="4"/>
<feComposite in2="hardAlpha" operator="out"/>
<feColorMatrix type="matrix" values="0 0 0 0 0 0 0 0 0 0 0 0 0 0 0 0 0 0 0.08 0"/>
<feBlend mode="normal" in2="effect1_dropShadow_7647_1541" result="effect2_dropShadow_7647_1541"/>
<feBlend mode="normal" in="SourceGraphic" in2="effect2_dropShadow_7647_1541" result="shape"/>
</filter>
<filter id="filter3_dd_7647_1541" x="36.7207" y="27.5" width="141.48" height="110.874" filterUnits="userSpaceOnUse" color-interpolation-filters="sRGB">
<feFlood flood-opacity="0" result="BackgroundImageFix"/>
<feColorMatrix in="SourceAlpha" type="matrix" values="0 0 0 0 0 0 0 0 0 0 0 0 0 0 0 0 0 0 127 0" result="hardAlpha"/>
<feOffset dx="2" dy="6"/>
<feGaussianBlur stdDeviation="8"/>
<feComposite in2="hardAlpha" operator="out"/>
<feColorMatrix type="matrix" values="0 0 0 0 0 0 0 0 0 0 0 0 0 0 0 0 0 0 0.24 0"/>
<feBlend mode="normal" in2="BackgroundImageFix" result="effect1_dropShadow_7647_1541"/>
<feColorMatrix in="SourceAlpha" type="matrix" values="0 0 0 0 0 0 0 0 0 0 0 0 0 0 0 0 0 0 127 0" result="hardAlpha"/>
<feOffset dy="1"/>
<feGaussianBlur stdDeviation="1"/>
<feComposite in2="hardAlpha" operator="out"/>
<feColorMatrix type="matrix" values="0 0 0 0 0 0 0 0 0 0 0 0 0 0 0 0 0 0 0.24 0"/>
<feBlend mode="normal" in2="effect1_dropShadow_7647_1541" result="effect2_dropShadow_7647_1541"/>
<feBlend mode="normal" in="SourceGraphic" in2="effect2_dropShadow_7647_1541" result="shape"/>
</filter>
<filter id="filter4_dd_7647_1541" x="149.221" y="110" width="50.999" height="51" filterUnits="userSpaceOnUse" color-interpolation-filters="sRGB">
<feFlood flood-opacity="0" result="BackgroundImageFix"/>
<feColorMatrix in="SourceAlpha" type="matrix" values="0 0 0 0 0 0 0 0 0 0 0 0 0 0 0 0 0 0 127 0" result="hardAlpha"/>
<feOffset dy="4"/>
<feGaussianBlur stdDeviation="8"/>
<feComposite in2="hardAlpha" operator="out"/>
<feColorMatrix type="matrix" values="0 0 0 0 0 0 0 0 0 0 0 0 0 0 0 0 0 0 0.64 0"/>
<feBlend mode="normal" in2="BackgroundImageFix" result="effect1_dropShadow_7647_1541"/>
<feColorMatrix in="SourceAlpha" type="matrix" values="0 0 0 0 0 0 0 0 0 0 0 0 0 0 0 0 0 0 127 0" result="hardAlpha"/>
<feOffset dy="1"/>
<feGaussianBlur stdDeviation="0.5"/>
<feComposite in2="hardAlpha" operator="out"/>
<feColorMatrix type="matrix" values="0 0 0 0 0 0 0 0 0 0 0 0 0 0 0 0 0 0 0.08 0"/>
<feBlend mode="normal" in2="effect1_dropShadow_7647_1541" result="effect2_dropShadow_7647_1541"/>
<feBlend mode="normal" in="SourceGraphic" in2="effect2_dropShadow_7647_1541" result="shape"/>
</filter>
<filter id="filter5_dd_7647_1541" x="149.221" y="110" width="50.999" height="51" filterUnits="userSpaceOnUse" color-interpolation-filters="sRGB">
<feFlood flood-opacity="0" result="BackgroundImageFix"/>
<feColorMatrix in="SourceAlpha" type="matrix" values="0 0 0 0 0 0 0 0 0 0 0 0 0 0 0 0 0 0 127 0" result="hardAlpha"/>
<feOffset dy="4"/>
<feGaussianBlur stdDeviation="8"/>
<feComposite in2="hardAlpha" operator="out"/>
<feColorMatrix type="matrix" values="0 0 0 0 0 0 0 0 0 0 0 0 0 0 0 0 0 0 0.64 0"/>
<feBlend mode="normal" in2="BackgroundImageFix" result="effect1_dropShadow_7647_1541"/>
<feColorMatrix in="SourceAlpha" type="matrix" values="0 0 0 0 0 0 0 0 0 0 0 0 0 0 0 0 0 0 127 0" result="hardAlpha"/>
<feOffset dy="1"/>
<feGaussianBlur stdDeviation="0.5"/>
<feComposite in2="hardAlpha" operator="out"/>
<feColorMatrix type="matrix" values="0 0 0 0 0 0 0 0 0 0 0 0 0 0 0 0 0 0 0.08 0"/>
<feBlend mode="normal" in2="effect1_dropShadow_7647_1541" result="effect2_dropShadow_7647_1541"/>
<feBlend mode="normal" in="SourceGraphic" in2="effect2_dropShadow_7647_1541" result="shape"/>
</filter>
<filter id="filter6_dd_7647_1541" x="91.7214" y="20.5" width="73.3831" height="73.7729" filterUnits="userSpaceOnUse" color-interpolation-filters="sRGB">
<feFlood flood-opacity="0" result="BackgroundImageFix"/>
<feColorMatrix in="SourceAlpha" type="matrix" values="0 0 0 0 0 0 0 0 0 0 0 0 0 0 0 0 0 0 127 0" result="hardAlpha"/>
<feOffset dy="4"/>
<feGaussianBlur stdDeviation="8"/>
<feComposite in2="hardAlpha" operator="out"/>
<feColorMatrix type="matrix" values="0 0 0 0 0 0 0 0 0 0 0 0 0 0 0 0 0 0 0.64 0"/>
<feBlend mode="normal" in2="BackgroundImageFix" result="effect1_dropShadow_7647_1541"/>
<feColorMatrix in="SourceAlpha" type="matrix" values="0 0 0 0 0 0 0 0 0 0 0 0 0 0 0 0 0 0 127 0" result="hardAlpha"/>
<feOffset dy="1"/>
<feGaussianBlur stdDeviation="0.5"/>
<feComposite in2="hardAlpha" operator="out"/>
<feColorMatrix type="matrix" values="0 0 0 0 0 0 0 0 0 0 0 0 0 0 0 0 0 0 0.08 0"/>
<feBlend mode="normal" in2="effect1_dropShadow_7647_1541" result="effect2_dropShadow_7647_1541"/>
<feBlend mode="normal" in="SourceGraphic" in2="effect2_dropShadow_7647_1541" result="shape"/>
</filter>
<linearGradient id="paint0_linear_7647_1541" x1="108.813" y1="42.2935" x2="108.813" y2="118.766" gradientUnits="userSpaceOnUse">
<stop stop-color="#FFCC33"/>
<stop offset="1" stop-color="#FFEAAA"/>
</linearGradient>
<linearGradient id="paint1_linear_7647_1541" x1="157.721" y1="113" x2="164.221" y2="121.5" gradientUnits="userSpaceOnUse">
<stop stop-color="#FFE79E"/>
<stop offset="1" stop-color="#FFD452"/>
</linearGradient>
<linearGradient id="paint2_linear_7647_1541" x1="155.221" y1="118" x2="167.221" y2="118" gradientUnits="userSpaceOnUse">
<stop stop-color="#FFEAAA"/>
<stop offset="1" stop-color="#FFE7A1"/>
</linearGradient>
<linearGradient id="paint3_linear_7647_1541" x1="154.937" y1="38" x2="154.937" y2="47.5285" gradientUnits="userSpaceOnUse">
<stop stop-color="#4D4D4D"/>
<stop offset="0.828125" stop-color="#373737"/>
</linearGradient>
<linearGradient id="paint4_linear_7647_1541" x1="154.937" y1="38" x2="154.937" y2="47.5285" gradientUnits="userSpaceOnUse">
<stop stop-color="#696969"/>
<stop offset="0.283654" stop-color="#333333" stop-opacity="0"/>
</linearGradient>
<linearGradient id="paint5_linear_7647_1541" x1="55.985" y1="38" x2="55.985" y2="47.5285" gradientUnits="userSpaceOnUse">
<stop stop-color="#4D4D4D"/>
<stop offset="0.828125" stop-color="#373737"/>
</linearGradient>
<linearGradient id="paint6_linear_7647_1541" x1="55.985" y1="38" x2="55.985" y2="47.5285" gradientUnits="userSpaceOnUse">
<stop stop-color="#696969"/>
<stop offset="0.283654" stop-color="#333333" stop-opacity="0"/>
</linearGradient>
<linearGradient id="paint7_linear_7647_1541" x1="55.985" y1="106.346" x2="55.985" y2="115.874" gradientUnits="userSpaceOnUse">
<stop stop-color="#4D4D4D"/>
<stop offset="0.828125" stop-color="#373737"/>
</linearGradient>
<linearGradient id="paint8_linear_7647_1541" x1="55.985" y1="106.346" x2="55.985" y2="115.874" gradientUnits="userSpaceOnUse">
<stop stop-color="#696969"/>
<stop offset="0.283654" stop-color="#333333" stop-opacity="0"/>
</linearGradient>
<linearGradient id="paint9_linear_7647_1541" x1="175.762" y1="132.534" x2="165.246" y2="121.974" gradientUnits="userSpaceOnUse">
<stop stop-color="#545151"/>
<stop offset="1" stop-color="#BBAE87"/>
</linearGradient>
<linearGradient id="paint10_linear_7647_1541" x1="182.009" y1="133.704" x2="175.238" y2="117.749" gradientUnits="userSpaceOnUse">
<stop offset="0.125856" stop-color="#5B5956"/>
<stop offset="1" stop-color="#FFF7DE"/>
</linearGradient>
<linearGradient id="paint11_linear_7647_1541" x1="167.21" y1="52.1915" x2="165.204" y2="81.6368" gradientUnits="userSpaceOnUse">
<stop offset="0.0036" stop-color="#9C9C9C"/>
<stop offset="1" stop-color="#757166"/>
</linearGradient>
<linearGradient id="paint12_linear_7647_1541" x1="134.805" y1="40.442" x2="124.104" y2="62.5948" gradientUnits="userSpaceOnUse">
<stop stop-color="#FFEAAA" stop-opacity="0"/>
<stop offset="1" stop-color="#FFDE7C"/>
</linearGradient>
</defs>
</svg>
