<svg width="230" height="160" viewBox="0 0 230 160" fill="none" xmlns="http://www.w3.org/2000/svg">
<g filter="url(#filter0_dd_7647_1520)">
<path d="M154.545 45.2935C154.545 44.1889 153.65 43.2935 152.545 43.2935H60.0813C58.9767 43.2935 58.0813 44.1889 58.0813 45.2935L59.0813 109.766C59.0813 110.871 59.9767 111.766 61.0813 111.766L159.545 115.766C160.65 115.766 161.545 114.871 161.545 113.766L154.545 45.2935ZM163.545 113.766C163.545 115.975 161.754 117.766 159.545 117.766L61.0813 113.766C58.8722 113.766 57.0813 111.975 57.0813 109.766L56.0813 45.2935C56.0813 43.0843 57.8722 41.2935 60.0813 41.2935H152.545C154.754 41.2935 156.545 43.0843 156.545 45.2935L163.545 113.766Z" fill="url(#paint0_radial_7647_1520)"/>
</g>
<g filter="url(#filter1_dd_7647_1520)">
<path d="M156.221 113C156.221 111.895 157.116 111 158.221 111H166.221C167.325 111 168.221 111.895 168.221 113V121C168.221 122.105 167.325 123 166.221 123H158.221C157.116 123 156.221 122.105 156.221 121V113Z" fill="url(#paint1_linear_7647_1520)"/>
</g>
<g filter="url(#filter2_dd_7647_1520)">
<path d="M166.221 122V123H158.221V122H166.221ZM167.221 121V113C167.221 112.482 166.827 112.056 166.323 112.005L166.221 112H158.221C157.703 112 157.277 112.393 157.226 112.897L157.221 113V121C157.221 121.552 157.668 122 158.221 122V123C157.185 123 156.334 122.213 156.231 121.204L156.221 121V113C156.221 111.895 157.116 111 158.221 111H166.221L166.425 111.011C167.433 111.113 168.221 111.964 168.221 113V121L168.21 121.204C168.115 122.146 167.366 122.894 166.425 122.989L166.221 123V122C166.773 122 167.221 121.552 167.221 121Z" fill="url(#paint2_linear_7647_1520)"/>
<path d="M166.221 122V123H158.221V122H166.221ZM167.221 121V113C167.221 112.482 166.827 112.056 166.323 112.005L166.221 112H158.221C157.703 112 157.277 112.393 157.226 112.897L157.221 113V121C157.221 121.552 157.668 122 158.221 122V123C157.185 123 156.334 122.213 156.231 121.204L156.221 121V113C156.221 111.895 157.116 111 158.221 111H166.221L166.425 111.011C167.433 111.113 168.221 111.964 168.221 113V121L168.21 121.204C168.115 122.146 167.366 122.894 166.425 122.989L166.221 123V122C166.773 122 167.221 121.552 167.221 121Z" fill="#FCF4DA"/>
</g>
<g filter="url(#filter3_dd_7647_1520)">
<path d="M151.173 39C151.173 37.8954 152.068 37 153.173 37H158.701C159.806 37 160.701 37.8954 160.701 39V44.5285C160.701 45.6331 159.806 46.5285 158.701 46.5285H153.173C152.068 46.5285 151.173 45.6331 151.173 44.5285V39Z" fill="#717171"/>
<path d="M158.701 45.5285V46.5285H153.173V45.5285H158.701ZM159.701 44.5285V39C159.701 38.4823 159.308 38.0562 158.804 38.0049L158.701 38H153.173C152.655 38 152.229 38.3934 152.178 38.8975L152.173 39V44.5285C152.173 45.0808 152.621 45.5285 153.173 45.5285V46.5285C152.068 46.5285 151.173 45.6331 151.173 44.5285V39C151.173 37.9644 151.96 37.113 152.969 37.0107L153.173 37H158.701C159.806 37 160.701 37.8954 160.701 39V44.5285C160.701 45.6331 159.806 46.5285 158.701 46.5285V45.5285C159.254 45.5285 159.701 45.0808 159.701 44.5285Z" fill="url(#paint3_linear_7647_1520)"/>
<path d="M52.2207 39C52.2207 37.8954 53.1161 37 54.2207 37H59.7492C60.8538 37 61.7492 37.8954 61.7492 39V44.5285C61.7492 45.6331 60.8538 46.5285 59.7492 46.5285H54.2207C53.1161 46.5285 52.2207 45.6331 52.2207 44.5285V39Z" fill="#717171"/>
<path d="M59.7492 45.5285V46.5285H54.2207V45.5285H59.7492ZM60.7492 44.5285V39C60.7492 38.4823 60.3559 38.0562 59.8517 38.0049L59.7492 38H54.2207C53.7031 38 53.2769 38.3934 53.2256 38.8975L53.2207 39V44.5285C53.2207 45.0808 53.6684 45.5285 54.2207 45.5285V46.5285C53.1162 46.5285 52.2207 45.6331 52.2207 44.5285V39C52.2207 37.9644 53.0079 37.113 54.0166 37.0107L54.2207 37H59.7492C60.8538 37 61.7492 37.8954 61.7492 39V44.5285C61.7492 45.6331 60.8538 46.5285 59.7492 46.5285V45.5285C60.3015 45.5285 60.7492 45.0808 60.7492 44.5285Z" fill="url(#paint4_linear_7647_1520)"/>
<path d="M53.2207 110.346C53.2207 109.241 54.1161 108.346 55.2207 108.346H60.7492C61.8538 108.346 62.7492 109.241 62.7492 110.346V115.874C62.7492 116.979 61.8538 117.874 60.7492 117.874H55.2207C54.1161 117.874 53.2207 116.979 53.2207 115.874V110.346Z" fill="#717171"/>
<path d="M60.7492 116.874V117.874H55.2207V116.874H60.7492ZM61.7492 115.874V110.346C61.7492 109.828 61.3559 109.402 60.8517 109.351L60.7492 109.346H55.2207C54.7031 109.346 54.2769 109.739 54.2256 110.243L54.2207 110.346V115.874C54.2207 116.426 54.6684 116.874 55.2207 116.874V117.874C54.1162 117.874 53.2207 116.979 53.2207 115.874V110.346C53.2207 109.31 54.0079 108.459 55.0166 108.356L55.2207 108.346H60.7492C61.8538 108.346 62.7492 109.241 62.7492 110.346V115.874C62.7492 116.979 61.8538 117.874 60.7492 117.874V116.874C61.3015 116.874 61.7492 116.426 61.7492 115.874Z" fill="url(#paint5_linear_7647_1520)"/>
</g>
<path d="M182.14 126.475C181.945 126.764 181.847 126.957 181.457 127.15L176.966 128.982C176.283 129.271 175.599 129.657 175.111 130.139C174.623 130.621 174.233 131.103 174.135 131.778L172.28 136.213C172.085 136.888 171.304 137.178 170.816 136.888C170.621 136.695 170.328 136.599 170.328 136.406L163.367 119.235C163.172 118.945 163.172 118.56 163.367 118.367C163.562 118.078 164.05 117.885 164.539 118.078L181.945 124.932C182.14 125.318 182.335 125.993 182.14 126.475Z" fill="url(#paint6_linear_7647_1520)"/>
<path d="M162.59 117.739C163.082 117.086 164.04 116.806 164.906 117.148L164.905 117.149L182.311 124.002L182.665 124.141L182.837 124.481C182.974 124.752 183.106 125.11 183.174 125.494C183.239 125.864 183.263 126.365 183.066 126.85L183.027 126.947L182.969 127.034C182.907 127.126 182.773 127.341 182.614 127.518C182.422 127.731 182.195 127.9 181.899 128.046L181.867 128.063L181.834 128.075L177.355 129.903C176.728 130.168 176.175 130.495 175.814 130.851C175.361 131.299 175.174 131.585 175.125 131.921L175.106 132.047L175.058 132.164L173.203 136.6C172.995 137.196 172.549 137.618 172.053 137.831C171.542 138.051 170.879 138.088 170.307 137.749L170.2 137.686L170.113 137.6C170.12 137.607 170.116 137.601 170.077 137.573C170.077 137.573 169.949 137.485 169.903 137.451C169.835 137.401 169.704 137.299 169.588 137.151C169.499 137.036 169.409 136.88 169.362 136.687L162.472 119.686C162.307 119.401 162.221 119.08 162.221 118.765C162.221 118.446 162.314 118.058 162.59 117.739ZM164.538 118.077C164.05 117.885 163.562 118.078 163.367 118.367C163.172 118.56 163.172 118.945 163.367 119.235L170.328 136.406C170.328 136.599 170.621 136.696 170.816 136.889C171.305 137.178 172.085 136.888 172.28 136.213L174.135 131.778C174.22 131.188 174.531 130.745 174.934 130.32L175.111 130.139C175.599 129.657 176.283 129.271 176.966 128.982L181.456 127.15C181.847 126.957 181.944 126.764 182.14 126.475C182.335 125.993 182.14 125.317 181.944 124.932L164.538 118.077Z" fill="url(#paint7_linear_7647_1520)"/>
<path d="M95.1447 134.509C95.6245 134.236 96.2346 134.404 96.508 134.883C96.7815 135.363 96.6148 135.974 96.135 136.248C95.6466 136.526 95.1647 136.774 94.6975 136.99L94.2346 137.194C93.3915 137.551 92.5214 137.803 91.635 137.959L91.5334 137.971C91.0277 138.009 90.5656 137.657 90.4758 137.147C90.3802 136.603 90.7437 136.085 91.2873 135.989L91.5656 135.936C92.2129 135.804 92.8443 135.611 93.4553 135.352L93.8596 135.174C94.2713 134.984 94.7025 134.761 95.1447 134.509ZM80.9143 134.825C81.1407 134.359 81.6806 134.148 82.1565 134.323L82.2512 134.363L82.802 134.622C83.9081 135.121 85.0306 135.51 86.1467 135.771L86.7043 135.891L86.8039 135.916C87.2887 136.063 87.5921 136.557 87.4924 137.065C87.3926 137.573 86.9248 137.916 86.4201 137.869L86.3186 137.854L85.6916 137.718C84.4372 137.425 83.1921 136.991 81.9797 136.444L81.3762 136.162L81.2863 136.112C80.8553 135.845 80.6878 135.29 80.9143 134.825ZM100.965 129.49C101.313 129.121 101.89 129.068 102.301 129.383C102.739 129.72 102.821 130.348 102.485 130.786L102.153 131.205C101.364 132.171 100.483 133.05 99.5676 133.831C99.1475 134.189 98.5169 134.139 98.1584 133.719C97.8 133.299 97.8496 132.668 98.2697 132.309C99.224 131.495 100.126 130.574 100.899 129.568L100.965 129.49ZM74.7053 128.582C75.6197 129.615 76.6378 130.589 77.7297 131.47L78.2024 131.842L78.2805 131.909C78.6488 132.257 78.7014 132.834 78.3859 133.245C78.0704 133.655 77.4985 133.753 77.0676 133.486L76.9836 133.427L76.4738 133.026C75.2961 132.075 74.1965 131.025 73.2072 129.907L74.7053 128.582ZM73.2932 128.496C73.7068 128.13 74.3393 128.168 74.7053 128.582L73.2072 129.907C72.8414 129.493 72.8798 128.862 73.2932 128.496ZM104.979 121.837C105.136 122.797 105.221 123.778 105.221 124.773L105.217 124.863L105.204 124.952C105.072 125.678 104.87 126.382 104.611 127.06L104.569 127.154C104.34 127.606 103.802 127.822 103.319 127.636C102.803 127.439 102.545 126.86 102.742 126.344L102.897 125.914C103.032 125.508 103.139 125.096 103.219 124.679C103.214 123.83 103.141 122.988 103.005 122.159L104.979 121.837ZM70.2424 119.845C70.389 120.78 70.6259 121.695 70.9631 122.584L71.177 123.118C71.3271 123.473 71.4925 123.828 71.6721 124.182L71.9514 124.712L71.9963 124.804C72.1942 125.271 72.0112 125.82 71.5578 126.07C71.1041 126.32 70.5409 126.18 70.2531 125.762L70.1994 125.675L69.8879 125.088C69.6879 124.693 69.5033 124.296 69.3342 123.895L69.093 123.294C68.7039 122.269 68.4326 121.218 68.2658 120.155L70.2424 119.845ZM103.83 121.011C104.375 120.922 104.89 121.292 104.979 121.837L103.005 122.159C102.916 121.614 103.286 121.101 103.83 121.011ZM69.0988 119.012C69.6444 118.927 70.1568 119.3 70.2424 119.845L68.2658 120.155C68.1805 119.61 68.5535 119.098 69.0988 119.012ZM100.32 111.311C101.283 112.642 102.178 114.083 102.932 115.614L103.246 116.276L103.283 116.371C103.447 116.851 103.224 117.386 102.753 117.601C102.282 117.817 101.731 117.636 101.475 117.199L101.428 117.108L101.137 116.498C100.44 115.082 99.6064 113.737 98.6994 112.484L99.51 111.898L100.32 111.311ZM70.2414 107.643C70.4842 107.198 71.0289 107.001 71.5061 107.202C72.0151 107.416 72.2544 108.002 72.0402 108.511L71.7609 109.198C71.1294 110.808 70.6432 112.461 70.3547 114.113C70.2597 114.657 69.7414 115.021 69.1975 114.926C68.6535 114.831 68.2891 114.313 68.384 113.769C68.7436 111.711 69.3803 109.675 70.1965 107.735L70.2414 107.643ZM98.9231 111.088C99.3704 110.764 99.9956 110.864 100.32 111.311L98.6994 112.484C98.3757 112.037 98.4758 111.411 98.9231 111.088ZM90.9455 103.514C91.2529 103.098 91.8228 102.989 92.259 103.247L92.344 103.303L92.884 103.71C93.4232 104.123 93.9601 104.556 94.4943 105.012L95.01 105.462C95.3567 105.77 95.7083 106.095 96.0627 106.435L96.5959 106.958L96.6652 107.034C96.9853 107.427 96.9619 108.006 96.5959 108.372C96.2297 108.738 95.6507 108.761 95.258 108.44L95.1818 108.372L94.677 107.877C94.3416 107.554 94.009 107.247 93.6818 106.957L93.1955 106.534C92.6877 106.1 92.1787 105.689 91.6682 105.298L91.1574 104.913L91.0774 104.848C90.7021 104.508 90.6383 103.931 90.9455 103.514ZM72.424 96.7565C74.0336 96.7865 75.624 96.9025 77.1965 97.1208C77.2794 97.1323 77.3585 97.1544 77.4328 97.1843C77.6184 97.2012 77.8017 97.2695 77.9592 97.3932C78.3933 97.7344 78.4692 98.3633 78.1281 98.7975L76.508 100.876C75.9252 101.633 75.353 102.442 74.8059 103.292C74.5069 103.756 73.8884 103.89 73.424 103.591C72.9599 103.293 72.8257 102.674 73.1242 102.21C73.7023 101.312 74.3075 100.456 74.925 99.653L74.927 99.6511L75.4856 98.9333C74.4647 98.8338 73.4322 98.776 72.3869 98.7565L71.7258 98.7487L71.6233 98.7428C71.1193 98.6898 70.7269 98.2625 70.7287 97.7448C70.7309 97.1928 71.1805 96.7468 71.7326 96.7487L72.424 96.7565ZM81.3186 98.9684C81.4722 98.4738 81.975 98.1839 82.4719 98.2848L82.5705 98.3102L83.216 98.5182C84.505 98.9489 85.7805 99.4665 87.0432 100.081L87.6731 100.396L87.7619 100.447C88.187 100.723 88.3423 101.282 88.1057 101.743C87.869 102.203 87.3245 102.402 86.8527 102.217L86.759 102.174L86.1682 101.88C84.9845 101.304 83.7899 100.818 82.5822 100.415L81.9777 100.22L81.8811 100.185C81.4147 99.9868 81.1651 99.4629 81.3186 98.9684ZM55.633 98.7223C56.1737 98.6102 56.7034 98.958 56.8156 99.4987C56.9278 100.039 56.58 100.569 56.0393 100.681C55.6097 100.77 55.178 100.862 54.7443 100.955L53.4367 101.24C52.8974 101.359 52.3634 101.017 52.2443 100.478C52.1255 99.9391 52.4661 99.406 53.0051 99.2868L54.3244 98.9987C54.7622 98.9047 55.1986 98.8125 55.633 98.7223ZM61.2541 99.7009C60.7093 99.7906 60.1946 99.4214 60.1047 98.8766C60.015 98.3317 60.384 97.817 60.9289 97.7272L61.2541 99.7009ZM66.2951 97.0153C66.8449 96.9625 67.3341 97.365 67.3869 97.9147C67.4397 98.4645 67.0363 98.9527 66.4865 99.0055C64.7766 99.1698 63.0338 99.4078 61.2541 99.7009L61.092 98.7136L60.9289 97.7272C62.7439 97.4283 64.5323 97.1847 66.2951 97.0153ZM81.4074 94.7136C81.0557 95.139 80.4259 95.1988 80.0002 94.8473C79.5744 94.4958 79.5141 93.866 79.8654 93.4401L81.4074 94.7136ZM83.3332 89.4147C83.7043 89.0058 84.3363 88.9754 84.7453 89.3464C85.1544 89.7174 85.1856 90.3494 84.8147 90.7585C83.7203 91.965 82.5935 93.2772 81.4074 94.7136L79.8654 93.4401C81.0663 91.9858 82.2134 90.6493 83.3332 89.4147ZM88.4348 87.0495C88.0324 87.4278 87.399 87.4089 87.0207 87.0065C86.6424 86.6042 86.6623 85.9708 87.0647 85.5925L88.4348 87.0495ZM91.176 82.1296C91.6186 81.7996 92.2452 81.8912 92.5754 82.3337C92.9053 82.7763 92.8138 83.4029 92.3713 83.7331C91.0281 84.7355 89.7326 85.8292 88.4348 87.0495L87.0647 85.5925C88.4128 84.3249 89.7667 83.1813 91.176 82.1296ZM100.558 76.7282C101.039 76.5681 101.572 76.7952 101.784 77.2673C102.011 77.7708 101.787 78.3628 101.283 78.5895L100.063 79.154C98.8668 79.7234 97.7435 80.3075 96.674 80.9186C96.1945 81.1926 95.5838 81.0261 95.3098 80.5466C95.0359 80.0671 95.2024 79.4563 95.6818 79.1823C97.1707 78.3315 98.75 77.5356 100.462 76.7653L100.558 76.7282ZM107.985 73.8014C108.477 73.6811 108.99 73.9512 109.163 74.4391C109.336 74.9271 109.108 75.4597 108.65 75.6764L108.555 75.7155C107.704 76.0174 106.886 76.3168 106.097 76.6149C105.58 76.81 105.003 76.5493 104.808 76.0329C104.613 75.5163 104.873 74.9391 105.39 74.7438C106.193 74.4404 107.025 74.1366 107.887 73.8307L107.985 73.8014Z" fill="#B7B4AF"/>
<g filter="url(#filter4_dd_7647_1520)">
<path d="M131.217 63.4504C136.593 67.5113 138.475 70.4893 149.495 59.2091C151.645 57.0433 151.108 53.7043 143.94 52.8019C137.668 51.9897 133.009 52.8019 128.26 54.6067C128.26 54.6067 128.26 54.6067 128.171 54.5165C130.59 48.1996 131.038 41.7022 129.156 35.1145C128.44 32.7682 126.021 30.9634 124.229 32.678C112.491 43.7777 115.269 46.485 119.659 51.719C119.122 51.358 118.674 51.0873 118.226 50.8166C115.538 49.1922 109.983 48.6508 109.266 56.4116C109.176 57.675 109.176 59.0286 109.714 60.292C110.789 62.7285 113.477 62.8187 115.806 62.7285C118.136 62.6382 119.928 62.0066 121.899 61.1041C121.72 61.4651 121.72 61.6456 121.63 61.8261C120.376 64.8041 119.301 70.399 121.72 72.6551C123.064 73.8282 124.945 73.8282 126.648 73.738C128.081 73.6477 129.515 73.377 130.769 72.6551C132.651 71.5722 133.367 69.6771 133.099 67.6015C132.74 65.7065 131.844 64.5333 131.217 63.4504Z" fill="url(#paint8_linear_7647_1520)"/>
<path d="M131.217 63.4504C136.593 67.5113 138.475 70.4893 149.495 59.2091C151.645 57.0433 151.108 53.7043 143.94 52.8019C137.668 51.9897 133.009 52.8019 128.26 54.6067C128.26 54.6067 128.26 54.6067 128.171 54.5165C130.59 48.1996 131.038 41.7022 129.156 35.1145C128.44 32.7682 126.021 30.9634 124.229 32.678C112.491 43.7777 115.269 46.485 119.659 51.719C119.122 51.358 118.674 51.0873 118.226 50.8166C115.538 49.1922 109.983 48.6508 109.266 56.4116C109.176 57.675 109.176 59.0286 109.714 60.292C110.789 62.7285 113.477 62.8187 115.806 62.7285C118.136 62.6382 119.928 62.0066 121.899 61.1041C121.72 61.4651 121.72 61.6456 121.63 61.8261C120.376 64.8041 119.301 70.399 121.72 72.6551C123.064 73.8282 124.945 73.8282 126.648 73.738C128.081 73.6477 129.515 73.377 130.769 72.6551C132.651 71.5722 133.367 69.6771 133.099 67.6015C132.74 65.7065 131.844 64.5333 131.217 63.4504Z" fill="url(#paint9_linear_7647_1520)" fill-opacity="0.5"/>
<path d="M125.672 32.2549C125.245 32.2856 124.811 32.4665 124.401 32.8584L124.4 32.8594C121.472 35.6291 119.458 37.8668 118.15 39.7432C116.843 41.6196 116.253 43.1201 116.146 44.4189C116.039 45.7115 116.409 46.8357 117.085 47.9688C117.766 49.1104 118.747 50.2425 119.851 51.5586L119.52 51.9268C118.988 51.5695 118.545 51.301 118.097 51.0303C116.794 50.2428 114.811 49.7314 113.089 50.3311C111.398 50.9199 109.869 52.6143 109.516 56.4287V56.4297C109.432 57.607 109.431 58.8256 109.854 59.9668L109.944 60.1943C110.446 61.3279 111.317 61.9178 112.359 62.2178C113.415 62.5213 114.633 62.5236 115.797 62.4785C118.08 62.39 119.838 61.7728 121.795 60.877L122.437 60.583L122.123 61.2148C122.042 61.3786 122.002 61.5004 121.971 61.6045C121.943 61.6984 121.913 61.8115 121.86 61.9219V61.9229C121.243 63.3892 120.668 65.5051 120.547 67.5264C120.425 69.562 120.767 71.4228 121.89 72.4707C123.147 73.5642 124.922 73.5789 126.633 73.4883H126.632C128.047 73.3992 129.438 73.1331 130.645 72.4385C132.312 71.4789 133.019 69.8485 132.888 68.0049L132.851 67.6338C132.501 65.8013 131.641 64.6815 131.001 63.5762L131.368 63.251C132.728 64.278 133.831 65.2086 134.922 65.874C136.001 66.5323 137.033 66.9076 138.224 66.833C139.421 66.758 140.814 66.2265 142.604 64.9961C144.395 63.7659 146.566 61.8496 149.316 59.0342L149.317 59.0332L149.502 58.8369C150.383 57.8429 150.635 56.6804 150 55.6641C149.301 54.5458 147.475 53.4988 143.909 53.0498H143.908C137.681 52.2434 133.063 53.0493 128.35 54.8408L128.34 54.8438L128.261 54.6064C128.34 54.8436 128.208 54.8509 128.091 54.79C128.09 54.7892 128.088 54.7881 128.087 54.7871L128.084 54.7842V54.7832H128.083L128.082 54.7812L127.993 54.6924L127.88 54.5781L127.938 54.4268C130.338 48.158 130.781 41.7177 128.917 35.1875C128.574 34.0656 127.826 33.0837 126.971 32.5898C126.545 32.3443 126.102 32.224 125.672 32.2549Z" stroke="url(#paint10_linear_7647_1520)" stroke-opacity="0.2" stroke-width="0.5"/>
</g>
<defs>
<filter id="filter0_dd_7647_1520" x="40.0813" y="29.2935" width="139.464" height="108.473" filterUnits="userSpaceOnUse" color-interpolation-filters="sRGB">
<feFlood flood-opacity="0" result="BackgroundImageFix"/>
<feColorMatrix in="SourceAlpha" type="matrix" values="0 0 0 0 0 0 0 0 0 0 0 0 0 0 0 0 0 0 127 0" result="hardAlpha"/>
<feOffset dy="4"/>
<feGaussianBlur stdDeviation="8"/>
<feComposite in2="hardAlpha" operator="out"/>
<feColorMatrix type="matrix" values="0 0 0 0 0 0 0 0 0 0 0 0 0 0 0 0 0 0 0.16 0"/>
<feBlend mode="normal" in2="BackgroundImageFix" result="effect1_dropShadow_7647_1520"/>
<feColorMatrix in="SourceAlpha" type="matrix" values="0 0 0 0 0 0 0 0 0 0 0 0 0 0 0 0 0 0 127 0" result="hardAlpha"/>
<feOffset dy="1"/>
<feGaussianBlur stdDeviation="0.5"/>
<feComposite in2="hardAlpha" operator="out"/>
<feColorMatrix type="matrix" values="0 0 0 0 0 0 0 0 0 0 0 0 0 0 0 0 0 0 0.08 0"/>
<feBlend mode="normal" in2="effect1_dropShadow_7647_1520" result="effect2_dropShadow_7647_1520"/>
<feBlend mode="normal" in="SourceGraphic" in2="effect2_dropShadow_7647_1520" result="shape"/>
</filter>
<filter id="filter1_dd_7647_1520" x="132.221" y="87" width="60" height="60" filterUnits="userSpaceOnUse" color-interpolation-filters="sRGB">
<feFlood flood-opacity="0" result="BackgroundImageFix"/>
<feColorMatrix in="SourceAlpha" type="matrix" values="0 0 0 0 0 0 0 0 0 0 0 0 0 0 0 0 0 0 127 0" result="hardAlpha"/>
<feOffset/>
<feGaussianBlur stdDeviation="12"/>
<feComposite in2="hardAlpha" operator="out"/>
<feColorMatrix type="matrix" values="0 0 0 0 0.98415 0 0 0 0 0.859671 0 0 0 0 0.486234 0 0 0 1 0"/>
<feBlend mode="normal" in2="BackgroundImageFix" result="effect1_dropShadow_7647_1520"/>
<feColorMatrix in="SourceAlpha" type="matrix" values="0 0 0 0 0 0 0 0 0 0 0 0 0 0 0 0 0 0 127 0" result="hardAlpha"/>
<feOffset dy="2"/>
<feGaussianBlur stdDeviation="4"/>
<feComposite in2="hardAlpha" operator="out"/>
<feColorMatrix type="matrix" values="0 0 0 0 0 0 0 0 0 0 0 0 0 0 0 0 0 0 0.08 0"/>
<feBlend mode="normal" in2="effect1_dropShadow_7647_1520" result="effect2_dropShadow_7647_1520"/>
<feBlend mode="normal" in="SourceGraphic" in2="effect2_dropShadow_7647_1520" result="shape"/>
</filter>
<filter id="filter2_dd_7647_1520" x="132.221" y="87" width="60" height="60" filterUnits="userSpaceOnUse" color-interpolation-filters="sRGB">
<feFlood flood-opacity="0" result="BackgroundImageFix"/>
<feColorMatrix in="SourceAlpha" type="matrix" values="0 0 0 0 0 0 0 0 0 0 0 0 0 0 0 0 0 0 127 0" result="hardAlpha"/>
<feOffset/>
<feGaussianBlur stdDeviation="12"/>
<feComposite in2="hardAlpha" operator="out"/>
<feColorMatrix type="matrix" values="0 0 0 0 0.98415 0 0 0 0 0.859671 0 0 0 0 0.486234 0 0 0 1 0"/>
<feBlend mode="normal" in2="BackgroundImageFix" result="effect1_dropShadow_7647_1520"/>
<feColorMatrix in="SourceAlpha" type="matrix" values="0 0 0 0 0 0 0 0 0 0 0 0 0 0 0 0 0 0 127 0" result="hardAlpha"/>
<feOffset dy="2"/>
<feGaussianBlur stdDeviation="4"/>
<feComposite in2="hardAlpha" operator="out"/>
<feColorMatrix type="matrix" values="0 0 0 0 0 0 0 0 0 0 0 0 0 0 0 0 0 0 0.08 0"/>
<feBlend mode="normal" in2="effect1_dropShadow_7647_1520" result="effect2_dropShadow_7647_1520"/>
<feBlend mode="normal" in="SourceGraphic" in2="effect2_dropShadow_7647_1520" result="shape"/>
</filter>
<filter id="filter3_dd_7647_1520" x="38.2207" y="27" width="140.481" height="112.874" filterUnits="userSpaceOnUse" color-interpolation-filters="sRGB">
<feFlood flood-opacity="0" result="BackgroundImageFix"/>
<feColorMatrix in="SourceAlpha" type="matrix" values="0 0 0 0 0 0 0 0 0 0 0 0 0 0 0 0 0 0 127 0" result="hardAlpha"/>
<feOffset dx="2" dy="6"/>
<feGaussianBlur stdDeviation="8"/>
<feComposite in2="hardAlpha" operator="out"/>
<feColorMatrix type="matrix" values="0 0 0 0 0 0 0 0 0 0 0 0 0 0 0 0 0 0 0.24 0"/>
<feBlend mode="normal" in2="BackgroundImageFix" result="effect1_dropShadow_7647_1520"/>
<feColorMatrix in="SourceAlpha" type="matrix" values="0 0 0 0 0 0 0 0 0 0 0 0 0 0 0 0 0 0 127 0" result="hardAlpha"/>
<feOffset dy="1"/>
<feGaussianBlur stdDeviation="1"/>
<feComposite in2="hardAlpha" operator="out"/>
<feColorMatrix type="matrix" values="0 0 0 0 0 0 0 0 0 0 0 0 0 0 0 0 0 0 0.24 0"/>
<feBlend mode="normal" in2="effect1_dropShadow_7647_1520" result="effect2_dropShadow_7647_1520"/>
<feBlend mode="normal" in="SourceGraphic" in2="effect2_dropShadow_7647_1520" result="shape"/>
</filter>
<filter id="filter4_dd_7647_1520" x="93.2214" y="20" width="73.3831" height="73.7729" filterUnits="userSpaceOnUse" color-interpolation-filters="sRGB">
<feFlood flood-opacity="0" result="BackgroundImageFix"/>
<feColorMatrix in="SourceAlpha" type="matrix" values="0 0 0 0 0 0 0 0 0 0 0 0 0 0 0 0 0 0 127 0" result="hardAlpha"/>
<feOffset dy="4"/>
<feGaussianBlur stdDeviation="8"/>
<feComposite in2="hardAlpha" operator="out"/>
<feColorMatrix type="matrix" values="0 0 0 0 0 0 0 0 0 0 0 0 0 0 0 0 0 0 0.23 0"/>
<feBlend mode="normal" in2="BackgroundImageFix" result="effect1_dropShadow_7647_1520"/>
<feColorMatrix in="SourceAlpha" type="matrix" values="0 0 0 0 0 0 0 0 0 0 0 0 0 0 0 0 0 0 127 0" result="hardAlpha"/>
<feOffset dy="1"/>
<feGaussianBlur stdDeviation="0.5"/>
<feComposite in2="hardAlpha" operator="out"/>
<feColorMatrix type="matrix" values="0 0 0 0 0 0 0 0 0 0 0 0 0 0 0 0 0 0 0.08 0"/>
<feBlend mode="normal" in2="effect1_dropShadow_7647_1520" result="effect2_dropShadow_7647_1520"/>
<feBlend mode="normal" in="SourceGraphic" in2="effect2_dropShadow_7647_1520" result="shape"/>
</filter>
<radialGradient id="paint0_radial_7647_1520" cx="0" cy="0" r="1" gradientUnits="userSpaceOnUse" gradientTransform="translate(163.721 119) rotate(-138.685) scale(104.514 70.8147)">
<stop offset="0.344591" stop-color="#FFF9E6"/>
<stop offset="1" stop-color="#959494"/>
</radialGradient>
<linearGradient id="paint1_linear_7647_1520" x1="158.721" y1="112" x2="165.221" y2="120.5" gradientUnits="userSpaceOnUse">
<stop stop-color="#FFE79E"/>
<stop offset="1" stop-color="#FFD452"/>
</linearGradient>
<linearGradient id="paint2_linear_7647_1520" x1="156.221" y1="117" x2="168.221" y2="117" gradientUnits="userSpaceOnUse">
<stop stop-color="#FFEAAA"/>
<stop offset="1" stop-color="#FFE7A1"/>
</linearGradient>
<linearGradient id="paint3_linear_7647_1520" x1="154.721" y1="37" x2="156.221" y2="47" gradientUnits="userSpaceOnUse">
<stop stop-color="#C2C2C2"/>
<stop offset="1" stop-color="#FFEFBF"/>
</linearGradient>
<linearGradient id="paint4_linear_7647_1520" x1="55.7687" y1="37" x2="62.2208" y2="47" gradientUnits="userSpaceOnUse">
<stop stop-color="#C2C2C2"/>
<stop offset="1" stop-color="#FFEFBF"/>
</linearGradient>
<linearGradient id="paint5_linear_7647_1520" x1="55.2208" y1="113" x2="63.2208" y2="113" gradientUnits="userSpaceOnUse">
<stop stop-color="#C2C2C2"/>
<stop offset="1" stop-color="#FFEFBF"/>
</linearGradient>
<linearGradient id="paint6_linear_7647_1520" x1="172.715" y1="117.561" x2="177.028" y2="136.768" gradientUnits="userSpaceOnUse">
<stop stop-color="#E3E3E2"/>
<stop offset="0.9964" stop-color="#BABABA"/>
</linearGradient>
<linearGradient id="paint7_linear_7647_1520" x1="165.043" y1="118.328" x2="176.388" y2="130.791" gradientUnits="userSpaceOnUse">
<stop stop-color="#DAC891"/>
<stop offset="1" stop-color="#AFAFAF"/>
</linearGradient>
<linearGradient id="paint8_linear_7647_1520" x1="168.71" y1="51.6915" x2="166.704" y2="81.1368" gradientUnits="userSpaceOnUse">
<stop offset="0.0036" stop-color="#C3C1C1"/>
<stop offset="1" stop-color="#F1E1B1"/>
</linearGradient>
<linearGradient id="paint9_linear_7647_1520" x1="136.305" y1="39.942" x2="125.604" y2="62.0948" gradientUnits="userSpaceOnUse">
<stop stop-color="#FFEAAA" stop-opacity="0"/>
<stop offset="1" stop-color="#FFDE7C"/>
</linearGradient>
<linearGradient id="paint10_linear_7647_1520" x1="156.995" y1="28.0617" x2="166.64" y2="35.95" gradientUnits="userSpaceOnUse">
<stop stop-color="#323232" stop-opacity="0"/>
<stop offset="1" stop-color="#F9CC45"/>
</linearGradient>
</defs>
</svg>
