<svg width="20" height="20" viewBox="0 0 20 20" fill="none" xmlns="http://www.w3.org/2000/svg">
<path d="M8.5 17C7.67157 17 7 16.3284 7 15.5V15H6.5C5.67157 15 5 14.3284 5 13.5V13H4C2.89543 13 2 12.1046 2 11V4C2 2.89543 2.89543 2 4 2H16C17.1046 2 18 2.89543 18 4V11C18 11.3616 17.9041 11.7007 17.7362 11.9934L17 10.5207V4C17 3.44772 16.5523 3 16 3H4C3.44772 3 3 3.44771 3 4V11C3 11.5523 3.44772 12 4 12H5.49C5.77166 12 6 12.2283 6 12.51V13.5C6 13.7761 6.22386 14 6.5 14H7.49C7.77166 14 8 14.2283 8 14.51V15.5C8 15.7761 8.22386 16 8.5 16H9.27052L9.21836 16.1044C9.07175 16.398 9.00457 16.703 9.00488 17H8.5ZM15 5.5V8.06117C14.6726 7.97907 14.3272 7.97961 14 8.06279V5.5C14 5.22386 14.2239 5 14.5 5C14.7761 5 15 5.22386 15 5.5ZM6 5.5C6 5.22386 5.77614 5 5.5 5C5.22386 5 5 5.22386 5 5.5V8.5C5 8.77614 5.22386 9 5.5 9C5.77614 9 6 8.77614 6 8.5V5.5ZM9 5.5C9 5.22386 8.77614 5 8.5 5C8.22386 5 8 5.22386 8 5.5V8.5C8 8.77614 8.22386 9 8.5 9C8.77614 9 9 8.77614 9 8.5V5.5ZM12 5.5C12 5.22386 11.7761 5 11.5 5C11.2239 5 11 5.22386 11 5.5V8.5C11 8.77614 11.2239 9 11.5 9C11.7761 9 12 8.77614 12 8.5V5.5ZM13.6029 9.55356L10.1068 16.552C9.77438 17.2174 10.2583 18 11.0022 18H17.9978C18.7419 18 19.2258 17.2171 18.893 16.5517L15.3935 9.55322C15.0246 8.81544 13.9716 8.81564 13.6029 9.55356ZM14.9983 11.4951V14.4974C14.9983 14.7738 14.7743 14.9978 14.4979 14.9978C14.2215 14.9978 13.9975 14.7738 13.9975 14.4974V11.4951C13.9975 11.2187 14.2215 10.9947 14.4979 10.9947C14.7743 10.9947 14.9983 11.2187 14.9983 11.4951ZM14.4979 16.9993C14.2215 16.9993 13.9975 16.7753 13.9975 16.499C13.9975 16.2226 14.2215 15.9986 14.4979 15.9986C14.7743 15.9986 14.9983 16.2226 14.9983 16.499C14.9983 16.7753 14.7743 16.9993 14.4979 16.9993Z" fill="#212121"/>
</svg>
