<svg width="32" height="32" viewBox="0 0 32 32" fill="none" xmlns="http://www.w3.org/2000/svg">
<path d="M27.834 18C26.8818 23.6754 21.9459 28 15.9999 28C10.0539 28 5.11796 23.6754 4.1658 18H3C2.44772 18 2 17.5523 2 17V15C2 14.4477 2.44772 14 3 14H4.1658C5.11796 8.32457 10.0539 4 15.9999 4C21.9459 4 26.8818 8.32457 27.834 14H28.9999C29.5522 14 29.9999 14.4477 29.9999 15V17C29.9999 17.5523 29.5522 18 28.9999 18H27.834ZM15.9999 26C21.5227 26 25.9999 21.5228 25.9999 16C25.9999 10.4772 21.5227 6 15.9999 6C10.477 6 5.99989 10.4772 5.99989 16C5.99989 21.5228 10.477 26 15.9999 26Z" fill="#212121"/>
<path d="M19.1578 13.3333L19.468 13.3333C19.4815 13.334 19.6384 13.3416 19.8299 13.4169C20.0428 13.5007 20.278 13.6582 20.4341 13.9746C20.5952 14.3012 20.9766 14.4281 21.286 14.2581C21.5954 14.088 21.7156 13.6855 21.5545 13.3589C20.8842 11.9998 19.5094 12 19.4735 12L19.1578 12C17.5882 12.0001 16.3158 13.3432 16.3158 15V17C16.3158 18.6569 17.5882 20 19.1579 20C20.7275 20 22 18.6569 22 17V16.3334C22 15.9652 21.7172 15.6667 21.3684 15.6667H19.4737C19.1249 15.6667 18.8421 15.9652 18.8421 16.3334C18.8421 16.7016 19.1249 17 19.4737 17H20.7368C20.7368 17.9205 20.0299 18.6667 19.1579 18.6667C18.2859 18.6667 17.579 17.9205 17.579 17V15C17.579 14.0795 18.2858 13.3334 19.1578 13.3333Z" fill="#212121"/>
<path d="M10.3207 12.584C10.3602 12.2504 10.6289 12 10.9474 12H14.4214C14.7702 12 15.0529 12.2985 15.0529 12.6667C15.0529 13.0348 14.7702 13.3333 14.4214 13.3333H11.5049L11.3548 14.6007L12.5317 14.4972C13.8889 14.3778 15.0529 15.5083 15.0529 16.9459V17.2357C15.0529 18.7623 13.8805 19.9999 12.4341 19.9999C11.5469 19.9999 10.9386 19.571 10.5662 19.1499C10.3833 18.9431 10.2559 18.7376 10.1736 18.5829C10.1321 18.505 10.1011 18.4383 10.0795 18.3883C10.0687 18.3632 10.0601 18.3422 10.0537 18.326L10.0458 18.3051L10.0429 18.2974L10.0418 18.2943L10.0413 18.293L10.0409 18.2917C9.91795 17.9471 10.083 17.5626 10.4094 17.4329C10.734 17.3039 11.0961 17.4757 11.221 17.8163C11.221 17.8163 11.2245 17.8252 11.2288 17.835C11.2373 17.8549 11.2524 17.8878 11.2747 17.9296C11.3197 18.0142 11.3904 18.1279 11.4896 18.2401C11.6816 18.4573 11.9744 18.6666 12.4341 18.6666C13.1828 18.6666 13.7898 18.0259 13.7898 17.2357V16.9459C13.7898 16.2884 13.2574 15.7713 12.6366 15.8259L10.684 15.9976C10.4944 16.0143 10.3077 15.9398 10.1759 15.7949C10.0441 15.6499 9.98127 15.45 10.0049 15.2506L10.3207 12.584Z" fill="#212121"/>
</svg>
