<svg width="48" height="48" viewBox="0 0 48 48" fill="none" xmlns="http://www.w3.org/2000/svg">
<path d="M24 40C31.8112 40 38.315 34.4026 39.7192 27H43C43.5523 27 44 26.5523 44 26V22C44 21.4477 43.5523 21 43 21H39.7192C38.315 13.5974 31.8112 8 24 8C16.1888 8 9.68501 13.5974 8.28079 21H5C4.44772 21 4 21.4477 4 22V26C4 26.5523 4.44772 27 5 27H8.28079C9.68501 34.4026 16.1888 40 24 40ZM17.2632 19H21.8951C22.3602 19 22.7372 19.3731 22.7372 19.8333C22.7372 20.2936 22.3602 20.6666 21.8951 20.6666H18.0066L17.8064 22.2509L19.3757 22.1215C21.1853 21.9723 22.7372 23.3854 22.7372 25.1824V25.5446C22.7372 27.4529 21.1739 28.9999 19.2455 28.9999C18.0625 28.9999 17.2515 28.4638 16.755 27.9374C16.5111 27.6788 16.3412 27.422 16.2314 27.2287C16.1761 27.1313 16.1348 27.0478 16.106 26.9854C16.0916 26.954 16.0802 26.9278 16.0717 26.9074L16.061 26.8814L16.0572 26.8718L16.0557 26.8679L16.0545 26.8646C15.8906 26.4339 16.1106 25.9533 16.5459 25.7911C16.9786 25.6299 17.4614 25.8446 17.628 26.2704L17.6314 26.2783L17.6384 26.2938C17.6498 26.3186 17.6699 26.3598 17.6996 26.412C17.7597 26.5178 17.8538 26.6599 17.9862 26.8002C18.2422 27.0716 18.6326 27.3332 19.2455 27.3332C20.2438 27.3332 21.053 26.5324 21.053 25.5446V25.1824C21.053 24.3605 20.3432 23.7141 19.5155 23.7824L16.912 23.9971C16.6591 24.0179 16.4102 23.9248 16.2345 23.7436C16.0588 23.5624 15.975 23.3124 16.0065 23.0633L16.4276 19.73C16.4802 19.3129 16.8385 19 17.2632 19ZM28.624 20.6666L28.2104 20.6667C27.0478 20.6667 26.1053 21.5994 26.1053 22.75V25.25C26.1053 26.4006 27.0478 27.3334 28.2105 27.3334C29.3732 27.3334 30.3158 26.4006 30.3158 25.25H28.6316C28.1665 25.25 27.7895 24.877 27.7895 24.4167C27.7895 23.9565 28.1665 23.5834 28.6316 23.5834H31.1579C31.623 23.5834 32 23.9565 32 24.4167V25.25C32 27.3211 30.3034 29 28.2105 29C26.1177 29 24.4211 27.3211 24.4211 25.25V22.75C24.4211 20.679 26.1176 19.0001 28.2104 19L28.6314 19C28.6792 19 30.5122 18.9997 31.406 20.6986C31.6208 21.1068 31.4605 21.6101 31.048 21.8226C30.6354 22.0351 30.1269 21.8765 29.9122 21.4683C29.7041 21.0727 29.3904 20.8759 29.1065 20.7712C28.8511 20.677 28.6419 20.6675 28.624 20.6666Z" fill="#212121"/>
</svg>
