<svg width="24" height="24" viewBox="0 0 24 24" fill="none" xmlns="http://www.w3.org/2000/svg">
<path d="M12 20.0001C15.7277 20.0001 18.86 17.4505 19.748 14H21C21.5523 14 22 13.5523 22 13V11C22 10.4477 21.5523 10 21 10H19.748C18.8599 6.54954 15.7277 4 12 4C8.27234 4 5.14014 6.54954 4.25204 10H3C2.44772 10 2 10.4477 2 11V13C2 13.5523 2.44772 14 3 14H4.25203C5.1401 17.4505 8.27232 20.0001 12 20.0001ZM7.78948 9H10.6845C10.9751 9 11.2108 9.22385 11.2108 9.49999C11.2108 9.77613 10.9751 9.99999 10.6845 9.99999H8.2541L8.12903 10.9505L9.10979 10.8729C10.2408 10.7834 11.2108 11.6313 11.2108 12.7094V12.9267C11.2108 14.0717 10.2337 14.9999 9.02845 14.9999C8.28909 14.9999 7.78217 14.6783 7.47186 14.3624C7.31943 14.2073 7.21328 14.0532 7.14463 13.9372C7.11005 13.8788 7.08423 13.8287 7.06624 13.7912C7.05722 13.7724 7.05011 13.7567 7.04479 13.7445L7.03813 13.7288L7.03577 13.7231L7.03483 13.7207L7.03442 13.7197L7.03405 13.7188C6.93163 13.4604 7.06913 13.172 7.34117 13.0747C7.61165 12.9779 7.91339 13.1068 8.0175 13.3623L8.02058 13.3691L8.02397 13.3763C8.03111 13.3911 8.0437 13.4159 8.06222 13.4472C8.09979 13.5107 8.15865 13.5959 8.24136 13.6801C8.40137 13.8429 8.64537 13.9999 9.02845 13.9999C9.65236 13.9999 10.1581 13.5194 10.1581 12.9267V12.7094C10.1581 12.2163 9.71449 11.8285 9.1972 11.8694L7.57002 11.9982C7.41196 12.0107 7.25639 11.9549 7.14657 11.8462C7.03675 11.7374 6.9844 11.5875 7.00407 11.438L7.26723 9.43798C7.30015 9.18777 7.52404 9 7.78948 9ZM14.89 9.99999L14.6315 10C13.9049 10 13.3158 10.5597 13.3158 11.25V12.75C13.3158 13.4404 13.9049 14 14.6316 14C15.3583 14 15.9474 13.4404 15.9474 12.75H14.8947C14.6041 12.75 14.3684 12.5262 14.3684 12.25C14.3684 11.9739 14.6041 11.75 14.8947 11.75H16.4737C16.7644 11.75 17 11.9739 17 12.25V12.75C17 13.9927 15.9396 15 14.6316 15C13.3235 15 12.2632 13.9927 12.2632 12.75V11.25C12.2632 10.0074 13.3235 9.00006 14.6315 9.00001L14.8946 9C14.9245 9 16.0701 8.99983 16.6288 10.0192C16.763 10.2641 16.6628 10.566 16.405 10.6935C16.1472 10.8211 15.8293 10.7259 15.6951 10.481C15.565 10.2436 15.369 10.1256 15.1916 10.0627C15.032 10.0062 14.9012 10.0005 14.89 9.99999Z" fill="#212121"/>
</svg>
