<svg width="20" height="20" viewBox="0 0 20 20" fill="none" xmlns="http://www.w3.org/2000/svg">
<path d="M10 16C12.6125 16 14.835 14.3304 15.6586 12H17C17.5523 12 18 11.5523 18 11V9C18 8.44772 17.5523 8 17 8H15.6586C14.8349 5.66961 12.6125 4 10 4C7.38758 4 5.1651 5.66961 4.34142 8H3C2.44772 8 2 8.44772 2 9V11C2 11.5523 2.44772 12 3 12H4.3414C5.16507 14.3304 7.38756 16 10 16ZM7.47369 8H9.21068C9.38508 8 9.52647 8.14924 9.52647 8.33333C9.52647 8.51742 9.38508 8.66666 9.21068 8.66666H7.75246L7.67742 9.30035L8.26587 9.2486C8.94447 9.18891 9.52647 9.75417 9.52647 10.4729V10.6178C9.52647 11.3812 8.94023 11.9999 8.21707 11.9999C7.77345 11.9999 7.4693 11.7855 7.28312 11.575C7.19166 11.4715 7.12797 11.3688 7.08678 11.2915C7.06603 11.2525 7.05054 11.2191 7.03974 11.1941C7.03433 11.1816 7.03006 11.1711 7.02687 11.163L7.02288 11.1526L7.02146 11.1487L7.0209 11.1472L7.02043 11.1459C6.95898 10.9736 7.04148 10.7813 7.2047 10.7165C7.36699 10.652 7.54803 10.7378 7.6105 10.9082L7.61438 10.9175C7.61866 10.9274 7.62622 10.9439 7.63733 10.9648C7.65987 11.0071 7.69519 11.0639 7.74482 11.1201C7.84082 11.2286 7.98722 11.3333 8.21707 11.3333C8.59142 11.3333 8.89489 11.013 8.89489 10.6178V10.4729C8.89489 10.1442 8.6287 9.88565 8.31832 9.91295L7.34201 9.99882C7.24718 10.0072 7.15383 9.96992 7.08794 9.89744C7.02205 9.82496 6.99064 9.72498 7.00244 9.6253L7.16034 8.29198C7.18009 8.12518 7.31443 8 7.47369 8ZM11.734 8.66666L11.5789 8.66666C11.1429 8.66668 10.7895 9.03977 10.7895 9.49999V10.5C10.7895 10.9603 11.1429 11.3333 11.5789 11.3333C12.015 11.3333 12.3684 10.9603 12.3684 10.5H11.7368C11.5624 10.5 11.4211 10.3508 11.4211 10.1667C11.4211 9.9826 11.5624 9.83336 11.7368 9.83336H12.6842C12.8586 9.83336 13 9.9826 13 10.1667V10.5C13 11.3284 12.3638 12 11.5789 12C10.7941 12 10.1579 11.3284 10.1579 10.5V9.49999C10.1579 8.67159 10.7941 8.00004 11.5789 8.00001L11.7368 8C11.7547 8 12.4421 7.99989 12.7773 8.67945C12.8578 8.84273 12.7977 9.04402 12.643 9.12903C12.4883 9.21404 12.2976 9.15059 12.2171 8.9873C12.139 8.82909 12.0214 8.75037 11.9149 8.70847C11.8192 8.67079 11.7407 8.66698 11.734 8.66666Z" fill="#212121"/>
</svg>
