<svg width="16" height="16" viewBox="0 0 16 16" fill="none" xmlns="http://www.w3.org/2000/svg">
<path d="M8 13C10.419 13 12.4367 11.2822 12.9 9H14C14.5523 9 15 8.55228 15 8C15 7.44772 14.5523 7 14 7H12.9C12.4367 4.71776 10.419 3 8 3C5.58104 3 3.56329 4.71776 3.10002 7H2C1.44772 7 1 7.44772 1 8C1 8.55228 1.44772 9 2 9H3.10002C3.56329 11.2822 5.58104 13 8 13ZM5.47369 6H7.21068C7.38508 6 7.52647 6.14924 7.52647 6.33333C7.52647 6.51742 7.38508 6.66666 7.21068 6.66666H5.75246L5.67742 7.30035L6.26587 7.2486C6.94447 7.18891 7.52647 7.75417 7.52647 8.47294V8.61783C7.52647 9.38115 6.94023 9.99995 6.21707 9.99995C5.77345 9.99995 5.4693 9.7855 5.28312 9.57496C5.19166 9.47153 5.12797 9.36881 5.08678 9.29147C5.06603 9.25251 5.05054 9.21913 5.03974 9.19414C5.03433 9.18162 5.03006 9.17112 5.02687 9.16298L5.02288 9.15255L5.02146 9.14872L5.0209 9.14717L5.02043 9.14586C4.95898 8.97357 5.04148 8.78132 5.2047 8.71646C5.36699 8.65196 5.54803 8.73784 5.6105 8.90817L5.61438 8.91752C5.61866 8.92743 5.62622 8.94392 5.63733 8.96479C5.65987 9.00711 5.69519 9.06394 5.74482 9.12007C5.84082 9.22863 5.98722 9.33329 6.21707 9.33329C6.59142 9.33329 6.89489 9.01297 6.89489 8.61783V8.47294C6.89489 8.14419 6.6287 7.88565 6.31832 7.91295L5.34201 7.99882C5.24718 8.00716 5.15383 7.96992 5.08794 7.89744C5.02205 7.82496 4.99064 7.72498 5.00244 7.6253L5.16034 6.29198C5.18009 6.12518 5.31443 6 5.47369 6ZM9.73401 6.66666L9.57892 6.66666C9.14292 6.66668 8.78948 7.03977 8.78948 7.49999V8.50002C8.78948 8.96025 9.14293 9.33334 9.57895 9.33334C10.015 9.33334 10.3684 8.96025 10.3684 8.50002H9.73684C9.56244 8.50002 9.42105 8.35078 9.42105 8.16669C9.42105 7.9826 9.56244 7.83336 9.73684 7.83336H10.6842C10.8586 7.83336 11 7.9826 11 8.16669V8.50002C11 9.32844 10.3638 10 9.57895 10C8.79412 10 8.1579 9.32844 8.1579 8.50002V7.49999C8.1579 6.67159 8.79409 6.00004 9.57889 6.00001L9.73676 6C9.7547 6 10.4421 5.99989 10.7773 6.67945C10.8578 6.84273 10.7977 7.04402 10.643 7.12903C10.4883 7.21404 10.2976 7.15059 10.2171 6.9873C10.139 6.82909 10.0214 6.75037 9.91494 6.70847C9.81918 6.67079 9.74073 6.66698 9.73401 6.66666Z" fill="#212121"/>
</svg>
