<svg width="12" height="12" viewBox="0 0 12 12" fill="none" xmlns="http://www.w3.org/2000/svg">
<path d="M5.1579 5C5.10481 5 5.06003 5.06259 5.05345 5.14599L5.00081 5.81265C4.99688 5.86249 5.00735 5.91248 5.02931 5.94872C5.05128 5.98496 5.08239 6.00358 5.11401 5.99941L5.43944 5.95648C5.5429 5.94283 5.63163 6.0721 5.63163 6.23647V6.30891C5.63163 6.50648 5.53047 6.66665 5.40569 6.66665C5.32907 6.66665 5.28027 6.61432 5.24827 6.56003C5.23173 6.53197 5.21996 6.50356 5.21244 6.4824C5.20874 6.47196 5.20622 6.46371 5.20479 6.45876L5.2035 6.45409C5.18268 6.36892 5.12233 6.32598 5.06823 6.35823C5.01383 6.39066 4.98633 6.48678 5.00681 6.57293L5.00715 6.57436L5.00763 6.57628L5.00896 6.58149L5.01325 6.59707C5.01685 6.60957 5.02201 6.62625 5.02893 6.64573C5.04266 6.6844 5.06389 6.73577 5.09437 6.78748C5.15643 6.89275 5.25782 6.99997 5.40569 6.99997C5.64674 6.99997 5.84216 6.69058 5.84216 6.30891V6.23647C5.84216 5.87709 5.64816 5.59446 5.42196 5.6243L5.22581 5.65018L5.25082 5.33333H5.73689C5.79503 5.33333 5.84216 5.25871 5.84216 5.16666C5.84216 5.07462 5.79503 5 5.73689 5H5.1579Z" fill="#212121"/>
<path d="M6.578 5.33333L6.52631 5.33333C6.38097 5.33334 6.26316 5.51988 6.26316 5.74999V6.25001C6.26316 6.48013 6.38098 6.66667 6.52632 6.66667C6.67165 6.66667 6.78947 6.48013 6.78947 6.25001H6.57895C6.52081 6.25001 6.47368 6.17539 6.47368 6.08334C6.47368 5.9913 6.52081 5.91668 6.57895 5.91668H6.89474C6.95287 5.91668 7 5.9913 7 6.08334V6.25001C7 6.66422 6.78792 7 6.52632 7C6.26471 7 6.05263 6.66422 6.05263 6.25001V5.74999C6.05263 5.3358 6.2647 5.00002 6.5263 5L6.57892 5C6.58497 5 6.81405 5 6.92575 5.33972C6.9526 5.42137 6.93256 5.52201 6.881 5.56452C6.82943 5.60702 6.76587 5.57529 6.73902 5.49365C6.71301 5.41454 6.6738 5.37518 6.63831 5.35424C6.60639 5.33539 6.58024 5.33349 6.578 5.33333Z" fill="#212121"/>
<path d="M3.17069 7C3.58253 8.16522 4.69378 9.00005 6.00003 9.00005C7.30627 9.00005 8.41753 8.16522 8.82936 7H10C10.5523 7 11 6.55228 11 6C11 5.44772 10.5523 5 10 5H8.82934C8.41749 3.83481 7.30625 3 6.00003 3C4.6938 3 3.58256 3.83481 3.17071 5H2C1.44772 5 1 5.44772 1 6C1 6.55228 1.44772 7 2 7H3.17069ZM6.00003 8.00005C4.89544 8.00005 4 7.10461 4 6.00003C4 4.89544 4.89544 4 6.00003 4C7.09973 4 7.99213 4.88754 8 5.98539V6.01466C7.99213 7.11251 7.09973 8.00005 6.00003 8.00005Z" fill="#212121"/>
</svg>
