<svg width="20" height="20" viewBox="0 0 20 20" fill="none" xmlns="http://www.w3.org/2000/svg">
<path fill-rule="evenodd" clip-rule="evenodd" d="M8 7.27959C8 6.53822 7.68483 5.95286 7.19503 5.56112C6.71672 5.17856 6.09813 5.00001 5.50001 5C4.90189 4.99999 4.28329 5.17852 3.80497 5.56107C3.31517 5.9528 3 6.53816 3 7.27954C3 8.04982 3.3195 8.60481 3.7829 9.02218C4.21068 9.40747 4.76528 9.67679 5.24299 9.90879L5.27422 9.92396C5.78959 10.1743 6.22003 10.3875 6.5329 10.6693C6.81949 10.9274 6.99999 11.2375 7 11.7117C7.00001 12.1738 6.81445 12.4905 6.55408 12.6998C6.28239 12.9181 5.90132 13.0399 5.50005 13.0399C5.09877 13.0399 4.71769 12.9181 4.44598 12.6998C4.18559 12.4905 4.00001 12.1738 4 11.7116C3.99999 11.4465 3.77613 11.2316 3.49999 11.2316C3.22385 11.2316 2.99999 11.4466 3 11.7117C3.00002 12.4551 3.31446 13.0425 3.80409 13.436C4.2824 13.8204 4.90132 14 5.50005 14C6.09877 14 6.71769 13.8204 7.19598 13.436C7.6856 13.0425 8.00002 12.4551 8 11.7116C7.99998 10.9414 7.68046 10.3864 7.21705 9.96907C6.78929 9.58383 6.23473 9.31451 5.75704 9.08253L5.72573 9.06732C5.21037 8.81695 4.77993 8.60376 4.46708 8.32199C4.1805 8.06388 4 7.75372 4 7.27954C4 6.82122 4.18483 6.50681 4.44503 6.29872C4.71671 6.08143 5.09811 5.96006 5.49999 5.96007C5.90187 5.96007 6.28328 6.08146 6.55497 6.29876C6.81517 6.50687 7 6.82128 7 7.27959C7 7.5447 7.22386 7.75962 7.5 7.75962C7.77614 7.75962 8 7.5447 8 7.27959ZM10 5C10.2761 5 10.5 5.21492 10.5 5.48003V13.52C10.5 13.7851 10.2761 14 10 14C9.72386 14 9.5 13.7851 9.5 13.52V5.48003C9.5 5.21492 9.72386 5 10 5ZM12 5.57604C12 5.2579 12.2686 5 12.6 5H14.5464C15.3554 5 15.9867 5.33495 16.4041 5.84267C16.8112 6.33783 17 6.97615 17 7.59218C17 8.20821 16.8112 8.84653 16.4041 9.34169C15.9867 9.84941 15.3554 10.1844 14.5464 10.1844H13V13.52C13 13.7851 12.7761 14 12.5 14C12.2239 14 12 13.7851 12 13.52V9.70433V5.57604ZM13 9.22429H14.5464C15.0398 9.22429 15.3854 9.03121 15.6191 8.74687C15.8632 8.44998 16 8.03223 16 7.59218C16 7.15213 15.8632 6.73438 15.6191 6.43749C15.3854 6.15315 15.0398 5.96007 14.5464 5.96007H13V9.22429Z" fill="#212121"/>
</svg>
