<svg width="20" height="20" viewBox="0 0 20 20" fill="none" xmlns="http://www.w3.org/2000/svg">
<path fill-rule="evenodd" clip-rule="evenodd" d="M8 7.62438C8 6.77846 7.65224 6.09821 7.10505 5.64236C6.57507 5.20086 5.89719 5 5.25 5C4.60282 5 3.92493 5.20084 3.39496 5.64234C2.84775 6.09819 2.5 6.77846 2.5 7.62438C2.5 8.50518 2.85569 9.14366 3.37051 9.61164C3.8284 10.0279 4.4145 10.3071 4.8834 10.5305L4.8834 10.5305L4.92713 10.5514C5.45137 10.8014 5.84275 10.9947 6.12052 11.2472C6.35569 11.4609 6.49999 11.709 6.5 12.1244C6.50001 12.5325 6.34666 12.7919 6.14361 12.9619C5.92357 13.1461 5.60195 13.2579 5.25005 13.2579C4.89814 13.2579 4.57651 13.1461 4.35645 12.9619C4.15337 12.7919 4.00001 12.5324 4 12.1244C3.99999 11.7102 3.6642 11.3744 3.24998 11.3744C2.83577 11.3744 2.49999 11.7102 2.5 12.1244C2.50002 12.972 2.84668 13.6543 3.39362 14.1121C3.92357 14.5557 4.60195 14.7579 5.25005 14.7579C5.89814 14.7579 6.57651 14.5557 7.10646 14.1121C7.65339 13.6543 8.00002 12.972 8 12.1244C7.99998 11.2436 7.64427 10.6051 7.12943 10.1372C6.67156 9.72101 6.08548 9.44175 5.61661 9.21834L5.57282 9.19747C5.04859 8.94746 4.65722 8.75415 4.37947 8.50167C4.14431 8.28791 4 8.03981 4 7.62438C4 7.22071 4.15225 6.96378 4.35504 6.79483C4.57507 6.61154 4.89718 6.5 5.25 6.5C5.60281 6.5 5.92493 6.61155 6.14495 6.79484C6.34776 6.96379 6.5 7.22072 6.5 7.62438C6.5 8.03859 6.83579 8.37438 7.25 8.37438C7.66421 8.37438 8 8.03859 8 7.62438ZM10 5C10.4142 5 10.75 5.33579 10.75 5.75V14C10.75 14.4142 10.4142 14.75 10 14.75C9.58579 14.75 9.25 14.4142 9.25 14V5.75C9.25 5.33579 9.58579 5 10 5ZM12.5 5.85C12.5 5.38056 12.8806 5 13.35 5H15.2964C16.1924 5 16.8961 5.40024 17.3563 5.99908C17.8007 6.57733 18 7.31171 18 8.00951C18 8.7073 17.8007 9.44168 17.3563 10.0199C16.8961 10.6188 16.1924 11.019 15.2964 11.019H14V14C14 14.4142 13.6642 14.75 13.25 14.75C12.8358 14.75 12.5 14.4142 12.5 14V10.269V5.85ZM14 9.51901H15.2964C15.7029 9.51901 15.976 9.35438 16.1669 9.1059C16.3737 8.83684 16.5 8.44146 16.5 8.00951C16.5 7.57755 16.3737 7.18217 16.1669 6.91312C15.976 6.66464 15.7029 6.5 15.2964 6.5H14V9.51901Z" fill="#212121"/>
</svg>
