<svg width="20" height="20" viewBox="0 0 20 20" fill="none" xmlns="http://www.w3.org/2000/svg">
<path d="M4 5C4 3.34315 5.34315 2 7 2H10.4645C11.2601 2 12.0232 2.31607 12.5858 2.87868L15.1213 5.41421C15.6839 5.97682 16 6.73988 16 7.53553V15C16 16.6569 14.6569 18 13 18H7C5.34315 18 4 16.6569 4 15V5ZM7 4.5C7 4.22386 6.77614 4 6.5 4C6.22386 4 6 4.22386 6 4.5V7.5C6 7.77614 6.22386 8 6.5 8C6.77614 8 7 7.77614 7 7.5V4.5ZM9 4.5C9 4.22386 8.77614 4 8.5 4C8.22386 4 8 4.22386 8 4.5V7.5C8 7.77614 8.22386 8 8.5 8C8.77614 8 9 7.77614 9 7.5V4.5ZM11 4.5C11 4.22386 10.7761 4 10.5 4C10.2239 4 10 4.22386 10 4.5V7.5C10 7.77614 10.2239 8 10.5 8C10.7761 8 11 7.77614 11 7.5V4.5Z" fill="#242424"/>
</svg>
