<svg width="24" height="24" viewBox="0 0 24 24" fill="none" xmlns="http://www.w3.org/2000/svg">
<path d="M4 5.25C4 3.45507 5.45507 2 7.25 2H12.7145C13.5764 2 14.4031 2.34241 15.0126 2.9519L19.0481 6.98744C19.6576 7.59693 20 8.42358 20 9.28553V18.75C20 20.5449 18.5449 22 16.75 22H7.25C5.45507 22 4 20.5449 4 18.75V5.25ZM7.25 3.5C6.2835 3.5 5.5 4.2835 5.5 5.25V18.75C5.5 19.7165 6.2835 20.5 7.25 20.5H16.75C17.7165 20.5 18.5 19.7165 18.5 18.75V9.28553C18.5 8.82141 18.3156 8.37629 17.9874 8.0481L13.9519 4.01256C13.6237 3.68437 13.1786 3.5 12.7145 3.5H7.25ZM8.5 5.75C8.5 5.33579 8.16421 5 7.75 5C7.33579 5 7 5.33579 7 5.75V9.24645C7 9.66066 7.33579 9.99645 7.75 9.99645C8.16421 9.99645 8.5 9.66066 8.5 9.24645V5.75ZM11.5 5.75C11.5 5.33579 11.1642 5 10.75 5C10.3358 5 10 5.33579 10 5.75V9.24645C10 9.66066 10.3358 9.99645 10.75 9.99645C11.1642 9.99645 11.5 9.66066 11.5 9.24645V5.75ZM14.5 5.75C14.5 5.33579 14.1642 5 13.75 5C13.3358 5 13 5.33579 13 5.75V9.24645C13 9.66066 13.3358 9.99645 13.75 9.99645C14.1642 9.99645 14.5 9.66066 14.5 9.24645V5.75Z" fill="#212121"/>
</svg>
