<svg width="24" height="24" viewBox="0 0 24 24" fill="none" xmlns="http://www.w3.org/2000/svg">
<path d="M4 5.25C4 3.45507 5.45507 2 7.25 2H12.7145C13.5764 2 14.4031 2.34241 15.0126 2.9519L19.0481 6.98744C19.6576 7.59693 20 8.42358 20 9.28553V18.75C20 20.5449 18.5449 22 16.75 22H7.25C5.45507 22 4 20.5449 4 18.75V5.25ZM8 5.75C8 5.33579 7.66421 5 7.25 5C6.83579 5 6.5 5.33579 6.5 5.75V9.24645C6.5 9.66066 6.83579 9.99645 7.25 9.99645C7.66421 9.99645 8 9.66066 8 9.24645V5.75ZM11 5.75C11 5.33579 10.6642 5 10.25 5C9.83579 5 9.5 5.33579 9.5 5.75V9.24645C9.5 9.66066 9.83579 9.99645 10.25 9.99645C10.6642 9.99645 11 9.66066 11 9.24645V5.75ZM14 5.75C14 5.33579 13.6642 5 13.25 5C12.8358 5 12.5 5.33579 12.5 5.75V9.24645C12.5 9.66066 12.8358 9.99645 13.25 9.99645C13.6642 9.99645 14 9.66066 14 9.24645V5.75Z" fill="#242424"/>
</svg>
