<svg width="20" height="20" viewBox="0 0 20 20" fill="none" xmlns="http://www.w3.org/2000/svg">
<path d="M1.91075 7.38266C2.28004 6.24053 2.88839 5.19213 3.69109 4.30364C3.82683 4.15339 4.03978 4.09984 4.23044 4.16802L6.14873 4.85392C6.6688 5.03977 7.24107 4.76883 7.42692 4.24875C7.4452 4.19762 7.45927 4.14507 7.469 4.09173L7.83446 2.08573C7.8708 1.88627 8.02398 1.7285 8.22227 1.6863C8.80246 1.5628 9.39734 1.5 10 1.5C10.6023 1.5 11.1968 1.56273 11.7767 1.68607C11.9749 1.72824 12.1281 1.88591 12.1645 2.08529L12.531 4.09165C12.6301 4.63497 13.1509 4.9951 13.6942 4.89601C13.7476 4.88627 13.8002 4.87219 13.8512 4.85395L15.7696 4.16802C15.9602 4.09984 16.1732 4.15339 16.3089 4.30364C17.1116 5.19213 17.72 6.24053 18.0893 7.38266C18.1516 7.57534 18.0915 7.78658 17.9371 7.91764L16.4761 9.15805L16.067 8.19362L17.0287 7.37709C16.7367 6.59486 16.3152 5.86783 15.7838 5.22494L14.1878 5.79559C14.0855 5.83214 13.9804 5.8603 13.8736 5.87979C12.787 6.07796 11.7454 5.3577 11.5473 4.27119L11.2424 2.60235C10.8348 2.53443 10.4197 2.5 10 2.5C9.58 2.5 9.16465 2.53448 8.75678 2.60249L8.45279 4.27105C8.43331 4.37791 8.40515 4.48299 8.3686 4.58527C7.99689 5.62542 6.85236 6.1673 5.81213 5.79556L4.21623 5.22494C3.6848 5.86783 3.26335 6.59486 2.9713 7.37709L4.26499 8.47546C4.34778 8.54576 4.42471 8.62269 4.49501 8.70548C5.20995 9.54746 5.10697 10.8096 4.26497 11.5246L2.9713 12.6229C3.26335 13.4051 3.6848 14.1322 4.21623 14.7751L5.81221 14.2044C5.91449 14.1679 6.01958 14.1397 6.12643 14.1202C7.21307 13.922 8.25462 14.6423 8.45281 15.729L8.75678 17.3975C8.84159 17.4117 8.92674 17.4244 9.01218 17.4356L8.60871 18.3866C8.47923 18.3653 8.35039 18.341 8.22227 18.3137C8.02398 18.2715 7.8708 18.1137 7.83446 17.9143L7.46902 15.9084C7.36993 15.365 6.84916 15.0049 6.30583 15.104C6.25241 15.1137 6.19987 15.1278 6.14881 15.1461L4.23044 15.832C4.03978 15.9002 3.82683 15.8466 3.69109 15.6964C2.88839 14.8079 2.28004 13.7595 1.91075 12.6173C1.84845 12.4247 1.90852 12.2134 2.06289 12.0824L3.61773 10.7623C4.03872 10.4048 4.09021 9.77373 3.73274 9.35274C3.69759 9.31135 3.65913 9.27288 3.61775 9.23775L2.06289 7.91764C1.90852 7.78658 1.84845 7.57534 1.91075 7.38266ZM10 7.5C11.1705 7.5 12.1531 8.30442 12.4252 9.39058L11.2473 12.1671C10.8802 12.3789 10.4542 12.5 10 12.5C8.6193 12.5 7.50001 11.3807 7.50001 10C7.50001 8.61929 8.6193 7.5 10 7.5ZM8.50001 10C8.50001 10.8284 9.17159 11.5 10 11.5C10.8284 11.5 11.5 10.8284 11.5 10C11.5 9.17157 10.8284 8.5 10 8.5C9.17159 8.5 8.50001 9.17157 8.50001 10ZM14.5005 8.5C14.7016 8.50001 14.8832 8.62058 14.9613 8.80598L18.961 18.306C19.0681 18.5605 18.9487 18.8537 18.6941 18.9608C18.4396 19.068 18.1465 18.9485 18.0393 18.694L16.4841 15H12.5165L10.9609 18.694C10.8538 18.9485 10.5606 19.068 10.3061 18.9608C10.0516 18.8536 9.93215 18.5605 10.0393 18.306L14.0396 8.80596C14.1177 8.62055 14.2993 8.49999 14.5005 8.5ZM12.9375 14H16.063L14.5004 10.2885L12.9375 14Z" fill="#242424"/>
</svg>
