<svg width="28" height="28" viewBox="0 0 28 28" fill="none" xmlns="http://www.w3.org/2000/svg">
<path d="M14 14C14.654 14 15.1842 13.4699 15.1842 12.8159C15.1842 12.1619 14.654 11.6317 14 11.6317C13.346 11.6317 12.8158 12.1619 12.8158 12.8159C12.8158 13.4699 13.346 14 14 14Z" fill="#212121"/>
<path d="M9.26335 14.0001C9.91734 14.0001 10.4475 13.4699 10.4475 12.8159C10.4475 12.1619 9.91734 11.6318 9.26335 11.6318C8.60936 11.6318 8.07919 12.1619 8.07919 12.8159C8.07919 13.4699 8.60936 14.0001 9.26335 14.0001Z" fill="#212121"/>
<path d="M19.9208 12.8159C19.9208 13.4699 19.3906 14 18.7366 14C18.0826 14 17.5525 13.4699 17.5525 12.8159C17.5525 12.1619 18.0826 11.6317 18.7366 11.6317C19.3906 11.6317 19.9208 12.1619 19.9208 12.8159Z" fill="#212121"/>
<path d="M14.0162 3.18436C13.9308 3.18436 13.8456 3.18507 13.7606 3.18647C13.7123 3.18281 13.6637 3.18383 13.6155 3.18956C7.36037 3.35242 2.03231 7.38237 2.03231 12.6772C2.03231 15.1883 3.25401 17.4358 5.1848 19.1012L2.08859 24.8959C1.92308 25.2057 1.99455 25.5889 2.26063 25.8181C2.5267 26.0474 2.9162 26.0614 3.1981 25.8519L9.21568 21.3802C10.6882 21.8892 12.3125 22.1701 14.0162 22.1701C20.4488 22.1701 26.0001 18.0842 26.0001 12.6772C26.0001 7.27023 20.4488 3.18436 14.0162 3.18436ZM13.7269 4.68826C13.823 4.68627 13.9195 4.68527 14.0162 4.68527C19.9918 4.68527 24.4992 8.42762 24.4992 12.6772C24.4992 16.9268 19.9918 20.6692 14.0162 20.6692C12.3394 20.6692 10.7588 20.3679 9.35869 19.8356C9.11928 19.7446 8.84998 19.782 8.64441 19.9348L4.99022 22.6502L6.80006 19.263C6.97326 18.9389 6.88621 18.537 6.5944 18.3135C4.66797 16.8384 3.53322 14.8365 3.53322 12.6772C3.53322 8.50054 7.88259 4.81604 13.7112 4.6886L13.7191 4.68839L13.7269 4.68826Z" fill="#212121"/>
</svg>
