<svg width="28" height="28" viewBox="0 0 28 28" fill="none" xmlns="http://www.w3.org/2000/svg">
<path d="M13.7516 3.20218C13.8396 3.2007 13.9278 3.19995 14.0163 3.19995C17.2804 3.19995 20.2574 4.21472 22.4311 5.88302C24.6054 7.55179 26 9.89909 26 12.537C26 15.175 24.6054 17.5223 22.4311 19.1911C20.2574 20.8594 17.2804 21.8741 14.0163 21.8741C12.2883 21.8741 10.6427 21.5899 9.15462 21.0761L2.96773 25.874C2.74501 26.0468 2.43209 26.0412 2.21567 25.8606C1.99925 25.6801 1.93767 25.3732 2.06767 25.1232L5.28333 18.9374C3.29205 17.2883 2.03256 15.0441 2.03256 12.537C2.03256 7.34964 7.33751 3.3626 13.6233 3.20487C13.6659 3.19938 13.7089 3.19849 13.7516 3.20218ZM9.10897 13.8591C9.76256 13.8591 10.2924 13.3293 10.2924 12.6757C10.2924 12.0221 9.76256 11.4923 9.10897 11.4923C8.45537 11.4923 7.92553 12.0221 7.92553 12.6757C7.92553 13.3293 8.45537 13.8591 9.10897 13.8591ZM13.8427 13.8591C14.4963 13.8591 15.0262 13.3293 15.0262 12.6757C15.0262 12.0221 14.4963 11.4923 13.8427 11.4923C13.1891 11.4923 12.6593 12.0221 12.6593 12.6757C12.6593 13.3293 13.1891 13.8591 13.8427 13.8591ZM19.7599 12.6757C19.7599 12.0221 19.2301 11.4923 18.5765 11.4923C17.9229 11.4923 17.393 12.0221 17.393 12.6757C17.393 13.3293 17.9229 13.8591 18.5765 13.8591C19.2301 13.8591 19.7599 13.3293 19.7599 12.6757Z" fill="#212121"/>
</svg>
