<svg width="16" height="16" viewBox="0 0 16 16" fill="none" xmlns="http://www.w3.org/2000/svg">
<path d="M5.26289 7.96944C5.64095 7.96944 5.94743 7.66166 5.94743 7.282C5.94743 6.90234 5.64095 6.59457 5.26289 6.59457C4.88483 6.59457 4.57835 6.90234 4.57835 7.282C4.57835 7.66166 4.88483 7.96944 5.26289 7.96944Z" fill="#212121"/>
<path d="M8.00103 7.96944C8.37909 7.96944 8.68557 7.66166 8.68557 7.282C8.68557 6.90234 8.37909 6.59457 8.00103 6.59457C7.62297 6.59457 7.31649 6.90234 7.31649 7.282C7.31649 7.66166 7.62297 7.96944 8.00103 7.96944Z" fill="#212121"/>
<path d="M11.4237 7.282C11.4237 7.66166 11.1172 7.96944 10.7391 7.96944C10.3611 7.96944 10.0546 7.66166 10.0546 7.282C10.0546 6.90234 10.3611 6.59457 10.7391 6.59457C11.1172 6.59457 11.4237 6.90234 11.4237 7.282Z" fill="#212121"/>
<path d="M8.01073 1.62622C7.96179 1.62622 7.91296 1.62662 7.86425 1.62742C7.83413 1.62533 7.80386 1.62597 7.77381 1.62935C4.13723 1.72592 1.01686 4.08175 1.01686 7.20142C1.01686 8.66362 1.71726 9.97149 2.82283 10.945L1.0563 14.2652C0.947626 14.4694 0.993265 14.7216 1.16664 14.8747C1.34001 15.0279 1.59583 15.0422 1.78513 14.9092L5.3932 12.3744C6.20326 12.6343 7.08713 12.7766 8.01073 12.7766C11.7516 12.7766 15.0046 10.3883 15.0046 7.20142C15.0046 4.01458 11.7516 1.62622 8.01073 1.62622ZM7.84441 2.62796C7.89966 2.6268 7.9551 2.62622 8.01073 2.62622C11.4428 2.62622 14.0046 4.78235 14.0046 7.20142C14.0046 9.62049 11.4428 11.7766 8.01073 11.7766C7.10478 11.7766 6.24827 11.6226 5.48158 11.3486C5.32868 11.294 5.15876 11.317 5.0259 11.4103L2.92134 12.8888L3.89762 11.0539C4.0123 10.8384 3.95456 10.5716 3.76103 10.4227C2.66041 9.5763 2.01686 8.4317 2.01686 7.20142C2.01686 4.8239 4.48833 2.70183 7.83545 2.62815L7.83993 2.62803L7.84441 2.62796Z" fill="#212121"/>
</svg>
