<svg width="20" height="20" viewBox="0 0 20 20" fill="none" xmlns="http://www.w3.org/2000/svg">
<path d="M9.99974 9.99998C10.4357 9.99998 10.7892 9.64654 10.7892 9.21054C10.7892 8.77455 10.4357 8.4211 9.99974 8.4211C9.56375 8.4211 9.2103 8.77455 9.2103 9.21054C9.2103 9.64654 9.56375 9.99998 9.99974 9.99998Z" fill="#212121"/>
<path d="M6.84205 10C7.27804 10 7.63149 9.64658 7.63149 9.21059C7.63149 8.7746 7.27804 8.42115 6.84205 8.42115C6.40606 8.42115 6.05261 8.7746 6.05261 9.21059C6.05261 9.64658 6.40606 10 6.84205 10Z" fill="#212121"/>
<path d="M13.9469 9.21054C13.9469 9.64654 13.5935 9.99998 13.1575 9.99998C12.7215 9.99998 12.368 9.64654 12.368 9.21054C12.368 8.77455 12.7215 8.4211 13.1575 8.4211C13.5935 8.4211 13.9469 8.77455 13.9469 9.21054Z" fill="#212121"/>
<path d="M10.0107 2.78955C9.95353 2.78955 9.89647 2.79003 9.83955 2.79097C9.80773 2.7886 9.77572 2.78927 9.74397 2.793C5.57373 2.90141 2.02145 5.58811 2.02145 9.11812C2.02145 10.7922 2.83587 12.2905 4.12302 13.4007L2.05881 17.264C1.94846 17.4705 1.99611 17.7259 2.1735 17.8788C2.35088 18.0316 2.61054 18.041 2.79848 17.9013L6.81031 14.9201C7.79198 15.2594 8.87491 15.4467 10.0107 15.4467C14.2991 15.4467 18 12.7228 18 9.11812C18 5.51346 14.2991 2.78955 10.0107 2.78955ZM9.81758 3.79216C9.88174 3.79083 9.94613 3.79016 10.0107 3.79016C13.9944 3.79016 16.9994 6.28506 16.9994 9.11812C16.9994 11.9512 13.9944 14.4461 10.0107 14.4461C8.89279 14.4461 7.83907 14.2452 6.90565 13.8904C6.74604 13.8297 6.56651 13.8546 6.42946 13.9565L3.99323 15.7669L5.19986 13.5086C5.31532 13.2925 5.25729 13.0246 5.06276 12.8756C3.77852 11.8922 3.02205 10.5576 3.02205 9.11812C3.02205 6.33368 5.92163 3.87734 9.80737 3.79238L9.81236 3.79224L9.81758 3.79216Z" fill="#212121"/>
</svg>
