<svg width="32" height="32" viewBox="0 0 32 32" fill="none" xmlns="http://www.w3.org/2000/svg">
<path d="M10.5225 16C11.2787 16 11.8918 15.3869 11.8918 14.6307C11.8918 13.8744 11.2787 13.2613 10.5225 13.2613C9.7662 13.2613 9.15313 13.8744 9.15313 14.6307C9.15313 15.3869 9.7662 16 10.5225 16Z" fill="#212121"/>
<path d="M15.9999 16C16.7562 16 17.3693 15.3869 17.3693 14.6307C17.3693 13.8744 16.7562 13.2613 15.9999 13.2613C15.2437 13.2613 14.6306 13.8744 14.6306 14.6307C14.6306 15.3869 15.2437 16 15.9999 16Z" fill="#212121"/>
<path d="M22.8465 14.6307C22.8465 15.3869 22.2334 16 21.4772 16C20.7209 16 20.1078 15.3869 20.1078 14.6307C20.1078 13.8744 20.7209 13.2613 21.4772 13.2613C22.2334 13.2613 22.8465 13.8744 22.8465 14.6307Z" fill="#212121"/>
<path d="M16.0188 3.36963C15.9201 3.36963 15.8217 3.37044 15.7235 3.37205C15.6656 3.36818 15.6074 3.36941 15.5496 3.37575C8.27998 3.56616 2.03741 8.2552 2.03741 14.4704C2.03741 17.3841 3.43953 19.9893 5.65118 21.9276L2.11701 28.542C1.89928 28.9495 1.99197 29.4534 2.34047 29.7567C2.68896 30.0601 3.20082 30.0824 3.57441 29.8105L10.5895 24.7061C12.2621 25.2643 14.0975 25.5711 16.0188 25.5711C23.4948 25.5711 30.0001 20.818 30.0001 14.4704C30.0001 8.12268 23.4948 3.36963 16.0188 3.36963ZM15.6862 5.35545C15.7966 5.35315 15.9075 5.352 16.0188 5.352C22.8913 5.352 28.0177 9.65134 28.0177 14.4704C28.0177 19.2894 22.8912 23.5887 16.0188 23.5887C14.1327 23.5887 12.3538 23.2566 10.7728 22.669C10.4615 22.5533 10.1129 22.6012 9.84432 22.7967L5.90147 25.6656L7.783 22.1442C8.01177 21.7161 7.89679 21.1853 7.51137 20.8902C5.30743 19.2026 4.01978 16.9213 4.01978 14.4704C4.01978 9.73376 8.96624 5.50211 15.6694 5.3558L15.6778 5.35558L15.6862 5.35545Z" fill="#212121"/>
</svg>
