<svg width="48" height="48" viewBox="0 0 48 48" fill="none" xmlns="http://www.w3.org/2000/svg">
<path d="M16.0983 24.0153C17.1876 24.0153 18.0707 23.1322 18.0707 22.0429C18.0707 20.9536 17.1876 20.0705 16.0983 20.0705C15.0089 20.0705 14.1259 20.9536 14.1259 22.0429C14.1259 23.1322 15.0089 24.0153 16.0983 24.0153Z" fill="#212121"/>
<path d="M23.9879 24.0153C25.0772 24.0153 25.9603 23.1323 25.9603 22.0429C25.9603 20.9536 25.0772 20.0705 23.9879 20.0705C22.8985 20.0705 22.0154 20.9536 22.0154 22.0429C22.0154 23.1323 22.8985 24.0153 23.9879 24.0153Z" fill="#212121"/>
<path d="M33.8498 22.0429C33.8498 23.1323 32.9668 24.0153 31.8774 24.0153C30.7881 24.0153 29.9051 23.1323 29.9051 22.0429C29.9051 20.9536 30.7881 20.0705 31.8774 20.0705C32.9668 20.0705 33.8498 20.9536 33.8498 22.0429Z" fill="#212121"/>
<path d="M24.0147 6.00005C23.8725 6.00005 23.7306 6.00123 23.5891 6.00357C23.5087 5.99748 23.4277 5.99918 23.3475 6.0087C12.9285 6.27985 4.05358 12.9924 4.05358 21.8119C4.05358 25.9947 6.08858 29.7382 9.30471 32.5122L4.14757 42.1641C3.87187 42.6801 3.99092 43.3183 4.43411 43.7001C4.8773 44.082 5.52607 44.1054 5.99563 43.7565L16.0188 36.3082C18.4714 37.1559 21.177 37.6238 24.0147 37.6238C34.7291 37.6238 43.9758 30.8181 43.9758 21.8119C43.9758 12.8057 34.7291 6.00005 24.0147 6.00005ZM23.533 8.50504C23.693 8.50172 23.8536 8.50005 24.0147 8.50005C33.968 8.50005 41.4758 14.7335 41.4758 21.8119C41.4758 28.8903 33.968 35.1238 24.0147 35.1238C21.2217 35.1238 18.589 34.622 16.257 33.7355C15.8582 33.5839 15.4097 33.6461 15.0672 33.9006L8.98068 38.4236L11.9952 32.7817C12.2837 32.2418 12.1387 31.5724 11.6526 31.2002C8.44375 28.7432 6.55358 25.4087 6.55358 21.8119C6.55358 14.8549 13.7983 8.71777 23.5069 8.5056L23.5199 8.50524L23.533 8.50504Z" fill="#212121"/>
</svg>
