<svg width="24" height="24" viewBox="0 0 24 24" fill="none" xmlns="http://www.w3.org/2000/svg">
<path d="M11.793 3.00186C11.8663 3.00062 11.9399 3 12.0136 3C14.7336 3 17.2145 3.84564 19.0259 5.23589C20.8378 6.62653 22 8.58261 22 10.7809C22 12.9792 20.8378 14.9353 19.0259 16.3259C17.2145 17.7162 14.7336 18.5618 12.0136 18.5618C10.5736 18.5618 9.20221 18.3249 7.96218 17.8968L2.80644 21.8951C2.62084 22.039 2.36008 22.0344 2.17973 21.8839C1.99937 21.7334 1.94806 21.4777 2.05639 21.2693L4.73611 16.1146C3.07671 14.7403 2.02714 12.8701 2.02714 10.7809C2.02714 6.45807 6.44793 3.13554 11.6861 3.00409C11.7216 2.99953 11.7574 2.99878 11.793 3.00186ZM7.92414 11.8827C8.4688 11.8827 8.91033 11.4411 8.91033 10.8965C8.91033 10.3518 8.4688 9.91029 7.92414 9.91029C7.37947 9.91029 6.93794 10.3518 6.93794 10.8965C6.93794 11.4411 7.37947 11.8827 7.92414 11.8827ZM11.8689 11.8827C12.4136 11.8827 12.8551 11.4412 12.8551 10.8965C12.8551 10.3518 12.4136 9.91031 11.8689 9.91031C11.3243 9.91031 10.8827 10.3518 10.8827 10.8965C10.8827 11.4412 11.3243 11.8827 11.8689 11.8827ZM16.7999 10.8965C16.7999 10.3518 16.3584 9.91031 15.8137 9.91031C15.2691 9.91031 14.8275 10.3518 14.8275 10.8965C14.8275 11.4412 15.2691 11.8827 15.8137 11.8827C16.3584 11.8827 16.7999 11.4412 16.7999 10.8965Z" fill="#212121"/>
</svg>
