<svg width="48" height="48" viewBox="0 0 48 48" fill="none" xmlns="http://www.w3.org/2000/svg">
<path d="M23.586 6.00371C23.7327 6.00124 23.8797 6 24.0271 6C29.4672 6 34.4291 7.69128 38.0518 10.4718C41.6756 13.2531 44 17.1652 44 21.5619C44 25.9585 41.6756 29.8706 38.0518 32.6519C34.4291 35.4324 29.4672 37.1237 24.0271 37.1237C21.1471 37.1237 18.4044 36.6499 15.9243 35.7936L5.61282 43.7902C5.24162 44.0781 4.72009 44.0688 4.35939 43.7679C3.99869 43.467 3.89606 42.9555 4.11272 42.5387L9.47217 32.2292C6.15336 29.4806 4.05421 25.7403 4.05421 21.5619C4.05421 12.9162 12.8958 6.27108 23.3722 6.00819C23.4432 5.99905 23.5148 5.99756 23.586 6.00371ZM15.8483 23.7652C16.9376 23.7652 17.8207 22.8821 17.8207 21.7928C17.8207 20.7035 16.9376 19.8204 15.8483 19.8204C14.7589 19.8204 13.8759 20.7035 13.8759 21.7928C13.8759 22.8821 14.7589 23.7652 15.8483 23.7652ZM23.7379 23.7652C24.8272 23.7652 25.7103 22.8822 25.7103 21.7929C25.7103 20.7035 24.8272 19.8205 23.7379 19.8205C22.6485 19.8205 21.7655 20.7035 21.7655 21.7929C21.7655 22.8822 22.6485 23.7652 23.7379 23.7652ZM33.5999 21.7929C33.5999 20.7035 32.7168 19.8205 31.6275 19.8205C30.5381 19.8205 29.6551 20.7035 29.6551 21.7929C29.6551 22.8822 30.5381 23.7652 31.6275 23.7652C32.7168 23.7652 33.5999 22.8822 33.5999 21.7929Z" fill="#212121"/>
</svg>
