<svg width="20" height="20" viewBox="0 0 20 20" fill="none" xmlns="http://www.w3.org/2000/svg">
<path d="M9.83441 2.80153C9.89308 2.80055 9.95189 2.80005 10.0109 2.80005C12.1869 2.80005 14.1716 3.47656 15.6207 4.58876C17.0702 5.70127 18 7.26614 18 9.02478C18 10.7834 17.0702 12.3483 15.6207 13.4608C14.1716 14.573 12.1869 15.2495 10.0109 15.2495C8.85885 15.2495 7.76177 15.06 6.76975 14.7175L2.64515 17.9161C2.49667 18.0313 2.28806 18.0275 2.14378 17.9072C1.9995 17.7868 1.95845 17.5822 2.04511 17.4155L4.18889 13.2917C2.86137 12.1923 2.02171 10.6962 2.02171 9.02478C2.02171 5.56651 5.55834 2.90848 9.74889 2.80332C9.77727 2.79967 9.80595 2.79907 9.83441 2.80153ZM6.7393 9.90621C7.17503 9.90621 7.52826 9.55299 7.52826 9.11726C7.52826 8.68154 7.17503 8.32831 6.7393 8.32831C6.30357 8.32831 5.95034 8.68154 5.95034 9.11726C5.95034 9.55299 6.30357 9.90621 6.7393 9.90621ZM9.89513 9.90623C10.3309 9.90623 10.6841 9.553 10.6841 9.11728C10.6841 8.68156 10.3309 8.32833 9.89513 8.32833C9.4594 8.32833 9.10617 8.68156 9.10617 9.11728C9.10617 9.553 9.4594 9.90623 9.89513 9.90623ZM13.8399 9.11728C13.8399 8.68156 13.4867 8.32833 13.051 8.32833C12.6152 8.32833 12.262 8.68156 12.262 9.11728C12.262 9.553 12.6152 9.90623 13.051 9.90623C13.4867 9.90623 13.8399 9.553 13.8399 9.11728Z" fill="#212121"/>
</svg>
