<svg width="24" height="24" viewBox="0 0 24 24" fill="none" xmlns="http://www.w3.org/2000/svg">
<path d="M8.05283 12C8.59782 12 9.03963 11.5582 9.03963 11.0132C9.03963 10.4682 8.59782 10.0264 8.05283 10.0264C7.50784 10.0264 7.06603 10.4682 7.06603 11.0132C7.06603 11.5582 7.50784 12 8.05283 12Z" fill="#212121"/>
<path d="M12 12.0001C12.545 12.0001 12.9868 11.5583 12.9868 11.0133C12.9868 10.4683 12.545 10.0265 12 10.0265C11.455 10.0265 11.0132 10.4683 11.0132 11.0133C11.0132 11.5583 11.455 12.0001 12 12.0001Z" fill="#212121"/>
<path d="M16.934 11.0133C16.934 11.5583 16.4922 12.0001 15.9472 12.0001C15.4022 12.0001 14.9604 11.5583 14.9604 11.0133C14.9604 10.4683 15.4022 10.0265 15.9472 10.0265C16.4922 10.0265 16.934 10.4683 16.934 11.0133Z" fill="#212121"/>
<path fill-rule="evenodd" clip-rule="evenodd" d="M12.0135 2.8623C11.9433 2.8623 11.8733 2.86287 11.8035 2.864C11.7594 2.86103 11.7151 2.86197 11.6711 2.86681C6.42294 3.00567 1.90224 6.39277 1.90224 10.8976C1.90224 13.0002 2.90956 14.8794 4.49732 16.2797L1.96387 21.0212C1.80016 21.3276 1.86828 21.7063 2.12851 21.9365C2.38873 22.1666 2.77294 22.1879 3.05702 21.988L8.22375 18.3516C9.39647 18.7273 10.6762 18.933 12.0135 18.933C17.4119 18.933 22.1247 15.4996 22.1247 10.8976C22.1247 6.29572 17.4119 2.8623 12.0135 2.8623ZM11.7749 4.36478C11.8541 4.36313 11.9337 4.3623 12.0135 4.3623C16.9552 4.3623 20.6247 7.45241 20.6247 10.8976C20.6247 14.3429 16.9552 17.433 12.0135 17.433C10.7025 17.433 9.46386 17.2097 8.35655 16.813C8.12685 16.7307 7.87148 16.7653 7.67196 16.9057L4.77358 18.9456L6.10993 16.4446C6.28303 16.1206 6.19603 15.7189 5.90439 15.4956C4.32305 14.2848 3.40224 12.6505 3.40224 10.8976C3.40224 7.51137 6.94254 4.47039 11.7621 4.36505L11.7685 4.36488L11.7749 4.36478Z" fill="#212121"/>
</svg>
