<svg width="32" height="32" viewBox="0 0 32 32" fill="none" xmlns="http://www.w3.org/2000/svg">
<path d="M15.7102 3.4025C15.8129 3.40077 15.9158 3.3999 16.019 3.3999C19.8271 3.3999 23.3004 4.5838 25.8363 6.53015C28.3729 8.47704 30 11.2156 30 14.2932C30 17.3708 28.3729 20.1093 25.8363 22.0562C23.3004 24.0026 19.8271 25.1865 16.019 25.1865C14.003 25.1865 12.0831 24.8548 10.3471 24.2554L3.12901 29.853C2.86917 30.0545 2.50411 30.048 2.25162 29.8374C1.99912 29.6267 1.92728 29.2687 2.07895 28.977L5.83056 21.7603C3.50739 19.8363 2.03799 17.2181 2.03799 14.2932C2.03799 8.2412 8.2271 3.58966 15.5605 3.40564C15.6102 3.39924 15.6604 3.3982 15.7102 3.4025ZM10.2938 15.8356C11.0563 15.8356 11.6745 15.2174 11.6745 14.4549C11.6745 13.6924 11.0563 13.0742 10.2938 13.0742C9.53127 13.0742 8.91312 13.6924 8.91312 14.4549C8.91312 15.2174 9.53127 15.8356 10.2938 15.8356ZM15.8165 15.8356C16.579 15.8356 17.1972 15.2175 17.1972 14.4549C17.1972 13.6924 16.579 13.0743 15.8165 13.0743C15.054 13.0743 14.4358 13.6924 14.4358 14.4549C14.4358 15.2175 15.054 15.8356 15.8165 15.8356ZM22.7199 14.4549C22.7199 13.6924 22.1017 13.0743 21.3392 13.0743C20.5767 13.0743 19.9585 13.6924 19.9585 14.4549C19.9585 15.2175 20.5767 15.8356 21.3392 15.8356C22.1017 15.8356 22.7199 15.2175 22.7199 14.4549Z" fill="#212121"/>
</svg>
