<svg width="16" height="16" viewBox="0 0 16 16" fill="none" xmlns="http://www.w3.org/2000/svg">
<path d="M7.85511 1.70125C7.90644 1.70039 7.9579 1.69995 8.0095 1.69995C9.91354 1.69995 11.6502 2.2919 12.9181 3.26507C14.1865 4.23852 15 5.60778 15 7.14659C15 8.6854 14.1865 10.0547 12.9181 11.0281C11.6502 12.0013 9.91354 12.5932 8.0095 12.5932C7.0015 12.5932 6.04155 12.4274 5.17353 12.1277L1.56451 14.9265C1.43459 15.0273 1.25205 15.024 1.12581 14.9187C0.999562 14.8134 0.963641 14.6344 1.03947 14.4885L2.91528 10.8801C1.75369 9.91814 1.01899 8.60905 1.01899 7.14659C1.01899 4.1206 4.11355 1.79483 7.78027 1.70282C7.80511 1.69962 7.83021 1.6991 7.85511 1.70125ZM5.14689 7.91789C5.52816 7.91789 5.83723 7.60882 5.83723 7.22756C5.83723 6.8463 5.52816 6.53723 5.14689 6.53723C4.76563 6.53723 4.45655 6.8463 4.45655 7.22756C4.45655 7.60882 4.76563 7.91789 5.14689 7.91789ZM7.90825 7.91791C8.28951 7.91791 8.59859 7.60884 8.59859 7.22758C8.59859 6.84632 8.28951 6.53725 7.90825 6.53725C7.52698 6.53725 7.21791 6.84632 7.21791 7.22758C7.21791 7.60884 7.52698 7.91791 7.90825 7.91791ZM11.3599 7.22758C11.3599 6.84632 11.0509 6.53725 10.6696 6.53725C10.2883 6.53725 9.97926 6.84632 9.97926 7.22758C9.97926 7.60884 10.2883 7.91791 10.6696 7.91791C11.0509 7.91791 11.3599 7.60884 11.3599 7.22758Z" fill="#212121"/>
</svg>
