<svg width="230" height="160" viewBox="0 0 230 160" fill="none" xmlns="http://www.w3.org/2000/svg">
<path d="M160.46 40H51.4562C49.2144 40 47.2529 41.9621 47.2529 44.2046V114.562C47.2529 116.804 49.2144 115.963 51.4562 115.963H160.18C162.422 115.963 164.383 116.804 164.383 114.562V44.2046C164.664 41.9621 162.702 40 160.46 40Z" fill="#5C5C5C"/>
<path d="M156.797 44.0886H55.355C53.2688 44.0886 51.4434 45.8452 51.4434 47.8528V110.839C51.4434 112.847 53.2688 112.094 55.355 112.094H156.536C158.623 112.094 160.448 112.847 160.448 110.839V47.8528C160.709 45.8452 158.883 44.0886 156.797 44.0886Z" fill="#3A3A3A"/>
<path d="M180.916 112.039V114.281C180.916 116.804 178.674 119.046 176.152 119.046H35.7637C33.2417 119.046 31 116.804 31 114.281V112.039H180.916Z" fill="#5C5C5C"/>
<path d="M118.988 112.039V112.88C118.988 114.281 117.867 115.683 116.186 115.683H95.4496C94.0485 115.683 92.6475 114.562 92.6475 112.88V112.039H118.988Z" fill="#777777"/>
<path d="M139.349 57.1057H85.8242V66.9035H139.349V57.1057Z" fill="#707070" stroke="#636363" stroke-width="2" stroke-miterlimit="10"/>
<path d="M85.558 66.8857H72.0928V98.0507H85.558V66.8857Z" fill="#4D4D4D" stroke="#636363" stroke-width="2" stroke-miterlimit="10"/>
<path d="M139.33 57.1057H85.5576V98.0685H139.33V57.1057Z" fill="#5C5C5C" stroke="#707070" stroke-width="2" stroke-miterlimit="10"/>
<path d="M126.078 98.0507H72.0928V66.8857H139.348" stroke="#707070" stroke-width="2" stroke-miterlimit="10"/>
<path d="M139.348 77.5693H72.0928" stroke="#707070" stroke-width="2" stroke-miterlimit="10"/>
<path d="M139.348 87.8101H72.0928" stroke="#707070" stroke-width="2" stroke-miterlimit="10"/>
<path d="M99.1299 57.1057V98.0507" stroke="#707070" stroke-width="2" stroke-miterlimit="10"/>
<path d="M112.56 57.1057V98.0507" stroke="#707070" stroke-width="2" stroke-miterlimit="10"/>
<path d="M125.989 57.1057V98.0507" stroke="#707070" stroke-width="2" stroke-miterlimit="10"/>
<path d="M199.314 73.6254V117.078C199.314 118.333 198.29 119.358 197.036 119.358H159.957C158.703 119.358 157.68 118.348 157.68 117.078V73.6254C157.694 72.3558 158.703 71.3459 159.957 71.3459H197.051C198.305 71.3459 199.314 72.3558 199.314 73.6254Z" fill="#AFAFAF" stroke="#707070" stroke-width="2" stroke-miterlimit="10"/>
<path opacity="0.4" d="M199.314 73.6254V117.078C199.314 118.333 198.291 119.358 197.036 119.358H178.497V71.3459H197.036C198.305 71.3459 199.314 72.3558 199.314 73.6254Z" fill="#4D4D4D"/>
<path opacity="0.3" d="M199.314 73.6254V83.2912H157.694V73.6254C157.694 72.3558 158.703 71.3459 159.958 71.3459H197.051C198.305 71.3459 199.314 72.3558 199.314 73.6254Z" fill="#636363"/>
<path opacity="0.3" d="M199.314 73.6254V95.3519H157.694V73.6254C157.694 72.3558 158.703 71.3459 159.958 71.3459H197.051C198.305 71.3459 199.314 72.3558 199.314 73.6254Z" fill="#636363"/>
<path opacity="0.3" d="M199.314 73.6254V107.182H157.694V73.6254C157.694 72.3558 158.703 71.3459 159.958 71.3459H197.051C198.305 71.3459 199.314 72.3558 199.314 73.6254Z" fill="#4D4D4D"/>
<g filter="url(#filter0_d_6032_476)">
<path d="M169.328 109.043H146.767C145.34 109.043 144.172 107.874 144.172 106.446V83.8683C144.172 82.44 145.34 81.2715 146.767 81.2715H169.328C170.755 81.2715 171.923 82.44 171.923 83.8683V106.446C171.923 107.874 170.77 109.043 169.328 109.043Z" fill="url(#paint0_linear_6032_476)"/>
</g>
<path d="M151.558 88.1588C151.167 87.4922 151.648 86.6526 152.421 86.6526H154.184C154.56 86.6526 154.905 86.8638 155.075 87.1992L157.187 91.3507C157.553 92.0709 158.578 92.0818 158.96 91.3695L161.204 87.1804C161.378 86.8554 161.716 86.6526 162.085 86.6526H163.703C164.48 86.6526 164.96 87.4988 164.562 88.1653L160.694 94.6419C160.507 94.9552 160.505 95.3455 160.69 95.6603L164.582 102.3C164.973 102.967 164.492 103.806 163.72 103.806H162.07C161.694 103.806 161.35 103.595 161.179 103.26L158.89 98.7763C158.53 98.0708 157.531 98.0441 157.134 98.7295L154.481 103.307C154.302 103.616 153.972 103.806 153.615 103.806H151.965C151.175 103.806 150.697 102.934 151.122 102.268L155.333 95.666C155.535 95.3492 155.542 94.946 155.352 94.622L151.558 88.1588Z" fill="#636363"/>
<path d="M131.6 99.9043L131.63 98.0061C121.556 97.7293 112.256 93.5485 105.255 86.3184C104.322 85.3544 104.344 83.9307 105.307 82.9964C106.271 82.0622 107.693 82.0845 108.626 83.0485C114.691 89.4333 122.935 93.0041 131.704 93.2604L131.734 91.3622C131.753 90.1758 133.066 89.603 134.003 90.3298L139.388 94.6864C140.09 95.2908 140.074 96.3586 139.353 96.9406L133.833 101.126C132.876 101.704 131.581 101.091 131.6 99.9043Z" fill="url(#paint1_linear_6032_476)"/>
<defs>
<filter id="filter0_d_6032_476" x="140.172" y="81.2715" width="35.751" height="35.7712" filterUnits="userSpaceOnUse" color-interpolation-filters="sRGB">
<feFlood flood-opacity="0" result="BackgroundImageFix"/>
<feColorMatrix in="SourceAlpha" type="matrix" values="0 0 0 0 0 0 0 0 0 0 0 0 0 0 0 0 0 0 127 0" result="hardAlpha"/>
<feOffset dy="4"/>
<feGaussianBlur stdDeviation="2"/>
<feComposite in2="hardAlpha" operator="out"/>
<feColorMatrix type="matrix" values="0 0 0 0 0 0 0 0 0 0 0 0 0 0 0 0 0 0 0.25 0"/>
<feBlend mode="normal" in2="BackgroundImageFix" result="effect1_dropShadow_6032_476"/>
<feBlend mode="normal" in="SourceGraphic" in2="effect1_dropShadow_6032_476" result="shape"/>
</filter>
<linearGradient id="paint0_linear_6032_476" x1="150.538" y1="88.5614" x2="162.489" y2="108.78" gradientUnits="userSpaceOnUse">
<stop stop-color="#FAFAFA"/>
<stop offset="1" stop-color="#F5F2EC"/>
</linearGradient>
<linearGradient id="paint1_linear_6032_476" x1="104.461" y1="91.5845" x2="139.962" y2="92.1417" gradientUnits="userSpaceOnUse">
<stop stop-color="#FAFAFA"/>
<stop offset="0.828125" stop-color="#F5F2EC"/>
</linearGradient>
</defs>
</svg>
