<svg xmlns="http://www.w3.org/2000/svg" width="200" height="160" fill="none" viewBox="0 0 200 160">
  <path fill="#242424" d="M91.625 143c34.493 0 62.455-27.982 62.455-62.5S126.118 18 91.625 18C57.132 18 29.17 45.982 29.17 80.5S57.132 143 91.625 143Z"/>
  <g filter="url(#a)">
    <path fill="#3A3A3A" d="M76.264 43.349a5 5 0 0 1 5-5h36.511a5 5 0 0 1 5 5v11.318a5 5 0 0 1-5 5H81.264a5 5 0 0 1-5-5V43.349Z"/>
  </g>
  <path fill="#707070" fill-rule="evenodd" d="M105.31 49.758v9.513h1.5v-9.513h16.238v-1.5H106.81V38.2h-1.5v10.057H76.353v1.5h28.957Z" clip-rule="evenodd"/>
  <path fill="#F5F2EC" fill-rule="evenodd" d="M79.624 43.465a1 1 0 0 1 1-1h17.442a1 1 0 1 1 0 2H80.624a1 1 0 0 1-1-1Z" clip-rule="evenodd"/>
  <path fill="#CBCBCB" fill-rule="evenodd" d="M108.694 43.465a1 1 0 0 1 1-1h4.36a1 1 0 1 1 0 2h-4.36a1 1 0 0 1-1-1Z" clip-rule="evenodd"/>
  <path fill="#F5F2EC" fill-rule="evenodd" d="M79.624 53.698a1 1 0 0 1 1-1h17.442a1 1 0 1 1 0 2H80.624a1 1 0 0 1-1-1Zm29.07 0a1 1 0 0 1 1-1h4.36a1 1 0 1 1 0 2h-4.36a1 1 0 0 1-1-1Z" clip-rule="evenodd"/>
  <g filter="url(#b)">
    <path fill="#3A3A3A" d="M22 43.349a5 5 0 0 1 5-5h36.512a5 5 0 0 1 5 5v77.209a5 5 0 0 1-5 5H27a5 5 0 0 1-5-5v-77.21Z"/>
  </g>
  <g filter="url(#c)">
    <path fill="#3A3A3A" d="M76.264 74.356a5 5 0 0 1 5-5h36.511a5 5 0 0 1 5 5v41.357a5 5 0 0 1-5 5H81.264a5 5 0 0 1-5-5V74.356Z"/>
  </g>
  <g filter="url(#d)">
    <path fill="#3A3A3A" d="M130.527 43.349a5 5 0 0 1 5-5h36.512a5 5 0 0 1 5 5V79.86a5 5 0 0 1-5 5h-36.512a5 5 0 0 1-5-5V43.349Z"/>
  </g>
  <path fill="#707070" fill-rule="evenodd" d="M62.213 58.728h-33.43v-2h33.43v2Zm0-6.782h-33.43v-2h33.43v2Zm0 13.566h-33.43v-2h33.43v2ZM168.802 48.07h-33.43v-2h33.43v2ZM46.71 72.294H28.782v-2h17.926v2Zm106.588-17.442h-17.926v-2h17.926v2Z" clip-rule="evenodd"/>
  <path fill="#707070" d="m143.538 77.383-3.156.04c-.603.054-1.018-.519-1.061-1.003l-.045-7.313c-.053-.605.517-1.022.999-1.066l3.156-.039c.603-.054 1.019.518 1.062 1.002l.044 7.314c.054.605-.385 1.132-.999 1.065Zm8.022.012-3.156.04c-.603.054-1.019-.519-1.062-1.003l.016-10.734c-.054-.605.516-1.022.999-1.065l3.156-.04c.602-.054 1.018.519 1.061 1.003l-.015 10.734c.054.605-.517 1.022-.999 1.065Zm16.488 0-3.156.04c-.603.054-1.019-.519-1.062-1.003l.016-10.734c-.054-.605.516-1.022.998-1.065l3.156-.04c.603-.054 1.019.519 1.062 1.003l-.016 10.734c.054.605-.516 1.022-.998 1.065Z"/>
  <path fill="#F5F2EC" d="m159.45 77.296-3.156.04c-.603.054-1.019-.519-1.062-1.003l-.056-14.264c-.054-.605.517-1.022.999-1.065l3.156-.04c.603-.054 1.018.519 1.061 1.003l.056 14.264c.054.605-.385 1.132-.998 1.065ZM44.455 91.462l-.08-7.28c8.125.56 14.529 7.3 14.709 15.348.083 5.159-2.617 9.72-6.738 12.311l-3.744-6.608c1.827-1.321 2.932-3.476 2.968-6.047-.029-3.79-3.23-7.16-7.115-7.724Z"/>
  <path fill="#777" d="m42.781 84.365.08 7.22c-2.346.202-4.463 1.479-5.699 3.45l-6.218-4.118c2.46-3.794 6.693-6.349 11.837-6.552Z"/>
  <path fill="#4D4D4D" d="m29.614 92.827 6.364 4.128c-.21.727-.42 1.455-.332 2.364-.005 4.199 3.61 7.734 8.097 7.912 1.243-.018 2.343-.201 3.3-.549l3.711 6.395a14.756 14.756 0 0 1-6.931 1.362c-8.525-.158-15.458-7.046-15.613-15.312.014-2.248.49-4.447 1.404-6.3Z"/>
  <path fill="#CBCBCB" fill-rule="evenodd" d="m102.5 81.567 11.362-1.674-.292-1.979-12.02 1.771-9.644 9.719-8.327-8.267-1.41 1.419 9.748 9.677L102.5 81.567Z" clip-rule="evenodd"/>
  <path fill="#3A3A3A" d="M83.09 83.712a1.794 1.794 0 1 0-.002-3.587 1.794 1.794 0 0 0 .002 3.587Z"/>
  <path fill="#CBCBCB" fill-rule="evenodd" d="M86.883 81.918a3.794 3.794 0 1 1-7.588.001 3.794 3.794 0 0 1 7.588-.001Zm-2 0a1.794 1.794 0 1 1-3.588.001 1.794 1.794 0 0 1 3.588-.001Z" clip-rule="evenodd"/>
  <path fill="#3A3A3A" d="M91.983 92.613a1.794 1.794 0 1 0 0-3.588 1.794 1.794 0 0 0 0 3.588Z"/>
  <path fill="#CBCBCB" fill-rule="evenodd" d="M95.776 90.818a3.794 3.794 0 1 1-7.587.002 3.794 3.794 0 0 1 7.588-.002Zm-2 0a1.794 1.794 0 1 1-3.587.002 1.794 1.794 0 0 1 3.588-.002Z" clip-rule="evenodd"/>
  <path fill="#3A3A3A" d="M102.24 82.42a1.793 1.793 0 1 0 0-3.591 1.793 1.793 0 0 0 0 3.591Z"/>
  <path fill="#CBCBCB" fill-rule="evenodd" d="M106.033 80.626a3.793 3.793 0 1 1-7.586 0 3.794 3.794 0 1 1 7.586 0Zm-2 0a1.793 1.793 0 1 1-1.793-1.794c.991 0 1.793.803 1.793 1.794Z" clip-rule="evenodd"/>
  <path fill="#3A3A3A" d="M113.716 80.698a1.794 1.794 0 1 0-.002-3.588 1.794 1.794 0 0 0 .002 3.588Z"/>
  <path fill="#CBCBCB" fill-rule="evenodd" d="M117.509 78.903a3.794 3.794 0 1 1-7.588.002 3.794 3.794 0 0 1 7.588-.002Zm-2 0a1.794 1.794 0 1 1-3.588.001 1.794 1.794 0 0 1 3.588 0Z" clip-rule="evenodd"/>
  <path fill="#777" fill-rule="evenodd" d="M81 114.896v-15.5h2v15.5h-2Z" clip-rule="evenodd"/>
  <path fill="#F5F2EC" fill-rule="evenodd" d="M81 111.396v-7h2v7h-2Z" clip-rule="evenodd"/>
  <path fill="#777" fill-rule="evenodd" d="M91 114.896v-15.5h2v15.5h-2Z" clip-rule="evenodd"/>
  <path fill="#F5F2EC" fill-rule="evenodd" d="M91 103.396v-2h2v2h-2Z" clip-rule="evenodd"/>
  <path fill="#777" fill-rule="evenodd" d="M100 114.896v-15.5h2v15.5h-2Z" clip-rule="evenodd"/>
  <path fill="#F5F2EC" fill-rule="evenodd" d="M100 107.396v-5h2v5h-2Z" clip-rule="evenodd"/>
  <path fill="#777" fill-rule="evenodd" d="M108 99.395h2v15.5l-1 .001-1-.001v-15.5Z" clip-rule="evenodd"/>
  <path fill="#F5F2EC" fill-rule="evenodd" d="M108 112.396v-10h2v10h-2Z" clip-rule="evenodd"/>
  <path fill="#777" fill-rule="evenodd" d="M116 114.896v-15.5h2v15.5h-2Z" clip-rule="evenodd"/>
  <path fill="#F5F2EC" fill-rule="evenodd" d="M116 108.396v-4h2v4h-2Z" clip-rule="evenodd"/>
  <defs>
    <filter id="a" width="78.512" height="53.318" x="60.264" y="30.349" color-interpolation-filters="sRGB" filterUnits="userSpaceOnUse">
      <feFlood flood-opacity="0" result="BackgroundImageFix"/>
      <feColorMatrix in="SourceAlpha" result="hardAlpha" values="0 0 0 0 0 0 0 0 0 0 0 0 0 0 0 0 0 0 127 0"/>
      <feOffset dy="8"/>
      <feGaussianBlur stdDeviation="8"/>
      <feColorMatrix values="0 0 0 0 0 0 0 0 0 0 0 0 0 0 0 0 0 0 0.24 0"/>
      <feBlend in2="BackgroundImageFix" result="effect1_dropShadow_871_4892"/>
      <feBlend in="SourceGraphic" in2="effect1_dropShadow_871_4892" result="shape"/>
    </filter>
    <filter id="b" width="78.512" height="119.209" x="6" y="30.349" color-interpolation-filters="sRGB" filterUnits="userSpaceOnUse">
      <feFlood flood-opacity="0" result="BackgroundImageFix"/>
      <feColorMatrix in="SourceAlpha" result="hardAlpha" values="0 0 0 0 0 0 0 0 0 0 0 0 0 0 0 0 0 0 127 0"/>
      <feOffset dy="8"/>
      <feGaussianBlur stdDeviation="8"/>
      <feColorMatrix values="0 0 0 0 0 0 0 0 0 0 0 0 0 0 0 0 0 0 0.24 0"/>
      <feBlend in2="BackgroundImageFix" result="effect1_dropShadow_871_4892"/>
      <feBlend in="SourceGraphic" in2="effect1_dropShadow_871_4892" result="shape"/>
    </filter>
    <filter id="c" width="78.512" height="83.356" x="60.264" y="61.356" color-interpolation-filters="sRGB" filterUnits="userSpaceOnUse">
      <feFlood flood-opacity="0" result="BackgroundImageFix"/>
      <feColorMatrix in="SourceAlpha" result="hardAlpha" values="0 0 0 0 0 0 0 0 0 0 0 0 0 0 0 0 0 0 127 0"/>
      <feOffset dy="8"/>
      <feGaussianBlur stdDeviation="8"/>
      <feColorMatrix values="0 0 0 0 0 0 0 0 0 0 0 0 0 0 0 0 0 0 0.24 0"/>
      <feBlend in2="BackgroundImageFix" result="effect1_dropShadow_871_4892"/>
      <feBlend in="SourceGraphic" in2="effect1_dropShadow_871_4892" result="shape"/>
    </filter>
    <filter id="d" width="78.512" height="78.511" x="114.527" y="30.349" color-interpolation-filters="sRGB" filterUnits="userSpaceOnUse">
      <feFlood flood-opacity="0" result="BackgroundImageFix"/>
      <feColorMatrix in="SourceAlpha" result="hardAlpha" values="0 0 0 0 0 0 0 0 0 0 0 0 0 0 0 0 0 0 127 0"/>
      <feOffset dy="8"/>
      <feGaussianBlur stdDeviation="8"/>
      <feColorMatrix values="0 0 0 0 0 0 0 0 0 0 0 0 0 0 0 0 0 0 0.24 0"/>
      <feBlend in2="BackgroundImageFix" result="effect1_dropShadow_871_4892"/>
      <feBlend in="SourceGraphic" in2="effect1_dropShadow_871_4892" result="shape"/>
    </filter>
  </defs>
</svg>
