<svg width="24" height="24" viewBox="0 0 24 24" fill="none" xmlns="http://www.w3.org/2000/svg">
<path d="M20.4999 11C20.4999 15.1421 17.1421 18.5 12.9999 18.5C11.7003 18.5 10.4779 18.1694 9.41213 17.5878L8.31432 18.6856C9.67916 19.5195 11.2834 20 12.9999 20C17.9705 20 21.9999 15.9706 21.9999 11C21.9999 6.02944 17.9705 2 12.9999 2C8.02936 2 3.99992 6.02944 3.99992 11C3.99992 12.7165 4.48045 14.3208 5.31432 15.6856L6.41213 14.5878C5.83049 13.5221 5.49992 12.2996 5.49992 11C5.49992 6.85786 8.85779 3.5 12.9999 3.5C17.1421 3.5 20.4999 6.85786 20.4999 11ZM3.21967 20.7803C2.92678 20.4875 2.92678 20.0126 3.21967 19.7197L13.4393 9.5H8.74992C8.33571 9.5 7.99992 9.16421 7.99992 8.75C7.99992 8.33579 8.33571 8 8.74992 8H15.1499C15.6194 8 15.9999 8.38056 15.9999 8.85V15.25C15.9999 15.6642 15.6641 16 15.2499 16C14.8357 16 14.4999 15.6642 14.4999 15.25V10.5607L4.28033 20.7803C3.98744 21.0732 3.51257 21.0732 3.21967 20.7803Z" fill="#212121"/>
</svg>
