<svg width="20" height="20" viewBox="0 0 20 20" fill="none" xmlns="http://www.w3.org/2000/svg">
<path d="M12.3007 3.87461C11.7328 3.19576 12.1414 2.04736 12.9508 2.04736H16.6112C17.4206 2.04736 17.8292 3.19576 17.2613 3.87461L15.519 5.95728V16.9541C15.519 17.3683 15.1833 17.7041 14.769 17.7041C14.3548 17.7041 14.019 17.3683 14.019 16.9541V5.92869L12.3007 3.87461Z" fill="#424242"/>
<path d="M10.9961 9.75C10.9961 8.23122 9.76488 7 8.24609 7H2.99316V8.5H8.24609C8.93645 8.5 9.49609 9.05964 9.49609 9.75V14.2461C9.49609 14.9365 8.93645 15.4961 8.24609 15.4961H2.99316V16.9961H8.24609C9.76488 16.9961 10.9961 15.7649 10.9961 14.2461V9.75Z" fill="#424242"/>
</svg>
