<svg width="16" height="16" viewBox="0 0 16 16" fill="none" xmlns="http://www.w3.org/2000/svg">
<path d="M10.8679 1C10.1367 1 9.76763 2.05954 10.2806 2.68586L11.9338 4.70436C11.9619 4.73867 11.9916 4.76999 12.0225 4.79832V14.4891C12.0225 14.7713 12.2457 15 12.5211 15C12.7964 15 13.0196 14.7713 13.0196 14.4891V4.79834C13.0506 4.77 13.0802 4.73867 13.1083 4.70437L14.7615 2.68586C15.2745 2.05954 14.9054 1 14.1743 1H10.8679Z" fill="#424242"/>
<path d="M9.00105 8.00342C9.00105 6.89885 8.10562 6.00342 7.00105 6.00342H1.99566V7.00342H7.00105C7.55334 7.00342 8.00105 7.45113 8.00105 8.00342V12C8.00105 12.5523 7.55334 13 7.00105 13H1.99566V14H7.00105C8.10562 14 9.00105 13.1046 9.00105 12V8.00342Z" fill="#424242"/>
</svg>
