<svg xmlns="http://www.w3.org/2000/svg" width="230" height="160" fill="none"><path fill="#000" fill-opacity=".12" d="M115 134c30.376 0 55-24.624 55-55s-24.624-55-55-55-55 24.624-55 55 24.624 55 55 55"/><path fill="#5c5c5c" d="m191.049 73.714 1.561-.694a.542.542 0 0 0 0-1.04l-1.561-.694a8.8 8.8 0 0 1-4.335-4.335l-.694-1.56a.542.542 0 0 0-1.04 0l-.694 1.56a8.8 8.8 0 0 1-4.335 4.335l-1.561.694a.542.542 0 0 0 0 1.04l1.561.694a8.8 8.8 0 0 1 4.335 4.335l.694 1.56c.173.521.867.521 1.04 0l.694-1.56c.694-1.907 2.254-3.468 4.335-4.335M49.712 42.776l1.03-.517c.344-.173.344-.518 0-.69l-1.03-.345a4.92 4.92 0 0 1-2.918-2.93l-.515-1.035c-.172-.345-.515-.345-.687 0l-.343 1.034c-.687 1.38-1.717 2.414-2.919 2.931l-1.201.517c-.172 0-.172.518 0 .518l1.03.517c1.373.517 2.403 1.552 3.09 2.93l.515 1.035c.172.345.515.345.687 0l.343-1.034a4.92 4.92 0 0 1 2.918-2.931M62.936 28.05l.925-.314q.278-.236 0-.472l-.925-.315c-1.11-.314-1.85-1.1-2.404-2.045l-.37-.786q-.277-.235-.555 0l-.37.787c-.37.943-1.295 1.572-2.405 2.044l-.554.315c-.37.157-.37.472 0 .472l.924.315c1.11.314 1.85 1.1 2.405 2.045l.37.786q.277.235.555 0l.37-.787c.185-.943 1.11-1.73 2.034-2.044M53.659 127.457l1.873-.833a.65.65 0 0 0 0-1.248l-1.873-.833a10.55 10.55 0 0 1-5.202-5.202l-.833-1.873a.65.65 0 0 0-1.248 0l-.833 1.873a10.55 10.55 0 0 1-5.202 5.202l-1.873.833a.65.65 0 0 0 0 1.248l1.873.833a10.55 10.55 0 0 1 5.202 5.202l.833 1.873a.65.65 0 0 0 1.248 0l.833-1.873c.832-2.289 2.705-4.162 5.202-5.202M181.712 100.198l1.03-.465c.344-.155.344-.466 0-.62l-1.03-.311c-1.373-.466-2.403-1.397-2.918-2.638l-.515-.931c-.172-.31-.515-.31-.687 0l-.343.93c-.687 1.242-1.717 2.173-2.919 2.639l-1.201.465c-.172 0-.172.466 0 .466l1.03.465c1.373.466 2.403 1.397 3.09 2.638l.515.931c.172.311.515.311.687 0l.343-.931c.515-1.241 1.545-2.172 2.918-2.638"/><path fill="#2d5887" d="M80.369 70.117h-.557c-.417 0-.695-.13-.695-.324 0-.195.278-.325.695-.325h.557c.417 0 .695.13.695.325 0 .194-.278.324-.695.324M80.369 72.712h-.557c-.417 0-.695-.13-.695-.324 0-.195.278-.325.695-.325h.557c.417 0 .695.13.695.325s-.278.324-.695.324M80.369 75.308h-.557c-.417 0-.695-.13-.695-.324 0-.195.278-.325.695-.325h.557c.417 0 .695.13.695.325 0 .194-.278.324-.695.324M80.369 77.904h-.557c-.417 0-.695-.13-.695-.324 0-.195.278-.325.695-.325h.557c.417 0 .695.13.695.325s-.278.324-.695.324"/><path fill="#fff" d="M105.754 70.117h-9.147c-.37 0-.618-.13-.618-.324 0-.195.248-.325.618-.325h9.147c.371 0 .618.13.618.325 0 .194-.247.324-.618.324"/><path fill="url(#a)" d="M125.243 77.904H96.586c-.358 0-.597-.13-.597-.324 0-.195.24-.325.597-.325h28.657c.359 0 .597.13.597.325s-.238.324-.597.324"/><path fill="#2d5887" d="M105.79 72.712H93.327c-.35 0-.582-.13-.582-.324 0-.195.233-.325.582-.325h12.463c.349 0 .582.13.582.325s-.233.324-.582.324M115.525 75.308h-22.2c-.348 0-.58-.13-.58-.324 0-.195.232-.325.58-.325h22.2c.349 0 .581.13.581.325a.7.7 0 0 1-.581.324"/><path fill="#fff" d="M125.208 75.308h-8.47c-.379 0-.632-.13-.632-.324 0-.195.253-.325.632-.325h8.47c.38 0 .632.13.632.325 0 .194-.252.324-.632.324"/><path fill="url(#b)" d="M130.418 75.308h-3.315c-.368 0-.614-.13-.614-.324 0-.195.246-.325.614-.325h3.315c.368 0 .614.13.614.325 0 .194-.246.324-.614.324"/><path fill="url(#c)" d="M135.574 69.468V111H76.692c-2.322 0-4.064-1.866-4.064-4.083V69.468z"/><path fill="#dae1ed" d="M158.936 69.468v37.449c0 2.333-1.937 4.083-4.236 4.083h-19.126V69.468z"/><g filter="url(#d)"><path fill="#3a3a3a" d="M158.936 69.468v37.449c0 2.333-1.937 4.083-4.236 4.083h-19.126V69.468z"/></g><path fill="#c5cddb" d="M95.34 69.468 107.722 50h63.544l-12.732 19.468z"/><path fill="url(#e)" d="M95.34 69.468 107.722 50h63.544l-12.732 19.468z"/><path fill="url(#f)" d="M158.936 69.582v21.95h-17.034c-1.582 0-2.677-1.023-2.921-2.502l-3.407-19.562z" opacity=".3"/><path fill="url(#g)" d="M158.447 69.468h-22.873l11.614 17.603c.83 1.166 2.133 1.865 3.437 1.865h17.776c1.185 0 2.015-1.399 1.304-2.331z"/><g filter="url(#h)"><path fill="#3a3a3a" d="M135.574 69.468 123.106 50H59l12.939 19.468z"/></g><path fill="#d1d1d1" d="M104.042 93.479H79.5c-.573 0-1.032-.433-1.032-.974s.459-.973 1.032-.973h24.542c.574 0 1.033.432 1.033.973-.115.54-.459.974-1.033.974M104.042 98.021H79.5c-.573 0-1.032-.288-1.032-.649 0-.36.459-.649 1.032-.649h24.542c.574 0 1.033.289 1.033.65-.115.36-.459.648-1.033.648M91.048 103.212H79.516c-.582 0-1.048-.288-1.048-.649 0-.36.466-.648 1.048-.648h11.531c.583 0 1.049.288 1.049.648-.117.361-.583.649-1.049.649"/><g filter="url(#i)" shape-rendering="crispEdges"><path fill="url(#j)" d="M169.485 120.45c-.346 1.47-.865 3.027-1.47 4.325-1.644 3.2-4.238 5.708-7.439 7.352-3.287 1.643-7.179 2.335-11.071 1.47-9.169-1.903-15.05-10.898-13.147-20.067 1.902-9.168 10.811-15.136 19.98-13.147 3.287.692 6.141 2.335 8.563 4.584 4.065 4.065 5.795 9.947 4.584 15.483"/><path stroke="url(#k)" stroke-miterlimit="10" d="M169.485 120.45c-.346 1.47-.865 3.027-1.47 4.325-1.644 3.2-4.238 5.708-7.439 7.352-3.287 1.643-7.179 2.335-11.071 1.47-9.169-1.903-15.05-10.898-13.147-20.067 1.902-9.168 10.811-15.136 19.98-13.147 3.287.692 6.141 2.335 8.563 4.584 4.065 4.065 5.795 9.947 4.584 15.483Z"/></g><g filter="url(#l)"><mask id="o" fill="#fff"><path d="M158.202 123.852a.5.5 0 1 1 0 1h-10a.5.5 0 0 1 0-1zm0-2a.5.5 0 1 1 0 1h-10a.5.5 0 0 1 0-1zm-5.318-11.738a.5.5 0 0 1 .637 0l7.701 6.352a.5.5 0 0 1-.319.886h-2.201v3a.5.5 0 0 1-.5.5h-10a.5.5 0 0 1-.5-.5v-3h-2.201a.5.5 0 0 1-.318-.886z"/></mask><path fill="url(#m)" d="M158.202 123.852a.5.5 0 1 1 0 1h-10a.5.5 0 0 1 0-1zm0-2a.5.5 0 1 1 0 1h-10a.5.5 0 0 1 0-1zm-5.318-11.738a.5.5 0 0 1 .637 0l7.701 6.352a.5.5 0 0 1-.319.886h-2.201v3a.5.5 0 0 1-.5.5h-10a.5.5 0 0 1-.5-.5v-3h-2.201a.5.5 0 0 1-.318-.886z"/><path fill="url(#n)" d="M148.202 124.852v.3zm0-1v-.3zm0-1v.3zm0-1v-.3zm4.682-11.738.191.232zm.637 0-.191.232zm7.701 6.352.191-.232zm-2.52.886v-.3h-.3v.3zm-10.5 3.5v.3zm-.5-3.5h.3v-.3h-.3zm-2.201 0v.3zm-.318-.886-.191-.232zm13.019 7.386v.3a.2.2 0 0 1 .2.2h.6a.8.8 0 0 0-.8-.8zm.5.5h-.3a.2.2 0 0 1-.2.2v.6a.8.8 0 0 0 .8-.8zm-.5.5v-.3h-10v.6h10zm-10 0v-.3a.2.2 0 0 1-.2-.2h-.6c0 .441.358.799.8.8zm-.5-.5h.3a.2.2 0 0 1 .2-.2v-.6a.8.8 0 0 0-.8.8zm.5-.5v.3h10v-.6h-10zm10-2v.3a.2.2 0 0 1 .2.2h.6a.8.8 0 0 0-.8-.8zm.5.5h-.3a.2.2 0 0 1-.2.2v.6a.8.8 0 0 0 .8-.8zm-.5.5v-.3h-10v.6h10zm-10 0v-.3a.2.2 0 0 1-.2-.2h-.6c0 .441.358.799.8.8zm-.5-.5h.3a.2.2 0 0 1 .2-.2v-.6a.8.8 0 0 0-.8.8zm.5-.5v.3h10v-.6h-10zm4.682-11.738.191.232a.2.2 0 0 1 .255 0l.191-.232.19-.231a.8.8 0 0 0-1.018 0zm.637 0-.191.232 7.701 6.351.191-.231.191-.232-7.702-6.351zm7.701 6.352-.191.231a.2.2 0 0 1-.128.355v.6c.75 0 1.089-.94.51-1.418zm-.319.886v-.3h-2.201v.6h2.201zm-2.201 0h-.3v3h.6v-3zm0 3h-.3a.2.2 0 0 1-.2.2v.6a.8.8 0 0 0 .8-.8zm-.5.5v-.3h-10v.6h10zm-10 0v-.3a.2.2 0 0 1-.2-.2h-.6c0 .441.358.799.8.8zm-.5-.5h.3v-3h-.6v3zm0-3v-.3h-2.201v.6h2.201zm-2.201 0v-.3a.2.2 0 0 1-.127-.355l-.191-.231-.191-.232c-.579.478-.241 1.417.509 1.418zm-.318-.886.19.231 7.702-6.351-.191-.232-.191-.231-7.701 6.351z" mask="url(#o)"/></g><defs><linearGradient id="a" x1="96.123" x2="125.875" y1="77.593" y2="77.593" gradientUnits="userSpaceOnUse"><stop stop-color="#ff66a9"/><stop offset="1" stop-color="#f53689"/></linearGradient><linearGradient id="b" x1="126.52" x2="131.031" y1="74.964" y2="74.964" gradientUnits="userSpaceOnUse"><stop stop-color="#83a6ff"/><stop offset="1" stop-color="#5a78ff"/></linearGradient><linearGradient id="c" x1="104.081" x2="104.081" y1="68.508" y2="111.448" gradientUnits="userSpaceOnUse"><stop stop-color="#5c5c5c"/><stop offset=".996" stop-color="#4d4d4d"/></linearGradient><linearGradient id="e" x1="133.278" x2="133.278" y1="49.55" y2="69.678" gradientUnits="userSpaceOnUse"><stop stop-color="#5c5c5c"/><stop offset=".996" stop-color="#3a3a3a"/></linearGradient><linearGradient id="f" x1="147.261" x2="147.261" y1="91.985" y2="71.887" gradientUnits="userSpaceOnUse"><stop offset=".003" stop-color="#1c1c1c"/><stop offset="1" stop-color="#1d1d1d"/></linearGradient><linearGradient id="g" x1="152.76" x2="152.76" y1="69.018" y2="89.146" gradientUnits="userSpaceOnUse"><stop stop-color="#5c5c5c"/><stop offset=".996" stop-color="#4d4d4d"/></linearGradient><linearGradient id="j" x1="152.932" x2="152.932" y1="100" y2="133.972" gradientUnits="userSpaceOnUse"><stop stop-color="#4d4d4d"/><stop offset=".828" stop-color="#373737"/></linearGradient><linearGradient id="k" x1="152.932" x2="152.932" y1="100" y2="133.972" gradientUnits="userSpaceOnUse"><stop stop-color="#696969"/><stop offset=".284" stop-color="#333" stop-opacity="0"/></linearGradient><linearGradient id="m" x1="153.202" x2="153.202" y1="110" y2="124.852" gradientUnits="userSpaceOnUse"><stop stop-color="#ffeaaa"/><stop offset="1" stop-color="#fc3"/></linearGradient><linearGradient id="n" x1="145" x2="161.405" y1="117.426" y2="117.426" gradientUnits="userSpaceOnUse"><stop stop-color="#ffeaaa"/><stop offset="1" stop-color="#e7b10e"/></linearGradient><filter id="d" width="67.362" height="85.532" x="113.574" y="58.468" color-interpolation-filters="sRGB" filterUnits="userSpaceOnUse"><feFlood flood-opacity="0" result="BackgroundImageFix"/><feColorMatrix in="SourceAlpha" result="hardAlpha" values="0 0 0 0 0 0 0 0 0 0 0 0 0 0 0 0 0 0 127 0"/><feOffset dy="11"/><feGaussianBlur stdDeviation="11"/><feColorMatrix values="0 0 0 0 0 0 0 0 0 0 0 0 0 0 0 0 0 0 0.27 0"/><feBlend in2="BackgroundImageFix" result="effect1_dropShadow_7243_2019"/><feBlend in="SourceGraphic" in2="effect1_dropShadow_7243_2019" result="shape"/></filter><filter id="h" width="120.574" height="63.468" x="37" y="39" color-interpolation-filters="sRGB" filterUnits="userSpaceOnUse"><feFlood flood-opacity="0" result="BackgroundImageFix"/><feColorMatrix in="SourceAlpha" result="hardAlpha" values="0 0 0 0 0 0 0 0 0 0 0 0 0 0 0 0 0 0 127 0"/><feOffset dy="11"/><feGaussianBlur stdDeviation="11"/><feColorMatrix values="0 0 0 0 0 0 0 0 0 0 0 0 0 0 0 0 0 0 0.27 0"/><feBlend in2="BackgroundImageFix" result="effect1_dropShadow_7243_2019"/><feBlend in="SourceGraphic" in2="effect1_dropShadow_7243_2019" result="shape"/></filter><filter id="i" width="66.865" height="66.972" x="119.5" y="87.499" color-interpolation-filters="sRGB" filterUnits="userSpaceOnUse"><feFlood flood-opacity="0" result="BackgroundImageFix"/><feColorMatrix in="SourceAlpha" result="hardAlpha" values="0 0 0 0 0 0 0 0 0 0 0 0 0 0 0 0 0 0 127 0"/><feOffset dy="4"/><feGaussianBlur stdDeviation="8"/><feComposite in2="hardAlpha" operator="out"/><feColorMatrix values="0 0 0 0 0 0 0 0 0 0 0 0 0 0 0 0 0 0 0.8 0"/><feBlend in2="BackgroundImageFix" result="effect1_dropShadow_7243_2019"/><feColorMatrix in="SourceAlpha" result="hardAlpha" values="0 0 0 0 0 0 0 0 0 0 0 0 0 0 0 0 0 0 127 0"/><feOffset dy="1"/><feGaussianBlur stdDeviation="1"/><feComposite in2="hardAlpha" operator="out"/><feColorMatrix values="0 0 0 0 0 0 0 0 0 0 0 0 0 0 0 0 0 0 0.3 0"/><feBlend in2="effect1_dropShadow_7243_2019" result="effect2_dropShadow_7243_2019"/><feBlend in="SourceGraphic" in2="effect2_dropShadow_7243_2019" result="shape"/></filter><filter id="l" width="46.404" height="44.852" x="129" y="91" color-interpolation-filters="sRGB" filterUnits="userSpaceOnUse"><feFlood flood-opacity="0" result="BackgroundImageFix"/><feColorMatrix in="SourceAlpha" result="hardAlpha" values="0 0 0 0 0 0 0 0 0 0 0 0 0 0 0 0 0 0 127 0"/><feOffset dx="-1" dy="-4"/><feGaussianBlur stdDeviation="7.5"/><feComposite in2="hardAlpha" operator="out"/><feColorMatrix values="0 0 0 0 1 0 0 0 0 0.8 0 0 0 0 0.2 0 0 0 1 0"/><feBlend in2="BackgroundImageFix" result="effect1_dropShadow_7243_2019"/><feColorMatrix in="SourceAlpha" result="hardAlpha" values="0 0 0 0 0 0 0 0 0 0 0 0 0 0 0 0 0 0 127 0"/><feOffset dy="2"/><feGaussianBlur stdDeviation="4"/><feComposite in2="hardAlpha" operator="out"/><feColorMatrix values="0 0 0 0 0 0 0 0 0 0 0 0 0 0 0 0 0 0 0.5 0"/><feBlend in2="effect1_dropShadow_7243_2019" result="effect2_dropShadow_7243_2019"/><feBlend in="SourceGraphic" in2="effect2_dropShadow_7243_2019" result="shape"/></filter></defs></svg>