<svg xmlns="http://www.w3.org/2000/svg" width="230" height="160" fill="none"><path fill="#f5f5f5" d="M115 134.5c30.376 0 55-24.624 55-55s-24.624-55-55-55-55 24.624-55 55 24.624 55 55 55"/><path fill="#ebe2d7" d="m191.049 74.214 1.561-.694a.542.542 0 0 0 0-1.04l-1.561-.694a8.8 8.8 0 0 1-4.335-4.335l-.694-1.56a.542.542 0 0 0-1.04 0l-.694 1.56a8.8 8.8 0 0 1-4.335 4.335l-1.561.694a.542.542 0 0 0 0 1.04l1.561.694a8.8 8.8 0 0 1 4.335 4.335l.694 1.56c.173.521.867.521 1.04 0l.694-1.56c.694-1.907 2.254-3.468 4.335-4.335M49.712 43.276l1.03-.517c.344-.173.344-.518 0-.69l-1.03-.345a4.92 4.92 0 0 1-2.918-2.93l-.515-1.035c-.172-.345-.515-.345-.687 0l-.343 1.034c-.687 1.38-1.717 2.414-2.919 2.931l-1.201.517c-.172 0-.172.518 0 .518l1.03.517c1.373.517 2.403 1.552 3.09 2.93l.515 1.035c.172.345.515.345.687 0l.343-1.034a4.92 4.92 0 0 1 2.918-2.931M62.936 28.55l.925-.314q.278-.236 0-.472l-.925-.315c-1.11-.314-1.85-1.1-2.404-2.045l-.37-.786q-.277-.235-.555 0l-.37.787c-.37.943-1.295 1.572-2.405 2.044l-.554.315c-.37.157-.37.472 0 .472l.924.315c1.11.314 1.85 1.1 2.405 2.045l.37.786q.277.235.555 0l.37-.787c.185-.943 1.11-1.73 2.034-2.044M53.659 127.957l1.873-.833a.65.65 0 0 0 0-1.248l-1.873-.833a10.55 10.55 0 0 1-5.202-5.202l-.833-1.873a.65.65 0 0 0-1.248 0l-.833 1.873a10.55 10.55 0 0 1-5.202 5.202l-1.873.833a.65.65 0 0 0 0 1.248l1.873.833a10.55 10.55 0 0 1 5.202 5.202l.833 1.873a.65.65 0 0 0 1.248 0l.833-1.873c.832-2.289 2.705-4.162 5.202-5.202M181.712 100.698l1.03-.465c.344-.155.344-.466 0-.62l-1.03-.311c-1.373-.466-2.403-1.397-2.918-2.638l-.515-.931c-.172-.31-.515-.31-.687 0l-.343.93c-.687 1.242-1.717 2.173-2.919 2.639l-1.201.465c-.172 0-.172.466 0 .466l1.03.465c1.373.466 2.403 1.397 3.09 2.638l.515.931c.172.311.515.311.687 0l.343-.931c.515-1.241 1.545-2.172 2.918-2.638"/><path fill="#2d5887" d="M80.369 70.617h-.557c-.417 0-.695-.13-.695-.324 0-.195.278-.325.695-.325h.557c.417 0 .695.13.695.325 0 .194-.278.324-.695.324M80.369 73.212h-.557c-.417 0-.695-.13-.695-.324 0-.195.278-.325.695-.325h.557c.417 0 .695.13.695.325s-.278.324-.695.324M80.369 75.808h-.557c-.417 0-.695-.13-.695-.324 0-.195.278-.325.695-.325h.557c.417 0 .695.13.695.325 0 .194-.278.324-.695.324M80.369 78.404h-.557c-.417 0-.695-.13-.695-.324 0-.195.278-.325.695-.325h.557c.417 0 .695.13.695.325s-.278.324-.695.324"/><path fill="#fff" d="M105.754 70.617h-9.147c-.37 0-.618-.13-.618-.324 0-.195.248-.325.618-.325h9.147c.371 0 .618.13.618.325 0 .194-.247.324-.618.324"/><path fill="url(#a)" d="M125.243 78.404H96.586c-.358 0-.597-.13-.597-.324 0-.195.24-.325.597-.325h28.657c.359 0 .597.13.597.325s-.238.324-.597.324"/><path fill="#2d5887" d="M105.79 73.212H93.327c-.35 0-.582-.13-.582-.324 0-.195.233-.325.582-.325h12.463c.349 0 .582.13.582.325s-.233.324-.582.324M115.525 75.808h-22.2c-.348 0-.58-.13-.58-.324 0-.195.232-.325.58-.325h22.2c.349 0 .581.13.581.325a.7.7 0 0 1-.581.324"/><path fill="#fff" d="M125.208 75.808h-8.47c-.379 0-.632-.13-.632-.324 0-.195.253-.325.632-.325h8.47c.38 0 .632.13.632.325 0 .194-.252.324-.632.324"/><path fill="url(#b)" d="M130.418 75.808h-3.315c-.368 0-.614-.13-.614-.324 0-.195.246-.325.614-.325h3.315c.368 0 .614.13.614.325 0 .194-.246.324-.614.324"/><g filter="url(#c)"><path fill="url(#d)" d="M135.574 69.968V111.5H76.692c-2.322 0-4.064-1.866-4.064-4.083V69.968z"/></g><path fill="#dae1ed" d="M158.936 69.968v37.449c0 2.333-1.937 4.083-4.236 4.083h-19.126V69.968z"/><g filter="url(#e)"><path fill="#e4e0da" d="M158.936 69.968v37.449c0 2.333-1.937 4.083-4.236 4.083h-19.126V69.968z"/></g><path fill="#c5cddb" d="M95.34 69.968 107.722 50.5h63.544l-12.732 19.468z"/><g filter="url(#f)"><path fill="url(#g)" d="M95.34 69.968 107.722 50.5h63.544l-12.732 19.468z"/></g><path fill="#9da0a5" d="M158.936 70.082v21.95h-17.034c-1.582 0-2.677-1.023-2.921-2.502l-3.407-19.562z" opacity=".3"/><g filter="url(#h)"><path fill="url(#i)" d="M158.447 69.968h-22.873l11.614 17.603c.83 1.166 2.133 1.865 3.437 1.865h17.776c1.185 0 2.015-1.399 1.304-2.331z"/></g><g filter="url(#j)"><path fill="#cec8be" d="M135.574 69.968 123.106 50.5H59l12.939 19.468z"/></g><path fill="#868582" d="M104.042 93.979H79.5c-.573 0-1.032-.433-1.032-.974s.459-.973 1.032-.973h24.542c.574 0 1.033.432 1.033.973-.115.54-.459.974-1.033.974M104.042 98.521H79.5c-.573 0-1.032-.288-1.032-.649 0-.36.459-.649 1.032-.649h24.542c.574 0 1.033.289 1.033.65-.115.36-.459.648-1.033.648M91.048 103.712H79.516c-.582 0-1.048-.288-1.048-.649 0-.36.466-.648 1.048-.648h11.531c.583 0 1.049.288 1.049.648-.117.361-.583.649-1.049.649"/><g filter="url(#k)"><path fill="url(#l)" d="M169.485 120.95c-.346 1.47-.865 3.027-1.47 4.325-1.644 3.2-4.238 5.708-7.439 7.352-3.287 1.643-7.179 2.335-11.071 1.47-9.169-1.903-15.05-10.898-13.147-20.067 1.902-9.168 10.811-15.136 19.98-13.147 3.287.692 6.141 2.335 8.563 4.584 4.065 4.065 5.795 9.947 4.584 15.483"/><path fill="url(#m)" fill-opacity=".7" d="M169.485 120.95c-.346 1.47-.865 3.027-1.47 4.325-1.644 3.2-4.238 5.708-7.439 7.352-3.287 1.643-7.179 2.335-11.071 1.47-9.169-1.903-15.05-10.898-13.147-20.067 1.902-9.168 10.811-15.136 19.98-13.147 3.287.692 6.141 2.335 8.563 4.584 4.065 4.065 5.795 9.947 4.584 15.483"/><path stroke="url(#n)" d="M136.847 114.132c1.848-8.904 10.495-14.69 19.384-12.761l.004.001c3.184.67 5.959 2.264 8.326 4.461 3.935 3.944 5.607 9.642 4.437 15.002-.339 1.44-.846 2.96-1.434 4.221-1.593 3.097-4.107 5.529-7.216 7.126-3.197 1.597-6.971 2.264-10.735 1.427l-.096.433.096-.434-.007-.001-.415-.091c-8.658-2.028-14.162-10.624-12.344-19.384Z"/></g><g filter="url(#o)"><mask id="q" fill="#fff"><path d="M158.202 124.352a.5.5 0 1 1 0 1h-10a.5.5 0 0 1 0-1zm0-2a.5.5 0 1 1 0 1h-10a.5.5 0 0 1 0-1zm-5.318-11.738a.5.5 0 0 1 .637 0l7.701 6.352a.5.5 0 0 1-.319.886h-2.201v3a.5.5 0 0 1-.5.5h-10a.5.5 0 0 1-.5-.5v-3h-2.201a.5.5 0 0 1-.318-.886z"/></mask><path fill="url(#p)" d="M158.202 124.352a.5.5 0 1 1 0 1h-10a.5.5 0 0 1 0-1zm0-2a.5.5 0 1 1 0 1h-10a.5.5 0 0 1 0-1zm-5.318-11.738a.5.5 0 0 1 .637 0l7.701 6.352a.5.5 0 0 1-.319.886h-2.201v3a.5.5 0 0 1-.5.5h-10a.5.5 0 0 1-.5-.5v-3h-2.201a.5.5 0 0 1-.318-.886z"/><path fill="#fde290" d="M148.202 125.352v.2zm0-1v-.2zm0-1v.2zm0-1v-.2zm4.682-11.738.127.155zm.637 0-.128.155zm7.701 6.352.127-.154zm-2.52.886v-.2h-.2v.2zm-10.5 3.5v.2zm-.5-3.5h.2v-.2h-.2zm-2.201 0v.2zm-.318-.886-.128-.154zm13.019 7.386v.2a.3.3 0 0 1 .3.3h.4a.7.7 0 0 0-.7-.7zm.5.5h-.2a.3.3 0 0 1-.3.3v.4a.7.7 0 0 0 .7-.7zm-.5.5v-.2h-10v.4h10zm-10 0v-.2a.3.3 0 0 1-.3-.3h-.4c0 .386.314.699.7.7zm-.5-.5h.2a.3.3 0 0 1 .3-.3v-.4a.7.7 0 0 0-.7.7zm.5-.5v.2h10v-.4h-10zm10-2v.2a.3.3 0 0 1 .3.3h.4a.7.7 0 0 0-.7-.7zm.5.5h-.2a.3.3 0 0 1-.3.3v.4a.7.7 0 0 0 .7-.7zm-.5.5v-.2h-10v.4h10zm-10 0v-.2a.3.3 0 0 1-.3-.3h-.4c0 .386.314.699.7.7zm-.5-.5h.2a.3.3 0 0 1 .3-.3v-.4a.7.7 0 0 0-.7.7zm.5-.5v.2h10v-.4h-10zm4.682-11.738.127.155a.3.3 0 0 1 .382 0l.128-.155.127-.154a.7.7 0 0 0-.891 0zm.637 0-.128.155 7.701 6.351.128-.154.127-.154-7.701-6.352zm7.701 6.352-.128.154a.3.3 0 0 1-.191.532v.4c.657 0 .953-.823.446-1.24zm-.319.886v-.2h-2.201v.4h2.201zm-2.201 0h-.2v3h.4v-3zm0 3h-.2a.3.3 0 0 1-.3.3v.4a.7.7 0 0 0 .7-.7zm-.5.5v-.2h-10v.4h10zm-10 0v-.2a.3.3 0 0 1-.3-.3h-.4c0 .386.314.699.7.7zm-.5-.5h.2v-3h-.4v3zm0-3v-.2h-2.201v.4h2.201zm-2.201 0v-.2a.3.3 0 0 1-.191-.532l-.127-.154-.128-.154c-.506.417-.21 1.239.446 1.24zm-.318-.886.127.154 7.701-6.351-.127-.155-.127-.154-7.702 6.352z" mask="url(#q)"/></g><defs><linearGradient id="a" x1="96.123" x2="125.875" y1="78.093" y2="78.093" gradientUnits="userSpaceOnUse"><stop stop-color="#ff66a9"/><stop offset="1" stop-color="#f53689"/></linearGradient><linearGradient id="b" x1="126.52" x2="131.031" y1="75.464" y2="75.464" gradientUnits="userSpaceOnUse"><stop stop-color="#83a6ff"/><stop offset="1" stop-color="#5a78ff"/></linearGradient><linearGradient id="d" x1="73.953" x2="73.953" y1="19.019" y2="66.142" gradientUnits="userSpaceOnUse"><stop stop-color="#fff"/><stop offset=".996" stop-color="#e9e5e0"/></linearGradient><linearGradient id="g" x1="133.278" x2="133.278" y1="50.05" y2="70.178" gradientUnits="userSpaceOnUse"><stop stop-color="#fff"/><stop offset=".996" stop-color="#ede6dc"/></linearGradient><linearGradient id="i" x1="152.76" x2="152.76" y1="69.518" y2="89.646" gradientUnits="userSpaceOnUse"><stop stop-color="#fdfeff"/><stop offset=".996" stop-color="#e5e1db"/></linearGradient><linearGradient id="l" x1="152.921" x2="152.921" y1="99.714" y2="134.838" gradientUnits="userSpaceOnUse"><stop stop-color="#d5d4d4"/><stop offset=".996" stop-color="#828282"/></linearGradient><linearGradient id="n" x1="152.932" x2="152.932" y1="100.5" y2="134.472" gradientUnits="userSpaceOnUse"><stop offset=".024" stop-color="#fff2cb"/><stop offset=".13" stop-color="#ededed"/><stop offset=".496" stop-color="#b6b6b6" stop-opacity="0"/></linearGradient><linearGradient id="p" x1="153.202" x2="153.202" y1="110.5" y2="125.352" gradientUnits="userSpaceOnUse"><stop stop-color="#ffe8a4"/><stop offset="1" stop-color="#ffd24a"/></linearGradient><filter id="c" width="94.947" height="73.532" x="56.628" y="59.968" color-interpolation-filters="sRGB" filterUnits="userSpaceOnUse"><feFlood flood-opacity="0" result="BackgroundImageFix"/><feColorMatrix in="SourceAlpha" result="hardAlpha" values="0 0 0 0 0 0 0 0 0 0 0 0 0 0 0 0 0 0 127 0"/><feOffset dy="6"/><feGaussianBlur stdDeviation="8"/><feColorMatrix values="0 0 0 0 0.576471 0 0 0 0 0.501961 0 0 0 0 0.396078 0 0 0 0.37 0"/><feBlend in2="BackgroundImageFix" result="effect1_dropShadow_7243_1990"/><feBlend in="SourceGraphic" in2="effect1_dropShadow_7243_1990" result="shape"/></filter><filter id="e" width="67.362" height="85.532" x="113.574" y="58.968" color-interpolation-filters="sRGB" filterUnits="userSpaceOnUse"><feFlood flood-opacity="0" result="BackgroundImageFix"/><feColorMatrix in="SourceAlpha" result="hardAlpha" values="0 0 0 0 0 0 0 0 0 0 0 0 0 0 0 0 0 0 127 0"/><feOffset dy="11"/><feGaussianBlur stdDeviation="11"/><feColorMatrix values="0 0 0 0 0.397708 0 0 0 0 0.47749 0 0 0 0 0.575 0 0 0 0.16 0"/><feBlend in2="BackgroundImageFix" result="effect1_dropShadow_7243_1990"/><feBlend in="SourceGraphic" in2="effect1_dropShadow_7243_1990" result="shape"/></filter><filter id="f" width="119.925" height="63.468" x="73.34" y="39.5" color-interpolation-filters="sRGB" filterUnits="userSpaceOnUse"><feFlood flood-opacity="0" result="BackgroundImageFix"/><feColorMatrix in="SourceAlpha" result="hardAlpha" values="0 0 0 0 0 0 0 0 0 0 0 0 0 0 0 0 0 0 127 0"/><feOffset dy="11"/><feGaussianBlur stdDeviation="11"/><feColorMatrix values="0 0 0 0 0.576471 0 0 0 0 0.501961 0 0 0 0 0.396078 0 0 0 0.16 0"/><feBlend in2="BackgroundImageFix" result="effect1_dropShadow_7243_1990"/><feColorMatrix in="SourceAlpha" result="hardAlpha" values="0 0 0 0 0 0 0 0 0 0 0 0 0 0 0 0 0 0 127 0"/><feOffset dx="4"/><feGaussianBlur stdDeviation="3"/><feComposite in2="hardAlpha" operator="out"/><feColorMatrix values="0 0 0 0 0.712712 0 0 0 0 0.678163 0 0 0 0 0.629794 0 0 0 0.05 0"/><feBlend in2="effect1_dropShadow_7243_1990" result="effect2_dropShadow_7243_1990"/><feBlend in="SourceGraphic" in2="effect2_dropShadow_7243_1990" result="shape"/></filter><filter id="h" width="78.394" height="63.468" x="113.574" y="58.968" color-interpolation-filters="sRGB" filterUnits="userSpaceOnUse"><feFlood flood-opacity="0" result="BackgroundImageFix"/><feColorMatrix in="SourceAlpha" result="hardAlpha" values="0 0 0 0 0 0 0 0 0 0 0 0 0 0 0 0 0 0 127 0"/><feOffset dy="11"/><feGaussianBlur stdDeviation="11"/><feColorMatrix values="0 0 0 0 0.576471 0 0 0 0 0.501961 0 0 0 0 0.396078 0 0 0 0.16 0"/><feBlend in2="BackgroundImageFix" result="effect1_dropShadow_7243_1990"/><feBlend in="SourceGraphic" in2="effect1_dropShadow_7243_1990" result="shape"/></filter><filter id="j" width="120.574" height="63.468" x="37" y="39.5" color-interpolation-filters="sRGB" filterUnits="userSpaceOnUse"><feFlood flood-opacity="0" result="BackgroundImageFix"/><feColorMatrix in="SourceAlpha" result="hardAlpha" values="0 0 0 0 0 0 0 0 0 0 0 0 0 0 0 0 0 0 127 0"/><feOffset dy="11"/><feGaussianBlur stdDeviation="11"/><feColorMatrix values="0 0 0 0 0.576471 0 0 0 0 0.501961 0 0 0 0 0.396078 0 0 0 0.16 0"/><feBlend in2="BackgroundImageFix" result="effect1_dropShadow_7243_1990"/><feBlend in="SourceGraphic" in2="effect1_dropShadow_7243_1990" result="shape"/></filter><filter id="k" width="65.865" height="65.972" x="122" y="90.5" color-interpolation-filters="sRGB" filterUnits="userSpaceOnUse"><feFlood flood-opacity="0" result="BackgroundImageFix"/><feColorMatrix in="SourceAlpha" result="hardAlpha" values="0 0 0 0 0 0 0 0 0 0 0 0 0 0 0 0 0 0 127 0"/><feOffset dx="2" dy="6"/><feGaussianBlur stdDeviation="8"/><feComposite in2="hardAlpha" operator="out"/><feColorMatrix values="0 0 0 0 0 0 0 0 0 0 0 0 0 0 0 0 0 0 0.24 0"/><feBlend in2="BackgroundImageFix" result="effect1_dropShadow_7243_1990"/><feColorMatrix in="SourceAlpha" result="hardAlpha" values="0 0 0 0 0 0 0 0 0 0 0 0 0 0 0 0 0 0 127 0"/><feOffset dy="1"/><feGaussianBlur stdDeviation="1"/><feComposite in2="hardAlpha" operator="out"/><feColorMatrix values="0 0 0 0 0 0 0 0 0 0 0 0 0 0 0 0 0 0 0.24 0"/><feBlend in2="effect1_dropShadow_7243_1990" result="effect2_dropShadow_7243_1990"/><feBlend in="SourceGraphic" in2="effect2_dropShadow_7243_1990" result="shape"/></filter><filter id="o" width="48.404" height="46.852" x="129" y="94.5" color-interpolation-filters="sRGB" filterUnits="userSpaceOnUse"><feFlood flood-opacity="0" result="BackgroundImageFix"/><feColorMatrix in="SourceAlpha" result="hardAlpha" values="0 0 0 0 0 0 0 0 0 0 0 0 0 0 0 0 0 0 127 0"/><feOffset dy="2"/><feGaussianBlur stdDeviation="2"/><feComposite in2="hardAlpha" operator="out"/><feColorMatrix values="0 0 0 0 0 0 0 0 0 0 0 0 0 0 0 0 0 0 0.23 0"/><feBlend in2="BackgroundImageFix" result="effect1_dropShadow_7243_1990"/><feColorMatrix in="SourceAlpha" result="hardAlpha" values="0 0 0 0 0 0 0 0 0 0 0 0 0 0 0 0 0 0 127 0"/><feOffset/><feGaussianBlur stdDeviation="8"/><feComposite in2="hardAlpha" operator="out"/><feColorMatrix values="0 0 0 0 1 0 0 0 0 0.905273 0 0 0 0 0.621094 0 0 0 1 0"/><feBlend in2="effect1_dropShadow_7243_1990" result="effect2_dropShadow_7243_1990"/><feBlend in="SourceGraphic" in2="effect2_dropShadow_7243_1990" result="shape"/></filter><radialGradient id="m" cx="0" cy="0" r="1" gradientTransform="matrix(0 16.9858 -16.9323 0 152.932 117.486)" gradientUnits="userSpaceOnUse"><stop offset=".178" stop-color="#faedc4"/><stop offset="1" stop-color="#b9b9b9" stop-opacity="0"/></radialGradient></defs></svg>