<svg width="28" height="28" viewBox="0 0 28 28" fill="none" xmlns="http://www.w3.org/2000/svg">
<path d="M8.35352 5.75H7C6.30964 5.75 5.75 6.30964 5.75 7V23C5.75 23.6904 6.30964 24.25 7 24.25H13.2031C13.3586 24.5196 13.5986 24.7425 13.903 24.8751C14.1245 24.9716 14.3423 24.9871 14.4556 24.9933C14.5785 25 14.727 25 14.874 25L17.5003 25C17.5003 25.259 17.5331 25.5103 17.5948 25.75H7C5.48122 25.75 4.25 24.5188 4.25 23V7C4.25 5.48122 5.48122 4.25 7 4.25H8.35352C8.67998 3.09575 9.74122 2.25 11 2.25H17C18.2588 2.25 19.32 3.09575 19.6465 4.25H21C22.5188 4.25 23.75 5.48122 23.75 7V14.0623C23.2977 13.7305 22.7927 13.4661 22.25 13.2842V7C22.25 6.30964 21.6904 5.75 21 5.75H19.6465C19.32 6.90425 18.2588 7.75 17 7.75H11C9.74122 7.75 8.67998 6.90425 8.35352 5.75ZM9.75 5C9.75 5.69036 10.3096 6.25 11 6.25H17C17.6904 6.25 18.25 5.69036 18.25 5C18.25 4.30964 17.6904 3.75 17 3.75H11C10.3096 3.75 9.75 4.30964 9.75 5Z" fill="#212121"/>
<path d="M15.9982 18.5C15.9982 16.0147 18.0129 14 20.4982 14C22.9834 14 24.9982 16.0147 24.9982 18.5V21L26.6174 22.8756C26.8341 23.1266 26.9424 23.2521 26.9734 23.3516C27.049 23.5951 26.9294 23.8565 26.6956 23.9584C26.6001 24 26.4343 24 26.1027 24H14.8933C14.5617 24 14.3959 24 14.3004 23.9584C14.0666 23.8565 13.947 23.5951 14.0226 23.3516C14.0535 23.2521 14.1619 23.1266 14.3786 22.8756L15.9979 21L15.9982 18.5Z" fill="#212121"/>
<path d="M22.4982 25C22.4982 26.1046 21.6027 27 20.4982 27C19.3936 27 18.4982 26.1046 18.4982 25H22.4982Z" fill="#212121"/>
</svg>
