<svg width="20" height="20" viewBox="0 0 20 20" fill="none" xmlns="http://www.w3.org/2000/svg">
<path d="M7.08535 3C7.29127 2.4174 7.84689 2 8.5 2H11.5C12.1531 2 12.7087 2.4174 12.9146 3H14.5C15.3284 3 16 3.67157 16 4.5V9.29113C15.5366 9.10339 15.0299 9 14.4992 9C12.2901 9 10.4992 10.791 10.4992 13V14.5369L9.53285 15.3557C8.46811 16.2586 9.1058 18 10.5026 18H5.5C4.67157 18 4 17.3284 4 16.5V4.5C4 3.67157 4.67157 3 5.5 3H7.08535ZM8.5 3C8.22386 3 8 3.22386 8 3.5C8 3.77614 8.22386 4 8.5 4H11.5C11.7761 4 12 3.77614 12 3.5C12 3.22386 11.7761 3 11.5 3H8.5Z" fill="#212121"/>
<path d="M14.4994 10C12.8426 10 11.4994 11.3433 11.4994 13V15.0002L10.1795 16.1187C9.82456 16.4197 10.0374 17 10.5028 17H18.4959C18.9618 17 19.1747 16.4197 18.8192 16.1187L17.4994 15V13C17.4994 11.3433 16.1561 10 14.4994 10Z" fill="#212121"/>
<path d="M13.0848 18C13.2909 18.5825 13.8465 19 14.4994 19C15.1527 19 15.7083 18.5825 15.9139 18H13.0848Z" fill="#212121"/>
</svg>
