<svg width="32" height="32" viewBox="0 0 32 32" fill="none" xmlns="http://www.w3.org/2000/svg">
<path d="M23.5 4H21.8293C21.4175 2.83481 20.3062 2 19 2H13C11.6938 2 10.5825 2.83481 10.1707 4H8.5C6.567 4 5 5.567 5 7.5V26.5C5 28.433 6.567 30 8.5 30H21.671C21.5604 29.6872 21.5003 29.3506 21.5003 29L18.874 29C18.727 29 18.5785 29 18.4556 28.9933C18.3423 28.9871 18.1245 28.9716 17.903 28.8751C17.2018 28.5696 16.8428 27.7853 17.0698 27.0549C17.1415 26.8242 17.2721 26.6492 17.3415 26.5594C17.4166 26.462 17.5137 26.3496 17.6098 26.2383L19.0001 24.628L19.0003 22.5C19.0003 19.4625 21.4628 17 24.5003 17C25.4004 17 26.25 17.2162 27 17.5996V7.5C27 5.567 25.433 4 23.5 4ZM13 4H19C19.5523 4 20 4.44772 20 5C20 5.55228 19.5523 6 19 6H13C12.4477 6 12 5.55228 12 5C12 4.44772 12.4477 4 13 4Z" fill="#212121"/>
<path d="M19.9982 22.5C19.9982 20.0147 22.0129 18 24.4982 18C26.9834 18 28.9982 20.0147 28.9982 22.5V25L30.6174 26.8756C30.8341 27.1266 30.9424 27.2521 30.9734 27.3516C31.049 27.5951 30.9294 27.8565 30.6956 27.9584C30.6001 28 30.4343 28 30.1027 28H18.8933C18.5617 28 18.3959 28 18.3004 27.9584C18.0666 27.8565 17.947 27.5951 18.0226 27.3516C18.0535 27.2521 18.1619 27.1266 18.3786 26.8756L19.9979 25L19.9982 22.5Z" fill="#212121"/>
<path d="M26.4982 29C26.4982 30.1046 25.6027 31 24.4982 31C23.3936 31 22.4982 30.1046 22.4982 29H26.4982Z" fill="#212121"/>
</svg>
