<svg width="16" height="16" viewBox="0 0 16 16" fill="none" xmlns="http://www.w3.org/2000/svg">
<path fill-rule="evenodd" clip-rule="evenodd" d="M6.5 1C5.84689 1 5.29127 1.4174 5.08535 2H4.5C3.67157 2 3 2.67157 3 3.5V13.5C3 14.3284 3.67157 15 4.5 15H8.49947C8.34852 14.799 8.22718 14.5747 8.14186 14.3335L8.0239 14H4.5C4.22386 14 4 13.7761 4 13.5V3.5C4 3.22386 4.22386 3 4.5 3H5.08535C5.29127 3.5826 5.84689 4 6.5 4H9.5C10.1531 4 10.7087 3.5826 10.9146 3H11.5C11.7761 3 12 3.22386 12 3.5V5.29113C12.3628 5.43812 12.6992 5.6368 13 5.87806V3.5C13 2.67157 12.3284 2 11.5 2H10.9146C10.7087 1.4174 10.1531 1 9.5 1H6.5ZM6 2.5C6 2.22386 6.22386 2 6.5 2H9.5C9.77614 2 10 2.22386 10 2.5C10 2.77614 9.77614 3 9.5 3H6.5C6.22386 3 6 2.77614 6 2.5Z" fill="#212121"/>
<path d="M7.49936 9C7.49936 7.34326 8.84262 6 10.4994 6C12.1561 6 13.4994 7.34326 13.4994 9V11L14.8192 12.1187C15.1747 12.4197 14.9618 13 14.4959 13H6.50278C6.03745 13 5.82456 12.4197 6.17954 12.1187L7.49936 11.0002V9Z" fill="#212121"/>
<path d="M10.4994 15C9.84653 15 9.29087 14.5825 9.08481 14H11.9139C11.7083 14.5825 11.1527 15 10.4994 15Z" fill="#212121"/>
</svg>
