<svg width="24" height="24" viewBox="0 0 24 24" fill="none" xmlns="http://www.w3.org/2000/svg">
<path d="M10.25 2H13.75C14.9079 2 15.8616 2.87472 15.9862 3.99944L17.75 4C18.9926 4 20 5.00736 20 6.25V11.6687C19.2646 11.2434 18.4109 11 17.5003 11C14.7389 11 12.5003 13.2386 12.5003 16L12.5001 18.5354L11.8893 19.0508C11.7506 19.1679 11.6179 19.2799 11.5157 19.3757C11.4309 19.4552 11.2474 19.6287 11.1348 19.874C10.7912 20.6221 11.1148 21.5074 11.8599 21.8576C12.1042 21.9724 12.3563 21.9866 12.4723 21.9927C12.5996 21.9994 12.7547 22 12.9182 22H6.25C5.00736 22 4 20.9926 4 19.75V6.25C4 5.00736 5.00736 4 6.25 4L8.01379 3.99944C8.13841 2.87472 9.09205 2 10.25 2ZM13.75 3.5H10.25C9.83579 3.5 9.5 3.83579 9.5 4.25C9.5 4.66421 9.83579 5 10.25 5H13.75C14.1642 5 14.5 4.66421 14.5 4.25C14.5 3.83579 14.1642 3.5 13.75 3.5Z" fill="#212121"/>
<path d="M13.5025 16C13.5025 13.7909 15.2934 12 17.5025 12C19.7116 12 21.5025 13.7909 21.5025 16V19L22.4507 19.8003C22.7584 20.06 22.9123 20.1899 22.9589 20.2913C23.0735 20.5407 22.9656 20.8358 22.7172 20.9525C22.6162 21 22.4148 21 22.0121 21H12.9925C12.5898 21 12.3885 21 12.2875 20.9525C12.0391 20.8358 11.9312 20.5407 12.0457 20.2913C12.0923 20.1899 12.2462 20.06 12.5539 19.8004L13.5023 19L13.5025 16Z" fill="#212121"/>
<path d="M17.5025 23C18.195 23 18.7842 22.5826 19.0025 22H16.0025C16.2208 22.5826 16.81 23 17.5025 23Z" fill="#212121"/>
</svg>
