<svg width="16" height="16" viewBox="0 0 16 16" fill="none" xmlns="http://www.w3.org/2000/svg">
<path d="M5.08535 2C5.29127 1.4174 5.84689 1 6.5 1H9.5C10.1531 1 10.7087 1.4174 10.9146 2H11.5C12.3284 2 13 2.67157 13 3.5V5.87806C12.3151 5.32866 11.4455 5 10.4992 5C8.29014 5 6.49917 6.79098 6.49917 9V10.5369L5.53285 11.3557C4.46811 12.2586 5.1058 14 6.50259 14H8.0239L8.14186 14.3335C8.22718 14.5747 8.34852 14.799 8.49947 15H4.5C3.67157 15 3 14.3284 3 13.5V3.5C3 2.67157 3.67157 2 4.5 2H5.08535ZM6.5 2C6.22386 2 6 2.22386 6 2.5C6 2.77614 6.22386 3 6.5 3H9.5C9.77614 3 10 2.77614 10 2.5C10 2.22386 9.77614 2 9.5 2H6.5Z" fill="#212121"/>
<path d="M10.4994 6C8.84262 6 7.49936 7.34326 7.49936 9V11.0002L6.17954 12.1187C5.82456 12.4197 6.03745 13 6.50278 13H14.4959C14.9618 13 15.1747 12.4197 14.8192 12.1187L13.4994 11V9C13.4994 7.34326 12.1561 6 10.4994 6Z" fill="#212121"/>
<path d="M9.08481 14C9.29087 14.5825 9.84653 15 10.4994 15C11.1527 15 11.7083 14.5825 11.9139 14H9.08481Z" fill="#212121"/>
</svg>
