<svg width="32" height="32" viewBox="0 0 32 32" fill="none" xmlns="http://www.w3.org/2000/svg">
<path d="M19 2C20.3062 2 21.4175 2.83481 21.8293 4H23.5C25.433 4 27 5.567 27 7.5V17.5996C26.3904 17.288 25.7149 17.0868 25 17.0224V7.5C25 6.67157 24.3284 6 23.5 6H21.8293C21.4175 7.16519 20.3062 8 19 8H13C11.6938 8 10.5825 7.16519 10.1707 6H8.5C7.67157 6 7 6.67157 7 7.5V26.5C7 27.3284 7.67157 28 8.5 28H17.088C17.2225 28.38 17.5086 28.7033 17.903 28.8751C18.1245 28.9716 18.3423 28.9871 18.4556 28.9933C18.5785 29 18.727 29 18.874 29L21.5003 29C21.5003 29.3506 21.5604 29.6872 21.671 30H8.5C6.567 30 5 28.433 5 26.5V7.5C5 5.567 6.567 4 8.5 4H10.1707C10.5825 2.83481 11.6938 2 13 2H19ZM13 4C12.4477 4 12 4.44772 12 5C12 5.55228 12.4477 6 13 6H19C19.5523 6 20 5.55228 20 5C20 4.44772 19.5523 4 19 4H13Z" fill="#212121"/>
<path d="M19.9982 22.5C19.9982 20.0147 22.0129 18 24.4982 18C26.9834 18 28.9982 20.0147 28.9982 22.5V25L30.6174 26.8756C30.8341 27.1266 30.9424 27.2521 30.9734 27.3516C31.049 27.5951 30.9294 27.8565 30.6956 27.9584C30.6001 28 30.4343 28 30.1027 28H18.8933C18.5617 28 18.3959 28 18.3004 27.9584C18.0666 27.8565 17.947 27.5951 18.0226 27.3516C18.0535 27.2521 18.1619 27.1266 18.3786 26.8756L19.9979 25L19.9982 22.5Z" fill="#212121"/>
<path d="M26.4982 29C26.4982 30.1046 25.6027 31 24.4982 31C23.3936 31 22.4982 30.1046 22.4982 29H26.4982Z" fill="#212121"/>
</svg>
