<svg width="28" height="28" viewBox="0 0 28 28" fill="none" xmlns="http://www.w3.org/2000/svg">
<path d="M15.9982 18.5C15.9982 16.0147 18.0129 14 20.4982 14C22.9834 14 24.9982 16.0147 24.9982 18.5V21L26.6174 22.8756C26.8341 23.1266 26.9424 23.2521 26.9734 23.3516C27.049 23.5951 26.9294 23.8565 26.6956 23.9584C26.6001 24 26.4343 24 26.1027 24H14.8933C14.5617 24 14.3959 24 14.3004 23.9584C14.0666 23.8565 13.947 23.5951 14.0226 23.3516C14.0535 23.2521 14.1619 23.1266 14.3786 22.8756L15.9979 21L15.9982 18.5Z" fill="#212121"/>
<path d="M22.4982 25C22.4982 26.1046 21.6027 27 20.4982 27C19.3936 27 18.4982 26.1046 18.4982 25H22.4982Z" fill="#212121"/>
<path d="M10.3333 2C8.81453 2 7.58331 3.23122 7.58331 4.75V4.81878H6C4.89543 4.81878 4 5.71422 4 6.81878V23.5068C4 24.6114 4.89543 25.5068 6 25.5068H17.5429C17.5149 25.3421 17.5003 25.1727 17.5003 25L14.874 25C14.727 25 14.5785 25 14.4556 24.9933C14.3423 24.9871 14.1245 24.9716 13.903 24.8751C13.2018 24.5696 12.8428 23.7853 13.0698 23.0549C13.1415 22.8242 13.2721 22.6492 13.3415 22.5594C13.4166 22.462 13.5137 22.3496 13.6098 22.2383L15.0001 20.628L15.0003 18.5C15.0003 15.4625 17.4628 13 20.5003 13C21.607 13 22.6373 13.3268 23.5 13.8893V6.81878C23.5 5.71421 22.6046 4.81878 21.5 4.81878H19.9166V4.75C19.9166 3.23122 18.6854 2 17.1666 2H10.3333ZM9.08331 4.75C9.08331 4.05964 9.64296 3.5 10.3333 3.5H17.1666C17.857 3.5 18.4166 4.05964 18.4166 4.75V4.88761C18.4166 5.57797 17.857 6.13761 17.1666 6.13761H10.3333C9.64296 6.13761 9.08331 5.57797 9.08331 4.88761V4.75Z" fill="#212121"/>
</svg>
