<svg width="20" height="20" viewBox="0 0 20 20" fill="none" xmlns="http://www.w3.org/2000/svg">
<path d="M3.5 4C3.08579 4 2.75 4.33579 2.75 4.75C2.75 5.16421 3.08579 5.5 3.5 5.5H14C14.4142 5.5 14.75 5.16421 14.75 4.75C14.75 4.33579 14.4142 4 14 4H3.5Z" fill="#212121"/>
<path d="M3.5 8C3.08579 8 2.75 8.33579 2.75 8.75C2.75 9.16421 3.08579 9.5 3.5 9.5H9.88947C10.2724 8.91272 10.7645 8.40313 11.3369 8H3.5Z" fill="#212121"/>
<path d="M9.02242 12C9.00758 12.1647 9 12.3315 9 12.5C9 12.8415 9.03112 13.1757 9.09069 13.5H3.5C3.08579 13.5 2.75 13.1642 2.75 12.75C2.75 12.3358 3.08579 12 3.5 12H9.02242Z" fill="#212121"/>
<path d="M13.1775 15.9844C12.9099 15.6682 12.9493 15.195 13.2655 14.9274L15.8389 12.75L13.2655 10.5725C12.9493 10.3049 12.9099 9.83171 13.1775 9.51551C13.445 9.1993 13.9183 9.15987 14.2345 9.42743L17.4844 12.1775C17.6528 12.32 17.75 12.5294 17.75 12.75C17.75 12.9706 17.6528 13.18 17.4844 13.3225L14.2345 16.0725C13.9183 16.3401 13.445 16.3006 13.1775 15.9844Z" fill="#212121"/>
</svg>
