<svg width="20" height="20" viewBox="0 0 20 20" fill="none" xmlns="http://www.w3.org/2000/svg">
<path d="M3.5 4C3.22386 4 3 4.22386 3 4.5C3 4.77614 3.22386 5 3.5 5H14C14.2761 5 14.5 4.77614 14.5 4.5C14.5 4.22386 14.2761 4 14 4H3.5Z" fill="#212121"/>
<path d="M3.5 8C3.22386 8 3 8.22386 3 8.5C3 8.77614 3.22386 9 3.5 9H10.2572C10.5705 8.62057 10.9338 8.28389 11.3369 8H3.5Z" fill="#212121"/>
<path d="M9.02242 12C9.00758 12.1647 9 12.3315 9 12.5C9 12.6685 9.00758 12.8353 9.02242 13H3.5C3.22386 13 3 12.7761 3 12.5C3 12.2239 3.22386 12 3.5 12H9.02242Z" fill="#212121"/>
<path d="M13.6158 15.3201C13.439 15.108 13.4677 14.7927 13.6798 14.6159L16.219 12.5L13.6798 10.3841C13.4677 10.2073 13.439 9.89203 13.6158 9.67989C13.7926 9.46775 14.1079 9.43909 14.32 9.61586L17.3201 12.1159C17.4341 12.2108 17.5 12.3516 17.5 12.5C17.5 12.6484 17.4341 12.7891 17.3201 12.8841L14.32 15.3841C14.1079 15.5609 13.7926 15.5322 13.6158 15.3201Z" fill="#212121"/>
</svg>
