<svg width="24" height="24" viewBox="0 0 24 24" fill="none" xmlns="http://www.w3.org/2000/svg">
<path d="M5 6C4.72386 6 4.5 6.22386 4.5 6.5C4.5 6.77614 4.72386 7 5 7H16C16.2761 7 16.5 6.77614 16.5 6.5C16.5 6.22386 16.2761 6 16 6H5Z" fill="#212121"/>
<path d="M5 10C4.72386 10 4.5 10.2239 4.5 10.5C4.5 10.7761 4.72386 11 5 11H12.2572C12.5705 10.6206 12.9338 10.2839 13.3369 10H5Z" fill="#212121"/>
<path d="M11.0224 14C11.0076 14.1647 11 14.3315 11 14.5C11 14.6685 11.0076 14.8353 11.0224 15H5C4.72386 15 4.5 14.7761 4.5 14.5C4.5 14.2239 4.72386 14 5 14H11.0224Z" fill="#212121"/>
<path d="M15.6159 17.3201C15.4391 17.108 15.4677 16.7927 15.6799 16.6159L18.219 14.5L15.6799 12.3841C15.4677 12.2073 15.4391 11.8921 15.6158 11.6799C15.7926 11.4678 16.1079 11.4391 16.32 11.6159L19.3201 14.1159C19.4341 14.2109 19.5 14.3516 19.5 14.5C19.5 14.6484 19.4341 14.7891 19.3201 14.8841L16.3201 17.3841C16.1079 17.5609 15.7926 17.5323 15.6159 17.3201Z" fill="#212121"/>
</svg>
