<svg width="28" height="28" viewBox="0 0 28 28" fill="none" xmlns="http://www.w3.org/2000/svg">
<path d="M5 6C4.58579 6 4.25 6.33579 4.25 6.75C4.25 7.16421 4.58579 7.5 5 7.5H19C19.4142 7.5 19.75 7.16421 19.75 6.75C19.75 6.33579 19.4142 6 19 6H5Z" fill="#212121"/>
<path d="M5 11C4.58579 11 4.25 11.3358 4.25 11.75C4.25 12.1642 4.58579 12.5 5 12.5H14.3847C14.7621 11.9462 15.2073 11.4422 15.7084 11H5Z" fill="#212121"/>
<path d="M13.0619 16C13.021 16.3276 13 16.6613 13 17C13 17.1679 13.0052 17.3346 13.0154 17.5H5C4.58579 17.5 4.25 17.1642 4.25 16.75C4.25 16.3358 4.58579 16 5 16H13.0619Z" fill="#212121"/>
<path d="M18.4528 21.0129C18.1695 20.7108 18.1848 20.2361 18.487 19.9528L21.9034 16.75L18.487 13.5472C18.1848 13.2639 18.1695 12.7893 18.4528 12.4871C18.7361 12.1849 19.2107 12.1696 19.5129 12.4529L23.513 16.2029C23.6642 16.3446 23.75 16.5427 23.75 16.75C23.75 16.9573 23.6642 17.1554 23.513 17.2972L19.5129 21.0472C19.2107 21.3305 18.7361 21.3151 18.4528 21.0129Z" fill="#212121"/>
</svg>
