<svg width="28" height="28" viewBox="0 0 28 28" fill="none" xmlns="http://www.w3.org/2000/svg">
<path d="M5 6C4.44772 6 4 6.44772 4 7C4 7.55228 4.44772 8 5 8H19C19.5523 8 20 7.55228 20 7C20 6.44772 19.5523 6 19 6H5Z" fill="#212121"/>
<path d="M5 11C4.44772 11 4 11.4477 4 12C4 12.5523 4.44772 13 5 13H14.0703C14.5057 12.2472 15.0604 11.5719 15.7084 11H5Z" fill="#212121"/>
<path d="M13.0619 16C13.021 16.3276 13 16.6613 13 17C13 17.3387 13.021 17.6724 13.0619 18H5C4.44772 18 4 17.5523 4 17C4 16.4477 4.44772 16 5 16H13.0619Z" fill="#212121"/>
<path d="M18.2474 21.1585C17.8837 20.7429 17.9259 20.1111 18.3415 19.7474L21.4815 17L18.3416 14.2526C17.9259 13.8889 17.8838 13.2571 18.2475 12.8415C18.6112 12.4259 19.2429 12.3837 19.6586 12.7474L23.6586 16.2474C23.8756 16.4373 24.0001 16.7116 24.0001 17C24.0001 17.2884 23.8756 17.5627 23.6586 17.7526L19.6585 21.2526C19.2429 21.6163 18.6111 21.5741 18.2474 21.1585Z" fill="#212121"/>
</svg>
