<svg width="32" height="32" viewBox="0 0 32 32" fill="none" xmlns="http://www.w3.org/2000/svg">
<path d="M6.00002 7C5.5858 7 5.25002 7.33579 5.25002 7.75C5.25002 8.16421 5.5858 8.5 6.00002 8.5H23C23.4142 8.5 23.75 8.16421 23.75 7.75C23.75 7.33579 23.4142 7 23 7H6.00002Z" fill="#212121"/>
<path d="M6.00002 13C5.5858 13 5.25002 13.3358 5.25002 13.75C5.25002 14.1642 5.5858 14.5 6.00002 14.5H17.1905C17.7524 13.9067 18.4041 13.3995 19.124 13H6.00002Z" fill="#212121"/>
<path d="M15.0619 19C15.0211 19.3276 15 19.6613 15 20C15 20.1679 15.0052 20.3346 15.0154 20.5H6.00002C5.5858 20.5 5.25002 20.1642 5.25002 19.75C5.25002 19.3358 5.5858 19 6.00002 19H15.0619Z" fill="#212121"/>
<path d="M21.4697 24.5303C21.1768 24.2374 21.1768 23.7626 21.4697 23.4697L24.9393 20L21.4697 16.5303C21.1768 16.2374 21.1768 15.7625 21.4697 15.4697C21.7626 15.1768 22.2375 15.1768 22.5303 15.4697L26.5303 19.4697C26.8232 19.7625 26.8232 20.2374 26.5303 20.5303L22.5303 24.5303C22.2374 24.8232 21.7626 24.8232 21.4697 24.5303Z" fill="#212121"/>
</svg>
