<svg width="16" height="16" viewBox="0 0 16 16" fill="none" xmlns="http://www.w3.org/2000/svg">
<path d="M2.44446 4C2.16832 4 1.94446 4.22386 1.94446 4.5C1.94446 4.77614 2.16832 5 2.44446 5H9.5C9.77614 5 10 4.77614 10 4.5C10 4.22386 9.77614 4 9.5 4H2.44446Z" fill="#212121"/>
<path d="M2.44446 7C2.16832 7 1.94446 7.22386 1.94446 7.5C1.94446 7.77614 2.16832 8 2.44446 8H6.75779C7.01057 7.62236 7.319 7.28512 7.67135 7H2.44446Z" fill="#212121"/>
<path d="M6.02748 10C6.00933 10.1642 6.00001 10.331 6.00001 10.5C6.00001 10.669 6.00933 10.8358 6.02748 11H2.44446C2.16832 11 1.94446 10.7761 1.94446 10.5C1.94446 10.2239 2.16832 10 2.44446 10H6.02748Z" fill="#212121"/>
<path d="M10.6097 12.8123C10.4372 12.5967 10.4721 12.2821 10.6877 12.1095L12.6996 10.4999L10.6877 8.89033C10.472 8.71783 10.4371 8.40318 10.6096 8.18755C10.7821 7.97192 11.0967 7.93696 11.3124 8.10946L13.8124 10.1095C13.931 10.2043 14 10.348 14 10.4999C14 10.6518 13.931 10.7954 13.8124 10.8903L11.3125 12.8904C11.0968 13.0629 10.7822 13.028 10.6097 12.8123Z" fill="#212121"/>
</svg>
