<svg width="48" height="48" viewBox="0 0 48 48" fill="none" xmlns="http://www.w3.org/2000/svg">
<path d="M12 13C11.3096 13 10.75 13.5596 10.75 14.25C10.75 14.9404 11.3096 15.5 12 15.5H33C33.6904 15.5 34.25 14.9404 34.25 14.25C34.25 13.5596 33.6904 13 33 13H12Z" fill="#212121"/>
<path d="M12 21C11.3096 21 10.75 21.5596 10.75 22.25C10.75 22.9404 11.3096 23.5 12 23.5H25.4004C26.2909 22.4598 27.3913 21.6046 28.6359 21H12Z" fill="#212121"/>
<path d="M23.0494 29C23.0167 29.3289 23 29.6625 23 30C23 30.5098 23.0381 31.0107 23.1118 31.5H12C11.3096 31.5 10.75 30.9404 10.75 30.25C10.75 29.5596 11.3096 29 12 29H23.0494Z" fill="#212121"/>
<path d="M30.1162 36.2339C29.628 35.7458 29.628 34.9543 30.1162 34.4662L34.2323 30.35L30.1162 26.2339C29.628 25.7457 29.628 24.9543 30.1162 24.4661C30.6044 23.978 31.3958 23.978 31.884 24.4661L36.8839 29.4661C37.3721 29.9543 37.3721 30.7457 36.8839 31.2339L31.8839 36.2339C31.3958 36.7221 30.6043 36.7221 30.1162 36.2339Z" fill="#212121"/>
</svg>
