<svg width="32" height="32" viewBox="0 0 32 32" fill="none" xmlns="http://www.w3.org/2000/svg">
<path d="M6.00002 7C5.44773 7 5.00002 7.44772 5.00002 8C5.00002 8.55228 5.44773 9 6.00002 9H23C23.5523 9 24 8.55228 24 8C24 7.44772 23.5523 7 23 7H6.00002Z" fill="#212121"/>
<path d="M6.00002 13C5.44773 13 5.00002 13.4477 5.00002 14C5.00002 14.5523 5.44773 15 6.00002 15H17.7546C18.4047 14.1891 19.2094 13.5075 20.124 13H6.00002Z" fill="#212121"/>
<path d="M16.0619 19C16.0211 19.3276 16 19.6613 16 20C16 20.3387 16.0211 20.6724 16.0619 21H6.00002C5.44773 21 5.00002 20.5523 5.00002 20C5.00002 19.4477 5.44773 19 6.00002 19H16.0619Z" fill="#212121"/>
<path d="M21.2929 24.7071C20.9024 24.3166 20.9024 23.6834 21.2929 23.2929L24.5858 20L21.2929 16.7071C20.9024 16.3166 20.9024 15.6834 21.2929 15.2929C21.6834 14.9024 22.3166 14.9024 22.7071 15.2929L26.7071 19.2929C27.0976 19.6834 27.0976 20.3166 26.7071 20.7071L22.7071 24.7071C22.3166 25.0976 21.6834 25.0976 21.2929 24.7071Z" fill="#212121"/>
</svg>
