<svg width="16" height="16" viewBox="0 0 16 16" fill="none" xmlns="http://www.w3.org/2000/svg">
<path d="M2.75001 4C2.33579 4 2.00001 4.33579 2.00001 4.75C2.00001 5.16421 2.33579 5.5 2.75001 5.5H10C10.4142 5.5 10.75 5.16421 10.75 4.75C10.75 4.33579 10.4142 4 10 4H2.75001Z" fill="#212121"/>
<path d="M2.75001 7C2.33579 7 2.00001 7.33579 2.00001 7.75C2.00001 8.16421 2.33579 8.5 2.75001 8.5H6.66892C7.00753 7.91464 7.46141 7.40429 7.99952 7H2.75001Z" fill="#212121"/>
<path d="M6.10003 10C6.03444 10.3231 6.00001 10.6575 6.00001 11C6.00001 11.1687 6.00837 11.3355 6.0247 11.5H2.75001C2.33579 11.5 2.00001 11.1642 2.00001 10.75C2.00001 10.3358 2.33579 10 2.75001 10H6.10003Z" fill="#212121"/>
<path d="M10.6285 13.0845C10.4437 12.8792 10.4604 12.5631 10.6656 12.3784L12.7277 10.5224L10.6877 8.89035C10.472 8.71784 10.4371 8.4032 10.6096 8.18756C10.7821 7.97193 11.0967 7.93697 11.3124 8.10948L13.8124 10.1095C13.927 10.2012 13.9955 10.3386 13.9998 10.4854C14.0041 10.6321 13.9436 10.7733 13.8345 10.8715L11.3346 13.1216C11.1294 13.3064 10.8132 13.2897 10.6285 13.0845Z" fill="#212121"/>
</svg>
