<svg width="48" height="48" viewBox="0 0 48 48" fill="none" xmlns="http://www.w3.org/2000/svg">
<path d="M12 13C11.4477 13 11 13.4477 11 14C11 14.5523 11.4477 15 12 15H33C33.5523 15 34 14.5523 34 14C34 13.4477 33.5523 13 33 13H12Z" fill="#212121"/>
<path d="M12 21C11.4477 21 11 21.4477 11 22C11 22.5523 11.4477 23 12 23H26.8586C27.6584 22.1841 28.5969 21.5048 29.6359 21H12Z" fill="#212121"/>
<path d="M24.0494 29C24.0167 29.3289 24 29.6625 24 30C24 30.3375 24.0167 30.6711 24.0494 31H12C11.4477 31 11 30.5523 11 30C11 29.4477 11.4477 29 12 29H24.0494Z" fill="#212121"/>
<path d="M30.2929 35.7071C29.9024 35.3166 29.9024 34.6834 30.2929 34.2929L34.5858 30L30.293 25.7071C29.9025 25.3165 29.9025 24.6834 30.293 24.2929C30.6835 23.9023 31.3167 23.9023 31.7072 24.2929L36.7072 29.2929C37.0977 29.6834 37.0977 30.3166 36.7072 30.7071L31.7071 35.7071C31.3166 36.0976 30.6835 36.0976 30.2929 35.7071Z" fill="#212121"/>
</svg>
