<svg width="24" height="24" viewBox="0 0 24 24" fill="none" xmlns="http://www.w3.org/2000/svg">
<path d="M5 6C4.58579 6 4.25 6.33579 4.25 6.75C4.25 7.16421 4.58579 7.5 5 7.5H16C16.4142 7.5 16.75 7.16421 16.75 6.75C16.75 6.33579 16.4142 6 16 6H5Z" fill="#212121"/>
<path d="M5 10C4.58579 10 4.25 10.3358 4.25 10.75C4.25 11.1642 4.58579 11.5 5 11.5H11.8895C12.2724 10.9127 12.7645 10.4031 13.3369 10H5Z" fill="#212121"/>
<path d="M11.0224 14C11.0076 14.1647 11 14.3315 11 14.5C11 14.8415 11.0311 15.1757 11.0907 15.5H5C4.58579 15.5 4.25 15.1642 4.25 14.75C4.25 14.3358 4.58579 14 5 14H11.0224Z" fill="#212121"/>
<path d="M15.447 18.0068C15.1671 17.7014 15.1878 17.227 15.4931 16.9471L17.89 14.75L15.4931 12.5529C15.1878 12.273 15.1671 11.7985 15.447 11.4932C15.7269 11.1879 16.2013 11.1672 16.5067 11.4471L19.5068 14.1972C19.6617 14.3392 19.75 14.5398 19.75 14.7501C19.75 14.9603 19.6617 15.1609 19.5067 15.3029L16.5067 18.0529C16.2013 18.3328 15.7269 18.3121 15.447 18.0068Z" fill="#212121"/>
</svg>
