<svg width="16" height="16" viewBox="0 0 16 16" fill="none" xmlns="http://www.w3.org/2000/svg">
<path d="M10.5234 11.8435C9.60995 12.4988 8.51415 12.8516 7.38997 12.8522C6.68215 12.8528 5.98116 12.7139 5.32707 12.4433C4.67298 12.1728 4.07865 11.776 3.57804 11.2756C3.07744 10.7751 2.68036 10.1809 2.40959 9.52695C2.13881 8.87296 1.99965 8.172 2 7.46417C1.99965 6.75651 2.13878 6.05572 2.40942 5.40186C2.68007 4.748 3.07692 4.15389 3.57731 3.6535C4.0777 3.15311 4.67182 2.75624 5.32568 2.4856C5.97954 2.21495 6.68036 2.07582 7.38802 2.07617C8.81702 2.07635 10.1874 2.64405 11.1979 3.65444C12.2084 4.66482 12.7763 6.03518 12.7767 7.46417C12.7766 8.58853 12.4235 9.6845 11.7673 10.5975C12.1224 10.9526 12.8547 11.6892 13.384 12.222C13.7246 12.5648 13.7229 13.1184 13.3806 13.4595C13.0386 13.8004 12.4854 13.8005 12.1435 13.4595C11.5542 12.872 10.7276 12.0477 10.5234 11.8435ZM3.00798 7.46417C3.00886 8.62537 3.47057 9.73876 4.29167 10.5599C5.11276 11.3809 6.22617 11.8426 7.38737 11.8435C8.54797 11.8424 9.66061 11.3805 10.4807 10.5593C11.3008 9.73807 11.7612 8.62477 11.7607 7.46417C11.7614 6.30352 11.301 5.19012 10.4809 4.36886C9.66074 3.54759 8.54802 3.08572 7.38737 3.08484C6.22623 3.08572 5.1129 3.54742 4.29191 4.36853C3.47092 5.18964 3.00868 6.30303 3.00798 7.46417ZM7.23855 11.2384C6.90159 11.2235 6.73659 10.852 6.90512 10.5598L8.03735 8.59684C8.19368 8.32807 8.5822 8.32892 8.73735 8.59837L9.55869 10.0247C9.68093 10.237 9.63315 10.5098 9.42718 10.6424C8.82067 11.0329 8.11196 11.2427 7.38469 11.2422C7.33595 11.2418 7.28723 11.2406 7.23855 11.2384ZM4.04711 9.2259C3.88838 8.92719 4.12769 8.59684 4.46596 8.59684H6.56392C6.94884 8.59684 7.1894 9.01353 6.99692 9.34687L6.26071 10.6218C6.13809 10.8342 5.87769 10.9294 5.65964 10.8173C5.28045 10.6223 4.93599 10.3641 4.64152 10.0529C4.40647 9.80449 4.20666 9.52615 4.04711 9.2259ZM9 8L8.68787 7.45754C8.49606 7.12421 8.73667 6.70817 9.12124 6.70817H10.6749C10.9132 6.70817 11.1219 6.87614 11.1438 7.11338C11.1545 7.22971 11.1599 7.34654 11.16 7.46351C11.161 8.18071 10.9561 8.87806 10.5764 9.47559C10.3959 9.75965 9.99263 9.71635 9.82413 9.425L9 8ZM4.09379 8.21884C3.85579 8.21884 3.64717 8.05121 3.62534 7.81422C3.61463 7.69792 3.60927 7.58111 3.60929 7.46417C3.60971 6.74774 3.81454 6.0513 4.19289 5.4537C4.37322 5.16888 4.77728 5.21187 4.94594 5.50376L6.0787 7.46417C6.27068 7.79751 6.03304 8.21884 5.64837 8.21884H4.09379ZM5.21098 4.90641C5.08858 4.69409 5.13633 4.42111 5.3424 4.28848C5.9487 3.89825 6.65708 3.68846 7.38403 3.68884C7.43485 3.68902 7.48564 3.6902 7.53637 3.69238C7.87144 3.70677 8.03817 4.07454 7.87432 4.36717L7.33333 5.33333L6.81714 6.20148C6.62181 6.53 6.14508 6.52678 5.9542 6.19566L5.21098 4.90641ZM8.20533 6.33151C7.82044 6.33151 7.57987 5.91486 7.7723 5.58153L8.50882 4.30567C8.63136 4.0934 8.89159 3.99809 9.10963 4.11004C9.48932 4.30499 9.83421 4.56326 10.1291 4.87468C10.3644 5.12326 10.5643 5.40184 10.7238 5.70239C10.8824 6.00116 10.643 6.33151 10.3048 6.33151H8.20533Z" fill="#212121"/>
</svg>
