<svg width="20" height="20" viewBox="0 0 20 20" fill="none" xmlns="http://www.w3.org/2000/svg">
<path d="M13.1542 14.8044C12.0124 15.6235 10.6427 16.0645 9.23747 16.0652C8.35268 16.066 7.47645 15.8923 6.65883 15.5542C5.84122 15.216 5.09831 14.72 4.47256 14.0944C3.8468 13.4689 3.35045 12.7262 3.01198 11.9087C2.67352 11.0912 2.49956 10.215 2.5 9.33022C2.49956 8.44564 2.67347 7.56965 3.01178 6.75232C3.35009 5.935 3.84615 5.19236 4.47164 4.56687C5.09713 3.94138 5.83978 3.4453 6.65711 3.10699C7.47443 2.76868 8.35045 2.59478 9.23503 2.59522C11.0213 2.59544 12.7343 3.30506 13.9974 4.56805C15.2605 5.83103 15.9704 7.54397 15.9709 9.33022C15.9708 10.7357 15.5294 12.1056 14.7092 13.2469C15.153 13.6907 16.0684 14.6115 16.73 15.2774C17.1558 15.706 17.1536 16.398 16.7258 16.8244C16.2983 17.2505 15.6068 17.2506 15.1793 16.8244C14.4428 16.09 13.4094 15.0596 13.1542 14.8044ZM3.75997 9.33022C3.76107 10.7817 4.33822 12.1735 5.36458 13.1998C6.39095 14.2262 7.78271 14.8033 9.23421 14.8044C10.685 14.8031 12.0758 14.2257 13.1009 13.1991C14.126 12.1726 14.7015 10.781 14.7008 9.33022C14.7017 7.8794 14.1263 6.48765 13.1011 5.46107C12.0759 4.43449 10.685 3.85715 9.23421 3.85605C7.78279 3.85715 6.39112 4.43427 5.36489 5.46066C4.33866 6.48706 3.76085 7.87879 3.75997 9.33022ZM8.87852 14.0375C8.54229 14.0107 8.37793 13.6392 8.54645 13.347L10.0467 10.746L10.0515 10.7379C10.2447 10.4055 10.7251 10.4066 10.917 10.7397L12.0014 12.6229C12.1236 12.8352 12.0755 13.1073 11.8726 13.2445C11.0953 13.7701 10.1756 14.0534 9.23086 14.0527C9.11327 14.0519 8.99572 14.0469 8.87852 14.0375ZM4.98147 11.3801C4.83363 11.0759 5.07335 10.746 5.41162 10.746H8.42143C8.80634 10.746 9.0469 11.1627 8.85442 11.4961L7.77271 13.3694C7.6501 13.5817 7.39017 13.6764 7.16965 13.5692C6.65808 13.3204 6.19445 12.981 5.8019 12.5661C5.46873 12.214 5.1922 11.8138 4.98147 11.3801ZM11.25 10L10.752 9.13458C10.5602 8.80125 10.8008 8.38522 11.1854 8.38522H13.4461C13.6844 8.38522 13.8923 8.55312 13.9192 8.78984C13.9395 8.96887 13.9498 9.14899 13.95 9.32938C13.9514 10.283 13.6614 11.2086 13.1271 11.9858C12.9364 12.2631 12.5335 12.2192 12.365 11.9279L11.25 10ZM5.01495 10.2735C4.77696 10.2735 4.56907 10.106 4.54215 9.86952C4.52179 9.69058 4.51158 9.51053 4.51162 9.33022C4.51217 8.37738 4.80199 7.45283 5.33454 6.67529C5.52504 6.39716 5.92879 6.44074 6.09745 6.73263L7.59837 9.33022L7.70998 9.524C7.90197 9.85734 7.66137 10.2735 7.27671 10.2735H5.01495ZM6.46065 6.04095C6.33826 5.82863 6.38628 5.55636 6.5893 5.41911C7.36635 4.89381 8.28566 4.61055 9.23004 4.61105C9.34975 4.61148 9.46933 4.61635 9.58852 4.62563C9.92289 4.65166 10.089 5.01942 9.92516 5.31205L9.16667 6.66667L8.41232 7.93536C8.21698 8.26387 7.74025 8.26066 7.54937 7.92954L6.46065 6.04095ZM10.0402 7.91438C9.65528 7.91438 9.41471 7.49774 9.60714 7.16441L10.6892 5.29005C10.8117 5.07778 11.0715 4.98306 11.292 5.09008C11.8041 5.33867 12.2683 5.67823 12.6613 6.09335C12.9949 6.44566 13.2714 6.84619 13.4821 7.28028C13.6298 7.58459 13.39 7.91438 13.0518 7.91438H10.0402Z" fill="#212121"/>
</svg>
