<svg width="24" height="24" viewBox="0 0 24 24" fill="none" xmlns="http://www.w3.org/2000/svg">
<path d="M15.785 17.7653C14.4149 18.7482 12.7712 19.2774 11.085 19.2783C10.0232 19.2792 8.97174 19.0708 7.9906 18.665C7.00946 18.2592 6.11797 17.664 5.36707 16.9133C4.61616 16.1627 4.02054 15.2714 3.61438 14.2904C3.20822 13.3094 2.99947 12.258 3 11.1963C2.99948 10.1348 3.20816 9.08358 3.61414 8.10279C4.02011 7.122 4.61538 6.23084 5.36597 5.48025C6.11656 4.72966 7.00774 4.13437 7.98853 3.72839C8.96932 3.32242 10.0205 3.11373 11.082 3.11426C13.2255 3.11452 15.2811 3.96607 16.7969 5.48165C18.3126 6.99724 19.1645 9.05277 19.165 11.1963C19.1649 12.8828 18.6353 14.5268 17.651 15.8963C18.1836 16.4289 19.2821 17.5338 20.076 18.3329C20.5869 18.8472 20.5843 19.6776 20.0709 20.1893C19.5579 20.7006 18.7281 20.7007 18.2152 20.1893C17.3313 19.3081 16.0913 18.0716 15.785 17.7653ZM4.51196 11.1963C4.51329 12.9381 5.20586 14.6081 6.4375 15.8398C7.66914 17.0714 9.33925 17.7639 11.0811 17.7653C12.8219 17.7637 14.4909 17.0708 15.7211 15.8389C16.9512 14.6071 17.6418 12.9372 17.641 11.1963C17.6421 9.45529 16.9515 7.78518 15.7213 6.55328C14.4911 5.32139 12.822 4.62858 11.0811 4.62726C9.33935 4.62858 7.66935 5.32113 6.43787 6.5528C5.20639 7.78447 4.51302 9.45455 4.51196 11.1963ZM10.5188 16.8326C10.1833 16.798 10.0193 16.4264 10.1878 16.1342L12.056 12.8953L12.1486 12.7361C12.3419 12.4038 12.8223 12.4048 13.0141 12.738L14.444 15.2211C14.5663 15.4334 14.518 15.7051 14.3172 15.8453C13.3698 16.5068 12.2392 16.8641 11.077 16.8633C10.8906 16.862 10.7042 16.8518 10.5188 16.8326ZM5.67395 12.8953H10.2789C10.6638 12.8953 10.9044 13.312 10.7119 13.6453L9.28472 16.1169C9.1621 16.3293 8.90246 16.4235 8.68036 16.3196C8.03605 16.0182 7.45291 15.5978 6.96228 15.0793C6.37402 14.4577 5.93403 13.711 5.67505 12.8953H5.67395ZM13.5 12L12.8162 10.8116C12.6244 10.4783 12.865 10.0623 13.2496 10.0623H16.2173C16.4555 10.0623 16.663 10.2301 16.6932 10.4665C16.7241 10.708 16.7398 10.9514 16.74 11.1953C16.7417 12.3853 16.3654 13.5389 15.6744 14.4937C15.477 14.7663 15.0743 14.7221 14.9058 14.4308L13.5 12ZM5.93612 12.3283C5.69812 12.3283 5.49072 12.1607 5.46042 11.9247C5.42943 11.6832 5.41388 11.4399 5.41394 11.1963C5.41464 10.0071 5.79078 8.85464 6.47957 7.89918C6.67671 7.62572 7.0803 7.66962 7.24896 7.96151L9.11804 11.1963L9.33832 11.5787C9.5303 11.912 9.28971 12.3283 8.90504 12.3283H5.93612ZM7.71032 7.17549C7.58793 6.96318 7.63617 6.69135 7.83711 6.55106C8.78413 5.88989 9.91427 5.53265 11.0761 5.53326C11.2647 5.53393 11.453 5.54379 11.6404 5.56277C11.9741 5.59655 12.1399 5.9643 11.976 6.25692L11 8L10.0075 9.66923C9.81216 9.99775 9.33543 9.99453 9.14454 9.66341L7.71032 7.17549ZM11.875 9.49726C11.4901 9.49726 11.2496 9.08062 11.442 8.74728L12.8695 6.27442C12.992 6.06215 13.2515 5.96784 13.4736 6.07154C14.1186 6.37276 14.7024 6.79322 15.1936 7.31201C15.6254 7.76805 15.9774 8.2914 16.2367 8.85999C16.377 9.16776 16.137 9.49726 15.7988 9.49726H11.875Z" fill="#212121"/>
</svg>
