<svg width="28" height="28" viewBox="0 0 28 28" fill="none" xmlns="http://www.w3.org/2000/svg">
<path d="M18.4159 20.7256C16.8174 21.8725 14.8998 22.4898 12.9325 22.4908C11.6938 22.4919 10.467 22.2488 9.32237 21.7753C8.17771 21.3019 7.13763 20.6075 6.26158 19.7317C5.38552 18.856 4.69063 17.8162 4.21678 16.6717C3.74292 15.5272 3.49939 14.3005 3.5 13.0618C3.49939 11.8234 3.74286 10.597 4.21649 9.45277C4.69013 8.30851 5.38461 7.26882 6.2603 6.39314C7.13598 5.51745 8.17569 4.82294 9.31995 4.3493C10.4642 3.87567 11.6906 3.6322 12.929 3.63281C15.4298 3.63312 17.828 4.62659 19.5964 6.39477C21.3648 8.16295 22.3586 10.5611 22.3592 13.0618C22.3591 15.0294 21.7412 16.9474 20.5928 18.5451C21.2142 19.1665 22.4957 20.4556 23.422 21.3879C24.0181 21.9879 24.0151 22.9567 23.4161 23.5537C22.8176 24.1502 21.8495 24.1503 21.2511 23.5537C20.2199 22.5256 18.7732 21.083 18.4159 20.7256ZM5.26396 13.0618C5.2655 15.0939 6.0735 17.0423 7.51042 18.4793C8.94733 19.9162 10.8958 20.7241 12.9279 20.7256C14.9589 20.7238 16.9061 19.9154 18.3412 18.4783C19.7764 17.0411 20.5821 15.0929 20.5812 13.0618C20.5824 11.0307 19.7768 9.08222 18.3415 7.64501C16.9063 6.2078 14.959 5.39953 12.9279 5.39798C10.8959 5.39953 8.94757 6.2075 7.51084 7.64444C6.07412 9.08139 5.26519 11.0298 5.26396 13.0618ZM12.1593 19.625C11.8244 19.5847 11.6606 19.2131 11.8291 18.9209L14.0654 15.044L14.2458 14.7338C14.4391 14.4015 14.9195 14.4025 15.1113 14.7357L16.8867 17.8188C17.0089 18.0311 16.9605 18.3025 16.7612 18.4449C15.6443 19.2428 14.3029 19.6744 12.9232 19.6733C12.6679 19.6716 12.4127 19.6555 12.1593 19.625ZM6.61961 15.044H12.1364C12.5213 15.044 12.7619 15.4607 12.5694 15.794L10.7967 18.864C10.6741 19.0763 10.4147 19.1703 10.1915 19.0688C9.41422 18.7153 8.71135 18.2142 8.12266 17.5921C7.43636 16.8668 6.92303 15.9957 6.62089 15.044H6.61961ZM15.75 13.9995L14.8804 12.4882C14.6886 12.1548 14.9292 11.7388 15.3137 11.7388H18.9884C19.2267 11.7388 19.4338 11.9067 19.4664 12.1427C19.5085 12.4467 19.5297 12.7534 19.53 13.0606C19.5321 14.487 19.0686 15.8685 18.2198 16.9997C18.0178 17.2689 17.6151 17.2245 17.4466 16.9331L15.75 13.9995ZM6.85728 14.3825C6.61928 14.3825 6.41223 14.2149 6.37952 13.9792C6.33736 13.6754 6.31619 13.3689 6.31626 13.0618C6.3171 11.6364 6.78033 10.2562 7.6265 9.12395C7.82831 8.85392 8.23181 8.89801 8.40047 9.1899L10.6377 13.0618L10.9667 13.6329C11.1586 13.9663 10.918 14.3825 10.5334 14.3825H6.85728ZM8.96 8.30955C8.8376 8.09723 8.88598 7.82574 9.0854 7.6833C10.202 6.88579 11.5429 6.45425 12.9221 6.45498C13.1796 6.4559 13.4367 6.4715 13.692 6.50164C14.0251 6.54094 14.1907 6.90868 14.0268 7.20131L12.8333 9.33284L11.6027 11.4026C11.4073 11.7311 10.9306 11.7279 10.7397 11.3968L8.96 8.30955ZM13.7098 11.0796C13.325 11.0796 13.0844 10.663 13.2768 10.3297L15.0498 7.25831C15.1724 7.04604 15.4317 6.95202 15.6548 7.05335C16.4329 7.4066 17.1365 7.90773 17.7259 8.53019C18.2558 9.08993 18.6828 9.73659 18.9891 10.4402C19.1241 10.7503 18.884 11.0796 18.5458 11.0796H13.7098Z" fill="#212121"/>
</svg>
