<svg width="28" height="28" viewBox="0 0 28 28" fill="none" xmlns="http://www.w3.org/2000/svg">
<path d="M14 22C14.5523 22 15 21.5523 15 21C15 20.4477 14.5523 20 14 20C13.4477 20 13 20.4477 13 21C13 21.5523 13.4477 22 14 22Z" fill="#212121"/>
<path d="M3 6.75C3 4.67893 4.67893 3 6.75 3H21.25C23.3211 3 25 4.67893 25 6.75V21.25C25 23.3211 23.3211 25 21.25 25H6.75C4.67893 25 3 23.3211 3 21.25V6.75ZM23.5 6.75C23.5 5.50736 22.4926 4.5 21.25 4.5H6.75C5.50736 4.5 4.5 5.50736 4.5 6.75V17.25H23.5V6.75ZM4.5 21.25C4.5 22.4926 5.50736 23.5 6.75 23.5H21.25C22.4926 23.5 23.5 22.4926 23.5 21.25V18.75H4.5V21.25Z" fill="#212121"/>
</svg>
