<svg width="20" height="20" viewBox="0 0 20 20" fill="none" xmlns="http://www.w3.org/2000/svg">
<path d="M10 15C10.5523 15 11 14.5523 11 14C11 13.4477 10.5523 13 10 13C9.44771 13 9 13.4477 9 14C9 14.5523 9.44771 15 10 15Z" fill="#212121"/>
<path d="M3 6C3 4.34315 4.34315 3 6 3H14C15.6569 3 17 4.34315 17 6V14C17 15.6569 15.6569 17 14 17H6C4.34315 17 3 15.6569 3 14V6ZM6 4C4.89543 4 4 4.89543 4 6V11H16V6C16 4.89543 15.1046 4 14 4H6ZM4 14C4 15.1046 4.89543 16 6 16H14C15.1046 16 16 15.1046 16 14V12H4V14Z" fill="#212121"/>
</svg>
