<svg width="230" height="160" viewBox="0 0 230 160" fill="none" xmlns="http://www.w3.org/2000/svg">
<path d="M114.676 142C149.169 142 177.131 114.018 177.131 79.5C177.131 44.9822 149.169 17 114.676 17C80.1828 17 52.2207 44.9822 52.2207 79.5C52.2207 114.018 80.1828 142 114.676 142Z" fill="#EBEBEB"/>
<g filter="url(#filter0_dd_6637_465)">
<path d="M123.865 34.1167C124.975 33.3549 126.412 33.2541 127.618 33.8521L188.044 63.8101C190.412 64.9839 190.83 68.1845 188.845 69.9282L149.784 104.224C148.559 105.3 146.776 105.451 145.388 104.596L127.31 93.4712L114.896 104.373C113.67 105.448 111.887 105.598 110.499 104.744L49.876 67.438C47.5877 66.0298 47.5055 62.733 49.7207 61.2124L88.9775 34.2651C90.0875 33.5035 91.5234 33.4016 92.7295 33.9995L110.655 43.1841L123.865 34.1167ZM91.6289 36.2183C91.227 36.0191 90.7488 36.0534 90.3789 36.3071L51.1221 63.2534C50.3838 63.7602 50.4113 64.8591 51.1738 65.3286L111.796 102.635C112.259 102.92 112.854 102.87 113.263 102.511L125.104 92.1138L84.7646 67.2905C82.4764 65.8824 82.3943 62.5855 84.6094 61.0649L108.335 44.7769L91.6289 36.2183ZM126.518 36.0708C126.116 35.8715 125.638 35.9058 125.268 36.1597L113.161 44.4692L113.221 44.4995L138.049 56.4692L153.155 63.9585C155.523 65.1324 155.942 68.333 153.956 70.0767L129.257 91.7622L146.685 102.488C147.147 102.773 147.743 102.722 148.151 102.364L187.212 68.0679C187.873 67.4866 187.733 66.4212 186.944 66.0298L126.518 36.0708ZM86.0107 63.106C85.2724 63.6128 85.2998 64.7118 86.0625 65.1812L127.051 90.4048L152.323 68.2163C152.985 67.6351 152.845 66.5686 152.056 66.1772L136.949 58.688L110.845 46.0591L86.0107 63.106Z" fill="url(#paint0_radial_6637_465)"/>
</g>
<g filter="url(#filter1_dd_6637_465)">
<path d="M108.221 101C108.221 99.8954 109.116 99 110.221 99H115.221C116.325 99 117.221 99.8954 117.221 101V106C117.221 107.105 116.325 108 115.221 108H110.221C109.116 108 108.221 107.105 108.221 106V101Z" fill="url(#paint1_linear_6637_465)"/>
<path d="M110.221 99.5H115.221C116.049 99.5 116.721 100.172 116.721 101V106C116.721 106.828 116.049 107.5 115.221 107.5H110.221C109.392 107.5 108.721 106.828 108.721 106V101C108.721 100.172 109.392 99.5 110.221 99.5Z" stroke="url(#paint2_linear_6637_465)"/>
<path d="M110.221 99.5H115.221C116.049 99.5 116.721 100.172 116.721 101V106C116.721 106.828 116.049 107.5 115.221 107.5H110.221C109.392 107.5 108.721 106.828 108.721 106V101C108.721 100.172 109.392 99.5 110.221 99.5Z" stroke="#FCF4DA"/>
</g>
<path d="M47.2207 59.5H52.2207C53.0491 59.5 53.7207 60.1716 53.7207 61V66C53.7207 66.8284 53.0491 67.5 52.2207 67.5H47.2207C46.3923 67.5 45.7207 66.8284 45.7207 66V61C45.7207 60.1716 46.3923 59.5 47.2207 59.5Z" fill="#717171" stroke="url(#paint3_linear_6637_465)"/>
<path d="M88.2207 31.5H93.2207C94.0491 31.5 94.7207 32.1716 94.7207 33V38C94.7207 38.8284 94.0491 39.5 93.2207 39.5H88.2207C87.3923 39.5 86.7207 38.8284 86.7207 38V33C86.7207 32.1716 87.3923 31.5 88.2207 31.5Z" fill="#717171" stroke="url(#paint4_linear_6637_465)"/>
<path d="M152.221 62.5H157.221C158.049 62.5 158.721 63.1716 158.721 64V69C158.721 69.8284 158.049 70.5 157.221 70.5H152.221C151.392 70.5 150.721 69.8284 150.721 69V64C150.721 63.1716 151.392 62.5 152.221 62.5Z" fill="#717171" stroke="url(#paint5_linear_6637_465)"/>
<g filter="url(#filter2_dd_6637_465)">
<path d="M77.3433 59.4816L143.002 51.3027L114.22 83.6488L97.1703 71.9434L90.7726 82.2719L89.9728 68.1073L77.3433 59.4816Z" fill="url(#paint6_linear_6637_465)"/>
<path d="M77.3433 59.4816L143.002 51.3027L114.22 83.6488L97.1703 71.9434L90.7726 82.2719L89.9728 68.1073L77.3433 59.4816Z" fill="url(#paint7_linear_6637_465)" fill-opacity="0.2"/>
<path d="M77.3433 59.4816L143.002 51.3027L114.22 83.6488L97.1703 71.9434L90.7726 82.2719L89.9728 68.1073L77.3433 59.4816Z" fill="url(#paint8_linear_6637_465)" fill-opacity="0.2"/>
</g>
<path opacity="0.3" d="M143.002 51.3028L90.4098 67.9985L91.1609 82.3293L97.5189 71.995L143.002 51.3028Z" fill="#090808"/>
<path d="M78.5953 126.432C78.9622 126.189 79.4563 126.29 79.6994 126.657C79.9424 127.024 79.8425 127.519 79.4755 127.762C79.102 128.009 78.732 128.232 78.3719 128.429L78.0146 128.616C77.3632 128.944 76.6847 129.191 75.9881 129.362L75.908 129.378C75.5078 129.434 75.1216 129.18 75.023 128.779C74.9179 128.351 75.1793 127.92 75.6066 127.814L75.8251 127.758C76.3327 127.618 76.8246 127.431 77.2967 127.192L77.6087 127.029C77.9259 126.856 78.257 126.656 78.5953 126.432ZM67.2953 127.442C67.4506 127.06 67.8687 126.863 68.2564 126.976L68.3338 127.003L68.7856 127.18C69.692 127.518 70.6054 127.767 71.5068 127.915L71.9567 127.981L72.0372 127.995C72.4306 128.087 72.6982 128.463 72.646 128.873C72.5938 129.282 72.24 129.579 71.8362 129.569L71.7546 129.563L71.2488 129.488C70.2356 129.321 69.2223 129.043 68.2289 128.673L67.7339 128.48L67.6598 128.446C67.3028 128.257 67.14 127.824 67.2953 127.442ZM82.9562 122.13C83.2131 121.818 83.6695 121.745 84.0129 121.974C84.3792 122.218 84.4779 122.713 84.2337 123.079L83.992 123.43C83.4166 124.24 82.7623 124.987 82.0764 125.656C81.7614 125.964 81.2572 125.958 80.9498 125.643C80.6423 125.328 80.6481 124.823 80.9631 124.516C81.6786 123.817 82.3469 123.037 82.9076 122.196L82.9562 122.13ZM62.0246 122.808C62.8069 123.581 63.6685 124.301 64.5838 124.944L64.9796 125.215L65.0452 125.263C65.3567 125.52 65.4294 125.977 65.2004 126.32C64.9713 126.663 64.5217 126.771 64.1648 126.582L64.0949 126.54L63.6681 126.248C62.6808 125.555 61.7503 124.778 60.904 123.942L62.0246 122.808ZM60.8971 122.815C61.2065 122.502 61.7115 122.499 62.0246 122.808L60.904 123.942C60.591 123.632 60.5878 123.128 60.8971 122.815ZM85.7399 115.83C85.916 116.585 86.036 117.36 86.0891 118.152L86.0908 118.224L86.0855 118.295C86.0192 118.879 85.8961 119.45 85.7257 120.003L85.6973 120.08C85.5399 120.452 85.1233 120.652 84.729 120.53C84.3084 120.401 84.0723 119.954 84.2019 119.534L84.3016 119.183C84.3875 118.853 84.4507 118.52 84.4921 118.184C84.4427 117.509 84.3396 116.844 84.1876 116.191L85.7399 115.83ZM58.0096 116.099C58.176 116.834 58.4132 117.549 58.7288 118.238L58.9273 118.651C59.0657 118.926 59.2161 119.199 59.3778 119.471L59.6282 119.877L59.6688 119.949C59.8511 120.309 59.7348 120.756 59.3876 120.979C59.0401 121.201 58.5848 121.12 58.3337 120.803L58.2863 120.737L58.0072 120.286C57.8271 119.984 57.6591 119.677 57.5033 119.368L57.2794 118.902C56.9153 118.108 56.6436 117.287 56.4542 116.45L58.0096 116.099ZM84.7826 115.235C85.2113 115.135 85.64 115.401 85.7399 115.83L84.1876 116.191C84.0878 115.763 84.3542 115.335 84.7826 115.235ZM57.0557 115.497C57.4851 115.4 57.9124 115.669 58.0096 116.099L56.4542 116.45C56.3573 116.021 56.6266 115.594 57.0557 115.497ZM81.4734 107.708C82.3104 108.714 83.0989 109.813 83.7803 110.99L84.0657 111.5L84.1002 111.573C84.2558 111.946 84.107 112.383 83.7441 112.58C83.3812 112.777 82.9334 112.662 82.7061 112.328L82.664 112.259L82.4 111.789C81.7699 110.7 81.0356 109.674 80.2475 108.727L80.8609 108.218L81.4734 107.708ZM57.358 106.395C57.5274 106.028 57.95 105.842 58.3402 105.976C58.7564 106.119 58.978 106.573 58.8349 106.989L58.6494 107.55C58.233 108.864 57.9345 110.205 57.7932 111.534C57.7466 111.971 57.3539 112.289 56.9163 112.242C56.4786 112.196 56.1612 111.803 56.2076 111.366C56.3838 109.709 56.7816 108.057 57.3272 106.47L57.358 106.395ZM80.3509 107.604C80.6893 107.323 81.1919 107.369 81.4734 107.708L80.2475 108.727C79.9662 108.388 80.0125 107.886 80.3509 107.604ZM73.6028 102.007C73.8251 101.659 74.2725 101.542 74.6331 101.724L74.7037 101.765L75.1548 102.059C75.6056 102.359 76.0558 102.675 76.5049 103.009L76.939 103.339C77.2311 103.565 77.5281 103.805 77.8281 104.057L78.28 104.444L78.3392 104.501C78.6147 104.796 78.6269 105.258 78.3554 105.569C78.0837 105.879 77.6244 105.928 77.2951 105.694L77.2308 105.644L76.8029 105.277C76.5191 105.039 76.2382 104.812 75.9625 104.599L75.5532 104.288C75.1262 103.971 74.6995 103.67 74.2726 103.387L73.8459 103.108L73.7788 103.061C73.4622 102.81 73.3807 102.355 73.6028 102.007ZM58.5132 97.6207C59.7948 97.5587 61.0658 97.5661 62.3279 97.6558C62.3945 97.6606 62.4585 97.6739 62.5192 97.6937C62.6678 97.6973 62.8172 97.7419 62.949 97.8318C63.3124 98.08 63.4063 98.5761 63.1582 98.9396L61.9807 100.679C61.5576 101.312 61.1457 101.986 60.7559 102.691C60.5429 103.076 60.0582 103.216 59.673 103.003C59.2879 102.79 59.1482 102.305 59.3608 101.92C59.7727 101.175 60.2083 100.462 60.6566 99.7907L60.658 99.7891L61.064 99.1885C60.2468 99.1638 59.4226 99.1729 58.5903 99.2132L58.0641 99.2422L57.9823 99.243C57.5787 99.2277 57.2438 98.9088 57.2177 98.497C57.19 98.0579 57.5238 97.6793 57.9629 97.6514L58.5132 97.6207ZM65.7045 98.9054C65.8004 98.5038 66.1847 98.2465 66.5853 98.3002L66.6651 98.3152L67.1895 98.4462C68.2375 98.7199 69.2795 99.0635 70.3164 99.4846L70.8341 99.7019L70.9075 99.7375C71.2603 99.9343 71.4136 100.371 71.25 100.75C71.0863 101.128 70.6639 101.316 70.2789 101.194L70.202 101.165L69.7165 100.962C68.7445 100.567 67.7685 100.245 66.7866 99.9881L66.2955 99.8658L66.2168 99.843C65.8353 99.7101 65.6088 99.3067 65.7045 98.9054ZM45.2649 100.079C45.6889 99.9615 46.1287 100.21 46.2468 100.634C46.3648 101.058 46.1165 101.498 45.6925 101.616C45.3556 101.71 45.0172 101.805 44.6773 101.902L43.6526 102.199C43.2301 102.322 42.7872 102.079 42.6637 101.657C42.5405 101.234 42.7829 100.792 43.2052 100.669L44.239 100.369C44.5822 100.271 44.9242 100.174 45.2649 100.079ZM49.7873 100.558C49.3588 100.658 48.9298 100.392 48.8293 99.9637C48.7288 99.5352 48.9949 99.1062 49.4234 99.0057L49.7873 100.558ZM53.653 98.1534C54.0873 98.082 54.4978 98.376 54.5692 98.8104C54.6405 99.2448 54.3457 99.6546 53.9113 99.7259C52.5603 99.9477 51.187 100.23 49.7873 100.558L49.6057 99.7814L49.4234 99.0057C50.8509 98.6712 52.2601 98.3821 53.653 98.1534ZM65.5483 95.5169C65.2913 95.874 64.7936 95.9552 64.4363 95.6984C64.079 95.4415 63.9974 94.9439 64.2541 94.5865L65.5483 95.5169ZM66.7972 91.2003C67.0705 90.8553 67.5715 90.7975 67.9165 91.0706C68.2616 91.3439 68.3202 91.8448 68.047 92.1899C67.241 93.2078 66.4149 94.3114 65.5483 95.5169L64.2541 94.5865C65.1316 93.3659 65.9725 92.2418 66.7972 91.2003ZM70.7281 89.0473C70.4283 89.3696 69.9236 89.3883 69.6013 89.0885C69.279 88.7887 69.261 88.284 69.5608 87.9616L70.7281 89.0473ZM72.6457 84.9885C72.98 84.7025 73.4832 84.7419 73.7694 85.0762C74.0554 85.4106 74.016 85.9138 73.6817 86.2C72.667 87.0688 71.6951 88.0076 70.7281 89.0473L69.5608 87.9616C70.5653 86.8817 71.581 85.9001 72.6457 84.9885ZM79.8185 80.1927C80.1923 80.0398 80.6286 80.192 80.8227 80.556C81.0297 80.9443 80.883 81.4271 80.4948 81.6343L79.5541 82.1482C78.6335 82.6648 77.7713 83.1893 76.9534 83.7323C76.5867 83.9758 76.0921 83.8759 75.8486 83.5092C75.6053 83.1425 75.7051 82.6478 76.0718 82.4044C77.2104 81.6484 78.4239 80.9312 79.7444 80.2273L79.8185 80.1927ZM85.5686 77.4691C85.9537 77.3472 86.3762 77.5346 86.54 77.9134C86.7035 78.2922 86.5502 78.728 86.1974 78.9248L86.1242 78.9609C85.4638 79.2463 84.829 79.5281 84.2174 79.8072C83.8171 79.9899 83.3441 79.8134 83.1613 79.4131C82.9785 79.0127 83.1551 78.5398 83.5554 78.3569C84.1778 78.0728 84.8232 77.7869 85.4925 77.4976L85.5686 77.4691Z" fill="#B7B4AF"/>
<defs>
<filter id="filter0_dd_6637_465" x="32.1084" y="21.4653" width="174" height="103.83" filterUnits="userSpaceOnUse" color-interpolation-filters="sRGB">
<feFlood flood-opacity="0" result="BackgroundImageFix"/>
<feColorMatrix in="SourceAlpha" type="matrix" values="0 0 0 0 0 0 0 0 0 0 0 0 0 0 0 0 0 0 127 0" result="hardAlpha"/>
<feOffset dy="4"/>
<feGaussianBlur stdDeviation="8"/>
<feComposite in2="hardAlpha" operator="out"/>
<feColorMatrix type="matrix" values="0 0 0 0 0 0 0 0 0 0 0 0 0 0 0 0 0 0 0.16 0"/>
<feBlend mode="normal" in2="BackgroundImageFix" result="effect1_dropShadow_6637_465"/>
<feColorMatrix in="SourceAlpha" type="matrix" values="0 0 0 0 0 0 0 0 0 0 0 0 0 0 0 0 0 0 127 0" result="hardAlpha"/>
<feOffset dy="1"/>
<feGaussianBlur stdDeviation="0.5"/>
<feComposite in2="hardAlpha" operator="out"/>
<feColorMatrix type="matrix" values="0 0 0 0 0 0 0 0 0 0 0 0 0 0 0 0 0 0 0.08 0"/>
<feBlend mode="normal" in2="effect1_dropShadow_6637_465" result="effect2_dropShadow_6637_465"/>
<feBlend mode="normal" in="SourceGraphic" in2="effect2_dropShadow_6637_465" result="shape"/>
</filter>
<filter id="filter1_dd_6637_465" x="78.2207" y="69" width="69" height="69" filterUnits="userSpaceOnUse" color-interpolation-filters="sRGB">
<feFlood flood-opacity="0" result="BackgroundImageFix"/>
<feColorMatrix in="SourceAlpha" type="matrix" values="0 0 0 0 0 0 0 0 0 0 0 0 0 0 0 0 0 0 127 0" result="hardAlpha"/>
<feMorphology radius="6" operator="dilate" in="SourceAlpha" result="effect1_dropShadow_6637_465"/>
<feOffset/>
<feGaussianBlur stdDeviation="12"/>
<feComposite in2="hardAlpha" operator="out"/>
<feColorMatrix type="matrix" values="0 0 0 0 0.98415 0 0 0 0 0.859671 0 0 0 0 0.486234 0 0 0 1 0"/>
<feBlend mode="normal" in2="BackgroundImageFix" result="effect1_dropShadow_6637_465"/>
<feColorMatrix in="SourceAlpha" type="matrix" values="0 0 0 0 0 0 0 0 0 0 0 0 0 0 0 0 0 0 127 0" result="hardAlpha"/>
<feOffset dy="2"/>
<feGaussianBlur stdDeviation="4"/>
<feComposite in2="hardAlpha" operator="out"/>
<feColorMatrix type="matrix" values="0 0 0 0 0 0 0 0 0 0 0 0 0 0 0 0 0 0 0.08 0"/>
<feBlend mode="normal" in2="effect1_dropShadow_6637_465" result="effect2_dropShadow_6637_465"/>
<feBlend mode="normal" in="SourceGraphic" in2="effect2_dropShadow_6637_465" result="shape"/>
</filter>
<filter id="filter2_dd_6637_465" x="61.3433" y="39.3027" width="97.6592" height="64.3462" filterUnits="userSpaceOnUse" color-interpolation-filters="sRGB">
<feFlood flood-opacity="0" result="BackgroundImageFix"/>
<feColorMatrix in="SourceAlpha" type="matrix" values="0 0 0 0 0 0 0 0 0 0 0 0 0 0 0 0 0 0 127 0" result="hardAlpha"/>
<feOffset dy="4"/>
<feGaussianBlur stdDeviation="8"/>
<feComposite in2="hardAlpha" operator="out"/>
<feColorMatrix type="matrix" values="0 0 0 0 0 0 0 0 0 0 0 0 0 0 0 0 0 0 0.26 0"/>
<feBlend mode="normal" in2="BackgroundImageFix" result="effect1_dropShadow_6637_465"/>
<feColorMatrix in="SourceAlpha" type="matrix" values="0 0 0 0 0 0 0 0 0 0 0 0 0 0 0 0 0 0 127 0" result="hardAlpha"/>
<feOffset dy="1"/>
<feGaussianBlur stdDeviation="0.5"/>
<feComposite in2="hardAlpha" operator="out"/>
<feColorMatrix type="matrix" values="0 0 0 0 0 0 0 0 0 0 0 0 0 0 0 0 0 0 0.08 0"/>
<feBlend mode="normal" in2="effect1_dropShadow_6637_465" result="effect2_dropShadow_6637_465"/>
<feBlend mode="normal" in="SourceGraphic" in2="effect2_dropShadow_6637_465" result="shape"/>
</filter>
<radialGradient id="paint0_radial_6637_465" cx="0" cy="0" r="1" gradientTransform="matrix(-14.5 -110.5 70.9235 14.5119 119.221 105)" gradientUnits="userSpaceOnUse">
<stop offset="0.344591" stop-color="#FFF9E6"/>
<stop offset="1" stop-color="#959494"/>
</radialGradient>
<linearGradient id="paint1_linear_6637_465" x1="110.096" y1="99.75" x2="114.971" y2="106.125" gradientUnits="userSpaceOnUse">
<stop stop-color="#FFE79E"/>
<stop offset="1" stop-color="#FFD452"/>
</linearGradient>
<linearGradient id="paint2_linear_6637_465" x1="108.221" y1="103.5" x2="117.221" y2="103.5" gradientUnits="userSpaceOnUse">
<stop stop-color="#FFEAAA"/>
<stop offset="1" stop-color="#FFE7A1"/>
</linearGradient>
<linearGradient id="paint3_linear_6637_465" x1="48.5719" y1="59" x2="49.9887" y2="68.4453" gradientUnits="userSpaceOnUse">
<stop stop-color="#C2C2C2"/>
<stop offset="1" stop-color="#FFEFBF"/>
</linearGradient>
<linearGradient id="paint4_linear_6637_465" x1="89.5719" y1="31" x2="90.9887" y2="40.4453" gradientUnits="userSpaceOnUse">
<stop stop-color="#C2C2C2"/>
<stop offset="1" stop-color="#FFEFBF"/>
</linearGradient>
<linearGradient id="paint5_linear_6637_465" x1="153.572" y1="62" x2="154.989" y2="71.4453" gradientUnits="userSpaceOnUse">
<stop stop-color="#C2C2C2"/>
<stop offset="1" stop-color="#FFEFBF"/>
</linearGradient>
<linearGradient id="paint6_linear_6637_465" x1="66.367" y1="54.0985" x2="68.201" y2="79.9613" gradientUnits="userSpaceOnUse">
<stop offset="0.0036" stop-color="#ADACAC"/>
<stop offset="1" stop-color="#FEF7E4"/>
</linearGradient>
<linearGradient id="paint7_linear_6637_465" x1="95.9188" y1="52.9629" x2="72.5871" y2="69.5793" gradientUnits="userSpaceOnUse">
<stop stop-color="#FFEAAA" stop-opacity="0"/>
<stop offset="1" stop-color="#FFCC33"/>
</linearGradient>
<linearGradient id="paint8_linear_6637_465" x1="117.486" y1="68.5032" x2="123.717" y2="79.0946" gradientUnits="userSpaceOnUse">
<stop stop-color="#FFEAAA" stop-opacity="0"/>
<stop offset="1" stop-color="#FFC000"/>
</linearGradient>
</defs>
</svg>
