<svg width="230" height="160" viewBox="0 0 230 160" fill="none" xmlns="http://www.w3.org/2000/svg">
<path d="M99.6092 128.5C130.006 128.5 154.648 103.876 154.648 73.5C154.648 43.1243 130.006 18.5 99.6092 18.5C69.2121 18.5 44.5703 43.1243 44.5703 73.5C44.5703 103.876 69.2121 128.5 99.6092 128.5Z" fill="#242424"/>
<path fill-rule="evenodd" clip-rule="evenodd" d="M45.1758 65.4843H102.27C105.507 65.4843 108.05 62.9409 108.05 59.7037V37.1593C108.05 33.9222 105.507 31.3787 102.27 31.3787L64.323 31.3787C54.2297 39.8412 47.2088 51.8482 45.1758 65.4843ZM102.27 63.2877C104.235 63.2877 105.738 61.6691 105.738 59.8193V54.1543C104.582 54.9636 103.542 55.8885 102.501 56.929C100.536 58.8944 98.8015 60.9755 97.5297 63.2877H102.27Z" fill="#4D4D4D"/>
<path d="M52.5908 45.0209H77.5278C78.6839 45.0209 79.6088 44.096 79.6088 42.9398C79.6088 41.7837 78.6839 40.8588 77.5278 40.8588H55.3926C54.3979 42.2008 53.4627 43.5894 52.5908 45.0209Z" fill="#707070"/>
<path d="M51.8622 56.1198H88.0484C89.0889 56.1198 90.0138 55.1949 90.0138 54.0388C90.0138 52.8826 89.0889 51.9577 87.9328 51.9577H51.8622C50.7061 51.9577 49.7812 52.8826 49.7812 54.0388C49.7812 55.1949 50.7061 56.1198 51.8622 56.1198Z" fill="#707070"/>
<path d="M56.1844 107.567H63.6554C66.7769 107.567 69.436 104.908 69.436 101.786V79.1264C69.436 75.8892 66.8925 73.3458 63.6554 73.3458H44.5704C44.5697 73.4612 44.5693 73.5766 44.5693 73.6922C44.5693 86.4604 48.905 98.216 56.1844 107.567Z" fill="#4D4D4D"/>
<path d="M50.1546 97.9143C50.8904 97.5948 51.4003 96.8638 51.4003 96.0054C51.4003 94.8493 50.4754 93.9244 49.3193 93.9244H48.3955C48.9305 95.2815 49.5177 96.6123 50.1546 97.9143Z" fill="#707070"/>
<path d="M137.646 73.3458H80.1878C76.9507 73.3458 74.4072 75.8892 74.4072 79.1264V101.786C74.4072 105.024 76.9507 107.567 80.1878 107.567H137.646C140.883 107.567 143.427 105.024 143.427 101.786V79.1264C143.427 75.8892 140.883 73.3458 137.646 73.3458Z" fill="#4D4D4D"/>
<path d="M142.502 104.908C141.577 106.411 139.843 107.451 137.993 107.451C139.496 106.758 140.999 105.948 142.502 104.908Z" fill="#393F4E"/>
<path d="M112.907 86.8722H87.2414C86.0853 86.8722 85.1604 85.9473 85.1604 84.7912C85.1604 83.635 86.0853 82.7101 87.2414 82.7101H112.907C114.063 82.7101 114.988 83.635 114.988 84.7912C114.872 85.9473 113.947 86.8722 112.907 86.8722Z" fill="#393F4E"/>
<path d="M123.312 98.0865H87.2411C86.085 98.0865 85.1602 97.1616 85.1602 96.0054C85.1602 94.8493 86.085 93.9244 87.2411 93.9244H123.312C124.468 93.9244 125.393 94.8493 125.393 96.0054C125.393 97.1616 124.468 98.0865 123.312 98.0865Z" fill="#707070"/>
<path d="M142.944 71.1389H92.0303C90.9257 71.1389 90.0303 72.0343 90.0303 73.1389V89.8635C90.0303 90.3085 90.1787 90.7407 90.452 91.0919L104.537 109.19C104.916 109.676 105.498 109.961 106.115 109.961H146.944C148.048 109.961 148.944 109.066 148.944 107.961V77.1389C148.944 73.8252 146.257 71.1389 142.944 71.1389Z" fill="#777777"/>
<path d="M113.71 85.7818H84.763C83.4591 85.7818 82.416 84.8473 82.416 83.6792C82.416 82.5111 83.4591 81.5767 84.763 81.5767H113.71C115.013 81.5767 116.057 82.5111 116.057 83.6792C115.926 84.8473 114.883 85.7818 113.71 85.7818Z" fill="#D1D1D1"/>
<path d="M126.279 98.3974H84.8085C83.4794 98.3974 82.416 97.4629 82.416 96.2949C82.416 95.1268 83.4794 94.1923 84.8085 94.1923H126.279C127.608 94.1923 128.672 95.1268 128.672 96.2949C128.672 97.4629 127.608 98.3974 126.279 98.3974Z" fill="#D1D1D1"/>
<path d="M92.7354 58.7142C92.7354 54.296 96.3171 50.7142 100.735 50.7142H108.365V59.3571C108.365 62.6708 105.679 65.3571 102.365 65.3571H92.7354V58.7142Z" fill="#777777"/>
<path d="M183.22 128.253L165.349 110.204C163.517 108.353 160.882 107.658 158.476 108.121L154.123 103.725C166.495 88.2212 165.464 65.4288 151.259 51.0822C139.345 39.0497 121.588 36.3886 107.154 43.2148C103.145 45.066 99.3642 47.727 95.9274 51.0822C91.6888 55.2474 88.7103 60.2224 86.8774 65.5445C85.9609 68.0898 85.2735 70.6352 84.9299 73.2962C83.2115 85.2131 86.8774 97.8241 95.9274 106.964C96.1565 107.196 96.2711 107.311 96.5002 107.543C104.061 114.947 113.798 118.534 123.65 118.534C132.357 118.534 141.063 115.642 148.166 109.857L152.519 114.253C152.061 116.683 152.748 119.344 154.581 121.195L172.337 139.244C175.316 142.252 180.127 142.252 183.106 139.244C186.199 136.236 186.199 131.261 183.22 128.253ZM145.646 101.295C144.271 102.683 142.782 103.84 141.292 104.997C139.803 106.039 138.314 106.849 136.825 107.543C128.576 111.476 118.839 111.476 110.591 107.543C107.383 106.039 104.405 103.956 101.77 101.295C94.2091 93.659 91.3451 83.1305 93.178 73.2962C93.6363 70.6352 94.4382 67.9741 95.6983 65.5445C97.1876 62.4206 99.2496 59.4125 101.77 56.8671C103.488 55.1317 105.321 53.6276 107.269 52.4706C112.309 49.2311 118.037 47.727 123.765 47.727C131.784 47.727 139.689 50.7351 145.76 56.8671C157.789 69.1311 157.789 89.0311 145.646 101.295Z" fill="url(#paint0_linear_4532_355824)"/>
<defs>
<linearGradient id="paint0_linear_4532_355824" x1="161.796" y1="43.881" x2="129.113" y2="146.882" gradientUnits="userSpaceOnUse">
<stop stop-color="#FAFAFA"/>
<stop offset="1" stop-color="#CCCCCC"/>
</linearGradient>
</defs>
</svg>
