<svg width="230" height="160" viewBox="0 0 230 160" fill="none" xmlns="http://www.w3.org/2000/svg">
<path d="M99.668 128.5C130.044 128.5 154.668 103.876 154.668 73.5C154.668 43.1243 130.044 18.5 99.668 18.5C69.2923 18.5 44.668 43.1243 44.668 73.5C44.668 103.876 69.2923 128.5 99.668 128.5Z" fill="#EBEBEB"/>
<g filter="url(#filter0_d_817_4893)">
<path fill-rule="evenodd" clip-rule="evenodd" d="M45.2734 65.4844H102.327C105.562 65.4844 108.104 62.9409 108.104 59.7038V37.1594C108.104 33.9223 105.562 31.3788 102.327 31.3788H64.4072C54.321 39.8412 47.305 51.8483 45.2734 65.4844Z" fill="url(#paint0_linear_817_4893)"/>
</g>
<path d="M52.6844 45.021H77.6039C78.7592 45.021 79.6835 44.0962 79.6835 42.94C79.6835 41.7839 78.7592 40.859 77.6039 40.859H55.4843C54.4903 42.2009 53.5557 43.5896 52.6844 45.021Z" fill="#EDE5DA"/>
<path d="M51.9565 56.12H88.1171C89.1569 56.12 90.0811 55.1951 90.0811 54.0389C90.0811 52.8828 89.1568 51.9579 88.0016 51.9579H51.9565C50.8012 51.9579 49.877 52.8828 49.877 54.0389C49.877 55.1951 50.8012 56.12 51.9565 56.12Z" fill="#EDE5DA"/>
<g filter="url(#filter1_d_817_4893)">
<path d="M63.642 73.3461C66.8768 73.3461 69.4184 75.8895 69.4184 79.1267V101.787C69.4184 104.908 66.7612 107.567 63.642 107.567H56.2836C53.4532 103.917 49.9384 99.0356 47.4979 91.7142C45.0574 84.3928 44.5693 77.5164 44.5693 73.3461H63.642Z" fill="url(#paint1_linear_817_4893)"/>
</g>
<path d="M50.1941 97.9379C49.5658 96.7055 48.9611 95.3769 48.3945 93.9253H49.4138C50.5691 93.9253 51.4933 94.8502 51.4933 96.0063C51.4933 96.8857 50.9586 97.6314 50.1941 97.9379Z" fill="#EDE5DA"/>
<g filter="url(#filter2_d_817_4893)">
<path d="M137.679 73.3461H80.2608C77.026 73.3461 74.4844 75.8895 74.4844 79.1267V101.787C74.4844 105.024 77.026 107.567 80.2608 107.567H137.679C140.914 107.567 143.455 105.024 143.455 101.787V79.1267C143.455 75.8895 140.914 73.3461 137.679 73.3461Z" fill="url(#paint2_linear_817_4893)"/>
</g>
<path d="M112.956 86.8726H87.3083C86.153 86.8726 85.2287 85.9477 85.2287 84.7916C85.2287 83.6355 86.153 82.7106 87.3083 82.7106H112.956C114.111 82.7106 115.035 83.6355 115.035 84.7916C114.92 85.9477 113.995 86.8726 112.956 86.8726Z" fill="#EDE5DA"/>
<path d="M123.353 98.0871H87.308C86.1527 98.0871 85.2285 97.1622 85.2285 96.0061C85.2285 94.85 86.1527 93.9251 87.308 93.9251H123.353C124.508 93.9251 125.433 94.85 125.433 96.0061C125.433 97.1622 124.508 98.0871 123.353 98.0871Z" fill="#EDE5DA"/>
<path d="M89.1227 73.0913C89.1227 72.013 89.9968 71.1389 91.0751 71.1389H142.137C145.372 71.1389 147.994 73.7612 147.994 76.996V108.009C147.994 109.087 147.12 109.961 146.042 109.961H103.728C98.3589 109.961 89.5732 95.619 89.1227 89.2737C88.6723 82.9285 89.1227 73.0913 89.1227 73.0913Z" fill="url(#paint3_linear_817_4893)"/>
<path d="M112.783 85.7818H90.6354C89.3324 85.7818 88.29 84.8474 88.29 83.6793C88.29 82.5112 89.3324 81.5767 90.6354 81.5767H112.783C114.086 81.5767 115.128 82.5112 115.128 83.6793C114.998 84.8474 113.955 85.7818 112.783 85.7818Z" fill="#F4F1EA"/>
<path d="M125.344 98.3972H92.0137C90.6854 98.3972 89.6228 97.4627 89.6228 96.2947C89.6228 95.1266 90.6854 94.1921 92.0137 94.1921H125.344C126.672 94.1921 127.734 95.1266 127.734 96.2947C127.734 97.4627 126.672 98.3972 125.344 98.3972Z" fill="#F4F1EA"/>
<path d="M92.8023 58.5238C92.8023 54.2107 96.2987 50.7142 100.612 50.7142H108.421V59.4999C108.421 62.7347 105.799 65.3571 102.564 65.3571H92.8023V58.5238Z" fill="#6C6C6C"/>
<g filter="url(#filter3_d_817_4893)">
<path d="M183.221 128.253L165.363 110.204C163.531 108.353 160.898 107.658 158.494 108.121L154.144 103.725C166.507 88.2212 165.477 65.4288 151.282 51.0822C139.376 39.0497 121.633 36.3886 107.208 43.2148C103.202 45.066 99.424 47.727 95.9897 51.0822C91.754 55.2474 88.7776 60.2224 86.946 65.5445C86.0302 68.0898 85.3433 70.6352 84.9999 73.2962C83.2827 85.2131 86.946 97.8241 95.9897 106.964C96.2186 107.196 96.3331 107.311 96.5621 107.543C104.118 114.947 113.848 118.534 123.693 118.534C132.393 118.534 141.094 115.642 148.191 109.857L152.541 114.253C152.083 116.683 152.77 119.344 154.602 121.195L172.346 139.244C175.322 142.252 180.13 142.252 183.107 139.244C186.197 136.236 186.197 131.261 183.221 128.253ZM145.673 101.295C144.299 102.683 142.811 103.84 141.323 104.997C139.834 106.039 138.346 106.849 136.858 107.543C128.616 111.476 118.885 111.476 110.643 107.543C107.437 106.039 104.461 103.956 101.828 101.295C94.2725 93.659 91.4106 83.1305 93.2422 73.2962C93.7001 70.6352 94.5015 67.9741 95.7607 65.5445C97.2489 62.4206 99.3095 59.4125 101.828 56.8671C103.545 55.1317 105.377 53.6276 107.323 52.4706C112.36 49.2311 118.084 47.727 123.808 47.727C131.821 47.727 139.72 50.7351 145.787 56.8671C157.807 69.1311 157.807 89.0311 145.673 101.295Z" fill="white"/>
</g>
<defs>
<filter id="filter0_d_817_4893" x="35.2734" y="20.3788" width="106.83" height="78.1056" filterUnits="userSpaceOnUse" color-interpolation-filters="sRGB">
<feFlood flood-opacity="0" result="BackgroundImageFix"/>
<feColorMatrix in="SourceAlpha" type="matrix" values="0 0 0 0 0 0 0 0 0 0 0 0 0 0 0 0 0 0 127 0" result="hardAlpha"/>
<feOffset dx="12" dy="11"/>
<feGaussianBlur stdDeviation="11"/>
<feColorMatrix type="matrix" values="0 0 0 0 0.576471 0 0 0 0 0.501961 0 0 0 0 0.396078 0 0 0 0.16 0"/>
<feBlend mode="normal" in2="BackgroundImageFix" result="effect1_dropShadow_817_4893"/>
<feBlend mode="normal" in="SourceGraphic" in2="effect1_dropShadow_817_4893" result="shape"/>
</filter>
<filter id="filter1_d_817_4893" x="40.5693" y="68.3461" width="56.8486" height="66.2212" filterUnits="userSpaceOnUse" color-interpolation-filters="sRGB">
<feFlood flood-opacity="0" result="BackgroundImageFix"/>
<feColorMatrix in="SourceAlpha" type="matrix" values="0 0 0 0 0 0 0 0 0 0 0 0 0 0 0 0 0 0 127 0" result="hardAlpha"/>
<feOffset dx="12" dy="11"/>
<feGaussianBlur stdDeviation="8"/>
<feColorMatrix type="matrix" values="0 0 0 0 0.576471 0 0 0 0 0.501961 0 0 0 0 0.396078 0 0 0 0.16 0"/>
<feBlend mode="normal" in2="BackgroundImageFix" result="effect1_dropShadow_817_4893"/>
<feBlend mode="normal" in="SourceGraphic" in2="effect1_dropShadow_817_4893" result="shape"/>
</filter>
<filter id="filter2_d_817_4893" x="52.4844" y="62.3461" width="112.971" height="78.2212" filterUnits="userSpaceOnUse" color-interpolation-filters="sRGB">
<feFlood flood-opacity="0" result="BackgroundImageFix"/>
<feColorMatrix in="SourceAlpha" type="matrix" values="0 0 0 0 0 0 0 0 0 0 0 0 0 0 0 0 0 0 127 0" result="hardAlpha"/>
<feOffset dy="11"/>
<feGaussianBlur stdDeviation="11"/>
<feColorMatrix type="matrix" values="0 0 0 0 0.576471 0 0 0 0 0.501961 0 0 0 0 0.396078 0 0 0 0.16 0"/>
<feBlend mode="normal" in2="BackgroundImageFix" result="effect1_dropShadow_817_4893"/>
<feBlend mode="normal" in="SourceGraphic" in2="effect1_dropShadow_817_4893" result="shape"/>
</filter>
<filter id="filter3_d_817_4893" x="76.5889" y="35.5258" width="116.851" height="117.974" filterUnits="userSpaceOnUse" color-interpolation-filters="sRGB">
<feFlood flood-opacity="0" result="BackgroundImageFix"/>
<feColorMatrix in="SourceAlpha" type="matrix" values="0 0 0 0 0 0 0 0 0 0 0 0 0 0 0 0 0 0 127 0" result="hardAlpha"/>
<feOffset dy="4"/>
<feGaussianBlur stdDeviation="4"/>
<feComposite in2="hardAlpha" operator="out"/>
<feColorMatrix type="matrix" values="0 0 0 0 0.576471 0 0 0 0 0.501961 0 0 0 0 0.396078 0 0 0 0.24 0"/>
<feBlend mode="normal" in2="BackgroundImageFix" result="effect1_dropShadow_817_4893"/>
<feBlend mode="normal" in="SourceGraphic" in2="effect1_dropShadow_817_4893" result="shape"/>
</filter>
<linearGradient id="paint0_linear_817_4893" x1="76.9163" y1="30.5899" x2="76.9163" y2="65.8521" gradientUnits="userSpaceOnUse">
<stop stop-color="#FDFEFF"/>
<stop offset="0.9964" stop-color="#F5F2EC"/>
</linearGradient>
<linearGradient id="paint1_linear_817_4893" x1="57.084" y1="72.5545" x2="57.084" y2="107.936" gradientUnits="userSpaceOnUse">
<stop stop-color="#FDFEFF"/>
<stop offset="0.9964" stop-color="#F5F2EC"/>
</linearGradient>
<linearGradient id="paint2_linear_817_4893" x1="108.947" y1="72.5545" x2="108.947" y2="107.936" gradientUnits="userSpaceOnUse">
<stop stop-color="#FDFEFF"/>
<stop offset="0.9964" stop-color="#F5F2EC"/>
</linearGradient>
<linearGradient id="paint3_linear_817_4893" x1="145.626" y1="50.7144" x2="90.1106" y2="50.9091" gradientUnits="userSpaceOnUse">
<stop stop-color="#606060"/>
<stop offset="1" stop-color="#7B7B7B"/>
</linearGradient>
</defs>
</svg>
