<svg width="230" height="160" viewBox="0 0 230 160" fill="none" xmlns="http://www.w3.org/2000/svg">
<g filter="url(#filter0_dd_7647_1659)">
<path d="M98.9624 90.3033L99.1027 90.2209C99.7789 89.7808 100.039 88.9245 99.679 88.2362C99.3192 87.5479 98.4678 87.2725 97.7205 87.5764L97.5727 87.6446L94.632 89.1817C93.8525 89.5891 93.5317 90.5146 93.9155 91.2488C94.2993 91.983 95.2423 92.2478 96.0218 91.8404L98.9624 90.3033ZM110.724 84.1556L110.865 84.0728C111.541 83.6327 111.8 82.7767 111.44 82.0885C111.081 81.4003 110.23 81.1246 109.482 81.4284L109.334 81.4969L103.453 84.5707C102.674 84.9782 102.353 85.9037 102.737 86.6378C103.121 87.372 104.064 87.6369 104.843 87.2294L110.724 84.1556ZM122.486 78.0076L122.626 77.9252C123.302 77.4851 123.562 76.6289 123.202 75.9405C122.842 75.2521 121.991 74.9766 121.244 75.2807L121.096 75.3489L115.215 78.4227C114.436 78.8302 114.115 79.7556 114.499 80.4898C114.883 81.224 115.826 81.4889 116.605 81.0814L122.486 78.0076ZM131.307 73.3967L131.447 73.3142C132.124 72.8742 132.383 72.0179 132.024 71.3296C131.664 70.6412 130.812 70.3657 130.065 70.6698L129.917 70.738L126.977 72.275C126.197 72.6826 125.876 73.608 126.26 74.3421C126.644 75.0763 127.587 75.341 128.366 74.9338L131.307 73.3967Z" fill="url(#paint0_linear_7647_1659)"/>
</g>
<g filter="url(#filter1_dd_7647_1659)">
<path d="M157.426 82.8679H136.857V78.8052C136.857 75.0471 140.003 72 143.758 72H150.524C154.381 72 157.426 75.1487 157.426 78.8052V82.8679Z" fill="#919191"/>
</g>
<g filter="url(#filter2_dd_7647_1659)">
<path d="M171.653 94.9546L166.375 89.2667L171.45 84.5945C172.161 83.8836 173.277 83.9851 173.886 84.6961L176.829 87.8448C177.54 88.5558 177.438 89.673 176.728 90.2824L171.653 94.9546Z" fill="#919191"/>
</g>
<g filter="url(#filter3_dd_7647_1659)">
<path d="M121.819 94.9546L127.096 89.2667L122.022 84.5945C121.311 83.8836 120.195 83.9851 119.586 84.6961L116.642 87.8448C115.932 88.5558 116.033 89.673 116.744 90.2824L121.819 94.9546Z" fill="#919191"/>
</g>
<path d="M146.786 142.591C164.219 142.591 178.352 128.585 178.352 111.307C178.352 94.03 164.219 80.0239 146.786 80.0239C129.353 80.0239 115.221 94.03 115.221 111.307C115.221 128.585 129.353 142.591 146.786 142.591Z" fill="url(#paint1_linear_7647_1659)"/>
<path d="M177.352 111.307C177.351 94.5906 163.675 81.0239 146.786 81.0239C129.897 81.0239 116.221 94.5906 116.221 111.307C116.221 128.024 129.897 141.59 146.786 141.59V142.59L145.972 142.581C128.915 142.152 115.221 128.315 115.221 111.307C115.221 94.0299 129.353 80.0239 146.786 80.0239L147.601 80.0337C164.657 80.4618 178.351 94.2997 178.352 111.307L178.341 112.115C177.909 129.019 163.947 142.59 146.786 142.59V141.59C163.675 141.59 177.352 128.024 177.352 111.307Z" fill="url(#paint2_linear_7647_1659)" fill-opacity="0.4"/>
<path d="M146.786 137.919C161.585 137.919 173.581 126.004 173.581 111.308C173.581 96.6105 161.585 84.6963 146.786 84.6963C131.988 84.6963 119.991 96.6105 119.991 111.308C119.991 126.004 131.988 137.919 146.786 137.919Z" fill="url(#paint3_linear_7647_1659)"/>
<path d="M172.581 111.308C172.581 97.1694 161.039 85.6963 146.786 85.6963C132.533 85.6964 120.991 97.1695 120.991 111.308C120.991 125.446 132.533 136.919 146.786 136.919V137.919L146.095 137.91C131.845 137.552 120.361 126.146 120 111.994L119.991 111.308C119.991 96.6107 131.988 84.6964 146.786 84.6963C161.585 84.6963 173.581 96.6106 173.581 111.308L173.572 111.994C173.205 126.374 161.353 137.919 146.786 137.919V136.919C161.039 136.919 172.581 125.446 172.581 111.308Z" fill="url(#paint4_linear_7647_1659)" fill-opacity="0.4"/>
<path opacity="0.2" d="M172.571 111.359C172.571 111.848 172.571 112.24 172.474 112.73C171.79 99.1185 160.557 88.4452 146.784 88.4452C133.012 88.4452 121.779 99.2165 120.997 112.632C120.997 112.142 120.9 111.75 120.9 111.261C120.9 97.0622 132.523 85.6055 146.687 85.6055C161.045 85.7034 172.571 97.1601 172.571 111.359Z" fill="black"/>
<g filter="url(#filter4_dd_7647_1659)">
<path d="M168.303 111.307C168.303 112.12 168.202 112.831 168.202 113.542C168.1 115.167 166.274 116.081 164.751 115.37L153.485 109.479C152.673 109.073 152.166 108.26 152.166 107.346V94.0405C152.166 92.3139 153.891 91.095 155.515 91.806C163.026 95.1578 168.303 102.572 168.303 111.307Z" fill="url(#paint5_linear_7647_1659)"/>
</g>
<g filter="url(#filter5_dd_7647_1659)">
<path d="M152.166 107.345V94.0408C152.166 92.3141 153.891 91.0944 155.515 91.8054C163.026 95.1572 168.303 102.572 168.303 111.307L168.288 111.899C168.259 112.475 168.202 113.009 168.202 113.542C168.103 115.116 166.386 116.022 164.895 115.431L164.751 115.37L153.485 109.479C152.673 109.073 152.166 108.26 152.166 107.345ZM152.666 107.345C152.666 108.024 153.017 108.629 153.591 108.968L153.708 109.032L153.716 109.036L164.973 114.921C166.235 115.503 167.627 114.715 167.703 113.511C167.704 113.145 167.729 112.782 167.753 112.428C167.779 112.06 167.803 111.694 167.803 111.307C167.803 102.782 162.653 95.539 155.311 92.2625V92.2615C154.039 91.7075 152.666 92.6535 152.666 94.0408V107.345Z" fill="url(#paint6_linear_7647_1659)"/>
</g>
<g filter="url(#filter6_dd_7647_1659)">
<path d="M148.309 108.724C148.309 109.534 147.653 110.19 146.843 110.19C146.029 110.19 145.371 109.527 145.377 108.713L145.467 96.9864C145.467 96.1739 146.177 95.5645 146.888 95.5645C147.7 95.5645 148.309 96.2754 148.309 96.9864V108.724Z" fill="url(#paint7_linear_7647_1659)"/>
</g>
<g filter="url(#filter7_dd_7647_1659)">
<path d="M147.309 108.725V96.9863C147.309 96.9104 147.272 96.7961 147.179 96.6982C147.092 96.6072 146.99 96.5645 146.888 96.5645C146.813 96.5645 146.699 96.6011 146.601 96.6943C146.51 96.781 146.467 96.8833 146.467 96.9863V96.9941L146.377 108.721C146.375 108.979 146.584 109.19 146.843 109.19V110.19L146.693 110.183C145.999 110.112 145.449 109.558 145.383 108.864L145.377 108.713L145.467 96.9863C145.467 96.1738 146.177 95.5645 146.888 95.5645L147.037 95.5723C147.773 95.6528 148.309 96.3197 148.309 96.9863V108.725L148.301 108.874C148.226 109.613 147.602 110.19 146.843 110.19V109.19C147.1 109.19 147.309 108.982 147.309 108.725Z" fill="url(#paint8_linear_7647_1659)" fill-opacity="0.4" shape-rendering="crispEdges"/>
</g>
<path d="M144.858 112.018C144.858 111.003 145.67 110.088 146.786 110.088C147.903 110.088 148.613 110.901 148.613 111.917C148.613 112.932 147.801 113.846 146.685 113.846C145.67 113.846 144.858 113.135 144.858 112.018Z" fill="#989FB0"/>
<g filter="url(#filter8_dd_7647_1659)">
<path d="M165.766 121.765C165.711 121.775 165.643 121.794 165.591 121.816C165.523 121.844 165.432 121.858 165.348 121.865C165.223 121.875 165.098 121.842 164.986 121.785L146.482 112.527C146.279 112.425 146.177 112.12 146.279 111.917C146.38 111.714 146.685 111.613 146.888 111.714L165.563 121.059C165.721 121.138 165.818 121.341 165.805 121.523C165.798 121.613 165.855 121.748 165.766 121.765Z" fill="url(#paint9_linear_7647_1659)"/>
</g>
<g filter="url(#filter9_dd_7647_1659)">
<path d="M146.807 111.685L146.887 111.714L165.563 121.058C165.722 121.137 165.818 121.341 165.804 121.523C165.798 121.613 165.854 121.747 165.766 121.764L165.677 121.785C165.647 121.794 165.617 121.805 165.591 121.816L165.475 121.848C165.434 121.856 165.39 121.861 165.348 121.865C165.254 121.872 165.16 121.855 165.072 121.823L164.986 121.785L146.482 112.527C146.279 112.425 146.177 112.12 146.279 111.917C146.368 111.74 146.612 111.639 146.807 111.685Z" fill="url(#paint10_linear_7647_1659)" fill-opacity="0.4" shape-rendering="crispEdges"/>
</g>
<path d="M143.437 112.018C143.437 110.292 144.858 108.87 146.685 108.768C148.512 108.666 149.831 110.19 149.831 111.917C149.831 113.643 148.41 115.065 146.584 115.167C144.858 115.37 143.437 113.846 143.437 112.018Z" fill="#616161"/>
<g filter="url(#filter10_dd_7647_1659)">
<path d="M148.745 111.917C148.745 110.705 147.846 109.792 146.745 109.853C145.439 109.926 144.523 110.922 144.523 112.018C144.523 113.354 145.523 114.199 146.457 114.089L146.489 114.084L146.523 114.083C147.83 114.011 148.745 113.013 148.745 111.917ZM150.917 111.917C150.917 114.259 149.014 116.096 146.687 116.247C144.181 116.527 142.351 114.332 142.351 112.018C142.351 109.662 144.278 107.814 146.625 107.684C149.178 107.542 150.917 109.675 150.917 111.917Z" fill="url(#paint11_linear_7647_1659)"/>
</g>
<g filter="url(#filter11_dd_7647_1659)">
<path d="M149.918 111.916C149.917 110.14 148.556 108.578 146.68 108.682C144.867 108.783 143.443 110.155 143.355 111.853L143.351 112.018C143.351 113.893 144.809 115.451 146.576 115.253L146.599 115.25L146.623 115.248C148.479 115.128 149.918 113.678 149.918 111.916ZM148.746 111.916C148.745 110.705 147.846 109.792 146.745 109.853C145.439 109.926 144.523 110.922 144.523 112.018C144.523 113.27 145.402 114.091 146.281 114.098L146.457 114.088L146.49 114.084L146.523 114.083C147.748 114.015 148.63 113.134 148.735 112.12L148.746 111.916ZM149.741 112.073C149.658 113.672 148.316 114.985 146.579 115.081L146.567 115.082H146.563C144.932 115.268 143.523 113.834 143.523 112.018C143.523 110.348 144.897 108.954 146.689 108.854H146.69C148.442 108.757 149.745 110.212 149.746 111.916L149.741 112.073ZM150.912 112.134C150.798 114.372 148.942 116.1 146.687 116.246C144.182 116.526 142.351 114.332 142.351 112.018C142.351 109.735 144.16 107.93 146.407 107.701L146.626 107.684C149.178 107.542 150.917 109.675 150.918 111.916L150.912 112.134Z" fill="url(#paint12_linear_7647_1659)" fill-opacity="0.4" shape-rendering="crispEdges"/>
</g>
<path d="M147.598 129.895H145.873C145.568 129.895 145.264 130.098 145.264 130.504V134.77C145.264 135.075 145.467 135.379 145.873 135.379H147.598C147.903 135.379 148.207 135.176 148.207 134.77V130.504C148.106 130.199 147.903 129.895 147.598 129.895Z" fill="#616161"/>
<path d="M147.598 86.7275H145.873C145.568 86.7275 145.264 86.9307 145.264 87.337V91.6029C145.264 91.9076 145.467 92.2123 145.873 92.2123H147.598C147.903 92.2123 148.207 92.0092 148.207 91.6029V87.337C148.106 87.0322 147.903 86.7275 147.598 86.7275Z" fill="#616161"/>
<path d="M127.603 109.377H123.34C123.036 109.377 122.731 109.581 122.731 109.987V111.714C122.731 112.018 122.934 112.323 123.34 112.323H127.603C127.908 112.323 128.212 112.12 128.212 111.714V109.987C128.212 109.581 127.908 109.377 127.603 109.377Z" fill="#616161"/>
<path d="M155.425 133.664C156.157 133.382 156.523 132.56 156.242 131.827C155.96 131.094 155.138 130.727 154.405 131.009C153.673 131.29 153.307 132.112 153.588 132.845C153.87 133.579 154.692 133.945 155.425 133.664Z" fill="#616161"/>
<path d="M164.156 127.899C164.701 127.334 164.686 126.434 164.121 125.888C163.557 125.343 162.657 125.359 162.112 125.923C161.567 126.488 161.582 127.389 162.147 127.934C162.711 128.48 163.611 128.464 164.156 127.899Z" fill="#616161"/>
<path d="M125.718 119.166C126.46 118.912 126.856 118.104 126.602 117.361C126.347 116.618 125.539 116.222 124.797 116.476C124.054 116.73 123.659 117.538 123.913 118.281C124.167 119.024 124.975 119.42 125.718 119.166Z" fill="#616161"/>
<path d="M131.512 127.466C132.078 126.921 132.095 126.021 131.551 125.455C131.007 124.889 130.107 124.872 129.542 125.416C128.976 125.96 128.959 126.861 129.503 127.427C130.047 127.993 130.947 128.01 131.512 127.466Z" fill="#616161"/>
<path d="M140.023 132.222C140.305 131.49 139.941 130.667 139.209 130.384C138.477 130.102 137.654 130.466 137.371 131.199C137.088 131.932 137.453 132.755 138.185 133.037C138.917 133.32 139.74 132.955 140.023 132.222Z" fill="#616161"/>
<path d="M140.328 91.2187C141.073 90.9717 141.476 90.1671 141.229 89.4218C140.982 88.6764 140.177 88.2724 139.432 88.5195C138.687 88.7665 138.284 89.571 138.531 90.3164C138.778 91.0618 139.583 91.4658 140.328 91.2187Z" fill="#616161"/>
<path d="M132.223 95.991C132.793 95.4519 132.819 94.552 132.281 93.9809C131.742 93.4098 130.843 93.3838 130.272 93.9229C129.701 94.4619 129.675 95.3619 130.214 95.933C130.753 96.5041 131.652 96.53 132.223 95.991Z" fill="#616161"/>
<path d="M126.874 103.671C127.143 102.993 126.812 102.225 126.135 101.956C125.457 101.687 124.69 102.018 124.421 102.696C124.153 103.374 124.484 104.141 125.161 104.411C125.838 104.68 126.605 104.348 126.874 103.671Z" fill="#616161"/>
<g filter="url(#filter12_dd_7647_1659)">
<path fill-rule="evenodd" clip-rule="evenodd" d="M147.061 19.4606C147.919 19.5377 149.052 19.8657 149.247 21.2916L149.52 23.3541L149.267 26.9196C151.531 27.7676 152.917 29.6955 153.405 32.7213L155.221 45.8463C154.908 48.5831 152.898 48.9298 153.093 46.4821L152.116 43.7458C151.355 49.6433 150.379 54.8663 148.915 58.4704C149.54 60.0122 149.969 61.6312 149.93 63.5007L151.824 66.7966C153.971 66.3151 155.474 67.8949 151.687 69.61C150.633 71.865 147.724 71.692 148.192 68.1266L145.967 63.9245C145.147 66.1793 144.191 68.0685 142.863 69.0515L142.727 70.3425C147.47 71.364 144.756 73.4069 141.457 73.4069C137.768 73.0986 136.401 72.771 138.119 69.9186C139.31 67.7024 140.481 65.4669 140.54 63.4626C141.438 61.0728 142.335 58.9908 143.253 57.4489C143.097 55.8686 143.117 54.4809 143.546 53.5173C143.628 52.6667 141.863 50.3688 141.28 47.777C141.233 47.783 141.194 47.7881 141.164 47.7926C140.974 47.8215 140.13 47.8828 139.178 47.9762C138.921 49.787 137.646 49.8451 137.072 48.1989C136.413 48.2454 135.947 48.2049 135.62 47.9469C135.132 47.5616 135.132 48.024 134.761 46.2702C134.39 44.5165 134.098 42.7242 134.273 40.3346C134.449 37.964 134.722 36.325 135.112 35.5348C135.503 34.764 135.62 34.4946 136.265 34.2633C136.897 34.0363 137.115 34.0508 137.123 34.0514C137.123 34.0514 137.151 33.8394 137.868 33.4459C138.039 32.3641 138.237 31.3686 138.471 30.485C138.823 29.1747 142.822 27.1709 143.351 26.9967H143.331C142.726 25.7249 142.765 24.8962 143.976 24.8961C143.644 24.0288 143.468 23.1032 143.429 22.0817C143.39 20.9832 144.093 19.9815 145.147 19.6539C145.499 19.5575 146.202 19.3835 147.061 19.4606Z" fill="url(#paint13_radial_7647_1659)"/>
<path fill-rule="evenodd" clip-rule="evenodd" d="M147.061 19.4606C147.919 19.5377 149.052 19.8657 149.247 21.2916L149.52 23.3541L149.267 26.9196C151.531 27.7676 152.917 29.6955 153.405 32.7213L155.221 45.8463C154.908 48.5831 152.898 48.9298 153.093 46.4821L152.116 43.7458C151.355 49.6433 150.379 54.8663 148.915 58.4704C149.54 60.0122 149.969 61.6312 149.93 63.5007L151.824 66.7966C153.971 66.3151 155.474 67.8949 151.687 69.61C150.633 71.865 147.724 71.692 148.192 68.1266L145.967 63.9245C145.147 66.1793 144.191 68.0685 142.863 69.0515L142.727 70.3425C147.47 71.364 144.756 73.4069 141.457 73.4069C137.768 73.0986 136.401 72.771 138.119 69.9186C139.31 67.7024 140.481 65.4669 140.54 63.4626C141.438 61.0728 142.335 58.9908 143.253 57.4489C143.097 55.8686 143.117 54.4809 143.546 53.5173C143.628 52.6667 141.863 50.3688 141.28 47.777C141.233 47.783 141.194 47.7881 141.164 47.7926C140.974 47.8215 140.13 47.8828 139.178 47.9762C138.921 49.787 137.646 49.8451 137.072 48.1989C136.413 48.2454 135.947 48.2049 135.62 47.9469C135.132 47.5616 135.132 48.024 134.761 46.2702C134.39 44.5165 134.098 42.7242 134.273 40.3346C134.449 37.964 134.722 36.325 135.112 35.5348C135.503 34.764 135.62 34.4946 136.265 34.2633C136.897 34.0363 137.115 34.0508 137.123 34.0514C137.123 34.0514 137.151 33.8394 137.868 33.4459C138.039 32.3641 138.237 31.3686 138.471 30.485C138.823 29.1747 142.822 27.1709 143.351 26.9967H143.331C142.726 25.7249 142.765 24.8962 143.976 24.8961C143.644 24.0288 143.468 23.1032 143.429 22.0817C143.39 20.9832 144.093 19.9815 145.147 19.6539C145.499 19.5575 146.202 19.3835 147.061 19.4606Z" fill="#5C5C5C"/>
<path d="M147.061 19.4606C147.919 19.5377 149.052 19.8657 149.247 21.2916L149.52 23.3541L149.267 26.9196C151.531 27.7676 152.917 29.6955 153.405 32.7213L155.221 45.8463C154.908 48.5831 152.898 48.9298 153.093 46.4821L152.116 43.7458C151.355 49.6433 150.379 54.8663 148.915 58.4704C149.54 60.0122 149.969 61.6312 149.93 63.5007L151.824 66.7966C153.971 66.3151 155.474 67.8949 151.687 69.61C150.633 71.865 147.724 71.692 148.192 68.1266L145.967 63.9245C145.147 66.1793 144.191 68.0685 142.863 69.0515L142.727 70.3425C147.47 71.364 144.756 73.4069 141.457 73.4069C137.768 73.0986 136.401 72.771 138.119 69.9186C139.31 67.7024 140.481 65.4669 140.54 63.4626C141.438 61.0728 142.335 58.9908 143.253 57.4489C143.097 55.8686 143.117 54.4809 143.546 53.5173C143.628 52.6667 141.863 50.3688 141.28 47.777C141.233 47.783 141.194 47.7881 141.164 47.7926C140.974 47.8215 140.13 47.8828 139.178 47.9762C138.921 49.787 137.646 49.8451 137.072 48.1989C136.413 48.2454 135.947 48.2049 135.62 47.9469C135.132 47.5616 135.132 48.024 134.761 46.2702C134.39 44.5165 134.098 42.7242 134.273 40.3346C134.449 37.964 134.722 36.325 135.112 35.5348C135.503 34.764 135.62 34.4946 136.265 34.2633C136.897 34.0363 137.115 34.0508 137.123 34.0514C137.123 34.0514 137.151 33.8394 137.868 33.4459C138.039 32.3641 138.237 31.3686 138.471 30.485C138.823 29.1747 142.822 27.1709 143.351 26.9967H143.331C142.726 25.7249 142.765 24.8962 143.976 24.8961C143.644 24.0288 143.468 23.1032 143.429 22.0817C143.39 20.9832 144.093 19.9815 145.147 19.6539C145.499 19.5575 146.202 19.3835 147.061 19.4606ZM147.016 19.959C146.258 19.891 145.631 20.0394 145.295 20.1309C144.459 20.391 143.898 21.1884 143.928 22.0625C143.965 23.037 144.133 23.9082 144.443 24.7178L144.702 25.3965H143.976C143.722 25.3965 143.593 25.441 143.535 25.4756C143.494 25.4996 143.473 25.5247 143.459 25.583C143.441 25.6604 143.44 25.7973 143.493 26.0137C143.544 26.2256 143.64 26.4825 143.783 26.7822L143.423 26.9522L143.507 27.4717C143.417 27.5014 143.101 27.6415 142.643 27.876C142.198 28.1038 141.649 28.4053 141.108 28.7402C140.564 29.0767 140.039 29.4398 139.635 29.7901C139.433 29.9651 139.27 30.1294 139.151 30.2783C139.03 30.4296 138.973 30.5409 138.953 30.6123C138.725 31.4746 138.531 32.4536 138.362 33.5244L138.324 33.7666L138.109 33.8838C137.803 34.0518 137.661 34.169 137.603 34.2266L137.556 34.5869L137.106 34.5518C137.077 34.554 136.885 34.5727 136.434 34.7344C136.17 34.8291 136.065 34.9104 135.979 35.0147C135.865 35.1529 135.766 35.3475 135.56 35.7549L135.561 35.7559C135.399 36.0845 135.242 36.6342 135.105 37.4268C134.97 38.2097 134.859 39.1947 134.772 40.3711C134.601 42.6942 134.884 44.4351 135.25 46.167C135.343 46.6043 135.409 46.8892 135.463 47.0801C135.49 47.1747 135.512 47.238 135.53 47.2803C135.536 47.2967 135.543 47.3082 135.547 47.3164C135.551 47.3185 135.556 47.3215 135.561 47.3243C135.632 47.361 135.765 47.4245 135.93 47.5547C136.092 47.6827 136.378 47.7468 137.037 47.7002L137.418 47.6729L137.544 48.0342C137.67 48.3954 137.823 48.6254 137.955 48.7539C138.086 48.8808 138.173 48.8882 138.203 48.8858C138.229 48.8836 138.31 48.8654 138.412 48.7188C138.518 48.5684 138.626 48.3078 138.683 47.9063L138.738 47.5166L139.129 47.4786C140.115 47.3818 140.915 47.3243 141.089 47.2979C141.126 47.2923 141.171 47.2871 141.217 47.2813L141.668 47.2237L141.768 47.667C142.044 48.897 142.606 50.0714 143.11 51.0762C143.356 51.5682 143.597 52.0348 143.767 52.4268C143.853 52.6246 143.928 52.8184 143.978 52.9991C144.027 53.1745 144.062 53.3715 144.043 53.5655L144.035 53.6465L144.002 53.7208C143.631 54.5535 143.595 55.8227 143.75 57.3995L143.767 57.5635L143.683 57.7042C142.797 59.1927 141.919 61.2169 141.033 63.5714C140.985 64.6306 140.662 65.7221 140.216 66.8018C139.756 67.9151 139.154 69.0498 138.56 70.1553L138.554 70.1661L138.547 70.1768C138.127 70.8753 137.935 71.3576 137.893 71.6876C137.873 71.8435 137.89 71.9474 137.916 72.0196C137.942 72.0893 137.989 72.1582 138.076 72.2286C138.268 72.3849 138.627 72.526 139.232 72.6417C139.819 72.754 140.566 72.8297 141.481 72.9063C142.248 72.9039 142.975 72.7843 143.561 72.5958C144.172 72.3989 144.557 72.1509 144.713 71.9503C144.783 71.8606 144.783 71.8147 144.782 71.8038C144.781 71.792 144.772 71.7278 144.654 71.6182C144.396 71.3795 143.79 71.0828 142.621 70.8311L142.182 70.7364L142.23 70.2901L142.367 68.9991L142.389 68.7803L142.566 68.6495C143.762 67.7638 144.677 66.0071 145.496 63.754L145.881 62.6954L148.634 67.8926L148.709 68.0333L148.688 68.1915C148.466 69.877 149.063 70.4549 149.494 70.5665C149.987 70.6937 150.773 70.3862 151.235 69.3985L151.313 69.2305L151.481 69.1544C152.398 68.7388 152.949 68.3516 153.243 68.0372C153.542 67.7184 153.512 67.5571 153.503 67.5284C153.49 67.4846 153.411 67.3586 153.107 67.2735C152.818 67.1928 152.407 67.1782 151.934 67.2842L151.575 67.3653L149.496 63.7501L149.427 63.629L149.43 63.4903C149.467 61.7086 149.059 60.1587 148.451 58.6583L148.375 58.4698L148.451 58.2823C149.889 54.7434 150.859 49.577 151.62 43.6817L152.587 43.5782L153.564 46.3145L153.6 46.4151L153.591 46.5215C153.546 47.0816 153.638 47.3969 153.725 47.5381C153.765 47.6028 153.796 47.619 153.803 47.6221C153.808 47.6243 153.82 47.6295 153.851 47.6221C153.93 47.6034 154.109 47.5026 154.301 47.1856C154.48 46.89 154.64 46.4469 154.715 45.8487L152.911 32.8008C152.443 29.8996 151.143 28.156 149.091 27.3877L148.742 27.2568L149.018 23.3691L148.751 21.3594C148.673 20.7896 148.423 20.4793 148.13 20.2891C147.815 20.0841 147.412 19.9946 147.016 19.959Z" fill="url(#paint14_radial_7647_1659)"/>
<path d="M147.061 19.4606C147.919 19.5377 149.052 19.8657 149.247 21.2916L149.52 23.3541L149.267 26.9196C151.531 27.7676 152.917 29.6955 153.405 32.7213L155.221 45.8463C154.908 48.5831 152.898 48.9298 153.093 46.4821L152.116 43.7458C151.355 49.6433 150.379 54.8663 148.915 58.4704C149.54 60.0122 149.969 61.6312 149.93 63.5007L151.824 66.7966C153.971 66.3151 155.474 67.8949 151.687 69.61C150.633 71.865 147.724 71.692 148.192 68.1266L145.967 63.9245C145.147 66.1793 144.191 68.0685 142.863 69.0515L142.727 70.3425C147.47 71.364 144.756 73.4069 141.457 73.4069C137.768 73.0986 136.401 72.771 138.119 69.9186C139.31 67.7024 140.481 65.4669 140.54 63.4626C141.438 61.0728 142.335 58.9908 143.253 57.4489C143.097 55.8686 143.117 54.4809 143.546 53.5173C143.628 52.6667 141.863 50.3688 141.28 47.777C141.233 47.783 141.194 47.7881 141.164 47.7926C140.974 47.8215 140.13 47.8828 139.178 47.9762C138.921 49.787 137.646 49.8451 137.072 48.1989C136.413 48.2454 135.947 48.2049 135.62 47.9469C135.132 47.5616 135.132 48.024 134.761 46.2702C134.39 44.5165 134.098 42.7242 134.273 40.3346C134.449 37.964 134.722 36.325 135.112 35.5348C135.503 34.764 135.62 34.4946 136.265 34.2633C136.897 34.0363 137.115 34.0508 137.123 34.0514C137.123 34.0514 137.151 33.8394 137.868 33.4459C138.039 32.3641 138.237 31.3686 138.471 30.485C138.823 29.1747 142.822 27.1709 143.351 26.9967H143.331C142.726 25.7249 142.765 24.8962 143.976 24.8961C143.644 24.0288 143.468 23.1032 143.429 22.0817C143.39 20.9832 144.093 19.9815 145.147 19.6539C145.499 19.5575 146.202 19.3835 147.061 19.4606ZM147.016 19.959C146.258 19.891 145.631 20.0394 145.295 20.1309C144.459 20.391 143.898 21.1884 143.928 22.0625C143.965 23.037 144.133 23.9082 144.443 24.7178L144.702 25.3965H143.976C143.722 25.3965 143.593 25.441 143.535 25.4756C143.494 25.4996 143.473 25.5247 143.459 25.583C143.441 25.6604 143.44 25.7973 143.493 26.0137C143.544 26.2256 143.64 26.4825 143.783 26.7822L143.423 26.9522L143.507 27.4717C143.417 27.5014 143.101 27.6415 142.643 27.876C142.198 28.1038 141.649 28.4053 141.108 28.7402C140.564 29.0767 140.039 29.4398 139.635 29.7901C139.433 29.9651 139.27 30.1294 139.151 30.2783C139.03 30.4296 138.973 30.5409 138.953 30.6123C138.725 31.4746 138.531 32.4536 138.362 33.5244L138.324 33.7666L138.109 33.8838C137.803 34.0518 137.661 34.169 137.603 34.2266L137.556 34.5869L137.106 34.5518C137.077 34.554 136.885 34.5727 136.434 34.7344C136.17 34.8291 136.065 34.9104 135.979 35.0147C135.865 35.1529 135.766 35.3475 135.56 35.7549L135.561 35.7559C135.399 36.0845 135.242 36.6342 135.105 37.4268C134.97 38.2097 134.859 39.1947 134.772 40.3711C134.601 42.6942 134.884 44.4351 135.25 46.167C135.343 46.6043 135.409 46.8892 135.463 47.0801C135.49 47.1747 135.512 47.238 135.53 47.2803C135.536 47.2967 135.543 47.3082 135.547 47.3164C135.551 47.3185 135.556 47.3215 135.561 47.3243C135.632 47.361 135.765 47.4245 135.93 47.5547C136.092 47.6827 136.378 47.7468 137.037 47.7002L137.418 47.6729L137.544 48.0342C137.67 48.3954 137.823 48.6254 137.955 48.7539C138.086 48.8808 138.173 48.8882 138.203 48.8858C138.229 48.8836 138.31 48.8654 138.412 48.7188C138.518 48.5684 138.626 48.3078 138.683 47.9063L138.738 47.5166L139.129 47.4786C140.115 47.3818 140.915 47.3243 141.089 47.2979C141.126 47.2923 141.171 47.2871 141.217 47.2813L141.668 47.2237L141.768 47.667C142.044 48.897 142.606 50.0714 143.11 51.0762C143.356 51.5682 143.597 52.0348 143.767 52.4268C143.853 52.6246 143.928 52.8184 143.978 52.9991C144.027 53.1745 144.062 53.3715 144.043 53.5655L144.035 53.6465L144.002 53.7208C143.631 54.5535 143.595 55.8227 143.75 57.3995L143.767 57.5635L143.683 57.7042C142.797 59.1927 141.919 61.2169 141.033 63.5714C140.985 64.6306 140.662 65.7221 140.216 66.8018C139.756 67.9151 139.154 69.0498 138.56 70.1553L138.554 70.1661L138.547 70.1768C138.127 70.8753 137.935 71.3576 137.893 71.6876C137.873 71.8435 137.89 71.9474 137.916 72.0196C137.942 72.0893 137.989 72.1582 138.076 72.2286C138.268 72.3849 138.627 72.526 139.232 72.6417C139.819 72.754 140.566 72.8297 141.481 72.9063C142.248 72.9039 142.975 72.7843 143.561 72.5958C144.172 72.3989 144.557 72.1509 144.713 71.9503C144.783 71.8606 144.783 71.8147 144.782 71.8038C144.781 71.792 144.772 71.7278 144.654 71.6182C144.396 71.3795 143.79 71.0828 142.621 70.8311L142.182 70.7364L142.23 70.2901L142.367 68.9991L142.389 68.7803L142.566 68.6495C143.762 67.7638 144.677 66.0071 145.496 63.754L145.881 62.6954L148.634 67.8926L148.709 68.0333L148.688 68.1915C148.466 69.877 149.063 70.4549 149.494 70.5665C149.987 70.6937 150.773 70.3862 151.235 69.3985L151.313 69.2305L151.481 69.1544C152.398 68.7388 152.949 68.3516 153.243 68.0372C153.542 67.7184 153.512 67.5571 153.503 67.5284C153.49 67.4846 153.411 67.3586 153.107 67.2735C152.818 67.1928 152.407 67.1782 151.934 67.2842L151.575 67.3653L149.496 63.7501L149.427 63.629L149.43 63.4903C149.467 61.7086 149.059 60.1587 148.451 58.6583L148.375 58.4698L148.451 58.2823C149.889 54.7434 150.859 49.577 151.62 43.6817L152.587 43.5782L153.564 46.3145L153.6 46.4151L153.591 46.5215C153.546 47.0816 153.638 47.3969 153.725 47.5381C153.765 47.6028 153.796 47.619 153.803 47.6221C153.808 47.6243 153.82 47.6295 153.851 47.6221C153.93 47.6034 154.109 47.5026 154.301 47.1856C154.48 46.89 154.64 46.4469 154.715 45.8487L152.911 32.8008C152.443 29.8996 151.143 28.156 149.091 27.3877L148.742 27.2568L149.018 23.3691L148.751 21.3594C148.673 20.7896 148.423 20.4793 148.13 20.2891C147.815 20.0841 147.412 19.9946 147.016 19.959Z" fill="#5C5C5C"/>
</g>
<g filter="url(#filter13_dd_7647_1659)">
<path d="M91.3124 52.3942C91.757 54.3436 92.1063 56.2929 92.4556 58.2422C92.7732 60.0658 92.805 60.0658 91.0583 60.6317C90.4867 60.8204 90.2961 61.0719 90.2008 61.6693C89.9468 63.8387 89.7562 66.071 89.1528 68.1775C88.2636 71.133 88.1048 74.2142 87.3109 77.1696C87.1204 77.8299 86.9616 78.4902 86.7075 79.119C85.6277 81.6657 86.1041 84.3067 86.1041 86.9163C86.1041 87.2307 85.9771 87.4822 85.9136 87.7652C85.5007 89.4945 85.3737 91.2237 86.1041 92.9215C86.2629 93.2988 86.2311 93.6761 86.2629 94.0534C86.2947 94.3678 86.2629 94.6508 86.7075 94.7451C86.9298 94.808 87.0886 95.0281 87.0568 95.2796C86.9933 95.8455 87.2791 96.097 87.819 96.1599H87.8825C88.8988 96.5372 89.6927 98.9267 89.1211 99.8071C89.0258 99.9328 88.9305 100.121 88.8353 100.153C87.565 100.373 86.7393 101.631 85.3419 101.505C84.5162 101.442 83.6588 101.473 82.8013 101.379C82.0391 101.316 81.8486 100.845 81.8804 100.247C81.8804 99.9643 82.0074 99.7127 82.1027 99.4612C82.8013 97.8892 82.6108 96.2857 82.325 94.6508C82.1662 93.8333 82.0074 93.0158 81.7533 92.2298C81.6898 92.0097 81.5945 91.7896 81.4675 91.6324C81.1499 91.2866 80.8641 91.0665 80.5148 91.7268C79.8161 93.1102 78.8316 94.3678 78.3235 95.8141C77.9424 96.9145 77.1167 97.9835 77.4343 99.304C77.6248 100.027 78.1647 101.662 78.6728 102.291C78.8951 102.605 79.1175 102.92 79.2445 103.266C79.4033 103.737 79.3715 104.146 78.7681 104.46C77.4025 105.152 76.0052 104.869 74.6396 104.649C73.7504 104.523 72.8612 104.24 71.9402 104.146C71.4004 104.083 71.1781 103.769 71.1781 103.297C71.1781 102.731 71.1781 102.134 71.5274 101.631C71.845 101.159 71.7815 100.562 71.8767 99.9957C72.0673 99.1468 72.4801 98.4551 73.1788 97.9206C73.2741 97.8577 73.4011 97.7634 73.4329 97.6376C73.8775 95.4682 75.243 93.5503 75.3383 91.2551C75.4018 89.4316 75.6241 87.5766 76.291 85.9102C77.3073 83.332 76.7992 80.8482 76.164 78.3329C74.8302 73.271 73.4011 68.209 72.0355 63.147C71.8767 62.5496 71.972 61.8894 71.051 61.7636C70.8287 61.7322 70.4159 61.1662 70.1936 60.7889C69.9713 60.4116 70.0666 59.94 70.1936 59.5313C70.6064 58.2422 70.7017 56.9217 70.4794 55.4754C70.0666 55.9156 69.8442 56.3558 69.7807 56.8903C69.6219 58.2737 69.3044 59.6256 68.7645 60.9461C68.5422 61.5121 68.2246 62.1409 69.1773 62.4553C69.4314 62.5496 69.4632 62.864 69.4632 63.1156C69.3996 64.3103 69.6219 65.5051 69.3679 66.6684C69.2091 67.3915 69.3679 68.1461 69.6219 68.8378C69.876 69.5295 70.003 70.1898 70.003 70.9129C70.003 73.6483 70.797 76.2578 70.9875 78.9618C71.051 79.6849 71.0828 80.3766 70.8605 81.1312C70.6064 81.8858 71.051 82.6718 71.1146 83.4578C71.2098 84.401 70.9875 84.6526 70.0348 84.7783C68.5104 84.9355 67.2719 84.1809 65.9381 83.6779C65.0806 83.3635 64.2549 82.9233 63.3975 82.6089C62.9529 82.4517 62.7941 82.2002 62.8893 81.7286C62.9846 81.2255 63.0164 80.7225 63.0481 80.2194C63.0481 79.8107 63.2069 79.3391 62.6035 79.1504C62.5083 79.1504 62.4447 78.8989 62.413 78.7417C62.3177 78.1757 62.3495 77.6098 61.9366 77.1382C61.7461 76.9181 61.9366 76.6351 62.0319 76.3522C62.2224 75.7548 62.4765 75.0631 61.6826 74.6229C61.365 74.4343 61.2697 74.057 61.2697 73.774C61.2697 72.0133 61.1109 70.2212 61.365 68.4605C61.4603 67.7374 61.8096 67.1714 62.5083 66.8885C62.7941 66.7941 62.9529 66.5741 63.0799 66.2911C63.2387 65.9767 63.3657 65.6308 63.588 65.3479C64.636 64.1531 64.6043 62.7697 64.3502 61.3234C64.3502 61.1977 64.2549 61.0405 64.3184 60.9461C64.9853 59.8143 64.636 58.4623 65.1441 57.2676C65.6205 56.23 65.5887 55.0038 65.7158 53.8405C65.9063 51.8912 66.7955 50.099 67.1766 48.1811C67.8435 44.9113 68.5739 41.7043 69.1138 38.403C69.3044 37.2397 69.6219 36.0764 70.1301 34.976C70.7335 33.6869 71.6544 32.8065 73.02 32.3349C73.8457 32.052 74.7032 31.9262 75.4018 31.2659C75.7512 30.9201 76.5133 31.0459 77.085 30.9201C77.8154 30.7629 77.6248 30.0398 77.8472 29.5996C78.1012 29.128 77.5931 29.1908 77.4025 29.0965C76.1958 28.4363 75.7194 27.4616 75.7829 26.1411C75.7829 25.7009 75.7829 25.1979 75.5924 24.7891C75.1478 23.8773 75.3065 22.997 75.6559 22.1481C76.0052 21.2992 76.0687 20.3874 76.4181 19.5385C77.0532 17.8721 78.3553 16.9289 80.2607 16.8975C81.8168 16.8975 83.4365 16.8975 84.675 17.7778C85.7548 18.5638 86.7393 19.6328 86.8345 21.142C87.0251 23.7516 86.4217 26.2354 85.5007 28.6878C85.3737 29.0336 85.1831 29.2537 84.8973 29.4424C84.3892 29.7568 84.2939 30.3227 84.1987 30.8258C84.1669 31.1402 84.2304 31.5804 84.8338 31.6118C86.1041 31.7376 87.3744 31.9262 88.5494 32.4921C89.2799 32.838 89.8197 33.3096 90.1691 34.0327C91.5029 36.8624 92.6779 39.755 93.2496 42.8362C93.4083 43.6537 93.7894 44.4082 94.1705 45.1628C95.5679 47.8038 96.9652 50.4449 98.2673 53.1488C98.9342 54.5636 99.5693 56.0099 100.268 57.4248C100.427 57.7706 100.554 58.1165 100.935 58.3051C101.157 58.3994 101.221 58.651 101.221 58.9025C101.221 59.3741 101.221 59.8771 101.189 60.3488C101.189 60.8204 100.998 61.2291 100.586 61.5121C100.236 61.7636 100.046 62.1723 99.7599 62.4867C99.5376 62.7383 99.22 62.9584 98.8706 62.7697C98.5531 62.5811 98.8706 62.2981 98.9342 62.078C99.2517 60.9776 99.1882 60.8518 98.1402 60.3173C97.7591 60.1287 97.3463 59.8771 97.2193 59.437C97.0287 58.7138 96.5523 58.1793 96.076 57.6763C94.5516 56.0414 93.059 54.3436 91.6299 52.6143C91.5347 52.4885 91.4711 52.3313 91.4076 52.2056C91.3441 52.2685 91.2806 52.2999 91.2171 52.3628L91.3124 52.3942Z" fill="url(#paint15_radial_7647_1659)"/>
<path d="M91.3124 52.3942C91.757 54.3436 92.1063 56.2929 92.4556 58.2422C92.7732 60.0658 92.805 60.0658 91.0583 60.6317C90.4867 60.8204 90.2961 61.0719 90.2008 61.6693C89.9468 63.8387 89.7562 66.071 89.1528 68.1775C88.2636 71.133 88.1048 74.2142 87.3109 77.1696C87.1204 77.8299 86.9616 78.4902 86.7075 79.119C85.6277 81.6657 86.1041 84.3067 86.1041 86.9163C86.1041 87.2307 85.9771 87.4822 85.9136 87.7652C85.5007 89.4945 85.3737 91.2237 86.1041 92.9215C86.2629 93.2988 86.2311 93.6761 86.2629 94.0534C86.2947 94.3678 86.2629 94.6508 86.7075 94.7451C86.9298 94.808 87.0886 95.0281 87.0568 95.2796C86.9933 95.8455 87.2791 96.097 87.819 96.1599H87.8825C88.8988 96.5372 89.6927 98.9267 89.1211 99.8071C89.0258 99.9328 88.9305 100.121 88.8353 100.153C87.565 100.373 86.7393 101.631 85.3419 101.505C84.5162 101.442 83.6588 101.473 82.8013 101.379C82.0391 101.316 81.8486 100.845 81.8804 100.247C81.8804 99.9643 82.0074 99.7127 82.1027 99.4612C82.8013 97.8892 82.6108 96.2857 82.325 94.6508C82.1662 93.8333 82.0074 93.0158 81.7533 92.2298C81.6898 92.0097 81.5945 91.7896 81.4675 91.6324C81.1499 91.2866 80.8641 91.0665 80.5148 91.7268C79.8161 93.1102 78.8316 94.3678 78.3235 95.8141C77.9424 96.9145 77.1167 97.9835 77.4343 99.304C77.6248 100.027 78.1647 101.662 78.6728 102.291C78.8951 102.605 79.1175 102.92 79.2445 103.266C79.4033 103.737 79.3715 104.146 78.7681 104.46C77.4025 105.152 76.0052 104.869 74.6396 104.649C73.7504 104.523 72.8612 104.24 71.9402 104.146C71.4004 104.083 71.1781 103.769 71.1781 103.297C71.1781 102.731 71.1781 102.134 71.5274 101.631C71.845 101.159 71.7815 100.562 71.8767 99.9957C72.0673 99.1468 72.4801 98.4551 73.1788 97.9206C73.2741 97.8577 73.4011 97.7634 73.4329 97.6376C73.8775 95.4682 75.243 93.5503 75.3383 91.2551C75.4018 89.4316 75.6241 87.5766 76.291 85.9102C77.3073 83.332 76.7992 80.8482 76.164 78.3329C74.8302 73.271 73.4011 68.209 72.0355 63.147C71.8767 62.5496 71.972 61.8894 71.051 61.7636C70.8287 61.7322 70.4159 61.1662 70.1936 60.7889C69.9713 60.4116 70.0666 59.94 70.1936 59.5313C70.6064 58.2422 70.7017 56.9217 70.4794 55.4754C70.0666 55.9156 69.8442 56.3558 69.7807 56.8903C69.6219 58.2737 69.3044 59.6256 68.7645 60.9461C68.5422 61.5121 68.2246 62.1409 69.1773 62.4553C69.4314 62.5496 69.4632 62.864 69.4632 63.1156C69.3996 64.3103 69.6219 65.5051 69.3679 66.6684C69.2091 67.3915 69.3679 68.1461 69.6219 68.8378C69.876 69.5295 70.003 70.1898 70.003 70.9129C70.003 73.6483 70.797 76.2578 70.9875 78.9618C71.051 79.6849 71.0828 80.3766 70.8605 81.1312C70.6064 81.8858 71.051 82.6718 71.1146 83.4578C71.2098 84.401 70.9875 84.6526 70.0348 84.7783C68.5104 84.9355 67.2719 84.1809 65.9381 83.6779C65.0806 83.3635 64.2549 82.9233 63.3975 82.6089C62.9529 82.4517 62.7941 82.2002 62.8893 81.7286C62.9846 81.2255 63.0164 80.7225 63.0481 80.2194C63.0481 79.8107 63.2069 79.3391 62.6035 79.1504C62.5083 79.1504 62.4447 78.8989 62.413 78.7417C62.3177 78.1757 62.3495 77.6098 61.9366 77.1382C61.7461 76.9181 61.9366 76.6351 62.0319 76.3522C62.2224 75.7548 62.4765 75.0631 61.6826 74.6229C61.365 74.4343 61.2697 74.057 61.2697 73.774C61.2697 72.0133 61.1109 70.2212 61.365 68.4605C61.4603 67.7374 61.8096 67.1714 62.5083 66.8885C62.7941 66.7941 62.9529 66.5741 63.0799 66.2911C63.2387 65.9767 63.3657 65.6308 63.588 65.3479C64.636 64.1531 64.6043 62.7697 64.3502 61.3234C64.3502 61.1977 64.2549 61.0405 64.3184 60.9461C64.9853 59.8143 64.636 58.4623 65.1441 57.2676C65.6205 56.23 65.5887 55.0038 65.7158 53.8405C65.9063 51.8912 66.7955 50.099 67.1766 48.1811C67.8435 44.9113 68.5739 41.7043 69.1138 38.403C69.3044 37.2397 69.6219 36.0764 70.1301 34.976C70.7335 33.6869 71.6544 32.8065 73.02 32.3349C73.8457 32.052 74.7032 31.9262 75.4018 31.2659C75.7512 30.9201 76.5133 31.0459 77.085 30.9201C77.8154 30.7629 77.6248 30.0398 77.8472 29.5996C78.1012 29.128 77.5931 29.1908 77.4025 29.0965C76.1958 28.4363 75.7194 27.4616 75.7829 26.1411C75.7829 25.7009 75.7829 25.1979 75.5924 24.7891C75.1478 23.8773 75.3065 22.997 75.6559 22.1481C76.0052 21.2992 76.0687 20.3874 76.4181 19.5385C77.0532 17.8721 78.3553 16.9289 80.2607 16.8975C81.8168 16.8975 83.4365 16.8975 84.675 17.7778C85.7548 18.5638 86.7393 19.6328 86.8345 21.142C87.0251 23.7516 86.4217 26.2354 85.5007 28.6878C85.3737 29.0336 85.1831 29.2537 84.8973 29.4424C84.3892 29.7568 84.2939 30.3227 84.1987 30.8258C84.1669 31.1402 84.2304 31.5804 84.8338 31.6118C86.1041 31.7376 87.3744 31.9262 88.5494 32.4921C89.2799 32.838 89.8197 33.3096 90.1691 34.0327C91.5029 36.8624 92.6779 39.755 93.2496 42.8362C93.4083 43.6537 93.7894 44.4082 94.1705 45.1628C95.5679 47.8038 96.9652 50.4449 98.2673 53.1488C98.9342 54.5636 99.5693 56.0099 100.268 57.4248C100.427 57.7706 100.554 58.1165 100.935 58.3051C101.157 58.3994 101.221 58.651 101.221 58.9025C101.221 59.3741 101.221 59.8771 101.189 60.3488C101.189 60.8204 100.998 61.2291 100.586 61.5121C100.236 61.7636 100.046 62.1723 99.7599 62.4867C99.5376 62.7383 99.22 62.9584 98.8706 62.7697C98.5531 62.5811 98.8706 62.2981 98.9342 62.078C99.2517 60.9776 99.1882 60.8518 98.1402 60.3173C97.7591 60.1287 97.3463 59.8771 97.2193 59.437C97.0287 58.7138 96.5523 58.1793 96.076 57.6763C94.5516 56.0414 93.059 54.3436 91.6299 52.6143C91.5347 52.4885 91.4711 52.3313 91.4076 52.2056C91.3441 52.2685 91.2806 52.2999 91.2171 52.3628L91.3124 52.3942Z" fill="#5C5C5C"/>
<path d="M69.5028 70.9131C69.5028 70.2538 69.3878 69.6512 69.1522 69.0098C68.8849 68.2817 68.6913 67.4205 68.8798 66.5615L68.9169 66.3652C68.9946 65.9055 69.0009 65.4284 68.9872 64.917C68.9722 64.358 68.9321 63.7308 68.9628 63.1152C68.9628 63.062 68.9614 63.0142 68.9569 62.9717C68.9537 62.941 68.9475 62.9178 68.9433 62.9004C68.6886 62.807 68.4694 62.681 68.3075 62.501C68.1202 62.2927 68.0416 62.0522 68.0311 61.8174C68.0213 61.5972 68.0714 61.3899 68.1249 61.2236C68.1774 61.0604 68.2498 60.8881 68.2987 60.7637L68.3017 60.7568C68.8219 59.4843 69.1298 58.1774 69.2841 56.833V56.8311C69.3622 56.1741 69.641 55.6384 70.1142 55.1338L70.8173 54.3838L70.9735 55.3994C71.2067 56.9167 71.1078 58.3158 70.6698 59.6836C70.5419 60.0964 70.5243 60.3659 70.6239 60.5352C70.7245 60.7059 70.8688 60.9193 71.0077 61.0879C71.0778 61.1729 71.1378 61.2347 71.1815 61.2725C71.1857 61.276 71.1899 61.2785 71.1933 61.2812C71.4506 61.3249 71.6762 61.4081 71.8642 61.5439C72.0737 61.6955 72.2034 61.8869 72.287 62.0791C72.3666 62.2621 72.4069 62.4524 72.4354 62.6045C72.467 62.7722 72.4854 62.8918 72.5185 63.0166L73.5507 66.8096C74.5911 70.6054 75.6471 74.4089 76.6474 78.2051L76.6483 78.2109C77.283 80.7245 77.8365 83.3521 76.7558 86.0938L76.7548 86.0957C76.1194 87.6833 75.9005 89.4715 75.8378 91.2725V91.2764C75.7863 92.5134 75.3926 93.6331 74.9813 94.6768C74.5614 95.7425 74.1338 96.7084 73.9227 97.7383L73.9198 97.749L73.9179 97.7598C73.871 97.9453 73.763 98.0776 73.6815 98.1582C73.609 98.23 73.5314 98.2842 73.4765 98.3213C72.8869 98.7742 72.5362 99.3538 72.3681 100.088C72.3487 100.205 72.3371 100.329 72.3251 100.467C72.3133 100.602 72.3007 100.76 72.2811 100.912C72.2417 101.22 72.1653 101.579 71.9423 101.91L71.9384 101.916C71.6925 102.27 71.6776 102.703 71.6776 103.297C71.6776 103.458 71.7158 103.525 71.7382 103.552C71.757 103.574 71.8148 103.627 71.995 103.648C72.4853 103.699 72.9615 103.799 73.4091 103.897C73.7517 103.973 74.0748 104.045 74.3925 104.103L74.7099 104.154L74.7186 104.155L75.744 104.314C76.7361 104.448 77.6441 104.467 78.537 104.017L78.6747 103.934C78.7818 103.856 78.8069 103.797 78.8153 103.771C78.8315 103.719 78.836 103.622 78.7714 103.429C78.6706 103.159 78.4922 102.901 78.2645 102.579C77.9639 102.195 77.6849 101.577 77.4677 101.013C77.2387 100.418 77.0509 99.8105 76.9511 99.4316L76.9481 99.4209C76.7565 98.6241 76.9165 97.9172 77.1483 97.3008C77.2629 96.9962 77.4007 96.7 77.5243 96.4297C77.651 96.1526 77.7641 95.8998 77.8505 95.6504L77.8515 95.6484C78.1228 94.8762 78.5177 94.1647 78.9179 93.4912C79.3256 92.805 79.7292 92.1722 80.0683 91.501L80.0722 91.4932C80.2567 91.1443 80.5617 90.7547 81.0536 90.8047C81.2626 90.8259 81.427 90.9267 81.538 91.0117C81.5945 91.0551 81.6483 91.1029 81.6981 91.1514L81.8358 91.2939L81.8466 91.3057L81.8563 91.3184C82.0383 91.5435 82.1553 91.8276 82.2284 92.0762C82.427 92.6907 82.5692 93.3211 82.6942 93.9404L82.8153 94.5557L82.8173 94.5645C83.102 96.1928 83.3214 97.9231 82.5692 99.6377C82.4475 99.959 82.3798 100.084 82.3798 100.247V100.273C82.3663 100.527 82.4075 100.661 82.454 100.729C82.4769 100.762 82.5274 100.818 82.6688 100.854L82.8427 100.881L82.8563 100.882C83.2629 100.927 83.6739 100.942 84.0976 100.954C84.5152 100.966 84.9517 100.973 85.3798 101.006L85.3866 101.007C85.9144 101.054 86.3502 100.849 86.8778 100.53C87.3353 100.254 87.9082 99.8558 88.5897 99.6953C88.6017 99.6777 88.6159 99.6581 88.6327 99.6328C88.6518 99.6041 88.6764 99.568 88.703 99.5312C88.7661 99.4318 88.8199 99.2364 88.8114 98.9326C88.8031 98.6372 88.7372 98.2934 88.6229 97.9541C88.5087 97.6149 88.3529 97.2999 88.1786 97.0566C88.0246 96.8417 87.8785 96.7169 87.7636 96.6562H87.7606C87.4388 96.6187 87.0926 96.5159 86.8446 96.248C86.5826 95.965 86.5177 95.596 86.5595 95.2236C86.4153 95.1885 86.277 95.132 86.1561 95.042C86.0178 94.9389 85.9268 94.8107 85.87 94.6768C85.8169 94.5514 85.7975 94.4289 85.787 94.3389C85.7801 94.28 85.7683 94.1307 85.7655 94.1035L85.7645 94.0957C85.7556 93.9892 85.7509 93.8836 85.747 93.791C85.7429 93.6952 85.7392 93.6113 85.7323 93.5293C85.7189 93.3695 85.6945 93.2396 85.6444 93.1191L85.5067 92.7734C84.9149 91.1622 85.0129 89.545 85.3515 87.9834L85.4267 87.6494C85.4625 87.4922 85.5252 87.3089 85.5526 87.2139C85.5869 87.095 85.6044 87.005 85.6044 86.916C85.6044 86.2766 85.5747 85.6341 85.5468 84.9766C85.519 84.3231 85.4928 83.656 85.5009 82.9883C85.5172 81.6503 85.6717 80.2806 86.247 78.9238C86.4863 78.3294 86.632 77.7173 86.83 77.0312C87.2178 75.5851 87.4521 74.1059 87.703 72.5918C87.9529 71.0841 88.2188 69.5453 88.6737 68.0332C89.2613 65.9785 89.4474 63.8026 89.704 61.6113L89.705 61.6006L89.7069 61.5908C89.7596 61.2607 89.849 60.9442 90.0624 60.6816C90.2792 60.4149 90.5732 60.2655 90.9013 60.1572L90.9042 60.1562C91.3517 60.0113 91.6457 59.9149 91.8515 59.8213C92.0547 59.7288 92.089 59.6735 92.0966 59.6602C92.1065 59.6428 92.136 59.5778 92.1181 59.3438C92.1 59.1088 92.0445 58.7971 91.9628 58.3281C91.6299 56.4703 91.2978 54.6239 90.8856 52.7803L90.2851 52.582L90.8651 52.0078C90.9255 51.9481 90.985 51.9048 91.0145 51.8828C91.0474 51.8584 91.0524 51.8537 91.0556 51.8506L91.5438 51.3672L91.8534 51.9805C91.9421 52.1561 91.9692 52.2308 92.0253 52.3066C93.4441 54.0229 94.9251 55.7089 96.4384 57.332C96.9094 57.8294 97.4704 58.4438 97.6991 59.2979C97.7444 59.4549 97.8766 59.59 98.1034 59.7285L98.3622 59.8691L98.3671 59.8721C98.6267 60.0045 98.857 60.1269 99.038 60.2539C99.2228 60.3836 99.3994 60.5464 99.5048 60.7783C99.6113 61.0126 99.6165 61.2528 99.5878 61.4775C99.565 61.6554 99.5139 61.8529 99.454 62.0684C99.543 61.959 99.6275 61.841 99.746 61.6797C99.8795 61.4979 100.052 61.2799 100.293 61.1064L100.303 61.0996L100.395 61.0283C100.597 60.8541 100.688 60.6288 100.688 60.3486V60.332L100.69 60.3154C100.721 59.8636 100.721 59.3773 100.721 58.9023C100.721 58.8599 100.717 58.823 100.713 58.793C100.709 58.7717 100.704 58.7566 100.701 58.7461C100.146 58.465 99.9512 57.9373 99.8192 57.6465L99.3036 56.5752C98.7961 55.4992 98.3094 54.4114 97.8163 53.3652C96.5191 50.6714 95.1264 48.0387 93.7284 45.3965L93.7245 45.3887C93.3493 44.6457 92.933 43.8288 92.7587 42.9316L92.7577 42.9277C92.1981 39.9111 91.0455 37.0653 89.7186 34.25C89.4283 33.6491 88.9836 33.2512 88.3358 32.9443L88.3319 32.9424C87.2411 32.4171 86.0456 32.2343 84.7841 32.1094C84.3566 32.0811 84.0271 31.8942 83.8436 31.5723C83.6801 31.2852 83.6813 30.9713 83.7011 30.7754L83.703 30.7539L83.7069 30.7324C83.7919 30.2837 83.9063 29.4745 84.6249 29.0234C84.828 28.8888 84.9446 28.751 85.0311 28.5156L85.0321 28.5117C85.9403 26.0934 86.5189 23.6871 86.3358 21.1787V21.1738C86.2547 19.889 85.4192 18.939 84.3856 18.1855L84.1776 18.0498C83.121 17.4135 81.7612 17.3975 80.2675 17.3975C79.3977 17.412 78.6966 17.6327 78.1483 18.0146C77.6 18.3967 77.1732 18.9625 76.8856 19.7168L76.8808 19.7285C76.7239 20.1097 76.628 20.5108 76.5233 20.957C76.4216 21.3909 76.3104 21.8704 76.1181 22.3379C75.8143 23.0761 75.7009 23.7523 75.9804 24.4336L76.0419 24.5703L76.0458 24.5781C76.2915 25.1055 76.2831 25.727 76.2831 26.1406V26.1533L76.2821 26.165C76.2535 26.7595 76.3482 27.2383 76.5575 27.6309C76.762 28.0143 77.0967 28.3526 77.6151 28.6416C77.6243 28.6437 77.6465 28.65 77.6903 28.6592C77.7486 28.6714 77.8803 28.6973 78.0009 28.7529C78.1319 28.8135 78.3324 28.9485 78.3974 29.2188C78.4536 29.4532 78.3744 29.6678 78.2919 29.8242L78.2938 29.8252C78.2725 29.8675 78.2522 29.9346 78.2284 30.0615C78.2089 30.1655 78.1812 30.3453 78.1376 30.501C78.0908 30.668 78.0118 30.8701 77.8505 31.0469C77.6828 31.2306 77.4601 31.3511 77.1903 31.4092L77.1894 31.4082C76.8643 31.4792 76.4422 31.4875 76.205 31.5088C75.8943 31.5367 75.7884 31.5871 75.7538 31.6211L75.745 31.6299L75.744 31.6289C75.3288 32.0212 74.8734 32.2481 74.4315 32.4111C74.2127 32.4918 73.9926 32.5582 73.7851 32.6201C73.5736 32.6832 73.3768 32.7401 73.1825 32.8066C71.9547 33.2307 71.133 34.0108 70.5829 35.1846L70.5839 35.1855C70.0987 36.2364 69.7923 37.3545 69.6073 38.4834C69.0653 41.7975 68.3308 45.0261 67.6669 48.2812L67.6659 48.2803C67.4685 49.273 67.1397 50.2355 66.8515 51.1494C66.5587 52.0778 66.3036 52.9702 66.2138 53.8887L66.2128 53.8945C66.1821 54.1755 66.1611 54.4617 66.1386 54.7588C66.1163 55.0526 66.0926 55.3571 66.0575 55.6592C65.9881 56.2575 65.8691 56.8777 65.6034 57.4619L65.6044 57.4629C65.3875 57.9728 65.3513 58.5197 65.289 59.1777C65.2331 59.7674 65.1518 60.4399 64.8144 61.0762C64.8171 61.0869 64.8203 61.0984 64.8231 61.1104C64.8305 61.1417 64.8381 61.1885 64.8436 61.2432C65.1015 62.7142 65.1659 64.2885 63.9804 65.6562C63.9006 65.7578 63.8319 65.8798 63.7587 66.0283C63.722 66.1027 63.6869 66.1788 63.6483 66.2617C63.6107 66.3425 63.57 66.43 63.5263 66.5166C63.3804 66.835 63.1489 67.1887 62.6952 67.3506L62.6962 67.3516C62.198 67.5533 61.9372 67.9419 61.8602 68.5254V68.5322C61.613 70.2458 61.7694 71.9537 61.7694 73.7744C61.7695 73.8646 61.786 73.9617 61.8192 74.042C61.8511 74.1189 61.892 74.1658 61.9384 74.1934C62.1898 74.3351 62.3877 74.513 62.5233 74.7305C62.6619 74.9528 62.7168 75.1874 62.7255 75.4092C62.7416 75.8197 62.5924 76.2385 62.5077 76.5039L62.5058 76.5117C62.4758 76.6008 62.4375 76.6904 62.413 76.751C62.3903 76.807 62.3767 76.8464 62.3671 76.877C62.6098 77.1804 62.7224 77.503 62.7841 77.8037C62.8164 77.9613 62.8355 78.1184 62.8524 78.2588C62.8696 78.401 62.8838 78.5249 62.9042 78.6484C62.9109 78.6814 62.9212 78.7125 62.9286 78.7412C63.0695 78.8054 63.1951 78.8907 63.2977 79.0039C63.4434 79.1645 63.5131 79.3454 63.5438 79.5107C63.573 79.6676 63.5683 79.8201 63.5624 79.9326C63.5554 80.0663 63.5477 80.1341 63.5477 80.2197V80.2354L63.5468 80.251C63.5153 80.749 63.4827 81.2829 63.3808 81.8213L63.3798 81.8271C63.3627 81.9116 63.3613 81.9657 63.3642 81.9971C63.3655 82.012 63.3677 82.0219 63.369 82.0264C63.3703 82.0303 63.3715 82.0325 63.372 82.0332C63.3726 82.0343 63.3744 82.0364 63.3778 82.04C63.382 82.0444 63.3896 82.052 63.4032 82.0615C63.4176 82.0716 63.4375 82.0829 63.4638 82.0957L63.5644 82.1377L63.5692 82.1396C64.0172 82.3039 64.454 82.5001 64.872 82.6875C65.1897 82.83 65.4971 82.9676 65.8036 83.0908L66.1102 83.208L66.1142 83.21C66.4596 83.3402 66.7991 83.487 67.122 83.624C67.4492 83.7629 67.763 83.894 68.079 84.0039C68.7032 84.2209 69.3122 84.3465 69.9696 84.2812C70.4518 84.2176 70.5572 84.1366 70.5829 84.1055C70.6026 84.0815 70.6644 83.976 70.6171 83.5078L70.6161 83.498C70.5881 83.151 70.4822 82.8445 70.3808 82.3926C70.2899 81.988 70.2161 81.4964 70.3808 80.9902L70.4442 80.7451C70.5691 80.1767 70.544 79.63 70.4892 79.0059L70.4882 78.9971C70.395 77.6752 70.1551 76.3768 69.9306 75.0312C69.708 73.6971 69.5028 72.3255 69.5028 70.9131ZM101.221 58.9025C101.221 59.3741 101.221 59.8771 101.189 60.3488C101.189 60.8204 100.998 61.2291 100.586 61.5121C100.236 61.7636 100.046 62.1723 99.7599 62.4867C99.5514 62.7226 99.259 62.9312 98.9354 62.8008L98.8706 62.7697C98.5927 62.6046 98.8013 62.3673 98.9003 62.1631L98.9342 62.078C99.2517 60.9776 99.1882 60.8518 98.1402 60.3173C97.8068 60.1523 97.4485 59.9393 97.2792 59.5938L97.2193 59.437C97.0763 58.8946 96.7725 58.458 96.4286 58.0615L96.076 57.6763C94.5516 56.0414 93.059 54.3436 91.6299 52.6143C91.5347 52.4885 91.4711 52.3313 91.4076 52.2056C91.3441 52.2685 91.2806 52.2999 91.2171 52.3628L91.3124 52.3942C91.757 54.3436 92.1063 56.2929 92.4556 58.2422C92.7732 60.0658 92.805 60.0658 91.0583 60.6317C90.4867 60.8204 90.2961 61.0719 90.2008 61.6693C89.9468 63.8387 89.7562 66.071 89.1528 68.1775L88.994 68.7334C88.2411 71.5178 88.0552 74.399 87.3109 77.1696L87.0331 78.1562C86.9378 78.4824 86.8345 78.8046 86.7075 79.119L86.6102 79.3584C85.6568 81.8309 86.1041 84.3885 86.1041 86.9163L86.0985 87.0312C86.0734 87.294 85.9692 87.5176 85.9136 87.7652L85.7733 88.4141C85.4825 89.9266 85.465 91.4361 86.1041 92.9215C86.2629 93.2988 86.2311 93.6761 86.2629 94.0534C86.2947 94.3678 86.2629 94.6508 86.7075 94.7451C86.9298 94.808 87.0886 95.0281 87.0568 95.2796C87.0013 95.7748 87.2132 96.029 87.6288 96.127L87.819 96.1599H87.8825C88.8988 96.5372 89.6927 98.9267 89.1211 99.8071L88.9784 100.016C88.9308 100.082 88.8829 100.137 88.8353 100.153L88.6015 100.206C87.4592 100.525 86.6517 101.623 85.3419 101.505C84.5162 101.442 83.6588 101.473 82.8013 101.379C82.0391 101.316 81.8486 100.845 81.8804 100.247C81.8804 99.9643 82.0074 99.7127 82.1027 99.4612C82.8013 97.8892 82.6108 96.2857 82.325 94.6508C82.1662 93.8333 82.0074 93.0158 81.7533 92.2298C81.6898 92.0097 81.5945 91.7896 81.4675 91.6324C81.1499 91.2866 80.8641 91.0665 80.5148 91.7268C79.8161 93.1102 78.8316 94.3678 78.3235 95.8141C77.9424 96.9145 77.1167 97.9835 77.4343 99.304C77.6248 100.027 78.1647 101.662 78.6728 102.291C78.8951 102.605 79.1175 102.92 79.2445 103.266C79.4033 103.737 79.3715 104.146 78.7681 104.46L78.5116 104.579C77.228 105.117 75.9198 104.855 74.6396 104.649C73.8616 104.539 73.0834 104.309 72.2841 104.189L71.9402 104.146C71.4004 104.083 71.1781 103.769 71.1781 103.297C71.1781 102.766 71.1777 102.208 71.4657 101.726L71.5274 101.631C71.8053 101.218 71.7915 100.709 71.8476 100.209L71.8767 99.9957C72.0434 99.2531 72.3802 98.6309 72.9296 98.1289L73.1788 97.9206C73.2741 97.8577 73.4011 97.7634 73.4329 97.6376C73.8775 95.4682 75.243 93.5503 75.3383 91.2551C75.4018 89.4316 75.6241 87.5766 76.291 85.9102C77.3073 83.332 76.7992 80.8482 76.164 78.3329C75.1636 74.5364 74.1098 70.7399 73.0692 66.9434L72.0355 63.147C71.8866 62.5869 71.9611 61.9712 71.2118 61.793L71.051 61.7636C70.8842 61.7397 70.6098 61.4155 70.3895 61.0957L70.1936 60.7889C69.9713 60.4116 70.0666 59.94 70.1936 59.5313C70.6064 58.2422 70.7017 56.9217 70.4794 55.4754C70.0666 55.9156 69.8442 56.3558 69.7807 56.8903C69.6219 58.2737 69.3044 59.6256 68.7645 60.9461C68.5422 61.5121 68.2246 62.1409 69.1773 62.4553C69.4314 62.5496 69.4632 62.864 69.4632 63.1156C69.3996 64.3103 69.6219 65.5051 69.3679 66.6684L69.3231 66.9404C69.2505 67.5789 69.3996 68.2324 69.6219 68.8378C69.876 69.5295 70.003 70.1898 70.003 70.9129L70.0116 71.4248C70.0996 73.9751 70.8089 76.427 70.9875 78.9618C71.051 79.6849 71.0828 80.3766 70.8605 81.1312C70.6064 81.8858 71.051 82.6718 71.1146 83.4578C71.2098 84.401 70.9875 84.6526 70.0348 84.7783L69.7519 84.7979C68.3551 84.8425 67.1883 84.1495 65.9381 83.6779C65.0806 83.3635 64.2549 82.9233 63.3975 82.6089C62.9529 82.4517 62.7941 82.2002 62.8893 81.7286C62.9846 81.2255 63.0164 80.7225 63.0481 80.2194C63.0481 79.8107 63.2069 79.3391 62.6035 79.1504C62.5321 79.1504 62.478 79.0091 62.4423 78.8721L62.413 78.7417C62.3237 78.2112 62.3458 77.6803 62.0087 77.2275L61.9366 77.1382C61.7461 76.9181 61.9366 76.6351 62.0319 76.3522C62.2105 75.7921 62.4451 75.1489 61.8192 74.708L61.6826 74.6229C61.4046 74.4578 61.2968 74.1482 61.2743 73.8838L61.2697 73.774C61.2697 72.0133 61.1109 70.2212 61.365 68.4605C61.4603 67.7374 61.8096 67.1714 62.5083 66.8885C62.7228 66.8177 62.8658 66.6761 62.9774 66.4902L63.0799 66.2911C63.2387 65.9767 63.3657 65.6308 63.588 65.3479C64.636 64.1531 64.6043 62.7697 64.3502 61.3234C64.3502 61.1977 64.2549 61.0405 64.3184 60.9461C64.9437 59.8849 64.6757 58.6303 65.0585 57.4932L65.1441 57.2676C65.6205 56.23 65.5887 55.0038 65.7158 53.8405C65.8944 52.0129 66.6871 50.3235 67.0995 48.5391L67.1766 48.1811C67.7601 45.3201 68.3926 42.5068 68.9032 39.6367L69.1138 38.403C69.3044 37.2397 69.6219 36.0764 70.1301 34.976C70.7335 33.6869 71.6544 32.8065 73.02 32.3349C73.8457 32.052 74.7032 31.9262 75.4018 31.2659C75.7512 30.9201 76.5133 31.0459 77.085 30.9201C77.7695 30.7728 77.6448 30.1282 77.8095 29.6855L77.8472 29.5996C78.0696 29.1867 77.7076 29.1837 77.4862 29.126L77.4025 29.0965C76.1958 28.4363 75.7194 27.4616 75.7829 26.1411C75.7829 25.7009 75.7829 25.1979 75.5924 24.7891C75.2033 23.9913 75.2757 23.2174 75.5341 22.4678L75.6559 22.1481C76.0052 21.2992 76.0687 20.3874 76.4181 19.5385C77.0532 17.8721 78.3553 16.9289 80.2607 16.8975C81.8168 16.8975 83.4365 16.8975 84.675 17.7778C85.7548 18.5638 86.7393 19.6328 86.8345 21.142C87.0251 23.7516 86.4217 26.2354 85.5007 28.6878C85.3737 29.0336 85.1831 29.2537 84.8973 29.4424L84.8065 29.5039C84.377 29.827 84.288 30.3541 84.1987 30.8258C84.1669 31.1402 84.2304 31.5804 84.8338 31.6118C86.1041 31.7376 87.3744 31.9262 88.5494 32.4921C89.2799 32.838 89.8197 33.3096 90.1691 34.0327C91.5029 36.8624 92.6779 39.755 93.2496 42.8362C93.4083 43.6537 93.7894 44.4082 94.1705 45.1628C95.5679 47.8038 96.9652 50.4449 98.2673 53.1488C98.9342 54.5636 99.5693 56.0099 100.268 57.4248C100.427 57.7706 100.554 58.1165 100.935 58.3051C101.157 58.3994 101.221 58.651 101.221 58.9025Z" fill="url(#paint16_radial_7647_1659)"/>
<path d="M69.5028 70.9131C69.5028 70.2538 69.3878 69.6512 69.1522 69.0098C68.8849 68.2817 68.6913 67.4205 68.8798 66.5615L68.9169 66.3652C68.9946 65.9055 69.0009 65.4284 68.9872 64.917C68.9722 64.358 68.9321 63.7308 68.9628 63.1152C68.9628 63.062 68.9614 63.0142 68.9569 62.9717C68.9537 62.941 68.9475 62.9178 68.9433 62.9004C68.6886 62.807 68.4694 62.681 68.3075 62.501C68.1202 62.2927 68.0416 62.0522 68.0311 61.8174C68.0213 61.5972 68.0714 61.3899 68.1249 61.2236C68.1774 61.0604 68.2498 60.8881 68.2987 60.7637L68.3017 60.7568C68.8219 59.4843 69.1298 58.1774 69.2841 56.833V56.8311C69.3622 56.1741 69.641 55.6384 70.1142 55.1338L70.8173 54.3838L70.9735 55.3994C71.2067 56.9167 71.1078 58.3158 70.6698 59.6836C70.5419 60.0964 70.5243 60.3659 70.6239 60.5352C70.7245 60.7059 70.8688 60.9193 71.0077 61.0879C71.0778 61.1729 71.1378 61.2347 71.1815 61.2725C71.1857 61.276 71.1899 61.2785 71.1933 61.2812C71.4506 61.3249 71.6762 61.4081 71.8642 61.5439C72.0737 61.6955 72.2034 61.8869 72.287 62.0791C72.3666 62.2621 72.4069 62.4524 72.4354 62.6045C72.467 62.7722 72.4854 62.8918 72.5185 63.0166L73.5507 66.8096C74.5911 70.6054 75.6471 74.4089 76.6474 78.2051L76.6483 78.2109C77.283 80.7245 77.8365 83.3521 76.7558 86.0938L76.7548 86.0957C76.1194 87.6833 75.9005 89.4715 75.8378 91.2725V91.2764C75.7863 92.5134 75.3926 93.6331 74.9813 94.6768C74.5614 95.7425 74.1338 96.7084 73.9227 97.7383L73.9198 97.749L73.9179 97.7598C73.871 97.9453 73.763 98.0776 73.6815 98.1582C73.609 98.23 73.5314 98.2842 73.4765 98.3213C72.8869 98.7742 72.5362 99.3538 72.3681 100.088C72.3487 100.205 72.3371 100.329 72.3251 100.467C72.3133 100.602 72.3007 100.76 72.2811 100.912C72.2417 101.22 72.1653 101.579 71.9423 101.91L71.9384 101.916C71.6925 102.27 71.6776 102.703 71.6776 103.297C71.6776 103.458 71.7158 103.525 71.7382 103.552C71.757 103.574 71.8148 103.627 71.995 103.648C72.4853 103.699 72.9615 103.799 73.4091 103.897C73.7517 103.973 74.0748 104.045 74.3925 104.103L74.7099 104.154L74.7186 104.155L75.744 104.314C76.7361 104.448 77.6441 104.467 78.537 104.017L78.6747 103.934C78.7818 103.856 78.8069 103.797 78.8153 103.771C78.8315 103.719 78.836 103.622 78.7714 103.429C78.6706 103.159 78.4922 102.901 78.2645 102.579C77.9639 102.195 77.6849 101.577 77.4677 101.013C77.2387 100.418 77.0509 99.8105 76.9511 99.4316L76.9481 99.4209C76.7565 98.6241 76.9165 97.9172 77.1483 97.3008C77.2629 96.9962 77.4007 96.7 77.5243 96.4297C77.651 96.1526 77.7641 95.8998 77.8505 95.6504L77.8515 95.6484C78.1228 94.8762 78.5177 94.1647 78.9179 93.4912C79.3256 92.805 79.7292 92.1722 80.0683 91.501L80.0722 91.4932C80.2567 91.1443 80.5617 90.7547 81.0536 90.8047C81.2626 90.8259 81.427 90.9267 81.538 91.0117C81.5945 91.0551 81.6483 91.1029 81.6981 91.1514L81.8358 91.2939L81.8466 91.3057L81.8563 91.3184C82.0383 91.5435 82.1553 91.8276 82.2284 92.0762C82.427 92.6907 82.5692 93.3211 82.6942 93.9404L82.8153 94.5557L82.8173 94.5645C83.102 96.1928 83.3214 97.9231 82.5692 99.6377C82.4475 99.959 82.3798 100.084 82.3798 100.247V100.273C82.3663 100.527 82.4075 100.661 82.454 100.729C82.4769 100.762 82.5274 100.818 82.6688 100.854L82.8427 100.881L82.8563 100.882C83.2629 100.927 83.6739 100.942 84.0976 100.954C84.5152 100.966 84.9517 100.973 85.3798 101.006L85.3866 101.007C85.9144 101.054 86.3502 100.849 86.8778 100.53C87.3353 100.254 87.9082 99.8558 88.5897 99.6953C88.6017 99.6777 88.6159 99.6581 88.6327 99.6328C88.6518 99.6041 88.6764 99.568 88.703 99.5312C88.7661 99.4318 88.8199 99.2364 88.8114 98.9326C88.8031 98.6372 88.7372 98.2934 88.6229 97.9541C88.5087 97.6149 88.3529 97.2999 88.1786 97.0566C88.0246 96.8417 87.8785 96.7169 87.7636 96.6562H87.7606C87.4388 96.6187 87.0926 96.5159 86.8446 96.248C86.5826 95.965 86.5177 95.596 86.5595 95.2236C86.4153 95.1885 86.277 95.132 86.1561 95.042C86.0178 94.9389 85.9268 94.8107 85.87 94.6768C85.8169 94.5514 85.7975 94.4289 85.787 94.3389C85.7801 94.28 85.7683 94.1307 85.7655 94.1035L85.7645 94.0957C85.7556 93.9892 85.7509 93.8836 85.747 93.791C85.7429 93.6952 85.7392 93.6113 85.7323 93.5293C85.7189 93.3695 85.6945 93.2396 85.6444 93.1191L85.5067 92.7734C84.9149 91.1622 85.0129 89.545 85.3515 87.9834L85.4267 87.6494C85.4625 87.4922 85.5252 87.3089 85.5526 87.2139C85.5869 87.095 85.6044 87.005 85.6044 86.916C85.6044 86.2766 85.5747 85.6341 85.5468 84.9766C85.519 84.3231 85.4928 83.656 85.5009 82.9883C85.5172 81.6503 85.6717 80.2806 86.247 78.9238C86.4863 78.3294 86.632 77.7173 86.83 77.0312C87.2178 75.5851 87.4521 74.1059 87.703 72.5918C87.9529 71.0841 88.2188 69.5453 88.6737 68.0332C89.2613 65.9785 89.4474 63.8026 89.704 61.6113L89.705 61.6006L89.7069 61.5908C89.7596 61.2607 89.849 60.9442 90.0624 60.6816C90.2792 60.4149 90.5732 60.2655 90.9013 60.1572L90.9042 60.1562C91.3517 60.0113 91.6457 59.9149 91.8515 59.8213C92.0547 59.7288 92.089 59.6735 92.0966 59.6602C92.1065 59.6428 92.136 59.5778 92.1181 59.3438C92.1 59.1088 92.0445 58.7971 91.9628 58.3281C91.6299 56.4703 91.2978 54.6239 90.8856 52.7803L90.2851 52.582L90.8651 52.0078C90.9255 51.9481 90.985 51.9048 91.0145 51.8828C91.0474 51.8584 91.0524 51.8537 91.0556 51.8506L91.5438 51.3672L91.8534 51.9805C91.9421 52.1561 91.9692 52.2308 92.0253 52.3066C93.4441 54.0229 94.9251 55.7089 96.4384 57.332C96.9094 57.8294 97.4704 58.4438 97.6991 59.2979C97.7444 59.4549 97.8766 59.59 98.1034 59.7285L98.3622 59.8691L98.3671 59.8721C98.6267 60.0045 98.857 60.1269 99.038 60.2539C99.2228 60.3836 99.3994 60.5464 99.5048 60.7783C99.6113 61.0126 99.6165 61.2528 99.5878 61.4775C99.565 61.6554 99.5139 61.8529 99.454 62.0684C99.543 61.959 99.6275 61.841 99.746 61.6797C99.8795 61.4979 100.052 61.2799 100.293 61.1064L100.303 61.0996L100.395 61.0283C100.597 60.8541 100.688 60.6288 100.688 60.3486V60.332L100.69 60.3154C100.721 59.8636 100.721 59.3773 100.721 58.9023C100.721 58.8599 100.717 58.823 100.713 58.793C100.709 58.7717 100.704 58.7566 100.701 58.7461C100.146 58.465 99.9512 57.9373 99.8192 57.6465L99.3036 56.5752C98.7961 55.4992 98.3094 54.4114 97.8163 53.3652C96.5191 50.6714 95.1264 48.0387 93.7284 45.3965L93.7245 45.3887C93.3493 44.6457 92.933 43.8288 92.7587 42.9316L92.7577 42.9277C92.1981 39.9111 91.0455 37.0653 89.7186 34.25C89.4283 33.6491 88.9836 33.2512 88.3358 32.9443L88.3319 32.9424C87.2411 32.4171 86.0456 32.2343 84.7841 32.1094C84.3566 32.0811 84.0271 31.8942 83.8436 31.5723C83.6801 31.2852 83.6813 30.9713 83.7011 30.7754L83.703 30.7539L83.7069 30.7324C83.7919 30.2837 83.9063 29.4745 84.6249 29.0234C84.828 28.8888 84.9446 28.751 85.0311 28.5156L85.0321 28.5117C85.9403 26.0934 86.5189 23.6871 86.3358 21.1787V21.1738C86.2547 19.889 85.4192 18.939 84.3856 18.1855L84.1776 18.0498C83.121 17.4135 81.7612 17.3975 80.2675 17.3975C79.3977 17.412 78.6966 17.6327 78.1483 18.0146C77.6 18.3967 77.1732 18.9625 76.8856 19.7168L76.8808 19.7285C76.7239 20.1097 76.628 20.5108 76.5233 20.957C76.4216 21.3909 76.3104 21.8704 76.1181 22.3379C75.8143 23.0761 75.7009 23.7523 75.9804 24.4336L76.0419 24.5703L76.0458 24.5781C76.2915 25.1055 76.2831 25.727 76.2831 26.1406V26.1533L76.2821 26.165C76.2535 26.7595 76.3482 27.2383 76.5575 27.6309C76.762 28.0143 77.0967 28.3526 77.6151 28.6416C77.6243 28.6437 77.6465 28.65 77.6903 28.6592C77.7486 28.6714 77.8803 28.6973 78.0009 28.7529C78.1319 28.8135 78.3324 28.9485 78.3974 29.2188C78.4536 29.4532 78.3744 29.6678 78.2919 29.8242L78.2938 29.8252C78.2725 29.8675 78.2522 29.9346 78.2284 30.0615C78.2089 30.1655 78.1812 30.3453 78.1376 30.501C78.0908 30.668 78.0118 30.8701 77.8505 31.0469C77.6828 31.2306 77.4601 31.3511 77.1903 31.4092L77.1894 31.4082C76.8643 31.4792 76.4422 31.4875 76.205 31.5088C75.8943 31.5367 75.7884 31.5871 75.7538 31.6211L75.745 31.6299L75.744 31.6289C75.3288 32.0212 74.8734 32.2481 74.4315 32.4111C74.2127 32.4918 73.9926 32.5582 73.7851 32.6201C73.5736 32.6832 73.3768 32.7401 73.1825 32.8066C71.9547 33.2307 71.133 34.0108 70.5829 35.1846L70.5839 35.1855C70.0987 36.2364 69.7923 37.3545 69.6073 38.4834C69.0653 41.7975 68.3308 45.0261 67.6669 48.2812L67.6659 48.2803C67.4685 49.273 67.1397 50.2355 66.8515 51.1494C66.5587 52.0778 66.3036 52.9702 66.2138 53.8887L66.2128 53.8945C66.1821 54.1755 66.1611 54.4617 66.1386 54.7588C66.1163 55.0526 66.0926 55.3571 66.0575 55.6592C65.9881 56.2575 65.8691 56.8777 65.6034 57.4619L65.6044 57.4629C65.3875 57.9728 65.3513 58.5197 65.289 59.1777C65.2331 59.7674 65.1518 60.4399 64.8144 61.0762C64.8171 61.0869 64.8203 61.0984 64.8231 61.1104C64.8305 61.1417 64.8381 61.1885 64.8436 61.2432C65.1015 62.7142 65.1659 64.2885 63.9804 65.6562C63.9006 65.7578 63.8319 65.8798 63.7587 66.0283C63.722 66.1027 63.6869 66.1788 63.6483 66.2617C63.6107 66.3425 63.57 66.43 63.5263 66.5166C63.3804 66.835 63.1489 67.1887 62.6952 67.3506L62.6962 67.3516C62.198 67.5533 61.9372 67.9419 61.8602 68.5254V68.5322C61.613 70.2458 61.7694 71.9537 61.7694 73.7744C61.7695 73.8646 61.786 73.9617 61.8192 74.042C61.8511 74.1189 61.892 74.1658 61.9384 74.1934C62.1898 74.3351 62.3877 74.513 62.5233 74.7305C62.6619 74.9528 62.7168 75.1874 62.7255 75.4092C62.7416 75.8197 62.5924 76.2385 62.5077 76.5039L62.5058 76.5117C62.4758 76.6008 62.4375 76.6904 62.413 76.751C62.3903 76.807 62.3767 76.8464 62.3671 76.877C62.6098 77.1804 62.7224 77.503 62.7841 77.8037C62.8164 77.9613 62.8355 78.1184 62.8524 78.2588C62.8696 78.401 62.8838 78.5249 62.9042 78.6484C62.9109 78.6814 62.9212 78.7125 62.9286 78.7412C63.0695 78.8054 63.1951 78.8907 63.2977 79.0039C63.4434 79.1645 63.5131 79.3454 63.5438 79.5107C63.573 79.6676 63.5683 79.8201 63.5624 79.9326C63.5554 80.0663 63.5477 80.1341 63.5477 80.2197V80.2354L63.5468 80.251C63.5153 80.749 63.4827 81.2829 63.3808 81.8213L63.3798 81.8271C63.3627 81.9116 63.3613 81.9657 63.3642 81.9971C63.3655 82.012 63.3677 82.0219 63.369 82.0264C63.3703 82.0303 63.3715 82.0325 63.372 82.0332C63.3726 82.0343 63.3744 82.0364 63.3778 82.04C63.382 82.0444 63.3896 82.052 63.4032 82.0615C63.4176 82.0716 63.4375 82.0829 63.4638 82.0957L63.5644 82.1377L63.5692 82.1396C64.0172 82.3039 64.454 82.5001 64.872 82.6875C65.1897 82.83 65.4971 82.9676 65.8036 83.0908L66.1102 83.208L66.1142 83.21C66.4596 83.3402 66.7991 83.487 67.122 83.624C67.4492 83.7629 67.763 83.894 68.079 84.0039C68.7032 84.2209 69.3122 84.3465 69.9696 84.2812C70.4518 84.2176 70.5572 84.1366 70.5829 84.1055C70.6026 84.0815 70.6644 83.976 70.6171 83.5078L70.6161 83.498C70.5881 83.151 70.4822 82.8445 70.3808 82.3926C70.2899 81.988 70.2161 81.4964 70.3808 80.9902L70.4442 80.7451C70.5691 80.1767 70.544 79.63 70.4892 79.0059L70.4882 78.9971C70.395 77.6752 70.1551 76.3768 69.9306 75.0312C69.708 73.6971 69.5028 72.3255 69.5028 70.9131ZM101.221 58.9025C101.221 59.3741 101.221 59.8771 101.189 60.3488C101.189 60.8204 100.998 61.2291 100.586 61.5121C100.236 61.7636 100.046 62.1723 99.7599 62.4867C99.5514 62.7226 99.259 62.9312 98.9354 62.8008L98.8706 62.7697C98.5927 62.6046 98.8013 62.3673 98.9003 62.1631L98.9342 62.078C99.2517 60.9776 99.1882 60.8518 98.1402 60.3173C97.8068 60.1523 97.4485 59.9393 97.2792 59.5938L97.2193 59.437C97.0763 58.8946 96.7725 58.458 96.4286 58.0615L96.076 57.6763C94.5516 56.0414 93.059 54.3436 91.6299 52.6143C91.5347 52.4885 91.4711 52.3313 91.4076 52.2056C91.3441 52.2685 91.2806 52.2999 91.2171 52.3628L91.3124 52.3942C91.757 54.3436 92.1063 56.2929 92.4556 58.2422C92.7732 60.0658 92.805 60.0658 91.0583 60.6317C90.4867 60.8204 90.2961 61.0719 90.2008 61.6693C89.9468 63.8387 89.7562 66.071 89.1528 68.1775L88.994 68.7334C88.2411 71.5178 88.0552 74.399 87.3109 77.1696L87.0331 78.1562C86.9378 78.4824 86.8345 78.8046 86.7075 79.119L86.6102 79.3584C85.6568 81.8309 86.1041 84.3885 86.1041 86.9163L86.0985 87.0312C86.0734 87.294 85.9692 87.5176 85.9136 87.7652L85.7733 88.4141C85.4825 89.9266 85.465 91.4361 86.1041 92.9215C86.2629 93.2988 86.2311 93.6761 86.2629 94.0534C86.2947 94.3678 86.2629 94.6508 86.7075 94.7451C86.9298 94.808 87.0886 95.0281 87.0568 95.2796C87.0013 95.7748 87.2132 96.029 87.6288 96.127L87.819 96.1599H87.8825C88.8988 96.5372 89.6927 98.9267 89.1211 99.8071L88.9784 100.016C88.9308 100.082 88.8829 100.137 88.8353 100.153L88.6015 100.206C87.4592 100.525 86.6517 101.623 85.3419 101.505C84.5162 101.442 83.6588 101.473 82.8013 101.379C82.0391 101.316 81.8486 100.845 81.8804 100.247C81.8804 99.9643 82.0074 99.7127 82.1027 99.4612C82.8013 97.8892 82.6108 96.2857 82.325 94.6508C82.1662 93.8333 82.0074 93.0158 81.7533 92.2298C81.6898 92.0097 81.5945 91.7896 81.4675 91.6324C81.1499 91.2866 80.8641 91.0665 80.5148 91.7268C79.8161 93.1102 78.8316 94.3678 78.3235 95.8141C77.9424 96.9145 77.1167 97.9835 77.4343 99.304C77.6248 100.027 78.1647 101.662 78.6728 102.291C78.8951 102.605 79.1175 102.92 79.2445 103.266C79.4033 103.737 79.3715 104.146 78.7681 104.46L78.5116 104.579C77.228 105.117 75.9198 104.855 74.6396 104.649C73.8616 104.539 73.0834 104.309 72.2841 104.189L71.9402 104.146C71.4004 104.083 71.1781 103.769 71.1781 103.297C71.1781 102.766 71.1777 102.208 71.4657 101.726L71.5274 101.631C71.8053 101.218 71.7915 100.709 71.8476 100.209L71.8767 99.9957C72.0434 99.2531 72.3802 98.6309 72.9296 98.1289L73.1788 97.9206C73.2741 97.8577 73.4011 97.7634 73.4329 97.6376C73.8775 95.4682 75.243 93.5503 75.3383 91.2551C75.4018 89.4316 75.6241 87.5766 76.291 85.9102C77.3073 83.332 76.7992 80.8482 76.164 78.3329C75.1636 74.5364 74.1098 70.7399 73.0692 66.9434L72.0355 63.147C71.8866 62.5869 71.9611 61.9712 71.2118 61.793L71.051 61.7636C70.8842 61.7397 70.6098 61.4155 70.3895 61.0957L70.1936 60.7889C69.9713 60.4116 70.0666 59.94 70.1936 59.5313C70.6064 58.2422 70.7017 56.9217 70.4794 55.4754C70.0666 55.9156 69.8442 56.3558 69.7807 56.8903C69.6219 58.2737 69.3044 59.6256 68.7645 60.9461C68.5422 61.5121 68.2246 62.1409 69.1773 62.4553C69.4314 62.5496 69.4632 62.864 69.4632 63.1156C69.3996 64.3103 69.6219 65.5051 69.3679 66.6684L69.3231 66.9404C69.2505 67.5789 69.3996 68.2324 69.6219 68.8378C69.876 69.5295 70.003 70.1898 70.003 70.9129L70.0116 71.4248C70.0996 73.9751 70.8089 76.427 70.9875 78.9618C71.051 79.6849 71.0828 80.3766 70.8605 81.1312C70.6064 81.8858 71.051 82.6718 71.1146 83.4578C71.2098 84.401 70.9875 84.6526 70.0348 84.7783L69.7519 84.7979C68.3551 84.8425 67.1883 84.1495 65.9381 83.6779C65.0806 83.3635 64.2549 82.9233 63.3975 82.6089C62.9529 82.4517 62.7941 82.2002 62.8893 81.7286C62.9846 81.2255 63.0164 80.7225 63.0481 80.2194C63.0481 79.8107 63.2069 79.3391 62.6035 79.1504C62.5321 79.1504 62.478 79.0091 62.4423 78.8721L62.413 78.7417C62.3237 78.2112 62.3458 77.6803 62.0087 77.2275L61.9366 77.1382C61.7461 76.9181 61.9366 76.6351 62.0319 76.3522C62.2105 75.7921 62.4451 75.1489 61.8192 74.708L61.6826 74.6229C61.4046 74.4578 61.2968 74.1482 61.2743 73.8838L61.2697 73.774C61.2697 72.0133 61.1109 70.2212 61.365 68.4605C61.4603 67.7374 61.8096 67.1714 62.5083 66.8885C62.7228 66.8177 62.8658 66.6761 62.9774 66.4902L63.0799 66.2911C63.2387 65.9767 63.3657 65.6308 63.588 65.3479C64.636 64.1531 64.6043 62.7697 64.3502 61.3234C64.3502 61.1977 64.2549 61.0405 64.3184 60.9461C64.9437 59.8849 64.6757 58.6303 65.0585 57.4932L65.1441 57.2676C65.6205 56.23 65.5887 55.0038 65.7158 53.8405C65.8944 52.0129 66.6871 50.3235 67.0995 48.5391L67.1766 48.1811C67.7601 45.3201 68.3926 42.5068 68.9032 39.6367L69.1138 38.403C69.3044 37.2397 69.6219 36.0764 70.1301 34.976C70.7335 33.6869 71.6544 32.8065 73.02 32.3349C73.8457 32.052 74.7032 31.9262 75.4018 31.2659C75.7512 30.9201 76.5133 31.0459 77.085 30.9201C77.7695 30.7728 77.6448 30.1282 77.8095 29.6855L77.8472 29.5996C78.0696 29.1867 77.7076 29.1837 77.4862 29.126L77.4025 29.0965C76.1958 28.4363 75.7194 27.4616 75.7829 26.1411C75.7829 25.7009 75.7829 25.1979 75.5924 24.7891C75.2033 23.9913 75.2757 23.2174 75.5341 22.4678L75.6559 22.1481C76.0052 21.2992 76.0687 20.3874 76.4181 19.5385C77.0532 17.8721 78.3553 16.9289 80.2607 16.8975C81.8168 16.8975 83.4365 16.8975 84.675 17.7778C85.7548 18.5638 86.7393 19.6328 86.8345 21.142C87.0251 23.7516 86.4217 26.2354 85.5007 28.6878C85.3737 29.0336 85.1831 29.2537 84.8973 29.4424L84.8065 29.5039C84.377 29.827 84.288 30.3541 84.1987 30.8258C84.1669 31.1402 84.2304 31.5804 84.8338 31.6118C86.1041 31.7376 87.3744 31.9262 88.5494 32.4921C89.2799 32.838 89.8197 33.3096 90.1691 34.0327C91.5029 36.8624 92.6779 39.755 93.2496 42.8362C93.4083 43.6537 93.7894 44.4082 94.1705 45.1628C95.5679 47.8038 96.9652 50.4449 98.2673 53.1488C98.9342 54.5636 99.5693 56.0099 100.268 57.4248C100.427 57.7706 100.554 58.1165 100.935 58.3051C101.157 58.3994 101.221 58.651 101.221 58.9025Z" fill="#5C5C5C"/>
</g>
<defs>
<filter id="filter0_dd_7647_1659" x="79.7534" y="58.5469" width="66.4323" height="49.4849" filterUnits="userSpaceOnUse" color-interpolation-filters="sRGB">
<feFlood flood-opacity="0" result="BackgroundImageFix"/>
<feColorMatrix in="SourceAlpha" type="matrix" values="0 0 0 0 0 0 0 0 0 0 0 0 0 0 0 0 0 0 127 0" result="hardAlpha"/>
<feOffset dy="2"/>
<feGaussianBlur stdDeviation="7"/>
<feComposite in2="hardAlpha" operator="out"/>
<feColorMatrix type="matrix" values="0 0 0 0 1 0 0 0 0 0.8 0 0 0 0 0.2 0 0 0 1 0"/>
<feBlend mode="normal" in2="BackgroundImageFix" result="effect1_dropShadow_7647_1659"/>
<feColorMatrix in="SourceAlpha" type="matrix" values="0 0 0 0 0 0 0 0 0 0 0 0 0 0 0 0 0 0 127 0" result="hardAlpha"/>
<feOffset dy="2"/>
<feGaussianBlur stdDeviation="4"/>
<feComposite in2="hardAlpha" operator="out"/>
<feColorMatrix type="matrix" values="0 0 0 0 0 0 0 0 0 0 0 0 0 0 0 0 0 0 0.5 0"/>
<feBlend mode="normal" in2="effect1_dropShadow_7647_1659" result="effect2_dropShadow_7647_1659"/>
<feBlend mode="normal" in="SourceGraphic" in2="effect2_dropShadow_7647_1659" result="shape"/>
</filter>
<filter id="filter1_dd_7647_1659" x="120.857" y="60" width="52.5693" height="42.8682" filterUnits="userSpaceOnUse" color-interpolation-filters="sRGB">
<feFlood flood-opacity="0" result="BackgroundImageFix"/>
<feColorMatrix in="SourceAlpha" type="matrix" values="0 0 0 0 0 0 0 0 0 0 0 0 0 0 0 0 0 0 127 0" result="hardAlpha"/>
<feOffset dy="4"/>
<feGaussianBlur stdDeviation="8"/>
<feComposite in2="hardAlpha" operator="out"/>
<feColorMatrix type="matrix" values="0 0 0 0 0 0 0 0 0 0 0 0 0 0 0 0 0 0 0.14 0"/>
<feBlend mode="normal" in2="BackgroundImageFix" result="effect1_dropShadow_7647_1659"/>
<feColorMatrix in="SourceAlpha" type="matrix" values="0 0 0 0 0 0 0 0 0 0 0 0 0 0 0 0 0 0 127 0" result="hardAlpha"/>
<feOffset dy="1"/>
<feGaussianBlur stdDeviation="0.5"/>
<feComposite in2="hardAlpha" operator="out"/>
<feColorMatrix type="matrix" values="0 0 0 0 0 0 0 0 0 0 0 0 0 0 0 0 0 0 0.08 0"/>
<feBlend mode="normal" in2="effect1_dropShadow_7647_1659" result="effect2_dropShadow_7647_1659"/>
<feBlend mode="normal" in="SourceGraphic" in2="effect2_dropShadow_7647_1659" result="shape"/>
</filter>
<filter id="filter2_dd_7647_1659" x="150.375" y="72.1094" width="42.939" height="42.8452" filterUnits="userSpaceOnUse" color-interpolation-filters="sRGB">
<feFlood flood-opacity="0" result="BackgroundImageFix"/>
<feColorMatrix in="SourceAlpha" type="matrix" values="0 0 0 0 0 0 0 0 0 0 0 0 0 0 0 0 0 0 127 0" result="hardAlpha"/>
<feOffset dy="4"/>
<feGaussianBlur stdDeviation="8"/>
<feComposite in2="hardAlpha" operator="out"/>
<feColorMatrix type="matrix" values="0 0 0 0 0 0 0 0 0 0 0 0 0 0 0 0 0 0 0.14 0"/>
<feBlend mode="normal" in2="BackgroundImageFix" result="effect1_dropShadow_7647_1659"/>
<feColorMatrix in="SourceAlpha" type="matrix" values="0 0 0 0 0 0 0 0 0 0 0 0 0 0 0 0 0 0 127 0" result="hardAlpha"/>
<feOffset dy="1"/>
<feGaussianBlur stdDeviation="0.5"/>
<feComposite in2="hardAlpha" operator="out"/>
<feColorMatrix type="matrix" values="0 0 0 0 0 0 0 0 0 0 0 0 0 0 0 0 0 0 0.08 0"/>
<feBlend mode="normal" in2="effect1_dropShadow_7647_1659" result="effect2_dropShadow_7647_1659"/>
<feBlend mode="normal" in="SourceGraphic" in2="effect2_dropShadow_7647_1659" result="shape"/>
</filter>
<filter id="filter3_dd_7647_1659" x="100.157" y="72.1094" width="42.939" height="42.8452" filterUnits="userSpaceOnUse" color-interpolation-filters="sRGB">
<feFlood flood-opacity="0" result="BackgroundImageFix"/>
<feColorMatrix in="SourceAlpha" type="matrix" values="0 0 0 0 0 0 0 0 0 0 0 0 0 0 0 0 0 0 127 0" result="hardAlpha"/>
<feOffset dy="4"/>
<feGaussianBlur stdDeviation="8"/>
<feComposite in2="hardAlpha" operator="out"/>
<feColorMatrix type="matrix" values="0 0 0 0 0 0 0 0 0 0 0 0 0 0 0 0 0 0 0.14 0"/>
<feBlend mode="normal" in2="BackgroundImageFix" result="effect1_dropShadow_7647_1659"/>
<feColorMatrix in="SourceAlpha" type="matrix" values="0 0 0 0 0 0 0 0 0 0 0 0 0 0 0 0 0 0 127 0" result="hardAlpha"/>
<feOffset dy="1"/>
<feGaussianBlur stdDeviation="0.5"/>
<feComposite in2="hardAlpha" operator="out"/>
<feColorMatrix type="matrix" values="0 0 0 0 0 0 0 0 0 0 0 0 0 0 0 0 0 0 0.08 0"/>
<feBlend mode="normal" in2="effect1_dropShadow_7647_1659" result="effect2_dropShadow_7647_1659"/>
<feBlend mode="normal" in="SourceGraphic" in2="effect2_dropShadow_7647_1659" result="shape"/>
</filter>
<filter id="filter4_dd_7647_1659" x="144.166" y="83.5996" width="32.1379" height="40.0142" filterUnits="userSpaceOnUse" color-interpolation-filters="sRGB">
<feFlood flood-opacity="0" result="BackgroundImageFix"/>
<feColorMatrix in="SourceAlpha" type="matrix" values="0 0 0 0 0 0 0 0 0 0 0 0 0 0 0 0 0 0 127 0" result="hardAlpha"/>
<feOffset/>
<feGaussianBlur stdDeviation="4"/>
<feComposite in2="hardAlpha" operator="out"/>
<feColorMatrix type="matrix" values="0 0 0 0 0.98415 0 0 0 0 0.859671 0 0 0 0 0.486234 0 0 0 1 0"/>
<feBlend mode="normal" in2="BackgroundImageFix" result="effect1_dropShadow_7647_1659"/>
<feColorMatrix in="SourceAlpha" type="matrix" values="0 0 0 0 0 0 0 0 0 0 0 0 0 0 0 0 0 0 127 0" result="hardAlpha"/>
<feOffset/>
<feGaussianBlur stdDeviation="1"/>
<feComposite in2="hardAlpha" operator="out"/>
<feColorMatrix type="matrix" values="0 0 0 0 0 0 0 0 0 0 0 0 0 0 0 0 0 0 0.08 0"/>
<feBlend mode="normal" in2="effect1_dropShadow_7647_1659" result="effect2_dropShadow_7647_1659"/>
<feBlend mode="normal" in="SourceGraphic" in2="effect2_dropShadow_7647_1659" result="shape"/>
</filter>
<filter id="filter5_dd_7647_1659" x="144.166" y="83.5991" width="32.1377" height="40.0142" filterUnits="userSpaceOnUse" color-interpolation-filters="sRGB">
<feFlood flood-opacity="0" result="BackgroundImageFix"/>
<feColorMatrix in="SourceAlpha" type="matrix" values="0 0 0 0 0 0 0 0 0 0 0 0 0 0 0 0 0 0 127 0" result="hardAlpha"/>
<feOffset/>
<feGaussianBlur stdDeviation="4"/>
<feComposite in2="hardAlpha" operator="out"/>
<feColorMatrix type="matrix" values="0 0 0 0 0.98415 0 0 0 0 0.859671 0 0 0 0 0.486234 0 0 0 1 0"/>
<feBlend mode="normal" in2="BackgroundImageFix" result="effect1_dropShadow_7647_1659"/>
<feColorMatrix in="SourceAlpha" type="matrix" values="0 0 0 0 0 0 0 0 0 0 0 0 0 0 0 0 0 0 127 0" result="hardAlpha"/>
<feOffset/>
<feGaussianBlur stdDeviation="1"/>
<feComposite in2="hardAlpha" operator="out"/>
<feColorMatrix type="matrix" values="0 0 0 0 0 0 0 0 0 0 0 0 0 0 0 0 0 0 0.08 0"/>
<feBlend mode="normal" in2="effect1_dropShadow_7647_1659" result="effect2_dropShadow_7647_1659"/>
<feBlend mode="normal" in="SourceGraphic" in2="effect2_dropShadow_7647_1659" result="shape"/>
</filter>
<filter id="filter6_dd_7647_1659" x="129.377" y="83.5645" width="34.9321" height="46.626" filterUnits="userSpaceOnUse" color-interpolation-filters="sRGB">
<feFlood flood-opacity="0" result="BackgroundImageFix"/>
<feColorMatrix in="SourceAlpha" type="matrix" values="0 0 0 0 0 0 0 0 0 0 0 0 0 0 0 0 0 0 127 0" result="hardAlpha"/>
<feOffset dy="4"/>
<feGaussianBlur stdDeviation="8"/>
<feComposite in2="hardAlpha" operator="out"/>
<feColorMatrix type="matrix" values="0 0 0 0 0 0 0 0 0 0 0 0 0 0 0 0 0 0 0.64 0"/>
<feBlend mode="normal" in2="BackgroundImageFix" result="effect1_dropShadow_7647_1659"/>
<feColorMatrix in="SourceAlpha" type="matrix" values="0 0 0 0 0 0 0 0 0 0 0 0 0 0 0 0 0 0 127 0" result="hardAlpha"/>
<feOffset dy="1"/>
<feGaussianBlur stdDeviation="0.5"/>
<feComposite in2="hardAlpha" operator="out"/>
<feColorMatrix type="matrix" values="0 0 0 0 0 0 0 0 0 0 0 0 0 0 0 0 0 0 0.08 0"/>
<feBlend mode="normal" in2="effect1_dropShadow_7647_1659" result="effect2_dropShadow_7647_1659"/>
<feBlend mode="normal" in="SourceGraphic" in2="effect2_dropShadow_7647_1659" result="shape"/>
</filter>
<filter id="filter7_dd_7647_1659" x="129.377" y="83.5645" width="34.9316" height="46.626" filterUnits="userSpaceOnUse" color-interpolation-filters="sRGB">
<feFlood flood-opacity="0" result="BackgroundImageFix"/>
<feColorMatrix in="SourceAlpha" type="matrix" values="0 0 0 0 0 0 0 0 0 0 0 0 0 0 0 0 0 0 127 0" result="hardAlpha"/>
<feOffset dy="4"/>
<feGaussianBlur stdDeviation="8"/>
<feComposite in2="hardAlpha" operator="out"/>
<feColorMatrix type="matrix" values="0 0 0 0 0 0 0 0 0 0 0 0 0 0 0 0 0 0 0.64 0"/>
<feBlend mode="normal" in2="BackgroundImageFix" result="effect1_dropShadow_7647_1659"/>
<feColorMatrix in="SourceAlpha" type="matrix" values="0 0 0 0 0 0 0 0 0 0 0 0 0 0 0 0 0 0 127 0" result="hardAlpha"/>
<feOffset dy="1"/>
<feGaussianBlur stdDeviation="0.5"/>
<feComposite in2="hardAlpha" operator="out"/>
<feColorMatrix type="matrix" values="0 0 0 0 0 0 0 0 0 0 0 0 0 0 0 0 0 0 0.08 0"/>
<feBlend mode="normal" in2="effect1_dropShadow_7647_1659" result="effect2_dropShadow_7647_1659"/>
<feBlend mode="normal" in="SourceGraphic" in2="effect2_dropShadow_7647_1659" result="shape"/>
</filter>
<filter id="filter8_dd_7647_1659" x="130.239" y="99.6743" width="51.5775" height="42.1924" filterUnits="userSpaceOnUse" color-interpolation-filters="sRGB">
<feFlood flood-opacity="0" result="BackgroundImageFix"/>
<feColorMatrix in="SourceAlpha" type="matrix" values="0 0 0 0 0 0 0 0 0 0 0 0 0 0 0 0 0 0 127 0" result="hardAlpha"/>
<feOffset dy="4"/>
<feGaussianBlur stdDeviation="8"/>
<feComposite in2="hardAlpha" operator="out"/>
<feColorMatrix type="matrix" values="0 0 0 0 0 0 0 0 0 0 0 0 0 0 0 0 0 0 0.64 0"/>
<feBlend mode="normal" in2="BackgroundImageFix" result="effect1_dropShadow_7647_1659"/>
<feColorMatrix in="SourceAlpha" type="matrix" values="0 0 0 0 0 0 0 0 0 0 0 0 0 0 0 0 0 0 127 0" result="hardAlpha"/>
<feOffset dy="1"/>
<feGaussianBlur stdDeviation="0.5"/>
<feComposite in2="hardAlpha" operator="out"/>
<feColorMatrix type="matrix" values="0 0 0 0 0 0 0 0 0 0 0 0 0 0 0 0 0 0 0.08 0"/>
<feBlend mode="normal" in2="effect1_dropShadow_7647_1659" result="effect2_dropShadow_7647_1659"/>
<feBlend mode="normal" in="SourceGraphic" in2="effect2_dropShadow_7647_1659" result="shape"/>
</filter>
<filter id="filter9_dd_7647_1659" x="130.239" y="99.6738" width="51.577" height="42.1924" filterUnits="userSpaceOnUse" color-interpolation-filters="sRGB">
<feFlood flood-opacity="0" result="BackgroundImageFix"/>
<feColorMatrix in="SourceAlpha" type="matrix" values="0 0 0 0 0 0 0 0 0 0 0 0 0 0 0 0 0 0 127 0" result="hardAlpha"/>
<feOffset dy="4"/>
<feGaussianBlur stdDeviation="8"/>
<feComposite in2="hardAlpha" operator="out"/>
<feColorMatrix type="matrix" values="0 0 0 0 0 0 0 0 0 0 0 0 0 0 0 0 0 0 0.64 0"/>
<feBlend mode="normal" in2="BackgroundImageFix" result="effect1_dropShadow_7647_1659"/>
<feColorMatrix in="SourceAlpha" type="matrix" values="0 0 0 0 0 0 0 0 0 0 0 0 0 0 0 0 0 0 127 0" result="hardAlpha"/>
<feOffset dy="1"/>
<feGaussianBlur stdDeviation="0.5"/>
<feComposite in2="hardAlpha" operator="out"/>
<feColorMatrix type="matrix" values="0 0 0 0 0 0 0 0 0 0 0 0 0 0 0 0 0 0 0.08 0"/>
<feBlend mode="normal" in2="effect1_dropShadow_7647_1659" result="effect2_dropShadow_7647_1659"/>
<feBlend mode="normal" in="SourceGraphic" in2="effect2_dropShadow_7647_1659" result="shape"/>
</filter>
<filter id="filter10_dd_7647_1659" x="126.351" y="95.6772" width="40.5662" height="40.5938" filterUnits="userSpaceOnUse" color-interpolation-filters="sRGB">
<feFlood flood-opacity="0" result="BackgroundImageFix"/>
<feColorMatrix in="SourceAlpha" type="matrix" values="0 0 0 0 0 0 0 0 0 0 0 0 0 0 0 0 0 0 127 0" result="hardAlpha"/>
<feOffset dy="4"/>
<feGaussianBlur stdDeviation="8"/>
<feComposite in2="hardAlpha" operator="out"/>
<feColorMatrix type="matrix" values="0 0 0 0 0 0 0 0 0 0 0 0 0 0 0 0 0 0 0.64 0"/>
<feBlend mode="normal" in2="BackgroundImageFix" result="effect1_dropShadow_7647_1659"/>
<feColorMatrix in="SourceAlpha" type="matrix" values="0 0 0 0 0 0 0 0 0 0 0 0 0 0 0 0 0 0 127 0" result="hardAlpha"/>
<feOffset dy="1"/>
<feGaussianBlur stdDeviation="0.5"/>
<feComposite in2="hardAlpha" operator="out"/>
<feColorMatrix type="matrix" values="0 0 0 0 0 0 0 0 0 0 0 0 0 0 0 0 0 0 0.08 0"/>
<feBlend mode="normal" in2="effect1_dropShadow_7647_1659" result="effect2_dropShadow_7647_1659"/>
<feBlend mode="normal" in="SourceGraphic" in2="effect2_dropShadow_7647_1659" result="shape"/>
</filter>
<filter id="filter11_dd_7647_1659" x="126.351" y="95.6772" width="40.5664" height="40.5933" filterUnits="userSpaceOnUse" color-interpolation-filters="sRGB">
<feFlood flood-opacity="0" result="BackgroundImageFix"/>
<feColorMatrix in="SourceAlpha" type="matrix" values="0 0 0 0 0 0 0 0 0 0 0 0 0 0 0 0 0 0 127 0" result="hardAlpha"/>
<feOffset dy="4"/>
<feGaussianBlur stdDeviation="8"/>
<feComposite in2="hardAlpha" operator="out"/>
<feColorMatrix type="matrix" values="0 0 0 0 0 0 0 0 0 0 0 0 0 0 0 0 0 0 0.64 0"/>
<feBlend mode="normal" in2="BackgroundImageFix" result="effect1_dropShadow_7647_1659"/>
<feColorMatrix in="SourceAlpha" type="matrix" values="0 0 0 0 0 0 0 0 0 0 0 0 0 0 0 0 0 0 127 0" result="hardAlpha"/>
<feOffset dy="1"/>
<feGaussianBlur stdDeviation="0.5"/>
<feComposite in2="hardAlpha" operator="out"/>
<feColorMatrix type="matrix" values="0 0 0 0 0 0 0 0 0 0 0 0 0 0 0 0 0 0 0.08 0"/>
<feBlend mode="normal" in2="effect1_dropShadow_7647_1659" result="effect2_dropShadow_7647_1659"/>
<feBlend mode="normal" in="SourceGraphic" in2="effect2_dropShadow_7647_1659" result="shape"/>
</filter>
<filter id="filter12_dd_7647_1659" x="118.221" y="7.44141" width="52.9996" height="85.9653" filterUnits="userSpaceOnUse" color-interpolation-filters="sRGB">
<feFlood flood-opacity="0" result="BackgroundImageFix"/>
<feColorMatrix in="SourceAlpha" type="matrix" values="0 0 0 0 0 0 0 0 0 0 0 0 0 0 0 0 0 0 127 0" result="hardAlpha"/>
<feOffset dy="4"/>
<feGaussianBlur stdDeviation="8"/>
<feComposite in2="hardAlpha" operator="out"/>
<feColorMatrix type="matrix" values="0 0 0 0 0 0 0 0 0 0 0 0 0 0 0 0 0 0 0.14 0"/>
<feBlend mode="normal" in2="BackgroundImageFix" result="effect1_dropShadow_7647_1659"/>
<feColorMatrix in="SourceAlpha" type="matrix" values="0 0 0 0 0 0 0 0 0 0 0 0 0 0 0 0 0 0 127 0" result="hardAlpha"/>
<feOffset dy="1"/>
<feGaussianBlur stdDeviation="0.5"/>
<feComposite in2="hardAlpha" operator="out"/>
<feColorMatrix type="matrix" values="0 0 0 0 0 0 0 0 0 0 0 0 0 0 0 0 0 0 0.08 0"/>
<feBlend mode="normal" in2="effect1_dropShadow_7647_1659" result="effect2_dropShadow_7647_1659"/>
<feBlend mode="normal" in="SourceGraphic" in2="effect2_dropShadow_7647_1659" result="shape"/>
</filter>
<filter id="filter13_dd_7647_1659" x="45.2207" y="4.89746" width="72" height="120" filterUnits="userSpaceOnUse" color-interpolation-filters="sRGB">
<feFlood flood-opacity="0" result="BackgroundImageFix"/>
<feColorMatrix in="SourceAlpha" type="matrix" values="0 0 0 0 0 0 0 0 0 0 0 0 0 0 0 0 0 0 127 0" result="hardAlpha"/>
<feOffset dy="4"/>
<feGaussianBlur stdDeviation="8"/>
<feComposite in2="hardAlpha" operator="out"/>
<feColorMatrix type="matrix" values="0 0 0 0 0 0 0 0 0 0 0 0 0 0 0 0 0 0 0.14 0"/>
<feBlend mode="normal" in2="BackgroundImageFix" result="effect1_dropShadow_7647_1659"/>
<feColorMatrix in="SourceAlpha" type="matrix" values="0 0 0 0 0 0 0 0 0 0 0 0 0 0 0 0 0 0 127 0" result="hardAlpha"/>
<feOffset dy="1"/>
<feGaussianBlur stdDeviation="0.5"/>
<feComposite in2="hardAlpha" operator="out"/>
<feColorMatrix type="matrix" values="0 0 0 0 0 0 0 0 0 0 0 0 0 0 0 0 0 0 0.08 0"/>
<feBlend mode="normal" in2="effect1_dropShadow_7647_1659" result="effect2_dropShadow_7647_1659"/>
<feBlend mode="normal" in="SourceGraphic" in2="effect2_dropShadow_7647_1659" result="shape"/>
</filter>
<linearGradient id="paint0_linear_7647_1659" x1="113.664" y1="82.6185" x2="112.275" y2="79.9598" gradientUnits="userSpaceOnUse">
<stop stop-color="#FFCC33"/>
<stop offset="1" stop-color="#FFEAAA"/>
</linearGradient>
<linearGradient id="paint1_linear_7647_1659" x1="139.842" y1="91.9116" x2="175.364" y2="149.134" gradientUnits="userSpaceOnUse">
<stop offset="0.0036" stop-color="#8B8989"/>
<stop offset="1" stop-color="#FFFAED"/>
</linearGradient>
<linearGradient id="paint2_linear_7647_1659" x1="139.842" y1="91.9116" x2="186.021" y2="124.646" gradientUnits="userSpaceOnUse">
<stop stop-color="#EBE1C2"/>
<stop offset="1" stop-color="#ADAEB6"/>
</linearGradient>
<linearGradient id="paint3_linear_7647_1659" x1="140.891" y1="94.8085" x2="171.136" y2="143.428" gradientUnits="userSpaceOnUse">
<stop offset="0.0036" stop-color="#B1B1B1"/>
<stop offset="1" stop-color="#FFFAED"/>
</linearGradient>
<linearGradient id="paint4_linear_7647_1659" x1="140.891" y1="94.8085" x2="180.147" y2="122.576" gradientUnits="userSpaceOnUse">
<stop stop-color="#EBE1C2"/>
<stop offset="1" stop-color="#ADAEB6"/>
</linearGradient>
<linearGradient id="paint5_linear_7647_1659" x1="162.763" y1="88.0801" x2="167.55" y2="110.574" gradientUnits="userSpaceOnUse">
<stop stop-color="#FFE79E"/>
<stop offset="1" stop-color="#FFD452"/>
</linearGradient>
<linearGradient id="paint6_linear_7647_1659" x1="152.166" y1="103.607" x2="168.303" y2="103.607" gradientUnits="userSpaceOnUse">
<stop stop-color="#FFEAAA"/>
<stop offset="1" stop-color="#FFE7A1"/>
</linearGradient>
<linearGradient id="paint7_linear_7647_1659" x1="144.078" y1="101.807" x2="148.716" y2="102.082" gradientUnits="userSpaceOnUse">
<stop offset="0.0036" stop-color="#454545"/>
<stop offset="1" stop-color="#757166"/>
</linearGradient>
<linearGradient id="paint8_linear_7647_1659" x1="146.721" y1="107" x2="151.216" y2="107.138" gradientUnits="userSpaceOnUse">
<stop stop-color="#323232" stop-opacity="0"/>
<stop offset="1" stop-color="#F9CC45"/>
</linearGradient>
<linearGradient id="paint9_linear_7647_1659" x1="137.677" y1="116.027" x2="137.885" y2="122.558" gradientUnits="userSpaceOnUse">
<stop offset="0.0036" stop-color="#454545"/>
<stop offset="1" stop-color="#757166"/>
</linearGradient>
<linearGradient id="paint10_linear_7647_1659" x1="159.221" y1="120" x2="160.408" y2="117.4" gradientUnits="userSpaceOnUse">
<stop stop-color="#323232" stop-opacity="0"/>
<stop offset="1" stop-color="#F9CC45"/>
</linearGradient>
<linearGradient id="paint11_linear_7647_1659" x1="145.977" y1="116.482" x2="151.46" y2="114.701" gradientUnits="userSpaceOnUse">
<stop offset="0.0036" stop-color="#454545"/>
<stop offset="1" stop-color="#757166"/>
</linearGradient>
<linearGradient id="paint12_linear_7647_1659" x1="149.61" y1="117.495" x2="153.139" y2="116.274" gradientUnits="userSpaceOnUse">
<stop stop-color="#323232" stop-opacity="0"/>
<stop offset="1" stop-color="#F9CC45"/>
</linearGradient>
<radialGradient id="paint13_radial_7647_1659" cx="0" cy="0" r="1" gradientTransform="matrix(-3.35044 -20.2589 4.3351 -4.46699 150.085 43.4243)" gradientUnits="userSpaceOnUse">
<stop stop-color="#FFF7DF"/>
<stop offset="1" stop-color="#B29F66" stop-opacity="0"/>
</radialGradient>
<radialGradient id="paint14_radial_7647_1659" cx="0" cy="0" r="1" gradientTransform="matrix(-3.35044 -20.2589 4.3351 -4.46699 150.085 43.4243)" gradientUnits="userSpaceOnUse">
<stop stop-color="#FFF7DF"/>
<stop offset="1" stop-color="#B29F66" stop-opacity="0"/>
</radialGradient>
<radialGradient id="paint15_radial_7647_1659" cx="0" cy="0" r="1" gradientTransform="matrix(-6.38192 -33.0356 8.2575 -7.28418 91.4372 56.0055)" gradientUnits="userSpaceOnUse">
<stop stop-color="#FFF7DF"/>
<stop offset="1" stop-color="#B29F66" stop-opacity="0"/>
</radialGradient>
<radialGradient id="paint16_radial_7647_1659" cx="0" cy="0" r="1" gradientTransform="matrix(-6.38192 -33.0356 8.2575 -7.28418 91.4372 56.0055)" gradientUnits="userSpaceOnUse">
<stop stop-color="#FFF7DF"/>
<stop offset="1" stop-color="#B29F66" stop-opacity="0"/>
</radialGradient>
</defs>
</svg>
