<svg width="230" height="164" viewBox="0 0 230 164" fill="none" xmlns="http://www.w3.org/2000/svg">
<g filter="url(#filter0_dd_7647_1703)">
<path d="M98.9624 90.3033L99.1027 90.2209C99.7789 89.7808 100.039 88.9245 99.679 88.2362C99.3192 87.5479 98.4678 87.2725 97.7205 87.5764L97.5727 87.6446L94.632 89.1817C93.8525 89.5891 93.5317 90.5146 93.9155 91.2488C94.2993 91.983 95.2423 92.2478 96.0218 91.8404L98.9624 90.3033ZM110.724 84.1556L110.865 84.0728C111.541 83.6327 111.8 82.7767 111.44 82.0885C111.081 81.4003 110.23 81.1246 109.482 81.4284L109.334 81.4969L103.453 84.5707C102.674 84.9782 102.353 85.9037 102.737 86.6378C103.121 87.372 104.064 87.6369 104.843 87.2294L110.724 84.1556ZM122.486 78.0076L122.626 77.9252C123.302 77.4851 123.562 76.6289 123.202 75.9405C122.842 75.2521 121.991 74.9766 121.244 75.2807L121.096 75.3489L115.215 78.4227C114.436 78.8302 114.115 79.7556 114.499 80.4898C114.883 81.224 115.826 81.4889 116.605 81.0814L122.486 78.0076ZM131.307 73.3967L131.447 73.3142C132.124 72.8742 132.383 72.0179 132.024 71.3296C131.664 70.6412 130.812 70.3657 130.065 70.6698L129.917 70.738L126.977 72.275C126.197 72.6826 125.876 73.608 126.26 74.3421C126.644 75.0763 127.587 75.341 128.366 74.9338L131.307 73.3967Z" fill="url(#paint0_linear_7647_1703)"/>
</g>
<path d="M157.426 82.8679H136.857V78.8052C136.857 75.0471 140.003 72 143.758 72H150.524C154.381 72 157.426 75.1487 157.426 78.8052V82.8679Z" fill="url(#paint1_linear_7647_1703)"/>
<path d="M171.653 94.9546L166.375 89.2667L171.45 84.5945C172.161 83.8836 173.277 83.9851 173.886 84.6961L176.829 87.8448C177.54 88.5558 177.438 89.673 176.728 90.2824L171.653 94.9546Z" fill="url(#paint2_linear_7647_1703)"/>
<path d="M121.819 94.9546L127.096 89.2667L122.022 84.5945C121.311 83.8836 120.195 83.9851 119.586 84.6961L116.642 87.8448C115.932 88.5558 116.033 89.673 116.744 90.2824L121.819 94.9546Z" fill="url(#paint3_linear_7647_1703)"/>
<g filter="url(#filter1_dd_7647_1703)">
<path d="M146.786 142.591C164.219 142.591 178.352 128.585 178.352 111.307C178.352 94.03 164.219 80.0239 146.786 80.0239C129.353 80.0239 115.221 94.03 115.221 111.307C115.221 128.585 129.353 142.591 146.786 142.591Z" fill="url(#paint4_linear_7647_1703)" shape-rendering="crispEdges"/>
<path d="M146.786 142.591C164.219 142.591 178.352 128.585 178.352 111.307C178.352 94.03 164.219 80.0239 146.786 80.0239C129.353 80.0239 115.221 94.03 115.221 111.307C115.221 128.585 129.353 142.591 146.786 142.591Z" stroke="url(#paint5_linear_7647_1703)" stroke-miterlimit="10" shape-rendering="crispEdges"/>
</g>
<g filter="url(#filter2_dd_7647_1703)">
<path d="M146.786 137.919C161.585 137.919 173.581 126.004 173.581 111.308C173.581 96.6105 161.585 84.6963 146.786 84.6963C131.988 84.6963 119.991 96.6105 119.991 111.308C119.991 126.004 131.988 137.919 146.786 137.919Z" fill="url(#paint6_linear_7647_1703)"/>
</g>
<path opacity="0.2" d="M172.571 111.359C172.571 111.848 172.571 112.24 172.474 112.73C171.79 99.1185 160.557 88.4452 146.784 88.4452C133.012 88.4452 121.779 99.2165 120.997 112.632C120.997 112.142 120.9 111.75 120.9 111.261C120.9 97.0622 132.523 85.6055 146.687 85.6055C161.045 85.7034 172.571 97.1601 172.571 111.359Z" fill="black"/>
<g filter="url(#filter3_dd_7647_1703)">
<path d="M168.303 111.307C168.303 112.12 168.202 112.831 168.202 113.542C168.1 115.167 166.274 116.081 164.751 115.37L153.485 109.479C152.673 109.073 152.166 108.26 152.166 107.346V94.0405C152.166 92.3139 153.891 91.095 155.515 91.806C163.026 95.1578 168.303 102.572 168.303 111.307Z" fill="url(#paint7_linear_7647_1703)"/>
</g>
<g filter="url(#filter4_dd_7647_1703)">
<path d="M148.309 108.724C148.309 109.534 147.653 110.19 146.843 110.19C146.029 110.19 145.371 109.527 145.377 108.713L145.467 96.9864C145.467 96.1739 146.177 95.5645 146.888 95.5645C147.7 95.5645 148.309 96.2754 148.309 96.9864V108.724Z" fill="url(#paint8_linear_7647_1703)"/>
<path d="M146.888 96.0645C147.401 96.0645 147.809 96.5279 147.809 96.9863V108.725C147.809 109.258 147.376 109.69 146.843 109.69C146.307 109.69 145.873 109.253 145.877 108.717L145.967 96.9902V96.9863C145.967 96.4723 146.431 96.0645 146.888 96.0645Z" stroke="url(#paint9_linear_7647_1703)" stroke-opacity="0.4"/>
</g>
<path d="M144.858 112.018C144.858 111.003 145.67 110.088 146.786 110.088C147.903 110.088 148.613 110.901 148.613 111.917C148.613 112.932 147.801 113.846 146.685 113.846C145.67 113.846 144.858 113.135 144.858 112.018Z" fill="#989FB0"/>
<g filter="url(#filter5_dd_7647_1703)">
<mask id="path-12-inside-1_7647_1703" fill="white">
<path d="M165.766 121.765C165.711 121.775 165.643 121.794 165.591 121.816C165.523 121.844 165.432 121.858 165.348 121.865C165.223 121.875 165.098 121.842 164.986 121.785L146.482 112.527C146.279 112.425 146.177 112.12 146.279 111.917C146.38 111.714 146.685 111.613 146.888 111.714L165.563 121.059C165.721 121.138 165.818 121.341 165.805 121.523C165.798 121.613 165.855 121.748 165.766 121.765Z"/>
</mask>
<path d="M165.766 121.765C165.711 121.775 165.643 121.794 165.591 121.816C165.523 121.844 165.432 121.858 165.348 121.865C165.223 121.875 165.098 121.842 164.986 121.785L146.482 112.527C146.279 112.425 146.177 112.12 146.279 111.917C146.38 111.714 146.685 111.613 146.888 111.714L165.563 121.059C165.721 121.138 165.818 121.341 165.805 121.523C165.798 121.613 165.855 121.748 165.766 121.765Z" fill="url(#paint10_linear_7647_1703)"/>
<path d="M146.482 112.527L146.034 113.421H146.034L146.482 112.527ZM146.888 111.714L146.44 112.608L146.888 111.714ZM165.563 121.059L166.011 120.164L165.563 121.059ZM165.805 121.523L166.802 121.597L165.805 121.523ZM165.766 121.765L165.587 120.781L165.766 121.765ZM164.986 121.785L164.538 122.68L164.986 121.785ZM165.591 121.816L165.204 120.893C165.233 120.881 165.255 120.875 165.267 120.871C165.28 120.868 165.288 120.866 165.29 120.866C165.293 120.865 165.286 120.867 165.268 120.868L165.348 121.865L165.428 122.862C165.536 122.853 165.758 122.83 165.978 122.738L165.591 121.816ZM164.986 121.785L165.433 120.891L146.929 111.632L146.482 112.527L146.034 113.421L164.538 122.68L164.986 121.785ZM146.482 112.527L146.929 111.632C147.119 111.727 147.19 111.87 147.215 111.944C147.239 112.018 147.268 112.175 147.173 112.364L146.279 111.917L145.384 111.47C145.188 111.863 145.217 112.274 145.317 112.576C145.418 112.879 145.642 113.225 146.034 113.421L146.482 112.527ZM146.279 111.917L147.173 112.364C147.079 112.554 146.936 112.625 146.862 112.65C146.787 112.675 146.63 112.703 146.44 112.608L146.888 111.714L147.335 110.82C146.943 110.623 146.531 110.652 146.229 110.753C145.926 110.854 145.58 111.078 145.384 111.47L146.279 111.917ZM146.888 111.714L146.44 112.608L165.116 121.953L165.563 121.059L166.011 120.164L147.335 110.82L146.888 111.714ZM165.563 121.059L165.116 121.953C164.965 121.877 164.89 121.77 164.856 121.704C164.822 121.637 164.8 121.553 164.807 121.449L165.805 121.523L166.802 121.597C166.84 121.089 166.597 120.458 166.011 120.164L165.563 121.059ZM165.805 121.523L164.807 121.449C164.798 121.576 164.812 121.685 164.815 121.712C164.822 121.776 164.818 121.741 164.817 121.719C164.817 121.708 164.803 121.533 164.894 121.327C164.948 121.207 165.037 121.074 165.178 120.965C165.317 120.856 165.465 120.803 165.587 120.781L165.766 121.765L165.945 122.748C166.089 122.722 166.254 122.661 166.408 122.542C166.562 122.421 166.662 122.275 166.723 122.138C166.828 121.9 166.818 121.682 166.815 121.624C166.813 121.58 166.809 121.542 166.806 121.521C166.805 121.51 166.804 121.5 166.803 121.494C166.802 121.486 166.802 121.483 166.801 121.48C166.799 121.456 166.808 121.515 166.802 121.597L165.805 121.523ZM165.348 121.865L165.268 120.868C165.37 120.86 165.429 120.889 165.433 120.891L164.986 121.785L164.538 122.68C164.768 122.795 165.076 122.89 165.428 122.862L165.348 121.865ZM165.591 121.816L165.978 122.738C165.968 122.742 165.962 122.744 165.959 122.745C165.958 122.746 165.957 122.746 165.956 122.746C165.956 122.746 165.956 122.746 165.956 122.746C165.956 122.746 165.956 122.746 165.956 122.746C165.956 122.746 165.955 122.746 165.955 122.746C165.954 122.747 165.951 122.747 165.945 122.748L165.766 121.765L165.587 120.781C165.47 120.802 165.331 120.84 165.204 120.893L165.591 121.816Z" fill="url(#paint11_linear_7647_1703)" fill-opacity="0.4" mask="url(#path-12-inside-1_7647_1703)"/>
</g>
<path d="M143.437 112.018C143.437 110.292 144.858 108.87 146.685 108.768C148.512 108.666 149.831 110.19 149.831 111.917C149.831 113.643 148.41 115.065 146.584 115.167C144.858 115.37 143.437 113.846 143.437 112.018Z" fill="#616161"/>
<g filter="url(#filter6_dd_7647_1703)">
<path d="M148.745 111.917C148.745 110.705 147.846 109.792 146.745 109.853C145.439 109.926 144.523 110.922 144.523 112.018C144.523 113.354 145.523 114.199 146.457 114.089L146.489 114.084L146.523 114.083C147.83 114.011 148.745 113.013 148.745 111.917ZM150.917 111.917C150.917 114.259 149.014 116.096 146.687 116.247C144.181 116.527 142.351 114.332 142.351 112.018C142.351 109.662 144.278 107.814 146.625 107.684C149.178 107.542 150.917 109.675 150.917 111.917Z" fill="url(#paint12_linear_7647_1703)"/>
<path d="M146.653 108.183C148.867 108.06 150.417 109.908 150.418 111.917C150.418 113.969 148.747 115.612 146.655 115.748L146.432 115.766C144.394 115.871 142.851 114.047 142.851 112.018L142.856 111.826C142.958 109.851 144.61 108.297 146.653 108.183ZM146.717 109.354C145.168 109.44 144.023 110.635 144.023 112.018C144.023 113.596 145.231 114.737 146.515 114.585L146.525 114.583H146.539L146.551 114.583C148.101 114.496 149.246 113.3 149.246 111.917C149.245 110.459 148.144 109.275 146.717 109.354Z" stroke="url(#paint13_linear_7647_1703)" stroke-opacity="0.4"/>
</g>
<path d="M147.598 129.895H145.873C145.568 129.895 145.264 130.098 145.264 130.504V134.77C145.264 135.075 145.467 135.379 145.873 135.379H147.598C147.903 135.379 148.207 135.176 148.207 134.77V130.504C148.106 130.199 147.903 129.895 147.598 129.895Z" fill="#616161"/>
<path d="M147.598 86.7275H145.873C145.568 86.7275 145.264 86.9307 145.264 87.337V91.6029C145.264 91.9076 145.467 92.2123 145.873 92.2123H147.598C147.903 92.2123 148.207 92.0092 148.207 91.6029V87.337C148.106 87.0322 147.903 86.7275 147.598 86.7275Z" fill="#616161"/>
<path d="M127.603 109.377H123.34C123.036 109.377 122.731 109.581 122.731 109.987V111.714C122.731 112.018 122.934 112.323 123.34 112.323H127.603C127.908 112.323 128.212 112.12 128.212 111.714V109.987C128.212 109.581 127.908 109.377 127.603 109.377Z" fill="#616161"/>
<path d="M155.425 133.664C156.157 133.382 156.523 132.56 156.242 131.827C155.96 131.094 155.138 130.727 154.405 131.009C153.673 131.29 153.307 132.112 153.588 132.845C153.87 133.579 154.692 133.945 155.425 133.664Z" fill="#616161"/>
<path d="M164.156 127.899C164.701 127.334 164.686 126.434 164.121 125.888C163.557 125.343 162.657 125.359 162.112 125.923C161.567 126.488 161.582 127.389 162.147 127.934C162.711 128.48 163.611 128.464 164.156 127.899Z" fill="#616161"/>
<path d="M125.718 119.166C126.46 118.912 126.856 118.104 126.602 117.361C126.347 116.618 125.539 116.222 124.797 116.476C124.054 116.73 123.658 117.538 123.913 118.281C124.167 119.024 124.975 119.42 125.718 119.166Z" fill="#616161"/>
<path d="M131.512 127.466C132.078 126.921 132.095 126.021 131.551 125.455C131.007 124.889 130.107 124.872 129.542 125.416C128.976 125.96 128.959 126.861 129.503 127.427C130.047 127.993 130.947 128.01 131.512 127.466Z" fill="#616161"/>
<path d="M140.023 132.222C140.305 131.49 139.941 130.667 139.209 130.384C138.477 130.102 137.654 130.466 137.371 131.199C137.088 131.932 137.453 132.755 138.185 133.037C138.917 133.32 139.74 132.955 140.023 132.222Z" fill="#616161"/>
<path d="M140.328 91.2192C141.073 90.9722 141.476 90.1676 141.229 89.4222C140.982 88.6769 140.177 88.2729 139.432 88.5199C138.687 88.767 138.284 89.5715 138.531 90.3169C138.778 91.0623 139.583 91.4663 140.328 91.2192Z" fill="#616161"/>
<path d="M132.223 95.991C132.793 95.4519 132.819 94.552 132.281 93.9809C131.742 93.4098 130.843 93.3838 130.272 93.9229C129.701 94.4619 129.675 95.3619 130.214 95.933C130.753 96.5041 131.652 96.53 132.223 95.991Z" fill="#616161"/>
<path d="M126.874 103.671C127.143 102.993 126.812 102.225 126.135 101.956C125.457 101.687 124.69 102.018 124.421 102.696C124.153 103.374 124.484 104.141 125.161 104.411C125.838 104.68 126.605 104.348 126.874 103.671Z" fill="#616161"/>
<g filter="url(#filter7_dd_7647_1703)">
<mask id="path-28-inside-2_7647_1703" fill="white">
<path fill-rule="evenodd" clip-rule="evenodd" d="M147.06 19.4611C147.919 19.5382 149.051 19.8659 149.246 21.2922L149.52 23.3547L149.266 26.9201C151.53 27.7681 152.917 29.6952 153.405 32.7209L155.221 45.8468C154.909 48.5833 152.898 48.9301 153.093 46.4826L152.117 43.7453C151.355 49.643 150.38 54.8667 148.915 58.4709C149.54 60.0126 149.969 61.6318 149.93 63.5011L151.824 66.797C153.971 66.3152 155.474 67.8952 151.687 69.6105C150.633 71.8654 147.724 71.6917 148.193 68.1261L145.967 63.925C145.147 66.1799 144.19 68.069 142.863 69.0519L142.726 70.3429C147.47 71.3644 144.757 73.4074 141.457 73.4074C137.768 73.099 136.401 72.7713 138.118 69.9191C139.309 67.7027 140.481 65.4665 140.539 63.4621C141.437 61.0724 142.336 58.9912 143.253 57.4494C143.097 55.869 143.117 54.4804 143.546 53.5168C143.628 52.666 141.863 50.3692 141.281 47.7785C141.233 47.7845 141.194 47.7886 141.164 47.7931C140.975 47.822 140.13 47.8833 139.178 47.9767C138.922 49.787 137.647 49.845 137.073 48.1994C136.413 48.246 135.947 48.2052 135.62 47.9474C135.132 47.562 135.132 48.0244 134.761 46.2707C134.39 44.5168 134.097 42.7241 134.273 40.3342C134.448 37.9636 134.722 36.3255 135.113 35.5353C135.503 34.7645 135.62 34.4941 136.264 34.2629C136.908 34.0316 137.123 34.0509 137.123 34.0509C137.125 34.0433 137.165 33.8327 137.868 33.4465C138.04 32.3646 138.236 31.3691 138.47 30.4855C138.821 29.175 142.823 27.171 143.351 26.9972H143.331C142.726 25.7252 142.766 24.8967 143.976 24.8967C143.644 24.0293 143.468 23.1037 143.429 22.0822C143.39 20.9837 144.093 19.9812 145.147 19.6535C145.498 19.5571 146.201 19.3841 147.06 19.4611Z"/>
</mask>
<path fill-rule="evenodd" clip-rule="evenodd" d="M147.06 19.4611C147.919 19.5382 149.051 19.8659 149.246 21.2922L149.52 23.3547L149.266 26.9201C151.53 27.7681 152.917 29.6952 153.405 32.7209L155.221 45.8468C154.909 48.5833 152.898 48.9301 153.093 46.4826L152.117 43.7453C151.355 49.643 150.38 54.8667 148.915 58.4709C149.54 60.0126 149.969 61.6318 149.93 63.5011L151.824 66.797C153.971 66.3152 155.474 67.8952 151.687 69.6105C150.633 71.8654 147.724 71.6917 148.193 68.1261L145.967 63.925C145.147 66.1799 144.19 68.069 142.863 69.0519L142.726 70.3429C147.47 71.3644 144.757 73.4074 141.457 73.4074C137.768 73.099 136.401 72.7713 138.118 69.9191C139.309 67.7027 140.481 65.4665 140.539 63.4621C141.437 61.0724 142.336 58.9912 143.253 57.4494C143.097 55.869 143.117 54.4804 143.546 53.5168C143.628 52.666 141.863 50.3692 141.281 47.7785C141.233 47.7845 141.194 47.7886 141.164 47.7931C140.975 47.822 140.13 47.8833 139.178 47.9767C138.922 49.787 137.647 49.845 137.073 48.1994C136.413 48.246 135.947 48.2052 135.62 47.9474C135.132 47.562 135.132 48.0244 134.761 46.2707C134.39 44.5168 134.097 42.7241 134.273 40.3342C134.448 37.9636 134.722 36.3255 135.113 35.5353C135.503 34.7645 135.62 34.4941 136.264 34.2629C136.908 34.0316 137.123 34.0509 137.123 34.0509C137.125 34.0433 137.165 33.8327 137.868 33.4465C138.04 32.3646 138.236 31.3691 138.47 30.4855C138.821 29.175 142.823 27.171 143.351 26.9972H143.331C142.726 25.7252 142.766 24.8967 143.976 24.8967C143.644 24.0293 143.468 23.1037 143.429 22.0822C143.39 20.9837 144.093 19.9812 145.147 19.6535C145.498 19.5571 146.201 19.3841 147.06 19.4611Z" fill="#4D4D4D" fill-opacity="0.95" shape-rendering="crispEdges"/>
<path d="M147.06 19.4611L147.105 18.9631L147.105 18.9631L147.06 19.4611ZM149.246 21.2922L149.742 21.2264L149.742 21.2244L149.246 21.2922ZM149.52 23.3547L150.019 23.3902L150.022 23.3394L150.016 23.2889L149.52 23.3547ZM149.266 26.9201L148.767 26.8846L148.741 27.2573L149.091 27.3883L149.266 26.9201ZM153.405 32.7209L153.9 32.6523L153.898 32.6412L153.405 32.7209ZM155.221 45.8468L155.718 45.9036L155.725 45.8409L155.716 45.7783L155.221 45.8468ZM153.093 46.4826L153.592 46.5223L153.6 46.4155L153.564 46.3146L153.093 46.4826ZM152.117 43.7453L152.587 43.5773L151.621 43.6813L152.117 43.7453ZM148.915 58.4709L148.452 58.2827L148.376 58.4706L148.452 58.6586L148.915 58.4709ZM149.93 63.5011L149.43 63.4907L149.427 63.6297L149.496 63.7502L149.93 63.5011ZM151.824 66.797L151.39 67.0461L151.574 67.3656L151.933 67.2849L151.824 66.797ZM151.687 69.6105L151.481 69.1551L151.312 69.2313L151.234 69.3988L151.687 69.6105ZM148.193 68.1261L148.688 68.1913L148.709 68.0331L148.635 67.8921L148.193 68.1261ZM145.967 63.925L146.409 63.6909L145.882 62.6961L145.497 63.7541L145.967 63.925ZM142.863 69.0519L142.565 68.6501L142.389 68.7808L142.365 68.9993L142.863 69.0519ZM142.726 70.3429L142.229 70.2903L142.181 70.7371L142.621 70.8317L142.726 70.3429ZM141.457 73.4074L141.416 73.9057L141.436 73.9074H141.457L141.457 73.4074ZM138.118 69.9191L138.547 70.1771L138.553 70.1666L138.559 70.1558L138.118 69.9191ZM140.539 63.4621L140.071 63.2862L140.042 63.3642L140.04 63.4475L140.539 63.4621ZM143.253 57.4494L143.683 57.7051L143.767 57.5638L143.751 57.4002L143.253 57.4494ZM143.546 53.5168L144.003 53.7203L144.036 53.6457L144.044 53.5644L143.546 53.5168ZM141.281 47.7785L141.768 47.6688L141.669 47.2252L141.218 47.2825L141.281 47.7785ZM141.164 47.7931L141.239 48.2875L141.239 48.2875L141.164 47.7931ZM139.178 47.9767L139.129 47.4791L138.738 47.5175L138.683 47.9066L139.178 47.9767ZM137.073 48.1994L137.545 48.0347L137.419 47.6737L137.037 47.7006L137.073 48.1994ZM135.62 47.9474L135.311 48.3398L135.311 48.3399L135.62 47.9474ZM134.761 46.2707L134.272 46.3741H134.272L134.761 46.2707ZM134.273 40.3342L133.774 40.2972L133.774 40.2975L134.273 40.3342ZM135.113 35.5353L134.667 35.3094L134.664 35.3138L135.113 35.5353ZM136.264 34.2629L136.095 33.7923L136.095 33.7923L136.264 34.2629ZM137.123 34.0509L137.079 34.5489L137.545 34.591L137.617 34.1277L137.123 34.0509ZM137.868 33.4465L138.109 33.8848L138.324 33.7668L138.362 33.5245L137.868 33.4465ZM138.47 30.4855L137.987 30.356L137.987 30.3576L138.47 30.4855ZM143.351 26.9972L143.507 27.4721L143.351 26.4972V26.9972ZM143.331 26.9972L142.88 27.212L143.016 27.4972H143.331V26.9972ZM143.976 24.8967V25.3967H144.703L144.443 24.718L143.976 24.8967ZM143.429 22.0822L142.929 22.0999L142.929 22.1013L143.429 22.0822ZM145.147 19.6535L145.015 19.1713L145.006 19.1735L144.998 19.176L145.147 19.6535ZM147.06 19.4611L147.015 19.9591C147.411 19.9947 147.814 20.0849 148.129 20.2898C148.422 20.48 148.673 20.7899 148.751 21.36L149.246 21.2922L149.742 21.2244C149.625 20.3682 149.212 19.8011 148.675 19.4516C148.16 19.1168 147.567 19.0046 147.105 18.9631L147.06 19.4611ZM149.246 21.2922L148.751 21.3579L149.024 23.4204L149.52 23.3547L150.016 23.2889L149.742 21.2264L149.246 21.2922ZM149.52 23.3547L149.021 23.3191L148.767 26.8846L149.266 26.9201L149.765 26.9556L150.019 23.3902L149.52 23.3547ZM149.266 26.9201L149.091 27.3883C151.142 28.1566 152.443 29.8994 152.911 32.8005L153.405 32.7209L153.898 32.6412C153.39 29.4909 151.919 27.3795 149.441 26.4518L149.266 26.9201ZM153.405 32.7209L152.909 32.7894L154.726 45.9154L155.221 45.8468L155.716 45.7783L153.9 32.6523L153.405 32.7209ZM155.221 45.8468L154.724 45.7901C154.653 46.4183 154.486 46.8807 154.301 47.1859C154.11 47.5029 153.93 47.6035 153.851 47.6222C153.819 47.6297 153.808 47.6245 153.803 47.6224C153.796 47.6192 153.765 47.6031 153.725 47.538C153.638 47.3968 153.547 47.0824 153.592 46.5223L153.093 46.4826L152.595 46.4429C152.542 47.1066 152.629 47.6665 152.874 48.0632C153 48.267 153.173 48.4356 153.393 48.5346C153.616 48.6347 153.855 48.649 154.082 48.5952C154.521 48.491 154.89 48.1448 155.157 47.7036C155.431 47.2508 155.633 46.6436 155.718 45.9036L155.221 45.8468ZM153.093 46.4826L153.564 46.3146L152.587 43.5773L152.117 43.7453L151.646 43.9133L152.622 46.6506L153.093 46.4826ZM152.117 43.7453L151.621 43.6813C150.86 49.5768 149.89 54.7438 148.452 58.2827L148.915 58.4709L149.379 58.6591C150.869 54.9897 151.851 49.7091 152.612 43.8093L152.117 43.7453ZM148.915 58.4709L148.452 58.6586C149.06 60.159 149.467 61.7092 149.43 63.4907L149.93 63.5011L150.43 63.5116C150.471 61.5545 150.02 59.8662 149.379 58.2831L148.915 58.4709ZM149.93 63.5011L149.496 63.7502L151.39 67.0461L151.824 66.797L152.257 66.548L150.364 63.2521L149.93 63.5011ZM151.824 66.797L151.933 67.2849C152.406 67.1788 152.817 67.193 153.106 67.2737C153.411 67.3588 153.49 67.4845 153.503 67.5283C153.512 67.5563 153.543 67.7176 153.243 68.0374C152.948 68.3519 152.398 68.7394 151.481 69.1551L151.687 69.6105L151.893 70.066C152.869 69.6239 153.551 69.1707 153.973 68.7216C154.389 68.2778 154.62 67.7526 154.458 67.2313C154.301 66.726 153.838 66.4399 153.375 66.3106C152.897 66.177 152.315 66.1744 151.714 66.3092L151.824 66.797ZM151.687 69.6105L151.234 69.3988C150.772 70.3867 149.986 70.6944 149.494 70.567C149.063 70.4553 148.467 69.877 148.688 68.1913L148.193 68.1261L147.697 68.061C147.45 69.9408 148.074 71.2322 149.243 71.535C150.352 71.8221 151.547 71.0893 152.14 69.8223L151.687 69.6105ZM148.193 68.1261L148.635 67.8921L146.409 63.6909L145.967 63.925L145.525 64.159L147.751 68.3602L148.193 68.1261ZM145.967 63.925L145.497 63.7541C144.678 66.0075 143.761 67.7643 142.565 68.6501L142.863 69.0519L143.16 69.4538C144.619 68.3736 145.617 66.3524 146.437 64.0958L145.967 63.925ZM142.863 69.0519L142.365 68.9993L142.229 70.2903L142.726 70.3429L143.223 70.3956L143.36 69.1046L142.863 69.0519ZM142.726 70.3429L142.621 70.8317C143.789 71.0834 144.396 71.3804 144.653 71.6192C144.771 71.7291 144.78 71.7929 144.781 71.8045C144.782 71.8154 144.783 71.8612 144.714 71.9508C144.557 72.1514 144.173 72.3993 143.561 72.5963C142.97 72.7868 142.234 72.9074 141.457 72.9074L141.457 73.4074L141.457 73.9074C142.331 73.9074 143.171 73.7726 143.868 73.5481C144.545 73.3301 145.161 73.0035 145.502 72.5656C145.681 72.3361 145.806 72.0466 145.777 71.7184C145.749 71.3908 145.576 71.1115 145.333 70.8862C144.868 70.4546 144.035 70.1133 142.831 69.8541L142.726 70.3429ZM141.457 73.4074L141.499 72.9091C140.576 72.832 139.823 72.7553 139.232 72.6423C138.627 72.5265 138.268 72.3852 138.075 72.2288C137.988 72.1583 137.942 72.09 137.916 72.0203C137.889 71.948 137.873 71.8437 137.893 71.6874C137.935 71.3574 138.126 70.8756 138.547 70.1771L138.118 69.9191L137.69 69.6612C137.252 70.3887 136.97 71.0174 136.901 71.5607C136.865 71.841 136.884 72.114 136.979 72.3695C137.075 72.6275 137.238 72.8375 137.445 73.0055C137.841 73.3261 138.408 73.5029 139.044 73.6244C139.693 73.7487 140.494 73.8287 141.416 73.9057L141.457 73.4074ZM138.118 69.9191L138.559 70.1558C139.153 69.0501 139.756 67.9156 140.216 66.8021C140.675 65.6899 141.007 64.5655 141.039 63.4767L140.539 63.4621L140.04 63.4475C140.013 64.3631 139.73 65.359 139.291 66.4201C138.854 67.4799 138.275 68.5717 137.678 69.6825L138.118 69.9191ZM140.539 63.4621L141.007 63.638C141.903 61.2554 142.789 59.2078 143.683 57.7051L143.253 57.4494L142.824 57.1937C141.883 58.7746 140.972 60.8894 140.071 63.2862L140.539 63.4621ZM143.253 57.4494L143.751 57.4002C143.595 55.8231 143.632 54.5531 144.003 53.7203L143.546 53.5168L143.09 53.3132C142.602 54.4078 142.599 55.9148 142.756 57.4986L143.253 57.4494ZM143.546 53.5168L144.044 53.5644C144.063 53.3703 144.027 53.1735 143.978 52.998C143.927 52.8174 143.853 52.6241 143.767 52.4264C143.597 52.0344 143.356 51.568 143.109 51.076C142.606 50.0715 142.045 48.8983 141.768 47.6688L141.281 47.7785L140.793 47.8882C141.099 49.2494 141.712 50.52 142.216 51.5243C142.472 52.0367 142.694 52.4658 142.85 52.8247C142.927 53.0024 142.982 53.1485 143.014 53.2664C143.049 53.3895 143.05 53.4505 143.048 53.4692L143.546 53.5168ZM141.281 47.7785L141.218 47.2825C141.188 47.2863 141.126 47.2932 141.089 47.2988L141.164 47.7931L141.239 48.2875C141.262 48.284 141.279 48.2827 141.344 48.2745L141.281 47.7785ZM141.164 47.7931L141.089 47.2988C140.915 47.3252 140.116 47.3823 139.129 47.4791L139.178 47.9767L139.227 48.4743C140.145 48.3843 141.034 48.3187 141.239 48.2875L141.164 47.7931ZM139.178 47.9767L138.683 47.9066C138.626 48.3084 138.518 48.569 138.412 48.7193C138.309 48.8658 138.23 48.8835 138.203 48.8857C138.173 48.8882 138.087 48.8814 137.955 48.7541C137.823 48.6256 137.671 48.3958 137.545 48.0347L137.073 48.1994L136.6 48.3641C136.762 48.8258 136.984 49.2058 137.26 49.4727C137.537 49.7408 137.893 49.9149 138.286 49.8823C138.681 49.8495 139.005 49.6161 139.231 49.294C139.454 48.9757 139.602 48.5502 139.673 48.0469L139.178 47.9767ZM137.073 48.1994L137.037 47.7006C136.378 47.7472 136.092 47.683 135.93 47.5549L135.62 47.9474L135.311 48.3399C135.802 48.7275 136.449 48.7447 137.108 48.6981L137.073 48.1994ZM135.62 47.9474L135.93 47.5551C135.765 47.4246 135.632 47.3614 135.561 47.3247C135.504 47.2957 135.537 47.3076 135.555 47.3332C135.556 47.3353 135.547 47.3231 135.53 47.281C135.513 47.2386 135.491 47.1756 135.464 47.0809C135.409 46.8899 135.343 46.605 135.25 46.1672L134.761 46.2707L134.272 46.3741C134.365 46.8132 134.437 47.1281 134.502 47.3557C134.565 47.5743 134.633 47.7622 134.739 47.9111C134.864 48.0885 135.011 48.1667 135.104 48.2142C135.181 48.254 135.232 48.2775 135.311 48.3398L135.62 47.9474ZM134.761 46.2707L135.25 46.1672C134.884 44.4349 134.601 42.6941 134.771 40.3708L134.273 40.3342L133.774 40.2975C133.594 42.754 133.896 44.5987 134.272 46.3741L134.761 46.2707ZM134.273 40.3342L134.771 40.3711C134.859 39.1947 134.969 38.2101 135.105 37.4273C135.242 36.6349 135.398 36.0856 135.561 35.7568L135.113 35.5353L134.664 35.3138C134.436 35.7752 134.261 36.4401 134.119 37.2569C133.977 38.0834 133.863 39.1031 133.774 40.2972L134.273 40.3342ZM135.113 35.5353L135.559 35.7612C135.767 35.3498 135.865 35.1535 135.979 35.0143C136.065 34.9099 136.17 34.828 136.433 34.7334L136.264 34.2629L136.095 33.7923C135.714 33.929 135.438 34.0979 135.207 34.3792C135.004 34.6257 134.849 34.95 134.667 35.3094L135.113 35.5353ZM136.264 34.2629L136.433 34.7335C136.735 34.625 136.922 34.5804 137.023 34.5623C137.074 34.5533 137.101 34.5512 137.109 34.5507C137.113 34.5504 137.113 34.5506 137.107 34.5505C137.105 34.5505 137.101 34.5504 137.096 34.5502C137.094 34.5501 137.091 34.5499 137.088 34.5497C137.087 34.5496 137.085 34.5495 137.084 34.5494C137.083 34.5493 137.082 34.5492 137.081 34.5492C137.081 34.5491 137.08 34.5491 137.08 34.549C137.08 34.549 137.079 34.549 137.079 34.549C137.079 34.549 137.079 34.5489 137.123 34.0509C137.168 33.553 137.168 33.5529 137.168 33.5529C137.167 33.5529 137.167 33.5529 137.167 33.5528C137.166 33.5528 137.166 33.5528 137.166 33.5527C137.165 33.5527 137.164 33.5526 137.163 33.5525C137.161 33.5524 137.159 33.5522 137.157 33.5521C137.154 33.5518 137.15 33.5516 137.145 33.5514C137.137 33.551 137.128 33.5507 137.118 33.5506C137.099 33.5504 137.076 33.5509 137.05 33.5524C136.998 33.5555 136.931 33.5629 136.847 33.578C136.679 33.6081 136.437 33.6695 136.095 33.7923L136.264 34.2629ZM137.123 34.0509L137.617 34.1277C137.598 34.2555 137.541 34.2906 137.593 34.2376C137.644 34.1842 137.783 34.0634 138.109 33.8848L137.868 33.4465L137.628 33.0081C136.905 33.405 136.669 33.7176 136.629 33.9742L137.123 34.0509ZM137.868 33.4465L138.362 33.5245C138.532 32.4532 138.725 31.4755 138.953 30.6135L138.47 30.4855L137.987 30.3576C137.747 31.2628 137.547 32.2759 137.375 33.3684L137.868 33.4465ZM138.47 30.4855L138.953 30.615C138.972 30.5438 139.028 30.4312 139.15 30.2784C139.269 30.1294 139.432 29.9651 139.634 29.79C140.038 29.4397 140.563 29.0768 141.107 28.7404C141.649 28.4054 142.198 28.1042 142.643 27.8764C143.101 27.6418 143.418 27.5017 143.507 27.4721L143.351 26.9972L143.195 26.5223C143.02 26.5796 142.639 26.7552 142.187 26.9862C141.723 27.224 141.15 27.5383 140.581 27.8899C140.015 28.24 139.441 28.6346 138.979 29.0341C138.749 29.2339 138.537 29.4425 138.368 29.6546C138.202 29.8629 138.056 30.0997 137.987 30.356L138.47 30.4855ZM143.351 26.9972V26.4972H143.331V26.9972V27.4972H143.351V26.9972ZM143.331 26.9972L143.783 26.7824C143.64 26.4826 143.544 26.226 143.492 26.014C143.44 25.7976 143.442 25.6609 143.46 25.5836C143.473 25.5253 143.494 25.5001 143.535 25.476C143.593 25.4414 143.722 25.3967 143.976 25.3967V24.8967V24.3967C143.624 24.3967 143.295 24.4555 143.024 24.616C142.736 24.787 142.558 25.0484 142.486 25.3562C142.418 25.6451 142.448 25.954 142.521 26.2507C142.594 26.5519 142.72 26.8759 142.88 27.212L143.331 26.9972ZM143.976 24.8967L144.443 24.718C144.133 23.9084 143.966 23.0376 143.929 22.0631L143.429 22.0822L142.929 22.1013C142.97 23.1698 143.155 24.1503 143.509 25.0753L143.976 24.8967ZM143.429 22.0822L143.929 22.0645C143.898 21.1892 144.459 20.391 145.295 20.1309L145.147 19.6535L144.998 19.176C143.727 19.5713 142.882 20.7782 142.929 22.0999L143.429 22.0822ZM145.147 19.6535L145.279 20.1357C145.61 20.045 146.245 19.89 147.015 19.9591L147.06 19.4611L147.105 18.9631C146.157 18.8782 145.387 19.0693 145.015 19.1713L145.147 19.6535Z" fill="url(#paint14_linear_7647_1703)" fill-opacity="0.2" mask="url(#path-28-inside-2_7647_1703)"/>
<path d="M147.06 19.4611L147.105 18.9631L147.105 18.9631L147.06 19.4611ZM149.246 21.2922L149.742 21.2264L149.742 21.2244L149.246 21.2922ZM149.52 23.3547L150.019 23.3902L150.022 23.3394L150.016 23.2889L149.52 23.3547ZM149.266 26.9201L148.767 26.8846L148.741 27.2573L149.091 27.3883L149.266 26.9201ZM153.405 32.7209L153.9 32.6523L153.898 32.6412L153.405 32.7209ZM155.221 45.8468L155.718 45.9036L155.725 45.8409L155.716 45.7783L155.221 45.8468ZM153.093 46.4826L153.592 46.5223L153.6 46.4155L153.564 46.3146L153.093 46.4826ZM152.117 43.7453L152.587 43.5773L151.621 43.6813L152.117 43.7453ZM148.915 58.4709L148.452 58.2827L148.376 58.4706L148.452 58.6586L148.915 58.4709ZM149.93 63.5011L149.43 63.4907L149.427 63.6297L149.496 63.7502L149.93 63.5011ZM151.824 66.797L151.39 67.0461L151.574 67.3656L151.933 67.2849L151.824 66.797ZM151.687 69.6105L151.481 69.1551L151.312 69.2313L151.234 69.3988L151.687 69.6105ZM148.193 68.1261L148.688 68.1913L148.709 68.0331L148.635 67.8921L148.193 68.1261ZM145.967 63.925L146.409 63.6909L145.882 62.6961L145.497 63.7541L145.967 63.925ZM142.863 69.0519L142.565 68.6501L142.389 68.7808L142.365 68.9993L142.863 69.0519ZM142.726 70.3429L142.229 70.2903L142.181 70.7371L142.621 70.8317L142.726 70.3429ZM141.457 73.4074L141.416 73.9057L141.436 73.9074H141.457L141.457 73.4074ZM138.118 69.9191L138.547 70.1771L138.553 70.1666L138.559 70.1558L138.118 69.9191ZM140.539 63.4621L140.071 63.2862L140.042 63.3642L140.04 63.4475L140.539 63.4621ZM143.253 57.4494L143.683 57.7051L143.767 57.5638L143.751 57.4002L143.253 57.4494ZM143.546 53.5168L144.003 53.7203L144.036 53.6457L144.044 53.5644L143.546 53.5168ZM141.281 47.7785L141.768 47.6688L141.669 47.2252L141.218 47.2825L141.281 47.7785ZM141.164 47.7931L141.239 48.2875L141.239 48.2875L141.164 47.7931ZM139.178 47.9767L139.129 47.4791L138.738 47.5175L138.683 47.9066L139.178 47.9767ZM137.073 48.1994L137.545 48.0347L137.419 47.6737L137.037 47.7006L137.073 48.1994ZM135.62 47.9474L135.311 48.3398L135.311 48.3399L135.62 47.9474ZM134.761 46.2707L134.272 46.3741H134.272L134.761 46.2707ZM134.273 40.3342L133.774 40.2972L133.774 40.2975L134.273 40.3342ZM135.113 35.5353L134.667 35.3094L134.664 35.3138L135.113 35.5353ZM136.264 34.2629L136.095 33.7923L136.095 33.7923L136.264 34.2629ZM137.123 34.0509L137.079 34.5489L137.545 34.591L137.617 34.1277L137.123 34.0509ZM137.868 33.4465L138.109 33.8848L138.324 33.7668L138.362 33.5245L137.868 33.4465ZM138.47 30.4855L137.987 30.356L137.987 30.3576L138.47 30.4855ZM143.351 26.9972L143.507 27.4721L143.351 26.4972V26.9972ZM143.331 26.9972L142.88 27.212L143.016 27.4972H143.331V26.9972ZM143.976 24.8967V25.3967H144.703L144.443 24.718L143.976 24.8967ZM143.429 22.0822L142.929 22.0999L142.929 22.1013L143.429 22.0822ZM145.147 19.6535L145.015 19.1713L145.006 19.1735L144.998 19.176L145.147 19.6535ZM147.06 19.4611L147.015 19.9591C147.411 19.9947 147.814 20.0849 148.129 20.2898C148.422 20.48 148.673 20.7899 148.751 21.36L149.246 21.2922L149.742 21.2244C149.625 20.3682 149.212 19.8011 148.675 19.4516C148.16 19.1168 147.567 19.0046 147.105 18.9631L147.06 19.4611ZM149.246 21.2922L148.751 21.3579L149.024 23.4204L149.52 23.3547L150.016 23.2889L149.742 21.2264L149.246 21.2922ZM149.52 23.3547L149.021 23.3191L148.767 26.8846L149.266 26.9201L149.765 26.9556L150.019 23.3902L149.52 23.3547ZM149.266 26.9201L149.091 27.3883C151.142 28.1566 152.443 29.8994 152.911 32.8005L153.405 32.7209L153.898 32.6412C153.39 29.4909 151.919 27.3795 149.441 26.4518L149.266 26.9201ZM153.405 32.7209L152.909 32.7894L154.726 45.9154L155.221 45.8468L155.716 45.7783L153.9 32.6523L153.405 32.7209ZM155.221 45.8468L154.724 45.7901C154.653 46.4183 154.486 46.8807 154.301 47.1859C154.11 47.5029 153.93 47.6035 153.851 47.6222C153.819 47.6297 153.808 47.6245 153.803 47.6224C153.796 47.6192 153.765 47.6031 153.725 47.538C153.638 47.3968 153.547 47.0824 153.592 46.5223L153.093 46.4826L152.595 46.4429C152.542 47.1066 152.629 47.6665 152.874 48.0632C153 48.267 153.173 48.4356 153.393 48.5346C153.616 48.6347 153.855 48.649 154.082 48.5952C154.521 48.491 154.89 48.1448 155.157 47.7036C155.431 47.2508 155.633 46.6436 155.718 45.9036L155.221 45.8468ZM153.093 46.4826L153.564 46.3146L152.587 43.5773L152.117 43.7453L151.646 43.9133L152.622 46.6506L153.093 46.4826ZM152.117 43.7453L151.621 43.6813C150.86 49.5768 149.89 54.7438 148.452 58.2827L148.915 58.4709L149.379 58.6591C150.869 54.9897 151.851 49.7091 152.612 43.8093L152.117 43.7453ZM148.915 58.4709L148.452 58.6586C149.06 60.159 149.467 61.7092 149.43 63.4907L149.93 63.5011L150.43 63.5116C150.471 61.5545 150.02 59.8662 149.379 58.2831L148.915 58.4709ZM149.93 63.5011L149.496 63.7502L151.39 67.0461L151.824 66.797L152.257 66.548L150.364 63.2521L149.93 63.5011ZM151.824 66.797L151.933 67.2849C152.406 67.1788 152.817 67.193 153.106 67.2737C153.411 67.3588 153.49 67.4845 153.503 67.5283C153.512 67.5563 153.543 67.7176 153.243 68.0374C152.948 68.3519 152.398 68.7394 151.481 69.1551L151.687 69.6105L151.893 70.066C152.869 69.6239 153.551 69.1707 153.973 68.7216C154.389 68.2778 154.62 67.7526 154.458 67.2313C154.301 66.726 153.838 66.4399 153.375 66.3106C152.897 66.177 152.315 66.1744 151.714 66.3092L151.824 66.797ZM151.687 69.6105L151.234 69.3988C150.772 70.3867 149.986 70.6944 149.494 70.567C149.063 70.4553 148.467 69.877 148.688 68.1913L148.193 68.1261L147.697 68.061C147.45 69.9408 148.074 71.2322 149.243 71.535C150.352 71.8221 151.547 71.0893 152.14 69.8223L151.687 69.6105ZM148.193 68.1261L148.635 67.8921L146.409 63.6909L145.967 63.925L145.525 64.159L147.751 68.3602L148.193 68.1261ZM145.967 63.925L145.497 63.7541C144.678 66.0075 143.761 67.7643 142.565 68.6501L142.863 69.0519L143.16 69.4538C144.619 68.3736 145.617 66.3524 146.437 64.0958L145.967 63.925ZM142.863 69.0519L142.365 68.9993L142.229 70.2903L142.726 70.3429L143.223 70.3956L143.36 69.1046L142.863 69.0519ZM142.726 70.3429L142.621 70.8317C143.789 71.0834 144.396 71.3804 144.653 71.6192C144.771 71.7291 144.78 71.7929 144.781 71.8045C144.782 71.8154 144.783 71.8612 144.714 71.9508C144.557 72.1514 144.173 72.3993 143.561 72.5963C142.97 72.7868 142.234 72.9074 141.457 72.9074L141.457 73.4074L141.457 73.9074C142.331 73.9074 143.171 73.7726 143.868 73.5481C144.545 73.3301 145.161 73.0035 145.502 72.5656C145.681 72.3361 145.806 72.0466 145.777 71.7184C145.749 71.3908 145.576 71.1115 145.333 70.8862C144.868 70.4546 144.035 70.1133 142.831 69.8541L142.726 70.3429ZM141.457 73.4074L141.499 72.9091C140.576 72.832 139.823 72.7553 139.232 72.6423C138.627 72.5265 138.268 72.3852 138.075 72.2288C137.988 72.1583 137.942 72.09 137.916 72.0203C137.889 71.948 137.873 71.8437 137.893 71.6874C137.935 71.3574 138.126 70.8756 138.547 70.1771L138.118 69.9191L137.69 69.6612C137.252 70.3887 136.97 71.0174 136.901 71.5607C136.865 71.841 136.884 72.114 136.979 72.3695C137.075 72.6275 137.238 72.8375 137.445 73.0055C137.841 73.3261 138.408 73.5029 139.044 73.6244C139.693 73.7487 140.494 73.8287 141.416 73.9057L141.457 73.4074ZM138.118 69.9191L138.559 70.1558C139.153 69.0501 139.756 67.9156 140.216 66.8021C140.675 65.6899 141.007 64.5655 141.039 63.4767L140.539 63.4621L140.04 63.4475C140.013 64.3631 139.73 65.359 139.291 66.4201C138.854 67.4799 138.275 68.5717 137.678 69.6825L138.118 69.9191ZM140.539 63.4621L141.007 63.638C141.903 61.2554 142.789 59.2078 143.683 57.7051L143.253 57.4494L142.824 57.1937C141.883 58.7746 140.972 60.8894 140.071 63.2862L140.539 63.4621ZM143.253 57.4494L143.751 57.4002C143.595 55.8231 143.632 54.5531 144.003 53.7203L143.546 53.5168L143.09 53.3132C142.602 54.4078 142.599 55.9148 142.756 57.4986L143.253 57.4494ZM143.546 53.5168L144.044 53.5644C144.063 53.3703 144.027 53.1735 143.978 52.998C143.927 52.8174 143.853 52.6241 143.767 52.4264C143.597 52.0344 143.356 51.568 143.109 51.076C142.606 50.0715 142.045 48.8983 141.768 47.6688L141.281 47.7785L140.793 47.8882C141.099 49.2494 141.712 50.52 142.216 51.5243C142.472 52.0367 142.694 52.4658 142.85 52.8247C142.927 53.0024 142.982 53.1485 143.014 53.2664C143.049 53.3895 143.05 53.4505 143.048 53.4692L143.546 53.5168ZM141.281 47.7785L141.218 47.2825C141.188 47.2863 141.126 47.2932 141.089 47.2988L141.164 47.7931L141.239 48.2875C141.262 48.284 141.279 48.2827 141.344 48.2745L141.281 47.7785ZM141.164 47.7931L141.089 47.2988C140.915 47.3252 140.116 47.3823 139.129 47.4791L139.178 47.9767L139.227 48.4743C140.145 48.3843 141.034 48.3187 141.239 48.2875L141.164 47.7931ZM139.178 47.9767L138.683 47.9066C138.626 48.3084 138.518 48.569 138.412 48.7193C138.309 48.8658 138.23 48.8835 138.203 48.8857C138.173 48.8882 138.087 48.8814 137.955 48.7541C137.823 48.6256 137.671 48.3958 137.545 48.0347L137.073 48.1994L136.6 48.3641C136.762 48.8258 136.984 49.2058 137.26 49.4727C137.537 49.7408 137.893 49.9149 138.286 49.8823C138.681 49.8495 139.005 49.6161 139.231 49.294C139.454 48.9757 139.602 48.5502 139.673 48.0469L139.178 47.9767ZM137.073 48.1994L137.037 47.7006C136.378 47.7472 136.092 47.683 135.93 47.5549L135.62 47.9474L135.311 48.3399C135.802 48.7275 136.449 48.7447 137.108 48.6981L137.073 48.1994ZM135.62 47.9474L135.93 47.5551C135.765 47.4246 135.632 47.3614 135.561 47.3247C135.504 47.2957 135.537 47.3076 135.555 47.3332C135.556 47.3353 135.547 47.3231 135.53 47.281C135.513 47.2386 135.491 47.1756 135.464 47.0809C135.409 46.8899 135.343 46.605 135.25 46.1672L134.761 46.2707L134.272 46.3741C134.365 46.8132 134.437 47.1281 134.502 47.3557C134.565 47.5743 134.633 47.7622 134.739 47.9111C134.864 48.0885 135.011 48.1667 135.104 48.2142C135.181 48.254 135.232 48.2775 135.311 48.3398L135.62 47.9474ZM134.761 46.2707L135.25 46.1672C134.884 44.4349 134.601 42.6941 134.771 40.3708L134.273 40.3342L133.774 40.2975C133.594 42.754 133.896 44.5987 134.272 46.3741L134.761 46.2707ZM134.273 40.3342L134.771 40.3711C134.859 39.1947 134.969 38.2101 135.105 37.4273C135.242 36.6349 135.398 36.0856 135.561 35.7568L135.113 35.5353L134.664 35.3138C134.436 35.7752 134.261 36.4401 134.119 37.2569C133.977 38.0834 133.863 39.1031 133.774 40.2972L134.273 40.3342ZM135.113 35.5353L135.559 35.7612C135.767 35.3498 135.865 35.1535 135.979 35.0143C136.065 34.9099 136.17 34.828 136.433 34.7334L136.264 34.2629L136.095 33.7923C135.714 33.929 135.438 34.0979 135.207 34.3792C135.004 34.6257 134.849 34.95 134.667 35.3094L135.113 35.5353ZM136.264 34.2629L136.433 34.7335C136.735 34.625 136.922 34.5804 137.023 34.5623C137.074 34.5533 137.101 34.5512 137.109 34.5507C137.113 34.5504 137.113 34.5506 137.107 34.5505C137.105 34.5505 137.101 34.5504 137.096 34.5502C137.094 34.5501 137.091 34.5499 137.088 34.5497C137.087 34.5496 137.085 34.5495 137.084 34.5494C137.083 34.5493 137.082 34.5492 137.081 34.5492C137.081 34.5491 137.08 34.5491 137.08 34.549C137.08 34.549 137.079 34.549 137.079 34.549C137.079 34.549 137.079 34.5489 137.123 34.0509C137.168 33.553 137.168 33.5529 137.168 33.5529C137.167 33.5529 137.167 33.5529 137.167 33.5528C137.166 33.5528 137.166 33.5528 137.166 33.5527C137.165 33.5527 137.164 33.5526 137.163 33.5525C137.161 33.5524 137.159 33.5522 137.157 33.5521C137.154 33.5518 137.15 33.5516 137.145 33.5514C137.137 33.551 137.128 33.5507 137.118 33.5506C137.099 33.5504 137.076 33.5509 137.05 33.5524C136.998 33.5555 136.931 33.5629 136.847 33.578C136.679 33.6081 136.437 33.6695 136.095 33.7923L136.264 34.2629ZM137.123 34.0509L137.617 34.1277C137.598 34.2555 137.541 34.2906 137.593 34.2376C137.644 34.1842 137.783 34.0634 138.109 33.8848L137.868 33.4465L137.628 33.0081C136.905 33.405 136.669 33.7176 136.629 33.9742L137.123 34.0509ZM137.868 33.4465L138.362 33.5245C138.532 32.4532 138.725 31.4755 138.953 30.6135L138.47 30.4855L137.987 30.3576C137.747 31.2628 137.547 32.2759 137.375 33.3684L137.868 33.4465ZM138.47 30.4855L138.953 30.615C138.972 30.5438 139.028 30.4312 139.15 30.2784C139.269 30.1294 139.432 29.9651 139.634 29.79C140.038 29.4397 140.563 29.0768 141.107 28.7404C141.649 28.4054 142.198 28.1042 142.643 27.8764C143.101 27.6418 143.418 27.5017 143.507 27.4721L143.351 26.9972L143.195 26.5223C143.02 26.5796 142.639 26.7552 142.187 26.9862C141.723 27.224 141.15 27.5383 140.581 27.8899C140.015 28.24 139.441 28.6346 138.979 29.0341C138.749 29.2339 138.537 29.4425 138.368 29.6546C138.202 29.8629 138.056 30.0997 137.987 30.356L138.47 30.4855ZM143.351 26.9972V26.4972H143.331V26.9972V27.4972H143.351V26.9972ZM143.331 26.9972L143.783 26.7824C143.64 26.4826 143.544 26.226 143.492 26.014C143.44 25.7976 143.442 25.6609 143.46 25.5836C143.473 25.5253 143.494 25.5001 143.535 25.476C143.593 25.4414 143.722 25.3967 143.976 25.3967V24.8967V24.3967C143.624 24.3967 143.295 24.4555 143.024 24.616C142.736 24.787 142.558 25.0484 142.486 25.3562C142.418 25.6451 142.448 25.954 142.521 26.2507C142.594 26.5519 142.72 26.8759 142.88 27.212L143.331 26.9972ZM143.976 24.8967L144.443 24.718C144.133 23.9084 143.966 23.0376 143.929 22.0631L143.429 22.0822L142.929 22.1013C142.97 23.1698 143.155 24.1503 143.509 25.0753L143.976 24.8967ZM143.429 22.0822L143.929 22.0645C143.898 21.1892 144.459 20.391 145.295 20.1309L145.147 19.6535L144.998 19.176C143.727 19.5713 142.882 20.7782 142.929 22.0999L143.429 22.0822ZM145.147 19.6535L145.279 20.1357C145.61 20.045 146.245 19.89 147.015 19.9591L147.06 19.4611L147.105 18.9631C146.157 18.8782 145.387 19.0693 145.015 19.1713L145.147 19.6535Z" fill="white" fill-opacity="0.4" mask="url(#path-28-inside-2_7647_1703)"/>
</g>
<g filter="url(#filter8_dd_7647_1703)">
<mask id="path-30-inside-3_7647_1703" fill="white">
<path d="M91.2879 52.4887C91.3031 52.4937 91.3145 52.5063 91.3181 52.5219C91.76 54.4629 92.1078 56.4038 92.4556 58.3448C92.7732 60.1683 92.805 60.1683 91.0583 60.7343C90.4867 60.9229 90.2961 61.1744 90.2008 61.7718C89.9468 63.9412 89.7562 66.1735 89.1528 68.2801C88.2636 71.2355 88.1048 74.3167 87.3109 77.2722C87.1204 77.9324 86.9616 78.5927 86.7075 79.2215C85.6277 81.7682 86.1041 84.4093 86.1041 87.0188C86.1041 87.3333 85.9771 87.5848 85.9136 87.8678C85.5007 89.597 85.3737 91.3262 86.1041 93.0241C86.2629 93.4013 86.2311 93.7786 86.2629 94.1559C86.2947 94.4703 86.2629 94.7533 86.7075 94.8476C86.9298 94.9105 87.0886 95.1306 87.0568 95.3821C86.9933 95.9481 87.2791 96.1996 87.819 96.2625C87.861 96.2625 87.9026 96.2692 87.9409 96.2865C88.9288 96.7311 89.6817 99.0462 89.1211 99.9096C89.0463 100.008 88.9715 100.146 88.8966 100.216C88.8607 100.249 88.8107 100.259 88.7627 100.269C87.5331 100.523 86.7125 101.731 85.3419 101.607C84.5162 101.545 83.6588 101.576 82.8013 101.482C82.0391 101.419 81.8486 100.947 81.8804 100.35C81.8804 100.067 82.0074 99.8153 82.1027 99.5638C82.8013 97.9917 82.6108 96.3882 82.325 94.7533C82.1662 93.9358 82.0074 93.1184 81.7533 92.3324C81.6898 92.1123 81.5945 91.8922 81.4675 91.735C81.1499 91.3891 80.8641 91.169 80.5148 91.8293C79.8161 93.2127 78.8316 94.4703 78.3235 95.9166C77.9424 97.017 77.1167 98.086 77.4343 99.4065C77.6248 100.13 78.1647 101.765 78.6728 102.393C78.8951 102.708 79.1175 103.022 79.2445 103.368C79.4033 103.84 79.3715 104.248 78.7681 104.563C77.4025 105.255 76.0052 104.972 74.6396 104.752C73.7504 104.626 72.8612 104.343 71.9402 104.248C71.4004 104.186 71.1781 103.871 71.1781 103.4C71.1781 102.834 71.1781 102.236 71.5274 101.733C71.845 101.262 71.7815 100.664 71.8767 100.098C72.0673 99.2494 72.4801 98.5576 73.1788 98.0232C73.2741 97.9603 73.4011 97.866 73.4329 97.7402C73.8775 95.5708 75.243 93.6529 75.3383 91.3577C75.4018 89.5341 75.6241 87.6791 76.291 86.0127C77.3073 83.4346 76.7992 80.9508 76.164 78.4355C74.8302 73.3735 73.4011 68.3115 72.0355 63.2495C71.8767 62.6522 71.972 61.9919 71.051 61.8661C70.8287 61.8347 70.4159 61.2688 70.1936 60.8915C69.9713 60.5142 70.0666 60.0426 70.1936 59.6338C70.4494 58.8351 70.5833 58.0244 70.5952 57.1791C70.6045 56.5269 69.8577 56.3451 69.7807 56.9928C69.6219 58.3762 69.3044 59.7282 68.7645 61.0487C68.5422 61.6146 68.2246 62.2434 69.1773 62.5578C69.4314 62.6522 69.4632 62.9666 69.4632 63.2181C69.3996 64.4128 69.6219 65.6076 69.3679 66.7709C69.2091 67.4941 69.3679 68.2486 69.6219 68.9403C69.876 69.632 70.003 70.2923 70.003 71.0154C70.003 73.7508 70.797 76.3604 70.9875 79.0643C71.051 79.7874 71.0828 80.4791 70.8605 81.2337C70.6064 81.9883 71.051 82.7743 71.1146 83.5603C71.2098 84.5036 70.9875 84.7551 70.0348 84.8809C68.5104 85.0381 67.2719 84.2835 65.9381 83.7804C65.0806 83.466 64.2549 83.0259 63.3975 82.7114C62.9529 82.5542 62.7941 82.3027 62.8893 81.8311C62.9846 81.328 63.0164 80.825 63.0481 80.3219C63.0481 79.9491 63.1802 79.524 62.7456 79.309C62.6549 79.2642 62.5445 79.2406 62.5019 79.1489C62.4613 79.0615 62.4316 78.9366 62.413 78.8442C62.3177 78.2783 62.3495 77.7123 61.9366 77.2407C61.7461 77.0206 61.9366 76.7377 62.0319 76.4547C62.2224 75.8573 62.4765 75.1656 61.6826 74.7255C61.365 74.5368 61.2697 74.1595 61.2697 73.8766C61.2697 72.1159 61.1109 70.3237 61.365 68.563C61.4603 67.8399 61.8096 67.274 62.5083 66.991C62.7941 66.8967 62.9529 66.6766 63.0799 66.3936C63.2387 66.0792 63.3657 65.7334 63.588 65.4504C64.6152 64.2793 64.6051 62.927 64.365 61.5119C64.3553 61.4547 64.3515 61.3963 64.3391 61.3397C64.316 61.2343 64.2689 61.1223 64.3184 61.0487C64.9853 59.9168 64.636 58.5648 65.1441 57.3701C65.6205 56.3325 65.5887 55.1063 65.7158 53.943C65.9063 51.9937 66.7955 50.2016 67.1766 48.2837C67.8435 45.0138 68.5739 41.8069 69.1138 38.5056C69.3044 37.3423 69.6219 36.1789 70.1301 35.0785C70.7335 33.7894 71.6544 32.9091 73.02 32.4375C73.8457 32.1545 74.7032 32.0287 75.4018 31.3685C75.7512 31.0226 76.5133 31.1484 77.085 31.0226C77.8154 30.8654 77.6248 30.1423 77.8472 29.7021C78.1012 29.2305 77.5931 29.2934 77.4025 29.1991C76.1958 28.5388 75.7194 27.5641 75.7829 26.2436C75.7829 25.8034 75.7829 25.3004 75.5924 24.8917C75.1478 23.9799 75.3065 23.0995 75.6559 22.2506C76.0052 21.4017 76.0687 20.4899 76.4181 19.641C77.0532 17.9747 78.3553 17.0314 80.2607 17C81.8168 17 83.4365 17 84.675 17.8803C85.7548 18.6664 86.7393 19.7354 86.8345 21.2445C87.0251 23.8541 86.4217 26.3379 85.5007 28.7903C85.3737 29.1362 85.1831 29.3563 84.8973 29.5449C84.3892 29.8593 84.2939 30.4253 84.1987 30.9283C84.1669 31.2427 84.2304 31.6829 84.8338 31.7143C86.1041 31.8401 87.3744 32.0287 88.5494 32.5947C89.2799 32.9405 89.8197 33.4121 90.1691 34.1353C91.5029 36.965 92.6779 39.8575 93.2496 42.9387C93.4083 43.7562 93.7894 44.5108 94.1705 45.2654C95.5679 47.9064 96.9652 50.5474 98.2673 53.2513C98.9342 54.6662 99.5693 56.1125 100.268 57.5273C100.427 57.8731 100.554 58.219 100.935 58.4076C101.157 58.502 101.221 58.7535 101.221 59.005C101.221 59.4766 101.221 59.9797 101.189 60.4513C101.189 60.9229 100.998 61.3316 100.586 61.6146C100.236 61.8661 100.046 62.2749 99.7599 62.5893C99.5376 62.8408 99.22 63.0609 98.8706 62.8722C98.5531 62.6836 98.8706 62.4006 98.9342 62.1805C99.2517 61.0801 99.1882 60.9544 98.1402 60.4199C97.7591 60.2312 97.3463 59.9797 97.2193 59.5395C97.0287 58.8164 96.5523 58.2819 96.076 57.7788C94.5516 56.1439 93.059 54.4461 91.6299 52.7168C91.559 52.6233 91.5057 52.5123 91.4569 52.4098C91.4329 52.3594 91.3656 52.347 91.3209 52.3804C91.305 52.3922 91.2891 52.4039 91.2732 52.4163C91.2464 52.4374 91.2555 52.478 91.2879 52.4887Z"/>
</mask>
<path d="M91.2879 52.4887C91.3031 52.4937 91.3145 52.5063 91.3181 52.5219C91.76 54.4629 92.1078 56.4038 92.4556 58.3448C92.7732 60.1683 92.805 60.1683 91.0583 60.7343C90.4867 60.9229 90.2961 61.1744 90.2008 61.7718C89.9468 63.9412 89.7562 66.1735 89.1528 68.2801C88.2636 71.2355 88.1048 74.3167 87.3109 77.2722C87.1204 77.9324 86.9616 78.5927 86.7075 79.2215C85.6277 81.7682 86.1041 84.4093 86.1041 87.0188C86.1041 87.3333 85.9771 87.5848 85.9136 87.8678C85.5007 89.597 85.3737 91.3262 86.1041 93.0241C86.2629 93.4013 86.2311 93.7786 86.2629 94.1559C86.2947 94.4703 86.2629 94.7533 86.7075 94.8476C86.9298 94.9105 87.0886 95.1306 87.0568 95.3821C86.9933 95.9481 87.2791 96.1996 87.819 96.2625C87.861 96.2625 87.9026 96.2692 87.9409 96.2865C88.9288 96.7311 89.6817 99.0462 89.1211 99.9096C89.0463 100.008 88.9715 100.146 88.8966 100.216C88.8607 100.249 88.8107 100.259 88.7627 100.269C87.5331 100.523 86.7125 101.731 85.3419 101.607C84.5162 101.545 83.6588 101.576 82.8013 101.482C82.0391 101.419 81.8486 100.947 81.8804 100.35C81.8804 100.067 82.0074 99.8153 82.1027 99.5638C82.8013 97.9917 82.6108 96.3882 82.325 94.7533C82.1662 93.9358 82.0074 93.1184 81.7533 92.3324C81.6898 92.1123 81.5945 91.8922 81.4675 91.735C81.1499 91.3891 80.8641 91.169 80.5148 91.8293C79.8161 93.2127 78.8316 94.4703 78.3235 95.9166C77.9424 97.017 77.1167 98.086 77.4343 99.4065C77.6248 100.13 78.1647 101.765 78.6728 102.393C78.8951 102.708 79.1175 103.022 79.2445 103.368C79.4033 103.84 79.3715 104.248 78.7681 104.563C77.4025 105.255 76.0052 104.972 74.6396 104.752C73.7504 104.626 72.8612 104.343 71.9402 104.248C71.4004 104.186 71.1781 103.871 71.1781 103.4C71.1781 102.834 71.1781 102.236 71.5274 101.733C71.845 101.262 71.7815 100.664 71.8767 100.098C72.0673 99.2494 72.4801 98.5576 73.1788 98.0232C73.2741 97.9603 73.4011 97.866 73.4329 97.7402C73.8775 95.5708 75.243 93.6529 75.3383 91.3577C75.4018 89.5341 75.6241 87.6791 76.291 86.0127C77.3073 83.4346 76.7992 80.9508 76.164 78.4355C74.8302 73.3735 73.4011 68.3115 72.0355 63.2495C71.8767 62.6522 71.972 61.9919 71.051 61.8661C70.8287 61.8347 70.4159 61.2688 70.1936 60.8915C69.9713 60.5142 70.0666 60.0426 70.1936 59.6338C70.4494 58.8351 70.5833 58.0244 70.5952 57.1791C70.6045 56.5269 69.8577 56.3451 69.7807 56.9928C69.6219 58.3762 69.3044 59.7282 68.7645 61.0487C68.5422 61.6146 68.2246 62.2434 69.1773 62.5578C69.4314 62.6522 69.4632 62.9666 69.4632 63.2181C69.3996 64.4128 69.6219 65.6076 69.3679 66.7709C69.2091 67.4941 69.3679 68.2486 69.6219 68.9403C69.876 69.632 70.003 70.2923 70.003 71.0154C70.003 73.7508 70.797 76.3604 70.9875 79.0643C71.051 79.7874 71.0828 80.4791 70.8605 81.2337C70.6064 81.9883 71.051 82.7743 71.1146 83.5603C71.2098 84.5036 70.9875 84.7551 70.0348 84.8809C68.5104 85.0381 67.2719 84.2835 65.9381 83.7804C65.0806 83.466 64.2549 83.0259 63.3975 82.7114C62.9529 82.5542 62.7941 82.3027 62.8893 81.8311C62.9846 81.328 63.0164 80.825 63.0481 80.3219C63.0481 79.9491 63.1802 79.524 62.7456 79.309C62.6549 79.2642 62.5445 79.2406 62.5019 79.1489C62.4613 79.0615 62.4316 78.9366 62.413 78.8442C62.3177 78.2783 62.3495 77.7123 61.9366 77.2407C61.7461 77.0206 61.9366 76.7377 62.0319 76.4547C62.2224 75.8573 62.4765 75.1656 61.6826 74.7255C61.365 74.5368 61.2697 74.1595 61.2697 73.8766C61.2697 72.1159 61.1109 70.3237 61.365 68.563C61.4603 67.8399 61.8096 67.274 62.5083 66.991C62.7941 66.8967 62.9529 66.6766 63.0799 66.3936C63.2387 66.0792 63.3657 65.7334 63.588 65.4504C64.6152 64.2793 64.6051 62.927 64.365 61.5119C64.3553 61.4547 64.3515 61.3963 64.3391 61.3397C64.316 61.2343 64.2689 61.1223 64.3184 61.0487C64.9853 59.9168 64.636 58.5648 65.1441 57.3701C65.6205 56.3325 65.5887 55.1063 65.7158 53.943C65.9063 51.9937 66.7955 50.2016 67.1766 48.2837C67.8435 45.0138 68.5739 41.8069 69.1138 38.5056C69.3044 37.3423 69.6219 36.1789 70.1301 35.0785C70.7335 33.7894 71.6544 32.9091 73.02 32.4375C73.8457 32.1545 74.7032 32.0287 75.4018 31.3685C75.7512 31.0226 76.5133 31.1484 77.085 31.0226C77.8154 30.8654 77.6248 30.1423 77.8472 29.7021C78.1012 29.2305 77.5931 29.2934 77.4025 29.1991C76.1958 28.5388 75.7194 27.5641 75.7829 26.2436C75.7829 25.8034 75.7829 25.3004 75.5924 24.8917C75.1478 23.9799 75.3065 23.0995 75.6559 22.2506C76.0052 21.4017 76.0687 20.4899 76.4181 19.641C77.0532 17.9747 78.3553 17.0314 80.2607 17C81.8168 17 83.4365 17 84.675 17.8803C85.7548 18.6664 86.7393 19.7354 86.8345 21.2445C87.0251 23.8541 86.4217 26.3379 85.5007 28.7903C85.3737 29.1362 85.1831 29.3563 84.8973 29.5449C84.3892 29.8593 84.2939 30.4253 84.1987 30.9283C84.1669 31.2427 84.2304 31.6829 84.8338 31.7143C86.1041 31.8401 87.3744 32.0287 88.5494 32.5947C89.2799 32.9405 89.8197 33.4121 90.1691 34.1353C91.5029 36.965 92.6779 39.8575 93.2496 42.9387C93.4083 43.7562 93.7894 44.5108 94.1705 45.2654C95.5679 47.9064 96.9652 50.5474 98.2673 53.2513C98.9342 54.6662 99.5693 56.1125 100.268 57.5273C100.427 57.8731 100.554 58.219 100.935 58.4076C101.157 58.502 101.221 58.7535 101.221 59.005C101.221 59.4766 101.221 59.9797 101.189 60.4513C101.189 60.9229 100.998 61.3316 100.586 61.6146C100.236 61.8661 100.046 62.2749 99.7599 62.5893C99.5376 62.8408 99.22 63.0609 98.8706 62.8722C98.5531 62.6836 98.8706 62.4006 98.9342 62.1805C99.2517 61.0801 99.1882 60.9544 98.1402 60.4199C97.7591 60.2312 97.3463 59.9797 97.2193 59.5395C97.0287 58.8164 96.5523 58.2819 96.076 57.7788C94.5516 56.1439 93.059 54.4461 91.6299 52.7168C91.559 52.6233 91.5057 52.5123 91.4569 52.4098C91.4329 52.3594 91.3656 52.347 91.3209 52.3804C91.305 52.3922 91.2891 52.4039 91.2732 52.4163C91.2464 52.4374 91.2555 52.478 91.2879 52.4887Z" fill="#4D4D4D" fill-opacity="0.95" shape-rendering="crispEdges"/>
<path d="M91.2879 52.4887C91.3031 52.4937 91.3145 52.5063 91.3181 52.5219C91.76 54.4629 92.1078 56.4038 92.4556 58.3448C92.7732 60.1683 92.805 60.1683 91.0583 60.7343C90.4867 60.9229 90.2961 61.1744 90.2008 61.7718C89.9468 63.9412 89.7562 66.1735 89.1528 68.2801C88.2636 71.2355 88.1048 74.3167 87.3109 77.2722C87.1204 77.9324 86.9616 78.5927 86.7075 79.2215C85.6277 81.7682 86.1041 84.4093 86.1041 87.0188C86.1041 87.3333 85.9771 87.5848 85.9136 87.8678C85.5007 89.597 85.3737 91.3262 86.1041 93.0241C86.2629 93.4013 86.2311 93.7786 86.2629 94.1559C86.2947 94.4703 86.2629 94.7533 86.7075 94.8476C86.9298 94.9105 87.0886 95.1306 87.0568 95.3821C86.9933 95.9481 87.2791 96.1996 87.819 96.2625C87.861 96.2625 87.9026 96.2692 87.9409 96.2865C88.9288 96.7311 89.6817 99.0462 89.1211 99.9096C89.0463 100.008 88.9715 100.146 88.8966 100.216C88.8607 100.249 88.8107 100.259 88.7627 100.269C87.5331 100.523 86.7125 101.731 85.3419 101.607C84.5162 101.545 83.6588 101.576 82.8013 101.482C82.0391 101.419 81.8486 100.947 81.8804 100.35C81.8804 100.067 82.0074 99.8153 82.1027 99.5638C82.8013 97.9917 82.6108 96.3882 82.325 94.7533C82.1662 93.9358 82.0074 93.1184 81.7533 92.3324C81.6898 92.1123 81.5945 91.8922 81.4675 91.735C81.1499 91.3891 80.8641 91.169 80.5148 91.8293C79.8161 93.2127 78.8316 94.4703 78.3235 95.9166C77.9424 97.017 77.1167 98.086 77.4343 99.4065C77.6248 100.13 78.1647 101.765 78.6728 102.393C78.8951 102.708 79.1175 103.022 79.2445 103.368C79.4033 103.84 79.3715 104.248 78.7681 104.563C77.4025 105.255 76.0052 104.972 74.6396 104.752C73.7504 104.626 72.8612 104.343 71.9402 104.248C71.4004 104.186 71.1781 103.871 71.1781 103.4C71.1781 102.834 71.1781 102.236 71.5274 101.733C71.845 101.262 71.7815 100.664 71.8767 100.098C72.0673 99.2494 72.4801 98.5576 73.1788 98.0232C73.2741 97.9603 73.4011 97.866 73.4329 97.7402C73.8775 95.5708 75.243 93.6529 75.3383 91.3577C75.4018 89.5341 75.6241 87.6791 76.291 86.0127C77.3073 83.4346 76.7992 80.9508 76.164 78.4355C74.8302 73.3735 73.4011 68.3115 72.0355 63.2495C71.8767 62.6522 71.972 61.9919 71.051 61.8661C70.8287 61.8347 70.4159 61.2688 70.1936 60.8915C69.9713 60.5142 70.0666 60.0426 70.1936 59.6338C70.4494 58.8351 70.5833 58.0244 70.5952 57.1791C70.6045 56.5269 69.8577 56.3451 69.7807 56.9928C69.6219 58.3762 69.3044 59.7282 68.7645 61.0487C68.5422 61.6146 68.2246 62.2434 69.1773 62.5578C69.4314 62.6522 69.4632 62.9666 69.4632 63.2181C69.3996 64.4128 69.6219 65.6076 69.3679 66.7709C69.2091 67.4941 69.3679 68.2486 69.6219 68.9403C69.876 69.632 70.003 70.2923 70.003 71.0154C70.003 73.7508 70.797 76.3604 70.9875 79.0643C71.051 79.7874 71.0828 80.4791 70.8605 81.2337C70.6064 81.9883 71.051 82.7743 71.1146 83.5603C71.2098 84.5036 70.9875 84.7551 70.0348 84.8809C68.5104 85.0381 67.2719 84.2835 65.9381 83.7804C65.0806 83.466 64.2549 83.0259 63.3975 82.7114C62.9529 82.5542 62.7941 82.3027 62.8893 81.8311C62.9846 81.328 63.0164 80.825 63.0481 80.3219C63.0481 79.9491 63.1802 79.524 62.7456 79.309C62.6549 79.2642 62.5445 79.2406 62.5019 79.1489C62.4613 79.0615 62.4316 78.9366 62.413 78.8442C62.3177 78.2783 62.3495 77.7123 61.9366 77.2407C61.7461 77.0206 61.9366 76.7377 62.0319 76.4547C62.2224 75.8573 62.4765 75.1656 61.6826 74.7255C61.365 74.5368 61.2697 74.1595 61.2697 73.8766C61.2697 72.1159 61.1109 70.3237 61.365 68.563C61.4603 67.8399 61.8096 67.274 62.5083 66.991C62.7941 66.8967 62.9529 66.6766 63.0799 66.3936C63.2387 66.0792 63.3657 65.7334 63.588 65.4504C64.6152 64.2793 64.6051 62.927 64.365 61.5119C64.3553 61.4547 64.3515 61.3963 64.3391 61.3397C64.316 61.2343 64.2689 61.1223 64.3184 61.0487C64.9853 59.9168 64.636 58.5648 65.1441 57.3701C65.6205 56.3325 65.5887 55.1063 65.7158 53.943C65.9063 51.9937 66.7955 50.2016 67.1766 48.2837C67.8435 45.0138 68.5739 41.8069 69.1138 38.5056C69.3044 37.3423 69.6219 36.1789 70.1301 35.0785C70.7335 33.7894 71.6544 32.9091 73.02 32.4375C73.8457 32.1545 74.7032 32.0287 75.4018 31.3685C75.7512 31.0226 76.5133 31.1484 77.085 31.0226C77.8154 30.8654 77.6248 30.1423 77.8472 29.7021C78.1012 29.2305 77.5931 29.2934 77.4025 29.1991C76.1958 28.5388 75.7194 27.5641 75.7829 26.2436C75.7829 25.8034 75.7829 25.3004 75.5924 24.8917C75.1478 23.9799 75.3065 23.0995 75.6559 22.2506C76.0052 21.4017 76.0687 20.4899 76.4181 19.641C77.0532 17.9747 78.3553 17.0314 80.2607 17C81.8168 17 83.4365 17 84.675 17.8803C85.7548 18.6664 86.7393 19.7354 86.8345 21.2445C87.0251 23.8541 86.4217 26.3379 85.5007 28.7903C85.3737 29.1362 85.1831 29.3563 84.8973 29.5449C84.3892 29.8593 84.2939 30.4253 84.1987 30.9283C84.1669 31.2427 84.2304 31.6829 84.8338 31.7143C86.1041 31.8401 87.3744 32.0287 88.5494 32.5947C89.2799 32.9405 89.8197 33.4121 90.1691 34.1353C91.5029 36.965 92.6779 39.8575 93.2496 42.9387C93.4083 43.7562 93.7894 44.5108 94.1705 45.2654C95.5679 47.9064 96.9652 50.5474 98.2673 53.2513C98.9342 54.6662 99.5693 56.1125 100.268 57.5273C100.427 57.8731 100.554 58.219 100.935 58.4076C101.157 58.502 101.221 58.7535 101.221 59.005C101.221 59.4766 101.221 59.9797 101.189 60.4513C101.189 60.9229 100.998 61.3316 100.586 61.6146C100.236 61.8661 100.046 62.2749 99.7599 62.5893C99.5376 62.8408 99.22 63.0609 98.8706 62.8722C98.5531 62.6836 98.8706 62.4006 98.9342 62.1805C99.2517 61.0801 99.1882 60.9544 98.1402 60.4199C97.7591 60.2312 97.3463 59.9797 97.2193 59.5395C97.0287 58.8164 96.5523 58.2819 96.076 57.7788C94.5516 56.1439 93.059 54.4461 91.6299 52.7168C91.559 52.6233 91.5057 52.5123 91.4569 52.4098C91.4329 52.3594 91.3656 52.347 91.3209 52.3804C91.305 52.3922 91.2891 52.4039 91.2732 52.4163C91.2464 52.4374 91.2555 52.478 91.2879 52.4887Z" stroke="url(#paint15_linear_7647_1703)" stroke-opacity="0.5" shape-rendering="crispEdges" mask="url(#path-30-inside-3_7647_1703)"/>
<path d="M91.2879 52.4887C91.3031 52.4937 91.3145 52.5063 91.3181 52.5219C91.76 54.4629 92.1078 56.4038 92.4556 58.3448C92.7732 60.1683 92.805 60.1683 91.0583 60.7343C90.4867 60.9229 90.2961 61.1744 90.2008 61.7718C89.9468 63.9412 89.7562 66.1735 89.1528 68.2801C88.2636 71.2355 88.1048 74.3167 87.3109 77.2722C87.1204 77.9324 86.9616 78.5927 86.7075 79.2215C85.6277 81.7682 86.1041 84.4093 86.1041 87.0188C86.1041 87.3333 85.9771 87.5848 85.9136 87.8678C85.5007 89.597 85.3737 91.3262 86.1041 93.0241C86.2629 93.4013 86.2311 93.7786 86.2629 94.1559C86.2947 94.4703 86.2629 94.7533 86.7075 94.8476C86.9298 94.9105 87.0886 95.1306 87.0568 95.3821C86.9933 95.9481 87.2791 96.1996 87.819 96.2625C87.861 96.2625 87.9026 96.2692 87.9409 96.2865C88.9288 96.7311 89.6817 99.0462 89.1211 99.9096C89.0463 100.008 88.9715 100.146 88.8966 100.216C88.8607 100.249 88.8107 100.259 88.7627 100.269C87.5331 100.523 86.7125 101.731 85.3419 101.607C84.5162 101.545 83.6588 101.576 82.8013 101.482C82.0391 101.419 81.8486 100.947 81.8804 100.35C81.8804 100.067 82.0074 99.8153 82.1027 99.5638C82.8013 97.9917 82.6108 96.3882 82.325 94.7533C82.1662 93.9358 82.0074 93.1184 81.7533 92.3324C81.6898 92.1123 81.5945 91.8922 81.4675 91.735C81.1499 91.3891 80.8641 91.169 80.5148 91.8293C79.8161 93.2127 78.8316 94.4703 78.3235 95.9166C77.9424 97.017 77.1167 98.086 77.4343 99.4065C77.6248 100.13 78.1647 101.765 78.6728 102.393C78.8951 102.708 79.1175 103.022 79.2445 103.368C79.4033 103.84 79.3715 104.248 78.7681 104.563C77.4025 105.255 76.0052 104.972 74.6396 104.752C73.7504 104.626 72.8612 104.343 71.9402 104.248C71.4004 104.186 71.1781 103.871 71.1781 103.4C71.1781 102.834 71.1781 102.236 71.5274 101.733C71.845 101.262 71.7815 100.664 71.8767 100.098C72.0673 99.2494 72.4801 98.5576 73.1788 98.0232C73.2741 97.9603 73.4011 97.866 73.4329 97.7402C73.8775 95.5708 75.243 93.6529 75.3383 91.3577C75.4018 89.5341 75.6241 87.6791 76.291 86.0127C77.3073 83.4346 76.7992 80.9508 76.164 78.4355C74.8302 73.3735 73.4011 68.3115 72.0355 63.2495C71.8767 62.6522 71.972 61.9919 71.051 61.8661C70.8287 61.8347 70.4159 61.2688 70.1936 60.8915C69.9713 60.5142 70.0666 60.0426 70.1936 59.6338C70.4494 58.8351 70.5833 58.0244 70.5952 57.1791C70.6045 56.5269 69.8577 56.3451 69.7807 56.9928C69.6219 58.3762 69.3044 59.7282 68.7645 61.0487C68.5422 61.6146 68.2246 62.2434 69.1773 62.5578C69.4314 62.6522 69.4632 62.9666 69.4632 63.2181C69.3996 64.4128 69.6219 65.6076 69.3679 66.7709C69.2091 67.4941 69.3679 68.2486 69.6219 68.9403C69.876 69.632 70.003 70.2923 70.003 71.0154C70.003 73.7508 70.797 76.3604 70.9875 79.0643C71.051 79.7874 71.0828 80.4791 70.8605 81.2337C70.6064 81.9883 71.051 82.7743 71.1146 83.5603C71.2098 84.5036 70.9875 84.7551 70.0348 84.8809C68.5104 85.0381 67.2719 84.2835 65.9381 83.7804C65.0806 83.466 64.2549 83.0259 63.3975 82.7114C62.9529 82.5542 62.7941 82.3027 62.8893 81.8311C62.9846 81.328 63.0164 80.825 63.0481 80.3219C63.0481 79.9491 63.1802 79.524 62.7456 79.309C62.6549 79.2642 62.5445 79.2406 62.5019 79.1489C62.4613 79.0615 62.4316 78.9366 62.413 78.8442C62.3177 78.2783 62.3495 77.7123 61.9366 77.2407C61.7461 77.0206 61.9366 76.7377 62.0319 76.4547C62.2224 75.8573 62.4765 75.1656 61.6826 74.7255C61.365 74.5368 61.2697 74.1595 61.2697 73.8766C61.2697 72.1159 61.1109 70.3237 61.365 68.563C61.4603 67.8399 61.8096 67.274 62.5083 66.991C62.7941 66.8967 62.9529 66.6766 63.0799 66.3936C63.2387 66.0792 63.3657 65.7334 63.588 65.4504C64.6152 64.2793 64.6051 62.927 64.365 61.5119C64.3553 61.4547 64.3515 61.3963 64.3391 61.3397C64.316 61.2343 64.2689 61.1223 64.3184 61.0487C64.9853 59.9168 64.636 58.5648 65.1441 57.3701C65.6205 56.3325 65.5887 55.1063 65.7158 53.943C65.9063 51.9937 66.7955 50.2016 67.1766 48.2837C67.8435 45.0138 68.5739 41.8069 69.1138 38.5056C69.3044 37.3423 69.6219 36.1789 70.1301 35.0785C70.7335 33.7894 71.6544 32.9091 73.02 32.4375C73.8457 32.1545 74.7032 32.0287 75.4018 31.3685C75.7512 31.0226 76.5133 31.1484 77.085 31.0226C77.8154 30.8654 77.6248 30.1423 77.8472 29.7021C78.1012 29.2305 77.5931 29.2934 77.4025 29.1991C76.1958 28.5388 75.7194 27.5641 75.7829 26.2436C75.7829 25.8034 75.7829 25.3004 75.5924 24.8917C75.1478 23.9799 75.3065 23.0995 75.6559 22.2506C76.0052 21.4017 76.0687 20.4899 76.4181 19.641C77.0532 17.9747 78.3553 17.0314 80.2607 17C81.8168 17 83.4365 17 84.675 17.8803C85.7548 18.6664 86.7393 19.7354 86.8345 21.2445C87.0251 23.8541 86.4217 26.3379 85.5007 28.7903C85.3737 29.1362 85.1831 29.3563 84.8973 29.5449C84.3892 29.8593 84.2939 30.4253 84.1987 30.9283C84.1669 31.2427 84.2304 31.6829 84.8338 31.7143C86.1041 31.8401 87.3744 32.0287 88.5494 32.5947C89.2799 32.9405 89.8197 33.4121 90.1691 34.1353C91.5029 36.965 92.6779 39.8575 93.2496 42.9387C93.4083 43.7562 93.7894 44.5108 94.1705 45.2654C95.5679 47.9064 96.9652 50.5474 98.2673 53.2513C98.9342 54.6662 99.5693 56.1125 100.268 57.5273C100.427 57.8731 100.554 58.219 100.935 58.4076C101.157 58.502 101.221 58.7535 101.221 59.005C101.221 59.4766 101.221 59.9797 101.189 60.4513C101.189 60.9229 100.998 61.3316 100.586 61.6146C100.236 61.8661 100.046 62.2749 99.7599 62.5893C99.5376 62.8408 99.22 63.0609 98.8706 62.8722C98.5531 62.6836 98.8706 62.4006 98.9342 62.1805C99.2517 61.0801 99.1882 60.9544 98.1402 60.4199C97.7591 60.2312 97.3463 59.9797 97.2193 59.5395C97.0287 58.8164 96.5523 58.2819 96.076 57.7788C94.5516 56.1439 93.059 54.4461 91.6299 52.7168C91.559 52.6233 91.5057 52.5123 91.4569 52.4098C91.4329 52.3594 91.3656 52.347 91.3209 52.3804C91.305 52.3922 91.2891 52.4039 91.2732 52.4163C91.2464 52.4374 91.2555 52.478 91.2879 52.4887Z" stroke="white" stroke-opacity="0.4" shape-rendering="crispEdges" mask="url(#path-30-inside-3_7647_1703)"/>
</g>
<defs>
<filter id="filter0_dd_7647_1703" x="79.7534" y="58.5469" width="66.4323" height="49.4849" filterUnits="userSpaceOnUse" color-interpolation-filters="sRGB">
<feFlood flood-opacity="0" result="BackgroundImageFix"/>
<feColorMatrix in="SourceAlpha" type="matrix" values="0 0 0 0 0 0 0 0 0 0 0 0 0 0 0 0 0 0 127 0" result="hardAlpha"/>
<feOffset dy="2"/>
<feGaussianBlur stdDeviation="7"/>
<feComposite in2="hardAlpha" operator="out"/>
<feColorMatrix type="matrix" values="0 0 0 0 1 0 0 0 0 0.8 0 0 0 0 0.2 0 0 0 1 0"/>
<feBlend mode="normal" in2="BackgroundImageFix" result="effect1_dropShadow_7647_1703"/>
<feColorMatrix in="SourceAlpha" type="matrix" values="0 0 0 0 0 0 0 0 0 0 0 0 0 0 0 0 0 0 127 0" result="hardAlpha"/>
<feOffset dy="2"/>
<feGaussianBlur stdDeviation="4"/>
<feComposite in2="hardAlpha" operator="out"/>
<feColorMatrix type="matrix" values="0 0 0 0 0 0 0 0 0 0 0 0 0 0 0 0 0 0 0.5 0"/>
<feBlend mode="normal" in2="effect1_dropShadow_7647_1703" result="effect2_dropShadow_7647_1703"/>
<feBlend mode="normal" in="SourceGraphic" in2="effect2_dropShadow_7647_1703" result="shape"/>
</filter>
<filter id="filter1_dd_7647_1703" x="98.7207" y="67.5239" width="96.1309" height="95.5669" filterUnits="userSpaceOnUse" color-interpolation-filters="sRGB">
<feFlood flood-opacity="0" result="BackgroundImageFix"/>
<feColorMatrix in="SourceAlpha" type="matrix" values="0 0 0 0 0 0 0 0 0 0 0 0 0 0 0 0 0 0 127 0" result="hardAlpha"/>
<feOffset dy="4"/>
<feGaussianBlur stdDeviation="8"/>
<feComposite in2="hardAlpha" operator="out"/>
<feColorMatrix type="matrix" values="0 0 0 0 0 0 0 0 0 0 0 0 0 0 0 0 0 0 0.8 0"/>
<feBlend mode="normal" in2="BackgroundImageFix" result="effect1_dropShadow_7647_1703"/>
<feColorMatrix in="SourceAlpha" type="matrix" values="0 0 0 0 0 0 0 0 0 0 0 0 0 0 0 0 0 0 127 0" result="hardAlpha"/>
<feOffset dy="1"/>
<feGaussianBlur stdDeviation="1"/>
<feComposite in2="hardAlpha" operator="out"/>
<feColorMatrix type="matrix" values="0 0 0 0 0 0 0 0 0 0 0 0 0 0 0 0 0 0 0.3 0"/>
<feBlend mode="normal" in2="effect1_dropShadow_7647_1703" result="effect2_dropShadow_7647_1703"/>
<feBlend mode="normal" in="SourceGraphic" in2="effect2_dropShadow_7647_1703" result="shape"/>
</filter>
<filter id="filter2_dd_7647_1703" x="103.991" y="72.6963" width="85.5901" height="85.2227" filterUnits="userSpaceOnUse" color-interpolation-filters="sRGB">
<feFlood flood-opacity="0" result="BackgroundImageFix"/>
<feColorMatrix in="SourceAlpha" type="matrix" values="0 0 0 0 0 0 0 0 0 0 0 0 0 0 0 0 0 0 127 0" result="hardAlpha"/>
<feOffset dy="4"/>
<feGaussianBlur stdDeviation="8"/>
<feComposite in2="hardAlpha" operator="out"/>
<feColorMatrix type="matrix" values="0 0 0 0 0 0 0 0 0 0 0 0 0 0 0 0 0 0 0.64 0"/>
<feBlend mode="normal" in2="BackgroundImageFix" result="effect1_dropShadow_7647_1703"/>
<feColorMatrix in="SourceAlpha" type="matrix" values="0 0 0 0 0 0 0 0 0 0 0 0 0 0 0 0 0 0 127 0" result="hardAlpha"/>
<feOffset dy="1"/>
<feGaussianBlur stdDeviation="0.5"/>
<feComposite in2="hardAlpha" operator="out"/>
<feColorMatrix type="matrix" values="0 0 0 0 0 0 0 0 0 0 0 0 0 0 0 0 0 0 0.08 0"/>
<feBlend mode="normal" in2="effect1_dropShadow_7647_1703" result="effect2_dropShadow_7647_1703"/>
<feBlend mode="normal" in="SourceGraphic" in2="effect2_dropShadow_7647_1703" result="shape"/>
</filter>
<filter id="filter3_dd_7647_1703" x="138.166" y="79.5996" width="44.1379" height="52.0142" filterUnits="userSpaceOnUse" color-interpolation-filters="sRGB">
<feFlood flood-opacity="0" result="BackgroundImageFix"/>
<feColorMatrix in="SourceAlpha" type="matrix" values="0 0 0 0 0 0 0 0 0 0 0 0 0 0 0 0 0 0 127 0" result="hardAlpha"/>
<feOffset dy="2"/>
<feGaussianBlur stdDeviation="7"/>
<feComposite in2="hardAlpha" operator="out"/>
<feColorMatrix type="matrix" values="0 0 0 0 1 0 0 0 0 0.8 0 0 0 0 0.2 0 0 0 0.5 0"/>
<feBlend mode="normal" in2="BackgroundImageFix" result="effect1_dropShadow_7647_1703"/>
<feColorMatrix in="SourceAlpha" type="matrix" values="0 0 0 0 0 0 0 0 0 0 0 0 0 0 0 0 0 0 127 0" result="hardAlpha"/>
<feOffset dy="2"/>
<feGaussianBlur stdDeviation="4"/>
<feComposite in2="hardAlpha" operator="out"/>
<feColorMatrix type="matrix" values="0 0 0 0 0 0 0 0 0 0 0 0 0 0 0 0 0 0 0.5 0"/>
<feBlend mode="normal" in2="effect1_dropShadow_7647_1703" result="effect2_dropShadow_7647_1703"/>
<feBlend mode="normal" in="SourceGraphic" in2="effect2_dropShadow_7647_1703" result="shape"/>
</filter>
<filter id="filter4_dd_7647_1703" x="129.377" y="83.5645" width="34.932" height="46.626" filterUnits="userSpaceOnUse" color-interpolation-filters="sRGB">
<feFlood flood-opacity="0" result="BackgroundImageFix"/>
<feColorMatrix in="SourceAlpha" type="matrix" values="0 0 0 0 0 0 0 0 0 0 0 0 0 0 0 0 0 0 127 0" result="hardAlpha"/>
<feOffset dy="4"/>
<feGaussianBlur stdDeviation="8"/>
<feComposite in2="hardAlpha" operator="out"/>
<feColorMatrix type="matrix" values="0 0 0 0 0 0 0 0 0 0 0 0 0 0 0 0 0 0 0.64 0"/>
<feBlend mode="normal" in2="BackgroundImageFix" result="effect1_dropShadow_7647_1703"/>
<feColorMatrix in="SourceAlpha" type="matrix" values="0 0 0 0 0 0 0 0 0 0 0 0 0 0 0 0 0 0 127 0" result="hardAlpha"/>
<feOffset dy="1"/>
<feGaussianBlur stdDeviation="0.5"/>
<feComposite in2="hardAlpha" operator="out"/>
<feColorMatrix type="matrix" values="0 0 0 0 0 0 0 0 0 0 0 0 0 0 0 0 0 0 0.08 0"/>
<feBlend mode="normal" in2="effect1_dropShadow_7647_1703" result="effect2_dropShadow_7647_1703"/>
<feBlend mode="normal" in="SourceGraphic" in2="effect2_dropShadow_7647_1703" result="shape"/>
</filter>
<filter id="filter5_dd_7647_1703" x="130.239" y="99.6743" width="51.5775" height="42.1924" filterUnits="userSpaceOnUse" color-interpolation-filters="sRGB">
<feFlood flood-opacity="0" result="BackgroundImageFix"/>
<feColorMatrix in="SourceAlpha" type="matrix" values="0 0 0 0 0 0 0 0 0 0 0 0 0 0 0 0 0 0 127 0" result="hardAlpha"/>
<feOffset dy="4"/>
<feGaussianBlur stdDeviation="8"/>
<feComposite in2="hardAlpha" operator="out"/>
<feColorMatrix type="matrix" values="0 0 0 0 0 0 0 0 0 0 0 0 0 0 0 0 0 0 0.64 0"/>
<feBlend mode="normal" in2="BackgroundImageFix" result="effect1_dropShadow_7647_1703"/>
<feColorMatrix in="SourceAlpha" type="matrix" values="0 0 0 0 0 0 0 0 0 0 0 0 0 0 0 0 0 0 127 0" result="hardAlpha"/>
<feOffset dy="1"/>
<feGaussianBlur stdDeviation="0.5"/>
<feComposite in2="hardAlpha" operator="out"/>
<feColorMatrix type="matrix" values="0 0 0 0 0 0 0 0 0 0 0 0 0 0 0 0 0 0 0.08 0"/>
<feBlend mode="normal" in2="effect1_dropShadow_7647_1703" result="effect2_dropShadow_7647_1703"/>
<feBlend mode="normal" in="SourceGraphic" in2="effect2_dropShadow_7647_1703" result="shape"/>
</filter>
<filter id="filter6_dd_7647_1703" x="126.351" y="95.6772" width="40.5662" height="40.5938" filterUnits="userSpaceOnUse" color-interpolation-filters="sRGB">
<feFlood flood-opacity="0" result="BackgroundImageFix"/>
<feColorMatrix in="SourceAlpha" type="matrix" values="0 0 0 0 0 0 0 0 0 0 0 0 0 0 0 0 0 0 127 0" result="hardAlpha"/>
<feOffset dy="4"/>
<feGaussianBlur stdDeviation="8"/>
<feComposite in2="hardAlpha" operator="out"/>
<feColorMatrix type="matrix" values="0 0 0 0 0 0 0 0 0 0 0 0 0 0 0 0 0 0 0.64 0"/>
<feBlend mode="normal" in2="BackgroundImageFix" result="effect1_dropShadow_7647_1703"/>
<feColorMatrix in="SourceAlpha" type="matrix" values="0 0 0 0 0 0 0 0 0 0 0 0 0 0 0 0 0 0 127 0" result="hardAlpha"/>
<feOffset dy="1"/>
<feGaussianBlur stdDeviation="0.5"/>
<feComposite in2="hardAlpha" operator="out"/>
<feColorMatrix type="matrix" values="0 0 0 0 0 0 0 0 0 0 0 0 0 0 0 0 0 0 0.08 0"/>
<feBlend mode="normal" in2="effect1_dropShadow_7647_1703" result="effect2_dropShadow_7647_1703"/>
<feBlend mode="normal" in="SourceGraphic" in2="effect2_dropShadow_7647_1703" result="shape"/>
</filter>
<filter id="filter7_dd_7647_1703" x="118.22" y="7.44189" width="53.0006" height="85.9653" filterUnits="userSpaceOnUse" color-interpolation-filters="sRGB">
<feFlood flood-opacity="0" result="BackgroundImageFix"/>
<feColorMatrix in="SourceAlpha" type="matrix" values="0 0 0 0 0 0 0 0 0 0 0 0 0 0 0 0 0 0 127 0" result="hardAlpha"/>
<feOffset dy="4"/>
<feGaussianBlur stdDeviation="8"/>
<feComposite in2="hardAlpha" operator="out"/>
<feColorMatrix type="matrix" values="0 0 0 0 0 0 0 0 0 0 0 0 0 0 0 0 0 0 0.64 0"/>
<feBlend mode="normal" in2="BackgroundImageFix" result="effect1_dropShadow_7647_1703"/>
<feColorMatrix in="SourceAlpha" type="matrix" values="0 0 0 0 0 0 0 0 0 0 0 0 0 0 0 0 0 0 127 0" result="hardAlpha"/>
<feOffset dy="1"/>
<feGaussianBlur stdDeviation="0.5"/>
<feComposite in2="hardAlpha" operator="out"/>
<feColorMatrix type="matrix" values="0 0 0 0 0 0 0 0 0 0 0 0 0 0 0 0 0 0 0.08 0"/>
<feBlend mode="normal" in2="effect1_dropShadow_7647_1703" result="effect2_dropShadow_7647_1703"/>
<feBlend mode="normal" in="SourceGraphic" in2="effect2_dropShadow_7647_1703" result="shape"/>
</filter>
<filter id="filter8_dd_7647_1703" x="45.2207" y="5" width="72" height="120" filterUnits="userSpaceOnUse" color-interpolation-filters="sRGB">
<feFlood flood-opacity="0" result="BackgroundImageFix"/>
<feColorMatrix in="SourceAlpha" type="matrix" values="0 0 0 0 0 0 0 0 0 0 0 0 0 0 0 0 0 0 127 0" result="hardAlpha"/>
<feOffset dy="4"/>
<feGaussianBlur stdDeviation="8"/>
<feComposite in2="hardAlpha" operator="out"/>
<feColorMatrix type="matrix" values="0 0 0 0 0 0 0 0 0 0 0 0 0 0 0 0 0 0 0.64 0"/>
<feBlend mode="normal" in2="BackgroundImageFix" result="effect1_dropShadow_7647_1703"/>
<feColorMatrix in="SourceAlpha" type="matrix" values="0 0 0 0 0 0 0 0 0 0 0 0 0 0 0 0 0 0 127 0" result="hardAlpha"/>
<feOffset dy="1"/>
<feGaussianBlur stdDeviation="0.5"/>
<feComposite in2="hardAlpha" operator="out"/>
<feColorMatrix type="matrix" values="0 0 0 0 0 0 0 0 0 0 0 0 0 0 0 0 0 0 0.08 0"/>
<feBlend mode="normal" in2="effect1_dropShadow_7647_1703" result="effect2_dropShadow_7647_1703"/>
<feBlend mode="normal" in="SourceGraphic" in2="effect2_dropShadow_7647_1703" result="shape"/>
</filter>
<linearGradient id="paint0_linear_7647_1703" x1="113.664" y1="82.6185" x2="112.275" y2="79.9598" gradientUnits="userSpaceOnUse">
<stop stop-color="#FFCC33"/>
<stop offset="1" stop-color="#FFEAAA"/>
</linearGradient>
<linearGradient id="paint1_linear_7647_1703" x1="136.857" y1="80.5598" x2="157.464" y2="80.424" gradientUnits="userSpaceOnUse">
<stop stop-color="#4D4D4D"/>
<stop offset="1" stop-color="#373737"/>
</linearGradient>
<linearGradient id="paint2_linear_7647_1703" x1="168.547" y1="84.1094" x2="168.585" y2="94.9748" gradientUnits="userSpaceOnUse">
<stop stop-color="#4D4D4D"/>
<stop offset="1" stop-color="#373737"/>
</linearGradient>
<linearGradient id="paint3_linear_7647_1703" x1="126.663" y1="84.1094" x2="116.491" y2="84.1451" gradientUnits="userSpaceOnUse">
<stop stop-color="#4D4D4D"/>
<stop offset="1" stop-color="#373737"/>
</linearGradient>
<linearGradient id="paint4_linear_7647_1703" x1="146.786" y1="80.0239" x2="146.786" y2="142.591" gradientUnits="userSpaceOnUse">
<stop stop-color="#4D4D4D"/>
<stop offset="0.828125" stop-color="#373737"/>
</linearGradient>
<linearGradient id="paint5_linear_7647_1703" x1="146.786" y1="80.0239" x2="146.786" y2="142.591" gradientUnits="userSpaceOnUse">
<stop stop-color="#696969"/>
<stop offset="0.283654" stop-color="#333333" stop-opacity="0"/>
</linearGradient>
<linearGradient id="paint6_linear_7647_1703" x1="96.5454" y1="107.413" x2="98.6087" y2="141.415" gradientUnits="userSpaceOnUse">
<stop offset="0.0036" stop-color="#404040"/>
<stop offset="1" stop-color="#302F2D"/>
</linearGradient>
<linearGradient id="paint7_linear_7647_1703" x1="160.234" y1="91.5996" x2="160.234" y2="115.614" gradientUnits="userSpaceOnUse">
<stop stop-color="#FFCC33"/>
<stop offset="1" stop-color="#FFEAAA"/>
</linearGradient>
<linearGradient id="paint8_linear_7647_1703" x1="144.078" y1="101.807" x2="148.716" y2="102.082" gradientUnits="userSpaceOnUse">
<stop offset="0.0036" stop-color="#454545"/>
<stop offset="1" stop-color="#757166"/>
</linearGradient>
<linearGradient id="paint9_linear_7647_1703" x1="146.721" y1="107" x2="151.216" y2="107.138" gradientUnits="userSpaceOnUse">
<stop stop-color="#323232" stop-opacity="0"/>
<stop offset="1" stop-color="#F9CC45"/>
</linearGradient>
<linearGradient id="paint10_linear_7647_1703" x1="137.677" y1="116.027" x2="137.885" y2="122.558" gradientUnits="userSpaceOnUse">
<stop offset="0.0036" stop-color="#454545"/>
<stop offset="1" stop-color="#757166"/>
</linearGradient>
<linearGradient id="paint11_linear_7647_1703" x1="159.221" y1="120" x2="160.408" y2="117.4" gradientUnits="userSpaceOnUse">
<stop stop-color="#323232" stop-opacity="0"/>
<stop offset="1" stop-color="#F9CC45"/>
</linearGradient>
<linearGradient id="paint12_linear_7647_1703" x1="145.977" y1="116.482" x2="151.46" y2="114.701" gradientUnits="userSpaceOnUse">
<stop offset="0.0036" stop-color="#454545"/>
<stop offset="1" stop-color="#757166"/>
</linearGradient>
<linearGradient id="paint13_linear_7647_1703" x1="149.61" y1="117.495" x2="153.139" y2="116.274" gradientUnits="userSpaceOnUse">
<stop stop-color="#323232" stop-opacity="0"/>
<stop offset="1" stop-color="#F9CC45"/>
</linearGradient>
<linearGradient id="paint14_linear_7647_1703" x1="155.221" y1="20.5001" x2="145.096" y2="19.4343" gradientUnits="userSpaceOnUse">
<stop stop-color="#323232" stop-opacity="0"/>
<stop offset="1" stop-color="#F9CC45"/>
</linearGradient>
<linearGradient id="paint15_linear_7647_1703" x1="70.2207" y1="105" x2="84.7481" y2="106.504" gradientUnits="userSpaceOnUse">
<stop stop-color="#323232" stop-opacity="0"/>
<stop offset="1" stop-color="#F9CC45"/>
</linearGradient>
</defs>
</svg>
