<svg width="230" height="160" viewBox="0 0 230 160" fill="none" xmlns="http://www.w3.org/2000/svg">
<path d="M173.648 80.3871C173.648 93.6148 169.219 106.044 161.837 115.851C157.748 121.211 152.865 125.886 147.187 129.535C138.101 135.579 127.086 139 115.388 139C83.2491 139.114 57.1289 112.886 57.1289 80.3871C57.1289 48.002 83.1355 21.6606 115.388 21.6606C127.086 21.6606 137.988 25.0816 147.187 31.1253C152.865 34.7743 157.748 39.4496 161.837 44.8091C169.219 54.7299 173.648 67.0454 173.648 80.3871Z" fill="#EBEBEB"/>
<path d="M71.02 72.535H70.3167C69.7892 72.535 69.4375 72.3709 69.4375 72.1248C69.4375 71.8786 69.7892 71.7145 70.3167 71.7145H71.02C71.5475 71.7145 71.8992 71.8786 71.8992 72.1248C71.8992 72.3709 71.5475 72.535 71.02 72.535Z" fill="#2D5887"/>
<path d="M71.02 75.8173H70.3167C69.7892 75.8173 69.4375 75.6532 69.4375 75.407C69.4375 75.1608 69.7892 74.9967 70.3167 74.9967H71.02C71.5475 74.9967 71.8992 75.1608 71.8992 75.407C71.8992 75.6532 71.5475 75.8173 71.02 75.8173Z" fill="#2D5887"/>
<path d="M71.02 79.0995H70.3167C69.7892 79.0995 69.4375 78.9354 69.4375 78.6892C69.4375 78.443 69.7892 78.2789 70.3167 78.2789H71.02C71.5475 78.2789 71.8992 78.443 71.8992 78.6892C71.8992 78.9354 71.5475 79.0995 71.02 79.0995Z" fill="#2D5887"/>
<path d="M71.02 82.3817H70.3167C69.7892 82.3817 69.4375 82.2176 69.4375 81.9714C69.4375 81.7253 69.7892 81.5612 70.3167 81.5612H71.02C71.5475 81.5612 71.8992 81.7253 71.8992 81.9714C71.8992 82.2176 71.5475 82.3817 71.02 82.3817Z" fill="#2D5887"/>
<path d="M103.119 72.535H91.553C91.0841 72.535 90.7715 72.3709 90.7715 72.1248C90.7715 71.8786 91.0841 71.7145 91.553 71.7145H103.119C103.588 71.7145 103.9 71.8786 103.9 72.1248C103.9 72.3709 103.588 72.535 103.119 72.535Z" fill="white"/>
<path d="M127.762 82.3817H91.5264C91.0734 82.3817 90.7715 82.2176 90.7715 81.9714C90.7715 81.7253 91.0734 81.5612 91.5264 81.5612H127.762C128.215 81.5612 128.517 81.7253 128.517 81.9714C128.517 82.2176 128.215 82.3817 127.762 82.3817Z" fill="url(#paint0_linear_4173_34884)"/>
<path d="M103.164 75.8173H87.4053C86.9635 75.8173 86.6689 75.6531 86.6689 75.407C86.6689 75.1608 86.9635 74.9967 87.4053 74.9967H103.164C103.606 74.9967 103.901 75.1608 103.901 75.407C103.901 75.6531 103.606 75.8173 103.164 75.8173Z" fill="#2D5887"/>
<path d="M115.474 79.0995H87.4038C86.9629 79.0995 86.6689 78.9354 86.6689 78.6892C86.6689 78.443 86.9629 78.2789 87.4038 78.2789H115.474C115.915 78.2789 116.209 78.443 116.209 78.6892C116.062 78.9354 115.768 79.0995 115.474 79.0995Z" fill="#2D5887"/>
<path d="M127.718 79.0995H117.008C116.529 79.0995 116.209 78.9354 116.209 78.6892C116.209 78.443 116.529 78.2789 117.008 78.2789H127.718C128.198 78.2789 128.517 78.443 128.517 78.6892C128.517 78.9354 128.198 79.0995 127.718 79.0995Z" fill="white"/>
<path d="M134.306 79.0995H130.114C129.648 79.0995 129.338 78.9354 129.338 78.6892C129.338 78.443 129.648 78.2789 130.114 78.2789H134.306C134.771 78.2789 135.082 78.443 135.082 78.6892C135.082 78.9354 134.771 79.0995 134.306 79.0995Z" fill="url(#paint1_linear_4173_34884)"/>
<path d="M44 125.23H181.853" stroke="#EDE5DA" stroke-width="2" stroke-miterlimit="10" stroke-linecap="round" stroke-linejoin="round"/>
<g filter="url(#filter0_d_4173_34884)">
<path d="M140.825 71.7145V124.23H66.3713C63.4342 124.23 61.2314 121.87 61.2314 119.067V71.7145H140.825Z" fill="url(#paint2_linear_4173_34884)"/>
</g>
<path d="M170.365 71.7145V119.067C170.365 122.017 167.916 124.23 165.008 124.23H140.825V71.7145H170.365Z" fill="#DAE1ED"/>
<g filter="url(#filter1_d_4173_34884)">
<path d="M170.365 71.7145V119.067C170.365 122.017 167.916 124.23 165.008 124.23H140.825V71.7145H170.365Z" fill="#E4E0DA"/>
</g>
<path d="M89.9512 71.7145L105.607 47.0978H185.956L169.857 71.7145H89.9512Z" fill="#C5CDDB"/>
<g filter="url(#filter2_dd_4173_34884)">
<path d="M89.9512 71.7145L105.607 47.0978H185.956L169.857 71.7145H89.9512Z" fill="url(#paint3_linear_4173_34884)"/>
</g>
<path opacity="0.3" d="M170.365 71.8583V99.6133H148.826C146.825 99.6133 145.441 98.3191 145.133 96.4496L140.825 71.7145L170.365 71.8583Z" fill="#B3BAC4"/>
<g filter="url(#filter3_d_4173_34884)">
<path d="M169.746 71.7145H140.825L155.51 93.9726C156.559 95.4467 158.208 96.3311 159.856 96.3311H182.334C183.832 96.3311 184.881 94.5623 183.982 93.383L169.746 71.7145Z" fill="url(#paint4_linear_4173_34884)"/>
</g>
<g filter="url(#filter4_d_4173_34884)">
<path d="M140.825 71.7145L125.06 47.0978H44L60.3607 71.7145H140.825Z" fill="#D9D2C7"/>
</g>
<path d="M100.954 102.075H69.9213C69.1963 102.075 68.6162 101.528 68.6162 100.844C68.6162 100.16 69.1963 99.6133 69.9213 99.6133H100.954C101.679 99.6133 102.259 100.16 102.259 100.844C102.114 101.528 101.679 102.075 100.954 102.075Z" fill="#ECE4D9"/>
<path d="M100.954 107.819H69.9213C69.1963 107.819 68.6162 107.454 68.6162 106.998C68.6162 106.542 69.1963 106.178 69.9213 106.178H100.954C101.679 106.178 102.259 106.542 102.259 106.998C102.114 107.454 101.679 107.819 100.954 107.819Z" fill="#ECE4D9"/>
<path d="M84.5223 114.383H69.9417C69.2053 114.383 68.6162 114.019 68.6162 113.563C68.6162 113.107 69.2053 112.742 69.9417 112.742H84.5223C85.2587 112.742 85.8479 113.107 85.8479 113.563C85.7006 114.019 85.1115 114.383 84.5223 114.383Z" fill="#ECE4D9"/>
<defs>
<filter id="filter0_d_4173_34884" x="39.2314" y="60.7145" width="123.594" height="96.5155" filterUnits="userSpaceOnUse" color-interpolation-filters="sRGB">
<feFlood flood-opacity="0" result="BackgroundImageFix"/>
<feColorMatrix in="SourceAlpha" type="matrix" values="0 0 0 0 0 0 0 0 0 0 0 0 0 0 0 0 0 0 127 0" result="hardAlpha"/>
<feOffset dy="11"/>
<feGaussianBlur stdDeviation="11"/>
<feColorMatrix type="matrix" values="0 0 0 0 0.576471 0 0 0 0 0.501961 0 0 0 0 0.396078 0 0 0 0.16 0"/>
<feBlend mode="normal" in2="BackgroundImageFix" result="effect1_dropShadow_4173_34884"/>
<feBlend mode="normal" in="SourceGraphic" in2="effect1_dropShadow_4173_34884" result="shape"/>
</filter>
<filter id="filter1_d_4173_34884" x="118.825" y="60.7145" width="73.54" height="96.5155" filterUnits="userSpaceOnUse" color-interpolation-filters="sRGB">
<feFlood flood-opacity="0" result="BackgroundImageFix"/>
<feColorMatrix in="SourceAlpha" type="matrix" values="0 0 0 0 0 0 0 0 0 0 0 0 0 0 0 0 0 0 127 0" result="hardAlpha"/>
<feOffset dy="11"/>
<feGaussianBlur stdDeviation="11"/>
<feColorMatrix type="matrix" values="0 0 0 0 0.397708 0 0 0 0 0.47749 0 0 0 0 0.575 0 0 0 0.16 0"/>
<feBlend mode="normal" in2="BackgroundImageFix" result="effect1_dropShadow_4173_34884"/>
<feBlend mode="normal" in="SourceGraphic" in2="effect1_dropShadow_4173_34884" result="shape"/>
</filter>
<filter id="filter2_dd_4173_34884" x="67.9512" y="36.0978" width="140.005" height="68.6166" filterUnits="userSpaceOnUse" color-interpolation-filters="sRGB">
<feFlood flood-opacity="0" result="BackgroundImageFix"/>
<feColorMatrix in="SourceAlpha" type="matrix" values="0 0 0 0 0 0 0 0 0 0 0 0 0 0 0 0 0 0 127 0" result="hardAlpha"/>
<feOffset dy="11"/>
<feGaussianBlur stdDeviation="11"/>
<feColorMatrix type="matrix" values="0 0 0 0 0.576471 0 0 0 0 0.501961 0 0 0 0 0.396078 0 0 0 0.16 0"/>
<feBlend mode="normal" in2="BackgroundImageFix" result="effect1_dropShadow_4173_34884"/>
<feColorMatrix in="SourceAlpha" type="matrix" values="0 0 0 0 0 0 0 0 0 0 0 0 0 0 0 0 0 0 127 0" result="hardAlpha"/>
<feOffset dx="4"/>
<feGaussianBlur stdDeviation="3"/>
<feComposite in2="hardAlpha" operator="out"/>
<feColorMatrix type="matrix" values="0 0 0 0 0.712712 0 0 0 0 0.678163 0 0 0 0 0.629794 0 0 0 0.05 0"/>
<feBlend mode="normal" in2="effect1_dropShadow_4173_34884" result="effect2_dropShadow_4173_34884"/>
<feBlend mode="normal" in="SourceGraphic" in2="effect2_dropShadow_4173_34884" result="shape"/>
</filter>
<filter id="filter3_d_4173_34884" x="118.825" y="60.7145" width="87.4893" height="68.6166" filterUnits="userSpaceOnUse" color-interpolation-filters="sRGB">
<feFlood flood-opacity="0" result="BackgroundImageFix"/>
<feColorMatrix in="SourceAlpha" type="matrix" values="0 0 0 0 0 0 0 0 0 0 0 0 0 0 0 0 0 0 127 0" result="hardAlpha"/>
<feOffset dy="11"/>
<feGaussianBlur stdDeviation="11"/>
<feColorMatrix type="matrix" values="0 0 0 0 0.576471 0 0 0 0 0.501961 0 0 0 0 0.396078 0 0 0 0.16 0"/>
<feBlend mode="normal" in2="BackgroundImageFix" result="effect1_dropShadow_4173_34884"/>
<feBlend mode="normal" in="SourceGraphic" in2="effect1_dropShadow_4173_34884" result="shape"/>
</filter>
<filter id="filter4_d_4173_34884" x="22" y="36.0978" width="140.825" height="68.6166" filterUnits="userSpaceOnUse" color-interpolation-filters="sRGB">
<feFlood flood-opacity="0" result="BackgroundImageFix"/>
<feColorMatrix in="SourceAlpha" type="matrix" values="0 0 0 0 0 0 0 0 0 0 0 0 0 0 0 0 0 0 127 0" result="hardAlpha"/>
<feOffset dy="11"/>
<feGaussianBlur stdDeviation="11"/>
<feColorMatrix type="matrix" values="0 0 0 0 0.576471 0 0 0 0 0.501961 0 0 0 0 0.396078 0 0 0 0.16 0"/>
<feBlend mode="normal" in2="BackgroundImageFix" result="effect1_dropShadow_4173_34884"/>
<feBlend mode="normal" in="SourceGraphic" in2="effect1_dropShadow_4173_34884" result="shape"/>
</filter>
<linearGradient id="paint0_linear_4173_34884" x1="90.941" y1="81.9881" x2="128.561" y2="81.9881" gradientUnits="userSpaceOnUse">
<stop stop-color="#FF66A9"/>
<stop offset="1" stop-color="#F53689"/>
</linearGradient>
<linearGradient id="paint1_linear_4173_34884" x1="129.376" y1="78.6641" x2="135.081" y2="78.6641" gradientUnits="userSpaceOnUse">
<stop stop-color="#83A6FF"/>
<stop offset="1" stop-color="#5A78FF"/>
</linearGradient>
<linearGradient id="paint2_linear_4173_34884" x1="101.002" y1="70.4997" x2="101.002" y2="124.796" gradientUnits="userSpaceOnUse">
<stop stop-color="#FDFEFF"/>
<stop offset="0.9964" stop-color="#F5F2EC"/>
</linearGradient>
<linearGradient id="paint3_linear_4173_34884" x1="137.922" y1="46.5284" x2="137.922" y2="71.9799" gradientUnits="userSpaceOnUse">
<stop stop-color="white"/>
<stop offset="0.9964" stop-color="#F5F2EC"/>
</linearGradient>
<linearGradient id="paint4_linear_4173_34884" x1="162.556" y1="71.1451" x2="162.556" y2="96.5965" gradientUnits="userSpaceOnUse">
<stop stop-color="#FDFEFF"/>
<stop offset="0.9964" stop-color="#F5F2EC"/>
</linearGradient>
</defs>
</svg>
