<svg xmlns="http://www.w3.org/2000/svg" width="186" height="160" fill="none" viewBox="0 0 186 160">
  <path fill="#ECEBEA" d="M151.648 80.3871c0 13.2277-4.429 25.6569-11.811 35.4639-4.089 5.36-8.972 10.035-14.65 13.684-9.086 6.044-20.101 9.465-31.7987 9.465-32.1392.114-58.2594-26.114-58.2594-58.6129 0-32.3851 26.0066-58.7265 58.2594-58.7265 11.6977 0 22.5997 3.421 31.7987 9.4647 5.678 3.649 10.561 8.3243 14.65 13.6838 7.382 9.9208 11.811 22.2363 11.811 35.578Z"/>
  <path fill="#2D5887" d="M49.02 72.535h-.7033c-.5275 0-.8792-.1641-.8792-.4102 0-.2462.3517-.4103.8792-.4103h.7033c.5275 0 .8792.1641.8792.4103 0 .2461-.3517.4102-.8792.4102ZM49.02 75.8173h-.7033c-.5275 0-.8792-.1641-.8792-.4103s.3517-.4103.8792-.4103h.7033c.5275 0 .8792.1641.8792.4103s-.3517.4103-.8792.4103ZM49.02 79.0995h-.7033c-.5275 0-.8792-.1641-.8792-.4103s.3517-.4103.8792-.4103h.7033c.5275 0 .8792.1641.8792.4103s-.3517.4103-.8792.4103ZM49.02 82.3817h-.7033c-.5275 0-.8792-.1641-.8792-.4103s.3517-.4103.8792-.4103h.7033c.5275 0 .8792.1641.8792.4103s-.3517.4103-.8792.4103Z"/>
  <path fill="#fff" d="M81.1189 72.535H69.553c-.4689 0-.7815-.1641-.7815-.4102 0-.2462.3126-.4103.7815-.4103h11.5659c.4689 0 .7815.1641.7815.4103 0 .2461-.3126.4102-.7815.4102Z"/>
  <path fill="url(#paint0_linear_4173_34884)" d="M105.762 82.3817H69.5264c-.453 0-.7549-.1641-.7549-.4103s.3019-.4103.7549-.4103h36.2356c.453 0 .755.1641.755.4103s-.302.4103-.755.4103Z"/>
  <path fill="#2D5887" d="M81.1642 75.8173H65.4053c-.4418 0-.7364-.1642-.7364-.4103 0-.2462.2946-.4103.7364-.4103h15.7589c.4418 0 .7364.1641.7364.4103 0 .2461-.2946.4103-.7364.4103ZM93.4741 79.0995H65.4038c-.4409 0-.7349-.1641-.7349-.4103s.294-.4103.7349-.4103h28.0703c.4409 0 .7348.1641.7348.4103-.147.2462-.4409.4103-.7348.4103Z"/>
  <path fill="#fff" d="M105.718 79.0995H95.0082c-.4795 0-.7992-.1641-.7992-.4103s.3197-.4103.7992-.4103h10.7098c.48 0 .799.1641.799.4103s-.319.4103-.799.4103Z"/>
  <path fill="url(#paint1_linear_4173_34884)" d="M112.306 79.0995h-4.192c-.466 0-.776-.1641-.776-.4103s.31-.4103.776-.4103h4.192c.465 0 .776.1641.776.4103s-.311.4103-.776.4103Z"/>
  <path stroke="#EDE5DA" stroke-linecap="round" stroke-linejoin="round" stroke-miterlimit="10" stroke-width="2" d="M22 125.23h137.853"/>
  <g filter="url(#filter0_d_4173_34884)">
    <path fill="url(#paint2_linear_4173_34884)" d="M118.825 71.7145V124.23H44.3713c-2.9371 0-5.1399-2.36-5.1399-5.163V71.7145h79.5936Z"/>
  </g>
  <path fill="#DAE1ED" d="M148.365 71.7145v47.3525c0 2.95-2.449 5.163-5.357 5.163h-24.183V71.7145h29.54Z"/>
  <g filter="url(#filter1_d_4173_34884)">
    <path fill="#E4E0DA" d="M148.365 71.7145v47.3525c0 2.95-2.449 5.163-5.357 5.163h-24.183V71.7145h29.54Z"/>
  </g>
  <path fill="#C5CDDB" d="m67.9512 71.7145 15.6562-24.6167h80.3486l-16.099 24.6167H67.9512Z"/>
  <g filter="url(#filter2_dd_4173_34884)">
    <path fill="url(#paint3_linear_4173_34884)" d="m67.9512 71.7145 15.6562-24.6167h80.3486l-16.099 24.6167H67.9512Z"/>
  </g>
  <path fill="#B3BAC4" d="M148.365 71.8583v27.755h-21.539c-2.001 0-3.385-1.2942-3.693-3.1637l-4.308-24.7351 29.54.1438Z" opacity=".3"/>
  <g filter="url(#filter3_d_4173_34884)">
    <path fill="url(#paint4_linear_4173_34884)" d="M147.746 71.7145h-28.921l14.685 22.2581c1.049 1.4741 2.698 2.3585 4.346 2.3585h22.478c1.498 0 2.547-1.7688 1.648-2.9481l-14.236-21.6685Z"/>
  </g>
  <g filter="url(#filter4_d_4173_34884)">
    <path fill="#D9D2C7" d="M118.825 71.7145 103.06 47.0978H22l16.3607 24.6167h80.4643Z"/>
  </g>
  <path fill="#ECE4D9" d="M78.9538 102.075H47.9213c-.725 0-1.3051-.547-1.3051-1.231s.5801-1.2307 1.3051-1.2307h31.0325c.7251 0 1.3052.5467 1.3052 1.2307-.1451.684-.5801 1.231-1.3052 1.231ZM78.9538 107.819H47.9213c-.725 0-1.3051-.365-1.3051-.821 0-.456.5801-.82 1.3051-.82h31.0325c.7251 0 1.3052.364 1.3052.82-.1451.456-.5801.821-1.3052.821ZM62.5223 114.383H47.9417c-.7364 0-1.3255-.364-1.3255-.82 0-.456.5891-.821 1.3255-.821h14.5806c.7364 0 1.3256.365 1.3256.821-.1473.456-.7364.82-1.3256.82Z"/>
  <defs>
    <linearGradient id="paint0_linear_4173_34884" x1="68.941" x2="106.561" y1="81.9881" y2="81.9881" gradientUnits="userSpaceOnUse">
      <stop stop-color="#FF66A9"/>
      <stop offset="1" stop-color="#F53689"/>
    </linearGradient>
    <linearGradient id="paint1_linear_4173_34884" x1="107.376" x2="113.081" y1="78.6641" y2="78.6641" gradientUnits="userSpaceOnUse">
      <stop stop-color="#83A6FF"/>
      <stop offset="1" stop-color="#5A78FF"/>
    </linearGradient>
    <linearGradient id="paint2_linear_4173_34884" x1="79.0024" x2="79.0024" y1="70.4997" y2="124.796" gradientUnits="userSpaceOnUse">
      <stop stop-color="#FDFEFF"/>
      <stop offset=".9964" stop-color="#F5F2EC"/>
    </linearGradient>
    <linearGradient id="paint3_linear_4173_34884" x1="115.922" x2="115.922" y1="46.5284" y2="71.9799" gradientUnits="userSpaceOnUse">
      <stop stop-color="#fff"/>
      <stop offset=".9964" stop-color="#F5F2EC"/>
    </linearGradient>
    <linearGradient id="paint4_linear_4173_34884" x1="140.556" x2="140.556" y1="71.1451" y2="96.5965" gradientUnits="userSpaceOnUse">
      <stop stop-color="#FDFEFF"/>
      <stop offset=".9964" stop-color="#F5F2EC"/>
    </linearGradient>
    <filter id="filter0_d_4173_34884" width="123.594" height="96.5155" x="17.2314" y="60.7145" color-interpolation-filters="sRGB" filterUnits="userSpaceOnUse">
      <feFlood flood-opacity="0" result="BackgroundImageFix"/>
      <feColorMatrix in="SourceAlpha" result="hardAlpha" values="0 0 0 0 0 0 0 0 0 0 0 0 0 0 0 0 0 0 127 0"/>
      <feOffset dy="11"/>
      <feGaussianBlur stdDeviation="11"/>
      <feColorMatrix values="0 0 0 0 0.576471 0 0 0 0 0.501961 0 0 0 0 0.396078 0 0 0 0.16 0"/>
      <feBlend in2="BackgroundImageFix" result="effect1_dropShadow_4173_34884"/>
      <feBlend in="SourceGraphic" in2="effect1_dropShadow_4173_34884" result="shape"/>
    </filter>
    <filter id="filter1_d_4173_34884" width="73.54" height="96.5155" x="96.8252" y="60.7145" color-interpolation-filters="sRGB" filterUnits="userSpaceOnUse">
      <feFlood flood-opacity="0" result="BackgroundImageFix"/>
      <feColorMatrix in="SourceAlpha" result="hardAlpha" values="0 0 0 0 0 0 0 0 0 0 0 0 0 0 0 0 0 0 127 0"/>
      <feOffset dy="11"/>
      <feGaussianBlur stdDeviation="11"/>
      <feColorMatrix values="0 0 0 0 0.397708 0 0 0 0 0.47749 0 0 0 0 0.575 0 0 0 0.16 0"/>
      <feBlend in2="BackgroundImageFix" result="effect1_dropShadow_4173_34884"/>
      <feBlend in="SourceGraphic" in2="effect1_dropShadow_4173_34884" result="shape"/>
    </filter>
    <filter id="filter2_dd_4173_34884" width="140.005" height="68.6166" x="45.9512" y="36.0978" color-interpolation-filters="sRGB" filterUnits="userSpaceOnUse">
      <feFlood flood-opacity="0" result="BackgroundImageFix"/>
      <feColorMatrix in="SourceAlpha" result="hardAlpha" values="0 0 0 0 0 0 0 0 0 0 0 0 0 0 0 0 0 0 127 0"/>
      <feOffset dy="11"/>
      <feGaussianBlur stdDeviation="11"/>
      <feColorMatrix values="0 0 0 0 0.576471 0 0 0 0 0.501961 0 0 0 0 0.396078 0 0 0 0.16 0"/>
      <feBlend in2="BackgroundImageFix" result="effect1_dropShadow_4173_34884"/>
      <feColorMatrix in="SourceAlpha" result="hardAlpha" values="0 0 0 0 0 0 0 0 0 0 0 0 0 0 0 0 0 0 127 0"/>
      <feOffset dx="4"/>
      <feGaussianBlur stdDeviation="3"/>
      <feComposite in2="hardAlpha" operator="out"/>
      <feColorMatrix values="0 0 0 0 0.712712 0 0 0 0 0.678163 0 0 0 0 0.629794 0 0 0 0.05 0"/>
      <feBlend in2="effect1_dropShadow_4173_34884" result="effect2_dropShadow_4173_34884"/>
      <feBlend in="SourceGraphic" in2="effect2_dropShadow_4173_34884" result="shape"/>
    </filter>
    <filter id="filter3_d_4173_34884" width="87.4893" height="68.6166" x="96.8252" y="60.7145" color-interpolation-filters="sRGB" filterUnits="userSpaceOnUse">
      <feFlood flood-opacity="0" result="BackgroundImageFix"/>
      <feColorMatrix in="SourceAlpha" result="hardAlpha" values="0 0 0 0 0 0 0 0 0 0 0 0 0 0 0 0 0 0 127 0"/>
      <feOffset dy="11"/>
      <feGaussianBlur stdDeviation="11"/>
      <feColorMatrix values="0 0 0 0 0.576471 0 0 0 0 0.501961 0 0 0 0 0.396078 0 0 0 0.16 0"/>
      <feBlend in2="BackgroundImageFix" result="effect1_dropShadow_4173_34884"/>
      <feBlend in="SourceGraphic" in2="effect1_dropShadow_4173_34884" result="shape"/>
    </filter>
    <filter id="filter4_d_4173_34884" width="140.825" height="68.6166" x="0" y="36.0978" color-interpolation-filters="sRGB" filterUnits="userSpaceOnUse">
      <feFlood flood-opacity="0" result="BackgroundImageFix"/>
      <feColorMatrix in="SourceAlpha" result="hardAlpha" values="0 0 0 0 0 0 0 0 0 0 0 0 0 0 0 0 0 0 127 0"/>
      <feOffset dy="11"/>
      <feGaussianBlur stdDeviation="11"/>
      <feColorMatrix values="0 0 0 0 0.576471 0 0 0 0 0.501961 0 0 0 0 0.396078 0 0 0 0.16 0"/>
      <feBlend in2="BackgroundImageFix" result="effect1_dropShadow_4173_34884"/>
      <feBlend in="SourceGraphic" in2="effect1_dropShadow_4173_34884" result="shape"/>
    </filter>
  </defs>
</svg>