<svg width="48" height="48" viewBox="0 0 48 48" fill="none" xmlns="http://www.w3.org/2000/svg">
<path d="M39.9395 38.9204C39.1195 38.9204 38.4395 39.6004 38.4395 40.4204V41.4204H31.4595V40.4204C31.4595 39.6004 30.7795 38.9204 29.9595 38.9204C29.1395 38.9204 28.4595 39.6004 28.4595 40.4204V41.4204H18.9995V40.4204C18.9995 39.6004 18.3195 38.9204 17.4995 38.9204C16.6795 38.9204 15.9995 39.6004 15.9995 40.4204V41.4204H9.01953V40.4204C9.01953 39.6004 8.33953 38.9204 7.51953 38.9204C6.69953 38.9204 6.01953 39.6004 6.01953 40.4204V42.9204C6.01953 43.7404 6.69953 44.4204 7.51953 44.4204H39.9395C40.7795 44.4204 41.4395 43.7604 41.4395 42.9204V40.4204C41.4395 39.6004 40.7595 38.9204 39.9395 38.9204Z" fill="#212121"/>
<path d="M41.3 12.181C40.52 11.721 39.62 11.481 38.66 11.481C35.78 11.501 33.46 13.841 33.46 16.721C33.46 19.601 35.78 21.941 38.68 21.961C39.62 21.961 40.52 21.701 41.3 21.241C42.92 20.301 43.92 18.561 43.92 16.721C43.92 14.881 42.92 13.121 41.3 12.181ZM38.68 18.961C37.4 18.941 36.42 17.961 36.42 16.721C36.42 15.481 37.4 14.481 38.68 14.461C39.92 14.461 40.94 15.481 40.94 16.721C40.94 17.961 39.92 18.961 38.68 18.961Z" fill="#212121"/>
<path d="M38.48 9.46049H38.68C39 9.46049 39.3 9.48049 39.6 9.52049H39.64C39.88 9.56049 40.12 9.60049 40.34 9.66049C40.48 9.66049 40.64 9.72049 40.78 9.78049C40.9 9.80049 41 9.84049 41.12 9.88049L41.42 9.98049V9.48049C41.42 6.46049 38.96 4.00049 35.92 4.00049H11.5C8.46 4.00049 6 6.46049 6 9.48049V31.4405C6 34.4605 8.46 36.9205 11.5 36.9205H35.92C38.96 36.9205 41.42 34.4605 41.42 31.4405V23.4605L41.12 23.5605C41 23.6005 40.9 23.6405 40.78 23.6605C40.64 23.7205 40.48 23.7605 40.32 23.7805C40.12 23.8405 39.92 23.8805 39.72 23.9005C39.66 23.9205 39.6 23.9205 39.56 23.9205C39.28 23.9605 38.98 23.9805 38.7 23.9805H38.66C34.64 23.9405 31.42 20.7005 31.42 16.7405C31.42 12.7805 34.58 9.56049 38.48 9.46049ZM10.58 20.6805C10.52 20.3005 10.62 19.9005 10.86 19.5805C11.1 19.2605 11.44 19.0605 11.84 19.0005L13.8 18.7205C14.64 18.6205 15.36 19.1805 15.48 20.0005C15.54 20.4005 15.44 20.7805 15.2 21.1005C14.96 21.4205 14.62 21.6405 14.22 21.7005L12.26 21.9605H12.06C11.3 21.9805 10.66 21.4205 10.58 20.6805ZM23.04 20.4405L18.84 21.0205C18.84 21.0205 18.76 21.0405 18.72 21.0405C17.98 21.0405 17.36 20.5005 17.24 19.7405C17.12 18.9405 17.7 18.1805 18.5 18.0605L22.62 17.4805C23.02 17.4205 23.42 17.5205 23.72 17.7605C24.04 18.0005 24.26 18.3405 24.3 18.7405C24.42 19.5605 23.86 20.3205 23.04 20.4405ZM25.4 24.9605C25.74 24.7805 26.16 24.7605 26.52 24.8805C26.92 25.0005 27.22 25.2805 27.42 25.6405C27.6 26.0005 27.62 26.4005 27.5 26.7805C27.38 27.1605 27.1 27.4805 26.74 27.6605L23.26 29.4005C23.02 29.4805 22.8 29.5405 22.58 29.5405C22.02 29.5405 21.5 29.2205 21.26 28.7205C21.08 28.3805 21.04 27.9805 21.16 27.6005C21.3 27.2005 21.56 26.8805 21.92 26.7005L25.4 24.9605ZM17.96 28.7005C18.3 28.5205 18.7 28.4805 19.08 28.6205C19.48 28.7405 19.78 29.0205 19.96 29.3805C20.14 29.7405 20.18 30.1405 20.06 30.5205C19.92 30.9005 19.66 31.2005 19.3 31.3805L17.52 32.2605C17.28 32.3605 17.04 32.4205 16.84 32.4205C16.28 32.4205 15.76 32.0805 15.5 31.5805C15.32 31.2405 15.3 30.8205 15.42 30.4605C15.54 30.0805 15.82 29.7605 16.18 29.5805L17.96 28.7005ZM27.54 19.7605C26.8 19.7605 26.16 19.2005 26.06 18.4605C25.94 17.6605 26.52 16.9005 27.34 16.7805L29.28 16.5005C29.68 16.4405 30.06 16.5405 30.38 16.7805C30.7 17.0205 30.92 17.3805 30.98 17.7605C31.1 18.5805 30.52 19.3405 29.7 19.4605L27.76 19.7405C27.76 19.7405 27.62 19.7605 27.54 19.7605ZM32.26 22.0205C32.64 22.1605 32.96 22.4205 33.14 22.8005C33.32 23.1405 33.36 23.5405 33.22 23.9205C33.1 24.3005 32.82 24.6205 32.46 24.8005L30.68 25.6805C30.48 25.7805 30.24 25.8205 30.04 25.8205C29.46 25.8205 28.94 25.5005 28.7 25.0005C28.32 24.2805 28.62 23.3605 29.34 23.0005L31.14 22.1205C31.48 21.9405 31.88 21.9005 32.26 22.0205Z" fill="#212121"/>
</svg>
