<svg width="16" height="16" viewBox="0 0 16 16" fill="none" xmlns="http://www.w3.org/2000/svg">
<path d="M13.3132 12.973C13.0398 12.973 12.8132 13.1996 12.8132 13.473V13.8063H10.4865V13.473C10.4865 13.1996 10.2598 12.973 9.98651 12.973C9.71318 12.973 9.48651 13.1996 9.48651 13.473V13.8063H6.33318V13.473C6.33318 13.1996 6.10651 12.973 5.83318 12.973C5.55984 12.973 5.33318 13.1996 5.33318 13.473V13.8063H3.00651V13.473C3.00651 13.1996 2.77984 12.973 2.50651 12.973C2.23318 12.973 2.00651 13.1996 2.00651 13.473V14.3063C2.00651 14.5796 2.23318 14.8063 2.50651 14.8063H13.3132C13.5932 14.8063 13.8132 14.5863 13.8132 14.3063V13.473C13.8132 13.1996 13.5865 12.973 13.3132 12.973Z" fill="#212121"/>
<path d="M13.7667 4.05983C13.5067 3.9065 13.2067 3.8265 12.8867 3.8265C11.9267 3.83316 11.1533 4.61316 11.1533 5.57316C11.1533 6.53316 11.9267 7.31316 12.8933 7.31983C13.2067 7.31983 13.5067 7.23316 13.7667 7.07983C14.3067 6.7665 14.64 6.1865 14.64 5.57316C14.64 4.95983 14.3067 4.37316 13.7667 4.05983ZM12.8933 6.31983C12.4667 6.31316 12.14 5.9865 12.14 5.57316C12.14 5.15983 12.4667 4.8265 12.8933 4.81983C13.3067 4.81983 13.6467 5.15983 13.6467 5.57316C13.6467 5.9865 13.3067 6.31983 12.8933 6.31983Z" fill="#212121"/>
<path d="M12.8267 3.15301H12.8933C13 3.15301 13.1 3.15967 13.2 3.17301H13.2133C13.2933 3.18634 13.3733 3.19967 13.4467 3.21967C13.4933 3.21967 13.5467 3.23967 13.5933 3.25967C13.6333 3.26634 13.6667 3.27967 13.7067 3.29301L13.8067 3.32634V3.15967C13.8067 2.15301 12.9867 1.33301 11.9733 1.33301H3.83333C2.82 1.33301 2 2.15301 2 3.15967V10.4797C2 11.4863 2.82 12.3063 3.83333 12.3063H11.9733C12.9867 12.3063 13.8067 11.4863 13.8067 10.4797V7.81967L13.7067 7.85301C13.6667 7.86634 13.6333 7.87967 13.5933 7.88634C13.5467 7.90634 13.4933 7.91967 13.44 7.92634C13.3733 7.94634 13.3067 7.95967 13.24 7.96634C13.22 7.97301 13.2 7.97301 13.1867 7.97301C13.0933 7.98634 12.9933 7.99301 12.9 7.99301H12.8867C11.5467 7.97967 10.4733 6.89967 10.4733 5.57967C10.4733 4.25967 11.5267 3.18634 12.8267 3.15301ZM3.52667 6.89301C3.50667 6.76634 3.54 6.63301 3.62 6.52634C3.7 6.41967 3.81333 6.35301 3.94667 6.33301L4.6 6.23967C4.88 6.20634 5.12 6.39301 5.16 6.66634C5.18 6.79967 5.14667 6.92634 5.06667 7.03301C4.98667 7.13967 4.87333 7.21301 4.74 7.23301L4.08667 7.31967H4.02C3.76667 7.32634 3.55333 7.13967 3.52667 6.89301ZM7.68 6.81301L6.28 7.00634C6.28 7.00634 6.25333 7.01301 6.24 7.01301C5.99333 7.01301 5.78667 6.83301 5.74667 6.57967C5.70667 6.31301 5.9 6.05967 6.16667 6.01967L7.54 5.82634C7.67333 5.80634 7.80667 5.83967 7.90667 5.91967C8.01333 5.99967 8.08667 6.11301 8.1 6.24634C8.14 6.51967 7.95333 6.77301 7.68 6.81301ZM8.46667 8.31967C8.58 8.25967 8.72 8.25301 8.84 8.29301C8.97333 8.33301 9.07333 8.42634 9.14 8.54634C9.2 8.66634 9.20667 8.79967 9.16667 8.92634C9.12667 9.05301 9.03333 9.15967 8.91333 9.21967L7.75333 9.79967C7.67333 9.82634 7.6 9.84634 7.52667 9.84634C7.34 9.84634 7.16667 9.73967 7.08667 9.57301C7.02667 9.45967 7.01333 9.32634 7.05333 9.19967C7.1 9.06634 7.18667 8.95967 7.30667 8.89967L8.46667 8.31967ZM5.98667 9.56634C6.1 9.50634 6.23333 9.49301 6.36 9.53967C6.49333 9.57967 6.59333 9.67301 6.65333 9.79301C6.71333 9.91301 6.72667 10.0463 6.68667 10.173C6.64 10.2997 6.55333 10.3997 6.43333 10.4597L5.84 10.753C5.76 10.7863 5.68 10.8063 5.61333 10.8063C5.42667 10.8063 5.25333 10.693 5.16667 10.5263C5.10667 10.413 5.1 10.273 5.14 10.153C5.18 10.0263 5.27333 9.91967 5.39333 9.85967L5.98667 9.56634ZM9.18 6.58634C8.93333 6.58634 8.72 6.39967 8.68667 6.15301C8.64667 5.88634 8.84 5.63301 9.11333 5.59301L9.76 5.49967C9.89333 5.47967 10.02 5.51301 10.1267 5.59301C10.2333 5.67301 10.3067 5.79301 10.3267 5.91967C10.3667 6.19301 10.1733 6.44634 9.9 6.48634L9.25333 6.57967C9.25333 6.57967 9.20667 6.58634 9.18 6.58634ZM10.7533 7.33967C10.88 7.38634 10.9867 7.47301 11.0467 7.59967C11.1067 7.71301 11.12 7.84634 11.0733 7.97301C11.0333 8.09967 10.94 8.20634 10.82 8.26634L10.2267 8.55967C10.16 8.59301 10.08 8.60634 10.0133 8.60634C9.82 8.60634 9.64667 8.49967 9.56667 8.33301C9.44 8.09301 9.54 7.78634 9.78 7.66634L10.38 7.37301C10.4933 7.31301 10.6267 7.29967 10.7533 7.33967Z" fill="#212121"/>
</svg>
