<svg width="32" height="32" viewBox="0 0 32 32" fill="none" xmlns="http://www.w3.org/2000/svg">
<path d="M26.6264 25.9469C26.0797 25.9469 25.6264 26.4003 25.6264 26.9469V27.6136H20.973V26.9469C20.973 26.4003 20.5197 25.9469 19.973 25.9469C19.4264 25.9469 18.973 26.4003 18.973 26.9469V27.6136H12.6664V26.9469C12.6664 26.4003 12.213 25.9469 11.6664 25.9469C11.1197 25.9469 10.6664 26.4003 10.6664 26.9469V27.6136H6.01302V26.9469C6.01302 26.4003 5.55969 25.9469 5.01302 25.9469C4.46635 25.9469 4.01302 26.4003 4.01302 26.9469V28.6136C4.01302 29.1603 4.46635 29.6136 5.01302 29.6136H26.6264C27.1864 29.6136 27.6264 29.1736 27.6264 28.6136V26.9469C27.6264 26.4003 27.173 25.9469 26.6264 25.9469Z" fill="#212121"/>
<path d="M27.5333 8.12064C27.0133 7.81397 26.4133 7.65397 25.7733 7.65397C23.8533 7.6673 22.3066 9.2273 22.3066 11.1473C22.3066 13.0673 23.8533 14.6273 25.7866 14.6406C26.4133 14.6406 27.0133 14.4673 27.5333 14.1606C28.6133 13.534 29.28 12.374 29.28 11.1473C29.28 9.92064 28.6133 8.7473 27.5333 8.12064ZM25.7866 12.6406C24.9333 12.6273 24.28 11.974 24.28 11.1473C24.28 10.3206 24.9333 9.65397 25.7866 9.64064C26.6133 9.64064 27.2933 10.3206 27.2933 11.1473C27.2933 11.974 26.6133 12.6406 25.7866 12.6406Z" fill="#212121"/>
<path d="M25.6533 6.30699H25.7867C26 6.30699 26.2 6.32033 26.4 6.34699H26.4267C26.5867 6.37366 26.7467 6.40033 26.8933 6.44033C26.9867 6.44033 27.0933 6.48033 27.1867 6.52033C27.2667 6.53366 27.3333 6.56033 27.4133 6.58699L27.6133 6.65366V6.32033C27.6133 4.30699 25.9733 2.66699 23.9467 2.66699H7.66667C5.64 2.66699 4 4.30699 4 6.32033V20.9603C4 22.9737 5.64 24.6137 7.66667 24.6137H23.9467C25.9733 24.6137 27.6133 22.9737 27.6133 20.9603V15.6403L27.4133 15.707C27.3333 15.7337 27.2667 15.7603 27.1867 15.7737C27.0933 15.8137 26.9867 15.8403 26.88 15.8537C26.7467 15.8937 26.6133 15.9203 26.48 15.9337C26.44 15.947 26.4 15.947 26.3733 15.947C26.1867 15.9737 25.9867 15.987 25.8 15.987H25.7733C23.0933 15.9603 20.9467 13.8003 20.9467 11.1603C20.9467 8.52033 23.0533 6.37366 25.6533 6.30699ZM7.05333 13.787C7.01333 13.5337 7.08 13.267 7.24 13.0537C7.4 12.8403 7.62667 12.707 7.89333 12.667L9.2 12.4803C9.76 12.4137 10.24 12.787 10.32 13.3337C10.36 13.6003 10.2933 13.8537 10.1333 14.067C9.97333 14.2803 9.74667 14.427 9.48 14.467L8.17333 14.6403H8.04C7.53333 14.6537 7.10667 14.2803 7.05333 13.787ZM15.36 13.627L12.56 14.0137C12.56 14.0137 12.5067 14.027 12.48 14.027C11.9867 14.027 11.5733 13.667 11.4933 13.1603C11.4133 12.627 11.8 12.1203 12.3333 12.0403L15.08 11.6537C15.3467 11.6137 15.6133 11.6803 15.8133 11.8403C16.0267 12.0003 16.1733 12.227 16.2 12.4937C16.28 13.0403 15.9067 13.547 15.36 13.627ZM16.9333 16.6403C17.16 16.5203 17.44 16.507 17.68 16.587C17.9467 16.667 18.1467 16.8537 18.28 17.0937C18.4 17.3337 18.4133 17.6003 18.3333 17.8537C18.2533 18.107 18.0667 18.3203 17.8267 18.4403L15.5067 19.6003C15.3467 19.6537 15.2 19.6937 15.0533 19.6937C14.68 19.6937 14.3333 19.4803 14.1733 19.147C14.0533 18.9203 14.0267 18.6537 14.1067 18.4003C14.2 18.1337 14.3733 17.9203 14.6133 17.8003L16.9333 16.6403ZM11.9733 19.1337C12.2 19.0137 12.4667 18.987 12.72 19.0803C12.9867 19.1603 13.1867 19.347 13.3067 19.587C13.4267 19.827 13.4533 20.0937 13.3733 20.347C13.28 20.6003 13.1067 20.8003 12.8667 20.9203L11.68 21.507C11.52 21.5737 11.36 21.6137 11.2267 21.6137C10.8533 21.6137 10.5067 21.387 10.3333 21.0537C10.2133 20.827 10.2 20.547 10.28 20.307C10.36 20.0537 10.5467 19.8403 10.7867 19.7203L11.9733 19.1337ZM18.36 13.1737C17.8667 13.1737 17.44 12.8003 17.3733 12.307C17.2933 11.7737 17.68 11.267 18.2267 11.187L19.52 11.0003C19.7867 10.9603 20.04 11.027 20.2533 11.187C20.4667 11.347 20.6133 11.587 20.6533 11.8403C20.7333 12.387 20.3467 12.8937 19.8 12.9737L18.5067 13.1603C18.5067 13.1603 18.4133 13.1737 18.36 13.1737ZM21.5067 14.6803C21.76 14.7737 21.9733 14.947 22.0933 15.2003C22.2133 15.427 22.24 15.6937 22.1467 15.947C22.0667 16.2003 21.88 16.4137 21.64 16.5337L20.4533 17.1203C20.32 17.187 20.16 17.2137 20.0267 17.2137C19.64 17.2137 19.2933 17.0003 19.1333 16.667C18.88 16.187 19.08 15.5737 19.56 15.3337L20.76 14.747C20.9867 14.627 21.2533 14.6003 21.5067 14.6803Z" fill="#212121"/>
</svg>
