<svg width="20" height="20" viewBox="0 0 20 20" fill="none" xmlns="http://www.w3.org/2000/svg">
<path d="M16.6415 16.2165C16.2998 16.2165 16.0165 16.4998 16.0165 16.8415V17.2581H13.1081V16.8415C13.1081 16.4998 12.8248 16.2165 12.4831 16.2165C12.1415 16.2165 11.8581 16.4998 11.8581 16.8415V17.2581H7.91647V16.8415C7.91647 16.4998 7.63314 16.2165 7.29147 16.2165C6.9498 16.2165 6.66647 16.4998 6.66647 16.8415V17.2581H3.75814V16.8415C3.75814 16.4998 3.4748 16.2165 3.13314 16.2165C2.79147 16.2165 2.50814 16.4998 2.50814 16.8415V17.8831C2.50814 18.2248 2.79147 18.5081 3.13314 18.5081H16.6415C16.9915 18.5081 17.2665 18.2331 17.2665 17.8831V16.8415C17.2665 16.4998 16.9831 16.2165 16.6415 16.2165Z" fill="#212121"/>
<path d="M17.2083 5.07503C16.8833 4.88337 16.5083 4.78337 16.1083 4.78337C14.9083 4.7917 13.9417 5.7667 13.9417 6.9667C13.9417 8.1667 14.9083 9.1417 16.1167 9.15003C16.5083 9.15003 16.8833 9.0417 17.2083 8.85003C17.8833 8.45837 18.3 7.73337 18.3 6.9667C18.3 6.20003 17.8833 5.4667 17.2083 5.07503ZM16.1167 7.90003C15.5833 7.8917 15.175 7.48337 15.175 6.9667C15.175 6.45003 15.5833 6.03337 16.1167 6.02503C16.6333 6.02503 17.0583 6.45003 17.0583 6.9667C17.0583 7.48337 16.6333 7.90003 16.1167 7.90003Z" fill="#212121"/>
<path d="M16.0333 3.9415H16.1167C16.25 3.9415 16.375 3.94984 16.5 3.9665H16.5167C16.6167 3.98317 16.7167 3.99984 16.8083 4.02484C16.8667 4.02484 16.9333 4.04984 16.9917 4.07484C17.0417 4.08317 17.0833 4.09984 17.1333 4.1165L17.2583 4.15817V3.94984C17.2583 2.6915 16.2333 1.6665 14.9667 1.6665H4.79167C3.525 1.6665 2.5 2.6915 2.5 3.94984V13.0998C2.5 14.3582 3.525 15.3832 4.79167 15.3832H14.9667C16.2333 15.3832 17.2583 14.3582 17.2583 13.0998V9.77484L17.1333 9.8165C17.0833 9.83317 17.0417 9.84984 16.9917 9.85817C16.9333 9.88317 16.8667 9.89984 16.8 9.90817C16.7167 9.93317 16.6333 9.94984 16.55 9.95817C16.525 9.9665 16.5 9.9665 16.4833 9.9665C16.3667 9.98317 16.2417 9.9915 16.125 9.9915H16.1083C14.4333 9.97484 13.0917 8.62484 13.0917 6.97484C13.0917 5.32484 14.4083 3.98317 16.0333 3.9415ZM4.40833 8.6165C4.38333 8.45817 4.425 8.2915 4.525 8.15817C4.625 8.02484 4.76667 7.9415 4.93333 7.9165L5.75 7.79984C6.1 7.75817 6.4 7.9915 6.45 8.33317C6.475 8.49984 6.43333 8.65817 6.33333 8.7915C6.23333 8.92484 6.09167 9.0165 5.925 9.0415L5.10833 9.14984H5.025C4.70833 9.15817 4.44167 8.92484 4.40833 8.6165ZM9.6 8.5165L7.85 8.75817C7.85 8.75817 7.81667 8.7665 7.8 8.7665C7.49167 8.7665 7.23333 8.5415 7.18333 8.22484C7.13333 7.8915 7.375 7.57484 7.70833 7.52484L9.425 7.28317C9.59167 7.25817 9.75833 7.29984 9.88333 7.39984C10.0167 7.49984 10.1083 7.6415 10.125 7.80817C10.175 8.14984 9.94167 8.4665 9.6 8.5165ZM10.5833 10.3998C10.725 10.3248 10.9 10.3165 11.05 10.3665C11.2167 10.4165 11.3417 10.5332 11.425 10.6832C11.5 10.8332 11.5083 10.9998 11.4583 11.1582C11.4083 11.3165 11.2917 11.4498 11.1417 11.5248L9.69167 12.2498C9.59167 12.2832 9.5 12.3082 9.40833 12.3082C9.175 12.3082 8.95833 12.1748 8.85833 11.9665C8.78333 11.8248 8.76667 11.6582 8.81667 11.4998C8.875 11.3332 8.98333 11.1998 9.13333 11.1248L10.5833 10.3998ZM7.48333 11.9582C7.625 11.8832 7.79167 11.8665 7.95 11.9248C8.11667 11.9748 8.24167 12.0915 8.31667 12.2415C8.39167 12.3915 8.40833 12.5582 8.35833 12.7165C8.3 12.8748 8.19167 12.9998 8.04167 13.0748L7.3 13.4415C7.2 13.4832 7.1 13.5082 7.01667 13.5082C6.78333 13.5082 6.56667 13.3665 6.45833 13.1582C6.38333 13.0165 6.375 12.8415 6.425 12.6915C6.475 12.5332 6.59167 12.3998 6.74167 12.3248L7.48333 11.9582ZM11.475 8.23317C11.1667 8.23317 10.9 7.99984 10.8583 7.6915C10.8083 7.35817 11.05 7.0415 11.3917 6.9915L12.2 6.87484C12.3667 6.84984 12.525 6.8915 12.6583 6.9915C12.7917 7.0915 12.8833 7.2415 12.9083 7.39984C12.9583 7.7415 12.7167 8.05817 12.375 8.10817L11.5667 8.22484C11.5667 8.22484 11.5083 8.23317 11.475 8.23317ZM13.4417 9.17484C13.6 9.23317 13.7333 9.3415 13.8083 9.49984C13.8833 9.6415 13.9 9.80817 13.8417 9.9665C13.7917 10.1248 13.675 10.2582 13.525 10.3332L12.7833 10.6998C12.7 10.7415 12.6 10.7582 12.5167 10.7582C12.275 10.7582 12.0583 10.6248 11.9583 10.4165C11.8 10.1165 11.925 9.73317 12.225 9.58317L12.975 9.2165C13.1167 9.1415 13.2833 9.12484 13.4417 9.17484Z" fill="#212121"/>
</svg>
