<svg width="24" height="24" viewBox="0 0 24 24" fill="none" xmlns="http://www.w3.org/2000/svg">
<path d="M19.9698 19.46C19.5598 19.46 19.2198 19.8 19.2198 20.21V20.71H15.7298V20.21C15.7298 19.8 15.3898 19.46 14.9798 19.46C14.5698 19.46 14.2298 19.8 14.2298 20.21V20.71H9.49977V20.21C9.49977 19.8 9.15977 19.46 8.74977 19.46C8.33977 19.46 7.99977 19.8 7.99977 20.21V20.71H4.50977V20.21C4.50977 19.8 4.16977 19.46 3.75977 19.46C3.34977 19.46 3.00977 19.8 3.00977 20.21V21.46C3.00977 21.87 3.34977 22.21 3.75977 22.21H19.9698C20.3898 22.21 20.7198 21.88 20.7198 21.46V20.21C20.7198 19.8 20.3798 19.46 19.9698 19.46Z" fill="#212121"/>
<path d="M20.65 6.09023C20.26 5.86023 19.81 5.74023 19.33 5.74023C17.89 5.75023 16.73 6.92023 16.73 8.36023C16.73 9.80023 17.89 10.9702 19.34 10.9802C19.81 10.9802 20.26 10.8502 20.65 10.6202C21.46 10.1502 21.96 9.28023 21.96 8.36023C21.96 7.44023 21.46 6.56023 20.65 6.09023ZM19.34 9.48023C18.7 9.47023 18.21 8.98023 18.21 8.36023C18.21 7.74023 18.7 7.24023 19.34 7.23023C19.96 7.23023 20.47 7.74023 20.47 8.36023C20.47 8.98023 19.96 9.48023 19.34 9.48023Z" fill="#212121"/>
<path d="M19.24 4.73H19.34C19.5 4.73 19.65 4.74 19.8 4.76H19.82C19.94 4.78 20.06 4.8 20.17 4.83C20.24 4.83 20.32 4.86 20.39 4.89C20.45 4.9 20.5 4.92 20.56 4.94L20.71 4.99V4.74C20.71 3.23 19.48 2 17.96 2H5.75C4.23 2 3 3.23 3 4.74V15.72C3 17.23 4.23 18.46 5.75 18.46H17.96C19.48 18.46 20.71 17.23 20.71 15.72V11.73L20.56 11.78C20.5 11.8 20.45 11.82 20.39 11.83C20.32 11.86 20.24 11.88 20.16 11.89C20.06 11.92 19.96 11.94 19.86 11.95C19.83 11.96 19.8 11.96 19.78 11.96C19.64 11.98 19.49 11.99 19.35 11.99H19.33C17.32 11.97 15.71 10.35 15.71 8.37C15.71 6.39 17.29 4.78 19.24 4.73ZM5.29 10.34C5.26 10.15 5.31 9.95 5.43 9.79C5.55 9.63 5.72 9.53 5.92 9.5L6.9 9.36C7.32 9.31 7.68 9.59 7.74 10C7.77 10.2 7.72 10.39 7.6 10.55C7.48 10.71 7.31 10.82 7.11 10.85L6.13 10.98H6.03C5.65 10.99 5.33 10.71 5.29 10.34ZM11.52 10.22L9.42 10.51C9.42 10.51 9.38 10.52 9.36 10.52C8.99 10.52 8.68 10.25 8.62 9.87C8.56 9.47 8.85 9.09 9.25 9.03L11.31 8.74C11.51 8.71 11.71 8.76 11.86 8.88C12.02 9 12.13 9.17 12.15 9.37C12.21 9.78 11.93 10.16 11.52 10.22ZM12.7 12.48C12.87 12.39 13.08 12.38 13.26 12.44C13.46 12.5 13.61 12.64 13.71 12.82C13.8 13 13.81 13.2 13.75 13.39C13.69 13.58 13.55 13.74 13.37 13.83L11.63 14.7C11.51 14.74 11.4 14.77 11.29 14.77C11.01 14.77 10.75 14.61 10.63 14.36C10.54 14.19 10.52 13.99 10.58 13.8C10.65 13.6 10.78 13.44 10.96 13.35L12.7 12.48ZM8.98 14.35C9.15 14.26 9.35 14.24 9.54 14.31C9.74 14.37 9.89 14.51 9.98 14.69C10.07 14.87 10.09 15.07 10.03 15.26C9.96 15.45 9.83 15.6 9.65 15.69L8.76 16.13C8.64 16.18 8.52 16.21 8.42 16.21C8.14 16.21 7.88 16.04 7.75 15.79C7.66 15.62 7.65 15.41 7.71 15.23C7.77 15.04 7.91 14.88 8.09 14.79L8.98 14.35ZM13.77 9.88C13.4 9.88 13.08 9.6 13.03 9.23C12.97 8.83 13.26 8.45 13.67 8.39L14.64 8.25C14.84 8.22 15.03 8.27 15.19 8.39C15.35 8.51 15.46 8.69 15.49 8.88C15.55 9.29 15.26 9.67 14.85 9.73L13.88 9.87C13.88 9.87 13.81 9.88 13.77 9.88ZM16.13 11.01C16.32 11.08 16.48 11.21 16.57 11.4C16.66 11.57 16.68 11.77 16.61 11.96C16.55 12.15 16.41 12.31 16.23 12.4L15.34 12.84C15.24 12.89 15.12 12.91 15.02 12.91C14.73 12.91 14.47 12.75 14.35 12.5C14.16 12.14 14.31 11.68 14.67 11.5L15.57 11.06C15.74 10.97 15.94 10.95 16.13 11.01Z" fill="#212121"/>
</svg>
