<svg width="16" height="16" viewBox="0 0 16 16" fill="none" xmlns="http://www.w3.org/2000/svg">
<path d="M3.93353 12.2407H12.0735C13.0802 12.2407 13.9069 11.4207 13.9069 10.4141V7.75406L13.8069 7.7874C13.5469 7.88073 13.2669 7.9274 12.9869 7.9274H12.9135V10.4074C12.9135 10.8674 12.5402 11.2407 12.0735 11.2407H3.93353C3.47353 11.2407 3.1002 10.8674 3.1002 10.4074V3.08742C3.1002 2.62742 3.47353 2.25408 3.93353 2.25408H12.0735C12.5135 2.25408 12.8669 2.58075 12.9069 3.01408L12.9269 3.08075H12.9935C13.2669 3.08075 13.5469 3.12742 13.8069 3.22075L13.9069 3.25408V3.08075C13.9069 2.07408 13.0869 1.26074 12.0735 1.26074H3.93353C2.92686 1.26074 2.1002 2.08075 2.1002 3.08075V10.4074C2.1002 11.4141 2.9202 12.2341 3.93353 12.2341V12.2407Z" fill="#212121"/>
<path d="M4.0535 6.26747C3.92017 6.28747 3.80684 6.35413 3.72684 6.4608C3.64684 6.56747 3.6135 6.7008 3.6335 6.82747C3.66684 7.07413 3.8735 7.2608 4.12684 7.2608H4.20017L4.8535 7.16747C4.98684 7.14747 5.10017 7.0808 5.18017 6.97413C5.26017 6.86747 5.2935 6.7408 5.2735 6.60747C5.2335 6.33413 4.9935 6.14747 4.7135 6.1808L4.06017 6.27413L4.0535 6.26747Z" fill="#212121"/>
<path d="M8.2069 6.18075C8.1869 6.04741 8.12023 5.93408 8.01357 5.85408C7.9069 5.77408 7.78023 5.74075 7.6469 5.76075L6.27354 5.95408C6.00021 5.99408 5.81354 6.24741 5.85354 6.51408C5.89354 6.76073 6.10021 6.94073 6.34688 6.94073C6.36021 6.94073 6.37354 6.94073 6.38687 6.94073L7.7869 6.7474C8.06023 6.7074 8.2469 6.45408 8.2069 6.18741V6.18075Z" fill="#212121"/>
<path d="M10.4267 5.85419C10.4067 5.72085 10.34 5.60752 10.2334 5.52752C10.1267 5.44752 9.99338 5.41419 9.86672 5.43419L9.21338 5.52752C8.94005 5.56752 8.75338 5.82085 8.79338 6.08752C8.82672 6.33418 9.03338 6.52085 9.28672 6.52085C9.31338 6.52085 9.34005 6.52085 9.36005 6.51418L10.0134 6.42085C10.2867 6.38085 10.4734 6.12752 10.4334 5.86085L10.4267 5.85419Z" fill="#212121"/>
<path d="M6.46682 9.46662C6.34015 9.42662 6.20682 9.43329 6.08682 9.49329L5.49349 9.78662C5.37349 9.84662 5.28015 9.95329 5.24015 10.08C5.20015 10.2066 5.20682 10.34 5.26682 10.46C5.34682 10.6266 5.52682 10.7333 5.71349 10.7333C5.78682 10.7333 5.86015 10.72 5.94015 10.6866L6.53349 10.3933C6.65349 10.3333 6.74683 10.2266 6.78683 10.1C6.82683 9.97329 6.82017 9.83995 6.76017 9.71995C6.70017 9.59995 6.59349 9.50662 6.46682 9.46662Z" fill="#212121"/>
<path d="M7.63338 9.77383C7.70005 9.77383 7.78005 9.7605 7.86005 9.72717L9.02005 9.14717C9.14005 9.08717 9.23338 8.9805 9.27338 8.85383C9.31338 8.72717 9.30672 8.59383 9.24672 8.4805C9.18672 8.3605 9.08005 8.26717 8.95338 8.22717C8.82672 8.18717 8.69338 8.19383 8.58005 8.25383L7.42005 8.83383C7.30005 8.89383 7.20672 9.0005 7.16672 9.12717C7.12672 9.25383 7.13338 9.38717 7.19338 9.5005C7.27338 9.66717 7.45338 9.77383 7.64005 9.77383H7.63338Z" fill="#212121"/>
<path d="M10.1132 8.54029C10.1865 8.54029 10.2599 8.52696 10.3332 8.49362L10.9265 8.20029C11.0465 8.14029 11.1399 8.03362 11.1799 7.90696C11.2199 7.78029 11.2132 7.64696 11.1532 7.53362C11.0932 7.41362 10.9865 7.32029 10.8599 7.28029C10.7332 7.24029 10.5999 7.24696 10.4865 7.30696L9.89321 7.60029C9.65321 7.72696 9.55321 8.03362 9.67321 8.27362C9.75988 8.44029 9.93321 8.54696 10.1199 8.54696L10.1132 8.54029Z" fill="#212121"/>
<path d="M13.4134 12.9012C13.1401 12.9012 12.9134 13.1278 12.9134 13.4012V13.7345H10.5868V13.4012C10.5868 13.1278 10.3601 12.9012 10.0868 12.9012C9.81343 12.9012 9.58676 13.1278 9.58676 13.4012V13.7345H6.42676V13.4012C6.42676 13.1278 6.2001 12.9012 5.92676 12.9012C5.65343 12.9012 5.42676 13.1278 5.42676 13.4012V13.7345H3.1001V13.4012C3.1001 13.1278 2.87343 12.9012 2.6001 12.9012C2.32676 12.9012 2.1001 13.1278 2.1001 13.4012V14.2345C2.1001 14.5078 2.32676 14.7345 2.6001 14.7345H13.4134C13.6934 14.7345 13.9134 14.5145 13.9134 14.2345V13.4012C13.9134 13.1278 13.6868 12.9012 13.4134 12.9012Z" fill="#212121"/>
<path d="M13.8732 3.99388C13.6132 3.84055 13.3132 3.76055 12.9866 3.76055C12.0266 3.76721 11.2532 4.55389 11.2532 5.50722C11.2532 6.46055 12.0332 7.24053 12.9999 7.2472C13.3132 7.2472 13.6132 7.1672 13.8732 7.01387C14.4066 6.70053 14.7399 6.12055 14.7399 5.50722C14.7399 4.89389 14.4066 4.30721 13.8732 3.99388ZM12.9999 6.25389C12.5732 6.25389 12.2466 5.92055 12.2466 5.50722C12.2466 5.09389 12.5732 4.76055 12.9999 4.75389C13.4132 4.75389 13.7532 5.09389 13.7532 5.50722C13.7532 5.92055 13.4199 6.25389 12.9999 6.25389Z" fill="#212121"/>
</svg>
