<svg width="28" height="28" viewBox="0 0 28 28" fill="none" xmlns="http://www.w3.org/2000/svg">
<path d="M6.88314 21.4205H21.1281C22.8898 21.4205 24.3365 19.9855 24.3365 18.2239V13.5689L24.1615 13.6272C23.7065 13.7905 23.2165 13.8722 22.7265 13.8722H22.5981V18.2122C22.5981 19.0172 21.9448 19.6705 21.1281 19.6705H6.88314C6.07814 19.6705 5.4248 19.0172 5.4248 18.2122V5.40224C5.4248 4.59724 6.07814 3.94391 6.88314 3.94391H21.1281C21.8981 3.94391 22.5165 4.51558 22.5865 5.27391L22.6215 5.39058H22.7381C23.2165 5.39058 23.7065 5.47224 24.1615 5.63558L24.3365 5.69391V5.39058C24.3365 3.62891 22.9015 2.20557 21.1281 2.20557H6.88314C5.12147 2.20557 3.6748 3.64058 3.6748 5.39058V18.2122C3.6748 19.9739 5.1098 21.4089 6.88314 21.4089V21.4205Z" fill="#212121"/>
<path d="M7.09323 10.9683C6.8599 11.0033 6.66156 11.12 6.52156 11.3066C6.38156 11.4933 6.32323 11.7266 6.35823 11.9483C6.41656 12.38 6.77823 12.7066 7.22156 12.7066H7.3499L8.49323 12.5433C8.72656 12.5083 8.9249 12.3916 9.0649 12.205C9.2049 12.0183 9.26323 11.7966 9.22823 11.5633C9.15823 11.085 8.73823 10.7583 8.24823 10.8166L7.1049 10.98L7.09323 10.9683Z" fill="#212121"/>
<path d="M14.3618 10.8165C14.3268 10.5832 14.2101 10.3849 14.0235 10.2449C13.8368 10.1049 13.6151 10.0465 13.3818 10.0815L10.9784 10.4199C10.5001 10.4899 10.1734 10.9332 10.2434 11.3999C10.3134 11.8315 10.6751 12.1465 11.1068 12.1465C11.1301 12.1465 11.1534 12.1465 11.1767 12.1465L13.6268 11.8082C14.1051 11.7382 14.4318 11.2949 14.3618 10.8282V10.8165Z" fill="#212121"/>
<path d="M18.2464 10.2446C18.2114 10.0113 18.0947 9.81293 17.908 9.67293C17.7214 9.53293 17.488 9.4746 17.2664 9.5096L16.123 9.67293C15.6447 9.74293 15.318 10.1863 15.388 10.6529C15.4464 11.0846 15.808 11.4113 16.2514 11.4113C16.298 11.4113 16.3447 11.4113 16.3797 11.3996L17.523 11.2363C18.0014 11.1663 18.328 10.7229 18.258 10.2563L18.2464 10.2446Z" fill="#212121"/>
<path d="M11.3168 16.5666C11.0951 16.4966 10.8618 16.5082 10.6518 16.6132L9.61343 17.1266C9.40343 17.2316 9.2401 17.4182 9.1701 17.6399C9.1001 17.8616 9.11176 18.0949 9.21676 18.3049C9.35676 18.5966 9.67176 18.7832 9.99843 18.7832C10.1268 18.7832 10.2551 18.7599 10.3951 18.7016L11.4334 18.1882C11.6434 18.0832 11.8068 17.8966 11.8768 17.6749C11.9468 17.4532 11.9351 17.2199 11.8301 17.0099C11.7251 16.7999 11.5384 16.6366 11.3168 16.5666Z" fill="#212121"/>
<path d="M13.358 17.104C13.4747 17.104 13.6147 17.0806 13.7547 17.0223L15.7847 16.0073C15.9947 15.9023 16.158 15.7156 16.228 15.494C16.298 15.2723 16.2864 15.039 16.1814 14.8406C16.0764 14.6306 15.8897 14.4673 15.668 14.3973C15.4464 14.3273 15.213 14.339 15.0147 14.444L12.9847 15.459C12.7747 15.564 12.6114 15.7506 12.5414 15.9723C12.4714 16.194 12.483 16.4273 12.588 16.6256C12.728 16.9173 13.043 17.104 13.3697 17.104H13.358Z" fill="#212121"/>
<path d="M17.6982 14.9457C17.8265 14.9457 17.9548 14.9224 18.0832 14.8641L19.1215 14.3507C19.3315 14.2457 19.4948 14.0591 19.5648 13.8374C19.6348 13.6157 19.6232 13.3824 19.5182 13.1841C19.4132 12.9741 19.2265 12.8107 19.0048 12.7407C18.7832 12.6707 18.5498 12.6824 18.3515 12.7874L17.3132 13.3007C16.8932 13.5224 16.7182 14.0591 16.9282 14.4791C17.0798 14.7707 17.3832 14.9574 17.7098 14.9574L17.6982 14.9457Z" fill="#212121"/>
<path d="M23.4732 22.5768C22.9949 22.5768 22.5982 22.9735 22.5982 23.4518V24.0352H18.5266V23.4518C18.5266 22.9735 18.1299 22.5768 17.6516 22.5768C17.1732 22.5768 16.7766 22.9735 16.7766 23.4518V24.0352H11.2466V23.4518C11.2466 22.9735 10.8499 22.5768 10.3716 22.5768C9.89322 22.5768 9.49655 22.9735 9.49655 23.4518V24.0352H5.42489V23.4518C5.42489 22.9735 5.02822 22.5768 4.54989 22.5768C4.07155 22.5768 3.67489 22.9735 3.67489 23.4518V24.9102C3.67489 25.3885 4.07155 25.7852 4.54989 25.7852H23.4732C23.9632 25.7852 24.3482 25.4002 24.3482 24.9102V23.4518C24.3482 22.9735 23.9516 22.5768 23.4732 22.5768Z" fill="#212121"/>
<path d="M24.2782 6.98906C23.8232 6.72073 23.2982 6.58073 22.7265 6.58073C21.0465 6.5924 19.6932 7.96907 19.6932 9.63741C19.6932 11.3057 21.0582 12.6707 22.7499 12.6824C23.2982 12.6824 23.8232 12.5424 24.2782 12.274C25.2115 11.7257 25.7949 10.7107 25.7949 9.63741C25.7949 8.56407 25.2115 7.5374 24.2782 6.98906ZM22.7499 10.9441C22.0032 10.9441 21.4315 10.3607 21.4315 9.63741C21.4315 8.91407 22.0032 8.33074 22.7499 8.31907C23.4732 8.31907 24.0682 8.91407 24.0682 9.63741C24.0682 10.3607 23.4849 10.9441 22.7499 10.9441Z" fill="#212121"/>
</svg>
