<svg width="24" height="24" viewBox="0 0 24 24" fill="none" xmlns="http://www.w3.org/2000/svg">
<path d="M5.8999 18.3606H18.1099C19.6199 18.3606 20.8599 17.1306 20.8599 15.6206V11.6306L20.7099 11.6806C20.3199 11.8206 19.8999 11.8906 19.4799 11.8906H19.3699V15.6106C19.3699 16.3006 18.8099 16.8606 18.1099 16.8606H5.8999C5.2099 16.8606 4.6499 16.3006 4.6499 15.6106V4.63064C4.6499 3.94063 5.2099 3.38064 5.8999 3.38064H18.1099C18.7699 3.38064 19.2999 3.87063 19.3599 4.52063L19.3899 4.62063H19.4899C19.8999 4.62063 20.3199 4.69063 20.7099 4.83063L20.8599 4.88064V4.62063C20.8599 3.11063 19.6299 1.89062 18.1099 1.89062H5.8999C4.3899 1.89062 3.1499 3.12063 3.1499 4.62063V15.6106C3.1499 17.1206 4.3799 18.3506 5.8999 18.3506V18.3606Z" fill="#212121"/>
<path d="M6.07991 9.4014C5.87991 9.4314 5.70991 9.5314 5.58991 9.6914C5.46991 9.8514 5.41991 10.0514 5.44991 10.2414C5.49991 10.6114 5.80991 10.8914 6.18991 10.8914H6.29991L7.27991 10.7514C7.47991 10.7214 7.64991 10.6214 7.76991 10.4614C7.88991 10.3014 7.93991 10.1114 7.90991 9.9114C7.84991 9.5014 7.48991 9.22141 7.06991 9.27141L6.08991 9.41141L6.07991 9.4014Z" fill="#212121"/>
<path d="M12.3101 9.27133C12.2801 9.07133 12.1801 8.90132 12.0201 8.78132C11.8601 8.66132 11.6701 8.61132 11.4701 8.64132L9.41006 8.93132C9.00006 8.99132 8.72006 9.37133 8.78006 9.77133C8.84006 10.1413 9.15007 10.4113 9.52007 10.4113C9.54007 10.4113 9.56006 10.4113 9.58006 10.4113L11.6801 10.1213C12.0901 10.0613 12.3701 9.68132 12.3101 9.28132V9.27133Z" fill="#212121"/>
<path d="M15.6397 8.78108C15.6097 8.58108 15.5097 8.41108 15.3497 8.29108C15.1897 8.17108 14.9897 8.12108 14.7997 8.15108L13.8197 8.29108C13.4097 8.35108 13.1297 8.73108 13.1897 9.13108C13.2397 9.50108 13.5497 9.78109 13.9297 9.78109C13.9697 9.78109 14.0097 9.78108 14.0397 9.77108L15.0197 9.63108C15.4297 9.57108 15.7097 9.19108 15.6497 8.79108L15.6397 8.78108Z" fill="#212121"/>
<path d="M9.70008 14.1999C9.51008 14.1399 9.31008 14.1499 9.13008 14.2399L8.24008 14.6799C8.06008 14.7699 7.92008 14.9299 7.86008 15.1199C7.80008 15.3099 7.81008 15.5099 7.90008 15.6899C8.02008 15.9399 8.29008 16.0999 8.57008 16.0999C8.68008 16.0999 8.79008 16.0799 8.91008 16.0299L9.80008 15.5899C9.98008 15.4999 10.1201 15.3399 10.1801 15.1499C10.2401 14.9599 10.2301 14.7599 10.1401 14.5799C10.0501 14.3999 9.89008 14.2599 9.70008 14.1999Z" fill="#212121"/>
<path d="M11.4497 14.6606C11.5497 14.6606 11.6697 14.6406 11.7897 14.5906L13.5297 13.7206C13.7097 13.6306 13.8497 13.4706 13.9097 13.2806C13.9697 13.0906 13.9597 12.8906 13.8697 12.7206C13.7797 12.5406 13.6197 12.4006 13.4297 12.3406C13.2397 12.2806 13.0397 12.2906 12.8697 12.3806L11.1297 13.2506C10.9497 13.3406 10.8097 13.5006 10.7497 13.6906C10.6897 13.8806 10.6997 14.0806 10.7897 14.2506C10.9097 14.5006 11.1797 14.6606 11.4597 14.6606H11.4497Z" fill="#212121"/>
<path d="M15.1699 12.8106C15.2799 12.8106 15.3899 12.7906 15.4999 12.7406L16.3899 12.3006C16.5699 12.2106 16.7099 12.0506 16.7699 11.8606C16.8299 11.6706 16.8199 11.4706 16.7299 11.3006C16.6399 11.1206 16.4799 10.9806 16.2899 10.9206C16.0999 10.8606 15.8999 10.8706 15.7299 10.9606L14.8399 11.4006C14.4799 11.5906 14.3299 12.0506 14.5099 12.4106C14.6399 12.6606 14.8999 12.8206 15.1799 12.8206L15.1699 12.8106Z" fill="#212121"/>
<path d="M20.1199 19.3516C19.7099 19.3516 19.3699 19.6916 19.3699 20.1016V20.6016H15.8799V20.1016C15.8799 19.6916 15.5399 19.3516 15.1299 19.3516C14.7199 19.3516 14.3799 19.6916 14.3799 20.1016V20.6016H9.6399V20.1016C9.6399 19.6916 9.2999 19.3516 8.8899 19.3516C8.4799 19.3516 8.1399 19.6916 8.1399 20.1016V20.6016H4.6499V20.1016C4.6499 19.6916 4.3099 19.3516 3.8999 19.3516C3.4899 19.3516 3.1499 19.6916 3.1499 20.1016V21.3516C3.1499 21.7616 3.4899 22.1016 3.8999 22.1016H20.1199C20.5399 22.1016 20.8699 21.7716 20.8699 21.3516V20.1016C20.8699 19.6916 20.5299 19.3516 20.1199 19.3516Z" fill="#212121"/>
<path d="M20.8099 5.99063C20.4199 5.76063 19.9699 5.64063 19.4799 5.64063C18.0399 5.65063 16.8799 6.83063 16.8799 8.26063C16.8799 9.69063 18.0499 10.8606 19.4999 10.8706C19.9699 10.8706 20.4199 10.7506 20.8099 10.5206C21.6099 10.0506 22.1099 9.18063 22.1099 8.26063C22.1099 7.34063 21.6099 6.46063 20.8099 5.99063ZM19.4999 9.38063C18.8599 9.38063 18.3699 8.88063 18.3699 8.26063C18.3699 7.64063 18.8599 7.14064 19.4999 7.13064C20.1199 7.13064 20.6299 7.64063 20.6299 8.26063C20.6299 8.88063 20.1299 9.38063 19.4999 9.38063Z" fill="#212121"/>
</svg>
