<svg width="28" height="28" viewBox="0 0 28 28" fill="none" xmlns="http://www.w3.org/2000/svg">
<path d="M23.2981 22.7034C22.8197 22.7034 22.4231 23.1001 22.4231 23.5784V24.1618H18.3514V23.5784C18.3514 23.1001 17.9547 22.7034 17.4764 22.7034C16.9981 22.7034 16.6014 23.1001 16.6014 23.5784V24.1618H11.0831V23.5784C11.0831 23.1001 10.6864 22.7034 10.2081 22.7034C9.72973 22.7034 9.33306 23.1001 9.33306 23.5784V24.1618H5.26139V23.5784C5.26139 23.1001 4.86473 22.7034 4.38639 22.7034C3.90806 22.7034 3.51139 23.1001 3.51139 23.5784V25.0368C3.51139 25.5151 3.90806 25.9118 4.38639 25.9118H23.2981C23.7881 25.9118 24.1731 25.5268 24.1731 25.0368V23.5784C24.1731 23.1001 23.7764 22.7034 23.2981 22.7034Z" fill="#212121"/>
<path d="M24.0916 7.10544C23.6366 6.8371 23.1116 6.6971 22.5516 6.6971C20.8716 6.70877 19.5183 8.07377 19.5183 9.75377C19.5183 11.4338 20.8716 12.7988 22.5633 12.8104C23.1116 12.8104 23.6366 12.6588 24.0916 12.3904C25.0366 11.8421 25.62 10.8271 25.62 9.75377C25.62 8.68044 25.0366 7.65377 24.0916 7.10544ZM22.5633 11.0604C21.8166 11.0488 21.245 10.4771 21.245 9.75377C21.245 9.03044 21.8166 8.4471 22.5633 8.43544C23.2866 8.43544 23.8816 9.03044 23.8816 9.75377C23.8816 10.4771 23.2866 11.0604 22.5633 11.0604Z" fill="#212121"/>
<path d="M22.4467 5.5185H22.5633C22.75 5.5185 22.925 5.53016 23.1 5.5535H23.1233C23.2633 5.57683 23.4033 5.60016 23.5317 5.63516C23.6133 5.63516 23.7067 5.67016 23.7883 5.70516C23.8583 5.71683 23.9167 5.74016 23.9867 5.7635L24.1617 5.82183V5.53016C24.1617 3.7685 22.7267 2.3335 20.9533 2.3335H6.70833C4.935 2.3335 3.5 3.7685 3.5 5.53016V18.3402C3.5 20.1018 4.935 21.5368 6.70833 21.5368H20.9533C22.7267 21.5368 24.1617 20.1018 24.1617 18.3402V13.6852L23.9867 13.7435C23.9167 13.7668 23.8583 13.7902 23.7883 13.8018C23.7067 13.8368 23.6133 13.8602 23.52 13.8718C23.4033 13.9068 23.2867 13.9302 23.17 13.9418C23.135 13.9535 23.1 13.9535 23.0767 13.9535C22.9133 13.9768 22.7383 13.9885 22.575 13.9885H22.5517C20.2067 13.9652 18.3283 12.0752 18.3283 9.76516C18.3283 7.45516 20.1717 5.57683 22.4467 5.5185ZM6.17167 12.0635C6.13667 11.8418 6.195 11.6085 6.335 11.4218C6.475 11.2352 6.67333 11.1185 6.90667 11.0835L8.05 10.9202C8.54 10.8618 8.96 11.1885 9.03 11.6668C9.065 11.9002 9.00667 12.1218 8.86667 12.3085C8.72667 12.4952 8.52833 12.6235 8.295 12.6585L7.15167 12.8102H7.035C6.59167 12.8218 6.21833 12.4952 6.17167 12.0635ZM13.44 11.9235L10.99 12.2618C10.99 12.2618 10.9433 12.2735 10.92 12.2735C10.4883 12.2735 10.1267 11.9585 10.0567 11.5152C9.98667 11.0485 10.325 10.6052 10.7917 10.5352L13.195 10.1968C13.4283 10.1618 13.6617 10.2202 13.8367 10.3602C14.0233 10.5002 14.1517 10.6985 14.175 10.9318C14.245 11.4102 13.9183 11.8535 13.44 11.9235ZM14.8167 14.5602C15.015 14.4552 15.26 14.4435 15.47 14.5135C15.7033 14.5835 15.8783 14.7468 15.995 14.9568C16.1 15.1668 16.1117 15.4002 16.0417 15.6218C15.9717 15.8435 15.8083 16.0302 15.5983 16.1352L13.5683 17.1502C13.4283 17.1968 13.3 17.2318 13.1717 17.2318C12.845 17.2318 12.5417 17.0452 12.4017 16.7535C12.2967 16.5552 12.2733 16.3218 12.3433 16.1002C12.425 15.8668 12.5767 15.6802 12.7867 15.5752L14.8167 14.5602ZM10.4767 16.7418C10.675 16.6368 10.9083 16.6135 11.13 16.6952C11.3633 16.7652 11.5383 16.9285 11.6433 17.1385C11.7483 17.3485 11.7717 17.5818 11.7017 17.8035C11.62 18.0252 11.4683 18.2002 11.2583 18.3052L10.22 18.8185C10.08 18.8768 9.94 18.9118 9.82333 18.9118C9.49667 18.9118 9.19333 18.7135 9.04167 18.4218C8.93667 18.2235 8.925 17.9785 8.995 17.7685C9.065 17.5468 9.22833 17.3602 9.43833 17.2552L10.4767 16.7418ZM16.065 11.5268C15.6333 11.5268 15.26 11.2002 15.2017 10.7685C15.1317 10.3018 15.47 9.8585 15.9483 9.7885L17.08 9.62516C17.3133 9.59016 17.535 9.6485 17.7217 9.7885C17.9083 9.9285 18.0367 10.1385 18.0717 10.3602C18.1417 10.8385 17.8033 11.2818 17.325 11.3518L16.1933 11.5152C16.1933 11.5152 16.1117 11.5268 16.065 11.5268ZM18.8183 12.8452C19.04 12.9268 19.2267 13.0785 19.3317 13.3002C19.4367 13.4985 19.46 13.7318 19.3783 13.9535C19.3083 14.1752 19.145 14.3618 18.935 14.4668L17.8967 14.9802C17.78 15.0385 17.64 15.0618 17.5233 15.0618C17.185 15.0618 16.8817 14.8752 16.7417 14.5835C16.52 14.1635 16.695 13.6268 17.115 13.4168L18.165 12.9035C18.3633 12.7985 18.5967 12.7752 18.8183 12.8452Z" fill="#212121"/>
</svg>
