<svg width="20" height="20" viewBox="0 0 20 20" fill="none" xmlns="http://www.w3.org/2000/svg">
<path d="M4.91675 15.3007H15.0917C16.3501 15.3007 17.3834 14.2757 17.3834 13.0173V9.69233L17.2584 9.734C16.9334 9.85067 16.5834 9.909 16.2334 9.909H16.1417V13.009C16.1417 13.584 15.6751 14.0507 15.0917 14.0507H4.91675C4.34175 14.0507 3.87508 13.584 3.87508 13.009V3.85903C3.87508 3.28403 4.34175 2.81736 4.91675 2.81736H15.0917C15.6417 2.81736 16.0834 3.22569 16.1334 3.76736L16.1584 3.85069H16.2417C16.5834 3.85069 16.9334 3.90902 17.2584 4.02569L17.3834 4.06736V3.85069C17.3834 2.59236 16.3584 1.57568 15.0917 1.57568H4.91675C3.65841 1.57568 2.62508 2.60069 2.62508 3.85069V13.009C2.62508 14.2673 3.65008 15.2923 4.91675 15.2923V15.3007Z" fill="#212121"/>
<path d="M5.06667 7.8345C4.90001 7.8595 4.75834 7.94283 4.65834 8.07616C4.55834 8.2095 4.51667 8.37616 4.54167 8.5345C4.58334 8.84283 4.84167 9.07616 5.15834 9.07616H5.25001L6.06667 8.9595C6.23334 8.9345 6.37501 8.85116 6.47501 8.71783C6.57501 8.5845 6.61667 8.42616 6.59167 8.2595C6.54167 7.91783 6.24167 7.6845 5.89167 7.72616L5.07501 7.84283L5.06667 7.8345Z" fill="#212121"/>
<path d="M10.2585 7.7261C10.2335 7.55943 10.1502 7.41776 10.0168 7.31776C9.8835 7.21776 9.72517 7.1761 9.5585 7.2011L7.8418 7.44276C7.50013 7.49276 7.2668 7.80943 7.3168 8.14276C7.3668 8.45108 7.62514 8.67608 7.93348 8.67608C7.95014 8.67608 7.9668 8.67608 7.98347 8.67608L9.7335 8.43441C10.0752 8.38441 10.3085 8.06776 10.2585 7.73443V7.7261Z" fill="#212121"/>
<path d="M13.0332 7.31757C13.0082 7.1509 12.9249 7.00924 12.7915 6.90924C12.6582 6.80924 12.4915 6.76757 12.3332 6.79257L11.5165 6.90924C11.1749 6.95924 10.9415 7.2759 10.9915 7.60924C11.0332 7.91757 11.2915 8.1509 11.6082 8.1509C11.6415 8.1509 11.6749 8.1509 11.6999 8.14257L12.5165 8.0259C12.8582 7.9759 13.0915 7.65924 13.0415 7.3259L13.0332 7.31757Z" fill="#212121"/>
<path d="M8.08348 11.8333C7.92515 11.7833 7.75848 11.7916 7.60848 11.8666L6.86682 12.2333C6.71682 12.3083 6.60015 12.4416 6.55015 12.5999C6.50015 12.7583 6.50848 12.9249 6.58348 13.0749C6.68348 13.2833 6.90848 13.4166 7.14182 13.4166C7.23348 13.4166 7.32515 13.3999 7.42515 13.3583L8.16682 12.9916C8.31682 12.9166 8.4335 12.7833 8.4835 12.6249C8.5335 12.4666 8.52517 12.2999 8.45017 12.1499C8.37517 11.9999 8.24182 11.8833 8.08348 11.8333Z" fill="#212121"/>
<path d="M9.54153 12.2171C9.62486 12.2171 9.72486 12.2005 9.82486 12.1588L11.2749 11.4338C11.4249 11.3588 11.5415 11.2255 11.5915 11.0671C11.6415 10.9088 11.6332 10.7421 11.5582 10.6005C11.4832 10.4505 11.3499 10.3338 11.1915 10.2838C11.0332 10.2338 10.8665 10.2421 10.7249 10.3171L9.27486 11.0421C9.12486 11.1171 9.00819 11.2505 8.95819 11.4088C8.90819 11.5671 8.91653 11.7338 8.99153 11.8755C9.09153 12.0838 9.31653 12.2171 9.54986 12.2171H9.54153Z" fill="#212121"/>
<path d="M12.6416 10.6755C12.7333 10.6755 12.825 10.6589 12.9166 10.6172L13.6583 10.2505C13.8083 10.1755 13.925 10.0422 13.975 9.88386C14.025 9.72553 14.0166 9.55886 13.9416 9.41719C13.8666 9.26719 13.7333 9.15053 13.575 9.10053C13.4166 9.05053 13.25 9.05886 13.1083 9.13386L12.3666 9.50053C12.0666 9.65886 11.9416 10.0422 12.0916 10.3422C12.2 10.5505 12.4166 10.6839 12.65 10.6839L12.6416 10.6755Z" fill="#212121"/>
<path d="M16.7667 16.1263C16.425 16.1263 16.1417 16.4096 16.1417 16.7513V17.168H13.2333V16.7513C13.2333 16.4096 12.95 16.1263 12.6083 16.1263C12.2667 16.1263 11.9833 16.4096 11.9833 16.7513V17.168H8.03333V16.7513C8.03333 16.4096 7.75 16.1263 7.40833 16.1263C7.06667 16.1263 6.78333 16.4096 6.78333 16.7513V17.168H3.875V16.7513C3.875 16.4096 3.59167 16.1263 3.25 16.1263C2.90833 16.1263 2.625 16.4096 2.625 16.7513V17.793C2.625 18.1346 2.90833 18.418 3.25 18.418H16.7667C17.1167 18.418 17.3917 18.143 17.3917 17.793V16.7513C17.3917 16.4096 17.1083 16.1263 16.7667 16.1263Z" fill="#212121"/>
<path d="M17.3417 4.99219C17.0167 4.80052 16.6417 4.70052 16.2333 4.70052C15.0333 4.70885 14.0667 5.6922 14.0667 6.88386C14.0667 8.07553 15.0417 9.0505 16.25 9.05884C16.6417 9.05884 17.0167 8.95884 17.3417 8.76717C18.0083 8.3755 18.425 7.65053 18.425 6.88386C18.425 6.1172 18.0083 5.38385 17.3417 4.99219ZM16.25 7.8172C15.7167 7.8172 15.3083 7.40053 15.3083 6.88386C15.3083 6.3672 15.7167 5.95053 16.25 5.9422C16.7667 5.9422 17.1917 6.3672 17.1917 6.88386C17.1917 7.40053 16.775 7.8172 16.25 7.8172Z" fill="#212121"/>
</svg>
