<svg width="12" height="12" viewBox="0 0 12 12" fill="none" xmlns="http://www.w3.org/2000/svg">
<path d="M9.98488 9.72998C9.77988 9.72998 9.60988 9.89998 9.60988 10.105V10.355H7.86488V10.105C7.86488 9.89998 7.69488 9.72998 7.48988 9.72998C7.28488 9.72998 7.11488 9.89998 7.11488 10.105V10.355H4.74988V10.105C4.74988 9.89998 4.57988 9.72998 4.37488 9.72998C4.16988 9.72998 3.99988 9.89998 3.99988 10.105V10.355H2.25488V10.105C2.25488 9.89998 2.08488 9.72998 1.87988 9.72998C1.67488 9.72998 1.50488 9.89998 1.50488 10.105V10.73C1.50488 10.935 1.67488 11.105 1.87988 11.105H9.98488C10.1949 11.105 10.3599 10.94 10.3599 10.73V10.105C10.3599 9.89998 10.1899 9.72998 9.98488 9.72998Z" fill="#212121"/>
<path d="M10.325 3.04512C10.13 2.93012 9.90499 2.87012 9.66499 2.87012C8.94499 2.87512 8.36499 3.46012 8.36499 4.18012C8.36499 4.90012 8.94499 5.48512 9.66999 5.49012C9.90499 5.49012 10.13 5.42512 10.325 5.31012C10.73 5.07512 10.98 4.64012 10.98 4.18012C10.98 3.72012 10.73 3.28012 10.325 3.04512ZM9.66999 4.74012C9.34999 4.73512 9.10499 4.49012 9.10499 4.18012C9.10499 3.87012 9.34999 3.62012 9.66999 3.61512C9.97999 3.61512 10.235 3.87012 10.235 4.18012C10.235 4.49012 9.97999 4.74012 9.66999 4.74012Z" fill="#212121"/>
<path d="M9.62 2.365H9.67C9.75 2.365 9.825 2.37 9.9 2.38H9.91C9.97 2.39 10.03 2.4 10.085 2.415C10.12 2.415 10.16 2.43 10.195 2.445C10.225 2.45 10.25 2.46 10.28 2.47L10.355 2.495V2.37C10.355 1.615 9.74 1 8.98 1H2.875C2.115 1 1.5 1.615 1.5 2.37V7.86C1.5 8.615 2.115 9.23 2.875 9.23H8.98C9.74 9.23 10.355 8.615 10.355 7.86V5.865L10.28 5.89C10.25 5.9 10.225 5.91 10.195 5.915C10.16 5.93 10.12 5.94 10.08 5.945C10.03 5.96 9.98 5.97 9.93 5.975C9.915 5.98 9.9 5.98 9.89 5.98C9.82 5.99 9.745 5.995 9.675 5.995H9.665C8.66 5.985 7.855 5.175 7.855 4.185C7.855 3.195 8.645 2.39 9.62 2.365ZM2.645 5.17C2.63 5.075 2.655 4.975 2.715 4.895C2.775 4.815 2.86 4.765 2.96 4.75L3.45 4.68C3.66 4.655 3.84 4.795 3.87 5C3.885 5.1 3.86 5.195 3.8 5.275C3.74 5.355 3.655 5.41 3.555 5.425L3.065 5.49H3.015C2.825 5.495 2.665 5.355 2.645 5.17ZM5.76 5.11L4.71 5.255C4.71 5.255 4.69 5.26 4.68 5.26C4.495 5.26 4.34 5.125 4.31 4.935C4.28 4.735 4.425 4.545 4.625 4.515L5.655 4.37C5.755 4.355 5.855 4.38 5.93 4.44C6.01 4.5 6.065 4.585 6.075 4.685C6.105 4.89 5.965 5.08 5.76 5.11ZM6.35 6.24C6.435 6.195 6.54 6.19 6.63 6.22C6.73 6.25 6.805 6.32 6.855 6.41C6.9 6.5 6.905 6.6 6.875 6.695C6.845 6.79 6.775 6.87 6.685 6.915L5.815 7.35C5.755 7.37 5.7 7.385 5.645 7.385C5.505 7.385 5.375 7.305 5.315 7.18C5.27 7.095 5.26 6.995 5.29 6.9C5.325 6.8 5.39 6.72 5.48 6.675L6.35 6.24ZM4.49 7.175C4.575 7.13 4.675 7.12 4.77 7.155C4.87 7.185 4.945 7.255 4.99 7.345C5.035 7.435 5.045 7.535 5.015 7.63C4.98 7.725 4.915 7.8 4.825 7.845L4.38 8.065C4.32 8.09 4.26 8.105 4.21 8.105C4.07 8.105 3.94 8.02 3.875 7.895C3.83 7.81 3.825 7.705 3.855 7.615C3.885 7.52 3.955 7.44 4.045 7.395L4.49 7.175ZM6.885 4.94C6.7 4.94 6.54 4.8 6.515 4.615C6.485 4.415 6.63 4.225 6.835 4.195L7.32 4.125C7.42 4.11 7.515 4.135 7.595 4.195C7.675 4.255 7.73 4.345 7.745 4.44C7.775 4.645 7.63 4.835 7.425 4.865L6.94 4.935C6.94 4.935 6.905 4.94 6.885 4.94ZM8.065 5.505C8.16 5.54 8.24 5.605 8.285 5.7C8.33 5.785 8.34 5.885 8.305 5.98C8.275 6.075 8.205 6.155 8.115 6.2L7.67 6.42C7.62 6.445 7.56 6.455 7.51 6.455C7.365 6.455 7.235 6.375 7.175 6.25C7.08 6.07 7.155 5.84 7.335 5.75L7.785 5.53C7.87 5.485 7.97 5.475 8.065 5.505Z" fill="#212121"/>
</svg>
