<svg width="32" height="32" viewBox="0 0 32 32" fill="none" xmlns="http://www.w3.org/2000/svg">
<path d="M7.86637 24.4805H24.1464C26.1597 24.4805 27.813 22.8405 27.813 20.8271V15.5071L27.613 15.5738C27.093 15.7605 26.533 15.8538 25.973 15.8538H25.8264V20.8138C25.8264 21.7338 25.0797 22.4805 24.1464 22.4805H7.86637C6.94637 22.4805 6.19971 21.7338 6.19971 20.8138V6.17385C6.19971 5.25385 6.94637 4.50719 7.86637 4.50719H24.1464C25.0264 4.50719 25.733 5.16052 25.813 6.02719L25.853 6.16052H25.9864C26.533 6.16052 27.093 6.25385 27.613 6.44052L27.813 6.50719V6.16052C27.813 4.14719 26.173 2.52051 24.1464 2.52051H7.86637C5.85304 2.52051 4.19971 4.16052 4.19971 6.16052V20.8138C4.19971 22.8271 5.83971 24.4671 7.86637 24.4671V24.4805Z" fill="#212121"/>
<path d="M8.10636 12.5354C7.83969 12.5754 7.61303 12.7087 7.45303 12.922C7.29303 13.1354 7.22636 13.402 7.26636 13.6554C7.33303 14.1487 7.74636 14.522 8.25303 14.522H8.39969L9.70636 14.3354C9.97303 14.2954 10.1997 14.162 10.3597 13.9487C10.5197 13.7354 10.5864 13.482 10.5464 13.2154C10.4664 12.6687 9.98636 12.2954 9.42636 12.362L8.11969 12.5487L8.10636 12.5354Z" fill="#212121"/>
<path d="M16.4134 12.3619C16.3734 12.0953 16.24 11.8686 16.0267 11.7086C15.8134 11.5486 15.56 11.4819 15.2934 11.5219L12.5467 11.9086C12 11.9886 11.6267 12.4953 11.7067 13.0286C11.7867 13.5219 12.2 13.8819 12.6933 13.8819C12.72 13.8819 12.7467 13.8819 12.7733 13.8819L15.5734 13.4952C16.12 13.4152 16.4934 12.9086 16.4134 12.3753V12.3619Z" fill="#212121"/>
<path d="M20.8528 11.7079C20.8128 11.4413 20.6795 11.2146 20.4661 11.0546C20.2528 10.8946 19.9861 10.8279 19.7328 10.8679L18.4261 11.0546C17.8795 11.1346 17.5061 11.6413 17.5861 12.1746C17.6528 12.6679 18.0661 13.0413 18.5728 13.0413C18.6261 13.0413 18.6795 13.0413 18.7195 13.0279L20.0261 12.8413C20.5728 12.7613 20.9461 12.2546 20.8661 11.7213L20.8528 11.7079Z" fill="#212121"/>
<path d="M12.9334 18.9332C12.6801 18.8532 12.4134 18.8666 12.1734 18.9866L10.9868 19.5732C10.7468 19.6932 10.5601 19.9066 10.4801 20.1599C10.4001 20.4132 10.4134 20.6799 10.5334 20.9199C10.6934 21.2532 11.0534 21.4666 11.4268 21.4666C11.5734 21.4666 11.7201 21.4399 11.8801 21.3732L13.0668 20.7866C13.3068 20.6666 13.4935 20.4532 13.5735 20.1999C13.6535 19.9466 13.6401 19.6799 13.5201 19.4399C13.4001 19.1999 13.1868 19.0132 12.9334 18.9332Z" fill="#212121"/>
<path d="M15.2661 19.5472C15.3995 19.5472 15.5595 19.5206 15.7195 19.4539L18.0395 18.2939C18.2795 18.1739 18.4661 17.9605 18.5461 17.7072C18.6261 17.4539 18.6128 17.1872 18.4928 16.9606C18.3728 16.7206 18.1595 16.5339 17.9061 16.4539C17.6528 16.3739 17.3861 16.3872 17.1595 16.5072L14.8395 17.6672C14.5995 17.7872 14.4128 18.0006 14.3328 18.2539C14.2528 18.5072 14.2661 18.7739 14.3861 19.0005C14.5461 19.3339 14.9061 19.5472 15.2795 19.5472H15.2661Z" fill="#212121"/>
<path d="M20.2267 17.081C20.3733 17.081 20.52 17.0544 20.6667 16.9877L21.8533 16.401C22.0933 16.281 22.28 16.0677 22.36 15.8144C22.44 15.561 22.4267 15.2944 22.3067 15.0677C22.1867 14.8277 21.9733 14.641 21.72 14.561C21.4667 14.481 21.2 14.4944 20.9733 14.6144L19.7867 15.201C19.3067 15.4544 19.1067 16.0677 19.3467 16.5477C19.52 16.881 19.8667 17.0944 20.24 17.0944L20.2267 17.081Z" fill="#212121"/>
<path d="M26.8264 25.8019C26.2798 25.8019 25.8264 26.2552 25.8264 26.8019V27.4686H21.1731V26.8019C21.1731 26.2552 20.7198 25.8019 20.1731 25.8019C19.6264 25.8019 19.1731 26.2552 19.1731 26.8019V27.4686H12.8531V26.8019C12.8531 26.2552 12.3998 25.8019 11.8531 25.8019C11.3064 25.8019 10.8531 26.2552 10.8531 26.8019V27.4686H6.19978V26.8019C6.19978 26.2552 5.74644 25.8019 5.19978 25.8019C4.65311 25.8019 4.19978 26.2552 4.19978 26.8019V28.4686C4.19978 29.0152 4.65311 29.4686 5.19978 29.4686H26.8264C27.3864 29.4686 27.8264 29.0286 27.8264 28.4686V26.8019C27.8264 26.2552 27.3731 25.8019 26.8264 25.8019Z" fill="#212121"/>
<path d="M27.7467 7.98731C27.2267 7.68065 26.6267 7.52065 25.9734 7.52065C24.0534 7.53398 22.5067 9.10733 22.5067 11.014C22.5067 12.9207 24.0667 14.4806 26 14.494C26.6267 14.494 27.2267 14.334 27.7467 14.0273C28.8134 13.4006 29.48 12.2407 29.48 11.014C29.48 9.78733 28.8134 8.61398 27.7467 7.98731ZM26 12.5073C25.1467 12.5073 24.4934 11.8407 24.4934 11.014C24.4934 10.1873 25.1467 9.52066 26 9.50733C26.8267 9.50733 27.5067 10.1873 27.5067 11.014C27.5067 11.8407 26.84 12.5073 26 12.5073Z" fill="#212121"/>
</svg>
