<svg width="12" height="12" viewBox="0 0 12 12" fill="none" xmlns="http://www.w3.org/2000/svg">
<path d="M2.94971 9.18128H9.05471C9.80971 9.18128 10.4297 8.56628 10.4297 7.81128V5.81628L10.3547 5.84128C10.1597 5.91128 9.94971 5.94628 9.73971 5.94628H9.68471V7.80628C9.68471 8.15128 9.40471 8.43128 9.05471 8.43128H2.94971C2.60471 8.43128 2.32471 8.15128 2.32471 7.80628V2.31629C2.32471 1.97129 2.60471 1.69129 2.94971 1.69129H9.05471C9.38471 1.69129 9.64971 1.93629 9.67971 2.26129L9.69471 2.31129H9.74471C9.94971 2.31129 10.1597 2.34629 10.3547 2.41629L10.4297 2.44129V2.31129C10.4297 1.55629 9.81471 0.946289 9.05471 0.946289H2.94971C2.19471 0.946289 1.57471 1.56129 1.57471 2.31129V7.80628C1.57471 8.56128 2.18971 9.17628 2.94971 9.17628V9.18128Z" fill="#212121"/>
<path d="M3.03983 4.70119C2.93983 4.71619 2.85483 4.76619 2.79483 4.84619C2.73483 4.92619 2.70983 5.02619 2.72483 5.12119C2.74983 5.30619 2.90483 5.44619 3.09483 5.44619H3.14983L3.63983 5.37619C3.73983 5.36119 3.82483 5.31119 3.88483 5.23119C3.94483 5.15119 3.96983 5.05619 3.95483 4.95619C3.92483 4.75119 3.74483 4.61119 3.53483 4.63619L3.04483 4.70619L3.03983 4.70119Z" fill="#212121"/>
<path d="M6.15481 4.63615C6.13981 4.53615 6.08981 4.45115 6.00981 4.39115C5.92981 4.33115 5.83481 4.30615 5.73481 4.32115L4.70479 4.46615C4.49979 4.49615 4.35979 4.68615 4.38979 4.88615C4.41979 5.07114 4.57479 5.20614 4.75979 5.20614C4.76979 5.20614 4.77979 5.20614 4.78979 5.20614L5.83981 5.06114C6.04481 5.03114 6.18481 4.84115 6.15481 4.64115V4.63615Z" fill="#212121"/>
<path d="M7.81974 4.39152C7.80474 4.29152 7.75474 4.20652 7.67474 4.14652C7.59474 4.08652 7.49474 4.06152 7.39974 4.07652L6.90974 4.14652C6.70474 4.17652 6.56474 4.36652 6.59474 4.56652C6.61974 4.75152 6.77474 4.89152 6.96474 4.89152C6.98474 4.89152 7.00474 4.89152 7.01974 4.88652L7.50974 4.81652C7.71474 4.78652 7.85474 4.59652 7.82474 4.39652L7.81974 4.39152Z" fill="#212121"/>
<path d="M4.84968 7.1007C4.75468 7.0707 4.65468 7.0757 4.56468 7.1207L4.11968 7.3407C4.02968 7.3857 3.95968 7.4657 3.92968 7.5607C3.89968 7.6557 3.90468 7.7557 3.94968 7.8457C4.00968 7.9707 4.14468 8.0507 4.28468 8.0507C4.33968 8.0507 4.39468 8.0407 4.45468 8.0157L4.89968 7.7957C4.98968 7.7507 5.05969 7.6707 5.08969 7.5757C5.11969 7.4807 5.11469 7.3807 5.06969 7.2907C5.02469 7.2007 4.94468 7.1307 4.84968 7.1007Z" fill="#212121"/>
<path d="M5.72474 7.33125C5.77474 7.33125 5.83474 7.32125 5.89474 7.29625L6.76474 6.86125C6.85474 6.81625 6.92474 6.73625 6.95474 6.64125C6.98474 6.54625 6.97974 6.44625 6.93474 6.36125C6.88974 6.27125 6.80974 6.20125 6.71474 6.17125C6.61974 6.14125 6.51974 6.14625 6.43474 6.19125L5.56474 6.62625C5.47474 6.67125 5.40474 6.75125 5.37474 6.84625C5.34474 6.94125 5.34974 7.04125 5.39474 7.12625C5.45474 7.25125 5.58974 7.33125 5.72974 7.33125H5.72474Z" fill="#212121"/>
<path d="M7.58432 6.4058C7.63932 6.4058 7.69432 6.3958 7.74932 6.3708L8.19432 6.1508C8.28432 6.1058 8.35432 6.0258 8.38432 5.9308C8.41432 5.8358 8.40932 5.7358 8.36432 5.6508C8.31932 5.5608 8.23932 5.4908 8.14432 5.4608C8.04932 5.4308 7.94932 5.4358 7.86432 5.4808L7.41932 5.7008C7.23932 5.7958 7.16432 6.0258 7.25432 6.2058C7.31932 6.3308 7.44932 6.4108 7.58932 6.4108L7.58432 6.4058Z" fill="#212121"/>
<path d="M10.0597 9.67676C9.85471 9.67676 9.68471 9.84676 9.68471 10.0518V10.3018H7.93971V10.0518C7.93971 9.84676 7.76971 9.67676 7.56471 9.67676C7.35971 9.67676 7.18971 9.84676 7.18971 10.0518V10.3018H4.81971V10.0518C4.81971 9.84676 4.64971 9.67676 4.44471 9.67676C4.23971 9.67676 4.06971 9.84676 4.06971 10.0518V10.3018H2.32471V10.0518C2.32471 9.84676 2.15471 9.67676 1.94971 9.67676C1.74471 9.67676 1.57471 9.84676 1.57471 10.0518V10.6768C1.57471 10.8818 1.74471 11.0518 1.94971 11.0518H10.0597C10.2697 11.0518 10.4347 10.8868 10.4347 10.6768V10.0518C10.4347 9.84676 10.2647 9.67676 10.0597 9.67676Z" fill="#212121"/>
<path d="M10.4043 2.99629C10.2093 2.88129 9.98433 2.82129 9.73933 2.82129C9.01933 2.82629 8.43933 3.41629 8.43933 4.13129C8.43933 4.84629 9.02433 5.43128 9.74933 5.43628C9.98433 5.43628 10.2093 5.37628 10.4043 5.26128C10.8043 5.02628 11.0543 4.59129 11.0543 4.13129C11.0543 3.67129 10.8043 3.23129 10.4043 2.99629ZM9.74933 4.69129C9.42933 4.69129 9.18433 4.44129 9.18433 4.13129C9.18433 3.82129 9.42933 3.57129 9.74933 3.56629C10.0593 3.56629 10.3143 3.82129 10.3143 4.13129C10.3143 4.44129 10.0643 4.69129 9.74933 4.69129Z" fill="#212121"/>
</svg>
