<svg width="48" height="48" viewBox="0 0 48 48" fill="none" xmlns="http://www.w3.org/2000/svg">
<path d="M11.7988 36.7207H36.2188C39.2388 36.7207 41.7188 34.2607 41.7188 31.2407V23.2607L41.4188 23.3607C40.6388 23.6407 39.7988 23.7807 38.9588 23.7807H38.7388V31.2207C38.7388 32.6007 37.6188 33.7207 36.2188 33.7207H11.7988C10.4188 33.7207 9.29883 32.6007 9.29883 31.2207V9.26078C9.29883 7.88078 10.4188 6.76078 11.7988 6.76078H36.2188C37.5388 6.76078 38.5988 7.74078 38.7188 9.04078L38.7788 9.24078H38.9788C39.7988 9.24078 40.6388 9.38078 41.4188 9.66078L41.7188 9.76078V9.24078C41.7188 6.22078 39.2588 3.78076 36.2188 3.78076H11.7988C8.77883 3.78076 6.29883 6.24078 6.29883 9.24078V31.2207C6.29883 34.2407 8.75883 36.7007 11.7988 36.7007V36.7207Z" fill="#212121"/>
<path d="M12.1586 18.8033C11.7586 18.8633 11.4186 19.0633 11.1786 19.3833C10.9386 19.7033 10.8386 20.1033 10.8986 20.4833C10.9986 21.2233 11.6186 21.7833 12.3786 21.7833H12.5986L14.5586 21.5033C14.9586 21.4433 15.2986 21.2433 15.5386 20.9233C15.7786 20.6033 15.8786 20.2233 15.8186 19.8233C15.6986 19.0033 14.9786 18.4433 14.1386 18.5433L12.1786 18.8233L12.1586 18.8033Z" fill="#212121"/>
<path d="M24.6192 18.5431C24.5592 18.1431 24.3592 17.8031 24.0392 17.5631C23.7192 17.3231 23.3392 17.2231 22.9392 17.2831L18.8192 17.8631C17.9992 17.9831 17.4392 18.7431 17.5592 19.5431C17.6792 20.2831 18.2992 20.8231 19.0392 20.8231C19.0792 20.8231 19.1192 20.8231 19.1592 20.8231L23.3592 20.2431C24.1792 20.1231 24.7392 19.3631 24.6192 18.5631V18.5431Z" fill="#212121"/>
<path d="M31.2782 17.5617C31.2182 17.1617 31.0182 16.8217 30.6982 16.5817C30.3782 16.3417 29.9782 16.2417 29.5982 16.3017L27.6382 16.5817C26.8182 16.7017 26.2582 17.4617 26.3782 18.2617C26.4782 19.0017 27.0982 19.5617 27.8582 19.5617C27.9382 19.5617 28.0182 19.5617 28.0782 19.5417L30.0382 19.2617C30.8582 19.1417 31.4182 18.3817 31.2982 17.5817L31.2782 17.5617Z" fill="#212121"/>
<path d="M19.3994 28.3999C19.0194 28.2799 18.6194 28.2999 18.2594 28.4799L16.4794 29.3599C16.1194 29.5399 15.8394 29.8599 15.7194 30.2399C15.5994 30.6199 15.6194 31.0199 15.7994 31.3799C16.0394 31.8799 16.5794 32.1999 17.1394 32.1999C17.3594 32.1999 17.5794 32.1599 17.8194 32.0599L19.5994 31.1799C19.9594 30.9999 20.2395 30.6799 20.3595 30.2999C20.4795 29.9199 20.4595 29.5199 20.2795 29.1599C20.0995 28.7999 19.7794 28.5199 19.3994 28.3999Z" fill="#212121"/>
<path d="M22.8982 29.3206C23.0982 29.3206 23.3382 29.2806 23.5782 29.1806L27.0582 27.4406C27.4182 27.2606 27.6982 26.9406 27.8182 26.5606C27.9382 26.1806 27.9182 25.7806 27.7382 25.4406C27.5582 25.0806 27.2382 24.8006 26.8582 24.6806C26.4782 24.5606 26.0782 24.5806 25.7382 24.7606L22.2582 26.5006C21.8982 26.6806 21.6182 27.0006 21.4982 27.3806C21.3782 27.7606 21.3982 28.1606 21.5782 28.5006C21.8182 29.0006 22.3582 29.3206 22.9182 29.3206H22.8982Z" fill="#212121"/>
<path d="M30.3395 25.6217C30.5595 25.6217 30.7795 25.5817 30.9995 25.4817L32.7795 24.6017C33.1395 24.4217 33.4195 24.1018 33.5395 23.7218C33.6595 23.3418 33.6395 22.9417 33.4595 22.6017C33.2795 22.2417 32.9595 21.9617 32.5795 21.8417C32.1995 21.7217 31.7995 21.7417 31.4595 21.9217L29.6795 22.8018C28.9595 23.1818 28.6595 24.1017 29.0195 24.8217C29.2795 25.3217 29.7995 25.6417 30.3595 25.6417L30.3395 25.6217Z" fill="#212121"/>
<path d="M40.2388 38.7026C39.4188 38.7026 38.7388 39.3826 38.7388 40.2026V41.2026H31.7588V40.2026C31.7588 39.3826 31.0788 38.7026 30.2588 38.7026C29.4388 38.7026 28.7588 39.3826 28.7588 40.2026V41.2026H19.2788V40.2026C19.2788 39.3826 18.5988 38.7026 17.7788 38.7026C16.9588 38.7026 16.2788 39.3826 16.2788 40.2026V41.2026H9.29883V40.2026C9.29883 39.3826 8.61883 38.7026 7.79883 38.7026C6.97883 38.7026 6.29883 39.3826 6.29883 40.2026V42.7026C6.29883 43.5226 6.97883 44.2026 7.79883 44.2026H40.2388C41.0788 44.2026 41.7388 43.5426 41.7388 42.7026V40.2026C41.7388 39.3826 41.0588 38.7026 40.2388 38.7026Z" fill="#212121"/>
<path d="M41.6195 11.9808C40.8395 11.5208 39.9395 11.2808 38.9595 11.2808C36.0795 11.3008 33.7595 13.6608 33.7595 16.5208C33.7595 19.3808 36.0995 21.7207 38.9995 21.7407C39.9395 21.7407 40.8395 21.5007 41.6195 21.0407C43.2195 20.1007 44.2195 18.3608 44.2195 16.5208C44.2195 14.6808 43.2195 12.9208 41.6195 11.9808ZM38.9995 18.7608C37.7195 18.7608 36.7395 17.7608 36.7395 16.5208C36.7395 15.2808 37.7195 14.2808 38.9995 14.2608C40.2395 14.2608 41.2595 15.2808 41.2595 16.5208C41.2595 17.7608 40.2595 18.7608 38.9995 18.7608Z" fill="#212121"/>
</svg>
