<svg width="48" height="48" viewBox="0 0 48 48" fill="none" xmlns="http://www.w3.org/2000/svg">
<path d="M6 9.25C6 6.3505 8.35051 4 11.25 4H26.25C28.1412 4 29.7988 4.99996 30.723 6.5H11.25C9.73122 6.5 8.5 7.73122 8.5 9.25V33.223C6.99996 32.2988 6 30.6412 6 28.75V9.25Z" fill="#212121"/>
<path d="M28.75 20C26.817 20 25.25 21.567 25.25 23.5C25.25 25.433 26.817 27 28.75 27C30.683 27 32.25 25.433 32.25 23.5C32.25 21.567 30.683 20 28.75 20ZM27.75 23.5C27.75 22.9477 28.1977 22.5 28.75 22.5C29.3023 22.5 29.75 22.9477 29.75 23.5C29.75 24.0523 29.3023 24.5 28.75 24.5C28.1977 24.5 27.75 24.0523 27.75 23.5Z" fill="#212121"/>
<path d="M21.25 14C18.3505 14 16 16.3505 16 19.25V38.75C16 41.6495 18.3505 44 21.25 44H36.25C39.1495 44 41.5 41.6495 41.5 38.75V19.25C41.5 16.3505 39.1495 14 36.25 14H21.25ZM23 37.25C23 36.5596 23.5596 36 24.25 36H33.15C33.8404 36 34.4 36.5596 34.4 37.25C34.4 37.9404 33.8404 38.5 33.15 38.5H24.25C23.5596 38.5 23 37.9404 23 37.25ZM24.25 31.5H33.15C33.8404 31.5 34.4 32.0596 34.4 32.75C34.4 33.4404 33.8404 34 33.15 34H24.25C23.5596 34 23 33.4404 23 32.75C23 32.0596 23.5596 31.5 24.25 31.5ZM34.048 19.25C34.9512 19.25 35.6496 20.0424 35.5361 20.9385L34.8392 26.4385C34.7443 27.1881 34.1067 27.75 33.3511 27.75H24.1489C23.3933 27.75 22.7557 27.1881 22.6608 26.4385L21.9639 20.9385C21.8504 20.0424 22.5488 19.25 23.452 19.25H34.048Z" fill="#212121"/>
<path d="M16.25 9C13.3505 9 11 11.3505 11 14.25V33.75C11 35.6412 12 37.2988 13.5 38.223V14.25C13.5 12.7312 14.7312 11.5 16.25 11.5H35.723C34.7988 9.99996 33.1412 9 31.25 9H16.25Z" fill="#212121"/>
</svg>
