<svg width="24" height="24" viewBox="0 0 24 24" fill="none" xmlns="http://www.w3.org/2000/svg">
<path d="M9.5 10.75C9.5 9.23122 10.7312 8 12.25 8H18.25C19.7688 8 21 9.23122 21 10.75V19.25C21 20.7688 19.7688 22 18.25 22H12.25C10.7312 22 9.5 20.7688 9.5 19.25V10.75ZM13.3402 11C13.0313 11 12.7962 11.2774 12.847 11.5822L13.1804 13.5822C13.2205 13.8233 13.4291 14 13.6736 14H16.8264C17.0709 14 17.2795 13.8233 17.3196 13.5822L17.653 11.5822C17.7038 11.2774 17.4687 11 17.1598 11H13.3402ZM12.97 18.75C12.97 19.1642 13.3058 19.5 13.72 19.5H16.7914C17.2056 19.5 17.5414 19.1642 17.5414 18.75C17.5414 18.3358 17.2056 18 16.7914 18H13.72C13.3058 18 12.97 18.3358 12.97 18.75ZM13.72 15.5C13.3058 15.5 12.97 15.8358 12.97 16.25C12.97 16.6642 13.3058 17 13.72 17H16.7914C17.2056 17 17.5414 16.6642 17.5414 16.25C17.5414 15.8358 17.2056 15.5 16.7914 15.5H13.72Z" fill="#212121"/>
<path d="M16.25 12.5C16.25 13.0523 15.8023 13.5 15.25 13.5C14.6977 13.5 14.25 13.0523 14.25 12.5C14.25 11.9477 14.6977 11.5 15.25 11.5C15.8023 11.5 16.25 11.9477 16.25 12.5Z" fill="#212121"/>
<path d="M3.5 4.75C3.5 3.23122 4.73122 2 6.25 2H12.25C13.3187 2 14.245 2.60958 14.7001 3.5H6.25C5.55964 3.5 5 4.05964 5 4.75V15.7001C4.10958 15.245 3.5 14.3187 3.5 13.25V4.75Z" fill="#212121"/>
<path d="M6.5 7.75C6.5 6.23122 7.73122 5 9.25 5H15.25C16.3187 5 17.245 5.60958 17.7001 6.5H9.25C8.55964 6.5 8 7.05964 8 7.75V18.7001C7.10958 18.245 6.5 17.3187 6.5 16.25V7.75Z" fill="#212121"/>
</svg>
