<svg width="28" height="28" viewBox="0 0 28 28" fill="none" xmlns="http://www.w3.org/2000/svg">
<path d="M10.5 11.5C10.5 9.567 12.067 8 14 8H20.5C22.433 8 24 9.567 24 11.5V22.5C24 24.433 22.433 26 20.5 26H14C12.067 26 10.5 24.433 10.5 22.5V11.5ZM15.5659 21.25C15.1517 21.25 14.8159 21.5858 14.8159 22C14.8159 22.4142 15.1517 22.75 15.5659 22.75H19.1796C19.5938 22.75 19.9296 22.4142 19.9296 22C19.9296 21.5858 19.5938 21.25 19.1796 21.25H15.5659ZM14.8159 19C14.8159 19.4142 15.1517 19.75 15.5659 19.75H19.1796C19.5938 19.75 19.9296 19.4142 19.9296 19C19.9296 18.5858 19.5938 18.25 19.1796 18.25H15.5659C15.1517 18.25 14.8159 18.5858 14.8159 19ZM14.9123 11.75C14.2739 11.75 13.799 12.3401 13.9354 12.9637L14.3928 15.0546C14.4932 15.5137 14.8998 15.8409 15.3697 15.8409H19.1292C19.5992 15.8409 20.0057 15.5137 20.1061 15.0546L20.5635 12.9637C20.6999 12.3401 20.225 11.75 19.5866 11.75H14.9123Z" fill="#212121"/>
<path d="M17.25 13.55C17.1119 13.55 17 13.6619 17 13.8C17 13.9381 17.1119 14.05 17.25 14.05C17.3881 14.05 17.5 13.9381 17.5 13.8C17.5 13.6619 17.3881 13.55 17.25 13.55ZM15.5 13.8C15.5 12.8335 16.2835 12.05 17.25 12.05C18.2165 12.05 19 12.8335 19 13.8C19 14.7665 18.2165 15.55 17.25 15.55C16.2835 15.55 15.5 14.7665 15.5 13.8Z" fill="#212121"/>
<path d="M4.5 5.5C4.5 3.567 6.067 2 8 2H14.5C15.6894 2 16.7402 2.59326 17.3727 3.5H8C6.89543 3.5 6 4.39543 6 5.5V19.3727C5.09326 18.7402 4.5 17.6894 4.5 16.5V5.5Z" fill="#212121"/>
<path d="M7.5 8.5C7.5 6.567 9.067 5 11 5H17.5C18.6894 5 19.7402 5.59326 20.3727 6.5H11C9.89543 6.5 9 7.39543 9 8.5V22.3727C8.09326 21.7402 7.5 20.6894 7.5 19.5V8.5Z" fill="#212121"/>
</svg>
