<svg width="20" height="20" viewBox="0 0 20 20" fill="none" xmlns="http://www.w3.org/2000/svg">
<path d="M7 8.5C7 7.11929 8.11929 6 9.5 6H14C15.3807 6 16.5 7.11929 16.5 8.5V15.5C16.5 16.8807 15.3807 18 14 18H9.5C8.11929 18 7 16.8807 7 15.5V8.5ZM10.75 13C10.4739 13 10.25 13.2239 10.25 13.5C10.25 13.7761 10.4739 14 10.75 14H12.75C13.0261 14 13.25 13.7761 13.25 13.5C13.25 13.2239 13.0261 13 12.75 13H10.75ZM10.25 15.5C10.25 15.7761 10.4739 16 10.75 16H12.75C13.0261 16 13.25 15.7761 13.25 15.5C13.25 15.2239 13.0261 15 12.75 15H10.75C10.4739 15 10.25 15.2239 10.25 15.5ZM10.2082 8.5C9.90163 8.5 9.66725 8.77338 9.71408 9.07637L9.98453 10.8264C10.0222 11.0701 10.232 11.25 10.4787 11.25H13.0213C13.268 11.25 13.4778 11.0701 13.5155 10.8264L13.7859 9.07637C13.8327 8.77338 13.5984 8.5 13.2918 8.5H10.2082Z" fill="#212121"/>
<path d="M3 4.5C3 3.11929 4.11929 2 5.5 2H10C10.8179 2 11.5441 2.39278 12.0002 3H5.5C4.67157 3 4 3.67157 4 4.5V13.5002C3.39278 13.0441 3 12.3179 3 11.5V4.5Z" fill="#212121"/>
<path d="M5 6.5C5 5.11929 6.11929 4 7.5 4H12C12.8179 4 13.5441 4.39278 14.0002 5H7.5C6.67157 5 6 5.67157 6 6.5V15.5002C5.39278 15.0441 5 14.3179 5 13.5V6.5Z" fill="#212121"/>
</svg>
