<svg width="16" height="16" viewBox="0 0 16 16" fill="none" xmlns="http://www.w3.org/2000/svg">
<path d="M8 5C6.89543 5 6 5.89543 6 7V13C6 14.1046 6.89543 15 8 15H12C13.1046 15 14 14.1046 14 13V7C14 5.89543 13.1046 5 12 5H8ZM8.5 12C8.5 11.7239 8.72386 11.5 9 11.5H11C11.2761 11.5 11.5 11.7239 11.5 12C11.5 12.2761 11.2761 12.5 11 12.5H9C8.72386 12.5 8.5 12.2761 8.5 12ZM8.89615 7.5H11.1038C11.4309 7.5 11.6699 7.80887 11.5878 8.12548L11.2637 9.37548C11.2066 9.596 11.0076 9.75 10.7797 9.75H9.22021C8.99239 9.75 8.79338 9.596 8.73621 9.37547L8.41215 8.12548C8.33007 7.80886 8.56907 7.5 8.89615 7.5Z" fill="#212121"/>
<path d="M2 3.5C2 2.11929 3.11929 1 4.5 1H7.5C8.31791 1 9.04408 1.39278 9.50018 2H4.5C3.67157 2 3 2.67157 3 3.5V10.5002C2.39278 10.0441 2 9.31791 2 8.5V3.5Z" fill="#212121"/>
<path d="M4 5.5C4 4.11929 5.11929 3 6.5 3H9.5C10.3179 3 11.0441 3.39278 11.5002 4H6.5C5.67157 4 5 4.67157 5 5.5V12.5002C4.39278 12.0441 4 11.3179 4 10.5V5.5Z" fill="#212121"/>
</svg>
