<svg width="20" height="20" viewBox="0 0 20 20" fill="none" xmlns="http://www.w3.org/2000/svg">
<path d="M3 4.5C3 3.11929 4.11929 2 5.5 2H10C10.8179 2 11.5441 2.39278 12.0002 3H5.5C4.67157 3 4 3.67157 4 4.5V13.5002C3.39278 13.0441 3 12.3179 3 11.5V4.5Z" fill="#212121"/>
<path d="M10.75 13C10.4739 13 10.25 13.2239 10.25 13.5C10.25 13.7761 10.4739 14 10.75 14H12.75C13.0261 14 13.25 13.7761 13.25 13.5C13.25 13.2239 13.0261 13 12.75 13H10.75Z" fill="#212121"/>
<path d="M10.25 15.5C10.25 15.2239 10.4739 15 10.75 15H12.75C13.0261 15 13.25 15.2239 13.25 15.5C13.25 15.7761 13.0261 16 12.75 16H10.75C10.4739 16 10.25 15.7761 10.25 15.5Z" fill="#212121"/>
<path d="M10.2082 8C9.59506 8 9.12631 8.54677 9.21996 9.15273L9.49041 10.9027C9.56576 11.3903 9.98537 11.75 10.4787 11.75H13.0214C13.5147 11.75 13.9343 11.3903 14.0096 10.9027L14.2801 9.15273C14.3737 8.54676 13.905 8 13.2918 8H10.2082ZM10.2082 9H13.2918L13.0214 10.75H10.4787L10.2082 9Z" fill="#212121"/>
<path d="M9.5 6C8.11929 6 7 7.11929 7 8.5V15.5C7 16.8807 8.11929 18 9.5 18H14C15.3807 18 16.5 16.8807 16.5 15.5V8.5C16.5 7.11929 15.3807 6 14 6H9.5ZM8 8.5C8 7.67157 8.67157 7 9.5 7H14C14.8284 7 15.5 7.67157 15.5 8.5V15.5C15.5 16.3284 14.8284 17 14 17H9.5C8.67157 17 8 16.3284 8 15.5V8.5Z" fill="#212121"/>
<path d="M7.5 4C6.11929 4 5 5.11929 5 6.5V13.5C5 14.3179 5.39278 15.0441 6 15.5002V6.5C6 5.67157 6.67157 5 7.5 5H14.0002C13.5441 4.39278 12.8179 4 12 4H7.5Z" fill="#212121"/>
</svg>
