<svg width="32" height="32" viewBox="0 0 32 32" fill="none" xmlns="http://www.w3.org/2000/svg">
<path d="M5 5.5C5 3.567 6.567 2 8.5 2H17.5C18.8962 2 20.1015 2.81753 20.6632 4H8.5C7.67157 4 7 4.67157 7 5.5V21.6632C5.81753 21.1015 5 19.8962 5 18.5V5.5Z" fill="#212121"/>
<path d="M17.5 26C17.5 25.4477 17.9477 25 18.5 25H23.5C24.0523 25 24.5 25.4477 24.5 26C24.5 26.5523 24.0523 27 23.5 27H18.5C17.9477 27 17.5 26.5523 17.5 26Z" fill="#212121"/>
<path d="M18.5 22C17.9477 22 17.5 22.4477 17.5 23C17.5 23.5523 17.9477 24 18.5 24H23.5C24.0523 24 24.5 23.5523 24.5 23C24.5 22.4477 24.0523 22 23.5 22H18.5Z" fill="#212121"/>
<path d="M21 17.5C21.5523 17.5 22 17.0523 22 16.5C22 15.9477 21.5523 15.5 21 15.5C20.4477 15.5 20 15.9477 20 16.5C20 17.0523 20.4477 17.5 21 17.5Z" fill="#212121"/>
<path d="M16.1979 15.316C16.0035 14.1008 16.9422 13 18.1728 13H23.8274C25.058 13 25.9967 14.1008 25.8023 15.316L25.3223 18.316C25.167 19.2862 24.33 20 23.3474 20H18.6528C17.6702 20 16.8332 19.2862 16.6779 18.316L16.1979 15.316ZM23.8274 15L18.1728 15L18.6528 18H23.3474L23.8274 15Z" fill="#212121"/>
<path d="M13 13.5C13 11.567 14.567 10 16.5 10H25.5C27.433 10 29 11.567 29 13.5V26.5C29 28.433 27.433 30 25.5 30H16.5C14.567 30 13 28.433 13 26.5V13.5ZM16.5 12C15.6716 12 15 12.6716 15 13.5V26.5C15 27.3284 15.6716 28 16.5 28H25.5C26.3284 28 27 27.3284 27 26.5V13.5C27 12.6716 26.3284 12 25.5 12H16.5Z" fill="#212121"/>
<path d="M12.5 6C10.567 6 9 7.567 9 9.5V22.5C9 23.8962 9.81753 25.1015 11 25.6632V9.5C11 8.67157 11.6716 8 12.5 8H24.6632C24.1015 6.81753 22.8962 6 21.5 6H12.5Z" fill="#212121"/>
</svg>
