<svg width="28" height="28" viewBox="0 0 28 28" fill="none" xmlns="http://www.w3.org/2000/svg">
<path d="M4.5 5.5C4.5 3.567 6.067 2 8 2H14.5C15.6894 2 16.7402 2.59326 17.3727 3.5H8C6.89543 3.5 6 4.39543 6 5.5V19.3727C5.09326 18.7402 4.5 17.6894 4.5 16.5V5.5Z" fill="#212121"/>
<path d="M14.8159 22C14.8159 21.5858 15.1517 21.25 15.5659 21.25H19.1796C19.5938 21.25 19.9296 21.5858 19.9296 22C19.9296 22.4142 19.5938 22.75 19.1796 22.75H15.5659C15.1517 22.75 14.8159 22.4142 14.8159 22Z" fill="#212121"/>
<path d="M15.5659 18.25C15.1517 18.25 14.8159 18.5858 14.8159 19C14.8159 19.4142 15.1517 19.75 15.5659 19.75H19.1796C19.5938 19.75 19.9296 19.4142 19.9296 19C19.9296 18.5858 19.5938 18.25 19.1796 18.25H15.5659Z" fill="#212121"/>
<path d="M17.25 14.8C17.8023 14.8 18.25 14.3523 18.25 13.8C18.25 13.2477 17.8023 12.8 17.25 12.8C16.6977 12.8 16.25 13.2477 16.25 13.8C16.25 14.3523 16.6977 14.8 17.25 14.8Z" fill="#212121"/>
<path d="M13.2027 13.124C12.964 12.0326 13.7951 11 14.9123 11H19.5866C20.7038 11 21.5349 12.0326 21.2962 13.124L20.8388 15.2149C20.6631 16.0183 19.9516 16.5909 19.1292 16.5909H15.3697C14.5473 16.5909 13.8359 16.0183 13.6601 15.2149L13.2027 13.124ZM14.9123 12.5C14.7527 12.5 14.634 12.6475 14.6681 12.8034L15.1255 14.8943C15.1506 15.0091 15.2522 15.0909 15.3697 15.0909H19.1292C19.2467 15.0909 19.3483 15.0091 19.3735 14.8943L19.8308 12.8034C19.8649 12.6475 19.7462 12.5 19.5866 12.5H14.9123Z" fill="#212121"/>
<path d="M10.4863 11.5C10.4863 9.567 12.0533 8 13.9863 8H20.4863C22.4193 8 23.9863 9.567 23.9863 11.5V22.5C23.9863 24.433 22.4193 26 20.4863 26H13.9863C12.0533 26 10.4863 24.433 10.4863 22.5V11.5ZM13.9863 9.5C12.8818 9.5 11.9863 10.3954 11.9863 11.5V22.5C11.9863 23.6046 12.8818 24.5 13.9863 24.5H20.4863C21.5909 24.5 22.4863 23.6046 22.4863 22.5V11.5C22.4863 10.3954 21.5909 9.5 20.4863 9.5H13.9863Z" fill="#212121"/>
<path d="M11 5C9.067 5 7.5 6.567 7.5 8.5V19.5C7.5 20.6894 8.09326 21.7402 9 22.3727V8.5C9 7.39543 9.89543 6.5 11 6.5H20.3727C19.7402 5.59326 18.6894 5 17.5 5H11Z" fill="#212121"/>
</svg>
