<svg width="16" height="16" viewBox="0 0 16 16" fill="none" xmlns="http://www.w3.org/2000/svg">
<path d="M2 3.5C2 2.11929 3.11929 1 4.5 1H7.5C8.31791 1 9.04408 1.39278 9.50018 2H4.5C3.67157 2 3 2.67157 3 3.5V10.5002C2.39278 10.0441 2 9.31791 2 8.5V3.5Z" fill="#212121"/>
<path d="M8.5 12C8.5 11.7239 8.72386 11.5 9 11.5H11C11.2761 11.5 11.5 11.7239 11.5 12C11.5 12.2761 11.2761 12.5 11 12.5H9C8.72386 12.5 8.5 12.2761 8.5 12Z" fill="#212121"/>
<path d="M8.89603 7C8.24187 7 7.76387 7.61773 7.92803 8.25095L8.25209 9.50095C8.36643 9.942 8.76445 10.25 9.22009 10.25H10.7796C11.2352 10.25 11.6333 9.94201 11.7476 9.50096L12.0717 8.25096C12.2359 7.61773 11.7579 7 11.1037 7H8.89603ZM8.89603 8L11.1037 8L10.7796 9.25H9.22009L8.89603 8Z" fill="#212121"/>
<path d="M6 7C6 5.89543 6.89543 5 8 5H12C13.1046 5 14 5.89543 14 7V13C14 14.1046 13.1046 15 12 15H8C6.89543 15 6 14.1046 6 13V7ZM8 6C7.44772 6 7 6.44772 7 7V13C7 13.5523 7.44772 14 8 14H12C12.5523 14 13 13.5523 13 13V7C13 6.44772 12.5523 6 12 6H8Z" fill="#212121"/>
<path d="M4 5.5C4 4.11929 5.11929 3 6.5 3H9.5C10.3179 3 11.0441 3.39278 11.5002 4H6.5C5.67157 4 5 4.67157 5 5.5V12.5002C4.39278 12.0441 4 11.3179 4 10.5V5.5Z" fill="#212121"/>
</svg>
