<svg width="48" height="48" viewBox="0 0 48 48" fill="none" xmlns="http://www.w3.org/2000/svg">
<path d="M17 19.25C17 16.3505 19.3505 14 22.25 14H37.25C40.1495 14 42.5 16.3505 42.5 19.25V38.75C42.5 41.6495 40.1495 44 37.25 44H22.25C19.3505 44 17 41.6495 17 38.75V19.25ZM22.25 16.5C20.7312 16.5 19.5 17.7312 19.5 19.25V38.75C19.5 40.2688 20.7312 41.5 22.25 41.5H37.25C38.7688 41.5 40 40.2688 40 38.75V19.25C40 17.7312 38.7688 16.5 37.25 16.5H22.25Z" fill="#212121"/>
<path d="M24 37.25C24 36.5596 24.5596 36 25.25 36H34.15C34.8404 36 35.4 36.5596 35.4 37.25C35.4 37.9404 34.8404 38.5 34.15 38.5H25.25C24.5596 38.5 24 37.9404 24 37.25Z" fill="#212121"/>
<path d="M24 32.75C24 32.0596 24.5596 31.5 25.25 31.5H34.15C34.8404 31.5 35.4 32.0596 35.4 32.75C35.4 33.4404 34.8404 34 34.15 34H25.25C24.5596 34 24 33.4404 24 32.75Z" fill="#212121"/>
<path d="M21.7238 21.0957C21.5157 19.4528 22.7961 18 24.452 18H35.048C36.7039 18 37.9843 19.4528 37.7762 21.0957L37.0793 26.5957C36.9052 27.9698 35.7363 29 34.3511 29H25.1489C23.7637 29 22.5948 27.9698 22.4207 26.5957L21.7238 21.0957ZM24.452 20.5C24.3015 20.5 24.1851 20.6321 24.204 20.7814L24.9009 26.2814C24.9167 26.4063 25.0229 26.5 25.1489 26.5H34.3511C34.4771 26.5 34.5833 26.4063 34.5991 26.2814L35.296 20.7814C35.3149 20.6321 35.1985 20.5 35.048 20.5H24.452Z" fill="#212121"/>
<path d="M32 23.5C32 24.7426 30.9926 25.75 29.75 25.75C28.5074 25.75 27.5 24.7426 27.5 23.5C27.5 22.2574 28.5074 21.25 29.75 21.25C30.9926 21.25 32 22.2574 32 23.5Z" fill="#212121"/>
<path d="M7 9.25C7 6.3505 9.35051 4 12.25 4H27.25C29.1412 4 30.7988 4.99996 31.723 6.5H12.25C10.7312 6.5 9.5 7.73122 9.5 9.25V33.223C7.99996 32.2988 7 30.6412 7 28.75V9.25Z" fill="#212121"/>
<path d="M12 14.25C12 11.3505 14.3505 9 17.25 9H32.25C34.1412 9 35.7988 9.99996 36.723 11.5H17.25C15.7312 11.5 14.5 12.7312 14.5 14.25V38.223C13 37.2988 12 35.6412 12 33.75V14.25Z" fill="#212121"/>
</svg>
