<svg width="32" height="32" viewBox="0 0 32 32" fill="none" xmlns="http://www.w3.org/2000/svg">
<path d="M12 13.5C12 11.567 13.567 10 15.5 10H24.5C26.433 10 28 11.567 28 13.5V26.5C28 28.433 26.433 30 24.5 30H15.5C13.567 30 12 28.433 12 26.5V13.5ZM17.5 25C16.9477 25 16.5 25.4477 16.5 26C16.5 26.5523 16.9477 27 17.5 27H22.5C23.0523 27 23.5 26.5523 23.5 26C23.5 25.4477 23.0523 25 22.5 25H17.5ZM16.5 23C16.5 23.5523 16.9477 24 17.5 24H22.5C23.0523 24 23.5 23.5523 23.5 23C23.5 22.4477 23.0523 22 22.5 22H17.5C16.9477 22 16.5 22.4477 16.5 23ZM17.1727 14C16.5574 14 16.0881 14.5504 16.1853 15.158L16.6653 18.158C16.7429 18.6431 17.1614 19 17.6527 19H22.3473C22.8386 19 23.2571 18.6431 23.3347 18.158L23.8147 15.158C23.9119 14.5504 23.4426 14 22.8273 14H17.1727Z" fill="#212121"/>
<path d="M20 16.25C19.8619 16.25 19.75 16.3619 19.75 16.5C19.75 16.6381 19.8619 16.75 20 16.75C20.1381 16.75 20.25 16.6381 20.25 16.5C20.25 16.3619 20.1381 16.25 20 16.25ZM18.25 16.5C18.25 15.5335 19.0335 14.75 20 14.75C20.9665 14.75 21.75 15.5335 21.75 16.5C21.75 17.4665 20.9665 18.25 20 18.25C19.0335 18.25 18.25 17.4665 18.25 16.5Z" fill="#212121"/>
<path d="M4 5.5C4 3.567 5.567 2 7.5 2H16.5C17.8962 2 19.1015 2.81753 19.6632 4H7.5C6.67157 4 6 4.67157 6 5.5V21.6632C4.81753 21.1015 4 19.8962 4 18.5V5.5Z" fill="#212121"/>
<path d="M8 9.5C8 7.567 9.567 6 11.5 6H20.5C21.8962 6 23.1015 6.81753 23.6632 8H11.5C10.6716 8 10 8.67157 10 9.5V25.6632C8.81753 25.1015 8 23.8962 8 22.5V9.5Z" fill="#212121"/>
</svg>
