<svg width="24" height="24" viewBox="0 0 24 24" fill="none" xmlns="http://www.w3.org/2000/svg">
<path d="M3.5 4.75C3.5 3.23122 4.73122 2 6.25 2H12.25C13.3187 2 14.245 2.60958 14.7001 3.5H6.25C5.55964 3.5 5 4.05964 5 4.75V15.7001C4.10958 15.245 3.5 14.3187 3.5 13.25V4.75Z" fill="#212121"/>
<path d="M13.72 18C13.3058 18 12.97 18.3358 12.97 18.75C12.97 19.1642 13.3058 19.5 13.72 19.5H16.7914C17.2056 19.5 17.5414 19.1642 17.5414 18.75C17.5414 18.3358 17.2056 18 16.7914 18H13.72Z" fill="#212121"/>
<path d="M12.97 16.25C12.97 15.8358 13.3058 15.5 13.72 15.5H16.7914C17.2056 15.5 17.5414 15.8358 17.5414 16.25C17.5414 16.6642 17.2056 17 16.7914 17H13.72C13.3058 17 12.97 16.6642 12.97 16.25Z" fill="#212121"/>
<path d="M13.3402 10.25C12.5677 10.25 11.9802 10.9436 12.1072 11.7055L12.4405 13.7055C12.5409 14.3082 13.0624 14.75 13.6735 14.75H16.8264C17.4374 14.75 17.9589 14.3082 18.0594 13.7055L18.3927 11.7055C18.5197 10.9436 17.9321 10.25 17.1597 10.25H13.3402ZM13.8853 13.25L13.6353 11.75H16.8646L16.6146 13.25H13.8853Z" fill="#212121"/>
<path d="M12.25 8C10.7312 8 9.5 9.23122 9.5 10.75V19.25C9.5 20.7688 10.7312 22 12.25 22H18.25C19.7688 22 21 20.7688 21 19.25V10.75C21 9.23122 19.7688 8 18.25 8H12.25ZM11 10.75C11 10.0596 11.5596 9.5 12.25 9.5H18.25C18.9404 9.5 19.5 10.0596 19.5 10.75V19.25C19.5 19.9404 18.9404 20.5 18.25 20.5H12.25C11.5596 20.5 11 19.9404 11 19.25V10.75Z" fill="#212121"/>
<path d="M9.25 5C7.73122 5 6.5 6.23122 6.5 7.75V16.25C6.5 17.3187 7.10958 18.245 8 18.7001V7.75C8 7.05964 8.55964 6.5 9.25 6.5H17.7001C17.245 5.60958 16.3187 5 15.25 5H9.25Z" fill="#212121"/>
</svg>
