<svg width="20" height="20" viewBox="0 0 20 20" fill="none" xmlns="http://www.w3.org/2000/svg">
<path d="M4 6H16C16.5523 6 17 6.44772 17 7V14C17 14.5523 16.5523 15 16 15H4C3.44772 15 3 14.5523 3 14V7C3 6.44772 3.44772 6 4 6ZM2 7V14C2 15.1046 2.89543 16 4 16H16C17.1046 16 18 15.1046 18 14V7C18 5.89543 17.1046 5 16 5H4C2.89543 5 2 5.89543 2 7Z" fill="#424242"/>
<path d="M7.00257 8.65432C7.00257 8.45098 6.90386 8.29736 6.80384 8.20372C6.70751 8.11354 6.59564 8.0622 6.4975 8.03569C6.34556 7.99464 5.99555 7.96564 5.77249 8.26058C5.57534 8.52126 5.26267 8.83228 4.79545 9.04492C4.54411 9.15931 4.43309 9.45579 4.54748 9.70713C4.66187 9.95846 4.95835 10.0695 5.20969 9.95509C5.52161 9.81312 5.78396 9.63976 6.00257 9.45818V12.4999C6.00257 12.7761 6.22642 12.9999 6.50257 12.9999C6.77871 12.9999 7.00257 12.7761 7.00257 12.4999V8.65432ZM13.7299 9C13.4981 8.99987 13.1909 9.09896 12.874 9.45072C12.6892 9.65588 12.373 9.67235 12.1679 9.48751C11.9627 9.30267 11.9462 8.98652 12.1311 8.78136C12.6139 8.2455 13.1814 7.99969 13.7305 8C14.2668 8.00031 14.7486 8.23687 15.0558 8.59386C15.3639 8.95196 15.5243 9.47712 15.2914 9.99036C15.203 10.1854 15.0682 10.3552 14.8934 10.4995C15.0682 10.644 15.203 10.814 15.2915 11.0091C15.5241 11.5224 15.364 12.0477 15.0559 12.406C14.7487 12.7632 14.2667 12.9999 13.7302 12.9999C13.1809 13 12.6134 12.7534 12.1308 12.2168C11.9461 12.0115 11.9629 11.6953 12.1682 11.5107C12.3735 11.326 12.6897 11.3428 12.8743 11.5481C13.1914 11.9007 13.4986 11.9999 13.7302 11.9999C13.9747 11.9999 14.18 11.8908 14.2977 11.754C14.4144 11.6183 14.4167 11.5014 14.3807 11.4219C14.3378 11.3272 14.1658 11.1178 13.591 10.9868C13.3635 10.9349 13.2021 10.7326 13.2021 10.4992C13.2022 10.2659 13.3636 10.0636 13.5911 10.0118C14.1661 9.88082 14.338 9.67155 14.3807 9.57725C14.4166 9.49826 14.4145 9.38174 14.2978 9.24611C14.1801 9.10936 13.9747 9.00014 13.7299 9ZM8.8797 9.44895C9.17302 9.11361 9.44779 9.01197 9.65213 9.00105C9.86407 8.98972 10.0594 9.07218 10.2 9.20665C10.344 9.34432 10.4041 9.5088 10.3954 9.64094C10.3881 9.75256 10.327 9.91972 10.053 10.0775C9.05323 10.6533 8.5303 11.2057 8.26203 11.6603C8.12775 11.8878 8.06016 12.0861 8.02823 12.2424C8.01235 12.3201 8.00557 12.3861 8.0034 12.4386C8.00232 12.4648 8.00239 12.4876 8.00304 12.5066C8.00337 12.5162 8.00384 12.5248 8.00438 12.5324L8.00523 12.5432L8.00568 12.5481L8.0059 12.5503L8.00602 12.5514L8.00613 12.5525C8.03303 12.8069 8.24757 12.9999 8.50336 12.9999H10.9024C11.1786 12.9999 11.4024 12.7761 11.4024 12.4999C11.4024 12.2238 11.1786 11.9999 10.9024 11.9999H9.23739C9.44091 11.7324 9.8258 11.3623 10.5521 10.9441C11.0682 10.6469 11.3606 10.203 11.3933 9.70651C11.4245 9.23053 11.211 8.78974 10.891 8.48382C10.5677 8.1747 10.1086 7.97523 9.59877 8.00248C9.08135 8.03012 8.56702 8.28754 8.12702 8.79056C7.94521 8.99841 7.96632 9.31428 8.17416 9.49609C8.38201 9.6779 8.69789 9.65679 8.8797 9.44895Z" fill="#424242"/>
</svg>
