<svg width="20" height="20" viewBox="0 0 20 20" fill="none" xmlns="http://www.w3.org/2000/svg">
<path d="M16 5C17.1046 5 18 5.89543 18 7V14C18 15.1046 17.1046 16 16 16H4C2.89543 16 2 15.1046 2 14V7C2 5.89543 2.89543 5 4 5H16ZM6.49805 8.03613C6.34606 7.9951 5.99547 7.96586 5.77246 8.26074C5.57534 8.52132 5.26283 8.83234 4.7959 9.04492C4.54463 9.15933 4.4335 9.45573 4.54785 9.70703C4.66224 9.95832 4.95865 10.0694 5.20996 9.95508C5.52179 9.81313 5.78437 9.63954 6.00293 9.45801V12.5C6.00296 12.7761 6.22685 12.9999 6.50293 13C6.77893 12.9999 7.0029 12.7761 7.00293 12.5V8.6543C7.00292 8.45102 6.9037 8.29774 6.80371 8.2041C6.70757 8.11412 6.59604 8.06268 6.49805 8.03613ZM9.59863 8.00293C9.08134 8.03067 8.56685 8.28811 8.12695 8.79102C7.9456 8.99877 7.9664 9.31436 8.17383 9.49609C8.38162 9.67786 8.69805 9.65691 8.87988 9.44922C9.17315 9.11393 9.44801 9.01193 9.65234 9.00098C9.86421 8.98969 10.0596 9.07262 10.2002 9.20703C10.3439 9.34454 10.4041 9.50861 10.3955 9.64062C10.3882 9.75224 10.3267 9.91935 10.0527 10.0771C9.05309 10.6529 8.52997 11.2056 8.26172 11.6602C8.12754 11.8875 8.06027 12.0859 8.02832 12.2422C8.01246 12.3198 8.00608 12.386 8.00391 12.4385C8.00283 12.4647 8.00228 12.4878 8.00293 12.5068C8.00326 12.5163 8.00435 12.5247 8.00488 12.5322V12.543L8.00586 12.5479V12.5527C8.03282 12.807 8.24821 12.9999 8.50391 13H10.9023C11.1785 13 11.4023 12.7762 11.4023 12.5C11.4023 12.2239 11.1785 12 10.9023 12H9.2373C9.44078 11.7326 9.82579 11.3625 10.5518 10.9443C11.0679 10.6471 11.3609 10.2026 11.3936 9.70605C11.4246 9.23025 11.2105 8.78922 10.8906 8.4834C10.5674 8.17456 10.1082 7.97569 9.59863 8.00293ZM13.7305 8C13.1814 7.99976 12.6136 8.24547 12.1309 8.78125C11.9462 8.98636 11.963 9.30249 12.168 9.4873C12.373 9.67204 12.6892 9.65601 12.874 9.45117C13.1909 9.09946 13.4987 8.9999 13.7305 9C13.975 9.00028 14.1802 9.10947 14.2979 9.24609C14.4145 9.38166 14.4167 9.49816 14.3809 9.57715C14.3381 9.67147 14.1657 9.88079 13.5908 10.0117C13.3636 10.0637 13.2023 10.2659 13.2021 10.499C13.2021 10.7322 13.3636 10.9343 13.5908 10.9863C14.1655 11.1174 14.3379 11.3271 14.3809 11.4219C14.4169 11.5014 14.4145 11.6183 14.2979 11.7539C14.1802 11.8907 13.9749 11.9999 13.7305 12C13.4989 12 13.1911 11.9004 12.874 11.5479C12.6894 11.3429 12.3731 11.3262 12.168 11.5107C11.9629 11.6953 11.9463 12.0116 12.1309 12.2168C12.6134 12.7534 13.1812 13.0001 13.7305 13C14.2667 12.9999 14.7485 12.7632 15.0557 12.4062C15.3638 12.0479 15.5246 11.5221 15.292 11.0088C15.2035 10.8138 15.0682 10.6444 14.8936 10.5C15.0683 10.3557 15.2026 10.1852 15.291 9.99023C15.5239 9.47699 15.3638 8.95185 15.0557 8.59375C14.7485 8.23689 14.2667 8.00031 13.7305 8Z" fill="#424242"/>
</svg>
