<svg width="230" height="160" viewBox="0 0 230 160" fill="none" xmlns="http://www.w3.org/2000/svg">
<g opacity="0.6">
<path d="M115.455 142C149.948 142 177.91 114.018 177.91 79.5C177.91 44.9822 149.948 17 115.455 17C80.9621 17 53 44.9822 53 79.5C53 114.018 80.9621 142 115.455 142Z" fill="#EBEBEB"/>
<path d="M58.3379 54.1789C59.5533 56.5611 61.3353 58.6008 63.4979 60.1116C63.8019 60.355 64.059 60.5044 64.3416 60.6687C64.425 60.7172 64.5107 60.767 64.6005 60.821C66.9633 62.2396 69.7985 63.0278 72.7913 63.0278C75.7841 63.0278 78.6194 62.2396 80.9822 60.821C82.0848 60.1904 83.0299 59.4811 83.8962 58.693C87.1253 55.698 89.0942 51.5208 89.0942 46.792C89.0942 38.9686 83.6008 32.4001 76.2014 30.8846C68.545 37.0832 62.3823 45.0563 58.3379 54.1789Z" fill="#ECE1D4"/>
<path d="M69.5624 50.4174C69.7986 50.6538 69.9562 50.8903 70.2712 51.1267C70.5075 51.3632 70.665 51.442 70.9013 51.5996C70.98 51.6784 71.2163 51.8361 71.295 51.9149C71.295 51.9149 71.3738 51.9149 71.3738 51.9937L71.4526 52.0725V53.4912C71.4526 53.4912 71.4526 53.4912 71.3738 53.4124C71.295 53.3335 71.0588 53.1759 70.98 53.0971C70.7437 53.0183 70.5862 52.7818 70.35 52.703C70.2712 52.703 70.2712 52.6242 70.1137 52.6242C69.4049 52.2301 68.8536 51.8361 68.8536 51.2844C68.9323 51.1267 69.1686 50.8115 69.5624 50.4174ZM83.4238 58.1412C82.7937 56.8014 82.0061 55.6192 80.5885 54.9098C79.8797 54.5946 79.0921 54.2793 78.3045 54.2793C78.0682 54.2793 77.832 54.2793 77.5957 54.2793C77.5169 54.2793 77.3594 54.2793 77.2807 54.2793C76.178 54.2005 76.0993 53.9641 76.0993 53.9641V51.6784C76.8081 51.0479 77.5169 50.3386 78.0682 49.7081C78.5408 48.9987 78.9346 48.2106 79.1708 47.186C80.0372 46.9496 80.6672 46.1614 80.5885 45.2156C80.5885 44.8216 80.2735 44.4275 80.2735 44.0334C80.2735 43.797 80.2735 43.6393 80.2735 43.4029C80.2735 43.3241 80.2735 43.0876 80.2735 43.0088C80.2735 42.93 80.2735 42.6936 80.2735 42.6148C80.1947 41.9054 79.9584 41.1961 79.5646 40.4079C78.3833 38.2011 76.178 36.7825 73.579 36.7825C73.1065 36.7825 72.5552 36.8613 72.0826 37.0189C71.2163 37.2554 70.2712 37.6494 69.5624 38.2011C69.4836 38.2799 69.2473 38.4376 69.1686 38.5952L69.0898 38.674C68.3022 39.4622 67.5934 40.4079 67.2784 41.5113C66.8846 42.6148 66.8846 43.7182 66.9634 44.8216C66.9634 44.8216 66.9634 44.8216 66.9634 44.9004V44.9792C66.9634 45.2156 67.0421 45.2156 66.9634 45.2945C66.9634 45.3733 66.8846 45.3733 66.8846 45.5309C66.6483 45.8462 66.5696 46.2402 66.8058 46.8707C67.1996 47.8953 67.8297 47.7377 68.5385 48.2894C68.5385 48.2894 68.4598 48.2894 68.4598 48.3682L67.7509 48.5258C64.5219 49.5504 63.4193 52.2301 64.8369 53.9641C65.3094 54.5946 66.097 55.0675 67.3572 55.3827C67.0421 55.3827 66.7271 55.6192 66.5696 55.7768C65.1519 56.8802 64.2856 58.6141 64.0493 60.1904C64.0493 60.2692 64.0493 60.4269 64.0493 60.5057C64.4431 60.7421 64.7581 60.9786 65.1519 61.215L80.8248 60.8209C81.8486 60.1904 82.2424 59.7175 83.1875 58.9294C83.03 58.3777 83.5813 58.2201 83.4238 58.1412Z" fill="white"/>
<path d="M83.8964 58.6929C83.03 59.481 82.0849 60.1904 80.9823 60.8209C78.6196 62.2396 75.7843 63.0277 72.7915 63.0277C69.7987 63.0277 66.9634 62.2396 64.6007 60.8209C64.2069 60.5844 63.8918 60.4268 63.498 60.1116C63.498 60.0327 63.498 59.8751 63.498 59.7963C63.7343 58.22 64.6007 56.4861 66.0183 55.3827C66.2546 55.1462 66.4908 55.0674 66.8059 54.9886C65.6245 54.7522 64.8369 54.2793 64.2856 53.5699H68.066C69.1686 55.0674 70.9013 55.9344 72.8702 55.9344C74.6029 55.9344 76.0993 55.2251 77.2019 54.1216C77.2807 54.1216 77.4382 54.1216 77.517 54.1216C77.7532 54.1216 77.9108 54.1216 78.2258 54.1216C79.0134 54.1216 79.8009 54.3581 80.5098 54.7522C81.9274 55.4615 82.8725 56.6437 83.5813 58.0624C83.8176 58.2988 83.8176 58.5353 83.8964 58.6929Z" fill="#B7B4AF"/>
<path d="M80.3525 43.0088C79.1711 43.4028 77.7535 43.6393 76.4934 43.4816C74.3669 43.2452 72.398 42.4571 70.8228 41.1172C70.3503 42.6147 69.0114 43.7181 67.515 44.4274C67.2787 44.5062 67.1212 44.6639 66.8849 44.6639C66.8849 44.6639 66.8849 44.6639 66.8849 44.5851C66.8061 43.4816 66.8061 42.3782 67.1999 41.2748C67.515 40.1714 68.2238 39.3045 69.0114 38.4375L69.0901 38.3587C69.1689 38.2799 69.4052 38.1223 69.4839 37.9646C70.1927 37.3341 71.0591 36.94 72.0042 36.7824C72.4767 36.7036 73.028 36.546 73.5006 36.546C76.0996 36.546 78.3836 37.9646 79.4862 40.1714C79.88 40.9596 80.1162 41.7477 80.195 42.3782C80.3525 42.6935 80.3525 42.8511 80.3525 43.0088Z" fill="#676767"/>
<path d="M72.3188 57.8259C71.6887 58.5353 70.7436 58.5353 69.7985 58.5353C70.6649 57.6683 70.1923 54.7522 66.9632 55.0674C62.5528 54.2793 62.9466 49.6292 67.357 48.2894L68.0658 48.0529L68.1446 48.1317C68.4596 48.9987 68.9322 49.8657 69.4047 50.4174C67.5933 51.9148 70.1135 52.3089 71.2949 53.4911C72.3975 54.1216 73.3426 56.5649 72.3188 57.8259Z" fill="#676767"/>
<path d="M156.32 32.2348C155.685 32.1671 155.039 32.1324 154.385 32.1324C144.54 32.1324 136.507 40.2503 136.507 50.1021C136.507 55.1463 138.555 59.6387 141.862 62.8701C142.014 63.0071 142.164 63.144 142.311 63.2799C142.93 63.8475 143.526 64.3953 144.225 64.8405C147.06 66.8896 150.605 68.0719 154.385 68.0719C159.11 68.0719 163.363 66.2591 166.592 63.2642C166.907 63.0277 167.222 62.7913 167.459 62.476C169.787 59.9617 171.496 56.7793 172.14 53.2259C168.393 45.1442 162.971 37.9984 156.32 32.2348Z" fill="#EDE5DA"/>
<path d="M167.459 62.476C167.222 62.7913 166.907 63.0277 166.592 63.2642C163.363 66.2591 159.11 68.0718 154.385 68.0718C150.604 68.0718 147.06 66.8896 144.225 64.8404C143.359 64.2887 142.65 63.5794 141.862 62.8701C142.256 62.3184 142.965 62.0031 144.304 61.4514L144.855 61.215C145.958 60.8209 147.454 60.2692 149.344 59.4022C149.659 59.3234 149.896 59.087 150.132 58.8505C150.211 58.7717 150.368 58.6141 150.368 58.4565C150.447 58.22 150.604 57.9048 150.604 57.6683V54.0428C150.526 53.964 150.526 53.964 150.368 53.8064C150.053 53.4123 149.817 52.8606 149.817 52.2301L149.581 52.1513C148.635 52.3877 148.714 51.3631 148.478 49.4716C148.399 48.6834 148.478 48.5258 148.872 48.3682L149.187 47.9741C148.557 46.4766 148.242 45.058 148.242 44.0334C148.242 42.2206 149.029 41.0384 150.053 40.4867C149.423 39.2257 149.423 38.7528 149.423 38.7528C149.423 38.7528 153.203 39.3833 154.464 39.1469C156.039 38.8316 158.638 39.2257 159.583 41.4325C161.158 42.063 161.709 43.0088 161.946 44.1122C162.182 45.8461 161.158 47.6589 161 48.3682V48.5258C161.237 48.6046 161.316 48.8411 161.237 49.6292C161 51.442 161 52.5454 160.134 52.3089L159.268 53.8064C159.268 54.0428 159.268 54.0428 159.189 54.1217C159.189 54.4369 159.189 54.9886 159.189 57.9048C159.189 58.22 159.268 58.6929 159.504 58.8505C159.583 58.9293 159.583 59.087 159.74 59.087C159.977 59.3234 160.134 59.4811 160.37 59.4811C162.497 60.348 163.993 60.9785 165.175 61.4514C166.277 61.8455 167.065 62.1608 167.459 62.476Z" fill="white"/>
<path d="M167.459 62.476C167.222 62.7913 166.907 63.0277 166.592 63.2641C163.363 66.2591 159.11 68.0718 154.385 68.0718C150.604 68.0718 147.06 66.8896 144.225 64.8404C143.359 64.2887 142.65 63.5794 141.862 62.8701C142.256 62.3184 142.965 62.0031 144.304 61.4514L144.855 61.215C145.958 60.8209 147.454 60.2692 149.344 59.4022C149.659 59.3234 149.896 59.087 150.132 58.8505C151.235 60.348 152.888 61.2938 154.936 61.2938C156.905 61.2938 158.559 60.348 159.662 58.9293C159.898 59.1658 160.055 59.3234 160.292 59.3234C162.418 60.1904 163.915 60.8209 165.096 61.2938C166.277 61.8455 167.065 62.1607 167.459 62.476Z" fill="#B7B4AF"/>
<path d="M160.922 48.2894C161.001 47.8953 160.843 47.186 160.607 46.8707C160.607 46.7919 160.528 46.7919 160.528 46.6343C159.741 45.1368 158.166 44.5851 156.669 44.5063C152.731 44.2698 152.416 45.058 151.235 43.9546C151.629 44.5063 151.629 45.4521 150.999 46.5555C150.605 47.3436 149.817 47.7377 149.03 47.9741C147.218 43.8758 148.163 41.3537 149.896 40.4867C149.266 39.2257 149.266 38.7528 149.266 38.7528C149.266 38.7528 153.046 39.3833 154.307 39.1469C155.882 38.8316 158.481 39.2257 159.426 41.4325C161.001 42.063 161.552 43.0088 161.789 44.1122C162.104 45.6885 161.158 47.5012 160.922 48.2894Z" fill="#676767"/>
<path d="M70.3272 122.707C75.6229 128.244 81.9264 132.809 88.9428 136.106C92.4779 135.65 95.6678 134.109 98.1522 131.754C98.1881 131.727 98.223 131.701 98.257 131.676C98.5211 131.48 98.7305 131.324 98.9398 131.045C101.696 128.05 103.508 124.03 103.508 119.538C103.508 110.316 96.0258 102.75 86.7323 102.829C77.5176 102.829 70.0356 110.316 70.0356 119.538C70.0356 120.626 70.1357 121.685 70.3272 122.707Z" fill="#ECE1D4"/>
<path d="M88.9427 136.105C92.4778 135.65 95.6678 134.109 98.1522 131.754C98.1881 131.727 98.223 131.701 98.257 131.676C98.5211 131.48 98.7304 131.324 98.9398 131.045C98.5649 130.745 97.9046 130.444 97.0946 130.076C97.0537 130.058 97.0125 130.039 96.9708 130.02C96.3112 129.784 95.5389 129.464 94.6032 129.076C93.9748 128.815 93.2727 128.524 92.4816 128.207C92.2454 128.207 92.0878 128.05 91.8516 127.813C91.7465 127.813 91.7115 127.743 91.6765 127.673C91.659 127.638 91.6415 127.603 91.6153 127.577C91.379 127.419 91.3003 127.025 91.3003 126.71V123.242C91.379 123.163 91.379 123.163 91.379 122.927L92.1666 121.508C92.8528 121.645 92.9411 120.945 93.1088 119.616C93.1335 119.419 93.16 119.209 93.1904 118.986C93.2692 118.277 93.1904 118.04 92.9542 117.961V117.883C92.9959 117.695 93.0931 117.435 93.2088 117.124C93.5298 116.265 93.9941 115.021 93.8205 113.863C93.5842 112.839 93.1117 111.972 91.6153 111.341C90.6702 109.292 88.3075 108.898 86.8111 109.213C85.5509 109.449 82.0856 108.819 82.0856 108.819C82.0856 108.819 82.0856 109.213 82.7156 110.395C81.6918 110.868 80.983 111.972 80.983 113.705C80.983 114.73 81.2192 115.991 81.8493 117.41L81.5343 117.804C81.1405 117.961 81.0617 118.119 81.1405 118.828C81.1806 119.136 81.2116 119.419 81.2398 119.675C81.3773 120.928 81.4451 121.547 82.1643 121.35L82.4006 121.429C82.4006 122.06 82.5581 122.533 82.8732 122.927L83.1094 123.163V126.552C83.1094 126.71 83.0394 126.868 82.9694 127.025C82.9344 127.104 82.8994 127.183 82.8732 127.262C82.8732 127.419 82.7156 127.577 82.6369 127.656C82.5581 127.708 82.4881 127.77 82.4181 127.831C82.2781 127.953 82.1381 128.076 81.9281 128.129C80.4034 128.858 79.2135 129.309 78.2645 129.668C78.2503 129.673 78.2362 129.679 78.2222 129.684C81.5556 132.165 85.1447 134.321 88.9427 136.105Z" fill="white"/>
<path d="M88.9427 136.105C92.4778 135.65 95.6678 134.109 98.1522 131.754C98.1881 131.727 98.223 131.701 98.257 131.676C98.5211 131.48 98.7304 131.324 98.9398 131.045C98.546 130.729 97.8372 130.414 96.6558 129.941C95.9962 129.706 95.2239 129.385 94.2883 128.997C93.6599 128.736 92.9577 128.445 92.1666 128.129C91.9303 128.129 91.7728 127.971 91.5365 127.734C90.5127 129.074 88.9375 129.941 87.1261 129.941C85.2359 129.941 83.6607 129.074 82.6369 127.656C82.5581 127.708 82.4881 127.769 82.4181 127.831C82.2781 127.953 82.1381 128.076 81.9281 128.129C80.4034 128.858 79.2135 129.309 78.2645 129.668C78.2503 129.673 78.2362 129.679 78.2222 129.684C81.5556 132.165 85.1447 134.321 88.9427 136.105Z" fill="#D4D2CF"/>
<path d="M92.7963 117.804C92.8751 117.41 92.7176 116.779 92.4813 116.464C92.4813 116.385 92.4025 116.385 92.4025 116.228C91.6937 114.809 90.1973 114.336 88.7797 114.257C85.078 114.021 84.763 114.73 83.6604 113.784C84.0542 114.257 84.0542 115.203 83.4241 116.149C83.0303 116.858 82.3215 117.252 81.6127 117.489C79.88 113.706 80.8251 111.262 82.4003 110.474C81.7702 109.292 81.7702 108.898 81.7702 108.898C81.7702 108.898 85.2355 109.528 86.4957 109.292C87.9921 108.977 90.3548 109.371 91.2999 111.42C92.7963 112.05 93.2689 112.917 93.5051 113.942C93.8989 115.361 93.0326 117.095 92.7963 117.804Z" fill="#676767"/>
</g>
<path d="M135.247 78.7907C135.247 84.4653 132.963 89.5883 129.419 93.3714C129.182 93.7655 128.789 94.0019 128.395 94.2384C124.614 97.785 119.495 99.913 113.982 99.913C109.572 99.913 105.398 98.4943 101.932 96.1299C100.908 95.4994 100.042 94.6324 99.1756 93.8443C95.2377 90.0612 92.875 84.7018 92.875 78.7119C92.875 67.0473 102.405 57.5107 114.061 57.5107C125.796 57.5896 135.247 67.1261 135.247 78.7907Z" fill="white"/>
<path d="M135.247 78.7907C135.247 85.017 132.569 90.4552 128.395 94.396C124.615 97.9426 119.495 100.071 113.982 100.071C109.572 100.071 105.398 98.6519 101.932 96.2875C96.3405 92.5044 92.7964 86.1204 92.7964 78.8695C92.7964 67.2049 102.326 57.6683 113.982 57.6683C125.638 57.6683 135.247 67.1261 135.247 78.7907Z" fill="#F3EDE7"/>
<path d="M129.419 93.3714C129.183 93.7655 128.789 94.0019 128.395 94.2384C124.615 97.785 119.496 99.913 113.983 99.913C109.572 99.913 105.398 98.4944 101.933 96.1299C100.909 95.4994 100.043 94.6324 99.1763 93.8443C99.6488 93.2138 100.436 92.8197 102.09 92.1892L102.72 91.9527C103.981 91.4799 105.792 90.8493 108.076 89.8247C108.47 89.6671 108.706 89.4307 108.942 89.1942C109.1 89.0366 109.179 88.9578 109.179 88.7213C109.336 88.4849 109.415 88.0908 109.415 87.8544V83.5196C109.257 83.3619 109.257 83.3619 109.179 83.2831C108.785 82.8102 108.548 82.1797 108.548 81.3916L108.312 81.234C107.21 81.4704 107.288 80.367 107.052 78.0814C106.895 77.2144 107.052 76.978 107.525 76.8203L107.918 76.3474C107.131 74.5347 106.816 72.9584 106.816 71.6186C106.816 69.4906 107.682 68.0719 108.942 67.4414C108.155 65.9439 108.155 65.3922 108.155 65.3922C108.155 65.3922 112.565 66.1804 114.14 65.8651C116.03 65.471 119.102 66.0227 120.205 68.5448C122.095 69.3329 122.725 70.4363 122.961 71.6974C123.197 73.7466 122.095 75.8746 121.859 76.7415V76.8991C122.095 77.0568 122.252 77.2932 122.095 78.1602C121.859 80.2882 121.859 81.5492 120.835 81.3128L119.811 83.1255C119.811 83.3619 119.811 83.3619 119.653 83.5196C119.653 83.9136 119.653 84.5442 119.653 87.9332C119.653 88.3273 119.811 88.8002 120.047 89.0366C120.205 89.1942 120.205 89.273 120.283 89.273C120.52 89.5095 120.756 89.7459 121.071 89.7459C123.591 90.7705 125.403 91.5587 126.742 92.0316C128.08 92.5833 128.947 92.9773 129.419 93.3714Z" fill="white"/>
<path d="M129.419 93.3714C129.183 93.7655 128.789 94.0019 128.395 94.2384C124.615 97.785 119.496 99.913 113.983 99.913C109.572 99.913 105.398 98.4943 101.933 96.1299C100.909 95.4994 100.043 94.6324 99.1763 93.8443C99.6488 93.2138 100.436 92.8197 102.09 92.1892L102.72 91.9527C103.981 91.4798 105.792 90.8493 108.076 89.8247C108.47 89.6671 108.706 89.4307 108.942 89.1942C110.202 91.007 112.25 92.1104 114.613 92.1104C116.897 92.1104 118.945 91.007 120.205 89.3518C120.441 89.5883 120.677 89.8247 120.992 89.8247C123.512 90.8493 125.324 91.6375 126.663 92.1104C128.08 92.5832 128.947 92.9773 129.419 93.3714Z" fill="#B7B4AF"/>
<path d="M121.7 76.5839C121.858 76.111 121.543 75.3229 121.307 74.9288C121.307 74.7712 121.149 74.7712 121.149 74.6924C120.283 72.8796 118.393 72.2491 116.581 72.1703C111.856 71.9338 111.541 72.8008 110.123 71.5398C110.596 72.1703 110.596 73.3525 109.887 74.6135C109.414 75.4805 108.469 76.0322 107.603 76.2686C105.476 71.461 106.579 68.3872 108.627 67.3626C107.839 65.8651 107.839 65.3134 107.839 65.3134C107.839 65.3134 112.25 66.1016 113.825 65.7863C115.715 65.3922 118.786 65.9439 119.889 68.466C121.779 69.2541 122.409 70.3576 122.646 71.6186C123.118 73.589 121.937 75.7169 121.7 76.5839Z" fill="#676767"/>
<path d="M109.572 87.7756V83.4408C109.415 83.2832 109.415 83.2832 109.336 83.2043V82.9679C109.572 83.362 109.808 83.756 110.202 83.9925L113.589 86.4357C114.376 87.0663 115.479 87.0663 116.267 86.4357L119.417 83.6772C119.574 83.5196 119.653 83.5196 119.811 83.4408C119.811 83.8349 119.811 84.4654 119.811 87.8544C119.811 88.0909 119.811 88.2485 119.968 88.4849H109.572C109.415 88.1697 109.572 88.012 109.572 87.7756Z" fill="url(#paint0_linear_3306_34099)"/>
<g filter="url(#filter0_dd_3306_34099)">
<path d="M165.987 122.341L150.392 106.583C148.793 104.967 146.494 104.361 144.395 104.765L140.596 100.927C151.392 87.3913 150.492 67.4923 138.097 54.9671C127.7 44.462 112.206 42.1388 99.6101 48.0984C96.1113 49.7146 92.8125 52.0378 89.8135 54.9671C86.1148 58.6035 83.5157 62.9469 81.9162 67.5933C81.1165 69.8156 80.5167 72.0378 80.2168 74.361C78.7173 84.7651 81.9162 95.7752 89.8135 103.755C90.0134 103.957 90.1134 104.058 90.3133 104.26C96.911 110.725 105.408 113.856 114.005 113.856C121.602 113.856 129.2 111.331 135.398 106.28L139.196 110.119C138.796 112.24 139.396 114.563 140.996 116.179L156.49 131.937C159.089 134.563 163.288 134.563 165.887 131.937C168.586 129.311 168.586 124.967 165.987 122.341ZM133.198 98.8055C131.999 100.018 130.699 101.028 129.4 102.038C128.1 102.947 126.801 103.654 125.501 104.26C118.304 107.694 109.807 107.694 102.609 104.26C99.81 102.947 97.2109 101.129 94.9117 98.8055C88.314 92.1388 85.8149 82.9469 87.4143 74.361C87.8142 72.0378 88.5139 69.7146 89.6136 67.5933C90.9131 64.8661 92.7125 62.2398 94.9117 60.0176C96.4112 58.5024 98.0107 57.1893 99.7101 56.1792C104.109 53.3509 109.107 52.0378 114.105 52.0378C121.103 52.0378 128 54.6641 133.298 60.0176C143.795 70.7247 143.795 88.0984 133.198 98.8055Z" fill="white"/>
</g>
<defs>
<filter id="filter0_dd_3306_34099" x="63.8579" y="36.8777" width="120.066" height="121.029" filterUnits="userSpaceOnUse" color-interpolation-filters="sRGB">
<feFlood flood-opacity="0" result="BackgroundImageFix"/>
<feColorMatrix in="SourceAlpha" type="matrix" values="0 0 0 0 0 0 0 0 0 0 0 0 0 0 0 0 0 0 127 0" result="hardAlpha"/>
<feOffset dy="8"/>
<feGaussianBlur stdDeviation="8"/>
<feColorMatrix type="matrix" values="0 0 0 0 0.482733 0 0 0 0 0.482733 0 0 0 0 0.482733 0 0 0 0.24 0"/>
<feBlend mode="normal" in2="BackgroundImageFix" result="effect1_dropShadow_3306_34099"/>
<feColorMatrix in="SourceAlpha" type="matrix" values="0 0 0 0 0 0 0 0 0 0 0 0 0 0 0 0 0 0 127 0" result="hardAlpha"/>
<feOffset dy="2"/>
<feGaussianBlur stdDeviation="2"/>
<feComposite in2="hardAlpha" operator="out"/>
<feColorMatrix type="matrix" values="0 0 0 0 0 0 0 0 0 0 0 0 0 0 0 0 0 0 0.12 0"/>
<feBlend mode="normal" in2="effect1_dropShadow_3306_34099" result="effect2_dropShadow_3306_34099"/>
<feBlend mode="normal" in="SourceGraphic" in2="effect2_dropShadow_3306_34099" result="shape"/>
</filter>
<linearGradient id="paint0_linear_3306_34099" x1="114.632" y1="88.3131" x2="114.632" y2="85.4233" gradientUnits="userSpaceOnUse">
<stop stop-color="white" stop-opacity="0"/>
<stop offset="0.9913" stop-color="#DAD6CF"/>
</linearGradient>
</defs>
</svg>
