<svg width="230" height="160" viewBox="0 0 230 160" fill="none" xmlns="http://www.w3.org/2000/svg">
<g opacity="0.6">
<path d="M115.455 142C149.948 142 177.91 114.018 177.91 79.5C177.91 44.9822 149.948 17 115.455 17C80.9621 17 53 44.9822 53 79.5C53 114.018 80.9621 142 115.455 142Z" fill="#262626"/>
<path d="M58.3379 54.1789C59.5533 56.5612 61.3353 58.6008 63.4979 60.1117C63.8019 60.355 64.059 60.5045 64.3416 60.6687C64.425 60.7173 64.5107 60.7671 64.6005 60.821C66.9633 62.2396 69.7985 63.0278 72.7913 63.0278C75.7841 63.0278 78.6194 62.2396 80.9822 60.821C82.0848 60.1905 83.0299 59.4811 83.8962 58.693C87.1253 55.698 89.0942 51.5209 89.0942 46.792C89.0942 38.9686 83.6008 32.4001 76.2014 30.8846C68.545 37.0832 62.3823 45.0564 58.3379 54.1789Z" fill="#474747"/>
<path d="M69.5624 50.4174C69.7986 50.6538 69.9562 50.8903 70.2712 51.1267C70.5075 51.3632 70.665 51.442 70.9013 51.5996C70.98 51.6784 71.2163 51.8361 71.295 51.9149C71.295 51.9149 71.3738 51.9149 71.3738 51.9937L71.4526 52.0725V53.4912C71.4526 53.4912 71.4526 53.4912 71.3738 53.4124C71.295 53.3335 71.0588 53.1759 70.98 53.0971C70.7437 53.0183 70.5862 52.7818 70.35 52.703C70.2712 52.703 70.2712 52.6242 70.1137 52.6242C69.4049 52.2301 68.8536 51.8361 68.8536 51.2844C68.9323 51.1267 69.1686 50.8115 69.5624 50.4174ZM83.4238 58.1412C82.7937 56.8014 82.0061 55.6192 80.5885 54.9098C79.8797 54.5946 79.0921 54.2793 78.3045 54.2793C78.0682 54.2793 77.832 54.2793 77.5957 54.2793C77.5169 54.2793 77.3594 54.2793 77.2807 54.2793C76.178 54.2005 76.0993 53.9641 76.0993 53.9641V51.6784C76.8081 51.0479 77.5169 50.3386 78.0682 49.7081C78.5408 48.9987 78.9346 48.2106 79.1708 47.186C80.0372 46.9496 80.6672 46.1614 80.5885 45.2156C80.5885 44.8216 80.2735 44.4275 80.2735 44.0334C80.2735 43.797 80.2735 43.6393 80.2735 43.4029C80.2735 43.3241 80.2735 43.0876 80.2735 43.0088C80.2735 42.93 80.2735 42.6936 80.2735 42.6148C80.1947 41.9054 79.9584 41.1961 79.5646 40.4079C78.3833 38.2011 76.178 36.7825 73.579 36.7825C73.1065 36.7825 72.5552 36.8613 72.0826 37.0189C71.2163 37.2554 70.2712 37.6494 69.5624 38.2011C69.4836 38.2799 69.2473 38.4376 69.1686 38.5952L69.0898 38.674C68.3022 39.4622 67.5934 40.4079 67.2784 41.5113C66.8846 42.6148 66.8846 43.7182 66.9634 44.8216C66.9634 44.8216 66.9634 44.8216 66.9634 44.9004V44.9792C66.9634 45.2156 67.0421 45.2156 66.9634 45.2945C66.9634 45.3733 66.8846 45.3733 66.8846 45.5309C66.6483 45.8462 66.5696 46.2402 66.8058 46.8707C67.1996 47.8953 67.8297 47.7377 68.5385 48.2894C68.5385 48.2894 68.4598 48.2894 68.4598 48.3682L67.7509 48.5258C64.5219 49.5504 63.4193 52.2301 64.8369 53.9641C65.3094 54.5946 66.097 55.0675 67.3572 55.3827C67.0421 55.3827 66.7271 55.6192 66.5696 55.7768C65.1519 56.8802 64.2856 58.6141 64.0493 60.1904C64.0493 60.2692 64.0493 60.4269 64.0493 60.5057C64.4431 60.7421 64.7581 60.9786 65.1519 61.215L80.8248 60.8209C81.8486 60.1904 82.2424 59.7175 83.1875 58.9294C83.03 58.3777 83.5813 58.2201 83.4238 58.1412Z" fill="#CCCCCC"/>
<path d="M83.8964 58.6929C83.03 59.4811 82.0849 60.1904 80.9823 60.8209C78.6196 62.2396 75.7843 63.0277 72.7915 63.0277C69.7987 63.0277 66.9634 62.2396 64.6007 60.8209C64.2069 60.5845 63.8918 60.4268 63.498 60.1116C63.498 60.0328 63.498 59.8751 63.498 59.7963C63.7343 58.22 64.6007 56.4861 66.0183 55.3827C66.2546 55.1463 66.4908 55.0675 66.8059 54.9886C65.6245 54.7522 64.8369 54.2793 64.2856 53.57H68.066C69.1686 55.0675 70.9013 55.9344 72.8702 55.9344C74.6029 55.9344 76.0993 55.2251 77.2019 54.1217C77.2807 54.1217 77.4382 54.1217 77.517 54.1217C77.7532 54.1217 77.9108 54.1217 78.2258 54.1217C79.0134 54.1217 79.8009 54.3581 80.5098 54.7522C81.9274 55.4615 82.8725 56.6437 83.5813 58.0624C83.8176 58.2989 83.8176 58.5353 83.8964 58.6929Z" fill="#777777"/>
<path d="M80.3525 43.0088C79.1711 43.4029 77.7535 43.6393 76.4934 43.4817C74.3669 43.2452 72.398 42.4571 70.8228 41.1172C70.3503 42.6147 69.0114 43.7181 67.515 44.4275C67.2787 44.5063 67.1212 44.6639 66.8849 44.6639C66.8849 44.6639 66.8849 44.6639 66.8849 44.5851C66.8061 43.4817 66.8061 42.3783 67.1999 41.2749C67.515 40.1715 68.2238 39.3045 69.0114 38.4375L69.0901 38.3587C69.1689 38.2799 69.4052 38.1223 69.4839 37.9647C70.1927 37.3341 71.0591 36.9401 72.0042 36.7824C72.4767 36.7036 73.028 36.546 73.5006 36.546C76.0996 36.546 78.3836 37.9647 79.4862 40.1715C79.88 40.9596 80.1162 41.7478 80.195 42.3783C80.3525 42.6935 80.3525 42.8512 80.3525 43.0088Z" fill="#3A3A3A"/>
<path d="M72.3188 57.826C71.6887 58.5353 70.7436 58.5353 69.7985 58.5353C70.6649 57.6684 70.1923 54.7522 66.9632 55.0675C62.5528 54.2793 62.9466 49.6293 67.357 48.2894L68.0658 48.053L68.1446 48.1318C68.4596 48.9988 68.9322 49.8657 69.4047 50.4174C67.5933 51.9149 70.1135 52.309 71.2949 53.4912C72.3975 54.1217 73.3426 56.565 72.3188 57.826Z" fill="#676767"/>
<path d="M156.32 32.2348C155.685 32.1671 155.039 32.1324 154.385 32.1324C144.54 32.1324 136.507 40.2503 136.507 50.1021C136.507 55.1463 138.555 59.6387 141.862 62.8701C142.014 63.0071 142.164 63.144 142.311 63.2799C142.93 63.8475 143.526 64.3953 144.225 64.8405C147.06 66.8896 150.605 68.0719 154.385 68.0719C159.11 68.0719 163.363 66.2591 166.592 63.2642C166.907 63.0277 167.222 62.7913 167.459 62.476C169.787 59.9617 171.496 56.7793 172.14 53.2259C168.393 45.1442 162.971 37.9984 156.32 32.2348Z" fill="#474747"/>
<path d="M167.459 62.476C167.222 62.7913 166.907 63.0277 166.592 63.2642C163.363 66.2591 159.11 68.0719 154.385 68.0719C150.604 68.0719 147.06 66.8897 144.225 64.8405C143.359 64.2888 142.65 63.5794 141.862 62.8701C142.256 62.3184 142.965 62.0032 144.304 61.4515L144.855 61.215C145.958 60.8209 147.454 60.2692 149.344 59.4023C149.659 59.3235 149.896 59.087 150.132 58.8506C150.211 58.7717 150.368 58.6141 150.368 58.4565C150.447 58.22 150.604 57.9048 150.604 57.6683V54.0429C150.526 53.9641 150.526 53.9641 150.368 53.8064C150.053 53.4124 149.817 52.8607 149.817 52.2301L149.581 52.1513C148.635 52.3878 148.714 51.3632 148.478 49.4716C148.399 48.6835 148.478 48.5259 148.872 48.3682L149.187 47.9741C148.557 46.4767 148.242 45.058 148.242 44.0334C148.242 42.2207 149.029 41.0385 150.053 40.4868C149.423 39.2257 149.423 38.7528 149.423 38.7528C149.423 38.7528 153.203 39.3834 154.464 39.1469C156.039 38.8317 158.638 39.2257 159.583 41.4325C161.158 42.0631 161.709 43.0088 161.946 44.1122C162.182 45.8462 161.158 47.6589 161 48.3682V48.5259C161.237 48.6047 161.316 48.8411 161.237 49.6293C161 51.442 161 52.5454 160.134 52.309L159.268 53.8064C159.268 54.0429 159.268 54.0429 159.189 54.1217C159.189 54.4369 159.189 54.9886 159.189 57.9048C159.189 58.22 159.268 58.6929 159.504 58.8506C159.583 58.9294 159.583 59.087 159.74 59.087C159.977 59.3235 160.134 59.4811 160.37 59.4811C162.497 60.348 163.993 60.9786 165.175 61.4515C166.277 61.8455 167.065 62.1608 167.459 62.476Z" fill="#CCCCCC"/>
<path d="M167.459 62.476C167.222 62.7913 166.907 63.0277 166.592 63.2641C163.363 66.2591 159.11 68.0718 154.385 68.0718C150.604 68.0718 147.06 66.8896 144.225 64.8404C143.359 64.2887 142.65 63.5794 141.862 62.8701C142.256 62.3184 142.965 62.0031 144.304 61.4514L144.855 61.215C145.958 60.8209 147.454 60.2692 149.344 59.4022C149.659 59.3234 149.896 59.087 150.132 58.8505C151.235 60.348 152.888 61.2938 154.936 61.2938C156.905 61.2938 158.559 60.348 159.662 58.9293C159.898 59.1658 160.055 59.3234 160.292 59.3234C162.418 60.1904 163.915 60.8209 165.096 61.2938C166.277 61.8455 167.065 62.1607 167.459 62.476Z" fill="#777777"/>
<path d="M160.922 48.2894C161.001 47.8953 160.843 47.186 160.607 46.8707C160.607 46.7919 160.528 46.7919 160.528 46.6343C159.741 45.1368 158.166 44.5851 156.669 44.5063C152.731 44.2699 152.416 45.058 151.235 43.9546C151.629 44.5063 151.629 45.4521 150.999 46.5555C150.605 47.3436 149.817 47.7377 149.03 47.9741C147.218 43.8758 148.163 41.3537 149.896 40.4868C149.266 39.2257 149.266 38.7528 149.266 38.7528C149.266 38.7528 153.046 39.3834 154.307 39.1469C155.882 38.8317 158.481 39.2257 159.426 41.4325C161.001 42.0631 161.552 43.0088 161.789 44.1122C162.104 45.6885 161.158 47.5013 160.922 48.2894Z" fill="#3A3A3A"/>
<path d="M70.3272 122.707C75.6229 128.244 81.9264 132.809 88.9428 136.106C92.4779 135.65 95.6678 134.109 98.1522 131.754C98.1881 131.727 98.223 131.701 98.257 131.676C98.5211 131.48 98.7305 131.324 98.9398 131.045C101.696 128.05 103.508 124.03 103.508 119.538C103.508 110.317 96.0258 102.75 86.7323 102.829C77.5176 102.829 70.0356 110.317 70.0356 119.538C70.0356 120.626 70.1357 121.685 70.3272 122.707Z" fill="#474747"/>
<path d="M88.9427 136.106C92.4778 135.65 95.6678 134.109 98.1522 131.754C98.1881 131.727 98.223 131.701 98.257 131.676C98.5211 131.48 98.7304 131.324 98.9398 131.045C98.5649 130.745 97.9046 130.445 97.0946 130.076C97.0537 130.058 97.0125 130.039 96.9708 130.02C96.3112 129.784 95.5389 129.464 94.6032 129.076C93.9748 128.815 93.2727 128.524 92.4816 128.207C92.2454 128.207 92.0878 128.05 91.8516 127.813C91.7465 127.813 91.7115 127.743 91.6765 127.673C91.659 127.638 91.6415 127.603 91.6153 127.577C91.379 127.419 91.3003 127.025 91.3003 126.71V123.242C91.379 123.163 91.379 123.163 91.379 122.927L92.1666 121.508C92.8528 121.646 92.9411 120.945 93.1088 119.616C93.1335 119.419 93.16 119.209 93.1904 118.986C93.2692 118.277 93.1904 118.04 92.9542 117.962V117.883C92.9959 117.695 93.0931 117.435 93.2088 117.125C93.5298 116.265 93.9941 115.022 93.8205 113.863C93.5842 112.839 93.1117 111.972 91.6153 111.341C90.6702 109.292 88.3075 108.898 86.8111 109.213C85.5509 109.45 82.0856 108.819 82.0856 108.819C82.0856 108.819 82.0856 109.213 82.7156 110.395C81.6918 110.868 80.983 111.972 80.983 113.706C80.983 114.73 81.2192 115.991 81.8493 117.41L81.5343 117.804C81.1405 117.962 81.0617 118.119 81.1405 118.829C81.1806 119.136 81.2116 119.419 81.2398 119.676C81.3773 120.928 81.4451 121.547 82.1643 121.351L82.4006 121.429C82.4006 122.06 82.5581 122.533 82.8732 122.927L83.1094 123.163V126.552C83.1094 126.71 83.0394 126.868 82.9694 127.025C82.9344 127.104 82.8994 127.183 82.8732 127.262C82.8732 127.419 82.7156 127.577 82.6369 127.656C82.5581 127.708 82.4881 127.77 82.4181 127.831C82.2781 127.953 82.1381 128.076 81.9281 128.129C80.4034 128.858 79.2135 129.309 78.2645 129.668C78.2503 129.674 78.2362 129.679 78.2222 129.684C81.5556 132.165 85.1447 134.321 88.9427 136.106Z" fill="#CCCCCC"/>
<path d="M88.9427 136.106C92.4778 135.65 95.6678 134.109 98.1522 131.754C98.1881 131.727 98.223 131.701 98.257 131.676C98.5211 131.48 98.7304 131.324 98.9398 131.045C98.546 130.73 97.8372 130.414 96.6558 129.941C95.9962 129.706 95.2239 129.385 94.2883 128.997C93.6599 128.737 92.9577 128.445 92.1666 128.129C91.9303 128.129 91.7728 127.971 91.5365 127.735C90.5127 129.074 88.9375 129.941 87.1261 129.941C85.2359 129.941 83.6607 129.074 82.6369 127.656C82.5581 127.708 82.4881 127.77 82.4181 127.831C82.2781 127.953 82.1381 128.076 81.9281 128.129C80.4034 128.858 79.2135 129.309 78.2645 129.668C78.2503 129.674 78.2362 129.679 78.2222 129.684C81.5556 132.165 85.1447 134.321 88.9427 136.106Z" fill="#777777"/>
<path d="M92.7963 117.804C92.8751 117.41 92.7176 116.779 92.4813 116.464C92.4813 116.385 92.4025 116.385 92.4025 116.228C91.6937 114.809 90.1973 114.336 88.7797 114.257C85.078 114.021 84.763 114.73 83.6604 113.784C84.0542 114.257 84.0542 115.203 83.4241 116.149C83.0303 116.858 82.3215 117.252 81.6127 117.489C79.88 113.706 80.8251 111.262 82.4003 110.474C81.7702 109.292 81.7702 108.898 81.7702 108.898C81.7702 108.898 85.2355 109.528 86.4957 109.292C87.9921 108.977 90.3548 109.371 91.2999 111.42C92.7963 112.05 93.2689 112.917 93.5051 113.942C93.8989 115.361 93.0326 117.095 92.7963 117.804Z" fill="#3A3A3A"/>
</g>
<path d="M137 78.4201C137 84.7342 134.288 90.2491 130.059 94.2453C126.23 97.842 121.045 100 115.46 100C110.993 100 106.764 98.5613 103.254 96.1636C97.59 92.3271 94 85.8532 94 78.5C94 66.671 103.653 57 115.46 57C127.267 57 137 66.5911 137 78.4201Z" fill="#5C5C5C"/>
<path d="M130.419 93.3714C130.183 93.7655 129.789 94.0019 129.395 94.2384C125.615 97.785 120.496 99.913 114.983 99.913C110.572 99.913 106.398 98.4944 102.933 96.1299C101.909 95.4994 101.043 94.6324 100.176 93.8443C100.649 93.2138 101.436 92.8197 103.09 92.1892L103.72 91.9527C104.981 91.4799 106.792 90.8493 109.076 89.8247C109.47 89.6671 109.706 89.4307 109.942 89.1942C110.1 89.0366 110.179 88.9578 110.179 88.7213C110.336 88.4849 110.415 88.0908 110.415 87.8544V83.5196C110.257 83.3619 110.257 83.3619 110.179 83.2831C109.785 82.8102 109.548 82.1797 109.548 81.3916L109.312 81.234C108.21 81.4704 108.288 80.367 108.052 78.0814C107.895 77.2144 108.052 76.978 108.525 76.8203L108.918 76.3474C108.131 74.5347 107.816 72.9584 107.816 71.6186C107.816 69.4906 108.682 68.0719 109.942 67.4414C109.155 65.9439 109.155 65.3922 109.155 65.3922C109.155 65.3922 113.565 66.1804 115.14 65.8651C117.03 65.471 120.102 66.0227 121.205 68.5448C123.095 69.3329 123.725 70.4363 123.961 71.6974C124.197 73.7466 123.095 75.8746 122.859 76.7415V76.8991C123.095 77.0568 123.252 77.2932 123.095 78.1602C122.859 80.2882 122.859 81.5492 121.835 81.3128L120.811 83.1255C120.811 83.3619 120.811 83.3619 120.653 83.5196C120.653 83.9136 120.653 84.5442 120.653 87.9332C120.653 88.3273 120.811 88.8002 121.047 89.0366C121.205 89.1942 121.205 89.273 121.283 89.273C121.52 89.5095 121.756 89.7459 122.071 89.7459C124.591 90.7705 126.403 91.5587 127.742 92.0316C129.08 92.5833 129.947 92.9773 130.419 93.3714Z" fill="#CCCCCC"/>
<path d="M130.654 93.3714C130.416 93.7655 130.019 94.0019 129.623 94.2384C125.813 97.785 120.654 99.913 115.098 99.913C110.653 99.913 106.446 98.4943 102.954 96.1299C101.922 95.4994 101.049 94.6324 100.176 93.8443C100.652 93.2138 101.446 92.8197 103.113 92.1892L103.748 91.9527C105.018 91.4798 106.843 90.8493 109.145 89.8247C109.542 89.6671 109.78 89.4307 110.018 89.1942C111.288 91.007 113.352 92.1104 115.733 92.1104C118.035 92.1104 120.098 91.007 121.368 89.3518C121.606 89.5883 121.844 89.8247 122.162 89.8247C124.702 90.8493 126.527 91.6375 127.876 92.1104C129.305 92.5832 130.178 92.9773 130.654 93.3714Z" fill="#777777"/>
<path d="M123.34 76.5839C123.504 76.111 123.176 75.3229 122.93 74.9288C122.93 74.7712 122.766 74.7712 122.766 74.6924C121.863 72.8796 119.893 72.2491 118.006 72.1703C113.082 71.9338 112.754 72.8008 111.277 71.5398C111.769 72.1703 111.769 73.3525 111.031 74.6135C110.538 75.4805 109.554 76.0322 108.651 76.2686C106.435 71.461 107.584 68.3872 109.718 67.3626C108.897 65.8651 108.897 65.3134 108.897 65.3134C108.897 65.3134 113.493 66.1016 115.134 65.7863C117.103 65.3922 120.304 65.9439 121.453 68.466C123.422 69.2541 124.079 70.3576 124.325 71.6186C124.817 73.589 123.586 75.7169 123.34 76.5839Z" fill="#3A3A3A"/>
<path d="M110.572 87.7756V83.4408C110.415 83.2832 110.415 83.2832 110.336 83.2043V82.9679C110.572 83.362 110.808 83.756 111.202 83.9925L114.589 86.4357C115.376 87.0663 116.479 87.0663 117.267 86.4357L120.417 83.6772C120.574 83.5196 120.653 83.5196 120.811 83.4408C120.811 83.8349 120.811 84.4654 120.811 87.8544C120.811 88.0909 120.811 88.2485 120.968 88.4849H110.572C110.415 88.1697 110.572 88.012 110.572 87.7756Z" fill="url(#paint0_linear_3306_34101)"/>
<g filter="url(#filter0_d_3306_34101)">
<path d="M166.987 122.341L151.392 106.583C149.793 104.967 147.494 104.361 145.395 104.765L141.596 100.927C152.392 87.3913 151.492 67.4923 139.097 54.9671C128.7 44.462 113.206 42.1388 100.61 48.0984C97.1113 49.7146 93.8125 52.0378 90.8135 54.9671C87.1148 58.6035 84.5157 62.9469 82.9162 67.5933C82.1165 69.8156 81.5167 72.0378 81.2168 74.361C79.7173 84.7651 82.9162 95.7752 90.8135 103.755C91.0134 103.957 91.1134 104.058 91.3133 104.26C97.911 110.725 106.408 113.856 115.005 113.856C122.602 113.856 130.2 111.331 136.398 106.28L140.196 110.119C139.796 112.24 140.396 114.563 141.996 116.179L157.49 131.937C160.089 134.563 164.288 134.563 166.887 131.937C169.586 129.311 169.586 124.967 166.987 122.341ZM134.198 98.8055C132.999 100.018 131.699 101.028 130.4 102.038C129.1 102.947 127.801 103.654 126.501 104.26C119.304 107.694 110.807 107.694 103.609 104.26C100.81 102.947 98.2109 101.129 95.9117 98.8055C89.314 92.1388 86.8149 82.9469 88.4143 74.361C88.8142 72.0378 89.5139 69.7146 90.6136 67.5933C91.9131 64.8661 93.7125 62.2398 95.9117 60.0176C97.4112 58.5024 99.0107 57.1893 100.71 56.1792C105.109 53.3509 110.107 52.0378 115.105 52.0378C122.103 52.0378 129 54.6641 134.298 60.0176C144.795 70.7247 144.795 88.0984 134.198 98.8055Z" fill="#DEDEDE"/>
</g>
<defs>
<filter id="filter0_d_3306_34101" x="64.8579" y="36.8777" width="120.066" height="121.029" filterUnits="userSpaceOnUse" color-interpolation-filters="sRGB">
<feFlood flood-opacity="0" result="BackgroundImageFix"/>
<feColorMatrix in="SourceAlpha" type="matrix" values="0 0 0 0 0 0 0 0 0 0 0 0 0 0 0 0 0 0 127 0" result="hardAlpha"/>
<feOffset dy="8"/>
<feGaussianBlur stdDeviation="8"/>
<feColorMatrix type="matrix" values="0 0 0 0 0 0 0 0 0 0 0 0 0 0 0 0 0 0 0.27 0"/>
<feBlend mode="normal" in2="BackgroundImageFix" result="effect1_dropShadow_3306_34101"/>
<feBlend mode="normal" in="SourceGraphic" in2="effect1_dropShadow_3306_34101" result="shape"/>
</filter>
<linearGradient id="paint0_linear_3306_34101" x1="115.632" y1="88.3131" x2="115.632" y2="85.4233" gradientUnits="userSpaceOnUse">
<stop stop-color="#CCCCCC"/>
<stop offset="0.9913" stop-color="#AAAAAA"/>
</linearGradient>
</defs>
</svg>
