<svg width="160" height="160" viewBox="0 0 160 160" fill="none" xmlns="http://www.w3.org/2000/svg">
<g opacity="0.6">
<path d="M80.4551 142C114.948 142 142.91 114.018 142.91 79.5C142.91 44.9822 114.948 17 80.4551 17C45.9621 17 18 44.9822 18 79.5C18 114.018 45.9621 142 80.4551 142Z" fill="#F0F0F0"/>
<path d="M23.3381 54.1789C24.5534 56.5611 26.3355 58.6008 28.4981 60.1116C28.8021 60.355 29.0591 60.5044 29.3417 60.6687C29.4252 60.7172 29.5109 60.767 29.6007 60.821C31.9634 62.2396 34.7987 63.0278 37.7915 63.0278C40.7843 63.0278 43.6196 62.2396 45.9824 60.821C47.085 60.1904 48.0301 59.4811 48.8964 58.693C52.1255 55.698 54.0944 51.5208 54.0944 46.792C54.0944 38.9686 48.601 32.4001 41.2016 30.8846C33.5452 37.0832 27.3825 45.0563 23.3381 54.1789Z" fill="#ECE1D4"/>
<path d="M34.5627 50.4174C34.799 50.6538 34.9565 50.8903 35.2716 51.1267C35.5078 51.3632 35.6654 51.442 35.9016 51.5996C35.9804 51.6784 36.2167 51.8361 36.2954 51.9149C36.2954 51.9149 36.3742 51.9149 36.3742 51.9937L36.4529 52.0725V53.4912C36.4529 53.4912 36.4529 53.4912 36.3742 53.4124C36.2954 53.3335 36.0591 53.1759 35.9804 53.0971C35.7441 53.0183 35.5866 52.7818 35.3503 52.703C35.2716 52.703 35.2716 52.6242 35.114 52.6242C34.4052 52.2301 33.8539 51.8361 33.8539 51.2844C33.9327 51.1267 34.1689 50.8115 34.5627 50.4174ZM48.4241 58.1412C47.7941 56.8014 47.0065 55.6192 45.5889 54.9098C44.88 54.5946 44.0925 54.2793 43.3049 54.2793C43.0686 54.2793 42.8323 54.2793 42.5961 54.2793C42.5173 54.2793 42.3598 54.2793 42.281 54.2793C41.1784 54.2005 41.0997 53.9641 41.0997 53.9641V51.6784C41.8085 51.0479 42.5173 50.3386 43.0686 49.7081C43.5411 48.9987 43.9349 48.2106 44.1712 47.186C45.0375 46.9496 45.6676 46.1614 45.5889 45.2156C45.5889 44.8216 45.2738 44.4275 45.2738 44.0334C45.2738 43.797 45.2738 43.6393 45.2738 43.4029C45.2738 43.3241 45.2738 43.0876 45.2738 43.0088C45.2738 42.93 45.2738 42.6936 45.2738 42.6148C45.1951 41.9054 44.9588 41.1961 44.565 40.4079C43.3836 38.2011 41.1784 36.7825 38.5794 36.7825C38.1068 36.7825 37.5555 36.8613 37.083 37.0189C36.2167 37.2554 35.2716 37.6494 34.5627 38.2011C34.484 38.2799 34.2477 38.4376 34.1689 38.5952L34.0902 38.674C33.3026 39.4622 32.5938 40.4079 32.2788 41.5113C31.885 42.6148 31.885 43.7182 31.9637 44.8216C31.9637 44.8216 31.9637 44.8216 31.9637 44.9004V44.9792C31.9637 45.2156 32.0425 45.2156 31.9637 45.2945C31.9637 45.3733 31.885 45.3733 31.885 45.5309C31.6487 45.8462 31.5699 46.2402 31.8062 46.8707C32.2 47.8953 32.8301 47.7377 33.5389 48.2894C33.5389 48.2894 33.4601 48.2894 33.4601 48.3682L32.7513 48.5258C29.5222 49.5504 28.4196 52.2301 29.8373 53.9641C30.3098 54.5946 31.0974 55.0675 32.3575 55.3827C32.0425 55.3827 31.7275 55.6192 31.5699 55.7768C30.1523 56.8802 29.286 58.6141 29.0497 60.1904C29.0497 60.2692 29.0497 60.4269 29.0497 60.5057C29.4435 60.7421 29.7585 60.9786 30.1523 61.215L45.8251 60.8209C46.849 60.1904 47.2428 59.7175 48.1879 58.9294C48.0303 58.3777 48.5817 58.2201 48.4241 58.1412Z" fill="white"/>
<path d="M48.8964 58.6929C48.0301 59.4811 47.085 60.1904 45.9823 60.8209C43.6196 62.2396 40.7843 63.0277 37.7915 63.0277C34.7987 63.0277 31.9634 62.2396 29.6007 60.8209C29.2069 60.5845 28.8919 60.4268 28.4981 60.1116C28.4981 60.0328 28.4981 59.8751 28.4981 59.7963C28.7344 58.22 29.6007 56.4861 31.0183 55.3827C31.2546 55.1463 31.4909 55.0675 31.8059 54.9886C30.6245 54.7522 29.837 54.2793 29.2857 53.57H33.066C34.1687 55.0675 35.9013 55.9344 37.8703 55.9344C39.603 55.9344 41.0994 55.2251 42.202 54.1217C42.2807 54.1217 42.4382 54.1217 42.517 54.1217C42.7533 54.1217 42.9108 54.1217 43.2258 54.1217C44.0134 54.1217 44.801 54.3581 45.5098 54.7522C46.9274 55.4615 47.8725 56.6437 48.5814 58.0624C48.8176 58.2989 48.8176 58.5353 48.8964 58.6929Z" fill="#B7B4AF"/>
<path d="M45.3528 43.0088C44.1715 43.4028 42.7538 43.6393 41.4937 43.4816C39.3672 43.2452 37.3983 42.4571 35.8231 41.1172C35.3506 42.6147 34.0117 43.7181 32.5153 44.4274C32.279 44.5062 32.1215 44.6639 31.8852 44.6639C31.8852 44.6639 31.8852 44.6639 31.8852 44.5851C31.8065 43.4816 31.8065 42.3782 32.2003 41.2748C32.5153 40.1714 33.2241 39.3045 34.0117 38.4375L34.0904 38.3587C34.1692 38.2799 34.4055 38.1223 34.4842 37.9646C35.1931 37.3341 36.0594 36.94 37.0045 36.7824C37.477 36.7036 38.0283 36.546 38.5009 36.546C41.0999 36.546 43.3839 37.9646 44.4865 40.1714C44.8803 40.9596 45.1166 41.7477 45.1953 42.3782C45.3528 42.6935 45.3528 42.8511 45.3528 43.0088Z" fill="#676767"/>
<path d="M37.3191 57.826C36.6891 58.5353 35.744 58.5353 34.7989 58.5353C35.6652 57.6684 35.1927 54.7522 31.9636 55.0675C27.5532 54.2793 27.947 49.6293 32.3574 48.2894L33.0662 48.053L33.145 48.1318C33.46 48.9988 33.9326 49.8657 34.4051 50.4174C32.5937 51.9149 35.1139 52.309 36.2953 53.4912C37.3979 54.1217 38.343 56.565 37.3191 57.826Z" fill="#676767"/>
<path d="M121.32 32.2348C120.685 32.1671 120.039 32.1324 119.385 32.1324C109.54 32.1324 101.507 40.2503 101.507 50.1021C101.507 55.1463 103.555 59.6387 106.862 62.8701C107.014 63.0071 107.164 63.144 107.312 63.2799C107.93 63.8475 108.526 64.3953 109.225 64.8405C112.06 66.8896 115.605 68.0719 119.385 68.0719C124.11 68.0719 128.363 66.2591 131.592 63.2642C131.907 63.0277 132.222 62.7913 132.459 62.476C134.787 59.9617 136.496 56.7793 137.14 53.2259C133.393 45.1442 127.971 37.9984 121.32 32.2348Z" fill="#EDE5DA"/>
<path d="M132.459 62.476C132.222 62.7913 131.907 63.0277 131.592 63.2642C128.363 66.2591 124.11 68.0718 119.385 68.0718C115.605 68.0718 112.06 66.8896 109.225 64.8404C108.359 64.2887 107.65 63.5794 106.862 62.8701C107.256 62.3184 107.965 62.0031 109.304 61.4514L109.855 61.215C110.958 60.8209 112.454 60.2692 114.344 59.4022C114.659 59.3234 114.896 59.087 115.132 58.8505C115.211 58.7717 115.368 58.6141 115.368 58.4565C115.447 58.22 115.605 57.9048 115.605 57.6683V54.0428C115.526 53.964 115.526 53.964 115.368 53.8064C115.053 53.4123 114.817 52.8606 114.817 52.2301L114.581 52.1513C113.636 52.3877 113.714 51.3631 113.478 49.4716C113.399 48.6834 113.478 48.5258 113.872 48.3682L114.187 47.9741C113.557 46.4766 113.242 45.058 113.242 44.0334C113.242 42.2206 114.029 41.0384 115.053 40.4867C114.423 39.2257 114.423 38.7528 114.423 38.7528C114.423 38.7528 118.204 39.3833 119.464 39.1469C121.039 38.8316 123.638 39.2257 124.583 41.4325C126.158 42.063 126.709 43.0088 126.946 44.1122C127.182 45.8461 126.158 47.6589 126.001 48.3682V48.5258C126.237 48.6046 126.316 48.8411 126.237 49.6292C126.001 51.442 126.001 52.5454 125.134 52.3089L124.268 53.8064C124.268 54.0428 124.268 54.0428 124.189 54.1217C124.189 54.4369 124.189 54.9886 124.189 57.9048C124.189 58.22 124.268 58.6929 124.504 58.8505C124.583 58.9293 124.583 59.087 124.74 59.087C124.977 59.3234 125.134 59.4811 125.371 59.4811C127.497 60.348 128.993 60.9785 130.175 61.4514C131.277 61.8455 132.065 62.1608 132.459 62.476Z" fill="white"/>
<path d="M132.459 62.476C132.222 62.7913 131.907 63.0277 131.592 63.2641C128.363 66.2591 124.11 68.0718 119.385 68.0718C115.605 68.0718 112.06 66.8896 109.225 64.8404C108.359 64.2887 107.65 63.5794 106.862 62.8701C107.256 62.3184 107.965 62.0031 109.304 61.4514L109.855 61.215C110.958 60.8209 112.454 60.2692 114.344 59.4022C114.659 59.3234 114.896 59.087 115.132 58.8505C116.235 60.348 117.888 61.2938 119.936 61.2938C121.905 61.2938 123.559 60.348 124.662 58.9293C124.898 59.1658 125.055 59.3234 125.292 59.3234C127.418 60.1904 128.915 60.8209 130.096 61.2938C131.277 61.8455 132.065 62.1607 132.459 62.476Z" fill="#B7B4AF"/>
<path d="M125.922 48.2894C126.001 47.8953 125.843 47.186 125.607 46.8707C125.607 46.7919 125.528 46.7919 125.528 46.6343C124.741 45.1368 123.166 44.5851 121.669 44.5063C117.731 44.2698 117.416 45.058 116.235 43.9546C116.629 44.5063 116.629 45.4521 115.999 46.5555C115.605 47.3436 114.817 47.7377 114.03 47.9741C112.218 43.8758 113.163 41.3537 114.896 40.4867C114.266 39.2257 114.266 38.7528 114.266 38.7528C114.266 38.7528 118.046 39.3833 119.306 39.1469C120.882 38.8316 123.481 39.2257 124.426 41.4325C126.001 42.063 126.552 43.0088 126.788 44.1122C127.104 45.6885 126.158 47.5012 125.922 48.2894Z" fill="#676767"/>
<path d="M35.3272 122.707C40.6229 128.244 46.9264 132.809 53.9428 136.106C57.4779 135.65 60.6678 134.109 63.1522 131.754C63.1881 131.727 63.223 131.701 63.257 131.676C63.5211 131.48 63.7305 131.324 63.9398 131.045C66.6963 128.05 68.5078 124.03 68.5078 119.538C68.5078 110.317 61.0258 102.75 51.7323 102.829C42.5176 102.829 35.0356 110.317 35.0356 119.538C35.0356 120.626 35.1357 121.685 35.3272 122.707Z" fill="#ECE1D4"/>
<path d="M53.9428 136.106C57.4779 135.65 60.6678 134.109 63.1522 131.754C63.1881 131.727 63.223 131.701 63.257 131.676C63.5211 131.48 63.7305 131.324 63.9398 131.045C63.565 130.745 62.9046 130.445 62.0947 130.076C62.0538 130.058 62.0125 130.039 61.9709 130.02C61.3113 129.784 60.5389 129.464 59.6032 129.076C58.9748 128.815 58.2727 128.524 57.4817 128.207C57.2454 128.207 57.0879 128.05 56.8516 127.813C56.7466 127.813 56.7116 127.743 56.6766 127.673C56.6591 127.638 56.6416 127.603 56.6153 127.577C56.3791 127.419 56.3003 127.025 56.3003 126.71V123.242C56.3791 123.163 56.3791 123.163 56.3791 122.927L57.1666 121.508C57.8529 121.646 57.9412 120.945 58.1088 119.616C58.1336 119.419 58.1601 119.209 58.1905 118.986C58.2692 118.277 58.1905 118.04 57.9542 117.962V117.883C57.996 117.695 58.0931 117.435 58.2089 117.125C58.5298 116.265 58.9942 115.022 58.8206 113.863C58.5843 112.839 58.1117 111.972 56.6153 111.341C55.6702 109.292 53.3075 108.898 51.8111 109.213C50.551 109.45 47.0856 108.819 47.0856 108.819C47.0856 108.819 47.0856 109.213 47.7157 110.395C46.6918 110.868 45.983 111.972 45.983 113.706C45.983 114.73 46.2193 115.991 46.8493 117.41L46.5343 117.804C46.1405 117.962 46.0618 118.119 46.1405 118.829C46.1807 119.136 46.2117 119.419 46.2398 119.676C46.3773 120.928 46.4452 121.547 47.1644 121.351L47.4006 121.429C47.4006 122.06 47.5582 122.533 47.8732 122.927L48.1095 123.163V126.552C48.1095 126.71 48.0395 126.868 47.9695 127.025C47.9345 127.104 47.8995 127.183 47.8732 127.262C47.8732 127.419 47.7157 127.577 47.6369 127.656C47.5582 127.708 47.4882 127.77 47.4182 127.831C47.2781 127.953 47.1381 128.076 46.9281 128.129C45.4035 128.858 44.2136 129.309 43.2645 129.668C43.2504 129.674 43.2363 129.679 43.2222 129.684C46.5557 132.165 50.1448 134.321 53.9428 136.106Z" fill="white"/>
<path d="M53.9428 136.106C57.4779 135.65 60.6678 134.109 63.1522 131.754C63.1881 131.727 63.223 131.701 63.257 131.676C63.5211 131.48 63.7305 131.324 63.9398 131.045C63.546 130.73 62.8372 130.414 61.6558 129.941C60.9963 129.706 60.2239 129.385 59.2883 128.997C58.6599 128.737 57.9578 128.445 57.1666 128.129C56.9304 128.129 56.7729 127.971 56.5366 127.735C55.5127 129.074 53.9376 129.941 52.1261 129.941C50.2359 129.941 48.6608 129.074 47.6369 127.656C47.5582 127.708 47.4882 127.77 47.4182 127.831C47.2781 127.953 47.1381 128.076 46.9281 128.129C45.4035 128.858 44.2136 129.309 43.2645 129.668C43.2504 129.674 43.2363 129.679 43.2222 129.684C46.5556 132.165 50.1447 134.321 53.9428 136.106Z" fill="#D4D2CF"/>
<path d="M57.7965 117.804C57.8753 117.41 57.7178 116.779 57.4815 116.464C57.4815 116.385 57.4027 116.385 57.4027 116.228C56.6939 114.809 55.1975 114.336 53.7799 114.257C50.0783 114.021 49.7632 114.73 48.6606 113.784C49.0544 114.257 49.0544 115.203 48.4243 116.149C48.0306 116.858 47.3217 117.252 46.6129 117.489C44.8802 113.706 45.8253 111.262 47.4005 110.474C46.7704 109.292 46.7704 108.898 46.7704 108.898C46.7704 108.898 50.2358 109.528 51.4959 109.292C52.9923 108.977 55.355 109.371 56.3001 111.42C57.7965 112.05 58.2691 112.917 58.5054 113.942C58.8992 115.361 58.0328 117.095 57.7965 117.804Z" fill="#676767"/>
</g>
<path d="M100.247 78.7907C100.247 84.4653 97.9627 89.5883 94.4186 93.3714C94.1823 93.7655 93.7886 94.0019 93.3948 94.2384C89.6144 97.785 84.4951 99.913 78.9821 99.913C74.5716 99.913 70.3974 98.4943 66.9321 96.1299C65.9082 95.4994 65.0419 94.6324 64.1756 93.8443C60.2377 90.0612 57.8749 84.7018 57.8749 78.7119C57.8749 67.0473 67.4046 57.5107 79.0608 57.5107C90.7958 57.5896 100.247 67.1261 100.247 78.7907Z" fill="white"/>
<path d="M100.247 78.7907C100.247 85.017 97.5692 90.4552 93.395 94.396C89.6146 97.9426 84.4953 100.071 78.9823 100.071C74.5718 100.071 70.3977 98.6519 66.9323 96.2875C61.3405 92.5044 57.7964 86.1204 57.7964 78.8695C57.7964 67.2049 67.3261 57.6683 78.9823 57.6683C90.6385 57.6683 100.247 67.1261 100.247 78.7907Z" fill="#F3EDE7"/>
<path d="M94.4193 93.3714C94.183 93.7655 93.7892 94.0019 93.3955 94.2384C89.6151 97.785 84.4958 99.913 78.9827 99.913C74.5723 99.913 70.3981 98.4944 66.9328 96.1299C65.9089 95.4994 65.0426 94.6324 64.1763 93.8443C64.6488 93.2138 65.4364 92.8197 67.0903 92.1892L67.7204 91.9527C68.9805 91.4799 70.7919 90.8493 73.0759 89.8247C73.4697 89.6671 73.706 89.4307 73.9422 89.1942C74.0998 89.0366 74.1785 88.9578 74.1785 88.7213C74.336 88.4849 74.4148 88.0908 74.4148 87.8544V83.5196C74.2573 83.3619 74.2573 83.3619 74.1785 83.2831C73.7847 82.8102 73.5485 82.1797 73.5485 81.3916L73.3122 81.234C72.2096 81.4704 72.2883 80.367 72.0521 78.0814C71.8945 77.2144 72.052 76.978 72.5246 76.8203L72.9184 76.3474C72.1308 74.5347 71.8158 72.9584 71.8158 71.6186C71.8158 69.4906 72.6821 68.0719 73.9422 67.4414C73.1547 65.9439 73.1547 65.3922 73.1547 65.3922C73.1547 65.3922 77.5651 66.1804 79.1403 65.8651C81.0305 65.471 84.102 66.0227 85.2046 68.5448C87.0948 69.3329 87.7249 70.4363 87.9612 71.6974C88.1974 73.7466 87.0948 75.8746 86.8585 76.7415V76.8991C87.0948 77.0568 87.2523 77.2932 87.0948 78.1602C86.8585 80.2882 86.8585 81.5492 85.8347 81.3128L84.8108 83.1255C84.8108 83.3619 84.8108 83.3619 84.6533 83.5196C84.6533 83.9136 84.6533 84.5442 84.6533 87.9332C84.6533 88.3273 84.8108 88.8002 85.0471 89.0366C85.2046 89.1942 85.2046 89.273 85.2834 89.273C85.5197 89.5095 85.7559 89.7459 86.071 89.7459C88.5912 90.7705 90.4027 91.5587 91.7415 92.0316C93.0804 92.5833 93.9468 92.9773 94.4193 93.3714Z" fill="white"/>
<path d="M94.4193 93.3714C94.183 93.7655 93.7892 94.0019 93.3955 94.2384C89.6151 97.785 84.4958 99.913 78.9827 99.913C74.5723 99.913 70.3981 98.4943 66.9328 96.1299C65.9089 95.4994 65.0426 94.6324 64.1763 93.8443C64.6488 93.2138 65.4364 92.8197 67.0903 92.1892L67.7204 91.9527C68.9805 91.4798 70.7919 90.8493 73.0759 89.8247C73.4697 89.6671 73.706 89.4307 73.9422 89.1942C75.2024 91.007 77.2501 92.1104 79.6128 92.1104C81.8968 92.1104 83.9445 91.007 85.2046 89.3518C85.4409 89.5883 85.6772 89.8247 85.9922 89.8247C88.5125 90.8493 90.3239 91.6375 91.6628 92.1104C93.0804 92.5832 93.9468 92.9773 94.4193 93.3714Z" fill="#B7B4AF"/>
<path d="M86.7005 76.5839C86.858 76.111 86.543 75.3229 86.3067 74.9288C86.3067 74.7712 86.1492 74.7712 86.1492 74.6924C85.2828 72.8796 83.3927 72.2491 81.5812 72.1703C76.8557 71.9338 76.5407 72.8008 75.1231 71.5398C75.5956 72.1703 75.5956 73.3525 74.8868 74.6135C74.4142 75.4805 73.4691 76.0322 72.6028 76.2686C70.4763 71.461 71.579 68.3872 73.6267 67.3626C72.8391 65.8651 72.8391 65.3134 72.8391 65.3134C72.8391 65.3134 77.2495 66.1016 78.8247 65.7863C80.7149 65.3922 83.7864 65.9439 84.889 68.466C86.7792 69.2541 87.4093 70.3576 87.6456 71.6186C88.1181 73.589 86.9368 75.7169 86.7005 76.5839Z" fill="#676767"/>
<path d="M74.5721 87.7756V83.4408C74.4145 83.2831 74.4145 83.2831 74.3358 83.2043V82.9679C74.5721 83.3619 74.8083 83.756 75.2021 83.9925L78.5887 86.4357C79.3763 87.0662 80.4789 87.0662 81.2665 86.4357L84.4168 83.6772C84.5743 83.5196 84.6531 83.5196 84.8106 83.4408C84.8106 83.8348 84.8106 84.4653 84.8106 87.8544C84.8106 88.0908 84.8106 88.2484 84.9681 88.4849H74.5721C74.4145 88.1696 74.5721 88.012 74.5721 87.7756Z" fill="url(#paint0_linear_3306_34099)"/>
<g filter="url(#filter0_dd_3306_34099)">
<path d="M130.987 122.341L115.392 106.583C113.793 104.967 111.494 104.361 109.395 104.765L105.596 100.927C116.392 87.3913 115.492 67.4923 103.097 54.9671C92.7004 44.462 77.2057 42.1388 64.6101 48.0984C61.1113 49.7146 57.8125 52.0378 54.8135 54.9671C51.1148 58.6035 48.5157 62.9469 46.9162 67.5933C46.1165 69.8156 45.5167 72.0378 45.2168 74.361C43.7173 84.7651 46.9162 95.7752 54.8135 103.755C55.0134 103.957 55.1134 104.058 55.3133 104.26C61.911 110.725 70.4081 113.856 79.0051 113.856C86.6025 113.856 94.1998 111.331 100.398 106.28L104.196 110.119C103.796 112.24 104.396 114.563 105.996 116.179L121.49 131.937C124.089 134.563 128.288 134.563 130.887 131.937C133.586 129.311 133.586 124.967 130.987 122.341ZM98.1984 98.8055C96.9989 100.018 95.6993 101.028 94.3998 102.038C93.1002 102.947 91.8007 103.654 90.5011 104.26C83.3036 107.694 74.8066 107.694 67.6091 104.26C64.81 102.947 62.2109 101.129 59.9117 98.8055C53.314 92.1388 50.8149 82.9469 52.4143 74.361C52.8142 72.0378 53.5139 69.7146 54.6136 67.5933C55.9131 64.8661 57.7125 62.2398 59.9117 60.0176C61.4112 58.5024 63.0107 57.1893 64.7101 56.1792C69.1085 53.3509 74.1068 52.0378 79.1051 52.0378C86.1026 52.0378 93.0002 54.6641 98.2984 60.0176C108.795 70.7247 108.795 88.0984 98.1984 98.8055Z" fill="white"/>
</g>
<defs>
<filter id="filter0_dd_3306_34099" x="28.8579" y="36.8777" width="120.066" height="121.029" filterUnits="userSpaceOnUse" color-interpolation-filters="sRGB">
<feFlood flood-opacity="0" result="BackgroundImageFix"/>
<feColorMatrix in="SourceAlpha" type="matrix" values="0 0 0 0 0 0 0 0 0 0 0 0 0 0 0 0 0 0 127 0" result="hardAlpha"/>
<feOffset dy="8"/>
<feGaussianBlur stdDeviation="8"/>
<feColorMatrix type="matrix" values="0 0 0 0 0.482733 0 0 0 0 0.482733 0 0 0 0 0.482733 0 0 0 0.24 0"/>
<feBlend mode="normal" in2="BackgroundImageFix" result="effect1_dropShadow_3306_34099"/>
<feColorMatrix in="SourceAlpha" type="matrix" values="0 0 0 0 0 0 0 0 0 0 0 0 0 0 0 0 0 0 127 0" result="hardAlpha"/>
<feOffset dy="2"/>
<feGaussianBlur stdDeviation="2"/>
<feComposite in2="hardAlpha" operator="out"/>
<feColorMatrix type="matrix" values="0 0 0 0 0 0 0 0 0 0 0 0 0 0 0 0 0 0 0.12 0"/>
<feBlend mode="normal" in2="effect1_dropShadow_3306_34099" result="effect2_dropShadow_3306_34099"/>
<feBlend mode="normal" in="SourceGraphic" in2="effect2_dropShadow_3306_34099" result="shape"/>
</filter>
<linearGradient id="paint0_linear_3306_34099" x1="79.6314" y1="88.3131" x2="79.6314" y2="85.4233" gradientUnits="userSpaceOnUse">
<stop stop-color="white" stop-opacity="0"/>
<stop offset="0.9913" stop-color="#DAD6CF"/>
</linearGradient>
</defs>
</svg>
