<svg xmlns="http://www.w3.org/2000/svg" width="160" height="160" fill="none" viewBox="0 0 160 160">
  <mask id="a" width="125" height="125" x="18" y="17" maskUnits="userSpaceOnUse" style="mask-type:alpha">
    <path fill="#F0F0F0" d="M80.455 142c34.493 0 62.455-27.982 62.455-62.5S114.948 17 80.455 17C45.962 17 18 44.982 18 79.5S45.962 142 80.455 142Z"/>
  </mask>
  <g mask="url(#a)">
    <g opacity=".6">
      <path fill="#F0F0F0" d="M80.455 142c34.493 0 62.455-27.982 62.455-62.5S114.948 17 80.455 17C45.962 17 18 44.982 18 79.5S45.962 142 80.455 142Z"/>
      <path fill="#F0F0F0" fill-rule="evenodd" d="M80.455 18C46.515 18 19 45.534 19 79.5S46.515 141 80.455 141s61.455-27.534 61.455-61.5S114.395 18 80.455 18ZM17 79.5C17 44.43 45.41 16 80.455 16c35.046 0 63.455 28.43 63.455 63.5 0 35.069-28.409 63.5-63.455 63.5S17 114.569 17 79.5Z" clip-rule="evenodd"/>
      <path fill="#EDE5DA" d="M54.094 46.792c0 4.729-1.968 8.906-5.198 11.9a16.325 16.325 0 0 1-2.914 2.129c-2.362 1.419-5.198 2.207-8.19 2.207-2.993 0-5.829-.788-8.191-2.207-.394-.237-.71-.394-1.103-.71a16.24 16.24 0 0 1-6.93-13.32c0-8.984 7.324-16.235 16.223-16.235 9.058-.079 16.303 7.251 16.303 16.236Z"/>
      <path fill="#fff" d="M34.563 50.417c.236.237.394.473.709.71.236.236.394.315.63.473.078.078.315.236.393.315 0 0 .08 0 .08.079l.078.078v1.42l-.079-.08c-.079-.078-.315-.236-.394-.315-.236-.079-.393-.315-.63-.394-.078 0-.078-.079-.236-.079-.709-.394-1.26-.788-1.26-1.34.079-.157.315-.472.709-.867Zm13.861 7.724c-.63-1.34-1.417-2.522-2.835-3.231-.709-.315-1.496-.63-2.284-.63h-1.024c-1.102-.08-1.181-.316-1.181-.316v-2.286c.709-.63 1.417-1.34 1.969-1.97a7.41 7.41 0 0 0 1.102-2.522c.867-.236 1.497-1.025 1.418-1.97 0-.394-.315-.788-.315-1.183v-1.418c-.079-.71-.315-1.419-.709-2.207-1.181-2.207-3.386-3.626-5.985-3.626-.473 0-1.024.08-1.497.237-.866.236-1.811.63-2.52 1.182-.079.079-.315.237-.394.394l-.079.079c-.787.788-1.496 1.734-1.811 2.837-.394 1.104-.394 2.207-.315 3.31v.158c0 .237.079.237 0 .316 0 .078-.079.078-.079.236-.236.315-.315.71-.079 1.34.394 1.024 1.024.867 1.733 1.418 0 0-.079 0-.079.08l-.709.157c-3.229 1.024-4.331 3.704-2.914 5.438.473.63 1.26 1.104 2.52 1.419-.314 0-.63.236-.787.394-1.418 1.103-2.284 2.837-2.52 4.413v.316c.394.236.709.473 1.102.709l15.673-.394c1.024-.63 1.418-1.103 2.363-1.892-.157-.551.394-.709.236-.788Z"/>
      <path fill="#B7B4AF" d="M48.896 58.693a16.324 16.324 0 0 1-2.914 2.128c-2.362 1.418-5.198 2.207-8.19 2.207-2.993 0-5.829-.789-8.191-2.207-.394-.237-.71-.394-1.103-.71v-.315c.236-1.576 1.103-3.31 2.52-4.413.237-.237.473-.316.788-.395-1.181-.236-1.97-.709-2.52-1.418h3.78c1.103 1.497 2.835 2.364 4.804 2.364 1.733 0 3.23-.71 4.332-1.813h1.024c.787 0 1.575.237 2.284.631 1.417.71 2.363 1.892 3.071 3.31.237.237.237.473.315.63Z"/>
      <path fill="#676767" d="M45.353 43.009c-1.181.394-2.599.63-3.86.473-2.126-.237-4.095-1.025-5.67-2.365-.472 1.498-1.811 2.601-3.307 3.31-.237.08-.394.237-.63.237v-.079c-.08-1.103-.08-2.207.314-3.31.316-1.104 1.024-1.97 1.812-2.837l.079-.08c.078-.078.315-.236.393-.393a4.987 4.987 0 0 1 2.52-1.183c.473-.078 1.025-.236 1.497-.236 2.6 0 4.883 1.419 5.986 3.625.393.788.63 1.577.709 2.207.157.315.157.473.157.63ZM37.32 57.826c-.63.71-1.576.71-2.521.71.866-.868.394-3.784-2.835-3.469-4.41-.788-4.017-5.438.394-6.778l.708-.236.08.079c.314.867.787 1.733 1.26 2.285-1.812 1.498.708 1.892 1.89 3.074 1.102.63 2.047 3.074 1.023 4.335Z"/>
      <path fill="#D6DCE8" d="M137.42 50.102c0 4.808-1.968 9.143-4.961 12.374-.237.315-.552.552-.867.788-3.229 2.995-7.482 4.808-12.207 4.808-3.78 0-7.325-1.182-10.16-3.232-.866-.551-1.575-1.26-2.363-1.97-3.307-3.231-5.355-7.724-5.355-12.768 0-9.852 8.033-17.97 17.878-17.97 10.002 0 18.035 8.118 18.035 17.97Z"/>
      <path fill="#EDE5DA" d="M137.42 50.102c0 5.28-2.284 9.852-5.828 13.241-3.229 2.995-7.482 4.808-12.207 4.808-3.78 0-7.325-1.183-10.16-3.232-4.725-3.231-7.718-8.59-7.718-14.738 0-9.852 8.033-17.97 17.878-17.97 9.845.079 18.035 8.04 18.035 17.891Z"/>
      <path fill="#fff" d="M132.459 62.476c-.237.315-.552.552-.867.788-3.229 2.995-7.482 4.808-12.207 4.808-3.781 0-7.325-1.183-10.16-3.232-.866-.551-1.575-1.26-2.363-1.97.394-.552 1.103-.867 2.442-1.419l.551-.236a53.284 53.284 0 0 0 4.489-1.813c.315-.079.552-.315.788-.552.079-.078.236-.236.236-.394.079-.236.236-.551.236-.788v-3.625c-.078-.08-.078-.08-.236-.237a2.54 2.54 0 0 1-.551-1.576l-.236-.079c-.946.237-.867-.788-1.103-2.68-.079-.788 0-.945.394-1.103l.315-.394c-.63-1.497-.945-2.916-.945-3.94 0-1.813.787-2.996 1.811-3.547-.63-1.261-.63-1.734-.63-1.734s3.78.63 5.041.394c1.575-.316 4.174.079 5.119 2.285 1.575.63 2.126 1.577 2.363 2.68.236 1.734-.788 3.547-.946 4.256v.158c.237.078.316.315.237 1.103-.237 1.813-.237 2.916-1.103 2.68l-.866 1.497c0 .237 0 .237-.079.316v3.783c0 .315.079.788.315.945.079.08.079.237.236.237.237.236.394.394.63.394 2.127.867 3.623 1.497 4.805 1.97 1.102.394 1.89.71 2.284 1.025Z"/>
      <path fill="#B7B4AF" d="M132.459 62.476c-.237.315-.552.552-.867.788-3.229 2.995-7.482 4.808-12.207 4.808-3.781 0-7.325-1.182-10.16-3.231-.866-.552-1.575-1.261-2.363-1.97.394-.553 1.103-.868 2.442-1.42l.551-.236a53.277 53.277 0 0 0 4.489-1.813c.315-.078.552-.315.788-.551 1.103 1.497 2.756 2.443 4.804 2.443 1.969 0 3.623-.946 4.726-2.365.236.237.393.395.63.395 2.126.866 3.623 1.497 4.804 1.97 1.181.552 1.969.867 2.363 1.182Z"/>
      <path fill="#676767" d="M125.922 48.29c.079-.395-.079-1.104-.315-1.42 0-.078-.079-.078-.079-.236-.787-1.497-2.362-2.049-3.859-2.128-3.938-.236-4.253.552-5.434-.551.394.551.394 1.497-.236 2.6-.394.788-1.182 1.183-1.969 1.419-1.812-4.098-.867-6.62.866-7.487-.63-1.261-.63-1.734-.63-1.734s3.78.63 5.041.394c1.575-.316 4.174.079 5.119 2.285 1.575.63 2.126 1.577 2.363 2.68.315 1.576-.631 3.39-.867 4.177Z"/>
      <path fill="#EEE9E3" d="M68.508 119.538c0 4.492-1.812 8.512-4.568 11.507-.236.315-.473.473-.788.709-2.993 2.837-7.01 4.492-11.42 4.492-3.465 0-6.773-1.103-9.53-2.995-.787-.472-1.496-1.182-2.205-1.812-3.071-2.995-4.961-7.172-4.961-11.901 0-9.222 7.482-16.709 16.696-16.709 9.294-.079 16.776 7.487 16.776 16.709Z"/>
      <path fill="#fff" d="M63.94 131.045c-.236.315-.473.472-.788.709-2.992 2.837-7.01 4.492-11.42 4.492-3.465 0-6.773-1.103-9.53-2.995-.787-.473-1.496-1.182-2.204-1.812.393-.473 1.023-.789 2.284-1.34l.472-.237c1.024-.394 2.363-.867 4.174-1.734.315-.078.473-.315.71-.472.078-.079.235-.237.235-.395.08-.236.237-.472.237-.709v-3.389l-.237-.236c-.315-.394-.472-.867-.472-1.498l-.237-.079c-.866.237-.787-.709-1.023-2.522-.08-.709 0-.867.394-1.024l.315-.394c-.63-1.419-.867-2.68-.867-3.705 0-1.734.709-2.837 1.733-3.31-.63-1.182-.63-1.576-.63-1.576s3.465.63 4.725.394c1.497-.315 3.86.079 4.804 2.128 1.497.63 1.97 1.497 2.206 2.522.236 1.576-.71 3.31-.867 4.02v.078c.237.079.315.316.237 1.025-.237 1.734-.237 2.68-1.024 2.522l-.788 1.419c0 .236 0 .236-.078.315v3.468c0 .315.078.709.314.867.08.079.08.236.237.236.236.237.394.394.63.394 1.969.788 3.386 1.419 4.489 1.813.866.394 1.575.709 1.969 1.025Z"/>
      <path fill="#B7B4AF" d="M63.94 131.045c-.236.315-.473.472-.788.709-2.992 2.837-7.01 4.492-11.42 4.492-3.465 0-6.773-1.103-9.53-2.995-.787-.473-1.496-1.182-2.204-1.812.393-.473 1.023-.789 2.284-1.34l.472-.237c1.024-.394 2.363-.867 4.174-1.734.315-.078.473-.315.71-.472 1.023 1.418 2.598 2.285 4.488 2.285 1.812 0 3.387-.867 4.41-2.207.237.237.395.394.63.394 1.97.789 3.387 1.419 4.49 1.813 1.181.473 1.89.788 2.284 1.104Z"/>
      <path fill="#676767" d="M57.796 117.804c.08-.394-.078-1.025-.315-1.34 0-.079-.078-.079-.078-.237-.71-1.418-2.206-1.891-3.623-1.97-3.702-.236-4.017.473-5.12-.473.394.473.394 1.419-.236 2.365-.394.709-1.102 1.103-1.811 1.34-1.733-3.784-.788-6.227.787-7.015-.63-1.182-.63-1.576-.63-1.576s3.465.63 4.726.394c1.496-.315 3.859.079 4.804 2.128 1.496.63 1.969 1.497 2.205 2.522.394 1.419-.472 3.152-.709 3.862Z"/>
    </g>
    <path fill="#fff" d="M100.247 78.79c0 5.675-2.284 10.798-5.828 14.581-.237.395-.63.63-1.024.867a21.058 21.058 0 0 1-14.413 5.675c-4.41 0-8.585-1.419-12.05-3.783-1.024-.63-1.89-1.498-2.756-2.286-3.938-3.783-6.301-9.142-6.301-15.132 0-11.665 9.53-21.201 21.186-21.201 11.735.079 21.186 9.615 21.186 21.28Z"/>
    <path fill="#F3EDE7" d="M100.247 78.79c0 6.227-2.678 11.665-6.852 15.606a21.06 21.06 0 0 1-14.413 5.675c-4.41 0-8.584-1.419-12.05-3.783-5.592-3.784-9.136-10.167-9.136-17.418 0-11.665 9.53-21.202 21.186-21.202s21.265 9.458 21.265 21.123Z"/>
    <path fill="#fff" d="M94.42 93.371c-.237.394-.63.63-1.025.867a21.058 21.058 0 0 1-14.412 5.675c-4.41 0-8.585-1.419-12.05-3.783-1.024-.63-1.89-1.498-2.757-2.286.473-.63 1.26-1.024 2.914-1.655l.63-.236c1.26-.473 3.072-1.104 5.356-2.128.394-.158.63-.395.866-.63.158-.158.237-.237.237-.474.157-.236.236-.63.236-.867V83.52l-.237-.236c-.393-.473-.63-1.103-.63-1.892l-.236-.157c-1.102.236-1.024-.867-1.26-3.153-.158-.867 0-1.103.473-1.26l.393-.474c-.787-1.812-1.102-3.389-1.102-4.729 0-2.127.866-3.546 2.126-4.177-.787-1.497-.787-2.049-.787-2.049s4.41.788 5.985.473c1.89-.394 4.962.158 6.065 2.68 1.89.788 2.52 1.891 2.756 3.152.236 2.05-.866 4.177-1.102 5.044v.158c.236.158.393.394.236 1.261-.236 2.128-.236 3.39-1.26 3.153l-1.024 1.812c0 .237 0 .237-.158.394v4.414c0 .394.158.867.394 1.103.158.158.158.237.236.237.237.236.473.473.788.473 2.52 1.024 4.332 1.813 5.67 2.285 1.34.552 2.206.946 2.678 1.34Z"/>
    <path fill="#B7B4AF" d="M94.42 93.371c-.237.395-.63.631-1.025.868a21.059 21.059 0 0 1-14.412 5.674c-4.41 0-8.585-1.418-12.05-3.783-1.024-.63-1.89-1.498-2.757-2.286.473-.63 1.26-1.024 2.914-1.655l.63-.236c1.26-.473 3.072-1.104 5.356-2.128.394-.158.63-.394.866-.63 1.26 1.812 3.308 2.916 5.67 2.916a7.05 7.05 0 0 0 5.593-2.759c.236.236.472.473.787.473 2.52 1.024 4.332 1.813 5.67 2.285 1.418.473 2.285.867 2.757 1.261Z"/>
    <path fill="#676767" d="M86.7 76.584c.158-.473-.157-1.261-.393-1.655 0-.158-.158-.158-.158-.237-.866-1.812-2.756-2.443-4.568-2.522-4.725-.236-5.04.63-6.458-.63.473.63.473 1.813-.236 3.074-.473.867-1.418 1.418-2.284 1.655-2.127-4.808-1.024-7.882 1.024-8.906-.788-1.498-.788-2.05-.788-2.05s4.41.789 5.986.473c1.89-.394 4.961.158 6.064 2.68 1.89.788 2.52 1.892 2.757 3.153.472 1.97-.71 4.098-.945 4.965Z"/>
    <path fill="url(#b)" d="M74.572 87.775v-4.334l-.236-.237v-.236c.236.394.472.788.866 1.024l3.387 2.444c.787.63 1.89.63 2.678 0l3.15-2.759c.157-.158.236-.158.394-.236v4.413c0 .237 0 .394.157.63H74.572c-.157-.314 0-.472 0-.709Z"/>
  </g>
  <g filter="url(#c)">
    <path fill="#fff" d="m130.987 122.341-15.595-15.758c-1.599-1.616-3.898-2.222-5.997-1.818l-3.799-3.838c10.796-13.536 9.896-33.435-2.499-45.96C92.7 44.462 77.206 42.14 64.61 48.098c-3.499 1.617-6.797 3.94-9.797 6.87-3.698 3.635-6.297 7.979-7.897 12.625-.8 2.223-1.4 4.445-1.7 6.768-1.499 10.404 1.7 21.414 9.597 29.394l.5.505c6.598 6.465 15.095 9.596 23.692 9.596 7.598 0 15.195-2.525 21.393-7.576l3.798 3.839c-.4 2.121.2 4.444 1.8 6.06l15.494 15.758a6.59 6.59 0 0 0 9.397 0c2.699-2.626 2.699-6.97.1-9.596ZM98.198 98.806c-1.2 1.212-2.499 2.222-3.798 3.232-1.3.909-2.6 1.616-3.899 2.222-7.197 3.434-15.694 3.434-22.892 0a26.847 26.847 0 0 1-7.697-5.455c-6.598-6.666-9.097-15.858-7.498-24.444.4-2.323 1.1-4.646 2.2-6.768 1.3-2.727 3.099-5.353 5.298-7.575 1.5-1.516 3.099-2.829 4.798-3.839 4.399-2.828 9.397-4.141 14.395-4.141 6.998 0 13.895 2.626 19.193 7.98 10.497 10.707 10.497 28.08-.1 38.787Z"/>
  </g>
  <defs>
    <linearGradient id="b" x1="79.632" x2="79.632" y1="88.313" y2="85.423" gradientUnits="userSpaceOnUse">
      <stop stop-color="#fff" stop-opacity="0"/>
      <stop offset=".991" stop-color="#DAD6CF"/>
    </linearGradient>
    <filter id="c" width="120.066" height="121.029" x="28.858" y="36.878" color-interpolation-filters="sRGB" filterUnits="userSpaceOnUse">
      <feFlood flood-opacity="0" result="BackgroundImageFix"/>
      <feColorMatrix in="SourceAlpha" result="hardAlpha" values="0 0 0 0 0 0 0 0 0 0 0 0 0 0 0 0 0 0 127 0"/>
      <feOffset dy="8"/>
      <feGaussianBlur stdDeviation="8"/>
      <feColorMatrix values="0 0 0 0 0.482733 0 0 0 0 0.482733 0 0 0 0 0.482733 0 0 0 0.24 0"/>
      <feBlend in2="BackgroundImageFix" result="effect1_dropShadow_3306_34099"/>
      <feColorMatrix in="SourceAlpha" result="hardAlpha" values="0 0 0 0 0 0 0 0 0 0 0 0 0 0 0 0 0 0 127 0"/>
      <feOffset dy="2"/>
      <feGaussianBlur stdDeviation="2"/>
      <feComposite in2="hardAlpha" operator="out"/>
      <feColorMatrix values="0 0 0 0 0 0 0 0 0 0 0 0 0 0 0 0 0 0 0.12 0"/>
      <feBlend in2="effect1_dropShadow_3306_34099" result="effect2_dropShadow_3306_34099"/>
      <feBlend in="SourceGraphic" in2="effect2_dropShadow_3306_34099" result="shape"/>
    </filter>
  </defs>
</svg>
