<svg xmlns="http://www.w3.org/2000/svg" width="160" height="160" fill="none" viewBox="0 0 160 160">
  <mask id="a" width="125" height="125" x="18" y="17" maskUnits="userSpaceOnUse" style="mask-type:alpha">
    <path fill="#242424" d="M80.455 142c34.493 0 62.455-27.982 62.455-62.5S114.948 17 80.455 17C45.962 17 18 44.982 18 79.5S45.962 142 80.455 142Z"/>
  </mask>
  <g mask="url(#a)" opacity=".6">
    <path fill="#242424" d="M81.455 141c34.493 0 62.455-27.982 62.455-62.5S115.948 16 81.455 16C46.962 16 19 43.982 19 78.5S46.962 141 81.455 141Z"/>
    <path fill="#5C5C5C" d="M55.094 46.792c0 4.729-1.968 8.906-5.198 11.9a16.325 16.325 0 0 1-2.914 2.129c-2.362 1.419-5.198 2.207-8.19 2.207-2.993 0-5.829-.788-8.191-2.207-.394-.237-.71-.394-1.103-.71a16.24 16.24 0 0 1-6.93-13.32c0-8.984 7.324-16.235 16.223-16.235 9.058-.079 16.303 7.251 16.303 16.236Z"/>
    <path fill="#C6C6C6" d="M35.563 50.417c.236.237.394.473.709.71.236.236.394.315.63.473.078.078.315.236.393.315 0 0 .08 0 .08.079l.078.078v1.42l-.079-.08c-.079-.078-.315-.236-.394-.315-.236-.079-.393-.315-.63-.394-.078 0-.078-.079-.236-.079-.709-.394-1.26-.788-1.26-1.34.079-.157.315-.472.709-.867Zm13.861 7.724c-.63-1.34-1.417-2.522-2.835-3.231-.709-.315-1.496-.63-2.284-.63h-1.024c-1.102-.08-1.181-.316-1.181-.316v-2.286c.709-.63 1.417-1.34 1.969-1.97a7.41 7.41 0 0 0 1.102-2.522c.867-.236 1.497-1.025 1.418-1.97 0-.394-.315-.788-.315-1.183v-1.418c-.079-.71-.315-1.419-.709-2.207-1.181-2.207-3.386-3.626-5.985-3.626-.473 0-1.024.08-1.497.237-.866.236-1.811.63-2.52 1.182-.079.079-.315.237-.394.394l-.079.079c-.787.788-1.496 1.734-1.811 2.837-.394 1.104-.394 2.207-.315 3.31v.158c0 .237.079.237 0 .316 0 .078-.079.078-.079.236-.236.315-.315.71-.079 1.34.394 1.024 1.024.867 1.733 1.418 0 0-.079 0-.079.08l-.709.157c-3.229 1.024-4.331 3.704-2.914 5.438.473.63 1.26 1.104 2.52 1.419-.314 0-.63.236-.787.394-1.418 1.103-2.284 2.837-2.52 4.413v.316c.394.236.709.473 1.102.709l15.673-.394c1.024-.63 1.418-1.103 2.363-1.892-.157-.551.394-.709.236-.788Z"/>
    <path fill="#777" d="M49.896 58.693a16.324 16.324 0 0 1-2.914 2.128c-2.362 1.418-5.198 2.207-8.19 2.207-2.993 0-5.829-.789-8.191-2.207-.394-.237-.71-.394-1.103-.71v-.315c.236-1.576 1.103-3.31 2.52-4.413.237-.237.473-.316.788-.395-1.181-.236-1.97-.709-2.52-1.418h3.78c1.103 1.497 2.835 2.364 4.804 2.364 1.733 0 3.23-.71 4.332-1.813h1.024c.787 0 1.575.237 2.284.631 1.417.71 2.363 1.892 3.071 3.31.237.237.237.473.315.63Z"/>
    <path fill="#3A3A3A" d="M46.353 43.009c-1.181.394-2.599.63-3.86.473-2.126-.237-4.095-1.025-5.67-2.365-.472 1.498-1.811 2.601-3.307 3.31-.237.08-.394.237-.63.237v-.079c-.08-1.103-.08-2.207.314-3.31.316-1.104 1.024-1.97 1.812-2.837l.079-.08c.078-.078.315-.236.393-.393a4.987 4.987 0 0 1 2.52-1.183c.473-.078 1.025-.236 1.497-.236 2.6 0 4.883 1.419 5.986 3.625.393.788.63 1.577.709 2.207.157.315.157.473.157.63Z"/>
    <path fill="#373737" d="M38.32 57.826c-.63.71-1.576.71-2.521.71.866-.868.394-3.784-2.835-3.469-4.41-.788-4.017-5.438.394-6.778l.708-.236.08.079c.314.867.787 1.733 1.26 2.285-1.812 1.498.708 1.892 1.89 3.074 1.102.63 2.047 3.074 1.023 4.335Z"/>
    <path fill="#5C5C5C" d="M138.914 49.89c0 5.282-2.284 9.853-5.828 13.242-3.23 2.995-7.482 4.807-12.208 4.807-3.78 0-7.324-1.182-10.16-3.23-4.725-3.232-7.718-8.592-7.718-14.74C103 40.119 111.033 32 120.878 32c9.845.079 18.036 8.04 18.036 17.89Z"/>
    <path fill="#CCC" d="M133.459 62.476c-.237.315-.552.552-.867.788-3.229 2.995-7.482 4.808-12.207 4.808-3.781 0-7.325-1.183-10.16-3.232-.866-.551-1.575-1.26-2.363-1.97.394-.552 1.103-.867 2.442-1.419l.551-.236a53.284 53.284 0 0 0 4.489-1.813c.315-.079.552-.315.788-.552.079-.078.236-.236.236-.394.079-.236.236-.551.236-.788v-3.625c-.078-.08-.078-.08-.236-.237a2.54 2.54 0 0 1-.551-1.576l-.236-.079c-.946.237-.867-.788-1.103-2.68-.079-.788 0-.945.394-1.103l.315-.394c-.63-1.497-.945-2.916-.945-3.94 0-1.813.787-2.996 1.811-3.547-.63-1.261-.63-1.734-.63-1.734s3.78.63 5.041.394c1.575-.316 4.174.079 5.119 2.285 1.575.63 2.126 1.577 2.363 2.68.236 1.734-.788 3.547-.946 4.256v.158c.237.078.316.315.237 1.103-.237 1.813-.237 2.916-1.103 2.68l-.866 1.497c0 .237 0 .237-.079.316v3.783c0 .315.079.788.315.945.079.08.079.237.236.237.237.236.394.394.63.394 2.127.867 3.623 1.497 4.805 1.97 1.102.394 1.89.71 2.284 1.025Z"/>
    <path fill="#777" d="M133.459 62.476c-.237.315-.552.552-.867.788-3.229 2.995-7.482 4.808-12.207 4.808-3.781 0-7.325-1.182-10.16-3.231-.866-.552-1.575-1.261-2.363-1.97.394-.553 1.103-.868 2.442-1.42l.551-.236a53.277 53.277 0 0 0 4.489-1.813c.315-.078.552-.315.788-.551 1.103 1.497 2.756 2.443 4.804 2.443 1.969 0 3.623-.946 4.726-2.365.236.237.393.395.63.395 2.126.866 3.623 1.497 4.804 1.97 1.181.552 1.969.867 2.363 1.182Z"/>
    <path fill="#3A3A3A" d="M127.098 48.29c.08-.395-.08-1.104-.319-1.42 0-.078-.08-.078-.08-.236-.798-1.497-2.395-2.049-3.912-2.128-3.992-.236-4.311.552-5.509-.551.4.551.4 1.497-.239 2.6-.399.788-1.198 1.183-1.996 1.419-1.836-4.098-.878-6.62.878-7.487-.638-1.261-.638-1.734-.638-1.734s3.832.63 5.109.394c1.597-.316 4.231.079 5.189 2.285 1.597.63 2.156 1.577 2.395 2.68.32 1.576-.638 3.39-.878 4.177Z"/>
    <path fill="#5C5C5C" d="M69.55 119.63c0 4.886-2.126 9.221-5.433 12.295-2.993 2.837-7.01 4.492-11.42 4.492-3.466 0-6.774-1.103-9.53-2.995-4.41-2.995-7.167-8.039-7.167-13.713C36 110.487 43.482 103 52.697 103c9.293 0 16.854 7.409 16.854 16.63Z"/>
    <path fill="#CCC" d="M64.94 131.045c-.237.315-.473.473-.788.709-2.993 2.838-7.01 4.493-11.42 4.493-3.465 0-6.773-1.104-9.53-2.995-.787-.473-1.496-1.182-2.205-1.813.394-.473 1.024-.788 2.284-1.34l.473-.236c1.024-.394 2.362-.867 4.174-1.734.315-.079.472-.315.709-.473.078-.079.236-.236.236-.394.079-.236.236-.473.236-.709v-3.389l-.236-.237c-.315-.394-.473-.867-.473-1.497l-.236-.079c-.866.236-.788-.709-1.024-2.522-.079-.71 0-.867.394-1.025l.315-.394c-.63-1.419-.866-2.68-.866-3.704 0-1.734.709-2.837 1.732-3.31-.63-1.183-.63-1.577-.63-1.577s3.466.631 4.726.394c1.496-.315 3.859.079 4.804 2.128 1.496.631 1.969 1.498 2.205 2.522.236 1.577-.709 3.311-.866 4.02v.079c.236.079.315.315.236 1.024-.236 1.734-.236 2.68-1.024 2.522l-.787 1.419c0 .237 0 .237-.079.315v3.468c0 .316.079.71.315.867.079.079.079.237.236.237.236.236.394.394.63.394 1.97.788 3.387 1.418 4.49 1.812.866.395 1.575.71 1.968 1.025Z"/>
    <path fill="#777" d="M64.94 131.045c-.237.315-.473.473-.788.709-2.993 2.837-7.01 4.493-11.42 4.493-3.465 0-6.773-1.104-9.53-2.995-.787-.473-1.496-1.183-2.205-1.813.394-.473 1.024-.788 2.284-1.34l.473-.236c1.024-.394 2.362-.867 4.174-1.734.315-.079.472-.316.709-.473 1.023 1.418 2.599 2.285 4.489 2.285 1.811 0 3.386-.867 4.41-2.206.236.236.394.394.63.394 1.97.788 3.387 1.418 4.49 1.812 1.18.473 1.89.789 2.283 1.104Z"/>
    <path fill="#3A3A3A" d="M59.798 117.804c.085-.394-.085-1.025-.341-1.34 0-.079-.085-.079-.085-.236-.768-1.419-2.388-1.892-3.923-1.971-4.008-.236-4.349.473-5.542-.473.426.473.426 1.419-.256 2.365-.427.709-1.194 1.103-1.962 1.34-1.876-3.783-.852-6.227.853-7.015-.682-1.182-.682-1.576-.682-1.576s3.752.63 5.116.394c1.62-.315 4.179.079 5.202 2.128 1.62.631 2.132 1.497 2.387 2.522.427 1.419-.511 3.153-.767 3.862Z"/>
  </g>
  <path fill="#5C5C5C" d="M102 78.42c0 6.314-2.712 11.83-6.94 15.825A21.318 21.318 0 0 1 80.46 100c-4.467 0-8.696-1.439-12.206-3.836C62.59 92.327 59 85.854 59 78.5 59 66.671 68.653 57 80.46 57S102 66.591 102 78.42Z"/>
  <path fill="#CCC" d="M95.42 93.371c-.237.395-.63.631-1.025.868a21.059 21.059 0 0 1-14.412 5.674c-4.41 0-8.585-1.418-12.05-3.783-1.024-.63-1.89-1.497-2.757-2.286.473-.63 1.26-1.024 2.914-1.655l.63-.236c1.26-.473 3.072-1.103 5.356-2.128.394-.158.63-.394.866-.63.158-.158.237-.237.237-.473.157-.237.236-.631.236-.867V83.52l-.237-.237c-.393-.473-.63-1.103-.63-1.891l-.236-.158c-1.102.237-1.024-.867-1.26-3.152-.158-.867 0-1.104.473-1.261l.393-.473c-.787-1.813-1.102-3.39-1.102-4.73 0-2.127.866-3.546 2.126-4.176-.787-1.498-.787-2.05-.787-2.05s4.41.788 5.985.473c1.89-.394 4.962.158 6.065 2.68 1.89.788 2.52 1.891 2.756 3.153.236 2.049-.866 4.177-1.102 5.044v.157c.236.158.393.394.236 1.261-.236 2.128-.236 3.39-1.26 3.153l-1.024 1.813c0 .236 0 .236-.158.394v4.413c0 .394.158.867.394 1.104.158.157.158.236.236.236.237.237.473.473.788.473 2.52 1.025 4.332 1.813 5.67 2.286 1.34.551 2.206.946 2.678 1.34Z"/>
  <path fill="#777" d="M95.654 93.371c-.238.395-.635.631-1.031.868-3.81 3.546-8.97 5.674-14.525 5.674-4.445 0-8.651-1.418-12.144-3.783-1.032-.63-1.905-1.498-2.778-2.286.477-.63 1.27-1.024 2.937-1.655l.635-.236c1.27-.473 3.095-1.104 5.397-2.128.397-.158.635-.394.873-.63 1.27 1.812 3.334 2.916 5.715 2.916a7.124 7.124 0 0 0 5.635-2.759c.238.236.476.473.794.473 2.54 1.024 4.365 1.813 5.714 2.285 1.43.473 2.302.867 2.778 1.261Z"/>
  <path fill="#3A3A3A" d="M88.34 76.584c.164-.473-.164-1.261-.41-1.655 0-.158-.164-.158-.164-.237-.903-1.812-2.873-2.443-4.76-2.522-4.924-.236-5.252.63-6.729-.63.492.63.492 1.813-.246 3.074-.493.867-1.477 1.418-2.38 1.655-2.216-4.808-1.067-7.882 1.067-8.906-.82-1.498-.82-2.05-.82-2.05s4.595.789 6.236.473c1.97-.394 5.17.158 6.319 2.68 1.97.788 2.626 1.892 2.872 3.153.492 1.97-.739 4.098-.985 4.965Z"/>
  <path fill="url(#b)" d="M75.572 87.775v-4.334l-.236-.237v-.236c.236.394.472.788.866 1.024l3.387 2.444c.787.63 1.89.63 2.678 0l3.15-2.759c.157-.158.236-.158.394-.236v4.413c0 .237 0 .394.157.63H75.572c-.157-.314 0-.472 0-.709Z"/>
  <g filter="url(#c)">
    <path fill="#DEDEDE" d="m131.987 122.341-15.595-15.758c-1.599-1.616-3.898-2.222-5.997-1.818l-3.799-3.838c10.796-13.536 9.896-33.435-2.499-45.96C93.7 44.462 78.206 42.14 65.61 48.098c-3.499 1.617-6.797 3.94-9.797 6.87-3.698 3.635-6.297 7.979-7.897 12.625-.8 2.223-1.4 4.445-1.7 6.768-1.499 10.404 1.7 21.414 9.597 29.394l.5.505c6.598 6.465 15.095 9.596 23.692 9.596 7.598 0 15.195-2.525 21.393-7.576l3.798 3.839c-.4 2.121.2 4.444 1.8 6.06l15.494 15.758a6.59 6.59 0 0 0 9.397 0c2.699-2.626 2.699-6.97.1-9.596ZM99.198 98.806c-1.2 1.212-2.499 2.222-3.798 3.232-1.3.909-2.6 1.616-3.899 2.222-7.197 3.434-15.694 3.434-22.892 0a26.847 26.847 0 0 1-7.697-5.455c-6.598-6.666-9.097-15.858-7.498-24.444.4-2.323 1.1-4.646 2.2-6.768 1.3-2.727 3.099-5.353 5.298-7.575 1.5-1.516 3.099-2.829 4.798-3.839 4.399-2.828 9.397-4.141 14.395-4.141 6.998 0 13.895 2.626 19.193 7.98 10.497 10.707 10.497 28.08-.1 38.787Z"/>
  </g>
  <defs>
    <linearGradient id="b" x1="80.632" x2="80.632" y1="88.313" y2="85.423" gradientUnits="userSpaceOnUse">
      <stop stop-color="#CCC"/>
      <stop offset=".991" stop-color="#AAA"/>
    </linearGradient>
    <filter id="c" width="120.066" height="121.029" x="29.858" y="36.878" color-interpolation-filters="sRGB" filterUnits="userSpaceOnUse">
      <feFlood flood-opacity="0" result="BackgroundImageFix"/>
      <feColorMatrix in="SourceAlpha" result="hardAlpha" values="0 0 0 0 0 0 0 0 0 0 0 0 0 0 0 0 0 0 127 0"/>
      <feOffset dy="8"/>
      <feGaussianBlur stdDeviation="8"/>
      <feColorMatrix values="0 0 0 0 0 0 0 0 0 0 0 0 0 0 0 0 0 0 0.27 0"/>
      <feBlend in2="BackgroundImageFix" result="effect1_dropShadow_3306_34101"/>
      <feBlend in="SourceGraphic" in2="effect1_dropShadow_3306_34101" result="shape"/>
    </filter>
  </defs>
</svg>
