<svg width="230" height="160" viewBox="0 0 230 160" fill="none" xmlns="http://www.w3.org/2000/svg">
<path d="M119.711 134.391C149.748 134.391 174.1 110.04 174.1 79.8949C174.1 49.7502 149.641 25.3984 119.711 25.3984C89.6734 25.3984 65.3217 49.7502 65.3217 79.8949C65.3217 110.04 89.6734 134.391 119.711 134.391Z" fill="#EBEBEB"/>
<path d="M170.56 44.1716C172.989 44.1716 174.958 42.2024 174.958 39.7733C174.958 37.3442 172.989 35.375 170.56 35.375C168.131 35.375 166.162 37.3442 166.162 39.7733C166.162 42.2024 168.131 44.1716 170.56 44.1716Z" fill="#E8DFD3"/>
<path d="M176.997 27.0075C178.655 27.0075 180 25.6627 180 24.0037C180 22.3448 178.655 21 176.997 21C175.338 21 173.993 22.3448 173.993 24.0037C173.993 25.6627 175.338 27.0075 176.997 27.0075Z" fill="#E8DFD3"/>
<path d="M68.2182 44.0644C69.8771 44.0644 71.2219 42.7196 71.2219 41.0606C71.2219 39.4017 69.8771 38.0569 68.2182 38.0569C66.5593 38.0569 65.2144 39.4017 65.2144 41.0606C65.2144 42.7196 66.5593 44.0644 68.2182 44.0644Z" fill="#E8DFD3"/>
<path d="M55.5786 108.997C58.6595 108.997 61.157 106.499 61.157 103.418C61.157 100.338 58.6595 97.84 55.5786 97.84C52.4978 97.84 50.0002 100.338 50.0002 103.418C50.0002 106.499 52.4978 108.997 55.5786 108.997Z" fill="#E8DFD3"/>
<g filter="url(#filter0_d_3306_34245)">
<path d="M163.117 115.453H76.3036C72.3121 115.453 69.0691 112.21 69.0691 108.219V52.5882C69.0691 48.5967 72.3121 45.3537 76.3036 45.3537H163.117C167.109 45.3537 170.352 48.5967 170.352 52.5882V108.468C170.102 112.21 166.859 115.453 163.117 115.453Z" fill="url(#paint0_linear_3306_34245)"/>
</g>
<path d="M84.8722 48.9899C84.8722 48.3975 85.3525 47.9172 85.945 47.9172H98.8334C99.4258 47.9172 99.9061 48.3975 99.9061 48.9899V52.3722C99.9061 52.9647 99.4258 53.445 98.8334 53.445H85.945C85.3525 53.445 84.8722 52.9647 84.8722 52.3722V48.9899Z" fill="#D4CDC0"/>
<path d="M138.762 48.9899C138.762 48.3975 139.242 47.9172 139.834 47.9172H152.723C153.315 47.9172 153.795 48.3975 153.795 48.9899V52.3722C153.795 52.9647 153.315 53.445 152.723 53.445H139.834C139.242 53.445 138.762 52.9647 138.762 52.3722V48.9899Z" fill="#D4CDC0"/>
<g filter="url(#filter1_d_3306_34245)">
<path d="M96.685 35.3749H88.1035C87.5111 35.3749 87.0308 35.8552 87.0308 36.4476V49.3908C87.0308 49.9833 87.5111 50.4636 88.1035 50.4636H96.685C97.2775 50.4636 97.7578 49.9833 97.7578 49.3908V36.4476C97.7578 35.8552 97.2775 35.3749 96.685 35.3749Z" fill="url(#paint1_linear_3306_34245)"/>
<path d="M150.575 35.3749H141.993C141.401 35.3749 140.921 35.8552 140.921 36.4476V49.3908C140.921 49.9833 141.401 50.4636 141.993 50.4636H150.575C151.167 50.4636 151.648 49.9833 151.648 49.3908V36.4476C151.648 35.8552 151.167 35.3749 150.575 35.3749Z" fill="url(#paint2_linear_3306_34245)"/>
</g>
<path fill-rule="evenodd" clip-rule="evenodd" d="M100.501 64.9115C94.7696 64.9115 90.1233 69.5578 90.1233 75.2894C90.1233 78.458 91.5433 81.2949 93.7817 83.1985C88.6831 85.7133 85.1343 90.9789 85.1343 96.9962C85.1343 98.1811 86.0949 99.1417 87.2798 99.1417C88.4648 99.1417 89.4253 98.1811 89.4253 96.9962C89.4253 90.9467 94.4519 85.9201 100.501 85.9201C106.551 85.9201 111.578 90.9467 111.578 96.9962C111.578 98.1811 112.538 99.1417 113.723 99.1417C114.908 99.1417 115.869 98.1811 115.869 96.9962C115.869 90.9787 112.32 85.713 107.221 83.1983C109.459 81.2947 110.879 78.4579 110.879 75.2894C110.879 69.5578 106.233 64.9115 100.501 64.9115ZM94.4144 75.2894C94.4144 71.9277 97.1395 69.2026 100.501 69.2026C103.863 69.2026 106.588 71.9277 106.588 75.2894C106.588 78.651 103.863 81.3762 100.501 81.3762C97.1395 81.3762 94.4144 78.651 94.4144 75.2894Z" fill="#BCB9B3"/>
<path d="M125.299 73.7926C125.299 72.6077 126.259 71.6471 127.444 71.6471H154.137C155.322 71.6471 156.282 72.6077 156.282 73.7926C156.282 74.9775 155.322 75.9381 154.137 75.9381H127.444C126.259 75.9381 125.299 74.9775 125.299 73.7926Z" fill="#BCB9B3"/>
<path d="M127.444 85.1182C126.259 85.1182 125.299 86.0788 125.299 87.2637C125.299 88.4486 126.259 89.4092 127.444 89.4092H137.922C139.107 89.4092 140.067 88.4486 140.067 87.2637C140.067 86.0788 139.107 85.1182 137.922 85.1182H127.444Z" fill="#BCB9B3"/>
<path d="M116.391 138.627L116.391 138.627L116.385 138.626C107.487 136.779 101.778 128.049 103.625 119.15C105.473 110.246 114.121 104.461 123.01 106.39L123.013 106.39C126.194 107.06 128.967 108.651 131.332 110.845C135.273 114.79 136.948 120.494 135.776 125.857C135.437 127.295 134.931 128.814 134.344 130.073C132.751 133.17 130.237 135.602 127.128 137.199C123.931 138.797 120.157 139.464 116.391 138.627Z" fill="#DEDBD5" stroke="#F0F0F0"/>
<path d="M125.105 121.038H121.213V117.145C121.213 116.367 120.608 115.675 119.743 115.675C118.964 115.675 118.272 116.28 118.272 117.145V121.038H114.38C113.602 121.038 112.91 121.643 112.91 122.508C112.91 123.373 113.515 123.978 114.38 123.978H118.272V127.871C118.272 128.649 118.878 129.341 119.743 129.341C120.521 129.341 121.213 128.736 121.213 127.871V123.978H125.105C125.884 123.978 126.576 123.373 126.576 122.508C126.576 121.643 125.884 121.038 125.105 121.038Z" fill="white"/>
<defs>
<filter id="filter0_d_3306_34245" x="57.0691" y="41.3537" width="125.283" height="94.0997" filterUnits="userSpaceOnUse" color-interpolation-filters="sRGB">
<feFlood flood-opacity="0" result="BackgroundImageFix"/>
<feColorMatrix in="SourceAlpha" type="matrix" values="0 0 0 0 0 0 0 0 0 0 0 0 0 0 0 0 0 0 127 0" result="hardAlpha"/>
<feOffset dy="8"/>
<feGaussianBlur stdDeviation="6"/>
<feColorMatrix type="matrix" values="0 0 0 0 0.576471 0 0 0 0 0.501961 0 0 0 0 0.396078 0 0 0 0.17 0"/>
<feBlend mode="normal" in2="BackgroundImageFix" result="effect1_dropShadow_3306_34245"/>
<feBlend mode="normal" in="SourceGraphic" in2="effect1_dropShadow_3306_34245" result="shape"/>
</filter>
<filter id="filter1_d_3306_34245" x="65.0308" y="24.3749" width="108.617" height="59.0887" filterUnits="userSpaceOnUse" color-interpolation-filters="sRGB">
<feFlood flood-opacity="0" result="BackgroundImageFix"/>
<feColorMatrix in="SourceAlpha" type="matrix" values="0 0 0 0 0 0 0 0 0 0 0 0 0 0 0 0 0 0 127 0" result="hardAlpha"/>
<feOffset dy="11"/>
<feGaussianBlur stdDeviation="11"/>
<feColorMatrix type="matrix" values="0 0 0 0 0.576471 0 0 0 0 0.501961 0 0 0 0 0.396078 0 0 0 0.37 0"/>
<feBlend mode="normal" in2="BackgroundImageFix" result="effect1_dropShadow_3306_34245"/>
<feBlend mode="normal" in="SourceGraphic" in2="effect1_dropShadow_3306_34245" result="shape"/>
</filter>
<linearGradient id="paint0_linear_3306_34245" x1="119.677" y1="43.7322" x2="119.677" y2="116.209" gradientUnits="userSpaceOnUse">
<stop stop-color="#FDFEFF"/>
<stop offset="0.9964" stop-color="#F5F2EC"/>
</linearGradient>
<linearGradient id="paint1_linear_3306_34245" x1="146.281" y1="35.0258" x2="146.281" y2="50.6262" gradientUnits="userSpaceOnUse">
<stop stop-color="#FDFEFF"/>
<stop offset="0.9964" stop-color="#F5F2EC"/>
</linearGradient>
<linearGradient id="paint2_linear_3306_34245" x1="146.281" y1="35.0258" x2="146.281" y2="50.6262" gradientUnits="userSpaceOnUse">
<stop stop-color="#FDFEFF"/>
<stop offset="0.9964" stop-color="#F5F2EC"/>
</linearGradient>
</defs>
</svg>
