<svg xmlns="http://www.w3.org/2000/svg" width="160" height="160" fill="none" viewBox="0 0 160 160">
  <path fill="#F0F0F0" d="M84.71 134.391c30.038 0 54.39-24.351 54.39-54.496 0-30.145-24.459-54.497-54.39-54.497-30.037 0-54.389 24.352-54.389 54.497s24.352 54.496 54.39 54.496Z"/>
  <path fill="#E8DFD3" d="M135.559 44.172a4.398 4.398 0 1 0 .001-8.797 4.398 4.398 0 0 0-.001 8.797Zm6.437-17.164a3.004 3.004 0 1 0 0-6.008 3.004 3.004 0 0 0 0 6.008ZM33.218 44.064a3.004 3.004 0 1 0 0-6.007 3.004 3.004 0 0 0 0 6.007Zm-12.64 64.933a5.579 5.579 0 1 0 0-11.158 5.579 5.579 0 0 0 0 11.158Z"/>
  <g filter="url(#a)">
    <path fill="url(#b)" d="M128.117 115.453H41.303a7.24 7.24 0 0 1-7.234-7.234v-55.63a7.24 7.24 0 0 1 7.234-7.235h86.814a7.24 7.24 0 0 1 7.235 7.234v55.88c-.25 3.742-3.493 6.985-7.235 6.985Z"/>
  </g>
  <path fill="#D4CDC0" d="M49.872 48.99c0-.593.48-1.073 1.072-1.073h12.889c.592 0 1.073.48 1.073 1.073v3.382c0 .593-.48 1.073-1.073 1.073H50.944c-.592 0-1.072-.48-1.072-1.073V48.99Zm53.889 0c0-.593.481-1.073 1.073-1.073h12.888c.593 0 1.073.48 1.073 1.073v3.382c0 .593-.48 1.073-1.073 1.073h-12.888c-.592 0-1.073-.48-1.073-1.073V48.99Z"/>
  <g filter="url(#c)">
    <path fill="url(#d)" d="M61.684 35.375h-8.581c-.592 0-1.073.48-1.073 1.073V49.39c0 .592.48 1.073 1.073 1.073h8.581c.593 0 1.073-.48 1.073-1.073V36.448c0-.593-.48-1.073-1.072-1.073Z"/>
  </g>
  <g filter="url(#e)">
    <path fill="url(#f)" d="M115.574 35.375h-8.581c-.593 0-1.073.48-1.073 1.073V49.39c0 .592.48 1.073 1.073 1.073h8.581c.593 0 1.073-.48 1.073-1.073V36.448c0-.593-.48-1.073-1.073-1.073Z"/>
  </g>
  <path fill="#BCB9B3" fill-rule="evenodd" d="M65.5 69.203a6.087 6.087 0 1 0 0 12.173 6.087 6.087 0 0 0 0-12.173ZM55.124 75.29c0-5.732 4.646-10.378 10.378-10.378 5.731 0 10.378 4.646 10.378 10.377 0 5.732-4.647 10.378-10.378 10.378-5.732 0-10.378-4.646-10.378-10.377Z" clip-rule="evenodd"/>
  <path fill="#BCB9B3" fill-rule="evenodd" d="M65.501 85.92c-6.05 0-11.076 5.026-11.076 11.076a2.145 2.145 0 1 1-4.29 0c0-8.42 6.947-15.367 15.366-15.367 8.42 0 15.368 6.948 15.368 15.367a2.146 2.146 0 0 1-4.291 0c0-6.05-5.027-11.076-11.077-11.076Zm24.797-12.127c0-1.185.96-2.146 2.146-2.146h26.693a2.145 2.145 0 0 1 0 4.291H92.444a2.146 2.146 0 0 1-2.146-2.145Zm0 13.471c0-1.185.96-2.146 2.146-2.146h10.477a2.146 2.146 0 1 1 0 4.291H92.444a2.146 2.146 0 0 1-2.146-2.145Z" clip-rule="evenodd"/>
  <g filter="url(#g)">
    <path fill="url(#h)" d="M101.263 125.968c-.346 1.47-.865 3.027-1.47 4.325-1.644 3.2-4.239 5.708-7.439 7.352-3.287 1.643-7.18 2.335-11.071 1.47-9.169-1.903-15.05-10.898-13.148-20.067 1.903-9.168 10.812-15.136 19.98-13.147 3.288.692 6.142 2.335 8.564 4.584 4.065 4.065 5.795 9.947 4.584 15.483Z"/>
  </g>
  <path fill="#fff" d="M90.105 121.038h-3.892v-3.893c0-.778-.606-1.47-1.47-1.47-.78 0-1.471.605-1.471 1.47v3.893H79.38c-.779 0-1.47.605-1.47 1.47s.605 1.47 1.47 1.47h3.892v3.893c0 .778.605 1.47 1.47 1.47.779 0 1.47-.605 1.47-1.47v-3.893h3.893c.778 0 1.47-.605 1.47-1.47s-.692-1.47-1.47-1.47Z"/>
  <defs>
    <linearGradient id="b" x1="84.677" x2="84.677" y1="43.732" y2="116.209" gradientUnits="userSpaceOnUse">
      <stop stop-color="#FDFEFF"/>
      <stop offset=".996" stop-color="#F5F2EC"/>
    </linearGradient>
    <linearGradient id="d" x1="57.39" x2="57.39" y1="35.026" y2="50.626" gradientUnits="userSpaceOnUse">
      <stop stop-color="#FDFEFF"/>
      <stop offset=".996" stop-color="#F5F2EC"/>
    </linearGradient>
    <linearGradient id="f" x1="111.28" x2="111.28" y1="35.026" y2="50.626" gradientUnits="userSpaceOnUse">
      <stop stop-color="#FDFEFF"/>
      <stop offset=".996" stop-color="#F5F2EC"/>
    </linearGradient>
    <linearGradient id="h" x1="100.299" x2="68.811" y1="105.518" y2="105.627" gradientUnits="userSpaceOnUse">
      <stop stop-color="#606060"/>
      <stop offset="1" stop-color="#7B7B7B"/>
    </linearGradient>
    <filter id="a" width="125.283" height="94.1" x="22.069" y="41.354" color-interpolation-filters="sRGB" filterUnits="userSpaceOnUse">
      <feFlood flood-opacity="0" result="BackgroundImageFix"/>
      <feColorMatrix in="SourceAlpha" result="hardAlpha" values="0 0 0 0 0 0 0 0 0 0 0 0 0 0 0 0 0 0 127 0"/>
      <feOffset dy="8"/>
      <feGaussianBlur stdDeviation="6"/>
      <feColorMatrix values="0 0 0 0 0.576471 0 0 0 0 0.501961 0 0 0 0 0.396078 0 0 0 0.17 0"/>
      <feBlend in2="BackgroundImageFix" result="effect1_dropShadow_3306_34245"/>
      <feBlend in="SourceGraphic" in2="effect1_dropShadow_3306_34245" result="shape"/>
    </filter>
    <filter id="c" width="54.727" height="59.089" x="30.03" y="24.375" color-interpolation-filters="sRGB" filterUnits="userSpaceOnUse">
      <feFlood flood-opacity="0" result="BackgroundImageFix"/>
      <feColorMatrix in="SourceAlpha" result="hardAlpha" values="0 0 0 0 0 0 0 0 0 0 0 0 0 0 0 0 0 0 127 0"/>
      <feOffset dy="11"/>
      <feGaussianBlur stdDeviation="11"/>
      <feColorMatrix values="0 0 0 0 0.576471 0 0 0 0 0.501961 0 0 0 0 0.396078 0 0 0 0.37 0"/>
      <feBlend in2="BackgroundImageFix" result="effect1_dropShadow_3306_34245"/>
      <feBlend in="SourceGraphic" in2="effect1_dropShadow_3306_34245" result="shape"/>
    </filter>
    <filter id="e" width="54.727" height="59.089" x="83.92" y="24.375" color-interpolation-filters="sRGB" filterUnits="userSpaceOnUse">
      <feFlood flood-opacity="0" result="BackgroundImageFix"/>
      <feColorMatrix in="SourceAlpha" result="hardAlpha" values="0 0 0 0 0 0 0 0 0 0 0 0 0 0 0 0 0 0 127 0"/>
      <feOffset dy="11"/>
      <feGaussianBlur stdDeviation="11"/>
      <feColorMatrix values="0 0 0 0 0.576471 0 0 0 0 0.501961 0 0 0 0 0.396078 0 0 0 0.37 0"/>
      <feBlend in2="BackgroundImageFix" result="effect1_dropShadow_3306_34245"/>
      <feBlend in="SourceGraphic" in2="effect1_dropShadow_3306_34245" result="shape"/>
    </filter>
    <filter id="g" width="57.865" height="57.972" x="55.778" y="97.518" color-interpolation-filters="sRGB" filterUnits="userSpaceOnUse">
      <feFlood flood-opacity="0" result="BackgroundImageFix"/>
      <feColorMatrix in="SourceAlpha" result="hardAlpha" values="0 0 0 0 0 0 0 0 0 0 0 0 0 0 0 0 0 0 127 0"/>
      <feOffset dy="4"/>
      <feGaussianBlur stdDeviation="6"/>
      <feColorMatrix values="0 0 0 0 0.482733 0 0 0 0 0.482733 0 0 0 0 0.482733 0 0 0 0.27 0"/>
      <feBlend in2="BackgroundImageFix" result="effect1_dropShadow_3306_34245"/>
      <feBlend in="SourceGraphic" in2="effect1_dropShadow_3306_34245" result="shape"/>
    </filter>
  </defs>
</svg>
