<svg xmlns="http://www.w3.org/2000/svg" width="160" height="160" fill="none" viewBox="0 0 160 160">
  <path fill="#242424" d="M84.71 134.141c30.038 0 54.39-24.298 54.39-54.376s-24.459-54.376-54.39-54.376c-30.037 0-54.389 24.298-54.389 54.376s24.352 54.376 54.39 54.376Z"/>
  <path fill="#3A3A3A" d="M135.56 44.12a4.393 4.393 0 0 0 4.398-4.388 4.393 4.393 0 0 0-4.398-4.389 4.393 4.393 0 0 0-4.398 4.389 4.393 4.393 0 0 0 4.398 4.389Zm6.436-17.126A3 3 0 0 0 145 23.997 3 3 0 0 0 141.996 21a3 3 0 0 0-3.003 2.997 3 3 0 0 0 3.003 2.997ZM33.218 44.014a3 3 0 0 0 3.003-2.998 3 3 0 0 0-3.003-2.997 3 3 0 0 0-3.004 2.997 3 3 0 0 0 3.004 2.998Zm-12.64 64.789a5.572 5.572 0 0 0 5.579-5.566 5.573 5.573 0 0 0-5.579-5.566A5.572 5.572 0 0 0 15 103.237a5.572 5.572 0 0 0 5.578 5.566Z"/>
  <path fill="url(#a)" d="M128.117 115.245H41.303c-3.991 0-7.234-3.236-7.234-7.218V52.519c0-3.983 3.243-7.219 7.234-7.219h86.814c3.992 0 7.235 3.236 7.235 7.219v55.757c-.25 3.733-3.493 6.969-7.235 6.969Z"/>
  <path fill="url(#b)" d="M49.871 47.858h15.034v5.516H49.871v-5.516Z"/>
  <path fill="url(#c)" d="M103.762 47.858h15.034v5.516h-15.034v-5.516Z"/>
  <path fill="url(#d)" d="M62.757 35.343H52.03V50.4h10.727V35.343Z"/>
  <path fill="url(#e)" d="M116.647 35.343H105.92V50.4h10.727V35.343Z"/>
  <path fill="#CBCBCB" fill-rule="evenodd" d="M65.501 69.097c-3.361 0-6.086 2.719-6.086 6.073 0 3.354 2.725 6.073 6.086 6.073 3.362 0 6.087-2.719 6.087-6.073 0-3.354-2.725-6.073-6.087-6.073ZM55.123 75.17c0-5.719 4.647-10.355 10.378-10.355 5.732 0 10.378 4.636 10.378 10.355s-4.646 10.355-10.378 10.355c-5.731 0-10.378-4.636-10.378-10.355Z" clip-rule="evenodd"/>
  <path fill="#CBCBCB" fill-rule="evenodd" d="M65.501 85.777c-6.05 0-11.076 5.016-11.076 11.052 0 1.182-.96 2.14-2.145 2.14a2.143 2.143 0 0 1-2.146-2.14c0-8.401 6.948-15.334 15.367-15.334 8.42 0 15.368 6.933 15.368 15.334 0 1.182-.96 2.14-2.146 2.14a2.143 2.143 0 0 1-2.145-2.14c0-6.036-5.027-11.052-11.077-11.052Zm24.797-12.101c0-1.182.96-2.14 2.145-2.14h26.693c1.185 0 2.146.958 2.146 2.14 0 1.182-.961 2.14-2.146 2.14H92.443a2.143 2.143 0 0 1-2.145-2.14Zm0 13.442c0-1.183.96-2.141 2.145-2.141h10.478c1.185 0 2.145.958 2.145 2.14 0 1.183-.96 2.141-2.145 2.141H92.443a2.143 2.143 0 0 1-2.145-2.14Z" clip-rule="evenodd"/>
  <path fill="url(#f)" d="M101.263 125.737c-.346 1.467-.865 3.02-1.47 4.315-1.644 3.193-4.239 5.696-7.439 7.336-3.287 1.64-7.18 2.33-11.071 1.467-9.169-1.899-15.05-10.874-13.148-20.023 1.903-9.148 10.812-15.103 19.98-13.118 3.288.69 6.142 2.33 8.564 4.574 4.065 4.057 5.795 9.925 4.584 15.449Z"/>
  <path fill="#474E61" d="M90.106 120.817h-3.893v-3.884c0-.777-.605-1.467-1.47-1.467-.779 0-1.47.604-1.47 1.467v3.884H79.38c-.778 0-1.47.604-1.47 1.467 0 .863.605 1.467 1.47 1.467h3.892v3.884c0 .776.606 1.467 1.47 1.467.78 0 1.471-.604 1.471-1.467v-3.884h3.893c.778 0 1.47-.604 1.47-1.467 0-.863-.692-1.467-1.47-1.467Z"/>
  <defs>
    <linearGradient id="a" x1="84.677" x2="84.677" y1="43.682" y2="115.999" gradientUnits="userSpaceOnUse">
      <stop stop-color="#5C5C5C"/>
      <stop offset=".996" stop-color="#4D4D4D"/>
    </linearGradient>
    <linearGradient id="b" x1="57.388" x2="57.388" y1="47.858" y2="53.374" gradientUnits="userSpaceOnUse">
      <stop stop-color="#363636"/>
      <stop offset="1" stop-color="#1D1D1D"/>
    </linearGradient>
    <linearGradient id="c" x1="111.279" x2="111.279" y1="47.858" y2="53.374" gradientUnits="userSpaceOnUse">
      <stop stop-color="#363636"/>
      <stop offset="1" stop-color="#1D1D1D"/>
    </linearGradient>
    <linearGradient id="d" x1="57.39" x2="57.39" y1="34.995" y2="50.561" gradientUnits="userSpaceOnUse">
      <stop stop-color="#5C5C5C"/>
      <stop offset=".996" stop-color="#4D4D4D"/>
    </linearGradient>
    <linearGradient id="e" x1="111.28" x2="111.28" y1="34.995" y2="50.561" gradientUnits="userSpaceOnUse">
      <stop stop-color="#5C5C5C"/>
      <stop offset=".996" stop-color="#4D4D4D"/>
    </linearGradient>
    <linearGradient id="f" x1="84.71" x2="84.71" y1="105.332" y2="139.229" gradientUnits="userSpaceOnUse">
      <stop stop-color="#FAFAFA"/>
      <stop offset=".828" stop-color="#F5F2EC"/>
    </linearGradient>
  </defs>
</svg>
