<svg width="28" height="28" viewBox="0 0 28 28" fill="none" xmlns="http://www.w3.org/2000/svg">
<path fill-rule="evenodd" clip-rule="evenodd" d="M14 2.25C14.2328 2.25 14.4523 2.35807 14.5943 2.5425L18.0584 7.0425C18.2327 7.26895 18.2632 7.57479 18.137 7.83119C18.0108 8.0876 17.7499 8.25 17.4641 8.25L10.5359 8.25C10.2501 8.25 9.98918 8.08759 9.86298 7.83119C9.73679 7.57479 9.76727 7.26895 9.94159 7.0425L13.4057 2.5425C13.5477 2.35807 13.7672 2.25 14 2.25ZM14 4.22952L12.0597 6.75L15.9403 6.75L14 4.22952Z" fill="#212121"/>
<path fill-rule="evenodd" clip-rule="evenodd" d="M14 18C16.2091 18 18 16.2091 18 14C18 11.7909 16.2091 10 14 10C11.7909 10 10 11.7909 10 14C10 16.2091 11.7909 18 14 18ZM14 16.5C15.3807 16.5 16.5 15.3807 16.5 14C16.5 12.6193 15.3807 11.5 14 11.5C12.6193 11.5 11.5 12.6193 11.5 14C11.5 15.3807 12.6193 16.5 14 16.5Z" fill="#212121"/>
<path fill-rule="evenodd" clip-rule="evenodd" d="M13.4057 25.4575C13.5477 25.6419 13.7672 25.75 14 25.75C14.2328 25.75 14.4523 25.6419 14.5943 25.4575L18.0584 20.9575C18.2327 20.731 18.2632 20.4252 18.137 20.1688C18.0108 19.9124 17.7499 19.75 17.4641 19.75H10.5359C10.2501 19.75 9.98918 19.9124 9.86299 20.1688C9.73679 20.4252 9.76727 20.731 9.94159 20.9575L13.4057 25.4575ZM15.9403 21.25L14 23.7705L12.0597 21.25H15.9403Z" fill="#212121"/>
<path fill-rule="evenodd" clip-rule="evenodd" d="M25.75 14C25.75 14.2328 25.6419 14.4523 25.4575 14.5943L20.9575 18.0584C20.731 18.2327 20.4252 18.2632 20.1688 18.137C19.9124 18.0108 19.75 17.7499 19.75 17.4641L19.75 10.5359C19.75 10.2501 19.9124 9.98918 20.1688 9.86298C20.4252 9.73679 20.731 9.76727 20.9575 9.94159L25.4575 13.4057C25.6419 13.5477 25.75 13.7672 25.75 14ZM23.7705 14L21.25 12.0597L21.25 15.9403L23.7705 14Z" fill="#212121"/>
<path fill-rule="evenodd" clip-rule="evenodd" d="M2.5425 13.4057C2.35807 13.5477 2.25 13.7672 2.25 14C2.25 14.2328 2.35807 14.4523 2.5425 14.5943L7.0425 18.0584C7.26895 18.2327 7.57479 18.2632 7.83119 18.137C8.08759 18.0108 8.25 17.7499 8.25 17.4641L8.25 10.5359C8.25 10.2501 8.0876 9.98918 7.83119 9.86298C7.57479 9.73679 7.26895 9.76727 7.0425 9.94159L2.5425 13.4057ZM6.75 15.9403L4.22952 14L6.75 12.0597L6.75 15.9403Z" fill="#212121"/>
</svg>
