<svg width="24" height="24" viewBox="0 0 24 24" fill="none" xmlns="http://www.w3.org/2000/svg">
<path fill-rule="evenodd" clip-rule="evenodd" d="M12 2.25C12.246 2.25 12.4764 2.37065 12.6165 2.57288L15.2146 6.32288C15.3735 6.55222 15.3919 6.85081 15.2625 7.09796C15.133 7.34512 14.8771 7.5 14.5981 7.5L9.40192 7.5C9.12292 7.5 8.86697 7.34512 8.73753 7.09796C8.60808 6.8508 8.62653 6.55222 8.78543 6.32288L11.3835 2.57288C11.5236 2.37065 11.754 2.25 12 2.25ZM13.166 6L12 4.31696L10.834 6L13.166 6Z" fill="#212121"/>
<path fill-rule="evenodd" clip-rule="evenodd" d="M12 15C13.6569 15 15 13.6569 15 12C15 10.3431 13.6569 9 12 9C10.3431 9 9 10.3431 9 12C9 13.6569 10.3431 15 12 15ZM12 13.5C12.8284 13.5 13.5 12.8284 13.5 12C13.5 11.1716 12.8284 10.5 12 10.5C11.1716 10.5 10.5 11.1716 10.5 12C10.5 12.8284 11.1716 13.5 12 13.5Z" fill="#212121"/>
<path fill-rule="evenodd" clip-rule="evenodd" d="M11.3835 21.4271C11.5236 21.6293 11.754 21.75 12 21.75C12.246 21.75 12.4764 21.6293 12.6165 21.4271L15.2146 17.6771C15.3735 17.4478 15.3919 17.1492 15.2625 16.902C15.133 16.6549 14.8771 16.5 14.5981 16.5L9.40192 16.5C9.12292 16.5 8.86698 16.6549 8.73753 16.902C8.60808 17.1492 8.62654 17.4478 8.78543 17.6771L11.3835 21.4271ZM10.834 18L13.166 18L12 19.683L10.834 18Z" fill="#212121"/>
<path fill-rule="evenodd" clip-rule="evenodd" d="M21.75 12C21.75 12.246 21.6293 12.4764 21.4271 12.6165L17.6771 15.2146C17.4478 15.3735 17.1492 15.3919 16.902 15.2625C16.6549 15.133 16.5 14.8771 16.5 14.5981L16.5 9.40192C16.5 9.12292 16.6549 8.86697 16.902 8.73753C17.1492 8.60808 17.4478 8.62653 17.6771 8.78543L21.4271 11.3835C21.6293 11.5236 21.75 11.754 21.75 12ZM18 10.834V13.166L19.683 12L18 10.834Z" fill="#212121"/>
<path fill-rule="evenodd" clip-rule="evenodd" d="M2.57288 11.3835C2.37065 11.5236 2.25 11.754 2.25 12C2.25 12.246 2.37065 12.4764 2.57288 12.6165L6.32288 15.2146C6.55222 15.3735 6.8508 15.3919 7.09796 15.2625C7.34512 15.133 7.5 14.8771 7.5 14.5981L7.5 9.40192C7.5 9.12292 7.34512 8.86698 7.09796 8.73753C6.85081 8.60808 6.55222 8.62654 6.32288 8.78543L2.57288 11.3835ZM6 10.834L6 13.166L4.31696 12L6 10.834Z" fill="#212121"/>
</svg>
