<svg width="32" height="32" viewBox="0 0 32 32" fill="none" xmlns="http://www.w3.org/2000/svg">
<path fill-rule="evenodd" clip-rule="evenodd" d="M16.0001 2C16.2986 2 16.5815 2.1334 16.7715 2.36372L21.1016 7.61372C21.3479 7.91235 21.3998 8.32631 21.2347 8.67645C21.0696 9.02659 20.7173 9.25 20.3302 9.25L11.6699 9.25C11.2828 9.25 10.9305 9.02658 10.7654 8.67645C10.6003 8.32631 10.6522 7.91235 10.8985 7.61371L15.2286 2.36372C15.4186 2.1334 15.7015 2 16.0001 2ZM18.2091 7.25L16.0001 4.57162L13.791 7.25L18.2091 7.25Z" fill="#212121"/>
<path fill-rule="evenodd" clip-rule="evenodd" d="M16 21C18.7614 21 21 18.7614 21 16C21 13.2386 18.7614 11 16 11C13.2386 11 11 13.2386 11 16C11 18.7614 13.2386 21 16 21ZM16 19C17.6569 19 19 17.6569 19 16C19 14.3431 17.6569 13 16 13C14.3431 13 13 14.3431 13 16C13 17.6569 14.3431 19 16 19Z" fill="#212121"/>
<path fill-rule="evenodd" clip-rule="evenodd" d="M15.2285 29.6363C15.4185 29.8666 15.7014 30 15.9999 30C16.2985 30 16.5814 29.8666 16.7714 29.6363L21.1015 24.3863C21.3478 24.0877 21.3997 23.6737 21.2346 23.3236C21.0695 22.9734 20.7172 22.75 20.3301 22.75H11.6698C11.2827 22.75 10.9304 22.9734 10.7653 23.3236C10.6002 23.6737 10.6521 24.0877 10.8984 24.3863L15.2285 29.6363ZM13.7909 24.75H18.209L15.9999 27.4284L13.7909 24.75Z" fill="#212121"/>
<path fill-rule="evenodd" clip-rule="evenodd" d="M30 16.0001C30 16.2986 29.8666 16.5816 29.6363 16.7715L24.3863 21.1016C24.0877 21.3479 23.6737 21.3998 23.3236 21.2347C22.9734 21.0696 22.75 20.7173 22.75 20.3302L22.75 11.6699C22.75 11.2828 22.9734 10.9305 23.3236 10.7654C23.6737 10.6003 24.0877 10.6522 24.3863 10.8985L29.6363 15.2286C29.8666 15.4186 30 15.7015 30 16.0001ZM24.75 13.791L24.75 18.2091L27.4284 16.0001L24.75 13.791Z" fill="#212121"/>
<path fill-rule="evenodd" clip-rule="evenodd" d="M2.36372 15.2285C2.1334 15.4185 2 15.7014 2 15.9999C2 16.2985 2.1334 16.5814 2.36372 16.7714L7.61371 21.1015C7.91235 21.3478 8.32631 21.3997 8.67645 21.2346C9.02659 21.0695 9.25 20.7172 9.25 20.3301L9.25 11.6698C9.25 11.2827 9.02659 10.9304 8.67645 10.7653C8.32631 10.6002 7.91235 10.6521 7.61372 10.8984L2.36372 15.2285ZM7.25 13.7909L7.25 18.209L4.57162 15.9999L7.25 13.7909Z" fill="#212121"/>
</svg>
