<svg width="48" height="48" viewBox="0 0 48 48" fill="none" xmlns="http://www.w3.org/2000/svg">
<path fill-rule="evenodd" clip-rule="evenodd" d="M24 28.5C26.4853 28.5 28.5 26.4853 28.5 24C28.5 21.5147 26.4853 19.5 24 19.5C21.5147 19.5 19.5 21.5147 19.5 24C19.5 26.4853 21.5147 28.5 24 28.5ZM24 31C27.866 31 31 27.866 31 24C31 20.134 27.866 17 24 17C20.134 17 17 20.134 17 24C17 27.866 20.134 31 24 31Z" fill="#212121"/>
<path fill-rule="evenodd" clip-rule="evenodd" d="M24.9723 5.21423C24.735 4.92062 24.3777 4.75 24.0002 4.75C23.6227 4.75 23.2654 4.92062 23.028 5.21423L16.9659 12.7142C16.6631 13.0888 16.6025 13.604 16.81 14.0386C17.0176 14.4733 17.4564 14.75 17.938 14.75L30.0624 14.75C30.544 14.75 30.9828 14.4733 31.1903 14.0386C31.3979 13.604 31.3373 13.0888 31.0345 12.7142L24.9723 5.21423ZM27.4447 12.25L20.5556 12.25L24.0002 7.98849L27.4447 12.25Z" fill="#212121"/>
<path fill-rule="evenodd" clip-rule="evenodd" d="M23.0277 42.7858C23.265 43.0794 23.6223 43.25 23.9998 43.25C24.3773 43.25 24.7346 43.0794 24.972 42.7858L31.0341 35.2858C31.3369 34.9112 31.3975 34.396 31.19 33.9614C30.9824 33.5267 30.5436 33.25 30.062 33.25H17.9376C17.456 33.25 17.0172 33.5267 16.8097 33.9614C16.6021 34.396 16.6627 34.9112 16.9655 35.2858L23.0277 42.7858ZM20.5553 35.75H27.4444L23.9998 40.0115L20.5553 35.75Z" fill="#212121"/>
<path fill-rule="evenodd" clip-rule="evenodd" d="M43.25 24.0002C43.25 24.3777 43.0794 24.735 42.7858 24.9723L35.2858 31.0345C34.9112 31.3373 34.396 31.3979 33.9614 31.1903C33.5267 30.9828 33.25 30.544 33.25 30.0624L33.25 17.938C33.25 17.4564 33.5267 17.0176 33.9614 16.81C34.396 16.6025 34.9112 16.6631 35.2858 16.9659L42.7858 23.028C43.0794 23.2654 43.25 23.6227 43.25 24.0002ZM35.75 20.5556L35.75 27.4447L40.0115 24.0002L35.75 20.5556Z" fill="#212121"/>
<path fill-rule="evenodd" clip-rule="evenodd" d="M5.21423 23.0277C4.92062 23.265 4.75 23.6223 4.75 23.9998C4.75 24.3773 4.92062 24.7346 5.21423 24.972L12.7142 31.0341C13.0888 31.3369 13.604 31.3975 14.0386 31.19C14.4733 30.9824 14.75 30.5436 14.75 30.062L14.75 17.9376C14.75 17.456 14.4733 17.0172 14.0386 16.8097C13.604 16.6021 13.0888 16.6627 12.7142 16.9655L5.21423 23.0277ZM12.25 20.5553L12.25 27.4444L7.98849 23.9998L12.25 20.5553Z" fill="#212121"/>
</svg>
