<svg width="20" height="20" viewBox="0 0 20 20" fill="none" xmlns="http://www.w3.org/2000/svg">
<path fill-rule="evenodd" clip-rule="evenodd" d="M10.0001 2.5C10.1788 2.5 10.3438 2.5953 10.4331 2.75L12.1652 5.75C12.2545 5.9047 12.2545 6.0953 12.1652 6.25C12.0759 6.4047 11.9108 6.5 11.7322 6.5L8.26807 6.5C8.08943 6.5 7.92437 6.4047 7.83505 6.25C7.74574 6.0953 7.74574 5.9047 7.83505 5.75L9.5671 2.75C9.65642 2.5953 9.82148 2.5 10.0001 2.5ZM9.13409 5.5L10.8661 5.5L10.0001 4L9.13409 5.5Z" fill="#212121"/>
<path fill-rule="evenodd" clip-rule="evenodd" d="M10 12C11.1046 12 12 11.1046 12 10C12 8.89543 11.1046 8 10 8C8.89543 8 8 8.89543 8 10C8 11.1046 8.89543 12 10 12ZM10 11C10.5523 11 11 10.5523 11 10C11 9.44772 10.5523 9 10 9C9.44772 9 9 9.44772 9 10C9 10.5523 9.44772 11 10 11Z" fill="#212121"/>
<path fill-rule="evenodd" clip-rule="evenodd" d="M9.56687 17.25C9.65619 17.4047 9.82125 17.5 9.99988 17.5C10.1785 17.5 10.3436 17.4047 10.4329 17.25L12.1649 14.25C12.2543 14.0953 12.2543 13.9047 12.1649 13.75C12.0756 13.5953 11.9106 13.5 11.7319 13.5H8.26783C8.0892 13.5 7.92414 13.5953 7.83482 13.75C7.7455 13.9047 7.7455 14.0953 7.83482 14.25L9.56687 17.25ZM10.8659 14.5L9.99988 16L9.13386 14.5H10.8659Z" fill="#212121"/>
<path fill-rule="evenodd" clip-rule="evenodd" d="M17.5 10.0001C17.5 10.1788 17.4047 10.3438 17.25 10.4331L14.25 12.1652C14.0953 12.2545 13.9047 12.2545 13.75 12.1652C13.5953 12.0759 13.5 11.9108 13.5 11.7322L13.5 8.26807C13.5 8.08943 13.5953 7.92437 13.75 7.83505C13.9047 7.74574 14.0953 7.74574 14.25 7.83505L17.25 9.5671C17.4047 9.65642 17.5 9.82149 17.5 10.0001ZM16 10.0001L14.5 9.13409V10.8661L16 10.0001Z" fill="#212121"/>
<path fill-rule="evenodd" clip-rule="evenodd" d="M2.75 9.56687C2.5953 9.65619 2.5 9.82125 2.5 9.99988C2.5 10.1785 2.5953 10.3436 2.75 10.4329L5.75 12.1649C5.9047 12.2543 6.0953 12.2543 6.25 12.1649C6.4047 12.0756 6.5 11.9106 6.5 11.7319L6.5 8.26783C6.5 8.0892 6.4047 7.92414 6.25 7.83482C6.0953 7.7455 5.9047 7.7455 5.75 7.83482L2.75 9.56687ZM5.5 9.13386L5.5 10.8659L4 9.99988L5.5 9.13386Z" fill="#212121"/>
</svg>
