<svg width="28" height="28" viewBox="0 0 28 28" fill="none" xmlns="http://www.w3.org/2000/svg">
<path d="M14 18C16.2091 18 18 16.2091 18 14C18 11.7909 16.2091 10 14 10C11.7909 10 10 11.7909 10 14C10 16.2091 11.7909 18 14 18Z" fill="#212121"/>
<path d="M14.5945 2.5425C14.4526 2.35807 14.233 2.25 14.0002 2.25C13.7675 2.25 13.5479 2.35807 13.4059 2.5425L9.94183 7.0425C9.76751 7.26895 9.73703 7.57479 9.86322 7.83119C9.98942 8.08759 10.2504 8.25 10.5361 8.25L17.4643 8.25C17.7501 8.25 18.0111 8.0876 18.1373 7.83119C18.2635 7.57479 18.233 7.26895 18.0586 7.0425L14.5945 2.5425Z" fill="#212121"/>
<path d="M13.4055 25.4575C13.5474 25.6419 13.767 25.75 13.9998 25.75C14.2325 25.75 14.4521 25.6419 14.5941 25.4575L18.0582 20.9575C18.2325 20.731 18.263 20.4252 18.1368 20.1688C18.0106 19.9124 17.7496 19.75 17.4639 19.75H10.5357C10.2499 19.75 9.98894 19.9124 9.86275 20.1688C9.73655 20.4252 9.76703 20.731 9.94135 20.9575L13.4055 25.4575Z" fill="#212121"/>
<path d="M25.4575 14.5945C25.6419 14.4526 25.75 14.233 25.75 14.0002C25.75 13.7675 25.6419 13.5479 25.4575 13.4059L20.9575 9.94183C20.731 9.76751 20.4252 9.73703 20.1688 9.86322C19.9124 9.98942 19.75 10.2504 19.75 10.5361L19.75 17.4643C19.75 17.7501 19.9124 18.0111 20.1688 18.1373C20.4252 18.2634 20.731 18.233 20.9575 18.0586L25.4575 14.5945Z" fill="#212121"/>
<path d="M2.5425 13.4055C2.35807 13.5474 2.25 13.767 2.25 13.9998C2.25 14.2325 2.35807 14.4521 2.5425 14.5941L7.0425 18.0582C7.26895 18.2325 7.57479 18.263 7.83119 18.1368C8.08759 18.0106 8.25 17.7496 8.25 17.4639L8.25 10.5357C8.25 10.2499 8.0876 9.98894 7.83119 9.86275C7.57479 9.73655 7.26895 9.76703 7.0425 9.94135L2.5425 13.4055Z" fill="#212121"/>
</svg>
