<svg width="20" height="20" viewBox="0 0 20 20" fill="none" xmlns="http://www.w3.org/2000/svg">
<path d="M9.41251 4.65039C10.1508 4.65039 10.725 4.07617 10.725 3.33789C10.725 2.62695 10.1508 2.02539 9.41251 2.02539C8.70157 2.02539 8.10001 2.62695 8.10001 3.33789C8.10001 4.07617 8.70157 4.65039 9.41251 4.65039ZM5.74844 12.5801C5.66641 12.7988 5.52969 13.0176 5.36563 13.1816L3.99844 14.5488C3.83438 14.7129 3.72501 14.9316 3.72501 15.1504C3.75235 15.8613 4.35391 16.0254 4.60001 16.0254C4.8461 16.0254 5.06485 15.9434 5.22891 15.7793L6.84219 14.166C7.0336 14.002 7.14297 13.7832 7.25235 13.5645L7.60782 12.6348C6.10391 10.9941 6.54141 11.5137 6.32266 11.1855L5.74844 12.5801ZM12.5023 9.51758C12.5023 9.2168 12.3109 8.88867 12.0102 8.75195L11.3813 8.42383L11.1078 7.60352C10.9438 7.16602 10.2055 5.55273 8.29141 5.55273C7.30704 5.55273 6.78751 5.82617 5.74844 6.23633C5.17422 6.45508 4.68204 6.91992 4.4086 7.49414L4.21719 7.84961C4.16251 7.98633 4.13516 8.12305 4.13516 8.25977C4.13516 8.72461 4.51797 9.13477 4.98282 9.13477C5.31094 9.13477 5.61172 8.94336 5.77579 8.64258L5.93985 8.28711C6.04922 8.0957 6.21329 7.93164 6.40469 7.84961L7.14297 7.54883L6.73282 9.2168C6.67813 9.35352 6.67813 9.49023 6.67813 9.62695C6.67813 10.0645 6.84219 10.502 7.14297 10.8301L8.75626 12.6074C8.97501 12.8262 9.11172 13.0996 9.16641 13.373L9.68594 15.3691C9.76797 15.7793 10.1234 16.0254 10.5336 16.0254C11.0531 16.0254 11.4086 15.5879 11.4086 15.1504C11.4086 15.0957 11.3813 15.0137 11.3813 14.959L10.7523 12.5254C10.6977 12.2246 10.5609 11.9785 10.3695 11.7598L9.11172 10.3926L9.57657 8.5332L9.74063 8.9707C9.87735 9.4082 10.1781 9.76367 10.5883 9.98242L11.2445 10.3105C11.3539 10.3652 11.4906 10.3926 11.6273 10.3926C12.0648 10.3926 12.5023 10.0371 12.5023 9.51758Z" fill="#212121"/>
<path fill-rule="evenodd" clip-rule="evenodd" d="M16.0404 9.70996L15.1078 8.77832L13.5297 10.5039L14.472 11.4463L16.0404 9.70996Z" fill="#212121"/>
<path fill-rule="evenodd" clip-rule="evenodd" d="M13.8002 12.1885L12.0404 14.1348C11.8569 13.6543 11.6936 13.1672 11.5453 12.6748L12.8549 11.2432L13.8002 12.1885Z" fill="#212121"/>
<path d="M8.76697 15.6299L7.5531 17.0732C7.3109 17.3377 7.32542 17.7383 7.59314 17.9912C7.86085 18.2441 8.25257 18.2318 8.51013 17.9512L9.56384 16.8232C9.28784 16.4322 9.03346 16.0273 8.76697 15.6299Z" fill="#212121"/>
<path fill-rule="evenodd" clip-rule="evenodd" d="M17.015 6.69238C17.2577 6.42872 17.6687 6.41126 17.933 6.65332C18.1972 6.89552 18.2154 7.30662 17.974 7.57129L16.7123 8.96777L15.7836 8.03906L17.015 6.69238Z" fill="#212121"/>
</svg>
