<svg width="16" height="16" viewBox="0 0 16 16" fill="none" xmlns="http://www.w3.org/2000/svg">
<path d="M4.24573 9.31399L3.76792 10.5324C3.74403 10.6519 3.67235 10.7713 3.5529 10.843L2.16724 12.2526C2.04778 12.3481 2 12.5154 2 12.6587C2 12.8259 2.11945 13.2321 2.54949 13.2321C2.71672 13.2321 2.86007 13.1604 2.95563 13.0648L4.36519 11.6553C4.55631 11.4642 4.69966 11.2252 4.81911 10.9625L5.15358 10.1502L4.26962 9.36177L4.24573 9.31399ZM6.94539 3.29351C7.59044 3.29351 8.09215 2.79181 8.09215 2.14676C8.09215 1.5256 7.59044 1 6.94539 1C6.32423 1 5.79863 1.5256 5.79863 2.14676C5.79863 2.79181 6.32423 3.29351 6.94539 3.29351ZM9.02389 8.47781C9.33447 8.47781 9.64505 8.19112 9.64505 7.88054C9.64505 7.7372 9.57337 7.61774 9.45392 7.4744L8.76109 6.78157C8.7372 6.78157 8.71331 6.73378 8.7372 6.70989L8.45051 5.77815C8.09215 4.75085 7.13652 4.05802 6.06143 4.05802C5.22525 4.05802 4.81911 4.27304 3.76792 4.67918C3.21843 4.8942 2.81229 5.25256 2.57338 5.75426L2.23891 6.49488C2.19113 6.59044 2.16724 6.686 2.16724 6.75768C2.16724 7.09215 2.47782 7.30716 2.7645 7.30716C2.97952 7.30716 3.17065 7.2116 3.26621 6.97269L3.60068 6.25597C3.74403 5.96928 3.93515 5.75426 5.17747 5.34812L4.72355 7.23549C4.69966 7.35494 4.69966 7.45051 4.69966 7.56996C4.69966 7.92832 4.81911 8.26279 5.08191 8.54948L6.96928 10.2935C7.08873 10.413 7.1843 10.5802 7.23208 10.7713L7.70989 12.802C7.78157 13.0409 7.99658 13.2321 8.28327 13.2321C8.61774 13.2321 8.85665 12.9693 8.85665 12.6826C8.85665 12.6348 8.85665 12.587 8.83276 12.5392L8.37884 10.5085C8.30716 10.1024 8.09215 9.74402 7.78157 9.45733L6.49146 8.26279L7.11262 5.75426C7.51877 6.27986 7.47099 7.11604 7.97269 7.61774L8.66552 8.31058C8.76109 8.43003 8.90443 8.47781 9.02389 8.47781Z" fill="#212121"/>
<path d="M6.77551 13.1265C6.93909 13.3716 7.13793 13.6894 7.31531 13.9399L6.46738 14.8488C6.30433 15.0265 6.02822 15.0383 5.85042 14.8753C5.67282 14.7122 5.66099 14.4361 5.82394 14.2583L6.77551 13.1265Z" fill="#212121"/>
<path fill-rule="evenodd" clip-rule="evenodd" d="M14.7074 5.16241C14.8852 5.32535 14.8973 5.60205 14.7346 5.77991L13.7243 6.89757L13.0995 6.27269L14.0905 5.18889C14.2535 5.01153 14.5297 4.99966 14.7074 5.16241ZM12.3323 7.11163L12.9618 7.74115L11.767 9.06304L11.1302 8.42627L12.3323 7.11163ZM10.3631 9.26521L9.3617 10.3604C9.44018 10.6231 9.62068 11.166 9.69388 11.3566L11.0045 9.90661L10.3631 9.26521Z" fill="#212121"/>
<path d="M4.24573 9.31399L3.76792 10.5324C3.74403 10.6519 3.67235 10.7713 3.5529 10.843L2.16724 12.2526C2.04778 12.3481 2 12.5154 2 12.6587C2 12.8259 2.11945 13.2321 2.54949 13.2321C2.71672 13.2321 2.86007 13.1604 2.95563 13.0648L4.36519 11.6553C4.55631 11.4642 4.69966 11.2252 4.81911 10.9625L5.15358 10.1502L4.26962 9.36177L4.24573 9.31399ZM6.94539 3.29351C7.59044 3.29351 8.09215 2.79181 8.09215 2.14676C8.09215 1.5256 7.59044 1 6.94539 1C6.32423 1 5.79863 1.5256 5.79863 2.14676C5.79863 2.79181 6.32423 3.29351 6.94539 3.29351ZM9.02389 8.47781C9.33447 8.47781 9.64505 8.19112 9.64505 7.88054C9.64505 7.7372 9.57337 7.61774 9.45392 7.4744L8.76109 6.78157C8.7372 6.78157 8.71331 6.73378 8.7372 6.70989L8.45051 5.77815C8.09215 4.75085 7.13652 4.05802 6.06143 4.05802C5.22525 4.05802 4.81911 4.27304 3.76792 4.67918C3.21843 4.8942 2.81229 5.25256 2.57338 5.75426L2.23891 6.49488C2.19113 6.59044 2.16724 6.686 2.16724 6.75768C2.16724 7.09215 2.47782 7.30716 2.7645 7.30716C2.97952 7.30716 3.17065 7.2116 3.26621 6.97269L3.60068 6.25597C3.74403 5.96928 3.93515 5.75426 5.17747 5.34812L4.72355 7.23549C4.69966 7.35494 4.69966 7.45051 4.69966 7.56996C4.69966 7.92832 4.81911 8.26279 5.08191 8.54948L6.96928 10.2935C7.08873 10.413 7.1843 10.5802 7.23208 10.7713L7.70989 12.802C7.78157 13.0409 7.99658 13.2321 8.28327 13.2321C8.61774 13.2321 8.85665 12.9693 8.85665 12.6826C8.85665 12.6348 8.85665 12.587 8.83276 12.5392L8.37884 10.5085C8.30716 10.1024 8.09215 9.74402 7.78157 9.45733L6.49146 8.26279L7.11262 5.75426C7.51877 6.27986 7.47099 7.11604 7.97269 7.61774L8.66552 8.31058C8.76109 8.43003 8.90443 8.47781 9.02389 8.47781Z" stroke="#212121"/>
<path d="M6.77551 13.1265C6.93909 13.3716 7.13793 13.6894 7.31531 13.9399L6.46738 14.8488C6.30433 15.0265 6.02822 15.0383 5.85042 14.8753C5.67282 14.7122 5.66099 14.4361 5.82394 14.2583L6.77551 13.1265Z" stroke="#212121"/>
<path fill-rule="evenodd" clip-rule="evenodd" d="M14.7074 5.16241C14.8852 5.32535 14.8973 5.60205 14.7346 5.77991L13.7243 6.89757L13.0995 6.27269L14.0905 5.18889C14.2535 5.01153 14.5297 4.99966 14.7074 5.16241ZM12.3323 7.11163L12.9618 7.74115L11.767 9.06304L11.1302 8.42627L12.3323 7.11163ZM10.3631 9.26521L9.3617 10.3604C9.44018 10.6231 9.62068 11.166 9.69388 11.3566L11.0045 9.90661L10.3631 9.26521Z" stroke="#212121"/>
</svg>
