<svg width="16" height="16" viewBox="0 0 16 16" fill="none" xmlns="http://www.w3.org/2000/svg">
<path d="M4.51865 7.64995C4.51865 8.05623 4.67128 8.46618 4.95113 8.77207L6.33993 10.3025C6.50879 10.4714 6.6162 10.69 6.65842 10.9009L7.10431 12.6141C7.19137 13.0309 7.55552 13.2737 7.9567 13.2737C8.48139 13.2737 8.83675 12.8323 8.83675 12.3937C8.83675 12.3571 8.8286 12.3167 8.82346 12.2912C8.81673 12.2575 8.81328 12.2373 8.81328 12.2294V12.2126L8.80909 12.1975L8.26933 10.1089C8.21642 9.82783 8.0852 9.59608 7.9106 9.39648L6.87801 8.27337L7.15963 7.14691C7.29008 7.54726 7.5709 7.87311 7.9458 8.07306L8.50903 8.35467C8.62442 8.41237 8.7626 8.43933 8.89542 8.43933C9.33405 8.43933 9.77546 8.08397 9.77546 7.55928C9.77546 7.25343 9.58335 6.9242 9.27677 6.78484L8.78981 6.53088L8.57022 5.87127L8.49059 5.68185C8.2437 5.14571 7.54665 4.02736 6.03233 4.02736C5.27926 4.02736 4.82753 4.21006 4.15385 4.48252L4.14568 4.48582C4.03826 4.52927 3.92502 4.57455 3.80372 4.62244C3.28037 4.82184 2.83544 5.24311 2.58674 5.76147L2.42246 6.06655L2.41576 6.07996C2.36325 6.21128 2.33614 6.34486 2.33614 6.47976C2.33614 6.94448 2.71744 7.3598 3.19271 7.3598C3.52583 7.3598 3.82526 7.16562 3.98643 6.87033L3.98978 6.86195L4.12556 6.56692C4.20884 6.42119 4.3303 6.30209 4.46333 6.24508L4.86145 6.08332L4.56978 7.26845C4.51864 7.40573 4.51865 7.5403 4.51865 7.64995Z" fill="#212121"/>
<path fill-rule="evenodd" clip-rule="evenodd" d="M4.44992 8.91958C4.49201 8.98272 4.51156 9.01813 4.52096 9.03516L4.52619 9.04446C4.53405 9.05751 4.54282 9.06825 4.68544 9.22131C4.82135 9.36717 5.07026 9.63464 5.54034 10.1475L5.59398 10.2061L5.2604 11.0786L5.2533 11.0945C5.16308 11.275 5.06007 11.481 4.87905 11.6393L3.49528 13.0248C3.32735 13.1927 3.10505 13.2737 2.86416 13.2737C2.73672 13.2737 2.52801 13.2326 2.34452 13.1036C2.15472 12.97 1.99832 12.7456 1.98495 12.3987C1.98495 12.1691 2.09764 11.9449 2.25651 11.786L3.42991 10.6126C3.5568 10.4857 3.6647 10.3142 3.72912 10.1424L4.31582 8.71843L4.44992 8.91958Z" fill="#212121"/>
<path fill-rule="evenodd" clip-rule="evenodd" d="M6.99451 3.51107C7.69925 3.51107 8.25005 2.96027 8.25005 2.25553C8.25005 1.57602 7.70099 1 6.99451 1C6.31325 1 5.73898 1.57427 5.73898 2.25553C5.73898 2.96201 6.315 3.51107 6.99451 3.51107Z" fill="#212121"/>
<path fill-rule="evenodd" clip-rule="evenodd" d="M12.683 7.72439L11.3361 9.21461L10.5281 8.4058L11.8825 6.92481L12.683 7.72439Z" fill="#212121"/>
<path fill-rule="evenodd" clip-rule="evenodd" d="M14.3073 5.10102C14.0804 4.89327 13.7277 4.90827 13.5194 5.13454L12.4625 6.29034L13.2588 7.08741L14.3425 5.88887C14.5497 5.66171 14.534 5.30889 14.3073 5.10102Z" fill="#212121"/>
<path fill-rule="evenodd" clip-rule="evenodd" d="M10.7603 9.85159L10.6781 9.94295L9.24995 11.522C9.09243 11.1096 8.95231 10.6916 8.82501 10.269L9.8576 9.13917L9.94896 9.04027L10.7603 9.85159Z" fill="#212121"/>
<path d="M6.4405 12.8052L6.32987 12.9359L5.3987 14.044C5.19081 14.2709 5.20629 14.6236 5.43306 14.8318L5.52358 14.8997C5.74592 15.0329 6.03788 14.9959 6.22007 14.7975L7.12443 13.8294C6.88755 13.4938 6.66922 13.1463 6.4405 12.8052Z" fill="#212121"/>
</svg>
