<svg width="20" height="20" viewBox="0 0 20 20" fill="none" xmlns="http://www.w3.org/2000/svg">
<path d="M5.85776 11.5156L5.31088 12.9102C5.28354 13.0469 5.20151 13.1836 5.06479 13.2656L3.47885 14.8789C3.34213 14.9883 3.28745 15.1797 3.28745 15.3438C3.28745 15.5352 3.42416 16 3.91635 16C4.10776 16 4.27182 15.918 4.3812 15.8086L5.99448 14.1953C6.21323 13.9766 6.37729 13.7031 6.51401 13.4023L6.89682 12.4727L5.8851 11.5703L5.85776 11.5156ZM8.9476 4.625C9.68588 4.625 10.2601 4.05078 10.2601 3.3125C10.2601 2.60156 9.68588 2 8.9476 2C8.23666 2 7.6351 2.60156 7.6351 3.3125C7.6351 4.05078 8.23666 4.625 8.9476 4.625ZM11.3265 10.5586C11.682 10.5586 12.0374 10.2305 12.0374 9.875C12.0374 9.71094 11.9554 9.57422 11.8187 9.41016L11.0257 8.61719C10.9984 8.61719 10.971 8.5625 10.9984 8.53516L10.6703 7.46875C10.2601 6.29297 9.16635 5.5 7.93588 5.5C6.97885 5.5 6.51401 5.74609 5.31088 6.21094C4.68198 6.45703 4.21713 6.86719 3.9437 7.44141L3.56088 8.28906C3.5062 8.39844 3.47885 8.50781 3.47885 8.58984C3.47885 8.97266 3.83432 9.21875 4.16245 9.21875C4.40854 9.21875 4.62729 9.10938 4.73666 8.83594L5.11948 8.01562C5.28354 7.6875 5.50229 7.44141 6.92416 6.97656L6.40463 9.13672C6.37729 9.27344 6.37729 9.38281 6.37729 9.51953C6.37729 9.92969 6.51401 10.3125 6.81479 10.6406L8.97495 12.6367C9.11166 12.7734 9.22104 12.9648 9.27573 13.1836L9.8226 15.5078C9.90463 15.7812 10.1507 16 10.4789 16C10.8617 16 11.1351 15.6992 11.1351 15.3711C11.1351 15.3164 11.1351 15.2617 11.1078 15.207L10.5882 12.8828C10.5062 12.418 10.2601 12.0078 9.90463 11.6797L8.42807 10.3125L9.13901 7.44141C9.60385 8.04297 9.54916 9 10.1234 9.57422L10.9164 10.3672C11.0257 10.5039 11.1898 10.5586 11.3265 10.5586Z" fill="#212121"/>
<path d="M8.75317 15.8791C8.94039 16.1597 9.16797 16.5234 9.37098 16.8101L8.40051 17.8504C8.21389 18.0538 7.89787 18.0672 7.69437 17.8807C7.49111 17.6941 7.47756 17.378 7.66406 17.1746L8.75317 15.8791Z" fill="#212121"/>
<path fill-rule="evenodd" clip-rule="evenodd" d="M17.8315 6.76401C18.035 6.9505 18.0488 7.26719 17.8626 7.47076L16.7063 8.74996L15.9911 8.03476L17.1254 6.79432C17.312 6.59133 17.6281 6.57774 17.8315 6.76401ZM15.1131 8.99496L15.8336 9.71546L14.4661 11.2284L13.7373 10.4996L15.1131 8.99496ZM12.8593 11.4598L11.7131 12.7132C11.803 13.0139 12.0096 13.6353 12.0933 13.8534L13.5934 12.1939L12.8593 11.4598Z" fill="#212121"/>
<path d="M5.85776 11.5156L5.31088 12.9102C5.28354 13.0469 5.20151 13.1836 5.06479 13.2656L3.47885 14.8789C3.34213 14.9883 3.28745 15.1797 3.28745 15.3438C3.28745 15.5352 3.42416 16 3.91635 16C4.10776 16 4.27182 15.918 4.3812 15.8086L5.99448 14.1953C6.21323 13.9766 6.37729 13.7031 6.51401 13.4023L6.89682 12.4727L5.8851 11.5703L5.85776 11.5156ZM8.9476 4.625C9.68588 4.625 10.2601 4.05078 10.2601 3.3125C10.2601 2.60156 9.68588 2 8.9476 2C8.23666 2 7.6351 2.60156 7.6351 3.3125C7.6351 4.05078 8.23666 4.625 8.9476 4.625ZM11.3265 10.5586C11.682 10.5586 12.0374 10.2305 12.0374 9.875C12.0374 9.71094 11.9554 9.57422 11.8187 9.41016L11.0257 8.61719C10.9984 8.61719 10.971 8.5625 10.9984 8.53516L10.6703 7.46875C10.2601 6.29297 9.16635 5.5 7.93588 5.5C6.97885 5.5 6.51401 5.74609 5.31088 6.21094C4.68198 6.45703 4.21713 6.86719 3.9437 7.44141L3.56088 8.28906C3.5062 8.39844 3.47885 8.50781 3.47885 8.58984C3.47885 8.97266 3.83432 9.21875 4.16245 9.21875C4.40854 9.21875 4.62729 9.10938 4.73666 8.83594L5.11948 8.01562C5.28354 7.6875 5.50229 7.44141 6.92416 6.97656L6.40463 9.13672C6.37729 9.27344 6.37729 9.38281 6.37729 9.51953C6.37729 9.92969 6.51401 10.3125 6.81479 10.6406L8.97495 12.6367C9.11166 12.7734 9.22104 12.9648 9.27573 13.1836L9.8226 15.5078C9.90463 15.7812 10.1507 16 10.4789 16C10.8617 16 11.1351 15.6992 11.1351 15.3711C11.1351 15.3164 11.1351 15.2617 11.1078 15.207L10.5882 12.8828C10.5062 12.418 10.2601 12.0078 9.90463 11.6797L8.42807 10.3125L9.13901 7.44141C9.60385 8.04297 9.54916 9 10.1234 9.57422L10.9164 10.3672C11.0257 10.5039 11.1898 10.5586 11.3265 10.5586Z" stroke="#212121"/>
<path d="M8.75317 15.8791C8.94039 16.1597 9.16797 16.5234 9.37098 16.8101L8.40051 17.8504C8.21389 18.0538 7.89787 18.0672 7.69437 17.8807C7.49111 17.6941 7.47756 17.378 7.66406 17.1746L8.75317 15.8791Z" stroke="#212121"/>
<path fill-rule="evenodd" clip-rule="evenodd" d="M17.8315 6.76401C18.035 6.9505 18.0488 7.26719 17.8626 7.47076L16.7063 8.74996L15.9911 8.03476L17.1254 6.79432C17.312 6.59133 17.6281 6.57774 17.8315 6.76401ZM15.1131 8.99496L15.8336 9.71546L14.4661 11.2284L13.7373 10.4996L15.1131 8.99496ZM12.8593 11.4598L11.7131 12.7132C11.803 13.0139 12.0096 13.6353 12.0933 13.8534L13.5934 12.1939L12.8593 11.4598Z" stroke="#212121"/>
</svg>
