<svg width="20" height="20" viewBox="0 0 20 20" fill="none" xmlns="http://www.w3.org/2000/svg">
<path fill-rule="evenodd" clip-rule="evenodd" d="M3 6C3 4.34315 4.34315 3 6 3H7.5C7.77614 3 8 3.22386 8 3.5C8 3.77614 7.77614 4 7.5 4H6C4.89543 4 4 4.89543 4 6V7.5C4 7.77614 3.77614 8 3.5 8C3.22386 8 3 7.77614 3 7.5V6ZM12 3.5C12 3.22386 12.2239 3 12.5 3H14C15.6569 3 17 4.34315 17 6V7.5C17 7.77614 16.7761 8 16.5 8C16.2239 8 16 7.77614 16 7.5V6C16 4.89543 15.1046 4 14 4H12.5C12.2239 4 12 3.77614 12 3.5ZM3.5 12C3.77614 12 4 12.2239 4 12.5V14C4 15.1046 4.89543 16 6 16H7.5C7.77614 16 8 16.2239 8 16.5C8 16.7761 7.77614 17 7.5 17H6C4.34315 17 3 15.6569 3 14V12.5C3 12.2239 3.22386 12 3.5 12ZM16.5 12C16.7761 12 17 12.2239 17 12.5V14C17 15.6569 15.6569 17 14 17H12.5C12.2239 17 12 16.7761 12 16.5C12 16.2239 12.2239 16 12.5 16H14C15.1046 16 16 15.1046 16 14V12.5C16 12.2239 16.2239 12 16.5 12ZM7.36216 7.01942C7.57657 6.95793 7.80578 7.04589 7.924 7.23504L10 10.5566L12.076 7.23504C12.1942 7.04589 12.4234 6.95793 12.6378 7.01942C12.8523 7.08091 13 7.27699 13 7.50004V12.5C13 12.7762 12.7761 13 12.5 13C12.2239 13 12 12.7762 12 12.5V9.24344L10.424 11.765C10.3326 11.9112 10.1724 12 10 12C9.82761 12 9.66737 11.9112 9.576 11.765L8 9.24344V12.5C8 12.7762 7.77614 13 7.5 13C7.22386 13 7 12.7762 7 12.5V7.50004C7 7.27699 7.14775 7.08091 7.36216 7.01942Z" fill="#212121"/>
</svg>
