<svg width="24" height="24" viewBox="0 0 24 24" fill="none" xmlns="http://www.w3.org/2000/svg">
<path fill-rule="evenodd" clip-rule="evenodd" d="M3 6.25C3 4.45507 4.45507 3 6.25 3H8.25C8.66421 3 9 3.33579 9 3.75C9 4.16421 8.66421 4.5 8.25 4.5H6.25C5.2835 4.5 4.5 5.2835 4.5 6.25V8.25C4.5 8.66421 4.16421 9 3.75 9C3.33579 9 3 8.66421 3 8.25V6.25ZM15 3.75C15 3.33579 15.3358 3 15.75 3H17.75C19.5449 3 21 4.45507 21 6.25V8.25C21 8.66421 20.6642 9 20.25 9C19.8358 9 19.5 8.66421 19.5 8.25V6.25C19.5 5.2835 18.7165 4.5 17.75 4.5H15.75C15.3358 4.5 15 4.16421 15 3.75ZM3.75 15C4.16421 15 4.5 15.3358 4.5 15.75V17.75C4.5 18.7165 5.2835 19.5 6.25 19.5H8.25C8.66421 19.5 9 19.8358 9 20.25C9 20.6642 8.66421 21 8.25 21H6.25C4.45507 21 3 19.5449 3 17.75V15.75C3 15.3358 3.33579 15 3.75 15ZM20.25 15C20.6642 15 21 15.3358 21 15.75V17.75C21 19.5449 19.5449 21 17.75 21H15.75C15.3358 21 15 20.6642 15 20.25C15 19.8358 15.3358 19.5 15.75 19.5H17.75C18.7165 19.5 19.5 18.7165 19.5 17.75V15.75C19.5 15.3358 19.8358 15 20.25 15ZM7.99468 8.04483C8.29159 7.93734 8.62402 8.02732 8.82617 8.2699L12 12.0785L15.1738 8.2699C15.376 8.02732 15.7084 7.93734 16.0053 8.04483C16.3022 8.15233 16.5 8.43427 16.5 8.75004V15.25C16.5 15.6643 16.1642 16 15.75 16C15.3358 16 15 15.6643 15 15.25V10.8216L12.5762 13.7302C12.4337 13.9012 12.2226 14 12 14C11.7774 14 11.5663 13.9012 11.4238 13.7302L9 10.8216V15.25C9 15.6643 8.66421 16 8.25 16C7.83579 16 7.5 15.6643 7.5 15.25V8.75004C7.5 8.43427 7.69778 8.15233 7.99468 8.04483Z" fill="#212121"/>
</svg>
