<svg width="24" height="24" viewBox="0 0 24 24" fill="none" xmlns="http://www.w3.org/2000/svg">
<path fill-rule="evenodd" clip-rule="evenodd" d="M3 6.5C3 4.567 4.567 3 6.5 3H8.36364C8.91592 3 9.36364 3.44772 9.36364 4C9.36364 4.55228 8.91592 5 8.36364 5H6.5C5.67157 5 5 5.67157 5 6.5V8.36364C5 8.91592 4.55228 9.36364 4 9.36364C3.44772 9.36364 3 8.91592 3 8.36364V6.5ZM14.6364 4C14.6364 3.44772 15.0841 3 15.6364 3H17.5C19.433 3 21 4.567 21 6.5V8.36364C21 8.91592 20.5523 9.36364 20 9.36364C19.4477 9.36364 19 8.91592 19 8.36364V6.5C19 5.67157 18.3284 5 17.5 5H15.6364C15.0841 5 14.6364 4.55228 14.6364 4ZM4 14.6364C4.55228 14.6364 5 15.0841 5 15.6364V17.5C5 18.3284 5.67157 19 6.5 19H8.36364C8.91592 19 9.36364 19.4477 9.36364 20C9.36364 20.5523 8.91592 21 8.36364 21H6.5C4.567 21 3 19.433 3 17.5V15.6364C3 15.0841 3.44772 14.6364 4 14.6364ZM20 14.6364C20.5523 14.6364 21 15.0841 21 15.6364V17.5C21 19.433 19.433 21 17.5 21H15.6364C15.0841 21 14.6364 20.5523 14.6364 20C14.6364 19.4477 15.0841 19 15.6364 19H17.5C18.3284 19 19 18.3284 19 17.5V15.6364C19 15.0841 19.4477 14.6364 20 14.6364ZM15 16V11.1302L12.7549 13.656C12.3531 14.108 11.6469 14.1079 11.2451 13.656L9 11.1302V16C9 16.5523 8.55228 17 8 17C7.44772 17 7 16.5523 7 16V8.52632C7 7.59755 8.14792 7.16122 8.76488 7.85531L12 11.4948L15.2351 7.85531C15.8522 7.16114 17 7.59766 17 8.52632V16C17 16.5523 16.5523 17 16 17C15.4477 17 15 16.5523 15 16Z" fill="#212121"/>
</svg>
