<svg width="24" height="24" viewBox="0 0 24 24" fill="none" xmlns="http://www.w3.org/2000/svg">
<path d="M13.7982 6.5964C14.7913 6.5964 15.5964 5.79132 15.5964 4.7982C15.5964 3.80508 14.7913 3 13.7982 3C12.8051 3 12 3.80508 12 4.7982C12 5.79132 12.8051 6.5964 13.7982 6.5964Z" fill="#212121"/>
<path d="M15.6912 11.3273C15.6912 11.3273 15.6916 11.3283 15.694 11.3313L15.6963 11.3342C15.6934 11.33 15.6912 11.3273 15.6912 11.3273Z" fill="#212121"/>
<path d="M9.72911 15.2858L8.57351 17.597L6.8424 19.2553C6.44358 19.6374 6.42999 20.2704 6.81205 20.6692C7.1941 21.0681 7.82712 21.0816 8.22593 20.6996L10.0822 18.9214C10.165 18.842 10.2336 18.749 10.2849 18.6464L11.2232 16.7697C11.0102 16.583 10.7872 16.393 10.5695 16.2101C10.24 15.9333 9.9567 15.6269 9.72911 15.2858Z" fill="#212121"/>
<path d="M8.55686 12.5003L9.46403 10.5068L9.64404 10.3897C9.89854 10.2241 10.1285 10.0744 10.3431 9.94388C10.1217 10.7864 9.94044 11.5979 9.87788 11.9732C9.67512 13.1897 10.4049 14.1579 11.0155 14.7685C11.5206 15.2736 12.1451 15.7261 12.5838 16.0439C12.665 16.1028 12.7399 16.157 12.8064 16.2061C12.9499 16.3381 13.0906 16.4705 13.2227 16.5986C13.4421 16.8112 13.6259 17.0005 13.7566 17.1499C13.8139 17.2154 13.8532 17.2645 13.878 17.2979C14.0605 17.8829 14.3418 19.1906 14.5071 20.0995C14.6059 20.6429 15.1265 21.0033 15.6698 20.9045C16.2132 20.8057 16.5736 20.2851 16.4748 19.7417C16.3035 18.7993 15.9837 17.2883 15.7524 16.5941C15.6888 16.4034 15.584 16.2459 15.5189 16.1542C15.4421 16.0459 15.3526 15.9368 15.262 15.8332C15.08 15.6251 14.8525 15.393 14.6148 15.1625C14.4396 14.9927 14.2525 14.8177 14.0638 14.6457L14.0686 14.6394C14.037 14.6157 14.0061 14.5912 13.9759 14.5658C13.9395 14.5329 13.9032 14.5002 13.8669 14.4677C13.3762 13.9937 13.11 13.2701 13.2713 12.302C13.315 12.04 13.4383 11.4792 13.5956 10.8514C13.6551 11.0922 13.7062 11.3539 13.7621 11.6408C13.7816 11.7411 13.8018 11.8444 13.8231 11.951C13.8794 12.2326 14.0252 12.4432 14.1143 12.5579C14.2158 12.6886 14.3326 12.8057 14.4393 12.9037C14.6525 13.0995 14.9128 13.2978 15.1455 13.4698C15.2463 13.5443 15.3399 13.6124 15.4285 13.6769C15.5633 13.775 15.6864 13.8647 15.8059 13.9555C15.9917 14.0969 16.0668 14.1671 16.0821 14.1814L16.085 14.184C16.43 14.6153 17.0593 14.6852 17.4906 14.3402C17.9218 13.9952 17.9917 13.3659 17.6467 12.9346C17.4718 12.716 17.206 12.5078 17.0169 12.3639C16.8847 12.2633 16.7271 12.1485 16.5767 12.0389L16.5758 12.0382C16.491 11.9764 16.4086 11.9163 16.3341 11.8613C16.1056 11.6924 15.9203 11.5484 15.7921 11.4307C15.7766 11.4164 15.7632 11.4037 15.7517 11.3925L15.7342 11.301C15.6274 10.744 15.4884 10.0188 15.2126 9.39043C14.8648 8.59834 14.2504 7.83291 13.1396 7.53272C11.1323 6.99025 9.70685 7.94052 8.5708 8.69789C8.44118 8.7843 8.31533 8.8682 8.19281 8.94709C8.07728 9.02147 7.97833 9.11886 7.90211 9.23318C7.59005 9.70127 7.28166 10.3644 7.06676 10.8601C6.95495 11.1181 6.86026 11.3501 6.79349 11.5177C6.76003 11.6017 6.7334 11.6699 6.71493 11.7177L6.69349 11.7736L6.68764 11.7889L6.68526 11.7952C6.4906 12.3121 6.75173 12.889 7.26857 13.0836C7.78538 13.2783 8.36217 13.0171 8.55686 12.5003ZM15.6912 11.3273C15.6912 11.3273 15.6916 11.3283 15.694 11.3313L15.6963 11.3342C15.6934 11.33 15.6912 11.3273 15.6912 11.3273Z" fill="#212121"/>
</svg>
