<svg width="32" height="32" viewBox="0 0 32 32" fill="none" xmlns="http://www.w3.org/2000/svg">
<path d="M18.7345 8.46901C20.2447 8.46901 21.469 7.24473 21.469 5.7345C21.469 4.22428 20.2447 3 18.7345 3C17.2243 3 16 4.22428 16 5.7345C16 7.24473 17.2243 8.46901 18.7345 8.46901Z" fill="#212121"/>
<path d="M11.3573 15.4463C11.6434 14.8789 11.9776 14.2502 12.2699 13.7796L12.4579 13.6579C12.9991 13.3072 13.475 12.9988 13.9163 12.7507C13.5571 14.0739 13.2526 15.4203 13.1551 16.0056C12.8816 17.6465 13.8639 18.967 14.7224 19.8254C15.4284 20.5315 16.2991 21.1625 16.9222 21.614C17.0424 21.7011 17.1535 21.7816 17.2523 21.8546C17.4594 22.0451 17.6626 22.2361 17.8533 22.421C18.1662 22.7244 18.4308 22.9966 18.6205 23.2136C18.7159 23.3226 18.7796 23.4032 18.8176 23.4567C18.9356 23.843 19.1107 24.6219 19.2963 25.5374C19.4886 26.4866 19.6755 27.4963 19.797 28.1644C19.9205 28.8437 20.5712 29.2942 21.2505 29.1707C21.9297 29.0472 22.3802 28.3964 22.2567 27.7172C22.1343 27.0439 21.9438 26.0148 21.7465 25.0409C21.5556 24.0988 21.3403 23.1153 21.1651 22.5898C21.083 22.3435 20.9462 22.1364 20.8563 22.0098C20.7519 21.8626 20.6288 21.7123 20.5023 21.5677C20.2484 21.2774 19.9292 20.9515 19.5933 20.6259C19.3498 20.3899 19.0896 20.1464 18.8272 19.9069L18.8344 19.8973C18.7863 19.8613 18.7394 19.824 18.6935 19.7855C18.6401 19.7372 18.5868 19.6891 18.5335 19.6414C17.7928 18.9271 17.3998 17.8417 17.6374 16.4166C17.7149 15.9516 17.9654 14.838 18.2669 13.6978C18.4224 14.1543 18.5163 14.6576 18.6264 15.2482C18.6656 15.4582 18.7068 15.6792 18.7536 15.913C18.8259 16.2746 19.0141 16.5486 19.1346 16.7038C19.2705 16.8789 19.4288 17.0379 19.5766 17.1737C19.8721 17.445 20.2351 17.7218 20.565 17.9657C20.7058 18.0697 20.8377 18.1658 20.9632 18.2571C21.156 18.3974 21.3337 18.5268 21.5042 18.6565C21.6382 18.7585 21.7455 18.8441 21.8271 18.9148C21.8922 18.9713 21.9221 19.0021 21.9299 19.0101C22.3611 19.5492 23.148 19.6363 23.687 19.205C24.2261 18.7737 24.3135 17.9871 23.8823 17.448C23.6491 17.1566 23.2887 16.8729 23.018 16.667C22.8316 16.5251 22.6112 16.3646 22.3989 16.2099C22.2777 16.1215 22.159 16.0351 22.0508 15.9551C21.7261 15.7151 21.4568 15.5061 21.2677 15.3324C21.2261 15.2942 21.1937 15.2625 21.169 15.2371C21.151 15.1417 21.1326 15.0417 21.1136 14.938C20.9754 14.1855 20.8009 13.2346 20.4526 12.4186C19.9787 11.3082 19.1369 10.2934 17.6047 9.84766C14.9176 9.02487 12.8187 10.416 11.1886 11.4964C11.0167 11.6104 10.8497 11.721 10.6881 11.8251C10.5437 11.9181 10.42 12.0398 10.3247 12.1827C9.91347 12.7995 9.46005 13.6563 9.12502 14.3208C8.92113 14.7251 8.72204 15.1321 8.53183 15.5431C8.2425 16.1699 8.5157 16.9133 9.1425 17.2027C9.76928 17.492 10.5119 17.2184 10.8013 16.5917L10.8034 16.5872L10.8108 16.5711L10.8411 16.5064C10.8678 16.4495 10.907 16.3662 10.9566 16.2626C11.0559 16.0549 11.1956 15.767 11.3573 15.4463ZM21.1092 15.1705C21.0987 15.1571 21.1008 15.1576 21.1098 15.1713L21.1092 15.1705Z" fill="#212121"/>
<path d="M13.0743 20.5481L11.2754 24.0652L8.21719 27.0738C7.72507 27.558 7.7186 28.3494 8.20275 28.8416C8.6869 29.3337 9.47833 29.3401 9.97046 28.856L13.1729 25.7055C13.2684 25.6116 13.3481 25.5029 13.4091 25.3836L14.9839 22.3045C14.7373 22.0908 14.4854 21.8769 14.2395 21.6702C13.8662 21.3566 13.4628 20.9806 13.0743 20.5481Z" fill="#212121"/>
</svg>
