<svg width="28" height="28" viewBox="0 0 28 28" fill="none" xmlns="http://www.w3.org/2000/svg">
<path d="M11.9894 17.1717L10.2144 20.7217L7.45136 23.44C7.05766 23.8273 7.05248 24.4604 7.4398 24.8541C7.82713 25.2478 8.46027 25.253 8.85397 24.8657L11.7357 22.0307C11.8142 21.9534 11.8795 21.8637 11.9288 21.7651L13.5303 18.562C13.4 18.445 13.2636 18.3267 13.1215 18.2072C12.7637 17.9066 12.3684 17.5623 11.9894 17.1717Z" fill="#212121"/>
<path d="M18 5C18 6.10457 17.1046 7 16 7C14.8954 7 14 6.10457 14 5C14 3.89543 14.8954 3 16 3C17.1046 3 18 3.89543 18 5Z" fill="#212121"/>
<path d="M10.0108 12.8868C10.1929 12.3849 10.4684 11.808 10.859 11.3376L11.0244 11.2308C11.6444 10.8299 12.1763 10.486 12.6841 10.2347C12.3316 11.5007 12.0238 12.8508 11.9303 13.4118C11.6947 14.8252 12.5393 15.9739 13.3057 16.7403C13.9331 17.3677 14.7051 17.9272 15.266 18.3338C15.3779 18.4148 15.4813 18.4898 15.5736 18.5581C15.7624 18.7316 15.9477 18.9059 16.1217 19.0745C16.4044 19.3486 16.6452 19.5963 16.8192 19.7952C16.9065 19.895 16.9669 19.9711 17.0043 20.0238L17.0163 20.0411C17.1251 20.3906 17.2862 21.1079 17.4556 21.9437C17.6289 22.799 17.7973 23.7086 17.9067 24.31C18.0055 24.8534 18.5261 25.2138 19.0694 25.115C19.6128 25.0162 19.9732 24.4956 19.8744 23.9523C19.7643 23.3466 19.5931 22.4216 19.4158 21.5465C19.2436 20.6968 19.0513 19.8198 18.8966 19.3555C18.8287 19.1519 18.7143 18.9777 18.6353 18.8664C18.5446 18.7386 18.4369 18.6068 18.3246 18.4785C18.0993 18.2209 17.8148 17.9303 17.5137 17.6385C17.2983 17.4296 17.0683 17.2143 16.836 17.0022L16.8428 16.9931C16.7969 16.9587 16.7521 16.923 16.7083 16.8862C16.6596 16.8421 16.6108 16.7982 16.5622 16.7546C15.8625 16.0812 15.4974 15.0611 15.7175 13.7406C15.796 13.2695 16.0685 12.072 16.3827 10.9249L16.3982 10.9604C16.6235 11.4854 16.7377 12.0855 16.8688 12.7749C16.9001 12.9393 16.9324 13.1087 16.9673 13.2835C17.0268 13.5807 17.1823 13.809 17.2864 13.943C17.4028 14.0929 17.5397 14.2307 17.67 14.3504C17.9305 14.5897 18.2525 14.8354 18.5492 15.0547C18.674 15.1469 18.7925 15.2332 18.9052 15.3153C19.0798 15.4423 19.2415 15.56 19.3957 15.6774C19.5172 15.7698 19.6161 15.8487 19.6923 15.9148C19.7671 15.9796 19.7969 16.0124 19.8008 16.0166C20.1458 16.4479 20.7751 16.5178 21.2064 16.1728C21.6376 15.8278 21.7075 15.1985 21.3625 14.7672C21.1638 14.5188 20.8519 14.2723 20.6067 14.0857C20.4398 13.9588 20.2435 13.8157 20.0534 13.6772C19.9441 13.5975 19.8367 13.5193 19.7378 13.4462C19.4453 13.2301 19.1984 13.0386 19.0229 12.8774C18.9685 12.8275 18.9294 12.788 18.9025 12.7588C18.8858 12.6719 18.8687 12.5812 18.8511 12.4873C18.7204 11.7904 18.5569 10.9193 18.2361 10.1717C17.8186 9.19892 17.0797 8.28572 15.7259 7.95627C13.2811 7.36131 11.5462 8.49728 10.0376 9.48513C9.9084 9.56969 9.78091 9.65317 9.65478 9.73439C9.5792 9.78305 9.51053 9.84168 9.45062 9.90869C8.77982 10.659 8.3705 11.5437 8.13067 12.2049C8.00857 12.5416 7.92508 12.8353 7.87154 13.0475C7.84469 13.154 7.82516 13.2408 7.81193 13.3032C7.80531 13.3345 7.80025 13.3598 7.79663 13.3784L7.79226 13.4014L7.79085 13.409L7.79033 13.4119L7.79012 13.4131L7.78994 13.4141C7.69322 13.9578 8.05562 14.477 8.59937 14.5738C9.14234 14.6703 9.66084 14.3091 9.75862 13.7667L9.75999 13.7595C9.76154 13.7515 9.76435 13.7373 9.76854 13.7176C9.77691 13.678 9.79072 13.6163 9.81078 13.5368C9.85107 13.3771 9.91571 13.1491 10.0108 12.8868Z" fill="#212121"/>
</svg>
