<svg width="16" height="16" viewBox="0 0 16 16" fill="none" xmlns="http://www.w3.org/2000/svg">
<path d="M9.19336 4.0625C9.87891 4.0625 10.4121 3.5293 10.4121 2.84375C10.4121 2.18359 9.87891 1.625 9.19336 1.625C8.5332 1.625 7.97461 2.18359 7.97461 2.84375C7.97461 3.5293 8.5332 4.0625 9.19336 4.0625ZM5.79102 11.4258C5.71484 11.6289 5.58789 11.832 5.43555 11.9844L4.16602 13.2539C4.01367 13.4062 3.91211 13.6094 3.91211 13.8125C3.9375 14.4727 4.49609 14.625 4.72461 14.625C4.95312 14.625 5.15625 14.5488 5.30859 14.3965L6.80664 12.8984C6.98438 12.7461 7.08594 12.543 7.1875 12.3398L7.51758 11.4766C6.12109 9.95312 6.52734 10.4355 6.32422 10.1309L5.79102 11.4258ZM12.0625 8.58203C12.0625 8.30273 11.8848 7.99805 11.6055 7.87109L11.0215 7.56641L10.7676 6.80469C10.6152 6.39844 9.92969 4.90039 8.15234 4.90039C7.23828 4.90039 6.75586 5.1543 5.79102 5.53516C5.25781 5.73828 4.80078 6.16992 4.54688 6.70312L4.36914 7.0332C4.31836 7.16016 4.29297 7.28711 4.29297 7.41406C4.29297 7.8457 4.64844 8.22656 5.08008 8.22656C5.38477 8.22656 5.66406 8.04883 5.81641 7.76953L5.96875 7.43945C6.07031 7.26172 6.22266 7.10938 6.40039 7.0332L7.08594 6.75391L6.70508 8.30273C6.6543 8.42969 6.6543 8.55664 6.6543 8.68359C6.6543 9.08984 6.80664 9.49609 7.08594 9.80078L8.58398 11.4512C8.78711 11.6543 8.91406 11.9082 8.96484 12.1621L9.44727 14.0156C9.52344 14.3965 9.85352 14.625 10.2344 14.625C10.7168 14.625 11.0469 14.2188 11.0469 13.8125C11.0469 13.7617 11.0215 13.6855 11.0215 13.6348L10.4375 11.375C10.3867 11.0957 10.2598 10.8672 10.082 10.6641L8.91406 9.39453L9.3457 7.66797L9.49805 8.07422C9.625 8.48047 9.9043 8.81055 10.2852 9.01367L10.8945 9.31836C10.9961 9.36914 11.123 9.39453 11.25 9.39453C11.6562 9.39453 12.0625 9.06445 12.0625 8.58203Z" fill="#212121"/>
</svg>
