<svg width="20" height="20" viewBox="0 0 20 20" fill="none" xmlns="http://www.w3.org/2000/svg">
<path d="M8.19531 12.2656L7.64844 13.6602C7.62109 13.7969 7.53906 13.9336 7.40234 14.0156L5.81641 15.6289C5.67969 15.7383 5.625 15.9297 5.625 16.0938C5.625 16.2852 5.76172 16.75 6.25391 16.75C6.44531 16.75 6.60938 16.668 6.71875 16.5586L8.33203 14.9453C8.55078 14.7266 8.71484 14.4531 8.85156 14.1523L9.23438 13.2227L8.22266 12.3203L8.19531 12.2656ZM11.2852 5.375C12.0234 5.375 12.5977 4.80078 12.5977 4.0625C12.5977 3.35156 12.0234 2.75 11.2852 2.75C10.5742 2.75 9.97266 3.35156 9.97266 4.0625C9.97266 4.80078 10.5742 5.375 11.2852 5.375ZM13.6641 11.3086C14.0195 11.3086 14.375 10.9805 14.375 10.625C14.375 10.4609 14.293 10.3242 14.1562 10.1602L13.3633 9.36719C13.3359 9.36719 13.3086 9.3125 13.3359 9.28516L13.0078 8.21875C12.5977 7.04297 11.5039 6.25 10.2734 6.25C9.31641 6.25 8.85156 6.49609 7.64844 6.96094C7.01953 7.20703 6.55469 7.61719 6.28125 8.19141L5.89844 9.03906C5.84375 9.14844 5.81641 9.25781 5.81641 9.33984C5.81641 9.72266 6.17188 9.96875 6.5 9.96875C6.74609 9.96875 6.96484 9.85938 7.07422 9.58594L7.45703 8.76562C7.62109 8.4375 7.83984 8.19141 9.26172 7.72656L8.74219 9.88672C8.71484 10.0234 8.71484 10.1328 8.71484 10.2695C8.71484 10.6797 8.85156 11.0625 9.15234 11.3906L11.3125 13.3867C11.4492 13.5234 11.5586 13.7148 11.6133 13.9336L12.1602 16.2578C12.2422 16.5312 12.4883 16.75 12.8164 16.75C13.1992 16.75 13.4727 16.4492 13.4727 16.1211C13.4727 16.0664 13.4727 16.0117 13.4453 15.957L12.9258 13.6328C12.8438 13.168 12.5977 12.7578 12.2422 12.4297L10.7656 11.0625L11.4766 8.19141C11.9414 8.79297 11.8867 9.75 12.4609 10.3242L13.2539 11.1172C13.3633 11.2539 13.5273 11.3086 13.6641 11.3086Z" fill="#212121"/>
</svg>
