<svg width="24" height="24" viewBox="0 0 24 24" fill="none" xmlns="http://www.w3.org/2000/svg">
<path d="M13.7982 6.5964C14.7913 6.5964 15.5964 5.79132 15.5964 4.7982C15.5964 3.80508 14.7913 3 13.7982 3C12.8051 3 12 3.80508 12 4.7982C12 5.79132 12.8051 6.5964 13.7982 6.5964Z" fill="#212121"/>
<path d="M9.89411 15.5148L8.77444 17.7541L6.71164 19.8068C6.41803 20.0989 6.41686 20.5738 6.70902 20.8674C7.00119 21.161 7.47607 21.1622 7.76968 20.87L9.91943 18.7309C9.97701 18.6736 10.0249 18.6073 10.0612 18.5346L11.0284 16.6003C10.8763 16.4692 10.7216 16.3379 10.5695 16.2101C10.3154 15.9967 10.0889 15.7657 9.89411 15.5148Z" fill="#212121"/>
<path d="M9.27922 10.3286C9.08089 10.6562 8.86009 11.1231 8.67239 11.5561C8.56914 11.7943 8.48124 12.0097 8.41918 12.1654C8.38821 12.2432 8.36381 12.3057 8.3473 12.3484L8.32865 12.397L8.3241 12.409L8.32287 12.4122C8.17685 12.7998 7.74428 12.9957 7.35667 12.8497C6.96904 12.7037 6.7734 12.2705 6.91939 11.8828L6.92141 11.8775L6.92707 11.8626L6.94812 11.8078C6.9663 11.7608 6.99261 11.6933 7.02571 11.6102C7.09182 11.4443 7.18553 11.2147 7.29612 10.9596C7.51076 10.4644 7.81162 9.81959 8.11011 9.37185C8.16727 9.28611 8.24149 9.21307 8.32813 9.15728C8.45378 9.07639 8.58132 8.99162 8.71125 8.90528C9.85348 8.14617 11.1826 7.26283 13.0744 7.77407C14.0916 8.04896 14.6566 8.74603 14.9836 9.49093C15.2471 10.0909 15.3802 10.7839 15.4876 11.3431C15.4987 11.4012 15.5096 11.4579 15.5204 11.5128C15.5424 11.5374 15.5756 11.5713 15.623 11.6148C15.7618 11.7423 15.9564 11.8931 16.1855 12.0624C16.2634 12.1199 16.3478 12.1815 16.4336 12.2439C16.5822 12.3522 16.735 12.4636 16.8655 12.5628C17.0579 12.7092 17.2988 12.9 17.4515 13.0908C17.7103 13.4142 17.6578 13.8862 17.3344 14.145C17.0109 14.4037 16.5391 14.3515 16.2804 14.0281C16.2804 14.0281 16.2732 14.0198 16.2598 14.0066C16.2435 13.9905 16.221 13.9697 16.1911 13.9438C16.1307 13.8914 16.0526 13.8292 15.9572 13.7566C15.8363 13.6646 15.7086 13.5716 15.5717 13.472C15.4836 13.4078 15.3913 13.3406 15.294 13.2687C15.0618 13.0971 14.811 12.9056 14.6084 12.7195C14.507 12.6265 14.4013 12.5199 14.3118 12.4046C14.2315 12.3012 14.1133 12.1273 14.0682 11.902C14.0475 11.7986 14.0278 11.6972 14.0085 11.5979C13.8977 11.0286 13.8 10.5263 13.6102 10.0939C13.5949 10.059 13.5791 10.0251 13.563 9.99216C13.3097 10.9097 13.0877 11.8826 13.0247 12.2609C12.8507 13.3047 13.1395 14.1147 13.6958 14.6501C13.7344 14.6846 13.773 14.7194 13.8117 14.7544C13.8465 14.7837 13.8821 14.812 13.9186 14.8394L13.9131 14.8466C14.094 15.0118 14.273 15.1794 14.4408 15.342C14.6762 15.5702 14.8982 15.797 15.0738 15.9977C15.1613 16.0978 15.2449 16.2 15.315 16.2988C15.3764 16.3853 15.4636 16.5185 15.5152 16.6732C15.742 17.3538 16.1104 19.2243 16.2787 20.1501C16.3528 20.5576 16.0825 20.9481 15.675 21.0222C15.2674 21.0963 14.877 20.826 14.8029 20.4184C14.6313 19.4748 14.2928 17.7796 14.1044 17.1853C14.1011 17.1804 14.0969 17.1743 14.0918 17.167C14.0616 17.1244 14.0135 17.0639 13.9447 16.9853C13.8077 16.8286 13.6184 16.634 13.3967 16.4191C13.2599 16.2864 13.1141 16.1494 12.9656 16.0129C12.8925 15.9588 12.8105 15.8994 12.722 15.8352C12.2828 15.5168 11.6814 15.0809 11.1922 14.5917C10.5937 13.9932 9.9428 13.1043 10.1245 12.0143C10.1998 11.5622 10.4538 10.4522 10.7404 9.43557C10.3653 9.62006 9.97471 9.87495 9.52016 10.1716C9.44183 10.2227 9.3616 10.2751 9.27922 10.3286Z" fill="#212121"/>
</svg>
