<svg width="12" height="12" viewBox="0 0 12 12" fill="none" xmlns="http://www.w3.org/2000/svg">
<path d="M6.88785 2.875C7.39252 2.875 7.78505 2.46484 7.78505 1.9375C7.78505 1.42969 7.39252 1 6.88785 1C6.40187 1 5.99065 1.42969 5.99065 1.9375C5.99065 2.46484 6.40187 2.875 6.88785 2.875ZM4.38318 8.53906C4.3271 8.69531 4.23364 8.85156 4.1215 8.96875L3.18692 9.94531C3.07477 10.0625 3 10.2188 3 10.375C3.01869 10.8828 3.42991 11 3.59813 11C3.76636 11 3.91589 10.9414 4.02804 10.8242L5.13084 9.67188C5.26168 9.55469 5.33645 9.39844 5.41122 9.24219L5.65421 8.57813C4.62617 7.40625 4.92523 7.77734 4.7757 7.54297L4.38318 8.53906ZM9 6.35156C9 6.13672 8.86916 5.90234 8.66355 5.80469L8.23364 5.57031L8.04673 4.98438C7.93458 4.67188 7.42991 3.51953 6.1215 3.51953C5.4486 3.51953 5.09346 3.71484 4.38318 4.00781C3.99065 4.16406 3.65421 4.49609 3.46729 4.90625L3.33645 5.16016C3.29907 5.25781 3.28037 5.35547 3.28037 5.45313C3.28037 5.78516 3.54206 6.07813 3.85981 6.07813C4.08411 6.07813 4.28972 5.94141 4.40187 5.72656L4.51402 5.47266C4.58879 5.33594 4.70093 5.21875 4.83178 5.16016L5.33645 4.94531L5.05607 6.13672C5.01869 6.23438 5.01869 6.33203 5.01869 6.42969C5.01869 6.74219 5.13084 7.05469 5.33645 7.28906L6.43925 8.55859C6.58879 8.71484 6.68224 8.91016 6.71963 9.10547L7.07477 10.5313C7.13084 10.8242 7.37383 11 7.65421 11C8.00935 11 8.25234 10.6875 8.25234 10.375C8.25234 10.3359 8.23364 10.2773 8.23364 10.2383L7.80374 8.5C7.76636 8.28516 7.6729 8.10938 7.54206 7.95313L6.68224 6.97656L7 5.64844L7.11215 5.96094C7.20561 6.27344 7.41122 6.52734 7.69159 6.68359L8.14019 6.91797C8.21495 6.95703 8.30841 6.97656 8.40187 6.97656C8.70093 6.97656 9 6.72266 9 6.35156Z" fill="#212121"/>
</svg>
