<svg width="48" height="48" viewBox="0 0 48 48" fill="none" xmlns="http://www.w3.org/2000/svg">
<path d="M31 9.5C31 11.433 29.433 13 27.5 13C25.567 13 24 11.433 24 9.5C24 7.567 25.567 6 27.5 6C29.433 6 31 7.567 31 9.5Z" fill="#212121"/>
<path d="M17.4194 22.5331C17.791 21.6759 18.2342 20.7386 18.6339 20.087C18.8198 19.9664 19.0006 19.8481 19.1772 19.7327C20.4086 18.9276 21.4289 18.2605 22.4554 17.9125C21.7952 20.1689 21.1826 22.8217 21.0136 23.8356C20.6792 25.8418 21.8696 27.5339 23.1054 28.7696C24.1013 29.7656 25.3178 30.6478 26.2454 31.3205L26.2481 31.3225C26.3351 31.3856 26.4196 31.4468 26.501 31.5061C26.6419 31.6387 26.7799 31.7705 26.9135 31.9C27.3454 32.3186 27.717 32.7006 27.9881 33.0105C28.1241 33.166 28.2221 33.289 28.2861 33.3792C28.3078 33.4097 28.3219 33.4314 28.3303 33.445C28.5015 33.9808 28.7539 35.1051 29.0157 36.3971C29.2795 37.6987 29.5356 39.0822 29.7018 39.9962C29.8253 40.6755 30.476 41.126 31.1553 41.0025C31.8345 40.879 32.285 40.2283 32.1615 39.549C31.9943 38.6298 31.7347 37.2269 31.4659 35.9006C31.2036 34.606 30.9147 33.2912 30.6858 32.6047C30.5956 32.3341 30.4408 32.0957 30.3249 31.9323C30.1943 31.7483 30.037 31.5557 29.8698 31.3646C29.5346 30.9813 29.1084 30.5458 28.6536 30.1049C28.1469 29.6138 27.5862 29.0982 27.0423 28.6146C26.17 27.3898 25.7033 25.863 25.9864 24.1644C26.1277 23.3165 26.6298 21.1224 27.1947 19.104C27.2732 19.246 27.3461 19.4005 27.4148 19.5674C27.7441 20.3671 27.9088 21.2712 28.0898 22.265C28.1476 22.5827 28.2072 22.9096 28.2743 23.2451C28.3525 23.6361 28.5591 23.9434 28.7076 24.1347C28.8715 24.3458 29.0675 24.5438 29.2597 24.7203C29.644 25.0733 30.1229 25.4392 30.5729 25.7717C30.7589 25.9091 30.9369 26.0387 31.1078 26.1632C31.3751 26.3578 31.6256 26.5402 31.8615 26.7197C32.2706 27.031 32.4685 27.2116 32.5239 27.2809C32.9552 27.82 33.7418 27.9074 34.2809 27.4761C34.8199 27.0448 34.9073 26.2582 34.4761 25.7191C34.1982 25.3718 33.7513 25.0162 33.3753 24.7301C33.1235 24.5386 32.8308 24.3252 32.5439 24.1162C32.3771 23.9947 32.2123 23.8746 32.0587 23.7611C31.6139 23.4324 31.2288 23.1344 30.9508 22.8791C30.8284 22.7666 30.748 22.6817 30.6999 22.6235C30.662 22.4268 30.6238 22.215 30.5836 21.9924C30.3967 20.9566 30.1674 19.6863 29.7265 18.6155C29.1337 17.1761 28.0621 15.8302 26.0546 15.4643C22.5974 14.4448 20.016 16.1641 17.8181 17.6279C17.5571 17.8018 17.3014 17.972 17.0504 18.1337C16.906 18.2267 16.7823 18.3484 16.687 18.4913C16.1192 19.3431 15.5418 20.5788 15.1257 21.5388C14.9122 22.0313 14.7312 22.4748 14.6035 22.7952C14.5396 22.9557 14.4888 23.0858 14.4538 23.1765L14.4133 23.2819L14.4024 23.3104L14.3983 23.3214C14.3983 23.3215 14.3982 23.3216 15.5677 23.7621L14.3983 23.3214C14.155 23.9675 14.4814 24.6886 15.1274 24.932C15.7734 25.1753 16.4944 24.8489 16.7377 24.2029L16.7403 24.1962L16.7492 24.1726L16.7857 24.0775C16.818 23.9941 16.8656 23.8721 16.926 23.7205C17.0469 23.4171 17.2182 22.9974 17.4194 22.5331Z" fill="#212121"/>
<path d="M17.9751 34.7549L20.7931 29.1188C21.2026 29.9321 21.7804 30.6491 22.5026 31.2901L20.1181 36.059C20.0565 36.1823 19.9749 36.2945 19.8767 36.3911L15.5002 40.6967C15.0081 41.1808 14.2166 41.1744 13.7325 40.6822C13.2483 40.1901 13.2548 39.3987 13.7469 38.9145L17.9751 34.7549Z" fill="#212121"/>
</svg>
