<svg width="48" height="48" viewBox="0 0 48 48" fill="none" xmlns="http://www.w3.org/2000/svg">
<path d="M27.5 13C29.433 13 31 11.433 31 9.5C31 7.567 29.433 6 27.5 6C25.567 6 24 7.567 24 9.5C24 11.433 25.567 13 27.5 13Z" fill="#212121"/>
<path d="M17.6488 22.6325C18.0112 21.7964 18.4362 20.8977 18.8177 20.2658C18.9838 20.158 19.1455 20.0525 19.3032 19.9495C20.4795 19.1818 21.4355 18.5578 22.3699 18.208C21.7429 20.3958 21.1753 22.8656 21.0136 23.8356C20.6792 25.8418 21.8696 27.5339 23.1054 28.7696C23.1966 28.8608 23.2897 28.9511 23.3843 29.0404C23.5835 29.2499 23.801 29.4518 24.0351 29.6484C24.8466 30.3303 25.8837 31.2499 26.7395 32.0795C27.1691 32.4959 27.5352 32.8725 27.7999 33.1751C27.9328 33.327 28.0249 33.443 28.0822 33.5239C28.0901 33.5349 28.0967 33.5445 28.1022 33.5527C28.2679 34.0838 28.5131 35.1756 28.7707 36.4467C29.0339 37.7459 29.2897 39.1274 29.4558 40.041C29.604 40.856 30.3849 41.3966 31.2 41.2484C32.015 41.1003 32.5556 40.3194 32.4075 39.5043C32.2402 38.5845 31.9802 37.1797 31.7109 35.8509C31.4494 34.5602 31.1576 33.2294 30.923 32.5257C30.8208 32.219 30.6484 31.9563 30.5288 31.7876C30.3915 31.5942 30.2283 31.3947 30.058 31.2C29.7163 30.8094 29.2847 30.3685 28.8276 29.9254C28.1232 29.2426 27.316 28.5137 26.593 27.8876C26.0202 26.8057 25.7569 25.5415 25.9864 24.1644C26.1194 23.3664 26.572 21.3758 27.0958 19.4615C27.1257 19.526 27.155 19.593 27.1836 19.6626C27.502 20.4358 27.6604 21.3045 27.84 22.2905C27.8987 22.6123 27.9596 22.9466 28.0291 23.2942C28.1139 23.7182 28.3281 24.0536 28.4769 24.2581C28.6429 24.4861 28.8396 24.7003 29.0317 24.8906C29.4166 25.2718 29.8921 25.6637 30.3469 26.0175C30.8076 26.3758 31.2845 26.7237 31.6814 27.0128C32.1014 27.3187 32.3915 27.5303 32.5462 27.6577C33.1855 28.1845 34.1309 28.0932 34.6577 27.4538C35.1844 26.8145 35.0932 25.8691 34.4538 25.3423C34.2259 25.1546 33.871 24.8961 33.5161 24.6378L33.4477 24.5879C33.0476 24.2965 32.607 23.9748 32.1889 23.6495C31.7649 23.3197 31.4003 23.0141 31.1429 22.7591C30.9037 22.5222 30.8922 22.2938 30.8327 21.9637C30.6458 20.927 30.41 19.6188 29.9576 18.5203C29.3454 17.0335 28.2213 15.61 26.1125 15.2208C22.5423 14.1741 19.8629 15.9621 17.6762 17.4213C17.4158 17.5951 17.1622 17.7644 16.9151 17.9235C16.7418 18.035 16.5934 18.1811 16.479 18.3526C15.8976 19.2248 15.3127 20.4788 14.8963 21.4394C14.6816 21.9347 14.4996 22.3806 14.3713 22.7027C13.9584 23.739 14.4445 22.4885 14.1443 23.2878C13.8022 24.1986 14.264 24.8739 15.0393 25.1659C15.8145 25.4579 16.6796 25.0662 16.9717 24.291L16.974 24.2848L16.9828 24.2616L17.0189 24.1677C17.0509 24.0849 17.0982 23.9637 17.1582 23.8131C17.2784 23.5113 17.4488 23.094 17.6488 22.6325Z" fill="#212121"/>
<path d="M20.5141 29.1179L17.7701 34.6058L13.5716 38.7363C12.9811 39.3173 12.9733 40.267 13.5543 40.8575C14.1353 41.4481 15.085 41.4559 15.6755 40.8749L20.052 36.5693C20.1699 36.4533 20.2678 36.3187 20.3417 36.1708L22.5828 31.6886L22.5351 31.6485C21.6651 30.9175 20.9777 30.084 20.5141 29.1179Z" fill="#212121"/>
</svg>
