<svg width="12" height="12" viewBox="0 0 12 12" fill="none" xmlns="http://www.w3.org/2000/svg">
<path d="M4.7625 7.79688L4.3875 8.79297C4.36875 8.89063 4.3125 8.98828 4.21875 9.04688L3.13125 10.1992C3.0375 10.2773 3 10.4141 3 10.5313C3 10.668 3.09375 11 3.43125 11C3.5625 11 3.675 10.9414 3.75 10.8633L4.85625 9.71094C5.00625 9.55469 5.11875 9.35938 5.2125 9.14453L5.475 8.48047L4.78125 7.83594L4.7625 7.79688ZM6.88125 2.875C7.3875 2.875 7.78125 2.46484 7.78125 1.9375C7.78125 1.42969 7.3875 1 6.88125 1C6.39375 1 5.98125 1.42969 5.98125 1.9375C5.98125 2.46484 6.39375 2.875 6.88125 2.875ZM8.5125 7.11328C8.75625 7.11328 9 6.87891 9 6.625C9 6.50781 8.94375 6.41016 8.85 6.29297L8.30625 5.72656C8.2875 5.72656 8.26875 5.6875 8.2875 5.66797L8.0625 4.90625C7.78125 4.06641 7.03125 3.5 6.1875 3.5C5.53125 3.5 5.2125 3.67578 4.3875 4.00781C3.95625 4.18359 3.6375 4.47656 3.45 4.88672L3.1875 5.49219C3.15 5.57031 3.13125 5.64844 3.13125 5.70703C3.13125 5.98047 3.375 6.15625 3.6 6.15625C3.76875 6.15625 3.91875 6.07813 3.99375 5.88281L4.25625 5.29688C4.36875 5.0625 4.51875 4.88672 5.49375 4.55469L5.1375 6.09766C5.11875 6.19531 5.11875 6.27344 5.11875 6.37109C5.11875 6.66406 5.2125 6.9375 5.41875 7.17188L6.9 8.59766C6.99375 8.69531 7.06875 8.83203 7.10625 8.98828L7.48125 10.6484C7.5375 10.8438 7.70625 11 7.93125 11C8.19375 11 8.38125 10.7852 8.38125 10.5508C8.38125 10.5117 8.38125 10.4727 8.3625 10.4336L8.00625 8.77344C7.95 8.44141 7.78125 8.14844 7.5375 7.91406L6.525 6.9375L7.0125 4.88672C7.33125 5.31641 7.29375 6 7.6875 6.41016L8.23125 6.97656C8.30625 7.07422 8.41875 7.11328 8.5125 7.11328Z" fill="#212121"/>
</svg>
