<svg width="32" height="32" viewBox="0 0 32 32" fill="none" xmlns="http://www.w3.org/2000/svg">
<path d="M18.7345 8.46901C20.2447 8.46901 21.469 7.24473 21.469 5.7345C21.469 4.22428 20.2447 3 18.7345 3C17.2243 3 16 4.22428 16 5.7345C16 7.24473 17.2243 8.46901 18.7345 8.46901Z" fill="#212121"/>
<path d="M11.2179 15.3601C11.4866 14.7402 11.8047 14.0677 12.0908 13.5976L12.3496 13.4298C13.0807 12.9552 13.7109 12.5461 14.3116 12.2625C13.8904 13.7373 13.5115 15.3879 13.4017 16.0467C13.1493 17.5611 14.0528 18.8023 14.8991 19.6487C15.5893 20.3388 16.4369 20.9533 17.0604 21.4052C17.1878 21.4976 17.3062 21.5834 17.4116 21.6615C17.6236 21.8563 17.8319 22.0521 18.0273 22.2415C18.3425 22.5471 18.6125 22.8247 18.8087 23.049C18.9072 23.1615 18.9768 23.2491 19.0214 23.312C19.032 23.3269 19.0398 23.3385 19.0454 23.3471C19.1688 23.7375 19.3511 24.5492 19.5413 25.4878C19.7341 26.4394 19.9214 27.451 20.043 28.1197C20.1418 28.6631 20.6623 29.0235 21.2057 28.9247C21.7491 28.8259 22.1095 28.3053 22.0107 27.7619C21.8884 27.0891 21.6982 26.062 21.5014 25.0906C21.3097 24.1446 21.0973 23.1771 20.9279 22.6689C20.8578 22.4586 20.7386 22.2758 20.6524 22.1545C20.5546 22.0166 20.4375 21.8733 20.3141 21.7323C20.0666 21.4493 19.7529 21.1288 19.4193 20.8054C19.1832 20.5765 18.9311 20.3405 18.6765 20.1078L18.6843 20.0973C18.6314 20.0576 18.5797 20.0165 18.5293 19.9741C18.4737 19.9237 18.418 19.8736 18.3624 19.8238C17.5561 19.048 17.1406 17.8762 17.3907 16.3755C17.4851 15.8095 17.8281 14.3133 18.2104 12.9544C18.2736 13.0628 18.3306 13.1787 18.3832 13.3018C18.6232 13.8643 18.7399 14.4907 18.8755 15.219C18.9139 15.4255 18.9539 15.6402 18.9987 15.864C19.0597 16.1693 19.2203 16.4066 19.332 16.5505C19.4561 16.7102 19.6033 16.8587 19.7457 16.9895C20.0305 17.2511 20.3842 17.5212 20.7136 17.7646C20.8509 17.8661 20.9817 17.9613 21.1069 18.0525C21.3017 18.1943 21.4836 18.3267 21.6556 18.4576C21.7915 18.561 21.9035 18.6502 21.9907 18.7259C22.0339 18.7633 22.067 18.7938 22.0913 18.8179C22.1144 18.8408 22.1242 18.8524 22.1252 18.8535C22.1253 18.8537 22.1253 18.8536 22.1252 18.8535C22.4702 19.2848 23.0996 19.3548 23.5309 19.0098C23.9621 18.6648 24.032 18.0355 23.687 17.6042C23.4761 17.3405 23.1406 17.0744 22.8666 16.8659C22.6819 16.7254 22.4662 16.5683 22.2558 16.4149L22.2546 16.414C22.133 16.3255 22.0133 16.2382 21.9022 16.1562C21.577 15.9158 21.2984 15.7 21.0986 15.5165C21.022 15.4462 20.9699 15.3922 20.9368 15.3541C20.9133 15.2323 20.8897 15.1038 20.8651 14.9703C20.7267 14.2177 20.5587 13.3041 20.2226 12.5167C19.7712 11.4589 18.9794 10.5074 17.5332 10.0872C14.9649 9.29996 12.9677 10.6204 11.3264 11.7056C11.1549 11.8189 10.9873 11.9297 10.8234 12.0353C10.7079 12.1097 10.6089 12.2071 10.5327 12.3214C10.1125 12.9516 9.68746 13.8621 9.3829 14.5647C9.22625 14.9261 9.09349 15.2514 8.99985 15.4864C8.95295 15.6041 8.91569 15.6996 8.88995 15.7662L8.86019 15.8438L8.8522 15.8648L8.84937 15.8722C8.84934 15.8723 8.84905 15.8731 9.78487 16.2256L8.84937 15.8722C8.65471 16.3891 8.91556 16.9667 9.43241 17.1614C9.94922 17.356 10.526 17.0949 10.7207 16.5781L10.7225 16.5734L10.729 16.5563L10.7555 16.4871C10.779 16.4263 10.8138 16.3373 10.8578 16.2267C10.9461 16.0052 11.0711 15.6989 11.2179 15.3601Z" fill="#212121"/>
<path d="M13.2637 20.6433L11.4762 24.2183L8.3925 27.2521C7.9988 27.6394 7.99363 28.2725 8.38095 28.6662C8.76827 29.0599 9.40142 29.0651 9.79512 28.6778L12.9975 25.5273C13.0761 25.45 13.1413 25.3602 13.1906 25.2616L14.764 22.115C14.5888 21.9649 14.4126 21.8157 14.2395 21.6702C13.8646 21.3552 13.5374 21.0145 13.2637 20.6433Z" fill="#212121"/>
</svg>
