<svg width="20" height="20" viewBox="0 0 20 20" fill="none" xmlns="http://www.w3.org/2000/svg">
<path d="M11.2852 5.375C12.0234 5.375 12.5977 4.80078 12.5977 4.0625C12.5977 3.35156 12.0234 2.75 11.2852 2.75C10.5742 2.75 9.97266 3.35156 9.97266 4.0625C9.97266 4.80078 10.5742 5.375 11.2852 5.375ZM7.62109 13.3047C7.53906 13.5234 7.40234 13.7422 7.23828 13.9062L5.87109 15.2734C5.70703 15.4375 5.59766 15.6562 5.59766 15.875C5.625 16.5859 6.22656 16.75 6.47266 16.75C6.71875 16.75 6.9375 16.668 7.10156 16.5039L8.71484 14.8906C8.90625 14.7266 9.01562 14.5078 9.125 14.2891L9.48047 13.3594C7.97656 11.7188 8.41406 12.2383 8.19531 11.9102L7.62109 13.3047ZM14.375 10.2422C14.375 9.94141 14.1836 9.61328 13.8828 9.47656L13.2539 9.14844L12.9805 8.32812C12.8164 7.89062 12.0781 6.27734 10.1641 6.27734C9.17969 6.27734 8.66016 6.55078 7.62109 6.96094C7.04688 7.17969 6.55469 7.64453 6.28125 8.21875L6.08984 8.57422C6.03516 8.71094 6.00781 8.84766 6.00781 8.98438C6.00781 9.44922 6.39062 9.85938 6.85547 9.85938C7.18359 9.85938 7.48438 9.66797 7.64844 9.36719L7.8125 9.01172C7.92188 8.82031 8.08594 8.65625 8.27734 8.57422L9.01562 8.27344L8.60547 9.94141C8.55078 10.0781 8.55078 10.2148 8.55078 10.3516C8.55078 10.7891 8.71484 11.2266 9.01562 11.5547L10.6289 13.332C10.8477 13.5508 10.9844 13.8242 11.0391 14.0977L11.5586 16.0938C11.6406 16.5039 11.9961 16.75 12.4062 16.75C12.9258 16.75 13.2812 16.3125 13.2812 15.875C13.2812 15.8203 13.2539 15.7383 13.2539 15.6836L12.625 13.25C12.5703 12.9492 12.4336 12.7031 12.2422 12.4844L10.9844 11.1172L11.4492 9.25781L11.6133 9.69531C11.75 10.1328 12.0508 10.4883 12.4609 10.707L13.1172 11.0352C13.2266 11.0898 13.3633 11.1172 13.5 11.1172C13.9375 11.1172 14.375 10.7617 14.375 10.2422Z" fill="#212121"/>
</svg>
