<svg width="16" height="16" viewBox="0 0 16 16" fill="none" xmlns="http://www.w3.org/2000/svg">
<path d="M6.32422 10.4609L5.81641 11.7559C5.79102 11.8828 5.71484 12.0098 5.58789 12.0859L4.11523 13.584C3.98828 13.6855 3.9375 13.8633 3.9375 14.0156C3.9375 14.1934 4.06445 14.625 4.52148 14.625C4.69922 14.625 4.85156 14.5488 4.95312 14.4473L6.45117 12.9492C6.6543 12.7461 6.80664 12.4922 6.93359 12.2129L7.28906 11.3496L6.34961 10.5117L6.32422 10.4609ZM9.19336 4.0625C9.87891 4.0625 10.4121 3.5293 10.4121 2.84375C10.4121 2.18359 9.87891 1.625 9.19336 1.625C8.5332 1.625 7.97461 2.18359 7.97461 2.84375C7.97461 3.5293 8.5332 4.0625 9.19336 4.0625ZM11.4023 9.57227C11.7324 9.57227 12.0625 9.26758 12.0625 8.9375C12.0625 8.78516 11.9863 8.6582 11.8594 8.50586L11.123 7.76953C11.0977 7.76953 11.0723 7.71875 11.0977 7.69336L10.793 6.70312C10.4121 5.61133 9.39648 4.875 8.25391 4.875C7.36523 4.875 6.93359 5.10352 5.81641 5.53516C5.23242 5.76367 4.80078 6.14453 4.54688 6.67773L4.19141 7.46484C4.14062 7.56641 4.11523 7.66797 4.11523 7.74414C4.11523 8.09961 4.44531 8.32812 4.75 8.32812C4.97852 8.32812 5.18164 8.22656 5.2832 7.97266L5.63867 7.21094C5.79102 6.90625 5.99414 6.67773 7.31445 6.24609L6.83203 8.25195C6.80664 8.37891 6.80664 8.48047 6.80664 8.60742C6.80664 8.98828 6.93359 9.34375 7.21289 9.64844L9.21875 11.502C9.3457 11.6289 9.44727 11.8066 9.49805 12.0098L10.0059 14.168C10.082 14.4219 10.3105 14.625 10.6152 14.625C10.9707 14.625 11.2246 14.3457 11.2246 14.041C11.2246 13.9902 11.2246 13.9395 11.1992 13.8887L10.7168 11.7305C10.6406 11.2988 10.4121 10.918 10.082 10.6133L8.71094 9.34375L9.37109 6.67773C9.80273 7.23633 9.75195 8.125 10.2852 8.6582L11.0215 9.39453C11.123 9.52148 11.2754 9.57227 11.4023 9.57227Z" fill="#212121"/>
</svg>
