<svg width="28" height="28" viewBox="0 0 28 28" fill="none" xmlns="http://www.w3.org/2000/svg">
<path d="M12.1754 17.3586L10.4193 20.8708L7.62667 23.6182C7.33139 23.9087 7.32751 24.3835 7.618 24.6788C7.90849 24.9741 8.38335 24.978 8.67863 24.6875L11.5603 21.8525C11.6192 21.7945 11.6682 21.7272 11.7051 21.6533L13.3364 18.3908C13.2663 18.3299 13.1946 18.2687 13.1214 18.2072C12.8219 17.9555 12.496 17.6731 12.1754 17.3586Z" fill="#212121"/>
<path d="M18 5C18 6.10457 17.1046 7 16 7C14.8954 7 14 6.10457 14 5C14 3.89543 14.8954 3 16 3C17.1046 3 18 3.89543 18 5Z" fill="#212121"/>
<path d="M9.7758 12.8016C9.9668 12.275 10.2621 11.6547 10.6918 11.148L10.9127 11.0051C11.7104 10.4886 12.3861 10.0511 13.0709 9.79208C12.6629 11.1759 12.2815 12.8248 12.1769 13.4529C11.9624 14.7397 12.7281 15.8091 13.4825 16.5635C14.094 17.175 14.843 17.7181 15.4041 18.1249C15.5232 18.2113 15.6338 18.2915 15.7329 18.3649C15.9267 18.5429 16.117 18.7219 16.2957 18.895C16.5807 19.1713 16.827 19.4244 17.0073 19.6306C17.0978 19.734 17.1641 19.817 17.2082 19.8792C17.2281 19.9072 17.2393 19.9252 17.2446 19.9341C17.359 20.2886 17.5272 21.0381 17.7006 21.894C17.8744 22.7518 18.0432 23.6633 18.1526 24.2653C18.2267 24.6729 18.6172 24.9432 19.0247 24.8691C19.4322 24.795 19.7025 24.4045 19.6284 23.997C19.5184 23.3919 19.3475 22.4687 19.1707 21.5961C18.9978 20.7426 18.8084 19.8815 18.6594 19.4346C18.6035 19.2669 18.5067 19.1171 18.4314 19.011C18.3474 18.8926 18.2456 18.7679 18.1364 18.6431C17.9175 18.3928 17.6385 18.1076 17.3397 17.818C17.134 17.6186 16.9149 17.4128 16.693 17.2098L16.6903 17.2077L16.6853 17.2031L16.6928 17.1931C16.642 17.155 16.5924 17.1155 16.5441 17.0747C16.4931 17.0285 16.4421 16.9826 16.3912 16.9371C15.6257 16.2021 15.2382 15.0955 15.4709 13.6995C15.5641 13.1403 15.9217 11.5933 16.3025 10.2892C16.4289 10.4536 16.5349 10.645 16.6279 10.8618C16.865 11.4143 16.9854 12.0484 17.1169 12.7406C17.1476 12.9021 17.1789 13.0668 17.2124 13.2344C17.2606 13.4754 17.3886 13.667 17.4838 13.7897C17.5883 13.9242 17.7141 14.0515 17.8391 14.1663C18.089 14.3958 18.4016 14.6348 18.6977 14.8536C18.8193 14.9434 18.9365 15.0288 19.049 15.1107C19.2255 15.2392 19.3913 15.3599 19.547 15.4784C19.8155 15.6826 19.953 15.8067 19.996 15.8604C20.2548 16.1839 20.7267 16.2363 21.0502 15.9776C21.3736 15.7188 21.4261 15.2468 21.1673 14.9234C20.9908 14.7028 20.7038 14.4738 20.4553 14.2847C20.2901 14.159 20.098 14.019 19.9098 13.8819C19.7999 13.8018 19.6911 13.7226 19.5892 13.6473C19.2962 13.4307 19.0399 13.2325 18.8537 13.0615C18.7616 12.9769 18.7029 12.9136 18.6696 12.871C18.6479 12.7603 18.6261 12.6442 18.6035 12.524C18.4723 11.8263 18.3151 10.9896 18.0063 10.2703C17.61 9.34682 16.9227 8.50483 15.6668 8.19918C13.3316 7.6309 11.6858 8.70671 10.1687 9.69833C10.0417 9.78135 9.91562 9.86377 9.7901 9.94459C9.73342 9.98108 9.68192 10.0251 9.63699 10.0753C8.9957 10.7926 8.59986 11.6445 8.36568 12.2902C8.24695 12.6175 8.16581 12.903 8.11393 13.1087C8.08793 13.2118 8.06911 13.2954 8.05649 13.355C8.05017 13.3849 8.0454 13.4087 8.04203 13.426L8.03804 13.4471L8.0368 13.4538L8.03637 13.4561L8.03606 13.4579C7.96352 13.8657 8.23532 14.2551 8.64313 14.3276C9.05084 14.4001 9.44019 14.1282 9.51288 13.7205L9.51455 13.7119C9.51636 13.7025 9.51946 13.687 9.52394 13.6658C9.53293 13.6234 9.54745 13.5585 9.56836 13.4756C9.61031 13.3094 9.6773 13.0732 9.7758 12.8016Z" fill="#212121"/>
</svg>
