<svg width="230" height="160" viewBox="0 0 230 160" fill="none" xmlns="http://www.w3.org/2000/svg">
<path d="M114.56 137.302C145.796 137.302 171.12 111.979 171.12 80.6308C171.12 49.2831 145.684 23.9595 114.56 23.9595C83.3236 23.9595 58 49.2831 58 80.6308C58 111.979 83.3236 137.302 114.56 137.302Z" fill="#242424"/>
<path d="M156.281 127.224C154.86 127.224 153.708 128.376 153.708 129.797C153.708 131.218 154.86 132.37 156.281 132.37C157.702 132.37 158.854 131.218 158.854 129.797C158.854 128.376 157.702 127.224 156.281 127.224Z" fill="#323232"/>
<path d="M169.315 120.089C168.345 120.089 167.558 120.876 167.558 121.846C167.558 122.816 168.345 123.603 169.315 123.603C170.286 123.603 171.072 122.816 171.072 121.846C171.072 120.876 170.286 120.089 169.315 120.089Z" fill="#323232"/>
<path d="M78.9426 26.5141C79.913 26.5141 80.6996 25.7274 80.6996 24.757C80.6996 23.7867 79.913 23 78.9426 23C77.9722 23 77.1855 23.7867 77.1855 24.757C77.1855 25.7274 77.9722 26.5141 78.9426 26.5141Z" fill="#323232"/>
<path d="M70.8559 37.2007C72.658 37.2007 74.119 35.7398 74.119 33.9376C74.119 32.1355 72.658 30.6746 70.8559 30.6746C69.0537 30.6746 67.5928 32.1355 67.5928 33.9376C67.5928 35.7398 69.0537 37.2007 70.8559 37.2007Z" fill="#323232"/>
<path d="M58 55.0015C58 50.5832 61.5817 47.0015 66 47.0015H163.243C167.661 47.0015 171.243 50.5832 171.243 55.0015V104.298C171.243 108.716 167.661 112.298 163.243 112.298H114.98C112.216 112.298 109.653 113.724 108.042 115.97C103.745 121.961 94.5489 133.329 85.6718 134.885C84.5838 135.076 83.684 134.168 83.684 133.063V120.298C83.684 115.879 80.1023 112.298 75.684 112.298H66C61.5817 112.298 58 108.716 58 104.298V55.0015Z" fill="url(#paint0_linear_5118_410)"/>
<path fill-rule="evenodd" clip-rule="evenodd" d="M185.987 50.8569C186.026 51.657 185.41 52.3378 184.61 52.3774L176.692 52.7691C175.892 52.8087 175.211 52.1922 175.171 51.3921C175.132 50.5919 175.748 49.9112 176.548 49.8716L184.466 49.4799C185.266 49.4403 185.947 50.0568 185.987 50.8569Z" fill="#777777"/>
<path fill-rule="evenodd" clip-rule="evenodd" d="M181.719 41.9925C182.098 42.6984 181.833 43.5777 181.127 43.9565L177.127 46.1031C176.421 46.4818 175.542 46.2167 175.163 45.5108C174.784 44.8049 175.049 43.9256 175.755 43.5468L179.755 41.4003C180.461 41.0215 181.341 41.2867 181.719 41.9925Z" fill="#777777"/>
<path fill-rule="evenodd" clip-rule="evenodd" d="M170.417 43.8924C169.649 43.6662 169.209 42.8599 169.435 42.0913L172.374 32.106C172.601 31.3375 173.407 30.8979 174.175 31.1241C174.944 31.3503 175.384 32.1566 175.157 32.9251L172.218 42.9105C171.992 43.679 171.186 44.1186 170.417 43.8924Z" fill="#777777"/>
<path d="M152.563 69.1538C153.128 69.1538 153.581 69.6215 153.563 70.1862L153.163 82.5355C153.145 83.0749 152.703 83.5032 152.163 83.5032H149.949C149.41 83.5032 148.967 83.0749 148.95 82.5355L148.55 70.1862C148.532 69.6215 148.985 69.1538 149.55 69.1538H152.563ZM151.051 90.1275C150.331 90.1275 149.712 89.8717 149.193 89.3601C148.682 88.8484 148.426 88.2291 148.426 87.502C148.426 86.7884 148.682 86.1792 149.193 85.6743C149.712 85.1626 150.331 84.9068 151.051 84.9068C151.745 84.9068 152.354 85.1626 152.879 85.6743C153.411 86.1792 153.677 86.7884 153.677 87.502C153.677 87.9867 153.552 88.4277 153.303 88.8249C153.061 89.2221 152.741 89.5385 152.344 89.7741C151.953 90.0097 151.523 90.1275 151.051 90.1275Z" fill="#D1D1D1"/>
<path d="M134.451 85.957V84.8664C134.451 84.0182 134.632 83.2339 134.996 82.5136C135.366 81.7933 135.901 81.2143 136.602 80.7767C137.302 80.3391 138.157 80.1203 139.167 80.1203C140.197 80.1203 141.062 80.3391 141.762 80.7767C142.469 81.2076 143 81.7832 143.357 82.5035C143.721 83.2171 143.903 84.0047 143.903 84.8664V85.957C143.903 86.8053 143.721 87.5896 143.357 88.3099C142.994 89.0302 142.458 89.6092 141.752 90.0468C141.045 90.4843 140.183 90.7031 139.167 90.7031C138.143 90.7031 137.282 90.4843 136.581 90.0468C135.881 89.6092 135.349 89.0302 134.986 88.3099C134.629 87.5896 134.451 86.8053 134.451 85.957ZM137.672 84.8664V85.957C137.672 86.3879 137.776 86.8019 137.985 87.1991C138.2 87.5963 138.594 87.7949 139.167 87.7949C139.752 87.7949 140.146 87.603 140.348 87.2193C140.55 86.8288 140.651 86.4081 140.651 85.957V84.8664C140.651 84.4154 140.553 83.9913 140.358 83.5941C140.17 83.1902 139.772 82.9882 139.167 82.9882C138.601 82.9882 138.211 83.1902 137.995 83.5941C137.78 83.9913 137.672 84.4154 137.672 84.8664ZM123.727 74.1221V73.0315C123.727 72.1698 123.912 71.3821 124.282 70.6685C124.659 69.9482 125.198 69.3726 125.898 68.9418C126.598 68.5042 127.446 68.2854 128.442 68.2854C129.472 68.2854 130.337 68.5042 131.038 68.9418C131.744 69.3726 132.28 69.9482 132.643 70.6685C133.007 71.3821 133.188 72.1698 133.188 73.0315V74.1221C133.188 74.9838 133.003 75.7714 132.633 76.485C132.27 77.1986 131.734 77.7675 131.027 78.1916C130.321 78.6157 129.459 78.8278 128.442 78.8278C127.426 78.8278 126.564 78.6124 125.857 78.1815C125.157 77.7507 124.625 77.1784 124.262 76.4648C123.905 75.7512 123.727 74.9703 123.727 74.1221ZM126.978 73.0315V74.1221C126.978 74.5731 127.082 74.9939 127.291 75.3843C127.507 75.7681 127.89 75.9599 128.442 75.9599C129.035 75.9599 129.429 75.7681 129.624 75.3843C129.826 74.9939 129.927 74.5731 129.927 74.1221V73.0315C129.927 72.5804 129.833 72.1563 129.644 71.7591C129.456 71.3552 129.055 71.1533 128.442 71.1533C127.877 71.1533 127.49 71.3586 127.281 71.7692C127.079 72.1799 126.978 72.6006 126.978 73.0315ZM127.152 89.8347C126.347 89.8347 125.872 88.9317 126.328 88.2682L139.171 69.5873C139.358 69.316 139.666 69.1538 139.995 69.1538H140.325C141.13 69.1538 141.605 70.0569 141.149 70.7204L128.306 89.4012C128.12 89.6726 127.811 89.8347 127.482 89.8347H127.152Z" fill="#D1D1D1"/>
<path d="M109.917 90.1479C108.463 90.1479 107.208 89.8887 106.151 89.3704C105.1 88.852 104.293 88.1552 103.727 87.2801C103.162 86.3982 102.879 85.4187 102.879 84.3415C102.879 83.5471 103.034 82.847 103.343 82.2411C103.66 81.6285 104.094 81.0664 104.646 80.5548C105.205 80.0364 105.854 79.5281 106.595 79.0299L110.937 76.253C111.429 75.9433 111.775 75.6168 111.977 75.2735C112.186 74.9301 112.29 74.5868 112.29 74.2434C112.29 73.8732 112.146 73.5366 111.856 73.2336C111.573 72.9307 111.153 72.7826 110.594 72.7893C110.237 72.7893 109.927 72.8634 109.665 73.0115C109.402 73.1596 109.197 73.3582 109.049 73.6073C108.907 73.8564 108.837 74.1391 108.837 74.4555C108.837 74.8662 108.955 75.2869 109.19 75.7178C109.426 76.1486 109.742 76.6064 110.139 77.0911C110.543 77.5758 110.991 78.111 111.482 78.6967L119.908 88.1703C120.482 88.8152 120.024 89.8349 119.161 89.8349H116.798C116.519 89.8349 116.252 89.718 116.063 89.5125L108.069 80.8375C107.598 80.3124 107.103 79.7233 106.585 79.0703C106.067 78.4173 105.629 77.7037 105.272 76.9295C104.915 76.1486 104.737 75.3004 104.737 74.3848C104.737 73.3548 104.979 72.4224 105.464 71.5877C105.949 70.7529 106.629 70.0898 107.504 69.5983C108.386 69.1002 109.412 68.8511 110.584 68.8511C111.715 68.8511 112.691 69.0833 113.512 69.5478C114.333 70.0124 114.966 70.6283 115.411 71.3958C115.855 72.1632 116.077 73.0048 116.077 73.9203C116.077 74.8897 115.838 75.7817 115.36 76.5963C114.882 77.4041 114.206 78.1211 113.33 78.7472L109.079 81.7867C108.628 82.1099 108.275 82.4566 108.019 82.8268C107.763 83.1903 107.635 83.5875 107.635 84.0184C107.635 84.4627 107.739 84.8498 107.948 85.1797C108.164 85.5095 108.467 85.7687 108.857 85.9572C109.247 86.1457 109.705 86.24 110.23 86.24C110.93 86.24 111.631 86.075 112.331 85.7452C113.031 85.4086 113.67 84.9373 114.249 84.3314C114.828 83.7188 115.293 82.9951 115.643 82.1603C115.874 81.6057 116.028 81.0159 116.107 80.391C116.176 79.843 116.616 79.3935 117.168 79.3935H119.147C119.699 79.3935 120.15 79.8416 120.117 80.3929C120.065 81.257 119.943 82.0751 119.753 82.847C119.49 83.9039 119.096 84.8532 118.571 85.6947C118.053 86.5294 117.41 87.2229 116.643 87.7749C116.4 87.9095 116.165 88.0374 115.936 88.1586C115.707 88.2798 115.471 88.4077 115.229 88.5423C114.434 89.1146 113.573 89.5252 112.644 89.7743C111.721 90.0234 110.813 90.1479 109.917 90.1479Z" fill="#D1D1D1"/>
<path d="M98.524 69.1536C99.089 69.1536 99.5418 69.6212 99.5235 70.1859L99.1237 82.5353C99.1063 83.0747 98.664 83.5029 98.1243 83.5029H95.9103C95.3706 83.5029 94.9283 83.0747 94.9108 82.5353L94.511 70.1859C94.4927 69.6212 94.9455 69.1536 95.5105 69.1536H98.524ZM97.0122 90.1273C96.2919 90.1273 95.6725 89.8715 95.1542 89.3598C94.6425 88.8482 94.3867 88.2288 94.3867 87.5018C94.3867 86.7882 94.6425 86.1789 95.1542 85.674C95.6725 85.1624 96.2919 84.9066 97.0122 84.9066C97.7056 84.9066 98.3149 85.1624 98.84 85.674C99.3718 86.1789 99.6377 86.7882 99.6377 87.5018C99.6377 87.9865 99.5132 88.4274 99.2641 88.8246C99.0217 89.2218 98.702 89.5382 98.3048 89.7738C97.9143 90.0095 97.4835 90.1273 97.0122 90.1273Z" fill="#D1D1D1"/>
<path d="M84.1704 89.8344C83.5535 89.8344 83.0837 89.2813 83.1836 88.6725L86.2484 69.9917C86.3277 69.5083 86.7454 69.1536 87.2352 69.1536H88.8438C89.4607 69.1536 89.9305 69.7067 89.8306 70.3155L86.7658 88.9963C86.6865 89.4797 86.2688 89.8344 85.779 89.8344H84.1704ZM74.9571 84.9066C74.3381 84.9066 73.8678 84.3498 73.9712 83.7395L74.2483 82.1042C74.3298 81.6232 74.7464 81.2713 75.2342 81.2713H89.605C90.224 81.2713 90.6944 81.828 90.5909 82.4383L90.3139 84.0736C90.2324 84.5546 89.8157 84.9066 89.3279 84.9066H74.9571ZM76.8998 89.8344C76.2829 89.8344 75.8131 89.2813 75.913 88.6725L78.9778 69.9917C79.0571 69.5083 79.4748 69.1536 79.9646 69.1536H81.5732C82.1901 69.1536 82.6599 69.7067 82.56 70.3155L79.4952 88.9963C79.4159 89.4797 78.9982 89.8344 78.5084 89.8344H76.8998ZM76.1386 77.7167C75.5196 77.7167 75.0492 77.16 75.1527 76.5497L75.4298 74.9144C75.5113 74.4334 75.9279 74.0814 76.4157 74.0814H90.7865C91.4055 74.0814 91.8758 74.6382 91.7724 75.2485L91.4953 76.8838C91.4138 77.3648 90.9972 77.7167 90.5094 77.7167H76.1386Z" fill="#D1D1D1"/>
<defs>
<linearGradient id="paint0_linear_5118_410" x1="114.585" y1="41.8951" x2="114.585" y2="136.045" gradientUnits="userSpaceOnUse">
<stop stop-color="#5C5C5C"/>
<stop offset="0.9964" stop-color="#3A3A3A"/>
</linearGradient>
</defs>
</svg>
