<svg width="230" height="164" viewBox="0 0 230 164" fill="none" xmlns="http://www.w3.org/2000/svg">
<path d="M114.56 137.302C145.796 137.302 171.12 111.979 171.12 80.6308C171.12 49.2831 145.684 23.9595 114.56 23.9595C83.3236 23.9595 58 49.2831 58 80.6308C58 111.979 83.3236 137.302 114.56 137.302Z" fill="#F0F0F0"/>
<path d="M156.281 127.224C154.86 127.224 153.708 128.376 153.708 129.797C153.708 131.218 154.86 132.37 156.281 132.37C157.702 132.37 158.854 131.218 158.854 129.797C158.854 128.376 157.702 127.224 156.281 127.224Z" fill="#EDE5DA"/>
<path d="M169.315 120.089C168.345 120.089 167.558 120.875 167.558 121.846C167.558 122.816 168.345 123.603 169.315 123.603C170.286 123.603 171.072 122.816 171.072 121.846C171.072 120.875 170.286 120.089 169.315 120.089Z" fill="#EDE5DA"/>
<path d="M78.9426 26.5139C79.913 26.5139 80.6996 25.7273 80.6996 24.7569C80.6996 23.7865 79.913 22.9999 78.9426 22.9999C77.9722 22.9999 77.1855 23.7865 77.1855 24.7569C77.1855 25.7273 77.9722 26.5139 78.9426 26.5139Z" fill="#EDE5DA"/>
<path d="M70.8559 37.2004C72.658 37.2004 74.119 35.7395 74.119 33.9374C74.119 32.1352 72.658 30.6743 70.8559 30.6743C69.0537 30.6743 67.5928 32.1352 67.5928 33.9374C67.5928 35.7395 69.0537 37.2004 70.8559 37.2004Z" fill="#EDE5DA"/>
<g filter="url(#filter0_d_5118_408)">
<path d="M58 52.0013C58 49.2399 60.2386 47.0013 63 47.0013H166.243C169.005 47.0013 171.243 49.2399 171.243 52.0013V107.297C171.243 110.059 169.005 112.297 166.243 112.297H113.313C111.586 112.297 109.986 113.181 109.004 114.602C105.641 119.473 97.2129 130.647 88.5526 134.057C85.9831 135.068 83.684 132.824 83.684 130.063V117.297C83.684 114.536 81.4454 112.297 78.684 112.297H63C60.2386 112.297 58 110.059 58 107.297V52.0013Z" fill="url(#paint0_linear_5118_408)"/>
</g>
<path fill-rule="evenodd" clip-rule="evenodd" d="M185.987 50.8569C186.026 51.657 185.41 52.3378 184.61 52.3774L176.692 52.7691C175.892 52.8087 175.211 52.1922 175.171 51.3921C175.132 50.5919 175.748 49.9112 176.548 49.8716L184.466 49.4799C185.266 49.4403 185.947 50.0568 185.987 50.8569Z" fill="#EDE5DA"/>
<path fill-rule="evenodd" clip-rule="evenodd" d="M181.719 41.9925C182.098 42.6984 181.833 43.5777 181.127 43.9565L177.127 46.1031C176.421 46.4818 175.542 46.2167 175.163 45.5108C174.784 44.8049 175.049 43.9256 175.755 43.5468L179.755 41.4003C180.461 41.0215 181.341 41.2867 181.719 41.9925Z" fill="#EDE5DA"/>
<path fill-rule="evenodd" clip-rule="evenodd" d="M170.417 43.8924C169.649 43.6662 169.209 42.8599 169.435 42.0913L172.374 32.106C172.601 31.3375 173.407 30.8979 174.175 31.1241C174.944 31.3503 175.384 32.1566 175.157 32.9251L172.218 42.9105C171.992 43.679 171.186 44.1186 170.417 43.8924Z" fill="#EDE5DA"/>
<path d="M152.563 69.1538C153.128 69.1538 153.581 69.6215 153.563 70.1862L153.163 82.5355C153.145 83.0749 152.703 83.5032 152.163 83.5032H149.949C149.41 83.5032 148.967 83.0749 148.95 82.5355L148.55 70.1862C148.532 69.6215 148.985 69.1538 149.55 69.1538H152.563ZM151.051 90.1275C150.331 90.1275 149.712 89.8717 149.193 89.3601C148.682 88.8484 148.426 88.2291 148.426 87.502C148.426 86.7884 148.682 86.1792 149.193 85.6743C149.712 85.1626 150.331 84.9068 151.051 84.9068C151.745 84.9068 152.354 85.1626 152.879 85.6743C153.411 86.1792 153.677 86.7884 153.677 87.502C153.677 87.9867 153.552 88.4277 153.303 88.8249C153.061 89.2221 152.741 89.5385 152.344 89.7741C151.953 90.0097 151.523 90.1275 151.051 90.1275Z" fill="#D9D2C7"/>
<path d="M134.451 85.9573V84.8667C134.451 84.0185 134.632 83.2342 134.996 82.5138C135.366 81.7935 135.901 81.2146 136.602 80.777C137.302 80.3394 138.157 80.1206 139.167 80.1206C140.197 80.1206 141.062 80.3394 141.762 80.777C142.469 81.2078 143 81.7834 143.357 82.5037C143.721 83.2173 143.903 84.005 143.903 84.8667V85.9573C143.903 86.8055 143.721 87.5898 143.357 88.3101C142.994 89.0305 142.458 89.6094 141.752 90.047C141.045 90.4846 140.183 90.7034 139.167 90.7034C138.143 90.7034 137.282 90.4846 136.581 90.047C135.881 89.6094 135.349 89.0305 134.986 88.3101C134.629 87.5898 134.451 86.8055 134.451 85.9573ZM137.672 84.8667V85.9573C137.672 86.3881 137.776 86.8022 137.985 87.1993C138.2 87.5965 138.594 87.7951 139.167 87.7951C139.752 87.7951 140.146 87.6033 140.348 87.2195C140.55 86.8291 140.651 86.4083 140.651 85.9573V84.8667C140.651 84.4156 140.553 83.9915 140.358 83.5943C140.17 83.1904 139.772 82.9884 139.167 82.9884C138.601 82.9884 138.211 83.1904 137.995 83.5943C137.78 83.9915 137.672 84.4156 137.672 84.8667ZM123.727 74.1223V73.0317C123.727 72.17 123.912 71.3824 124.282 70.6688C124.659 69.9485 125.198 69.3729 125.898 68.942C126.598 68.5044 127.446 68.2856 128.442 68.2856C129.472 68.2856 130.337 68.5044 131.038 68.942C131.744 69.3729 132.28 69.9485 132.643 70.6688C133.007 71.3824 133.188 72.17 133.188 73.0317V74.1223C133.188 74.984 133.003 75.7717 132.633 76.4853C132.27 77.1989 131.734 77.7677 131.027 78.1919C130.321 78.616 129.459 78.828 128.442 78.828C127.426 78.828 126.564 78.6126 125.857 78.1818C125.157 77.7509 124.625 77.1787 124.262 76.4651C123.905 75.7515 123.727 74.9706 123.727 74.1223ZM126.978 73.0317V74.1223C126.978 74.5734 127.082 74.9941 127.291 75.3846C127.507 75.7683 127.89 75.9602 128.442 75.9602C129.035 75.9602 129.429 75.7683 129.624 75.3846C129.826 74.9941 129.927 74.5734 129.927 74.1223V73.0317C129.927 72.5807 129.833 72.1566 129.644 71.7594C129.456 71.3555 129.055 71.1535 128.442 71.1535C127.877 71.1535 127.49 71.3588 127.281 71.7695C127.079 72.1801 126.978 72.6009 126.978 73.0317ZM127.152 89.8349C126.347 89.8349 125.872 88.9319 126.328 88.2684L139.171 69.5876C139.358 69.3162 139.666 69.1541 139.995 69.1541H140.325C141.13 69.1541 141.605 70.0571 141.149 70.7206L128.306 89.4015C128.12 89.6728 127.811 89.8349 127.482 89.8349H127.152Z" fill="#D9D2C7"/>
<path d="M109.917 90.1479C108.463 90.1479 107.208 89.8887 106.151 89.3704C105.1 88.852 104.293 88.1552 103.727 87.2801C103.162 86.3982 102.879 85.4187 102.879 84.3415C102.879 83.5471 103.034 82.847 103.343 82.2411C103.66 81.6285 104.094 81.0664 104.646 80.5548C105.205 80.0364 105.854 79.5281 106.595 79.0299L110.937 76.253C111.429 75.9433 111.775 75.6168 111.977 75.2735C112.186 74.9301 112.29 74.5868 112.29 74.2434C112.29 73.8732 112.146 73.5366 111.856 73.2336C111.573 72.9307 111.153 72.7826 110.594 72.7893C110.237 72.7893 109.927 72.8634 109.665 73.0115C109.402 73.1596 109.197 73.3582 109.049 73.6073C108.907 73.8564 108.837 74.1391 108.837 74.4555C108.837 74.8662 108.955 75.2869 109.19 75.7178C109.426 76.1486 109.742 76.6064 110.139 77.0911C110.543 77.5758 110.991 78.111 111.482 78.6967L119.908 88.1703C120.482 88.8152 120.024 89.8349 119.161 89.8349H116.798C116.519 89.8349 116.252 89.718 116.063 89.5125L108.069 80.8375C107.598 80.3124 107.103 79.7233 106.585 79.0703C106.067 78.4173 105.629 77.7037 105.272 76.9295C104.915 76.1486 104.737 75.3004 104.737 74.3848C104.737 73.3548 104.979 72.4224 105.464 71.5877C105.949 70.7529 106.629 70.0898 107.504 69.5983C108.386 69.1002 109.412 68.8511 110.584 68.8511C111.715 68.8511 112.691 69.0833 113.512 69.5478C114.333 70.0124 114.966 70.6283 115.411 71.3958C115.855 72.1632 116.077 73.0048 116.077 73.9203C116.077 74.8897 115.838 75.7817 115.36 76.5963C114.882 77.4041 114.206 78.1211 113.33 78.7472L109.079 81.7867C108.628 82.1099 108.275 82.4566 108.019 82.8268C107.763 83.1903 107.635 83.5875 107.635 84.0184C107.635 84.4627 107.739 84.8498 107.948 85.1797C108.164 85.5095 108.467 85.7687 108.857 85.9572C109.247 86.1457 109.705 86.24 110.23 86.24C110.93 86.24 111.631 86.075 112.331 85.7452C113.031 85.4086 113.67 84.9373 114.249 84.3314C114.828 83.7188 115.293 82.9951 115.643 82.1603C115.874 81.6057 116.028 81.0159 116.107 80.391C116.176 79.843 116.616 79.3935 117.168 79.3935H119.147C119.699 79.3935 120.15 79.8416 120.117 80.3929C120.065 81.257 119.943 82.0751 119.753 82.847C119.49 83.9039 119.096 84.8532 118.571 85.6947C118.053 86.5294 117.41 87.2229 116.643 87.7749C116.4 87.9095 116.165 88.0374 115.936 88.1586C115.707 88.2798 115.471 88.4077 115.229 88.5423C114.434 89.1146 113.573 89.5252 112.644 89.7743C111.721 90.0234 110.813 90.1479 109.917 90.1479Z" fill="#D9D2C7"/>
<path d="M98.524 69.1538C99.089 69.1538 99.5418 69.6215 99.5235 70.1862L99.1237 82.5355C99.1063 83.0749 98.664 83.5032 98.1243 83.5032H95.9103C95.3706 83.5032 94.9283 83.0749 94.9108 82.5355L94.511 70.1862C94.4927 69.6215 94.9455 69.1538 95.5105 69.1538H98.524ZM97.0122 90.1275C96.2919 90.1275 95.6725 89.8717 95.1542 89.3601C94.6425 88.8484 94.3867 88.2291 94.3867 87.502C94.3867 86.7884 94.6425 86.1792 95.1542 85.6743C95.6725 85.1626 96.2919 84.9068 97.0122 84.9068C97.7056 84.9068 98.3149 85.1626 98.84 85.6743C99.3718 86.1792 99.6377 86.7884 99.6377 87.502C99.6377 87.9867 99.5132 88.4277 99.2641 88.8249C99.0217 89.2221 98.702 89.5385 98.3048 89.7741C97.9143 90.0097 97.4835 90.1275 97.0122 90.1275Z" fill="#D9D2C7"/>
<path d="M84.1704 89.8347C83.5535 89.8347 83.0837 89.2816 83.1836 88.6728L86.2484 69.9919C86.3277 69.5086 86.7454 69.1538 87.2352 69.1538H88.8438C89.4607 69.1538 89.9305 69.7069 89.8306 70.3157L86.7658 88.9966C86.6865 89.4799 86.2688 89.8347 85.779 89.8347H84.1704ZM74.9571 84.9068C74.3381 84.9068 73.8678 84.3501 73.9712 83.7398L74.2483 82.1044C74.3298 81.6235 74.7464 81.2715 75.2342 81.2715H89.605C90.224 81.2715 90.6944 81.8282 90.5909 82.4386L90.3139 84.0739C90.2324 84.5548 89.8157 84.9068 89.3279 84.9068H74.9571ZM76.8998 89.8347C76.2829 89.8347 75.8131 89.2816 75.913 88.6728L78.9778 69.9919C79.0571 69.5086 79.4748 69.1538 79.9646 69.1538H81.5732C82.1901 69.1538 82.6599 69.7069 82.56 70.3157L79.4952 88.9966C79.4159 89.4799 78.9982 89.8347 78.5084 89.8347H76.8998ZM76.1386 77.717C75.5196 77.717 75.0492 77.1603 75.1527 76.5499L75.4298 74.9146C75.5113 74.4336 75.9279 74.0817 76.4157 74.0817H90.7865C91.4055 74.0817 91.8758 74.6384 91.7724 75.2487L91.4953 76.884C91.4138 77.365 90.9972 77.717 90.5094 77.717H76.1386Z" fill="#D9D2C7"/>
<defs>
<filter id="filter0_d_5118_408" x="36" y="32.0013" width="157.243" height="131.302" filterUnits="userSpaceOnUse" color-interpolation-filters="sRGB">
<feFlood flood-opacity="0" result="BackgroundImageFix"/>
<feColorMatrix in="SourceAlpha" type="matrix" values="0 0 0 0 0 0 0 0 0 0 0 0 0 0 0 0 0 0 127 0" result="hardAlpha"/>
<feOffset dy="7"/>
<feGaussianBlur stdDeviation="11"/>
<feColorMatrix type="matrix" values="0 0 0 0 0.576471 0 0 0 0 0.501961 0 0 0 0 0.396078 0 0 0 0.37 0"/>
<feBlend mode="normal" in2="BackgroundImageFix" result="effect1_dropShadow_5118_408"/>
<feBlend mode="normal" in="SourceGraphic" in2="effect1_dropShadow_5118_408" result="shape"/>
</filter>
<linearGradient id="paint0_linear_5118_408" x1="114.585" y1="44.9644" x2="114.585" y2="136.012" gradientUnits="userSpaceOnUse">
<stop stop-color="#FDFEFF"/>
<stop offset="0.9964" stop-color="#F5F2EC"/>
</linearGradient>
</defs>
</svg>
