<svg width="24" height="24" viewBox="0 0 24 24" fill="none" xmlns="http://www.w3.org/2000/svg">
<path fill-rule="evenodd" clip-rule="evenodd" d="M10 9.09299C10 8.06276 9.53446 7.26122 8.84343 6.73788C8.17343 6.23047 7.318 6.00001 6.50001 6C5.68203 5.99999 4.82659 6.23041 4.15658 6.73781C3.46554 7.26114 3 8.06268 3 9.09292C3 10.1606 3.47114 10.9224 4.12051 11.4805C4.71514 11.9916 5.48229 12.3494 6.13586 12.6543L6.18281 12.6762C6.89429 13.0082 7.47943 13.2872 7.90175 13.6501C8.28364 13.9783 8.49999 14.3475 8.5 14.9C8.50001 15.4371 8.27674 15.81 7.93647 16.0689C7.57532 16.3438 7.05628 16.5044 6.50006 16.5044C5.94385 16.5044 5.42479 16.3438 5.06361 16.0689C4.72331 15.81 4.50001 15.437 4.5 14.9C4.49999 14.4858 4.16419 14.15 3.74998 14.15C3.33577 14.15 2.99999 14.4858 3 14.9C3.00003 15.9326 3.46426 16.7368 4.15523 17.2626C4.82532 17.7725 5.68128 18.0044 6.50006 18.0044C7.31885 18.0044 8.1748 17.7725 8.84487 17.2626C9.53583 16.7368 10 15.9325 10 14.9C9.99997 13.8323 9.5288 13.0706 8.87943 12.5125C8.28482 12.0015 7.51771 11.6437 6.86417 11.3388L6.81713 11.3169C6.10565 10.9849 5.52052 10.7059 5.09822 10.3429C4.71635 10.0147 4.5 9.6455 4.5 9.09292C4.5 8.56118 4.72196 8.19125 5.06217 7.93361C5.42341 7.66003 5.94297 7.49999 6.49999 7.5C7.057 7.50001 7.57657 7.66007 7.93782 7.93366C8.27804 8.19132 8.5 8.56127 8.5 9.09299C8.5 9.50721 8.83579 9.84299 9.25 9.84299C9.66421 9.84299 10 9.50721 10 9.09299ZM14.5 6.85C14.5 6.38056 14.8806 6 15.35 6H18C19.1209 6 20.0169 6.4273 20.6251 7.11078C21.2211 7.78053 21.5031 8.65247 21.5031 9.5C21.5031 10.3475 21.2211 11.2195 20.6251 11.8892C20.0169 12.5727 19.1209 13 18 13H16V17.25C16 17.6642 15.6642 18 15.25 18C14.8358 18 14.5 17.6642 14.5 17.25V12.25V6.85ZM16 11.5H18C18.7145 11.5 19.1951 11.2398 19.5046 10.892C19.8263 10.5305 20.0031 10.0275 20.0031 9.5C20.0031 8.97253 19.8263 8.46947 19.5046 8.10797C19.1951 7.7602 18.7145 7.5 18 7.5H16V11.5ZM12 6.00073C12.4142 6.00073 12.75 6.33652 12.75 6.75073V17.25C12.75 17.6642 12.4142 18 12 18C11.5858 18 11.25 17.6642 11.25 17.25V6.75073C11.25 6.33652 11.5858 6.00073 12 6.00073Z" fill="#212121"/>
</svg>
