<svg width="24" height="24" viewBox="0 0 24 24" fill="none" xmlns="http://www.w3.org/2000/svg">
<path fill-rule="evenodd" clip-rule="evenodd" d="M10 9.34299C10 8.22968 9.49386 7.35621 8.74436 6.78859C8.0229 6.2422 7.1115 6.00002 6.25002 6C5.38854 5.99999 4.47712 6.24214 3.75565 6.78851C3.00614 7.35612 2.5 8.2296 2.5 9.34292C2.5 10.5052 3.02299 11.3176 3.75039 11.8761C4.38601 12.3641 5.19403 12.6667 5.83473 12.9066L5.83474 12.9066L5.89889 12.9307C6.62367 13.2024 7.15742 13.4116 7.53164 13.6989C7.83549 13.9322 7.99999 14.1876 8 14.6456C8.00001 15.1 7.81689 15.4011 7.53507 15.6156C7.2254 15.8512 6.76252 15.9999 6.25006 15.9999C5.73761 15.9999 5.2747 15.8512 4.965 15.6156C4.68316 15.4011 4.50001 15.1 4.5 14.6455C4.49999 14.0933 4.05226 13.6456 3.49997 13.6456C2.94769 13.6456 2.49999 14.0933 2.5 14.6456C2.50003 15.7607 3.00442 16.6368 3.75384 17.2071C4.47541 17.7562 5.38752 17.9999 6.25006 17.9999C7.11261 17.9999 8.02471 17.7562 8.74627 17.2071C9.49568 16.6368 10 15.7607 10 14.6455C9.99997 13.4833 9.47694 12.6709 8.74954 12.1125C8.11394 11.6245 7.30596 11.3219 6.66529 11.082L6.66528 11.082L6.60104 11.058C5.87628 10.7862 5.34254 10.577 4.96834 10.2897C4.6645 10.0564 4.5 9.80095 4.5 9.34292C4.5 8.89426 4.68136 8.59626 4.9631 8.3829C5.27288 8.1483 5.73646 7.99999 6.24998 8C6.7635 8.00001 7.22709 8.14834 7.53689 8.38296C7.81864 8.59634 8 8.89435 8 9.34299C8 9.89528 8.44772 10.343 9 10.343C9.55228 10.343 10 9.89528 10 9.34299ZM12 6C12.5523 6 13 6.44772 13 7V16.9993C13 17.5516 12.5523 17.9993 12 17.9993C11.4477 17.9993 11 17.5516 11 16.9993V7C11 6.44772 11.4477 6 12 6ZM14 7.1C14 6.49249 14.4925 6 15.1 6H17.7499C18.9129 6 19.8501 6.46856 20.4812 7.21239C21.0939 7.93448 21.375 8.86163 21.375 9.75C21.375 10.6384 21.0939 11.5655 20.4812 12.2876C19.8501 13.0314 18.9129 13.5 17.7499 13.5H16V17C16 17.5523 15.5523 18 15 18C14.4477 18 14 17.5523 14 17V12.5V7.1ZM16 11.5H17.7499C18.3369 11.5 18.7123 11.2811 18.9562 10.9936C19.2185 10.6845 19.375 10.2366 19.375 9.75C19.375 9.26337 19.2185 8.81552 18.9562 8.50636C18.7123 8.21894 18.3369 8 17.7499 8H16V11.5Z" fill="#212121"/>
</svg>
