<svg xmlns="http://www.w3.org/2000/svg" width="230" height="160" fill="none"><path fill="#000" fill-opacity=".08" d="M115 134.5c30.375 0 55-24.577 55-55s-24.625-55-55-55-55 24.577-55 55 24.625 55 55 55"/><path fill="#ebe2d7" d="M160.31 46.895c2.38 0 4.309-1.938 4.309-4.328s-1.929-4.329-4.309-4.329-4.31 1.938-4.31 4.329 1.929 4.328 4.31 4.328M45.835 70.303a2.84 2.84 0 0 0 2.835-2.848 2.84 2.84 0 0 0-2.835-2.847A2.84 2.84 0 0 0 43 67.455a2.84 2.84 0 0 0 2.835 2.848M58.868 121.5a2.84 2.84 0 0 0 2.835-2.848 2.84 2.84 0 0 0-2.835-2.847 2.84 2.84 0 0 0-2.835 2.847 2.84 2.84 0 0 0 2.835 2.848M61.703 38.976h-2.468V36.5H57.12v2.476h-2.467v2.194h2.467v2.476h2.116V41.17h2.467zM67.124 101.108h-2.468v-2.476h-2.115v2.476h-2.467v2.194h2.467v2.476h2.115v-2.476h2.468zM175 101.248l-3.019-1.53 1.524-3.03-2.588-1.31-1.524 3.03-3.02-1.53-1.35 2.683 3.02 1.53-1.525 3.03 2.588 1.311 1.525-3.03 3.019 1.53z"/><g filter="url(#a)"><path fill="url(#b)" d="m115 113.5-42-12v-18l42 12z"/><path fill="#ede5da" d="m115 113.5 42-12v-18l-42 12z"/><path stroke="url(#c)" stroke-width=".3" d="M114.85 95.613v17.688l-41.7-11.914V83.699zm42 5.774-41.7 11.914V95.613l41.7-11.914z"/></g><g filter="url(#d)"><path fill="#e4e0da" d="M115 71.5c17.359 4.789 42 12 42 12l-42 12-42-12z"/></g><g filter="url(#e)"><path fill="#868582" d="M111.033 104.572a1 1 0 0 1-1.289.928l-10.908-3.29a1 1 0 0 1-.71-.986l.07-2.432a1 1 0 0 1 1.28-.931l10.911 3.171a1 1 0 0 1 .72.989z"/><path stroke="url(#f)" stroke-opacity=".4" stroke-width=".3" d="M98.347 98.796a.85.85 0 0 1 1.086-.791l10.912 3.171a.85.85 0 0 1 .612.841l-.075 2.551a.85.85 0 0 1-1.095.788l-10.908-3.289a.85.85 0 0 1-.604-.839z"/></g><ellipse cx="78.894" cy="94.512" fill="#868582" rx="1.5" ry="1.979" transform="rotate(-13.52 78.894 94.512)"/><ellipse cx="83.283" cy="95.81" fill="#868582" rx="1.5" ry="1.979" transform="rotate(-13.52 83.283 95.81)"/><ellipse cx="87.672" cy="97.109" fill="#868582" rx="1.5" ry="1.979" transform="rotate(-13.52 87.672 97.109)"/><g filter="url(#g)"><path fill="url(#h)" d="m115 84.5-42-12v-18l42 12z"/><path fill="#ede5da" d="m115 84.5 42-12v-18l-42 12z"/><path stroke="url(#i)" stroke-width=".3" d="M114.85 66.613v17.688l-41.7-11.914V54.699zm42 5.774L115.15 84.3V66.613l41.7-11.914z"/></g><g filter="url(#j)"><path fill="url(#k)" d="M115 42.5c17.359 4.789 42 12 42 12l-42 12-42-12z"/></g><g filter="url(#l)"><path fill="#868582" d="M111.033 75.572a1 1 0 0 1-1.289.928l-10.908-3.29a1 1 0 0 1-.71-.986l.07-2.432a1 1 0 0 1 1.28-.931l10.911 3.17a1 1 0 0 1 .72.99z"/><path stroke="url(#m)" stroke-opacity=".4" stroke-width=".3" d="M98.347 69.796a.85.85 0 0 1 1.086-.791l10.912 3.17a.85.85 0 0 1 .612.842l-.075 2.55a.85.85 0 0 1-1.095.79l-10.908-3.29a.85.85 0 0 1-.604-.839z"/></g><ellipse cx="78.894" cy="65.512" fill="#868582" rx="1.5" ry="1.979" transform="rotate(-13.52 78.894 65.512)"/><ellipse cx="83.283" cy="66.81" fill="#868582" rx="1.5" ry="1.979" transform="rotate(-13.52 83.283 66.81)"/><ellipse cx="87.672" cy="68.109" fill="#868582" rx="1.5" ry="1.979" transform="rotate(-13.52 87.672 68.109)"/><g filter="url(#n)"><path fill="url(#o)" d="M160.364 111.997c-.346 1.47-.865 3.027-1.47 4.324-1.644 3.201-4.239 5.709-7.439 7.352-3.287 1.644-7.179 2.336-11.071 1.471-9.169-1.903-15.05-10.898-13.148-20.067 1.903-9.168 10.812-15.137 19.981-13.147 3.287.692 6.141 2.335 8.563 4.584 4.065 4.065 5.795 9.947 4.584 15.483"/><path fill="url(#p)" fill-opacity=".7" d="M160.364 111.997c-.346 1.47-.865 3.027-1.47 4.324-1.644 3.201-4.239 5.709-7.439 7.352-3.287 1.644-7.179 2.336-11.071 1.471-9.169-1.903-15.05-10.898-13.148-20.067 1.903-9.168 10.812-15.137 19.981-13.147 3.287.692 6.141 2.335 8.563 4.584 4.065 4.065 5.795 9.947 4.584 15.483"/><path stroke="url(#q)" d="M127.726 105.179c1.848-8.904 10.495-14.69 19.384-12.761h.004c3.184.671 5.959 2.264 8.325 4.462 3.935 3.944 5.607 9.642 4.438 15.002-.339 1.439-.846 2.96-1.434 4.221-1.593 3.097-4.107 5.529-7.216 7.126-3.197 1.597-6.971 2.264-10.735 1.427l-.096.433.096-.434-.007-.001-.415-.092c-8.658-2.027-14.162-10.623-12.344-19.383Z"/></g><g filter="url(#r)"><path fill="url(#s)" d="M146.834 102.053h.891c3.563 0 6.448 2.901 6.448 6.476 0 3.459-2.702 6.287-6.095 6.466l-.342.009-.891.008a1.295 1.295 0 0 1-.199-2.577l.176-.013.903-.008c2.129 0 3.857-1.738 3.857-3.885 0-2.058-1.587-3.74-3.593-3.877l-.264-.009h-.891a1.295 1.295 0 0 1-.176-2.578zh.891zm-6.904 0h.859a1.295 1.295 0 0 1 .176 2.578l-.176.012h-.859a3.889 3.889 0 0 0-.266 7.77l.266.009h.859a1.295 1.295 0 0 1 .176 2.578l-.176.012h-.859a6.48 6.48 0 0 1-.344-12.95zh.859zm-.004 5.18h7.771a1.295 1.295 0 0 1 .176 2.579l-.176.012h-7.771a1.295 1.295 0 0 1-.176-2.579zh7.771z"/><path stroke="#fde290" stroke-width=".2" d="M140.789 102.152a1.196 1.196 0 0 1 .169 2.379l-.175.012h-.853a3.99 3.99 0 0 0-.273 7.97h.003l.267.008h.862a1.196 1.196 0 0 1 .169 2.379l-.175.012h-.853a6.38 6.38 0 0 1-.342-12.751l.001.001.344-.01zm6.936 0c3.506 0 6.348 2.856 6.348 6.376 0 3.3-2.497 6.016-5.689 6.343l-.312.025-.339.008-.889.008a1.195 1.195 0 0 1-.188-2.378l.166-.013.001.001.903-.008-.001-.001c2.184 0 3.958-1.783 3.958-3.985 0-2.11-1.628-3.836-3.687-3.976h-.004l-.263-.009h-.895a1.195 1.195 0 0 1-.163-2.379l-.001-.001.17-.011zm-.028 5.181a1.196 1.196 0 0 1 .166 2.379l-.173.012h-7.764a1.196 1.196 0 0 1-.162-2.379l-.001-.001.17-.011z"/></g><defs><linearGradient id="b" x1="114.973" x2="114.973" y1="82.806" y2="113.823" gradientUnits="userSpaceOnUse"><stop stop-color="#fdfeff"/><stop offset=".996" stop-color="#f5f2ec"/></linearGradient><linearGradient id="c" x1="115" x2="115" y1="83.5" y2="113.5" gradientUnits="userSpaceOnUse"><stop stop-color="#fff2cb"/><stop offset="1" stop-color="#fff" stop-opacity="0"/></linearGradient><linearGradient id="f" x1="102.5" x2="110.5" y1="98.5" y2="105" gradientUnits="userSpaceOnUse"><stop stop-color="#c6c6c6" stop-opacity="0"/><stop offset="1" stop-color="#fff2cb"/></linearGradient><linearGradient id="h" x1="114.973" x2="114.973" y1="53.806" y2="84.823" gradientUnits="userSpaceOnUse"><stop offset=".173" stop-color="#fdfeff"/><stop offset=".572" stop-color="#f9f8f6"/><stop offset=".996" stop-color="#f5f2ec"/></linearGradient><linearGradient id="i" x1="115" x2="115" y1="54.5" y2="84.5" gradientUnits="userSpaceOnUse"><stop stop-color="#fff" stop-opacity="0"/><stop offset="1" stop-color="#fff2cb"/></linearGradient><linearGradient id="k" x1="74.769" x2="74.769" y1="13.058" y2="40.289" gradientUnits="userSpaceOnUse"><stop stop-color="#fff"/><stop offset=".996" stop-color="#e9e5e0"/></linearGradient><linearGradient id="m" x1="102.5" x2="110.5" y1="69.5" y2="76" gradientUnits="userSpaceOnUse"><stop stop-color="#c6c6c6" stop-opacity="0"/><stop offset="1" stop-color="#fff2cb"/></linearGradient><linearGradient id="o" x1="143.8" x2="143.8" y1="90.761" y2="125.885" gradientUnits="userSpaceOnUse"><stop stop-color="#d5d4d4"/><stop offset=".996" stop-color="#828282"/></linearGradient><linearGradient id="q" x1="143.811" x2="143.811" y1="91.547" y2="125.518" gradientUnits="userSpaceOnUse"><stop offset=".024" stop-color="#fff2cb"/><stop offset=".13" stop-color="#ededed"/><stop offset=".496" stop-color="#b6b6b6" stop-opacity="0"/></linearGradient><linearGradient id="s" x1="143.811" x2="143.811" y1="102.053" y2="115.012" gradientUnits="userSpaceOnUse"><stop stop-color="#ffe8a4"/><stop offset="1" stop-color="#ffd24a"/></linearGradient><filter id="a" width="108" height="54" x="61" y="77.5" color-interpolation-filters="sRGB" filterUnits="userSpaceOnUse"><feFlood flood-opacity="0" result="BackgroundImageFix"/><feColorMatrix in="SourceAlpha" result="hardAlpha" values="0 0 0 0 0 0 0 0 0 0 0 0 0 0 0 0 0 0 127 0"/><feOffset dy="6"/><feGaussianBlur stdDeviation="6"/><feComposite in2="hardAlpha" operator="out"/><feColorMatrix values="0 0 0 0 0 0 0 0 0 0 0 0 0 0 0 0 0 0 0.24 0"/><feBlend in2="BackgroundImageFix" result="effect1_dropShadow_7169_1579"/><feBlend in="SourceGraphic" in2="effect1_dropShadow_7169_1579" result="shape"/></filter><filter id="d" width="116" height="56" x="57" y="61.5" color-interpolation-filters="sRGB" filterUnits="userSpaceOnUse"><feFlood flood-opacity="0" result="BackgroundImageFix"/><feColorMatrix in="SourceAlpha" result="hardAlpha" values="0 0 0 0 0 0 0 0 0 0 0 0 0 0 0 0 0 0 127 0"/><feOffset dy="6"/><feGaussianBlur stdDeviation="8"/><feColorMatrix values="0 0 0 0 0.576471 0 0 0 0 0.501961 0 0 0 0 0.396078 0 0 0 0.37 0"/><feBlend in2="BackgroundImageFix" result="effect1_dropShadow_7169_1579"/><feBlend in="SourceGraphic" in2="effect1_dropShadow_7169_1579" result="shape"/></filter><filter id="e" width="36.983" height="31.723" x="86.125" y="91.82" color-interpolation-filters="sRGB" filterUnits="userSpaceOnUse"><feFlood flood-opacity="0" result="BackgroundImageFix"/><feColorMatrix in="SourceAlpha" result="hardAlpha" values="0 0 0 0 0 0 0 0 0 0 0 0 0 0 0 0 0 0 127 0"/><feOffset dy="6"/><feGaussianBlur stdDeviation="6"/><feComposite in2="hardAlpha" operator="out"/><feColorMatrix values="0 0 0 0 0.576471 0 0 0 0 0.501961 0 0 0 0 0.396078 0 0 0 0.24 0"/><feBlend in2="BackgroundImageFix" result="effect1_dropShadow_7169_1579"/><feBlend in="SourceGraphic" in2="effect1_dropShadow_7169_1579" result="shape"/></filter><filter id="g" width="108" height="54" x="61" y="48.5" color-interpolation-filters="sRGB" filterUnits="userSpaceOnUse"><feFlood flood-opacity="0" result="BackgroundImageFix"/><feColorMatrix in="SourceAlpha" result="hardAlpha" values="0 0 0 0 0 0 0 0 0 0 0 0 0 0 0 0 0 0 127 0"/><feOffset dy="6"/><feGaussianBlur stdDeviation="6"/><feComposite in2="hardAlpha" operator="out"/><feColorMatrix values="0 0 0 0 0 0 0 0 0 0 0 0 0 0 0 0 0 0 0.34 0"/><feBlend in2="BackgroundImageFix" result="effect1_dropShadow_7169_1579"/><feBlend in="SourceGraphic" in2="effect1_dropShadow_7169_1579" result="shape"/></filter><filter id="j" width="116" height="56" x="57" y="32.5" color-interpolation-filters="sRGB" filterUnits="userSpaceOnUse"><feFlood flood-opacity="0" result="BackgroundImageFix"/><feColorMatrix in="SourceAlpha" result="hardAlpha" values="0 0 0 0 0 0 0 0 0 0 0 0 0 0 0 0 0 0 127 0"/><feOffset dy="6"/><feGaussianBlur stdDeviation="8"/><feColorMatrix values="0 0 0 0 0.576471 0 0 0 0 0.501961 0 0 0 0 0.396078 0 0 0 0.37 0"/><feBlend in2="BackgroundImageFix" result="effect1_dropShadow_7169_1579"/><feBlend in="SourceGraphic" in2="effect1_dropShadow_7169_1579" result="shape"/></filter><filter id="l" width="36.983" height="31.723" x="86.125" y="62.82" color-interpolation-filters="sRGB" filterUnits="userSpaceOnUse"><feFlood flood-opacity="0" result="BackgroundImageFix"/><feColorMatrix in="SourceAlpha" result="hardAlpha" values="0 0 0 0 0 0 0 0 0 0 0 0 0 0 0 0 0 0 127 0"/><feOffset dy="6"/><feGaussianBlur stdDeviation="6"/><feComposite in2="hardAlpha" operator="out"/><feColorMatrix values="0 0 0 0 0.576471 0 0 0 0 0.501961 0 0 0 0 0.396078 0 0 0 0.24 0"/><feBlend in2="BackgroundImageFix" result="effect1_dropShadow_7169_1579"/><feBlend in="SourceGraphic" in2="effect1_dropShadow_7169_1579" result="shape"/></filter><filter id="n" width="65.865" height="65.972" x="112.879" y="81.547" color-interpolation-filters="sRGB" filterUnits="userSpaceOnUse"><feFlood flood-opacity="0" result="BackgroundImageFix"/><feColorMatrix in="SourceAlpha" result="hardAlpha" values="0 0 0 0 0 0 0 0 0 0 0 0 0 0 0 0 0 0 127 0"/><feOffset dx="2" dy="6"/><feGaussianBlur stdDeviation="8"/><feComposite in2="hardAlpha" operator="out"/><feColorMatrix values="0 0 0 0 0 0 0 0 0 0 0 0 0 0 0 0 0 0 0.24 0"/><feBlend in2="BackgroundImageFix" result="effect1_dropShadow_7169_1579"/><feColorMatrix in="SourceAlpha" result="hardAlpha" values="0 0 0 0 0 0 0 0 0 0 0 0 0 0 0 0 0 0 127 0"/><feOffset dy="1"/><feGaussianBlur stdDeviation="1"/><feComposite in2="hardAlpha" operator="out"/><feColorMatrix values="0 0 0 0 0 0 0 0 0 0 0 0 0 0 0 0 0 0 0.24 0"/><feBlend in2="effect1_dropShadow_7169_1579" result="effect2_dropShadow_7169_1579"/><feBlend in="SourceGraphic" in2="effect2_dropShadow_7169_1579" result="shape"/></filter><filter id="r" width="52.722" height="44.959" x="117.45" y="86.053" color-interpolation-filters="sRGB" filterUnits="userSpaceOnUse"><feFlood flood-opacity="0" result="BackgroundImageFix"/><feColorMatrix in="SourceAlpha" result="hardAlpha" values="0 0 0 0 0 0 0 0 0 0 0 0 0 0 0 0 0 0 127 0"/><feOffset dy="2"/><feGaussianBlur stdDeviation="2"/><feComposite in2="hardAlpha" operator="out"/><feColorMatrix values="0 0 0 0 0 0 0 0 0 0 0 0 0 0 0 0 0 0 0.23 0"/><feBlend in2="BackgroundImageFix" result="effect1_dropShadow_7169_1579"/><feColorMatrix in="SourceAlpha" result="hardAlpha" values="0 0 0 0 0 0 0 0 0 0 0 0 0 0 0 0 0 0 127 0"/><feOffset/><feGaussianBlur stdDeviation="8"/><feComposite in2="hardAlpha" operator="out"/><feColorMatrix values="0 0 0 0 1 0 0 0 0 0.905273 0 0 0 0 0.621094 0 0 0 1 0"/><feBlend in2="effect1_dropShadow_7169_1579" result="effect2_dropShadow_7169_1579"/><feBlend in="SourceGraphic" in2="effect2_dropShadow_7169_1579" result="shape"/></filter><radialGradient id="p" cx="0" cy="0" r="1" gradientTransform="matrix(0 16.9858 -16.9323 0 143.811 108.533)" gradientUnits="userSpaceOnUse"><stop offset=".178" stop-color="#faedc4"/><stop offset="1" stop-color="#b9b9b9" stop-opacity="0"/></radialGradient></defs></svg>