<svg xmlns="http://www.w3.org/2000/svg" width="230" height="160" fill="none"><path fill="#000" fill-opacity=".12" d="M115 134.5c30.375 0 55-24.577 55-55s-24.625-55-55-55-55 24.577-55 55 24.625 55 55 55"/><path fill="#5c5c5c" d="M160.31 46.895c2.38 0 4.309-1.938 4.309-4.328s-1.929-4.329-4.309-4.329-4.31 1.938-4.31 4.329 1.929 4.328 4.31 4.328M45.835 70.303a2.84 2.84 0 0 0 2.835-2.848 2.84 2.84 0 0 0-2.835-2.847A2.84 2.84 0 0 0 43 67.455a2.84 2.84 0 0 0 2.835 2.848M58.868 121.5a2.84 2.84 0 0 0 2.835-2.848 2.84 2.84 0 0 0-2.835-2.847 2.84 2.84 0 0 0-2.835 2.847 2.84 2.84 0 0 0 2.835 2.848M61.703 38.976h-2.468V36.5H57.12v2.476h-2.467v2.194h2.467v2.476h2.116V41.17h2.467zM67.124 101.108h-2.468v-2.476h-2.115v2.476h-2.467v2.194h2.467v2.476h2.115v-2.476h2.468zM175 101.248l-3.019-1.53 1.524-3.03-2.588-1.31-1.524 3.03-3.02-1.53-1.35 2.683 3.02 1.53-1.525 3.03 2.588 1.311 1.525-3.03 3.019 1.53z"/><g filter="url(#a)"><path fill="url(#b)" d="m115 113.5-42-12v-18l42 12z"/><path fill="url(#c)" fill-opacity=".16" d="m115 113.5-42-12v-18l42 12z"/><path fill="url(#d)" d="m115 113.5 42-12v-18l-42 12z"/><path fill="url(#e)" fill-opacity=".16" d="m115 113.5 42-12v-18l-42 12z"/><path stroke="url(#f)" stroke-opacity=".16" stroke-width=".5" d="M114.75 95.688v17.48l-41.5-11.856v-17.48zm42 5.624-41.5 11.856v-17.48l41.5-11.857z"/></g><g filter="url(#g)"><path fill="url(#h)" d="M115 71.5c17.359 4.789 42 12 42 12l-42 12-42-12z"/></g><g filter="url(#i)"><path fill="#868582" d="M111.033 104.572a1 1 0 0 1-1.289.928l-10.908-3.29a1 1 0 0 1-.71-.986l.07-2.432a1 1 0 0 1 1.28-.931l10.911 3.171a1 1 0 0 1 .72.989z"/><path stroke="url(#j)" stroke-opacity=".4" stroke-width=".3" d="M98.347 98.796a.85.85 0 0 1 1.086-.791l10.912 3.171a.85.85 0 0 1 .612.841l-.075 2.551a.85.85 0 0 1-1.095.788l-10.908-3.289a.85.85 0 0 1-.604-.839z"/></g><ellipse cx="78.894" cy="94.512" fill="#868582" rx="1.5" ry="1.979" transform="rotate(-13.52 78.894 94.512)"/><ellipse cx="83.283" cy="95.81" fill="#868582" rx="1.5" ry="1.979" transform="rotate(-13.52 83.283 95.81)"/><ellipse cx="87.672" cy="97.109" fill="#868582" rx="1.5" ry="1.979" transform="rotate(-13.52 87.672 97.109)"/><g filter="url(#k)"><path fill="url(#l)" d="m115 84.5-42-12v-18l42 12z"/><path fill="url(#m)" fill-opacity=".16" d="m115 84.5-42-12v-18l42 12z"/><path fill="url(#n)" d="m115 84.5 42-12v-18l-42 12z"/><path fill="url(#o)" fill-opacity=".16" d="m115 84.5 42-12v-18l-42 12z"/><path stroke="url(#p)" stroke-opacity=".16" stroke-width=".5" d="M114.75 66.688v17.48l-41.5-11.857v-17.48zm42 5.623-41.5 11.857v-17.48l41.5-11.857z"/></g><g filter="url(#q)"><path fill="url(#r)" d="M115 42.5c17.359 4.789 42 12 42 12l-42 12-42-12z"/></g><g filter="url(#s)"><path fill="#868582" d="M111.033 75.572a1 1 0 0 1-1.289.928l-10.908-3.29a1 1 0 0 1-.71-.986l.07-2.432a1 1 0 0 1 1.28-.931l10.911 3.17a1 1 0 0 1 .72.99z"/><path stroke="url(#t)" stroke-opacity=".4" stroke-width=".3" d="M98.347 69.796a.85.85 0 0 1 1.086-.791l10.912 3.17a.85.85 0 0 1 .612.842l-.075 2.55a.85.85 0 0 1-1.095.79l-10.908-3.29a.85.85 0 0 1-.604-.839z"/></g><ellipse cx="78.894" cy="65.512" fill="#868582" rx="1.5" ry="1.979" transform="rotate(-13.52 78.894 65.512)"/><ellipse cx="83.283" cy="66.81" fill="#868582" rx="1.5" ry="1.979" transform="rotate(-13.52 83.283 66.81)"/><ellipse cx="87.672" cy="68.109" fill="#868582" rx="1.5" ry="1.979" transform="rotate(-13.52 87.672 68.109)"/><g filter="url(#u)" shape-rendering="crispEdges"><path fill="url(#v)" d="M160.364 111.997c-.346 1.47-.865 3.027-1.47 4.324-1.644 3.201-4.239 5.709-7.439 7.352-3.287 1.644-7.179 2.336-11.071 1.471-9.169-1.903-15.05-10.898-13.148-20.067 1.903-9.168 10.812-15.137 19.981-13.147 3.287.692 6.141 2.335 8.563 4.584 4.065 4.065 5.795 9.947 4.584 15.483"/><path stroke="url(#w)" stroke-miterlimit="10" d="M160.364 111.997c-.346 1.47-.865 3.027-1.47 4.324-1.644 3.201-4.239 5.709-7.439 7.352-3.287 1.644-7.179 2.336-11.071 1.471-9.169-1.903-15.05-10.898-13.148-20.067 1.903-9.168 10.812-15.137 19.981-13.147 3.287.692 6.141 2.335 8.563 4.584 4.065 4.065 5.795 9.947 4.584 15.483Z"/></g><g filter="url(#x)"><path fill="url(#y)" d="M146.834 102.053h.891c3.563 0 6.448 2.901 6.448 6.476 0 3.459-2.702 6.287-6.095 6.466l-.342.009-.891.008a1.295 1.295 0 0 1-.199-2.577l.176-.013.903-.008c2.129 0 3.857-1.738 3.857-3.885 0-2.058-1.587-3.74-3.593-3.877l-.264-.009h-.891a1.295 1.295 0 0 1-.176-2.578zh.891zm-6.904 0h.859a1.295 1.295 0 0 1 .176 2.578l-.176.012h-.859a3.889 3.889 0 0 0-.266 7.77l.266.009h.859a1.295 1.295 0 0 1 .176 2.578l-.176.012h-.859a6.48 6.48 0 0 1-.344-12.95zh.859zm-.004 5.18h7.771a1.295 1.295 0 0 1 .176 2.579l-.176.012h-7.771a1.295 1.295 0 0 1-.176-2.579zh7.771z"/><path stroke="url(#z)" stroke-width=".3" d="M140.789 102.203a1.144 1.144 0 0 1 .158 2.278l-.168.012h-.849a4.04 4.04 0 0 0-.277 8.069h.005l.267.01h.864a1.145 1.145 0 0 1 .158 2.279l-.168.011h-.849a6.33 6.33 0 0 1-.337-12.651l.341-.008zm6.045 0h.891c3.479 0 6.297 2.833 6.297 6.325 0 3.275-2.477 5.969-5.643 6.293l-.309.025-.338.008-.888.008a1.145 1.145 0 0 1-.178-2.278l.156-.013.001.001.903-.009c2.212 0 4.006-1.806 4.006-4.035 0-2.136-1.648-3.884-3.733-4.026h-.005l-.264-.009h-.896a1.146 1.146 0 0 1-.159-2.28l.159-.011zm-6.908 5.181h7.771a1.144 1.144 0 0 1 .157 2.278l-.167.012h-7.761a1.145 1.145 0 0 1-.158-2.28l.158-.011z"/></g><defs><linearGradient id="b" x1="114.973" x2="114.973" y1="82.806" y2="113.823" gradientUnits="userSpaceOnUse"><stop stop-color="#2d2d2d"/><stop offset=".996" stop-color="#272727"/></linearGradient><linearGradient id="c" x1="79" x2="115" y1="87.5" y2="92.5" gradientUnits="userSpaceOnUse"><stop stop-opacity="0"/><stop offset="1" stop-color="#fff2cb"/></linearGradient><linearGradient id="d" x1="114.973" x2="114.973" y1="82.806" y2="113.823" gradientUnits="userSpaceOnUse"><stop stop-color="#2d2d2d"/><stop offset=".996" stop-color="#272727"/></linearGradient><linearGradient id="e" x1="79" x2="115" y1="87.5" y2="92.5" gradientUnits="userSpaceOnUse"><stop stop-opacity="0"/><stop offset="1" stop-color="#fff2cb"/></linearGradient><linearGradient id="f" x1="68" x2="111" y1="59" y2="126" gradientUnits="userSpaceOnUse"><stop stop-color="#c6c6c6" stop-opacity="0"/><stop offset="1" stop-color="#fff2cb"/></linearGradient><linearGradient id="h" x1="115" x2="115" y1="71.5" y2="95.5" gradientUnits="userSpaceOnUse"><stop stop-color="#4d4d4d"/><stop offset="1" stop-color="#373737"/></linearGradient><linearGradient id="j" x1="102.5" x2="110.5" y1="98.5" y2="105" gradientUnits="userSpaceOnUse"><stop stop-color="#c6c6c6" stop-opacity="0"/><stop offset="1" stop-color="#fff2cb"/></linearGradient><linearGradient id="l" x1="114.973" x2="114.973" y1="53.806" y2="84.823" gradientUnits="userSpaceOnUse"><stop stop-color="#2d2d2d"/><stop offset=".996" stop-color="#272727"/></linearGradient><linearGradient id="m" x1="79" x2="115" y1="58.5" y2="63.5" gradientUnits="userSpaceOnUse"><stop stop-opacity="0"/><stop offset="1" stop-color="#fff2cb"/></linearGradient><linearGradient id="n" x1="114.973" x2="114.973" y1="53.806" y2="84.823" gradientUnits="userSpaceOnUse"><stop stop-color="#2d2d2d"/><stop offset=".996" stop-color="#272727"/></linearGradient><linearGradient id="o" x1="79" x2="115" y1="58.5" y2="63.5" gradientUnits="userSpaceOnUse"><stop stop-opacity="0"/><stop offset="1" stop-color="#fff2cb"/></linearGradient><linearGradient id="p" x1="68" x2="111" y1="30" y2="97" gradientUnits="userSpaceOnUse"><stop stop-color="#c6c6c6" stop-opacity="0"/><stop offset="1" stop-color="#fff2cb"/></linearGradient><linearGradient id="r" x1="115" x2="115" y1="42.5" y2="66.5" gradientUnits="userSpaceOnUse"><stop stop-color="#4d4d4d"/><stop offset="1" stop-color="#373737"/></linearGradient><linearGradient id="t" x1="102.5" x2="110.5" y1="69.5" y2="76" gradientUnits="userSpaceOnUse"><stop stop-color="#c6c6c6" stop-opacity="0"/><stop offset="1" stop-color="#fff2cb"/></linearGradient><linearGradient id="v" x1="143.811" x2="143.811" y1="91.547" y2="125.518" gradientUnits="userSpaceOnUse"><stop stop-color="#4d4d4d"/><stop offset=".828" stop-color="#373737"/></linearGradient><linearGradient id="w" x1="143.811" x2="143.811" y1="91.547" y2="125.518" gradientUnits="userSpaceOnUse"><stop stop-color="#696969"/><stop offset=".284" stop-color="#333" stop-opacity="0"/></linearGradient><linearGradient id="y" x1="143.811" x2="143.811" y1="102.053" y2="115.012" gradientUnits="userSpaceOnUse"><stop stop-color="#ffeaaa"/><stop offset="1" stop-color="#fc3"/></linearGradient><linearGradient id="z" x1="133.45" x2="154.173" y1="108.533" y2="108.533" gradientUnits="userSpaceOnUse"><stop stop-color="#ffeaaa"/><stop offset="1" stop-color="#e7b10e"/></linearGradient><filter id="a" width="128" height="74" x="51" y="65.5" color-interpolation-filters="sRGB" filterUnits="userSpaceOnUse"><feFlood flood-opacity="0" result="BackgroundImageFix"/><feColorMatrix in="SourceAlpha" result="hardAlpha" values="0 0 0 0 0 0 0 0 0 0 0 0 0 0 0 0 0 0 127 0"/><feOffset dy="4"/><feGaussianBlur stdDeviation="11"/><feComposite in2="hardAlpha" operator="out"/><feColorMatrix values="0 0 0 0 0 0 0 0 0 0 0 0 0 0 0 0 0 0 0.5 0"/><feBlend in2="BackgroundImageFix" result="effect1_dropShadow_7169_1597"/><feColorMatrix in="SourceAlpha" result="hardAlpha" values="0 0 0 0 0 0 0 0 0 0 0 0 0 0 0 0 0 0 127 0"/><feOffset dy="4"/><feGaussianBlur stdDeviation="6"/><feComposite in2="hardAlpha" operator="out"/><feColorMatrix values="0 0 0 0 0 0 0 0 0 0 0 0 0 0 0 0 0 0 0.5 0"/><feBlend in2="effect1_dropShadow_7169_1597" result="effect2_dropShadow_7169_1597"/><feBlend in="SourceGraphic" in2="effect2_dropShadow_7169_1597" result="shape"/></filter><filter id="g" width="86" height="26" x="72" y="71.5" color-interpolation-filters="sRGB" filterUnits="userSpaceOnUse"><feFlood flood-opacity="0" result="BackgroundImageFix"/><feColorMatrix in="SourceAlpha" result="hardAlpha" values="0 0 0 0 0 0 0 0 0 0 0 0 0 0 0 0 0 0 127 0"/><feOffset dy="1"/><feGaussianBlur stdDeviation=".5"/><feComposite in2="hardAlpha" operator="out"/><feColorMatrix values="0 0 0 0 0 0 0 0 0 0 0 0 0 0 0 0 0 0 0.08 0"/><feBlend in2="BackgroundImageFix" result="effect1_dropShadow_7169_1597"/><feBlend in="SourceGraphic" in2="effect1_dropShadow_7169_1597" result="shape"/></filter><filter id="i" width="36.983" height="31.723" x="86.125" y="91.82" color-interpolation-filters="sRGB" filterUnits="userSpaceOnUse"><feFlood flood-opacity="0" result="BackgroundImageFix"/><feColorMatrix in="SourceAlpha" result="hardAlpha" values="0 0 0 0 0 0 0 0 0 0 0 0 0 0 0 0 0 0 127 0"/><feOffset dy="6"/><feGaussianBlur stdDeviation="6"/><feComposite in2="hardAlpha" operator="out"/><feColorMatrix values="0 0 0 0 0.576471 0 0 0 0 0.501961 0 0 0 0 0.396078 0 0 0 0.24 0"/><feBlend in2="BackgroundImageFix" result="effect1_dropShadow_7169_1597"/><feBlend in="SourceGraphic" in2="effect1_dropShadow_7169_1597" result="shape"/></filter><filter id="k" width="128" height="74" x="51" y="36.5" color-interpolation-filters="sRGB" filterUnits="userSpaceOnUse"><feFlood flood-opacity="0" result="BackgroundImageFix"/><feColorMatrix in="SourceAlpha" result="hardAlpha" values="0 0 0 0 0 0 0 0 0 0 0 0 0 0 0 0 0 0 127 0"/><feOffset dy="4"/><feGaussianBlur stdDeviation="11"/><feComposite in2="hardAlpha" operator="out"/><feColorMatrix values="0 0 0 0 0 0 0 0 0 0 0 0 0 0 0 0 0 0 0.5 0"/><feBlend in2="BackgroundImageFix" result="effect1_dropShadow_7169_1597"/><feColorMatrix in="SourceAlpha" result="hardAlpha" values="0 0 0 0 0 0 0 0 0 0 0 0 0 0 0 0 0 0 127 0"/><feOffset dy="4"/><feGaussianBlur stdDeviation="6"/><feComposite in2="hardAlpha" operator="out"/><feColorMatrix values="0 0 0 0 0 0 0 0 0 0 0 0 0 0 0 0 0 0 0.7 0"/><feBlend in2="effect1_dropShadow_7169_1597" result="effect2_dropShadow_7169_1597"/><feBlend in="SourceGraphic" in2="effect2_dropShadow_7169_1597" result="shape"/></filter><filter id="q" width="86" height="26" x="72" y="42.5" color-interpolation-filters="sRGB" filterUnits="userSpaceOnUse"><feFlood flood-opacity="0" result="BackgroundImageFix"/><feColorMatrix in="SourceAlpha" result="hardAlpha" values="0 0 0 0 0 0 0 0 0 0 0 0 0 0 0 0 0 0 127 0"/><feOffset dy="1"/><feGaussianBlur stdDeviation=".5"/><feComposite in2="hardAlpha" operator="out"/><feColorMatrix values="0 0 0 0 0 0 0 0 0 0 0 0 0 0 0 0 0 0 0.08 0"/><feBlend in2="BackgroundImageFix" result="effect1_dropShadow_7169_1597"/><feBlend in="SourceGraphic" in2="effect1_dropShadow_7169_1597" result="shape"/></filter><filter id="s" width="36.983" height="31.723" x="86.125" y="62.82" color-interpolation-filters="sRGB" filterUnits="userSpaceOnUse"><feFlood flood-opacity="0" result="BackgroundImageFix"/><feColorMatrix in="SourceAlpha" result="hardAlpha" values="0 0 0 0 0 0 0 0 0 0 0 0 0 0 0 0 0 0 127 0"/><feOffset dy="6"/><feGaussianBlur stdDeviation="6"/><feComposite in2="hardAlpha" operator="out"/><feColorMatrix values="0 0 0 0 0.576471 0 0 0 0 0.501961 0 0 0 0 0.396078 0 0 0 0.24 0"/><feBlend in2="BackgroundImageFix" result="effect1_dropShadow_7169_1597"/><feBlend in="SourceGraphic" in2="effect1_dropShadow_7169_1597" result="shape"/></filter><filter id="u" width="66.865" height="66.972" x="110.379" y="79.046" color-interpolation-filters="sRGB" filterUnits="userSpaceOnUse"><feFlood flood-opacity="0" result="BackgroundImageFix"/><feColorMatrix in="SourceAlpha" result="hardAlpha" values="0 0 0 0 0 0 0 0 0 0 0 0 0 0 0 0 0 0 127 0"/><feOffset dy="4"/><feGaussianBlur stdDeviation="8"/><feComposite in2="hardAlpha" operator="out"/><feColorMatrix values="0 0 0 0 0 0 0 0 0 0 0 0 0 0 0 0 0 0 0.8 0"/><feBlend in2="BackgroundImageFix" result="effect1_dropShadow_7169_1597"/><feColorMatrix in="SourceAlpha" result="hardAlpha" values="0 0 0 0 0 0 0 0 0 0 0 0 0 0 0 0 0 0 127 0"/><feOffset dy="1"/><feGaussianBlur stdDeviation="1"/><feComposite in2="hardAlpha" operator="out"/><feColorMatrix values="0 0 0 0 0 0 0 0 0 0 0 0 0 0 0 0 0 0 0.3 0"/><feBlend in2="effect1_dropShadow_7169_1597" result="effect2_dropShadow_7169_1597"/><feBlend in="SourceGraphic" in2="effect2_dropShadow_7169_1597" result="shape"/></filter><filter id="x" width="50.722" height="42.959" x="117.45" y="83.053" color-interpolation-filters="sRGB" filterUnits="userSpaceOnUse"><feFlood flood-opacity="0" result="BackgroundImageFix"/><feColorMatrix in="SourceAlpha" result="hardAlpha" values="0 0 0 0 0 0 0 0 0 0 0 0 0 0 0 0 0 0 127 0"/><feOffset dx="-1" dy="-4"/><feGaussianBlur stdDeviation="7.5"/><feComposite in2="hardAlpha" operator="out"/><feColorMatrix values="0 0 0 0 1 0 0 0 0 0.8 0 0 0 0 0.2 0 0 0 1 0"/><feBlend in2="BackgroundImageFix" result="effect1_dropShadow_7169_1597"/><feColorMatrix in="SourceAlpha" result="hardAlpha" values="0 0 0 0 0 0 0 0 0 0 0 0 0 0 0 0 0 0 127 0"/><feOffset dy="2"/><feGaussianBlur stdDeviation="4"/><feComposite in2="hardAlpha" operator="out"/><feColorMatrix values="0 0 0 0 0 0 0 0 0 0 0 0 0 0 0 0 0 0 0.5 0"/><feBlend in2="effect1_dropShadow_7169_1597" result="effect2_dropShadow_7169_1597"/><feBlend in="SourceGraphic" in2="effect2_dropShadow_7169_1597" result="shape"/></filter></defs></svg>