<svg width="48" height="48" viewBox="0 0 48 48" fill="none" xmlns="http://www.w3.org/2000/svg">
<path d="M24.2286 32.25C26.4377 32.25 28.2286 34.0409 28.2286 36.25C28.2286 38.4591 26.4377 40.25 24.2286 40.25C22.0194 40.25 20.2286 38.4591 20.2286 36.25C20.2286 34.0409 22.0194 32.25 24.2286 32.25Z" fill="#242424"/>
<path d="M28.1065 8C28.9584 8 29.5978 8.77988 29.4307 9.61523L25.5528 29.0049C25.2634 30.4519 23.1937 30.4518 22.9043 29.0049L19.0264 9.61523C18.8593 8.77987 19.4987 8 20.3506 8H28.1065ZM24.2286 22.874L26.7032 10.5H21.754L24.2286 22.874Z" fill="#242424"/>
</svg>
