<svg width="32" height="32" viewBox="0 0 32 32" fill="none" xmlns="http://www.w3.org/2000/svg">
<path d="M15.9766 22C17.6335 22 18.9766 23.3431 18.9766 25C18.9766 26.6569 17.6335 28 15.9766 28C14.3198 28 12.9766 26.6569 12.9766 25C12.9766 23.3431 14.3198 22 15.9766 22Z" fill="#242424"/>
<path d="M18.8526 4C19.5528 4 20.0752 4.64548 19.9288 5.33008L17.0518 18.7529C16.8034 19.9123 15.1499 19.9123 14.9014 18.7529L12.0245 5.33008C11.8781 4.64548 12.4005 4 13.1007 4H18.8526ZM15.9766 14.2266L17.7393 6H14.2139L15.9766 14.2266Z" fill="#242424"/>
</svg>
