<svg width="28" height="28" viewBox="0 0 28 28" fill="none" xmlns="http://www.w3.org/2000/svg">
<path d="M2.86595 6.00891C2.82816 6.00304 2.78943 6 2.75 6C2.33579 6 2 6.33579 2 6.75V23.25C2 23.6642 2.33579 24 2.75 24C3.16421 24 3.5 23.6642 3.5 23.25V12H9C9.55228 12 10 11.5523 10 11V7C10 6.44772 9.55228 6 9 6H3C2.95454 6 2.90979 6.00303 2.86595 6.00891ZM3.5 7.5H8.5V10.5H3.5V7.5Z" fill="#212121"/>
<path d="M7.5 22.75C7.5 23.1642 7.16421 23.5 6.75 23.5C6.33579 23.5 6 23.1642 6 22.75C6 22.3358 6.33579 22 6.75 22C7.16421 22 7.5 22.3358 7.5 22.75Z" fill="#212121"/>
<path d="M9.75 23.5C10.1642 23.5 10.5 23.1642 10.5 22.75C10.5 22.3358 10.1642 22 9.75 22C9.33579 22 9 22.3358 9 22.75C9 23.1642 9.33579 23.5 9.75 23.5Z" fill="#212121"/>
<path d="M13.5 22.75C13.5 23.1642 13.1642 23.5 12.75 23.5C12.3358 23.5 12 23.1642 12 22.75C12 22.3358 12.3358 22 12.75 22C13.1642 22 13.5 22.3358 13.5 22.75Z" fill="#212121"/>
<path d="M15.75 23.5C16.1642 23.5 16.5 23.1642 16.5 22.75C16.5 22.3358 16.1642 22 15.75 22C15.3358 22 15 22.3358 15 22.75C15 23.1642 15.3358 23.5 15.75 23.5Z" fill="#212121"/>
<path d="M18 23.25C18 23.6642 18.3358 24 18.75 24C19.1642 24 19.5 23.6642 19.5 23.25V12H25C25.5523 12 26 11.5523 26 11V7C26 6.44772 25.5523 6 25 6H19C18.9545 6 18.9098 6.00303 18.8659 6.00891C18.8282 6.00304 18.7894 6 18.75 6C18.3358 6 18 6.33579 18 6.75V23.25ZM19.5 7.5H24.5V10.5H19.5V7.5Z" fill="#212121"/>
</svg>
