<svg width="32" height="32" viewBox="0 0 32 32" fill="none" xmlns="http://www.w3.org/2000/svg">
<path d="M10 14H4V27C4 27.5523 3.55228 28 3 28C2.44772 28 2 27.5523 2 27V8C2 7.44772 2.44772 7 3 7H10C10.5523 7 11 7.44772 11 8V13C11 13.5523 10.5523 14 10 14ZM4 12H9V9H4V12Z" fill="#212121"/>
<path d="M29 14H23V27C23 27.5523 22.5523 28 22 28C21.4477 28 21 27.5523 21 27V8C21 7.44772 21.4477 7 22 7H29C29.5523 7 30 7.44772 30 8V13C30 13.5523 29.5523 14 29 14ZM23 9V12H28V9H23Z" fill="#212121"/>
<path d="M8 27C8 27.5523 7.55228 28 7 28C6.44772 28 6 27.5523 6 27C6 26.4477 6.44772 26 7 26C7.55228 26 8 26.4477 8 27Z" fill="#212121"/>
<path d="M12 27C12 27.5523 11.5523 28 11 28C10.4477 28 10 27.5523 10 27C10 26.4477 10.4477 26 11 26C11.5523 26 12 26.4477 12 27Z" fill="#212121"/>
<path d="M15 28C15.5523 28 16 27.5523 16 27C16 26.4477 15.5523 26 15 26C14.4477 26 14 26.4477 14 27C14 27.5523 14.4477 28 15 28Z" fill="#212121"/>
<path d="M20 27C20 27.5523 19.5523 28 19 28C18.4477 28 18 27.5523 18 27C18 26.4477 18.4477 26 19 26C19.5523 26 20 26.4477 20 27Z" fill="#212121"/>
</svg>
