<svg width="20" height="20" viewBox="0 0 20 20" fill="none" xmlns="http://www.w3.org/2000/svg">
<path d="M6.5 5H3C2.48223 5 2.05637 5.3935 2.00516 5.89776C2.00175 5.93137 2 5.96548 2 6V15.5C2 15.7761 2.22386 16 2.5 16C2.77614 16 3 15.7761 3 15.5L3 9H6.5C6.77614 9 7 8.77614 7 8.5V5.5C7 5.22386 6.77614 5 6.5 5ZM6 6V8H3L3 6H6Z" fill="#212121"/>
<path d="M5.5 16C5.77614 16 6 15.7761 6 15.5C6 15.2239 5.77614 15 5.5 15C5.22386 15 5 15.2239 5 15.5C5 15.7761 5.22386 16 5.5 16Z" fill="#212121"/>
<path d="M7.5 16C7.77614 16 8 15.7761 8 15.5C8 15.2239 7.77614 15 7.5 15C7.22386 15 7 15.2239 7 15.5C7 15.7761 7.22386 16 7.5 16Z" fill="#212121"/>
<path d="M10 15.5C10 15.7761 9.77614 16 9.5 16C9.22386 16 9 15.7761 9 15.5C9 15.2239 9.22386 15 9.5 15C9.77614 15 10 15.2239 10 15.5Z" fill="#212121"/>
<path d="M11.5 16C11.7761 16 12 15.7761 12 15.5C12 15.2239 11.7761 15 11.5 15C11.2239 15 11 15.2239 11 15.5C11 15.7761 11.2239 16 11.5 16Z" fill="#212121"/>
<path d="M14 5H17.5C17.7761 5 18 5.22386 18 5.5V8.5C18 8.77614 17.7761 9 17.5 9H14V15.5C14 15.7761 13.7761 16 13.5 16C13.2239 16 13 15.7761 13 15.5V6C13 5.96548 13.0017 5.93137 13.0052 5.89776C13.0564 5.3935 13.4822 5 14 5ZM14 6V8H17V6H14Z" fill="#212121"/>
</svg>
