<svg width="24" height="24" viewBox="0 0 24 24" fill="none" xmlns="http://www.w3.org/2000/svg">
<path d="M2.85 4.9502C2.65048 4.9502 2.46701 5.01894 2.322 5.13404C2.12737 5.26952 2 5.49489 2 5.75V19.25C2 19.6642 2.33579 20 2.75 20C3.16421 20 3.5 19.6642 3.5 19.25V10.4502H7.65C8.11944 10.4502 8.5 10.0696 8.5 9.6002V5.8002C8.5 5.33075 8.11944 4.9502 7.65 4.9502H2.85ZM3.5 8.9502V6.4502H7V8.9502H3.5Z" fill="#212121"/>
<path d="M17 10.4502H21.15C21.6194 10.4502 22 10.0696 22 9.6002V5.8002C22 5.33075 21.6194 4.9502 21.15 4.9502H16.35C16.1505 4.9502 15.967 5.01894 15.822 5.13404C15.6274 5.26952 15.5 5.49489 15.5 5.75V19.25C15.5 19.6642 15.8358 20 16.25 20C16.6642 20 17 19.6642 17 19.25V10.4502ZM17 6.4502H20.5V8.9502H17V6.4502Z" fill="#212121"/>
<path d="M6.25 20C6.66421 20 7 19.6642 7 19.25C7 18.8358 6.66421 18.5 6.25 18.5C5.83579 18.5 5.5 18.8358 5.5 19.25C5.5 19.6642 5.83579 20 6.25 20Z" fill="#212121"/>
<path d="M8.75 20C9.16421 20 9.5 19.6642 9.5 19.25C9.5 18.8358 9.16421 18.5 8.75 18.5C8.33579 18.5 8 18.8358 8 19.25C8 19.6642 8.33579 20 8.75 20Z" fill="#212121"/>
<path d="M12 19.25C12 19.6642 11.6642 20 11.25 20C10.8358 20 10.5 19.6642 10.5 19.25C10.5 18.8358 10.8358 18.5 11.25 18.5C11.6642 18.5 12 18.8358 12 19.25Z" fill="#212121"/>
<path d="M13.75 20C14.1642 20 14.5 19.6642 14.5 19.25C14.5 18.8358 14.1642 18.5 13.75 18.5C13.3358 18.5 13 18.8358 13 19.25C13 19.6642 13.3358 20 13.75 20Z" fill="#212121"/>
</svg>
