<svg width="32" height="32" viewBox="0 0 32 32" fill="none" xmlns="http://www.w3.org/2000/svg">
<path d="M2 8C2 7.44772 2.44772 7 3 7H10C10.5523 7 11 7.44772 11 8V13C11 13.5523 10.5523 14 10 14H4V27C4 27.5523 3.55228 28 3 28C2.44772 28 2 27.5523 2 27V8Z" fill="#212121"/>
<path d="M7 28C7.55228 28 8 27.5523 8 27C8 26.4477 7.55228 26 7 26C6.44772 26 6 26.4477 6 27C6 27.5523 6.44772 28 7 28Z" fill="#212121"/>
<path d="M11 28C11.5523 28 12 27.5523 12 27C12 26.4477 11.5523 26 11 26C10.4477 26 10 26.4477 10 27C10 27.5523 10.4477 28 11 28Z" fill="#212121"/>
<path d="M16 27C16 27.5523 15.5523 28 15 28C14.4477 28 14 27.5523 14 27C14 26.4477 14.4477 26 15 26C15.5523 26 16 26.4477 16 27Z" fill="#212121"/>
<path d="M19 28C19.5523 28 20 27.5523 20 27C20 26.4477 19.5523 26 19 26C18.4477 26 18 26.4477 18 27C18 27.5523 18.4477 28 19 28Z" fill="#212121"/>
<path d="M21 8C21 7.44772 21.4477 7 22 7H29C29.5523 7 30 7.44772 30 8V13C30 13.5523 29.5523 14 29 14H23V27C23 27.5523 22.5523 28 22 28C21.4477 28 21 27.5523 21 27V8Z" fill="#212121"/>
</svg>
