<svg width="20" height="20" viewBox="0 0 20 20" fill="none" xmlns="http://www.w3.org/2000/svg">
<path d="M6 15.5C6 15.7761 5.77614 16 5.5 16C5.22386 16 5 15.7761 5 15.5C5 15.2239 5.22386 15 5.5 15C5.77614 15 6 15.2239 6 15.5Z" fill="#212121"/>
<path d="M8 15.5C8 15.7761 7.77614 16 7.5 16C7.22386 16 7 15.7761 7 15.5C7 15.2239 7.22386 15 7.5 15C7.77614 15 8 15.2239 8 15.5Z" fill="#212121"/>
<path d="M10 15.5C10 15.7761 9.77614 16 9.5 16C9.22386 16 9 15.7761 9 15.5C9 15.2239 9.22386 15 9.5 15C9.77614 15 10 15.2239 10 15.5Z" fill="#212121"/>
<path d="M12 15.5C12 15.7761 11.7761 16 11.5 16C11.2239 16 11 15.7761 11 15.5C11 15.2239 11.2239 15 11.5 15C11.7761 15 12 15.2239 12 15.5Z" fill="#212121"/>
<path d="M2 6C2 5.44772 2.44772 5 3 5H6.5C6.77614 5 7 5.22386 7 5.5V8.5C7 8.77614 6.77614 9 6.5 9H3L3 15.5C3 15.7761 2.77614 16 2.5 16C2.22386 16 2 15.7761 2 15.5V8V6Z" fill="#212121"/>
<path d="M13 6C13 5.44772 13.4477 5 14 5H17.5C17.7761 5 18 5.22386 18 5.5V8.5C18 8.77614 17.7761 9 17.5 9H14V15.5C14 15.7761 13.7761 16 13.5 16C13.2239 16 13 15.7761 13 15.5V8V6Z" fill="#212121"/>
</svg>
