<svg width="20" height="20" viewBox="0 0 20 20" fill="none" xmlns="http://www.w3.org/2000/svg">
<path d="M16.4999 9.5C16.4999 12.8137 13.8136 15.5 10.4999 15.5C9.61951 15.5 8.7834 15.3104 8.03018 14.9697L6.91213 16.0878C7.97785 16.6694 9.20028 17 10.4999 17C14.6421 17 17.9999 13.6421 17.9999 9.5C17.9999 5.35786 14.6421 2 10.4999 2C6.35779 2 2.99992 5.35786 2.99992 9.5C2.99992 10.7996 3.33049 12.0221 3.91213 13.0878L5.03018 11.9698C4.68955 11.2165 4.49992 10.3804 4.49992 9.5C4.49992 6.18629 7.18621 3.5 10.4999 3.5C13.8136 3.5 16.4999 6.18629 16.4999 9.5ZM2.21967 17.7802C1.92678 17.4873 1.92678 17.0124 2.21967 16.7196L10.4392 8.5H6.74992C6.33571 8.5 5.99992 8.16421 5.99992 7.75C5.99992 7.33579 6.33571 7 6.74992 7H12.1499C12.6193 7 12.9999 7.38056 12.9999 7.85V13.25C12.9999 13.6642 12.6641 14 12.2499 14C11.8357 14 11.4999 13.6642 11.4999 13.25V9.56059L3.28033 17.7802C2.98744 18.0731 2.51257 18.0731 2.21967 17.7802Z" fill="#212121"/>
</svg>
