<svg width="24" height="24" viewBox="0 0 24 24" fill="none" xmlns="http://www.w3.org/2000/svg">
<path d="M19.9999 12C19.9999 15.866 16.8659 19 12.9999 19C12.1081 19 11.2552 18.8332 10.4707 18.5291L8.95692 20.043C10.1725 20.6552 11.5459 21 12.9999 21C17.9705 21 21.9999 16.9706 21.9999 12C21.9999 7.02944 17.9705 3 12.9999 3C8.02933 3 3.9999 7.02944 3.9999 12C3.9999 13.454 4.34467 14.8274 4.95692 16.043L6.47075 14.5291C6.16668 13.7447 5.9999 12.8918 5.9999 12C5.9999 8.13401 9.1339 5 12.9999 5C16.8659 5 19.9999 8.13401 19.9999 12ZM3.29265 21.7071C2.90213 21.3166 2.90212 20.6834 3.29265 20.2929L12.5855 11H8.9999C8.44761 11 7.9999 10.5523 7.9999 10C7.9999 9.44772 8.44761 9 8.9999 9H14.8998C15.5073 9 15.9998 9.49249 15.9998 10.1V16C15.9998 16.5523 15.5521 17 14.9998 17C14.4475 17 13.9998 16.5523 13.9998 16V12.4141L4.70687 21.7071C4.31634 22.0976 3.68318 22.0976 3.29265 21.7071Z" fill="#212121"/>
</svg>
