<svg width="20" height="20" viewBox="0 0 20 20" fill="none" xmlns="http://www.w3.org/2000/svg">
<path d="M16.9999 9.5C16.9999 13.0899 14.0897 16 10.4999 16C9.48141 16 8.51764 15.7658 7.65951 15.3482L6.91716 16.0906C7.9817 16.6705 9.20231 17 10.4999 17C14.642 17 17.9999 13.6421 17.9999 9.5C17.9999 5.35786 14.642 2 10.4999 2C6.35776 2 2.9999 5.35786 2.9999 9.5C2.9999 10.8027 3.33203 12.0279 3.91624 13.0954L4.6581 12.3535C4.23654 11.4921 3.9999 10.5237 3.9999 9.5C3.9999 5.91015 6.91005 3 10.4999 3C14.0897 3 16.9999 5.91015 16.9999 9.5ZM2.64644 17.3535C2.45118 17.1583 2.45119 16.8417 2.64645 16.6464L11.2931 8H6.49995C6.22381 8 5.99995 7.77614 5.99995 7.5C5.99995 7.22386 6.22381 7 6.49995 7H12.3999C12.7313 7 12.9999 7.26863 12.9999 7.6V13.5C12.9999 13.7761 12.7761 14 12.4999 14C12.2238 14 11.9999 13.7761 11.9999 13.5V8.70733L3.35355 17.3535C3.15829 17.5488 2.8417 17.5488 2.64644 17.3535Z" fill="#212121"/>
</svg>
