<svg width="24" height="24" viewBox="0 0 24 24" fill="none" xmlns="http://www.w3.org/2000/svg">
<path d="M3.66712 6.46981C5.45739 3.77721 8.52099 2 12 2C15.479 2 18.5426 3.77721 20.3329 6.46981C21.3863 8.05409 22 9.95651 22 12C22 14.0435 21.3863 15.9459 20.3329 17.5302C18.5426 20.2228 15.479 22 12 22C8.52099 22 5.45739 20.2228 3.66712 17.5302C2.61375 15.9459 2 14.0435 2 12C2 9.95651 2.61375 8.05409 3.66712 6.46981ZM10.4774 7.23583C10.872 7.10984 11.0897 6.68783 10.9637 6.29324C10.8377 5.89865 10.4157 5.68091 10.0211 5.8069C7.39978 6.64387 5.5 9.09908 5.5 12C5.5 12.6873 5.60694 13.3511 5.80565 13.9748C5.93138 14.3695 6.35324 14.5875 6.74792 14.4618C7.14259 14.3361 7.3606 13.9142 7.23487 13.5195C7.08251 13.0413 7 12.531 7 12C7 9.77054 8.45967 7.88006 10.4774 7.23583ZM13.9789 5.8069C13.5843 5.68091 13.1623 5.89865 13.0363 6.29324C12.9103 6.68783 13.128 7.10984 13.5226 7.23583C15.5403 7.88006 17 9.77054 17 12C17 12.531 16.9175 13.0413 16.7651 13.5195C16.6394 13.9142 16.8574 14.3361 17.2521 14.4618C17.6468 14.5875 18.0686 14.3695 18.1944 13.9748C18.3931 13.3511 18.5 12.6873 18.5 12C18.5 9.09908 16.6002 6.64387 13.9789 5.8069Z" fill="#212121"/>
</svg>
