<svg width="20" height="20" viewBox="0 0 20 20" fill="none" xmlns="http://www.w3.org/2000/svg">
<path d="M2 10C2 5.58172 5.58172 2 10 2C14.4183 2 18 5.58172 18 10C18 14.4183 14.4183 18 10 18C5.58172 18 2 14.4183 2 10ZM8.64983 5.70603C8.91328 5.62328 9.05977 5.34263 8.97702 5.07918C8.89428 4.81573 8.61363 4.66923 8.35017 4.75198C6.11922 5.45268 4.5 7.53664 4.5 10.0001C4.5 10.5741 4.5881 11.1285 4.75188 11.6499C4.83462 11.9134 5.11527 12.0599 5.37873 11.9771C5.64218 11.8944 5.78867 11.6137 5.70593 11.3503C5.57225 10.9247 5.5 10.4713 5.5 10.0001C5.5 7.98592 6.82367 6.27959 8.64983 5.70603ZM11.6498 4.75198C11.3864 4.66923 11.1057 4.81573 11.023 5.07918C10.9402 5.34263 11.0867 5.62328 11.3502 5.70603C13.1763 6.27959 14.5 7.98592 14.5 10.0001C14.5 10.4713 14.4277 10.9247 14.2941 11.3503C14.2113 11.6137 14.3578 11.8944 14.6213 11.9771C14.8847 12.0599 15.1654 11.9134 15.2481 11.6499C15.4119 11.1285 15.5 10.5741 15.5 10.0001C15.5 7.53664 13.8808 5.45268 11.6498 4.75198Z" fill="#212121"/>
</svg>
