<svg width="20" height="20" viewBox="0 0 20 20" fill="none" xmlns="http://www.w3.org/2000/svg">
<path d="M3 10C3 6.13401 6.13401 3 10 3C13.866 3 17 6.13401 17 10C17 13.866 13.866 17 10 17C6.13401 17 3 13.866 3 10ZM10 2C5.58172 2 2 5.58172 2 10C2 14.4183 5.58172 18 10 18C14.4183 18 18 14.4183 18 10C18 5.58172 14.4183 2 10 2ZM8.66662 6.22752C8.92698 6.1355 9.06344 5.84984 8.97142 5.58948C8.8794 5.32912 8.59373 5.19266 8.33338 5.28468C6.39206 5.97084 5 7.82223 5 10C5 10.5835 5.10016 11.1447 5.28464 11.6667C5.37666 11.927 5.66232 12.0635 5.92268 11.9715C6.18304 11.8794 6.3195 11.5938 6.22748 11.3334C6.0803 10.917 6 10.4685 6 10C6 8.2592 7.11236 6.77688 8.66662 6.22752ZM11.6666 5.28468C11.4063 5.19266 11.1206 5.32912 11.0286 5.58948C10.9366 5.84984 11.073 6.1355 11.3334 6.22752C12.8876 6.77688 14 8.2592 14 10C14 10.4685 13.9197 10.917 13.7725 11.3334C13.6805 11.5938 13.817 11.8794 14.0773 11.9715C14.3377 12.0635 14.6233 11.927 14.7154 11.6667C14.8998 11.1447 15 10.5835 15 10C15 7.82223 13.6079 5.97084 11.6666 5.28468Z" fill="#212121"/>
</svg>
