<svg width="24" height="24" viewBox="0 0 24 24" fill="none" xmlns="http://www.w3.org/2000/svg">
<path fill-rule="evenodd" clip-rule="evenodd" d="M5.25 4C3.45507 4 2 5.45507 2 7.25V16.75C2 18.5449 3.45507 20 5.25 20H18.75C20.5449 20 22 18.5449 22 16.75V7.25C22 5.45507 20.5449 4 18.75 4H5.25ZM3.5 7.25C3.5 6.2835 4.2835 5.5 5.25 5.5H18.75C19.7165 5.5 20.5 6.2835 20.5 7.25V12.6924L14.6924 18.5H5.25C4.2835 18.5 3.5 17.7165 3.5 16.75V7.25ZM16.8137 18.5H18.75C19.7165 18.5 20.5 17.7165 20.5 16.75V14.8137L16.8137 18.5Z" fill="#212121"/>
</svg>
