<svg width="48" height="48" viewBox="0 0 48 48" fill="none" xmlns="http://www.w3.org/2000/svg">
<path fill-rule="evenodd" clip-rule="evenodd" d="M10.25 8C6.79822 8 4 10.7982 4 14.25V33.75C4 37.2018 6.79822 40 10.25 40H37.75C41.2018 40 44 37.2018 44 33.75V14.25C44 10.7982 41.2018 8 37.75 8H10.25ZM6.5 14.25C6.5 12.1789 8.17893 10.5 10.25 10.5H37.75C39.8211 10.5 41.5 12.1789 41.5 14.25V25.7324L29.7324 37.5H10.25C8.17893 37.5 6.5 35.8211 6.5 33.75V14.25ZM33.9751 37.5H37.75C39.8211 37.5 41.5 35.8211 41.5 33.75V29.9751L33.9751 37.5Z" fill="#212121"/>
</svg>
