<svg width="28" height="28" viewBox="0 0 28 28" fill="none" xmlns="http://www.w3.org/2000/svg">
<path fill-rule="evenodd" clip-rule="evenodd" d="M5.75439 4C3.68333 4 2.00439 5.67893 2.00439 7.75V20.2501C2.00439 22.3211 3.68333 24.0001 5.7544 24.0001H22.251C24.3221 24.0001 26.001 22.3211 26.001 20.2501V7.75C26.001 5.67893 24.3221 4 22.251 4H5.75439ZM3.50439 7.75C3.50439 6.50736 4.51175 5.5 5.75439 5.5H22.251C23.4936 5.5 24.501 6.50736 24.501 7.75V15.3672L17.3681 22.5001H5.7544C4.51176 22.5001 3.50439 21.4927 3.50439 20.2501V7.75ZM19.4894 22.5001H22.251C23.4936 22.5001 24.501 21.4927 24.501 20.2501V17.4885L19.4894 22.5001Z" fill="#212121"/>
</svg>
