<svg width="20" height="20" viewBox="0 0 20 20" fill="none" xmlns="http://www.w3.org/2000/svg">
<path d="M4 8.99988V4.99988H16V8.16988C16.36 8.08988 16.7 8.04988 17 8.02988V4.91988C17.58 4.70988 18 4.15988 18 3.50988V2.50988C18 1.67988 17.33 1.00988 16.5 1.00988H3.5C2.67 0.999876 2 1.66988 2 2.49988V3.49988C2 4.14988 2.42 4.70988 3 4.90988V8.99988C3 12.7099 5.89 15.7399 9.54 15.9799C9.67 15.5899 9.83 15.2499 10.02 14.9999H9.99C6.68 14.9999 3.99 12.3099 3.99 8.99988H4ZM3 3.49988V2.49988C3 2.21988 3.22 1.99988 3.5 1.99988H16.5C16.78 1.99988 17 2.21988 17 2.49988V3.49988C17 3.77988 16.78 3.99988 16.5 3.99988H3.5C3.22 3.99988 3 3.77988 3 3.49988Z" fill="#212121"/>
<path d="M8 10C8 10.94 8.65 11.72 9.53 11.94L10.86 10.61C11.14 10.33 11.52 10.17 11.92 10.17H11.99C11.99 10.14 11.995 10.1125 12 10.085C12.005 10.0575 12.01 10.03 12.01 10C12.01 8.9 11.11 8 10.01 8C8.91 8 8.01 8.9 8.01 10H8Z" fill="#212121"/>
<path d="M12.9997 9.91854L12.99 9.93H13L12.9997 9.91854Z" fill="#212121"/>
<path d="M13.33 9.55C13.2135 9.66647 13.1065 9.79237 12.9997 9.91854C12.9539 8.29391 11.6661 7 10.01 7C8.35 7 7.01 8.34 7.01 10C7.01 11.32 7.86 12.43 9.04 12.83C9 13.03 8.99 13.23 9.04 13.43C9.09 13.61 9.18 13.78 9.28 13.93C7.41 13.58 6 11.96 6 10C6 7.79 7.79 6 10 6C11.89 6 13.46 7.32 13.88 9.08C13.69 9.22 13.51 9.37 13.33 9.55Z" fill="#212121"/>
<path d="M10.8501 15.5601C10.4601 15.9501 10.1401 17.6801 10.1401 17.6801C10.1401 17.6801 11.8701 17.3601 12.2601 16.9701C12.6501 16.5801 12.6501 15.9501 12.2601 15.5601C11.8701 15.1701 11.2401 15.1701 10.8501 15.5601Z" fill="#212121"/>
<path d="M18.4002 9.06022C18.5802 9.10022 18.7202 9.24022 18.7602 9.42022L18.7702 9.44022C18.8002 9.56022 19.1802 12.2002 17.5802 13.8002C17.2902 14.0902 16.9802 14.3302 16.6702 14.5502V15.9202C16.6702 16.0502 16.6102 16.1802 16.5202 16.2702L15.1102 17.6802C14.9902 17.8002 14.8102 17.8502 14.6402 17.8102C14.5502 17.7902 14.4602 17.7402 14.4002 17.6802C14.3502 17.6202 14.3002 17.5502 14.2802 17.4802L13.6102 15.4702L12.3702 14.2302L10.3602 13.5602C10.2802 13.5402 10.2102 13.4902 10.1602 13.4402C10.1002 13.3702 10.0502 13.2902 10.0302 13.2002C9.99016 13.0302 10.0402 12.8502 10.1602 12.7302L11.5702 11.3202C11.6602 11.2202 11.7902 11.1702 11.9202 11.1702H13.2902C13.5002 10.8702 13.7402 10.5602 14.0402 10.2602C15.6402 8.66022 18.2702 9.03022 18.4002 9.06022ZM15.1002 12.7302C15.4902 13.1202 16.1202 13.1202 16.5102 12.7302C16.9002 12.3402 16.9002 11.7102 16.5102 11.3202C16.1202 10.9302 15.4902 10.9302 15.1002 11.3202C14.7102 11.7102 14.7102 12.3402 15.1002 12.7302Z" fill="#212121"/>
</svg>
