<svg width="24" height="24" viewBox="0 0 24 24" fill="none" xmlns="http://www.w3.org/2000/svg">
<path d="M3.75 2C2.78 2 2 2.78 2 3.75V5.25C2 5.95 2.41 6.55 3 6.83V13C3 17.48 6.28 21.19 10.57 21.88C10.76 21.3 10.95 20.83 11.16 20.45C7.42 20.03 4.51 16.86 4.51 13V7H19.51V11.53C19.74 11.51 19.97 11.5 20.18 11.5C20.49 11.5 20.76 11.52 21.01 11.54V6.83C21.6 6.55 22.01 5.95 22.01 5.25V3.75C22.01 2.78 21.23 2 20.26 2H3.75ZM20.5 5.25C20.5 5.39 20.39 5.5 20.25 5.5H3.75C3.61 5.5 3.5 5.39 3.5 5.25V3.75C3.5 3.61 3.61 3.5 3.75 3.5H20.25C20.39 3.5 20.5 3.61 20.5 3.75V5.25Z" fill="#212121"/>
<path d="M12 9.5C13.94 9.5 15.56 10.89 15.92 12.73C16.36 12.42 16.82 12.18 17.29 12C16.64 9.69 14.52 8 12 8C8.96 8 6.5 10.46 6.5 13.5C6.5 16.22 8.47 18.47 11.06 18.91C10.81 18.65 10.63 18.33 10.54 17.96C10.48 17.71 10.49 17.45 10.52 17.21C9.04 16.62 8 15.19 8 13.5C8 11.29 9.79 9.5 12 9.5Z" fill="#212121"/>
<path d="M13.97 14C13.42 14 12.9 14.22 12.51 14.61L11.25 15.87C10.24 15.55 9.5 14.62 9.5 13.5C9.5 12.12 10.62 11 12 11C13.38 11 14.5 12.12 14.5 13.5C14.5 13.68 14.48 13.85 14.44 14.02L14.03 14H13.97Z" fill="#212121"/>
<path d="M12.71 20.7802C12.26 21.2302 11.75 23.1502 11.75 23.1502C11.75 23.1502 13.68 22.6402 14.12 22.1902C14.56 21.7402 14.61 21.0702 14.22 20.6702C13.83 20.2702 13.15 20.3202 12.7 20.7702L12.71 20.7802Z" fill="#212121"/>
<path d="M16.2898 14.3598C18.1198 12.5398 21.2298 13.0598 21.3798 13.0998L21.3598 13.0798C21.5698 13.1398 21.7298 13.2898 21.7798 13.4998C21.8098 13.6398 22.3398 16.7698 20.5198 18.5898C20.3 18.8096 20.009 18.9835 19.7362 19.1465C19.5871 19.2356 19.4435 19.3214 19.3198 19.4098L19.3798 20.9198C19.3798 21.0698 19.3198 21.2098 19.2098 21.3198L17.7998 22.7298C17.6598 22.8698 17.4498 22.9298 17.2598 22.8798C17.1598 22.8598 17.0598 22.7998 16.9898 22.7298C16.9298 22.6698 16.8798 22.5998 16.8498 22.5098L15.9798 20.3098L14.5698 18.8998L12.3698 18.0298C12.2898 17.9998 12.2098 17.9498 12.1498 17.8898C12.0798 17.8198 12.0298 17.7198 11.9998 17.6198C11.9498 17.4198 12.0098 17.2198 12.1498 17.0798L13.5598 15.6698C13.6598 15.5598 13.8098 15.4998 13.9598 15.4998L15.4698 15.5598C15.5582 15.4361 15.644 15.2925 15.7331 15.1434C15.8961 14.8706 16.07 14.5796 16.2898 14.3598ZM17.7598 17.1398C18.1498 17.5298 18.7798 17.5298 19.1698 17.1398C19.5598 16.7498 19.5598 16.1198 19.1698 15.7298C18.7798 15.3398 18.1498 15.3398 17.7598 15.7298C17.3698 16.1198 17.3698 16.7498 17.7598 17.1398Z" fill="#212121"/>
</svg>
