<svg width="20" height="20" viewBox="0 0 20 20" fill="none" xmlns="http://www.w3.org/2000/svg">
<path d="M15.5 4C16.33 4 17 3.33 17 2.5C17 1.67 16.33 1 15.5 1H2.5C1.67 1 1 1.67 1 2.5C1 3.33 1.67 4 2.5 4H15.5Z" fill="#212121"/>
<path d="M11.78 10.17C11.85 10.08 11.92 10.01 11.99 9.93C11.95 8.31 10.63 7 9 7C7.37 7 6 8.34 6 10C6 11.32 6.85 12.42 8.03 12.83C8.08 12.53 8.21 12.25 8.44 12.03L8.53 11.94C7.66 11.73 7 10.94 7 10C7 8.9 7.9 8 9 8C10.1 8 11 8.9 11 10C11 10.06 10.99 10.11 10.98 10.17H11.78Z" fill="#212121"/>
<path d="M9.41 14.63L9.03 14.5C8.81 14.43 8.61 14.3 8.44 14.14C8.38 14.08 8.33 14 8.28 13.92C6.42 13.58 5 11.95 5 9.99C5 7.78 6.79 5.99 9 5.99C10.89 5.99 12.46 7.31 12.88 9.07C13.91 8.32 15.11 8.08 16 8.02V5H2V9C2 12.71 4.89 15.74 8.54 15.98C8.7 15.51 8.9 15.1 9.14 14.85C9.22 14.77 9.31 14.7 9.4 14.63H9.41Z" fill="#212121"/>
<path d="M9.85 15.56C9.46 15.95 9.14 17.68 9.14 17.68C9.14 17.68 10.87 17.36 11.26 16.97C11.65 16.58 11.65 15.95 11.26 15.56C10.87 15.17 10.24 15.17 9.85 15.56Z" fill="#212121"/>
<path d="M17.76 9.42C17.72 9.24 17.58 9.1 17.4 9.06C17.27 9.03 14.64 8.66 13.04 10.26C12.74 10.56 12.5 10.87 12.29 11.17H10.92C10.79 11.17 10.66 11.22 10.57 11.32L9.16 12.73C9.04 12.85 8.99 13.03 9.03 13.2C9.05 13.29 9.1 13.37 9.16 13.44C9.21 13.49 9.28 13.54 9.36 13.56L11.37 14.23L12.61 15.47L13.28 17.48C13.3 17.55 13.35 17.62 13.4 17.68C13.46 17.74 13.55 17.79 13.64 17.81C13.81 17.85 13.99 17.8 14.11 17.68L15.52 16.27C15.61 16.18 15.67 16.05 15.67 15.92V14.55C15.98 14.33 16.29 14.09 16.58 13.8C18.18 12.2 17.8 9.56 17.77 9.44L17.76 9.42ZM15.51 12.73C15.12 13.12 14.49 13.12 14.1 12.73C13.71 12.34 13.71 11.71 14.1 11.32C14.49 10.93 15.12 10.93 15.51 11.32C15.9 11.71 15.9 12.34 15.51 12.73Z" fill="#212121"/>
</svg>
