<svg width="48" height="48" viewBox="0 0 48 48" fill="none" xmlns="http://www.w3.org/2000/svg">
<path d="M40.75 4H7.25C5.46 4 4 5.46 4 7.25V9.75C4 11.1 4.83 12.26 6 12.75V26C6 35.4 13.21 43.11 22.41 43.92L22.69 42.37C22.75 42.05 22.81 41.74 22.88 41.44C14.85 40.86 8.51 34.18 8.51 26V13H39.51V21.57C40.1 21.52 40.64 21.5 41.1 21.5C41.42 21.5 41.72 21.51 42.01 21.53V12.76C43.18 12.27 44.01 11.11 44.01 9.76V7.26C44.01 5.47 42.55 4.01 40.76 4.01L40.75 4ZM41.5 9.75C41.5 10.16 41.16 10.5 40.75 10.5H7.25C6.84 10.5 6.5 10.16 6.5 9.75V7.25C6.5 6.84 6.84 6.5 7.25 6.5H40.75C41.16 6.5 41.5 6.84 41.5 7.25V9.75Z" fill="#212121"/>
<path d="M23.6398 37.1398L23.4998 37.0898C22.9698 36.9098 22.4698 36.6098 22.0798 36.2098C21.7498 35.8798 21.4898 35.4898 21.3098 35.0598C17.9398 33.9298 15.5098 30.7498 15.5098 27.0098C15.5098 22.3198 19.3198 18.5098 24.0098 18.5098C27.7798 18.5098 30.9798 20.9698 32.0898 24.3798C32.7798 23.8198 33.4998 23.3698 34.2498 22.9998C32.6498 18.9098 28.6698 16.0098 24.0098 16.0098C17.9298 16.0098 13.0098 20.9298 13.0098 27.0098C13.0098 33.0898 17.9298 37.9998 23.9998 38.0098C24.1298 37.7498 24.2698 37.5098 24.4098 37.2998L23.7898 37.1698L23.6398 37.1398Z" fill="#212121"/>
<path d="M21.24 32.3298C19.3214 31.3305 18.0019 29.3227 18 27.0048C18.0027 23.6971 20.6917 21.0098 24 21.0098C27.13 21.0098 29.7 23.4098 29.97 26.4698H28.16C27.18 26.4698 26.27 26.8498 25.58 27.5398L22.06 31.0598C21.69 31.4298 21.42 31.8598 21.24 32.3298Z" fill="#212121"/>
<path d="M18 27.0048L18 26.9998V27.0098L18 27.0048Z" fill="#212121"/>
<path d="M26.5599 38.5801C25.7799 39.3601 25.1499 42.8201 25.1499 42.8201C25.1499 42.8201 28.6099 42.1901 29.3899 41.4101C30.1699 40.6301 30.1699 39.3601 29.3899 38.5801C28.6099 37.8001 27.3399 37.8001 26.5599 38.5801Z" fill="#212121"/>
<path d="M33.0202 26.8699C36.6702 23.2199 42.7002 24.0599 42.9902 24.1299L43.0002 24.1399C43.4102 24.2399 43.7302 24.5599 43.8302 24.9699C43.9002 25.2599 44.7502 31.2999 41.1002 34.9499C40.4202 35.6299 39.7102 36.1899 39.0102 36.6799V39.8099C39.0102 40.1099 38.8902 40.4099 38.6802 40.6199L35.1602 44.1399C34.8802 44.4099 34.4802 44.5299 34.0902 44.4399C33.8802 44.3899 33.6902 44.2899 33.5402 44.1399C33.4102 44.0099 33.3202 43.8599 33.2602 43.6899L32.2202 38.5799L29.3902 35.7499L24.2802 34.7099C24.1102 34.6499 23.9502 34.5499 23.8302 34.4299C23.6902 34.2799 23.5802 34.0899 23.5302 33.8799C23.4402 33.4999 23.5502 33.0899 23.8302 32.8099L27.3502 29.2899C27.5702 29.0799 27.8602 28.9599 28.1602 28.9599H31.2902C31.7902 28.2599 32.3402 27.5499 33.0202 26.8699ZM35.8502 32.1199C36.6302 32.8999 37.9002 32.8999 38.6802 32.1199C39.4602 31.3399 39.4602 30.0699 38.6802 29.2899C37.9002 28.5099 36.6302 28.5099 35.8502 29.2899C35.0702 30.0699 35.0702 31.3399 35.8502 32.1199Z" fill="#212121"/>
</svg>
