<svg width="16" height="16" viewBox="0 0 16 16" fill="none" xmlns="http://www.w3.org/2000/svg">
<path fill-rule="evenodd" clip-rule="evenodd" d="M15 2.5C15 3.33 14.33 4 13.5 4H2.5C1.67 4 1 3.33 1 2.5C1 1.67 1.67 1 2.5 1H13.5C14.33 1 15 1.67 15 2.5ZM13.5601 5H14.0001V5.01C13.8601 5 13.7201 5 13.5601 5ZM6.1201 8.33977L6.8501 7.60977C7.1301 7.32977 7.5101 7.16977 7.9101 7.16977H8.7701C8.5301 7.06977 8.2601 7.00977 7.9801 7.00977C7.1101 7.00977 6.3701 7.56977 6.1001 8.34977L6.1201 8.33977ZM6.03 11.5002L6.41 11.6302C6.32 11.7002 6.23 11.7702 6.15 11.8502C5.83 12.1602 5.59 12.7702 5.41 13.4002C3.4 12.4302 2 10.3702 2 7.99023V4.99023H13.56C12.6 4.99023 10.82 5.19023 9.49 6.40023C9.05 6.15023 8.54 5.99023 8 5.99023C6.34 5.99023 5 7.33023 5 8.99023C5 9.21023 5.03 9.42023 5.07 9.63023C4.99 9.88023 4.98 10.1502 5.04 10.4202C5.11 10.7002 5.24 10.9402 5.44 11.1402C5.61 11.3002 5.81 11.4302 6.03 11.5002ZM6.85014 12.5601C6.46014 12.9501 6.14014 14.6801 6.14014 14.6801C6.14014 14.6801 7.87014 14.3601 8.26014 13.9701C8.65014 13.5801 8.65014 12.9501 8.26014 12.5601C7.87014 12.1701 7.24014 12.1701 6.85014 12.5601ZM10.0299 7.26022C11.6299 5.66022 14.2599 6.03022 14.3899 6.06022L14.3999 6.08022C14.5799 6.12022 14.7199 6.26022 14.7599 6.44022C14.7899 6.56022 15.1699 9.20022 13.5699 10.8002C13.2799 11.0902 12.9699 11.3302 12.6599 11.5502V12.9202C12.6599 13.0502 12.5999 13.1802 12.5099 13.2702L11.0999 14.6802C10.9799 14.8002 10.7999 14.8502 10.6299 14.8102C10.5399 14.7902 10.4499 14.7402 10.3899 14.6802C10.3399 14.6202 10.2899 14.5502 10.2699 14.4802L9.59991 12.4702L8.35991 11.2302L6.34991 10.5602C6.26991 10.5402 6.19991 10.4902 6.14991 10.4402C6.08991 10.3702 6.03991 10.2902 6.01991 10.2002C5.97991 10.0302 6.02991 9.85022 6.14991 9.73022L7.55991 8.32022C7.64991 8.22022 7.77991 8.17022 7.90991 8.17022H9.27991C9.48991 7.87022 9.72991 7.56022 10.0299 7.26022ZM11.0999 9.73022C11.4899 10.1202 12.1199 10.1202 12.5099 9.73022C12.8999 9.34022 12.8999 8.71022 12.5099 8.32022C12.1199 7.93022 11.4899 7.93022 11.0999 8.32022C10.7099 8.71022 10.7099 9.34022 11.0999 9.73022Z" fill="#212121"/>
</svg>
