<svg width="28" height="28" viewBox="0 0 28 28" fill="none" xmlns="http://www.w3.org/2000/svg">
<path d="M4.5 14V7H23.5V13.55C23.85 13.52 24.17 13.5 24.44 13.5C24.64 13.5 24.82 13.5 25 13.52V6.83C25.59 6.55 26 5.95 26 5.25V3.75C26 2.78 25.22 2 24.25 2H3.75C2.78 2 2 2.78 2 3.75V5.25C2 5.95 2.41 6.55 3 6.83V14C3 19.84 7.56 24.61 13.31 24.97C13.44 24.46 13.6 23.95 13.79 23.49C8.64 23.38 4.5 19.18 4.5 14ZM3.5 5.25V3.75C3.5 3.61 3.61 3.5 3.75 3.5H24.25C24.39 3.5 24.5 3.61 24.5 3.75V5.25C24.5 5.39 24.39 5.5 24.25 5.5H3.75C3.61 5.5 3.5 5.39 3.5 5.25Z" fill="#212121"/>
<path d="M13.3178 20.52C13.3156 20.49 13.3133 20.46 13.31 20.43C10.88 20.09 9 18.02 9 15.5C9 12.74 11.24 10.5 14 10.5C16.76 10.5 18.95 12.7 18.99 15.42C19.43 15.01 19.91 14.68 20.4 14.42C19.89 11.34 17.22 9 14 9C10.41 9 7.5 11.91 7.5 15.5C7.5 19.09 10.41 22 14 22C14.08 22 14.16 22 14.24 21.99C14.12 21.91 14.01 21.83 13.91 21.73C13.63 21.45 13.43 21.1 13.34 20.7C13.3267 20.64 13.3222 20.58 13.3178 20.52Z" fill="#212121"/>
<path d="M13.68 18.97C11.9 18.8 10.5 17.32 10.5 15.5H10.51C10.51 13.57 12.08 12 14.01 12C15.94 12 17.51 13.57 17.51 15.5C17.51 15.77 17.47 16.03 17.41 16.29H17.18C16.6 16.29 16.06 16.52 15.66 16.92L13.9 18.68C13.8292 18.7508 13.777 18.8277 13.7239 18.906C13.7095 18.9272 13.695 18.9486 13.68 18.97Z" fill="#212121"/>
<path d="M15.56 23.38C14.97 23.97 14.5 26.56 14.5 26.56C14.5 26.56 17.1 26.09 17.68 25.5C18.27 24.91 18.27 23.96 17.68 23.38C17.09 22.79 16.14 22.79 15.56 23.38Z" fill="#212121"/>
<path d="M25.5101 15.0702C25.7401 15.1302 25.9201 15.3102 25.9801 15.5402L25.9701 15.5502C26.0101 15.7202 26.4901 19.1202 24.4401 21.1702C24.0501 21.5502 23.6601 21.8602 23.2601 22.1402V23.9002C23.2601 24.0802 23.1901 24.2402 23.0701 24.3602L21.3101 26.1202C21.1501 26.2702 20.9401 26.3502 20.7201 26.3002C20.6001 26.2702 20.4901 26.2102 20.4101 26.1302C20.3401 26.0602 20.2801 25.9802 20.2501 25.8802L19.5301 23.1302L17.9301 21.5302L15.2101 20.8302C15.1201 20.7902 15.0301 20.7402 14.9601 20.6702C14.8801 20.5802 14.8201 20.4802 14.7901 20.3602C14.7401 20.1402 14.7901 19.9002 14.9501 19.7402L16.7101 17.9802C16.8401 17.8602 17.0001 17.7902 17.1701 17.7902H18.9301C19.2101 17.3902 19.5201 16.9902 19.9001 16.6102C21.9501 14.5602 25.3501 15.0302 25.5101 15.0702ZM21.5801 19.4902C21.9701 19.8802 22.6001 19.8802 22.9901 19.4902C23.3801 19.1002 23.3801 18.4702 22.9901 18.0802C22.6001 17.6902 21.9701 17.6902 21.5801 18.0802C21.1901 18.4702 21.1901 19.1002 21.5801 19.4902Z" fill="#212121"/>
</svg>
