<svg width="16" height="16" viewBox="0 0 16 16" fill="none" xmlns="http://www.w3.org/2000/svg">
<path d="M5.15176 1C5.8829 1 6.25199 2.05954 5.73901 2.68586L4.08579 4.70436C4.05769 4.73867 4.02803 4.76999 3.99709 4.79832V14.4891C3.99709 14.7713 3.77388 15 3.49854 15C3.22321 15 3 14.7713 3 14.4891V4.79834C2.96905 4.77 2.93939 4.73868 2.91129 4.70437L1.25806 2.68586C0.745085 2.05954 1.11417 1 1.84531 1H5.15176Z" fill="#424242"/>
<path d="M7 8.00342C7 6.89885 7.89543 6.00342 9 6.00342H13.9893V7.00342H9C8.44772 7.00342 8 7.45113 8 8.00342V12C8 12.5523 8.44772 13 9 13H13.9893V14H9C7.89543 14 7 13.1046 7 12V8.00342Z" fill="#424242"/>
</svg>
