<svg width="20" height="20" viewBox="0 0 20 20" fill="none" xmlns="http://www.w3.org/2000/svg">
<path d="M7.71091 3.82724C8.27381 3.1484 7.86881 2 7.06652 2H3.43836C2.63607 2 2.23108 3.1484 2.79397 3.82724L4.50244 5.88765L4.50244 17.3511C4.50244 17.7653 4.83823 18.1011 5.25244 18.1011C5.66665 18.1011 6.00244 17.7653 6.00244 17.3511L6.00244 5.88766L7.71091 3.82724Z" fill="#424242"/>
<path d="M9.00342 9.75391C9.00342 8.23512 10.2346 7.00391 11.7534 7.00391H17V8.50391H11.7534C11.0631 8.50391 10.5034 9.06355 10.5034 9.75391V14.25C10.5034 14.9404 11.0631 15.5 11.7534 15.5H17V17H11.7534C10.2346 17 9.00342 15.7688 9.00342 14.25V9.75391Z" fill="#424242"/>
</svg>
