<svg width="24" height="24" viewBox="0 0 24 24" fill="none" xmlns="http://www.w3.org/2000/svg">
<path d="M4.78755 7.5C6.28948 5.09785 8.95814 3.5 12 3.5C15.0419 3.5 17.7105 5.09785 19.2124 7.5H4.78755ZM4.04455 9H19.9554C20.3074 9.93288 20.5 10.944 20.5 12C20.5 13.056 20.3074 14.0671 19.9554 15H4.04455C3.69259 14.0671 3.5 13.056 3.5 12C3.5 10.944 3.69259 9.93288 4.04455 9ZM19.2124 16.5C17.7105 18.9022 15.0419 20.5 12 20.5C8.95814 20.5 6.28948 18.9022 4.78755 16.5H19.2124ZM12 2C6.47715 2 2 6.47715 2 12C2 17.5228 6.47715 22 12 22C17.5228 22 22 17.5228 22 12C22 6.47715 17.5228 2 12 2Z" fill="#212121"/>
</svg>
