<svg width="20" height="20" viewBox="0 0 20 20" fill="none" xmlns="http://www.w3.org/2000/svg">
<path d="M2.45534 7.33338C3.55334 4.22687 6.51597 2 10 2C13.484 2 16.4467 4.22687 17.5447 7.33338C17.8397 8.1681 18 9.06587 18 10C18 10.9341 17.8397 11.8319 17.5447 12.6666C16.4467 15.7731 13.484 18 10 18C6.51597 18 3.55334 15.7731 2.45534 12.6666C2.16031 11.8319 2 10.9341 2 10C2 9.06587 2.16031 8.1681 2.45534 7.33338ZM3 10C3 10.8766 3.15039 11.7181 3.42676 12.5H16.5732C16.8496 11.7181 17 10.8766 17 10C17 9.12341 16.8496 8.28195 16.5732 7.5H3.42676C3.15039 8.28195 3 9.12341 3 10Z" fill="#212121"/>
</svg>
