<svg width="230" height="160" viewBox="0 0 230 160" fill="none" xmlns="http://www.w3.org/2000/svg">
<path d="M104.455 140C138.948 140 166.91 112.018 166.91 77.5C166.91 42.9822 138.948 15 104.455 15C69.9621 15 42 42.9822 42 77.5C42 112.018 69.9621 140 104.455 140Z" fill="#242424"/>
<g filter="url(#filter0_d_6030_1331)">
<path d="M161 40.8941V114.106C161 116.79 158.813 119 156.157 119H52.8427C50.187 119 48 116.79 48 114.106V40.8941C48 38.2102 50.187 36 52.8427 36H156.157C158.813 36 161 38.2102 161 40.8941Z" fill="#5C5C5C"/>
</g>
<path d="M47.9336 43.9255H75.7114V119.148H51.9336C49.7245 119.148 47.9336 117.357 47.9336 115.148V43.9255Z" fill="#3A3A3A"/>
<rect x="83.1494" y="50.8525" width="72.6744" height="31.9767" rx="2" fill="#4D4D4D"/>
<g opacity="0.3">
<path d="M122.341 63.6388C123.189 63.6388 123.877 62.9457 123.877 62.0907C123.877 61.2356 123.189 60.5425 122.341 60.5425C121.492 60.5425 120.805 61.2356 120.805 62.0907C120.805 62.9457 121.492 63.6388 122.341 63.6388Z" fill="#CCCCCC"/>
<path d="M122.431 73.6907H110.713C109.957 73.6907 109.516 72.8064 109.957 72.2379L115.816 64.0265C116.194 63.5211 116.95 63.5211 117.328 64.0265L123.187 72.2379C123.628 72.8696 123.187 73.6907 122.431 73.6907Z" fill="#CCCCCC"/>
<path opacity="0.7" d="M126.511 73.5232H120.744C119.868 73.5232 119.43 72.6051 119.868 71.9695L122.715 68.0851C123.153 67.5201 123.956 67.5201 124.394 68.0851L127.241 71.9695C127.898 72.6051 127.387 73.5232 126.511 73.5232Z" fill="#CCCCCC"/>
</g>
<rect x="83.1494" y="88.6433" width="22.2868" height="23.2558" rx="2" fill="#4D4D4D"/>
<rect x="109.312" y="88.6433" width="20.3488" height="23.2558" rx="2" fill="#4D4D4D"/>
<rect x="133.537" y="88.6433" width="22.2868" height="23.2558" rx="2" fill="#4D4D4D"/>
<path d="M54.0801 53.7598H69.584" stroke="#707070" stroke-width="2" stroke-miterlimit="10"/>
<path d="M54.0801 61.5117H66.677" stroke="#707070" stroke-width="2" stroke-miterlimit="10"/>
<path d="M54.0801 69.2637H70.5529" stroke="#707070" stroke-width="2" stroke-miterlimit="10"/>
<path d="M54.0801 77.0154H60.863" stroke="#707070" stroke-width="2" stroke-miterlimit="10"/>
<path d="M54.0801 84.7673H67.646" stroke="#707070" stroke-width="2" stroke-miterlimit="10"/>
<path d="M54.0801 92.5193H62.801" stroke="#707070" stroke-width="2" stroke-miterlimit="10"/>
<path d="M161.426 40.647V44.1937H47.4854V40.647C47.4854 37.9673 49.6906 35.7605 52.3683 35.7605H156.543C159.22 35.7605 161.426 37.9673 161.426 40.647Z" fill="#3A3A3A"/>
<path d="M52.6048 41.514C53.4312 41.514 54.1012 40.8436 54.1012 40.0165C54.1012 39.1895 53.4312 38.519 52.6048 38.519C51.7784 38.519 51.1084 39.1895 51.1084 40.0165C51.1084 40.8436 51.7784 41.514 52.6048 41.514Z" fill="#CCCCCC"/>
<path opacity="0.6" d="M57.2513 41.514C58.0777 41.514 58.7477 40.8436 58.7477 40.0165C58.7477 39.1895 58.0777 38.519 57.2513 38.519C56.4248 38.519 55.7549 39.1895 55.7549 40.0165C55.7549 40.8436 56.4248 41.514 57.2513 41.514Z" fill="#777777"/>
<path opacity="0.4" d="M61.9769 41.514C62.8033 41.514 63.4733 40.8436 63.4733 40.0165C63.4733 39.1895 62.8033 38.519 61.9769 38.519C61.1504 38.519 60.4805 39.1895 60.4805 40.0165C60.4805 40.8436 61.1504 41.514 61.9769 41.514Z" fill="#5C5C5C"/>
<rect x="51.5" y="74.5" width="31" height="53" rx="5.5" fill="url(#paint0_linear_6030_1331)" stroke="#777777"/>
<path d="M66.25 108.25V109C66.25 109.414 65.9142 109.75 65.5 109.75H64V110.5C64 111.328 63.3284 112 62.5 112H59.5C58.6716 112 58 111.328 58 110.5V108.561C58 108.163 58.158 107.781 58.4393 107.5L64.2433 101.696C64.0848 101.158 64 100.588 64 100C64 96.6863 66.6863 94 70 94C73.3137 94 76 96.6863 76 100C76 103.314 73.3137 106 70 106H68.5V107.5C68.5 107.914 68.1642 108.25 67.75 108.25H66.25ZM71.5 100C72.3284 100 73 99.3284 73 98.5C73 97.6716 72.3284 97 71.5 97C70.6716 97 70 97.6716 70 98.5C70 99.3284 70.6716 100 71.5 100Z" fill="url(#paint1_linear_6030_1331)"/>
<path d="M55 80C55 78.3431 56.3431 77 58 77H75C76.6569 77 78 78.3431 78 80C78 81.6569 76.6569 83 75 83H58C56.3431 83 55 81.6569 55 80Z" fill="#3E3E3E"/>
<ellipse cx="62.0476" cy="80" rx="1.04762" ry="1" fill="#CCCCCC"/>
<rect x="64.1426" y="79" width="7.33333" height="2" rx="1" fill="#CCCCCC"/>
<path d="M111.484 98.0566H98.2278C96.7674 98.0566 95.5879 96.857 95.5879 95.3719V76.6935C95.5879 71.4955 99.7444 67.3257 104.8 67.3257C109.855 67.3257 114.011 71.5526 114.011 76.6935V95.429C114.067 96.857 112.888 98.0566 111.484 98.0566ZM100.868 92.7444H108.844V76.6935C108.844 74.4658 107.046 72.6379 104.856 72.6379C102.665 72.6379 100.868 74.4658 100.868 76.6935V92.7444Z" fill="url(#paint2_linear_6030_1331)"/>
<path d="M117.101 103.178H92.4999C90.829 103.178 89.4463 101.788 89.4463 100.108V83.7128C89.4463 82.0327 90.829 80.6423 92.4999 80.6423H117.101C118.772 80.6423 120.155 82.0327 120.155 83.7128V100.108C120.155 101.788 118.772 103.178 117.101 103.178Z" fill="url(#paint3_linear_6030_1331)"/>
<path d="M107.871 89.7613C107.871 90.9269 107.189 91.9259 106.222 92.4254V95.6446C106.222 96.4216 105.597 97.0322 104.8 97.0322C104.004 97.0322 103.379 96.4216 103.379 95.6446V92.4254C102.412 91.9259 101.729 90.9269 101.729 89.7613C101.729 88.0962 103.094 86.7642 104.8 86.7642C106.506 86.7642 107.871 88.0962 107.871 89.7613Z" fill="#252525"/>
<defs>
<filter id="filter0_d_6030_1331" x="26" y="25" width="157" height="127" filterUnits="userSpaceOnUse" color-interpolation-filters="sRGB">
<feFlood flood-opacity="0" result="BackgroundImageFix"/>
<feColorMatrix in="SourceAlpha" type="matrix" values="0 0 0 0 0 0 0 0 0 0 0 0 0 0 0 0 0 0 127 0" result="hardAlpha"/>
<feOffset dy="11"/>
<feGaussianBlur stdDeviation="11"/>
<feColorMatrix type="matrix" values="0 0 0 0 0 0 0 0 0 0 0 0 0 0 0 0 0 0 0.27 0"/>
<feBlend mode="normal" in2="BackgroundImageFix" result="effect1_dropShadow_6030_1331"/>
<feBlend mode="normal" in="SourceGraphic" in2="effect1_dropShadow_6030_1331" result="shape"/>
</filter>
<linearGradient id="paint0_linear_6030_1331" x1="66.9896" y1="72.7509" x2="66.9896" y2="128.582" gradientUnits="userSpaceOnUse">
<stop stop-color="#5C5C5C"/>
<stop offset="0.9964" stop-color="#4D4D4D"/>
</linearGradient>
<linearGradient id="paint1_linear_6030_1331" x1="67" y1="94" x2="67" y2="112" gradientUnits="userSpaceOnUse">
<stop stop-color="#FAFAFA"/>
<stop offset="0.828125" stop-color="#F5F2EC"/>
</linearGradient>
<linearGradient id="paint2_linear_6030_1331" x1="104.801" y1="67.3257" x2="104.801" y2="98.0566" gradientUnits="userSpaceOnUse">
<stop stop-color="#FAFAFA"/>
<stop offset="0.828125" stop-color="#F5F2EC"/>
</linearGradient>
<linearGradient id="paint3_linear_6030_1331" x1="104.801" y1="80.6423" x2="104.801" y2="103.178" gradientUnits="userSpaceOnUse">
<stop stop-color="#FAFAFA"/>
<stop offset="0.828125" stop-color="#F5F2EC"/>
</linearGradient>
</defs>
</svg>
