<svg width="230" height="160" viewBox="0 0 230 160" fill="none" xmlns="http://www.w3.org/2000/svg">
<path d="M104.455 140C138.948 140 166.91 112.018 166.91 77.5C166.91 42.9822 138.948 15 104.455 15C69.9621 15 42 42.9822 42 77.5C42 112.018 69.9621 140 104.455 140Z" fill="#F0F0F0"/>
<g filter="url(#filter0_d_6030_1302)">
<path d="M161.426 40.6471V113.746C161.426 116.425 159.22 118.632 156.543 118.632H52.3683C49.6906 118.632 47.4854 116.425 47.4854 113.746V40.6471C47.4854 37.9674 49.6906 35.7606 52.3683 35.7606H156.543C159.22 35.7606 161.426 37.9674 161.426 40.6471Z" fill="url(#paint0_linear_6030_1302)"/>
</g>
<rect x="83.1533" y="50.8528" width="72.6744" height="31.9767" rx="2" fill="#EDE5DA"/>
<g opacity="0.3">
<path d="M122.341 63.6391C123.189 63.6391 123.877 62.9459 123.877 62.0909C123.877 61.2359 123.189 60.5427 122.341 60.5427C121.492 60.5427 120.805 61.2359 120.805 62.0909C120.805 62.9459 121.492 63.6391 122.341 63.6391Z" fill="#96938E"/>
<path d="M122.431 73.691H110.713C109.957 73.691 109.516 72.8067 109.957 72.2382L115.816 64.0267C116.194 63.5214 116.95 63.5214 117.328 64.0267L123.187 72.2382C123.628 72.8698 123.187 73.691 122.431 73.691Z" fill="#96938E"/>
<path opacity="0.7" d="M126.511 73.5234H120.744C119.868 73.5234 119.43 72.6052 119.868 71.9696L122.715 68.0852C123.153 67.5202 123.956 67.5202 124.394 68.0852L127.241 71.9696C127.898 72.6052 127.387 73.5234 126.511 73.5234Z" fill="#96938E"/>
</g>
<rect x="83.1533" y="88.6434" width="22.2868" height="23.2558" rx="2" fill="#EDE5DA"/>
<rect x="109.316" y="88.6434" width="20.3488" height="23.2558" rx="2" fill="#EDE5DA"/>
<rect x="133.541" y="88.6434" width="22.2868" height="23.2558" rx="2" fill="#EDE5DA"/>
<path d="M54.084 53.7598H69.5879" stroke="#EDE5DA" stroke-width="2" stroke-miterlimit="10"/>
<path d="M54.084 61.5117H66.6809" stroke="#EDE5DA" stroke-width="2" stroke-miterlimit="10"/>
<path d="M87.0293 97.3644H100.595" stroke="#BCB9B3" stroke-width="2" stroke-miterlimit="10"/>
<path d="M113.192 97.3644H126.758" stroke="#BCB9B3" stroke-width="2" stroke-miterlimit="10"/>
<path d="M138.386 97.3644H151.952" stroke="#BCB9B3" stroke-width="2" stroke-miterlimit="10"/>
<path d="M87.0293 102.209H97.6882" stroke="#BCB9B3" stroke-width="2" stroke-miterlimit="10"/>
<path d="M113.192 102.209H123.851" stroke="#BCB9B3" stroke-width="2" stroke-miterlimit="10"/>
<path d="M138.386 102.209H149.045" stroke="#BCB9B3" stroke-width="2" stroke-miterlimit="10"/>
<path d="M54.084 69.2637H70.5569" stroke="#EDE5DA" stroke-width="2" stroke-miterlimit="10"/>
<path d="M54.084 77.0155H60.8669" stroke="#EDE5DA" stroke-width="2" stroke-miterlimit="10"/>
<path d="M54.084 84.7675H67.6499" stroke="#EDE5DA" stroke-width="2" stroke-miterlimit="10"/>
<path d="M54.084 92.5194H62.8049" stroke="#EDE5DA" stroke-width="2" stroke-miterlimit="10"/>
<path d="M161.426 40.6471V44.1938H47.4854V40.6471C47.4854 37.9674 49.6906 35.7606 52.3683 35.7606H156.543C159.22 35.7606 161.426 37.9674 161.426 40.6471Z" fill="url(#paint1_linear_6030_1302)"/>
<path d="M52.6048 41.5141C53.4312 41.5141 54.1012 40.8437 54.1012 40.0166C54.1012 39.1896 53.4312 38.5192 52.6048 38.5192C51.7784 38.5192 51.1084 39.1896 51.1084 40.0166C51.1084 40.8437 51.7784 41.5141 52.6048 41.5141Z" fill="#F4F1EA"/>
<path opacity="0.6" d="M57.2513 41.5141C58.0777 41.5141 58.7477 40.8437 58.7477 40.0166C58.7477 39.1896 58.0777 38.5192 57.2513 38.5192C56.4248 38.5192 55.7549 39.1896 55.7549 40.0166C55.7549 40.8437 56.4248 41.5141 57.2513 41.5141Z" fill="#BAB7B4"/>
<path opacity="0.4" d="M61.9769 41.5141C62.8033 41.5141 63.4733 40.8437 63.4733 40.0166C63.4733 39.1896 62.8033 38.5192 61.9769 38.5192C61.1504 38.5192 60.4805 39.1896 60.4805 40.0166C60.4805 40.8437 61.1504 41.5141 61.9769 41.5141Z" fill="#949390"/>
<path d="M111.484 98.0565H98.2278C96.7674 98.0565 95.5879 96.8569 95.5879 95.3718V76.6933C95.5879 71.4954 99.7444 67.3256 104.8 67.3256C109.855 67.3256 114.011 71.5525 114.011 76.6933V95.4289C114.067 96.8569 112.888 98.0565 111.484 98.0565ZM100.868 92.7442H108.844V76.6933C108.844 74.4656 107.046 72.6378 104.856 72.6378C102.665 72.6378 100.868 74.4656 100.868 76.6933V92.7442Z" fill="url(#paint2_linear_6030_1302)"/>
<g filter="url(#filter1_d_6030_1302)">
<path d="M117.101 103.178H92.4999C90.829 103.178 89.4463 101.788 89.4463 100.108V83.7128C89.4463 82.0327 90.829 80.6423 92.4999 80.6423H117.101C118.772 80.6423 120.155 82.0327 120.155 83.7128V100.108C120.155 101.788 118.772 103.178 117.101 103.178Z" fill="url(#paint3_linear_6030_1302)"/>
</g>
<path d="M107.871 89.0531C107.871 90.3321 107.189 91.4285 106.222 91.9767V95.5093C106.222 96.362 105.597 97.032 104.8 97.032C104.004 97.032 103.379 96.362 103.379 95.5093V91.9767C102.412 91.4285 101.729 90.3321 101.729 89.0531C101.729 87.2258 103.094 85.764 104.8 85.764C106.506 85.764 107.871 87.2258 107.871 89.0531Z" fill="white"/>
<g filter="url(#filter2_d_6030_1302)">
<rect x="51" y="74" width="32" height="54" rx="5" fill="url(#paint4_linear_6030_1302)"/>
<rect x="51.5" y="74.5" width="31" height="53" rx="4.5" stroke="#BCB9B3"/>
</g>
<g filter="url(#filter3_d_6030_1302)">
<path d="M66.25 108.25V109C66.25 109.414 65.9142 109.75 65.5 109.75H64V110.5C64 111.328 63.3284 112 62.5 112H59.5C58.6716 112 58 111.328 58 110.5V108.561C58 108.163 58.158 107.781 58.4393 107.5L64.2433 101.696C64.0848 101.158 64 100.588 64 100C64 96.6863 66.6863 94 70 94C73.3137 94 76 96.6863 76 100C76 103.314 73.3137 106 70 106H68.5V107.5C68.5 107.914 68.1642 108.25 67.75 108.25H66.25ZM71.5 100C72.3284 100 73 99.3284 73 98.5C73 97.6716 72.3284 97 71.5 97C70.6716 97 70 97.6716 70 98.5C70 99.3284 70.6716 100 71.5 100Z" fill="url(#paint5_linear_6030_1302)"/>
</g>
<path d="M55 80C55 78.3431 56.3431 77 58 77H75C76.6569 77 78 78.3431 78 80C78 81.6569 76.6569 83 75 83H58C56.3431 83 55 81.6569 55 80Z" fill="#D3CCC3"/>
<ellipse cx="62.0476" cy="80" rx="1.04762" ry="1" fill="white"/>
<rect x="64.1426" y="79" width="7.33333" height="2" rx="1" fill="white"/>
<defs>
<filter id="filter0_d_6030_1302" x="25.4854" y="24.7606" width="157.94" height="126.871" filterUnits="userSpaceOnUse" color-interpolation-filters="sRGB">
<feFlood flood-opacity="0" result="BackgroundImageFix"/>
<feColorMatrix in="SourceAlpha" type="matrix" values="0 0 0 0 0 0 0 0 0 0 0 0 0 0 0 0 0 0 127 0" result="hardAlpha"/>
<feOffset dy="11"/>
<feGaussianBlur stdDeviation="11"/>
<feColorMatrix type="matrix" values="0 0 0 0 0.576471 0 0 0 0 0.501961 0 0 0 0 0.396078 0 0 0 0.37 0"/>
<feBlend mode="normal" in2="BackgroundImageFix" result="effect1_dropShadow_6030_1302"/>
<feBlend mode="normal" in="SourceGraphic" in2="effect1_dropShadow_6030_1302" result="shape"/>
</filter>
<filter id="filter1_d_6030_1302" x="67.4463" y="69.6423" width="74.709" height="66.536" filterUnits="userSpaceOnUse" color-interpolation-filters="sRGB">
<feFlood flood-opacity="0" result="BackgroundImageFix"/>
<feColorMatrix in="SourceAlpha" type="matrix" values="0 0 0 0 0 0 0 0 0 0 0 0 0 0 0 0 0 0 127 0" result="hardAlpha"/>
<feOffset dy="11"/>
<feGaussianBlur stdDeviation="11"/>
<feColorMatrix type="matrix" values="0 0 0 0 0.482733 0 0 0 0 0.482733 0 0 0 0 0.482733 0 0 0 0.27 0"/>
<feBlend mode="normal" in2="BackgroundImageFix" result="effect1_dropShadow_6030_1302"/>
<feBlend mode="normal" in="SourceGraphic" in2="effect1_dropShadow_6030_1302" result="shape"/>
</filter>
<filter id="filter2_d_6030_1302" x="29" y="54" width="76" height="98" filterUnits="userSpaceOnUse" color-interpolation-filters="sRGB">
<feFlood flood-opacity="0" result="BackgroundImageFix"/>
<feColorMatrix in="SourceAlpha" type="matrix" values="0 0 0 0 0 0 0 0 0 0 0 0 0 0 0 0 0 0 127 0" result="hardAlpha"/>
<feOffset dy="2"/>
<feGaussianBlur stdDeviation="11"/>
<feColorMatrix type="matrix" values="0 0 0 0 0.576471 0 0 0 0 0.501961 0 0 0 0 0.396078 0 0 0 0.37 0"/>
<feBlend mode="normal" in2="BackgroundImageFix" result="effect1_dropShadow_6030_1302"/>
<feBlend mode="normal" in="SourceGraphic" in2="effect1_dropShadow_6030_1302" result="shape"/>
</filter>
<filter id="filter3_d_6030_1302" x="36" y="83" width="62" height="62" filterUnits="userSpaceOnUse" color-interpolation-filters="sRGB">
<feFlood flood-opacity="0" result="BackgroundImageFix"/>
<feColorMatrix in="SourceAlpha" type="matrix" values="0 0 0 0 0 0 0 0 0 0 0 0 0 0 0 0 0 0 127 0" result="hardAlpha"/>
<feOffset dy="11"/>
<feGaussianBlur stdDeviation="11"/>
<feColorMatrix type="matrix" values="0 0 0 0 0.482733 0 0 0 0 0.482733 0 0 0 0 0.482733 0 0 0 0.27 0"/>
<feBlend mode="normal" in2="BackgroundImageFix" result="effect1_dropShadow_6030_1302"/>
<feBlend mode="normal" in="SourceGraphic" in2="effect1_dropShadow_6030_1302" result="shape"/>
</filter>
<linearGradient id="paint0_linear_6030_1302" x1="104.418" y1="33.8437" x2="104.418" y2="119.525" gradientUnits="userSpaceOnUse">
<stop stop-color="#FDFEFF"/>
<stop offset="0.9964" stop-color="#F5F2EC"/>
</linearGradient>
<linearGradient id="paint1_linear_6030_1302" x1="156.906" y1="35.7606" x2="51.1924" y2="40.7334" gradientUnits="userSpaceOnUse">
<stop stop-color="#606060"/>
<stop offset="1" stop-color="#7B7B7B"/>
</linearGradient>
<linearGradient id="paint2_linear_6030_1302" x1="113.282" y1="67.3256" x2="96.1496" y2="67.3614" gradientUnits="userSpaceOnUse">
<stop stop-color="#606060"/>
<stop offset="1" stop-color="#7B7B7B"/>
</linearGradient>
<linearGradient id="paint3_linear_6030_1302" x1="118.937" y1="80.6424" x2="90.383" y2="80.7778" gradientUnits="userSpaceOnUse">
<stop stop-color="#606060"/>
<stop offset="1" stop-color="#7B7B7B"/>
</linearGradient>
<linearGradient id="paint4_linear_6030_1302" x1="66.9896" y1="72.7509" x2="66.9896" y2="128.582" gradientUnits="userSpaceOnUse">
<stop stop-color="#FDFEFF"/>
<stop offset="0.9964" stop-color="#F5F2EC"/>
</linearGradient>
<linearGradient id="paint5_linear_6030_1302" x1="75.286" y1="94" x2="58.5489" y2="94.0583" gradientUnits="userSpaceOnUse">
<stop stop-color="#606060"/>
<stop offset="1" stop-color="#7B7B7B"/>
</linearGradient>
</defs>
</svg>
