<svg width="160" height="160" viewBox="0 0 160 160" fill="none" xmlns="http://www.w3.org/2000/svg">
<path d="M134.779 70.8894C134.779 84.3084 129.997 96.514 122.002 106.079C111.938 118.141 96.8059 125.779 79.818 125.779C63.5439 125.779 48.9829 118.712 38.9186 107.506C30.2819 97.7988 25 84.9508 25 70.8894C25 40.5539 49.5539 16 79.8894 16C110.225 16 134.779 40.5539 134.779 70.8894Z" fill="#F0F0F0"/>
<g filter="url(#filter0_d_3841_34926)">
<path d="M116.863 103.723C119.707 104.637 120.323 108.197 118.181 110.279C108.3 119.887 94.8108 125.779 79.8896 125.779C65.5324 125.779 52.5085 120.279 42.7292 111.289C40.6064 109.337 40.9189 105.982 43.5183 104.734C44.1409 104.435 44.7962 104.145 45.4856 103.866L47.4842 103.081C51.2672 101.582 56.1922 99.726 62.8304 96.9423C64.3293 96.2999 65.5427 95.1579 66.1851 93.6589C66.542 92.8738 66.7561 91.9459 66.7561 91.018V79.6423C66.7561 79.0109 66.4675 78.4492 66.1851 77.8845V77.8845C65.2444 76.5047 64.5791 74.9045 64.2863 73.1807C64.2106 72.7353 63.9364 72.343 63.527 72.152V72.152C63.2609 72.0278 62.9589 72.0076 62.6677 72.0454C59.9225 72.4018 60.0795 68.9973 59.3329 62.7524C59.0347 60.4865 59.2845 59.715 60.0823 59.2728C60.415 59.0883 60.7383 58.877 60.964 58.5707V58.5707C61.3679 58.0227 61.4433 57.2976 61.1815 56.6692C56.3852 45.1529 58.0225 37.3461 62.3747 33.5054C63.5122 32.5015 63.4127 29.2359 62.9405 27.7941V27.7941C62.3629 26.0301 64.2611 26.2804 66.1002 26.5315C70.2691 27.1007 76.9182 27.8437 79.8896 27.2777C85.0343 26.2358 92.7339 27.2733 96.4832 33.1551C97.1961 34.2733 98.1578 35.2311 99.3279 35.8551C103.316 37.9818 104.997 40.9518 105.371 44.1942C106.145 49.9602 102.901 56.2803 102.19 58.8554C102.169 58.9307 102.195 59.0377 102.236 59.1042V59.1042C102.301 59.2087 102.373 59.2876 102.478 59.352C103.197 59.794 103.424 60.5659 103.159 62.7524C102.758 65.9195 102.618 68.4738 102.15 70.1031C101.524 72.2841 98.5916 73.3324 97.4658 75.3025L96.8628 76.3577C96.6358 76.7551 96.4515 77.1797 96.3845 77.6325C96.359 77.8047 96.3411 77.9621 96.3065 78.17C96.1637 79.0979 96.2351 80.9537 96.2351 91.1607C96.2351 92.3741 96.592 93.5162 97.2344 94.5868C97.9344 95.6369 98.9091 96.5496 100.158 97.0557C100.207 97.0754 100.225 97.0772 100.275 97.0933V97.0933C100.327 97.1102 100.402 97.1676 100.453 97.1889C107.764 100.24 113.022 102.23 116.863 103.723V103.723Z" fill="url(#paint0_linear_3841_34926)"/>
</g>
<path d="M102.302 58.898C102.588 57.3277 101.874 55.4005 101.303 54.0443C101.231 53.8302 101.089 53.6161 101.017 53.3306C98.5191 48.3341 93.0231 46.3355 87.7411 46.05C74.2507 45.3363 73.0373 47.9059 68.826 44.0515C70.1108 46.05 70.2536 49.1193 68.255 52.9737C66.8275 55.686 64.1151 56.8994 61.7596 57.6846C55.6212 43.766 58.6904 35.0579 64.7575 31.9886C62.7589 27.5632 62.6162 25.9929 62.6162 25.9929C62.6162 25.9929 75.5355 28.1342 79.961 27.2777C85.5998 26.1357 94.3079 27.4919 97.5199 34.9865C102.873 37.1278 104.943 40.4826 105.443 44.1942C106.228 49.9758 102.945 56.3284 102.302 58.898Z" fill="#676767"/>
<path d="M97.3771 94.444V96.8709H66.1851V93.7303C66.5419 92.9451 66.7561 92.0172 66.7561 91.0893V78.6696C66.5419 78.3841 66.3278 78.1699 66.1851 77.8844V77.1707C66.8275 78.3127 67.684 79.3834 68.7547 80.2399L78.5334 87.0208C80.8175 88.948 84.1008 89.0193 86.4563 87.1635L95.5927 78.9551C95.8782 78.6696 96.235 78.3841 96.5206 78.0986C96.3778 79.0265 96.4492 80.8823 96.4492 91.0893C96.3778 92.3027 96.7347 93.5161 97.3771 94.444Z" fill="url(#paint1_linear_3841_34926)"/>
<defs>
<filter id="filter0_d_3841_34926" x="19.3291" y="15.3544" width="122.133" height="143.424" filterUnits="userSpaceOnUse" color-interpolation-filters="sRGB">
<feFlood flood-opacity="0" result="BackgroundImageFix"/>
<feColorMatrix in="SourceAlpha" type="matrix" values="0 0 0 0 0 0 0 0 0 0 0 0 0 0 0 0 0 0 127 0" result="hardAlpha"/>
<feOffset dy="11"/>
<feGaussianBlur stdDeviation="11"/>
<feColorMatrix type="matrix" values="0 0 0 0 0.576471 0 0 0 0 0.501961 0 0 0 0 0.396078 0 0 0 0.37 0"/>
<feBlend mode="normal" in2="BackgroundImageFix" result="effect1_dropShadow_3841_34926"/>
<feBlend mode="normal" in="SourceGraphic" in2="effect1_dropShadow_3841_34926" result="shape"/>
</filter>
<linearGradient id="paint0_linear_3841_34926" x1="80.505" y1="23.6848" x2="80.505" y2="126.855" gradientUnits="userSpaceOnUse">
<stop stop-color="#FDFEFF"/>
<stop offset="0.9964" stop-color="#F5F2EC"/>
</linearGradient>
<linearGradient id="paint1_linear_3841_34926" x1="81.7208" y1="96.2574" x2="81.7208" y2="85.9384" gradientUnits="userSpaceOnUse">
<stop stop-color="white" stop-opacity="0"/>
<stop offset="0.9913" stop-color="#DAD6CF"/>
</linearGradient>
</defs>
</svg>
