<svg width="160" height="160" viewBox="0 0 160 160" fill="none" xmlns="http://www.w3.org/2000/svg">
<path d="M134.779 70.8894C134.779 84.3084 129.997 96.514 122.002 106.079C111.938 118.141 96.8059 125.779 79.818 125.779C63.5439 125.779 48.9829 118.712 38.9186 107.506C30.2819 97.7988 25 84.9508 25 70.8894C25 40.5539 49.5539 16 79.8894 16C110.225 16 134.779 40.5539 134.779 70.8894Z" fill="#242424"/>
<path d="M122.074 106.079C112.01 118.141 96.8775 125.779 79.8896 125.779C63.6155 125.779 49.0545 118.712 38.9902 107.506C40.7033 106.15 42.8446 104.937 45.4856 103.866L47.4842 103.081C51.2672 101.582 56.1922 99.726 62.8304 96.9423C64.3293 96.2999 65.5427 95.1579 66.1851 93.6589C66.542 92.8738 66.7561 91.9459 66.7561 91.018V78.6696C66.542 78.3841 66.3279 78.17 66.1851 77.8845C65.1145 76.3142 64.4007 74.4583 64.1865 72.4598L63.1159 71.9601C59.9039 72.7453 60.118 69.3192 59.3329 62.7524C58.976 60.0401 59.4042 59.469 60.6177 59.0408L61.6169 57.6846C55.4785 43.766 58.5477 35.0579 64.6148 31.9886C62.6162 27.5632 62.4735 25.9929 62.4735 25.9929C62.4735 25.9929 75.3928 28.1342 79.8896 27.2777C85.5285 26.1357 94.2365 27.4919 97.4485 34.9865C102.802 37.1278 104.943 40.4826 105.371 44.1942C106.157 50.0472 102.802 56.4712 102.159 58.9694C102.231 59.1122 102.302 59.1835 102.302 59.2549C103.159 59.6832 103.444 60.3969 103.159 62.7524C102.374 68.9623 102.588 72.8167 99.3757 71.9601L96.5206 76.9566C96.3779 77.5276 96.3779 77.7417 96.3065 78.17C96.1637 79.0979 96.2351 80.9537 96.2351 91.1607C96.2351 92.3741 96.592 93.5162 97.2344 94.5868C97.9482 95.6575 98.9475 96.5854 100.232 97.0851C100.232 97.0851 100.304 97.0851 100.375 97.1564C107.727 100.226 113.009 102.224 116.863 103.723C118.862 104.366 120.575 105.222 122.074 106.079Z" fill="#A1A1A1"/>
<path d="M102.302 58.898C102.588 57.3277 101.874 55.4005 101.303 54.0443C101.231 53.8302 101.089 53.6161 101.017 53.3306C98.5191 48.3341 93.0231 46.3355 87.7411 46.05C74.2507 45.3363 73.0373 47.9059 68.826 44.0515C70.1108 46.05 70.2536 49.1193 68.255 52.9737C66.8275 55.686 64.1151 56.8994 61.7596 57.6846C55.6212 43.766 58.6904 35.0579 64.7575 31.9886C62.7589 27.5632 62.6162 25.9929 62.6162 25.9929C62.6162 25.9929 75.5355 28.1342 79.961 27.2777C85.5998 26.1357 94.3079 27.4919 97.5199 34.9865C102.873 37.1278 104.943 40.4826 105.443 44.1942C106.228 49.9758 102.945 56.3284 102.302 58.898Z" fill="#3A3A3A"/>
<path d="M97.3771 94.444V96.8709H66.1851V93.7303C66.5419 92.9451 66.7561 92.0172 66.7561 91.0893V78.6696C66.5419 78.3841 66.3278 78.1699 66.1851 77.8844V77.1707C66.8275 78.3127 67.684 79.3834 68.7547 80.2399L78.5334 87.0208C80.8175 88.948 84.1008 89.0193 86.4563 87.1635L95.5927 78.9551C95.8782 78.6696 96.235 78.3841 96.5206 78.0986C96.3778 79.0265 96.4492 80.8823 96.4492 91.0893C96.3778 92.3027 96.7347 93.5161 97.3771 94.444Z" fill="url(#paint0_linear_3841_34926)"/>
<defs>
<linearGradient id="paint0_linear_3841_34926" x1="81.7208" y1="96.2574" x2="81.7208" y2="85.9384" gradientUnits="userSpaceOnUse">
<stop stop-color="#A1A1A1"/>
<stop offset="0.9913" stop-color="#8A8A8A"/>
</linearGradient>
</defs>
</svg>
