<svg width="64" height="64" viewBox="0 0 64 64" fill="none" xmlns="http://www.w3.org/2000/svg">
<path d="M41.2433 7C43.3143 7 44.9932 8.67894 44.9932 10.75V14L49.25 14C50.7688 14 52 15.2312 52 16.75V21H55.25C57.8734 21 60 23.1267 60 25.75L60 51.7501C60 54.9258 57.4256 57.5001 54.25 57.5001L9.75 57.5001C6.57436 57.5001 4 54.9258 4 51.7501L4 25.7501C4 23.1267 6.12665 21.0001 8.75 21.0001H12V16.7501C12 15.2313 13.2312 14.0001 14.75 14.0001H19.0068L19.0068 10.75C19.0068 8.67893 20.6857 7 22.7568 7L41.2433 7ZM41.4932 10.75C41.4932 10.6119 41.3813 10.5 41.2432 10.5L22.7568 10.5C22.6187 10.5 22.5068 10.6119 22.5068 10.75V14.7501C22.5068 16.2689 21.2755 17.5001 19.7568 17.5001L15.5 17.5001V21.7501C15.5 23.2689 14.2688 24.5001 12.75 24.5001L8.75 24.5001C8.05965 24.5001 7.5 25.0597 7.5 25.7501L7.5 51.7501C7.5 52.9928 8.50736 54.0001 9.75 54.0001L54.25 54.0001C55.4926 54.0001 56.5 52.9928 56.5 51.7501L56.5 25.75C56.5 25.0596 55.9404 24.5 55.25 24.5H51.25C49.7312 24.5 48.5 23.2688 48.5 21.75V17.5H44.2432C42.7245 17.5 41.4932 16.2688 41.4932 14.75V10.75ZM42.25 47.25C42.25 48.2165 43.0335 49 44 49C44.9665 49 45.75 48.2165 45.75 47.25V34.75C45.75 33.7835 44.9665 33 44 33C43.0335 33 42.25 33.7835 42.25 34.75V47.25ZM34.25 47.25C34.25 48.2165 35.0335 49 36 49C36.9665 49 37.75 48.2165 37.75 47.25V34.75C37.75 33.7835 36.9665 33 36 33C35.0335 33 34.25 33.7835 34.25 34.75L34.25 47.25ZM26.25 47.25C26.25 48.2165 27.0335 49 28 49C28.9665 49 29.75 48.2165 29.75 47.25L29.75 34.75C29.75 33.7835 28.9665 33 28 33C27.0335 33 26.25 33.7835 26.25 34.75L26.25 47.25ZM18.25 47.25C18.25 48.2165 19.0335 49 20 49C20.9665 49 21.75 48.2165 21.75 47.25L21.75 34.75C21.75 33.7835 20.9665 33 20 33C19.0335 33 18.25 33.7835 18.25 34.75L18.25 47.25Z" fill="#212121"/>
</svg>
