<svg width="32" height="32" viewBox="0 0 32 32" fill="none" xmlns="http://www.w3.org/2000/svg">
<path d="M20.5 4C21.8807 4 23 5.11929 23 6.5V7L24 7C25.1046 7 26 7.89543 26 9V11H27C28.6569 11 30 12.3431 30 14L30 26C30 27.6569 28.6569 29 27 29L5 29C3.34315 29 2 27.6569 2 26L2 14C2 12.3431 3.34315 11 5 11H6V10C6 8.89543 6.89543 8 8 8H9L9 6.5C9 5.11929 10.1193 4 11.5 4L20.5 4ZM21 6.5C21 6.22386 20.7761 6 20.5 6L11.5 6C11.2239 6 11 6.22386 11 6.5V8.99C11 9.54781 10.5478 10 9.99 10L8 10V11.99C8 12.5478 7.54781 13 6.99 13L5 13C4.44772 13 4 13.4477 4 14L4 26C4 26.5523 4.44772 27 5 27L27 27C27.5523 27 28 26.5523 28 26L28 14C28 13.4477 27.5523 13 27 13H25.01C24.4522 13 24 12.5478 24 11.99V9H22.01C21.4522 9 21 8.54781 21 7.99V6.5ZM21 23C21 23.5523 21.4477 24 22 24C22.5523 24 23 23.5523 23 23V18C23 17.4477 22.5523 17 22 17C21.4477 17 21 17.4477 21 18V23ZM17 23C17 23.5523 17.4477 24 18 24C18.5523 24 19 23.5523 19 23V18C19 17.4477 18.5523 17 18 17C17.4477 17 17 17.4477 17 18L17 23ZM13 23C13 23.5523 13.4477 24 14 24C14.5523 24 15 23.5523 15 23L15 18C15 17.4477 14.5523 17 14 17C13.4477 17 13 17.4477 13 18L13 23ZM9.00002 23C9.00002 23.5523 9.44773 24 10 24C10.5523 24 11 23.5523 11 23L11 18C11 17.4477 10.5523 17 10 17C9.44773 17 9.00002 17.4477 9.00002 18V23Z" fill="#212121"/>
</svg>
