<svg width="64" height="64" viewBox="0 0 64 64" fill="none" xmlns="http://www.w3.org/2000/svg">
<path d="M41.2433 6.5C43.3143 6.5 44.9932 8.17894 44.9932 10.25V13.5L49.25 13.5C50.7688 13.5 52 14.7312 52 16.25V20.5H55.25C57.8734 20.5 60 22.6267 60 25.25L60 51.2501C60 54.4258 57.4256 57.0001 54.25 57.0001L9.75 57.0001C6.57436 57.0001 4 54.4258 4 51.2501L4 25.2501C4 22.6267 6.12665 20.5001 8.75 20.5001H12V16.2501C12 14.7313 13.2312 13.5001 14.75 13.5001H19.0068L19.0068 10.25C19.0068 8.17893 20.6857 6.5 22.7568 6.5L41.2433 6.5ZM42.25 46.75C42.25 47.7165 43.0335 48.5 44 48.5C44.9665 48.5 45.75 47.7165 45.75 46.75V34.25C45.75 33.2835 44.9665 32.5 44 32.5C43.0335 32.5 42.25 33.2835 42.25 34.25V46.75ZM34.25 46.75C34.25 47.7165 35.0335 48.5 36 48.5C36.9665 48.5 37.75 47.7165 37.75 46.75V34.25C37.75 33.2835 36.9665 32.5 36 32.5C35.0335 32.5 34.25 33.2835 34.25 34.25L34.25 46.75ZM26.25 46.75C26.25 47.7165 27.0335 48.5 28 48.5C28.9665 48.5 29.75 47.7165 29.75 46.75L29.75 34.25C29.75 33.2835 28.9665 32.5 28 32.5C27.0335 32.5 26.25 33.2835 26.25 34.25L26.25 46.75ZM18.25 46.75C18.25 47.7165 19.0335 48.5 20 48.5C20.9665 48.5 21.75 47.7165 21.75 46.75L21.75 34.25C21.75 33.2835 20.9665 32.5 20 32.5C19.0335 32.5 18.25 33.2835 18.25 34.25L18.25 46.75Z" fill="#212121"/>
</svg>
