<svg width="20" height="20" viewBox="0 0 20 20" fill="none" xmlns="http://www.w3.org/2000/svg">
<path d="M11.5 2C12.3284 2 13 2.67157 13 3.5V4H13.5C14.3284 4 15 4.67157 15 5.5V6H16C17.1046 6 18 6.89543 18 8V15C18 16.1046 17.1046 17 16 17L4 17C2.89543 17 2 16.1046 2 15L2 8C2 6.89543 2.89543 6 4 6L5 6V5.5C5 4.67157 5.67157 4 6.5 4H7V3.5C7 2.67157 7.67157 2 8.5 2L11.5 2ZM12 3.5C12 3.22386 11.7761 3 11.5 3L8.5 3C8.22386 3 8 3.22386 8 3.5V4.49C8 4.77166 7.77167 5 7.49 5L6.5 5C6.22386 5 6 5.22386 6 5.5V6.49C6 6.77166 5.77167 7 5.49 7H4C3.44772 7 3 7.44772 3 8L3 15C3 15.5523 3.44772 16 4 16L16 16C16.5523 16 17 15.5523 17 15L17 8C17 7.44772 16.5523 7 16 7H14.51C14.2283 7 14 6.77167 14 6.49V5.5C14 5.22386 13.7761 5 13.5 5L12.51 5C12.2283 5 12 4.77167 12 4.49V3.5ZM14 13.5C14 13.7761 14.2239 14 14.5 14C14.7761 14 15 13.7761 15 13.5V10.5C15 10.2239 14.7761 10 14.5 10C14.2239 10 14 10.2239 14 10.5V13.5ZM11 13.5C11 13.7761 11.2239 14 11.5 14C11.7761 14 12 13.7761 12 13.5V10.5C12 10.2239 11.7761 10 11.5 10C11.2239 10 11 10.2239 11 10.5V13.5ZM8 13.5C8 13.7761 8.22386 14 8.5 14C8.77614 14 9 13.7761 9 13.5L9 10.5C9 10.2239 8.77614 10 8.5 10C8.22386 10 8 10.2239 8 10.5L8 13.5ZM5 13.5C5 13.7761 5.22386 14 5.5 14C5.77614 14 6 13.7761 6 13.5L6 10.5C6 10.2239 5.77614 10 5.5 10C5.22386 10 5 10.2239 5 10.5L5 13.5Z" fill="#212121"/>
</svg>
