<svg width="230" height="160" viewBox="0 0 230 160" fill="none" xmlns="http://www.w3.org/2000/svg">
<path d="M115.485 149.8C152.306 149.8 182.155 120.192 182.155 83.6692C182.155 47.1461 152.306 17.5383 115.485 17.5383C78.665 17.5383 48.8162 47.1461 48.8162 83.6692C48.8162 120.192 78.665 149.8 115.485 149.8Z" fill="#4D4D4D"/>
<path d="M112.733 23.5453C106.078 23.8386 99.6442 25.1909 93.7195 27.4588C93.3522 27.8351 92.9904 28.1926 92.646 28.5328L92.6039 28.5744C85.707 35.559 80.091 45.6433 76.7023 57.6071H112.733V23.5453Z" fill="#242424"/>
<path d="M81.816 33.6173C72.8582 39.5889 65.5607 47.8774 60.8206 57.6071H71.2579C73.6624 48.5728 77.2786 40.4189 81.816 33.6173Z" fill="#242424"/>
<path d="M58.5735 62.8385C56.1432 69.3351 54.8124 76.3535 54.8124 83.668C54.8124 91.0927 56.1835 98.2122 58.684 104.791H70.0364C68.6577 98.1073 67.9223 91.0091 67.9223 83.6689C67.9223 76.4418 68.6566 69.4429 70.0228 62.8385H58.5735Z" fill="#242424"/>
<path d="M60.9644 110.022C65.6737 119.556 72.8447 127.69 81.6257 133.591C77.1604 126.909 73.628 118.902 71.2687 110.022H60.9644Z" fill="#242424"/>
<path d="M93.6976 139.869C99.6283 142.142 106.07 143.497 112.733 143.791V110.022H76.7123C80.08 121.926 85.6572 131.901 92.5926 138.752C92.9583 139.114 93.328 139.486 93.6976 139.869Z" fill="#242424"/>
<path d="M117.986 143.801C124.681 143.533 131.157 142.194 137.12 139.928C137.445 139.584 137.777 139.244 138.115 138.909C144.984 131.953 150.583 121.922 153.976 110.022H117.986V143.801Z" fill="#242424"/>
<path d="M148.843 133.957C157.905 128.028 165.26 119.755 170.045 110.022H159.422C157.007 119.038 153.384 127.174 148.843 133.957Z" fill="#242424"/>
<path d="M172.314 104.791C174.801 98.2122 176.159 91.0927 176.159 83.668C176.159 76.3535 174.841 69.3351 172.424 62.8385H160.707C162.07 69.4715 162.797 76.5159 162.797 83.8145C162.797 91.0948 162.052 98.1434 160.666 104.791H172.314Z" fill="#242424"/>
<path d="M170.189 57.6071C165.365 47.6616 157.866 39.2219 148.603 33.2234C153.317 40.0941 157.033 48.3793 159.479 57.6071H170.189Z" fill="#242424"/>
<path d="M136.823 27.2964C137.218 27.7372 137.619 28.1797 138.031 28.6318C138.059 28.6619 138.087 28.6913 138.116 28.7201C145.08 35.6836 150.671 45.6842 154.036 57.6071H117.986V23.5347C124.57 23.7983 130.942 25.0983 136.823 27.2964Z" fill="#242424"/>
<path d="M155.296 104.791C156.749 98.2149 157.545 91.1631 157.545 83.8145C157.545 76.4421 156.768 69.3958 155.341 62.8385H117.986V104.791H155.296Z" fill="#242424"/>
<path d="M112.733 104.791V62.8385H75.3907C73.9587 69.3726 73.1748 76.3745 73.1748 83.6689C73.1748 91.0865 73.9602 98.1866 75.4035 104.791H112.733Z" fill="#242424"/>
<g filter="url(#filter0_d_3831_5009)">
<path d="M153.734 13C169.206 13 181.718 25.2588 181.718 40.4166C181.718 52.5097 163.964 76.4474 156.693 85.7243C155.172 87.7122 152.128 87.7122 150.606 85.7243C143.336 76.4474 125.581 52.5097 125.581 40.4166C125.75 25.2588 138.263 13 153.734 13Z" fill="#F9F8F5"/>
</g>
<path d="M153.65 52.0105C159.693 52.0105 164.592 46.8986 164.592 40.5928C164.592 34.2869 159.693 29.175 153.65 29.175C147.607 29.175 142.708 34.2869 142.708 40.5928C142.708 46.8986 147.607 52.0105 153.65 52.0105Z" fill="#4D4D4D"/>
<defs>
<filter id="filter0_d_3831_5009" x="121.981" y="13" width="63.3372" height="81.4153" filterUnits="userSpaceOnUse" color-interpolation-filters="sRGB">
<feFlood flood-opacity="0" result="BackgroundImageFix"/>
<feColorMatrix in="SourceAlpha" type="matrix" values="0 0 0 0 0 0 0 0 0 0 0 0 0 0 0 0 0 0 127 0" result="hardAlpha"/>
<feOffset dy="3.6"/>
<feGaussianBlur stdDeviation="1.8"/>
<feComposite in2="hardAlpha" operator="out"/>
<feColorMatrix type="matrix" values="0 0 0 0 0 0 0 0 0 0 0 0 0 0 0 0 0 0 0.25 0"/>
<feBlend mode="normal" in2="BackgroundImageFix" result="effect1_dropShadow_3831_5009"/>
<feBlend mode="normal" in="SourceGraphic" in2="effect1_dropShadow_3831_5009" result="shape"/>
</filter>
</defs>
</svg>
