<svg xmlns="http://www.w3.org/2000/svg" width="230" height="160" fill="none" viewBox="0 0 230 160">
  <path fill="#EDE5DA" d="M114.985 149.8c36.821 0 66.67-29.608 66.67-66.1308 0-36.5231-29.849-66.1309-66.67-66.1309-36.82 0-66.6688 29.6078-66.6688 66.1309 0 36.5228 29.8488 66.1308 66.6688 66.1308Z"/>
  <path fill="#FAF9F8" d="M112.234 23.5454c-6.655.2934-13.0897 1.6456-19.0144 3.9135-.3672.3763-.7291.7338-1.0735 1.074l-.0421.0416c-6.8969 6.9846-12.5128 17.069-15.9016 29.0328h36.0316V23.5454ZM81.3161 33.6174c-8.9578 5.9716-16.2552 14.2601-20.9954 23.9899h10.4374c2.4044-9.0343 6.0206-17.1883 10.558-23.9899ZM58.0736 62.8386c-2.4303 6.4966-3.7611 13.515-3.7611 20.8296 0 7.4246 1.3712 14.5441 3.8716 21.1228h11.3524c-1.3787-6.6835-2.1141-13.7817-2.1141-21.122 0-7.2271.7343-14.226 2.1005-20.8304H58.0736ZM60.4645 110.022c4.7093 9.534 11.8803 17.668 20.6613 23.57-4.4653-6.683-7.9976-14.689-10.357-23.57H60.4645ZM93.1977 139.869c5.9307 2.273 12.3723 3.628 19.0363 3.922v-33.769H76.2124c3.3677 11.904 8.9449 21.879 15.8803 28.73.3657.362.7354.734 1.105 1.117ZM117.486 143.802c6.695-.269 13.171-1.608 19.134-3.874.325-.344.657-.684.995-1.018 6.869-6.957 12.468-16.988 15.861-28.888h-35.99v33.78ZM148.343 133.957c9.062-5.929 16.417-14.202 21.203-23.935h-10.623c-2.416 9.017-6.039 17.152-10.58 23.935ZM171.814 104.791c2.487-6.5787 3.845-13.6982 3.845-21.1228 0-7.3146-1.318-14.333-3.735-20.8296h-11.717c1.363 6.633 2.09 13.6775 2.09 20.976 0 7.2803-.745 14.329-2.131 20.9764h11.648ZM169.689 57.6073c-4.823-9.9456-12.323-18.3853-21.586-24.3838 4.714 6.8708 8.431 15.1559 10.876 24.3838h10.71ZM136.323 27.2966c.395.4407.797.8832 1.208 1.3353.028.0301.056.0595.085.0883 6.964 6.9636 12.556 16.9641 15.92 28.8871h-36.05V23.5348c6.584.2636 12.956 1.5636 18.837 3.7618ZM154.797 104.791c1.452-6.576 2.248-13.6277 2.248-20.9764 0-7.3724-.776-14.4187-2.204-20.976h-37.355v41.9524h37.311ZM112.234 104.791V62.8386H74.8909c-1.432 6.5341-2.216 13.536-2.216 20.8304 0 7.4176.7854 14.5178 2.2287 21.122h37.3304Z"/>
  <path fill="url(#paint0_linear_3831_4993)" d="M153.234 13c15.472 0 27.984 12.2588 27.984 27.4166 0 12.0931-17.754 36.0308-25.025 45.3077-1.521 1.9879-4.565 1.9879-6.087 0-7.27-9.2769-25.025-33.2146-25.025-45.3077C125.25 25.2588 137.763 13 153.234 13Z"/>
  <path fill="#fff" d="M153.15 52.0105c6.043 0 10.942-5.1119 10.942-11.4177 0-6.3059-4.899-11.4178-10.942-11.4178s-10.942 5.1119-10.942 11.4178c0 6.3058 4.899 11.4177 10.942 11.4177Z"/>
  <defs>
    <linearGradient id="paint0_linear_3831_4993" x1="153.132" x2="153.132" y1="11.2833" y2="88.0153" gradientUnits="userSpaceOnUse">
      <stop stop-color="#D0C4B4"/>
      <stop offset=".9964" stop-color="#D7CDC1"/>
      <stop offset=".9965" stop-color="#B4A99A"/>
    </linearGradient>
  </defs>
</svg>
