<svg width="230" height="160" viewBox="0 0 230 160" fill="none" xmlns="http://www.w3.org/2000/svg">
<path d="M114.985 149.8C151.806 149.8 181.655 120.192 181.655 83.6692C181.655 47.1461 151.806 17.5383 114.985 17.5383C78.165 17.5383 48.3162 47.1461 48.3162 83.6692C48.3162 120.192 78.165 149.8 114.985 149.8Z" fill="#EDE5DA"/>
<path d="M112.234 23.5454C105.579 23.8388 99.1443 25.191 93.2196 27.4589C92.8524 27.8352 92.4905 28.1927 92.1461 28.5329L92.104 28.5745C85.2071 35.5591 79.5912 45.6435 76.2024 57.6073H112.234V23.5454Z" fill="#FAF9F8"/>
<path d="M81.3161 33.6174C72.3583 39.589 65.0609 47.8775 60.3207 57.6073H70.7581C73.1625 48.573 76.7787 40.419 81.3161 33.6174Z" fill="#FAF9F8"/>
<path d="M58.0736 62.8386C55.6433 69.3352 54.3125 76.3536 54.3125 83.6682C54.3125 91.0928 55.6837 98.2123 58.1841 104.791H69.5365C68.1578 98.1075 67.4224 91.0093 67.4224 83.669C67.4224 76.4419 68.1567 69.443 69.5229 62.8386H58.0736Z" fill="#FAF9F8"/>
<path d="M60.4645 110.022C65.1738 119.556 72.3448 127.69 81.1258 133.592C76.6605 126.909 73.1282 118.903 70.7688 110.022H60.4645Z" fill="#FAF9F8"/>
<path d="M93.1978 139.869C99.1284 142.142 105.57 143.497 112.234 143.791V110.022H76.2124C79.5801 121.926 85.1573 131.901 92.0927 138.752C92.4584 139.114 92.8281 139.486 93.1978 139.869Z" fill="#FAF9F8"/>
<path d="M117.486 143.802C124.181 143.534 130.657 142.194 136.62 139.928C136.945 139.584 137.277 139.244 137.615 138.91C144.484 131.953 150.083 121.922 153.476 110.022H117.486V143.802Z" fill="#FAF9F8"/>
<path d="M148.343 133.957C157.405 128.028 164.76 119.755 169.546 110.022H158.923C156.507 119.039 152.884 127.174 148.343 133.957Z" fill="#FAF9F8"/>
<path d="M171.814 104.791C174.301 98.2123 175.659 91.0928 175.659 83.6682C175.659 76.3536 174.341 69.3352 171.924 62.8386H160.207C161.57 69.4716 162.297 76.5161 162.297 83.8146C162.297 91.0949 161.552 98.1436 160.166 104.791H171.814Z" fill="#FAF9F8"/>
<path d="M169.689 57.6073C164.866 47.6617 157.366 39.222 148.103 33.2235C152.817 40.0943 156.534 48.3794 158.979 57.6073H169.689Z" fill="#FAF9F8"/>
<path d="M136.323 27.2966C136.718 27.7373 137.12 28.1798 137.531 28.6319C137.559 28.662 137.587 28.6914 137.616 28.7202C144.58 35.6838 150.172 45.6843 153.536 57.6073H117.486V23.5348C124.07 23.7984 130.442 25.0984 136.323 27.2966Z" fill="#FAF9F8"/>
<path d="M154.797 104.791C156.249 98.215 157.045 91.1633 157.045 83.8146C157.045 76.4422 156.269 69.3959 154.841 62.8386H117.486V104.791H154.797Z" fill="#FAF9F8"/>
<path d="M112.234 104.791V62.8386H74.8909C73.4589 69.3727 72.6749 76.3746 72.6749 83.669C72.6749 91.0866 73.4603 98.1868 74.9036 104.791H112.234Z" fill="#FAF9F8"/>
<path d="M153.234 13C168.706 13 181.218 25.2588 181.218 40.4166C181.218 52.5097 163.464 76.4474 156.193 85.7243C154.672 87.7122 151.628 87.7122 150.106 85.7243C142.836 76.4474 125.081 52.5097 125.081 40.4166C125.25 25.2588 137.763 13 153.234 13Z" fill="url(#paint0_linear_3831_4993)"/>
<path d="M153.15 52.0105C159.193 52.0105 164.092 46.8986 164.092 40.5928C164.092 34.2869 159.193 29.175 153.15 29.175C147.107 29.175 142.208 34.2869 142.208 40.5928C142.208 46.8986 147.107 52.0105 153.15 52.0105Z" fill="white"/>
<defs>
<linearGradient id="paint0_linear_3831_4993" x1="153.132" y1="11.2833" x2="153.132" y2="88.0153" gradientUnits="userSpaceOnUse">
<stop stop-color="#D0C4B4"/>
<stop offset="0.9964" stop-color="#D7CDC1"/>
<stop offset="0.9965" stop-color="#B4A99A"/>
</linearGradient>
</defs>
</svg>
