<svg width="230" height="160" viewBox="0 0 230 160" fill="none" xmlns="http://www.w3.org/2000/svg">
<g filter="url(#filter0_dd_7647_1334)">
<path d="M161.141 49.9009C161.141 48.7964 160.245 47.901 159.141 47.9009H64.7207C63.6161 47.9009 62.7207 48.7963 62.7207 49.9009V115.628C62.7209 116.733 63.6163 117.628 64.7207 117.628H159.141C160.245 117.628 161.14 116.733 161.141 115.628V49.9009ZM163.141 115.628C163.14 117.837 161.35 119.628 159.141 119.628H64.7207C62.5117 119.628 60.7209 117.837 60.7207 115.628V49.9009C60.7207 47.6917 62.5116 45.9009 64.7207 45.9009H159.141C161.35 45.901 163.141 47.6918 163.141 49.9009V115.628Z" fill="url(#paint0_linear_7647_1334)"/>
</g>
<path d="M159.426 21.8679H138.857V17.8052C138.857 14.0471 142.003 11 145.758 11H152.524C156.381 11 159.426 14.1487 159.426 17.8052V21.8679Z" fill="url(#paint1_linear_7647_1334)"/>
<path d="M173.653 33.9546L168.375 28.2667L173.45 23.5945C174.161 22.8836 175.277 22.9851 175.886 23.6961L178.829 26.8448C179.54 27.5558 179.438 28.673 178.728 29.2824L173.653 33.9546Z" fill="url(#paint2_linear_7647_1334)"/>
<path d="M123.819 33.9546L129.096 28.2667L124.022 23.5945C123.311 22.8836 122.195 22.9851 121.586 23.6961L118.642 26.8448C117.932 27.5558 118.033 28.673 118.744 29.2824L123.819 33.9546Z" fill="url(#paint3_linear_7647_1334)"/>
<g filter="url(#filter1_dd_7647_1334)">
<path d="M148.786 81.5907C166.219 81.5907 180.352 67.5847 180.352 50.3073C180.352 33.03 166.219 19.0239 148.786 19.0239C131.353 19.0239 117.221 33.03 117.221 50.3073C117.221 67.5847 131.353 81.5907 148.786 81.5907Z" fill="url(#paint4_linear_7647_1334)"/>
</g>
<g filter="url(#filter2_dd_7647_1334)">
<path d="M179.852 50.3071C179.851 33.3102 165.947 19.5239 148.786 19.5239C131.625 19.5239 117.721 33.3102 117.721 50.3071C117.721 67.3041 131.625 81.0903 148.786 81.0903C165.947 81.0903 179.852 67.3041 179.852 50.3071ZM180.852 50.3071C180.852 67.8648 166.491 82.0903 148.786 82.0903C131.081 82.0903 116.721 67.8648 116.721 50.3071C116.721 32.7495 131.081 18.5239 148.786 18.5239C166.491 18.5239 180.851 32.7495 180.852 50.3071Z" fill="url(#paint5_linear_7647_1334)" shape-rendering="crispEdges"/>
</g>
<g filter="url(#filter3_dd_7647_1334)">
<path d="M148.786 76.9187C163.585 76.9187 175.581 65.0045 175.581 50.3075C175.581 35.6105 163.585 23.6963 148.786 23.6963C133.988 23.6963 121.991 35.6105 121.991 50.3075C121.991 65.0045 133.988 76.9187 148.786 76.9187Z" fill="url(#paint6_linear_7647_1334)"/>
</g>
<path opacity="0.2" d="M174.571 50.3586C174.571 50.8482 174.571 51.2399 174.474 51.7295C173.79 38.1185 162.557 27.4452 148.784 27.4452C135.012 27.4452 123.779 38.2165 122.997 51.6316C122.997 51.142 122.9 50.7503 122.9 50.2607C122.9 36.0622 134.523 24.6055 148.687 24.6055C163.045 24.7034 174.571 36.1601 174.571 50.3586Z" fill="black"/>
<g filter="url(#filter4_dd_7647_1334)">
<path d="M170.303 50.3074C170.303 51.1199 170.202 51.8309 170.202 52.5419C170.1 54.167 168.274 55.0811 166.751 54.3701L155.485 48.4791C154.673 48.0728 154.166 47.2603 154.166 46.3461V33.0405C154.166 31.3139 155.891 30.095 157.515 30.806C165.026 34.1578 170.303 41.5724 170.303 50.3074Z" fill="url(#paint7_linear_7647_1334)"/>
</g>
<g filter="url(#filter5_dd_7647_1334)">
<path d="M150.309 47.7244C150.309 48.5341 149.652 49.1905 148.843 49.1905C148.029 49.1905 147.37 48.5272 147.377 47.7131L147.467 35.9864C147.467 35.1739 148.177 34.5645 148.888 34.5645C149.7 34.5645 150.309 35.2754 150.309 35.9864V47.7244Z" fill="url(#paint8_linear_7647_1334)"/>
</g>
<g filter="url(#filter6_dd_7647_1334)">
<path d="M149.309 47.7246V35.9863C149.309 35.9104 149.272 35.7961 149.179 35.6982C149.092 35.6072 148.99 35.5645 148.888 35.5645C148.813 35.5645 148.699 35.6011 148.601 35.6943C148.51 35.781 148.467 35.8833 148.467 35.9863V35.9941L148.377 47.7207C148.375 47.9795 148.584 48.1904 148.843 48.1904V49.1904L148.693 49.1826C147.999 49.112 147.449 48.5583 147.383 47.8643L147.377 47.7129L147.467 35.9863C147.467 35.1738 148.177 34.5645 148.888 34.5645L149.037 34.5723C149.773 34.6528 150.309 35.3197 150.309 35.9863V47.7246L150.301 47.874C150.226 48.6133 149.602 49.1903 148.843 49.1904V48.1904C149.1 48.1903 149.309 47.9818 149.309 47.7246Z" fill="url(#paint9_linear_7647_1334)" fill-opacity="0.4" shape-rendering="crispEdges"/>
</g>
<path d="M146.858 51.0182C146.858 50.0025 147.67 49.0884 148.786 49.0884C149.903 49.0884 150.613 49.9009 150.613 50.9166C150.613 51.9323 149.801 52.8465 148.685 52.8465C147.67 52.8465 146.858 52.1355 146.858 51.0182Z" fill="#989FB0"/>
<g filter="url(#filter7_dd_7647_1334)">
<path d="M167.766 60.7646C167.711 60.7746 167.643 60.794 167.591 60.8155C167.523 60.8442 167.432 60.858 167.348 60.8648C167.223 60.8749 167.098 60.8418 166.986 60.7854L148.482 51.5267C148.279 51.4252 148.177 51.1204 148.279 50.9173C148.38 50.7142 148.685 50.6126 148.888 50.7142L167.563 60.0586C167.721 60.1378 167.818 60.3409 167.804 60.5228C167.798 60.6128 167.855 60.7484 167.766 60.7646Z" fill="url(#paint10_linear_7647_1334)"/>
</g>
<g filter="url(#filter8_dd_7647_1334)">
<path d="M148.807 50.6848L148.887 50.7141L167.563 60.0579C167.722 60.1372 167.818 60.3408 167.804 60.5227C167.798 60.6126 167.854 60.7474 167.766 60.7639L167.677 60.7854C167.647 60.7942 167.617 60.8049 167.592 60.8157L167.475 60.8479C167.434 60.8558 167.39 60.8612 167.348 60.8645C167.254 60.8721 167.16 60.8552 167.072 60.8225L166.986 60.7854L148.482 51.5266C148.279 51.4251 148.178 51.1204 148.279 50.9172C148.368 50.7396 148.612 50.6391 148.807 50.6848Z" fill="url(#paint11_linear_7647_1334)" fill-opacity="0.4" shape-rendering="crispEdges"/>
</g>
<path d="M145.437 51.0182C145.437 49.2915 146.858 47.8696 148.685 47.768C150.512 47.6664 151.832 49.19 151.832 50.9166C151.832 52.6433 150.411 54.0653 148.584 54.1669C146.858 54.37 145.437 52.8465 145.437 51.0182Z" fill="#616161"/>
<g filter="url(#filter9_dd_7647_1334)">
<path d="M150.745 50.9166C150.745 49.7051 149.846 48.7916 148.745 48.8528C147.438 48.9256 146.523 49.9221 146.523 51.0184C146.523 52.3536 147.523 53.1985 148.457 53.0886L148.489 53.0844L148.523 53.0833C149.83 53.0106 150.745 52.0131 150.745 50.9166ZM152.917 50.9166C152.917 53.2591 151.014 55.0964 148.687 55.2469C146.181 55.5268 144.351 53.3325 144.351 51.0184C144.351 48.6616 146.278 46.8144 148.625 46.6839C151.178 46.5423 152.917 48.6753 152.917 50.9166Z" fill="url(#paint12_linear_7647_1334)"/>
</g>
<g filter="url(#filter10_dd_7647_1334)">
<path d="M151.917 50.9163C151.917 49.1403 150.556 47.5778 148.68 47.682C146.809 47.7862 145.351 49.2451 145.351 51.0179C145.351 52.8928 146.809 54.4507 148.576 54.2532L148.599 54.2503L148.623 54.2484C150.478 54.1281 151.917 52.6783 151.917 50.9163ZM150.746 50.9163C150.745 49.7048 149.846 48.7916 148.745 48.8529C147.438 48.9258 146.523 49.9218 146.523 51.0179C146.523 52.2695 147.402 53.0906 148.281 53.098L148.457 53.0882L148.49 53.0843L148.523 53.0833C149.748 53.0152 150.63 52.1339 150.735 51.1204L150.746 50.9163ZM151.741 51.0726C151.658 52.6723 150.316 53.9847 148.579 54.0814L148.567 54.0823H148.563C146.932 54.2676 145.523 52.8339 145.523 51.0179C145.523 49.3481 146.897 47.9538 148.689 47.8538H148.69C150.442 47.7567 151.745 49.2122 151.746 50.9163L151.741 51.0726ZM152.912 51.1341C152.798 53.3717 150.942 55.1004 148.687 55.2464C146.181 55.5263 144.351 53.332 144.351 51.0179C144.351 48.7348 146.16 46.9295 148.407 46.7005L148.625 46.6839C151.178 46.5425 152.917 48.6752 152.917 50.9163L152.912 51.1341Z" fill="url(#paint13_linear_7647_1334)" fill-opacity="0.4" shape-rendering="crispEdges"/>
</g>
<path d="M149.598 68.8945H147.873C147.568 68.8945 147.264 69.0977 147.264 69.5039V73.7699C147.264 74.0746 147.467 74.3793 147.873 74.3793H149.598C149.903 74.3793 150.207 74.1761 150.207 73.7699V69.5039C150.106 69.1992 149.903 68.8945 149.598 68.8945Z" fill="#616161"/>
<path d="M149.598 25.7275H147.873C147.568 25.7275 147.264 25.9307 147.264 26.337V30.6029C147.264 30.9076 147.467 31.2123 147.873 31.2123H149.598C149.903 31.2123 150.207 31.0092 150.207 30.6029V26.337C150.106 26.0322 149.903 25.7275 149.598 25.7275Z" fill="#616161"/>
<path d="M129.603 48.3774H125.34C125.036 48.3774 124.731 48.5806 124.731 48.9869V50.7135C124.731 51.0182 124.934 51.323 125.34 51.323H129.603C129.908 51.323 130.212 51.1198 130.212 50.7135V48.9869C130.212 48.5806 129.908 48.3774 129.603 48.3774Z" fill="#616161"/>
<path d="M157.424 72.6636C158.157 72.3823 158.523 71.56 158.241 70.8269C157.96 70.0937 157.138 69.7275 156.405 70.0087C155.672 70.29 155.307 71.1124 155.588 71.8455C155.869 72.5786 156.692 72.9449 157.424 72.6636Z" fill="#616161"/>
<path d="M166.156 66.8992C166.701 66.3343 166.686 65.434 166.121 64.8885C165.557 64.3429 164.657 64.3585 164.112 64.9234C163.567 65.4883 163.583 66.3886 164.147 66.9342C164.712 67.4797 165.611 67.4641 166.156 66.8992Z" fill="#616161"/>
<path d="M127.718 58.1664C128.46 57.9122 128.856 57.1039 128.602 56.361C128.347 55.618 127.539 55.2218 126.797 55.4759C126.054 55.73 125.659 56.5383 125.913 57.2813C126.167 58.0242 126.975 58.4205 127.718 58.1664Z" fill="#616161"/>
<path d="M133.512 66.4656C134.078 65.9212 134.095 65.021 133.551 64.455C133.007 63.889 132.108 63.8715 131.542 64.416C130.977 64.9605 130.959 65.8607 131.503 66.4267C132.047 66.9926 132.947 67.0101 133.512 66.4656Z" fill="#616161"/>
<path d="M142.023 71.2224C142.305 70.4898 141.941 69.6669 141.209 69.3843C140.477 69.1016 139.654 69.4664 139.371 70.199C139.088 70.9315 139.453 71.7545 140.185 72.0371C140.917 72.3197 141.74 71.955 142.023 71.2224Z" fill="#616161"/>
<path d="M142.328 30.2187C143.073 29.9717 143.476 29.1671 143.229 28.4218C142.982 27.6764 142.177 27.2724 141.432 27.5195C140.687 27.7665 140.284 28.571 140.531 29.3164C140.778 30.0618 141.583 30.4658 142.328 30.2187Z" fill="#616161"/>
<path d="M134.223 34.991C134.793 34.4519 134.819 33.552 134.281 32.9809C133.742 32.4098 132.843 32.3838 132.272 32.9229C131.701 33.4619 131.675 34.3619 132.214 34.933C132.753 35.5041 133.652 35.53 134.223 34.991Z" fill="#616161"/>
<path d="M128.874 42.6706C129.143 41.9928 128.812 41.2253 128.135 40.9562C127.457 40.6871 126.69 41.0184 126.421 41.6962C126.153 42.3739 126.484 43.1415 127.161 43.4106C127.838 43.6796 128.605 43.3483 128.874 42.6706Z" fill="#616161"/>
<g filter="url(#filter11_dd_7647_1334)">
<path d="M64.043 113.535C65.6996 113.535 67.043 114.878 67.043 116.535V121.357C67.0426 123.014 65.6994 124.357 64.043 124.357H59.2207C57.5641 124.357 56.2211 123.014 56.2207 121.357V116.535C56.2207 114.878 57.5638 113.535 59.2207 113.535H64.043ZM164.914 113.535C166.571 113.535 167.914 114.878 167.914 116.535V121.357C167.914 123.014 166.57 124.357 164.914 124.357H160.092C158.435 124.357 157.092 123.014 157.092 121.357V116.535C157.092 114.878 158.435 113.535 160.092 113.535H164.914ZM64.043 41C65.6996 41.0003 67.043 42.3433 67.043 44V48.8223C67.0427 50.4788 65.6995 51.822 64.043 51.8223H59.2207C57.564 51.8223 56.221 50.4789 56.2207 48.8223V44C56.2207 42.3431 57.5638 41 59.2207 41H64.043Z" fill="url(#paint14_linear_7647_1334)"/>
</g>
<g filter="url(#filter12_dd_7647_1334)">
<path d="M66.543 116.535C66.543 115.241 65.5593 114.176 64.2988 114.048L64.043 114.035H59.2207C57.84 114.035 56.7207 115.154 56.7207 116.535V121.357L56.7334 121.613C56.8619 122.874 57.9267 123.857 59.2207 123.857H64.043L64.2988 123.845C65.4748 123.725 66.4104 122.789 66.5303 121.613L66.543 121.357V116.535ZM167.414 116.535C167.414 115.241 166.43 114.176 165.17 114.048L164.914 114.035H160.092C158.711 114.035 157.592 115.155 157.592 116.535V121.357L157.604 121.613C157.733 122.873 158.798 123.857 160.092 123.857H164.914L165.17 123.845C166.346 123.725 167.281 122.789 167.401 121.613L167.414 121.357V116.535ZM66.543 44C66.543 42.7059 65.5593 41.641 64.2988 41.5127L64.043 41.5H59.2207C57.84 41.5 56.7207 42.6193 56.7207 44V48.8223L56.7334 49.0781C56.8617 50.3386 57.9266 51.3223 59.2207 51.3223H64.043L64.2988 51.3096C65.4749 51.1898 66.4105 50.2542 66.5303 49.0781L66.543 48.8223V44ZM67.543 121.357C67.5425 123.29 65.9755 124.857 64.043 124.857H59.2207C57.2878 124.857 55.7211 123.29 55.7207 121.357V116.535C55.7207 114.602 57.2877 113.035 59.2207 113.035H64.043C65.9756 113.035 67.543 114.602 67.543 116.535V121.357ZM168.414 121.357C168.414 123.29 166.847 124.857 164.914 124.857H160.092C158.159 124.857 156.592 123.29 156.592 121.357V116.535C156.592 114.602 158.159 113.035 160.092 113.035H164.914C166.847 113.035 168.414 114.602 168.414 116.535V121.357ZM67.543 48.8223C67.5427 50.7548 65.9755 52.322 64.043 52.3223H59.2207C57.2878 52.3223 55.721 50.7549 55.7207 48.8223V44C55.7207 42.067 57.2877 40.5 59.2207 40.5H64.043C65.9756 40.5003 67.543 42.0671 67.543 44V48.8223Z" fill="url(#paint15_linear_7647_1334)" shape-rendering="crispEdges"/>
</g>
<g filter="url(#filter13_dd_7647_1334)">
<path d="M98.4607 112.073C98.4552 112.067 98.4588 112.058 98.4666 112.057C103.576 111.259 104.175 113.17 101.397 115.417C99.855 116.424 94.3588 117.465 91.2755 116.726C90.7393 116.592 90.3707 116.088 90.3707 115.551C90.3707 115.028 89.7514 114.727 89.3198 115.022C88.6425 115.486 87.7754 115.999 87.1534 116.088C85.9895 116.255 83.0437 117.017 83.5221 112.961C83.5294 112.899 83.5321 112.835 83.5285 112.772C83.2927 108.697 83.1327 103.964 82.678 101.819C82.591 101.409 82.2161 101.148 81.7966 101.148H78.588C78.4679 101.148 78.3488 101.126 78.2363 101.084L76.2615 100.342C75.9599 100.242 75.7588 99.9729 75.7588 99.6372C75.7253 95.4404 76.1274 88.7256 76.6301 81.5072C76.6301 81.2051 76.8982 80.97 77.1999 80.97H78.6809C78.8242 80.97 78.9589 80.9014 79.0431 80.7854C79.1273 80.6694 79.262 80.6007 79.4054 80.6007H80.1306C80.4572 80.6007 80.7718 80.4455 80.9217 80.1553C81.1119 79.7869 81.2295 79.4068 81.2846 79.0098C81.3324 78.6654 81.1355 78.3474 80.861 78.1341C79.4794 77.0605 79.2197 75.5941 79.7671 73.8611C79.9397 73.3148 79.7015 72.7023 79.1684 72.4922L78.9087 72.3898C78.447 72.2078 78.1816 71.7198 78.2271 71.2256C78.6045 67.1259 77.861 54.1498 78.5404 43.5686C78.5404 43.2664 78.708 42.9978 78.9761 42.83C81.7716 40.7451 84.4231 38.891 86.5305 37.8289C86.8332 37.6764 87.0367 37.3858 87.1396 37.0627C87.1874 36.9124 87.2456 36.7696 87.3132 36.6343C87.5482 36.164 87.601 35.5566 87.4033 35.0694C86.9337 33.9116 86.5573 31.9432 86.2014 29.7899C86.1882 29.7097 86.1846 29.6271 86.1921 29.5462C86.4905 26.2964 88.132 24.3601 91.3426 24.0285C95.4647 23.6928 96.9058 26.3451 96.8388 30.6762C96.6012 32.5011 96.0724 34.1594 95.2688 35.6838C94.9719 36.2471 95.1147 37.2091 95.4481 37.7516C95.554 37.924 95.7699 38.1688 95.9581 38.243C97.9661 39.035 99.9144 40.0656 101.832 41.2184C102.134 41.4199 102.369 41.722 102.402 42.0913L103.91 55.6217C104.835 61.1471 105.532 66.4769 105.841 71.5468C105.848 71.6773 105.763 71.795 105.637 71.8287C105.483 71.87 105.396 72.0336 105.448 72.1846L105.621 72.6851C105.642 72.7468 105.671 72.8054 105.707 72.8598C106.007 73.3105 106.313 73.7963 106.297 74.4579C106.295 74.5463 106.298 74.6351 106.313 74.7221L106.654 76.6121C106.7 76.8663 106.644 77.1274 106.507 77.3465C106.258 77.7456 106.062 78.1127 105.943 78.4479C105.903 78.5605 105.892 78.6809 105.902 78.8L105.954 79.4592C105.856 81.901 105.951 84.2456 106.082 86.5247C106.086 86.6039 106.08 86.6835 106.062 86.7608C106.041 86.854 106.017 86.944 105.991 87.0296C105.869 87.4302 105.872 88.007 105.878 88.4258C105.881 88.6035 105.77 88.7841 105.624 88.8857C105.325 89.0944 105.235 89.5161 105.304 89.8745C105.439 90.5756 105.381 91.5797 105.312 92.58C105.294 92.8424 105.174 93.0872 104.977 93.2614L104.913 93.3176C104.783 93.4327 104.625 93.5139 104.454 93.5405C104.056 93.6022 103.652 93.6179 103.255 93.5997C102.77 93.5773 102.353 93.9842 102.092 94.3936C102.007 94.5266 101.85 94.6212 101.693 94.6422C101.663 94.6463 101.633 94.6499 101.603 94.6531C100.856 94.7315 99.9888 95.294 99.9227 96.0421C99.5665 100.071 98.1548 109.611 98.4774 112.067C98.4786 112.076 98.4672 112.079 98.4607 112.073Z" fill="#4D4D4D" fill-opacity="0.95" shape-rendering="crispEdges"/>
<path d="M76.0088 99.6348C75.9754 95.4495 76.377 88.7447 76.8799 81.5244V81.5068C76.8801 81.3617 77.0172 81.2197 77.2002 81.2197H78.6807C78.9039 81.2197 79.1139 81.1132 79.2451 80.9326C79.2823 80.8814 79.342 80.8506 79.4053 80.8506H80.1309C80.5307 80.8505 80.9422 80.6598 81.1436 80.2705C81.3471 79.8763 81.4733 79.4682 81.5322 79.0439C81.5968 78.5786 81.3291 78.1809 81.0146 77.9365C80.3642 77.4311 79.9888 76.8438 79.834 76.1875C79.6781 75.5266 79.7412 74.7744 80.0059 73.9365C80.2117 73.285 79.9336 72.5254 79.2598 72.2598L79 72.1572C78.6538 72.0206 78.4391 71.6447 78.4756 71.248C78.6658 69.1812 78.5742 64.8917 78.5205 59.8252C78.4667 54.7462 78.451 48.8652 78.79 43.585V43.5684C78.7901 43.365 78.9023 43.1712 79.1084 43.042L79.126 43.0303C81.9219 40.9451 84.5571 39.1028 86.6426 38.0518C87.0207 37.8612 87.2606 37.5073 87.3779 37.1387C87.4219 37.0005 87.4753 36.8697 87.5371 36.7461C87.7997 36.2205 87.8629 35.5381 87.6348 34.9756C87.1776 33.8486 86.8053 31.9093 86.4482 29.749C86.4383 29.6888 86.4361 29.6278 86.4414 29.5693C86.5874 27.9797 87.059 26.7408 87.8604 25.8613C88.6592 24.9848 89.8098 24.4383 91.3682 24.2773L91.3672 24.2764C93.3655 24.1146 94.6595 24.6776 95.4609 25.752C96.276 26.8446 96.62 28.5158 96.5889 30.6553C96.3543 32.447 95.8355 34.0731 95.0479 35.5674C94.8675 35.9096 94.83 36.3468 94.873 36.752C94.9164 37.1602 95.0456 37.5739 95.2354 37.8828C95.2987 37.9858 95.3908 38.1051 95.4941 38.21C95.5939 38.3111 95.7242 38.4195 95.8662 38.4756C97.8534 39.2593 99.7852 40.2809 101.692 41.4268H101.693C101.953 41.6002 102.129 41.8422 102.153 42.1143V42.1191L103.661 55.6484V55.6494L103.663 55.6631C104.587 61.1833 105.283 66.5043 105.591 71.5625C105.591 71.5736 105.584 71.5838 105.572 71.5869C105.278 71.6657 105.112 71.9784 105.212 72.2666L105.385 72.7666C105.413 72.8484 105.451 72.9262 105.499 72.998C105.799 73.4494 106.061 73.8766 106.047 74.4521C106.045 74.5484 106.047 74.6561 106.067 74.7666L106.408 76.6562C106.442 76.8454 106.401 77.044 106.295 77.2139C106.042 77.6196 105.835 78.0046 105.707 78.3643C105.653 78.517 105.641 78.6744 105.652 78.8203L105.704 79.4697C105.606 81.9166 105.702 84.2641 105.832 86.5391C105.835 86.597 105.831 86.6525 105.819 86.7041C105.799 86.7933 105.776 86.878 105.752 86.957C105.616 87.4023 105.622 88.0213 105.628 88.4297C105.629 88.5085 105.573 88.6168 105.481 88.6807C105.07 88.9673 104.979 89.5098 105.059 89.9219C105.186 90.5843 105.132 91.5525 105.062 92.5635C105.049 92.7599 104.959 92.9436 104.812 93.0742L104.747 93.1299C104.648 93.2178 104.533 93.2747 104.415 93.293C104.036 93.3517 103.649 93.3672 103.267 93.3496C102.948 93.335 102.666 93.4627 102.438 93.6357C102.211 93.8086 102.022 94.0372 101.881 94.2588C101.838 94.3255 101.749 94.3826 101.66 94.3945C101.632 94.3983 101.604 94.4014 101.576 94.4043C101.156 94.4485 100.709 94.6273 100.355 94.8984C100.003 95.1687 99.7151 95.5539 99.6738 96.0205C99.496 98.0316 99.0553 101.412 98.6973 104.616C98.5186 106.215 98.3605 107.768 98.2676 109.076C98.18 110.308 98.15 111.343 98.2188 111.995C98.1927 112.077 98.206 112.171 98.2842 112.249C98.3534 112.318 98.4547 112.343 98.5469 112.314C98.5634 112.309 98.579 112.3 98.5957 112.29C99.8163 112.105 100.756 112.082 101.437 112.177C102.144 112.276 102.521 112.494 102.682 112.734C102.831 112.957 102.841 113.275 102.608 113.715C102.377 114.153 101.925 114.666 101.249 115.214C100.894 115.443 100.294 115.687 99.5283 115.91C98.7603 116.134 97.8435 116.334 96.877 116.479C94.9371 116.771 92.8302 116.841 91.335 116.483H91.3359C90.9168 116.378 90.6211 115.979 90.6211 115.551C90.6207 114.81 89.7616 114.418 89.1787 114.816C88.8448 115.045 88.4676 115.282 88.1006 115.474C87.729 115.667 87.3867 115.802 87.1182 115.841C86.8104 115.885 86.4308 115.961 86.0098 115.991C85.5922 116.022 85.17 116.004 84.8066 115.873C84.4526 115.746 84.1476 115.509 83.9512 115.08C83.7503 114.641 83.6538 113.979 83.7705 112.99C83.7793 112.916 83.7829 112.836 83.7783 112.758C83.6608 110.726 83.5609 108.516 83.4346 106.556C83.3084 104.597 83.1545 102.86 82.9229 101.768C82.8077 101.224 82.3155 100.899 81.7969 100.898H78.5879C78.4979 100.898 78.4085 100.882 78.3242 100.851L76.3496 100.108L76.3408 100.105L76.2686 100.075C76.1094 99.994 76.0088 99.8357 76.0088 99.6367V99.6348Z" stroke="url(#paint16_linear_7647_1334)" stroke-opacity="0.3" stroke-width="0.5" shape-rendering="crispEdges"/>
<path d="M76.0088 99.6348C75.9754 95.4495 76.377 88.7447 76.8799 81.5244V81.5068C76.8801 81.3617 77.0172 81.2197 77.2002 81.2197H78.6807C78.9039 81.2197 79.1139 81.1132 79.2451 80.9326C79.2823 80.8814 79.342 80.8506 79.4053 80.8506H80.1309C80.5307 80.8505 80.9422 80.6598 81.1436 80.2705C81.3471 79.8763 81.4733 79.4682 81.5322 79.0439C81.5968 78.5786 81.3291 78.1809 81.0146 77.9365C80.3642 77.4311 79.9888 76.8438 79.834 76.1875C79.6781 75.5266 79.7412 74.7744 80.0059 73.9365C80.2117 73.285 79.9336 72.5254 79.2598 72.2598L79 72.1572C78.6538 72.0206 78.4391 71.6447 78.4756 71.248C78.6658 69.1812 78.5742 64.8917 78.5205 59.8252C78.4667 54.7462 78.451 48.8652 78.79 43.585V43.5684C78.7901 43.365 78.9023 43.1712 79.1084 43.042L79.126 43.0303C81.9219 40.9451 84.5571 39.1028 86.6426 38.0518C87.0207 37.8612 87.2606 37.5073 87.3779 37.1387C87.4219 37.0005 87.4753 36.8697 87.5371 36.7461C87.7997 36.2205 87.8629 35.5381 87.6348 34.9756C87.1776 33.8486 86.8053 31.9093 86.4482 29.749C86.4383 29.6888 86.4361 29.6278 86.4414 29.5693C86.5874 27.9797 87.059 26.7408 87.8604 25.8613C88.6592 24.9848 89.8098 24.4383 91.3682 24.2773L91.3672 24.2764C93.3655 24.1146 94.6595 24.6776 95.4609 25.752C96.276 26.8446 96.62 28.5158 96.5889 30.6553C96.3543 32.447 95.8355 34.0731 95.0479 35.5674C94.8675 35.9096 94.83 36.3468 94.873 36.752C94.9164 37.1602 95.0456 37.5739 95.2354 37.8828C95.2987 37.9858 95.3908 38.1051 95.4941 38.21C95.5939 38.3111 95.7242 38.4195 95.8662 38.4756C97.8534 39.2593 99.7852 40.2809 101.692 41.4268H101.693C101.953 41.6002 102.129 41.8422 102.153 42.1143V42.1191L103.661 55.6484V55.6494L103.663 55.6631C104.587 61.1833 105.283 66.5043 105.591 71.5625C105.591 71.5736 105.584 71.5838 105.572 71.5869C105.278 71.6657 105.112 71.9784 105.212 72.2666L105.385 72.7666C105.413 72.8484 105.451 72.9262 105.499 72.998C105.799 73.4494 106.061 73.8766 106.047 74.4521C106.045 74.5484 106.047 74.6561 106.067 74.7666L106.408 76.6562C106.442 76.8454 106.401 77.044 106.295 77.2139C106.042 77.6196 105.835 78.0046 105.707 78.3643C105.653 78.517 105.641 78.6744 105.652 78.8203L105.704 79.4697C105.606 81.9166 105.702 84.2641 105.832 86.5391C105.835 86.597 105.831 86.6525 105.819 86.7041C105.799 86.7933 105.776 86.878 105.752 86.957C105.616 87.4023 105.622 88.0213 105.628 88.4297C105.629 88.5085 105.573 88.6168 105.481 88.6807C105.07 88.9673 104.979 89.5098 105.059 89.9219C105.186 90.5843 105.132 91.5525 105.062 92.5635C105.049 92.7599 104.959 92.9436 104.812 93.0742L104.747 93.1299C104.648 93.2178 104.533 93.2747 104.415 93.293C104.036 93.3517 103.649 93.3672 103.267 93.3496C102.948 93.335 102.666 93.4627 102.438 93.6357C102.211 93.8086 102.022 94.0372 101.881 94.2588C101.838 94.3255 101.749 94.3826 101.66 94.3945C101.632 94.3983 101.604 94.4014 101.576 94.4043C101.156 94.4485 100.709 94.6273 100.355 94.8984C100.003 95.1687 99.7151 95.5539 99.6738 96.0205C99.496 98.0316 99.0553 101.412 98.6973 104.616C98.5186 106.215 98.3605 107.768 98.2676 109.076C98.18 110.308 98.15 111.343 98.2188 111.995C98.1927 112.077 98.206 112.171 98.2842 112.249C98.3534 112.318 98.4547 112.343 98.5469 112.314C98.5634 112.309 98.579 112.3 98.5957 112.29C99.8163 112.105 100.756 112.082 101.437 112.177C102.144 112.276 102.521 112.494 102.682 112.734C102.831 112.957 102.841 113.275 102.608 113.715C102.377 114.153 101.925 114.666 101.249 115.214C100.894 115.443 100.294 115.687 99.5283 115.91C98.7603 116.134 97.8435 116.334 96.877 116.479C94.9371 116.771 92.8302 116.841 91.335 116.483H91.3359C90.9168 116.378 90.6211 115.979 90.6211 115.551C90.6207 114.81 89.7616 114.418 89.1787 114.816C88.8448 115.045 88.4676 115.282 88.1006 115.474C87.729 115.667 87.3867 115.802 87.1182 115.841C86.8104 115.885 86.4308 115.961 86.0098 115.991C85.5922 116.022 85.17 116.004 84.8066 115.873C84.4526 115.746 84.1476 115.509 83.9512 115.08C83.7503 114.641 83.6538 113.979 83.7705 112.99C83.7793 112.916 83.7829 112.836 83.7783 112.758C83.6608 110.726 83.5609 108.516 83.4346 106.556C83.3084 104.597 83.1545 102.86 82.9229 101.768C82.8077 101.224 82.3155 100.899 81.7969 100.898H78.5879C78.4979 100.898 78.4085 100.882 78.3242 100.851L76.3496 100.108L76.3408 100.105L76.2686 100.075C76.1094 99.994 76.0088 99.8357 76.0088 99.6367V99.6348Z" stroke="white" stroke-opacity="0.4" stroke-width="0.5" shape-rendering="crispEdges"/>
</g>
<defs>
<filter id="filter0_dd_7647_1334" x="46.7207" y="33.9009" width="130.42" height="101.728" filterUnits="userSpaceOnUse" color-interpolation-filters="sRGB">
<feFlood flood-opacity="0" result="BackgroundImageFix"/>
<feColorMatrix in="SourceAlpha" type="matrix" values="0 0 0 0 0 0 0 0 0 0 0 0 0 0 0 0 0 0 127 0" result="hardAlpha"/>
<feOffset dy="2"/>
<feGaussianBlur stdDeviation="7"/>
<feComposite in2="hardAlpha" operator="out"/>
<feColorMatrix type="matrix" values="0 0 0 0 1 0 0 0 0 0.8 0 0 0 0 0.2 0 0 0 1 0"/>
<feBlend mode="normal" in2="BackgroundImageFix" result="effect1_dropShadow_7647_1334"/>
<feColorMatrix in="SourceAlpha" type="matrix" values="0 0 0 0 0 0 0 0 0 0 0 0 0 0 0 0 0 0 127 0" result="hardAlpha"/>
<feOffset dy="2"/>
<feGaussianBlur stdDeviation="4"/>
<feComposite in2="hardAlpha" operator="out"/>
<feColorMatrix type="matrix" values="0 0 0 0 0 0 0 0 0 0 0 0 0 0 0 0 0 0 0.5 0"/>
<feBlend mode="normal" in2="effect1_dropShadow_7647_1334" result="effect2_dropShadow_7647_1334"/>
<feBlend mode="normal" in="SourceGraphic" in2="effect2_dropShadow_7647_1334" result="shape"/>
</filter>
<filter id="filter1_dd_7647_1334" x="101.221" y="7.02393" width="95.1309" height="94.5669" filterUnits="userSpaceOnUse" color-interpolation-filters="sRGB">
<feFlood flood-opacity="0" result="BackgroundImageFix"/>
<feColorMatrix in="SourceAlpha" type="matrix" values="0 0 0 0 0 0 0 0 0 0 0 0 0 0 0 0 0 0 127 0" result="hardAlpha"/>
<feOffset dy="4"/>
<feGaussianBlur stdDeviation="8"/>
<feComposite in2="hardAlpha" operator="out"/>
<feColorMatrix type="matrix" values="0 0 0 0 0 0 0 0 0 0 0 0 0 0 0 0 0 0 0.8 0"/>
<feBlend mode="normal" in2="BackgroundImageFix" result="effect1_dropShadow_7647_1334"/>
<feColorMatrix in="SourceAlpha" type="matrix" values="0 0 0 0 0 0 0 0 0 0 0 0 0 0 0 0 0 0 127 0" result="hardAlpha"/>
<feOffset dy="1"/>
<feGaussianBlur stdDeviation="1"/>
<feComposite in2="hardAlpha" operator="out"/>
<feColorMatrix type="matrix" values="0 0 0 0 0 0 0 0 0 0 0 0 0 0 0 0 0 0 0.3 0"/>
<feBlend mode="normal" in2="effect1_dropShadow_7647_1334" result="effect2_dropShadow_7647_1334"/>
<feBlend mode="normal" in="SourceGraphic" in2="effect2_dropShadow_7647_1334" result="shape"/>
</filter>
<filter id="filter2_dd_7647_1334" x="100.721" y="6.52393" width="96.1309" height="95.5664" filterUnits="userSpaceOnUse" color-interpolation-filters="sRGB">
<feFlood flood-opacity="0" result="BackgroundImageFix"/>
<feColorMatrix in="SourceAlpha" type="matrix" values="0 0 0 0 0 0 0 0 0 0 0 0 0 0 0 0 0 0 127 0" result="hardAlpha"/>
<feOffset dy="4"/>
<feGaussianBlur stdDeviation="8"/>
<feComposite in2="hardAlpha" operator="out"/>
<feColorMatrix type="matrix" values="0 0 0 0 0 0 0 0 0 0 0 0 0 0 0 0 0 0 0.8 0"/>
<feBlend mode="normal" in2="BackgroundImageFix" result="effect1_dropShadow_7647_1334"/>
<feColorMatrix in="SourceAlpha" type="matrix" values="0 0 0 0 0 0 0 0 0 0 0 0 0 0 0 0 0 0 127 0" result="hardAlpha"/>
<feOffset dy="1"/>
<feGaussianBlur stdDeviation="1"/>
<feComposite in2="hardAlpha" operator="out"/>
<feColorMatrix type="matrix" values="0 0 0 0 0 0 0 0 0 0 0 0 0 0 0 0 0 0 0.3 0"/>
<feBlend mode="normal" in2="effect1_dropShadow_7647_1334" result="effect2_dropShadow_7647_1334"/>
<feBlend mode="normal" in="SourceGraphic" in2="effect2_dropShadow_7647_1334" result="shape"/>
</filter>
<filter id="filter3_dd_7647_1334" x="105.991" y="11.6963" width="85.5901" height="85.2227" filterUnits="userSpaceOnUse" color-interpolation-filters="sRGB">
<feFlood flood-opacity="0" result="BackgroundImageFix"/>
<feColorMatrix in="SourceAlpha" type="matrix" values="0 0 0 0 0 0 0 0 0 0 0 0 0 0 0 0 0 0 127 0" result="hardAlpha"/>
<feOffset dy="4"/>
<feGaussianBlur stdDeviation="8"/>
<feComposite in2="hardAlpha" operator="out"/>
<feColorMatrix type="matrix" values="0 0 0 0 0 0 0 0 0 0 0 0 0 0 0 0 0 0 0.64 0"/>
<feBlend mode="normal" in2="BackgroundImageFix" result="effect1_dropShadow_7647_1334"/>
<feColorMatrix in="SourceAlpha" type="matrix" values="0 0 0 0 0 0 0 0 0 0 0 0 0 0 0 0 0 0 127 0" result="hardAlpha"/>
<feOffset dy="1"/>
<feGaussianBlur stdDeviation="0.5"/>
<feComposite in2="hardAlpha" operator="out"/>
<feColorMatrix type="matrix" values="0 0 0 0 0 0 0 0 0 0 0 0 0 0 0 0 0 0 0.08 0"/>
<feBlend mode="normal" in2="effect1_dropShadow_7647_1334" result="effect2_dropShadow_7647_1334"/>
<feBlend mode="normal" in="SourceGraphic" in2="effect2_dropShadow_7647_1334" result="shape"/>
</filter>
<filter id="filter4_dd_7647_1334" x="140.166" y="18.5996" width="44.1379" height="52.0142" filterUnits="userSpaceOnUse" color-interpolation-filters="sRGB">
<feFlood flood-opacity="0" result="BackgroundImageFix"/>
<feColorMatrix in="SourceAlpha" type="matrix" values="0 0 0 0 0 0 0 0 0 0 0 0 0 0 0 0 0 0 127 0" result="hardAlpha"/>
<feOffset dy="2"/>
<feGaussianBlur stdDeviation="7"/>
<feComposite in2="hardAlpha" operator="out"/>
<feColorMatrix type="matrix" values="0 0 0 0 1 0 0 0 0 0.8 0 0 0 0 0.2 0 0 0 0.5 0"/>
<feBlend mode="normal" in2="BackgroundImageFix" result="effect1_dropShadow_7647_1334"/>
<feColorMatrix in="SourceAlpha" type="matrix" values="0 0 0 0 0 0 0 0 0 0 0 0 0 0 0 0 0 0 127 0" result="hardAlpha"/>
<feOffset dy="2"/>
<feGaussianBlur stdDeviation="4"/>
<feComposite in2="hardAlpha" operator="out"/>
<feColorMatrix type="matrix" values="0 0 0 0 0 0 0 0 0 0 0 0 0 0 0 0 0 0 0.5 0"/>
<feBlend mode="normal" in2="effect1_dropShadow_7647_1334" result="effect2_dropShadow_7647_1334"/>
<feBlend mode="normal" in="SourceGraphic" in2="effect2_dropShadow_7647_1334" result="shape"/>
</filter>
<filter id="filter5_dd_7647_1334" x="131.377" y="22.5645" width="34.9321" height="46.626" filterUnits="userSpaceOnUse" color-interpolation-filters="sRGB">
<feFlood flood-opacity="0" result="BackgroundImageFix"/>
<feColorMatrix in="SourceAlpha" type="matrix" values="0 0 0 0 0 0 0 0 0 0 0 0 0 0 0 0 0 0 127 0" result="hardAlpha"/>
<feOffset dy="4"/>
<feGaussianBlur stdDeviation="8"/>
<feComposite in2="hardAlpha" operator="out"/>
<feColorMatrix type="matrix" values="0 0 0 0 0 0 0 0 0 0 0 0 0 0 0 0 0 0 0.64 0"/>
<feBlend mode="normal" in2="BackgroundImageFix" result="effect1_dropShadow_7647_1334"/>
<feColorMatrix in="SourceAlpha" type="matrix" values="0 0 0 0 0 0 0 0 0 0 0 0 0 0 0 0 0 0 127 0" result="hardAlpha"/>
<feOffset dy="1"/>
<feGaussianBlur stdDeviation="0.5"/>
<feComposite in2="hardAlpha" operator="out"/>
<feColorMatrix type="matrix" values="0 0 0 0 0 0 0 0 0 0 0 0 0 0 0 0 0 0 0.08 0"/>
<feBlend mode="normal" in2="effect1_dropShadow_7647_1334" result="effect2_dropShadow_7647_1334"/>
<feBlend mode="normal" in="SourceGraphic" in2="effect2_dropShadow_7647_1334" result="shape"/>
</filter>
<filter id="filter6_dd_7647_1334" x="131.377" y="22.5645" width="34.9316" height="46.626" filterUnits="userSpaceOnUse" color-interpolation-filters="sRGB">
<feFlood flood-opacity="0" result="BackgroundImageFix"/>
<feColorMatrix in="SourceAlpha" type="matrix" values="0 0 0 0 0 0 0 0 0 0 0 0 0 0 0 0 0 0 127 0" result="hardAlpha"/>
<feOffset dy="4"/>
<feGaussianBlur stdDeviation="8"/>
<feComposite in2="hardAlpha" operator="out"/>
<feColorMatrix type="matrix" values="0 0 0 0 0 0 0 0 0 0 0 0 0 0 0 0 0 0 0.64 0"/>
<feBlend mode="normal" in2="BackgroundImageFix" result="effect1_dropShadow_7647_1334"/>
<feColorMatrix in="SourceAlpha" type="matrix" values="0 0 0 0 0 0 0 0 0 0 0 0 0 0 0 0 0 0 127 0" result="hardAlpha"/>
<feOffset dy="1"/>
<feGaussianBlur stdDeviation="0.5"/>
<feComposite in2="hardAlpha" operator="out"/>
<feColorMatrix type="matrix" values="0 0 0 0 0 0 0 0 0 0 0 0 0 0 0 0 0 0 0.08 0"/>
<feBlend mode="normal" in2="effect1_dropShadow_7647_1334" result="effect2_dropShadow_7647_1334"/>
<feBlend mode="normal" in="SourceGraphic" in2="effect2_dropShadow_7647_1334" result="shape"/>
</filter>
<filter id="filter7_dd_7647_1334" x="132.239" y="38.6743" width="51.5774" height="42.1924" filterUnits="userSpaceOnUse" color-interpolation-filters="sRGB">
<feFlood flood-opacity="0" result="BackgroundImageFix"/>
<feColorMatrix in="SourceAlpha" type="matrix" values="0 0 0 0 0 0 0 0 0 0 0 0 0 0 0 0 0 0 127 0" result="hardAlpha"/>
<feOffset dy="4"/>
<feGaussianBlur stdDeviation="8"/>
<feComposite in2="hardAlpha" operator="out"/>
<feColorMatrix type="matrix" values="0 0 0 0 0 0 0 0 0 0 0 0 0 0 0 0 0 0 0.64 0"/>
<feBlend mode="normal" in2="BackgroundImageFix" result="effect1_dropShadow_7647_1334"/>
<feColorMatrix in="SourceAlpha" type="matrix" values="0 0 0 0 0 0 0 0 0 0 0 0 0 0 0 0 0 0 127 0" result="hardAlpha"/>
<feOffset dy="1"/>
<feGaussianBlur stdDeviation="0.5"/>
<feComposite in2="hardAlpha" operator="out"/>
<feColorMatrix type="matrix" values="0 0 0 0 0 0 0 0 0 0 0 0 0 0 0 0 0 0 0.08 0"/>
<feBlend mode="normal" in2="effect1_dropShadow_7647_1334" result="effect2_dropShadow_7647_1334"/>
<feBlend mode="normal" in="SourceGraphic" in2="effect2_dropShadow_7647_1334" result="shape"/>
</filter>
<filter id="filter8_dd_7647_1334" x="132.239" y="38.6738" width="51.5771" height="42.1924" filterUnits="userSpaceOnUse" color-interpolation-filters="sRGB">
<feFlood flood-opacity="0" result="BackgroundImageFix"/>
<feColorMatrix in="SourceAlpha" type="matrix" values="0 0 0 0 0 0 0 0 0 0 0 0 0 0 0 0 0 0 127 0" result="hardAlpha"/>
<feOffset dy="4"/>
<feGaussianBlur stdDeviation="8"/>
<feComposite in2="hardAlpha" operator="out"/>
<feColorMatrix type="matrix" values="0 0 0 0 0 0 0 0 0 0 0 0 0 0 0 0 0 0 0.64 0"/>
<feBlend mode="normal" in2="BackgroundImageFix" result="effect1_dropShadow_7647_1334"/>
<feColorMatrix in="SourceAlpha" type="matrix" values="0 0 0 0 0 0 0 0 0 0 0 0 0 0 0 0 0 0 127 0" result="hardAlpha"/>
<feOffset dy="1"/>
<feGaussianBlur stdDeviation="0.5"/>
<feComposite in2="hardAlpha" operator="out"/>
<feColorMatrix type="matrix" values="0 0 0 0 0 0 0 0 0 0 0 0 0 0 0 0 0 0 0.08 0"/>
<feBlend mode="normal" in2="effect1_dropShadow_7647_1334" result="effect2_dropShadow_7647_1334"/>
<feBlend mode="normal" in="SourceGraphic" in2="effect2_dropShadow_7647_1334" result="shape"/>
</filter>
<filter id="filter9_dd_7647_1334" x="128.351" y="34.6772" width="40.5662" height="40.5938" filterUnits="userSpaceOnUse" color-interpolation-filters="sRGB">
<feFlood flood-opacity="0" result="BackgroundImageFix"/>
<feColorMatrix in="SourceAlpha" type="matrix" values="0 0 0 0 0 0 0 0 0 0 0 0 0 0 0 0 0 0 127 0" result="hardAlpha"/>
<feOffset dy="4"/>
<feGaussianBlur stdDeviation="8"/>
<feComposite in2="hardAlpha" operator="out"/>
<feColorMatrix type="matrix" values="0 0 0 0 0 0 0 0 0 0 0 0 0 0 0 0 0 0 0.64 0"/>
<feBlend mode="normal" in2="BackgroundImageFix" result="effect1_dropShadow_7647_1334"/>
<feColorMatrix in="SourceAlpha" type="matrix" values="0 0 0 0 0 0 0 0 0 0 0 0 0 0 0 0 0 0 127 0" result="hardAlpha"/>
<feOffset dy="1"/>
<feGaussianBlur stdDeviation="0.5"/>
<feComposite in2="hardAlpha" operator="out"/>
<feColorMatrix type="matrix" values="0 0 0 0 0 0 0 0 0 0 0 0 0 0 0 0 0 0 0.08 0"/>
<feBlend mode="normal" in2="effect1_dropShadow_7647_1334" result="effect2_dropShadow_7647_1334"/>
<feBlend mode="normal" in="SourceGraphic" in2="effect2_dropShadow_7647_1334" result="shape"/>
</filter>
<filter id="filter10_dd_7647_1334" x="128.351" y="34.6772" width="40.5664" height="40.5933" filterUnits="userSpaceOnUse" color-interpolation-filters="sRGB">
<feFlood flood-opacity="0" result="BackgroundImageFix"/>
<feColorMatrix in="SourceAlpha" type="matrix" values="0 0 0 0 0 0 0 0 0 0 0 0 0 0 0 0 0 0 127 0" result="hardAlpha"/>
<feOffset dy="4"/>
<feGaussianBlur stdDeviation="8"/>
<feComposite in2="hardAlpha" operator="out"/>
<feColorMatrix type="matrix" values="0 0 0 0 0 0 0 0 0 0 0 0 0 0 0 0 0 0 0.64 0"/>
<feBlend mode="normal" in2="BackgroundImageFix" result="effect1_dropShadow_7647_1334"/>
<feColorMatrix in="SourceAlpha" type="matrix" values="0 0 0 0 0 0 0 0 0 0 0 0 0 0 0 0 0 0 127 0" result="hardAlpha"/>
<feOffset dy="1"/>
<feGaussianBlur stdDeviation="0.5"/>
<feComposite in2="hardAlpha" operator="out"/>
<feColorMatrix type="matrix" values="0 0 0 0 0 0 0 0 0 0 0 0 0 0 0 0 0 0 0.08 0"/>
<feBlend mode="normal" in2="effect1_dropShadow_7647_1334" result="effect2_dropShadow_7647_1334"/>
<feBlend mode="normal" in="SourceGraphic" in2="effect2_dropShadow_7647_1334" result="shape"/>
</filter>
<filter id="filter11_dd_7647_1334" x="40.2207" y="29" width="143.693" height="115.357" filterUnits="userSpaceOnUse" color-interpolation-filters="sRGB">
<feFlood flood-opacity="0" result="BackgroundImageFix"/>
<feColorMatrix in="SourceAlpha" type="matrix" values="0 0 0 0 0 0 0 0 0 0 0 0 0 0 0 0 0 0 127 0" result="hardAlpha"/>
<feOffset dy="4"/>
<feGaussianBlur stdDeviation="8"/>
<feComposite in2="hardAlpha" operator="out"/>
<feColorMatrix type="matrix" values="0 0 0 0 0 0 0 0 0 0 0 0 0 0 0 0 0 0 0.8 0"/>
<feBlend mode="normal" in2="BackgroundImageFix" result="effect1_dropShadow_7647_1334"/>
<feColorMatrix in="SourceAlpha" type="matrix" values="0 0 0 0 0 0 0 0 0 0 0 0 0 0 0 0 0 0 127 0" result="hardAlpha"/>
<feOffset dy="1"/>
<feGaussianBlur stdDeviation="1"/>
<feComposite in2="hardAlpha" operator="out"/>
<feColorMatrix type="matrix" values="0 0 0 0 0 0 0 0 0 0 0 0 0 0 0 0 0 0 0.3 0"/>
<feBlend mode="normal" in2="effect1_dropShadow_7647_1334" result="effect2_dropShadow_7647_1334"/>
<feBlend mode="normal" in="SourceGraphic" in2="effect2_dropShadow_7647_1334" result="shape"/>
</filter>
<filter id="filter12_dd_7647_1334" x="39.7207" y="28.5" width="144.693" height="116.357" filterUnits="userSpaceOnUse" color-interpolation-filters="sRGB">
<feFlood flood-opacity="0" result="BackgroundImageFix"/>
<feColorMatrix in="SourceAlpha" type="matrix" values="0 0 0 0 0 0 0 0 0 0 0 0 0 0 0 0 0 0 127 0" result="hardAlpha"/>
<feOffset dy="4"/>
<feGaussianBlur stdDeviation="8"/>
<feComposite in2="hardAlpha" operator="out"/>
<feColorMatrix type="matrix" values="0 0 0 0 0 0 0 0 0 0 0 0 0 0 0 0 0 0 0.8 0"/>
<feBlend mode="normal" in2="BackgroundImageFix" result="effect1_dropShadow_7647_1334"/>
<feColorMatrix in="SourceAlpha" type="matrix" values="0 0 0 0 0 0 0 0 0 0 0 0 0 0 0 0 0 0 127 0" result="hardAlpha"/>
<feOffset dy="1"/>
<feGaussianBlur stdDeviation="1"/>
<feComposite in2="hardAlpha" operator="out"/>
<feColorMatrix type="matrix" values="0 0 0 0 0 0 0 0 0 0 0 0 0 0 0 0 0 0 0.3 0"/>
<feBlend mode="normal" in2="effect1_dropShadow_7647_1334" result="effect2_dropShadow_7647_1334"/>
<feBlend mode="normal" in="SourceGraphic" in2="effect2_dropShadow_7647_1334" result="shape"/>
</filter>
<filter id="filter13_dd_7647_1334" x="59.7568" y="12" width="62.9128" height="124.976" filterUnits="userSpaceOnUse" color-interpolation-filters="sRGB">
<feFlood flood-opacity="0" result="BackgroundImageFix"/>
<feColorMatrix in="SourceAlpha" type="matrix" values="0 0 0 0 0 0 0 0 0 0 0 0 0 0 0 0 0 0 127 0" result="hardAlpha"/>
<feOffset dy="4"/>
<feGaussianBlur stdDeviation="8"/>
<feComposite in2="hardAlpha" operator="out"/>
<feColorMatrix type="matrix" values="0 0 0 0 0 0 0 0 0 0 0 0 0 0 0 0 0 0 0.64 0"/>
<feBlend mode="normal" in2="BackgroundImageFix" result="effect1_dropShadow_7647_1334"/>
<feColorMatrix in="SourceAlpha" type="matrix" values="0 0 0 0 0 0 0 0 0 0 0 0 0 0 0 0 0 0 127 0" result="hardAlpha"/>
<feOffset dy="1"/>
<feGaussianBlur stdDeviation="0.5"/>
<feComposite in2="hardAlpha" operator="out"/>
<feColorMatrix type="matrix" values="0 0 0 0 0 0 0 0 0 0 0 0 0 0 0 0 0 0 0.08 0"/>
<feBlend mode="normal" in2="effect1_dropShadow_7647_1334" result="effect2_dropShadow_7647_1334"/>
<feBlend mode="normal" in="SourceGraphic" in2="effect2_dropShadow_7647_1334" result="shape"/>
</filter>
<linearGradient id="paint0_linear_7647_1334" x1="111.931" y1="45.9009" x2="111.931" y2="119.628" gradientUnits="userSpaceOnUse">
<stop stop-color="#FFCC33"/>
<stop offset="1" stop-color="#FFEAAA"/>
</linearGradient>
<linearGradient id="paint1_linear_7647_1334" x1="138.857" y1="19.5598" x2="159.464" y2="19.424" gradientUnits="userSpaceOnUse">
<stop stop-color="#4D4D4D"/>
<stop offset="1" stop-color="#373737"/>
</linearGradient>
<linearGradient id="paint2_linear_7647_1334" x1="170.547" y1="23.1094" x2="170.585" y2="33.9748" gradientUnits="userSpaceOnUse">
<stop stop-color="#4D4D4D"/>
<stop offset="1" stop-color="#373737"/>
</linearGradient>
<linearGradient id="paint3_linear_7647_1334" x1="128.663" y1="23.1094" x2="118.491" y2="23.1451" gradientUnits="userSpaceOnUse">
<stop stop-color="#4D4D4D"/>
<stop offset="1" stop-color="#373737"/>
</linearGradient>
<linearGradient id="paint4_linear_7647_1334" x1="148.786" y1="19.0239" x2="148.786" y2="81.5907" gradientUnits="userSpaceOnUse">
<stop stop-color="#4D4D4D"/>
<stop offset="0.828125" stop-color="#373737"/>
</linearGradient>
<linearGradient id="paint5_linear_7647_1334" x1="148.786" y1="19.0239" x2="148.786" y2="81.5907" gradientUnits="userSpaceOnUse">
<stop stop-color="#696969"/>
<stop offset="0.283654" stop-color="#333333" stop-opacity="0"/>
</linearGradient>
<linearGradient id="paint6_linear_7647_1334" x1="98.5455" y1="46.4132" x2="100.609" y2="80.415" gradientUnits="userSpaceOnUse">
<stop offset="0.0036" stop-color="#404040"/>
<stop offset="1" stop-color="#302F2D"/>
</linearGradient>
<linearGradient id="paint7_linear_7647_1334" x1="162.234" y1="30.5996" x2="162.234" y2="54.614" gradientUnits="userSpaceOnUse">
<stop stop-color="#FFCC33"/>
<stop offset="1" stop-color="#FFEAAA"/>
</linearGradient>
<linearGradient id="paint8_linear_7647_1334" x1="146.078" y1="40.8073" x2="150.716" y2="41.0819" gradientUnits="userSpaceOnUse">
<stop offset="0.0036" stop-color="#454545"/>
<stop offset="1" stop-color="#757166"/>
</linearGradient>
<linearGradient id="paint9_linear_7647_1334" x1="148.721" y1="46.0001" x2="153.216" y2="46.1378" gradientUnits="userSpaceOnUse">
<stop stop-color="#323232" stop-opacity="0"/>
<stop offset="1" stop-color="#F9CC45"/>
</linearGradient>
<linearGradient id="paint10_linear_7647_1334" x1="139.677" y1="55.0266" x2="139.885" y2="61.5583" gradientUnits="userSpaceOnUse">
<stop offset="0.0036" stop-color="#454545"/>
<stop offset="1" stop-color="#757166"/>
</linearGradient>
<linearGradient id="paint11_linear_7647_1334" x1="161.221" y1="59" x2="162.408" y2="56.3998" gradientUnits="userSpaceOnUse">
<stop stop-color="#323232" stop-opacity="0"/>
<stop offset="1" stop-color="#F9CC45"/>
</linearGradient>
<linearGradient id="paint12_linear_7647_1334" x1="147.976" y1="55.4822" x2="153.46" y2="53.7011" gradientUnits="userSpaceOnUse">
<stop offset="0.0036" stop-color="#454545"/>
<stop offset="1" stop-color="#757166"/>
</linearGradient>
<linearGradient id="paint13_linear_7647_1334" x1="151.61" y1="56.4951" x2="155.139" y2="55.2741" gradientUnits="userSpaceOnUse">
<stop stop-color="#323232" stop-opacity="0"/>
<stop offset="1" stop-color="#F9CC45"/>
</linearGradient>
<linearGradient id="paint14_linear_7647_1334" x1="112.067" y1="41" x2="112.067" y2="124.357" gradientUnits="userSpaceOnUse">
<stop stop-color="#4D4D4D"/>
<stop offset="0.828125" stop-color="#373737"/>
</linearGradient>
<linearGradient id="paint15_linear_7647_1334" x1="112.067" y1="41" x2="112.067" y2="124.357" gradientUnits="userSpaceOnUse">
<stop stop-color="#696969"/>
<stop offset="0.283654" stop-color="#333333" stop-opacity="0"/>
</linearGradient>
<linearGradient id="paint16_linear_7647_1334" x1="74.7207" y1="41.5" x2="70.1271" y2="48.9583" gradientUnits="userSpaceOnUse">
<stop stop-color="#323232" stop-opacity="0"/>
<stop offset="1" stop-color="#F9CC45"/>
</linearGradient>
</defs>
</svg>
