<svg width="24" height="24" viewBox="0 0 24 24" fill="none" xmlns="http://www.w3.org/2000/svg">
<path d="M3.66712 6.46981C5.45739 3.77721 8.52099 2 12 2C15.479 2 18.5426 3.77721 20.3329 6.46981C21.3863 8.05409 22 9.95651 22 12C22 14.0435 21.3863 15.9459 20.3329 17.5302C18.5426 20.2228 15.479 22 12 22C8.52099 22 5.45739 20.2228 3.66712 17.5302C2.61375 15.9459 2 14.0435 2 12C2 9.95651 2.61375 8.05409 3.66712 6.46981ZM8.408 8.52179C8.69618 8.22425 8.68859 7.74944 8.39105 7.46126C8.09351 7.17309 7.6187 7.18068 7.33053 7.47821C6.19814 8.64739 5.5 10.2429 5.5 11.9999C5.5 13.757 6.19814 15.3525 7.33053 16.5217C7.6187 16.8192 8.09351 16.8268 8.39105 16.5386C8.68859 16.2505 8.69618 15.7756 8.408 15.4781C7.53568 14.5774 7 13.352 7 11.9999C7 10.6479 7.53568 9.42245 8.408 8.52179ZM16.6695 7.47821C16.3813 7.18068 15.9065 7.17309 15.6089 7.46126C15.3114 7.74944 15.3038 8.22425 15.592 8.52179C16.4643 9.42245 17 10.6479 17 11.9999C17 13.352 16.4643 14.5774 15.592 15.4781C15.3038 15.7756 15.3114 16.2505 15.6089 16.5386C15.9065 16.8268 16.3813 16.8192 16.6695 16.5217C17.8019 15.3525 18.5 13.757 18.5 11.9999C18.5 10.2429 17.8019 8.64739 16.6695 7.47821Z" fill="#212121"/>
</svg>
