<svg width="20" height="20" viewBox="0 0 20 20" fill="none" xmlns="http://www.w3.org/2000/svg">
<path d="M2 10C2 5.58172 5.58172 2 10 2C14.4183 2 18 5.58172 18 10C18 14.4183 14.4183 18 10 18C5.58172 18 2 14.4183 2 10ZM6.81804 13.8891C7.0133 13.6938 7.0133 13.3772 6.81804 13.182C5.06068 11.4246 5.06068 8.57538 6.81804 6.81802C7.0133 6.62276 7.0133 6.30617 6.81804 6.11091C6.62278 5.91565 6.3062 5.91565 6.11094 6.11091C3.96305 8.2588 3.96305 11.7412 6.11094 13.8891C6.3062 14.0843 6.62278 14.0843 6.81804 13.8891ZM13.8891 6.11091C13.6938 5.91565 13.3773 5.91565 13.182 6.11091C12.9867 6.30617 12.9867 6.62276 13.182 6.81802C14.9394 8.57538 14.9394 11.4246 13.182 13.182C12.9867 13.3772 12.9867 13.6938 13.182 13.8891C13.3773 14.0843 13.6938 14.0843 13.8891 13.8891C16.037 11.7412 16.037 8.2588 13.8891 6.11091Z" fill="#212121"/>
</svg>
