<svg width="20" height="20" viewBox="0 0 20 20" fill="none" xmlns="http://www.w3.org/2000/svg">
<path d="M3 10C3 6.13401 6.13401 3 10 3C13.866 3 17 6.13401 17 10C17 13.866 13.866 17 10 17C6.13401 17 3 13.866 3 10ZM10 2C5.58172 2 2 5.58172 2 10C2 14.4183 5.58172 18 10 18C14.4183 18 18 14.4183 18 10C18 5.58172 14.4183 2 10 2ZM7.17152 13.5355C7.36678 13.3403 7.36678 13.0237 7.17152 12.8284C5.60942 11.2663 5.60942 8.73367 7.17152 7.17157C7.36678 6.97631 7.36678 6.65973 7.17152 6.46447C6.97626 6.2692 6.65968 6.2692 6.46441 6.46447C4.51179 8.41709 4.51179 11.5829 6.46441 13.5355C6.65968 13.7308 6.97626 13.7308 7.17152 13.5355ZM13.5355 6.46447C13.3402 6.2692 13.0236 6.2692 12.8284 6.46447C12.6331 6.65973 12.6331 6.97631 12.8284 7.17157C14.3905 8.73367 14.3905 11.2663 12.8284 12.8284C12.6331 13.0237 12.6331 13.3403 12.8284 13.5355C13.0236 13.7308 13.3402 13.7308 13.5355 13.5355C15.4881 11.5829 15.4881 8.41709 13.5355 6.46447Z" fill="#212121"/>
</svg>
