<svg width="20" height="20" viewBox="0 0 20 20" fill="none" xmlns="http://www.w3.org/2000/svg">
<path d="M4.5 3C3.67157 3 3 3.67157 3 4.5V6.5C3 6.77614 2.77614 7 2.5 7C2.22386 7 2 6.77614 2 6.5V4.5C2 3.11929 3.11929 2 4.5 2H6.5C6.77614 2 7 2.22386 7 2.5C7 2.77614 6.77614 3 6.5 3H4.5Z" fill="#212121"/>
<path d="M4.5 17C3.67157 17 3 16.3284 3 15.5V13.5C3 13.2239 2.77614 13 2.5 13C2.22386 13 2 13.2239 2 13.5V15.5C2 16.8807 3.11929 18 4.5 18H6.5C6.77614 18 7 17.7761 7 17.5C7 17.2239 6.77614 17 6.5 17H4.5Z" fill="#212121"/>
<path d="M17 4.5C17 3.67157 16.3284 3 15.5 3H13.5C13.2239 3 13 2.77614 13 2.5C13 2.22386 13.2239 2 13.5 2H15.5C16.8807 2 18 3.11929 18 4.5V6.5C18 6.77614 17.7761 7 17.5 7C17.2239 7 17 6.77614 17 6.5V4.5Z" fill="#212121"/>
<path d="M8.76698 6.90302C9.36346 6.04144 10.6371 6.04144 11.2336 6.90302L12.8579 9.24931C12.5293 9.35198 12.2139 9.48465 11.915 9.64411L10.4114 7.47223C10.2125 7.18504 9.788 7.18504 9.58918 7.47223L6.99774 11.2154C6.76816 11.547 7.00551 12 7.40884 12H9.5997C9.43776 12.3168 9.30564 12.6514 9.20703 13H7.40884C6.19885 13 5.48681 11.641 6.17555 10.6462L8.76698 6.90302Z" fill="#212121"/>
<path d="M14.5 19C16.9853 19 19 16.9853 19 14.5C19 12.0147 16.9853 10 14.5 10C12.0147 10 10 12.0147 10 14.5C10 16.9853 12.0147 19 14.5 19ZM14.5 12C14.7761 12 15 12.2239 15 12.5V14H16.5C16.7761 14 17 14.2239 17 14.5C17 14.7761 16.7761 15 16.5 15H15V16.5C15 16.7761 14.7761 17 14.5 17C14.2239 17 14 16.7761 14 16.5V15H12.5C12.2239 15 12 14.7761 12 14.5C12 14.2239 12.2239 14 12.5 14H14V12.5C14 12.2239 14.2239 12 14.5 12Z" fill="#212121"/>
</svg>
