<svg width="48" height="48" viewBox="0 0 48 48" fill="none" xmlns="http://www.w3.org/2000/svg">
<path d="M10.25 7C6.79822 7 4 9.79822 4 13.25V28.75C4 31.3205 5.55176 33.5285 7.7696 34.4885C8.01817 37.5737 10.6007 40 13.75 40C16.723 40 19.191 37.8377 19.667 35H27.833C28.309 37.8377 30.777 40 33.75 40C36.723 40 39.191 37.8377 39.667 35H42.5C43.1904 35 43.75 34.4404 43.75 33.75C43.75 33.2374 43.4415 32.7969 43 32.604V24.1573C43 22.6219 42.4348 21.1401 41.4121 19.9947L37.9234 16.0874C36.7376 14.7593 35.0417 14 33.2613 14H31V13.25C31 9.79822 28.2018 7 24.75 7H10.25ZM39.561 32.5C38.8949 29.9122 36.5458 28 33.75 28C32.7588 28 31.8238 28.2403 31 28.6659V25.5H40.5V32.5H39.561ZM28.5 31.093C28.2568 31.5313 28.0669 32.0032 27.939 32.5H19.561C18.8949 29.9122 16.5458 28 13.75 28C11.1924 28 9.00863 29.6002 8.14516 31.854C7.15225 31.1794 6.5 30.0409 6.5 28.75V13.25C6.5 11.1789 8.17893 9.5 10.25 9.5H24.75C26.8211 9.5 28.5 11.1789 28.5 13.25V31.093ZM31 16.5H33.2613C34.3296 16.5 35.3471 16.9556 36.0586 17.7524L39.5473 21.6598C39.897 22.0514 40.1575 22.5086 40.3169 23H31V16.5ZM13.75 30.5C15.683 30.5 17.25 32.067 17.25 34C17.25 35.933 15.683 37.5 13.75 37.5C11.817 37.5 10.25 35.933 10.25 34C10.25 32.067 11.817 30.5 13.75 30.5ZM33.75 30.5C35.683 30.5 37.25 32.067 37.25 34C37.25 35.933 35.683 37.5 33.75 37.5C31.817 37.5 30.25 35.933 30.25 34C30.25 32.067 31.817 30.5 33.75 30.5Z" fill="#212121"/>
</svg>
