<svg width="12" height="12" viewBox="0 0 12 12" fill="none" xmlns="http://www.w3.org/2000/svg">
<path d="M11 7.31695C11 6.69882 10.2913 6.16188 9.59779 5.45227C8.89475 4.73286 8.21339 4 7.80522 4C7.39705 4 6.99466 4 6.99466 4C6.99478 3.9637 6.99466 3 6.99466 3C6.99681 2.55674 6.41056 2 5.9804 2H2.03504C1.55931 2 1 2.68385 1 3.1526C1 3.1526 1 6.59658 1 8.9812C1 9.74343 2 10 2 10C2 10.4812 2.64202 10.9812 3.45536 10.9812C4.26869 10.9812 4.98868 10.3719 4.98868 10H6.99466C6.99466 10.5522 7.58959 10.9812 8.56696 10.9812C9.54434 10.9812 10.0036 10.5297 10.0036 10C10.0036 10 11 10.1263 11 9.24202C11 8.35771 11 7.93508 11 7.31695ZM3.45536 10C3.04102 10 3 9.90307 3 9.4812C3 9.07495 3.04102 8.9812 3.45536 8.9812C3.85435 8.9812 4 9.07495 4 9.4812C4 9.90307 3.85435 10 3.45536 10ZM5.9804 8.9812H4.98868C4.65059 8.22614 3.99247 7.9812 3.45536 7.9812C2.9029 7.9812 2.42718 8.33915 2.18164 8.77665C2.11348 8.77665 2.06475 8.90111 2.03504 8.97701C2.01161 9.03685 2 9.06651 2 8.9812C1.98214 8.9812 2 3 2 3H5.9804V8.9812ZM8.5 10C8.08566 10 7.98638 9.90307 7.98638 9.4812C7.98638 9.07495 8.08566 9 8.5 9C8.899 9 9 9.07495 9 9.4812C9 9.90307 8.899 10 8.5 10ZM6.99466 5H8L10 7H6.99466V5ZM6.99496 8H8C8 8 7.68711 8.08024 7.39925 8.38925C7.1114 8.69827 7 9 7 9L6.99496 8ZM10 8V9C10 9 9.91417 8.62745 9.66743 8.38925C9.42069 8.15105 9 8 9 8H10Z" fill="#212121"/>
</svg>
