<svg width="16" height="16" viewBox="0 0 16 16" fill="none" xmlns="http://www.w3.org/2000/svg">
<path d="M0.96154 4.46143C0.96154 3.08071 2.08083 1.96143 3.46154 1.96143H8.46154C9.84225 1.96143 10.9615 3.08071 10.9615 4.46143V4.99989H11.492C12.268 4.99989 13.0139 5.30062 13.5729 5.83892L14.0809 6.32812C14.6682 6.89363 15 7.6738 15 8.48908V11.1057C15.1171 11.1973 15.1923 11.3398 15.1923 11.4999C15.1923 11.776 14.9684 11.9999 14.6923 11.9999H13C13 13.1045 12.1046 13.9999 11 13.9999C9.89543 13.9999 9 13.1045 9 11.9999C9 11.987 9.00012 11.9742 9.00036 11.9614H5.99964C5.99988 11.9742 6 11.987 6 11.9999C6 13.1045 5.10457 13.9999 4 13.9999C2.89543 13.9999 2 13.1045 2 11.9999C2 11.8048 2.02793 11.6163 2.08001 11.438C1.50695 10.9661 0.96154 10.2189 0.96154 9.46143V4.46143ZM1.96154 9.46143C1.96154 9.81233 2.33406 10.2519 2.62416 10.5483C2.98266 10.2084 3.46698 9.99989 4 9.99989C4.72429 9.99989 5.35866 10.3849 5.70961 10.9614H9.29039C9.45708 10.6876 9.68771 10.457 9.96154 10.2903V4.46143C9.96154 3.633 9.28997 2.96143 8.46154 2.96143H3.46154C2.63311 2.96143 1.96154 3.633 1.96154 4.46143V9.46143ZM11 8.99989V9.99989C11.7403 9.99989 12.3866 10.4021 12.7324 10.9999H14V8.93299C13.9265 8.97554 13.8411 8.99989 13.75 8.99989H11ZM11 5.99989V7.99989H13.75C13.8208 7.99989 13.8882 8.0146 13.9492 8.04114C13.8629 7.66582 13.6693 7.32 13.3873 7.04844L12.8793 6.55925C12.5066 6.20038 12.0094 5.99989 11.492 5.99989H11ZM4 10.9999C3.44772 10.9999 3 11.4476 3 11.9999C3 12.5522 3.44772 12.9999 4 12.9999C4.55228 12.9999 5 12.5522 5 11.9999C5 11.4476 4.55228 10.9999 4 10.9999ZM11 10.9999C10.4477 10.9999 10 11.4476 10 11.9999C10 12.5522 10.4477 12.9999 11 12.9999C11.5523 12.9999 12 12.5522 12 11.9999C12 11.4476 11.5523 10.9999 11 10.9999Z" fill="#212121"/>
</svg>
