<svg width="24" height="24" viewBox="0 0 24 24" fill="none" xmlns="http://www.w3.org/2000/svg">
<path d="M5.25 4C3.45507 4 2 5.45507 2 7.25V14.75C2 16.1423 2.87545 17.33 4.1059 17.7929C4.45361 19.065 5.61761 20 7 20C8.30622 20 9.41746 19.1652 9.82929 18H13.1707C13.5825 19.1652 14.6938 20 16 20C17.3062 20 18.4175 19.1652 18.8293 18H21C21.4142 18 21.75 17.6642 21.75 17.25C21.75 16.8358 21.4142 16.5 21 16.5V11.6051C21 10.7968 20.6989 10.0176 20.1553 9.41945L18.924 8.06439C18.3081 7.3865 17.4347 7 16.5187 7H15.7405C15.6129 5.32189 14.2108 4 12.5 4H5.25ZM18.9585 16.5C18.7205 15.0811 17.4865 14 16 14C15.9158 14 15.8324 14.0035 15.75 14.0103V13.5H19.5V16.5H18.9585ZM14.25 14.563C13.6214 15.0152 13.1749 15.7045 13.0415 16.5H9.95852C9.72048 15.0811 8.4865 14 7 14C5.65647 14 4.51923 14.8832 4.13714 16.1006C3.74803 15.7797 3.5 15.2938 3.5 14.75V7.25C3.5 6.2835 4.2835 5.5 5.25 5.5H12.5C13.4665 5.5 14.25 6.2835 14.25 7.25V14.563ZM15.75 8.5H16.5187C17.0119 8.5 17.4822 8.70811 17.8139 9.07313L19.0452 10.4282C19.3378 10.7503 19.5 11.1699 19.5 11.6051V12H15.75V8.5ZM7 15.5C7.82843 15.5 8.5 16.1716 8.5 17C8.5 17.8284 7.82843 18.5 7 18.5C6.17157 18.5 5.5 17.8284 5.5 17C5.5 16.1716 6.17157 15.5 7 15.5ZM16 15.5C16.8284 15.5 17.5 16.1716 17.5 17C17.5 17.8284 16.8284 18.5 16 18.5C15.1716 18.5 14.5 17.8284 14.5 17C14.5 16.1716 15.1716 15.5 16 15.5Z" fill="#212121"/>
</svg>
