<svg width="28" height="28" viewBox="0 0 28 28" fill="none" xmlns="http://www.w3.org/2000/svg">
<path d="M5.75 4C3.67893 4 2 5.67893 2 7.75V17.25C2 19.0656 3.29035 20.5799 5.00405 20.9258C5.09586 22.9153 6.73786 24.5 8.75 24.5C10.7371 24.5 12.3632 22.9545 12.4918 21H16.0082C16.1368 22.9545 17.7629 24.5 19.75 24.5C21.7371 24.5 23.3632 22.9545 23.4918 21H25.75C26.1642 21 26.5 20.6642 26.5 20.25C26.5 19.8358 26.1642 19.5 25.75 19.5H25V13.581C25 12.9013 24.8153 12.2344 24.4656 11.6516L22.767 8.82064C22.0893 7.69112 20.8687 7 19.5514 7H17.925C17.5775 5.28832 16.0642 4 14.25 4H5.75ZM23.3649 19.7488C22.9268 18.1638 21.4743 17 19.75 17C19.118 17 18.5224 17.1564 18 17.4325V14.5H23.5V19.5H23.3257C23.3421 19.5818 23.3552 19.6648 23.3649 19.7488ZM16.5 18.8779C16.3864 19.0747 16.2902 19.2828 16.2134 19.5H12.2866C11.7718 18.0435 10.3828 17 8.75 17C7.12688 17 5.74462 18.0312 5.22261 19.4742C5.22502 19.4627 5.22751 19.4511 5.23006 19.4396C4.2381 19.205 3.5 18.3137 3.5 17.25V7.75C3.5 6.50736 4.50736 5.5 5.75 5.5H14.25C15.4926 5.5 16.5 6.50736 16.5 7.75V18.8779ZM18 8.5H19.5514C20.3418 8.5 21.0742 8.91467 21.4808 9.59239L23.1794 12.4233C23.2878 12.6041 23.3698 12.7982 23.4237 13H18V8.5ZM8.75 18.5C9.99264 18.5 11 19.5074 11 20.75C11 21.9926 9.99264 23 8.75 23C7.50736 23 6.5 21.9926 6.5 20.75C6.5 19.5074 7.50736 18.5 8.75 18.5ZM19.75 18.5C20.9926 18.5 22 19.5074 22 20.75C22 21.9926 20.9926 23 19.75 23C18.5074 23 17.5 21.9926 17.5 20.75C17.5 19.5074 18.5074 18.5 19.75 18.5Z" fill="#212121"/>
</svg>
