<svg width="32" height="32" viewBox="0 0 32 32" fill="none" xmlns="http://www.w3.org/2000/svg">
<path d="M6.5 4C4.01472 4 2 6.01472 2 8.5L2 19.5C2 21.3654 3.13509 22.9658 4.75226 23.648C4.83045 26.2029 6.92616 28.25 9.5 28.25C11.9545 28.25 13.9741 26.3883 14.224 24H18.7743C19.0169 26.4048 21.0472 28.2818 23.5159 28.2818C25.9846 28.2818 28.015 26.4048 28.2575 24H29C29.5523 24 30 23.5523 30 23C30 22.4477 29.5523 22 29 22V15.2727C29 14.2592 28.6579 13.2754 28.029 12.4805L25.8352 9.70783C24.9817 8.62912 23.6817 8 22.3062 8H20.9725C20.7238 5.75002 18.8163 4 16.5 4H6.5ZM21 10.5H22.3062C23.0704 10.5 23.7926 10.8495 24.2668 11.4488C24.4993 11.7427 24.7609 12.0541 25.0278 12.3717C25.9806 13.5056 26.5 14 26.5 16H20.9725L21 10.5ZM9.5 21.25C10.7426 21.25 11.75 22.2574 11.75 23.5C11.75 24.7426 10.7426 25.75 9.5 25.75C8.25736 25.75 7.25 24.7426 7.25 23.5C7.25 22.2574 8.25736 21.25 9.5 21.25ZM23.5159 21.25C24.7673 21.25 25.7818 22.2645 25.7818 23.5159C25.7818 24.7673 24.7673 25.7818 23.5159 25.7818C22.2645 25.7818 21.25 24.7673 21.25 23.5159C21.25 22.2645 22.2645 21.25 23.5159 21.25Z" fill="#212121"/>
</svg>
