<svg width="28" height="28" viewBox="0 0 28 28" fill="none" xmlns="http://www.w3.org/2000/svg">
<path d="M5.75 4C3.67893 4 2 5.67893 2 7.75V17.75C2 19.5863 3.31994 21.1144 5.06282 21.4372C5.38559 23.1801 6.91365 24.5 8.75 24.5C10.5642 24.5 12.0775 23.2117 12.425 21.5H16.075C16.4225 23.2117 17.9358 24.5 19.75 24.5C21.5642 24.5 23.0775 23.2117 23.425 21.5H25.75C26.1642 21.5 26.5 21.1642 26.5 20.75C26.5 20.3358 26.1642 20 25.75 20H25V13.6957C25 12.9263 24.7633 12.1755 24.3221 11.5452L22.2602 8.59952C21.5584 7.59704 20.4117 7 19.188 7H18C18 5.5 16.5642 4 14.75 4H5.75ZM17.628 21.5H17.6506C17.628 21.4565 17.6064 21.4125 17.5859 21.3678C17.5299 21.1715 17.5 20.9643 17.5 20.75C17.5 19.5074 18.5074 18.5 19.75 18.5C20.9926 18.5 22 19.5074 22 20.75C22 21.9926 20.9926 23 19.75 23C18.7703 23 17.9369 22.3739 17.628 21.5ZM18 8.5H19.188C19.9222 8.5 20.6103 8.85822 21.0313 9.45971C22.0654 10.9369 23.3898 12.9697 23.3898 14H18V8.5ZM8.75 18.5C9.99264 18.5 11 19.5074 11 20.75C11 21.9926 9.99264 23 8.75 23C7.50736 23 6.5 21.9926 6.5 20.75C6.5 19.5074 7.50736 18.5 8.75 18.5Z" fill="#212121"/>
</svg>
