<svg width="20" height="20" viewBox="0 0 20 20" fill="none" xmlns="http://www.w3.org/2000/svg">
<path d="M5 4C3.34315 4 2 5.34315 2 7V12C2 12.8946 2.39155 13.6977 3.01261 14.2473C3.00427 14.3304 3 14.4147 3 14.5C3 15.8807 4.11929 17 5.5 17C6.70948 17 7.71836 16.1411 7.94999 15H10.05C10.2816 16.1411 11.2905 17 12.5 17C13.7095 17 14.7184 16.1411 14.95 15H17C17.2761 15 17.5 14.7761 17.5 14.5C17.5 14.2239 17.2761 14 17 14V11.7423C17.0398 11.6705 17.0625 11.5879 17.0625 11.5C17.0625 11.4121 17.0398 11.3295 17 11.2577V10.6984C17 9.96294 16.7298 9.25311 16.2409 8.70377L15.6192 8.00538C15.05 7.36584 14.2346 7 13.3784 7H13C13 5.34315 11.6569 4 10 4H5ZM14.95 14C14.7512 13.0204 13.9796 12.2488 13 12.05V12H16V14H14.95ZM12 12.05C11.0204 12.2489 10.2489 13.0204 10.05 14H7.94999C7.71836 12.8589 6.70948 12 5.5 12C4.60651 12 3.82249 12.4687 3.38043 13.1737C3.14112 12.8441 3 12.4385 3 12V7C3 5.89543 3.89543 5 5 5H10C11.1046 5 12 5.89543 12 7V12.05ZM13 8H13.3784C13.9492 8 14.4928 8.24389 14.8723 8.67025L15.4939 9.36864C15.8199 9.73487 16 10.2081 16 10.6984V11H13V8ZM5.5 13C6.32843 13 7 13.6716 7 14.5C7 15.3284 6.32843 16 5.5 16C4.67157 16 4 15.3284 4 14.5C4 13.6716 4.67157 13 5.5 13ZM12.5 13C13.3284 13 14 13.6716 14 14.5C14 15.3284 13.3284 16 12.5 16C11.6716 16 11 15.3284 11 14.5C11 13.6716 11.6716 13 12.5 13Z" fill="#212121"/>
</svg>
