<svg width="16" height="16" viewBox="0 0 16 16" fill="none" xmlns="http://www.w3.org/2000/svg">
<path d="M0.96154 4.46143C0.96154 3.08071 2.08083 1.96143 3.46154 1.96143H8.46154C9.84225 1.96143 10.9615 3.08071 10.9615 4.46143V4.99989H11.492C12.268 4.99989 13.0139 5.30062 13.5729 5.83892L14.0809 6.32812C14.6682 6.89363 15 7.6738 15 8.48908V11.1057C15.1171 11.1973 15.1923 11.3398 15.1923 11.4999C15.1923 11.776 14.9684 11.9999 14.6923 11.9999H13C13 13.1045 12.1046 13.9999 11 13.9999C9.89543 13.9999 9 13.1045 9 11.9999L9.00024 11.9614H5.99964C5.99988 11.9742 6 11.987 6 11.9999C6 13.1045 5.10457 13.9999 4 13.9999C2.89543 13.9999 2 13.1045 2 11.9999C2 11.82 2.02375 11.6457 2.06827 11.4799C1.50853 10.9859 0.96154 10.1901 0.96154 9.46143V4.46143ZM13.5729 8.98882C13.5729 8.98882 13.6453 7.95486 13.4751 7.48368L12.6898 6.54134C12.3172 6.18247 12.0094 5.99989 11.492 5.99989H10.9615L11 8.98882H13.5729ZM4 10.9999C3.44772 10.9999 3 11.4476 3 11.9999C3 12.5522 3.44772 12.9999 4 12.9999C4.55228 12.9999 5 12.5522 5 11.9999C5 11.4476 4.55228 10.9999 4 10.9999ZM11 10.9999C10.4477 10.9999 10 11.4476 10 11.9999C10 12.5522 10.4477 12.9999 11 12.9999C11.5523 12.9999 12 12.5522 12 11.9999C12 11.4476 11.5523 10.9999 11 10.9999Z" fill="#212121"/>
</svg>
