<svg width="32" height="32" viewBox="0 0 32 32" fill="none" xmlns="http://www.w3.org/2000/svg">
<path d="M6.5 4.05273C4.01472 4.05273 2 6.06745 2 8.55274V19.4475C2 21.4083 3.25415 23.0762 5.00406 23.6928C5.10502 26.0887 7.07929 28.0001 9.5 28.0001C11.8343 28.0001 13.7535 26.2227 13.978 23.9475H19.0203C19.2376 26.2391 21.1674 28.0319 23.5159 28.0319C25.8465 28.0319 27.7647 26.2665 28.0062 24.0001C28.1162 23.9994 28.2221 23.981 28.321 23.9475H29C29.5523 23.9475 30 23.4998 30 22.9475C30 22.3952 29.5523 21.9475 29 21.9475V15.5921C29 14.6336 28.694 13.7001 28.1265 12.9277L25.8548 9.83575C25.0069 8.6817 23.6604 8.0001 22.2284 8.0001H20.9664C20.694 5.77553 18.7982 4.05273 16.5 4.05273H6.5ZM27 20.6427C26.1717 19.6395 24.9185 19.0001 23.5159 19.0001C22.5845 19.0001 21.719 19.2821 21 19.7653V17.0001H27V20.6427ZM13.725 21.9475C13.0926 20.2272 11.4396 19.0001 9.5 19.0001C7.66097 19.0001 6.07961 20.1033 5.38154 21.6839C4.56235 21.2735 4 20.4261 4 19.4475V8.55274C4 7.17202 5.11929 6.05273 6.5 6.05273H16.5C17.8807 6.05273 19 7.17202 19 8.55273V21.9475H13.725ZM21 10.0001H22.2284C23.0239 10.0001 23.772 10.3788 24.2431 11.0199L26.5147 14.1119C26.7112 14.3793 26.8512 14.6815 26.9289 15.0001H21V10.0001ZM9.5 21.0001C10.8807 21.0001 12 22.1194 12 23.5001C12 24.8808 10.8807 26.0001 9.5 26.0001C8.11929 26.0001 7 24.8808 7 23.5001C7 22.1194 8.11929 21.0001 9.5 21.0001ZM23.5159 21.0001C24.9054 21.0001 26.0318 22.1265 26.0318 23.516C26.0318 24.9055 24.9054 26.0319 23.5159 26.0319C22.1264 26.0319 21 24.9055 21 23.516C21 22.1265 22.1264 21.0001 23.5159 21.0001Z" fill="#212121"/>
</svg>
