<svg width="48" height="48" viewBox="0 0 48 48" fill="none" xmlns="http://www.w3.org/2000/svg">
<path d="M10.25 8C6.79822 8 4 10.7982 4 14.25V29.75C4 32.3205 5.55176 34.5285 7.7696 35.4885C8.01817 38.5737 10.6007 41 13.75 41C16.723 41 19.191 38.8377 19.667 36H27.833C28.309 38.8377 30.777 41 33.75 41C36.723 41 39.191 38.8377 39.667 36H42.5C43.1904 36 43.75 35.4404 43.75 34.75C43.75 34.2374 43.4415 33.7969 43 33.604V25.1573C43 23.6219 42.4348 22.1401 41.4121 20.9947L37.9234 17.0874C36.7376 15.7593 35.0417 15 33.2613 15H31V14.25C31 10.7982 28.2018 8 24.75 8H10.25ZM31 17.5H33.2613C34.3296 17.5 35.3471 17.9556 36.0586 18.7524C37.9476 20.8681 39.8173 23 39.8173 25H31V17.5ZM13.75 31.5C15.683 31.5 17.25 33.067 17.25 35C17.25 36.933 15.683 38.5 13.75 38.5C11.817 38.5 10.25 36.933 10.25 35C10.25 33.067 11.817 31.5 13.75 31.5ZM33.75 31.5C35.683 31.5 37.25 33.067 37.25 35C37.25 36.933 35.683 38.5 33.75 38.5C31.817 38.5 30.25 36.933 30.25 35C30.25 33.067 31.817 31.5 33.75 31.5Z" fill="#212121"/>
</svg>
