<svg width="24" height="24" viewBox="0 0 24 24" fill="none" xmlns="http://www.w3.org/2000/svg">
<path d="M3.5 12C3.5 7.30558 7.30558 3.5 12 3.5C16.6944 3.5 20.5 7.30558 20.5 12C20.5 16.6944 16.6944 20.5 12 20.5C7.30558 20.5 3.5 16.6944 3.5 12ZM12 2C6.47715 2 2 6.47715 2 12C2 17.5228 6.47715 22 12 22C17.5228 22 22 17.5228 22 12C22 6.47715 17.5228 2 12 2ZM7 12C7 14.7614 9.23858 17 12 17C14.7614 17 17 14.7614 17 12C17 9.23858 14.7614 7 12 7C9.23858 7 7 9.23858 7 12ZM12 5.5C15.5899 5.5 18.5 8.41015 18.5 12C18.5 15.5899 15.5899 18.5 12 18.5C8.41015 18.5 5.5 15.5899 5.5 12C5.5 8.41015 8.41015 5.5 12 5.5Z" fill="#212121"/>
</svg>
