<svg width="231" height="160" viewBox="0 0 231 160" fill="none" xmlns="http://www.w3.org/2000/svg">
<path d="M114.169 135.922C144.896 135.922 169.805 110.916 169.805 80.0696C169.805 49.2233 144.896 24.2175 114.169 24.2175C83.4418 24.2175 58.5327 49.2233 58.5327 80.0696C58.5327 110.916 83.4418 135.922 114.169 135.922Z" fill="#EBEBEB"/>
<path d="M134.026 20.0761C134.528 19.6153 134.563 18.833 134.104 18.3288C133.645 17.8246 132.866 17.7894 132.364 18.2502C131.862 18.711 131.826 19.4932 132.285 19.9974C132.744 20.5016 133.524 20.5368 134.026 20.0761Z" fill="#EDE5D9"/>
<g filter="url(#filter0_d_3840_744)">
<path fill-rule="evenodd" clip-rule="evenodd" d="M108.437 135.358C110.149 135.534 111.568 134.061 112.791 132.848C113.617 132.028 114.444 131.207 115.271 130.114C117.233 127.924 119.412 128.548 122.004 129.29C122.326 129.382 122.654 129.476 122.988 129.567C126.861 130.471 128.098 127.265 129.967 122.419C130.359 121.403 130.779 120.314 131.257 119.175C132.931 115.854 130.455 114.385 127.789 112.804C127.383 112.563 126.972 112.319 126.571 112.066C124.22 110.666 124.276 108.471 124.343 105.819C124.354 105.362 124.366 104.891 124.366 104.409C124.108 101.595 126.202 100.337 128.222 99.1225C130.521 97.741 132.724 96.417 131.257 92.9238C130.897 92.0683 130.566 91.2454 130.252 90.4635C128.152 85.2465 126.787 81.8547 122.713 82.806C122.352 82.9035 122 83.0048 121.654 83.1041C119.095 83.84 116.938 84.4601 114.995 82.5325C114.457 81.9311 113.901 81.4113 113.378 80.9213C111.759 79.4062 110.445 78.1757 110.861 75.6961C112.574 68.4118 112.114 68.2423 104.465 65.4241C103.499 65.0685 102.419 64.6707 101.215 64.211C97.696 62.9018 96.4391 65.075 95.1205 67.3548C93.9604 69.3606 92.7526 71.4488 89.9147 71.3209C89.2697 71.3209 88.6457 71.3521 88.0467 71.382C85.5743 71.5056 83.5287 71.6079 82.1976 69.4067C78.2623 63.0619 77.8388 63.2503 70.1544 66.668C69.2277 67.0801 68.1956 67.5392 67.0389 68.0394C63.2526 69.6494 64.2432 72.8393 65.3233 76.3171C65.3439 76.3835 65.3646 76.45 65.3852 76.5165C66.0395 79.1131 64.6229 80.5111 62.9107 82.2009C62.459 82.6467 61.9868 83.1127 61.5266 83.6263C60.3665 84.9418 58.8967 86.4511 59.1569 88.1857C62.9074 113.188 83.1679 132.761 108.437 135.358ZM82.7488 121.363C90.7416 124.371 99.8368 120.543 102.869 112.613C105.9 104.682 102.042 95.6583 94.0489 92.6503C86.0562 89.6423 76.9609 93.4707 73.9292 101.401C70.8975 109.331 74.7561 118.355 82.7488 121.363Z" fill="url(#paint0_linear_3840_744)"/>
</g>
<g filter="url(#filter1_d_3840_744)">
<path d="M152.608 61.6085C152.391 58.3411 152.824 56.1629 150.66 55.9451C149.145 55.7272 148.063 55.9451 147.414 54.6381C146.765 53.3312 145.899 52.242 146.765 51.1529C148.929 47.8855 148.28 48.1034 144.601 44.6181C142.22 42.4399 141.138 47.0142 138.758 45.9251C137.46 45.2716 136.161 45.2716 135.728 43.7468C134.863 40.0438 134.863 40.4795 129.669 40.6973C127.721 40.6973 127.721 42.4399 127.721 44.1825C127.505 45.7073 126.423 45.9251 124.908 46.5786C122.528 47.8855 121.013 43.529 118.849 45.9251C117.901 46.8796 117.118 47.8342 116.357 48.9354C116.14 49.2487 115.941 49.5873 115.893 49.9653C115.732 51.2354 116.938 51.7392 117.708 53.0135C117.747 53.0782 117.767 53.0701 117.767 53.1457C117.767 53.2131 117.784 53.362 117.807 53.4254C117.953 53.8297 117.767 54.2339 117.767 54.6381C117.767 55.2333 117.448 55.7975 117.252 56.3594C117.017 57.0332 116.756 57.5305 115.819 57.6877C112.14 58.3411 112.573 58.559 112.79 63.7868C113.006 67.0542 116.901 64.6581 117.983 67.0542C118.335 67.7626 118.973 68.7591 118.967 69.5752C118.964 69.9382 118.819 70.2897 118.648 70.6101C118.412 71.0543 118.057 71.4586 117.804 71.8973C117.587 72.2748 117.411 72.6847 117.302 73.1063C116.889 74.703 118.626 75.7375 120.364 77.292C122.744 79.4702 123.826 74.8959 126.207 75.985C129.02 77.0741 128.803 76.4207 129.453 79.688C129.885 81.8663 132.482 81.2128 135.295 80.995C138.542 80.7772 136.161 76.8563 138.542 75.7672C138.974 75.5494 139.624 75.3315 140.056 75.1137C141.355 74.4602 142.22 75.3315 143.519 75.985C145.466 77.292 146.548 75.3315 148.713 72.7176C150.011 71.1928 148.713 70.1037 147.631 68.7968C146.765 67.7076 147.414 66.6185 147.847 65.0937C148.713 62.9155 152.824 64.8759 152.608 61.6085ZM137.676 65.7472C135.079 68.5789 130.751 69.0146 127.721 66.4007C124.908 63.7868 124.475 59.4303 127.072 56.3807C129.669 53.549 133.997 53.1133 137.027 55.7272C139.84 58.3411 140.273 62.6977 137.676 65.7472Z" fill="url(#paint1_linear_3840_744)"/>
</g>
<path d="M46.6556 78.987C44.5423 80.0265 43.6637 82.5843 44.6929 84.7001C45.7222 86.8159 48.2697 87.6884 50.3829 86.649C52.4961 85.6096 53.3748 83.0518 52.3455 80.936C51.3163 78.8202 48.7688 77.9476 46.6556 78.987Z" fill="#EDE5D9"/>
<path d="M129.376 141.046C127.83 141.093 126.611 142.388 126.653 143.938C126.695 145.488 127.982 146.706 129.528 146.659C131.073 146.612 132.292 145.317 132.251 143.767C132.209 142.217 130.922 140.998 129.376 141.046Z" fill="#EAEEF9"/>
<path d="M120.927 148.125C119.876 148.157 119.047 149.037 119.075 150.092C119.104 151.146 119.979 151.974 121.03 151.942C122.081 151.91 122.91 151.029 122.882 149.975C122.853 148.921 121.978 148.093 120.927 148.125Z" fill="#EAEEF9"/>
<path d="M40.9943 97.1165C40.1045 97.5542 39.7346 98.6311 40.1679 99.522C40.6013 100.413 41.674 100.78 42.5637 100.343C43.4535 99.905 43.8235 98.828 43.3901 97.9371C42.9567 97.0463 41.8841 96.6789 40.9943 97.1165Z" fill="#EDE5D9"/>
<path d="M76.9345 135.024C76.3225 135.325 76.068 136.066 76.3661 136.679C76.6642 137.292 77.402 137.544 78.014 137.243C78.626 136.942 78.8804 136.202 78.5823 135.589C78.2843 134.976 77.5465 134.723 76.9345 135.024Z" fill="#EAEEF9"/>
<path opacity="0.2" d="M120.934 22.5031L107.949 36.1236C103.916 40.2992 97.4734 40.7864 93.455 37.1286C89.4366 33.4708 89.373 27.2072 93.4055 23.0315L106.391 9.41103C110.423 5.23538 116.866 4.74816 120.884 8.40596C124.943 11.9528 124.966 18.3274 120.934 22.5031Z" fill="url(#paint2_linear_3840_744)"/>
<path d="M117.82 20.9183C120.365 18.185 120.259 13.9697 117.584 11.5032C114.908 9.03666 110.676 9.25295 108.131 11.9863C105.586 14.7196 105.692 18.9349 108.367 21.4014C111.043 23.868 115.275 23.6517 117.82 20.9183Z" fill="white"/>
<path opacity="0.2" d="M78.7751 39.9594L75.1482 43.3612C74.7167 43.7564 74.0425 43.8932 73.4627 43.7034L69.1527 42.3642C68.5729 42.1744 68.0873 41.6579 68.0225 41.0764L66.9916 36.7341C66.8432 36.1491 67.0319 35.4957 67.4633 35.1006L71.0902 31.6988C71.3491 31.4617 71.3652 30.9664 71.1225 30.7081C71.0415 30.622 70.877 30.5324 70.7098 30.5254C67.4599 30.0575 64.2453 31.0793 61.9154 33.213C58.9789 35.9826 57.8387 40.1506 58.9693 44.0012L34.5463 66.4489C32.4727 68.4281 32.2844 71.6443 34.3074 73.7965C36.2495 75.8625 39.5102 76.0001 41.4975 74.0999L66.1793 51.4151C69.8258 52.561 73.7902 51.6536 76.5542 49.0421C78.9703 46.8293 80.1619 43.6555 79.9295 40.5042C79.9429 40.0914 79.5329 39.8261 79.1985 39.812C79.0313 39.8049 78.945 39.8839 78.7751 39.9594ZM37.2467 70.9444C36.5184 70.1696 36.5586 68.9313 37.3352 68.22C38.1119 67.5087 39.2823 67.5581 40.0106 68.3329C40.7389 69.1077 40.6987 70.346 39.922 71.0573C39.1454 71.7685 37.9749 71.7191 37.2467 70.9444C37.244 71.0269 37.244 71.0269 37.2467 70.9444Z" fill="url(#paint3_linear_3840_744)"/>
<path opacity="0.4" d="M58.8363 48.6163L40.803 64.933" stroke="#BCB9B3" stroke-miterlimit="10"/>
<path opacity="0.4" d="M61.7236 51.6326L43.6072 67.9445" stroke="#BCB9B3" stroke-miterlimit="10"/>
<path opacity="0.2" d="M180.157 42.8558C179.779 42.6147 179.21 42.6254 178.673 42.8423C177.74 43.4598 176.556 43.1717 175.973 42.3345C175.69 41.9675 175.612 41.4518 175.77 40.9937C175.929 40.5356 175.74 40.0426 175.251 39.8243L174.241 39.1813L172.627 41.3216L153.443 29.1044C153.191 28.9436 153.034 28.657 153.002 28.4507L152.924 27.935C152.862 27.5224 152.594 27.2585 152.231 27.1205L147.275 25.2691L144.711 28.6685L148.338 32.2826C148.606 32.5465 148.969 32.6845 149.411 32.5934L149.964 32.4796C150.296 32.4113 150.532 32.4689 150.785 32.6297L169.969 44.8469L168.354 46.9873L169.364 47.6303C169.743 47.8714 170.311 47.8608 170.738 47.6666C171.671 47.0491 172.854 47.3372 173.437 48.1744C173.721 48.5414 173.799 49.0572 173.641 49.5152C173.482 49.9733 173.781 50.4435 174.16 50.6846L187.917 59.4457C190.062 60.8121 193.269 60.1519 194.883 58.0116C194.883 58.0116 194.978 57.8857 194.962 57.7825C196.45 55.5618 195.918 52.7998 193.772 51.4334L180.157 42.8558Z" fill="url(#paint4_linear_3840_744)"/>
<path opacity="0.4" d="M177.029 49.1892L187.378 56.0425" stroke="#D6DCE8" stroke-miterlimit="10"/>
<path opacity="0.4" d="M178.795 46.6713L189.145 53.5245" stroke="#D6DCE8" stroke-miterlimit="10"/>
<g filter="url(#filter2_d_3840_744)">
<path d="M168.424 80.2349L144.165 95.2514C142.846 96.0676 142.446 97.7727 143.264 99.088L158.317 123.29C159.135 124.605 160.844 125.004 162.162 124.188L186.422 109.172C187.74 108.356 188.141 106.65 187.323 105.335L172.27 81.1334C171.452 79.8181 169.743 79.4188 168.424 80.2349Z" fill="#EDE5DA"/>
</g>
<path d="M170.194 89.979L162.876 94.5085C161.581 93.3065 159.724 92.8164 158.028 93.3195C155.419 94.115 153.97 96.9243 154.834 99.4868L152.526 100.915C151.933 101.282 151.733 102.135 152.101 102.727C152.51 103.384 153.365 103.584 153.958 103.217L156.265 101.789C157.479 102.859 159.147 103.193 160.645 102.812C163.271 102.189 164.867 99.4702 164.242 96.8511L171.625 92.2808C172.219 91.9135 172.419 91.061 172.051 90.4691C171.708 89.7706 170.853 89.5709 170.194 89.979ZM161.705 98.057C161.737 98.4017 161.662 98.7214 161.48 99.0161C161.389 99.1635 161.364 99.2701 161.232 99.3517C161.075 99.5399 160.984 99.6873 160.787 99.8097C159.773 100.528 158.425 100.27 157.704 99.2582C157.664 99.1924 157.664 99.1924 157.623 99.1267C156.968 98.0744 157.334 96.7548 158.323 96.1427C159.312 95.5306 160.594 95.8301 161.273 96.7758C161.519 97.1704 161.698 97.6058 161.705 98.057ZM177.434 101.62L175.192 103.007C173.897 101.805 172.04 101.315 170.344 101.818C167.735 102.613 166.352 105.382 167.15 107.985L159.766 112.555C159.107 112.964 158.907 113.816 159.316 114.474C159.725 115.131 160.58 115.331 161.239 114.923L168.622 110.353C169.836 111.423 171.438 111.798 173.002 111.376C175.627 110.753 177.224 108.034 176.599 105.415L178.906 103.987C179.565 103.579 179.766 102.726 179.357 102.069C178.947 101.411 178.093 101.211 177.434 101.62ZM173.646 105.512C173.973 106.038 173.955 106.596 173.83 107.129C173.805 107.236 173.714 107.383 173.689 107.49C173.598 107.637 173.573 107.744 173.482 107.891C173.391 108.038 173.325 108.079 173.234 108.227C173.168 108.267 173.103 108.308 173.037 108.349C172.971 108.39 172.905 108.431 172.839 108.471C172.707 108.553 172.575 108.635 172.402 108.65C172.337 108.691 172.271 108.732 172.164 108.707C171.316 108.959 170.273 108.602 169.741 107.748C169.25 106.958 169.302 106.015 169.798 105.344C169.955 105.156 170.046 105.008 170.244 104.886C170.31 104.845 170.376 104.804 170.441 104.764C171.496 104.111 172.819 104.476 173.433 105.462C173.671 105.406 173.712 105.472 173.646 105.512Z" fill="white"/>
<defs>
<filter id="filter0_d_3840_744" x="47.1265" y="58.8157" width="96.675" height="95.5569" filterUnits="userSpaceOnUse" color-interpolation-filters="sRGB">
<feFlood flood-opacity="0" result="BackgroundImageFix"/>
<feColorMatrix in="SourceAlpha" type="matrix" values="0 0 0 0 0 0 0 0 0 0 0 0 0 0 0 0 0 0 127 0" result="hardAlpha"/>
<feOffset dy="7"/>
<feGaussianBlur stdDeviation="6"/>
<feColorMatrix type="matrix" values="0 0 0 0 0.576471 0 0 0 0 0.501961 0 0 0 0 0.396078 0 0 0 0.37 0"/>
<feBlend mode="normal" in2="BackgroundImageFix" result="effect1_dropShadow_3840_744"/>
<feBlend mode="normal" in="SourceGraphic" in2="effect1_dropShadow_3840_744" result="shape"/>
</filter>
<filter id="filter1_d_3840_744" x="90.6519" y="25.5587" width="83.9641" height="84.6992" filterUnits="userSpaceOnUse" color-interpolation-filters="sRGB">
<feFlood flood-opacity="0" result="BackgroundImageFix"/>
<feColorMatrix in="SourceAlpha" type="matrix" values="0 0 0 0 0 0 0 0 0 0 0 0 0 0 0 0 0 0 127 0" result="hardAlpha"/>
<feOffset dy="7"/>
<feGaussianBlur stdDeviation="11"/>
<feColorMatrix type="matrix" values="0 0 0 0 0.576471 0 0 0 0 0.501961 0 0 0 0 0.396078 0 0 0 0.37 0"/>
<feBlend mode="normal" in2="BackgroundImageFix" result="effect1_dropShadow_3840_744"/>
<feBlend mode="normal" in="SourceGraphic" in2="effect1_dropShadow_3840_744" result="shape"/>
</filter>
<filter id="filter2_d_3840_744" x="120.84" y="68.8118" width="88.907" height="88.7996" filterUnits="userSpaceOnUse" color-interpolation-filters="sRGB">
<feFlood flood-opacity="0" result="BackgroundImageFix"/>
<feColorMatrix in="SourceAlpha" type="matrix" values="0 0 0 0 0 0 0 0 0 0 0 0 0 0 0 0 0 0 127 0" result="hardAlpha"/>
<feOffset dy="11"/>
<feGaussianBlur stdDeviation="11"/>
<feColorMatrix type="matrix" values="0 0 0 0 0.397708 0 0 0 0 0.47749 0 0 0 0 0.575 0 0 0 0.27 0"/>
<feBlend mode="normal" in2="BackgroundImageFix" result="effect1_dropShadow_3840_744"/>
<feBlend mode="normal" in="SourceGraphic" in2="effect1_dropShadow_3840_744" result="shape"/>
</filter>
<linearGradient id="paint0_linear_3840_744" x1="95.2645" y1="62.1555" x2="95.2645" y2="136.363" gradientUnits="userSpaceOnUse">
<stop stop-color="#FDFEFF"/>
<stop offset="0.9964" stop-color="#F5F2EC"/>
</linearGradient>
<linearGradient id="paint1_linear_3840_744" x1="132.621" y1="39.6173" x2="132.621" y2="81.6967" gradientUnits="userSpaceOnUse">
<stop stop-color="#FDFEFF"/>
<stop offset="0.9964" stop-color="#F5F2EC"/>
</linearGradient>
<linearGradient id="paint2_linear_3840_744" x1="112.295" y1="29.5767" x2="104.522" y2="14.2804" gradientUnits="userSpaceOnUse">
<stop offset="0.00289017" stop-color="#877357"/>
<stop offset="1" stop-color="#938065"/>
</linearGradient>
<linearGradient id="paint3_linear_3840_744" x1="71.7151" y1="51.8481" x2="40.8314" y2="50.3176" gradientUnits="userSpaceOnUse">
<stop offset="0.00289017" stop-color="#938065"/>
<stop offset="1" stop-color="#938065"/>
</linearGradient>
<linearGradient id="paint4_linear_3840_744" x1="174.306" y1="56.0822" x2="168.934" y2="27.7344" gradientUnits="userSpaceOnUse">
<stop offset="0.00289017" stop-color="#938065"/>
<stop offset="1" stop-color="#938065"/>
</linearGradient>
</defs>
</svg>
