<svg xmlns="http://www.w3.org/2000/svg" width="231" height="169" fill="none" viewBox="0 0 231 169">
  <path fill="#242424" d="M114.668 135.883c30.727 0 55.636-25.065 55.636-55.9851 0-30.9198-24.909-55.9853-55.636-55.9853-30.7264 0-55.6353 25.0655-55.6353 55.9853 0 30.9201 24.9089 55.9851 55.6353 55.9851Z"/>
  <path fill="#2A2E37" d="M134.525 19.7614c.502-.4618.537-1.246.078-1.7514-.459-.5054-1.238-.5407-1.74-.0788-.502.4618-.537 1.246-.078 1.7514.459.5054 1.238.5407 1.74.0788Z"/>
  <g filter="url(#filter0_d_3840_762)">
    <path fill="#3A3A3A" fill-rule="evenodd" d="M108.93 135.318c1.716.177 3.137-1.299 4.36-2.516.827-.822 1.654-1.644 2.481-2.741 1.961-2.194 4.141-1.569 6.733-.825.321.092.649.186.984.277 3.872.906 5.109-2.307 6.978-7.164.392-1.02.812-2.111 1.29-3.252 1.674-3.33-.802-4.802-3.467-6.387-.406-.242-.817-.486-1.218-.74-2.351-1.403-2.296-3.603-2.229-6.262.012-.458.024-.929.024-1.413-.258-2.82 1.836-4.082 3.856-5.2988 2.298-1.3848 4.501-2.712 3.034-6.2135-.359-.8575-.69-1.6824-1.005-2.4662-2.099-5.2294-3.464-8.6293-7.539-7.6758-.36.0978-.713.1994-1.058.2989-2.559.7376-4.716 1.3592-6.659-.573-.539-.6028-1.094-1.1239-1.618-1.615-1.618-1.5188-2.933-2.7522-2.516-5.2377 1.713-7.3017 1.253-7.4716-6.397-10.2965-.965-.3565-2.045-.7553-3.25-1.216-3.5184-1.3124-4.7753.866-6.0938 3.1513-1.1601 2.0105-2.3679 4.1038-5.2057 3.9755-.6451 0-1.2691.0313-1.8681.0613-2.4724.1239-4.5179.2264-5.849-1.98-3.9353-6.3599-4.3587-6.1712-12.0431-2.7453-.9266.4131-1.9588.8733-3.1155 1.3747-3.7863 1.6139-2.7956 4.8114-1.7155 8.2975l.0619.1998c.6542 2.6028-.7623 4.0042-2.4746 5.6981-.4516.4467-.9238.9139-1.384 1.4287-1.1594 1.3178-2.6302 2.8287-2.3706 4.5647 3.748 25.0633 24.0067 44.6843 49.274 47.2903ZM83.2486 121.29c7.9927 3.015 17.0874-.822 20.1194-8.772 3.032-7.949-.827-16.9942-8.8194-20.0094-7.9927-3.0152-17.0878.8223-20.1195 8.7714-3.0317 7.949.8268 16.995 8.8195 20.01Z" clip-rule="evenodd"/>
  </g>
  <g filter="url(#filter1_d_3840_762)">
    <path fill="#3A3A3A" d="M153.107 61.3929c-.216-3.2752.216-5.4586-1.948-5.677-1.514-.2183-2.596 0-3.246-1.31-.649-1.3101-1.515-2.4018-.649-3.4936 2.164-3.2752 1.515-3.0568-2.164-6.5503-2.38-2.1835-3.462 2.4018-5.843 1.31-1.298-.655-2.597-.655-3.029-2.1834-.866-3.7119-.866-3.2752-6.06-3.0568-1.947 0-1.947 1.7467-1.947 3.4935-.217 1.5284-1.299 1.7467-2.813 2.4018-2.381 1.31-3.896-3.0569-6.06-.6551-.948.9573-1.731 1.9145-2.493 3.0189-.216.3132-.414.6515-.462 1.0289-.163 1.2746 1.044 1.7795 1.815 3.0575.039.0649.058.0568.058.1325 0 .0676.018.2169.041.2805.146.4052-.041.8104-.041 1.2156 0 .5965-.318 1.1621-.514 1.7254-.236.6754-.497 1.1739-1.433 1.3314-3.679.655-3.246.8734-3.03 6.1137.216 3.2751 4.112.8733 5.194 3.2751.352.7108.991 1.7108.983 2.5293-.003.3624-.148.7132-.317 1.0333-.237.4467-.594.8531-.846 1.2943-.217.3772-.392.7865-.501 1.2073-.415 1.6019 1.323 2.6391 3.061 4.1981 2.381 2.1834 3.463-2.4018 5.843-1.3101 2.813 1.0917 2.597.4367 3.246 3.7119.433 2.1834 3.03 1.5284 5.843 1.31 3.246-.2183.865-4.1485 3.246-5.2403.433-.2183 1.082-.4366 1.515-.655 1.298-.655 2.164.2184 3.462.8734 1.948 1.3101 3.03-.655 5.194-3.2752 1.298-1.5284 0-2.6201-1.082-3.9302-.866-1.0917-.217-2.1835.216-3.7119.866-2.1834 4.977-.2183 4.761-3.4935Zm-14.932 4.1486c-2.597 2.8384-6.925 3.2751-9.954.655-2.813-2.6201-3.246-6.9871-.649-10.0439 2.596-2.8385 6.924-3.2752 9.954-.655 2.813 2.6201 3.246 6.987.649 10.0439Z"/>
  </g>
  <path fill="#5C5C5C" d="M47.1554 78.8127c-2.1132 1.0419-2.9919 3.6058-1.9626 5.7267 1.0293 2.1208 3.5767 2.9955 5.6899 1.9536 2.1132-1.0419 2.9919-3.6058 1.9626-5.7267-1.0293-2.1208-3.5767-2.9955-5.6899-1.9536ZM129.875 141.019c-1.546.048-2.765 1.346-2.723 2.899.042 1.554 1.329 2.775 2.875 2.728 1.546-.047 2.765-1.345 2.723-2.899-.042-1.554-1.329-2.775-2.875-2.728ZM121.426 148.116c-1.051.032-1.88.914-1.852 1.971.029 1.057.904 1.887 1.955 1.855 1.051-.032 1.88-.915 1.852-1.972-.029-1.056-.904-1.887-1.955-1.854ZM41.4943 96.9856c-.8897.4387-1.2597 1.5182-.8263 2.4112.4334.8932 1.506 1.2612 2.3957.8222.8898-.4383 1.2598-1.5179.8264-2.4108-.4334-.893-1.506-1.2613-2.3958-.8226ZM77.434 134.984c-.612.302-.8664 1.044-.5683 1.658.298.615 1.0358.868 1.6478.566.612-.302.8664-1.044.5684-1.658-.2981-.614-1.0359-.868-1.6479-.566Z"/>
  <path fill="url(#paint0_linear_3840_762)" d="m121.864 21.5025-12.37 13.1883c-3.841 4.0432-9.9781 4.5154-13.8064.9742-3.8282-3.5412-3.8891-9.6057-.0479-13.6489L108.009 8.8278c3.841-4.0432 9.979-4.5154 13.807-.9741 3.867 3.4337 3.889 9.6056.048 13.6488Z"/>
  <path fill="#323232" d="M119.186 19.9721c2.351-2.5663 2.156-6.6154-.436-9.044-2.592-2.4285-6.599-2.3168-8.95.2495-2.351 2.5663-2.156 6.6155.436 9.044 2.592 2.4286 6.599 2.3169 8.95-.2495Z"/>
  <g filter="url(#filter2_d_3840_762)">
    <path fill="#4D4D4D" d="m79.2747 39.692-3.6268 3.4099c-.4315.3961-1.1057.5333-1.6856.343l-4.3099-1.3424c-.5798-.1903-1.0654-.7081-1.1302-1.2909l-1.0308-4.3527c-.1485-.5863.0402-1.2413.4717-1.6374l3.6268-3.4099c.2589-.2376.275-.7341.0323-.993-.081-.0863-.2455-.1761-.4127-.1832-3.2499-.469-6.4645.5552-8.7943 2.6941-2.9365 2.7761-4.0767 6.9541-2.9461 10.8139L35.0463 66.2446c-2.0736 1.984-2.2619 5.2079-.2389 7.3651 1.9421 2.071 5.2027 2.2089 7.19.3042L66.6791 51.175c3.6464 1.1486 7.6107.239 10.3747-2.3787 2.4161-2.218 3.6077-5.3995 3.3753-8.5583.0134-.4137-.3966-.6797-.731-.6938-.1672-.0071-.2535.0721-.4234.1478ZM37.7466 70.7508c-.7283-.7766-.688-2.0179.0886-2.7309.7766-.7129 1.9471-.6634 2.6754.1132.7283.7766.688 2.0179-.0886 2.7309-.7766.713-1.9471.6634-2.6754-.1132-.0027.0828-.0027.0828 0 0Z"/>
  </g>
  <path stroke="#2A2E37" stroke-miterlimit="10" d="M59.3359 48.3698 41.3027 64.7253M62.2232 51.3937 44.1069 67.7444" opacity=".4"/>
  <path fill="#4D4D4D" d="M180.657 42.5938c-.379-.2417-.948-.231-1.485-.0135-.933.619-2.116.3303-2.699-.5089-.284-.3679-.362-.8848-.204-1.344.159-.4592-.03-.9533-.519-1.1722l-1.01-.6445-1.614 2.1455-19.183-12.2456c-.253-.1612-.41-.4485-.442-.6553l-.078-.5169c-.062-.4135-.33-.6781-.693-.8164l-4.956-1.8557-2.564 3.4076 3.627 3.6227c.268.2645.631.4028 1.073.3115l.553-.1141c.332-.0685.569-.0107.821.1504l19.184 12.2457-1.614 2.1455 1.009.6445c.379.2417.948.231 1.374.0363.933-.6189 2.117-.3302 2.7.5089.284.3679.362.8849.203 1.3441-.159.4591.141.9304.519 1.1721l13.757 8.7815c2.146 1.3695 5.352.7077 6.966-1.4378 0 0 .095-.1263.08-.2296 1.488-2.2261.955-4.9947-1.191-6.3643l-13.614-8.5975Z"/>
  <path stroke="#2A2E37" stroke-miterlimit="10" d="m177.527 48.9438 10.35 6.8697M179.294 46.4196l10.349 6.8695" opacity=".4"/>
  <path fill="url(#paint1_linear_3840_762)" d="m168.923 80.0637-24.259 15.0524c-1.319.8181-1.719 2.5273-.901 3.8457l15.052 24.2592c.819 1.319 2.528 1.719 3.846.901l24.26-15.052a2.782 2.782 0 0 0 .9-3.846l-15.052-24.2596c-.818-1.3185-2.527-1.7188-3.846-.9007Z"/>
  <path fill="#323232" d="m170.692 89.8308-7.317 4.5402c-1.295-1.2048-3.152-1.6961-4.848-1.1918-2.61.7975-4.058 3.6134-3.195 6.182l-2.307 1.4318c-.593.368-.793 1.223-.425 1.816.409.659 1.263.859 1.857.491l2.307-1.431c1.214 1.073 2.882 1.407 4.38 1.025 2.625-.624 4.221-3.3494 3.597-5.9748l7.383-4.5811c.593-.3682.793-1.2228.425-1.8161-.343-.7001-1.197-.9003-1.857-.4912Zm-8.488 8.0973c.032.3454-.044.6659-.225.9614-.091.1477-.116.2545-.248.3363-.157.1887-.248.3364-.446.4591-1.014.7201-2.361.4611-3.082-.5528l-.082-.1318c-.654-1.0548-.288-2.3776.701-2.9912.989-.6135 2.271-.3133 2.95.6347.246.3955.425.8319.432 1.2843Zm15.728 3.5709-2.241 1.391c-1.296-1.205-3.153-1.696-4.848-1.192-2.61.797-3.992 3.572-3.195 6.182l-7.383 4.581a1.391 1.391 0 0 0-.45 1.923c.409.659 1.263.859 1.922.45l7.384-4.581c1.213 1.073 2.816 1.448 4.38 1.026 2.625-.625 4.221-3.35 3.596-5.975l2.308-1.432c.659-.409.859-1.263.45-1.923a1.391 1.391 0 0 0-1.923-.45Zm-3.787 3.902c.327.528.309 1.087.184 1.621-.025.107-.116.254-.141.361-.091.148-.116.255-.207.402-.091.148-.157.189-.248.337l-.198.123c-.066.04-.132.081-.198.122-.131.082-.263.164-.436.18-.066.041-.132.082-.239.057-.848.252-1.891-.105-2.423-.962-.49-.791-.438-1.737.058-2.41.157-.188.248-.336.445-.459.066-.041.132-.082.198-.122 1.055-.655 2.378-.289 2.991.7.239-.057.28.009.214.05Z"/>
  <defs>
    <filter id="filter0_d_3840_762" width="116.675" height="115.727" x="37.626" y="52.6051" color-interpolation-filters="sRGB" filterUnits="userSpaceOnUse">
      <feFlood flood-opacity="0" result="BackgroundImageFix"/>
      <feColorMatrix in="SourceAlpha" result="hardAlpha" values="0 0 0 0 0 0 0 0 0 0 0 0 0 0 0 0 0 0 127 0"/>
      <feOffset dy="11"/>
      <feGaussianBlur stdDeviation="11"/>
      <feColorMatrix values="0 0 0 0 0 0 0 0 0 0 0 0 0 0 0 0 0 0 0.27 0"/>
      <feBlend in2="BackgroundImageFix" result="effect1_dropShadow_3840_762"/>
      <feBlend in="SourceGraphic" in2="effect1_dropShadow_3840_762" result="shape"/>
    </filter>
    <filter id="filter1_d_3840_762" width="83.9639" height="84.7964" x="91.1514" y="29.2928" color-interpolation-filters="sRGB" filterUnits="userSpaceOnUse">
      <feFlood flood-opacity="0" result="BackgroundImageFix"/>
      <feColorMatrix in="SourceAlpha" result="hardAlpha" values="0 0 0 0 0 0 0 0 0 0 0 0 0 0 0 0 0 0 127 0"/>
      <feOffset dy="11"/>
      <feGaussianBlur stdDeviation="11"/>
      <feColorMatrix values="0 0 0 0 0 0 0 0 0 0 0 0 0 0 0 0 0 0 0.27 0"/>
      <feBlend in2="BackgroundImageFix" result="effect1_dropShadow_3840_762"/>
      <feBlend in="SourceGraphic" in2="effect1_dropShadow_3840_762" result="shape"/>
    </filter>
    <filter id="filter2_d_3840_762" width="91.0713" height="89.1339" x="11.3865" y="19.1234" color-interpolation-filters="sRGB" filterUnits="userSpaceOnUse">
      <feFlood flood-opacity="0" result="BackgroundImageFix"/>
      <feColorMatrix in="SourceAlpha" result="hardAlpha" values="0 0 0 0 0 0 0 0 0 0 0 0 0 0 0 0 0 0 127 0"/>
      <feOffset dy="11"/>
      <feGaussianBlur stdDeviation="11"/>
      <feColorMatrix values="0 0 0 0 0 0 0 0 0 0 0 0 0 0 0 0 0 0 0.27 0"/>
      <feBlend in2="BackgroundImageFix" result="effect1_dropShadow_3840_762"/>
      <feBlend in="SourceGraphic" in2="effect1_dropShadow_3840_762" result="shape"/>
    </filter>
    <linearGradient id="paint0_linear_3840_762" x1="103.07" x2="115.039" y1="10.1565" y2="32.6954" gradientUnits="userSpaceOnUse">
      <stop stop-color="#5C5C5C"/>
      <stop offset=".9964" stop-color="#4D4D4D"/>
    </linearGradient>
    <linearGradient id="paint1_linear_3840_762" x1="156.368" x2="174.975" y1="86.9248" y2="116.914" gradientUnits="userSpaceOnUse">
      <stop stop-color="#5C5C5C"/>
      <stop offset=".9964" stop-color="#4D4D4D"/>
    </linearGradient>
  </defs>
</svg>
