<svg xmlns="http://www.w3.org/2000/svg" width="231" height="160" fill="none" viewBox="0 0 231 160">
  <path fill="#F0F0F0" d="M114.169 135.922c30.727 0 55.636-25.006 55.636-55.8524 0-30.8463-24.909-55.8521-55.636-55.8521-30.7272 0-55.6363 25.0058-55.6363 55.8521 0 30.8464 24.9091 55.8524 55.6363 55.8524Z"/>
  <path fill="#EDE5D9" d="M134.026 20.0761c.502-.4608.537-1.2431.078-1.7473s-1.238-.5394-1.74-.0786-.538 1.243-.079 1.7472 1.239.5394 1.741.0787Z"/>
  <g filter="url(#filter0_d_3840_744)">
    <path fill="url(#paint0_linear_3840_744)" fill-rule="evenodd" d="M108.437 135.358c1.712.176 3.131-1.297 4.354-2.51.826-.82 1.653-1.641 2.48-2.734 1.962-2.19 4.141-1.566 6.733-.824.322.092.65.186.984.277 3.873.904 5.11-2.302 6.979-7.148.392-1.016.812-2.105 1.29-3.244 1.674-3.321-.802-4.79-3.468-6.371-.406-.241-.817-.485-1.218-.738-2.351-1.4-2.295-3.595-2.228-6.247.011-.457.023-.928.023-1.41-.258-2.814 1.836-4.072 3.856-5.2865 2.299-1.3815 4.502-2.7055 3.035-6.1987-.36-.8555-.691-1.6784-1.005-2.4603-2.1-5.217-3.465-8.6088-7.539-7.6575-.361.0975-.713.1988-1.059.2981-2.559.7359-4.716 1.356-6.659-.5716-.538-.6014-1.094-1.1212-1.617-1.6112-1.619-1.5151-2.933-2.7456-2.517-5.2252 1.713-7.2843 1.253-7.4538-6.396-10.272-.966-.3556-2.046-.7534-3.25-1.2131-3.519-1.3092-4.7759.864-6.0945 3.1438-1.1601 2.0058-2.3679 4.094-5.2058 3.9661-.645 0-1.269.0312-1.868.0611-2.4724.1236-4.518.2259-5.8491-1.9753-3.9353-6.3448-4.3588-6.1564-12.0432-2.7387-.9267.4121-1.9588.8712-3.1155 1.3714-3.7863 1.61-2.7957 4.7999-1.7156 8.2777l.0619.1994c.6543 2.5966-.7623 3.9946-2.4745 5.6844-.4517.4458-.9239.9118-1.3841 1.4254-1.1601 1.3155-2.6299 2.8248-2.3697 4.5594 3.7505 25.0023 24.011 44.5753 49.2801 47.1723Zm-25.6882-13.995c7.9928 3.008 17.088-.82 20.1202-8.75 3.031-7.931-.827-16.9547-8.8201-19.9627-7.9927-3.008-17.088.8204-20.1197 8.7507-3.0317 7.93.8269 16.954 8.8196 19.962Z" clip-rule="evenodd"/>
  </g>
  <g filter="url(#filter1_d_3840_744)">
    <path fill="url(#paint1_linear_3840_744)" d="M152.608 61.6085c-.217-3.2674.216-5.4456-1.948-5.6634-1.515-.2179-2.597 0-3.246-1.307-.649-1.3069-1.515-2.3961-.649-3.4852 2.164-3.2674 1.515-3.0495-2.164-6.5348-2.381-2.1782-3.463 2.3961-5.843 1.307-1.298-.6535-2.597-.6535-3.03-2.1783-.865-3.703-.865-3.2673-6.059-3.0495-1.948 0-1.948 1.7426-1.948 3.4852-.216 1.5248-1.298 1.7426-2.813 2.3961-2.38 1.3069-3.895-3.0496-6.059-.6535-.948.9545-1.731 1.9091-2.492 3.0103-.217.3133-.416.6519-.464 1.0299-.161 1.2701 1.045 1.7739 1.815 3.0482.039.0647.059.0566.059.1322 0 .0674.017.2163.04.2797.146.4043-.04.8085-.04 1.2127 0 .5952-.319 1.1594-.515 1.7213-.235.6738-.496 1.1711-1.433 1.3283-3.679.6534-3.246.8713-3.029 6.0991.216 3.2674 4.111.8713 5.193 3.2674.352.7084.99 1.7049.984 2.521-.003.363-.148.7145-.319 1.0349-.236.4442-.591.8485-.844 1.2872-.217.3775-.393.7874-.502 1.209-.413 1.5967 1.324 2.6312 3.062 4.1857 2.38 2.1782 3.462-2.3961 5.843-1.307 2.813 1.0891 2.596.4357 3.246 3.703.432 2.1783 3.029 1.5248 5.842 1.307 3.247-.2178.866-4.1387 3.247-5.2278.432-.2178 1.082-.4357 1.514-.6535 1.299-.6535 2.164.2178 3.463.8713 1.947 1.307 3.029-.6535 5.194-3.2674 1.298-1.5248 0-2.6139-1.082-3.9208-.866-1.0892-.217-2.1783.216-3.7031.866-2.1782 4.977-.2178 4.761-3.4852Zm-14.932 4.1387c-2.597 2.8317-6.925 3.2674-9.955.6535-2.813-2.6139-3.246-6.9704-.649-10.02 2.597-2.8317 6.925-3.2674 9.955-.6535 2.813 2.6139 3.246 6.9705.649 10.02Z"/>
  </g>
  <path fill="#EDE5D9" d="M46.6556 78.987c-2.1133 1.0395-2.9919 3.5973-1.9627 5.7131 1.0293 2.1158 3.5768 2.9883 5.69 1.9489 2.1132-1.0394 2.9919-3.5972 1.9626-5.713-1.0292-2.1158-3.5767-2.9884-5.6899-1.949Z"/>
  <path fill="#EAEEF9" d="M129.376 141.046c-1.546.047-2.765 1.342-2.723 2.892.042 1.55 1.329 2.768 2.875 2.721 1.545-.047 2.764-1.342 2.723-2.892-.042-1.55-1.329-2.769-2.875-2.721ZM120.927 148.125c-1.051.032-1.88.912-1.852 1.967.029 1.054.904 1.882 1.955 1.85 1.051-.032 1.88-.913 1.852-1.967-.029-1.054-.904-1.882-1.955-1.85Z"/>
  <path fill="#EDE5D9" d="M40.9943 97.1165c-.8898.4377-1.2597 1.5146-.8264 2.4055.4334.891 1.5061 1.258 2.3958.821.8898-.438 1.2598-1.515.8264-2.4059-.4334-.8908-1.506-1.2582-2.3958-.8206Z"/>
  <path fill="#EAEEF9" d="M76.9345 135.024c-.612.301-.8665 1.042-.5684 1.655.2981.613 1.0359.865 1.6479.564.612-.301.8664-1.041.5683-1.654-.298-.613-1.0358-.866-1.6478-.565Z"/>
  <path fill="url(#paint2_linear_3840_744)" d="m120.934 22.5031-12.985 13.6205c-4.033 4.1756-10.4756 4.6628-14.494 1.005s-4.082-9.9214-.0495-14.0971L106.391 9.411c4.032-4.1756 10.475-4.6628 14.493-1.005 4.059 3.5468 4.082 9.9214.05 14.0971Z" opacity=".2"/>
  <path fill="#fff" d="M117.82 20.9183c2.545-2.7333 2.439-6.9486-.236-9.4151-2.676-2.4665-6.908-2.2502-9.453.4831-2.545 2.7333-2.439 6.9486.236 9.4151 2.676 2.4666 6.908 2.2503 9.453-.4831Z"/>
  <path fill="url(#paint3_linear_3840_744)" d="m78.7751 39.9594-3.6269 3.4018c-.4315.3952-1.1057.532-1.6855.3422l-4.31-1.3392c-.5798-.1898-1.0654-.7063-1.1302-1.2878l-1.0309-4.3423c-.1484-.585.0403-1.2384.4717-1.6335l3.6269-3.4018c.2589-.2371.275-.7324.0323-.9907-.081-.0861-.2455-.1757-.4127-.1827-3.2499-.4679-6.4645.5539-8.7944 2.6876-2.9365 2.7696-4.0767 6.9376-2.9461 10.7882l-24.423 22.4477c-2.0736 1.9792-2.2619 5.1954-.2389 7.3476 1.9421 2.066 5.2028 2.2036 7.1901.3034l24.6818-22.6848c3.6465 1.1459 7.6109.2385 10.3749-2.373 2.4161-2.2128 3.6077-5.3866 3.3753-8.5379.0134-.4128-.3966-.6781-.731-.6922-.1672-.0071-.2535.0719-.4234.1474Zm-41.5284 30.985c-.7283-.7748-.6881-2.0131.0885-2.7244.7767-.7113 1.9471-.6619 2.6754.1129.7283.7748.6881 2.0131-.0886 2.7244-.7766.7112-1.9471.6618-2.6753-.1129-.0027.0825-.0027.0825 0 0Z" opacity=".2"/>
  <path stroke="#BCB9B3" stroke-miterlimit="10" d="M58.8363 48.6163 40.803 64.933M61.7236 51.6326 43.6072 67.9445" opacity=".4"/>
  <path fill="url(#paint4_linear_3840_744)" d="M180.157 42.8558c-.378-.2411-.947-.2304-1.484-.0135-.933.6175-2.117.3294-2.7-.5078-.283-.367-.361-.8827-.203-1.3408.159-.4581-.03-.9511-.519-1.1694l-1.01-.643-1.614 2.1403-19.184-12.2172c-.252-.1608-.409-.4474-.441-.6537l-.078-.5157c-.062-.4126-.33-.6765-.693-.8145l-4.956-1.8514-2.564 3.3994 3.627 3.6141c.268.2639.631.4019 1.073.3108l.553-.1138c.332-.0683.568-.0107.821.1501l19.184 12.2172-1.615 2.1404 1.01.643c.379.2411.947.2305 1.374.0363.933-.6175 2.116-.3294 2.699.5078.284.367.362.8828.204 1.3408-.159.4581.14.9283.519 1.1694l13.757 8.7611c2.145 1.3664 5.352.7062 6.966-1.4341 0 0 .095-.1259.079-.2291 1.488-2.2207.956-4.9827-1.19-6.3491l-13.615-8.5776Z" opacity=".2"/>
  <path stroke="#D6DCE8" stroke-miterlimit="10" d="m177.029 49.1892 10.349 6.8533M178.795 46.6713l10.35 6.8532" opacity=".4"/>
  <g filter="url(#filter2_d_3840_744)">
    <path fill="#EDE5DA" d="m168.424 80.2349-24.259 15.0165c-1.319.8162-1.719 2.5213-.901 3.8366l15.053 24.202c.818 1.315 2.527 1.714 3.845.898l24.26-15.016c1.318-.816 1.719-2.522.901-3.837L172.27 81.1334c-.818-1.3153-2.527-1.7146-3.846-.8985Z"/>
  </g>
  <path fill="#fff" d="m170.194 89.979-7.318 4.5295c-1.295-1.202-3.152-1.6921-4.848-1.189-2.609.7955-4.058 3.6048-3.194 6.1673l-2.308 1.4282c-.593.367-.793 1.22-.425 1.812.409.657 1.264.857 1.857.49l2.307-1.428c1.214 1.07 2.882 1.404 4.38 1.023 2.626-.623 4.222-3.3418 3.597-5.9609l7.383-4.5703c.594-.3673.794-1.2198.426-1.8117-.343-.6985-1.198-.8982-1.857-.4901Zm-8.489 8.078c.032.3447-.043.6644-.225.9591-.091.1474-.116.254-.248.3356-.157.1882-.248.3356-.445.458-1.014.7183-2.362.4603-3.083-.5515-.04-.0658-.04-.0658-.081-.1315-.655-1.0523-.289-2.3719.7-2.984.989-.6121 2.271-.3126 2.95.6331.246.3946.425.83.432 1.2812Zm15.729 3.563-2.242 1.387c-1.295-1.202-3.152-1.692-4.848-1.189-2.609.795-3.992 3.564-3.194 6.167l-7.384 4.57c-.659.409-.859 1.261-.45 1.919.409.657 1.264.857 1.923.449l7.383-4.57c1.214 1.07 2.816 1.445 4.38 1.023 2.625-.623 4.222-3.342 3.597-5.961l2.307-1.428c.659-.408.86-1.261.451-1.918a1.3918 1.3918 0 0 0-1.923-.449Zm-3.788 3.892c.327.526.309 1.084.184 1.617-.025.107-.116.254-.141.361-.091.147-.116.254-.207.401-.091.147-.157.188-.248.336-.066.04-.131.081-.197.122-.066.041-.132.082-.198.122-.132.082-.264.164-.437.179-.065.041-.131.082-.238.057-.848.252-1.891-.105-2.423-.959-.491-.79-.439-1.733.057-2.404.157-.188.248-.336.446-.458.066-.041.132-.082.197-.122 1.055-.653 2.378-.288 2.992.698.238-.056.279.01.213.05Z"/>
  <defs>
    <linearGradient id="paint0_linear_3840_744" x1="95.2645" x2="95.2645" y1="62.1555" y2="136.363" gradientUnits="userSpaceOnUse">
      <stop stop-color="#FDFEFF"/>
      <stop offset=".9964" stop-color="#F5F2EC"/>
    </linearGradient>
    <linearGradient id="paint1_linear_3840_744" x1="132.621" x2="132.621" y1="39.6173" y2="81.6967" gradientUnits="userSpaceOnUse">
      <stop stop-color="#FDFEFF"/>
      <stop offset=".9964" stop-color="#F5F2EC"/>
    </linearGradient>
    <linearGradient id="paint2_linear_3840_744" x1="112.295" x2="104.522" y1="29.5767" y2="14.2804" gradientUnits="userSpaceOnUse">
      <stop offset=".0029" stop-color="#877357"/>
      <stop offset="1" stop-color="#938065"/>
    </linearGradient>
    <linearGradient id="paint3_linear_3840_744" x1="71.7151" x2="40.8314" y1="51.8481" y2="50.3176" gradientUnits="userSpaceOnUse">
      <stop offset=".0029" stop-color="#938065"/>
      <stop offset="1" stop-color="#938065"/>
    </linearGradient>
    <linearGradient id="paint4_linear_3840_744" x1="174.306" x2="168.934" y1="56.0822" y2="27.7344" gradientUnits="userSpaceOnUse">
      <stop offset=".0029" stop-color="#938065"/>
      <stop offset="1" stop-color="#938065"/>
    </linearGradient>
    <filter id="filter0_d_3840_744" width="96.675" height="95.5569" x="47.1265" y="58.8157" color-interpolation-filters="sRGB" filterUnits="userSpaceOnUse">
      <feFlood flood-opacity="0" result="BackgroundImageFix"/>
      <feColorMatrix in="SourceAlpha" result="hardAlpha" values="0 0 0 0 0 0 0 0 0 0 0 0 0 0 0 0 0 0 127 0"/>
      <feOffset dy="7"/>
      <feGaussianBlur stdDeviation="6"/>
      <feColorMatrix values="0 0 0 0 0.576471 0 0 0 0 0.501961 0 0 0 0 0.396078 0 0 0 0.37 0"/>
      <feBlend in2="BackgroundImageFix" result="effect1_dropShadow_3840_744"/>
      <feBlend in="SourceGraphic" in2="effect1_dropShadow_3840_744" result="shape"/>
    </filter>
    <filter id="filter1_d_3840_744" width="83.9641" height="84.6992" x="90.6519" y="25.5587" color-interpolation-filters="sRGB" filterUnits="userSpaceOnUse">
      <feFlood flood-opacity="0" result="BackgroundImageFix"/>
      <feColorMatrix in="SourceAlpha" result="hardAlpha" values="0 0 0 0 0 0 0 0 0 0 0 0 0 0 0 0 0 0 127 0"/>
      <feOffset dy="7"/>
      <feGaussianBlur stdDeviation="11"/>
      <feColorMatrix values="0 0 0 0 0.576471 0 0 0 0 0.501961 0 0 0 0 0.396078 0 0 0 0.37 0"/>
      <feBlend in2="BackgroundImageFix" result="effect1_dropShadow_3840_744"/>
      <feBlend in="SourceGraphic" in2="effect1_dropShadow_3840_744" result="shape"/>
    </filter>
    <filter id="filter2_d_3840_744" width="88.907" height="88.7996" x="120.84" y="68.8118" color-interpolation-filters="sRGB" filterUnits="userSpaceOnUse">
      <feFlood flood-opacity="0" result="BackgroundImageFix"/>
      <feColorMatrix in="SourceAlpha" result="hardAlpha" values="0 0 0 0 0 0 0 0 0 0 0 0 0 0 0 0 0 0 127 0"/>
      <feOffset dy="11"/>
      <feGaussianBlur stdDeviation="11"/>
      <feColorMatrix values="0 0 0 0 0.397708 0 0 0 0 0.47749 0 0 0 0 0.575 0 0 0 0.27 0"/>
      <feBlend in2="BackgroundImageFix" result="effect1_dropShadow_3840_744"/>
      <feBlend in="SourceGraphic" in2="effect1_dropShadow_3840_744" result="shape"/>
    </filter>
  </defs>
</svg>
