<svg width="230" height="160" viewBox="0 0 230 160" fill="none" xmlns="http://www.w3.org/2000/svg">
<path d="M83.7728 121.891L102.337 29.9224H114.946L132.023 123.071L156.679 131.681V134.522L87.0641 138.962L65.2207 125.82V122.801L83.7728 121.891Z" fill="url(#paint0_linear_7647_1411)"/>
<path d="M156.679 131.681L87.0641 135.943L65.2207 122.801M65.2207 122.801V125.82L87.0641 138.962L156.679 134.522V131.681L123.115 119.96L65.2207 122.801ZM82.9796 125.82L102.337 29.9224H114.946L132.527 125.82C128.975 130.793 102.692 134.522 82.9796 125.82Z" stroke="url(#paint1_linear_7647_1411)" stroke-miterlimit="10"/>
<g filter="url(#filter0_dd_7647_1411)">
<path d="M96.7207 63L83.2348 125.338C83.1689 125.665 83.3385 125.994 83.6451 126.125C102.991 134.403 128.346 130.939 132.489 126.127C132.614 125.981 132.65 125.791 132.615 125.602L118.721 49L96.7207 63Z" fill="url(#paint2_linear_7647_1411)"/>
</g>
<g filter="url(#filter1_dd_7647_1411)">
<path d="M88.5483 99.6147L85.5293 114.355C104.709 117.906 123.119 115.953 130.459 114.532L127.795 99.9699L88.5483 99.6147Z" fill="url(#paint3_linear_7647_1411)"/>
<path d="M125.132 84.8749H91.4826L94.5863 69.2471H122.29L125.132 84.8749Z" fill="url(#paint4_linear_7647_1411)"/>
</g>
<g filter="url(#filter2_dd_7647_1411)">
<path d="M153.545 43.2935C153.545 42.1889 152.649 41.2935 151.545 41.2935H59.0811C57.9765 41.2935 57.0811 42.1889 57.0811 43.2935V104.766C57.0811 105.871 57.9765 106.766 59.0811 106.766L158.545 113.766C159.649 113.766 160.545 112.871 160.545 111.766L153.545 43.2935ZM162.545 111.766C162.545 113.975 160.754 115.766 158.545 115.766L59.0811 108.766C56.8719 108.766 55.0811 106.975 55.0811 104.766V43.2935C55.0811 41.0843 56.8719 39.2935 59.0811 39.2935H151.545C153.754 39.2935 155.545 41.0843 155.545 43.2935L162.545 111.766Z" fill="url(#paint5_linear_7647_1411)"/>
</g>
<g filter="url(#filter3_dd_7647_1411)">
<path d="M155.221 111C155.221 109.895 156.116 109 157.221 109H165.221C166.325 109 167.221 109.895 167.221 111V119C167.221 120.105 166.325 121 165.221 121H157.221C156.116 121 155.221 120.105 155.221 119V111Z" fill="url(#paint6_linear_7647_1411)"/>
<path d="M165.221 120V121H157.221L157.221 120H165.221ZM166.221 119V111C166.221 110.448 165.773 110 165.221 110H157.221C156.668 110 156.221 110.448 156.221 111V119C156.221 119.552 156.668 120 157.221 120L157.221 121C156.185 121 155.334 120.213 155.231 119.204L155.221 119V111C155.221 109.895 156.116 109 157.221 109H165.221L165.425 109.011C166.433 109.113 167.221 109.964 167.221 111V119L167.21 119.204C167.115 120.146 166.366 120.894 165.425 120.989L165.221 121V120C165.773 120 166.221 119.552 166.221 119Z" fill="url(#paint7_linear_7647_1411)"/>
</g>
<g filter="url(#filter4_dd_7647_1411)">
<rect x="150.173" y="35" width="9.52851" height="9.52851" rx="2" fill="url(#paint8_linear_7647_1411)" stroke="url(#paint9_linear_7647_1411)" stroke-miterlimit="10"/>
<rect x="51.2207" y="35" width="9.52851" height="9.52851" rx="2" fill="url(#paint10_linear_7647_1411)" stroke="url(#paint11_linear_7647_1411)" stroke-miterlimit="10"/>
<rect x="51.2207" y="103.346" width="9.52851" height="9.52851" rx="2" fill="url(#paint12_linear_7647_1411)" stroke="url(#paint13_linear_7647_1411)" stroke-miterlimit="10"/>
</g>
<g filter="url(#filter5_dd_7647_1411)">
<path d="M184.216 127.14C184.197 127.369 184.084 127.577 183.945 127.759C183.833 127.906 183.704 128.028 183.457 128.15L178.966 129.982C178.283 130.271 177.599 130.657 177.111 131.139C176.75 131.496 176.442 131.853 176.267 132.289C176.141 132.602 176.069 132.935 175.939 133.246L174.28 137.213C174.116 137.78 173.54 138.075 173.07 137.984C172.892 137.949 172.717 137.8 172.569 137.697C172.333 137.534 172.273 137.27 172.165 137.005L165.524 120.623C165.42 120.365 165.254 120.122 165.225 119.845C165.221 119.805 165.22 119.765 165.222 119.727C165.235 119.463 165.431 119.232 165.666 119.112C165.903 118.99 166.221 118.952 166.539 119.078L182.78 125.473C183.53 125.769 184.282 126.337 184.216 127.14Z" fill="url(#paint14_linear_7647_1411)"/>
<path d="M165.895 119.557C166.011 119.497 166.178 119.473 166.354 119.543H166.355L182.597 125.938C182.93 126.07 183.238 126.253 183.446 126.466C183.649 126.673 183.736 126.881 183.718 127.099C183.71 127.191 183.66 127.308 183.547 127.456C183.482 127.541 183.414 127.611 183.245 127.695L178.777 129.519L178.771 129.521C178.06 129.823 177.312 130.238 176.76 130.783C176.387 131.152 176.017 131.568 175.803 132.103C175.731 132.282 175.675 132.465 175.627 132.621C175.576 132.785 175.532 132.924 175.478 133.054L173.819 137.021L173.808 137.047L173.8 137.074C173.711 137.383 173.391 137.537 173.165 137.493C173.17 137.494 173.146 137.489 173.079 137.445C173.049 137.426 173.016 137.403 172.978 137.375C172.943 137.35 172.896 137.316 172.854 137.286C172.83 137.27 172.804 137.244 172.769 137.171C172.75 137.132 172.731 137.086 172.708 137.024C172.687 136.969 172.658 136.89 172.629 136.817L165.988 120.435C165.934 120.3 165.836 120.111 165.801 120.033C165.75 119.922 165.729 119.851 165.723 119.794C165.721 119.779 165.72 119.764 165.721 119.752C165.722 119.738 165.729 119.708 165.76 119.667C165.792 119.625 165.84 119.585 165.895 119.557Z" stroke="url(#paint15_linear_7647_1411)"/>
</g>
<path d="M74.243 45.9057C74.9988 41.7669 78.9307 41.3232 80.8022 41.6187C89.8711 27.6792 92.4238 29.1529 95.4842 26.2101C98.7742 23.0466 118.516 14.6132 136.936 33.9947C151.672 49.4999 147.272 67.772 143.23 74.9699C149.032 86.7304 149.655 92.1362 145.755 93.5852C140.653 95.349 128.478 96.3938 117.248 92.265C106.018 88.1362 99.2703 81.5492 96.2059 77.4251C93.1415 73.3009 85.1897 64.673 82.9645 62.0427C80.7394 59.4123 73.2981 51.0792 74.243 45.9057Z" fill="url(#paint16_linear_7647_1411)" stroke="url(#paint17_linear_7647_1411)" stroke-opacity="0.2"/>
<g filter="url(#filter6_dd_7647_1411)">
<path d="M95.2151 26.0258C97.2402 24.0797 105.524 20.1328 115.891 21.9548C125.394 29.2033 139.689 49.6255 120.847 73.3263C109.992 70.968 88.6304 60.3551 90.03 36.77C90.5188 31.6911 93.6904 27.491 95.2151 26.0258Z" fill="url(#paint18_linear_7647_1411)"/>
<path d="M115.683 22.4264C120.35 26.0185 126.16 32.8148 128.515 41.6C130.863 50.3535 129.796 61.131 120.649 72.7683C115.295 71.5502 107.503 68.3548 101.178 62.6374C94.7499 56.8264 89.8451 48.4226 90.528 36.8182C91.0017 31.8968 94.0904 27.8006 95.5617 26.3867C96.4914 25.4932 98.9804 24.0498 102.558 23.0593C106.089 22.0818 110.631 21.5596 115.683 22.4264Z" stroke="url(#paint19_linear_7647_1411)" stroke-opacity="0.1"/>
</g>
<g filter="url(#filter7_dd_7647_1411)">
<path d="M74.3251 45.7633C75.0978 41.5955 79.0396 41.1346 80.9139 41.4251C78.2335 45.8712 82.2538 59.5009 119.778 78.4513L120.939 81.1569C121.413 81.3177 122.595 81.7063 123.53 81.9743C127.91 82.8752 135.801 82.7267 139.199 82.5398C140.931 80.0115 142.689 76.2993 143.351 74.7592C149.123 86.5731 149.727 92.0109 145.814 93.4834C140.694 95.2771 128.49 96.373 117.251 92.2592C106.013 88.1454 99.2749 81.5412 96.2191 77.4022C93.1633 73.2631 85.2263 64.6096 83.0061 61.9707C80.7858 59.3318 73.3593 50.9731 74.3251 45.7633Z" fill="url(#paint20_linear_7647_1411)"/>
<path d="M74.3251 45.7633C75.0978 41.5955 79.0396 41.1346 80.9139 41.4251C78.2335 45.8712 82.2538 59.5009 119.778 78.4513L120.939 81.1569C121.413 81.3177 122.595 81.7063 123.53 81.9743C127.91 82.8752 135.801 82.7267 139.199 82.5398C140.931 80.0115 142.689 76.2993 143.351 74.7592C149.123 86.5731 149.727 92.0109 145.814 93.4834C140.694 95.2771 128.49 96.373 117.251 92.2592C106.013 88.1454 99.2749 81.5412 96.2191 77.4022C93.1633 73.2631 85.2263 64.6096 83.0061 61.9707C80.7858 59.3318 73.3593 50.9731 74.3251 45.7633Z" fill="url(#paint21_linear_7647_1411)" fill-opacity="0.04"/>
<path d="M143.361 75.3536C146.096 81.0088 147.599 85.1364 147.967 88.0306C148.155 89.5167 148.041 90.6521 147.663 91.4955C147.29 92.3292 146.649 92.9018 145.726 93.2492C140.657 95.0231 128.516 96.1163 117.337 92.0242C106.149 87.929 99.4498 81.3577 96.4199 77.2538C93.3592 73.1081 85.4005 64.4282 83.1975 61.8098C82.0834 60.4857 79.6833 57.7497 77.6801 54.6945C76.6786 53.1672 75.7819 51.5672 75.1956 50.0328C74.6081 48.495 74.3412 47.0463 74.5707 45.8087C74.9408 43.812 76.0613 42.7192 77.3099 42.1501C78.4162 41.6459 79.6306 41.5504 80.5202 41.6288C79.3206 44.0861 79.9435 48.5949 85.0788 54.6608C90.4623 61.0199 100.86 69.1671 119.583 78.6314L120.708 81.2554L120.753 81.3578L120.858 81.3939C121.334 81.5552 122.521 81.9447 123.461 82.2143L123.47 82.2174L123.479 82.2193C127.896 83.1274 135.817 82.9764 139.213 82.7896L139.336 82.7825L139.406 82.6809C140.986 80.3745 142.58 77.0998 143.361 75.3536Z" stroke="url(#paint22_linear_7647_1411)" stroke-opacity="0.5" stroke-width="0.5"/>
</g>
<path d="M114.598 55.0295C111.605 34.1963 95.5202 27.3666 95.1879 26.2108C94.9914 25.5274 95.1332 25.0393 95.2904 24.7468C95.4193 24.5067 95.6588 24.3596 95.9051 24.243L97.5101 23.4829C98.074 23.2159 98.707 23.1313 99.3212 23.2409L102.78 23.8582C103.17 23.9278 103.542 24.0724 103.872 24.2926C105.795 25.5777 109.663 28.3776 113.095 31.5697C116.665 34.8911 121.043 47.9445 123.071 55.0095C123.271 55.7073 123.173 56.4512 122.81 57.0799C122.209 58.1208 120.994 58.6411 119.826 58.3576L116.926 57.6536C115.684 57.3521 114.779 56.2944 114.598 55.0295Z" fill="#3F3F3F"/>
<g filter="url(#filter8_dd_7647_1411)">
<path d="M103.214 21.767C101.119 21.0976 97.2897 23.0736 95.6368 24.1453C97.4429 24.4002 101.995 25.79 105.753 29.3105C116.794 40.277 117.258 51.3727 116.11 55.5498C119.302 57.6629 122.402 56.5934 123.552 55.7945C126.661 34.2909 105.833 22.6038 103.214 21.767Z" fill="url(#paint23_linear_7647_1411)"/>
<path d="M103.062 22.2431C103.647 22.4301 105.393 23.2847 107.653 24.8256C109.899 26.3571 112.619 28.5437 115.16 31.3656C120.204 36.9676 124.521 45.0462 123.088 55.4972C121.974 56.17 119.397 56.9434 116.683 55.3188C117.755 50.715 116.964 39.7423 106.105 28.9556L106.095 28.9454L105.732 28.6139C102.67 25.8873 99.1797 24.487 96.9949 23.9182C97.7089 23.5235 98.5641 23.1039 99.4382 22.7702C100.131 22.5058 100.823 22.2999 101.457 22.1992C102.097 22.0976 102.642 22.1088 103.062 22.2431Z" stroke="url(#paint24_linear_7647_1411)" stroke-opacity="0.04"/>
</g>
<g filter="url(#filter9_dd_7647_1411)">
<path d="M132.359 45.8275C133.99 61.779 125.425 76.2221 120.939 81.4498C125.294 83.2942 135.528 83.1717 139.229 82.6283C147.317 69.2057 146.042 52.0522 136.856 38.0378C129.508 26.8263 120.631 23.3091 117.11 22.9519C120.522 25.2568 130.649 31.7736 132.359 45.8275Z" fill="url(#paint25_linear_7647_1411)"/>
<path d="M119.531 24.0158C123.707 25.3805 130.554 29.3341 136.438 38.3114C145.489 52.1204 146.759 68.9616 138.922 82.1629C137.059 82.4095 133.747 82.5603 130.348 82.4345C127.125 82.3152 123.903 81.9494 121.774 81.2281C126.332 75.6283 134.194 61.8432 132.927 46.5321L132.856 45.7767L132.855 45.767C131.398 33.7911 123.925 27.1968 119.531 24.0158Z" stroke="url(#paint26_linear_7647_1411)" stroke-opacity="0.04"/>
</g>
<defs>
<filter id="filter0_dd_7647_1411" x="61.2207" y="31" width="93.4067" height="126.118" filterUnits="userSpaceOnUse" color-interpolation-filters="sRGB">
<feFlood flood-opacity="0" result="BackgroundImageFix"/>
<feColorMatrix in="SourceAlpha" type="matrix" values="0 0 0 0 0 0 0 0 0 0 0 0 0 0 0 0 0 0 127 0" result="hardAlpha"/>
<feOffset dy="4"/>
<feGaussianBlur stdDeviation="11"/>
<feComposite in2="hardAlpha" operator="out"/>
<feColorMatrix type="matrix" values="0 0 0 0 0 0 0 0 0 0 0 0 0 0 0 0 0 0 0.5 0"/>
<feBlend mode="normal" in2="BackgroundImageFix" result="effect1_dropShadow_7647_1411"/>
<feColorMatrix in="SourceAlpha" type="matrix" values="0 0 0 0 0 0 0 0 0 0 0 0 0 0 0 0 0 0 127 0" result="hardAlpha"/>
<feOffset dy="4"/>
<feGaussianBlur stdDeviation="6"/>
<feComposite in2="hardAlpha" operator="out"/>
<feColorMatrix type="matrix" values="0 0 0 0 0 0 0 0 0 0 0 0 0 0 0 0 0 0 0.5 0"/>
<feBlend mode="normal" in2="effect1_dropShadow_7647_1411" result="effect2_dropShadow_7647_1411"/>
<feBlend mode="normal" in="SourceGraphic" in2="effect2_dropShadow_7647_1411" result="shape"/>
</filter>
<filter id="filter1_dd_7647_1411" x="69.5293" y="57.2471" width="76.9299" height="79.1167" filterUnits="userSpaceOnUse" color-interpolation-filters="sRGB">
<feFlood flood-opacity="0" result="BackgroundImageFix"/>
<feColorMatrix in="SourceAlpha" type="matrix" values="0 0 0 0 0 0 0 0 0 0 0 0 0 0 0 0 0 0 127 0" result="hardAlpha"/>
<feOffset dy="4"/>
<feGaussianBlur stdDeviation="8"/>
<feComposite in2="hardAlpha" operator="out"/>
<feColorMatrix type="matrix" values="0 0 0 0 0 0 0 0 0 0 0 0 0 0 0 0 0 0 0.64 0"/>
<feBlend mode="normal" in2="BackgroundImageFix" result="effect1_dropShadow_7647_1411"/>
<feColorMatrix in="SourceAlpha" type="matrix" values="0 0 0 0 0 0 0 0 0 0 0 0 0 0 0 0 0 0 127 0" result="hardAlpha"/>
<feOffset dy="1"/>
<feGaussianBlur stdDeviation="0.5"/>
<feComposite in2="hardAlpha" operator="out"/>
<feColorMatrix type="matrix" values="0 0 0 0 0 0 0 0 0 0 0 0 0 0 0 0 0 0 0.08 0"/>
<feBlend mode="normal" in2="effect1_dropShadow_7647_1411" result="effect2_dropShadow_7647_1411"/>
<feBlend mode="normal" in="SourceGraphic" in2="effect2_dropShadow_7647_1411" result="shape"/>
</filter>
<filter id="filter2_dd_7647_1411" x="41.0811" y="27.2935" width="135.464" height="104.473" filterUnits="userSpaceOnUse" color-interpolation-filters="sRGB">
<feFlood flood-opacity="0" result="BackgroundImageFix"/>
<feColorMatrix in="SourceAlpha" type="matrix" values="0 0 0 0 0 0 0 0 0 0 0 0 0 0 0 0 0 0 127 0" result="hardAlpha"/>
<feOffset dy="2"/>
<feGaussianBlur stdDeviation="7"/>
<feComposite in2="hardAlpha" operator="out"/>
<feColorMatrix type="matrix" values="0 0 0 0 1 0 0 0 0 0.8 0 0 0 0 0.2 0 0 0 1 0"/>
<feBlend mode="normal" in2="BackgroundImageFix" result="effect1_dropShadow_7647_1411"/>
<feColorMatrix in="SourceAlpha" type="matrix" values="0 0 0 0 0 0 0 0 0 0 0 0 0 0 0 0 0 0 127 0" result="hardAlpha"/>
<feOffset dy="2"/>
<feGaussianBlur stdDeviation="4"/>
<feComposite in2="hardAlpha" operator="out"/>
<feColorMatrix type="matrix" values="0 0 0 0 0 0 0 0 0 0 0 0 0 0 0 0 0 0 0.5 0"/>
<feBlend mode="normal" in2="effect1_dropShadow_7647_1411" result="effect2_dropShadow_7647_1411"/>
<feBlend mode="normal" in="SourceGraphic" in2="effect2_dropShadow_7647_1411" result="shape"/>
</filter>
<filter id="filter3_dd_7647_1411" x="131.221" y="85" width="60" height="60" filterUnits="userSpaceOnUse" color-interpolation-filters="sRGB">
<feFlood flood-opacity="0" result="BackgroundImageFix"/>
<feColorMatrix in="SourceAlpha" type="matrix" values="0 0 0 0 0 0 0 0 0 0 0 0 0 0 0 0 0 0 127 0" result="hardAlpha"/>
<feOffset/>
<feGaussianBlur stdDeviation="12"/>
<feComposite in2="hardAlpha" operator="out"/>
<feColorMatrix type="matrix" values="0 0 0 0 0.98415 0 0 0 0 0.859671 0 0 0 0 0.486234 0 0 0 1 0"/>
<feBlend mode="normal" in2="BackgroundImageFix" result="effect1_dropShadow_7647_1411"/>
<feColorMatrix in="SourceAlpha" type="matrix" values="0 0 0 0 0 0 0 0 0 0 0 0 0 0 0 0 0 0 127 0" result="hardAlpha"/>
<feOffset dy="2"/>
<feGaussianBlur stdDeviation="4"/>
<feComposite in2="hardAlpha" operator="out"/>
<feColorMatrix type="matrix" values="0 0 0 0 0 0 0 0 0 0 0 0 0 0 0 0 0 0 0.08 0"/>
<feBlend mode="normal" in2="effect1_dropShadow_7647_1411" result="effect2_dropShadow_7647_1411"/>
<feBlend mode="normal" in="SourceGraphic" in2="effect2_dropShadow_7647_1411" result="shape"/>
</filter>
<filter id="filter4_dd_7647_1411" x="36.7207" y="24.5" width="141.481" height="110.874" filterUnits="userSpaceOnUse" color-interpolation-filters="sRGB">
<feFlood flood-opacity="0" result="BackgroundImageFix"/>
<feColorMatrix in="SourceAlpha" type="matrix" values="0 0 0 0 0 0 0 0 0 0 0 0 0 0 0 0 0 0 127 0" result="hardAlpha"/>
<feOffset dx="2" dy="6"/>
<feGaussianBlur stdDeviation="8"/>
<feComposite in2="hardAlpha" operator="out"/>
<feColorMatrix type="matrix" values="0 0 0 0 0 0 0 0 0 0 0 0 0 0 0 0 0 0 0.24 0"/>
<feBlend mode="normal" in2="BackgroundImageFix" result="effect1_dropShadow_7647_1411"/>
<feColorMatrix in="SourceAlpha" type="matrix" values="0 0 0 0 0 0 0 0 0 0 0 0 0 0 0 0 0 0 127 0" result="hardAlpha"/>
<feOffset dy="1"/>
<feGaussianBlur stdDeviation="1"/>
<feComposite in2="hardAlpha" operator="out"/>
<feColorMatrix type="matrix" values="0 0 0 0 0 0 0 0 0 0 0 0 0 0 0 0 0 0 0.24 0"/>
<feBlend mode="normal" in2="effect1_dropShadow_7647_1411" result="effect2_dropShadow_7647_1411"/>
<feBlend mode="normal" in="SourceGraphic" in2="effect2_dropShadow_7647_1411" result="shape"/>
</filter>
<filter id="filter5_dd_7647_1411" x="149.221" y="107" width="50.999" height="51" filterUnits="userSpaceOnUse" color-interpolation-filters="sRGB">
<feFlood flood-opacity="0" result="BackgroundImageFix"/>
<feColorMatrix in="SourceAlpha" type="matrix" values="0 0 0 0 0 0 0 0 0 0 0 0 0 0 0 0 0 0 127 0" result="hardAlpha"/>
<feOffset dy="4"/>
<feGaussianBlur stdDeviation="8"/>
<feComposite in2="hardAlpha" operator="out"/>
<feColorMatrix type="matrix" values="0 0 0 0 0 0 0 0 0 0 0 0 0 0 0 0 0 0 0.64 0"/>
<feBlend mode="normal" in2="BackgroundImageFix" result="effect1_dropShadow_7647_1411"/>
<feColorMatrix in="SourceAlpha" type="matrix" values="0 0 0 0 0 0 0 0 0 0 0 0 0 0 0 0 0 0 127 0" result="hardAlpha"/>
<feOffset dy="1"/>
<feGaussianBlur stdDeviation="0.5"/>
<feComposite in2="hardAlpha" operator="out"/>
<feColorMatrix type="matrix" values="0 0 0 0 0 0 0 0 0 0 0 0 0 0 0 0 0 0 0.08 0"/>
<feBlend mode="normal" in2="effect1_dropShadow_7647_1411" result="effect2_dropShadow_7647_1411"/>
<feBlend mode="normal" in="SourceGraphic" in2="effect2_dropShadow_7647_1411" result="shape"/>
</filter>
<filter id="filter6_dd_7647_1411" x="73.9644" y="9.48633" width="72.1187" height="83.8398" filterUnits="userSpaceOnUse" color-interpolation-filters="sRGB">
<feFlood flood-opacity="0" result="BackgroundImageFix"/>
<feColorMatrix in="SourceAlpha" type="matrix" values="0 0 0 0 0 0 0 0 0 0 0 0 0 0 0 0 0 0 127 0" result="hardAlpha"/>
<feOffset dy="4"/>
<feGaussianBlur stdDeviation="8"/>
<feComposite in2="hardAlpha" operator="out"/>
<feColorMatrix type="matrix" values="0 0 0 0 0 0 0 0 0 0 0 0 0 0 0 0 0 0 0.64 0"/>
<feBlend mode="normal" in2="BackgroundImageFix" result="effect1_dropShadow_7647_1411"/>
<feColorMatrix in="SourceAlpha" type="matrix" values="0 0 0 0 0 0 0 0 0 0 0 0 0 0 0 0 0 0 127 0" result="hardAlpha"/>
<feOffset dy="1"/>
<feGaussianBlur stdDeviation="0.5"/>
<feComposite in2="hardAlpha" operator="out"/>
<feColorMatrix type="matrix" values="0 0 0 0 0 0 0 0 0 0 0 0 0 0 0 0 0 0 0.08 0"/>
<feBlend mode="normal" in2="effect1_dropShadow_7647_1411" result="effect2_dropShadow_7647_1411"/>
<feBlend mode="normal" in="SourceGraphic" in2="effect2_dropShadow_7647_1411" result="shape"/>
</filter>
<filter id="filter7_dd_7647_1411" x="58.239" y="29.355" width="106.067" height="85.7319" filterUnits="userSpaceOnUse" color-interpolation-filters="sRGB">
<feFlood flood-opacity="0" result="BackgroundImageFix"/>
<feColorMatrix in="SourceAlpha" type="matrix" values="0 0 0 0 0 0 0 0 0 0 0 0 0 0 0 0 0 0 127 0" result="hardAlpha"/>
<feOffset dy="4"/>
<feGaussianBlur stdDeviation="8"/>
<feComposite in2="hardAlpha" operator="out"/>
<feColorMatrix type="matrix" values="0 0 0 0 0 0 0 0 0 0 0 0 0 0 0 0 0 0 0.64 0"/>
<feBlend mode="normal" in2="BackgroundImageFix" result="effect1_dropShadow_7647_1411"/>
<feColorMatrix in="SourceAlpha" type="matrix" values="0 0 0 0 0 0 0 0 0 0 0 0 0 0 0 0 0 0 127 0" result="hardAlpha"/>
<feOffset dy="1"/>
<feGaussianBlur stdDeviation="0.5"/>
<feComposite in2="hardAlpha" operator="out"/>
<feColorMatrix type="matrix" values="0 0 0 0 0 0 0 0 0 0 0 0 0 0 0 0 0 0 0.08 0"/>
<feBlend mode="normal" in2="effect1_dropShadow_7647_1411" result="effect2_dropShadow_7647_1411"/>
<feBlend mode="normal" in="SourceGraphic" in2="effect2_dropShadow_7647_1411" result="shape"/>
</filter>
<filter id="filter8_dd_7647_1411" x="79.637" y="9.63184" width="60.2307" height="67.1533" filterUnits="userSpaceOnUse" color-interpolation-filters="sRGB">
<feFlood flood-opacity="0" result="BackgroundImageFix"/>
<feColorMatrix in="SourceAlpha" type="matrix" values="0 0 0 0 0 0 0 0 0 0 0 0 0 0 0 0 0 0 127 0" result="hardAlpha"/>
<feOffset dy="4"/>
<feGaussianBlur stdDeviation="8"/>
<feComposite in2="hardAlpha" operator="out"/>
<feColorMatrix type="matrix" values="0 0 0 0 0 0 0 0 0 0 0 0 0 0 0 0 0 0 0.64 0"/>
<feBlend mode="normal" in2="BackgroundImageFix" result="effect1_dropShadow_7647_1411"/>
<feColorMatrix in="SourceAlpha" type="matrix" values="0 0 0 0 0 0 0 0 0 0 0 0 0 0 0 0 0 0 127 0" result="hardAlpha"/>
<feOffset dy="1"/>
<feGaussianBlur stdDeviation="0.5"/>
<feComposite in2="hardAlpha" operator="out"/>
<feColorMatrix type="matrix" values="0 0 0 0 0 0 0 0 0 0 0 0 0 0 0 0 0 0 0.08 0"/>
<feBlend mode="normal" in2="effect1_dropShadow_7647_1411" result="effect2_dropShadow_7647_1411"/>
<feBlend mode="normal" in="SourceGraphic" in2="effect2_dropShadow_7647_1411" result="shape"/>
</filter>
<filter id="filter9_dd_7647_1411" x="101.11" y="10.9521" width="59.4822" height="92.0283" filterUnits="userSpaceOnUse" color-interpolation-filters="sRGB">
<feFlood flood-opacity="0" result="BackgroundImageFix"/>
<feColorMatrix in="SourceAlpha" type="matrix" values="0 0 0 0 0 0 0 0 0 0 0 0 0 0 0 0 0 0 127 0" result="hardAlpha"/>
<feOffset dy="4"/>
<feGaussianBlur stdDeviation="8"/>
<feComposite in2="hardAlpha" operator="out"/>
<feColorMatrix type="matrix" values="0 0 0 0 0 0 0 0 0 0 0 0 0 0 0 0 0 0 0.64 0"/>
<feBlend mode="normal" in2="BackgroundImageFix" result="effect1_dropShadow_7647_1411"/>
<feColorMatrix in="SourceAlpha" type="matrix" values="0 0 0 0 0 0 0 0 0 0 0 0 0 0 0 0 0 0 127 0" result="hardAlpha"/>
<feOffset dy="1"/>
<feGaussianBlur stdDeviation="0.5"/>
<feComposite in2="hardAlpha" operator="out"/>
<feColorMatrix type="matrix" values="0 0 0 0 0 0 0 0 0 0 0 0 0 0 0 0 0 0 0.08 0"/>
<feBlend mode="normal" in2="effect1_dropShadow_7647_1411" result="effect2_dropShadow_7647_1411"/>
<feBlend mode="normal" in="SourceGraphic" in2="effect2_dropShadow_7647_1411" result="shape"/>
</filter>
<linearGradient id="paint0_linear_7647_1411" x1="110.95" y1="29.9224" x2="110.95" y2="138.962" gradientUnits="userSpaceOnUse">
<stop stop-color="#4D4D4D"/>
<stop offset="0.828125" stop-color="#373737"/>
</linearGradient>
<linearGradient id="paint1_linear_7647_1411" x1="110.95" y1="29.9224" x2="110.95" y2="138.962" gradientUnits="userSpaceOnUse">
<stop stop-color="#696969"/>
<stop offset="0.283654" stop-color="#333333" stop-opacity="0"/>
</linearGradient>
<linearGradient id="paint2_linear_7647_1411" x1="107.908" y1="27.661" x2="107.908" y2="132.208" gradientUnits="userSpaceOnUse">
<stop stop-color="#2D2D2D"/>
<stop offset="0.9964" stop-color="#272727"/>
</linearGradient>
<linearGradient id="paint3_linear_7647_1411" x1="65.8724" y1="89.3579" x2="67.8004" y2="119.446" gradientUnits="userSpaceOnUse">
<stop offset="0.0036" stop-color="#454545"/>
<stop offset="1" stop-color="#757166"/>
</linearGradient>
<linearGradient id="paint4_linear_7647_1411" x1="65.8724" y1="89.3579" x2="67.8004" y2="119.446" gradientUnits="userSpaceOnUse">
<stop offset="0.0036" stop-color="#454545"/>
<stop offset="1" stop-color="#757166"/>
</linearGradient>
<linearGradient id="paint5_linear_7647_1411" x1="108.813" y1="39.2935" x2="108.813" y2="115.766" gradientUnits="userSpaceOnUse">
<stop stop-color="#FFCC33"/>
<stop offset="1" stop-color="#FFEAAA"/>
</linearGradient>
<linearGradient id="paint6_linear_7647_1411" x1="157.721" y1="110" x2="164.221" y2="118.5" gradientUnits="userSpaceOnUse">
<stop stop-color="#FFE79E"/>
<stop offset="1" stop-color="#FFD452"/>
</linearGradient>
<linearGradient id="paint7_linear_7647_1411" x1="155.221" y1="115" x2="167.221" y2="115" gradientUnits="userSpaceOnUse">
<stop stop-color="#FFEAAA"/>
<stop offset="1" stop-color="#FFE7A1"/>
</linearGradient>
<linearGradient id="paint8_linear_7647_1411" x1="154.937" y1="35" x2="154.937" y2="44.5285" gradientUnits="userSpaceOnUse">
<stop stop-color="#4D4D4D"/>
<stop offset="0.828125" stop-color="#373737"/>
</linearGradient>
<linearGradient id="paint9_linear_7647_1411" x1="154.937" y1="35" x2="154.937" y2="44.5285" gradientUnits="userSpaceOnUse">
<stop stop-color="#696969"/>
<stop offset="0.283654" stop-color="#333333" stop-opacity="0"/>
</linearGradient>
<linearGradient id="paint10_linear_7647_1411" x1="55.985" y1="35" x2="55.985" y2="44.5285" gradientUnits="userSpaceOnUse">
<stop stop-color="#4D4D4D"/>
<stop offset="0.828125" stop-color="#373737"/>
</linearGradient>
<linearGradient id="paint11_linear_7647_1411" x1="55.985" y1="35" x2="55.985" y2="44.5285" gradientUnits="userSpaceOnUse">
<stop stop-color="#696969"/>
<stop offset="0.283654" stop-color="#333333" stop-opacity="0"/>
</linearGradient>
<linearGradient id="paint12_linear_7647_1411" x1="55.985" y1="103.346" x2="55.985" y2="112.874" gradientUnits="userSpaceOnUse">
<stop stop-color="#4D4D4D"/>
<stop offset="0.828125" stop-color="#373737"/>
</linearGradient>
<linearGradient id="paint13_linear_7647_1411" x1="55.985" y1="103.346" x2="55.985" y2="112.874" gradientUnits="userSpaceOnUse">
<stop stop-color="#696969"/>
<stop offset="0.283654" stop-color="#333333" stop-opacity="0"/>
</linearGradient>
<linearGradient id="paint14_linear_7647_1411" x1="175.762" y1="129.534" x2="165.246" y2="118.974" gradientUnits="userSpaceOnUse">
<stop stop-color="#545151"/>
<stop offset="1" stop-color="#BBAE87"/>
</linearGradient>
<linearGradient id="paint15_linear_7647_1411" x1="182.009" y1="130.704" x2="175.238" y2="114.749" gradientUnits="userSpaceOnUse">
<stop offset="0.125856" stop-color="#5B5956"/>
<stop offset="1" stop-color="#FFF7DE"/>
</linearGradient>
<linearGradient id="paint16_linear_7647_1411" x1="103.862" y1="80.8996" x2="133.393" y2="29.75" gradientUnits="userSpaceOnUse">
<stop stop-color="#515151"/>
<stop offset="1" stop-color="#595959"/>
</linearGradient>
<linearGradient id="paint17_linear_7647_1411" x1="236.856" y1="163.746" x2="266.617" y2="97.8134" gradientUnits="userSpaceOnUse">
<stop stop-color="#7E7E7E"/>
<stop offset="1" stop-color="#F9CC45" stop-opacity="0.2"/>
</linearGradient>
<linearGradient id="paint18_linear_7647_1411" x1="74.451" y1="19.7151" x2="61.7834" y2="44.8732" gradientUnits="userSpaceOnUse">
<stop offset="0.0036" stop-color="#666666"/>
<stop offset="1" stop-color="#423F38"/>
</linearGradient>
<linearGradient id="paint19_linear_7647_1411" x1="110.161" y1="89.0289" x2="130.281" y2="80.9759" gradientUnits="userSpaceOnUse">
<stop stop-color="#323232" stop-opacity="0"/>
<stop offset="1" stop-color="#F9CC45"/>
</linearGradient>
<linearGradient id="paint20_linear_7647_1411" x1="38.9224" y1="30.2525" x2="29.0591" y2="48.2597" gradientUnits="userSpaceOnUse">
<stop offset="0.0036" stop-color="#666666"/>
<stop offset="1" stop-color="#757166"/>
</linearGradient>
<linearGradient id="paint21_linear_7647_1411" x1="99.3316" y1="24.736" x2="175.585" y2="100.144" gradientUnits="userSpaceOnUse">
<stop stop-color="#FFEAAA" stop-opacity="0"/>
<stop offset="1" stop-color="#FFCC33"/>
</linearGradient>
<linearGradient id="paint22_linear_7647_1411" x1="43.7207" y1="37" x2="36.0621" y2="61.6536" gradientUnits="userSpaceOnUse">
<stop stop-color="#323232" stop-opacity="0"/>
<stop offset="1" stop-color="#F9CC45"/>
</linearGradient>
<linearGradient id="paint23_linear_7647_1411" x1="78.5849" y1="18.6801" x2="71.6682" y2="31.6952" gradientUnits="userSpaceOnUse">
<stop offset="0.0036" stop-color="#666666"/>
<stop offset="1" stop-color="#423F38"/>
</linearGradient>
<linearGradient id="paint24_linear_7647_1411" x1="115.9" y1="65.6789" x2="126.631" y2="58.3815" gradientUnits="userSpaceOnUse">
<stop stop-color="#323232" stop-opacity="0"/>
<stop offset="1" stop-color="#F9CC45"/>
</linearGradient>
<linearGradient id="paint25_linear_7647_1411" x1="88.5011" y1="29.6297" x2="74.2573" y2="58.2832" gradientUnits="userSpaceOnUse">
<stop offset="0.0036" stop-color="#666666"/>
<stop offset="1" stop-color="#423F38"/>
</linearGradient>
<linearGradient id="paint26_linear_7647_1411" x1="123.752" y1="105.319" x2="146.19" y2="97.4208" gradientUnits="userSpaceOnUse">
<stop stop-color="#323232" stop-opacity="0"/>
<stop offset="1" stop-color="#F9CC45"/>
</linearGradient>
</defs>
</svg>
