<svg width="230" height="160" viewBox="0 0 230 160" fill="none" xmlns="http://www.w3.org/2000/svg">
<g filter="url(#filter0_dd_7647_1384)">
<path d="M84.7728 121.891L103.337 29.9224H115.946L133.023 123.071L157.679 131.681V134.522L88.0641 138.962L66.2207 125.82V122.801L84.7728 121.891Z" fill="url(#paint0_linear_7647_1384)"/>
<path d="M84.7728 121.891L103.337 29.9224H115.946L133.023 123.071L157.679 131.681V134.522L88.0641 138.962L66.2207 125.82V122.801L84.7728 121.891Z" fill="url(#paint1_linear_7647_1384)" fill-opacity="0.2"/>
<path d="M115.529 30.4224L132.531 123.161L132.583 123.447L132.857 123.542L157.179 132.036V134.052L88.1865 138.452L66.7207 125.538V123.277L84.7969 122.39L85.1855 122.371L85.2627 121.99L103.746 30.4224H115.529Z" stroke="url(#paint2_radial_7647_1384)"/>
</g>
<g filter="url(#filter1_dd_7647_1384)">
<path d="M97.7207 63L84.2348 125.338C84.1689 125.665 84.3385 125.994 84.6451 126.125C103.991 134.403 129.346 130.939 133.489 126.127C133.614 125.981 133.65 125.791 133.615 125.602L119.721 49L97.7207 63Z" fill="url(#paint3_linear_7647_1384)"/>
<path d="M97.7207 63L84.2348 125.338C84.1689 125.665 84.3385 125.994 84.6451 126.125C103.991 134.403 129.346 130.939 133.489 126.127C133.614 125.981 133.65 125.791 133.615 125.602L119.721 49L97.7207 63Z" fill="url(#paint4_linear_7647_1384)" fill-opacity="0.2"/>
<path d="M133.123 125.691V125.692C133.13 125.729 133.128 125.755 133.124 125.771C133.121 125.785 133.116 125.794 133.11 125.801C132.657 126.327 131.878 126.871 130.778 127.396C129.686 127.919 128.311 128.407 126.7 128.838C123.48 129.699 119.354 130.32 114.745 130.535C105.522 130.966 94.4265 129.767 84.8418 125.666C84.7573 125.63 84.7051 125.537 84.7236 125.439L98.1641 63.3096L119.361 49.8213L133.123 125.691Z" stroke="url(#paint5_radial_7647_1384)"/>
</g>
<path d="M89.5483 99.6147L86.5293 114.355C105.709 117.906 124.119 115.953 131.459 114.532L128.795 99.9699L89.5483 99.6147Z" fill="url(#paint6_linear_7647_1384)"/>
<path d="M126.132 84.8749H92.4826L95.5863 69.2471H123.29L126.132 84.8749Z" fill="url(#paint7_linear_7647_1384)"/>
<g filter="url(#filter2_dd_7647_1384)">
<path d="M154.545 43.2935C154.545 42.1889 153.65 41.2935 152.545 41.2935H60.0813C58.9767 41.2935 58.0813 42.1889 58.0813 43.2935L59.0813 107.766C59.0813 108.871 59.9767 109.766 61.0813 109.766L159.545 113.766C160.65 113.766 161.545 112.871 161.545 111.766L154.545 43.2935ZM163.545 111.766C163.545 113.975 161.754 115.766 159.545 115.766L61.0813 111.766C58.8722 111.766 57.0813 109.975 57.0813 107.766L56.0813 43.2935C56.0813 41.0843 57.8722 39.2935 60.0813 39.2935H152.545C154.754 39.2935 156.545 41.0843 156.545 43.2935L163.545 111.766Z" fill="url(#paint8_radial_7647_1384)"/>
</g>
<g filter="url(#filter3_dd_7647_1384)">
<path d="M156.221 111C156.221 109.895 157.116 109 158.221 109H166.221C167.325 109 168.221 109.895 168.221 111V119C168.221 120.105 167.325 121 166.221 121H158.221C157.116 121 156.221 120.105 156.221 119V111Z" fill="url(#paint9_linear_7647_1384)"/>
<path d="M166.221 120V121H158.221L158.221 120H166.221ZM167.221 119V111C167.221 110.448 166.773 110 166.221 110H158.221C157.668 110 157.221 110.448 157.221 111V119C157.221 119.552 157.668 120 158.221 120L158.221 121C157.116 121 156.221 120.105 156.221 119V111C156.221 109.895 157.116 109 158.221 109H166.221C167.325 109 168.221 109.895 168.221 111V119C168.221 120.105 167.325 121 166.221 121V120C166.773 120 167.221 119.552 167.221 119Z" fill="url(#paint10_linear_7647_1384)"/>
<path d="M166.221 120V121H158.221L158.221 120H166.221ZM167.221 119V111C167.221 110.448 166.773 110 166.221 110H158.221C157.668 110 157.221 110.448 157.221 111V119C157.221 119.552 157.668 120 158.221 120L158.221 121C157.116 121 156.221 120.105 156.221 119V111C156.221 109.895 157.116 109 158.221 109H166.221C167.325 109 168.221 109.895 168.221 111V119C168.221 120.105 167.325 121 166.221 121V120C166.773 120 167.221 119.552 167.221 119Z" fill="#FCF4DA"/>
</g>
<g filter="url(#filter4_dd_7647_1384)">
<rect x="151.673" y="35.5" width="8.52851" height="8.52851" rx="1.5" fill="#717171" stroke="url(#paint11_linear_7647_1384)"/>
<rect x="52.7207" y="35.5" width="8.52851" height="8.52851" rx="1.5" fill="#717171" stroke="url(#paint12_linear_7647_1384)"/>
<rect x="53.7207" y="106.846" width="8.52851" height="8.52851" rx="1.5" fill="#717171" stroke="url(#paint13_linear_7647_1384)"/>
</g>
<path d="M162.984 116.046C163.332 115.578 164.051 115.347 164.723 115.612L164.722 115.613L182.128 122.467L182.305 122.536L182.391 122.706C182.508 122.938 182.622 123.25 182.681 123.58C182.738 123.904 182.75 124.299 182.604 124.662L182.584 124.711L182.555 124.755C182.475 124.873 182.371 125.04 182.243 125.183C182.098 125.344 181.923 125.476 181.678 125.598L181.662 125.605L181.646 125.612L177.16 127.441C176.505 127.719 175.887 128.075 175.463 128.494C174.992 128.959 174.703 129.344 174.63 129.85L174.621 129.912L174.597 129.971L172.741 134.406C172.588 134.873 172.244 135.205 171.855 135.372C171.46 135.542 170.97 135.56 170.562 135.318L170.509 135.287L170.465 135.244C170.4 135.18 170.357 135.164 170.201 135.049C170.126 134.993 169.895 134.826 169.84 134.535L162.918 117.458C162.788 117.244 162.721 117 162.721 116.765C162.721 116.526 162.792 116.256 162.984 116.046Z" fill="url(#paint14_linear_7647_1384)" stroke="url(#paint15_linear_7647_1384)"/>
<g filter="url(#filter5_dd_7647_1384)">
<path d="M75.243 45.9057C75.9988 41.7669 79.9307 41.3232 81.8022 41.6187C90.8711 27.6792 93.4238 29.1529 96.4842 26.2101C99.7742 23.0466 119.516 14.6132 137.936 33.9947C152.672 49.4999 148.272 67.772 144.23 74.9699C150.032 86.7304 150.655 92.1362 146.755 93.5852C141.653 95.349 129.478 96.3938 118.248 92.265C107.018 88.1362 100.27 81.5492 97.2059 77.4251C94.1415 73.3009 86.1897 64.673 83.9645 62.0427C81.7394 59.4123 74.2981 51.0792 75.243 45.9057Z" fill="url(#paint16_linear_7647_1384)"/>
<path d="M75.243 45.9057C75.9988 41.7669 79.9307 41.3232 81.8022 41.6187C90.8711 27.6792 93.4238 29.1529 96.4842 26.2101C99.7742 23.0466 119.516 14.6132 137.936 33.9947C152.672 49.4999 148.272 67.772 144.23 74.9699C150.032 86.7304 150.655 92.1362 146.755 93.5852C141.653 95.349 129.478 96.3938 118.248 92.265C107.018 88.1362 100.27 81.5492 97.2059 77.4251C94.1415 73.3009 86.1897 64.673 83.9645 62.0427C81.7394 59.4123 74.2981 51.0792 75.243 45.9057Z" fill="url(#paint17_linear_7647_1384)" fill-opacity="0.2"/>
<path d="M111.542 22.1477C119.054 22.0681 128.461 24.7507 137.574 34.3393C152.109 49.6335 147.768 67.6477 143.794 74.725L143.664 74.9548L143.781 75.191C146.68 81.0667 148.253 85.2945 148.635 88.2089C148.825 89.6623 148.713 90.738 148.366 91.5153C148.027 92.2728 147.445 92.7946 146.581 93.1158C141.579 94.8404 129.532 95.8814 118.42 91.7961C107.291 87.7043 100.62 81.1809 97.6074 77.1264C94.5331 72.9891 86.5371 64.3095 84.3465 61.7199C83.2258 60.3952 80.8319 57.6806 78.8318 54.6525C77.8322 53.1391 76.9424 51.5632 76.3607 50.0594C75.7763 48.5484 75.5221 47.1589 75.7344 45.9958C76.0803 44.1022 77.1344 43.0848 78.3097 42.5548C79.5123 42.0125 80.8607 41.9767 81.7243 42.1131L82.0443 42.1625L82.2211 41.8914C86.7423 34.942 89.6145 31.8743 91.7108 30.1794C92.7585 29.3323 93.6206 28.8206 94.434 28.3259C95.2485 27.8305 96.0234 27.3472 96.8311 26.5705C97.5822 25.8484 99.359 24.7583 101.927 23.8374C104.481 22.9217 107.778 22.1876 111.542 22.1477Z" stroke="url(#paint18_radial_7647_1384)"/>
</g>
<g filter="url(#filter6_dd_7647_1384)">
<path d="M96.2151 26.0258C98.2402 24.0797 106.524 20.1328 116.891 21.9548C126.394 29.2033 140.689 49.6255 121.847 73.3263C110.992 70.968 89.6304 60.3551 91.03 36.77C91.5188 31.6911 94.6904 27.491 96.2151 26.0258Z" fill="url(#paint19_linear_7647_1384)"/>
<path d="M96.2151 26.0258C98.2402 24.0797 106.524 20.1328 116.891 21.9548C126.394 29.2033 140.689 49.6255 121.847 73.3263C110.992 70.968 89.6304 60.3551 91.03 36.77C91.5188 31.6911 94.6904 27.491 96.2151 26.0258Z" fill="url(#paint20_linear_7647_1384)" fill-opacity="0.2"/>
<path d="M116.683 22.4264C121.35 26.0185 127.16 32.8148 129.515 41.6C131.863 50.3535 130.796 61.131 121.649 72.7683C116.295 71.5502 108.503 68.3548 102.178 62.6374C95.7499 56.8264 90.8451 48.4226 91.528 36.8182C92.0017 31.8968 95.0904 27.8006 96.5617 26.3867C97.4914 25.4932 99.9804 24.0498 103.558 23.0593C107.089 22.0818 111.631 21.5596 116.683 22.4264Z" stroke="url(#paint21_radial_7647_1384)"/>
</g>
<g filter="url(#filter7_dd_7647_1384)">
<path d="M75.3251 45.7633C76.0978 41.5955 80.0396 41.1346 81.9139 41.4251C79.2335 45.8712 83.2538 59.5009 120.778 78.4513L121.939 81.1569C122.413 81.3177 123.595 81.7063 124.53 81.9743C128.91 82.8752 136.801 82.7267 140.199 82.5398C141.931 80.0115 143.689 76.2993 144.351 74.7592C150.123 86.5731 150.727 92.0109 146.814 93.4834C141.694 95.2771 129.49 96.373 118.251 92.2592C107.013 88.1454 100.275 81.5412 97.2191 77.4022C94.1633 73.2631 86.2263 64.6096 84.0061 61.9707C81.7858 59.3318 74.3593 50.9731 75.3251 45.7633Z" fill="url(#paint22_linear_7647_1384)"/>
<path d="M75.3251 45.7633C76.0978 41.5955 80.0396 41.1346 81.9139 41.4251C79.2335 45.8712 83.2538 59.5009 120.778 78.4513L121.939 81.1569C122.413 81.3177 123.595 81.7063 124.53 81.9743C128.91 82.8752 136.801 82.7267 140.199 82.5398C141.931 80.0115 143.689 76.2993 144.351 74.7592C150.123 86.5731 150.727 92.0109 146.814 93.4834C141.694 95.2771 129.49 96.373 118.251 92.2592C107.013 88.1454 100.275 81.5412 97.2191 77.4022C94.1633 73.2631 86.2263 64.6096 84.0061 61.9707C81.7858 59.3318 74.3593 50.9731 75.3251 45.7633Z" fill="url(#paint23_linear_7647_1384)" fill-opacity="0.2"/>
</g>
<g filter="url(#filter8_dd_7647_1384)">
<path d="M115.851 57.15C113.69 34.6558 96.5313 27.405 96.1879 26.2108C95.8446 25.0166 96.534 24.4187 96.534 24.4187L99.377 23.0724L104.371 23.9637C106.044 25.0405 110.332 28.0693 114.095 31.5697C117.858 35.0701 122.518 49.3798 124.377 56.0971L122.796 58.8359L115.851 57.15Z" fill="url(#paint24_linear_7647_1384)"/>
<path d="M115.851 57.15C113.69 34.6558 96.5313 27.405 96.1879 26.2108C95.8446 25.0166 96.534 24.4187 96.534 24.4187L99.377 23.0724L104.371 23.9637C106.044 25.0405 110.332 28.0693 114.095 31.5697C117.858 35.0701 122.518 49.3798 124.377 56.0971L122.796 58.8359L115.851 57.15Z" fill="url(#paint25_linear_7647_1384)" fill-opacity="0.2"/>
<path d="M104.181 24.4372C105.891 25.5462 110.078 28.5157 113.755 31.9356C114.628 32.7478 115.592 34.2324 116.582 36.1629C117.566 38.0798 118.553 40.3887 119.483 42.807C121.307 47.5473 122.904 52.6766 123.839 56.0299L122.55 58.2618L116.311 56.7467C115.151 45.5657 110.315 38.1348 105.698 33.346C103.367 30.9288 101.095 29.1874 99.3901 27.9779C98.9642 27.6758 98.5739 27.4064 98.2276 27.1692C97.8796 26.9309 97.5798 26.7276 97.3301 26.5518C97.0786 26.3747 96.892 26.2358 96.7662 26.1281C96.7111 26.0809 96.6767 26.0456 96.6557 26.0226C96.5367 25.5695 96.6081 25.2562 96.6909 25.0653C96.7355 24.9624 96.7867 24.8879 96.8233 24.8418C96.8268 24.8374 96.8305 24.8335 96.8337 24.8297L99.4468 23.5926L104.181 24.4372Z" stroke="url(#paint26_radial_7647_1384)"/>
</g>
<g filter="url(#filter9_dd_7647_1384)">
<path d="M104.214 21.767C102.119 21.0976 98.2897 23.0736 96.6368 24.1453C98.4429 24.4002 102.995 25.79 106.753 29.3105C117.794 40.277 118.258 51.3727 117.11 55.5498C120.302 57.6629 123.402 56.5934 124.552 55.7945C127.661 34.2909 106.833 22.6038 104.214 21.767Z" fill="url(#paint27_linear_7647_1384)"/>
<path d="M104.214 21.767C102.119 21.0976 98.2897 23.0736 96.6368 24.1453C98.4429 24.4002 102.995 25.79 106.753 29.3105C117.794 40.277 118.258 51.3727 117.11 55.5498C120.302 57.6629 123.402 56.5934 124.552 55.7945C127.661 34.2909 106.833 22.6038 104.214 21.767Z" fill="url(#paint28_linear_7647_1384)" fill-opacity="0.2"/>
<path d="M104.062 22.2431C104.647 22.4301 106.393 23.2847 108.653 24.8256C110.899 26.3571 113.619 28.5437 116.16 31.3656C121.204 36.9676 125.521 45.0462 124.088 55.4972C122.974 56.17 120.397 56.9434 117.683 55.3188C118.755 50.715 117.964 39.7423 107.105 28.9556L107.095 28.9454L106.732 28.6139C103.67 25.8873 100.18 24.487 97.9949 23.9182C98.7089 23.5235 99.5641 23.1039 100.438 22.7702C101.131 22.5058 101.823 22.2999 102.457 22.1992C103.097 22.0976 103.642 22.1088 104.062 22.2431Z" stroke="url(#paint29_radial_7647_1384)"/>
</g>
<g filter="url(#filter10_dd_7647_1384)">
<path d="M133.359 45.8275C134.99 61.779 126.425 76.2221 121.939 81.4498C126.294 83.2942 136.528 83.1717 140.229 82.6283C148.317 69.2057 147.042 52.0522 137.856 38.0378C130.508 26.8263 121.631 23.3091 118.11 22.9519C121.522 25.2568 131.649 31.7736 133.359 45.8275Z" fill="url(#paint30_linear_7647_1384)"/>
<path d="M133.359 45.8275C134.99 61.779 126.425 76.2221 121.939 81.4498C126.294 83.2942 136.528 83.1717 140.229 82.6283C148.317 69.2057 147.042 52.0522 137.856 38.0378C130.508 26.8263 121.631 23.3091 118.11 22.9519C121.522 25.2568 131.649 31.7736 133.359 45.8275Z" fill="url(#paint31_linear_7647_1384)" fill-opacity="0.2"/>
<path d="M120.531 24.0158C124.707 25.3805 131.554 29.3341 137.438 38.3114C146.489 52.1204 147.759 68.9616 139.922 82.1629C138.059 82.4095 134.747 82.5603 131.348 82.4345C128.125 82.3152 124.903 81.9494 122.774 81.2281C127.332 75.6283 135.194 61.8432 133.927 46.5321L133.856 45.7767L133.855 45.767C132.398 33.7911 124.925 27.1968 120.531 24.0158Z" stroke="url(#paint32_radial_7647_1384)"/>
</g>
<defs>
<filter id="filter0_dd_7647_1384" x="50.2207" y="17.9224" width="123.458" height="141.04" filterUnits="userSpaceOnUse" color-interpolation-filters="sRGB">
<feFlood flood-opacity="0" result="BackgroundImageFix"/>
<feColorMatrix in="SourceAlpha" type="matrix" values="0 0 0 0 0 0 0 0 0 0 0 0 0 0 0 0 0 0 127 0" result="hardAlpha"/>
<feOffset dy="4"/>
<feGaussianBlur stdDeviation="8"/>
<feComposite in2="hardAlpha" operator="out"/>
<feColorMatrix type="matrix" values="0 0 0 0 0 0 0 0 0 0 0 0 0 0 0 0 0 0 0.14 0"/>
<feBlend mode="normal" in2="BackgroundImageFix" result="effect1_dropShadow_7647_1384"/>
<feColorMatrix in="SourceAlpha" type="matrix" values="0 0 0 0 0 0 0 0 0 0 0 0 0 0 0 0 0 0 127 0" result="hardAlpha"/>
<feOffset dy="1"/>
<feGaussianBlur stdDeviation="0.5"/>
<feComposite in2="hardAlpha" operator="out"/>
<feColorMatrix type="matrix" values="0 0 0 0 0 0 0 0 0 0 0 0 0 0 0 0 0 0 0.08 0"/>
<feBlend mode="normal" in2="effect1_dropShadow_7647_1384" result="effect2_dropShadow_7647_1384"/>
<feBlend mode="normal" in="SourceGraphic" in2="effect2_dropShadow_7647_1384" result="shape"/>
</filter>
<filter id="filter1_dd_7647_1384" x="68.2207" y="37" width="81.4067" height="114.118" filterUnits="userSpaceOnUse" color-interpolation-filters="sRGB">
<feFlood flood-opacity="0" result="BackgroundImageFix"/>
<feColorMatrix in="SourceAlpha" type="matrix" values="0 0 0 0 0 0 0 0 0 0 0 0 0 0 0 0 0 0 127 0" result="hardAlpha"/>
<feOffset dy="4"/>
<feGaussianBlur stdDeviation="8"/>
<feComposite in2="hardAlpha" operator="out"/>
<feColorMatrix type="matrix" values="0 0 0 0 0 0 0 0 0 0 0 0 0 0 0 0 0 0 0.14 0"/>
<feBlend mode="normal" in2="BackgroundImageFix" result="effect1_dropShadow_7647_1384"/>
<feColorMatrix in="SourceAlpha" type="matrix" values="0 0 0 0 0 0 0 0 0 0 0 0 0 0 0 0 0 0 127 0" result="hardAlpha"/>
<feOffset dy="1"/>
<feGaussianBlur stdDeviation="0.5"/>
<feComposite in2="hardAlpha" operator="out"/>
<feColorMatrix type="matrix" values="0 0 0 0 0 0 0 0 0 0 0 0 0 0 0 0 0 0 0.08 0"/>
<feBlend mode="normal" in2="effect1_dropShadow_7647_1384" result="effect2_dropShadow_7647_1384"/>
<feBlend mode="normal" in="SourceGraphic" in2="effect2_dropShadow_7647_1384" result="shape"/>
</filter>
<filter id="filter2_dd_7647_1384" x="40.0813" y="27.2935" width="139.464" height="108.473" filterUnits="userSpaceOnUse" color-interpolation-filters="sRGB">
<feFlood flood-opacity="0" result="BackgroundImageFix"/>
<feColorMatrix in="SourceAlpha" type="matrix" values="0 0 0 0 0 0 0 0 0 0 0 0 0 0 0 0 0 0 127 0" result="hardAlpha"/>
<feOffset dy="4"/>
<feGaussianBlur stdDeviation="8"/>
<feComposite in2="hardAlpha" operator="out"/>
<feColorMatrix type="matrix" values="0 0 0 0 0 0 0 0 0 0 0 0 0 0 0 0 0 0 0.16 0"/>
<feBlend mode="normal" in2="BackgroundImageFix" result="effect1_dropShadow_7647_1384"/>
<feColorMatrix in="SourceAlpha" type="matrix" values="0 0 0 0 0 0 0 0 0 0 0 0 0 0 0 0 0 0 127 0" result="hardAlpha"/>
<feOffset dy="1"/>
<feGaussianBlur stdDeviation="0.5"/>
<feComposite in2="hardAlpha" operator="out"/>
<feColorMatrix type="matrix" values="0 0 0 0 0 0 0 0 0 0 0 0 0 0 0 0 0 0 0.08 0"/>
<feBlend mode="normal" in2="effect1_dropShadow_7647_1384" result="effect2_dropShadow_7647_1384"/>
<feBlend mode="normal" in="SourceGraphic" in2="effect2_dropShadow_7647_1384" result="shape"/>
</filter>
<filter id="filter3_dd_7647_1384" x="132.221" y="85" width="60" height="60" filterUnits="userSpaceOnUse" color-interpolation-filters="sRGB">
<feFlood flood-opacity="0" result="BackgroundImageFix"/>
<feColorMatrix in="SourceAlpha" type="matrix" values="0 0 0 0 0 0 0 0 0 0 0 0 0 0 0 0 0 0 127 0" result="hardAlpha"/>
<feOffset/>
<feGaussianBlur stdDeviation="12"/>
<feComposite in2="hardAlpha" operator="out"/>
<feColorMatrix type="matrix" values="0 0 0 0 0.98415 0 0 0 0 0.859671 0 0 0 0 0.486234 0 0 0 1 0"/>
<feBlend mode="normal" in2="BackgroundImageFix" result="effect1_dropShadow_7647_1384"/>
<feColorMatrix in="SourceAlpha" type="matrix" values="0 0 0 0 0 0 0 0 0 0 0 0 0 0 0 0 0 0 127 0" result="hardAlpha"/>
<feOffset dy="2"/>
<feGaussianBlur stdDeviation="4"/>
<feComposite in2="hardAlpha" operator="out"/>
<feColorMatrix type="matrix" values="0 0 0 0 0 0 0 0 0 0 0 0 0 0 0 0 0 0 0.08 0"/>
<feBlend mode="normal" in2="effect1_dropShadow_7647_1384" result="effect2_dropShadow_7647_1384"/>
<feBlend mode="normal" in="SourceGraphic" in2="effect2_dropShadow_7647_1384" result="shape"/>
</filter>
<filter id="filter4_dd_7647_1384" x="38.2207" y="25" width="140.481" height="112.874" filterUnits="userSpaceOnUse" color-interpolation-filters="sRGB">
<feFlood flood-opacity="0" result="BackgroundImageFix"/>
<feColorMatrix in="SourceAlpha" type="matrix" values="0 0 0 0 0 0 0 0 0 0 0 0 0 0 0 0 0 0 127 0" result="hardAlpha"/>
<feOffset dx="2" dy="6"/>
<feGaussianBlur stdDeviation="8"/>
<feComposite in2="hardAlpha" operator="out"/>
<feColorMatrix type="matrix" values="0 0 0 0 0 0 0 0 0 0 0 0 0 0 0 0 0 0 0.24 0"/>
<feBlend mode="normal" in2="BackgroundImageFix" result="effect1_dropShadow_7647_1384"/>
<feColorMatrix in="SourceAlpha" type="matrix" values="0 0 0 0 0 0 0 0 0 0 0 0 0 0 0 0 0 0 127 0" result="hardAlpha"/>
<feOffset dy="1"/>
<feGaussianBlur stdDeviation="1"/>
<feComposite in2="hardAlpha" operator="out"/>
<feColorMatrix type="matrix" values="0 0 0 0 0 0 0 0 0 0 0 0 0 0 0 0 0 0 0.24 0"/>
<feBlend mode="normal" in2="effect1_dropShadow_7647_1384" result="effect2_dropShadow_7647_1384"/>
<feBlend mode="normal" in="SourceGraphic" in2="effect2_dropShadow_7647_1384" result="shape"/>
</filter>
<filter id="filter5_dd_7647_1384" x="59.1604" y="9.64648" width="106.067" height="105.49" filterUnits="userSpaceOnUse" color-interpolation-filters="sRGB">
<feFlood flood-opacity="0" result="BackgroundImageFix"/>
<feColorMatrix in="SourceAlpha" type="matrix" values="0 0 0 0 0 0 0 0 0 0 0 0 0 0 0 0 0 0 127 0" result="hardAlpha"/>
<feOffset dy="4"/>
<feGaussianBlur stdDeviation="8"/>
<feComposite in2="hardAlpha" operator="out"/>
<feColorMatrix type="matrix" values="0 0 0 0 0 0 0 0 0 0 0 0 0 0 0 0 0 0 0.14 0"/>
<feBlend mode="normal" in2="BackgroundImageFix" result="effect1_dropShadow_7647_1384"/>
<feColorMatrix in="SourceAlpha" type="matrix" values="0 0 0 0 0 0 0 0 0 0 0 0 0 0 0 0 0 0 127 0" result="hardAlpha"/>
<feOffset dy="1"/>
<feGaussianBlur stdDeviation="0.5"/>
<feComposite in2="hardAlpha" operator="out"/>
<feColorMatrix type="matrix" values="0 0 0 0 0 0 0 0 0 0 0 0 0 0 0 0 0 0 0.08 0"/>
<feBlend mode="normal" in2="effect1_dropShadow_7647_1384" result="effect2_dropShadow_7647_1384"/>
<feBlend mode="normal" in="SourceGraphic" in2="effect2_dropShadow_7647_1384" result="shape"/>
</filter>
<filter id="filter6_dd_7647_1384" x="74.9644" y="9.48633" width="72.1187" height="83.8398" filterUnits="userSpaceOnUse" color-interpolation-filters="sRGB">
<feFlood flood-opacity="0" result="BackgroundImageFix"/>
<feColorMatrix in="SourceAlpha" type="matrix" values="0 0 0 0 0 0 0 0 0 0 0 0 0 0 0 0 0 0 127 0" result="hardAlpha"/>
<feOffset dy="4"/>
<feGaussianBlur stdDeviation="8"/>
<feComposite in2="hardAlpha" operator="out"/>
<feColorMatrix type="matrix" values="0 0 0 0 0 0 0 0 0 0 0 0 0 0 0 0 0 0 0.14 0"/>
<feBlend mode="normal" in2="BackgroundImageFix" result="effect1_dropShadow_7647_1384"/>
<feColorMatrix in="SourceAlpha" type="matrix" values="0 0 0 0 0 0 0 0 0 0 0 0 0 0 0 0 0 0 127 0" result="hardAlpha"/>
<feOffset dy="1"/>
<feGaussianBlur stdDeviation="0.5"/>
<feComposite in2="hardAlpha" operator="out"/>
<feColorMatrix type="matrix" values="0 0 0 0 0 0 0 0 0 0 0 0 0 0 0 0 0 0 0.08 0"/>
<feBlend mode="normal" in2="effect1_dropShadow_7647_1384" result="effect2_dropShadow_7647_1384"/>
<feBlend mode="normal" in="SourceGraphic" in2="effect2_dropShadow_7647_1384" result="shape"/>
</filter>
<filter id="filter7_dd_7647_1384" x="59.239" y="29.355" width="106.067" height="85.7319" filterUnits="userSpaceOnUse" color-interpolation-filters="sRGB">
<feFlood flood-opacity="0" result="BackgroundImageFix"/>
<feColorMatrix in="SourceAlpha" type="matrix" values="0 0 0 0 0 0 0 0 0 0 0 0 0 0 0 0 0 0 127 0" result="hardAlpha"/>
<feOffset dy="4"/>
<feGaussianBlur stdDeviation="8"/>
<feComposite in2="hardAlpha" operator="out"/>
<feColorMatrix type="matrix" values="0 0 0 0 0 0 0 0 0 0 0 0 0 0 0 0 0 0 0.14 0"/>
<feBlend mode="normal" in2="BackgroundImageFix" result="effect1_dropShadow_7647_1384"/>
<feColorMatrix in="SourceAlpha" type="matrix" values="0 0 0 0 0 0 0 0 0 0 0 0 0 0 0 0 0 0 127 0" result="hardAlpha"/>
<feOffset dy="1"/>
<feGaussianBlur stdDeviation="0.5"/>
<feComposite in2="hardAlpha" operator="out"/>
<feColorMatrix type="matrix" values="0 0 0 0 0 0 0 0 0 0 0 0 0 0 0 0 0 0 0.08 0"/>
<feBlend mode="normal" in2="effect1_dropShadow_7647_1384" result="effect2_dropShadow_7647_1384"/>
<feBlend mode="normal" in="SourceGraphic" in2="effect2_dropShadow_7647_1384" result="shape"/>
</filter>
<filter id="filter8_dd_7647_1384" x="80.092" y="11.0723" width="60.2854" height="67.7637" filterUnits="userSpaceOnUse" color-interpolation-filters="sRGB">
<feFlood flood-opacity="0" result="BackgroundImageFix"/>
<feColorMatrix in="SourceAlpha" type="matrix" values="0 0 0 0 0 0 0 0 0 0 0 0 0 0 0 0 0 0 127 0" result="hardAlpha"/>
<feOffset dy="4"/>
<feGaussianBlur stdDeviation="8"/>
<feComposite in2="hardAlpha" operator="out"/>
<feColorMatrix type="matrix" values="0 0 0 0 0 0 0 0 0 0 0 0 0 0 0 0 0 0 0.14 0"/>
<feBlend mode="normal" in2="BackgroundImageFix" result="effect1_dropShadow_7647_1384"/>
<feColorMatrix in="SourceAlpha" type="matrix" values="0 0 0 0 0 0 0 0 0 0 0 0 0 0 0 0 0 0 127 0" result="hardAlpha"/>
<feOffset dy="1"/>
<feGaussianBlur stdDeviation="0.5"/>
<feComposite in2="hardAlpha" operator="out"/>
<feColorMatrix type="matrix" values="0 0 0 0 0 0 0 0 0 0 0 0 0 0 0 0 0 0 0.08 0"/>
<feBlend mode="normal" in2="effect1_dropShadow_7647_1384" result="effect2_dropShadow_7647_1384"/>
<feBlend mode="normal" in="SourceGraphic" in2="effect2_dropShadow_7647_1384" result="shape"/>
</filter>
<filter id="filter9_dd_7647_1384" x="80.637" y="9.63184" width="60.2307" height="67.1533" filterUnits="userSpaceOnUse" color-interpolation-filters="sRGB">
<feFlood flood-opacity="0" result="BackgroundImageFix"/>
<feColorMatrix in="SourceAlpha" type="matrix" values="0 0 0 0 0 0 0 0 0 0 0 0 0 0 0 0 0 0 127 0" result="hardAlpha"/>
<feOffset dy="4"/>
<feGaussianBlur stdDeviation="8"/>
<feComposite in2="hardAlpha" operator="out"/>
<feColorMatrix type="matrix" values="0 0 0 0 0 0 0 0 0 0 0 0 0 0 0 0 0 0 0.14 0"/>
<feBlend mode="normal" in2="BackgroundImageFix" result="effect1_dropShadow_7647_1384"/>
<feColorMatrix in="SourceAlpha" type="matrix" values="0 0 0 0 0 0 0 0 0 0 0 0 0 0 0 0 0 0 127 0" result="hardAlpha"/>
<feOffset dy="1"/>
<feGaussianBlur stdDeviation="0.5"/>
<feComposite in2="hardAlpha" operator="out"/>
<feColorMatrix type="matrix" values="0 0 0 0 0 0 0 0 0 0 0 0 0 0 0 0 0 0 0.08 0"/>
<feBlend mode="normal" in2="effect1_dropShadow_7647_1384" result="effect2_dropShadow_7647_1384"/>
<feBlend mode="normal" in="SourceGraphic" in2="effect2_dropShadow_7647_1384" result="shape"/>
</filter>
<filter id="filter10_dd_7647_1384" x="102.11" y="10.9521" width="59.4822" height="92.0283" filterUnits="userSpaceOnUse" color-interpolation-filters="sRGB">
<feFlood flood-opacity="0" result="BackgroundImageFix"/>
<feColorMatrix in="SourceAlpha" type="matrix" values="0 0 0 0 0 0 0 0 0 0 0 0 0 0 0 0 0 0 127 0" result="hardAlpha"/>
<feOffset dy="4"/>
<feGaussianBlur stdDeviation="8"/>
<feComposite in2="hardAlpha" operator="out"/>
<feColorMatrix type="matrix" values="0 0 0 0 0 0 0 0 0 0 0 0 0 0 0 0 0 0 0.14 0"/>
<feBlend mode="normal" in2="BackgroundImageFix" result="effect1_dropShadow_7647_1384"/>
<feColorMatrix in="SourceAlpha" type="matrix" values="0 0 0 0 0 0 0 0 0 0 0 0 0 0 0 0 0 0 127 0" result="hardAlpha"/>
<feOffset dy="1"/>
<feGaussianBlur stdDeviation="0.5"/>
<feComposite in2="hardAlpha" operator="out"/>
<feColorMatrix type="matrix" values="0 0 0 0 0 0 0 0 0 0 0 0 0 0 0 0 0 0 0.08 0"/>
<feBlend mode="normal" in2="effect1_dropShadow_7647_1384" result="effect2_dropShadow_7647_1384"/>
<feBlend mode="normal" in="SourceGraphic" in2="effect2_dropShadow_7647_1384" result="shape"/>
</filter>
<linearGradient id="paint0_linear_7647_1384" x1="148.568" y1="86.5109" x2="98.279" y2="78.2267" gradientUnits="userSpaceOnUse">
<stop stop-color="#FEF7E4"/>
<stop offset="0.899594" stop-color="#A49B9B"/>
</linearGradient>
<linearGradient id="paint1_linear_7647_1384" x1="126.598" y1="42.6469" x2="118.92" y2="111.381" gradientUnits="userSpaceOnUse">
<stop offset="0.459029" stop-color="#FFECB2" stop-opacity="0"/>
<stop offset="0.906344" stop-color="#4A4844"/>
</linearGradient>
<radialGradient id="paint2_radial_7647_1384" cx="0" cy="0" r="1" gradientTransform="matrix(-14.592 -40.9339 18.8804 -9.02572 135.309 78.3806)" gradientUnits="userSpaceOnUse">
<stop stop-color="#FFF7DF"/>
<stop offset="1" stop-color="#B29F66" stop-opacity="0"/>
</radialGradient>
<linearGradient id="paint3_linear_7647_1384" x1="128.706" y1="91.617" x2="101.186" y2="88.3651" gradientUnits="userSpaceOnUse">
<stop stop-color="#FEF7E4"/>
<stop offset="0.899594" stop-color="#A49B9B"/>
</linearGradient>
<linearGradient id="paint4_linear_7647_1384" x1="116.837" y1="58.5829" x2="108.868" y2="109.752" gradientUnits="userSpaceOnUse">
<stop offset="0.459029" stop-color="#FFECB2" stop-opacity="0"/>
<stop offset="0.906344" stop-color="#4A4844"/>
</linearGradient>
<radialGradient id="paint5_radial_7647_1384" cx="0" cy="0" r="1" gradientTransform="matrix(-7.88275 -30.8274 10.1994 -6.79729 121.543 85.494)" gradientUnits="userSpaceOnUse">
<stop stop-color="#FFF7DF"/>
<stop offset="1" stop-color="#B29F66" stop-opacity="0"/>
</radialGradient>
<linearGradient id="paint6_linear_7647_1384" x1="63.2208" y1="40.9999" x2="43.2589" y2="90.2152" gradientUnits="userSpaceOnUse">
<stop offset="0.0036" stop-color="#676767"/>
<stop offset="1" stop-color="#757166"/>
</linearGradient>
<linearGradient id="paint7_linear_7647_1384" x1="63.2208" y1="40.9999" x2="43.2589" y2="90.2152" gradientUnits="userSpaceOnUse">
<stop offset="0.0036" stop-color="#676767"/>
<stop offset="1" stop-color="#757166"/>
</linearGradient>
<radialGradient id="paint8_radial_7647_1384" cx="0" cy="0" r="1" gradientUnits="userSpaceOnUse" gradientTransform="translate(163.721 117) rotate(-138.685) scale(104.514 70.8147)">
<stop offset="0.344591" stop-color="#FFF9E6"/>
<stop offset="1" stop-color="#959494"/>
</radialGradient>
<linearGradient id="paint9_linear_7647_1384" x1="158.721" y1="110" x2="165.221" y2="118.5" gradientUnits="userSpaceOnUse">
<stop stop-color="#FFE79E"/>
<stop offset="1" stop-color="#FFD452"/>
</linearGradient>
<linearGradient id="paint10_linear_7647_1384" x1="156.221" y1="115" x2="168.221" y2="115" gradientUnits="userSpaceOnUse">
<stop stop-color="#FFEAAA"/>
<stop offset="1" stop-color="#FFE7A1"/>
</linearGradient>
<linearGradient id="paint11_linear_7647_1384" x1="154.721" y1="35" x2="156.221" y2="45" gradientUnits="userSpaceOnUse">
<stop stop-color="#C2C2C2"/>
<stop offset="1" stop-color="#FFEFBF"/>
</linearGradient>
<linearGradient id="paint12_linear_7647_1384" x1="55.7687" y1="35" x2="62.2208" y2="45" gradientUnits="userSpaceOnUse">
<stop stop-color="#C2C2C2"/>
<stop offset="1" stop-color="#FFEFBF"/>
</linearGradient>
<linearGradient id="paint13_linear_7647_1384" x1="55.2208" y1="111" x2="63.2208" y2="111" gradientUnits="userSpaceOnUse">
<stop stop-color="#C2C2C2"/>
<stop offset="1" stop-color="#FFEFBF"/>
</linearGradient>
<linearGradient id="paint14_linear_7647_1384" x1="172.715" y1="115.561" x2="177.028" y2="134.768" gradientUnits="userSpaceOnUse">
<stop stop-color="#E3E3E2"/>
<stop offset="0.9964" stop-color="#BABABA"/>
</linearGradient>
<linearGradient id="paint15_linear_7647_1384" x1="165.043" y1="116.327" x2="176.388" y2="128.79" gradientUnits="userSpaceOnUse">
<stop stop-color="#DAC891"/>
<stop offset="1" stop-color="#AFAFAF"/>
</linearGradient>
<linearGradient id="paint16_linear_7647_1384" x1="127.173" y1="94.5676" x2="111.212" y2="41.9428" gradientUnits="userSpaceOnUse">
<stop stop-color="#FEF7E4"/>
<stop offset="0.899594" stop-color="#B9B2B2"/>
</linearGradient>
<linearGradient id="paint17_linear_7647_1384" x1="142.784" y1="43.0841" x2="120.42" y2="76.3881" gradientUnits="userSpaceOnUse">
<stop offset="0.459029" stop-color="#FFECB2" stop-opacity="0"/>
<stop offset="0.906344" stop-color="#4A4844"/>
</linearGradient>
<radialGradient id="paint18_radial_7647_1384" cx="0" cy="0" r="1" gradientTransform="matrix(-0.195796 -27.4222 18.1613 4.46387 139.638 65.1073)" gradientUnits="userSpaceOnUse">
<stop stop-color="#FFF7DF"/>
<stop offset="1" stop-color="#B29F66" stop-opacity="0"/>
</radialGradient>
<linearGradient id="paint19_linear_7647_1384" x1="127.88" y1="54.6664" x2="108.528" y2="37.3342" gradientUnits="userSpaceOnUse">
<stop stop-color="#FEF7E4"/>
<stop offset="0.899594" stop-color="#D5CFCF"/>
</linearGradient>
<linearGradient id="paint20_linear_7647_1384" x1="126.952" y1="33.6926" x2="110.902" y2="56.6043" gradientUnits="userSpaceOnUse">
<stop offset="0.459029" stop-color="#FFECB2" stop-opacity="0"/>
<stop offset="0.906344" stop-color="#4A4844"/>
</linearGradient>
<radialGradient id="paint21_radial_7647_1384" cx="0" cy="0" r="1" gradientTransform="matrix(1.76477 -18.0542 10.2237 1.69714 123.62 48.4184)" gradientUnits="userSpaceOnUse">
<stop stop-color="#FFF7DF"/>
<stop offset="1" stop-color="#B29F66" stop-opacity="0"/>
</radialGradient>
<linearGradient id="paint22_linear_7647_1384" x1="60.6757" y1="38.6563" x2="52.8669" y2="57.0438" gradientUnits="userSpaceOnUse">
<stop offset="0.0036" stop-color="#ADACAC"/>
<stop offset="1" stop-color="#FEF7E4"/>
</linearGradient>
<linearGradient id="paint23_linear_7647_1384" x1="120.342" y1="79.0501" x2="119.222" y2="89.9106" gradientUnits="userSpaceOnUse">
<stop stop-color="#FFEAAA" stop-opacity="0"/>
<stop offset="1" stop-color="#FFC000"/>
</linearGradient>
<linearGradient id="paint24_linear_7647_1384" x1="115.478" y1="55.5621" x2="111.477" y2="33.5208" gradientUnits="userSpaceOnUse">
<stop stop-color="#FEF7E4"/>
<stop offset="0.899594" stop-color="#B9B2B2"/>
</linearGradient>
<linearGradient id="paint25_linear_7647_1384" x1="120.176" y1="36.1879" x2="112.174" y2="48.4694" gradientUnits="userSpaceOnUse">
<stop offset="0.459029" stop-color="#FFECB2" stop-opacity="0"/>
<stop offset="0.906344" stop-color="#4A4844"/>
</linearGradient>
<radialGradient id="paint26_radial_7647_1384" cx="0" cy="0" r="1" gradientTransform="matrix(-1.20976 -10.6685 8.10311 2.47999 119.707 44.6204)" gradientUnits="userSpaceOnUse">
<stop stop-color="#FFF7DF"/>
<stop offset="1" stop-color="#B29F66" stop-opacity="0"/>
</radialGradient>
<linearGradient id="paint27_linear_7647_1384" x1="124.871" y1="47.273" x2="110.806" y2="31.1732" gradientUnits="userSpaceOnUse">
<stop stop-color="#FEF7E4"/>
<stop offset="0.899594" stop-color="#D5CFCF"/>
</linearGradient>
<linearGradient id="paint28_linear_7647_1384" x1="121.176" y1="34.456" x2="113.174" y2="46.7374" gradientUnits="userSpaceOnUse">
<stop offset="0.459029" stop-color="#FFECB2" stop-opacity="0"/>
<stop offset="0.906344" stop-color="#4A4844"/>
</linearGradient>
<radialGradient id="paint29_radial_7647_1384" cx="0" cy="0" r="1" gradientTransform="matrix(-1.20976 -10.6685 8.10311 2.47999 120.707 42.8885)" gradientUnits="userSpaceOnUse">
<stop stop-color="#FFF7DF"/>
<stop offset="1" stop-color="#B29F66" stop-opacity="0"/>
</radialGradient>
<linearGradient id="paint30_linear_7647_1384" x1="143.971" y1="66.3977" x2="123.429" y2="48.6069" gradientUnits="userSpaceOnUse">
<stop stop-color="#FEF7E4"/>
<stop offset="0.899594" stop-color="#D5CFCF"/>
</linearGradient>
<linearGradient id="paint31_linear_7647_1384" x1="143.834" y1="43.0934" x2="125.405" y2="68.9673" gradientUnits="userSpaceOnUse">
<stop offset="0.459029" stop-color="#FFECB2" stop-opacity="0"/>
<stop offset="0.906344" stop-color="#4A4844"/>
</linearGradient>
<radialGradient id="paint32_radial_7647_1384" cx="0" cy="0" r="1" gradientTransform="matrix(2.61464 -20.1644 10.8296 1.47346 139.683 59.6173)" gradientUnits="userSpaceOnUse">
<stop stop-color="#FFF7DF"/>
<stop offset="1" stop-color="#B29F66" stop-opacity="0"/>
</radialGradient>
</defs>
</svg>
