<svg width="20" height="20" viewBox="0 0 20 20" fill="none" xmlns="http://www.w3.org/2000/svg">
<path d="M5.55237 2.77585L13.8361 4.99548C14.8692 5.27229 15.289 6.51044 14.6372 7.35844L12.0105 10.7761C11.641 11.2568 11.0185 11.4678 10.4329 11.3109L3.74554 9.51903C2.94534 9.30462 2.47046 8.48212 2.68488 7.68192L3.71525 3.83651C3.92966 3.03631 4.75217 2.56144 5.55237 2.77585ZM4.68118 4.09533L3.6508 7.94074C3.57933 8.20747 3.73762 8.48164 4.00435 8.55311L10.6917 10.345C10.8869 10.3973 11.0944 10.327 11.2176 10.1667L13.8443 6.74906C14.0616 6.46639 13.9217 6.05367 13.5773 5.9614L5.29355 3.74177C5.02681 3.6703 4.75265 3.82859 4.68118 4.09533Z" fill="#212121"/>
<path d="M10.1952 13.0078C10.2667 12.7411 10.1084 12.4669 9.84169 12.3954L3.51927 10.7014C3.25253 10.6299 2.97836 10.7882 2.90689 11.0549C2.83542 11.3216 2.99371 11.5958 3.26045 11.6673L5.85122 12.3615L4.97812 14.1077C4.8961 14.2717 4.73085 14.3777 4.54754 14.3838L3 14.4353V13.227C3 12.9509 2.77614 12.727 2.5 12.727C2.22386 12.727 2 12.9509 2 13.227V16.4998C2 16.7759 2.22386 16.9998 2.5 16.9998C2.77614 16.9998 3 16.7759 3 16.4998V15.4359L4.5808 15.3832C5.13072 15.3649 5.62648 15.047 5.87255 14.5549L6.8336 12.6328C6.83479 12.6304 6.83596 12.628 6.8371 12.6256L9.58287 13.3614C9.8496 13.4328 10.1238 13.2746 10.1952 13.0078Z" fill="#212121"/>
<path d="M15.8128 7.52986C15.9368 7.3744 16.1411 7.30716 16.3332 7.35863L16.8298 7.49169C17.63 7.7061 18.1048 8.52861 17.8904 9.32881L17.2434 11.7436C17.029 12.5438 16.2065 13.0187 15.4063 12.8043L13.751 12.3608C13.0549 12.1742 12.7787 11.3349 13.228 10.7714L15.8128 7.52986ZM16.3906 8.40929L14.0098 11.3948L15.6651 11.8384C15.9318 11.9098 16.206 11.7515 16.2775 11.4848L16.9245 9.06999C16.996 8.80326 16.8377 8.52909 16.5709 8.45762L16.3906 8.40929Z" fill="#212121"/>
</svg>
