<svg width="28" height="28" viewBox="0 0 28 28" fill="none" xmlns="http://www.w3.org/2000/svg">
<path d="M6.78135 3.53467C5.84778 3.28453 4.88819 3.83855 4.63805 4.77211L2.88465 11.3159C2.6345 12.2494 3.18852 13.209 4.12209 13.4592L14.6853 16.2896C15.3685 16.4726 16.0947 16.2264 16.5257 15.6656L20.9957 9.84977C21.7561 8.86043 21.2664 7.41592 20.0611 7.09297L6.78135 3.53467Z" fill="#212121"/>
<path d="M23.0485 10.3786C22.7604 10.3014 22.4539 10.4023 22.268 10.6355L18.2535 15.6698C17.6918 16.3742 18.0371 17.4234 18.9073 17.6566L22.1313 18.5204C23.0649 18.7706 24.0244 18.2166 24.2746 17.283L25.4656 12.838C25.7158 11.9045 25.1618 10.9449 24.2282 10.6947L23.0485 10.3786Z" fill="#212121"/>
<path d="M13.137 19.2173C13.5371 19.3245 13.9483 19.0871 14.0555 18.687C14.1627 18.2869 13.9253 17.8756 13.5252 17.7684L4.24978 15.2831C3.84968 15.1759 3.43843 15.4133 3.33122 15.8134C3.22402 16.2135 3.46145 16.6247 3.86155 16.732L7.64245 17.745L6.24641 20.5371C6.2054 20.6192 6.12277 20.6721 6.03112 20.6752L3.5 20.7594V19.004C3.5 18.5898 3.16421 18.254 2.75 18.254C2.33579 18.254 2 18.5898 2 19.004V23.8053C2 24.2195 2.33579 24.5553 2.75 24.5553C3.16421 24.5553 3.5 24.2195 3.5 23.8053V22.2603L6.08102 22.1744C6.72259 22.153 7.30097 21.7821 7.58805 21.2079L9.12137 18.1413L13.137 19.2173Z" fill="#212121"/>
</svg>
