<svg width="32" height="32" viewBox="0 0 32 32" fill="none" xmlns="http://www.w3.org/2000/svg">
<path d="M5.10956 4.70722C5.39544 3.64029 6.49212 3.00713 7.55905 3.29301L23.37 7.52954C24.7474 7.89863 25.3071 9.5495 24.4381 10.6802L19.0343 17.7111C18.5417 18.352 17.7117 18.6334 16.9309 18.4242L4.40406 15.0676C3.33713 14.7817 2.70396 13.685 2.98984 12.6181L5.10956 4.70722ZM7.04141 5.22486L4.92169 13.1357L17.4485 16.4923L22.8524 9.46139L7.04141 5.22486Z" fill="#212121"/>
<path d="M25.5653 11.6252C25.8133 11.3143 26.2219 11.1798 26.606 11.2827L28.1318 11.6916C29.1987 11.9774 29.8319 13.0741 29.546 14.141L28.0794 19.6146C27.7935 20.6816 26.6968 21.3147 25.6299 21.0288L21.611 19.952C20.5668 19.6722 20.1525 18.4131 20.8265 17.5679L25.5653 11.6252ZM26.7208 13.384L22.8663 18.2178L26.1475 19.097L27.6142 13.6234L26.7208 13.384Z" fill="#212121"/>
<path d="M15.0289 21.7962C15.5624 21.9392 16.1107 21.6226 16.2536 21.0891C16.3966 20.5557 16.08 20.0073 15.5465 19.8644L4.77499 16.9782C4.24152 16.8352 3.69319 17.1518 3.55024 17.6853C3.4073 18.2187 3.72388 18.7671 4.25735 18.91L8.49565 20.0457L6.90207 23.2328L4 23.3294V21.4245C4 20.8722 3.55228 20.4245 3 20.4245C2.44772 20.4245 2 20.8722 2 21.4245V27.0002C2 27.5525 2.44772 28.0002 3 28.0002C3.55228 28.0002 4 27.5525 4 27.0002V25.3305L6.9686 25.2317C7.70182 25.2073 8.36284 24.7834 8.69093 24.1272L10.4675 20.574L15.0289 21.7962Z" fill="#212121"/>
</svg>
