<svg width="24" height="24" viewBox="0 0 24 24" fill="none" xmlns="http://www.w3.org/2000/svg">
<path d="M6.30211 3.03467C5.36854 2.78453 4.40895 3.33855 4.15881 4.27211L2.78443 9.40135C2.53428 10.3349 3.0883 11.2945 4.02187 11.5447L12.5533 13.8306C13.2365 14.0137 13.9627 13.7675 14.3938 13.2067L17.8975 8.64801C18.6579 7.65868 18.1681 6.21417 16.9629 5.89122L6.30211 3.03467Z" fill="#212121"/>
<path d="M19.6932 8.69307C19.4051 8.61587 19.0987 8.71672 18.9127 8.94992L15.6476 13.0444C15.086 13.7488 15.4313 14.798 16.3014 15.0312L18.7031 15.6747C19.6366 15.9248 20.5962 15.3708 20.8464 14.4373L21.7523 11.0565C22.0024 10.123 21.4484 9.16337 20.5148 8.91322L19.6932 8.69307Z" fill="#212121"/>
<path d="M11.371 16.2981C11.7711 16.4053 12.1823 16.1679 12.2895 15.7678C12.3967 15.3677 12.1593 14.9564 11.7592 14.8492L4.03179 12.7787C3.63169 12.6715 3.22044 12.9089 3.11323 13.309C3.00603 13.7091 3.24346 14.1204 3.64356 14.2276L6.64548 15.0319L5.59534 17.1322C5.55433 17.2142 5.4717 17.2672 5.38005 17.2703L3.5 17.3328V15.9999C3.5 15.5857 3.16421 15.2499 2.75 15.2499C2.33579 15.2499 2 15.5857 2 15.9999V19.9999C2 20.4141 2.33579 20.7499 2.75 20.7499C3.16421 20.7499 3.5 20.4141 3.5 19.9999V18.8337L5.42995 18.7694C6.07152 18.7481 6.64991 18.3772 6.93698 17.803L8.1244 15.4282L11.371 16.2981Z" fill="#212121"/>
</svg>
