<svg width="20" height="20" viewBox="0 0 20 20" fill="none" xmlns="http://www.w3.org/2000/svg">
<path d="M5.5524 2.77609C4.7522 2.56168 3.92969 3.03655 3.71528 3.83675L2.68491 7.68216C2.47049 8.48236 2.94537 9.30487 3.74557 9.51928L10.433 11.3112C11.0186 11.4681 11.6411 11.257 12.0105 10.7764L14.6372 7.35869C15.289 6.51069 14.8692 5.27253 13.8362 4.99572L5.5524 2.77609Z" fill="#212121"/>
<path d="M16.3333 7.35886C16.1412 7.30739 15.9369 7.37462 15.8129 7.53009L13.2281 10.7716C12.7787 11.3351 13.055 12.1745 13.7511 12.361L15.4064 12.8045C16.2066 13.0189 17.0291 12.5441 17.2435 11.7439L17.8905 9.32904C18.1049 8.52884 17.6301 7.70633 16.8299 7.49192L16.3333 7.35886Z" fill="#212121"/>
<path d="M9.58292 13.3613C9.84966 13.4327 10.1238 13.2744 10.1953 13.0077C10.2668 12.741 10.1085 12.4668 9.84174 12.3953L3.51932 10.7012C3.25259 10.6298 2.97842 10.7881 2.90695 11.0548C2.83548 11.3215 2.99377 11.5957 3.2605 11.6672L5.85126 12.3614L4.97813 14.1076C4.8961 14.2717 4.73085 14.3777 4.54755 14.3838L3 14.4353V13.2269C3 12.9507 2.77614 12.7269 2.5 12.7269C2.22386 12.7269 2 12.9507 2 13.2269V16.4996C2 16.7758 2.22386 16.9996 2.5 16.9996C2.77614 16.9996 3 16.7758 3 16.4996V15.4358L4.58081 15.3832C5.13073 15.3649 5.62649 15.047 5.87255 14.5548L6.83361 12.6327L6.83714 12.6255L9.58292 13.3613Z" fill="#212121"/>
</svg>
