<svg width="32" height="32" viewBox="0 0 32 32" fill="none" xmlns="http://www.w3.org/2000/svg">
<path d="M7.55899 3.29325C6.49206 3.00737 5.39539 3.64054 5.1095 4.70747L2.98979 12.6184C2.7039 13.6853 3.33707 14.782 4.404 15.0678L16.9309 18.4244C17.7117 18.6336 18.5416 18.3522 19.0342 17.7113L24.4381 10.6804C25.3071 9.54974 24.7474 7.89887 23.3699 7.52979L7.55899 3.29325Z" fill="#212121"/>
<path d="M26.606 11.2827C26.2219 11.1797 25.8133 11.3142 25.5653 11.6251L20.8265 17.5678C20.1525 18.4131 20.5668 19.6721 21.611 19.9519L25.6299 21.0288C26.6968 21.3147 27.7935 20.6815 28.0794 19.6146L29.546 14.141C29.8319 13.074 29.1987 11.9774 28.1318 11.6915L26.606 11.2827Z" fill="#212121"/>
<path d="M15.0289 21.7962C15.5624 21.9392 16.1107 21.6226 16.2536 21.0891C16.3966 20.5557 16.08 20.0073 15.5465 19.8644L4.77499 16.9782C4.24152 16.8352 3.69319 17.1518 3.55024 17.6853C3.4073 18.2187 3.72388 18.7671 4.25735 18.91L8.49565 20.0457L6.90207 23.2328L4 23.3294V21.4245C4 20.8722 3.55228 20.4245 3 20.4245C2.44772 20.4245 2 20.8722 2 21.4245V27.0002C2 27.5525 2.44772 28.0002 3 28.0002C3.55228 28.0002 4 27.5525 4 27.0002V25.3305L6.9686 25.2317C7.70182 25.2073 8.36284 24.7834 8.69093 24.1273L10.4675 20.574L15.0289 21.7962Z" fill="#212121"/>
</svg>
