<svg width="28" height="28" viewBox="0 0 28 28" fill="none" xmlns="http://www.w3.org/2000/svg">
<path d="M4.63801 4.77187C4.88816 3.8383 5.84775 3.28428 6.78131 3.53443L20.0611 7.09273C21.2663 7.41568 21.756 8.86019 20.9956 9.84952L16.5257 15.6654C16.0947 16.2262 15.3684 16.4724 14.6852 16.2893L4.12205 13.4589C3.18848 13.2088 2.63446 12.2492 2.88461 11.3156L4.63801 4.77187ZM6.39308 4.98332C6.25972 4.94758 6.12263 5.02673 6.0869 5.1601L4.3335 11.7039C4.29777 11.8372 4.37691 11.9743 4.51028 12.01L15.0735 14.8404C15.1711 14.8666 15.2748 14.8314 15.3364 14.7513L19.8063 8.93544C19.915 8.79411 19.845 8.58775 19.6728 8.54161L6.39308 4.98332Z" fill="#212121"/>
<path d="M22.268 10.6353C22.4539 10.4021 22.7604 10.3012 23.0485 10.3784L24.2282 10.6945C25.1617 10.9447 25.7158 11.9043 25.4656 12.8378L24.2746 17.2828C24.0244 18.2164 23.0648 18.7704 22.1313 18.5203L18.9072 17.6564C18.0371 17.4232 17.6918 16.374 18.2535 15.6697L22.268 10.6353ZM23.1346 11.9544L19.6643 16.3063L22.5195 17.0714C22.6529 17.1071 22.7899 17.028 22.8257 16.8946L24.0167 12.4496C24.0525 12.3163 23.9733 12.1792 23.8399 12.1434L23.1346 11.9544Z" fill="#212121"/>
<path d="M13.137 19.2172C13.5371 19.3245 13.9483 19.087 14.0555 18.6869C14.1627 18.2868 13.9253 17.8756 13.5252 17.7684L4.24978 15.283C3.84968 15.1758 3.43843 15.4132 3.33122 15.8133C3.22402 16.2134 3.46145 16.6247 3.86155 16.7319L7.64245 17.745L6.24641 20.5371C6.2054 20.6191 6.12277 20.6721 6.03112 20.6751L3.5 20.7594V19.004C3.5 18.5898 3.16421 18.254 2.75 18.254C2.33579 18.254 2 18.5898 2 19.004V23.8053C2 24.2195 2.33579 24.5553 2.75 24.5553C3.16421 24.5553 3.5 24.2195 3.5 23.8053V22.2602L6.08102 22.1743C6.72259 22.153 7.30097 21.7821 7.58805 21.2079L9.12137 18.1413L13.137 19.2172Z" fill="#212121"/>
</svg>
