<svg width="24" height="24" viewBox="0 0 24 24" fill="none" xmlns="http://www.w3.org/2000/svg">
<path d="M6.30206 3.03443C5.3685 2.78428 4.40891 3.3383 4.15876 4.27187L2.78438 9.40111C2.53424 10.3347 3.08826 11.2943 4.02182 11.5444L12.5533 13.8304C13.2365 14.0135 13.9627 13.7673 14.3937 13.2065L17.8974 8.64777C18.6578 7.65844 18.1681 6.21392 16.9628 5.89097L6.30206 3.03443ZM5.60765 4.66009C5.64339 4.52673 5.78047 4.44758 5.91384 4.48332L16.5746 7.33986C16.7468 7.386 16.8167 7.59236 16.7081 7.73369L13.2044 12.2924C13.1428 12.3725 13.0391 12.4077 12.9415 12.3815L4.41005 10.0955C4.27668 10.0598 4.19754 9.9227 4.23327 9.78934L5.60765 4.66009Z" fill="#212121"/>
<path d="M12.2895 15.7679C12.1823 16.168 11.7711 16.4054 11.371 16.2982L8.1244 15.4283L6.93698 17.8031C6.64991 18.3773 6.07152 18.7482 5.42995 18.7695L3.5 18.8337V20C3.5 20.4142 3.16421 20.75 2.75 20.75C2.33579 20.75 2 20.4142 2 20V16C2 15.5857 2.33579 15.25 2.75 15.25C3.16421 15.25 3.5 15.5857 3.5 16V17.3329L5.38005 17.2703C5.4717 17.2673 5.55433 17.2143 5.59534 17.1323L6.64548 15.032L3.64356 14.2276C3.24346 14.1204 3.00603 13.7092 3.11323 13.3091C3.22044 12.909 3.63169 12.6715 4.03179 12.7787L11.7592 14.8493C12.1593 14.9565 12.3967 15.3678 12.2895 15.7679Z" fill="#212121"/>
<path d="M18.9127 8.94985C19.0986 8.71666 19.4051 8.61581 19.6932 8.693L20.5148 8.91315C21.4484 9.1633 22.0024 10.1229 21.7522 11.0565L20.8464 14.4372C20.5962 15.3708 19.6366 15.9248 18.7031 15.6746L16.3014 15.0311C15.4312 14.798 15.086 13.7487 15.6476 13.0444L18.9127 8.94985ZM19.7793 10.269L17.0585 13.681L19.0913 14.2257C19.2247 14.2615 19.3617 14.1823 19.3975 14.049L20.3033 10.6682C20.3391 10.5349 20.2599 10.3978 20.1266 10.362L19.7793 10.269Z" fill="#212121"/>
</svg>
