<svg width="48" height="48" viewBox="0 0 48 48" fill="none" xmlns="http://www.w3.org/2000/svg">
<path d="M9.17938 8.64258C9.50099 7.44228 10.7348 6.72997 11.9351 7.05159L34.9124 13.2084C36.4621 13.6236 37.0917 15.4808 36.1141 16.7528L28.0663 27.2238C27.5121 27.9448 26.5784 28.2614 25.7 28.026L7.61352 23.1798C6.41322 22.8582 5.70091 21.6244 6.02253 20.4241L9.17938 8.64258ZM11.5295 9.53111L8.50205 20.8297L26.1858 25.568L33.9037 15.5263L11.5295 9.53111Z" fill="#212121"/>
<path d="M37.5511 18.7132C37.8611 18.3245 38.3718 18.1565 38.852 18.2851L41.3576 18.9565C42.5579 19.2781 43.2702 20.5119 42.9486 21.7122L40.7017 30.0979C40.38 31.2982 39.1463 32.0105 37.946 31.6889L31.6768 30.0091C30.4586 29.6827 29.9752 28.2138 30.7615 27.2277L37.5511 18.7132ZM38.9955 20.9118L33.4303 27.8907L38.3515 29.2094L40.4691 21.3066L38.9955 20.9118Z" fill="#212121"/>
<path d="M22.7963 32.6562C23.4631 32.8349 24.1486 32.4391 24.3272 31.7723C24.5059 31.1055 24.1102 30.4201 23.4433 30.2414L8.43594 26.2202C7.76911 26.0415 7.08368 26.4372 6.90501 27.104C6.72633 27.7709 7.12206 28.4563 7.78889 28.635L13.8633 30.2626L11.5266 34.936L7.25 35.0783V32.2763C7.25 31.586 6.69036 31.0263 6 31.0263C5.30964 31.0263 4.75 31.586 4.75 32.2763V40.0447C4.75 40.7351 5.30964 41.2947 6 41.2947C6.69036 41.2947 7.25 40.7351 7.25 40.0447V37.5797L11.7585 37.4296C12.5834 37.4022 13.327 36.9253 13.6961 36.1871L16.3282 30.9231L22.7963 32.6562Z" fill="#212121"/>
</svg>
