<svg width="48" height="48" viewBox="0 0 48 48" fill="none" xmlns="http://www.w3.org/2000/svg">
<path d="M11.9349 7.05135C10.7346 6.72973 9.50088 7.44204 9.17926 8.64234L6.02242 20.4239C5.7008 21.6241 6.41311 22.8579 7.61341 23.1795L25.6998 28.0258C26.5783 28.2611 27.512 27.9446 28.0662 27.2236L36.1139 16.7526C37.0916 15.4806 36.4619 13.6233 34.9123 13.2081L11.9349 7.05135Z" fill="#212121"/>
<path d="M24.3272 31.7723C24.1486 32.4391 23.4631 32.8349 22.7963 32.6562L16.3282 30.9231L13.6961 36.1871C13.327 36.9253 12.5834 37.4022 11.7585 37.4296L7.25 37.5797V40.0447C7.25 40.7351 6.69036 41.2947 6 41.2947C5.30964 41.2947 4.75 40.7351 4.75 40.0447V32.2763C4.75 31.586 5.30964 31.0263 6 31.0263C6.69036 31.0263 7.25 31.586 7.25 32.2763V35.0783L11.5266 34.936L13.8633 30.2626L7.78889 28.635C7.12206 28.4563 6.72633 27.7709 6.90501 27.104C7.08368 26.4372 7.76911 26.0415 8.43594 26.2201L23.4433 30.2414C24.1102 30.4201 24.5059 31.1055 24.3272 31.7723Z" fill="#212121"/>
<path d="M37.5512 18.7129C37.8611 18.3243 38.3718 18.1562 38.852 18.2848L41.3577 18.9562C42.558 19.2778 43.2703 20.5116 42.9487 21.7119L40.7017 30.0976C40.3801 31.2979 39.1463 32.0103 37.946 31.6886L31.6769 30.0088C30.4586 29.6824 29.9752 28.2135 30.7616 27.2274L37.5512 18.7129Z" fill="#212121"/>
</svg>
