<svg width="24" height="24" viewBox="0 0 24 24" fill="none" xmlns="http://www.w3.org/2000/svg">
<path d="M5.25 3C5.80228 3 6.25 3.44772 6.25 4C6.25 4.64684 6.55194 5.12011 7.07667 5.89101L7.09557 5.91877C7.58557 6.63841 8.25 7.61423 8.25 9C8.25 10.6872 7.44841 11.7446 6.82908 12.5616L6.79709 12.6039C6.17043 13.431 5.75 14.0164 5.75 15C5.75 15.5497 6.04769 16.0418 6.5903 16.8829L6.60563 16.9066C7.08758 17.6535 7.75 18.68 7.75 20C7.75 20.5523 7.30228 21 6.75 21C6.19772 21 5.75 20.5523 5.75 20C5.75 19.334 5.4266 18.7683 4.9097 17.9671L4.83095 17.8456C4.37606 17.1448 3.75 16.1804 3.75 15C3.75 13.3128 4.55159 12.2553 5.17093 11.4383L5.20291 11.3961C5.82958 10.5689 6.25 9.98359 6.25 9C6.25 8.2802 5.93171 7.76327 5.42333 7.01639L5.36464 6.93037C4.89275 6.23948 4.25 5.29844 4.25 4C4.25 3.44772 4.69772 3 5.25 3ZM11.25 3C11.8023 3 12.25 3.44772 12.25 4C12.25 4.64684 12.5519 5.12011 13.0767 5.89101L13.0956 5.91877C13.5856 6.63841 14.25 7.61423 14.25 9C14.25 10.6872 13.4484 11.7446 12.8291 12.5616L12.7971 12.6039C12.1704 13.431 11.75 14.0164 11.75 15C11.75 15.5497 12.0477 16.0418 12.5903 16.8829L12.6056 16.9066C13.0876 17.6535 13.75 18.68 13.75 20C13.75 20.5523 13.3023 21 12.75 21C12.1977 21 11.75 20.5523 11.75 20C11.75 19.334 11.4266 18.7683 10.9097 17.9671L10.8309 17.8456C10.3761 17.1448 9.75 16.1804 9.75 15C9.75 13.3128 10.5516 12.2553 11.1709 11.4383L11.2029 11.3961C11.8296 10.5689 12.25 9.98359 12.25 9C12.25 8.2802 11.9317 7.76327 11.4233 7.01639L11.3646 6.93037C10.8927 6.23948 10.25 5.29844 10.25 4C10.25 3.44772 10.6977 3 11.25 3ZM18.25 4C18.25 3.44772 17.8023 3 17.25 3C16.6977 3 16.25 3.44772 16.25 4C16.25 5.29844 16.8927 6.23948 17.3646 6.93037L17.4233 7.01639C17.9317 7.76327 18.25 8.2802 18.25 9C18.25 9.98359 17.8296 10.5689 17.2029 11.3961L17.1709 11.4383C16.5516 12.2553 15.75 13.3128 15.75 15C15.75 16.1804 16.3761 17.1448 16.8309 17.8456L16.9097 17.9671C17.4266 18.7683 17.75 19.334 17.75 20C17.75 20.5523 18.1977 21 18.75 21C19.3023 21 19.75 20.5523 19.75 20C19.75 18.68 19.0876 17.6535 18.6056 16.9066L18.5903 16.8829C18.0477 16.0418 17.75 15.5497 17.75 15C17.75 14.0164 18.1704 13.431 18.7971 12.6039L18.8291 12.5616C19.4484 11.7446 20.25 10.6872 20.25 9C20.25 7.61423 19.5856 6.63841 19.0956 5.91877L19.0767 5.89101C18.5519 5.12011 18.25 4.64684 18.25 4Z" fill="#212121"/>
</svg>
