<svg width="24" height="24" viewBox="0 0 24 24" fill="none" xmlns="http://www.w3.org/2000/svg">
<path d="M5.25 3.25C5.66421 3.25 6 3.58579 6 4C6 4.73513 6.35145 5.26987 6.87 6.03168L6.88105 6.04792C7.37316 6.77081 8 7.69163 8 9C8 10.6027 7.2426 11.6021 6.62336 12.4192L6.59782 12.4529C5.97157 13.2795 5.5 13.9248 5.5 15C5.5 15.6373 5.84827 16.1939 6.38022 17.0184L6.38552 17.0266C6.87212 17.7808 7.5 18.754 7.5 20C7.5 20.4142 7.16421 20.75 6.75 20.75C6.33579 20.75 6 20.4142 6 20C6 19.2505 5.63245 18.6262 5.11978 17.8316L5.04725 17.7195C4.58729 17.0098 4 16.1037 4 15C4 13.3973 4.7574 12.3979 5.37665 11.5808L5.40218 11.5471C6.02843 10.7204 6.5 10.0752 6.5 9C6.5 8.19472 6.13628 7.61952 5.63 6.87572L5.57772 6.79905C5.10298 6.10329 4.5 5.21962 4.5 4C4.5 3.58579 4.83579 3.25 5.25 3.25ZM11.25 3.25C11.6642 3.25 12 3.58579 12 4C12 4.73513 12.3515 5.26987 12.87 6.03168L12.8811 6.04792C13.3732 6.77081 14 7.69163 14 9C14 10.6027 13.2426 11.6021 12.6234 12.4192L12.5978 12.4529C11.9716 13.2795 11.5 13.9248 11.5 15C11.5 15.6373 11.8483 16.1939 12.3802 17.0184L12.3855 17.0266C12.8721 17.7808 13.5 18.754 13.5 20C13.5 20.4142 13.1642 20.75 12.75 20.75C12.3358 20.75 12 20.4142 12 20C12 19.2505 11.6325 18.6262 11.1198 17.8316L11.0472 17.7195C10.5873 17.0098 10 16.1037 10 15C10 13.3973 10.7574 12.3979 11.3766 11.5808L11.4022 11.5471C12.0284 10.7204 12.5 10.0752 12.5 9C12.5 8.19472 12.1363 7.61952 11.63 6.87572L11.5777 6.79905C11.103 6.10329 10.5 5.21962 10.5 4C10.5 3.58579 10.8358 3.25 11.25 3.25ZM18 4C18 3.58579 17.6642 3.25 17.25 3.25C16.8358 3.25 16.5 3.58579 16.5 4C16.5 5.21962 17.103 6.10329 17.5777 6.79905L17.63 6.87572C18.1363 7.61952 18.5 8.19472 18.5 9C18.5 10.0752 18.0284 10.7204 17.4022 11.5471L17.3766 11.5808C16.7574 12.3979 16 13.3973 16 15C16 16.1037 16.5873 17.0098 17.0472 17.7195L17.1198 17.8316C17.6325 18.6262 18 19.2505 18 20C18 20.4142 18.3358 20.75 18.75 20.75C19.1642 20.75 19.5 20.4142 19.5 20C19.5 18.754 18.8721 17.7808 18.3855 17.0266L18.3802 17.0184C17.8483 16.1939 17.5 15.6373 17.5 15C17.5 13.9248 17.9716 13.2795 18.5978 12.4529L18.6234 12.4192C19.2426 11.6021 20 10.6027 20 9C20 7.69163 19.3732 6.77081 18.8811 6.04792L18.87 6.03168C18.3515 5.26987 18 4.73513 18 4Z" fill="#212121"/>
</svg>
