<svg width="160" height="161" viewBox="0 0 160 161" fill="none" xmlns="http://www.w3.org/2000/svg">
<path d="M79.3001 133.2C107.3 133.2 130 110.5 130 82.4C130 54.3 107.2 31.6 79.3001 31.6C51.3001 31.6 28.6001 54.3 28.6001 82.4C28.6001 110.5 51.3001 133.2 79.3001 133.2Z" fill="#242424"/>
<path d="M132.7 33.1C134.246 33.1 135.5 31.8464 135.5 30.3C135.5 28.7536 134.246 27.5 132.7 27.5C131.154 27.5 129.9 28.7536 129.9 30.3C129.9 31.8464 131.154 33.1 132.7 33.1Z" fill="#5C5C5C"/>
<path d="M31.3 49C32.8464 49 34.1 47.7464 34.1 46.2C34.1 44.6536 32.8464 43.4 31.3 43.4C29.7536 43.4 28.5 44.6536 28.5 46.2C28.5 47.7464 29.7536 49 31.3 49Z" fill="#5C5C5C"/>
<path d="M14.2 103C17.0719 103 19.4 100.672 19.4 97.8C19.4 94.9281 17.0719 92.6 14.2 92.6C11.3281 92.6 9 94.9281 9 97.8C9 100.672 11.3281 103 14.2 103Z" fill="#5C5C5C"/>
<path d="M127.611 55.7168V114.555C127.611 116.281 126.173 117.719 124.446 117.719H35.0389C33.3126 117.791 31.874 116.353 31.874 114.626V55.7168C31.874 53.9186 33.3126 52.552 35.0389 52.552H124.446C126.244 52.552 127.611 53.9906 127.611 55.7168Z" fill="url(#paint0_linear_3565_28454)"/>
<path d="M127.611 55.7168V60.2483H31.874V55.7168C31.874 53.9186 33.3126 52.552 35.0389 52.552H124.446C126.244 52.552 127.611 53.9906 127.611 55.7168Z" fill="#3A3A3A"/>
<path d="M66.5437 83.0497C68.0135 83.0497 69.205 81.8581 69.205 80.3883C69.205 78.9185 68.0135 77.727 66.5437 77.727C65.0739 77.727 63.8823 78.9185 63.8823 80.3883C63.8823 81.8581 65.0739 83.0497 66.5437 83.0497Z" fill="#D1D1D1"/>
<path d="M93.0134 83.0497C94.4832 83.0497 95.6748 81.8581 95.6748 80.3883C95.6748 78.9185 94.4832 77.727 93.0134 77.727C91.5436 77.727 90.3521 78.9185 90.3521 80.3883C90.3521 81.8581 91.5436 83.0497 93.0134 83.0497Z" fill="#D1D1D1"/>
<path d="M84.0943 100.528H75.7506C74.4559 100.528 73.377 99.4493 73.377 98.1546C73.377 96.8599 74.4559 95.781 75.7506 95.781H84.0224C85.3171 95.781 86.396 96.8599 86.396 98.1546C86.468 99.4493 85.389 100.528 84.0943 100.528Z" fill="#D1D1D1"/>
<path d="M36.118 57.7307C36.7139 57.7307 37.1969 57.2476 37.1969 56.6518C37.1969 56.0559 36.7139 55.5728 36.118 55.5728C35.5221 55.5728 35.0391 56.0559 35.0391 56.6518C35.0391 57.2476 35.5221 57.7307 36.118 57.7307Z" fill="#CCCCCC"/>
<path d="M39.4984 57.7307C40.0942 57.7307 40.5773 57.2476 40.5773 56.6518C40.5773 56.0559 40.0942 55.5728 39.4984 55.5728C38.9025 55.5728 38.4194 56.0559 38.4194 56.6518C38.4194 57.2476 38.9025 57.7307 39.4984 57.7307Z" fill="#505050"/>
<path d="M42.951 57.7307C43.5469 57.7307 44.0299 57.2476 44.0299 56.6518C44.0299 56.0559 43.5469 55.5728 42.951 55.5728C42.3551 55.5728 41.8721 56.0559 41.8721 56.6518C41.8721 57.2476 42.3551 57.7307 42.951 57.7307Z" fill="#484848"/>
<path d="M123.727 44.9275C123.008 44.9275 122.432 44.352 122.432 43.6327V29.1751C122.432 28.4558 123.008 27.8804 123.727 27.8804C124.446 27.8804 125.022 28.4558 125.022 29.1751V43.6327C125.022 44.352 124.446 44.9275 123.727 44.9275Z" fill="#D1D1D1"/>
<path d="M134.229 56.0045C134.229 55.2852 134.804 54.7097 135.523 54.7097H149.981C150.7 54.7097 151.276 55.2852 151.276 56.0045C151.276 56.7238 150.7 57.2992 149.981 57.2992H135.523C134.804 57.2992 134.229 56.7238 134.229 56.0045Z" fill="#D1D1D1"/>
<path d="M133.078 46.6538C132.574 46.1503 132.574 45.2871 133.078 44.7836L143.364 34.5698C143.867 34.0663 144.73 34.0663 145.234 34.5698C145.737 35.0733 145.737 35.9364 145.234 36.4399L135.02 46.6538C134.444 47.1573 133.581 47.1573 133.078 46.6538Z" fill="#D1D1D1"/>
<defs>
<linearGradient id="paint0_linear_3565_28454" x1="79.7114" y1="51.0445" x2="79.7114" y2="118.425" gradientUnits="userSpaceOnUse">
<stop stop-color="#5C5C5C"/>
<stop offset="0.9964" stop-color="#4D4D4D"/>
</linearGradient>
</defs>
</svg>
