<svg width="230" height="160" viewBox="0 0 230 160" fill="none" xmlns="http://www.w3.org/2000/svg">
<path d="M114.3 132.7C142.3 132.7 165 110 165 81.9C165 53.8 142.2 31.1 114.3 31.1C86.3001 31.1 63.6001 53.8 63.6001 81.9C63.6001 110 86.3001 132.7 114.3 132.7Z" fill="#EBEBEB"/>
<path d="M167.7 32.6C169.246 32.6 170.5 31.3464 170.5 29.8C170.5 28.2536 169.246 27 167.7 27C166.154 27 164.9 28.2536 164.9 29.8C164.9 31.3464 166.154 32.6 167.7 32.6Z" fill="#E8DFD3"/>
<path d="M66.3 48.5C67.8464 48.5 69.1 47.2464 69.1 45.7C69.1 44.1536 67.8464 42.9 66.3 42.9C64.7536 42.9 63.5 44.1536 63.5 45.7C63.5 47.2464 64.7536 48.5 66.3 48.5Z" fill="#E8DFD3"/>
<path d="M49.2 102.5C52.0719 102.5 54.4 100.172 54.4 97.3C54.4 94.4281 52.0719 92.1 49.2 92.1C46.3281 92.1 44 94.4281 44 97.3C44 100.172 46.3281 102.5 49.2 102.5Z" fill="#E8DFD3"/>
<g filter="url(#filter0_d_3565_28392)">
<path d="M162.611 55.2169V114.055C162.611 115.781 161.173 117.219 159.446 117.219H70.0389C68.3126 117.291 66.874 115.853 66.874 114.126V55.2169C66.874 53.4186 68.3126 52.052 70.0389 52.052H159.446C161.244 52.052 162.611 53.4906 162.611 55.2169Z" fill="url(#paint0_linear_3565_28392)"/>
</g>
<path d="M162.611 55.2169V59.7484H66.874V55.2169C66.874 53.4186 68.3126 52.052 70.0389 52.052H159.446C161.244 52.052 162.611 53.4906 162.611 55.2169Z" fill="#D0C6B8"/>
<path d="M101.544 82.5497C103.014 82.5497 104.205 81.3582 104.205 79.8883C104.205 78.4185 103.014 77.227 101.544 77.227C100.074 77.227 98.8823 78.4185 98.8823 79.8883C98.8823 81.3582 100.074 82.5497 101.544 82.5497Z" fill="#B7B4AF"/>
<path d="M128.013 82.5497C129.483 82.5497 130.675 81.3582 130.675 79.8883C130.675 78.4185 129.483 77.227 128.013 77.227C126.544 77.227 125.352 78.4185 125.352 79.8883C125.352 81.3582 126.544 82.5497 128.013 82.5497Z" fill="#B7B4AF"/>
<path d="M119.094 100.028H110.751C109.456 100.028 108.377 98.9493 108.377 97.6546C108.377 96.3599 109.456 95.2809 110.751 95.2809H119.022C120.317 95.2809 121.396 96.3599 121.396 97.6546C121.468 98.9493 120.389 100.028 119.094 100.028Z" fill="#B7B4AF"/>
<path d="M71.118 57.2307C71.7139 57.2307 72.1969 56.7476 72.1969 56.1517C72.1969 55.5559 71.7139 55.0728 71.118 55.0728C70.5221 55.0728 70.0391 55.5559 70.0391 56.1517C70.0391 56.7476 70.5221 57.2307 71.118 57.2307Z" fill="#F4F1EA"/>
<path d="M74.4984 57.2307C75.0942 57.2307 75.5773 56.7476 75.5773 56.1517C75.5773 55.5559 75.0942 55.0728 74.4984 55.0728C73.9025 55.0728 73.4194 55.5559 73.4194 56.1517C73.4194 56.7476 73.9025 57.2307 74.4984 57.2307Z" fill="#B3AFA8"/>
<path d="M77.951 57.2307C78.5469 57.2307 79.0299 56.7476 79.0299 56.1517C79.0299 55.5559 78.5469 55.0728 77.951 55.0728C77.3551 55.0728 76.8721 55.5559 76.8721 56.1517C76.8721 56.7476 77.3551 57.2307 77.951 57.2307Z" fill="#B8B2A8"/>
<path d="M158.727 44.4275C158.008 44.4275 157.432 43.852 157.432 43.1328V28.6751C157.432 27.9558 158.008 27.3804 158.727 27.3804C159.446 27.3804 160.022 27.9558 160.022 28.6751V43.1328C160.022 43.852 159.446 44.4275 158.727 44.4275Z" fill="#B7B4AF"/>
<path d="M169.229 55.5045C169.229 54.7852 169.804 54.2098 170.523 54.2098H184.981C185.7 54.2098 186.276 54.7852 186.276 55.5045C186.276 56.2238 185.7 56.7992 184.981 56.7992H170.523C169.804 56.7992 169.229 56.2238 169.229 55.5045Z" fill="#B7B4AF"/>
<path d="M168.078 46.1538C167.574 45.6503 167.574 44.7871 168.078 44.2836L178.364 34.0698C178.867 33.5663 179.73 33.5663 180.234 34.0698C180.737 34.5733 180.737 35.4364 180.234 35.9399L170.02 46.1538C169.444 46.6573 168.581 46.6573 168.078 46.1538Z" fill="#B7B4AF"/>
<defs>
<filter id="filter0_d_3565_28392" x="44.874" y="41.052" width="139.737" height="109.17" filterUnits="userSpaceOnUse" color-interpolation-filters="sRGB">
<feFlood flood-opacity="0" result="BackgroundImageFix"/>
<feColorMatrix in="SourceAlpha" type="matrix" values="0 0 0 0 0 0 0 0 0 0 0 0 0 0 0 0 0 0 127 0" result="hardAlpha"/>
<feOffset dy="11"/>
<feGaussianBlur stdDeviation="11"/>
<feColorMatrix type="matrix" values="0 0 0 0 0.576471 0 0 0 0 0.501961 0 0 0 0 0.396078 0 0 0 0.37 0"/>
<feBlend mode="normal" in2="BackgroundImageFix" result="effect1_dropShadow_3565_28392"/>
<feBlend mode="normal" in="SourceGraphic" in2="effect1_dropShadow_3565_28392" result="shape"/>
</filter>
<linearGradient id="paint0_linear_3565_28392" x1="114.711" y1="50.5446" x2="114.711" y2="117.925" gradientUnits="userSpaceOnUse">
<stop stop-color="#FDFEFF"/>
<stop offset="0.9964" stop-color="#F5F2EC"/>
</linearGradient>
</defs>
</svg>
