<svg width="20" height="20" viewBox="0 0 20 20" fill="none" xmlns="http://www.w3.org/2000/svg">
<path d="M2 10.5H5.53223C5.75791 12.3092 7.19077 13.7421 9 13.9678V16.5H3.5C2.67157 16.5 2 15.8284 2 15V10.5ZM17 15C17 15.8284 16.3284 16.5 15.5 16.5H10V13.9678C11.8092 13.7421 13.2421 12.3092 13.4678 10.5H17V15ZM9.5 7C11.1569 7 12.5 8.34315 12.5 10C12.5 11.6569 11.1569 13 9.5 13C7.84315 13 6.5 11.6569 6.5 10C6.5 8.34315 7.84315 7 9.5 7ZM9.62793 7.96875C9.35829 7.9191 9.08027 7.9296 8.81348 8C8.48185 8.08758 8.17874 8.2653 7.9375 8.51367C7.69649 8.76194 7.52546 9.07196 7.44238 9.41113C7.37553 9.68416 7.36729 9.96816 7.41797 10.2432C7.43833 10.3535 7.55226 10.4151 7.6582 10.3828L8.19043 10.2197C8.29419 10.188 8.3502 10.0772 8.34082 9.96777C8.33169 9.86078 8.3405 9.75254 8.36621 9.64746C8.40777 9.47776 8.49364 9.32243 8.61426 9.19824C8.73484 9.07417 8.88605 8.98517 9.05176 8.94141C9.15284 8.91475 9.25713 8.90525 9.36035 8.91309C9.46968 8.92142 9.57989 8.86364 9.61035 8.75781L9.76758 8.20898C9.79793 8.10252 9.73633 7.98885 9.62793 7.96875ZM9 3.5V6.03125C7.19071 6.25688 5.75791 7.69073 5.53223 9.5H2V5C2 4.17157 2.67157 3.5 3.5 3.5H9ZM15.5 3.5C16.3284 3.5 17 4.17157 17 5V9.5H13.4678C13.2421 7.69073 11.8093 6.25688 10 6.03125V3.5H15.5Z" fill="black"/>
</svg>
