<svg width="28" height="28" viewBox="0 0 28 28" fill="none" xmlns="http://www.w3.org/2000/svg">
<path d="M2 13.25V14.75V21.2787C2 22.2293 2.78751 23 3.75895 23H13.25H14.75H24.2411C25.2125 23 26 22.2293 26 21.2787V6.72133C26 5.77067 25.2125 5 24.2411 5L14.75 5.00006H13.25L3.75895 5C2.78751 5 2 5.77066 2 6.72133V13.25ZM24.4923 14.75V21.2787C24.4923 21.4145 24.3798 21.5246 24.2411 21.5246H14.75V19.9536C17.464 19.6151 19.6151 17.464 19.9536 14.75H24.4923ZM24.4923 13.25H19.9536C19.6151 10.536 17.464 8.38486 14.75 8.04642V6.47543H24.2411C24.3798 6.47543 24.4923 6.58552 24.4923 6.72133V13.25ZM3.50767 21.2787V14.75H8.04642C8.38486 17.464 10.536 19.6151 13.25 19.9536V21.5246H3.75895C3.62017 21.5246 3.50767 21.4145 3.50767 21.2787ZM9.5 14C9.5 11.5147 11.5147 9.5 14 9.5C16.4853 9.5 18.5 11.5147 18.5 14C18.5 16.4853 16.4853 18.5 14 18.5C11.5147 18.5 9.5 16.4853 9.5 14ZM13.25 8.04642C10.536 8.38486 8.38486 10.536 8.04642 13.25H3.50767V6.72133C3.50767 6.58552 3.62017 6.47543 3.75895 6.47543H13.25V8.04642Z" fill="#212121"/>
<path d="M14.4196 10.795C13.8881 10.7343 13.3467 10.7951 12.8409 10.9736C12.2722 11.1743 11.7694 11.5162 11.3856 11.9635C11.0018 12.4107 10.751 12.9466 10.6599 13.5147C10.5787 14.0206 10.6267 14.5353 10.7984 15.0158C10.834 15.1153 10.948 15.1601 11.0496 15.12L12.2289 14.6548C12.3362 14.6124 12.3876 14.4922 12.3577 14.3846C12.2995 14.175 12.2869 13.9552 12.3216 13.7387C12.3672 13.4546 12.4926 13.1866 12.6845 12.963C12.8764 12.7394 13.1278 12.5685 13.4121 12.4681C13.6327 12.3903 13.8668 12.3572 14.0993 12.3701C14.2109 12.3763 14.318 12.3046 14.3399 12.1962L14.5778 11.0174C14.5995 10.91 14.5293 10.8075 14.4196 10.795Z" fill="#212121"/>
</svg>
