<svg width="24" height="24" viewBox="0 0 24 24" fill="none" xmlns="http://www.w3.org/2000/svg">
<path d="M7.05566 12.75C7.38071 14.911 9.08906 16.6183 11.25 16.9434V20H3.79492C2.80364 20 2 19.191 2 18.1934V12.75H7.05566ZM22 18.1934C22 19.191 21.1964 20 20.2051 20H12.75V16.9434C14.9109 16.6183 16.6193 14.911 16.9443 12.75H22V18.1934ZM12 8.5C13.933 8.5 15.5 10.067 15.5 12C15.5 13.933 13.933 15.5 12 15.5C10.067 15.5 8.5 13.933 8.5 12C8.5 10.067 10.067 8.5 12 8.5ZM12.7949 9.67871C12.3861 9.59338 11.9611 9.60187 11.5547 9.70508C11.0836 9.82473 10.6542 10.067 10.3115 10.4062C9.96882 10.7455 9.72549 11.1692 9.60742 11.6328C9.50558 12.0328 9.4997 12.4497 9.58984 12.8506C9.61373 12.9568 9.72546 13.0155 9.83105 12.9844L10.7412 12.7168C10.8484 12.685 10.9081 12.5724 10.8926 12.4629C10.8684 12.2942 10.8775 12.1215 10.9199 11.9551C10.9789 11.7233 11.1002 11.5114 11.2715 11.3418C11.4428 11.1722 11.658 11.051 11.8936 10.9912C12.064 10.948 12.2409 10.9379 12.4141 10.9609C12.5239 10.9755 12.6356 10.9155 12.667 10.8096L12.9316 9.91699C12.9627 9.81162 12.9026 9.70152 12.7949 9.67871ZM11.25 7.05566C9.08899 7.38072 7.38072 9.08899 7.05566 11.25H2V5.80664C2 4.80897 2.80364 4 3.79492 4H11.25V7.05566ZM20.2051 4C21.1964 4 22 4.80896 22 5.80664V11.25H16.9443C16.6193 9.08899 14.911 7.38072 12.75 7.05566V4H20.2051Z" fill="black"/>
</svg>
