<svg width="20" height="20" viewBox="0 0 20 20" fill="none" xmlns="http://www.w3.org/2000/svg">
<path d="M9.76729 8.20873C9.79766 8.10219 9.73635 7.98896 9.6278 7.96898C9.35804 7.9193 9.08012 7.92956 8.81322 8.00005C8.4816 8.08762 8.17924 8.26494 7.938 8.51331C7.69676 8.76168 7.52556 9.07191 7.44246 9.41132C7.3756 9.68435 7.36774 9.96812 7.41842 10.2431C7.43878 10.3536 7.55258 10.4153 7.6586 10.3828L8.1908 10.2199C8.29456 10.1881 8.35075 10.0776 8.34136 9.96811C8.33218 9.86096 8.34042 9.75254 8.36619 9.6473C8.40774 9.4776 8.49334 9.32248 8.61396 9.1983C8.73458 9.07411 8.88576 8.98546 9.05157 8.94167C9.15288 8.91491 9.25736 8.90551 9.36083 8.9134C9.47033 8.92175 9.58061 8.86357 9.61087 8.75742L9.76729 8.20873Z" fill="black"/>
<path d="M9.9999 16.5H15.5C16.3284 16.5 17 15.8284 17 15V10.5V9.5V5C17 4.17157 16.3284 3.5 15.5 3.5H10H9H3.5C2.67157 3.5 2 4.17157 2 5V9.5V10.5V15C2 15.8284 2.67157 16.5 3.5 16.5H8.9999H9.9999ZM8.9999 13.969V15.5H3.5C3.22386 15.5 3 15.2761 3 15V10.5H5.53095C5.75657 12.3093 7.19059 13.7434 8.9999 13.969ZM9.9999 15.5V13.9691C11.8093 13.7435 13.2434 12.3094 13.4691 10.5H16V15C16 15.2761 15.7761 15.5 15.5 15.5H9.9999ZM3 5C3 4.72386 3.22386 4.5 3.5 4.5H9V6.03095C7.19064 6.25657 5.75657 7.69064 5.53095 9.5H3V5ZM13.4691 9.5C13.2434 7.69064 11.8094 6.25657 10 6.03095V4.5H15.5C15.7761 4.5 16 4.72386 16 5V9.5H13.4691ZM6.5 10C6.5 8.34315 7.84315 7 9.5 7C11.1569 7 12.5 8.34315 12.5 10C12.5 11.6569 11.1569 13 9.5 13C7.84315 13 6.5 11.6569 6.5 10Z" fill="black"/>
</svg>
