<svg width="24" height="24" viewBox="0 0 24 24" fill="none" xmlns="http://www.w3.org/2000/svg">
<path d="M12.7944 9.67847C12.9026 9.70105 12.963 9.81189 12.9317 9.91753L12.6671 10.81C12.6357 10.916 12.5237 10.9757 12.4138 10.9611C12.2406 10.938 12.0638 10.9481 11.8934 10.9913C11.6578 11.0512 11.443 11.1723 11.2717 11.3419C11.1003 11.5116 10.9787 11.7235 10.9197 11.9553C10.8773 12.1217 10.8683 12.294 10.8924 12.4627C10.9081 12.5725 10.8483 12.6851 10.7407 12.7167L9.83091 12.9846C9.72531 13.0157 9.6141 12.9572 9.5902 12.851C9.49998 12.45 9.50543 12.033 9.60732 11.6329C9.72539 11.1693 9.9686 10.7455 10.3113 10.4062C10.6541 10.0669 11.0836 9.82467 11.5548 9.70503C11.9612 9.60182 12.3856 9.59314 12.7944 9.67847Z" fill="#212121"/>
<path d="M20.2051 20C21.1964 20 22 19.1912 22 18.1935V5.80645C22 4.80878 21.1964 4 20.2051 4H3.79487C2.80359 4 2 4.80878 2 5.80645V18.1935C2 19.1912 2.80359 20 3.79487 20H20.2051ZM11.2499 18.4516H3.79487C3.65326 18.4516 3.53846 18.3361 3.53846 18.1935V12.9249H7.08538C7.47397 15.0026 9.14762 16.6278 11.2499 16.9441V18.4516ZM12.7499 18.4516V16.9441C14.8523 16.6279 16.526 15.0027 16.9146 12.9249H20.4615V18.1935C20.4615 18.3361 20.3467 18.4516 20.2051 18.4516H12.7499ZM16.9673 11.4249C16.7104 9.18165 14.9689 7.38962 12.7499 7.05586V5.54839H20.2051C20.3467 5.54839 20.4615 5.66393 20.4615 5.80645V11.4249H16.9673ZM7.03271 11.4249H3.53846V5.80645C3.53846 5.66393 3.65326 5.54839 3.79487 5.54839H11.2499V7.05589C9.03099 7.3897 7.2896 9.1817 7.03271 11.4249ZM8.5 12C8.5 10.067 10.067 8.5 12 8.5C13.933 8.5 15.5 10.067 15.5 12C15.5 13.933 13.933 15.5 12 15.5C10.067 15.5 8.5 13.933 8.5 12Z" fill="#212121"/>
</svg>
