<svg width="28" height="28" viewBox="0 0 28 28" fill="none" xmlns="http://www.w3.org/2000/svg">
<path d="M8.04883 14.75C8.38737 17.4638 10.5362 19.6126 13.25 19.9512V23H3.75879C2.78742 22.9999 2 22.2289 2 21.2783V14.75H8.04883ZM26 21.2783C26 22.2289 25.2126 22.9999 24.2412 23H14.75V19.9512C17.4638 19.6126 19.6126 17.4638 19.9512 14.75H26V21.2783ZM14 9.5C16.4853 9.5 18.5 11.5147 18.5 14C18.5 16.4853 16.4853 18.5 14 18.5C11.5147 18.5 9.5 16.4853 9.5 14C9.5 11.5147 11.5147 9.5 14 9.5ZM14.4199 10.7949C13.8885 10.7342 13.3467 10.7951 12.8408 10.9736C12.2722 11.1743 11.7695 11.5167 11.3857 11.9639C11.002 12.411 10.7513 12.9467 10.6602 13.5146C10.579 14.0204 10.6271 14.5352 10.7988 15.0156C10.8344 15.1151 10.9481 15.1602 11.0498 15.1201L12.2295 14.6553C12.3366 14.6129 12.3882 14.4922 12.3584 14.3848C12.3002 14.1753 12.2876 13.9557 12.3223 13.7393C12.3678 13.4552 12.4927 13.1865 12.6846 12.9629C12.8764 12.7394 13.1279 12.5691 13.4121 12.4688C13.6327 12.3909 13.8671 12.3572 14.0996 12.3701C14.2111 12.3763 14.318 12.3047 14.3398 12.1963L14.5781 11.0176C14.5998 10.9102 14.5296 10.8075 14.4199 10.7949ZM24.2412 5C25.2126 5.00008 26 5.77107 26 6.72168V13.25H19.9512C19.6126 10.5362 17.4639 8.38635 14.75 8.04785V5H24.2412ZM13.25 8.04785C10.5361 8.38635 8.38738 10.5362 8.04883 13.25H2V6.72168C2 5.77107 2.78742 5.00008 3.75879 5H13.25V8.04785Z" fill="black"/>
</svg>
