<svg width="20" height="20" viewBox="0 0 20 20" fill="none" xmlns="http://www.w3.org/2000/svg">
<path d="M14.5 12C15.8807 12 17 13.1193 17 14.5C17 15.8807 15.8807 17 14.5 17C13.1193 17 12 15.8807 12 14.5C12 13.1193 13.1193 12 14.5 12Z" fill="#212121"/>
<path d="M14.5 10C16.9853 10 19 12.0147 19 14.5C19 16.9853 16.9853 19 14.5 19C12.0147 19 10 16.9853 10 14.5C10 12.0147 12.0147 10 14.5 10ZM14.5 11C12.567 11 11 12.567 11 14.5C11 16.433 12.567 18 14.5 18C16.433 18 18 16.433 18 14.5C18 12.567 16.433 11 14.5 11Z" fill="#212121"/>
<path d="M13 2C14.6569 2 16 3.34315 16 5V9.20801C15.6777 9.11682 15.3435 9.05439 15 9.02344V5C15 3.89543 14.1046 3 13 3H7C5.89543 3 5 3.89543 5 5V15C5 16.1046 5.89543 17 7 17H9.60156C9.78445 17.3576 10.0043 17.693 10.2578 18H7C5.34315 18 4 16.6569 4 15V5C4 3.34315 5.34315 2 7 2H13Z" fill="#212121"/>
<path d="M9.02344 14C9.00859 14.1647 9 14.3314 9 14.5C9 14.6686 9.00859 14.8353 9.02344 15H8C7.72386 15 7.5 14.7761 7.5 14.5C7.5 14.2239 7.72386 14 8 14H9.02344Z" fill="#212121"/>
<path d="M9.8916 11.5C9.68754 11.8128 9.5147 12.1474 9.37695 12.5H8C7.72386 12.5 7.5 12.2761 7.5 12C7.5 11.7239 7.72386 11.5 8 11.5H9.8916Z" fill="#212121"/>
<path d="M10 6C10.5523 6 11 6.44772 11 7C11 7.55228 10.5523 8 10 8C9.44772 8 9 7.55228 9 7C9 6.44772 9.44772 6 10 6Z" fill="#212121"/>
<path d="M12.1504 4.5C12.9023 4.5 13.4839 5.15921 13.3906 5.90527L13.0781 8.40527C12.9998 9.03069 12.4682 9.5 11.8379 9.5H8.16211C7.53179 9.5 7.00017 9.03069 6.92188 8.40527L6.60938 5.90527C6.51612 5.15921 7.09774 4.5 7.84961 4.5H12.1504ZM7.84961 5.5C7.69923 5.5 7.58291 5.63204 7.60156 5.78125L7.91406 8.28125C7.92981 8.40624 8.03611 8.5 8.16211 8.5H11.8379C11.9639 8.5 12.0702 8.40624 12.0859 8.28125L12.3984 5.78125C12.4171 5.63204 12.3008 5.5 12.1504 5.5H7.84961Z" fill="#212121"/>
</svg>
