<svg width="20" height="20" viewBox="0 0 20 20" fill="none" xmlns="http://www.w3.org/2000/svg">
<path d="M14.5 12C15.8807 12 17 13.1193 17 14.5C17 15.8807 15.8807 17 14.5 17C13.1193 17 12 15.8807 12 14.5C12 13.1193 13.1193 12 14.5 12Z" fill="#212121"/>
<path d="M14.5 10C16.9853 10 19 12.0147 19 14.5C19 16.9853 16.9853 19 14.5 19C12.0147 19 10 16.9853 10 14.5C10 12.0147 12.0147 10 14.5 10ZM14.5 11C12.567 11 11 12.567 11 14.5C11 16.433 12.567 18 14.5 18C16.433 18 18 16.433 18 14.5C18 12.567 16.433 11 14.5 11Z" fill="#212121"/>
<path d="M10 5.5C10.8284 5.5 11.5 6.17157 11.5 7C11.5 7.82843 10.8284 8.5 10 8.5C9.17157 8.5 8.5 7.82843 8.5 7C8.5 6.17157 9.17157 5.5 10 5.5ZM10 6.5C9.72386 6.5 9.5 6.72386 9.5 7C9.5 7.27614 9.72386 7.5 10 7.5C10.2761 7.5 10.5 7.27614 10.5 7C10.5 6.72386 10.2761 6.5 10 6.5Z" fill="#212121"/>
<path d="M13 2C14.6569 2 16 3.34315 16 5V9.20801C15.5231 9.0731 15.0201 9 14.5 9C12.5696 9 10.8731 9.99544 9.8916 11.5H8C7.72386 11.5 7.5 11.7239 7.5 12C7.5 12.2761 7.72386 12.5 8 12.5H9.37695C9.19256 12.972 9.07075 13.4751 9.02344 14H8C7.72386 14 7.5 14.2239 7.5 14.5C7.5 14.7761 7.72386 15 8 15H9.02344C9.1257 16.1346 9.57189 17.1696 10.2578 18H7C5.34315 18 4 16.6569 4 15V5C4 3.34315 5.34315 2 7 2H13ZM7.84961 5C7.39857 5 7.04967 5.39523 7.10547 5.84277L7.41797 8.34277C7.46488 8.71809 7.78387 9 8.16211 9H11.8379C12.2161 9 12.5351 8.71809 12.582 8.34277L12.8945 5.84277C12.9503 5.39523 12.6014 5 12.1504 5H7.84961Z" fill="#212121"/>
</svg>
