<svg width="12" height="12" viewBox="0 0 12 12" fill="none" xmlns="http://www.w3.org/2000/svg">
<path d="M8.78719 5.38023C8.71966 5.31789 8.60018 5.25036 8.51187 5.26594C8.40797 5.27114 8.31446 5.3127 8.24693 5.38542L4.65728 9.06338C4.61053 9.11533 4.55858 9.18806 4.50663 9.27118C4.47026 9.32832 4.41832 9.42183 4.39234 9.51534L4.05468 10.8348C4.02351 10.9283 4.0287 11.0322 4.05468 11.1205C4.07546 11.2089 4.1274 11.292 4.20533 11.3647C4.28325 11.4322 4.36117 11.4738 4.44949 11.4894C4.49104 11.4998 4.52741 11.4998 4.56377 11.4998C4.6365 11.4998 4.69364 11.4894 4.7352 11.4686L6.02872 11.0218C6.17937 10.9699 6.31964 10.8764 6.41834 10.7673L8.73524 8.38805L10.0028 7.09453C10.1482 6.94388 10.1431 6.69453 9.9976 6.55427L8.78719 5.37503V5.38023Z" fill="#212121"/>
<path d="M11.5091 5.23511L9.987 3.78575C9.91427 3.71302 9.79999 3.71302 9.72726 3.78575L8.79218 4.71563C8.76101 4.7468 8.74023 4.79355 8.74023 4.8455C8.74023 4.86628 8.75582 4.92342 8.79738 4.95979L10.3195 6.40915C10.3558 6.44552 10.4026 6.4611 10.4493 6.4611C10.4961 6.4611 10.5429 6.44552 10.5844 6.40915L11.5091 5.48447C11.5455 5.4533 11.5662 5.41174 11.5662 5.35979C11.5662 5.31823 11.5455 5.27148 11.5143 5.23511H11.5091Z" fill="#212121"/>
<path d="M3.99743 9.49492C4.01302 9.42739 4.0338 9.37544 4.05977 9.32868L4.10653 9.24037H2.55326C2.12209 9.24037 1.76884 8.88712 1.76884 8.45075V3.56239H3.28054V4.12863C3.28054 4.20136 3.31691 4.26369 3.37405 4.30006L4.10653 4.75201C4.10653 4.75201 4.12211 4.7624 4.1325 4.7624C4.12211 4.78318 4.11692 4.80915 4.11172 4.83513C4.09614 4.91305 4.09094 4.98578 4.09094 5.0689C4.09094 5.75981 4.65718 6.32605 5.3481 6.32605C6.03901 6.32605 6.61564 5.75981 6.61564 5.0689C6.61564 4.98578 6.61564 4.91305 6.59486 4.83513C6.59486 4.80915 6.58447 4.78318 6.57408 4.75721C6.57408 4.75721 6.58447 4.75721 6.58967 4.75721L7.32214 4.30525C7.37929 4.26889 7.42085 4.20136 7.42085 4.13382V3.56758H8.75593V4.31564L9.51957 3.56758V3.05329C9.51957 2.19614 8.82346 1.50003 7.96631 1.50003H2.55326C1.69611 1.49483 1 2.19095 1 3.0481V8.45075C1 9.3079 1.69611 10.004 2.55326 10.004H3.86237L3.95588 9.64037L3.99743 9.48972V9.49492Z" fill="#212121"/>
</svg>
