<svg width="48" height="48" viewBox="0 0 48 48" fill="none" xmlns="http://www.w3.org/2000/svg">
<path d="M35.1488 21.5219C34.8786 21.2725 34.4007 21.0024 34.0475 21.0647C33.6319 21.0855 33.2578 21.2518 32.9877 21.5427L18.6291 36.2545C18.4421 36.4623 18.2343 36.7532 18.0265 37.0857C17.8811 37.3143 17.6733 37.6883 17.5694 38.0623L16.2187 43.3403C16.094 43.7143 16.1148 44.1299 16.2187 44.4832C16.3018 44.8364 16.5096 45.1689 16.8213 45.4598C17.133 45.7299 17.4447 45.8962 17.7979 45.9585C17.9642 46.0001 18.1096 46.0001 18.2551 46.0001C18.546 46.0001 18.7746 45.9585 18.9408 45.8754L24.1149 44.0884C24.7175 43.8806 25.2785 43.5065 25.6733 43.0702L34.941 33.5532L40.0112 28.3791C40.593 27.7765 40.5722 26.7791 39.9904 26.218L35.1488 21.5011V21.5219Z" fill="#212121"/>
<path d="M46.0364 20.9405L39.948 15.143C39.6571 14.8521 39.1999 14.8521 38.909 15.143L35.1687 18.8625C35.0441 18.9872 34.9609 19.1742 34.9609 19.382C34.9609 19.4651 35.0233 19.6937 35.1895 19.8391L41.2779 25.6366C41.4233 25.7821 41.6104 25.8444 41.7974 25.8444C41.9844 25.8444 42.1714 25.7821 42.3376 25.6366L46.0364 21.9379C46.1818 21.8132 46.265 21.647 46.265 21.4392C46.265 21.2729 46.1818 21.0859 46.0572 20.9405H46.0364Z" fill="#212121"/>
<path d="M15.9897 37.9797C16.0521 37.7095 16.1352 37.5017 16.2391 37.3147L16.4261 36.9615H10.2131C8.48836 36.9615 7.07536 35.5485 7.07536 33.803V14.2496H13.1222V16.5145C13.1222 16.8054 13.2676 17.0548 13.4962 17.2002L16.4261 19.008C16.4261 19.008 16.4884 19.0496 16.53 19.0496C16.4884 19.1327 16.4677 19.2366 16.4469 19.3405C16.3845 19.6522 16.3638 19.9431 16.3638 20.2756C16.3638 23.0393 18.6287 25.3042 21.3924 25.3042C24.1561 25.3042 26.4626 23.0393 26.4626 20.2756C26.4626 19.9431 26.4626 19.6522 26.3795 19.3405C26.3795 19.2366 26.3379 19.1327 26.2963 19.0288C26.2963 19.0288 26.3379 19.0288 26.3587 19.0288L29.2886 17.221C29.5172 17.0756 29.6834 16.8054 29.6834 16.5353V14.2703H35.0237V17.2626L38.0783 14.2703V12.2132C38.0783 8.78456 35.2938 6.00012 31.8652 6.00012H10.2131C6.78445 5.97934 4 8.76378 4 12.1924V33.803C4 37.2316 6.78445 40.0161 10.2131 40.0161H15.4495L15.8235 38.5615L15.9897 37.9589V37.9797Z" fill="#212121"/>
</svg>
