<svg width="20" height="20" viewBox="0 0 20 20" fill="none" xmlns="http://www.w3.org/2000/svg">
<path d="M14.6453 8.9677C14.5328 8.8638 14.3336 8.75125 14.1864 8.77722C14.0133 8.78588 13.8574 8.85514 13.7449 8.97636L7.76213 15.1063C7.68421 15.1929 7.59763 15.3141 7.51105 15.4526C7.45044 15.5479 7.36386 15.7037 7.32057 15.8595L6.75779 18.0587C6.70584 18.2146 6.7145 18.3877 6.75779 18.5349C6.79243 18.6821 6.87901 18.8206 7.00888 18.9418C7.13875 19.0544 7.26862 19.1237 7.41581 19.1496C7.48507 19.1669 7.54568 19.1669 7.60629 19.1669C7.7275 19.1669 7.82274 19.1496 7.892 19.115L10.0479 18.3704C10.299 18.2838 10.5327 18.128 10.6972 17.9461L14.5587 13.9807L16.6713 11.8249C16.9137 11.5738 16.9051 11.1582 16.6627 10.9244L14.6453 8.95904V8.9677Z" fill="#212121"/>
<path d="M19.1817 8.72519L16.6448 6.30958C16.5236 6.18837 16.3331 6.18837 16.2119 6.30958L14.6535 7.85938C14.6015 7.91133 14.5669 7.98925 14.5669 8.07583C14.5669 8.11046 14.5929 8.2057 14.6621 8.26631L17.199 10.6819C17.2596 10.7425 17.3375 10.7685 17.4154 10.7685C17.4933 10.7685 17.5713 10.7425 17.6405 10.6819L19.1817 9.14078C19.2423 9.08883 19.2769 9.01956 19.2769 8.93298C19.2769 8.86372 19.2423 8.78579 19.1903 8.72519H19.1817Z" fill="#212121"/>
<path d="M6.66223 15.8249C6.6882 15.7123 6.72283 15.6257 6.76612 15.5478L6.84405 15.4006H4.25528C3.53665 15.4006 2.9479 14.8119 2.9479 14.0846V5.93731H5.46741V6.88105C5.46741 7.00226 5.52802 7.10616 5.62326 7.16676L6.84405 7.92002C6.84405 7.92002 6.87002 7.93733 6.88734 7.93733C6.87002 7.97197 6.86136 8.01526 6.85271 8.05855C6.82673 8.18842 6.81807 8.30963 6.81807 8.44816C6.81807 9.59969 7.76181 10.5434 8.91333 10.5434C10.0649 10.5434 11.0259 9.59969 11.0259 8.44816C11.0259 8.30963 11.0259 8.18842 10.9913 8.05855C10.9913 8.01526 10.974 7.97197 10.9566 7.92868C10.9566 7.92868 10.974 7.92868 10.9826 7.92868L12.2034 7.17542C12.2987 7.11482 12.3679 7.00226 12.3679 6.8897V5.94597H14.593V7.19274L15.8658 5.94597V5.08882C15.8658 3.66023 14.7056 2.50005 13.277 2.50005H4.25528C2.82669 2.49139 1.6665 3.65158 1.6665 5.08016V14.0846C1.6665 15.5132 2.82669 16.6734 4.25528 16.6734H6.43712L6.59296 16.0673L6.66223 15.8162V15.8249Z" fill="#212121"/>
</svg>
