<svg width="32" height="32" viewBox="0 0 32 32" fill="none" xmlns="http://www.w3.org/2000/svg">
<path d="M23.4324 14.3479C23.2523 14.1817 22.9336 14.0016 22.6981 14.0432C22.4211 14.057 22.1717 14.1678 21.9916 14.3618L12.4193 24.1697C12.2946 24.3082 12.156 24.5021 12.0175 24.7238C11.9205 24.8762 11.782 25.1255 11.7127 25.3749L10.8123 28.8935C10.7292 29.1429 10.743 29.4199 10.8123 29.6554C10.8677 29.8909 11.0062 30.1126 11.214 30.3065C11.4218 30.4866 11.6296 30.5975 11.8651 30.639C11.976 30.6667 12.0729 30.6667 12.1699 30.6667C12.3638 30.6667 12.5162 30.639 12.627 30.5836L16.0764 29.3922C16.4782 29.2537 16.8522 29.0044 17.1154 28.7134L23.2938 22.3688L26.6739 18.9194C27.0618 18.5177 27.048 17.8527 26.6601 17.4787L23.4324 14.3341V14.3479Z" fill="#212121"/>
<path d="M30.6908 13.9603L26.6318 10.0953C26.4379 9.90138 26.1331 9.90138 25.9392 10.0953L23.4457 12.575C23.3625 12.6581 23.3071 12.7828 23.3071 12.9213C23.3071 12.9767 23.3487 13.1291 23.4595 13.2261L27.5184 17.0911C27.6154 17.188 27.7401 17.2296 27.8648 17.2296C27.9894 17.2296 28.1141 17.188 28.2249 17.0911L30.6908 14.6252C30.7877 14.5421 30.8431 14.4313 30.8431 14.2928C30.8431 14.1819 30.7877 14.0573 30.7046 13.9603H30.6908Z" fill="#212121"/>
<path d="M10.6597 25.3198C10.7012 25.1397 10.7566 25.0012 10.8259 24.8765L10.9506 24.641H6.80854C5.65874 24.641 4.71674 23.699 4.71674 22.5353V9.4997H8.74795V11.0097C8.74795 11.2036 8.84492 11.3699 8.99731 11.4668L10.9506 12.672C10.9506 12.672 10.9921 12.6997 11.0198 12.6997C10.9921 12.7551 10.9783 12.8244 10.9644 12.8937C10.9229 13.1015 10.909 13.2954 10.909 13.5171C10.909 15.3595 12.419 16.8695 14.2614 16.8695C16.1039 16.8695 17.6416 15.3595 17.6416 13.5171C17.6416 13.2954 17.6416 13.1015 17.5861 12.8937C17.5861 12.8244 17.5584 12.7551 17.5307 12.6859C17.5307 12.6859 17.5584 12.6859 17.5723 12.6859L19.5256 11.4807C19.6779 11.3837 19.7888 11.2036 19.7888 11.0235V9.51355H23.349V11.5084L25.3854 9.51355V8.14211C25.3854 5.85637 23.5291 4.00008 21.2433 4.00008H6.80854C4.5228 3.98622 2.6665 5.84252 2.6665 8.12826V22.5353C2.6665 24.8211 4.5228 26.6774 6.80854 26.6774H10.2995L10.5488 25.7077L10.6597 25.3059V25.3198Z" fill="#212121"/>
</svg>
