<svg width="48" height="48" viewBox="0 0 48 48" fill="none" xmlns="http://www.w3.org/2000/svg">
<path d="M35.1483 21.5209C34.8782 21.2716 34.4002 21.0014 34.047 21.0638C33.6314 21.0845 33.2574 21.2508 32.9872 21.5417L18.6286 36.2535C18.4416 36.4613 18.2338 36.7522 18.026 37.0847C17.8806 37.3133 17.6728 37.6873 17.5689 38.0614L16.2182 43.3393C16.0935 43.7134 16.1143 44.1289 16.2182 44.4822C16.3013 44.8354 16.5091 45.1679 16.8208 45.4588C17.1325 45.729 17.4442 45.8952 17.7975 45.9575C17.9637 45.9991 18.1091 45.9991 18.2546 45.9991C18.5455 45.9991 18.7741 45.9575 18.9403 45.8744L24.1144 44.0874C24.717 43.8796 25.2781 43.5056 25.6729 43.0692L34.9405 33.5522L40.0107 28.3781C40.5925 27.7755 40.5717 26.7781 39.9899 26.2171L35.1483 21.5001V21.5209ZM33.2781 30.9548L26.0884 38.3107L23.3663 41.0744C23.3663 41.0744 23.2209 41.199 23.117 41.2198L19.6053 42.4458L20.1455 40.3471V40.2847L20.5196 38.8925C20.5196 38.851 20.6027 38.7471 20.6235 38.6847C20.6858 38.6224 20.7274 38.5393 20.7689 38.4769L34.0885 24.7833L36.7483 27.3807L35.8548 28.295V28.2535L33.2574 30.9548H33.2781Z" fill="#212121"/>
<path d="M46.0369 20.9405L39.9485 15.143C39.6576 14.8521 39.2004 14.8521 38.9095 15.143L35.1692 18.8625C35.0445 18.9872 34.9614 19.1742 34.9614 19.382C34.9614 19.4651 35.0238 19.6937 35.19 19.8391L41.2784 25.6366C41.4238 25.7821 41.6108 25.8444 41.7979 25.8444C41.9849 25.8444 42.1719 25.7821 42.3381 25.6366L46.0369 21.9379C46.1823 21.8132 46.2654 21.647 46.2654 21.4392C46.2654 21.2729 46.1823 21.0859 46.0576 20.9405H46.0369Z" fill="#212121"/>
<path d="M15.9902 37.9797C16.0526 37.7095 16.1357 37.5017 16.2396 37.3147L16.4266 36.9615H10.2135C8.48885 36.9615 7.07585 35.5485 7.07585 33.803V14.2496H13.1227V16.5145C13.1227 16.8054 13.2681 17.0548 13.4967 17.2002L16.4266 19.008C16.4266 19.008 16.4889 19.0496 16.5305 19.0496C16.4889 19.1327 16.4682 19.2366 16.4474 19.3405C16.385 19.6522 16.3643 19.9431 16.3643 20.2756C16.3643 23.0393 18.6292 25.3042 21.3929 25.3042C24.1565 25.3042 26.4631 23.0393 26.4631 20.2756C26.4631 19.9431 26.4631 19.6522 26.3799 19.3405C26.3799 19.2366 26.3384 19.1327 26.2968 19.0288C26.2968 19.0288 26.3384 19.0288 26.3592 19.0288L29.2891 17.221C29.5176 17.0756 29.6839 16.8054 29.6839 16.5353V14.2703H35.0242V17.2626L38.0788 14.2703V12.2132C38.0788 8.78456 35.2943 6.00012 31.8657 6.00012H10.2135C6.78493 5.97934 4.00049 8.76378 4.00049 12.1924V33.803C4.00049 37.2316 6.78493 40.0161 10.2135 40.0161H15.45L15.824 38.5615L15.9902 37.9589V37.9797ZM7.2213 11.1742C7.65767 9.92743 8.86288 9.03391 10.2135 9.03391H31.8449C33.2164 9.03391 34.4008 9.90665 34.858 11.1742H7.2213ZM21.3721 22.6237C20.0838 22.6237 19.024 21.5639 19.024 20.2756C19.024 19.9223 19.0864 19.6314 19.2318 19.3405C19.2318 19.2782 19.2942 19.1951 19.3357 19.1327H23.4085C23.4085 19.1327 23.4916 19.2782 23.5124 19.3405C23.6786 19.6314 23.741 19.9223 23.741 20.2756C23.741 21.5639 22.6812 22.6237 21.3721 22.6237ZM27.0657 15.5171L25.4241 16.5353H17.3617L15.7201 15.5171V14.2496H27.0657V15.5171Z" fill="#212121"/>
</svg>
