<svg width="12" height="12" viewBox="0 0 12 12" fill="none" xmlns="http://www.w3.org/2000/svg">
<path d="M8.78719 5.38023C8.71966 5.31789 8.60018 5.25036 8.51187 5.26594C8.40797 5.27114 8.31446 5.3127 8.24693 5.38542L4.65728 9.06339C4.61053 9.11533 4.55858 9.18806 4.50663 9.27118C4.47026 9.32832 4.41832 9.42183 4.39234 9.51534L4.05468 10.8348C4.02351 10.9283 4.0287 11.0322 4.05468 11.1205C4.07546 11.2089 4.1274 11.292 4.20533 11.3647C4.28325 11.4322 4.36117 11.4738 4.44949 11.4894C4.49104 11.4998 4.52741 11.4998 4.56377 11.4998C4.6365 11.4998 4.69364 11.4894 4.7352 11.4686L6.02872 11.0218C6.17937 10.9699 6.31964 10.8764 6.41834 10.7673L8.73524 8.38805L10.0028 7.09453C10.1482 6.94388 10.1431 6.69453 9.99759 6.55427L8.78719 5.37503V5.38023ZM8.31966 7.7387L6.52223 9.57768L5.84171 10.2686C5.84171 10.2686 5.80534 10.2998 5.77937 10.305L4.90144 10.6115L5.0365 10.0868V10.0712L5.13001 9.72313C5.13001 9.71274 5.15079 9.68677 5.15599 9.67118C5.17157 9.6556 5.18196 9.63482 5.19235 9.61924L8.52225 6.19582L9.1872 6.84518L8.96382 7.07375V7.06336L8.31446 7.7387H8.31966Z" fill="#212121"/>
<path d="M11.5091 5.23536L9.987 3.78599C9.91427 3.71326 9.79999 3.71326 9.72726 3.78599L8.79218 4.71587C8.76101 4.74704 8.74023 4.79379 8.74023 4.84574C8.74023 4.86652 8.75582 4.92367 8.79738 4.96003L10.3195 6.4094C10.3558 6.44576 10.4026 6.46134 10.4493 6.46134C10.4961 6.46134 10.5429 6.44576 10.5844 6.4094L11.5091 5.48471C11.5455 5.45354 11.5662 5.41198 11.5662 5.36003C11.5662 5.31847 11.5455 5.27172 11.5143 5.23536H11.5091Z" fill="#212121"/>
<path d="M3.99743 9.49492C4.01302 9.42739 4.0338 9.37544 4.05977 9.32868L4.10653 9.24037H2.55326C2.12209 9.24037 1.76884 8.88712 1.76884 8.45075V3.56239H3.28054V4.12863C3.28054 4.20136 3.31691 4.26369 3.37405 4.30006L4.10653 4.75201C4.10653 4.75201 4.12211 4.7624 4.1325 4.7624C4.12211 4.78318 4.11692 4.80915 4.11172 4.83513C4.09614 4.91305 4.09094 4.98578 4.09094 5.0689C4.09094 5.75981 4.65718 6.32605 5.3481 6.32605C6.03901 6.32605 6.61564 5.75981 6.61564 5.0689C6.61564 4.98578 6.61564 4.91305 6.59486 4.83513C6.59486 4.80915 6.58447 4.78318 6.57408 4.75721C6.57408 4.75721 6.58447 4.75721 6.58967 4.75721L7.32214 4.30525C7.37929 4.26889 7.42085 4.20136 7.42085 4.13382V3.56758H8.75593V4.31564L9.51957 3.56758V3.05329C9.51957 2.19614 8.82346 1.50003 7.96631 1.50003H2.55326C1.69611 1.49483 1 2.19095 1 3.0481V8.45075C1 9.3079 1.69611 10.004 2.55326 10.004H3.86237L3.95588 9.64037L3.99743 9.48972V9.49492ZM1.8052 2.79355C1.9143 2.48186 2.2156 2.25848 2.55326 2.25848H7.96111C8.30397 2.25848 8.60008 2.47666 8.71437 2.79355H1.8052ZM5.3429 5.65592C5.02082 5.65592 4.75588 5.39098 4.75588 5.0689C4.75588 4.98059 4.77147 4.90786 4.80783 4.83513C4.80783 4.81954 4.82342 4.79877 4.83381 4.78318H5.852C5.852 4.78318 5.87278 4.81954 5.87797 4.83513C5.91953 4.90786 5.93512 4.98059 5.93512 5.0689C5.93512 5.39098 5.67018 5.65592 5.3429 5.65592ZM6.76629 3.87927L6.3559 4.13382H4.34029L3.9299 3.87927V3.56239H6.76629V3.87927Z" fill="#212121"/>
</svg>
