<svg width="32" height="32" viewBox="0 0 32 32" fill="none" xmlns="http://www.w3.org/2000/svg">
<path d="M23.4325 14.3476C23.2524 14.1814 22.9338 14.0013 22.6983 14.0429C22.4212 14.0567 22.1719 14.1676 21.9918 14.3615L12.4194 24.1694C12.2947 24.3079 12.1562 24.5019 12.0176 24.7235C11.9207 24.8759 11.7821 25.1253 11.7129 25.3746L10.8124 28.8933C10.7293 29.1426 10.7432 29.4197 10.8124 29.6552C10.8678 29.8907 11.0064 30.1123 11.2142 30.3063C11.422 30.4863 11.6297 30.5972 11.8652 30.6387C11.9761 30.6664 12.073 30.6664 12.17 30.6664C12.364 30.6664 12.5163 30.6387 12.6272 30.5833L16.0765 29.392C16.4783 29.2534 16.8523 29.0041 17.1155 28.7132L23.2939 22.3685L26.6741 18.9191C27.0619 18.5174 27.0481 17.8524 26.6602 17.4784L23.4325 14.3338V14.3476ZM22.1857 20.6369L17.3926 25.5408L15.5778 27.3833C15.5778 27.3833 15.4809 27.4664 15.4116 27.4803L13.0705 28.2976L13.4306 26.8984V26.8569L13.68 25.9287C13.68 25.901 13.7354 25.8318 13.7493 25.7902C13.7908 25.7486 13.8185 25.6932 13.8462 25.6517L22.726 16.5226L24.4991 18.2542L23.9035 18.8637V18.836L22.1719 20.6369H22.1857Z" fill="#212121"/>
<path d="M30.6912 13.9602L26.6323 10.0952C26.4384 9.90129 26.1336 9.90129 25.9397 10.0952L23.4461 12.5749C23.363 12.658 23.3076 12.7827 23.3076 12.9212C23.3076 12.9766 23.3492 13.129 23.46 13.226L27.5189 17.091C27.6159 17.1879 27.7406 17.2295 27.8652 17.2295C27.9899 17.2295 28.1146 17.1879 28.2254 17.091L30.6912 14.6252C30.7882 14.542 30.8436 14.4312 30.8436 14.2927C30.8436 14.1819 30.7882 14.0572 30.7051 13.9602H30.6912Z" fill="#212121"/>
<path d="M10.6602 25.3198C10.7017 25.1397 10.7571 25.0012 10.8264 24.8765L10.9511 24.641H6.80903C5.65923 24.641 4.71723 23.699 4.71723 22.5353V9.4997H8.74844V11.0097C8.74844 11.2036 8.84541 11.3699 8.9978 11.4668L10.9511 12.672C10.9511 12.672 10.9926 12.6997 11.0203 12.6997C10.9926 12.7551 10.9788 12.8244 10.9649 12.8937C10.9234 13.1015 10.9095 13.2954 10.9095 13.5171C10.9095 15.3595 12.4195 16.8695 14.2619 16.8695C16.1044 16.8695 17.642 15.3595 17.642 13.5171C17.642 13.2954 17.642 13.1015 17.5866 12.8937C17.5866 12.8244 17.5589 12.7551 17.5312 12.6859C17.5312 12.6859 17.5589 12.6859 17.5728 12.6859L19.526 11.4807C19.6784 11.3837 19.7893 11.2036 19.7893 11.0235V9.51355H23.3495V11.5084L25.3858 9.51355V8.14211C25.3858 5.85637 23.5296 4.00008 21.2438 4.00008H6.80903C4.52329 3.98622 2.66699 5.84252 2.66699 8.12826V22.5353C2.66699 24.8211 4.52329 26.6774 6.80903 26.6774H10.3L10.5493 25.7077L10.6602 25.3059V25.3198ZM4.8142 7.44946C5.10511 6.61829 5.90859 6.02261 6.80903 6.02261H21.23C22.1443 6.02261 22.9339 6.60443 23.2386 7.44946H4.8142ZM14.2481 15.0824C13.3892 15.0824 12.6827 14.3759 12.6827 13.5171C12.6827 13.2816 12.7242 13.0876 12.8212 12.8937C12.8212 12.8521 12.8628 12.7967 12.8905 12.7551H15.6057C15.6057 12.7551 15.6611 12.8521 15.6749 12.8937C15.7857 13.0876 15.8273 13.2816 15.8273 13.5171C15.8273 14.3759 15.1208 15.0824 14.2481 15.0824ZM18.0438 10.3447L16.9494 11.0235H11.5744L10.4801 10.3447V9.4997H18.0438V10.3447Z" fill="#212121"/>
</svg>
