<svg width="28" height="28" viewBox="0 0 28 28" fill="none" xmlns="http://www.w3.org/2000/svg">
<path d="M20.5035 12.5542C20.3459 12.4087 20.0671 12.2512 19.861 12.2875C19.6186 12.2996 19.4004 12.3966 19.2428 12.5663L10.867 21.1482C10.7579 21.2694 10.6367 21.4391 10.5155 21.6331C10.4306 21.7664 10.3094 21.9846 10.2488 22.2028L9.46091 25.2816C9.38818 25.4998 9.4003 25.7422 9.46091 25.9483C9.5094 26.1543 9.63061 26.3483 9.81243 26.518C9.99425 26.6756 10.1761 26.7725 10.3821 26.8089C10.4791 26.8331 10.564 26.8331 10.6488 26.8331C10.8185 26.8331 10.9518 26.8089 11.0488 26.7604L14.067 25.718C14.4185 25.5968 14.7458 25.3786 14.9761 25.124L20.3822 19.5725L23.3398 16.5542C23.6792 16.2027 23.6671 15.6209 23.3277 15.2936L20.5035 12.5421V12.5542Z" fill="#212121"/>
<path d="M26.8547 12.2153L23.3032 8.83341C23.1335 8.66371 22.8668 8.66371 22.6971 8.83341L20.5153 11.0031C20.4425 11.0759 20.394 11.185 20.394 11.3062C20.394 11.3546 20.4304 11.488 20.5274 11.5728L24.0789 14.9547C24.1638 15.0395 24.2729 15.0759 24.382 15.0759C24.4911 15.0759 24.6001 15.0395 24.6971 14.9547L26.8547 12.7971C26.9396 12.7244 26.9881 12.6274 26.9881 12.5062C26.9881 12.4092 26.9396 12.3001 26.8668 12.2153H26.8547Z" fill="#212121"/>
<path d="M9.32751 22.1548C9.36387 21.9972 9.41236 21.876 9.47296 21.7669L9.58206 21.5609H5.95778C4.95171 21.5609 4.12745 20.7366 4.12745 19.7184V8.31224H7.65476V9.63346C7.65476 9.80316 7.73961 9.94862 7.87295 10.0335L9.58206 11.088C9.58206 11.088 9.61842 11.1123 9.64266 11.1123C9.61842 11.1608 9.6063 11.2214 9.59418 11.282C9.55781 11.4638 9.54569 11.6335 9.54569 11.8274C9.54569 13.4396 10.8669 14.7608 12.4791 14.7608C14.0912 14.7608 15.4367 13.4396 15.4367 11.8274C15.4367 11.6335 15.4367 11.4638 15.3882 11.282C15.3882 11.2214 15.3639 11.1608 15.3397 11.1001C15.3397 11.1001 15.3639 11.1001 15.3761 11.1001L17.0852 10.0456C17.2185 9.96074 17.3155 9.80316 17.3155 9.64559V8.32436H20.4307V10.0698L22.2125 8.32436V7.12435C22.2125 5.12433 20.5882 3.50007 18.5882 3.50007H5.95778C3.95776 3.48795 2.3335 5.11221 2.3335 7.11223V19.7184C2.3335 21.7184 3.95776 23.3427 5.95778 23.3427H9.01235L9.23054 22.4942L9.32751 22.1427V22.1548Z" fill="#212121"/>
</svg>
