<svg width="24" height="24" viewBox="0 0 24 24" fill="none" xmlns="http://www.w3.org/2000/svg">
<path d="M17.5744 10.7609C17.4393 10.6363 17.2004 10.5012 17.0237 10.5324C16.8159 10.5428 16.6289 10.6259 16.4939 10.7713L9.31456 18.1273C9.22105 18.2312 9.11715 18.3766 9.01326 18.5428C8.94053 18.6571 8.83663 18.8441 8.78468 19.0312L8.10935 21.6702C8.04701 21.8572 8.0574 22.065 8.10935 22.2416C8.15091 22.4182 8.25481 22.5844 8.41065 22.7299C8.5665 22.865 8.72235 22.9481 8.89897 22.9793C8.98209 23 9.05482 23 9.12754 23C9.273 23 9.38729 22.9793 9.47041 22.9377L12.0574 22.0442C12.3587 21.9403 12.6393 21.7533 12.8367 21.5351L17.4705 16.7766L20.0056 14.1896C20.2965 13.8883 20.2861 13.3895 19.9952 13.109L17.5744 10.7506V10.7609ZM16.6393 15.4779L13.0445 19.1558L11.6834 20.5377C11.6834 20.5377 11.6107 20.6 11.5587 20.6104L9.80288 21.2234L10.073 20.174V20.1429L10.26 19.4468C10.26 19.426 10.3016 19.374 10.312 19.3429C10.3431 19.3117 10.3639 19.2701 10.3847 19.239L17.0445 12.3921L18.3744 13.6908L17.9276 14.148V14.1272L16.6289 15.4779H16.6393Z" fill="#212121"/>
<path d="M23.0182 10.4702L19.974 7.57149C19.8285 7.42604 19.6 7.42604 19.4545 7.57149L17.5844 9.43125C17.522 9.49359 17.4805 9.5871 17.4805 9.691C17.4805 9.73256 17.5116 9.84684 17.5948 9.91957L20.6389 12.8183C20.7117 12.891 20.8052 12.9222 20.8987 12.9222C20.9922 12.9222 21.0857 12.891 21.1688 12.8183L23.0182 10.9689C23.0909 10.9066 23.1325 10.8235 23.1325 10.7196C23.1325 10.6365 23.0909 10.543 23.0286 10.4702H23.0182Z" fill="#212121"/>
<path d="M7.99487 18.9898C8.02604 18.8548 8.0676 18.7509 8.11954 18.6574L8.21305 18.4807H5.10653C4.24418 18.4807 3.53768 17.7742 3.53768 16.9015V7.12478H6.56109V8.25726C6.56109 8.40271 6.63382 8.52739 6.7481 8.60012L8.21305 9.50402C8.21305 9.50402 8.24422 9.5248 8.265 9.5248C8.24422 9.56636 8.23383 9.61831 8.22344 9.67026C8.19227 9.8261 8.18188 9.97156 8.18188 10.1378C8.18188 11.5196 9.31436 12.6521 10.6962 12.6521C12.078 12.6521 13.2313 11.5196 13.2313 10.1378C13.2313 9.97156 13.2313 9.8261 13.1897 9.67026C13.1897 9.61831 13.1689 9.56636 13.1482 9.51441C13.1482 9.51441 13.1689 9.51441 13.1793 9.51441L14.6443 8.61051C14.7586 8.53778 14.8417 8.40271 14.8417 8.26765V7.13517H17.5119V8.63129L19.0391 7.13517V6.10658C19.0391 4.39228 17.6469 3.00006 15.9326 3.00006H5.10653C3.39222 2.98967 2 4.38189 2 6.09619V16.9015C2 18.6158 3.39222 20.008 5.10653 20.008H7.72474L7.91175 19.2807L7.99487 18.9794V18.9898ZM3.61041 5.5871C3.82859 4.96371 4.43119 4.51696 5.10653 4.51696H15.9222C16.6079 4.51696 17.2002 4.95332 17.4287 5.5871H3.61041ZM10.6858 11.3118C10.0416 11.3118 9.51177 10.782 9.51177 10.1378C9.51177 9.96117 9.54294 9.81571 9.61566 9.67026C9.61566 9.63909 9.64683 9.59753 9.66761 9.56636H11.704C11.704 9.56636 11.7456 9.63909 11.7559 9.67026C11.8391 9.81571 11.8702 9.96117 11.8702 10.1378C11.8702 10.782 11.3404 11.3118 10.6858 11.3118ZM13.5326 7.75855L12.7118 8.26765H8.68059L7.8598 7.75855V7.12478H13.5326V7.75855Z" fill="#212121"/>
</svg>
