<svg width="16" height="16" viewBox="0 0 16 16" fill="none" xmlns="http://www.w3.org/2000/svg">
<path d="M11.7164 7.17396C11.6264 7.09085 11.4671 7.0008 11.3493 7.02158C11.2108 7.02851 11.0861 7.08392 10.9961 7.18089L6.20987 12.0848C6.14753 12.1541 6.07827 12.2511 6.009 12.3619C5.96052 12.4381 5.89125 12.5628 5.85662 12.6874L5.4064 14.4468C5.36484 14.5714 5.37177 14.71 5.4064 14.8277C5.4341 14.9455 5.50337 15.0563 5.60727 15.1533C5.71116 15.2433 5.81506 15.2987 5.93281 15.3195C5.98822 15.3334 6.03671 15.3334 6.08519 15.3334C6.18216 15.3334 6.25835 15.3195 6.31377 15.2918L8.03846 14.6961C8.23933 14.6269 8.42634 14.5022 8.55795 14.3567L11.6472 11.1844L13.3372 9.4597C13.5312 9.25883 13.5242 8.92636 13.3303 8.73935L11.7164 7.16704V7.17396Z" fill="#212121"/>
<path d="M15.3456 6.98015L13.3162 5.04766C13.2192 4.95069 13.0668 4.95069 12.9698 5.04766L11.7231 6.2875C11.6815 6.32906 11.6538 6.3914 11.6538 6.46066C11.6538 6.48837 11.6746 6.56456 11.73 6.61305L13.7595 8.54554C13.8079 8.59402 13.8703 8.6148 13.9326 8.6148C13.995 8.6148 14.0573 8.59402 14.1127 8.54554L15.3456 7.31262C15.3941 7.27106 15.4218 7.21565 15.4218 7.14639C15.4218 7.09097 15.3941 7.02864 15.3526 6.98015H15.3456Z" fill="#212121"/>
<path d="M5.33008 12.6599C5.35085 12.5698 5.37856 12.5006 5.41319 12.4382L5.47553 12.3205H3.40451C2.82962 12.3205 2.35862 11.8495 2.35862 11.2677V4.74985H4.37422V5.50484C4.37422 5.60181 4.42271 5.68493 4.4989 5.73341L5.47553 6.33601C5.47553 6.33601 5.49631 6.34987 5.51016 6.34987C5.49631 6.37757 5.48938 6.41221 5.48246 6.44684C5.46168 6.55074 5.45475 6.64771 5.45475 6.75853C5.45475 7.67975 6.20974 8.43474 7.13096 8.43474C8.05218 8.43474 8.82102 7.67975 8.82102 6.75853C8.82102 6.64771 8.82102 6.55074 8.79331 6.44684C8.79331 6.41221 8.77946 6.37757 8.76561 6.34294C8.76561 6.34294 8.77946 6.34294 8.78639 6.34294L9.76302 5.74034C9.83921 5.69185 9.89462 5.60181 9.89462 5.51176V4.75678H11.6747V5.75419L12.6929 4.75678V4.07106C12.6929 2.92819 11.7648 2.00004 10.6219 2.00004H3.40451C2.26164 1.99311 1.3335 2.92126 1.3335 4.06413V11.2677C1.3335 12.4105 2.26164 13.3387 3.40451 13.3387H5.14999L5.27466 12.8538L5.33008 12.653V12.6599Z" fill="#212121"/>
</svg>
