<svg width="16" height="16" viewBox="0 0 16 16" fill="none" xmlns="http://www.w3.org/2000/svg">
<path d="M11.7162 7.17416C11.6261 7.09104 11.4668 7.001 11.3491 7.02178C11.2106 7.0287 11.0859 7.08412 10.9958 7.18109L6.20964 12.085C6.1473 12.1543 6.07804 12.2513 6.00877 12.3621C5.96029 12.4383 5.89102 12.563 5.85639 12.6876L5.40617 14.447C5.36461 14.5716 5.37154 14.7102 5.40617 14.8279C5.43388 14.9457 5.50314 15.0565 5.60704 15.1535C5.71093 15.2435 5.81483 15.2989 5.93258 15.3197C5.98799 15.3336 6.03648 15.3336 6.08496 15.3336C6.18194 15.3336 6.25813 15.3197 6.31354 15.292L8.03823 14.6963C8.2391 14.6271 8.42612 14.5024 8.55772 14.3569L11.6469 11.1846L13.337 9.4599C13.5309 9.25903 13.524 8.92656 13.3301 8.73954L11.7162 7.16723V7.17416ZM11.0928 10.3188L8.69625 12.7708L7.78888 13.692C7.78888 13.692 7.74039 13.7335 7.70576 13.7405L6.53519 14.1491L6.71527 13.4496V13.4288L6.83995 12.9647C6.83995 12.9508 6.86766 12.9162 6.87458 12.8954C6.89536 12.8747 6.90922 12.8469 6.92307 12.8262L11.3629 8.26162L12.2495 9.12743L11.9517 9.43219V9.41834L11.0859 10.3188H11.0928Z" fill="#212121"/>
<path d="M15.3451 6.98022L13.3157 5.04773C13.2187 4.95076 13.0663 4.95076 12.9694 5.04773L11.7226 6.28757C11.681 6.32913 11.6533 6.39146 11.6533 6.46073C11.6533 6.48844 11.6741 6.56463 11.7295 6.61311L13.759 8.5456C13.8075 8.59409 13.8698 8.61487 13.9321 8.61487C13.9945 8.61487 14.0568 8.59409 14.1122 8.5456L15.3451 7.31269C15.3936 7.27113 15.4213 7.21572 15.4213 7.14645C15.4213 7.09104 15.3936 7.0287 15.3521 6.98022H15.3451Z" fill="#212121"/>
<path d="M5.32959 12.6599C5.35037 12.5698 5.37807 12.5006 5.4127 12.4382L5.47504 12.3205H3.40403C2.82913 12.3205 2.35813 11.8495 2.35813 11.2677V4.74985H4.37373V5.50484C4.37373 5.60181 4.42222 5.68493 4.49841 5.73341L5.47504 6.33601C5.47504 6.33601 5.49582 6.34987 5.50968 6.34987C5.49582 6.37757 5.4889 6.41221 5.48197 6.44684C5.46119 6.55074 5.45426 6.64771 5.45426 6.75853C5.45426 7.67975 6.20925 8.43474 7.13047 8.43474C8.05169 8.43474 8.82053 7.67975 8.82053 6.75853C8.82053 6.64771 8.82053 6.55074 8.79283 6.44684C8.79283 6.41221 8.77897 6.37757 8.76512 6.34294C8.76512 6.34294 8.77897 6.34294 8.7859 6.34294L9.76253 5.74034C9.83873 5.69185 9.89414 5.60181 9.89414 5.51176V4.75678H11.6742V5.75419L12.6924 4.75678V4.07106C12.6924 2.92819 11.7643 2.00004 10.6214 2.00004H3.40403C2.26116 1.99311 1.33301 2.92126 1.33301 4.06413V11.2677C1.33301 12.4105 2.26116 13.3387 3.40403 13.3387H5.1495L5.27417 12.8538L5.32959 12.653V12.6599ZM2.40661 3.72473C2.55207 3.30914 2.9538 3.0113 3.40403 3.0113H10.6145C11.0716 3.0113 11.4664 3.30222 11.6188 3.72473H2.40661ZM7.12354 7.54122C6.6941 7.54122 6.34085 7.18797 6.34085 6.75853C6.34085 6.64078 6.36163 6.54381 6.41012 6.44684C6.41012 6.42606 6.4309 6.39835 6.44475 6.37757H7.80234C7.80234 6.37757 7.83005 6.42606 7.83697 6.44684C7.89238 6.54381 7.91316 6.64078 7.91316 6.75853C7.91316 7.18797 7.55991 7.54122 7.12354 7.54122ZM9.0214 5.17237L8.47421 5.51176H5.78673L5.23954 5.17237V4.74985H9.0214V5.17237Z" fill="#212121"/>
</svg>
