<svg width="24" height="24" viewBox="0 0 24 24" fill="none" xmlns="http://www.w3.org/2000/svg">
<path d="M17.5 10C17.5 5.85786 14.1421 2.5 10 2.5C5.85786 2.5 2.5 5.85786 2.5 10C2.5 14.1421 5.85786 17.5 10 17.5C11.7101 17.5 13.2866 16.9276 14.5483 15.964L19.2929 20.7071L19.3871 20.7903C19.7794 21.0953 20.3466 21.0676 20.7071 20.7071C21.0976 20.3166 21.0976 19.6834 20.7071 19.2929L15.964 14.5483C16.9276 13.2866 17.5 11.7101 17.5 10ZM9.25 12.25V7.25C9.25 6.83579 9.58579 6.5 10 6.5C10.4142 6.5 10.75 6.83579 10.75 7.25V12.25C10.75 12.6642 10.4142 13 10 13C9.58579 13 9.25 12.6642 9.25 12.25ZM6.75 12.25V9.75C6.75 9.33579 7.08579 9 7.5 9C7.91421 9 8.25 9.33579 8.25 9.75V12.25C8.25 12.6642 7.91421 13 7.5 13C7.08579 13 6.75 12.6642 6.75 12.25ZM12.5 13C12.0858 13 11.75 12.6642 11.75 12.25V8.75C11.75 8.33579 12.0858 8 12.5 8C12.9142 8 13.25 8.33579 13.25 8.75V12.25C13.25 12.6642 12.9142 13 12.5 13Z" fill="#212121"/>
</svg>
