<svg width="48" height="48" viewBox="0 0 48 48" fill="none" xmlns="http://www.w3.org/2000/svg">
<path d="M6 20.5C6 12.4919 12.4919 6 20.5 6C28.5081 6 35 12.4919 35 20.5C35 23.9638 33.7855 27.1439 31.7591 29.6377L41.5603 39.4389C42.1461 40.0247 42.1461 40.9744 41.5603 41.5602C40.9745 42.146 40.0247 42.146 39.439 41.5602L29.6377 31.759C27.1439 33.7855 23.9638 35 20.5 35C12.4919 35 6 28.5081 6 20.5ZM14.5 24.75C14.5 25.4404 15.0596 26 15.75 26C16.4404 26 17 25.4404 17 24.75V19.25C17 18.5596 16.4404 18 15.75 18C15.0596 18 14.5 18.5596 14.5 19.25V24.75ZM20.25 26C20.9404 26 21.5 25.4404 21.5 24.75V15.25C21.5 14.5596 20.9404 14 20.25 14C19.5596 14 19 14.5596 19 15.25V24.75C19 25.4404 19.5596 26 20.25 26ZM23.5 24.75C23.5 25.4404 24.0596 26 24.75 26C25.4404 26 26 25.4404 26 24.75V17.25C26 16.5596 25.4404 16 24.75 16C24.0596 16 23.5 16.5596 23.5 17.25V24.75Z" fill="#212121"/>
</svg>
