<svg width="24" height="24" viewBox="0 0 24 24" fill="none" xmlns="http://www.w3.org/2000/svg">
<path d="M6.75 12.25C6.75 12.6642 7.08579 13 7.5 13C7.91421 13 8.25 12.6642 8.25 12.25V10.25C8.25 9.83579 7.91421 9.5 7.5 9.5C7.08579 9.5 6.75 9.83579 6.75 10.25V12.25Z" fill="#212121"/>
<path d="M10 13C9.58579 13 9.25 12.6642 9.25 12.25V7.75C9.25 7.33579 9.58579 7 10 7C10.4142 7 10.75 7.33579 10.75 7.75V12.25C10.75 12.6642 10.4142 13 10 13Z" fill="#212121"/>
<path d="M11.75 12.25C11.75 12.6642 12.0858 13 12.5 13C12.9142 13 13.25 12.6642 13.25 12.25V9.25C13.25 8.83579 12.9142 8.5 12.5 8.5C12.0858 8.5 11.75 8.83579 11.75 9.25V12.25Z" fill="#212121"/>
<path d="M17.25 10C17.25 5.99594 14.0041 2.75 10 2.75C5.99594 2.75 2.75 5.99594 2.75 10C2.75 14.0041 5.99594 17.25 10 17.25C11.7319 17.25 13.3219 16.6427 14.5688 15.6295L19.4697 20.5303L19.5538 20.6029C19.8474 20.8208 20.2641 20.7966 20.5303 20.5303C20.8232 20.2374 20.8232 19.7626 20.5303 19.4697L15.6295 14.5688C16.6427 13.3219 17.25 11.7319 17.25 10ZM4.25 10C4.25 6.82436 6.82436 4.25 10 4.25C13.1756 4.25 15.75 6.82436 15.75 10C15.75 13.1756 13.1756 15.75 10 15.75C6.82436 15.75 4.25 13.1756 4.25 10Z" fill="#212121"/>
</svg>
