<svg width="48" height="48" viewBox="0 0 48 48" fill="none" xmlns="http://www.w3.org/2000/svg">
<path d="M14 24.75C14 25.4404 14.5596 26 15.25 26C15.9404 26 16.5 25.4404 16.5 24.75V19.25C16.5 18.5596 15.9404 18 15.25 18C14.5596 18 14 18.5596 14 19.25V24.75Z" fill="#212121"/>
<path d="M19.75 26C19.0596 26 18.5 25.4404 18.5 24.75V15.25C18.5 14.5596 19.0596 14 19.75 14C20.4404 14 21 14.5596 21 15.25V24.75C21 25.4404 20.4404 26 19.75 26Z" fill="#212121"/>
<path d="M23 24.75C23 25.4404 23.5596 26 24.25 26C24.9404 26 25.5 25.4404 25.5 24.75V17.25C25.5 16.5596 24.9404 16 24.25 16C23.5596 16 23 16.5596 23 17.25V24.75Z" fill="#212121"/>
<path d="M6 20C6 12.268 12.268 6 20 6C27.732 6 34 12.268 34 20C34 23.4159 32.7766 26.5461 30.7441 28.9763L41.6339 39.8661C42.1221 40.3543 42.1221 41.1457 41.6339 41.6339C41.1458 42.122 40.3543 42.122 39.8662 41.6339L28.9763 30.7441C26.5461 32.7766 23.4159 34 20 34C12.268 34 6 27.732 6 20ZM20 8.5C13.6487 8.5 8.5 13.6487 8.5 20C8.5 26.3513 13.6487 31.5 20 31.5C26.3513 31.5 31.5 26.3513 31.5 20C31.5 13.6487 26.3513 8.5 20 8.5Z" fill="#212121"/>
</svg>
