<svg width="28" height="28" viewBox="0 0 28 28" fill="none" xmlns="http://www.w3.org/2000/svg">
<path d="M21 11.5C21 6.25329 16.7467 2 11.5 2C6.25329 2 2 6.25329 2 11.5C2 16.7467 6.25329 21 11.5 21C13.5819 21 15.5074 20.3303 17.0729 19.1946L23.4393 25.5607L23.5533 25.6636C24.1424 26.1442 25.0115 26.1098 25.5607 25.5607C26.1464 24.9749 26.1464 24.0251 25.5607 23.4393L19.1946 17.0729C20.3303 15.5074 21 13.5819 21 11.5ZM8 14.25V11.25C8 10.8358 8.33579 10.5 8.75 10.5C9.16421 10.5 9.5 10.8358 9.5 11.25V14.25C9.5 14.6642 9.16421 15 8.75 15C8.33579 15 8 14.6642 8 14.25ZM11.25 15C10.8358 15 10.5 14.6642 10.5 14.25V8.25C10.5 7.83579 10.8358 7.5 11.25 7.5C11.6642 7.5 12 7.83579 12 8.25V14.25C12 14.6642 11.6642 15 11.25 15ZM13 14.25V9.75C13 9.33579 13.3358 9 13.75 9C14.1642 9 14.5 9.33579 14.5 9.75V14.25C14.5 14.6642 14.1642 15 13.75 15C13.3358 15 13 14.6642 13 14.25Z" fill="#212121"/>
</svg>
