<svg width="20" height="20" viewBox="0 0 20 20" fill="none" xmlns="http://www.w3.org/2000/svg">
<path d="M6 10.5C6 10.7761 6.22386 11 6.5 11C6.77614 11 7 10.7761 7 10.5V8.5C7 8.22386 6.77614 8 6.5 8C6.22386 8 6 8.22386 6 8.5V10.5Z" fill="#212121"/>
<path d="M8.5 11C8.22386 11 8 10.7761 8 10.5V6.5C8 6.22386 8.22386 6 8.5 6C8.77614 6 9 6.22386 9 6.5V10.5C9 10.7761 8.77614 11 8.5 11Z" fill="#212121"/>
<path d="M10 10.5C10 10.7761 10.2239 11 10.5 11C10.7761 11 11 10.7761 11 10.5V7.5C11 7.22386 10.7761 7 10.5 7C10.2239 7 10 7.22386 10 7.5V10.5Z" fill="#212121"/>
<path d="M14 8.5C14 5.46243 11.5376 3 8.5 3C5.46243 3 3 5.46243 3 8.5C3 11.5376 5.46243 14 8.5 14C9.83879 14 11.0659 13.5217 12.0196 12.7266L16.1464 16.8536L16.2157 16.9114C16.4106 17.0464 16.68 17.0271 16.8536 16.8536C17.0488 16.6583 17.0488 16.3417 16.8536 16.1464L12.7266 12.0196C13.5217 11.0659 14 9.83879 14 8.5ZM4 8.5C4 6.01472 6.01472 4 8.5 4C10.9853 4 13 6.01472 13 8.5C13 10.9853 10.9853 13 8.5 13C6.01472 13 4 10.9853 4 8.5Z" fill="#212121"/>
</svg>
