<svg width="32" height="32" viewBox="0 0 32 32" fill="none" xmlns="http://www.w3.org/2000/svg">
<path d="M9.5 16.5C9.5 17.0523 9.94772 17.5 10.5 17.5C11.0523 17.5 11.5 17.0523 11.5 16.5V13C11.5 12.4477 11.0523 12 10.5 12C9.94772 12 9.5 12.4477 9.5 13V16.5Z" fill="#212121"/>
<path d="M13.5 17.5C12.9477 17.5 12.5 17.0523 12.5 16.5V10C12.5 9.44772 12.9477 9 13.5 9C14.0523 9 14.5 9.44772 14.5 10V16.5C14.5 17.0523 14.0523 17.5 13.5 17.5Z" fill="#212121"/>
<path d="M15.5 16.5C15.5 17.0523 15.9477 17.5 16.5 17.5C17.0523 17.5 17.5 17.0523 17.5 16.5V11.5C17.5 10.9477 17.0523 10.5 16.5 10.5C15.9477 10.5 15.5 10.9477 15.5 11.5V16.5Z" fill="#212121"/>
<path d="M3 13.5C3 7.70101 7.70101 3 13.5 3C19.299 3 24 7.70101 24 13.5C24 16.0393 23.0986 18.3682 21.5983 20.1839L28.7073 27.2929C29.0978 27.6834 29.0978 28.3166 28.7073 28.7071C28.3167 29.0976 27.6836 29.0976 27.293 28.7071L20.1841 21.5981C18.3683 23.0985 16.0394 24 13.5 24C7.70101 24 3 19.299 3 13.5ZM13.5 5C8.80558 5 5 8.80558 5 13.5C5 18.1944 8.80558 22 13.5 22C18.1944 22 22 18.1944 22 13.5C22 8.80558 18.1944 5 13.5 5Z" fill="#212121"/>
</svg>
