<svg width="28" height="28" viewBox="0 0 28 28" fill="none" xmlns="http://www.w3.org/2000/svg">
<path d="M8 14.25C8 14.6642 8.33579 15 8.75 15C9.16421 15 9.5 14.6642 9.5 14.25V11.25C9.5 10.8358 9.16421 10.5 8.75 10.5C8.33579 10.5 8 10.8358 8 11.25V14.25Z" fill="#212121"/>
<path d="M11.25 15C10.8358 15 10.5 14.6642 10.5 14.25V8.25C10.5 7.83579 10.8358 7.5 11.25 7.5C11.6642 7.5 12 7.83579 12 8.25V14.25C12 14.6642 11.6642 15 11.25 15Z" fill="#212121"/>
<path d="M13 14.25C13 14.6642 13.3358 15 13.75 15C14.1642 15 14.5 14.6642 14.5 14.25V9.75C14.5 9.33579 14.1642 9 13.75 9C13.3358 9 13 9.33579 13 9.75V14.25Z" fill="#212121"/>
<path d="M20.25 11.5C20.25 6.66751 16.3325 2.75 11.5 2.75C6.66751 2.75 2.75 6.66751 2.75 11.5C2.75 16.3325 6.66751 20.25 11.5 20.25C13.6462 20.25 15.6119 19.4773 17.1341 18.195L23.9697 25.0303L24.0538 25.1029C24.3474 25.3208 24.7641 25.2966 25.0303 25.0303C25.3232 24.7374 25.3232 24.2626 25.0303 23.9697L18.195 17.1341C19.4773 15.6119 20.25 13.6462 20.25 11.5ZM4.25 11.5C4.25 7.49594 7.49594 4.25 11.5 4.25C15.5041 4.25 18.75 7.49594 18.75 11.5C18.75 15.5041 15.5041 18.75 11.5 18.75C7.49594 18.75 4.25 15.5041 4.25 11.5Z" fill="#212121"/>
</svg>
