<svg width="32" height="32" viewBox="0 0 32 32" fill="none" xmlns="http://www.w3.org/2000/svg">
<path d="M3 13.5C3 7.70101 7.70101 3 13.5 3C19.299 3 24 7.70101 24 13.5C24 15.9488 23.1617 18.2017 21.7565 19.9876L28.635 26.866C29.1231 27.3542 29.1231 28.1456 28.635 28.6338C28.1468 29.122 27.3553 29.122 26.8672 28.6338L19.9889 21.7555C18.2028 23.1613 15.9493 24 13.5 24C7.70101 24 3 19.299 3 13.5ZM9.5 16.5C9.5 17.0523 9.94772 17.5 10.5 17.5C11.0523 17.5 11.5 17.0523 11.5 16.5V13C11.5 12.4477 11.0523 12 10.5 12C9.94772 12 9.5 12.4477 9.5 13V16.5ZM13.5 17.5C14.0523 17.5 14.5 17.0523 14.5 16.5V10C14.5 9.44772 14.0523 9 13.5 9C12.9477 9 12.5 9.44772 12.5 10V16.5C12.5 17.0523 12.9477 17.5 13.5 17.5ZM15.5 16.5C15.5 17.0523 15.9477 17.5 16.5 17.5C17.0523 17.5 17.5 17.0523 17.5 16.5V11.5C17.5 10.9477 17.0523 10.5 16.5 10.5C15.9477 10.5 15.5 10.9477 15.5 11.5V16.5Z" fill="#212121"/>
</svg>
