<svg width="20" height="20" viewBox="0 0 20 20" fill="none" xmlns="http://www.w3.org/2000/svg">
<path d="M14 8.5C14 5.46243 11.5376 3 8.5 3C5.46243 3 3 5.46243 3 8.5C3 11.5376 5.46243 14 8.5 14C9.74832 14 10.8995 13.5841 11.8226 12.8834L15.9697 17.0303L16.0538 17.1029C16.3474 17.3208 16.7641 17.2966 17.0303 17.0303C17.3232 16.7374 17.3232 16.2626 17.0303 15.9697L12.8834 11.8226C13.5841 10.8995 14 9.74832 14 8.5ZM8 10.5V6.5C8 6.22386 8.22386 6 8.5 6C8.77614 6 9 6.22386 9 6.5V10.5C9 10.7761 8.77614 11 8.5 11C8.22386 11 8 10.7761 8 10.5ZM6 10.5V8.5C6 8.22386 6.22386 8 6.5 8C6.77614 8 7 8.22386 7 8.5V10.5C7 10.7761 6.77614 11 6.5 11C6.22386 11 6 10.7761 6 10.5ZM10.5 11C10.2239 11 10 10.7761 10 10.5V7.5C10 7.22386 10.2239 7 10.5 7C10.7761 7 11 7.22386 11 7.5V10.5C11 10.7761 10.7761 11 10.5 11Z" fill="#212121"/>
</svg>
