<svg width="28" height="28" viewBox="0 0 28 28" fill="none" xmlns="http://www.w3.org/2000/svg">
<path d="M4.4 4C3.07452 4 2 5.07452 2 6.4V21.6C2 22.9255 3.07452 24 4.4 24H23.6C24.9255 24 26 22.9255 26 21.6V6.4C26 5.07452 24.9255 4 23.6 4H4.4ZM18.5987 6.80734C18.7216 6.69617 18.9113 6.70563 19.0224 6.82849L22.0889 10.2171C22.2001 10.34 22.1906 10.5297 22.0678 10.6408C21.9449 10.752 21.7552 10.7426 21.6441 10.6197L18.5776 7.23108C18.4664 7.10823 18.4758 6.91851 18.5987 6.80734ZM17.396 7.90154C17.5175 7.78887 17.7073 7.796 17.8199 7.91748L22.1573 12.5937C22.27 12.7152 22.2628 12.905 22.1414 13.0177C22.0199 13.1304 21.8301 13.1232 21.7174 13.0018L17.38 8.3255C17.2674 8.20403 17.2745 8.01421 17.396 7.90154ZM12.8302 9.68642C12.9658 9.7214 13.0591 9.84545 13.0551 9.98536L12.9452 13.8828L16.2718 13.5326C16.4135 13.5177 16.5462 13.6046 16.5892 13.7404C16.6322 13.8763 16.5737 14.0237 16.4492 14.0931L13.1307 15.9411L15.9709 19.8707C16.0589 19.9925 16.0433 20.1606 15.9343 20.264C15.8254 20.3675 15.6568 20.3744 15.5397 20.2803L12.6272 17.9379L12.3135 20.0444C12.2925 20.1852 12.1755 20.2919 12.0334 20.2997C11.8912 20.3076 11.7631 20.2145 11.7267 20.0768L10.9212 17.0284L8.64052 17.5202C8.51443 17.5474 8.38507 17.4909 8.31926 17.38C8.25345 17.269 8.26593 17.1285 8.35024 17.0308L9.50052 15.699L6.13758 13.3424C6.01632 13.2575 5.97519 13.0968 6.04072 12.964C6.10625 12.8312 6.25885 12.7661 6.40004 12.8107L9.49681 13.7882L8.30777 8.82665C8.27342 8.68332 8.34828 8.53627 8.48438 8.4797C8.62049 8.42314 8.77752 8.47383 8.85488 8.59929L11.1804 12.3711L12.4887 9.83918C12.553 9.71483 12.6947 9.65144 12.8302 9.68642Z" fill="#212121"/>
</svg>
