<svg width="32" height="32" viewBox="0 0 32 32" fill="none" xmlns="http://www.w3.org/2000/svg">
<path d="M21.4399 8.46744C21.3103 8.32421 21.0891 8.31317 20.9459 8.44278C20.8027 8.5724 20.7916 8.79358 20.9212 8.93681L24.4954 12.8865C24.6251 13.0297 24.8462 13.0408 24.9895 12.9112C25.1327 12.7815 25.1437 12.5604 25.0141 12.4171L21.4399 8.46744Z" fill="#212121"/>
<path d="M20.0378 9.73698C19.9065 9.59535 19.6852 9.58703 19.5436 9.71839C19.4019 9.84976 19.3936 10.0711 19.525 10.2127L24.5814 15.6642C24.7128 15.8059 24.9341 15.8142 25.0757 15.6828C25.2173 15.5515 25.2257 15.3302 25.0943 15.1885L20.0378 9.73698Z" fill="#212121"/>
<path d="M14.6048 11.351C14.7628 11.3918 14.8716 11.5364 14.867 11.6996L14.7388 16.2435L18.6173 15.8352C18.7825 15.8178 18.9372 15.9191 18.9874 16.0776C19.0375 16.236 18.9692 16.4078 18.8241 16.4887L14.9551 18.6432L18.2664 23.2248C18.369 23.3667 18.3508 23.5627 18.2238 23.6833C18.0968 23.8039 17.9002 23.812 17.7637 23.7022L14.3681 20.9714L14.0024 23.4272C13.9779 23.5914 13.8414 23.7158 13.6757 23.7249C13.51 23.7341 13.3606 23.6255 13.3182 23.4651L12.3791 19.9109L9.72006 20.4843C9.57305 20.516 9.42224 20.4502 9.34551 20.3208C9.26878 20.1915 9.28333 20.0276 9.38163 19.9138L10.7227 18.361L6.80191 15.6135C6.66054 15.5145 6.61259 15.3271 6.68899 15.1723C6.76539 15.0175 6.9433 14.9416 7.10791 14.9935L10.7184 16.1332L9.33211 10.3486C9.29207 10.1815 9.37934 10.0101 9.53802 9.94412C9.69671 9.87818 9.87979 9.93727 9.96997 10.0835L12.6813 14.481L14.2067 11.5291C14.2816 11.3841 14.4468 11.3102 14.6048 11.351Z" fill="#212121"/>
<path d="M2.05273 8.09054C2.05273 6.37923 3.44002 4.99194 5.15133 4.99194H26.9054C28.6167 4.99194 30.004 6.37923 30.004 8.09054V24.8661C30.004 26.5774 28.6167 27.9647 26.9054 27.9647H5.15133C3.44002 27.9647 2.05273 26.5774 2.05273 24.8661L2.05273 8.09054ZM5.15133 6.99194C4.54459 6.99194 4.05273 7.4838 4.05273 8.09054V24.8661C4.05273 25.4729 4.54459 25.9647 5.15133 25.9647H26.9054C27.5121 25.9647 28.004 25.4729 28.004 24.8661V8.09054C28.004 7.4838 27.5121 6.99194 26.9054 6.99194H5.15133Z" fill="#212121"/>
</svg>
