<svg width="48" height="48" viewBox="0 0 48 48" fill="none" xmlns="http://www.w3.org/2000/svg">
<path d="M32.1421 12.8485C31.9568 12.6437 31.6406 12.6279 31.4358 12.8132C31.2311 12.9985 31.2153 13.3147 31.4006 13.5194L36.5114 19.1672C36.6967 19.3719 37.0129 19.3877 37.2176 19.2024C37.4224 19.0171 37.4382 18.7009 37.2529 18.4962L32.1421 12.8485Z" fill="#212121"/>
<path d="M30.1378 14.7214C29.95 14.5189 29.6337 14.507 29.4312 14.6948C29.2288 14.8826 29.2169 15.199 29.4047 15.4014L36.6336 23.1952C36.8214 23.3977 37.1377 23.4095 37.3402 23.2218C37.5426 23.034 37.5545 22.7176 37.3667 22.5152L30.1378 14.7214Z" fill="#212121"/>
<path d="M22.0504 16.811C22.2763 16.8693 22.4318 17.0761 22.4253 17.3092L22.242 23.8049L27.7864 23.2213C28.0226 23.1965 28.2437 23.3412 28.3154 23.5677C28.3871 23.7942 28.2895 24.0398 28.082 24.1554L22.5511 27.2354L27.2848 33.7849C27.4315 33.9878 27.4054 34.2679 27.2239 34.4403C27.0424 34.6127 26.7613 34.6243 26.5662 34.4674L21.7121 30.5635L21.1892 34.0743C21.1543 34.309 20.9592 34.4868 20.7223 34.4999C20.4854 34.513 20.2719 34.3578 20.2113 34.1284L18.8687 29.0476L15.0676 29.8673C14.8574 29.9126 14.6418 29.8185 14.5321 29.6336C14.4224 29.4487 14.4432 29.2144 14.5837 29.0517L16.5009 26.832L10.896 22.9044C10.6939 22.7628 10.6253 22.4949 10.7345 22.2736C10.8438 22.0523 11.0981 21.9438 11.3334 22.0181L16.4947 23.6472L14.513 15.3781C14.4557 15.1392 14.5805 14.8941 14.8073 14.7998C15.0342 14.7055 15.2959 14.79 15.4248 14.9991L19.3007 21.2854L21.4813 17.0656C21.5883 16.8584 21.8245 16.7527 22.0504 16.811Z" fill="#212121"/>
<path d="M4.04004 12.2349C4.04004 9.88765 5.94283 7.98486 8.29004 7.98486H39.743C42.0902 7.98486 43.993 9.88765 43.993 12.2349V35.7489C43.993 38.0961 42.0902 39.9989 39.743 39.9989H8.29004C5.94284 39.9989 4.04004 38.0961 4.04004 35.7489L4.04004 12.2349ZM8.29004 10.4849C7.32354 10.4849 6.54004 11.2684 6.54004 12.2349V35.7489C6.54004 36.7154 7.32354 37.4989 8.29004 37.4989H39.743C40.7095 37.4989 41.493 36.7154 41.493 35.7489V12.2349C41.493 11.2684 40.7095 10.4849 39.743 10.4849H8.29004Z" fill="#212121"/>
</svg>
