<svg width="48" height="48" viewBox="0 0 48 48" fill="none" xmlns="http://www.w3.org/2000/svg">
<path d="M8 8C5.79086 8 4 9.79086 4 12V36C4 38.2091 5.79086 40 8 40H40C42.2091 40 44 38.2091 44 36V12C44 9.79086 42.2091 8 40 8H8ZM31.6645 12.0126C31.8693 11.8273 32.1855 11.8431 32.3707 12.0478L37.4816 17.6955C37.6669 17.9003 37.6511 18.2165 37.4463 18.4018C37.2416 18.587 36.9254 18.5713 36.7401 18.3665L31.6293 12.7188C31.444 12.514 31.4598 12.1979 31.6645 12.0126ZM29.66 13.8362C29.8624 13.6484 30.1788 13.6603 30.3666 13.8628L37.5955 21.6566C37.7833 21.859 37.7714 22.1754 37.5689 22.3632C37.3665 22.551 37.0501 22.5391 36.8623 22.3366L29.6334 14.5428C29.4456 14.3404 29.4575 14.024 29.66 13.8362ZM22.0503 16.811C22.2762 16.8693 22.4318 17.0761 22.4252 17.3093L22.2419 23.8049L27.7863 23.2213C28.0225 23.1965 28.2437 23.3413 28.3153 23.5677C28.387 23.7942 28.2894 24.0398 28.0819 24.1554L22.5511 27.2354L27.2847 33.7849C27.4314 33.9878 27.4054 34.2679 27.2238 34.4403C27.0423 34.6127 26.7612 34.6243 26.5662 34.4674L21.712 30.5635L21.1891 34.0743C21.1542 34.309 20.9591 34.4868 20.7222 34.4999C20.4853 34.513 20.2718 34.3578 20.2112 34.1284L18.8687 29.0476L15.0675 29.8673C14.8573 29.9126 14.6417 29.8185 14.5321 29.6336C14.4224 29.4487 14.4432 29.2144 14.5837 29.0517L16.5008 26.832L10.8959 22.9044C10.6938 22.7628 10.6253 22.4949 10.7345 22.2736C10.8437 22.0523 11.098 21.9438 11.3334 22.0181L16.4946 23.6472L14.5129 15.3781C14.4557 15.1392 14.5804 14.8941 14.8073 14.7998C15.0341 14.7056 15.2958 14.79 15.4247 14.9991L19.3006 21.2854L21.4812 17.0656C21.5883 16.8584 21.8245 16.7527 22.0503 16.811Z" fill="#212121"/>
</svg>
