<svg width="32" height="32" viewBox="0 0 32 32" fill="none" xmlns="http://www.w3.org/2000/svg">
<path d="M4.8 4.97998C3.2536 4.97998 2 6.23358 2 7.77998L2 25.1881C2 26.7345 3.2536 27.9881 4.8 27.9881H27.2C28.7464 27.9881 30 26.7345 30 25.1881V7.77998C30 6.23358 28.7464 4.97998 27.2 4.97998H4.8ZM21.3651 7.609C21.5085 7.4793 21.7298 7.49034 21.8595 7.63367L25.4371 11.5871C25.5668 11.7304 25.5557 11.9517 25.4124 12.0814C25.2691 12.2111 25.0477 12.2001 24.918 12.0568L21.3405 8.10336C21.2108 7.96003 21.2218 7.7387 21.3651 7.609ZM19.962 8.88557C20.1037 8.75412 20.3251 8.76244 20.4566 8.90417L25.5168 14.3598C25.6483 14.5015 25.6399 14.723 25.4982 14.8544C25.3565 14.9859 25.135 14.9776 25.0036 14.8358L19.9434 9.38019C19.8119 9.23847 19.8202 9.01702 19.962 8.88557ZM14.6352 10.9679C14.7934 11.0087 14.9022 11.1534 14.8976 11.3166L14.7694 15.8636L18.6504 15.4551C18.8158 15.4377 18.9706 15.539 19.0207 15.6976C19.0709 15.8561 19.0026 16.028 18.8573 16.1089L14.9858 18.2649L18.2993 22.8496C18.402 22.9916 18.3838 23.1877 18.2567 23.3084C18.1296 23.4291 17.9329 23.4372 17.7963 23.3273L14.3984 20.5946L14.0324 23.0522C14.0079 23.2164 13.8714 23.3409 13.7055 23.3501C13.5397 23.3592 13.3903 23.2506 13.3478 23.09L12.4081 19.5335L9.74725 20.1073C9.60014 20.139 9.44922 20.0731 9.37245 19.9437C9.29567 19.8143 9.31022 19.6502 9.40859 19.5364L10.7506 17.9826L6.82714 15.2332C6.68568 15.1341 6.63769 14.9466 6.71415 14.7917C6.7906 14.6368 6.96863 14.5608 7.13335 14.6128L10.7462 15.7532L9.35904 9.9648C9.31896 9.79758 9.4063 9.62601 9.56509 9.56003C9.72388 9.49404 9.90708 9.55317 9.99733 9.69954L12.7104 14.0999L14.2368 11.1461C14.3118 11.001 14.4771 10.9271 14.6352 10.9679Z" fill="#212121"/>
</svg>
