<svg width="28" height="28" viewBox="0 0 28 28" fill="none" xmlns="http://www.w3.org/2000/svg">
<path d="M18.6782 7.16336C18.5662 7.0396 18.3751 7.03006 18.2513 7.14206C18.1275 7.25405 18.118 7.44516 18.23 7.56892L21.3183 10.9816C21.4303 11.1054 21.6214 11.1149 21.7451 11.0029C21.8689 10.8909 21.8784 10.6998 21.7664 10.5761L18.6782 7.16336Z" fill="#212121"/>
<path d="M17.4669 8.26021C17.3534 8.13784 17.1622 8.13065 17.0398 8.24416C16.9174 8.35766 16.9103 8.54888 17.0238 8.67125L21.3927 13.3816C21.5062 13.504 21.6975 13.5112 21.8198 13.3977C21.9422 13.2842 21.9494 13.093 21.8359 12.9706L17.4669 8.26021Z" fill="#212121"/>
<path d="M12.7725 9.6549C12.909 9.69013 13.003 9.8151 12.999 9.95604L12.8883 13.8822L16.2394 13.5295C16.3822 13.5144 16.5159 13.6019 16.5592 13.7388C16.6025 13.8757 16.5435 14.0242 16.4181 14.094L13.0751 15.9557L15.9363 19.9143C16.0249 20.037 16.0092 20.2063 15.8995 20.3105C15.7897 20.4147 15.6198 20.4217 15.5019 20.3269L12.568 17.9673L12.2519 20.0893C12.2308 20.2311 12.1129 20.3386 11.9697 20.3465C11.8265 20.3544 11.6975 20.2606 11.6608 20.122L10.8494 17.051L8.55183 17.5465C8.42481 17.5738 8.2945 17.517 8.2282 17.4052C8.16191 17.2935 8.17447 17.1518 8.25941 17.0535L9.41818 15.7119L6.03042 13.3379C5.90827 13.2523 5.86684 13.0904 5.93285 12.9566C5.99887 12.8229 6.15259 12.7573 6.29482 12.8022L9.41443 13.7869L8.21663 8.78878C8.18202 8.64439 8.25743 8.49625 8.39454 8.43927C8.53165 8.38229 8.68984 8.43335 8.76777 8.55974L11.1105 12.3593L12.4284 9.80878C12.4932 9.68352 12.6359 9.61966 12.7725 9.6549Z" fill="#212121"/>
<path d="M2.00293 6.56328C2.00293 5.14762 3.15055 4 4.56621 4H23.4339C24.8495 4 25.9972 5.14762 25.9972 6.56328V21.4367C25.9972 22.8524 24.8495 24 23.4339 24H4.56621C3.15054 24 2.00293 22.8524 2.00293 21.4367L2.00293 6.56328ZM4.56621 5.5C3.97898 5.5 3.50293 5.97605 3.50293 6.56328V21.4367C3.50293 22.024 3.97897 22.5 4.56621 22.5H23.4339C24.0211 22.5 24.4972 22.024 24.4972 21.4367V6.56328C24.4972 5.97604 24.0211 5.5 23.4339 5.5H4.56621Z" fill="#212121"/>
</svg>
