<svg width="20" height="20" viewBox="0 0 20 20" fill="none" xmlns="http://www.w3.org/2000/svg">
<path d="M3.6 3.0271C2.71634 3.0271 2 3.74344 2 4.6271L2 15.364C2 16.2476 2.71634 16.964 3.6 16.964H16.4C17.2837 16.964 18 16.2476 18 15.364V4.6271C18 3.74344 17.2837 3.0271 16.4 3.0271H3.6ZM13.0659 5.19378C13.1479 5.11966 13.2744 5.12597 13.3485 5.20788L15.3932 7.46736C15.4673 7.54928 15.461 7.67578 15.3791 7.7499C15.2972 7.82403 15.1707 7.81772 15.0965 7.73581L13.0518 5.47632C12.9777 5.39441 12.984 5.26791 13.0659 5.19378ZM12.264 5.92338C12.345 5.84825 12.4716 5.85301 12.5467 5.93401L15.4388 9.05206C15.5139 9.13306 15.5091 9.25963 15.4281 9.33476C15.3471 9.40988 15.2206 9.40512 15.1454 9.32413L12.2534 6.20607C12.1782 6.12507 12.183 5.99851 12.264 5.92338ZM9.22014 7.11306C9.31049 7.13638 9.37271 7.21908 9.37008 7.31235L9.29678 9.91062L11.5145 9.67718C11.609 9.66724 11.6975 9.72515 11.7261 9.81574C11.7548 9.90633 11.7158 10.0046 11.6328 10.0508L9.42044 11.2828L11.3139 13.9026C11.3726 13.9838 11.3622 14.0958 11.2895 14.1648C11.2169 14.2337 11.1045 14.2384 11.0265 14.1756L9.08481 12.6141L8.87566 14.0184C8.86168 14.1122 8.78365 14.1834 8.68889 14.1886C8.59412 14.1938 8.50873 14.1318 8.48448 14.04L7.94748 12.0077L6.427 12.3356C6.34294 12.3537 6.2567 12.3161 6.21283 12.2421C6.16895 12.1681 6.17727 12.0744 6.23348 12.0093L7.00033 11.1215L4.75837 9.5504C4.67753 9.49376 4.65011 9.38661 4.6938 9.2981C4.73749 9.20958 4.83922 9.16618 4.93335 9.19589L6.99786 9.84754L6.20517 6.53988C6.18227 6.44432 6.23217 6.34629 6.32291 6.30858C6.41364 6.27087 6.51833 6.30466 6.5699 6.3883L8.12026 8.90281L8.99248 7.2149C9.03532 7.132 9.12979 7.08974 9.22014 7.11306Z" fill="#212121"/>
</svg>
