<svg width="24" height="24" viewBox="0 0 24 24" fill="none" xmlns="http://www.w3.org/2000/svg">
<path d="M15.9177 6.34578C15.8251 6.24344 15.667 6.23555 15.5647 6.32817C15.4623 6.42079 15.4545 6.57884 15.5471 6.68119L18.1011 9.50352C18.1937 9.60587 18.3518 9.61375 18.4541 9.52113C18.5565 9.42851 18.5644 9.27046 18.4717 9.16811L15.9177 6.34578Z" fill="#212121"/>
<path d="M14.9158 7.25288C14.822 7.15168 14.6638 7.14573 14.5626 7.2396C14.4614 7.33347 14.4555 7.49161 14.5494 7.59281L18.1625 11.4883C18.2564 11.5895 18.4145 11.5955 18.5157 11.5016C18.617 11.4077 18.6229 11.2496 18.529 11.1484L14.9158 7.25288Z" fill="#212121"/>
<path d="M11.0336 8.40645C11.1465 8.4356 11.2242 8.53894 11.2209 8.65551L11.1293 11.9025L13.9008 11.6107C14.0189 11.5983 14.1294 11.6707 14.1652 11.7839C14.201 11.8971 14.1523 12.0199 14.0485 12.0777L11.2839 13.6172L13.6501 16.8911C13.7234 16.9925 13.7104 17.1325 13.6196 17.2187C13.5289 17.3049 13.3884 17.3107 13.2909 17.2323L10.8644 15.2809L10.6031 17.0358C10.5856 17.1531 10.4881 17.242 10.3697 17.2485C10.2512 17.255 10.1445 17.1775 10.1142 17.0628L9.44316 14.5231L7.54307 14.9328C7.43802 14.9555 7.33025 14.9085 7.27543 14.816C7.2206 14.7236 7.23099 14.6065 7.30124 14.5252L8.25955 13.4156L5.45785 11.4523C5.35683 11.3815 5.32256 11.2476 5.37716 11.137C5.43175 11.0264 5.55888 10.9722 5.67651 11.0093L8.25645 11.8236L7.26585 7.69017C7.23724 7.57076 7.2996 7.44825 7.41299 7.40113C7.52638 7.354 7.65721 7.39623 7.72165 7.50075L9.65907 10.643L10.7491 8.53372C10.8026 8.43012 10.9206 8.37731 11.0336 8.40645Z" fill="#212121"/>
<path d="M2.02197 6.24959C2.02197 5.00718 3.02915 4 4.27157 4H19.7287C20.9711 4 21.9783 5.00718 21.9783 6.2496V17.7504C21.9783 18.9928 20.9711 20 19.7287 20H4.27157C3.02915 20 2.02197 18.9928 2.02197 17.7504V6.24959ZM4.27157 5.5C3.85758 5.5 3.52197 5.83561 3.52197 6.24959V17.7504C3.52197 18.1644 3.85758 18.5 4.27157 18.5H19.7287C20.1427 18.5 20.4783 18.1644 20.4783 17.7504V6.2496C20.4783 5.83561 20.1427 5.5 19.7287 5.5H4.27157Z" fill="#212121"/>
</svg>
