<svg width="24" height="24" viewBox="0 0 24 24" fill="none" xmlns="http://www.w3.org/2000/svg">
<path d="M3.99923 3.99976C2.89461 3.99976 1.99915 4.89522 1.99915 5.99984V18.0003C1.99915 19.1049 2.89461 20.0004 3.99923 20.0004H19.9999C21.1045 20.0004 22 19.1049 22 18.0003V5.99984C22 4.89522 21.1045 3.99976 19.9999 3.99976H3.99923ZM15.832 6.00605C15.9343 5.9134 16.0924 5.92129 16.1851 6.02367L18.7406 8.84764C18.8333 8.95003 18.8254 9.10813 18.723 9.20077C18.6206 9.29342 18.4625 9.28553 18.3699 9.18315L15.8143 6.35918C15.7217 6.2568 15.7296 6.0987 15.832 6.00605ZM14.8297 6.91792C14.9309 6.82402 15.0891 6.82997 15.183 6.93121L18.7976 10.8283C18.8915 10.9295 18.8855 11.0877 18.7843 11.1816C18.6831 11.2755 18.5249 11.2695 18.431 11.1683L14.8164 7.27124C14.7225 7.17 14.7284 7.01182 14.8297 6.91792ZM11.0247 8.40532C11.1377 8.43447 11.2154 8.53785 11.2121 8.65445L11.1205 11.9024L13.8928 11.6106C14.0109 11.5982 14.1215 11.6706 14.1573 11.7838C14.1932 11.8971 14.1444 12.0199 14.0406 12.0777L11.2751 13.6177L13.642 16.8926C13.7153 16.9941 13.7023 17.1341 13.6116 17.2203C13.5208 17.3065 13.3803 17.3123 13.2827 17.2339L10.8555 15.2819L10.5941 17.0373C10.5766 17.1547 10.4791 17.2436 10.3606 17.2501C10.2422 17.2567 10.1354 17.1791 10.1051 17.0644L9.43382 14.5239L7.53314 14.9337C7.42806 14.9564 7.32026 14.9093 7.26541 14.8169C7.21057 14.7244 7.22097 14.6073 7.29123 14.5259L8.24984 13.416L5.44727 11.4521C5.34622 11.3813 5.31194 11.2474 5.36655 11.1367C5.42116 11.0261 5.54833 10.9718 5.666 11.009L8.24674 11.8236L7.25584 7.68881C7.22721 7.56937 7.2896 7.44682 7.40302 7.39968C7.51645 7.35254 7.64731 7.39478 7.71178 7.49934L9.6498 10.6426L10.7401 8.53263C10.7937 8.429 10.9118 8.37617 11.0247 8.40532Z" fill="#212121"/>
</svg>
