<svg width="20" height="20" viewBox="0 0 20 20" fill="none" xmlns="http://www.w3.org/2000/svg">
<path d="M13.2324 5.33482C13.156 5.25037 13.0256 5.24386 12.9411 5.32028C12.8567 5.3967 12.8502 5.52711 12.9266 5.61156L15.0339 7.94024C15.1103 8.02469 15.2408 8.03119 15.3252 7.95477C15.4096 7.87836 15.4162 7.74795 15.3397 7.6635L13.2324 5.33482Z" fill="#212121"/>
<path d="M12.4058 6.08333C12.3283 5.99983 12.1978 5.99492 12.1143 6.07237C12.0308 6.14982 12.0259 6.2803 12.1034 6.3638L15.0846 9.57796C15.162 9.66147 15.2925 9.66637 15.376 9.58892C15.4595 9.51147 15.4644 9.381 15.387 9.29749L12.4058 6.08333Z" fill="#212121"/>
<path d="M9.20253 7.035C9.29569 7.05905 9.35985 7.14432 9.35713 7.24049L9.28155 9.91953L11.5682 9.67884C11.6657 9.66858 11.7569 9.7283 11.7864 9.82171C11.816 9.91511 11.7758 10.0164 11.6902 10.0641L9.40905 11.3344L11.3614 14.0356C11.4219 14.1193 11.4111 14.2348 11.3363 14.3059C11.2614 14.377 11.1455 14.3818 11.065 14.3171L9.063 12.707L8.84734 14.155C8.83293 14.2518 8.75247 14.3251 8.65476 14.3305C8.55705 14.3359 8.469 14.2719 8.444 14.1773L7.8903 12.0818L6.32256 12.4199C6.23589 12.4386 6.14696 12.3998 6.10173 12.3235C6.05649 12.2472 6.06507 12.1506 6.12302 12.0835L6.91372 11.168L4.60206 9.54812C4.51871 9.48971 4.49043 9.37923 4.53548 9.28797C4.58052 9.1967 4.68542 9.15195 4.78247 9.18258L6.91116 9.8545L6.09383 6.444C6.07022 6.34548 6.12167 6.24439 6.21523 6.20551C6.30879 6.16663 6.41673 6.20147 6.4699 6.28771L8.06845 8.88039L8.96779 7.14001C9.01196 7.05453 9.10937 7.01096 9.20253 7.035Z" fill="#212121"/>
<path d="M2.04394 4.74902C2.04394 3.78954 2.82176 3.01172 3.78125 3.01172H16.2832C17.2427 3.01172 18.0205 3.78954 18.0205 4.74902L17.9917 15.2541C17.9917 16.2136 17.2139 16.9914 16.2544 16.9914H3.75244C2.79295 16.9914 2.01514 16.2136 2.01514 15.2541L2.04394 4.74902ZM3.78125 4.01172C3.37405 4.01172 3.04394 4.34182 3.04394 4.74902L3.01514 15.2541C3.01514 15.6613 3.34524 15.9914 3.75244 15.9914H16.2544C16.6616 15.9914 16.9917 15.6613 16.9917 15.2541L17.0205 4.74902C17.0205 4.34182 16.6904 4.01172 16.2832 4.01172H3.78125Z" fill="#212121"/>
</svg>
