<svg xmlns="http://www.w3.org/2000/svg" viewBox="0 0 29 29" shape-rendering="crispEdges" role="img" aria-hidden="true"><rect width="29" height="29" fill="#fff"/><g fill="#1a1a1a"><rect x="0" y="0" width="7" height="1"/><rect x="10" y="0" width="1" height="1"/><rect x="12" y="0" width="1" height="1"/><rect x="15" y="0" width="6" height="1"/><rect x="22" y="0" width="7" height="1"/><rect x="0" y="1" width="1" height="1"/><rect x="6" y="1" width="1" height="1"/><rect x="9" y="1" width="2" height="1"/><rect x="13" y="1" width="1" height="1"/><rect x="18" y="1" width="2" height="1"/><rect x="22" y="1" width="1" height="1"/><rect x="28" y="1" width="1" height="1"/><rect x="0" y="2" width="1" height="1"/><rect x="2" y="2" width="3" height="1"/><rect x="6" y="2" width="1" height="1"/><rect x="12" y="2" width="1" height="1"/><rect x="14" y="2" width="1" height="1"/><rect x="16" y="2" width="2" height="1"/><rect x="19" y="2" width="2" height="1"/><rect x="22" y="2" width="1" height="1"/><rect x="24" y="2" width="3" height="1"/><rect x="28" y="2" width="1" height="1"/><rect x="0" y="3" width="1" height="1"/><rect x="2" y="3" width="3" height="1"/><rect x="6" y="3" width="1" height="1"/><rect x="9" y="3" width="4" height="1"/><rect x="15" y="3" width="4" height="1"/><rect x="22" y="3" width="1" height="1"/><rect x="24" y="3" width="3" height="1"/><rect x="28" y="3" width="1" height="1"/><rect x="0" y="4" width="1" height="1"/><rect x="2" y="4" width="3" height="1"/><rect x="6" y="4" width="1" height="1"/><rect x="9" y="4" width="1" height="1"/><rect x="11" y="4" width="3" height="1"/><rect x="17" y="4" width="3" height="1"/><rect x="22" y="4" width="1" height="1"/><rect x="24" y="4" width="3" height="1"/><rect x="28" y="4" width="1" height="1"/><rect x="0" y="5" width="1" height="1"/><rect x="6" y="5" width="1" height="1"/><rect x="10" y="5" width="2" height="1"/><rect x="15" y="5" width="1" height="1"/><rect x="19" y="5" width="2" height="1"/><rect x="22" y="5" width="1" height="1"/><rect x="28" y="5" width="1" height="1"/><rect x="0" y="6" width="7" height="1"/><rect x="8" y="6" width="1" height="1"/><rect x="10" y="6" width="1" height="1"/><rect x="12" y="6" width="1" height="1"/><rect x="14" y="6" width="1" height="1"/><rect x="16" y="6" width="1" height="1"/><rect x="18" y="6" width="1" height="1"/><rect x="20" y="6" width="1" height="1"/><rect x="22" y="6" width="7" height="1"/><rect x="12" y="7" width="4" height="1"/><rect x="18" y="7" width="1" height="1"/><rect x="20" y="7" width="1" height="1"/><rect x="6" y="8" width="1" height="1"/><rect x="9" y="8" width="1" height="1"/><rect x="15" y="8" width="1" height="1"/><rect x="0" y="9" width="1" height="1"/><rect x="4" y="9" width="1" height="1"/><rect x="13" y="9" width="1" height="1"/><rect x="15" y="9" width="2" height="1"/><rect x="18" y="9" width="5" height="1"/><rect x="24" y="9" width="1" height="1"/><rect x="28" y="9" width="1" height="1"/><rect x="4" y="10" width="1" height="1"/><rect x="6" y="10" width="1" height="1"/><rect x="8" y="10" width="1" height="1"/><rect x="10" y="10" width="2" height="1"/><rect x="14" y="10" width="1" height="1"/><rect x="17" y="10" width="3" height="1"/><rect x="23" y="10" width="2" height="1"/><rect x="5" y="11" width="1" height="1"/><rect x="12" y="11" width="7" height="1"/><rect x="21" y="11" width="2" height="1"/><rect x="25" y="11" width="2" height="1"/><rect x="1" y="12" width="1" height="1"/><rect x="4" y="12" width="1" height="1"/><rect x="6" y="12" width="1" height="1"/><rect x="8" y="12" width="4" height="1"/><rect x="18" y="12" width="2" height="1"/><rect x="26" y="12" width="1" height="1"/><rect x="0" y="13" width="3" height="1"/><rect x="4" y="13" width="1" height="1"/><rect x="8" y="13" width="2" height="1"/><rect x="14" y="13" width="1" height="1"/><rect x="17" y="13" width="1" height="1"/><rect x="22" y="13" width="2" height="1"/><rect x="25" y="13" width="1" height="1"/><rect x="27" y="13" width="1" height="1"/><rect x="3" y="14" width="4" height="1"/><rect x="8" y="14" width="1" height="1"/><rect x="12" y="14" width="2" height="1"/><rect x="18" y="14" width="3" height="1"/><rect x="22" y="14" width="1" height="1"/><rect x="26" y="14" width="2" height="1"/><rect x="2" y="15" width="1" height="1"/><rect x="4" y="15" width="2" height="1"/><rect x="7" y="15" width="1" height="1"/><rect x="11" y="15" width="1" height="1"/><rect x="14" y="15" width="1" height="1"/><rect x="17" y="15" width="1" height="1"/><rect x="19" y="15" width="1" height="1"/><rect x="21" y="15" width="3" height="1"/><rect x="25" y="15" width="2" height="1"/><rect x="0" y="16" width="1" height="1"/><rect x="3" y="16" width="4" height="1"/><rect x="8" y="16" width="2" height="1"/><rect x="11" y="16" width="2" height="1"/><rect x="18" y="16" width="1" height="1"/><rect x="20" y="16" width="1" height="1"/><rect x="22" y="16" width="1" height="1"/><rect x="24" y="16" width="1" height="1"/><rect x="26" y="16" width="1" height="1"/><rect x="28" y="16" width="1" height="1"/><rect x="0" y="17" width="1" height="1"/><rect x="2" y="17" width="3" height="1"/><rect x="9" y="17" width="1" height="1"/><rect x="14" y="17" width="5" height="1"/><rect x="26" y="17" width="1" height="1"/><rect x="0" y="18" width="1" height="1"/><rect x="4" y="18" width="1" height="1"/><rect x="6" y="18" width="1" height="1"/><rect x="11" y="18" width="2" height="1"/><rect x="14" y="18" width="3" height="1"/><rect x="18" y="18" width="1" height="1"/><rect x="20" y="18" width="3" height="1"/><rect x="24" y="18" width="1" height="1"/><rect x="26" y="18" width="1" height="1"/><rect x="0" y="19" width="1" height="1"/><rect x="4" y="19" width="2" height="1"/><rect x="7" y="19" width="1" height="1"/><rect x="9" y="19" width="2" height="1"/><rect x="12" y="19" width="3" height="1"/><rect x="17" y="19" width="2" height="1"/><rect x="20" y="19" width="1" height="1"/><rect x="25" y="19" width="2" height="1"/><rect x="2" y="20" width="1" height="1"/><rect x="4" y="20" width="1" height="1"/><rect x="6" y="20" width="4" height="1"/><rect x="11" y="20" width="2" height="1"/><rect x="19" y="20" width="8" height="1"/><rect x="9" y="21" width="4" height="1"/><rect x="14" y="21" width="2" height="1"/><rect x="17" y="21" width="1" height="1"/><rect x="19" y="21" width="2" height="1"/><rect x="24" y="21" width="1" height="1"/><rect x="26" y="21" width="3" height="1"/><rect x="0" y="22" width="7" height="1"/><rect x="11" y="22" width="2" height="1"/><rect x="18" y="22" width="3" height="1"/><rect x="22" y="22" width="1" height="1"/><rect x="24" y="22" width="2" height="1"/><rect x="27" y="22" width="2" height="1"/><rect x="0" y="23" width="1" height="1"/><rect x="6" y="23" width="1" height="1"/><rect x="12" y="23" width="1" height="1"/><rect x="17" y="23" width="1" height="1"/><rect x="20" y="23" width="1" height="1"/><rect x="24" y="23" width="1" height="1"/><rect x="26" y="23" width="2" height="1"/><rect x="0" y="24" width="1" height="1"/><rect x="2" y="24" width="3" height="1"/><rect x="6" y="24" width="1" height="1"/><rect x="9" y="24" width="2" height="1"/><rect x="12" y="24" width="1" height="1"/><rect x="17" y="24" width="1" height="1"/><rect x="19" y="24" width="8" height="1"/><rect x="0" y="25" width="1" height="1"/><rect x="2" y="25" width="3" height="1"/><rect x="6" y="25" width="1" height="1"/><rect x="11" y="25" width="2" height="1"/><rect x="14" y="25" width="4" height="1"/><rect x="21" y="25" width="1" height="1"/><rect x="26" y="25" width="2" height="1"/><rect x="0" y="26" width="1" height="1"/><rect x="2" y="26" width="3" height="1"/><rect x="6" y="26" width="1" height="1"/><rect x="11" y="26" width="4" height="1"/><rect x="22" y="26" width="4" height="1"/><rect x="27" y="26" width="1" height="1"/><rect x="0" y="27" width="1" height="1"/><rect x="6" y="27" width="1" height="1"/><rect x="9" y="27" width="4" height="1"/><rect x="15" y="27" width="2" height="1"/><rect x="25" y="27" width="1" height="1"/><rect x="0" y="28" width="7" height="1"/><rect x="9" y="28" width="1" height="1"/><rect x="15" y="28" width="1" height="1"/><rect x="20" y="28" width="1" height="1"/><rect x="22" y="28" width="2" height="1"/><rect x="25" y="28" width="1" height="1"/><rect x="27" y="28" width="2" height="1"/></g></svg>
