<svg width="32" height="32" viewBox="0 0 32 32" fill="none" xmlns="http://www.w3.org/2000/svg">
<path d="M11.25 7.12098C7.42218 8.88796 4.77273 12.7228 4.77273 17.1667C4.77273 23.2878 9.79935 28.25 16 28.25C22.2007 28.25 27.2273 23.2878 27.2273 17.1667C27.2273 12.5814 24.4065 8.64455 20.3811 6.95864C19.9305 6.76991 19.7201 6.25627 19.9113 5.8114C20.1025 5.36653 20.6228 5.1589 21.0734 5.34763C25.7307 7.29813 29 11.8545 29 17.1667C29 24.2543 23.1797 30 16 30C8.8203 30 3 24.2543 3 17.1667C3 12.1916 5.86754 7.8795 10.0571 5.75H7C6.58579 5.75 6.25 5.41421 6.25 5C6.25 4.58579 6.58579 4.25 7 4.25H11.5C12.1904 4.25 12.75 4.80964 12.75 5.5V10C12.75 10.4142 12.4142 10.75 12 10.75C11.5858 10.75 11.25 10.4142 11.25 10V7.12098Z" fill="#212121"/>
<path d="M16.8864 2.875C16.8864 2.39175 16.4895 2 16 2C15.5105 2 15.1136 2.39175 15.1136 2.875V13.9583C15.1136 14.4416 15.5105 14.8333 16 14.8333C16.4895 14.8333 16.8864 14.4416 16.8864 13.9583V2.875Z" fill="#212121"/>
</svg>
