<svg width="24" height="24" viewBox="0 0 24 24" fill="none" xmlns="http://www.w3.org/2000/svg">
<path d="M6.34872 6H5C4.44772 6 4 5.55228 4 5C4 4.44772 4.44772 4 5 4H8.5C9.32843 4 10 4.67157 10 5.5V9C10 9.55228 9.55228 10 9 10C8.44772 10 8 9.55228 8 9V7.26001C6.15284 8.54603 5 10.6702 5 13.0035C5 16.8676 8.13391 20.0002 12 20.0002C15.8661 20.0002 19 16.8676 19 13.0035C19 10.2608 17.4072 7.8068 14.9653 6.66353C14.4651 6.42936 14.2495 5.83404 14.4836 5.33386C14.7178 4.83368 15.3131 4.61805 15.8133 4.85222C18.9517 6.32157 21 9.47738 21 13.0035C21 17.9724 16.9705 22.0002 12 22.0002C7.02953 22.0002 3 17.9724 3 13.0035C3 10.2238 4.2729 7.67452 6.34872 6Z" fill="#212121"/>
<path d="M12.9933 2.88289C12.9355 2.38555 12.5128 1.99951 12 1.99951C11.4477 1.99951 11 2.44723 11 2.99951V10.0009L11.0067 10.1176C11.0645 10.6149 11.4872 11.0009 12 11.0009C12.5523 11.0009 13 10.5532 13 10.0009V2.99951L12.9933 2.88289Z" fill="#212121"/>
</svg>
