<svg width="20" height="20" viewBox="0 0 20 20" fill="none" xmlns="http://www.w3.org/2000/svg">
<path d="M10 1.75C10.4142 1.75 10.75 2.08579 10.75 2.5V8.5C10.75 8.91421 10.4142 9.25 10 9.25C9.58579 9.25 9.25 8.91421 9.25 8.5V2.5C9.25 2.08579 9.58579 1.75 10 1.75Z" fill="#212121"/>
<path d="M12.719 4.2765C12.9257 3.91757 13.3843 3.79418 13.7432 4.00091C15.1742 4.82508 16.2931 6.09849 16.9265 7.62355C17.5598 9.14861 17.6721 10.8401 17.246 12.4355C16.8198 14.0309 15.879 15.4411 14.5696 16.4472C13.2602 17.4533 11.6553 17.9992 10.0039 18C8.35259 18.0009 6.74712 17.4567 5.43663 16.452C4.12613 15.4472 3.18388 14.038 2.75607 12.4431C2.32825 10.8481 2.43879 9.15653 3.07053 7.6308C3.53529 6.50836 4.26302 5.52185 5.18468 4.75H4C3.58579 4.75 3.25 4.41421 3.25 4C3.25 3.58579 3.58579 3.25 4 3.25H6.5C7.19036 3.25 7.75 3.80964 7.75 4.5V7C7.75 7.41421 7.41421 7.75 7 7.75C6.58579 7.75 6.25 7.41421 6.25 7V5.81627C5.46417 6.44543 4.84526 7.26558 4.45643 8.20465C3.95103 9.42523 3.8626 10.7785 4.20485 12.0545C4.54711 13.3304 5.30091 14.4578 6.3493 15.2616C7.3977 16.0654 8.68207 16.5007 10.0031 16.5C11.3242 16.4993 12.6081 16.0627 13.6557 15.2578C14.7032 14.4528 15.4559 13.3247 15.7968 12.0484C16.1377 10.7721 16.0478 9.4189 15.5412 8.19885C15.0345 6.9788 14.1393 5.96007 12.9946 5.30073C12.6356 5.094 12.5122 4.63544 12.719 4.2765Z" fill="#212121"/>
</svg>
