<svg width="24" height="24" viewBox="0 0 24 24" fill="none" xmlns="http://www.w3.org/2000/svg">
<path d="M6.64319 5.75H5C4.58579 5.75 4.25 5.41421 4.25 5C4.25 4.58579 4.58579 4.25 5 4.25H8.5C9.19036 4.25 9.75 4.80964 9.75 5.5V9C9.75 9.41421 9.41421 9.75 9 9.75C8.58579 9.75 8.25 9.41421 8.25 9V6.48629C5.96075 7.81026 4.5 10.268 4.5 12.9914C4.5 17.1386 7.85759 20.5002 11.9989 20.5002C16.1403 20.5002 19.4979 17.1386 19.4979 12.9914C19.4979 10.0477 17.7912 7.41389 15.1753 6.18718C14.8002 6.01131 14.6388 5.56472 14.8147 5.1897C14.9905 4.81467 15.4371 4.65322 15.8121 4.82909C18.9502 6.30065 20.9979 9.46066 20.9979 12.9914C20.9979 17.9666 16.9691 22.0002 11.9989 22.0002C7.02876 22.0002 3 17.9666 3 12.9914C3 10.0784 4.39382 7.41812 6.64319 5.75Z" fill="#212121"/>
<path d="M12.7421 3.14432C12.6924 2.77825 12.3786 2.49609 11.9989 2.49609C11.5847 2.49609 11.2489 2.83188 11.2489 3.24609V10.746L11.2558 10.8478C11.3055 11.2139 11.6192 11.496 11.9989 11.496C12.4132 11.496 12.7489 11.1602 12.7489 10.746V3.24609L12.7421 3.14432Z" fill="#212121"/>
</svg>
