<svg width="28" height="28" viewBox="0 0 28 28" fill="none" xmlns="http://www.w3.org/2000/svg">
<path d="M14 2C14.5523 2 15 2.44772 15 3V12C15 12.5523 14.5523 13 14 13C13.4477 13 13 12.5523 13 12V3C13 2.44772 13.4477 2 14 2Z" fill="#212121"/>
<path d="M7.67421 6C4.84805 7.99001 3 11.2784 3 15C3 21.0751 7.92487 26 14 26C20.0751 26 25 21.0751 25 15C25 10.4878 22.2833 6.61226 18.4004 4.91575C17.8943 4.69463 17.3048 4.92564 17.0836 5.43173C16.8625 5.93782 17.0935 6.52733 17.5996 6.74845C20.7803 8.13817 23 11.311 23 15C23 19.9706 18.9706 24 14 24C9.02944 24 5 19.9706 5 15C5 11.8808 6.58695 9.13057 9 7.51532V10C9 10.5523 9.44772 11 10 11C10.5523 11 11 10.5523 11 10V5.85401C11.0003 5.83909 11.0003 5.82414 11 5.80916V5.5C11 4.67157 10.3284 4 9.5 4H5C4.44772 4 4 4.44772 4 5C4 5.55228 4.44772 6 5 6H7.67421Z" fill="#212121"/>
</svg>
