<svg width="28" height="28" viewBox="0 0 28 28" fill="none" xmlns="http://www.w3.org/2000/svg">
<path d="M8.0449 5.75H5C4.58579 5.75 4.25 5.41421 4.25 5C4.25 4.58579 4.58579 4.25 5 4.25H9.5C10.1904 4.25 10.75 4.80964 10.75 5.5V5.54251C10.7503 5.55386 10.7503 5.56518 10.75 5.57648V10C10.75 10.4142 10.4142 10.75 10 10.75C9.58579 10.75 9.25 10.4142 9.25 10V6.77074C6.4095 8.4139 4.5 11.4846 4.5 15C4.5 20.2467 8.75329 24.5 14 24.5C19.2467 24.5 23.5 20.2467 23.5 15C23.5 11.0698 21.1132 7.69533 17.7071 6.25027C17.3258 6.08849 17.1478 5.64823 17.3096 5.26691C17.4713 4.8856 17.9116 4.70762 18.2929 4.8694C22.2336 6.54125 25 10.4467 25 15C25 21.0751 20.0751 26 14 26C7.92487 26 3 21.0751 3 15C3 11.1184 5.0104 7.70758 8.0449 5.75Z" fill="#212121"/>
<path d="M14.75 2.75C14.75 2.33579 14.4142 2 14 2C13.5858 2 13.25 2.33579 13.25 2.75V12.25C13.25 12.6642 13.5858 13 14 13C14.4142 13 14.75 12.6642 14.75 12.25V2.75Z" fill="#212121"/>
</svg>
