<svg width="20" height="20" viewBox="0 0 20 20" fill="none" xmlns="http://www.w3.org/2000/svg">
<path d="M10 2C10.2761 2 10.5 2.22386 10.5 2.5V8.5C10.5 8.77614 10.2761 9 10 9C9.72386 9 9.5 8.77614 9.5 8.5V2.5C9.5 2.22386 9.72386 2 10 2Z" fill="#212121"/>
<path d="M13.0604 4.18462C13.1982 3.94533 13.5039 3.86307 13.7432 4.00089C15.1742 4.82507 16.2931 6.09847 16.9265 7.62353C17.5598 9.1486 17.6721 10.84 17.246 12.4355C16.8198 14.0309 15.879 15.441 14.5696 16.4472C13.2602 17.4533 11.6553 17.9991 10.0039 18C8.35259 18.0009 6.74712 17.4567 5.43663 16.4519C4.12613 15.4472 3.18388 14.038 2.75607 12.443C2.32825 10.8481 2.43879 9.15651 3.07053 7.63078C3.58709 6.38324 4.42851 5.3036 5.49999 4.5H4C3.72386 4.5 3.5 4.27614 3.5 4C3.5 3.72386 3.72386 3.5 4 3.5H6.5C7.05228 3.5 7.5 3.94772 7.5 4.5V7C7.5 7.27614 7.27614 7.5 7 7.5C6.72386 7.5 6.5 7.27614 6.5 7V5.02278C5.38029 5.73826 4.50459 6.78132 3.99446 8.01335C3.44695 9.33564 3.35115 10.8017 3.72193 12.184C4.0927 13.5663 4.90932 14.7876 6.04508 15.6584C7.18084 16.5291 8.57224 17.0008 10.0034 17C11.4346 16.9993 12.8255 16.5262 13.9603 15.6542C15.0952 14.7822 15.9105 13.5601 16.2798 12.1774C16.6492 10.7947 16.5518 9.32878 16.0029 8.00706C15.454 6.68534 14.4843 5.58172 13.2441 4.86744C13.0048 4.72962 12.9226 4.42391 13.0604 4.18462Z" fill="#212121"/>
</svg>
