<svg width="32" height="32" viewBox="0 0 32 32" fill="none" xmlns="http://www.w3.org/2000/svg">
<path d="M16 2C16.6527 2 17.1818 2.52233 17.1818 3.16667V13.6667C17.1818 14.311 16.6527 14.8333 16 14.8333C15.3473 14.8333 14.8182 14.311 14.8182 13.6667V3.16667C14.8182 2.52233 15.3473 2 16 2Z" fill="#212121"/>
<path d="M9.16254 6.25C5.46512 8.51153 3 12.5539 3 17.1667C3 24.2543 8.8203 30 16 30C23.1797 30 29 24.2543 29 17.1667C29 11.9024 25.7893 7.38097 21.2004 5.4017C20.6023 5.14373 19.9056 5.41325 19.6443 6.00368C19.383 6.59412 19.656 7.28189 20.2541 7.53986C24.0131 9.16119 26.6364 12.8628 26.6364 17.1667C26.6364 22.9657 21.8743 27.6667 16 27.6667C10.1257 27.6667 5.36364 22.9657 5.36364 17.1667C5.36364 13.2541 7.5316 9.83918 10.75 8.0325V10C10.75 10.6904 11.3096 11.25 12 11.25C12.6904 11.25 13.25 10.6904 13.25 10V5.5C13.25 4.5335 12.4665 3.75 11.5 3.75H7C6.30964 3.75 5.75 4.30964 5.75 5C5.75 5.69036 6.30964 6.25 7 6.25H9.16254Z" fill="#212121"/>
</svg>
