<svg width="28" height="28" viewBox="0 0 28 28" fill="none" xmlns="http://www.w3.org/2000/svg">
<path d="M2 8.73431C2 7.77647 2.80589 7 3.8 7H22.4C25.7 7 26 15.8176 26 18.13V20.2709C26 20.849 25.4 21.4271 24.8 21.4271H23.9952C23.5009 22.8261 22.1675 24 20.6 24C19.0325 24 17.699 22.8261 17.2048 21.4271H11.3952C10.9009 22.8261 9.56745 24 7.99999 24C6.43253 24 5.09905 22.8261 4.60485 21.4271H3.2C2.53726 21.4271 2 20.9095 2 20.2709L2 8.73431ZM4.44888 19.6314C4.73233 17.9252 6.21433 16.796 7.99999 16.796C9.78565 16.796 11.3952 18.13 11.3952 19.6928H17.0392C17.2969 17.9565 18.793 16.796 20.6 16.796C22.2975 16.796 23.8031 18.13 24 19.4223C24.1905 19.4223 24.3961 19.4223 24.3961 19V17.1665C24.3961 17.0618 24.4021 16.1414 24.3961 16H23.0091C22.8189 16 22.6336 15.9397 22.4798 15.8278L19.4073 13.5H3.5L3.5 18.7936C3.5 19.1748 4.06905 19.5006 4.44888 19.6314ZM22 8.49999L20.6 8.49999L20.6 12.5L23.2927 14.5H24.3961C24.0763 11.6096 23.1318 8.49999 22 8.49999ZM14.9 8.49999V12H18.8V8.49999L14.9 8.49999ZM8.9 8.5V12H13.1V8.49999L8.9 8.5ZM4.1 8.5C3.8 8.5 3.5 8.80016 3.5 9.10033V12H7.1V8.5L4.1 8.5ZM9.79999 20.398C9.79999 19.4033 8.9941 18.597 7.99999 18.597C7.00588 18.597 6.19999 19.4033 6.19999 20.398C6.19999 21.3927 7.00588 22.199 7.99999 22.199C8.9941 22.199 9.79999 21.3927 9.79999 20.398ZM22.4 20.398C22.4 19.4033 21.5941 18.597 20.6 18.597C19.6059 18.597 18.8 19.4033 18.8 20.398C18.8 21.3927 19.6059 22.199 20.6 22.199C21.5941 22.199 22.4 21.3927 22.4 20.398Z" fill="#212121"/>
</svg>
