<svg width="20" height="20" viewBox="0 0 20 20" fill="none" xmlns="http://www.w3.org/2000/svg">
<path d="M8.94999 15C8.71836 16.1411 7.70948 17 6.5 17C5.29188 17 4.28391 16.143 4.05079 15.0038L4.05001 15H2.5C2.5 15 2 14.9036 2 14.4087V6.29148C2 5.57436 2.59966 5 3.33069 5H15.4218C16.0369 5 16.501 5.41444 16.8485 6.02624C17.1964 6.6386 17.439 7.46662 17.6086 8.33754C17.948 10.0809 18 12.0238 18 12.8304V14.1108C18 14.341 17.882 14.563 17.7143 14.7252C17.5463 14.8878 17.3187 15 17.0851 15H16.95L16.9503 14.9986C16.7192 16.1404 15.71 17 14.5 17C13.2905 17 12.2816 16.1411 12.05 15H8.94999ZM6.5 16C7.32843 16 8 15.3284 8 14.5C8 13.6716 7.32843 13 6.5 13C5.67157 13 5 13.6716 5 14.5C5 15.3284 5.67157 16 6.5 16ZM14.5 16C15.3284 16 16 15.3284 16 14.5C16 13.6716 15.3284 13 14.5 13C13.6716 13 13 13.6716 13 14.5C13 15.3284 13.6716 16 14.5 16ZM14 6V9L15.6017 11H16.9503C17.0851 9.5 16.54 7.26932 15.8439 6.33809C15.6739 6.11061 15.4285 6 15 6H14ZM9.99802 5.99999L10 9H13L12.998 5.99999L9.99802 5.99999ZM5.99802 6L6 9H9L8.99802 6L5.99802 6ZM4.99802 6L3.33069 6C3.17263 6 3 6.20937 3 6.35953V9H5L4.99802 6Z" fill="#212121"/>
</svg>
