<svg width="48" height="48" viewBox="0 0 48 48" fill="none" xmlns="http://www.w3.org/2000/svg">
<path d="M4 14.8889C4 13.2934 5.34315 12 7 12H38C43.5 12 44 26.3704 44 30.2222V34.0741C44 35.037 43 36 42 36H40.6586C39.8349 38.3304 37.6124 40 35 40C32.3876 40 30.1651 38.3304 29.3414 36H19.6586C18.8349 38.3304 16.6124 40 14 40C11.3876 40 9.16508 38.3304 8.34141 36H6C4.89543 36 4 35.1377 4 34.0741V14.8889ZM37.2638 15L35 15V23.7362C35 23.7362 36.969 25.3984 37.6772 26C38.3853 26.6016 39 27 39.4878 27H41C40.4671 22.1854 39.1501 15 37.2638 15ZM25.5 15V23H32V15L25.5 15ZM15.5 15V23H22.5V15L15.5 15ZM8 15C7.5 15 7 15.5 7 16V23H12.5V15L8 15ZM17 34C17 32.3431 15.6569 31 14 31C12.3431 31 11 32.3431 11 34C11 35.6569 12.3431 37 14 37C15.6569 37 17 35.6569 17 34ZM38 34C38 32.3431 36.6569 31 35 31C33.3431 31 32 32.3431 32 34C32 35.6569 33.3431 37 35 37C36.6569 37 38 35.6569 38 34Z" fill="#212121"/>
</svg>
