<svg width="32" height="32" viewBox="0 0 32 32" fill="none" xmlns="http://www.w3.org/2000/svg">
<path d="M2 9.04036C2 7.9135 2.9402 7 4.1 7H25.8C29.65 7 30 17.3737 30 20.0942V22.6129C30 23.293 29.3 23.9731 28.6 23.9731H27.661C27.0844 25.619 25.5287 27 23.7 27C21.8713 27 20.3156 25.619 19.739 23.9731H12.961C12.3844 25.619 10.8287 27 8.99999 27C7.17128 27 5.61556 25.619 5.03899 23.9731H3.4C2.6268 23.9731 2 23.3641 2 22.6129L2 9.04036ZM25.4751 9.11883L23.9955 9.11883V14.4201C23.9955 14.4201 25 16.9888 26 16.9888H27.7154C27.7154 14.8924 27.2955 9.11883 25.4751 9.11883ZM17.05 9.04035V14H22.0066V9.04035L17.05 9.04035ZM10.05 9.04036V14H14.95V9.04035L10.05 9.04036ZM4.8 9.04036C4.45 9.04036 4 9.39349 4 9.74663V14H7.95V9.04036L4.8 9.04036ZM11.1 22.7623C11.1 21.5921 10.1598 20.6435 8.99999 20.6435C7.84019 20.6435 6.89999 21.5921 6.89999 22.7623C6.89999 23.9325 7.84019 24.8812 8.99999 24.8812C10.1598 24.8812 11.1 23.9325 11.1 22.7623ZM25.8 22.7623C25.8 21.5921 24.8598 20.6435 23.7 20.6435C22.5402 20.6435 21.6 21.5921 21.6 22.7623C21.6 23.9325 22.5402 24.8812 23.7 24.8812C24.8598 24.8812 25.8 23.9325 25.8 22.7623Z" fill="#212121"/>
</svg>
