<svg width="32" height="32" viewBox="0 0 32 32" fill="none" xmlns="http://www.w3.org/2000/svg">
<path d="M2 9.2C2 8.08316 2.9402 7 4.1 7H25.8C29.65 7 30 17.4593 30 20.1556V22.6519C30 23.3259 29.3 24 28.6 24H27.661C27.0844 25.6313 25.5287 27 23.7 27C21.8713 27 20.3156 25.6313 19.739 24H12.961C12.3844 25.6313 10.8287 27 8.99999 27C7.17128 27 5.61556 25.6313 5.03899 24H4C3.2268 24 2 22.7223 2 21.9778L2 9.2ZM4.85702 21.9062C5.18771 19.9168 6.91672 18.6 8.99999 18.6C11.3196 18.6 13.0571 20.2 13.0571 21.9778H19.5458C19.8464 19.9532 21.5918 18.6 23.7 18.6C25.6105 18.6 27.2231 19.6756 27.7324 21.4216C27.8374 21.2694 27.9 21.0993 27.9 20.9292V19.0321C27.9 18.9099 27.8964 18.3426 27.8894 18.1778H26.5C26.2781 18.1778 26.0619 18.1075 25.8824 17.977L22.1653 15.022H4L4.1 20.9292C4.1 21.3737 4.41389 21.7536 4.85702 21.9062ZM25.3291 9.02204L23.9291 9.02204L24.1188 13.9303L26.8414 16.0778H27.7154C27.3423 12.7076 26.6495 9.02204 25.3291 9.02204ZM17.05 9.02203V13.0096H21.9627V9.02203L17.05 9.02203ZM10.05 9.02204V13.0096H14.95V9.02203L10.05 9.02204ZM4.8 9.02204C4.45 9.02204 4 9.37203 4 9.72203V13.0096H7.95V9.02204L4.8 9.02204ZM11.1 22.8C11.1 21.6402 10.1598 20.7 8.99999 20.7C7.84019 20.7 6.89999 21.6402 6.89999 22.8C6.89999 23.9598 7.84019 24.9 8.99999 24.9C10.1598 24.9 11.1 23.9598 11.1 22.8ZM25.8 22.8C25.8 21.6402 24.8598 20.7 23.7 20.7C22.5402 20.7 21.6 21.6402 21.6 22.8C21.6 23.9598 22.5402 24.9 23.7 24.9C24.8598 24.9 25.8 23.9598 25.8 22.8Z" fill="#212121"/>
</svg>
