<svg width="20" height="20" viewBox="0 0 20 20" fill="none" xmlns="http://www.w3.org/2000/svg">
<path d="M2 6.29148C2 5.57436 2.59966 5 3.33069 5H15.4218C16.0369 5 16.501 5.41444 16.8485 6.02624C17.1964 6.6386 17.439 7.46662 17.6086 8.33754C17.948 10.0809 18 12.0238 18 12.8304V14.1108C18 14.341 17.882 14.563 17.7143 14.7252C17.5463 14.8878 17.3187 15 17.0851 15H16.9021C16.68 16.1411 15.7095 17 14.5 17C13.2905 17 12.2816 16.1411 12.05 15L8.95016 14.9991C8.71886 16.1407 7.70978 17 6.5 17C5.2703 17 4.24797 16.1122 4.03905 14.9425C4.03905 14.9425 4.04614 14.9809 4.05001 15H2.5C2.5 15 2 14.9036 2 14.4087V6.29148ZM8 14.5C8 13.6716 7.32843 13 6.5 13C5.67157 13 5 13.6716 5 14.5C5 15.3284 5.67157 16 6.5 16C7.32843 16 8 15.3284 8 14.5ZM16 14.5C16 13.6716 15.3284 13 14.5 13C13.6716 13 13 13.6716 13 14.5C13 15.3284 13.6716 16 14.5 16C15.3284 16 16 15.3284 16 14.5ZM3.71714 14H4.05001C4.28165 12.8589 5.29052 12 6.5 12C7.70812 12 8.71609 12.857 8.94921 13.9962L12.05 14C12.2816 12.8589 13.2905 12 14.5 12C15.71 12 16.7192 12.8596 16.9503 14.0014L16.95 14H16.9986C16.9986 13.7111 16.9996 13.4222 17.0005 13.1333C17.0023 12.5889 17.0046 12.5444 17.0005 12H15C15 12 13.7528 10.4228 13 10L3 10L3 13.5316C3 13.9851 3.21482 13.9896 3.67133 13.999L3.71714 14ZM13.9882 5.99999V8.99999L16 11.0178H17.0005C16.9021 9.80735 16.756 7.55831 15.8439 6.33809C15.6739 6.11061 15.4285 6 15 6L13.9882 5.99999ZM9.99802 5.99999L10 9H13L12.998 5.99999L9.99802 5.99999ZM5.97585 6L5.97783 9H9L8.99802 6L5.97585 6ZM5 6.02624L3.33069 6C3.17263 6 3 6.20937 3 6.35953V9L5.00198 9.02624L5 6.02624Z" fill="#212121"/>
</svg>
