<svg width="48" height="48" viewBox="0 0 48 48" fill="none" xmlns="http://www.w3.org/2000/svg">
<path d="M4 16C4 14 6 12 8 12H38C43.5 12 44 26.3704 44 30.2222V34.0741C44 35.037 43 36 42 36H40.6586C39.8349 38.3304 37.6124 40 35 40C32.3876 40 30.1651 38.3304 29.3414 36H19.6586C18.8349 38.3304 16.6124 40 14 40C11.3876 40 9.16508 38.3304 8.34141 36H8C6 36 4 34 4 32L4 16ZM8 33.5C8.5 29.5 11.0239 28 14 28C17.0117 28 19.6586 30 19.9346 33.5H29.0654C29.3414 30 31.9883 28 35 28C37.7293 28 40.4798 30.2222 40.7362 33.5C40.7362 33.5 41.5 33.5 41.5 32.5C41.5 31.5 41.5506 28.7193 41.5 27.5374H39C38.683 27.5374 38.2564 27.3343 38 27.1479L33.0122 23.5H6.5V31C6.5 32 7.5 33.5 8 33.5ZM37.4932 14.5H35V21.7362L39.4878 25H41.3843C40.8514 20.1854 39.3795 14.5 37.4932 14.5ZM25 14.5V21L32.5 21V14.5L25 14.5ZM15.5 14.5V21H22.5V14.5L15.5 14.5ZM8 14.5C7 14.5 6.5 15.5 6.5 16V21L13 21V14.5L8 14.5ZM17 34C17 32.3431 15.6569 31 14 31C12.3431 31 11 32.3431 11 34C11 35.6569 12.3431 37 14 37C15.6569 37 17 35.6569 17 34ZM38 34C38 32.3431 36.6569 31 35 31C33.3431 31 32 32.3431 32 34C32 35.6569 33.3431 37 35 37C36.6569 37 38 35.6569 38 34Z" fill="#212121"/>
</svg>
