<svg width="24" height="24" viewBox="0 0 24 24" fill="none" xmlns="http://www.w3.org/2000/svg">
<path d="M3.66337 5C2.74958 5 2 5.71795 2 6.61435V16.9267C2 17.5454 2.51685 18.0382 3.14356 18.0382H4.28825C4.74732 19.2579 5.91825 20 7.30197 20C8.68569 20 9.85664 19.2579 10.3157 18.0382L14.2041 18.0382C14.6632 19.2579 15.8341 20 17.2178 20C18.6015 20 19.7725 19.2579 20.2315 18.0382H20.8564C21.1484 18.0382 21.4329 17.8979 21.6429 17.6947C21.8525 17.4919 22 17.2144 22 16.9267V14.7879C22 13.7797 21.935 11.3511 21.5107 9.17193C21.2987 8.08328 20.9955 7.04826 20.5607 6.2828C20.1262 5.51805 19.5462 5 18.7772 5L3.66337 5ZM17 9.83673L17 6.51614L18.4307 6.51614C18.6263 6.51614 18.8344 6.65201 19.0469 6.93637C19.2571 7.2175 19.4557 7.62335 19.6349 8.11413C19.9818 9.06386 20.2482 10.3098 20.3899 11.5244H19.5846L17 9.83673ZM12.3837 9.5V6.51615L15.5 6.51615V9.5H12.3837ZM8 9.5V6.51615L11 6.51615V9.5H8ZM3.92327 6.51616L6.5 6.51616V9.5H3.50743V6.93276C3.50743 6.83698 3.55617 6.73205 3.639 6.64884C3.72175 6.56569 3.82671 6.51616 3.92327 6.51616ZM3.50743 15.3651L3.50743 11L16 11L18.784 12.8697L18.7856 12.8709C18.9367 12.9812 19.1184 13.0406 19.3049 13.0406H20.4043C20.4057 13.2272 20.4041 13.5938 20.4031 13.803L20.4025 13.9498V15.5447C20.4025 15.715 20.3611 15.7628 20.3376 15.7794C20.3167 15.7941 20.2895 15.801 20.2498 15.8041C20.1356 15.2404 19.7607 14.6853 19.243 14.2656C18.6959 13.8221 17.9798 13.5218 17.2178 13.5218C15.6394 13.5218 14.314 14.5227 14.0448 16.0418L10.3446 16.0418C10.3106 15.3653 9.95181 14.7485 9.41942 14.2965C8.85923 13.821 8.10044 13.5218 7.30197 13.5218C5.75544 13.5218 4.45159 14.4794 4.14643 15.9507C4.01537 15.8954 3.87232 15.8183 3.75387 15.7271C3.59472 15.6046 3.50743 15.4783 3.50743 15.3651ZM5.84653 16.7609C5.84653 15.955 6.49704 15.2998 7.30197 15.2998C8.1069 15.2998 8.75742 15.955 8.75742 16.7609C8.75742 17.5667 8.1069 18.222 7.30197 18.222C6.49704 18.222 5.84653 17.5667 5.84653 16.7609ZM15.7624 16.7609C15.7624 15.955 16.4129 15.2998 17.2178 15.2998C18.0227 15.2998 18.6733 15.955 18.6733 16.7609C18.6733 17.5667 18.0227 18.222 17.2178 18.222C16.4129 18.222 15.7624 17.5667 15.7624 16.7609Z" fill="#212121"/>
</svg>
