<svg width="16" height="16" viewBox="0 0 16 16" fill="none" xmlns="http://www.w3.org/2000/svg">
<path d="M2.16436 4C1.5247 4 1 4.45949 1 5.03318V11.527C1 11.9229 1.4375 12 1.4375 12H2.77769C2.87442 13.1187 3.81318 13.9966 4.95697 13.9966C6.10076 13.9966 7.03952 13.1187 7.13625 12H9.77769C9.87442 13.1187 10.8132 13.9966 11.957 13.9966C13.1008 13.9966 14.0395 13.1187 14.1363 12H14.1995C14.4039 12 14.603 11.9102 14.75 11.7802C14.8968 11.6504 15 11.4728 15 11.2887V10.2643C15 9.61903 14.9545 8.06471 14.6575 6.67003C14.5091 5.9733 14.2969 5.31088 13.9925 4.82099C13.6884 4.33155 13.2823 4 12.7441 4H2.16436ZM8 8L7.99827 5L10.1858 4.99999L10.1875 8H8ZM4.9375 8L4.93577 5L7.12327 5L7.125 8H4.9375ZM2.25358 5L4.0625 5L4.06423 8L1.96423 8V5.28762C1.96423 5.1675 2.11528 5 2.25358 5ZM4.95697 12.9966C4.30113 12.9966 3.76947 12.4649 3.76947 11.8091C3.76947 11.1532 4.30113 10.6216 4.95697 10.6216C5.61281 10.6216 6.14447 11.1532 6.14447 11.8091C6.14447 12.4649 5.61281 12.9966 4.95697 12.9966ZM11.957 12.9966C11.3011 12.9966 10.7695 12.4649 10.7695 11.8091C10.7695 11.1532 11.3011 10.6216 11.957 10.6216C12.6128 10.6216 13.1445 11.1532 13.1445 11.8091C13.1445 12.4649 12.6128 12.9966 11.957 12.9966ZM11.0625 5H12.375C12.7499 5 12.9957 5.16809 13.1445 5.35008C13.642 6.16791 13.8461 8.38481 13.9116 9L13.3092 9L11.0625 8V5Z" fill="#212121"/>
</svg>
