<svg width="16" height="16" viewBox="0 0 16 16" fill="none" xmlns="http://www.w3.org/2000/svg">
<path d="M1 5.03318C1 4.45949 1.5247 4 2.16436 4H12.7441C13.2823 4 13.6884 4.33155 13.9925 4.82099C14.2969 5.31088 14.5091 5.9733 14.6575 6.67003C14.9545 8.06471 15 9.61903 15 10.2643V11.2887C15 11.4728 14.8968 11.6504 14.75 11.7802C14.603 11.9102 14.4039 12 14.1995 12H14.1363C14.0395 13.1187 13.1008 13.9966 11.957 13.9966C10.8132 13.9966 9.87442 13.1187 9.77769 12H7.13625C7.03952 13.1187 6.10076 13.9966 4.95697 13.9966C3.81318 13.9966 2.87442 13.1187 2.77769 12H1.4375C1.4375 12 1 11.9229 1 11.527V5.03318ZM1.96422 10.6252C1.96422 10.8438 2.09766 10.9992 2.30078 10.9992L2.92396 11C3.24565 10.1924 4.03465 9.62156 4.95697 9.62156C5.87929 9.62156 6.66829 10.1924 6.98998 11H9.92396C10.2456 10.1924 11.0346 9.62156 11.957 9.62156C12.9085 9.62156 13.7181 10.2291 14.0191 11.0774C14.0171 11.0474 14.014 11.021 14.0093 11C14.0093 11 14.0082 10.6163 14.0093 10.3066C14.0109 9.87108 13.9925 9.4831 13.917 9H13.1134C12.9829 9 12.8557 8.96202 12.7499 8.89139L12.7488 8.89062L10.625 8H1.96423L1.96422 10.6252ZM11.0625 5V7L13.3092 8H13.8546L13.853 7.98709C13.7941 7.52517 13.6109 6.08831 13.1134 5.27047C12.9647 5.08849 12.7499 5 12.375 5H11.0625ZM7.99827 5L8 7H10.1875L10.1858 4.99999L7.99827 5ZM4.93577 5L4.9375 7H7.125L7.12327 5L4.93577 5ZM4.0625 5L2.25358 5C2.11528 5 1.96423 5.1675 1.96423 5.28762V7L4.06423 7L4.0625 5ZM6.14447 11.8091C6.14447 11.1532 5.61281 10.6216 4.95697 10.6216C4.30113 10.6216 3.76947 11.1532 3.76947 11.8091C3.76947 12.4649 4.30113 12.9966 4.95697 12.9966C5.61281 12.9966 6.14447 12.4649 6.14447 11.8091ZM13.1445 11.8091C13.1445 11.1532 12.6128 10.6216 11.957 10.6216C11.3011 10.6216 10.7695 11.1532 10.7695 11.8091C10.7695 12.4649 11.3011 12.9966 11.957 12.9966C12.6128 12.9966 13.1445 12.4649 13.1445 11.8091Z" fill="#212121"/>
</svg>
