<svg width="24" height="24" viewBox="0 0 24 24" fill="none" xmlns="http://www.w3.org/2000/svg">
<path d="M3.66337 5C2.74958 5 2 5.71795 2 6.61435V16.6504C2 17.269 2.51685 17.7618 3.14356 17.7618H4.28825C4.74732 18.9815 5.91825 20 7.30197 20C8.68569 20 9.85664 18.9816 10.3157 17.7618L14.2041 17.7618C14.6632 18.9815 15.8341 20 17.2178 20C18.6015 20 19.7725 18.9815 20.2315 17.7618H20.8564C21.1484 17.7618 21.4329 17.6215 21.6429 17.4183C21.8525 17.2155 22 16.938 22 16.6503V14.7879C22 13.7797 21.935 11.3511 21.5107 9.17193C21.2987 8.08328 20.9955 7.04826 20.5607 6.2828C20.1262 5.51805 19.5462 5 18.7772 5L3.66337 5ZM17 10.3367L17 6.51614L18.4307 6.51614C18.6263 6.51614 18.8344 6.65201 19.0469 6.93637C19.2571 7.2175 19.4557 7.62335 19.6349 8.11413C19.9818 9.06386 20.2482 10.8098 20.3899 12.0244H19.5846L17 10.3367ZM12.3837 10V6.51615L15.5 6.51615V10H12.3837ZM8 10V6.51615L11 6.51615V10H8ZM3.92327 6.51616L6.5 6.51616V10H3.50743V6.93276C3.50743 6.83698 3.55617 6.73205 3.639 6.64884C3.72175 6.56569 3.82671 6.51616 3.92327 6.51616ZM5.84653 16.7609C5.84653 15.955 6.49704 15.2998 7.30197 15.2998C8.1069 15.2998 8.75742 15.955 8.75742 16.7609C8.75742 17.5667 8.1069 18.222 7.30197 18.222C6.49704 18.222 5.84653 17.5667 5.84653 16.7609ZM15.7624 16.7609C15.7624 15.955 16.4129 15.2998 17.2178 15.2998C18.0227 15.2998 18.6733 15.955 18.6733 16.7609C18.6733 17.5667 18.0227 18.222 17.2178 18.222C16.4129 18.222 15.7624 17.5667 15.7624 16.7609Z" fill="#212121"/>
</svg>
