<svg width="20" height="20" viewBox="0 0 20 20" fill="none" xmlns="http://www.w3.org/2000/svg">
<path d="M2 10C2 5.58172 5.58172 2 10 2C14.4183 2 18 5.58172 18 10C18 14.4183 14.4183 18 10 18C5.58172 18 2 14.4183 2 10ZM5.5 10C5.5 7.51472 7.51472 5.5 10 5.5C10.2761 5.5 10.5 5.27614 10.5 5C10.5 4.72386 10.2761 4.5 10 4.5C6.96243 4.5 4.5 6.96243 4.5 10C4.5 11.2378 4.90952 12.3815 5.60025 13.3008C5.76612 13.5216 6.07956 13.5661 6.30034 13.4002C6.52111 13.2344 6.56562 12.9209 6.39975 12.7001C5.83466 11.948 5.5 11.0138 5.5 10Z" fill="#212121"/>
</svg>
