<svg width="160" height="160" viewBox="0 0 160 160" fill="none" xmlns="http://www.w3.org/2000/svg">
<path d="M84.7105 134.141C114.748 134.141 139.1 109.843 139.1 79.7651C139.1 49.6868 114.641 25.3887 84.7105 25.3887C54.6731 25.3887 30.3213 49.6868 30.3213 79.7651C30.3213 109.843 54.6731 134.141 84.7105 134.141Z" fill="#242424"/>
<path d="M145 23.9972C145 25.6524 143.655 26.9943 141.996 26.9943C140.337 26.9943 138.993 25.6524 138.993 23.9972C138.993 22.3419 140.337 21.0001 141.996 21.0001C143.655 21.0001 145 22.3419 145 23.9972Z" fill="#3A3A3A"/>
<path d="M139.958 39.732C139.958 42.1557 137.989 44.1206 135.56 44.1206C133.131 44.1206 131.161 42.1557 131.161 39.732C131.161 37.3082 133.131 35.3433 135.56 35.3433C137.989 35.3433 139.958 37.3082 139.958 39.732Z" fill="#3A3A3A"/>
<path d="M33.2174 44.0136C34.8764 44.0136 36.2212 42.6717 36.2212 41.0165C36.2212 39.3612 34.8764 38.0193 33.2174 38.0193C31.5585 38.0193 30.2137 39.3612 30.2137 41.0165C30.2137 42.6717 31.5585 44.0136 33.2174 44.0136Z" fill="#3A3A3A"/>
<path d="M26.1566 103.237C26.1566 106.311 23.6591 108.803 20.5783 108.803C17.4974 108.803 14.9999 106.311 14.9999 103.237C14.9999 100.163 17.4974 97.6708 20.5783 97.6708C23.6591 97.6708 26.1566 100.163 26.1566 103.237Z" fill="#3A3A3A"/>
<path d="M128.117 115.245H41.3033C37.3119 115.245 34.0688 112.009 34.0688 108.027V52.5186C34.0688 48.536 37.3119 45.3001 41.3033 45.3001H128.117C132.109 45.3001 135.352 48.536 135.352 52.5186V108.276C135.102 112.009 131.859 115.245 128.117 115.245Z" fill="url(#paint0_linear_3841_34843)"/>
<path d="M64.9052 47.858H49.8712V53.3736H64.9052V47.858Z" fill="url(#paint1_linear_3841_34843)"/>
<path d="M118.795 47.858H103.762V53.3736H118.795V47.858Z" fill="url(#paint2_linear_3841_34843)"/>
<path d="M52.0303 35.3433H62.7573V50.3988H52.0303V35.3433Z" fill="url(#paint3_linear_3841_34843)"/>
<path d="M105.92 35.3433H116.647V50.3988H105.92V35.3433Z" fill="url(#paint4_linear_3841_34843)"/>
<path fill-rule="evenodd" clip-rule="evenodd" d="M65.5014 64.815C59.7699 64.815 55.1235 69.4511 55.1235 75.17C55.1235 78.3314 56.5434 81.162 58.7816 83.0613C53.6829 85.5705 50.134 90.8246 50.134 96.8287C50.134 98.0111 51.0946 98.9695 52.2795 98.9695C53.4644 98.9695 54.425 98.0111 54.425 96.8287C54.425 90.7925 59.4516 85.777 65.5012 85.777C71.5507 85.777 76.5773 90.7925 76.5773 96.8287C76.5773 98.0111 77.5379 98.9695 78.7228 98.9695C79.9078 98.9695 80.8683 98.0111 80.8683 96.8287C80.8683 90.8247 77.3196 85.5708 72.2211 83.0615C74.4593 81.1621 75.8793 78.3315 75.8793 75.17C75.8793 69.4511 71.233 64.815 65.5014 64.815ZM59.4146 75.17C59.4146 71.8158 62.1398 69.0966 65.5014 69.0966C68.8631 69.0966 71.5882 71.8158 71.5882 75.17C71.5882 78.5242 68.8631 81.2434 65.5014 81.2434C62.1398 81.2434 59.4146 78.5242 59.4146 75.17Z" fill="#CBCBCB"/>
<path d="M90.2977 73.676C90.2977 72.4937 91.2583 71.5352 92.4433 71.5352H119.136C120.321 71.5352 121.282 72.4937 121.282 73.676C121.282 74.8584 120.321 75.8168 119.136 75.8168H92.4433C91.2583 75.8168 90.2977 74.8584 90.2977 73.676Z" fill="#CBCBCB"/>
<path d="M92.4433 84.9769C91.2583 84.9769 90.2977 85.9353 90.2977 87.1177C90.2977 88.3 91.2583 89.2585 92.4433 89.2585H102.921C104.106 89.2585 105.066 88.3 105.066 87.1177C105.066 85.9353 104.106 84.9769 102.921 84.9769H92.4433Z" fill="#CBCBCB"/>
<defs>
<linearGradient id="paint0_linear_3841_34843" x1="84.6773" y1="43.6822" x2="84.6773" y2="115.999" gradientUnits="userSpaceOnUse">
<stop stop-color="#5C5C5C"/>
<stop offset="0.9964" stop-color="#4D4D4D"/>
</linearGradient>
<linearGradient id="paint1_linear_3841_34843" x1="111.279" y1="47.858" x2="111.279" y2="53.3736" gradientUnits="userSpaceOnUse">
<stop stop-color="#363636"/>
<stop offset="1" stop-color="#1D1D1D"/>
</linearGradient>
<linearGradient id="paint2_linear_3841_34843" x1="111.279" y1="47.858" x2="111.279" y2="53.3736" gradientUnits="userSpaceOnUse">
<stop stop-color="#363636"/>
<stop offset="1" stop-color="#1D1D1D"/>
</linearGradient>
<linearGradient id="paint3_linear_3841_34843" x1="111.28" y1="34.9951" x2="111.28" y2="50.5611" gradientUnits="userSpaceOnUse">
<stop stop-color="#5C5C5C"/>
<stop offset="0.9964" stop-color="#4D4D4D"/>
</linearGradient>
<linearGradient id="paint4_linear_3841_34843" x1="111.28" y1="34.9951" x2="111.28" y2="50.5611" gradientUnits="userSpaceOnUse">
<stop stop-color="#5C5C5C"/>
<stop offset="0.9964" stop-color="#4D4D4D"/>
</linearGradient>
</defs>
</svg>
