<svg width="160" height="160" viewBox="0 0 160 160" fill="none" xmlns="http://www.w3.org/2000/svg">
<path d="M84.7108 134.391C114.748 134.391 139.1 110.04 139.1 79.8949C139.1 49.7502 114.641 25.3984 84.7108 25.3984C54.6734 25.3984 30.3216 49.7502 30.3216 79.8949C30.3216 110.04 54.6734 134.391 84.7108 134.391Z" fill="#F0F0F0"/>
<path d="M135.56 44.1716C137.989 44.1716 139.958 42.2024 139.958 39.7733C139.958 37.3442 137.989 35.375 135.56 35.375C133.131 35.375 131.162 37.3442 131.162 39.7733C131.162 42.2024 133.131 44.1716 135.56 44.1716Z" fill="#E8DFD3"/>
<path d="M141.997 27.0075C143.655 27.0075 145 25.6627 145 24.0037C145 22.3448 143.655 21 141.997 21C140.338 21 138.993 22.3448 138.993 24.0037C138.993 25.6627 140.338 27.0075 141.997 27.0075Z" fill="#E8DFD3"/>
<path d="M33.2182 44.0644C34.8771 44.0644 36.2219 42.7196 36.2219 41.0606C36.2219 39.4017 34.8771 38.0569 33.2182 38.0569C31.5593 38.0569 30.2144 39.4017 30.2144 41.0606C30.2144 42.7196 31.5593 44.0644 33.2182 44.0644Z" fill="#E8DFD3"/>
<path d="M20.5786 108.997C23.6595 108.997 26.157 106.499 26.157 103.418C26.157 100.338 23.6595 97.84 20.5786 97.84C17.4978 97.84 15.0002 100.338 15.0002 103.418C15.0002 106.499 17.4978 108.997 20.5786 108.997Z" fill="#E8DFD3"/>
<g filter="url(#filter0_d_3841_34843)">
<path d="M128.117 115.453H41.3036C37.3122 115.453 34.0692 112.21 34.0692 108.219V52.5882C34.0692 48.5967 37.3122 45.3537 41.3036 45.3537H128.117C132.109 45.3537 135.352 48.5967 135.352 52.5882V108.468C135.102 112.21 131.859 115.453 128.117 115.453Z" fill="url(#paint0_linear_3841_34843)"/>
</g>
<path d="M49.8723 48.9899C49.8723 48.3975 50.3525 47.9172 50.945 47.9172H63.8334C64.4259 47.9172 64.9062 48.3975 64.9062 48.9899V52.3722C64.9062 52.9647 64.4259 53.445 63.8334 53.445H50.945C50.3525 53.445 49.8723 52.9647 49.8723 52.3722V48.9899Z" fill="#D4CDC0"/>
<path d="M103.762 48.9899C103.762 48.3975 104.242 47.9172 104.834 47.9172H117.723C118.315 47.9172 118.796 48.3975 118.796 48.9899V52.3722C118.796 52.9647 118.315 53.445 117.723 53.445H104.834C104.242 53.445 103.762 52.9647 103.762 52.3722V48.9899Z" fill="#D4CDC0"/>
<g filter="url(#filter1_d_3841_34843)">
<path d="M61.6851 35.3749H53.1036C52.5111 35.3749 52.0308 35.8552 52.0308 36.4476V49.3908C52.0308 49.9833 52.5111 50.4636 53.1036 50.4636H61.6851C62.2775 50.4636 62.7578 49.9833 62.7578 49.3908V36.4476C62.7578 35.8552 62.2775 35.3749 61.6851 35.3749Z" fill="url(#paint1_linear_3841_34843)"/>
<path d="M115.575 35.3749H106.993C106.401 35.3749 105.921 35.8552 105.921 36.4476V49.3908C105.921 49.9833 106.401 50.4636 106.993 50.4636H115.575C116.167 50.4636 116.648 49.9833 116.648 49.3908V36.4476C116.648 35.8552 116.167 35.3749 115.575 35.3749Z" fill="url(#paint2_linear_3841_34843)"/>
</g>
<path fill-rule="evenodd" clip-rule="evenodd" d="M65.5012 64.9115C59.7697 64.9115 55.1234 69.5578 55.1234 75.2894C55.1234 78.458 56.5434 81.2949 58.7818 83.1985C53.6832 85.7133 50.1343 90.9789 50.1343 96.9962C50.1343 98.1811 51.0949 99.1417 52.2799 99.1417C53.4648 99.1417 54.4254 98.1811 54.4254 96.9962C54.4254 90.9467 59.452 85.9201 65.5015 85.9201C71.5511 85.9201 76.5776 90.9467 76.5776 96.9962C76.5776 98.1811 77.5382 99.1417 78.7232 99.1417C79.9081 99.1417 80.8687 98.1811 80.8687 96.9962C80.8687 90.9787 77.3197 85.713 72.2209 83.1983C74.4592 81.2947 75.8791 78.4579 75.8791 75.2894C75.8791 69.5578 71.2328 64.9115 65.5012 64.9115ZM59.4144 75.2894C59.4144 71.9277 62.1396 69.2026 65.5012 69.2026C68.8629 69.2026 71.588 71.9277 71.588 75.2894C71.588 78.651 68.8629 81.3762 65.5012 81.3762C62.1396 81.3762 59.4144 78.651 59.4144 75.2894Z" fill="#BCB9B3"/>
<path d="M90.2986 73.7926C90.2986 72.6077 91.2592 71.6471 92.4441 71.6471H119.137C120.322 71.6471 121.282 72.6077 121.282 73.7926C121.282 74.9775 120.322 75.9381 119.137 75.9381H92.4441C91.2592 75.9381 90.2986 74.9775 90.2986 73.7926Z" fill="#BCB9B3"/>
<path d="M92.4441 85.1182C91.2592 85.1182 90.2986 86.0788 90.2986 87.2637C90.2986 88.4486 91.2592 89.4092 92.4441 89.4092H102.922C104.107 89.4092 105.067 88.4486 105.067 87.2637C105.067 86.0788 104.107 85.1182 102.922 85.1182H92.4441Z" fill="#BCB9B3"/>
<defs>
<filter id="filter0_d_3841_34843" x="22.0692" y="41.3537" width="125.283" height="94.0997" filterUnits="userSpaceOnUse" color-interpolation-filters="sRGB">
<feFlood flood-opacity="0" result="BackgroundImageFix"/>
<feColorMatrix in="SourceAlpha" type="matrix" values="0 0 0 0 0 0 0 0 0 0 0 0 0 0 0 0 0 0 127 0" result="hardAlpha"/>
<feOffset dy="8"/>
<feGaussianBlur stdDeviation="6"/>
<feColorMatrix type="matrix" values="0 0 0 0 0.576471 0 0 0 0 0.501961 0 0 0 0 0.396078 0 0 0 0.17 0"/>
<feBlend mode="normal" in2="BackgroundImageFix" result="effect1_dropShadow_3841_34843"/>
<feBlend mode="normal" in="SourceGraphic" in2="effect1_dropShadow_3841_34843" result="shape"/>
</filter>
<filter id="filter1_d_3841_34843" x="30.0308" y="24.3749" width="108.617" height="59.0887" filterUnits="userSpaceOnUse" color-interpolation-filters="sRGB">
<feFlood flood-opacity="0" result="BackgroundImageFix"/>
<feColorMatrix in="SourceAlpha" type="matrix" values="0 0 0 0 0 0 0 0 0 0 0 0 0 0 0 0 0 0 127 0" result="hardAlpha"/>
<feOffset dy="11"/>
<feGaussianBlur stdDeviation="11"/>
<feColorMatrix type="matrix" values="0 0 0 0 0.576471 0 0 0 0 0.501961 0 0 0 0 0.396078 0 0 0 0.37 0"/>
<feBlend mode="normal" in2="BackgroundImageFix" result="effect1_dropShadow_3841_34843"/>
<feBlend mode="normal" in="SourceGraphic" in2="effect1_dropShadow_3841_34843" result="shape"/>
</filter>
<linearGradient id="paint0_linear_3841_34843" x1="84.6775" y1="43.7322" x2="84.6775" y2="116.209" gradientUnits="userSpaceOnUse">
<stop stop-color="#FDFEFF"/>
<stop offset="0.9964" stop-color="#F5F2EC"/>
</linearGradient>
<linearGradient id="paint1_linear_3841_34843" x1="111.281" y1="35.0258" x2="111.281" y2="50.6262" gradientUnits="userSpaceOnUse">
<stop stop-color="#FDFEFF"/>
<stop offset="0.9964" stop-color="#F5F2EC"/>
</linearGradient>
<linearGradient id="paint2_linear_3841_34843" x1="111.281" y1="35.0258" x2="111.281" y2="50.6262" gradientUnits="userSpaceOnUse">
<stop stop-color="#FDFEFF"/>
<stop offset="0.9964" stop-color="#F5F2EC"/>
</linearGradient>
</defs>
</svg>
