<svg width="230" height="160" viewBox="0 0 230 160" fill="none" xmlns="http://www.w3.org/2000/svg">
<path d="M119.711 134.141C149.748 134.141 174.1 109.843 174.1 79.7651C174.1 49.6868 149.641 25.3887 119.711 25.3887C89.6731 25.3887 65.3213 49.6868 65.3213 79.7651C65.3213 109.843 89.6731 134.141 119.711 134.141Z" fill="#242424"/>
<path d="M180 23.9972C180 25.6524 178.655 26.9943 176.996 26.9943C175.337 26.9943 173.993 25.6524 173.993 23.9972C173.993 22.3419 175.337 21.0001 176.996 21.0001C178.655 21.0001 180 22.3419 180 23.9972Z" fill="#3A3A3A"/>
<path d="M174.958 39.732C174.958 42.1557 172.989 44.1206 170.56 44.1206C168.131 44.1206 166.161 42.1557 166.161 39.732C166.161 37.3082 168.131 35.3433 170.56 35.3433C172.989 35.3433 174.958 37.3082 174.958 39.732Z" fill="#3A3A3A"/>
<path d="M68.2174 44.0136C69.8764 44.0136 71.2212 42.6717 71.2212 41.0165C71.2212 39.3612 69.8764 38.0193 68.2174 38.0193C66.5585 38.0193 65.2137 39.3612 65.2137 41.0165C65.2137 42.6717 66.5585 44.0136 68.2174 44.0136Z" fill="#3A3A3A"/>
<path d="M61.1566 103.237C61.1566 106.311 58.6591 108.803 55.5783 108.803C52.4974 108.803 49.9999 106.311 49.9999 103.237C49.9999 100.163 52.4974 97.6708 55.5783 97.6708C58.6591 97.6708 61.1566 100.163 61.1566 103.237Z" fill="#3A3A3A"/>
<path d="M163.117 115.245H76.3033C72.3119 115.245 69.0688 112.009 69.0688 108.027V52.5186C69.0688 48.536 72.3119 45.3001 76.3033 45.3001H163.117C167.109 45.3001 170.352 48.536 170.352 52.5186V108.276C170.102 112.009 166.859 115.245 163.117 115.245Z" fill="url(#paint0_linear_4784_278)"/>
<path d="M99.9052 47.858H84.8712V53.3736H99.9052V47.858Z" fill="url(#paint1_linear_4784_278)"/>
<path d="M153.795 47.858H138.762V53.3736H153.795V47.858Z" fill="url(#paint2_linear_4784_278)"/>
<path d="M87.0303 35.3433H97.7573V50.3988H87.0303V35.3433Z" fill="url(#paint3_linear_4784_278)"/>
<path d="M140.92 35.3433H151.647V50.3988H140.92V35.3433Z" fill="url(#paint4_linear_4784_278)"/>
<path fill-rule="evenodd" clip-rule="evenodd" d="M100.501 64.815C94.7699 64.815 90.1235 69.4511 90.1235 75.17C90.1235 78.3314 91.5434 81.162 93.7816 83.0613C88.6829 85.5705 85.134 90.8246 85.134 96.8287C85.134 98.0111 86.0946 98.9695 87.2795 98.9695C88.4644 98.9695 89.425 98.0111 89.425 96.8287C89.425 90.7925 94.4516 85.777 100.501 85.777C106.551 85.777 111.577 90.7925 111.577 96.8287C111.577 98.0111 112.538 98.9695 113.723 98.9695C114.908 98.9695 115.868 98.0111 115.868 96.8287C115.868 90.8247 112.32 85.5708 107.221 83.0615C109.459 81.1621 110.879 78.3315 110.879 75.17C110.879 69.4511 106.233 64.815 100.501 64.815ZM94.4146 75.17C94.4146 71.8158 97.1398 69.0966 100.501 69.0966C103.863 69.0966 106.588 71.8158 106.588 75.17C106.588 78.5242 103.863 81.2434 100.501 81.2434C97.1398 81.2434 94.4146 78.5242 94.4146 75.17Z" fill="#CBCBCB"/>
<path d="M125.298 73.676C125.298 72.4937 126.258 71.5352 127.443 71.5352H154.136C155.321 71.5352 156.282 72.4937 156.282 73.676C156.282 74.8584 155.321 75.8168 154.136 75.8168H127.443C126.258 75.8168 125.298 74.8584 125.298 73.676Z" fill="#CBCBCB"/>
<path d="M127.443 84.9769C126.258 84.9769 125.298 85.9353 125.298 87.1177C125.298 88.3 126.258 89.2585 127.443 89.2585H137.921C139.106 89.2585 140.066 88.3 140.066 87.1177C140.066 85.9353 139.106 84.9769 137.921 84.9769H127.443Z" fill="#CBCBCB"/>
<defs>
<linearGradient id="paint0_linear_4784_278" x1="119.677" y1="43.6822" x2="119.677" y2="115.999" gradientUnits="userSpaceOnUse">
<stop stop-color="#5C5C5C"/>
<stop offset="0.9964" stop-color="#4D4D4D"/>
</linearGradient>
<linearGradient id="paint1_linear_4784_278" x1="146.279" y1="47.858" x2="146.279" y2="53.3736" gradientUnits="userSpaceOnUse">
<stop stop-color="#363636"/>
<stop offset="1" stop-color="#1D1D1D"/>
</linearGradient>
<linearGradient id="paint2_linear_4784_278" x1="146.279" y1="47.858" x2="146.279" y2="53.3736" gradientUnits="userSpaceOnUse">
<stop stop-color="#363636"/>
<stop offset="1" stop-color="#1D1D1D"/>
</linearGradient>
<linearGradient id="paint3_linear_4784_278" x1="146.28" y1="34.9951" x2="146.28" y2="50.5611" gradientUnits="userSpaceOnUse">
<stop stop-color="#5C5C5C"/>
<stop offset="0.9964" stop-color="#4D4D4D"/>
</linearGradient>
<linearGradient id="paint4_linear_4784_278" x1="146.28" y1="34.9951" x2="146.28" y2="50.5611" gradientUnits="userSpaceOnUse">
<stop stop-color="#5C5C5C"/>
<stop offset="0.9964" stop-color="#4D4D4D"/>
</linearGradient>
</defs>
</svg>
