<svg width="16" height="16" viewBox="0 0 16 16" fill="none" xmlns="http://www.w3.org/2000/svg">
<path d="M11.1802 9.62891C11.1802 10.0356 10.8469 10.3622 10.4469 10.3622C10.0469 10.3622 9.71357 10.0356 9.71357 9.62891C9.71357 9.22225 10.0402 8.90225 10.4469 8.90225C10.8536 8.90225 11.1802 9.22891 11.1802 9.62891Z" fill="#212121"/>
<path d="M7.62014 7.03516C7.8068 7.13516 8.16014 7.13516 8.34014 7.03516L13.0335 4.6085L14.1668 4.06183C14.1668 4.06183 14.1468 4.0485 14.1335 4.04183L9.0268 1.5685C8.3668 1.25516 7.61347 1.25516 6.95347 1.5685L1.8468 4.04183C1.8468 4.04183 1.84014 4.04183 1.84014 4.0485L2.93347 4.61516L7.62014 7.03516Z" fill="#212121"/>
<path d="M13.6402 5.41558L8.80016 7.92225C8.58016 8.03558 8.2935 8.10225 7.98016 8.10225C7.68683 8.10225 7.40016 8.03558 7.16683 7.92225L2.3135 5.41558L1.3335 4.90225V11.0156C1.3335 11.3689 1.52683 11.6756 1.8335 11.8289L6.92016 14.3689C7.24016 14.5356 7.60683 14.6222 7.98016 14.6222C8.3535 14.6222 8.7135 14.5422 9.06016 14.3689L14.1468 11.8289C14.4535 11.6756 14.6468 11.3622 14.6468 11.0156V4.90225L13.6402 5.41558ZM4.82683 10.8089L3.46016 10.9489C3.20683 10.9489 2.9935 10.7556 2.96683 10.5022C2.9535 10.3756 2.9935 10.2489 3.0735 10.1489C3.16016 10.0422 3.28016 9.97558 3.4135 9.95558L4.72683 9.81558C4.9935 9.78891 5.24016 9.99558 5.2735 10.2622C5.30016 10.5356 5.10683 10.7756 4.82683 10.8089ZM6.28016 10.6556C6.02016 10.6556 5.80683 10.4622 5.78683 10.2089C5.7735 10.0822 5.80683 9.95558 5.88683 9.85558C5.9735 9.74891 6.0935 9.68225 6.22683 9.66225L7.54016 9.52225C7.80683 9.50225 8.06016 9.70225 8.08683 9.96891C8.10683 10.1022 8.06683 10.2289 7.98016 10.3356C7.8935 10.4356 7.78016 10.5022 7.64683 10.5156L6.28016 10.6556ZM8.76683 11.9822L7.88016 12.6822C7.7935 12.7556 7.68683 12.7956 7.56683 12.7956C7.4135 12.7956 7.28016 12.7289 7.18016 12.6089C7.00683 12.3889 7.04016 12.0756 7.26016 11.9022L8.14683 11.1956C8.36016 11.0289 8.6735 11.0622 8.84683 11.2756C8.9335 11.3822 8.96683 11.5156 8.9535 11.6489C8.94016 11.7822 8.8735 11.8956 8.76683 11.9822ZM10.4468 11.3622C9.4935 11.3622 8.7135 10.5889 8.7135 9.62891C8.7135 8.66891 9.4935 7.90225 10.4468 7.90225C11.4002 7.90225 12.1802 8.67558 12.1802 9.62891C12.1735 10.5889 11.3935 11.3622 10.4468 11.3622Z" fill="#212121"/>
</svg>
