<svg width="20" height="20" viewBox="0 0 20 20" fill="none" xmlns="http://www.w3.org/2000/svg">
<path d="M13.975 12.036C13.975 12.5444 13.5584 12.9527 13.0584 12.9527C12.5584 12.9527 12.1417 12.5444 12.1417 12.036C12.1417 11.5277 12.55 11.1277 13.0584 11.1277C13.5667 11.1277 13.975 11.536 13.975 12.036Z" fill="#212121"/>
<path d="M9.52513 8.79407C9.75846 8.91907 10.2001 8.91907 10.4251 8.79407L16.2918 5.76074L17.7085 5.07741C17.7085 5.07741 17.6835 5.06074 17.6668 5.05241L11.2835 1.96074C10.4585 1.56908 9.5168 1.56908 8.6918 1.96074L2.30846 5.05241C2.30846 5.05241 2.30013 5.05241 2.30013 5.06074L3.6668 5.76908L9.52513 8.79407Z" fill="#212121"/>
<path d="M17.0503 6.76938L11.0003 9.90271C10.7253 10.0444 10.367 10.1277 9.97533 10.1277C9.60866 10.1277 9.25033 10.0444 8.95866 9.90271L2.89199 6.76938L1.66699 6.12771V13.7694C1.66699 14.211 1.90866 14.5944 2.29199 14.786L8.65033 17.961C9.05033 18.1694 9.50866 18.2777 9.97533 18.2777C10.442 18.2777 10.892 18.1777 11.3253 17.961L17.6837 14.786C18.067 14.5944 18.3087 14.2027 18.3087 13.7694V6.12771L17.0503 6.76938ZM6.03366 13.511L4.32533 13.686C4.00866 13.686 3.74199 13.4444 3.70866 13.1277C3.69199 12.9694 3.74199 12.811 3.84199 12.686C3.95033 12.5527 4.10033 12.4694 4.26699 12.4444L5.90866 12.2694C6.24199 12.236 6.55033 12.4944 6.59199 12.8277C6.62533 13.1694 6.38366 13.4694 6.03366 13.511ZM7.85033 13.3194C7.52533 13.3194 7.25866 13.0777 7.23366 12.761C7.21699 12.6027 7.25866 12.4444 7.35866 12.3194C7.46699 12.186 7.61699 12.1027 7.78366 12.0777L9.42533 11.9027C9.75866 11.8777 10.0753 12.1277 10.1087 12.461C10.1337 12.6277 10.0837 12.786 9.97533 12.9194C9.86699 13.0444 9.72533 13.1277 9.55866 13.1444L7.85033 13.3194ZM10.9587 14.9777L9.85033 15.8527C9.74199 15.9444 9.60866 15.9944 9.45866 15.9944C9.26699 15.9944 9.10033 15.911 8.97533 15.761C8.75866 15.486 8.80033 15.0944 9.07533 14.8777L10.1837 13.9944C10.4503 13.786 10.842 13.8277 11.0587 14.0944C11.167 14.2277 11.2087 14.3944 11.192 14.561C11.1753 14.7277 11.092 14.8694 10.9587 14.9777ZM13.0587 14.2027C11.867 14.2027 10.892 13.236 10.892 12.036C10.892 10.836 11.867 9.87771 13.0587 9.87771C14.2503 9.87771 15.2253 10.8444 15.2253 12.036C15.217 13.236 14.242 14.2027 13.0587 14.2027Z" fill="#212121"/>
</svg>
