<svg width="48" height="48" viewBox="0 0 48 48" fill="none" xmlns="http://www.w3.org/2000/svg">
<path d="M31.3392 34.1603C34.1792 34.1603 36.5192 31.8403 36.5392 28.9603C36.5392 26.1003 34.2192 23.7603 31.3392 23.7603C28.4592 23.7603 26.1392 26.0803 26.1392 28.9603C26.1392 31.8403 28.4792 34.1603 31.3392 34.1603ZM29.1392 28.9603C29.1392 27.7403 30.1192 26.7603 31.3392 26.7603C32.5592 26.7603 33.5392 27.7403 33.5392 28.9603C33.5392 30.1803 32.5592 31.1603 31.3392 31.1603C30.1192 31.1603 29.1392 30.1803 29.1392 28.9603Z" fill="#212121"/>
<path d="M14.1791 29.5198L10.2391 29.9398C9.8391 29.9798 9.4791 30.1798 9.2191 30.4998C8.9791 30.7998 8.8591 31.1998 8.9191 31.5798C8.9791 32.3398 9.6191 32.9198 10.3991 32.9198L14.4991 32.4998C15.3191 32.3998 15.9191 31.6598 15.8391 30.8598C15.7391 30.0598 14.9991 29.4598 14.1991 29.5198H14.1791Z" fill="#212121"/>
<path d="M23.939 31.0603C24.199 30.7403 24.319 30.3603 24.259 29.9603C24.159 29.1603 23.419 28.5603 22.619 28.6203L18.679 29.0403C18.279 29.0803 17.919 29.2803 17.659 29.6003C17.419 29.9003 17.299 30.3003 17.359 30.6803C17.419 31.4403 18.059 32.0203 18.839 32.0203L22.939 31.6003C23.339 31.5603 23.699 31.3603 23.939 31.0603Z" fill="#212121"/>
<path d="M24.4383 33.6603L21.7783 35.7803C21.1383 36.2803 21.0183 37.2403 21.5383 37.9003C21.8383 38.2603 22.2383 38.4603 22.6983 38.4603C23.0583 38.4603 23.3783 38.3403 23.6383 38.1403L26.2983 36.0203C26.6183 35.7803 26.8183 35.4203 26.8583 35.0403C26.8983 34.6403 26.7983 34.2403 26.5383 33.9203C26.0183 33.2803 25.0783 33.1803 24.4383 33.6803V33.6603Z" fill="#212121"/>
<path d="M42.3995 12.1807L27.0795 4.78068C25.0995 3.84068 22.8395 3.84068 20.8595 4.78068L5.53951 12.1807C4.59951 12.6407 3.99951 13.6007 3.99951 14.6407V33.1207C3.99951 34.1807 4.57951 35.1007 5.49951 35.5607L20.7595 43.1807C21.7195 43.6807 22.8195 43.9407 23.9595 43.9407C25.0995 43.9407 26.1595 43.6807 27.1995 43.1807L42.4595 35.5607C43.3795 35.1007 43.9595 34.1607 43.9595 33.1207V14.6407C43.9595 13.6007 43.3595 12.6407 42.4195 12.1807H42.3995ZM40.9395 32.9407L25.7995 40.5007C24.6195 41.0807 23.2395 41.0807 22.0595 40.5007L6.95951 32.9807V16.3007L21.4995 23.8207C22.1995 24.1807 23.0795 24.3607 23.9595 24.3607C24.8995 24.3607 25.7395 24.1807 26.4195 23.8207L40.9395 16.3207V32.9407ZM25.0395 21.1807C24.4795 21.4607 23.4195 21.4607 22.8595 21.1807L8.79951 13.9207L22.1195 7.46068C22.6995 7.18068 23.2995 7.04068 23.9395 7.04068C24.5395 7.04068 25.1595 7.18068 25.7395 7.46068L39.0995 13.9007L25.0195 21.1807H25.0395Z" fill="#212121"/>
</svg>
