<svg width="24" height="24" viewBox="0 0 24 24" fill="none" xmlns="http://www.w3.org/2000/svg">
<path d="M16.7698 14.4425C16.7698 15.0525 16.2698 15.5425 15.6698 15.5425C15.0698 15.5425 14.5698 15.0525 14.5698 14.4425C14.5698 13.8325 15.0598 13.3525 15.6698 13.3525C16.2798 13.3525 16.7698 13.8425 16.7698 14.4425Z" fill="#212121"/>
<path d="M11.43 10.5525C11.71 10.7025 12.24 10.7025 12.51 10.5525L19.55 6.9125L21.25 6.0925C21.25 6.0925 21.22 6.0725 21.2 6.0625L13.54 2.3525C12.55 1.8825 11.42 1.8825 10.43 2.3525L2.77 6.0625C2.77 6.0625 2.76 6.0625 2.76 6.0725L4.4 6.9225L11.43 10.5525Z" fill="#212121"/>
<path d="M20.46 8.1225L13.2 11.8825C12.87 12.0525 12.44 12.1525 11.97 12.1525C11.53 12.1525 11.1 12.0525 10.75 11.8825L3.47 8.1225L2 7.3525V16.5225C2 17.0525 2.29 17.5125 2.75 17.7425L10.38 21.5525C10.86 21.8025 11.41 21.9325 11.97 21.9325C12.53 21.9325 13.07 21.8125 13.59 21.5525L21.22 17.7425C21.68 17.5125 21.97 17.0425 21.97 16.5225V7.3525L20.46 8.1225ZM7.24 16.2125L5.19 16.4225C4.81 16.4225 4.49 16.1325 4.45 15.7525C4.43 15.5625 4.49 15.3725 4.61 15.2225C4.74 15.0625 4.92 14.9625 5.12 14.9325L7.09 14.7225C7.49 14.6825 7.86 14.9925 7.91 15.3925C7.95 15.8025 7.66 16.1625 7.24 16.2125ZM9.42 15.9825C9.03 15.9825 8.71 15.6925 8.68 15.3125C8.66 15.1225 8.71 14.9325 8.83 14.7825C8.96 14.6225 9.14 14.5225 9.34 14.4925L11.31 14.2825C11.71 14.2525 12.09 14.5525 12.13 14.9525C12.16 15.1525 12.1 15.3425 11.97 15.5025C11.84 15.6525 11.67 15.7525 11.47 15.7725L9.42 15.9825ZM13.15 17.9725L11.82 19.0225C11.69 19.1325 11.53 19.1925 11.35 19.1925C11.12 19.1925 10.92 19.0925 10.77 18.9125C10.51 18.5825 10.56 18.1125 10.89 17.8525L12.22 16.7925C12.54 16.5425 13.01 16.5925 13.27 16.9125C13.4 17.0725 13.45 17.2725 13.43 17.4725C13.41 17.6725 13.31 17.8425 13.15 17.9725ZM15.67 17.0425C14.24 17.0425 13.07 15.8825 13.07 14.4425C13.07 13.0025 14.24 11.8525 15.67 11.8525C17.1 11.8525 18.27 13.0125 18.27 14.4425C18.26 15.8825 17.09 17.0425 15.67 17.0425Z" fill="#212121"/>
</svg>
