<svg width="28" height="28" viewBox="0 0 28 28" fill="none" xmlns="http://www.w3.org/2000/svg">
<path d="M18.2814 19.927C19.938 19.927 21.303 18.5737 21.3147 16.8937C21.3147 15.2254 19.9614 13.8604 18.2814 13.8604C16.6014 13.8604 15.248 15.2137 15.248 16.8937C15.248 18.5737 16.613 19.927 18.2814 19.927ZM16.998 16.8937C16.998 16.182 17.5697 15.6104 18.2814 15.6104C18.993 15.6104 19.5647 16.182 19.5647 16.8937C19.5647 17.6054 18.993 18.177 18.2814 18.177C17.5697 18.177 16.998 17.6054 16.998 16.8937Z" fill="#212121"/>
<path d="M8.2711 17.2201L5.97277 17.4651C5.73943 17.4884 5.52943 17.6051 5.37777 17.7918C5.23777 17.9668 5.16777 18.2001 5.20277 18.4218C5.23777 18.8651 5.6111 19.2034 6.0661 19.2034L8.45777 18.9584C8.9361 18.9001 9.2861 18.4684 9.23943 18.0018C9.1811 17.5351 8.74943 17.1851 8.28277 17.2201H8.2711Z" fill="#212121"/>
<path d="M13.9644 18.1186C14.1161 17.9319 14.1861 17.7103 14.1511 17.4769C14.0928 17.0103 13.6611 16.6603 13.1944 16.6953L10.8961 16.9403C10.6628 16.9636 10.4528 17.0803 10.3011 17.2669C10.1611 17.4419 10.0911 17.6753 10.1261 17.8969C10.1611 18.3403 10.5344 18.6786 10.9894 18.6786L13.3811 18.4336C13.6144 18.4103 13.8244 18.2936 13.9644 18.1186Z" fill="#212121"/>
<path d="M14.256 19.6352L12.7043 20.8718C12.331 21.1635 12.261 21.7235 12.5643 22.1085C12.7393 22.3185 12.9727 22.4352 13.241 22.4352C13.451 22.4352 13.6377 22.3652 13.7893 22.2485L15.341 21.0118C15.5277 20.8718 15.6443 20.6618 15.6677 20.4402C15.691 20.2068 15.6327 19.9735 15.481 19.7868C15.1777 19.4135 14.6293 19.3552 14.256 19.6468V19.6352Z" fill="#212121"/>
<path d="M24.733 7.10536L15.7963 2.78869C14.6413 2.24036 13.323 2.24036 12.168 2.78869L3.23134 7.10536C2.68301 7.37369 2.33301 7.93369 2.33301 8.54036V19.3204C2.33301 19.9387 2.67134 20.4754 3.20801 20.7437L12.1097 25.1887C12.6697 25.4804 13.3113 25.632 13.9763 25.632C14.6413 25.632 15.2597 25.4804 15.8663 25.1887L24.768 20.7437C25.3047 20.4754 25.643 19.927 25.643 19.3204V8.54036C25.643 7.93369 25.293 7.37369 24.7447 7.10536H24.733ZM23.8813 19.2154L15.0497 23.6254C14.3613 23.9637 13.5563 23.9637 12.868 23.6254L4.05967 19.2387V9.50869L12.5413 13.8954C12.9497 14.1054 13.463 14.2104 13.9763 14.2104C14.5247 14.2104 15.0147 14.1054 15.4113 13.8954L23.8813 9.52036V19.2154ZM14.6063 12.3554C14.2797 12.5187 13.6613 12.5187 13.3347 12.3554L5.13301 8.12036L12.903 4.35202C13.2413 4.18869 13.5913 4.10702 13.9647 4.10702C14.3147 4.10702 14.6763 4.18869 15.0147 4.35202L22.808 8.10869L14.5947 12.3554H14.6063Z" fill="#212121"/>
</svg>
