<svg width="20" height="20" viewBox="0 0 20 20" fill="none" xmlns="http://www.w3.org/2000/svg">
<path d="M13.0583 14.2327C14.2416 14.2327 15.2166 13.2661 15.2249 12.0661C15.2249 10.8744 14.2583 9.89941 13.0583 9.89941C11.8583 9.89941 10.8916 10.8661 10.8916 12.0661C10.8916 13.2661 11.8666 14.2327 13.0583 14.2327ZM12.1416 12.0661C12.1416 11.5577 12.5499 11.1494 13.0583 11.1494C13.5666 11.1494 13.9749 11.5577 13.9749 12.0661C13.9749 12.5744 13.5666 12.9827 13.0583 12.9827C12.5499 12.9827 12.1416 12.5744 12.1416 12.0661Z" fill="#212121"/>
<path d="M5.90849 12.2997L4.26682 12.4747C4.10015 12.4913 3.95015 12.5747 3.84182 12.708C3.74182 12.833 3.69182 12.9997 3.71682 13.158C3.74182 13.4747 4.00849 13.7163 4.33349 13.7163L6.04182 13.5413C6.38349 13.4997 6.63349 13.1913 6.60015 12.858C6.55849 12.5247 6.25015 12.2747 5.91682 12.2997H5.90849Z" fill="#212121"/>
<path d="M9.97558 12.9417C10.0839 12.8084 10.1339 12.6501 10.1089 12.4834C10.0672 12.1501 9.75891 11.9001 9.42558 11.9251L7.78391 12.1001C7.61724 12.1167 7.46724 12.2001 7.35891 12.3334C7.25891 12.4584 7.20891 12.6251 7.23391 12.7834C7.25891 13.1001 7.52558 13.3417 7.85058 13.3417L9.55891 13.1667C9.72558 13.1501 9.87558 13.0667 9.97558 12.9417Z" fill="#212121"/>
<path d="M10.1833 14.0251L9.07495 14.9084C8.80828 15.1168 8.75828 15.5168 8.97495 15.7918C9.09995 15.9418 9.26661 16.0251 9.45828 16.0251C9.60828 16.0251 9.74161 15.9751 9.84995 15.8918L10.9583 15.0084C11.0916 14.9084 11.1749 14.7584 11.1916 14.6001C11.2083 14.4334 11.1666 14.2668 11.0583 14.1334C10.8416 13.8668 10.4499 13.8251 10.1833 14.0334V14.0251Z" fill="#212121"/>
<path d="M17.667 5.07484L11.2837 1.9915C10.4587 1.59984 9.51699 1.59984 8.69199 1.9915L2.30866 5.07484C1.91699 5.2665 1.66699 5.6665 1.66699 6.09984V13.7998C1.66699 14.2415 1.90866 14.6248 2.29199 14.8165L8.65033 17.9915C9.05033 18.1998 9.50866 18.3082 9.98366 18.3082C10.4587 18.3082 10.9003 18.1998 11.3337 17.9915L17.692 14.8165C18.0753 14.6248 18.317 14.2332 18.317 13.7998V6.09984C18.317 5.6665 18.067 5.2665 17.6753 5.07484H17.667ZM17.0587 13.7248L10.7503 16.8748C10.2587 17.1165 9.68366 17.1165 9.19199 16.8748L2.90033 13.7415V6.7915L8.95866 9.92484C9.25033 10.0748 9.61699 10.1498 9.98366 10.1498C10.3753 10.1498 10.7253 10.0748 11.0087 9.92484L17.0587 6.79984V13.7248ZM10.4337 8.82484C10.2003 8.9415 9.75866 8.9415 9.52532 8.82484L3.66699 5.79984L9.21699 3.10817C9.45866 2.9915 9.70866 2.93317 9.97532 2.93317C10.2253 2.93317 10.4837 2.9915 10.7253 3.10817L16.292 5.7915L10.4253 8.82484H10.4337Z" fill="#212121"/>
</svg>
