<svg width="12" height="12" viewBox="0 0 12 12" fill="none" xmlns="http://www.w3.org/2000/svg">
<path d="M7.83516 8.53994C8.54516 8.53994 9.13016 7.95994 9.13516 7.23994C9.13516 6.52494 8.55516 5.93994 7.83516 5.93994C7.11516 5.93994 6.53516 6.51994 6.53516 7.23994C6.53516 7.95994 7.12016 8.53994 7.83516 8.53994ZM7.28516 7.23994C7.28516 6.93494 7.53016 6.68994 7.83516 6.68994C8.14016 6.68994 8.38516 6.93494 8.38516 7.23994C8.38516 7.54494 8.14016 7.78994 7.83516 7.78994C7.53016 7.78994 7.28516 7.54494 7.28516 7.23994Z" fill="#212121"/>
<path d="M3.5449 7.38006L2.5599 7.48506C2.4599 7.49506 2.3699 7.54506 2.3049 7.62506C2.2449 7.70006 2.2149 7.80006 2.2299 7.89506C2.2449 8.08506 2.4049 8.23006 2.5999 8.23006L3.6249 8.12506C3.8299 8.10006 3.9799 7.91506 3.9599 7.71506C3.9349 7.51506 3.7499 7.36506 3.5499 7.38006H3.5449Z" fill="#212121"/>
<path d="M5.98537 7.76521C6.05037 7.68521 6.08037 7.59021 6.06537 7.49021C6.04037 7.29021 5.85537 7.14021 5.65537 7.15521L4.67037 7.26021C4.57037 7.27021 4.48037 7.32021 4.41537 7.40021C4.35537 7.47521 4.32537 7.57521 4.34037 7.67021C4.35537 7.86021 4.51537 8.00521 4.71037 8.00521L5.73537 7.90021C5.83537 7.89021 5.92537 7.84021 5.98537 7.76521Z" fill="#212121"/>
<path d="M6.10958 8.41507L5.44458 8.94507C5.28458 9.07007 5.25458 9.31007 5.38458 9.47507C5.45958 9.56507 5.55958 9.61507 5.67458 9.61507C5.76458 9.61507 5.84458 9.58507 5.90958 9.53507L6.57458 9.00507C6.65458 8.94507 6.70458 8.85507 6.71458 8.76007C6.72458 8.66007 6.69958 8.56007 6.63458 8.48007C6.50458 8.32007 6.26958 8.29507 6.10958 8.42007V8.41507Z" fill="#212121"/>
<path d="M10.6 3.04529L6.77 1.19529C6.275 0.960293 5.71 0.960293 5.215 1.19529L1.385 3.04529C1.15 3.16029 1 3.40029 1 3.66029V8.28029C1 8.54529 1.145 8.77529 1.375 8.89029L5.19 10.7953C5.43 10.9203 5.705 10.9853 5.99 10.9853C6.275 10.9853 6.54 10.9203 6.8 10.7953L10.615 8.89029C10.845 8.77529 10.99 8.54029 10.99 8.28029V3.66029C10.99 3.40029 10.84 3.16029 10.605 3.04529H10.6ZM10.235 8.23529L6.45 10.1253C6.155 10.2703 5.81 10.2703 5.515 10.1253L1.74 8.24529V4.07529L5.375 5.95529C5.55 6.04529 5.77 6.09029 5.99 6.09029C6.225 6.09029 6.435 6.04529 6.605 5.95529L10.235 4.08029V8.23529ZM6.26 5.29529C6.12 5.36529 5.855 5.36529 5.715 5.29529L2.2 3.48029L5.53 1.86529C5.675 1.79529 5.825 1.76029 5.985 1.76029C6.135 1.76029 6.29 1.79529 6.435 1.86529L9.775 3.47529L6.255 5.29529H6.26Z" fill="#212121"/>
</svg>
