<svg width="12" height="12" viewBox="0 0 12 12" fill="none" xmlns="http://www.w3.org/2000/svg">
<path d="M8.38455 7.2209C8.38455 7.5259 8.13455 7.7709 7.83455 7.7709C7.53455 7.7709 7.28455 7.5259 7.28455 7.2209C7.28455 6.9159 7.52955 6.6759 7.83455 6.6759C8.13955 6.6759 8.38455 6.9209 8.38455 7.2209Z" fill="#212121"/>
<path d="M5.71391 5.27527C5.85391 5.35027 6.11891 5.35027 6.25391 5.27527L9.77391 3.45527L10.6239 3.04527C10.6239 3.04527 10.6089 3.03527 10.5989 3.03027L6.76891 1.17527C6.27391 0.940273 5.70891 0.940273 5.21391 1.17527L1.38391 3.03027C1.38391 3.03027 1.37891 3.03027 1.37891 3.03527L2.19891 3.46027L5.71391 5.27527Z" fill="#212121"/>
<path d="M10.229 4.06066L6.59902 5.94066C6.43402 6.02566 6.21902 6.07566 5.98402 6.07566C5.76402 6.07566 5.54902 6.02566 5.37402 5.94066L1.73402 4.06066L0.999023 3.67566V8.26066C0.999023 8.52566 1.14402 8.75566 1.37402 8.87066L5.18902 10.7757C5.42902 10.9007 5.70402 10.9657 5.98402 10.9657C6.26402 10.9657 6.53402 10.9057 6.79402 10.7757L10.609 8.87066C10.839 8.75566 10.984 8.52066 10.984 8.26066V3.67566L10.229 4.06066ZM3.61902 8.10566L2.59402 8.21066C2.40402 8.21066 2.24402 8.06566 2.22402 7.87566C2.21402 7.78066 2.24402 7.68566 2.30402 7.61066C2.36902 7.53066 2.45902 7.48066 2.55902 7.46566L3.54402 7.36066C3.74402 7.34066 3.92902 7.49566 3.95402 7.69566C3.97402 7.90066 3.82902 8.08066 3.61902 8.10566ZM4.70902 7.99066C4.51402 7.99066 4.35402 7.84566 4.33902 7.65566C4.32902 7.56066 4.35402 7.46566 4.41402 7.39066C4.47902 7.31066 4.56902 7.26066 4.66902 7.24566L5.65402 7.14066C5.85402 7.12566 6.04402 7.27566 6.06402 7.47566C6.07902 7.57566 6.04902 7.67066 5.98402 7.75066C5.91902 7.82566 5.83402 7.87566 5.73402 7.88566L4.70902 7.99066ZM6.57402 8.98566L5.90902 9.51066C5.84402 9.56566 5.76402 9.59566 5.67402 9.59566C5.55902 9.59566 5.45902 9.54566 5.38402 9.45566C5.25402 9.29066 5.27902 9.05566 5.44402 8.92566L6.10902 8.39566C6.26902 8.27066 6.50402 8.29566 6.63402 8.45566C6.69902 8.53566 6.72402 8.63566 6.71402 8.73566C6.70402 8.83566 6.65402 8.92066 6.57402 8.98566ZM7.83402 8.52066C7.11902 8.52066 6.53402 7.94066 6.53402 7.22066C6.53402 6.50066 7.11902 5.92566 7.83402 5.92566C8.54902 5.92566 9.13402 6.50566 9.13402 7.22066C9.12902 7.94066 8.54402 8.52066 7.83402 8.52066Z" fill="#212121"/>
</svg>
