<svg width="24" height="24" viewBox="0 0 24 24" fill="none" xmlns="http://www.w3.org/2000/svg">
<path d="M15.6698 17.0799C17.0898 17.0799 18.2598 15.9199 18.2698 14.4799C18.2698 13.0499 17.1098 11.8799 15.6698 11.8799C14.2298 11.8799 13.0698 13.0399 13.0698 14.4799C13.0698 15.9199 14.2398 17.0799 15.6698 17.0799ZM14.5698 14.4799C14.5698 13.8699 15.0598 13.3799 15.6698 13.3799C16.2798 13.3799 16.7698 13.8699 16.7698 14.4799C16.7698 15.0899 16.2798 15.5799 15.6698 15.5799C15.0598 15.5799 14.5698 15.0899 14.5698 14.4799Z" fill="#212121"/>
<path d="M7.08979 14.7599L5.11979 14.9699C4.91979 14.9899 4.73979 15.0899 4.60979 15.2499C4.48979 15.3999 4.42979 15.5999 4.45979 15.7899C4.48979 16.1699 4.80979 16.4599 5.19979 16.4599L7.24979 16.2499C7.65979 16.1999 7.95979 15.8299 7.91979 15.4299C7.86979 15.0299 7.49979 14.7299 7.09979 14.7599H7.08979Z" fill="#212121"/>
<path d="M11.97 15.5302C12.1 15.3702 12.16 15.1802 12.13 14.9802C12.08 14.5802 11.71 14.2802 11.31 14.3102L9.34001 14.5202C9.14001 14.5402 8.96001 14.6402 8.83001 14.8002C8.71001 14.9502 8.65001 15.1502 8.68001 15.3402C8.71001 15.7202 9.03001 16.0102 9.42001 16.0102L11.47 15.8002C11.67 15.7802 11.85 15.6802 11.97 15.5302Z" fill="#212121"/>
<path d="M12.2196 16.8301L10.8896 17.8901C10.5696 18.1401 10.5096 18.6201 10.7696 18.9501C10.9196 19.1301 11.1196 19.2301 11.3496 19.2301C11.5296 19.2301 11.6896 19.1701 11.8196 19.0701L13.1496 18.0101C13.3096 17.8901 13.4096 17.7101 13.4296 17.5201C13.4496 17.3201 13.3996 17.1201 13.2696 16.9601C13.0096 16.6401 12.5396 16.5901 12.2196 16.8401V16.8301Z" fill="#212121"/>
<path d="M21.2 6.0901L13.54 2.3901C12.55 1.9201 11.42 1.9201 10.43 2.3901L2.77 6.0901C2.3 6.3201 2 6.8001 2 7.3201V16.5601C2 17.0901 2.29 17.5501 2.75 17.7801L10.38 21.5901C10.86 21.8401 11.41 21.9701 11.98 21.9701C12.55 21.9701 13.08 21.8401 13.6 21.5901L21.23 17.7801C21.69 17.5501 21.98 17.0801 21.98 16.5601V7.3201C21.98 6.8001 21.68 6.3201 21.21 6.0901H21.2ZM20.47 16.4701L12.9 20.2501C12.31 20.5401 11.62 20.5401 11.03 20.2501L3.48 16.4901V8.1501L10.75 11.9101C11.1 12.0901 11.54 12.1801 11.98 12.1801C12.45 12.1801 12.87 12.0901 13.21 11.9101L20.47 8.1601V16.4701ZM12.52 10.5901C12.24 10.7301 11.71 10.7301 11.43 10.5901L4.4 6.9601L11.06 3.7301C11.35 3.5901 11.65 3.5201 11.97 3.5201C12.27 3.5201 12.58 3.5901 12.87 3.7301L19.55 6.9501L12.51 10.5901H12.52Z" fill="#212121"/>
</svg>
