<svg width="28" height="28" viewBox="0 0 28 28" fill="none" xmlns="http://www.w3.org/2000/svg">
<path d="M19.5646 16.8495C19.5646 17.5611 18.9813 18.1328 18.2813 18.1328C17.5813 18.1328 16.998 17.5611 16.998 16.8495C16.998 16.1378 17.5696 15.5778 18.2813 15.5778C18.993 15.5778 19.5646 16.1495 19.5646 16.8495Z" fill="#212121"/>
<path d="M13.3344 12.3109C13.6611 12.4859 14.2794 12.4859 14.5944 12.3109L22.8077 8.06426L24.7911 7.10759C24.7911 7.10759 24.7561 7.08426 24.7327 7.07259L15.7961 2.74426C14.6411 2.19592 13.3227 2.19592 12.1677 2.74426L3.23107 7.07259C3.23107 7.07259 3.2194 7.07259 3.2194 7.08426L5.13273 8.07592L13.3344 12.3109Z" fill="#212121"/>
<path d="M23.8697 9.47597L15.3997 13.8626C15.0147 14.061 14.513 14.1776 13.9647 14.1776C13.4513 14.1776 12.9497 14.061 12.5413 13.8626L4.04801 9.47597L2.33301 8.57764V19.276C2.33301 19.8943 2.67134 20.431 3.20801 20.6993L12.1097 25.1443C12.6697 25.436 13.3113 25.5876 13.9647 25.5876C14.618 25.5876 15.248 25.4476 15.8547 25.1443L24.7563 20.6993C25.293 20.431 25.6313 19.8826 25.6313 19.276V8.57764L23.8697 9.47597ZM8.44634 18.9143L6.05467 19.1593C5.61134 19.1593 5.23801 18.821 5.19134 18.3776C5.16801 18.156 5.23801 17.9343 5.37801 17.7593C5.52967 17.5726 5.73967 17.456 5.97301 17.421L8.27134 17.176C8.73801 17.1293 9.16967 17.491 9.22801 17.9576C9.27467 18.436 8.93634 18.856 8.44634 18.9143ZM10.9897 18.646C10.5347 18.646 10.1613 18.3076 10.1263 17.8643C10.103 17.6426 10.1613 17.421 10.3013 17.246C10.453 17.0593 10.663 16.9426 10.8963 16.9076L13.1947 16.6626C13.6613 16.6276 14.1047 16.9776 14.1513 17.4443C14.1863 17.6776 14.1163 17.8993 13.9647 18.086C13.813 18.261 13.6147 18.3776 13.3813 18.401L10.9897 18.646ZM15.3413 20.9676L13.7897 22.1926C13.638 22.321 13.4513 22.391 13.2413 22.391C12.973 22.391 12.7397 22.2743 12.5647 22.0643C12.2613 21.6793 12.3197 21.131 12.7047 20.8276L14.2563 19.591C14.6297 19.2993 15.178 19.3576 15.4813 19.731C15.633 19.9176 15.6913 20.151 15.668 20.3843C15.6447 20.6176 15.528 20.816 15.3413 20.9676ZM18.2813 19.8826C16.613 19.8826 15.248 18.5293 15.248 16.8493C15.248 15.1693 16.613 13.8276 18.2813 13.8276C19.9497 13.8276 21.3147 15.181 21.3147 16.8493C21.303 18.5293 19.938 19.8826 18.2813 19.8826Z" fill="#212121"/>
</svg>
