<svg width="48" height="48" viewBox="0 0 48 48" fill="none" xmlns="http://www.w3.org/2000/svg">
<path d="M33.5396 28.8856C33.5396 30.1056 32.5396 31.0856 31.3396 31.0856C30.1396 31.0856 29.1396 30.1056 29.1396 28.8856C29.1396 27.6656 30.1196 26.7056 31.3396 26.7056C32.5596 26.7056 33.5396 27.6856 33.5396 28.8856Z" fill="#212121"/>
<path d="M22.8595 21.1055C23.4195 21.4055 24.4795 21.4055 25.0195 21.1055L39.0995 13.8255L42.4995 12.1855C42.4995 12.1855 42.4395 12.1455 42.3995 12.1255L27.0795 4.70549C25.0995 3.76549 22.8395 3.76549 20.8595 4.70549L5.53953 12.1255C5.53953 12.1255 5.51953 12.1255 5.51953 12.1455L8.79953 13.8455L22.8595 21.1055Z" fill="#212121"/>
<path d="M40.9205 16.2456L26.4005 23.7656C25.7405 24.1056 24.8805 24.3056 23.9405 24.3056C23.0605 24.3056 22.2005 24.1056 21.5005 23.7656L6.94049 16.2456L4.00049 14.7056V33.0456C4.00049 34.1056 4.58049 35.0256 5.50049 35.4856L20.7605 43.1056C21.7205 43.6056 22.8205 43.8656 23.9405 43.8656C25.0605 43.8656 26.1405 43.6256 27.1805 43.1056L42.4405 35.4856C43.3605 35.0256 43.9405 34.0856 43.9405 33.0456V14.7056L40.9205 16.2456ZM14.4805 32.4256L10.3805 32.8456C9.62049 32.8456 8.98049 32.2656 8.90049 31.5056C8.86049 31.1256 8.98049 30.7456 9.22049 30.4456C9.48049 30.1256 9.84049 29.9256 10.2405 29.8656L14.1805 29.4456C14.9805 29.3656 15.7205 29.9856 15.8205 30.7856C15.9005 31.6056 15.3205 32.3256 14.4805 32.4256ZM18.8405 31.9656C18.0605 31.9656 17.4205 31.3856 17.3605 30.6256C17.3205 30.2456 17.4205 29.8656 17.6605 29.5656C17.9205 29.2456 18.2805 29.0456 18.6805 28.9856L22.6205 28.5656C23.4205 28.5056 24.1805 29.1056 24.2605 29.9056C24.3205 30.3056 24.2005 30.6856 23.9405 31.0056C23.6805 31.3056 23.3405 31.5056 22.9405 31.5456L18.8405 31.9656ZM26.3005 35.9456L23.6405 38.0456C23.3805 38.2656 23.0605 38.3856 22.7005 38.3856C22.2405 38.3856 21.8405 38.1856 21.5405 37.8256C21.0205 37.1656 21.1205 36.2256 21.7805 35.7056L24.4405 33.5856C25.0805 33.0856 26.0205 33.1856 26.5405 33.8256C26.8005 34.1456 26.9005 34.5456 26.8605 34.9456C26.8205 35.3456 26.6205 35.6856 26.3005 35.9456ZM31.3405 34.0856C28.4805 34.0856 26.1405 31.7656 26.1405 28.8856C26.1405 26.0056 28.4805 23.7056 31.3405 23.7056C34.2005 23.7056 36.5405 26.0256 36.5405 28.8856C36.5205 31.7656 34.1805 34.0856 31.3405 34.0856Z" fill="#212121"/>
</svg>
