<svg width="32" height="32" viewBox="0 0 32 32" fill="none" xmlns="http://www.w3.org/2000/svg">
<path d="M20.893 22.7737C22.7863 22.7737 24.3463 21.2271 24.3597 19.3071C24.3597 17.4004 22.813 15.8404 20.893 15.8404C18.973 15.8404 17.4263 17.3871 17.4263 19.3071C17.4263 21.2271 18.9863 22.7737 20.893 22.7737ZM19.4263 19.3071C19.4263 18.4937 20.0797 17.8404 20.893 17.8404C21.7063 17.8404 22.3597 18.4937 22.3597 19.3071C22.3597 20.1204 21.7063 20.7737 20.893 20.7737C20.0797 20.7737 19.4263 20.1204 19.4263 19.3071Z" fill="#212121"/>
<path d="M9.45269 19.6802L6.82602 19.9602C6.55935 19.9869 6.31935 20.1202 6.14602 20.3335C5.98602 20.5335 5.90602 20.8002 5.94602 21.0535C5.98602 21.5602 6.41269 21.9469 6.93269 21.9469L9.66602 21.6669C10.2127 21.6002 10.6127 21.1069 10.5594 20.5735C10.4927 20.0402 9.99935 19.6402 9.46602 19.6802H9.45269Z" fill="#212121"/>
<path d="M15.9594 20.707C16.1327 20.4937 16.2127 20.2403 16.1727 19.9737C16.106 19.4403 15.6127 19.0403 15.0794 19.0803L12.4527 19.3603C12.186 19.387 11.946 19.5203 11.7727 19.7337C11.6127 19.9337 11.5327 20.2003 11.5727 20.4537C11.6127 20.9603 12.0394 21.347 12.5594 21.347L15.2927 21.067C15.5594 21.0403 15.7994 20.907 15.9594 20.707Z" fill="#212121"/>
<path d="M16.2926 22.4402L14.5192 23.8535C14.0926 24.1868 14.0126 24.8268 14.3592 25.2668C14.5592 25.5068 14.8259 25.6402 15.1326 25.6402C15.3726 25.6402 15.5859 25.5602 15.7592 25.4268L17.5326 24.0135C17.7459 23.8535 17.8792 23.6135 17.9059 23.3602C17.9326 23.0935 17.8659 22.8268 17.6926 22.6135C17.3459 22.1868 16.7192 22.1202 16.2926 22.4535V22.4402Z" fill="#212121"/>
<path d="M28.2665 8.12062L18.0532 3.18729C16.7332 2.56062 15.2265 2.56062 13.9065 3.18729L3.69317 8.12062C3.0665 8.42729 2.6665 9.06729 2.6665 9.76062V22.0806C2.6665 22.7873 3.05317 23.4006 3.6665 23.7073L13.8398 28.7873C14.4798 29.1206 15.2132 29.2939 15.9732 29.2939C16.7332 29.2939 17.4398 29.1206 18.1332 28.7873L28.3065 23.7073C28.9198 23.4006 29.3065 22.774 29.3065 22.0806V9.76062C29.3065 9.06729 28.9065 8.42729 28.2798 8.12062H28.2665ZM27.2932 21.9606L17.1998 27.0006C16.4132 27.3873 15.4932 27.3873 14.7065 27.0006L4.63984 21.9873V10.8673L14.3332 15.8806C14.7998 16.1206 15.3865 16.2406 15.9732 16.2406C16.5998 16.2406 17.1598 16.1206 17.6132 15.8806L27.2932 10.8806V21.9606ZM16.6932 14.1206C16.3198 14.3073 15.6132 14.3073 15.2398 14.1206L5.8665 9.28062L14.7465 4.97395C15.1332 4.78729 15.5332 4.69395 15.9598 4.69395C16.3598 4.69395 16.7732 4.78729 17.1598 4.97395L26.0665 9.26728L16.6798 14.1206H16.6932Z" fill="#212121"/>
</svg>
