<svg width="16" height="16" viewBox="0 0 16 16" fill="none" xmlns="http://www.w3.org/2000/svg">
<path d="M10.4466 11.3862C11.3933 11.3862 12.1733 10.6129 12.1799 9.65286C12.1799 8.69953 11.4066 7.91953 10.4466 7.91953C9.48662 7.91953 8.71328 8.69286 8.71328 9.65286C8.71328 10.6129 9.49328 11.3862 10.4466 11.3862ZM9.71328 9.65286C9.71328 9.2462 10.0399 8.91953 10.4466 8.91953C10.8533 8.91953 11.1799 9.2462 11.1799 9.65286C11.1799 10.0595 10.8533 10.3862 10.4466 10.3862C10.0399 10.3862 9.71328 10.0595 9.71328 9.65286Z" fill="#212121"/>
<path d="M4.72679 9.83966L3.41346 9.97966C3.28012 9.99299 3.16012 10.0597 3.07346 10.1663C2.99346 10.2663 2.95346 10.3997 2.97346 10.5263C2.99346 10.7797 3.20679 10.973 3.46679 10.973L4.83346 10.833C5.10679 10.7997 5.30679 10.553 5.28012 10.2863C5.24679 10.0197 5.00012 9.81966 4.73346 9.83966H4.72679Z" fill="#212121"/>
<path d="M7.98046 10.3534C8.06713 10.2467 8.10713 10.12 8.08713 9.98672C8.05379 9.72005 7.80713 9.52005 7.54046 9.54005L6.22713 9.68005C6.09379 9.69338 5.97379 9.76005 5.88713 9.86672C5.80713 9.96672 5.76713 10.1 5.78713 10.2267C5.80713 10.48 6.02046 10.6734 6.28046 10.6734L7.64713 10.5334C7.78046 10.52 7.90046 10.4534 7.98046 10.3534Z" fill="#212121"/>
<path d="M8.14662 11.2201L7.25996 11.9268C7.04662 12.0934 7.00662 12.4134 7.17996 12.6334C7.27996 12.7534 7.41329 12.8201 7.56662 12.8201C7.68662 12.8201 7.79329 12.7801 7.87996 12.7134L8.76662 12.0068C8.87329 11.9268 8.93996 11.8068 8.95329 11.6801C8.96662 11.5468 8.93329 11.4134 8.84662 11.3068C8.67329 11.0934 8.35996 11.0601 8.14662 11.2268V11.2201Z" fill="#212121"/>
<path d="M14.1335 4.06007L9.02683 1.5934C8.36683 1.28007 7.6135 1.28007 6.9535 1.5934L1.84683 4.06007C1.5335 4.2134 1.3335 4.5334 1.3335 4.88007V11.0401C1.3335 11.3934 1.52683 11.7001 1.8335 11.8534L6.92016 14.3934C7.24016 14.5601 7.60683 14.6467 7.98683 14.6467C8.36683 14.6467 8.72016 14.5601 9.06683 14.3934L14.1535 11.8534C14.4602 11.7001 14.6535 11.3867 14.6535 11.0401V4.88007C14.6535 4.5334 14.4535 4.2134 14.1402 4.06007H14.1335ZM13.6468 10.9801L8.60016 13.5001C8.20683 13.6934 7.74683 13.6934 7.3535 13.5001L2.32016 10.9934V5.4334L7.16683 7.94006C7.40016 8.06006 7.6935 8.12007 7.98683 8.12007C8.30016 8.12007 8.58016 8.06006 8.80683 7.94006L13.6468 5.44007V10.9801ZM8.34683 7.06007C8.16016 7.1534 7.80683 7.1534 7.62016 7.06007L2.9335 4.64007L7.3735 2.48673C7.56683 2.3934 7.76683 2.34673 7.98016 2.34673C8.18016 2.34673 8.38683 2.3934 8.58016 2.48673L13.0335 4.6334L8.34016 7.06007H8.34683Z" fill="#212121"/>
</svg>
