<svg width="32" height="32" viewBox="0 0 32 32" fill="none" xmlns="http://www.w3.org/2000/svg">
<path d="M22.3593 19.2566C22.3593 20.0699 21.6927 20.7232 20.8927 20.7232C20.0927 20.7232 19.426 20.0699 19.426 19.2566C19.426 18.4432 20.0793 17.8032 20.8927 17.8032C21.706 17.8032 22.3593 18.4566 22.3593 19.2566Z" fill="#212121"/>
<path d="M15.2393 14.0698C15.6127 14.2698 16.3193 14.2698 16.6793 14.0698L26.066 9.2165L28.3327 8.12317C28.3327 8.12317 28.2927 8.0965 28.266 8.08317L18.0527 3.1365C16.7327 2.50984 15.226 2.50984 13.906 3.1365L3.69267 8.08317C3.69267 8.08317 3.67934 8.08317 3.67934 8.0965L5.86601 9.22984L15.2393 14.0698Z" fill="#212121"/>
<path d="M27.2798 10.8299L17.5998 15.8432C17.1598 16.0699 16.5865 16.2032 15.9598 16.2032C15.3732 16.2032 14.7998 16.0699 14.3332 15.8432L4.6265 10.8299L2.6665 9.80322V22.0299C2.6665 22.7366 3.05317 23.3499 3.6665 23.6566L13.8398 28.7366C14.4798 29.0699 15.2132 29.2432 15.9598 29.2432C16.7065 29.2432 17.4265 29.0832 18.1198 28.7366L28.2932 23.6566C28.9065 23.3499 29.2932 22.7232 29.2932 22.0299V9.80322L27.2798 10.8299ZM9.65317 21.6166L6.91984 21.8966C6.41317 21.8966 5.9865 21.5099 5.93317 21.0032C5.9065 20.7499 5.9865 20.4966 6.1465 20.2966C6.31984 20.0832 6.55984 19.9499 6.8265 19.9099L9.45317 19.6299C9.9865 19.5766 10.4798 19.9899 10.5465 20.5232C10.5998 21.0699 10.2132 21.5499 9.65317 21.6166ZM12.5598 21.3099C12.0398 21.3099 11.6132 20.9232 11.5732 20.4166C11.5465 20.1632 11.6132 19.9099 11.7732 19.7099C11.9465 19.4966 12.1865 19.3632 12.4532 19.3232L15.0798 19.0432C15.6132 19.0032 16.1198 19.4032 16.1732 19.9366C16.2132 20.2032 16.1332 20.4566 15.9598 20.6699C15.7865 20.8699 15.5598 21.0032 15.2932 21.0299L12.5598 21.3099ZM17.5332 23.9632L15.7598 25.3632C15.5865 25.5099 15.3732 25.5899 15.1332 25.5899C14.8265 25.5899 14.5598 25.4566 14.3598 25.2166C14.0132 24.7766 14.0798 24.1499 14.5198 23.8032L16.2932 22.3899C16.7198 22.0566 17.3465 22.1232 17.6932 22.5499C17.8665 22.7632 17.9332 23.0299 17.9065 23.2966C17.8798 23.5632 17.7465 23.7899 17.5332 23.9632ZM20.8932 22.7232C18.9865 22.7232 17.4265 21.1766 17.4265 19.2566C17.4265 17.3366 18.9865 15.8032 20.8932 15.8032C22.7998 15.8032 24.3598 17.3499 24.3598 19.2566C24.3465 21.1766 22.7865 22.7232 20.8932 22.7232Z" fill="#212121"/>
</svg>
