<svg width="230" height="172" viewBox="0 0 230 172" fill="none" xmlns="http://www.w3.org/2000/svg">
<path d="M56.069 33.5063C57.6755 32.9811 58.5544 31.2455 58.0323 29.6298C57.5102 28.014 55.7847 27.1299 54.1782 27.6551C52.5718 28.1802 51.6928 29.9158 52.2149 31.5316C52.7371 33.1473 54.4626 34.0315 56.069 33.5063Z" fill="#5C5C5C"/>
<path d="M61.8574 23.1489C62.9498 22.7918 63.5475 21.6116 63.1924 20.5128C62.8374 19.4141 61.664 18.8129 60.5717 19.17C59.4793 19.5272 58.8816 20.7073 59.2366 21.8061C59.5917 22.9048 60.765 23.506 61.8574 23.1489Z" fill="#5C5C5C"/>
<path d="M163.013 34.0281C164.908 32.2859 165.041 29.3281 163.309 27.4217C161.577 25.5153 158.636 25.3822 156.74 27.1243C154.845 28.8665 154.713 31.8243 156.445 33.7307C158.177 35.6371 161.118 35.7702 163.013 34.0281Z" fill="#5C5C5C"/>
<path d="M177.862 25.5025C178.66 24.7689 178.716 23.5236 177.987 22.7209C177.258 21.9181 176.019 21.8621 175.221 22.5956C174.423 23.3292 174.368 24.5745 175.097 25.3772C175.826 26.1799 177.064 26.236 177.862 25.5025Z" fill="#5C5C5C"/>
<path d="M61.4435 134.81C62.2415 134.076 62.2973 132.831 61.568 132.028C60.8387 131.226 59.6005 131.169 58.8024 131.903C58.0044 132.637 57.9486 133.882 58.6779 134.685C59.4072 135.487 60.6454 135.543 61.4435 134.81Z" fill="#5C5C5C"/>
<path d="M110.804 141.316C144.385 141.316 171.608 113.935 171.608 80.158C171.608 46.3814 144.385 19 110.804 19C77.223 19 50 46.3814 50 80.158C50 113.935 77.223 141.316 110.804 141.316Z" fill="#242424"/>
<g filter="url(#filter0_d_6064_5235)">
<path d="M72.4791 72.0857L64.5268 38.1227C63.9151 35.5385 65.5055 33.0775 67.9524 32.4622L118.283 20.4258C119.655 20.0977 121.102 20.3643 122.266 21.1597L148.594 39.1409C149.607 39.8325 150.33 40.8721 150.626 42.0619L168.763 114.909C169.374 117.493 167.784 119.954 165.337 120.569L92.9103 137.797C90.3411 138.412 87.8942 136.812 87.2825 134.351L71.8674 69.5015" fill="#313131"/>
</g>
<g filter="url(#filter1_d_6064_5235)">
<path d="M163.466 67.9719C163.883 69.1162 163.869 70.3738 163.425 71.5084L136.098 141.365C135.119 143.826 132.427 144.934 129.98 143.95L61.1016 115.647C58.6548 114.663 57.5537 111.955 58.5324 109.494L95.6022 17.9419C96.5809 15.4808 99.2725 14.3733 101.719 15.3577L149.717 35.0698C151.017 35.6036 152.032 36.6599 152.514 37.9799L163.466 67.9719Z" fill="#3A3A3A"/>
</g>
<g filter="url(#filter2_d_6064_5235)">
<path d="M156.895 127.583C156.895 130.168 154.815 132.26 152.246 132.26H77.8619C75.2927 132.26 73.2129 130.168 73.2129 127.583V28.6477C73.2129 26.0636 75.2927 23.9717 77.8619 23.9717H129.6C131.01 23.9717 132.355 24.5675 133.303 25.6122L154.763 49.2682C155.585 50.1742 156.046 51.3499 156.059 52.573L156.528 95.4663L156.895 127.583Z" fill="#4D4D4D"/>
</g>
<path d="M143.193 103.957H98.5382C97.8041 103.957 97.1924 103.342 97.1924 102.603C97.1924 101.865 97.8041 101.25 98.5382 101.25H143.193C143.927 101.25 144.539 101.865 144.539 102.603C144.417 103.342 143.927 103.957 143.193 103.957Z" fill="#707070"/>
<path d="M93.0321 103.957H85.2022C84.4682 103.957 83.8564 103.342 83.8564 102.603C83.8564 101.865 84.4682 101.25 85.2022 101.25H93.0321C93.7662 101.25 94.3779 101.865 94.3779 102.603C94.3779 103.342 93.7662 103.957 93.0321 103.957Z" fill="#707070"/>
<path d="M143.071 91.7746H123.129C122.395 91.7746 121.783 91.1593 121.783 90.421C121.783 89.6827 122.395 89.0674 123.129 89.0674H143.071C143.805 89.0674 144.417 89.6827 144.417 90.421C144.294 91.2824 143.805 91.7746 143.071 91.7746Z" fill="#707070"/>
<path d="M114.687 91.7746H85.5694C84.8353 91.7746 84.2236 91.1593 84.2236 90.421C84.2236 89.6827 84.8353 89.0674 85.5694 89.0674H114.687C115.421 89.0674 116.033 89.6827 116.033 90.421C116.033 91.2824 115.421 91.7746 114.687 91.7746Z" fill="#707070"/>
<path d="M143.438 79.7152H135.731C134.996 79.7152 134.385 79.1 134.385 78.3617C134.385 77.6233 134.996 77.0081 135.731 77.0081H143.438C144.172 77.0081 144.784 77.6233 144.784 78.3617C144.784 79.1 144.172 79.7152 143.438 79.7152Z" fill="#707070"/>
<path d="M128.512 79.7152H85.9366C85.2025 79.7152 84.5908 79.1 84.5908 78.3617C84.5908 77.6233 85.2025 77.0081 85.9366 77.0081H128.512C129.246 77.0081 129.858 77.6233 129.858 78.3617C129.858 79.1 129.246 79.7152 128.512 79.7152Z" fill="#707070"/>
<path d="M109.426 117.247H106.734C106 117.247 105.389 116.631 105.389 115.893C105.389 115.155 106 114.54 106.734 114.54H109.426C110.16 114.54 110.772 115.155 110.772 115.893C110.649 116.631 110.038 117.247 109.426 117.247Z" fill="#707070"/>
<path d="M101.841 117.247H85.9366C85.2025 117.247 84.5908 116.631 84.5908 115.893C84.5908 115.155 85.2025 114.54 85.9366 114.54H101.719C102.453 114.54 103.065 115.155 103.065 115.893C103.187 116.631 102.575 117.247 101.841 117.247Z" fill="#707070"/>
<path d="M143.804 67.6559H116.399C115.665 67.6559 115.054 67.0407 115.054 66.3023C115.054 65.564 115.665 64.9487 116.399 64.9487H143.804C144.538 64.9487 145.15 65.564 145.15 66.3023C145.15 67.0407 144.538 67.6559 143.804 67.6559Z" fill="#707070"/>
<path d="M107.591 67.6559H86.3038C85.5697 67.6559 84.958 67.0407 84.958 66.3023C84.958 65.564 85.5697 64.9487 86.3038 64.9487H107.469C108.203 64.9487 108.815 65.564 108.815 66.3023C108.815 67.0407 108.325 67.6559 107.591 67.6559Z" fill="#707070"/>
<path d="M122.517 40.3381H86.7929C85.8141 40.3381 85.0801 39.5998 85.0801 38.6153C85.0801 37.6309 85.8141 36.8926 86.7929 36.8926H122.517C123.496 36.8926 124.23 37.6309 124.23 38.6153C124.23 39.4767 123.373 40.3381 122.517 40.3381Z" fill="#707070"/>
<path d="M100.373 48.9519H86.7929C85.8141 48.9519 85.0801 48.2135 85.0801 47.2291C85.0801 46.2447 85.8141 45.5063 86.7929 45.5063H100.495C101.474 45.5063 102.208 46.2447 102.208 47.2291C102.086 48.0905 101.352 48.9519 100.373 48.9519Z" fill="#707070"/>
<path d="M131.814 23.9717V45.137C131.814 48.0903 134.384 50.5514 137.32 50.5514H156.038" fill="#777777"/>
<defs>
<filter id="filter0_d_6064_5235" x="48.3955" y="15.2886" width="136.498" height="149.64" filterUnits="userSpaceOnUse" color-interpolation-filters="sRGB">
<feFlood flood-opacity="0" result="BackgroundImageFix"/>
<feColorMatrix in="SourceAlpha" type="matrix" values="0 0 0 0 0 0 0 0 0 0 0 0 0 0 0 0 0 0 127 0" result="hardAlpha"/>
<feOffset dy="11"/>
<feGaussianBlur stdDeviation="8"/>
<feComposite in2="hardAlpha" operator="out"/>
<feColorMatrix type="matrix" values="0 0 0 0 0 0 0 0 0 0 0 0 0 0 0 0 0 0 0.27 0"/>
<feBlend mode="normal" in2="BackgroundImageFix" result="effect1_dropShadow_6064_5235"/>
<feBlend mode="normal" in="SourceGraphic" in2="effect1_dropShadow_6064_5235" result="shape"/>
</filter>
<filter id="filter1_d_6064_5235" x="42.1768" y="10" width="137.592" height="161.307" filterUnits="userSpaceOnUse" color-interpolation-filters="sRGB">
<feFlood flood-opacity="0" result="BackgroundImageFix"/>
<feColorMatrix in="SourceAlpha" type="matrix" values="0 0 0 0 0 0 0 0 0 0 0 0 0 0 0 0 0 0 127 0" result="hardAlpha"/>
<feOffset dy="11"/>
<feGaussianBlur stdDeviation="8"/>
<feComposite in2="hardAlpha" operator="out"/>
<feColorMatrix type="matrix" values="0 0 0 0 0 0 0 0 0 0 0 0 0 0 0 0 0 0 0.27 0"/>
<feBlend mode="normal" in2="BackgroundImageFix" result="effect1_dropShadow_6064_5235"/>
<feBlend mode="normal" in="SourceGraphic" in2="effect1_dropShadow_6064_5235" result="shape"/>
</filter>
<filter id="filter2_d_6064_5235" x="57.2129" y="18.9717" width="115.683" height="140.288" filterUnits="userSpaceOnUse" color-interpolation-filters="sRGB">
<feFlood flood-opacity="0" result="BackgroundImageFix"/>
<feColorMatrix in="SourceAlpha" type="matrix" values="0 0 0 0 0 0 0 0 0 0 0 0 0 0 0 0 0 0 127 0" result="hardAlpha"/>
<feOffset dy="11"/>
<feGaussianBlur stdDeviation="8"/>
<feComposite in2="hardAlpha" operator="out"/>
<feColorMatrix type="matrix" values="0 0 0 0 0 0 0 0 0 0 0 0 0 0 0 0 0 0 0.27 0"/>
<feBlend mode="normal" in2="BackgroundImageFix" result="effect1_dropShadow_6064_5235"/>
<feBlend mode="normal" in="SourceGraphic" in2="effect1_dropShadow_6064_5235" result="shape"/>
</filter>
</defs>
</svg>
