<svg width="230" height="174" viewBox="0 0 230 174" fill="none" xmlns="http://www.w3.org/2000/svg">
<path d="M56.069 33.5062C57.6755 32.981 58.5544 31.2454 58.0323 29.6296C57.5102 28.0139 55.7847 27.1298 54.1782 27.6549C52.5718 28.1801 51.6928 29.9157 52.2149 31.5315C52.7371 33.1472 54.4626 34.0313 56.069 33.5062Z" fill="#EDE5DA"/>
<path d="M61.8574 23.1489C62.9498 22.7918 63.5475 21.6116 63.1924 20.5128C62.8374 19.4141 61.664 18.8129 60.5717 19.17C59.4793 19.5272 58.8816 20.7073 59.2366 21.8061C59.5917 22.9048 60.765 23.506 61.8574 23.1489Z" fill="#EDE5DA"/>
<path d="M163.013 34.0282C164.908 32.286 165.041 29.3283 163.309 27.4219C161.577 25.5154 158.636 25.3823 156.74 27.1245C154.845 28.8666 154.713 31.8244 156.445 33.7308C158.177 35.6372 161.118 35.7704 163.013 34.0282Z" fill="#EDE5DA"/>
<path d="M177.862 25.5026C178.66 24.769 178.716 23.5237 177.987 22.721C177.258 21.9183 176.019 21.8622 175.221 22.5958C174.423 23.3293 174.368 24.5747 175.097 25.3774C175.826 26.1801 177.064 26.2361 177.862 25.5026Z" fill="#EDE5DA"/>
<path d="M61.4435 134.81C62.2415 134.076 62.2973 132.831 61.568 132.028C60.8387 131.226 59.6005 131.169 58.8024 131.903C58.0044 132.637 57.9486 133.882 58.6779 134.685C59.4072 135.487 60.6454 135.543 61.4435 134.81Z" fill="#EDE5DA"/>
<path d="M110.804 141.316C144.385 141.316 171.608 113.935 171.608 80.158C171.608 46.3814 144.385 19 110.804 19C77.223 19 50 46.3814 50 80.158C50 113.935 77.223 141.316 110.804 141.316Z" fill="#F0F0F0"/>
<g filter="url(#filter0_d_6064_5207)">
<path d="M72.4791 72.0858L64.5268 38.1228C63.9151 35.5387 65.5055 33.0776 67.9524 32.4623L118.283 20.4259C119.655 20.0978 121.102 20.3644 122.266 21.1598L148.594 39.1411C149.607 39.8326 150.33 40.8722 150.626 42.0621L168.763 114.909C169.374 117.493 167.784 119.954 165.337 120.569L92.9103 137.797C90.3411 138.412 87.8942 136.812 87.2825 134.351L71.8674 69.5017" fill="url(#paint0_linear_6064_5207)"/>
</g>
<g filter="url(#filter1_d_6064_5207)">
<path d="M163.466 67.9719C163.883 69.1162 163.869 70.3738 163.425 71.5084L136.098 141.365C135.119 143.826 132.427 144.934 129.98 143.95L61.1016 115.647C58.6548 114.663 57.5537 111.955 58.5324 109.494L95.6022 17.9419C96.5809 15.4808 99.2725 14.3733 101.719 15.3577L149.717 35.0698C151.017 35.6036 152.032 36.6599 152.514 37.9799L163.466 67.9719Z" fill="url(#paint1_linear_6064_5207)"/>
</g>
<g filter="url(#filter2_d_6064_5207)">
<path d="M156.895 127.583C156.895 130.168 154.815 132.26 152.246 132.26H77.8619C75.2927 132.26 73.2129 130.168 73.2129 127.583V28.6477C73.2129 26.0636 75.2927 23.9717 77.8619 23.9717H129.6C131.01 23.9717 132.355 24.5675 133.303 25.6122L154.763 49.2682C155.585 50.1742 156.046 51.3499 156.059 52.573L156.528 95.4663L156.895 127.583Z" fill="url(#paint2_linear_6064_5207)"/>
</g>
<path d="M143.193 103.957H98.5382C97.8041 103.957 97.1924 103.342 97.1924 102.603C97.1924 101.865 97.8041 101.25 98.5382 101.25H143.193C143.927 101.25 144.539 101.865 144.539 102.603C144.417 103.342 143.927 103.957 143.193 103.957Z" fill="#EDE5DA"/>
<path d="M93.0321 103.957H85.2022C84.4682 103.957 83.8564 103.342 83.8564 102.603C83.8564 101.865 84.4682 101.25 85.2022 101.25H93.0321C93.7662 101.25 94.3779 101.865 94.3779 102.603C94.3779 103.342 93.7662 103.957 93.0321 103.957Z" fill="#EDE5DA"/>
<path d="M143.071 91.7745H123.129C122.395 91.7745 121.783 91.1592 121.783 90.4209C121.783 89.6825 122.395 89.0673 123.129 89.0673H143.071C143.805 89.0673 144.417 89.6825 144.417 90.4209C144.294 91.2822 143.805 91.7745 143.071 91.7745Z" fill="#EDE5DA"/>
<path d="M114.687 91.7745H85.5694C84.8353 91.7745 84.2236 91.1592 84.2236 90.4209C84.2236 89.6825 84.8353 89.0673 85.5694 89.0673H114.687C115.421 89.0673 116.033 89.6825 116.033 90.4209C116.033 91.2822 115.421 91.7745 114.687 91.7745Z" fill="#EDE5DA"/>
<path d="M143.438 79.7151H135.731C134.996 79.7151 134.385 79.0999 134.385 78.3615C134.385 77.6232 134.996 77.0079 135.731 77.0079H143.438C144.172 77.0079 144.784 77.6232 144.784 78.3615C144.784 79.0999 144.172 79.7151 143.438 79.7151Z" fill="#EDE5DA"/>
<path d="M128.512 79.7151H85.9366C85.2025 79.7151 84.5908 79.0999 84.5908 78.3615C84.5908 77.6232 85.2025 77.0079 85.9366 77.0079H128.512C129.246 77.0079 129.858 77.6232 129.858 78.3615C129.858 79.0999 129.246 79.7151 128.512 79.7151Z" fill="#EDE5DA"/>
<path d="M109.426 117.247H106.734C106 117.247 105.389 116.631 105.389 115.893C105.389 115.155 106 114.539 106.734 114.539H109.426C110.16 114.539 110.772 115.155 110.772 115.893C110.649 116.631 110.038 117.247 109.426 117.247Z" fill="#EDE5DA"/>
<path d="M101.841 117.247H85.9366C85.2025 117.247 84.5908 116.631 84.5908 115.893C84.5908 115.155 85.2025 114.539 85.9366 114.539H101.719C102.453 114.539 103.065 115.155 103.065 115.893C103.187 116.631 102.575 117.247 101.841 117.247Z" fill="#EDE5DA"/>
<path d="M143.804 67.6558H116.399C115.665 67.6558 115.054 67.0405 115.054 66.3022C115.054 65.5639 115.665 64.9486 116.399 64.9486H143.804C144.538 64.9486 145.15 65.5639 145.15 66.3022C145.15 67.0405 144.538 67.6558 143.804 67.6558Z" fill="#EDE5DA"/>
<path d="M107.591 67.6558H86.3038C85.5697 67.6558 84.958 67.0405 84.958 66.3022C84.958 65.5639 85.5697 64.9486 86.3038 64.9486H107.469C108.203 64.9486 108.815 65.5639 108.815 66.3022C108.815 67.0405 108.325 67.6558 107.591 67.6558Z" fill="#EDE5DA"/>
<path d="M122.517 40.3379H86.7929C85.8141 40.3379 85.0801 39.5995 85.0801 38.6151C85.0801 37.6307 85.8141 36.8923 86.7929 36.8923H122.517C123.496 36.8923 124.23 37.6307 124.23 38.6151C124.23 39.4765 123.373 40.3379 122.517 40.3379Z" fill="#EDE5DA"/>
<path d="M100.373 48.9516H86.7929C85.8141 48.9516 85.0801 48.2133 85.0801 47.2289C85.0801 46.2444 85.8141 45.5061 86.7929 45.5061H100.495C101.474 45.5061 102.208 46.2444 102.208 47.2289C102.086 48.0902 101.352 48.9516 100.373 48.9516Z" fill="#EDE5DA"/>
<path d="M131.814 23.9716V45.1369C131.814 48.0902 134.384 50.5513 137.32 50.5513H156.038" fill="#D9D2C7"/>
<defs>
<filter id="filter0_d_6064_5207" x="42.3955" y="5.2887" width="148.498" height="161.64" filterUnits="userSpaceOnUse" color-interpolation-filters="sRGB">
<feFlood flood-opacity="0" result="BackgroundImageFix"/>
<feColorMatrix in="SourceAlpha" type="matrix" values="0 0 0 0 0 0 0 0 0 0 0 0 0 0 0 0 0 0 127 0" result="hardAlpha"/>
<feOffset dy="7"/>
<feGaussianBlur stdDeviation="11"/>
<feColorMatrix type="matrix" values="0 0 0 0 0.576471 0 0 0 0 0.501961 0 0 0 0 0.396078 0 0 0 0.37 0"/>
<feBlend mode="normal" in2="BackgroundImageFix" result="effect1_dropShadow_6064_5207"/>
<feBlend mode="normal" in="SourceGraphic" in2="effect1_dropShadow_6064_5207" result="shape"/>
</filter>
<filter id="filter1_d_6064_5207" x="36.1768" y="0" width="149.592" height="173.307" filterUnits="userSpaceOnUse" color-interpolation-filters="sRGB">
<feFlood flood-opacity="0" result="BackgroundImageFix"/>
<feColorMatrix in="SourceAlpha" type="matrix" values="0 0 0 0 0 0 0 0 0 0 0 0 0 0 0 0 0 0 127 0" result="hardAlpha"/>
<feOffset dy="7"/>
<feGaussianBlur stdDeviation="11"/>
<feColorMatrix type="matrix" values="0 0 0 0 0.576471 0 0 0 0 0.501961 0 0 0 0 0.396078 0 0 0 0.12 0"/>
<feBlend mode="normal" in2="BackgroundImageFix" result="effect1_dropShadow_6064_5207"/>
<feBlend mode="normal" in="SourceGraphic" in2="effect1_dropShadow_6064_5207" result="shape"/>
</filter>
<filter id="filter2_d_6064_5207" x="65.2129" y="22.9717" width="99.6826" height="124.288" filterUnits="userSpaceOnUse" color-interpolation-filters="sRGB">
<feFlood flood-opacity="0" result="BackgroundImageFix"/>
<feColorMatrix in="SourceAlpha" type="matrix" values="0 0 0 0 0 0 0 0 0 0 0 0 0 0 0 0 0 0 127 0" result="hardAlpha"/>
<feOffset dy="7"/>
<feGaussianBlur stdDeviation="4"/>
<feColorMatrix type="matrix" values="0 0 0 0 0.576471 0 0 0 0 0.501961 0 0 0 0 0.396078 0 0 0 0.24 0"/>
<feBlend mode="normal" in2="BackgroundImageFix" result="effect1_dropShadow_6064_5207"/>
<feBlend mode="normal" in="SourceGraphic" in2="effect1_dropShadow_6064_5207" result="shape"/>
</filter>
<linearGradient id="paint0_linear_6064_5207" x1="116.611" y1="17.1809" x2="116.611" y2="139.201" gradientUnits="userSpaceOnUse">
<stop stop-color="#FDFEFF"/>
<stop offset="0.9964" stop-color="#F5F2EC"/>
</linearGradient>
<linearGradient id="paint1_linear_6064_5207" x1="111.111" y1="12.009" x2="111.111" y2="145.701" gradientUnits="userSpaceOnUse">
<stop stop-color="#FDFEFF"/>
<stop offset="0.9964" stop-color="#F5F2EC"/>
</linearGradient>
<linearGradient id="paint2_linear_6064_5207" x1="115.027" y1="21.4669" x2="115.027" y2="133.427" gradientUnits="userSpaceOnUse">
<stop stop-color="#FDFEFF"/>
<stop offset="0.9964" stop-color="#F5F2EC"/>
</linearGradient>
</defs>
</svg>
