<svg width="24" height="24" viewBox="0 0 24 24" fill="none" xmlns="http://www.w3.org/2000/svg">
<path d="M11.3725 1C12.1065 1.00846 12.8376 1.09326 13.554 1.25304C13.8668 1.32279 14.1007 1.58351 14.1362 1.90196L14.3064 3.42881C14.3834 4.12986 14.9753 4.66084 15.681 4.66158C15.8706 4.66188 16.0583 4.62238 16.2335 4.54483L17.6342 3.92956C17.9255 3.80159 18.2658 3.87136 18.4833 4.10362C19.4955 5.18464 20.2493 6.48115 20.688 7.89558C20.7826 8.20058 20.6738 8.53203 20.4167 8.7215L19.6043 9.3203C18.9105 8.55918 17.5649 8.70405 17.1191 9.75491L12.5947 20.4197C11.4506 20.5692 10.2861 20.5098 9.15838 20.2415C8.85026 20.1682 8.6214 19.9092 8.58653 19.5944L8.41771 18.07C8.36812 17.6343 8.11469 17.248 7.73478 17.029C7.35486 16.81 6.89356 16.7843 6.49255 16.9594L5.08593 17.5756C4.79457 17.7033 4.45439 17.6333 4.23713 17.4009C3.22498 16.3185 2.47155 15.0205 2.03355 13.6048C1.93921 13.2999 2.04821 12.9686 2.3052 12.7793L3.54853 11.8633C3.90267 11.6031 4.11183 11.1899 4.11183 10.7505C4.11183 10.311 3.90267 9.89779 3.54807 9.63725L2.30551 8.72285C2.04815 8.53345 1.93905 8.20178 2.03372 7.89658C2.47247 6.48215 3.2263 5.18564 4.23848 4.10462C4.45594 3.87236 4.79629 3.80259 5.0876 3.93056L6.48797 4.54572C6.89091 4.72256 7.35415 4.69585 7.73612 4.47269C8.11644 4.25209 8.36964 3.86422 8.41852 3.42764L8.5886 1.90196C8.62411 1.58335 8.85821 1.32254 9.17115 1.25294C9.88843 1.09342 10.6203 1.00865 11.3725 1ZM11.36 7.74995C9.70319 7.74995 8.36005 9.0931 8.36005 10.75C8.36005 12.4068 9.70319 13.75 11.36 13.75C13.0169 13.75 14.36 12.4068 14.36 10.75C14.36 9.0931 13.0169 7.74995 11.36 7.74995ZM17.8063 11.4743L14.0527 20.9694L14.0217 21.0666C13.9333 21.4253 14.1214 21.803 14.4745 21.9426L14.5716 21.9737C14.9303 22.0621 15.3081 21.874 15.4477 21.5209L16.4432 19H20.5562L21.5525 21.5256L21.5962 21.6178C21.7767 21.9401 22.1721 22.0875 22.5253 21.9482C22.9107 21.7962 23.0999 21.3607 22.9479 20.9754L19.2015 11.4749L19.151 11.3698C18.8488 10.8441 18.0417 10.8788 17.8063 11.4743ZM17.0362 17.5L18.5029 13.7923L19.9642 17.5H17.0362Z" fill="#212121"/>
</svg>
