<svg width="20" height="20" viewBox="0 0 20 20" fill="none" xmlns="http://www.w3.org/2000/svg">
<path d="M1.91075 7.38266C2.28004 6.24053 2.88839 5.19213 3.69109 4.30364C3.82683 4.15339 4.03978 4.09984 4.23044 4.16802L6.14873 4.85392C6.6688 5.03977 7.24107 4.76883 7.42692 4.24875C7.4452 4.19762 7.45927 4.14507 7.469 4.09173L7.83446 2.08573C7.8708 1.88627 8.02398 1.7285 8.22227 1.6863C8.80246 1.5628 9.39734 1.5 10 1.5C10.6023 1.5 11.1968 1.56273 11.7767 1.68607C11.9749 1.72824 12.1281 1.88591 12.1645 2.08529L12.531 4.09165C12.6301 4.63497 13.1509 4.9951 13.6942 4.89601C13.7476 4.88627 13.8002 4.87219 13.8512 4.85395L15.7696 4.16802C15.9602 4.09984 16.1732 4.15339 16.3089 4.30364C17.1116 5.19213 17.72 6.24053 18.0893 7.38266C18.1516 7.57534 18.0915 7.78658 17.9371 7.91764L16.3823 9.23773C16.3754 9.2436 16.3686 9.24955 16.3618 9.25558L15.8743 8.14112C15.35 6.94276 13.6501 6.94274 13.1258 8.1411L8.64099 18.3919C8.50064 18.3693 8.36103 18.3432 8.22227 18.3137C8.02398 18.2715 7.8708 18.1137 7.83446 17.9143L7.46902 15.9084C7.36993 15.365 6.84916 15.0049 6.30583 15.104C6.25241 15.1137 6.19987 15.1278 6.14881 15.1461L4.23044 15.832C4.03978 15.9002 3.82683 15.8466 3.69109 15.6964C2.88839 14.8079 2.28004 13.7595 1.91075 12.6173C1.84845 12.4247 1.90852 12.2134 2.06289 12.0824L3.61773 10.7623C4.03872 10.4048 4.09021 9.77373 3.73274 9.35274C3.69759 9.31135 3.65913 9.27288 3.61775 9.23775L2.06289 7.91764C1.90852 7.78658 1.84845 7.57534 1.91075 7.38266ZM8.00001 10C8.00001 11.1046 8.89544 12 10 12C11.1046 12 12 11.1046 12 10C12 8.89543 11.1046 8 10 8C8.89544 8 8.00001 8.89543 8.00001 10ZM14.5005 8.5C14.7016 8.50001 14.8832 8.62058 14.9613 8.80598L18.961 18.306C19.0681 18.5605 18.9487 18.8537 18.6941 18.9608C18.4396 19.068 18.1465 18.9485 18.0393 18.694L16.4841 15H12.5165L10.9609 18.694C10.8538 18.9485 10.5606 19.068 10.3061 18.9608C10.0516 18.8536 9.93215 18.5605 10.0393 18.306L14.0396 8.80596C14.1177 8.62055 14.2993 8.49999 14.5005 8.5ZM12.9375 14H16.063L14.5004 10.2885L12.9375 14Z" fill="#242424"/>
</svg>
