<svg width="24" height="24" viewBox="0 0 24 24" fill="none" xmlns="http://www.w3.org/2000/svg">
<path d="M10.3725 1.25C11.1065 1.25846 11.8376 1.34326 12.554 1.50304C12.8668 1.57279 13.1007 1.83351 13.1362 2.15196L13.3064 3.67881C13.3834 4.37986 13.9753 4.91084 14.681 4.91158C14.8706 4.91188 15.0583 4.87238 15.2335 4.79483L16.6342 4.17956C16.9255 4.05159 17.2658 4.12136 17.4833 4.35362C18.4955 5.43464 19.2493 6.73115 19.688 8.14558C19.7826 8.45058 19.6738 8.78203 19.4167 8.9715L18.7295 9.47806C18.3295 8.8968 17.5998 8.71314 16.9914 8.92707C17.0834 8.8383 17.1818 8.75519 17.2862 8.67847L18.083 8.09109C17.7624 7.25061 17.3071 6.46784 16.7351 5.77356L15.8386 6.16737C15.4733 6.32901 15.0781 6.4122 14.679 6.41158C13.2093 6.41004 11.9759 5.30355 11.8155 3.84383L11.7066 2.8667C11.261 2.7942 10.813 2.75512 10.3727 2.7499C9.91867 2.75524 9.46591 2.79443 9.01818 2.86702L8.90925 3.84418C8.80742 4.75368 8.28039 5.56102 7.49077 6.01903C6.69632 6.48317 5.72772 6.53903 4.88493 6.16917L3.98664 5.77456C3.41471 6.46873 2.95949 7.25135 2.63887 8.09168L3.43667 8.67879C4.17548 9.22162 4.61183 10.0837 4.61183 11.0005C4.61183 11.9172 4.17548 12.7793 3.43745 13.3215L2.6384 13.9102C2.95874 14.752 3.41403 15.5361 3.98635 16.2316L4.89149 15.8351C5.72958 15.4692 6.69159 15.5227 7.48388 15.9794C8.27617 16.4361 8.80468 17.2417 8.90835 18.1526L9.01731 19.1365C9.90695 19.2878 10.8158 19.2878 11.7055 19.1365L12.197 19L11.4827 20.6837C10.3747 20.8151 9.24936 20.7511 8.15838 20.4915C7.85026 20.4182 7.6214 20.1592 7.58654 19.8444L7.41771 18.32C7.36812 17.8843 7.11469 17.498 6.73478 17.279C6.35486 17.06 5.89356 17.0343 5.49255 17.2094L4.08593 17.8256C3.79457 17.9533 3.45439 17.8833 3.23713 17.6509C2.22498 16.5685 1.47155 15.2705 1.03355 13.8548C0.939214 13.5499 1.04821 13.2186 1.3052 13.0293L2.54853 12.1133C2.90267 11.8531 3.11183 11.4399 3.11183 11.0005C3.11183 10.561 2.90267 10.1478 2.54807 9.88725L1.30551 8.97285C1.04815 8.78345 0.939048 8.45178 1.03372 8.14658C1.47247 6.73215 2.2263 5.43564 3.23848 4.35462C3.45594 4.12236 3.79629 4.05259 4.0876 4.18056L5.48797 4.79572C5.89091 4.97256 6.35415 4.94585 6.73612 4.72269C7.11644 4.50209 7.36964 4.11422 7.41852 3.67764L7.5886 2.15196C7.62411 1.83335 7.85822 1.57254 8.17116 1.50294C8.88843 1.34342 9.6203 1.25865 10.3725 1.25ZM10.36 7.24995C12.4311 7.24995 14.11 8.92888 14.11 11C14.11 13.071 12.4311 14.75 10.36 14.75C8.28898 14.75 6.61005 13.071 6.61005 11C6.61005 8.92888 8.28898 7.24995 10.36 7.24995ZM10.36 8.74995C9.11741 8.74995 8.11005 9.75731 8.11005 11C8.11005 12.2426 9.11741 13.25 10.36 13.25C11.6027 13.25 12.61 12.2426 12.61 11C12.61 9.75731 11.6027 8.74995 10.36 8.74995ZM16.8063 11.4743L13.0527 20.9694L13.0217 21.0666C12.9333 21.4253 13.1214 21.803 13.4745 21.9426L13.5716 21.9737C13.9303 22.0621 14.3081 21.874 14.4477 21.5209L15.4432 19H19.5562L20.5525 21.5256L20.5962 21.6178C20.7767 21.9401 21.1721 22.0875 21.5253 21.9482C21.9107 21.7962 22.0999 21.3607 21.9479 20.9754L18.2015 11.4749L18.151 11.3698C17.8488 10.8441 17.0417 10.8788 16.8063 11.4743ZM16.0362 17.5L17.5029 13.7923L18.9642 17.5H16.0362Z" fill="#242424"/>
</svg>
