<svg xmlns="http://www.w3.org/2000/svg" width="160" height="160" fill="none" viewBox="0 0 160 160">
  <path fill="#242424" d="M80.5 143c34.518 0 62.5-27.982 62.5-62.5S115.018 18 80.5 18 18 45.982 18 80.5 45.982 143 80.5 143Z"/>
  <g filter="url(#a)">
    <path fill="#5C5C5C" d="M137 42.835v72.33c0 2.651-2.206 4.835-4.886 4.835H27.886c-2.68 0-4.886-2.184-4.886-4.835v-72.33C23 40.184 25.206 38 27.886 38h104.228c2.68 0 4.886 2.184 4.886 4.835Z"/>
  </g>
  <path fill="#3A3A3A" d="M23 46h28v74H27a4 4 0 0 1-4-4V46Z"/>
  <path fill="#4D4D4D" d="M58 55a2 2 0 0 1 2-2h69a2 2 0 0 1 2 2v28a2 2 0 0 1-2 2H60a2 2 0 0 1-2-2V55Z"/>
  <g opacity=".3">
    <path fill="#CCC" d="M97.895 65.749c.849 0 1.537-.69 1.537-1.541s-.688-1.541-1.537-1.541-1.537.69-1.537 1.54a1.54 1.54 0 0 0 1.537 1.542Zm.09 10.005H86.26c-.757 0-1.198-.88-.757-1.446l5.862-8.173a.947.947 0 0 1 1.513 0l5.862 8.173a.91.91 0 0 1-.756 1.446Z"/>
    <path fill="#CCC" d="M102.067 75.587h-5.77c-.876 0-1.315-.914-.876-1.546l2.848-3.867a1.047 1.047 0 0 1 1.68 0l2.848 3.867c.658.632.147 1.546-.73 1.546Z" opacity=".7"/>
  </g>
  <path fill="#4D4D4D" d="M58 93a2 2 0 0 1 2-2h18a2 2 0 0 1 2 2v19a2 2 0 0 1-2 2H60a2 2 0 0 1-2-2V93Zm27 0a2 2 0 0 1 2-2h16a2 2 0 0 1 2 2v19a2 2 0 0 1-2 2H87a2 2 0 0 1-2-2V93Zm24 0a2 2 0 0 1 2-2h18a2 2 0 0 1 2 2v19a2 2 0 0 1-2 2h-18a2 2 0 0 1-2-2V93Z"/>
  <path fill="#707070" fill-rule="evenodd" d="M127 100h-15v-2h15v2Zm-3 5h-12v-2h12v2ZM45.11 56.916H29.598v-2H45.11v2Zm-2.908 7.715H29.598v-2h12.604v2Zm3.878 7.716H29.598v-2H46.08v2Zm-9.695 7.717h-6.787v-2h6.787v2Zm6.786 7.716H29.598v-2h13.573v2Zm-4.847 7.715h-8.726v-2h8.726v2Z" clip-rule="evenodd"/>
  <path fill="#3A3A3A" d="M137 42.636V46H23v-3.364C23 40.093 25.206 38 27.886 38h104.228c2.68 0 4.886 2.093 4.886 4.636Z"/>
  <path fill="#CCC" d="M28.122 43.727c.827 0 1.497-.667 1.497-1.49 0-.824-.67-1.491-1.497-1.491-.827 0-1.497.667-1.497 1.49 0 .824.67 1.49 1.497 1.49Z"/>
  <path fill="#777" d="M32.771 43.727c.827 0 1.497-.667 1.497-1.49 0-.824-.67-1.491-1.497-1.491-.827 0-1.497.667-1.497 1.49 0 .824.67 1.49 1.497 1.49Z" opacity=".6"/>
  <path fill="#5C5C5C" d="M37.5 43.727c.826 0 1.496-.667 1.496-1.49 0-.824-.67-1.491-1.497-1.491-.827 0-1.497.667-1.497 1.49 0 .824.67 1.49 1.497 1.49Z" opacity=".4"/>
  <path fill="url(#b)" d="M87.484 101.057H74.228c-1.46 0-2.64-1.2-2.64-2.685V79.694c0-5.198 4.157-9.368 9.212-9.368s9.212 4.227 9.212 9.368v18.735c.056 1.428-1.124 2.628-2.528 2.628Zm-10.616-5.313h7.976v-16.05c0-2.228-1.797-4.056-3.988-4.056-2.19 0-3.988 1.828-3.988 4.055v16.051Z"/>
  <path fill="url(#c)" d="M93.102 106.179H68.5c-1.67 0-3.053-1.391-3.053-3.071V86.713c0-1.68 1.382-3.07 3.053-3.07h24.602c1.67 0 3.054 1.39 3.054 3.07v16.395c0 1.68-1.383 3.071-3.054 3.071Z"/>
  <path fill="#252525" d="M83.872 92.761c0 1.166-.682 2.165-1.649 2.664v3.22c0 .777-.626 1.387-1.422 1.387-.796 0-1.421-.61-1.421-1.387v-3.22c-.967-.5-1.65-1.498-1.65-2.664 0-1.665 1.365-2.997 3.071-2.997 1.706 0 3.071 1.332 3.071 2.997Z"/>
  <defs>
    <linearGradient id="b" x1="80.801" x2="80.801" y1="70.326" y2="101.057" gradientUnits="userSpaceOnUse">
      <stop stop-color="#FAFAFA"/>
      <stop offset=".828" stop-color="#F5F2EC"/>
    </linearGradient>
    <linearGradient id="c" x1="80.801" x2="80.801" y1="83.643" y2="106.179" gradientUnits="userSpaceOnUse">
      <stop stop-color="#FAFAFA"/>
      <stop offset=".828" stop-color="#F5F2EC"/>
    </linearGradient>
    <filter id="a" width="158" height="126" x="1" y="27" color-interpolation-filters="sRGB" filterUnits="userSpaceOnUse">
      <feFlood flood-opacity="0" result="BackgroundImageFix"/>
      <feColorMatrix in="SourceAlpha" result="hardAlpha" values="0 0 0 0 0 0 0 0 0 0 0 0 0 0 0 0 0 0 127 0"/>
      <feOffset dy="11"/>
      <feGaussianBlur stdDeviation="11"/>
      <feColorMatrix values="0 0 0 0 0 0 0 0 0 0 0 0 0 0 0 0 0 0 0.27 0"/>
      <feBlend in2="BackgroundImageFix" result="effect1_dropShadow_1176_29172"/>
      <feBlend in="SourceGraphic" in2="effect1_dropShadow_1176_29172" result="shape"/>
    </filter>
  </defs>
</svg>
