<svg width="230" height="160" viewBox="0 0 230 160" fill="none" xmlns="http://www.w3.org/2000/svg">
<path d="M115 135C145.376 135 170 110.376 170 80C170 49.6243 145.376 25 115 25C84.6243 25 60 49.6243 60 80C60 110.376 84.6243 135 115 135Z" fill="#242424"/>
<g filter="url(#filter0_d_4731_635)">
<path d="M164.72 46.8549V110.505C164.72 112.838 162.778 114.76 160.421 114.76H68.6992C66.3415 114.76 64.3999 112.838 64.3999 110.505V46.8549C64.3999 44.5215 66.3415 42.6 68.6992 42.6H160.421C162.778 42.6 164.72 44.5215 164.72 46.8549Z" fill="#5C5C5C"/>
</g>
<path d="M64.3999 49.64H89.0399V114.76H67.9199C65.9759 114.76 64.3999 113.184 64.3999 111.24V49.64Z" fill="#3A3A3A"/>
<path d="M95.2002 57.56C95.2002 56.588 95.9882 55.8 96.9602 55.8H157.68C158.652 55.8 159.44 56.588 159.44 57.56V82.2C159.44 83.172 158.652 83.96 157.68 83.96H96.9602C95.9882 83.96 95.2002 83.172 95.2002 82.2V57.56Z" fill="#4D4D4D"/>
<g opacity="0.3">
<path d="M130.308 67.0188C131.055 67.0188 131.66 66.4116 131.66 65.6627C131.66 64.9138 131.055 64.3066 130.308 64.3066C129.561 64.3066 128.956 64.9138 128.956 65.6627C128.956 66.4116 129.561 67.0188 130.308 67.0188Z" fill="#CCCCCC"/>
<path d="M130.386 75.8235H120.069C119.404 75.8235 119.015 75.049 119.404 74.551L124.562 67.3585C124.895 66.9158 125.561 66.9158 125.893 67.3585L131.052 74.551C131.44 75.1043 131.052 75.8235 130.386 75.8235Z" fill="#CCCCCC"/>
<path opacity="0.7" d="M133.979 75.6766H128.901C128.13 75.6766 127.744 74.8724 128.13 74.3157L130.637 70.9133C131.022 70.4184 131.729 70.4184 132.115 70.9133L134.622 74.3157C135.2 74.8724 134.75 75.6766 133.979 75.6766Z" fill="#CCCCCC"/>
</g>
<path d="M95.2002 91C95.2002 90.028 95.9882 89.24 96.9602 89.24H112.8C113.772 89.24 114.56 90.028 114.56 91V107.72C114.56 108.692 113.772 109.48 112.8 109.48H96.9602C95.9882 109.48 95.2002 108.692 95.2002 107.72V91Z" fill="#4D4D4D"/>
<path d="M118.96 91C118.96 90.028 119.748 89.24 120.72 89.24H134.8C135.772 89.24 136.56 90.028 136.56 91V107.72C136.56 108.692 135.772 109.48 134.8 109.48H120.72C119.748 109.48 118.96 108.692 118.96 107.72V91Z" fill="#4D4D4D"/>
<path d="M140.08 91C140.08 90.028 140.868 89.24 141.84 89.24H157.68C158.652 89.24 159.44 90.028 159.44 91V107.72C159.44 108.692 158.652 109.48 157.68 109.48H141.84C140.868 109.48 140.08 108.692 140.08 107.72V91Z" fill="#4D4D4D"/>
<path fill-rule="evenodd" clip-rule="evenodd" d="M155.92 97.16H142.72V95.4H155.92V97.16Z" fill="#707070"/>
<path fill-rule="evenodd" clip-rule="evenodd" d="M153.28 101.56H142.72V99.8H153.28V101.56Z" fill="#707070"/>
<path fill-rule="evenodd" clip-rule="evenodd" d="M83.8571 59.2455H70.2065V57.4855H83.8571V59.2455Z" fill="#707070"/>
<path fill-rule="evenodd" clip-rule="evenodd" d="M81.2976 66.0356H70.2065V64.2756H81.2976V66.0356Z" fill="#707070"/>
<path fill-rule="evenodd" clip-rule="evenodd" d="M84.7103 72.8256H70.2065V71.0656H84.7103V72.8256Z" fill="#707070"/>
<path fill-rule="evenodd" clip-rule="evenodd" d="M76.1787 79.6157H70.2065V77.8557H76.1787V79.6157Z" fill="#707070"/>
<path fill-rule="evenodd" clip-rule="evenodd" d="M82.1508 86.4057H70.2065V84.6457H82.1508V86.4057Z" fill="#707070"/>
<path fill-rule="evenodd" clip-rule="evenodd" d="M77.885 93.1957H70.2065V91.4357H77.885V93.1957Z" fill="#707070"/>
<path d="M164.72 46.6792V49.64H64.3999V46.6792C64.3999 44.4422 66.3415 42.6 68.6992 42.6H160.421C162.778 42.6 164.72 44.4422 164.72 46.6792Z" fill="#3A3A3A"/>
<path d="M68.9069 47.6396C69.6345 47.6396 70.2244 47.0523 70.2244 46.3279C70.2244 45.6035 69.6345 45.0162 68.9069 45.0162C68.1792 45.0162 67.5894 45.6035 67.5894 46.3279C67.5894 47.0523 68.1792 47.6396 68.9069 47.6396Z" fill="#CCCCCC"/>
<path opacity="0.6" d="M72.9987 47.6396C73.7263 47.6396 74.3162 47.0523 74.3162 46.3279C74.3162 45.6035 73.7263 45.0162 72.9987 45.0162C72.271 45.0162 71.6812 45.6035 71.6812 46.3279C71.6812 47.0523 72.271 47.6396 72.9987 47.6396Z" fill="#777777"/>
<path opacity="0.4" d="M77.1593 47.6396C77.887 47.6396 78.4768 47.0523 78.4768 46.3279C78.4768 45.6035 77.887 45.0162 77.1593 45.0162C76.4317 45.0162 75.8418 45.6035 75.8418 46.3279C75.8418 47.0523 76.4317 47.6396 77.1593 47.6396Z" fill="#5C5C5C"/>
<path d="M121.146 98.0898H109.481C108.196 98.0898 107.158 97.0342 107.158 95.7273V79.2903C107.158 74.7161 110.815 71.0466 115.264 71.0466C119.713 71.0466 123.37 74.7663 123.37 79.2903V95.7776C123.42 97.0342 122.382 98.0898 121.146 98.0898ZM111.804 93.4151H118.823V79.2903C118.823 77.3299 117.241 75.7214 115.313 75.7214C113.386 75.7214 111.804 77.3299 111.804 79.2903V93.4151Z" fill="url(#paint0_linear_4731_635)"/>
<path d="M126.09 102.597H104.44C102.97 102.597 101.753 101.374 101.753 99.8951V85.4674C101.753 83.9889 102.97 82.7654 104.44 82.7654H126.09C127.56 82.7654 128.777 83.9889 128.777 85.4674V99.8951C128.777 101.374 127.56 102.597 126.09 102.597Z" fill="url(#paint1_linear_4731_635)"/>
<path d="M117.968 90.79C117.968 91.8156 117.367 92.6948 116.516 93.1344V95.9672C116.516 96.651 115.966 97.1883 115.265 97.1883C114.565 97.1883 114.014 96.651 114.014 95.9672V93.1344C113.164 92.6948 112.563 91.8156 112.563 90.79C112.563 89.3247 113.764 88.1525 115.265 88.1525C116.767 88.1525 117.968 89.3247 117.968 90.79Z" fill="#252525"/>
<defs>
<filter id="filter0_d_4731_635" x="42.3999" y="31.6" width="144.32" height="116.16" filterUnits="userSpaceOnUse" color-interpolation-filters="sRGB">
<feFlood flood-opacity="0" result="BackgroundImageFix"/>
<feColorMatrix in="SourceAlpha" type="matrix" values="0 0 0 0 0 0 0 0 0 0 0 0 0 0 0 0 0 0 127 0" result="hardAlpha"/>
<feOffset dy="11"/>
<feGaussianBlur stdDeviation="11"/>
<feColorMatrix type="matrix" values="0 0 0 0 0 0 0 0 0 0 0 0 0 0 0 0 0 0 0.27 0"/>
<feBlend mode="normal" in2="BackgroundImageFix" result="effect1_dropShadow_4731_635"/>
<feBlend mode="normal" in="SourceGraphic" in2="effect1_dropShadow_4731_635" result="shape"/>
</filter>
<linearGradient id="paint0_linear_4731_635" x1="115.265" y1="71.0466" x2="115.265" y2="98.0898" gradientUnits="userSpaceOnUse">
<stop stop-color="#FAFAFA"/>
<stop offset="0.828125" stop-color="#F5F2EC"/>
</linearGradient>
<linearGradient id="paint1_linear_4731_635" x1="115.265" y1="82.7654" x2="115.265" y2="102.597" gradientUnits="userSpaceOnUse">
<stop stop-color="#FAFAFA"/>
<stop offset="0.828125" stop-color="#F5F2EC"/>
</linearGradient>
</defs>
</svg>
