<svg width="230" height="160" viewBox="0 0 230 160" fill="none" xmlns="http://www.w3.org/2000/svg">
<path d="M115 135C145.376 135 170 110.376 170 80C170 49.6243 145.376 25 115 25C84.6243 25 60 49.6243 60 80C60 110.376 84.6243 135 115 135Z" fill="#EBEBEB"/>
<g filter="url(#filter0_d_1176_29170)">
<path d="M164.795 46.8549V110.505C164.795 112.838 162.852 114.76 160.493 114.76H68.7052C66.3458 114.76 64.4028 112.838 64.4028 110.505V46.8549C64.4028 44.5215 66.3458 42.6 68.7052 42.6H160.493C162.852 42.6 164.795 44.5215 164.795 46.8549Z" fill="#FCFCFC"/>
</g>
<path d="M64.4028 49.64H89.0606V114.76H67.9254C65.9799 114.76 64.4028 113.184 64.4028 111.24V49.64Z" fill="#FCFCFC"/>
<path d="M95.2256 57.56C95.2256 56.588 96.0141 55.8 96.9869 55.8H157.751C158.723 55.8 159.512 56.588 159.512 57.56V82.2C159.512 83.1721 158.723 83.96 157.751 83.96H96.9869C96.0141 83.96 95.2256 83.1721 95.2256 82.2V57.56Z" fill="#EDE5DA"/>
<path d="M130.358 67.0188C131.106 67.0188 131.711 66.4116 131.711 65.6627C131.711 64.9138 131.106 64.3066 130.358 64.3066C129.611 64.3066 129.005 64.9138 129.005 65.6627C129.005 66.4116 129.611 67.0188 130.358 67.0188Z" fill="#DBD4CA"/>
<path d="M130.437 75.8235H120.112C119.446 75.8235 119.058 75.049 119.446 74.551L124.608 67.3585C124.942 66.9158 125.608 66.9158 125.941 67.3585L131.103 74.551C131.492 75.1043 131.103 75.8235 130.437 75.8235Z" fill="#D3CCC3"/>
<path opacity="0.7" d="M134.032 75.6766H128.951C128.179 75.6766 127.793 74.8724 128.179 74.3157L130.688 70.9133C131.074 70.4184 131.781 70.4184 132.167 70.9133L134.676 74.3157C135.255 74.8724 134.804 75.6766 134.032 75.6766Z" fill="#DBD4CA"/>
<path d="M95.2256 91C95.2256 90.028 96.0141 89.24 96.9869 89.24H112.838C113.811 89.24 114.6 90.028 114.6 91V107.72C114.6 108.692 113.811 109.48 112.838 109.48H96.9869C96.0141 109.48 95.2256 108.692 95.2256 107.72V91Z" fill="#EDE5DA"/>
<path d="M119.002 91C119.002 90.028 119.791 89.24 120.764 89.24H134.854C135.827 89.24 136.615 90.028 136.615 91V107.72C136.615 108.692 135.827 109.48 134.854 109.48H120.764C119.791 109.48 119.002 108.692 119.002 107.72V91Z" fill="#EDE5DA"/>
<path d="M140.138 91C140.138 90.028 140.926 89.24 141.899 89.24H157.75C158.723 89.24 159.512 90.028 159.512 91V107.72C159.512 108.692 158.723 109.48 157.75 109.48H141.899C140.926 109.48 140.138 108.692 140.138 107.72V91Z" fill="#EDE5DA"/>
<path fill-rule="evenodd" clip-rule="evenodd" d="M155.989 97.16H142.78V95.4H155.989V97.16Z" fill="#BCB9B3"/>
<path fill-rule="evenodd" clip-rule="evenodd" d="M153.347 101.56H142.78V99.8H153.347V101.56Z" fill="#BCB9B3"/>
<path fill-rule="evenodd" clip-rule="evenodd" d="M83.8743 59.2457H70.2139V57.4857H83.8743V59.2457Z" fill="#EDE5DA"/>
<path fill-rule="evenodd" clip-rule="evenodd" d="M81.3129 66.0356H70.2139V64.2756H81.3129V66.0356Z" fill="#EDE5DA"/>
<path fill-rule="evenodd" clip-rule="evenodd" d="M84.728 72.8258H70.2139V71.0658H84.728V72.8258Z" fill="#EDE5DA"/>
<path fill-rule="evenodd" clip-rule="evenodd" d="M76.1903 79.6157H70.2139V77.8557H76.1903V79.6157Z" fill="#EDE5DA"/>
<path fill-rule="evenodd" clip-rule="evenodd" d="M82.1667 86.4059H70.2139V84.6459H82.1667V86.4059Z" fill="#EDE5DA"/>
<path fill-rule="evenodd" clip-rule="evenodd" d="M77.8978 93.1958H70.2139V91.4358H77.8978V93.1958Z" fill="#EDE5DA"/>
<path d="M164.795 46.6792V49.64H64.4028V46.6792C64.4028 44.4422 66.3458 42.6 68.7052 42.6H160.493C162.852 42.6 164.795 44.4422 164.795 46.6792Z" fill="#727272"/>
<path d="M68.9137 47.6396C69.6419 47.6396 70.2322 47.0523 70.2322 46.3279C70.2322 45.6035 69.6419 45.0162 68.9137 45.0162C68.1855 45.0162 67.5952 45.6035 67.5952 46.3279C67.5952 47.0523 68.1855 47.6396 68.9137 47.6396Z" fill="#CCCCCC"/>
<path opacity="0.6" d="M73.0079 47.6396C73.7361 47.6396 74.3264 47.0523 74.3264 46.3279C74.3264 45.6035 73.7361 45.0162 73.0079 45.0162C72.2798 45.0162 71.6895 45.6035 71.6895 46.3279C71.6895 47.0523 72.2798 47.6396 73.0079 47.6396Z" fill="#777777"/>
<path opacity="0.4" d="M77.172 47.6396C77.9002 47.6396 78.4905 47.0523 78.4905 46.3279C78.4905 45.6035 77.9002 45.0162 77.172 45.0162C76.4438 45.0162 75.8535 45.6035 75.8535 46.3279C75.8535 47.0523 76.4438 47.6396 77.172 47.6396Z" fill="#5C5C5C"/>
<path d="M120.842 98.5298H109.177C107.892 98.5298 106.854 97.4742 106.854 96.1673V79.7302C106.854 75.156 110.511 71.4866 114.96 71.4866C119.408 71.4866 123.066 75.2063 123.066 79.7302V96.2175C123.115 97.4742 122.077 98.5298 120.842 98.5298ZM111.5 93.855H118.519V79.7302C118.519 77.7698 116.937 76.1613 115.009 76.1613C113.082 76.1613 111.5 77.7698 111.5 79.7302V93.855Z" fill="url(#paint0_linear_1176_29170)"/>
<g filter="url(#filter1_d_1176_29170)">
<path d="M125.785 103.037H104.136C102.666 103.037 101.449 101.813 101.449 100.335V85.9073C101.449 84.4289 102.666 83.2053 104.136 83.2053H125.785C127.256 83.2053 128.472 84.4289 128.472 85.9073V100.335C128.472 101.813 127.256 103.037 125.785 103.037Z" fill="url(#paint1_linear_1176_29170)"/>
</g>
<path d="M117.663 90.6069C117.663 91.7325 117.063 92.6972 116.212 93.1796V96.2884C116.212 97.0388 115.661 97.6284 114.961 97.6284C114.26 97.6284 113.71 97.0388 113.71 96.2884V93.1796C112.859 92.6972 112.258 91.7325 112.258 90.6069C112.258 88.9989 113.459 87.7125 114.961 87.7125C116.462 87.7125 117.663 88.9989 117.663 90.6069Z" fill="white"/>
<defs>
<filter id="filter0_d_1176_29170" x="48.4028" y="34.6" width="132.392" height="104.16" filterUnits="userSpaceOnUse" color-interpolation-filters="sRGB">
<feFlood flood-opacity="0" result="BackgroundImageFix"/>
<feColorMatrix in="SourceAlpha" type="matrix" values="0 0 0 0 0 0 0 0 0 0 0 0 0 0 0 0 0 0 127 0" result="hardAlpha"/>
<feOffset dy="8"/>
<feGaussianBlur stdDeviation="8"/>
<feColorMatrix type="matrix" values="0 0 0 0 0.576471 0 0 0 0 0.501961 0 0 0 0 0.396078 0 0 0 0.24 0"/>
<feBlend mode="normal" in2="BackgroundImageFix" result="effect1_dropShadow_1176_29170"/>
<feBlend mode="normal" in="SourceGraphic" in2="effect1_dropShadow_1176_29170" result="shape"/>
</filter>
<filter id="filter1_d_1176_29170" x="79.4487" y="72.2053" width="71.0239" height="63.8317" filterUnits="userSpaceOnUse" color-interpolation-filters="sRGB">
<feFlood flood-opacity="0" result="BackgroundImageFix"/>
<feColorMatrix in="SourceAlpha" type="matrix" values="0 0 0 0 0 0 0 0 0 0 0 0 0 0 0 0 0 0 127 0" result="hardAlpha"/>
<feOffset dy="11"/>
<feGaussianBlur stdDeviation="11"/>
<feColorMatrix type="matrix" values="0 0 0 0 0.482733 0 0 0 0 0.482733 0 0 0 0 0.482733 0 0 0 0.27 0"/>
<feBlend mode="normal" in2="BackgroundImageFix" result="effect1_dropShadow_1176_29170"/>
<feBlend mode="normal" in="SourceGraphic" in2="effect1_dropShadow_1176_29170" result="shape"/>
</filter>
<linearGradient id="paint0_linear_1176_29170" x1="122.425" y1="71.4866" x2="107.348" y2="71.5181" gradientUnits="userSpaceOnUse">
<stop stop-color="#606060"/>
<stop offset="1" stop-color="#7B7B7B"/>
</linearGradient>
<linearGradient id="paint1_linear_1176_29170" x1="127.401" y1="83.2054" x2="102.273" y2="83.3246" gradientUnits="userSpaceOnUse">
<stop stop-color="#606060"/>
<stop offset="1" stop-color="#7B7B7B"/>
</linearGradient>
</defs>
</svg>
