<svg width="28" height="28" viewBox="0 0 28 28" fill="none" xmlns="http://www.w3.org/2000/svg">
<path d="M2.00415 6.75C2.00415 5.23122 3.23537 4 4.75415 4H23.2508C24.7695 4 26.0008 5.23122 26.0008 6.75V11.2606C25.5896 11.0862 25.1502 10.9993 24.7108 11C24.6408 11.0001 24.5707 11.0025 24.5008 11.007V9.5H21V12V13.5L14.4903 19.8648C14.018 20.3371 13.6829 20.9288 13.5209 21.5768L13.0632 23.4075C13.0129 23.6088 12.9932 23.8075 13.0005 24.0001H4.75415C3.23537 24.0001 2.00415 22.7688 2.00415 21.2501V19.5H2V18H2.00415V14.5H2V13H2.00415V9.5H2V8H2.00415V6.75ZM3.50415 19.5V21.2501C3.50415 21.9404 4.0638 22.5001 4.75415 22.5001H7V19.5H3.50415ZM7 18V14.5H3.50415V18H7ZM7 9.5H3.50415V13H7V9.5ZM7 5.5H4.75415C4.0638 5.5 3.50415 6.05964 3.50415 6.75V8H7V5.5ZM23.2508 5.5H21V8H24.5008V6.75C24.5008 6.05965 23.9411 5.5 23.2508 5.5Z" fill="#212121"/>
<path d="M19.6484 24.0001H23.2508C24.7695 24.0001 26.0008 22.7688 26.0008 21.2501V17.6477L24.1485 19.5H24.5008V21.2501C24.5008 21.9404 23.9411 22.5001 23.2508 22.5001H21.1484L19.6484 24.0001Z" fill="#212121"/>
<path d="M15.1974 20.5719L23.0999 12.6695C23.9925 11.7768 25.4397 11.7768 26.3323 12.6695C27.2249 13.5621 27.2249 15.0093 26.3323 15.9019L18.4299 23.8043C18.0857 24.1485 17.6545 24.3926 17.1824 24.5106L15.3517 24.9683C14.5556 25.1674 13.8344 24.4462 14.0334 23.6501L14.4911 21.8194C14.6092 21.3472 14.8533 20.916 15.1974 20.5719Z" fill="#212121"/>
</svg>
