<svg width="20" height="20" viewBox="0 0 20 20" fill="none" xmlns="http://www.w3.org/2000/svg">
<path d="M4 4C2.89543 4 2 4.89543 2 6V14C2 15.1046 2.89543 16 4 16H9.00298C9.01027 15.8859 9.02808 15.7701 9.05728 15.6532L9.43176 14.1554C9.57229 13.5932 9.86295 13.0798 10.2727 12.6701L15.1021 7.84065C15.8862 7.05656 17.0111 6.82097 18 7.13388V6C18 4.89543 17.1046 4 16 4H4ZM3 6C3 5.44772 3.44772 5 4 5H5V7H3V6ZM5 15H4C3.44772 15 3 14.5523 3 14V13H5V15ZM5 12H3V10.5H5V12ZM5 9.5H3V8H5V9.5ZM17 6V7H15V5H16C16.5523 5 17 5.44772 17 6Z" fill="#212121"/>
<path d="M16 16H15.0609L16.0628 14.9981C16.5651 14.9669 16.9669 14.5651 16.9981 14.0628L18 13.0608V14C18 15.1046 17.1046 16 16 16Z" fill="#212121"/>
<path d="M15.8092 8.54776L10.9798 13.3772C10.6982 13.6588 10.4984 14.0116 10.4018 14.3979L10.0274 15.8958C9.86451 16.5472 10.4546 17.1372 11.106 16.9744L12.6039 16.5999C12.9902 16.5033 13.343 16.3036 13.6246 16.022L18.454 11.1926C19.1843 10.4622 19.1843 9.27811 18.454 8.54776C17.7237 7.81741 16.5395 7.81741 15.8092 8.54776Z" fill="#212121"/>
</svg>
