<svg width="48" height="48" viewBox="0 0 48 48" fill="none" xmlns="http://www.w3.org/2000/svg">
<path d="M4 12.25C4 9.90279 5.90279 8 8.25 8H39.75C42.0972 8 44 9.90279 44 12.25V18.0822C43.17 17.945 42.3167 17.9832 41.5 18.1968V17.5H36V22.5867L33.5 25.1258V10.5H14.5V37.5H23.518L23.13 38.9966C23.0419 39.3362 22.9996 39.6723 22.9981 40H8.25C5.90279 40 4 38.0972 4 35.75V12.25ZM8.25 10.5C7.2835 10.5 6.5 11.2835 6.5 12.25V15H12V10.5H8.25ZM6.5 25.5V31H12V25.5H6.5ZM6.5 23H12V17.5H6.5V23ZM6.5 35.75C6.5 36.7165 7.2835 37.5 8.25 37.5H12V33.5H6.5V35.75ZM41.5 15V12.25C41.5 11.2835 40.7165 10.5 39.75 10.5H36V15H41.5Z" fill="#212121"/>
<path d="M41.5 33.8721L44 31.4106V35.75C44 38.0972 42.0972 40 39.75 40H35.2764L37.8154 37.5H39.75C40.7165 37.5 41.5 36.7165 41.5 35.75V33.8721Z" fill="#212121"/>
<path d="M40.1823 21.1896C41.7334 19.6143 44.2708 19.6045 45.834 21.1677C47.3972 22.7309 47.3874 25.2683 45.8121 26.8194L32.0892 40.3311C31.7138 40.7007 31.2476 40.965 30.7376 41.0972L27.5033 41.9357C26.0273 42.3184 24.6833 40.9745 25.066 39.4985L25.9045 36.2641C26.0367 35.7541 26.3009 35.2879 26.6706 34.9125L40.1823 21.1896Z" fill="#212121"/>
</svg>
