<svg width="32" height="32" viewBox="0 0 32 32" fill="none" xmlns="http://www.w3.org/2000/svg">
<path d="M2 7.25C2 5.45508 3.45507 4 5.25 4H26.75C28.5449 4 30 5.45507 30 7.25V13.2193C29.3545 13.006 28.6685 12.9466 28 13.0418V11H24V15V15.817L16.941 22.9336C16.8063 23.0694 16.6816 23.2138 16.5676 23.3657C16.2426 23.7985 16.0042 24.2921 15.8675 24.8196L15.077 27.871C15.0658 27.9141 15.0558 27.9571 15.047 28H5.25C3.45507 28 2 26.5449 2 24.75V7.25ZM5.25 6C4.55964 6 4 6.55964 4 7.25V9H8V6H5.25ZM4 11V15H8V11H4ZM4 17V21H8V17H4ZM4 23V24.75C4 25.4404 4.55964 26 5.25 26H8V23H4ZM28 9V7.25C28 6.55964 27.4404 6 26.75 6H24V9H28Z" fill="#212121"/>
<path d="M24.1342 28H26.75C28.5449 28 30 26.5449 30 24.75V22.1819L28 24.1656V24.75C28 25.4404 27.4404 26 26.75 26H26.1506L24.1342 28Z" fill="#212121"/>
<path d="M22.0371 27.9672L30.6503 19.4241C31.7579 18.3254 31.7898 16.5447 30.7221 15.4071C29.6057 14.2175 27.725 14.1915 26.5761 15.3498L18.0059 23.9899C17.6746 24.3239 17.4378 24.74 17.3198 25.1954L16.5292 28.2469C16.3382 28.9843 17.0089 29.656 17.7466 29.4661L20.7673 28.6886C21.2471 28.5651 21.6854 28.3161 22.0371 27.9672Z" fill="#212121"/>
</svg>
