<svg width="24" height="24" viewBox="0 0 24 24" fill="none" xmlns="http://www.w3.org/2000/svg">
<path d="M19.75 4C20.9926 4 22 5.00736 22 6.25V9.26027C21.702 9.13395 21.3892 9.05361 21.0724 9.01925C20.8823 8.99864 20.6907 8.99458 20.5 9.00707V9H18V10.355L12.4903 15.8648C12.018 16.3371 11.6829 16.9288 11.5209 17.5768L11.0632 19.4075C11.0129 19.6088 10.9932 19.8075 11.0005 20H4.25C3.00736 20 2 18.9926 2 17.75V6.25C2 5.00736 3.00736 4 4.25 4H19.75ZM20.5 6.25C20.5 5.83579 20.1642 5.5 19.75 5.5H18V7.5H20.5V6.25ZM6 7.5V5.5H4.25C3.83579 5.5 3.5 5.83579 3.5 6.25V7.5H6ZM6 18.5V16.5H3.5V17.75C3.5 18.1642 3.83579 18.5 4.25 18.5H6ZM3.5 15H6V13H3.5V15ZM6 11.5V9H3.5V11.5H6Z" fill="#212121"/>
<path d="M17.6485 20H19.75C20.9926 20 22 18.9926 22 17.75V15.6485L20.5 17.1485V17.75C20.5 18.1642 20.1642 18.5 19.75 18.5H19.1485L17.6485 20Z" fill="#212121"/>
<path d="M13.1974 16.5719L19.0999 10.6695C19.9925 9.77685 21.4397 9.77685 22.3323 10.6695C23.2249 11.5621 23.2249 13.0093 22.3323 13.9019L16.4299 19.8043C16.0857 20.1485 15.6545 20.3926 15.1824 20.5106L13.3517 20.9683C12.5556 21.1674 11.8344 20.4462 12.0334 19.6501L12.4911 17.8194C12.6092 17.3472 12.8533 16.916 13.1974 16.5719Z" fill="#212121"/>
</svg>
