<svg width="20" height="20" viewBox="0 0 20 20" fill="none" xmlns="http://www.w3.org/2000/svg">
<path d="M2 6C2 4.89543 2.89543 4 4 4H16C17.1046 4 18 4.89543 18 6V7.13388C17.0111 6.82097 15.8862 7.05656 15.1021 7.84065L14 8.94278V5H6L6 15H9.22059L9.05728 15.6532C9.02808 15.7701 9.01027 15.8859 9.00298 16H4C2.89543 16 2 15.1046 2 14V6ZM4 5C3.44772 5 3 5.44772 3 6V7H5V5H4ZM3 14C3 14.5523 3.44772 15 4 15H5V13H3V14ZM5 12V10.5H3V12H5ZM5 9.5V8H3V9.5H5ZM17 7V6C17 5.44772 16.5523 5 16 5H15V7H17Z" fill="#212121"/>
<path d="M16.9981 14.0628L18 13.0608V14C18 15.1046 17.1046 16 16 16H15.0609L16.0628 14.9981C16.5651 14.9669 16.9669 14.5651 16.9981 14.0628Z" fill="#212121"/>
<path d="M15.8092 8.54776L10.9798 13.3772C10.6982 13.6588 10.4984 14.0116 10.4018 14.3979L10.0274 15.8958C9.86451 16.5472 10.4546 17.1372 11.106 16.9744L12.6039 16.5999C12.9902 16.5033 13.343 16.3036 13.6246 16.022L18.454 11.1926C19.1843 10.4622 19.1843 9.27811 18.454 8.54776C17.7237 7.81741 16.5395 7.81741 15.8092 8.54776Z" fill="#212121"/>
</svg>
