<svg width="24" height="24" viewBox="0 0 24 24" fill="none" xmlns="http://www.w3.org/2000/svg">
<path d="M22 6.25C22 5.00736 20.9926 4 19.75 4H4.25C3.00736 4 2 5.00736 2 6.25V17.75C2 18.9926 3.00736 20 4.25 20H11.0005C10.9932 19.8075 11.0129 19.6088 11.0632 19.4075L11.2901 18.5H7.5V5.5L16.5 5.5V11.855L18 10.355V9H20.5V9.00707C20.6988 8.99404 20.8986 8.99901 21.0967 9.02198C21.4052 9.05775 21.7097 9.13718 22 9.26027V6.25ZM19.75 5.5C20.1642 5.5 20.5 5.83579 20.5 6.25V7.5H18V5.5L19.75 5.5ZM3.5 6.25C3.5 5.83579 3.83579 5.5 4.25 5.5L6 5.5V7.5H3.5V6.25ZM6 16.5V18.5H4.25C3.83579 18.5 3.5 18.1642 3.5 17.75L3.5 16.5H6ZM3.5 13H6V15H3.5L3.5 13ZM6 9V11.5H3.5L3.5 9H6Z" fill="#212121"/>
<path d="M22 15.6485L20.5 17.1485V17.75C20.5 18.1642 20.1642 18.5 19.75 18.5H19.1485L17.6485 20H19.75C20.9926 20 22 18.9926 22 17.75V15.6485Z" fill="#212121"/>
<path d="M13.1974 16.5719L19.0999 10.6695C19.9925 9.77685 21.4397 9.77685 22.3323 10.6695C23.2249 11.5621 23.2249 13.0093 22.3323 13.9019L16.4299 19.8043C16.0857 20.1485 15.6545 20.3926 15.1824 20.5106L13.3517 20.9683C12.5556 21.1674 11.8344 20.4462 12.0334 19.6501L12.4911 17.8194C12.6092 17.3472 12.8533 16.916 13.1974 16.5719Z" fill="#212121"/>
</svg>
