<svg width="28" height="28" viewBox="0 0 28 28" fill="none" xmlns="http://www.w3.org/2000/svg">
<path d="M14 3.5C8.20101 3.5 3.5 8.20101 3.5 14C3.5 19.5367 7.78533 24.0725 13.2201 24.4715C12.999 24.9659 12.9524 25.4822 13.045 25.9626C6.86404 25.4759 2 20.306 2 14C2 7.37258 7.37258 2 14 2C20.6274 2 26 7.37258 26 14C26 15.7312 25.6334 17.3768 24.9736 18.8634L24.0558 17.0312C24.3447 16.0715 24.5 15.0539 24.5 14C24.5 8.20101 19.799 3.5 14 3.5Z" fill="#212121"/>
<path d="M18.5 14.0059C18.882 13.4843 19.4233 13.1656 20 13.0497V9.75C20 9.33579 19.6642 9 19.25 9C18.8358 9 18.5 9.33579 18.5 9.75V14.0059Z" fill="#212121"/>
<path d="M12.25 9C12.6642 9 13 9.33579 13 9.75V18.25C13 18.6642 12.6642 19 12.25 19C11.8358 19 11.5 18.6642 11.5 18.25V9.75C11.5 9.33579 11.8358 9 12.25 9Z" fill="#212121"/>
<path d="M9.5 12.25C9.5 11.8358 9.16421 11.5 8.75 11.5C8.33579 11.5 8 11.8358 8 12.25V15.75C8 16.1642 8.33579 16.5 8.75 16.5C9.16421 16.5 9.5 16.1642 9.5 15.75V12.25Z" fill="#212121"/>
<path d="M15.75 11C16.1642 11 16.5 11.3358 16.5 11.75V16.25C16.5 16.6642 16.1642 17 15.75 17C15.3358 17 15 16.6642 15 16.25V11.75C15 11.3358 15.3358 11 15.75 11Z" fill="#212121"/>
<path d="M19.1638 14.8279L14.1617 24.8195C13.6609 25.8199 14.3841 27 15.4979 27H25.5021C26.6159 27 27.3391 25.8199 26.8383 24.8195L21.8362 14.8279C21.2836 13.724 19.7164 13.724 19.1638 14.8279ZM21 17.5V22.5C21 22.7761 20.7761 23 20.5 23C20.2239 23 20 22.7761 20 22.5V17.5C20 17.2239 20.2239 17 20.5 17C20.7761 17 21 17.2239 21 17.5ZM20.5 25C20.2239 25 20 24.7761 20 24.5C20 24.2239 20.2239 24 20.5 24C20.7761 24 21 24.2239 21 24.5C21 24.7761 20.7761 25 20.5 25Z" fill="#212121"/>
</svg>
