<svg width="32" height="32" viewBox="0 0 32 32" fill="none" xmlns="http://www.w3.org/2000/svg">
<path d="M16 2C8.26801 2 2 8.26801 2 16C2 23.1552 7.36768 29.0566 14.296 29.8973C13.8914 28.9739 13.8768 27.8715 14.4139 26.8593L18.3535 19.4357C18.2436 19.4773 18.1245 19.5 18 19.5C17.4477 19.5 17 19.0523 17 18.5V13.5C17 12.9477 17.4477 12.5 18 12.5C18.5523 12.5 19 12.9477 19 13.5V18.2176L20.4119 15.5571C20.681 15.05 21.0619 14.6668 21.5 14.4075V11C21.5 10.4477 21.9477 10 22.5 10C23.0523 10 23.5 10.4477 23.5 11V14.0426C24.3408 14.1851 25.1279 14.6899 25.5881 15.5571L28.8169 21.6413C29.5776 19.9156 30 18.0071 30 16C30 8.26801 23.732 2 16 2ZM13.5 10C14.0523 10 14.5 10.4477 14.5 11V21C14.5 21.5523 14.0523 22 13.5 22C12.9477 22 12.5 21.5523 12.5 21V11C12.5 10.4477 12.9477 10 13.5 10ZM10 18C10 18.5523 9.55228 19 9 19C8.44772 19 8 18.5523 8 18V14C8 13.4477 8.44772 13 9 13C9.55228 13 10 13.4477 10 14V18Z" fill="#212121"/>
<path d="M21.7368 16.2602L15.7389 27.5625C15.032 28.8945 15.9975 30.5 17.5055 30.5H28.4944C30.0025 30.5 30.968 28.8945 30.2611 27.5625L24.2631 16.2602C23.7256 15.2473 22.2744 15.2473 21.7368 16.2602ZM23.75 19.75V25.25C23.75 25.6642 23.4142 26 23 26C22.5858 26 22.25 25.6642 22.25 25.25V19.75C22.25 19.3358 22.5858 19 23 19C23.4142 19 23.75 19.3358 23.75 19.75ZM24 28C24 28.5523 23.5523 29 23 29C22.4477 29 22 28.5523 22 28C22 27.4477 22.4477 27 23 27C23.5523 27 24 27.4477 24 28Z" fill="#212121"/>
</svg>
