<svg width="24" height="24" viewBox="0 0 24 24" fill="none" xmlns="http://www.w3.org/2000/svg">
<path d="M11 8.75C11 8.33579 10.6642 8 10.25 8C9.83579 8 9.5 8.33579 9.5 8.75V15.25C9.5 15.6642 9.83579 16 10.25 16C10.6642 16 11 15.6642 11 15.25V8.75Z" fill="#212121"/>
<path d="M17 8.75C17 8.33579 16.6642 8 16.25 8C15.8358 8 15.5 8.33579 15.5 8.75V12.0001C15.8825 11.4823 16.4235 11.1656 17 11.0499V8.75Z" fill="#212121"/>
<path d="M3.5 12C3.5 16.4348 6.89624 20.0763 11.2297 20.4656C11.0047 20.9591 10.9554 21.4749 11.0461 21.9551C5.97068 21.4748 2 17.2011 2 12C2 6.47715 6.47715 2 12 2C17.5228 2 22 6.47715 22 12C22 13.2626 21.766 14.4705 21.3391 15.5827L20.3493 13.6017C20.4482 13.0829 20.5 12.5475 20.5 12C20.5 7.30558 16.6944 3.5 12 3.5C7.30558 3.5 3.5 7.30558 3.5 12Z" fill="#212121"/>
<path d="M14 10.25C14 9.83579 13.6642 9.5 13.25 9.5C12.8358 9.5 12.5 9.83579 12.5 10.25V13.75C12.5 14.1642 12.8358 14.5 13.25 14.5C13.6642 14.5 14 14.1642 14 13.75V10.25Z" fill="#212121"/>
<path d="M8 10.75C8 10.3358 7.66421 10 7.25 10C6.83579 10 6.5 10.3358 6.5 10.75V13.25C6.5 13.6642 6.83579 14 7.25 14C7.66421 14 8 13.6642 8 13.25V10.75Z" fill="#212121"/>
<path d="M16.1614 12.8301L12.1645 20.8284C11.6658 21.8262 12.3916 23 13.5074 23H21.5012C22.6169 23 23.3427 21.8263 22.8441 20.8284L18.8472 12.8301C18.2941 11.7233 16.7145 11.7233 16.1614 12.8301ZM18.0047 15.4956V18.4974C18.0047 18.7737 17.7806 18.9976 17.5043 18.9976C17.2279 18.9976 17.0039 18.7737 17.0039 18.4974V15.4956C17.0039 15.2193 17.2279 14.9954 17.5043 14.9954C17.7806 14.9954 18.0047 15.2193 18.0047 15.4956ZM17.5043 20.9988C17.2279 20.9988 17.0039 20.7748 17.0039 20.4985C17.0039 20.2222 17.2279 19.9982 17.5043 19.9982C17.7806 19.9982 18.0047 20.2222 18.0047 20.4985C18.0047 20.7748 17.7806 20.9988 17.5043 20.9988Z" fill="#212121"/>
</svg>
