<svg width="32" height="32" viewBox="0 0 32 32" fill="none" xmlns="http://www.w3.org/2000/svg">
<path d="M16 4C9.37258 4 4 9.37258 4 16C4 21.9681 8.35686 26.9187 14.0635 27.8446C13.9256 28.5551 14.0202 29.2678 14.296 29.8973C7.36768 29.0566 2 23.1552 2 16C2 8.26801 8.26801 2 16 2C23.732 2 30 8.26801 30 16C30 18.0071 29.5776 19.9156 28.8169 21.6413L27.5523 19.2584C27.844 18.2223 28 17.1294 28 16C28 9.37258 22.6274 4 16 4Z" fill="#212121"/>
<path d="M18.3535 19.4357L19 18.2176V13.5C19 12.9477 18.5523 12.5 18 12.5C17.4477 12.5 17 12.9477 17 13.5V18.5C17 19.0523 17.4477 19.5 18 19.5C18.1245 19.5 18.2436 19.4773 18.3535 19.4357Z" fill="#212121"/>
<path d="M21.5 14.4075C22.1056 14.0491 22.8203 13.9275 23.5 14.0426V11C23.5 10.4477 23.0523 10 22.5 10C21.9477 10 21.5 10.4477 21.5 11V14.4075Z" fill="#212121"/>
<path d="M13.5 10C14.0523 10 14.5 10.4477 14.5 11V21C14.5 21.5523 14.0523 22 13.5 22C12.9477 22 12.5 21.5523 12.5 21V11C12.5 10.4477 12.9477 10 13.5 10Z" fill="#212121"/>
<path d="M10 14C10 13.4477 9.55228 13 9 13C8.44772 13 8 13.4477 8 14V18C8 18.5523 8.44772 19 9 19C9.55228 19 10 18.5523 10 18V14Z" fill="#212121"/>
<path d="M21.7368 16.2602L15.7389 27.5625C15.032 28.8945 15.9975 30.5 17.5055 30.5H28.4944C30.0025 30.5 30.968 28.8945 30.2611 27.5625L24.2631 16.2602C23.7256 15.2473 22.2744 15.2473 21.7368 16.2602ZM23.75 19.75V25.25C23.75 25.6642 23.4142 26 23 26C22.5858 26 22.25 25.6642 22.25 25.25V19.75C22.25 19.3358 22.5858 19 23 19C23.4142 19 23.75 19.3358 23.75 19.75ZM24 28C24 28.5523 23.5523 29 23 29C22.4477 29 22 28.5523 22 28C22 27.4477 22.4477 27 23 27C23.5523 27 24 27.4477 24 28Z" fill="#212121"/>
</svg>
