<svg width="48" height="48" viewBox="0 0 48 48" fill="none" xmlns="http://www.w3.org/2000/svg">
<path d="M44 24C44 26.6598 43.4808 29.1983 42.5382 31.5198L39.0211 24.4873C38.0173 22.4803 35.8906 21.6879 34 22.1101V17.25C34 16.5596 33.4404 16 32.75 16C32.0596 16 31.5 16.5596 31.5 17.25V23.6684C31.3042 23.9142 31.129 24.1872 30.9789 24.4873L22.4822 41.4765C22.0838 42.2732 21.9451 43.1075 22.0191 43.9031C11.9033 42.9085 4 34.3772 4 24C4 12.9543 12.9543 4 24 4C35.0457 4 44 12.9543 44 24ZM20.75 16C20.0596 16 19.5 16.5596 19.5 17.25V30.75C19.5 31.4404 20.0596 32 20.75 32C21.4404 32 22 31.4404 22 30.75V17.25C22 16.5596 21.4404 16 20.75 16ZM14.75 20C14.0596 20 13.5 20.5596 13.5 21.25V26.75C13.5 27.4404 14.0596 28 14.75 28C15.4404 28 16 27.4404 16 26.75V21.25C16 20.5596 15.4404 20 14.75 20ZM28 20.25C28 19.5596 27.4404 19 26.75 19C26.0596 19 25.5 19.5596 25.5 20.25V27.75C25.5 28.4404 26.0596 29 26.75 29C27.4404 29 28 28.4404 28 27.75V20.25Z" fill="#212121"/>
<path d="M43.4933 46H26.4977C24.6391 46 23.4309 44.0398 24.2634 42.375L32.7612 25.3821C33.6828 23.5393 36.3082 23.5393 37.2297 25.3821L45.7275 42.375C46.56 44.0398 45.3518 46 43.4933 46ZM36 31C36 30.4477 35.5523 30 35 30C34.4477 30 34 30.4477 34 31V37C34 37.5523 34.4477 38 35 38C35.5523 38 36 37.5523 36 37V31ZM35 42.25C35.6904 42.25 36.25 41.6904 36.25 41C36.25 40.3096 35.6904 39.75 35 39.75C34.3096 39.75 33.75 40.3096 33.75 41C33.75 41.6904 34.3096 42.25 35 42.25Z" fill="#212121"/>
</svg>
