<svg width="24" height="24" viewBox="0 0 24 24" fill="none" xmlns="http://www.w3.org/2000/svg">
<path d="M12 2C6.47715 2 2 6.47715 2 12C2 17.2011 5.97068 21.4748 11.0461 21.9551C10.9502 21.4474 11.0108 20.8999 11.2701 20.3809L15.2658 12.3833C15.3347 12.2453 15.4133 12.1175 15.5 12.0001V8.75C15.5 8.33579 15.8358 8 16.25 8C16.6642 8 17 8.33579 17 8.75V11.0499C18.0387 10.8415 19.1924 11.286 19.7407 12.3833L21.3391 15.5827C21.766 14.4705 22 13.2626 22 12C22 6.47715 17.5228 2 12 2ZM11 15.25C11 15.6642 10.6642 16 10.25 16C9.83579 16 9.5 15.6642 9.5 15.25V8.75C9.5 8.33579 9.83579 8 10.25 8C10.6642 8 11 8.33579 11 8.75V15.25ZM14 13.75C14 14.1642 13.6642 14.5 13.25 14.5C12.8358 14.5 12.5 14.1642 12.5 13.75V10.25C12.5 9.83579 12.8358 9.5 13.25 9.5C13.6642 9.5 14 9.83579 14 10.25V13.75ZM8 13.25C8 13.6642 7.66421 14 7.25 14C6.83579 14 6.5 13.6642 6.5 13.25V10.75C6.5 10.3358 6.83579 10 7.25 10C7.66421 10 8 10.3358 8 10.75V13.25Z" fill="#212121"/>
<path d="M16.1614 12.8301L12.1645 20.8284C11.6658 21.8262 12.3916 23 13.5074 23H21.5012C22.6169 23 23.3427 21.8263 22.8441 20.8284L18.8472 12.8301C18.2941 11.7233 16.7145 11.7233 16.1614 12.8301ZM18.0047 15.4956V18.4974C18.0047 18.7737 17.7806 18.9976 17.5043 18.9976C17.2279 18.9976 17.0039 18.7737 17.0039 18.4974V15.4956C17.0039 15.2193 17.2279 14.9954 17.5043 14.9954C17.7806 14.9954 18.0047 15.2193 18.0047 15.4956ZM17.5043 20.9988C17.2279 20.9988 17.0039 20.7748 17.0039 20.4985C17.0039 20.2222 17.2279 19.9982 17.5043 19.9982C17.7806 19.9982 18.0047 20.2222 18.0047 20.4985C18.0047 20.7748 17.7806 20.9988 17.5043 20.9988Z" fill="#212121"/>
</svg>
