<svg width="20" height="20" viewBox="0 0 20 20" fill="none" xmlns="http://www.w3.org/2000/svg">
<path d="M18 10C18 10.9228 17.8438 11.809 17.5563 12.6338L16.2928 10.1063C15.8362 9.19306 14.8557 8.84526 14 9.06276V7.5C14 7.22386 13.7761 7 13.5 7C13.2239 7 13 7.22386 13 7.5V9.67615C12.8904 9.80214 12.7935 9.94575 12.713 10.107L9.21824 17.1044C9.08168 17.3779 9.01404 17.6612 9.00566 17.9388C5.05661 17.4492 2 14.0816 2 10C2 5.58172 5.58172 2 10 2C14.4183 2 18 5.58172 18 10ZM6 8.5C5.72386 8.5 5.5 8.72386 5.5 9V11C5.5 11.2761 5.72386 11.5 6 11.5C6.27614 11.5 6.5 11.2761 6.5 11V9C6.5 8.72386 6.27614 8.5 6 8.5ZM11.5 8.5C11.5 8.22386 11.2761 8 11 8C10.7239 8 10.5 8.22386 10.5 8.5V11.5C10.5 11.7761 10.7239 12 11 12C11.2761 12 11.5 11.7761 11.5 11.5V8.5ZM8.5 7C8.22386 7 8 7.22386 8 7.5V12.5C8 12.7761 8.22386 13 8.5 13C8.77614 13 9 12.7761 9 12.5V7.5C9 7.22386 8.77614 7 8.5 7Z" fill="#212121"/>
<path d="M13.6029 10.5536L10.1068 17.552C9.77438 18.2174 10.2583 19 11.0022 19H17.9978C18.7419 19 19.2258 18.2171 18.893 17.5517L15.3935 10.5532C15.0246 9.81544 13.9716 9.81564 13.6029 10.5536ZM14.9983 12.4951V15.4974C14.9983 15.7738 14.7743 15.9978 14.4979 15.9978C14.2215 15.9978 13.9975 15.7738 13.9975 15.4974V12.4951C13.9975 12.2187 14.2215 11.9947 14.4979 11.9947C14.7743 11.9947 14.9983 12.2187 14.9983 12.4951ZM14.4979 17.9993C14.2215 17.9993 13.9975 17.7753 13.9975 17.499C13.9975 17.2226 14.2215 16.9986 14.4979 16.9986C14.7743 16.9986 14.9983 17.2226 14.9983 17.499C14.9983 17.7753 14.7743 17.9993 14.4979 17.9993Z" fill="#212121"/>
</svg>
