<svg width="48" height="48" viewBox="0 0 48 48" fill="none" xmlns="http://www.w3.org/2000/svg">
<path d="M19.6875 22.0625L20.4375 20.125C20.625 19.75 20.8125 19.375 21 19.0625H17.5H14.5H7V12C7 11.3759 7.30239 11 8.47789 11H14.5H17.5H23.5C24.5 11 25 11.5334 25 12V16.25C25.4375 16.125 25.9375 16.0625 26.4375 16.0625L28 16V11C28 9.48652 27.0018 8 25 8L6.99999 8C4.5416 8 4 9.70749 4 11V28.5625C4 30.5 5.5625 32.0625 7.5 32.0625H8V34.0625C8 35.125 8.875 36 10 36C11.0625 36 12 35.125 12 34.0625V32.0625H16V30.0625C16 29.75 16 29.375 16.0625 29.0625C16.1125 27.1828 17.466 26.1126 18.1365 25.8125L19.6875 22.0625ZM10.5 27C9.625 27 9 26.375 9 25.5C9 24.6875 9.625 24.0625 10.5 24.0625C11.3125 24.0625 12 24.6875 12 25.5C12 26.375 11.3125 27 10.5 27Z" fill="#212121"/>
<path d="M41.625 25.8125L39.625 20.8125C38.9375 19.125 37.3125 18 35.5 18H26.4375C24.625 18 23 19.125 22.3125 20.8125L20.3125 25.8125C18.875 26.875 18 28.625 18 30.5V38C18 39.125 18.875 40 20 40C21.0625 40 22 39.125 22 38V36H40V38C40 39.125 40.875 40 42 40C43.0625 40 44 39.125 44 38V30.5C44 28.625 43.0625 26.875 41.625 25.8125ZM25.0625 21.9375C25.3125 21.375 25.875 21 26.4375 21H35.5C36.0625 21 36.625 21.375 36.875 21.9375L38 25H24L25.0625 21.9375ZM25 29C25.8125 29 26.5 29.6875 26.5 30.5C26.5 31.375 25.8125 32 25 32C24.125 32 23.5 31.375 23.5 30.5C23.5 29.6875 24.125 29 25 29ZM35.5 30.5C35.5 29.6875 36.125 29 37 29C37.8125 29 38.5 29.6875 38.5 30.5C38.5 31.375 37.8125 32 37 32C36.125 32 35.5 31.375 35.5 30.5Z" fill="#212121"/>
</svg>
