<svg width="32" height="32" viewBox="0 0 32 32" fill="none" xmlns="http://www.w3.org/2000/svg">
<path d="M26.9375 13.8086L28 17.0313C29.0063 17.7617 30 19.1797 30 20.4688V25.625C30 26.3984 29.7437 27 29 27C28.2125 27 28 26.2734 28 25.5V24H14V25.875C14 26.6484 13.9438 27 13.2 27C12.4125 27 12 26.7734 12 26V20C12 18.7109 12.9937 17.7617 14 17.0313L14.8188 13.8086C15.3 12.6484 16.4813 12 17.75 12H24.0938C25.3625 12 26.4563 12.6484 26.9375 13.8086ZM17.7063 13.9375C17.3125 13.9375 16.9188 14.1953 16.7438 14.582L16 17.0313H25.8L25.0125 14.582C24.8375 14.1953 24.4438 13.9375 24.05 13.9375H17.7063ZM13.9 22.1875H27.9V20.4688C27.9 19.3516 26.9375 18.4063 25.8 18.4063H16C14.8188 18.4063 13.9 19.3516 13.9 20.4688V22.1875ZM15.65 20.4688C15.65 19.9102 16.0875 19.4375 16.7 19.4375C17.2688 19.4375 17.75 19.9102 17.75 20.4688C17.75 21.0703 17.2688 21.5 16.7 21.5C16.0875 21.5 15.65 21.0703 15.65 20.4688ZM24.05 20.4688C24.05 19.9102 24.4875 19.4375 25.1 19.4375C25.6688 19.4375 26.15 19.9102 26.15 20.4688C26.15 21.0703 25.6688 21.5 25.1 21.5C24.4875 21.5 24.05 21.0703 24.05 20.4688ZM6.55 18.0625C5.9375 18.0625 5.5 17.6328 5.5 17.0313C5.5 16.4727 5.9375 16.043 6.55 16.043C7.11875 16.043 7.6 16.4727 7.6 17.0313C7.6 17.6328 7.11875 18.0625 6.55 18.0625Z" fill="#212121"/>
<path d="M4 15V19.1367C4 19.3086 4.63125 20 4.85 20H10.0438C10 20.2148 10 20.4727 10 20.6875V22.0625H7V23.4375C7 24.168 6.74375 24.5 6 24.5C5.2125 24.5 5 24.168 5 23.4375V22.0625H4.5C3.14375 22.0625 2 20.4688 2 19.1367V7.0625C2 6.1739 2.37912 5 4.09999 5C5.82086 5 16.9 5 16.9 5C18.3013 5 19 6.02198 19 7.0625V9.82813L17.9062 9.8711C17.5563 9.8711 17.4 10.0391 17.05 10V7.75C17.05 7.42921 16.7 7.0625 16 7.0625L5.13453 7.0625C4.31167 7.0625 4 8.07095 4 8.5V13H9.25H11.35H13.8C13.6688 13.2148 13.6375 13.4102 13.5063 13.668L12.9812 15H4Z" fill="#212121"/>
</svg>
