<svg width="16" height="16" viewBox="0 0 16 16" fill="none" xmlns="http://www.w3.org/2000/svg">
<path d="M14.1687 9.12305L13.4687 7.4043C13.2281 6.82422 12.5467 6.07227 11.9123 6.07227H9.05C8.41562 6.07227 7.95957 6.82422 7.71894 7.4043L7.01894 9.12305C6.51582 9.48828 6 10.0898 6 10.7344V13.5769C6 13.8492 6.24687 14 6.5 14C6.75313 14 7.01894 13.793 7.01894 13.5769L7 13H14V13.5769C14 13.8281 14.1688 14 14.5625 14C14.9344 14 15 13.8248 15 13.5769V10.7344C15 10.0898 14.6719 9.48828 14.1687 9.12305ZM9.00625 7H11.8686C12.0654 7 12.375 7.49414 12.4625 7.6875L13 9.01563H7.95625L8.63769 7.6875C8.72519 7.49414 8.80937 7 9.00625 7ZM7.95625 10.5C7.95625 10.2207 8.175 9.98438 8.48125 9.98438C8.76562 9.98438 9.00625 10.2207 9.00625 10.5C9.00625 10.8008 8.76562 11.0156 8.48125 11.0156C8.175 11.0156 7.95625 10.8008 7.95625 10.5ZM12.025 10.5C12.025 10.2207 12.2437 9.98438 12.55 9.98438C12.8344 9.98438 13.075 10.2207 13.075 10.5C13.075 10.8008 12.8344 11.0156 12.55 11.0156C12.2437 11.0156 12.025 10.8008 12.025 10.5Z" fill="#212121"/>
<path d="M6 8L6.08751 7.36523C6.15313 7.23633 6.21876 7.10742 6.28438 7H2.05L2.05 4.39691C2.05 4.18239 2.15583 4.05316 2.56726 4.05316H7.51875C7.86875 4.05316 8.04375 4.23652 8.04375 4.39691V5.08594C8.19687 5.04297 8.28437 5.02148 8.45937 5.02148L9.00625 5V4.23826C9.00625 3.718 8.65689 3 7.95625 3L2.05 3C1.18956 3 1 3.58695 1 4.03125V10.8106C1 11.4766 1.54687 12 2.22499 12H3V12.6493C3 12.8632 3.17368 13 3.5 13C3.82632 13 4 12.912 4 12.6493V12H5.19999L5.2 11.3262C5.2 11.2188 5.2 11.5774 5.22188 10.9825C5.22188 9.52093 5.74063 9.05185 6 9V8ZM3.27499 9.53125C2.96874 9.53125 2.74999 9.31641 2.74999 9.01563C2.74999 8.73633 2.96874 8.52149 3.27499 8.52149C3.55937 8.52149 3.79999 8.73633 3.79999 9.01563C3.79999 9.31641 3.55937 9.53125 3.27499 9.53125Z" fill="#212121"/>
</svg>
