<svg width="28" height="28" viewBox="0 0 28 28" fill="none" xmlns="http://www.w3.org/2000/svg">
<path d="M23.375 12.6074L24.575 15.5762C25.4375 16.207 26 17.2461 26 18.3594V22.8125C26 23.4805 25.4375 24 24.8 24C24.125 24 23.6 23.4805 23.6 22.8125L23.6125 21.5H13L12.9875 22.8125C12.9875 23.4805 12.8375 24 12.2 24C11.525 24 11 23.4805 11 22.8125V18.3594C11 17.2461 11.525 16.207 12.3875 15.5762L12.9875 12.6074C13.4 11.6055 14.375 10.9375 15.4625 10.9375H20.9C21.9875 10.9375 22.9625 11.6055 23.375 12.6074ZM16 12.5C15.5 12.5 14.7875 12.9414 14.6375 13.2754L14 15H22.5L21.725 13.2754C21.575 12.9414 21 12.5 20.5 12.5H16ZM12.5 20H24.575V18.3594C24.575 17.3945 23.4125 16.5 22.4375 16.5H14.6375C13.625 16.5 12.5 17.3945 12.5 18.3594V20ZM14.3 18.3594C14.3 17.877 14.675 17.4688 15.2 17.4688C15.6875 17.4688 16.1 17.877 16.1 18.3594C16.1 18.8789 15.6875 19.25 15.2 19.25C14.675 19.25 14.3 18.8789 14.3 18.3594ZM20.9 18.3594C20.9 17.877 21.275 17.4688 21.8 17.4688C22.2875 17.4688 22.7 17.877 22.7 18.3594C22.7 18.8789 22.2875 19.25 21.8 19.25C21.275 19.25 20.9 18.8789 20.9 18.3594ZM5.9 16.2813C5.375 16.2813 5 15.9102 5 15.3906C5 14.9082 5.375 14.5371 5.9 14.5371C6.3875 14.5371 6.8 14.9082 6.8 15.3906C6.8 15.9102 6.3875 16.2813 5.9 16.2813Z" fill="#212121"/>
<path d="M3.5 13.5V17C3.5 17.1484 3.9125 17.5059 4.1 17.5059L9 17.4688C8.87878 17.4688 9.10208 18.5404 9 19H7V20.4746C7 21.1055 6.5375 21.625 5.9 21.625C5.225 21.625 5 21.1055 5 20.4746V19H3.5C2.3375 19 2 18.3594 2 17.209V6.78125C2 6.01382 2.32496 5 3.79999 5C5.27503 5 14.6 5 14.6 5C15.8011 5 16 6.10137 16 7V9.89844H14.6V7.375C14.6 7.09795 14.3 6.5 13.7 6.5H4.68674C3.98143 6.5 3.5 7.00446 3.5 7.375V12H8.3H10.1H12.2C12.0875 12.1855 11.975 11.9766 11.8625 12.1992L11 13.5H3.5Z" fill="#212121"/>
</svg>
