<svg width="48" height="48" viewBox="0 0 48 48" fill="none" xmlns="http://www.w3.org/2000/svg">
<path d="M39.625 21.4121L41.625 26.2559C43.0625 27.2852 44 28.9805 44 30.7969V38.0625C44 39.1524 43.0625 40 42 40C40.875 40 40 39.1524 40 38.0625V36.125H22V38.0625C22 39.1524 21.0625 40 20 40C18.875 40 18 39.1524 18 38.0625V30.7969C18 28.9805 18.875 27.2852 20.3125 26.2559L22.3125 21.4121C23 19.7773 24.625 19 26.4375 19H35.5C37.3125 19 38.9375 19.7773 39.625 21.4121ZM26.4375 21.5937C25.875 21.5937 25.3125 21.957 25.0625 22.502L24.0625 24.9844H37.875L36.875 22.502C36.625 21.957 36.0625 21.5937 35.5 21.5937H26.4375ZM20.4375 33.5H41.625V30.7969C41.625 29.2227 39.625 27.5 38 27.5H24C22.3125 27.5 20.4375 29.2227 20.4375 30.7969V33.5ZM23.5 30.7969C23.5 30.0098 24.125 29.3438 25 29.3438C25.8125 29.3438 26.5 30.0098 26.5 30.7969C26.5 31.6445 25.8125 32.25 25 32.25C24.125 32.25 23.5 31.6445 23.5 30.7969ZM35.5 30.7969C35.5 30.0098 36.125 29.3438 37 29.3438C37.8125 29.3438 38.5 30.0098 38.5 30.7969C38.5 31.6445 37.8125 32.25 37 32.25C36.125 32.25 35.5 31.6445 35.5 30.7969ZM10.5 27.4063C9.625 27.4063 9 26.8008 9 25.9531C9 25.166 9.625 24.5606 10.5 24.5606C11.3125 24.5606 12 25.166 12 25.9531C12 26.8008 11.3125 27.4063 10.5 27.4063Z" fill="#212121"/>
<path d="M6.5 22.5V28.9199C6.5 29.1621 7.1875 29.4043 7.5 29.4043L16.0625 29.5C16 29.8027 16 30.0703 16 30.3731V32H12V34.2481C12 35.2774 11.0625 36.125 10 36.125C8.875 36.125 8 35.2774 8 34.2481V32H7.5C5.5625 32 4 30.7969 4 28.9199V11.9062C4 10.6541 4.5416 9 6.99999 9C9.45838 9 25 9 25 9C27.0018 9 28 10.4401 28 11.9062V16.75L26.4375 16.8105C25.9375 16.8105 25.9375 16.8711 25.5 16.9922V13.5C25.5 13.048 24.5 11.5 23.5 11.5H8.47789C7.30239 11.5 6.5 12.8954 6.5 13.5V20H21C20.8125 20.3027 20.625 20.3828 20.4375 20.7461L19.6875 22.5H6.5Z" fill="#212121"/>
</svg>
