<svg width="28" height="28" viewBox="0 0 28 28" fill="none" xmlns="http://www.w3.org/2000/svg">
<path d="M11.4125 13.3496L11.8625 12.1992C11.975 11.9766 12.0875 11.7539 12.2 11.5684H10.1H8.3H3.8V7.375C3.8 7.00446 3.98143 6.78125 4.68674 6.78125H8.3H10.1H13.7C14.3 6.78125 14.6 7.09795 14.6 7.375V9.89844C14.8625 9.82422 15.1625 9.78711 15.4625 9.78711L16.4 9.75V6.78125C16.4 5.88262 15.8011 5 14.6 5L3.79999 5C2.32496 5 2 6.01382 2 6.78125V17.209C2 18.3594 2.9375 19.2871 4.1 19.2871H4.4V20.4746C4.4 21.1055 4.925 21.625 5.6 21.625C6.2375 21.625 6.8 21.1055 6.8 20.4746V19.2871H9.2V18.0996C9.2 17.9141 9.2 17.6914 9.2375 17.5059C9.2675 16.3898 10.0796 15.7544 10.4819 15.5762L11.4125 13.3496ZM5.9 16.2813C5.375 16.2813 5 15.9102 5 15.3906C5 14.9082 5.375 14.5371 5.9 14.5371C6.3875 14.5371 6.8 14.9082 6.8 15.3906C6.8 15.9102 6.3875 16.2813 5.9 16.2813Z" fill="#212121"/>
<path d="M24.575 15.5762L23.375 12.6074C22.9625 11.6055 21.9875 10.9375 20.9 10.9375H15.4625C14.375 10.9375 13.4 11.6055 12.9875 12.6074L11.7875 15.5762C10.925 16.207 10.4 17.2461 10.4 18.3594V22.8125C10.4 23.4805 10.925 24 11.6 24C12.2375 24 12.8 23.4805 12.8 22.8125V21.625H23.6V22.8125C23.6 23.4805 24.125 24 24.8 24C25.4375 24 26 23.4805 26 22.8125V18.3594C26 17.2461 25.4375 16.207 24.575 15.5762ZM14.6375 13.2754C14.7875 12.9414 15.125 12.7187 15.4625 12.7187H20.9C21.2375 12.7187 21.575 12.9414 21.725 13.2754L22.325 14.7969H14.0375L14.6375 13.2754ZM14.6 17.4688C15.0875 17.4688 15.5 17.877 15.5 18.3594C15.5 18.8789 15.0875 19.25 14.6 19.25C14.075 19.25 13.7 18.8789 13.7 18.3594C13.7 17.877 14.075 17.4688 14.6 17.4688ZM20.9 18.3594C20.9 17.877 21.275 17.4688 21.8 17.4688C22.2875 17.4688 22.7 17.877 22.7 18.3594C22.7 18.8789 22.2875 19.25 21.8 19.25C21.275 19.25 20.9 18.8789 20.9 18.3594Z" fill="#212121"/>
</svg>
