<svg width="20" height="20" viewBox="0 0 20 20" fill="none" xmlns="http://www.w3.org/2000/svg">
<path d="M8.275 9.5L8.575 8.92578C8.65 8.77344 8.725 8.62109 8.8 8.49414H3V5.40625C3 5.15272 3.12095 5 3.59116 5H9.4C9.8 5 10 5.21669 10 5.40625V7C10.175 6.94922 10.175 6.92383 10.375 6.92383L11 6.89844V5.21875C11 4.6039 10.6007 4 9.8 4L3.19999 4C2.21664 4 2 4.69367 2 5.21875V12.7969C2 13.584 2.625 14 3.4 14H4V15.0312C4 15.284 4.12707 15.5 4.5 15.5C4.87293 15.5 5 15.3417 5 15.0312V14H6.8V13.4062C6.8 13.2793 6.8 13.127 6.825 13C6.845 12.2 7.28333 11.4909 7.5 11.2363L8.275 9.5ZM4.59999 11.7188C4.24999 11.7188 3.99999 11.4648 3.99999 11.1094C3.99999 10.7793 4.24999 10.5254 4.59999 10.5254C4.92499 10.5254 5.19999 10.7793 5.19999 11.1094C5.19999 11.4648 4.92499 11.7188 4.59999 11.7188Z" fill="#212121"/>
<path d="M17.05 11.2363L16.25 9.20508C15.975 8.51953 15.325 8.0625 14.6 8.0625H11.3288C10.6038 8.0625 9.95379 8.51953 9.67879 9.20508L9 11.0122C8.425 11.4439 7.95378 12.3789 7.95378 13.1406V16.5C7.95378 16.8218 8.2288 17 8.5 17C8.7712 17 9 16.7554 9 16.5V16H17.05L16.9669 16.5C16.9669 16.7969 17.05 17 17.5 17C17.925 17 18 16.793 18 16.5V13.1406C18 12.3789 17.625 11.668 17.05 11.2363ZM10.7788 9.38086C10.8788 9.15234 11.1038 9 11.3288 9H14.6C14.825 9 15.05 9.15234 15.15 9.38086L15.8 11.0122H10.1538L10.7788 9.38086ZM15.5 12.7969C15.825 12.7969 16.1 13.0762 16.1 13.4062C16.1 13.7617 15.825 14.0156 15.5 14.0156C15.15 14.0156 14.9 13.7617 14.9 13.4062C14.9 13.0762 15.15 12.7969 15.5 12.7969ZM9.94999 13.4062C9.94999 13.0762 10.2 12.7969 10.55 12.7969C10.875 12.7969 11.15 13.0762 11.15 13.4062C11.15 13.7617 10.875 14.0156 10.55 14.0156C10.2 14.0156 9.94999 13.7617 9.94999 13.4062Z" fill="#212121"/>
</svg>
