<svg width="16" height="16" viewBox="0 0 16 16" fill="none" xmlns="http://www.w3.org/2000/svg">
<path d="M13.4687 7.4043L14.1687 9.12305C14.6719 9.48828 15 10.0898 15 10.7344V13.5769C15 13.8248 14.9344 14 14.5625 14C14.1688 14 14 13.8281 14 13.5769V13H7L7.01894 13.5769C7.01894 13.793 6.75313 14 6.5 14C6.24687 14 6 13.8492 6 13.5769V10.7344C6 10.0898 6.51582 9.48828 7.01894 9.12305L7.71894 7.4043C7.95957 6.82422 8.50332 6 9.1377 6H12C12.6344 6 13.2281 6.82422 13.4687 7.4043ZM9.00625 7C8.80937 7 8.72519 7.49414 8.63769 7.6875L7.95625 9.01563H13L12.4625 7.6875C12.375 7.49414 12.1969 7 12 7H9.00625ZM7.01894 12H14V10.7344C14 10.1758 13.3 10 12.7312 10H8.175C7.58437 10 7.01894 10.1758 7.01894 10.7344V12ZM7.93437 10.5156C7.93437 10.2363 8.15312 10 8.45937 10C8.74375 10 8.98437 10.2363 8.98437 10.5156C8.98437 10.8164 8.74375 11.0312 8.45937 11.0312C8.15312 11.0312 7.93437 10.8164 7.93437 10.5156ZM11.9375 10.5156C11.9375 10.2363 12.1562 10 12.4625 10C12.7469 10 12.9875 10.2363 12.9875 10.5156C12.9875 10.8164 12.7469 11.0312 12.4625 11.0312C12.1562 11.0312 11.9375 10.8164 11.9375 10.5156ZM3.5 10.0254C3.19375 10.0254 2.975 9.81055 2.975 9.50977C2.975 9.23047 3.19375 9.01563 3.5 9.01563C3.78438 9.01563 4.025 9.23047 4.025 9.50977C4.025 9.81055 3.78438 10.0254 3.5 10.0254Z" fill="#212121"/>
<path d="M2 8V10.8106C2 10.8965 2.06563 10.9825 2.175 10.9825H5C4.98707 11.3341 4.97812 11.5973 4.97811 12H4V12.6493C4 12.912 3.82632 13 3.5 13C3.17368 13 3 12.8632 3 12.6493V12H2.22499C1.54687 12 1 11.4766 1 10.8106V4.03125C1 3.58695 1.18956 3 2.05 3C2.91043 3 7.95625 3 7.95625 3C8.65689 3 9.00625 3.718 9.00625 4.23826L8.98437 5C8.66242 5.01265 8.356 4.91238 8.04375 5V4.39691C8.04375 4.23652 7.86875 4.05316 7.51875 4.05316H2.56726C2.15583 4.05316 2.05 4.18239 2.05 4.39691L2.05 7H6.28438C6.21876 7.10742 6.15313 7.23633 6.08751 7.36523L6 8H2Z" fill="#212121"/>
</svg>
