<svg width="12" height="12" viewBox="0 0 12 12" fill="none" xmlns="http://www.w3.org/2000/svg">
<path d="M1 8.99978V2.74268C1 2.41955 1.1354 1.99268 1.75 1.99268H6.03125C6.53171 1.99268 7 2.61431 7 2.99268V3.99978H6V2.99268H2.5C2.20612 2.99268 2 3.34376 2 3.49978V4.99978H4V5.99978H2L2 6.99978H3L2.99999 7.97949H2L2 8.78824C2 8.85074 2.17187 8.99978 2.24999 8.99978H2.99999V10.4998C2.99999 10.6908 3 10.9998 2.5 10.9998C2 10.9998 2 10.6553 2 10.4998V10.0275C1.51562 10.0275 1 9.48415 1 8.99978Z" fill="#212121"/>
<path d="M10.0204 5.99978C10.0408 6.99956 10.0204 6.99978 10.0204 6.99978C10.1277 7.06365 10.2341 7.11422 10.3352 7.16225C10.6775 7.32484 10.9582 7.4582 11 7.97949V10.6921C11 10.8724 10.7564 10.9998 10.4908 10.9998C10.2095 10.9998 10.0204 10.8748 10.0204 10.6921V10.0275H5V10.6921C5 10.8493 4.81014 10.9998 4.62933 10.9998C4.44852 10.9998 3.96875 10.8901 3.96875 10.6921L4 8.05386C4 7.68005 4.40023 7.41024 4.75033 7.17421C4.83925 7.11427 4.92493 7.05651 5 6.99978V5.99978C5 5 6.03125 4.99978 6.03125 4.99978H9.01787C9.01787 4.99978 10 5 10.0204 5.99978ZM5.96875 5.99978V6.99978H9.01787V5.99978H5.96875ZM8.01021 8.99978V7.97949H7.00511V8.99978L8.01021 8.99978ZM6 8.5C6 8.22386 5.77614 8 5.5 8C5.22386 8 5 8.22386 5 8.5C5 8.77614 5.22386 9 5.5 9C5.77614 9 6 8.77614 6 8.5ZM10 8.5C10 8.22386 9.77614 8 9.5 8C9.22386 8 9 8.22386 9 8.5C9 8.77614 9.22386 9 9.5 9C9.77614 9 10 8.77614 10 8.5Z" fill="#212121"/>
</svg>
