<svg width="20" height="20" viewBox="0 0 20 20" fill="none" xmlns="http://www.w3.org/2000/svg">
<path d="M16.25 9.20508L17.05 11.2363C17.625 11.668 18 12.3789 18 13.1406V16.5C18 16.793 17.925 17 17.5 17C17.05 17 16.9669 16.7969 16.9669 16.5L17.05 16H9V16.5C9 16.7554 8.7712 17 8.5 17C8.2288 17 7.95378 16.8218 7.95378 16.5V13.1406C7.95378 12.3789 8.30379 11.668 8.87879 11.2363L9.67879 9.20508C9.95379 8.51953 10.6038 8.0625 11.3288 8.0625H14.6C15.325 8.0625 15.975 8.51953 16.25 9.20508ZM11.3288 9C11.1038 9 10.8788 9.15234 10.7788 9.38086L10.1538 11.0122H15.8L15.15 9.38086C15.05 9.15234 14.825 9 14.6 9H11.3288ZM8.99999 14.9688H17.05V13.1406C17.05 12.4805 16.25 12.0166 15.6 12.0166H10.2C9.52499 12.0166 8.99999 12.4805 8.99999 13.1406V14.9688ZM9.94999 13.4062C9.94999 13.0762 10.2 12.7969 10.55 12.7969C10.875 12.7969 11.15 13.0762 11.15 13.4062C11.15 13.7617 10.875 14.0156 10.55 14.0156C10.2 14.0156 9.94999 13.7617 9.94999 13.4062ZM14.8 13.4062C14.8 13.0762 15.05 12.7969 15.4 12.7969C15.725 12.7969 16 13.0762 16 13.4062C16 13.7617 15.725 14.0156 15.4 14.0156C15.05 14.0156 14.8 13.7617 14.8 13.4062ZM4.59999 11.7188C4.24999 11.7188 3.99999 11.4648 3.99999 11.1094C3.99999 10.7793 4.24999 10.5254 4.59999 10.5254C4.92499 10.5254 5.19999 10.7793 5.19999 11.1094C5.19999 11.4648 4.92499 11.7188 4.59999 11.7188Z" fill="#212121"/>
<path d="M3.07879 10.0059L3 12.7969C3 12.8984 3.075 13 3.2 13H6.825C6.8 13.127 6.8 13.2793 6.8 13.4062V14H5V15.0312C5 15.3417 4.87293 15.5 4.5 15.5C4.12707 15.5 4 15.284 4 15.0312V14H3.4C2.625 14 2 13.584 2 12.7969V5.21875C2 4.69367 2.21664 4 3.19999 4C4.18335 4 10.3 4 10.3 4C11.1007 4 11.5 4.6039 11.5 5.21875V7.25L10.875 7.27539C10.675 7.27539 10.575 7.30078 10.4 7.35156V5.40625C10.4 5.21669 10.2 5 9.8 5H3.59116C3.12095 5 3 5.15272 3 5.40625L3.07879 9H8.87879C8.80379 9.12695 8.72879 9.2793 8.65379 9.43164L8.35379 10.0059H3.07879Z" fill="#212121"/>
</svg>
