<svg width="24" height="24" viewBox="0 0 24 24" fill="none" xmlns="http://www.w3.org/2000/svg">
<path d="M19.8125 10.4062L20.8125 12.9063C21.5312 13.4375 22 14.3125 22 15.25V19C22 19.5625 21.5312 20 21 20C20.4375 20 20 19.5625 20 19V18H11V19C11 19.5625 10.5313 20 10 20C9.4375 20 9 19.5625 9 19V15.25C9 14.3125 9.4375 13.4375 10.1563 12.9063L11.1563 10.4062C11.5 9.5625 12.3125 9 13.2188 9H17.75C18.6563 9 19.4688 9.5625 19.8125 10.4062ZM13.2188 10.5C12.9375 10.5 12.6563 10.6875 12.5313 10.9687L12 13H19L18.4375 10.9687C18.3125 10.6875 18.0313 10.5 17.75 10.5H13.2188ZM10.5 16.5H20.5V15.25C20.5 14.4375 19.8125 14 19 14H12C11.1563 14 10.5 14.4375 10.5 15.25V16.5ZM11.75 15.25C11.75 14.8438 12.0625 14.5 12.5 14.5C12.9063 14.5 13.25 14.8438 13.25 15.25C13.25 15.6875 12.9063 16 12.5 16C12.0625 16 11.75 15.6875 11.75 15.25ZM17.75 15.25C17.75 14.8438 18.0625 14.5 18.5 14.5C18.9062 14.5 19.25 14.8438 19.25 15.25C19.25 15.6875 18.9062 16 18.5 16C18.0625 16 17.75 15.6875 17.75 15.25ZM5.25 13.5C4.8125 13.5 4.5 13.1875 4.5 12.75C4.5 12.3438 4.8125 12.0313 5.25 12.0313C5.65625 12.0313 6 12.3438 6 12.75C6 13.1875 5.65625 13.5 5.25 13.5Z" fill="#212121"/>
<path d="M3.5 11.0312V14.2813C3.5 14.4063 3.59375 14.5313 3.75 14.5313H8.03125C8 14.6875 8 14.875 8 15.0313V16.0313H6V17.0313C6 17.5625 5.53125 18 5 18C4.4375 18 4 17.5625 4 17.0313V16.0313H3.75C2.78125 16.0313 2 15.25 2 14.2813V5.5C2 4.85374 2.2708 4 3.49999 4C4.72919 4 12.5 4 12.5 4C13.5009 4 14 4.74326 14 5.5V8L13.2188 8.03125C12.9688 8.03125 12.7188 8.0625 12.5 8.125V6C12.5 5.7667 12.25 5.5 11.75 5.5H8.75H7.25H4.23895C3.65119 5.5 3.5 5.68796 3.5 6V9.53125H7.25H8.75H10.5C10.4063 9.6875 10.3125 9.875 10.2188 10.0625L9.84375 11.0312H3.5Z" fill="#212121"/>
</svg>
