<svg width="24" height="24" viewBox="0 0 24 24" fill="none" xmlns="http://www.w3.org/2000/svg">
<path d="M9.84375 11.0312L10.2188 10.0625C10.3125 9.875 10.4063 9.6875 10.5 9.53125H8.75H7.25H3.5V6C3.5 5.68796 3.65119 5.5 4.23895 5.5H7.25H8.75H11.75C12.25 5.5 12.5 5.7667 12.5 6V8.125C12.7188 8.0625 12.9688 8.03125 13.2188 8.03125L14 8V5.5C14 4.74326 13.5009 4 12.5 4L3.49999 4C2.2708 4 2 4.85374 2 5.5V14.2813C2 15.25 2.78125 16.0313 3.75 16.0313H4V17.0313C4 17.5625 4.4375 18 5 18C5.53125 18 6 17.5625 6 17.0313V16.0313H8V15.0313C8 14.875 8 14.6875 8.03125 14.5313C8.05625 13.5914 8.733 13.0563 9.06824 12.9063L9.84375 11.0312ZM5.25 13.5C4.8125 13.5 4.5 13.1875 4.5 12.75C4.5 12.3438 4.8125 12.0313 5.25 12.0313C5.65625 12.0313 6 12.3438 6 12.75C6 13.1875 5.65625 13.5 5.25 13.5Z" fill="#212121"/>
<path d="M20.8125 12.9063L19.8125 10.4062C19.4688 9.5625 18.6563 9 17.75 9H13.2188C12.3125 9 11.5 9.5625 11.1563 10.4062L10.1563 12.9063C9.4375 13.4375 9 14.3125 9 15.25V19C9 19.5625 9.4375 20 10 20C10.5313 20 11 19.5625 11 19V18H20V19C20 19.5625 20.4375 20 21 20C21.5312 20 22 19.5625 22 19V15.25C22 14.3125 21.5312 13.4375 20.8125 12.9063ZM12.5313 10.9687C12.6563 10.6875 12.9375 10.5 13.2188 10.5H17.75C18.0313 10.5 18.3125 10.6875 18.4375 10.9687L19.25 13.0457H12L12.5313 10.9687ZM12.5 14.75C12.9063 14.75 13.25 15.0938 13.25 15.5C13.25 15.9375 12.9063 16.25 12.5 16.25C12.0625 16.25 11.75 15.9375 11.75 15.5C11.75 15.0938 12.0625 14.75 12.5 14.75ZM17.75 15.5C17.75 15.0938 18.0625 14.75 18.5 14.75C18.9062 14.75 19.25 15.0938 19.25 15.5C19.25 15.9375 18.9062 16.25 18.5 16.25C18.0625 16.25 17.75 15.9375 17.75 15.5Z" fill="#212121"/>
</svg>
