<svg width="32" height="32" viewBox="0 0 32 32" fill="none" xmlns="http://www.w3.org/2000/svg">
<path d="M12.9812 15L13.5063 13.668C13.6375 13.4102 13.6688 13.2148 13.8 13H11.35H9.25H4V8.5C4 8.07095 4.31167 7.0625 5.13453 7.0625L16 7.0625C16.7 7.0625 17.05 7.42921 17.05 7.75V10C17.4 10.0391 17.5563 9.8711 17.9062 9.8711L19 9.82813V7.0625C19 6.02198 18.3013 5 16.9 5L4.09999 5C2.37912 5 2 6.1739 2 7.0625V19.1367C2 20.4688 3.14375 22.0625 4.5 22.0625H5V23.4375C5 24.168 5.2125 24.5 6 24.5C6.74375 24.5 7 24.168 7 23.4375V22.0625H10V20.6875C10 20.4727 10 20.2148 10.0438 20C10.0788 18.9 12.0167 16.2083 12.9812 15ZM6.55 18.0625C5.9375 18.0625 5.5 17.6328 5.5 17.0313C5.5 16.4727 5.9375 16.043 6.55 16.043C7.11875 16.043 7.6 16.4727 7.6 17.0313C7.6 17.6328 7.11875 18.0625 6.55 18.0625Z" fill="#212121"/>
<path d="M28 17.0313L26.9375 13.8086C26.4563 12.6484 25.3625 12 24.0938 12H17.75C16.4813 12 15.3 12.6484 14.8188 13.8086L14 17.0313C12.9937 17.7617 12 18.7109 12 20V26C12 26.7734 12.4125 27 13.2 27C13.9438 27 14 26.6484 14 25.875V24H28V25.5C28 26.2734 28.2125 27 29 27C29.7437 27 30 26.3984 30 25.625V20.4688C30 19.1797 29.0063 17.7617 28 17.0313ZM17.7063 13.9375H24.05C24.4438 13.9375 24.8375 14.1953 25.0125 14.582L25.8 17.0313H16L16.7438 14.582C16.9188 14.1953 17.3125 13.9375 17.7063 13.9375ZM15.65 20.4688C15.65 19.9102 16.0875 19.4375 16.7 19.4375C17.2688 19.4375 17.75 19.9102 17.75 20.4688C17.75 21.0703 17.2688 21.5 16.7 21.5C16.0875 21.5 15.65 21.0703 15.65 20.4688ZM24.05 20.4688C24.05 19.9102 24.4875 19.4375 25.1 19.4375C25.6688 19.4375 26.15 19.9102 26.15 20.4688C26.15 21.0703 25.6688 21.5 25.1 21.5C24.4875 21.5 24.05 21.0703 24.05 20.4688Z" fill="#212121"/>
</svg>
