<svg width="12" height="12" viewBox="0 0 12 12" fill="none" xmlns="http://www.w3.org/2000/svg">
<path d="M1 8.99978V2.74268C1 2.41955 1.1354 1.99268 1.75 1.99268H6.03125C6.53171 1.99268 7 2.61431 7 2.99268V3.99978H6L6.03125 2.99268H2.35054C2.05666 2.99268 2 3.11906 2 3.27508V4.99978H4V5.99978L3 6.99978L2 6.99978V7.97949L3 7.99978L2.99999 10.4998C2.99999 10.6908 3 10.9998 2.5 10.9998C2 10.9998 2 10.6553 2 10.4998V10.0275C1.51562 10.0275 1 9.48415 1 8.99978Z" fill="#212121"/>
<path d="M10.0204 5.99978V6.99978C10.3803 6.99978 10.9459 7.30423 11 7.97949V10.6921C11 10.8724 10.7564 10.9998 10.4908 10.9998C10.2095 10.9998 10.0204 10.8748 10.0204 10.6921V10.0275H5V10.6921C5 10.8493 4.81014 10.9998 4.62933 10.9998C4.44852 10.9998 3.96875 10.8901 3.96875 10.6921L4 8.05386C4 7.58511 5 6.99978 5 6.99978V5.99978C5 5.5 5.5 4.99978 6.03125 4.99978L6.71265 4.99981C7.50446 4.99986 8.63969 4.99994 9.01787 4.99978C9.53574 4.99955 10.0204 5.5 10.0204 5.99978ZM6 5.99978V6.99978L9.01787 6.99978V5.99978L6 5.99978ZM6 8.5C6 8.22386 5.77614 8 5.5 8C5.22386 8 5 8.22386 5 8.5C5 8.77614 5.22386 9 5.5 9C5.77614 9 6 8.77614 6 8.5ZM10 8.5C10 8.22386 9.77614 8 9.5 8C9.22386 8 9 8.22386 9 8.5C9 8.77614 9.22386 9 9.5 9C9.77614 9 10 8.77614 10 8.5Z" fill="#212121"/>
</svg>
