<svg width="230" height="160" viewBox="0 0 230 160" fill="none" xmlns="http://www.w3.org/2000/svg">
<path d="M115.221 145C149.487 145 177.221 116.998 177.221 82.4496C177.221 47.9009 149.487 20 115.221 20C80.9549 20 53.2207 48.0016 53.2207 82.5504C53.2207 117.2 81.0554 145 115.221 145Z" fill="black" fill-opacity="0.2"/>
<g filter="url(#filter0_ii_7539_1569)">
<circle cx="115.721" cy="66.5" r="51.5" fill="url(#paint0_linear_7539_1569)"/>
</g>
<circle cx="115.721" cy="66.5" r="51" stroke="url(#paint1_linear_7539_1569)" stroke-opacity="0.2"/>
<g filter="url(#filter1_ii_7539_1569)">
<ellipse cx="115.721" cy="66" rx="44.5" ry="45" fill="url(#paint2_linear_7539_1569)"/>
</g>
<path d="M115.721 21.5C140.016 21.5 159.721 41.418 159.721 66C159.721 90.582 140.016 110.5 115.721 110.5C91.4254 110.5 71.7207 90.582 71.7207 66C71.7207 41.418 91.4254 21.5 115.721 21.5Z" stroke="url(#paint3_linear_7539_1569)"/>
<g filter="url(#filter2_dd_7539_1569)">
<path d="M131.33 45.2588C133.765 45.2588 135.424 46.1097 136.38 47.7725V47.7734C137.351 49.4799 137.851 51.9306 137.851 55.1514C137.851 58.1707 137.408 60.5089 136.546 62.1875L136.367 62.5146C135.421 64.1685 133.766 65.0166 131.33 65.0166C129.047 65.0166 127.445 64.2717 126.467 62.8154L126.279 62.5146C125.308 60.8175 124.81 58.3719 124.81 55.1514C124.81 51.9305 125.308 49.479 126.279 47.7725C127.235 46.1094 128.895 45.2588 131.33 45.2588ZM131.33 47.9414C130.714 47.9414 130.183 48.0948 129.752 48.418C129.322 48.7404 129.014 49.2147 128.817 49.8193C128.435 50.9957 128.25 52.7803 128.25 55.1514C128.25 57.2749 128.413 58.9528 128.747 60.1729L128.816 60.4111C129.012 61.0411 129.318 61.5368 129.747 61.874C130.178 62.2127 130.712 62.375 131.33 62.375C131.949 62.375 132.482 62.2119 132.911 61.8701C133.338 61.5299 133.64 61.03 133.831 60.3955V60.3945C134.193 59.1684 134.369 57.4159 134.369 55.1514C134.369 52.7805 134.189 50.9969 133.815 49.8213C133.628 49.217 133.329 48.741 132.903 48.418C132.476 48.0939 131.946 47.9414 131.33 47.9414Z" fill="url(#paint4_linear_7539_1569)" stroke="url(#paint5_linear_7539_1569)" stroke-width="0.5"/>
<path d="M115.893 45.2588C118.328 45.2588 119.987 46.1097 120.943 47.7725V47.7734C121.914 49.4799 122.414 51.9306 122.414 55.1514C122.414 58.1707 121.972 60.5089 121.109 62.1875L120.93 62.5146C119.984 64.1685 118.329 65.0166 115.893 65.0166C113.61 65.0166 112.008 64.2717 111.03 62.8154L110.843 62.5146C109.872 60.8175 109.373 58.3719 109.373 55.1514C109.373 51.9305 109.871 49.479 110.843 47.7725C111.798 46.1094 113.458 45.2588 115.893 45.2588ZM115.893 47.9414C115.278 47.9414 114.746 48.0948 114.315 48.418C113.885 48.7404 113.577 49.2147 113.381 49.8193C112.998 50.9957 112.813 52.7803 112.813 55.1514C112.813 57.2749 112.976 58.9528 113.31 60.1729L113.38 60.4111C113.575 61.0411 113.881 61.5368 114.31 61.874C114.741 62.2127 115.275 62.375 115.893 62.375C116.512 62.375 117.045 62.2119 117.474 61.8701C117.902 61.5299 118.203 61.03 118.394 60.3955V60.3945C118.757 59.1684 118.932 57.4159 118.932 55.1514C118.932 52.7805 118.752 50.9969 118.379 49.8213C118.191 49.217 117.892 48.741 117.467 48.418C117.04 48.0939 116.509 47.9414 115.893 47.9414Z" fill="url(#paint6_linear_7539_1569)" stroke="url(#paint7_linear_7539_1569)" stroke-width="0.5"/>
<path d="M100.294 45.2993C102.322 45.2994 103.908 45.8623 105.079 46.9644L105.08 46.9653C106.25 48.0582 106.841 49.5099 106.841 51.3462C106.841 52.7456 106.425 53.9823 105.593 55.0659L105.592 55.0679C105.114 55.6975 104.358 56.4022 103.311 57.1812L102.844 57.52L101.3 58.6167C100.335 59.3026 99.6628 59.8048 99.2925 60.1196L99.2905 60.1216C98.9185 60.446 98.6032 60.8231 98.3462 61.2515L98.1196 61.6294H106.882V64.5288H93.9487C94.0122 63.254 94.3008 62.0886 94.8179 61.0298L94.8237 61.0161C95.3473 59.7717 96.6017 58.4197 98.6382 56.9663V56.9653C100.414 55.6945 101.585 54.7703 102.127 54.1997L102.128 54.1978C102.968 53.3014 103.401 52.3037 103.401 51.2104C103.401 50.331 103.157 49.5806 102.653 48.978C102.136 48.3594 101.4 48.063 100.484 48.063C99.867 48.063 99.3296 48.1774 98.8843 48.4214C98.4361 48.667 98.095 49.0359 97.8618 49.5171V49.5181C97.6146 50.031 97.4723 50.7951 97.4165 51.7866H94.1675C94.2502 50.2602 94.5399 49.0366 95.0308 48.104H95.0317C96.0087 46.2445 97.7395 45.2993 100.294 45.2993Z" fill="url(#paint8_linear_7539_1569)" stroke="url(#paint9_linear_7539_1569)" stroke-width="0.5"/>
</g>
<rect x="114.485" y="24.9136" width="2.59989" height="6.49972" fill="#636363"/>
<rect x="126.021" y="26.2041" width="0.866629" height="4.33315" transform="rotate(15 126.021 26.2041)" fill="#383838"/>
<rect x="114.485" y="100.744" width="2.59989" height="6.49972" fill="#636363"/>
<rect x="135.242" y="29.7788" width="2.59989" height="6.49972" transform="rotate(30 135.242 29.7788)" fill="#636363"/>
<rect x="97.3272" y="95.4497" width="2.59989" height="6.49972" transform="rotate(30 97.3272 95.4497)" fill="#636363"/>
<rect x="150.785" y="44.3701" width="2.59989" height="6.49972" transform="rotate(60 150.785 44.3701)" fill="#636363"/>
<rect x="85.1144" y="82.2852" width="2.59989" height="6.49972" transform="rotate(60 85.1144 82.2852)" fill="#636363"/>
<rect x="156.95" y="64.7783" width="2.59989" height="6.49972" transform="rotate(90 156.95 64.7783)" fill="#636363"/>
<rect x="81.1201" y="64.7783" width="2.59989" height="6.49972" transform="rotate(90 81.1201 64.7783)" fill="#636363"/>
<rect x="152.085" y="85.5352" width="2.59989" height="6.49972" transform="rotate(120 152.085 85.5352)" fill="#636363"/>
<rect x="86.4146" y="47.6201" width="2.59989" height="6.49972" transform="rotate(120 86.4146 47.6201)" fill="#636363"/>
<rect x="137.493" y="101.078" width="2.59989" height="6.49972" transform="rotate(150 137.493 101.078)" fill="#636363"/>
<rect x="99.5787" y="35.4072" width="2.59989" height="6.49972" transform="rotate(150 99.5787 35.4072)" fill="#636363"/>
<rect x="105.834" y="101.543" width="0.866629" height="4.33315" transform="rotate(15 105.834 101.543)" fill="#383838"/>
<rect x="144.587" y="36.6641" width="0.866629" height="4.33315" transform="rotate(45 144.587 36.6641)" fill="#383838"/>
<rect x="89.4349" y="91.8159" width="0.866629" height="4.33315" transform="rotate(45 89.4349 91.8159)" fill="#383838"/>
<rect x="155.435" y="55.0059" width="0.866629" height="4.33315" transform="rotate(75 155.435 55.0059)" fill="#383838"/>
<rect x="80.0963" y="75.1929" width="0.866629" height="4.33315" transform="rotate(75 80.0963 75.1929)" fill="#383838"/>
<rect x="155.66" y="76.314" width="0.866629" height="4.33315" transform="rotate(105 155.66 76.314)" fill="#383838"/>
<rect x="80.3207" y="56.1274" width="0.866629" height="4.33315" transform="rotate(105 80.3207 56.1274)" fill="#383838"/>
<rect x="145.2" y="94.8799" width="0.866629" height="4.33315" transform="rotate(135 145.2 94.8799)" fill="#383838"/>
<rect x="90.0479" y="39.728" width="0.866629" height="4.33315" transform="rotate(135 90.0479 39.728)" fill="#383838"/>
<rect x="126.858" y="105.729" width="0.866629" height="4.33315" transform="rotate(165 126.858 105.729)" fill="#383838"/>
<rect x="106.671" y="30.3896" width="0.866629" height="4.33315" transform="rotate(165 106.671 30.3896)" fill="#383838"/>
<rect x="110.659" y="106.925" width="0.866629" height="4.33315" transform="rotate(-172.243 110.659 106.925)" fill="#383838"/>
<rect x="121.186" y="29.6421" width="0.866629" height="4.33315" transform="rotate(-172.243 121.186 29.6421)" fill="#383838"/>
<rect x="100.262" y="104.207" width="0.866629" height="4.33315" transform="rotate(-157.243 100.262 104.207)" fill="#383838"/>
<rect x="130.432" y="32.2817" width="0.866629" height="4.33315" transform="rotate(-157.243 130.432 32.2817)" fill="#383838"/>
<rect x="90.922" y="98.8896" width="0.866629" height="4.33315" transform="rotate(-142.243 90.922 98.8896)" fill="#383838"/>
<rect x="138.68" y="37.2241" width="0.866629" height="4.33315" transform="rotate(-142.243 138.68 37.2241)" fill="#383838"/>
<rect x="83.2774" y="91.3364" width="0.866629" height="4.33315" transform="rotate(-127.243 83.2774 91.3364)" fill="#383838"/>
<rect x="145.369" y="44.1328" width="0.866629" height="4.33315" transform="rotate(-127.243 145.369 44.1328)" fill="#383838"/>
<rect x="77.8474" y="82.062" width="0.866629" height="4.33315" transform="rotate(-112.243 77.8474 82.062)" fill="#383838"/>
<rect x="150.04" y="52.5371" width="0.866629" height="4.33315" transform="rotate(-112.243 150.04 52.5371)" fill="#383838"/>
<rect x="75.0034" y="71.6982" width="0.866629" height="4.33315" transform="rotate(-97.2433 75.0034 71.6982)" fill="#383838"/>
<rect x="152.378" y="61.8647" width="0.866629" height="4.33315" transform="rotate(-97.2433 152.378 61.8647)" fill="#383838"/>
<rect x="74.9383" y="60.9517" width="0.866629" height="4.33315" transform="rotate(-82.2433 74.9383 60.9517)" fill="#383838"/>
<rect x="152.222" y="71.479" width="0.866629" height="4.33315" transform="rotate(-82.2433 152.222 71.479)" fill="#383838"/>
<rect x="77.6568" y="50.5547" width="0.866629" height="4.33315" transform="rotate(-67.2433 77.6568 50.5547)" fill="#383838"/>
<rect x="149.582" y="80.7251" width="0.866629" height="4.33315" transform="rotate(-67.2433 149.582 80.7251)" fill="#383838"/>
<rect x="82.9741" y="41.2153" width="0.866629" height="4.33315" transform="rotate(-52.2433 82.9741 41.2153)" fill="#383838"/>
<rect x="144.64" y="88.9736" width="0.866629" height="4.33315" transform="rotate(-52.2433 144.64 88.9736)" fill="#383838"/>
<rect x="90.5276" y="33.5703" width="0.866629" height="4.33315" transform="rotate(-37.2433 90.5276 33.5703)" fill="#383838"/>
<rect x="137.731" y="95.6616" width="0.866629" height="4.33315" transform="rotate(-37.2433 137.731 95.6616)" fill="#383838"/>
<rect x="99.8016" y="28.1406" width="0.866629" height="4.33315" transform="rotate(-22.2433 99.8016 28.1406)" fill="#383838"/>
<rect x="129.327" y="100.333" width="0.866629" height="4.33315" transform="rotate(-22.2433 129.327 100.333)" fill="#383838"/>
<rect x="110.165" y="25.2964" width="0.866629" height="4.33315" transform="rotate(-7.24326 110.165 25.2964)" fill="#383838"/>
<rect x="119.999" y="102.671" width="0.866629" height="4.33315" transform="rotate(-7.24326 119.999 102.671)" fill="#383838"/>
<g filter="url(#filter3_dd_7539_1569)">
<circle cx="115.401" cy="66.671" r="6.49972" transform="rotate(45 115.401 66.671)" fill="url(#paint10_linear_7539_1569)"/>
<circle cx="115.401" cy="66.671" r="5.99972" transform="rotate(45 115.401 66.671)" stroke="url(#paint11_linear_7539_1569)" stroke-opacity="0.4"/>
</g>
<g filter="url(#filter4_d_7539_1569)">
<path d="M141.376 38.9807C142.312 38.2028 143.563 39.4538 142.785 40.389L120.272 67.4551C119.895 67.9075 119.212 67.9388 118.796 67.5228L114.243 62.9697C113.827 62.5537 113.858 61.8701 114.31 61.4938L141.376 38.9807Z" fill="url(#paint12_linear_7539_1569)"/>
<path d="M141.696 39.3654C142.164 38.9765 142.789 39.6021 142.4 40.0698L119.887 67.1352C119.699 67.3614 119.357 67.3771 119.149 67.1691L114.596 62.6164C114.388 62.4084 114.404 62.0664 114.63 61.8782L141.696 39.3654Z" stroke="url(#paint13_linear_7539_1569)" stroke-opacity="0.8"/>
<path d="M141.696 39.3654C142.164 38.9765 142.789 39.6021 142.4 40.0698L119.887 67.1352C119.699 67.3614 119.357 67.3771 119.149 67.1691L114.596 62.6164C114.388 62.4084 114.404 62.0664 114.63 61.8782L141.696 39.3654Z" stroke="url(#paint14_linear_7539_1569)" stroke-opacity="0.3"/>
</g>
<g filter="url(#filter5_dd_7539_1569)">
<circle cx="115.401" cy="66.671" r="5.63309" transform="rotate(45 115.401 66.671)" fill="url(#paint15_linear_7539_1569)"/>
<circle cx="115.401" cy="66.671" r="5.13309" transform="rotate(45 115.401 66.671)" stroke="url(#paint16_linear_7539_1569)" stroke-opacity="0.4"/>
</g>
<path d="M86.4571 89.4467C86.3264 86.9528 88.2421 84.8252 90.736 84.6945L137.628 82.237C140.122 82.1063 142.25 84.022 142.38 86.5159L144.838 133.408C144.969 135.902 143.053 138.03 140.559 138.16L93.6668 140.618C91.1729 140.748 89.0453 138.833 88.9146 136.339L86.4571 89.4467Z" fill="url(#paint17_linear_7539_1569)"/>
<path d="M139.272 87.0271C139.222 86.0679 138.404 85.3311 137.445 85.3813L91.2472 87.8024C90.288 87.8527 89.5512 88.671 89.6014 89.6302L92.0225 135.828C92.0728 136.787 92.8911 137.524 93.8503 137.473L140.048 135.052C141.007 135.002 141.744 134.184 141.693 133.225L139.272 87.0271ZM143.083 133.152C143.173 134.878 141.847 136.351 140.121 136.442L93.9231 138.863C92.1966 138.953 90.7236 137.627 90.6331 135.9L88.212 89.703C88.1215 87.9765 89.4478 86.5035 91.1743 86.413L137.372 83.9919C139.098 83.9015 140.571 85.2277 140.662 86.9542L143.083 133.152Z" fill="url(#paint18_linear_7539_1569)"/>
<path d="M117.647 119.682C117.839 119.672 118.003 119.819 118.013 120.011L118.45 128.347C118.46 128.539 118.312 128.703 118.121 128.713L115.168 128.868C114.976 128.878 114.813 128.73 114.803 128.539L114.366 120.202C114.356 120.01 114.503 119.847 114.695 119.837L117.647 119.682Z" fill="url(#paint19_linear_7539_1569)"/>
<path d="M129.083 93.7659C129.213 93.5737 129.49 93.5591 129.639 93.7368L137.715 103.393C137.916 103.634 137.72 103.997 137.409 103.962L133.588 103.53C133.374 103.506 133.19 103.679 133.202 103.894L134.439 127.509C134.449 127.701 134.302 127.865 134.11 127.875L128.205 128.184C128.013 128.194 127.85 128.047 127.84 127.855L126.602 104.239C126.591 104.025 126.389 103.872 126.179 103.918L122.425 104.747C122.118 104.815 121.886 104.474 122.061 104.213L129.083 93.7659Z" fill="url(#paint20_linear_7539_1569)"/>
<path d="M103.101 94.6697C103.293 94.6597 103.456 94.8071 103.466 94.9989L104.709 118.701C104.72 118.916 104.921 119.069 105.131 119.023L108.886 118.194C109.192 118.126 109.424 118.467 109.249 118.728L102.227 129.175C102.098 129.367 101.82 129.382 101.672 129.204L93.596 119.548C93.3947 119.307 93.5901 118.944 93.9019 118.979L97.7226 119.411C97.9361 119.435 98.1202 119.262 98.1089 119.047L96.8668 95.3448C96.8567 95.1529 97.0041 94.9893 97.1959 94.9792L103.101 94.6697Z" fill="url(#paint21_linear_7539_1569)"/>
<path d="M116.974 106.83C117.166 106.82 117.329 106.967 117.339 107.159L117.776 115.495C117.786 115.687 117.639 115.851 117.447 115.861L114.495 116.016C114.303 116.026 114.139 115.878 114.129 115.687L113.692 107.35C113.682 107.158 113.83 106.995 114.021 106.985L116.974 106.83Z" fill="url(#paint22_linear_7539_1569)"/>
<path d="M116.3 93.978C116.492 93.968 116.656 94.1153 116.666 94.3071L117.103 102.644C117.113 102.835 116.965 102.999 116.774 103.009L113.821 103.164C113.629 103.174 113.466 103.026 113.456 102.835L113.019 94.4983C113.009 94.3064 113.156 94.1428 113.348 94.1327L116.3 93.978Z" fill="url(#paint23_linear_7539_1569)"/>
<path d="M90.7383 84.7443L137.631 82.2867C140.097 82.1576 142.201 84.0522 142.331 86.5182L144.788 133.411C144.917 135.877 143.023 137.981 140.557 138.11L93.6639 140.568C91.1978 140.697 89.0937 138.803 88.9643 136.337L86.5068 89.4438C86.3777 86.9777 88.2722 84.8736 90.7383 84.7443ZM118.4 128.35C118.409 128.514 118.282 128.654 118.118 128.662L115.165 128.817C115.001 128.826 114.861 128.7 114.852 128.536L114.415 120.199C114.407 120.035 114.533 119.895 114.697 119.886L117.65 119.731C117.814 119.723 117.954 119.849 117.963 120.013L118.4 128.35ZM117.727 115.498C117.735 115.662 117.609 115.802 117.445 115.811L114.492 115.966C114.328 115.974 114.187 115.848 114.179 115.684L113.742 107.348C113.733 107.184 113.86 107.043 114.024 107.035L116.977 106.88C117.141 106.871 117.281 106.998 117.29 107.162L117.727 115.498ZM134.389 127.513C134.397 127.677 134.271 127.816 134.107 127.825L128.202 128.134C128.038 128.142 127.898 128.017 127.889 127.853L126.651 104.237C126.639 103.992 126.409 103.816 126.169 103.869L122.414 104.698C122.152 104.756 121.953 104.464 122.102 104.241L129.125 93.7936C129.236 93.6291 129.474 93.6166 129.601 93.7686L137.676 103.425C137.848 103.631 137.681 103.942 137.414 103.912L133.594 103.48C133.35 103.453 133.138 103.651 133.151 103.896L134.389 127.513ZM104.659 118.704C104.672 118.949 104.902 119.125 105.142 119.072L108.896 118.243C109.159 118.185 109.358 118.477 109.208 118.7L102.185 129.147C102.075 129.312 101.838 129.324 101.71 129.172L93.6344 119.516C93.462 119.31 93.6293 118.999 93.8964 119.029L97.7172 119.461C97.9613 119.488 98.1717 119.29 98.1589 119.044L96.9167 95.3417C96.9083 95.1776 97.0345 95.0382 97.1986 95.0296L103.104 94.7202C103.268 94.7116 103.408 94.837 103.417 95.001L104.659 118.704ZM117.053 102.646C117.062 102.81 116.935 102.951 116.771 102.959L113.818 103.114C113.654 103.123 113.514 102.996 113.505 102.832L113.068 94.4952C113.06 94.3312 113.186 94.1919 113.35 94.1831L116.303 94.0284C116.467 94.02 116.607 94.1454 116.616 94.3093L117.053 102.646ZM143.033 133.155C143.122 134.853 141.817 136.303 140.118 136.392L93.9201 138.813C92.2215 138.902 90.7723 137.597 90.683 135.898L88.2619 89.7C88.1731 88.0014 89.4779 86.5522 91.1765 86.4629L137.375 84.0418C139.073 83.953 140.523 85.2578 140.612 86.9564L143.033 133.155ZM141.643 133.228C141.692 134.159 140.977 134.953 140.046 135.002L93.8472 137.423C92.916 137.472 92.1218 136.757 92.0727 135.825L89.6516 89.6272C89.603 88.6959 90.3181 87.9017 91.2494 87.8526L137.448 85.4315C138.379 85.3829 139.173 86.098 139.222 87.0293L141.643 133.228ZM118.063 120.008C118.051 119.789 117.864 119.621 117.645 119.632L114.692 119.787C114.473 119.798 114.305 119.985 114.316 120.204L114.753 128.542C114.765 128.761 114.951 128.929 115.171 128.918L118.124 128.763C118.343 128.751 118.511 128.564 118.5 128.345L118.063 120.008ZM117.389 107.157C117.378 106.937 117.191 106.769 116.972 106.78L114.019 106.935C113.799 106.947 113.631 107.134 113.642 107.353L114.079 115.689C114.091 115.908 114.278 116.077 114.497 116.065L117.45 115.91C117.669 115.899 117.838 115.712 117.826 115.493L117.389 107.157ZM133.252 103.891C133.242 103.707 133.4 103.559 133.583 103.58L137.403 104.011C137.76 104.051 137.983 103.636 137.753 103.361L129.678 93.7049C129.508 93.5017 129.19 93.5184 129.042 93.7383L122.019 104.186C121.819 104.483 122.085 104.873 122.436 104.795L126.19 103.967C126.37 103.927 126.542 104.059 126.552 104.242L127.79 127.858C127.801 128.077 127.988 128.246 128.207 128.234L134.112 127.925C134.332 127.913 134.501 127.726 134.489 127.507L133.252 103.891ZM103.516 94.9958C103.504 94.7767 103.317 94.6083 103.098 94.6197L97.1933 94.9292C96.974 94.9407 96.8059 95.1277 96.8172 95.3469L98.0594 119.05C98.069 119.233 97.9112 119.382 97.7286 119.361L93.9078 118.93C93.5512 118.89 93.3275 119.305 93.5575 119.58L101.634 129.236C101.804 129.439 102.121 129.423 102.268 129.203L109.291 118.755C109.491 118.458 109.225 118.068 108.875 118.146L105.12 118.974C104.94 119.013 104.768 118.882 104.758 118.699L103.516 94.9958ZM116.716 94.3041C116.704 94.085 116.517 93.9166 116.298 93.9279L113.345 94.0827C113.126 94.0943 112.958 94.2813 112.969 94.5004L113.406 102.838C113.417 103.057 113.604 103.225 113.823 103.214L116.776 103.059C116.996 103.047 117.164 102.86 117.153 102.641L116.716 94.3041ZM139.323 87.024C139.271 86.0376 138.429 85.2796 137.442 85.331L91.2441 87.7522C90.2577 87.8041 89.4996 88.646 89.5511 89.6324L91.9723 135.831C92.0242 136.817 92.8661 137.575 93.8525 137.524L140.051 135.103C141.037 135.051 141.795 134.209 141.744 133.222L139.323 87.024ZM140.711 86.9512C140.619 85.1975 139.123 83.8506 137.37 83.9423L91.1713 86.3635C89.4176 86.4556 88.0707 87.9514 88.1624 89.7052L90.5835 135.904C90.6757 137.657 92.1715 139.004 93.9253 138.912L140.124 136.491C141.877 136.399 143.224 134.903 143.133 133.15L140.711 86.9512Z" stroke="url(#paint24_linear_7539_1569)" stroke-opacity="0.4" stroke-width="0.1"/>
<path d="M145.464 76.2613V79.5112H143.986V76.1445C143.986 75.8466 143.935 75.6063 143.834 75.4235C143.702 75.1662 143.451 75.0376 143.082 75.0376C142.7 75.0376 142.409 75.1662 142.209 75.4235C142.013 75.6774 141.914 76.0413 141.914 76.5152V79.5112H140.472V72.0518H141.914V74.6973C142.124 74.3757 142.366 74.1523 142.641 74.0271C142.918 73.8984 143.209 73.8341 143.514 73.8341C143.856 73.8341 144.166 73.8933 144.443 74.0118C144.724 74.1303 144.954 74.3114 145.134 74.5552C145.286 74.7617 145.379 74.9749 145.413 75.195C145.447 75.4116 145.464 75.7671 145.464 76.2613Z" fill="#818181"/>
<path d="M136.323 79.5112L139.223 71.7979H140.426L137.517 79.5112H136.323Z" fill="#818181"/>
<path d="M131.423 75.4992C131.301 75.2318 131.063 75.0981 130.707 75.0981C130.294 75.0981 130.017 75.2318 129.875 75.4992C129.797 75.6516 129.758 75.8784 129.758 76.1797V79.5108H128.29V73.986H129.697V74.7934C129.876 74.5057 130.045 74.3009 130.205 74.179C130.486 73.9623 130.85 73.854 131.296 73.854C131.72 73.854 132.061 73.9471 132.322 74.1333C132.532 74.3059 132.691 74.5277 132.799 74.7985C132.989 74.4735 133.224 74.2348 133.505 74.0825C133.803 73.9302 134.135 73.854 134.501 73.854C134.744 73.854 134.985 73.9014 135.222 73.9962C135.459 74.091 135.674 74.2569 135.866 74.4938C136.022 74.6868 136.127 74.9237 136.181 75.2047C136.215 75.3909 136.232 75.6634 136.232 76.0223L136.222 79.5108H134.739V75.9867C134.739 75.7768 134.705 75.6042 134.638 75.4688C134.509 75.2115 134.272 75.0829 133.927 75.0829C133.527 75.0829 133.251 75.2487 133.099 75.5805C133.021 75.7565 132.982 75.9681 132.982 76.2152V79.5108H131.525V76.2152C131.525 75.8869 131.491 75.6482 131.423 75.4992Z" fill="#818181"/>
<path d="M127.605 79.5112H125.858L124.533 77.1449L123.934 77.7695V79.5112H122.512V72.0518H123.934V76.0836L125.736 74.0017H127.529L125.594 76.1192L127.605 79.5112Z" fill="#818181"/>
<defs>
<filter id="filter0_ii_7539_1569" x="64.2207" y="15" width="103" height="107" filterUnits="userSpaceOnUse" color-interpolation-filters="sRGB">
<feFlood flood-opacity="0" result="BackgroundImageFix"/>
<feBlend mode="normal" in="SourceGraphic" in2="BackgroundImageFix" result="shape"/>
<feColorMatrix in="SourceAlpha" type="matrix" values="0 0 0 0 0 0 0 0 0 0 0 0 0 0 0 0 0 0 127 0" result="hardAlpha"/>
<feOffset dy="4"/>
<feGaussianBlur stdDeviation="8"/>
<feComposite in2="hardAlpha" operator="arithmetic" k2="-1" k3="1"/>
<feColorMatrix type="matrix" values="0 0 0 0 0 0 0 0 0 0 0 0 0 0 0 0 0 0 0.4 0"/>
<feBlend mode="normal" in2="shape" result="effect1_innerShadow_7539_1569"/>
<feColorMatrix in="SourceAlpha" type="matrix" values="0 0 0 0 0 0 0 0 0 0 0 0 0 0 0 0 0 0 127 0" result="hardAlpha"/>
<feOffset dy="1"/>
<feGaussianBlur stdDeviation="0.5"/>
<feComposite in2="hardAlpha" operator="arithmetic" k2="-1" k3="1"/>
<feColorMatrix type="matrix" values="0 0 0 0 0 0 0 0 0 0 0 0 0 0 0 0 0 0 0.08 0"/>
<feBlend mode="normal" in2="effect1_innerShadow_7539_1569" result="effect2_innerShadow_7539_1569"/>
</filter>
<filter id="filter1_ii_7539_1569" x="71.2207" y="21" width="89" height="94" filterUnits="userSpaceOnUse" color-interpolation-filters="sRGB">
<feFlood flood-opacity="0" result="BackgroundImageFix"/>
<feBlend mode="normal" in="SourceGraphic" in2="BackgroundImageFix" result="shape"/>
<feColorMatrix in="SourceAlpha" type="matrix" values="0 0 0 0 0 0 0 0 0 0 0 0 0 0 0 0 0 0 127 0" result="hardAlpha"/>
<feOffset dy="4"/>
<feGaussianBlur stdDeviation="8"/>
<feComposite in2="hardAlpha" operator="arithmetic" k2="-1" k3="1"/>
<feColorMatrix type="matrix" values="0 0 0 0 0 0 0 0 0 0 0 0 0 0 0 0 0 0 0.4 0"/>
<feBlend mode="normal" in2="shape" result="effect1_innerShadow_7539_1569"/>
<feColorMatrix in="SourceAlpha" type="matrix" values="0 0 0 0 0 0 0 0 0 0 0 0 0 0 0 0 0 0 127 0" result="hardAlpha"/>
<feOffset dy="1"/>
<feGaussianBlur stdDeviation="0.5"/>
<feComposite in2="hardAlpha" operator="arithmetic" k2="-1" k3="1"/>
<feColorMatrix type="matrix" values="0 0 0 0 0 0 0 0 0 0 0 0 0 0 0 0 0 0 0.08 0"/>
<feBlend mode="normal" in2="effect1_innerShadow_7539_1569" result="effect2_innerShadow_7539_1569"/>
</filter>
<filter id="filter2_dd_7539_1569" x="77.686" y="27.0088" width="84.4146" height="60.2573" filterUnits="userSpaceOnUse" color-interpolation-filters="sRGB">
<feFlood flood-opacity="0" result="BackgroundImageFix"/>
<feColorMatrix in="SourceAlpha" type="matrix" values="0 0 0 0 0 0 0 0 0 0 0 0 0 0 0 0 0 0 127 0" result="hardAlpha"/>
<feOffset dx="4" dy="2"/>
<feGaussianBlur stdDeviation="10"/>
<feComposite in2="hardAlpha" operator="out"/>
<feColorMatrix type="matrix" values="0 0 0 0 1 0 0 0 0 0.8 0 0 0 0 0.2 0 0 0 0.7 0"/>
<feBlend mode="normal" in2="BackgroundImageFix" result="effect1_dropShadow_7539_1569"/>
<feColorMatrix in="SourceAlpha" type="matrix" values="0 0 0 0 0 0 0 0 0 0 0 0 0 0 0 0 0 0 127 0" result="hardAlpha"/>
<feOffset dy="2"/>
<feGaussianBlur stdDeviation="4"/>
<feComposite in2="hardAlpha" operator="out"/>
<feColorMatrix type="matrix" values="0 0 0 0 0 0 0 0 0 0 0 0 0 0 0 0 0 0 0.5 0"/>
<feBlend mode="normal" in2="effect1_dropShadow_7539_1569" result="effect2_dropShadow_7539_1569"/>
<feBlend mode="normal" in="SourceGraphic" in2="effect2_dropShadow_7539_1569" result="shape"/>
</filter>
<filter id="filter3_dd_7539_1569" x="92.9011" y="48.1714" width="44.9994" height="44.9995" filterUnits="userSpaceOnUse" color-interpolation-filters="sRGB">
<feFlood flood-opacity="0" result="BackgroundImageFix"/>
<feColorMatrix in="SourceAlpha" type="matrix" values="0 0 0 0 0 0 0 0 0 0 0 0 0 0 0 0 0 0 127 0" result="hardAlpha"/>
<feOffset dy="4"/>
<feGaussianBlur stdDeviation="8"/>
<feComposite in2="hardAlpha" operator="out"/>
<feColorMatrix type="matrix" values="0 0 0 0 0 0 0 0 0 0 0 0 0 0 0 0 0 0 0.4 0"/>
<feBlend mode="normal" in2="BackgroundImageFix" result="effect1_dropShadow_7539_1569"/>
<feColorMatrix in="SourceAlpha" type="matrix" values="0 0 0 0 0 0 0 0 0 0 0 0 0 0 0 0 0 0 127 0" result="hardAlpha"/>
<feOffset dy="1"/>
<feGaussianBlur stdDeviation="0.5"/>
<feComposite in2="hardAlpha" operator="out"/>
<feColorMatrix type="matrix" values="0 0 0 0 0 0 0 0 0 0 0 0 0 0 0 0 0 0 0.08 0"/>
<feBlend mode="normal" in2="effect1_dropShadow_7539_1569" result="effect2_dropShadow_7539_1569"/>
<feBlend mode="normal" in="SourceGraphic" in2="effect2_dropShadow_7539_1569" result="shape"/>
</filter>
<filter id="filter4_d_7539_1569" x="111.95" y="38.7368" width="33.0787" height="33.0786" filterUnits="userSpaceOnUse" color-interpolation-filters="sRGB">
<feFlood flood-opacity="0" result="BackgroundImageFix"/>
<feColorMatrix in="SourceAlpha" type="matrix" values="0 0 0 0 0 0 0 0 0 0 0 0 0 0 0 0 0 0 127 0" result="hardAlpha"/>
<feOffset dy="2"/>
<feGaussianBlur stdDeviation="1"/>
<feComposite in2="hardAlpha" operator="out"/>
<feColorMatrix type="matrix" values="0 0 0 0 0 0 0 0 0 0 0 0 0 0 0 0 0 0 0.8 0"/>
<feBlend mode="normal" in2="BackgroundImageFix" result="effect1_dropShadow_7539_1569"/>
<feBlend mode="normal" in="SourceGraphic" in2="effect1_dropShadow_7539_1569" result="shape"/>
</filter>
<filter id="filter5_dd_7539_1569" x="93.7677" y="49.0381" width="43.2662" height="43.2661" filterUnits="userSpaceOnUse" color-interpolation-filters="sRGB">
<feFlood flood-opacity="0" result="BackgroundImageFix"/>
<feColorMatrix in="SourceAlpha" type="matrix" values="0 0 0 0 0 0 0 0 0 0 0 0 0 0 0 0 0 0 127 0" result="hardAlpha"/>
<feOffset dy="4"/>
<feGaussianBlur stdDeviation="8"/>
<feComposite in2="hardAlpha" operator="out"/>
<feColorMatrix type="matrix" values="0 0 0 0 0 0 0 0 0 0 0 0 0 0 0 0 0 0 0.4 0"/>
<feBlend mode="normal" in2="BackgroundImageFix" result="effect1_dropShadow_7539_1569"/>
<feColorMatrix in="SourceAlpha" type="matrix" values="0 0 0 0 0 0 0 0 0 0 0 0 0 0 0 0 0 0 127 0" result="hardAlpha"/>
<feOffset dy="1"/>
<feGaussianBlur stdDeviation="0.5"/>
<feComposite in2="hardAlpha" operator="out"/>
<feColorMatrix type="matrix" values="0 0 0 0 0 0 0 0 0 0 0 0 0 0 0 0 0 0 0.08 0"/>
<feBlend mode="normal" in2="effect1_dropShadow_7539_1569" result="effect2_dropShadow_7539_1569"/>
<feBlend mode="normal" in="SourceGraphic" in2="effect2_dropShadow_7539_1569" result="shape"/>
</filter>
<linearGradient id="paint0_linear_7539_1569" x1="64.2207" y1="110.919" x2="85.361" y2="15.3817" gradientUnits="userSpaceOnUse">
<stop offset="0.0036" stop-color="#454545"/>
<stop offset="1" stop-color="#575245"/>
</linearGradient>
<linearGradient id="paint1_linear_7539_1569" x1="151.718" y1="97.4455" x2="102.975" y2="25.0422" gradientUnits="userSpaceOnUse">
<stop offset="0.11293" stop-color="#4E5078"/>
<stop offset="1" stop-color="#F9CC45"/>
</linearGradient>
<linearGradient id="paint2_linear_7539_1569" x1="175.781" y1="95.9177" x2="97.0129" y2="-5.75477" gradientUnits="userSpaceOnUse">
<stop offset="0.0036" stop-color="#1A1919"/>
<stop offset="1" stop-color="#575245"/>
</linearGradient>
<linearGradient id="paint3_linear_7539_1569" x1="126.788" y1="66.956" x2="86.7643" y2="-12.2555" gradientUnits="userSpaceOnUse">
<stop offset="0.11293" stop-color="#4E5078"/>
<stop offset="1" stop-color="#F9CC45"/>
</linearGradient>
<linearGradient id="paint4_linear_7539_1569" x1="124.665" y1="44.9948" x2="134.462" y2="55.99" gradientUnits="userSpaceOnUse">
<stop stop-color="#FFEAAA"/>
<stop offset="1" stop-color="#FFCC33"/>
</linearGradient>
<linearGradient id="paint5_linear_7539_1569" x1="124.342" y1="46.4618" x2="134.746" y2="54.2366" gradientUnits="userSpaceOnUse">
<stop stop-color="#FFE28D"/>
<stop offset="1" stop-color="#E7B10E"/>
</linearGradient>
<linearGradient id="paint6_linear_7539_1569" x1="109.228" y1="44.9948" x2="119.025" y2="55.99" gradientUnits="userSpaceOnUse">
<stop stop-color="#FFEAAA"/>
<stop offset="1" stop-color="#FFCC33"/>
</linearGradient>
<linearGradient id="paint7_linear_7539_1569" x1="108.905" y1="46.4618" x2="119.309" y2="54.2366" gradientUnits="userSpaceOnUse">
<stop stop-color="#FFE28D"/>
<stop offset="1" stop-color="#E7B10E"/>
</linearGradient>
<linearGradient id="paint8_linear_7539_1569" x1="93.7905" y1="45.0357" x2="103.309" y2="55.9276" gradientUnits="userSpaceOnUse">
<stop stop-color="#FFEAAA"/>
<stop offset="1" stop-color="#FFCC33"/>
</linearGradient>
<linearGradient id="paint9_linear_7539_1569" x1="93.4698" y1="46.4645" x2="103.656" y2="54.226" gradientUnits="userSpaceOnUse">
<stop stop-color="#FFE28D"/>
<stop offset="1" stop-color="#E7B10E"/>
</linearGradient>
<linearGradient id="paint10_linear_7539_1569" x1="124.173" y1="70.9922" x2="112.829" y2="56.1841" gradientUnits="userSpaceOnUse">
<stop offset="0.0036" stop-color="#1A1919"/>
<stop offset="1" stop-color="#575245"/>
</linearGradient>
<linearGradient id="paint11_linear_7539_1569" x1="117.017" y1="66.8091" x2="112.046" y2="59.4204" gradientUnits="userSpaceOnUse">
<stop offset="0.11293" stop-color="#4E5078"/>
<stop offset="1" stop-color="#F9CC45"/>
</linearGradient>
<linearGradient id="paint12_linear_7539_1569" x1="117.623" y1="73.6536" x2="104.992" y2="54.4024" gradientUnits="userSpaceOnUse">
<stop offset="0.0036" stop-color="#1A1919"/>
<stop offset="1" stop-color="#575245"/>
</linearGradient>
<linearGradient id="paint13_linear_7539_1569" x1="118.945" y1="67.8171" x2="110.24" y2="54.1883" gradientUnits="userSpaceOnUse">
<stop offset="0.11293" stop-color="#4E5078"/>
<stop offset="1" stop-color="#F9CC45"/>
</linearGradient>
<linearGradient id="paint14_linear_7539_1569" x1="142.221" y1="37.5" x2="145.08" y2="39.7388" gradientUnits="userSpaceOnUse">
<stop stop-color="#FFEDB6"/>
<stop offset="1"/>
</linearGradient>
<linearGradient id="paint15_linear_7539_1569" x1="123.004" y1="70.4161" x2="114.546" y2="61.6945" gradientUnits="userSpaceOnUse">
<stop offset="0.0036" stop-color="#1A1919"/>
<stop offset="1" stop-color="#575245"/>
</linearGradient>
<linearGradient id="paint16_linear_7539_1569" x1="119.395" y1="69.5059" x2="112.986" y2="60.6234" gradientUnits="userSpaceOnUse">
<stop offset="0.11293" stop-color="#4E5078"/>
<stop offset="1" stop-color="#F9CC45"/>
</linearGradient>
<linearGradient id="paint17_linear_7539_1569" x1="88.9498" y1="137.01" x2="97.7093" y2="84.5369" gradientUnits="userSpaceOnUse">
<stop offset="0.0036" stop-color="#646778"/>
<stop offset="1" stop-color="#CAC1A1"/>
</linearGradient>
<linearGradient id="paint18_linear_7539_1569" x1="89.0382" y1="98.456" x2="108.543" y2="134.788" gradientUnits="userSpaceOnUse">
<stop offset="0.0036" stop-color="#3F3C33"/>
<stop offset="1" stop-color="#2C2A2F"/>
</linearGradient>
<linearGradient id="paint19_linear_7539_1569" x1="89.0382" y1="98.456" x2="108.543" y2="134.788" gradientUnits="userSpaceOnUse">
<stop offset="0.0036" stop-color="#3F3C33"/>
<stop offset="1" stop-color="#2C2A2F"/>
</linearGradient>
<linearGradient id="paint20_linear_7539_1569" x1="89.0382" y1="98.456" x2="108.543" y2="134.788" gradientUnits="userSpaceOnUse">
<stop offset="0.0036" stop-color="#3F3C33"/>
<stop offset="1" stop-color="#2C2A2F"/>
</linearGradient>
<linearGradient id="paint21_linear_7539_1569" x1="89.0382" y1="98.456" x2="108.543" y2="134.788" gradientUnits="userSpaceOnUse">
<stop offset="0.0036" stop-color="#3F3C33"/>
<stop offset="1" stop-color="#2C2A2F"/>
</linearGradient>
<linearGradient id="paint22_linear_7539_1569" x1="89.0382" y1="98.456" x2="108.543" y2="134.788" gradientUnits="userSpaceOnUse">
<stop offset="0.0036" stop-color="#3F3C33"/>
<stop offset="1" stop-color="#2C2A2F"/>
</linearGradient>
<linearGradient id="paint23_linear_7539_1569" x1="89.0382" y1="98.456" x2="108.543" y2="134.788" gradientUnits="userSpaceOnUse">
<stop offset="0.0036" stop-color="#3F3C33"/>
<stop offset="1" stop-color="#2C2A2F"/>
</linearGradient>
<linearGradient id="paint24_linear_7539_1569" x1="88.3379" y1="101.442" x2="116.673" y2="141.863" gradientUnits="userSpaceOnUse">
<stop stop-color="#F9CC45"/>
<stop offset="0.88707" stop-color="#4E5078"/>
</linearGradient>
</defs>
</svg>
