<svg width="230" height="160" viewBox="0 0 230 160" fill="none" xmlns="http://www.w3.org/2000/svg">
<path d="M115.221 145C149.487 145 177.221 116.998 177.221 82.4497C177.221 47.9009 149.487 20 115.221 20C80.9549 20 53.2207 48.0016 53.2207 82.5504C53.2207 117.2 81.0554 145 115.221 145Z" fill="black" fill-opacity="0.05"/>
<g filter="url(#filter0_dd_7539_1498)">
<circle cx="115.721" cy="66.5" r="51.5" fill="url(#paint0_radial_7539_1498)"/>
<circle cx="115.721" cy="66.5" r="51" stroke="url(#paint1_linear_7539_1498)"/>
</g>
<g filter="url(#filter1_ii_7539_1498)">
<ellipse cx="115.721" cy="66" rx="44.5" ry="45" fill="url(#paint2_linear_7539_1498)"/>
</g>
<path d="M115.721 21.5C140.016 21.5 159.721 41.418 159.721 66C159.721 90.582 140.016 110.5 115.721 110.5C91.4254 110.5 71.7207 90.582 71.7207 66C71.7207 41.418 91.4254 21.5 115.721 21.5Z" stroke="url(#paint3_linear_7539_1498)" stroke-opacity="0.4"/>
<g filter="url(#filter2_ddd_7539_1498)">
<path d="M131.33 65.2662C128.83 65.2662 127.074 64.3906 126.063 62.6393C125.061 60.888 124.56 58.3919 124.56 55.1511C124.56 51.9102 125.061 49.4096 126.063 47.6493C127.074 45.889 128.83 45.0088 131.33 45.0088C133.831 45.0088 135.587 45.889 136.598 47.6493C137.6 49.4096 138.101 51.9102 138.101 55.1511C138.101 58.3919 137.595 60.888 136.584 62.6393C135.582 64.3906 133.831 65.2662 131.33 65.2662ZM133.591 60.3237C133.944 59.1321 134.12 57.4079 134.12 55.1511C134.12 52.7859 133.939 51.0346 133.578 49.8971C133.226 48.7597 132.477 48.1909 131.33 48.1909C130.184 48.1909 129.425 48.7597 129.055 49.8971C128.685 51.0346 128.5 52.7859 128.5 55.1511C128.5 57.4079 128.685 59.1366 129.055 60.3373C129.425 61.5289 130.184 62.1247 131.33 62.1247C132.477 62.1247 133.23 61.5244 133.591 60.3237Z" fill="url(#paint4_linear_7539_1498)"/>
<path d="M115.893 65.2662C113.393 65.2662 111.637 64.3906 110.626 62.6393C109.624 60.888 109.123 58.3919 109.123 55.1511C109.123 51.9102 109.624 49.4096 110.626 47.6493C111.637 45.889 113.393 45.0088 115.893 45.0088C118.394 45.0088 120.15 45.889 121.161 47.6493C122.163 49.4096 122.664 51.9102 122.664 55.1511C122.664 58.3919 122.158 60.888 121.147 62.6393C120.145 64.3906 118.394 65.2662 115.893 65.2662ZM118.155 60.3237C118.507 59.1321 118.683 57.4079 118.683 55.1511C118.683 52.7859 118.502 51.0346 118.141 49.8971C117.789 48.7597 117.04 48.1909 115.893 48.1909C114.747 48.1909 113.989 48.7597 113.618 49.8971C113.248 51.0346 113.063 52.7859 113.063 55.1511C113.063 57.4079 113.248 59.1366 113.618 60.3373C113.989 61.5289 114.747 62.1247 115.893 62.1247C117.04 62.1247 117.794 61.5244 118.155 60.3237Z" fill="url(#paint5_linear_7539_1498)"/>
<path d="M102.461 49.1387C102 48.5881 101.341 48.3127 100.484 48.3127C99.3101 48.3127 98.5112 48.7505 98.0869 49.6262C97.8431 50.1317 97.6987 50.9352 97.6536 52.0365H93.9027C93.9659 50.3664 94.2683 49.0169 94.8099 47.9877C95.8391 46.0288 97.6671 45.0493 100.294 45.0493C102.37 45.0493 104.022 45.6271 105.25 46.7826C106.478 47.9291 107.092 49.4502 107.092 51.3459C107.092 52.7993 106.658 54.0902 105.792 55.2187C105.223 55.9679 104.289 56.803 102.989 57.7238L101.445 58.8206C100.479 59.5067 99.8156 60.0032 99.4545 60.3101C99.1025 60.617 98.8046 60.9736 98.5608 61.3799H107.132V64.7787H93.686C93.7221 63.3704 94.0246 62.084 94.5933 60.9195C95.144 59.6105 96.4439 58.2248 98.4931 56.7623C100.272 55.4895 101.423 54.5777 101.946 54.0271C102.75 53.1694 103.151 52.2306 103.151 51.2105C103.151 50.38 102.921 49.6894 102.461 49.1387Z" fill="url(#paint6_linear_7539_1498)"/>
</g>
<rect x="114.485" y="24.9136" width="2.59989" height="6.49972" fill="#979797"/>
<rect x="126.021" y="26.2041" width="0.866629" height="4.33315" transform="rotate(15 126.021 26.2041)" fill="#979797"/>
<rect x="114.485" y="100.744" width="2.59989" height="6.49972" fill="#979797"/>
<rect x="135.242" y="29.7788" width="2.59989" height="6.49972" transform="rotate(30 135.242 29.7788)" fill="#979797"/>
<rect x="97.3272" y="95.4497" width="2.59989" height="6.49972" transform="rotate(30 97.3272 95.4497)" fill="#979797"/>
<rect x="150.785" y="44.3701" width="2.59989" height="6.49972" transform="rotate(60 150.785 44.3701)" fill="#979797"/>
<rect x="85.1144" y="82.2852" width="2.59989" height="6.49972" transform="rotate(60 85.1144 82.2852)" fill="#979797"/>
<rect x="156.95" y="64.7783" width="2.59989" height="6.49972" transform="rotate(90 156.95 64.7783)" fill="#979797"/>
<rect x="81.1201" y="64.7783" width="2.59989" height="6.49972" transform="rotate(90 81.1201 64.7783)" fill="#979797"/>
<rect x="152.085" y="85.5352" width="2.59989" height="6.49972" transform="rotate(120 152.085 85.5352)" fill="#979797"/>
<rect x="86.4146" y="47.6201" width="2.59989" height="6.49972" transform="rotate(120 86.4146 47.6201)" fill="#979797"/>
<rect x="137.493" y="101.078" width="2.59989" height="6.49972" transform="rotate(150 137.493 101.078)" fill="#979797"/>
<rect x="99.5787" y="35.4072" width="2.59989" height="6.49972" transform="rotate(150 99.5787 35.4072)" fill="#979797"/>
<rect x="105.834" y="101.543" width="0.866629" height="4.33315" transform="rotate(15 105.834 101.543)" fill="#979797"/>
<rect x="144.587" y="36.6641" width="0.866629" height="4.33315" transform="rotate(45 144.587 36.6641)" fill="#979797"/>
<rect x="89.4349" y="91.8159" width="0.866629" height="4.33315" transform="rotate(45 89.4349 91.8159)" fill="#979797"/>
<rect x="155.435" y="55.0059" width="0.866629" height="4.33315" transform="rotate(75 155.435 55.0059)" fill="#979797"/>
<rect x="80.0963" y="75.1929" width="0.866629" height="4.33315" transform="rotate(75 80.0963 75.1929)" fill="#979797"/>
<rect x="155.66" y="76.314" width="0.866629" height="4.33315" transform="rotate(105 155.66 76.314)" fill="#979797"/>
<rect x="80.3207" y="56.1274" width="0.866629" height="4.33315" transform="rotate(105 80.3207 56.1274)" fill="#979797"/>
<rect x="145.2" y="94.8799" width="0.866629" height="4.33315" transform="rotate(135 145.2 94.8799)" fill="#979797"/>
<rect x="90.0479" y="39.728" width="0.866629" height="4.33315" transform="rotate(135 90.0479 39.728)" fill="#979797"/>
<rect x="126.858" y="105.729" width="0.866629" height="4.33315" transform="rotate(165 126.858 105.729)" fill="#979797"/>
<rect x="106.671" y="30.3896" width="0.866629" height="4.33315" transform="rotate(165 106.671 30.3896)" fill="#979797"/>
<rect x="110.659" y="106.925" width="0.866629" height="4.33315" transform="rotate(-172.243 110.659 106.925)" fill="#979797"/>
<rect x="121.186" y="29.6421" width="0.866629" height="4.33315" transform="rotate(-172.243 121.186 29.6421)" fill="#979797"/>
<rect x="100.262" y="104.207" width="0.866629" height="4.33315" transform="rotate(-157.243 100.262 104.207)" fill="#979797"/>
<rect x="130.432" y="32.2817" width="0.866629" height="4.33315" transform="rotate(-157.243 130.432 32.2817)" fill="#979797"/>
<rect x="90.922" y="98.8896" width="0.866629" height="4.33315" transform="rotate(-142.243 90.922 98.8896)" fill="#979797"/>
<rect x="138.68" y="37.2241" width="0.866629" height="4.33315" transform="rotate(-142.243 138.68 37.2241)" fill="#979797"/>
<rect x="83.2774" y="91.3364" width="0.866629" height="4.33315" transform="rotate(-127.243 83.2774 91.3364)" fill="#979797"/>
<rect x="145.369" y="44.1328" width="0.866629" height="4.33315" transform="rotate(-127.243 145.369 44.1328)" fill="#979797"/>
<rect x="77.8474" y="82.062" width="0.866629" height="4.33315" transform="rotate(-112.243 77.8474 82.062)" fill="#979797"/>
<rect x="150.04" y="52.5371" width="0.866629" height="4.33315" transform="rotate(-112.243 150.04 52.5371)" fill="#979797"/>
<rect x="75.0034" y="71.6982" width="0.866629" height="4.33315" transform="rotate(-97.2433 75.0034 71.6982)" fill="#979797"/>
<rect x="152.378" y="61.8647" width="0.866629" height="4.33315" transform="rotate(-97.2433 152.378 61.8647)" fill="#979797"/>
<rect x="74.9383" y="60.9517" width="0.866629" height="4.33315" transform="rotate(-82.2433 74.9383 60.9517)" fill="#979797"/>
<rect x="152.222" y="71.479" width="0.866629" height="4.33315" transform="rotate(-82.2433 152.222 71.479)" fill="#979797"/>
<rect x="77.6568" y="50.5547" width="0.866629" height="4.33315" transform="rotate(-67.2433 77.6568 50.5547)" fill="#979797"/>
<rect x="149.582" y="80.7251" width="0.866629" height="4.33315" transform="rotate(-67.2433 149.582 80.7251)" fill="#979797"/>
<rect x="82.9741" y="41.2153" width="0.866629" height="4.33315" transform="rotate(-52.2433 82.9741 41.2153)" fill="#979797"/>
<rect x="144.64" y="88.9736" width="0.866629" height="4.33315" transform="rotate(-52.2433 144.64 88.9736)" fill="#979797"/>
<rect x="90.5276" y="33.5703" width="0.866629" height="4.33315" transform="rotate(-37.2433 90.5276 33.5703)" fill="#979797"/>
<rect x="137.731" y="95.6616" width="0.866629" height="4.33315" transform="rotate(-37.2433 137.731 95.6616)" fill="#979797"/>
<rect x="99.8016" y="28.1406" width="0.866629" height="4.33315" transform="rotate(-22.2433 99.8016 28.1406)" fill="#979797"/>
<rect x="129.327" y="100.333" width="0.866629" height="4.33315" transform="rotate(-22.2433 129.327 100.333)" fill="#979797"/>
<rect x="110.165" y="25.2964" width="0.866629" height="4.33315" transform="rotate(-7.24326 110.165 25.2964)" fill="#979797"/>
<rect x="119.999" y="102.671" width="0.866629" height="4.33315" transform="rotate(-7.24326 119.999 102.671)" fill="#979797"/>
<g filter="url(#filter3_dd_7539_1498)">
<circle cx="115.401" cy="66.671" r="6.49972" transform="rotate(45 115.401 66.671)" fill="url(#paint7_linear_7539_1498)"/>
<circle cx="115.401" cy="66.671" r="5.99972" transform="rotate(45 115.401 66.671)" stroke="url(#paint8_linear_7539_1498)"/>
</g>
<g filter="url(#filter4_dd_7539_1498)">
<path d="M141.376 38.9807C142.312 38.2028 143.563 39.4538 142.785 40.389L120.272 67.4551C119.895 67.9075 119.212 67.9388 118.796 67.5228L114.243 62.9697C113.827 62.5537 113.858 61.8701 114.31 61.4938L141.376 38.9807Z" fill="url(#paint9_linear_7539_1498)"/>
<path d="M141.696 39.3654C142.164 38.9765 142.789 39.6021 142.4 40.0698L119.887 67.1352C119.699 67.3614 119.357 67.3771 119.149 67.1691L114.596 62.6164C114.388 62.4084 114.404 62.0664 114.63 61.8782L141.696 39.3654Z" stroke="#FDE290"/>
</g>
<g filter="url(#filter5_dd_7539_1498)">
<circle cx="115.401" cy="66.671" r="5.63309" transform="rotate(45 115.401 66.671)" fill="url(#paint10_linear_7539_1498)"/>
<circle cx="115.401" cy="66.671" r="5.13309" transform="rotate(45 115.401 66.671)" stroke="url(#paint11_linear_7539_1498)" stroke-opacity="0.4"/>
</g>
<path d="M86.4576 89.4467C86.3269 86.9528 88.2426 84.8252 90.7365 84.6945L137.629 82.237C140.122 82.1063 142.25 84.022 142.381 86.5159L144.838 133.408C144.969 135.902 143.053 138.03 140.559 138.16L93.6673 140.618C91.1734 140.748 89.0458 138.833 88.9151 136.339L86.4576 89.4467Z" fill="url(#paint12_linear_7539_1498)"/>
<path d="M139.273 87.0271C139.223 86.0679 138.404 85.3311 137.445 85.3813L91.2476 87.8024C90.2885 87.8527 89.5516 88.671 89.6019 89.6302L92.023 135.828C92.0733 136.787 92.8916 137.524 93.8508 137.473L140.048 135.052C141.007 135.002 141.744 134.184 141.694 133.225L139.273 87.0271ZM143.083 133.152C143.174 134.878 141.848 136.351 140.121 136.442L93.9236 138.863C92.1971 138.953 90.7241 137.627 90.6336 135.9L88.2125 89.703C88.122 87.9765 89.4483 86.5035 91.1748 86.413L137.372 83.9919C139.099 83.9015 140.572 85.2277 140.662 86.9542L143.083 133.152Z" fill="#4B4B4B"/>
<path d="M117.648 119.682C117.84 119.672 118.003 119.819 118.013 120.011L118.45 128.347C118.46 128.539 118.313 128.703 118.121 128.713L115.169 128.868C114.977 128.878 114.813 128.73 114.803 128.539L114.366 120.202C114.356 120.01 114.504 119.847 114.695 119.837L117.648 119.682Z" fill="#4B4B4B"/>
<path d="M129.084 93.7659C129.213 93.5737 129.491 93.5591 129.639 93.7368L137.715 103.393C137.916 103.634 137.721 103.997 137.409 103.962L133.588 103.53C133.375 103.506 133.191 103.679 133.202 103.894L134.44 127.509C134.45 127.701 134.302 127.865 134.111 127.875L128.206 128.184C128.014 128.194 127.85 128.047 127.84 127.855L126.602 104.239C126.591 104.025 126.39 103.872 126.18 103.918L122.425 104.747C122.119 104.815 121.887 104.474 122.062 104.213L129.084 93.7659Z" fill="#4B4B4B"/>
<path d="M103.101 94.6697C103.293 94.6597 103.457 94.8071 103.467 94.9989L104.709 118.701C104.72 118.916 104.922 119.069 105.131 119.023L108.886 118.194C109.193 118.126 109.425 118.467 109.25 118.728L102.227 129.175C102.098 129.367 101.821 129.382 101.672 129.204L93.5965 119.548C93.3952 119.307 93.5905 118.944 93.9024 118.979L97.7231 119.411C97.9366 119.435 98.1207 119.262 98.1094 119.047L96.8672 95.3448C96.8572 95.1529 97.0045 94.9893 97.1964 94.9792L103.101 94.6697Z" fill="#4B4B4B"/>
<path d="M116.974 106.83C117.166 106.82 117.33 106.967 117.34 107.159L117.777 115.495C117.787 115.687 117.639 115.851 117.448 115.861L114.495 116.016C114.303 116.026 114.14 115.878 114.13 115.687L113.693 107.35C113.683 107.158 113.83 106.995 114.022 106.985L116.974 106.83Z" fill="#4B4B4B"/>
<path d="M116.301 93.978C116.493 93.968 116.656 94.1153 116.666 94.3071L117.103 102.644C117.113 102.835 116.966 102.999 116.774 103.009L113.822 103.164C113.63 103.174 113.466 103.026 113.456 102.835L113.019 94.4983C113.009 94.3064 113.156 94.1428 113.348 94.1327L116.301 93.978Z" fill="#4B4B4B"/>
<path d="M90.7388 84.7443L137.631 82.2867C140.098 82.1576 142.202 84.0522 142.331 86.5182L144.789 133.411C144.918 135.877 143.023 137.981 140.557 138.11L93.6644 140.568C91.1983 140.697 89.0942 138.803 88.9648 136.337L86.5073 89.4438C86.3782 86.9777 88.2727 84.8736 90.7388 84.7443ZM118.401 128.35C118.409 128.514 118.283 128.654 118.119 128.662L115.166 128.817C115.002 128.826 114.862 128.7 114.853 128.536L114.416 120.199C114.407 120.035 114.534 119.895 114.698 119.886L117.651 119.731C117.815 119.723 117.955 119.849 117.964 120.013L118.401 128.35ZM117.727 115.498C117.736 115.662 117.609 115.802 117.445 115.811L114.492 115.966C114.328 115.974 114.188 115.848 114.179 115.684L113.742 107.348C113.734 107.184 113.86 107.043 114.024 107.035L116.977 106.88C117.141 106.871 117.282 106.998 117.29 107.162L117.727 115.498ZM134.389 127.513C134.398 127.677 134.272 127.816 134.108 127.825L128.203 128.134C128.039 128.142 127.898 128.017 127.89 127.853L126.652 104.237C126.639 103.992 126.409 103.816 126.169 103.869L122.414 104.698C122.152 104.756 121.953 104.464 122.103 104.241L129.125 93.7936C129.236 93.6291 129.474 93.6166 129.601 93.7686L137.676 103.425C137.849 103.631 137.681 103.942 137.414 103.912L133.595 103.48C133.35 103.453 133.139 103.651 133.152 103.896L134.389 127.513ZM104.659 118.704C104.672 118.949 104.902 119.125 105.142 119.072L108.897 118.243C109.159 118.185 109.358 118.477 109.208 118.7L102.186 129.147C102.075 129.312 101.838 129.324 101.711 129.172L93.6349 119.516C93.4625 119.31 93.6298 118.999 93.8969 119.029L97.7176 119.461C97.9618 119.488 98.1722 119.29 98.1594 119.044L96.9171 95.3417C96.9088 95.1776 97.0349 95.0382 97.199 95.0296L103.104 94.7202C103.268 94.7116 103.408 94.837 103.417 95.001L104.659 118.704ZM117.054 102.646C117.062 102.81 116.936 102.951 116.772 102.959L113.819 103.114C113.655 103.123 113.515 102.996 113.506 102.832L113.069 94.4952C113.06 94.3312 113.187 94.1919 113.351 94.1831L116.304 94.0284C116.468 94.02 116.608 94.1454 116.617 94.3093L117.054 102.646ZM143.034 133.155C143.122 134.853 141.817 136.303 140.119 136.392L93.9206 138.813C92.2219 138.902 90.7728 137.597 90.6835 135.898L88.2624 89.7C88.1736 88.0014 89.4784 86.5522 91.177 86.4629L137.375 84.0418C139.074 83.953 140.523 85.2578 140.612 86.9564L143.034 133.155ZM141.644 133.228C141.692 134.159 140.977 134.953 140.046 135.002L93.8477 137.423C92.9165 137.472 92.1222 136.757 92.0732 135.825L89.6521 89.6272C89.6035 88.6959 90.3186 87.9017 91.2498 87.8526L137.448 85.4315C138.379 85.3829 139.174 86.098 139.223 87.0293L141.644 133.228ZM118.063 120.008C118.052 119.789 117.865 119.621 117.646 119.632L114.693 119.787C114.473 119.798 114.305 119.985 114.316 120.204L114.753 128.542C114.765 128.761 114.952 128.929 115.171 128.918L118.124 128.763C118.343 128.751 118.511 128.564 118.5 128.345L118.063 120.008ZM117.39 107.157C117.378 106.937 117.191 106.769 116.972 106.78L114.019 106.935C113.8 106.947 113.631 107.134 113.643 107.353L114.08 115.689C114.091 115.908 114.278 116.077 114.497 116.065L117.45 115.91C117.67 115.899 117.838 115.712 117.827 115.493L117.39 107.157ZM133.252 103.891C133.243 103.707 133.4 103.559 133.583 103.58L137.404 104.011C137.76 104.051 137.983 103.636 137.753 103.361L129.678 93.7049C129.508 93.5017 129.19 93.5184 129.042 93.7383L122.02 104.186C121.82 104.483 122.086 104.873 122.436 104.795L126.191 103.967C126.371 103.927 126.543 104.059 126.552 104.242L127.79 127.858C127.802 128.077 127.989 128.246 128.208 128.234L134.113 127.925C134.332 127.913 134.501 127.726 134.49 127.507L133.252 103.891ZM103.516 94.9958C103.505 94.7767 103.318 94.6083 103.099 94.6197L97.1938 94.9292C96.9745 94.9407 96.8064 95.1277 96.8177 95.3469L98.0599 119.05C98.0695 119.233 97.9117 119.382 97.7291 119.361L93.9083 118.93C93.5516 118.89 93.3279 119.305 93.558 119.58L101.634 129.236C101.804 129.439 102.121 129.423 102.269 129.203L109.291 118.755C109.491 118.458 109.225 118.068 108.875 118.146L105.12 118.974C104.941 119.013 104.768 118.882 104.759 118.699L103.516 94.9958ZM116.716 94.3041C116.704 94.085 116.518 93.9166 116.298 93.9279L113.345 94.0827C113.126 94.0943 112.958 94.2813 112.969 94.5004L113.406 102.838C113.418 103.057 113.605 103.225 113.824 103.214L116.777 103.059C116.996 103.047 117.164 102.86 117.153 102.641L116.716 94.3041ZM139.323 87.024C139.271 86.0376 138.429 85.2796 137.443 85.331L91.2446 87.7522C90.2582 87.8041 89.5001 88.646 89.5516 89.6324L91.9728 135.831C92.0247 136.817 92.8666 137.575 93.853 137.524L140.051 135.103C141.038 135.051 141.796 134.209 141.744 133.222L139.323 87.024ZM140.712 86.9512C140.62 85.1975 139.124 83.8506 137.37 83.9423L91.1718 86.3635C89.4181 86.4556 88.0712 87.9514 88.1629 89.7052L90.584 135.904C90.6762 137.657 92.172 139.004 93.9258 138.912L140.124 136.491C141.878 136.399 143.225 134.903 143.133 133.15L140.712 86.9512Z" stroke="url(#paint13_linear_7539_1498)" stroke-opacity="0.4" stroke-width="0.1"/>
<path d="M145.464 76.2613V79.5112H143.986V76.1445C143.986 75.8466 143.935 75.6063 143.834 75.4235C143.702 75.1662 143.451 75.0376 143.082 75.0376C142.7 75.0376 142.409 75.1662 142.209 75.4235C142.013 75.6774 141.914 76.0413 141.914 76.5152V79.5112H140.472V72.0518H141.914V74.6973C142.124 74.3757 142.366 74.1523 142.641 74.0271C142.918 73.8984 143.209 73.8341 143.514 73.8341C143.856 73.8341 144.166 73.8933 144.443 74.0118C144.724 74.1303 144.954 74.3114 145.134 74.5552C145.286 74.7617 145.379 74.9749 145.413 75.195C145.447 75.4116 145.464 75.7671 145.464 76.2613Z" fill="#818181"/>
<path d="M136.323 79.5112L139.223 71.7979H140.426L137.517 79.5112H136.323Z" fill="#818181"/>
<path d="M131.423 75.4992C131.301 75.2318 131.063 75.0981 130.707 75.0981C130.294 75.0981 130.017 75.2318 129.875 75.4992C129.797 75.6516 129.758 75.8784 129.758 76.1797V79.5108H128.29V73.986H129.697V74.7934C129.876 74.5057 130.045 74.3009 130.205 74.179C130.486 73.9623 130.85 73.854 131.296 73.854C131.72 73.854 132.061 73.9471 132.322 74.1333C132.532 74.3059 132.691 74.5277 132.799 74.7985C132.989 74.4735 133.224 74.2348 133.505 74.0825C133.803 73.9302 134.135 73.854 134.501 73.854C134.744 73.854 134.985 73.9014 135.222 73.9962C135.459 74.091 135.674 74.2569 135.866 74.4938C136.022 74.6868 136.127 74.9237 136.181 75.2047C136.215 75.3909 136.232 75.6634 136.232 76.0223L136.222 79.5108H134.739V75.9867C134.739 75.7768 134.705 75.6042 134.638 75.4688C134.509 75.2115 134.272 75.0829 133.927 75.0829C133.527 75.0829 133.251 75.2487 133.099 75.5805C133.021 75.7565 132.982 75.9681 132.982 76.2152V79.5108H131.525V76.2152C131.525 75.8869 131.491 75.6482 131.423 75.4992Z" fill="#818181"/>
<path d="M127.605 79.5112H125.858L124.533 77.1449L123.934 77.7695V79.5112H122.512V72.0518H123.934V76.0836L125.736 74.0017H127.529L125.594 76.1192L127.605 79.5112Z" fill="#818181"/>
<defs>
<filter id="filter0_dd_7539_1498" x="50.2207" y="5" width="135" height="135" filterUnits="userSpaceOnUse" color-interpolation-filters="sRGB">
<feFlood flood-opacity="0" result="BackgroundImageFix"/>
<feColorMatrix in="SourceAlpha" type="matrix" values="0 0 0 0 0 0 0 0 0 0 0 0 0 0 0 0 0 0 127 0" result="hardAlpha"/>
<feOffset dx="2" dy="6"/>
<feGaussianBlur stdDeviation="8"/>
<feComposite in2="hardAlpha" operator="out"/>
<feColorMatrix type="matrix" values="0 0 0 0 0 0 0 0 0 0 0 0 0 0 0 0 0 0 0.24 0"/>
<feBlend mode="normal" in2="BackgroundImageFix" result="effect1_dropShadow_7539_1498"/>
<feColorMatrix in="SourceAlpha" type="matrix" values="0 0 0 0 0 0 0 0 0 0 0 0 0 0 0 0 0 0 127 0" result="hardAlpha"/>
<feOffset dy="1"/>
<feGaussianBlur stdDeviation="1"/>
<feComposite in2="hardAlpha" operator="out"/>
<feColorMatrix type="matrix" values="0 0 0 0 0 0 0 0 0 0 0 0 0 0 0 0 0 0 0.24 0"/>
<feBlend mode="normal" in2="effect1_dropShadow_7539_1498" result="effect2_dropShadow_7539_1498"/>
<feBlend mode="normal" in="SourceGraphic" in2="effect2_dropShadow_7539_1498" result="shape"/>
</filter>
<filter id="filter1_ii_7539_1498" x="71.2207" y="21" width="89" height="94" filterUnits="userSpaceOnUse" color-interpolation-filters="sRGB">
<feFlood flood-opacity="0" result="BackgroundImageFix"/>
<feBlend mode="normal" in="SourceGraphic" in2="BackgroundImageFix" result="shape"/>
<feColorMatrix in="SourceAlpha" type="matrix" values="0 0 0 0 0 0 0 0 0 0 0 0 0 0 0 0 0 0 127 0" result="hardAlpha"/>
<feOffset dy="4"/>
<feGaussianBlur stdDeviation="8"/>
<feComposite in2="hardAlpha" operator="arithmetic" k2="-1" k3="1"/>
<feColorMatrix type="matrix" values="0 0 0 0 0 0 0 0 0 0 0 0 0 0 0 0 0 0 0.14 0"/>
<feBlend mode="normal" in2="shape" result="effect1_innerShadow_7539_1498"/>
<feColorMatrix in="SourceAlpha" type="matrix" values="0 0 0 0 0 0 0 0 0 0 0 0 0 0 0 0 0 0 127 0" result="hardAlpha"/>
<feOffset dy="1"/>
<feGaussianBlur stdDeviation="0.5"/>
<feComposite in2="hardAlpha" operator="arithmetic" k2="-1" k3="1"/>
<feColorMatrix type="matrix" values="0 0 0 0 0 0 0 0 0 0 0 0 0 0 0 0 0 0 0.08 0"/>
<feBlend mode="normal" in2="effect1_innerShadow_7539_1498" result="effect2_innerShadow_7539_1498"/>
</filter>
<filter id="filter2_ddd_7539_1498" x="77.686" y="29.0088" width="76.4146" height="52.2573" filterUnits="userSpaceOnUse" color-interpolation-filters="sRGB">
<feFlood flood-opacity="0" result="BackgroundImageFix"/>
<feColorMatrix in="SourceAlpha" type="matrix" values="0 0 0 0 0 0 0 0 0 0 0 0 0 0 0 0 0 0 127 0" result="hardAlpha"/>
<feOffset dy="2"/>
<feGaussianBlur stdDeviation="2"/>
<feComposite in2="hardAlpha" operator="out"/>
<feColorMatrix type="matrix" values="0 0 0 0 0 0 0 0 0 0 0 0 0 0 0 0 0 0 0.15 0"/>
<feBlend mode="normal" in2="BackgroundImageFix" result="effect1_dropShadow_7539_1498"/>
<feColorMatrix in="SourceAlpha" type="matrix" values="0 0 0 0 0 0 0 0 0 0 0 0 0 0 0 0 0 0 127 0" result="hardAlpha"/>
<feOffset/>
<feGaussianBlur stdDeviation="8"/>
<feComposite in2="hardAlpha" operator="out"/>
<feColorMatrix type="matrix" values="0 0 0 0 1 0 0 0 0 0.905273 0 0 0 0 0.621094 0 0 0 1 0"/>
<feBlend mode="normal" in2="effect1_dropShadow_7539_1498" result="effect2_dropShadow_7539_1498"/>
<feColorMatrix in="SourceAlpha" type="matrix" values="0 0 0 0 0 0 0 0 0 0 0 0 0 0 0 0 0 0 127 0" result="hardAlpha"/>
<feOffset/>
<feGaussianBlur stdDeviation="0.5"/>
<feComposite in2="hardAlpha" operator="out"/>
<feColorMatrix type="matrix" values="0 0 0 0 0 0 0 0 0 0 0 0 0 0 0 0 0 0 0.25 0"/>
<feBlend mode="normal" in2="effect2_dropShadow_7539_1498" result="effect3_dropShadow_7539_1498"/>
<feBlend mode="normal" in="SourceGraphic" in2="effect3_dropShadow_7539_1498" result="shape"/>
</filter>
<filter id="filter3_dd_7539_1498" x="94.9011" y="50.1714" width="44.9994" height="44.9995" filterUnits="userSpaceOnUse" color-interpolation-filters="sRGB">
<feFlood flood-opacity="0" result="BackgroundImageFix"/>
<feColorMatrix in="SourceAlpha" type="matrix" values="0 0 0 0 0 0 0 0 0 0 0 0 0 0 0 0 0 0 127 0" result="hardAlpha"/>
<feOffset dx="2" dy="6"/>
<feGaussianBlur stdDeviation="8"/>
<feComposite in2="hardAlpha" operator="out"/>
<feColorMatrix type="matrix" values="0 0 0 0 0 0 0 0 0 0 0 0 0 0 0 0 0 0 0.24 0"/>
<feBlend mode="normal" in2="BackgroundImageFix" result="effect1_dropShadow_7539_1498"/>
<feColorMatrix in="SourceAlpha" type="matrix" values="0 0 0 0 0 0 0 0 0 0 0 0 0 0 0 0 0 0 127 0" result="hardAlpha"/>
<feOffset dy="1"/>
<feGaussianBlur stdDeviation="1"/>
<feComposite in2="hardAlpha" operator="out"/>
<feColorMatrix type="matrix" values="0 0 0 0 0 0 0 0 0 0 0 0 0 0 0 0 0 0 0.24 0"/>
<feBlend mode="normal" in2="effect1_dropShadow_7539_1498" result="effect2_dropShadow_7539_1498"/>
<feBlend mode="normal" in="SourceGraphic" in2="effect2_dropShadow_7539_1498" result="shape"/>
</filter>
<filter id="filter4_dd_7539_1498" x="97.9497" y="22.7368" width="61.0787" height="61.0786" filterUnits="userSpaceOnUse" color-interpolation-filters="sRGB">
<feFlood flood-opacity="0" result="BackgroundImageFix"/>
<feColorMatrix in="SourceAlpha" type="matrix" values="0 0 0 0 0 0 0 0 0 0 0 0 0 0 0 0 0 0 127 0" result="hardAlpha"/>
<feOffset dy="2"/>
<feGaussianBlur stdDeviation="2"/>
<feComposite in2="hardAlpha" operator="out"/>
<feColorMatrix type="matrix" values="0 0 0 0 0 0 0 0 0 0 0 0 0 0 0 0 0 0 0.55 0"/>
<feBlend mode="normal" in2="BackgroundImageFix" result="effect1_dropShadow_7539_1498"/>
<feColorMatrix in="SourceAlpha" type="matrix" values="0 0 0 0 0 0 0 0 0 0 0 0 0 0 0 0 0 0 127 0" result="hardAlpha"/>
<feOffset/>
<feGaussianBlur stdDeviation="8"/>
<feComposite in2="hardAlpha" operator="out"/>
<feColorMatrix type="matrix" values="0 0 0 0 1 0 0 0 0 0.905273 0 0 0 0 0.621094 0 0 0 1 0"/>
<feBlend mode="normal" in2="effect1_dropShadow_7539_1498" result="effect2_dropShadow_7539_1498"/>
<feBlend mode="normal" in="SourceGraphic" in2="effect2_dropShadow_7539_1498" result="shape"/>
</filter>
<filter id="filter5_dd_7539_1498" x="93.7677" y="49.0381" width="43.2662" height="43.2661" filterUnits="userSpaceOnUse" color-interpolation-filters="sRGB">
<feFlood flood-opacity="0" result="BackgroundImageFix"/>
<feColorMatrix in="SourceAlpha" type="matrix" values="0 0 0 0 0 0 0 0 0 0 0 0 0 0 0 0 0 0 127 0" result="hardAlpha"/>
<feOffset dy="4"/>
<feGaussianBlur stdDeviation="8"/>
<feComposite in2="hardAlpha" operator="out"/>
<feColorMatrix type="matrix" values="0 0 0 0 0 0 0 0 0 0 0 0 0 0 0 0 0 0 0.14 0"/>
<feBlend mode="normal" in2="BackgroundImageFix" result="effect1_dropShadow_7539_1498"/>
<feColorMatrix in="SourceAlpha" type="matrix" values="0 0 0 0 0 0 0 0 0 0 0 0 0 0 0 0 0 0 127 0" result="hardAlpha"/>
<feOffset dy="1"/>
<feGaussianBlur stdDeviation="0.5"/>
<feComposite in2="hardAlpha" operator="out"/>
<feColorMatrix type="matrix" values="0 0 0 0 0 0 0 0 0 0 0 0 0 0 0 0 0 0 0.08 0"/>
<feBlend mode="normal" in2="effect1_dropShadow_7539_1498" result="effect2_dropShadow_7539_1498"/>
<feBlend mode="normal" in="SourceGraphic" in2="effect2_dropShadow_7539_1498" result="shape"/>
</filter>
<radialGradient id="paint0_radial_7539_1498" cx="0" cy="0" r="1" gradientUnits="userSpaceOnUse" gradientTransform="translate(116.221 26.5) rotate(70.6342) scale(107.057 100.206)">
<stop stop-color="#D5D4D4"/>
<stop offset="0.77898" stop-color="#828282"/>
</radialGradient>
<linearGradient id="paint1_linear_7539_1498" x1="115.721" y1="15" x2="115.721" y2="118" gradientUnits="userSpaceOnUse">
<stop offset="0.0240385" stop-color="#FFF2CB"/>
<stop offset="0.129808" stop-color="#EDEDED"/>
<stop offset="0.496312" stop-color="#B6B6B6" stop-opacity="0"/>
</linearGradient>
<linearGradient id="paint2_linear_7539_1498" x1="71.9743" y1="112.699" x2="81.8532" y2="19.7544" gradientUnits="userSpaceOnUse">
<stop offset="0.0036" stop-color="#B1B1B1"/>
<stop offset="1" stop-color="#F6EDD0"/>
</linearGradient>
<linearGradient id="paint3_linear_7539_1498" x1="151.221" y1="100.5" x2="95.3336" y2="23.8336" gradientUnits="userSpaceOnUse">
<stop stop-color="#EEEEEE"/>
<stop offset="1" stop-color="#FFDF7D"/>
</linearGradient>
<linearGradient id="paint4_linear_7539_1498" x1="131.33" y1="65.2662" x2="131.33" y2="45.0088" gradientUnits="userSpaceOnUse">
<stop stop-color="#3F3F3F"/>
<stop offset="1" stop-color="#595959"/>
</linearGradient>
<linearGradient id="paint5_linear_7539_1498" x1="115.893" y1="65.2662" x2="115.893" y2="45.0088" gradientUnits="userSpaceOnUse">
<stop stop-color="#3F3F3F"/>
<stop offset="1" stop-color="#595959"/>
</linearGradient>
<linearGradient id="paint6_linear_7539_1498" x1="100.409" y1="64.7787" x2="100.409" y2="45.0493" gradientUnits="userSpaceOnUse">
<stop stop-color="#3F3F3F"/>
<stop offset="1" stop-color="#595959"/>
</linearGradient>
<linearGradient id="paint7_linear_7539_1498" x1="115.397" y1="59.8706" x2="115.397" y2="73.3108" gradientUnits="userSpaceOnUse">
<stop stop-color="#D5D4D4"/>
<stop offset="0.9964" stop-color="#828282"/>
</linearGradient>
<linearGradient id="paint8_linear_7539_1498" x1="115.401" y1="60.1713" x2="115.401" y2="73.1707" gradientUnits="userSpaceOnUse">
<stop stop-color="#EDEDED"/>
<stop offset="0.496312" stop-color="#B6B6B6" stop-opacity="0"/>
</linearGradient>
<linearGradient id="paint9_linear_7539_1498" x1="149.748" y1="32.0172" x2="105.443" y2="76.3226" gradientUnits="userSpaceOnUse">
<stop stop-color="#FFE596"/>
<stop offset="1" stop-color="#FFC61A"/>
</linearGradient>
<linearGradient id="paint10_linear_7539_1498" x1="120.102" y1="71.6272" x2="109.286" y2="72.5687" gradientUnits="userSpaceOnUse">
<stop offset="0.0036" stop-color="#ADACAC"/>
<stop offset="1" stop-color="#F6EDD0"/>
</linearGradient>
<linearGradient id="paint11_linear_7539_1498" x1="119.453" y1="68.7958" x2="111.685" y2="60.941" gradientUnits="userSpaceOnUse">
<stop stop-color="#EEEEEE"/>
<stop offset="1" stop-color="#FFDF7D"/>
</linearGradient>
<linearGradient id="paint12_linear_7539_1498" x1="88.9502" y1="137.01" x2="97.7098" y2="84.5369" gradientUnits="userSpaceOnUse">
<stop offset="0.0036" stop-color="#B4B1B7"/>
<stop offset="1" stop-color="#E2DBC6"/>
</linearGradient>
<linearGradient id="paint13_linear_7539_1498" x1="88.3384" y1="101.442" x2="116.674" y2="141.863" gradientUnits="userSpaceOnUse">
<stop stop-color="#F9CC45"/>
<stop offset="0.88707" stop-color="#4E5078"/>
</linearGradient>
</defs>
</svg>
