<svg xmlns="http://www.w3.org/2000/svg" width="230" height="160" fill="none"><path fill="#000" fill-opacity=".05" d="M115.221 145c34.266 0 62-28.002 62-62.55 0-34.55-27.734-62.45-62-62.45s-62 28.002-62 62.55c0 34.65 27.834 62.45 62 62.45"/><g filter="url(#a)"><circle cx="115.721" cy="66.5" r="51.5" fill="url(#b)"/><circle cx="115.721" cy="66.5" r="51" stroke="url(#c)"/></g><g filter="url(#d)"><ellipse cx="115.721" cy="66" fill="url(#e)" rx="44.5" ry="45"/></g><path stroke="url(#f)" stroke-opacity=".4" d="M115.721 21.5c24.295 0 44 19.918 44 44.5s-19.705 44.5-44 44.5-44-19.918-44-44.5 19.704-44.5 44-44.5Z"/><g filter="url(#g)"><path fill="url(#h)" d="M131.33 65.266q-3.75 0-5.267-2.627-1.503-2.626-1.503-7.488 0-4.86 1.503-7.502 1.517-2.64 5.267-2.64t5.268 2.64q1.503 2.64 1.503 7.502 0 4.86-1.517 7.488-1.503 2.628-5.254 2.627m2.261-4.942q.53-1.788.529-5.173 0-3.547-.542-5.254-.528-1.706-2.248-1.706t-2.275 1.706-.555 5.254q0 3.386.555 5.186.555 1.788 2.275 1.788t2.261-1.801"/><path fill="url(#i)" d="M115.893 65.266q-3.75 0-5.267-2.627-1.503-2.626-1.503-7.488 0-4.86 1.503-7.502 1.517-2.64 5.267-2.64 3.752 0 5.268 2.64 1.503 2.64 1.503 7.502 0 4.86-1.517 7.488-1.503 2.628-5.254 2.627m2.262-4.942q.528-1.788.528-5.173 0-3.547-.542-5.254-.528-1.706-2.248-1.706-1.719 0-2.275 1.706-.555 1.707-.555 5.254 0 3.386.555 5.186.556 1.788 2.275 1.788 1.72 0 2.262-1.801"/><path fill="url(#j)" d="M102.461 49.139q-.692-.826-1.977-.826-1.761 0-2.397 1.313-.366.76-.433 2.41h-3.751q.094-2.506.907-4.048 1.544-2.94 5.484-2.939 3.114 0 4.956 1.734 1.842 1.719 1.842 4.563 0 2.18-1.3 3.873-.853 1.123-2.803 2.505l-1.544 1.097q-1.45 1.029-1.99 1.49a4.4 4.4 0 0 0-.894 1.069h8.571v3.399H93.686q.055-2.113.907-3.86.826-1.962 3.9-4.157 2.668-1.909 3.453-2.735 1.206-1.286 1.205-2.816 0-1.247-.69-2.072"/></g><path fill="#979797" d="M114.485 24.914h2.6v6.5h-2.6zM126.021 26.204l.837.224-1.121 4.186-.837-.225zM114.485 100.744h2.6v6.5h-2.6zM135.242 29.779l2.252 1.3-3.25 5.63-2.252-1.3zM97.327 95.45l2.252 1.3-3.25 5.629-2.252-1.3zM150.785 44.37l1.3 2.252-5.63 3.25-1.3-2.252zM85.114 82.285l1.3 2.251-5.629 3.25-1.3-2.251zM156.95 64.778v2.6h-6.5v-2.6zM81.12 64.778v2.6h-6.5v-2.6zM152.085 85.535l-1.3 2.252-5.629-3.25 1.3-2.252zM86.414 47.62l-1.3 2.252-5.629-3.25 1.3-2.252zM137.493 101.078l-2.252 1.3-3.25-5.63 2.252-1.3zM99.579 35.408l-2.252 1.3-3.25-5.63 2.252-1.3zM105.834 101.543l.837.224-1.121 4.186-.837-.225zM144.587 36.664l.613.613-3.064 3.064-.613-.613zM89.435 91.816l.613.613-3.064 3.064-.613-.613zM155.435 55.006l.224.837-4.185 1.122-.224-.838zM80.096 75.193l.225.837-4.186 1.122-.224-.838zM155.66 76.314l-.224.837-4.186-1.121.225-.837zM80.321 56.128l-.224.837-4.186-1.121.225-.838zM145.2 94.88l-.613.613-3.064-3.064.613-.613zM90.048 39.728l-.613.613-3.064-3.064.613-.613zM126.858 105.729l-.837.224-1.122-4.185.838-.224zM106.67 30.39l-.837.224-1.121-4.186.837-.224zM110.659 106.925l-.86-.117.586-4.293.859.117zM121.186 29.642l-.86-.117.586-4.293.859.117zM100.262 104.207l-.8-.335 1.677-3.996.8.335zM130.432 32.281l-.8-.335 1.677-3.996.8.336zM90.922 98.89l-.685-.532 2.653-3.425.685.53zM138.68 37.224l-.686-.53 2.654-3.426.685.53zM83.277 91.337l-.524-.69 3.449-2.623.525.69zM145.37 44.133l-.526-.69 3.45-2.623.525.69zM77.848 82.062l-.329-.802 4.01-1.64.33.802zM150.04 52.537l-.328-.802 4.01-1.64.328.802zM75.003 71.699l-.11-.86 4.3-.547.109.86zM152.378 61.865l-.109-.86 4.298-.547.11.86zM74.939 60.952l.117-.859 4.293.585-.117.859zM152.222 71.479l.117-.86 4.293.586-.117.859zM77.657 50.555l.336-.8 3.995 1.676-.335.8zM149.582 80.725l.335-.8 3.996 1.677-.335.8zM82.974 41.215l.53-.685 3.426 2.653-.53.685zM144.64 88.974l.531-.686 3.426 2.654-.53.685zM90.528 33.57l.69-.525 2.622 3.45-.69.524zM137.731 95.662l.69-.525 2.623 3.45-.69.524zM99.802 28.14l.803-.327 1.64 4.01-.803.328zM129.327 100.333l.802-.328 1.64 4.01-.802.329zM110.165 25.296l.86-.11.546 4.3-.86.108zM119.999 102.671l.86-.11.546 4.3-.86.108z"/><g filter="url(#k)"><circle cx="115.401" cy="66.671" r="6.5" fill="url(#l)" transform="rotate(45 115.401 66.671)"/><circle cx="115.401" cy="66.671" r="6" stroke="url(#m)" transform="rotate(45 115.401 66.671)"/></g><g filter="url(#n)"><path fill="url(#o)" d="M141.376 38.98c.936-.777 2.187.474 1.409 1.409l-22.513 27.066a1 1 0 0 1-1.476.068l-4.553-4.553a1 1 0 0 1 .067-1.476z"/><path stroke="#fde290" d="M141.696 39.365c.468-.389 1.093.237.704.705l-22.513 27.065a.5.5 0 0 1-.738.034l-4.553-4.553a.5.5 0 0 1 .034-.738z"/></g><g filter="url(#p)"><circle cx="115.401" cy="66.671" r="5.633" fill="url(#q)" transform="rotate(45 115.401 66.671)"/><circle cx="115.401" cy="66.671" r="5.133" stroke="url(#r)" stroke-opacity=".4" transform="rotate(45 115.401 66.671)"/></g><path fill="url(#s)" d="M86.458 89.447a4.52 4.52 0 0 1 4.279-4.752l46.892-2.458a4.52 4.52 0 0 1 4.752 4.279l2.457 46.892a4.52 4.52 0 0 1-4.279 4.752l-46.892 2.458a4.52 4.52 0 0 1-4.752-4.279z"/><path fill="#4b4b4b" d="M139.273 87.027a1.74 1.74 0 0 0-1.828-1.646l-46.197 2.421a1.74 1.74 0 0 0-1.646 1.828l2.421 46.198c.05.959.869 1.696 1.828 1.645l46.197-2.421a1.74 1.74 0 0 0 1.646-1.827zm3.81 46.125a3.13 3.13 0 0 1-2.962 3.29l-46.197 2.421a3.13 3.13 0 0 1-3.29-2.963l-2.421-46.197a3.13 3.13 0 0 1 2.962-3.29l46.197-2.421a3.13 3.13 0 0 1 3.29 2.962z"/><path fill="#4b4b4b" d="M117.648 119.682a.347.347 0 0 1 .365.329l.437 8.336a.35.35 0 0 1-.329.366l-2.952.155a.35.35 0 0 1-.366-.329l-.437-8.337a.35.35 0 0 1 .329-.365zM129.084 93.766a.347.347 0 0 1 .555-.03l8.076 9.657a.348.348 0 0 1-.306.569l-3.821-.432a.348.348 0 0 0-.386.364l1.238 23.615a.35.35 0 0 1-.329.366l-5.905.309a.35.35 0 0 1-.366-.329l-1.238-23.616a.348.348 0 0 0-.422-.321l-3.755.829a.348.348 0 0 1-.363-.534zM103.101 94.67a.35.35 0 0 1 .366.329l1.242 23.702a.348.348 0 0 0 .422.322l3.755-.829a.348.348 0 0 1 .364.534l-7.023 10.447a.347.347 0 0 1-.555.029l-8.075-9.656a.348.348 0 0 1 .305-.569l3.821.432a.348.348 0 0 0 .386-.364l-1.242-23.702a.35.35 0 0 1 .33-.366zM116.974 106.83a.35.35 0 0 1 .366.329l.437 8.336a.35.35 0 0 1-.329.366l-2.953.155a.35.35 0 0 1-.365-.329l-.437-8.337a.347.347 0 0 1 .329-.365zM116.301 93.978a.347.347 0 0 1 .365.33l.437 8.336a.35.35 0 0 1-.329.365l-2.952.155a.35.35 0 0 1-.366-.329l-.437-8.337a.35.35 0 0 1 .329-.365z"/><path stroke="url(#t)" stroke-opacity=".4" stroke-width=".1" d="m90.739 84.744 46.892-2.457a4.47 4.47 0 0 1 4.7 4.231l2.458 46.893a4.47 4.47 0 0 1-4.232 4.699l-46.893 2.458a4.47 4.47 0 0 1-4.7-4.231l-2.457-46.893a4.47 4.47 0 0 1 4.232-4.7ZM118.4 128.35a.297.297 0 0 1-.282.312l-2.953.155a.297.297 0 0 1-.313-.281l-.437-8.337a.3.3 0 0 1 .282-.313l2.953-.155a.3.3 0 0 1 .313.282zm-.674-12.852a.3.3 0 0 1-.282.313l-2.953.155a.3.3 0 0 1-.313-.282l-.437-8.336a.3.3 0 0 1 .282-.313l2.953-.155a.3.3 0 0 1 .313.282zm16.662 12.015a.297.297 0 0 1-.281.312l-5.905.309a.3.3 0 0 1-.313-.281l-1.238-23.616a.398.398 0 0 0-.483-.368l-3.755.829a.298.298 0 0 1-.311-.457l7.022-10.447a.298.298 0 0 1 .476-.025l8.075 9.656a.298.298 0 0 1-.262.487l-3.819-.432a.4.4 0 0 0-.443.416zm-29.73-8.809a.398.398 0 0 0 .483.368l3.755-.829a.298.298 0 0 1 .311.457l-7.022 10.447a.297.297 0 0 1-.475.025l-8.076-9.656a.298.298 0 0 1 .262-.487l3.82.432a.398.398 0 0 0 .442-.417l-1.242-23.702a.297.297 0 0 1 .282-.312l5.905-.31a.3.3 0 0 1 .313.281zm12.395-16.058a.3.3 0 0 1-.282.313l-2.953.155a.3.3 0 0 1-.313-.282l-.437-8.337a.297.297 0 0 1 .282-.312l2.953-.155a.3.3 0 0 1 .313.281zm25.98 30.509a3.08 3.08 0 0 1-2.915 3.237l-46.198 2.421a3.08 3.08 0 0 1-3.238-2.915L88.264 89.7a3.08 3.08 0 0 1 2.914-3.237l46.198-2.421a3.08 3.08 0 0 1 3.237 2.914zm-1.39.073a1.69 1.69 0 0 1-1.598 1.774l-46.198 2.421a1.69 1.69 0 0 1-1.775-1.598l-2.42-46.198a1.69 1.69 0 0 1 1.597-1.774l46.198-2.421a1.69 1.69 0 0 1 1.775 1.597zm-23.581-13.22a.397.397 0 0 0-.417-.376l-2.953.155a.397.397 0 0 0-.377.417l.437 8.338a.4.4 0 0 0 .418.376l2.953-.155a.4.4 0 0 0 .376-.418zm-.673-12.851a.4.4 0 0 0-.418-.377l-2.953.155a.4.4 0 0 0-.376.418l.437 8.336a.396.396 0 0 0 .417.376l2.953-.155a.397.397 0 0 0 .377-.417zm15.862-3.266a.297.297 0 0 1 .331-.311l3.821.431a.397.397 0 0 0 .349-.65l-8.075-9.656a.4.4 0 0 0-.636.033l-7.022 10.448c-.2.297.066.687.416.609l3.755-.828c.18-.04.352.092.361.275l1.238 23.616a.4.4 0 0 0 .418.376l5.905-.309a.4.4 0 0 0 .377-.418zm-29.736-8.895a.397.397 0 0 0-.417-.376l-5.905.31a.4.4 0 0 0-.376.417l1.242 23.703a.298.298 0 0 1-.33.311l-3.822-.431a.398.398 0 0 0-.35.65l8.076 9.656c.17.203.487.187.635-.033l7.022-10.448a.397.397 0 0 0-.416-.609l-3.755.828a.298.298 0 0 1-.361-.275zm13.2-.692a.4.4 0 0 0-.418-.376l-2.953.155a.4.4 0 0 0-.376.417l.437 8.338a.4.4 0 0 0 .418.376l2.953-.155a.4.4 0 0 0 .376-.418zm22.607-7.28a1.79 1.79 0 0 0-1.88-1.693l-46.198 2.421a1.79 1.79 0 0 0-1.693 1.88l2.42 46.199a1.79 1.79 0 0 0 1.881 1.693l46.198-2.421a1.79 1.79 0 0 0 1.693-1.881zm1.389-.073a3.18 3.18 0 0 0-3.342-3.009l-46.198 2.422a3.18 3.18 0 0 0-3.01 3.341l2.422 46.199a3.18 3.18 0 0 0 3.342 3.008l46.198-2.421a3.18 3.18 0 0 0 3.009-3.341z"/><path fill="#818181" d="M145.464 76.261v3.25h-1.478v-3.367q0-.446-.152-.72-.198-.386-.752-.386-.573 0-.873.386-.294.38-.295 1.091v2.996h-1.442v-7.46h1.442v2.646q.315-.482.727-.67.416-.193.873-.193.513 0 .929.178.421.178.691.543.228.31.279.64.051.325.051 1.066M136.323 79.511l2.9-7.713h1.203l-2.909 7.713zM131.423 75.5q-.183-.402-.716-.402-.62 0-.832.401-.117.23-.117.68v3.332h-1.468v-5.525h1.407v.807q.268-.43.508-.614.422-.325 1.091-.325.635 0 1.026.28.315.258.477.665.285-.488.706-.717.447-.228.996-.228.365 0 .721.142a1.6 1.6 0 0 1 .644.498q.234.29.315.71.051.28.051.818l-.01 3.489h-1.483v-3.524q0-.315-.101-.518-.194-.386-.711-.386-.6 0-.828.498a1.6 1.6 0 0 0-.117.634v3.296h-1.457v-3.296q0-.492-.102-.716M127.605 79.511h-1.747l-1.325-2.366-.599.624v1.742h-1.422v-7.46h1.422v4.033l1.802-2.082h1.793l-1.935 2.117z"/><defs><linearGradient id="c" x1="115.721" x2="115.721" y1="15" y2="118" gradientUnits="userSpaceOnUse"><stop offset=".024" stop-color="#fff2cb"/><stop offset=".13" stop-color="#ededed"/><stop offset=".496" stop-color="#b6b6b6" stop-opacity="0"/></linearGradient><linearGradient id="e" x1="71.974" x2="81.853" y1="112.699" y2="19.754" gradientUnits="userSpaceOnUse"><stop offset=".004" stop-color="#b1b1b1"/><stop offset="1" stop-color="#f6edd0"/></linearGradient><linearGradient id="f" x1="151.221" x2="95.334" y1="100.5" y2="23.834" gradientUnits="userSpaceOnUse"><stop stop-color="#eee"/><stop offset="1" stop-color="#ffdf7d"/></linearGradient><linearGradient id="h" x1="131.33" x2="131.33" y1="65.266" y2="45.009" gradientUnits="userSpaceOnUse"><stop stop-color="#3f3f3f"/><stop offset="1" stop-color="#595959"/></linearGradient><linearGradient id="i" x1="115.893" x2="115.893" y1="65.266" y2="45.009" gradientUnits="userSpaceOnUse"><stop stop-color="#3f3f3f"/><stop offset="1" stop-color="#595959"/></linearGradient><linearGradient id="j" x1="100.409" x2="100.409" y1="64.779" y2="45.049" gradientUnits="userSpaceOnUse"><stop stop-color="#3f3f3f"/><stop offset="1" stop-color="#595959"/></linearGradient><linearGradient id="l" x1="115.397" x2="115.397" y1="59.871" y2="73.311" gradientUnits="userSpaceOnUse"><stop stop-color="#d5d4d4"/><stop offset=".996" stop-color="#828282"/></linearGradient><linearGradient id="m" x1="115.401" x2="115.401" y1="60.171" y2="73.171" gradientUnits="userSpaceOnUse"><stop stop-color="#ededed"/><stop offset=".496" stop-color="#b6b6b6" stop-opacity="0"/></linearGradient><linearGradient id="o" x1="149.748" x2="105.443" y1="32.017" y2="76.323" gradientUnits="userSpaceOnUse"><stop stop-color="#ffe596"/><stop offset="1" stop-color="#ffc61a"/></linearGradient><linearGradient id="q" x1="120.102" x2="109.286" y1="71.627" y2="72.569" gradientUnits="userSpaceOnUse"><stop offset=".004" stop-color="#adacac"/><stop offset="1" stop-color="#f6edd0"/></linearGradient><linearGradient id="r" x1="119.453" x2="111.685" y1="68.796" y2="60.941" gradientUnits="userSpaceOnUse"><stop stop-color="#eee"/><stop offset="1" stop-color="#ffdf7d"/></linearGradient><linearGradient id="s" x1="88.95" x2="97.71" y1="137.01" y2="84.537" gradientUnits="userSpaceOnUse"><stop offset=".004" stop-color="#b4b1b7"/><stop offset="1" stop-color="#e2dbc6"/></linearGradient><linearGradient id="t" x1="88.338" x2="116.674" y1="101.442" y2="141.863" gradientUnits="userSpaceOnUse"><stop stop-color="#f9cc45"/><stop offset=".887" stop-color="#4e5078"/></linearGradient><filter id="a" width="135" height="135" x="50.221" y="5" color-interpolation-filters="sRGB" filterUnits="userSpaceOnUse"><feFlood flood-opacity="0" result="BackgroundImageFix"/><feColorMatrix in="SourceAlpha" result="hardAlpha" values="0 0 0 0 0 0 0 0 0 0 0 0 0 0 0 0 0 0 127 0"/><feOffset dx="2" dy="6"/><feGaussianBlur stdDeviation="8"/><feComposite in2="hardAlpha" operator="out"/><feColorMatrix values="0 0 0 0 0 0 0 0 0 0 0 0 0 0 0 0 0 0 0.24 0"/><feBlend in2="BackgroundImageFix" result="effect1_dropShadow_7539_1498"/><feColorMatrix in="SourceAlpha" result="hardAlpha" values="0 0 0 0 0 0 0 0 0 0 0 0 0 0 0 0 0 0 127 0"/><feOffset dy="1"/><feGaussianBlur stdDeviation="1"/><feComposite in2="hardAlpha" operator="out"/><feColorMatrix values="0 0 0 0 0 0 0 0 0 0 0 0 0 0 0 0 0 0 0.24 0"/><feBlend in2="effect1_dropShadow_7539_1498" result="effect2_dropShadow_7539_1498"/><feBlend in="SourceGraphic" in2="effect2_dropShadow_7539_1498" result="shape"/></filter><filter id="d" width="89" height="94" x="71.221" y="21" color-interpolation-filters="sRGB" filterUnits="userSpaceOnUse"><feFlood flood-opacity="0" result="BackgroundImageFix"/><feBlend in="SourceGraphic" in2="BackgroundImageFix" result="shape"/><feColorMatrix in="SourceAlpha" result="hardAlpha" values="0 0 0 0 0 0 0 0 0 0 0 0 0 0 0 0 0 0 127 0"/><feOffset dy="4"/><feGaussianBlur stdDeviation="8"/><feComposite in2="hardAlpha" k2="-1" k3="1" operator="arithmetic"/><feColorMatrix values="0 0 0 0 0 0 0 0 0 0 0 0 0 0 0 0 0 0 0.14 0"/><feBlend in2="shape" result="effect1_innerShadow_7539_1498"/><feColorMatrix in="SourceAlpha" result="hardAlpha" values="0 0 0 0 0 0 0 0 0 0 0 0 0 0 0 0 0 0 127 0"/><feOffset dy="1"/><feGaussianBlur stdDeviation=".5"/><feComposite in2="hardAlpha" k2="-1" k3="1" operator="arithmetic"/><feColorMatrix values="0 0 0 0 0 0 0 0 0 0 0 0 0 0 0 0 0 0 0.08 0"/><feBlend in2="effect1_innerShadow_7539_1498" result="effect2_innerShadow_7539_1498"/></filter><filter id="g" width="76.415" height="52.257" x="77.686" y="29.009" color-interpolation-filters="sRGB" filterUnits="userSpaceOnUse"><feFlood flood-opacity="0" result="BackgroundImageFix"/><feColorMatrix in="SourceAlpha" result="hardAlpha" values="0 0 0 0 0 0 0 0 0 0 0 0 0 0 0 0 0 0 127 0"/><feOffset dy="2"/><feGaussianBlur stdDeviation="2"/><feComposite in2="hardAlpha" operator="out"/><feColorMatrix values="0 0 0 0 0 0 0 0 0 0 0 0 0 0 0 0 0 0 0.15 0"/><feBlend in2="BackgroundImageFix" result="effect1_dropShadow_7539_1498"/><feColorMatrix in="SourceAlpha" result="hardAlpha" values="0 0 0 0 0 0 0 0 0 0 0 0 0 0 0 0 0 0 127 0"/><feOffset/><feGaussianBlur stdDeviation="8"/><feComposite in2="hardAlpha" operator="out"/><feColorMatrix values="0 0 0 0 1 0 0 0 0 0.905273 0 0 0 0 0.621094 0 0 0 1 0"/><feBlend in2="effect1_dropShadow_7539_1498" result="effect2_dropShadow_7539_1498"/><feColorMatrix in="SourceAlpha" result="hardAlpha" values="0 0 0 0 0 0 0 0 0 0 0 0 0 0 0 0 0 0 127 0"/><feOffset/><feGaussianBlur stdDeviation=".5"/><feComposite in2="hardAlpha" operator="out"/><feColorMatrix values="0 0 0 0 0 0 0 0 0 0 0 0 0 0 0 0 0 0 0.25 0"/><feBlend in2="effect2_dropShadow_7539_1498" result="effect3_dropShadow_7539_1498"/><feBlend in="SourceGraphic" in2="effect3_dropShadow_7539_1498" result="shape"/></filter><filter id="k" width="44.999" height="44.999" x="94.901" y="50.171" color-interpolation-filters="sRGB" filterUnits="userSpaceOnUse"><feFlood flood-opacity="0" result="BackgroundImageFix"/><feColorMatrix in="SourceAlpha" result="hardAlpha" values="0 0 0 0 0 0 0 0 0 0 0 0 0 0 0 0 0 0 127 0"/><feOffset dx="2" dy="6"/><feGaussianBlur stdDeviation="8"/><feComposite in2="hardAlpha" operator="out"/><feColorMatrix values="0 0 0 0 0 0 0 0 0 0 0 0 0 0 0 0 0 0 0.24 0"/><feBlend in2="BackgroundImageFix" result="effect1_dropShadow_7539_1498"/><feColorMatrix in="SourceAlpha" result="hardAlpha" values="0 0 0 0 0 0 0 0 0 0 0 0 0 0 0 0 0 0 127 0"/><feOffset dy="1"/><feGaussianBlur stdDeviation="1"/><feComposite in2="hardAlpha" operator="out"/><feColorMatrix values="0 0 0 0 0 0 0 0 0 0 0 0 0 0 0 0 0 0 0.24 0"/><feBlend in2="effect1_dropShadow_7539_1498" result="effect2_dropShadow_7539_1498"/><feBlend in="SourceGraphic" in2="effect2_dropShadow_7539_1498" result="shape"/></filter><filter id="n" width="61.079" height="61.079" x="97.95" y="22.737" color-interpolation-filters="sRGB" filterUnits="userSpaceOnUse"><feFlood flood-opacity="0" result="BackgroundImageFix"/><feColorMatrix in="SourceAlpha" result="hardAlpha" values="0 0 0 0 0 0 0 0 0 0 0 0 0 0 0 0 0 0 127 0"/><feOffset dy="2"/><feGaussianBlur stdDeviation="2"/><feComposite in2="hardAlpha" operator="out"/><feColorMatrix values="0 0 0 0 0 0 0 0 0 0 0 0 0 0 0 0 0 0 0.55 0"/><feBlend in2="BackgroundImageFix" result="effect1_dropShadow_7539_1498"/><feColorMatrix in="SourceAlpha" result="hardAlpha" values="0 0 0 0 0 0 0 0 0 0 0 0 0 0 0 0 0 0 127 0"/><feOffset/><feGaussianBlur stdDeviation="8"/><feComposite in2="hardAlpha" operator="out"/><feColorMatrix values="0 0 0 0 1 0 0 0 0 0.905273 0 0 0 0 0.621094 0 0 0 1 0"/><feBlend in2="effect1_dropShadow_7539_1498" result="effect2_dropShadow_7539_1498"/><feBlend in="SourceGraphic" in2="effect2_dropShadow_7539_1498" result="shape"/></filter><filter id="p" width="43.266" height="43.266" x="93.768" y="49.038" color-interpolation-filters="sRGB" filterUnits="userSpaceOnUse"><feFlood flood-opacity="0" result="BackgroundImageFix"/><feColorMatrix in="SourceAlpha" result="hardAlpha" values="0 0 0 0 0 0 0 0 0 0 0 0 0 0 0 0 0 0 127 0"/><feOffset dy="4"/><feGaussianBlur stdDeviation="8"/><feComposite in2="hardAlpha" operator="out"/><feColorMatrix values="0 0 0 0 0 0 0 0 0 0 0 0 0 0 0 0 0 0 0.14 0"/><feBlend in2="BackgroundImageFix" result="effect1_dropShadow_7539_1498"/><feColorMatrix in="SourceAlpha" result="hardAlpha" values="0 0 0 0 0 0 0 0 0 0 0 0 0 0 0 0 0 0 127 0"/><feOffset dy="1"/><feGaussianBlur stdDeviation=".5"/><feComposite in2="hardAlpha" operator="out"/><feColorMatrix values="0 0 0 0 0 0 0 0 0 0 0 0 0 0 0 0 0 0 0.08 0"/><feBlend in2="effect1_dropShadow_7539_1498" result="effect2_dropShadow_7539_1498"/><feBlend in="SourceGraphic" in2="effect2_dropShadow_7539_1498" result="shape"/></filter><radialGradient id="b" cx="0" cy="0" r="1" gradientTransform="rotate(70.634 39.409 95.27)scale(107.057 100.206)" gradientUnits="userSpaceOnUse"><stop stop-color="#d5d4d4"/><stop offset=".779" stop-color="#828282"/></radialGradient></defs></svg>