<svg xmlns="http://www.w3.org/2000/svg" width="230" height="160" fill="none"><path fill="#000" fill-opacity=".2" d="M115.221 145c34.266 0 62-28.002 62-62.55 0-34.55-27.734-62.45-62-62.45s-62 28.002-62 62.55c0 34.65 27.834 62.45 62 62.45"/><g filter="url(#a)"><circle cx="115.721" cy="66.5" r="51.5" fill="url(#b)"/></g><circle cx="115.721" cy="66.5" r="51" stroke="url(#c)" stroke-opacity=".2"/><g filter="url(#d)"><ellipse cx="115.721" cy="66" fill="url(#e)" rx="44.5" ry="45"/></g><path stroke="url(#f)" d="M115.721 21.5c24.295 0 44 19.918 44 44.5s-19.705 44.5-44 44.5-44-19.918-44-44.5 19.704-44.5 44-44.5Z"/><g stroke-width=".5" filter="url(#g)"><path fill="url(#h)" stroke="url(#i)" d="M131.33 45.259c2.435 0 4.094.85 5.05 2.514.971 1.707 1.471 4.158 1.471 7.378 0 3.02-.443 5.358-1.305 7.036l-.179.328c-.946 1.653-2.601 2.502-5.037 2.502-2.283 0-3.885-.745-4.863-2.202l-.188-.3c-.971-1.697-1.469-4.143-1.469-7.364s.498-5.672 1.469-7.379c.956-1.663 2.616-2.513 5.051-2.513Zm0 2.682c-.616 0-1.147.154-1.578.477-.43.322-.738.797-.935 1.401-.382 1.177-.567 2.961-.567 5.332 0 2.124.163 3.802.497 5.022l.069.238c.196.63.502 1.126.931 1.463.431.339.965.501 1.583.501.619 0 1.152-.163 1.581-.505.427-.34.729-.84.92-1.474v-.002c.362-1.226.538-2.978.538-5.243 0-2.37-.18-4.154-.554-5.33-.187-.604-.486-1.08-.912-1.403-.427-.324-.957-.477-1.573-.477Z"/><path fill="url(#j)" stroke="url(#k)" d="M115.893 45.259c2.435 0 4.094.85 5.05 2.514.971 1.707 1.471 4.158 1.471 7.378 0 3.02-.442 5.358-1.305 7.036l-.179.328c-.946 1.653-2.601 2.502-5.037 2.502-2.283 0-3.885-.745-4.863-2.202l-.187-.3c-.971-1.697-1.47-4.143-1.47-7.364s.498-5.672 1.47-7.379c.955-1.663 2.615-2.513 5.05-2.513Zm0 2.682c-.615 0-1.147.154-1.578.477-.43.322-.738.797-.934 1.401-.383 1.177-.568 2.961-.568 5.332 0 2.124.163 3.802.497 5.022l.07.238c.195.63.501 1.126.93 1.463.431.339.965.501 1.583.501.619 0 1.152-.163 1.581-.505.428-.34.729-.84.92-1.474v-.002c.363-1.226.538-2.978.538-5.243 0-2.37-.18-4.154-.553-5.33-.188-.604-.487-1.08-.912-1.403-.427-.324-.958-.477-1.574-.477Z"/><path fill="url(#l)" stroke="url(#m)" d="M100.294 45.3c2.028 0 3.614.562 4.785 1.664l.001.001c1.17 1.093 1.761 2.545 1.761 4.381 0 1.4-.416 2.636-1.248 3.72l-.001.002c-.478.63-1.234 1.334-2.281 2.113l-.467.339-1.544 1.097c-.965.686-1.637 1.188-2.007 1.503l-.003.002a4.7 4.7 0 0 0-.944 1.13l-.226.377h8.762v2.9H93.949q.094-1.911.869-3.5l.006-.013c.523-1.244 1.778-2.596 3.814-4.05 1.776-1.272 2.947-2.196 3.489-2.766l.001-.002c.84-.897 1.273-1.894 1.273-2.988 0-.879-.244-1.63-.748-2.232-.517-.619-1.253-.915-2.169-.915-.617 0-1.154.114-1.6.358-.448.246-.789.615-1.022 1.096v.001c-.247.513-.39 1.277-.445 2.269h-3.25c.083-1.527.373-2.75.864-3.683.978-1.86 2.709-2.805 5.263-2.805Z"/></g><path fill="#636363" d="M114.485 24.914h2.6v6.5h-2.6z"/><path fill="#383838" d="m126.021 26.204.837.224-1.121 4.186-.837-.225z"/><path fill="#636363" d="M114.485 100.744h2.6v6.5h-2.6zM135.242 29.779l2.252 1.3-3.25 5.63-2.252-1.3zM97.327 95.45l2.252 1.3-3.25 5.629-2.252-1.3zM150.785 44.37l1.3 2.252-5.63 3.25-1.3-2.252zM85.114 82.285l1.3 2.251-5.629 3.25-1.3-2.251zM156.95 64.778v2.6h-6.5v-2.6zM81.12 64.778v2.6h-6.5v-2.6zM152.085 85.535l-1.3 2.252-5.629-3.25 1.3-2.252zM86.414 47.62l-1.3 2.252-5.629-3.25 1.3-2.252zM137.493 101.078l-2.252 1.3-3.25-5.63 2.252-1.3zM99.579 35.408l-2.252 1.3-3.25-5.63 2.252-1.3z"/><path fill="#383838" d="m105.834 101.543.837.224-1.121 4.186-.837-.225zM144.587 36.664l.613.613-3.064 3.064-.613-.613zM89.435 91.816l.613.613-3.064 3.064-.613-.613zM155.435 55.006l.224.837-4.185 1.122-.224-.838zM80.096 75.193l.225.837-4.186 1.122-.224-.838zM155.66 76.314l-.224.837-4.186-1.121.225-.837zM80.321 56.128l-.224.837-4.186-1.121.225-.838zM145.2 94.88l-.613.613-3.064-3.064.613-.613zM90.048 39.728l-.613.613-3.064-3.064.613-.613zM126.858 105.729l-.837.224-1.122-4.185.838-.224zM106.67 30.39l-.837.224-1.121-4.186.837-.224zM110.659 106.925l-.86-.117.586-4.293.859.117zM121.186 29.642l-.86-.117.586-4.293.859.117zM100.262 104.207l-.8-.335 1.677-3.996.8.335zM130.432 32.281l-.8-.335 1.677-3.996.8.336zM90.922 98.89l-.685-.532 2.653-3.425.685.53zM138.68 37.224l-.686-.53 2.654-3.426.685.53zM83.277 91.337l-.524-.69 3.449-2.623.525.69zM145.37 44.133l-.526-.69 3.45-2.623.525.69zM77.848 82.062l-.329-.802 4.01-1.64.33.802zM150.04 52.537l-.328-.802 4.01-1.64.328.802zM75.003 71.699l-.11-.86 4.3-.547.109.86zM152.378 61.865l-.109-.86 4.298-.547.11.86zM74.939 60.952l.117-.859 4.293.585-.117.859zM152.222 71.479l.117-.86 4.293.586-.117.859zM77.657 50.555l.336-.8 3.995 1.676-.335.8zM149.582 80.725l.335-.8 3.996 1.677-.335.8zM82.974 41.215l.53-.685 3.426 2.653-.53.685zM144.64 88.974l.531-.686 3.426 2.654-.53.685zM90.528 33.57l.69-.525 2.622 3.45-.69.524zM137.731 95.662l.69-.525 2.623 3.45-.69.524zM99.802 28.14l.803-.327 1.64 4.01-.803.328zM129.327 100.333l.802-.328 1.64 4.01-.802.329zM110.165 25.296l.86-.11.546 4.3-.86.108zM119.999 102.671l.86-.11.546 4.3-.86.108z"/><g filter="url(#n)"><circle cx="115.401" cy="66.671" r="6.5" fill="url(#o)" transform="rotate(45 115.401 66.671)"/><circle cx="115.401" cy="66.671" r="6" stroke="url(#p)" stroke-opacity=".4" transform="rotate(45 115.401 66.671)"/></g><g filter="url(#q)"><path fill="url(#r)" d="M141.376 38.98c.936-.777 2.187.474 1.409 1.409l-22.513 27.066a1 1 0 0 1-1.476.068l-4.553-4.553a1 1 0 0 1 .067-1.476z"/><path stroke="url(#s)" stroke-opacity=".8" d="M141.696 39.365c.468-.389 1.093.237.704.705l-22.513 27.065a.5.5 0 0 1-.738.034l-4.553-4.553a.5.5 0 0 1 .034-.738z"/><path stroke="url(#t)" stroke-opacity=".3" d="M141.696 39.365c.468-.389 1.093.237.704.705l-22.513 27.065a.5.5 0 0 1-.738.034l-4.553-4.553a.5.5 0 0 1 .034-.738z"/></g><g filter="url(#u)"><circle cx="115.401" cy="66.671" r="5.633" fill="url(#v)" transform="rotate(45 115.401 66.671)"/><circle cx="115.401" cy="66.671" r="5.133" stroke="url(#w)" stroke-opacity=".4" transform="rotate(45 115.401 66.671)"/></g><path fill="url(#x)" d="M86.457 89.447a4.52 4.52 0 0 1 4.279-4.752l46.892-2.458a4.52 4.52 0 0 1 4.752 4.279l2.458 46.892a4.52 4.52 0 0 1-4.279 4.752l-46.892 2.458a4.52 4.52 0 0 1-4.752-4.279z"/><path fill="url(#y)" d="M139.272 87.027a1.74 1.74 0 0 0-1.827-1.646l-46.198 2.421a1.74 1.74 0 0 0-1.646 1.828l2.421 46.198c.05.959.87 1.696 1.828 1.645l46.198-2.421a1.737 1.737 0 0 0 1.645-1.827zm3.811 46.125a3.13 3.13 0 0 1-2.962 3.29l-46.198 2.421a3.13 3.13 0 0 1-3.29-2.963l-2.421-46.197a3.13 3.13 0 0 1 2.962-3.29l46.198-2.421a3.13 3.13 0 0 1 3.29 2.962z"/><path fill="url(#z)" d="M117.647 119.682a.35.35 0 0 1 .366.329l.437 8.336a.35.35 0 0 1-.329.366l-2.953.155a.35.35 0 0 1-.365-.329l-.437-8.337a.347.347 0 0 1 .329-.365z"/><path fill="url(#A)" d="M129.083 93.766a.348.348 0 0 1 .556-.03l8.076 9.657a.348.348 0 0 1-.306.569l-3.821-.432a.347.347 0 0 0-.386.364l1.237 23.615a.35.35 0 0 1-.329.366l-5.905.309a.347.347 0 0 1-.365-.329l-1.238-23.616a.348.348 0 0 0-.423-.321l-3.754.829a.348.348 0 0 1-.364-.534z"/><path fill="url(#B)" d="M103.101 94.67a.347.347 0 0 1 .365.329l1.243 23.702a.348.348 0 0 0 .422.322l3.755-.829a.348.348 0 0 1 .363.534l-7.022 10.447a.347.347 0 0 1-.555.029l-8.076-9.656a.348.348 0 0 1 .306-.569l3.82.432a.348.348 0 0 0 .387-.364l-1.242-23.702a.35.35 0 0 1 .329-.366z"/><path fill="url(#C)" d="M116.974 106.83a.347.347 0 0 1 .365.329l.437 8.336a.35.35 0 0 1-.329.366l-2.952.155a.35.35 0 0 1-.366-.329l-.437-8.337a.35.35 0 0 1 .329-.365z"/><path fill="url(#D)" d="M116.3 93.978a.35.35 0 0 1 .366.33l.437 8.336a.35.35 0 0 1-.329.365l-2.953.155a.35.35 0 0 1-.365-.329l-.437-8.337a.35.35 0 0 1 .329-.365z"/><path stroke="url(#E)" stroke-opacity=".4" stroke-width=".1" d="m90.738 84.744 46.893-2.457a4.473 4.473 0 0 1 4.7 4.231l2.457 46.893a4.47 4.47 0 0 1-4.231 4.699l-46.893 2.458a4.47 4.47 0 0 1-4.7-4.231l-2.457-46.893a4.47 4.47 0 0 1 4.231-4.7ZM118.4 128.35a.297.297 0 0 1-.282.312l-2.953.155a.297.297 0 0 1-.313-.281l-.437-8.337a.3.3 0 0 1 .282-.313l2.953-.155a.3.3 0 0 1 .313.282zm-.673-12.852a.3.3 0 0 1-.282.313l-2.953.155a.3.3 0 0 1-.313-.282l-.437-8.336a.3.3 0 0 1 .282-.313l2.953-.155a.3.3 0 0 1 .313.282zm16.662 12.015a.3.3 0 0 1-.282.312l-5.905.309a.3.3 0 0 1-.313-.281l-1.238-23.616a.397.397 0 0 0-.482-.368l-3.755.829a.298.298 0 0 1-.312-.457l7.023-10.447a.298.298 0 0 1 .476-.025l8.075 9.656a.298.298 0 0 1-.262.487l-3.82-.432a.4.4 0 0 0-.443.416zm-29.73-8.809a.398.398 0 0 0 .483.368l3.754-.829a.298.298 0 0 1 .312.457l-7.023 10.447a.297.297 0 0 1-.475.025l-8.076-9.656a.298.298 0 0 1 .262-.487l3.821.432a.398.398 0 0 0 .442-.417l-1.242-23.702a.297.297 0 0 1 .282-.312l5.905-.31a.3.3 0 0 1 .313.281zm12.394-16.058a.3.3 0 0 1-.282.313l-2.953.155a.3.3 0 0 1-.313-.282l-.437-8.337a.3.3 0 0 1 .282-.312l2.953-.155a.3.3 0 0 1 .313.281zm25.98 30.509a3.08 3.08 0 0 1-2.915 3.237l-46.198 2.421a3.08 3.08 0 0 1-3.237-2.915L88.262 89.7a3.08 3.08 0 0 1 2.915-3.237l46.198-2.421a3.08 3.08 0 0 1 3.237 2.914zm-1.39.073a1.69 1.69 0 0 1-1.597 1.774l-46.199 2.421a1.69 1.69 0 0 1-1.774-1.598l-2.421-46.198a1.69 1.69 0 0 1 1.597-1.774l46.199-2.421a1.69 1.69 0 0 1 1.774 1.597zm-23.58-13.22a.4.4 0 0 0-.418-.376l-2.953.155a.397.397 0 0 0-.376.417l.437 8.338a.4.4 0 0 0 .418.376l2.953-.155a.4.4 0 0 0 .376-.418zm-.674-12.851a.397.397 0 0 0-.417-.377l-2.953.155a.4.4 0 0 0-.377.418l.437 8.336a.4.4 0 0 0 .418.376l2.953-.155a.396.396 0 0 0 .376-.417zm15.863-3.266a.297.297 0 0 1 .331-.311l3.82.431c.357.04.58-.375.35-.65l-8.075-9.656a.4.4 0 0 0-.636.033l-7.023 10.448c-.2.297.066.687.417.609l3.754-.828c.18-.04.352.092.362.275l1.238 23.616a.396.396 0 0 0 .417.376l5.905-.309a.4.4 0 0 0 .377-.418zm-29.736-8.895a.4.4 0 0 0-.418-.376l-5.905.31a.4.4 0 0 0-.376.417l1.242 23.703a.298.298 0 0 1-.33.311l-3.821-.431a.398.398 0 0 0-.35.65l8.076 9.656c.17.203.487.187.634-.033l7.023-10.448a.397.397 0 0 0-.416-.609l-3.755.828a.3.3 0 0 1-.362-.275zm13.2-.692a.4.4 0 0 0-.418-.376l-2.953.155a.4.4 0 0 0-.376.417l.437 8.338a.397.397 0 0 0 .417.376l2.953-.155a.4.4 0 0 0 .377-.418zm22.607-7.28a1.79 1.79 0 0 0-1.881-1.693l-46.198 2.421a1.79 1.79 0 0 0-1.693 1.88l2.421 46.199a1.79 1.79 0 0 0 1.88 1.693l46.199-2.421a1.79 1.79 0 0 0 1.693-1.881zm1.388-.073a3.18 3.18 0 0 0-3.341-3.009l-46.199 2.422a3.18 3.18 0 0 0-3.009 3.341l2.421 46.199a3.18 3.18 0 0 0 3.342 3.008l46.199-2.421a3.18 3.18 0 0 0 3.009-3.341z"/><path fill="#818181" d="M145.464 76.261v3.25h-1.478v-3.367q0-.446-.152-.72-.198-.386-.752-.386-.573 0-.873.386-.294.38-.295 1.091v2.996h-1.442v-7.46h1.442v2.646q.315-.482.727-.67.416-.193.873-.193.513 0 .929.178.421.178.691.543.228.31.279.64.051.325.051 1.066M136.323 79.511l2.9-7.713h1.203l-2.909 7.713zM131.423 75.5q-.183-.402-.716-.402-.62 0-.832.401-.117.23-.117.68v3.332h-1.468v-5.525h1.407v.807q.268-.43.508-.614.422-.325 1.091-.325.635 0 1.026.28.315.258.477.665.285-.488.706-.717.447-.228.996-.228.365 0 .721.142a1.6 1.6 0 0 1 .644.498q.234.29.315.71.051.28.051.818l-.01 3.489h-1.483v-3.524q0-.315-.101-.518-.194-.386-.711-.386-.6 0-.828.498a1.6 1.6 0 0 0-.117.634v3.296h-1.457v-3.296q0-.492-.102-.716M127.605 79.511h-1.747l-1.325-2.366-.599.624v1.742h-1.422v-7.46h1.422v4.033l1.802-2.082h1.793l-1.935 2.117z"/><defs><linearGradient id="b" x1="64.221" x2="85.361" y1="110.919" y2="15.382" gradientUnits="userSpaceOnUse"><stop offset=".004" stop-color="#454545"/><stop offset="1" stop-color="#575245"/></linearGradient><linearGradient id="c" x1="151.718" x2="102.975" y1="97.445" y2="25.042" gradientUnits="userSpaceOnUse"><stop offset=".113" stop-color="#4e5078"/><stop offset="1" stop-color="#f9cc45"/></linearGradient><linearGradient id="e" x1="175.781" x2="97.013" y1="95.918" y2="-5.755" gradientUnits="userSpaceOnUse"><stop offset=".004" stop-color="#1a1919"/><stop offset="1" stop-color="#575245"/></linearGradient><linearGradient id="f" x1="126.788" x2="86.764" y1="66.956" y2="-12.255" gradientUnits="userSpaceOnUse"><stop offset=".113" stop-color="#4e5078"/><stop offset="1" stop-color="#f9cc45"/></linearGradient><linearGradient id="h" x1="124.665" x2="134.462" y1="44.995" y2="55.99" gradientUnits="userSpaceOnUse"><stop stop-color="#ffeaaa"/><stop offset="1" stop-color="#fc3"/></linearGradient><linearGradient id="i" x1="124.342" x2="134.746" y1="46.462" y2="54.237" gradientUnits="userSpaceOnUse"><stop stop-color="#ffe28d"/><stop offset="1" stop-color="#e7b10e"/></linearGradient><linearGradient id="j" x1="109.228" x2="119.025" y1="44.995" y2="55.99" gradientUnits="userSpaceOnUse"><stop stop-color="#ffeaaa"/><stop offset="1" stop-color="#fc3"/></linearGradient><linearGradient id="k" x1="108.905" x2="119.309" y1="46.462" y2="54.237" gradientUnits="userSpaceOnUse"><stop stop-color="#ffe28d"/><stop offset="1" stop-color="#e7b10e"/></linearGradient><linearGradient id="l" x1="93.79" x2="103.309" y1="45.036" y2="55.928" gradientUnits="userSpaceOnUse"><stop stop-color="#ffeaaa"/><stop offset="1" stop-color="#fc3"/></linearGradient><linearGradient id="m" x1="93.47" x2="103.656" y1="46.465" y2="54.226" gradientUnits="userSpaceOnUse"><stop stop-color="#ffe28d"/><stop offset="1" stop-color="#e7b10e"/></linearGradient><linearGradient id="o" x1="124.173" x2="112.829" y1="70.992" y2="56.184" gradientUnits="userSpaceOnUse"><stop offset=".004" stop-color="#1a1919"/><stop offset="1" stop-color="#575245"/></linearGradient><linearGradient id="p" x1="117.017" x2="112.046" y1="66.809" y2="59.42" gradientUnits="userSpaceOnUse"><stop offset=".113" stop-color="#4e5078"/><stop offset="1" stop-color="#f9cc45"/></linearGradient><linearGradient id="r" x1="117.623" x2="104.992" y1="73.654" y2="54.402" gradientUnits="userSpaceOnUse"><stop offset=".004" stop-color="#1a1919"/><stop offset="1" stop-color="#575245"/></linearGradient><linearGradient id="s" x1="118.945" x2="110.24" y1="67.817" y2="54.188" gradientUnits="userSpaceOnUse"><stop offset=".113" stop-color="#4e5078"/><stop offset="1" stop-color="#f9cc45"/></linearGradient><linearGradient id="t" x1="142.221" x2="145.08" y1="37.5" y2="39.739" gradientUnits="userSpaceOnUse"><stop stop-color="#ffedb6"/><stop offset="1"/></linearGradient><linearGradient id="v" x1="123.004" x2="114.546" y1="70.416" y2="61.694" gradientUnits="userSpaceOnUse"><stop offset=".004" stop-color="#1a1919"/><stop offset="1" stop-color="#575245"/></linearGradient><linearGradient id="w" x1="119.395" x2="112.986" y1="69.506" y2="60.623" gradientUnits="userSpaceOnUse"><stop offset=".113" stop-color="#4e5078"/><stop offset="1" stop-color="#f9cc45"/></linearGradient><linearGradient id="x" x1="88.95" x2="97.709" y1="137.01" y2="84.537" gradientUnits="userSpaceOnUse"><stop offset=".004" stop-color="#646778"/><stop offset="1" stop-color="#cac1a1"/></linearGradient><linearGradient id="y" x1="89.038" x2="108.543" y1="98.456" y2="134.788" gradientUnits="userSpaceOnUse"><stop offset=".004" stop-color="#3f3c33"/><stop offset="1" stop-color="#2c2a2f"/></linearGradient><linearGradient id="z" x1="89.038" x2="108.543" y1="98.456" y2="134.788" gradientUnits="userSpaceOnUse"><stop offset=".004" stop-color="#3f3c33"/><stop offset="1" stop-color="#2c2a2f"/></linearGradient><linearGradient id="A" x1="89.038" x2="108.543" y1="98.456" y2="134.788" gradientUnits="userSpaceOnUse"><stop offset=".004" stop-color="#3f3c33"/><stop offset="1" stop-color="#2c2a2f"/></linearGradient><linearGradient id="B" x1="89.038" x2="108.543" y1="98.456" y2="134.788" gradientUnits="userSpaceOnUse"><stop offset=".004" stop-color="#3f3c33"/><stop offset="1" stop-color="#2c2a2f"/></linearGradient><linearGradient id="C" x1="89.038" x2="108.543" y1="98.456" y2="134.788" gradientUnits="userSpaceOnUse"><stop offset=".004" stop-color="#3f3c33"/><stop offset="1" stop-color="#2c2a2f"/></linearGradient><linearGradient id="D" x1="89.038" x2="108.543" y1="98.456" y2="134.788" gradientUnits="userSpaceOnUse"><stop offset=".004" stop-color="#3f3c33"/><stop offset="1" stop-color="#2c2a2f"/></linearGradient><linearGradient id="E" x1="88.338" x2="116.673" y1="101.442" y2="141.863" gradientUnits="userSpaceOnUse"><stop stop-color="#f9cc45"/><stop offset=".887" stop-color="#4e5078"/></linearGradient><filter id="a" width="103" height="107" x="64.221" y="15" color-interpolation-filters="sRGB" filterUnits="userSpaceOnUse"><feFlood flood-opacity="0" result="BackgroundImageFix"/><feBlend in="SourceGraphic" in2="BackgroundImageFix" result="shape"/><feColorMatrix in="SourceAlpha" result="hardAlpha" values="0 0 0 0 0 0 0 0 0 0 0 0 0 0 0 0 0 0 127 0"/><feOffset dy="4"/><feGaussianBlur stdDeviation="8"/><feComposite in2="hardAlpha" k2="-1" k3="1" operator="arithmetic"/><feColorMatrix values="0 0 0 0 0 0 0 0 0 0 0 0 0 0 0 0 0 0 0.4 0"/><feBlend in2="shape" result="effect1_innerShadow_7539_1569"/><feColorMatrix in="SourceAlpha" result="hardAlpha" values="0 0 0 0 0 0 0 0 0 0 0 0 0 0 0 0 0 0 127 0"/><feOffset dy="1"/><feGaussianBlur stdDeviation=".5"/><feComposite in2="hardAlpha" k2="-1" k3="1" operator="arithmetic"/><feColorMatrix values="0 0 0 0 0 0 0 0 0 0 0 0 0 0 0 0 0 0 0.08 0"/><feBlend in2="effect1_innerShadow_7539_1569" result="effect2_innerShadow_7539_1569"/></filter><filter id="d" width="89" height="94" x="71.221" y="21" color-interpolation-filters="sRGB" filterUnits="userSpaceOnUse"><feFlood flood-opacity="0" result="BackgroundImageFix"/><feBlend in="SourceGraphic" in2="BackgroundImageFix" result="shape"/><feColorMatrix in="SourceAlpha" result="hardAlpha" values="0 0 0 0 0 0 0 0 0 0 0 0 0 0 0 0 0 0 127 0"/><feOffset dy="4"/><feGaussianBlur stdDeviation="8"/><feComposite in2="hardAlpha" k2="-1" k3="1" operator="arithmetic"/><feColorMatrix values="0 0 0 0 0 0 0 0 0 0 0 0 0 0 0 0 0 0 0.4 0"/><feBlend in2="shape" result="effect1_innerShadow_7539_1569"/><feColorMatrix in="SourceAlpha" result="hardAlpha" values="0 0 0 0 0 0 0 0 0 0 0 0 0 0 0 0 0 0 127 0"/><feOffset dy="1"/><feGaussianBlur stdDeviation=".5"/><feComposite in2="hardAlpha" k2="-1" k3="1" operator="arithmetic"/><feColorMatrix values="0 0 0 0 0 0 0 0 0 0 0 0 0 0 0 0 0 0 0.08 0"/><feBlend in2="effect1_innerShadow_7539_1569" result="effect2_innerShadow_7539_1569"/></filter><filter id="g" width="84.415" height="60.257" x="77.686" y="27.009" color-interpolation-filters="sRGB" filterUnits="userSpaceOnUse"><feFlood flood-opacity="0" result="BackgroundImageFix"/><feColorMatrix in="SourceAlpha" result="hardAlpha" values="0 0 0 0 0 0 0 0 0 0 0 0 0 0 0 0 0 0 127 0"/><feOffset dx="4" dy="2"/><feGaussianBlur stdDeviation="10"/><feComposite in2="hardAlpha" operator="out"/><feColorMatrix values="0 0 0 0 1 0 0 0 0 0.8 0 0 0 0 0.2 0 0 0 0.7 0"/><feBlend in2="BackgroundImageFix" result="effect1_dropShadow_7539_1569"/><feColorMatrix in="SourceAlpha" result="hardAlpha" values="0 0 0 0 0 0 0 0 0 0 0 0 0 0 0 0 0 0 127 0"/><feOffset dy="2"/><feGaussianBlur stdDeviation="4"/><feComposite in2="hardAlpha" operator="out"/><feColorMatrix values="0 0 0 0 0 0 0 0 0 0 0 0 0 0 0 0 0 0 0.5 0"/><feBlend in2="effect1_dropShadow_7539_1569" result="effect2_dropShadow_7539_1569"/><feBlend in="SourceGraphic" in2="effect2_dropShadow_7539_1569" result="shape"/></filter><filter id="n" width="44.999" height="44.999" x="92.901" y="48.171" color-interpolation-filters="sRGB" filterUnits="userSpaceOnUse"><feFlood flood-opacity="0" result="BackgroundImageFix"/><feColorMatrix in="SourceAlpha" result="hardAlpha" values="0 0 0 0 0 0 0 0 0 0 0 0 0 0 0 0 0 0 127 0"/><feOffset dy="4"/><feGaussianBlur stdDeviation="8"/><feComposite in2="hardAlpha" operator="out"/><feColorMatrix values="0 0 0 0 0 0 0 0 0 0 0 0 0 0 0 0 0 0 0.4 0"/><feBlend in2="BackgroundImageFix" result="effect1_dropShadow_7539_1569"/><feColorMatrix in="SourceAlpha" result="hardAlpha" values="0 0 0 0 0 0 0 0 0 0 0 0 0 0 0 0 0 0 127 0"/><feOffset dy="1"/><feGaussianBlur stdDeviation=".5"/><feComposite in2="hardAlpha" operator="out"/><feColorMatrix values="0 0 0 0 0 0 0 0 0 0 0 0 0 0 0 0 0 0 0.08 0"/><feBlend in2="effect1_dropShadow_7539_1569" result="effect2_dropShadow_7539_1569"/><feBlend in="SourceGraphic" in2="effect2_dropShadow_7539_1569" result="shape"/></filter><filter id="q" width="33.079" height="33.079" x="111.95" y="38.737" color-interpolation-filters="sRGB" filterUnits="userSpaceOnUse"><feFlood flood-opacity="0" result="BackgroundImageFix"/><feColorMatrix in="SourceAlpha" result="hardAlpha" values="0 0 0 0 0 0 0 0 0 0 0 0 0 0 0 0 0 0 127 0"/><feOffset dy="2"/><feGaussianBlur stdDeviation="1"/><feComposite in2="hardAlpha" operator="out"/><feColorMatrix values="0 0 0 0 0 0 0 0 0 0 0 0 0 0 0 0 0 0 0.8 0"/><feBlend in2="BackgroundImageFix" result="effect1_dropShadow_7539_1569"/><feBlend in="SourceGraphic" in2="effect1_dropShadow_7539_1569" result="shape"/></filter><filter id="u" width="43.266" height="43.266" x="93.768" y="49.038" color-interpolation-filters="sRGB" filterUnits="userSpaceOnUse"><feFlood flood-opacity="0" result="BackgroundImageFix"/><feColorMatrix in="SourceAlpha" result="hardAlpha" values="0 0 0 0 0 0 0 0 0 0 0 0 0 0 0 0 0 0 127 0"/><feOffset dy="4"/><feGaussianBlur stdDeviation="8"/><feComposite in2="hardAlpha" operator="out"/><feColorMatrix values="0 0 0 0 0 0 0 0 0 0 0 0 0 0 0 0 0 0 0.4 0"/><feBlend in2="BackgroundImageFix" result="effect1_dropShadow_7539_1569"/><feColorMatrix in="SourceAlpha" result="hardAlpha" values="0 0 0 0 0 0 0 0 0 0 0 0 0 0 0 0 0 0 127 0"/><feOffset dy="1"/><feGaussianBlur stdDeviation=".5"/><feComposite in2="hardAlpha" operator="out"/><feColorMatrix values="0 0 0 0 0 0 0 0 0 0 0 0 0 0 0 0 0 0 0.08 0"/><feBlend in2="effect1_dropShadow_7539_1569" result="effect2_dropShadow_7539_1569"/><feBlend in="SourceGraphic" in2="effect2_dropShadow_7539_1569" result="shape"/></filter></defs></svg>