<svg width="230" height="160" viewBox="0 0 230 160" fill="none" xmlns="http://www.w3.org/2000/svg">
<path d="M117.592 132.19C148.895 132.19 174.233 106.961 174.233 75.7688C174.233 44.5763 148.922 19.32 117.592 19.32C86.3997 19.32 60.9785 44.5488 60.9785 75.7413C60.9785 106.934 86.2898 132.19 117.592 132.19Z" fill="url(#paint0_linear_3269_5314)"/>
<path d="M179.272 141.34C190.898 129.303 182.46 108.883 165.504 108.883C157.781 108.883 151.158 113.445 148.107 120.014C145.414 120.179 142.913 121.031 137.499 124.603L136.62 105.256H129.969L129.419 117.293C127.248 115.617 125.16 115.809 123.703 115.919L124.06 115.864L123.483 103.964H112.408L111.721 118.117C109.852 116.688 109.275 117.375 108.698 117.375C107.571 117.375 106.499 117.678 105.592 118.172L104.988 105.228H98.3369L97.8697 115.479C94.8466 113.693 91.3014 112.648 87.5363 112.648C82.9742 112.648 78.7694 114.16 75.3616 116.688C60.5486 109.653 44.279 123.312 48.6762 139.141L59.3119 145.957C59.0645 146.122 58.8172 146.287 58.5699 146.452L59.3119 145.957C55.8766 149.173 66.0725 139.884 68.8483 141.148C69.0681 141.642 69.288 142.11 69.5353 142.577L69.0681 141.285C69.3704 141.532 69.5353 141.945 69.5353 142.577C69.5353 142.577 69.5353 142.604 69.5628 142.604C66.8146 142.742 64.2312 143.401 61.8677 144.528L70.7171 142.934C78.2747 144.556 119.718 150.244 119.801 150.959L119.196 149.832C119.443 149.86 119.718 149.887 119.993 149.915C121.34 151.893 123.318 153.432 125.627 154.174C123.758 153.212 122.192 151.783 121.065 150.025C130.161 150.904 142.006 150.299 146.349 149.832C150.334 150.547 154.511 149.64 157.919 147.166C158.633 146.644 159.32 146.04 159.952 145.38C164.157 145.353 171.88 146.562 171.77 144.693L179.355 146.04C177.211 145.05 174.903 144.391 172.429 144.171L179.272 141.34ZM157.314 146.067C157.342 145.985 157.369 145.93 157.451 145.847L157.314 146.067Z" fill="white"/>
<path d="M105.592 118.172L104.987 105.256H98.3363L97.8691 115.479" fill="white"/>
<path fill-rule="evenodd" clip-rule="evenodd" d="M97.9959 105.24C98.0042 105.058 98.1542 104.915 98.3365 104.915H104.987C105.169 104.915 105.319 105.058 105.328 105.24L105.932 118.156C105.941 118.344 105.796 118.504 105.608 118.513C105.42 118.522 105.26 118.376 105.251 118.188L104.662 105.596H98.6622L98.2099 115.495C98.2013 115.683 98.0418 115.828 97.8537 115.82C97.6656 115.811 97.5201 115.651 97.5287 115.463L97.9959 105.24Z" fill="#CCCCCC"/>
<path d="M137.527 125.098L136.62 105.256H129.969L129.419 117.32" fill="white"/>
<path fill-rule="evenodd" clip-rule="evenodd" d="M129.628 105.24C129.636 105.058 129.786 104.915 129.969 104.915H136.619C136.802 104.915 136.952 105.058 136.96 105.24L137.867 125.082C137.876 125.27 137.73 125.43 137.542 125.438C137.354 125.447 137.194 125.301 137.186 125.113L136.294 105.596H130.294L129.76 117.336C129.751 117.524 129.592 117.669 129.404 117.661C129.215 117.652 129.07 117.493 129.078 117.305L129.628 105.24Z" fill="#CCCCCC"/>
<path d="M124.06 115.837L123.456 103.964H112.408L111.721 117.925L111.748 118.145" fill="white"/>
<path fill-rule="evenodd" clip-rule="evenodd" d="M112.067 103.947C112.076 103.766 112.226 103.623 112.407 103.623H123.455C123.637 103.623 123.787 103.765 123.796 103.947L124.4 115.819C124.41 116.007 124.265 116.167 124.077 116.177C123.889 116.187 123.729 116.042 123.719 115.854L123.131 104.305H112.732L112.062 117.912L112.086 118.103C112.11 118.29 111.977 118.46 111.79 118.483C111.603 118.507 111.433 118.374 111.41 118.187L111.382 117.967C111.38 117.948 111.379 117.928 111.38 117.908L112.067 103.947Z" fill="#CCCCCC"/>
<path fill-rule="evenodd" clip-rule="evenodd" d="M67.6487 135.314C67.6679 135.501 67.5317 135.669 67.3443 135.688C66.2968 135.796 65.3055 136.01 64.3696 136.331C64.1915 136.392 63.9976 136.297 63.9365 136.119C63.8754 135.941 63.9703 135.747 64.1484 135.686C65.1363 135.347 66.1787 135.122 67.2748 135.01C67.4621 134.991 67.6295 135.127 67.6487 135.314Z" fill="#CCCCCC"/>
<path d="M122.302 99.7317H113.233L111.364 100.996C110.979 101.271 110.759 101.683 110.759 102.15V103.387H125.05V102.205C125.05 101.71 124.803 101.271 124.391 101.023L122.302 99.7317Z" fill="white"/>
<path d="M125.654 103.964C125.654 104.266 125.407 104.514 125.105 104.514H110.594C110.292 104.514 110.044 104.266 110.044 103.964C110.044 103.662 110.292 103.414 110.594 103.414H125.105C125.407 103.414 125.654 103.662 125.654 103.964Z" fill="url(#paint1_linear_3269_5314)"/>
<path d="M94.0772 23.0835H93.8574C93.5001 23.0835 93.2253 22.8087 93.2253 22.4514V22.2316C93.2253 21.9567 93.0054 21.7369 92.7306 21.7369C92.4558 21.7369 92.2359 21.9567 92.2359 22.2316V22.4514C92.2359 22.8087 91.9611 23.0835 91.6038 23.0835H91.3839C91.1091 23.0835 90.8893 23.3034 90.8893 23.5782C90.8893 23.853 91.1091 24.0729 91.3839 24.0729H91.6038C91.9611 24.0729 92.2359 24.3477 92.2359 24.705V24.9248C92.2359 25.1997 92.4558 25.4195 92.7306 25.4195C93.0054 25.4195 93.2253 25.1997 93.2253 24.9248V24.705C93.2253 24.3477 93.5001 24.0729 93.8574 24.0729H94.0772C94.352 24.0729 94.5719 23.853 94.5719 23.5782C94.5719 23.3309 94.352 23.0835 94.0772 23.0835Z" fill="#D4D4D4"/>
<path d="M80.0614 14.3165H79.869C79.5942 14.3165 79.3468 14.0967 79.3468 13.7944V13.602C79.3468 13.3821 79.1545 13.1898 78.9346 13.1898C78.7147 13.1898 78.5224 13.3821 78.5224 13.602V13.7944C78.5224 14.0692 78.3025 14.3165 78.0002 14.3165H77.8078C77.588 14.3165 77.3956 14.5089 77.3956 14.7288C77.3956 14.9486 77.588 15.141 77.8078 15.141H78.0002C78.275 15.141 78.5224 15.3609 78.5224 15.6632V15.8556C78.5224 16.0754 78.7147 16.2678 78.9346 16.2678C79.1545 16.2678 79.3468 16.0754 79.3468 15.8556V15.6632C79.3468 15.3884 79.5667 15.141 79.869 15.141H80.0614C80.2812 15.141 80.4736 14.9486 80.4736 14.7288C80.4736 14.5089 80.2812 14.3165 80.0614 14.3165Z" fill="#D4D4D4"/>
<path d="M62.9947 72.442H62.8023C62.5275 72.442 62.2802 72.2221 62.2802 71.9198V71.7274C62.2802 71.5076 62.0878 71.3152 61.8679 71.3152C61.6481 71.3152 61.4557 71.5076 61.4557 71.7274V71.9198C61.4557 72.1946 61.2358 72.442 60.9335 72.442H60.7411C60.5213 72.442 60.3289 72.6343 60.3289 72.8542C60.3289 73.0741 60.5213 73.2664 60.7411 73.2664H60.9335C61.2083 73.2664 61.4557 73.4863 61.4557 73.7886V73.981C61.4557 74.2008 61.6481 74.3932 61.8679 74.3932C62.0878 74.3932 62.2802 74.2008 62.2802 73.981V73.7886C62.2802 73.5138 62.5 73.2664 62.8023 73.2664H62.9947C63.2146 73.2664 63.4069 73.0741 63.4069 72.8542C63.4069 72.6069 63.2146 72.442 62.9947 72.442Z" fill="#D4D4D4"/>
<path d="M108.23 6.0993H108.038C107.763 6.0993 107.516 5.87944 107.516 5.57713V5.41224C107.516 5.19238 107.323 5 107.103 5C106.884 5 106.691 5.19238 106.691 5.41224V5.60461C106.691 5.87944 106.471 6.12678 106.169 6.12678H105.977C105.757 6.12678 105.564 6.31915 105.564 6.53901C105.564 6.75887 105.757 6.95125 105.977 6.95125H106.169C106.444 6.95125 106.691 7.17111 106.691 7.47341V7.66579C106.691 7.88565 106.884 8.07803 107.103 8.07803C107.323 8.07803 107.516 7.88565 107.516 7.66579V7.41845C107.516 7.14363 107.736 6.89628 108.038 6.89628H108.23C108.45 6.89628 108.642 6.70391 108.642 6.48405C108.642 6.29167 108.478 6.0993 108.23 6.0993Z" fill="#D4D4D4"/>
<path d="M180.427 38.6933H180.234C179.959 38.6933 179.712 38.4734 179.712 38.1711V37.9787C179.712 37.7589 179.52 37.5665 179.3 37.5665C179.08 37.5665 178.888 37.7589 178.888 37.9787V38.1711C178.888 38.4459 178.668 38.6933 178.365 38.6933H178.173C177.953 38.6933 177.761 38.8856 177.761 39.1055C177.761 39.3254 177.953 39.5177 178.173 39.5177H178.365C178.64 39.5177 178.888 39.7376 178.888 40.0399V40.2323C178.888 40.4521 179.08 40.6445 179.3 40.6445C179.52 40.6445 179.712 40.4521 179.712 40.2323V40.0399C179.712 39.7651 179.932 39.5177 180.234 39.5177H180.427C180.646 39.5177 180.839 39.3254 180.839 39.1055C180.839 38.8856 180.646 38.6933 180.427 38.6933Z" fill="#D4D4D4"/>
<path d="M165.174 98.3302H164.982C164.707 98.3302 164.46 98.1104 164.46 97.8081V97.6157C164.46 97.3958 164.267 97.2034 164.047 97.2034C163.827 97.2034 163.635 97.3958 163.635 97.6157V97.8081C163.635 98.0829 163.415 98.3302 163.113 98.3302H162.975C162.756 98.3302 162.563 98.5226 162.563 98.7425C162.563 98.9623 162.756 99.1547 162.975 99.1547H163.168C163.443 99.1547 163.69 99.3745 163.69 99.6769V99.8692C163.69 100.089 163.882 100.281 164.102 100.281C164.322 100.281 164.514 100.089 164.514 99.8692V99.6769C164.514 99.402 164.734 99.1547 165.037 99.1547H165.229C165.449 99.1547 165.641 98.9623 165.641 98.7425C165.586 98.5226 165.394 98.3302 165.174 98.3302Z" fill="#D4D4D4"/>
<path d="M61.1807 102.507H61.0158C60.741 102.507 60.4937 102.288 60.4937 101.985V101.793C60.4937 101.573 60.3013 101.381 60.0814 101.381C59.8616 101.381 59.6692 101.573 59.6692 101.793V101.985C59.6692 102.26 59.4493 102.507 59.147 102.507H58.9546C58.7348 102.507 58.5424 102.7 58.5424 102.92C58.5424 103.14 58.7348 103.332 58.9546 103.332H59.147C59.4218 103.332 59.6692 103.552 59.6692 103.854V104.047C59.6692 104.266 59.8616 104.459 60.0814 104.459C60.3013 104.459 60.4937 104.266 60.4937 104.047V103.854C60.4937 103.579 60.7135 103.332 61.0158 103.332H61.2082C61.4281 103.332 61.6204 103.14 61.6204 102.92C61.5929 102.7 61.4006 102.507 61.1807 102.507Z" fill="#D4D4D4"/>
<path d="M147.64 53.5612H147.42C147.063 53.5612 146.788 53.2864 146.788 52.9291V52.7093C146.788 52.4345 146.568 52.2146 146.294 52.2146C146.019 52.2146 145.799 52.4345 145.799 52.7093V52.9291C145.799 53.2864 145.524 53.5612 145.167 53.5612H144.947C144.672 53.5612 144.452 53.7811 144.452 54.0559C144.452 54.3307 144.672 54.5506 144.947 54.5506H145.167C145.524 54.5506 145.799 54.8254 145.799 55.1827V55.4025C145.799 55.6774 146.019 55.8972 146.294 55.8972C146.568 55.8972 146.788 55.6774 146.788 55.4025V55.1827C146.788 54.8254 147.063 54.5506 147.42 54.5506H147.64C147.915 54.5506 148.135 54.3307 148.135 54.0559C148.135 53.7811 147.915 53.5612 147.64 53.5612Z" fill="#D4D4D4"/>
<path d="M153.879 91.4046H153.659C153.302 91.4046 153.027 91.1298 153.027 90.7725V90.5526C153.027 90.2778 152.807 90.0579 152.533 90.0579C152.258 90.0579 152.038 90.2778 152.038 90.5526V90.7725C152.038 91.1298 151.763 91.4046 151.406 91.4046H151.158C150.884 91.4046 150.664 91.6244 150.664 91.8993C150.664 92.1741 150.884 92.394 151.158 92.394H151.378C151.736 92.394 152.01 92.6688 152.01 93.026V93.2459C152.01 93.5207 152.23 93.7406 152.505 93.7406C152.78 93.7406 153 93.5207 153 93.2459V93.026C153 92.6688 153.275 92.394 153.632 92.394H153.852C154.126 92.394 154.346 92.1741 154.346 91.8993C154.374 91.6244 154.154 91.4046 153.879 91.4046Z" fill="#D4D4D4"/>
<path d="M177.954 52.7644H177.816C177.596 52.7644 177.431 52.5995 177.431 52.3797V52.2697C177.431 52.1048 177.294 51.9674 177.129 51.9674C176.964 51.9674 176.827 52.1048 176.827 52.2697V52.4072C176.827 52.627 176.662 52.7919 176.442 52.7919H176.305C176.14 52.7919 176.002 52.9293 176.002 53.0942C176.002 53.2591 176.14 53.3965 176.305 53.3965H176.442C176.662 53.3965 176.827 53.5614 176.827 53.7813V53.9187C176.827 54.0836 176.964 54.221 177.129 54.221C177.294 54.221 177.431 54.0836 177.431 53.9187V53.7813C177.431 53.5614 177.596 53.3965 177.816 53.3965H177.954C178.118 53.3965 178.256 53.2591 178.256 53.0942C178.256 52.9018 178.118 52.7644 177.954 52.7644Z" fill="#D4D4D4"/>
<path d="M165.092 59.5799H164.982C164.817 59.5799 164.68 59.4425 164.68 59.2776V59.1677C164.68 59.0303 164.57 58.9204 164.432 58.9204C164.295 58.9204 164.185 59.0303 164.185 59.1677V59.2776C164.185 59.4425 164.047 59.5799 163.883 59.5799H163.773C163.635 59.5799 163.525 59.6899 163.525 59.8273C163.525 59.9647 163.635 60.0746 163.773 60.0746H163.883C164.047 60.0746 164.185 60.212 164.185 60.3769V60.4869C164.185 60.6243 164.295 60.7342 164.432 60.7342C164.57 60.7342 164.68 60.6243 164.68 60.4869V60.3769C164.68 60.212 164.817 60.0746 164.982 60.0746H165.092C165.229 60.0746 165.339 59.9647 165.339 59.8273C165.339 59.6899 165.229 59.5799 165.092 59.5799Z" fill="#D4D4D4"/>
<path d="M138.764 24.2653H138.654C138.489 24.2653 138.351 24.1279 138.351 23.963V23.8531C138.351 23.7157 138.241 23.6058 138.104 23.6058C137.967 23.6058 137.857 23.7157 137.857 23.8531V23.963C137.857 24.1279 137.719 24.2653 137.554 24.2653H137.444C137.307 24.2653 137.197 24.3753 137.197 24.5127C137.197 24.6501 137.307 24.76 137.444 24.76H137.554C137.719 24.76 137.857 24.8974 137.857 25.0623V25.1723C137.857 25.3097 137.967 25.4196 138.104 25.4196C138.241 25.4196 138.351 25.3097 138.351 25.1723V25.0623C138.351 24.8974 138.489 24.76 138.654 24.76H138.764C138.901 24.76 139.011 24.6501 139.011 24.5127C138.983 24.3753 138.901 24.2653 138.764 24.2653Z" fill="#D4D4D4"/>
<path d="M165.999 23.3581H165.889C165.724 23.3581 165.587 23.2207 165.587 23.0558V22.9458C165.587 22.8084 165.477 22.6985 165.339 22.6985C165.202 22.6985 165.092 22.8084 165.092 22.9458V23.0558C165.092 23.2207 164.955 23.3581 164.79 23.3581H164.68C164.542 23.3581 164.432 23.468 164.432 23.6054C164.432 23.7428 164.542 23.8528 164.68 23.8528H164.79C164.955 23.8528 165.092 23.9902 165.092 24.1551V24.265C165.092 24.4024 165.202 24.5123 165.339 24.5123C165.477 24.5123 165.587 24.4024 165.587 24.265V24.1551C165.587 23.9902 165.724 23.8528 165.889 23.8528H165.999C166.136 23.8528 166.246 23.7428 166.246 23.6054C166.246 23.468 166.136 23.3581 165.999 23.3581Z" fill="#D4D4D4"/>
<path d="M55.6842 46.2235H55.5468C55.327 46.2235 55.1346 46.0311 55.1346 45.8113V45.6738C55.1346 45.4815 54.9972 45.3441 54.8048 45.3441C54.6124 45.3441 54.475 45.4815 54.475 45.6738V45.8113C54.475 46.0311 54.2826 46.2235 54.0628 46.2235H53.9254C53.733 46.2235 53.5956 46.3609 53.5956 46.5533C53.5956 46.7457 53.733 46.8831 53.9254 46.8831H54.0628C54.2826 46.8831 54.475 47.0754 54.475 47.2953V47.4327C54.475 47.6251 54.6124 47.7625 54.8048 47.7625C54.9972 47.7625 55.1346 47.6251 55.1346 47.4327V47.2953C55.1346 47.0754 55.327 46.8831 55.5468 46.8831H55.6842C55.8766 46.8831 56.014 46.7457 56.014 46.5533C56.014 46.3884 55.8491 46.2235 55.6842 46.2235Z" fill="#D4D4D4"/>
<path d="M82.4247 85.7707H82.2873C82.0674 85.7707 81.875 85.5783 81.875 85.3585V85.221C81.875 85.0287 81.7376 84.8913 81.5452 84.8913C81.3529 84.8913 81.2155 85.0287 81.2155 85.221V85.3585C81.2155 85.5783 81.0231 85.7707 80.8032 85.7707H80.6658C80.4734 85.7707 80.336 85.9081 80.336 86.1005C80.336 86.2929 80.4734 86.4303 80.6658 86.4303H80.8032C81.0231 86.4303 81.2155 86.6226 81.2155 86.8425V86.9799C81.2155 87.1723 81.3529 87.3097 81.5452 87.3097C81.7376 87.3097 81.875 87.1723 81.875 86.9799V86.8425C81.875 86.6226 82.0674 86.4303 82.2873 86.4303H82.4247C82.6171 86.4303 82.7545 86.2929 82.7545 86.1005C82.7545 85.9081 82.5896 85.7707 82.4247 85.7707Z" fill="#D4D4D4"/>
<path d="M183.285 99.4569H183.148C182.928 99.4569 182.736 99.2646 182.736 99.0447V98.9073C182.736 98.7149 182.598 98.5775 182.406 98.5775C182.213 98.5775 182.076 98.7149 182.076 98.9073V99.0447C182.076 99.2646 181.884 99.4569 181.664 99.4569H181.526C181.334 99.4569 181.197 99.5944 181.197 99.7867C181.197 99.9791 181.334 100.117 181.526 100.117H181.664C181.884 100.117 182.076 100.309 182.076 100.529V100.666C182.076 100.859 182.213 100.996 182.406 100.996C182.598 100.996 182.736 100.859 182.736 100.666V100.529C182.736 100.309 182.928 100.117 183.148 100.117H183.285C183.478 100.117 183.615 99.9791 183.615 99.7867C183.615 99.6218 183.45 99.4569 183.285 99.4569Z" fill="#D4D4D4"/>
<path d="M52.9636 28.7172H52.8536C52.6613 28.7172 52.5239 28.5798 52.5239 28.3874V28.2775C52.5239 28.1401 52.4139 28.0027 52.249 28.0027C52.1116 28.0027 51.9742 28.1126 51.9742 28.2775V28.3874C51.9742 28.5798 51.8368 28.7172 51.6444 28.7172H51.5345C51.3971 28.7172 51.2597 28.8271 51.2597 28.992C51.2597 29.1294 51.3696 29.2668 51.5345 29.2668H51.6719C51.8643 29.2668 52.0017 29.4043 52.0017 29.5966V29.7066C52.0017 29.844 52.1116 29.9814 52.2765 29.9814C52.4139 29.9814 52.5513 29.8715 52.5513 29.7066V29.5966C52.5513 29.4043 52.6887 29.2668 52.8811 29.2668H52.9911C53.1285 29.2668 53.2659 29.1569 53.2659 28.992C53.2384 28.8271 53.101 28.7172 52.9636 28.7172Z" fill="#D4D4D4"/>
<path d="M63.3245 16.3226H63.2146C63.0222 16.3226 62.8848 16.1852 62.8848 15.9928V15.8829C62.8848 15.7455 62.7748 15.6081 62.6099 15.6081C62.4725 15.6081 62.3351 15.718 62.3351 15.8829V15.9928C62.3351 16.1852 62.1977 16.3226 62.0053 16.3226H61.8954C61.758 16.3226 61.6206 16.4326 61.6206 16.5974C61.6206 16.7349 61.7305 16.8723 61.8954 16.8723H62.0053C62.1977 16.8723 62.3351 17.0097 62.3351 17.2021V17.312C62.3351 17.4494 62.445 17.5868 62.6099 17.5868C62.7473 17.5868 62.8848 17.4769 62.8848 17.312V17.2021C62.8848 17.0097 63.0222 16.8723 63.2146 16.8723H63.3245C63.4619 16.8723 63.5993 16.7623 63.5993 16.5974C63.5993 16.4326 63.4894 16.3226 63.3245 16.3226Z" fill="#D4D4D4"/>
<path d="M48.6764 70.2157H48.5665C48.3741 70.2157 48.2367 70.0783 48.2367 69.8859V69.776C48.2367 69.6386 48.1268 69.5011 47.9619 69.5011C47.8245 69.5011 47.6871 69.6111 47.6871 69.776V69.8859C47.6871 70.0783 47.5496 70.2157 47.3573 70.2157H47.2748C47.1374 70.2157 47 70.3256 47 70.4905C47 70.6279 47.1099 70.7653 47.2748 70.7653H47.3848C47.5771 70.7653 47.7145 70.9027 47.7145 71.0951V71.205C47.7145 71.3425 47.8245 71.4799 47.9894 71.4799C48.1268 71.4799 48.2642 71.3699 48.2642 71.205V71.0951C48.2642 70.9027 48.4016 70.7653 48.594 70.7653H48.7039C48.8413 70.7653 48.9787 70.6554 48.9787 70.4905C48.9512 70.3256 48.8413 70.2157 48.6764 70.2157Z" fill="#D4D4D4"/>
<path d="M89.0207 37.1819H88.9107C88.7184 37.1819 88.5809 37.0445 88.5809 36.8521V36.7422C88.5809 36.6048 88.471 36.4674 88.3061 36.4674C88.1687 36.4674 88.0313 36.5773 88.0313 36.7422V36.8521C88.0313 37.0445 87.8939 37.1819 87.7015 37.1819H87.5916C87.4542 37.1819 87.3168 37.2919 87.3168 37.4567C87.3168 37.5942 87.4267 37.7316 87.5916 37.7316H87.7015C87.8939 37.7316 88.0313 37.869 88.0313 38.0614V38.1713C88.0313 38.3087 88.1412 38.4461 88.3061 38.4461C88.4435 38.4461 88.5809 38.3362 88.5809 38.1713V38.0614C88.5809 37.869 88.7184 37.7316 88.9107 37.7316H89.0207C89.1581 37.7316 89.2955 37.6216 89.2955 37.4567C89.2955 37.2919 89.1581 37.1819 89.0207 37.1819Z" fill="#D4D4D4"/>
<path d="M81.6277 69.2263H81.5178C81.3254 69.2263 81.188 69.0889 81.188 68.8965V68.7866C81.188 68.6491 81.0781 68.5117 80.9132 68.5117C80.7758 68.5117 80.6384 68.6217 80.6384 68.7866V68.8965C80.6384 69.0889 80.501 69.2263 80.3086 69.2263H80.1987C80.0612 69.2263 79.9238 69.3362 79.9238 69.5011C79.9238 69.6385 80.0338 69.7759 80.1987 69.7759H80.3086C80.501 69.7759 80.6384 69.9133 80.6384 70.1057V70.2156C80.6384 70.3531 80.7483 70.4905 80.9132 70.4905C81.0506 70.4905 81.188 70.3805 81.188 70.2156V70.1057C81.188 69.9133 81.3254 69.7759 81.5178 69.7759H81.6277C81.7652 69.7759 81.9026 69.666 81.9026 69.5011C81.8751 69.3362 81.7652 69.2263 81.6277 69.2263Z" fill="#D4D4D4"/>
<path d="M129.062 12.5851C128.21 12.5851 127.523 11.898 127.523 11.0461C127.523 10.1941 128.21 9.50707 129.062 9.50707C129.914 9.50707 130.601 10.1941 130.601 11.0461C130.601 11.898 129.887 12.5851 129.062 12.5851ZM129.062 10.359C128.678 10.359 128.348 10.6613 128.348 11.0736C128.348 11.4858 128.65 11.7881 129.062 11.7881C129.447 11.7881 129.777 11.4858 129.777 11.0736C129.777 10.6613 129.447 10.359 129.062 10.359Z" fill="#D4D4D4"/>
<path d="M75.3621 29.5143C74.5101 29.5143 73.8231 28.8272 73.8231 27.9753C73.8231 27.1233 74.5101 26.4363 75.3621 26.4363C76.214 26.4363 76.9011 27.1233 76.9011 27.9753C76.9011 28.8272 76.1866 29.5143 75.3621 29.5143ZM75.3621 27.2882C74.9773 27.2882 74.6475 27.5905 74.6475 28.0028C74.6475 28.415 74.9499 28.7173 75.3621 28.7173C75.7743 28.7173 76.0766 28.415 76.0766 28.0028C76.0766 27.5905 75.7468 27.2882 75.3621 27.2882Z" fill="#D4D4D4"/>
<path d="M141.621 17.3671C141.017 17.3671 140.495 16.8724 140.495 16.2403C140.495 15.6082 140.989 15.1135 141.621 15.1135C142.226 15.1135 142.748 15.6082 142.748 16.2403C142.748 16.8724 142.226 17.3671 141.621 17.3671ZM141.621 15.7181C141.347 15.7181 141.099 15.938 141.099 16.2403C141.099 16.5426 141.319 16.7624 141.621 16.7624C141.896 16.7624 142.144 16.5426 142.144 16.2403C142.144 15.938 141.896 15.7181 141.621 15.7181Z" fill="#D4D4D4"/>
<path d="M149.866 106.712C149.262 106.712 148.739 106.218 148.739 105.585C148.739 104.981 149.234 104.459 149.866 104.459C150.471 104.459 150.993 104.953 150.993 105.585C150.966 106.218 150.471 106.712 149.866 106.712ZM149.866 105.091C149.591 105.091 149.344 105.311 149.344 105.613C149.344 105.888 149.564 106.135 149.866 106.135C150.141 106.135 150.388 105.915 150.388 105.613C150.388 105.311 150.141 105.091 149.866 105.091Z" fill="#D4D4D4"/>
<path d="M105.977 105.283H97.1555C96.9631 105.283 96.8257 105.146 96.8257 104.953C96.8257 104.761 96.9631 104.624 97.1555 104.624H105.977C106.17 104.624 106.307 104.761 106.307 104.953C106.307 105.146 106.142 105.283 105.977 105.283Z" fill="url(#paint2_linear_3269_5314)"/>
<path d="M105.537 103.167C105.785 103.332 105.95 103.607 105.95 103.881V104.596H97.2651V103.854C97.2651 103.579 97.4025 103.304 97.6224 103.139L98.7492 102.37H98.7767V99.2644H104.301V102.425L105.537 103.167Z" fill="url(#paint3_linear_3269_5314)"/>
<path opacity="0.3" d="M105.922 103.909V104.623H103.367V103.909C103.367 103.607 103.312 103.332 103.202 103.194L102.707 102.425V99.2644H104.301V102.425L105.538 103.194C105.785 103.332 105.922 103.607 105.922 103.909Z" fill="#D9D2C7"/>
<g filter="url(#filter0_d_3269_5314)">
<path d="M102.129 29.2668C101.8 28.9645 101.277 28.9645 100.948 29.2668C99.3262 30.6409 96.7979 35.5053 96.7979 40.672V101.381C96.7979 101.958 97.2651 102.397 97.8147 102.397H101.525H105.262C105.84 102.397 106.279 101.93 106.279 101.381V40.672C106.307 35.5053 103.751 30.6684 102.129 29.2668Z" fill="url(#paint4_linear_3269_5314)"/>
</g>
<path d="M106.307 40.6722V101.381C106.307 101.958 105.84 102.425 105.263 102.425H102.625C102.789 102.425 102.927 101.958 102.927 101.381V40.6722C102.927 35.5055 102.185 30.6686 101.718 29.267C101.663 29.1296 101.608 29.0472 101.553 29.0472C101.773 29.0472 101.965 29.1296 102.13 29.267C103.751 30.6686 106.307 35.5055 106.307 40.6722Z" fill="url(#paint5_linear_3269_5314)"/>
<g filter="url(#filter1_d_3269_5314)">
<path d="M118.839 13.602C118.042 13.2173 116.86 13.2173 116.063 13.602C112.298 15.4983 106.279 24.3751 106.279 31.4381C106.279 39.4355 106.279 98.715 106.279 98.715H117.437H128.595C128.595 98.715 128.595 39.4355 128.595 31.4381C128.595 24.4026 122.604 15.5258 118.839 13.602Z" fill="url(#paint6_linear_3269_5314)"/>
</g>
<path d="M128.595 31.4656C128.595 39.463 128.595 98.7425 128.595 98.7425H122.082C122.082 98.7425 122.082 39.463 122.082 31.4656C122.082 24.4027 119.581 15.5259 118.015 13.6296C117.85 13.4372 117.63 13.3273 117.438 13.3273C117.932 13.3273 118.427 13.4372 118.812 13.6296C122.604 15.5259 128.595 24.4027 128.595 31.4656Z" fill="url(#paint7_linear_3269_5314)"/>
<path opacity="0.4" d="M117.437 13.3273C117.273 13.3273 117.108 13.4372 116.998 13.6296C115.761 15.5259 113.837 24.4027 113.837 31.4656C113.837 39.463 113.837 98.7425 113.837 98.7425H109.22C109.22 98.7425 109.22 39.463 109.22 31.4656C109.22 24.4027 113.645 15.5259 116.448 13.6296C116.723 13.4097 117.08 13.3273 117.437 13.3273Z" fill="url(#paint8_linear_3269_5314)"/>
<path opacity="0.4" fill-rule="evenodd" clip-rule="evenodd" d="M106.507 36.0353H128.669V37.0581H106.507V36.0353Z" fill="#979087"/>
<path opacity="0.4" fill-rule="evenodd" clip-rule="evenodd" d="M106.166 47.9684H128.669V48.9913H106.166V47.9684Z" fill="#979087"/>
<path fill-rule="evenodd" clip-rule="evenodd" d="M96.7788 62.9614H103.257V63.9843H96.7788V62.9614Z" fill="#E8E4DC"/>
<path fill-rule="evenodd" clip-rule="evenodd" d="M96.7788 52.3919H103.257V53.4148H96.7788V52.3919Z" fill="#E8E4DC"/>
<path fill-rule="evenodd" clip-rule="evenodd" d="M96.7788 41.1407H103.257V42.1636H96.7788V41.1407Z" fill="#E8E4DC"/>
<path d="M137.775 105.283H128.953C128.76 105.283 128.623 105.146 128.623 104.953C128.623 104.761 128.76 104.624 128.953 104.624H137.775C137.967 104.624 138.104 104.761 138.104 104.953C138.104 105.146 137.94 105.283 137.775 105.283Z" fill="url(#paint9_linear_3269_5314)"/>
<path d="M137.334 103.167C137.582 103.332 137.746 103.607 137.746 103.881V104.596H129.062V103.854C129.062 103.579 129.199 103.304 129.419 103.139L130.546 102.37H130.574V99.2644H136.098V102.425L137.334 103.167Z" fill="url(#paint10_linear_3269_5314)"/>
<path opacity="0.3" d="M137.719 103.909V104.623H135.438V103.909C135.438 103.607 135.356 103.332 135.246 103.194L134.668 102.425V99.2644H136.098V102.425L137.334 103.194C137.582 103.332 137.719 103.607 137.719 103.909Z" fill="#D9D2C7"/>
<g filter="url(#filter2_d_3269_5314)">
<path d="M133.871 29.4341C133.538 29.132 133.01 29.132 132.677 29.4341C131.04 30.8072 128.487 35.6681 128.487 40.831V101.496C128.487 102.072 128.959 102.512 129.514 102.512H133.26H137.006C137.589 102.512 138.033 102.045 138.033 101.496V40.831C138.089 35.6681 135.508 30.8347 133.871 29.4341Z" fill="url(#paint11_linear_3269_5314)"/>
</g>
<path d="M138.105 40.6722V101.381C138.105 101.958 137.637 102.425 137.06 102.425H134.422C134.587 102.425 134.724 101.958 134.724 101.381V40.6722C134.724 35.5055 133.982 30.6686 133.515 29.267C133.46 29.1296 133.405 29.0472 133.35 29.0472C133.57 29.0472 133.762 29.1296 133.927 29.267C135.549 30.6686 138.105 35.5055 138.105 40.6722Z" fill="url(#paint12_linear_3269_5314)"/>
<path fill-rule="evenodd" clip-rule="evenodd" d="M128.487 62.9614H134.965V63.9843H128.487V62.9614Z" fill="#EEEAE4"/>
<path fill-rule="evenodd" clip-rule="evenodd" d="M128.487 53.7559H134.965V54.7788H128.487V53.7559Z" fill="#EEEAE4"/>
<path fill-rule="evenodd" clip-rule="evenodd" d="M128.487 41.1407H134.965V42.1636H128.487V41.1407Z" fill="#EEEAE4"/>
<g filter="url(#filter3_d_3269_5314)">
<path d="M111.034 49.604L111.501 47.8451L112.656 47.5703L114.579 47.1306L114.799 47.0756L114.964 49.604L117.822 91.3223L111.639 99.7593L109.22 99.3471L92.4011 96.4615C91.3568 96.2966 90.6147 95.3896 90.6147 94.3453V86.4029C90.6147 85.4685 90.9995 84.5341 91.6591 83.8745L102.982 72.3869C104.823 70.5181 106.142 68.2096 106.802 65.6812L109.22 56.557L111.034 49.604Z" fill="url(#paint13_linear_3269_5314)"/>
</g>
<path d="M105.995 84.6208C105.995 86.1273 104.774 87.3485 103.268 87.3485C101.761 87.3485 100.54 86.1273 100.54 84.6208C100.54 83.1144 101.761 81.8932 103.268 81.8932C104.774 81.8932 105.995 83.1144 105.995 84.6208Z" fill="#BCB9B3"/>
<path d="M112.628 47.5703V59.0854L111.391 60.4595L111.281 59.7175C111.226 59.3602 110.924 59.0854 110.567 59.0854C110.237 59.0854 109.962 59.3052 109.852 59.6075L106.554 71.7822C106.334 72.6067 105.895 73.3487 105.317 73.9533L92.9504 86.3479C92.7031 86.5952 92.5656 86.925 92.5656 87.2548V89.9481C92.5656 90.6626 93.1428 91.2398 93.8573 91.2398H109.66L110.017 93.7956C110.017 93.9605 94.0222 93.8231 90.5869 93.7956V86.3479C90.5869 85.4135 90.9442 84.4791 91.6312 83.8195L102.954 72.3319C104.795 70.4631 106.114 68.1546 106.774 65.6262L111.474 47.8176L112.628 47.5703Z" fill="url(#paint14_linear_3269_5314)"/>
<path d="M117.822 91.3224L111.639 99.7321L109.193 99.3198V56.5297L111.034 49.6042H114.964L117.822 91.3224Z" fill="url(#paint15_linear_3269_5314)"/>
<g filter="url(#filter4_d_3269_5314)">
<path d="M145.112 86.3754V94.3178C145.112 95.3622 144.37 96.2691 143.325 96.434L130.711 98.6051L124.088 99.7319L117.904 91.3223L120.927 47.0756L121.147 47.1306L123.071 47.5978L124.225 47.8726L128.43 63.7299L128.952 65.6812C129.612 68.2096 130.931 70.5181 132.772 72.3869L144.095 83.8745C144.755 84.5341 145.112 85.441 145.112 86.3754Z" fill="url(#paint16_linear_3269_5314)"/>
</g>
<path d="M134.641 82.7203H129.419V86.4304H134.641V82.7203Z" fill="#BCB9B3"/>
<path d="M132.14 82.7203H129.419V84.754H132.14V82.7203Z" fill="#D9D2C7"/>
<path d="M123.071 47.5703V59.0854L124.308 60.4595L124.418 59.7175C124.473 59.3602 124.775 59.0854 125.132 59.0854C125.462 59.0854 125.737 59.3052 125.847 59.6075L129.172 71.7822C129.392 72.6067 129.832 73.3487 130.409 73.9533L142.776 86.3479C143.024 86.5952 143.161 86.925 143.161 87.2548V89.9481C143.161 90.6626 142.584 91.2398 141.869 91.2398H126.094L125.737 93.7956C125.737 93.9605 141.732 93.8231 145.167 93.7956V86.3479C145.167 85.4135 144.81 84.4791 144.123 83.8195L132.745 72.3594C130.904 70.4906 129.585 68.182 128.925 65.6537L124.226 47.8451L123.071 47.5703Z" fill="url(#paint17_linear_3269_5314)"/>
<path opacity="0.4" d="M130.711 90.9375V98.6051L124.088 99.7319L117.904 91.3223L120.927 47.0756L121.147 47.1306L123.071 47.5978L124.225 47.8726L128.43 63.7299V87.6671C129.749 88.1343 130.711 89.426 130.711 90.9375Z" fill="url(#paint18_linear_3269_5314)"/>
<g filter="url(#filter5_d_3269_5314)">
<path d="M124.308 45.5915V98.7424H111.199V45.5915C111.199 43.283 111.694 41.0019 112.683 38.9133C112.876 38.5285 113.068 38.1163 113.288 37.7315V37.704L116.036 33.142C116.806 31.8503 118.674 31.8503 119.471 33.142L122.22 37.704V37.7315C122.44 38.1163 122.632 38.501 122.824 38.8858C123.814 41.0019 124.308 43.283 124.308 45.5915Z" fill="url(#paint19_linear_3269_5314)"/>
</g>
<path d="M124.309 45.5916V98.7425H120.379V45.5916C120.379 43.283 120.186 41.002 119.774 38.9133C119.691 38.5286 119.637 38.1438 119.527 37.7591V37.7316L118.427 33.1695C118.262 32.5099 118.015 32.2076 117.74 32.2076C118.4 32.2076 119.059 32.5374 119.444 33.1695L122.192 37.7316V37.7591C122.412 38.1438 122.605 38.5286 122.797 38.9133C123.814 41.002 124.309 43.283 124.309 45.5916Z" fill="url(#paint20_linear_3269_5314)"/>
<path d="M122.824 38.9133C122.357 38.1987 121.56 37.7315 120.681 37.7315H114.882C114.003 37.7315 113.178 38.1987 112.711 38.9133C112.903 38.5285 113.096 38.1163 113.316 37.7315V37.704L116.064 33.142C116.833 31.8503 118.702 31.8503 119.499 33.142L122.247 37.704V37.7315C122.44 38.1163 122.66 38.501 122.824 38.9133Z" fill="url(#paint21_linear_3269_5314)"/>
<path d="M120.708 44.7396C120.708 44.9595 120.46 45.0419 120.323 44.877C120.021 44.4923 119.553 44.2724 119.004 44.2724H116.475C115.981 44.2724 115.514 44.4923 115.211 44.8495C115.184 44.877 115.184 44.877 115.156 44.9045C115.019 45.0694 114.771 44.9595 114.771 44.7671C114.771 44.6022 114.771 44.3823 114.771 44.1075C114.771 43.1731 115.541 42.4311 116.475 42.4311H119.004C119.059 42.4311 119.114 42.4311 119.169 42.4311C119.416 42.4586 119.636 42.541 119.856 42.651C120.35 42.9533 120.708 43.5029 120.708 44.1075C120.708 44.3823 120.708 44.5747 120.708 44.7396Z" fill="#77797F"/>
<path opacity="0.5" fill-rule="evenodd" clip-rule="evenodd" d="M111.119 60.0577H124.478V61.0806H111.119V60.0577Z" fill="#B7B4AF"/>
<path opacity="0.5" fill-rule="evenodd" clip-rule="evenodd" d="M111.119 74.7329H124.478V75.7558H111.119V74.7329Z" fill="#B7B4AF"/>
<g filter="url(#filter6_d_3269_5314)">
<path d="M114.332 87.4197H112.738C110.787 87.4197 109.22 88.9862 109.22 90.9374V99.7868H117.85V90.9374C117.822 88.9862 116.256 87.4197 114.332 87.4197Z" fill="url(#paint22_linear_3269_5314)"/>
</g>
<path d="M117.823 90.9374V99.7868H114.387V88.2991C114.387 87.8044 114.002 87.4197 113.508 87.4197H114.305C116.256 87.4197 117.823 88.9862 117.823 90.9374Z" fill="url(#paint23_linear_3269_5314)"/>
<g filter="url(#filter7_d_3269_5314)">
<path d="M122.879 87.4197H121.285C119.334 87.4197 117.767 88.9862 117.767 90.9374V99.7868H126.397V90.9374C126.397 88.9862 124.83 87.4197 122.879 87.4197Z" fill="url(#paint24_linear_3269_5314)"/>
</g>
<path d="M126.397 90.9374V99.7868H123.401V88.5739C123.401 87.9418 122.879 87.4197 122.247 87.4197H122.879C124.83 87.4197 126.397 88.9862 126.397 90.9374Z" fill="url(#paint25_linear_3269_5314)"/>
<path d="M117.74 90.9374V99.7868H120.736V88.5739C120.736 87.9418 121.258 87.4197 121.89 87.4197H121.258C119.334 87.4197 117.74 88.9862 117.74 90.9374Z" fill="url(#paint26_linear_3269_5314)"/>
<path d="M122.301 99.7316H113.232L111.363 100.996C110.979 101.271 110.759 101.683 110.759 102.15V103.387H125.05V102.205C125.05 101.71 124.802 101.271 124.39 101.023L122.301 99.7316Z" fill="#7B746A"/>
<path opacity="0.3" d="M125.05 102.233V103.414H120.763V102.233C120.763 101.738 120.653 101.298 120.488 101.023L119.664 99.7316H122.302L124.391 101.023C124.803 101.271 125.05 101.738 125.05 102.233Z" fill="#D9D2C7"/>
<path d="M116.888 52.1872H116.284C115.981 52.1872 115.734 51.9399 115.734 51.6376V51.033C115.734 50.7307 115.981 50.4833 116.284 50.4833H116.888C117.19 50.4833 117.438 50.7307 117.438 51.033V51.6376C117.438 51.9399 117.19 52.1872 116.888 52.1872Z" fill="#77797F"/>
<path d="M119.444 52.1872H118.839C118.537 52.1872 118.29 51.9399 118.29 51.6376V51.033C118.29 50.7307 118.537 50.4833 118.839 50.4833H119.444C119.746 50.4833 119.993 50.7307 119.993 51.033V51.6376C119.993 51.9399 119.746 52.1872 119.444 52.1872Z" fill="#77797F"/>
<g filter="url(#filter8_d_3269_5314)">
<path d="M118.647 105.613H116.86V85.276C116.86 84.7814 117.273 84.3966 117.74 84.3966C118.234 84.3966 118.619 84.8088 118.619 85.276V105.613H118.647Z" fill="url(#paint27_linear_3269_5314)"/>
</g>
<path fill-rule="evenodd" clip-rule="evenodd" d="M108.698 117.716C107.212 117.716 105.86 118.237 104.82 119.095C104.675 119.215 104.46 119.194 104.34 119.049C104.22 118.904 104.241 118.689 104.386 118.569C105.545 117.613 107.051 117.034 108.698 117.034C111.361 117.034 113.648 118.57 114.748 120.797C114.831 120.966 114.762 121.171 114.593 121.254C114.424 121.337 114.219 121.268 114.136 121.099C113.147 119.094 111.091 117.716 108.698 117.716Z" fill="#CCCCCC"/>
<path opacity="0.3" d="M118.097 42.4034L117.107 44.2722H116.475C115.98 44.2722 115.513 44.492 115.211 44.8493L116.503 42.4034H118.097Z" fill="white"/>
<path opacity="0.3" d="M119.856 42.6232L119.004 44.2722H118.18L119.169 42.4034C119.416 42.4309 119.636 42.5133 119.856 42.6232Z" fill="white"/>
<path fill-rule="evenodd" clip-rule="evenodd" d="M87.509 113.017C76.457 113.017 67.513 121.961 67.513 133.013C67.513 133.767 67.5668 134.523 67.6484 135.285C67.6685 135.472 67.533 135.64 67.3457 135.661C67.1585 135.681 66.9905 135.545 66.9704 135.358C66.8871 134.581 66.8311 133.798 66.8311 133.013C66.8311 121.584 76.0804 112.335 87.509 112.335C97.0378 112.335 105.057 118.762 107.46 127.536C107.51 127.718 107.403 127.906 107.221 127.955C107.04 128.005 106.852 127.898 106.803 127.717C104.479 119.232 96.7232 113.017 87.509 113.017Z" fill="#CCCCCC"/>
<path fill-rule="evenodd" clip-rule="evenodd" d="M67.5386 136.912C67.7225 136.872 67.9044 136.988 67.945 137.172C68.3508 139.012 69 140.796 69.8641 142.416C69.9527 142.582 69.8899 142.789 69.7237 142.878C69.5576 142.966 69.351 142.903 69.2624 142.737C68.3677 141.06 67.6977 139.216 67.2791 137.319C67.2385 137.135 67.3547 136.953 67.5386 136.912Z" fill="#CCCCCC"/>
<path fill-rule="evenodd" clip-rule="evenodd" d="M114.332 121.262C110.776 121.262 107.846 124.061 107.637 127.564C107.626 127.752 107.464 127.895 107.276 127.884C107.088 127.873 106.945 127.712 106.956 127.524C107.187 123.662 110.413 120.58 114.332 120.58C115.802 120.58 117.156 121.012 118.305 121.731C118.465 121.831 118.514 122.041 118.414 122.201C118.314 122.36 118.104 122.409 117.944 122.309C116.895 121.653 115.665 121.262 114.332 121.262Z" fill="#CCCCCC"/>
<path fill-rule="evenodd" clip-rule="evenodd" d="M125.105 116.178C123.717 116.178 122.41 116.596 121.34 117.327C121.184 117.434 120.972 117.394 120.866 117.238C120.76 117.083 120.8 116.87 120.955 116.764C122.139 115.956 123.58 115.496 125.105 115.496C127.555 115.496 129.688 116.679 131.04 118.491C131.152 118.642 131.121 118.855 130.97 118.968C130.819 119.081 130.606 119.05 130.493 118.899C129.262 117.248 127.327 116.178 125.105 116.178Z" fill="#CCCCCC"/>
<path fill-rule="evenodd" clip-rule="evenodd" d="M162.442 128.199C162.611 128.117 162.815 128.187 162.898 128.357C163.882 130.382 164.416 132.631 164.416 135.019C164.416 136.254 164.276 137.463 163.994 138.618C163.949 138.8 163.765 138.913 163.582 138.868C163.399 138.823 163.287 138.639 163.332 138.456C163.6 137.357 163.734 136.203 163.734 135.019C163.734 132.735 163.224 130.587 162.284 128.655C162.202 128.485 162.273 128.281 162.442 128.199Z" fill="#CCCCCC"/>
<path fill-rule="evenodd" clip-rule="evenodd" d="M149.015 120.327C144.02 120.327 139.615 122.824 136.955 126.64C136.847 126.794 136.635 126.832 136.48 126.724C136.326 126.617 136.288 126.404 136.396 126.25C139.177 122.26 143.787 119.645 149.015 119.645C153.99 119.645 158.431 122.007 161.241 125.688C161.355 125.838 161.326 126.052 161.177 126.166C161.027 126.28 160.813 126.252 160.699 126.102C158.013 122.583 153.769 120.327 149.015 120.327Z" fill="#CCCCCC"/>
<path fill-rule="evenodd" clip-rule="evenodd" d="M163.734 133.975C163.734 133.787 163.887 133.634 164.075 133.634H164.487C168.331 133.634 171.451 136.755 171.451 140.598C171.451 141.985 171.046 143.259 170.352 144.329C170.25 144.487 170.038 144.532 169.88 144.429C169.722 144.327 169.677 144.116 169.78 143.958C170.405 142.994 170.769 141.849 170.769 140.598C170.769 137.131 167.954 134.316 164.487 134.316H164.075C163.887 134.316 163.734 134.163 163.734 133.975Z" fill="#CCCCCC"/>
<path opacity="0.3" d="M164.075 135.047C164.075 145.545 153.577 152.8 143.766 149.145C153.165 151.206 162.069 144.061 162.069 134.442C162.069 127.984 158.001 122.46 152.258 120.344C159.018 121.828 164.075 127.846 164.075 135.047Z" fill="#EDE5DA"/>
<path fill-rule="evenodd" clip-rule="evenodd" d="M156.073 148.32C156.165 148.485 156.106 148.692 155.941 148.784C155.68 148.928 155.421 149.044 155.177 149.152L155.172 149.154C155 149.231 154.798 149.153 154.722 148.981C154.645 148.809 154.723 148.608 154.895 148.531C155.144 148.421 155.378 148.316 155.61 148.187C155.774 148.096 155.982 148.155 156.073 148.32Z" fill="#CCCCCC"/>
<path fill-rule="evenodd" clip-rule="evenodd" d="M163.766 138.04C163.95 138.082 164.064 138.265 164.022 138.448C163.179 142.129 161.044 145.305 158.093 147.469C157.941 147.58 157.728 147.547 157.616 147.396C157.505 147.244 157.538 147.03 157.69 146.919C160.51 144.85 162.552 141.815 163.358 138.296C163.4 138.112 163.583 137.998 163.766 138.04Z" fill="#CCCCCC"/>
<path fill-rule="evenodd" clip-rule="evenodd" d="M90.5803 137.907C90.6094 137.721 90.7838 137.594 90.9698 137.623C92.8671 137.919 94.3771 139.341 94.8213 141.177C94.8655 141.36 94.7531 141.545 94.5701 141.589C94.387 141.633 94.2028 141.521 94.1585 141.338C93.7782 139.766 92.485 138.55 90.8645 138.296C90.6785 138.267 90.5512 138.093 90.5803 137.907Z" fill="#CCCCCC"/>
<path fill-rule="evenodd" clip-rule="evenodd" d="M99.381 135.223C96.7006 135.223 94.3328 136.642 92.9903 138.748C92.8891 138.907 92.6783 138.953 92.5195 138.852C92.3607 138.751 92.3141 138.54 92.4153 138.381C93.876 136.09 96.455 134.541 99.381 134.541C101.043 134.541 102.592 135.028 103.885 135.89C104.042 135.994 104.084 136.206 103.979 136.363C103.875 136.519 103.663 136.562 103.507 136.457C102.326 135.67 100.907 135.223 99.381 135.223Z" fill="#CCCCCC"/>
<path fill-rule="evenodd" clip-rule="evenodd" d="M110.209 127.335C106.055 127.335 102.663 130.701 102.663 134.882C102.663 135.078 102.663 135.246 102.687 135.411C102.714 135.597 102.584 135.77 102.398 135.796C102.211 135.823 102.038 135.694 102.012 135.507C101.981 135.291 101.981 135.078 101.981 134.892L101.981 134.882C101.981 130.323 105.68 126.653 110.209 126.653C114.74 126.653 118.438 130.351 118.438 134.882C118.438 135.481 118.381 136.053 118.266 136.625C118.229 136.81 118.05 136.929 117.865 136.893C117.68 136.856 117.561 136.676 117.598 136.491C117.703 135.964 117.756 135.437 117.756 134.882C117.756 130.728 114.363 127.335 110.209 127.335Z" fill="#CCCCCC"/>
<path fill-rule="evenodd" clip-rule="evenodd" d="M117.685 136.323C117.815 136.187 118.031 136.182 118.167 136.312C118.798 136.914 119.347 137.635 119.725 138.448C119.804 138.619 119.73 138.822 119.559 138.901C119.389 138.98 119.186 138.906 119.107 138.735C118.77 138.01 118.275 137.357 117.696 136.805C117.56 136.675 117.555 136.459 117.685 136.323Z" fill="#CCCCCC"/>
<path fill-rule="evenodd" clip-rule="evenodd" d="M129.09 133.162C124.217 133.162 120.143 136.409 118.865 140.857C118.813 141.038 118.624 141.143 118.443 141.091C118.262 141.039 118.157 140.85 118.209 140.669C119.569 135.937 123.904 132.48 129.09 132.48C134.474 132.48 138.98 136.248 140.113 141.265C140.155 141.449 140.04 141.631 139.856 141.673C139.672 141.714 139.49 141.599 139.448 141.415C138.383 136.703 134.149 133.162 129.09 133.162Z" fill="#CCCCCC"/>
<path opacity="0.3" d="M125.627 154.174C121.258 152.718 118.097 148.623 118.097 143.759C118.097 138.674 121.56 134.415 126.232 133.15C117.245 137.08 116.888 149.75 125.627 154.174Z" fill="#EDE5DA"/>
<path fill-rule="evenodd" clip-rule="evenodd" d="M118.152 142.373C118.34 142.373 118.493 142.526 118.493 142.714C118.493 142.808 118.486 142.899 118.479 142.979C118.479 142.983 118.479 142.988 118.478 142.992C118.471 143.079 118.466 143.155 118.466 143.236C118.466 143.425 118.313 143.577 118.125 143.577C117.936 143.577 117.784 143.425 117.784 143.236C117.784 143.125 117.792 143.023 117.799 142.938L117.799 142.935C117.806 142.847 117.811 142.78 117.811 142.714C117.811 142.526 117.964 142.373 118.152 142.373Z" fill="#CCCCCC"/>
<path fill-rule="evenodd" clip-rule="evenodd" d="M141.622 144.127C138.76 144.127 136.466 146.447 136.466 149.283C136.466 149.516 136.487 149.728 136.513 149.979C136.515 150.001 136.517 150.023 136.519 150.046C136.538 150.233 136.401 150.4 136.214 150.419C136.027 150.438 135.86 150.301 135.841 150.113C135.838 150.09 135.836 150.067 135.834 150.043C135.809 149.798 135.784 149.552 135.784 149.283C135.784 146.072 138.382 143.445 141.622 143.445C144.832 143.445 147.459 146.043 147.459 149.283C147.459 149.471 147.306 149.624 147.118 149.624C146.93 149.624 146.777 149.471 146.777 149.283C146.777 146.421 144.457 144.127 141.622 144.127Z" fill="#CCCCCC"/>
<path fill-rule="evenodd" clip-rule="evenodd" d="M180.263 134.398C179.616 134.398 179.035 134.745 178.709 135.257C178.608 135.416 178.397 135.463 178.239 135.362C178.08 135.261 178.033 135.05 178.134 134.891C178.578 134.193 179.37 133.716 180.263 133.716C181.633 133.716 182.747 134.831 182.747 136.201C182.747 136.389 182.595 136.542 182.407 136.542C182.218 136.542 182.066 136.389 182.066 136.201C182.066 135.207 181.256 134.398 180.263 134.398Z" fill="#CCCCCC"/>
<path fill-rule="evenodd" clip-rule="evenodd" d="M177.878 136.289C178.011 136.156 178.227 136.156 178.36 136.289C178.488 136.418 178.487 136.569 178.487 136.609C178.487 136.61 178.487 136.612 178.487 136.613C178.487 136.801 178.335 136.954 178.146 136.954C177.98 136.954 177.842 136.836 177.812 136.679C177.75 136.552 177.772 136.395 177.878 136.289ZM177.805 136.606C177.805 136.606 177.805 136.607 177.805 136.61L177.805 136.606Z" fill="#CCCCCC"/>
<path fill-rule="evenodd" clip-rule="evenodd" d="M178.281 137.158C178.435 137.05 178.648 137.088 178.756 137.242C179.078 137.703 179.608 138.003 180.235 138.003C180.798 138.003 181.281 137.77 181.6 137.405C181.724 137.264 181.939 137.249 182.081 137.373C182.223 137.497 182.237 137.713 182.113 137.854C181.663 138.369 180.991 138.685 180.235 138.685C179.379 138.685 178.644 138.271 178.197 137.633C178.089 137.479 178.126 137.266 178.281 137.158Z" fill="#CCCCCC"/>
<path fill-rule="evenodd" clip-rule="evenodd" d="M100.343 141.736C99.6964 141.736 99.1149 142.083 98.7893 142.595C98.6882 142.754 98.4775 142.8 98.3186 142.699C98.1597 142.598 98.1129 142.388 98.214 142.229C98.6578 141.531 99.4505 141.054 100.343 141.054C101.713 141.054 102.828 142.168 102.828 143.539C102.828 143.727 102.675 143.879 102.487 143.879C102.298 143.879 102.146 143.727 102.146 143.539C102.146 142.545 101.336 141.736 100.343 141.736Z" fill="#CCCCCC"/>
<path fill-rule="evenodd" clip-rule="evenodd" d="M97.9583 143.655C98.0914 143.521 98.3073 143.521 98.4404 143.655C98.569 143.783 98.568 143.934 98.5678 143.974C98.5678 143.975 98.5678 143.977 98.5678 143.978C98.5678 144.166 98.4151 144.319 98.2268 144.319C98.061 144.319 97.9229 144.201 97.8922 144.044C97.8309 143.917 97.8529 143.76 97.9583 143.655ZM97.8858 143.971C97.8858 143.971 97.8858 143.972 97.8859 143.975L97.8858 143.971Z" fill="#CCCCCC"/>
<path fill-rule="evenodd" clip-rule="evenodd" d="M98.3608 144.496C98.5151 144.388 98.7276 144.425 98.8356 144.58C99.1585 145.041 99.6876 145.341 100.315 145.341C100.878 145.341 101.361 145.108 101.68 144.743C101.804 144.601 102.019 144.587 102.161 144.711C102.303 144.835 102.317 145.05 102.193 145.192C101.743 145.707 101.072 146.023 100.315 146.023C99.4587 146.023 98.7237 145.609 98.277 144.971C98.169 144.816 98.2065 144.604 98.3608 144.496Z" fill="#CCCCCC"/>
<path fill-rule="evenodd" clip-rule="evenodd" d="M70.6346 142.918C67.5818 142.918 64.6624 143.62 62.0387 144.837C61.8679 144.917 61.6652 144.842 61.5859 144.672C61.5067 144.501 61.5809 144.298 61.7517 144.219C64.4596 142.963 67.4765 142.236 70.6346 142.236C71.2223 142.236 71.8108 142.264 72.3725 142.32C72.5598 142.339 72.6965 142.506 72.6778 142.693C72.6591 142.881 72.492 143.017 72.3046 142.998C71.767 142.945 71.2012 142.918 70.6346 142.918Z" fill="#CCCCCC"/>
<path fill-rule="evenodd" clip-rule="evenodd" d="M60.3766 145.319C60.4709 145.482 60.4153 145.691 60.2523 145.785C59.7425 146.08 59.2576 146.403 58.7696 146.756C58.6169 146.866 58.4038 146.832 58.2936 146.679C58.1833 146.526 58.2177 146.313 58.3704 146.203C58.8718 145.841 59.3762 145.504 59.9107 145.195C60.0736 145.101 60.2822 145.156 60.3766 145.319Z" fill="#CCCCCC"/>
<path fill-rule="evenodd" clip-rule="evenodd" d="M168.851 143.859C169.412 143.803 170.001 143.775 170.588 143.775C173.746 143.775 176.763 144.502 179.471 145.758C179.642 145.837 179.716 146.04 179.637 146.211C179.558 146.381 179.355 146.456 179.184 146.376C176.561 145.159 173.641 144.457 170.588 144.457C170.022 144.457 169.456 144.484 168.918 144.538C168.731 144.556 168.564 144.42 168.545 144.232C168.526 144.045 168.663 143.878 168.851 143.859Z" fill="#CCCCCC"/>
<path opacity="0.3" fill-rule="evenodd" clip-rule="evenodd" d="M165.504 109.224C157.919 109.224 151.387 113.705 148.417 120.156C148.339 120.327 148.136 120.402 147.965 120.324C147.794 120.245 147.719 120.042 147.798 119.871C150.875 113.186 157.644 108.542 165.504 108.542C176.273 108.542 185 117.27 185 128.039C185 133.296 182.93 138.08 179.545 141.577C179.414 141.713 179.198 141.716 179.063 141.585C178.928 141.454 178.924 141.238 179.055 141.103C182.321 137.729 184.318 133.114 184.318 128.039C184.318 117.646 175.896 109.224 165.504 109.224Z" fill="#CCCCCC"/>
<path opacity="0.3" fill-rule="evenodd" clip-rule="evenodd" d="M75.2157 117.024C68.7365 113.946 60.7734 114.729 54.9431 119.669L54.9429 119.669C49.1674 124.554 47.0882 132.192 49.0049 139.05C49.0556 139.231 48.9497 139.419 48.7684 139.47C48.587 139.52 48.3989 139.414 48.3482 139.233C46.3625 132.129 48.5155 124.212 54.5025 119.149C60.5446 114.03 68.7959 113.219 75.5082 116.408C75.6783 116.488 75.7507 116.692 75.6699 116.862C75.5891 117.032 75.3858 117.104 75.2157 117.024Z" fill="#CCCCCC"/>
<path fill-rule="evenodd" clip-rule="evenodd" d="M54.4203 93.8892C53.4021 93.8892 52.5901 94.7231 52.5901 95.7193C52.5901 95.9076 52.4375 96.0603 52.2492 96.0603C52.0609 96.0603 51.9082 95.9076 51.9082 95.7193C51.9082 94.3521 53.0199 93.2073 54.4203 93.2073C54.694 93.2073 54.9573 93.2378 55.227 93.3389C55.4033 93.405 55.4927 93.6015 55.4266 93.7779C55.3604 93.9542 55.1639 94.0435 54.9876 93.9774C54.8176 93.9136 54.6412 93.8892 54.4203 93.8892Z" fill="#CCCCCC"/>
<path fill-rule="evenodd" clip-rule="evenodd" d="M59.8506 94.4552C59.8506 94.2669 60.0032 94.1143 60.1915 94.1143C61.0877 94.1143 61.8268 94.7502 61.9851 95.5983H64.891C65.0793 95.5983 65.2319 95.751 65.2319 95.9393C65.2319 96.1276 65.0793 96.2802 64.891 96.2802H61.6756C61.4872 96.2802 61.3346 96.1276 61.3346 95.9393C61.3346 95.3031 60.8277 94.7962 60.1915 94.7962C60.0032 94.7962 59.8506 94.6435 59.8506 94.4552Z" fill="#CCCCCC"/>
<path fill-rule="evenodd" clip-rule="evenodd" d="M57.553 92.2404C56.5548 92.2404 55.7182 92.9066 55.4314 93.791C55.3733 93.9701 55.181 94.0682 55.0019 94.0101C54.8228 93.952 54.7246 93.7597 54.7827 93.5806C55.1555 92.4312 56.2427 91.5585 57.553 91.5585C59.1429 91.5585 60.4498 92.8654 60.4498 94.4553C60.4498 94.6436 60.2971 94.7962 60.1088 94.7962C59.9205 94.7962 59.7679 94.6436 59.7679 94.4553C59.7679 93.242 58.7663 92.2404 57.553 92.2404Z" fill="#CCCCCC"/>
<path fill-rule="evenodd" clip-rule="evenodd" d="M77.0753 102.678C77.0638 102.797 76.9894 102.903 76.8784 102.955C76.7575 103.01 76.6152 102.99 76.5141 102.904C76.1811 102.618 75.7629 102.436 75.3069 102.436C74.3134 102.436 73.5042 103.245 73.5042 104.239V104.376C73.5042 104.564 73.3516 104.717 73.1633 104.717H70.8822C70.6939 104.717 70.5413 104.564 70.5413 104.376C70.5413 104.188 70.6939 104.035 70.8822 104.035H72.8306C72.9344 102.76 74.0054 101.754 75.3069 101.754C75.7722 101.754 76.1998 101.889 76.566 102.105C77.2934 100.423 78.9608 99.2258 80.9133 99.2258C83.52 99.2258 85.6514 101.357 85.6514 103.964C85.6514 104.095 85.6427 104.232 85.6304 104.365H86.4922C86.6805 104.365 86.8332 104.518 86.8332 104.706C86.8332 104.894 86.6805 105.047 86.4922 105.047H85.3105C85.22 105.047 85.1333 105.011 85.0694 104.947L85.0144 104.892C84.94 104.818 84.9041 104.713 84.9172 104.609C84.9447 104.389 84.9695 104.16 84.9695 103.964C84.9695 101.734 83.1434 99.9077 80.9133 99.9077C79.134 99.9077 77.6224 101.075 77.0753 102.678Z" fill="#CCCCCC"/>
<path fill-rule="evenodd" clip-rule="evenodd" d="M151.241 71.5186C149.23 71.5186 147.597 73.1523 147.597 75.1626C147.597 75.3509 147.444 75.5036 147.256 75.5036C147.067 75.5036 146.915 75.3509 146.915 75.1626C146.915 72.7757 148.854 70.8367 151.241 70.8367C151.723 70.8367 152.168 70.9273 152.593 71.0406C152.775 71.0891 152.883 71.2759 152.834 71.4579C152.786 71.6398 152.599 71.748 152.417 71.6995C152.017 71.5929 151.638 71.5186 151.241 71.5186Z" fill="#CCCCCC"/>
<path fill-rule="evenodd" clip-rule="evenodd" d="M173.49 75.5748C173.49 75.3865 173.643 75.2339 173.831 75.2339H180.867C181.055 75.2339 181.208 75.3865 181.208 75.5748C181.208 75.7631 181.055 75.9158 180.867 75.9158H173.831C173.643 75.9158 173.49 75.7631 173.49 75.5748Z" fill="#CCCCCC"/>
<path fill-rule="evenodd" clip-rule="evenodd" d="M161.59 72.8264C161.59 72.6381 161.743 72.4855 161.931 72.4855C163.516 72.4855 164.807 73.6689 164.975 75.2062H170.588C170.777 75.2062 170.929 75.3589 170.929 75.5472C170.929 75.7355 170.777 75.8881 170.588 75.8881H164.652C164.464 75.8881 164.311 75.7355 164.311 75.5472C164.311 74.224 163.255 73.1674 161.931 73.1674C161.743 73.1674 161.59 73.0147 161.59 72.8264Z" fill="#CCCCCC"/>
<path fill-rule="evenodd" clip-rule="evenodd" d="M157.039 68.4404C155.074 68.4404 153.417 69.716 152.857 71.4735C152.8 71.6529 152.608 71.7519 152.429 71.6947C152.249 71.6375 152.15 71.4457 152.207 71.2663C152.856 69.2312 154.772 67.7585 157.039 67.7585C159.838 67.7585 162.107 70.0273 162.107 72.8265C162.107 73.0148 161.954 73.1674 161.766 73.1674C161.578 73.1674 161.425 73.0148 161.425 72.8265C161.425 70.4039 159.462 68.4404 157.039 68.4404Z" fill="#CCCCCC"/>
<path fill-rule="evenodd" clip-rule="evenodd" d="M85.7528 78.7691C85.9621 78.6993 86.2205 78.6692 86.4378 78.6692C87.6737 78.6692 88.6476 79.677 88.6476 80.8789C88.6476 81.0672 88.4949 81.2199 88.3066 81.2199C88.1183 81.2199 87.9657 81.0672 87.9657 80.8789C87.9657 80.0471 87.2906 79.3511 86.4378 79.3511C86.2703 79.3511 86.089 79.3758 85.9685 79.416C85.7898 79.4756 85.5968 79.379 85.5372 79.2004C85.4777 79.0217 85.5742 78.8287 85.7528 78.7691Z" fill="#CCCCCC"/>
<path fill-rule="evenodd" clip-rule="evenodd" d="M72.2729 81.0435C72.2729 80.8552 72.4255 80.7026 72.6138 80.7026H75.9117C76.1 80.7026 76.2527 80.8552 76.2527 81.0435C76.2527 81.2318 76.1 81.3845 75.9117 81.3845H72.6138C72.4255 81.3845 72.2729 81.2318 72.2729 81.0435Z" fill="#CCCCCC"/>
<path fill-rule="evenodd" clip-rule="evenodd" d="M79.8945 80.7026C80.0487 79.9895 80.6772 79.4385 81.4633 79.4385C81.6516 79.4385 81.8043 79.5911 81.8043 79.7794C81.8043 79.9677 81.6516 80.1204 81.4633 80.1204C80.9419 80.1204 80.5401 80.54 80.5401 81.0436C80.5401 81.2319 80.3874 81.3845 80.1991 81.3845H77.4234C77.2351 81.3845 77.0824 81.2319 77.0824 81.0436C77.0824 80.8553 77.2351 80.7026 77.4234 80.7026H79.8945Z" fill="#CCCCCC"/>
<path fill-rule="evenodd" clip-rule="evenodd" d="M81.2049 79.752C81.2049 78.3545 82.3469 77.2125 83.7444 77.2125C84.8599 77.2125 85.8406 77.9733 86.1585 78.9907C86.2147 79.1705 86.1145 79.3617 85.9348 79.4179C85.755 79.474 85.5638 79.3739 85.5076 79.1941C85.2759 78.4527 84.5527 77.8944 83.7444 77.8944C82.7235 77.8944 81.8868 78.7311 81.8868 79.752C81.8868 79.9403 81.7341 80.093 81.5458 80.093C81.3575 80.093 81.2049 79.9403 81.2049 79.752Z" fill="#CCCCCC"/>
<path fill-rule="evenodd" clip-rule="evenodd" d="M160.216 88.9587C160.216 86.4329 162.266 84.4129 164.762 84.4129C166.656 84.4129 168.245 85.5554 168.944 87.1566C169.301 86.9492 169.707 86.8314 170.148 86.8314C171.395 86.8314 172.412 87.7833 172.514 89.0025H174.353C174.541 89.0025 174.694 89.1551 174.694 89.3434C174.694 89.5317 174.541 89.6844 174.353 89.6844H172.182C171.994 89.6844 171.841 89.5317 171.841 89.3434V89.206C171.841 88.2675 171.087 87.5133 170.148 87.5133C169.715 87.5133 169.325 87.6714 168.996 87.9533C168.895 88.04 168.753 88.0599 168.632 88.0042C168.521 87.9532 168.446 87.8472 168.435 87.7272C167.915 86.2076 166.486 85.0948 164.762 85.0948C162.64 85.0948 160.898 86.8124 160.898 88.9587C160.898 89.1537 160.922 89.3524 160.95 89.5759C160.963 89.6803 160.927 89.7849 160.853 89.8593L160.798 89.9143C160.734 89.9782 160.647 90.0142 160.557 90.0142H159.43C159.242 90.0142 159.089 89.8615 159.089 89.6732C159.089 89.4849 159.242 89.3323 159.43 89.3323H160.236C160.224 89.2107 160.216 89.0851 160.216 88.9587Z" fill="#CCCCCC"/>
<path fill-rule="evenodd" clip-rule="evenodd" d="M63.8354 27.5907H64.5173V27.7276L63.8354 27.7284V27.5907Z" fill="#CCCCCC"/>
<path d="M164.783 41.4099C167.949 38.2438 167.949 33.1106 164.783 29.9445C161.617 26.7784 156.484 26.7784 153.318 29.9445C150.152 33.1106 150.152 38.2438 153.318 41.4099C156.484 44.5759 161.617 44.5759 164.783 41.4099Z" fill="url(#paint28_linear_3269_5314)"/>
<path d="M160.749 43.6128C157.506 40.6722 154.098 37.2643 151.13 33.9939C152.45 27.7554 160.227 25.3645 164.817 29.9266C169.351 34.4886 166.988 42.2936 160.749 43.6128Z" fill="#F1F3FA"/>
<path fill-rule="evenodd" clip-rule="evenodd" d="M151.502 33.8952C154.394 37.0736 157.695 40.3747 160.848 43.2414C166.696 41.8741 168.877 34.4961 164.576 30.1675C160.221 25.8397 152.869 28.0454 151.502 33.8952ZM150.797 33.9232C152.171 27.4225 160.274 24.9305 165.057 29.6845L165.058 29.686C169.784 34.4401 167.322 42.5712 160.82 43.9461L160.649 43.9822L160.52 43.8651C157.269 40.917 153.853 37.5014 150.878 34.2228L150.761 34.0937L150.797 33.9232Z" fill="#CCCCCC"/>
<g filter="url(#filter9_d_3269_5314)">
<path d="M154.154 29.212C148.547 24.2377 144.095 21.2696 143.216 22.149C142.309 23.0559 145.634 27.9753 151.103 33.9939C160.117 43.97 171.138 52.9567 172.594 51.5002C174.106 49.9886 164.322 38.1987 154.154 29.212ZM162.893 42.8157C153.082 35.368 144.782 22.946 153.687 29.5692C159.953 34.2138 168.032 43.5852 166.878 44.7395C166.466 45.1517 164.954 44.3822 162.893 42.8157Z" fill="#D9D2C7"/>
</g>
<g opacity="0.3" filter="url(#filter10_d_3269_5314)">
<path d="M146.981 25.3643C145.964 26.3812 150.141 32.2074 156.325 38.391C162.508 44.5745 168.334 48.7518 169.351 47.735C171.742 45.344 149.399 22.9459 146.981 25.3643ZM149.976 27.8377C150.718 27.0957 155.115 30.2562 159.787 34.9282C164.459 39.6002 167.62 43.9699 166.878 44.7394C165.091 46.5258 148.19 29.6241 149.976 27.8377Z" fill="#EDE5DA"/>
</g>
<path d="M162.893 42.8156C159.293 40.0948 154.621 35.4228 151.9 31.8226C154.401 27.1506 160.859 25.9964 164.789 29.9264C168.692 33.8289 167.592 40.2872 162.893 42.8156Z" fill="url(#paint29_linear_3269_5314)"/>
<path opacity="0.3" d="M164.762 41.4417C164.185 41.9913 163.552 42.4585 162.893 42.8158C159.293 40.095 154.621 35.423 151.9 31.8228C152.23 31.1907 152.697 30.6411 153.219 30.0914C152.642 32.345 163.168 42.6509 164.762 41.4417Z" fill="#867966"/>
<path opacity="0.4" d="M164.597 38.1436C165.219 38.1436 165.723 37.3193 165.723 36.3023C165.723 35.2854 165.219 34.461 164.597 34.461C163.974 34.461 163.47 35.2854 163.47 36.3023C163.47 37.3193 163.974 38.1436 164.597 38.1436Z" fill="#85827B"/>
<path opacity="0.4" d="M161.794 32.5647C162.295 32.5647 162.701 32.0726 162.701 31.4654C162.701 30.8583 162.295 30.3661 161.794 30.3661C161.293 30.3661 160.887 30.8583 160.887 31.4654C160.887 32.0726 161.293 32.5647 161.794 32.5647Z" fill="#85827B"/>
<path opacity="0.4" d="M156.207 31.7057C156.671 31.6305 156.998 31.2659 156.938 30.8913C156.877 30.5168 156.451 30.2741 155.987 30.3493C155.523 30.4245 155.195 30.7891 155.256 31.1636C155.316 31.5382 155.742 31.7809 156.207 31.7057Z" fill="#85827B"/>
<path opacity="0.4" d="M159.223 34.7511C159.972 34.6298 160.497 34.0214 160.395 33.3922C160.293 32.7629 159.604 32.3511 158.854 32.4724C158.105 32.5936 157.581 33.2021 157.682 33.8313C157.784 34.4606 158.474 34.8724 159.223 34.7511Z" fill="#85827B"/>
<g filter="url(#filter11_d_3269_5314)">
<path d="M85.9151 49.5765C85.9151 58.3434 77.0657 64.3895 68.9035 61.1741C66.7599 60.3221 64.9185 58.9205 63.5444 57.1067C57.3609 48.9719 63.1047 37.0995 73.4656 37.0995C74.8946 37.0995 76.2413 37.3468 77.5055 37.7591C82.4248 39.4905 85.9151 44.1625 85.9151 49.5765Z" fill="url(#paint30_linear_3269_5314)"/>
</g>
<path d="M71.8993 50.7583C71.8993 52.5172 70.4703 53.9463 68.7114 53.9463C68.2167 53.9463 67.7495 53.8364 67.3098 53.6165C66.238 53.0943 65.5234 52.0225 65.5234 50.7583C65.5234 48.9995 66.9525 47.5704 68.7114 47.5704C69.6183 47.5704 70.4703 47.9551 71.0474 48.5872C71.5696 49.1369 71.8993 49.9064 71.8993 50.7583Z" fill="url(#paint31_linear_3269_5314)"/>
<path opacity="0.4" d="M71.899 50.7584C71.899 52.5173 70.4699 53.9464 68.7111 53.9464C68.2164 53.9464 67.7492 53.8364 67.3095 53.6166C66.7873 53.0394 66.4575 52.2974 66.4575 51.4455C66.4575 49.6866 67.8866 48.2575 69.6455 48.2575C70.1402 48.2575 70.6074 48.3674 71.0471 48.5873C71.5692 49.1369 71.899 49.9065 71.899 50.7584Z" fill="#BCB9B3"/>
<path d="M76.7094 45.3994C76.7094 46.6086 75.7475 47.5705 74.5383 47.5705C74.3184 47.5705 74.1261 47.543 73.9337 47.488C73.0268 47.2407 72.3672 46.3887 72.3672 45.3994C72.3672 44.1902 73.3291 43.2283 74.5383 43.2283C75.1429 43.2283 75.6651 43.4756 76.0498 43.8329C76.4621 44.2451 76.7094 44.7948 76.7094 45.3994Z" fill="url(#paint32_linear_3269_5314)"/>
<path opacity="0.4" d="M76.7087 45.3994C76.7087 46.6086 75.7469 47.5705 74.5376 47.5705C74.3178 47.5705 74.1254 47.543 73.933 47.4881C73.5208 47.1033 73.2734 46.5537 73.2734 45.9491C73.2734 44.7398 74.2353 43.778 75.4445 43.778C75.6644 43.778 75.8568 43.8054 76.0492 43.8604C76.4614 44.2452 76.7087 44.7948 76.7087 45.3994Z" fill="#BCB9B3"/>
<path d="M78.4955 54.3036C78.4955 55.5128 77.5337 56.4747 76.3244 56.4747C76.2145 56.4747 76.0771 56.4747 75.9672 56.4472C74.9228 56.2823 74.1533 55.3754 74.1533 54.3036C74.1533 53.0944 75.1152 52.1325 76.3244 52.1325C76.7641 52.1325 77.1764 52.2699 77.5337 52.4898C78.1108 52.8745 78.4955 53.5341 78.4955 54.3036Z" fill="url(#paint33_linear_3269_5314)"/>
<path opacity="0.4" d="M78.4951 54.3037C78.4951 55.5129 77.5333 56.4748 76.324 56.4748C76.2141 56.4748 76.0767 56.4748 75.9668 56.4473C75.3896 56.0625 75.0049 55.403 75.0049 54.6335C75.0049 53.4242 75.9668 52.4623 77.176 52.4623C77.2859 52.4623 77.3958 52.4623 77.5333 52.4898C78.1104 52.8746 78.4951 53.5342 78.4951 54.3037Z" fill="#BCB9B3"/>
<path d="M80.914 49.3017C80.914 50.0986 80.2819 50.7307 79.4849 50.7307C79.4024 50.7307 79.32 50.7307 79.2375 50.7033C78.5505 50.5933 78.0283 49.9887 78.0283 49.2742C78.0283 48.4772 78.6879 47.8451 79.4574 47.8451C79.7872 47.8451 80.0895 47.955 80.3368 48.1474C80.6941 48.4497 80.914 48.8619 80.914 49.3017Z" fill="url(#paint34_linear_3269_5314)"/>
<path opacity="0.4" d="M80.9136 49.3018C80.9136 50.0988 80.2815 50.7309 79.4845 50.7309C79.402 50.7309 79.3196 50.7309 79.2371 50.7034C78.9074 50.4286 78.6875 50.0164 78.6875 49.5767C78.6875 48.7797 79.3196 48.1476 80.1166 48.1476C80.199 48.1476 80.2815 48.1476 80.3639 48.1751C80.6937 48.4499 80.9136 48.8621 80.9136 49.3018Z" fill="#BCB9B3"/>
<path opacity="0.1" d="M85.9159 49.5767C85.9159 58.3436 77.0666 64.3897 68.9043 61.1742C69.0967 61.0093 69.344 60.8994 69.5639 60.7895C73.8236 58.7008 77.7536 60.4047 79.4301 57.4366C80.1996 56.0625 79.7598 54.2762 80.4744 52.8746C80.8042 52.1875 81.3813 51.6379 81.7111 50.9783C82.8928 48.5598 80.4744 43.3382 80.9416 41.8816C81.134 41.3045 81.7111 40.9472 82.3157 40.8373C84.5418 43.0908 85.9159 46.1689 85.9159 49.5767Z" fill="#3C3B3B"/>
<path opacity="0.1" d="M77.8079 39.6828C77.1209 41.4142 74.2627 40.892 72.9985 40.9195C70.4426 40.947 70.0854 42.2386 69.5632 42.9257C68.7387 43.9975 67.2272 44.4372 65.963 43.9975C67.0623 49.2741 64.7813 48.8069 64.369 50.4833C63.9018 52.4621 67.4196 53.6713 66.76 55.6226C66.3752 56.7493 64.7263 57.0242 63.5171 57.1066C57.3335 48.9718 63.0774 37.0994 73.4382 37.0994C74.8673 37.0994 76.2139 37.3468 77.4781 37.759C77.8629 38.3636 78.0553 39.0782 77.8079 39.6828Z" fill="white"/>
<path opacity="0.3" d="M67.8594 45.1795C68.3451 45.1795 68.7389 44.7858 68.7389 44.3001C68.7389 43.8144 68.3451 43.4207 67.8594 43.4207C67.3737 43.4207 66.98 43.8144 66.98 44.3001C66.98 44.7858 67.3737 45.1795 67.8594 45.1795Z" fill="#8A8987"/>
<defs>
<filter id="filter0_d_3269_5314" x="88.6579" y="24.97" width="25.7614" height="89.6374" filterUnits="userSpaceOnUse" color-interpolation-filters="sRGB">
<feFlood flood-opacity="0" result="BackgroundImageFix"/>
<feColorMatrix in="SourceAlpha" type="matrix" values="0 0 0 0 0 0 0 0 0 0 0 0 0 0 0 0 0 0 127 0" result="hardAlpha"/>
<feOffset dy="4.07"/>
<feGaussianBlur stdDeviation="4.07"/>
<feColorMatrix type="matrix" values="0 0 0 0 0.576471 0 0 0 0 0.501961 0 0 0 0 0.396078 0 0 0 0.37 0"/>
<feBlend mode="normal" in2="BackgroundImageFix" result="effect1_dropShadow_3269_5314"/>
<feBlend mode="normal" in="SourceGraphic" in2="effect1_dropShadow_3269_5314" result="shape"/>
</filter>
<filter id="filter1_d_3269_5314" x="98.1393" y="9.24348" width="38.5959" height="101.681" filterUnits="userSpaceOnUse" color-interpolation-filters="sRGB">
<feFlood flood-opacity="0" result="BackgroundImageFix"/>
<feColorMatrix in="SourceAlpha" type="matrix" values="0 0 0 0 0 0 0 0 0 0 0 0 0 0 0 0 0 0 127 0" result="hardAlpha"/>
<feOffset dy="4.07"/>
<feGaussianBlur stdDeviation="4.07"/>
<feColorMatrix type="matrix" values="0 0 0 0 0.576471 0 0 0 0 0.501961 0 0 0 0 0.396078 0 0 0 0.37 0"/>
<feBlend mode="normal" in2="BackgroundImageFix" result="effect1_dropShadow_3269_5314"/>
<feBlend mode="normal" in="SourceGraphic" in2="effect1_dropShadow_3269_5314" result="shape"/>
</filter>
<filter id="filter2_d_3269_5314" x="120.347" y="25.1375" width="25.8264" height="89.5843" filterUnits="userSpaceOnUse" color-interpolation-filters="sRGB">
<feFlood flood-opacity="0" result="BackgroundImageFix"/>
<feColorMatrix in="SourceAlpha" type="matrix" values="0 0 0 0 0 0 0 0 0 0 0 0 0 0 0 0 0 0 127 0" result="hardAlpha"/>
<feOffset dy="4.07"/>
<feGaussianBlur stdDeviation="4.07"/>
<feColorMatrix type="matrix" values="0 0 0 0 0.576471 0 0 0 0 0.501961 0 0 0 0 0.396078 0 0 0 0.37 0"/>
<feBlend mode="normal" in2="BackgroundImageFix" result="effect1_dropShadow_3269_5314"/>
<feBlend mode="normal" in="SourceGraphic" in2="effect1_dropShadow_3269_5314" result="shape"/>
</filter>
<filter id="filter3_d_3269_5314" x="82.4747" y="43.0056" width="43.4875" height="68.9637" filterUnits="userSpaceOnUse" color-interpolation-filters="sRGB">
<feFlood flood-opacity="0" result="BackgroundImageFix"/>
<feColorMatrix in="SourceAlpha" type="matrix" values="0 0 0 0 0 0 0 0 0 0 0 0 0 0 0 0 0 0 127 0" result="hardAlpha"/>
<feOffset dy="4.07"/>
<feGaussianBlur stdDeviation="4.07"/>
<feColorMatrix type="matrix" values="0 0 0 0 0.576471 0 0 0 0 0.501961 0 0 0 0 0.396078 0 0 0 0.37 0"/>
<feBlend mode="normal" in2="BackgroundImageFix" result="effect1_dropShadow_3269_5314"/>
<feBlend mode="normal" in="SourceGraphic" in2="effect1_dropShadow_3269_5314" result="shape"/>
</filter>
<filter id="filter4_d_3269_5314" x="109.764" y="43.0056" width="43.4875" height="68.9363" filterUnits="userSpaceOnUse" color-interpolation-filters="sRGB">
<feFlood flood-opacity="0" result="BackgroundImageFix"/>
<feColorMatrix in="SourceAlpha" type="matrix" values="0 0 0 0 0 0 0 0 0 0 0 0 0 0 0 0 0 0 127 0" result="hardAlpha"/>
<feOffset dy="4.07"/>
<feGaussianBlur stdDeviation="4.07"/>
<feColorMatrix type="matrix" values="0 0 0 0 0.576471 0 0 0 0 0.501961 0 0 0 0 0.396078 0 0 0 0.37 0"/>
<feBlend mode="normal" in2="BackgroundImageFix" result="effect1_dropShadow_3269_5314"/>
<feBlend mode="normal" in="SourceGraphic" in2="effect1_dropShadow_3269_5314" result="shape"/>
</filter>
<filter id="filter5_d_3269_5314" x="103.059" y="28.1032" width="29.3889" height="82.8492" filterUnits="userSpaceOnUse" color-interpolation-filters="sRGB">
<feFlood flood-opacity="0" result="BackgroundImageFix"/>
<feColorMatrix in="SourceAlpha" type="matrix" values="0 0 0 0 0 0 0 0 0 0 0 0 0 0 0 0 0 0 127 0" result="hardAlpha"/>
<feOffset dy="4.07"/>
<feGaussianBlur stdDeviation="4.07"/>
<feColorMatrix type="matrix" values="0 0 0 0 0.397708 0 0 0 0 0.47749 0 0 0 0 0.575 0 0 0 0.27 0"/>
<feBlend mode="normal" in2="BackgroundImageFix" result="effect1_dropShadow_3269_5314"/>
<feBlend mode="normal" in="SourceGraphic" in2="effect1_dropShadow_3269_5314" result="shape"/>
</filter>
<filter id="filter6_d_3269_5314" x="101.08" y="83.3497" width="24.9094" height="28.6471" filterUnits="userSpaceOnUse" color-interpolation-filters="sRGB">
<feFlood flood-opacity="0" result="BackgroundImageFix"/>
<feColorMatrix in="SourceAlpha" type="matrix" values="0 0 0 0 0 0 0 0 0 0 0 0 0 0 0 0 0 0 127 0" result="hardAlpha"/>
<feOffset dy="4.07"/>
<feGaussianBlur stdDeviation="4.07"/>
<feColorMatrix type="matrix" values="0 0 0 0 0.576471 0 0 0 0 0.501961 0 0 0 0 0.396078 0 0 0 0.27 0"/>
<feBlend mode="normal" in2="BackgroundImageFix" result="effect1_dropShadow_3269_5314"/>
<feBlend mode="normal" in="SourceGraphic" in2="effect1_dropShadow_3269_5314" result="shape"/>
</filter>
<filter id="filter7_d_3269_5314" x="109.627" y="83.3497" width="24.9094" height="28.6471" filterUnits="userSpaceOnUse" color-interpolation-filters="sRGB">
<feFlood flood-opacity="0" result="BackgroundImageFix"/>
<feColorMatrix in="SourceAlpha" type="matrix" values="0 0 0 0 0 0 0 0 0 0 0 0 0 0 0 0 0 0 127 0" result="hardAlpha"/>
<feOffset dy="4.07"/>
<feGaussianBlur stdDeviation="4.07"/>
<feColorMatrix type="matrix" values="0 0 0 0 0.576471 0 0 0 0 0.501961 0 0 0 0 0.396078 0 0 0 0.27 0"/>
<feBlend mode="normal" in2="BackgroundImageFix" result="effect1_dropShadow_3269_5314"/>
<feBlend mode="normal" in="SourceGraphic" in2="effect1_dropShadow_3269_5314" result="shape"/>
</filter>
<filter id="filter8_d_3269_5314" x="108.72" y="80.3266" width="18.0661" height="37.4964" filterUnits="userSpaceOnUse" color-interpolation-filters="sRGB">
<feFlood flood-opacity="0" result="BackgroundImageFix"/>
<feColorMatrix in="SourceAlpha" type="matrix" values="0 0 0 0 0 0 0 0 0 0 0 0 0 0 0 0 0 0 127 0" result="hardAlpha"/>
<feOffset dy="4.07"/>
<feGaussianBlur stdDeviation="4.07"/>
<feColorMatrix type="matrix" values="0 0 0 0 0.397708 0 0 0 0 0.47749 0 0 0 0 0.575 0 0 0 0.27 0"/>
<feBlend mode="normal" in2="BackgroundImageFix" result="effect1_dropShadow_3269_5314"/>
<feBlend mode="normal" in="SourceGraphic" in2="effect1_dropShadow_3269_5314" result="shape"/>
</filter>
<filter id="filter9_d_3269_5314" x="134.927" y="17.9254" width="45.9621" height="45.9405" filterUnits="userSpaceOnUse" color-interpolation-filters="sRGB">
<feFlood flood-opacity="0" result="BackgroundImageFix"/>
<feColorMatrix in="SourceAlpha" type="matrix" values="0 0 0 0 0 0 0 0 0 0 0 0 0 0 0 0 0 0 127 0" result="hardAlpha"/>
<feOffset dy="4.07"/>
<feGaussianBlur stdDeviation="4.07"/>
<feColorMatrix type="matrix" values="0 0 0 0 0.576471 0 0 0 0 0.501961 0 0 0 0 0.396078 0 0 0 0.27 0"/>
<feBlend mode="normal" in2="BackgroundImageFix" result="effect1_dropShadow_3269_5314"/>
<feBlend mode="normal" in="SourceGraphic" in2="effect1_dropShadow_3269_5314" result="shape"/>
</filter>
<filter id="filter10_d_3269_5314" x="138.688" y="21.112" width="38.9817" height="38.9854" filterUnits="userSpaceOnUse" color-interpolation-filters="sRGB">
<feFlood flood-opacity="0" result="BackgroundImageFix"/>
<feColorMatrix in="SourceAlpha" type="matrix" values="0 0 0 0 0 0 0 0 0 0 0 0 0 0 0 0 0 0 127 0" result="hardAlpha"/>
<feOffset dy="4.07"/>
<feGaussianBlur stdDeviation="4.07"/>
<feColorMatrix type="matrix" values="0 0 0 0 0.576471 0 0 0 0 0.501961 0 0 0 0 0.396078 0 0 0 0.27 0"/>
<feBlend mode="normal" in2="BackgroundImageFix" result="effect1_dropShadow_3269_5314"/>
<feBlend mode="normal" in="SourceGraphic" in2="effect1_dropShadow_3269_5314" result="shape"/>
</filter>
<filter id="filter11_d_3269_5314" x="52.8546" y="33.0295" width="41.2004" height="41.2296" filterUnits="userSpaceOnUse" color-interpolation-filters="sRGB">
<feFlood flood-opacity="0" result="BackgroundImageFix"/>
<feColorMatrix in="SourceAlpha" type="matrix" values="0 0 0 0 0 0 0 0 0 0 0 0 0 0 0 0 0 0 127 0" result="hardAlpha"/>
<feOffset dy="4.07"/>
<feGaussianBlur stdDeviation="4.07"/>
<feColorMatrix type="matrix" values="0 0 0 0 0.576471 0 0 0 0 0.501961 0 0 0 0 0.396078 0 0 0 0.37 0"/>
<feBlend mode="normal" in2="BackgroundImageFix" result="effect1_dropShadow_3269_5314"/>
<feBlend mode="normal" in="SourceGraphic" in2="effect1_dropShadow_3269_5314" result="shape"/>
</filter>
<linearGradient id="paint0_linear_3269_5314" x1="117.606" y1="19.32" x2="117.606" y2="132.19" gradientUnits="userSpaceOnUse">
<stop stop-color="#F0F0F0"/>
<stop offset="1" stop-color="#E6E6E6"/>
</linearGradient>
<linearGradient id="paint1_linear_3269_5314" x1="125.035" y1="103.414" x2="110.556" y2="104.13" gradientUnits="userSpaceOnUse">
<stop stop-color="#606060"/>
<stop offset="1" stop-color="#7B7B7B"/>
</linearGradient>
<linearGradient id="paint2_linear_3269_5314" x1="105.931" y1="104.624" x2="97.1367" y2="105.064" gradientUnits="userSpaceOnUse">
<stop stop-color="#606060"/>
<stop offset="1" stop-color="#7B7B7B"/>
</linearGradient>
<linearGradient id="paint3_linear_3269_5314" x1="105.605" y1="99.2644" x2="97.5301" y2="99.3102" gradientUnits="userSpaceOnUse">
<stop stop-color="#606060"/>
<stop offset="1" stop-color="#7B7B7B"/>
</linearGradient>
<linearGradient id="paint4_linear_3269_5314" x1="96.7332" y1="74.249" x2="103.516" y2="74.1681" gradientUnits="userSpaceOnUse">
<stop stop-color="#FDFEFF"/>
<stop offset="0.9964" stop-color="#F6F6F4"/>
</linearGradient>
<linearGradient id="paint5_linear_3269_5314" x1="107.611" y1="62.9703" x2="101.474" y2="62.7999" gradientUnits="userSpaceOnUse">
<stop stop-color="#998E7B"/>
<stop offset="1" stop-color="#E9DCCA" stop-opacity="0.1"/>
</linearGradient>
<linearGradient id="paint6_linear_3269_5314" x1="117.43" y1="11.3381" x2="117.43" y2="99.6357" gradientUnits="userSpaceOnUse">
<stop stop-color="#E9DCC9"/>
<stop offset="0.9964" stop-color="#D7CDC1"/>
</linearGradient>
<linearGradient id="paint7_linear_3269_5314" x1="130.544" y1="54.6171" x2="123.043" y2="54.6171" gradientUnits="userSpaceOnUse">
<stop stop-color="#998E7B"/>
<stop offset="1" stop-color="#998E7B" stop-opacity="0"/>
</linearGradient>
<linearGradient id="paint8_linear_3269_5314" x1="123.554" y1="35.8648" x2="103.097" y2="28.5344" gradientUnits="userSpaceOnUse">
<stop stop-color="white"/>
<stop offset="1" stop-color="white" stop-opacity="0"/>
</linearGradient>
<linearGradient id="paint9_linear_3269_5314" x1="137.728" y1="104.624" x2="128.934" y2="105.064" gradientUnits="userSpaceOnUse">
<stop stop-color="#606060"/>
<stop offset="1" stop-color="#7B7B7B"/>
</linearGradient>
<linearGradient id="paint10_linear_3269_5314" x1="137.402" y1="99.2644" x2="129.327" y2="99.3102" gradientUnits="userSpaceOnUse">
<stop stop-color="#606060"/>
<stop offset="1" stop-color="#7B7B7B"/>
</linearGradient>
<linearGradient id="paint11_linear_3269_5314" x1="128.422" y1="74.3838" x2="135.252" y2="74.3017" gradientUnits="userSpaceOnUse">
<stop stop-color="#FDFEFF"/>
<stop offset="0.9964" stop-color="#F6F6F4"/>
</linearGradient>
<linearGradient id="paint12_linear_3269_5314" x1="139.409" y1="62.9703" x2="133.272" y2="62.7999" gradientUnits="userSpaceOnUse">
<stop stop-color="#998E7B"/>
<stop offset="1" stop-color="#E9DCCA" stop-opacity="0.1"/>
</linearGradient>
<linearGradient id="paint13_linear_3269_5314" x1="104.21" y1="45.857" x2="104.21" y2="100.327" gradientUnits="userSpaceOnUse">
<stop stop-color="#FDFEFF"/>
<stop offset="0.9964" stop-color="#F5F2EC"/>
</linearGradient>
<linearGradient id="paint14_linear_3269_5314" x1="111.753" y1="47.5703" x2="91.2588" y2="47.6043" gradientUnits="userSpaceOnUse">
<stop stop-color="#606060"/>
<stop offset="1" stop-color="#7B7B7B"/>
</linearGradient>
<linearGradient id="paint15_linear_3269_5314" x1="120.19" y1="72.7787" x2="109.102" y2="71.9604" gradientUnits="userSpaceOnUse">
<stop stop-color="#E9DCCA"/>
<stop offset="1" stop-color="#E9DCCA" stop-opacity="0"/>
</linearGradient>
<linearGradient id="paint16_linear_3269_5314" x1="131.499" y1="45.8576" x2="131.499" y2="100.3" gradientUnits="userSpaceOnUse">
<stop stop-color="#FDFEFF"/>
<stop offset="0.9964" stop-color="#F5F2EC"/>
</linearGradient>
<linearGradient id="paint17_linear_3269_5314" x1="132.749" y1="44.3797" x2="115.712" y2="51.5526" gradientUnits="userSpaceOnUse">
<stop stop-color="#606060"/>
<stop offset="1" stop-color="#7B7B7B"/>
</linearGradient>
<linearGradient id="paint18_linear_3269_5314" x1="124.406" y1="79.8474" x2="128.46" y2="80.2398" gradientUnits="userSpaceOnUse">
<stop stop-color="#E9DCCA"/>
<stop offset="1" stop-color="#E9DCCA" stop-opacity="0"/>
</linearGradient>
<linearGradient id="paint19_linear_3269_5314" x1="111.11" y1="73.1988" x2="120.486" y2="73.0283" gradientUnits="userSpaceOnUse">
<stop stop-color="#FDFEFF"/>
<stop offset="0.9964" stop-color="#F6F6F4"/>
</linearGradient>
<linearGradient id="paint20_linear_3269_5314" x1="126.11" y1="62.9672" x2="120.987" y2="62.9616" gradientUnits="userSpaceOnUse">
<stop stop-color="#B6B1AA"/>
<stop offset="1" stop-color="#EDE5D9" stop-opacity="0.1"/>
</linearGradient>
<linearGradient id="paint21_linear_3269_5314" x1="122.423" y1="32.1732" x2="113.019" y2="32.2224" gradientUnits="userSpaceOnUse">
<stop stop-color="#606060"/>
<stop offset="1" stop-color="#7B7B7B"/>
</linearGradient>
<linearGradient id="paint22_linear_3269_5314" x1="109.161" y1="95.0413" x2="115.31" y2="94.6452" gradientUnits="userSpaceOnUse">
<stop stop-color="#FDFEFF"/>
<stop offset="0.9964" stop-color="#F6F6F4"/>
</linearGradient>
<linearGradient id="paint23_linear_3269_5314" x1="119.006" y1="93.1371" x2="115.641" y2="93.124" gradientUnits="userSpaceOnUse">
<stop stop-color="#B6B1AA"/>
<stop offset="1" stop-color="#EDE5D9" stop-opacity="0.1"/>
</linearGradient>
<linearGradient id="paint24_linear_3269_5314" x1="117.708" y1="95.0413" x2="123.857" y2="94.6452" gradientUnits="userSpaceOnUse">
<stop stop-color="#FDFEFF"/>
<stop offset="0.9964" stop-color="#F6F6F4"/>
</linearGradient>
<linearGradient id="paint25_linear_3269_5314" x1="127.535" y1="93.1371" x2="124.298" y2="93.125" gradientUnits="userSpaceOnUse">
<stop stop-color="#B6B1AA"/>
<stop offset="1" stop-color="#EDE5D9" stop-opacity="0.1"/>
</linearGradient>
<linearGradient id="paint26_linear_3269_5314" x1="123.028" y1="93.1371" x2="117.776" y2="92.3815" gradientUnits="userSpaceOnUse">
<stop stop-color="#DBD0C0"/>
<stop offset="1" stop-color="#E3D3BD" stop-opacity="0"/>
</linearGradient>
<linearGradient id="paint27_linear_3269_5314" x1="116.848" y1="97.4719" x2="118.126" y2="97.462" gradientUnits="userSpaceOnUse">
<stop stop-color="#FDFEFF"/>
<stop offset="0.9964" stop-color="#F3F0E9"/>
</linearGradient>
<linearGradient id="paint28_linear_3269_5314" x1="153.717" y1="30.3419" x2="160.152" y2="36.7773" gradientUnits="userSpaceOnUse">
<stop stop-color="#CAC2B4"/>
<stop offset="1" stop-color="#998E7B"/>
</linearGradient>
<linearGradient id="paint29_linear_3269_5314" x1="159.533" y1="28.0788" x2="159.533" y2="36.6481" gradientUnits="userSpaceOnUse">
<stop stop-color="#ECE7DE"/>
<stop offset="1" stop-color="#D2C7B6"/>
</linearGradient>
<linearGradient id="paint30_linear_3269_5314" x1="73.4467" y1="36.5224" x2="73.4467" y2="62.3181" gradientUnits="userSpaceOnUse">
<stop stop-color="#F4EDE5"/>
<stop offset="0.9964" stop-color="#DBCFBE"/>
</linearGradient>
<linearGradient id="paint31_linear_3269_5314" x1="71.6464" y1="47.5704" x2="65.7179" y2="47.591" gradientUnits="userSpaceOnUse">
<stop stop-color="#606060"/>
<stop offset="1" stop-color="#7B7B7B"/>
</linearGradient>
<linearGradient id="paint32_linear_3269_5314" x1="76.5372" y1="43.2283" x2="72.4996" y2="43.2423" gradientUnits="userSpaceOnUse">
<stop stop-color="#606060"/>
<stop offset="1" stop-color="#7B7B7B"/>
</linearGradient>
<linearGradient id="paint33_linear_3269_5314" x1="78.3233" y1="52.1325" x2="74.2857" y2="52.1466" gradientUnits="userSpaceOnUse">
<stop stop-color="#606060"/>
<stop offset="1" stop-color="#7B7B7B"/>
</linearGradient>
<linearGradient id="paint34_linear_3269_5314" x1="80.7995" y1="47.8451" x2="78.1163" y2="47.8544" gradientUnits="userSpaceOnUse">
<stop stop-color="#606060"/>
<stop offset="1" stop-color="#7B7B7B"/>
</linearGradient>
</defs>
</svg>
