<svg xmlns="http://www.w3.org/2000/svg" width="150" height="160" fill="none" viewBox="0 0 150 160">
  <path fill="url(#a)" d="M77.592 132.19c31.303 0 56.641-25.229 56.641-56.421 0-31.193-25.311-56.449-56.64-56.449-31.193 0-56.615 25.229-56.615 56.421 0 31.193 25.312 56.449 56.614 56.449Z"/>
  <path fill="#fff" d="M139.272 141.34c11.626-12.037 3.188-32.457-13.768-32.457-7.723 0-14.346 4.563-17.397 11.131-2.693.165-5.194 1.017-10.608 4.589l-.88-19.347h-6.65l-.55 12.037c-2.17-1.676-4.26-1.484-5.716-1.374l.357-.055-.577-11.9H72.408l-.687 14.154c-1.869-1.43-2.446-.742-3.023-.742a6.524 6.524 0 0 0-3.106.796l-.604-12.944h-6.651l-.467 10.251a20.298 20.298 0 0 0-10.334-2.83c-4.562 0-8.767 1.511-12.174 4.039-14.813-7.035-31.083 6.624-26.686 22.454l10.636 6.815-.742.495.742-.495c-3.435 3.216 6.76-6.073 9.536-4.809.22.494.44.962.687 1.429l-.467-1.292c.302.248.467.66.467 1.292 0 0 0 .027.028.027a20.115 20.115 0 0 0-7.695 1.924l8.85-1.594c7.557 1.622 49 7.31 49.083 8.025l-.605-1.127c.247.028.522.055.797.083 1.347 1.978 3.325 3.517 5.634 4.259a11.845 11.845 0 0 1-4.562-4.149c9.097.879 20.941.274 25.284-.193a15.122 15.122 0 0 0 11.57-2.666 15.498 15.498 0 0 0 2.033-1.786c4.205-.027 11.928 1.182 11.818-.687l7.585 1.347a20.835 20.835 0 0 0-6.926-1.869l6.843-2.831Zm-21.958 4.727a.5.5 0 0 1 .137-.22l-.137.22Z"/>
  <path fill="#fff" d="m65.592 118.172-.605-12.916h-6.65l-.468 10.223"/>
  <path fill="#CCC" fill-rule="evenodd" d="M57.996 105.24a.34.34 0 0 1 .34-.325h6.651a.34.34 0 0 1 .34.325l.605 12.916a.342.342 0 0 1-.68.032l-.59-12.592h-6l-.452 9.899a.341.341 0 0 1-.681-.032l.467-10.223Z" clip-rule="evenodd"/>
  <path fill="#fff" d="m97.527 125.098-.907-19.842h-6.65l-.55 12.064"/>
  <path fill="#CCC" fill-rule="evenodd" d="M89.628 105.24a.34.34 0 0 1 .34-.325h6.651a.34.34 0 0 1 .341.325l.907 19.842a.34.34 0 1 1-.681.031l-.892-19.517h-6l-.534 11.74a.341.341 0 0 1-.681-.031l.55-12.065Z" clip-rule="evenodd"/>
  <path fill="#fff" d="m84.06 115.836-.604-11.872H72.408l-.687 13.961.027.22"/>
  <path fill="#CCC" fill-rule="evenodd" d="M72.067 103.947a.341.341 0 0 1 .34-.324h11.048a.34.34 0 0 1 .34.324l.605 11.872a.341.341 0 0 1-.68.035l-.589-11.549H72.732l-.67 13.607.024.191a.34.34 0 1 1-.677.084l-.027-.22a.339.339 0 0 1-.002-.059l.687-13.961Zm-44.418 31.367a.341.341 0 0 1-.305.374 13.306 13.306 0 0 0-2.974.643.341.341 0 0 1-.222-.645c.988-.339 2.03-.564 3.127-.676a.34.34 0 0 1 .374.304Z" clip-rule="evenodd"/>
  <path fill="#fff" d="M82.302 99.732h-9.07l-1.868 1.264a1.396 1.396 0 0 0-.605 1.154v1.237H85.05v-1.182a1.36 1.36 0 0 0-.66-1.182l-2.088-1.291Z"/>
  <path fill="url(#b)" d="M85.654 103.964c0 .302-.247.55-.55.55h-14.51a.552.552 0 0 1-.55-.55c0-.302.248-.55.55-.55h14.51c.303 0 .55.248.55.55Z"/>
  <path fill="#D4D4D4" d="M54.077 23.084h-.22a.622.622 0 0 1-.632-.633v-.22a.493.493 0 0 0-.495-.494.493.493 0 0 0-.494.495v.22a.622.622 0 0 1-.632.631h-.22a.493.493 0 0 0-.495.495c0 .275.22.495.495.495h.22c.357 0 .632.275.632.632v.22c0 .275.22.494.495.494.274 0 .494-.22.494-.494v-.22c0-.357.275-.632.632-.632h.22c.275 0 .495-.22.495-.495a.51.51 0 0 0-.495-.494Zm-14.016-8.768h-.192a.522.522 0 0 1-.522-.522v-.192a.423.423 0 0 0-.413-.412.423.423 0 0 0-.412.412v.192c0 .275-.22.522-.522.522h-.192a.423.423 0 0 0-.413.413c0 .22.193.412.413.412H38c.275 0 .522.22.522.522v.192c0 .22.193.413.413.413.22 0 .412-.193.412-.413v-.192c0-.275.22-.522.522-.522h.192c.22 0 .413-.192.413-.412a.423.423 0 0 0-.413-.412ZM22.995 72.442h-.193a.522.522 0 0 1-.522-.522v-.193a.423.423 0 0 0-.412-.412.423.423 0 0 0-.412.412v.193c0 .275-.22.522-.522.522h-.193a.423.423 0 0 0-.412.412c0 .22.192.412.412.412h.193c.274 0 .522.22.522.523v.192c0 .22.192.412.412.412.22 0 .412-.192.412-.412v-.192c0-.275.22-.523.522-.523h.193c.22 0 .412-.192.412-.412a.405.405 0 0 0-.412-.412ZM68.23 6.1h-.192a.522.522 0 0 1-.522-.523v-.165A.423.423 0 0 0 67.103 5a.423.423 0 0 0-.412.412v.193c0 .274-.22.522-.522.522h-.192a.423.423 0 0 0-.413.412c0 .22.193.412.413.412h.192c.275 0 .522.22.522.522v.193c0 .22.193.412.412.412.22 0 .413-.192.413-.412v-.248c0-.274.22-.522.522-.522h.192c.22 0 .412-.192.412-.412a.4.4 0 0 0-.412-.385Zm72.197 32.593h-.193a.522.522 0 0 1-.522-.522v-.192a.422.422 0 0 0-.412-.413.422.422 0 0 0-.412.413v.192c0 .275-.22.522-.523.522h-.192a.422.422 0 0 0-.412.412c0 .22.192.413.412.413h.192c.275 0 .523.22.523.522v.192c0 .22.192.412.412.412.22 0 .412-.192.412-.412v-.192c0-.275.22-.522.522-.522h.193a.423.423 0 0 0 .412-.413.423.423 0 0 0-.412-.412ZM125.174 98.33h-.193a.522.522 0 0 1-.522-.522v-.192a.422.422 0 0 0-.412-.413.422.422 0 0 0-.412.413v.192c0 .275-.22.522-.522.522h-.138a.422.422 0 0 0-.412.412c0 .22.192.413.412.413h.193c.274 0 .522.22.522.522v.192c0 .22.192.412.412.412.22 0 .412-.192.412-.412v-.192c0-.275.22-.522.522-.522h.193c.22 0 .412-.193.412-.413-.055-.22-.247-.412-.467-.412ZM21.18 102.507h-.164a.521.521 0 0 1-.522-.522v-.192a.422.422 0 0 0-.413-.412.422.422 0 0 0-.412.412v.192c0 .275-.22.522-.522.522h-.192a.423.423 0 0 0-.412.413c0 .219.192.412.412.412h.192c.275 0 .522.22.522.522v.192c0 .22.193.413.412.413.22 0 .413-.193.413-.413v-.192c0-.275.22-.522.522-.522h.192c.22 0 .413-.193.413-.412-.028-.22-.22-.413-.44-.413Zm86.46-48.946h-.22a.622.622 0 0 1-.632-.632v-.22a.493.493 0 0 0-.495-.494.493.493 0 0 0-.494.494v.22a.622.622 0 0 1-.632.632h-.22a.493.493 0 0 0-.495.495c0 .275.22.495.495.495h.22c.357 0 .632.274.632.632v.22c0 .274.22.494.494.494.275 0 .495-.22.495-.494v-.22c0-.358.275-.632.632-.632h.22c.275 0 .495-.22.495-.495a.493.493 0 0 0-.495-.495Zm6.239 37.843h-.22a.622.622 0 0 1-.632-.632v-.22a.493.493 0 0 0-.495-.494.493.493 0 0 0-.494.494v.22a.622.622 0 0 1-.632.632h-.248a.492.492 0 0 0-.494.495c0 .275.219.495.494.495h.22c.357 0 .632.275.632.632v.22c0 .275.22.495.495.495s.495-.22.495-.495v-.22c0-.357.274-.632.632-.632h.22c.274 0 .494-.22.494-.495.028-.275-.192-.495-.467-.495Zm24.075-38.64h-.138a.375.375 0 0 1-.384-.384v-.11a.306.306 0 0 0-.303-.303.305.305 0 0 0-.302.303v.137c0 .22-.165.385-.385.385h-.137a.306.306 0 0 0-.303.302c0 .165.138.303.303.303h.137c.22 0 .385.165.385.384v.138c0 .165.137.302.302.302a.306.306 0 0 0 .303-.302v-.138c0-.22.164-.384.384-.384h.138a.305.305 0 0 0 .302-.303c0-.192-.137-.33-.302-.33Zm-12.862 6.816h-.11a.305.305 0 0 1-.302-.302v-.11a.246.246 0 0 0-.248-.248.246.246 0 0 0-.247.248v.11a.305.305 0 0 1-.302.302h-.11a.246.246 0 0 0-.248.247c0 .138.11.248.248.248h.11c.165 0 .302.137.302.302v.11c0 .137.11.247.247.247.138 0 .248-.11.248-.247v-.11c0-.165.137-.302.302-.302h.11c.137 0 .247-.11.247-.248a.246.246 0 0 0-.247-.247ZM98.764 24.265h-.11a.305.305 0 0 1-.302-.302v-.11a.246.246 0 0 0-.248-.247.246.246 0 0 0-.247.247v.11a.305.305 0 0 1-.302.302h-.11a.246.246 0 0 0-.248.248c0 .137.11.247.248.247h.11c.164 0 .302.137.302.302v.11c0 .138.11.248.247.248.138 0 .248-.11.248-.248v-.11c0-.165.137-.302.302-.302h.11c.137 0 .247-.11.247-.247-.027-.138-.11-.248-.247-.248Zm27.235-.907h-.11a.306.306 0 0 1-.303-.302v-.11a.246.246 0 0 0-.247-.248.246.246 0 0 0-.247.248v.11a.306.306 0 0 1-.303.302h-.11a.246.246 0 0 0-.247.247c0 .138.11.248.247.248h.11c.165 0 .303.137.303.302v.11c0 .137.11.247.247.247s.247-.11.247-.247v-.11c0-.165.138-.302.303-.302h.11c.137 0 .247-.11.247-.248a.246.246 0 0 0-.247-.247ZM15.684 46.223h-.137a.423.423 0 0 1-.412-.412v-.137a.318.318 0 0 0-.33-.33.318.318 0 0 0-.33.33v.137c0 .22-.192.412-.412.412h-.138a.318.318 0 0 0-.33.33c0 .193.138.33.33.33h.138c.22 0 .412.192.412.412v.138c0 .192.138.33.33.33s.33-.138.33-.33v-.138c0-.22.192-.412.412-.412h.137c.193 0 .33-.137.33-.33a.355.355 0 0 0-.33-.33ZM42.425 85.77h-.138a.423.423 0 0 1-.412-.411v-.138a.318.318 0 0 0-.33-.33.317.317 0 0 0-.33.33v.138c0 .22-.192.412-.412.412h-.137a.318.318 0 0 0-.33.33c0 .192.137.33.33.33h.137c.22 0 .412.192.412.412v.137c0 .192.138.33.33.33s.33-.138.33-.33v-.137c0-.22.192-.413.412-.413h.138c.192 0 .33-.137.33-.33a.334.334 0 0 0-.33-.33Zm100.86 13.687h-.137a.423.423 0 0 1-.413-.412v-.138a.317.317 0 0 0-.329-.33.317.317 0 0 0-.33.33v.138c0 .22-.193.412-.413.412h-.137a.318.318 0 0 0-.33.33c0 .192.138.329.33.329h.137c.22 0 .413.193.413.413v.137c0 .192.137.33.33.33a.317.317 0 0 0 .329-.33v-.137c0-.22.193-.413.413-.413h.137c.192 0 .33-.137.33-.33a.355.355 0 0 0-.33-.33ZM12.964 28.717h-.11a.317.317 0 0 1-.33-.33v-.11a.275.275 0 0 0-.55 0v.11c0 .193-.137.33-.33.33h-.11a.275.275 0 0 0 0 .55h.138c.192 0 .33.137.33.33v.11a.275.275 0 0 0 .55 0v-.11c0-.193.137-.33.33-.33h.11c.137 0 .274-.11.274-.275a.32.32 0 0 0-.302-.275Zm10.361-12.394h-.11a.318.318 0 0 1-.33-.33v-.11a.275.275 0 0 0-.55 0v.11c0 .192-.137.33-.33.33h-.11a.275.275 0 0 0 0 .55h.11c.193 0 .33.137.33.33v.11a.275.275 0 0 0 .55 0v-.11c0-.193.137-.33.33-.33h.11c.137 0 .274-.11.274-.276 0-.164-.11-.274-.274-.274ZM8.676 70.216h-.11a.318.318 0 0 1-.33-.33v-.11a.275.275 0 0 0-.549 0v.11c0 .192-.137.33-.33.33h-.082a.275.275 0 0 0 0 .55h.11c.192 0 .33.137.33.33v.11a.275.275 0 0 0 .55 0v-.11c0-.193.137-.33.329-.33h.11c.137 0 .275-.11.275-.275-.028-.165-.138-.275-.303-.275ZM49.02 37.182h-.11a.318.318 0 0 1-.329-.33v-.11a.275.275 0 0 0-.55 0v.11c0 .192-.137.33-.33.33h-.11a.275.275 0 0 0 0 .55h.11c.193 0 .33.137.33.33v.11a.275.275 0 0 0 .55 0v-.11c0-.193.137-.33.33-.33h.11c.137 0 .275-.11.275-.275a.275.275 0 0 0-.275-.275Zm-7.392 32.044h-.11a.318.318 0 0 1-.33-.33v-.11a.275.275 0 0 0-.55 0v.11c0 .193-.137.33-.33.33h-.11a.275.275 0 0 0 0 .55h.11c.193 0 .33.137.33.33v.11a.275.275 0 0 0 .55 0v-.11c0-.193.137-.33.33-.33h.11c.137 0 .275-.11.275-.275-.028-.165-.138-.275-.275-.275Zm47.435-56.641c-.853 0-1.54-.687-1.54-1.539 0-.852.688-1.539 1.54-1.539.851 0 1.538.687 1.538 1.54 0 .851-.714 1.538-1.538 1.538Zm0-2.226a.71.71 0 0 0-.715.715c0 .412.302.714.715.714a.71.71 0 0 0 .714-.714.71.71 0 0 0-.715-.715ZM35.362 29.514a1.536 1.536 0 0 1-1.539-1.539c0-.852.687-1.539 1.54-1.539.851 0 1.538.687 1.538 1.54 0 .851-.714 1.538-1.539 1.538Zm0-2.226a.71.71 0 0 0-.714.715c0 .412.302.714.714.714a.693.693 0 0 0 .715-.714.71.71 0 0 0-.715-.715Zm66.259-9.921a1.132 1.132 0 0 1-1.126-1.127c0-.632.494-1.126 1.126-1.126.605 0 1.127.494 1.127 1.126 0 .632-.522 1.127-1.127 1.127Zm0-1.649a.522.522 0 0 0-.522.522c0 .303.22.523.522.523a.522.522 0 1 0 0-1.045Zm8.245 90.994a1.131 1.131 0 0 1-1.127-1.126c0-.605.495-1.127 1.127-1.127.605 0 1.127.494 1.127 1.127-.028.632-.522 1.126-1.127 1.126Zm0-1.621a.522.522 0 1 0 0 1.043.522.522 0 0 0 0-1.043Z"/>
  <path fill="url(#c)" d="M65.977 105.283h-8.822a.317.317 0 0 1-.33-.329c0-.193.138-.33.33-.33h8.822c.193 0 .33.137.33.33a.334.334 0 0 1-.33.329Z"/>
  <path fill="url(#d)" d="M65.537 103.167c.248.165.413.44.413.714v.715h-8.685v-.742c0-.275.138-.55.357-.715l1.127-.769h.028v-3.106H64.3v3.161l1.236.742Z"/>
  <path fill="#D9D2C7" d="M65.922 103.909v.714h-2.555v-.714c0-.302-.055-.577-.165-.715l-.495-.769v-3.16h1.594v3.16l1.237.769c.247.138.385.413.385.715Z" opacity=".3"/>
  <g filter="url(#e)">
    <path fill="url(#f)" d="M62.13 29.267a.883.883 0 0 0-1.182 0c-1.622 1.374-4.15 6.238-4.15 11.405v60.709c0 .577.467 1.016 1.017 1.016h7.447c.578 0 1.017-.467 1.017-1.016V40.672c.028-5.167-2.528-10.004-4.15-11.405Z"/>
  </g>
  <path fill="url(#g)" d="M66.307 40.672v60.709c0 .577-.467 1.044-1.044 1.044h-2.639c.165 0 .303-.467.303-1.044V40.672c0-5.166-.742-10.003-1.21-11.405-.054-.137-.11-.22-.164-.22.22 0 .412.083.577.22 1.621 1.402 4.177 6.238 4.177 11.405Z"/>
  <g filter="url(#h)">
    <path fill="url(#i)" d="M78.839 13.602c-.797-.385-1.979-.385-2.776 0-3.765 1.896-9.784 10.773-9.784 17.836v67.277h22.316V31.438c0-7.035-5.991-15.912-9.756-17.836Z"/>
  </g>
  <path fill="url(#j)" d="M88.595 31.465v67.277h-6.513V31.465c0-7.063-2.5-15.94-4.067-17.835-.165-.193-.385-.303-.578-.303.495 0 .99.11 1.375.303 3.792 1.896 9.783 10.772 9.783 17.835Z"/>
  <path fill="url(#k)" d="M77.437 13.327c-.164 0-.33.11-.44.303-1.236 1.896-3.16 10.772-3.16 17.835v67.277H69.22V31.465c0-7.063 4.425-15.94 7.228-17.835.275-.22.632-.303.99-.303Z" opacity=".4"/>
  <path fill="#979087" fill-rule="evenodd" d="M66.507 36.035h22.162v1.023H66.507v-1.023Zm-.341 11.933h22.503v1.023H66.166v-1.023Z" clip-rule="evenodd" opacity=".4"/>
  <path fill="#E8E4DC" fill-rule="evenodd" d="M56.779 62.961h6.478v1.023h-6.478v-1.023Zm0-10.569h6.478v1.023h-6.478v-1.023Zm0-11.252h6.478v1.023h-6.478v-1.022Z" clip-rule="evenodd"/>
  <path fill="url(#l)" d="M97.775 105.283h-8.822a.317.317 0 0 1-.33-.329c0-.193.137-.33.33-.33h8.822c.192 0 .33.137.33.33a.334.334 0 0 1-.33.329Z"/>
  <path fill="url(#m)" d="M97.334 103.167c.248.165.412.44.412.714v.715h-8.684v-.742c0-.275.137-.55.357-.715l1.127-.769h.027v-3.106h5.525v3.161l1.236.742Z"/>
  <path fill="#D9D2C7" d="M97.719 103.909v.714h-2.281v-.714c0-.302-.082-.577-.192-.715l-.578-.769v-3.16h1.43v3.16l1.236.769c.248.138.385.413.385.715Z" opacity=".3"/>
  <g filter="url(#n)">
    <path fill="url(#o)" d="M93.87 29.434a.899.899 0 0 0-1.193 0c-1.637 1.373-4.19 6.234-4.19 11.397v60.665a1.02 1.02 0 0 0 1.027 1.016h7.492a1.02 1.02 0 0 0 1.027-1.016V40.831c.055-5.163-2.525-9.996-4.162-11.397Z"/>
  </g>
  <path fill="url(#p)" d="M98.105 40.672v60.709c0 .577-.468 1.044-1.045 1.044h-2.638c.165 0 .302-.467.302-1.044V40.672c0-5.166-.742-10.003-1.209-11.405-.055-.137-.11-.22-.165-.22.22 0 .412.083.577.22 1.622 1.402 4.177 6.238 4.177 11.405Z"/>
  <path fill="#EEEAE4" fill-rule="evenodd" d="M88.487 62.961h6.478v1.023h-6.478v-1.023Zm0-9.205h6.478v1.023h-6.478v-1.023Zm0-12.616h6.478v1.023h-6.478v-1.022Z" clip-rule="evenodd"/>
  <g filter="url(#q)">
    <path fill="url(#r)" d="m71.034 49.604.467-1.759 1.155-.275 1.923-.44.22-.054.165 2.528 2.858 41.718-6.183 8.437-2.419-.412-16.819-2.885a2.128 2.128 0 0 1-1.786-2.117v-7.942c0-.934.384-1.869 1.044-2.528l11.323-11.488a14.925 14.925 0 0 0 3.82-6.706l2.418-9.124 1.814-6.953Z"/>
  </g>
  <path fill="#BCB9B3" d="M65.995 84.62a2.728 2.728 0 1 1-5.455.001 2.728 2.728 0 0 1 5.455 0Z"/>
  <path fill="url(#s)" d="M72.628 47.57v11.515L71.39 60.46l-.11-.742a.736.736 0 0 0-.714-.633c-.33 0-.605.22-.715.523l-3.298 12.174a5.043 5.043 0 0 1-1.237 2.171L52.95 86.348a1.293 1.293 0 0 0-.384.907v2.693a1.29 1.29 0 0 0 1.291 1.292H69.66l.357 2.556c0 .165-15.995.027-19.43 0v-7.448c0-.934.357-1.869 1.044-2.528l11.323-11.488a14.923 14.923 0 0 0 3.82-6.706l4.7-17.808 1.154-.248Z"/>
  <path fill="url(#t)" d="m77.822 91.323-6.183 8.41-2.446-.413V56.53l1.841-6.926h3.93l2.858 41.719Z"/>
  <g filter="url(#u)">
    <path fill="url(#v)" d="M105.112 86.376v7.942a2.128 2.128 0 0 1-1.787 2.116l-12.614 2.171-6.623 1.127-6.184-8.41 3.023-44.246.22.055 1.924.467 1.154.275L88.43 63.73l.522 1.951a14.924 14.924 0 0 0 3.82 6.706l11.323 11.488a3.533 3.533 0 0 1 1.017 2.5Z"/>
  </g>
  <path fill="#BCB9B3" d="M94.641 82.72H89.42v3.71h5.222v-3.71Z"/>
  <path fill="#D9D2C7" d="M92.14 82.72h-2.72v2.034h2.72V82.72Z"/>
  <path fill="url(#w)" d="M83.071 47.57v11.515l1.237 1.375.11-.742a.736.736 0 0 1 .714-.633c.33 0 .605.22.715.523l3.325 12.174c.22.825.66 1.567 1.237 2.171l12.367 12.395c.248.247.385.577.385.907v2.693a1.29 1.29 0 0 1-1.292 1.292H86.094l-.357 2.556c0 .165 15.995.027 19.43 0v-7.448c0-.934-.357-1.869-1.044-2.528L92.745 72.36a14.924 14.924 0 0 1-3.82-6.706l-4.7-17.809-1.154-.275Z"/>
  <path fill="url(#x)" d="M90.711 90.938v7.667l-6.623 1.127-6.184-8.41 3.023-44.246.22.055 1.924.467 1.154.275L88.43 63.73v23.937c1.32.467 2.281 1.759 2.281 3.27Z" opacity=".4"/>
  <g filter="url(#y)">
    <path fill="url(#z)" d="M84.308 45.592v53.15H71.2v-53.15c0-2.309.495-4.59 1.484-6.679.193-.384.385-.797.605-1.181v-.028l2.748-4.562c.77-1.292 2.638-1.292 3.435 0l2.749 4.562v.028c.22.384.412.77.604 1.154a15.795 15.795 0 0 1 1.484 6.706Z"/>
  </g>
  <path fill="url(#A)" d="M84.308 45.592v53.15h-3.93v-53.15c0-2.309-.192-4.59-.604-6.678-.082-.385-.138-.77-.247-1.155v-.027l-1.1-4.562c-.165-.66-.412-.962-.687-.962.66 0 1.32.33 1.704.962l2.748 4.562v.027c.22.385.413.77.605 1.154 1.017 2.09 1.511 4.37 1.511 6.679Z"/>
  <path fill="url(#B)" d="M82.825 38.913a2.576 2.576 0 0 0-2.144-1.181h-5.799c-.88 0-1.704.467-2.171 1.181.192-.384.385-.797.605-1.181v-.028l2.748-4.562c.77-1.292 2.638-1.292 3.435 0l2.748 4.562v.028c.193.384.413.77.578 1.181Z"/>
  <path fill="#77797F" d="M80.708 44.74c0 .22-.248.302-.385.137-.302-.385-.77-.605-1.32-.605h-2.528c-.494 0-.962.22-1.264.578l-.055.055c-.137.164-.385.054-.385-.138v-.66c0-.934.77-1.676 1.704-1.676h2.694c.247.028.467.11.687.22.494.302.852.852.852 1.457v.632Z"/>
  <path fill="#B7B4AF" fill-rule="evenodd" d="M71.119 60.058h13.36v1.023h-13.36v-1.023Zm0 14.675h13.36v1.023h-13.36v-1.023Z" clip-rule="evenodd" opacity=".5"/>
  <g filter="url(#C)">
    <path fill="url(#D)" d="M74.332 87.42h-1.594a3.507 3.507 0 0 0-3.518 3.518v8.849h8.63v-8.85c-.028-1.95-1.594-3.517-3.518-3.517Z"/>
  </g>
  <path fill="url(#E)" d="M77.823 90.938v8.849h-3.436V88.299a.868.868 0 0 0-.88-.88h.798a3.507 3.507 0 0 1 3.517 3.519Z"/>
  <g filter="url(#F)">
    <path fill="url(#G)" d="M82.879 87.42h-1.594a3.507 3.507 0 0 0-3.518 3.518v8.849h8.63v-8.85a3.507 3.507 0 0 0-3.518-3.517Z"/>
  </g>
  <path fill="url(#H)" d="M86.397 90.938v8.849H83.4V88.574a1.16 1.16 0 0 0-1.154-1.154h.632a3.507 3.507 0 0 1 3.518 3.518Z"/>
  <path fill="url(#I)" d="M77.74 90.938v8.849h2.996V88.574a1.16 1.16 0 0 1 1.154-1.154h-.632a3.525 3.525 0 0 0-3.518 3.518Z"/>
  <path fill="#7B746A" d="M82.301 99.732h-9.069l-1.869 1.264a1.396 1.396 0 0 0-.604 1.154v1.237h14.29v-1.182c0-.495-.247-.934-.659-1.182l-2.089-1.291Z"/>
  <path fill="#D9D2C7" d="M85.05 102.233v1.181h-4.287v-1.181c0-.495-.11-.935-.275-1.21l-.824-1.291h2.638l2.088 1.291c.413.248.66.715.66 1.21Z" opacity=".3"/>
  <path fill="#77797F" d="M76.888 52.187h-.605a.551.551 0 0 1-.55-.55v-.604c0-.302.248-.55.55-.55h.605c.302 0 .55.248.55.55v.605c0 .302-.248.55-.55.55Zm2.556 0h-.605a.551.551 0 0 1-.55-.55v-.604c0-.302.248-.55.55-.55h.605c.302 0 .55.248.55.55v.605c0 .302-.248.55-.55.55Z"/>
  <g filter="url(#J)">
    <path fill="url(#K)" d="M78.647 105.613H76.86V85.276c0-.495.413-.88.88-.88.495 0 .88.413.88.88v20.337h.027Z"/>
  </g>
  <path fill="#CCC" fill-rule="evenodd" d="M68.698 117.716a6.071 6.071 0 0 0-3.878 1.379.34.34 0 0 1-.434-.526 6.757 6.757 0 0 1 4.312-1.535 6.733 6.733 0 0 1 6.05 3.763.342.342 0 0 1-.612.302 6.051 6.051 0 0 0-5.438-3.383Z" clip-rule="evenodd"/>
  <path fill="#fff" d="m78.097 42.403-.99 1.87h-.632c-.495 0-.962.219-1.264.576l1.292-2.446h1.594Zm1.759.22-.852 1.65h-.824l.99-1.87c.246.028.466.11.686.22Z" opacity=".3"/>
  <path fill="#CCC" fill-rule="evenodd" d="M47.509 113.017c-11.052 0-19.996 8.944-19.996 19.996 0 .753.054 1.51.135 2.272a.34.34 0 0 1-.678.073 22.09 22.09 0 0 1-.139-2.345c0-11.429 9.25-20.678 20.678-20.678 9.529 0 17.548 6.427 19.951 15.201a.34.34 0 1 1-.657.18c-2.324-8.484-10.08-14.699-19.294-14.699Zm-19.97 23.895a.342.342 0 0 1 .406.26 20.636 20.636 0 0 0 1.92 5.244.34.34 0 1 1-.603.321 21.34 21.34 0 0 1-1.983-5.418.342.342 0 0 1 .26-.407Z" clip-rule="evenodd"/>
  <path fill="#CCC" fill-rule="evenodd" d="M74.332 121.261c-3.556 0-6.486 2.799-6.695 6.303a.341.341 0 0 1-.68-.041c.23-3.861 3.456-6.943 7.375-6.943 1.47 0 2.824.432 3.973 1.151a.341.341 0 0 1-.361.578 6.779 6.779 0 0 0-3.612-1.048Zm10.773-5.083a6.67 6.67 0 0 0-3.765 1.149.341.341 0 0 1-.385-.563 7.354 7.354 0 0 1 4.15-1.268c2.45 0 4.583 1.183 5.935 2.995a.34.34 0 0 1-.547.408c-1.231-1.651-3.166-2.721-5.388-2.721Zm37.337 12.021a.341.341 0 0 1 .456.158 15.155 15.155 0 0 1 1.518 6.662c0 1.235-.14 2.444-.422 3.599a.34.34 0 1 1-.662-.162c.268-1.099.402-2.253.402-3.437 0-2.284-.51-4.432-1.45-6.364a.342.342 0 0 1 .158-.456Zm-13.427-7.872c-4.995 0-9.4 2.497-12.06 6.313a.34.34 0 0 1-.56-.39c2.782-3.99 7.392-6.605 12.62-6.605 4.975 0 9.416 2.361 12.226 6.043a.342.342 0 0 1-.542.414 14.668 14.668 0 0 0-11.684-5.775Z" clip-rule="evenodd"/>
  <path fill="#CCC" fill-rule="evenodd" d="M123.734 133.975a.34.34 0 0 1 .341-.341h.412a6.967 6.967 0 0 1 6.964 6.964c0 1.387-.405 2.66-1.099 3.731a.34.34 0 1 1-.572-.371 6.133 6.133 0 0 0 .989-3.36 6.285 6.285 0 0 0-6.282-6.282h-.412a.341.341 0 0 1-.341-.341Z" clip-rule="evenodd"/>
  <path fill="#EDE5DA" d="M124.075 135.047c0 10.498-10.498 17.753-20.309 14.098 9.399 2.061 18.303-5.084 18.303-14.703a15.016 15.016 0 0 0-9.811-14.098c6.76 1.484 11.817 7.502 11.817 14.703Z" opacity=".3"/>
  <path fill="#CCC" fill-rule="evenodd" d="M116.073 148.32a.34.34 0 0 1-.132.464c-.261.144-.52.26-.764.368l-.005.002a.34.34 0 1 1-.277-.623c.249-.11.483-.215.715-.344a.34.34 0 0 1 .463.133Zm7.693-10.28a.34.34 0 0 1 .256.408 15.456 15.456 0 0 1-5.929 9.021.342.342 0 0 1-.403-.55 14.78 14.78 0 0 0 5.668-8.623.34.34 0 0 1 .408-.256Zm-73.186-.133a.34.34 0 0 1 .39-.284 4.721 4.721 0 0 1 3.851 3.554.341.341 0 0 1-.663.161 4.04 4.04 0 0 0-3.294-3.041.342.342 0 0 1-.284-.39Z" clip-rule="evenodd"/>
  <path fill="#CCC" fill-rule="evenodd" d="M59.381 135.223c-2.68 0-5.048 1.419-6.39 3.525a.34.34 0 1 1-.576-.367c1.461-2.291 4.04-3.84 6.966-3.84 1.662 0 3.211.487 4.504 1.349a.341.341 0 1 1-.378.567 7.404 7.404 0 0 0-4.126-1.234Z" clip-rule="evenodd"/>
  <path fill="#CCC" fill-rule="evenodd" d="M70.21 127.335a7.547 7.547 0 0 0-7.547 7.547c0 .196 0 .364.024.529a.34.34 0 1 1-.675.096 4.276 4.276 0 0 1-.031-.615v-.01c0-4.559 3.699-8.229 8.228-8.229 4.53 0 8.229 3.698 8.229 8.229 0 .599-.057 1.171-.172 1.743a.34.34 0 1 1-.668-.134 8.107 8.107 0 0 0 .158-1.609c0-4.154-3.393-7.547-7.547-7.547Z" clip-rule="evenodd"/>
  <path fill="#CCC" fill-rule="evenodd" d="M77.685 136.323a.341.341 0 0 1 .482-.011 7.15 7.15 0 0 1 1.558 2.136.341.341 0 0 1-.618.288 6.455 6.455 0 0 0-1.41-1.931.34.34 0 0 1-.012-.482Z" clip-rule="evenodd"/>
  <path fill="#CCC" fill-rule="evenodd" d="M89.09 133.162a10.623 10.623 0 0 0-10.225 7.695.341.341 0 1 1-.656-.188 11.305 11.305 0 0 1 10.881-8.189c5.384 0 9.89 3.768 11.023 8.785a.34.34 0 1 1-.665.15 10.626 10.626 0 0 0-10.358-8.253Z" clip-rule="evenodd"/>
  <path fill="#EDE5DA" d="M85.627 154.174c-4.37-1.456-7.53-5.551-7.53-10.415 0-5.085 3.463-9.344 8.135-10.609-8.987 3.93-9.344 16.6-.605 21.024Z" opacity=".3"/>
  <path fill="#CCC" fill-rule="evenodd" d="M78.152 142.373c.188 0 .341.153.341.341 0 .094-.007.185-.014.265a3.658 3.658 0 0 1-.68-.041v-.003c.007-.088.012-.155.012-.221 0-.188.153-.341.341-.341Zm23.47 1.754a5.154 5.154 0 0 0-5.156 5.155 6.749 6.749 0 0 0 .053.764.341.341 0 0 1-.678.067l-.007-.07a7.352 7.352 0 0 1-.05-.761 5.836 5.836 0 0 1 5.838-5.837 5.836 5.836 0 0 1 5.837 5.837.34.34 0 1 1-.682 0 5.154 5.154 0 0 0-5.155-5.155Zm38.641-9.729c-.647 0-1.228.347-1.554.859a.34.34 0 1 1-.575-.366 2.537 2.537 0 0 1 2.129-1.175 2.487 2.487 0 0 1 2.484 2.485.34.34 0 1 1-.681 0c0-.994-.81-1.803-1.803-1.803Zm-2.385 1.892a.34.34 0 0 1 .482 0c.128.128.127.279.127.319v.004a.34.34 0 0 1-.675.066.338.338 0 0 1 .066-.389Zm-.073.316v.004Zm.476.552a.341.341 0 0 1 .475.084 1.78 1.78 0 0 0 1.479.761c.563 0 1.046-.233 1.365-.598a.341.341 0 0 1 .513.449 2.474 2.474 0 0 1-1.878.831 2.464 2.464 0 0 1-2.038-1.052.34.34 0 0 1 .084-.475Zm-77.938 4.578c-.647 0-1.228.347-1.554.859a.34.34 0 0 1-.575-.366 2.535 2.535 0 0 1 2.129-1.175 2.487 2.487 0 0 1 2.484 2.485.34.34 0 0 1-.681 0c0-.994-.81-1.803-1.803-1.803Zm-2.385 1.919a.34.34 0 0 1 .482 0c.129.128.128.279.128.319v.004a.341.341 0 0 1-.676.066.34.34 0 0 1 .066-.389Zm-.072.316v.004Zm.474.525a.34.34 0 0 1 .476.084 1.78 1.78 0 0 0 1.48.761c.562 0 1.045-.234 1.364-.598a.34.34 0 1 1 .513.449 2.474 2.474 0 0 1-1.878.831 2.463 2.463 0 0 1-2.038-1.052.341.341 0 0 1 .084-.475Zm-27.725-1.578c-3.053 0-5.973.702-8.596 1.919a.34.34 0 1 1-.287-.618 21.101 21.101 0 0 1 8.883-1.983c.587 0 1.176.028 1.738.084a.341.341 0 0 1-.068.678 17.159 17.159 0 0 0-1.67-.08Zm-10.258 2.401a.341.341 0 0 1-.125.466c-.51.295-.994.618-1.482.971a.34.34 0 1 1-.4-.553 18.092 18.092 0 0 1 1.54-1.008.341.341 0 0 1 .467.124Zm108.474-1.46c.561-.056 1.15-.084 1.737-.084 3.158 0 6.175.727 8.883 1.983a.341.341 0 1 1-.287.618 20.415 20.415 0 0 0-8.596-1.919c-.566 0-1.132.027-1.67.081a.342.342 0 0 1-.067-.679Zm-17.611-72.34a3.647 3.647 0 0 0-3.644 3.644.34.34 0 1 1-.681 0 4.329 4.329 0 0 1 4.325-4.326c.483 0 .928.09 1.352.204a.34.34 0 1 1-.175.658c-.4-.106-.779-.18-1.177-.18Zm22.25 4.056a.34.34 0 0 1 .341-.341h7.036a.341.341 0 0 1 0 .682h-7.036a.341.341 0 0 1-.341-.341Zm-11.9-2.749a.34.34 0 0 1 .341-.34 3.05 3.05 0 0 1 3.044 2.72h5.613a.34.34 0 1 1 0 .682h-5.936a.341.341 0 0 1-.341-.34 2.368 2.368 0 0 0-2.38-2.38.341.341 0 0 1-.341-.342Z" clip-rule="evenodd"/>
  <path fill="#CCC" fill-rule="evenodd" d="M117.039 68.44a4.379 4.379 0 0 0-4.182 3.034.341.341 0 0 1-.65-.208 5.062 5.062 0 0 1 4.832-3.508 5.068 5.068 0 0 1 5.068 5.069.341.341 0 0 1-.682 0 4.385 4.385 0 0 0-4.386-4.387ZM45.753 78.77c.209-.07.467-.1.685-.1a2.212 2.212 0 0 1 2.21 2.209.341.341 0 0 1-.682 0 1.53 1.53 0 0 0-1.528-1.528c-.168 0-.35.025-.47.065a.341.341 0 1 1-.215-.647Zm-13.48 2.274a.34.34 0 0 1 .34-.341h3.299a.341.341 0 0 1 0 .681h-3.298a.341.341 0 0 1-.341-.34Zm7.622-.341a1.6 1.6 0 0 1 1.568-1.264.34.34 0 1 1 0 .681.92.92 0 0 0-.923.924.341.341 0 0 1-.34.34h-2.777a.341.341 0 0 1 0-.681h2.472Z" clip-rule="evenodd"/>
  <path fill="#CCC" fill-rule="evenodd" d="M41.205 79.752a2.546 2.546 0 0 1 2.54-2.54c1.115 0 2.096.761 2.414 1.779a.34.34 0 0 1-.651.203 1.88 1.88 0 0 0-1.763-1.3 1.865 1.865 0 0 0-1.858 1.858.341.341 0 0 1-.682 0ZM14.42 93.89c-1.018 0-1.83.833-1.83 1.83a.341.341 0 1 1-.682 0 2.517 2.517 0 0 1 2.512-2.513c.274 0 .537.03.807.132a.341.341 0 0 1-.24.638 1.56 1.56 0 0 0-.567-.088Zm5.43.566a.34.34 0 0 1 .341-.341c.897 0 1.636.635 1.794 1.484h2.906a.341.341 0 0 1 0 .681h-3.215a.341.341 0 0 1-.341-.34c0-.637-.507-1.144-1.143-1.144a.34.34 0 0 1-.341-.34Z" clip-rule="evenodd"/>
  <path fill="#CCC" fill-rule="evenodd" d="M17.553 92.24c-.998 0-1.835.667-2.122 1.551a.34.34 0 0 1-.648-.21 2.925 2.925 0 0 1 2.77-2.022 2.91 2.91 0 0 1 2.897 2.896.341.341 0 1 1-.682 0 2.228 2.228 0 0 0-2.215-2.215Z" clip-rule="evenodd"/>
  <path fill="#CCC" fill-rule="evenodd" d="M125.504 109.224c-7.585 0-14.117 4.481-17.087 10.932a.341.341 0 1 1-.619-.285c3.077-6.685 9.846-11.329 17.706-11.329 10.769 0 19.496 8.728 19.496 19.497 0 5.257-2.07 10.041-5.455 13.538a.34.34 0 1 1-.49-.474 18.723 18.723 0 0 0 5.263-13.064c0-10.393-8.422-18.815-18.814-18.815Zm-90.288 7.8c-6.48-3.078-14.443-2.295-20.273 2.645-5.776 4.885-7.855 12.523-5.938 19.381a.341.341 0 1 1-.657.183c-1.986-7.104.168-15.021 6.154-20.084 6.043-5.119 14.294-5.93 21.006-2.741a.34.34 0 1 1-.292.616Z" clip-rule="evenodd" opacity=".3"/>
  <path fill="#CCC" fill-rule="evenodd" d="M37.076 102.678a.341.341 0 0 1-.562.226 1.854 1.854 0 0 0-1.207-.468c-.993 0-1.803.809-1.803 1.803v.137a.341.341 0 0 1-.34.341h-2.282a.341.341 0 0 1 0-.682h1.949a2.488 2.488 0 0 1 2.476-2.281c.465 0 .893.135 1.26.351.727-1.682 2.394-2.88 4.346-2.88a4.751 4.751 0 0 1 4.739 4.739c0 .131-.009.268-.021.401h.861a.341.341 0 0 1 0 .682h-1.181a.341.341 0 0 1-.241-.1l-.055-.055a.34.34 0 0 1-.098-.283c.028-.22.053-.449.053-.645a4.07 4.07 0 0 0-4.056-4.056c-1.78 0-3.291 1.167-3.838 2.77Zm83.14-13.719a4.545 4.545 0 0 1 4.545-4.546 4.554 4.554 0 0 1 4.183 2.744 2.375 2.375 0 0 1 1.204-.326 2.37 2.37 0 0 1 2.366 2.171h1.839a.341.341 0 0 1 0 .682h-2.171a.34.34 0 0 1-.341-.34v-.138c0-.939-.755-1.693-1.693-1.693-.433 0-.823.158-1.152.44a.342.342 0 0 1-.562-.226 3.875 3.875 0 0 0-3.673-2.632 3.864 3.864 0 0 0-3.863 3.864c0 .195.024.393.052.617a.342.342 0 0 1-.097.283l-.055.055a.341.341 0 0 1-.241.1h-1.127a.341.341 0 0 1 0-.682h.805a4.154 4.154 0 0 1-.019-.373ZM23.835 27.59h.682v.138h-.682v-.137Z" clip-rule="evenodd"/>
  <path fill="url(#L)" d="M124.783 41.41a8.107 8.107 0 1 0-11.466-11.465 8.107 8.107 0 0 0 11.466 11.465Z"/>
  <path fill="#F1F3FA" d="M120.749 43.613a144.312 144.312 0 0 1-9.619-9.619c1.32-6.238 9.097-8.63 13.687-4.067 4.534 4.562 2.171 12.367-4.068 13.686Z"/>
  <path fill="#CCC" fill-rule="evenodd" d="M111.502 33.895a143.875 143.875 0 0 0 9.346 9.346c5.848-1.367 8.029-8.745 3.728-13.074-4.355-4.327-11.707-2.122-13.074 3.728Zm-.705.028c1.374-6.5 9.477-8.993 14.26-4.239l.001.002c4.726 4.754 2.264 12.885-4.238 14.26l-.171.036-.129-.117a144.628 144.628 0 0 1-9.642-9.642l-.117-.13.036-.17Z" clip-rule="evenodd"/>
  <g filter="url(#M)">
    <path fill="#D9D2C7" d="M114.154 29.212c-5.607-4.974-10.059-7.942-10.938-7.063-.907.907 2.418 5.826 7.887 11.845 9.014 9.976 20.035 18.963 21.491 17.506 1.512-1.511-8.272-13.301-18.44-22.288Zm8.739 13.604c-9.811-7.448-18.111-19.87-9.206-13.247 6.266 4.645 14.345 14.016 13.191 15.17-.412.413-1.924-.357-3.985-1.923Z"/>
  </g>
  <g filter="url(#N)" opacity=".3">
    <path fill="#EDE5DA" d="M106.981 25.364c-1.017 1.017 3.16 6.843 9.344 13.027 6.183 6.183 12.009 10.36 13.026 9.344 2.391-2.391-19.952-24.79-22.37-22.37Zm2.995 2.474c.742-.742 5.139 2.418 9.811 7.09s7.833 9.042 7.091 9.811c-1.787 1.787-18.688-15.115-16.902-16.901Z"/>
  </g>
  <path fill="url(#O)" d="M122.893 42.816c-3.6-2.721-8.272-7.393-10.993-10.993 2.501-4.672 8.959-5.827 12.889-1.897 3.903 3.903 2.803 10.361-1.896 12.89Z"/>
  <path fill="#867966" d="M124.762 41.441a8.847 8.847 0 0 1-1.869 1.375c-3.6-2.721-8.272-7.393-10.993-10.993.33-.632.797-1.182 1.319-1.732-.577 2.254 9.949 12.56 11.543 11.35Z" opacity=".3"/>
  <path fill="#85827B" d="M124.597 38.144c.622 0 1.126-.825 1.126-1.842 0-1.017-.504-1.841-1.126-1.841-.623 0-1.127.824-1.127 1.841s.504 1.842 1.127 1.842Zm-2.803-5.579c.501 0 .907-.492.907-1.1 0-.607-.406-1.099-.907-1.099s-.907.492-.907 1.1c0 .607.406 1.099.907 1.099Zm-5.587-.859c.464-.076.791-.44.731-.815-.061-.374-.487-.617-.951-.542-.464.075-.792.44-.731.814.06.375.486.618.951.543Zm3.016 3.045c.749-.121 1.274-.73 1.172-1.359-.102-.63-.791-1.041-1.541-.92-.749.122-1.273.73-1.172 1.36.102.629.792 1.04 1.541.92Z" opacity=".4"/>
  <g filter="url(#P)">
    <path fill="url(#Q)" d="M45.915 49.576c0 8.767-8.85 14.813-17.011 11.598a12.482 12.482 0 0 1-5.36-4.068c-6.183-8.134-.44-20.007 9.922-20.007 1.429 0 2.775.248 4.04.66 4.919 1.731 8.41 6.403 8.41 11.817Z"/>
  </g>
  <path fill="url(#R)" d="M31.9 50.758a3.19 3.19 0 0 1-3.189 3.188c-.494 0-.961-.11-1.401-.33a3.152 3.152 0 0 1-1.787-2.858 3.19 3.19 0 0 1 5.524-2.17c.523.549.852 1.318.852 2.17Z"/>
  <path fill="#BCB9B3" d="M31.899 50.758a3.19 3.19 0 0 1-3.188 3.188c-.495 0-.962-.11-1.401-.33a3.2 3.2 0 0 1-.852-2.17 3.19 3.19 0 0 1 3.188-3.189c.494 0 .961.11 1.401.33.522.55.852 1.32.852 2.171Z" opacity=".4"/>
  <path fill="url(#S)" d="M36.71 45.4c0 1.209-.962 2.17-2.172 2.17-.22 0-.412-.027-.604-.082-.907-.247-1.567-1.1-1.567-2.089 0-1.209.962-2.17 2.171-2.17.605 0 1.127.247 1.512.604.412.412.66.962.66 1.566Z"/>
  <path fill="#BCB9B3" d="M36.709 45.4c0 1.209-.962 2.17-2.171 2.17-.22 0-.413-.027-.605-.082a2.095 2.095 0 0 1-.66-1.54c0-1.208.962-2.17 2.171-2.17.22 0 .413.027.605.082.412.385.66.935.66 1.54Z" opacity=".4"/>
  <path fill="url(#T)" d="M38.495 54.304c0 1.209-.961 2.17-2.17 2.17-.11 0-.248 0-.358-.027a2.16 2.16 0 0 1-1.814-2.143c0-1.21.962-2.171 2.171-2.171.44 0 .852.137 1.21.357.577.385.962 1.044.962 1.814Z"/>
  <path fill="#BCB9B3" d="M38.495 54.303c0 1.21-.962 2.172-2.171 2.172-.11 0-.247 0-.357-.028a2.164 2.164 0 0 1-.962-1.814c0-1.209.962-2.17 2.171-2.17.11 0 .22 0 .357.027.577.384.962 1.044.962 1.813Z" opacity=".4"/>
  <path fill="url(#U)" d="M40.914 49.301a1.42 1.42 0 0 1-1.43 1.43c-.082 0-.164 0-.247-.028a1.448 1.448 0 0 1-1.209-1.429c0-.797.66-1.429 1.43-1.429.33 0 .632.11.879.302.357.303.577.715.577 1.154Z"/>
  <path fill="#BCB9B3" d="M40.914 49.302a1.42 1.42 0 0 1-1.43 1.429c-.082 0-.164 0-.247-.028a1.49 1.49 0 0 1-.55-1.127 1.42 1.42 0 0 1 1.43-1.428c.082 0 .165 0 .247.027.33.275.55.687.55 1.127Z" opacity=".4"/>
  <path fill="#3C3B3B" d="M45.916 49.577c0 8.766-8.85 14.813-17.012 11.597.193-.165.44-.275.66-.385 4.26-2.088 8.19-.384 9.866-3.352.77-1.375.33-3.161 1.044-4.563.33-.687.907-1.236 1.237-1.896 1.182-2.418-1.237-7.64-.77-9.096.193-.578.77-.935 1.375-1.045a12.386 12.386 0 0 1 3.6 8.74Z" opacity=".1"/>
  <path fill="#fff" d="M37.808 39.683c-.687 1.731-3.545 1.209-4.81 1.236-2.555.028-2.913 1.32-3.435 2.007-.824 1.071-2.336 1.511-3.6 1.071 1.1 5.277-1.182 4.81-1.594 6.486-.467 1.979 3.05 3.188 2.391 5.14-.385 1.126-2.034 1.401-3.243 1.483-6.183-8.134-.44-20.007 9.921-20.007 1.43 0 2.776.248 4.04.66.385.605.577 1.32.33 1.924Z" opacity=".1"/>
  <path fill="#8A8987" d="M27.86 45.18a.88.88 0 1 0 0-1.76.88.88 0 0 0 0 1.76Z" opacity=".3"/>
  <defs>
    <linearGradient id="a" x1="77.606" x2="77.606" y1="19.32" y2="132.19" gradientUnits="userSpaceOnUse">
      <stop stop-color="#F0F0F0"/>
      <stop offset="1" stop-color="#E6E6E6"/>
    </linearGradient>
    <linearGradient id="b" x1="85.035" x2="70.556" y1="103.414" y2="104.13" gradientUnits="userSpaceOnUse">
      <stop stop-color="#606060"/>
      <stop offset="1" stop-color="#7B7B7B"/>
    </linearGradient>
    <linearGradient id="c" x1="65.931" x2="57.137" y1="104.624" y2="105.064" gradientUnits="userSpaceOnUse">
      <stop stop-color="#606060"/>
      <stop offset="1" stop-color="#7B7B7B"/>
    </linearGradient>
    <linearGradient id="d" x1="65.605" x2="57.53" y1="99.264" y2="99.31" gradientUnits="userSpaceOnUse">
      <stop stop-color="#606060"/>
      <stop offset="1" stop-color="#7B7B7B"/>
    </linearGradient>
    <linearGradient id="f" x1="56.733" x2="63.516" y1="74.249" y2="74.168" gradientUnits="userSpaceOnUse">
      <stop stop-color="#FDFEFF"/>
      <stop offset=".996" stop-color="#F6F6F4"/>
    </linearGradient>
    <linearGradient id="g" x1="67.611" x2="61.474" y1="62.97" y2="62.8" gradientUnits="userSpaceOnUse">
      <stop stop-color="#998E7B"/>
      <stop offset="1" stop-color="#E9DCCA" stop-opacity=".1"/>
    </linearGradient>
    <linearGradient id="i" x1="77.43" x2="77.43" y1="11.338" y2="99.636" gradientUnits="userSpaceOnUse">
      <stop stop-color="#E9DCC9"/>
      <stop offset=".996" stop-color="#D7CDC1"/>
    </linearGradient>
    <linearGradient id="j" x1="90.544" x2="83.043" y1="54.617" y2="54.617" gradientUnits="userSpaceOnUse">
      <stop stop-color="#998E7B"/>
      <stop offset="1" stop-color="#998E7B" stop-opacity="0"/>
    </linearGradient>
    <linearGradient id="k" x1="83.554" x2="63.097" y1="35.865" y2="28.534" gradientUnits="userSpaceOnUse">
      <stop stop-color="#fff"/>
      <stop offset="1" stop-color="#fff" stop-opacity="0"/>
    </linearGradient>
    <linearGradient id="l" x1="97.728" x2="88.934" y1="104.624" y2="105.064" gradientUnits="userSpaceOnUse">
      <stop stop-color="#606060"/>
      <stop offset="1" stop-color="#7B7B7B"/>
    </linearGradient>
    <linearGradient id="m" x1="97.402" x2="89.327" y1="99.264" y2="99.31" gradientUnits="userSpaceOnUse">
      <stop stop-color="#606060"/>
      <stop offset="1" stop-color="#7B7B7B"/>
    </linearGradient>
    <linearGradient id="o" x1="88.422" x2="95.252" y1="74.384" y2="74.302" gradientUnits="userSpaceOnUse">
      <stop stop-color="#FDFEFF"/>
      <stop offset=".996" stop-color="#F6F6F4"/>
    </linearGradient>
    <linearGradient id="p" x1="99.409" x2="93.272" y1="62.97" y2="62.8" gradientUnits="userSpaceOnUse">
      <stop stop-color="#998E7B"/>
      <stop offset="1" stop-color="#E9DCCA" stop-opacity=".1"/>
    </linearGradient>
    <linearGradient id="r" x1="64.21" x2="64.21" y1="45.857" y2="100.327" gradientUnits="userSpaceOnUse">
      <stop stop-color="#FDFEFF"/>
      <stop offset=".996" stop-color="#F5F2EC"/>
    </linearGradient>
    <linearGradient id="s" x1="71.754" x2="51.259" y1="47.57" y2="47.604" gradientUnits="userSpaceOnUse">
      <stop stop-color="#606060"/>
      <stop offset="1" stop-color="#7B7B7B"/>
    </linearGradient>
    <linearGradient id="t" x1="80.19" x2="69.102" y1="72.779" y2="71.96" gradientUnits="userSpaceOnUse">
      <stop stop-color="#E9DCCA"/>
      <stop offset="1" stop-color="#E9DCCA" stop-opacity="0"/>
    </linearGradient>
    <linearGradient id="v" x1="91.499" x2="91.499" y1="45.858" y2="100.3" gradientUnits="userSpaceOnUse">
      <stop stop-color="#FDFEFF"/>
      <stop offset=".996" stop-color="#F5F2EC"/>
    </linearGradient>
    <linearGradient id="w" x1="92.749" x2="75.712" y1="44.38" y2="51.553" gradientUnits="userSpaceOnUse">
      <stop stop-color="#606060"/>
      <stop offset="1" stop-color="#7B7B7B"/>
    </linearGradient>
    <linearGradient id="x" x1="84.406" x2="88.46" y1="79.847" y2="80.24" gradientUnits="userSpaceOnUse">
      <stop stop-color="#E9DCCA"/>
      <stop offset="1" stop-color="#E9DCCA" stop-opacity="0"/>
    </linearGradient>
    <linearGradient id="z" x1="71.11" x2="80.486" y1="73.199" y2="73.028" gradientUnits="userSpaceOnUse">
      <stop stop-color="#FDFEFF"/>
      <stop offset=".996" stop-color="#F6F6F4"/>
    </linearGradient>
    <linearGradient id="A" x1="86.11" x2="80.987" y1="62.967" y2="62.962" gradientUnits="userSpaceOnUse">
      <stop stop-color="#B6B1AA"/>
      <stop offset="1" stop-color="#EDE5D9" stop-opacity=".1"/>
    </linearGradient>
    <linearGradient id="B" x1="82.423" x2="73.019" y1="32.173" y2="32.222" gradientUnits="userSpaceOnUse">
      <stop stop-color="#606060"/>
      <stop offset="1" stop-color="#7B7B7B"/>
    </linearGradient>
    <linearGradient id="D" x1="69.161" x2="75.31" y1="95.042" y2="94.645" gradientUnits="userSpaceOnUse">
      <stop stop-color="#FDFEFF"/>
      <stop offset=".996" stop-color="#F6F6F4"/>
    </linearGradient>
    <linearGradient id="E" x1="79.006" x2="75.641" y1="93.137" y2="93.124" gradientUnits="userSpaceOnUse">
      <stop stop-color="#B6B1AA"/>
      <stop offset="1" stop-color="#EDE5D9" stop-opacity=".1"/>
    </linearGradient>
    <linearGradient id="G" x1="77.708" x2="83.857" y1="95.042" y2="94.645" gradientUnits="userSpaceOnUse">
      <stop stop-color="#FDFEFF"/>
      <stop offset=".996" stop-color="#F6F6F4"/>
    </linearGradient>
    <linearGradient id="H" x1="87.535" x2="84.298" y1="93.137" y2="93.125" gradientUnits="userSpaceOnUse">
      <stop stop-color="#B6B1AA"/>
      <stop offset="1" stop-color="#EDE5D9" stop-opacity=".1"/>
    </linearGradient>
    <linearGradient id="I" x1="83.028" x2="77.776" y1="93.137" y2="92.382" gradientUnits="userSpaceOnUse">
      <stop stop-color="#DBD0C0"/>
      <stop offset="1" stop-color="#E3D3BD" stop-opacity="0"/>
    </linearGradient>
    <linearGradient id="K" x1="76.848" x2="78.126" y1="97.472" y2="97.462" gradientUnits="userSpaceOnUse">
      <stop stop-color="#FDFEFF"/>
      <stop offset=".996" stop-color="#F3F0E9"/>
    </linearGradient>
    <linearGradient id="L" x1="113.717" x2="120.152" y1="30.342" y2="36.777" gradientUnits="userSpaceOnUse">
      <stop stop-color="#CAC2B4"/>
      <stop offset="1" stop-color="#998E7B"/>
    </linearGradient>
    <linearGradient id="O" x1="119.533" x2="119.533" y1="28.079" y2="36.648" gradientUnits="userSpaceOnUse">
      <stop stop-color="#ECE7DE"/>
      <stop offset="1" stop-color="#D2C7B6"/>
    </linearGradient>
    <linearGradient id="Q" x1="33.447" x2="33.447" y1="36.522" y2="62.318" gradientUnits="userSpaceOnUse">
      <stop stop-color="#F4EDE5"/>
      <stop offset=".996" stop-color="#DBCFBE"/>
    </linearGradient>
    <linearGradient id="R" x1="31.646" x2="25.718" y1="47.57" y2="47.591" gradientUnits="userSpaceOnUse">
      <stop stop-color="#606060"/>
      <stop offset="1" stop-color="#7B7B7B"/>
    </linearGradient>
    <linearGradient id="S" x1="36.537" x2="32.5" y1="43.228" y2="43.242" gradientUnits="userSpaceOnUse">
      <stop stop-color="#606060"/>
      <stop offset="1" stop-color="#7B7B7B"/>
    </linearGradient>
    <linearGradient id="T" x1="38.323" x2="34.286" y1="52.133" y2="52.147" gradientUnits="userSpaceOnUse">
      <stop stop-color="#606060"/>
      <stop offset="1" stop-color="#7B7B7B"/>
    </linearGradient>
    <linearGradient id="U" x1="40.8" x2="38.116" y1="47.845" y2="47.854" gradientUnits="userSpaceOnUse">
      <stop stop-color="#606060"/>
      <stop offset="1" stop-color="#7B7B7B"/>
    </linearGradient>
    <filter id="e" width="25.761" height="89.637" x="48.658" y="24.97" color-interpolation-filters="sRGB" filterUnits="userSpaceOnUse">
      <feFlood flood-opacity="0" result="BackgroundImageFix"/>
      <feColorMatrix in="SourceAlpha" result="hardAlpha" values="0 0 0 0 0 0 0 0 0 0 0 0 0 0 0 0 0 0 127 0"/>
      <feOffset dy="4.07"/>
      <feGaussianBlur stdDeviation="4.07"/>
      <feColorMatrix values="0 0 0 0 0.576471 0 0 0 0 0.501961 0 0 0 0 0.396078 0 0 0 0.37 0"/>
      <feBlend in2="BackgroundImageFix" result="effect1_dropShadow_3269_5314"/>
      <feBlend in="SourceGraphic" in2="effect1_dropShadow_3269_5314" result="shape"/>
    </filter>
    <filter id="h" width="38.596" height="101.682" x="58.139" y="9.243" color-interpolation-filters="sRGB" filterUnits="userSpaceOnUse">
      <feFlood flood-opacity="0" result="BackgroundImageFix"/>
      <feColorMatrix in="SourceAlpha" result="hardAlpha" values="0 0 0 0 0 0 0 0 0 0 0 0 0 0 0 0 0 0 127 0"/>
      <feOffset dy="4.07"/>
      <feGaussianBlur stdDeviation="4.07"/>
      <feColorMatrix values="0 0 0 0 0.576471 0 0 0 0 0.501961 0 0 0 0 0.396078 0 0 0 0.37 0"/>
      <feBlend in2="BackgroundImageFix" result="effect1_dropShadow_3269_5314"/>
      <feBlend in="SourceGraphic" in2="effect1_dropShadow_3269_5314" result="shape"/>
    </filter>
    <filter id="n" width="25.826" height="89.584" x="80.347" y="25.137" color-interpolation-filters="sRGB" filterUnits="userSpaceOnUse">
      <feFlood flood-opacity="0" result="BackgroundImageFix"/>
      <feColorMatrix in="SourceAlpha" result="hardAlpha" values="0 0 0 0 0 0 0 0 0 0 0 0 0 0 0 0 0 0 127 0"/>
      <feOffset dy="4.07"/>
      <feGaussianBlur stdDeviation="4.07"/>
      <feColorMatrix values="0 0 0 0 0.576471 0 0 0 0 0.501961 0 0 0 0 0.396078 0 0 0 0.37 0"/>
      <feBlend in2="BackgroundImageFix" result="effect1_dropShadow_3269_5314"/>
      <feBlend in="SourceGraphic" in2="effect1_dropShadow_3269_5314" result="shape"/>
    </filter>
    <filter id="q" width="43.487" height="68.964" x="42.475" y="43.006" color-interpolation-filters="sRGB" filterUnits="userSpaceOnUse">
      <feFlood flood-opacity="0" result="BackgroundImageFix"/>
      <feColorMatrix in="SourceAlpha" result="hardAlpha" values="0 0 0 0 0 0 0 0 0 0 0 0 0 0 0 0 0 0 127 0"/>
      <feOffset dy="4.07"/>
      <feGaussianBlur stdDeviation="4.07"/>
      <feColorMatrix values="0 0 0 0 0.576471 0 0 0 0 0.501961 0 0 0 0 0.396078 0 0 0 0.37 0"/>
      <feBlend in2="BackgroundImageFix" result="effect1_dropShadow_3269_5314"/>
      <feBlend in="SourceGraphic" in2="effect1_dropShadow_3269_5314" result="shape"/>
    </filter>
    <filter id="u" width="43.487" height="68.936" x="69.764" y="43.006" color-interpolation-filters="sRGB" filterUnits="userSpaceOnUse">
      <feFlood flood-opacity="0" result="BackgroundImageFix"/>
      <feColorMatrix in="SourceAlpha" result="hardAlpha" values="0 0 0 0 0 0 0 0 0 0 0 0 0 0 0 0 0 0 127 0"/>
      <feOffset dy="4.07"/>
      <feGaussianBlur stdDeviation="4.07"/>
      <feColorMatrix values="0 0 0 0 0.576471 0 0 0 0 0.501961 0 0 0 0 0.396078 0 0 0 0.37 0"/>
      <feBlend in2="BackgroundImageFix" result="effect1_dropShadow_3269_5314"/>
      <feBlend in="SourceGraphic" in2="effect1_dropShadow_3269_5314" result="shape"/>
    </filter>
    <filter id="y" width="29.389" height="82.849" x="63.059" y="28.103" color-interpolation-filters="sRGB" filterUnits="userSpaceOnUse">
      <feFlood flood-opacity="0" result="BackgroundImageFix"/>
      <feColorMatrix in="SourceAlpha" result="hardAlpha" values="0 0 0 0 0 0 0 0 0 0 0 0 0 0 0 0 0 0 127 0"/>
      <feOffset dy="4.07"/>
      <feGaussianBlur stdDeviation="4.07"/>
      <feColorMatrix values="0 0 0 0 0.397708 0 0 0 0 0.47749 0 0 0 0 0.575 0 0 0 0.27 0"/>
      <feBlend in2="BackgroundImageFix" result="effect1_dropShadow_3269_5314"/>
      <feBlend in="SourceGraphic" in2="effect1_dropShadow_3269_5314" result="shape"/>
    </filter>
    <filter id="C" width="24.909" height="28.647" x="61.08" y="83.35" color-interpolation-filters="sRGB" filterUnits="userSpaceOnUse">
      <feFlood flood-opacity="0" result="BackgroundImageFix"/>
      <feColorMatrix in="SourceAlpha" result="hardAlpha" values="0 0 0 0 0 0 0 0 0 0 0 0 0 0 0 0 0 0 127 0"/>
      <feOffset dy="4.07"/>
      <feGaussianBlur stdDeviation="4.07"/>
      <feColorMatrix values="0 0 0 0 0.576471 0 0 0 0 0.501961 0 0 0 0 0.396078 0 0 0 0.27 0"/>
      <feBlend in2="BackgroundImageFix" result="effect1_dropShadow_3269_5314"/>
      <feBlend in="SourceGraphic" in2="effect1_dropShadow_3269_5314" result="shape"/>
    </filter>
    <filter id="F" width="24.909" height="28.647" x="69.627" y="83.35" color-interpolation-filters="sRGB" filterUnits="userSpaceOnUse">
      <feFlood flood-opacity="0" result="BackgroundImageFix"/>
      <feColorMatrix in="SourceAlpha" result="hardAlpha" values="0 0 0 0 0 0 0 0 0 0 0 0 0 0 0 0 0 0 127 0"/>
      <feOffset dy="4.07"/>
      <feGaussianBlur stdDeviation="4.07"/>
      <feColorMatrix values="0 0 0 0 0.576471 0 0 0 0 0.501961 0 0 0 0 0.396078 0 0 0 0.27 0"/>
      <feBlend in2="BackgroundImageFix" result="effect1_dropShadow_3269_5314"/>
      <feBlend in="SourceGraphic" in2="effect1_dropShadow_3269_5314" result="shape"/>
    </filter>
    <filter id="J" width="18.066" height="37.496" x="68.72" y="80.327" color-interpolation-filters="sRGB" filterUnits="userSpaceOnUse">
      <feFlood flood-opacity="0" result="BackgroundImageFix"/>
      <feColorMatrix in="SourceAlpha" result="hardAlpha" values="0 0 0 0 0 0 0 0 0 0 0 0 0 0 0 0 0 0 127 0"/>
      <feOffset dy="4.07"/>
      <feGaussianBlur stdDeviation="4.07"/>
      <feColorMatrix values="0 0 0 0 0.397708 0 0 0 0 0.47749 0 0 0 0 0.575 0 0 0 0.27 0"/>
      <feBlend in2="BackgroundImageFix" result="effect1_dropShadow_3269_5314"/>
      <feBlend in="SourceGraphic" in2="effect1_dropShadow_3269_5314" result="shape"/>
    </filter>
    <filter id="M" width="45.962" height="45.941" x="94.927" y="17.925" color-interpolation-filters="sRGB" filterUnits="userSpaceOnUse">
      <feFlood flood-opacity="0" result="BackgroundImageFix"/>
      <feColorMatrix in="SourceAlpha" result="hardAlpha" values="0 0 0 0 0 0 0 0 0 0 0 0 0 0 0 0 0 0 127 0"/>
      <feOffset dy="4.07"/>
      <feGaussianBlur stdDeviation="4.07"/>
      <feColorMatrix values="0 0 0 0 0.576471 0 0 0 0 0.501961 0 0 0 0 0.396078 0 0 0 0.27 0"/>
      <feBlend in2="BackgroundImageFix" result="effect1_dropShadow_3269_5314"/>
      <feBlend in="SourceGraphic" in2="effect1_dropShadow_3269_5314" result="shape"/>
    </filter>
    <filter id="N" width="38.982" height="38.985" x="98.688" y="21.112" color-interpolation-filters="sRGB" filterUnits="userSpaceOnUse">
      <feFlood flood-opacity="0" result="BackgroundImageFix"/>
      <feColorMatrix in="SourceAlpha" result="hardAlpha" values="0 0 0 0 0 0 0 0 0 0 0 0 0 0 0 0 0 0 127 0"/>
      <feOffset dy="4.07"/>
      <feGaussianBlur stdDeviation="4.07"/>
      <feColorMatrix values="0 0 0 0 0.576471 0 0 0 0 0.501961 0 0 0 0 0.396078 0 0 0 0.27 0"/>
      <feBlend in2="BackgroundImageFix" result="effect1_dropShadow_3269_5314"/>
      <feBlend in="SourceGraphic" in2="effect1_dropShadow_3269_5314" result="shape"/>
    </filter>
    <filter id="P" width="41.2" height="41.23" x="12.855" y="33.029" color-interpolation-filters="sRGB" filterUnits="userSpaceOnUse">
      <feFlood flood-opacity="0" result="BackgroundImageFix"/>
      <feColorMatrix in="SourceAlpha" result="hardAlpha" values="0 0 0 0 0 0 0 0 0 0 0 0 0 0 0 0 0 0 127 0"/>
      <feOffset dy="4.07"/>
      <feGaussianBlur stdDeviation="4.07"/>
      <feColorMatrix values="0 0 0 0 0.576471 0 0 0 0 0.501961 0 0 0 0 0.396078 0 0 0 0.37 0"/>
      <feBlend in2="BackgroundImageFix" result="effect1_dropShadow_3269_5314"/>
      <feBlend in="SourceGraphic" in2="effect1_dropShadow_3269_5314" result="shape"/>
    </filter>
  </defs>
</svg>
