<svg width="230" height="160" viewBox="0 0 230 160" fill="none" xmlns="http://www.w3.org/2000/svg">
<path d="M117.592 132.872C148.895 132.872 174.233 107.643 174.233 76.4506C174.233 45.2581 148.922 20.0018 117.592 20.0018C86.3997 20.0018 60.9785 45.2306 60.9785 76.4231C60.9785 107.616 86.2898 132.872 117.592 132.872Z" fill="url(#paint0_linear_4749_1167)"/>
<path d="M179.272 141.34C190.898 129.303 182.46 108.883 165.504 108.883C157.781 108.883 151.158 113.445 148.107 120.014C145.414 120.179 142.913 121.031 137.499 124.603L136.62 105.256H129.969L129.419 117.293C127.248 115.617 125.16 115.809 123.703 115.919L124.06 115.864L123.483 103.964H112.408L111.721 118.117C109.852 116.688 109.275 117.375 108.698 117.375C107.571 117.375 106.499 117.678 105.592 118.172L104.988 105.228H98.3369L97.8697 115.479C94.8466 113.693 91.3014 112.648 87.5363 112.648C82.9742 112.648 78.7694 114.16 75.3616 116.688C60.5486 109.653 44.279 123.312 48.6762 139.141L59.3119 145.957C59.0645 146.122 58.8172 146.287 58.5699 146.452L59.3119 145.957C55.8766 149.173 66.0725 139.884 68.8483 141.148C69.0681 141.642 69.288 142.11 69.5353 142.577L69.0681 141.285C69.3704 141.532 69.5353 141.945 69.5353 142.577C69.5353 142.577 69.5353 142.604 69.5628 142.604C66.8146 142.742 64.2312 143.401 61.8677 144.528L70.7171 142.934C78.2747 144.556 119.718 150.244 119.801 150.959L119.196 149.832C119.443 149.86 119.718 149.887 119.993 149.915C121.34 151.893 123.318 153.432 125.627 154.174C123.758 153.212 122.192 151.783 121.065 150.025C130.161 150.904 142.006 150.299 146.349 149.832C150.334 150.547 154.511 149.64 157.919 147.166C158.633 146.644 159.32 146.04 159.952 145.38C164.157 145.353 171.88 146.562 171.77 144.693L179.355 146.04C177.211 145.05 174.903 144.391 172.429 144.171L179.272 141.34ZM157.314 146.067C157.342 145.985 157.369 145.93 157.451 145.847L157.314 146.067Z" fill="#1C1C1E"/>
<path d="M105.593 118.173L104.988 105.256H98.3373L97.8701 115.479" fill="#1C1C1E"/>
<path fill-rule="evenodd" clip-rule="evenodd" d="M97.9964 105.24C98.0047 105.058 98.1547 104.915 98.337 104.915H104.988C105.17 104.915 105.32 105.058 105.328 105.24L105.933 118.157C105.942 118.345 105.796 118.504 105.608 118.513C105.42 118.522 105.261 118.377 105.252 118.189L104.662 105.597H98.6627L98.2104 115.495C98.2018 115.683 98.0423 115.829 97.8542 115.82C97.6661 115.811 97.5206 115.652 97.5292 115.464L97.9964 105.24Z" fill="#3A3A3A"/>
<path d="M137.527 125.098L136.62 105.256H129.97L129.42 117.321" fill="#1C1C1E"/>
<path fill-rule="evenodd" clip-rule="evenodd" d="M129.629 105.24C129.637 105.058 129.787 104.915 129.969 104.915H136.62C136.802 104.915 136.952 105.058 136.961 105.24L137.867 125.083C137.876 125.271 137.731 125.43 137.542 125.439C137.354 125.447 137.195 125.302 137.186 125.114L136.294 105.597H130.295L129.76 117.336C129.752 117.524 129.592 117.67 129.404 117.661C129.216 117.653 129.07 117.493 129.079 117.305L129.629 105.24Z" fill="#3A3A3A"/>
<path d="M124.061 115.837L123.456 103.964H112.408L111.721 117.925L111.749 118.145" fill="#1C1C1E"/>
<path fill-rule="evenodd" clip-rule="evenodd" d="M112.067 103.948C112.076 103.766 112.226 103.623 112.408 103.623H123.456C123.637 103.623 123.787 103.766 123.796 103.947L124.401 115.819C124.411 116.007 124.266 116.168 124.078 116.177C123.89 116.187 123.729 116.042 123.72 115.854L123.132 104.305H112.732L112.063 117.912L112.087 118.103C112.11 118.29 111.977 118.46 111.791 118.484C111.604 118.507 111.433 118.374 111.41 118.187L111.383 117.968C111.38 117.948 111.379 117.928 111.38 117.909L112.067 103.948Z" fill="#3A3A3A"/>
<path fill-rule="evenodd" clip-rule="evenodd" d="M67.6487 135.314C67.6679 135.501 67.5317 135.669 67.3443 135.688C66.2968 135.796 65.3055 136.01 64.3696 136.331C64.1915 136.392 63.9976 136.297 63.9365 136.119C63.8754 135.941 63.9703 135.747 64.1484 135.686C65.1363 135.347 66.1787 135.122 67.2748 135.01C67.4621 134.991 67.6295 135.127 67.6487 135.314Z" fill="#3A3A3A"/>
<path d="M122.302 99.7314H113.233L111.364 100.996C110.979 101.27 110.759 101.683 110.759 102.15V103.387H125.05V102.205C125.05 101.71 124.803 101.27 124.391 101.023L122.302 99.7314Z" fill="#5C6479"/>
<path d="M125.654 103.964C125.654 104.266 125.407 104.514 125.105 104.514H110.594C110.292 104.514 110.044 104.266 110.044 103.964C110.044 103.662 110.292 103.414 110.594 103.414H125.105C125.407 103.414 125.654 103.662 125.654 103.964Z" fill="#5A5A5A"/>
<path d="M94.0771 23.0835H93.8573C93.5 23.0835 93.2252 22.8087 93.2252 22.4514V22.2316C93.2252 21.9567 93.0053 21.7369 92.7305 21.7369C92.4557 21.7369 92.2358 21.9567 92.2358 22.2316V22.4514C92.2358 22.8087 91.961 23.0835 91.6037 23.0835H91.3838C91.109 23.0835 90.8892 23.3034 90.8892 23.5782C90.8892 23.853 91.109 24.0729 91.3838 24.0729H91.6037C91.961 24.0729 92.2358 24.3477 92.2358 24.705V24.9248C92.2358 25.1997 92.4557 25.4195 92.7305 25.4195C93.0053 25.4195 93.2252 25.1997 93.2252 24.9248V24.705C93.2252 24.3477 93.5 24.0729 93.8573 24.0729H94.0771C94.3519 24.0729 94.5718 23.853 94.5718 23.5782C94.5718 23.3309 94.3519 23.0835 94.0771 23.0835Z" fill="#3A3A3A"/>
<path d="M80.0613 14.3168H79.8689C79.5941 14.3168 79.3468 14.0969 79.3468 13.7946V13.6022C79.3468 13.3824 79.1544 13.19 78.9345 13.19C78.7147 13.19 78.5223 13.3824 78.5223 13.6022V13.7946C78.5223 14.0694 78.3024 14.3168 78.0001 14.3168H77.8077C77.5879 14.3168 77.3955 14.5092 77.3955 14.729C77.3955 14.9489 77.5879 15.1413 77.8077 15.1413H78.0001C78.2749 15.1413 78.5223 15.3611 78.5223 15.6634V15.8558C78.5223 16.0757 78.7147 16.268 78.9345 16.268C79.1544 16.268 79.3468 16.0757 79.3468 15.8558V15.6634C79.3468 15.3886 79.5666 15.1413 79.8689 15.1413H80.0613C80.2812 15.1413 80.4735 14.9489 80.4735 14.729C80.4735 14.5092 80.2812 14.3168 80.0613 14.3168Z" fill="#3A3A3A"/>
<path d="M62.9954 72.442H62.803C62.5282 72.442 62.2808 72.2221 62.2808 71.9198V71.7274C62.2808 71.5076 62.0885 71.3152 61.8686 71.3152C61.6487 71.3152 61.4564 71.5076 61.4564 71.7274V71.9198C61.4564 72.1946 61.2365 72.442 60.9342 72.442H60.7418C60.522 72.442 60.3296 72.6343 60.3296 72.8542C60.3296 73.0741 60.522 73.2664 60.7418 73.2664H60.9342C61.209 73.2664 61.4564 73.4863 61.4564 73.7886V73.981C61.4564 74.2008 61.6487 74.3932 61.8686 74.3932C62.0885 74.3932 62.2808 74.2008 62.2808 73.981V73.7886C62.2808 73.5138 62.5007 73.2664 62.803 73.2664H62.9954C63.2152 73.2664 63.4076 73.0741 63.4076 72.8542C63.4076 72.6069 63.2152 72.442 62.9954 72.442Z" fill="#3A3A3A"/>
<path d="M108.231 6.0993H108.038C107.764 6.0993 107.516 5.87944 107.516 5.57713V5.41224C107.516 5.19238 107.324 5 107.104 5C106.884 5 106.692 5.19238 106.692 5.41224V5.60461C106.692 5.87944 106.472 6.12678 106.17 6.12678H105.977C105.757 6.12678 105.565 6.31915 105.565 6.53901C105.565 6.75887 105.757 6.95125 105.977 6.95125H106.17C106.444 6.95125 106.692 7.17111 106.692 7.47341V7.66579C106.692 7.88565 106.884 8.07803 107.104 8.07803C107.324 8.07803 107.516 7.88565 107.516 7.66579V7.41845C107.516 7.14363 107.736 6.89628 108.038 6.89628H108.231C108.451 6.89628 108.643 6.70391 108.643 6.48405C108.643 6.29167 108.478 6.0993 108.231 6.0993Z" fill="#3A3A3A"/>
<path d="M180.427 38.6932H180.235C179.96 38.6932 179.712 38.4734 179.712 38.1711V37.9787C179.712 37.7588 179.52 37.5665 179.3 37.5665C179.08 37.5665 178.888 37.7588 178.888 37.9787V38.1711C178.888 38.4459 178.668 38.6932 178.366 38.6932H178.173C177.954 38.6932 177.761 38.8856 177.761 39.1055C177.761 39.3253 177.954 39.5177 178.173 39.5177H178.366C178.641 39.5177 178.888 39.7376 178.888 40.0399V40.2323C178.888 40.4521 179.08 40.6445 179.3 40.6445C179.52 40.6445 179.712 40.4521 179.712 40.2323V40.0399C179.712 39.7651 179.932 39.5177 180.235 39.5177H180.427C180.647 39.5177 180.839 39.3253 180.839 39.1055C180.839 38.8856 180.647 38.6932 180.427 38.6932Z" fill="#3A3A3A"/>
<path d="M165.174 98.3302H164.981C164.707 98.3302 164.459 98.1104 164.459 97.8081V97.6157C164.459 97.3958 164.267 97.2034 164.047 97.2034C163.827 97.2034 163.635 97.3958 163.635 97.6157V97.8081C163.635 98.0829 163.415 98.3302 163.113 98.3302H162.975C162.755 98.3302 162.563 98.5226 162.563 98.7425C162.563 98.9623 162.755 99.1547 162.975 99.1547H163.168C163.442 99.1547 163.69 99.3746 163.69 99.6769V99.8692C163.69 100.089 163.882 100.281 164.102 100.281C164.322 100.281 164.514 100.089 164.514 99.8692V99.6769C164.514 99.402 164.734 99.1547 165.036 99.1547H165.229C165.449 99.1547 165.641 98.9623 165.641 98.7425C165.586 98.5226 165.394 98.3302 165.174 98.3302Z" fill="#3A3A3A"/>
<path d="M61.1808 102.507H61.0159C60.7411 102.507 60.4937 102.288 60.4937 101.985V101.793C60.4937 101.573 60.3014 101.381 60.0815 101.381C59.8616 101.381 59.6693 101.573 59.6693 101.793V101.985C59.6693 102.26 59.4494 102.507 59.1471 102.507H58.9547C58.7349 102.507 58.5425 102.7 58.5425 102.92C58.5425 103.14 58.7349 103.332 58.9547 103.332H59.1471C59.4219 103.332 59.6693 103.552 59.6693 103.854V104.047C59.6693 104.266 59.8616 104.459 60.0815 104.459C60.3014 104.459 60.4937 104.266 60.4937 104.047V103.854C60.4937 103.579 60.7136 103.332 61.0159 103.332H61.2083C61.4281 103.332 61.6205 103.14 61.6205 102.92C61.593 102.7 61.4006 102.507 61.1808 102.507Z" fill="#3A3A3A"/>
<path d="M147.641 53.5615H147.421C147.063 53.5615 146.789 53.2867 146.789 52.9294V52.7095C146.789 52.4347 146.569 52.2148 146.294 52.2148C146.019 52.2148 145.799 52.4347 145.799 52.7095V52.9294C145.799 53.2867 145.524 53.5615 145.167 53.5615H144.947C144.672 53.5615 144.453 53.7813 144.453 54.0562C144.453 54.331 144.672 54.5508 144.947 54.5508H145.167C145.524 54.5508 145.799 54.8257 145.799 55.1829V55.4028C145.799 55.6776 146.019 55.8975 146.294 55.8975C146.569 55.8975 146.789 55.6776 146.789 55.4028V55.1829C146.789 54.8257 147.063 54.5508 147.421 54.5508H147.641C147.915 54.5508 148.135 54.331 148.135 54.0562C148.135 53.7813 147.915 53.5615 147.641 53.5615Z" fill="#3A3A3A"/>
<path d="M153.879 91.4046H153.659C153.302 91.4046 153.027 91.1298 153.027 90.7725V90.5526C153.027 90.2778 152.807 90.058 152.532 90.058C152.258 90.058 152.038 90.2778 152.038 90.5526V90.7725C152.038 91.1298 151.763 91.4046 151.406 91.4046H151.158C150.883 91.4046 150.664 91.6245 150.664 91.8993C150.664 92.1741 150.883 92.394 151.158 92.394H151.378C151.735 92.394 152.01 92.6688 152.01 93.026V93.2459C152.01 93.5207 152.23 93.7406 152.505 93.7406C152.78 93.7406 153 93.5207 153 93.2459V93.026C153 92.6688 153.274 92.394 153.632 92.394H153.852C154.126 92.394 154.346 92.1741 154.346 91.8993C154.374 91.6245 154.154 91.4046 153.879 91.4046Z" fill="#3A3A3A"/>
<path d="M177.954 52.7644H177.816C177.596 52.7644 177.432 52.5995 177.432 52.3797V52.2697C177.432 52.1049 177.294 51.9674 177.129 51.9674C176.964 51.9674 176.827 52.1049 176.827 52.2697V52.4072C176.827 52.627 176.662 52.7919 176.442 52.7919H176.305C176.14 52.7919 176.002 52.9293 176.002 53.0942C176.002 53.2591 176.14 53.3965 176.305 53.3965H176.442C176.662 53.3965 176.827 53.5614 176.827 53.7813V53.9187C176.827 54.0836 176.964 54.221 177.129 54.221C177.294 54.221 177.432 54.0836 177.432 53.9187V53.7813C177.432 53.5614 177.596 53.3965 177.816 53.3965H177.954C178.119 53.3965 178.256 53.2591 178.256 53.0942C178.256 52.9018 178.119 52.7644 177.954 52.7644Z" fill="#3A3A3A"/>
<path d="M165.092 59.5799H164.982C164.817 59.5799 164.68 59.4425 164.68 59.2776V59.1677C164.68 59.0303 164.57 58.9203 164.432 58.9203C164.295 58.9203 164.185 59.0303 164.185 59.1677V59.2776C164.185 59.4425 164.048 59.5799 163.883 59.5799H163.773C163.635 59.5799 163.525 59.6899 163.525 59.8273C163.525 59.9647 163.635 60.0746 163.773 60.0746H163.883C164.048 60.0746 164.185 60.212 164.185 60.3769V60.4868C164.185 60.6243 164.295 60.7342 164.432 60.7342C164.57 60.7342 164.68 60.6243 164.68 60.4868V60.3769C164.68 60.212 164.817 60.0746 164.982 60.0746H165.092C165.229 60.0746 165.339 59.9647 165.339 59.8273C165.339 59.6899 165.229 59.5799 165.092 59.5799Z" fill="#3A3A3A"/>
<path d="M138.764 24.2654H138.654C138.489 24.2654 138.352 24.1279 138.352 23.963V23.8531C138.352 23.7157 138.242 23.6058 138.104 23.6058C137.967 23.6058 137.857 23.7157 137.857 23.8531V23.963C137.857 24.1279 137.719 24.2654 137.555 24.2654H137.445C137.307 24.2654 137.197 24.3753 137.197 24.5127C137.197 24.6501 137.307 24.76 137.445 24.76H137.555C137.719 24.76 137.857 24.8974 137.857 25.0623V25.1723C137.857 25.3097 137.967 25.4196 138.104 25.4196C138.242 25.4196 138.352 25.3097 138.352 25.1723V25.0623C138.352 24.8974 138.489 24.76 138.654 24.76H138.764C138.901 24.76 139.011 24.6501 139.011 24.5127C138.984 24.3753 138.901 24.2654 138.764 24.2654Z" fill="#3A3A3A"/>
<path d="M165.999 23.3583H165.889C165.724 23.3583 165.586 23.2209 165.586 23.056V22.9461C165.586 22.8087 165.476 22.6987 165.339 22.6987C165.202 22.6987 165.092 22.8087 165.092 22.9461V23.056C165.092 23.2209 164.954 23.3583 164.789 23.3583H164.679C164.542 23.3583 164.432 23.4682 164.432 23.6056C164.432 23.7431 164.542 23.853 164.679 23.853H164.789C164.954 23.853 165.092 23.9904 165.092 24.1553V24.2652C165.092 24.4026 165.202 24.5126 165.339 24.5126C165.476 24.5126 165.586 24.4026 165.586 24.2652V24.1553C165.586 23.9904 165.724 23.853 165.889 23.853H165.999C166.136 23.853 166.246 23.7431 166.246 23.6056C166.246 23.4682 166.136 23.3583 165.999 23.3583Z" fill="#3A3A3A"/>
<path d="M55.6844 46.2235H55.547C55.3271 46.2235 55.1347 46.0311 55.1347 45.8113V45.6738C55.1347 45.4815 54.9973 45.3441 54.8049 45.3441C54.6126 45.3441 54.4751 45.4815 54.4751 45.6738V45.8113C54.4751 46.0311 54.2828 46.2235 54.0629 46.2235H53.9255C53.7331 46.2235 53.5957 46.3609 53.5957 46.5533C53.5957 46.7457 53.7331 46.8831 53.9255 46.8831H54.0629C54.2828 46.8831 54.4751 47.0754 54.4751 47.2953V47.4327C54.4751 47.6251 54.6126 47.7625 54.8049 47.7625C54.9973 47.7625 55.1347 47.6251 55.1347 47.4327V47.2953C55.1347 47.0754 55.3271 46.8831 55.547 46.8831H55.6844C55.8767 46.8831 56.0142 46.7457 56.0142 46.5533C56.0142 46.3884 55.8493 46.2235 55.6844 46.2235Z" fill="#3A3A3A"/>
<path d="M82.4251 85.7707H82.2877C82.0678 85.7707 81.8754 85.5783 81.8754 85.3585V85.221C81.8754 85.0287 81.738 84.8913 81.5456 84.8913C81.3533 84.8913 81.2159 85.0287 81.2159 85.221V85.3585C81.2159 85.5783 81.0235 85.7707 80.8036 85.7707H80.6662C80.4738 85.7707 80.3364 85.9081 80.3364 86.1005C80.3364 86.2929 80.4738 86.4303 80.6662 86.4303H80.8036C81.0235 86.4303 81.2159 86.6226 81.2159 86.8425V86.9799C81.2159 87.1723 81.3533 87.3097 81.5456 87.3097C81.738 87.3097 81.8754 87.1723 81.8754 86.9799V86.8425C81.8754 86.6226 82.0678 86.4303 82.2877 86.4303H82.4251C82.6175 86.4303 82.7549 86.2929 82.7549 86.1005C82.7549 85.9081 82.59 85.7707 82.4251 85.7707Z" fill="#3A3A3A"/>
<path d="M183.285 99.457H183.148C182.928 99.457 182.735 99.2646 182.735 99.0447V98.9073C182.735 98.7149 182.598 98.5775 182.406 98.5775C182.213 98.5775 182.076 98.7149 182.076 98.9073V99.0447C182.076 99.2646 181.883 99.457 181.663 99.457H181.526C181.334 99.457 181.196 99.5944 181.196 99.7867C181.196 99.9791 181.334 100.117 181.526 100.117H181.663C181.883 100.117 182.076 100.309 182.076 100.529V100.666C182.076 100.859 182.213 100.996 182.406 100.996C182.598 100.996 182.735 100.859 182.735 100.666V100.529C182.735 100.309 182.928 100.117 183.148 100.117H183.285C183.477 100.117 183.615 99.9791 183.615 99.7867C183.615 99.6218 183.45 99.457 183.285 99.457Z" fill="#3A3A3A"/>
<path d="M52.9637 28.7172H52.8537C52.6614 28.7172 52.524 28.5798 52.524 28.3874V28.2775C52.524 28.1401 52.414 28.0027 52.2491 28.0027C52.1117 28.0027 51.9743 28.1126 51.9743 28.2775V28.3874C51.9743 28.5798 51.8369 28.7172 51.6445 28.7172H51.5346C51.3972 28.7172 51.2598 28.8271 51.2598 28.992C51.2598 29.1294 51.3697 29.2668 51.5346 29.2668H51.672C51.8644 29.2668 52.0018 29.4043 52.0018 29.5966V29.7066C52.0018 29.844 52.1117 29.9814 52.2766 29.9814C52.414 29.9814 52.5514 29.8715 52.5514 29.7066V29.5966C52.5514 29.4043 52.6888 29.2668 52.8812 29.2668H52.9912C53.1286 29.2668 53.266 29.1569 53.266 28.992C53.2385 28.8271 53.1011 28.7172 52.9637 28.7172Z" fill="#3A3A3A"/>
<path d="M63.3245 16.3226H63.2146C63.0222 16.3226 62.8848 16.1852 62.8848 15.9928V15.8829C62.8848 15.7455 62.7749 15.6081 62.61 15.6081C62.4726 15.6081 62.3351 15.718 62.3351 15.8829V15.9928C62.3351 16.1852 62.1977 16.3226 62.0054 16.3226H61.8954C61.758 16.3226 61.6206 16.4326 61.6206 16.5975C61.6206 16.7349 61.7305 16.8723 61.8954 16.8723H62.0054C62.1977 16.8723 62.3351 17.0097 62.3351 17.2021V17.312C62.3351 17.4494 62.4451 17.5868 62.61 17.5868C62.7474 17.5868 62.8848 17.4769 62.8848 17.312V17.2021C62.8848 17.0097 63.0222 16.8723 63.2146 16.8723H63.3245C63.4619 16.8723 63.5993 16.7624 63.5993 16.5975C63.5993 16.4326 63.4894 16.3226 63.3245 16.3226Z" fill="#3A3A3A"/>
<path d="M48.6764 70.2157H48.5665C48.3741 70.2157 48.2367 70.0783 48.2367 69.8859V69.776C48.2367 69.6386 48.1268 69.5011 47.9619 69.5011C47.8245 69.5011 47.6871 69.6111 47.6871 69.776V69.8859C47.6871 70.0783 47.5496 70.2157 47.3573 70.2157H47.2748C47.1374 70.2157 47 70.3256 47 70.4905C47 70.6279 47.1099 70.7653 47.2748 70.7653H47.3848C47.5771 70.7653 47.7145 70.9027 47.7145 71.0951V71.2051C47.7145 71.3425 47.8245 71.4799 47.9894 71.4799C48.1268 71.4799 48.2642 71.3699 48.2642 71.2051V71.0951C48.2642 70.9027 48.4016 70.7653 48.594 70.7653H48.7039C48.8413 70.7653 48.9787 70.6554 48.9787 70.4905C48.9512 70.3256 48.8413 70.2157 48.6764 70.2157Z" fill="#3A3A3A"/>
<path d="M89.0208 37.1819H88.9109C88.7185 37.1819 88.5811 37.0445 88.5811 36.8521V36.7422C88.5811 36.6048 88.4712 36.4674 88.3063 36.4674C88.1689 36.4674 88.0314 36.5773 88.0314 36.7422V36.8521C88.0314 37.0445 87.894 37.1819 87.7017 37.1819H87.5917C87.4543 37.1819 87.3169 37.2918 87.3169 37.4567C87.3169 37.5942 87.4268 37.7316 87.5917 37.7316H87.7017C87.894 37.7316 88.0314 37.869 88.0314 38.0614V38.1713C88.0314 38.3087 88.1414 38.4461 88.3063 38.4461C88.4437 38.4461 88.5811 38.3362 88.5811 38.1713V38.0614C88.5811 37.869 88.7185 37.7316 88.9109 37.7316H89.0208C89.1582 37.7316 89.2956 37.6216 89.2956 37.4567C89.2956 37.2918 89.1582 37.1819 89.0208 37.1819Z" fill="#3A3A3A"/>
<path d="M81.6277 69.2263H81.5178C81.3254 69.2263 81.188 69.0889 81.188 68.8965V68.7866C81.188 68.6491 81.0781 68.5117 80.9132 68.5117C80.7758 68.5117 80.6384 68.6217 80.6384 68.7866V68.8965C80.6384 69.0889 80.501 69.2263 80.3086 69.2263H80.1987C80.0612 69.2263 79.9238 69.3362 79.9238 69.5011C79.9238 69.6385 80.0338 69.7759 80.1987 69.7759H80.3086C80.501 69.7759 80.6384 69.9133 80.6384 70.1057V70.2156C80.6384 70.3531 80.7483 70.4905 80.9132 70.4905C81.0506 70.4905 81.188 70.3805 81.188 70.2156V70.1057C81.188 69.9133 81.3254 69.7759 81.5178 69.7759H81.6277C81.7651 69.7759 81.9026 69.666 81.9026 69.5011C81.8751 69.3362 81.7651 69.2263 81.6277 69.2263Z" fill="#3A3A3A"/>
<path d="M129.062 12.5851C128.21 12.5851 127.523 11.898 127.523 11.0461C127.523 10.1941 128.21 9.50708 129.062 9.50708C129.914 9.50708 130.601 10.1941 130.601 11.0461C130.601 11.898 129.887 12.5851 129.062 12.5851ZM129.062 10.359C128.678 10.359 128.348 10.6613 128.348 11.0736C128.348 11.4858 128.65 11.7881 129.062 11.7881C129.447 11.7881 129.777 11.4858 129.777 11.0736C129.777 10.6613 129.447 10.359 129.062 10.359Z" fill="#3A3A3A"/>
<path d="M75.3623 29.5143C74.5103 29.5143 73.8232 28.8272 73.8232 27.9753C73.8232 27.1233 74.5103 26.4363 75.3623 26.4363C76.2142 26.4363 76.9013 27.1233 76.9013 27.9753C76.9013 28.8272 76.1867 29.5143 75.3623 29.5143ZM75.3623 27.2882C74.9775 27.2882 74.6477 27.5905 74.6477 28.0028C74.6477 28.415 74.95 28.7173 75.3623 28.7173C75.7745 28.7173 76.0768 28.415 76.0768 28.0028C76.0768 27.5905 75.747 27.2882 75.3623 27.2882Z" fill="#3A3A3A"/>
<path d="M141.622 17.3673C141.017 17.3673 140.495 16.8726 140.495 16.2405C140.495 15.6084 140.99 15.1137 141.622 15.1137C142.227 15.1137 142.749 15.6084 142.749 16.2405C142.749 16.8726 142.227 17.3673 141.622 17.3673ZM141.622 15.7184C141.347 15.7184 141.1 15.9382 141.1 16.2405C141.1 16.5428 141.32 16.7627 141.622 16.7627C141.897 16.7627 142.144 16.5428 142.144 16.2405C142.144 15.9382 141.897 15.7184 141.622 15.7184Z" fill="#3A3A3A"/>
<path d="M149.867 106.712C149.262 106.712 148.74 106.217 148.74 105.585C148.74 104.981 149.234 104.458 149.867 104.458C150.471 104.458 150.993 104.953 150.993 105.585C150.966 106.217 150.471 106.712 149.867 106.712ZM149.867 105.091C149.592 105.091 149.344 105.31 149.344 105.613C149.344 105.887 149.564 106.135 149.867 106.135C150.141 106.135 150.389 105.915 150.389 105.613C150.389 105.31 150.141 105.091 149.867 105.091Z" fill="#3A3A3A"/>
<path d="M105.977 105.283H97.1555C96.9631 105.283 96.8257 105.146 96.8257 104.953C96.8257 104.761 96.9631 104.624 97.1555 104.624H105.977C106.17 104.624 106.307 104.761 106.307 104.953C106.307 105.146 106.142 105.283 105.977 105.283Z" fill="#5A5A5A"/>
<path d="M105.537 103.167C105.785 103.332 105.95 103.607 105.95 103.882V104.596H97.2651V103.854C97.2651 103.579 97.4025 103.305 97.6224 103.14L98.7492 102.37H98.7767V99.2647H104.301V102.425L105.537 103.167Z" fill="#9C9C9C"/>
<path opacity="0.3" d="M105.922 103.909V104.624H103.366V103.909C103.366 103.607 103.311 103.332 103.201 103.195L102.707 102.425V99.2647H104.301V102.425L105.537 103.195C105.785 103.332 105.922 103.607 105.922 103.909Z" fill="#2C3039"/>
<g filter="url(#filter0_d_4749_1167)">
<path d="M102.13 29.267C101.8 28.9647 101.278 28.9647 100.948 29.267C99.3267 30.6411 96.7983 35.5055 96.7983 40.6722V101.381C96.7983 101.958 97.2655 102.398 97.8152 102.398H101.525H105.263C105.84 102.398 106.28 101.93 106.28 101.381V40.6722C106.307 35.5055 103.751 30.6686 102.13 29.267Z" fill="url(#paint1_linear_4749_1167)"/>
</g>
<path d="M106.307 40.6722V101.381C106.307 101.958 105.84 102.425 105.263 102.425H102.625C102.789 102.425 102.927 101.958 102.927 101.381V40.6722C102.927 35.5055 102.185 30.6686 101.718 29.267C101.663 29.1296 101.608 29.0472 101.553 29.0472C101.773 29.0472 101.965 29.1296 102.13 29.267C103.751 30.6686 106.307 35.5055 106.307 40.6722Z" fill="url(#paint2_linear_4749_1167)"/>
<path d="M118.839 13.602C118.042 13.2173 116.86 13.2173 116.063 13.602C112.298 15.4983 106.279 24.3751 106.279 31.4381C106.279 39.4355 106.279 98.715 106.279 98.715H117.437H128.595C128.595 98.715 128.595 39.4355 128.595 31.4381C128.595 24.4026 122.604 15.5258 118.839 13.602Z" fill="url(#paint3_linear_4749_1167)"/>
<path d="M128.595 31.4656C128.595 39.463 128.595 98.7425 128.595 98.7425H122.082C122.082 98.7425 122.082 39.463 122.082 31.4656C122.082 24.4026 119.581 15.5258 118.015 13.6295C117.85 13.4372 117.63 13.3272 117.438 13.3272C117.932 13.3272 118.427 13.4372 118.812 13.6295C122.604 15.5258 128.595 24.4026 128.595 31.4656Z" fill="url(#paint4_linear_4749_1167)"/>
<path opacity="0.2" d="M117.437 13.3272C117.273 13.3272 117.108 13.4372 116.998 13.6295C115.761 15.5258 113.837 24.4026 113.837 31.4656C113.837 39.463 113.837 98.7425 113.837 98.7425H109.22C109.22 98.7425 109.22 39.463 109.22 31.4656C109.22 24.4026 113.645 15.5258 116.448 13.6295C116.723 13.4097 117.08 13.3272 117.437 13.3272Z" fill="url(#paint5_linear_4749_1167)"/>
<path opacity="0.4" fill-rule="evenodd" clip-rule="evenodd" d="M106.506 36.0353H128.668V37.0581H106.506V36.0353Z" fill="#656565"/>
<path opacity="0.4" fill-rule="evenodd" clip-rule="evenodd" d="M106.166 47.9685H128.668V48.9913H106.166V47.9685Z" fill="#656565"/>
<path opacity="0.4" fill-rule="evenodd" clip-rule="evenodd" d="M96.6274 63.0534H106.477V64.0762H96.6274V63.0534Z" fill="#656565"/>
<path opacity="0.4" fill-rule="evenodd" clip-rule="evenodd" d="M96.6274 53.5941H106.477V54.6169H96.6274V53.5941Z" fill="#656565"/>
<path opacity="0.4" fill-rule="evenodd" clip-rule="evenodd" d="M96.6274 40.9789H106.477V42.0017H96.6274V40.9789Z" fill="#656565"/>
<path d="M137.774 105.283H128.952C128.76 105.283 128.623 105.146 128.623 104.953C128.623 104.761 128.76 104.624 128.952 104.624H137.774C137.967 104.624 138.104 104.761 138.104 104.953C138.104 105.146 137.939 105.283 137.774 105.283Z" fill="#5A5A5A"/>
<path d="M137.335 103.167C137.582 103.332 137.747 103.607 137.747 103.882V104.596H129.062V103.854C129.062 103.579 129.2 103.305 129.42 103.14L130.547 102.37H130.574V99.2647H136.098V102.425L137.335 103.167Z" fill="#9C9C9C"/>
<path opacity="0.3" d="M137.719 103.909V104.624H135.438V103.909C135.438 103.607 135.356 103.332 135.246 103.195L134.669 102.425V99.2647H136.098V102.425L137.335 103.195C137.582 103.332 137.719 103.607 137.719 103.909Z" fill="#2C3039"/>
<g filter="url(#filter1_d_4749_1167)">
<path d="M133.927 29.267C133.597 28.9647 133.075 28.9647 132.745 29.267C131.124 30.6411 128.595 35.5055 128.595 40.6722V101.381C128.595 101.958 129.062 102.398 129.612 102.398H133.322H137.032C137.609 102.398 138.049 101.93 138.049 101.381V40.6722C138.104 35.5055 135.548 30.6686 133.927 29.267Z" fill="url(#paint6_linear_4749_1167)"/>
</g>
<path d="M138.104 40.6722V101.381C138.104 101.958 137.637 102.425 137.06 102.425H134.421C134.586 102.425 134.724 101.958 134.724 101.381V40.6722C134.724 35.5055 133.982 30.6686 133.514 29.267C133.46 29.1296 133.405 29.0472 133.35 29.0472C133.569 29.0472 133.762 29.1296 133.927 29.267C135.548 30.6686 138.104 35.5055 138.104 40.6722Z" fill="url(#paint7_linear_4749_1167)"/>
<path opacity="0.4" fill-rule="evenodd" clip-rule="evenodd" d="M128.336 63.0534H138.186V64.0762H128.336V63.0534Z" fill="#656565"/>
<path opacity="0.4" fill-rule="evenodd" clip-rule="evenodd" d="M128.336 53.5941H138.186V54.6169H128.336V53.5941Z" fill="#656565"/>
<path opacity="0.4" fill-rule="evenodd" clip-rule="evenodd" d="M128.336 40.9789H138.186V42.0017H128.336V40.9789Z" fill="#656565"/>
<g filter="url(#filter2_d_4749_1167)">
<path d="M111.034 49.604L111.501 47.8451L112.655 47.5703L114.579 47.1306L114.799 47.0756L114.964 49.604L117.822 91.3222L111.638 99.7593L109.22 99.3471L92.4006 96.4614C91.3563 96.2965 90.6143 95.3896 90.6143 94.3453V86.4029C90.6143 85.4685 90.999 84.5341 91.6586 83.8745L102.981 72.3869C104.823 70.5181 106.142 68.2095 106.801 65.6812L109.22 56.557L111.034 49.604Z" fill="#9C9C9C"/>
</g>
<path fill-rule="evenodd" clip-rule="evenodd" d="M103.267 86.6666C104.397 86.6666 105.313 85.7507 105.313 84.6209C105.313 83.4911 104.397 82.5752 103.267 82.5752C102.137 82.5752 101.221 83.4911 101.221 84.6209C101.221 85.7507 102.137 86.6666 103.267 86.6666ZM103.267 87.3485C104.774 87.3485 105.995 86.1273 105.995 84.6209C105.995 83.1145 104.774 81.8933 103.267 81.8933C101.761 81.8933 100.54 83.1145 100.54 84.6209C100.54 86.1273 101.761 87.3485 103.267 87.3485Z" fill="#454545"/>
<path d="M112.628 47.5703V59.0854L111.391 60.4595L111.281 59.7175C111.226 59.3602 110.924 59.0854 110.567 59.0854C110.237 59.0854 109.962 59.3053 109.852 59.6076L106.554 71.7823C106.334 72.6067 105.895 73.3488 105.317 73.9534L92.9504 86.3479C92.7031 86.5953 92.5656 86.9251 92.5656 87.2548V89.9481C92.5656 90.6627 93.1428 91.2398 93.8573 91.2398H109.66L110.017 93.7957C110.017 93.9605 94.0222 93.8231 90.5869 93.7957V86.3479C90.5869 85.4135 90.9442 84.4791 91.6312 83.8195L102.954 72.3319C104.795 70.4631 106.114 68.1546 106.774 65.6262L111.474 47.8176L112.628 47.5703Z" fill="url(#paint8_linear_4749_1167)"/>
<path d="M117.822 91.3224L111.639 99.7321L109.193 99.3198V56.5297L111.034 49.6042H114.964L117.822 91.3224Z" fill="url(#paint9_linear_4749_1167)"/>
<g filter="url(#filter3_d_4749_1167)">
<path d="M145.112 86.3755V94.3179C145.112 95.3622 144.37 96.2691 143.325 96.434L130.711 98.6051L124.088 99.7319L117.904 91.3223L120.927 47.0757L121.147 47.1306L123.071 47.5978L124.225 47.8726L128.43 63.73L128.952 65.6812C129.612 68.2096 130.931 70.5181 132.772 72.3869L144.095 83.8746C144.755 84.5341 145.112 85.4411 145.112 86.3755Z" fill="#9C9C9C"/>
</g>
<path opacity="0.4" d="M134.641 82.7203H129.419V86.4304H134.641V82.7203Z" fill="#454545"/>
<path d="M132.14 82.7203H129.419V84.754H132.14V82.7203Z" fill="url(#paint10_linear_4749_1167)"/>
<path d="M123.071 47.5703V59.0854L124.308 60.4595L124.417 59.7175C124.472 59.3602 124.775 59.0854 125.132 59.0854C125.462 59.0854 125.737 59.3052 125.847 59.6075L129.172 71.7822C129.392 72.6067 129.831 73.3487 130.409 73.9533L142.776 86.3479C143.023 86.5952 143.16 86.925 143.16 87.2548V89.9481C143.16 90.6626 142.583 91.2398 141.869 91.2398H126.094L125.737 93.7956C125.737 93.9605 141.731 93.8231 145.167 93.7956V86.3479C145.167 85.4135 144.809 84.4791 144.122 83.8195L132.745 72.3594C130.903 70.4906 129.584 68.182 128.925 65.6537L124.225 47.8451L123.071 47.5703Z" fill="url(#paint11_linear_4749_1167)"/>
<path d="M130.711 90.9375V98.6051L124.088 99.7319L117.904 91.3223L120.927 47.0757L121.147 47.1306L123.071 47.5978L124.225 47.8726L128.43 63.73V87.6671C129.749 88.1343 130.711 89.426 130.711 90.9375Z" fill="url(#paint12_linear_4749_1167)"/>
<g filter="url(#filter4_d_4749_1167)">
<path d="M124.308 45.5915V98.7424H111.199V45.5915C111.199 43.283 111.693 41.002 112.683 38.9133C112.875 38.5285 113.068 38.1163 113.287 37.7316V37.7041L116.036 33.142C116.805 31.8503 118.674 31.8503 119.471 33.142L122.219 37.7041V37.7316C122.439 38.1163 122.631 38.5011 122.824 38.8858C123.813 41.002 124.308 43.283 124.308 45.5915Z" fill="#9C9C9C"/>
</g>
<path d="M124.308 45.5916V98.7425H120.378V45.5916C120.378 43.2831 120.186 41.002 119.773 38.9134C119.691 38.5286 119.636 38.1439 119.526 37.7591V37.7316L118.427 33.1696C118.262 32.51 118.015 32.2077 117.74 32.2077C118.399 32.2077 119.059 32.5375 119.444 33.1696L122.192 37.7316V37.7591C122.412 38.1439 122.604 38.5286 122.797 38.9134C123.813 41.002 124.308 43.2831 124.308 45.5916Z" fill="url(#paint13_linear_4749_1167)"/>
<path d="M122.824 38.9133C122.357 38.1988 121.56 37.7316 120.68 37.7316H114.882C114.002 37.7316 113.178 38.1988 112.71 38.9133C112.903 38.5285 113.095 38.1163 113.315 37.7316V37.7041L116.063 33.142C116.833 31.8503 118.702 31.8503 119.499 33.142L122.247 37.7041V37.7316C122.439 38.1163 122.659 38.5011 122.824 38.9133Z" fill="url(#paint14_linear_4749_1167)"/>
<path d="M120.707 44.7396C120.707 44.9595 120.46 45.042 120.322 44.8771C120.02 44.4923 119.553 44.2724 119.003 44.2724H116.475C115.98 44.2724 115.513 44.4923 115.211 44.8496C115.183 44.8771 115.183 44.8771 115.156 44.9045C115.018 45.0694 114.771 44.9595 114.771 44.7671C114.771 44.6022 114.771 44.3824 114.771 44.1075C114.771 43.1731 115.541 42.4311 116.475 42.4311H119.003C119.058 42.4311 119.113 42.4311 119.168 42.4311C119.416 42.4586 119.635 42.5411 119.855 42.651C120.35 42.9533 120.707 43.5029 120.707 44.1075C120.707 44.3824 120.707 44.5748 120.707 44.7396Z" fill="url(#paint15_linear_4749_1167)"/>
<path opacity="0.3" fill-rule="evenodd" clip-rule="evenodd" d="M111.119 60.0578H124.478V61.0807H111.119V60.0578Z" fill="#272727"/>
<path opacity="0.3" fill-rule="evenodd" clip-rule="evenodd" d="M111.119 74.733H124.478V75.7558H111.119V74.733Z" fill="#272727"/>
<g filter="url(#filter5_d_4749_1167)">
<path d="M114.331 87.4197H112.737C110.786 87.4197 109.22 88.9862 109.22 90.9375V99.7868H117.849V90.9375C117.822 88.9862 116.255 87.4197 114.331 87.4197Z" fill="url(#paint16_linear_4749_1167)"/>
</g>
<path d="M117.822 90.9375V99.7868H114.387V88.2991C114.387 87.8045 114.002 87.4197 113.507 87.4197H114.304C116.256 87.4197 117.822 88.9862 117.822 90.9375Z" fill="url(#paint17_linear_4749_1167)"/>
<g filter="url(#filter6_d_4749_1167)">
<path d="M122.879 87.4197H121.285C119.334 87.4197 117.767 88.9862 117.767 90.9375V99.7868H126.397V90.9375C126.397 88.9862 124.83 87.4197 122.879 87.4197Z" fill="url(#paint18_linear_4749_1167)"/>
</g>
<path d="M126.396 90.9375V99.7868H123.401V88.574C123.401 87.9419 122.879 87.4197 122.247 87.4197H122.879C124.83 87.4197 126.396 88.9862 126.396 90.9375Z" fill="url(#paint19_linear_4749_1167)"/>
<path opacity="0.4" d="M117.74 90.9375V99.7868H120.735V88.574C120.735 87.9419 121.257 87.4197 121.89 87.4197H121.257C119.334 87.4197 117.74 88.9862 117.74 90.9375Z" fill="url(#paint20_linear_4749_1167)"/>
<g filter="url(#filter7_d_4749_1167)">
<path d="M122.301 99.7317H113.232L111.363 100.996C110.979 101.271 110.759 101.683 110.759 102.15V103.387H125.05V102.205C125.05 101.71 124.802 101.271 124.39 101.023L122.301 99.7317Z" fill="#9C9C9C"/>
</g>
<path opacity="0.3" d="M125.05 102.233V103.414H120.763V102.233C120.763 101.738 120.653 101.298 120.488 101.023L119.664 99.7317H122.302L124.391 101.023C124.803 101.271 125.05 101.738 125.05 102.233Z" fill="#2C3039"/>
<path d="M116.888 52.1875H116.283C115.981 52.1875 115.733 51.9402 115.733 51.6379V51.0333C115.733 50.731 115.981 50.4836 116.283 50.4836H116.888C117.19 50.4836 117.437 50.731 117.437 51.0333V51.6379C117.437 51.9402 117.19 52.1875 116.888 52.1875Z" fill="url(#paint21_linear_4749_1167)"/>
<path d="M119.443 52.1875H118.839C118.536 52.1875 118.289 51.9402 118.289 51.6379V51.0333C118.289 50.731 118.536 50.4836 118.839 50.4836H119.443C119.746 50.4836 119.993 50.731 119.993 51.0333V51.6379C119.993 51.9402 119.746 52.1875 119.443 52.1875Z" fill="url(#paint22_linear_4749_1167)"/>
<g filter="url(#filter8_d_4749_1167)">
<path d="M118.647 105.613H116.86V85.2761C116.86 84.7814 117.273 84.3966 117.74 84.3966C118.234 84.3966 118.619 84.8089 118.619 85.2761V105.613H118.647Z" fill="#868686"/>
</g>
<path fill-rule="evenodd" clip-rule="evenodd" d="M108.698 117.716C107.212 117.716 105.86 118.237 104.82 119.095C104.675 119.215 104.46 119.194 104.34 119.049C104.22 118.904 104.241 118.689 104.386 118.569C105.545 117.613 107.051 117.034 108.698 117.034C111.361 117.034 113.648 118.57 114.748 120.797C114.831 120.966 114.762 121.171 114.593 121.254C114.424 121.337 114.219 121.268 114.136 121.099C113.147 119.094 111.091 117.716 108.698 117.716Z" fill="#3A3A3A"/>
<path opacity="0.3" d="M118.097 42.4034L117.107 44.2721H116.475C115.98 44.2721 115.513 44.492 115.211 44.8493L116.503 42.4034H118.097Z" fill="#767676"/>
<path opacity="0.3" d="M119.856 42.6232L119.004 44.2721H118.18L119.169 42.4034C119.416 42.4308 119.636 42.5133 119.856 42.6232Z" fill="#767676"/>
<path fill-rule="evenodd" clip-rule="evenodd" d="M87.509 113.017C76.457 113.017 67.513 121.961 67.513 133.013C67.513 133.767 67.5668 134.523 67.6484 135.285C67.6685 135.472 67.533 135.64 67.3457 135.661C67.1585 135.681 66.9905 135.545 66.9704 135.358C66.8871 134.581 66.8311 133.798 66.8311 133.013C66.8311 121.584 76.0804 112.335 87.509 112.335C97.0378 112.335 105.057 118.762 107.46 127.536C107.51 127.718 107.403 127.906 107.221 127.955C107.04 128.005 106.852 127.898 106.803 127.717C104.479 119.232 96.7232 113.017 87.509 113.017Z" fill="#3A3A3A"/>
<path fill-rule="evenodd" clip-rule="evenodd" d="M67.5386 136.912C67.7225 136.871 67.9044 136.988 67.945 137.171C68.3508 139.011 69 140.796 69.8641 142.416C69.9527 142.582 69.8899 142.789 69.7237 142.877C69.5576 142.966 69.351 142.903 69.2624 142.737C68.3677 141.059 67.6977 139.216 67.2791 137.318C67.2385 137.134 67.3547 136.953 67.5386 136.912Z" fill="#3A3A3A"/>
<path fill-rule="evenodd" clip-rule="evenodd" d="M114.332 121.262C110.776 121.262 107.846 124.06 107.637 127.564C107.626 127.752 107.464 127.895 107.276 127.884C107.088 127.873 106.945 127.712 106.956 127.524C107.187 123.662 110.413 120.58 114.332 120.58C115.802 120.58 117.156 121.012 118.305 121.731C118.465 121.831 118.514 122.041 118.414 122.201C118.314 122.36 118.104 122.409 117.944 122.309C116.895 121.653 115.665 121.262 114.332 121.262Z" fill="#3A3A3A"/>
<path fill-rule="evenodd" clip-rule="evenodd" d="M125.105 116.177C123.717 116.177 122.41 116.596 121.34 117.327C121.184 117.433 120.972 117.393 120.866 117.238C120.76 117.082 120.8 116.87 120.955 116.764C122.139 115.956 123.58 115.495 125.105 115.495C127.555 115.495 129.688 116.678 131.04 118.491C131.152 118.642 131.121 118.855 130.97 118.968C130.819 119.08 130.606 119.049 130.493 118.898C129.262 117.248 127.327 116.177 125.105 116.177Z" fill="#3A3A3A"/>
<path fill-rule="evenodd" clip-rule="evenodd" d="M162.442 128.199C162.611 128.117 162.815 128.187 162.898 128.357C163.882 130.382 164.416 132.631 164.416 135.019C164.416 136.254 164.276 137.463 163.994 138.618C163.949 138.801 163.765 138.913 163.582 138.868C163.399 138.823 163.287 138.639 163.332 138.456C163.6 137.357 163.734 136.203 163.734 135.019C163.734 132.735 163.224 130.587 162.284 128.655C162.202 128.485 162.273 128.281 162.442 128.199Z" fill="#3A3A3A"/>
<path fill-rule="evenodd" clip-rule="evenodd" d="M149.015 120.327C144.02 120.327 139.615 122.824 136.955 126.639C136.847 126.794 136.634 126.832 136.48 126.724C136.326 126.616 136.288 126.404 136.395 126.249C139.177 122.26 143.786 119.645 149.015 119.645C153.989 119.645 158.43 122.006 161.24 125.688C161.355 125.838 161.326 126.052 161.176 126.166C161.027 126.28 160.813 126.251 160.698 126.102C158.012 122.583 153.769 120.327 149.015 120.327Z" fill="#3A3A3A"/>
<path fill-rule="evenodd" clip-rule="evenodd" d="M163.734 133.975C163.734 133.787 163.887 133.634 164.075 133.634H164.487C168.331 133.634 171.451 136.755 171.451 140.598C171.451 141.985 171.046 143.258 170.352 144.329C170.25 144.487 170.038 144.532 169.88 144.429C169.722 144.327 169.677 144.116 169.78 143.958C170.405 142.994 170.769 141.849 170.769 140.598C170.769 137.131 167.954 134.316 164.487 134.316H164.075C163.887 134.316 163.734 134.163 163.734 133.975Z" fill="#3A3A3A"/>
<path opacity="0.3" d="M164.075 135.046C164.075 145.545 153.577 152.8 143.766 149.145C153.165 151.206 162.069 144.061 162.069 134.442C162.069 127.983 158.001 122.459 152.258 120.343C159.018 121.827 164.075 127.846 164.075 135.046Z" fill="#777777"/>
<path fill-rule="evenodd" clip-rule="evenodd" d="M156.073 148.32C156.165 148.485 156.106 148.692 155.941 148.784C155.68 148.928 155.421 149.044 155.177 149.152L155.172 149.154C155 149.231 154.798 149.153 154.722 148.981C154.645 148.809 154.723 148.608 154.895 148.531C155.144 148.421 155.378 148.316 155.61 148.187C155.774 148.096 155.982 148.155 156.073 148.32Z" fill="#3A3A3A"/>
<path fill-rule="evenodd" clip-rule="evenodd" d="M163.766 138.04C163.95 138.082 164.064 138.265 164.022 138.448C163.179 142.129 161.044 145.305 158.093 147.469C157.941 147.58 157.728 147.547 157.616 147.396C157.505 147.244 157.538 147.03 157.69 146.919C160.51 144.85 162.552 141.815 163.358 138.296C163.4 138.112 163.583 137.998 163.766 138.04Z" fill="#3A3A3A"/>
<path fill-rule="evenodd" clip-rule="evenodd" d="M90.5803 137.907C90.6094 137.721 90.7838 137.594 90.9698 137.623C92.8671 137.919 94.3771 139.342 94.8213 141.178C94.8655 141.361 94.7531 141.545 94.5701 141.589C94.387 141.633 94.2028 141.521 94.1585 141.338C93.7782 139.766 92.485 138.55 90.8645 138.297C90.6785 138.268 90.5512 138.093 90.5803 137.907Z" fill="#3A3A3A"/>
<path fill-rule="evenodd" clip-rule="evenodd" d="M99.3815 135.223C96.7011 135.223 94.3333 136.642 92.9908 138.748C92.8896 138.906 92.6788 138.953 92.52 138.852C92.3612 138.751 92.3146 138.54 92.4158 138.381C93.8765 136.09 96.4555 134.541 99.3815 134.541C101.043 134.541 102.593 135.028 103.885 135.89C104.042 135.994 104.084 136.206 103.98 136.362C103.875 136.519 103.664 136.561 103.507 136.457C102.326 135.67 100.908 135.223 99.3815 135.223Z" fill="#3A3A3A"/>
<path fill-rule="evenodd" clip-rule="evenodd" d="M110.209 127.335C106.055 127.335 102.663 130.701 102.663 134.882C102.663 135.078 102.663 135.246 102.687 135.411C102.714 135.597 102.584 135.77 102.398 135.796C102.211 135.823 102.038 135.694 102.012 135.507C101.981 135.291 101.981 135.078 101.981 134.892L101.981 134.882C101.981 130.323 105.68 126.653 110.209 126.653C114.74 126.653 118.438 130.351 118.438 134.882C118.438 135.481 118.381 136.053 118.266 136.625C118.229 136.81 118.05 136.929 117.865 136.893C117.68 136.856 117.561 136.676 117.598 136.491C117.703 135.964 117.756 135.437 117.756 134.882C117.756 130.728 114.363 127.335 110.209 127.335Z" fill="#3A3A3A"/>
<path fill-rule="evenodd" clip-rule="evenodd" d="M117.685 136.323C117.815 136.187 118.031 136.182 118.167 136.312C118.798 136.914 119.347 137.635 119.725 138.449C119.804 138.619 119.73 138.822 119.559 138.901C119.389 138.981 119.186 138.906 119.107 138.736C118.77 138.01 118.275 137.357 117.696 136.805C117.56 136.675 117.555 136.459 117.685 136.323Z" fill="#3A3A3A"/>
<path fill-rule="evenodd" clip-rule="evenodd" d="M129.09 133.162C124.217 133.162 120.143 136.409 118.865 140.857C118.813 141.038 118.624 141.143 118.443 141.091C118.262 141.039 118.157 140.85 118.209 140.669C119.569 135.937 123.904 132.48 129.09 132.48C134.474 132.48 138.98 136.248 140.113 141.265C140.155 141.449 140.04 141.631 139.856 141.673C139.672 141.714 139.49 141.599 139.448 141.415C138.383 136.703 134.149 133.162 129.09 133.162Z" fill="#3A3A3A"/>
<path opacity="0.3" d="M125.627 154.174C121.258 152.718 118.097 148.623 118.097 143.759C118.097 138.674 121.56 134.415 126.232 133.15C117.245 137.08 116.888 149.75 125.627 154.174Z" fill="#777777"/>
<path fill-rule="evenodd" clip-rule="evenodd" d="M118.152 142.373C118.34 142.373 118.493 142.526 118.493 142.714C118.493 142.807 118.486 142.899 118.479 142.978C118.479 142.983 118.479 142.987 118.478 142.992C118.471 143.078 118.466 143.155 118.466 143.236C118.466 143.424 118.313 143.577 118.125 143.577C117.936 143.577 117.784 143.424 117.784 143.236C117.784 143.125 117.792 143.023 117.799 142.938L117.799 142.935C117.806 142.847 117.811 142.779 117.811 142.714C117.811 142.526 117.964 142.373 118.152 142.373Z" fill="#3A3A3A"/>
<path fill-rule="evenodd" clip-rule="evenodd" d="M141.622 144.127C138.76 144.127 136.466 146.447 136.466 149.283C136.466 149.517 136.487 149.729 136.513 149.979C136.515 150.001 136.517 150.023 136.519 150.046C136.538 150.233 136.401 150.4 136.214 150.419C136.027 150.438 135.86 150.301 135.841 150.114C135.838 150.09 135.836 150.067 135.834 150.043C135.809 149.798 135.784 149.553 135.784 149.283C135.784 146.073 138.382 143.445 141.622 143.445C144.832 143.445 147.459 146.043 147.459 149.283C147.459 149.471 147.306 149.624 147.118 149.624C146.93 149.624 146.777 149.471 146.777 149.283C146.777 146.422 144.457 144.127 141.622 144.127Z" fill="#3A3A3A"/>
<path fill-rule="evenodd" clip-rule="evenodd" d="M180.262 134.398C179.616 134.398 179.034 134.746 178.709 135.257C178.608 135.416 178.397 135.463 178.238 135.362C178.079 135.261 178.032 135.05 178.133 134.891C178.577 134.194 179.37 133.716 180.262 133.716C181.632 133.716 182.747 134.831 182.747 136.201C182.747 136.389 182.594 136.542 182.406 136.542C182.218 136.542 182.065 136.389 182.065 136.201C182.065 135.208 181.256 134.398 180.262 134.398Z" fill="#3A3A3A"/>
<path fill-rule="evenodd" clip-rule="evenodd" d="M177.878 136.29C178.011 136.157 178.227 136.157 178.36 136.29C178.488 136.418 178.487 136.569 178.487 136.609C178.487 136.611 178.487 136.612 178.487 136.613C178.487 136.802 178.335 136.954 178.146 136.954C177.98 136.954 177.842 136.836 177.812 136.679C177.75 136.552 177.772 136.395 177.878 136.29ZM177.805 136.607C177.805 136.606 177.805 136.608 177.805 136.61L177.805 136.607Z" fill="#3A3A3A"/>
<path fill-rule="evenodd" clip-rule="evenodd" d="M178.28 137.159C178.434 137.051 178.647 137.088 178.755 137.242C179.078 137.704 179.607 138.004 180.235 138.004C180.797 138.004 181.281 137.77 181.599 137.406C181.723 137.264 181.939 137.25 182.081 137.374C182.222 137.498 182.237 137.713 182.113 137.855C181.662 138.37 180.991 138.686 180.235 138.686C179.378 138.686 178.643 138.272 178.196 137.633C178.088 137.479 178.126 137.267 178.28 137.159Z" fill="#3A3A3A"/>
<path fill-rule="evenodd" clip-rule="evenodd" d="M100.344 141.736C99.6974 141.736 99.1159 142.083 98.7903 142.595C98.6892 142.754 98.4784 142.801 98.3196 142.7C98.1607 142.599 98.1139 142.388 98.215 142.229C98.6588 141.532 99.4515 141.054 100.344 141.054C101.714 141.054 102.829 142.169 102.829 143.539C102.829 143.727 102.676 143.88 102.488 143.88C102.299 143.88 102.147 143.727 102.147 143.539C102.147 142.545 101.337 141.736 100.344 141.736Z" fill="#3A3A3A"/>
<path fill-rule="evenodd" clip-rule="evenodd" d="M97.9587 143.655C98.0919 143.522 98.3078 143.522 98.4409 143.655C98.5695 143.783 98.5685 143.934 98.5683 143.974C98.5683 143.976 98.5683 143.977 98.5683 143.978C98.5683 144.167 98.4156 144.319 98.2273 144.319C98.0615 144.319 97.9234 144.201 97.8927 144.044C97.8314 143.917 97.8534 143.76 97.9587 143.655ZM97.8862 143.972C97.8863 143.972 97.8863 143.973 97.8863 143.975L97.8862 143.972Z" fill="#3A3A3A"/>
<path fill-rule="evenodd" clip-rule="evenodd" d="M98.3613 144.496C98.5155 144.388 98.7281 144.426 98.8361 144.58C99.1589 145.041 99.6881 145.342 100.316 145.342C100.878 145.342 101.362 145.108 101.681 144.743C101.805 144.602 102.02 144.587 102.162 144.711C102.303 144.835 102.318 145.051 102.194 145.193C101.743 145.707 101.072 146.024 100.316 146.024C99.4592 146.024 98.7242 145.609 98.2775 144.971C98.1695 144.817 98.207 144.604 98.3613 144.496Z" fill="#3A3A3A"/>
<path fill-rule="evenodd" clip-rule="evenodd" d="M70.6346 142.918C67.5818 142.918 64.6624 143.62 62.0387 144.837C61.8679 144.917 61.6652 144.842 61.5859 144.672C61.5067 144.501 61.5809 144.298 61.7517 144.219C64.4596 142.963 67.4765 142.236 70.6346 142.236C71.2223 142.236 71.8108 142.264 72.3725 142.32C72.5598 142.339 72.6965 142.506 72.6778 142.693C72.6591 142.881 72.492 143.017 72.3046 142.998C71.767 142.945 71.2012 142.918 70.6346 142.918Z" fill="#3A3A3A"/>
<path fill-rule="evenodd" clip-rule="evenodd" d="M60.3766 145.319C60.4709 145.482 60.4153 145.69 60.2523 145.785C59.7425 146.08 59.2576 146.403 58.7696 146.755C58.6169 146.866 58.4038 146.831 58.2936 146.679C58.1833 146.526 58.2177 146.313 58.3704 146.203C58.8718 145.841 59.3762 145.504 59.9107 145.195C60.0736 145.1 60.2822 145.156 60.3766 145.319Z" fill="#3A3A3A"/>
<path fill-rule="evenodd" clip-rule="evenodd" d="M168.851 143.859C169.412 143.803 170.001 143.775 170.588 143.775C173.746 143.775 176.763 144.501 179.471 145.758C179.642 145.837 179.716 146.04 179.637 146.21C179.558 146.381 179.355 146.455 179.184 146.376C176.561 145.159 173.641 144.457 170.588 144.457C170.022 144.457 169.456 144.484 168.918 144.537C168.731 144.556 168.564 144.419 168.545 144.232C168.526 144.045 168.663 143.878 168.851 143.859Z" fill="#3A3A3A"/>
<path fill-rule="evenodd" clip-rule="evenodd" d="M151.24 71.5184C149.23 71.5184 147.596 73.1521 147.596 75.1624C147.596 75.3507 147.444 75.5033 147.256 75.5033C147.067 75.5033 146.915 75.3507 146.915 75.1624C146.915 72.7755 148.854 70.8365 151.24 70.8365C151.723 70.8365 152.168 70.9271 152.592 71.0404C152.774 71.0889 152.883 71.2757 152.834 71.4576C152.786 71.6396 152.599 71.7478 152.417 71.6992C152.017 71.5927 151.638 71.5184 151.24 71.5184Z" fill="#3A3A3A"/>
<path fill-rule="evenodd" clip-rule="evenodd" d="M173.49 75.5748C173.49 75.3865 173.643 75.2339 173.831 75.2339H180.867C181.055 75.2339 181.208 75.3865 181.208 75.5748C181.208 75.7631 181.055 75.9158 180.867 75.9158H173.831C173.643 75.9158 173.49 75.7631 173.49 75.5748Z" fill="#3A3A3A"/>
<path fill-rule="evenodd" clip-rule="evenodd" d="M161.591 72.8264C161.591 72.6381 161.743 72.4855 161.932 72.4855C163.516 72.4855 164.807 73.6689 164.975 75.2062H170.589C170.777 75.2062 170.93 75.3589 170.93 75.5472C170.93 75.7355 170.777 75.8881 170.589 75.8881H164.653C164.464 75.8881 164.312 75.7355 164.312 75.5472C164.312 74.224 163.255 73.1674 161.932 73.1674C161.743 73.1674 161.591 73.0147 161.591 72.8264Z" fill="#3A3A3A"/>
<path fill-rule="evenodd" clip-rule="evenodd" d="M157.04 68.4404C155.074 68.4404 153.418 69.716 152.857 71.4735C152.8 71.6529 152.608 71.7519 152.429 71.6947C152.249 71.6375 152.15 71.4457 152.208 71.2663C152.856 69.2312 154.772 67.7585 157.04 67.7585C159.839 67.7585 162.107 70.0273 162.107 72.8265C162.107 73.0148 161.955 73.1674 161.767 73.1674C161.578 73.1674 161.426 73.0148 161.426 72.8265C161.426 70.4039 159.462 68.4404 157.04 68.4404Z" fill="#3A3A3A"/>
<path fill-rule="evenodd" clip-rule="evenodd" d="M85.7523 78.7689C85.9616 78.6991 86.22 78.6689 86.4372 78.6689C87.6731 78.6689 88.647 79.6768 88.647 80.8787C88.647 81.067 88.4943 81.2196 88.306 81.2196C88.1177 81.2196 87.9651 81.067 87.9651 80.8787C87.9651 80.0469 87.29 79.3508 86.4372 79.3508C86.2697 79.3508 86.0884 79.3756 85.9679 79.4158C85.7893 79.4753 85.5962 79.3788 85.5366 79.2001C85.4771 79.0215 85.5736 78.8284 85.7523 78.7689Z" fill="#3A3A3A"/>
<path fill-rule="evenodd" clip-rule="evenodd" d="M72.2729 81.0435C72.2729 80.8552 72.4256 80.7026 72.6139 80.7026H75.9118C76.1001 80.7026 76.2527 80.8552 76.2527 81.0435C76.2527 81.2318 76.1001 81.3845 75.9118 81.3845H72.6139C72.4256 81.3845 72.2729 81.2318 72.2729 81.0435Z" fill="#3A3A3A"/>
<path fill-rule="evenodd" clip-rule="evenodd" d="M79.8946 80.7027C80.0488 79.9895 80.6773 79.4385 81.4634 79.4385C81.6517 79.4385 81.8043 79.5911 81.8043 79.7794C81.8043 79.9677 81.6517 80.1204 81.4634 80.1204C80.942 80.1204 80.5401 80.54 80.5401 81.0436C80.5401 81.2319 80.3875 81.3846 80.1992 81.3846H77.4235C77.2352 81.3846 77.0825 81.2319 77.0825 81.0436C77.0825 80.8553 77.2352 80.7027 77.4235 80.7027H79.8946Z" fill="#3A3A3A"/>
<path fill-rule="evenodd" clip-rule="evenodd" d="M81.2046 79.752C81.2046 78.3545 82.3466 77.2125 83.7441 77.2125C84.8597 77.2125 85.8403 77.9733 86.1582 78.9907C86.2144 79.1705 86.1142 79.3617 85.9345 79.4179C85.7548 79.474 85.5635 79.3739 85.5074 79.1941C85.2757 78.4527 84.5524 77.8944 83.7441 77.8944C82.7232 77.8944 81.8865 78.7311 81.8865 79.752C81.8865 79.9403 81.7338 80.093 81.5455 80.093C81.3572 80.093 81.2046 79.9403 81.2046 79.752Z" fill="#3A3A3A"/>
<path fill-rule="evenodd" clip-rule="evenodd" d="M54.4212 93.8895C53.4031 93.8895 52.5911 94.7234 52.5911 95.7196C52.5911 95.9079 52.4384 96.0606 52.2501 96.0606C52.0618 96.0606 51.9092 95.9079 51.9092 95.7196C51.9092 94.3524 53.0209 93.2076 54.4212 93.2076C54.695 93.2076 54.9583 93.2381 55.228 93.3392C55.4043 93.4053 55.4937 93.6018 55.4275 93.7782C55.3614 93.9545 55.1649 94.0438 54.9886 93.9777C54.8186 93.9139 54.6422 93.8895 54.4212 93.8895Z" fill="#3A3A3A"/>
<path fill-rule="evenodd" clip-rule="evenodd" d="M59.8511 94.455C59.8511 94.2667 60.0037 94.114 60.192 94.114C61.0882 94.114 61.8273 94.75 61.9856 95.5981H64.8915C65.0798 95.5981 65.2325 95.7507 65.2325 95.939C65.2325 96.1273 65.0798 96.28 64.8915 96.28H61.6761C61.4878 96.28 61.3351 96.1273 61.3351 95.939C61.3351 95.3029 60.8282 94.7959 60.192 94.7959C60.0037 94.7959 59.8511 94.6433 59.8511 94.455Z" fill="#3A3A3A"/>
<path fill-rule="evenodd" clip-rule="evenodd" d="M57.5541 92.2404C56.5559 92.2404 55.7193 92.9066 55.4325 93.791C55.3744 93.9701 55.1821 94.0682 55.0029 94.0101C54.8238 93.952 54.7257 93.7597 54.7838 93.5806C55.1566 92.4312 56.2437 91.5585 57.5541 91.5585C59.144 91.5585 60.4509 92.8654 60.4509 94.4553C60.4509 94.6436 60.2982 94.7962 60.1099 94.7962C59.9216 94.7962 59.769 94.6436 59.769 94.4553C59.769 93.242 58.7674 92.2404 57.5541 92.2404Z" fill="#3A3A3A"/>
<path opacity="0.3" fill-rule="evenodd" clip-rule="evenodd" d="M165.504 109.224C157.919 109.224 151.387 113.705 148.417 120.156C148.339 120.327 148.136 120.402 147.965 120.323C147.794 120.245 147.719 120.042 147.798 119.871C150.875 113.186 157.644 108.542 165.504 108.542C176.273 108.542 185 117.269 185 128.038C185 133.296 182.93 138.08 179.545 141.577C179.414 141.712 179.198 141.716 179.063 141.585C178.928 141.454 178.924 141.238 179.055 141.103C182.321 137.729 184.318 133.114 184.318 128.038C184.318 117.646 175.896 109.224 165.504 109.224Z" fill="#3A3A3A"/>
<path opacity="0.3" fill-rule="evenodd" clip-rule="evenodd" d="M75.2157 117.024C68.7365 113.946 60.7734 114.729 54.9431 119.669L54.9429 119.669C49.1674 124.554 47.0882 132.192 49.0049 139.05C49.0556 139.231 48.9497 139.419 48.7684 139.47C48.587 139.52 48.3989 139.414 48.3482 139.233C46.3625 132.129 48.5155 124.212 54.5025 119.149C60.5446 114.03 68.7959 113.219 75.5082 116.408C75.6783 116.488 75.7507 116.692 75.6699 116.862C75.5891 117.032 75.3858 117.104 75.2157 117.024Z" fill="#3A3A3A"/>
<path fill-rule="evenodd" clip-rule="evenodd" d="M77.0756 102.678C77.064 102.797 76.9896 102.903 76.8787 102.955C76.7577 103.01 76.6154 102.99 76.5143 102.904C76.1814 102.618 75.7631 102.436 75.3071 102.436C74.3137 102.436 73.5044 103.245 73.5044 104.239V104.376C73.5044 104.564 73.3518 104.717 73.1635 104.717H70.8825C70.6942 104.717 70.5415 104.564 70.5415 104.376C70.5415 104.188 70.6942 104.035 70.8825 104.035H72.8308C72.9347 102.76 74.0056 101.754 75.3071 101.754C75.7725 101.754 76.2001 101.889 76.5663 102.105C77.2937 100.423 78.9611 99.2258 80.9135 99.2258C83.5203 99.2258 85.6517 101.357 85.6517 103.964C85.6517 104.095 85.643 104.232 85.6307 104.365H86.4924C86.6807 104.365 86.8334 104.518 86.8334 104.706C86.8334 104.894 86.6807 105.047 86.4924 105.047H85.3107C85.2203 105.047 85.1336 105.011 85.0696 104.947L85.0147 104.892C84.9403 104.818 84.9044 104.713 84.9174 104.609C84.9449 104.389 84.9698 104.16 84.9698 103.964C84.9698 101.734 83.1437 99.9077 80.9135 99.9077C79.1342 99.9077 77.6226 101.075 77.0756 102.678Z" fill="#3A3A3A"/>
<path fill-rule="evenodd" clip-rule="evenodd" d="M160.216 88.9587C160.216 86.4329 162.266 84.4129 164.761 84.4129C166.656 84.4129 168.245 85.5553 168.944 87.1566C169.301 86.9492 169.707 86.8313 170.148 86.8313C171.394 86.8313 172.411 87.7833 172.514 89.0025H174.353C174.541 89.0025 174.694 89.1551 174.694 89.3434C174.694 89.5317 174.541 89.6844 174.353 89.6844H172.182C171.993 89.6844 171.841 89.5317 171.841 89.3434V89.206C171.841 88.2675 171.086 87.5132 170.148 87.5132C169.715 87.5132 169.325 87.6714 168.996 87.9533C168.895 88.04 168.752 88.0599 168.631 88.0042C168.52 87.9532 168.446 87.8472 168.434 87.7272C167.915 86.2076 166.486 85.0948 164.761 85.0948C162.64 85.0948 160.898 86.8124 160.898 88.9587C160.898 89.1537 160.922 89.3524 160.95 89.5759C160.963 89.6803 160.927 89.7849 160.853 89.8593L160.798 89.9143C160.734 89.9782 160.647 90.0141 160.557 90.0141H159.43C159.242 90.0141 159.089 89.8615 159.089 89.6732C159.089 89.4849 159.242 89.3322 159.43 89.3322H160.235C160.224 89.2106 160.216 89.0851 160.216 88.9587Z" fill="#3A3A3A"/>
<g filter="url(#filter9_d_4749_1167)">
<path d="M164.783 41.4099C167.949 38.2438 167.949 33.1106 164.783 29.9445C161.617 26.7784 156.484 26.7784 153.318 29.9445C150.152 33.1106 150.152 38.2438 153.318 41.4099C156.484 44.5759 161.617 44.5759 164.783 41.4099Z" fill="#373737"/>
</g>
<g filter="url(#filter10_d_4749_1167)">
<path d="M154.154 29.212C148.547 24.2377 144.095 21.2696 143.216 22.149C142.309 23.0559 145.634 27.9753 151.103 33.9939C160.117 43.97 171.138 52.9567 172.594 51.5002C174.106 49.9886 164.322 38.1987 154.154 29.212ZM162.893 42.8157C153.082 35.368 144.782 22.946 153.687 29.5692C159.953 34.2138 168.032 43.5852 166.878 44.7395C166.466 45.1517 164.954 44.3822 162.893 42.8157Z" fill="#BBBBBB"/>
</g>
<path opacity="0.3" d="M146.981 25.3643C145.964 26.3811 150.142 32.2074 156.325 38.391C162.509 44.5745 168.335 48.7518 169.352 47.735C171.743 45.344 149.399 22.9459 146.981 25.3643ZM149.977 27.8377C150.719 27.0957 155.116 30.2562 159.788 34.9282C164.46 39.6002 167.62 43.9699 166.878 44.7394C165.092 46.5257 148.19 29.6241 149.977 27.8377Z" fill="url(#paint23_linear_4749_1167)"/>
<g filter="url(#filter11_d_4749_1167)">
<path d="M162.893 42.8158C159.293 40.0951 154.621 35.4231 151.9 31.8229C154.401 27.1509 160.86 25.9966 164.79 29.9266C168.692 33.8291 167.593 40.2875 162.893 42.8158Z" fill="url(#paint24_linear_4749_1167)"/>
</g>
<path opacity="0.3" d="M164.762 41.4417C164.185 41.9913 163.553 42.4585 162.893 42.8158C159.293 40.095 154.621 35.423 151.9 31.8228C152.23 31.1907 152.697 30.6411 153.22 30.0914C152.642 32.345 163.168 42.6509 164.762 41.4417Z" fill="#131313"/>
<path d="M164.597 38.1436C165.219 38.1436 165.724 37.3193 165.724 36.3023C165.724 35.2854 165.219 34.461 164.597 34.461C163.975 34.461 163.47 35.2854 163.47 36.3023C163.47 37.3193 163.975 38.1436 164.597 38.1436Z" fill="#333333"/>
<path d="M161.794 32.5647C162.295 32.5647 162.701 32.0725 162.701 31.4654C162.701 30.8583 162.295 30.3661 161.794 30.3661C161.293 30.3661 160.887 30.8583 160.887 31.4654C160.887 32.0725 161.293 32.5647 161.794 32.5647Z" fill="#333333"/>
<path d="M156.207 31.7057C156.671 31.6305 156.999 31.2659 156.938 30.8913C156.878 30.5168 156.452 30.2741 155.987 30.3493C155.523 30.4245 155.196 30.7891 155.256 31.1636C155.317 31.5382 155.743 31.7809 156.207 31.7057Z" fill="#333333"/>
<path d="M159.223 34.7511C159.972 34.6299 160.497 34.0214 160.395 33.3922C160.293 32.7629 159.604 32.3511 158.854 32.4724C158.105 32.5937 157.581 33.2021 157.682 33.8314C157.784 34.4606 158.474 34.8724 159.223 34.7511Z" fill="#333333"/>
<path d="M85.9156 49.5765C85.9156 58.3434 77.0662 64.3895 68.904 61.1741C66.7603 60.3221 64.919 58.9205 63.5449 57.1067C57.3614 48.9719 63.1052 37.0995 73.466 37.0995C74.8951 37.0995 76.2418 37.3469 77.506 37.7591C82.4253 39.4905 85.9156 44.1625 85.9156 49.5765Z" fill="url(#paint25_linear_4749_1167)"/>
<path opacity="0.5" d="M71.8993 50.7583C71.8993 52.5172 70.4703 53.9463 68.7114 53.9463C68.2167 53.9463 67.7495 53.8363 67.3098 53.6165C66.238 53.0943 65.5234 52.0225 65.5234 50.7583C65.5234 48.9994 66.9525 47.5703 68.7114 47.5703C69.6183 47.5703 70.4703 47.9551 71.0474 48.5872C71.5696 49.1368 71.8993 49.9063 71.8993 50.7583Z" fill="#5B5B5B"/>
<path opacity="0.4" d="M71.899 50.7584C71.899 52.5173 70.4699 53.9464 68.7111 53.9464C68.2164 53.9464 67.7492 53.8364 67.3095 53.6166C66.7873 53.0394 66.4575 52.2974 66.4575 51.4455C66.4575 49.6866 67.8866 48.2575 69.6455 48.2575C70.1402 48.2575 70.6074 48.3674 71.0471 48.5873C71.5692 49.1369 71.899 49.9065 71.899 50.7584Z" fill="#363636"/>
<path opacity="0.5" d="M76.7089 45.3994C76.7089 46.6086 75.747 47.5705 74.5378 47.5705C74.3179 47.5705 74.1256 47.543 73.9332 47.4881C73.0263 47.2407 72.3667 46.3888 72.3667 45.3994C72.3667 44.1902 73.3286 43.2283 74.5378 43.2283C75.1424 43.2283 75.6646 43.4756 76.0493 43.8329C76.4616 44.2451 76.7089 44.7948 76.7089 45.3994Z" fill="#5B5B5B"/>
<path opacity="0.4" d="M76.7082 45.3994C76.7082 46.6087 75.7464 47.5705 74.5371 47.5705C74.3173 47.5705 74.1249 47.5431 73.9325 47.4881C73.5203 47.1034 73.2729 46.5537 73.2729 45.9491C73.2729 44.7399 74.2348 43.778 75.4441 43.778C75.6639 43.778 75.8563 43.8055 76.0487 43.8604C76.4609 44.2452 76.7082 44.7948 76.7082 45.3994Z" fill="#363636"/>
<path opacity="0.5" d="M78.495 54.3036C78.495 55.5128 77.5332 56.4747 76.3239 56.4747C76.214 56.4747 76.0766 56.4747 75.9667 56.4472C74.9223 56.2823 74.1528 55.3754 74.1528 54.3036C74.1528 53.0944 75.1147 52.1325 76.3239 52.1325C76.7637 52.1325 77.1759 52.2699 77.5332 52.4898C78.1103 52.8745 78.495 53.5341 78.495 54.3036Z" fill="#5B5B5B"/>
<path opacity="0.4" d="M78.4947 54.3036C78.4947 55.5129 77.5328 56.4747 76.3235 56.4747C76.2136 56.4747 76.0762 56.4747 75.9663 56.4473C75.3891 56.0625 75.0044 55.4029 75.0044 54.6334C75.0044 53.4242 75.9663 52.4623 77.1755 52.4623C77.2854 52.4623 77.3954 52.4623 77.5328 52.4898C78.1099 52.8745 78.4947 53.5341 78.4947 54.3036Z" fill="#363636"/>
<path opacity="0.5" d="M80.9135 49.3016C80.9135 50.0986 80.2814 50.7307 79.4844 50.7307C79.402 50.7307 79.3195 50.7307 79.2371 50.7032C78.55 50.5933 78.0278 49.9887 78.0278 49.2741C78.0278 48.4772 78.6874 47.8451 79.4569 47.8451C79.7867 47.8451 80.089 47.955 80.3364 48.1474C80.6936 48.4497 80.9135 48.8619 80.9135 49.3016Z" fill="#5B5B5B"/>
<path opacity="0.4" d="M80.9131 49.3018C80.9131 50.0988 80.281 50.7309 79.484 50.7309C79.4016 50.7309 79.3191 50.7309 79.2367 50.7034C78.9069 50.4286 78.687 50.0164 78.687 49.5767C78.687 48.7797 79.3191 48.1476 80.1161 48.1476C80.1985 48.1476 80.281 48.1476 80.3634 48.1751C80.6932 48.4499 80.9131 48.8621 80.9131 49.3018Z" fill="#363636"/>
<path opacity="0.1" d="M85.9154 49.5767C85.9154 58.3436 77.0661 64.3897 68.9038 61.1742C69.0962 61.0093 69.3435 60.8994 69.5634 60.7895C73.8232 58.7008 77.7531 60.4047 79.4296 57.4366C80.1991 56.0625 79.7594 54.2762 80.4739 52.8746C80.8037 52.1875 81.3808 51.6379 81.7106 50.9783C82.8923 48.5598 80.4739 43.3382 80.9411 41.8816C81.1335 41.3045 81.7106 40.9472 82.3152 40.8373C84.5413 43.0908 85.9154 46.1689 85.9154 49.5767Z" fill="#202020"/>
<path opacity="0.1" d="M77.8079 39.6828C77.1208 41.4142 74.2627 40.892 72.9985 40.9195C70.4426 40.947 70.0854 42.2386 69.5632 42.9257C68.7387 43.9975 67.2272 44.4372 65.963 43.9975C67.0623 49.2741 64.7813 48.8069 64.369 50.4833C63.9018 52.4621 67.4196 53.6713 66.76 55.6226C66.3752 56.7493 64.7263 57.0242 63.5171 57.1066C57.3335 48.9718 63.0774 37.0994 73.4382 37.0994C74.8673 37.0994 76.2139 37.3468 77.4781 37.759C77.8629 38.3636 78.0553 39.0782 77.8079 39.6828Z" fill="#4C4C4C"/>
<path opacity="0.3" d="M67.8594 45.1795C68.3451 45.1795 68.7389 44.7858 68.7389 44.3001C68.7389 43.8144 68.3451 43.4206 67.8594 43.4206C67.3737 43.4206 66.98 43.8144 66.98 44.3001C66.98 44.7858 67.3737 45.1795 67.8594 45.1795Z" fill="#5C5C5C"/>
<defs>
<filter id="filter0_d_4749_1167" x="88.6583" y="24.9703" width="25.7614" height="89.6373" filterUnits="userSpaceOnUse" color-interpolation-filters="sRGB">
<feFlood flood-opacity="0" result="BackgroundImageFix"/>
<feColorMatrix in="SourceAlpha" type="matrix" values="0 0 0 0 0 0 0 0 0 0 0 0 0 0 0 0 0 0 127 0" result="hardAlpha"/>
<feOffset dy="4.07"/>
<feGaussianBlur stdDeviation="4.07"/>
<feColorMatrix type="matrix" values="0 0 0 0 0 0 0 0 0 0 0 0 0 0 0 0 0 0 0.27 0"/>
<feBlend mode="normal" in2="BackgroundImageFix" result="effect1_dropShadow_4749_1167"/>
<feBlend mode="normal" in="SourceGraphic" in2="effect1_dropShadow_4749_1167" result="shape"/>
</filter>
<filter id="filter1_d_4749_1167" x="120.455" y="24.9703" width="25.7346" height="89.6373" filterUnits="userSpaceOnUse" color-interpolation-filters="sRGB">
<feFlood flood-opacity="0" result="BackgroundImageFix"/>
<feColorMatrix in="SourceAlpha" type="matrix" values="0 0 0 0 0 0 0 0 0 0 0 0 0 0 0 0 0 0 127 0" result="hardAlpha"/>
<feOffset dy="4.07"/>
<feGaussianBlur stdDeviation="4.07"/>
<feColorMatrix type="matrix" values="0 0 0 0 0 0 0 0 0 0 0 0 0 0 0 0 0 0 0.27 0"/>
<feBlend mode="normal" in2="BackgroundImageFix" result="effect1_dropShadow_4749_1167"/>
<feBlend mode="normal" in="SourceGraphic" in2="effect1_dropShadow_4749_1167" result="shape"/>
</filter>
<filter id="filter2_d_4749_1167" x="82.4743" y="43.0056" width="43.4875" height="68.9637" filterUnits="userSpaceOnUse" color-interpolation-filters="sRGB">
<feFlood flood-opacity="0" result="BackgroundImageFix"/>
<feColorMatrix in="SourceAlpha" type="matrix" values="0 0 0 0 0 0 0 0 0 0 0 0 0 0 0 0 0 0 127 0" result="hardAlpha"/>
<feOffset dy="4.07"/>
<feGaussianBlur stdDeviation="4.07"/>
<feColorMatrix type="matrix" values="0 0 0 0 0 0 0 0 0 0 0 0 0 0 0 0 0 0 0.27 0"/>
<feBlend mode="normal" in2="BackgroundImageFix" result="effect1_dropShadow_4749_1167"/>
<feBlend mode="normal" in="SourceGraphic" in2="effect1_dropShadow_4749_1167" result="shape"/>
</filter>
<filter id="filter3_d_4749_1167" x="109.764" y="43.0057" width="43.4875" height="68.9362" filterUnits="userSpaceOnUse" color-interpolation-filters="sRGB">
<feFlood flood-opacity="0" result="BackgroundImageFix"/>
<feColorMatrix in="SourceAlpha" type="matrix" values="0 0 0 0 0 0 0 0 0 0 0 0 0 0 0 0 0 0 127 0" result="hardAlpha"/>
<feOffset dy="4.07"/>
<feGaussianBlur stdDeviation="4.07"/>
<feColorMatrix type="matrix" values="0 0 0 0 0 0 0 0 0 0 0 0 0 0 0 0 0 0 0.27 0"/>
<feBlend mode="normal" in2="BackgroundImageFix" result="effect1_dropShadow_4749_1167"/>
<feBlend mode="normal" in="SourceGraphic" in2="effect1_dropShadow_4749_1167" result="shape"/>
</filter>
<filter id="filter4_d_4749_1167" x="103.059" y="28.1032" width="29.3889" height="82.8492" filterUnits="userSpaceOnUse" color-interpolation-filters="sRGB">
<feFlood flood-opacity="0" result="BackgroundImageFix"/>
<feColorMatrix in="SourceAlpha" type="matrix" values="0 0 0 0 0 0 0 0 0 0 0 0 0 0 0 0 0 0 127 0" result="hardAlpha"/>
<feOffset dy="4.07"/>
<feGaussianBlur stdDeviation="4.07"/>
<feColorMatrix type="matrix" values="0 0 0 0 0 0 0 0 0 0 0 0 0 0 0 0 0 0 0.27 0"/>
<feBlend mode="normal" in2="BackgroundImageFix" result="effect1_dropShadow_4749_1167"/>
<feBlend mode="normal" in="SourceGraphic" in2="effect1_dropShadow_4749_1167" result="shape"/>
</filter>
<filter id="filter5_d_4749_1167" x="101.08" y="83.3497" width="24.9094" height="28.6471" filterUnits="userSpaceOnUse" color-interpolation-filters="sRGB">
<feFlood flood-opacity="0" result="BackgroundImageFix"/>
<feColorMatrix in="SourceAlpha" type="matrix" values="0 0 0 0 0 0 0 0 0 0 0 0 0 0 0 0 0 0 127 0" result="hardAlpha"/>
<feOffset dy="4.07"/>
<feGaussianBlur stdDeviation="4.07"/>
<feColorMatrix type="matrix" values="0 0 0 0 0 0 0 0 0 0 0 0 0 0 0 0 0 0 0.27 0"/>
<feBlend mode="normal" in2="BackgroundImageFix" result="effect1_dropShadow_4749_1167"/>
<feBlend mode="normal" in="SourceGraphic" in2="effect1_dropShadow_4749_1167" result="shape"/>
</filter>
<filter id="filter6_d_4749_1167" x="109.627" y="83.3497" width="24.9094" height="28.6471" filterUnits="userSpaceOnUse" color-interpolation-filters="sRGB">
<feFlood flood-opacity="0" result="BackgroundImageFix"/>
<feColorMatrix in="SourceAlpha" type="matrix" values="0 0 0 0 0 0 0 0 0 0 0 0 0 0 0 0 0 0 127 0" result="hardAlpha"/>
<feOffset dy="4.07"/>
<feGaussianBlur stdDeviation="4.07"/>
<feColorMatrix type="matrix" values="0 0 0 0 0 0 0 0 0 0 0 0 0 0 0 0 0 0 0.27 0"/>
<feBlend mode="normal" in2="BackgroundImageFix" result="effect1_dropShadow_4749_1167"/>
<feBlend mode="normal" in="SourceGraphic" in2="effect1_dropShadow_4749_1167" result="shape"/>
</filter>
<filter id="filter7_d_4749_1167" x="102.619" y="95.6617" width="30.571" height="19.9352" filterUnits="userSpaceOnUse" color-interpolation-filters="sRGB">
<feFlood flood-opacity="0" result="BackgroundImageFix"/>
<feColorMatrix in="SourceAlpha" type="matrix" values="0 0 0 0 0 0 0 0 0 0 0 0 0 0 0 0 0 0 127 0" result="hardAlpha"/>
<feOffset dy="4.07"/>
<feGaussianBlur stdDeviation="4.07"/>
<feColorMatrix type="matrix" values="0 0 0 0 0 0 0 0 0 0 0 0 0 0 0 0 0 0 0.27 0"/>
<feBlend mode="normal" in2="BackgroundImageFix" result="effect1_dropShadow_4749_1167"/>
<feBlend mode="normal" in="SourceGraphic" in2="effect1_dropShadow_4749_1167" result="shape"/>
</filter>
<filter id="filter8_d_4749_1167" x="108.72" y="80.3266" width="18.0661" height="37.4964" filterUnits="userSpaceOnUse" color-interpolation-filters="sRGB">
<feFlood flood-opacity="0" result="BackgroundImageFix"/>
<feColorMatrix in="SourceAlpha" type="matrix" values="0 0 0 0 0 0 0 0 0 0 0 0 0 0 0 0 0 0 127 0" result="hardAlpha"/>
<feOffset dy="4.07"/>
<feGaussianBlur stdDeviation="4.07"/>
<feColorMatrix type="matrix" values="0 0 0 0 0.397708 0 0 0 0 0.47749 0 0 0 0 0.575 0 0 0 0.27 0"/>
<feBlend mode="normal" in2="BackgroundImageFix" result="effect1_dropShadow_4749_1167"/>
<feBlend mode="normal" in="SourceGraphic" in2="effect1_dropShadow_4749_1167" result="shape"/>
</filter>
<filter id="filter9_d_4749_1167" x="146.133" y="26.8299" width="25.8348" height="25.8345" filterUnits="userSpaceOnUse" color-interpolation-filters="sRGB">
<feFlood flood-opacity="0" result="BackgroundImageFix"/>
<feColorMatrix in="SourceAlpha" type="matrix" values="0 0 0 0 0 0 0 0 0 0 0 0 0 0 0 0 0 0 127 0" result="hardAlpha"/>
<feOffset dy="4.07"/>
<feGaussianBlur stdDeviation="2.405"/>
<feColorMatrix type="matrix" values="0 0 0 0 0 0 0 0 0 0 0 0 0 0 0 0 0 0 0.22 0"/>
<feBlend mode="normal" in2="BackgroundImageFix" result="effect1_dropShadow_4749_1167"/>
<feBlend mode="normal" in="SourceGraphic" in2="effect1_dropShadow_4749_1167" result="shape"/>
</filter>
<filter id="filter10_d_4749_1167" x="134.927" y="17.9254" width="45.9621" height="45.9406" filterUnits="userSpaceOnUse" color-interpolation-filters="sRGB">
<feFlood flood-opacity="0" result="BackgroundImageFix"/>
<feColorMatrix in="SourceAlpha" type="matrix" values="0 0 0 0 0 0 0 0 0 0 0 0 0 0 0 0 0 0 127 0" result="hardAlpha"/>
<feOffset dy="4.07"/>
<feGaussianBlur stdDeviation="4.07"/>
<feColorMatrix type="matrix" values="0 0 0 0 0 0 0 0 0 0 0 0 0 0 0 0 0 0 0.27 0"/>
<feBlend mode="normal" in2="BackgroundImageFix" result="effect1_dropShadow_4749_1167"/>
<feBlend mode="normal" in="SourceGraphic" in2="effect1_dropShadow_4749_1167" result="shape"/>
</filter>
<filter id="filter11_d_4749_1167" x="147.09" y="26.8086" width="24.8837" height="24.8872" filterUnits="userSpaceOnUse" color-interpolation-filters="sRGB">
<feFlood flood-opacity="0" result="BackgroundImageFix"/>
<feColorMatrix in="SourceAlpha" type="matrix" values="0 0 0 0 0 0 0 0 0 0 0 0 0 0 0 0 0 0 127 0" result="hardAlpha"/>
<feOffset dy="4.07"/>
<feGaussianBlur stdDeviation="2.405"/>
<feColorMatrix type="matrix" values="0 0 0 0 0 0 0 0 0 0 0 0 0 0 0 0 0 0 0.22 0"/>
<feBlend mode="normal" in2="BackgroundImageFix" result="effect1_dropShadow_4749_1167"/>
<feBlend mode="normal" in="SourceGraphic" in2="effect1_dropShadow_4749_1167" result="shape"/>
</filter>
<linearGradient id="paint0_linear_4749_1167" x1="117.569" y1="17.391" x2="117.569" y2="134.089" gradientUnits="userSpaceOnUse">
<stop stop-color="#565656"/>
<stop offset="0.9964" stop-color="#3F3F3F"/>
</linearGradient>
<linearGradient id="paint1_linear_4749_1167" x1="96.7898" y1="64.3341" x2="104.802" y2="64.5046" gradientUnits="userSpaceOnUse">
<stop stop-color="#585858"/>
<stop offset="0.9964" stop-color="#2F2F2F"/>
</linearGradient>
<linearGradient id="paint2_linear_4749_1167" x1="107.137" y1="64.5181" x2="103.941" y2="64.5181" gradientUnits="userSpaceOnUse">
<stop stop-color="#1D1D1D"/>
<stop offset="1" stop-color="#363636" stop-opacity="0"/>
</linearGradient>
<linearGradient id="paint3_linear_4749_1167" x1="114.178" y1="31.7734" x2="128.498" y2="32.6258" gradientUnits="userSpaceOnUse">
<stop stop-color="#474747"/>
<stop offset="1" stop-color="#282828"/>
</linearGradient>
<linearGradient id="paint4_linear_4749_1167" x1="130.544" y1="54.617" x2="123.043" y2="54.617" gradientUnits="userSpaceOnUse">
<stop stop-color="#1D1D1D"/>
<stop offset="1" stop-color="#363636" stop-opacity="0"/>
</linearGradient>
<linearGradient id="paint5_linear_4749_1167" x1="123.554" y1="35.8648" x2="103.097" y2="28.5344" gradientUnits="userSpaceOnUse">
<stop stop-color="white"/>
<stop offset="1" stop-color="white" stop-opacity="0"/>
</linearGradient>
<linearGradient id="paint6_linear_4749_1167" x1="128.587" y1="64.3341" x2="136.576" y2="64.5036" gradientUnits="userSpaceOnUse">
<stop stop-color="#585858"/>
<stop offset="0.9964" stop-color="#2F2F2F"/>
</linearGradient>
<linearGradient id="paint7_linear_4749_1167" x1="138.934" y1="64.5181" x2="135.738" y2="64.5181" gradientUnits="userSpaceOnUse">
<stop stop-color="#1D1D1D"/>
<stop offset="1" stop-color="#363636" stop-opacity="0"/>
</linearGradient>
<linearGradient id="paint8_linear_4749_1167" x1="101.607" y1="47.5703" x2="101.607" y2="93.8754" gradientUnits="userSpaceOnUse">
<stop stop-color="#363636"/>
<stop offset="1" stop-color="#1D1D1D"/>
</linearGradient>
<linearGradient id="paint9_linear_4749_1167" x1="111.962" y1="73.8811" x2="109.405" y2="73.8811" gradientUnits="userSpaceOnUse">
<stop stop-color="#606060" stop-opacity="0.27"/>
<stop offset="1" stop-color="#858585" stop-opacity="0"/>
</linearGradient>
<linearGradient id="paint10_linear_4749_1167" x1="130.779" y1="82.7203" x2="130.779" y2="84.754" gradientUnits="userSpaceOnUse">
<stop stop-color="#363636"/>
<stop offset="1" stop-color="#1D1D1D"/>
</linearGradient>
<linearGradient id="paint11_linear_4749_1167" x1="134.119" y1="47.5703" x2="134.119" y2="93.8754" gradientUnits="userSpaceOnUse">
<stop stop-color="#363636"/>
<stop offset="1" stop-color="#1D1D1D"/>
</linearGradient>
<linearGradient id="paint12_linear_4749_1167" x1="123.724" y1="76.097" x2="127.816" y2="76.097" gradientUnits="userSpaceOnUse">
<stop stop-color="#535353" stop-opacity="0.38"/>
<stop offset="1" stop-color="#9E9E9E" stop-opacity="0"/>
</linearGradient>
<linearGradient id="paint13_linear_4749_1167" x1="126.11" y1="62.9672" x2="121" y2="62.8442" gradientUnits="userSpaceOnUse">
<stop stop-color="#494949"/>
<stop offset="1" stop-color="#777777" stop-opacity="0"/>
</linearGradient>
<linearGradient id="paint14_linear_4749_1167" x1="117.767" y1="32.1732" x2="117.767" y2="38.9133" gradientUnits="userSpaceOnUse">
<stop stop-color="#363636"/>
<stop offset="1" stop-color="#1D1D1D"/>
</linearGradient>
<linearGradient id="paint15_linear_4749_1167" x1="117.739" y1="42.4311" x2="117.739" y2="44.985" gradientUnits="userSpaceOnUse">
<stop stop-color="#363636"/>
<stop offset="1" stop-color="#1D1D1D"/>
</linearGradient>
<linearGradient id="paint16_linear_4749_1167" x1="113.532" y1="87.1336" x2="113.532" y2="99.9201" gradientUnits="userSpaceOnUse">
<stop stop-color="#9C9C9C"/>
<stop offset="0.42069" stop-color="#9C9C9C"/>
<stop offset="0.9964" stop-color="#9C9C9C"/>
</linearGradient>
<linearGradient id="paint17_linear_4749_1167" x1="119.475" y1="93.4854" x2="114.512" y2="93.4853" gradientUnits="userSpaceOnUse">
<stop stop-color="#515151"/>
<stop offset="1" stop-color="#9C9C9C"/>
</linearGradient>
<linearGradient id="paint18_linear_4749_1167" x1="122.079" y1="87.1336" x2="122.079" y2="99.9201" gradientUnits="userSpaceOnUse">
<stop stop-color="#9C9C9C"/>
<stop offset="0.9964" stop-color="#9C9C9C"/>
</linearGradient>
<linearGradient id="paint19_linear_4749_1167" x1="127.986" y1="93.4854" x2="123.213" y2="93.4853" gradientUnits="userSpaceOnUse">
<stop stop-color="#515151"/>
<stop offset="1" stop-color="#9C9C9C"/>
</linearGradient>
<linearGradient id="paint20_linear_4749_1167" x1="118.61" y1="96.0424" x2="120.664" y2="95.9857" gradientUnits="userSpaceOnUse">
<stop stop-color="#626262"/>
<stop offset="1" stop-color="#A7A7A7" stop-opacity="0"/>
</linearGradient>
<linearGradient id="paint21_linear_4749_1167" x1="116.585" y1="50.4836" x2="116.585" y2="52.1875" gradientUnits="userSpaceOnUse">
<stop stop-color="#363636"/>
<stop offset="1" stop-color="#1D1D1D"/>
</linearGradient>
<linearGradient id="paint22_linear_4749_1167" x1="119.141" y1="50.4836" x2="119.141" y2="52.1875" gradientUnits="userSpaceOnUse">
<stop stop-color="#363636"/>
<stop offset="1" stop-color="#1D1D1D"/>
</linearGradient>
<linearGradient id="paint23_linear_4749_1167" x1="158.172" y1="24.6568" x2="158.172" y2="48.1322" gradientUnits="userSpaceOnUse">
<stop stop-color="#636363"/>
<stop offset="0.9964" stop-color="#626262"/>
</linearGradient>
<linearGradient id="paint24_linear_4749_1167" x1="163.776" y1="28.5256" x2="156.786" y2="42.8455" gradientUnits="userSpaceOnUse">
<stop stop-color="#6D6D6D"/>
<stop offset="1" stop-color="#3C3C3C"/>
</linearGradient>
<linearGradient id="paint25_linear_4749_1167" x1="73.4472" y1="36.5224" x2="73.4472" y2="62.3181" gradientUnits="userSpaceOnUse">
<stop stop-color="#CFCFCF"/>
<stop offset="0.9964" stop-color="#5D5D5D"/>
</linearGradient>
</defs>
</svg>
