<svg width="230" height="160" viewBox="0 0 230 160" fill="none" xmlns="http://www.w3.org/2000/svg">
<g filter="url(#filter0_dd_7647_1812)">
<path d="M172.208 107.338L171.549 109.226L53.3767 67.9982L54.036 66.1099L172.208 107.338Z" fill="url(#paint0_linear_7647_1812)"/>
</g>
<g filter="url(#filter1_dd_7647_1812)">
<path d="M174.193 102.724C175.685 102.004 177.478 102.629 178.199 104.121L180.602 109.1C181.322 110.592 180.696 112.386 179.204 113.106L174.226 115.509C172.734 116.229 170.94 115.604 170.22 114.112L167.817 109.133C167.096 107.641 167.722 105.847 169.214 105.127L174.193 102.724ZM54.4521 61.6974C55.9442 60.9772 57.7377 61.6029 58.4579 63.095L60.8611 68.0736C61.5814 69.5657 60.9557 71.3592 59.4636 72.0795L54.4849 74.4827C52.9929 75.2028 51.1993 74.5772 50.4791 73.0851L48.0759 68.1065C47.3557 66.6144 47.9815 64.821 49.4734 64.1006L54.4521 61.6974Z" fill="url(#paint1_linear_7647_1812)"/>
<path d="M177.748 104.339C177.148 103.095 175.654 102.574 174.41 103.174L169.432 105.577C168.188 106.178 167.667 107.672 168.267 108.916L170.67 113.894C171.27 115.138 172.765 115.659 174.008 115.059L178.987 112.656C180.23 112.055 180.752 110.561 180.152 109.317L177.748 104.339ZM58.0078 63.3124C57.4076 62.0689 55.913 61.5475 54.6696 62.1477L49.691 64.5509C48.4476 65.1512 47.9262 66.6458 48.5263 67.8892L50.9295 72.8678C51.5297 74.1111 53.0243 74.6325 54.2678 74.0324L59.2464 71.6292C60.4898 71.029 61.0112 69.5344 60.411 68.291L58.0078 63.3124ZM181.052 108.883C181.893 110.623 181.163 112.716 179.422 113.556L174.443 115.959C172.702 116.8 170.61 116.07 169.77 114.329L167.366 109.35C166.526 107.61 167.256 105.517 168.997 104.677L173.976 102.274C175.716 101.433 177.809 102.163 178.649 103.904L181.052 108.883ZM61.3116 67.8563C62.1519 69.5971 61.4219 71.6895 59.6811 72.5298L54.7025 74.933C52.9617 75.7731 50.8693 75.0433 50.029 73.3025L47.6257 68.3239C46.7855 66.5831 47.5156 64.4907 49.2562 63.6504L54.2349 61.2471C55.9757 60.4068 58.0681 61.1369 58.9084 62.8776L61.3116 67.8563Z" fill="url(#paint2_linear_7647_1812)"/>
</g>
<g filter="url(#filter2_dd_7647_1812)">
<path d="M127.308 68.974C127.328 68.9805 127.343 68.9968 127.347 69.017C127.922 71.5314 128.374 74.0459 128.826 76.5603C129.239 78.9226 129.28 78.9226 127.01 79.6558C126.266 79.9001 126.019 80.226 125.895 80.9999C125.565 83.8102 125.317 86.7021 124.532 89.431C123.377 93.2597 123.17 97.2512 122.138 101.08C121.89 101.935 121.684 102.791 121.354 103.605C119.95 106.904 120.569 110.326 120.569 113.706C120.569 114.114 120.404 114.439 120.321 114.806C119.785 117.046 119.62 119.286 120.569 121.486C120.776 121.974 120.734 122.463 120.776 122.952C120.817 123.359 120.776 123.726 121.354 123.848C121.643 123.93 121.849 124.215 121.808 124.54C121.725 125.274 122.097 125.599 122.799 125.681C122.853 125.681 122.907 125.69 122.957 125.712C124.241 126.288 125.22 129.287 124.491 130.406C124.388 130.541 124.285 130.732 124.183 130.817C124.145 130.848 124.095 130.858 124.047 130.867C122.437 131.186 121.368 132.766 119.578 132.605C118.505 132.524 117.39 132.564 116.276 132.442C115.285 132.361 115.037 131.75 115.078 130.976C115.078 130.609 115.243 130.283 115.367 129.958C116.276 127.921 116.028 125.844 115.656 123.726C115.45 122.667 115.243 121.608 114.913 120.59C114.831 120.305 114.707 120.019 114.542 119.816C114.129 119.368 113.757 119.083 113.303 119.938C112.395 121.73 111.115 123.359 110.454 125.233C109.959 126.658 108.886 128.043 109.298 129.754C109.546 130.691 110.248 132.809 110.908 133.623C111.197 134.031 111.486 134.438 111.652 134.886C111.858 135.497 111.817 136.026 111.032 136.434C109.257 137.33 107.441 136.963 105.665 136.678C104.509 136.515 103.353 136.149 102.156 136.026C101.454 135.945 101.165 135.538 101.165 134.927C101.165 134.194 101.165 133.42 101.619 132.768C102.032 132.157 101.95 131.383 102.074 130.65C102.321 129.55 102.858 128.654 103.766 127.962C103.89 127.88 104.055 127.758 104.096 127.595C104.674 124.785 106.45 122.3 106.574 119.327C106.656 116.965 106.945 114.562 107.812 112.403C109.133 109.063 108.473 105.845 107.647 102.587C105.913 96.0293 104.055 89.4717 102.28 82.9142C102.074 82.1403 102.197 81.285 101 81.1221C100.711 81.0813 100.174 80.3482 99.8854 79.8594C99.5965 79.3707 99.7203 78.7597 99.8854 78.2302C100.221 77.185 100.396 76.1239 100.408 75.0169C100.417 74.1841 99.4604 73.9483 99.3531 74.7743C99.3516 74.7858 99.3501 74.7973 99.3487 74.8089C99.1423 76.601 98.7295 78.3524 98.0276 80.0631C97.7386 80.7962 97.3258 81.6108 98.5643 82.0181C98.8946 82.1403 98.9359 82.5476 98.9359 82.8735C98.8533 84.4212 99.1423 85.9689 98.812 87.476C98.6056 88.4128 98.812 89.3903 99.1423 90.2864C99.4726 91.1824 99.6377 92.0378 99.6377 92.9745C99.6377 96.5181 100.67 99.8987 100.918 103.401C101 104.338 101.041 105.234 100.752 106.212C100.422 107.189 101 108.208 101.083 109.226C101.207 110.448 100.918 110.774 99.679 110.937C97.6974 111.14 96.0872 110.163 94.3533 109.511C93.2386 109.104 92.1652 108.533 91.0505 108.126C90.4725 107.923 90.2661 107.597 90.3899 106.986C90.5138 106.334 90.5551 105.682 90.5964 105.031C90.5964 104.536 90.7764 103.971 90.1611 103.699C90.0689 103.658 89.9571 103.64 89.9072 103.552C89.8435 103.44 89.798 103.251 89.7707 103.116C89.6468 102.383 89.6881 101.65 89.1514 101.039C88.9037 100.754 89.1514 100.387 89.2752 100.021C89.523 99.247 89.8532 98.3509 88.8211 97.7807C88.4083 97.5363 88.2844 97.0476 88.2844 96.681C88.2844 94.4001 88.078 92.0785 88.4083 89.7976C88.5321 88.8608 88.9863 88.1276 89.8945 87.7611C90.2661 87.6389 90.4725 87.3538 90.6376 86.9872C90.8441 86.5799 91.0092 86.1319 91.2982 85.7653C92.6397 84.2413 92.6203 82.4804 92.304 80.6381C92.2942 80.5807 92.2906 80.5222 92.2798 80.465C92.2526 80.3214 92.1794 80.1643 92.2478 80.0631C93.1147 78.5968 92.6606 76.8454 93.3212 75.2976C93.9404 73.9535 93.8991 72.365 94.0643 70.858C94.312 68.3328 95.468 66.0111 95.9634 63.5266C96.8304 59.2906 97.7799 55.1362 98.4818 50.8595C98.7295 49.3525 99.1423 47.8454 99.8029 46.4199C100.587 44.7499 101.785 43.6095 103.56 42.9985C104.633 42.632 105.748 42.4691 106.656 41.6137C107.11 41.1657 108.101 41.3286 108.844 41.1657C109.794 40.962 109.546 40.0252 109.835 39.455C110.165 38.8441 109.505 38.9255 109.257 38.8033C107.688 37.948 107.069 36.6854 107.152 34.9747C107.152 34.4045 107.152 33.7528 106.904 33.2233C106.326 32.0421 106.532 30.9017 106.986 29.8019C107.441 28.7022 107.523 27.5211 107.977 26.4213C108.803 24.2626 110.496 23.0407 112.973 23C114.996 23 117.101 23 118.711 24.1404C120.115 25.1587 121.395 26.5435 121.519 28.4986C121.766 31.8792 120.982 35.0969 119.785 38.2738C119.62 38.7219 119.372 39.007 119 39.2514C118.34 39.6587 118.216 40.3918 118.092 41.0435C118.051 41.4508 118.133 42.021 118.918 42.0618C120.569 42.2247 122.221 42.4691 123.748 43.2022C124.698 43.6502 125.399 44.2612 125.854 45.198C127.588 48.8637 129.115 52.6109 129.858 56.6024C130.065 57.6614 130.56 58.639 131.055 59.6165C132.872 63.0378 134.689 66.4592 136.381 69.962C137.248 71.7948 138.074 73.6684 138.982 75.5013C139.189 75.9493 139.354 76.3973 139.849 76.6417C140.138 76.7639 140.221 77.0898 140.221 77.4156C140.221 78.0266 140.221 78.6782 140.179 79.2892C140.179 79.9001 139.932 80.4296 139.395 80.7962C138.941 81.122 138.693 81.6515 138.322 82.0588C138.033 82.3847 137.62 82.6698 137.166 82.4254C136.753 82.181 137.166 81.8145 137.248 81.5294C137.661 80.1038 137.578 79.9409 136.216 79.2485C135.721 79.0041 135.184 78.6782 135.019 78.108C134.771 77.1712 134.152 76.4788 133.533 75.8271C131.551 73.7091 129.611 71.5097 127.753 69.2695C127.66 69.1482 127.591 69.0043 127.528 68.8715C127.496 68.8063 127.409 68.7903 127.351 68.8334C127.331 68.8488 127.31 68.8639 127.289 68.8801C127.254 68.9074 127.266 68.9602 127.308 68.974Z" fill="#4D4D4D" shape-rendering="crispEdges"/>
<path d="M99.1378 92.9748C99.1378 92.1021 98.9847 91.3048 98.6729 90.4591C98.3293 89.5268 98.0872 88.4422 98.3233 87.3693L98.3741 87.1085C98.4778 86.498 98.4847 85.8682 98.4669 85.2033C98.4472 84.4692 98.3955 83.6652 98.4356 82.8732C98.4356 82.7213 98.4244 82.6037 98.3985 82.5245C98.393 82.5076 98.3879 82.4952 98.3839 82.4874C98.3827 82.4852 98.3808 82.484 98.38 82.4825C98.0334 82.365 97.749 82.2036 97.546 81.9786C97.3285 81.7375 97.2361 81.4602 97.2237 81.1857C97.2121 80.9256 97.2725 80.6757 97.3399 80.4669C97.4064 80.2612 97.4971 80.0461 97.5626 79.88L97.5655 79.8732C98.2475 78.2108 98.6497 76.5049 98.8517 74.7521L98.8526 74.7501C98.8542 74.7368 98.8558 74.7233 98.8575 74.7101C98.8968 74.4076 99.0247 74.1326 99.2589 73.9513C99.495 73.7686 99.7827 73.726 100.04 73.7872C100.554 73.9095 100.915 74.4107 100.908 75.0226C100.895 76.1798 100.712 77.2905 100.361 78.3829C100.195 78.9166 100.15 79.3246 100.316 79.6046C100.449 79.8311 100.642 80.1145 100.828 80.34C100.922 80.4534 101.005 80.5412 101.07 80.5978C101.095 80.6192 101.113 80.6303 101.123 80.6368C101.456 80.6887 101.739 80.7904 101.969 80.9562C102.215 81.1338 102.369 81.3588 102.47 81.589C102.566 81.8099 102.616 82.0426 102.652 82.2384C102.692 82.4499 102.718 82.6145 102.763 82.7833L104.106 87.6984C105.233 91.7965 106.373 95.9 107.475 100L108.131 102.459L108.132 102.464C108.957 105.721 109.663 109.083 108.277 112.587L108.276 112.589C107.441 114.669 107.155 117.005 107.073 119.345V119.348C107.008 120.924 106.505 122.356 105.971 123.706C105.428 125.079 104.864 126.346 104.586 127.697L104.584 127.707L104.581 127.718C104.529 127.922 104.409 128.071 104.314 128.165C104.226 128.252 104.131 128.318 104.063 128.363C103.262 128.976 102.788 129.762 102.564 130.749C102.538 130.906 102.522 131.07 102.507 131.248C102.491 131.426 102.476 131.625 102.451 131.819C102.401 132.209 102.304 132.647 102.033 133.048L102.029 133.054C101.679 133.556 101.665 134.166 101.665 134.927C101.665 135.158 101.719 135.282 101.778 135.352C101.834 135.417 101.95 135.499 102.214 135.53C102.841 135.594 103.452 135.722 104.033 135.849C104.477 135.946 104.9 136.042 105.318 136.116L105.735 136.183L105.744 136.185C107.564 136.477 109.204 136.796 110.807 135.988C111.119 135.824 111.207 135.679 111.237 135.585C111.272 135.475 111.268 135.312 111.178 135.046C111.039 134.677 110.794 134.327 110.501 133.913C110.124 133.436 109.766 132.65 109.482 131.915C109.187 131.149 108.944 130.368 108.815 129.882L108.813 129.871C108.573 128.879 108.772 127.995 109.068 127.21C109.215 126.821 109.39 126.444 109.552 126.092C109.716 125.733 109.868 125.399 109.982 125.069V125.067C110.33 124.081 110.837 123.17 111.357 122.299C111.883 121.415 112.414 120.588 112.857 119.712L112.861 119.703L112.956 119.538C113.19 119.159 113.518 118.843 113.988 118.891C114.22 118.914 114.407 119.026 114.541 119.128C114.677 119.232 114.803 119.361 114.909 119.477L114.92 119.488L114.93 119.501C115.15 119.773 115.297 120.122 115.389 120.436L115.511 120.831C115.705 121.494 115.855 122.167 115.99 122.834L116.148 123.63L116.148 123.64C116.519 125.751 116.797 127.956 115.835 130.135L115.65 130.612C115.605 130.741 115.578 130.852 115.578 130.976V130.989L115.577 131.003C115.559 131.344 115.613 131.558 115.7 131.684C115.772 131.787 115.924 131.911 116.316 131.944L116.33 131.946C116.865 132.004 117.405 132.024 117.956 132.039C118.365 132.051 118.784 132.059 119.2 132.08L119.616 132.107L119.623 132.108C120.35 132.173 120.946 131.893 121.623 131.488C122.253 131.11 123.004 130.581 123.894 130.389C123.902 130.377 123.913 130.365 123.924 130.349C123.949 130.312 123.968 130.282 123.999 130.237C124.021 130.204 124.045 130.168 124.072 130.131C124.176 129.971 124.248 129.691 124.239 129.292C124.231 128.903 124.149 128.454 124.004 128.011C123.859 127.568 123.658 127.149 123.429 126.815C123.203 126.487 122.975 126.278 122.776 126.181H122.77L122.741 126.178C122.339 126.131 121.93 126.005 121.643 125.696C121.341 125.371 121.259 124.941 121.311 124.485L121.312 124.478C121.321 124.406 121.276 124.346 121.218 124.329C121.037 124.288 120.87 124.221 120.728 124.115C120.571 123.999 120.468 123.855 120.403 123.702C120.342 123.559 120.319 123.416 120.306 123.305C120.296 123.225 120.283 123.052 120.278 123.002L120.277 122.994C120.266 122.86 120.26 122.727 120.255 122.607C120.25 122.483 120.246 122.371 120.236 122.261C120.218 122.044 120.183 121.858 120.108 121.681C119.099 119.34 119.288 116.975 119.835 114.69C119.88 114.491 119.957 114.267 119.996 114.132C120.042 113.973 120.069 113.841 120.069 113.706C120.069 112.874 120.031 112.038 119.995 111.187C119.959 110.34 119.924 109.48 119.935 108.619C119.956 106.896 120.156 105.143 120.894 103.409C121.209 102.629 121.402 101.822 121.657 100.941C122.164 99.0582 122.47 97.1337 122.796 95.174C123.121 93.2204 123.465 91.2351 124.054 89.2863C124.822 86.6093 125.066 83.7738 125.398 80.9415L125.399 80.9308L125.401 80.921C125.468 80.5024 125.58 80.1238 125.833 79.8136C126.089 79.4994 126.44 79.3168 126.854 79.1808L126.855 79.1798C127.434 78.993 127.826 78.865 128.104 78.7394C128.377 78.6152 128.457 78.5283 128.49 78.4708C128.525 78.4098 128.561 78.2888 128.537 77.9757C128.513 77.6628 128.439 77.251 128.334 76.6485C127.889 74.1757 127.445 71.716 126.888 69.2579C126.719 69.0389 126.704 68.7032 126.981 68.4864L127.054 68.4317L127.165 68.3673C127.422 68.2524 127.764 68.3075 127.941 68.587L127.979 68.6563L128.068 68.836C128.095 68.8845 128.12 68.9253 128.147 68.961C129.994 71.1886 131.924 73.376 133.895 75.4825C134.508 76.1284 135.213 76.9006 135.499 77.9689C135.585 78.2656 135.854 78.4896 136.257 78.7071L136.438 78.7999L136.442 78.8028C136.781 78.9748 137.071 79.1295 137.297 79.2872C137.526 79.4475 137.731 79.6397 137.853 79.9064C137.975 80.1757 137.984 80.4559 137.948 80.7325C137.914 81.0021 137.831 81.3137 137.729 81.6681C137.689 81.8035 137.618 81.9297 137.578 82.0001C137.577 82.0022 137.575 82.004 137.574 82.006C137.587 82.0024 137.6 81.9998 137.613 81.9943C137.71 81.954 137.827 81.8636 137.947 81.7277L137.952 81.7218C138.114 81.5439 138.239 81.3526 138.425 81.1007C138.597 80.8677 138.81 80.6003 139.104 80.3898L139.113 80.3829C139.503 80.1165 139.68 79.7476 139.68 79.2892V79.2726L139.681 79.256C139.721 78.665 139.721 78.0303 139.721 77.4161C139.721 77.2888 139.704 77.1978 139.682 77.1437C139.672 77.1195 139.663 77.1093 139.66 77.1066C139.659 77.1053 139.659 77.1045 139.654 77.1026L139.641 77.0968L139.628 77.09C138.948 76.7546 138.714 76.1172 138.534 75.7237L137.864 74.337C137.205 72.9449 136.574 71.5385 135.931 70.1788C134.243 66.6862 132.431 63.2731 130.614 59.8507L130.609 59.8428C130.12 58.877 129.589 57.8373 129.367 56.6983L129.366 56.6944C128.635 52.7676 127.13 49.0674 125.403 45.4161C125.008 44.6015 124.402 44.0636 123.535 43.6543L123.531 43.6534C122.088 42.9607 120.512 42.7217 118.869 42.5596C118.352 42.527 117.971 42.3063 117.761 41.9385C117.571 41.6059 117.57 41.2358 117.595 40.9932L117.597 40.9717L117.601 40.9502C117.714 40.3536 117.857 39.3782 118.726 38.834L118.829 38.7608C119.059 38.5892 119.206 38.3969 119.315 38.1006L119.316 38.0977C120.501 34.9548 121.261 31.8144 121.021 28.5352L121.02 28.5303C120.91 26.7999 119.78 25.534 118.422 24.5479C116.967 23.5177 115.04 23.5 112.98 23.5C111.824 23.5192 110.882 23.8125 110.141 24.3272C109.4 24.8417 108.827 25.5995 108.444 26.5996L108.44 26.6123C108.23 27.1189 108.104 27.6502 107.969 28.2266C107.836 28.7905 107.693 29.4002 107.448 29.9932C107.047 30.9661 106.886 31.8844 107.269 32.8164L107.353 33.0039L107.357 33.0117C107.66 33.6604 107.651 34.431 107.651 34.9746V34.999C107.613 35.7883 107.739 36.4361 108.026 36.9737C108.311 37.5046 108.774 37.9664 109.48 38.3545C109.489 38.3567 109.521 38.3643 109.601 38.3809C109.68 38.3975 109.833 38.4286 109.972 38.4922C110.12 38.5606 110.336 38.7063 110.405 38.9951C110.467 39.249 110.381 39.4895 110.28 39.6797L110.281 39.6807C110.244 39.7553 110.215 39.8606 110.184 40.0264C110.157 40.1693 110.123 40.3895 110.068 40.583C110.011 40.788 109.916 41.0251 109.728 41.2305C109.534 41.4424 109.274 41.5837 108.95 41.6534L108.951 41.6543C108.54 41.7444 108.016 41.7517 107.687 41.7813C107.283 41.8175 107.094 41.8842 107.007 41.9698L106.999 41.9776C106.479 42.4674 105.906 42.752 105.343 42.959C105.063 43.0617 104.781 43.1474 104.512 43.2276C104.238 43.309 103.978 43.3832 103.722 43.4707C102.083 44.0348 100.987 45.077 100.256 46.6329C99.619 48.0081 99.2176 49.4688 98.9757 50.9405C98.2719 55.2288 97.317 59.4031 96.4532 63.6231L96.4542 63.6241C96.1996 64.9009 95.7741 66.1386 95.3976 67.3282C95.0166 68.5319 94.68 69.7009 94.5616 70.9073V70.9122C94.5214 71.279 94.4932 71.6522 94.464 72.0362C94.435 72.417 94.4046 72.8084 94.3595 73.1964C94.2698 73.9669 94.1179 74.7553 93.7804 75.4933C93.4876 76.1794 93.4396 76.9142 93.3595 77.7579C93.2853 78.5389 93.1815 79.4056 92.7345 80.2159C92.7355 80.2199 92.7362 80.2242 92.7374 80.2286C92.7462 80.2619 92.761 80.3159 92.7716 80.3722C92.7805 80.4193 92.7858 80.4641 92.7892 80.4923C92.7931 80.5252 92.7947 80.5403 92.797 80.5538C93.1188 82.4292 93.1701 84.3835 91.6857 86.0812C91.5748 86.2232 91.4804 86.3898 91.3849 86.5831C91.3364 86.6812 91.2902 86.7811 91.2403 86.8878C91.1915 86.9924 91.1397 87.1033 91.0841 87.213C90.9002 87.615 90.6205 88.0365 90.0782 88.2257C89.3723 88.5119 89.0096 89.0681 88.9044 89.8634L88.9034 89.8693C88.58 92.1029 88.7843 94.3397 88.7843 96.6808C88.7843 96.976 88.8883 97.2395 89.0763 97.3507C89.3874 97.5248 89.6247 97.7392 89.7862 97.9972C89.9506 98.2599 90.0169 98.538 90.0275 98.8048C90.0472 99.3052 89.8643 99.8195 89.7511 100.173L89.7491 100.181C89.7119 100.291 89.665 100.402 89.6319 100.484C89.5952 100.574 89.571 100.637 89.5568 100.691C89.5515 100.71 89.5495 100.725 89.548 100.735C89.8772 101.12 90.0244 101.537 90.1056 101.932C90.1462 102.129 90.1715 102.327 90.1935 102.509C90.2156 102.692 90.2343 102.858 90.2618 103.023C90.2739 103.082 90.289 103.146 90.3058 103.203C90.3076 103.209 90.3099 103.215 90.3116 103.221C90.3268 103.227 90.3447 103.233 90.3634 103.241C90.5869 103.34 90.7679 103.48 90.8976 103.664C91.0257 103.846 91.0822 104.041 91.1056 104.215C91.1282 104.384 91.1219 104.549 91.1144 104.681C91.1059 104.828 91.0968 104.926 91.0968 105.03V105.047L91.0958 105.063C91.0548 105.709 91.0116 106.392 90.881 107.079L90.88 107.085C90.8309 107.327 90.8672 107.419 90.8878 107.454C90.9051 107.483 90.9479 107.535 91.0685 107.594L91.2169 107.654L91.2218 107.656C91.7983 107.867 92.3621 108.119 92.9064 108.362C93.4558 108.608 93.9867 108.845 94.5245 109.041L94.5294 109.043L95.1905 109.306C95.4082 109.396 95.6226 109.488 95.8331 109.577C96.2586 109.757 96.6708 109.928 97.087 110.072C97.9115 110.358 98.7279 110.528 99.6143 110.44C100.239 110.357 100.432 110.249 100.507 110.159C100.574 110.078 100.647 109.886 100.585 109.277L100.584 109.267C100.547 108.804 100.403 108.381 100.275 107.814C100.158 107.294 100.069 106.689 100.273 106.07L100.358 105.742C100.525 104.983 100.491 104.257 100.42 103.445L100.419 103.437C100.297 101.716 99.9827 100.025 99.6915 98.2863C99.4022 96.5584 99.1378 94.7915 99.1378 92.9748ZM98.3888 82.4865C98.3898 82.487 98.3905 82.4873 98.3907 82.4874C98.3891 82.4869 98.3875 82.4851 98.3858 82.4845C98.3869 82.4852 98.3878 82.486 98.3888 82.4865ZM140.216 78.3526C140.211 78.6682 140.2 78.9838 140.179 79.2892L140.168 79.5148C140.113 80.0303 139.865 80.4755 139.395 80.7962C138.941 81.122 138.693 81.6515 138.322 82.0588C138.051 82.3644 137.671 82.6341 137.25 82.465L137.166 82.4254C136.753 82.181 137.166 81.8145 137.248 81.5294C137.661 80.1038 137.578 79.9409 136.216 79.2485C135.752 79.0193 135.25 78.7186 135.054 78.212L135.019 78.108C134.833 77.4055 134.438 76.8408 133.991 76.3273L133.533 75.8271C131.551 73.7091 129.611 71.5097 127.753 69.2695C127.66 69.1482 127.591 69.0043 127.528 68.8715C127.496 68.8063 127.409 68.7903 127.351 68.8334C127.331 68.8488 127.31 68.8639 127.289 68.8801C127.263 68.9005 127.263 68.9352 127.282 68.9571L127.333 68.9903C127.34 68.9977 127.345 69.0069 127.347 69.017C127.922 71.5314 128.374 74.0459 128.826 76.5603C129.239 78.9226 129.28 78.9226 127.01 79.6558C126.266 79.9001 126.019 80.226 125.895 80.9999C125.565 83.8102 125.317 86.7021 124.532 89.431C123.377 93.2597 123.17 97.2512 122.138 101.08L121.776 102.358C121.653 102.78 121.519 103.198 121.354 103.605L121.228 103.915C119.988 107.118 120.569 110.431 120.569 113.706L120.562 113.856C120.529 114.196 120.394 114.485 120.321 114.806C119.785 117.046 119.62 119.286 120.569 121.486C120.776 121.974 120.734 122.463 120.776 122.952C120.817 123.359 120.776 123.726 121.354 123.848C121.643 123.93 121.849 124.215 121.808 124.54C121.725 125.274 122.097 125.599 122.799 125.681C122.853 125.681 122.907 125.69 122.957 125.712C124.241 126.288 125.22 129.287 124.491 130.406L124.337 130.63C124.286 130.705 124.234 130.775 124.183 130.817C124.145 130.848 124.095 130.858 124.047 130.867L123.751 130.942C122.3 131.378 121.256 132.756 119.578 132.605C118.505 132.524 117.39 132.564 116.276 132.442C115.285 132.361 115.037 131.75 115.078 130.976C115.078 130.793 115.12 130.619 115.177 130.451L115.367 129.958C116.276 127.921 116.028 125.844 115.656 123.726C115.476 122.799 115.295 121.873 115.031 120.974L114.913 120.59C114.831 120.305 114.707 120.019 114.542 119.816C114.129 119.368 113.757 119.083 113.303 119.938C112.395 121.73 111.115 123.359 110.454 125.233C109.959 126.658 108.886 128.043 109.298 129.754C109.546 130.691 110.248 132.809 110.908 133.623C111.197 134.031 111.486 134.438 111.652 134.886C111.858 135.497 111.817 136.026 111.032 136.434C109.257 137.33 107.441 136.963 105.665 136.678C104.654 136.536 103.643 136.237 102.604 136.083L102.156 136.026C101.542 135.955 101.244 135.635 101.179 135.147L101.165 134.927C101.165 134.194 101.165 133.42 101.619 132.768C101.98 132.234 101.962 131.574 102.035 130.927L102.074 130.65C102.306 129.619 102.792 128.767 103.601 128.094L103.766 127.962C103.89 127.88 104.055 127.758 104.096 127.595C104.674 124.785 106.45 122.3 106.574 119.327C106.656 116.965 106.945 114.562 107.812 112.403C109.133 109.063 108.473 105.845 107.647 102.587C106.347 97.6686 104.977 92.7504 103.624 87.8322L102.28 82.9142C102.086 82.1888 102.183 81.3914 101.21 81.1603L101 81.1221C100.747 81.0863 100.305 80.521 100.005 80.0528L99.8854 79.8594C99.6326 79.4319 99.6959 78.911 99.8263 78.4327L99.8854 78.2302C100.179 77.3156 100.349 76.3889 100.396 75.4298L100.408 75.0169C100.417 74.1841 99.4604 73.9483 99.3531 74.7743L99.3487 74.8089C99.1423 76.601 98.7295 78.3524 98.0276 80.0631C97.7386 80.7962 97.3258 81.6108 98.5643 82.0181C98.8946 82.1403 98.9359 82.5476 98.9359 82.8735C98.8533 84.4212 99.1423 85.9689 98.812 87.476L98.7784 87.6525C98.6323 88.5349 98.8327 89.4464 99.1423 90.2864C99.4726 91.1824 99.6377 92.0378 99.6377 92.9745L99.6495 93.6369C99.7637 96.941 100.685 100.118 100.918 103.401C101 104.338 101.041 105.234 100.752 106.212L100.701 106.396C100.493 107.317 101.005 108.271 101.083 109.226C101.207 110.448 100.918 110.774 99.679 110.937C97.6974 111.14 96.0872 110.163 94.3533 109.511C93.2386 109.104 92.1652 108.533 91.0505 108.126C90.4725 107.923 90.2661 107.597 90.3899 106.986C90.5138 106.334 90.5551 105.682 90.5964 105.031C90.5965 104.567 90.7548 104.041 90.2677 103.753L90.1611 103.699C90.092 103.668 90.012 103.651 89.9552 103.607L89.9072 103.552C89.8435 103.44 89.798 103.251 89.7707 103.116C89.6468 102.383 89.6881 101.65 89.1514 101.039C88.9037 100.754 89.1514 100.387 89.2752 100.021C89.5074 99.2955 89.8121 98.4628 88.9991 97.8918L88.8211 97.7807C88.4083 97.5363 88.2844 97.0476 88.2844 96.681C88.2844 94.4001 88.078 92.0785 88.4083 89.7976C88.5244 88.9193 88.9309 88.2201 89.7296 87.8341L89.8945 87.7611C90.2194 87.6542 90.4182 87.4228 90.5733 87.1212L90.6376 86.9872C90.8441 86.5799 91.0092 86.1319 91.2982 85.7653C92.6397 84.2413 92.6203 82.4804 92.304 80.6381C92.2942 80.5807 92.2906 80.5222 92.2798 80.465C92.2526 80.3214 92.1794 80.1643 92.2478 80.0631C93.0606 78.6883 92.7124 77.0631 93.2101 75.59L93.3212 75.2976C93.9404 73.9535 93.8991 72.365 94.0643 70.858C94.2965 68.4904 95.3273 66.302 95.8634 63.9903L95.9634 63.5266C96.8304 59.2906 97.7799 55.1362 98.4818 50.8595C98.6985 49.5408 99.0416 48.2221 99.5665 46.9581L99.8029 46.4199C100.587 44.7499 101.785 43.6095 103.56 42.9985C104.566 42.6549 105.609 42.4905 106.483 41.7666L106.656 41.6137C107.11 41.1657 108.101 41.3286 108.844 41.1657C109.734 40.9746 109.573 40.1399 109.787 39.5664L109.835 39.455C110.124 38.9203 109.654 38.9165 109.366 38.8418L109.257 38.8033C107.688 37.948 107.069 36.6854 107.152 34.9747C107.152 34.4045 107.152 33.7528 106.904 33.2233C106.326 32.0421 106.532 30.9017 106.986 29.8019C107.441 28.7022 107.523 27.5211 107.977 26.4213C108.803 24.2626 110.496 23.0407 112.973 23C114.996 23 117.101 23 118.711 24.1404C120.115 25.1587 121.395 26.5435 121.519 28.4986C121.766 31.8792 120.982 35.0969 119.785 38.2738C119.62 38.7219 119.372 39.007 119 39.2514C118.34 39.6587 118.216 40.3918 118.092 41.0435C118.051 41.4508 118.133 42.021 118.918 42.0618C120.569 42.2247 122.221 42.4691 123.748 43.2022C124.698 43.6502 125.399 44.2612 125.854 45.198C127.588 48.8637 129.115 52.6109 129.858 56.6024C130.065 57.6614 130.56 58.639 131.055 59.6165C132.872 63.0378 134.689 66.4592 136.381 69.962C137.248 71.7948 138.074 73.6684 138.982 75.5013C139.189 75.9493 139.354 76.3973 139.849 76.6417C140.138 76.7639 140.221 77.0898 140.221 77.4156L140.216 78.3526Z" fill="url(#paint3_linear_7647_1812)" fill-opacity="0.5" shape-rendering="crispEdges"/>
<path d="M99.1378 92.9748C99.1378 92.1021 98.9847 91.3048 98.6729 90.4591C98.3293 89.5268 98.0872 88.4422 98.3233 87.3693L98.3741 87.1085C98.4778 86.498 98.4847 85.8682 98.4669 85.2033C98.4472 84.4692 98.3955 83.6652 98.4356 82.8732C98.4356 82.7213 98.4244 82.6037 98.3985 82.5245C98.393 82.5076 98.3879 82.4952 98.3839 82.4874C98.3827 82.4852 98.3808 82.484 98.38 82.4825C98.0334 82.365 97.749 82.2036 97.546 81.9786C97.3285 81.7375 97.2361 81.4602 97.2237 81.1857C97.2121 80.9256 97.2725 80.6757 97.3399 80.4669C97.4064 80.2612 97.4971 80.0461 97.5626 79.88L97.5655 79.8732C98.2475 78.2108 98.6497 76.5049 98.8517 74.7521L98.8526 74.7501C98.8542 74.7368 98.8558 74.7233 98.8575 74.7101C98.8968 74.4076 99.0247 74.1326 99.2589 73.9513C99.495 73.7686 99.7827 73.726 100.04 73.7872C100.554 73.9095 100.915 74.4107 100.908 75.0226C100.895 76.1798 100.712 77.2905 100.361 78.3829C100.195 78.9166 100.15 79.3246 100.316 79.6046C100.449 79.8311 100.642 80.1145 100.828 80.34C100.922 80.4534 101.005 80.5412 101.07 80.5978C101.095 80.6192 101.113 80.6303 101.123 80.6368C101.456 80.6887 101.739 80.7904 101.969 80.9562C102.215 81.1338 102.369 81.3588 102.47 81.589C102.566 81.8099 102.616 82.0426 102.652 82.2384C102.692 82.4499 102.718 82.6145 102.763 82.7833L104.106 87.6984C105.233 91.7965 106.373 95.9 107.475 100L108.131 102.459L108.132 102.464C108.957 105.721 109.663 109.083 108.277 112.587L108.276 112.589C107.441 114.669 107.155 117.005 107.073 119.345V119.348C107.008 120.924 106.505 122.356 105.971 123.706C105.428 125.079 104.864 126.346 104.586 127.697L104.584 127.707L104.581 127.718C104.529 127.922 104.409 128.071 104.314 128.165C104.226 128.252 104.131 128.318 104.063 128.363C103.262 128.976 102.788 129.762 102.564 130.749C102.538 130.906 102.522 131.07 102.507 131.248C102.491 131.426 102.476 131.625 102.451 131.819C102.401 132.209 102.304 132.647 102.033 133.048L102.029 133.054C101.679 133.556 101.665 134.166 101.665 134.927C101.665 135.158 101.719 135.282 101.778 135.352C101.834 135.417 101.95 135.499 102.214 135.53C102.841 135.594 103.452 135.722 104.033 135.849C104.477 135.946 104.9 136.042 105.318 136.116L105.735 136.183L105.744 136.185C107.564 136.477 109.204 136.796 110.807 135.988C111.119 135.824 111.207 135.679 111.237 135.585C111.272 135.475 111.268 135.312 111.178 135.046C111.039 134.677 110.794 134.327 110.501 133.913C110.124 133.436 109.766 132.65 109.482 131.915C109.187 131.149 108.944 130.368 108.815 129.882L108.813 129.871C108.573 128.879 108.772 127.995 109.068 127.21C109.215 126.821 109.39 126.444 109.552 126.092C109.716 125.733 109.868 125.399 109.982 125.069V125.067C110.33 124.081 110.837 123.17 111.357 122.299C111.883 121.415 112.414 120.588 112.857 119.712L112.861 119.703L112.956 119.538C113.19 119.159 113.518 118.843 113.988 118.891C114.22 118.914 114.407 119.026 114.541 119.128C114.677 119.232 114.803 119.361 114.909 119.477L114.92 119.488L114.93 119.501C115.15 119.773 115.297 120.122 115.389 120.436L115.511 120.831C115.705 121.494 115.855 122.167 115.99 122.834L116.148 123.63L116.148 123.64C116.519 125.751 116.797 127.956 115.835 130.135L115.65 130.612C115.605 130.741 115.578 130.852 115.578 130.976V130.989L115.577 131.003C115.559 131.344 115.613 131.558 115.7 131.684C115.772 131.787 115.924 131.911 116.316 131.944L116.33 131.946C116.865 132.004 117.405 132.024 117.956 132.039C118.365 132.051 118.784 132.059 119.2 132.08L119.616 132.107L119.623 132.108C120.35 132.173 120.946 131.893 121.623 131.488C122.253 131.11 123.004 130.581 123.894 130.389C123.902 130.377 123.913 130.365 123.924 130.349C123.949 130.312 123.968 130.282 123.999 130.237C124.021 130.204 124.045 130.168 124.072 130.131C124.176 129.971 124.248 129.691 124.239 129.292C124.231 128.903 124.149 128.454 124.004 128.011C123.859 127.568 123.658 127.149 123.429 126.815C123.203 126.487 122.975 126.278 122.776 126.181H122.77L122.741 126.178C122.339 126.131 121.93 126.005 121.643 125.696C121.341 125.371 121.259 124.941 121.311 124.485L121.312 124.478C121.321 124.406 121.276 124.346 121.218 124.329C121.037 124.288 120.87 124.221 120.728 124.115C120.571 123.999 120.468 123.855 120.403 123.702C120.342 123.559 120.319 123.416 120.306 123.305C120.296 123.225 120.283 123.052 120.278 123.002L120.277 122.994C120.266 122.86 120.26 122.727 120.255 122.607C120.25 122.483 120.246 122.371 120.236 122.261C120.218 122.044 120.183 121.858 120.108 121.681C119.099 119.34 119.288 116.975 119.835 114.69C119.88 114.491 119.957 114.267 119.996 114.132C120.042 113.973 120.069 113.841 120.069 113.706C120.069 112.874 120.031 112.038 119.995 111.187C119.959 110.34 119.924 109.48 119.935 108.619C119.956 106.896 120.156 105.143 120.894 103.409C121.209 102.629 121.402 101.822 121.657 100.941C122.164 99.0582 122.47 97.1337 122.796 95.174C123.121 93.2204 123.465 91.2351 124.054 89.2863C124.822 86.6093 125.066 83.7738 125.398 80.9415L125.399 80.9308L125.401 80.921C125.468 80.5024 125.58 80.1238 125.833 79.8136C126.089 79.4994 126.44 79.3168 126.854 79.1808L126.855 79.1798C127.434 78.993 127.826 78.865 128.104 78.7394C128.377 78.6152 128.457 78.5283 128.49 78.4708C128.525 78.4098 128.561 78.2888 128.537 77.9757C128.513 77.6628 128.439 77.251 128.334 76.6485C127.889 74.1757 127.445 71.716 126.888 69.2579C126.719 69.0389 126.704 68.7032 126.981 68.4864L127.054 68.4317L127.165 68.3673C127.422 68.2524 127.764 68.3075 127.941 68.587L127.979 68.6563L128.068 68.836C128.095 68.8845 128.12 68.9253 128.147 68.961C129.994 71.1886 131.924 73.376 133.895 75.4825C134.508 76.1284 135.213 76.9006 135.499 77.9689C135.585 78.2656 135.854 78.4896 136.257 78.7071L136.438 78.7999L136.442 78.8028C136.781 78.9748 137.071 79.1295 137.297 79.2872C137.526 79.4475 137.731 79.6397 137.853 79.9064C137.975 80.1757 137.984 80.4559 137.948 80.7325C137.914 81.0021 137.831 81.3137 137.729 81.6681C137.689 81.8035 137.618 81.9297 137.578 82.0001C137.577 82.0022 137.575 82.004 137.574 82.006C137.587 82.0024 137.6 81.9998 137.613 81.9943C137.71 81.954 137.827 81.8636 137.947 81.7277L137.952 81.7218C138.114 81.5439 138.239 81.3526 138.425 81.1007C138.597 80.8677 138.81 80.6003 139.104 80.3898L139.113 80.3829C139.503 80.1165 139.68 79.7476 139.68 79.2892V79.2726L139.681 79.256C139.721 78.665 139.721 78.0303 139.721 77.4161C139.721 77.2888 139.704 77.1978 139.682 77.1437C139.672 77.1195 139.663 77.1093 139.66 77.1066C139.659 77.1053 139.659 77.1045 139.654 77.1026L139.641 77.0968L139.628 77.09C138.948 76.7546 138.714 76.1172 138.534 75.7237L137.864 74.337C137.205 72.9449 136.574 71.5385 135.931 70.1788C134.243 66.6862 132.431 63.2731 130.614 59.8507L130.609 59.8428C130.12 58.877 129.589 57.8373 129.367 56.6983L129.366 56.6944C128.635 52.7676 127.13 49.0674 125.403 45.4161C125.008 44.6015 124.402 44.0636 123.535 43.6543L123.531 43.6534C122.088 42.9607 120.512 42.7217 118.869 42.5596C118.352 42.527 117.971 42.3063 117.761 41.9385C117.571 41.6059 117.57 41.2358 117.595 40.9932L117.597 40.9717L117.601 40.9502C117.714 40.3536 117.857 39.3782 118.726 38.834L118.829 38.7608C119.059 38.5892 119.206 38.3969 119.315 38.1006L119.316 38.0977C120.501 34.9548 121.261 31.8144 121.021 28.5352L121.02 28.5303C120.91 26.7999 119.78 25.534 118.422 24.5479C116.967 23.5177 115.04 23.5 112.98 23.5C111.824 23.5192 110.882 23.8125 110.141 24.3272C109.4 24.8417 108.827 25.5995 108.444 26.5996L108.44 26.6123C108.23 27.1189 108.104 27.6502 107.969 28.2266C107.836 28.7905 107.693 29.4002 107.448 29.9932C107.047 30.9661 106.886 31.8844 107.269 32.8164L107.353 33.0039L107.357 33.0117C107.66 33.6604 107.651 34.431 107.651 34.9746V34.999C107.613 35.7883 107.739 36.4361 108.026 36.9737C108.311 37.5046 108.774 37.9664 109.48 38.3545C109.489 38.3567 109.521 38.3643 109.601 38.3809C109.68 38.3975 109.833 38.4286 109.972 38.4922C110.12 38.5606 110.336 38.7063 110.405 38.9951C110.467 39.249 110.381 39.4895 110.28 39.6797L110.281 39.6807C110.244 39.7553 110.215 39.8606 110.184 40.0264C110.157 40.1693 110.123 40.3895 110.068 40.583C110.011 40.788 109.916 41.0251 109.728 41.2305C109.534 41.4424 109.274 41.5837 108.95 41.6534L108.951 41.6543C108.54 41.7444 108.016 41.7517 107.687 41.7813C107.283 41.8175 107.094 41.8842 107.007 41.9698L106.999 41.9776C106.479 42.4674 105.906 42.752 105.343 42.959C105.063 43.0617 104.781 43.1474 104.512 43.2276C104.238 43.309 103.978 43.3832 103.722 43.4707C102.083 44.0348 100.987 45.077 100.256 46.6329C99.619 48.0081 99.2176 49.4688 98.9757 50.9405C98.2719 55.2288 97.317 59.4031 96.4532 63.6231L96.4542 63.6241C96.1996 64.9009 95.7741 66.1386 95.3976 67.3282C95.0166 68.5319 94.68 69.7009 94.5616 70.9073V70.9122C94.5214 71.279 94.4932 71.6522 94.464 72.0362C94.435 72.417 94.4046 72.8084 94.3595 73.1964C94.2698 73.9669 94.1179 74.7553 93.7804 75.4933C93.4876 76.1794 93.4396 76.9142 93.3595 77.7579C93.2853 78.5389 93.1815 79.4056 92.7345 80.2159C92.7355 80.2199 92.7362 80.2242 92.7374 80.2286C92.7462 80.2619 92.761 80.3159 92.7716 80.3722C92.7805 80.4193 92.7858 80.4641 92.7892 80.4923C92.7931 80.5252 92.7947 80.5403 92.797 80.5538C93.1188 82.4292 93.1701 84.3835 91.6857 86.0812C91.5748 86.2232 91.4804 86.3898 91.3849 86.5831C91.3364 86.6812 91.2902 86.7811 91.2403 86.8878C91.1915 86.9924 91.1397 87.1033 91.0841 87.213C90.9002 87.615 90.6205 88.0365 90.0782 88.2257C89.3723 88.5119 89.0096 89.0681 88.9044 89.8634L88.9034 89.8693C88.58 92.1029 88.7843 94.3397 88.7843 96.6808C88.7843 96.976 88.8883 97.2395 89.0763 97.3507C89.3874 97.5248 89.6247 97.7392 89.7862 97.9972C89.9506 98.2599 90.0169 98.538 90.0275 98.8048C90.0472 99.3052 89.8643 99.8195 89.7511 100.173L89.7491 100.181C89.7119 100.291 89.665 100.402 89.6319 100.484C89.5952 100.574 89.571 100.637 89.5568 100.691C89.5515 100.71 89.5495 100.725 89.548 100.735C89.8772 101.12 90.0244 101.537 90.1056 101.932C90.1462 102.129 90.1715 102.327 90.1935 102.509C90.2156 102.692 90.2343 102.858 90.2618 103.023C90.2739 103.082 90.289 103.146 90.3058 103.203C90.3076 103.209 90.3099 103.215 90.3116 103.221C90.3268 103.227 90.3447 103.233 90.3634 103.241C90.5869 103.34 90.7679 103.48 90.8976 103.664C91.0257 103.846 91.0822 104.041 91.1056 104.215C91.1282 104.384 91.1219 104.549 91.1144 104.681C91.1059 104.828 91.0968 104.926 91.0968 105.03V105.047L91.0958 105.063C91.0548 105.709 91.0116 106.392 90.881 107.079L90.88 107.085C90.8309 107.327 90.8672 107.419 90.8878 107.454C90.9051 107.483 90.9479 107.535 91.0685 107.594L91.2169 107.654L91.2218 107.656C91.7983 107.867 92.3621 108.119 92.9064 108.362C93.4558 108.608 93.9867 108.845 94.5245 109.041L94.5294 109.043L95.1905 109.306C95.4082 109.396 95.6226 109.488 95.8331 109.577C96.2586 109.757 96.6708 109.928 97.087 110.072C97.9115 110.358 98.7279 110.528 99.6143 110.44C100.239 110.357 100.432 110.249 100.507 110.159C100.574 110.078 100.647 109.886 100.585 109.277L100.584 109.267C100.547 108.804 100.403 108.381 100.275 107.814C100.158 107.294 100.069 106.689 100.273 106.07L100.358 105.742C100.525 104.983 100.491 104.257 100.42 103.445L100.419 103.437C100.297 101.716 99.9827 100.025 99.6915 98.2863C99.4022 96.5584 99.1378 94.7915 99.1378 92.9748ZM98.3888 82.4865C98.3898 82.487 98.3905 82.4873 98.3907 82.4874C98.3891 82.4869 98.3875 82.4851 98.3858 82.4845C98.3869 82.4852 98.3878 82.486 98.3888 82.4865ZM140.216 78.3526C140.211 78.6682 140.2 78.9838 140.179 79.2892L140.168 79.5148C140.113 80.0303 139.865 80.4755 139.395 80.7962C138.941 81.122 138.693 81.6515 138.322 82.0588C138.051 82.3644 137.671 82.6341 137.25 82.465L137.166 82.4254C136.753 82.181 137.166 81.8145 137.248 81.5294C137.661 80.1038 137.578 79.9409 136.216 79.2485C135.752 79.0193 135.25 78.7186 135.054 78.212L135.019 78.108C134.833 77.4055 134.438 76.8408 133.991 76.3273L133.533 75.8271C131.551 73.7091 129.611 71.5097 127.753 69.2695C127.66 69.1482 127.591 69.0043 127.528 68.8715C127.496 68.8063 127.409 68.7903 127.351 68.8334C127.331 68.8488 127.31 68.8639 127.289 68.8801C127.263 68.9005 127.263 68.9352 127.282 68.9571L127.333 68.9903C127.34 68.9977 127.345 69.0069 127.347 69.017C127.922 71.5314 128.374 74.0459 128.826 76.5603C129.239 78.9226 129.28 78.9226 127.01 79.6558C126.266 79.9001 126.019 80.226 125.895 80.9999C125.565 83.8102 125.317 86.7021 124.532 89.431C123.377 93.2597 123.17 97.2512 122.138 101.08L121.776 102.358C121.653 102.78 121.519 103.198 121.354 103.605L121.228 103.915C119.988 107.118 120.569 110.431 120.569 113.706L120.562 113.856C120.529 114.196 120.394 114.485 120.321 114.806C119.785 117.046 119.62 119.286 120.569 121.486C120.776 121.974 120.734 122.463 120.776 122.952C120.817 123.359 120.776 123.726 121.354 123.848C121.643 123.93 121.849 124.215 121.808 124.54C121.725 125.274 122.097 125.599 122.799 125.681C122.853 125.681 122.907 125.69 122.957 125.712C124.241 126.288 125.22 129.287 124.491 130.406L124.337 130.63C124.286 130.705 124.234 130.775 124.183 130.817C124.145 130.848 124.095 130.858 124.047 130.867L123.751 130.942C122.3 131.378 121.256 132.756 119.578 132.605C118.505 132.524 117.39 132.564 116.276 132.442C115.285 132.361 115.037 131.75 115.078 130.976C115.078 130.793 115.12 130.619 115.177 130.451L115.367 129.958C116.276 127.921 116.028 125.844 115.656 123.726C115.476 122.799 115.295 121.873 115.031 120.974L114.913 120.59C114.831 120.305 114.707 120.019 114.542 119.816C114.129 119.368 113.757 119.083 113.303 119.938C112.395 121.73 111.115 123.359 110.454 125.233C109.959 126.658 108.886 128.043 109.298 129.754C109.546 130.691 110.248 132.809 110.908 133.623C111.197 134.031 111.486 134.438 111.652 134.886C111.858 135.497 111.817 136.026 111.032 136.434C109.257 137.33 107.441 136.963 105.665 136.678C104.654 136.536 103.643 136.237 102.604 136.083L102.156 136.026C101.542 135.955 101.244 135.635 101.179 135.147L101.165 134.927C101.165 134.194 101.165 133.42 101.619 132.768C101.98 132.234 101.962 131.574 102.035 130.927L102.074 130.65C102.306 129.619 102.792 128.767 103.601 128.094L103.766 127.962C103.89 127.88 104.055 127.758 104.096 127.595C104.674 124.785 106.45 122.3 106.574 119.327C106.656 116.965 106.945 114.562 107.812 112.403C109.133 109.063 108.473 105.845 107.647 102.587C106.347 97.6686 104.977 92.7504 103.624 87.8322L102.28 82.9142C102.086 82.1888 102.183 81.3914 101.21 81.1603L101 81.1221C100.747 81.0863 100.305 80.521 100.005 80.0528L99.8854 79.8594C99.6326 79.4319 99.6959 78.911 99.8263 78.4327L99.8854 78.2302C100.179 77.3156 100.349 76.3889 100.396 75.4298L100.408 75.0169C100.417 74.1841 99.4604 73.9483 99.3531 74.7743L99.3487 74.8089C99.1423 76.601 98.7295 78.3524 98.0276 80.0631C97.7386 80.7962 97.3258 81.6108 98.5643 82.0181C98.8946 82.1403 98.9359 82.5476 98.9359 82.8735C98.8533 84.4212 99.1423 85.9689 98.812 87.476L98.7784 87.6525C98.6323 88.5349 98.8327 89.4464 99.1423 90.2864C99.4726 91.1824 99.6377 92.0378 99.6377 92.9745L99.6495 93.6369C99.7637 96.941 100.685 100.118 100.918 103.401C101 104.338 101.041 105.234 100.752 106.212L100.701 106.396C100.493 107.317 101.005 108.271 101.083 109.226C101.207 110.448 100.918 110.774 99.679 110.937C97.6974 111.14 96.0872 110.163 94.3533 109.511C93.2386 109.104 92.1652 108.533 91.0505 108.126C90.4725 107.923 90.2661 107.597 90.3899 106.986C90.5138 106.334 90.5551 105.682 90.5964 105.031C90.5965 104.567 90.7548 104.041 90.2677 103.753L90.1611 103.699C90.092 103.668 90.012 103.651 89.9552 103.607L89.9072 103.552C89.8435 103.44 89.798 103.251 89.7707 103.116C89.6468 102.383 89.6881 101.65 89.1514 101.039C88.9037 100.754 89.1514 100.387 89.2752 100.021C89.5074 99.2955 89.8121 98.4628 88.9991 97.8918L88.8211 97.7807C88.4083 97.5363 88.2844 97.0476 88.2844 96.681C88.2844 94.4001 88.078 92.0785 88.4083 89.7976C88.5244 88.9193 88.9309 88.2201 89.7296 87.8341L89.8945 87.7611C90.2194 87.6542 90.4182 87.4228 90.5733 87.1212L90.6376 86.9872C90.8441 86.5799 91.0092 86.1319 91.2982 85.7653C92.6397 84.2413 92.6203 82.4804 92.304 80.6381C92.2942 80.5807 92.2906 80.5222 92.2798 80.465C92.2526 80.3214 92.1794 80.1643 92.2478 80.0631C93.0606 78.6883 92.7124 77.0631 93.2101 75.59L93.3212 75.2976C93.9404 73.9535 93.8991 72.365 94.0643 70.858C94.2965 68.4904 95.3273 66.302 95.8634 63.9903L95.9634 63.5266C96.8304 59.2906 97.7799 55.1362 98.4818 50.8595C98.6985 49.5408 99.0416 48.2221 99.5665 46.9581L99.8029 46.4199C100.587 44.7499 101.785 43.6095 103.56 42.9985C104.566 42.6549 105.609 42.4905 106.483 41.7666L106.656 41.6137C107.11 41.1657 108.101 41.3286 108.844 41.1657C109.734 40.9746 109.573 40.1399 109.787 39.5664L109.835 39.455C110.124 38.9203 109.654 38.9165 109.366 38.8418L109.257 38.8033C107.688 37.948 107.069 36.6854 107.152 34.9747C107.152 34.4045 107.152 33.7528 106.904 33.2233C106.326 32.0421 106.532 30.9017 106.986 29.8019C107.441 28.7022 107.523 27.5211 107.977 26.4213C108.803 24.2626 110.496 23.0407 112.973 23C114.996 23 117.101 23 118.711 24.1404C120.115 25.1587 121.395 26.5435 121.519 28.4986C121.766 31.8792 120.982 35.0969 119.785 38.2738C119.62 38.7219 119.372 39.007 119 39.2514C118.34 39.6587 118.216 40.3918 118.092 41.0435C118.051 41.4508 118.133 42.021 118.918 42.0618C120.569 42.2247 122.221 42.4691 123.748 43.2022C124.698 43.6502 125.399 44.2612 125.854 45.198C127.588 48.8637 129.115 52.6109 129.858 56.6024C130.065 57.6614 130.56 58.639 131.055 59.6165C132.872 63.0378 134.689 66.4592 136.381 69.962C137.248 71.7948 138.074 73.6684 138.982 75.5013C139.189 75.9493 139.354 76.3973 139.849 76.6417C140.138 76.7639 140.221 77.0898 140.221 77.4156L140.216 78.3526Z" fill="white" fill-opacity="0.4" shape-rendering="crispEdges"/>
</g>
<defs>
<filter id="filter0_dd_7647_1812" x="39.3767" y="54.1099" width="146.832" height="71.1162" filterUnits="userSpaceOnUse" color-interpolation-filters="sRGB">
<feFlood flood-opacity="0" result="BackgroundImageFix"/>
<feColorMatrix in="SourceAlpha" type="matrix" values="0 0 0 0 0 0 0 0 0 0 0 0 0 0 0 0 0 0 127 0" result="hardAlpha"/>
<feOffset dy="2"/>
<feGaussianBlur stdDeviation="7"/>
<feComposite in2="hardAlpha" operator="out"/>
<feColorMatrix type="matrix" values="0 0 0 0 1 0 0 0 0 0.8 0 0 0 0 0.2 0 0 0 1 0"/>
<feBlend mode="normal" in2="BackgroundImageFix" result="effect1_dropShadow_7647_1812"/>
<feColorMatrix in="SourceAlpha" type="matrix" values="0 0 0 0 0 0 0 0 0 0 0 0 0 0 0 0 0 0 127 0" result="hardAlpha"/>
<feOffset dy="2"/>
<feGaussianBlur stdDeviation="4"/>
<feComposite in2="hardAlpha" operator="out"/>
<feColorMatrix type="matrix" values="0 0 0 0 0 0 0 0 0 0 0 0 0 0 0 0 0 0 0.5 0"/>
<feBlend mode="normal" in2="effect1_dropShadow_7647_1812" result="effect2_dropShadow_7647_1812"/>
<feBlend mode="normal" in="SourceGraphic" in2="effect2_dropShadow_7647_1812" result="shape"/>
</filter>
<filter id="filter1_dd_7647_1812" x="31.2771" y="48.8984" width="166.124" height="87.4097" filterUnits="userSpaceOnUse" color-interpolation-filters="sRGB">
<feFlood flood-opacity="0" result="BackgroundImageFix"/>
<feColorMatrix in="SourceAlpha" type="matrix" values="0 0 0 0 0 0 0 0 0 0 0 0 0 0 0 0 0 0 127 0" result="hardAlpha"/>
<feOffset dy="4"/>
<feGaussianBlur stdDeviation="8"/>
<feComposite in2="hardAlpha" operator="out"/>
<feColorMatrix type="matrix" values="0 0 0 0 0 0 0 0 0 0 0 0 0 0 0 0 0 0 0.8 0"/>
<feBlend mode="normal" in2="BackgroundImageFix" result="effect1_dropShadow_7647_1812"/>
<feColorMatrix in="SourceAlpha" type="matrix" values="0 0 0 0 0 0 0 0 0 0 0 0 0 0 0 0 0 0 127 0" result="hardAlpha"/>
<feOffset dy="1"/>
<feGaussianBlur stdDeviation="1"/>
<feComposite in2="hardAlpha" operator="out"/>
<feColorMatrix type="matrix" values="0 0 0 0 0 0 0 0 0 0 0 0 0 0 0 0 0 0 0.3 0"/>
<feBlend mode="normal" in2="effect1_dropShadow_7647_1812" result="effect2_dropShadow_7647_1812"/>
<feBlend mode="normal" in="SourceGraphic" in2="effect2_dropShadow_7647_1812" result="shape"/>
</filter>
<filter id="filter2_dd_7647_1812" x="72.2207" y="11" width="84" height="146" filterUnits="userSpaceOnUse" color-interpolation-filters="sRGB">
<feFlood flood-opacity="0" result="BackgroundImageFix"/>
<feColorMatrix in="SourceAlpha" type="matrix" values="0 0 0 0 0 0 0 0 0 0 0 0 0 0 0 0 0 0 127 0" result="hardAlpha"/>
<feOffset dy="4"/>
<feGaussianBlur stdDeviation="8"/>
<feComposite in2="hardAlpha" operator="out"/>
<feColorMatrix type="matrix" values="0 0 0 0 0 0 0 0 0 0 0 0 0 0 0 0 0 0 0.64 0"/>
<feBlend mode="normal" in2="BackgroundImageFix" result="effect1_dropShadow_7647_1812"/>
<feColorMatrix in="SourceAlpha" type="matrix" values="0 0 0 0 0 0 0 0 0 0 0 0 0 0 0 0 0 0 127 0" result="hardAlpha"/>
<feOffset dy="1"/>
<feGaussianBlur stdDeviation="0.5"/>
<feComposite in2="hardAlpha" operator="out"/>
<feColorMatrix type="matrix" values="0 0 0 0 0 0 0 0 0 0 0 0 0 0 0 0 0 0 0.08 0"/>
<feBlend mode="normal" in2="effect1_dropShadow_7647_1812" result="effect2_dropShadow_7647_1812"/>
<feBlend mode="normal" in="SourceGraphic" in2="effect2_dropShadow_7647_1812" result="shape"/>
</filter>
<linearGradient id="paint0_linear_7647_1812" x1="98.5684" y1="49.5096" x2="127.018" y2="125.827" gradientUnits="userSpaceOnUse">
<stop stop-color="#FFCC33"/>
<stop offset="1" stop-color="#FFEAAA"/>
</linearGradient>
<linearGradient id="paint1_linear_7647_1812" x1="92.4884" y1="43.3369" x2="136.189" y2="133.87" gradientUnits="userSpaceOnUse">
<stop stop-color="#4D4D4D"/>
<stop offset="0.828125" stop-color="#373737"/>
</linearGradient>
<linearGradient id="paint2_linear_7647_1812" x1="92.4885" y1="43.3369" x2="136.19" y2="133.87" gradientUnits="userSpaceOnUse">
<stop stop-color="#696969"/>
<stop offset="0.283654" stop-color="#333333" stop-opacity="0"/>
</linearGradient>
<linearGradient id="paint3_linear_7647_1812" x1="99.9207" y1="137" x2="118.805" y2="138.962" gradientUnits="userSpaceOnUse">
<stop stop-color="#323232" stop-opacity="0"/>
<stop offset="1" stop-color="#F9CC45"/>
</linearGradient>
</defs>
</svg>
