<svg width="230" height="160" viewBox="0 0 230 160" fill="none" xmlns="http://www.w3.org/2000/svg">
<g filter="url(#filter0_dd_7647_1800)">
<path d="M172.208 107.337L171.549 109.226L53.3765 67.9977L54.0358 66.1094L172.208 107.337Z" fill="url(#paint0_linear_7647_1800)"/>
</g>
<path d="M174.193 102.724C175.685 102.004 177.478 102.63 178.199 104.122L180.602 109.101C181.322 110.593 180.696 112.386 179.204 113.106L174.226 115.51C172.734 116.23 170.94 115.604 170.22 114.112L167.817 109.133C167.096 107.641 167.722 105.848 169.214 105.128L174.193 102.724ZM54.4521 61.6979C55.9442 60.9776 57.7377 61.6034 58.4579 63.0955L60.8611 68.0741C61.5814 69.5662 60.9557 71.3597 59.4636 72.0799L54.4849 74.4832C52.9929 75.2033 51.1993 74.5777 50.4791 73.0856L48.0759 68.107C47.3557 66.6149 47.9815 64.8214 49.4734 64.1011L54.4521 61.6979Z" fill="url(#paint1_linear_7647_1800)"/>
<path d="M177.748 104.339C177.148 103.096 175.654 102.574 174.41 103.175L169.432 105.578C168.188 106.178 167.667 107.673 168.267 108.916L170.67 113.895C171.27 115.138 172.765 115.66 174.008 115.059L178.987 112.656C180.23 112.056 180.752 110.561 180.152 109.318L177.748 104.339ZM58.0078 63.3128C57.4076 62.0694 55.913 61.548 54.6696 62.1482L49.691 64.5514C48.4476 65.1517 47.9262 66.6463 48.5263 67.8896L50.9295 72.8683C51.5297 74.1116 53.0243 74.633 54.2678 74.0329L59.2464 71.6297C60.4898 71.0295 61.0112 69.5349 60.411 68.2915L58.0078 63.3128ZM181.052 108.883C181.893 110.624 181.163 112.716 179.422 113.557L174.443 115.96C172.702 116.8 170.61 116.07 169.77 114.329L167.366 109.351C166.526 107.61 167.256 105.518 168.997 104.677L173.976 102.274C175.716 101.434 177.809 102.164 178.649 103.905L181.052 108.883ZM61.3116 67.8568C62.1519 69.5976 61.4219 71.6899 59.6811 72.5302L54.7025 74.9335C52.9617 75.7736 50.8693 75.0438 50.029 73.303L47.6257 68.3244C46.7855 66.5836 47.5156 64.4912 49.2562 63.6509L54.2349 61.2476C55.9757 60.4073 58.0681 61.1373 58.9084 62.8781L61.3116 67.8568Z" fill="url(#paint2_linear_7647_1800)"/>
<g filter="url(#filter1_dd_7647_1800)">
<path fill-rule="evenodd" clip-rule="evenodd" d="M112.973 23.0005C114.996 23.0005 117.101 23.0008 118.711 24.1411C120.115 25.1594 121.395 26.5445 121.519 28.4995C121.766 31.8798 120.982 35.0973 119.785 38.2739C119.62 38.722 119.372 39.0071 119 39.2515C118.807 39.3708 118.66 39.519 118.545 39.6841C118.53 39.705 118.517 39.7261 118.503 39.7476C118.259 40.1348 118.175 40.6079 118.092 41.0444C118.051 41.4517 118.134 42.0213 118.918 42.062C120.569 42.2249 122.221 42.4695 123.748 43.2026C124.698 43.6507 125.399 44.2619 125.854 45.1987C127.588 48.8644 129.115 52.6115 129.859 56.603C130.065 57.6619 130.56 58.6393 131.056 59.6167C132.872 63.038 134.688 66.4597 136.381 69.9624C137.248 71.7952 138.074 73.6686 138.983 75.5015C139.189 75.9495 139.354 76.3977 139.85 76.6421C140.138 76.7643 140.221 77.09 140.221 77.4155C140.221 78.0265 140.221 78.6786 140.18 79.2896C140.18 79.9005 139.931 80.4298 139.395 80.7964C138.941 81.1222 138.693 81.6518 138.321 82.0591C138.278 82.1083 138.231 82.156 138.182 82.2017C138.152 82.2291 138.122 82.2556 138.091 82.2808C138.075 82.294 138.057 82.3054 138.04 82.3179C138.014 82.3372 137.988 82.3564 137.961 82.3735C137.943 82.3847 137.925 82.3937 137.906 82.4038C137.878 82.4195 137.85 82.435 137.821 82.4478C137.783 82.4644 137.745 82.4788 137.705 82.4897C137.702 82.4905 137.699 82.4909 137.696 82.4917C137.653 82.503 137.61 82.5118 137.566 82.5151C137.464 82.523 137.358 82.5097 137.25 82.4663L137.166 82.4263C137.143 82.4124 137.122 82.397 137.104 82.3823C137.094 82.3745 137.086 82.3659 137.077 82.3579C137.069 82.3505 137.061 82.344 137.055 82.3364C137.047 82.3272 137.04 82.3176 137.033 82.3081C137.029 82.3016 137.024 82.2952 137.021 82.2886C137.016 82.2798 137.011 82.2712 137.007 82.2622C137.002 82.2519 136.999 82.2415 136.996 82.231C136.994 82.2244 136.993 82.218 136.991 82.2114C136.989 82.1982 136.987 82.1849 136.986 82.1714C136.986 82.1701 136.986 82.1688 136.985 82.1675V82.1528C136.986 82.1502 136.986 82.1476 136.986 82.145C136.987 82.1227 136.992 82.1005 136.997 82.0776C137.002 82.0564 137.007 82.0347 137.015 82.0132C137.02 81.9992 137.025 81.9853 137.031 81.9712C137.079 81.86 137.153 81.7464 137.204 81.6401L137.248 81.5298C137.661 80.1042 137.578 79.9409 136.216 79.2485C136.116 79.1992 136.015 79.1456 135.915 79.0884C135.901 79.0802 135.886 79.0723 135.872 79.064C135.846 79.0482 135.819 79.0316 135.793 79.0151C135.761 78.9948 135.728 78.9742 135.696 78.9526C135.673 78.9367 135.65 78.9204 135.627 78.9038C135.595 78.8808 135.565 78.8569 135.534 78.8325C135.51 78.813 135.486 78.7934 135.463 78.7729C135.433 78.7464 135.404 78.7182 135.376 78.6899C135.36 78.6734 135.343 78.6573 135.327 78.6401C135.292 78.6014 135.259 78.5602 135.228 78.5181C135.219 78.506 135.208 78.4953 135.199 78.4829C135.192 78.4717 135.184 78.4602 135.177 78.4487C135.11 78.3458 135.055 78.2334 135.019 78.1089C134.771 77.1721 134.152 76.4793 133.532 75.8276C131.551 73.7097 129.611 71.5101 127.753 69.27C127.629 69.1072 127.546 68.9036 127.464 68.7407C127.381 68.8221 127.298 68.8624 127.216 68.9438L127.34 68.9849C127.918 71.5101 128.372 74.0358 128.826 76.561C129.239 78.9229 129.28 78.9228 127.01 79.6558C126.267 79.9001 126.018 80.2266 125.895 81.0005C125.564 83.8107 125.317 86.7024 124.532 89.4312C123.805 91.8403 123.453 94.314 123.035 96.771C122.998 96.9884 122.958 97.2053 122.92 97.4224C122.827 97.9493 122.732 98.4756 122.625 98.9995C122.613 99.0595 122.6 99.1193 122.587 99.1792C122.551 99.3516 122.514 99.5238 122.476 99.6958C122.452 99.8043 122.427 99.9127 122.401 100.021C122.385 100.09 122.37 100.159 122.354 100.228C122.307 100.423 122.258 100.618 122.207 100.812C122.184 100.901 122.162 100.991 122.138 101.081C121.89 101.936 121.684 102.791 121.354 103.606C120.371 105.916 120.382 108.285 120.476 110.659C120.502 111.32 120.531 111.981 120.551 112.641C120.555 112.785 120.56 112.929 120.563 113.073V113.092C120.567 113.297 120.569 113.502 120.569 113.707C120.569 113.758 120.566 113.807 120.562 113.856C120.557 113.901 120.551 113.945 120.543 113.989C120.542 113.997 120.54 114.006 120.538 114.014C120.526 114.077 120.51 114.139 120.493 114.2C120.439 114.403 120.368 114.599 120.321 114.806C120.235 115.168 120.159 115.531 120.095 115.893C120.078 115.989 120.061 116.085 120.046 116.181C119.765 117.962 119.814 119.736 120.569 121.486C120.776 121.975 120.734 122.464 120.775 122.953C120.817 123.36 120.776 123.726 121.354 123.848C121.643 123.93 121.849 124.215 121.808 124.541C121.783 124.756 121.799 124.937 121.851 125.086C121.866 125.13 121.883 125.172 121.904 125.21C121.907 125.215 121.91 125.219 121.913 125.224C121.93 125.253 121.949 125.281 121.97 125.307C122.137 125.52 122.419 125.637 122.799 125.681H122.881C124.202 126.17 125.234 129.265 124.491 130.406L124.306 130.676C124.275 130.719 124.244 130.759 124.213 130.79C124.182 130.821 124.15 130.844 124.119 130.854C123.163 131.019 122.4 131.634 121.574 132.091C121.541 132.11 121.507 132.129 121.473 132.147C121.43 132.17 121.386 132.192 121.343 132.214C121.286 132.243 121.229 132.269 121.172 132.295C121.136 132.312 121.101 132.328 121.065 132.343C121.018 132.363 120.97 132.382 120.923 132.4C120.878 132.417 120.832 132.435 120.786 132.451C120.732 132.469 120.677 132.485 120.622 132.5C120.581 132.512 120.539 132.526 120.497 132.536C120.479 132.54 120.461 132.543 120.442 132.547C120.366 132.564 120.288 132.58 120.208 132.59C120.179 132.594 120.15 132.597 120.121 132.6C120.097 132.603 120.073 132.606 120.048 132.608C120.033 132.609 120.019 132.609 120.004 132.61C119.866 132.618 119.725 132.618 119.578 132.605C118.505 132.524 117.39 132.565 116.275 132.443C115.285 132.361 115.037 131.75 115.078 130.976C115.078 130.61 115.243 130.283 115.367 129.958C116.275 127.921 116.028 125.844 115.656 123.726C115.45 122.667 115.243 121.608 114.913 120.59C114.831 120.305 114.707 120.02 114.542 119.816C114.129 119.368 113.757 119.083 113.303 119.938C112.395 121.73 111.115 123.359 110.454 125.233C109.959 126.658 108.886 128.044 109.299 129.754C109.547 130.691 110.248 132.809 110.908 133.624C111.197 134.031 111.486 134.438 111.651 134.886C111.858 135.497 111.817 136.027 111.032 136.434C110.921 136.49 110.811 136.542 110.699 136.588C110.591 136.634 110.481 136.674 110.372 136.71C110.345 136.72 110.318 136.726 110.291 136.735C110.209 136.761 110.127 136.787 110.045 136.809C110.015 136.817 109.984 136.823 109.954 136.831C109.872 136.851 109.79 136.87 109.707 136.886C109.687 136.89 109.667 136.893 109.648 136.897C109.557 136.914 109.467 136.929 109.377 136.941C109.349 136.945 109.32 136.948 109.292 136.952C109.216 136.961 109.139 136.969 109.063 136.975C109.025 136.978 108.988 136.98 108.951 136.983C108.875 136.988 108.8 136.992 108.724 136.995C108.686 136.996 108.649 136.997 108.611 136.998C108.548 136.999 108.484 136.999 108.421 136.999C108.366 136.998 108.311 136.997 108.256 136.996C108.198 136.994 108.141 136.992 108.083 136.989C108.041 136.987 107.999 136.984 107.957 136.982C107.881 136.977 107.805 136.973 107.73 136.966C107.695 136.963 107.661 136.96 107.626 136.957C107.579 136.952 107.531 136.948 107.484 136.943C107.315 136.925 107.146 136.905 106.978 136.882C106.89 136.87 106.803 136.856 106.716 136.843C106.365 136.791 106.014 136.734 105.665 136.678C105.526 136.659 105.388 136.635 105.249 136.611C105.216 136.605 105.182 136.598 105.149 136.592C105.042 136.573 104.936 136.552 104.829 136.531C104.726 136.51 104.622 136.487 104.519 136.464C104.281 136.413 104.042 136.364 103.803 136.312C103.26 136.195 102.713 136.084 102.156 136.027C101.542 135.956 101.244 135.635 101.179 135.146L101.165 134.927C101.165 134.657 101.166 134.38 101.189 134.107C101.191 134.084 101.193 134.061 101.195 134.038C101.201 133.976 101.208 133.915 101.217 133.854C101.224 133.803 101.235 133.753 101.244 133.703C101.252 133.663 101.259 133.624 101.268 133.585C101.276 133.548 101.287 133.511 101.297 133.473C101.31 133.425 101.325 133.377 101.341 133.33C101.363 133.265 101.386 133.201 101.413 133.138C101.45 133.055 101.491 132.972 101.539 132.891C101.564 132.85 101.591 132.809 101.619 132.768C101.655 132.716 101.685 132.662 101.714 132.607C102.018 132.024 101.96 131.32 102.073 130.65C102.099 130.537 102.128 130.426 102.159 130.317C102.162 130.307 102.165 130.297 102.168 130.287C102.199 130.184 102.232 130.084 102.269 129.985C102.276 129.966 102.284 129.947 102.291 129.928C102.327 129.834 102.365 129.74 102.406 129.649C102.415 129.631 102.424 129.613 102.433 129.595C102.522 129.406 102.623 129.224 102.737 129.051C102.745 129.04 102.752 129.029 102.76 129.018C102.818 128.932 102.879 128.849 102.943 128.767C102.955 128.753 102.966 128.739 102.978 128.725C103.04 128.648 103.105 128.571 103.174 128.498C103.187 128.484 103.201 128.47 103.214 128.457C103.38 128.282 103.564 128.117 103.767 127.962C103.891 127.881 104.056 127.758 104.097 127.595C104.675 124.785 106.449 122.301 106.573 119.328C106.656 116.965 106.946 114.562 107.813 112.403C109.133 109.063 108.473 105.846 107.648 102.587C105.914 96.0299 104.056 89.4721 102.28 82.9146C102.256 82.8215 102.235 82.7274 102.217 82.6333C102.096 82.0064 102.06 81.3881 101.258 81.1743C101.242 81.17 101.226 81.1646 101.209 81.1606L101 81.1226C100.975 81.119 100.948 81.1089 100.919 81.0952C100.915 81.0931 100.91 81.0908 100.905 81.0884C100.851 81.0602 100.791 81.0165 100.728 80.9604C100.64 80.8824 100.545 80.7815 100.451 80.6685C100.438 80.6528 100.425 80.6367 100.412 80.6206C100.386 80.5886 100.361 80.5554 100.335 80.522C100.167 80.3033 100.005 80.0612 99.8858 79.8599C99.5969 79.3712 99.7207 78.7604 99.8858 78.231C100.423 76.561 100.546 74.8497 100.257 72.9761C99.7203 73.5462 99.4313 74.1167 99.3487 74.8091C99.1423 76.6011 98.7292 78.3524 98.0274 80.063C97.7385 80.7961 97.326 81.6108 98.5646 82.0181C98.8947 82.1402 98.9356 82.5477 98.9357 82.8735C98.8531 84.4212 99.1428 85.9692 98.8126 87.4761C98.7632 87.7004 98.7376 87.9274 98.7316 88.1548C98.7272 88.3188 98.7345 88.4829 98.7491 88.647C98.799 89.2051 98.9486 89.76 99.1427 90.2866C99.473 91.1827 99.6378 92.0383 99.6378 92.9751C99.6378 95.1649 100.031 97.2926 100.391 99.4253C100.43 99.6595 100.468 99.894 100.506 100.128C100.545 100.369 100.585 100.609 100.621 100.849C100.637 100.951 100.651 101.054 100.666 101.156C100.682 101.268 100.698 101.381 100.713 101.494C100.72 101.544 100.727 101.594 100.734 101.644C100.755 101.805 100.775 101.966 100.794 102.127C100.844 102.551 100.888 102.975 100.918 103.402C101.001 104.339 101.041 105.235 100.752 106.212C100.422 107.19 101 108.208 101.083 109.226C101.207 110.448 100.917 110.774 99.6788 110.937L99.3116 110.962C99.0721 110.97 98.8376 110.96 98.6075 110.937C98.585 110.935 98.5626 110.932 98.5401 110.929C98.4539 110.92 98.3684 110.908 98.2833 110.895C98.2454 110.889 98.2077 110.882 98.17 110.875C98.0886 110.861 98.0074 110.847 97.9269 110.83C97.9119 110.826 97.8969 110.823 97.8819 110.82C97.7899 110.799 97.6985 110.777 97.6075 110.753C97.5782 110.746 97.5489 110.738 97.5196 110.73C97.4372 110.707 97.3552 110.684 97.2735 110.659C97.2517 110.652 97.2299 110.645 97.2081 110.638C97.1224 110.611 97.0373 110.582 96.9523 110.553C96.9318 110.546 96.9111 110.54 96.8907 110.533C96.8176 110.507 96.7447 110.481 96.672 110.454C96.5274 110.4 96.3838 110.343 96.2403 110.286C95.816 110.115 95.3945 109.932 94.9698 109.756C94.7656 109.672 94.5606 109.589 94.3536 109.511C93.239 109.104 92.1655 108.534 91.0509 108.126C90.4729 107.923 90.2659 107.597 90.3898 106.986C90.5136 106.334 90.5555 105.682 90.5968 105.031C90.5969 104.534 90.778 103.966 90.1544 103.696L90.0187 103.646C90.0036 103.646 89.9896 103.64 89.9757 103.631C89.973 103.63 89.9706 103.628 89.9679 103.625C89.9581 103.618 89.9487 103.609 89.9396 103.598C89.936 103.594 89.9323 103.589 89.9288 103.584C89.9178 103.569 89.9066 103.552 89.8966 103.533C89.8827 103.506 89.8706 103.475 89.8585 103.442C89.8402 103.393 89.8227 103.339 89.8087 103.286L89.7706 103.117C89.7187 102.809 89.6945 102.501 89.6456 102.203C89.6035 101.944 89.5422 101.693 89.4259 101.455C89.3958 101.393 89.3634 101.331 89.3253 101.271C89.2753 101.192 89.2177 101.115 89.1515 101.04C88.9038 100.754 89.1516 100.388 89.2755 100.021C89.5232 99.2472 89.8534 98.3509 88.8214 97.7808C88.7804 97.7565 88.7426 97.7294 88.7071 97.7007C88.701 97.6957 88.6946 97.6911 88.6886 97.686C88.6754 97.6748 88.6639 97.6617 88.6515 97.6499C88.6246 97.6244 88.5987 97.5986 88.5753 97.5708C88.5624 97.5554 88.5511 97.5389 88.5392 97.5229C88.5202 97.4974 88.502 97.4717 88.4855 97.4448C88.4725 97.4238 88.4609 97.4021 88.4493 97.3804C88.4382 97.3593 88.427 97.3385 88.4171 97.3169C88.406 97.2926 88.3954 97.2684 88.3858 97.2437C88.3741 97.213 88.3641 97.182 88.3546 97.1509C88.3503 97.1368 88.3457 97.123 88.3419 97.1089C88.3156 97.0127 88.2981 96.9162 88.2901 96.8237L88.2843 96.6812C88.2843 94.4005 88.0781 92.079 88.4083 89.7983C88.5244 88.9201 88.9309 88.2205 89.7296 87.8345L89.8946 87.7612C90.2661 87.639 90.4727 87.3543 90.6378 86.9878C90.8441 86.5807 91.0092 86.1326 91.298 85.7661C92.6604 84.2184 92.6194 82.4258 92.2892 80.5522C92.2892 80.3893 92.1656 80.1852 92.2482 80.063C92.6725 79.345 92.7796 78.5586 92.8566 77.7612C92.8729 77.5922 92.8891 77.4229 92.9054 77.2534C92.9216 77.0846 92.9385 76.9157 92.9601 76.7476C92.9807 76.587 93.0059 76.4271 93.0362 76.2681C93.0424 76.2359 93.0472 76.2035 93.0538 76.1714C93.0943 75.9757 93.1454 75.7818 93.2101 75.5903L93.3214 75.2983C93.9406 73.9544 93.8995 72.3658 94.0646 70.8589C94.0794 70.7073 94.0972 70.556 94.1183 70.4058C94.1513 70.1701 94.1932 69.9364 94.2394 69.7036C94.2534 69.633 94.2663 69.5621 94.2814 69.4917C94.3002 69.4035 94.3215 69.3159 94.3419 69.228C94.3536 69.1776 94.3639 69.1269 94.3761 69.0767C94.4033 68.9643 94.4328 68.8526 94.462 68.7407C94.4732 68.6981 94.4838 68.6553 94.4952 68.6128C94.5112 68.5532 94.5276 68.4936 94.5441 68.4341C94.5695 68.3422 94.5957 68.2504 94.6222 68.1587C94.6552 68.0445 94.6904 67.9308 94.7247 67.8169C94.7834 67.6221 94.8421 67.4272 94.9034 67.2329C95.1783 66.362 95.4696 65.4939 95.7062 64.6118C95.7615 64.4055 95.8151 64.1988 95.8634 63.9907L95.964 63.5269C96.2319 62.2178 96.5064 60.9163 96.7804 59.6167C97.3929 56.7113 97.9966 53.8148 98.4816 50.8599C98.7293 49.3529 99.1423 47.8459 99.8028 46.4204C100.587 44.7505 101.784 43.6095 103.56 42.9985C104.633 42.632 105.748 42.4691 106.656 41.6138C107.111 41.166 108.102 41.3294 108.845 41.1665C109.431 41.0407 109.559 40.6351 109.641 40.2095C109.652 40.1488 109.663 40.0877 109.674 40.0269C109.682 39.9806 109.692 39.9348 109.701 39.8892C109.723 39.777 109.749 39.6678 109.786 39.5669L109.835 39.4556C110.165 38.8446 109.505 38.9264 109.257 38.8042C107.688 37.9489 107.069 36.6858 107.151 34.9751C107.151 34.4051 107.152 33.7535 106.904 33.2241C106.881 33.1762 106.86 33.1274 106.839 33.0796C106.829 33.0573 106.819 33.0354 106.81 33.0132C106.8 32.9889 106.791 32.9642 106.781 32.9399C106.764 32.8945 106.746 32.8495 106.731 32.8042C106.721 32.7776 106.714 32.7507 106.705 32.7241C106.692 32.6833 106.68 32.6427 106.669 32.6021C106.661 32.5731 106.655 32.544 106.648 32.5151C106.637 32.4717 106.627 32.4285 106.618 32.3853C106.613 32.3615 106.609 32.3377 106.605 32.314C106.597 32.2716 106.59 32.2293 106.584 32.187C106.58 32.1573 106.576 32.1278 106.572 32.0981C106.542 31.828 106.545 31.5601 106.574 31.2944C106.577 31.2723 106.58 31.2502 106.583 31.228C106.597 31.1189 106.615 31.0102 106.638 30.9019C106.658 30.8049 106.68 30.7081 106.706 30.6118C106.715 30.5801 106.724 30.5487 106.734 30.5171C106.756 30.4381 106.781 30.3594 106.808 30.2808C106.815 30.2595 106.821 30.2376 106.828 30.2163L106.986 29.8022C107.441 28.7026 107.524 27.5211 107.978 26.4214C108.803 24.263 110.496 23.0412 112.973 23.0005Z" fill="#5C5C5C"/>
</g>
<defs>
<filter id="filter0_dd_7647_1800" x="39.3765" y="54.1094" width="146.832" height="71.1162" filterUnits="userSpaceOnUse" color-interpolation-filters="sRGB">
<feFlood flood-opacity="0" result="BackgroundImageFix"/>
<feColorMatrix in="SourceAlpha" type="matrix" values="0 0 0 0 0 0 0 0 0 0 0 0 0 0 0 0 0 0 127 0" result="hardAlpha"/>
<feOffset dy="2"/>
<feGaussianBlur stdDeviation="7"/>
<feComposite in2="hardAlpha" operator="out"/>
<feColorMatrix type="matrix" values="0 0 0 0 1 0 0 0 0 0.8 0 0 0 0 0.2 0 0 0 1 0"/>
<feBlend mode="normal" in2="BackgroundImageFix" result="effect1_dropShadow_7647_1800"/>
<feColorMatrix in="SourceAlpha" type="matrix" values="0 0 0 0 0 0 0 0 0 0 0 0 0 0 0 0 0 0 127 0" result="hardAlpha"/>
<feOffset dy="2"/>
<feGaussianBlur stdDeviation="4"/>
<feComposite in2="hardAlpha" operator="out"/>
<feColorMatrix type="matrix" values="0 0 0 0 0 0 0 0 0 0 0 0 0 0 0 0 0 0 0.5 0"/>
<feBlend mode="normal" in2="effect1_dropShadow_7647_1800" result="effect2_dropShadow_7647_1800"/>
<feBlend mode="normal" in="SourceGraphic" in2="effect2_dropShadow_7647_1800" result="shape"/>
</filter>
<filter id="filter1_dd_7647_1800" x="72.2207" y="11.0005" width="84" height="145.998" filterUnits="userSpaceOnUse" color-interpolation-filters="sRGB">
<feFlood flood-opacity="0" result="BackgroundImageFix"/>
<feColorMatrix in="SourceAlpha" type="matrix" values="0 0 0 0 0 0 0 0 0 0 0 0 0 0 0 0 0 0 127 0" result="hardAlpha"/>
<feOffset dy="4"/>
<feGaussianBlur stdDeviation="8"/>
<feComposite in2="hardAlpha" operator="out"/>
<feColorMatrix type="matrix" values="0 0 0 0 0 0 0 0 0 0 0 0 0 0 0 0 0 0 0.14 0"/>
<feBlend mode="normal" in2="BackgroundImageFix" result="effect1_dropShadow_7647_1800"/>
<feColorMatrix in="SourceAlpha" type="matrix" values="0 0 0 0 0 0 0 0 0 0 0 0 0 0 0 0 0 0 127 0" result="hardAlpha"/>
<feOffset dy="1"/>
<feGaussianBlur stdDeviation="0.5"/>
<feComposite in2="hardAlpha" operator="out"/>
<feColorMatrix type="matrix" values="0 0 0 0 0 0 0 0 0 0 0 0 0 0 0 0 0 0 0.08 0"/>
<feBlend mode="normal" in2="effect1_dropShadow_7647_1800" result="effect2_dropShadow_7647_1800"/>
<feBlend mode="normal" in="SourceGraphic" in2="effect2_dropShadow_7647_1800" result="shape"/>
</filter>
<linearGradient id="paint0_linear_7647_1800" x1="98.5681" y1="49.51" x2="127.017" y2="125.827" gradientUnits="userSpaceOnUse">
<stop stop-color="#FFCC33"/>
<stop offset="1" stop-color="#FFEAAA"/>
</linearGradient>
<linearGradient id="paint1_linear_7647_1800" x1="92.4884" y1="43.3374" x2="136.189" y2="133.87" gradientUnits="userSpaceOnUse">
<stop stop-color="#717171"/>
<stop offset="0.828125" stop-color="#8C8C8C"/>
</linearGradient>
<linearGradient id="paint2_linear_7647_1800" x1="92.4885" y1="43.3374" x2="136.19" y2="133.87" gradientUnits="userSpaceOnUse">
<stop stop-color="#696969"/>
<stop offset="0.283654" stop-color="#333333" stop-opacity="0"/>
</linearGradient>
</defs>
</svg>
