<svg xmlns="http://www.w3.org/2000/svg" width="185" height="160" fill="none" viewBox="0 0 185 160">
  <path fill="#F0F0F0" d="M90.1786 137.813c29.3394 0 53.1234-23.865 53.1234-53.3035 0-29.4389-23.784-53.3039-53.1234-53.3039-29.339 0-53.1229 23.865-53.1229 53.3039 0 29.4385 23.7839 53.3035 53.1229 53.3035Z"/>
  <path fill="#ECEAEA" d="M150.954 58.3396c1.656-1.5185 1.772-4.0964.258-5.758-1.513-1.6616-4.082-1.7776-5.738-.2592-1.656 1.5184-1.772 4.0964-.258 5.758 1.513 1.6615 4.082 1.7776 5.738.2592ZM59.4779 35.7801c1.4034-.4578 2.1714-1.9705 1.7152-3.3787-.4561-1.4083-1.9637-2.1789-3.3672-1.7212-1.4035.4578-2.1714 1.9705-1.7153 3.3787.4562 1.4083 1.9638 2.1789 3.3673 1.7212ZM65.3109 27.0315c.9543-.3113 1.4765-1.3399 1.1663-2.2975-.3102-.9576-1.3353-1.4816-2.2897-1.1704-.9544.3113-1.4766 1.3399-1.1664 2.2975.3102.9577 1.3354 1.4816 2.2898 1.1704ZM151.261 40.0681c.697-.6394.746-1.7248.109-2.4245-.637-.6996-1.719-.7485-2.416-.1091-.697.6393-.746 1.7248-.109 2.4244.637.6996 1.719.7485 2.416.1092ZM109.068 27.275c.48-.4395.513-1.1858.075-1.6667-.438-.481-1.182-.5146-1.661-.0751-.479.4396-.513 1.1858-.075 1.6668.438.481 1.182.5146 1.661.075Z"/>
  <g filter="url(#filter0_d_4182_35283)">
    <path fill="#E2DED7" d="M157.5 127.278H24.3267l17.5062-81.1833h95.9131L157.5 127.278Z"/>
  </g>
  <path fill="#B3BAC4" d="M64.8554 127.278H45.015c-3.6073 0-6.5781-3.102-6.3659-6.739l3.183-74.444h4.7744l18.2489 81.183Z" opacity=".3"/>
  <path fill="#FEFEFD" d="M158.752 127.278H62.9456L46.7125 64.92l-.1061-.4279L41.832 46.095h95.913l4.138 15.937.636 2.4601.106.4279 16.127 62.358Z"/>
  <g filter="url(#filter1_d_4182_35283)">
    <path fill="url(#paint0_linear_4182_35283)" d="M142.519 64.4921H46.6064L41.832 46.095h95.913l4.138 15.937.636 2.4601Z"/>
  </g>
  <path fill="#ADB6C8" d="M67.0836 59.251c1.8751 0 3.3952-1.5324 3.3952-3.4228 0-1.8903-1.5201-3.4227-3.3952-3.4227s-3.3951 1.5324-3.3951 3.4227c0 1.8904 1.52 3.4228 3.3951 3.4228ZM123.103 59.251c1.875 0 3.396-1.5324 3.396-3.4228 0-1.8903-1.521-3.4227-3.396-3.4227s-3.395 1.5324-3.395 3.4227c0 1.8904 1.52 3.4228 3.395 3.4228Z" opacity=".3"/>
  <path fill="#BCB9B3" d="M66.2344 57.2185c-.6365 0-1.167-.5348-1.167-1.1766s.5305-1.1766 1.167-1.1766c2.3342 0 4.7745-3.3157 4.7745-8.3429v-.4278c-.1061-4.9202-2.5464-7.9151-4.7745-7.9151-2.1219 0-4.4561 2.888-4.7744 7.3803h-2.4402c.3183-5.5619 3.3951-9.7334 7.1086-9.7334 3.9256 0 7.0024 4.5993 7.2146 10.4821v.3209c.1061 5.8828-3.0768 10.5891-7.1086 10.5891ZM121.936 57.2185c-.636 0-1.167-.5348-1.167-1.1766s.531-1.1766 1.167-1.1766c2.335 0 4.775-3.3157 4.775-8.3429v-.4278c-.106-4.9202-2.547-7.9151-4.775-7.9151-2.122 0-4.456 2.888-4.774 7.3803h-2.44c.318-5.5619 3.395-9.7334 7.108-9.7334 3.926 0 7.003 4.5993 7.215 10.4821v.3209c.106 5.8828-3.077 10.5891-7.109 10.5891Z"/>
  <path fill="#EDE5DA" fill-rule="evenodd" d="M11 127.171c0-.621.5037-1.125 1.125-1.125h154.373c.621 0 1.125.504 1.125 1.125s-.504 1.125-1.125 1.125H12.125c-.6213 0-1.125-.504-1.125-1.125Z" clip-rule="evenodd"/>
  <path fill="#D3CCC3" d="M123.634 88.5586c-.637 0-1.061-.5348-1.061-1.0696 0-.6417.424-1.0696 1.061-1.0696h3.289c.637 0 1.061.5348 1.061 1.0696 0 .6418-.53 1.0696-1.061 1.0696h-3.289Z"/>
  <path fill="#D3CCC3" d="M78.436 118.721c-.4244 0-.8488-.321-1.061-.749l-1.6976-6.31h-8.3817c-.6366 0-1.061-.535-1.061-1.07 0-.642.5305-1.069 1.061-1.069h7.7452l-2.6525-9.413H64.325c-.6366 0-1.061-.5347-1.061-1.0695 0-.6417.4244-1.0696 1.061-1.0696h7.4268l-2.6524-9.4125h-7.6391c-.6366 0-1.061-.5348-1.061-1.0696 0-.6417.4244-1.0696 1.061-1.0696h7.1086l-2.6525-9.4125h-7.3208c-.6365 0-1.0609-.5348-1.0609-1.0696 0-.6417.4244-1.0696 1.0609-1.0696h6.6842l-1.061-3.8506c-.106-.5348.2122-1.1765.7427-1.2835h.3183c.4244 0 .8488.3209 1.061.7487l1.2732 4.3854h8.4878c.6366 0 1.061.4279 1.061 1.0696 0 .6418-.4244 1.0696-1.061 1.0696h-7.8512l2.6524 9.4125h13.3684l-4.2439-15.4023c-.1061-.5348.2122-1.1765.7427-1.2835h.3183c.4243 0 .8487.3209 1.0609.7487l1.2732 4.3854h4.5622c.6366 0 1.061.4279 1.061 1.0696 0 .6418-.5305 1.0696-1.061 1.0696h-3.9256l2.6525 9.4125H95.73c.6366 0 1.061.5348 1.061 1.0696 0 .6418-.4244 1.0696-1.061 1.0696h-8.3818l2.6525 9.4125h13.4743l-5.8352-20.9642h-2.8647c-.6366 0-1.061-.5348-1.061-1.0696 0-.6417.5305-1.0696 1.061-1.0696h2.2281l-1.061-3.8506c-.1061-.3208 0-.5348.1061-.8556.1061-.214.3183-.4279.6366-.5348h.3183c.4244 0 .8488.3208 1.061.7487l1.2731 4.3854h2.2277c.637 0 1.061.4278 1.061 1.0696 0 .6417-.424 1.0696-1.061 1.0696h-1.5911l2.6521 9.4125h13.475l-2.653-9.4125h-6.896c-.637 0-1.061-.5348-1.061-1.0696 0-.6418.531-1.0696 1.061-1.0696h5.941l-1.06-3.8506c-.107-.5348.212-1.1766.742-1.2835h.318c.425 0 .849.3208 1.061.7487l1.274 4.3854h13.474l-1.061-3.8506c-.106-.5348.212-1.1766.743-1.2835h.318c.425 0 .849.3208 1.061.7487l1.273 4.3854h8.276c.637 0 1.061.4278 1.061 1.0696 0 .6417-.424 1.0696-1.061 1.0696h-7.957l2.652 9.4125h7.957c.637 0 1.061.5348 1.061 1.0696 0 .6417-.424 1.0696-1.061 1.0696h-7.32l2.652 9.4125h7.639c.637 0 1.061.5348 1.061 1.0696 0 .6417-.424 1.0694-1.061 1.0694h-7.002l2.652 9.413h7.215c.636 0 1.061.534 1.061 1.069 0 .642-.531 1.07-1.061 1.07h-6.684l1.591 5.669c.106.535-.212 1.176-.743 1.283h-.318c-.424 0-.849-.321-1.061-.748l-1.697-6.204h-13.475l1.592 5.562c.106.321 0 .535-.107.855-.106.214-.318.428-.636.535h-.318c-.425 0-.849-.321-1.061-.748l-1.698-6.097h-13.474l1.591 5.562c.106.535-.212 1.176-.743 1.283h-.318c-.424 0-.849-.321-1.061-.748l-1.698-6.097H93.608l1.5915 5.562c.1061.535-.2122 1.176-.7427 1.283h-.3183c-.4244 0-.8488-.321-1.061-.748l-1.6975-6.097H77.9055l1.5915 5.669c.1061.321 0 .535-.1061.855-.1061.214-.3183.428-.6366.535h-.3183Zm30.238-9.198h29.177l-2.653-9.413h-13.474l.955 3.423c.106.321 0 .535-.106.856-.106.213-.318.427-.637.534h-.318c-.424 0-.849-.321-1.061-.748l-1.061-3.958h-4.032c-.636 0-1.061-.5347-1.061-1.0695 0-.6418.425-1.0696 1.061-1.0696h3.395l-2.652-9.4125h-13.368l2.652 9.4125h3.289c.637 0 1.061.5348 1.061 1.0696 0 .6418-.424 1.0695-1.061 1.0695h-2.758l2.652 9.306Zm-15.7026 0h13.4746l-2.653-9.413H90.319l2.6524 9.413Zm-15.7025 0h13.4745l-2.6525-9.413h-3.9256c-.6366 0-1.061-.5347-1.061-1.0695 0-.6417.5305-1.0696 1.061-1.0696h3.3951l-2.6524-9.4125H71.4335l2.6525 9.4125h3.5012c.6366 0 1.061.5348 1.061 1.0696 0 .6418-.5305 1.0695-1.061 1.0695h-2.8646l2.5463 9.413Zm43.9251-11.5521h13.474l-5.835-20.9642h-13.581l5.942 20.9642Z"/>
  <g filter="url(#filter2_d_4182_35283)">
    <path fill="url(#paint1_linear_4182_35283)" d="M148.34 96.3479c-3.933 0-7.777 1.1662-11.047 3.351a19.884 19.884 0 0 0-7.323 8.9231 19.8827 19.8827 0 0 0 4.31 21.67 19.8884 19.8884 0 0 0 10.181 5.441c3.857.768 7.855.374 11.488-1.131a19.8923 19.8923 0 0 0 8.924-7.323 19.893 19.893 0 0 0 3.351-11.047c0-2.611-.515-5.197-1.514-7.61a19.8857 19.8857 0 0 0-10.761-10.7605 19.8811 19.8811 0 0 0-7.609-1.5136Z"/>
  </g>
  <path fill="#fff" d="M156.416 118.229h-8.086a2.021 2.021 0 0 1-2.021-2.022v-8.086a2.021 2.021 0 0 1 2.021-2.021 2.021 2.021 0 0 1 2.022 2.021v6.065h6.064a2.0215 2.0215 0 1 1 0 4.043Z"/>
  <defs>
    <filter id="filter0_d_4182_35283" width="165.173" height="113.183" x="8.3267" y="41.0947" color-interpolation-filters="sRGB" filterUnits="userSpaceOnUse">
      <feFlood flood-opacity="0" result="BackgroundImageFix"/>
      <feColorMatrix in="SourceAlpha" result="hardAlpha" values="0 0 0 0 0 0 0 0 0 0 0 0 0 0 0 0 0 0 127 0"/>
      <feOffset dy="11"/>
      <feGaussianBlur stdDeviation="8"/>
      <feComposite in2="hardAlpha" operator="out"/>
      <feColorMatrix values="0 0 0 0 0.576471 0 0 0 0 0.501961 0 0 0 0 0.396078 0 0 0 0.16 0"/>
      <feBlend in2="BackgroundImageFix" result="effect1_dropShadow_4182_35283"/>
      <feBlend in="SourceGraphic" in2="effect1_dropShadow_4182_35283" result="shape"/>
    </filter>
    <filter id="filter1_d_4182_35283" width="132.687" height="50.3972" x="25.832" y="36.095" color-interpolation-filters="sRGB" filterUnits="userSpaceOnUse">
      <feFlood flood-opacity="0" result="BackgroundImageFix"/>
      <feColorMatrix in="SourceAlpha" result="hardAlpha" values="0 0 0 0 0 0 0 0 0 0 0 0 0 0 0 0 0 0 127 0"/>
      <feOffset dy="6"/>
      <feGaussianBlur stdDeviation="8"/>
      <feColorMatrix values="0 0 0 0 0.576471 0 0 0 0 0.501961 0 0 0 0 0.396078 0 0 0 0.22 0"/>
      <feBlend in2="BackgroundImageFix" result="effect1_dropShadow_4182_35283"/>
      <feBlend in="SourceGraphic" in2="effect1_dropShadow_4182_35283" result="shape"/>
    </filter>
    <filter id="filter2_d_4182_35283" width="71.7676" height="71.7676" x="112.456" y="84.3479" color-interpolation-filters="sRGB" filterUnits="userSpaceOnUse">
      <feFlood flood-opacity="0" result="BackgroundImageFix"/>
      <feColorMatrix in="SourceAlpha" result="hardAlpha" values="0 0 0 0 0 0 0 0 0 0 0 0 0 0 0 0 0 0 127 0"/>
      <feOffset dy="4"/>
      <feGaussianBlur stdDeviation="8"/>
      <feColorMatrix values="0 0 0 0 0.576471 0 0 0 0 0.501961 0 0 0 0 0.396078 0 0 0 0.16 0"/>
      <feBlend in2="BackgroundImageFix" result="effect1_dropShadow_4182_35283"/>
      <feBlend in="SourceGraphic" in2="effect1_dropShadow_4182_35283" result="shape"/>
    </filter>
    <linearGradient id="paint0_linear_4182_35283" x1="92.1428" x2="92.1428" y1="45.6694" y2="64.6905" gradientUnits="userSpaceOnUse">
      <stop stop-color="#FDFEFF"/>
      <stop offset=".9964" stop-color="#F5F2EC"/>
    </linearGradient>
    <linearGradient id="paint1_linear_4182_35283" x1="166.646" x2="129.669" y1="96.348" y2="96.4767" gradientUnits="userSpaceOnUse">
      <stop stop-color="#606060"/>
      <stop offset="1" stop-color="#7B7B7B"/>
    </linearGradient>
  </defs>
</svg>