<svg width="230" height="160" viewBox="0 0 230 160" fill="none" xmlns="http://www.w3.org/2000/svg">
<path d="M115.179 137.813C144.518 137.813 168.302 113.948 168.302 84.5095C168.302 55.0706 144.518 31.2056 115.179 31.2056C85.8398 31.2056 62.0558 55.0706 62.0558 84.5095C62.0558 113.948 85.8398 137.813 115.179 137.813Z" fill="#EBEBEB"/>
<path d="M175.954 58.3396C177.61 56.8211 177.726 54.2432 176.212 52.5816C174.699 50.92 172.13 50.804 170.474 52.3224C168.818 53.8408 168.702 56.4188 170.216 58.0804C171.729 59.7419 174.298 59.858 175.954 58.3396Z" fill="#ECEAEA"/>
<path d="M84.478 35.7801C85.8815 35.3224 86.6494 33.8097 86.1933 32.4014C85.7371 30.9932 84.2295 30.2226 82.826 30.6803C81.4225 31.138 80.6546 32.6507 81.1108 34.059C81.5669 35.4673 83.0745 36.2378 84.478 35.7801Z" fill="#ECEAEA"/>
<path d="M90.3109 27.0316C91.2652 26.7204 91.7874 25.6917 91.4772 24.7341C91.167 23.7765 90.1419 23.2525 89.1875 23.5637C88.2331 23.875 87.7109 24.9036 88.0211 25.8613C88.3313 26.8189 89.3565 27.3429 90.3109 27.0316Z" fill="#ECEAEA"/>
<path d="M176.261 40.0682C176.959 39.4288 177.007 38.3434 176.37 37.6438C175.733 36.9441 174.651 36.8953 173.954 37.5346C173.257 38.174 173.208 39.2594 173.845 39.959C174.482 40.6587 175.564 40.7075 176.261 40.0682Z" fill="#ECEAEA"/>
<path d="M134.068 27.2751C134.548 26.8356 134.581 26.0893 134.143 25.6083C133.705 25.1273 132.961 25.0937 132.482 25.5333C132.003 25.9728 131.969 26.7191 132.407 27.2001C132.845 27.6811 133.589 27.7147 134.068 27.2751Z" fill="#ECEAEA"/>
<g filter="url(#filter0_d_4182_35315)">
<path d="M182.5 127.278L49.3264 127.278L66.8326 46.0949H162.745L182.5 127.278Z" fill="#E2DED7"/>
</g>
<path d="M89.8554 127.278H70.015C66.4077 127.278 63.4369 124.176 63.6491 120.54L66.8321 46.0952H71.6065L89.8554 127.278Z" fill="#CDCBC7"/>
<path d="M183.752 127.278H87.9456L71.7125 64.9202L71.6064 64.4924L66.832 46.0952H162.745L166.883 62.0323L167.519 64.4924L167.625 64.9202L183.752 127.278Z" fill="#FEFEFD"/>
<path d="M167.519 64.4924H71.6064L66.832 46.0952H162.745L166.883 62.0323L167.519 64.4924Z" fill="url(#paint0_linear_4182_35315)"/>
<path opacity="0.3" d="M92.0835 59.251C93.9586 59.251 95.4786 57.7186 95.4786 55.8282C95.4786 53.9379 93.9586 52.4055 92.0835 52.4055C90.2084 52.4055 88.6884 53.9379 88.6884 55.8282C88.6884 57.7186 90.2084 59.251 92.0835 59.251Z" fill="#ADB6C8"/>
<path opacity="0.3" d="M148.103 59.251C149.978 59.251 151.498 57.7186 151.498 55.8282C151.498 53.9379 149.978 52.4055 148.103 52.4055C146.228 52.4055 144.708 53.9379 144.708 55.8282C144.708 57.7186 146.228 59.251 148.103 59.251Z" fill="#ADB6C8"/>
<path d="M91.2343 57.2186C90.5977 57.2186 90.0672 56.6838 90.0672 56.0421C90.0672 55.4003 90.5977 54.8655 91.2343 54.8655C93.5684 54.8655 96.0087 51.5498 96.0087 46.5226C96.0087 46.4157 96.0087 46.2017 96.0087 46.0948C95.9026 41.1746 93.4623 38.1797 91.2343 38.1797C89.1123 38.1797 86.7781 41.0677 86.4598 45.56H84.0196C84.3379 39.998 87.4147 35.8266 91.1282 35.8266C95.0538 35.8266 98.1306 40.4259 98.3428 46.3087C98.3428 46.4157 98.3428 46.5226 98.3428 46.6296C98.4489 52.5124 95.266 57.2186 91.2343 57.2186Z" fill="#BCB9B3"/>
<path d="M146.936 57.2186C146.3 57.2186 145.769 56.6838 145.769 56.0421C145.769 55.4003 146.3 54.8655 146.936 54.8655C149.27 54.8655 151.711 51.5498 151.711 46.5226C151.711 46.4157 151.711 46.2017 151.711 46.0948C151.605 41.1746 149.164 38.1797 146.936 38.1797C144.814 38.1797 142.48 41.0677 142.162 45.56H139.722C140.04 39.998 143.117 35.8266 146.83 35.8266C150.756 35.8266 153.833 40.4259 154.045 46.3087C154.045 46.4157 154.045 46.5226 154.045 46.6296C154.151 52.5124 150.968 57.2186 146.936 57.2186Z" fill="#BCB9B3"/>
<path fill-rule="evenodd" clip-rule="evenodd" d="M36 127.171C36 126.55 36.5037 126.046 37.125 126.046H191.498C192.119 126.046 192.623 126.55 192.623 127.171C192.623 127.792 192.119 128.296 191.498 128.296H37.125C36.5037 128.296 36 127.792 36 127.171Z" fill="#EDE5DA"/>
<path d="M148.634 88.5588C147.997 88.5588 147.573 88.024 147.573 87.4892C147.573 86.8474 147.997 86.4195 148.634 86.4195H151.923C152.56 86.4195 152.984 86.9544 152.984 87.4892C152.984 88.1309 152.454 88.5588 151.923 88.5588H148.634Z" fill="#D3CCC3"/>
<path d="M103.436 118.721C103.012 118.721 102.587 118.4 102.375 117.973L100.677 111.662H92.2957C91.6591 111.662 91.2347 111.127 91.2347 110.592C91.2347 109.951 91.7652 109.523 92.2957 109.523H100.041L97.3884 100.11H89.325C88.6884 100.11 88.264 99.5754 88.264 99.0406C88.264 98.3989 88.6884 97.971 89.325 97.971H96.7518L94.0994 88.5585H86.4603C85.8237 88.5585 85.3993 88.0237 85.3993 87.4889C85.3993 86.8472 85.8237 86.4193 86.4603 86.4193H93.5689L90.9164 77.0068H83.5956C82.9591 77.0068 82.5347 76.472 82.5347 75.9372C82.5347 75.2955 82.9591 74.8676 83.5956 74.8676H90.2798L89.2188 71.0171C89.1128 70.4823 89.431 69.8405 89.9615 69.7335C90.0676 69.7335 90.1737 69.7335 90.2798 69.7335C90.7042 69.7335 91.1286 70.0544 91.3408 70.4823L92.614 74.8676H101.102C101.738 74.8676 102.163 75.2955 102.163 75.9372C102.163 76.579 101.738 77.0068 101.102 77.0068H93.2506L95.903 86.4193H109.271L105.027 71.0171C104.921 70.4823 105.24 69.8405 105.77 69.7335C105.876 69.7335 105.982 69.7335 106.088 69.7335C106.513 69.7335 106.937 70.0544 107.149 70.4823L108.423 74.8676H112.985C113.621 74.8676 114.046 75.2955 114.046 75.9372C114.046 76.579 113.515 77.0068 112.985 77.0068H109.059L111.712 86.4193H120.73C121.367 86.4193 121.791 86.9541 121.791 87.4889C121.791 88.1307 121.367 88.5585 120.73 88.5585H112.348L115.001 97.971H128.475L122.64 77.0068H119.775C119.139 77.0068 118.714 76.472 118.714 75.9372C118.714 75.2955 119.245 74.8676 119.775 74.8676H122.003L120.942 71.0171C120.836 70.6962 120.942 70.4823 121.048 70.1614C121.154 69.9475 121.367 69.7335 121.685 69.6266C121.791 69.6266 121.897 69.6266 122.003 69.6266C122.428 69.6266 122.852 69.9475 123.064 70.3753L124.337 74.7607H126.565C127.202 74.7607 127.626 75.1885 127.626 75.8303C127.626 76.472 127.202 76.8999 126.565 76.8999H124.974L127.626 86.3124H141.101L138.448 76.8999H131.552C130.915 76.8999 130.491 76.3651 130.491 75.8303C130.491 75.1885 131.022 74.7607 131.552 74.7607H137.493L136.433 70.9101C136.326 70.3753 136.645 69.7335 137.175 69.6266C137.281 69.6266 137.387 69.6266 137.493 69.6266C137.918 69.6266 138.342 69.9475 138.554 70.3753L139.828 74.7607H153.302L152.241 70.9101C152.135 70.3753 152.453 69.7335 152.984 69.6266C153.09 69.6266 153.196 69.6266 153.302 69.6266C153.727 69.6266 154.151 69.9475 154.363 70.3753L155.636 74.7607H163.912C164.549 74.7607 164.973 75.1885 164.973 75.8303C164.973 76.472 164.549 76.8999 163.912 76.8999H155.955L158.607 86.3124H166.564C167.201 86.3124 167.625 86.8472 167.625 87.382C167.625 88.0237 167.201 88.4516 166.564 88.4516H159.244L161.896 97.8641H169.535C170.172 97.8641 170.596 98.3989 170.596 98.9337C170.596 99.5755 170.172 100.003 169.535 100.003H162.533L165.185 109.416H172.4C173.036 109.416 173.461 109.951 173.461 110.485C173.461 111.127 172.93 111.555 172.4 111.555H165.716L167.307 117.224C167.413 117.759 167.095 118.4 166.564 118.507C166.458 118.507 166.352 118.507 166.246 118.507C165.822 118.507 165.397 118.187 165.185 117.759L163.488 111.555H150.013L151.605 117.117C151.711 117.438 151.605 117.652 151.498 117.973C151.392 118.187 151.18 118.4 150.862 118.507C150.756 118.507 150.65 118.507 150.544 118.507C150.119 118.507 149.695 118.187 149.483 117.759L147.785 111.662H134.311L135.902 117.224C136.008 117.759 135.69 118.4 135.159 118.507C135.053 118.507 134.947 118.507 134.841 118.507C134.417 118.507 133.992 118.187 133.78 117.759L132.082 111.662H118.608L120.2 117.224C120.306 117.759 119.987 118.4 119.457 118.507C119.351 118.507 119.245 118.507 119.139 118.507C118.714 118.507 118.29 118.187 118.078 117.759L116.38 111.662H102.906L104.497 117.331C104.603 117.652 104.497 117.866 104.391 118.187C104.285 118.4 104.073 118.614 103.754 118.721C103.648 118.721 103.542 118.721 103.436 118.721ZM133.674 109.523H162.851L160.198 100.11H146.724L147.679 103.533C147.785 103.854 147.679 104.068 147.573 104.389C147.467 104.603 147.255 104.817 146.936 104.923C146.83 104.923 146.724 104.923 146.618 104.923C146.194 104.923 145.769 104.603 145.557 104.175L144.496 100.217H140.464C139.828 100.217 139.403 99.6824 139.403 99.1476C139.403 98.5059 139.828 98.078 140.464 98.078H143.859L141.207 88.6655H127.839L130.491 98.078H133.78C134.417 98.078 134.841 98.6128 134.841 99.1476C134.841 99.7894 134.417 100.217 133.78 100.217H131.022L133.674 109.523ZM117.971 109.523H131.446L128.793 100.11H115.319L117.971 109.523ZM102.269 109.523H115.743L113.091 100.11H109.165C108.529 100.11 108.104 99.5754 108.104 99.0406C108.104 98.3989 108.635 97.971 109.165 97.971H112.56L109.908 88.5585H96.4335L99.086 97.971H102.587C103.224 97.971 103.648 98.5058 103.648 99.0406C103.648 99.6824 103.118 100.11 102.587 100.11H99.7226L102.269 109.523ZM146.194 97.971H159.668L153.833 77.0068H140.252L146.194 97.971Z" fill="#D3CCC3"/>
<g filter="url(#filter1_d_4182_35315)">
<path d="M173.34 96.348C169.407 96.348 165.563 97.5141 162.293 99.699C159.023 101.884 156.475 104.989 154.97 108.623C153.465 112.256 153.071 116.254 153.838 120.111C154.605 123.968 156.499 127.511 159.28 130.292C162.061 133.072 165.604 134.966 169.461 135.733C173.318 136.501 177.316 136.107 180.949 134.602C184.582 133.097 187.688 130.548 189.873 127.279C192.057 124.009 193.224 120.164 193.224 116.232C193.224 113.621 192.709 111.035 191.71 108.623C190.711 106.21 189.246 104.018 187.4 102.172C185.553 100.325 183.361 98.8608 180.949 97.8615C178.537 96.8623 175.951 96.348 173.34 96.348Z" fill="url(#paint1_linear_4182_35315)"/>
</g>
<path d="M181.416 118.229H173.33C172.794 118.229 172.28 118.016 171.901 117.637C171.522 117.258 171.309 116.744 171.309 116.208V108.121C171.309 107.585 171.522 107.071 171.901 106.692C172.28 106.313 172.794 106.1 173.33 106.1C173.866 106.1 174.381 106.313 174.76 106.692C175.139 107.071 175.352 107.585 175.352 108.121V114.186H181.416C181.953 114.186 182.467 114.399 182.846 114.778C183.225 115.157 183.438 115.671 183.438 116.208C183.438 116.744 183.225 117.258 182.846 117.637C182.467 118.016 181.953 118.229 181.416 118.229Z" fill="white"/>
<defs>
<filter id="filter0_d_4182_35315" x="33.3264" y="41.0949" width="165.173" height="113.183" filterUnits="userSpaceOnUse" color-interpolation-filters="sRGB">
<feFlood flood-opacity="0" result="BackgroundImageFix"/>
<feColorMatrix in="SourceAlpha" type="matrix" values="0 0 0 0 0 0 0 0 0 0 0 0 0 0 0 0 0 0 127 0" result="hardAlpha"/>
<feOffset dy="11"/>
<feGaussianBlur stdDeviation="8"/>
<feComposite in2="hardAlpha" operator="out"/>
<feColorMatrix type="matrix" values="0 0 0 0 0.576471 0 0 0 0 0.501961 0 0 0 0 0.396078 0 0 0 0.16 0"/>
<feBlend mode="normal" in2="BackgroundImageFix" result="effect1_dropShadow_4182_35315"/>
<feBlend mode="normal" in="SourceGraphic" in2="effect1_dropShadow_4182_35315" result="shape"/>
</filter>
<filter id="filter1_d_4182_35315" x="137.456" y="84.348" width="71.7676" height="71.7676" filterUnits="userSpaceOnUse" color-interpolation-filters="sRGB">
<feFlood flood-opacity="0" result="BackgroundImageFix"/>
<feColorMatrix in="SourceAlpha" type="matrix" values="0 0 0 0 0 0 0 0 0 0 0 0 0 0 0 0 0 0 127 0" result="hardAlpha"/>
<feOffset dy="4"/>
<feGaussianBlur stdDeviation="8"/>
<feColorMatrix type="matrix" values="0 0 0 0 0.576471 0 0 0 0 0.501961 0 0 0 0 0.396078 0 0 0 0.16 0"/>
<feBlend mode="normal" in2="BackgroundImageFix" result="effect1_dropShadow_4182_35315"/>
<feBlend mode="normal" in="SourceGraphic" in2="effect1_dropShadow_4182_35315" result="shape"/>
</filter>
<linearGradient id="paint0_linear_4182_35315" x1="117.143" y1="45.6697" x2="117.143" y2="64.6907" gradientUnits="userSpaceOnUse">
<stop stop-color="#F4EADD"/>
<stop offset="0.9964" stop-color="#D7CDC1"/>
</linearGradient>
<linearGradient id="paint1_linear_4182_35315" x1="191.646" y1="96.348" x2="154.669" y2="96.4768" gradientUnits="userSpaceOnUse">
<stop stop-color="#606060"/>
<stop offset="1" stop-color="#7B7B7B"/>
</linearGradient>
</defs>
</svg>
