<svg width="651" height="650" viewBox="0 0 651 650" fill="none" xmlns="http://www.w3.org/2000/svg">
    <path d="M116.28 275.88V153.82a8.8 8.8 0 0 1 4.5-7.68L199.73 102c.57-.32 1.26-.31 1.82.01l8.61 4.99c.57.33.91.93.91 1.59v28.22" stroke="#CDCDCD" stroke-miterlimit="10" stroke-linecap="round"/>
    <path d="M123.74 274.11V157.97a9 9 0 0 1 4.59-7.84l79.56-44.44M211.07 233.92v46.05c0 1.61-.86 3.09-2.25 3.89l-6.44 3.72" stroke="#CDCDCD" stroke-miterlimit="10" stroke-linecap="round"/>
    <path d="M144.49 141.11s2.03 9.27 6.38 9.52c5.49.32 32.73-17.7 32.73-17.7s5.9-3.03 7.26-9.72c1.13-5.55-.04-7.98-.04-7.98M159.27 141.06l17.18-9.78" stroke="#CDCDCD" stroke-miterlimit="10" stroke-linecap="round"/>
    <path d="M525.51 550.13c0 4.21-8.18 7.63-18.26 7.63-10.08 0-18.26-3.42-18.26-7.63 0-.76.27-1.49.76-2.18h.01c.32.24 6.68 4.86 9.02 4.25.16-.04.32-.04.46.05.84.54 4 2.44 6 1.68 2.27-.86 8.42-1.75 9.99-10.09.06-.3.35-.5.64-.43 5.73 1.28 9.64 3.81 9.64 6.72z" fill="#1F1F1F"/>
    <path d="M149.91 518.45c-8.61 12.42-26.9 24.08-58.84 24.08-29.91 0-48.19-10.05-58.61-23.98M341.59 505.2c1.02-.58 5.74-2.51 6.77-1.94 4.18 2.33 12.23 8.25 23.35 4.87 1.1-.33 2.43 1.41 3.28 2.18 6.01 5.47 28.62 24.89 48.3 21.05 17.44-3.4 21.26-11.34 21.26-11.34M159.68 486.08l104.87 59.47a6.72 6.72 0 0 0 6.64-.01l51.57-29.55 6.15-3.48M452.05 463.31l8.72-6.29M478.61 424.12l121.02 71.6a9.044 9.044 0 0 0 9.31-.07l4.37-2.68M234.37 282.17l165 96.28c6.7 3.91 14.96 3.96 21.71.15l56.01-31.66M117.94 427.11l43.08-27.03c.99-.58 2.11-.9 3.26-.92 7.41-.13 30.4.56 51.44-21.65 18.65-19.69 23.15-30.28 23.15-30.28M204.41 293.74l7.99-4.31" stroke="#1F1F1F" stroke-width="6" stroke-miterlimit="10" stroke-linecap="round"/>
    <path d="M297.35 220.98c5.081 0 9.2-2.619 9.2-5.85 0-3.231-4.119-5.85-9.2-5.85-5.081 0-9.2 2.619-9.2 5.85 0 3.231 4.119 5.85 9.2 5.85z" fill="#1F1F1F"/>
    <path d="m161.16 528.75 128.62 76.59a7.222 7.222 0 0 0 7.5-.07l91.55-57.02" stroke="#1F1F1F" stroke-width="6" stroke-miterlimit="10" stroke-linecap="round"/>
    <path d="m46.01 351.69 19.09 10.76c.05.03.09.09.09.15v29.25M66.94 390.76l42.89-25.36 23.18-13.71M109.59 340.49v24.91M131.72 352.45v24.21M87 378.9v27.2c0 .13-.14.21-.25.15l-18.54-10.54M46.01 407.77l19.09 11.05c.05.03.08.09.08.15v4.92" stroke="#CDCDCD" stroke-miterlimit="10" stroke-linecap="round"/>
    <path d="m138.54 376.27-28.95 16.92L87 406.39l-21.82 12.48M109.59 410.23v-17.04M154.21 390.78v4.83c0 .06-.03.12-.08.15l-45.48 26.3M65.18 362.5l134.31-77.68M175.74 276.17v22.38M175.74 269.47l-88.72 52.15c-.05.03-.08.09-.08.15v27.87c0 .13-.14.21-.25.15L68.15 339.6M68.14 310.5l18.79 11.17" stroke="#CDCDCD" stroke-miterlimit="10" stroke-linecap="round"/>
    <path d="m112.87 284.82 18.44 10.67c.05.03.08.09.08.15v28.42M154.01 311.12v14.84" stroke="#CDCDCD" stroke-miterlimit="10" stroke-linecap="round"/>
    <path d="m55.66 442.81-9.36-5.43c-.18-.11-.3-.3-.3-.51v-28.74c0-.22.12-.42.31-.52l21.58-11.73c.19-.1.31-.3.31-.52v-4.3c0-.46-.5-.75-.9-.51l-1.89 1.12c-.19.11-.42.11-.6 0L46.3 380.95c-.18-.11-.3-.3-.3-.51v-28.39c0-.22.12-.42.31-.52l21.52-11.76c.19-.1.31-.3.31-.52v-28.39a.6.6 0 0 1 .3-.52l89.49-51.39c.19-.11.42-.11.61 0l16.92 10.35c.18.11.28.3.28.51v6.66c0 .46.49.74.89.52l4.69-2.69c.19-.11.42-.11.6 0l17.27 10.35c.18.11.29.3.29.51v27.96c0 .22-.12.42-.31.52l-18.03 9.87M51.108 485.671c1.808-1.044 2.683-2.914 1.954-4.177-.73-1.262-2.786-1.44-4.594-.396-1.808 1.044-2.682 2.914-1.953 4.176.729 1.263 2.785 1.44 4.593.397zM132.141 488.631c.731-1.059-.069-2.879-1.787-4.065-1.718-1.186-3.703-1.289-4.434-.23-.731 1.059.069 2.879 1.787 4.065 1.718 1.186 3.703 1.289 4.434.23z" stroke="#CDCDCD" stroke-miterlimit="10" stroke-linecap="round"/>
    <path d="M126.98 453.52c10.3 5.26 16.74 12.75 16.74 21.07 0 15.9-23.52 28.79-52.54 28.79s-52.54-12.89-52.54-28.79c0-8.32 6.44-15.82 16.74-21.07" stroke="#CDCDCD" stroke-miterlimit="10" stroke-linecap="round"/>
    <path d="M69.21 511.62c-18.26-4.38-31.13-14.02-31.13-25.21M144.29 486.41c0 12.64-16.44 23.31-38.51 26.64M102.39 519.46c-3.49.38-7.18 1.01-10.86 1.01-6.99 0-13.7-.72-19.85-2.03" stroke="#CDCDCD" stroke-miterlimit="10" stroke-linecap="round"/>
    <path d="M145.52 514.13c-10.32 12.83-30.78 21.57-54.33 21.57-23.55 0-44.01-8.74-54.33-21.57M38.65 473.52l-1.8 40.61M143.73 473.52l1.79 40.61M69.2 511.64l2.48 6.81M105.79 513.05l-3.4 6.41M127.83 461.21c0 8.97-11.74 19.14-35.85 19.14s-37.43-10.43-37.43-19.14c0-19.78 16.41-35.81 36.64-35.81s36.64 16.03 36.64 35.81z" stroke="#CDCDCD" stroke-miterlimit="10" stroke-linecap="round"/>
    <path d="M127.46 456.11s2.93 1.08 3.21 5.1c1.92 2.06 2.97 4.31 2.97 6.66 0 10.27-19.19 21.89-44.16 21.89-23.45 0-40.76-11.9-40.76-21.89 0-2.27.98-4.45 2.78-6.45.19-4.17 3.4-5.25 3.4-5.25" stroke="#CDCDCD" stroke-miterlimit="10" stroke-linecap="round"/>
    <path d="M91.195 452.073c2.298-5.897.094-12.262-4.923-14.218-5.018-1.955-10.948 1.241-13.246 7.138s-.094 12.263 4.924 14.218c5.017 1.955 10.947-1.24 13.245-7.138z" stroke="#CDCDCD" stroke-miterlimit="10" stroke-linecap="round"/>
    <path d="M83.37 457.03c4.026 0 7.29-4.119 7.29-9.2 0-5.081-3.264-9.2-7.29-9.2s-7.29 4.119-7.29 9.2c0 5.081 3.264 9.2 7.29 9.2zM564.42 281.45h5.98l-.27 29.69c0 .56-.07 1.11-.1 1.67-.15 3-1.11 9.33-6.67 16.71l-3.31-4.29s4.08-4.23 4.36-13.5c.29-9.65 0-30.28 0-30.28h.01zM548.85 338.66s-2.73 4.09-9.36 4.31c-6.63.23-8.27-5.82-8.53-8.2-.26-2.38-.19-12.59-.19-12.59l3.22 1.01 2.47-5.05-9.41-4.23-8.51 13.19 4.93 2.98 2.69-4.39s-1.06 11.06 2.38 16.18c2.3 3.43 5.78 6.94 12.24 6.65 6.24-.28 10.03-4.89 10.03-4.89" fill="#FC3"/>
    <path d="m489.45 319.45-8.19 3.7c-.11.05-.14.19-.07.28l123.92 167.34c.12.16-.07.38-.25.27L481.24 419.3l-.09-.16V323.3M481.15 419.26l123.7-24.59" stroke="#CDCDCD" stroke-miterlimit="10" stroke-linecap="round"/>
    <path d="m596.34 374.73 12.96 17.32s.04.07.04.11v96.23c0 .07-.03.13-.09.16l-4.11 2.53a.188.188 0 0 1-.29-.16v-96.19s-.01-.08-.04-.12l-8.47-10.76M575.27 345.9l-27.63-37.55a.176.176 0 0 0-.19-.07l-5.26 1.07-22.61 4.6M563.68 338.66l-21.5-29.32M537.14 394.67l13.8 8.37M503.26 348.79l79.25 45.88M535.98 325l57.53 33.56c.6.35.97.99.97 1.69v36.49M521.6 317.03l-29.52-17.19a.653.653 0 0 0-.98.56v36.41" stroke="#CDCDCD" stroke-miterlimit="10" stroke-linecap="round"/>
    <path d="m515.71 333.25-11.24-6.11c-.37-.2-.83.07-.83.49v10.7c0 .2.1.38.28.48l40.82 24.14c.37.22.85-.05.85-.48v-7.03M540.42 341.39s-1.55-6.22 3.35-6.24c3.96-.02 6.79 4.38 6.99 7.21.16 2.16.7 4.73-1.59 6.44-1.48 1.1-3.59-.26-3.59-.26M566.07 399.38a.5.5 0 1 0 0-1 .5.5 0 0 0 0 1zM564.04 398.22a.5.5 0 1 0 0-1 .5.5 0 0 0 0 1zM562.02 397.06a.5.5 0 1 0 0-1 .5.5 0 0 0 0 1zM559.99 395.9a.5.5 0 1 0 0-1 .5.5 0 0 0 0 1zM557.96 394.74a.5.5 0 1 0 0-1 .5.5 0 0 0 0 1zM555.93 393.58a.5.5 0 1 0 0-1 .5.5 0 0 0 0 1zM553.9 392.42a.5.5 0 1 0 0-1 .5.5 0 0 0 0 1zM551.87 391.26a.5.5 0 1 0 0-1 .5.5 0 0 0 0 1zM549.84 390.1a.5.5 0 1 0 0-1 .5.5 0 0 0 0 1zM547.81 388.94a.5.5 0 1 0 0-1 .5.5 0 0 0 0 1zM545.78 387.78a.5.5 0 1 0 0-1 .5.5 0 0 0 0 1zM543.76 386.62a.5.5 0 1 0 0-1 .5.5 0 0 0 0 1zM541.73 385.46a.5.5 0 1 0 0-1 .5.5 0 0 0 0 1zM539.7 384.3a.5.5 0 1 0 0-1 .5.5 0 0 0 0 1zM537.67 383.14a.5.5 0 1 0 0-1 .5.5 0 0 0 0 1zM535.64 381.98a.5.5 0 1 0 0-1 .5.5 0 0 0 0 1zM533.61 380.82a.5.5 0 1 0 0-1 .5.5 0 0 0 0 1zM531.58 379.66a.5.5 0 1 0 0-1 .5.5 0 0 0 0 1zM529.55 378.5a.5.5 0 1 0 0-1 .5.5 0 0 0 0 1zM527.52 377.34a.5.5 0 1 0 0-1 .5.5 0 0 0 0 1zM525.49 376.18a.5.5 0 1 0 0-1 .5.5 0 0 0 0 1z" stroke="#CDCDCD" stroke-miterlimit="10" stroke-linecap="round"/>
    <path d="m335.44 262.92 5.27-3.44 76.22 44.2-5.64 3.35-75.85-44.11z" stroke="#212121" stroke-miterlimit="10" stroke-linecap="round"/>
    <path d="m307.16 294.55 27.58-17.06c.6-.37 1.36-.38 1.97-.02l47.86 28.15c1.25.73 1.26 2.53.02 3.28l-28.28 16.62c-.61.37-1.37.37-1.98 0l-47.16-27.71c-1.22-.74-1.23-2.51-.01-3.25v-.01z" stroke="#FC3" stroke-miterlimit="10" stroke-linecap="round"/>
    <path d="m512.23 308.27 13.03-6.97c2.01-1.15 2.03-4.05.02-5.21l-164.7-95.89a15.272 15.272 0 0 0-15.47.06l-104.85 61.67c-3.25 1.92-3.22 6.63.04 8.52l162.89 94.27c3.4 1.97 7.59 1.99 11.01.06l61.92-34.98" stroke="#CDCDCD" stroke-miterlimit="10" stroke-linecap="round"/>
    <path d="M237.85 266.02v9.62c0 .79.42 1.53 1.11 1.93l163.98 94.69c4.44 2.56 9.9 2.57 14.35.03l58.84-33.63M526.77 298.47v7.85c0 1.01-.48 1.97-1.29 2.58l-1.73 1.29" stroke="#CDCDCD" stroke-miterlimit="10" stroke-linecap="round"/>
    <path d="m489.35 305-.34.19-45.61 25.92c-.69.39-1.53.39-2.22 0l-144.31-83.52c-1.48-.86-1.48-3 0-3.86l53.31-30.9c.69-.4 1.54-.4 2.23 0l145.06 83.7c1.49.86 1.49 3.02-.01 3.87" stroke="#CDCDCD" stroke-miterlimit="10" stroke-linecap="round"/>
    <path d="m337.54 227.77 4.14-2.7a.62.62 0 0 1 .63-.02l81.94 47.61c.4.23.4.81 0 1.04l-4.45 2.64c-.19.11-.42.11-.61 0l-81.63-47.55a.608.608 0 0 1-.03-1.03l.01.01zM345.44 243.86l4.14-2.7a.62.62 0 0 1 .63-.02l117.8 68.52c.4.23.4.81 0 1.04l-4.45 2.64c-.19.11-.42.11-.61 0l-117.49-68.46a.608.608 0 0 1-.03-1.03l.01.01zM317.13 239.29l4.14-2.7a.62.62 0 0 1 .63-.02l117.8 68.52c.4.23.4.81 0 1.04l-4.45 2.64c-.19.11-.42.11-.61 0l-117.49-68.46a.608.608 0 0 1-.03-1.03l.01.01zM336.26 262.38l4.14-2.7a.62.62 0 0 1 .63-.02l75.01 43.5c.4.23.4.81 0 1.04l-4.45 2.64c-.19.11-.42.11-.61 0l-74.7-43.44a.608.608 0 0 1-.03-1.03l.01.01zM417.75 310.14l4.14-2.7c.19-.12.43-.13.63-.02l25.25 14.37c.4.23.41.81 0 1.04l-4.44 2.64c-.19.11-.42.11-.61 0l-24.94-14.31a.604.604 0 0 1-.03-1.03v.01zM456.01 284.25l4.14-2.7a.62.62 0 0 1 .63-.02l27.59 16.04c.4.23.4.81 0 1.04l-4.45 2.64c-.19.11-.42.11-.61 0l-27.28-15.97a.604.604 0 0 1-.02-1.03zM306.93 245.56l4.15-2.71c.19-.13.44-.13.64-.01l8.7 5.15c.39.23.39.8 0 1.04l-4.45 2.64c-.19.11-.43.11-.62 0l-8.39-5.08a.603.603 0 0 1-.02-1.02l-.01-.01zM319.86 254.39l4.85-3.47c.19-.14.45-.15.65-.03l8.53 4.9a.6.6 0 0 1 .04 1.02l-4.27 2.89M326.42 233.92l10.15 6.34c.2.12.45.12.65 0l4.04-2.61c.37-.24.37-.79 0-1.02l-9.27-5.77M443.97 313.16l4.15-2.71c.19-.13.44-.13.64-.01l8.7 5.15c.39.23.39.8 0 1.04l-4.45 2.64c-.19.11-.43.11-.62 0l-8.39-5.08a.603.603 0 0 1-.02-1.02l-.01-.01zM346.4 222.08l5.35-3.35c.19-.12.43-.12.62 0l63.76 37.25c.38.22.4.75.05 1.01l-4.28 3.12M426.71 280.84l5.21-4.06c.2-.15.47-.17.68-.04l45.28 27.06a.6.6 0 0 1-.01 1.04l-4.24 2.4M447.56 280.71l-27.74-16.06a.608.608 0 0 1-.04-1.02l3.98-2.72c.19-.13.44-.14.64-.02l28.34 16.36M393.15 219.16l-6.09 5c-.18.15-.16.44.04.56l80.06 46.8c.13.07.29.06.4-.04l6.08-5.45M355.63 198.27a11.91 11.91 0 0 1-2.93-12.19l43.9-136.23c2.49-10.58 8.07-11.75 17.27-6.57l166.16 96.21c4.83 2.8 7.07 8.57 5.38 13.89l-13.87 43.87M563.34 223.19l-21.71 68.67c-2.3 7.26-8.86 8.57-15.45 4.76l-5.48-3.17" stroke="#CDCDCD" stroke-miterlimit="10" stroke-linecap="round"/>
    <path d="M362.33 184.49 404.14 55.2c.87-2.68 3.99-3.88 6.43-2.47l156.15 90.41a4.43 4.43 0 0 1 1.99 5.21l-42.36 129.7a4.43 4.43 0 0 1-6.44 2.45l-155.6-90.82a4.429 4.429 0 0 1-1.98-5.19zM570.6 134.04l3.03 2.28c4.37 3.29 6.1 9.02 4.29 14.17l-6.42 18.27M522.73 294.6l5.01.23c2.52.12 4.81-1.48 5.56-3.9l28.65-91.76" stroke="#CDCDCD" stroke-miterlimit="10" stroke-linecap="round"/>
    <path d="m185.33 453.23-22.41 13.1c-.37.21-.37.74 0 .96l105.35 61.03c.29.17.64.17.92 0l76.05-43.62" stroke="#FC3" stroke-miterlimit="10" stroke-linecap="round"/>
    <path d="m334.69 438.69-50.97-29.6M331.63 505.55l56.74 33.84c.62.37.62 1.27 0 1.63l-94.29 56.23a.92.92 0 0 1-.96 0L162.3 521.61c-.63-.37-.63-1.28 0-1.64l32.95-19.25M265.9 561.99l40.86-24.13M294.79 578.46l66.86-39.12M257.6 400.21v-16.67c0-2.51 1.33-4.84 3.49-6.12l49.58-29.33a21.584 21.584 0 0 1 21.84-.08l123.41 71.82c3.17 1.84 3.24 6.39.14 8.34l-15.56 9.75" stroke="#CDCDCD" stroke-miterlimit="10" stroke-linecap="round"/>
    <path d="M458.33 424.66v24.08c0 1.48-.72 2.88-1.94 3.73l-7.99 5.59M257.6 384.76l88 51.07c.41.24.4.83-.01 1.06l-21.98 12.02c-.93.51-1.51 1.48-1.52 2.54v9.56c0 .62.34 1.2.88 1.5l24.91 13.94c1 .56 1.63 1.62 1.63 2.77v12.65c0 .57-.31 1.11-.81 1.39l-80.3 45.86c-.22.13-.5.13-.72 0l-104.31-59.39c-1.08-.62-1.08-2.18.01-2.79l8.18-4.54M349.1 495.77l7.24 4.5c5.4 3.36 12.22 3.42 17.67.15l.26-.15" stroke="#CDCDCD" stroke-miterlimit="10" stroke-linecap="round"/>
    <path d="m322.08 450.93 1.25 2.75c1.68 3.01 3.35 4.22 6.49 6.24l27.82 16.2c1.57.69 3.19 1.17 4.86.85l.66-.24" stroke="#CDCDCD" stroke-miterlimit="10" stroke-linecap="round"/>
    <path d="M346.62 532.84a.5.5 0 1 0 0-1 .5.5 0 0 0 0 1zM344.6 534.01a.5.5 0 1 0 0-1 .5.5 0 0 0 0 1zM342.58 535.18a.5.5 0 1 0 0-1 .5.5 0 0 0 0 1zM340.56 536.35a.5.5 0 1 0 0-1 .5.5 0 0 0 0 1zM338.53 537.53a.5.5 0 1 0 0-1 .5.5 0 0 0 0 1zM336.51 538.7a.5.5 0 1 0 0-1 .5.5 0 0 0 0 1zM334.49 539.87a.5.5 0 1 0 0-1 .5.5 0 0 0 0 1zM332.47 541.04a.5.5 0 1 0 0-1 .5.5 0 0 0 0 1zM330.45 542.22a.5.5 0 1 0 0-1 .5.5 0 0 0 0 1zM328.43 543.39a.5.5 0 1 0 0-1 .5.5 0 0 0 0 1zM326.4 544.56a.5.5 0 1 0 0-1 .5.5 0 0 0 0 1zM324.38 545.73a.5.5 0 1 0 0-1 .5.5 0 0 0 0 1zM322.36 546.91a.5.5 0 1 0 0-1 .5.5 0 0 0 0 1zM320.34 548.08a.5.5 0 1 0 0-1 .5.5 0 0 0 0 1zM318.32 549.25a.5.5 0 1 0 0-1 .5.5 0 0 0 0 1zM316.29 550.42a.5.5 0 1 0 0-1 .5.5 0 0 0 0 1zM314.27 551.6a.5.5 0 1 0 0-1 .5.5 0 0 0 0 1zM312.25 552.77a.5.5 0 1 0 0-1 .5.5 0 0 0 0 1zM310.23 553.94a.5.5 0 1 0 0-1 .5.5 0 0 0 0 1zM308.21 555.11a.5.5 0 1 0 0-1 .5.5 0 0 0 0 1zM306.19 556.29a.5.5 0 1 0 0-1 .5.5 0 0 0 0 1zM304.16 557.46a.5.5 0 1 0 0-1 .5.5 0 0 0 0 1zM302.14 558.63a.5.5 0 1 0 0-1 .5.5 0 0 0 0 1zM300.12 559.8a.5.5 0 1 0 0-1 .5.5 0 0 0 0 1zM298.1 560.97a.5.5 0 1 0 0-1 .5.5 0 0 0 0 1zM296.08 562.15a.5.5 0 1 0 0-1 .5.5 0 0 0 0 1zM294.06 563.32a.5.5 0 1 0 0-1 .5.5 0 0 0 0 1zM292.03 564.49a.5.5 0 1 0 0-1 .5.5 0 0 0 0 1zM290.01 565.66a.5.5 0 1 0 0-1 .5.5 0 0 0 0 1zM287.99 566.84a.5.5 0 1 0 0-1 .5.5 0 0 0 0 1zM285.97 568.01a.5.5 0 1 0 0-1 .5.5 0 0 0 0 1zM283.95 569.18a.5.5 0 1 0 0-1 .5.5 0 0 0 0 1zM281.92 570.35a.5.5 0 1 0 0-1 .5.5 0 0 0 0 1z" fill="#CDCDCD"/>
    <path d="m383.84 468.61 35.66-19.72" stroke="#EFB400" stroke-miterlimit="10" stroke-linecap="round"/>
    <path d="M253.05 482.07c-.28-1.3-.05-2.67.67-3.8 2.13-3.36 7.86-9.99 19-8.05 13.02 2.27 15.38 9.56 15.38 16.65 0 8.19-4.23 10.67-9.52 11.15-6.37.58-14.09-2.78-19.18-7.18-4.25-3.68-5.64-5.47-6.35-8.77z" stroke="#CDCDCD" stroke-miterlimit="10" stroke-linecap="round"/>
    <path d="M268.53 469.87s.51-14.19-4.76-27.06c-5.28-12.87-19.43-32.95-32.05-42.47 0 0-14.54 6.69-15.44 26.13-.9 19.44 18.63 39.95 38.72 50.03" stroke="#CDCDCD" stroke-miterlimit="10" stroke-linecap="round"/>
    <path d="M283.72 475s10.04-11.85 7.85-30.64c-2.19-18.79-14.16-41.44-45.43-41.7 0 0 34.11 24.84 28.06 64.09M252.93 480.91s-19.41-3.47-34.72-24.45c-15.31-20.98-3.65-44.61 6.15-50.36" stroke="#CDCDCD" stroke-miterlimit="10" stroke-linecap="round"/>
    <path d="M236.19 404.08s11.32.28 13.8 1.79M291.52 455.34l12.19 1.31c.31.03.54.29.54.6v28.87s-1.38 2.19-3.28 0l-.19-26.58c0-.32-.26-.59-.58-.6l-7.28-.3M230.17 469.18l.77 11.13c0 .14-.03.27-.11.39l-10.75 15.21s-.44 3.33 2.83 2.19l11.4-15.98c.08-.11.12-.25.11-.39l-.64-9.78M211.89 443.17l-8.57-5.06a.583.583 0 0 0-.75.12l-15.05 17.19s-.52 3.26 2.64 2.45l13.31-15.13c.19-.22.51-.27.76-.12l9.39 5.73M212.89 422.06l-9.69-11.5a.598.598 0 0 0-.83-.09l-21.23 16s-.59 2.97 2.25 2.51l18.66-13.63c.26-.19.61-.14.82.1l8.91 10.49M278.41 415.11s8.14-8.5 8.11-10.3c-.03-1.8-14.87 0-14.87 0s-1.82 1.85.45 3.02l8.56-.46c.14 0 .21.16.11.25l-4.98 5.06M288.01 430.11l14.53-5.84c.42-.17.87.18.8.63l-3.37 22.1s-1.89 1.75-3.27-.37l3.14-17.83c.05-.3-.26-.54-.54-.4l-10.12 4.94M457.6 503.47c3.47-2.6 7.14-3.38 9.19-1.64 2.71 2.3 1.52 8.14-2.64 13.06s-9.74 7.03-12.45 4.74c-1.85-1.57-2.03-4.6-.54-8.06" stroke="#CDCDCD" stroke-miterlimit="10" stroke-linecap="round"/>
    <path d="m466.79 501.83 39.98 29.04a7.79 7.79 0 0 1 3.2 6.96c-.41 4.7-2.43 11.43-10.41 12.7-1.97.31-3.99-.19-5.63-1.33l-42.23-29.57" stroke="#CDCDCD" stroke-miterlimit="10" stroke-linecap="round"/>
    <path d="M509.95 536.31s4.01 3.04 3.66 5.54c-.43 3.09-.72 4.61-2.86 7.01-1.86 2.09-2.98 2.64-5.57 3.46-1.95.62-5.64-1.79-5.64-1.79M445.78 507.58l10.08 7.47c.23.17.51.24.78.2 1.49-.23 6.16-1.42 5.77-7.32-.02-.31-.19-.6-.44-.78l-12.95-9.51" stroke="#CDCDCD" stroke-miterlimit="10" stroke-linecap="round"/>
    <path d="M442.41 449.89c14.93 37.45 7.23 67.33-14.99 73.94-20.53 6.11-49.52-11.86-61.97-44.73-16.35-43.14-5.66-67.37 16.29-74.84 19.49-6.63 47.59 12.79 60.67 45.62v.01z" stroke="#CDCDCD" stroke-miterlimit="10" stroke-linecap="round"/>
    <path d="M445.85 507.45c-3.41 6.5-9.16 10.84-15.91 12.81-18.73 5.45-44.68-13.54-56.9-45.78-16.04-42.32-8.67-65.38 12.29-71.12" stroke="#CDCDCD" stroke-miterlimit="10" stroke-linecap="round"/>
    <path d="M432.5 450.93c9.88 26.04 8.49 49.51-5.66 54.56-13 4.63-33.98-7.4-44.24-32.51-10.26-25.11-9.38-48.22 4.6-53.72s37.39 10.81 45.3 31.67z" stroke="#CDCDCD" stroke-miterlimit="10" stroke-linecap="round"/>
    <path d="M390.03 420.99s25.87 7.14 36.49 37.07c10.62 29.92 0 44.78 0 44.78" stroke="#CDCDCD" stroke-miterlimit="10" stroke-linecap="round"/>
    <path d="m494.79 474.4-1.3 4.26c-.03.11-.13.18-.24.17l-3.69-.14c-.14 0-.25-.13-.23-.28l.57-4.42c.02-.15-.1-.29-.26-.28l-7.55.41c-.12 0-.23-.08-.25-.2l-.42-2.28a.24.24 0 0 1 .22-.29l7.37-.7c.19-.02.29-.24.17-.4l-2.69-3.43c-.1-.13-.05-.33.11-.38l2.92-1c.08-.03.18 0 .24.05l4.12 3.68c.07.07.18.08.27.04l5.66-2.66c.08-.04.16-.03.23.01l2.29 1.42c.15.1.15.32 0 .42l-4.32 2.78c-.18.11-.14.38.06.44l5.64 1.7c.16.05.23.25.12.38l-1.57 2.06c-.06.08-.16.11-.25.09l-6.93-1.64a.24.24 0 0 0-.29.17v.02zM517.27 487.28l-1.3 4.26c-.03.11-.13.18-.24.17l-3.69-.14c-.14 0-.25-.13-.23-.28l.57-4.42c.02-.15-.1-.29-.26-.28l-7.55.41c-.12 0-.23-.08-.25-.2l-.42-2.28a.24.24 0 0 1 .22-.29l7.37-.7c.19-.02.29-.24.17-.4l-2.69-3.43c-.1-.13-.05-.33.11-.38l2.92-1c.08-.03.18 0 .24.05l4.12 3.68c.07.07.18.08.27.04l5.66-2.66c.08-.04.16-.03.23.01l2.29 1.42c.15.1.15.32 0 .42l-4.32 2.78c-.18.11-.14.38.06.44l5.64 1.7c.16.05.23.25.12.38l-1.57 2.06c-.06.08-.16.11-.25.09l-6.93-1.64a.24.24 0 0 0-.29.17v.02zM539.04 500.09l-1.3 4.26c-.03.11-.13.18-.24.17l-3.69-.14c-.14 0-.25-.13-.23-.28l.57-4.42c.02-.15-.1-.29-.26-.28l-7.55.41c-.12 0-.23-.08-.25-.2l-.42-2.28a.24.24 0 0 1 .22-.29l7.37-.7c.19-.02.29-.24.17-.4l-2.69-3.43c-.1-.13-.05-.33.11-.38l2.92-1c.08-.03.18 0 .24.05l4.12 3.68c.07.07.18.08.27.04l5.66-2.66c.08-.04.16-.03.23.01l2.29 1.42c.15.1.15.32 0 .42l-4.32 2.78c-.18.11-.14.38.06.44l5.64 1.7c.16.05.23.25.12.38l-1.57 2.06c-.06.08-.16.11-.25.09l-6.93-1.64a.24.24 0 0 0-.29.17v.02zM561.51 512.72l-1.3 4.26c-.03.11-.13.18-.24.17l-3.69-.14c-.14 0-.25-.13-.23-.28l.57-4.42c.02-.15-.1-.29-.26-.28l-7.55.41c-.12 0-.23-.08-.25-.2l-.42-2.28a.24.24 0 0 1 .22-.29l7.37-.7c.19-.02.29-.24.17-.4l-2.69-3.43c-.1-.13-.05-.33.11-.38l2.92-1c.08-.03.18 0 .24.05l4.12 3.68c.07.07.18.08.27.04l5.66-2.66c.08-.04.16-.03.23.01l2.29 1.42c.15.1.15.32 0 .42l-4.32 2.78c-.18.11-.14.38.06.44l5.64 1.7c.16.05.23.25.12.38l-1.57 2.06c-.06.08-.16.11-.25.09l-6.93-1.64a.24.24 0 0 0-.29.17v.02zM583.35 526.12l-1.3 4.26c-.03.11-.13.18-.24.17l-3.69-.14c-.14 0-.25-.13-.23-.28l.57-4.42c.02-.15-.1-.29-.26-.28l-7.55.41c-.12 0-.23-.08-.25-.2l-.42-2.28a.24.24 0 0 1 .22-.29l7.37-.7c.19-.02.29-.24.17-.4l-2.69-3.43c-.1-.13-.05-.33.11-.38l2.92-1c.08-.03.18 0 .24.05l4.12 3.68c.07.07.18.08.27.04l5.66-2.66c.08-.04.16-.03.23.01l2.29 1.42c.15.1.15.32 0 .42l-4.32 2.78c-.18.11-.14.38.06.44l5.64 1.7c.16.05.23.25.12.38l-1.57 2.06c-.06.08-.16.11-.25.09l-6.93-1.64a.24.24 0 0 0-.29.17v.02z" fill="#FC3" stroke="#FC3" stroke-miterlimit="10"/>
    <path d="M244.67 161.98c-1.59-7.75-5.4-13.86-11.34-17.04-14.96-8.03-37.81 5.45-51.03 30.11-13.23 24.66-11.83 51.15 3.13 59.18a19.35 19.35 0 0 0 6.91 2.16c-3.84-.09-7.51-1-10.87-2.8-16.8-9.02-19.33-37-5.65-62.5 13.68-25.5 38.4-38.87 55.2-29.85 7.3 3.92 11.91 11.42 13.65 20.74zM243.72 185.31c-1.36 5.78-3.54 11.7-6.57 17.5 3.01-5.84 5.19-11.76 6.57-17.5z" stroke="#CDCDCD" stroke-miterlimit="10" stroke-linecap="round"/>
    <path d="M244.67 161.98c-1.59-7.75-5.4-13.86-11.34-17.04-14.96-8.03-37.81 5.45-51.03 30.11-13.23 24.66-11.83 51.15 3.13 59.18a19.35 19.35 0 0 0 6.91 2.16c14.9.38 32.28-11.48 43.3-30.79.29-.49.56-.99.83-1.49.02-.04.05-.09.07-.13.21-.39.41-.78.61-1.17 3.01-5.84 5.19-11.76 6.57-17.5.04-.12.07-.24.09-.35 1.9-8.18 2.17-16.08.86-22.98z" stroke="#CDCDCD" stroke-miterlimit="10" stroke-linecap="round"/>
    <path d="M235.64 205.6c-11.36 20.22-29.2 32.49-43.3 30.79 14.9.38 32.28-11.48 43.3-30.79zM211.78 326.98s-12.74 3.51-32.95-1.01-47.88 8.84-42.6 40.26c2.32 12.11 18.15 28.73 42.47 24.54 24.32-4.19 47.62-35.21 56.5-52.33 0 0-16.6 2.45-29.34-3.22 0 0 4.5-2.32 5.92-8.24z" stroke="#CDCDCD" stroke-miterlimit="10" stroke-linecap="round"/>
    <path d="M214.74 346.02s-14.04-.9-29.35-9.14c-15.31-8.24-33.59.74-34.49 13.95-.9 13.21 5.15 23.5 17.63 25.82 12.48 2.32 30.25-9.78 30.25-9.78s-13.13.02-19.43-8.61c0 0 13.39 3.59 35.39-12.24z" fill="#FC3"/>
    <path d="M237.152 425.103c1.986-1.272 2.357-4.237.829-6.623-1.528-2.386-4.377-3.289-6.363-2.017-1.986 1.272-2.357 4.237-.829 6.623 1.528 2.386 4.377 3.289 6.363 2.017zM250.836 442.814c2.017-.599 3.07-3.046 2.352-5.466-.718-2.419-2.935-3.895-4.953-3.297-2.017.599-3.07 3.046-2.352 5.466.718 2.419 2.936 3.895 4.953 3.297zM232.494 446.837c1.714-.738 2.372-3.039 1.468-5.139-.903-2.1-3.026-3.205-4.741-2.467-1.714.738-2.372 3.039-1.468 5.139.903 2.1 3.026 3.205 4.741 2.467zM259.614 466.129c1.79-.531 2.713-2.739 2.063-4.931-.651-2.192-2.629-3.538-4.418-3.007-1.79.531-2.713 2.739-2.063 4.931.651 2.192 2.629 3.538 4.418 3.007zM281.116 437.969c2.12-.468 3.414-2.766 2.892-5.134-.522-2.367-2.664-3.907-4.783-3.44-2.12.468-3.415 2.766-2.892 5.134.522 2.367 2.664 3.908 4.783 3.44zM285.832 462.8c.53-2.025-.431-4.03-2.146-4.479-1.715-.449-3.535.828-4.065 2.853-.53 2.025.431 4.031 2.146 4.48 1.715.449 3.535-.829 4.065-2.854zM279.6 486.05s8.4 20.66 22.97 14.67M273.52 484.9s2.99 22.3-18.15 15.25" stroke="#FC3" stroke-miterlimit="10" stroke-linecap="round"/>
    <path d="M292.54 70.79s-13.13 10.91-14.58 26.93l8.59-5.21v11l-8.59 4.73s.48 11.39 14.58 9.46v-11.29l9.85-4.65v10.44s13.32-11.29 14.58-27.22l-8.4 5.02V79.86l9.17-4.44s-2.22-13.42-15.73-9.94v11.49l-9.46 5.19V70.79h-.01z" stroke="#CDCDCD" stroke-linecap="round" stroke-linejoin="round"/>
    <path d="m302.38 101.77-4.87-3.35-9.15 5.03 4.18 2.96M292.54 117.7l-4.18-2.92v-11.33M280.22 114.03s4.98 1.5 8.14.75M302.38 103.45s6.85-7.11 7.74-14.38M308.56 90l-5.6-2.34v-9.85l5.6 2.06M317.73 75.43l-5.69-2.88-9.08 5.26" stroke="#CDCDCD" stroke-linecap="round" stroke-linejoin="round"/>
    <path d="M308.33 65.09s3.77 1.87 3.7 7.47M286.77 76.96l5.77 5.2M280.06 88.71l6.49 3.8" stroke="#CDCDCD" stroke-linecap="round" stroke-linejoin="round"/>
    <path d="m301.82 40.32-8.8 4.38v18.95s-18.34 10.98-22.01 38.12l-16.31 8.81v10.89l15.64-8.88s2.22 17.76 22.78 12.65v18.63l8.69-4.92v-19.66s18.82-12.39 22.59-37.68l15.93-9.33V62.02l-5.6-3.09-11.97 6.17s-4.83-11.56-20.86-7.5l-.08-17.27v-.01z" stroke="#CDCDCD" stroke-linecap="round" stroke-linejoin="round"/>
    <path d="m254.7 121.47-4.83-2.61v-10.62l16.02-9.27c2.7-24.61 22.46-37.84 22.46-37.84V41.92l8.65-4.46 4.82 2.85M266.67 114.67s3.97 9.15 14.47 10.82M288 126.09V141l5.12 2.86M340.32 62.01l-16.8 9.17s.05-3.69-.77-6.09M301.88 53.61s11.47.53 16.17 6M265.9 98.98l5.11 2.79M249.87 108.25l4.83 2.33M288.36 61.14l4.66 2.51M288.36 41.93l4.66 2.77" stroke="#CDCDCD" stroke-linecap="round" stroke-linejoin="round"/>
    <path d="m88.742 218.607-7.057-7.057-7.056 7.057 7.056 7.057 7.057-7.057z" stroke="#FC3" stroke-miterlimit="10"/>
    <path d="M466.45 559.45c3.236 0 5.86-1.643 5.86-3.67s-2.624-3.67-5.86-3.67-5.86 1.643-5.86 3.67 2.624 3.67 5.86 3.67z" stroke="#CDCDCD" stroke-miterlimit="10"/>
    <path d="M465.12 592.13c2.922 0 5.29-1.486 5.29-3.32 0-1.834-2.368-3.32-5.29-3.32s-5.29 1.486-5.29 3.32c0 1.834 2.368 3.32 5.29 3.32z" stroke="#FC3" stroke-miterlimit="10"/>
    <path d="M253.77 363.47c3.17 0 5.74-1.612 5.74-3.6s-2.57-3.6-5.74-3.6c-3.17 0-5.74 1.612-5.74 3.6s2.57 3.6 5.74 3.6z" stroke="#CDCDCD" stroke-miterlimit="10"/>
    <path fill-rule="evenodd" clip-rule="evenodd" d="M111.34 539.39c-.22.38-.71.51-1.1.29a.806.806 0 0 1-.31-1.1c.22-.38.71-.51 1.1-.29.39.22.53.71.31 1.1zM115.29 541.65c-.22.38-.71.51-1.1.29a.806.806 0 0 1-.31-1.1c.22-.38.71-.51 1.1-.29.39.22.53.71.31 1.1zM119.25 543.92c-.22.38-.71.51-1.1.29a.806.806 0 0 1-.31-1.1c.22-.38.71-.51 1.1-.29.39.22.53.71.31 1.1zM123.21 546.18c-.22.38-.71.51-1.1.29a.806.806 0 0 1-.31-1.1.8.8 0 0 1 1.1-.29c.39.22.53.71.31 1.1zM127.17 548.44c-.22.38-.71.51-1.1.29a.806.806 0 0 1-.31-1.1c.22-.38.71-.51 1.1-.29.39.22.53.71.31 1.1zM131.13 550.71c-.22.38-.71.51-1.1.29a.806.806 0 0 1-.31-1.1c.22-.38.71-.51 1.1-.29.39.22.53.71.31 1.1zM135.09 552.97c-.22.38-.71.51-1.1.29a.806.806 0 0 1-.31-1.1c.22-.38.71-.51 1.1-.29.39.22.53.71.31 1.1zM139.05 555.23c-.22.38-.71.51-1.1.29a.806.806 0 0 1-.31-1.1.8.8 0 0 1 1.1-.29c.39.22.53.71.31 1.1zM143.01 557.49c-.22.38-.71.51-1.1.29a.806.806 0 0 1-.31-1.1c.22-.38.71-.51 1.1-.29.39.22.53.71.31 1.1zM146.96 559.76c-.22.38-.71.51-1.1.29a.806.806 0 0 1-.31-1.1c.22-.38.71-.51 1.1-.29.39.22.53.71.31 1.1zM150.92 562.02c-.22.38-.71.51-1.1.29a.806.806 0 0 1-.31-1.1.8.8 0 0 1 1.1-.29c.39.22.53.71.31 1.1zM154.88 564.28c-.22.38-.71.51-1.1.29a.806.806 0 0 1-.31-1.1.8.8 0 0 1 1.1-.29c.39.22.53.71.31 1.1zM158.84 566.55c-.22.38-.71.51-1.1.29a.806.806 0 0 1-.31-1.1c.22-.38.71-.51 1.1-.29.39.22.53.71.31 1.1zM162.8 568.81c-.22.38-.71.51-1.1.29a.806.806 0 0 1-.31-1.1c.22-.38.71-.51 1.1-.29.39.22.53.71.31 1.1zM166.76 571.07c-.22.38-.71.51-1.1.29a.806.806 0 0 1-.31-1.1.8.8 0 0 1 1.1-.29c.39.22.53.71.31 1.1zM170.72 573.34c-.22.38-.71.51-1.1.29a.806.806 0 0 1-.31-1.1.8.8 0 0 1 1.1-.29c.39.22.53.71.31 1.1zM174.75 575.45c-.18.4-.67.58-1.09.39-.41-.2-.57-.7-.37-1.09a.8.8 0 0 1 1.07-.35c.4.18.57.65.39 1.05zM179 577.1c-.13.42-.59.65-1.03.52a.818.818 0 0 1-.5-1.04c.15-.42.61-.62 1.02-.47.42.13.65.57.52 1l-.01-.01zM183.42 578.2c-.08.43-.51.72-.96.64a.816.816 0 0 1-.63-.97c.1-.43.53-.69.95-.6a.8.8 0 0 1 .64.92v.01zM187.94 578.75c-.02.44-.42.78-.87.76-.46-.05-.79-.45-.74-.89.05-.44.44-.75.87-.71.44.02.77.4.75.84h-.01zM192.5 578.74c.03.44-.32.82-.77.86-.46.01-.84-.35-.84-.79 0-.44.34-.8.78-.81.44-.03.81.3.84.74h-.01zM197.02 578.16c.08.43-.21.86-.66.95a.825.825 0 0 1-.94-.68c-.06-.44.24-.84.67-.9.43-.09.84.2.93.63zM201.43 577.03c.14.42-.1.88-.54 1.02-.44.12-.9-.13-1.01-.56-.12-.43.13-.86.55-.98.41-.14.86.09 1 .51v.01zM205.67 575.37c.19.4 0 .89-.41 1.08-.43.17-.91-.02-1.07-.43-.17-.41.03-.87.43-1.04.4-.19.87-.02 1.05.38v.01zM209.74 573.31a.8.8 0 0 1-.35 1.08.8.8 0 1 1-.74-1.42.8.8 0 0 1 1.09.34zM213.79 571.21a.8.8 0 0 1-.35 1.08.8.8 0 1 1-.74-1.42.8.8 0 0 1 1.09.34zM217.84 569.11a.8.8 0 0 1-.35 1.08.8.8 0 1 1-.74-1.42.8.8 0 0 1 1.09.34zM221.88 567.02a.8.8 0 0 1-.35 1.08.8.8 0 1 1-.74-1.42.8.8 0 0 1 1.09.34zM225.93 564.92a.8.8 0 0 1-.35 1.08.8.8 0 1 1-.74-1.42.8.8 0 0 1 1.09.34z" fill="#D5D5D5"/>
    <path fill-rule="evenodd" clip-rule="evenodd" d="M350.44 572.03c-.22.38-.71.51-1.1.29a.809.809 0 0 1-.31-1.1c.22-.38.71-.51 1.1-.29.39.22.53.72.31 1.1zM354.41 574.31c-.22.38-.71.51-1.1.29a.809.809 0 0 1-.31-1.1c.22-.38.71-.51 1.1-.29.39.22.53.72.31 1.1zM358.38 576.59c-.22.38-.71.51-1.1.29a.809.809 0 0 1-.31-1.1c.22-.38.71-.51 1.1-.29.39.22.53.72.31 1.1zM362.35 578.87c-.22.38-.71.51-1.1.29a.809.809 0 0 1-.31-1.1c.22-.38.71-.51 1.1-.29.39.22.53.72.31 1.1zM366.32 581.15c-.22.38-.71.51-1.1.29a.809.809 0 0 1-.31-1.1c.22-.38.71-.51 1.1-.29.39.22.53.72.31 1.1zM370.29 583.44c-.22.38-.71.51-1.1.29a.809.809 0 0 1-.31-1.1c.22-.38.71-.51 1.1-.29.39.22.53.72.31 1.1zM374.26 585.72c-.22.38-.71.51-1.1.29a.809.809 0 0 1-.31-1.1c.22-.38.71-.51 1.1-.29.39.22.53.72.31 1.1zM378.23 588c-.22.38-.71.51-1.1.29a.809.809 0 0 1-.31-1.1c.22-.38.71-.51 1.1-.29.39.22.53.72.31 1.1zM382.2 590.28c-.22.38-.71.51-1.1.29a.809.809 0 0 1-.31-1.1c.22-.38.71-.51 1.1-.29.39.22.53.72.31 1.1zM386.17 592.56c-.22.38-.71.51-1.1.29a.809.809 0 0 1-.31-1.1c.22-.38.71-.51 1.1-.29.39.22.53.72.31 1.1zM390.14 594.84c-.22.38-.71.51-1.1.29a.809.809 0 0 1-.31-1.1c.22-.38.71-.51 1.1-.29.39.22.53.72.31 1.1zM394.11 597.12c-.22.38-.71.51-1.1.29a.809.809 0 0 1-.31-1.1c.22-.38.71-.51 1.1-.29.39.22.53.72.31 1.1zM398.08 599.4c-.22.38-.71.51-1.1.29a.809.809 0 0 1-.31-1.1c.22-.38.71-.51 1.1-.29.39.22.53.72.31 1.1zM402.05 601.68c-.22.38-.71.51-1.1.29a.809.809 0 0 1-.31-1.1c.22-.38.71-.51 1.1-.29.39.22.53.72.31 1.1zM406.02 603.96c-.22.38-.71.51-1.1.29a.809.809 0 0 1-.31-1.1c.22-.38.71-.51 1.1-.29.39.22.53.72.31 1.1zM410 606.23c-.21.39-.73.53-1.11.3a.809.809 0 0 1-.31-1.1c.22-.38.71-.51 1.1-.29.39.23.53.69.31 1.09h.01zM414.17 608.1c-.14.42-.61.63-1.05.47a.772.772 0 0 1-.47-1.04c.17-.4.63-.6 1.04-.45.41.15.62.61.48 1.03v-.01zM418.6 609.22c-.07.43-.5.74-.96.65-.45-.1-.74-.53-.64-.96.1-.43.53-.7.95-.61.42.09.72.48.65.92zM423.16 609.59c0 .44-.37.79-.83.78-.47-.01-.82-.38-.8-.82.03-.44.4-.79.83-.78.43.01.79.38.8.82zM427.71 609.16c.08.43-.23.85-.69.93a.792.792 0 0 1-.92-.69c-.05-.45.26-.82.69-.89.43-.07.84.22.92.65zM432.13 607.98a.78.78 0 0 1-.52 1.02.799.799 0 1 1-.5-1.52c.42-.12.87.09 1.02.5zM436.28 606.06c.22.38.07.88-.34 1.1-.4.23-.91.06-1.1-.33a.83.83 0 0 1 .35-1.08c.38-.21.87-.07 1.09.31zM440.22 603.72c.23.38.1.87-.29 1.1-.39.23-.88.11-1.11-.27-.23-.38-.1-.87.29-1.1.39-.23.88-.11 1.11.27zM444.15 601.38c.23.38.1.87-.29 1.1-.39.23-.88.11-1.11-.27-.23-.38-.1-.87.29-1.1.39-.23.88-.11 1.11.27zM448.08 599.03c.23.38.1.87-.29 1.1-.39.23-.88.11-1.11-.27-.23-.38-.1-.87.29-1.1.39-.23.88-.11 1.11.27zM452.02 596.69c.23.38.1.87-.29 1.1-.39.23-.88.11-1.11-.27-.23-.38-.1-.87.29-1.1.39-.23.88-.11 1.11.27zM455.95 594.34c.23.38.1.87-.29 1.1-.39.23-.88.11-1.11-.27-.23-.38-.1-.87.29-1.1.39-.23.88-.11 1.11.27z" fill="#FFD452"/>
    <path fill-rule="evenodd" clip-rule="evenodd" d="M379.02 554.98c-.22.38-.71.51-1.11.29a.809.809 0 0 1-.31-1.1c.22-.38.71-.51 1.11-.29.39.22.53.72.31 1.1zM383 557.26c-.22.38-.71.51-1.11.29a.8.8 0 0 1-.31-1.1c.22-.38.71-.51 1.11-.29.39.22.53.72.31 1.1zM386.98 559.54c-.22.38-.71.51-1.11.29a.809.809 0 0 1-.31-1.1c.22-.38.71-.51 1.11-.29.4.22.53.72.31 1.1zM390.95 561.83c-.22.38-.71.51-1.11.29a.8.8 0 0 1-.31-1.1c.22-.38.71-.51 1.11-.29.39.22.53.72.31 1.1zM394.93 564.11c-.22.38-.71.51-1.11.29a.809.809 0 0 1-.31-1.1c.22-.38.71-.51 1.11-.29.39.22.53.72.31 1.1zM398.91 566.39c-.22.38-.71.51-1.11.29a.809.809 0 0 1-.31-1.1c.22-.38.71-.51 1.11-.29.39.22.53.72.31 1.1zM402.89 568.67c-.22.38-.71.51-1.11.29a.809.809 0 0 1-.31-1.1c.22-.38.71-.51 1.11-.29.4.22.53.72.31 1.1zM406.87 570.96c-.22.38-.71.51-1.11.29a.809.809 0 0 1-.31-1.1c.22-.38.71-.51 1.11-.29.39.22.53.72.31 1.1zM410.85 573.23c-.21.39-.73.53-1.11.3a.809.809 0 0 1-.31-1.1c.22-.38.71-.51 1.11-.29.39.23.53.7.32 1.09h-.01zM415.05 575.05a.79.79 0 0 1-1.04.49c-.44-.16-.66-.63-.49-1.04.17-.41.63-.62 1.04-.47.4.16.63.59.5 1.02h-.01zM419.52 576.03c-.05.43-.47.77-.93.68-.46-.08-.77-.49-.68-.93.09-.44.5-.73.93-.65.43.08.74.46.69.9h-.01zM424.1 576.13a.79.79 0 0 1-.78.85c-.47.01-.85-.34-.85-.78s.35-.81.78-.82c.43 0 .81.3.85.75zM428.61 575.35c.12.42-.15.89-.6.98-.46.1-.9-.17-.98-.61-.08-.43.19-.86.61-.95.42-.09.85.14.97.57v.01zM432.89 573.72c.2.39.03.9-.4 1.08-.43.18-.91 0-1.08-.41-.17-.41.02-.88.42-1.05.4-.17.86-.03 1.07.37l-.01.01zM436.93 571.54c.21.39.06.88-.33 1.09-.4.22-.89.08-1.1-.31a.808.808 0 0 1 .33-1.09c.4-.22.89-.08 1.1.31zM440.95 569.33c.21.39.06.88-.33 1.09-.4.22-.89.08-1.1-.31a.808.808 0 0 1 .33-1.09c.4-.22.89-.08 1.1.31zM444.97 567.13c.21.39.06.88-.33 1.09-.4.22-.89.08-1.1-.31a.808.808 0 0 1 .33-1.09c.4-.22.89-.08 1.1.31zM448.99 564.92c.21.39.06.88-.33 1.09-.4.22-.89.08-1.1-.31a.808.808 0 0 1 .33-1.09c.4-.22.89-.08 1.1.31zM453.01 562.72c.21.39.06.88-.33 1.09-.4.22-.89.08-1.1-.31a.808.808 0 0 1 .33-1.09c.4-.22.89-.08 1.1.31zM457.03 560.51c.21.39.06.88-.33 1.09-.4.22-.89.08-1.1-.31a.808.808 0 0 1 .33-1.09c.4-.22.89-.08 1.1.31z" fill="#D5D5D5"/>
    <path d="m249.58 320.1 5.99 3.56-7.54.52 1.55-4.08z" stroke="#CDCDCD" stroke-width=".5" stroke-miterlimit="10"/>
    <path d="M297.11 46.21v28.97M297.11 107.41v29.41M257.21 114.99l26.09-14.62M311.26 83.9l25.75-15.08" stroke="#FC3" stroke-width="2" stroke-miterlimit="10" stroke-linecap="round"/>
    <path d="M104.21 109.6v7.57M104.21 95.64v7.58M101.02 106.41h-7.58M114.98 106.41h-7.58" stroke="#CDCDCD" stroke-width="2" stroke-miterlimit="10" stroke-linecap="round"/>
    <path d="M297.85 148.52a.5.5 0 1 0 0-1 .5.5 0 0 0 0 1zM297.85 150.85a.5.5 0 1 0 0-1 .5.5 0 0 0 0 1zM297.85 153.19a.5.5 0 1 0 0-1 .5.5 0 0 0 0 1zM297.85 155.53a.5.5 0 1 0 0-1 .5.5 0 0 0 0 1zM297.85 157.87a.5.5 0 1 0 0-1 .5.5 0 0 0 0 1zM297.85 160.2a.5.5 0 1 0 0-1 .5.5 0 0 0 0 1zM297.85 162.54a.5.5 0 1 0 0-1 .5.5 0 0 0 0 1zM297.85 164.88a.5.5 0 1 0 0-1 .5.5 0 0 0 0 1zM297.85 167.21a.5.5 0 1 0 0-1 .5.5 0 0 0 0 1zM297.85 169.55a.5.5 0 1 0 0-1 .5.5 0 0 0 0 1zM297.85 171.89a.5.5 0 1 0 0-1 .5.5 0 0 0 0 1zM297.85 174.23a.5.5 0 1 0 0-1 .5.5 0 0 0 0 1zM297.85 176.56a.5.5 0 1 0 0-1 .5.5 0 0 0 0 1zM297.85 178.9a.5.5 0 1 0 0-1 .5.5 0 0 0 0 1zM297.85 181.24a.5.5 0 1 0 0-1 .5.5 0 0 0 0 1zM297.85 183.57a.5.5 0 1 0 0-1 .5.5 0 0 0 0 1zM297.85 185.91a.5.5 0 1 0 0-1 .5.5 0 0 0 0 1zM297.85 188.25a.5.5 0 1 0 0-1 .5.5 0 0 0 0 1zM297.85 190.59a.5.5 0 1 0 0-1 .5.5 0 0 0 0 1zM297.85 192.92a.5.5 0 1 0 0-1 .5.5 0 0 0 0 1zM297.85 195.26a.5.5 0 1 0 0-1 .5.5 0 0 0 0 1zM297.85 197.6a.5.5 0 1 0 0-1 .5.5 0 0 0 0 1zM297.85 199.93a.5.5 0 1 0 0-1 .5.5 0 0 0 0 1zM297.85 202.27a.5.5 0 1 0 0-1 .5.5 0 0 0 0 1zM297.85 204.61a.5.5 0 1 0 0-1 .5.5 0 0 0 0 1zM297.85 206.95a.5.5 0 1 0 0-1 .5.5 0 0 0 0 1zM297.85 209.28a.5.5 0 1 0 0-1 .5.5 0 0 0 0 1zM297.85 211.62a.5.5 0 1 0 0-1 .5.5 0 0 0 0 1zM297.85 213.96a.5.5 0 1 0 0-1 .5.5 0 0 0 0 1zM81.69 234.48a.5.5 0 1 0 0-1 .5.5 0 0 0 0 1zM81.69 236.82a.5.5 0 1 0 0-1 .5.5 0 0 0 0 1zM81.69 239.16a.5.5 0 1 0 0-1 .5.5 0 0 0 0 1zM81.69 241.5a.5.5 0 1 0 0-1 .5.5 0 0 0 0 1zM81.69 243.83a.5.5 0 1 0 0-1 .5.5 0 0 0 0 1zM81.69 246.17a.5.5 0 1 0 0-1 .5.5 0 0 0 0 1zM81.69 248.51a.5.5 0 1 0 0-1 .5.5 0 0 0 0 1zM81.69 250.84a.5.5 0 1 0 0-1 .5.5 0 0 0 0 1zM81.69 253.18a.5.5 0 1 0 0-1 .5.5 0 0 0 0 1zM81.69 255.52a.5.5 0 1 0 0-1 .5.5 0 0 0 0 1zM81.69 257.86a.5.5 0 1 0 0-1 .5.5 0 0 0 0 1zM81.69 260.19a.5.5 0 1 0 0-1 .5.5 0 0 0 0 1zM81.69 262.53a.5.5 0 1 0 0-1 .5.5 0 0 0 0 1zM81.69 264.87a.5.5 0 1 0 0-1 .5.5 0 0 0 0 1zM81.69 267.2a.5.5 0 1 0 0-1 .5.5 0 0 0 0 1zM81.69 269.54a.5.5 0 1 0 0-1 .5.5 0 0 0 0 1zM81.69 271.88a.5.5 0 1 0 0-1 .5.5 0 0 0 0 1zM81.69 274.21a.5.5 0 1 0 0-1 .5.5 0 0 0 0 1zM81.69 276.55a.5.5 0 1 0 0-1 .5.5 0 0 0 0 1zM81.69 278.89a.5.5 0 1 0 0-1 .5.5 0 0 0 0 1zM81.69 281.23a.5.5 0 1 0 0-1 .5.5 0 0 0 0 1zM81.69 283.56a.5.5 0 1 0 0-1 .5.5 0 0 0 0 1zM81.69 285.9a.5.5 0 1 0 0-1 .5.5 0 0 0 0 1zM81.69 288.24a.5.5 0 1 0 0-1 .5.5 0 0 0 0 1zM280.87 307.52a.5.5 0 1 0 0-1 .5.5 0 0 0 0 1zM278.81 308.62a.5.5 0 1 0 0-1 .5.5 0 0 0 0 1zM276.74 309.71a.5.5 0 1 0 0-1 .5.5 0 0 0 0 1zM274.67 310.8a.5.5 0 1 0 0-1 .5.5 0 0 0 0 1zM272.61 311.89a.5.5 0 1 0 0-1 .5.5 0 0 0 0 1zM270.54 312.99a.5.5 0 1 0 0-1 .5.5 0 0 0 0 1zM268.48 314.08a.5.5 0 1 0 0-1 .5.5 0 0 0 0 1zM266.41 315.17a.5.5 0 1 0 0-1 .5.5 0 0 0 0 1zM264.34 316.26a.5.5 0 1 0 0-1 .5.5 0 0 0 0 1zM262.28 317.36a.5.5 0 1 0 0-1 .5.5 0 0 0 0 1zM260.21 318.45a.5.5 0 1 0 0-1 .5.5 0 0 0 0 1zM258.15 319.54a.5.5 0 1 0 0-1 .5.5 0 0 0 0 1zM256.08 320.64a.5.5 0 1 0 0-1 .5.5 0 0 0 0 1z" fill="#CDCDCD"/>
    <path d="M308.37 330.08a.5.5 0 1 0 0-1 .5.5 0 0 0 0 1zM306.33 331.21a.5.5 0 1 0 0-1 .5.5 0 0 0 0 1zM304.29 332.35a.5.5 0 1 0 0-1 .5.5 0 0 0 0 1zM302.24 333.48a.5.5 0 1 0 0-1 .5.5 0 0 0 0 1zM300.2 334.62a.5.5 0 1 0 0-1 .5.5 0 0 0 0 1zM314.55 326.65a.5.5 0 1 0 0-1 .5.5 0 0 0 0 1zM312.51 327.78a.5.5 0 1 0 0-1 .5.5 0 0 0 0 1zM310.47 328.92a.5.5 0 1 0 0-1 .5.5 0 0 0 0 1zM298.16 335.75a.5.5 0 1 0 0-1 .5.5 0 0 0 0 1zM296.11 336.89a.5.5 0 1 0 0-1 .5.5 0 0 0 0 1zM294.07 338.02a.5.5 0 1 0 0-1 .5.5 0 0 0 0 1zM292.03 339.15a.5.5 0 1 0 0-1 .5.5 0 0 0 0 1zM289.98 340.29a.5.5 0 1 0 0-1 .5.5 0 0 0 0 1zM287.94 341.42a.5.5 0 1 0 0-1 .5.5 0 0 0 0 1zM285.9 342.56a.5.5 0 1 0 0-1 .5.5 0 0 0 0 1zM283.85 343.69a.5.5 0 1 0 0-1 .5.5 0 0 0 0 1zM281.81 344.83a.5.5 0 1 0 0-1 .5.5 0 0 0 0 1zM279.77 345.96a.5.5 0 1 0 0-1 .5.5 0 0 0 0 1zM277.72 347.1a.5.5 0 1 0 0-1 .5.5 0 0 0 0 1zM275.68 348.23a.5.5 0 1 0 0-1 .5.5 0 0 0 0 1zM273.64 349.36a.5.5 0 1 0 0-1 .5.5 0 0 0 0 1zM271.59 350.5a.5.5 0 1 0 0-1 .5.5 0 0 0 0 1zM269.55 351.63a.5.5 0 1 0 0-1 .5.5 0 0 0 0 1zM267.51 352.77a.5.5 0 1 0 0-1 .5.5 0 0 0 0 1zM265.47 353.9a.5.5 0 1 0 0-1 .5.5 0 0 0 0 1zM263.42 355.04a.5.5 0 1 0 0-1 .5.5 0 0 0 0 1zM261.38 356.17a.5.5 0 1 0 0-1 .5.5 0 0 0 0 1z" fill="#212121"/>
    <path d="M567.83 178.64a.5.5 0 1 0 0-1 .5.5 0 0 0 0 1zM567.83 180.97a.5.5 0 1 0 0-1 .5.5 0 0 0 0 1zM567.83 183.31a.5.5 0 1 0 0-1 .5.5 0 0 0 0 1zM567.83 185.65a.5.5 0 1 0 0-1 .5.5 0 0 0 0 1zM567.83 187.98a.5.5 0 1 0 0-1 .5.5 0 0 0 0 1zM567.83 190.32a.5.5 0 1 0 0-1 .5.5 0 0 0 0 1zM567.83 192.66a.5.5 0 1 0 0-1 .5.5 0 0 0 0 1zM567.83 194.99a.5.5 0 1 0 0-1 .5.5 0 0 0 0 1zM567.83 197.33a.5.5 0 1 0 0-1 .5.5 0 0 0 0 1zM567.83 199.67a.5.5 0 1 0 0-1 .5.5 0 0 0 0 1zM567.83 202.01a.5.5 0 1 0 0-1 .5.5 0 0 0 0 1zM567.83 204.34a.5.5 0 1 0 0-1 .5.5 0 0 0 0 1zM567.83 206.68a.5.5 0 1 0 0-1 .5.5 0 0 0 0 1zM567.83 209.02a.5.5 0 1 0 0-1 .5.5 0 0 0 0 1zM567.83 211.35a.5.5 0 1 0 0-1 .5.5 0 0 0 0 1zM567.83 213.69a.5.5 0 1 0 0-1 .5.5 0 0 0 0 1zM567.83 216.03a.5.5 0 1 0 0-1 .5.5 0 0 0 0 1zM567.83 218.37a.5.5 0 1 0 0-1 .5.5 0 0 0 0 1zM567.83 220.7a.5.5 0 1 0 0-1 .5.5 0 0 0 0 1zM567.83 223.04a.5.5 0 1 0 0-1 .5.5 0 0 0 0 1zM567.83 225.38a.5.5 0 1 0 0-1 .5.5 0 0 0 0 1zM567.83 227.71a.5.5 0 1 0 0-1 .5.5 0 0 0 0 1zM567.83 230.05a.5.5 0 1 0 0-1 .5.5 0 0 0 0 1zM567.83 232.39a.5.5 0 1 0 0-1 .5.5 0 0 0 0 1zM567.83 234.73a.5.5 0 1 0 0-1 .5.5 0 0 0 0 1zM567.83 237.06a.5.5 0 1 0 0-1 .5.5 0 0 0 0 1zM567.83 239.4a.5.5 0 1 0 0-1 .5.5 0 0 0 0 1zM567.83 241.74a.5.5 0 1 0 0-1 .5.5 0 0 0 0 1zM567.83 244.07a.5.5 0 1 0 0-1 .5.5 0 0 0 0 1zM567.83 246.41a.5.5 0 1 0 0-1 .5.5 0 0 0 0 1zM567.83 248.75a.5.5 0 1 0 0-1 .5.5 0 0 0 0 1zM567.83 251.09a.5.5 0 1 0 0-1 .5.5 0 0 0 0 1zM567.83 253.42a.5.5 0 1 0 0-1 .5.5 0 0 0 0 1zM567.83 255.76a.5.5 0 1 0 0-1 .5.5 0 0 0 0 1zM567.83 258.1a.5.5 0 1 0 0-1 .5.5 0 0 0 0 1zM567.83 260.43a.5.5 0 1 0 0-1 .5.5 0 0 0 0 1zM567.83 262.77a.5.5 0 1 0 0-1 .5.5 0 0 0 0 1zM567.83 265.11a.5.5 0 1 0 0-1 .5.5 0 0 0 0 1zM567.83 267.45a.5.5 0 1 0 0-1 .5.5 0 0 0 0 1zM567.83 269.78a.5.5 0 1 0 0-1 .5.5 0 0 0 0 1zM567.83 272.12a.5.5 0 1 0 0-1 .5.5 0 0 0 0 1z" fill="#FC3"/>
    <path d="M596.54 280.55v7.58M596.54 266.59v7.58M593.34 277.36h-7.57M607.3 277.36h-7.57" stroke="#CDCDCD" stroke-width="2" stroke-miterlimit="10" stroke-linecap="round"/>
    <path d="M49.588 485.438c1.245-.278 2.127-1.075 1.97-1.782-.158-.706-1.295-1.053-2.54-.775-1.245.277-2.127 1.075-1.97 1.781.158.706 1.295 1.053 2.54.776zM131.368 487.876c.304-.657-.226-1.548-1.183-1.991-.958-.443-1.98-.269-2.284.387-.303.657.227 1.548 1.184 1.991.957.443 1.98.27 2.283-.387zM195.51 169.73c1.18-.59 2.35-.13 2.89 1.11l17.26 32.03 1.25-27.86c.07-1.34.82-2.63 1.89-3.23 1.07-.6 2.23-.4 2.94.49l7.26 8.48 6.18-3c1.44-.67 2.96-.05 3.4 1.36.44 1.41-.37 3.11-1.82 3.82l-7.96 4.06c-1.05.55-2.18.45-2.88-.29l-3.9-4.27-.9 29c-.03 1.33-.92 2.78-2.18 3.58-1.26.81-2.59.76-3.26-.14l-18.1-30.49-1.81 19.75c-.13 1.51-1.05 3.06-2.27 3.86l-8.59 5.79c-1.59 1.1-3.14.56-3.44-1.24-.3-1.81.75-4.15 2.33-5.22l6.48-4.28 2.97-29.61c.17-1.62 1.09-3.13 2.27-3.72l-.01.02z" fill="#FC3"/>
    <path d="m522.69 145.81-69.85-37.6c-1.52-.8-3.4-.08-4.22 1.61-.81 1.68-.24 3.7 1.27 4.5l69.85 37.92c1.52.84 3.4.09 4.22-1.69.81-1.78.24-3.9-1.27-4.74zM503.1 151.01l-56.15-30.59c-1.52-.81-3.4-.11-4.22 1.57-.81 1.68-.24 3.7 1.27 4.52l56.15 30.85c1.52.85 3.4.12 4.22-1.64.81-1.76.24-3.86-1.27-4.7v-.01z" fill="#CDCDCD"/>
    <path d="M422.97 113.25c-1.36.49-2.79-.26-3.2-1.69l-2.85-9.9c-.41-1.42.36-2.97 1.72-3.47 1.36-.5 2.79.24 3.2 1.66l2.85 9.92c.41 1.43-.36 2.99-1.72 3.49v-.01z" fill="#FC3"/>
    <path d="M419.78 111.56c-.41-1.43.36-2.98 1.72-3.48l15.33-5.7c1.36-.51 2.79.23 3.2 1.67.41 1.44-.36 3.02-1.72 3.53l-15.33 5.67c-1.36.49-2.79-.26-3.2-1.69z" fill="#FC3"/>
    <path d="m506.25 181.6-69.87-39.38c-1.52-.83-3.4-.16-4.22 1.51-.81 1.67-.24 3.7 1.27 4.54l69.87 39.7c1.52.88 3.4.17 4.22-1.59.81-1.76.24-3.9-1.28-4.77l.01-.01zM486.65 186.33l-56.16-32.02c-1.52-.85-3.4-.19-4.22 1.47-.81 1.66-.24 3.7 1.27 4.55l56.17 32.28c1.52.89 3.4.2 4.22-1.54.81-1.74.24-3.86-1.27-4.74h-.01z" fill="#CDCDCD"/>
    <path d="M406.5 146.54c-1.36.46-2.79-.33-3.2-1.77l-2.85-9.99c-.41-1.43.36-2.97 1.72-3.43 1.36-.47 2.79.31 3.2 1.74l2.85 10.01c.41 1.44-.36 2.99-1.72 3.45v-.01z" fill="#FC3"/>
    <path d="M403.3 144.77c-.41-1.44.36-2.98 1.72-3.44l15.34-5.33c1.36-.48 2.79.3 3.2 1.75.41 1.45-.36 3.01-1.72 3.49l-15.34 5.31c-1.36.46-2.79-.33-3.2-1.77v-.01z" fill="#FC3"/>
    <path d="m489.17 218.41-69.89-41.23c-1.52-.87-3.41-.25-4.22 1.4-.81 1.65-.24 3.7 1.27 4.58l69.89 41.54c1.52.92 3.41.26 4.22-1.49.81-1.74.24-3.9-1.28-4.82l.01.02zM469.57 222.65l-56.18-33.51c-1.52-.89-3.41-.28-4.22 1.37-.81 1.64-.24 3.7 1.27 4.6l56.18 33.76c1.52.93 3.41.29 4.22-1.43.81-1.72.24-3.86-1.28-4.78l.01-.01z" fill="#CDCDCD"/>
    <path d="M389.39 180.75c-1.36.43-2.79-.41-3.2-1.86l-2.85-10.08c-.41-1.44.36-2.96 1.72-3.4 1.36-.44 2.79.38 3.2 1.83l2.85 10.1c.41 1.46-.36 2.99-1.72 3.42v-.01z" fill="#FC3"/>
    <path d="M386.19 178.89c-.41-1.45.36-2.98 1.72-3.41l15.34-4.95c1.36-.45 2.79.37 3.2 1.84.41 1.46-.36 3.01-1.72 3.45l-15.34 4.93c-1.36.43-2.79-.41-3.2-1.86z" fill="#FC3"/>
</svg>
