<svg width="20" height="20" viewBox="0 0 20 20" fill="none" xmlns="http://www.w3.org/2000/svg">
<path d="M3 5C3 3.89543 3.89543 3 5 3H7C7.27614 3 7.5 3.22386 7.5 3.5C7.5 3.77614 7.27614 4 7 4H5C4.44772 4 4 4.44772 4 5V7C4 7.27614 3.77614 7.5 3.5 7.5C3.22386 7.5 3 7.27614 3 7V5ZM12.5 3.5C12.5 3.22386 12.7239 3 13 3H15C16.1046 3 17 3.89543 17 5V7C17 7.27614 16.7761 7.5 16.5 7.5C16.2239 7.5 16 7.27614 16 7V5C16 4.44772 15.5523 4 15 4H13C12.7239 4 12.5 3.77614 12.5 3.5ZM3.5 12.5C3.77614 12.5 4 12.7239 4 13V15C4 15.5523 4.44772 16 5 16H7C7.27614 16 7.5 16.2239 7.5 16.5C7.5 16.7761 7.27614 17 7 17H5C3.89543 17 3 16.1046 3 15V13C3 12.7239 3.22386 12.5 3.5 12.5ZM16.5 12.5C16.7761 12.5 17 12.7239 17 13V15C17 16.1046 16.1046 17 15 17H13C12.7239 17 12.5 16.7761 12.5 16.5C12.5 16.2239 12.7239 16 13 16H15C15.5523 16 16 15.5523 16 15V13C16 12.7239 16.2239 12.5 16.5 12.5Z" fill="#242424"/>
<path d="M7 8C7 7.44772 7.44772 7 8 7C8.55228 7 9 7.44772 9 8C9 8.55228 8.55228 9 8 9C7.44772 9 7 8.55228 7 8ZM8 6C6.89543 6 6 6.89543 6 8C6 9.10457 6.89543 10 8 10C9.10457 10 10 9.10457 10 8C10 6.89543 9.10457 6 8 6ZM12 8.5C12 8.22386 12.2239 8 12.5 8C12.7761 8 13 8.22386 13 8.5C13 8.77614 12.7761 9 12.5 9C12.2239 9 12 8.77614 12 8.5ZM12.5 7C11.6716 7 11 7.67157 11 8.5C11 9.32843 11.6716 10 12.5 10C13.3284 10 14 9.32843 14 8.5C14 7.67157 13.3284 7 12.5 7ZM5 12.25C5 11.5596 5.55964 11 6.25 11H9.75C10.4404 11 11 11.5596 11 12.25V12.2812L11 12.2828L11 12.2844L11 12.2883L10.9998 12.2979C10.9996 12.3052 10.9993 12.3142 10.9988 12.3248C10.9978 12.3459 10.9959 12.3736 10.9924 12.4068C10.9896 12.4341 10.9857 12.4653 10.9803 12.5C10.9726 12.5494 10.9618 12.6059 10.9469 12.6676C10.8961 12.877 10.7948 13.1557 10.5919 13.4347C10.1679 14.0177 9.37788 14.5 8 14.5C6.62212 14.5 5.83213 14.0177 5.40813 13.4347C5.20518 13.1557 5.10391 12.877 5.05314 12.6676C5.02766 12.5625 5.01444 12.473 5.00756 12.4068C5.00411 12.3736 5.00222 12.3459 5.0012 12.3248C5.00068 12.3142 5.00038 12.3052 5.00021 12.2979L5.00004 12.2883L5.00001 12.2844L5 12.2828C5 12.2807 5 12.2812 5 12.2812V12.25ZM6.00002 12.2763C6.00022 12.2804 6.00077 12.2896 6.00221 12.3034C6.00509 12.3312 6.0114 12.376 6.02499 12.432C6.05234 12.5448 6.10732 12.6959 6.21687 12.8465C6.41787 13.1229 6.87788 13.5 8 13.5C9.12212 13.5 9.58213 13.1229 9.78313 12.8465C9.89268 12.6959 9.94766 12.5448 9.97501 12.432C9.9886 12.376 9.99491 12.3312 9.99779 12.3034C9.99923 12.2896 9.99978 12.2804 9.99998 12.2763L10 12.25C10 12.1119 9.88807 12 9.75 12H6.25C6.11193 12 6 12.1119 6 12.25L6.00002 12.2763ZM12.499 14C12.1439 14 11.8346 13.9639 11.5661 13.8998C11.7402 13.6249 11.8444 13.3585 11.9062 13.1358C11.9236 13.0734 11.9377 13.0139 11.9492 12.9582C12.1039 12.9843 12.2856 13 12.499 13C13.3887 13 13.7267 12.7275 13.8586 12.5627C13.9322 12.4707 13.9676 12.3806 13.9847 12.3165C13.9932 12.2844 13.9969 12.26 13.9984 12.2469L13.9989 12.2418C13.9946 12.1075 13.8844 12 13.749 12H11.9863C11.9457 11.6328 11.8167 11.2922 11.6211 11H13.749C14.4394 11 14.999 11.5596 14.999 12.25L14.999 12.2516L14.999 12.2534L14.999 12.2573L14.9988 12.2665C14.9986 12.2733 14.9983 12.2814 14.9978 12.2907C14.9968 12.3092 14.9951 12.3327 14.9919 12.3605C14.9856 12.4158 14.9736 12.489 14.9509 12.5741C14.9055 12.7444 14.8159 12.9668 14.6395 13.1873C14.2714 13.6475 13.6094 14 12.499 14Z" fill="#242424"/>
</svg>
