<svg width="24" height="24" viewBox="0 0 24 24" fill="none" xmlns="http://www.w3.org/2000/svg">
<path d="M18.9578 1.10344C20.1707 0.637177 21.3626 1.82895 20.8962 3.04192L18.1394 10.2089C17.65 10.0817 17.1382 10.0117 16.6111 10.0029L19.4958 2.50383L2.49974 9.03997L9.51049 10.8857C10.2948 11.0921 10.9076 11.7048 11.114 12.4892L11.1843 12.7597C10.7338 13.3988 10.3951 14.1222 10.198 14.9023L9.66381 12.87C9.59493 12.6087 9.39001 12.4046 9.12865 12.3359L2.11791 10.4911C0.710002 10.1205 0.602752 8.16321 1.96166 7.64055L18.9578 1.10344Z" fill="#242424"/>
<path d="M16.4999 11C19.5374 11 21.9999 13.4624 21.9999 16.5C21.9999 19.5376 19.5374 22 16.4999 22C13.4623 22 10.9999 19.5376 10.9999 16.5C10.9999 13.4624 13.4623 11 16.4999 11ZM16.4901 13C16.0473 13 15.7714 13.2187 15.6083 13.6924L14.078 18.0361C14.0275 18.1858 13.9999 18.3236 13.9999 18.4248C13.9999 18.777 14.2294 19 14.5946 19C14.9052 18.9999 15.0796 18.8377 15.1884 18.4492L15.4843 17.5381H17.5077L17.8036 18.4619C17.9085 18.8421 18.083 18.9999 18.413 19C18.7548 19 18.9999 18.7608 18.9999 18.4248C18.9998 18.3035 18.98 18.1939 18.9257 18.0361L17.3876 13.6885C17.2205 13.2107 16.9485 13 16.4901 13ZM16.494 14.1982L17.2362 16.5908H15.7401L16.4667 14.1982H16.494Z" fill="#242424"/>
</svg>
