<svg width="24" height="24" viewBox="0 0 24 24" fill="none" xmlns="http://www.w3.org/2000/svg">
<path d="M18.9579 1.10341C20.1709 0.63724 21.3628 1.82895 20.8964 3.04189L18.1396 10.2079C17.6158 10.0718 17.0663 9.99991 16.4999 9.9999C13.4616 9.9999 10.9095 12.0843 10.1972 14.9013L9.66302 12.87C9.59411 12.6088 9.39015 12.4046 9.12884 12.3358L2.1181 10.4911C0.710054 10.1205 0.602895 8.16319 1.96185 7.64052L18.9579 1.10341Z" fill="#242424"/>
<path d="M16.5 11C13.4624 11 11 13.4624 11 16.5C11 19.5376 13.4624 22 16.5 22C19.5376 22 22 19.5376 22 16.5C22 13.4624 19.5376 11 16.5 11ZM16.4902 13C16.9487 13 17.2206 13.2107 17.3877 13.6885L18.9258 18.0361C18.9801 18.1939 19 18.3035 19 18.4248C19 18.7608 18.755 19 18.4131 19C18.0832 18.9999 17.9086 18.8421 17.8037 18.4619L17.5078 17.5381H15.4844L15.1885 18.4492C15.0797 18.8377 14.9053 18.9999 14.5947 19C14.2295 19 14 18.777 14 18.4248C14.0001 18.3236 14.0277 18.1858 14.0781 18.0361L15.6084 13.6924C15.7716 13.2187 16.0474 13 16.4902 13ZM16.4941 14.1982L17.2363 16.5908H15.7402L16.4668 14.1982H16.4941Z" fill="#242424"/>
</svg>
