<svg width="24" height="24" viewBox="0 0 24 24" fill="none" xmlns="http://www.w3.org/2000/svg">
<path fill-rule="evenodd" clip-rule="evenodd" d="M14.2593 20.6916C15.4207 21.4874 16.9985 20.6558 16.9985 19.248L16.9985 4.75303C16.9985 3.33967 15.4096 2.50934 14.2493 3.31634L3.7508 10.6179C2.74548 11.3171 2.75067 12.806 3.76084 13.4982L14.2593 20.6916ZM15.4985 19.248C15.4985 19.4491 15.2731 19.5679 15.1072 19.4542L4.60869 12.2608C4.46438 12.1619 4.46364 11.9492 4.60726 11.8493L15.1057 4.54779C15.2715 4.43251 15.4985 4.55112 15.4985 4.75303L15.4985 19.248Z" fill="#212121"/>
<path d="M20.2485 3.00002C20.6627 3.00002 20.9985 3.3358 20.9985 3.75002L20.9985 20.25C20.9985 20.6642 20.6627 21 20.2485 21C19.8342 21 19.4985 20.6642 19.4985 20.25L19.4985 3.75002C19.4985 3.3358 19.8343 3.00002 20.2485 3.00002Z" fill="#212121"/>
</svg>
