<svg width="20" height="20" viewBox="0 0 20 20" fill="none" xmlns="http://www.w3.org/2000/svg">
<path fill-rule="evenodd" clip-rule="evenodd" d="M12.0529 16.79C12.8833 17.3476 13.9997 16.7525 13.9997 15.7523L13.9997 4.25234C13.9997 3.24816 12.8755 2.65388 12.0457 3.21944L3.54649 9.0123C2.81544 9.51056 2.81917 10.5898 3.55366 11.083L12.0529 16.79ZM12.9997 15.7523C12.9997 15.9523 12.7765 16.0714 12.6104 15.9598L4.11112 10.2527C3.96423 10.1541 3.96348 9.93827 4.10969 9.83862L12.6089 4.04576C12.7749 3.93265 12.9997 4.0515 12.9997 4.25234L12.9997 15.7523Z" fill="#212121"/>
<path d="M16.4997 3C16.7759 3 16.9997 3.22386 16.9997 3.5L16.9997 16.5C16.9997 16.7761 16.7759 17 16.4997 17C16.2236 17 15.9997 16.7761 15.9997 16.5L15.9997 3.5C15.9997 3.22386 16.2236 3 16.4997 3Z" fill="#212121"/>
</svg>
