<svg width="48" height="48" viewBox="0 0 48 48" fill="none" xmlns="http://www.w3.org/2000/svg">
<path d="M40.7541 6C40.0637 6 39.5041 6.55964 39.5041 7.25L39.504 40.75C39.504 41.4404 40.0637 42 40.754 42C41.4444 42 42.0041 41.4404 42.0041 40.75L42.0041 7.25C42.0041 6.55964 41.4444 6 40.7541 6Z" fill="#212121"/>
<path fill-rule="evenodd" clip-rule="evenodd" d="M34.0041 9.25618L34.0041 38.743C34.0041 41.3579 31.073 42.9021 28.9162 41.4234L7.41219 26.6797C5.52924 25.3887 5.52928 22.6096 7.41226 21.3187L28.9163 6.57565C31.073 5.09702 34.0041 6.64126 34.0041 9.25618ZM8.82589 24.6178L30.3299 39.3615C30.8277 39.7028 31.5041 39.3464 31.5041 38.743L31.5041 9.25618C31.5041 8.65273 30.8277 8.29637 30.33 8.63759L8.8259 23.3806C8.39137 23.6785 8.39136 24.3198 8.82589 24.6178Z" fill="#212121"/>
</svg>
