<svg width="28" height="28" viewBox="0 0 28 28" fill="none" xmlns="http://www.w3.org/2000/svg">
<path fill-rule="evenodd" clip-rule="evenodd" d="M16.4715 24.5944C17.9635 25.6302 20.0046 24.5624 20.0046 22.7461L20.0046 5.2549C20.0046 3.43141 17.9492 2.3653 16.4586 3.41564L3.95448 12.2265C2.67703 13.1266 2.68368 15.0229 3.9674 15.914L16.4715 24.5944ZM18.5046 22.7461C18.5046 23.3515 17.8242 23.7075 17.3269 23.3622L4.82279 14.6818C4.39489 14.3848 4.39267 13.7527 4.81849 13.4526L17.3226 4.64181C17.8195 4.2917 18.5046 4.64707 18.5046 5.2549L18.5046 22.7461Z" fill="#212121"/>
<path d="M24.2546 3C23.8404 3 23.5046 3.33579 23.5046 3.75L23.5046 24.25C23.5046 24.6642 23.8404 25 24.2546 25C24.6688 25 25.0046 24.6642 25.0046 24.25L25.0046 3.75C25.0046 3.33579 24.6688 3 24.2546 3Z" fill="#212121"/>
</svg>
