<svg width="16" height="16" viewBox="0 0 16 16" fill="none" xmlns="http://www.w3.org/2000/svg">
<path fill-rule="evenodd" clip-rule="evenodd" d="M9.42203 13.8183C10.0842 14.2878 11.0004 13.8143 11.0004 13.0026L11.0004 3.00177C11.0004 2.18678 10.0778 1.71406 9.41628 2.1901L2.41589 7.22779C1.85896 7.62858 1.86188 8.4584 2.42163 8.85525L9.42203 13.8183ZM10.0004 13.0026L3 8.03947L10.0004 3.00177V13.0026Z" fill="#212121"/>
<path d="M13.5004 2.00433C13.7765 2.00433 14.0004 2.22819 14.0004 2.50433L14.0004 13.5043C14.0004 13.7805 13.7765 14.0043 13.5004 14.0043C13.2242 14.0043 13.0004 13.7805 13.0004 13.5043L13.0004 2.50433C13.0004 2.22819 13.2242 2.00433 13.5004 2.00433Z" fill="#212121"/>
</svg>
