<svg width="32" height="32" viewBox="0 0 32 32" fill="none" xmlns="http://www.w3.org/2000/svg">
<path d="M27.0043 4C26.452 4 26.0043 4.44772 26.0043 5L26.0043 27C26.0043 27.5523 26.452 28 27.0043 28C27.5566 28 28.0043 27.5523 28.0043 27L28.0043 5C28.0043 4.44772 27.5566 4 27.0043 4Z" fill="#212121"/>
<path fill-rule="evenodd" clip-rule="evenodd" d="M19.1067 27.5693C20.7673 28.6878 23.0033 27.4979 23.0033 25.4958L23.0033 6.5045C23.0033 4.4953 20.7532 3.30694 19.0938 4.43974L5.09048 13.9991C3.63101 14.9954 3.63773 17.1502 5.10339 18.1374L19.1067 27.5693ZM21.0033 25.4958C21.0033 25.8962 20.5561 26.1342 20.224 25.9105L6.22068 16.4786C5.92755 16.2812 5.9262 15.8502 6.2181 15.6509L20.2214 6.09155C20.5533 5.86499 21.0033 6.10266 21.0033 6.5045L21.0033 25.4958Z" fill="#212121"/>
</svg>
