<svg width="20" height="20" viewBox="0 0 20 20" fill="none" xmlns="http://www.w3.org/2000/svg">
<path d="M12.4317 4.61065C12.1281 3.09267 10.7953 2 9.24724 2C7.45338 2 5.99969 3.4555 5.99969 5.24878C5.99969 7.04342 7.45448 8.50002 9.2497 8.50002H16.4997C16.7758 8.50002 16.9997 8.27616 16.9997 8.00002C16.9997 7.72387 16.7758 7.50002 16.4997 7.50002H9.2497C8.00734 7.50002 6.99969 6.49171 6.99969 5.24878C6.99969 4.0072 8.00624 3 9.24724 3C10.3186 3 11.241 3.75621 11.4511 4.80677L11.5094 5.09806C11.5636 5.36884 11.827 5.54445 12.0977 5.49029C12.3685 5.43613 12.5441 5.17272 12.49 4.90194L12.4317 4.61065Z" fill="#242424"/>
<path d="M5.99969 9C5.99969 7.61942 4.88052 6.5 3.49984 6.5C2.11919 6.5 1 7.61932 1 8.99992C1 10.3806 2.11926 11.5 3.5 11.5H4.87858C4.63926 11.8575 4.49969 12.2875 4.49969 12.75C4.49969 13.9945 5.51408 15 6.75481 15C7.85782 15 8.80609 14.203 8.98793 13.112L8.99289 13.0822C9.03828 12.8098 8.85427 12.5522 8.58189 12.5068C8.3095 12.4614 8.05189 12.6454 8.00649 12.9178L8.00153 12.9476C7.90056 13.5534 7.37202 14 6.75481 14C6.06255 14 5.49969 13.4385 5.49969 12.75C5.49969 12.0596 6.05933 11.5 6.74969 11.5H9.88916C10.1277 11.1342 10.4085 10.7986 10.7248 10.5H3.5C2.67159 10.5 2 9.82837 2 8.99992C2 8.17155 2.67153 7.5 3.49984 7.5C4.32814 7.5 4.99969 8.17161 4.99969 9C4.99969 9.27614 5.22355 9.5 5.49969 9.5C5.77583 9.5 5.99969 9.27614 5.99969 9Z" fill="#242424"/>
<path d="M14.4997 19C16.985 19 18.9997 16.9853 18.9997 14.5C18.9997 12.0147 16.985 10 14.4997 10C12.0144 10 9.99969 12.0147 9.99969 14.5C9.99969 16.9853 12.0144 19 14.4997 19ZM13.8991 12.8318L14.5272 14.5904L15.1072 13.1469C15.1796 12.9667 15.3498 12.8447 15.5437 12.8341C15.7376 12.8234 15.9201 12.926 16.0119 13.0972L16.5848 14.1667H16.9997C17.2758 14.1667 17.4997 14.3905 17.4997 14.6667C17.4997 14.9428 17.2758 15.1667 16.9997 15.1667H16.2854C16.1011 15.1667 15.9317 15.0653 15.8447 14.9028L15.6359 14.5131L14.9636 16.1864C14.8862 16.3792 14.6976 16.504 14.4899 16.4999C14.2822 16.4959 14.0987 16.3638 14.0288 16.1682L13.3859 14.3681L13.1735 14.8636C13.0948 15.0475 12.914 15.1667 12.714 15.1667H11.9997C11.7235 15.1667 11.4997 14.9428 11.4997 14.6667C11.4997 14.3905 11.7235 14.1667 11.9997 14.1667H12.3843L12.9687 12.803C13.0497 12.614 13.2382 12.4939 13.4437 12.5002C13.6493 12.5066 13.83 12.6382 13.8991 12.8318Z" fill="#242424"/>
</svg>
