<svg width="20" height="20" viewBox="0 0 20 20" fill="none" xmlns="http://www.w3.org/2000/svg">
<path d="M14.4997 19C12.0144 19 9.99969 16.9853 9.99969 14.5C9.99969 12.0147 12.0144 10 14.4997 10C16.985 10 18.9997 12.0147 18.9997 14.5C18.9997 16.9853 16.985 19 14.4997 19ZM13.8991 12.8318C13.83 12.6382 13.6493 12.5066 13.4437 12.5002C13.2382 12.4939 13.0497 12.614 12.9687 12.803L12.3843 14.1667H11.9997C11.7235 14.1667 11.4997 14.3905 11.4997 14.6667C11.4997 14.9428 11.7235 15.1667 11.9997 15.1667H12.714C12.914 15.1667 13.0948 15.0475 13.1735 14.8636L13.3859 14.3681L14.0288 16.1682C14.0987 16.3638 14.2822 16.4959 14.4899 16.4999C14.6976 16.504 14.8862 16.3792 14.9636 16.1864L15.6359 14.5131L15.8447 14.9028C15.9317 15.0653 16.1011 15.1667 16.2854 15.1667H16.9997C17.2758 15.1667 17.4997 14.9428 17.4997 14.6667C17.4997 14.3905 17.2758 14.1667 16.9997 14.1667H16.5848L16.0119 13.0972C15.9201 12.926 15.7376 12.8234 15.5437 12.8341C15.3498 12.8447 15.1796 12.9667 15.1072 13.1469L14.5272 14.5904L13.8991 12.8318Z" fill="#242424"/>
<path d="M12.9269 3.81162C12.5999 2.17678 11.1645 1 9.49724 1C7.56516 1 5.99969 2.56757 5.99969 4.49878C5.99969 6.43134 7.56626 8.00002 9.4997 8.00002H16.2497C16.6639 8.00002 16.9997 7.66423 16.9997 7.25002C16.9997 6.8358 16.6639 6.50002 16.2497 6.50002H9.4997C8.39556 6.50002 7.49969 5.60379 7.49969 4.49878C7.49969 3.39513 8.39446 2.5 9.49724 2.5C10.4494 2.5 11.2693 3.17209 11.456 4.1058L11.5143 4.39709C11.5955 4.80326 11.9906 5.06667 12.3968 4.98544C12.8029 4.9042 13.0664 4.50908 12.9851 4.10291L12.9269 3.81162Z" fill="#242424"/>
<path d="M5.64021 7.354C5.2253 6.52418 4.37717 6 3.4494 6C2.09663 6 1 7.09663 1 8.4494V8.49999C1 9.8807 2.11929 11 3.5 11H4.41607C4.3087 11.2708 4.24969 11.566 4.24969 11.875C4.24969 13.1886 5.31805 14.25 6.62783 14.25C7.42101 14.25 8.16479 13.8547 8.60702 13.1942L8.6229 13.1705C8.85335 12.8263 8.76115 12.3605 8.41696 12.13C8.07277 11.8996 7.60693 11.9918 7.37648 12.336L7.36061 12.3597C7.19776 12.6029 6.92224 12.75 6.62783 12.75C6.1427 12.75 5.74969 12.3564 5.74969 11.875C5.74969 11.3918 6.14144 11 6.62469 11H9.99969L10.0035 11H10.2569C10.7819 10.3642 11.4472 9.84843 12.2052 9.49999H3.5C2.94771 9.49999 2.5 9.05228 2.5 8.49999V8.4494C2.5 7.92506 2.92506 7.5 3.4494 7.5C3.80901 7.5 4.13775 7.70317 4.29857 8.02482L4.32887 8.08541C4.51411 8.4559 4.96462 8.60606 5.3351 8.42082C5.70559 8.23558 5.85575 7.78507 5.67051 7.41459L5.64021 7.354Z" fill="#242424"/>
</svg>
