<svg width="24" height="24" viewBox="0 0 24 24" fill="none" xmlns="http://www.w3.org/2000/svg">
<path d="M14.9229 4.88407C14.4079 3.16712 12.8082 2 11.0265 2C8.82533 2 6.99969 3.78289 6.99969 6.00001C6.99969 8.20915 8.79055 10 10.9997 10H20.2497C20.6639 10 20.9997 9.66423 20.9997 9.25002C20.9997 8.8358 20.6639 8.50002 20.2497 8.50002H10.9997C9.61898 8.50002 8.49969 7.38072 8.49969 6.00001C8.49969 4.62727 9.63772 3.5 11.0265 3.5C12.1566 3.5 13.1645 4.24293 13.4862 5.3151L13.5313 5.46551C13.6503 5.86226 14.0685 6.08739 14.4652 5.96837C14.8619 5.84935 15.0871 5.43123 14.9681 5.03449L14.9229 4.88407Z" fill="#242424"/>
<path d="M6.7112 10.0128C6.31385 8.82078 5.19408 8 3.92909 8C2.3114 8 1 9.3114 1 10.9291V11C1 12.6568 2.34314 14 4 14H5.29955C5.10783 14.375 4.99969 14.7999 4.99969 15.25C4.99969 16.7688 6.23091 18 7.74969 18H7.88454C8.85186 18 9.73636 17.4541 10.1701 16.5895C10.3558 16.2193 10.2062 15.7686 9.83597 15.5828C9.46572 15.3971 9.01503 15.5467 8.8293 15.9169C8.65002 16.2744 8.2844 16.5 7.88454 16.5H7.74969C7.05934 16.5 6.49969 15.9404 6.49969 15.25C6.49969 14.5596 7.05934 14 7.74969 14H10.7497L10.7535 14H12.0215C12.3838 13.4341 12.8314 12.9281 13.3461 12.5H4C3.17157 12.5 2.5 11.8284 2.5 11V10.9291C2.5 10.1398 3.13983 9.5 3.92909 9.5C4.54 9.5 5.09232 9.89959 5.28818 10.4872C5.41916 10.8801 5.8439 11.0925 6.23686 10.9615C6.62982 10.8305 6.84219 10.4058 6.7112 10.0128Z" fill="#242424"/>
<path d="M17.5 12C14.4624 12 12 14.4624 12 17.5C12 20.5376 14.4624 23 17.5 23C20.5376 23 23 20.5376 23 17.5C23 14.4624 20.5376 12 17.5 12ZM16.4743 14.8419L17.5277 18.0021L18.5318 15.3244C18.6017 15.1382 18.7752 15.0111 18.9738 15.0007C19.1724 14.9903 19.3583 15.0985 19.4472 15.2764L20.309 17H21C21.2761 17 21.5 17.2239 21.5 17.5C21.5 17.7761 21.2761 18 21 18H20C19.8106 18 19.6375 17.893 19.5528 17.7236L19.0656 16.7492L17.9682 19.6756C17.8938 19.8739 17.7025 20.0038 17.4907 19.9999C17.279 19.996 17.0926 19.8591 17.0257 19.6581L15.9573 16.453L15.4642 17.6857C15.3883 17.8755 15.2045 18 15 18H14C13.7239 18 13.5 17.7761 13.5 17.5C13.5 17.2239 13.7239 17 14 17H14.6615L15.5358 14.8143C15.6137 14.6195 15.805 14.4941 16.0147 14.5002C16.2244 14.5064 16.408 14.6428 16.4743 14.8419Z" fill="#242424"/>
</svg>
