<svg width="24" height="24" viewBox="0 0 24 24" fill="none" xmlns="http://www.w3.org/2000/svg">
<path d="M15.2528 4.6902C14.6013 3.06151 13.013 2 11.2673 2C8.9271 2 6.99969 3.89579 6.99969 6.25001C6.99969 8.59722 8.90248 10.5 11.2497 10.5H19.9997C20.552 10.5 20.9997 10.0523 20.9997 9.50002C20.9997 8.94773 20.552 8.50002 19.9997 8.50002H11.2497C10.0071 8.50002 8.99969 7.49265 8.99969 6.25001C8.99969 5.01437 10.0176 4 11.2673 4C12.2036 4 13.0512 4.57141 13.3958 5.43298L13.5712 5.87139C13.7763 6.38417 14.3583 6.63359 14.8711 6.42848C15.3839 6.22336 15.6333 5.64139 15.4282 5.12861L15.2528 4.6902Z" fill="#242424"/>
<path d="M7.19837 10.1838C6.76744 8.89098 5.5531 8 4.17909 8C2.42333 8 1 9.42333 1 11.1791V11.25C1 13.0449 2.45507 14.5 4.25 14.5H5.06636C4.90589 14.8848 4.81727 15.307 4.81727 15.75V15.8209C4.81727 17.5767 6.2406 19 7.99636 19C9.23645 19 10.3465 18.2742 10.8679 17.1823C11.0446 16.8124 11.1095 16.5878 11.0446 16.2888C10.9721 15.9551 10.7306 15.6671 10.3832 15.5513C9.85925 15.3767 9.29293 15.6598 9.11828 16.1838C8.956 16.6706 8.49826 17 7.99636 17C7.34517 17 6.81727 16.4721 6.81727 15.8209V15.75C6.81727 15.0597 7.37691 14.5 8.06727 14.5H11.7322C12.1948 13.7435 12.5799 13.1145 13.3464 12.5H4.25C3.55964 12.5 3 11.9403 3 11.25V11.1791C3 10.5279 3.5279 10 4.17909 10C4.68098 10 5.13873 10.3294 5.30101 10.8162C5.47566 11.3402 6.04198 11.6233 6.56592 11.4487C7.08986 11.274 7.37302 10.7077 7.19837 10.1838Z" fill="#242424"/>
<path d="M17.5 12C20.5376 12 23 14.4624 23 17.5C23 20.5376 20.5376 23 17.5 23C14.4624 23 12 20.5376 12 17.5C12 14.4624 14.4624 12 17.5 12ZM16.4743 14.8419C16.408 14.6428 16.2244 14.5064 16.0147 14.5002C15.805 14.4941 15.6137 14.6195 15.5358 14.8143L14.6615 17H14C13.7239 17 13.5 17.2239 13.5 17.5C13.5 17.7761 13.7239 18 14 18H15C15.2045 18 15.3883 17.8755 15.4642 17.6857L15.9573 16.453L17.0257 19.6581C17.0926 19.8591 17.279 19.996 17.4907 19.9999C17.7025 20.0038 17.8938 19.8739 17.9682 19.6756L19.0656 16.7492L19.5528 17.7236C19.6375 17.893 19.8106 18 20 18H21C21.2761 18 21.5 17.7761 21.5 17.5C21.5 17.2239 21.2761 17 21 17H20.309L19.4472 15.2764C19.3583 15.0985 19.1724 14.9903 18.9738 15.0007C18.7752 15.0111 18.6017 15.1382 18.5318 15.3244L17.5277 18.0021L16.4743 14.8419Z" fill="#242424"/>
</svg>
