<svg width="24" height="24" viewBox="0 0 24 24" fill="none" xmlns="http://www.w3.org/2000/svg">
<path d="M3.66712 6.46981C5.45739 3.77721 8.52099 2 12 2C15.479 2 18.5426 3.77721 20.3329 6.46981C21.3863 8.05409 22 9.95651 22 12C22 14.0435 21.3863 15.9459 20.3329 17.5302C18.5426 20.2228 15.479 22 12 22C8.52099 22 5.45739 20.2228 3.66712 17.5302C2.61375 15.9459 2 14.0435 2 12C2 9.95651 2.61375 8.05409 3.66712 6.46981ZM7 12C7 9.23858 9.23858 7 12 7C12.4142 7 12.75 6.66421 12.75 6.25C12.75 5.83579 12.4142 5.5 12 5.5C8.41015 5.5 5.5 8.41015 5.5 12C5.5 13.2416 5.84882 14.4039 6.45419 15.3919C6.67061 15.745 7.13236 15.8559 7.48554 15.6395C7.83872 15.4231 7.94959 14.9613 7.73317 14.6081C7.2682 13.8493 7 12.9571 7 12Z" fill="#212121"/>
</svg>
