<svg width="20" height="20" viewBox="0 0 20 20" fill="none" xmlns="http://www.w3.org/2000/svg">
<path d="M3 10C3 6.13401 6.13401 3 10 3C13.866 3 17 6.13401 17 10C17 13.866 13.866 17 10 17C6.13401 17 3 13.866 3 10ZM10 2C5.58172 2 2 5.58172 2 10C2 14.4183 5.58172 18 10 18C14.4183 18 18 14.4183 18 10C18 5.58172 14.4183 2 10 2ZM6 10C6 7.79086 7.79086 6 10 6C10.2761 6 10.5 5.77614 10.5 5.5C10.5 5.22386 10.2761 5 10 5C7.23858 5 5 7.23858 5 10C5 11.0272 5.31026 11.9834 5.84227 12.7781C5.99588 13.0076 6.30643 13.0691 6.5359 12.9155C6.76538 12.7619 6.82689 12.4513 6.67328 12.2219C6.24801 11.5865 6 10.823 6 10Z" fill="#212121"/>
</svg>
