<svg width="20" height="20" viewBox="0 0 20 20" fill="none" xmlns="http://www.w3.org/2000/svg">
<path d="M17 4.5C17 4.22386 16.7761 4 16.5 4C16.2239 4 16 4.22386 16 4.5V9.84579C15.9607 9.59095 15.8235 9.34884 15.5882 9.1829L10.5764 5.64749C9.91399 5.18019 9 5.65396 9 6.46464V8.76795L4.57643 5.64749C3.91399 5.18019 3 5.65396 3 6.46464V13.5355C3 14.3461 3.91399 14.8199 4.57643 14.3526L9 11.2321V13.5355C9 14.3461 9.91399 14.8199 10.5764 14.3526L15.5882 10.8172C15.8235 10.6513 15.9607 10.4091 16 10.1543V15.5C16 15.7761 16.2239 16 16.5 16C16.7761 16 17 15.7761 17 15.5V4.5Z" fill="#212121"/>
</svg>
