<svg width="20" height="20" viewBox="0 0 20 20" fill="none" xmlns="http://www.w3.org/2000/svg">
<path d="M9.01825 5.48617C9.01825 4.66707 9.94909 4.19538 10.6096 4.67976L16.4892 8.99146C17.1703 9.4909 17.1703 10.508 16.4892 11.0075L10.6096 15.3192C9.94909 15.8036 9.01825 15.3319 9.01825 14.5128V11.3528L3.60961 15.3192C2.94909 15.8036 2.01825 15.3319 2.01825 14.5128V5.48617C2.01825 4.66707 2.94909 4.19538 3.60961 4.67976L9.01825 8.6461V5.48617Z" fill="#242424"/>
<path d="M17.4883 4C17.7644 4 17.9883 4.22386 17.9883 4.5V15.5C17.9883 15.7761 17.7644 16 17.4883 16C17.2121 16 16.9883 15.7761 16.9883 15.5V4.5C16.9883 4.22386 17.2121 4 17.4883 4Z" fill="#242424"/>
</svg>
