<svg width="20" height="20" viewBox="0 0 20 20" fill="none" xmlns="http://www.w3.org/2000/svg">
<path d="M10 8.5C9.17157 8.5 8.5 7.82843 8.5 7C8.5 6.17157 9.17157 5.5 10 5.5C10.8284 5.5 11.5 6.17157 11.5 7C11.5 7.82843 10.8284 8.5 10 8.5ZM10 7.5C10.2761 7.5 10.5 7.27614 10.5 7C10.5 6.72386 10.2761 6.5 10 6.5C9.72386 6.5 9.5 6.72386 9.5 7C9.5 7.27614 9.72386 7.5 10 7.5Z" fill="#212121"/>
<path d="M4 5V15C4 16.6569 5.34315 18 7 18H8.82056C8.3104 17.4435 8 16.6999 8 15.8875C8 15.5796 8.04454 15.2816 8.12761 15H8C7.72386 15 7.5 14.7761 7.5 14.5C7.5 14.2239 7.72386 14 8 14H8.6328C9.00604 13.5073 9.52238 13.1295 10.1216 12.9307C10.1721 12.7826 10.2319 12.6388 10.3003 12.5L8 12.5C7.72386 12.5 7.5 12.2761 7.5 12C7.5 11.7239 7.72386 11.5 8 11.5L11.0299 11.5C11.6698 10.8815 12.5385 10.5 13.5 10.5C14.4765 10.5 15.3574 10.8935 16 11.5292V5C16 3.34315 14.6569 2 13 2H7C5.34315 2 4 3.34315 4 5ZM7.84959 5H12.1504C12.6015 5 12.9506 5.39539 12.8946 5.84303L12.5821 8.34303C12.5352 8.71835 12.2162 9 11.8379 9H8.16209C7.78384 9 7.46479 8.71835 7.41788 8.34303L7.10538 5.84303C7.04942 5.39539 7.39846 5 7.84959 5Z" fill="#212121"/>
<path d="M10.9479 13.7798C11.104 12.4949 12.1871 11.5 13.5 11.5C14.8129 11.5 15.896 12.4949 16.0521 13.7798C17.1401 13.8533 18 14.7688 18 15.8875C18 17.0542 17.0646 18 15.9107 18H11.0893C9.9354 18 9 17.0542 9 15.8875C9 14.7688 9.85994 13.8533 10.9479 13.7798Z" fill="#212121"/>
</svg>
