<svg width="28" height="28" viewBox="0 0 28 28" fill="none" xmlns="http://www.w3.org/2000/svg">
<path d="M8 2C5.92893 2 4.25 3.67894 4.25 5.75V22.2497C4.25 24.3207 5.92893 25.9997 8 25.9997H13.3839C12.9229 25.5916 12.5551 25.0788 12.3149 24.4997H8C6.75736 24.4997 5.75 23.4923 5.75 22.2497V5.75C5.75 4.50736 6.75736 3.5 8 3.5H20C21.2426 3.5 22.25 4.50736 22.25 5.75V16.4004C22.8889 16.8688 23.4068 17.4956 23.75 18.2218V5.75C23.75 3.67893 22.0711 2 20 2H8Z" fill="#212121"/>
<path d="M16.619 16.5L10.75 16.5C10.3358 16.5 10 16.8358 10 17.25C10 17.6642 10.3358 18 10.75 18H15.3619C15.6753 17.4167 16.1044 16.9055 16.619 16.5Z" fill="#212121"/>
<path d="M13.1986 20H10.75C10.3358 20 10 20.3358 10 20.75C10 21.1642 10.3358 21.5 10.75 21.5H12.2469C12.4531 20.9307 12.7805 20.4194 13.1986 20Z" fill="#212121"/>
<path d="M16 9C16 10.1046 15.1046 11 14 11C12.8954 11 12 10.1046 12 9C12 7.89543 12.8954 7 14 7C15.1046 7 16 7.89543 16 9Z" fill="#212121"/>
<path d="M9.72951 4.75C8.36028 4.75 7.30849 5.96272 7.50213 7.3182L8.07356 11.3182C8.23191 12.4267 9.18123 13.25 10.3009 13.25H17.6991C18.8188 13.25 19.7681 12.4267 19.9264 11.3182L20.4979 7.3182C20.6915 5.96272 19.6397 4.75 18.2705 4.75H9.72951ZM8.98705 7.10606C8.92251 6.65424 9.2731 6.25 9.72951 6.25H18.2705C18.7269 6.25 19.0775 6.65424 19.0129 7.10607L18.4415 11.1061C18.3887 11.4756 18.0723 11.75 17.6991 11.75H10.3009C9.92771 11.75 9.61126 11.4756 9.55848 11.1061L8.98705 7.10606Z" fill="#212121"/>
<path d="M15.8136 19.832C16.0391 17.9541 17.6035 16.5 19.5 16.5C21.3965 16.5 22.9609 17.9541 23.1864 19.832C24.7579 19.9394 26 21.2775 26 22.9125C26 24.6177 24.6489 26 22.9821 26H16.0179C14.3511 26 13 24.6177 13 22.9125C13 21.2775 14.2421 19.9394 15.8136 19.832Z" fill="#212121"/>
</svg>
