<svg width="24" height="24" viewBox="0 0 24 24" fill="none" xmlns="http://www.w3.org/2000/svg">
<path d="M12 10.25C10.8954 10.25 10 9.35457 10 8.25C10 7.14543 10.8954 6.25 12 6.25C13.1046 6.25 14 7.14543 14 8.25C14 9.35457 13.1046 10.25 12 10.25ZM12 8.75C12.2761 8.75 12.5 8.52614 12.5 8.25C12.5 7.97386 12.2761 7.75 12 7.75C11.7239 7.75 11.5 7.97386 11.5 8.25C11.5 8.52614 11.7239 8.75 12 8.75Z" fill="#212121"/>
<path d="M4 5.25V18.75C4 20.5449 5.45507 22 7.25 22H11.0956C10.4186 21.342 10 20.4165 10 19.4C10 19.0898 10.0389 18.7881 10.1123 18.5H9.75C9.33579 18.5 9 18.1642 9 17.75C9 17.3358 9.33579 17 9.75 17H10.9049C11.3378 16.5094 11.9022 16.1389 12.5451 15.9469C12.6485 15.6117 12.7923 15.294 12.9709 15L9.75 15C9.33579 15 9 14.6642 9 14.25C9 13.8358 9.33579 13.5 9.75 13.5L14.25 13.5C14.3285 13.5 14.4041 13.5121 14.4752 13.5344C15.0724 13.1945 15.7623 13 16.5 13C17.9801 13 19.2681 13.783 20 14.9528V5.25C20 3.45507 18.5449 2 16.75 2H7.25C5.45507 2 4 3.45507 4 5.25ZM8.93435 5.75H15.0657C15.6849 5.75 16.1553 6.3071 16.0515 6.9176L15.5415 9.91759C15.4598 10.3983 15.0433 10.75 14.5557 10.75H9.44435C8.95673 10.75 8.54021 10.3983 8.45849 9.9176L7.94849 6.9176C7.84471 6.3071 8.31509 5.75 8.93435 5.75Z" fill="#212121"/>
<path d="M13.3807 16.8059C13.5715 15.2245 14.8953 14 16.5 14C18.1047 14 19.4285 15.2245 19.6193 16.8059C20.949 16.8963 22 18.0232 22 19.4C22 20.8359 20.8567 22 19.4464 22H13.5536C12.1433 22 11 20.8359 11 19.4C11 18.0232 12.051 16.8963 13.3807 16.8059Z" fill="#212121"/>
</svg>
