<svg width="32" height="32" viewBox="0 0 32 32" fill="none" xmlns="http://www.w3.org/2000/svg">
<path d="M9 2C6.51472 2 4.5 4.01472 4.5 6.5V25.5C4.5 27.9853 6.51472 30 9 30H14.9458C14.4039 29.4425 13.9892 28.7588 13.7457 28H9C7.61929 28 6.5 26.8807 6.5 25.5V6.5C6.5 5.11929 7.61929 4 9 4H23C24.3807 4 25.5 5.11929 25.5 6.5V18.3531C26.3265 18.8656 27.0145 19.5828 27.5 20.4317V6.5C27.5 4.01472 25.4853 2 23 2H9Z" fill="#212121"/>
<path d="M18.6453 19H12C11.4477 19 11 19.4477 11 20C11 20.5523 11.4477 21 12 21H17.2142C17.5488 20.2353 18.0388 19.5538 18.6453 19Z" fill="#212121"/>
<path d="M14.8056 23H12C11.4477 23 11 23.4477 11 24C11 24.5523 11.4477 25 12 25H13.6999C13.9157 24.2487 14.2979 23.5662 14.8056 23Z" fill="#212121"/>
<path d="M16 13C17.1046 13 18 12.1046 18 11C18 9.89543 17.1046 9 16 9C14.8954 9 14 9.89543 14 11C14 12.1046 14.8954 13 16 13Z" fill="#212121"/>
<path d="M8.21848 8.81009C8.03196 7.31795 9.19543 6 10.6992 6H21.3008C22.8046 6 23.968 7.31796 23.7815 8.81009L23.1565 13.8101C23.0001 15.0612 21.9366 16 20.6758 16H11.3242C10.0634 16 8.99986 15.0612 8.84348 13.8101L8.21848 8.81009ZM10.6992 8C10.3984 8 10.1657 8.26359 10.203 8.56202L10.828 13.562C10.8593 13.8122 11.072 14 11.3242 14H20.6758C20.928 14 21.1407 13.8122 21.172 13.562L21.797 8.56202C21.8343 8.26359 21.6016 8 21.3008 8H10.6992Z" fill="#212121"/>
<path d="M18.2465 22.8581C18.5066 20.6837 20.3118 19 22.5 19C24.6882 19 26.4934 20.6837 26.7535 22.8581C28.5668 22.9825 30 24.5319 30 26.425C30 28.3994 28.441 30 26.5179 30H18.4821C16.559 30 15 28.3994 15 26.425C15 24.5319 16.4332 22.9825 18.2465 22.8581Z" fill="#212121"/>
</svg>
