<svg xmlns="http://www.w3.org/2000/svg" width="231" height="160" fill="none" viewBox="0 0 231 160">
  <path fill="#242424" d="M113.432 147.8c38.957 0 70.538-30.624 70.538-68.4 0-37.7763-31.581-68.4-70.538-68.4-38.957 0-70.538 30.6237-70.538 68.4 0 37.776 31.581 68.4 70.538 68.4Z"/>
  <g filter="url(#filter0_d_3871_353928)">
    <path fill="#5C5C5C" d="M178.142 38.5836v81.0594c0 2.933-2.491 5.348-5.515 5.348H54.9706c-3.0243 0-5.5149-2.415-5.5149-5.348V38.5836c0-2.9326 2.4906-5.3478 5.5149-5.3478H172.627c3.024 0 5.515 2.4152 5.515 5.3478Z"/>
  </g>
  <path fill="#4D4D4D" d="M56.2054 76.6639h116.006v22.9824H56.2054z"/>
  <path fill="#3A3A3A" d="M178.142 38.5836v3.8815H49.4557v-3.8815c0-2.9326 2.4906-5.3478 5.5149-5.3478H172.627c3.024 0 5.515 2.4152 5.515 5.3478Z"/>
  <path fill="#D1D1D1" d="M55.2372 39.5324c.9334 0 1.6901-.7337 1.6901-1.6388s-.7567-1.6388-1.6901-1.6388c-.9334 0-1.6901.7337-1.6901 1.6388s.7567 1.6388 1.6901 1.6388Z"/>
  <path fill="#5C5C5C" d="M60.4852 39.5324c.9334 0 1.6901-.7337 1.6901-1.6388s-.7567-1.6388-1.6901-1.6388c-.9334 0-1.69.7337-1.69 1.6388s.7566 1.6388 1.69 1.6388Z" opacity=".6"/>
  <path fill="#5C5C5C" d="M65.8225 39.5324c.9334 0 1.6901-.7337 1.6901-1.6388s-.7567-1.6388-1.6901-1.6388c-.9334 0-1.6901.7337-1.6901 1.6388s.7567 1.6388 1.6901 1.6388Z" opacity=".4"/>
  <path fill="#707070" d="M82.3463 53.3169H63.63c-1.1697 0-2.1445-1.1783-2.1445-2.1209 0-1.1783.9748-2.1209 2.1445-2.1209h18.7163c1.1698 0 2.1446 1.1783 2.1446 2.1209 0 1.1783-.9748 2.1209-2.1446 2.1209Z"/>
  <path fill="#D1D1D1" d="M77.2847 85.1988H63.5793c-1.1421 0-2.0938-1.1783-2.0938-2.121 0-1.1783.9517-2.1209 2.0938-2.1209h13.7054c1.1421 0 2.0939 1.1783 2.0939 2.1209-.1904.9427-1.1421 2.121-2.0939 2.121ZM165.364 85.1988h-26.271c-1.201 0-2.202-1.1783-2.202-2.121 0-1.1783 1.001-2.1209 2.202-2.1209h26.271c1.201 0 2.201 1.1783 2.201 2.1209-.2.9427-1.2 2.121-2.201 2.121Z"/>
  <path fill="url(#paint0_linear_3871_353928)" d="m172.121 85.5301-22.724 36.2229c-2.744 4.373.4 10.056 5.562 10.056h45.45c5.162 0 8.305-5.683 5.562-10.056l-22.725-36.2229c-2.574-4.1023-8.551-4.1023-11.125 0Z"/>
  <path fill="#3A3A3A" d="M177.825 97.2129c-1.594 0-2.861 1.3394-2.771 2.9311l.689 12.323c.062 1.105.976 1.969 2.082 1.969 1.106 0 2.02-.864 2.082-1.969l.69-12.323c.089-1.5917-1.178-2.9311-2.772-2.9311Zm-.009 25.4411c1.49 0 2.653-1.204 2.653-2.714s-1.163-2.696-2.653-2.696c-1.472 0-2.635 1.186-2.635 2.696 0 1.51 1.163 2.714 2.635 2.714Z"/>
  <path fill="#D1D1D1" d="M128.278 85.1988H87.9931c-1.2131 0-2.2239-1.1783-2.2239-2.121 0-1.1783 1.0108-2.1209 2.2239-2.1209h40.2849c1.213 0 2.224 1.1783 2.224 2.1209-.202.9427-1.213 2.121-2.224 2.121ZM96.3038 94.743H71.3991c-1.2248 0-2.2455-1.1783-2.2455-2.121 0-1.1783 1.0207-2.1209 2.2455-2.1209h24.9047c1.2249 0 2.2456 1.1783 2.2456 2.1209-.2042 1.1783-1.2249 2.121-2.2456 2.121ZM119.392 94.743h-13.566c-1.18 0-2.164-1.1783-2.164-2.121 0-1.1783.984-2.1209 2.164-2.1209h13.566c1.18 0 2.163 1.1783 2.163 2.1209-.196 1.1783-1.18 2.121-2.163 2.121Z"/>
  <path fill="#707070" d="M92.473 107.536H63.728c-1.2232 0-2.2425-1.178-2.2425-2.121 0-1.178 1.0193-2.12 2.2425-2.12h28.745c1.2232 0 2.2425 1.178 2.2425 2.12 0 1.179-.8155 2.121-2.2425 2.121ZM113.007 107.536h-11.02c-1.178 0-2.1589-1.178-2.1589-2.121 0-1.178.9809-2.12 2.1589-2.12h11.02c1.177 0 2.158 1.178 2.158 2.12 0 1.179-.785 2.121-2.158 2.121ZM75.8716 117.081H63.7143c-1.2157 0-2.2288-1.179-2.2288-2.121 0-1.179 1.0131-2.121 2.2288-2.121h12.1573c1.2158 0 2.2289 1.178 2.2289 2.121 0 1.178-.8105 2.121-2.2289 2.121ZM86.3161 117.081h-2.3736c-1.0955 0-2.0084-1.179-2.0084-2.121 0-1.179.9129-2.121 2.0084-2.121h2.3736c1.0955 0 2.0084 1.178 2.0084 2.121 0 1.178-.9129 2.121-2.0084 2.121ZM68.5024 73.4657h-5.0873c-1.0525 0-1.9296-1.1783-1.9296-2.1209 0-1.1783.8771-2.1209 1.9296-2.1209h5.0873c1.0525 0 1.9296 1.1783 1.9296 2.1209 0 1.1783-.8771 2.1209-1.9296 2.1209ZM112.957 73.4657H81.5878c-1.2045 0-2.2083-1.1783-2.2083-2.1209 0-1.1783 1.0038-2.1209 2.2083-2.1209h31.3692c1.205 0 2.209 1.1783 2.209 2.1209 0 1.1783-1.004 2.1209-2.209 2.1209ZM92.473 62.861H63.728c-1.2232 0-2.2425-1.1783-2.2425-2.1209 0-1.1783 1.0193-2.121 2.2425-2.121h28.745c1.2232 0 2.2425 1.1783 2.2425 2.121 0 1.1783-.8155 2.1209-2.2425 2.1209ZM130.816 62.861h-28.745c-1.224 0-2.2429-1.1783-2.2429-2.1209 0-1.1783 1.0189-2.121 2.2429-2.121h28.745c1.223 0 2.242 1.1783 2.242 2.121 0 1.1783-.815 2.1209-2.242 2.1209ZM151.349 62.861h-11.02c-1.177 0-2.158-1.1783-2.158-2.1209 0-1.1783.981-2.121 2.158-2.121h11.02c1.178 0 2.159 1.1783 2.159 2.121 0 1.1783-.785 2.1209-2.159 2.1209Z"/>
  <defs>
    <linearGradient id="paint0_linear_3871_353928" x1="182.43" x2="198.846" y1="124.818" y2="102.93" gradientUnits="userSpaceOnUse">
      <stop stop-color="#FAFAFA"/>
      <stop offset="1" stop-color="#F5F2EC"/>
    </linearGradient>
    <filter id="filter0_d_3871_353928" width="168.286" height="131.355" x="29.6557" y="23.3358" color-interpolation-filters="sRGB" filterUnits="userSpaceOnUse">
      <feFlood flood-opacity="0" result="BackgroundImageFix"/>
      <feColorMatrix in="SourceAlpha" result="hardAlpha" values="0 0 0 0 0 0 0 0 0 0 0 0 0 0 0 0 0 0 127 0"/>
      <feOffset dy="9.9"/>
      <feGaussianBlur stdDeviation="9.9"/>
      <feColorMatrix values="0 0 0 0 0 0 0 0 0 0 0 0 0 0 0 0 0 0 0.27 0"/>
      <feBlend in2="BackgroundImageFix" result="effect1_dropShadow_3871_353928"/>
      <feBlend in="SourceGraphic" in2="effect1_dropShadow_3871_353928" result="shape"/>
    </filter>
  </defs>
</svg>
