<svg xmlns="http://www.w3.org/2000/svg" width="231" height="160" fill="none" viewBox="0 0 231 160">
  <path fill="#ECECEC" d="M112.932 147.8c38.957 0 70.538-30.624 70.538-68.4 0-37.7763-31.581-68.4-70.538-68.4-38.957 0-70.538 30.6237-70.538 68.4 0 37.776 31.581 68.4 70.538 68.4Z"/>
  <g filter="url(#filter0_d_3871_353912)">
    <path fill="url(#paint0_linear_3871_353912)" d="M177.642 38.5836v81.0594c0 2.933-2.49 5.348-5.515 5.348H54.4708c-3.0244 0-5.515-2.415-5.515-5.348V38.5836c0-2.9326 2.4906-5.3478 5.515-5.3478H172.127c3.025 0 5.515 2.4152 5.515 5.3478Z"/>
  </g>
  <rect width="116.006" height="22.9824" x="55.7054" y="76.6639" fill="#EDE5DA" rx="2.7"/>
  <path fill="url(#paint1_linear_3871_353912)" d="M177.642 38.5836v3.8815H48.9558v-3.8815c0-2.9326 2.4906-5.3478 5.515-5.3478H172.127c3.025 0 5.515 2.4152 5.515 5.3478Z"/>
  <path fill="#F4F1EA" d="M54.7373 39.5324c.9334 0 1.6901-.7337 1.6901-1.6388s-.7567-1.6388-1.6901-1.6388c-.9334 0-1.6901.7337-1.6901 1.6388s.7567 1.6388 1.6901 1.6388Z"/>
  <path fill="#E4E0DA" d="M59.9854 39.5324c.9334 0 1.69-.7337 1.69-1.6388s-.7566-1.6388-1.69-1.6388c-.9334 0-1.6901.7337-1.6901 1.6388s.7567 1.6388 1.6901 1.6388Z" opacity=".6"/>
  <path fill="#BCB9B3" d="M65.3226 39.5324c.9334 0 1.6901-.7337 1.6901-1.6388s-.7567-1.6388-1.6901-1.6388c-.9334 0-1.69.7337-1.69 1.6388s.7566 1.6388 1.69 1.6388Z" opacity=".4"/>
  <path fill="#EDE5DA" d="M81.8463 53.3169H63.13c-1.1697 0-2.1445-1.1783-2.1445-2.1209 0-1.1783.9748-2.1209 2.1445-2.1209h18.7163c1.1698 0 2.1446 1.1783 2.1446 2.1209 0 1.1783-.9748 2.1209-2.1446 2.1209Z"/>
  <path fill="#BCB9B3" d="M76.7847 85.1988H63.0793c-1.1421 0-2.0938-1.1783-2.0938-2.121 0-1.1783.9517-2.1209 2.0938-2.1209h13.7054c1.1421 0 2.0939 1.1783 2.0939 2.1209-.1904.9427-1.1421 2.121-2.0939 2.121ZM164.864 85.1988h-26.271c-1.201 0-2.202-1.1783-2.202-2.121 0-1.1783 1.001-2.1209 2.202-2.1209h26.271c1.201 0 2.201 1.1783 2.201 2.1209-.2.9427-1.2 2.121-2.201 2.121Z"/>
  <path fill="url(#paint2_linear_3871_353912)" d="m171.622 85.5301-22.725 36.2229c-2.744 4.373.4 10.056 5.562 10.056h45.45c5.162 0 8.306-5.683 5.562-10.056l-22.725-36.2229c-2.573-4.1023-8.551-4.1023-11.124 0Z"/>
  <path fill="#fff" d="M177.325 97.2129c-1.594 0-2.86 1.3394-2.771 2.9311l.689 12.323c.062 1.105.976 1.969 2.082 1.969 1.107 0 2.02-.864 2.082-1.969l.69-12.323c.089-1.5917-1.178-2.9311-2.772-2.9311Zm-.009 25.4411c1.49 0 2.653-1.204 2.653-2.714s-1.163-2.696-2.653-2.696c-1.472 0-2.635 1.186-2.635 2.696 0 1.51 1.163 2.714 2.635 2.714Z"/>
  <path fill="#BCB9B3" d="M127.778 85.1988H87.4931c-1.2131 0-2.2239-1.1783-2.2239-2.121 0-1.1783 1.0108-2.1209 2.2239-2.1209h40.2849c1.213 0 2.224 1.1783 2.224 2.1209-.202.9427-1.213 2.121-2.224 2.121ZM95.804 94.743H70.8992c-1.2248 0-2.2455-1.1783-2.2455-2.121 0-1.1783 1.0207-2.1209 2.2455-2.1209H95.804c1.2248 0 2.2455 1.1783 2.2455 2.1209-.2042 1.1783-1.2248 2.121-2.2455 2.121ZM118.892 94.743h-13.566c-1.18 0-2.164-1.1783-2.164-2.121 0-1.1783.984-2.1209 2.164-2.1209h13.566c1.18 0 2.163 1.1783 2.163 2.1209-.196 1.1783-1.18 2.121-2.163 2.121Z"/>
  <path fill="#EDE5DA" d="M91.973 107.536H63.228c-1.2232 0-2.2425-1.178-2.2425-2.121 0-1.178 1.0193-2.12 2.2425-2.12h28.745c1.2232 0 2.2425 1.178 2.2425 2.12 0 1.179-.8155 2.121-2.2425 2.121ZM112.507 107.536h-11.02c-1.178 0-2.1588-1.178-2.1588-2.121 0-1.178.9808-2.12 2.1588-2.12h11.02c1.177 0 2.158 1.178 2.158 2.12 0 1.179-.785 2.121-2.158 2.121ZM75.3716 117.081H63.2143c-1.2157 0-2.2288-1.179-2.2288-2.121 0-1.179 1.0131-2.121 2.2288-2.121h12.1573c1.2158 0 2.2289 1.178 2.2289 2.121 0 1.178-.8105 2.121-2.2289 2.121ZM85.8161 117.081h-2.3736c-1.0955 0-2.0084-1.179-2.0084-2.121 0-1.179.9129-2.121 2.0084-2.121h2.3736c1.0955 0 2.0084 1.178 2.0084 2.121 0 1.178-.9129 2.121-2.0084 2.121ZM68.0024 73.4657h-5.0873c-1.0525 0-1.9296-1.1783-1.9296-2.1209 0-1.1783.8771-2.1209 1.9296-2.1209h5.0873c1.0525 0 1.9296 1.1783 1.9296 2.1209 0 1.1783-.8771 2.1209-1.9296 2.1209ZM112.457 73.4657H81.0878c-1.2045 0-2.2083-1.1783-2.2083-2.1209 0-1.1783 1.0038-2.1209 2.2083-2.1209h31.3692c1.205 0 2.209 1.1783 2.209 2.1209 0 1.1783-1.004 2.1209-2.209 2.1209ZM91.973 62.8611H63.228c-1.2232 0-2.2425-1.1783-2.2425-2.1209 0-1.1783 1.0193-2.1209 2.2425-2.1209h28.745c1.2232 0 2.2425 1.1783 2.2425 2.1209 0 1.1783-.8155 2.1209-2.2425 2.1209ZM130.316 62.8611h-28.745c-1.223 0-2.2428-1.1783-2.2428-2.1209 0-1.1783 1.0198-2.1209 2.2428-2.1209h28.745c1.223 0 2.242 1.1783 2.242 2.1209 0 1.1783-.815 2.1209-2.242 2.1209ZM150.849 62.8611h-11.02c-1.177 0-2.158-1.1783-2.158-2.1209 0-1.1783.981-2.1209 2.158-2.1209h11.02c1.178 0 2.159 1.1783 2.159 2.1209 0 1.1783-.785 2.1209-2.159 2.1209Z"/>
  <defs>
    <linearGradient id="paint0_linear_3871_353912" x1="113.257" x2="113.257" y1="31.1135" y2="125.98" gradientUnits="userSpaceOnUse">
      <stop stop-color="#FDFEFF"/>
      <stop offset=".9964" stop-color="#F5F2EC"/>
    </linearGradient>
    <linearGradient id="paint1_linear_3871_353912" x1="172.538" x2="53.1597" y1="33.2359" y2="39.0311" gradientUnits="userSpaceOnUse">
      <stop stop-color="#606060"/>
      <stop offset="1" stop-color="#7B7B7B"/>
    </linearGradient>
    <linearGradient id="paint2_linear_3871_353912" x1="204.161" x2="149.669" y1="82.4535" y2="82.6787" gradientUnits="userSpaceOnUse">
      <stop stop-color="#606060"/>
      <stop offset="1" stop-color="#7B7B7B"/>
    </linearGradient>
    <filter id="filter0_d_3871_353912" width="150.286" height="113.355" x="38.1558" y="26.0358" color-interpolation-filters="sRGB" filterUnits="userSpaceOnUse">
      <feFlood flood-opacity="0" result="BackgroundImageFix"/>
      <feColorMatrix in="SourceAlpha" result="hardAlpha" values="0 0 0 0 0 0 0 0 0 0 0 0 0 0 0 0 0 0 127 0"/>
      <feOffset dy="3.6"/>
      <feGaussianBlur stdDeviation="5.4"/>
      <feColorMatrix values="0 0 0 0 0.576471 0 0 0 0 0.501961 0 0 0 0 0.396078 0 0 0 0.37 0"/>
      <feBlend in2="BackgroundImageFix" result="effect1_dropShadow_3871_353912"/>
      <feBlend in="SourceGraphic" in2="effect1_dropShadow_3871_353912" result="shape"/>
    </filter>
  </defs>
</svg>
