<svg width="230" height="160" viewBox="0 0 230 160" fill="none" xmlns="http://www.w3.org/2000/svg">
<g filter="url(#filter0_dd_7647_1468)">
<path d="M154.545 45.2935C154.545 44.1889 153.65 43.2935 152.545 43.2935H60.0812C58.9766 43.2935 58.0812 44.1889 58.0812 45.2935L59.0812 109.766C59.0812 110.871 59.9766 111.766 61.0812 111.766L159.545 115.766C160.65 115.766 161.545 114.871 161.545 113.766L154.545 45.2935ZM163.545 113.766C163.545 115.975 161.754 117.766 159.545 117.766L61.0812 113.766C58.872 113.766 57.0812 111.975 57.0812 109.766L56.0812 45.2935C56.0812 43.0843 57.872 41.2935 60.0812 41.2935H152.545C154.754 41.2935 156.545 43.0843 156.545 45.2935L163.545 113.766Z" fill="url(#paint0_radial_7647_1468)"/>
</g>
<g filter="url(#filter1_dd_7647_1468)">
<path d="M156.221 113C156.221 111.895 157.116 111 158.221 111H166.221C167.325 111 168.221 111.895 168.221 113V121C168.221 122.105 167.325 123 166.221 123H158.221C157.116 123 156.221 122.105 156.221 121V113Z" fill="url(#paint1_linear_7647_1468)"/>
</g>
<g filter="url(#filter2_dd_7647_1468)">
<path d="M166.221 122V123H158.221V122H166.221ZM167.221 121V113C167.221 112.482 166.827 112.056 166.323 112.005L166.221 112H158.221C157.703 112 157.277 112.393 157.226 112.897L157.221 113V121C157.221 121.552 157.668 122 158.221 122V123C157.185 123 156.334 122.213 156.231 121.204L156.221 121V113C156.221 111.895 157.116 111 158.221 111H166.221L166.425 111.011C167.433 111.113 168.221 111.964 168.221 113V121L168.21 121.204C168.115 122.146 167.366 122.894 166.425 122.989L166.221 123V122C166.773 122 167.221 121.552 167.221 121Z" fill="url(#paint2_linear_7647_1468)"/>
<path d="M166.221 122V123H158.221V122H166.221ZM167.221 121V113C167.221 112.482 166.827 112.056 166.323 112.005L166.221 112H158.221C157.703 112 157.277 112.393 157.226 112.897L157.221 113V121C157.221 121.552 157.668 122 158.221 122V123C157.185 123 156.334 122.213 156.231 121.204L156.221 121V113C156.221 111.895 157.116 111 158.221 111H166.221L166.425 111.011C167.433 111.113 168.221 111.964 168.221 113V121L168.21 121.204C168.115 122.146 167.366 122.894 166.425 122.989L166.221 123V122C166.773 122 167.221 121.552 167.221 121Z" fill="#FCF4DA"/>
</g>
<g filter="url(#filter3_dd_7647_1468)">
<path d="M151.173 39C151.173 37.8954 152.068 37 153.173 37H158.701C159.806 37 160.701 37.8954 160.701 39V44.5285C160.701 45.6331 159.806 46.5285 158.701 46.5285H153.173C152.068 46.5285 151.173 45.6331 151.173 44.5285V39Z" fill="#717171"/>
<path d="M158.701 45.5285V46.5285H153.173V45.5285H158.701ZM159.701 44.5285V39C159.701 38.4823 159.308 38.0562 158.804 38.0049L158.701 38H153.173C152.655 38 152.229 38.3934 152.178 38.8975L152.173 39V44.5285C152.173 45.0808 152.621 45.5285 153.173 45.5285V46.5285C152.068 46.5285 151.173 45.6331 151.173 44.5285V39C151.173 37.9644 151.96 37.113 152.969 37.0107L153.173 37H158.701C159.806 37 160.701 37.8954 160.701 39V44.5285C160.701 45.6331 159.806 46.5285 158.701 46.5285V45.5285C159.254 45.5285 159.701 45.0808 159.701 44.5285Z" fill="url(#paint3_linear_7647_1468)"/>
<path d="M52.2207 39C52.2207 37.8954 53.1161 37 54.2207 37H59.7492C60.8538 37 61.7492 37.8954 61.7492 39V44.5285C61.7492 45.6331 60.8538 46.5285 59.7492 46.5285H54.2207C53.1161 46.5285 52.2207 45.6331 52.2207 44.5285V39Z" fill="#717171"/>
<path d="M59.7492 45.5285V46.5285H54.2207V45.5285H59.7492ZM60.7492 44.5285V39C60.7492 38.4823 60.3559 38.0562 59.8517 38.0049L59.7492 38H54.2207C53.7031 38 53.2769 38.3934 53.2256 38.8975L53.2207 39V44.5285C53.2207 45.0808 53.6684 45.5285 54.2207 45.5285V46.5285C53.1162 46.5285 52.2207 45.6331 52.2207 44.5285V39C52.2207 37.9644 53.0079 37.113 54.0166 37.0107L54.2207 37H59.7492C60.8538 37 61.7492 37.8954 61.7492 39V44.5285C61.7492 45.6331 60.8538 46.5285 59.7492 46.5285V45.5285C60.3015 45.5285 60.7492 45.0808 60.7492 44.5285Z" fill="url(#paint4_linear_7647_1468)"/>
<path d="M53.2207 110.346C53.2207 109.241 54.1161 108.346 55.2207 108.346H60.7492C61.8538 108.346 62.7492 109.241 62.7492 110.346V115.874C62.7492 116.979 61.8538 117.874 60.7492 117.874H55.2207C54.1161 117.874 53.2207 116.979 53.2207 115.874V110.346Z" fill="#717171"/>
<path d="M60.7492 116.874V117.874H55.2207V116.874H60.7492ZM61.7492 115.874V110.346C61.7492 109.828 61.3559 109.402 60.8517 109.351L60.7492 109.346H55.2207C54.7031 109.346 54.2769 109.739 54.2256 110.243L54.2207 110.346V115.874C54.2207 116.426 54.6684 116.874 55.2207 116.874V117.874C54.1162 117.874 53.2207 116.979 53.2207 115.874V110.346C53.2207 109.31 54.0079 108.459 55.0166 108.356L55.2207 108.346H60.7492C61.8538 108.346 62.7492 109.241 62.7492 110.346V115.874C62.7492 116.979 61.8538 117.874 60.7492 117.874V116.874C61.3015 116.874 61.7492 116.426 61.7492 115.874Z" fill="url(#paint5_linear_7647_1468)"/>
</g>
<path d="M182.14 126.475C181.945 126.764 181.847 126.957 181.457 127.15L176.966 128.982C176.283 129.271 175.599 129.657 175.111 130.139C174.623 130.621 174.233 131.103 174.135 131.778L172.28 136.213C172.085 136.888 171.304 137.178 170.816 136.888C170.621 136.695 170.328 136.599 170.328 136.406L163.367 119.235C163.172 118.945 163.172 118.56 163.367 118.367C163.562 118.078 164.05 117.885 164.539 118.078L181.945 124.932C182.14 125.318 182.335 125.993 182.14 126.475Z" fill="url(#paint6_linear_7647_1468)"/>
<path d="M162.59 117.739C163.082 117.086 164.04 116.806 164.906 117.148L164.905 117.149L182.311 124.002L182.665 124.141L182.837 124.481C182.974 124.752 183.106 125.11 183.174 125.494C183.239 125.864 183.263 126.365 183.066 126.85L183.027 126.947L182.969 127.034C182.907 127.126 182.773 127.341 182.614 127.518C182.422 127.731 182.195 127.9 181.899 128.046L181.867 128.063L181.834 128.075L177.355 129.903C176.728 130.168 176.175 130.495 175.814 130.851C175.361 131.299 175.174 131.585 175.125 131.921L175.106 132.047L175.058 132.164L173.203 136.6C172.995 137.196 172.549 137.618 172.053 137.831C171.542 138.051 170.879 138.088 170.307 137.749L170.2 137.686L170.113 137.6C170.12 137.607 170.116 137.601 170.077 137.573C170.077 137.573 169.949 137.485 169.903 137.451C169.835 137.401 169.704 137.299 169.588 137.151C169.499 137.036 169.409 136.88 169.362 136.687L162.472 119.686C162.307 119.401 162.221 119.08 162.221 118.765C162.221 118.446 162.314 118.058 162.59 117.739ZM164.538 118.077C164.05 117.885 163.562 118.078 163.367 118.367C163.172 118.56 163.172 118.945 163.367 119.235L170.328 136.406C170.328 136.599 170.621 136.696 170.816 136.889C171.305 137.178 172.085 136.888 172.28 136.213L174.135 131.778C174.22 131.188 174.531 130.745 174.934 130.32L175.111 130.139C175.599 129.657 176.283 129.271 176.966 128.982L181.456 127.15C181.847 126.957 181.944 126.764 182.14 126.475C182.335 125.993 182.14 125.317 181.944 124.932L164.538 118.077Z" fill="url(#paint7_linear_7647_1468)"/>
<path fill-rule="evenodd" clip-rule="evenodd" d="M95.5253 61C101.419 61 108.102 61.1365 112.585 61.4102C112.644 61.4164 112.703 61.4286 112.76 61.444C112.761 61.4442 112.762 61.4439 112.763 61.4433C112.763 61.4427 112.764 61.4425 112.765 61.4426C112.837 61.4531 112.899 61.4834 112.961 61.5143C112.962 61.515 112.963 61.5161 112.962 61.5172C112.962 61.5181 112.962 61.5199 112.963 61.5204C113.022 61.5493 113.08 61.5813 113.133 61.6201C113.869 62.1881 114.353 62.6518 114.521 62.8203C114.543 62.8471 114.561 62.8746 114.577 62.9028C114.578 62.9043 114.579 62.9051 114.581 62.9048C114.583 62.9045 114.584 62.9035 114.584 62.9051C114.612 62.965 116.113 66.2066 116.478 67.0723C116.847 67.9457 117.963 71.1238 118.511 72.4395L118.52 72.46C118.636 72.7388 118.74 73.0163 118.833 73.279C118.834 73.2821 118.839 73.2829 118.841 73.2803C119.032 73.2062 119.151 73.0152 119.141 72.8105C119.128 72.5146 119.119 72.0938 119.163 71.8184C119.237 71.3555 119.573 70.8616 120.394 70.8193C121.214 70.7772 123.403 70.8406 124.161 71.0615C124.919 71.2825 125.445 71.6194 125.697 72.7139C125.95 73.8081 125.898 74.7228 124.656 74.9229C123.411 75.1216 119.963 75.643 119.92 75.6494C119.919 75.6495 119.919 75.6491 119.918 75.6486C119.911 75.6458 119.905 75.6537 119.91 75.6592C120.437 76.2669 121.175 77.1348 121.372 77.4697C121.688 78.0065 121.878 78.8071 121.952 79.3018C122.017 79.7178 121.968 80.5069 121.955 80.7358C121.953 80.7742 121.968 80.8107 121.997 80.8367L122.059 80.8936C122.064 80.8983 122.071 80.8992 122.077 80.8961C122.084 80.8928 122.091 80.8939 122.096 80.8987L123.709 82.4375C123.793 82.5217 123.835 82.6274 123.835 82.7432C123.829 83.0702 123.82 83.8224 123.803 84.7712C123.8 84.9103 123.882 85.0375 124.009 85.0937C124.134 85.1489 124.215 85.2728 124.215 85.4096V103.815C124.215 104.228 124.069 104.627 123.804 104.943C123.471 105.34 122.979 105.569 122.461 105.569H116.612C116.122 105.569 115.652 105.376 115.304 105.032C114.951 104.683 114.753 104.207 114.753 103.711V100.382C114.753 99.8488 114.265 99.4491 113.742 99.5546C113.687 99.5657 113.631 99.5713 113.575 99.5713H77.4554C77.3993 99.5713 77.3433 99.5657 77.2884 99.5546C76.7651 99.4491 76.2763 99.8492 76.2763 100.383V103.72C76.2763 104.211 76.0812 104.681 75.734 105.028C75.3871 105.375 74.9169 105.569 74.4267 105.569H68.5713C68.0522 105.569 67.5601 105.338 67.2285 104.939C66.9685 104.626 66.8261 104.231 66.8261 103.824V85.384C66.8261 85.2628 66.8977 85.153 67.0086 85.1041L67.2544 84.9956C67.2563 84.9948 67.2586 84.9955 67.2596 84.9973C67.2617 85.0009 67.2673 84.9992 67.2672 84.995C67.2458 83.9426 67.2363 83.095 67.2363 82.7432C67.2363 82.6274 67.2781 82.5217 67.3623 82.4375L68.8923 80.9755C68.8962 80.9718 68.8983 80.9627 68.8983 80.9574C68.8984 80.9521 68.9006 80.9511 68.9044 80.9475L69.0606 80.8022C69.0631 80.7998 69.0673 80.7982 69.0672 80.8016C69.0672 80.8049 69.0711 80.81 69.0736 80.8078L69.0933 80.79C69.0967 80.7869 69.0986 80.7828 69.0984 80.7782C69.0943 80.6748 69.0273 79.7505 69.0986 79.291C69.1723 78.7964 69.3621 77.9966 69.6777 77.46C69.8732 77.1276 70.6033 76.2673 71.1295 75.6598C71.1346 75.6539 71.1281 75.6455 71.121 75.6486C71.1197 75.6491 71.1196 75.6495 71.1182 75.6493C71.039 75.6373 67.6112 75.1205 66.3837 74.9229C65.1422 74.7229 65.0893 73.8081 65.3417 72.7139C65.5943 71.6196 66.1205 71.2825 66.8779 71.0615C67.6354 70.8406 69.8241 70.7773 70.6455 70.8193C71.4661 70.8614 71.8041 71.3554 71.8779 71.8184C71.9217 72.0941 71.9133 72.5155 71.8994 72.8114C71.8898 73.0157 72.0086 73.2061 72.1992 73.2803C72.2008 73.2827 72.2044 73.2822 72.2054 73.2795C72.3011 73.0074 72.4095 72.7199 72.5302 72.4297C73.0774 71.1143 74.2026 67.9354 74.5605 67.0615C74.9123 66.2029 76.4019 63.0085 76.4538 62.8971C76.4551 62.8944 76.4571 62.8949 76.4601 62.8955C76.4629 62.8961 76.4657 62.8948 76.4671 62.8923C76.4847 62.8612 76.5069 62.8329 76.5292 62.8105C76.7081 62.6317 77.2446 62.1152 78.0654 61.5049C78.1284 61.4524 78.2022 61.421 78.2861 61.4209C82.6431 61.1367 89.6318 61 95.5253 61ZM72.2007 73.2786C72.2015 73.2795 72.2006 73.2809 72.1995 73.2804L72.1992 73.2803L72.199 73.28C72.1983 73.2788 72.1998 73.2776 72.2007 73.2786ZM118.841 73.2803L118.841 73.2804C118.84 73.2808 118.839 73.2798 118.839 73.2791C118.84 73.2782 118.841 73.2791 118.841 73.2801L118.841 73.2803Z" fill="#5C5C5C"/>
<g filter="url(#filter4_dd_7647_1468)">
<path d="M148.331 70.4156C147.986 71.4481 147.799 72.5451 148.206 73.5454C149.177 75.933 149.396 78.4821 149.897 80.9665C150.179 82.3217 150.398 83.7091 150.899 84.9998C151.056 85.4515 151.119 85.8387 150.586 86.0968C150.336 86.1936 150.242 86.4517 150.179 86.7421C150.148 86.9357 150.054 87.1939 149.835 87.1939C148.926 87.1293 148.926 87.8392 148.738 88.42C147.986 90.7108 147.517 93.0985 147.391 95.4862C147.203 98.3579 146.076 100.842 145.293 103.488C145.011 104.456 145.543 105.327 145.669 106.263C145.825 107.392 146.608 108.296 146.514 109.49C146.452 110.329 146.138 110.78 145.355 110.716C144.698 110.651 144.416 110.974 144.322 111.555C144.228 112.361 143.789 112.523 143.1 112.394C142.568 112.265 142.067 112.2 141.503 112.232C140.97 112.232 140.845 112.006 141.096 111.522C141.189 111.361 141.283 111.135 141.409 111.006C142.568 109.683 142.442 108.134 141.941 106.65C140.782 103.23 140.281 99.7131 140.657 96.1315C140.876 94.0342 140.594 92.0983 139.749 90.2269C139.655 90.0333 139.592 89.8074 139.341 89.8397C139.091 89.8719 139.06 90.1301 139.06 90.3237C139.091 91.0335 139.154 91.7111 139.216 92.4209C139.279 93.1308 138.966 93.4857 138.276 93.4212C137.399 93.3567 136.71 93.518 136.491 94.5505C136.428 94.9054 136.053 94.9054 135.802 94.97C135.176 95.099 134.518 95.1636 133.891 95.2604C133.39 95.3572 133.202 95.0668 133.14 94.6473C132.952 93.0985 132.701 91.5498 132.92 89.9687C132.983 89.5815 133.046 89.2589 132.638 88.9685C132.169 88.6136 131.949 88.6458 131.824 89.2266C131.511 90.6786 130.79 91.9692 130.571 93.4535C130.477 94.0342 130.133 94.3569 129.569 94.1633C129.005 93.9697 128.191 94.0988 128.222 93.0663C128.316 91.453 129.068 90.0655 129.537 88.5813C130.007 87.0648 130.415 85.4838 131.01 83.9995C131.73 82.2572 132.325 80.3857 133.547 78.8692C134.017 78.2885 134.236 77.4818 134.424 76.7074C134.706 75.5458 135.019 74.4165 135.457 73.3195C136.084 71.7385 135.959 70.0606 135.865 68.4151C135.771 66.9308 136.272 65.4789 136.115 63.9946C136.115 63.7365 136.241 63.4784 136.397 63.2848C136.93 62.6072 137.399 61.9619 137.149 60.9939C137.055 60.6712 137.243 60.3808 137.493 60.155C137.807 59.8969 137.963 59.5097 138.151 59.1547C138.276 58.9289 138.37 58.6708 138.151 58.4449C138.089 58.3804 137.932 58.3158 137.869 58.3481C137.587 58.4772 137.713 58.7353 137.713 58.9611C137.713 59.0579 137.713 59.2193 137.587 59.2193C137.399 59.2193 137.243 59.1225 137.18 58.9611C136.961 58.4126 137.118 57.8964 137.462 57.5092C138.59 56.2185 139.247 54.6698 139.905 53.0887C140.375 51.7981 141.377 51.2173 142.63 51.0237C142.975 50.9592 143.288 51.0237 143.601 51.2496C143.915 51.4432 144.196 52.1208 144.604 51.2496C144.698 51.056 145.011 51.2818 145.167 51.4432C146.264 52.4112 146.546 53.8309 146.076 55.2828C145.794 56.1217 146.076 56.9284 146.702 57.606C147.015 57.9609 147.485 58.1868 147.642 58.703C147.423 58.8966 147.141 58.3481 147.015 58.7353C146.922 58.9934 147.266 59.0902 147.329 59.2838C147.423 59.4774 148.362 59.8001 147.266 59.9291C147.078 59.9291 147.172 60.155 147.266 60.2518C147.485 60.5099 147.767 60.6712 148.08 60.6067C148.801 60.4776 148.895 60.9939 148.957 61.5102C148.957 61.6392 148.864 61.7683 148.957 61.8973C150.336 63.4461 150.398 65.5434 151.025 67.4148C151.213 67.9633 151.025 68.5119 151.025 69.0604C151.025 70.1574 151.338 71.1577 151.683 72.1902C152.466 74.4811 152.685 76.8688 152.873 79.2887C152.935 80.2244 153.311 81.0956 153.437 81.999C153.656 83.2897 152.685 84.4513 151.432 84.4513C151.275 84.4513 151.056 84.3867 151.087 84.2899C151.432 83.3219 150.398 82.6121 150.68 81.6441C150.774 81.3215 150.743 80.9343 150.962 80.6761C151.495 80.0953 151.401 79.4823 151.119 78.837C150.43 77.3527 149.803 75.8362 149.365 74.2229C149.051 73.1259 148.864 72.0289 148.644 70.9318C148.613 70.7382 148.613 70.5124 148.3 70.3833L148.331 70.4156ZM137.587 75.6104C137.118 76.3848 136.648 77.1591 136.147 77.9658C135.927 78.2885 135.833 78.6434 135.771 79.0306C135.677 79.5146 136.303 80.4503 136.648 80.3535C137.212 80.2244 137.086 79.6759 137.055 79.2887C136.992 78.0303 137.305 76.8365 137.587 75.6749V75.6104ZM138.183 74.1907C138.778 73.4163 138.84 72.287 138.183 71.6094V74.1907Z" fill="#5C5C5C"/>
</g>
<defs>
<filter id="filter0_dd_7647_1468" x="40.0812" y="29.2935" width="139.464" height="108.473" filterUnits="userSpaceOnUse" color-interpolation-filters="sRGB">
<feFlood flood-opacity="0" result="BackgroundImageFix"/>
<feColorMatrix in="SourceAlpha" type="matrix" values="0 0 0 0 0 0 0 0 0 0 0 0 0 0 0 0 0 0 127 0" result="hardAlpha"/>
<feOffset dy="4"/>
<feGaussianBlur stdDeviation="8"/>
<feComposite in2="hardAlpha" operator="out"/>
<feColorMatrix type="matrix" values="0 0 0 0 0 0 0 0 0 0 0 0 0 0 0 0 0 0 0.16 0"/>
<feBlend mode="normal" in2="BackgroundImageFix" result="effect1_dropShadow_7647_1468"/>
<feColorMatrix in="SourceAlpha" type="matrix" values="0 0 0 0 0 0 0 0 0 0 0 0 0 0 0 0 0 0 127 0" result="hardAlpha"/>
<feOffset dy="1"/>
<feGaussianBlur stdDeviation="0.5"/>
<feComposite in2="hardAlpha" operator="out"/>
<feColorMatrix type="matrix" values="0 0 0 0 0 0 0 0 0 0 0 0 0 0 0 0 0 0 0.08 0"/>
<feBlend mode="normal" in2="effect1_dropShadow_7647_1468" result="effect2_dropShadow_7647_1468"/>
<feBlend mode="normal" in="SourceGraphic" in2="effect2_dropShadow_7647_1468" result="shape"/>
</filter>
<filter id="filter1_dd_7647_1468" x="132.221" y="87" width="60" height="60" filterUnits="userSpaceOnUse" color-interpolation-filters="sRGB">
<feFlood flood-opacity="0" result="BackgroundImageFix"/>
<feColorMatrix in="SourceAlpha" type="matrix" values="0 0 0 0 0 0 0 0 0 0 0 0 0 0 0 0 0 0 127 0" result="hardAlpha"/>
<feOffset/>
<feGaussianBlur stdDeviation="12"/>
<feComposite in2="hardAlpha" operator="out"/>
<feColorMatrix type="matrix" values="0 0 0 0 0.98415 0 0 0 0 0.859671 0 0 0 0 0.486234 0 0 0 1 0"/>
<feBlend mode="normal" in2="BackgroundImageFix" result="effect1_dropShadow_7647_1468"/>
<feColorMatrix in="SourceAlpha" type="matrix" values="0 0 0 0 0 0 0 0 0 0 0 0 0 0 0 0 0 0 127 0" result="hardAlpha"/>
<feOffset dy="2"/>
<feGaussianBlur stdDeviation="4"/>
<feComposite in2="hardAlpha" operator="out"/>
<feColorMatrix type="matrix" values="0 0 0 0 0 0 0 0 0 0 0 0 0 0 0 0 0 0 0.08 0"/>
<feBlend mode="normal" in2="effect1_dropShadow_7647_1468" result="effect2_dropShadow_7647_1468"/>
<feBlend mode="normal" in="SourceGraphic" in2="effect2_dropShadow_7647_1468" result="shape"/>
</filter>
<filter id="filter2_dd_7647_1468" x="132.221" y="87" width="60" height="60" filterUnits="userSpaceOnUse" color-interpolation-filters="sRGB">
<feFlood flood-opacity="0" result="BackgroundImageFix"/>
<feColorMatrix in="SourceAlpha" type="matrix" values="0 0 0 0 0 0 0 0 0 0 0 0 0 0 0 0 0 0 127 0" result="hardAlpha"/>
<feOffset/>
<feGaussianBlur stdDeviation="12"/>
<feComposite in2="hardAlpha" operator="out"/>
<feColorMatrix type="matrix" values="0 0 0 0 0.98415 0 0 0 0 0.859671 0 0 0 0 0.486234 0 0 0 1 0"/>
<feBlend mode="normal" in2="BackgroundImageFix" result="effect1_dropShadow_7647_1468"/>
<feColorMatrix in="SourceAlpha" type="matrix" values="0 0 0 0 0 0 0 0 0 0 0 0 0 0 0 0 0 0 127 0" result="hardAlpha"/>
<feOffset dy="2"/>
<feGaussianBlur stdDeviation="4"/>
<feComposite in2="hardAlpha" operator="out"/>
<feColorMatrix type="matrix" values="0 0 0 0 0 0 0 0 0 0 0 0 0 0 0 0 0 0 0.08 0"/>
<feBlend mode="normal" in2="effect1_dropShadow_7647_1468" result="effect2_dropShadow_7647_1468"/>
<feBlend mode="normal" in="SourceGraphic" in2="effect2_dropShadow_7647_1468" result="shape"/>
</filter>
<filter id="filter3_dd_7647_1468" x="38.2207" y="27" width="140.481" height="112.874" filterUnits="userSpaceOnUse" color-interpolation-filters="sRGB">
<feFlood flood-opacity="0" result="BackgroundImageFix"/>
<feColorMatrix in="SourceAlpha" type="matrix" values="0 0 0 0 0 0 0 0 0 0 0 0 0 0 0 0 0 0 127 0" result="hardAlpha"/>
<feOffset dx="2" dy="6"/>
<feGaussianBlur stdDeviation="8"/>
<feComposite in2="hardAlpha" operator="out"/>
<feColorMatrix type="matrix" values="0 0 0 0 0 0 0 0 0 0 0 0 0 0 0 0 0 0 0.24 0"/>
<feBlend mode="normal" in2="BackgroundImageFix" result="effect1_dropShadow_7647_1468"/>
<feColorMatrix in="SourceAlpha" type="matrix" values="0 0 0 0 0 0 0 0 0 0 0 0 0 0 0 0 0 0 127 0" result="hardAlpha"/>
<feOffset dy="1"/>
<feGaussianBlur stdDeviation="1"/>
<feComposite in2="hardAlpha" operator="out"/>
<feColorMatrix type="matrix" values="0 0 0 0 0 0 0 0 0 0 0 0 0 0 0 0 0 0 0.24 0"/>
<feBlend mode="normal" in2="effect1_dropShadow_7647_1468" result="effect2_dropShadow_7647_1468"/>
<feBlend mode="normal" in="SourceGraphic" in2="effect2_dropShadow_7647_1468" result="shape"/>
</filter>
<filter id="filter4_dd_7647_1468" x="112.221" y="39" width="57.2466" height="93.4331" filterUnits="userSpaceOnUse" color-interpolation-filters="sRGB">
<feFlood flood-opacity="0" result="BackgroundImageFix"/>
<feColorMatrix in="SourceAlpha" type="matrix" values="0 0 0 0 0 0 0 0 0 0 0 0 0 0 0 0 0 0 127 0" result="hardAlpha"/>
<feOffset dy="4"/>
<feGaussianBlur stdDeviation="8"/>
<feComposite in2="hardAlpha" operator="out"/>
<feColorMatrix type="matrix" values="0 0 0 0 0 0 0 0 0 0 0 0 0 0 0 0 0 0 0.14 0"/>
<feBlend mode="normal" in2="BackgroundImageFix" result="effect1_dropShadow_7647_1468"/>
<feColorMatrix in="SourceAlpha" type="matrix" values="0 0 0 0 0 0 0 0 0 0 0 0 0 0 0 0 0 0 127 0" result="hardAlpha"/>
<feOffset dy="1"/>
<feGaussianBlur stdDeviation="0.5"/>
<feComposite in2="hardAlpha" operator="out"/>
<feColorMatrix type="matrix" values="0 0 0 0 0 0 0 0 0 0 0 0 0 0 0 0 0 0 0.08 0"/>
<feBlend mode="normal" in2="effect1_dropShadow_7647_1468" result="effect2_dropShadow_7647_1468"/>
<feBlend mode="normal" in="SourceGraphic" in2="effect2_dropShadow_7647_1468" result="shape"/>
</filter>
<radialGradient id="paint0_radial_7647_1468" cx="0" cy="0" r="1" gradientUnits="userSpaceOnUse" gradientTransform="translate(163.721 119) rotate(-138.685) scale(104.514 70.8147)">
<stop offset="0.344591" stop-color="#FFF9E6"/>
<stop offset="1" stop-color="#959494"/>
</radialGradient>
<linearGradient id="paint1_linear_7647_1468" x1="158.721" y1="112" x2="165.221" y2="120.5" gradientUnits="userSpaceOnUse">
<stop stop-color="#FFE79E"/>
<stop offset="1" stop-color="#FFD452"/>
</linearGradient>
<linearGradient id="paint2_linear_7647_1468" x1="156.221" y1="117" x2="168.221" y2="117" gradientUnits="userSpaceOnUse">
<stop stop-color="#FFEAAA"/>
<stop offset="1" stop-color="#FFE7A1"/>
</linearGradient>
<linearGradient id="paint3_linear_7647_1468" x1="154.721" y1="37" x2="156.221" y2="47" gradientUnits="userSpaceOnUse">
<stop stop-color="#C2C2C2"/>
<stop offset="1" stop-color="#FFEFBF"/>
</linearGradient>
<linearGradient id="paint4_linear_7647_1468" x1="55.7687" y1="37" x2="62.2208" y2="47" gradientUnits="userSpaceOnUse">
<stop stop-color="#C2C2C2"/>
<stop offset="1" stop-color="#FFEFBF"/>
</linearGradient>
<linearGradient id="paint5_linear_7647_1468" x1="55.2208" y1="113" x2="63.2208" y2="113" gradientUnits="userSpaceOnUse">
<stop stop-color="#C2C2C2"/>
<stop offset="1" stop-color="#FFEFBF"/>
</linearGradient>
<linearGradient id="paint6_linear_7647_1468" x1="172.715" y1="117.561" x2="177.028" y2="136.768" gradientUnits="userSpaceOnUse">
<stop stop-color="#E3E3E2"/>
<stop offset="0.9964" stop-color="#BABABA"/>
</linearGradient>
<linearGradient id="paint7_linear_7647_1468" x1="165.043" y1="118.328" x2="176.388" y2="130.791" gradientUnits="userSpaceOnUse">
<stop stop-color="#DAC891"/>
<stop offset="1" stop-color="#AFAFAF"/>
</linearGradient>
</defs>
</svg>
