<svg width="20" height="20" viewBox="0 0 20 20" fill="none" xmlns="http://www.w3.org/2000/svg">
<path fill-rule="evenodd" clip-rule="evenodd" d="M3 6.25C3 4.45507 4.45507 3 6.25 3H7.59615C8.01037 3 8.34615 3.33579 8.34615 3.75C8.34615 4.16421 8.01037 4.5 7.59615 4.5H6.25C5.2835 4.5 4.5 5.2835 4.5 6.25V7.59615C4.5 8.01037 4.16421 8.34615 3.75 8.34615C3.33579 8.34615 3 8.01037 3 7.59615V6.25ZM11.6538 3.75C11.6538 3.33579 11.9896 3 12.4038 3H13.75C15.5449 3 17 4.45507 17 6.25V7.59615C17 8.01037 16.6642 8.34615 16.25 8.34615C15.8358 8.34615 15.5 8.01037 15.5 7.59615V6.25C15.5 5.2835 14.7165 4.5 13.75 4.5H12.4038C11.9896 4.5 11.6538 4.16421 11.6538 3.75ZM3.75 11.6538C4.16421 11.6538 4.5 11.9896 4.5 12.4038V13.75C4.5 14.7165 5.2835 15.5 6.25 15.5H7.59615C8.01037 15.5 8.34615 15.8358 8.34615 16.25C8.34615 16.6642 8.01037 17 7.59615 17H6.25C4.45507 17 3 15.5449 3 13.75V12.4038C3 11.9896 3.33579 11.6538 3.75 11.6538ZM16.25 11.6538C16.6642 11.6538 17 11.9896 17 12.4038V13.75C17 15.5449 15.5449 17 13.75 17H12.4038C11.9896 17 11.6538 16.6642 11.6538 16.25C11.6538 15.8358 11.9896 15.5 12.4038 15.5H13.75C14.7165 15.5 15.5 14.7165 15.5 13.75V12.4038C15.5 11.9896 15.8358 11.6538 16.25 11.6538ZM8 12.75V9.66474L9.37373 11.6629C9.67572 12.1021 10.3243 12.1021 10.6263 11.6629L12 9.66474V12.75C12 13.1642 12.3358 13.5 12.75 13.5C13.1642 13.5 13.5 13.1642 13.5 12.75V7.28218C13.5 6.53578 12.5365 6.23663 12.1137 6.85162L10 9.92613L7.88627 6.85162C7.46341 6.23655 6.5 6.53588 6.5 7.28218V12.75C6.5 13.1642 6.83579 13.5 7.25 13.5C7.66421 13.5 8 13.1642 8 12.75Z" fill="#212121"/>
</svg>
