<svg width="16" height="16" viewBox="0 0 16 16" fill="none" xmlns="http://www.w3.org/2000/svg">
<path d="M5.46 14H2V3H2.96V2H1.5C1.22 2 1 2.22 1 2.5V14.5C1 14.78 1.22 15 1.5 15H5.46C5.74 15 5.96 14.78 5.96 14.5C5.96 14.22 5.74 14 5.46 14Z" fill="#212121"/>
<path d="M7.96 3C7.96 1.9 7.06 1 5.96 1C4.86 1 3.96 1.9 3.96 3C3.96 4.1 4.86 5 5.96 5C7.06 5 7.96 4.1 7.96 3ZM5.96 4C5.41 4 4.96 3.55 4.96 3C4.96 2.45 5.41 2 5.96 2C6.51 2 6.96 2.45 6.96 3C6.96 3.55 6.51 4 5.96 4Z" fill="#212121"/>
<path d="M4.42 7.49C4.66 7.49 4.87 7.32 4.91 7.07L4.99 6.58C5.03 6.31 4.85 6.05 4.58 6C4.31 5.95 4.05 6.14 4 6.41L3.92 6.9C3.88 7.17 4.06 7.43 4.33 7.48C4.36 7.48 4.39 7.48 4.41 7.48L4.42 7.49Z" fill="#212121"/>
<path d="M3.86 10.35C3.86 10.35 3.92 10.35 3.94 10.35C4.18 10.35 4.39 10.18 4.43 9.93L4.55 9.21C4.59 8.94 4.41 8.68 4.14 8.63C3.87 8.58 3.61 8.77 3.56 9.04L3.44 9.76C3.4 10.03 3.58 10.29 3.85 10.34L3.86 10.35Z" fill="#212121"/>
<path d="M3.42 12.99C3.42 12.99 3.48 12.99 3.5 12.99C3.74 12.99 3.95 12.82 3.99 12.57L4.07 12.08C4.11 11.81 3.93 11.55 3.66 11.5C3.39 11.45 3.13 11.64 3.08 11.91L3 12.4C2.96 12.67 3.14 12.93 3.41 12.98L3.42 12.99Z" fill="#212121"/>
<path d="M7.4 6.01C7.13 6.06 6.95 6.33 7.01 6.6L7.11 7.09C7.16 7.33 7.37 7.49 7.6 7.49C7.63 7.49 7.67 7.49 7.7 7.49C7.97 7.44 8.15 7.17 8.09 6.9L7.99 6.41C7.94 6.14 7.67 5.96 7.4 6.02V6.01Z" fill="#212121"/>
<path d="M7.85 8.26C7.58 8.31 7.4 8.58 7.46 8.85L7.56 9.35C7.61 9.59 7.82 9.75 8.05 9.75C8.08 9.75 8.12 9.75 8.15 9.75C8.42 9.7 8.6 9.43 8.54 9.16L8.44 8.66C8.39 8.39 8.12 8.21 7.85 8.27V8.26Z" fill="#212121"/>
<path d="M8.3 10.52C8.03 10.57 7.85 10.84 7.91 11.11L8.01 11.6C8.06 11.84 8.27 12 8.5 12C8.53 12 8.57 12 8.6 12C8.87 11.95 9.05 11.68 8.99 11.41L8.89 10.92C8.84 10.65 8.57 10.47 8.3 10.53V10.52Z" fill="#212121"/>
<path d="M10 5.5C10 5.78 10.22 6 10.5 6H14V8.04L15 9.08V5.5C15 5.22 14.78 5 14.5 5H11V2.5C11 2.22 10.78 2 10.5 2H8.96V3H10V5.5Z" fill="#212121"/>
<path d="M14 14H10.58L6.69 12.05C6.44 11.93 6.14 12.03 6.02 12.27C5.9 12.52 6 12.82 6.24 12.94L10.24 14.94C10.24 14.94 10.24 14.94 10.25 14.94C10.31 14.97 10.38 14.99 10.46 14.99H14.5C14.78 14.99 15 14.77 15 14.49V12.65C14.93 12.65 14.85 12.65 14.78 12.62L14 12.44V14Z" fill="#212121"/>
<path d="M15.41 10.95L11.74 7.13C11.62 7 11.43 6.96 11.27 7.03C11.11 7.1 11 7.25 11 7.43V12.57C11 12.76 11.12 12.92 11.29 12.98C11.46 13.04 11.66 12.98 11.77 12.82L12.94 11.19L15 11.67C15.18 11.71 15.38 11.63 15.47 11.46C15.56 11.3 15.54 11.09 15.41 10.95Z" fill="#212121"/>
</svg>
