<svg width="20" height="20" viewBox="0 0 20 20" fill="none" xmlns="http://www.w3.org/2000/svg">
<path d="M5.5 17H2V4H3V3H1.5C1.22 3 1 3.22 1 3.5V17.5C1 17.78 1.22 18 1.5 18H5.5C5.78 18 6 17.78 6 17.5C6 17.22 5.78 17 5.5 17Z" fill="#212121"/>
<path d="M8 3C8 1.9 7.1 1 6 1C4.9 1 4 1.9 4 3C4 4.1 4.9 5 6 5C7.1 5 8 4.1 8 3ZM6 4C5.45 4 5 3.55 5 3C5 2.45 5.45 2 6 2C6.55 2 7 2.45 7 3C7 3.55 6.55 4 6 4Z" fill="#212121"/>
<path d="M16 17H10.62L6.73 15.05C6.48 14.93 6.18 15.03 6.06 15.27C5.94 15.52 6.04 15.82 6.28 15.94L10.28 17.94C10.28 17.94 10.28 17.94 10.29 17.94C10.35 17.97 10.42 17.99 10.5 17.99H16.5C16.78 17.99 17 17.77 17 17.49V15.3L16 15.07V17Z" fill="#212121"/>
<path d="M10 6.5C10 6.78 10.22 7 10.5 7H16V9.93L17 10.97V6.5C17 6.22 16.78 6 16.5 6H11V3.5C11 3.22 10.78 3 10.5 3H9V4H10V6.5Z" fill="#212121"/>
<path d="M4.5 9C4.78 9 5 8.78 5 8.5V7.5C5 7.22 4.78 7 4.5 7C4.22 7 4 7.22 4 7.5V8.5C4 8.78 4.22 9 4.5 9Z" fill="#212121"/>
<path d="M4.5 12.12C4.78 12.12 5 11.9 5 11.62V10.37C5 10.09 4.78 9.87 4.5 9.87C4.22 9.87 4 10.09 4 10.37V11.62C4 11.9 4.22 12.12 4.5 12.12Z" fill="#212121"/>
<path d="M4.5 15C4.78 15 5 14.78 5 14.5V13.5C5 13.22 4.78 13 4.5 13C4.22 13 4 13.22 4 13.5V14.5C4 14.78 4.22 15 4.5 15Z" fill="#212121"/>
<path d="M7.3 7.04C7.05 7.15 6.93 7.44 7.04 7.7L7.43 8.62C7.51 8.81 7.7 8.92 7.89 8.92C7.96 8.92 8.02 8.91 8.09 8.88C8.34 8.77 8.46 8.48 8.35 8.22L7.96 7.3C7.85 7.05 7.56 6.93 7.3 7.04Z" fill="#212121"/>
<path d="M8.26 10.55L8.81 11.84C8.89 12.03 9.08 12.14 9.27 12.14C9.34 12.14 9.4 12.13 9.47 12.1C9.72 11.99 9.84 11.7 9.73 11.44L9.18 10.15C9.07 9.9 8.77 9.78 8.52 9.89C8.27 10 8.15 10.29 8.26 10.55Z" fill="#212121"/>
<path d="M9.91 13.12C9.66 13.23 9.54 13.52 9.65 13.78L10.04 14.7C10.12 14.89 10.31 15 10.5 15C10.57 15 10.63 14.99 10.7 14.96C10.95 14.85 11.07 14.56 10.96 14.3L10.57 13.38C10.46 13.13 10.17 13.01 9.91 13.12Z" fill="#212121"/>
<path d="M18.15 13.61L13.87 9.15C13.73 9 13.51 8.96 13.32 9.03C13.13 9.11 13.01 9.29 13.01 9.49V15.49C13.01 15.71 13.15 15.9 13.35 15.97C13.56 16.04 13.78 15.97 13.91 15.79L15.28 13.88L17.68 14.44C17.9 14.49 18.12 14.39 18.23 14.2C18.34 14.01 18.31 13.77 18.16 13.61H18.15Z" fill="#212121"/>
</svg>
