<svg width="28" height="28" viewBox="0 0 28 28" fill="none" xmlns="http://www.w3.org/2000/svg">
<path d="M9.25 6.5C10.77 6.5 12 5.27 12 3.75C12 2.23 10.77 1 9.25 1C7.73 1 6.5 2.23 6.5 3.75C6.5 5.27 7.73 6.5 9.25 6.5ZM9.25 2.5C9.94 2.5 10.5 3.06 10.5 3.75C10.5 4.44 9.94 5 9.25 5C8.56 5 8 4.44 8 3.75C8 3.06 8.56 2.5 9.25 2.5Z" fill="#212121"/>
<path d="M25.28 21.7L22.25 20.95L20.51 23.53C20.1 24.14 19.42 24.5 18.69 24.5C18.47 24.5 18.26 24.47 18.05 24.4C17.12 24.12 16.5 23.27 16.5 22.3V11.68C16.5 10.78 17.07 9.96 17.91 9.63C18.16 9.53 18.43 9.48 18.7 9.48C19.32 9.48 19.91 9.74 20.33 10.2L26 16.49V8.25C26 7.84 25.66 7.5 25.25 7.5H17V3.75C17 3.34 16.66 3 16.25 3H13.42C13.46 3.24 13.5 3.49 13.5 3.75C13.5 6.09 11.59 8 9.25 8C6.91 8 5 6.09 5 3.75C5 3.49 5.03 3.24 5.08 3H2.75C2.34 3 2 3.34 2 3.75V25.25C2 25.66 2.34 26 2.75 26H6.88L8.04 22.51C8.11 22.3 8.27 22.13 8.48 22.05C8.69 21.97 8.92 21.98 9.11 22.09L16.37 26H25.25C25.66 26 26 25.66 26 25.25V21.74C25.94 21.74 25.88 21.76 25.81 21.76C25.63 21.76 25.45 21.74 25.28 21.7ZM5.74 22.11C5.69 22.48 5.37 22.75 5 22.75C4.96 22.75 4.93 22.75 4.89 22.75C4.48 22.69 4.2 22.31 4.25 21.9L4.39 20.91C4.45 20.5 4.82 20.21 5.24 20.27C5.65 20.33 5.93 20.71 5.88 21.12L5.74 22.11ZM6.46 17.06C6.41 17.43 6.09 17.7 5.72 17.7C5.68 17.7 5.65 17.7 5.61 17.7C5.2 17.64 4.92 17.26 4.97 16.85L5.28 14.69C5.34 14.28 5.71 13.98 6.13 14.05C6.54 14.11 6.82 14.49 6.77 14.9L6.46 17.06ZM7.35 10.85C7.3 11.22 6.98 11.49 6.61 11.49C6.57 11.49 6.54 11.49 6.5 11.49C6.09 11.43 5.81 11.05 5.86 10.64L6 9.65C6.06 9.24 6.43 8.95 6.85 9.01C7.26 9.07 7.54 9.45 7.49 9.86L7.35 10.85ZM10.46 11.13L10.26 10.15C10.18 9.74 10.44 9.35 10.85 9.27C11.26 9.19 11.65 9.45 11.73 9.86L11.93 10.84C12.01 11.25 11.75 11.64 11.34 11.72C11.29 11.72 11.24 11.73 11.19 11.73C10.84 11.73 10.53 11.48 10.46 11.13ZM11.46 16.15L11.06 14.14C10.98 13.73 11.24 13.34 11.65 13.26C12.05 13.18 12.45 13.44 12.53 13.85L12.93 15.86C13.01 16.27 12.75 16.66 12.34 16.74C12.29 16.74 12.24 16.75 12.19 16.75C11.84 16.75 11.53 16.5 11.46 16.15ZM13.15 20.74C13.15 20.74 13.05 20.75 13 20.75C12.65 20.75 12.34 20.5 12.27 20.15L12.07 19.17C11.99 18.76 12.25 18.37 12.66 18.29C13.07 18.21 13.46 18.47 13.54 18.88L13.74 19.86C13.82 20.27 13.56 20.66 13.15 20.74Z" fill="#212121"/>
<path d="M26.32 19.11L19.21 11.23C19.02 11.02 18.72 10.94 18.45 11.05C18.18 11.15 18.01 11.41 18.01 11.7V22.32C18.01 22.62 18.2 22.89 18.49 22.98C18.78 23.07 19.1 22.96 19.27 22.7L21.6 19.25L25.65 20.26C25.95 20.33 26.25 20.21 26.41 19.94C26.57 19.68 26.53 19.35 26.33 19.12L26.32 19.11Z" fill="#212121"/>
</svg>
