<svg width="28" height="28" viewBox="0 0 28 28" fill="none" xmlns="http://www.w3.org/2000/svg">
<path d="M8.25 25.5H3.5V5.5H5.08C5.04 5.26 5 5.01 5 4.75C5 4.49 5.03 4.24 5.08 4H2.75C2.34 4 2 4.34 2 4.75V26.25C2 26.66 2.34 27 2.75 27H8.25C8.66 27 9 26.66 9 26.25C9 25.84 8.66 25.5 8.25 25.5Z" fill="#212121"/>
<path d="M9.25 7.5C10.77 7.5 12 6.27 12 4.75C12 3.23 10.77 2 9.25 2C7.73 2 6.5 3.23 6.5 4.75C6.5 6.27 7.73 7.5 9.25 7.5ZM9.25 3.5C9.94 3.5 10.5 4.06 10.5 4.75C10.5 5.44 9.94 6 9.25 6C8.56 6 8 5.44 8 4.75C8 4.06 8.56 3.5 9.25 3.5Z" fill="#212121"/>
<path d="M7 9.66L6.88 10.65C6.83 11.06 7.12 11.43 7.54 11.48C7.57 11.48 7.6 11.48 7.63 11.48C8 11.48 8.33 11.2 8.37 10.82L8.49 9.83C8.54 9.42 8.25 9.05 7.83 9C7.42 8.96 7.04 9.24 7 9.66Z" fill="#212121"/>
<path d="M6.78 17.85C6.78 17.85 6.84 17.85 6.87 17.85C7.24 17.85 7.57 17.57 7.61 17.19L7.88 14.98C7.93 14.57 7.64 14.2 7.22 14.15C6.82 14.11 6.44 14.39 6.39 14.81L6.12 17.02C6.07 17.43 6.36 17.8 6.78 17.85Z" fill="#212121"/>
<path d="M6.16 23C6.16 23 6.22 23 6.25 23C6.62 23 6.95 22.72 6.99 22.34L7.11 21.35C7.16 20.94 6.87 20.57 6.45 20.52C6.05 20.48 5.67 20.76 5.62 21.18L5.5 22.17C5.45 22.58 5.74 22.95 6.16 23Z" fill="#212121"/>
<path d="M11.76 10.49L11.47 9.53C11.35 9.13 10.93 8.91 10.53 9.03C10.13 9.15 9.91 9.57 10.03 9.97L10.32 10.93C10.42 11.25 10.72 11.46 11.04 11.46C11.11 11.46 11.19 11.45 11.26 11.43C11.66 11.31 11.88 10.89 11.76 10.49Z" fill="#212121"/>
<path d="M11.42 14.52L12.15 16.92C12.25 17.24 12.55 17.45 12.87 17.45C12.94 17.45 13.02 17.44 13.09 17.42C13.49 17.3 13.71 16.88 13.59 16.48L12.86 14.08C12.74 13.68 12.32 13.47 11.92 13.58C11.52 13.7 11.3 14.12 11.42 14.52Z" fill="#212121"/>
<path d="M13.74 19.58C13.34 19.7 13.12 20.12 13.24 20.52L13.53 21.48C13.63 21.8 13.93 22.01 14.25 22.01C14.32 22.01 14.4 22 14.47 21.98C14.87 21.86 15.09 21.44 14.97 21.04L14.68 20.08C14.56 19.68 14.14 19.46 13.74 19.58Z" fill="#212121"/>
<path d="M15.5 5.5V9.25C15.5 9.66 15.84 10 16.25 10H24.5V15.85L26 17.51V9.25C26 8.84 25.66 8.5 25.25 8.5H17V4.75C17 4.34 16.66 4 16.25 4H13.42C13.46 4.24 13.5 4.49 13.5 4.75C13.5 5.01 13.47 5.26 13.42 5.5H15.5Z" fill="#212121"/>
<path d="M25.28 22.7L24.5 22.51V25.5H16.75C16.75 25.5 16.72 25.5 16.7 25.5L10.09 22.07C9.72 21.88 9.27 22.02 9.08 22.39C8.89 22.76 9.03 23.21 9.4 23.4L16.15 26.9C16.26 26.96 16.38 26.98 16.49 26.98C16.53 26.98 16.56 26.96 16.6 26.95C16.65 26.95 16.69 26.98 16.74 26.98H25.24C25.65 26.98 25.99 26.64 25.99 26.23V22.72C25.93 22.72 25.87 22.74 25.8 22.74C25.62 22.74 25.44 22.72 25.27 22.68L25.28 22.7Z" fill="#212121"/>
<path d="M26.32 20.11L19.21 12.23C19.02 12.02 18.72 11.94 18.45 12.05C18.18 12.15 18.01 12.41 18.01 12.7V23.32C18.01 23.62 18.2 23.89 18.49 23.98C18.78 24.07 19.1 23.96 19.27 23.7L21.6 20.25L25.65 21.26C25.95 21.33 26.25 21.21 26.41 20.94C26.57 20.68 26.53 20.35 26.33 20.12L26.32 20.11Z" fill="#212121"/>
</svg>
