<svg width="24" height="24" viewBox="0 0 24 24" fill="none" xmlns="http://www.w3.org/2000/svg">
<path d="M7.25 21.5H3.5V5.5H4.58C4.54 5.26 4.5 5.01 4.5 4.75C4.5 4.49 4.53 4.24 4.58 4H2.75C2.34 4 2 4.34 2 4.75V22.25C2 22.66 2.34 23 2.75 23H7.25C7.66 23 8 22.66 8 22.25C8 21.84 7.66 21.5 7.25 21.5Z" fill="#212121"/>
<path d="M8.75 7.5C10.27 7.5 11.5 6.27 11.5 4.75C11.5 3.23 10.27 2 8.75 2C7.23 2 6 3.23 6 4.75C6 6.27 7.23 7.5 8.75 7.5ZM8.75 3.5C9.44 3.5 10 4.06 10 4.75C10 5.44 9.44 6 8.75 6C8.06 6 7.5 5.44 7.5 4.75C7.5 4.06 8.06 3.5 8.75 3.5Z" fill="#212121"/>
<path d="M6.51 9.14L6.36 10.13C6.3 10.54 6.58 10.92 6.99 10.98C7.03 10.98 7.07 10.98 7.1 10.98C7.47 10.98 7.78 10.71 7.84 10.34L7.99 9.35C8.05 8.94 7.77 8.56 7.36 8.5C6.95 8.45 6.57 8.72 6.51 9.13V9.14Z" fill="#212121"/>
<path d="M6.27 15.79C6.27 15.79 6.35 15.79 6.38 15.79C6.75 15.79 7.06 15.52 7.12 15.15L7.36 13.55C7.42 13.14 7.14 12.76 6.73 12.7C6.32 12.64 5.94 12.92 5.88 13.33L5.64 14.93C5.58 15.34 5.86 15.72 6.27 15.78V15.79Z" fill="#212121"/>
<path d="M5.64 19.99C5.64 19.99 5.72 19.99 5.75 19.99C6.12 19.99 6.43 19.72 6.49 19.35L6.64 18.36C6.7 17.95 6.42 17.57 6.01 17.51C5.6 17.45 5.22 17.73 5.16 18.14L5.01 19.13C4.95 19.54 5.23 19.92 5.64 19.98V19.99Z" fill="#212121"/>
<path d="M10.62 9.49L10.46 9.02C10.33 8.63 9.91 8.42 9.51 8.55C9.12 8.68 8.9 9.11 9.04 9.5L9.2 9.97C9.31 10.28 9.6 10.48 9.91 10.48C9.99 10.48 10.07 10.47 10.15 10.44C10.54 10.31 10.76 9.88 10.62 9.49Z" fill="#212121"/>
<path d="M10.64 11.92C10.25 12.05 10.03 12.48 10.17 12.87L10.41 13.6C10.51 13.91 10.81 14.11 11.12 14.11C11.2 14.11 11.28 14.1 11.36 14.07C11.75 13.94 11.97 13.51 11.83 13.12L11.59 12.39C11.46 12 11.04 11.79 10.64 11.92Z" fill="#212121"/>
<path d="M11.38 16.51L11.54 16.98C11.65 17.29 11.94 17.49 12.25 17.49C12.33 17.49 12.41 17.48 12.49 17.45C12.88 17.32 13.1 16.89 12.96 16.5L12.8 16.03C12.67 15.64 12.25 15.43 11.85 15.56C11.46 15.69 11.24 16.12 11.38 16.51Z" fill="#212121"/>
<path d="M14.5 5.5V9.25C14.5 9.66 14.84 10 15.25 10H20.5V12.56L22 14.12V9.25C22 8.84 21.66 8.5 21.25 8.5H16V4.75C16 4.34 15.66 4 15.25 4H12.92C12.96 4.24 13 4.49 13 4.75C13 5.01 12.97 5.26 12.92 5.5H14.5Z" fill="#212121"/>
<path d="M20.5 19.19V21.5H15.75C15.75 21.5 15.72 21.5 15.7 21.5L9.09 18.07C8.72 17.88 8.27 18.02 8.08 18.39C7.89 18.76 8.03 19.21 8.4 19.4L15.15 22.9C15.26 22.96 15.38 22.98 15.49 22.98C15.53 22.98 15.56 22.96 15.6 22.95C15.65 22.95 15.69 22.98 15.74 22.98H21.24C21.65 22.98 21.99 22.64 21.99 22.23V19.48C21.88 19.48 21.77 19.47 21.66 19.44L20.49 19.17L20.5 19.19Z" fill="#212121"/>
<path d="M22.62 16.93L17.11 11.2C16.93 11.01 16.65 10.95 16.41 11.05C16.17 11.15 16.01 11.38 16.01 11.65V19.36C16.01 19.64 16.19 19.89 16.45 19.97C16.72 20.06 17.01 19.96 17.17 19.73L18.93 17.28L22.01 18C22.29 18.06 22.57 17.94 22.71 17.69C22.85 17.44 22.81 17.13 22.61 16.93H22.62Z" fill="#212121"/>
</svg>
