<svg width="24" height="24" viewBox="0 0 24 24" fill="none" xmlns="http://www.w3.org/2000/svg">
<path d="M8.75 6.5C10.27 6.5 11.5 5.27 11.5 3.75C11.5 2.23 10.27 1 8.75 1C7.23 1 6 2.23 6 3.75C6 5.27 7.23 6.5 8.75 6.5ZM8.75 2.5C9.44 2.5 10 3.06 10 3.75C10 4.44 9.44 5 8.75 5C8.06 5 7.5 4.44 7.5 3.75C7.5 3.06 8.06 2.5 8.75 2.5Z" fill="#212121"/>
<path d="M19.56 17.97L18.38 19.61C17.98 20.17 17.33 20.5 16.64 20.5C16.42 20.5 16.2 20.47 15.98 20.4C15.09 20.11 14.49 19.29 14.49 18.36V10.65C14.49 9.77 15.02 8.99 15.84 8.66C16.1 8.56 16.36 8.51 16.64 8.51C17.22 8.51 17.78 8.75 18.18 9.17L21.99 13.13V8.26C21.99 7.85 21.65 7.51 21.24 7.51H15.99V3.76C15.99 3.35 15.65 3.01 15.24 3.01H12.91C12.95 3.25 12.99 3.5 12.99 3.76C12.99 6.1 11.08 8.01 8.74 8.01C6.4 8.01 4.5 6.09 4.5 3.75C4.5 3.49 4.53 3.24 4.58 3H2.75C2.34 3 2 3.34 2 3.75V21.25C2 21.66 2.34 22 2.75 22H6.88L8.04 18.51C8.11 18.3 8.27 18.13 8.48 18.05C8.69 17.97 8.92 17.98 9.11 18.09L16.37 22H21.25C21.66 22 22 21.66 22 21.25V18.5C21.89 18.5 21.78 18.49 21.67 18.46L19.56 17.97ZM5.49 19.38C5.42 19.74 5.11 20 4.75 20C4.71 20 4.66 20 4.62 19.99C4.21 19.92 3.94 19.53 4.01 19.12L4.19 18.14C4.26 17.73 4.65 17.46 5.06 17.53C5.47 17.6 5.74 17.99 5.67 18.4L5.49 19.38ZM6.22 15.29C6.15 15.65 5.84 15.91 5.48 15.91C5.44 15.91 5.39 15.91 5.35 15.9C4.94 15.83 4.67 15.44 4.74 15.03L5.02 13.47C5.09 13.06 5.48 12.8 5.89 12.86C6.3 12.93 6.57 13.32 6.5 13.73L6.22 15.29ZM7.06 10.62C6.99 10.98 6.68 11.24 6.32 11.24C6.28 11.24 6.23 11.24 6.19 11.23C5.78 11.16 5.51 10.77 5.58 10.36L5.76 9.38C5.83 8.97 6.22 8.71 6.63 8.77C7.04 8.84 7.31 9.23 7.24 9.64L7.06 10.62ZM9.67 10.57L9.53 10.09C9.41 9.69 9.64 9.28 10.04 9.16C10.44 9.05 10.86 9.27 10.97 9.67L11.11 10.15C11.23 10.55 11 10.96 10.6 11.08C10.53 11.1 10.46 11.11 10.39 11.11C10.07 11.11 9.77 10.9 9.67 10.57ZM10.76 14.27L10.54 13.53C10.42 13.13 10.65 12.72 11.05 12.6C11.45 12.48 11.87 12.71 11.98 13.11L12.2 13.85C12.32 14.25 12.09 14.66 11.69 14.78C11.62 14.8 11.55 14.81 11.48 14.81C11.16 14.81 10.86 14.6 10.76 14.27ZM12.71 18.22C12.64 18.24 12.57 18.25 12.5 18.25C12.18 18.25 11.88 18.04 11.78 17.71L11.64 17.23C11.52 16.83 11.75 16.42 12.15 16.3C12.55 16.19 12.97 16.41 13.08 16.81L13.22 17.29C13.34 17.69 13.11 18.1 12.71 18.22Z" fill="#212121"/>
<path d="M22.62 15.93L17.11 10.2C16.99 10.07 16.82 10 16.65 10C16.57 10 16.49 10.02 16.41 10.05C16.17 10.15 16.01 10.38 16.01 10.65V18.36C16.01 18.64 16.19 18.89 16.45 18.97C16.51 18.99 16.58 19 16.65 19C16.85 19 17.05 18.9 17.17 18.73L18.93 16.28L22.01 17C22.01 17 22.11 17.02 22.16 17.02C22.39 17.02 22.6 16.9 22.72 16.69C22.86 16.44 22.82 16.13 22.62 15.93Z" fill="#212121"/>
</svg>
