<svg width="20" height="20" viewBox="0 0 20 20" fill="none" xmlns="http://www.w3.org/2000/svg">
<path d="M6 5C7.1 5 8 4.1 8 3C8 1.9 7.1 1 6 1C4.9 1 4 1.9 4 3C4 4.1 4.9 5 6 5ZM6 2C6.55 2 7 2.45 7 3C7 3.55 6.55 4 6 4C5.45 4 5 3.55 5 3C5 2.45 5.45 2 6 2Z" fill="#212121"/>
<path d="M14.72 16.37C14.44 16.76 13.98 17 13.5 17C13.34 17 13.19 16.98 13.04 16.93C12.42 16.73 12 16.16 12 15.5V9.5C12 8.88 12.37 8.34 12.94 8.11C13.12 8.04 13.31 8 13.5 8C13.91 8 14.3 8.17 14.58 8.46L17 10.97V6.5C17 6.22 16.78 6 16.5 6H11V3.5C11 3.22 10.78 3 10.5 3H9C9 4.65 7.65 6 6 6C4.35 6 3 4.65 3 3H1.5C1.22 3 1 3.22 1 3.5V17.5C1 17.78 1.22 18 1.5 18H5.14L6.03 15.34C6.08 15.2 6.18 15.09 6.32 15.03C6.46 14.98 6.61 14.99 6.74 15.06L12.13 18H16.5C16.78 18 17 17.78 17 17.5V15.31L15.7 15.01L14.72 16.38V16.37ZM4 15.57C3.96 15.82 3.75 16 3.51 16C3.49 16 3.46 16 3.44 16C3.17 15.96 2.98 15.71 3.02 15.43L3.16 14.44C3.2 14.17 3.45 13.98 3.73 14.02C4 14.06 4.19 14.31 4.15 14.59L4.01 15.58L4 15.57ZM4.41 12.7C4.37 12.95 4.16 13.13 3.92 13.13C3.9 13.13 3.87 13.13 3.85 13.13C3.58 13.09 3.39 12.84 3.43 12.56L3.61 11.31C3.65 11.04 3.91 10.85 4.18 10.89C4.45 10.93 4.64 11.18 4.6 11.46L4.42 12.71L4.41 12.7ZM4.85 9.56C4.81 9.81 4.6 9.99 4.36 9.99C4.34 9.99 4.31 9.99 4.29 9.99C4.02 9.95 3.83 9.7 3.87 9.42L4.01 8.43C4.05 8.16 4.3 7.97 4.58 8.01C4.85 8.05 5.04 8.3 5 8.58L4.86 9.57L4.85 9.56ZM7.39 9.11L7.03 8.18C6.93 7.92 7.06 7.63 7.32 7.53C7.58 7.43 7.87 7.56 7.97 7.82L8.33 8.75C8.43 9.01 8.3 9.3 8.04 9.4C7.98 9.42 7.92 9.43 7.86 9.43C7.66 9.43 7.47 9.31 7.39 9.11ZM8.51 12.01L8.06 10.85C7.96 10.59 8.09 10.3 8.35 10.2C8.61 10.1 8.9 10.23 9 10.49L9.45 11.65C9.55 11.91 9.42 12.2 9.16 12.3C9.1 12.32 9.04 12.33 8.98 12.33C8.78 12.33 8.59 12.21 8.51 12.01ZM10.18 14.97C10.12 14.99 10.06 15 10 15C9.8 15 9.61 14.88 9.53 14.68L9.17 13.75C9.07 13.49 9.2 13.2 9.46 13.1C9.72 13 10.01 13.13 10.11 13.39L10.47 14.32C10.57 14.58 10.44 14.87 10.18 14.97Z" fill="#212121"/>
<path d="M18.15 13.61L13.87 9.15C13.73 9 13.51 8.96 13.32 9.03C13.13 9.11 13.01 9.29 13.01 9.49V15.49C13.01 15.71 13.15 15.9 13.35 15.97C13.56 16.04 13.78 15.97 13.91 15.79L15.28 13.88L17.68 14.44C17.9 14.49 18.12 14.39 18.23 14.2C18.34 14.01 18.31 13.77 18.16 13.61H18.15Z" fill="#212121"/>
</svg>
