<svg width="48" height="48" viewBox="0 0 48 48" fill="none" xmlns="http://www.w3.org/2000/svg">
<path d="M12.75 41.5H5.5V8.5H8V6H5.25C4.01 6 3 7.01 3 8.25V41.75C3 42.99 4.01 44 5.25 44H12.75C13.44 44 14 43.44 14 42.75C14 42.06 13.44 41.5 12.75 41.5Z" fill="#212121"/>
<path d="M14.75 11.5C17.09 11.5 19 9.59 19 7.25C19 4.91 17.09 3 14.75 3C12.41 3 10.5 4.91 10.5 7.25C10.5 9.59 12.41 11.5 14.75 11.5ZM14.75 5.5C15.71 5.5 16.5 6.29 16.5 7.25C16.5 8.21 15.71 9 14.75 9C13.79 9 13 8.21 13 7.25C13 6.29 13.79 5.5 14.75 5.5Z" fill="#212121"/>
<path d="M11.51 16.99C11.51 16.99 11.6 16.99 11.65 16.99C12.28 16.99 12.82 16.52 12.89 15.88L13 14.89C13.08 14.2 12.58 13.59 11.89 13.51C11.21 13.42 10.59 13.93 10.51 14.62L10.4 15.61C10.32 16.3 10.82 16.91 11.51 16.99Z" fill="#212121"/>
<path d="M10.68 24.63C10.68 24.63 10.77 24.63 10.82 24.63C11.45 24.63 11.99 24.16 12.06 23.52L12.27 21.61C12.35 20.92 11.85 20.31 11.16 20.23C10.47 20.15 9.86 20.65 9.78 21.34L9.57 23.25C9.49 23.94 9.99 24.55 10.68 24.63Z" fill="#212121"/>
<path d="M9.85 32.27C9.85 32.27 9.94 32.27 9.99 32.27C10.62 32.27 11.16 31.8 11.23 31.16L11.44 29.25C11.52 28.56 11.02 27.95 10.33 27.87C9.64 27.78 9.03 28.29 8.95 28.98L8.74 30.89C8.66 31.58 9.16 32.19 9.85 32.27Z" fill="#212121"/>
<path d="M9.11 38.99C9.11 38.99 9.2 38.99 9.25 38.99C9.88 38.99 10.42 38.52 10.49 37.88L10.6 36.89C10.68 36.2 10.18 35.59 9.49 35.51C8.82 35.42 8.19 35.93 8.11 36.62L8 37.61C7.92 38.3 8.42 38.91 9.11 38.99Z" fill="#212121"/>
<path d="M18.74 15.58L18.44 14.62C18.24 13.96 17.54 13.59 16.88 13.8C16.22 14.01 15.85 14.71 16.06 15.36L16.36 16.32C16.53 16.86 17.02 17.2 17.55 17.2C17.67 17.2 17.8 17.18 17.92 17.14C18.58 16.93 18.95 16.23 18.74 15.58Z" fill="#212121"/>
<path d="M20.11 28.39L20.65 30.11C20.82 30.65 21.31 30.99 21.84 30.99C21.96 30.99 22.09 30.97 22.21 30.93C22.87 30.72 23.24 30.02 23.03 29.37L22.49 27.65C22.29 26.99 21.59 26.62 20.93 26.83C20.27 27.04 19.9 27.74 20.11 28.39Z" fill="#212121"/>
<path d="M17.96 21.5L18.5 23.22C18.67 23.76 19.16 24.1 19.69 24.1C19.81 24.1 19.94 24.08 20.06 24.04C20.72 23.83 21.09 23.13 20.88 22.47L20.34 20.75C20.13 20.09 19.44 19.72 18.77 19.93C18.11 20.14 17.74 20.84 17.95 21.5H17.96Z" fill="#212121"/>
<path d="M23.08 33.73C22.42 33.94 22.05 34.64 22.26 35.29L22.56 36.25C22.73 36.79 23.22 37.13 23.75 37.13C23.87 37.13 24 37.11 24.12 37.07C24.78 36.86 25.15 36.16 24.94 35.51L24.64 34.55C24.44 33.89 23.74 33.52 23.08 33.73Z" fill="#212121"/>
<path d="M40.5 35.04V41.5H28.3L15.82 35.14C15.21 34.82 14.45 35.07 14.14 35.69C13.83 36.3 14.07 37.06 14.69 37.37L27.44 43.87C27.62 43.96 27.82 44.01 28.01 44.01C28.06 44.01 28.11 44 28.16 43.99C28.2 43.99 28.23 44.01 28.26 44.01H40.76C42 44.01 43.01 43 43.01 41.76V35.68C43.01 35.68 42.93 35.68 42.9 35.67L40.51 35.06L40.5 35.04Z" fill="#212121"/>
<path d="M24 12.75C24 13.99 25.01 15 26.25 15H40.5V25.12L43 27.62V14.75C43 13.51 41.99 12.5 40.75 12.5H26.5V8.25C26.5 7.01 25.49 6 24.25 6H21.5V8.5H24V12.75Z" fill="#212121"/>
<path d="M44.43 31.88L30.87 18.32C30.56 18.01 30.09 17.91 29.68 18.08C29.27 18.25 29 18.65 29 19.09V37.9C29 38.38 29.31 38.8 29.77 38.95C30.23 39.09 30.73 38.92 31 38.52L35.34 32.1C35.5 31.87 35.78 31.76 36.05 31.83L43.39 33.71C43.87 33.83 44.37 33.62 44.61 33.19C44.85 32.76 44.78 32.22 44.43 31.87V31.88Z" fill="#212121"/>
</svg>
