<svg width="48" height="48" viewBox="0 0 48 48" fill="none" xmlns="http://www.w3.org/2000/svg">
<path d="M15.9 11.5C18.24 11.5 20.15 9.59 20.15 7.25C20.15 4.91 18.24 3 15.9 3C13.56 3 11.65 4.91 11.65 7.25C11.65 9.59 13.56 11.5 15.9 11.5ZM15.9 5.5C16.86 5.5 17.65 6.29 17.65 7.25C17.65 8.21 16.86 9 15.9 9C14.94 9 14.15 8.21 14.15 7.25C14.15 6.29 14.94 5.5 15.9 5.5Z" fill="#212121"/>
<path d="M33.8 39.64C33.22 40.49 32.27 41 31.24 41C30.93 41 30.63 40.95 30.33 40.86C29.02 40.46 28.14 39.27 28.14 37.9V19.09C28.14 17.83 28.89 16.71 30.05 16.23C30.43 16.07 30.83 15.99 31.23 15.99C32.06 15.99 32.83 16.31 33.42 16.9L44.01 27.49V14.74C44.01 13.5 43 12.49 41.76 12.49H27.51V8.24C27.51 7 26.5 5.99 25.26 5.99H22.51C22.59 6.4 22.63 6.81 22.63 7.24C22.63 10.96 19.6 13.99 15.88 13.99C12.16 13.99 9.13 10.96 9.13 7.24C9.13 6.81 9.17 6.4 9.25 5.99H6.25C5.01 5.99 4 7 4 8.24V41.74C4 42.98 5.01 43.99 6.25 43.99H12.21L13.13 37.44C13.19 37.04 13.43 36.69 13.8 36.5C14.16 36.31 14.59 36.32 14.95 36.5L29.24 43.98H41.74C42.98 43.98 43.99 42.97 43.99 41.73V35.63L37.58 33.99L33.77 39.62L33.8 39.64ZM10.26 38.18C10.17 38.8 9.64 39.25 9.02 39.25C8.96 39.25 8.9 39.25 8.84 39.24C8.16 39.14 7.68 38.51 7.78 37.83L7.92 36.84C8.02 36.15 8.66 35.68 9.33 35.78C10.01 35.88 10.49 36.51 10.39 37.19L10.25 38.18H10.26ZM11.14 32C11.05 32.62 10.52 33.07 9.9 33.07C9.84 33.07 9.78 33.07 9.72 33.06C9.04 32.96 8.56 32.33 8.66 31.65L8.91 29.92C9.01 29.24 9.65 28.76 10.32 28.86C11 28.96 11.48 29.59 11.38 30.27L11.13 32H11.14ZM12.13 25.08C12.04 25.7 11.51 26.15 10.89 26.15C10.83 26.15 10.77 26.15 10.71 26.14C10.03 26.04 9.55 25.41 9.65 24.73L9.9 23C10 22.32 10.64 21.84 11.31 21.94C11.99 22.04 12.47 22.67 12.37 23.35L12.12 25.08H12.13ZM13.12 18.17C13.03 18.79 12.5 19.24 11.88 19.24C11.82 19.24 11.76 19.24 11.7 19.23C11.02 19.13 10.54 18.5 10.64 17.82L10.78 16.83C10.88 16.15 11.52 15.67 12.19 15.77C12.87 15.87 13.35 16.5 13.25 17.18L13.11 18.17H13.12ZM17.47 18.55L17.2 17.59C17.01 16.93 17.4 16.23 18.06 16.05C18.72 15.86 19.42 16.25 19.6 16.91L19.87 17.87C20.06 18.53 19.67 19.23 19.01 19.41C18.9 19.44 18.78 19.46 18.67 19.46C18.13 19.46 17.63 19.1 17.47 18.55ZM19.31 25.04L18.85 23.42C18.66 22.76 19.05 22.06 19.71 21.88C20.37 21.7 21.07 22.07 21.25 22.74L21.71 24.36C21.9 25.02 21.51 25.72 20.85 25.9C20.74 25.93 20.62 25.95 20.51 25.95C19.97 25.95 19.47 25.59 19.31 25.04ZM21.16 31.52L20.7 29.9C20.51 29.24 20.9 28.54 21.56 28.36C22.22 28.17 22.92 28.55 23.1 29.22L23.56 30.84C23.75 31.5 23.36 32.2 22.7 32.38C22.59 32.41 22.47 32.43 22.36 32.43C21.82 32.43 21.32 32.07 21.16 31.52ZM24.36 38.2C24.25 38.23 24.13 38.25 24.02 38.25C23.48 38.25 22.98 37.89 22.82 37.34L22.55 36.38C22.36 35.72 22.75 35.02 23.41 34.84C24.07 34.65 24.77 35.04 24.95 35.7L25.22 36.66C25.41 37.32 25.02 38.02 24.36 38.2Z" fill="#212121"/>
<path d="M45.57 31.88L32.01 18.32C31.7 18.01 31.23 17.91 30.82 18.08C30.41 18.25 30.14 18.65 30.14 19.09V37.9C30.14 38.38 30.45 38.8 30.91 38.95C31.37 39.09 31.87 38.92 32.14 38.52L36.48 32.1C36.64 31.87 36.92 31.76 37.19 31.83L44.53 33.71C45.01 33.83 45.51 33.62 45.75 33.19C45.99 32.76 45.92 32.22 45.57 31.87V31.88Z" fill="#212121"/>
</svg>
