<svg width="16" height="16" viewBox="0 0 16 16" fill="none" xmlns="http://www.w3.org/2000/svg">
<path d="M5.96 5C7.06 5 7.96 4.1 7.96 3C7.96 1.9 7.06 1 5.96 1C4.86 1 3.96 1.9 3.96 3C3.96 4.1 4.86 5 5.96 5ZM5.96 2C6.51 2 6.96 2.45 6.96 3C6.96 3.55 6.51 4 5.96 4C5.41 4 4.96 3.55 4.96 3C4.96 2.45 5.41 2 5.96 2Z" fill="#212121"/>
<path d="M13.37 12.31L12.59 13.4C12.32 13.77 11.89 14 11.43 14C11.28 14 11.13 13.98 10.99 13.93C10.4 13.74 10 13.19 10 12.57V7.43C10 6.84 10.35 6.32 10.9 6.11C11.07 6.04 11.25 6.01 11.43 6.01C11.82 6.01 12.19 6.17 12.46 6.45L15 9.09V5.51C15 5.23 14.78 5.01 14.5 5.01H11V2.5C11 2.22 10.78 2 10.5 2H8.78C8.89 2.31 8.96 2.65 8.96 3C8.96 4.65 7.61 6 5.96 6C4.31 6 2.96 4.65 2.96 3C2.96 2.65 3.03 2.31 3.14 2H1.5C1.22 2 1 2.22 1 2.5V14.5C1 14.78 1.22 15 1.5 15H4.47L5.02 13.34C5.07 13.2 5.17 13.09 5.3 13.04C5.44 12.98 5.59 12.99 5.72 13.05L9.61 15H14.49C14.77 15 14.99 14.78 14.99 14.5V12.66C14.92 12.66 14.84 12.66 14.77 12.63L13.36 12.3L13.37 12.31ZM3.61 12.65L3.48 13.13C3.42 13.35 3.22 13.5 3 13.5C2.96 13.5 2.91 13.5 2.87 13.48C2.6 13.41 2.45 13.13 2.52 12.87L2.65 12.39C2.72 12.12 3 11.97 3.26 12.04C3.53 12.11 3.68 12.39 3.61 12.65ZM4.32 10.06L4.14 10.71C4.08 10.93 3.88 11.08 3.66 11.08C3.62 11.08 3.57 11.08 3.53 11.06C3.26 10.99 3.11 10.71 3.18 10.45L3.36 9.8C3.43 9.54 3.71 9.38 3.97 9.45C4.24 9.52 4.39 9.8 4.32 10.06ZM4.98 7.63L4.85 8.11C4.79 8.33 4.59 8.48 4.37 8.48C4.33 8.48 4.28 8.48 4.24 8.46C3.97 8.39 3.82 8.11 3.89 7.85L4.02 7.37C4.09 7.1 4.37 6.95 4.63 7.02C4.9 7.09 5.05 7.37 4.98 7.63ZM6.61 8.09L6.51 7.6C6.46 7.33 6.63 7.07 6.9 7.01C7.17 6.96 7.43 7.13 7.49 7.4L7.59 7.89C7.64 8.16 7.47 8.42 7.2 8.48C7.17 8.48 7.13 8.48 7.1 8.48C6.87 8.48 6.66 8.32 6.61 8.08V8.09ZM7.07 10.39L6.95 9.82C6.9 9.55 7.07 9.29 7.34 9.23C7.61 9.18 7.87 9.35 7.93 9.62L8.05 10.19C8.1 10.46 7.93 10.72 7.66 10.78C7.63 10.78 7.59 10.78 7.56 10.78C7.33 10.78 7.12 10.62 7.07 10.38V10.39ZM8.1 12.99C8.1 12.99 8.03 12.99 8 12.99C7.77 12.99 7.56 12.83 7.51 12.59L7.41 12.1C7.36 11.83 7.53 11.57 7.8 11.51C8.06 11.46 8.33 11.63 8.39 11.9L8.49 12.39C8.54 12.66 8.37 12.92 8.1 12.98V12.99Z" fill="#212121"/>
<path d="M15.41 10.95L11.74 7.13C11.62 7 11.43 6.96 11.27 7.03C11.11 7.1 11 7.25 11 7.43V12.57C11 12.76 11.12 12.92 11.29 12.98C11.46 13.04 11.66 12.98 11.77 12.82L12.94 11.19L15 11.67C15.18 11.71 15.38 11.63 15.47 11.46C15.56 11.3 15.54 11.09 15.41 10.95Z" fill="#212121"/>
</svg>
