<svg width="230" height="160" viewBox="0 0 230 160" fill="none" xmlns="http://www.w3.org/2000/svg">
<path d="M112.2 139.991C140.2 139.991 162.9 117.29 162.9 89.1905C162.9 61.0905 140.2 38.3905 112.2 38.3905C84.2 38.3905 61.5 61.0905 61.5 89.1905C61.5 117.29 84.2 139.991 112.2 139.991Z" fill="#242424"/>
<path d="M74.9 56.2905H147C149.9 56.2905 152.1 58.4905 152.1 61.3905V107.09C152.1 109.99 149.9 112.19 147 112.19H74.9C72 112.19 69.8 109.99 69.8 107.09V61.3905C69.8 58.4905 72.2 56.2905 74.9 56.2905Z" fill="url(#paint0_linear_964_4892)"/>
<path fill-rule="evenodd" clip-rule="evenodd" d="M68.8 82.1905C69.6285 82.1905 70.3 82.8621 70.3 83.6905V108.09C70.3 110.162 72.0285 111.89 74.1 111.89H148.2C150.353 111.89 152 110.181 152 108.09V85.5905C152 84.7621 152.672 84.0905 153.5 84.0905C154.328 84.0905 155 84.7621 155 85.5905V108.09C155 111.8 152.047 114.89 148.2 114.89H74.1C70.3716 114.89 67.3 111.819 67.3 108.09V83.6905C67.3 82.8621 67.9716 82.1905 68.8 82.1905Z" fill="#1676EE"/>
<path d="M147.2 72.9902H123.8C121.5 72.9902 119.3 73.7902 117.6 75.1902L111.5 80.1902C109.8 81.5902 107.6 82.3902 105.3 82.3902H78.9C76.2 82.3902 74 84.5902 74 87.2902C74 87.4902 74 87.7902 74.1 87.9902L79 113.79C79.4 116.19 81.4 117.99 83.9 117.99H140.4C142.8 117.99 144.9 116.29 145.3 113.89L152.1 78.5902C152.6 75.8902 150.8 73.4902 148.1 72.9902C147.7 72.9902 147.4 72.9902 147.2 72.9902Z" fill="white"/>
<g filter="url(#filter0_d_964_4892)">
<path d="M157.7 66.0902H127.3C124.3 66.0902 121.5 67.0902 119.2 68.9902L111.2 75.4902C109 77.2902 106.1 78.3902 103.1 78.3902H68.6999C65.1999 78.3902 62.3999 81.2902 62.3999 84.6902C62.3999 84.9902 62.3999 85.2902 62.4999 85.5902L68.7999 119.29C69.2999 122.49 71.9999 124.79 75.0999 124.79H148.7C151.9 124.79 154.5 122.59 155 119.39L163.9 73.2902C164.5 69.7902 162.2 66.6902 158.7 65.9902C158.4 66.0902 158 66.0902 157.7 66.0902Z" fill="url(#paint1_linear_964_4892)"/>
</g>
<path d="M98.9001 100.991C100.7 100.991 102.2 99.4905 102.2 97.6905C102.2 95.8905 100.7 94.3905 98.9001 94.3905C97.1001 94.3905 95.6001 95.8905 95.6001 97.6905C95.6001 99.4905 97.1001 100.991 98.9001 100.991Z" fill="#D1D1D1"/>
<path d="M124.6 100.89C126.4 100.89 127.9 99.3905 127.9 97.5905C127.9 95.7905 126.4 94.2905 124.6 94.2905C122.8 94.2905 121.3 95.7905 121.3 97.5905C121.3 99.4905 122.8 100.89 124.6 100.89Z" fill="#D1D1D1"/>
<path d="M114.9 104.49H108.7V105.99H114.9V104.49Z" fill="#D1D1D1"/>
<path fill-rule="evenodd" clip-rule="evenodd" d="M149.526 23.9745C148.081 23.9792 146.635 24.0284 145.193 24.1221L145.064 22.1263C146.547 22.03 148.033 21.9794 149.52 21.9745L149.526 23.9745ZM158.178 24.4808C156.745 24.3072 155.304 24.1782 153.86 24.0938L153.977 22.0972C155.462 22.184 156.944 22.3167 158.419 22.4953L158.178 24.4808ZM140.878 24.5367C139.443 24.7196 138.015 24.9471 136.597 25.2193L136.22 23.2551C137.679 22.975 139.149 22.7409 140.625 22.5527L140.878 24.5367ZM164.586 25.5673C163.881 25.4127 163.173 25.2694 162.462 25.1373L162.828 23.1709C163.559 23.3069 164.288 23.4545 165.014 23.6137L164.586 25.5673ZM130.287 26.7485C130.978 26.545 131.672 26.3528 132.37 26.1717L131.868 24.2357C131.148 24.4226 130.43 24.6212 129.717 24.8313L129.709 24.8338C129.123 25.0122 128.517 25.2055 127.909 25.4213L128.578 27.3061C129.146 27.1045 129.719 26.9214 130.287 26.7485ZM125.409 28.7546C124.921 29.0523 124.469 29.3781 124.064 29.7379L124.05 29.7509L124.035 29.7632C123.417 30.2708 122.882 30.8828 122.441 31.5692L120.759 30.4873C121.301 29.6439 121.967 28.8765 122.75 28.2302C123.254 27.7841 123.8 27.3929 124.369 27.0464L125.409 28.7546ZM128.89 35.4809C128.342 35.3961 127.787 35.3669 127.242 35.3896C126.695 35.4124 126.142 35.4812 125.588 35.5891L125.206 33.626C125.848 33.501 126.5 33.4188 127.158 33.3914C127.83 33.3634 128.516 33.3991 129.196 33.5045L128.89 35.4809ZM121.035 37.2367C121.459 37.021 121.893 36.8156 122.335 36.6253L121.544 34.7884C120.956 35.0417 120.385 35.3172 119.836 35.6047L119.829 35.6083L119.822 35.6121C119.228 35.9354 118.643 36.2793 118.07 36.6426L119.141 38.332C119.146 38.3285 119.151 38.3251 119.157 38.3216C119.204 38.5964 119.262 38.8694 119.332 39.1395C119.584 40.1234 119.986 41.0605 120.508 41.9232L122.219 40.8876C121.794 40.185 121.471 39.4282 121.268 38.6415C121.151 38.1845 121.073 37.714 121.035 37.2367ZM133.019 37.7152C132.687 37.3006 132.303 36.9451 131.879 36.6451L133.034 35.0123C133.596 35.4096 134.114 35.8857 134.565 36.4458C135.038 36.9834 135.409 37.6007 135.678 38.2546L133.828 39.0146C133.634 38.5426 133.372 38.1145 133.053 37.7549L133.035 37.7355L133.019 37.7152ZM116.067 40.5704C115.094 41.3793 114.169 42.2523 113.3 43.1818L111.839 41.8159C112.765 40.8255 113.751 39.8949 114.789 39.0323L116.067 40.5704ZM133.577 43.3209C133.826 42.9316 134.004 42.4845 134.107 42.0021L136.063 42.4219C135.911 43.129 135.641 43.8163 135.238 44.4355L135.222 44.4601L135.205 44.4837C134.773 45.0697 134.239 45.5602 133.646 45.9542L132.539 44.2883C132.948 44.0163 133.3 43.6911 133.577 43.3209ZM125.777 44.2101C126.498 44.5819 127.274 44.8544 128.086 45.0079L128.119 45.0143L128.152 45.0229C128.628 45.1469 129.137 45.2005 129.655 45.1833L129.722 47.1821C129.036 47.205 128.345 47.1364 127.681 46.9668C126.685 46.775 125.738 46.4398 124.861 45.9881L125.777 44.2101ZM110.881 46.1187C110.138 47.146 109.46 48.2209 108.855 49.3357L107.097 48.3815C107.744 47.19 108.468 46.0425 109.26 44.9468L110.881 46.1187ZM107.27 52.785C107.045 53.3758 106.84 53.9745 106.657 54.5802L106.654 54.5917C106.462 55.1983 106.292 55.8103 106.142 56.4266L104.198 55.9547C104.358 55.2969 104.54 54.6432 104.745 53.9951C104.941 53.3464 105.16 52.7058 105.4 52.0742L107.27 52.785ZM105.491 60.181C105.357 61.4473 105.306 62.7208 105.337 63.9916L103.337 64.0395C103.305 62.6833 103.359 61.3234 103.503 59.9703L105.491 60.181ZM105.672 67.7923C105.864 69.0512 106.137 70.2969 106.488 71.5196L104.565 72.0713C104.191 70.7665 103.9 69.4374 103.695 68.0946L105.672 67.7923ZM107.774 75.1097C108.027 75.693 108.299 76.2678 108.589 76.8332L106.811 77.7478C106.5 77.1431 106.209 76.5285 105.939 75.9052L107.774 75.1097Z" fill="#777777"/>
<path d="M170.8 21.9905C170.7 23.4905 170.6 24.8905 169.5 25.1905C168.4 25.4905 167.9 24.4905 167.2 23.0905C166.5 21.7905 166.9 20.3905 168.1 20.0905C169.2 19.7905 171 20.1905 170.8 21.9905Z" fill="#CBCBCB"/>
<path d="M169.6 29.1905C169.9 27.3905 170.2 26.3905 169.2 25.8905C168.1 25.3905 167.4 26.2905 166.2 27.4905C165.2 28.5905 165.8 30.1905 166.8 30.6905C168 31.2905 169.3 30.6905 169.6 29.1905Z" fill="#CBCBCB"/>
<path d="M171 25.8906C170.9 26.5906 170.4 27.0906 169.7 27.1906C169.4 27.1906 169.1 27.1906 168.7 27.1906C167.3 26.9906 166.2 26.0906 166.3 25.1906C166.4 24.2906 167.7 23.7906 169.3 23.9906C169.6 23.9906 169.9 24.0906 170.1 24.1906C170.7 24.3906 171.1 25.0906 171 25.8906Z" fill="#5C5C5C"/>
<path d="M59.4 53.9905C59.4 52.2905 59.4 50.5905 60.6 50.0905C61.9 49.5905 62.6 50.7905 63.6 52.4905C64.5 53.9905 64.1 55.5905 62.8 56.0905C61.7 56.5905 59.4 56.2905 59.4 53.9905Z" fill="#CBCBCB"/>
<path d="M60.1 45.5905C59.9 47.6905 59.6 48.8905 60.9 49.3905C62.2 49.8905 62.9 48.7905 64.2 47.1905C65.2 45.7905 64.5 43.9905 63.2 43.4905C61.9 42.9905 60.3 43.8905 60.1 45.5905Z" fill="#CBCBCB"/>
<path d="M59 49.5905C59 48.7905 59.6 48.1905 60.3 48.0905C60.6 47.9905 61 47.9905 61.4 48.0905C63 48.1905 64.4 49.0905 64.3 50.0905C64.2 51.0905 62.9 51.7905 61.2 51.5905C60.9 51.5905 60.6 51.4905 60.3 51.3905C59.5 51.2905 59 50.4905 59 49.5905Z" fill="#5C5C5C"/>
<path fill-rule="evenodd" clip-rule="evenodd" d="M67.6658 50.9532C67.0162 50.9107 66.3925 50.8905 65.8 50.8905V48.8905C66.4376 48.8905 67.105 48.9122 67.7965 48.9575L67.6658 50.9532ZM75.0542 52.276C73.8111 51.9121 72.5823 51.6275 71.3925 51.4135L71.7465 49.4451C73.0038 49.6712 74.3022 49.9719 75.6162 50.3566L75.0542 52.276ZM81.9621 55.1786C80.8618 54.5521 79.734 54.0043 78.5971 53.5287L79.369 51.6836C80.5757 52.1884 81.7766 52.7715 82.9516 53.4406L81.9621 55.1786ZM87.8643 59.6985C86.9862 58.798 86.0523 57.9787 85.0776 57.2352L86.2905 55.645C87.3388 56.4446 88.3465 57.3282 89.2962 58.3023L87.8643 59.6985ZM92.1507 65.7287C91.5827 64.59 90.9432 63.5316 90.2444 62.5485L91.8745 61.3897C92.6324 62.456 93.3256 63.6033 93.9404 64.836L92.1507 65.7287ZM94.4707 72.7959C94.2363 71.5189 93.9291 70.3129 93.5581 69.1741L95.4598 68.5546C95.8589 69.7799 96.1878 71.0724 96.4378 72.4349L94.4707 72.7959ZM95.0001 78.4039C94.9915 77.7615 94.9668 77.1335 94.9267 76.5197L96.9224 76.3894C96.9648 77.0383 96.9908 77.7008 96.9999 78.3771L95.0001 78.4039Z" fill="#777777"/>
<defs>
<filter id="filter0_d_964_4892" x="46.3999" y="57.9902" width="133.595" height="90.8" filterUnits="userSpaceOnUse" color-interpolation-filters="sRGB">
<feFlood flood-opacity="0" result="BackgroundImageFix"/>
<feColorMatrix in="SourceAlpha" type="matrix" values="0 0 0 0 0 0 0 0 0 0 0 0 0 0 0 0 0 0 127 0" result="hardAlpha"/>
<feOffset dy="8"/>
<feGaussianBlur stdDeviation="8"/>
<feColorMatrix type="matrix" values="0 0 0 0 0 0 0 0 0 0 0 0 0 0 0 0 0 0 0.24 0"/>
<feBlend mode="normal" in2="BackgroundImageFix" result="effect1_dropShadow_964_4892"/>
<feBlend mode="normal" in="SourceGraphic" in2="effect1_dropShadow_964_4892" result="shape"/>
</filter>
<linearGradient id="paint0_linear_964_4892" x1="110.95" y1="56.2905" x2="110.95" y2="112.19" gradientUnits="userSpaceOnUse">
<stop stop-color="#363636"/>
<stop offset="1" stop-color="#1D1D1D"/>
</linearGradient>
<linearGradient id="paint1_linear_964_4892" x1="113.164" y1="64.6301" x2="113.164" y2="125.424" gradientUnits="userSpaceOnUse">
<stop stop-color="#5C5C5C"/>
<stop offset="0.9964" stop-color="#4D4D4D"/>
</linearGradient>
</defs>
</svg>
