<svg width="230" height="160" viewBox="0 0 230 160" fill="none" xmlns="http://www.w3.org/2000/svg">
<path d="M112.2 139.991C140.2 139.991 162.9 117.291 162.9 89.1906C162.9 61.0906 140.2 38.3906 112.2 38.3906C84.2 38.3906 61.5 61.0906 61.5 89.1906C61.5 117.291 84.2 139.991 112.2 139.991Z" fill="#EBEBEB"/>
<path d="M74.9003 56.2905H147C149.9 56.2905 152.1 58.4905 152.1 61.3905V107.091C152.1 109.991 149.9 112.191 147 112.191H74.9003C72.0003 112.191 69.8003 109.991 69.8003 107.091V61.3905C69.8003 58.4905 72.2003 56.2905 74.9003 56.2905Z" fill="url(#paint0_linear_964_4890)"/>
<path fill-rule="evenodd" clip-rule="evenodd" d="M68.8003 82.1904C69.6287 82.1904 70.3003 82.862 70.3003 83.6904V108.09C70.3003 110.162 72.0287 111.89 74.1003 111.89H148.2C150.353 111.89 152 110.181 152 108.09V85.5904C152 84.762 152.672 84.0904 153.5 84.0904C154.329 84.0904 155 84.762 155 85.5904V108.09C155 111.8 152.047 114.89 148.2 114.89H74.1003C70.3719 114.89 67.3003 111.819 67.3003 108.09V83.6904C67.3003 82.862 67.9719 82.1904 68.8003 82.1904Z" fill="#1676EE"/>
<path d="M147.2 72.9902H123.8C121.5 72.9902 119.3 73.7902 117.6 75.1902L111.5 80.1902C109.8 81.5902 107.6 82.3902 105.3 82.3902H78.9C76.2 82.3902 74 84.5902 74 87.2902C74 87.4902 74 87.7902 74.1 87.9902L79 113.79C79.4 116.19 81.4 117.99 83.9 117.99H140.4C142.8 117.99 144.9 116.29 145.3 113.89L152.1 78.5902C152.6 75.8902 150.8 73.4902 148.1 72.9902C147.7 72.9902 147.4 72.9902 147.2 72.9902Z" fill="white"/>
<g filter="url(#filter0_d_964_4890)">
<path d="M157.7 66.0902H127.3C124.3 66.0902 121.5 67.0902 119.2 68.9902L111.2 75.4902C109 77.2902 106.1 78.3902 103.1 78.3902H68.6999C65.1999 78.3902 62.3999 81.2902 62.3999 84.6902C62.3999 84.9902 62.3999 85.2902 62.4999 85.5902L68.7999 119.29C69.2999 122.49 71.9999 124.79 75.0999 124.79H148.7C151.9 124.79 154.5 122.59 155 119.39L163.9 73.2902C164.442 70.126 162.615 67.2888 159.673 66.2562C159.049 66.0372 158.361 66.0902 157.7 66.0902Z" fill="url(#paint1_linear_964_4890)"/>
</g>
<path d="M98.9001 100.991C100.7 100.991 102.2 99.4906 102.2 97.6906C102.2 95.8906 100.7 94.3906 98.9001 94.3906C97.1001 94.3906 95.6001 95.8906 95.6001 97.6906C95.6001 99.4906 97.1001 100.991 98.9001 100.991Z" fill="#777777"/>
<path d="M124.6 100.891C126.4 100.891 127.9 99.3905 127.9 97.5905C127.9 95.7905 126.4 94.2905 124.6 94.2905C122.8 94.2905 121.3 95.7905 121.3 97.5905C121.3 99.4905 122.8 100.891 124.6 100.891Z" fill="#777777"/>
<path d="M114.9 104.49H108.7V105.99H114.9V104.49Z" fill="#777777"/>
<path fill-rule="evenodd" clip-rule="evenodd" d="M149.526 23.9745C148.081 23.9792 146.635 24.0284 145.193 24.1221L145.064 22.1263C146.547 22.03 148.033 21.9794 149.52 21.9745L149.526 23.9745ZM158.178 24.4808C156.745 24.3072 155.304 24.1782 153.86 24.0938L153.977 22.0972C155.462 22.184 156.944 22.3167 158.419 22.4953L158.178 24.4808ZM140.878 24.5367C139.443 24.7196 138.015 24.9471 136.597 25.2193L136.22 23.2551C137.679 22.975 139.149 22.7409 140.625 22.5527L140.878 24.5367ZM164.586 25.5673C163.881 25.4127 163.173 25.2694 162.462 25.1373L162.828 23.1709C163.559 23.3069 164.288 23.4545 165.014 23.6137L164.586 25.5673ZM130.287 26.7485C130.978 26.545 131.672 26.3528 132.37 26.1717L131.868 24.2357C131.148 24.4226 130.43 24.6212 129.717 24.8313L129.709 24.8338C129.123 25.0122 128.517 25.2055 127.909 25.4213L128.578 27.3061C129.146 27.1045 129.719 26.9214 130.287 26.7485ZM125.409 28.7546C124.921 29.0523 124.469 29.3781 124.064 29.7379L124.05 29.7509L124.035 29.7632C123.417 30.2708 122.882 30.8828 122.441 31.5692L120.759 30.4873C121.301 29.6439 121.967 28.8765 122.75 28.2302C123.254 27.7841 123.8 27.3929 124.369 27.0464L125.409 28.7546ZM128.89 35.4809C128.342 35.3961 127.787 35.3669 127.242 35.3896C126.695 35.4124 126.142 35.4812 125.588 35.5891L125.206 33.626C125.848 33.501 126.5 33.4188 127.158 33.3914C127.83 33.3634 128.516 33.3991 129.196 33.5045L128.89 35.4809ZM121.035 37.2367C121.459 37.021 121.893 36.8156 122.335 36.6253L121.544 34.7884C120.956 35.0417 120.385 35.3172 119.836 35.6047L119.829 35.6083L119.822 35.6121C119.228 35.9354 118.643 36.2793 118.07 36.6426L119.141 38.332C119.146 38.3285 119.151 38.3251 119.157 38.3216C119.204 38.5964 119.262 38.8694 119.332 39.1395C119.584 40.1234 119.986 41.0605 120.508 41.9232L122.219 40.8876C121.794 40.185 121.471 39.4282 121.268 38.6415C121.151 38.1845 121.073 37.714 121.035 37.2367ZM133.019 37.7152C132.687 37.3006 132.303 36.9451 131.879 36.6451L133.034 35.0123C133.596 35.4096 134.114 35.8857 134.565 36.4458C135.038 36.9834 135.409 37.6007 135.678 38.2546L133.828 39.0146C133.634 38.5426 133.372 38.1145 133.053 37.7549L133.035 37.7355L133.019 37.7152ZM116.067 40.5704C115.094 41.3793 114.169 42.2523 113.3 43.1818L111.839 41.8159C112.765 40.8255 113.751 39.8949 114.789 39.0323L116.067 40.5704ZM133.577 43.3209C133.826 42.9316 134.004 42.4845 134.107 42.0021L136.063 42.4219C135.911 43.129 135.641 43.8163 135.238 44.4355L135.222 44.4601L135.205 44.4837C134.773 45.0697 134.239 45.5602 133.646 45.9542L132.539 44.2883C132.948 44.0163 133.3 43.6911 133.577 43.3209ZM125.777 44.2101C126.498 44.5819 127.274 44.8544 128.086 45.0079L128.119 45.0143L128.152 45.0229C128.628 45.1469 129.137 45.2005 129.655 45.1833L129.722 47.1821C129.036 47.205 128.345 47.1364 127.681 46.9668C126.685 46.775 125.738 46.4398 124.861 45.9881L125.777 44.2101ZM110.881 46.1187C110.138 47.146 109.46 48.2209 108.855 49.3357L107.097 48.3815C107.744 47.19 108.468 46.0425 109.26 44.9468L110.881 46.1187ZM107.27 52.785C107.045 53.3758 106.84 53.9745 106.657 54.5802L106.654 54.5917C106.462 55.1983 106.292 55.8103 106.142 56.4266L104.198 55.9547C104.358 55.2969 104.54 54.6432 104.745 53.9951C104.941 53.3464 105.16 52.7058 105.4 52.0742L107.27 52.785ZM105.491 60.181C105.357 61.4473 105.306 62.7208 105.337 63.9916L103.337 64.0395C103.305 62.6833 103.359 61.3234 103.503 59.9703L105.491 60.181ZM105.672 67.7923C105.864 69.0512 106.137 70.2969 106.488 71.5196L104.565 72.0713C104.191 70.7665 103.9 69.4374 103.695 68.0946L105.672 67.7923ZM107.774 75.1097C108.027 75.693 108.299 76.2678 108.589 76.8332L106.811 77.7478C106.5 77.1431 106.209 76.5285 105.939 75.9052L107.774 75.1097Z" fill="#B7B4AF"/>
<path d="M170.8 21.9905C170.7 23.4905 170.6 24.8905 169.5 25.1905C168.4 25.4905 167.9 24.4905 167.2 23.0905C166.5 21.7905 166.9 20.3905 168.1 20.0905C169.2 19.7905 171 20.1905 170.8 21.9905Z" fill="#B7B4AF"/>
<path d="M169.6 29.1905C169.9 27.3905 170.2 26.3905 169.2 25.8905C168.1 25.3905 167.4 26.2905 166.2 27.4905C165.2 28.5905 165.8 30.1905 166.8 30.6905C168 31.2905 169.3 30.6905 169.6 29.1905Z" fill="#B7B4AF"/>
<path d="M171 25.8906C170.9 26.5906 170.4 27.0906 169.7 27.1906C169.4 27.1906 169.1 27.1906 168.7 27.1906C167.3 26.9906 166.2 26.0906 166.3 25.1906C166.4 24.2906 167.7 23.7906 169.3 23.9906C169.6 23.9906 169.9 24.0906 170.1 24.1906C170.7 24.3906 171.1 25.0906 171 25.8906Z" fill="#777777"/>
<path d="M59.3999 53.9905C59.3999 52.2905 59.3999 50.5905 60.5999 50.0905C61.8999 49.5905 62.5999 50.7905 63.5999 52.4905C64.4999 53.9905 64.0999 55.5905 62.7999 56.0905C61.6999 56.5905 59.3999 56.2905 59.3999 53.9905Z" fill="#B7B4AF"/>
<path d="M60.1002 45.5906C59.9002 47.6906 59.6002 48.8906 60.9002 49.3906C62.2002 49.8906 62.9002 48.7906 64.2002 47.1906C65.2002 45.7906 64.5002 43.9906 63.2002 43.4906C61.9002 42.9906 60.3002 43.8906 60.1002 45.5906Z" fill="#B7B4AF"/>
<path d="M59 49.5906C59 48.7906 59.6 48.1906 60.3 48.0906C60.6 47.9906 61 47.9906 61.4 48.0906C63 48.1906 64.4 49.0906 64.3 50.0906C64.2 51.0906 62.9 51.7906 61.2 51.5906C60.9 51.5906 60.6 51.4906 60.3 51.3906C59.5 51.2906 59 50.4906 59 49.5906Z" fill="#777777"/>
<path fill-rule="evenodd" clip-rule="evenodd" d="M67.6661 50.9533C67.0166 50.9108 66.3928 50.8906 65.8003 50.8906V48.8906C66.4379 48.8906 67.1053 48.9123 67.7968 48.9576L67.6661 50.9533ZM75.0545 52.2762C73.8114 51.9122 72.5826 51.6276 71.3928 51.4136L71.7468 49.4452C73.0041 49.6714 74.3025 49.972 75.6165 50.3567L75.0545 52.2762ZM81.9624 55.1787C80.8621 54.5523 79.7343 54.0044 78.5974 53.5288L79.3693 51.6838C80.576 52.1886 81.7769 52.7717 82.9519 53.4407L81.9624 55.1787ZM87.8646 59.6986C86.9865 58.7981 86.0526 57.9788 85.0779 57.2354L86.2908 55.6452C87.3391 56.4447 88.3468 57.3284 89.2965 58.3024L87.8646 59.6986ZM92.151 65.7288C91.583 64.5901 90.9435 63.5317 90.2447 62.5486L91.8748 61.3898C92.6327 62.4561 93.3259 63.6034 93.9407 64.8362L92.151 65.7288ZM94.471 72.796C94.2366 71.519 93.9294 70.313 93.5584 69.1742L95.4601 68.5547C95.8592 69.78 96.1881 71.0725 96.4381 72.435L94.471 72.796ZM95.0004 78.404C94.9918 77.7616 94.9671 77.1336 94.927 76.5198L96.9227 76.3895C96.9651 77.0385 96.9911 77.701 97.0002 78.3772L95.0004 78.404Z" fill="#B7B4AF"/>
<defs>
<filter id="filter0_d_964_4890" x="46.3999" y="58.0846" width="133.595" height="90.7056" filterUnits="userSpaceOnUse" color-interpolation-filters="sRGB">
<feFlood flood-opacity="0" result="BackgroundImageFix"/>
<feColorMatrix in="SourceAlpha" type="matrix" values="0 0 0 0 0 0 0 0 0 0 0 0 0 0 0 0 0 0 127 0" result="hardAlpha"/>
<feOffset dy="8"/>
<feGaussianBlur stdDeviation="8"/>
<feColorMatrix type="matrix" values="0 0 0 0 0.576471 0 0 0 0 0.501961 0 0 0 0 0.396078 0 0 0 0.24 0"/>
<feBlend mode="normal" in2="BackgroundImageFix" result="effect1_dropShadow_964_4890"/>
<feBlend mode="normal" in="SourceGraphic" in2="effect1_dropShadow_964_4890" result="shape"/>
</filter>
<linearGradient id="paint0_linear_964_4890" x1="110.957" y1="58.2324" x2="110.957" y2="89.6085" gradientUnits="userSpaceOnUse">
<stop stop-color="#B7B4AF"/>
<stop offset="1" stop-color="#5C5C5C"/>
</linearGradient>
<linearGradient id="paint1_linear_964_4890" x1="113.164" y1="64.6301" x2="113.164" y2="125.424" gradientUnits="userSpaceOnUse">
<stop stop-color="#FDFEFF"/>
<stop offset="0.9964" stop-color="#F5F2EC"/>
</linearGradient>
</defs>
</svg>
