<svg xmlns="http://www.w3.org/2000/svg" width="160" height="160" fill="none" viewBox="0 0 160 160">
  <path fill="#F0F0F0" d="M77.2 139.991c28 0 50.7-22.7 50.7-50.8 0-28.1-22.7-50.8-50.7-50.8-28 0-50.7 22.7-50.7 50.8 0 28.1 22.7 50.8 50.7 50.8Z"/>
  <path fill="url(#a)" d="M39.9 56.29H112c2.9 0 5.1 2.2 5.1 5.1v45.701c0 2.9-2.2 5.1-5.1 5.1H39.9c-2.9 0-5.1-2.2-5.1-5.1v-45.7c0-2.9 2.4-5.1 5.1-5.1Z"/>
  <path fill="#1676EE" fill-rule="evenodd" d="M33.8 82.19a1.5 1.5 0 0 1 1.5 1.5v24.4c0 2.072 1.729 3.8 3.8 3.8h74.1a3.77 3.77 0 0 0 3.8-3.8v-22.5a1.5 1.5 0 0 1 3 0v22.5c0 3.71-2.953 6.8-6.8 6.8H39.1c-3.728 0-6.8-3.071-6.8-6.8v-24.4a1.5 1.5 0 0 1 1.5-1.5Z" clip-rule="evenodd"/>
  <path fill="#fff" d="M112.2 72.99H88.8c-2.3 0-4.5.8-6.2 2.2l-6.1 5c-1.7 1.4-3.9 2.2-6.2 2.2H43.9c-2.7 0-4.9 2.2-4.9 4.9 0 .2 0 .5.1.7l4.9 25.8c.4 2.4 2.4 4.2 4.9 4.2h56.5c2.4 0 4.5-1.7 4.9-4.1l6.8-35.3c.5-2.7-1.3-5.1-4-5.6h-.9Z"/>
  <g filter="url(#b)">
    <path fill="url(#c)" d="M122.7 66.09H92.3c-3 0-5.8 1-8.1 2.9l-8 6.5c-2.2 1.8-5.1 2.9-8.1 2.9H33.7c-3.5 0-6.3 2.9-6.3 6.3 0 .3 0 .6.1.9l6.3 33.7c.5 3.2 3.2 5.5 6.3 5.5h73.6c3.2 0 5.8-2.2 6.3-5.4l8.9-46.1c.542-3.164-1.285-6.001-4.227-7.034-.624-.219-1.312-.166-1.973-.166Z"/>
  </g>
  <path fill="#777" d="M63.9 100.991c1.8 0 3.3-1.5 3.3-3.3 0-1.8-1.5-3.3-3.3-3.3-1.8 0-3.3 1.5-3.3 3.3 0 1.8 1.5 3.3 3.3 3.3Zm25.7-.1c1.8 0 3.3-1.5 3.3-3.3 0-1.8-1.5-3.3-3.3-3.3-1.8 0-3.3 1.5-3.3 3.3 0 1.9 1.5 3.3 3.3 3.3Z"/>
  <path fill="#B7B4AF" fill-rule="evenodd" d="M114.526 23.975a70.376 70.376 0 0 0-4.333.147l-.129-1.996a72.45 72.45 0 0 1 4.456-.151l.006 2Zm8.652.506a69.763 69.763 0 0 0-4.318-.387l.117-1.997c1.485.087 2.967.22 4.442.398l-.241 1.986Zm-17.3.056a68.96 68.96 0 0 0-4.281.682l-.377-1.964a71.006 71.006 0 0 1 4.405-.702l.253 1.984Zm23.708 1.03a67.354 67.354 0 0 0-2.124-.43l.366-1.966c.731.136 1.46.284 2.186.443l-.428 1.953Zm-34.3 1.182a66.11 66.11 0 0 1 2.084-.577l-.502-1.936a68.22 68.22 0 0 0-2.15.595l-.01.003c-.585.178-1.191.372-1.8.587l.67 1.885a39.395 39.395 0 0 1 1.709-.557Zm-4.877 2.006c-.489.297-.94.623-1.345.983l-.014.013-.015.012a7.768 7.768 0 0 0-1.594 1.806l-1.683-1.082a9.769 9.769 0 0 1 1.992-2.257c.504-.446 1.05-.837 1.619-1.183l1.04 1.708Zm3.481 6.726a8.501 8.501 0 0 0-1.648-.091c-.547.023-1.1.091-1.654.2l-.382-1.964a13.06 13.06 0 0 1 1.952-.234 10.49 10.49 0 0 1 2.038.113l-.306 1.976Zm-7.856 1.756a22.56 22.56 0 0 1 1.3-.612l-.79-1.837c-.588.254-1.16.53-1.708.817l-.007.003-.007.004c-.594.323-1.178.667-1.752 1.03l1.07 1.69.017-.01a10.37 10.37 0 0 0 1.35 3.602l1.712-1.036a8.37 8.37 0 0 1-.95-2.246 8.355 8.355 0 0 1-.235-1.405Zm11.985.478a5.576 5.576 0 0 0-1.14-1.07l1.155-1.633a7.56 7.56 0 0 1 1.53 1.434 6.446 6.446 0 0 1 1.114 1.809l-1.85.76a4.423 4.423 0 0 0-.775-1.26l-.018-.02-.016-.02ZM81.067 40.57a30.326 30.326 0 0 0-2.767 2.612l-1.46-1.366a32.336 32.336 0 0 1 2.95-2.784l1.277 1.539Zm17.51 2.751a3.99 3.99 0 0 0 .53-1.319l1.956.42a5.993 5.993 0 0 1-.825 2.014l-.016.024-.017.024a6.162 6.162 0 0 1-1.56 1.47l-1.106-1.666c.41-.272.761-.597 1.038-.967Zm-7.8.89a8.486 8.486 0 0 0 2.309.797l.033.006.033.009a5.28 5.28 0 0 0 1.503.16l.067 2a7.284 7.284 0 0 1-2.04-.216 10.496 10.496 0 0 1-2.821-.979l.916-1.778ZM75.88 46.118a29.562 29.562 0 0 0-2.026 3.217l-1.758-.954a31.564 31.564 0 0 1 2.163-3.435l1.621 1.172Zm-3.612 6.666c-.224.59-.429 1.19-.612 1.795l-.003.012a28.117 28.117 0 0 0-.512 1.835l-1.944-.472c.16-.658.342-1.312.547-1.96a29.3 29.3 0 0 1 .655-1.92l1.87.71ZM70.49 60.18a29.477 29.477 0 0 0-.154 3.81l-2 .049a31.484 31.484 0 0 1 .165-4.07l1.99.211Zm.18 7.611c.193 1.26.466 2.505.817 3.728l-1.923.551a31.887 31.887 0 0 1-.87-3.976l1.977-.303Zm2.103 7.318c.253.583.525 1.158.815 1.723l-1.778.915a30.902 30.902 0 0 1-.872-1.843l1.835-.795Z" clip-rule="evenodd"/>
  <path fill="#777" d="M79.9 104.49h-6.2v1.5h6.2v-1.5Z"/>
  <path fill="#B7B4AF" d="M135.8 21.99c-.1 1.5-.2 2.9-1.3 3.2-1.1.3-1.6-.7-2.3-2.1-.7-1.3-.3-2.7.9-3 1.1-.3 2.9.1 2.7 1.9Zm-1.2 7.2c.3-1.8.6-2.8-.4-3.3-1.1-.5-1.8.4-3 1.6-1 1.1-.4 2.7.6 3.2 1.2.6 2.5 0 2.8-1.5Z"/>
  <path fill="#777" d="M136 25.89c-.1.7-.6 1.2-1.3 1.3h-1c-1.4-.2-2.5-1.1-2.4-2 .1-.9 1.4-1.4 3-1.2.3 0 .6.1.8.2.6.2 1 .9.9 1.7 0 0 0-.1 0 0Z"/>
  <path fill="#B7B4AF" d="M24.4 53.99c0-1.7 0-3.4 1.2-3.9 1.3-.5 2 .7 3 2.4.9 1.5.5 3.1-.8 3.6-1.1.5-3.4.2-3.4-2.1Zm.7-8.4c-.2 2.1-.5 3.3.8 3.8s2-.6 3.3-2.2c1-1.4.3-3.2-1-3.7s-2.9.4-3.1 2.1Z"/>
  <path fill="#777" d="M24 49.59c0-.8.6-1.4 1.3-1.5.3-.1.7-.1 1.1 0 1.6.1 3 1 2.9 2-.1 1-1.4 1.7-3.1 1.5-.3 0-.6-.1-.9-.2-.8-.1-1.3-.9-1.3-1.8Z"/>
  <path fill="#B7B4AF" fill-rule="evenodd" d="M32.666 50.953a28.635 28.635 0 0 0-1.866-.062v-2c.638 0 1.305.021 1.997.067l-.13 1.995Zm7.389 1.323a35.276 35.276 0 0 0-3.662-.862l.354-1.969c1.257.226 2.556.527 3.87.912l-.563 1.92Zm6.907 2.903a30.927 30.927 0 0 0-3.365-1.65l.772-1.845a32.914 32.914 0 0 1 3.583 1.757l-.99 1.738Zm5.903 4.52c-.879-.9-1.812-1.72-2.787-2.464l1.213-1.59a27.51 27.51 0 0 1 3.006 2.657L52.864 59.7Zm4.286 6.03a23.876 23.876 0 0 0-1.906-3.18l1.63-1.16a25.867 25.867 0 0 1 2.066 3.447l-1.79.893Zm2.32 7.067a27.994 27.994 0 0 0-.913-3.622l1.902-.62c.4 1.226.728 2.519.978 3.881l-1.967.361Zm.53 5.608a36.37 36.37 0 0 0-.074-1.884l1.996-.13A38.7 38.7 0 0 1 62 78.377l-2 .027Z" clip-rule="evenodd"/>
  <defs>
    <linearGradient id="a" x1="75.957" x2="75.957" y1="58.232" y2="89.609" gradientUnits="userSpaceOnUse">
      <stop stop-color="#B7B4AF"/>
      <stop offset="1" stop-color="#5C5C5C"/>
    </linearGradient>
    <linearGradient id="c" x1="78.164" x2="78.164" y1="64.63" y2="125.424" gradientUnits="userSpaceOnUse">
      <stop stop-color="#FDFEFF"/>
      <stop offset=".996" stop-color="#F5F2EC"/>
    </linearGradient>
    <filter id="b" width="133.595" height="90.706" x="11.4" y="58.084" color-interpolation-filters="sRGB" filterUnits="userSpaceOnUse">
      <feFlood flood-opacity="0" result="BackgroundImageFix"/>
      <feColorMatrix in="SourceAlpha" result="hardAlpha" values="0 0 0 0 0 0 0 0 0 0 0 0 0 0 0 0 0 0 127 0"/>
      <feOffset dy="8"/>
      <feGaussianBlur stdDeviation="8"/>
      <feColorMatrix values="0 0 0 0 0.576471 0 0 0 0 0.501961 0 0 0 0 0.396078 0 0 0 0.24 0"/>
      <feBlend in2="BackgroundImageFix" result="effect1_dropShadow_964_4890"/>
      <feBlend in="SourceGraphic" in2="effect1_dropShadow_964_4890" result="shape"/>
    </filter>
  </defs>
</svg>
